%TF.GenerationSoftware,KiCad,Pcbnew,9.0.9-9.0.9~ubuntu24.04.1*%
%TF.CreationDate,2026-10-04T19:13:42+00:00*%
%TF.ProjectId,module-iso,6d6f6475-6c65-42d6-9973-6f2e6b696361,A*%
%TF.SameCoordinates,Original*%
%TF.FileFunction,Legend,Bot*%
%TF.FilePolarity,Positive*%
%FSLAX46Y46*%
G04 Gerber Fmt 4.6, Leading zero omitted, Abs format (unit mm)*
G04 Created by KiCad (PCBNEW 9.0.9-9.0.9~ubuntu24.04.1) date 2026-10-04 19:13:42*
%MOMM*%
%LPD*%
G01*
G04 APERTURE LIST*
%ADD10C,0.180000*%
%ADD11C,0.150000*%
G04 APERTURE END LIST*
D10*
X69175475Y-70358020D02*
X69223094Y-70405640D01*
X69223094Y-70405640D02*
X69365951Y-70453259D01*
X69365951Y-70453259D02*
X69461189Y-70453259D01*
X69461189Y-70453259D02*
X69604046Y-70405640D01*
X69604046Y-70405640D02*
X69699284Y-70310401D01*
X69699284Y-70310401D02*
X69746903Y-70215163D01*
X69746903Y-70215163D02*
X69794522Y-70024687D01*
X69794522Y-70024687D02*
X69794522Y-69881830D01*
X69794522Y-69881830D02*
X69746903Y-69691354D01*
X69746903Y-69691354D02*
X69699284Y-69596116D01*
X69699284Y-69596116D02*
X69604046Y-69500878D01*
X69604046Y-69500878D02*
X69461189Y-69453259D01*
X69461189Y-69453259D02*
X69365951Y-69453259D01*
X69365951Y-69453259D02*
X69223094Y-69500878D01*
X69223094Y-69500878D02*
X69175475Y-69548497D01*
X68794522Y-69548497D02*
X68746903Y-69500878D01*
X68746903Y-69500878D02*
X68651665Y-69453259D01*
X68651665Y-69453259D02*
X68413570Y-69453259D01*
X68413570Y-69453259D02*
X68318332Y-69500878D01*
X68318332Y-69500878D02*
X68270713Y-69548497D01*
X68270713Y-69548497D02*
X68223094Y-69643735D01*
X68223094Y-69643735D02*
X68223094Y-69738973D01*
X68223094Y-69738973D02*
X68270713Y-69881830D01*
X68270713Y-69881830D02*
X68842141Y-70453259D01*
X68842141Y-70453259D02*
X68223094Y-70453259D01*
X89120713Y-101853259D02*
X89596903Y-101853259D01*
X89596903Y-101853259D02*
X89596903Y-100853259D01*
X88263570Y-101853259D02*
X88834998Y-101853259D01*
X88549284Y-101853259D02*
X88549284Y-100853259D01*
X88549284Y-100853259D02*
X88644522Y-100996116D01*
X88644522Y-100996116D02*
X88739760Y-101091354D01*
X88739760Y-101091354D02*
X88834998Y-101138973D01*
X98916665Y-77568200D02*
X99392855Y-77568200D01*
X99392855Y-77568200D02*
X99392855Y-76568200D01*
X98630950Y-76663438D02*
X98583331Y-76615819D01*
X98583331Y-76615819D02*
X98488093Y-76568200D01*
X98488093Y-76568200D02*
X98249998Y-76568200D01*
X98249998Y-76568200D02*
X98154760Y-76615819D01*
X98154760Y-76615819D02*
X98107141Y-76663438D01*
X98107141Y-76663438D02*
X98059522Y-76758676D01*
X98059522Y-76758676D02*
X98059522Y-76853914D01*
X98059522Y-76853914D02*
X98107141Y-76996771D01*
X98107141Y-76996771D02*
X98678569Y-77568200D01*
X98678569Y-77568200D02*
X98059522Y-77568200D01*
X87698258Y-85761905D02*
X88507781Y-85761905D01*
X88507781Y-85761905D02*
X88603019Y-85809524D01*
X88603019Y-85809524D02*
X88650639Y-85857143D01*
X88650639Y-85857143D02*
X88698258Y-85952381D01*
X88698258Y-85952381D02*
X88698258Y-86142857D01*
X88698258Y-86142857D02*
X88650639Y-86238095D01*
X88650639Y-86238095D02*
X88603019Y-86285714D01*
X88603019Y-86285714D02*
X88507781Y-86333333D01*
X88507781Y-86333333D02*
X87698258Y-86333333D01*
X88698258Y-87333333D02*
X88698258Y-86761905D01*
X88698258Y-87047619D02*
X87698258Y-87047619D01*
X87698258Y-87047619D02*
X87841115Y-86952381D01*
X87841115Y-86952381D02*
X87936353Y-86857143D01*
X87936353Y-86857143D02*
X87983972Y-86761905D01*
X88031591Y-88190476D02*
X88698258Y-88190476D01*
X87650639Y-87952381D02*
X88364924Y-87714286D01*
X88364924Y-87714286D02*
X88364924Y-88333333D01*
D11*
%TO.C,L1*%
X90490000Y-98290000D02*
X90490000Y-104510000D01*
X96710000Y-104510000D02*
X96710000Y-98290000D01*
%TO.C,L2*%
X93517410Y-97040916D02*
X93517410Y-95909545D01*
X94648781Y-95909545D01*
X93517410Y-97040916D01*
G36*
X93517410Y-97040916D02*
G01*
X93517410Y-95909545D01*
X94648781Y-95909545D01*
X93517410Y-97040916D01*
G37*
%TO.C,C2*%
X71790000Y-66590000D02*
X71790000Y-68940000D01*
X71790000Y-73410000D02*
X71790000Y-71060000D01*
X77545563Y-66590000D02*
X71790000Y-66590000D01*
X77545563Y-73410000D02*
X71790000Y-73410000D01*
X78610000Y-67654437D02*
X77545563Y-66590000D01*
X78610000Y-67654437D02*
X78610000Y-68940000D01*
X78610000Y-72345563D02*
X77545563Y-73410000D01*
X78610000Y-72345563D02*
X78610000Y-71060000D01*
X79243750Y-67758750D02*
X79243750Y-68546250D01*
X79637500Y-68152500D02*
X78850000Y-68152500D01*
%TO.C,C45*%
X77090000Y-100590000D02*
X77090000Y-102940000D01*
X77090000Y-107410000D02*
X77090000Y-105060000D01*
X82845563Y-107410000D02*
X77090000Y-107410000D01*
X83910000Y-101654437D02*
X82845563Y-100590000D01*
X83910000Y-101654437D02*
X83910000Y-102940000D01*
X83910000Y-106345563D02*
X82845563Y-107410000D01*
X83910000Y-106345563D02*
X83910000Y-105060000D01*
X84543750Y-101758750D02*
X84543750Y-102546250D01*
%TO.C,U14*%
X61749999Y-74300000D02*
X61749999Y-99700000D01*
X61749999Y-99700000D02*
X87149999Y-99700000D01*
X87149999Y-74300000D02*
X61749999Y-74300000D01*
X87149999Y-99700000D02*
X87149999Y-74300000D01*
%TD*%
M02*
