%TF.GenerationSoftware,KiCad,Pcbnew,9.0.9-9.0.9~ubuntu24.04.1*%
%TF.CreationDate,2026-10-03T14:28:51+00:00*%
%TF.ProjectId,module-iso,6d6f6475-6c65-42d6-9973-6f2e6b696361,A*%
%TF.SameCoordinates,Original*%
%TF.FileFunction,Copper,L1,Top*%
%TF.FilePolarity,Positive*%
%FSLAX46Y46*%
G04 Gerber Fmt 4.6, Leading zero omitted, Abs format (unit mm)*
G04 Created by KiCad (PCBNEW 9.0.9-9.0.9~ubuntu24.04.1) date 2026-10-03 14:28:51*
%MOMM*%
%LPD*%
G01*
G04 APERTURE LIST*
G04 Aperture macros list*
%AMRoundRect*
0 Rectangle with rounded corners*
0 $1 Rounding radius*
0 $2 $3 $4 $5 $6 $7 $8 $9 X,Y pos of 4 corners*
0 Add a 4 corners polygon primitive as box body*
4,1,4,$2,$3,$4,$5,$6,$7,$8,$9,$2,$3,0*
0 Add four circle primitives for the rounded corners*
1,1,$1+$1,$2,$3*
1,1,$1+$1,$4,$5*
1,1,$1+$1,$6,$7*
1,1,$1+$1,$8,$9*
0 Add four rect primitives between the rounded corners*
20,1,$1+$1,$2,$3,$4,$5,0*
20,1,$1+$1,$4,$5,$6,$7,0*
20,1,$1+$1,$6,$7,$8,$9,0*
20,1,$1+$1,$8,$9,$2,$3,0*%
G04 Aperture macros list end*
%TA.AperFunction,ComponentPad*%
%ADD10C,6.400000*%
%TD*%
%TA.AperFunction,SMDPad,CuDef*%
%ADD11RoundRect,0.250000X0.325000X0.650000X-0.325000X0.650000X-0.325000X-0.650000X0.325000X-0.650000X0*%
%TD*%
%TA.AperFunction,SMDPad,CuDef*%
%ADD12RoundRect,0.250000X-0.475000X0.250000X-0.475000X-0.250000X0.475000X-0.250000X0.475000X0.250000X0*%
%TD*%
%TA.AperFunction,ComponentPad*%
%ADD13R,1.700000X1.700000*%
%TD*%
%TA.AperFunction,ComponentPad*%
%ADD14C,1.700000*%
%TD*%
%TA.AperFunction,ComponentPad*%
%ADD15R,2.300000X2.300000*%
%TD*%
%TA.AperFunction,ComponentPad*%
%ADD16C,2.300000*%
%TD*%
%TA.AperFunction,ViaPad*%
%ADD17C,0.800000*%
%TD*%
%TA.AperFunction,Conductor*%
%ADD18C,0.800000*%
%TD*%
%TA.AperFunction,Conductor*%
%ADD19C,1.200000*%
%TD*%
%TA.AperFunction,Conductor*%
%ADD20C,0.600000*%
%TD*%
G04 APERTURE END LIST*
D10*
%TO.P,H1,1*%
%TO.N,N/C*%
X71500000Y-108200000D03*
%TD*%
D11*
%TO.P,C44,1*%
%TO.N,/power-entry/ISO_VIN_POS*%
X75925000Y-80000000D03*
%TO.P,C44,2*%
%TO.N,/power-entry/ISO_VIN_NEG*%
X72975000Y-80000000D03*
%TD*%
D12*
%TO.P,C46,1*%
%TO.N,/power-entry/ISO_VIN_POS*%
X64300000Y-85450000D03*
%TO.P,C46,2*%
%TO.N,/PWR_GND*%
X64300000Y-87350000D03*
%TD*%
D13*
%TO.P,J1,1*%
%TO.N,/PWR_GND*%
X84920000Y-109270000D03*
D14*
%TO.P,J1,2*%
X84920000Y-106730000D03*
%TO.P,J1,3*%
%TO.N,/ISO_POS12*%
X87460000Y-109270000D03*
%TO.P,J1,4*%
X87460000Y-106730000D03*
%TO.P,J1,5*%
%TO.N,unconnected-(J1-Pin_5-Pad5)*%
X90000000Y-109270000D03*
%TO.P,J1,6*%
%TO.N,unconnected-(J1-Pin_6-Pad6)*%
X90000000Y-106730000D03*
%TO.P,J1,7*%
%TO.N,/ISO_FILT_NEG*%
X92540000Y-109270000D03*
%TO.P,J1,8*%
X92540000Y-106730000D03*
%TO.P,J1,9*%
%TO.N,/ISO_FB2*%
X95080000Y-109270000D03*
%TO.P,J1,10*%
X95080000Y-106730000D03*
%TD*%
D10*
%TO.P,H2,1*%
%TO.N,N/C*%
X105700000Y-69900000D03*
%TD*%
D15*
%TO.P,U14,1*%
%TO.N,/power-entry/ISO_VIN_POS*%
X76989999Y-76840000D03*
D16*
%TO.P,U14,2*%
%TO.N,/power-entry/ISO_VIN_NEG*%
X71909999Y-76840000D03*
%TO.P,U14,4*%
%TO.N,/PWR_GND*%
X64289999Y-97160000D03*
%TO.P,U14,5*%
%TO.N,unconnected-(U14-Trim-Pad5)*%
X74449999Y-97160000D03*
%TO.P,U14,6*%
%TO.N,/ISO_POS12*%
X84609999Y-97160000D03*
%TD*%
D17*
%TO.N,/ISO_FILT_NEG*%
X100000000Y-98000000D03*
X100000000Y-90500000D03*
X107800000Y-98000000D03*
X107800000Y-90500000D03*
%TO.N,/PWR_GND*%
X62500000Y-110000000D03*
X68000000Y-101500000D03*
X86000000Y-110949999D03*
X62500000Y-101500000D03*
X75500000Y-110000000D03*
X75500000Y-101500000D03*
X80500000Y-110000000D03*
X81000000Y-101000000D03*
%TO.N,/power-entry/ISO_VIN_NEG*%
X100000000Y-67600000D03*
X101000000Y-77400000D03*
X96000000Y-84000000D03*
X108000000Y-83500000D03*
X108000000Y-74000000D03*
X105259999Y-77400000D03*
X68000000Y-72400000D03*
X82500000Y-67600000D03*
X90000000Y-67600000D03*
X70000000Y-67600000D03*
%TD*%
D18*
%TO.N,/PWR_GND*%
X64300000Y-87350000D02*
X64300000Y-88800000D01*
D19*
%TO.N,/power-entry/ISO_VIN_POS*%
X76990000Y-78930000D02*
X75920000Y-80000000D01*
D20*
X75920000Y-81200000D02*
X71670000Y-85450000D01*
X75920000Y-80000000D02*
X75920000Y-81200000D01*
D19*
X76990000Y-76840000D02*
X76990000Y-78930000D01*
D20*
X71670000Y-85450000D02*
X64300000Y-85450000D01*
%TD*%
%TA.AperFunction,Conductor*%
%TO.N,/PWR_GND*%
G36*
X88443039Y-88019685D02*
G01*
X88488794Y-88072489D01*
X88500000Y-88124000D01*
X88500000Y-105843584D01*
X88480315Y-105910623D01*
X88427511Y-105956378D01*
X88358353Y-105966322D01*
X88294797Y-105937297D01*
X88288319Y-105931265D01*
X88209499Y-105852445D01*
X88209494Y-105852441D01*
X88062997Y-105746006D01*
X88062996Y-105746005D01*
X88062994Y-105746004D01*
X88011300Y-105719664D01*
X87901639Y-105663788D01*
X87901636Y-105663787D01*
X87729410Y-105607829D01*
X87550551Y-105579500D01*
X87550546Y-105579500D01*
X87369454Y-105579500D01*
X87369449Y-105579500D01*
X87190589Y-105607829D01*
X87018363Y-105663787D01*
X87018360Y-105663788D01*
X86857002Y-105746006D01*
X86710505Y-105852441D01*
X86710500Y-105852445D01*
X86582445Y-105980500D01*
X86582441Y-105980505D01*
X86476006Y-106127002D01*
X86393788Y-106288360D01*
X86393787Y-106288363D01*
X86337829Y-106460589D01*
X86312219Y-106622280D01*
X86282289Y-106685414D01*
X86222978Y-106722345D01*
X86153115Y-106721347D01*
X86094883Y-106682737D01*
X86067273Y-106622279D01*
X86041682Y-106460706D01*
X85985748Y-106288555D01*
X85985747Y-106288552D01*
X85903565Y-106127265D01*
X85862331Y-106070511D01*
X85862330Y-106070510D01*
X85388018Y-106544821D01*
X85385925Y-106537007D01*
X85320099Y-106422993D01*
X85227007Y-106329901D01*
X85112993Y-106264075D01*
X85105176Y-106261980D01*
X85579487Y-105787668D01*
X85579487Y-105787667D01*
X85522734Y-105746434D01*
X85361447Y-105664252D01*
X85361444Y-105664251D01*
X85189293Y-105608317D01*
X85010506Y-105580000D01*
X84829494Y-105580000D01*
X84650706Y-105608317D01*
X84478555Y-105664251D01*
X84478552Y-105664252D01*
X84317270Y-105746431D01*
X84317268Y-105746432D01*
X84260511Y-105787667D01*
X84260511Y-105787668D01*
X84734823Y-106261980D01*
X84727007Y-106264075D01*
X84612993Y-106329901D01*
X84519901Y-106422993D01*
X84454075Y-106537007D01*
X84451980Y-106544823D01*
X83977668Y-106070511D01*
X83977667Y-106070511D01*
X83936432Y-106127268D01*
X83936431Y-106127270D01*
X83854252Y-106288552D01*
X83854251Y-106288555D01*
X83798317Y-106460706D01*
X83770000Y-106639493D01*
X83770000Y-106820506D01*
X83798317Y-106999293D01*
X83854251Y-107171444D01*
X83854252Y-107171447D01*
X83936434Y-107332734D01*
X83977667Y-107389487D01*
X83977668Y-107389487D01*
X84451980Y-106915176D01*
X84454075Y-106922993D01*
X84519901Y-107037007D01*
X84612993Y-107130099D01*
X84727007Y-107195925D01*
X84734822Y-107198019D01*
X84260510Y-107672330D01*
X84260511Y-107672331D01*
X84317265Y-107713565D01*
X84478552Y-107795747D01*
X84478555Y-107795748D01*
X84650707Y-107851683D01*
X84788627Y-107873527D01*
X84851762Y-107903456D01*
X84888694Y-107962767D01*
X84887696Y-108032630D01*
X84849087Y-108090863D01*
X84785123Y-108118977D01*
X84769230Y-108120000D01*
X84025214Y-108120000D01*
X84025191Y-108120002D01*
X84000130Y-108122908D01*
X84000126Y-108122909D01*
X83897525Y-108168211D01*
X83897520Y-108168214D01*
X83818214Y-108247520D01*
X83818211Y-108247525D01*
X83772910Y-108350122D01*
X83772910Y-108350124D01*
X83770000Y-108375205D01*
X83770000Y-109070000D01*
X84458120Y-109070000D01*
X84454075Y-109077007D01*
X84420000Y-109204174D01*
X84420000Y-109335826D01*
X84454075Y-109462993D01*
X84458120Y-109470000D01*
X83770001Y-109470000D01*
X83770001Y-110164785D01*
X83770002Y-110164808D01*
X83772908Y-110189869D01*
X83772909Y-110189873D01*
X83818211Y-110292474D01*
X83818214Y-110292479D01*
X83897520Y-110371785D01*
X83897525Y-110371788D01*
X84000123Y-110417089D01*
X84025206Y-110419999D01*
X84719999Y-110419999D01*
X84720000Y-110419998D01*
X84720000Y-109731879D01*
X84727007Y-109735925D01*
X84854174Y-109770000D01*
X84985826Y-109770000D01*
X85112993Y-109735925D01*
X85120000Y-109731879D01*
X85120000Y-110419999D01*
X85814786Y-110419999D01*
X85814808Y-110419997D01*
X85839869Y-110417091D01*
X85839873Y-110417090D01*
X85942474Y-110371788D01*
X85942479Y-110371785D01*
X86021785Y-110292479D01*
X86021788Y-110292474D01*
X86067089Y-110189877D01*
X86067089Y-110189875D01*
X86069999Y-110164794D01*
X86069999Y-109423971D01*
X86089683Y-109356932D01*
X86142487Y-109311177D01*
X86211646Y-109301233D01*
X86275202Y-109330258D01*
X86312976Y-109389036D01*
X86316472Y-109404572D01*
X86337829Y-109539410D01*
X86393787Y-109711636D01*
X86393788Y-109711639D01*
X86476006Y-109872997D01*
X86582441Y-110019494D01*
X86582445Y-110019499D01*
X86710500Y-110147554D01*
X86710505Y-110147558D01*
X86768753Y-110189877D01*
X86857006Y-110253996D01*
X86932523Y-110292474D01*
X87018360Y-110336211D01*
X87018363Y-110336212D01*
X87104476Y-110364191D01*
X87190591Y-110392171D01*
X87273429Y-110405291D01*
X87369449Y-110420500D01*
X87369454Y-110420500D01*
X87550551Y-110420500D01*
X87637259Y-110406765D01*
X87729409Y-110392171D01*
X87901639Y-110336211D01*
X88062994Y-110253996D01*
X88209501Y-110147553D01*
X88288319Y-110068735D01*
X88349642Y-110035250D01*
X88419334Y-110040234D01*
X88475267Y-110082106D01*
X88499684Y-110147570D01*
X88500000Y-110156416D01*
X88500000Y-111525500D01*
X88480315Y-111592539D01*
X88427511Y-111638294D01*
X88376000Y-111649500D01*
X72942808Y-111649500D01*
X72875769Y-111629815D01*
X72830014Y-111577011D01*
X72820070Y-111507853D01*
X72849095Y-111444297D01*
X72895354Y-111410939D01*
X72998462Y-111368231D01*
X73301787Y-111206100D01*
X73587760Y-111015019D01*
X73853627Y-110796828D01*
X74096828Y-110553627D01*
X74315019Y-110287760D01*
X74506100Y-110001787D01*
X74668231Y-109698462D01*
X74799850Y-109380705D01*
X74899690Y-109051578D01*
X74966789Y-108714250D01*
X75000500Y-108371969D01*
X75000500Y-108028031D01*
X74966789Y-107685750D01*
X74899690Y-107348422D01*
X74799850Y-107019295D01*
X74668231Y-106701538D01*
X74658182Y-106682737D01*
X74506106Y-106398224D01*
X74506105Y-106398222D01*
X74506100Y-106398213D01*
X74315019Y-106112240D01*
X74096828Y-105846373D01*
X74096827Y-105846372D01*
X74096823Y-105846367D01*
X73853632Y-105603176D01*
X73587765Y-105384985D01*
X73587764Y-105384984D01*
X73587760Y-105384981D01*
X73301787Y-105193900D01*
X73301782Y-105193897D01*
X73301775Y-105193893D01*
X72998469Y-105031772D01*
X72998464Y-105031770D01*
X72680706Y-104900150D01*
X72351572Y-104800308D01*
X72014248Y-104733210D01*
X72014249Y-104733210D01*
X71756456Y-104707821D01*
X71671969Y-104699500D01*
X71328031Y-104699500D01*
X71249966Y-104707188D01*
X70985750Y-104733210D01*
X70648427Y-104800308D01*
X70319293Y-104900150D01*
X70001535Y-105031770D01*
X70001530Y-105031772D01*
X69698224Y-105193893D01*
X69698206Y-105193904D01*
X69412248Y-105384975D01*
X69412234Y-105384985D01*
X69146367Y-105603176D01*
X68903176Y-105846367D01*
X68684985Y-106112234D01*
X68684975Y-106112248D01*
X68493904Y-106398206D01*
X68493893Y-106398224D01*
X68331772Y-106701530D01*
X68331770Y-106701535D01*
X68200150Y-107019293D01*
X68100308Y-107348427D01*
X68033210Y-107685750D01*
X68014323Y-107877527D01*
X67999500Y-108028031D01*
X67999500Y-108371969D01*
X68001517Y-108392445D01*
X68033210Y-108714249D01*
X68100308Y-109051572D01*
X68200150Y-109380706D01*
X68331770Y-109698464D01*
X68331772Y-109698469D01*
X68493893Y-110001775D01*
X68493904Y-110001793D01*
X68684975Y-110287751D01*
X68684985Y-110287765D01*
X68903176Y-110553632D01*
X69146367Y-110796823D01*
X69146372Y-110796827D01*
X69146373Y-110796828D01*
X69412240Y-111015019D01*
X69698213Y-111206100D01*
X69698222Y-111206105D01*
X69698224Y-111206106D01*
X70001530Y-111368227D01*
X70001532Y-111368227D01*
X70001538Y-111368231D01*
X70104645Y-111410939D01*
X70159048Y-111454780D01*
X70181113Y-111521074D01*
X70163834Y-111588773D01*
X70112697Y-111636384D01*
X70057192Y-111649500D01*
X61624500Y-111649500D01*
X61557461Y-111629815D01*
X61511706Y-111577011D01*
X61500500Y-111525500D01*
X61500500Y-97045883D01*
X62839999Y-97045883D01*
X62839999Y-97274116D01*
X62875703Y-97499544D01*
X62946229Y-97716604D01*
X63049850Y-97919969D01*
X63132889Y-98034264D01*
X63132891Y-98034265D01*
X63635988Y-97531167D01*
X63707436Y-97638097D01*
X63811902Y-97742563D01*
X63918830Y-97814009D01*
X63415732Y-98317106D01*
X63530032Y-98400150D01*
X63733394Y-98503769D01*
X63950454Y-98574295D01*
X64175883Y-98610000D01*
X64404115Y-98610000D01*
X64629543Y-98574295D01*
X64846603Y-98503769D01*
X65049957Y-98400154D01*
X65049963Y-98400150D01*
X65164263Y-98317106D01*
X65164264Y-98317106D01*
X64661167Y-97814010D01*
X64768096Y-97742563D01*
X64872562Y-97638097D01*
X64944009Y-97531168D01*
X65447105Y-98034265D01*
X65447105Y-98034264D01*
X65530149Y-97919964D01*
X65530153Y-97919958D01*
X65633768Y-97716604D01*
X65704294Y-97499544D01*
X65739999Y-97274116D01*
X65739999Y-97045883D01*
X65739992Y-97045837D01*
X72999499Y-97045837D01*
X72999499Y-97274162D01*
X73035214Y-97499660D01*
X73105769Y-97716803D01*
X73160716Y-97824641D01*
X73209420Y-97920228D01*
X73343620Y-98104937D01*
X73505062Y-98266379D01*
X73689771Y-98400579D01*
X73785883Y-98449550D01*
X73893195Y-98504229D01*
X73893197Y-98504229D01*
X73893200Y-98504231D01*
X74009591Y-98542049D01*
X74110338Y-98574784D01*
X74335837Y-98610500D01*
X74335842Y-98610500D01*
X74564161Y-98610500D01*
X74789659Y-98574784D01*
X74791164Y-98574295D01*
X75006798Y-98504231D01*
X75210227Y-98400579D01*
X75394936Y-98266379D01*
X75556378Y-98104937D01*
X75690578Y-97920228D01*
X75794230Y-97716799D01*
X75864783Y-97499660D01*
X75873782Y-97442842D01*
X75900499Y-97274162D01*
X75900499Y-97045837D01*
X83159499Y-97045837D01*
X83159499Y-97274162D01*
X83195214Y-97499660D01*
X83265769Y-97716803D01*
X83320716Y-97824641D01*
X83369420Y-97920228D01*
X83503620Y-98104937D01*
X83665062Y-98266379D01*
X83849771Y-98400579D01*
X83945883Y-98449550D01*
X84053195Y-98504229D01*
X84053197Y-98504229D01*
X84053200Y-98504231D01*
X84169591Y-98542049D01*
X84270338Y-98574784D01*
X84495837Y-98610500D01*
X84495842Y-98610500D01*
X84724161Y-98610500D01*
X84949659Y-98574784D01*
X84951164Y-98574295D01*
X85166798Y-98504231D01*
X85370227Y-98400579D01*
X85554936Y-98266379D01*
X85716378Y-98104937D01*
X85850578Y-97920228D01*
X85954230Y-97716799D01*
X86024783Y-97499660D01*
X86033782Y-97442842D01*
X86060499Y-97274162D01*
X86060499Y-97045837D01*
X86024783Y-96820339D01*
X85954228Y-96603196D01*
X85855789Y-96410000D01*
X85850578Y-96399772D01*
X85716378Y-96215063D01*
X85554936Y-96053621D01*
X85370227Y-95919421D01*
X85166802Y-95815770D01*
X84949659Y-95745215D01*
X84724161Y-95709500D01*
X84724156Y-95709500D01*
X84495842Y-95709500D01*
X84495837Y-95709500D01*
X84270338Y-95745215D01*
X84053195Y-95815770D01*
X83849770Y-95919421D01*
X83665060Y-96053622D01*
X83503621Y-96215061D01*
X83369420Y-96399771D01*
X83265769Y-96603196D01*
X83195214Y-96820339D01*
X83159499Y-97045837D01*
X75900499Y-97045837D01*
X75864783Y-96820339D01*
X75794228Y-96603196D01*
X75695789Y-96410000D01*
X75690578Y-96399772D01*
X75556378Y-96215063D01*
X75394936Y-96053621D01*
X75210227Y-95919421D01*
X75006802Y-95815770D01*
X74789659Y-95745215D01*
X74564161Y-95709500D01*
X74564156Y-95709500D01*
X74335842Y-95709500D01*
X74335837Y-95709500D01*
X74110338Y-95745215D01*
X73893195Y-95815770D01*
X73689770Y-95919421D01*
X73505060Y-96053622D01*
X73343621Y-96215061D01*
X73209420Y-96399771D01*
X73105769Y-96603196D01*
X73035214Y-96820339D01*
X72999499Y-97045837D01*
X65739992Y-97045837D01*
X65704294Y-96820455D01*
X65633768Y-96603395D01*
X65530149Y-96400033D01*
X65447105Y-96285734D01*
X65447105Y-96285733D01*
X64944008Y-96788830D01*
X64872562Y-96681903D01*
X64768096Y-96577437D01*
X64661166Y-96505989D01*
X65164264Y-96002892D01*
X65164263Y-96002890D01*
X65049968Y-95919851D01*
X64846603Y-95816230D01*
X64629543Y-95745704D01*
X64404115Y-95710000D01*
X64175883Y-95710000D01*
X63950454Y-95745704D01*
X63733394Y-95816230D01*
X63530029Y-95919851D01*
X63415733Y-96002891D01*
X63415732Y-96002892D01*
X63918830Y-96505989D01*
X63811902Y-96577437D01*
X63707436Y-96681903D01*
X63635988Y-96788831D01*
X63132891Y-96285733D01*
X63132890Y-96285734D01*
X63049850Y-96400030D01*
X62946229Y-96603395D01*
X62875703Y-96820455D01*
X62839999Y-97045883D01*
X61500500Y-97045883D01*
X61500500Y-88124000D01*
X61520185Y-88056961D01*
X61572989Y-88011206D01*
X61624500Y-88000000D01*
X88376000Y-88000000D01*
X88443039Y-88019685D01*
G37*
%TD.AperFunction*%
%TA.AperFunction,Conductor*%
G36*
X86226376Y-106738652D02*
G01*
X86284609Y-106777261D01*
X86312219Y-106837720D01*
X86337828Y-106999410D01*
X86393787Y-107171636D01*
X86393788Y-107171639D01*
X86449664Y-107281300D01*
X86475869Y-107332730D01*
X86476006Y-107332997D01*
X86582441Y-107479494D01*
X86582445Y-107479499D01*
X86710500Y-107607554D01*
X86710505Y-107607558D01*
X86838287Y-107700396D01*
X86857006Y-107713996D01*
X86962484Y-107767740D01*
X87018360Y-107796211D01*
X87018363Y-107796212D01*
X87104476Y-107824191D01*
X87190591Y-107852171D01*
X87263639Y-107863740D01*
X87350678Y-107877527D01*
X87413813Y-107907456D01*
X87450744Y-107966768D01*
X87449746Y-108036631D01*
X87411136Y-108094863D01*
X87350678Y-108122473D01*
X87190589Y-108147829D01*
X87018363Y-108203787D01*
X87018360Y-108203788D01*
X86857002Y-108286006D01*
X86710505Y-108392441D01*
X86710500Y-108392445D01*
X86582445Y-108520500D01*
X86582441Y-108520505D01*
X86476006Y-108667002D01*
X86393788Y-108828360D01*
X86393787Y-108828363D01*
X86337829Y-109000589D01*
X86316472Y-109135428D01*
X86286542Y-109198562D01*
X86227231Y-109235493D01*
X86157368Y-109234495D01*
X86099136Y-109195885D01*
X86071022Y-109131921D01*
X86069999Y-109116029D01*
X86069999Y-108375214D01*
X86069997Y-108375191D01*
X86067091Y-108350130D01*
X86067090Y-108350126D01*
X86021788Y-108247525D01*
X86021785Y-108247520D01*
X85942479Y-108168214D01*
X85942474Y-108168211D01*
X85839876Y-108122910D01*
X85814794Y-108120000D01*
X85070770Y-108120000D01*
X85003731Y-108100315D01*
X84957976Y-108047511D01*
X84948032Y-107978353D01*
X84977057Y-107914797D01*
X85035835Y-107877023D01*
X85051373Y-107873527D01*
X85189292Y-107851683D01*
X85361444Y-107795748D01*
X85361447Y-107795747D01*
X85522730Y-107713568D01*
X85579487Y-107672330D01*
X85579488Y-107672329D01*
X85105178Y-107198019D01*
X85112993Y-107195925D01*
X85227007Y-107130099D01*
X85320099Y-107037007D01*
X85385925Y-106922993D01*
X85388019Y-106915177D01*
X85862329Y-107389488D01*
X85862330Y-107389487D01*
X85903568Y-107332730D01*
X85985747Y-107171447D01*
X85985748Y-107171444D01*
X86041683Y-106999292D01*
X86067273Y-106837721D01*
X86097202Y-106774586D01*
X86156513Y-106737654D01*
X86226376Y-106738652D01*
G37*
%TD.AperFunction*%
%TD*%
%TA.AperFunction,Conductor*%
%TO.N,/power-entry/ISO_VIN_NEG*%
G36*
X104206215Y-66520185D02*
G01*
X104251970Y-66572989D01*
X104261914Y-66642147D01*
X104232889Y-66705703D01*
X104197629Y-66733858D01*
X103898224Y-66893893D01*
X103898206Y-66893904D01*
X103612248Y-67084975D01*
X103612234Y-67084985D01*
X103346367Y-67303176D01*
X103103176Y-67546367D01*
X102884985Y-67812234D01*
X102884975Y-67812248D01*
X102693904Y-68098206D01*
X102693893Y-68098224D01*
X102531772Y-68401530D01*
X102531770Y-68401535D01*
X102400150Y-68719293D01*
X102300308Y-69048427D01*
X102233210Y-69385750D01*
X102199500Y-69728034D01*
X102199500Y-70071965D01*
X102233210Y-70414249D01*
X102300308Y-70751572D01*
X102400150Y-71080706D01*
X102531770Y-71398464D01*
X102531772Y-71398469D01*
X102693893Y-71701775D01*
X102693904Y-71701793D01*
X102884975Y-71987751D01*
X102884985Y-71987765D01*
X103103176Y-72253632D01*
X103346367Y-72496823D01*
X103346372Y-72496827D01*
X103346373Y-72496828D01*
X103612240Y-72715019D01*
X103898213Y-72906100D01*
X103898222Y-72906105D01*
X103898224Y-72906106D01*
X104201530Y-73068227D01*
X104201532Y-73068227D01*
X104201538Y-73068231D01*
X104519295Y-73199850D01*
X104848422Y-73299690D01*
X105185750Y-73366789D01*
X105528031Y-73400500D01*
X105528034Y-73400500D01*
X105871966Y-73400500D01*
X105871969Y-73400500D01*
X106214250Y-73366789D01*
X106551578Y-73299690D01*
X106880705Y-73199850D01*
X107198462Y-73068231D01*
X107501787Y-72906100D01*
X107787760Y-72715019D01*
X108053627Y-72496828D01*
X108296828Y-72253627D01*
X108515019Y-71987760D01*
X108706100Y-71701787D01*
X108766142Y-71589457D01*
X108815104Y-71539612D01*
X108883242Y-71524152D01*
X108948922Y-71547984D01*
X108991290Y-71603541D01*
X108999500Y-71647910D01*
X108999500Y-87376000D01*
X108979815Y-87443039D01*
X108927011Y-87488794D01*
X108875500Y-87500000D01*
X90724000Y-87500000D01*
X90656961Y-87480315D01*
X90611206Y-87427511D01*
X90600000Y-87376000D01*
X90600000Y-85900000D01*
X72368596Y-85900000D01*
X72301557Y-85880315D01*
X72255802Y-85827511D01*
X72245858Y-85758353D01*
X72274883Y-85694797D01*
X72280915Y-85688319D01*
X73162160Y-84807074D01*
X76400520Y-81568716D01*
X76479577Y-81431784D01*
X76520501Y-81279057D01*
X76520501Y-81197346D01*
X76540186Y-81130307D01*
X76569576Y-81098542D01*
X76642922Y-81042922D01*
X76734360Y-80922343D01*
X76734359Y-80922343D01*
X76734361Y-80922342D01*
X76789877Y-80781564D01*
X76800500Y-80693102D01*
X76800500Y-80444361D01*
X76820185Y-80377322D01*
X76836819Y-80356680D01*
X77689462Y-79504037D01*
X77689464Y-79504035D01*
X77731968Y-79440423D01*
X77788013Y-79356547D01*
X77808578Y-79306898D01*
X77855895Y-79192666D01*
X77890500Y-79018691D01*
X77890500Y-78841308D01*
X77890500Y-78414499D01*
X77910185Y-78347460D01*
X77962989Y-78301705D01*
X78014500Y-78290499D01*
X78184855Y-78290499D01*
X78184863Y-78290499D01*
X78184878Y-78290497D01*
X78184881Y-78290497D01*
X78209986Y-78287586D01*
X78209987Y-78287585D01*
X78209990Y-78287585D01*
X78312764Y-78242206D01*
X78392205Y-78162765D01*
X78437584Y-78059991D01*
X78440499Y-78034865D01*
X78440498Y-75645136D01*
X78440496Y-75645117D01*
X78437585Y-75620012D01*
X78437584Y-75620010D01*
X78437584Y-75620009D01*
X78392205Y-75517235D01*
X78312764Y-75437794D01*
X78285383Y-75425704D01*
X78209991Y-75392415D01*
X78184864Y-75389500D01*
X75795142Y-75389500D01*
X75795116Y-75389502D01*
X75770011Y-75392413D01*
X75770007Y-75392415D01*
X75667234Y-75437793D01*
X75587793Y-75517234D01*
X75542414Y-75620006D01*
X75542414Y-75620008D01*
X75539499Y-75645131D01*
X75539499Y-78034856D01*
X75539501Y-78034882D01*
X75542412Y-78059987D01*
X75542414Y-78059991D01*
X75587792Y-78162764D01*
X75587793Y-78162765D01*
X75667234Y-78242206D01*
X75770008Y-78287585D01*
X75795134Y-78290500D01*
X75965500Y-78290499D01*
X75974185Y-78293049D01*
X75983147Y-78291761D01*
X76007184Y-78302738D01*
X76032539Y-78310183D01*
X76038467Y-78317025D01*
X76046703Y-78320786D01*
X76060989Y-78343017D01*
X76078294Y-78362987D01*
X76080581Y-78373502D01*
X76084477Y-78379564D01*
X76089500Y-78414499D01*
X76089500Y-78505638D01*
X76069815Y-78572677D01*
X76053181Y-78593319D01*
X75883320Y-78763181D01*
X75821997Y-78796666D01*
X75795639Y-78799500D01*
X75556898Y-78799500D01*
X75517853Y-78804188D01*
X75468438Y-78810122D01*
X75327656Y-78865639D01*
X75207077Y-78957077D01*
X75115639Y-79077656D01*
X75060122Y-79218438D01*
X75054188Y-79267853D01*
X75049500Y-79306898D01*
X75049500Y-79306903D01*
X75049500Y-79748274D01*
X75047117Y-79772465D01*
X75019500Y-79911303D01*
X75019500Y-80088695D01*
X75047117Y-80227533D01*
X75049500Y-80251724D01*
X75049500Y-80693102D01*
X75055126Y-80739954D01*
X75060122Y-80781561D01*
X75115639Y-80922343D01*
X75150700Y-80968577D01*
X75175524Y-81033889D01*
X75161096Y-81102253D01*
X75139578Y-81131184D01*
X71457584Y-84813181D01*
X71396261Y-84846666D01*
X71369903Y-84849500D01*
X65261680Y-84849500D01*
X65194641Y-84829815D01*
X65175200Y-84811786D01*
X65173915Y-84813072D01*
X65167925Y-84807082D01*
X65167922Y-84807078D01*
X65167917Y-84807074D01*
X65047343Y-84715639D01*
X64906561Y-84660122D01*
X64860926Y-84654642D01*
X64818102Y-84649500D01*
X63781898Y-84649500D01*
X63742853Y-84654188D01*
X63693438Y-84660122D01*
X63552656Y-84715639D01*
X63432077Y-84807077D01*
X63340639Y-84927656D01*
X63285122Y-85068438D01*
X63279188Y-85117853D01*
X63274500Y-85156898D01*
X63274500Y-85156903D01*
X63274500Y-85743103D01*
X63276675Y-85761216D01*
X63265124Y-85830124D01*
X63218152Y-85881848D01*
X63153560Y-85900000D01*
X61624500Y-85900000D01*
X61557461Y-85880315D01*
X61511706Y-85827511D01*
X61500500Y-85776000D01*
X61500500Y-80693053D01*
X72100000Y-80693053D01*
X72110613Y-80781443D01*
X72166079Y-80922095D01*
X72257435Y-81042564D01*
X72377904Y-81133920D01*
X72518556Y-81189386D01*
X72606946Y-81200000D01*
X72775000Y-81200000D01*
X73175000Y-81200000D01*
X73343054Y-81200000D01*
X73431443Y-81189386D01*
X73572095Y-81133920D01*
X73692564Y-81042564D01*
X73783920Y-80922095D01*
X73839386Y-80781443D01*
X73850000Y-80693053D01*
X73850000Y-80200000D01*
X73175000Y-80200000D01*
X73175000Y-81200000D01*
X72775000Y-81200000D01*
X72775000Y-80200000D01*
X72100000Y-80200000D01*
X72100000Y-80693053D01*
X61500500Y-80693053D01*
X61500500Y-79306946D01*
X72100000Y-79306946D01*
X72100000Y-79800000D01*
X72775000Y-79800000D01*
X73175000Y-79800000D01*
X73850000Y-79800000D01*
X73850000Y-79306946D01*
X73839386Y-79218556D01*
X73783920Y-79077904D01*
X73692564Y-78957435D01*
X73572095Y-78866079D01*
X73431443Y-78810613D01*
X73343054Y-78800000D01*
X73175000Y-78800000D01*
X73175000Y-79800000D01*
X72775000Y-79800000D01*
X72775000Y-78800000D01*
X72606946Y-78800000D01*
X72518556Y-78810613D01*
X72377904Y-78866079D01*
X72257435Y-78957435D01*
X72166079Y-79077904D01*
X72110613Y-79218556D01*
X72100000Y-79306946D01*
X61500500Y-79306946D01*
X61500500Y-76725883D01*
X70459999Y-76725883D01*
X70459999Y-76954116D01*
X70495703Y-77179544D01*
X70566229Y-77396604D01*
X70669850Y-77599969D01*
X70752889Y-77714264D01*
X70752891Y-77714265D01*
X71255988Y-77211167D01*
X71327436Y-77318097D01*
X71431902Y-77422563D01*
X71538830Y-77494009D01*
X71035732Y-77997106D01*
X71150032Y-78080150D01*
X71353394Y-78183769D01*
X71570454Y-78254295D01*
X71795883Y-78290000D01*
X72024115Y-78290000D01*
X72249543Y-78254295D01*
X72466603Y-78183769D01*
X72669957Y-78080154D01*
X72669963Y-78080150D01*
X72784263Y-77997106D01*
X72784264Y-77997106D01*
X72281167Y-77494010D01*
X72388096Y-77422563D01*
X72492562Y-77318097D01*
X72564009Y-77211168D01*
X73067105Y-77714265D01*
X73067105Y-77714264D01*
X73150149Y-77599964D01*
X73150153Y-77599958D01*
X73253768Y-77396604D01*
X73324294Y-77179544D01*
X73359999Y-76954116D01*
X73359999Y-76725883D01*
X73324294Y-76500455D01*
X73253768Y-76283395D01*
X73150149Y-76080033D01*
X73067105Y-75965734D01*
X73067105Y-75965733D01*
X72564008Y-76468830D01*
X72492562Y-76361903D01*
X72388096Y-76257437D01*
X72281166Y-76185989D01*
X72784264Y-75682892D01*
X72784263Y-75682890D01*
X72669968Y-75599851D01*
X72466603Y-75496230D01*
X72249543Y-75425704D01*
X72024115Y-75390000D01*
X71795883Y-75390000D01*
X71570454Y-75425704D01*
X71353394Y-75496230D01*
X71150029Y-75599851D01*
X71035733Y-75682891D01*
X71035732Y-75682892D01*
X71538830Y-76185989D01*
X71431902Y-76257437D01*
X71327436Y-76361903D01*
X71255988Y-76468831D01*
X70752891Y-75965733D01*
X70752890Y-75965734D01*
X70669850Y-76080030D01*
X70566229Y-76283395D01*
X70495703Y-76500455D01*
X70459999Y-76725883D01*
X61500500Y-76725883D01*
X61500500Y-66624500D01*
X61520185Y-66557461D01*
X61572989Y-66511706D01*
X61624500Y-66500500D01*
X104139176Y-66500500D01*
X104206215Y-66520185D01*
G37*
%TD.AperFunction*%
%TD*%
%TA.AperFunction,Conductor*%
%TO.N,/ISO_FILT_NEG*%
G36*
X108942539Y-89519685D02*
G01*
X108988294Y-89572489D01*
X108999500Y-89624000D01*
X108999500Y-99390500D01*
X108979815Y-99457539D01*
X108927011Y-99503294D01*
X108875500Y-99514500D01*
X97034108Y-99514500D01*
X96906812Y-99548608D01*
X96792686Y-99614500D01*
X96792683Y-99614502D01*
X96699502Y-99707683D01*
X96699500Y-99707686D01*
X96633608Y-99821812D01*
X96599500Y-99949108D01*
X96599500Y-111525500D01*
X96579815Y-111592539D01*
X96527011Y-111638294D01*
X96475500Y-111649500D01*
X90724000Y-111649500D01*
X90656961Y-111629815D01*
X90611206Y-111577011D01*
X90600000Y-111525500D01*
X90600000Y-110319352D01*
X90600262Y-110318456D01*
X90600013Y-110317558D01*
X90610085Y-110285004D01*
X90619685Y-110252313D01*
X90620481Y-110251407D01*
X90620666Y-110250810D01*
X90624795Y-110246500D01*
X90644162Y-110224474D01*
X90647538Y-110221632D01*
X90749501Y-110147553D01*
X90877553Y-110019501D01*
X90983996Y-109872994D01*
X91066211Y-109711639D01*
X91122171Y-109539409D01*
X91147780Y-109377720D01*
X91177709Y-109314585D01*
X91237021Y-109277654D01*
X91306883Y-109278652D01*
X91365116Y-109317262D01*
X91392726Y-109377720D01*
X91418317Y-109539293D01*
X91474251Y-109711444D01*
X91474252Y-109711447D01*
X91556434Y-109872734D01*
X91597667Y-109929487D01*
X91597668Y-109929487D01*
X92071980Y-109455176D01*
X92074075Y-109462993D01*
X92139901Y-109577007D01*
X92232993Y-109670099D01*
X92347007Y-109735925D01*
X92354822Y-109738019D01*
X91880510Y-110212330D01*
X91880511Y-110212331D01*
X91937265Y-110253565D01*
X92098552Y-110335747D01*
X92098555Y-110335748D01*
X92270706Y-110391682D01*
X92449494Y-110420000D01*
X92630506Y-110420000D01*
X92809293Y-110391682D01*
X92981444Y-110335748D01*
X92981447Y-110335747D01*
X93142730Y-110253568D01*
X93199487Y-110212330D01*
X93199488Y-110212329D01*
X92725178Y-109738019D01*
X92732993Y-109735925D01*
X92847007Y-109670099D01*
X92940099Y-109577007D01*
X93005925Y-109462993D01*
X93008019Y-109455177D01*
X93482329Y-109929488D01*
X93482330Y-109929487D01*
X93523568Y-109872730D01*
X93605747Y-109711447D01*
X93605748Y-109711444D01*
X93661683Y-109539292D01*
X93687273Y-109377721D01*
X93717202Y-109314586D01*
X93776513Y-109277654D01*
X93846376Y-109278652D01*
X93904609Y-109317261D01*
X93932219Y-109377720D01*
X93957828Y-109539410D01*
X94013787Y-109711636D01*
X94013788Y-109711639D01*
X94069664Y-109821300D01*
X94095869Y-109872730D01*
X94096006Y-109872997D01*
X94202441Y-110019494D01*
X94202445Y-110019499D01*
X94330500Y-110147554D01*
X94330505Y-110147558D01*
X94436372Y-110224474D01*
X94477006Y-110253996D01*
X94582484Y-110307740D01*
X94638360Y-110336211D01*
X94638363Y-110336212D01*
X94724476Y-110364191D01*
X94810591Y-110392171D01*
X94893429Y-110405291D01*
X94989449Y-110420500D01*
X94989454Y-110420500D01*
X95170551Y-110420500D01*
X95257259Y-110406765D01*
X95349409Y-110392171D01*
X95521639Y-110336211D01*
X95682994Y-110253996D01*
X95829501Y-110147553D01*
X95957553Y-110019501D01*
X96063996Y-109872994D01*
X96146211Y-109711639D01*
X96202171Y-109539409D01*
X96227780Y-109377721D01*
X96230500Y-109360551D01*
X96230500Y-109179448D01*
X96202189Y-109000706D01*
X96202171Y-109000591D01*
X96146211Y-108828361D01*
X96146211Y-108828360D01*
X96116474Y-108770000D01*
X96063996Y-108667006D01*
X96022950Y-108610511D01*
X95957558Y-108520505D01*
X95957554Y-108520500D01*
X95829499Y-108392445D01*
X95829494Y-108392441D01*
X95682997Y-108286006D01*
X95682996Y-108286005D01*
X95682994Y-108286004D01*
X95631300Y-108259664D01*
X95521639Y-108203788D01*
X95521636Y-108203787D01*
X95349410Y-108147829D01*
X95189321Y-108122473D01*
X95126186Y-108092544D01*
X95089255Y-108033232D01*
X95090253Y-107963370D01*
X95128863Y-107905137D01*
X95189321Y-107877527D01*
X95259425Y-107866422D01*
X95349409Y-107852171D01*
X95521639Y-107796211D01*
X95682994Y-107713996D01*
X95829501Y-107607553D01*
X95957553Y-107479501D01*
X96063996Y-107332994D01*
X96146211Y-107171639D01*
X96202171Y-106999409D01*
X96227780Y-106837721D01*
X96230500Y-106820551D01*
X96230500Y-106639448D01*
X96202189Y-106460706D01*
X96202171Y-106460591D01*
X96146211Y-106288361D01*
X96146211Y-106288360D01*
X96116474Y-106230000D01*
X96063996Y-106127006D01*
X96022950Y-106070511D01*
X95957558Y-105980505D01*
X95957554Y-105980500D01*
X95829499Y-105852445D01*
X95829494Y-105852441D01*
X95682997Y-105746006D01*
X95682996Y-105746005D01*
X95682994Y-105746004D01*
X95626656Y-105717298D01*
X95521639Y-105663788D01*
X95521636Y-105663787D01*
X95349410Y-105607829D01*
X95170551Y-105579500D01*
X95170546Y-105579500D01*
X94989454Y-105579500D01*
X94989449Y-105579500D01*
X94810589Y-105607829D01*
X94638363Y-105663787D01*
X94638360Y-105663788D01*
X94477002Y-105746006D01*
X94330505Y-105852441D01*
X94330500Y-105852445D01*
X94202445Y-105980500D01*
X94202441Y-105980505D01*
X94096006Y-106127002D01*
X94013788Y-106288360D01*
X94013787Y-106288363D01*
X93957829Y-106460589D01*
X93932219Y-106622280D01*
X93902289Y-106685414D01*
X93842978Y-106722345D01*
X93773115Y-106721347D01*
X93714883Y-106682737D01*
X93687273Y-106622279D01*
X93661682Y-106460706D01*
X93605748Y-106288555D01*
X93605747Y-106288552D01*
X93523565Y-106127265D01*
X93482331Y-106070511D01*
X93482330Y-106070510D01*
X93008018Y-106544821D01*
X93005925Y-106537007D01*
X92940099Y-106422993D01*
X92847007Y-106329901D01*
X92732993Y-106264075D01*
X92725176Y-106261980D01*
X93199487Y-105787668D01*
X93199487Y-105787667D01*
X93142734Y-105746434D01*
X92981447Y-105664252D01*
X92981444Y-105664251D01*
X92809293Y-105608317D01*
X92630506Y-105580000D01*
X92449494Y-105580000D01*
X92270706Y-105608317D01*
X92098555Y-105664251D01*
X92098552Y-105664252D01*
X91937270Y-105746431D01*
X91937268Y-105746432D01*
X91880511Y-105787667D01*
X91880511Y-105787668D01*
X92354823Y-106261980D01*
X92347007Y-106264075D01*
X92232993Y-106329901D01*
X92139901Y-106422993D01*
X92074075Y-106537007D01*
X92071980Y-106544823D01*
X91597668Y-106070511D01*
X91597667Y-106070511D01*
X91556432Y-106127268D01*
X91556431Y-106127270D01*
X91474252Y-106288552D01*
X91474251Y-106288555D01*
X91418317Y-106460706D01*
X91392726Y-106622279D01*
X91362797Y-106685414D01*
X91303485Y-106722345D01*
X91233622Y-106721347D01*
X91175390Y-106682737D01*
X91147780Y-106622279D01*
X91122189Y-106460706D01*
X91122171Y-106460591D01*
X91066211Y-106288361D01*
X91066211Y-106288360D01*
X91036474Y-106230000D01*
X90983996Y-106127006D01*
X90942950Y-106070511D01*
X90877558Y-105980505D01*
X90877554Y-105980500D01*
X90823434Y-105926380D01*
X90749501Y-105852447D01*
X90647548Y-105778374D01*
X90644161Y-105775524D01*
X90627193Y-105749943D01*
X90608449Y-105725634D01*
X90607413Y-105720121D01*
X90605541Y-105717298D01*
X90605428Y-105709553D01*
X90600000Y-105680646D01*
X90600000Y-89624000D01*
X90619685Y-89556961D01*
X90672489Y-89511206D01*
X90724000Y-89500000D01*
X108875500Y-89500000D01*
X108942539Y-89519685D01*
G37*
%TD.AperFunction*%
%TA.AperFunction,Conductor*%
G36*
X91306883Y-106738652D02*
G01*
X91365116Y-106777262D01*
X91392726Y-106837720D01*
X91418317Y-106999293D01*
X91474251Y-107171444D01*
X91474252Y-107171447D01*
X91556434Y-107332734D01*
X91597667Y-107389487D01*
X91597668Y-107389487D01*
X92071980Y-106915176D01*
X92074075Y-106922993D01*
X92139901Y-107037007D01*
X92232993Y-107130099D01*
X92347007Y-107195925D01*
X92354822Y-107198019D01*
X91880510Y-107672330D01*
X91880511Y-107672331D01*
X91937265Y-107713565D01*
X92098552Y-107795747D01*
X92098555Y-107795748D01*
X92270706Y-107851682D01*
X92433879Y-107877527D01*
X92497014Y-107907456D01*
X92533945Y-107966768D01*
X92532947Y-108036630D01*
X92494337Y-108094863D01*
X92433879Y-108122473D01*
X92270706Y-108148317D01*
X92098555Y-108204251D01*
X92098552Y-108204252D01*
X91937270Y-108286431D01*
X91937268Y-108286432D01*
X91880511Y-108327667D01*
X91880511Y-108327668D01*
X92354823Y-108801980D01*
X92347007Y-108804075D01*
X92232993Y-108869901D01*
X92139901Y-108962993D01*
X92074075Y-109077007D01*
X92071980Y-109084823D01*
X91597668Y-108610511D01*
X91597667Y-108610511D01*
X91556432Y-108667268D01*
X91556431Y-108667270D01*
X91474252Y-108828552D01*
X91474251Y-108828555D01*
X91418317Y-109000706D01*
X91392726Y-109162279D01*
X91362797Y-109225414D01*
X91303485Y-109262345D01*
X91233622Y-109261347D01*
X91175390Y-109222737D01*
X91147780Y-109162279D01*
X91122189Y-109000706D01*
X91122171Y-109000591D01*
X91066211Y-108828361D01*
X91066211Y-108828360D01*
X91036474Y-108770000D01*
X90983996Y-108667006D01*
X90942950Y-108610511D01*
X90877558Y-108520505D01*
X90877554Y-108520500D01*
X90749499Y-108392445D01*
X90651114Y-108320964D01*
X90608449Y-108265634D01*
X90600000Y-108220646D01*
X90600000Y-107779352D01*
X90600262Y-107778456D01*
X90600013Y-107777558D01*
X90610085Y-107745004D01*
X90619685Y-107712313D01*
X90620481Y-107711407D01*
X90620666Y-107710810D01*
X90624795Y-107706500D01*
X90644162Y-107684474D01*
X90647538Y-107681632D01*
X90749501Y-107607553D01*
X90877553Y-107479501D01*
X90983996Y-107332994D01*
X91066211Y-107171639D01*
X91122171Y-106999409D01*
X91147780Y-106837720D01*
X91177709Y-106774585D01*
X91237021Y-106737654D01*
X91306883Y-106738652D01*
G37*
%TD.AperFunction*%
%TA.AperFunction,Conductor*%
G36*
X93846376Y-106738652D02*
G01*
X93904609Y-106777261D01*
X93932219Y-106837720D01*
X93957828Y-106999410D01*
X94013787Y-107171636D01*
X94013788Y-107171639D01*
X94069664Y-107281300D01*
X94095869Y-107332730D01*
X94096006Y-107332997D01*
X94202441Y-107479494D01*
X94202445Y-107479499D01*
X94330500Y-107607554D01*
X94330505Y-107607558D01*
X94436372Y-107684474D01*
X94477006Y-107713996D01*
X94582484Y-107767740D01*
X94638360Y-107796211D01*
X94638363Y-107796212D01*
X94724476Y-107824191D01*
X94810591Y-107852171D01*
X94883639Y-107863740D01*
X94970678Y-107877527D01*
X95033813Y-107907456D01*
X95070744Y-107966768D01*
X95069746Y-108036631D01*
X95031136Y-108094863D01*
X94970678Y-108122473D01*
X94810589Y-108147829D01*
X94638363Y-108203787D01*
X94638360Y-108203788D01*
X94477002Y-108286006D01*
X94330505Y-108392441D01*
X94330500Y-108392445D01*
X94202445Y-108520500D01*
X94202441Y-108520505D01*
X94096006Y-108667002D01*
X94013788Y-108828360D01*
X94013787Y-108828363D01*
X93957829Y-109000589D01*
X93932219Y-109162280D01*
X93902289Y-109225414D01*
X93842978Y-109262345D01*
X93773115Y-109261347D01*
X93714883Y-109222737D01*
X93687273Y-109162279D01*
X93661682Y-109000706D01*
X93605748Y-108828555D01*
X93605747Y-108828552D01*
X93523565Y-108667265D01*
X93482331Y-108610511D01*
X93482330Y-108610510D01*
X93008018Y-109084821D01*
X93005925Y-109077007D01*
X92940099Y-108962993D01*
X92847007Y-108869901D01*
X92732993Y-108804075D01*
X92725176Y-108801980D01*
X93199487Y-108327668D01*
X93199487Y-108327667D01*
X93142734Y-108286434D01*
X92981447Y-108204252D01*
X92981444Y-108204251D01*
X92809293Y-108148317D01*
X92646120Y-108122473D01*
X92582985Y-108092544D01*
X92546054Y-108033232D01*
X92547052Y-107963370D01*
X92585662Y-107905137D01*
X92646120Y-107877527D01*
X92809293Y-107851682D01*
X92981444Y-107795748D01*
X92981447Y-107795747D01*
X93142730Y-107713568D01*
X93199487Y-107672330D01*
X93199488Y-107672329D01*
X92725178Y-107198019D01*
X92732993Y-107195925D01*
X92847007Y-107130099D01*
X92940099Y-107037007D01*
X93005925Y-106922993D01*
X93008019Y-106915177D01*
X93482329Y-107389488D01*
X93482330Y-107389487D01*
X93523568Y-107332730D01*
X93605747Y-107171447D01*
X93605748Y-107171444D01*
X93661683Y-106999292D01*
X93687273Y-106837721D01*
X93717202Y-106774586D01*
X93776513Y-106737654D01*
X93846376Y-106738652D01*
G37*
%TD.AperFunction*%
%TD*%
M02*
