%TF.GenerationSoftware,KiCad,Pcbnew,9.0.9-9.0.9~ubuntu24.04.1*%
%TF.CreationDate,2026-10-04T21:37:13+00:00*%
%TF.ProjectId,module-iso,6d6f6475-6c65-42d6-9973-6f2e6b696361,A*%
%TF.SameCoordinates,Original*%
%TF.FileFunction,Copper,L2,Bot*%
%TF.FilePolarity,Positive*%
%FSLAX46Y46*%
G04 Gerber Fmt 4.6, Leading zero omitted, Abs format (unit mm)*
G04 Created by KiCad (PCBNEW 9.0.9-9.0.9~ubuntu24.04.1) date 2026-10-04 21:37:13*
%MOMM*%
%LPD*%
G01*
G04 APERTURE LIST*
G04 Aperture macros list*
%AMRoundRect*
0 Rectangle with rounded corners*
0 $1 Rounding radius*
0 $2 $3 $4 $5 $6 $7 $8 $9 X,Y pos of 4 corners*
0 Add a 4 corners polygon primitive as box body*
4,1,4,$2,$3,$4,$5,$6,$7,$8,$9,$2,$3,0*
0 Add four circle primitives for the rounded corners*
1,1,$1+$1,$2,$3*
1,1,$1+$1,$4,$5*
1,1,$1+$1,$6,$7*
1,1,$1+$1,$8,$9*
0 Add four rect primitives between the rounded corners*
20,1,$1+$1,$2,$3,$4,$5,0*
20,1,$1+$1,$4,$5,$6,$7,0*
20,1,$1+$1,$6,$7,$8,$9,0*
20,1,$1+$1,$8,$9,$2,$3,0*%
%AMRotRect*
0 Rectangle, with rotation*
0 The origin of the aperture is its center*
0 $1 length*
0 $2 width*
0 $3 Rotation angle, in degrees counterclockwise*
0 Add horizontal line*
21,1,$1,$2,0,0,$3*%
G04 Aperture macros list end*
%TA.AperFunction,ComponentPad*%
%ADD10C,6.400000*%
%TD*%
%TA.AperFunction,ComponentPad*%
%ADD11R,1.700000X1.700000*%
%TD*%
%TA.AperFunction,ComponentPad*%
%ADD12C,1.700000*%
%TD*%
%TA.AperFunction,SMDPad,CuDef*%
%ADD13RoundRect,0.250000X2.600000X-0.600000X2.600000X0.600000X-2.600000X0.600000X-2.600000X-0.600000X0*%
%TD*%
%TA.AperFunction,SMDPad,CuDef*%
%ADD14RotRect,3.180000X3.180000X135.000000*%
%TD*%
%TA.AperFunction,SMDPad,CuDef*%
%ADD15RoundRect,0.250000X1.500000X0.550000X-1.500000X0.550000X-1.500000X-0.550000X1.500000X-0.550000X0*%
%TD*%
%TA.AperFunction,ComponentPad*%
%ADD16R,2.300000X2.300000*%
%TD*%
%TA.AperFunction,ComponentPad*%
%ADD17C,2.300000*%
%TD*%
%TA.AperFunction,ViaPad*%
%ADD18C,0.800000*%
%TD*%
%TA.AperFunction,Conductor*%
%ADD19C,1.200000*%
%TD*%
%TA.AperFunction,Conductor*%
%ADD20C,1.500000*%
%TD*%
G04 APERTURE END LIST*
D10*
%TO.P,H1,1*%
%TO.N,N/C*%
X71500000Y-108200000D03*
%TD*%
D11*
%TO.P,J1,1*%
%TO.N,/PWR_GND*%
X84920000Y-109270000D03*
D12*
%TO.P,J1,2*%
X84920000Y-106730000D03*
%TO.P,J1,3*%
%TO.N,/ISO_POS12*%
X87460000Y-109270000D03*
%TO.P,J1,4*%
X87460000Y-106730000D03*
%TO.P,J1,5*%
%TO.N,unconnected-(J1-Pin_5-Pad5)*%
X90000000Y-109270000D03*
%TO.P,J1,6*%
%TO.N,unconnected-(J1-Pin_6-Pad6)*%
X90000000Y-106730000D03*
%TO.P,J1,7*%
%TO.N,/ISO_FILT_NEG*%
X92540000Y-109270000D03*
%TO.P,J1,8*%
X92540000Y-106730000D03*
%TO.P,J1,9*%
%TO.N,/ISO_FB2*%
X95080000Y-109270000D03*
%TO.P,J1,10*%
X95080000Y-106730000D03*
%TD*%
D10*
%TO.P,H2,1*%
%TO.N,N/C*%
X105700000Y-69900000D03*
%TD*%
D13*
%TO.P,L1,1*%
%TO.N,/ISO_FB2*%
X93600000Y-103650000D03*
%TO.P,L1,2*%
%TO.N,/power-entry/ISO_FILT_POS*%
X93600000Y-99150000D03*
%TD*%
D14*
%TO.P,L2,1*%
%TO.N,/power-entry/ISO_FILT_POS*%
X92241082Y-93508918D03*
%TO.P,L2,2*%
%TO.N,/power-entry/ISO_VIN_POS*%
X92241082Y-80491082D03*
%TO.P,L2,3*%
%TO.N,/power-entry/ISO_VIN_NEG*%
X105258918Y-80491082D03*
%TO.P,L2,4*%
%TO.N,/ISO_FILT_NEG*%
X105258918Y-93508918D03*
%TD*%
D15*
%TO.P,C2,1*%
%TO.N,/power-entry/ISO_VIN_POS*%
X77900000Y-70000000D03*
%TO.P,C2,2*%
%TO.N,/power-entry/ISO_VIN_NEG*%
X72500000Y-70000000D03*
%TD*%
%TO.P,C45,1*%
%TO.N,/ISO_POS12*%
X83200000Y-104000000D03*
%TO.P,C45,2*%
%TO.N,/PWR_GND*%
X77800000Y-104000000D03*
%TD*%
D16*
%TO.P,U14,1*%
%TO.N,/power-entry/ISO_VIN_POS*%
X76989999Y-76840000D03*
D17*
%TO.P,U14,2*%
%TO.N,/power-entry/ISO_VIN_NEG*%
X71909999Y-76840000D03*
%TO.P,U14,4*%
%TO.N,/PWR_GND*%
X64289999Y-97160000D03*
%TO.P,U14,5*%
%TO.N,unconnected-(U14-Trim-Pad5)*%
X74449999Y-97160000D03*
%TO.P,U14,6*%
%TO.N,/ISO_POS12*%
X84609999Y-97160000D03*
%TD*%
D18*
%TO.N,/ISO_FILT_NEG*%
X100000000Y-98000000D03*
X100000000Y-90500000D03*
X107800000Y-98000000D03*
X107800000Y-90500000D03*
%TO.N,/PWR_GND*%
X62500000Y-110000000D03*
X68000000Y-101500000D03*
X86000000Y-110949999D03*
X62500000Y-101500000D03*
X75500000Y-110000000D03*
X75500000Y-101500000D03*
X80500000Y-110000000D03*
X81000000Y-101000000D03*
%TO.N,/power-entry/ISO_VIN_NEG*%
X100000000Y-67600000D03*
X101000000Y-77400000D03*
X96000000Y-84000000D03*
X108000000Y-83500000D03*
X108000000Y-74000000D03*
X105259999Y-77400000D03*
X68000000Y-72400000D03*
X82500000Y-67600000D03*
X90000000Y-67600000D03*
X70000000Y-67600000D03*
%TD*%
D19*
%TO.N,/ISO_FB2*%
X95080000Y-109270000D02*
X95080000Y-103650000D01*
D20*
%TO.N,/ISO_POS12*%
X84610000Y-103000000D02*
X87460000Y-105850000D01*
X84610000Y-97160000D02*
X84610000Y-103000000D01*
X87460000Y-105850000D02*
X87460000Y-109270000D01*
D19*
%TO.N,/power-entry/ISO_FILT_POS*%
X93600000Y-94870000D02*
X92240000Y-93509999D01*
X93600000Y-99150000D02*
X93600000Y-94870000D01*
D20*
%TO.N,/power-entry/ISO_VIN_POS*%
X92240000Y-80490000D02*
X92240000Y-76000000D01*
X77900000Y-70000000D02*
X77900000Y-75930000D01*
X87800000Y-71560000D02*
X77900000Y-71560000D01*
X92240000Y-76000000D02*
X87800000Y-71560000D01*
X77900000Y-75930000D02*
X76990000Y-76840000D01*
%TD*%
%TA.AperFunction,Conductor*%
%TO.N,/PWR_GND*%
G36*
X83502539Y-100019685D02*
G01*
X83548294Y-100072489D01*
X83559500Y-100124000D01*
X83559500Y-102775500D01*
X83539815Y-102842539D01*
X83487011Y-102888294D01*
X83435500Y-102899500D01*
X81656898Y-102899500D01*
X81617853Y-102904188D01*
X81568438Y-102910122D01*
X81427656Y-102965639D01*
X81307077Y-103057077D01*
X81215639Y-103177656D01*
X81160122Y-103318438D01*
X81154188Y-103367853D01*
X81149500Y-103406898D01*
X81149500Y-104593102D01*
X81155126Y-104639954D01*
X81160122Y-104681561D01*
X81215639Y-104822343D01*
X81307077Y-104942922D01*
X81427656Y-105034360D01*
X81427657Y-105034360D01*
X81427658Y-105034361D01*
X81568436Y-105089877D01*
X81656898Y-105100500D01*
X81656903Y-105100500D01*
X84743097Y-105100500D01*
X84743102Y-105100500D01*
X84831564Y-105089877D01*
X84972342Y-105034361D01*
X84992192Y-105019307D01*
X85057499Y-104994485D01*
X85125864Y-105008910D01*
X85154798Y-105030430D01*
X85681482Y-105557114D01*
X85714967Y-105618436D01*
X85709983Y-105688127D01*
X85668112Y-105744061D01*
X85602647Y-105768478D01*
X85534374Y-105753626D01*
X85526925Y-105748914D01*
X85526887Y-105748978D01*
X85522739Y-105746436D01*
X85361447Y-105664252D01*
X85361444Y-105664251D01*
X85189293Y-105608317D01*
X85010506Y-105580000D01*
X84829494Y-105580000D01*
X84650706Y-105608317D01*
X84478555Y-105664251D01*
X84478552Y-105664252D01*
X84317270Y-105746431D01*
X84317268Y-105746432D01*
X84260511Y-105787667D01*
X84260511Y-105787668D01*
X84734823Y-106261980D01*
X84727007Y-106264075D01*
X84612993Y-106329901D01*
X84519901Y-106422993D01*
X84454075Y-106537007D01*
X84451980Y-106544823D01*
X83977668Y-106070511D01*
X83977667Y-106070511D01*
X83936432Y-106127268D01*
X83936431Y-106127270D01*
X83854252Y-106288552D01*
X83854251Y-106288555D01*
X83798317Y-106460706D01*
X83770000Y-106639493D01*
X83770000Y-106820506D01*
X83798317Y-106999293D01*
X83854251Y-107171444D01*
X83854252Y-107171447D01*
X83936434Y-107332734D01*
X83977667Y-107389487D01*
X83977668Y-107389487D01*
X84451980Y-106915176D01*
X84454075Y-106922993D01*
X84519901Y-107037007D01*
X84612993Y-107130099D01*
X84727007Y-107195925D01*
X84734822Y-107198019D01*
X84260510Y-107672330D01*
X84260511Y-107672331D01*
X84317265Y-107713565D01*
X84478552Y-107795747D01*
X84478555Y-107795748D01*
X84650707Y-107851683D01*
X84788627Y-107873527D01*
X84851762Y-107903456D01*
X84888694Y-107962767D01*
X84887696Y-108032630D01*
X84849087Y-108090863D01*
X84785123Y-108118977D01*
X84769230Y-108120000D01*
X84025214Y-108120000D01*
X84025191Y-108120002D01*
X84000130Y-108122908D01*
X84000126Y-108122909D01*
X83897525Y-108168211D01*
X83897520Y-108168214D01*
X83818214Y-108247520D01*
X83818211Y-108247525D01*
X83772910Y-108350122D01*
X83772910Y-108350124D01*
X83770000Y-108375205D01*
X83770000Y-109070000D01*
X84458120Y-109070000D01*
X84454075Y-109077007D01*
X84420000Y-109204174D01*
X84420000Y-109335826D01*
X84454075Y-109462993D01*
X84458120Y-109470000D01*
X83770001Y-109470000D01*
X83770001Y-110164785D01*
X83770002Y-110164808D01*
X83772908Y-110189869D01*
X83772909Y-110189873D01*
X83818211Y-110292474D01*
X83818214Y-110292479D01*
X83897520Y-110371785D01*
X83897525Y-110371788D01*
X84000123Y-110417089D01*
X84025206Y-110419999D01*
X84719999Y-110419999D01*
X84720000Y-110419998D01*
X84720000Y-109731879D01*
X84727007Y-109735925D01*
X84854174Y-109770000D01*
X84985826Y-109770000D01*
X85112993Y-109735925D01*
X85120000Y-109731879D01*
X85120000Y-110419999D01*
X85814786Y-110419999D01*
X85814808Y-110419997D01*
X85839869Y-110417091D01*
X85839873Y-110417090D01*
X85942474Y-110371788D01*
X85942479Y-110371785D01*
X86021785Y-110292479D01*
X86021788Y-110292474D01*
X86067089Y-110189877D01*
X86067089Y-110189875D01*
X86069999Y-110164794D01*
X86069999Y-109423971D01*
X86089683Y-109356932D01*
X86142487Y-109311177D01*
X86211646Y-109301233D01*
X86275202Y-109330258D01*
X86312976Y-109389036D01*
X86316472Y-109404572D01*
X86337829Y-109539410D01*
X86393787Y-109711636D01*
X86393788Y-109711639D01*
X86476006Y-109872997D01*
X86582441Y-110019494D01*
X86582445Y-110019499D01*
X86710500Y-110147554D01*
X86710505Y-110147558D01*
X86768753Y-110189877D01*
X86857006Y-110253996D01*
X86932523Y-110292474D01*
X87018360Y-110336211D01*
X87018363Y-110336212D01*
X87104476Y-110364191D01*
X87190591Y-110392171D01*
X87273429Y-110405291D01*
X87369449Y-110420500D01*
X87369454Y-110420500D01*
X87550551Y-110420500D01*
X87637259Y-110406765D01*
X87729409Y-110392171D01*
X87901639Y-110336211D01*
X88062994Y-110253996D01*
X88209501Y-110147553D01*
X88288319Y-110068735D01*
X88349642Y-110035250D01*
X88419334Y-110040234D01*
X88475267Y-110082106D01*
X88499684Y-110147570D01*
X88500000Y-110156416D01*
X88500000Y-111525500D01*
X88480315Y-111592539D01*
X88427511Y-111638294D01*
X88376000Y-111649500D01*
X72942808Y-111649500D01*
X72875769Y-111629815D01*
X72830014Y-111577011D01*
X72820070Y-111507853D01*
X72849095Y-111444297D01*
X72895354Y-111410939D01*
X72998462Y-111368231D01*
X73301787Y-111206100D01*
X73587760Y-111015019D01*
X73853627Y-110796828D01*
X74096828Y-110553627D01*
X74315019Y-110287760D01*
X74506100Y-110001787D01*
X74668231Y-109698462D01*
X74799850Y-109380705D01*
X74899690Y-109051578D01*
X74966789Y-108714250D01*
X75000500Y-108371969D01*
X75000500Y-108028031D01*
X74966789Y-107685750D01*
X74899690Y-107348422D01*
X74799850Y-107019295D01*
X74668231Y-106701538D01*
X74658182Y-106682737D01*
X74506106Y-106398224D01*
X74506105Y-106398222D01*
X74506100Y-106398213D01*
X74315019Y-106112240D01*
X74096828Y-105846373D01*
X74096827Y-105846372D01*
X74096823Y-105846367D01*
X73853632Y-105603176D01*
X73587765Y-105384985D01*
X73587764Y-105384984D01*
X73587760Y-105384981D01*
X73301787Y-105193900D01*
X73301782Y-105193897D01*
X73301775Y-105193893D01*
X72998469Y-105031772D01*
X72998464Y-105031770D01*
X72680706Y-104900150D01*
X72351572Y-104800308D01*
X72014248Y-104733210D01*
X72014249Y-104733210D01*
X71756456Y-104707821D01*
X71671969Y-104699500D01*
X71328031Y-104699500D01*
X71249966Y-104707188D01*
X70985750Y-104733210D01*
X70648427Y-104800308D01*
X70319293Y-104900150D01*
X70001535Y-105031770D01*
X70001530Y-105031772D01*
X69698224Y-105193893D01*
X69698206Y-105193904D01*
X69412248Y-105384975D01*
X69412234Y-105384985D01*
X69146367Y-105603176D01*
X68903176Y-105846367D01*
X68684985Y-106112234D01*
X68684975Y-106112248D01*
X68493904Y-106398206D01*
X68493893Y-106398224D01*
X68331772Y-106701530D01*
X68331770Y-106701535D01*
X68200150Y-107019293D01*
X68100308Y-107348427D01*
X68033210Y-107685750D01*
X68011769Y-107903456D01*
X67999500Y-108028031D01*
X67999500Y-108371969D01*
X67999819Y-108375205D01*
X68033210Y-108714249D01*
X68100308Y-109051572D01*
X68200150Y-109380706D01*
X68331770Y-109698464D01*
X68331772Y-109698469D01*
X68493893Y-110001775D01*
X68493904Y-110001793D01*
X68684975Y-110287751D01*
X68684985Y-110287765D01*
X68903176Y-110553632D01*
X69146367Y-110796823D01*
X69146372Y-110796827D01*
X69146373Y-110796828D01*
X69412240Y-111015019D01*
X69698213Y-111206100D01*
X69698222Y-111206105D01*
X69698224Y-111206106D01*
X70001530Y-111368227D01*
X70001532Y-111368227D01*
X70001538Y-111368231D01*
X70104645Y-111410939D01*
X70159048Y-111454780D01*
X70181113Y-111521074D01*
X70163834Y-111588773D01*
X70112697Y-111636384D01*
X70057192Y-111649500D01*
X61624500Y-111649500D01*
X61557461Y-111629815D01*
X61511706Y-111577011D01*
X61500500Y-111525500D01*
X61500500Y-104593053D01*
X75750000Y-104593053D01*
X75760613Y-104681443D01*
X75816079Y-104822095D01*
X75907435Y-104942564D01*
X76027904Y-105033920D01*
X76168556Y-105089386D01*
X76256946Y-105100000D01*
X77600000Y-105100000D01*
X78000000Y-105100000D01*
X79343054Y-105100000D01*
X79431443Y-105089386D01*
X79572095Y-105033920D01*
X79692564Y-104942564D01*
X79783920Y-104822095D01*
X79839386Y-104681443D01*
X79850000Y-104593053D01*
X79850000Y-104200000D01*
X78000000Y-104200000D01*
X78000000Y-105100000D01*
X77600000Y-105100000D01*
X77600000Y-104200000D01*
X75750000Y-104200000D01*
X75750000Y-104593053D01*
X61500500Y-104593053D01*
X61500500Y-103406946D01*
X75750000Y-103406946D01*
X75750000Y-103800000D01*
X77600000Y-103800000D01*
X78000000Y-103800000D01*
X79850000Y-103800000D01*
X79850000Y-103406946D01*
X79839386Y-103318556D01*
X79783920Y-103177904D01*
X79692564Y-103057435D01*
X79572095Y-102966079D01*
X79431443Y-102910613D01*
X79343054Y-102900000D01*
X78000000Y-102900000D01*
X78000000Y-103800000D01*
X77600000Y-103800000D01*
X77600000Y-102900000D01*
X76256946Y-102900000D01*
X76168556Y-102910613D01*
X76027904Y-102966079D01*
X75907435Y-103057435D01*
X75816079Y-103177904D01*
X75760613Y-103318556D01*
X75750000Y-103406946D01*
X61500500Y-103406946D01*
X61500500Y-100124000D01*
X61520185Y-100056961D01*
X61572989Y-100011206D01*
X61624500Y-100000000D01*
X83435500Y-100000000D01*
X83502539Y-100019685D01*
G37*
%TD.AperFunction*%
%TA.AperFunction,Conductor*%
G36*
X86226376Y-106738652D02*
G01*
X86284609Y-106777261D01*
X86312219Y-106837720D01*
X86337828Y-106999410D01*
X86393787Y-107171634D01*
X86393789Y-107171639D01*
X86395984Y-107175946D01*
X86409500Y-107232242D01*
X86409500Y-108767756D01*
X86395987Y-108824047D01*
X86393787Y-108828363D01*
X86337829Y-109000589D01*
X86316472Y-109135428D01*
X86286542Y-109198562D01*
X86227231Y-109235493D01*
X86157368Y-109234495D01*
X86099136Y-109195885D01*
X86071022Y-109131921D01*
X86069999Y-109116029D01*
X86069999Y-108375214D01*
X86069997Y-108375191D01*
X86067091Y-108350130D01*
X86067090Y-108350126D01*
X86021788Y-108247525D01*
X86021785Y-108247520D01*
X85942479Y-108168214D01*
X85942474Y-108168211D01*
X85839876Y-108122910D01*
X85814794Y-108120000D01*
X85070770Y-108120000D01*
X85003731Y-108100315D01*
X84957976Y-108047511D01*
X84948032Y-107978353D01*
X84977057Y-107914797D01*
X85035835Y-107877023D01*
X85051373Y-107873527D01*
X85189292Y-107851683D01*
X85361444Y-107795748D01*
X85361447Y-107795747D01*
X85522730Y-107713568D01*
X85579487Y-107672330D01*
X85579488Y-107672329D01*
X85105178Y-107198019D01*
X85112993Y-107195925D01*
X85227007Y-107130099D01*
X85320099Y-107037007D01*
X85385925Y-106922993D01*
X85388019Y-106915177D01*
X85862330Y-107389488D01*
X85862330Y-107389487D01*
X85903568Y-107332730D01*
X85985747Y-107171447D01*
X85985748Y-107171444D01*
X86041683Y-106999292D01*
X86067273Y-106837721D01*
X86097202Y-106774586D01*
X86156513Y-106737654D01*
X86226376Y-106738652D01*
G37*
%TD.AperFunction*%
%TD*%
%TA.AperFunction,Conductor*%
%TO.N,/power-entry/ISO_VIN_NEG*%
G36*
X104206215Y-66520185D02*
G01*
X104251970Y-66572989D01*
X104261914Y-66642147D01*
X104232889Y-66705703D01*
X104197629Y-66733858D01*
X103898224Y-66893893D01*
X103898206Y-66893904D01*
X103612248Y-67084975D01*
X103612234Y-67084985D01*
X103346367Y-67303176D01*
X103103176Y-67546367D01*
X102884985Y-67812234D01*
X102884975Y-67812248D01*
X102693904Y-68098206D01*
X102693893Y-68098224D01*
X102531772Y-68401530D01*
X102531770Y-68401535D01*
X102400150Y-68719293D01*
X102300308Y-69048427D01*
X102233210Y-69385750D01*
X102199500Y-69728034D01*
X102199500Y-70071965D01*
X102233210Y-70414249D01*
X102300308Y-70751572D01*
X102400150Y-71080706D01*
X102531770Y-71398464D01*
X102531772Y-71398469D01*
X102693893Y-71701775D01*
X102693904Y-71701793D01*
X102884975Y-71987751D01*
X102884985Y-71987765D01*
X103103176Y-72253632D01*
X103346367Y-72496823D01*
X103346372Y-72496827D01*
X103346373Y-72496828D01*
X103612240Y-72715019D01*
X103898213Y-72906100D01*
X103898222Y-72906105D01*
X103898224Y-72906106D01*
X104201530Y-73068227D01*
X104201532Y-73068227D01*
X104201538Y-73068231D01*
X104519295Y-73199850D01*
X104848422Y-73299690D01*
X105185750Y-73366789D01*
X105528031Y-73400500D01*
X105528034Y-73400500D01*
X105871966Y-73400500D01*
X105871969Y-73400500D01*
X106214250Y-73366789D01*
X106551578Y-73299690D01*
X106880705Y-73199850D01*
X107198462Y-73068231D01*
X107501787Y-72906100D01*
X107787760Y-72715019D01*
X108053627Y-72496828D01*
X108296828Y-72253627D01*
X108515019Y-71987760D01*
X108706100Y-71701787D01*
X108766142Y-71589457D01*
X108815104Y-71539612D01*
X108883242Y-71524152D01*
X108948922Y-71547984D01*
X108991290Y-71603541D01*
X108999500Y-71647910D01*
X108999500Y-85776000D01*
X108979815Y-85843039D01*
X108927011Y-85888794D01*
X108875500Y-85900000D01*
X88024000Y-85900000D01*
X87956961Y-85880315D01*
X87911206Y-85827511D01*
X87900000Y-85776000D01*
X87900000Y-73700000D01*
X79074500Y-73700000D01*
X79007461Y-73680315D01*
X78961706Y-73627511D01*
X78950500Y-73576000D01*
X78950500Y-72734500D01*
X78970185Y-72667461D01*
X79022989Y-72621706D01*
X79074500Y-72610500D01*
X87313507Y-72610500D01*
X87380546Y-72630185D01*
X87401188Y-72646819D01*
X91153181Y-76398812D01*
X91186666Y-76460135D01*
X91189500Y-76486493D01*
X91189500Y-78817732D01*
X91169815Y-78884771D01*
X91153181Y-78905413D01*
X89748281Y-80310312D01*
X89748274Y-80310321D01*
X89732567Y-80330149D01*
X89691983Y-80434909D01*
X89691983Y-80547255D01*
X89732567Y-80652015D01*
X89732568Y-80652016D01*
X89748267Y-80671836D01*
X89748277Y-80671847D01*
X92060312Y-82983882D01*
X92060316Y-82983885D01*
X92060321Y-82983890D01*
X92080149Y-82999597D01*
X92184909Y-83040181D01*
X92184910Y-83040181D01*
X92297252Y-83040181D01*
X92297255Y-83040181D01*
X92402015Y-82999597D01*
X92421843Y-82983891D01*
X93436800Y-81968934D01*
X104063907Y-81968934D01*
X105078454Y-82983481D01*
X105078465Y-82983491D01*
X105098254Y-82999166D01*
X105202837Y-83039682D01*
X105314998Y-83039682D01*
X105419583Y-82999164D01*
X105439374Y-82983489D01*
X106453928Y-81968935D01*
X106453928Y-81968934D01*
X105258919Y-80773924D01*
X105258918Y-80773924D01*
X104063907Y-81968934D01*
X93436800Y-81968934D01*
X93719642Y-81686092D01*
X94733882Y-80671851D01*
X94733881Y-80671851D01*
X94733890Y-80671843D01*
X94749597Y-80652015D01*
X94790181Y-80547255D01*
X94790181Y-80435001D01*
X102710318Y-80435001D01*
X102710318Y-80547161D01*
X102750835Y-80651747D01*
X102766510Y-80671538D01*
X103781064Y-81686092D01*
X104976075Y-80491082D01*
X105541760Y-80491082D01*
X106736770Y-81686092D01*
X107751317Y-80671545D01*
X107751327Y-80671534D01*
X107767002Y-80651745D01*
X107807518Y-80547162D01*
X107807518Y-80435002D01*
X107767000Y-80330416D01*
X107751325Y-80310625D01*
X106736771Y-79296071D01*
X105541760Y-80491082D01*
X104976075Y-80491082D01*
X104976075Y-80491081D01*
X103781064Y-79296071D01*
X103781063Y-79296071D01*
X102766516Y-80310619D01*
X102750833Y-80330418D01*
X102710318Y-80435001D01*
X94790181Y-80435001D01*
X94790181Y-80434909D01*
X94749597Y-80330149D01*
X94733891Y-80310321D01*
X93436798Y-79013228D01*
X104063907Y-79013228D01*
X105258918Y-80208239D01*
X105258919Y-80208239D01*
X106453928Y-79013228D01*
X106453928Y-79013227D01*
X105439381Y-77998682D01*
X105439370Y-77998672D01*
X105419581Y-77982997D01*
X105314999Y-77942482D01*
X105202838Y-77942482D01*
X105098252Y-77982999D01*
X105078461Y-77998674D01*
X104063907Y-79013228D01*
X93436798Y-79013228D01*
X93326819Y-78903249D01*
X93293334Y-78841926D01*
X93290500Y-78815568D01*
X93290500Y-75896534D01*
X93290499Y-75896530D01*
X93250131Y-75693587D01*
X93250130Y-75693580D01*
X93170941Y-75502402D01*
X93055977Y-75330345D01*
X93055975Y-75330342D01*
X92906559Y-75180926D01*
X92906528Y-75180897D01*
X88620317Y-70894686D01*
X88620297Y-70894664D01*
X88469657Y-70744024D01*
X88375997Y-70681443D01*
X88297598Y-70629059D01*
X88210672Y-70593053D01*
X88106420Y-70549870D01*
X88106412Y-70549868D01*
X87903469Y-70509500D01*
X87903465Y-70509500D01*
X80074500Y-70509500D01*
X80007461Y-70489815D01*
X79961706Y-70437011D01*
X79950500Y-70385500D01*
X79950500Y-69406903D01*
X79950500Y-69406898D01*
X79939877Y-69318436D01*
X79884361Y-69177658D01*
X79884360Y-69177657D01*
X79884360Y-69177656D01*
X79792922Y-69057077D01*
X79672343Y-68965639D01*
X79576192Y-68927722D01*
X79531564Y-68910123D01*
X79531563Y-68910122D01*
X79531561Y-68910122D01*
X79485926Y-68904642D01*
X79443102Y-68899500D01*
X76356898Y-68899500D01*
X76317853Y-68904188D01*
X76268438Y-68910122D01*
X76127656Y-68965639D01*
X76007077Y-69057077D01*
X75915639Y-69177656D01*
X75860122Y-69318438D01*
X75854188Y-69367853D01*
X75849500Y-69406898D01*
X75849500Y-70593102D01*
X75853818Y-70629058D01*
X75860122Y-70681561D01*
X75915639Y-70822343D01*
X76007077Y-70942922D01*
X76127656Y-71034360D01*
X76127657Y-71034360D01*
X76127658Y-71034361D01*
X76268436Y-71089877D01*
X76356898Y-71100500D01*
X76725500Y-71100500D01*
X76792539Y-71120185D01*
X76838294Y-71172989D01*
X76849500Y-71224500D01*
X76849500Y-73576000D01*
X76829815Y-73643039D01*
X76777011Y-73688794D01*
X76725500Y-73700000D01*
X61624500Y-73700000D01*
X61557461Y-73680315D01*
X61511706Y-73627511D01*
X61500500Y-73576000D01*
X61500500Y-70593053D01*
X70450000Y-70593053D01*
X70460613Y-70681443D01*
X70516079Y-70822095D01*
X70607435Y-70942564D01*
X70727904Y-71033920D01*
X70868556Y-71089386D01*
X70956946Y-71100000D01*
X72300000Y-71100000D01*
X72700000Y-71100000D01*
X74043054Y-71100000D01*
X74131443Y-71089386D01*
X74272095Y-71033920D01*
X74392564Y-70942564D01*
X74483920Y-70822095D01*
X74539386Y-70681443D01*
X74550000Y-70593053D01*
X74550000Y-70200000D01*
X72700000Y-70200000D01*
X72700000Y-71100000D01*
X72300000Y-71100000D01*
X72300000Y-70200000D01*
X70450000Y-70200000D01*
X70450000Y-70593053D01*
X61500500Y-70593053D01*
X61500500Y-69406946D01*
X70450000Y-69406946D01*
X70450000Y-69800000D01*
X72300000Y-69800000D01*
X72700000Y-69800000D01*
X74550000Y-69800000D01*
X74550000Y-69406946D01*
X74539386Y-69318556D01*
X74483920Y-69177904D01*
X74392564Y-69057435D01*
X74272095Y-68966079D01*
X74131443Y-68910613D01*
X74043054Y-68900000D01*
X72700000Y-68900000D01*
X72700000Y-69800000D01*
X72300000Y-69800000D01*
X72300000Y-68900000D01*
X70956946Y-68900000D01*
X70868556Y-68910613D01*
X70727904Y-68966079D01*
X70607435Y-69057435D01*
X70516079Y-69177904D01*
X70460613Y-69318556D01*
X70450000Y-69406946D01*
X61500500Y-69406946D01*
X61500500Y-66624500D01*
X61520185Y-66557461D01*
X61572989Y-66511706D01*
X61624500Y-66500500D01*
X104139176Y-66500500D01*
X104206215Y-66520185D01*
G37*
%TD.AperFunction*%
%TD*%
%TA.AperFunction,Conductor*%
%TO.N,/ISO_FILT_NEG*%
G36*
X108942539Y-89019685D02*
G01*
X108988294Y-89072489D01*
X108999500Y-89124000D01*
X108999500Y-99376000D01*
X108979815Y-99443039D01*
X108927011Y-99488794D01*
X108875500Y-99500000D01*
X97724000Y-99500000D01*
X97656961Y-99480315D01*
X97611206Y-99427511D01*
X97600000Y-99376000D01*
X97600000Y-94986770D01*
X104063907Y-94986770D01*
X105078454Y-96001317D01*
X105078465Y-96001327D01*
X105098254Y-96017002D01*
X105202837Y-96057518D01*
X105314998Y-96057518D01*
X105419583Y-96017000D01*
X105439374Y-96001325D01*
X106453928Y-94986771D01*
X106453928Y-94986770D01*
X105258919Y-93791760D01*
X105258918Y-93791760D01*
X104063907Y-94986770D01*
X97600000Y-94986770D01*
X97600000Y-93452837D01*
X102710318Y-93452837D01*
X102710318Y-93564997D01*
X102750835Y-93669583D01*
X102766510Y-93689374D01*
X103781064Y-94703928D01*
X104976075Y-93508918D01*
X105541760Y-93508918D01*
X106736770Y-94703928D01*
X107751317Y-93689381D01*
X107751327Y-93689370D01*
X107767002Y-93669581D01*
X107807518Y-93564998D01*
X107807518Y-93452838D01*
X107767000Y-93348252D01*
X107751325Y-93328461D01*
X106736771Y-92313907D01*
X105541760Y-93508918D01*
X104976075Y-93508918D01*
X104976075Y-93508917D01*
X103781064Y-92313907D01*
X103781063Y-92313907D01*
X102766516Y-93328455D01*
X102750833Y-93348254D01*
X102710318Y-93452837D01*
X97600000Y-93452837D01*
X97600000Y-92031064D01*
X104063907Y-92031064D01*
X105258918Y-93226075D01*
X105258919Y-93226075D01*
X106453928Y-92031064D01*
X106453928Y-92031063D01*
X105439381Y-91016518D01*
X105439370Y-91016508D01*
X105419581Y-91000833D01*
X105314999Y-90960318D01*
X105202838Y-90960318D01*
X105098252Y-91000835D01*
X105078461Y-91016510D01*
X104063907Y-92031064D01*
X97600000Y-92031064D01*
X97600000Y-89124000D01*
X97619685Y-89056961D01*
X97672489Y-89011206D01*
X97724000Y-89000000D01*
X108875500Y-89000000D01*
X108942539Y-89019685D01*
G37*
%TD.AperFunction*%
%TD*%
M02*
