M48
; DRILL file {KiCad 9.0.9-9.0.9~ubuntu24.04.1} date 2026-10-01T14:49:23+0000
; FORMAT={-:-/ absolute / metric / decimal}
; #@! TF.CreationDate,2026-10-01T14:49:23+00:00
; #@! TF.GenerationSoftware,Kicad,Pcbnew,9.0.9-9.0.9~ubuntu24.04.1
; #@! TF.FileFunction,Plated,1,2,PTH
FMAT,2
METRIC
; #@! TA.AperFunction,Plated,PTH,ViaDrill
T1C0.300
; #@! TA.AperFunction,Plated,PTH,ComponentDrill
T2C0.700
; #@! TA.AperFunction,Plated,PTH,ComponentDrill
T3C2.200
%
G90
G05
T1
X114.4Y-119.3
X118.0Y-125.3
X122.6Y-116.9
X126.0Y-107.1
X129.0Y-108.7
X136.0Y-113.3
X136.0Y-117.9
X138.0Y-125.3
X140.0Y-112.3
X145.6Y-103.5
X146.8Y-117.9
X149.0Y-116.9
X149.8Y-105.5
X151.8Y-114.7
X152.0Y-102.5
X153.0Y-107.3
X153.2Y-120.1
X154.0Y-110.5
X155.0Y-105.5
X155.2Y-110.5
X155.4Y-117.9
X157.4Y-114.7
X158.0Y-125.3
X158.8Y-108.9
X170.8Y-107.3
X172.4Y-110.3
X175.4Y-120.1
X176.0Y-108.9
X176.0Y-116.3
X176.0Y-134.3
T2
X131.14Y-104.81
X131.14Y-106.08
X131.14Y-107.35
X131.14Y-108.62
X131.14Y-109.89
X131.14Y-111.16
X132.41Y-104.81
X132.41Y-106.08
X132.41Y-107.35
X132.41Y-108.62
X132.41Y-109.89
X132.41Y-111.16
T3
X105.6Y-126.2
X112.6Y-127.25
X125.6Y-126.2
X132.6Y-127.25
X145.6Y-126.2
X152.6Y-127.25
X163.6Y-117.2
X163.6Y-135.2
X170.6Y-118.25
X170.6Y-136.25
M30
