M48
; DRILL file {KiCad 9.0.9-9.0.9~ubuntu24.04.1} date 2026-09-27T03:24:54+0000
; FORMAT={-:-/ absolute / metric / decimal}
; #@! TF.CreationDate,2026-09-27T03:24:54+00:00
; #@! TF.GenerationSoftware,Kicad,Pcbnew,9.0.9-9.0.9~ubuntu24.04.1
; #@! TF.FileFunction,MixedPlating,1,2
FMAT,2
METRIC
; #@! TA.AperFunction,Plated,PTH,ViaDrill
T1C0.300
; #@! TA.AperFunction,Plated,PTH,ComponentDrill
T2C1.200
; #@! TA.AperFunction,NonPlated,NPTH,ComponentDrill
T3C2.200
; #@! TA.AperFunction,NonPlated,NPTH,ComponentDrill
T4C5.250
%
G90
G05
T1
X106.8Y-118.7
X107.6Y-115.5
X113.4Y-115.1
X115.2Y-109.3
X126.6Y-115.1
X127.2Y-131.9
X127.6Y-117.3
X127.6Y-132.7
X128.6Y-104.3
X129.6Y-117.3
X131.6Y-117.3
X132.8Y-117.9
X133.2Y-118.7
X133.6Y-112.7
X134.2Y-117.9
X134.6Y-113.5
X135.6Y-118.7
X136.0Y-116.7
X140.4Y-116.1
X144.0Y-108.5
X144.4Y-104.3
X146.8Y-118.7
X147.0Y-109.3
X147.2Y-116.1
X148.6Y-104.3
X149.2Y-106.9
X149.4Y-103.1
X151.0Y-109.3
X152.0Y-102.9
X152.0Y-113.5
X152.8Y-115.1
X153.2Y-104.3
X153.2Y-112.7
X154.4Y-106.3
X154.4Y-113.5
X156.6Y-102.5
X160.2Y-107.3
X160.8Y-109.3
X161.2Y-107.3
X162.4Y-122.9
X163.2Y-123.3
X166.2Y-106.3
X168.8Y-122.5
X171.6Y-125.5
T2
X105.6Y-126.2
X112.6Y-127.25
X125.6Y-126.2
X132.6Y-127.25
X145.6Y-126.2
X152.6Y-127.25
X163.6Y-117.2
X163.6Y-135.2
X170.6Y-118.25
X170.6Y-136.25
T3
X100.5Y-104.0
X100.5Y-139.0
X177.5Y-104.0
X177.5Y-139.0
T4
X110.0Y-121.5
X130.0Y-121.5
X150.0Y-121.5
X168.0Y-112.5
X168.0Y-130.5
M30
