%TF.GenerationSoftware,KiCad,Pcbnew,9.0.9-9.0.9~ubuntu24.04.1*%
%TF.CreationDate,2026-09-29T18:37:08+00:00*%
%TF.ProjectId,key-board-lh,6b65792d-626f-4617-9264-2d6c682e6b69,A*%
%TF.SameCoordinates,Original*%
%TF.FileFunction,Legend,Bot*%
%TF.FilePolarity,Positive*%
%FSLAX46Y46*%
G04 Gerber Fmt 4.6, Leading zero omitted, Abs format (unit mm)*
G04 Created by KiCad (PCBNEW 9.0.9-9.0.9~ubuntu24.04.1) date 2026-09-29 18:37:08*
%MOMM*%
%LPD*%
G01*
G04 APERTURE LIST*
%ADD10C,0.180000*%
%ADD11C,0.390000*%
%ADD12C,0.150000*%
G04 APERTURE END LIST*
D10*
X98950000Y-122100000D02*
X97750000Y-121500000D01*
X98950000Y-120900000D01*
X98950000Y-122100000D01*
G36*
X98950000Y-122100000D02*
G01*
X97750000Y-121500000D01*
X98950000Y-120900000D01*
X98950000Y-122100000D01*
G37*
X141994999Y-107985000D02*
X140795000Y-108585000D01*
X140795000Y-107385000D01*
X141994999Y-107985000D01*
G36*
X141994999Y-107985000D02*
G01*
X140795000Y-108585000D01*
X140795000Y-107385000D01*
X141994999Y-107985000D01*
G37*
D11*
X129105000Y-111160000D02*
G75*
G02*
X128715000Y-111160000I-195000J0D01*
G01*
X128715000Y-111160000D02*
G75*
G02*
X129105000Y-111160000I195000J0D01*
G01*
D10*
X103985713Y-121953259D02*
X103985713Y-120953259D01*
X103985713Y-120953259D02*
X103652380Y-121667544D01*
X103652380Y-121667544D02*
X103319047Y-120953259D01*
X103319047Y-120953259D02*
X103319047Y-121953259D01*
X102652380Y-120953259D02*
X102461904Y-120953259D01*
X102461904Y-120953259D02*
X102366666Y-121000878D01*
X102366666Y-121000878D02*
X102271428Y-121096116D01*
X102271428Y-121096116D02*
X102223809Y-121286592D01*
X102223809Y-121286592D02*
X102223809Y-121619925D01*
X102223809Y-121619925D02*
X102271428Y-121810401D01*
X102271428Y-121810401D02*
X102366666Y-121905640D01*
X102366666Y-121905640D02*
X102461904Y-121953259D01*
X102461904Y-121953259D02*
X102652380Y-121953259D01*
X102652380Y-121953259D02*
X102747618Y-121905640D01*
X102747618Y-121905640D02*
X102842856Y-121810401D01*
X102842856Y-121810401D02*
X102890475Y-121619925D01*
X102890475Y-121619925D02*
X102890475Y-121286592D01*
X102890475Y-121286592D02*
X102842856Y-121096116D01*
X102842856Y-121096116D02*
X102747618Y-121000878D01*
X102747618Y-121000878D02*
X102652380Y-120953259D01*
X101795237Y-120953259D02*
X101795237Y-121762782D01*
X101795237Y-121762782D02*
X101747618Y-121858020D01*
X101747618Y-121858020D02*
X101699999Y-121905640D01*
X101699999Y-121905640D02*
X101604761Y-121953259D01*
X101604761Y-121953259D02*
X101414285Y-121953259D01*
X101414285Y-121953259D02*
X101319047Y-121905640D01*
X101319047Y-121905640D02*
X101271428Y-121858020D01*
X101271428Y-121858020D02*
X101223809Y-121762782D01*
X101223809Y-121762782D02*
X101223809Y-120953259D01*
X100890475Y-120953259D02*
X100319047Y-120953259D01*
X100604761Y-121953259D02*
X100604761Y-120953259D01*
X99985713Y-121953259D02*
X99985713Y-120953259D01*
X99985713Y-121429449D02*
X99414285Y-121429449D01*
X99414285Y-121953259D02*
X99414285Y-120953259D01*
X117390474Y-120128259D02*
X117866664Y-120128259D01*
X117866664Y-120128259D02*
X117866664Y-119128259D01*
X117057140Y-120128259D02*
X117057140Y-119128259D01*
X117057140Y-119604449D02*
X116485712Y-119604449D01*
X116485712Y-120128259D02*
X116485712Y-119128259D01*
X115485712Y-120128259D02*
X116057140Y-120128259D01*
X115771426Y-120128259D02*
X115771426Y-119128259D01*
X115771426Y-119128259D02*
X115866664Y-119271116D01*
X115866664Y-119271116D02*
X115961902Y-119366354D01*
X115961902Y-119366354D02*
X116057140Y-119413973D01*
X116866664Y-123683020D02*
X116914283Y-123730640D01*
X116914283Y-123730640D02*
X117057140Y-123778259D01*
X117057140Y-123778259D02*
X117152378Y-123778259D01*
X117152378Y-123778259D02*
X117295235Y-123730640D01*
X117295235Y-123730640D02*
X117390473Y-123635401D01*
X117390473Y-123635401D02*
X117438092Y-123540163D01*
X117438092Y-123540163D02*
X117485711Y-123349687D01*
X117485711Y-123349687D02*
X117485711Y-123206830D01*
X117485711Y-123206830D02*
X117438092Y-123016354D01*
X117438092Y-123016354D02*
X117390473Y-122921116D01*
X117390473Y-122921116D02*
X117295235Y-122825878D01*
X117295235Y-122825878D02*
X117152378Y-122778259D01*
X117152378Y-122778259D02*
X117057140Y-122778259D01*
X117057140Y-122778259D02*
X116914283Y-122825878D01*
X116914283Y-122825878D02*
X116866664Y-122873497D01*
X115914283Y-123778259D02*
X116485711Y-123778259D01*
X116199997Y-123778259D02*
X116199997Y-122778259D01*
X116199997Y-122778259D02*
X116295235Y-122921116D01*
X116295235Y-122921116D02*
X116390473Y-123016354D01*
X116390473Y-123016354D02*
X116485711Y-123063973D01*
X127166666Y-105863020D02*
X127214285Y-105910640D01*
X127214285Y-105910640D02*
X127357142Y-105958259D01*
X127357142Y-105958259D02*
X127452380Y-105958259D01*
X127452380Y-105958259D02*
X127595237Y-105910640D01*
X127595237Y-105910640D02*
X127690475Y-105815401D01*
X127690475Y-105815401D02*
X127738094Y-105720163D01*
X127738094Y-105720163D02*
X127785713Y-105529687D01*
X127785713Y-105529687D02*
X127785713Y-105386830D01*
X127785713Y-105386830D02*
X127738094Y-105196354D01*
X127738094Y-105196354D02*
X127690475Y-105101116D01*
X127690475Y-105101116D02*
X127595237Y-105005878D01*
X127595237Y-105005878D02*
X127452380Y-104958259D01*
X127452380Y-104958259D02*
X127357142Y-104958259D01*
X127357142Y-104958259D02*
X127214285Y-105005878D01*
X127214285Y-105005878D02*
X127166666Y-105053497D01*
X126833332Y-104958259D02*
X126166666Y-104958259D01*
X126166666Y-104958259D02*
X126595237Y-105958259D01*
X135353332Y-115718259D02*
X135353332Y-116432544D01*
X135353332Y-116432544D02*
X135400951Y-116575401D01*
X135400951Y-116575401D02*
X135496189Y-116670640D01*
X135496189Y-116670640D02*
X135639046Y-116718259D01*
X135639046Y-116718259D02*
X135734284Y-116718259D01*
X134353332Y-116718259D02*
X134924760Y-116718259D01*
X134639046Y-116718259D02*
X134639046Y-115718259D01*
X134639046Y-115718259D02*
X134734284Y-115861116D01*
X134734284Y-115861116D02*
X134829522Y-115956354D01*
X134829522Y-115956354D02*
X134924760Y-116003973D01*
X137390476Y-120128259D02*
X137866666Y-120128259D01*
X137866666Y-120128259D02*
X137866666Y-119128259D01*
X137057142Y-120128259D02*
X137057142Y-119128259D01*
X137057142Y-119604449D02*
X136485714Y-119604449D01*
X136485714Y-120128259D02*
X136485714Y-119128259D01*
X136057142Y-119223497D02*
X136009523Y-119175878D01*
X136009523Y-119175878D02*
X135914285Y-119128259D01*
X135914285Y-119128259D02*
X135676190Y-119128259D01*
X135676190Y-119128259D02*
X135580952Y-119175878D01*
X135580952Y-119175878D02*
X135533333Y-119223497D01*
X135533333Y-119223497D02*
X135485714Y-119318735D01*
X135485714Y-119318735D02*
X135485714Y-119413973D01*
X135485714Y-119413973D02*
X135533333Y-119556830D01*
X135533333Y-119556830D02*
X136104761Y-120128259D01*
X136104761Y-120128259D02*
X135485714Y-120128259D01*
X136866666Y-123683020D02*
X136914285Y-123730640D01*
X136914285Y-123730640D02*
X137057142Y-123778259D01*
X137057142Y-123778259D02*
X137152380Y-123778259D01*
X137152380Y-123778259D02*
X137295237Y-123730640D01*
X137295237Y-123730640D02*
X137390475Y-123635401D01*
X137390475Y-123635401D02*
X137438094Y-123540163D01*
X137438094Y-123540163D02*
X137485713Y-123349687D01*
X137485713Y-123349687D02*
X137485713Y-123206830D01*
X137485713Y-123206830D02*
X137438094Y-123016354D01*
X137438094Y-123016354D02*
X137390475Y-122921116D01*
X137390475Y-122921116D02*
X137295237Y-122825878D01*
X137295237Y-122825878D02*
X137152380Y-122778259D01*
X137152380Y-122778259D02*
X137057142Y-122778259D01*
X137057142Y-122778259D02*
X136914285Y-122825878D01*
X136914285Y-122825878D02*
X136866666Y-122873497D01*
X136485713Y-122873497D02*
X136438094Y-122825878D01*
X136438094Y-122825878D02*
X136342856Y-122778259D01*
X136342856Y-122778259D02*
X136104761Y-122778259D01*
X136104761Y-122778259D02*
X136009523Y-122825878D01*
X136009523Y-122825878D02*
X135961904Y-122873497D01*
X135961904Y-122873497D02*
X135914285Y-122968735D01*
X135914285Y-122968735D02*
X135914285Y-123063973D01*
X135914285Y-123063973D02*
X135961904Y-123206830D01*
X135961904Y-123206830D02*
X136533332Y-123778259D01*
X136533332Y-123778259D02*
X135914285Y-123778259D01*
X146125476Y-102253259D02*
X146458809Y-101777068D01*
X146696904Y-102253259D02*
X146696904Y-101253259D01*
X146696904Y-101253259D02*
X146315952Y-101253259D01*
X146315952Y-101253259D02*
X146220714Y-101300878D01*
X146220714Y-101300878D02*
X146173095Y-101348497D01*
X146173095Y-101348497D02*
X146125476Y-101443735D01*
X146125476Y-101443735D02*
X146125476Y-101586592D01*
X146125476Y-101586592D02*
X146173095Y-101681830D01*
X146173095Y-101681830D02*
X146220714Y-101729449D01*
X146220714Y-101729449D02*
X146315952Y-101777068D01*
X146315952Y-101777068D02*
X146696904Y-101777068D01*
X145173095Y-102253259D02*
X145744523Y-102253259D01*
X145458809Y-102253259D02*
X145458809Y-101253259D01*
X145458809Y-101253259D02*
X145554047Y-101396116D01*
X145554047Y-101396116D02*
X145649285Y-101491354D01*
X145649285Y-101491354D02*
X145744523Y-101538973D01*
X144220714Y-102253259D02*
X144792142Y-102253259D01*
X144506428Y-102253259D02*
X144506428Y-101253259D01*
X144506428Y-101253259D02*
X144601666Y-101396116D01*
X144601666Y-101396116D02*
X144696904Y-101491354D01*
X144696904Y-101491354D02*
X144792142Y-101538973D01*
X151261904Y-110448259D02*
X151261904Y-111257782D01*
X151261904Y-111257782D02*
X151214285Y-111353020D01*
X151214285Y-111353020D02*
X151166666Y-111400640D01*
X151166666Y-111400640D02*
X151071428Y-111448259D01*
X151071428Y-111448259D02*
X150880952Y-111448259D01*
X150880952Y-111448259D02*
X150785714Y-111400640D01*
X150785714Y-111400640D02*
X150738095Y-111353020D01*
X150738095Y-111353020D02*
X150690476Y-111257782D01*
X150690476Y-111257782D02*
X150690476Y-110448259D01*
X149690476Y-111448259D02*
X150261904Y-111448259D01*
X149976190Y-111448259D02*
X149976190Y-110448259D01*
X149976190Y-110448259D02*
X150071428Y-110591116D01*
X150071428Y-110591116D02*
X150166666Y-110686354D01*
X150166666Y-110686354D02*
X150261904Y-110733973D01*
X157390476Y-120128259D02*
X157866666Y-120128259D01*
X157866666Y-120128259D02*
X157866666Y-119128259D01*
X157057142Y-120128259D02*
X157057142Y-119128259D01*
X157057142Y-119604449D02*
X156485714Y-119604449D01*
X156485714Y-120128259D02*
X156485714Y-119128259D01*
X156104761Y-119128259D02*
X155485714Y-119128259D01*
X155485714Y-119128259D02*
X155819047Y-119509211D01*
X155819047Y-119509211D02*
X155676190Y-119509211D01*
X155676190Y-119509211D02*
X155580952Y-119556830D01*
X155580952Y-119556830D02*
X155533333Y-119604449D01*
X155533333Y-119604449D02*
X155485714Y-119699687D01*
X155485714Y-119699687D02*
X155485714Y-119937782D01*
X155485714Y-119937782D02*
X155533333Y-120033020D01*
X155533333Y-120033020D02*
X155580952Y-120080640D01*
X155580952Y-120080640D02*
X155676190Y-120128259D01*
X155676190Y-120128259D02*
X155961904Y-120128259D01*
X155961904Y-120128259D02*
X156057142Y-120080640D01*
X156057142Y-120080640D02*
X156104761Y-120033020D01*
X156866666Y-123683020D02*
X156914285Y-123730640D01*
X156914285Y-123730640D02*
X157057142Y-123778259D01*
X157057142Y-123778259D02*
X157152380Y-123778259D01*
X157152380Y-123778259D02*
X157295237Y-123730640D01*
X157295237Y-123730640D02*
X157390475Y-123635401D01*
X157390475Y-123635401D02*
X157438094Y-123540163D01*
X157438094Y-123540163D02*
X157485713Y-123349687D01*
X157485713Y-123349687D02*
X157485713Y-123206830D01*
X157485713Y-123206830D02*
X157438094Y-123016354D01*
X157438094Y-123016354D02*
X157390475Y-122921116D01*
X157390475Y-122921116D02*
X157295237Y-122825878D01*
X157295237Y-122825878D02*
X157152380Y-122778259D01*
X157152380Y-122778259D02*
X157057142Y-122778259D01*
X157057142Y-122778259D02*
X156914285Y-122825878D01*
X156914285Y-122825878D02*
X156866666Y-122873497D01*
X156533332Y-122778259D02*
X155914285Y-122778259D01*
X155914285Y-122778259D02*
X156247618Y-123159211D01*
X156247618Y-123159211D02*
X156104761Y-123159211D01*
X156104761Y-123159211D02*
X156009523Y-123206830D01*
X156009523Y-123206830D02*
X155961904Y-123254449D01*
X155961904Y-123254449D02*
X155914285Y-123349687D01*
X155914285Y-123349687D02*
X155914285Y-123587782D01*
X155914285Y-123587782D02*
X155961904Y-123683020D01*
X155961904Y-123683020D02*
X156009523Y-123730640D01*
X156009523Y-123730640D02*
X156104761Y-123778259D01*
X156104761Y-123778259D02*
X156390475Y-123778259D01*
X156390475Y-123778259D02*
X156485713Y-123730640D01*
X156485713Y-123730640D02*
X156533332Y-123683020D01*
X157757856Y-102158020D02*
X157805475Y-102205640D01*
X157805475Y-102205640D02*
X157948332Y-102253259D01*
X157948332Y-102253259D02*
X158043570Y-102253259D01*
X158043570Y-102253259D02*
X158186427Y-102205640D01*
X158186427Y-102205640D02*
X158281665Y-102110401D01*
X158281665Y-102110401D02*
X158329284Y-102015163D01*
X158329284Y-102015163D02*
X158376903Y-101824687D01*
X158376903Y-101824687D02*
X158376903Y-101681830D01*
X158376903Y-101681830D02*
X158329284Y-101491354D01*
X158329284Y-101491354D02*
X158281665Y-101396116D01*
X158281665Y-101396116D02*
X158186427Y-101300878D01*
X158186427Y-101300878D02*
X158043570Y-101253259D01*
X158043570Y-101253259D02*
X157948332Y-101253259D01*
X157948332Y-101253259D02*
X157805475Y-101300878D01*
X157805475Y-101300878D02*
X157757856Y-101348497D01*
X156900713Y-101253259D02*
X157091189Y-101253259D01*
X157091189Y-101253259D02*
X157186427Y-101300878D01*
X157186427Y-101300878D02*
X157234046Y-101348497D01*
X157234046Y-101348497D02*
X157329284Y-101491354D01*
X157329284Y-101491354D02*
X157376903Y-101681830D01*
X157376903Y-101681830D02*
X157376903Y-102062782D01*
X157376903Y-102062782D02*
X157329284Y-102158020D01*
X157329284Y-102158020D02*
X157281665Y-102205640D01*
X157281665Y-102205640D02*
X157186427Y-102253259D01*
X157186427Y-102253259D02*
X156995951Y-102253259D01*
X156995951Y-102253259D02*
X156900713Y-102205640D01*
X156900713Y-102205640D02*
X156853094Y-102158020D01*
X156853094Y-102158020D02*
X156805475Y-102062782D01*
X156805475Y-102062782D02*
X156805475Y-101824687D01*
X156805475Y-101824687D02*
X156853094Y-101729449D01*
X156853094Y-101729449D02*
X156900713Y-101681830D01*
X156900713Y-101681830D02*
X156995951Y-101634211D01*
X156995951Y-101634211D02*
X157186427Y-101634211D01*
X157186427Y-101634211D02*
X157281665Y-101681830D01*
X157281665Y-101681830D02*
X157329284Y-101729449D01*
X157329284Y-101729449D02*
X157376903Y-101824687D01*
X175390476Y-111128259D02*
X175866666Y-111128259D01*
X175866666Y-111128259D02*
X175866666Y-110128259D01*
X175057142Y-111128259D02*
X175057142Y-110128259D01*
X175057142Y-110604449D02*
X174485714Y-110604449D01*
X174485714Y-111128259D02*
X174485714Y-110128259D01*
X173533333Y-110128259D02*
X174009523Y-110128259D01*
X174009523Y-110128259D02*
X174057142Y-110604449D01*
X174057142Y-110604449D02*
X174009523Y-110556830D01*
X174009523Y-110556830D02*
X173914285Y-110509211D01*
X173914285Y-110509211D02*
X173676190Y-110509211D01*
X173676190Y-110509211D02*
X173580952Y-110556830D01*
X173580952Y-110556830D02*
X173533333Y-110604449D01*
X173533333Y-110604449D02*
X173485714Y-110699687D01*
X173485714Y-110699687D02*
X173485714Y-110937782D01*
X173485714Y-110937782D02*
X173533333Y-111033020D01*
X173533333Y-111033020D02*
X173580952Y-111080640D01*
X173580952Y-111080640D02*
X173676190Y-111128259D01*
X173676190Y-111128259D02*
X173914285Y-111128259D01*
X173914285Y-111128259D02*
X174009523Y-111080640D01*
X174009523Y-111080640D02*
X174057142Y-111033020D01*
X174866666Y-114683020D02*
X174914285Y-114730640D01*
X174914285Y-114730640D02*
X175057142Y-114778259D01*
X175057142Y-114778259D02*
X175152380Y-114778259D01*
X175152380Y-114778259D02*
X175295237Y-114730640D01*
X175295237Y-114730640D02*
X175390475Y-114635401D01*
X175390475Y-114635401D02*
X175438094Y-114540163D01*
X175438094Y-114540163D02*
X175485713Y-114349687D01*
X175485713Y-114349687D02*
X175485713Y-114206830D01*
X175485713Y-114206830D02*
X175438094Y-114016354D01*
X175438094Y-114016354D02*
X175390475Y-113921116D01*
X175390475Y-113921116D02*
X175295237Y-113825878D01*
X175295237Y-113825878D02*
X175152380Y-113778259D01*
X175152380Y-113778259D02*
X175057142Y-113778259D01*
X175057142Y-113778259D02*
X174914285Y-113825878D01*
X174914285Y-113825878D02*
X174866666Y-113873497D01*
X173961904Y-113778259D02*
X174438094Y-113778259D01*
X174438094Y-113778259D02*
X174485713Y-114254449D01*
X174485713Y-114254449D02*
X174438094Y-114206830D01*
X174438094Y-114206830D02*
X174342856Y-114159211D01*
X174342856Y-114159211D02*
X174104761Y-114159211D01*
X174104761Y-114159211D02*
X174009523Y-114206830D01*
X174009523Y-114206830D02*
X173961904Y-114254449D01*
X173961904Y-114254449D02*
X173914285Y-114349687D01*
X173914285Y-114349687D02*
X173914285Y-114587782D01*
X173914285Y-114587782D02*
X173961904Y-114683020D01*
X173961904Y-114683020D02*
X174009523Y-114730640D01*
X174009523Y-114730640D02*
X174104761Y-114778259D01*
X174104761Y-114778259D02*
X174342856Y-114778259D01*
X174342856Y-114778259D02*
X174438094Y-114730640D01*
X174438094Y-114730640D02*
X174485713Y-114683020D01*
X175390476Y-129128258D02*
X175866666Y-129128258D01*
X175866666Y-129128258D02*
X175866666Y-128128258D01*
X175057142Y-129128258D02*
X175057142Y-128128258D01*
X175057142Y-128604448D02*
X174485714Y-128604448D01*
X174485714Y-129128258D02*
X174485714Y-128128258D01*
X173580952Y-128461591D02*
X173580952Y-129128258D01*
X173819047Y-128080639D02*
X174057142Y-128794924D01*
X174057142Y-128794924D02*
X173438095Y-128794924D01*
X174866666Y-132683020D02*
X174914285Y-132730640D01*
X174914285Y-132730640D02*
X175057142Y-132778259D01*
X175057142Y-132778259D02*
X175152380Y-132778259D01*
X175152380Y-132778259D02*
X175295237Y-132730640D01*
X175295237Y-132730640D02*
X175390475Y-132635401D01*
X175390475Y-132635401D02*
X175438094Y-132540163D01*
X175438094Y-132540163D02*
X175485713Y-132349687D01*
X175485713Y-132349687D02*
X175485713Y-132206830D01*
X175485713Y-132206830D02*
X175438094Y-132016354D01*
X175438094Y-132016354D02*
X175390475Y-131921116D01*
X175390475Y-131921116D02*
X175295237Y-131825878D01*
X175295237Y-131825878D02*
X175152380Y-131778259D01*
X175152380Y-131778259D02*
X175057142Y-131778259D01*
X175057142Y-131778259D02*
X174914285Y-131825878D01*
X174914285Y-131825878D02*
X174866666Y-131873497D01*
X174009523Y-132111592D02*
X174009523Y-132778259D01*
X174247618Y-131730640D02*
X174485713Y-132444925D01*
X174485713Y-132444925D02*
X173866666Y-132444925D01*
X119880327Y-136953259D02*
X119642232Y-137953259D01*
X119642232Y-137953259D02*
X119451756Y-137238973D01*
X119451756Y-137238973D02*
X119261280Y-137953259D01*
X119261280Y-137953259D02*
X119023185Y-136953259D01*
X118451756Y-136953259D02*
X118261280Y-136953259D01*
X118261280Y-136953259D02*
X118166042Y-137000878D01*
X118166042Y-137000878D02*
X118070804Y-137096116D01*
X118070804Y-137096116D02*
X118023185Y-137286592D01*
X118023185Y-137286592D02*
X118023185Y-137619925D01*
X118023185Y-137619925D02*
X118070804Y-137810401D01*
X118070804Y-137810401D02*
X118166042Y-137905640D01*
X118166042Y-137905640D02*
X118261280Y-137953259D01*
X118261280Y-137953259D02*
X118451756Y-137953259D01*
X118451756Y-137953259D02*
X118546994Y-137905640D01*
X118546994Y-137905640D02*
X118642232Y-137810401D01*
X118642232Y-137810401D02*
X118689851Y-137619925D01*
X118689851Y-137619925D02*
X118689851Y-137286592D01*
X118689851Y-137286592D02*
X118642232Y-137096116D01*
X118642232Y-137096116D02*
X118546994Y-137000878D01*
X118546994Y-137000878D02*
X118451756Y-136953259D01*
X117404137Y-136953259D02*
X117213661Y-136953259D01*
X117213661Y-136953259D02*
X117118423Y-137000878D01*
X117118423Y-137000878D02*
X117023185Y-137096116D01*
X117023185Y-137096116D02*
X116975566Y-137286592D01*
X116975566Y-137286592D02*
X116975566Y-137619925D01*
X116975566Y-137619925D02*
X117023185Y-137810401D01*
X117023185Y-137810401D02*
X117118423Y-137905640D01*
X117118423Y-137905640D02*
X117213661Y-137953259D01*
X117213661Y-137953259D02*
X117404137Y-137953259D01*
X117404137Y-137953259D02*
X117499375Y-137905640D01*
X117499375Y-137905640D02*
X117594613Y-137810401D01*
X117594613Y-137810401D02*
X117642232Y-137619925D01*
X117642232Y-137619925D02*
X117642232Y-137286592D01*
X117642232Y-137286592D02*
X117594613Y-137096116D01*
X117594613Y-137096116D02*
X117499375Y-137000878D01*
X117499375Y-137000878D02*
X117404137Y-136953259D01*
X116546994Y-137953259D02*
X116546994Y-136953259D01*
X116546994Y-136953259D02*
X116308899Y-136953259D01*
X116308899Y-136953259D02*
X116166042Y-137000878D01*
X116166042Y-137000878D02*
X116070804Y-137096116D01*
X116070804Y-137096116D02*
X116023185Y-137191354D01*
X116023185Y-137191354D02*
X115975566Y-137381830D01*
X115975566Y-137381830D02*
X115975566Y-137524687D01*
X115975566Y-137524687D02*
X116023185Y-137715163D01*
X116023185Y-137715163D02*
X116070804Y-137810401D01*
X116070804Y-137810401D02*
X116166042Y-137905640D01*
X116166042Y-137905640D02*
X116308899Y-137953259D01*
X116308899Y-137953259D02*
X116546994Y-137953259D01*
X115356518Y-137477068D02*
X115356518Y-137953259D01*
X115689851Y-136953259D02*
X115356518Y-137477068D01*
X115356518Y-137477068D02*
X115023185Y-136953259D01*
X113927946Y-137953259D02*
X113927946Y-136953259D01*
X113832708Y-137572306D02*
X113546994Y-137953259D01*
X113546994Y-137286592D02*
X113927946Y-137667544D01*
X112737470Y-137905640D02*
X112832708Y-137953259D01*
X112832708Y-137953259D02*
X113023184Y-137953259D01*
X113023184Y-137953259D02*
X113118422Y-137905640D01*
X113118422Y-137905640D02*
X113166041Y-137810401D01*
X113166041Y-137810401D02*
X113166041Y-137429449D01*
X113166041Y-137429449D02*
X113118422Y-137334211D01*
X113118422Y-137334211D02*
X113023184Y-137286592D01*
X113023184Y-137286592D02*
X112832708Y-137286592D01*
X112832708Y-137286592D02*
X112737470Y-137334211D01*
X112737470Y-137334211D02*
X112689851Y-137429449D01*
X112689851Y-137429449D02*
X112689851Y-137524687D01*
X112689851Y-137524687D02*
X113166041Y-137619925D01*
X112356517Y-137286592D02*
X112118422Y-137953259D01*
X111880327Y-137286592D02*
X112118422Y-137953259D01*
X112118422Y-137953259D02*
X112213660Y-138191354D01*
X112213660Y-138191354D02*
X112261279Y-138238973D01*
X112261279Y-138238973D02*
X112356517Y-138286592D01*
X110737469Y-137953259D02*
X110737469Y-136953259D01*
X110737469Y-137334211D02*
X110642231Y-137286592D01*
X110642231Y-137286592D02*
X110451755Y-137286592D01*
X110451755Y-137286592D02*
X110356517Y-137334211D01*
X110356517Y-137334211D02*
X110308898Y-137381830D01*
X110308898Y-137381830D02*
X110261279Y-137477068D01*
X110261279Y-137477068D02*
X110261279Y-137762782D01*
X110261279Y-137762782D02*
X110308898Y-137858020D01*
X110308898Y-137858020D02*
X110356517Y-137905640D01*
X110356517Y-137905640D02*
X110451755Y-137953259D01*
X110451755Y-137953259D02*
X110642231Y-137953259D01*
X110642231Y-137953259D02*
X110737469Y-137905640D01*
X109689850Y-137953259D02*
X109785088Y-137905640D01*
X109785088Y-137905640D02*
X109832707Y-137858020D01*
X109832707Y-137858020D02*
X109880326Y-137762782D01*
X109880326Y-137762782D02*
X109880326Y-137477068D01*
X109880326Y-137477068D02*
X109832707Y-137381830D01*
X109832707Y-137381830D02*
X109785088Y-137334211D01*
X109785088Y-137334211D02*
X109689850Y-137286592D01*
X109689850Y-137286592D02*
X109546993Y-137286592D01*
X109546993Y-137286592D02*
X109451755Y-137334211D01*
X109451755Y-137334211D02*
X109404136Y-137381830D01*
X109404136Y-137381830D02*
X109356517Y-137477068D01*
X109356517Y-137477068D02*
X109356517Y-137762782D01*
X109356517Y-137762782D02*
X109404136Y-137858020D01*
X109404136Y-137858020D02*
X109451755Y-137905640D01*
X109451755Y-137905640D02*
X109546993Y-137953259D01*
X109546993Y-137953259D02*
X109689850Y-137953259D01*
X108499374Y-137953259D02*
X108499374Y-137429449D01*
X108499374Y-137429449D02*
X108546993Y-137334211D01*
X108546993Y-137334211D02*
X108642231Y-137286592D01*
X108642231Y-137286592D02*
X108832707Y-137286592D01*
X108832707Y-137286592D02*
X108927945Y-137334211D01*
X108499374Y-137905640D02*
X108594612Y-137953259D01*
X108594612Y-137953259D02*
X108832707Y-137953259D01*
X108832707Y-137953259D02*
X108927945Y-137905640D01*
X108927945Y-137905640D02*
X108975564Y-137810401D01*
X108975564Y-137810401D02*
X108975564Y-137715163D01*
X108975564Y-137715163D02*
X108927945Y-137619925D01*
X108927945Y-137619925D02*
X108832707Y-137572306D01*
X108832707Y-137572306D02*
X108594612Y-137572306D01*
X108594612Y-137572306D02*
X108499374Y-137524687D01*
X108023183Y-137953259D02*
X108023183Y-137286592D01*
X108023183Y-137477068D02*
X107975564Y-137381830D01*
X107975564Y-137381830D02*
X107927945Y-137334211D01*
X107927945Y-137334211D02*
X107832707Y-137286592D01*
X107832707Y-137286592D02*
X107737469Y-137286592D01*
X106975564Y-137953259D02*
X106975564Y-136953259D01*
X106975564Y-137905640D02*
X107070802Y-137953259D01*
X107070802Y-137953259D02*
X107261278Y-137953259D01*
X107261278Y-137953259D02*
X107356516Y-137905640D01*
X107356516Y-137905640D02*
X107404135Y-137858020D01*
X107404135Y-137858020D02*
X107451754Y-137762782D01*
X107451754Y-137762782D02*
X107451754Y-137477068D01*
X107451754Y-137477068D02*
X107404135Y-137381830D01*
X107404135Y-137381830D02*
X107356516Y-137334211D01*
X107356516Y-137334211D02*
X107261278Y-137286592D01*
X107261278Y-137286592D02*
X107070802Y-137286592D01*
X107070802Y-137286592D02*
X106975564Y-137334211D01*
X105261278Y-137953259D02*
X105737468Y-137953259D01*
X105737468Y-137953259D02*
X105737468Y-136953259D01*
X104927944Y-137953259D02*
X104927944Y-136953259D01*
X104927944Y-137429449D02*
X104356516Y-137429449D01*
X104356516Y-137953259D02*
X104356516Y-136953259D01*
X119356517Y-139753259D02*
X119356517Y-139086592D01*
X119356517Y-139277068D02*
X119308898Y-139181830D01*
X119308898Y-139181830D02*
X119261279Y-139134211D01*
X119261279Y-139134211D02*
X119166041Y-139086592D01*
X119166041Y-139086592D02*
X119070803Y-139086592D01*
X118356517Y-139705640D02*
X118451755Y-139753259D01*
X118451755Y-139753259D02*
X118642231Y-139753259D01*
X118642231Y-139753259D02*
X118737469Y-139705640D01*
X118737469Y-139705640D02*
X118785088Y-139610401D01*
X118785088Y-139610401D02*
X118785088Y-139229449D01*
X118785088Y-139229449D02*
X118737469Y-139134211D01*
X118737469Y-139134211D02*
X118642231Y-139086592D01*
X118642231Y-139086592D02*
X118451755Y-139086592D01*
X118451755Y-139086592D02*
X118356517Y-139134211D01*
X118356517Y-139134211D02*
X118308898Y-139229449D01*
X118308898Y-139229449D02*
X118308898Y-139324687D01*
X118308898Y-139324687D02*
X118785088Y-139419925D01*
X117975564Y-139086592D02*
X117737469Y-139753259D01*
X117737469Y-139753259D02*
X117499374Y-139086592D01*
X116404135Y-139467544D02*
X115927945Y-139467544D01*
X116499373Y-139753259D02*
X116166040Y-138753259D01*
X116166040Y-138753259D02*
X115832707Y-139753259D01*
X114023182Y-138848497D02*
X113975563Y-138800878D01*
X113975563Y-138800878D02*
X113880325Y-138753259D01*
X113880325Y-138753259D02*
X113642230Y-138753259D01*
X113642230Y-138753259D02*
X113546992Y-138800878D01*
X113546992Y-138800878D02*
X113499373Y-138848497D01*
X113499373Y-138848497D02*
X113451754Y-138943735D01*
X113451754Y-138943735D02*
X113451754Y-139038973D01*
X113451754Y-139038973D02*
X113499373Y-139181830D01*
X113499373Y-139181830D02*
X114070801Y-139753259D01*
X114070801Y-139753259D02*
X113451754Y-139753259D01*
X112832706Y-138753259D02*
X112737468Y-138753259D01*
X112737468Y-138753259D02*
X112642230Y-138800878D01*
X112642230Y-138800878D02*
X112594611Y-138848497D01*
X112594611Y-138848497D02*
X112546992Y-138943735D01*
X112546992Y-138943735D02*
X112499373Y-139134211D01*
X112499373Y-139134211D02*
X112499373Y-139372306D01*
X112499373Y-139372306D02*
X112546992Y-139562782D01*
X112546992Y-139562782D02*
X112594611Y-139658020D01*
X112594611Y-139658020D02*
X112642230Y-139705640D01*
X112642230Y-139705640D02*
X112737468Y-139753259D01*
X112737468Y-139753259D02*
X112832706Y-139753259D01*
X112832706Y-139753259D02*
X112927944Y-139705640D01*
X112927944Y-139705640D02*
X112975563Y-139658020D01*
X112975563Y-139658020D02*
X113023182Y-139562782D01*
X113023182Y-139562782D02*
X113070801Y-139372306D01*
X113070801Y-139372306D02*
X113070801Y-139134211D01*
X113070801Y-139134211D02*
X113023182Y-138943735D01*
X113023182Y-138943735D02*
X112975563Y-138848497D01*
X112975563Y-138848497D02*
X112927944Y-138800878D01*
X112927944Y-138800878D02*
X112832706Y-138753259D01*
X112118420Y-138848497D02*
X112070801Y-138800878D01*
X112070801Y-138800878D02*
X111975563Y-138753259D01*
X111975563Y-138753259D02*
X111737468Y-138753259D01*
X111737468Y-138753259D02*
X111642230Y-138800878D01*
X111642230Y-138800878D02*
X111594611Y-138848497D01*
X111594611Y-138848497D02*
X111546992Y-138943735D01*
X111546992Y-138943735D02*
X111546992Y-139038973D01*
X111546992Y-139038973D02*
X111594611Y-139181830D01*
X111594611Y-139181830D02*
X112166039Y-139753259D01*
X112166039Y-139753259D02*
X111546992Y-139753259D01*
X110689849Y-138753259D02*
X110880325Y-138753259D01*
X110880325Y-138753259D02*
X110975563Y-138800878D01*
X110975563Y-138800878D02*
X111023182Y-138848497D01*
X111023182Y-138848497D02*
X111118420Y-138991354D01*
X111118420Y-138991354D02*
X111166039Y-139181830D01*
X111166039Y-139181830D02*
X111166039Y-139562782D01*
X111166039Y-139562782D02*
X111118420Y-139658020D01*
X111118420Y-139658020D02*
X111070801Y-139705640D01*
X111070801Y-139705640D02*
X110975563Y-139753259D01*
X110975563Y-139753259D02*
X110785087Y-139753259D01*
X110785087Y-139753259D02*
X110689849Y-139705640D01*
X110689849Y-139705640D02*
X110642230Y-139658020D01*
X110642230Y-139658020D02*
X110594611Y-139562782D01*
X110594611Y-139562782D02*
X110594611Y-139324687D01*
X110594611Y-139324687D02*
X110642230Y-139229449D01*
X110642230Y-139229449D02*
X110689849Y-139181830D01*
X110689849Y-139181830D02*
X110785087Y-139134211D01*
X110785087Y-139134211D02*
X110975563Y-139134211D01*
X110975563Y-139134211D02*
X111070801Y-139181830D01*
X111070801Y-139181830D02*
X111118420Y-139229449D01*
X111118420Y-139229449D02*
X111166039Y-139324687D01*
X110166039Y-139372306D02*
X109404135Y-139372306D01*
X108737468Y-138753259D02*
X108642230Y-138753259D01*
X108642230Y-138753259D02*
X108546992Y-138800878D01*
X108546992Y-138800878D02*
X108499373Y-138848497D01*
X108499373Y-138848497D02*
X108451754Y-138943735D01*
X108451754Y-138943735D02*
X108404135Y-139134211D01*
X108404135Y-139134211D02*
X108404135Y-139372306D01*
X108404135Y-139372306D02*
X108451754Y-139562782D01*
X108451754Y-139562782D02*
X108499373Y-139658020D01*
X108499373Y-139658020D02*
X108546992Y-139705640D01*
X108546992Y-139705640D02*
X108642230Y-139753259D01*
X108642230Y-139753259D02*
X108737468Y-139753259D01*
X108737468Y-139753259D02*
X108832706Y-139705640D01*
X108832706Y-139705640D02*
X108880325Y-139658020D01*
X108880325Y-139658020D02*
X108927944Y-139562782D01*
X108927944Y-139562782D02*
X108975563Y-139372306D01*
X108975563Y-139372306D02*
X108975563Y-139134211D01*
X108975563Y-139134211D02*
X108927944Y-138943735D01*
X108927944Y-138943735D02*
X108880325Y-138848497D01*
X108880325Y-138848497D02*
X108832706Y-138800878D01*
X108832706Y-138800878D02*
X108737468Y-138753259D01*
X107927944Y-139753259D02*
X107737468Y-139753259D01*
X107737468Y-139753259D02*
X107642230Y-139705640D01*
X107642230Y-139705640D02*
X107594611Y-139658020D01*
X107594611Y-139658020D02*
X107499373Y-139515163D01*
X107499373Y-139515163D02*
X107451754Y-139324687D01*
X107451754Y-139324687D02*
X107451754Y-138943735D01*
X107451754Y-138943735D02*
X107499373Y-138848497D01*
X107499373Y-138848497D02*
X107546992Y-138800878D01*
X107546992Y-138800878D02*
X107642230Y-138753259D01*
X107642230Y-138753259D02*
X107832706Y-138753259D01*
X107832706Y-138753259D02*
X107927944Y-138800878D01*
X107927944Y-138800878D02*
X107975563Y-138848497D01*
X107975563Y-138848497D02*
X108023182Y-138943735D01*
X108023182Y-138943735D02*
X108023182Y-139181830D01*
X108023182Y-139181830D02*
X107975563Y-139277068D01*
X107975563Y-139277068D02*
X107927944Y-139324687D01*
X107927944Y-139324687D02*
X107832706Y-139372306D01*
X107832706Y-139372306D02*
X107642230Y-139372306D01*
X107642230Y-139372306D02*
X107546992Y-139324687D01*
X107546992Y-139324687D02*
X107499373Y-139277068D01*
X107499373Y-139277068D02*
X107451754Y-139181830D01*
X107023182Y-139372306D02*
X106261278Y-139372306D01*
X105832706Y-138848497D02*
X105785087Y-138800878D01*
X105785087Y-138800878D02*
X105689849Y-138753259D01*
X105689849Y-138753259D02*
X105451754Y-138753259D01*
X105451754Y-138753259D02*
X105356516Y-138800878D01*
X105356516Y-138800878D02*
X105308897Y-138848497D01*
X105308897Y-138848497D02*
X105261278Y-138943735D01*
X105261278Y-138943735D02*
X105261278Y-139038973D01*
X105261278Y-139038973D02*
X105308897Y-139181830D01*
X105308897Y-139181830D02*
X105880325Y-139753259D01*
X105880325Y-139753259D02*
X105261278Y-139753259D01*
X104927944Y-138753259D02*
X104261278Y-138753259D01*
X104261278Y-138753259D02*
X104689849Y-139753259D01*
X121648259Y-118633333D02*
X121172068Y-118300000D01*
X121648259Y-118061905D02*
X120648259Y-118061905D01*
X120648259Y-118061905D02*
X120648259Y-118442857D01*
X120648259Y-118442857D02*
X120695878Y-118538095D01*
X120695878Y-118538095D02*
X120743497Y-118585714D01*
X120743497Y-118585714D02*
X120838735Y-118633333D01*
X120838735Y-118633333D02*
X120981592Y-118633333D01*
X120981592Y-118633333D02*
X121076830Y-118585714D01*
X121076830Y-118585714D02*
X121124449Y-118538095D01*
X121124449Y-118538095D02*
X121172068Y-118442857D01*
X121172068Y-118442857D02*
X121172068Y-118061905D01*
X120743497Y-119014286D02*
X120695878Y-119061905D01*
X120695878Y-119061905D02*
X120648259Y-119157143D01*
X120648259Y-119157143D02*
X120648259Y-119395238D01*
X120648259Y-119395238D02*
X120695878Y-119490476D01*
X120695878Y-119490476D02*
X120743497Y-119538095D01*
X120743497Y-119538095D02*
X120838735Y-119585714D01*
X120838735Y-119585714D02*
X120933973Y-119585714D01*
X120933973Y-119585714D02*
X121076830Y-119538095D01*
X121076830Y-119538095D02*
X121648259Y-118966667D01*
X121648259Y-118966667D02*
X121648259Y-119585714D01*
X121648259Y-124033332D02*
X121172068Y-123699999D01*
X121648259Y-123461904D02*
X120648259Y-123461904D01*
X120648259Y-123461904D02*
X120648259Y-123842856D01*
X120648259Y-123842856D02*
X120695878Y-123938094D01*
X120695878Y-123938094D02*
X120743497Y-123985713D01*
X120743497Y-123985713D02*
X120838735Y-124033332D01*
X120838735Y-124033332D02*
X120981592Y-124033332D01*
X120981592Y-124033332D02*
X121076830Y-123985713D01*
X121076830Y-123985713D02*
X121124449Y-123938094D01*
X121124449Y-123938094D02*
X121172068Y-123842856D01*
X121172068Y-123842856D02*
X121172068Y-123461904D01*
X121648259Y-124985713D02*
X121648259Y-124414285D01*
X121648259Y-124699999D02*
X120648259Y-124699999D01*
X120648259Y-124699999D02*
X120791116Y-124604761D01*
X120791116Y-124604761D02*
X120886354Y-124509523D01*
X120886354Y-124509523D02*
X120933973Y-124414285D01*
X141648259Y-118633333D02*
X141172068Y-118300000D01*
X141648259Y-118061905D02*
X140648259Y-118061905D01*
X140648259Y-118061905D02*
X140648259Y-118442857D01*
X140648259Y-118442857D02*
X140695878Y-118538095D01*
X140695878Y-118538095D02*
X140743497Y-118585714D01*
X140743497Y-118585714D02*
X140838735Y-118633333D01*
X140838735Y-118633333D02*
X140981592Y-118633333D01*
X140981592Y-118633333D02*
X141076830Y-118585714D01*
X141076830Y-118585714D02*
X141124449Y-118538095D01*
X141124449Y-118538095D02*
X141172068Y-118442857D01*
X141172068Y-118442857D02*
X141172068Y-118061905D01*
X140981592Y-119490476D02*
X141648259Y-119490476D01*
X140600640Y-119252381D02*
X141314925Y-119014286D01*
X141314925Y-119014286D02*
X141314925Y-119633333D01*
X141648259Y-124033332D02*
X141172068Y-123699999D01*
X141648259Y-123461904D02*
X140648259Y-123461904D01*
X140648259Y-123461904D02*
X140648259Y-123842856D01*
X140648259Y-123842856D02*
X140695878Y-123938094D01*
X140695878Y-123938094D02*
X140743497Y-123985713D01*
X140743497Y-123985713D02*
X140838735Y-124033332D01*
X140838735Y-124033332D02*
X140981592Y-124033332D01*
X140981592Y-124033332D02*
X141076830Y-123985713D01*
X141076830Y-123985713D02*
X141124449Y-123938094D01*
X141124449Y-123938094D02*
X141172068Y-123842856D01*
X141172068Y-123842856D02*
X141172068Y-123461904D01*
X140648259Y-124366666D02*
X140648259Y-124985713D01*
X140648259Y-124985713D02*
X141029211Y-124652380D01*
X141029211Y-124652380D02*
X141029211Y-124795237D01*
X141029211Y-124795237D02*
X141076830Y-124890475D01*
X141076830Y-124890475D02*
X141124449Y-124938094D01*
X141124449Y-124938094D02*
X141219687Y-124985713D01*
X141219687Y-124985713D02*
X141457782Y-124985713D01*
X141457782Y-124985713D02*
X141553020Y-124938094D01*
X141553020Y-124938094D02*
X141600640Y-124890475D01*
X141600640Y-124890475D02*
X141648259Y-124795237D01*
X141648259Y-124795237D02*
X141648259Y-124509523D01*
X141648259Y-124509523D02*
X141600640Y-124414285D01*
X141600640Y-124414285D02*
X141553020Y-124366666D01*
X161648259Y-118633333D02*
X161172068Y-118300000D01*
X161648259Y-118061905D02*
X160648259Y-118061905D01*
X160648259Y-118061905D02*
X160648259Y-118442857D01*
X160648259Y-118442857D02*
X160695878Y-118538095D01*
X160695878Y-118538095D02*
X160743497Y-118585714D01*
X160743497Y-118585714D02*
X160838735Y-118633333D01*
X160838735Y-118633333D02*
X160981592Y-118633333D01*
X160981592Y-118633333D02*
X161076830Y-118585714D01*
X161076830Y-118585714D02*
X161124449Y-118538095D01*
X161124449Y-118538095D02*
X161172068Y-118442857D01*
X161172068Y-118442857D02*
X161172068Y-118061905D01*
X160648259Y-119490476D02*
X160648259Y-119300000D01*
X160648259Y-119300000D02*
X160695878Y-119204762D01*
X160695878Y-119204762D02*
X160743497Y-119157143D01*
X160743497Y-119157143D02*
X160886354Y-119061905D01*
X160886354Y-119061905D02*
X161076830Y-119014286D01*
X161076830Y-119014286D02*
X161457782Y-119014286D01*
X161457782Y-119014286D02*
X161553020Y-119061905D01*
X161553020Y-119061905D02*
X161600640Y-119109524D01*
X161600640Y-119109524D02*
X161648259Y-119204762D01*
X161648259Y-119204762D02*
X161648259Y-119395238D01*
X161648259Y-119395238D02*
X161600640Y-119490476D01*
X161600640Y-119490476D02*
X161553020Y-119538095D01*
X161553020Y-119538095D02*
X161457782Y-119585714D01*
X161457782Y-119585714D02*
X161219687Y-119585714D01*
X161219687Y-119585714D02*
X161124449Y-119538095D01*
X161124449Y-119538095D02*
X161076830Y-119490476D01*
X161076830Y-119490476D02*
X161029211Y-119395238D01*
X161029211Y-119395238D02*
X161029211Y-119204762D01*
X161029211Y-119204762D02*
X161076830Y-119109524D01*
X161076830Y-119109524D02*
X161124449Y-119061905D01*
X161124449Y-119061905D02*
X161219687Y-119014286D01*
X161648259Y-124033332D02*
X161172068Y-123699999D01*
X161648259Y-123461904D02*
X160648259Y-123461904D01*
X160648259Y-123461904D02*
X160648259Y-123842856D01*
X160648259Y-123842856D02*
X160695878Y-123938094D01*
X160695878Y-123938094D02*
X160743497Y-123985713D01*
X160743497Y-123985713D02*
X160838735Y-124033332D01*
X160838735Y-124033332D02*
X160981592Y-124033332D01*
X160981592Y-124033332D02*
X161076830Y-123985713D01*
X161076830Y-123985713D02*
X161124449Y-123938094D01*
X161124449Y-123938094D02*
X161172068Y-123842856D01*
X161172068Y-123842856D02*
X161172068Y-123461904D01*
X160648259Y-124938094D02*
X160648259Y-124461904D01*
X160648259Y-124461904D02*
X161124449Y-124414285D01*
X161124449Y-124414285D02*
X161076830Y-124461904D01*
X161076830Y-124461904D02*
X161029211Y-124557142D01*
X161029211Y-124557142D02*
X161029211Y-124795237D01*
X161029211Y-124795237D02*
X161076830Y-124890475D01*
X161076830Y-124890475D02*
X161124449Y-124938094D01*
X161124449Y-124938094D02*
X161219687Y-124985713D01*
X161219687Y-124985713D02*
X161457782Y-124985713D01*
X161457782Y-124985713D02*
X161553020Y-124938094D01*
X161553020Y-124938094D02*
X161600640Y-124890475D01*
X161600640Y-124890475D02*
X161648259Y-124795237D01*
X161648259Y-124795237D02*
X161648259Y-124557142D01*
X161648259Y-124557142D02*
X161600640Y-124461904D01*
X161600640Y-124461904D02*
X161553020Y-124414285D01*
X179648259Y-109157142D02*
X179172068Y-108823809D01*
X179648259Y-108585714D02*
X178648259Y-108585714D01*
X178648259Y-108585714D02*
X178648259Y-108966666D01*
X178648259Y-108966666D02*
X178695878Y-109061904D01*
X178695878Y-109061904D02*
X178743497Y-109109523D01*
X178743497Y-109109523D02*
X178838735Y-109157142D01*
X178838735Y-109157142D02*
X178981592Y-109157142D01*
X178981592Y-109157142D02*
X179076830Y-109109523D01*
X179076830Y-109109523D02*
X179124449Y-109061904D01*
X179124449Y-109061904D02*
X179172068Y-108966666D01*
X179172068Y-108966666D02*
X179172068Y-108585714D01*
X179648259Y-110109523D02*
X179648259Y-109538095D01*
X179648259Y-109823809D02*
X178648259Y-109823809D01*
X178648259Y-109823809D02*
X178791116Y-109728571D01*
X178791116Y-109728571D02*
X178886354Y-109633333D01*
X178886354Y-109633333D02*
X178933973Y-109538095D01*
X178648259Y-110728571D02*
X178648259Y-110823809D01*
X178648259Y-110823809D02*
X178695878Y-110919047D01*
X178695878Y-110919047D02*
X178743497Y-110966666D01*
X178743497Y-110966666D02*
X178838735Y-111014285D01*
X178838735Y-111014285D02*
X179029211Y-111061904D01*
X179029211Y-111061904D02*
X179267306Y-111061904D01*
X179267306Y-111061904D02*
X179457782Y-111014285D01*
X179457782Y-111014285D02*
X179553020Y-110966666D01*
X179553020Y-110966666D02*
X179600640Y-110919047D01*
X179600640Y-110919047D02*
X179648259Y-110823809D01*
X179648259Y-110823809D02*
X179648259Y-110728571D01*
X179648259Y-110728571D02*
X179600640Y-110633333D01*
X179600640Y-110633333D02*
X179553020Y-110585714D01*
X179553020Y-110585714D02*
X179457782Y-110538095D01*
X179457782Y-110538095D02*
X179267306Y-110490476D01*
X179267306Y-110490476D02*
X179029211Y-110490476D01*
X179029211Y-110490476D02*
X178838735Y-110538095D01*
X178838735Y-110538095D02*
X178743497Y-110585714D01*
X178743497Y-110585714D02*
X178695878Y-110633333D01*
X178695878Y-110633333D02*
X178648259Y-110728571D01*
X179648259Y-115033332D02*
X179172068Y-114699999D01*
X179648259Y-114461904D02*
X178648259Y-114461904D01*
X178648259Y-114461904D02*
X178648259Y-114842856D01*
X178648259Y-114842856D02*
X178695878Y-114938094D01*
X178695878Y-114938094D02*
X178743497Y-114985713D01*
X178743497Y-114985713D02*
X178838735Y-115033332D01*
X178838735Y-115033332D02*
X178981592Y-115033332D01*
X178981592Y-115033332D02*
X179076830Y-114985713D01*
X179076830Y-114985713D02*
X179124449Y-114938094D01*
X179124449Y-114938094D02*
X179172068Y-114842856D01*
X179172068Y-114842856D02*
X179172068Y-114461904D01*
X179648259Y-115509523D02*
X179648259Y-115699999D01*
X179648259Y-115699999D02*
X179600640Y-115795237D01*
X179600640Y-115795237D02*
X179553020Y-115842856D01*
X179553020Y-115842856D02*
X179410163Y-115938094D01*
X179410163Y-115938094D02*
X179219687Y-115985713D01*
X179219687Y-115985713D02*
X178838735Y-115985713D01*
X178838735Y-115985713D02*
X178743497Y-115938094D01*
X178743497Y-115938094D02*
X178695878Y-115890475D01*
X178695878Y-115890475D02*
X178648259Y-115795237D01*
X178648259Y-115795237D02*
X178648259Y-115604761D01*
X178648259Y-115604761D02*
X178695878Y-115509523D01*
X178695878Y-115509523D02*
X178743497Y-115461904D01*
X178743497Y-115461904D02*
X178838735Y-115414285D01*
X178838735Y-115414285D02*
X179076830Y-115414285D01*
X179076830Y-115414285D02*
X179172068Y-115461904D01*
X179172068Y-115461904D02*
X179219687Y-115509523D01*
X179219687Y-115509523D02*
X179267306Y-115604761D01*
X179267306Y-115604761D02*
X179267306Y-115795237D01*
X179267306Y-115795237D02*
X179219687Y-115890475D01*
X179219687Y-115890475D02*
X179172068Y-115938094D01*
X179172068Y-115938094D02*
X179076830Y-115985713D01*
X179648259Y-127633333D02*
X179172068Y-127300000D01*
X179648259Y-127061905D02*
X178648259Y-127061905D01*
X178648259Y-127061905D02*
X178648259Y-127442857D01*
X178648259Y-127442857D02*
X178695878Y-127538095D01*
X178695878Y-127538095D02*
X178743497Y-127585714D01*
X178743497Y-127585714D02*
X178838735Y-127633333D01*
X178838735Y-127633333D02*
X178981592Y-127633333D01*
X178981592Y-127633333D02*
X179076830Y-127585714D01*
X179076830Y-127585714D02*
X179124449Y-127538095D01*
X179124449Y-127538095D02*
X179172068Y-127442857D01*
X179172068Y-127442857D02*
X179172068Y-127061905D01*
X179076830Y-128204762D02*
X179029211Y-128109524D01*
X179029211Y-128109524D02*
X178981592Y-128061905D01*
X178981592Y-128061905D02*
X178886354Y-128014286D01*
X178886354Y-128014286D02*
X178838735Y-128014286D01*
X178838735Y-128014286D02*
X178743497Y-128061905D01*
X178743497Y-128061905D02*
X178695878Y-128109524D01*
X178695878Y-128109524D02*
X178648259Y-128204762D01*
X178648259Y-128204762D02*
X178648259Y-128395238D01*
X178648259Y-128395238D02*
X178695878Y-128490476D01*
X178695878Y-128490476D02*
X178743497Y-128538095D01*
X178743497Y-128538095D02*
X178838735Y-128585714D01*
X178838735Y-128585714D02*
X178886354Y-128585714D01*
X178886354Y-128585714D02*
X178981592Y-128538095D01*
X178981592Y-128538095D02*
X179029211Y-128490476D01*
X179029211Y-128490476D02*
X179076830Y-128395238D01*
X179076830Y-128395238D02*
X179076830Y-128204762D01*
X179076830Y-128204762D02*
X179124449Y-128109524D01*
X179124449Y-128109524D02*
X179172068Y-128061905D01*
X179172068Y-128061905D02*
X179267306Y-128014286D01*
X179267306Y-128014286D02*
X179457782Y-128014286D01*
X179457782Y-128014286D02*
X179553020Y-128061905D01*
X179553020Y-128061905D02*
X179600640Y-128109524D01*
X179600640Y-128109524D02*
X179648259Y-128204762D01*
X179648259Y-128204762D02*
X179648259Y-128395238D01*
X179648259Y-128395238D02*
X179600640Y-128490476D01*
X179600640Y-128490476D02*
X179553020Y-128538095D01*
X179553020Y-128538095D02*
X179457782Y-128585714D01*
X179457782Y-128585714D02*
X179267306Y-128585714D01*
X179267306Y-128585714D02*
X179172068Y-128538095D01*
X179172068Y-128538095D02*
X179124449Y-128490476D01*
X179124449Y-128490476D02*
X179076830Y-128395238D01*
X179648259Y-133033331D02*
X179172068Y-132699998D01*
X179648259Y-132461903D02*
X178648259Y-132461903D01*
X178648259Y-132461903D02*
X178648259Y-132842855D01*
X178648259Y-132842855D02*
X178695878Y-132938093D01*
X178695878Y-132938093D02*
X178743497Y-132985712D01*
X178743497Y-132985712D02*
X178838735Y-133033331D01*
X178838735Y-133033331D02*
X178981592Y-133033331D01*
X178981592Y-133033331D02*
X179076830Y-132985712D01*
X179076830Y-132985712D02*
X179124449Y-132938093D01*
X179124449Y-132938093D02*
X179172068Y-132842855D01*
X179172068Y-132842855D02*
X179172068Y-132461903D01*
X178648259Y-133366665D02*
X178648259Y-134033331D01*
X178648259Y-134033331D02*
X179648259Y-133604760D01*
D12*
%TO.C,C3*%
X156961252Y-120765000D02*
X156438748Y-120765000D01*
X156961252Y-122235000D02*
X156438748Y-122235000D01*
%TO.C,R7*%
X176665000Y-132972935D02*
X176665000Y-133427063D01*
X178135000Y-132972935D02*
X178135000Y-133427063D01*
%TO.C,R8*%
X176665000Y-127572936D02*
X176665000Y-128027064D01*
X178135000Y-127572936D02*
X178135000Y-128027064D01*
%TO.C,C1*%
X116961251Y-120765000D02*
X116438747Y-120765000D01*
X116961251Y-122235000D02*
X116438747Y-122235000D01*
%TO.C,R10*%
X176665000Y-109572936D02*
X176665000Y-110027064D01*
X178135000Y-109572936D02*
X178135000Y-110027064D01*
%TO.C,C4*%
X174961252Y-129765000D02*
X174438748Y-129765000D01*
X174961252Y-131235000D02*
X174438748Y-131235000D01*
%TO.C,R11*%
X149457064Y-101065000D02*
X149002936Y-101065000D01*
X149457064Y-102535000D02*
X149002936Y-102535000D01*
%TO.C,R4*%
X138665000Y-118572936D02*
X138665000Y-119027064D01*
X140135000Y-118572936D02*
X140135000Y-119027064D01*
%TO.C,R1*%
X118665000Y-123972936D02*
X118665000Y-124427064D01*
X120135000Y-123972936D02*
X120135000Y-124427064D01*
%TO.C,U1*%
X145440000Y-104440000D02*
X145440000Y-108560000D01*
X145440000Y-108560000D02*
X145495000Y-108560000D01*
X145495000Y-104440000D02*
X145440000Y-104440000D01*
X155505000Y-108560000D02*
X155560000Y-108560000D01*
X155560000Y-104440000D02*
X155505000Y-104440000D01*
X155560000Y-108560000D02*
X155560000Y-104440000D01*
X155840000Y-109340000D02*
X155510000Y-109100000D01*
X155840000Y-108860000D01*
X155840000Y-109340000D01*
G36*
X155840000Y-109340000D02*
G01*
X155510000Y-109100000D01*
X155840000Y-108860000D01*
X155840000Y-109340000D01*
G37*
%TO.C,R5*%
X158665000Y-123972936D02*
X158665000Y-124427064D01*
X160135000Y-123972936D02*
X160135000Y-124427064D01*
%TO.C,C6*%
X154561252Y-101065000D02*
X154038748Y-101065000D01*
X154561252Y-102535000D02*
X154038748Y-102535000D01*
%TO.C,C5*%
X174961252Y-111765000D02*
X174438748Y-111765000D01*
X174961252Y-113235000D02*
X174438748Y-113235000D01*
%TO.C,C2*%
X136961252Y-120765000D02*
X136438748Y-120765000D01*
X136961252Y-122235000D02*
X136438748Y-122235000D01*
%TO.C,R2*%
X118665000Y-118572936D02*
X118665000Y-119027064D01*
X120135000Y-118572936D02*
X120135000Y-119027064D01*
%TO.C,R6*%
X158665000Y-118572936D02*
X158665000Y-119027064D01*
X160135000Y-118572936D02*
X160135000Y-119027064D01*
%TO.C,R9*%
X176665000Y-114972936D02*
X176665000Y-115427064D01*
X178135000Y-114972936D02*
X178135000Y-115427064D01*
%TO.C,C7*%
X126265000Y-108261252D02*
X126265000Y-107738748D01*
X127735000Y-108261252D02*
X127735000Y-107738748D01*
%TO.C,R3*%
X138665000Y-123972936D02*
X138665000Y-124427064D01*
X140135000Y-123972936D02*
X140135000Y-124427064D01*
%TD*%
M02*
