%TF.GenerationSoftware,KiCad,Pcbnew,9.0.9-9.0.9~ubuntu24.04.1*%
%TF.CreationDate,2026-09-27T17:03:10+00:00*%
%TF.ProjectId,key-board-lh,6b65792d-626f-4617-9264-2d6c682e6b69,A*%
%TF.SameCoordinates,Original*%
%TF.FileFunction,Copper,L1,Top*%
%TF.FilePolarity,Positive*%
%FSLAX46Y46*%
G04 Gerber Fmt 4.6, Leading zero omitted, Abs format (unit mm)*
G04 Created by KiCad (PCBNEW 9.0.9-9.0.9~ubuntu24.04.1) date 2026-09-27 17:03:10*
%MOMM*%
%LPD*%
G01*
G04 APERTURE LIST*
%TA.AperFunction,ComponentPad*%
%ADD10C,2.000000*%
%TD*%
%TA.AperFunction,ComponentPad*%
%ADD11R,1.070000X1.070000*%
%TD*%
%TA.AperFunction,ComponentPad*%
%ADD12C,1.070000*%
%TD*%
%TA.AperFunction,ViaPad*%
%ADD13C,0.700000*%
%TD*%
%TA.AperFunction,Conductor*%
%ADD14C,0.250000*%
%TD*%
%TA.AperFunction,Conductor*%
%ADD15C,0.400000*%
%TD*%
G04 APERTURE END LIST*
D10*
%TO.P,SW-LH3,1*%
%TO.N,/LH3/SWITCH_LEG*%
X145600000Y-126200000D03*
%TO.P,SW-LH3,2*%
%TO.N,GND_CHAIN*%
X152600000Y-127250000D03*
%TD*%
%TO.P,SW-LH2,1*%
%TO.N,/LH2/SWITCH_LEG*%
X125600000Y-126200000D03*
%TO.P,SW-LH2,2*%
%TO.N,GND_CHAIN*%
X132600000Y-127250000D03*
%TD*%
%TO.P,SW-LH5,1*%
%TO.N,/LH5/SWITCH_LEG*%
X163600000Y-117200000D03*
%TO.P,SW-LH5,2*%
%TO.N,GND_CHAIN*%
X170600000Y-118250000D03*
%TD*%
%TO.P,SW-LH4,1*%
%TO.N,/LH4/SWITCH_LEG*%
X163600000Y-135200000D03*
%TO.P,SW-LH4,2*%
%TO.N,GND_CHAIN*%
X170600000Y-136250000D03*
%TD*%
%TO.P,SW-LH1,1*%
%TO.N,/LH1/SWITCH_LEG*%
X105600000Y-126200000D03*
%TO.P,SW-LH1,2*%
%TO.N,GND_CHAIN*%
X112600000Y-127250000D03*
%TD*%
D11*
%TO.P,J-CHAIN,1*%
%TO.N,unconnected-(J-CHAIN-Pin_1-Pad1)*%
X130640000Y-111160000D03*
D12*
%TO.P,J-CHAIN,2*%
%TO.N,unconnected-(J-CHAIN-Pin_2-Pad2)*%
X131910000Y-111160000D03*
%TO.P,J-CHAIN,3*%
%TO.N,V3V3_CHAIN_LH*%
X130640000Y-109890000D03*
%TO.P,J-CHAIN,4*%
%TO.N,GND_CHAIN*%
X131910000Y-109890000D03*
%TO.P,J-CHAIN,5*%
%TO.N,/HOP_LH_LT*%
X130640000Y-108620000D03*
%TO.P,J-CHAIN,6*%
%TO.N,GND_CHAIN*%
X131910000Y-108620000D03*
%TO.P,J-CHAIN,7*%
%TO.N,/CHAIN_SER_LH*%
X130640000Y-107350000D03*
%TO.P,J-CHAIN,8*%
%TO.N,GND_CHAIN*%
X131910000Y-107350000D03*
%TO.P,J-CHAIN,9*%
%TO.N,/CHAIN_SHLD*%
X130640000Y-106080000D03*
%TO.P,J-CHAIN,10*%
%TO.N,GND_CHAIN*%
X131910000Y-106080000D03*
%TO.P,J-CHAIN,11*%
%TO.N,/CHAIN_SCK*%
X130640000Y-104810000D03*
%TO.P,J-CHAIN,12*%
%TO.N,GND_CHAIN*%
X131910000Y-104810000D03*
%TD*%
D13*
%TO.N,/CHAIN_SCK*%
X153600000Y-110500000D03*
X133000000Y-110500000D03*
%TO.N,/CHAIN_SHLD*%
X128800000Y-112500000D03*
X155000000Y-112500000D03*
%TO.N,/HOP_LH_LT*%
X145200000Y-103700000D03*
%TO.N,/KEY_FREE3*%
X145400000Y-105700000D03*
X148400000Y-105700000D03*
%TO.N,/KEY_LH1*%
X148400000Y-113500000D03*
X111600000Y-113500000D03*
%TO.N,/KEY_LH4*%
X152600000Y-111500000D03*
X165400000Y-114700000D03*
%TO.N,GND_CHAIN*%
X164800000Y-105700000D03*
X166400000Y-122300000D03*
X134000000Y-104700000D03*
X134000000Y-109500000D03*
X110200000Y-114900000D03*
X129000000Y-135100000D03*
X165600000Y-123100000D03*
X135200000Y-124700000D03*
X150400000Y-132900000D03*
X130400000Y-132900000D03*
X152200000Y-102300000D03*
X165400000Y-126500000D03*
X126000000Y-107900000D03*
X147200000Y-115700000D03*
X146200000Y-111500000D03*
X151600000Y-105500000D03*
X154800000Y-106500000D03*
X149000000Y-135100000D03*
X150800000Y-102500000D03*
X164000000Y-106500000D03*
X134000000Y-111500000D03*
X147400000Y-114500000D03*
%TO.N,V3V3_CHAIN_LH*%
X145400000Y-107100000D03*
X134199999Y-131100000D03*
X144000000Y-114500000D03*
X155800000Y-104100000D03*
X153400000Y-131100000D03*
X127600000Y-110100000D03*
X114600000Y-114500000D03*
X149800000Y-106500000D03*
X167800000Y-104700000D03*
X127600000Y-114500000D03*
%TD*%
D14*
%TO.N,/CHAIN_SCK*%
X153600000Y-110500000D02*
X133000000Y-110500000D01*
%TO.N,/CHAIN_SHLD*%
X155000000Y-112500000D02*
X128800000Y-112500000D01*
%TO.N,/HOP_LH_LT*%
X129600000Y-108100000D02*
X129800000Y-108300000D01*
X129600000Y-104100000D02*
X129600000Y-108100000D01*
X129800000Y-108300000D02*
X130400000Y-108300000D01*
X130639999Y-108619999D02*
X130400000Y-108300000D01*
X145200000Y-103700000D02*
X130000000Y-103700000D01*
X130000000Y-103700000D02*
X129600000Y-104100000D01*
%TO.N,/KEY_FREE3*%
X148400000Y-105700000D02*
X145400000Y-105700000D01*
%TO.N,/KEY_LH1*%
X111600000Y-113500000D02*
X148400000Y-113500000D01*
%TO.N,/KEY_LH4*%
X165400000Y-114700000D02*
X158600000Y-114700000D01*
X158600000Y-114700000D02*
X155400000Y-111500000D01*
X155400000Y-111500000D02*
X152600000Y-111500000D01*
%TO.N,GND_CHAIN*%
X166400000Y-122300000D02*
X169800000Y-118900000D01*
X147200000Y-115700000D02*
X147200000Y-119900000D01*
X153000000Y-128100000D02*
X154400000Y-129500000D01*
X131800000Y-127700000D02*
X113400000Y-127700000D01*
X154800000Y-106500000D02*
X164000000Y-106500000D01*
X146800000Y-120300000D02*
X146800000Y-122900000D01*
X148600000Y-124700000D02*
X135200000Y-124700000D01*
X132199999Y-131100000D02*
X130400000Y-132900000D01*
X153000000Y-132900000D02*
X150400000Y-132900000D01*
X134000000Y-104700000D02*
X150800000Y-104700000D01*
X170599999Y-118249999D02*
X169800000Y-118700000D01*
X150800000Y-104700000D02*
X151600000Y-105500000D01*
X152599999Y-127249999D02*
X151800000Y-126900000D01*
X154400000Y-131500000D02*
X153000000Y-132900000D01*
X150800000Y-126900000D02*
X151800000Y-126900000D01*
X147200000Y-119900000D02*
X146800000Y-120300000D01*
X132199999Y-104700000D02*
X134000000Y-104700000D01*
X169800000Y-118900000D02*
X169800000Y-118700000D01*
X131910000Y-109890000D02*
X132199999Y-109700000D01*
X146800000Y-122900000D02*
X150800000Y-126900000D01*
X154400000Y-129500000D02*
X154400000Y-131500000D01*
X134000000Y-109500000D02*
X132400000Y-109500000D01*
X132400000Y-109500000D02*
X132199999Y-109700000D01*
X132199999Y-128100000D02*
X132199999Y-131100000D01*
X146200000Y-111500000D02*
X134000000Y-111500000D01*
X153000000Y-126500000D02*
X165400000Y-126500000D01*
X112600000Y-127250000D02*
X113400000Y-127700000D01*
D15*
%TO.N,V3V3_CHAIN_LH*%
X130639999Y-109890000D02*
X130199999Y-109900000D01*
X144000000Y-114500000D02*
X127600000Y-114500000D01*
X127600000Y-110100000D02*
X129600000Y-110100000D01*
X134199999Y-114500000D02*
X134199999Y-131100000D01*
X129800000Y-109900000D02*
X130199999Y-109900000D01*
X153400000Y-106500000D02*
X155800000Y-104100000D01*
X149200000Y-107100000D02*
X149800000Y-106500000D01*
X134199999Y-131100000D02*
X153400000Y-131100000D01*
X155200000Y-104700000D02*
X167800000Y-104700000D01*
X145400000Y-107100000D02*
X149200000Y-107100000D01*
X149800000Y-106500000D02*
X153400000Y-106500000D01*
X129600000Y-110100000D02*
X129800000Y-109900000D01*
X127600000Y-114500000D02*
X114600000Y-114500000D01*
%TD*%
%TA.AperFunction,Conductor*%
%TO.N,GND_CHAIN*%
G36*
X131583852Y-108755095D02*
G01*
X131629930Y-108834905D01*
X131695095Y-108900070D01*
X131774905Y-108946148D01*
X131847296Y-108965545D01*
X131557842Y-109255000D01*
X131847296Y-109544454D01*
X131774905Y-109563852D01*
X131695095Y-109609930D01*
X131629930Y-109675095D01*
X131583852Y-109754905D01*
X131564454Y-109827296D01*
X131318442Y-109581284D01*
X131295292Y-109546637D01*
X131294660Y-109546976D01*
X131291790Y-109541607D01*
X131211300Y-109421146D01*
X131211297Y-109421142D01*
X131132836Y-109342681D01*
X131128497Y-109334735D01*
X131121250Y-109329310D01*
X131112015Y-109304550D01*
X131099351Y-109281358D01*
X131099996Y-109272328D01*
X131096833Y-109263846D01*
X131102449Y-109238025D01*
X131104335Y-109211666D01*
X131110153Y-109202612D01*
X131111685Y-109195573D01*
X131132836Y-109167319D01*
X131184198Y-109115957D01*
X131211297Y-109088857D01*
X131211300Y-109088854D01*
X131291792Y-108968390D01*
X131291795Y-108968381D01*
X131294665Y-108963015D01*
X131295300Y-108963354D01*
X131318443Y-108928712D01*
X131564454Y-108682701D01*
X131583852Y-108755095D01*
G37*
%TD.AperFunction*%
%TA.AperFunction,Conductor*%
G36*
X131583852Y-107485095D02*
G01*
X131629930Y-107564905D01*
X131695095Y-107630070D01*
X131774905Y-107676148D01*
X131847296Y-107695545D01*
X131557842Y-107985000D01*
X131847296Y-108274454D01*
X131774905Y-108293852D01*
X131695095Y-108339930D01*
X131629930Y-108405095D01*
X131583852Y-108484905D01*
X131564454Y-108557296D01*
X131318442Y-108311284D01*
X131295292Y-108276637D01*
X131294660Y-108276976D01*
X131291790Y-108271607D01*
X131211300Y-108151146D01*
X131211297Y-108151142D01*
X131132836Y-108072681D01*
X131128497Y-108064735D01*
X131121250Y-108059310D01*
X131112015Y-108034550D01*
X131099351Y-108011358D01*
X131099996Y-108002328D01*
X131096833Y-107993846D01*
X131102449Y-107968025D01*
X131104335Y-107941666D01*
X131110153Y-107932612D01*
X131111685Y-107925573D01*
X131132836Y-107897319D01*
X131184198Y-107845957D01*
X131211297Y-107818857D01*
X131211300Y-107818854D01*
X131291792Y-107698390D01*
X131291795Y-107698381D01*
X131294665Y-107693015D01*
X131295300Y-107693354D01*
X131318443Y-107658712D01*
X131564454Y-107412701D01*
X131583852Y-107485095D01*
G37*
%TD.AperFunction*%
%TA.AperFunction,Conductor*%
G36*
X131583852Y-106215095D02*
G01*
X131629930Y-106294905D01*
X131695095Y-106360070D01*
X131774905Y-106406148D01*
X131847296Y-106425545D01*
X131557842Y-106715000D01*
X131847296Y-107004454D01*
X131774905Y-107023852D01*
X131695095Y-107069930D01*
X131629930Y-107135095D01*
X131583852Y-107214905D01*
X131564454Y-107287296D01*
X131318442Y-107041284D01*
X131295292Y-107006637D01*
X131294660Y-107006976D01*
X131291790Y-107001607D01*
X131211300Y-106881146D01*
X131211297Y-106881142D01*
X131132836Y-106802681D01*
X131128497Y-106794735D01*
X131121250Y-106789310D01*
X131112015Y-106764550D01*
X131099351Y-106741358D01*
X131099996Y-106732328D01*
X131096833Y-106723846D01*
X131102449Y-106698025D01*
X131104335Y-106671666D01*
X131110153Y-106662612D01*
X131111685Y-106655573D01*
X131132836Y-106627319D01*
X131184198Y-106575957D01*
X131211297Y-106548857D01*
X131211300Y-106548854D01*
X131291792Y-106428390D01*
X131291795Y-106428381D01*
X131294665Y-106423015D01*
X131295300Y-106423354D01*
X131318443Y-106388712D01*
X131564454Y-106142701D01*
X131583852Y-106215095D01*
G37*
%TD.AperFunction*%
%TA.AperFunction,Conductor*%
G36*
X131583852Y-104945095D02*
G01*
X131629930Y-105024905D01*
X131695095Y-105090070D01*
X131774905Y-105136148D01*
X131847296Y-105155545D01*
X131557842Y-105445000D01*
X131847296Y-105734454D01*
X131774905Y-105753852D01*
X131695095Y-105799930D01*
X131629930Y-105865095D01*
X131583852Y-105944905D01*
X131564454Y-106017296D01*
X131318442Y-105771284D01*
X131295292Y-105736637D01*
X131294660Y-105736976D01*
X131291790Y-105731607D01*
X131211300Y-105611146D01*
X131211297Y-105611142D01*
X131132836Y-105532681D01*
X131128497Y-105524735D01*
X131121250Y-105519310D01*
X131112015Y-105494550D01*
X131099351Y-105471358D01*
X131099996Y-105462328D01*
X131096833Y-105453846D01*
X131102449Y-105428025D01*
X131104335Y-105401666D01*
X131110153Y-105392612D01*
X131111685Y-105385573D01*
X131132836Y-105357319D01*
X131184198Y-105305957D01*
X131211297Y-105278857D01*
X131211300Y-105278854D01*
X131291792Y-105158390D01*
X131291795Y-105158381D01*
X131294665Y-105153015D01*
X131295300Y-105153354D01*
X131318443Y-105118712D01*
X131564454Y-104872701D01*
X131583852Y-104945095D01*
G37*
%TD.AperFunction*%
%TA.AperFunction,Conductor*%
G36*
X131424019Y-104045185D02*
G01*
X131444661Y-104061819D01*
X131847296Y-104464454D01*
X131774905Y-104483852D01*
X131695095Y-104529930D01*
X131629930Y-104595095D01*
X131583852Y-104674905D01*
X131564454Y-104747296D01*
X131318442Y-104501284D01*
X131295292Y-104466637D01*
X131294660Y-104466976D01*
X131291790Y-104461607D01*
X131211300Y-104341146D01*
X131211297Y-104341142D01*
X131107336Y-104237181D01*
X131096723Y-104217744D01*
X131082223Y-104201011D01*
X131080306Y-104187679D01*
X131073851Y-104175858D01*
X131075430Y-104153771D01*
X131072279Y-104131853D01*
X131077874Y-104119601D01*
X131078835Y-104106166D01*
X131092105Y-104088439D01*
X131101304Y-104068297D01*
X131112635Y-104061014D01*
X131120707Y-104050233D01*
X131141452Y-104042495D01*
X131160082Y-104030523D01*
X131182000Y-104027371D01*
X131186171Y-104025816D01*
X131195017Y-104025500D01*
X131356980Y-104025500D01*
X131424019Y-104045185D01*
G37*
%TD.AperFunction*%
%TA.AperFunction,Conductor*%
G36*
X179993037Y-100800883D02*
G01*
X180099145Y-100809249D01*
X180118318Y-100812284D01*
X180206455Y-100833426D01*
X180224944Y-100839428D01*
X180308280Y-100873912D01*
X180325592Y-100882722D01*
X180402307Y-100929667D01*
X180418235Y-100941248D01*
X180486464Y-100999672D01*
X180500056Y-101013273D01*
X180558826Y-101082011D01*
X180570298Y-101097793D01*
X180617284Y-101174461D01*
X180626137Y-101191843D01*
X180660771Y-101275542D01*
X180666701Y-101293734D01*
X180687875Y-101381059D01*
X180691004Y-101400792D01*
X180699137Y-101506782D01*
X180699500Y-101516269D01*
X180699500Y-141483732D01*
X180699137Y-141493218D01*
X180691003Y-141599237D01*
X180687874Y-141618971D01*
X180666707Y-141706268D01*
X180660773Y-141724469D01*
X180626145Y-141808133D01*
X180617294Y-141825509D01*
X180570286Y-141902208D01*
X180558820Y-141917981D01*
X180500047Y-141986738D01*
X180486448Y-142000350D01*
X180418235Y-142058768D01*
X180402295Y-142070357D01*
X180325558Y-142117310D01*
X180308278Y-142126106D01*
X180224992Y-142160592D01*
X180206433Y-142166615D01*
X180118350Y-142187709D01*
X180099226Y-142190735D01*
X179993024Y-142199116D01*
X179983269Y-142199500D01*
X98016683Y-142199500D01*
X98006953Y-142199118D01*
X97993253Y-142198039D01*
X97900483Y-142190737D01*
X97881264Y-142187692D01*
X97793610Y-142166646D01*
X97775122Y-142160640D01*
X97691853Y-142126161D01*
X97674502Y-142117322D01*
X97597707Y-142070263D01*
X97581958Y-142058820D01*
X97513476Y-142000320D01*
X97499721Y-141986562D01*
X97441189Y-141918018D01*
X97429767Y-141902296D01*
X97382704Y-141825508D01*
X97373853Y-141808133D01*
X97339373Y-141724825D01*
X97333392Y-141706421D01*
X97312303Y-141618735D01*
X97309248Y-141599463D01*
X97309230Y-141599237D01*
X97300882Y-141493062D01*
X97300500Y-141483342D01*
X97300500Y-139499999D01*
X97900000Y-139499999D01*
X97940349Y-139909687D01*
X98059853Y-140303639D01*
X98253909Y-140666691D01*
X98253913Y-140666698D01*
X98515074Y-140984924D01*
X98833300Y-141246085D01*
X98833307Y-141246089D01*
X99196359Y-141440145D01*
X99196361Y-141440145D01*
X99196364Y-141440147D01*
X99590310Y-141559649D01*
X99590309Y-141559649D01*
X99630660Y-141563623D01*
X100000000Y-141600000D01*
X100409689Y-141559649D01*
X100803635Y-141440147D01*
X101166697Y-141246086D01*
X101484924Y-140984924D01*
X101746086Y-140666697D01*
X101940147Y-140303635D01*
X102059649Y-139909689D01*
X102100000Y-139500000D01*
X175900000Y-139500000D01*
X175940349Y-139909687D01*
X176059853Y-140303639D01*
X176253909Y-140666691D01*
X176253913Y-140666698D01*
X176515074Y-140984924D01*
X176833300Y-141246085D01*
X176833307Y-141246089D01*
X177196359Y-141440145D01*
X177196361Y-141440145D01*
X177196364Y-141440147D01*
X177590310Y-141559649D01*
X177590309Y-141559649D01*
X177630660Y-141563623D01*
X178000000Y-141600000D01*
X178409689Y-141559649D01*
X178803635Y-141440147D01*
X179166697Y-141246086D01*
X179484924Y-140984924D01*
X179746086Y-140666697D01*
X179940147Y-140303635D01*
X180059649Y-139909689D01*
X180100000Y-139500000D01*
X180059649Y-139090310D01*
X179940147Y-138696364D01*
X179940145Y-138696361D01*
X179940145Y-138696359D01*
X179746089Y-138333307D01*
X179746085Y-138333300D01*
X179484924Y-138015074D01*
X179166698Y-137753913D01*
X179166691Y-137753909D01*
X178803639Y-137559853D01*
X178409687Y-137440349D01*
X178000000Y-137400000D01*
X177590311Y-137440349D01*
X177196359Y-137559853D01*
X176833307Y-137753909D01*
X176833300Y-137753913D01*
X176515074Y-138015074D01*
X176253913Y-138333300D01*
X176253909Y-138333307D01*
X176059853Y-138696359D01*
X175940349Y-139090311D01*
X175900000Y-139500000D01*
X102100000Y-139500000D01*
X102059649Y-139090310D01*
X101940147Y-138696364D01*
X101940145Y-138696361D01*
X101940145Y-138696359D01*
X101746089Y-138333307D01*
X101746085Y-138333300D01*
X101484924Y-138015074D01*
X101166698Y-137753913D01*
X101166691Y-137753909D01*
X100803639Y-137559853D01*
X100409687Y-137440349D01*
X100000000Y-137400000D01*
X99590311Y-137440349D01*
X99196359Y-137559853D01*
X98833307Y-137753909D01*
X98833300Y-137753913D01*
X98515074Y-138015074D01*
X98253913Y-138333300D01*
X98253909Y-138333307D01*
X98059853Y-138696359D01*
X97940349Y-139090311D01*
X97900000Y-139499999D01*
X97300500Y-139499999D01*
X97300500Y-135105513D01*
X162399500Y-135105513D01*
X162399500Y-135294486D01*
X162429059Y-135481118D01*
X162487454Y-135660836D01*
X162533379Y-135750968D01*
X162573240Y-135829199D01*
X162684310Y-135982073D01*
X162817927Y-136115690D01*
X162970801Y-136226760D01*
X163050347Y-136267290D01*
X163139163Y-136312545D01*
X163139165Y-136312545D01*
X163139168Y-136312547D01*
X163235497Y-136343846D01*
X163318881Y-136370940D01*
X163505514Y-136400500D01*
X163505519Y-136400500D01*
X163694486Y-136400500D01*
X163881118Y-136370940D01*
X163938433Y-136352317D01*
X164060832Y-136312547D01*
X164229199Y-136226760D01*
X164338040Y-136147682D01*
X169300000Y-136147682D01*
X169300000Y-136352317D01*
X169332009Y-136554417D01*
X169395244Y-136749031D01*
X169488139Y-136931347D01*
X169550279Y-137016876D01*
X170019668Y-136547487D01*
X170023978Y-136557890D01*
X170095112Y-136664351D01*
X170185649Y-136754888D01*
X170292110Y-136826022D01*
X170302510Y-136830330D01*
X169833121Y-137299719D01*
X169833122Y-137299720D01*
X169918640Y-137361852D01*
X169918649Y-137361858D01*
X170100968Y-137454755D01*
X170295582Y-137517990D01*
X170497683Y-137550000D01*
X170702317Y-137550000D01*
X170904417Y-137517990D01*
X171099031Y-137454755D01*
X171281349Y-137361859D01*
X171366876Y-137299719D01*
X171366877Y-137299718D01*
X170897489Y-136830330D01*
X170907890Y-136826022D01*
X171014351Y-136754888D01*
X171104888Y-136664351D01*
X171176022Y-136557890D01*
X171180330Y-136547488D01*
X171649718Y-137016877D01*
X171649719Y-137016876D01*
X171711859Y-136931349D01*
X171804755Y-136749031D01*
X171867990Y-136554417D01*
X171900000Y-136352317D01*
X171900000Y-136147682D01*
X171867990Y-135945582D01*
X171804755Y-135750968D01*
X171711858Y-135568649D01*
X171711852Y-135568640D01*
X171649720Y-135483122D01*
X171649719Y-135483121D01*
X171180330Y-135952510D01*
X171176022Y-135942110D01*
X171104888Y-135835649D01*
X171014351Y-135745112D01*
X170907890Y-135673978D01*
X170897487Y-135669669D01*
X171366876Y-135200279D01*
X171281347Y-135138139D01*
X171099031Y-135045244D01*
X170904417Y-134982009D01*
X170702317Y-134950000D01*
X170497683Y-134950000D01*
X170295582Y-134982009D01*
X170100968Y-135045244D01*
X169918648Y-135138141D01*
X169833122Y-135200278D01*
X169833122Y-135200279D01*
X170302512Y-135669669D01*
X170292110Y-135673978D01*
X170185649Y-135745112D01*
X170095112Y-135835649D01*
X170023978Y-135942110D01*
X170019669Y-135952512D01*
X169550279Y-135483122D01*
X169550278Y-135483122D01*
X169488141Y-135568648D01*
X169395244Y-135750968D01*
X169332009Y-135945582D01*
X169300000Y-136147682D01*
X164338040Y-136147682D01*
X164382073Y-136115690D01*
X164515690Y-135982073D01*
X164626760Y-135829199D01*
X164712547Y-135660832D01*
X164770940Y-135481118D01*
X164800500Y-135294486D01*
X164800500Y-135105513D01*
X164770940Y-134918881D01*
X164712545Y-134739163D01*
X164626759Y-134570800D01*
X164515690Y-134417927D01*
X164382073Y-134284310D01*
X164229199Y-134173240D01*
X164060836Y-134087454D01*
X163881118Y-134029059D01*
X163694486Y-133999500D01*
X163694481Y-133999500D01*
X163505519Y-133999500D01*
X163505514Y-133999500D01*
X163318881Y-134029059D01*
X163139163Y-134087454D01*
X162970800Y-134173240D01*
X162883579Y-134236610D01*
X162817927Y-134284310D01*
X162817925Y-134284312D01*
X162817924Y-134284312D01*
X162684312Y-134417924D01*
X162684312Y-134417925D01*
X162684310Y-134417927D01*
X162636610Y-134483579D01*
X162573240Y-134570800D01*
X162487454Y-134739163D01*
X162429059Y-134918881D01*
X162399500Y-135105513D01*
X97300500Y-135105513D01*
X97300500Y-126105513D01*
X104399500Y-126105513D01*
X104399500Y-126294486D01*
X104429059Y-126481118D01*
X104487454Y-126660836D01*
X104533379Y-126750968D01*
X104573240Y-126829199D01*
X104684310Y-126982073D01*
X104817927Y-127115690D01*
X104970801Y-127226760D01*
X105050347Y-127267290D01*
X105139163Y-127312545D01*
X105139165Y-127312545D01*
X105139168Y-127312547D01*
X105235497Y-127343846D01*
X105318881Y-127370940D01*
X105505514Y-127400500D01*
X105505519Y-127400500D01*
X105694486Y-127400500D01*
X105881118Y-127370940D01*
X105938433Y-127352317D01*
X106060832Y-127312547D01*
X106229199Y-127226760D01*
X106338040Y-127147682D01*
X111300000Y-127147682D01*
X111300000Y-127352317D01*
X111332009Y-127554417D01*
X111395244Y-127749031D01*
X111488139Y-127931347D01*
X111550279Y-128016876D01*
X112019668Y-127547487D01*
X112023978Y-127557890D01*
X112095112Y-127664351D01*
X112185649Y-127754888D01*
X112292110Y-127826022D01*
X112302510Y-127830330D01*
X111833121Y-128299719D01*
X111833122Y-128299720D01*
X111918640Y-128361852D01*
X111918649Y-128361858D01*
X112100968Y-128454755D01*
X112295582Y-128517990D01*
X112497683Y-128550000D01*
X112702317Y-128550000D01*
X112904417Y-128517990D01*
X113099031Y-128454755D01*
X113281349Y-128361859D01*
X113366876Y-128299719D01*
X113366877Y-128299718D01*
X112897489Y-127830330D01*
X112907890Y-127826022D01*
X113014351Y-127754888D01*
X113104888Y-127664351D01*
X113176022Y-127557890D01*
X113180330Y-127547488D01*
X113649718Y-128016877D01*
X113649719Y-128016876D01*
X113711859Y-127931349D01*
X113804755Y-127749031D01*
X113867990Y-127554417D01*
X113900000Y-127352317D01*
X113900000Y-127147682D01*
X113867990Y-126945582D01*
X113804755Y-126750968D01*
X113711858Y-126568649D01*
X113711852Y-126568640D01*
X113649720Y-126483122D01*
X113649719Y-126483121D01*
X113180330Y-126952510D01*
X113176022Y-126942110D01*
X113104888Y-126835649D01*
X113014351Y-126745112D01*
X112907890Y-126673978D01*
X112897487Y-126669669D01*
X113366876Y-126200279D01*
X113366876Y-126200278D01*
X113281352Y-126138142D01*
X113217315Y-126105513D01*
X124399500Y-126105513D01*
X124399500Y-126294486D01*
X124429059Y-126481118D01*
X124487454Y-126660836D01*
X124533379Y-126750968D01*
X124573240Y-126829199D01*
X124684310Y-126982073D01*
X124817927Y-127115690D01*
X124970801Y-127226760D01*
X125050347Y-127267290D01*
X125139163Y-127312545D01*
X125139165Y-127312545D01*
X125139168Y-127312547D01*
X125235497Y-127343846D01*
X125318881Y-127370940D01*
X125505514Y-127400500D01*
X125505519Y-127400500D01*
X125694486Y-127400500D01*
X125881118Y-127370940D01*
X125938433Y-127352317D01*
X126060832Y-127312547D01*
X126229199Y-127226760D01*
X126382073Y-127115690D01*
X126515690Y-126982073D01*
X126626760Y-126829199D01*
X126712547Y-126660832D01*
X126770940Y-126481118D01*
X126779384Y-126427806D01*
X126800500Y-126294486D01*
X126800500Y-126105513D01*
X126770940Y-125918881D01*
X126712545Y-125739163D01*
X126626759Y-125570800D01*
X126515690Y-125417927D01*
X126382073Y-125284310D01*
X126229199Y-125173240D01*
X126060836Y-125087454D01*
X125881118Y-125029059D01*
X125694486Y-124999500D01*
X125694481Y-124999500D01*
X125505519Y-124999500D01*
X125505514Y-124999500D01*
X125318881Y-125029059D01*
X125139163Y-125087454D01*
X124970800Y-125173240D01*
X124883579Y-125236610D01*
X124817927Y-125284310D01*
X124817925Y-125284312D01*
X124817924Y-125284312D01*
X124684312Y-125417924D01*
X124684312Y-125417925D01*
X124684310Y-125417927D01*
X124636610Y-125483579D01*
X124573240Y-125570800D01*
X124487454Y-125739163D01*
X124429059Y-125918881D01*
X124399500Y-126105513D01*
X113217315Y-126105513D01*
X113099031Y-126045244D01*
X112904417Y-125982009D01*
X112702317Y-125950000D01*
X112497683Y-125950000D01*
X112295582Y-125982009D01*
X112100968Y-126045244D01*
X111918648Y-126138141D01*
X111833122Y-126200278D01*
X111833122Y-126200279D01*
X112302512Y-126669669D01*
X112292110Y-126673978D01*
X112185649Y-126745112D01*
X112095112Y-126835649D01*
X112023978Y-126942110D01*
X112019669Y-126952512D01*
X111550279Y-126483122D01*
X111550278Y-126483122D01*
X111488141Y-126568648D01*
X111395244Y-126750968D01*
X111332009Y-126945582D01*
X111300000Y-127147682D01*
X106338040Y-127147682D01*
X106382073Y-127115690D01*
X106515690Y-126982073D01*
X106626760Y-126829199D01*
X106712547Y-126660832D01*
X106770940Y-126481118D01*
X106779384Y-126427806D01*
X106800500Y-126294486D01*
X106800500Y-126105513D01*
X106770940Y-125918881D01*
X106712545Y-125739163D01*
X106626759Y-125570800D01*
X106515690Y-125417927D01*
X106382073Y-125284310D01*
X106229199Y-125173240D01*
X106060836Y-125087454D01*
X105881118Y-125029059D01*
X105694486Y-124999500D01*
X105694481Y-124999500D01*
X105505519Y-124999500D01*
X105505514Y-124999500D01*
X105318881Y-125029059D01*
X105139163Y-125087454D01*
X104970800Y-125173240D01*
X104883579Y-125236610D01*
X104817927Y-125284310D01*
X104817925Y-125284312D01*
X104817924Y-125284312D01*
X104684312Y-125417924D01*
X104684312Y-125417925D01*
X104684310Y-125417927D01*
X104636610Y-125483579D01*
X104573240Y-125570800D01*
X104487454Y-125739163D01*
X104429059Y-125918881D01*
X104399500Y-126105513D01*
X97300500Y-126105513D01*
X97300500Y-121336824D01*
X107094500Y-121336824D01*
X107094500Y-121663175D01*
X107131035Y-121987441D01*
X107131038Y-121987455D01*
X107203655Y-122305612D01*
X107203656Y-122305614D01*
X107311438Y-122613640D01*
X107453030Y-122907657D01*
X107453032Y-122907660D01*
X107626654Y-123183979D01*
X107830123Y-123439121D01*
X108060879Y-123669877D01*
X108316021Y-123873346D01*
X108592340Y-124046968D01*
X108886361Y-124188562D01*
X109194387Y-124296344D01*
X109512544Y-124368962D01*
X109512553Y-124368963D01*
X109512558Y-124368964D01*
X109728735Y-124393320D01*
X109836825Y-124405499D01*
X109836828Y-124405500D01*
X109836831Y-124405500D01*
X110163172Y-124405500D01*
X110163173Y-124405499D01*
X110328900Y-124386826D01*
X110487441Y-124368964D01*
X110487444Y-124368963D01*
X110487456Y-124368962D01*
X110805613Y-124296344D01*
X111113639Y-124188562D01*
X111407660Y-124046968D01*
X111683979Y-123873346D01*
X111939121Y-123669877D01*
X112169877Y-123439121D01*
X112373346Y-123183979D01*
X112546968Y-122907660D01*
X112688562Y-122613639D01*
X112796344Y-122305613D01*
X112868962Y-121987456D01*
X112905500Y-121663169D01*
X112905500Y-121336831D01*
X112905499Y-121336824D01*
X127094500Y-121336824D01*
X127094500Y-121663175D01*
X127131035Y-121987441D01*
X127131038Y-121987455D01*
X127203655Y-122305612D01*
X127203656Y-122305614D01*
X127311438Y-122613640D01*
X127453030Y-122907657D01*
X127453032Y-122907660D01*
X127626654Y-123183979D01*
X127830123Y-123439121D01*
X128060879Y-123669877D01*
X128316021Y-123873346D01*
X128592340Y-124046968D01*
X128886361Y-124188562D01*
X129194387Y-124296344D01*
X129512544Y-124368962D01*
X129512553Y-124368963D01*
X129512558Y-124368964D01*
X129728735Y-124393320D01*
X129836825Y-124405499D01*
X129836828Y-124405500D01*
X129836831Y-124405500D01*
X130163172Y-124405500D01*
X130163173Y-124405499D01*
X130328900Y-124386826D01*
X130487441Y-124368964D01*
X130487444Y-124368963D01*
X130487456Y-124368962D01*
X130805613Y-124296344D01*
X131113639Y-124188562D01*
X131407660Y-124046968D01*
X131683979Y-123873346D01*
X131939121Y-123669877D01*
X132169877Y-123439121D01*
X132373346Y-123183979D01*
X132546968Y-122907660D01*
X132688562Y-122613639D01*
X132796344Y-122305613D01*
X132868962Y-121987456D01*
X132905500Y-121663169D01*
X132905500Y-121336831D01*
X132868962Y-121012544D01*
X132796344Y-120694387D01*
X132688562Y-120386361D01*
X132546968Y-120092340D01*
X132373346Y-119816021D01*
X132169877Y-119560879D01*
X131939121Y-119330123D01*
X131683979Y-119126654D01*
X131407660Y-118953032D01*
X131407657Y-118953030D01*
X131113640Y-118811438D01*
X130805614Y-118703656D01*
X130805612Y-118703655D01*
X130560073Y-118647612D01*
X130487456Y-118631038D01*
X130487453Y-118631037D01*
X130487441Y-118631035D01*
X130163175Y-118594500D01*
X130163169Y-118594500D01*
X129836831Y-118594500D01*
X129836824Y-118594500D01*
X129512558Y-118631035D01*
X129512544Y-118631038D01*
X129194387Y-118703655D01*
X129194385Y-118703656D01*
X128886359Y-118811438D01*
X128592342Y-118953030D01*
X128316022Y-119126653D01*
X128060879Y-119330122D01*
X127830122Y-119560879D01*
X127626653Y-119816022D01*
X127453030Y-120092342D01*
X127311438Y-120386359D01*
X127203656Y-120694385D01*
X127203655Y-120694387D01*
X127131038Y-121012544D01*
X127131035Y-121012558D01*
X127094500Y-121336824D01*
X112905499Y-121336824D01*
X112868962Y-121012544D01*
X112796344Y-120694387D01*
X112688562Y-120386361D01*
X112546968Y-120092340D01*
X112373346Y-119816021D01*
X112169877Y-119560879D01*
X111939121Y-119330123D01*
X111683979Y-119126654D01*
X111407660Y-118953032D01*
X111407657Y-118953030D01*
X111113640Y-118811438D01*
X110805614Y-118703656D01*
X110805612Y-118703655D01*
X110560073Y-118647612D01*
X110487456Y-118631038D01*
X110487453Y-118631037D01*
X110487441Y-118631035D01*
X110163175Y-118594500D01*
X110163169Y-118594500D01*
X109836831Y-118594500D01*
X109836824Y-118594500D01*
X109512558Y-118631035D01*
X109512544Y-118631038D01*
X109194387Y-118703655D01*
X109194385Y-118703656D01*
X108886359Y-118811438D01*
X108592342Y-118953030D01*
X108316022Y-119126653D01*
X108060879Y-119330122D01*
X107830122Y-119560879D01*
X107626653Y-119816022D01*
X107453030Y-120092342D01*
X107311438Y-120386359D01*
X107203656Y-120694385D01*
X107203655Y-120694387D01*
X107131038Y-121012544D01*
X107131035Y-121012558D01*
X107094500Y-121336824D01*
X97300500Y-121336824D01*
X97300500Y-113427525D01*
X111049500Y-113427525D01*
X111049500Y-113572475D01*
X111087016Y-113712485D01*
X111087017Y-113712488D01*
X111159488Y-113838011D01*
X111159490Y-113838013D01*
X111159491Y-113838015D01*
X111261985Y-113940509D01*
X111261986Y-113940510D01*
X111261988Y-113940511D01*
X111387511Y-114012982D01*
X111387512Y-114012982D01*
X111387515Y-114012984D01*
X111527525Y-114050500D01*
X111527528Y-114050500D01*
X111672472Y-114050500D01*
X111672475Y-114050500D01*
X111812485Y-114012984D01*
X111938015Y-113940509D01*
X112016706Y-113861818D01*
X112078030Y-113828334D01*
X112104387Y-113825500D01*
X114204495Y-113825500D01*
X114271534Y-113845185D01*
X114317289Y-113897989D01*
X114327233Y-113967147D01*
X114298208Y-114030703D01*
X114266496Y-114056886D01*
X114261991Y-114059486D01*
X114261982Y-114059493D01*
X114159493Y-114161982D01*
X114159488Y-114161988D01*
X114087017Y-114287511D01*
X114087016Y-114287515D01*
X114049500Y-114427525D01*
X114049500Y-114572475D01*
X114064251Y-114627525D01*
X114087017Y-114712488D01*
X114159488Y-114838011D01*
X114159490Y-114838013D01*
X114159491Y-114838015D01*
X114261985Y-114940509D01*
X114261986Y-114940510D01*
X114261988Y-114940511D01*
X114387511Y-115012982D01*
X114387512Y-115012982D01*
X114387515Y-115012984D01*
X114527525Y-115050500D01*
X114527528Y-115050500D01*
X114672472Y-115050500D01*
X114672475Y-115050500D01*
X114812485Y-115012984D01*
X114938015Y-114940509D01*
X114941705Y-114936819D01*
X115003028Y-114903334D01*
X115029386Y-114900500D01*
X127170614Y-114900500D01*
X127237653Y-114920185D01*
X127258295Y-114936819D01*
X127261985Y-114940509D01*
X127261986Y-114940510D01*
X127261988Y-114940511D01*
X127387511Y-115012982D01*
X127387512Y-115012982D01*
X127387515Y-115012984D01*
X127527525Y-115050500D01*
X127527528Y-115050500D01*
X127672472Y-115050500D01*
X127672475Y-115050500D01*
X127812485Y-115012984D01*
X127938015Y-114940509D01*
X127941705Y-114936819D01*
X128003028Y-114903334D01*
X128029386Y-114900500D01*
X133675499Y-114900500D01*
X133742538Y-114920185D01*
X133788293Y-114972989D01*
X133799499Y-115024500D01*
X133799499Y-126360767D01*
X133779814Y-126427806D01*
X133727010Y-126473561D01*
X133665771Y-126484385D01*
X133649719Y-126483121D01*
X133180330Y-126952510D01*
X133176022Y-126942110D01*
X133104888Y-126835649D01*
X133014351Y-126745112D01*
X132907890Y-126673978D01*
X132897487Y-126669669D01*
X133366876Y-126200279D01*
X133281347Y-126138139D01*
X133099031Y-126045244D01*
X132904417Y-125982009D01*
X132702317Y-125950000D01*
X132497683Y-125950000D01*
X132295582Y-125982009D01*
X132100968Y-126045244D01*
X131918648Y-126138141D01*
X131833122Y-126200278D01*
X131833122Y-126200279D01*
X132302512Y-126669669D01*
X132292110Y-126673978D01*
X132185649Y-126745112D01*
X132095112Y-126835649D01*
X132023978Y-126942110D01*
X132019669Y-126952512D01*
X131550279Y-126483122D01*
X131550278Y-126483122D01*
X131488141Y-126568648D01*
X131395244Y-126750968D01*
X131332009Y-126945582D01*
X131300000Y-127147682D01*
X131300000Y-127352317D01*
X131332009Y-127554417D01*
X131395244Y-127749031D01*
X131488139Y-127931347D01*
X131550279Y-128016876D01*
X132019668Y-127547487D01*
X132023978Y-127557890D01*
X132095112Y-127664351D01*
X132185649Y-127754888D01*
X132292110Y-127826022D01*
X132302510Y-127830330D01*
X131833121Y-128299719D01*
X131833122Y-128299720D01*
X131918640Y-128361852D01*
X131918649Y-128361858D01*
X132100968Y-128454755D01*
X132295582Y-128517990D01*
X132497683Y-128550000D01*
X132702317Y-128550000D01*
X132904417Y-128517990D01*
X133099031Y-128454755D01*
X133281349Y-128361859D01*
X133366876Y-128299719D01*
X133366877Y-128299718D01*
X132897489Y-127830330D01*
X132907890Y-127826022D01*
X133014351Y-127754888D01*
X133104888Y-127664351D01*
X133176022Y-127557890D01*
X133180330Y-127547488D01*
X133649718Y-128016876D01*
X133665769Y-128015613D01*
X133734146Y-128029977D01*
X133783904Y-128079028D01*
X133799499Y-128139231D01*
X133799499Y-130670614D01*
X133779814Y-130737653D01*
X133763180Y-130758295D01*
X133759492Y-130761982D01*
X133759487Y-130761988D01*
X133687016Y-130887511D01*
X133687015Y-130887515D01*
X133649499Y-131027525D01*
X133649499Y-131172475D01*
X133685174Y-131305613D01*
X133687016Y-131312488D01*
X133759487Y-131438011D01*
X133759489Y-131438013D01*
X133759490Y-131438015D01*
X133861984Y-131540509D01*
X133861985Y-131540510D01*
X133861987Y-131540511D01*
X133987510Y-131612982D01*
X133987511Y-131612982D01*
X133987514Y-131612984D01*
X134127524Y-131650500D01*
X134127527Y-131650500D01*
X134272471Y-131650500D01*
X134272474Y-131650500D01*
X134412484Y-131612984D01*
X134538014Y-131540509D01*
X134541704Y-131536819D01*
X134603027Y-131503334D01*
X134629385Y-131500500D01*
X152970614Y-131500500D01*
X153037653Y-131520185D01*
X153058295Y-131536819D01*
X153061985Y-131540509D01*
X153061986Y-131540510D01*
X153061988Y-131540511D01*
X153187511Y-131612982D01*
X153187512Y-131612982D01*
X153187515Y-131612984D01*
X153327525Y-131650500D01*
X153327528Y-131650500D01*
X153472472Y-131650500D01*
X153472475Y-131650500D01*
X153612485Y-131612984D01*
X153738015Y-131540509D01*
X153840509Y-131438015D01*
X153912984Y-131312485D01*
X153950500Y-131172475D01*
X153950500Y-131027525D01*
X153912984Y-130887515D01*
X153840509Y-130761985D01*
X153738015Y-130659491D01*
X153738013Y-130659490D01*
X153738011Y-130659488D01*
X153612488Y-130587017D01*
X153612489Y-130587017D01*
X153601006Y-130583940D01*
X153472475Y-130549500D01*
X153327525Y-130549500D01*
X153198993Y-130583940D01*
X153187511Y-130587017D01*
X153061988Y-130659488D01*
X153061982Y-130659493D01*
X153058295Y-130663181D01*
X152996972Y-130696666D01*
X152970614Y-130699500D01*
X134724499Y-130699500D01*
X134715813Y-130696949D01*
X134706852Y-130698238D01*
X134682811Y-130687259D01*
X134657460Y-130679815D01*
X134651532Y-130672974D01*
X134643296Y-130669213D01*
X134629006Y-130646978D01*
X134611705Y-130627011D01*
X134609417Y-130616496D01*
X134605522Y-130610435D01*
X134600499Y-130575500D01*
X134600499Y-130336824D01*
X165094500Y-130336824D01*
X165094500Y-130663175D01*
X165131035Y-130987441D01*
X165131038Y-130987455D01*
X165203655Y-131305612D01*
X165203656Y-131305614D01*
X165311438Y-131613640D01*
X165453030Y-131907657D01*
X165453032Y-131907660D01*
X165626654Y-132183979D01*
X165830123Y-132439121D01*
X166060879Y-132669877D01*
X166316021Y-132873346D01*
X166592340Y-133046968D01*
X166886361Y-133188562D01*
X167194387Y-133296344D01*
X167512544Y-133368962D01*
X167512553Y-133368963D01*
X167512558Y-133368964D01*
X167728735Y-133393320D01*
X167836825Y-133405499D01*
X167836828Y-133405500D01*
X167836831Y-133405500D01*
X168163172Y-133405500D01*
X168163173Y-133405499D01*
X168328900Y-133386826D01*
X168487441Y-133368964D01*
X168487444Y-133368963D01*
X168487456Y-133368962D01*
X168805613Y-133296344D01*
X169113639Y-133188562D01*
X169407660Y-133046968D01*
X169683979Y-132873346D01*
X169939121Y-132669877D01*
X170169877Y-132439121D01*
X170373346Y-132183979D01*
X170546968Y-131907660D01*
X170688562Y-131613639D01*
X170796344Y-131305613D01*
X170868962Y-130987456D01*
X170905500Y-130663169D01*
X170905500Y-130336831D01*
X170868962Y-130012544D01*
X170796344Y-129694387D01*
X170688562Y-129386361D01*
X170546968Y-129092340D01*
X170373346Y-128816021D01*
X170169877Y-128560879D01*
X169939121Y-128330123D01*
X169683979Y-128126654D01*
X169407660Y-127953032D01*
X169407657Y-127953030D01*
X169113640Y-127811438D01*
X168805614Y-127703656D01*
X168805612Y-127703655D01*
X168560073Y-127647612D01*
X168487456Y-127631038D01*
X168487453Y-127631037D01*
X168487441Y-127631035D01*
X168163175Y-127594500D01*
X168163169Y-127594500D01*
X167836831Y-127594500D01*
X167836824Y-127594500D01*
X167512558Y-127631035D01*
X167512544Y-127631038D01*
X167194387Y-127703655D01*
X167194385Y-127703656D01*
X166886359Y-127811438D01*
X166592342Y-127953030D01*
X166316022Y-128126653D01*
X166060879Y-128330122D01*
X165830122Y-128560879D01*
X165626653Y-128816022D01*
X165453030Y-129092342D01*
X165311438Y-129386359D01*
X165203656Y-129694385D01*
X165203655Y-129694387D01*
X165131038Y-130012544D01*
X165131035Y-130012558D01*
X165094500Y-130336824D01*
X134600499Y-130336824D01*
X134600499Y-126105513D01*
X144399500Y-126105513D01*
X144399500Y-126294486D01*
X144429059Y-126481118D01*
X144487454Y-126660836D01*
X144533379Y-126750968D01*
X144573240Y-126829199D01*
X144684310Y-126982073D01*
X144817927Y-127115690D01*
X144970801Y-127226760D01*
X145050347Y-127267290D01*
X145139163Y-127312545D01*
X145139165Y-127312545D01*
X145139168Y-127312547D01*
X145235497Y-127343846D01*
X145318881Y-127370940D01*
X145505514Y-127400500D01*
X145505519Y-127400500D01*
X145694486Y-127400500D01*
X145881118Y-127370940D01*
X145938433Y-127352317D01*
X146060832Y-127312547D01*
X146229199Y-127226760D01*
X146338040Y-127147682D01*
X151300000Y-127147682D01*
X151300000Y-127352317D01*
X151332009Y-127554417D01*
X151395244Y-127749031D01*
X151488139Y-127931347D01*
X151550279Y-128016876D01*
X152019668Y-127547487D01*
X152023978Y-127557890D01*
X152095112Y-127664351D01*
X152185649Y-127754888D01*
X152292110Y-127826022D01*
X152302510Y-127830330D01*
X151833121Y-128299719D01*
X151833122Y-128299720D01*
X151918640Y-128361852D01*
X151918649Y-128361858D01*
X152100968Y-128454755D01*
X152295582Y-128517990D01*
X152497683Y-128550000D01*
X152702317Y-128550000D01*
X152904417Y-128517990D01*
X153099031Y-128454755D01*
X153281349Y-128361859D01*
X153366876Y-128299719D01*
X153366877Y-128299718D01*
X152897489Y-127830330D01*
X152907890Y-127826022D01*
X153014351Y-127754888D01*
X153104888Y-127664351D01*
X153176022Y-127557890D01*
X153180330Y-127547488D01*
X153649718Y-128016877D01*
X153649719Y-128016876D01*
X153711859Y-127931349D01*
X153804755Y-127749031D01*
X153867990Y-127554417D01*
X153900000Y-127352317D01*
X153900000Y-127147682D01*
X153867990Y-126945582D01*
X153804755Y-126750968D01*
X153711858Y-126568649D01*
X153711852Y-126568640D01*
X153649720Y-126483122D01*
X153649719Y-126483121D01*
X153180330Y-126952510D01*
X153176022Y-126942110D01*
X153104888Y-126835649D01*
X153014351Y-126745112D01*
X152907890Y-126673978D01*
X152897487Y-126669669D01*
X153366876Y-126200279D01*
X153281347Y-126138139D01*
X153099031Y-126045244D01*
X152904417Y-125982009D01*
X152702317Y-125950000D01*
X152497683Y-125950000D01*
X152295582Y-125982009D01*
X152100968Y-126045244D01*
X151918648Y-126138141D01*
X151833122Y-126200278D01*
X151833122Y-126200279D01*
X152302512Y-126669669D01*
X152292110Y-126673978D01*
X152185649Y-126745112D01*
X152095112Y-126835649D01*
X152023978Y-126942110D01*
X152019669Y-126952512D01*
X151550279Y-126483122D01*
X151550278Y-126483122D01*
X151488141Y-126568648D01*
X151395244Y-126750968D01*
X151332009Y-126945582D01*
X151300000Y-127147682D01*
X146338040Y-127147682D01*
X146382073Y-127115690D01*
X146515690Y-126982073D01*
X146626760Y-126829199D01*
X146712547Y-126660832D01*
X146770940Y-126481118D01*
X146779384Y-126427806D01*
X146800500Y-126294486D01*
X146800500Y-126105513D01*
X146770940Y-125918881D01*
X146712545Y-125739163D01*
X146626759Y-125570800D01*
X146515690Y-125417927D01*
X146382073Y-125284310D01*
X146229199Y-125173240D01*
X146060836Y-125087454D01*
X145881118Y-125029059D01*
X145694486Y-124999500D01*
X145694481Y-124999500D01*
X145505519Y-124999500D01*
X145505514Y-124999500D01*
X145318881Y-125029059D01*
X145139163Y-125087454D01*
X144970800Y-125173240D01*
X144883579Y-125236610D01*
X144817927Y-125284310D01*
X144817925Y-125284312D01*
X144817924Y-125284312D01*
X144684312Y-125417924D01*
X144684312Y-125417925D01*
X144684310Y-125417927D01*
X144636610Y-125483579D01*
X144573240Y-125570800D01*
X144487454Y-125739163D01*
X144429059Y-125918881D01*
X144399500Y-126105513D01*
X134600499Y-126105513D01*
X134600499Y-121336824D01*
X147094500Y-121336824D01*
X147094500Y-121663175D01*
X147131035Y-121987441D01*
X147131038Y-121987455D01*
X147203655Y-122305612D01*
X147203656Y-122305614D01*
X147311438Y-122613640D01*
X147453030Y-122907657D01*
X147453032Y-122907660D01*
X147626654Y-123183979D01*
X147830123Y-123439121D01*
X148060879Y-123669877D01*
X148316021Y-123873346D01*
X148592340Y-124046968D01*
X148886361Y-124188562D01*
X149194387Y-124296344D01*
X149512544Y-124368962D01*
X149512553Y-124368963D01*
X149512558Y-124368964D01*
X149728735Y-124393320D01*
X149836825Y-124405499D01*
X149836828Y-124405500D01*
X149836831Y-124405500D01*
X150163172Y-124405500D01*
X150163173Y-124405499D01*
X150328900Y-124386826D01*
X150487441Y-124368964D01*
X150487444Y-124368963D01*
X150487456Y-124368962D01*
X150805613Y-124296344D01*
X151113639Y-124188562D01*
X151407660Y-124046968D01*
X151683979Y-123873346D01*
X151939121Y-123669877D01*
X152169877Y-123439121D01*
X152373346Y-123183979D01*
X152546968Y-122907660D01*
X152688562Y-122613639D01*
X152796344Y-122305613D01*
X152868962Y-121987456D01*
X152905500Y-121663169D01*
X152905500Y-121336831D01*
X152868962Y-121012544D01*
X152796344Y-120694387D01*
X152688562Y-120386361D01*
X152546968Y-120092340D01*
X152373346Y-119816021D01*
X152169877Y-119560879D01*
X151939121Y-119330123D01*
X151683979Y-119126654D01*
X151407660Y-118953032D01*
X151407657Y-118953030D01*
X151113640Y-118811438D01*
X150805614Y-118703656D01*
X150805612Y-118703655D01*
X150560073Y-118647612D01*
X150487456Y-118631038D01*
X150487453Y-118631037D01*
X150487441Y-118631035D01*
X150163175Y-118594500D01*
X150163169Y-118594500D01*
X149836831Y-118594500D01*
X149836824Y-118594500D01*
X149512558Y-118631035D01*
X149512544Y-118631038D01*
X149194387Y-118703655D01*
X149194385Y-118703656D01*
X148886359Y-118811438D01*
X148592342Y-118953030D01*
X148316022Y-119126653D01*
X148060879Y-119330122D01*
X147830122Y-119560879D01*
X147626653Y-119816022D01*
X147453030Y-120092342D01*
X147311438Y-120386359D01*
X147203656Y-120694385D01*
X147203655Y-120694387D01*
X147131038Y-121012544D01*
X147131035Y-121012558D01*
X147094500Y-121336824D01*
X134600499Y-121336824D01*
X134600499Y-117105513D01*
X162399500Y-117105513D01*
X162399500Y-117294486D01*
X162429059Y-117481118D01*
X162487454Y-117660836D01*
X162533379Y-117750968D01*
X162573240Y-117829199D01*
X162684310Y-117982073D01*
X162817927Y-118115690D01*
X162970801Y-118226760D01*
X163050347Y-118267290D01*
X163139163Y-118312545D01*
X163139165Y-118312545D01*
X163139168Y-118312547D01*
X163235497Y-118343846D01*
X163318881Y-118370940D01*
X163505514Y-118400500D01*
X163505519Y-118400500D01*
X163694486Y-118400500D01*
X163881118Y-118370940D01*
X163938433Y-118352317D01*
X164060832Y-118312547D01*
X164229199Y-118226760D01*
X164338040Y-118147682D01*
X169300000Y-118147682D01*
X169300000Y-118352317D01*
X169332009Y-118554417D01*
X169395244Y-118749031D01*
X169488139Y-118931347D01*
X169550279Y-119016876D01*
X170019668Y-118547487D01*
X170023978Y-118557890D01*
X170095112Y-118664351D01*
X170185649Y-118754888D01*
X170292110Y-118826022D01*
X170302510Y-118830330D01*
X169833121Y-119299719D01*
X169833122Y-119299720D01*
X169918640Y-119361852D01*
X169918649Y-119361858D01*
X170100968Y-119454755D01*
X170295582Y-119517990D01*
X170497683Y-119550000D01*
X170702317Y-119550000D01*
X170904417Y-119517990D01*
X171099031Y-119454755D01*
X171281349Y-119361859D01*
X171366876Y-119299719D01*
X171366877Y-119299718D01*
X170897489Y-118830330D01*
X170907890Y-118826022D01*
X171014351Y-118754888D01*
X171104888Y-118664351D01*
X171176022Y-118557890D01*
X171180330Y-118547488D01*
X171649718Y-119016877D01*
X171649719Y-119016876D01*
X171711859Y-118931349D01*
X171804755Y-118749031D01*
X171867990Y-118554417D01*
X171900000Y-118352317D01*
X171900000Y-118147682D01*
X171867990Y-117945582D01*
X171804755Y-117750968D01*
X171711858Y-117568649D01*
X171711852Y-117568640D01*
X171649720Y-117483122D01*
X171649719Y-117483121D01*
X171180330Y-117952510D01*
X171176022Y-117942110D01*
X171104888Y-117835649D01*
X171014351Y-117745112D01*
X170907890Y-117673978D01*
X170897487Y-117669669D01*
X171366876Y-117200279D01*
X171281347Y-117138139D01*
X171099031Y-117045244D01*
X170904417Y-116982009D01*
X170702317Y-116950000D01*
X170497683Y-116950000D01*
X170295582Y-116982009D01*
X170100968Y-117045244D01*
X169918648Y-117138141D01*
X169833122Y-117200278D01*
X169833122Y-117200279D01*
X170302512Y-117669669D01*
X170292110Y-117673978D01*
X170185649Y-117745112D01*
X170095112Y-117835649D01*
X170023978Y-117942110D01*
X170019669Y-117952512D01*
X169550279Y-117483122D01*
X169550278Y-117483122D01*
X169488141Y-117568648D01*
X169395244Y-117750968D01*
X169332009Y-117945582D01*
X169300000Y-118147682D01*
X164338040Y-118147682D01*
X164382073Y-118115690D01*
X164515690Y-117982073D01*
X164626760Y-117829199D01*
X164712547Y-117660832D01*
X164770940Y-117481118D01*
X164800500Y-117294486D01*
X164800500Y-117105513D01*
X164770940Y-116918881D01*
X164712545Y-116739163D01*
X164626759Y-116570800D01*
X164515690Y-116417927D01*
X164382073Y-116284310D01*
X164229199Y-116173240D01*
X164060836Y-116087454D01*
X163881118Y-116029059D01*
X163694486Y-115999500D01*
X163694481Y-115999500D01*
X163505519Y-115999500D01*
X163505514Y-115999500D01*
X163318881Y-116029059D01*
X163139163Y-116087454D01*
X162970800Y-116173240D01*
X162883579Y-116236610D01*
X162817927Y-116284310D01*
X162817925Y-116284312D01*
X162817924Y-116284312D01*
X162684312Y-116417924D01*
X162684312Y-116417925D01*
X162684310Y-116417927D01*
X162636610Y-116483579D01*
X162573240Y-116570800D01*
X162487454Y-116739163D01*
X162429059Y-116918881D01*
X162399500Y-117105513D01*
X134600499Y-117105513D01*
X134600499Y-115024500D01*
X134620184Y-114957461D01*
X134672988Y-114911706D01*
X134724499Y-114900500D01*
X143570614Y-114900500D01*
X143637653Y-114920185D01*
X143658295Y-114936819D01*
X143661985Y-114940509D01*
X143661986Y-114940510D01*
X143661988Y-114940511D01*
X143787511Y-115012982D01*
X143787512Y-115012982D01*
X143787515Y-115012984D01*
X143927525Y-115050500D01*
X143927528Y-115050500D01*
X144072472Y-115050500D01*
X144072475Y-115050500D01*
X144212485Y-115012984D01*
X144338015Y-114940509D01*
X144440509Y-114838015D01*
X144512984Y-114712485D01*
X144550500Y-114572475D01*
X144550500Y-114427525D01*
X144512984Y-114287515D01*
X144496804Y-114259491D01*
X144440511Y-114161988D01*
X144440506Y-114161982D01*
X144338017Y-114059493D01*
X144338015Y-114059491D01*
X144338012Y-114059489D01*
X144338008Y-114059486D01*
X144333504Y-114056886D01*
X144285289Y-114006319D01*
X144272067Y-113937712D01*
X144298035Y-113872847D01*
X144354950Y-113832319D01*
X144395505Y-113825500D01*
X147895613Y-113825500D01*
X147962652Y-113845185D01*
X147983294Y-113861818D01*
X148061985Y-113940509D01*
X148061987Y-113940510D01*
X148061988Y-113940511D01*
X148187511Y-114012982D01*
X148187512Y-114012982D01*
X148187515Y-114012984D01*
X148327525Y-114050500D01*
X148327528Y-114050500D01*
X148472472Y-114050500D01*
X148472475Y-114050500D01*
X148612485Y-114012984D01*
X148738015Y-113940509D01*
X148840509Y-113838015D01*
X148912984Y-113712485D01*
X148950500Y-113572475D01*
X148950500Y-113427525D01*
X148912984Y-113287515D01*
X148846620Y-113172570D01*
X148840511Y-113161988D01*
X148840506Y-113161982D01*
X148738017Y-113059493D01*
X148738015Y-113059491D01*
X148738012Y-113059489D01*
X148738008Y-113059486D01*
X148733504Y-113056886D01*
X148685289Y-113006319D01*
X148672067Y-112937712D01*
X148698035Y-112872847D01*
X148754950Y-112832319D01*
X148795505Y-112825500D01*
X154495613Y-112825500D01*
X154562652Y-112845185D01*
X154583294Y-112861818D01*
X154661985Y-112940509D01*
X154661987Y-112940510D01*
X154661988Y-112940511D01*
X154787511Y-113012982D01*
X154787512Y-113012982D01*
X154787515Y-113012984D01*
X154927525Y-113050500D01*
X154927528Y-113050500D01*
X155072472Y-113050500D01*
X155072475Y-113050500D01*
X155212485Y-113012984D01*
X155338015Y-112940509D01*
X155440509Y-112838015D01*
X155512984Y-112712485D01*
X155550500Y-112572475D01*
X155550500Y-112427525D01*
X155550499Y-112427522D01*
X155550165Y-112424985D01*
X155550500Y-112422835D01*
X155550500Y-112419398D01*
X155551036Y-112419398D01*
X155560926Y-112355949D01*
X155607303Y-112303690D01*
X155674571Y-112284801D01*
X155741372Y-112305277D01*
X155760784Y-112321111D01*
X158339534Y-114899861D01*
X158339535Y-114899862D01*
X158400138Y-114960465D01*
X158400140Y-114960466D01*
X158400144Y-114960469D01*
X158421830Y-114972989D01*
X158474362Y-115003318D01*
X158557147Y-115025500D01*
X158642853Y-115025500D01*
X164895613Y-115025500D01*
X164962652Y-115045185D01*
X164983294Y-115061818D01*
X165061985Y-115140509D01*
X165061987Y-115140510D01*
X165061988Y-115140511D01*
X165187511Y-115212982D01*
X165187512Y-115212982D01*
X165187515Y-115212984D01*
X165327525Y-115250500D01*
X165327528Y-115250500D01*
X165472472Y-115250500D01*
X165472475Y-115250500D01*
X165612485Y-115212984D01*
X165738015Y-115140509D01*
X165840509Y-115038015D01*
X165912984Y-114912485D01*
X165943567Y-114798346D01*
X165979931Y-114738688D01*
X166042778Y-114708159D01*
X166112153Y-114716454D01*
X166140651Y-114733493D01*
X166316021Y-114873346D01*
X166592340Y-115046968D01*
X166886361Y-115188562D01*
X167194387Y-115296344D01*
X167512544Y-115368962D01*
X167512553Y-115368963D01*
X167512558Y-115368964D01*
X167728735Y-115393320D01*
X167836825Y-115405499D01*
X167836828Y-115405500D01*
X167836831Y-115405500D01*
X168163172Y-115405500D01*
X168163173Y-115405499D01*
X168328900Y-115386826D01*
X168487441Y-115368964D01*
X168487444Y-115368963D01*
X168487456Y-115368962D01*
X168805613Y-115296344D01*
X169113639Y-115188562D01*
X169407660Y-115046968D01*
X169683979Y-114873346D01*
X169939121Y-114669877D01*
X170169877Y-114439121D01*
X170373346Y-114183979D01*
X170546968Y-113907660D01*
X170688562Y-113613639D01*
X170796344Y-113305613D01*
X170868962Y-112987456D01*
X170869012Y-112987017D01*
X170905499Y-112663175D01*
X170905500Y-112663171D01*
X170905500Y-112336828D01*
X170905499Y-112336824D01*
X170868964Y-112012558D01*
X170868963Y-112012553D01*
X170868962Y-112012544D01*
X170796344Y-111694387D01*
X170688562Y-111386361D01*
X170580509Y-111161988D01*
X170546969Y-111092342D01*
X170546968Y-111092340D01*
X170373346Y-110816021D01*
X170169877Y-110560879D01*
X169939121Y-110330123D01*
X169917007Y-110312488D01*
X169796201Y-110216148D01*
X169683979Y-110126654D01*
X169461747Y-109987017D01*
X169407657Y-109953030D01*
X169113640Y-109811438D01*
X168805614Y-109703656D01*
X168805612Y-109703655D01*
X168554914Y-109646435D01*
X168487456Y-109631038D01*
X168487453Y-109631037D01*
X168487441Y-109631035D01*
X168163175Y-109594500D01*
X168163169Y-109594500D01*
X167836831Y-109594500D01*
X167836824Y-109594500D01*
X167512558Y-109631035D01*
X167512544Y-109631038D01*
X167194387Y-109703655D01*
X167194385Y-109703656D01*
X166886359Y-109811438D01*
X166592342Y-109953030D01*
X166316022Y-110126653D01*
X166060879Y-110330122D01*
X165830122Y-110560879D01*
X165626653Y-110816022D01*
X165453030Y-111092342D01*
X165311438Y-111386359D01*
X165203656Y-111694385D01*
X165203655Y-111694387D01*
X165131038Y-112012544D01*
X165131035Y-112012558D01*
X165094500Y-112336824D01*
X165094500Y-112663175D01*
X165131035Y-112987441D01*
X165131037Y-112987453D01*
X165131038Y-112987456D01*
X165136861Y-113012969D01*
X165203655Y-113305612D01*
X165203656Y-113305614D01*
X165311438Y-113613640D01*
X165453030Y-113907657D01*
X165453032Y-113907660D01*
X165473670Y-113940506D01*
X165485623Y-113959528D01*
X165504623Y-114026765D01*
X165484255Y-114093600D01*
X165430987Y-114138814D01*
X165380629Y-114149500D01*
X165327525Y-114149500D01*
X165198993Y-114183940D01*
X165187511Y-114187017D01*
X165061988Y-114259488D01*
X164983294Y-114338182D01*
X164921970Y-114371666D01*
X164895613Y-114374500D01*
X158786189Y-114374500D01*
X158719150Y-114354815D01*
X158698508Y-114338181D01*
X155599864Y-111239537D01*
X155599862Y-111239535D01*
X155562750Y-111218108D01*
X155525640Y-111196682D01*
X155484246Y-111185591D01*
X155442853Y-111174500D01*
X155442852Y-111174500D01*
X153995505Y-111174500D01*
X153928466Y-111154815D01*
X153882711Y-111102011D01*
X153872767Y-111032853D01*
X153901792Y-110969297D01*
X153933504Y-110943114D01*
X153938008Y-110940513D01*
X153938007Y-110940513D01*
X153938015Y-110940509D01*
X154040509Y-110838015D01*
X154112984Y-110712485D01*
X154150500Y-110572475D01*
X154150500Y-110427525D01*
X154112984Y-110287515D01*
X154046565Y-110172475D01*
X154040511Y-110161988D01*
X154040506Y-110161982D01*
X153938017Y-110059493D01*
X153938011Y-110059488D01*
X153812488Y-109987017D01*
X153812489Y-109987017D01*
X153801006Y-109983940D01*
X153672475Y-109949500D01*
X153527525Y-109949500D01*
X153398993Y-109983940D01*
X153387511Y-109987017D01*
X153261988Y-110059488D01*
X153183294Y-110138182D01*
X153121970Y-110171666D01*
X153095613Y-110174500D01*
X133504387Y-110174500D01*
X133437348Y-110154815D01*
X133416706Y-110138182D01*
X133383062Y-110104538D01*
X133338015Y-110059491D01*
X133338012Y-110059489D01*
X133338011Y-110059488D01*
X133212488Y-109987017D01*
X133212489Y-109987017D01*
X133201006Y-109983940D01*
X133072475Y-109949500D01*
X132927525Y-109949500D01*
X132901091Y-109956583D01*
X132831241Y-109954918D01*
X132773379Y-109915754D01*
X132745877Y-109851525D01*
X132745000Y-109836807D01*
X132745000Y-109807757D01*
X132712912Y-109646445D01*
X132712909Y-109646435D01*
X132649969Y-109494483D01*
X132649964Y-109494474D01*
X132625291Y-109457550D01*
X132625290Y-109457549D01*
X132255544Y-109827294D01*
X132236148Y-109754905D01*
X132190070Y-109675095D01*
X132124905Y-109609930D01*
X132045095Y-109563852D01*
X131972703Y-109544454D01*
X132262158Y-109255000D01*
X131972703Y-108965545D01*
X132045095Y-108946148D01*
X132124905Y-108900070D01*
X132190070Y-108834905D01*
X132236148Y-108755095D01*
X132255545Y-108682704D01*
X132625290Y-109052449D01*
X132649967Y-109015520D01*
X132649970Y-109015513D01*
X132712909Y-108863564D01*
X132712912Y-108863554D01*
X132745000Y-108702242D01*
X132745000Y-108537757D01*
X132712912Y-108376445D01*
X132712909Y-108376435D01*
X132649969Y-108224483D01*
X132649964Y-108224474D01*
X132625291Y-108187550D01*
X132625290Y-108187549D01*
X132255545Y-108557295D01*
X132236148Y-108484905D01*
X132190070Y-108405095D01*
X132124905Y-108339930D01*
X132045095Y-108293852D01*
X131972703Y-108274454D01*
X132262158Y-107985000D01*
X131972703Y-107695545D01*
X132045095Y-107676148D01*
X132124905Y-107630070D01*
X132190070Y-107564905D01*
X132236148Y-107485095D01*
X132255545Y-107412704D01*
X132625290Y-107782449D01*
X132649967Y-107745520D01*
X132649970Y-107745513D01*
X132712909Y-107593564D01*
X132712912Y-107593554D01*
X132745000Y-107432242D01*
X132745000Y-107267757D01*
X132712912Y-107106445D01*
X132712911Y-107106444D01*
X132696512Y-107066850D01*
X132696511Y-107066848D01*
X132680223Y-107027525D01*
X144849500Y-107027525D01*
X144849500Y-107172475D01*
X144875031Y-107267757D01*
X144887017Y-107312488D01*
X144959488Y-107438011D01*
X144959490Y-107438013D01*
X144959491Y-107438015D01*
X145061985Y-107540509D01*
X145061986Y-107540510D01*
X145061988Y-107540511D01*
X145187511Y-107612982D01*
X145187512Y-107612982D01*
X145187515Y-107612984D01*
X145327525Y-107650500D01*
X145327528Y-107650500D01*
X145472472Y-107650500D01*
X145472475Y-107650500D01*
X145612485Y-107612984D01*
X145738015Y-107540509D01*
X145741705Y-107536819D01*
X145803028Y-107503334D01*
X145829386Y-107500500D01*
X149252725Y-107500500D01*
X149252727Y-107500500D01*
X149354588Y-107473207D01*
X149445913Y-107420480D01*
X149779574Y-107086819D01*
X149840897Y-107053334D01*
X149867255Y-107050500D01*
X149872472Y-107050500D01*
X149872475Y-107050500D01*
X150012485Y-107012984D01*
X150138015Y-106940509D01*
X150141705Y-106936819D01*
X150203028Y-106903334D01*
X150229386Y-106900500D01*
X153452725Y-106900500D01*
X153452727Y-106900500D01*
X153554588Y-106873207D01*
X153645913Y-106820480D01*
X155329573Y-105136818D01*
X155390896Y-105103334D01*
X155417254Y-105100500D01*
X167370614Y-105100500D01*
X167437653Y-105120185D01*
X167458295Y-105136819D01*
X167461985Y-105140509D01*
X167461986Y-105140510D01*
X167461988Y-105140511D01*
X167587511Y-105212982D01*
X167587512Y-105212982D01*
X167587515Y-105212984D01*
X167727525Y-105250500D01*
X167727528Y-105250500D01*
X167872472Y-105250500D01*
X167872475Y-105250500D01*
X168012485Y-105212984D01*
X168138015Y-105140509D01*
X168240509Y-105038015D01*
X168312984Y-104912485D01*
X168350500Y-104772475D01*
X168350500Y-104627525D01*
X168312984Y-104487515D01*
X168293684Y-104454087D01*
X168240511Y-104361988D01*
X168240506Y-104361982D01*
X168138017Y-104259493D01*
X168138011Y-104259488D01*
X168012488Y-104187017D01*
X168012489Y-104187017D01*
X167970843Y-104175858D01*
X167872475Y-104149500D01*
X167727525Y-104149500D01*
X167629157Y-104175858D01*
X167587511Y-104187017D01*
X167461988Y-104259488D01*
X167461982Y-104259493D01*
X167458295Y-104263181D01*
X167396972Y-104296666D01*
X167370614Y-104299500D01*
X156474500Y-104299500D01*
X156407461Y-104279815D01*
X156361706Y-104227011D01*
X156350500Y-104175500D01*
X156350500Y-104027527D01*
X156350500Y-104027525D01*
X156312984Y-103887515D01*
X156246565Y-103772475D01*
X156240511Y-103761988D01*
X156240506Y-103761982D01*
X156138017Y-103659493D01*
X156138015Y-103659491D01*
X156012485Y-103587016D01*
X155872475Y-103549500D01*
X155727525Y-103549500D01*
X155598993Y-103583940D01*
X155587511Y-103587017D01*
X155461988Y-103659488D01*
X155461982Y-103659493D01*
X155359493Y-103761982D01*
X155359488Y-103761988D01*
X155287017Y-103887511D01*
X155287016Y-103887515D01*
X155249500Y-104027525D01*
X155249500Y-104027527D01*
X155249500Y-104032744D01*
X155229815Y-104099783D01*
X155213181Y-104120425D01*
X154947017Y-104386588D01*
X154947018Y-104386589D01*
X154879520Y-104454087D01*
X153270426Y-106063181D01*
X153209103Y-106096666D01*
X153182745Y-106099500D01*
X150229386Y-106099500D01*
X150162347Y-106079815D01*
X150141705Y-106063181D01*
X150138017Y-106059493D01*
X150138011Y-106059488D01*
X150012488Y-105987017D01*
X150012489Y-105987017D01*
X150001006Y-105983940D01*
X149872475Y-105949500D01*
X149727525Y-105949500D01*
X149598993Y-105983940D01*
X149587511Y-105987017D01*
X149461988Y-106059488D01*
X149461982Y-106059493D01*
X149359493Y-106161982D01*
X149359488Y-106161988D01*
X149287017Y-106287511D01*
X149287016Y-106287515D01*
X149249500Y-106427525D01*
X149249500Y-106427527D01*
X149249500Y-106432745D01*
X149240855Y-106462185D01*
X149234332Y-106492172D01*
X149230577Y-106497187D01*
X149229815Y-106499784D01*
X149213181Y-106520426D01*
X149070426Y-106663181D01*
X149009103Y-106696666D01*
X148982745Y-106699500D01*
X145829386Y-106699500D01*
X145762347Y-106679815D01*
X145741705Y-106663181D01*
X145738017Y-106659493D01*
X145738011Y-106659488D01*
X145612488Y-106587017D01*
X145612489Y-106587017D01*
X145601006Y-106583940D01*
X145472475Y-106549500D01*
X145327525Y-106549500D01*
X145198993Y-106583940D01*
X145187511Y-106587017D01*
X145061988Y-106659488D01*
X145061982Y-106659493D01*
X144959493Y-106761982D01*
X144959488Y-106761988D01*
X144887017Y-106887511D01*
X144887016Y-106887515D01*
X144849500Y-107027525D01*
X132680223Y-107027525D01*
X132649967Y-106954480D01*
X132649964Y-106954474D01*
X132625291Y-106917550D01*
X132625290Y-106917549D01*
X132255545Y-107287295D01*
X132236148Y-107214905D01*
X132190070Y-107135095D01*
X132124905Y-107069930D01*
X132045095Y-107023852D01*
X131972703Y-107004454D01*
X132262158Y-106715000D01*
X131972703Y-106425545D01*
X132045095Y-106406148D01*
X132124905Y-106360070D01*
X132190070Y-106294905D01*
X132236148Y-106215095D01*
X132255545Y-106142704D01*
X132625290Y-106512449D01*
X132649967Y-106475520D01*
X132649970Y-106475513D01*
X132712909Y-106323564D01*
X132712912Y-106323554D01*
X132745000Y-106162242D01*
X132745000Y-105997757D01*
X132712912Y-105836445D01*
X132712909Y-105836435D01*
X132649969Y-105684483D01*
X132649965Y-105684475D01*
X132625291Y-105647550D01*
X132625290Y-105647549D01*
X132255545Y-106017295D01*
X132236148Y-105944905D01*
X132190070Y-105865095D01*
X132124905Y-105799930D01*
X132045095Y-105753852D01*
X131972703Y-105734454D01*
X132079632Y-105627525D01*
X144849500Y-105627525D01*
X144849500Y-105772475D01*
X144866641Y-105836445D01*
X144887017Y-105912488D01*
X144959488Y-106038011D01*
X144959490Y-106038013D01*
X144959491Y-106038015D01*
X145061985Y-106140509D01*
X145061986Y-106140510D01*
X145061988Y-106140511D01*
X145187511Y-106212982D01*
X145187512Y-106212982D01*
X145187515Y-106212984D01*
X145327525Y-106250500D01*
X145327528Y-106250500D01*
X145472472Y-106250500D01*
X145472475Y-106250500D01*
X145612485Y-106212984D01*
X145738015Y-106140509D01*
X145816706Y-106061818D01*
X145878030Y-106028334D01*
X145904387Y-106025500D01*
X147895613Y-106025500D01*
X147962652Y-106045185D01*
X147983294Y-106061818D01*
X148061985Y-106140509D01*
X148061987Y-106140510D01*
X148061988Y-106140511D01*
X148187511Y-106212982D01*
X148187512Y-106212982D01*
X148187515Y-106212984D01*
X148327525Y-106250500D01*
X148327528Y-106250500D01*
X148472472Y-106250500D01*
X148472475Y-106250500D01*
X148612485Y-106212984D01*
X148738015Y-106140509D01*
X148840509Y-106038015D01*
X148912984Y-105912485D01*
X148950500Y-105772475D01*
X148950500Y-105627525D01*
X148912984Y-105487515D01*
X148898442Y-105462328D01*
X148840511Y-105361988D01*
X148840506Y-105361982D01*
X148738017Y-105259493D01*
X148738011Y-105259488D01*
X148612488Y-105187017D01*
X148612489Y-105187017D01*
X148601006Y-105183940D01*
X148472475Y-105149500D01*
X148327525Y-105149500D01*
X148198993Y-105183940D01*
X148187511Y-105187017D01*
X148061988Y-105259488D01*
X147983294Y-105338182D01*
X147921970Y-105371666D01*
X147895613Y-105374500D01*
X145904387Y-105374500D01*
X145837348Y-105354815D01*
X145816706Y-105338182D01*
X145784481Y-105305957D01*
X145738015Y-105259491D01*
X145738012Y-105259489D01*
X145738011Y-105259488D01*
X145612488Y-105187017D01*
X145612489Y-105187017D01*
X145601006Y-105183940D01*
X145472475Y-105149500D01*
X145327525Y-105149500D01*
X145198993Y-105183940D01*
X145187511Y-105187017D01*
X145061988Y-105259488D01*
X145061982Y-105259493D01*
X144959493Y-105361982D01*
X144959488Y-105361988D01*
X144887017Y-105487511D01*
X144887016Y-105487515D01*
X144849500Y-105627525D01*
X132079632Y-105627525D01*
X132262158Y-105445000D01*
X131972703Y-105155545D01*
X132045095Y-105136148D01*
X132124905Y-105090070D01*
X132190070Y-105024905D01*
X132236148Y-104945095D01*
X132255545Y-104872704D01*
X132625290Y-105242449D01*
X132649967Y-105205520D01*
X132649970Y-105205513D01*
X132712909Y-105053564D01*
X132712912Y-105053554D01*
X132745000Y-104892242D01*
X132745000Y-104727757D01*
X132712912Y-104566445D01*
X132712909Y-104566435D01*
X132649969Y-104414483D01*
X132649964Y-104414474D01*
X132625291Y-104377550D01*
X132625290Y-104377549D01*
X132255545Y-104747295D01*
X132236148Y-104674905D01*
X132190070Y-104595095D01*
X132124905Y-104529930D01*
X132045095Y-104483852D01*
X131972703Y-104464454D01*
X132375338Y-104061819D01*
X132436661Y-104028334D01*
X132463019Y-104025500D01*
X144695613Y-104025500D01*
X144762652Y-104045185D01*
X144783294Y-104061818D01*
X144861985Y-104140509D01*
X144861987Y-104140510D01*
X144861988Y-104140511D01*
X144987511Y-104212982D01*
X144987512Y-104212982D01*
X144987515Y-104212984D01*
X145127525Y-104250500D01*
X145127528Y-104250500D01*
X145272472Y-104250500D01*
X145272475Y-104250500D01*
X145412485Y-104212984D01*
X145538015Y-104140509D01*
X145640509Y-104038015D01*
X145712984Y-103912485D01*
X145750500Y-103772475D01*
X145750500Y-103627525D01*
X145716329Y-103500000D01*
X175900000Y-103500000D01*
X175940349Y-103909687D01*
X176059853Y-104303639D01*
X176253909Y-104666691D01*
X176253913Y-104666698D01*
X176515074Y-104984924D01*
X176833300Y-105246085D01*
X176833307Y-105246089D01*
X177196359Y-105440145D01*
X177196361Y-105440145D01*
X177196364Y-105440147D01*
X177590310Y-105559649D01*
X177590309Y-105559649D01*
X177630660Y-105563623D01*
X178000000Y-105600000D01*
X178409689Y-105559649D01*
X178803635Y-105440147D01*
X179166697Y-105246086D01*
X179484924Y-104984924D01*
X179746086Y-104666697D01*
X179940147Y-104303635D01*
X180059649Y-103909689D01*
X180100000Y-103500000D01*
X180059649Y-103090310D01*
X179940147Y-102696364D01*
X179940145Y-102696361D01*
X179940145Y-102696359D01*
X179746089Y-102333307D01*
X179746085Y-102333300D01*
X179484924Y-102015074D01*
X179166698Y-101753913D01*
X179166691Y-101753909D01*
X178803639Y-101559853D01*
X178409687Y-101440349D01*
X178000000Y-101400000D01*
X177590311Y-101440349D01*
X177196359Y-101559853D01*
X176833307Y-101753909D01*
X176833300Y-101753913D01*
X176515074Y-102015074D01*
X176253913Y-102333300D01*
X176253909Y-102333307D01*
X176059853Y-102696359D01*
X175940349Y-103090311D01*
X175900000Y-103500000D01*
X145716329Y-103500000D01*
X145712984Y-103487515D01*
X145683049Y-103435667D01*
X145640511Y-103361988D01*
X145640506Y-103361982D01*
X145538017Y-103259493D01*
X145538011Y-103259488D01*
X145412488Y-103187017D01*
X145412489Y-103187017D01*
X145401006Y-103183940D01*
X145272475Y-103149500D01*
X145127525Y-103149500D01*
X144998993Y-103183940D01*
X144987511Y-103187017D01*
X144861988Y-103259488D01*
X144783294Y-103338182D01*
X144721970Y-103371666D01*
X144695613Y-103374500D01*
X129957147Y-103374500D01*
X129874362Y-103396682D01*
X129874359Y-103396683D01*
X129806841Y-103435665D01*
X129806840Y-103435666D01*
X129800134Y-103439537D01*
X129339537Y-103900135D01*
X129339533Y-103900141D01*
X129296682Y-103974359D01*
X129293623Y-103985775D01*
X129279626Y-104038015D01*
X129274500Y-104057147D01*
X129274500Y-108142852D01*
X129296682Y-108225640D01*
X129318108Y-108262750D01*
X129339535Y-108299862D01*
X129539533Y-108499860D01*
X129539535Y-108499862D01*
X129600138Y-108560465D01*
X129637250Y-108581891D01*
X129674361Y-108603318D01*
X129757147Y-108625501D01*
X129806525Y-108625501D01*
X129822987Y-108630130D01*
X129838687Y-108639967D01*
X129856460Y-108645186D01*
X129867676Y-108658130D01*
X129882195Y-108667227D01*
X129890084Y-108683991D01*
X129902215Y-108697990D01*
X129911038Y-108725310D01*
X129932763Y-108834530D01*
X129932766Y-108834542D01*
X129988204Y-108968383D01*
X129988211Y-108968396D01*
X130068699Y-109088853D01*
X130068702Y-109088857D01*
X130147164Y-109167319D01*
X130150056Y-109172615D01*
X130155057Y-109175996D01*
X130166608Y-109202928D01*
X130180649Y-109228642D01*
X130180218Y-109234661D01*
X130182598Y-109240209D01*
X130177755Y-109269107D01*
X130175665Y-109298334D01*
X130171791Y-109304692D01*
X130171050Y-109309118D01*
X130157484Y-109328179D01*
X130151284Y-109338358D01*
X130149270Y-109340575D01*
X130068700Y-109421146D01*
X130048054Y-109452043D01*
X130041867Y-109458858D01*
X130019584Y-109472457D01*
X129999556Y-109489196D01*
X129988327Y-109491533D01*
X129982227Y-109495257D01*
X129971628Y-109495010D01*
X129950066Y-109499500D01*
X129860339Y-109499500D01*
X129860323Y-109499499D01*
X129852727Y-109499499D01*
X129747273Y-109499499D01*
X129679366Y-109517695D01*
X129645412Y-109526793D01*
X129554084Y-109579522D01*
X129479520Y-109654087D01*
X129479515Y-109654092D01*
X129470420Y-109663186D01*
X129446702Y-109676134D01*
X129447293Y-109677315D01*
X129447291Y-109677316D01*
X129446701Y-109676136D01*
X129439530Y-109680051D01*
X129409102Y-109696666D01*
X129409097Y-109696666D01*
X129409095Y-109696668D01*
X129409088Y-109696667D01*
X129382744Y-109699500D01*
X128029386Y-109699500D01*
X127962347Y-109679815D01*
X127941705Y-109663181D01*
X127938017Y-109659493D01*
X127938011Y-109659488D01*
X127812488Y-109587017D01*
X127812489Y-109587017D01*
X127784517Y-109579522D01*
X127672475Y-109549500D01*
X127527525Y-109549500D01*
X127415483Y-109579522D01*
X127387511Y-109587017D01*
X127261988Y-109659488D01*
X127261982Y-109659493D01*
X127159493Y-109761982D01*
X127159488Y-109761988D01*
X127087017Y-109887511D01*
X127087016Y-109887515D01*
X127049500Y-110027525D01*
X127049500Y-110172475D01*
X127083805Y-110300500D01*
X127087017Y-110312488D01*
X127159488Y-110438011D01*
X127159490Y-110438013D01*
X127159491Y-110438015D01*
X127261985Y-110540509D01*
X127261986Y-110540510D01*
X127261988Y-110540511D01*
X127387511Y-110612982D01*
X127387512Y-110612982D01*
X127387515Y-110612984D01*
X127527525Y-110650500D01*
X127527528Y-110650500D01*
X127672472Y-110650500D01*
X127672475Y-110650500D01*
X127812485Y-110612984D01*
X127938015Y-110540509D01*
X127941705Y-110536819D01*
X128003028Y-110503334D01*
X128029386Y-110500500D01*
X129652725Y-110500500D01*
X129652727Y-110500500D01*
X129748866Y-110474740D01*
X129818714Y-110476403D01*
X129876576Y-110515566D01*
X129904080Y-110579794D01*
X129904283Y-110599160D01*
X129904500Y-110599160D01*
X129904500Y-111714752D01*
X129916131Y-111773229D01*
X129916132Y-111773230D01*
X129960447Y-111839552D01*
X130026769Y-111883867D01*
X130026770Y-111883868D01*
X130085247Y-111895499D01*
X130085250Y-111895500D01*
X130085252Y-111895500D01*
X131194750Y-111895500D01*
X131194751Y-111895499D01*
X131209568Y-111892552D01*
X131253229Y-111883868D01*
X131253229Y-111883867D01*
X131253231Y-111883867D01*
X131319552Y-111839552D01*
X131338198Y-111811645D01*
X131391809Y-111766842D01*
X131461134Y-111758133D01*
X131510192Y-111777435D01*
X131561610Y-111811792D01*
X131561612Y-111811793D01*
X131561616Y-111811795D01*
X131695457Y-111867233D01*
X131695462Y-111867235D01*
X131807693Y-111889559D01*
X131837555Y-111895499D01*
X131837559Y-111895500D01*
X131837560Y-111895500D01*
X131982441Y-111895500D01*
X131982442Y-111895499D01*
X132124538Y-111867235D01*
X132258390Y-111811792D01*
X132378854Y-111731300D01*
X132481300Y-111628854D01*
X132561792Y-111508390D01*
X132617235Y-111374538D01*
X132645500Y-111232440D01*
X132645500Y-111136530D01*
X132665185Y-111069491D01*
X132717989Y-111023736D01*
X132787147Y-111013792D01*
X132801566Y-111016749D01*
X132927525Y-111050500D01*
X132927529Y-111050500D01*
X133072472Y-111050500D01*
X133072475Y-111050500D01*
X133212485Y-111012984D01*
X133338015Y-110940509D01*
X133416706Y-110861818D01*
X133478030Y-110828334D01*
X133504387Y-110825500D01*
X152204495Y-110825500D01*
X152271534Y-110845185D01*
X152317289Y-110897989D01*
X152327233Y-110967147D01*
X152298208Y-111030703D01*
X152266496Y-111056886D01*
X152261991Y-111059486D01*
X152261982Y-111059493D01*
X152159493Y-111161982D01*
X152159488Y-111161988D01*
X152087017Y-111287511D01*
X152087016Y-111287515D01*
X152049500Y-111427525D01*
X152049500Y-111572475D01*
X152064607Y-111628853D01*
X152087017Y-111712488D01*
X152159488Y-111838011D01*
X152159490Y-111838013D01*
X152159491Y-111838015D01*
X152261985Y-111940509D01*
X152261988Y-111940510D01*
X152261991Y-111940513D01*
X152266496Y-111943114D01*
X152314711Y-111993681D01*
X152327933Y-112062288D01*
X152301965Y-112127153D01*
X152245050Y-112167681D01*
X152204495Y-112174500D01*
X129304387Y-112174500D01*
X129237348Y-112154815D01*
X129216706Y-112138182D01*
X129180535Y-112102011D01*
X129138015Y-112059491D01*
X129138012Y-112059489D01*
X129138011Y-112059488D01*
X129012488Y-111987017D01*
X129012489Y-111987017D01*
X129001006Y-111983940D01*
X128872475Y-111949500D01*
X128727525Y-111949500D01*
X128598993Y-111983940D01*
X128587511Y-111987017D01*
X128461988Y-112059488D01*
X128461982Y-112059493D01*
X128359493Y-112161982D01*
X128359488Y-112161988D01*
X128287017Y-112287511D01*
X128287016Y-112287515D01*
X128249500Y-112427525D01*
X128249500Y-112572475D01*
X128287016Y-112712485D01*
X128287017Y-112712488D01*
X128359488Y-112838011D01*
X128359490Y-112838013D01*
X128359491Y-112838015D01*
X128461985Y-112940509D01*
X128461988Y-112940510D01*
X128461991Y-112940513D01*
X128466496Y-112943114D01*
X128514711Y-112993681D01*
X128527933Y-113062288D01*
X128501965Y-113127153D01*
X128445050Y-113167681D01*
X128404495Y-113174500D01*
X112104387Y-113174500D01*
X112037348Y-113154815D01*
X112016706Y-113138182D01*
X111980535Y-113102011D01*
X111938015Y-113059491D01*
X111938012Y-113059489D01*
X111938011Y-113059488D01*
X111812488Y-112987017D01*
X111812489Y-112987017D01*
X111801006Y-112983940D01*
X111672475Y-112949500D01*
X111527525Y-112949500D01*
X111398993Y-112983940D01*
X111387511Y-112987017D01*
X111261988Y-113059488D01*
X111261982Y-113059493D01*
X111159493Y-113161982D01*
X111159488Y-113161988D01*
X111087017Y-113287511D01*
X111087016Y-113287515D01*
X111049500Y-113427525D01*
X97300500Y-113427525D01*
X97300500Y-103499999D01*
X97900000Y-103499999D01*
X97940349Y-103909687D01*
X98059853Y-104303639D01*
X98253909Y-104666691D01*
X98253913Y-104666698D01*
X98515074Y-104984924D01*
X98833300Y-105246085D01*
X98833307Y-105246089D01*
X99196359Y-105440145D01*
X99196361Y-105440145D01*
X99196364Y-105440147D01*
X99590310Y-105559649D01*
X99590309Y-105559649D01*
X99630660Y-105563623D01*
X100000000Y-105600000D01*
X100409689Y-105559649D01*
X100803635Y-105440147D01*
X101166697Y-105246086D01*
X101484924Y-104984924D01*
X101746086Y-104666697D01*
X101940147Y-104303635D01*
X102059649Y-103909689D01*
X102100000Y-103500000D01*
X102059649Y-103090310D01*
X101940147Y-102696364D01*
X101940145Y-102696361D01*
X101940145Y-102696359D01*
X101746089Y-102333307D01*
X101746085Y-102333300D01*
X101484924Y-102015074D01*
X101166698Y-101753913D01*
X101166691Y-101753909D01*
X100803639Y-101559853D01*
X100409687Y-101440349D01*
X100000000Y-101400000D01*
X99590311Y-101440349D01*
X99196359Y-101559853D01*
X98833307Y-101753909D01*
X98833300Y-101753913D01*
X98515074Y-102015074D01*
X98253913Y-102333300D01*
X98253909Y-102333307D01*
X98059853Y-102696359D01*
X97940349Y-103090311D01*
X97900000Y-103499999D01*
X97300500Y-103499999D01*
X97300500Y-101516660D01*
X97300882Y-101506939D01*
X97306119Y-101440349D01*
X97309247Y-101400562D01*
X97312300Y-101381300D01*
X97333396Y-101293583D01*
X97339374Y-101275183D01*
X97373866Y-101191829D01*
X97382709Y-101174469D01*
X97429760Y-101097695D01*
X97441181Y-101081975D01*
X97499722Y-101013440D01*
X97513440Y-100999722D01*
X97581975Y-100941181D01*
X97597695Y-100929760D01*
X97674469Y-100882709D01*
X97691829Y-100873866D01*
X97775183Y-100839374D01*
X97793583Y-100833396D01*
X97881300Y-100812300D01*
X97900562Y-100809247D01*
X97982366Y-100802814D01*
X98006940Y-100800882D01*
X98016661Y-100800500D01*
X179983292Y-100800500D01*
X179993037Y-100800883D01*
G37*
%TD.AperFunction*%
%TD*%
M02*
