%TF.GenerationSoftware,KiCad,Pcbnew,9.0.9-9.0.9~ubuntu24.04.1*%
%TF.CreationDate,2026-09-27T03:24:54+00:00*%
%TF.ProjectId,key-board-lh,6b65792d-626f-4617-9264-2d6c682e6b69,rev?*%
%TF.SameCoordinates,Original*%
%TF.FileFunction,Paste,Bot*%
%TF.FilePolarity,Positive*%
%FSLAX46Y46*%
G04 Gerber Fmt 4.6, Leading zero omitted, Abs format (unit mm)*
G04 Created by KiCad (PCBNEW 9.0.9-9.0.9~ubuntu24.04.1) date 2026-09-27 03:24:54*
%MOMM*%
%LPD*%
G01*
G04 APERTURE LIST*
G04 Aperture macros list*
%AMRoundRect*
0 Rectangle with rounded corners*
0 $1 Rounding radius*
0 $2 $3 $4 $5 $6 $7 $8 $9 X,Y pos of 4 corners*
0 Add a 4 corners polygon primitive as box body*
4,1,4,$2,$3,$4,$5,$6,$7,$8,$9,$2,$3,0*
0 Add four circle primitives for the rounded corners*
1,1,$1+$1,$2,$3*
1,1,$1+$1,$4,$5*
1,1,$1+$1,$6,$7*
1,1,$1+$1,$8,$9*
0 Add four rect primitives between the rounded corners*
20,1,$1+$1,$2,$3,$4,$5,0*
20,1,$1+$1,$4,$5,$6,$7,0*
20,1,$1+$1,$6,$7,$8,$9,0*
20,1,$1+$1,$8,$9,$2,$3,0*%
G04 Aperture macros list end*
%ADD10RoundRect,0.250000X-0.262500X-0.450000X0.262500X-0.450000X0.262500X0.450000X-0.262500X0.450000X0*%
%ADD11RoundRect,0.150000X0.150000X-0.825000X0.150000X0.825000X-0.150000X0.825000X-0.150000X-0.825000X0*%
%ADD12RoundRect,0.250000X-0.250000X-0.475000X0.250000X-0.475000X0.250000X0.475000X-0.250000X0.475000X0*%
%ADD13RoundRect,0.250000X0.450000X-0.262500X0.450000X0.262500X-0.450000X0.262500X-0.450000X-0.262500X0*%
%ADD14RoundRect,0.250000X0.475000X-0.250000X0.475000X0.250000X-0.475000X0.250000X-0.475000X-0.250000X0*%
%ADD15R,0.400000X1.000000*%
%ADD16R,2.000000X1.300000*%
G04 APERTURE END LIST*
D10*
%TO.C,R-KEY-PU-LH2*%
X133087500Y-132500000D03*
X134912500Y-132500000D03*
%TD*%
%TO.C,R-KEY-PU-LH1*%
X113087500Y-115500000D03*
X114912500Y-115500000D03*
%TD*%
D11*
%TO.C,U-KEYS-LH*%
X153445000Y-108475000D03*
X152175000Y-108475000D03*
X150905000Y-108475000D03*
X149635000Y-108475000D03*
X148365000Y-108475000D03*
X147095000Y-108475000D03*
X145825000Y-108475000D03*
X144555000Y-108475000D03*
X144555000Y-103525000D03*
X145825000Y-103525000D03*
X147095000Y-103525000D03*
X148365000Y-103525000D03*
X149635000Y-103525000D03*
X150905000Y-103525000D03*
X152175000Y-103525000D03*
X153445000Y-103525000D03*
%TD*%
D12*
%TO.C,C-KEY-LH1*%
X105050000Y-115500000D03*
X106950000Y-115500000D03*
%TD*%
D13*
%TO.C,R-KEY-PU-FREE3*%
X142500000Y-106412500D03*
X142500000Y-104587500D03*
%TD*%
D10*
%TO.C,R-KEY-SER-LH5*%
X162587500Y-106000000D03*
X164412500Y-106000000D03*
%TD*%
%TO.C,R-KEY-SER-LH3*%
X149087500Y-115500000D03*
X150912500Y-115500000D03*
%TD*%
%TO.C,R-KEY-PU-LH5*%
X166587500Y-106000000D03*
X168412500Y-106000000D03*
%TD*%
D12*
%TO.C,C-KEY-LH4*%
X161050000Y-123000000D03*
X162950000Y-123000000D03*
%TD*%
D10*
%TO.C,R-KEY-SER-LH1*%
X109087500Y-115500000D03*
X110912500Y-115500000D03*
%TD*%
D12*
%TO.C,C-KEY-LH5*%
X158550000Y-106000000D03*
X160450000Y-106000000D03*
%TD*%
D14*
%TO.C,C-DECOUPLE-165-LH*%
X156000000Y-104450000D03*
X156000000Y-102550000D03*
%TD*%
D10*
%TO.C,R-KEY-PU-LH4*%
X169087500Y-123000000D03*
X170912500Y-123000000D03*
%TD*%
D12*
%TO.C,C-KEY-LH2*%
X125050000Y-132500000D03*
X126950000Y-132500000D03*
%TD*%
D10*
%TO.C,R-KEY-PU-LH3*%
X153087500Y-115500000D03*
X154912500Y-115500000D03*
%TD*%
D12*
%TO.C,C-KEY-LH3*%
X145050000Y-115500000D03*
X146950000Y-115500000D03*
%TD*%
D10*
%TO.C,R-KEY-SER-LH2*%
X129087500Y-132500000D03*
X130912500Y-132500000D03*
%TD*%
D15*
%TO.C,J-CHAIN*%
X124500000Y-116650000D03*
X125500000Y-116650000D03*
X126500000Y-116650000D03*
X127500000Y-116650000D03*
X128500000Y-116650000D03*
X129500000Y-116650000D03*
X130500000Y-116650000D03*
X131500000Y-116650000D03*
X132500000Y-116650000D03*
X133500000Y-116650000D03*
X134500000Y-116650000D03*
X135500000Y-116650000D03*
D16*
X121700000Y-113950000D03*
X138300000Y-113950000D03*
%TD*%
D10*
%TO.C,R-KEY-SER-LH4*%
X165087500Y-123000000D03*
X166912500Y-123000000D03*
%TD*%
M02*
