%TF.GenerationSoftware,KiCad,Pcbnew,9.0.9-9.0.9~ubuntu24.04.1*%
%TF.CreationDate,2026-09-29T02:45:10+00:00*%
%TF.ProjectId,key-board-lh,6b65792d-626f-4617-9264-2d6c682e6b69,A*%
%TF.SameCoordinates,Original*%
%TF.FileFunction,Soldermask,Bot*%
%TF.FilePolarity,Negative*%
%FSLAX46Y46*%
G04 Gerber Fmt 4.6, Leading zero omitted, Abs format (unit mm)*
G04 Created by KiCad (PCBNEW 9.0.9-9.0.9~ubuntu24.04.1) date 2026-09-29 02:45:10*
%MOMM*%
%LPD*%
G01*
G04 APERTURE LIST*
G04 Aperture macros list*
%AMRoundRect*
0 Rectangle with rounded corners*
0 $1 Rounding radius*
0 $2 $3 $4 $5 $6 $7 $8 $9 X,Y pos of 4 corners*
0 Add a 4 corners polygon primitive as box body*
4,1,4,$2,$3,$4,$5,$6,$7,$8,$9,$2,$3,0*
0 Add four circle primitives for the rounded corners*
1,1,$1+$1,$2,$3*
1,1,$1+$1,$4,$5*
1,1,$1+$1,$6,$7*
1,1,$1+$1,$8,$9*
0 Add four rect primitives between the rounded corners*
20,1,$1+$1,$2,$3,$4,$5,0*
20,1,$1+$1,$4,$5,$6,$7,0*
20,1,$1+$1,$6,$7,$8,$9,0*
20,1,$1+$1,$8,$9,$2,$3,0*%
G04 Aperture macros list end*
%ADD10C,5.250000*%
%ADD11C,2.000000*%
%ADD12C,2.700000*%
%ADD13RoundRect,0.250000X0.475000X-0.250000X0.475000X0.250000X-0.475000X0.250000X-0.475000X-0.250000X0*%
%ADD14RoundRect,0.150000X0.150000X-0.825000X0.150000X0.825000X-0.150000X0.825000X-0.150000X-0.825000X0*%
%ADD15R,1.500000X1.070000*%
%ADD16O,1.500000X1.070000*%
%ADD17RoundRect,0.250000X0.250000X0.475000X-0.250000X0.475000X-0.250000X-0.475000X0.250000X-0.475000X0*%
%ADD18RoundRect,0.250000X-0.450000X0.262500X-0.450000X-0.262500X0.450000X-0.262500X0.450000X0.262500X0*%
%ADD19C,1.000000*%
%ADD20RoundRect,0.250000X0.450000X-0.262500X0.450000X0.262500X-0.450000X0.262500X-0.450000X-0.262500X0*%
G04 APERTURE END LIST*
D10*
%TO.C,SW3*%
X150000000Y-121500000D03*
D11*
X145600000Y-126200000D03*
X152600000Y-127250000D03*
%TD*%
D10*
%TO.C,SW4*%
X168000000Y-130500000D03*
D11*
X163600000Y-135200000D03*
X170600000Y-136250000D03*
%TD*%
D10*
%TO.C,SW2*%
X130000000Y-121500000D03*
D11*
X125600000Y-126200000D03*
X132600000Y-127250000D03*
%TD*%
D10*
%TO.C,SW1*%
X110000000Y-121500000D03*
D11*
X105600000Y-126200000D03*
X112600000Y-127250000D03*
%TD*%
D10*
%TO.C,SW5*%
X168000000Y-112500000D03*
D11*
X163600000Y-117200000D03*
X170600000Y-118250000D03*
%TD*%
D12*
%TO.C,H3*%
X181500000Y-138900000D03*
%TD*%
D13*
%TO.C,C7*%
X127000000Y-108950000D03*
X127000000Y-107050000D03*
%TD*%
D14*
%TO.C,U1*%
X154945000Y-108975000D03*
X153675000Y-108975000D03*
X152405000Y-108975000D03*
X151135000Y-108975000D03*
X149865000Y-108975000D03*
X148595000Y-108975000D03*
X147325000Y-108975000D03*
X146055000Y-108975000D03*
X146055000Y-104025000D03*
X147325000Y-104025000D03*
X148595000Y-104025000D03*
X149865000Y-104025000D03*
X151135000Y-104025000D03*
X152405000Y-104025000D03*
X153675000Y-104025000D03*
X154945000Y-104025000D03*
%TD*%
D15*
%TO.C,J1*%
X130425000Y-111160000D03*
D16*
X132125000Y-111160000D03*
X130425000Y-109890000D03*
X132125000Y-109890000D03*
X130425000Y-108620000D03*
X132125000Y-108620000D03*
X130425000Y-107350000D03*
X132125000Y-107350000D03*
X130425000Y-106080000D03*
X132125000Y-106080000D03*
X130425000Y-104810000D03*
X132125000Y-104810000D03*
%TD*%
D17*
%TO.C,C4*%
X176250000Y-130500000D03*
X174350000Y-130500000D03*
%TD*%
D18*
%TO.C,R4*%
X140000000Y-117887500D03*
X140000000Y-119712500D03*
%TD*%
D17*
%TO.C,C1*%
X118250000Y-121500000D03*
X116350000Y-121500000D03*
%TD*%
%TO.C,C5*%
X176250000Y-112500000D03*
X174350000Y-112500000D03*
%TD*%
D18*
%TO.C,R10*%
X178000000Y-108887500D03*
X178000000Y-110712500D03*
%TD*%
%TO.C,R6*%
X160000000Y-117887500D03*
X160000000Y-119712500D03*
%TD*%
D17*
%TO.C,C2*%
X138250000Y-121500000D03*
X136350000Y-121500000D03*
%TD*%
D19*
%TO.C,TP1*%
X143000000Y-114000000D03*
%TD*%
D18*
%TO.C,R2*%
X120000000Y-117887500D03*
X120000000Y-119712500D03*
%TD*%
D19*
%TO.C,TP2*%
X146500000Y-114000000D03*
%TD*%
D18*
%TO.C,R3*%
X140000000Y-123287500D03*
X140000000Y-125112500D03*
%TD*%
D12*
%TO.C,H1*%
X100600000Y-138900000D03*
%TD*%
D17*
%TO.C,C3*%
X158250000Y-121500000D03*
X156350000Y-121500000D03*
%TD*%
D19*
%TO.C,TP5*%
X157000000Y-114000000D03*
%TD*%
D18*
%TO.C,R8*%
X178000000Y-126887500D03*
X178000000Y-128712500D03*
%TD*%
D17*
%TO.C,C6*%
X155250000Y-101800000D03*
X153350000Y-101800000D03*
%TD*%
D20*
%TO.C,R11*%
X144000000Y-107412500D03*
X144000000Y-105587500D03*
%TD*%
D19*
%TO.C,TP4*%
X153500000Y-114000000D03*
%TD*%
D12*
%TO.C,H2*%
X100600000Y-104100000D03*
%TD*%
D18*
%TO.C,R9*%
X178000000Y-114287500D03*
X178000000Y-116112500D03*
%TD*%
D19*
%TO.C,TP6*%
X160500000Y-114000000D03*
%TD*%
D18*
%TO.C,R7*%
X178000000Y-132287499D03*
X178000000Y-134112499D03*
%TD*%
D19*
%TO.C,TP3*%
X150000000Y-114000000D03*
%TD*%
D12*
%TO.C,H4*%
X181500000Y-104100000D03*
%TD*%
D18*
%TO.C,R1*%
X120000000Y-123287500D03*
X120000000Y-125112500D03*
%TD*%
%TO.C,R5*%
X160000000Y-123287500D03*
X160000000Y-125112500D03*
%TD*%
M02*
