%TF.GenerationSoftware,KiCad,Pcbnew,9.0.9-9.0.9~ubuntu24.04.1*%
%TF.CreationDate,2026-09-27T03:24:54+00:00*%
%TF.ProjectId,key-board-lh,6b65792d-626f-4617-9264-2d6c682e6b69,rev?*%
%TF.SameCoordinates,Original*%
%TF.FileFunction,Legend,Bot*%
%TF.FilePolarity,Positive*%
%FSLAX46Y46*%
G04 Gerber Fmt 4.6, Leading zero omitted, Abs format (unit mm)*
G04 Created by KiCad (PCBNEW 9.0.9-9.0.9~ubuntu24.04.1) date 2026-09-27 03:24:54*
%MOMM*%
%LPD*%
G01*
G04 APERTURE LIST*
%ADD10C,0.120000*%
G04 APERTURE END LIST*
D10*
%TO.C,R-KEY-PU-LH2*%
X133772936Y-131765000D02*
X134227064Y-131765000D01*
X133772936Y-133235000D02*
X134227064Y-133235000D01*
%TO.C,R-KEY-PU-LH1*%
X113772936Y-114765000D02*
X114227064Y-114765000D01*
X113772936Y-116235000D02*
X114227064Y-116235000D01*
%TO.C,U-KEYS-LH*%
X143940000Y-103940000D02*
X143940000Y-108060000D01*
X143940000Y-108060000D02*
X143995000Y-108060000D01*
X143995000Y-103940000D02*
X143940000Y-103940000D01*
X154005000Y-108060000D02*
X154060000Y-108060000D01*
X154060000Y-103940000D02*
X154005000Y-103940000D01*
X154060000Y-108060000D02*
X154060000Y-103940000D01*
X154340000Y-108840000D02*
X154010000Y-108600000D01*
X154340000Y-108360000D01*
X154340000Y-108840000D01*
G36*
X154340000Y-108840000D02*
G01*
X154010000Y-108600000D01*
X154340000Y-108360000D01*
X154340000Y-108840000D01*
G37*
%TO.C,C-KEY-LH1*%
X105738748Y-114765000D02*
X106261252Y-114765000D01*
X105738748Y-116235000D02*
X106261252Y-116235000D01*
%TO.C,R-KEY-PU-FREE3*%
X141765000Y-105727064D02*
X141765000Y-105272936D01*
X143235000Y-105727064D02*
X143235000Y-105272936D01*
%TO.C,R-KEY-SER-LH5*%
X163272936Y-105265000D02*
X163727064Y-105265000D01*
X163272936Y-106735000D02*
X163727064Y-106735000D01*
%TO.C,R-KEY-SER-LH3*%
X149772936Y-114765000D02*
X150227064Y-114765000D01*
X149772936Y-116235000D02*
X150227064Y-116235000D01*
%TO.C,R-KEY-PU-LH5*%
X167272936Y-105265000D02*
X167727064Y-105265000D01*
X167272936Y-106735000D02*
X167727064Y-106735000D01*
%TO.C,C-KEY-LH4*%
X161738748Y-122265000D02*
X162261252Y-122265000D01*
X161738748Y-123735000D02*
X162261252Y-123735000D01*
%TO.C,R-KEY-SER-LH1*%
X109772936Y-114765000D02*
X110227064Y-114765000D01*
X109772936Y-116235000D02*
X110227064Y-116235000D01*
%TO.C,C-KEY-LH5*%
X159238748Y-105265000D02*
X159761252Y-105265000D01*
X159238748Y-106735000D02*
X159761252Y-106735000D01*
%TO.C,C-DECOUPLE-165-LH*%
X155265000Y-103761252D02*
X155265000Y-103238748D01*
X156735000Y-103761252D02*
X156735000Y-103238748D01*
%TO.C,R-KEY-PU-LH4*%
X169772936Y-122265000D02*
X170227064Y-122265000D01*
X169772936Y-123735000D02*
X170227064Y-123735000D01*
%TO.C,C-KEY-LH2*%
X125738748Y-131765000D02*
X126261252Y-131765000D01*
X125738748Y-133235000D02*
X126261252Y-133235000D01*
%TO.C,R-KEY-PU-LH3*%
X153772936Y-114765000D02*
X154227064Y-114765000D01*
X153772936Y-116235000D02*
X154227064Y-116235000D01*
%TO.C,C-KEY-LH3*%
X145738748Y-114765000D02*
X146261252Y-114765000D01*
X145738748Y-116235000D02*
X146261252Y-116235000D01*
%TO.C,R-KEY-SER-LH2*%
X129772936Y-131765000D02*
X130227064Y-131765000D01*
X129772936Y-133235000D02*
X130227064Y-133235000D01*
%TO.C,J-CHAIN*%
X121290000Y-112740000D02*
X122090000Y-112740000D01*
X121290000Y-113040000D02*
X121290000Y-112740000D01*
X121290000Y-116910000D02*
X121290000Y-114860000D01*
X122060000Y-116560000D02*
X122060000Y-116910000D01*
X122060000Y-116910000D02*
X121290000Y-116910000D01*
X122090000Y-111440000D02*
X137910000Y-111440000D01*
X122090000Y-112740000D02*
X122090000Y-111440000D01*
X124040000Y-116560000D02*
X122060000Y-116560000D01*
X124040000Y-117150000D02*
X124040000Y-116560000D01*
X137910000Y-111440000D02*
X137910000Y-112740000D01*
X137910000Y-112740000D02*
X138710000Y-112740000D01*
X137940000Y-116560000D02*
X135960000Y-116560000D01*
X137940000Y-116910000D02*
X137940000Y-116560000D01*
X138710000Y-112740000D02*
X138710000Y-113040000D01*
X138710000Y-114860000D02*
X138710000Y-116910000D01*
X138710000Y-116910000D02*
X137940000Y-116910000D01*
%TO.C,R-KEY-SER-LH4*%
X165772936Y-122265000D02*
X166227064Y-122265000D01*
X165772936Y-123735000D02*
X166227064Y-123735000D01*
%TD*%
M02*
