%TF.GenerationSoftware,KiCad,Pcbnew,9.0.9-9.0.9~ubuntu24.04.1*%
%TF.CreationDate,2026-09-27T16:41:31+00:00*%
%TF.ProjectId,key-board-lh,6b65792d-626f-4617-9264-2d6c682e6b69,A*%
%TF.SameCoordinates,Original*%
%TF.FileFunction,Copper,L2,Bot*%
%TF.FilePolarity,Positive*%
%FSLAX46Y46*%
G04 Gerber Fmt 4.6, Leading zero omitted, Abs format (unit mm)*
G04 Created by KiCad (PCBNEW 9.0.9-9.0.9~ubuntu24.04.1) date 2026-09-27 16:41:31*
%MOMM*%
%LPD*%
G01*
G04 APERTURE LIST*
G04 Aperture macros list*
%AMRoundRect*
0 Rectangle with rounded corners*
0 $1 Rounding radius*
0 $2 $3 $4 $5 $6 $7 $8 $9 X,Y pos of 4 corners*
0 Add a 4 corners polygon primitive as box body*
4,1,4,$2,$3,$4,$5,$6,$7,$8,$9,$2,$3,0*
0 Add four circle primitives for the rounded corners*
1,1,$1+$1,$2,$3*
1,1,$1+$1,$4,$5*
1,1,$1+$1,$6,$7*
1,1,$1+$1,$8,$9*
0 Add four rect primitives between the rounded corners*
20,1,$1+$1,$2,$3,$4,$5,0*
20,1,$1+$1,$4,$5,$6,$7,0*
20,1,$1+$1,$6,$7,$8,$9,0*
20,1,$1+$1,$8,$9,$2,$3,0*%
G04 Aperture macros list end*
%TA.AperFunction,ComponentPad*%
%ADD10C,2.000000*%
%TD*%
%TA.AperFunction,SMDPad,CuDef*%
%ADD11C,1.000000*%
%TD*%
%TA.AperFunction,SMDPad,CuDef*%
%ADD12RoundRect,0.250000X0.262500X0.450000X-0.262500X0.450000X-0.262500X-0.450000X0.262500X-0.450000X0*%
%TD*%
%TA.AperFunction,SMDPad,CuDef*%
%ADD13RoundRect,0.250000X-0.475000X0.250000X-0.475000X-0.250000X0.475000X-0.250000X0.475000X0.250000X0*%
%TD*%
%TA.AperFunction,ComponentPad*%
%ADD14R,1.070000X1.070000*%
%TD*%
%TA.AperFunction,ComponentPad*%
%ADD15C,1.070000*%
%TD*%
%TA.AperFunction,SMDPad,CuDef*%
%ADD16RoundRect,0.250000X0.475000X-0.250000X0.475000X0.250000X-0.475000X0.250000X-0.475000X-0.250000X0*%
%TD*%
%TA.AperFunction,SMDPad,CuDef*%
%ADD17RoundRect,0.150000X0.150000X-0.825000X0.150000X0.825000X-0.150000X0.825000X-0.150000X-0.825000X0*%
%TD*%
%TA.AperFunction,SMDPad,CuDef*%
%ADD18RoundRect,0.250000X0.450000X-0.262500X0.450000X0.262500X-0.450000X0.262500X-0.450000X-0.262500X0*%
%TD*%
%TA.AperFunction,ViaPad*%
%ADD19C,0.700000*%
%TD*%
%TA.AperFunction,Conductor*%
%ADD20C,0.250000*%
%TD*%
%TA.AperFunction,Conductor*%
%ADD21C,0.400000*%
%TD*%
G04 APERTURE END LIST*
D10*
%TO.P,SW-LH2,1*%
%TO.N,/LH2/SWITCH_LEG*%
X125600000Y-126200000D03*
%TO.P,SW-LH2,2*%
%TO.N,GND_CHAIN*%
X132600000Y-127250000D03*
%TD*%
%TO.P,SW-LH1,1*%
%TO.N,/LH1/SWITCH_LEG*%
X105600000Y-126200000D03*
%TO.P,SW-LH1,2*%
%TO.N,GND_CHAIN*%
X112600000Y-127250000D03*
%TD*%
%TO.P,SW-LH5,1*%
%TO.N,/LH5/SWITCH_LEG*%
X163600000Y-117200000D03*
%TO.P,SW-LH5,2*%
%TO.N,GND_CHAIN*%
X170600000Y-118250000D03*
%TD*%
%TO.P,SW-LH4,1*%
%TO.N,/LH4/SWITCH_LEG*%
X163600000Y-135200000D03*
%TO.P,SW-LH4,2*%
%TO.N,GND_CHAIN*%
X170600000Y-136250000D03*
%TD*%
%TO.P,SW-LH3,1*%
%TO.N,/LH3/SWITCH_LEG*%
X145600000Y-126200000D03*
%TO.P,SW-LH3,2*%
%TO.N,GND_CHAIN*%
X152600000Y-127250000D03*
%TD*%
D11*
%TO.P,TP-SER-LH,1*%
%TO.N,/CHAIN_SER_LH*%
X141500000Y-114000000D03*
%TD*%
%TO.P,TP-SHLD-LH,1*%
%TO.N,/CHAIN_SHLD*%
X155500000Y-114000000D03*
%TD*%
D12*
%TO.P,R-KEY-PU-LH2,1*%
%TO.N,V3V3_CHAIN_LH*%
X133612499Y-132500000D03*
%TO.P,R-KEY-PU-LH2,2*%
%TO.N,/KEY_LH2*%
X131787499Y-132500000D03*
%TD*%
D13*
%TO.P,C-KEY-LH1,1*%
%TO.N,/KEY_LH1*%
X110000000Y-111850000D03*
%TO.P,C-KEY-LH1,2*%
%TO.N,GND_CHAIN*%
X110000000Y-113750000D03*
%TD*%
D12*
%TO.P,R-KEY-SER-LH1,1*%
%TO.N,/KEY_LH1*%
X108212500Y-115500000D03*
%TO.P,R-KEY-SER-LH1,2*%
%TO.N,/LH1/SWITCH_LEG*%
X106387500Y-115500000D03*
%TD*%
D14*
%TO.P,J-CHAIN,1*%
%TO.N,unconnected-(J-CHAIN-Pin_1-Pad1)*%
X130640000Y-111160000D03*
D15*
%TO.P,J-CHAIN,2*%
%TO.N,unconnected-(J-CHAIN-Pin_2-Pad2)*%
X131910000Y-111160000D03*
%TO.P,J-CHAIN,3*%
%TO.N,V3V3_CHAIN_LH*%
X130640000Y-109890000D03*
%TO.P,J-CHAIN,4*%
%TO.N,GND_CHAIN*%
X131910000Y-109890000D03*
%TO.P,J-CHAIN,5*%
%TO.N,/HOP_LH_LT*%
X130640000Y-108620000D03*
%TO.P,J-CHAIN,6*%
%TO.N,GND_CHAIN*%
X131910000Y-108620000D03*
%TO.P,J-CHAIN,7*%
%TO.N,/CHAIN_SER_LH*%
X130640000Y-107350000D03*
%TO.P,J-CHAIN,8*%
%TO.N,GND_CHAIN*%
X131910000Y-107350000D03*
%TO.P,J-CHAIN,9*%
%TO.N,/CHAIN_SHLD*%
X130640000Y-106080000D03*
%TO.P,J-CHAIN,10*%
%TO.N,GND_CHAIN*%
X131910000Y-106080000D03*
%TO.P,J-CHAIN,11*%
%TO.N,/CHAIN_SCK*%
X130640000Y-104810000D03*
%TO.P,J-CHAIN,12*%
%TO.N,GND_CHAIN*%
X131910000Y-104810000D03*
%TD*%
D11*
%TO.P,TP-QH-LH,1*%
%TO.N,/HOP_LH_LT*%
X159000000Y-114000000D03*
%TD*%
%TO.P,TP-GND-LH,1*%
%TO.N,GND_CHAIN*%
X148500000Y-114000000D03*
%TD*%
D12*
%TO.P,R-KEY-SER-LH2,1*%
%TO.N,/KEY_LH2*%
X128212500Y-132500000D03*
%TO.P,R-KEY-SER-LH2,2*%
%TO.N,/LH2/SWITCH_LEG*%
X126387500Y-132500000D03*
%TD*%
D16*
%TO.P,C-KEY-LH3,1*%
%TO.N,/KEY_LH3*%
X150000000Y-136150000D03*
%TO.P,C-KEY-LH3,2*%
%TO.N,GND_CHAIN*%
X150000000Y-134250000D03*
%TD*%
D12*
%TO.P,R-KEY-PU-LH3,1*%
%TO.N,V3V3_CHAIN_LH*%
X153612500Y-132500000D03*
%TO.P,R-KEY-PU-LH3,2*%
%TO.N,/KEY_LH3*%
X151787500Y-132500000D03*
%TD*%
%TO.P,R-KEY-SER-LH3,1*%
%TO.N,/KEY_LH3*%
X148212500Y-132500000D03*
%TO.P,R-KEY-SER-LH3,2*%
%TO.N,/LH3/SWITCH_LEG*%
X146387500Y-132500000D03*
%TD*%
D17*
%TO.P,U-KEYS-LH,1*%
%TO.N,/CHAIN_SHLD*%
X154945000Y-107975000D03*
%TO.P,U-KEYS-LH,2*%
%TO.N,/CHAIN_SCK*%
X153675000Y-107975000D03*
%TO.P,U-KEYS-LH,3*%
%TO.N,/KEY_LH4*%
X152405000Y-107975000D03*
%TO.P,U-KEYS-LH,4*%
%TO.N,/KEY_LH3*%
X151135000Y-107975000D03*
%TO.P,U-KEYS-LH,5*%
%TO.N,/KEY_LH2*%
X149865000Y-107975000D03*
%TO.P,U-KEYS-LH,6*%
%TO.N,/KEY_LH1*%
X148595000Y-107975000D03*
%TO.P,U-KEYS-LH,7*%
%TO.N,unconnected-(U-KEYS-LH-~{Q7}-Pad7)*%
X147325000Y-107975000D03*
%TO.P,U-KEYS-LH,8*%
%TO.N,GND_CHAIN*%
X146055000Y-107975000D03*
%TO.P,U-KEYS-LH,9*%
%TO.N,/HOP_LH_LT*%
X146055000Y-103025000D03*
%TO.P,U-KEYS-LH,10*%
%TO.N,/CHAIN_SER_LH*%
X147325000Y-103025000D03*
%TO.P,U-KEYS-LH,11*%
%TO.N,/KEY_FREE3*%
X148595000Y-103025000D03*
%TO.P,U-KEYS-LH,12*%
%TO.N,V3V3_CHAIN_LH*%
X149865000Y-103025000D03*
%TO.P,U-KEYS-LH,13*%
%TO.N,GND_CHAIN*%
X151135000Y-103025000D03*
%TO.P,U-KEYS-LH,14*%
%TO.N,/KEY_LH5*%
X152405000Y-103025000D03*
%TO.P,U-KEYS-LH,15*%
%TO.N,GND_CHAIN*%
X153675000Y-103025000D03*
%TO.P,U-KEYS-LH,16*%
%TO.N,V3V3_CHAIN_LH*%
X154945000Y-103025000D03*
%TD*%
D12*
%TO.P,R-KEY-PU-LH5,1*%
%TO.N,V3V3_CHAIN_LH*%
X168112500Y-106000000D03*
%TO.P,R-KEY-PU-LH5,2*%
%TO.N,/KEY_LH5*%
X166287500Y-106000000D03*
%TD*%
%TO.P,R-KEY-PU-LH1,1*%
%TO.N,V3V3_CHAIN_LH*%
X113612500Y-115500000D03*
%TO.P,R-KEY-PU-LH1,2*%
%TO.N,/KEY_LH1*%
X111787500Y-115500000D03*
%TD*%
D18*
%TO.P,R-KEY-PU-FREE3,1*%
%TO.N,V3V3_CHAIN_LH*%
X144000000Y-106412500D03*
%TO.P,R-KEY-PU-FREE3,2*%
%TO.N,/KEY_FREE3*%
X144000000Y-104587500D03*
%TD*%
D12*
%TO.P,R-KEY-SER-LH5,1*%
%TO.N,/KEY_LH5*%
X162712500Y-106000000D03*
%TO.P,R-KEY-SER-LH5,2*%
%TO.N,/LH5/SWITCH_LEG*%
X160887500Y-106000000D03*
%TD*%
D16*
%TO.P,C-DECOUPLE-165-LH,1*%
%TO.N,V3V3_CHAIN_LH*%
X157000000Y-104450000D03*
%TO.P,C-DECOUPLE-165-LH,2*%
%TO.N,GND_CHAIN*%
X157000000Y-102550000D03*
%TD*%
D11*
%TO.P,TP-SCK-LH,1*%
%TO.N,/CHAIN_SCK*%
X152000000Y-114000000D03*
%TD*%
D13*
%TO.P,C-KEY-LH4,1*%
%TO.N,/KEY_LH4*%
X166000000Y-119350000D03*
%TO.P,C-KEY-LH4,2*%
%TO.N,GND_CHAIN*%
X166000000Y-121250000D03*
%TD*%
D16*
%TO.P,C-KEY-LH2,1*%
%TO.N,/KEY_LH2*%
X130000000Y-136150000D03*
%TO.P,C-KEY-LH2,2*%
%TO.N,GND_CHAIN*%
X130000000Y-134250000D03*
%TD*%
D12*
%TO.P,R-KEY-SER-LH4,1*%
%TO.N,/KEY_LH4*%
X164212500Y-123000000D03*
%TO.P,R-KEY-SER-LH4,2*%
%TO.N,/LH4/SWITCH_LEG*%
X162387500Y-123000000D03*
%TD*%
D13*
%TO.P,C-KEY-LH5,1*%
%TO.N,/KEY_LH5*%
X164500000Y-102350000D03*
%TO.P,C-KEY-LH5,2*%
%TO.N,GND_CHAIN*%
X164500000Y-104250000D03*
%TD*%
D11*
%TO.P,TP-3V3-LH,1*%
%TO.N,V3V3_CHAIN_LH*%
X145000000Y-114000000D03*
%TD*%
D12*
%TO.P,R-KEY-PU-LH4,1*%
%TO.N,V3V3_CHAIN_LH*%
X169612500Y-123000000D03*
%TO.P,R-KEY-PU-LH4,2*%
%TO.N,/KEY_LH4*%
X167787500Y-123000000D03*
%TD*%
D19*
%TO.N,/CHAIN_SCK*%
X152200000Y-111300000D03*
X133000000Y-110500000D03*
X154000000Y-109500000D03*
%TO.N,/CHAIN_SER_LH*%
X141800000Y-104700000D03*
X147800000Y-104500000D03*
%TO.N,/CHAIN_SHLD*%
X155000000Y-112900000D03*
X128800000Y-112500000D03*
X155000000Y-110500000D03*
%TO.N,/HOP_LH_LT*%
X145200000Y-103700000D03*
%TO.N,/KEY_LH1*%
X111600000Y-113500000D03*
X147400000Y-113500000D03*
%TO.N,/KEY_LH5*%
X163000000Y-104700000D03*
X152600000Y-104700000D03*
%TO.N,GND_CHAIN*%
X153400000Y-101500000D03*
X156800000Y-101500000D03*
X152200000Y-131100000D03*
X165600000Y-122300000D03*
X129000000Y-135100000D03*
X146200000Y-109500000D03*
X159200000Y-105700000D03*
X166400000Y-123100000D03*
X150400000Y-132900000D03*
X147000000Y-114500000D03*
X165000000Y-105300000D03*
X110200000Y-114900000D03*
X130400000Y-132900000D03*
X164000000Y-105700000D03*
X151000000Y-101500000D03*
X149000000Y-135100000D03*
X147800000Y-115100000D03*
%TO.N,V3V3_CHAIN_LH*%
X158200000Y-103700000D03*
X149800000Y-105500000D03*
X145200000Y-105700000D03*
X114600000Y-114500000D03*
X144600000Y-118300000D03*
X144600000Y-120700000D03*
X167800000Y-103700000D03*
X127800000Y-109900000D03*
X144000000Y-114500000D03*
X127800000Y-114500000D03*
X153200000Y-130300000D03*
%TD*%
D20*
%TO.N,/CHAIN_SCK*%
X131000000Y-103900000D02*
X131000000Y-104500000D01*
X153800000Y-108700000D02*
X153800000Y-109300000D01*
X151999999Y-113999999D02*
X152200000Y-113700000D01*
X152200000Y-111300000D02*
X152200000Y-113700000D01*
X153800000Y-109300000D02*
X154000000Y-109500000D01*
X130640000Y-104810000D02*
X131000000Y-104500000D01*
X132600000Y-103700000D02*
X131199999Y-103700000D01*
X131199999Y-103700000D02*
X131000000Y-103900000D01*
X133000000Y-104100000D02*
X132600000Y-103700000D01*
X133000000Y-110500000D02*
X133000000Y-104100000D01*
%TO.N,/CHAIN_SER_LH*%
X131199999Y-113700000D02*
X129600000Y-112100000D01*
X141200000Y-113700000D02*
X131199999Y-113700000D01*
X129600000Y-107900000D02*
X130199999Y-107300000D01*
X141800000Y-113700000D02*
X141800000Y-104700000D01*
X147325000Y-103024999D02*
X147400000Y-103900000D01*
X147800000Y-104500000D02*
X147400000Y-104100000D01*
X130639999Y-107350000D02*
X130199999Y-107300000D01*
X129600000Y-112100000D02*
X129600000Y-107900000D01*
X147400000Y-104100000D02*
X147400000Y-103900000D01*
%TO.N,/CHAIN_SHLD*%
X155000000Y-112900000D02*
X155000000Y-113500000D01*
X155499999Y-113999999D02*
X155200000Y-113700000D01*
X128800000Y-107500000D02*
X130199999Y-106100000D01*
X155000000Y-113500000D02*
X155200000Y-113700000D01*
X155000000Y-108700000D02*
X155000000Y-110500000D01*
X128800000Y-112500000D02*
X128800000Y-107500000D01*
X130639999Y-106079999D02*
X130199999Y-106100000D01*
%TO.N,/HOP_LH_LT*%
X158600000Y-109500000D02*
X158600000Y-113900000D01*
X146600000Y-104300000D02*
X146600000Y-104500000D01*
X148600000Y-106500000D02*
X155600000Y-106500000D01*
X155600000Y-106500000D02*
X158600000Y-109500000D01*
X159000000Y-113999999D02*
X158600000Y-113900000D01*
X146200000Y-103900000D02*
X146600000Y-104300000D01*
X146600000Y-104500000D02*
X148600000Y-106500000D01*
X146000000Y-103700000D02*
X145200000Y-103700000D01*
%TO.N,/KEY_FREE3*%
X145400000Y-101500000D02*
X144200000Y-102700000D01*
X148000000Y-101500000D02*
X145400000Y-101500000D01*
X144000000Y-104587500D02*
X144200000Y-104300000D01*
X148400000Y-101900000D02*
X148000000Y-101500000D01*
X144200000Y-102700000D02*
X144200000Y-104300000D01*
X148400000Y-102300000D02*
X148400000Y-101900000D01*
%TO.N,/KEY_LH1*%
X109400000Y-112100000D02*
X108600000Y-112900000D01*
X110000000Y-111849999D02*
X110600000Y-112100000D01*
X111400000Y-113500000D02*
X111600000Y-113500000D01*
X147400000Y-110100000D02*
X148400000Y-109100000D01*
X147400000Y-113500000D02*
X147400000Y-110100000D01*
X108600000Y-112900000D02*
X108600000Y-114900000D01*
X111400000Y-114900000D02*
X111400000Y-112900000D01*
X111400000Y-112900000D02*
X110600000Y-112100000D01*
X148400000Y-109100000D02*
X148400000Y-108700000D01*
X108212499Y-115500000D02*
X108600000Y-114900000D01*
X148594999Y-107974999D02*
X148400000Y-108700000D01*
%TO.N,/KEY_LH2*%
X132600000Y-131699999D02*
X132600000Y-131500000D01*
X130000000Y-136149999D02*
X130600000Y-135900000D01*
X132600000Y-131500000D02*
X149800000Y-114300000D01*
X149800000Y-114300000D02*
X149800000Y-108700000D01*
X131400000Y-131900000D02*
X128600000Y-131900000D01*
X128212500Y-132499999D02*
X128600000Y-131900000D01*
X132199999Y-132100000D02*
X132600000Y-131699999D01*
X149864999Y-107975000D02*
X149800000Y-108700000D01*
X131400000Y-133100000D02*
X131400000Y-135100000D01*
X131400000Y-135100000D02*
X130600000Y-135900000D01*
%TO.N,/KEY_LH3*%
X151000000Y-125100000D02*
X153200000Y-122900000D01*
X151000000Y-131900000D02*
X151000000Y-125100000D01*
X151135000Y-107975000D02*
X151200000Y-108700000D01*
X151400000Y-133100000D02*
X151400000Y-135100000D01*
X151400000Y-131900000D02*
X148600000Y-131900000D01*
X150000000Y-136149999D02*
X150600000Y-135900000D01*
X153200000Y-122900000D02*
X153200000Y-111100000D01*
X148212500Y-132499999D02*
X148600000Y-131900000D01*
X151200000Y-109100000D02*
X151200000Y-108700000D01*
X151400000Y-135100000D02*
X150600000Y-135900000D01*
X153200000Y-111100000D02*
X151200000Y-109100000D01*
%TO.N,/KEY_LH4*%
X166600000Y-119700000D02*
X167400000Y-120500000D01*
X152600000Y-109300000D02*
X152600000Y-108700000D01*
X159200000Y-115100000D02*
X158400000Y-115100000D01*
X167400000Y-120500000D02*
X167400000Y-122500000D01*
X164212500Y-123000000D02*
X164600000Y-122500000D01*
X152405000Y-107974999D02*
X152600000Y-108700000D01*
X158400000Y-115100000D02*
X152600000Y-109300000D01*
X164600000Y-120500000D02*
X164600000Y-122500000D01*
X164600000Y-120500000D02*
X159200000Y-115100000D01*
X165400000Y-119700000D02*
X164600000Y-120500000D01*
X167787500Y-122999999D02*
X167400000Y-122500000D01*
%TO.N,/KEY_LH5*%
X152405000Y-103024999D02*
X152600000Y-103900000D01*
X165000000Y-102700000D02*
X166000000Y-103700000D01*
X166000000Y-103700000D02*
X166000000Y-105500000D01*
X152600000Y-104700000D02*
X152600000Y-103900000D01*
X164500000Y-102349999D02*
X164000000Y-102700000D01*
X163000000Y-105500000D02*
X163000000Y-103700000D01*
X166287500Y-106000000D02*
X166000000Y-105500000D01*
X163000000Y-103700000D02*
X164000000Y-102700000D01*
%TO.N,/LH1/SWITCH_LEG*%
X105600000Y-126200000D02*
X106000000Y-125500000D01*
X106000000Y-116100000D02*
X106000000Y-125500000D01*
%TO.N,/LH2/SWITCH_LEG*%
X126000000Y-131900000D02*
X126000000Y-126900000D01*
X125600000Y-126200000D02*
X126000000Y-126900000D01*
%TO.N,/LH3/SWITCH_LEG*%
X145599999Y-126199999D02*
X146000000Y-126900000D01*
X146000000Y-131900000D02*
X146000000Y-126900000D01*
%TO.N,/LH4/SWITCH_LEG*%
X162800000Y-134700000D02*
X162800000Y-123500000D01*
X162387500Y-123000000D02*
X162800000Y-123500000D01*
%TO.N,/LH5/SWITCH_LEG*%
X162800000Y-116700000D02*
X162800000Y-108100000D01*
X160887500Y-106000000D02*
X161200000Y-106500000D01*
X162800000Y-108100000D02*
X161200000Y-106500000D01*
%TO.N,GND_CHAIN*%
X159200000Y-103300000D02*
X159200000Y-105700000D01*
X151000000Y-101500000D02*
X153000000Y-101500000D01*
X170599999Y-136249999D02*
X171000000Y-135500000D01*
X153000000Y-101500000D02*
X153600000Y-102100000D01*
X171200000Y-135300000D02*
X171000000Y-135500000D01*
X113200000Y-118900000D02*
X110600000Y-116300000D01*
X132000000Y-109500000D02*
X132000000Y-108900000D01*
X156999999Y-102549999D02*
X156400000Y-102300000D01*
X148499999Y-113999999D02*
X147000000Y-114500000D01*
X109999999Y-113749999D02*
X110200000Y-114900000D01*
X147800000Y-114500000D02*
X147800000Y-115100000D01*
X131910000Y-107350000D02*
X132199999Y-107700000D01*
X147000000Y-114500000D02*
X146200000Y-113700000D01*
X158600000Y-102700000D02*
X159200000Y-103300000D01*
X154400000Y-101500000D02*
X155600000Y-101500000D01*
X146200000Y-113700000D02*
X146200000Y-108700000D01*
X109999999Y-113749999D02*
X110600000Y-114100000D01*
X110600000Y-116300000D02*
X110600000Y-114100000D01*
X150000000Y-134249999D02*
X150400000Y-133900000D01*
X164499999Y-104249999D02*
X164000000Y-104500000D01*
X153800000Y-102300000D02*
X153800000Y-102100000D01*
X132000000Y-106900000D02*
X132000000Y-106500000D01*
X151000000Y-101500000D02*
X151000000Y-102300000D01*
X166000000Y-121249999D02*
X166400000Y-123100000D01*
X132199999Y-105700000D02*
X132199999Y-105100000D01*
X129999999Y-134249999D02*
X130400000Y-133900000D01*
X165600000Y-122300000D02*
X165600000Y-121500000D01*
X150000000Y-134249999D02*
X149000000Y-135100000D01*
X132199999Y-108300000D02*
X132199999Y-107700000D01*
X153674999Y-103024999D02*
X153400000Y-101500000D01*
X148000000Y-114500000D02*
X147000000Y-114500000D01*
X164000000Y-105700000D02*
X164000000Y-104500000D01*
X146054999Y-107974999D02*
X146200000Y-108700000D01*
X151135000Y-103024999D02*
X151000000Y-102300000D01*
X153600000Y-102100000D02*
X153600000Y-102300000D01*
X153674999Y-103024999D02*
X153600000Y-102300000D01*
X152200000Y-128100000D02*
X152200000Y-131100000D01*
X156999999Y-102549999D02*
X156800000Y-101500000D01*
X150400000Y-132900000D02*
X150400000Y-133900000D01*
X130400000Y-132900000D02*
X130400000Y-133900000D01*
X171200000Y-118900000D02*
X171200000Y-135300000D01*
X164499999Y-104249999D02*
X165000000Y-105300000D01*
X131910000Y-106080000D02*
X132000000Y-106500000D01*
X113200000Y-126700000D02*
X113200000Y-118900000D01*
X155600000Y-101500000D02*
X156400000Y-102300000D01*
X148200000Y-114300000D02*
X148000000Y-114500000D01*
X129999999Y-134249999D02*
X129000000Y-135100000D01*
X153800000Y-102100000D02*
X154400000Y-101500000D01*
X131910000Y-104810000D02*
X132199999Y-105100000D01*
X157600000Y-102700000D02*
X158600000Y-102700000D01*
X131910000Y-108620000D02*
X132000000Y-108900000D01*
X166000000Y-121249999D02*
X165600000Y-121500000D01*
D21*
%TO.N,V3V3_CHAIN_LH*%
X157600000Y-104100000D02*
X158000000Y-103700000D01*
X144600000Y-106100000D02*
X145000000Y-105700000D01*
X158000000Y-103700000D02*
X158200000Y-103700000D01*
X144600000Y-114100000D02*
X144600000Y-118300000D01*
X149800000Y-105500000D02*
X149800000Y-103900000D01*
X145000000Y-105700000D02*
X145200000Y-105700000D01*
X149864999Y-103024999D02*
X149800000Y-103900000D01*
X156999999Y-104449999D02*
X156400000Y-104700000D01*
X154945000Y-103025000D02*
X154800000Y-103900000D01*
X168400000Y-106500000D02*
X168400000Y-108100000D01*
X152000000Y-105700000D02*
X153200000Y-105700000D01*
X169000000Y-122300000D02*
X169200000Y-122500000D01*
X134000000Y-131300000D02*
X134000000Y-131900000D01*
X168112500Y-106000000D02*
X167800000Y-105500000D01*
X149800000Y-105500000D02*
X151800000Y-105500000D01*
X151800000Y-105500000D02*
X152000000Y-105700000D01*
X144000000Y-106412500D02*
X144600000Y-106700000D01*
X168400000Y-108100000D02*
X171200000Y-110900000D01*
X171200000Y-115100000D02*
X169000000Y-117300000D01*
X144600000Y-120700000D02*
X134000000Y-131300000D01*
X144600000Y-113900000D02*
X144600000Y-106700000D01*
X171200000Y-110900000D02*
X171200000Y-115100000D01*
X133612498Y-132499999D02*
X134000000Y-131900000D01*
X155800000Y-104700000D02*
X156400000Y-104700000D01*
X114600000Y-114500000D02*
X114000000Y-115100000D01*
X155000000Y-103900000D02*
X155800000Y-104700000D01*
X144600000Y-114500000D02*
X144000000Y-114500000D01*
X169612500Y-123000000D02*
X169200000Y-122500000D01*
X127800000Y-114500000D02*
X127800000Y-109900000D01*
X153200000Y-130300000D02*
X153200000Y-132100000D01*
X153612500Y-132500000D02*
X153200000Y-132100000D01*
X169000000Y-117300000D02*
X169000000Y-122300000D01*
X154800000Y-104100000D02*
X154800000Y-103900000D01*
X113612500Y-115500000D02*
X114000000Y-115100000D01*
X167800000Y-103700000D02*
X167800000Y-105500000D01*
X153200000Y-105700000D02*
X154800000Y-104100000D01*
%TD*%
%TA.AperFunction,Conductor*%
%TO.N,GND_CHAIN*%
G36*
X145677043Y-104125195D02*
G01*
X145690971Y-104133810D01*
X145698513Y-104139194D01*
X145698517Y-104139198D01*
X145803607Y-104190573D01*
X145817842Y-104192647D01*
X145871739Y-104200500D01*
X145871740Y-104200500D01*
X145988811Y-104200500D01*
X146018251Y-104209144D01*
X146048238Y-104215668D01*
X146053253Y-104219422D01*
X146055850Y-104220185D01*
X146076492Y-104236819D01*
X146238181Y-104398508D01*
X146271666Y-104459831D01*
X146274500Y-104486189D01*
X146274500Y-104542853D01*
X146282436Y-104572472D01*
X146296682Y-104625640D01*
X146318108Y-104662750D01*
X146339535Y-104699862D01*
X146339537Y-104699864D01*
X148291656Y-106651983D01*
X148325141Y-106713306D01*
X148320157Y-106782998D01*
X148278285Y-106838931D01*
X148258437Y-106851063D01*
X148254902Y-106852792D01*
X148238514Y-106860803D01*
X148155803Y-106943514D01*
X148104426Y-107048608D01*
X148094500Y-107116739D01*
X148094500Y-108566178D01*
X148090276Y-108598266D01*
X148090275Y-108598271D01*
X148085564Y-108615853D01*
X148085534Y-108615965D01*
X148074536Y-108656855D01*
X148074500Y-108657140D01*
X148074500Y-108699810D01*
X148074451Y-108750213D01*
X148074500Y-108750956D01*
X148074500Y-108913811D01*
X148054815Y-108980850D01*
X148038182Y-109001490D01*
X148029496Y-109010177D01*
X148024802Y-109014871D01*
X147963478Y-109048353D01*
X147893786Y-109043366D01*
X147837854Y-109001493D01*
X147813440Y-108936027D01*
X147814420Y-108909308D01*
X147825500Y-108833260D01*
X147825500Y-107116739D01*
X147815573Y-107048608D01*
X147815573Y-107048607D01*
X147764198Y-106943517D01*
X147764196Y-106943515D01*
X147764196Y-106943514D01*
X147681485Y-106860803D01*
X147661565Y-106851065D01*
X147576393Y-106809427D01*
X147576391Y-106809426D01*
X147508261Y-106799500D01*
X147508260Y-106799500D01*
X147141740Y-106799500D01*
X147141739Y-106799500D01*
X147073608Y-106809426D01*
X146968514Y-106860803D01*
X146885802Y-106943515D01*
X146855154Y-107006207D01*
X146808026Y-107057789D01*
X146740492Y-107075703D01*
X146673993Y-107054262D01*
X146629644Y-107000272D01*
X146626712Y-106992700D01*
X146607346Y-106937354D01*
X146526792Y-106828207D01*
X146417645Y-106747653D01*
X146289602Y-106702850D01*
X146259207Y-106700000D01*
X146255000Y-106700000D01*
X146255000Y-109249999D01*
X146259196Y-109249999D01*
X146289606Y-109247148D01*
X146417645Y-109202346D01*
X146526792Y-109121792D01*
X146607346Y-109012645D01*
X146607347Y-109012643D01*
X146626712Y-108957300D01*
X146667433Y-108900523D01*
X146732385Y-108874775D01*
X146800947Y-108888231D01*
X146851351Y-108936617D01*
X146855155Y-108943793D01*
X146885803Y-109006485D01*
X146968514Y-109089196D01*
X146968515Y-109089196D01*
X146968517Y-109089198D01*
X147073607Y-109140573D01*
X147089256Y-109142853D01*
X147141739Y-109150500D01*
X147141740Y-109150500D01*
X147508261Y-109150500D01*
X147584308Y-109139420D01*
X147653485Y-109149233D01*
X147706375Y-109194888D01*
X147726186Y-109261891D01*
X147706627Y-109328967D01*
X147689867Y-109349805D01*
X147139537Y-109900135D01*
X147139533Y-109900141D01*
X147096682Y-109974360D01*
X147093957Y-109984529D01*
X147083926Y-110021970D01*
X147074500Y-110057147D01*
X147074500Y-112995613D01*
X147054815Y-113062652D01*
X147038182Y-113083294D01*
X146959488Y-113161988D01*
X146887017Y-113287511D01*
X146887016Y-113287515D01*
X146849500Y-113427525D01*
X146849500Y-113572475D01*
X146884309Y-113702382D01*
X146887017Y-113712488D01*
X146959488Y-113838011D01*
X146959490Y-113838013D01*
X146959491Y-113838015D01*
X147061985Y-113940509D01*
X147061986Y-113940510D01*
X147061988Y-113940511D01*
X147187511Y-114012982D01*
X147187512Y-114012982D01*
X147187515Y-114012984D01*
X147327525Y-114050500D01*
X147327528Y-114050500D01*
X147472473Y-114050500D01*
X147472475Y-114050500D01*
X147555261Y-114028317D01*
X147625109Y-114029978D01*
X147682972Y-114069140D01*
X147708971Y-114123899D01*
X147730741Y-114233345D01*
X147730743Y-114233351D01*
X147791048Y-114378940D01*
X147809941Y-114407215D01*
X148358579Y-113858579D01*
X148907215Y-113309941D01*
X148907215Y-113309940D01*
X148878940Y-113291048D01*
X148733351Y-113230743D01*
X148733343Y-113230741D01*
X148578797Y-113200000D01*
X148421202Y-113200000D01*
X148266656Y-113230741D01*
X148266648Y-113230743D01*
X148121060Y-113291047D01*
X148121048Y-113291054D01*
X148082459Y-113316838D01*
X148015781Y-113337715D01*
X147948401Y-113319229D01*
X147906183Y-113275735D01*
X147884403Y-113238011D01*
X147840509Y-113161985D01*
X147761818Y-113083294D01*
X147728334Y-113021970D01*
X147725500Y-112995613D01*
X147725500Y-110286187D01*
X147745185Y-110219148D01*
X147761815Y-110198510D01*
X148599859Y-109360466D01*
X148599862Y-109360465D01*
X148660465Y-109299862D01*
X148703318Y-109225638D01*
X148706647Y-109213211D01*
X148720153Y-109195269D01*
X148736060Y-109183426D01*
X148748501Y-109167987D01*
X148766154Y-109161021D01*
X148776197Y-109153545D01*
X148786986Y-109152801D01*
X148801343Y-109147136D01*
X148846393Y-109140573D01*
X148951483Y-109089198D01*
X149034198Y-109006483D01*
X149085573Y-108901393D01*
X149095500Y-108833260D01*
X149095500Y-107116740D01*
X149085573Y-107048607D01*
X149063746Y-107003960D01*
X149063461Y-107002290D01*
X149062353Y-107001011D01*
X149057605Y-106967991D01*
X149051987Y-106935088D01*
X149052649Y-106933528D01*
X149052409Y-106931853D01*
X149066266Y-106901509D01*
X149079330Y-106870790D01*
X149080730Y-106869836D01*
X149081434Y-106868297D01*
X149109504Y-106850257D01*
X149137095Y-106831483D01*
X149139243Y-106831145D01*
X149140212Y-106830523D01*
X149175147Y-106825500D01*
X149284853Y-106825500D01*
X149351892Y-106845185D01*
X149397647Y-106897989D01*
X149407591Y-106967147D01*
X149396253Y-107003961D01*
X149374426Y-107048607D01*
X149364500Y-107116739D01*
X149364500Y-108833260D01*
X149374426Y-108901391D01*
X149374427Y-108901393D01*
X149425802Y-109006483D01*
X149425803Y-109006484D01*
X149438179Y-109018860D01*
X149471666Y-109080182D01*
X149474500Y-109106543D01*
X149474500Y-113638759D01*
X149454815Y-113705798D01*
X149402011Y-113751553D01*
X149332853Y-113761497D01*
X149269297Y-113732472D01*
X149235939Y-113686212D01*
X149208952Y-113621060D01*
X149190058Y-113592783D01*
X148641421Y-114141421D01*
X148092783Y-114690058D01*
X148121059Y-114708952D01*
X148266648Y-114769256D01*
X148266656Y-114769258D01*
X148421202Y-114799999D01*
X148421206Y-114800000D01*
X148540311Y-114800000D01*
X148607350Y-114819685D01*
X148653105Y-114872489D01*
X148663049Y-114941647D01*
X148634024Y-115005203D01*
X148627992Y-115011681D01*
X145357660Y-118282011D01*
X145296337Y-118315496D01*
X145226645Y-118310512D01*
X145170712Y-118268640D01*
X145150206Y-118226428D01*
X145112984Y-118087515D01*
X145097330Y-118060402D01*
X145040511Y-117961988D01*
X145040506Y-117961982D01*
X145036819Y-117958295D01*
X145003334Y-117896972D01*
X145000500Y-117870614D01*
X145000500Y-114815888D01*
X145020185Y-114748849D01*
X145072989Y-114703094D01*
X145100309Y-114694271D01*
X145125071Y-114689345D01*
X145204328Y-114673580D01*
X145331811Y-114620775D01*
X145446542Y-114544114D01*
X145544114Y-114446542D01*
X145620775Y-114331811D01*
X145673580Y-114204328D01*
X145689298Y-114125308D01*
X145700500Y-114068995D01*
X145700500Y-113931004D01*
X145673581Y-113795677D01*
X145673580Y-113795676D01*
X145673580Y-113795672D01*
X145673578Y-113795667D01*
X145620778Y-113668195D01*
X145620771Y-113668182D01*
X145544114Y-113553458D01*
X145544111Y-113553454D01*
X145446545Y-113455888D01*
X145446541Y-113455885D01*
X145331817Y-113379228D01*
X145331804Y-113379221D01*
X145204332Y-113326421D01*
X145204322Y-113326418D01*
X145100308Y-113305728D01*
X145038397Y-113273343D01*
X145003823Y-113212627D01*
X145000500Y-113184111D01*
X145000500Y-108854196D01*
X145455001Y-108854196D01*
X145457851Y-108884606D01*
X145502653Y-109012645D01*
X145583207Y-109121792D01*
X145692354Y-109202346D01*
X145820397Y-109247149D01*
X145850793Y-109249999D01*
X145854999Y-109249999D01*
X145855000Y-109249998D01*
X145855000Y-108175000D01*
X145455001Y-108175000D01*
X145455001Y-108854196D01*
X145000500Y-108854196D01*
X145000500Y-107095793D01*
X145455000Y-107095793D01*
X145455000Y-107775000D01*
X145855000Y-107775000D01*
X145855000Y-106700000D01*
X145850796Y-106700001D01*
X145850774Y-106700002D01*
X145820399Y-106702850D01*
X145820394Y-106702851D01*
X145692354Y-106747653D01*
X145583207Y-106828207D01*
X145502653Y-106937354D01*
X145457850Y-107065395D01*
X145457850Y-107065399D01*
X145455000Y-107095793D01*
X145000500Y-107095793D01*
X145000500Y-106748665D01*
X145002617Y-106725849D01*
X145003364Y-106721861D01*
X145000500Y-106684620D01*
X145000500Y-106647273D01*
X144996471Y-106632238D01*
X144995278Y-106616718D01*
X144982873Y-106581489D01*
X144973207Y-106545413D01*
X144965423Y-106531931D01*
X144960254Y-106517250D01*
X144960253Y-106517247D01*
X144941842Y-106490356D01*
X144936775Y-106482310D01*
X144928462Y-106467913D01*
X144911986Y-106400014D01*
X144934835Y-106333986D01*
X144948162Y-106318230D01*
X144968848Y-106297543D01*
X144988862Y-106277531D01*
X145050185Y-106244046D01*
X145108633Y-106245437D01*
X145127525Y-106250500D01*
X145127528Y-106250500D01*
X145272472Y-106250500D01*
X145272475Y-106250500D01*
X145412485Y-106212984D01*
X145538015Y-106140509D01*
X145640509Y-106038015D01*
X145712984Y-105912485D01*
X145750500Y-105772475D01*
X145750500Y-105627525D01*
X145712984Y-105487515D01*
X145698442Y-105462328D01*
X145640511Y-105361988D01*
X145640506Y-105361982D01*
X145538017Y-105259493D01*
X145538011Y-105259488D01*
X145412488Y-105187017D01*
X145412489Y-105187017D01*
X145401006Y-105183940D01*
X145272475Y-105149500D01*
X145127525Y-105149500D01*
X145017548Y-105178968D01*
X144947698Y-105177305D01*
X144889836Y-105138142D01*
X144862332Y-105073914D01*
X144868413Y-105018240D01*
X144897646Y-104934699D01*
X144899729Y-104912485D01*
X144900500Y-104904269D01*
X144900500Y-104351268D01*
X144920185Y-104284229D01*
X144972989Y-104238474D01*
X145042147Y-104228530D01*
X145056580Y-104231490D01*
X145127525Y-104250500D01*
X145127528Y-104250500D01*
X145272472Y-104250500D01*
X145272475Y-104250500D01*
X145412485Y-104212984D01*
X145538015Y-104140509D01*
X145538020Y-104140503D01*
X145543429Y-104136354D01*
X145608598Y-104111158D01*
X145677043Y-104125195D01*
G37*
%TD.AperFunction*%
%TA.AperFunction,Conductor*%
G36*
X131583852Y-108755095D02*
G01*
X131629930Y-108834905D01*
X131695095Y-108900070D01*
X131774905Y-108946148D01*
X131847296Y-108965545D01*
X131557842Y-109255000D01*
X131847296Y-109544454D01*
X131774905Y-109563852D01*
X131695095Y-109609930D01*
X131629930Y-109675095D01*
X131583852Y-109754905D01*
X131564454Y-109827296D01*
X131318442Y-109581284D01*
X131295292Y-109546637D01*
X131294660Y-109546976D01*
X131291790Y-109541607D01*
X131211300Y-109421146D01*
X131211297Y-109421142D01*
X131132836Y-109342681D01*
X131128497Y-109334735D01*
X131121250Y-109329310D01*
X131112015Y-109304550D01*
X131099351Y-109281358D01*
X131099996Y-109272328D01*
X131096833Y-109263846D01*
X131102449Y-109238025D01*
X131104335Y-109211666D01*
X131110153Y-109202612D01*
X131111685Y-109195573D01*
X131132836Y-109167319D01*
X131184198Y-109115957D01*
X131211297Y-109088857D01*
X131211300Y-109088854D01*
X131291792Y-108968390D01*
X131291795Y-108968381D01*
X131294665Y-108963015D01*
X131295300Y-108963354D01*
X131318443Y-108928712D01*
X131564454Y-108682701D01*
X131583852Y-108755095D01*
G37*
%TD.AperFunction*%
%TA.AperFunction,Conductor*%
G36*
X132638181Y-109065340D02*
G01*
X132652884Y-109092267D01*
X132669477Y-109118086D01*
X132670368Y-109124286D01*
X132671666Y-109126663D01*
X132674500Y-109153021D01*
X132674500Y-109356978D01*
X132654815Y-109424017D01*
X132638181Y-109444659D01*
X132255544Y-109827295D01*
X132236148Y-109754905D01*
X132190070Y-109675095D01*
X132124905Y-109609930D01*
X132045095Y-109563852D01*
X131972703Y-109544454D01*
X132262158Y-109255000D01*
X131972703Y-108965545D01*
X132045095Y-108946148D01*
X132124905Y-108900070D01*
X132190070Y-108834905D01*
X132236148Y-108755095D01*
X132255545Y-108682704D01*
X132638181Y-109065340D01*
G37*
%TD.AperFunction*%
%TA.AperFunction,Conductor*%
G36*
X131583852Y-107485095D02*
G01*
X131629930Y-107564905D01*
X131695095Y-107630070D01*
X131774905Y-107676148D01*
X131847296Y-107695545D01*
X131557842Y-107985000D01*
X131847296Y-108274454D01*
X131774905Y-108293852D01*
X131695095Y-108339930D01*
X131629930Y-108405095D01*
X131583852Y-108484905D01*
X131564454Y-108557296D01*
X131318442Y-108311284D01*
X131295292Y-108276637D01*
X131294660Y-108276976D01*
X131291790Y-108271607D01*
X131211300Y-108151146D01*
X131211297Y-108151142D01*
X131132836Y-108072681D01*
X131128497Y-108064735D01*
X131121250Y-108059310D01*
X131112015Y-108034550D01*
X131099351Y-108011358D01*
X131099996Y-108002328D01*
X131096833Y-107993846D01*
X131102449Y-107968025D01*
X131104335Y-107941666D01*
X131110153Y-107932612D01*
X131111685Y-107925573D01*
X131132836Y-107897319D01*
X131184198Y-107845957D01*
X131211297Y-107818857D01*
X131211300Y-107818854D01*
X131291792Y-107698390D01*
X131291795Y-107698381D01*
X131294665Y-107693015D01*
X131295300Y-107693354D01*
X131318443Y-107658712D01*
X131564454Y-107412701D01*
X131583852Y-107485095D01*
G37*
%TD.AperFunction*%
%TA.AperFunction,Conductor*%
G36*
X132638181Y-107795340D02*
G01*
X132652884Y-107822267D01*
X132669477Y-107848086D01*
X132670368Y-107854286D01*
X132671666Y-107856663D01*
X132674500Y-107883021D01*
X132674500Y-108086978D01*
X132654815Y-108154017D01*
X132638181Y-108174659D01*
X132255545Y-108557295D01*
X132236148Y-108484905D01*
X132190070Y-108405095D01*
X132124905Y-108339930D01*
X132045095Y-108293852D01*
X131972703Y-108274454D01*
X132262158Y-107985000D01*
X131972703Y-107695545D01*
X132045095Y-107676148D01*
X132124905Y-107630070D01*
X132190070Y-107564905D01*
X132236148Y-107485095D01*
X132255545Y-107412704D01*
X132638181Y-107795340D01*
G37*
%TD.AperFunction*%
%TA.AperFunction,Conductor*%
G36*
X131583852Y-106215095D02*
G01*
X131629930Y-106294905D01*
X131695095Y-106360070D01*
X131774905Y-106406148D01*
X131847296Y-106425545D01*
X131557842Y-106715000D01*
X131847296Y-107004454D01*
X131774905Y-107023852D01*
X131695095Y-107069930D01*
X131629930Y-107135095D01*
X131583852Y-107214905D01*
X131564454Y-107287296D01*
X131318442Y-107041284D01*
X131295292Y-107006637D01*
X131294660Y-107006976D01*
X131291790Y-107001607D01*
X131211300Y-106881146D01*
X131211297Y-106881142D01*
X131132836Y-106802681D01*
X131128497Y-106794735D01*
X131121250Y-106789310D01*
X131112015Y-106764550D01*
X131099351Y-106741358D01*
X131099996Y-106732328D01*
X131096833Y-106723846D01*
X131102449Y-106698025D01*
X131104335Y-106671666D01*
X131110153Y-106662612D01*
X131111685Y-106655573D01*
X131132836Y-106627319D01*
X131184198Y-106575957D01*
X131211297Y-106548857D01*
X131211300Y-106548854D01*
X131291792Y-106428390D01*
X131291795Y-106428381D01*
X131294665Y-106423015D01*
X131295300Y-106423354D01*
X131318443Y-106388712D01*
X131564454Y-106142701D01*
X131583852Y-106215095D01*
G37*
%TD.AperFunction*%
%TA.AperFunction,Conductor*%
G36*
X132638181Y-106525340D02*
G01*
X132652884Y-106552267D01*
X132669477Y-106578086D01*
X132670368Y-106584286D01*
X132671666Y-106586663D01*
X132674500Y-106613021D01*
X132674500Y-106816978D01*
X132654815Y-106884017D01*
X132638181Y-106904659D01*
X132255545Y-107287295D01*
X132236148Y-107214905D01*
X132190070Y-107135095D01*
X132124905Y-107069930D01*
X132045095Y-107023852D01*
X131972703Y-107004454D01*
X132262158Y-106715000D01*
X131972703Y-106425545D01*
X132045095Y-106406148D01*
X132124905Y-106360070D01*
X132190070Y-106294905D01*
X132236148Y-106215095D01*
X132255545Y-106142704D01*
X132638181Y-106525340D01*
G37*
%TD.AperFunction*%
%TA.AperFunction,Conductor*%
G36*
X131583852Y-104945095D02*
G01*
X131629930Y-105024905D01*
X131695095Y-105090070D01*
X131774905Y-105136148D01*
X131847296Y-105155545D01*
X131557842Y-105445000D01*
X131847296Y-105734454D01*
X131774905Y-105753852D01*
X131695095Y-105799930D01*
X131629930Y-105865095D01*
X131583852Y-105944905D01*
X131564454Y-106017296D01*
X131318442Y-105771284D01*
X131295292Y-105736637D01*
X131294660Y-105736976D01*
X131291790Y-105731607D01*
X131211300Y-105611146D01*
X131211297Y-105611142D01*
X131132836Y-105532681D01*
X131128497Y-105524735D01*
X131121250Y-105519310D01*
X131112015Y-105494550D01*
X131099351Y-105471358D01*
X131099996Y-105462328D01*
X131096833Y-105453846D01*
X131102449Y-105428025D01*
X131104335Y-105401666D01*
X131110153Y-105392612D01*
X131111685Y-105385573D01*
X131132836Y-105357319D01*
X131184198Y-105305957D01*
X131211297Y-105278857D01*
X131211300Y-105278854D01*
X131291792Y-105158390D01*
X131291795Y-105158381D01*
X131294665Y-105153015D01*
X131295300Y-105153354D01*
X131318443Y-105118713D01*
X131564454Y-104872701D01*
X131583852Y-104945095D01*
G37*
%TD.AperFunction*%
%TA.AperFunction,Conductor*%
G36*
X132638181Y-105255339D02*
G01*
X132652884Y-105282266D01*
X132669477Y-105308085D01*
X132670368Y-105314285D01*
X132671666Y-105316662D01*
X132674500Y-105343020D01*
X132674500Y-105546978D01*
X132654815Y-105614017D01*
X132638181Y-105634659D01*
X132255545Y-106017295D01*
X132236148Y-105944905D01*
X132190070Y-105865095D01*
X132124905Y-105799930D01*
X132045095Y-105753852D01*
X131972703Y-105734454D01*
X132262158Y-105445000D01*
X131972703Y-105155545D01*
X132045095Y-105136148D01*
X132124905Y-105090070D01*
X132190070Y-105024905D01*
X132236148Y-104945095D01*
X132255545Y-104872703D01*
X132638181Y-105255339D01*
G37*
%TD.AperFunction*%
%TA.AperFunction,Conductor*%
G36*
X179993037Y-100800883D02*
G01*
X180099145Y-100809249D01*
X180118318Y-100812284D01*
X180206455Y-100833426D01*
X180224944Y-100839428D01*
X180308280Y-100873912D01*
X180325592Y-100882722D01*
X180402307Y-100929667D01*
X180418235Y-100941248D01*
X180486464Y-100999672D01*
X180500056Y-101013273D01*
X180558826Y-101082011D01*
X180570298Y-101097793D01*
X180617284Y-101174461D01*
X180626137Y-101191843D01*
X180660771Y-101275542D01*
X180666701Y-101293734D01*
X180687875Y-101381059D01*
X180691004Y-101400792D01*
X180699137Y-101506782D01*
X180699500Y-101516269D01*
X180699500Y-141483732D01*
X180699137Y-141493218D01*
X180691003Y-141599237D01*
X180687874Y-141618971D01*
X180666707Y-141706268D01*
X180660773Y-141724469D01*
X180626145Y-141808133D01*
X180617294Y-141825509D01*
X180570286Y-141902208D01*
X180558820Y-141917981D01*
X180500047Y-141986738D01*
X180486448Y-142000350D01*
X180418235Y-142058768D01*
X180402295Y-142070357D01*
X180325558Y-142117310D01*
X180308278Y-142126106D01*
X180224992Y-142160592D01*
X180206433Y-142166615D01*
X180118350Y-142187709D01*
X180099226Y-142190735D01*
X179993024Y-142199116D01*
X179983269Y-142199500D01*
X98016683Y-142199500D01*
X98006953Y-142199118D01*
X97993253Y-142198039D01*
X97900483Y-142190737D01*
X97881264Y-142187692D01*
X97793610Y-142166646D01*
X97775122Y-142160640D01*
X97691853Y-142126161D01*
X97674502Y-142117322D01*
X97597707Y-142070263D01*
X97581958Y-142058820D01*
X97513476Y-142000320D01*
X97499721Y-141986562D01*
X97441189Y-141918018D01*
X97429767Y-141902296D01*
X97382704Y-141825508D01*
X97373853Y-141808133D01*
X97339373Y-141724825D01*
X97333392Y-141706421D01*
X97312303Y-141618735D01*
X97309248Y-141599463D01*
X97309230Y-141599237D01*
X97300882Y-141493062D01*
X97300500Y-141483342D01*
X97300500Y-139499999D01*
X97900000Y-139499999D01*
X97940349Y-139909687D01*
X98059853Y-140303639D01*
X98253909Y-140666691D01*
X98253913Y-140666698D01*
X98515074Y-140984924D01*
X98833300Y-141246085D01*
X98833307Y-141246089D01*
X99196359Y-141440145D01*
X99196361Y-141440145D01*
X99196364Y-141440147D01*
X99590310Y-141559649D01*
X99590309Y-141559649D01*
X99630660Y-141563623D01*
X100000000Y-141600000D01*
X100409689Y-141559649D01*
X100803635Y-141440147D01*
X101166697Y-141246086D01*
X101484924Y-140984924D01*
X101746086Y-140666697D01*
X101940147Y-140303635D01*
X102059649Y-139909689D01*
X102100000Y-139500000D01*
X175900000Y-139500000D01*
X175940349Y-139909687D01*
X176059853Y-140303639D01*
X176253909Y-140666691D01*
X176253913Y-140666698D01*
X176515074Y-140984924D01*
X176833300Y-141246085D01*
X176833307Y-141246089D01*
X177196359Y-141440145D01*
X177196361Y-141440145D01*
X177196364Y-141440147D01*
X177590310Y-141559649D01*
X177590309Y-141559649D01*
X177630660Y-141563623D01*
X178000000Y-141600000D01*
X178409689Y-141559649D01*
X178803635Y-141440147D01*
X179166697Y-141246086D01*
X179484924Y-140984924D01*
X179746086Y-140666697D01*
X179940147Y-140303635D01*
X180059649Y-139909689D01*
X180100000Y-139500000D01*
X180059649Y-139090310D01*
X179940147Y-138696364D01*
X179940145Y-138696361D01*
X179940145Y-138696359D01*
X179746089Y-138333307D01*
X179746085Y-138333300D01*
X179484924Y-138015074D01*
X179166698Y-137753913D01*
X179166691Y-137753909D01*
X178803639Y-137559853D01*
X178409687Y-137440349D01*
X178000000Y-137400000D01*
X177590311Y-137440349D01*
X177196359Y-137559853D01*
X176833307Y-137753909D01*
X176833300Y-137753913D01*
X176515074Y-138015074D01*
X176253913Y-138333300D01*
X176253909Y-138333307D01*
X176059853Y-138696359D01*
X175940349Y-139090311D01*
X175900000Y-139500000D01*
X102100000Y-139500000D01*
X102059649Y-139090310D01*
X101940147Y-138696364D01*
X101940145Y-138696361D01*
X101940145Y-138696359D01*
X101746089Y-138333307D01*
X101746085Y-138333300D01*
X101484924Y-138015074D01*
X101166698Y-137753913D01*
X101166691Y-137753909D01*
X100803639Y-137559853D01*
X100409687Y-137440349D01*
X100000000Y-137400000D01*
X99590311Y-137440349D01*
X99196359Y-137559853D01*
X98833307Y-137753909D01*
X98833300Y-137753913D01*
X98515074Y-138015074D01*
X98253913Y-138333300D01*
X98253909Y-138333307D01*
X98059853Y-138696359D01*
X97940349Y-139090311D01*
X97900000Y-139499999D01*
X97300500Y-139499999D01*
X97300500Y-134543053D01*
X128975000Y-134543053D01*
X128985613Y-134631443D01*
X129041079Y-134772095D01*
X129132435Y-134892564D01*
X129252904Y-134983920D01*
X129393556Y-135039386D01*
X129481946Y-135050000D01*
X129800000Y-135050000D01*
X129800000Y-134450000D01*
X128975000Y-134450000D01*
X128975000Y-134543053D01*
X97300500Y-134543053D01*
X97300500Y-133956946D01*
X128975000Y-133956946D01*
X128975000Y-134050000D01*
X129800000Y-134050000D01*
X129800000Y-133450000D01*
X129481946Y-133450000D01*
X129393556Y-133460613D01*
X129252904Y-133516079D01*
X129132435Y-133607435D01*
X129041079Y-133727904D01*
X128985613Y-133868556D01*
X128975000Y-133956946D01*
X97300500Y-133956946D01*
X97300500Y-126105513D01*
X104399500Y-126105513D01*
X104399500Y-126294486D01*
X104429059Y-126481118D01*
X104487454Y-126660836D01*
X104533379Y-126750968D01*
X104573240Y-126829199D01*
X104684310Y-126982073D01*
X104817927Y-127115690D01*
X104970801Y-127226760D01*
X105050347Y-127267290D01*
X105139163Y-127312545D01*
X105139165Y-127312545D01*
X105139168Y-127312547D01*
X105235497Y-127343846D01*
X105318881Y-127370940D01*
X105505514Y-127400500D01*
X105505519Y-127400500D01*
X105694486Y-127400500D01*
X105881118Y-127370940D01*
X105938433Y-127352317D01*
X106060832Y-127312547D01*
X106229199Y-127226760D01*
X106338040Y-127147682D01*
X111300000Y-127147682D01*
X111300000Y-127352317D01*
X111332009Y-127554417D01*
X111395244Y-127749031D01*
X111488139Y-127931347D01*
X111550279Y-128016876D01*
X112019668Y-127547487D01*
X112023978Y-127557890D01*
X112095112Y-127664351D01*
X112185649Y-127754888D01*
X112292110Y-127826022D01*
X112302510Y-127830330D01*
X111833121Y-128299719D01*
X111833122Y-128299720D01*
X111918640Y-128361852D01*
X111918649Y-128361858D01*
X112100968Y-128454755D01*
X112295582Y-128517990D01*
X112497683Y-128550000D01*
X112702317Y-128550000D01*
X112904417Y-128517990D01*
X113099031Y-128454755D01*
X113281349Y-128361859D01*
X113366876Y-128299719D01*
X113366877Y-128299718D01*
X112897489Y-127830330D01*
X112907890Y-127826022D01*
X113014351Y-127754888D01*
X113104888Y-127664351D01*
X113176022Y-127557890D01*
X113180330Y-127547488D01*
X113649718Y-128016877D01*
X113649719Y-128016876D01*
X113711859Y-127931349D01*
X113804755Y-127749031D01*
X113867990Y-127554417D01*
X113900000Y-127352317D01*
X113900000Y-127147682D01*
X113867990Y-126945582D01*
X113804755Y-126750968D01*
X113711858Y-126568649D01*
X113711852Y-126568640D01*
X113649720Y-126483122D01*
X113649719Y-126483121D01*
X113180330Y-126952510D01*
X113176022Y-126942110D01*
X113104888Y-126835649D01*
X113014351Y-126745112D01*
X112907890Y-126673978D01*
X112897487Y-126669669D01*
X113366876Y-126200279D01*
X113366876Y-126200278D01*
X113281352Y-126138142D01*
X113217315Y-126105513D01*
X124399500Y-126105513D01*
X124399500Y-126294486D01*
X124429059Y-126481118D01*
X124487454Y-126660836D01*
X124533379Y-126750968D01*
X124573240Y-126829199D01*
X124684310Y-126982073D01*
X124817927Y-127115690D01*
X124970801Y-127226760D01*
X125050347Y-127267290D01*
X125139163Y-127312545D01*
X125139165Y-127312545D01*
X125139168Y-127312547D01*
X125235497Y-127343846D01*
X125318881Y-127370940D01*
X125505514Y-127400500D01*
X125505519Y-127400500D01*
X125550500Y-127400500D01*
X125617539Y-127420185D01*
X125663294Y-127472989D01*
X125674500Y-127524500D01*
X125674500Y-131942851D01*
X125675561Y-131950909D01*
X125673880Y-131951130D01*
X125676095Y-131978724D01*
X125674501Y-131995730D01*
X125674500Y-131995737D01*
X125674500Y-133004269D01*
X125677353Y-133034699D01*
X125677353Y-133034701D01*
X125722206Y-133162880D01*
X125722207Y-133162882D01*
X125802850Y-133272150D01*
X125912118Y-133352793D01*
X125954845Y-133367744D01*
X126040299Y-133397646D01*
X126070730Y-133400500D01*
X126070734Y-133400500D01*
X126704270Y-133400500D01*
X126734699Y-133397646D01*
X126734701Y-133397646D01*
X126798790Y-133375219D01*
X126862882Y-133352793D01*
X126972150Y-133272150D01*
X127052793Y-133162882D01*
X127089791Y-133057148D01*
X127097646Y-133034701D01*
X127097646Y-133034699D01*
X127100500Y-133004269D01*
X127100500Y-131995730D01*
X127499500Y-131995730D01*
X127499500Y-133004269D01*
X127502353Y-133034699D01*
X127502353Y-133034701D01*
X127547206Y-133162880D01*
X127547207Y-133162882D01*
X127627850Y-133272150D01*
X127737118Y-133352793D01*
X127779845Y-133367744D01*
X127865299Y-133397646D01*
X127895730Y-133400500D01*
X127895734Y-133400500D01*
X128529270Y-133400500D01*
X128559699Y-133397646D01*
X128559701Y-133397646D01*
X128623790Y-133375219D01*
X128687882Y-133352793D01*
X128797150Y-133272150D01*
X128877793Y-133162882D01*
X128914791Y-133057148D01*
X128922646Y-133034701D01*
X128922646Y-133034699D01*
X128925500Y-133004269D01*
X128925500Y-132349500D01*
X128945185Y-132282461D01*
X128997989Y-132236706D01*
X129049500Y-132225500D01*
X130950499Y-132225500D01*
X131017538Y-132245185D01*
X131063293Y-132297989D01*
X131074499Y-132349500D01*
X131074499Y-133004264D01*
X131076094Y-133021279D01*
X131073998Y-133048885D01*
X131075560Y-133049091D01*
X131074500Y-133057143D01*
X131074500Y-133515007D01*
X131054815Y-133582046D01*
X131002011Y-133627801D01*
X130932853Y-133637745D01*
X130875193Y-133611412D01*
X130874323Y-133612560D01*
X130747095Y-133516079D01*
X130606443Y-133460613D01*
X130518054Y-133450000D01*
X130200000Y-133450000D01*
X130200000Y-135050000D01*
X130518054Y-135050000D01*
X130606446Y-135039385D01*
X130701607Y-135001859D01*
X130771193Y-134995577D01*
X130833130Y-135027914D01*
X130867751Y-135088602D01*
X130864066Y-135158375D01*
X130834778Y-135204894D01*
X130626170Y-135413501D01*
X130564847Y-135446986D01*
X130532192Y-135448986D01*
X130532162Y-135449635D01*
X130529277Y-135449500D01*
X130529266Y-135449500D01*
X129470734Y-135449500D01*
X129470730Y-135449500D01*
X129440300Y-135452353D01*
X129440298Y-135452353D01*
X129312119Y-135497206D01*
X129312117Y-135497207D01*
X129202850Y-135577850D01*
X129122207Y-135687117D01*
X129122206Y-135687119D01*
X129077353Y-135815298D01*
X129077353Y-135815300D01*
X129074500Y-135845730D01*
X129074500Y-136454269D01*
X129077353Y-136484699D01*
X129077353Y-136484701D01*
X129122206Y-136612880D01*
X129122207Y-136612882D01*
X129202850Y-136722150D01*
X129312118Y-136802793D01*
X129354845Y-136817744D01*
X129440299Y-136847646D01*
X129470730Y-136850500D01*
X129470734Y-136850500D01*
X130529270Y-136850500D01*
X130559699Y-136847646D01*
X130559701Y-136847646D01*
X130623790Y-136825219D01*
X130687882Y-136802793D01*
X130797150Y-136722150D01*
X130877793Y-136612882D01*
X130905800Y-136532842D01*
X130922646Y-136484701D01*
X130922646Y-136484699D01*
X130925500Y-136454269D01*
X130925500Y-136086189D01*
X130945185Y-136019150D01*
X130961819Y-135998508D01*
X131299495Y-135660832D01*
X131660465Y-135299862D01*
X131703318Y-135225639D01*
X131725500Y-135142853D01*
X131725500Y-135057147D01*
X131725500Y-134543053D01*
X148975000Y-134543053D01*
X148985613Y-134631443D01*
X149041079Y-134772095D01*
X149132435Y-134892564D01*
X149252904Y-134983920D01*
X149393556Y-135039386D01*
X149481946Y-135050000D01*
X149800000Y-135050000D01*
X149800000Y-134450000D01*
X148975000Y-134450000D01*
X148975000Y-134543053D01*
X131725500Y-134543053D01*
X131725500Y-133956946D01*
X148975000Y-133956946D01*
X148975000Y-134050000D01*
X149800000Y-134050000D01*
X149800000Y-133450000D01*
X149481946Y-133450000D01*
X149393556Y-133460613D01*
X149252904Y-133516079D01*
X149132435Y-133607435D01*
X149041079Y-133727904D01*
X148985613Y-133868556D01*
X148975000Y-133956946D01*
X131725500Y-133956946D01*
X131725500Y-133524500D01*
X131745185Y-133457461D01*
X131797989Y-133411706D01*
X131849500Y-133400500D01*
X132104269Y-133400500D01*
X132134698Y-133397646D01*
X132134700Y-133397646D01*
X132198789Y-133375219D01*
X132262881Y-133352793D01*
X132372149Y-133272150D01*
X132452792Y-133162882D01*
X132489790Y-133057148D01*
X132497645Y-133034701D01*
X132497645Y-133034699D01*
X132500499Y-133004269D01*
X132500499Y-132311187D01*
X132509143Y-132281746D01*
X132515667Y-132251760D01*
X132519421Y-132246744D01*
X132520184Y-132244148D01*
X132536814Y-132223510D01*
X132687818Y-132072505D01*
X132749141Y-132039021D01*
X132818833Y-132044005D01*
X132874766Y-132085877D01*
X132899183Y-132151341D01*
X132899499Y-132160187D01*
X132899499Y-133004269D01*
X132902352Y-133034699D01*
X132902352Y-133034701D01*
X132947205Y-133162880D01*
X132947206Y-133162882D01*
X133027849Y-133272150D01*
X133137117Y-133352793D01*
X133179844Y-133367744D01*
X133265298Y-133397646D01*
X133295729Y-133400500D01*
X133295733Y-133400500D01*
X133929269Y-133400500D01*
X133959698Y-133397646D01*
X133959700Y-133397646D01*
X134023789Y-133375219D01*
X134087881Y-133352793D01*
X134197149Y-133272150D01*
X134277792Y-133162882D01*
X134314790Y-133057148D01*
X134322645Y-133034701D01*
X134322645Y-133034699D01*
X134325499Y-133004269D01*
X134325499Y-132170775D01*
X134329600Y-132155390D01*
X134328921Y-132141844D01*
X134340295Y-132115273D01*
X134341956Y-132109045D01*
X134343567Y-132106237D01*
X134365041Y-132072990D01*
X134368095Y-132063504D01*
X134373186Y-132054636D01*
X134373204Y-132054591D01*
X134373207Y-132054587D01*
X134377757Y-132037602D01*
X134383472Y-132016276D01*
X134383472Y-132016273D01*
X134384270Y-132013295D01*
X134397375Y-131972617D01*
X134397879Y-131962507D01*
X134400500Y-131952727D01*
X134400500Y-131909984D01*
X134402630Y-131867294D01*
X134400500Y-131857395D01*
X134400500Y-131517254D01*
X134420185Y-131450215D01*
X134436819Y-131429573D01*
X139760879Y-126105513D01*
X144399500Y-126105513D01*
X144399500Y-126294486D01*
X144429059Y-126481118D01*
X144487454Y-126660836D01*
X144533379Y-126750968D01*
X144573240Y-126829199D01*
X144684310Y-126982073D01*
X144817927Y-127115690D01*
X144970801Y-127226760D01*
X145050347Y-127267290D01*
X145139163Y-127312545D01*
X145139165Y-127312545D01*
X145139168Y-127312547D01*
X145235497Y-127343846D01*
X145318881Y-127370940D01*
X145505514Y-127400500D01*
X145505519Y-127400500D01*
X145550500Y-127400500D01*
X145617539Y-127420185D01*
X145663294Y-127472989D01*
X145674500Y-127524500D01*
X145674500Y-131942851D01*
X145675561Y-131950909D01*
X145673880Y-131951130D01*
X145676095Y-131978724D01*
X145674501Y-131995730D01*
X145674500Y-131995737D01*
X145674500Y-133004269D01*
X145677353Y-133034699D01*
X145677353Y-133034701D01*
X145722206Y-133162880D01*
X145722207Y-133162882D01*
X145802850Y-133272150D01*
X145912118Y-133352793D01*
X145954845Y-133367744D01*
X146040299Y-133397646D01*
X146070730Y-133400500D01*
X146070734Y-133400500D01*
X146704270Y-133400500D01*
X146734699Y-133397646D01*
X146734701Y-133397646D01*
X146798790Y-133375219D01*
X146862882Y-133352793D01*
X146972150Y-133272150D01*
X147052793Y-133162882D01*
X147089791Y-133057148D01*
X147097646Y-133034701D01*
X147097646Y-133034699D01*
X147100500Y-133004269D01*
X147100500Y-131995730D01*
X147097646Y-131965300D01*
X147097646Y-131965298D01*
X147052793Y-131837119D01*
X147052792Y-131837117D01*
X147044320Y-131825638D01*
X146972150Y-131727850D01*
X146862882Y-131647207D01*
X146862880Y-131647206D01*
X146734700Y-131602353D01*
X146704270Y-131599500D01*
X146704266Y-131599500D01*
X146449500Y-131599500D01*
X146382461Y-131579815D01*
X146336706Y-131527011D01*
X146325500Y-131475500D01*
X146325500Y-127219973D01*
X146345185Y-127152934D01*
X146376617Y-127119653D01*
X146382073Y-127115690D01*
X146515690Y-126982073D01*
X146626760Y-126829199D01*
X146712547Y-126660832D01*
X146770940Y-126481118D01*
X146782066Y-126410870D01*
X146800500Y-126294486D01*
X146800500Y-126105513D01*
X146770940Y-125918881D01*
X146712545Y-125739163D01*
X146626759Y-125570800D01*
X146515690Y-125417927D01*
X146382073Y-125284310D01*
X146229199Y-125173240D01*
X146060836Y-125087454D01*
X145881118Y-125029059D01*
X145694486Y-124999500D01*
X145694481Y-124999500D01*
X145505519Y-124999500D01*
X145505514Y-124999500D01*
X145318881Y-125029059D01*
X145139163Y-125087454D01*
X144970800Y-125173240D01*
X144907614Y-125219148D01*
X144817927Y-125284310D01*
X144817925Y-125284312D01*
X144817924Y-125284312D01*
X144684312Y-125417924D01*
X144684312Y-125417925D01*
X144684310Y-125417927D01*
X144636610Y-125483579D01*
X144573240Y-125570800D01*
X144487454Y-125739163D01*
X144429059Y-125918881D01*
X144399500Y-126105513D01*
X139760879Y-126105513D01*
X144579573Y-121286819D01*
X144640896Y-121253334D01*
X144667254Y-121250500D01*
X144672472Y-121250500D01*
X144672475Y-121250500D01*
X144812485Y-121212984D01*
X144938015Y-121140509D01*
X145040509Y-121038015D01*
X145112984Y-120912485D01*
X145150500Y-120772475D01*
X145150500Y-120627525D01*
X145112984Y-120487515D01*
X145093685Y-120454089D01*
X145040511Y-120361988D01*
X145040506Y-120361982D01*
X144938017Y-120259493D01*
X144938011Y-120259488D01*
X144812488Y-120187017D01*
X144812489Y-120187017D01*
X144800892Y-120183909D01*
X144673570Y-120149793D01*
X144613913Y-120113430D01*
X144583384Y-120050583D01*
X144591679Y-119981207D01*
X144617983Y-119942342D01*
X150060465Y-114499862D01*
X150103318Y-114425639D01*
X150125500Y-114342853D01*
X150125500Y-114257147D01*
X150125500Y-109213525D01*
X150145185Y-109146486D01*
X150195040Y-109102124D01*
X150221483Y-109089198D01*
X150304198Y-109006483D01*
X150355573Y-108901393D01*
X150365500Y-108833260D01*
X150365500Y-107116740D01*
X150355573Y-107048607D01*
X150333746Y-107003960D01*
X150333461Y-107002290D01*
X150332353Y-107001011D01*
X150327605Y-106967991D01*
X150321987Y-106935088D01*
X150322649Y-106933528D01*
X150322409Y-106931853D01*
X150336266Y-106901509D01*
X150349330Y-106870790D01*
X150350730Y-106869836D01*
X150351434Y-106868297D01*
X150379504Y-106850257D01*
X150407095Y-106831483D01*
X150409243Y-106831145D01*
X150410212Y-106830523D01*
X150445147Y-106825500D01*
X150554853Y-106825500D01*
X150621892Y-106845185D01*
X150667647Y-106897989D01*
X150677591Y-106967147D01*
X150666253Y-107003961D01*
X150644426Y-107048607D01*
X150634500Y-107116739D01*
X150634500Y-108833260D01*
X150644426Y-108901391D01*
X150695803Y-109006485D01*
X150778513Y-109089195D01*
X150778514Y-109089195D01*
X150778517Y-109089198D01*
X150821718Y-109110317D01*
X150873299Y-109157444D01*
X150887031Y-109189621D01*
X150896682Y-109225639D01*
X150939535Y-109299862D01*
X150939537Y-109299864D01*
X152182012Y-110542339D01*
X152215497Y-110603662D01*
X152210513Y-110673354D01*
X152168641Y-110729287D01*
X152126426Y-110749794D01*
X152018271Y-110778774D01*
X151987511Y-110787017D01*
X151861988Y-110859488D01*
X151861982Y-110859493D01*
X151759493Y-110961982D01*
X151759488Y-110961988D01*
X151687017Y-111087511D01*
X151687016Y-111087515D01*
X151649500Y-111227525D01*
X151649500Y-111372475D01*
X151687016Y-111512485D01*
X151687017Y-111512488D01*
X151759488Y-111638011D01*
X151759490Y-111638013D01*
X151759490Y-111638014D01*
X151759493Y-111638017D01*
X151838181Y-111716705D01*
X151871666Y-111778028D01*
X151874500Y-111804386D01*
X151874500Y-113210914D01*
X151854815Y-113277953D01*
X151802011Y-113323708D01*
X151797953Y-113325475D01*
X151668191Y-113379223D01*
X151668182Y-113379228D01*
X151553458Y-113455885D01*
X151553454Y-113455888D01*
X151455888Y-113553454D01*
X151455885Y-113553458D01*
X151379228Y-113668182D01*
X151379221Y-113668195D01*
X151326421Y-113795667D01*
X151326418Y-113795677D01*
X151299500Y-113931004D01*
X151299500Y-113931007D01*
X151299500Y-114068993D01*
X151299500Y-114068995D01*
X151299499Y-114068995D01*
X151326418Y-114204322D01*
X151326421Y-114204332D01*
X151379221Y-114331804D01*
X151379228Y-114331817D01*
X151455885Y-114446541D01*
X151455888Y-114446545D01*
X151553454Y-114544111D01*
X151553458Y-114544114D01*
X151668182Y-114620771D01*
X151668195Y-114620778D01*
X151786732Y-114669877D01*
X151795672Y-114673580D01*
X151795676Y-114673580D01*
X151795677Y-114673581D01*
X151931004Y-114700500D01*
X151931007Y-114700500D01*
X152068995Y-114700500D01*
X152160041Y-114682389D01*
X152204328Y-114673580D01*
X152331811Y-114620775D01*
X152446542Y-114544114D01*
X152544114Y-114446542D01*
X152620775Y-114331811D01*
X152635938Y-114295201D01*
X152679779Y-114240799D01*
X152746073Y-114218733D01*
X152813772Y-114236012D01*
X152861383Y-114287148D01*
X152874500Y-114342654D01*
X152874500Y-120229185D01*
X152854815Y-120296224D01*
X152802011Y-120341979D01*
X152732853Y-120351923D01*
X152669297Y-120322898D01*
X152638780Y-120282987D01*
X152546969Y-120092342D01*
X152513875Y-120039673D01*
X152373346Y-119816021D01*
X152169877Y-119560879D01*
X151939121Y-119330123D01*
X151683979Y-119126654D01*
X151407660Y-118953032D01*
X151407657Y-118953030D01*
X151113640Y-118811438D01*
X150805614Y-118703656D01*
X150805612Y-118703655D01*
X150560073Y-118647612D01*
X150487456Y-118631038D01*
X150487453Y-118631037D01*
X150487441Y-118631035D01*
X150163175Y-118594500D01*
X150163169Y-118594500D01*
X149836831Y-118594500D01*
X149836824Y-118594500D01*
X149512558Y-118631035D01*
X149512544Y-118631038D01*
X149194387Y-118703655D01*
X149194385Y-118703656D01*
X148886359Y-118811438D01*
X148592342Y-118953030D01*
X148316022Y-119126653D01*
X148060879Y-119330122D01*
X147830122Y-119560879D01*
X147626653Y-119816022D01*
X147453030Y-120092342D01*
X147311438Y-120386359D01*
X147203656Y-120694385D01*
X147203655Y-120694387D01*
X147131038Y-121012544D01*
X147131035Y-121012558D01*
X147094500Y-121336824D01*
X147094500Y-121663175D01*
X147131035Y-121987441D01*
X147131037Y-121987453D01*
X147131038Y-121987456D01*
X147145313Y-122050000D01*
X147203655Y-122305612D01*
X147203656Y-122305614D01*
X147311438Y-122613640D01*
X147453030Y-122907657D01*
X147475145Y-122942853D01*
X147626654Y-123183979D01*
X147830123Y-123439121D01*
X148060879Y-123669877D01*
X148316021Y-123873346D01*
X148592340Y-124046968D01*
X148886361Y-124188562D01*
X149194387Y-124296344D01*
X149512544Y-124368962D01*
X149512553Y-124368963D01*
X149512558Y-124368964D01*
X149728735Y-124393320D01*
X149836825Y-124405499D01*
X149836828Y-124405500D01*
X149836831Y-124405500D01*
X150163172Y-124405500D01*
X150163173Y-124405499D01*
X150328900Y-124386826D01*
X150487441Y-124368964D01*
X150487444Y-124368963D01*
X150487456Y-124368962D01*
X150805613Y-124296344D01*
X151113639Y-124188562D01*
X151113654Y-124188554D01*
X151113779Y-124188503D01*
X151113820Y-124188498D01*
X151116923Y-124187413D01*
X151117176Y-124188137D01*
X151183247Y-124181021D01*
X151245733Y-124212283D01*
X151281397Y-124272365D01*
X151278917Y-124342191D01*
X151248936Y-124390736D01*
X150739537Y-124900135D01*
X150739533Y-124900141D01*
X150696681Y-124974361D01*
X150696682Y-124974362D01*
X150674500Y-125057147D01*
X150674500Y-131450500D01*
X150654815Y-131517539D01*
X150602011Y-131563294D01*
X150550500Y-131574500D01*
X148608118Y-131574500D01*
X148573417Y-131572769D01*
X148565373Y-131574500D01*
X148557147Y-131574500D01*
X148526586Y-131582688D01*
X148524369Y-131583260D01*
X148522459Y-131583734D01*
X148489629Y-131590799D01*
X148485527Y-131592901D01*
X148473658Y-131595848D01*
X148466606Y-131595549D01*
X148443784Y-131599500D01*
X147895730Y-131599500D01*
X147865300Y-131602353D01*
X147865298Y-131602353D01*
X147737119Y-131647206D01*
X147737117Y-131647207D01*
X147627850Y-131727850D01*
X147547207Y-131837117D01*
X147547206Y-131837119D01*
X147502353Y-131965298D01*
X147502353Y-131965300D01*
X147499500Y-131995730D01*
X147499500Y-133004269D01*
X147502353Y-133034699D01*
X147502353Y-133034701D01*
X147547206Y-133162880D01*
X147547207Y-133162882D01*
X147627850Y-133272150D01*
X147737118Y-133352793D01*
X147779845Y-133367744D01*
X147865299Y-133397646D01*
X147895730Y-133400500D01*
X147895734Y-133400500D01*
X148529270Y-133400500D01*
X148559699Y-133397646D01*
X148559701Y-133397646D01*
X148623790Y-133375219D01*
X148687882Y-133352793D01*
X148797150Y-133272150D01*
X148877793Y-133162882D01*
X148914791Y-133057148D01*
X148922646Y-133034701D01*
X148922646Y-133034699D01*
X148925500Y-133004269D01*
X148925500Y-132349500D01*
X148945185Y-132282461D01*
X148997989Y-132236706D01*
X149049500Y-132225500D01*
X150950500Y-132225500D01*
X151017539Y-132245185D01*
X151063294Y-132297989D01*
X151074500Y-132349500D01*
X151074500Y-133004266D01*
X151076095Y-133021272D01*
X151073887Y-133048867D01*
X151075561Y-133049088D01*
X151074500Y-133057148D01*
X151074500Y-133515007D01*
X151054815Y-133582046D01*
X151002011Y-133627801D01*
X150932853Y-133637745D01*
X150875193Y-133611412D01*
X150874323Y-133612560D01*
X150747095Y-133516079D01*
X150606443Y-133460613D01*
X150518054Y-133450000D01*
X150200000Y-133450000D01*
X150200000Y-135050000D01*
X150518054Y-135050000D01*
X150606446Y-135039385D01*
X150701607Y-135001859D01*
X150771193Y-134995577D01*
X150833130Y-135027914D01*
X150867751Y-135088602D01*
X150864066Y-135158375D01*
X150834778Y-135204894D01*
X150626170Y-135413501D01*
X150564847Y-135446986D01*
X150532192Y-135448986D01*
X150532162Y-135449635D01*
X150529277Y-135449500D01*
X150529266Y-135449500D01*
X149470734Y-135449500D01*
X149470730Y-135449500D01*
X149440300Y-135452353D01*
X149440298Y-135452353D01*
X149312119Y-135497206D01*
X149312117Y-135497207D01*
X149202850Y-135577850D01*
X149122207Y-135687117D01*
X149122206Y-135687119D01*
X149077353Y-135815298D01*
X149077353Y-135815300D01*
X149074500Y-135845730D01*
X149074500Y-136454269D01*
X149077353Y-136484699D01*
X149077353Y-136484701D01*
X149122206Y-136612880D01*
X149122207Y-136612882D01*
X149202850Y-136722150D01*
X149312118Y-136802793D01*
X149354845Y-136817744D01*
X149440299Y-136847646D01*
X149470730Y-136850500D01*
X149470734Y-136850500D01*
X150529270Y-136850500D01*
X150559699Y-136847646D01*
X150559701Y-136847646D01*
X150623790Y-136825219D01*
X150687882Y-136802793D01*
X150797150Y-136722150D01*
X150877793Y-136612882D01*
X150905800Y-136532842D01*
X150922646Y-136484701D01*
X150922646Y-136484699D01*
X150925500Y-136454269D01*
X150925500Y-136086189D01*
X150945185Y-136019150D01*
X150961819Y-135998508D01*
X151299495Y-135660832D01*
X151660465Y-135299862D01*
X151703318Y-135225639D01*
X151725500Y-135142853D01*
X151725500Y-135057147D01*
X151725500Y-133524500D01*
X151745185Y-133457461D01*
X151797989Y-133411706D01*
X151849500Y-133400500D01*
X152104270Y-133400500D01*
X152134699Y-133397646D01*
X152134701Y-133397646D01*
X152198790Y-133375219D01*
X152262882Y-133352793D01*
X152372150Y-133272150D01*
X152452793Y-133162882D01*
X152489791Y-133057148D01*
X152497646Y-133034701D01*
X152497646Y-133034699D01*
X152500500Y-133004269D01*
X152500500Y-131995730D01*
X152497646Y-131965300D01*
X152497646Y-131965298D01*
X152452793Y-131837119D01*
X152452792Y-131837117D01*
X152444320Y-131825638D01*
X152372150Y-131727850D01*
X152262882Y-131647207D01*
X152262880Y-131647206D01*
X152134700Y-131602353D01*
X152104270Y-131599500D01*
X152104266Y-131599500D01*
X151552479Y-131599500D01*
X151523225Y-131596000D01*
X151521817Y-131595658D01*
X151442853Y-131574500D01*
X151434663Y-131574500D01*
X151420246Y-131571000D01*
X151402319Y-131560646D01*
X151382461Y-131554815D01*
X151372679Y-131543527D01*
X151359743Y-131536055D01*
X151350259Y-131517652D01*
X151336706Y-131502011D01*
X151332693Y-131483565D01*
X151327737Y-131473948D01*
X151328611Y-131464803D01*
X151325500Y-131450500D01*
X151325500Y-130227525D01*
X152649500Y-130227525D01*
X152649500Y-130372475D01*
X152687016Y-130512485D01*
X152687017Y-130512488D01*
X152759488Y-130638011D01*
X152759493Y-130638017D01*
X152763181Y-130641705D01*
X152796666Y-130703028D01*
X152799500Y-130729386D01*
X152799500Y-132050402D01*
X152798736Y-132053440D01*
X152799500Y-132103105D01*
X152799500Y-132153064D01*
X152799765Y-132154866D01*
X152800357Y-132158881D01*
X152813700Y-132205785D01*
X152814206Y-132207616D01*
X152826792Y-132254586D01*
X152828359Y-132258368D01*
X152828378Y-132258413D01*
X152829048Y-132260031D01*
X152854198Y-132302083D01*
X152855165Y-132303729D01*
X152882887Y-132351745D01*
X152899500Y-132413745D01*
X152899500Y-133004269D01*
X152902353Y-133034699D01*
X152902353Y-133034701D01*
X152947206Y-133162880D01*
X152947207Y-133162882D01*
X153027850Y-133272150D01*
X153137118Y-133352793D01*
X153179845Y-133367744D01*
X153265299Y-133397646D01*
X153295730Y-133400500D01*
X153295734Y-133400500D01*
X153929270Y-133400500D01*
X153959699Y-133397646D01*
X153959701Y-133397646D01*
X154023790Y-133375219D01*
X154087882Y-133352793D01*
X154197150Y-133272150D01*
X154277793Y-133162882D01*
X154314791Y-133057148D01*
X154322646Y-133034701D01*
X154322646Y-133034699D01*
X154325500Y-133004269D01*
X154325500Y-131995730D01*
X154322646Y-131965300D01*
X154322646Y-131965298D01*
X154277793Y-131837119D01*
X154277792Y-131837117D01*
X154269320Y-131825638D01*
X154197150Y-131727850D01*
X154087882Y-131647207D01*
X154087880Y-131647206D01*
X153959700Y-131602353D01*
X153929270Y-131599500D01*
X153929266Y-131599500D01*
X153724500Y-131599500D01*
X153657461Y-131579815D01*
X153611706Y-131527011D01*
X153600500Y-131475500D01*
X153600500Y-130729386D01*
X153620185Y-130662347D01*
X153636819Y-130641705D01*
X153640509Y-130638015D01*
X153712984Y-130512485D01*
X153750500Y-130372475D01*
X153750500Y-130227525D01*
X153712984Y-130087515D01*
X153669707Y-130012558D01*
X153640511Y-129961988D01*
X153640506Y-129961982D01*
X153538017Y-129859493D01*
X153538011Y-129859488D01*
X153412488Y-129787017D01*
X153412489Y-129787017D01*
X153401006Y-129783940D01*
X153272475Y-129749500D01*
X153127525Y-129749500D01*
X152998993Y-129783940D01*
X152987511Y-129787017D01*
X152861988Y-129859488D01*
X152861982Y-129859493D01*
X152759493Y-129961982D01*
X152759488Y-129961988D01*
X152687017Y-130087511D01*
X152687016Y-130087515D01*
X152649500Y-130227525D01*
X151325500Y-130227525D01*
X151325500Y-128089127D01*
X151345185Y-128022088D01*
X151397989Y-127976333D01*
X151467147Y-127966389D01*
X151530703Y-127995414D01*
X151549819Y-128016243D01*
X151550279Y-128016876D01*
X152019668Y-127547487D01*
X152023978Y-127557890D01*
X152095112Y-127664351D01*
X152185649Y-127754888D01*
X152292110Y-127826022D01*
X152302510Y-127830330D01*
X151833121Y-128299719D01*
X151833122Y-128299720D01*
X151918640Y-128361852D01*
X151918649Y-128361858D01*
X152100968Y-128454755D01*
X152295582Y-128517990D01*
X152497683Y-128550000D01*
X152702317Y-128550000D01*
X152904417Y-128517990D01*
X153099031Y-128454755D01*
X153281349Y-128361859D01*
X153366876Y-128299719D01*
X153366877Y-128299718D01*
X152897489Y-127830330D01*
X152907890Y-127826022D01*
X153014351Y-127754888D01*
X153104888Y-127664351D01*
X153176022Y-127557890D01*
X153180330Y-127547488D01*
X153649718Y-128016877D01*
X153649719Y-128016876D01*
X153711859Y-127931349D01*
X153804755Y-127749031D01*
X153867990Y-127554417D01*
X153900000Y-127352317D01*
X153900000Y-127147682D01*
X153867990Y-126945582D01*
X153804755Y-126750968D01*
X153711858Y-126568649D01*
X153711852Y-126568640D01*
X153649720Y-126483122D01*
X153649719Y-126483121D01*
X153180330Y-126952510D01*
X153176022Y-126942110D01*
X153104888Y-126835649D01*
X153014351Y-126745112D01*
X152907890Y-126673978D01*
X152897487Y-126669669D01*
X153366876Y-126200279D01*
X153281347Y-126138139D01*
X153099031Y-126045244D01*
X152904417Y-125982009D01*
X152702317Y-125950000D01*
X152497683Y-125950000D01*
X152295582Y-125982009D01*
X152100968Y-126045244D01*
X151918648Y-126138141D01*
X151833122Y-126200278D01*
X151833122Y-126200279D01*
X152302512Y-126669669D01*
X152292110Y-126673978D01*
X152185649Y-126745112D01*
X152095112Y-126835649D01*
X152023978Y-126942110D01*
X152019669Y-126952512D01*
X151550279Y-126483122D01*
X151550277Y-126483122D01*
X151549818Y-126483755D01*
X151524836Y-126503019D01*
X151501011Y-126523664D01*
X151497388Y-126524184D01*
X151494489Y-126526421D01*
X151463068Y-126529119D01*
X151431853Y-126533608D01*
X151428521Y-126532086D01*
X151424875Y-126532400D01*
X151396984Y-126517684D01*
X151368297Y-126504583D01*
X151366317Y-126501503D01*
X151363080Y-126499795D01*
X151347573Y-126472336D01*
X151330523Y-126445805D01*
X151329816Y-126440892D01*
X151328723Y-126438956D01*
X151325500Y-126410870D01*
X151325500Y-125286187D01*
X151345185Y-125219148D01*
X151361814Y-125198511D01*
X153389652Y-123170672D01*
X153389657Y-123170669D01*
X153399860Y-123160465D01*
X153399862Y-123160465D01*
X153460465Y-123099862D01*
X153481891Y-123062750D01*
X153503318Y-123025639D01*
X153525500Y-122942853D01*
X153525500Y-122857147D01*
X153525500Y-122495730D01*
X161674500Y-122495730D01*
X161674500Y-123504269D01*
X161677353Y-123534699D01*
X161677353Y-123534701D01*
X161722206Y-123662880D01*
X161722207Y-123662882D01*
X161802850Y-123772150D01*
X161912118Y-123852793D01*
X161954845Y-123867744D01*
X162040299Y-123897646D01*
X162070730Y-123900500D01*
X162070734Y-123900500D01*
X162350500Y-123900500D01*
X162417539Y-123920185D01*
X162463294Y-123972989D01*
X162474500Y-124024500D01*
X162474500Y-134750979D01*
X162473293Y-134750979D01*
X162469218Y-134795282D01*
X162429060Y-134918878D01*
X162399500Y-135105513D01*
X162399500Y-135294486D01*
X162429059Y-135481118D01*
X162487454Y-135660836D01*
X162533379Y-135750968D01*
X162573240Y-135829199D01*
X162684310Y-135982073D01*
X162817927Y-136115690D01*
X162970801Y-136226760D01*
X163050347Y-136267290D01*
X163139163Y-136312545D01*
X163139165Y-136312545D01*
X163139168Y-136312547D01*
X163235497Y-136343846D01*
X163318881Y-136370940D01*
X163505514Y-136400500D01*
X163505519Y-136400500D01*
X163694486Y-136400500D01*
X163881118Y-136370940D01*
X163938433Y-136352317D01*
X164060832Y-136312547D01*
X164229199Y-136226760D01*
X164338040Y-136147682D01*
X169300000Y-136147682D01*
X169300000Y-136352317D01*
X169332009Y-136554417D01*
X169395244Y-136749031D01*
X169488139Y-136931347D01*
X169550279Y-137016876D01*
X170019668Y-136547487D01*
X170023978Y-136557890D01*
X170095112Y-136664351D01*
X170185649Y-136754888D01*
X170292110Y-136826022D01*
X170302510Y-136830330D01*
X169833121Y-137299719D01*
X169833122Y-137299720D01*
X169918640Y-137361852D01*
X169918649Y-137361858D01*
X170100968Y-137454755D01*
X170295582Y-137517990D01*
X170497683Y-137550000D01*
X170702317Y-137550000D01*
X170904417Y-137517990D01*
X171099031Y-137454755D01*
X171281349Y-137361859D01*
X171366876Y-137299719D01*
X171366877Y-137299718D01*
X170897489Y-136830330D01*
X170907890Y-136826022D01*
X171014351Y-136754888D01*
X171104888Y-136664351D01*
X171176022Y-136557890D01*
X171180330Y-136547488D01*
X171649718Y-137016877D01*
X171649719Y-137016876D01*
X171711859Y-136931349D01*
X171804755Y-136749031D01*
X171867990Y-136554417D01*
X171900000Y-136352317D01*
X171900000Y-136147682D01*
X171867990Y-135945582D01*
X171804755Y-135750968D01*
X171711858Y-135568649D01*
X171711852Y-135568640D01*
X171649720Y-135483122D01*
X171649719Y-135483121D01*
X171180330Y-135952510D01*
X171176022Y-135942110D01*
X171104888Y-135835649D01*
X171014351Y-135745112D01*
X170907890Y-135673978D01*
X170897487Y-135669669D01*
X171366876Y-135200279D01*
X171281347Y-135138139D01*
X171099031Y-135045244D01*
X170904417Y-134982009D01*
X170702317Y-134950000D01*
X170497683Y-134950000D01*
X170295582Y-134982009D01*
X170100968Y-135045244D01*
X169918648Y-135138141D01*
X169833122Y-135200278D01*
X169833122Y-135200279D01*
X170302512Y-135669669D01*
X170292110Y-135673978D01*
X170185649Y-135745112D01*
X170095112Y-135835649D01*
X170023978Y-135942110D01*
X170019669Y-135952512D01*
X169550279Y-135483122D01*
X169550278Y-135483122D01*
X169488141Y-135568648D01*
X169395244Y-135750968D01*
X169332009Y-135945582D01*
X169300000Y-136147682D01*
X164338040Y-136147682D01*
X164382073Y-136115690D01*
X164515690Y-135982073D01*
X164626760Y-135829199D01*
X164712547Y-135660832D01*
X164770940Y-135481118D01*
X164776346Y-135446986D01*
X164800500Y-135294486D01*
X164800500Y-135105513D01*
X164770940Y-134918881D01*
X164730780Y-134795282D01*
X164712547Y-134739168D01*
X164712545Y-134739165D01*
X164712545Y-134739163D01*
X164667290Y-134650347D01*
X164626760Y-134570801D01*
X164515690Y-134417927D01*
X164382073Y-134284310D01*
X164229199Y-134173240D01*
X164060836Y-134087454D01*
X163881118Y-134029059D01*
X163694486Y-133999500D01*
X163694481Y-133999500D01*
X163505519Y-133999500D01*
X163505514Y-133999500D01*
X163318880Y-134029060D01*
X163287816Y-134039153D01*
X163217975Y-134041147D01*
X163158143Y-134005065D01*
X163127316Y-133942364D01*
X163125500Y-133921221D01*
X163125500Y-130336824D01*
X165094500Y-130336824D01*
X165094500Y-130663175D01*
X165131035Y-130987441D01*
X165131038Y-130987455D01*
X165203655Y-131305612D01*
X165203656Y-131305614D01*
X165311438Y-131613640D01*
X165453030Y-131907657D01*
X165489248Y-131965298D01*
X165626654Y-132183979D01*
X165830123Y-132439121D01*
X166060879Y-132669877D01*
X166316021Y-132873346D01*
X166592340Y-133046968D01*
X166886361Y-133188562D01*
X167194387Y-133296344D01*
X167512544Y-133368962D01*
X167512553Y-133368963D01*
X167512558Y-133368964D01*
X167728735Y-133393320D01*
X167836825Y-133405499D01*
X167836828Y-133405500D01*
X167836831Y-133405500D01*
X168163172Y-133405500D01*
X168163173Y-133405499D01*
X168328900Y-133386826D01*
X168487441Y-133368964D01*
X168487444Y-133368963D01*
X168487456Y-133368962D01*
X168805613Y-133296344D01*
X169113639Y-133188562D01*
X169407660Y-133046968D01*
X169683979Y-132873346D01*
X169939121Y-132669877D01*
X170169877Y-132439121D01*
X170373346Y-132183979D01*
X170546968Y-131907660D01*
X170688562Y-131613639D01*
X170796344Y-131305613D01*
X170868962Y-130987456D01*
X170905500Y-130663169D01*
X170905500Y-130336831D01*
X170868962Y-130012544D01*
X170796344Y-129694387D01*
X170688562Y-129386361D01*
X170546968Y-129092340D01*
X170373346Y-128816021D01*
X170169877Y-128560879D01*
X169939121Y-128330123D01*
X169683979Y-128126654D01*
X169475111Y-127995414D01*
X169407657Y-127953030D01*
X169113640Y-127811438D01*
X168805614Y-127703656D01*
X168805612Y-127703655D01*
X168560073Y-127647612D01*
X168487456Y-127631038D01*
X168487453Y-127631037D01*
X168487441Y-127631035D01*
X168163175Y-127594500D01*
X168163169Y-127594500D01*
X167836831Y-127594500D01*
X167836824Y-127594500D01*
X167512558Y-127631035D01*
X167512544Y-127631038D01*
X167194387Y-127703655D01*
X167194385Y-127703656D01*
X166886359Y-127811438D01*
X166592342Y-127953030D01*
X166316022Y-128126653D01*
X166060879Y-128330122D01*
X165830122Y-128560879D01*
X165626653Y-128816022D01*
X165453030Y-129092342D01*
X165311438Y-129386359D01*
X165203656Y-129694385D01*
X165203655Y-129694387D01*
X165131038Y-130012544D01*
X165131035Y-130012558D01*
X165094500Y-130336824D01*
X163125500Y-130336824D01*
X163125500Y-123515578D01*
X163128105Y-123488413D01*
X163125500Y-123472883D01*
X163125500Y-123457147D01*
X163119973Y-123436522D01*
X163117459Y-123424954D01*
X163113925Y-123403884D01*
X163111685Y-123398974D01*
X163100500Y-123347508D01*
X163100500Y-122495730D01*
X163097646Y-122465300D01*
X163097646Y-122465298D01*
X163052793Y-122337119D01*
X163052792Y-122337117D01*
X163029541Y-122305613D01*
X162972150Y-122227850D01*
X162862882Y-122147207D01*
X162862880Y-122147206D01*
X162734700Y-122102353D01*
X162704270Y-122099500D01*
X162704266Y-122099500D01*
X162070734Y-122099500D01*
X162070730Y-122099500D01*
X162040300Y-122102353D01*
X162040298Y-122102353D01*
X161912119Y-122147206D01*
X161912117Y-122147207D01*
X161802850Y-122227850D01*
X161722207Y-122337117D01*
X161722206Y-122337119D01*
X161677353Y-122465298D01*
X161677353Y-122465300D01*
X161674500Y-122495730D01*
X153525500Y-122495730D01*
X153525500Y-111057147D01*
X153520781Y-111039535D01*
X153509362Y-110996918D01*
X153511023Y-110927071D01*
X153550185Y-110869208D01*
X153614413Y-110841702D01*
X153683315Y-110853287D01*
X153716817Y-110877144D01*
X154982013Y-112142339D01*
X155015498Y-112203662D01*
X155010514Y-112273354D01*
X154968642Y-112329287D01*
X154926428Y-112349793D01*
X154804354Y-112382503D01*
X154787511Y-112387017D01*
X154661988Y-112459488D01*
X154661982Y-112459493D01*
X154559493Y-112561982D01*
X154559488Y-112561988D01*
X154487017Y-112687511D01*
X154487016Y-112687515D01*
X154449500Y-112827525D01*
X154449500Y-112972475D01*
X154487016Y-113112485D01*
X154487017Y-113112488D01*
X154559488Y-113238011D01*
X154559493Y-113238017D01*
X154638181Y-113316705D01*
X154671666Y-113378028D01*
X154674500Y-113404386D01*
X154674500Y-113457147D01*
X154674500Y-113542853D01*
X154677342Y-113553458D01*
X154696682Y-113625640D01*
X154717382Y-113661493D01*
X154735448Y-113692784D01*
X154739537Y-113699865D01*
X154781033Y-113741361D01*
X154814518Y-113802684D01*
X154814970Y-113853232D01*
X154804144Y-113907660D01*
X154799500Y-113931007D01*
X154799500Y-114068993D01*
X154799500Y-114068995D01*
X154799499Y-114068995D01*
X154826418Y-114204322D01*
X154826421Y-114204332D01*
X154879221Y-114331804D01*
X154879228Y-114331817D01*
X154955885Y-114446541D01*
X154955888Y-114446545D01*
X155053454Y-114544111D01*
X155053458Y-114544114D01*
X155168182Y-114620771D01*
X155168195Y-114620778D01*
X155286732Y-114669877D01*
X155295672Y-114673580D01*
X155295676Y-114673580D01*
X155295677Y-114673581D01*
X155431004Y-114700500D01*
X155431007Y-114700500D01*
X155568995Y-114700500D01*
X155660041Y-114682389D01*
X155704328Y-114673580D01*
X155831811Y-114620775D01*
X155946542Y-114544114D01*
X156044114Y-114446542D01*
X156120775Y-114331811D01*
X156173580Y-114204328D01*
X156189298Y-114125308D01*
X156200500Y-114068995D01*
X156200500Y-113931004D01*
X156173581Y-113795677D01*
X156173580Y-113795676D01*
X156173580Y-113795672D01*
X156173578Y-113795667D01*
X156120778Y-113668195D01*
X156120771Y-113668182D01*
X156047550Y-113558600D01*
X156047549Y-113558599D01*
X156044114Y-113553458D01*
X155946542Y-113455886D01*
X155941400Y-113452450D01*
X155941398Y-113452448D01*
X155831817Y-113379228D01*
X155831804Y-113379221D01*
X155704332Y-113326421D01*
X155704322Y-113326418D01*
X155591619Y-113304000D01*
X155529708Y-113271615D01*
X155495134Y-113210899D01*
X155498874Y-113141130D01*
X155508426Y-113120379D01*
X155512983Y-113112486D01*
X155512984Y-113112485D01*
X155550206Y-112973569D01*
X155586569Y-112913913D01*
X155649415Y-112883384D01*
X155718791Y-112891678D01*
X155757660Y-112917986D01*
X158135194Y-115295520D01*
X158135204Y-115295531D01*
X158139534Y-115299861D01*
X158139535Y-115299862D01*
X158200138Y-115360465D01*
X158200140Y-115360466D01*
X158200141Y-115360467D01*
X158274358Y-115403316D01*
X158274359Y-115403317D01*
X158274361Y-115403317D01*
X158274362Y-115403318D01*
X158357147Y-115425501D01*
X158357149Y-115425501D01*
X158450449Y-115425501D01*
X158450465Y-115425500D01*
X159013811Y-115425500D01*
X159080850Y-115445185D01*
X159101492Y-115461819D01*
X164238181Y-120598508D01*
X164271666Y-120659831D01*
X164274500Y-120686189D01*
X164274500Y-121975500D01*
X164254815Y-122042539D01*
X164202011Y-122088294D01*
X164150500Y-122099500D01*
X163895730Y-122099500D01*
X163865300Y-122102353D01*
X163865298Y-122102353D01*
X163737119Y-122147206D01*
X163737117Y-122147207D01*
X163627850Y-122227850D01*
X163547207Y-122337117D01*
X163547206Y-122337119D01*
X163502353Y-122465298D01*
X163502353Y-122465300D01*
X163499500Y-122495730D01*
X163499500Y-123504269D01*
X163502353Y-123534699D01*
X163502353Y-123534701D01*
X163547206Y-123662880D01*
X163547207Y-123662882D01*
X163627850Y-123772150D01*
X163737118Y-123852793D01*
X163779845Y-123867744D01*
X163865299Y-123897646D01*
X163895730Y-123900500D01*
X163895734Y-123900500D01*
X164529270Y-123900500D01*
X164559699Y-123897646D01*
X164559701Y-123897646D01*
X164629145Y-123873346D01*
X164687882Y-123852793D01*
X164797150Y-123772150D01*
X164877793Y-123662882D01*
X164900219Y-123598790D01*
X164922646Y-123534701D01*
X164922646Y-123534699D01*
X164925500Y-123504269D01*
X164925500Y-122522121D01*
X164928305Y-122501580D01*
X164925500Y-122479451D01*
X164925500Y-121984993D01*
X164945185Y-121917954D01*
X164997989Y-121872199D01*
X165067147Y-121862255D01*
X165124806Y-121888587D01*
X165125677Y-121887440D01*
X165252904Y-121983920D01*
X165393556Y-122039386D01*
X165481946Y-122050000D01*
X165800000Y-122050000D01*
X165800000Y-120450000D01*
X165481944Y-120450000D01*
X165415623Y-120457963D01*
X165386730Y-120453118D01*
X165357507Y-120451029D01*
X165352670Y-120447408D01*
X165346715Y-120446410D01*
X165325029Y-120426716D01*
X165301574Y-120409157D01*
X165299463Y-120403497D01*
X165294992Y-120399437D01*
X165287395Y-120371144D01*
X165277157Y-120343693D01*
X165278440Y-120337790D01*
X165276875Y-120331958D01*
X165285781Y-120304048D01*
X165292009Y-120275420D01*
X165297077Y-120268648D01*
X165298116Y-120265395D01*
X165313150Y-120247176D01*
X165473510Y-120086816D01*
X165534831Y-120053334D01*
X165561189Y-120050500D01*
X166438811Y-120050500D01*
X166505850Y-120070185D01*
X166526492Y-120086819D01*
X166686839Y-120247166D01*
X166720324Y-120308489D01*
X166715340Y-120378181D01*
X166673468Y-120434114D01*
X166608004Y-120458531D01*
X166584376Y-120457963D01*
X166518056Y-120450000D01*
X166200000Y-120450000D01*
X166200000Y-122050000D01*
X166518054Y-122050000D01*
X166606443Y-122039386D01*
X166747095Y-121983920D01*
X166874323Y-121887440D01*
X166876248Y-121889978D01*
X166924142Y-121863827D01*
X166993834Y-121868811D01*
X167049767Y-121910683D01*
X167074184Y-121976147D01*
X167074500Y-121984993D01*
X167074500Y-122479452D01*
X167071695Y-122501580D01*
X167074500Y-122522121D01*
X167074500Y-123504269D01*
X167077353Y-123534699D01*
X167077353Y-123534701D01*
X167122206Y-123662880D01*
X167122207Y-123662882D01*
X167202850Y-123772150D01*
X167312118Y-123852793D01*
X167354845Y-123867744D01*
X167440299Y-123897646D01*
X167470730Y-123900500D01*
X167470734Y-123900500D01*
X168104270Y-123900500D01*
X168134699Y-123897646D01*
X168134701Y-123897646D01*
X168204145Y-123873346D01*
X168262882Y-123852793D01*
X168372150Y-123772150D01*
X168452793Y-123662882D01*
X168475219Y-123598790D01*
X168497646Y-123534701D01*
X168497646Y-123534699D01*
X168500500Y-123504269D01*
X168500500Y-122666255D01*
X168506738Y-122645009D01*
X168508318Y-122622922D01*
X168516390Y-122612138D01*
X168520185Y-122599216D01*
X168536916Y-122584717D01*
X168550189Y-122566988D01*
X168562811Y-122562280D01*
X168572989Y-122553461D01*
X168594905Y-122550309D01*
X168615654Y-122542571D01*
X168628814Y-122545433D01*
X168642147Y-122543517D01*
X168662290Y-122552716D01*
X168683927Y-122557423D01*
X168701654Y-122570692D01*
X168705703Y-122572542D01*
X168712168Y-122578561D01*
X168863182Y-122729574D01*
X168896666Y-122790896D01*
X168899500Y-122817254D01*
X168899500Y-123504269D01*
X168902353Y-123534699D01*
X168902353Y-123534701D01*
X168947206Y-123662880D01*
X168947207Y-123662882D01*
X169027850Y-123772150D01*
X169137118Y-123852793D01*
X169179845Y-123867744D01*
X169265299Y-123897646D01*
X169295730Y-123900500D01*
X169295734Y-123900500D01*
X169929270Y-123900500D01*
X169959699Y-123897646D01*
X169959701Y-123897646D01*
X170029145Y-123873346D01*
X170087882Y-123852793D01*
X170197150Y-123772150D01*
X170277793Y-123662882D01*
X170300219Y-123598790D01*
X170322646Y-123534701D01*
X170322646Y-123534699D01*
X170325500Y-123504269D01*
X170325500Y-122495730D01*
X170322646Y-122465300D01*
X170322646Y-122465298D01*
X170277793Y-122337119D01*
X170277792Y-122337117D01*
X170254541Y-122305613D01*
X170197150Y-122227850D01*
X170087882Y-122147207D01*
X170087880Y-122147206D01*
X169959700Y-122102353D01*
X169929270Y-122099500D01*
X169929266Y-122099500D01*
X169524500Y-122099500D01*
X169457461Y-122079815D01*
X169411706Y-122027011D01*
X169400500Y-121975500D01*
X169400500Y-119139231D01*
X169420185Y-119072192D01*
X169472989Y-119026437D01*
X169534230Y-119015613D01*
X169550279Y-119016876D01*
X170019669Y-118547487D01*
X170023978Y-118557890D01*
X170095112Y-118664351D01*
X170185649Y-118754888D01*
X170292110Y-118826022D01*
X170302510Y-118830330D01*
X169833121Y-119299719D01*
X169833122Y-119299720D01*
X169918640Y-119361852D01*
X169918649Y-119361858D01*
X170100968Y-119454755D01*
X170295582Y-119517990D01*
X170497683Y-119550000D01*
X170702317Y-119550000D01*
X170904417Y-119517990D01*
X171099031Y-119454755D01*
X171281349Y-119361859D01*
X171366876Y-119299719D01*
X171366877Y-119299718D01*
X170897489Y-118830330D01*
X170907890Y-118826022D01*
X171014351Y-118754888D01*
X171104888Y-118664351D01*
X171176022Y-118557890D01*
X171180330Y-118547488D01*
X171649718Y-119016877D01*
X171649719Y-119016876D01*
X171711859Y-118931349D01*
X171804755Y-118749031D01*
X171867990Y-118554417D01*
X171900000Y-118352317D01*
X171900000Y-118147682D01*
X171867990Y-117945582D01*
X171804755Y-117750968D01*
X171711858Y-117568649D01*
X171711852Y-117568640D01*
X171649720Y-117483122D01*
X171649719Y-117483121D01*
X171180330Y-117952510D01*
X171176022Y-117942110D01*
X171104888Y-117835649D01*
X171014351Y-117745112D01*
X170907890Y-117673978D01*
X170897487Y-117669669D01*
X171366876Y-117200279D01*
X171281347Y-117138139D01*
X171099031Y-117045244D01*
X170904417Y-116982009D01*
X170702317Y-116950000D01*
X170497683Y-116950000D01*
X170295581Y-116982010D01*
X170295578Y-116982010D01*
X170177687Y-117020316D01*
X170107846Y-117022311D01*
X170048013Y-116986231D01*
X170017185Y-116923530D01*
X170025150Y-116854115D01*
X170051685Y-116814707D01*
X171520480Y-115345913D01*
X171573207Y-115254588D01*
X171600500Y-115152727D01*
X171600500Y-115047273D01*
X171600500Y-110847273D01*
X171590944Y-110811610D01*
X171573207Y-110745412D01*
X171520480Y-110654087D01*
X168836819Y-107970426D01*
X168803334Y-107909103D01*
X168800500Y-107882745D01*
X168800500Y-106619055D01*
X168807459Y-106578100D01*
X168814301Y-106558547D01*
X168822646Y-106534699D01*
X168822906Y-106531931D01*
X168825500Y-106504269D01*
X168825500Y-105495730D01*
X168822646Y-105465300D01*
X168822646Y-105465298D01*
X168785879Y-105360227D01*
X168777793Y-105337118D01*
X168697150Y-105227850D01*
X168587882Y-105147207D01*
X168587880Y-105147206D01*
X168459700Y-105102353D01*
X168429270Y-105099500D01*
X168429266Y-105099500D01*
X168324500Y-105099500D01*
X168257461Y-105079815D01*
X168211706Y-105027011D01*
X168200500Y-104975500D01*
X168200500Y-104129386D01*
X168220185Y-104062347D01*
X168236819Y-104041705D01*
X168240509Y-104038015D01*
X168312984Y-103912485D01*
X168350500Y-103772475D01*
X168350500Y-103627525D01*
X168316329Y-103500000D01*
X175900000Y-103500000D01*
X175940349Y-103909687D01*
X176059853Y-104303639D01*
X176253909Y-104666691D01*
X176253913Y-104666698D01*
X176515074Y-104984924D01*
X176833300Y-105246085D01*
X176833307Y-105246089D01*
X177196359Y-105440145D01*
X177196361Y-105440145D01*
X177196364Y-105440147D01*
X177590310Y-105559649D01*
X177590309Y-105559649D01*
X177630660Y-105563623D01*
X178000000Y-105600000D01*
X178409689Y-105559649D01*
X178803635Y-105440147D01*
X178826073Y-105428154D01*
X178976520Y-105347738D01*
X179166697Y-105246086D01*
X179484924Y-104984924D01*
X179746086Y-104666697D01*
X179940147Y-104303635D01*
X180059649Y-103909689D01*
X180100000Y-103500000D01*
X180059649Y-103090310D01*
X179940147Y-102696364D01*
X179940145Y-102696361D01*
X179940145Y-102696359D01*
X179746089Y-102333307D01*
X179746085Y-102333300D01*
X179484924Y-102015074D01*
X179166698Y-101753913D01*
X179166691Y-101753909D01*
X178803639Y-101559853D01*
X178409687Y-101440349D01*
X178000000Y-101400000D01*
X177590311Y-101440349D01*
X177196359Y-101559853D01*
X176833307Y-101753909D01*
X176833300Y-101753913D01*
X176515074Y-102015074D01*
X176253913Y-102333300D01*
X176253909Y-102333307D01*
X176059853Y-102696359D01*
X175940349Y-103090311D01*
X175900000Y-103500000D01*
X168316329Y-103500000D01*
X168312984Y-103487515D01*
X168288094Y-103444405D01*
X168240511Y-103361988D01*
X168240506Y-103361982D01*
X168138017Y-103259493D01*
X168138011Y-103259488D01*
X168012488Y-103187017D01*
X168012489Y-103187017D01*
X167998408Y-103183244D01*
X167872475Y-103149500D01*
X167727525Y-103149500D01*
X167601592Y-103183244D01*
X167587511Y-103187017D01*
X167461988Y-103259488D01*
X167461982Y-103259493D01*
X167359493Y-103361982D01*
X167359488Y-103361988D01*
X167287017Y-103487511D01*
X167287016Y-103487515D01*
X167249500Y-103627525D01*
X167249500Y-103772475D01*
X167280588Y-103888495D01*
X167287017Y-103912488D01*
X167359488Y-104038011D01*
X167359493Y-104038017D01*
X167363181Y-104041705D01*
X167396666Y-104103028D01*
X167399500Y-104129386D01*
X167399500Y-105454386D01*
X167397900Y-105461320D01*
X167399500Y-105507017D01*
X167399500Y-106504269D01*
X167402353Y-106534699D01*
X167402353Y-106534701D01*
X167447206Y-106662880D01*
X167447207Y-106662882D01*
X167527850Y-106772150D01*
X167637118Y-106852793D01*
X167679845Y-106867744D01*
X167765299Y-106897646D01*
X167795730Y-106900500D01*
X167795734Y-106900500D01*
X167875500Y-106900500D01*
X167942539Y-106920185D01*
X167988294Y-106972989D01*
X167999500Y-107024500D01*
X167999500Y-108047273D01*
X167999500Y-108152727D01*
X167999846Y-108154017D01*
X168026793Y-108254589D01*
X168039523Y-108276637D01*
X168079520Y-108345913D01*
X168079522Y-108345915D01*
X169429732Y-109696125D01*
X169463217Y-109757448D01*
X169458233Y-109827140D01*
X169416361Y-109883073D01*
X169350897Y-109907490D01*
X169288249Y-109895526D01*
X169113640Y-109811438D01*
X168805614Y-109703656D01*
X168805612Y-109703655D01*
X168560073Y-109647612D01*
X168487456Y-109631038D01*
X168487453Y-109631037D01*
X168487441Y-109631035D01*
X168163175Y-109594500D01*
X168163169Y-109594500D01*
X167836831Y-109594500D01*
X167836824Y-109594500D01*
X167512558Y-109631035D01*
X167512544Y-109631038D01*
X167194387Y-109703655D01*
X167194385Y-109703656D01*
X166886359Y-109811438D01*
X166592342Y-109953030D01*
X166316022Y-110126653D01*
X166060879Y-110330122D01*
X165830122Y-110560879D01*
X165626653Y-110816022D01*
X165453030Y-111092342D01*
X165311438Y-111386359D01*
X165203656Y-111694385D01*
X165203655Y-111694387D01*
X165131038Y-112012544D01*
X165131035Y-112012558D01*
X165094500Y-112336824D01*
X165094500Y-112663175D01*
X165131035Y-112987441D01*
X165131038Y-112987455D01*
X165203655Y-113305612D01*
X165203656Y-113305614D01*
X165311438Y-113613640D01*
X165453030Y-113907657D01*
X165479322Y-113949500D01*
X165626654Y-114183979D01*
X165830123Y-114439121D01*
X166060879Y-114669877D01*
X166316021Y-114873346D01*
X166592340Y-115046968D01*
X166886361Y-115188562D01*
X167194387Y-115296344D01*
X167512544Y-115368962D01*
X167512553Y-115368963D01*
X167512558Y-115368964D01*
X167719277Y-115392255D01*
X167836825Y-115405499D01*
X167836828Y-115405500D01*
X167836831Y-115405500D01*
X168163172Y-115405500D01*
X168163173Y-115405499D01*
X168328900Y-115386826D01*
X168487441Y-115368964D01*
X168487444Y-115368963D01*
X168487456Y-115368962D01*
X168805613Y-115296344D01*
X169113639Y-115188562D01*
X169407660Y-115046968D01*
X169683979Y-114873346D01*
X169939121Y-114669877D01*
X170169877Y-114439121D01*
X170373346Y-114183979D01*
X170546968Y-113907660D01*
X170563780Y-113872750D01*
X170610602Y-113820891D01*
X170678029Y-113802578D01*
X170744653Y-113823626D01*
X170789322Y-113877352D01*
X170799500Y-113926552D01*
X170799500Y-114882745D01*
X170779815Y-114949784D01*
X170763181Y-114970426D01*
X168679522Y-117054084D01*
X168679518Y-117054090D01*
X168626792Y-117145412D01*
X168626793Y-117145413D01*
X168599500Y-117247273D01*
X168599500Y-122159067D01*
X168579815Y-122226106D01*
X168527011Y-122271861D01*
X168457853Y-122281805D01*
X168394297Y-122252780D01*
X168375731Y-122232702D01*
X168372150Y-122227850D01*
X168262882Y-122147207D01*
X168262880Y-122147206D01*
X168134700Y-122102353D01*
X168104270Y-122099500D01*
X168104266Y-122099500D01*
X167849500Y-122099500D01*
X167782461Y-122079815D01*
X167736706Y-122027011D01*
X167725500Y-121975500D01*
X167725500Y-120457148D01*
X167725500Y-120457147D01*
X167724680Y-120454087D01*
X167703318Y-120374361D01*
X167660465Y-120300138D01*
X166961819Y-119601492D01*
X166928334Y-119540169D01*
X166925500Y-119513811D01*
X166925500Y-119045730D01*
X166922646Y-119015300D01*
X166922646Y-119015298D01*
X166889006Y-118919163D01*
X166877793Y-118887118D01*
X166797150Y-118777850D01*
X166687882Y-118697207D01*
X166687880Y-118697206D01*
X166559700Y-118652353D01*
X166529270Y-118649500D01*
X166529266Y-118649500D01*
X165470734Y-118649500D01*
X165470730Y-118649500D01*
X165440300Y-118652353D01*
X165440298Y-118652353D01*
X165312119Y-118697206D01*
X165312117Y-118697207D01*
X165202850Y-118777850D01*
X165122207Y-118887117D01*
X165122206Y-118887119D01*
X165077353Y-119015298D01*
X165077353Y-119015300D01*
X165074500Y-119045730D01*
X165074500Y-119513811D01*
X165054815Y-119580850D01*
X165038181Y-119601492D01*
X164687681Y-119951992D01*
X164626358Y-119985477D01*
X164556666Y-119980493D01*
X164512319Y-119951992D01*
X163109924Y-118549597D01*
X163076439Y-118488274D01*
X163081423Y-118418582D01*
X163123295Y-118362649D01*
X163188759Y-118338232D01*
X163235924Y-118343985D01*
X163318881Y-118370940D01*
X163505514Y-118400500D01*
X163505519Y-118400500D01*
X163694486Y-118400500D01*
X163881118Y-118370940D01*
X163938433Y-118352317D01*
X164060832Y-118312547D01*
X164229199Y-118226760D01*
X164382073Y-118115690D01*
X164515690Y-117982073D01*
X164626760Y-117829199D01*
X164712547Y-117660832D01*
X164770940Y-117481118D01*
X164773351Y-117465893D01*
X164800500Y-117294486D01*
X164800500Y-117105513D01*
X164770940Y-116918881D01*
X164720187Y-116762681D01*
X164712547Y-116739168D01*
X164712545Y-116739165D01*
X164712545Y-116739163D01*
X164626759Y-116570800D01*
X164593120Y-116524500D01*
X164515690Y-116417927D01*
X164382073Y-116284310D01*
X164229199Y-116173240D01*
X164208870Y-116162882D01*
X164060836Y-116087454D01*
X163881118Y-116029059D01*
X163694486Y-115999500D01*
X163694481Y-115999500D01*
X163505519Y-115999500D01*
X163505514Y-115999500D01*
X163318880Y-116029060D01*
X163287816Y-116039153D01*
X163217975Y-116041147D01*
X163158143Y-116005065D01*
X163127316Y-115942364D01*
X163125500Y-115921221D01*
X163125500Y-108152855D01*
X163125501Y-108152842D01*
X163125501Y-108057148D01*
X163125501Y-108057147D01*
X163103318Y-107974361D01*
X163072683Y-107921300D01*
X163071996Y-107920110D01*
X163071994Y-107920108D01*
X163065432Y-107908742D01*
X163060465Y-107900138D01*
X162999862Y-107839535D01*
X162999859Y-107839533D01*
X162269428Y-107109101D01*
X162235944Y-107047780D01*
X162240928Y-106978088D01*
X162282800Y-106922155D01*
X162348264Y-106897738D01*
X162368687Y-106897964D01*
X162395730Y-106900500D01*
X162395734Y-106900500D01*
X163029270Y-106900500D01*
X163059699Y-106897646D01*
X163059701Y-106897646D01*
X163136449Y-106870790D01*
X163187882Y-106852793D01*
X163297150Y-106772150D01*
X163377793Y-106662882D01*
X163404463Y-106586663D01*
X163422646Y-106534701D01*
X163422646Y-106534699D01*
X163425500Y-106504269D01*
X163425500Y-105495730D01*
X163422646Y-105465300D01*
X163422646Y-105465298D01*
X163385879Y-105360227D01*
X163377793Y-105337118D01*
X163377791Y-105337115D01*
X163377790Y-105337113D01*
X163349730Y-105299093D01*
X163342274Y-105278680D01*
X163330523Y-105260395D01*
X163327229Y-105237490D01*
X163325759Y-105233464D01*
X163325500Y-105225460D01*
X163325500Y-105204386D01*
X163345185Y-105137347D01*
X163361819Y-105116705D01*
X163398709Y-105079815D01*
X163440509Y-105038015D01*
X163487063Y-104957380D01*
X163537628Y-104909167D01*
X163606235Y-104895943D01*
X163669374Y-104920578D01*
X163752902Y-104983919D01*
X163893556Y-105039386D01*
X163981946Y-105050000D01*
X164300000Y-105050000D01*
X164300000Y-103450000D01*
X164009688Y-103450000D01*
X163988442Y-103443761D01*
X163966354Y-103442182D01*
X163955570Y-103434109D01*
X163942649Y-103430315D01*
X163928149Y-103413581D01*
X163910421Y-103400310D01*
X163905713Y-103387689D01*
X163896894Y-103377511D01*
X163893742Y-103355593D01*
X163886004Y-103334846D01*
X163888866Y-103321685D01*
X163886950Y-103308353D01*
X163896149Y-103288209D01*
X163900856Y-103266573D01*
X163914124Y-103248847D01*
X163915975Y-103244797D01*
X163922007Y-103238319D01*
X164073507Y-103086819D01*
X164134830Y-103053334D01*
X164161188Y-103050500D01*
X164838811Y-103050500D01*
X164905850Y-103070185D01*
X164926492Y-103086819D01*
X165077992Y-103238319D01*
X165111477Y-103299642D01*
X165106493Y-103369334D01*
X165064621Y-103425267D01*
X164999157Y-103449684D01*
X164990311Y-103450000D01*
X164700000Y-103450000D01*
X164700000Y-105050000D01*
X165018054Y-105050000D01*
X165106443Y-105039386D01*
X165247095Y-104983920D01*
X165367566Y-104892563D01*
X165451696Y-104781622D01*
X165507888Y-104740098D01*
X165577610Y-104735547D01*
X165638724Y-104769412D01*
X165671827Y-104830942D01*
X165674500Y-104856547D01*
X165674500Y-105225460D01*
X165654815Y-105292499D01*
X165650270Y-105299093D01*
X165622209Y-105337113D01*
X165622206Y-105337119D01*
X165577353Y-105465298D01*
X165577353Y-105465300D01*
X165574500Y-105495730D01*
X165574500Y-106504269D01*
X165577353Y-106534699D01*
X165577353Y-106534701D01*
X165622206Y-106662880D01*
X165622207Y-106662882D01*
X165702850Y-106772150D01*
X165812118Y-106852793D01*
X165854845Y-106867744D01*
X165940299Y-106897646D01*
X165970730Y-106900500D01*
X165970734Y-106900500D01*
X166604270Y-106900500D01*
X166634699Y-106897646D01*
X166634701Y-106897646D01*
X166711449Y-106870790D01*
X166762882Y-106852793D01*
X166872150Y-106772150D01*
X166952793Y-106662882D01*
X166979463Y-106586663D01*
X166997646Y-106534701D01*
X166997646Y-106534699D01*
X167000500Y-106504269D01*
X167000500Y-105495730D01*
X166997646Y-105465300D01*
X166997646Y-105465298D01*
X166960879Y-105360227D01*
X166952793Y-105337118D01*
X166872150Y-105227850D01*
X166762882Y-105147207D01*
X166762880Y-105147206D01*
X166634700Y-105102353D01*
X166604270Y-105099500D01*
X166604266Y-105099500D01*
X166449500Y-105099500D01*
X166382461Y-105079815D01*
X166336706Y-105027011D01*
X166325500Y-104975500D01*
X166325500Y-103752855D01*
X166325501Y-103752842D01*
X166325501Y-103657149D01*
X166325501Y-103657148D01*
X166303318Y-103574362D01*
X166294359Y-103558846D01*
X166286603Y-103545410D01*
X166286603Y-103545409D01*
X166260469Y-103500144D01*
X166260466Y-103500140D01*
X166260465Y-103500138D01*
X166199862Y-103439535D01*
X166199861Y-103439534D01*
X166195531Y-103435204D01*
X166195520Y-103435194D01*
X165461819Y-102701493D01*
X165428334Y-102640170D01*
X165425500Y-102613812D01*
X165425500Y-102045730D01*
X165422646Y-102015300D01*
X165422646Y-102015298D01*
X165377793Y-101887119D01*
X165377792Y-101887117D01*
X165365039Y-101869837D01*
X165297150Y-101777850D01*
X165187882Y-101697207D01*
X165187880Y-101697206D01*
X165059700Y-101652353D01*
X165029270Y-101649500D01*
X165029266Y-101649500D01*
X163970734Y-101649500D01*
X163970730Y-101649500D01*
X163940300Y-101652353D01*
X163940298Y-101652353D01*
X163812119Y-101697206D01*
X163812117Y-101697207D01*
X163702850Y-101777850D01*
X163622207Y-101887117D01*
X163622206Y-101887119D01*
X163577353Y-102015298D01*
X163577353Y-102015300D01*
X163574500Y-102045730D01*
X163574500Y-102613811D01*
X163554815Y-102680850D01*
X163538181Y-102701492D01*
X162739537Y-103500135D01*
X162739533Y-103500141D01*
X162696682Y-103574359D01*
X162695840Y-103577505D01*
X162695840Y-103577506D01*
X162674500Y-103657147D01*
X162674500Y-104195613D01*
X162654815Y-104262652D01*
X162638182Y-104283294D01*
X162559488Y-104361988D01*
X162487017Y-104487511D01*
X162487016Y-104487515D01*
X162449500Y-104627525D01*
X162449500Y-104772475D01*
X162480027Y-104886403D01*
X162487017Y-104912489D01*
X162487018Y-104912490D01*
X162488101Y-104914366D01*
X162488533Y-104916149D01*
X162490128Y-104919999D01*
X162489527Y-104920247D01*
X162504572Y-104982267D01*
X162481719Y-105048293D01*
X162426797Y-105091483D01*
X162392292Y-105099822D01*
X162365300Y-105102353D01*
X162365298Y-105102353D01*
X162237119Y-105147206D01*
X162237117Y-105147207D01*
X162127850Y-105227850D01*
X162047207Y-105337117D01*
X162047206Y-105337119D01*
X162002353Y-105465298D01*
X162002353Y-105465300D01*
X162000009Y-105490303D01*
X161999500Y-105495734D01*
X161999500Y-106504266D01*
X162000352Y-106513357D01*
X162002036Y-106531314D01*
X161996738Y-106558547D01*
X161994759Y-106586222D01*
X161990159Y-106592366D01*
X161988694Y-106599898D01*
X161969514Y-106619944D01*
X161952887Y-106642155D01*
X161945697Y-106644836D01*
X161940392Y-106650382D01*
X161913416Y-106656876D01*
X161887423Y-106666572D01*
X161879923Y-106664940D01*
X161872463Y-106666737D01*
X161846260Y-106657617D01*
X161819150Y-106651720D01*
X161810317Y-106645108D01*
X161806476Y-106643771D01*
X161790896Y-106630569D01*
X161636819Y-106476492D01*
X161603334Y-106415169D01*
X161600500Y-106388811D01*
X161600500Y-105495730D01*
X161597646Y-105465300D01*
X161597646Y-105465298D01*
X161560879Y-105360227D01*
X161552793Y-105337118D01*
X161472150Y-105227850D01*
X161362882Y-105147207D01*
X161362880Y-105147206D01*
X161234700Y-105102353D01*
X161204270Y-105099500D01*
X161204266Y-105099500D01*
X160570734Y-105099500D01*
X160570730Y-105099500D01*
X160540300Y-105102353D01*
X160540298Y-105102353D01*
X160412119Y-105147206D01*
X160412117Y-105147207D01*
X160302850Y-105227850D01*
X160222207Y-105337117D01*
X160222206Y-105337119D01*
X160177353Y-105465298D01*
X160177353Y-105465300D01*
X160174500Y-105495730D01*
X160174500Y-106504269D01*
X160177353Y-106534699D01*
X160177353Y-106534701D01*
X160222206Y-106662880D01*
X160222207Y-106662882D01*
X160302850Y-106772150D01*
X160412118Y-106852793D01*
X160454845Y-106867744D01*
X160540299Y-106897646D01*
X160570730Y-106900500D01*
X160570734Y-106900500D01*
X161088811Y-106900500D01*
X161155850Y-106920185D01*
X161176492Y-106936819D01*
X162438181Y-108198507D01*
X162471666Y-108259830D01*
X162474500Y-108286188D01*
X162474500Y-116750979D01*
X162473293Y-116750979D01*
X162469218Y-116795282D01*
X162429060Y-116918878D01*
X162399500Y-117105513D01*
X162399500Y-117294486D01*
X162429060Y-117481119D01*
X162429060Y-117481122D01*
X162456014Y-117564076D01*
X162458009Y-117633917D01*
X162421929Y-117693750D01*
X162359228Y-117724578D01*
X162289813Y-117716613D01*
X162250402Y-117690075D01*
X159399864Y-114839537D01*
X159399862Y-114839535D01*
X159360410Y-114816757D01*
X159312196Y-114766190D01*
X159298974Y-114697583D01*
X159324942Y-114632718D01*
X159353521Y-114606269D01*
X159393112Y-114579815D01*
X159446542Y-114544114D01*
X159544114Y-114446542D01*
X159620775Y-114331811D01*
X159673580Y-114204328D01*
X159689298Y-114125308D01*
X159700500Y-114068995D01*
X159700500Y-113931004D01*
X159673581Y-113795677D01*
X159673580Y-113795676D01*
X159673580Y-113795672D01*
X159673578Y-113795667D01*
X159620778Y-113668195D01*
X159620771Y-113668182D01*
X159544114Y-113553458D01*
X159544111Y-113553454D01*
X159446545Y-113455888D01*
X159446541Y-113455885D01*
X159331817Y-113379228D01*
X159331804Y-113379221D01*
X159204332Y-113326421D01*
X159204322Y-113326418D01*
X159068995Y-113299500D01*
X159068993Y-113299500D01*
X159049500Y-113299500D01*
X158982461Y-113279815D01*
X158936706Y-113227011D01*
X158925500Y-113175500D01*
X158925500Y-109552855D01*
X158925501Y-109552842D01*
X158925501Y-109457148D01*
X158922645Y-109446488D01*
X158903318Y-109374361D01*
X158876109Y-109327235D01*
X158860465Y-109300138D01*
X158799862Y-109239535D01*
X158799859Y-109239533D01*
X155799862Y-106239535D01*
X155753871Y-106212982D01*
X155725640Y-106196682D01*
X155684246Y-106185591D01*
X155642853Y-106174500D01*
X155642852Y-106174500D01*
X153591255Y-106174500D01*
X153524216Y-106154815D01*
X153478461Y-106102011D01*
X153468517Y-106032853D01*
X153497542Y-105969297D01*
X153503574Y-105962819D01*
X154557225Y-104909167D01*
X154912318Y-104554072D01*
X154973641Y-104520588D01*
X155043332Y-104525572D01*
X155087680Y-104554073D01*
X155554087Y-105020480D01*
X155606083Y-105050500D01*
X155641090Y-105070712D01*
X155645412Y-105073207D01*
X155747273Y-105100500D01*
X155852727Y-105100500D01*
X156284496Y-105100500D01*
X156325451Y-105107459D01*
X156440298Y-105147645D01*
X156440300Y-105147646D01*
X156470730Y-105150500D01*
X156470734Y-105150500D01*
X157529270Y-105150500D01*
X157559699Y-105147646D01*
X157559701Y-105147646D01*
X157633060Y-105121976D01*
X157687882Y-105102793D01*
X157797150Y-105022150D01*
X157877793Y-104912882D01*
X157903990Y-104838015D01*
X157922646Y-104784701D01*
X157922646Y-104784699D01*
X157925500Y-104754269D01*
X157925500Y-104392255D01*
X157934144Y-104362814D01*
X157940668Y-104332828D01*
X157944422Y-104327812D01*
X157945185Y-104325216D01*
X157961819Y-104304574D01*
X157988861Y-104277532D01*
X158050184Y-104244047D01*
X158108633Y-104245437D01*
X158127525Y-104250500D01*
X158127528Y-104250500D01*
X158272472Y-104250500D01*
X158272475Y-104250500D01*
X158412485Y-104212984D01*
X158538015Y-104140509D01*
X158640509Y-104038015D01*
X158712984Y-103912485D01*
X158750500Y-103772475D01*
X158750500Y-103627525D01*
X158712984Y-103487515D01*
X158688094Y-103444405D01*
X158640511Y-103361988D01*
X158640506Y-103361982D01*
X158538017Y-103259493D01*
X158538011Y-103259488D01*
X158412488Y-103187017D01*
X158412489Y-103187017D01*
X158398408Y-103183244D01*
X158272475Y-103149500D01*
X158127525Y-103149500D01*
X158126287Y-103149663D01*
X158125242Y-103149500D01*
X158119398Y-103149500D01*
X158119398Y-103148588D01*
X158057252Y-103138895D01*
X158004998Y-103092513D01*
X157986115Y-103025243D01*
X157994752Y-102981232D01*
X158014385Y-102931445D01*
X158025000Y-102843053D01*
X158025000Y-102750000D01*
X157200000Y-102750000D01*
X157200000Y-103350000D01*
X157484244Y-103350000D01*
X157505489Y-103356238D01*
X157527577Y-103357818D01*
X157538360Y-103365890D01*
X157551283Y-103369685D01*
X157565781Y-103386416D01*
X157583511Y-103399689D01*
X157588218Y-103412311D01*
X157597038Y-103422489D01*
X157600189Y-103444405D01*
X157607928Y-103465154D01*
X157605065Y-103478314D01*
X157606982Y-103491647D01*
X157597782Y-103511790D01*
X157593076Y-103533427D01*
X157579806Y-103551154D01*
X157577957Y-103555203D01*
X157571933Y-103561673D01*
X157420424Y-103713182D01*
X157359103Y-103746666D01*
X157332745Y-103749500D01*
X156470730Y-103749500D01*
X156440300Y-103752353D01*
X156440298Y-103752353D01*
X156312119Y-103797206D01*
X156312117Y-103797207D01*
X156202850Y-103877850D01*
X156122207Y-103987117D01*
X156122206Y-103987119D01*
X156077353Y-104115298D01*
X156076631Y-104123003D01*
X156050769Y-104187910D01*
X155993921Y-104228532D01*
X155924136Y-104231970D01*
X155865492Y-104199099D01*
X155481819Y-103815426D01*
X155448334Y-103754103D01*
X155445500Y-103727745D01*
X155445500Y-102843053D01*
X155975000Y-102843053D01*
X155985613Y-102931443D01*
X156041079Y-103072094D01*
X156132435Y-103192564D01*
X156252904Y-103283920D01*
X156393556Y-103339386D01*
X156481946Y-103350000D01*
X156800000Y-103350000D01*
X156800000Y-102750000D01*
X155975000Y-102750000D01*
X155975000Y-102843053D01*
X155445500Y-102843053D01*
X155445500Y-102256946D01*
X155975000Y-102256946D01*
X155975000Y-102350000D01*
X156800000Y-102350000D01*
X157200000Y-102350000D01*
X158025000Y-102350000D01*
X158025000Y-102256946D01*
X158014386Y-102168556D01*
X157958920Y-102027904D01*
X157867564Y-101907435D01*
X157747095Y-101816079D01*
X157606443Y-101760613D01*
X157518054Y-101750000D01*
X157200000Y-101750000D01*
X157200000Y-102350000D01*
X156800000Y-102350000D01*
X156800000Y-101750000D01*
X156481946Y-101750000D01*
X156393556Y-101760613D01*
X156252904Y-101816079D01*
X156132435Y-101907435D01*
X156041079Y-102027904D01*
X155985613Y-102168556D01*
X155975000Y-102256946D01*
X155445500Y-102256946D01*
X155445500Y-102166739D01*
X155435573Y-102098608D01*
X155429502Y-102086189D01*
X155384198Y-101993517D01*
X155384196Y-101993515D01*
X155384196Y-101993514D01*
X155301485Y-101910803D01*
X155196391Y-101859426D01*
X155128261Y-101849500D01*
X155128260Y-101849500D01*
X154761740Y-101849500D01*
X154761739Y-101849500D01*
X154693608Y-101859426D01*
X154588514Y-101910803D01*
X154505802Y-101993515D01*
X154475154Y-102056207D01*
X154428026Y-102107789D01*
X154360492Y-102125703D01*
X154293993Y-102104262D01*
X154249644Y-102050272D01*
X154246712Y-102042700D01*
X154227346Y-101987354D01*
X154146792Y-101878207D01*
X154037645Y-101797653D01*
X153909602Y-101752850D01*
X153879207Y-101750000D01*
X153875000Y-101750000D01*
X153875000Y-104306963D01*
X153900108Y-104352945D01*
X153895124Y-104422637D01*
X153866623Y-104466984D01*
X153327427Y-105006179D01*
X153266104Y-105039664D01*
X153196412Y-105034680D01*
X153140479Y-104992808D01*
X153116062Y-104927344D01*
X153119970Y-104886413D01*
X153150500Y-104772475D01*
X153150500Y-104627525D01*
X153112984Y-104487515D01*
X153112218Y-104486189D01*
X153040511Y-104361988D01*
X153040510Y-104361987D01*
X153040509Y-104361985D01*
X152961818Y-104283294D01*
X152928334Y-104221970D01*
X152925500Y-104195613D01*
X152925500Y-104172343D01*
X152945185Y-104105304D01*
X152997989Y-104059549D01*
X153067147Y-104049605D01*
X153130703Y-104078630D01*
X153149270Y-104098709D01*
X153203207Y-104171792D01*
X153312354Y-104252346D01*
X153440397Y-104297149D01*
X153470793Y-104299999D01*
X153474999Y-104299999D01*
X153475000Y-104299998D01*
X153475000Y-101750000D01*
X153470796Y-101750001D01*
X153470774Y-101750002D01*
X153440399Y-101752850D01*
X153440394Y-101752851D01*
X153312354Y-101797653D01*
X153203207Y-101878207D01*
X153122653Y-101987354D01*
X153122651Y-101987359D01*
X153103286Y-102042701D01*
X153062564Y-102099477D01*
X152997611Y-102125224D01*
X152929050Y-102111767D01*
X152878647Y-102063380D01*
X152874845Y-102056207D01*
X152844198Y-101993517D01*
X152844196Y-101993515D01*
X152844196Y-101993514D01*
X152761485Y-101910803D01*
X152656391Y-101859426D01*
X152588261Y-101849500D01*
X152588260Y-101849500D01*
X152221740Y-101849500D01*
X152221739Y-101849500D01*
X152153608Y-101859426D01*
X152048514Y-101910803D01*
X151965802Y-101993515D01*
X151935154Y-102056207D01*
X151888026Y-102107789D01*
X151820492Y-102125703D01*
X151753993Y-102104262D01*
X151709644Y-102050272D01*
X151706712Y-102042700D01*
X151687346Y-101987354D01*
X151606792Y-101878207D01*
X151497645Y-101797653D01*
X151369602Y-101752850D01*
X151339207Y-101750000D01*
X151335000Y-101750000D01*
X151335000Y-104299999D01*
X151339196Y-104299999D01*
X151369606Y-104297148D01*
X151497645Y-104252346D01*
X151606792Y-104171792D01*
X151687346Y-104062645D01*
X151687347Y-104062643D01*
X151706712Y-104007300D01*
X151747433Y-103950523D01*
X151812385Y-103924775D01*
X151880947Y-103938231D01*
X151931351Y-103986617D01*
X151935155Y-103993793D01*
X151965803Y-104056485D01*
X152048514Y-104139196D01*
X152048515Y-104139196D01*
X152048517Y-104139198D01*
X152117315Y-104172831D01*
X152168896Y-104219958D01*
X152186811Y-104287492D01*
X152165370Y-104353990D01*
X152161237Y-104359709D01*
X152159491Y-104361984D01*
X152087017Y-104487511D01*
X152087016Y-104487515D01*
X152049500Y-104627525D01*
X152049500Y-104772475D01*
X152081678Y-104892563D01*
X152087017Y-104912488D01*
X152108614Y-104949895D01*
X152125087Y-105017795D01*
X152102234Y-105083822D01*
X152047313Y-105127013D01*
X151977760Y-105133654D01*
X151957481Y-105127568D01*
X151916938Y-105116705D01*
X151852727Y-105099500D01*
X151852726Y-105099500D01*
X150324500Y-105099500D01*
X150257461Y-105079815D01*
X150211706Y-105027011D01*
X150200500Y-104975500D01*
X150200500Y-104211544D01*
X150220185Y-104144505D01*
X150225089Y-104137426D01*
X150230463Y-104130217D01*
X150304198Y-104056483D01*
X150339925Y-103983401D01*
X150346834Y-103974135D01*
X150365891Y-103959810D01*
X150381971Y-103942211D01*
X150393308Y-103939203D01*
X150402686Y-103932155D01*
X150426463Y-103930408D01*
X150449505Y-103924296D01*
X150460669Y-103927895D01*
X150472368Y-103927036D01*
X150493313Y-103938420D01*
X150516004Y-103945736D01*
X150523450Y-103954800D01*
X150533756Y-103960402D01*
X150545221Y-103981302D01*
X150560355Y-103999725D01*
X150563286Y-104007298D01*
X150582651Y-104062641D01*
X150582653Y-104062645D01*
X150663207Y-104171792D01*
X150772354Y-104252346D01*
X150900397Y-104297149D01*
X150930793Y-104299999D01*
X150934999Y-104299999D01*
X150935000Y-104299998D01*
X150935000Y-101750000D01*
X150930796Y-101750001D01*
X150930774Y-101750002D01*
X150900399Y-101752850D01*
X150900394Y-101752851D01*
X150772354Y-101797653D01*
X150663207Y-101878207D01*
X150582653Y-101987354D01*
X150582651Y-101987359D01*
X150563286Y-102042701D01*
X150522564Y-102099477D01*
X150457611Y-102125224D01*
X150389050Y-102111767D01*
X150338647Y-102063380D01*
X150334845Y-102056207D01*
X150304198Y-101993517D01*
X150304196Y-101993515D01*
X150304196Y-101993514D01*
X150221485Y-101910803D01*
X150116391Y-101859426D01*
X150048261Y-101849500D01*
X150048260Y-101849500D01*
X149681740Y-101849500D01*
X149681739Y-101849500D01*
X149613608Y-101859426D01*
X149508514Y-101910803D01*
X149425803Y-101993514D01*
X149374426Y-102098608D01*
X149364500Y-102166739D01*
X149364500Y-103883260D01*
X149374426Y-103951392D01*
X149386900Y-103976907D01*
X149399500Y-104031368D01*
X149399500Y-105070614D01*
X149379815Y-105137653D01*
X149363181Y-105158295D01*
X149359493Y-105161982D01*
X149359488Y-105161988D01*
X149287017Y-105287511D01*
X149284301Y-105297646D01*
X149249500Y-105427525D01*
X149249500Y-105572475D01*
X149287016Y-105712485D01*
X149287017Y-105712488D01*
X149359488Y-105838011D01*
X149359490Y-105838013D01*
X149359491Y-105838015D01*
X149461985Y-105940509D01*
X149461988Y-105940510D01*
X149461991Y-105940513D01*
X149466496Y-105943114D01*
X149514711Y-105993681D01*
X149527933Y-106062288D01*
X149501965Y-106127153D01*
X149445050Y-106167681D01*
X149404495Y-106174500D01*
X148786189Y-106174500D01*
X148719150Y-106154815D01*
X148698508Y-106138181D01*
X147817987Y-105257660D01*
X147784502Y-105196337D01*
X147789486Y-105126645D01*
X147831358Y-105070712D01*
X147873569Y-105050206D01*
X148012485Y-105012984D01*
X148138015Y-104940509D01*
X148240509Y-104838015D01*
X148312984Y-104712485D01*
X148350500Y-104572475D01*
X148350500Y-104427525D01*
X148331493Y-104356590D01*
X148333156Y-104286744D01*
X148372318Y-104228882D01*
X148436546Y-104201377D01*
X148451268Y-104200500D01*
X148778261Y-104200500D01*
X148811801Y-104195613D01*
X148846393Y-104190573D01*
X148951483Y-104139198D01*
X149034198Y-104056483D01*
X149085573Y-103951393D01*
X149095500Y-103883260D01*
X149095500Y-102166740D01*
X149085573Y-102098607D01*
X149034198Y-101993517D01*
X149034196Y-101993515D01*
X149034196Y-101993514D01*
X148951485Y-101910803D01*
X148846391Y-101859426D01*
X148801346Y-101852863D01*
X148737845Y-101823718D01*
X148707388Y-101781396D01*
X148707382Y-101781400D01*
X148707346Y-101781338D01*
X148704664Y-101777611D01*
X148703317Y-101774359D01*
X148660469Y-101700144D01*
X148660463Y-101700136D01*
X148199864Y-101239537D01*
X148199862Y-101239535D01*
X148162750Y-101218108D01*
X148125640Y-101196682D01*
X148073841Y-101182803D01*
X148042853Y-101174500D01*
X145442853Y-101174500D01*
X145357147Y-101174500D01*
X145274359Y-101196682D01*
X145200138Y-101239535D01*
X145200135Y-101239537D01*
X143939537Y-102500135D01*
X143939533Y-102500141D01*
X143896681Y-102574361D01*
X143896682Y-102574362D01*
X143874500Y-102657147D01*
X143874500Y-103750500D01*
X143854815Y-103817539D01*
X143802011Y-103863294D01*
X143750500Y-103874500D01*
X143495730Y-103874500D01*
X143465300Y-103877353D01*
X143465298Y-103877353D01*
X143337119Y-103922206D01*
X143337117Y-103922207D01*
X143227850Y-104002850D01*
X143147207Y-104112117D01*
X143147206Y-104112119D01*
X143102353Y-104240298D01*
X143102353Y-104240300D01*
X143099500Y-104270730D01*
X143099500Y-104904269D01*
X143102353Y-104934699D01*
X143102353Y-104934701D01*
X143142874Y-105050500D01*
X143147207Y-105062882D01*
X143227850Y-105172150D01*
X143337118Y-105252793D01*
X143375613Y-105266263D01*
X143465299Y-105297646D01*
X143495730Y-105300500D01*
X143495734Y-105300500D01*
X144504264Y-105300500D01*
X144504266Y-105300500D01*
X144524615Y-105298591D01*
X144551850Y-105303887D01*
X144579527Y-105305867D01*
X144585667Y-105310463D01*
X144593197Y-105311928D01*
X144613246Y-105331109D01*
X144635461Y-105347738D01*
X144638141Y-105354924D01*
X144643684Y-105360227D01*
X144650181Y-105387205D01*
X144659878Y-105413202D01*
X144658247Y-105420696D01*
X144660044Y-105428154D01*
X144650925Y-105454360D01*
X144645027Y-105481475D01*
X144638417Y-105490303D01*
X144637082Y-105494143D01*
X144623876Y-105509730D01*
X144584522Y-105549084D01*
X144470424Y-105663182D01*
X144409104Y-105696666D01*
X144382745Y-105699500D01*
X143495730Y-105699500D01*
X143465300Y-105702353D01*
X143465298Y-105702353D01*
X143337119Y-105747206D01*
X143337117Y-105747207D01*
X143227850Y-105827850D01*
X143147207Y-105937117D01*
X143147206Y-105937119D01*
X143102353Y-106065298D01*
X143102353Y-106065300D01*
X143099500Y-106095730D01*
X143099500Y-106729269D01*
X143102353Y-106759699D01*
X143102353Y-106759701D01*
X143147206Y-106887880D01*
X143147207Y-106887882D01*
X143227850Y-106997150D01*
X143337118Y-107077793D01*
X143379845Y-107092744D01*
X143465299Y-107122646D01*
X143495730Y-107125500D01*
X143495734Y-107125500D01*
X144075500Y-107125500D01*
X144142539Y-107145185D01*
X144188294Y-107197989D01*
X144199500Y-107249500D01*
X144199500Y-113825500D01*
X144179815Y-113892539D01*
X144127011Y-113938294D01*
X144075500Y-113949500D01*
X144072475Y-113949500D01*
X143927525Y-113949500D01*
X143798993Y-113983940D01*
X143787511Y-113987017D01*
X143661988Y-114059488D01*
X143661982Y-114059493D01*
X143559493Y-114161982D01*
X143559488Y-114161988D01*
X143487017Y-114287511D01*
X143487016Y-114287515D01*
X143449500Y-114427525D01*
X143449500Y-114572475D01*
X143487016Y-114712485D01*
X143487017Y-114712488D01*
X143559488Y-114838011D01*
X143559490Y-114838013D01*
X143559491Y-114838015D01*
X143661985Y-114940509D01*
X143661986Y-114940510D01*
X143661988Y-114940511D01*
X143787511Y-115012982D01*
X143787512Y-115012982D01*
X143787515Y-115012984D01*
X143927525Y-115050500D01*
X143927528Y-115050500D01*
X144075500Y-115050500D01*
X144142539Y-115070185D01*
X144188294Y-115122989D01*
X144199500Y-115174500D01*
X144199500Y-117870614D01*
X144179815Y-117937653D01*
X144163181Y-117958295D01*
X144159493Y-117961982D01*
X144159488Y-117961988D01*
X144087017Y-118087511D01*
X144087016Y-118087515D01*
X144049500Y-118227525D01*
X144049500Y-118372475D01*
X144067486Y-118439598D01*
X144087017Y-118512488D01*
X144159488Y-118638011D01*
X144159490Y-118638013D01*
X144159491Y-118638015D01*
X144261985Y-118740509D01*
X144261986Y-118740510D01*
X144261988Y-118740511D01*
X144387511Y-118812982D01*
X144387512Y-118812982D01*
X144387515Y-118812984D01*
X144526426Y-118850205D01*
X144586084Y-118886569D01*
X144616613Y-118949416D01*
X144608318Y-119018792D01*
X144582011Y-119057660D01*
X132339537Y-131300135D01*
X132339535Y-131300138D01*
X132296682Y-131374361D01*
X132279219Y-131439534D01*
X132277331Y-131446579D01*
X132274500Y-131457144D01*
X132274500Y-131479291D01*
X132254815Y-131546330D01*
X132202011Y-131592085D01*
X132138925Y-131602750D01*
X132120883Y-131601058D01*
X132104265Y-131599500D01*
X132104261Y-131599500D01*
X131552479Y-131599500D01*
X131520387Y-131595275D01*
X131442853Y-131574500D01*
X131442852Y-131574500D01*
X128608118Y-131574500D01*
X128573417Y-131572769D01*
X128565373Y-131574500D01*
X128557147Y-131574500D01*
X128526586Y-131582688D01*
X128524369Y-131583260D01*
X128522459Y-131583734D01*
X128489629Y-131590799D01*
X128485527Y-131592901D01*
X128473658Y-131595848D01*
X128466606Y-131595549D01*
X128443784Y-131599500D01*
X127895730Y-131599500D01*
X127865300Y-131602353D01*
X127865298Y-131602353D01*
X127737119Y-131647206D01*
X127737117Y-131647207D01*
X127627850Y-131727850D01*
X127547207Y-131837117D01*
X127547206Y-131837119D01*
X127502353Y-131965298D01*
X127502353Y-131965300D01*
X127499500Y-131995730D01*
X127100500Y-131995730D01*
X127097646Y-131965300D01*
X127097646Y-131965298D01*
X127052793Y-131837119D01*
X127052792Y-131837117D01*
X127044320Y-131825638D01*
X126972150Y-131727850D01*
X126862882Y-131647207D01*
X126862880Y-131647206D01*
X126734700Y-131602353D01*
X126704270Y-131599500D01*
X126704266Y-131599500D01*
X126449500Y-131599500D01*
X126382461Y-131579815D01*
X126336706Y-131527011D01*
X126325500Y-131475500D01*
X126325500Y-127219973D01*
X126334531Y-127189213D01*
X126342070Y-127158047D01*
X126344465Y-127155385D01*
X126345185Y-127152934D01*
X126349518Y-127147682D01*
X131300000Y-127147682D01*
X131300000Y-127352317D01*
X131332009Y-127554417D01*
X131395244Y-127749031D01*
X131488139Y-127931347D01*
X131550279Y-128016876D01*
X132019668Y-127547487D01*
X132023978Y-127557890D01*
X132095112Y-127664351D01*
X132185649Y-127754888D01*
X132292110Y-127826022D01*
X132302510Y-127830330D01*
X131833121Y-128299719D01*
X131833122Y-128299720D01*
X131918640Y-128361852D01*
X131918649Y-128361858D01*
X132100968Y-128454755D01*
X132295582Y-128517990D01*
X132497683Y-128550000D01*
X132702317Y-128550000D01*
X132904417Y-128517990D01*
X133099031Y-128454755D01*
X133281349Y-128361859D01*
X133366876Y-128299719D01*
X133366877Y-128299718D01*
X132897489Y-127830330D01*
X132907890Y-127826022D01*
X133014351Y-127754888D01*
X133104888Y-127664351D01*
X133176022Y-127557890D01*
X133180330Y-127547488D01*
X133649718Y-128016877D01*
X133649719Y-128016876D01*
X133711859Y-127931349D01*
X133804755Y-127749031D01*
X133867990Y-127554417D01*
X133900000Y-127352317D01*
X133900000Y-127147682D01*
X133867990Y-126945582D01*
X133804755Y-126750968D01*
X133711858Y-126568649D01*
X133711852Y-126568640D01*
X133649720Y-126483122D01*
X133649719Y-126483121D01*
X133180330Y-126952510D01*
X133176022Y-126942110D01*
X133104888Y-126835649D01*
X133014351Y-126745112D01*
X132907890Y-126673978D01*
X132897487Y-126669669D01*
X133366876Y-126200279D01*
X133281347Y-126138139D01*
X133099031Y-126045244D01*
X132904417Y-125982009D01*
X132702317Y-125950000D01*
X132497683Y-125950000D01*
X132295582Y-125982009D01*
X132100968Y-126045244D01*
X131918648Y-126138141D01*
X131833122Y-126200278D01*
X131833122Y-126200279D01*
X132302512Y-126669669D01*
X132292110Y-126673978D01*
X132185649Y-126745112D01*
X132095112Y-126835649D01*
X132023978Y-126942110D01*
X132019669Y-126952512D01*
X131550279Y-126483122D01*
X131550278Y-126483122D01*
X131488141Y-126568648D01*
X131395244Y-126750968D01*
X131332009Y-126945582D01*
X131300000Y-127147682D01*
X126349518Y-127147682D01*
X126363869Y-127130289D01*
X126369884Y-127124545D01*
X126382073Y-127115690D01*
X126515690Y-126982073D01*
X126626760Y-126829199D01*
X126712547Y-126660832D01*
X126770940Y-126481118D01*
X126782066Y-126410870D01*
X126800500Y-126294486D01*
X126800500Y-126105513D01*
X126770940Y-125918881D01*
X126712545Y-125739163D01*
X126626759Y-125570800D01*
X126515690Y-125417927D01*
X126382073Y-125284310D01*
X126229199Y-125173240D01*
X126060836Y-125087454D01*
X125881118Y-125029059D01*
X125694486Y-124999500D01*
X125694481Y-124999500D01*
X125505519Y-124999500D01*
X125505514Y-124999500D01*
X125318881Y-125029059D01*
X125139163Y-125087454D01*
X124970800Y-125173240D01*
X124907614Y-125219148D01*
X124817927Y-125284310D01*
X124817925Y-125284312D01*
X124817924Y-125284312D01*
X124684312Y-125417924D01*
X124684312Y-125417925D01*
X124684310Y-125417927D01*
X124636610Y-125483579D01*
X124573240Y-125570800D01*
X124487454Y-125739163D01*
X124429059Y-125918881D01*
X124399500Y-126105513D01*
X113217315Y-126105513D01*
X113099031Y-126045244D01*
X112904417Y-125982009D01*
X112702317Y-125950000D01*
X112497683Y-125950000D01*
X112295582Y-125982009D01*
X112100968Y-126045244D01*
X111918648Y-126138141D01*
X111833122Y-126200278D01*
X111833122Y-126200279D01*
X112302512Y-126669669D01*
X112292110Y-126673978D01*
X112185649Y-126745112D01*
X112095112Y-126835649D01*
X112023978Y-126942110D01*
X112019669Y-126952512D01*
X111550279Y-126483122D01*
X111550278Y-126483122D01*
X111488141Y-126568648D01*
X111395244Y-126750968D01*
X111332009Y-126945582D01*
X111300000Y-127147682D01*
X106338040Y-127147682D01*
X106382073Y-127115690D01*
X106515690Y-126982073D01*
X106626760Y-126829199D01*
X106712547Y-126660832D01*
X106770940Y-126481118D01*
X106782066Y-126410870D01*
X106800500Y-126294486D01*
X106800500Y-126105513D01*
X106770940Y-125918881D01*
X106712545Y-125739163D01*
X106626759Y-125570800D01*
X106515690Y-125417927D01*
X106382073Y-125284310D01*
X106376610Y-125280341D01*
X106333947Y-125225010D01*
X106325500Y-125180026D01*
X106325500Y-121336824D01*
X107094500Y-121336824D01*
X107094500Y-121663175D01*
X107131035Y-121987441D01*
X107131037Y-121987453D01*
X107131038Y-121987456D01*
X107145313Y-122050000D01*
X107203655Y-122305612D01*
X107203656Y-122305614D01*
X107311438Y-122613640D01*
X107453030Y-122907657D01*
X107475145Y-122942853D01*
X107626654Y-123183979D01*
X107830123Y-123439121D01*
X108060879Y-123669877D01*
X108316021Y-123873346D01*
X108592340Y-124046968D01*
X108886361Y-124188562D01*
X109194387Y-124296344D01*
X109512544Y-124368962D01*
X109512553Y-124368963D01*
X109512558Y-124368964D01*
X109728735Y-124393320D01*
X109836825Y-124405499D01*
X109836828Y-124405500D01*
X109836831Y-124405500D01*
X110163172Y-124405500D01*
X110163173Y-124405499D01*
X110328900Y-124386826D01*
X110487441Y-124368964D01*
X110487444Y-124368963D01*
X110487456Y-124368962D01*
X110805613Y-124296344D01*
X111113639Y-124188562D01*
X111407660Y-124046968D01*
X111683979Y-123873346D01*
X111939121Y-123669877D01*
X112169877Y-123439121D01*
X112373346Y-123183979D01*
X112546968Y-122907660D01*
X112688562Y-122613639D01*
X112796344Y-122305613D01*
X112868962Y-121987456D01*
X112869361Y-121983920D01*
X112905499Y-121663175D01*
X112905500Y-121663171D01*
X112905500Y-121336828D01*
X112905499Y-121336824D01*
X127094500Y-121336824D01*
X127094500Y-121663175D01*
X127131035Y-121987441D01*
X127131037Y-121987453D01*
X127131038Y-121987456D01*
X127145313Y-122050000D01*
X127203655Y-122305612D01*
X127203656Y-122305614D01*
X127311438Y-122613640D01*
X127453030Y-122907657D01*
X127475145Y-122942853D01*
X127626654Y-123183979D01*
X127830123Y-123439121D01*
X128060879Y-123669877D01*
X128316021Y-123873346D01*
X128592340Y-124046968D01*
X128886361Y-124188562D01*
X129194387Y-124296344D01*
X129512544Y-124368962D01*
X129512553Y-124368963D01*
X129512558Y-124368964D01*
X129728735Y-124393320D01*
X129836825Y-124405499D01*
X129836828Y-124405500D01*
X129836831Y-124405500D01*
X130163172Y-124405500D01*
X130163173Y-124405499D01*
X130328900Y-124386826D01*
X130487441Y-124368964D01*
X130487444Y-124368963D01*
X130487456Y-124368962D01*
X130805613Y-124296344D01*
X131113639Y-124188562D01*
X131407660Y-124046968D01*
X131683979Y-123873346D01*
X131939121Y-123669877D01*
X132169877Y-123439121D01*
X132373346Y-123183979D01*
X132546968Y-122907660D01*
X132688562Y-122613639D01*
X132796344Y-122305613D01*
X132868962Y-121987456D01*
X132869361Y-121983920D01*
X132905499Y-121663175D01*
X132905500Y-121663171D01*
X132905500Y-121336828D01*
X132905499Y-121336824D01*
X132868964Y-121012558D01*
X132868963Y-121012553D01*
X132868962Y-121012544D01*
X132796344Y-120694387D01*
X132688562Y-120386361D01*
X132574495Y-120149500D01*
X132546969Y-120092342D01*
X132513875Y-120039673D01*
X132373346Y-119816021D01*
X132169877Y-119560879D01*
X131939121Y-119330123D01*
X131683979Y-119126654D01*
X131407660Y-118953032D01*
X131407657Y-118953030D01*
X131113640Y-118811438D01*
X130805614Y-118703656D01*
X130805612Y-118703655D01*
X130560073Y-118647612D01*
X130487456Y-118631038D01*
X130487453Y-118631037D01*
X130487441Y-118631035D01*
X130163175Y-118594500D01*
X130163169Y-118594500D01*
X129836831Y-118594500D01*
X129836824Y-118594500D01*
X129512558Y-118631035D01*
X129512544Y-118631038D01*
X129194387Y-118703655D01*
X129194385Y-118703656D01*
X128886359Y-118811438D01*
X128592342Y-118953030D01*
X128316022Y-119126653D01*
X128060879Y-119330122D01*
X127830122Y-119560879D01*
X127626653Y-119816022D01*
X127453030Y-120092342D01*
X127311438Y-120386359D01*
X127203656Y-120694385D01*
X127203655Y-120694387D01*
X127131038Y-121012544D01*
X127131035Y-121012558D01*
X127094500Y-121336824D01*
X112905499Y-121336824D01*
X112868964Y-121012558D01*
X112868963Y-121012553D01*
X112868962Y-121012544D01*
X112796344Y-120694387D01*
X112688562Y-120386361D01*
X112574495Y-120149500D01*
X112546969Y-120092342D01*
X112513875Y-120039673D01*
X112373346Y-119816021D01*
X112169877Y-119560879D01*
X111939121Y-119330123D01*
X111683979Y-119126654D01*
X111407660Y-118953032D01*
X111407657Y-118953030D01*
X111113640Y-118811438D01*
X110805614Y-118703656D01*
X110805612Y-118703655D01*
X110560073Y-118647612D01*
X110487456Y-118631038D01*
X110487453Y-118631037D01*
X110487441Y-118631035D01*
X110163175Y-118594500D01*
X110163169Y-118594500D01*
X109836831Y-118594500D01*
X109836824Y-118594500D01*
X109512558Y-118631035D01*
X109512544Y-118631038D01*
X109194387Y-118703655D01*
X109194385Y-118703656D01*
X108886359Y-118811438D01*
X108592342Y-118953030D01*
X108316022Y-119126653D01*
X108060879Y-119330122D01*
X107830122Y-119560879D01*
X107626653Y-119816022D01*
X107453030Y-120092342D01*
X107311438Y-120386359D01*
X107203656Y-120694385D01*
X107203655Y-120694387D01*
X107131038Y-121012544D01*
X107131035Y-121012558D01*
X107094500Y-121336824D01*
X106325500Y-121336824D01*
X106325500Y-116524500D01*
X106345185Y-116457461D01*
X106397989Y-116411706D01*
X106449500Y-116400500D01*
X106704270Y-116400500D01*
X106734699Y-116397646D01*
X106734701Y-116397646D01*
X106798790Y-116375219D01*
X106862882Y-116352793D01*
X106972150Y-116272150D01*
X107052793Y-116162882D01*
X107089791Y-116057148D01*
X107097646Y-116034701D01*
X107097646Y-116034699D01*
X107100500Y-116004269D01*
X107100500Y-114995730D01*
X107499500Y-114995730D01*
X107499500Y-116004269D01*
X107502353Y-116034699D01*
X107502353Y-116034701D01*
X107547206Y-116162880D01*
X107547207Y-116162882D01*
X107627850Y-116272150D01*
X107737118Y-116352793D01*
X107779845Y-116367744D01*
X107865299Y-116397646D01*
X107895730Y-116400500D01*
X107895734Y-116400500D01*
X108529270Y-116400500D01*
X108559699Y-116397646D01*
X108559701Y-116397646D01*
X108623790Y-116375219D01*
X108687882Y-116352793D01*
X108797150Y-116272150D01*
X108877793Y-116162882D01*
X108914791Y-116057148D01*
X108922646Y-116034701D01*
X108922646Y-116034699D01*
X108925500Y-116004269D01*
X108925500Y-114995736D01*
X108925500Y-114995734D01*
X108923904Y-114978722D01*
X108923453Y-114962420D01*
X108923984Y-114948505D01*
X108925500Y-114942853D01*
X108925500Y-114908831D01*
X108925590Y-114906475D01*
X108925620Y-114906384D01*
X108925654Y-114905030D01*
X108927231Y-114873418D01*
X108926573Y-114865318D01*
X108926894Y-114865291D01*
X108925500Y-114852182D01*
X108925500Y-114484993D01*
X108945185Y-114417954D01*
X108997989Y-114372199D01*
X109067147Y-114362255D01*
X109124806Y-114388587D01*
X109125677Y-114387440D01*
X109252904Y-114483920D01*
X109393556Y-114539386D01*
X109481946Y-114550000D01*
X109800000Y-114550000D01*
X109800000Y-112950000D01*
X109481946Y-112950000D01*
X109393556Y-112960613D01*
X109298391Y-112998142D01*
X109228804Y-113004423D01*
X109166868Y-112972086D01*
X109132247Y-112911397D01*
X109135932Y-112841624D01*
X109165219Y-112795107D01*
X109373830Y-112586495D01*
X109435151Y-112553012D01*
X109467805Y-112551067D01*
X109467838Y-112550365D01*
X109470723Y-112550500D01*
X109470734Y-112550500D01*
X110529277Y-112550500D01*
X110532162Y-112550365D01*
X110532227Y-112551755D01*
X110595494Y-112564058D01*
X110626171Y-112586498D01*
X110834778Y-112795105D01*
X110868263Y-112856428D01*
X110863279Y-112926120D01*
X110821407Y-112982053D01*
X110755943Y-113006470D01*
X110701608Y-112998141D01*
X110606444Y-112960614D01*
X110518054Y-112950000D01*
X110200000Y-112950000D01*
X110200000Y-114550000D01*
X110518054Y-114550000D01*
X110606443Y-114539386D01*
X110747095Y-114483920D01*
X110874323Y-114387440D01*
X110876248Y-114389978D01*
X110924142Y-114363827D01*
X110993834Y-114368811D01*
X111049767Y-114410683D01*
X111074184Y-114476147D01*
X111074500Y-114484993D01*
X111074500Y-114942851D01*
X111075561Y-114950909D01*
X111073880Y-114951130D01*
X111076095Y-114978724D01*
X111074501Y-114995730D01*
X111074500Y-114995737D01*
X111074500Y-116004269D01*
X111077353Y-116034699D01*
X111077353Y-116034701D01*
X111122206Y-116162880D01*
X111122207Y-116162882D01*
X111202850Y-116272150D01*
X111312118Y-116352793D01*
X111354845Y-116367744D01*
X111440299Y-116397646D01*
X111470730Y-116400500D01*
X111470734Y-116400500D01*
X112104270Y-116400500D01*
X112134699Y-116397646D01*
X112134701Y-116397646D01*
X112198790Y-116375219D01*
X112262882Y-116352793D01*
X112372150Y-116272150D01*
X112452793Y-116162882D01*
X112489791Y-116057148D01*
X112497646Y-116034701D01*
X112497646Y-116034699D01*
X112500500Y-116004269D01*
X112500500Y-114995730D01*
X112899500Y-114995730D01*
X112899500Y-116004269D01*
X112902353Y-116034699D01*
X112902353Y-116034701D01*
X112947206Y-116162880D01*
X112947207Y-116162882D01*
X113027850Y-116272150D01*
X113137118Y-116352793D01*
X113179845Y-116367744D01*
X113265299Y-116397646D01*
X113295730Y-116400500D01*
X113295734Y-116400500D01*
X113929270Y-116400500D01*
X113959699Y-116397646D01*
X113959701Y-116397646D01*
X114023790Y-116375219D01*
X114087882Y-116352793D01*
X114197150Y-116272150D01*
X114277793Y-116162882D01*
X114314791Y-116057148D01*
X114322646Y-116034701D01*
X114322646Y-116034699D01*
X114325500Y-116004269D01*
X114325500Y-115392255D01*
X114345185Y-115325216D01*
X114361819Y-115304574D01*
X114579574Y-115086819D01*
X114640897Y-115053334D01*
X114667255Y-115050500D01*
X114672472Y-115050500D01*
X114672475Y-115050500D01*
X114812485Y-115012984D01*
X114938015Y-114940509D01*
X115040509Y-114838015D01*
X115112984Y-114712485D01*
X115150500Y-114572475D01*
X115150500Y-114427525D01*
X115112984Y-114287515D01*
X115086012Y-114240799D01*
X115040511Y-114161988D01*
X115040506Y-114161982D01*
X114938017Y-114059493D01*
X114938011Y-114059488D01*
X114812488Y-113987017D01*
X114812489Y-113987017D01*
X114801006Y-113983940D01*
X114672475Y-113949500D01*
X114527525Y-113949500D01*
X114398993Y-113983940D01*
X114387511Y-113987017D01*
X114261988Y-114059488D01*
X114261982Y-114059493D01*
X114159493Y-114161982D01*
X114159488Y-114161988D01*
X114087017Y-114287511D01*
X114087016Y-114287515D01*
X114049500Y-114427525D01*
X114049500Y-114427527D01*
X114049500Y-114432743D01*
X114040855Y-114462183D01*
X114034332Y-114492170D01*
X114030577Y-114497185D01*
X114029815Y-114499782D01*
X114013181Y-114520424D01*
X113970424Y-114563181D01*
X113909101Y-114596666D01*
X113882743Y-114599500D01*
X113295730Y-114599500D01*
X113265300Y-114602353D01*
X113265298Y-114602353D01*
X113137119Y-114647206D01*
X113137117Y-114647207D01*
X113027850Y-114727850D01*
X112947207Y-114837117D01*
X112947206Y-114837119D01*
X112902353Y-114965298D01*
X112902353Y-114965300D01*
X112899500Y-114995730D01*
X112500500Y-114995730D01*
X112497646Y-114965300D01*
X112497646Y-114965298D01*
X112453639Y-114839537D01*
X112452793Y-114837118D01*
X112372150Y-114727850D01*
X112262882Y-114647207D01*
X112262880Y-114647206D01*
X112134700Y-114602353D01*
X112104270Y-114599500D01*
X112104266Y-114599500D01*
X111849500Y-114599500D01*
X111782461Y-114579815D01*
X111736706Y-114527011D01*
X111725500Y-114475500D01*
X111725500Y-114131439D01*
X111745185Y-114064400D01*
X111797989Y-114018645D01*
X111804992Y-114016128D01*
X111804978Y-114016093D01*
X111812476Y-114012986D01*
X111812485Y-114012984D01*
X111938015Y-113940509D01*
X112040509Y-113838015D01*
X112112984Y-113712485D01*
X112150500Y-113572475D01*
X112150500Y-113427525D01*
X112112984Y-113287515D01*
X112108538Y-113279815D01*
X112040511Y-113161988D01*
X112040510Y-113161986D01*
X112040509Y-113161985D01*
X111938015Y-113059491D01*
X111938013Y-113059490D01*
X111938011Y-113059488D01*
X111812488Y-112987017D01*
X111804981Y-112983908D01*
X111806021Y-112981396D01*
X111757741Y-112951965D01*
X111728001Y-112893340D01*
X111725500Y-112881077D01*
X111725500Y-112857147D01*
X111703318Y-112774362D01*
X111703318Y-112774361D01*
X111660465Y-112700138D01*
X110961819Y-112001492D01*
X110928334Y-111940169D01*
X110925500Y-111913811D01*
X110925500Y-111545730D01*
X110922646Y-111515300D01*
X110922646Y-111515298D01*
X110877793Y-111387119D01*
X110877792Y-111387117D01*
X110877233Y-111386359D01*
X110797150Y-111277850D01*
X110687882Y-111197207D01*
X110687880Y-111197206D01*
X110559700Y-111152353D01*
X110529270Y-111149500D01*
X110529266Y-111149500D01*
X109470734Y-111149500D01*
X109470730Y-111149500D01*
X109440300Y-111152353D01*
X109440298Y-111152353D01*
X109312119Y-111197206D01*
X109312117Y-111197207D01*
X109202850Y-111277850D01*
X109122207Y-111387117D01*
X109122206Y-111387119D01*
X109077353Y-111515298D01*
X109077353Y-111515300D01*
X109074500Y-111545730D01*
X109074500Y-111913811D01*
X109054815Y-111980850D01*
X109038181Y-112001492D01*
X108339537Y-112700135D01*
X108339533Y-112700141D01*
X108296682Y-112774359D01*
X108294933Y-112780888D01*
X108279626Y-112838015D01*
X108274500Y-112857147D01*
X108274500Y-114475500D01*
X108254815Y-114542539D01*
X108202011Y-114588294D01*
X108150500Y-114599500D01*
X107895730Y-114599500D01*
X107865300Y-114602353D01*
X107865298Y-114602353D01*
X107737119Y-114647206D01*
X107737117Y-114647207D01*
X107627850Y-114727850D01*
X107547207Y-114837117D01*
X107547206Y-114837119D01*
X107502353Y-114965298D01*
X107502353Y-114965300D01*
X107499500Y-114995730D01*
X107100500Y-114995730D01*
X107097646Y-114965300D01*
X107097646Y-114965298D01*
X107053639Y-114839537D01*
X107052793Y-114837118D01*
X106972150Y-114727850D01*
X106862882Y-114647207D01*
X106862880Y-114647206D01*
X106734700Y-114602353D01*
X106704270Y-114599500D01*
X106704266Y-114599500D01*
X106070734Y-114599500D01*
X106070730Y-114599500D01*
X106040300Y-114602353D01*
X106040298Y-114602353D01*
X105912119Y-114647206D01*
X105912117Y-114647207D01*
X105802850Y-114727850D01*
X105722207Y-114837117D01*
X105722206Y-114837119D01*
X105677353Y-114965298D01*
X105677353Y-114965300D01*
X105674500Y-114995730D01*
X105674500Y-114995734D01*
X105674500Y-116004266D01*
X105674575Y-116005065D01*
X105676095Y-116021272D01*
X105673887Y-116048867D01*
X105675561Y-116049088D01*
X105674500Y-116057148D01*
X105674500Y-124875500D01*
X105654815Y-124942539D01*
X105602011Y-124988294D01*
X105550500Y-124999500D01*
X105505514Y-124999500D01*
X105318881Y-125029059D01*
X105139163Y-125087454D01*
X104970800Y-125173240D01*
X104907614Y-125219148D01*
X104817927Y-125284310D01*
X104817925Y-125284312D01*
X104817924Y-125284312D01*
X104684312Y-125417924D01*
X104684312Y-125417925D01*
X104684310Y-125417927D01*
X104636610Y-125483579D01*
X104573240Y-125570800D01*
X104487454Y-125739163D01*
X104429059Y-125918881D01*
X104399500Y-126105513D01*
X97300500Y-126105513D01*
X97300500Y-109827525D01*
X127249500Y-109827525D01*
X127249500Y-109972475D01*
X127284887Y-110104538D01*
X127287017Y-110112488D01*
X127359488Y-110238011D01*
X127359490Y-110238013D01*
X127359490Y-110238014D01*
X127359493Y-110238017D01*
X127363181Y-110241705D01*
X127396666Y-110303028D01*
X127399500Y-110329386D01*
X127399500Y-114070614D01*
X127379815Y-114137653D01*
X127363181Y-114158295D01*
X127359493Y-114161982D01*
X127359488Y-114161988D01*
X127287017Y-114287511D01*
X127287016Y-114287515D01*
X127249500Y-114427525D01*
X127249500Y-114572475D01*
X127287016Y-114712485D01*
X127287017Y-114712488D01*
X127359488Y-114838011D01*
X127359490Y-114838013D01*
X127359491Y-114838015D01*
X127461985Y-114940509D01*
X127461986Y-114940510D01*
X127461988Y-114940511D01*
X127587511Y-115012982D01*
X127587512Y-115012982D01*
X127587515Y-115012984D01*
X127727525Y-115050500D01*
X127727528Y-115050500D01*
X127872472Y-115050500D01*
X127872475Y-115050500D01*
X128012485Y-115012984D01*
X128138015Y-114940509D01*
X128240509Y-114838015D01*
X128312984Y-114712485D01*
X128350500Y-114572475D01*
X128350500Y-114427525D01*
X128312984Y-114287515D01*
X128286012Y-114240799D01*
X128240511Y-114161988D01*
X128240506Y-114161982D01*
X128236819Y-114158295D01*
X128203334Y-114096972D01*
X128200500Y-114070614D01*
X128200500Y-112978386D01*
X128220185Y-112911347D01*
X128272989Y-112865592D01*
X128342147Y-112855648D01*
X128405703Y-112884673D01*
X128412181Y-112890705D01*
X128461985Y-112940509D01*
X128461986Y-112940510D01*
X128461988Y-112940511D01*
X128587511Y-113012982D01*
X128587512Y-113012982D01*
X128587515Y-113012984D01*
X128727525Y-113050500D01*
X128727528Y-113050500D01*
X128872472Y-113050500D01*
X128872475Y-113050500D01*
X129012485Y-113012984D01*
X129138015Y-112940509D01*
X129240509Y-112838015D01*
X129312984Y-112712485D01*
X129350206Y-112573571D01*
X129386569Y-112513914D01*
X129449416Y-112483385D01*
X129518791Y-112491680D01*
X129557659Y-112517986D01*
X131000137Y-113960465D01*
X131074360Y-114003318D01*
X131157146Y-114025500D01*
X140689084Y-114025500D01*
X140756123Y-114045185D01*
X140801878Y-114097989D01*
X140810701Y-114125308D01*
X140826418Y-114204322D01*
X140826421Y-114204332D01*
X140879221Y-114331804D01*
X140879228Y-114331817D01*
X140955885Y-114446541D01*
X140955888Y-114446545D01*
X141053454Y-114544111D01*
X141053458Y-114544114D01*
X141168182Y-114620771D01*
X141168195Y-114620778D01*
X141286732Y-114669877D01*
X141295672Y-114673580D01*
X141295676Y-114673580D01*
X141295677Y-114673581D01*
X141431004Y-114700500D01*
X141431007Y-114700500D01*
X141568995Y-114700500D01*
X141660041Y-114682389D01*
X141704328Y-114673580D01*
X141831811Y-114620775D01*
X141946542Y-114544114D01*
X142044114Y-114446542D01*
X142120775Y-114331811D01*
X142173580Y-114204328D01*
X142189298Y-114125308D01*
X142200500Y-114068995D01*
X142200500Y-113931004D01*
X142173581Y-113795677D01*
X142173580Y-113795676D01*
X142173580Y-113795672D01*
X142173578Y-113795667D01*
X142134939Y-113702382D01*
X142125500Y-113654930D01*
X142125500Y-105204386D01*
X142145185Y-105137347D01*
X142161819Y-105116705D01*
X142198709Y-105079815D01*
X142240509Y-105038015D01*
X142312984Y-104912485D01*
X142350500Y-104772475D01*
X142350500Y-104627525D01*
X142312984Y-104487515D01*
X142312218Y-104486189D01*
X142240511Y-104361988D01*
X142240510Y-104361986D01*
X142240509Y-104361985D01*
X142138015Y-104259491D01*
X142138013Y-104259490D01*
X142138011Y-104259488D01*
X142012488Y-104187017D01*
X142012489Y-104187017D01*
X142001006Y-104183940D01*
X141872475Y-104149500D01*
X141727525Y-104149500D01*
X141598993Y-104183940D01*
X141587511Y-104187017D01*
X141461988Y-104259488D01*
X141461982Y-104259493D01*
X141359493Y-104361982D01*
X141359488Y-104361988D01*
X141287017Y-104487511D01*
X141287016Y-104487515D01*
X141249500Y-104627525D01*
X141249500Y-104772475D01*
X141281678Y-104892563D01*
X141287017Y-104912488D01*
X141359488Y-105038011D01*
X141359493Y-105038017D01*
X141438181Y-105116705D01*
X141471666Y-105178028D01*
X141474500Y-105204386D01*
X141474500Y-113189084D01*
X141467370Y-113213364D01*
X141464237Y-113238479D01*
X141457692Y-113246323D01*
X141454815Y-113256123D01*
X141435692Y-113272692D01*
X141419477Y-113292129D01*
X141407557Y-113297071D01*
X141402011Y-113301878D01*
X141387652Y-113307388D01*
X141381259Y-113309395D01*
X141295672Y-113326420D01*
X141197311Y-113367162D01*
X141192083Y-113368804D01*
X141182683Y-113368979D01*
X141154931Y-113374500D01*
X131386188Y-113374500D01*
X131319149Y-113354815D01*
X131298507Y-113338181D01*
X130067508Y-112107181D01*
X130034023Y-112045858D01*
X130039007Y-111976166D01*
X130080879Y-111920233D01*
X130146343Y-111895816D01*
X130155189Y-111895500D01*
X131194750Y-111895500D01*
X131194751Y-111895499D01*
X131209568Y-111892552D01*
X131253229Y-111883868D01*
X131253229Y-111883867D01*
X131253231Y-111883867D01*
X131319552Y-111839552D01*
X131338198Y-111811645D01*
X131391809Y-111766842D01*
X131461134Y-111758133D01*
X131510191Y-111777435D01*
X131524879Y-111787249D01*
X131561610Y-111811792D01*
X131561612Y-111811793D01*
X131561616Y-111811795D01*
X131695457Y-111867233D01*
X131695462Y-111867235D01*
X131837555Y-111895499D01*
X131837559Y-111895500D01*
X131837560Y-111895500D01*
X131982441Y-111895500D01*
X131982442Y-111895499D01*
X132124538Y-111867235D01*
X132258390Y-111811792D01*
X132378854Y-111731300D01*
X132481300Y-111628854D01*
X132561792Y-111508390D01*
X132617235Y-111374538D01*
X132645500Y-111232440D01*
X132645500Y-111136530D01*
X132665185Y-111069491D01*
X132717989Y-111023736D01*
X132787147Y-111013792D01*
X132801566Y-111016749D01*
X132927525Y-111050500D01*
X132927529Y-111050500D01*
X133072472Y-111050500D01*
X133072475Y-111050500D01*
X133212485Y-111012984D01*
X133338015Y-110940509D01*
X133440509Y-110838015D01*
X133512984Y-110712485D01*
X133550500Y-110572475D01*
X133550500Y-110427525D01*
X133512984Y-110287515D01*
X133512217Y-110286187D01*
X133440511Y-110161988D01*
X133440510Y-110161987D01*
X133440509Y-110161985D01*
X133361818Y-110083294D01*
X133328334Y-110021970D01*
X133325500Y-109995613D01*
X133325500Y-104057149D01*
X133325500Y-104057147D01*
X133303318Y-103974362D01*
X133295133Y-103960185D01*
X133260469Y-103900144D01*
X133260463Y-103900136D01*
X132799864Y-103439537D01*
X132799862Y-103439535D01*
X132752709Y-103412311D01*
X132725640Y-103396682D01*
X132654090Y-103377511D01*
X132642853Y-103374500D01*
X131242851Y-103374500D01*
X131157145Y-103374500D01*
X131138411Y-103379520D01*
X131117061Y-103385240D01*
X131074359Y-103396682D01*
X131074354Y-103396685D01*
X131000143Y-103439530D01*
X131000135Y-103439536D01*
X130793068Y-103646603D01*
X130793069Y-103646604D01*
X130739533Y-103700140D01*
X130739530Y-103700144D01*
X130696685Y-103774355D01*
X130696682Y-103774362D01*
X130674500Y-103857147D01*
X130674500Y-103951580D01*
X130654815Y-104018619D01*
X130602011Y-104064374D01*
X130573297Y-104072115D01*
X130573535Y-104073311D01*
X130425469Y-104102763D01*
X130425457Y-104102766D01*
X130291616Y-104158204D01*
X130291603Y-104158211D01*
X130171146Y-104238699D01*
X130171142Y-104238702D01*
X130068702Y-104341142D01*
X130068699Y-104341146D01*
X129988211Y-104461603D01*
X129988204Y-104461616D01*
X129932766Y-104595457D01*
X129932763Y-104595469D01*
X129904500Y-104737555D01*
X129904500Y-104882444D01*
X129932763Y-105024530D01*
X129932766Y-105024542D01*
X129988204Y-105158383D01*
X129988211Y-105158396D01*
X130068699Y-105278853D01*
X130068702Y-105278857D01*
X130147164Y-105357319D01*
X130180649Y-105418642D01*
X130175665Y-105488334D01*
X130147164Y-105532681D01*
X130068702Y-105611142D01*
X130068699Y-105611146D01*
X129988211Y-105731603D01*
X129988204Y-105731616D01*
X129932766Y-105865457D01*
X129932764Y-105865466D01*
X129929812Y-105880306D01*
X129897426Y-105942216D01*
X129895876Y-105943794D01*
X128539537Y-107300135D01*
X128539535Y-107300138D01*
X128496681Y-107374361D01*
X128486569Y-107412098D01*
X128486570Y-107412099D01*
X128474500Y-107457144D01*
X128474500Y-109504495D01*
X128454815Y-109571534D01*
X128402011Y-109617289D01*
X128332853Y-109627233D01*
X128269297Y-109598208D01*
X128243114Y-109566496D01*
X128240513Y-109561991D01*
X128240510Y-109561988D01*
X128240509Y-109561985D01*
X128138015Y-109459491D01*
X128138013Y-109459490D01*
X128138011Y-109459488D01*
X128012488Y-109387017D01*
X128012489Y-109387017D01*
X127965256Y-109374361D01*
X127872475Y-109349500D01*
X127727525Y-109349500D01*
X127634744Y-109374361D01*
X127587511Y-109387017D01*
X127461988Y-109459488D01*
X127461982Y-109459493D01*
X127359493Y-109561982D01*
X127359488Y-109561988D01*
X127287017Y-109687511D01*
X127287016Y-109687515D01*
X127249500Y-109827525D01*
X97300500Y-109827525D01*
X97300500Y-103499999D01*
X97900000Y-103499999D01*
X97940349Y-103909687D01*
X98059853Y-104303639D01*
X98253909Y-104666691D01*
X98253913Y-104666698D01*
X98515074Y-104984924D01*
X98833300Y-105246085D01*
X98833307Y-105246089D01*
X99196359Y-105440145D01*
X99196361Y-105440145D01*
X99196364Y-105440147D01*
X99590310Y-105559649D01*
X99590309Y-105559649D01*
X99630660Y-105563623D01*
X100000000Y-105600000D01*
X100409689Y-105559649D01*
X100803635Y-105440147D01*
X100826073Y-105428154D01*
X100976520Y-105347738D01*
X101166697Y-105246086D01*
X101484924Y-104984924D01*
X101746086Y-104666697D01*
X101940147Y-104303635D01*
X102059649Y-103909689D01*
X102100000Y-103500000D01*
X102059649Y-103090310D01*
X101940147Y-102696364D01*
X101940145Y-102696361D01*
X101940145Y-102696359D01*
X101746089Y-102333307D01*
X101746085Y-102333300D01*
X101484924Y-102015074D01*
X101166698Y-101753913D01*
X101166691Y-101753909D01*
X100803639Y-101559853D01*
X100409687Y-101440349D01*
X100000000Y-101400000D01*
X99590311Y-101440349D01*
X99196359Y-101559853D01*
X98833307Y-101753909D01*
X98833300Y-101753913D01*
X98515074Y-102015074D01*
X98253913Y-102333300D01*
X98253909Y-102333307D01*
X98059853Y-102696359D01*
X97940349Y-103090311D01*
X97900000Y-103499999D01*
X97300500Y-103499999D01*
X97300500Y-101516660D01*
X97300882Y-101506939D01*
X97306119Y-101440349D01*
X97309247Y-101400562D01*
X97312300Y-101381300D01*
X97333396Y-101293583D01*
X97339374Y-101275183D01*
X97373866Y-101191829D01*
X97382709Y-101174469D01*
X97429760Y-101097695D01*
X97441181Y-101081975D01*
X97499722Y-101013440D01*
X97513440Y-100999722D01*
X97581975Y-100941181D01*
X97597695Y-100929760D01*
X97674469Y-100882709D01*
X97691829Y-100873866D01*
X97775183Y-100839374D01*
X97793583Y-100833396D01*
X97881300Y-100812300D01*
X97900562Y-100809247D01*
X97982366Y-100802814D01*
X98006940Y-100800882D01*
X98016661Y-100800500D01*
X179983292Y-100800500D01*
X179993037Y-100800883D01*
G37*
%TD.AperFunction*%
%TD*%
M02*
