%TF.GenerationSoftware,KiCad,Pcbnew,9.0.9-9.0.9~ubuntu24.04.1*%
%TF.CreationDate,2026-09-28T11:11:26+00:00*%
%TF.ProjectId,key-board-lh,6b65792d-626f-4617-9264-2d6c682e6b69,A*%
%TF.SameCoordinates,Original*%
%TF.FileFunction,Legend,Top*%
%TF.FilePolarity,Positive*%
%FSLAX46Y46*%
G04 Gerber Fmt 4.6, Leading zero omitted, Abs format (unit mm)*
G04 Created by KiCad (PCBNEW 9.0.9-9.0.9~ubuntu24.04.1) date 2026-09-28 11:11:26*
%MOMM*%
%LPD*%
G01*
G04 APERTURE LIST*
%ADD10C,0.180000*%
%ADD11C,0.390000*%
G04 APERTURE END LIST*
D10*
X98950000Y-122100000D02*
X97750000Y-121500000D01*
X98950000Y-120900000D01*
X98950000Y-122100000D01*
G36*
X98950000Y-122100000D02*
G01*
X97750000Y-121500000D01*
X98950000Y-120900000D01*
X98950000Y-122100000D01*
G37*
X135239999Y-107985000D02*
X134039999Y-108585000D01*
X134039999Y-107385000D01*
X135239999Y-107985000D01*
G36*
X135239999Y-107985000D02*
G01*
X134039999Y-108585000D01*
X134039999Y-107385000D01*
X135239999Y-107985000D01*
G37*
D11*
X129605000Y-111160000D02*
G75*
G02*
X129215000Y-111160000I-195000J0D01*
G01*
X129215000Y-111160000D02*
G75*
G02*
X129605000Y-111160000I195000J0D01*
G01*
D10*
X143261278Y-103453259D02*
X143499373Y-104453259D01*
X143499373Y-104453259D02*
X143689849Y-103738973D01*
X143689849Y-103738973D02*
X143880325Y-104453259D01*
X143880325Y-104453259D02*
X144118421Y-103453259D01*
X144689849Y-103453259D02*
X144880325Y-103453259D01*
X144880325Y-103453259D02*
X144975563Y-103500878D01*
X144975563Y-103500878D02*
X145070801Y-103596116D01*
X145070801Y-103596116D02*
X145118420Y-103786592D01*
X145118420Y-103786592D02*
X145118420Y-104119925D01*
X145118420Y-104119925D02*
X145070801Y-104310401D01*
X145070801Y-104310401D02*
X144975563Y-104405640D01*
X144975563Y-104405640D02*
X144880325Y-104453259D01*
X144880325Y-104453259D02*
X144689849Y-104453259D01*
X144689849Y-104453259D02*
X144594611Y-104405640D01*
X144594611Y-104405640D02*
X144499373Y-104310401D01*
X144499373Y-104310401D02*
X144451754Y-104119925D01*
X144451754Y-104119925D02*
X144451754Y-103786592D01*
X144451754Y-103786592D02*
X144499373Y-103596116D01*
X144499373Y-103596116D02*
X144594611Y-103500878D01*
X144594611Y-103500878D02*
X144689849Y-103453259D01*
X145737468Y-103453259D02*
X145927944Y-103453259D01*
X145927944Y-103453259D02*
X146023182Y-103500878D01*
X146023182Y-103500878D02*
X146118420Y-103596116D01*
X146118420Y-103596116D02*
X146166039Y-103786592D01*
X146166039Y-103786592D02*
X146166039Y-104119925D01*
X146166039Y-104119925D02*
X146118420Y-104310401D01*
X146118420Y-104310401D02*
X146023182Y-104405640D01*
X146023182Y-104405640D02*
X145927944Y-104453259D01*
X145927944Y-104453259D02*
X145737468Y-104453259D01*
X145737468Y-104453259D02*
X145642230Y-104405640D01*
X145642230Y-104405640D02*
X145546992Y-104310401D01*
X145546992Y-104310401D02*
X145499373Y-104119925D01*
X145499373Y-104119925D02*
X145499373Y-103786592D01*
X145499373Y-103786592D02*
X145546992Y-103596116D01*
X145546992Y-103596116D02*
X145642230Y-103500878D01*
X145642230Y-103500878D02*
X145737468Y-103453259D01*
X146594611Y-104453259D02*
X146594611Y-103453259D01*
X146594611Y-103453259D02*
X146832706Y-103453259D01*
X146832706Y-103453259D02*
X146975563Y-103500878D01*
X146975563Y-103500878D02*
X147070801Y-103596116D01*
X147070801Y-103596116D02*
X147118420Y-103691354D01*
X147118420Y-103691354D02*
X147166039Y-103881830D01*
X147166039Y-103881830D02*
X147166039Y-104024687D01*
X147166039Y-104024687D02*
X147118420Y-104215163D01*
X147118420Y-104215163D02*
X147070801Y-104310401D01*
X147070801Y-104310401D02*
X146975563Y-104405640D01*
X146975563Y-104405640D02*
X146832706Y-104453259D01*
X146832706Y-104453259D02*
X146594611Y-104453259D01*
X147785087Y-103977068D02*
X147785087Y-104453259D01*
X147451754Y-103453259D02*
X147785087Y-103977068D01*
X147785087Y-103977068D02*
X148118420Y-103453259D01*
X149213659Y-104453259D02*
X149213659Y-103453259D01*
X149308897Y-104072306D02*
X149594611Y-104453259D01*
X149594611Y-103786592D02*
X149213659Y-104167544D01*
X150404135Y-104405640D02*
X150308897Y-104453259D01*
X150308897Y-104453259D02*
X150118421Y-104453259D01*
X150118421Y-104453259D02*
X150023183Y-104405640D01*
X150023183Y-104405640D02*
X149975564Y-104310401D01*
X149975564Y-104310401D02*
X149975564Y-103929449D01*
X149975564Y-103929449D02*
X150023183Y-103834211D01*
X150023183Y-103834211D02*
X150118421Y-103786592D01*
X150118421Y-103786592D02*
X150308897Y-103786592D01*
X150308897Y-103786592D02*
X150404135Y-103834211D01*
X150404135Y-103834211D02*
X150451754Y-103929449D01*
X150451754Y-103929449D02*
X150451754Y-104024687D01*
X150451754Y-104024687D02*
X149975564Y-104119925D01*
X150785088Y-103786592D02*
X151023183Y-104453259D01*
X151261278Y-103786592D02*
X151023183Y-104453259D01*
X151023183Y-104453259D02*
X150927945Y-104691354D01*
X150927945Y-104691354D02*
X150880326Y-104738973D01*
X150880326Y-104738973D02*
X150785088Y-104786592D01*
X152404136Y-104453259D02*
X152404136Y-103453259D01*
X152404136Y-103834211D02*
X152499374Y-103786592D01*
X152499374Y-103786592D02*
X152689850Y-103786592D01*
X152689850Y-103786592D02*
X152785088Y-103834211D01*
X152785088Y-103834211D02*
X152832707Y-103881830D01*
X152832707Y-103881830D02*
X152880326Y-103977068D01*
X152880326Y-103977068D02*
X152880326Y-104262782D01*
X152880326Y-104262782D02*
X152832707Y-104358020D01*
X152832707Y-104358020D02*
X152785088Y-104405640D01*
X152785088Y-104405640D02*
X152689850Y-104453259D01*
X152689850Y-104453259D02*
X152499374Y-104453259D01*
X152499374Y-104453259D02*
X152404136Y-104405640D01*
X153451755Y-104453259D02*
X153356517Y-104405640D01*
X153356517Y-104405640D02*
X153308898Y-104358020D01*
X153308898Y-104358020D02*
X153261279Y-104262782D01*
X153261279Y-104262782D02*
X153261279Y-103977068D01*
X153261279Y-103977068D02*
X153308898Y-103881830D01*
X153308898Y-103881830D02*
X153356517Y-103834211D01*
X153356517Y-103834211D02*
X153451755Y-103786592D01*
X153451755Y-103786592D02*
X153594612Y-103786592D01*
X153594612Y-103786592D02*
X153689850Y-103834211D01*
X153689850Y-103834211D02*
X153737469Y-103881830D01*
X153737469Y-103881830D02*
X153785088Y-103977068D01*
X153785088Y-103977068D02*
X153785088Y-104262782D01*
X153785088Y-104262782D02*
X153737469Y-104358020D01*
X153737469Y-104358020D02*
X153689850Y-104405640D01*
X153689850Y-104405640D02*
X153594612Y-104453259D01*
X153594612Y-104453259D02*
X153451755Y-104453259D01*
X154642231Y-104453259D02*
X154642231Y-103929449D01*
X154642231Y-103929449D02*
X154594612Y-103834211D01*
X154594612Y-103834211D02*
X154499374Y-103786592D01*
X154499374Y-103786592D02*
X154308898Y-103786592D01*
X154308898Y-103786592D02*
X154213660Y-103834211D01*
X154642231Y-104405640D02*
X154546993Y-104453259D01*
X154546993Y-104453259D02*
X154308898Y-104453259D01*
X154308898Y-104453259D02*
X154213660Y-104405640D01*
X154213660Y-104405640D02*
X154166041Y-104310401D01*
X154166041Y-104310401D02*
X154166041Y-104215163D01*
X154166041Y-104215163D02*
X154213660Y-104119925D01*
X154213660Y-104119925D02*
X154308898Y-104072306D01*
X154308898Y-104072306D02*
X154546993Y-104072306D01*
X154546993Y-104072306D02*
X154642231Y-104024687D01*
X155118422Y-104453259D02*
X155118422Y-103786592D01*
X155118422Y-103977068D02*
X155166041Y-103881830D01*
X155166041Y-103881830D02*
X155213660Y-103834211D01*
X155213660Y-103834211D02*
X155308898Y-103786592D01*
X155308898Y-103786592D02*
X155404136Y-103786592D01*
X156166041Y-104453259D02*
X156166041Y-103453259D01*
X156166041Y-104405640D02*
X156070803Y-104453259D01*
X156070803Y-104453259D02*
X155880327Y-104453259D01*
X155880327Y-104453259D02*
X155785089Y-104405640D01*
X155785089Y-104405640D02*
X155737470Y-104358020D01*
X155737470Y-104358020D02*
X155689851Y-104262782D01*
X155689851Y-104262782D02*
X155689851Y-103977068D01*
X155689851Y-103977068D02*
X155737470Y-103881830D01*
X155737470Y-103881830D02*
X155785089Y-103834211D01*
X155785089Y-103834211D02*
X155880327Y-103786592D01*
X155880327Y-103786592D02*
X156070803Y-103786592D01*
X156070803Y-103786592D02*
X156166041Y-103834211D01*
X157880327Y-104453259D02*
X157404137Y-104453259D01*
X157404137Y-104453259D02*
X157404137Y-103453259D01*
X158213661Y-104453259D02*
X158213661Y-103453259D01*
X158213661Y-103929449D02*
X158785089Y-103929449D01*
X158785089Y-104453259D02*
X158785089Y-103453259D01*
X143356516Y-106253259D02*
X143356516Y-105586592D01*
X143356516Y-105777068D02*
X143404135Y-105681830D01*
X143404135Y-105681830D02*
X143451754Y-105634211D01*
X143451754Y-105634211D02*
X143546992Y-105586592D01*
X143546992Y-105586592D02*
X143642230Y-105586592D01*
X144356516Y-106205640D02*
X144261278Y-106253259D01*
X144261278Y-106253259D02*
X144070802Y-106253259D01*
X144070802Y-106253259D02*
X143975564Y-106205640D01*
X143975564Y-106205640D02*
X143927945Y-106110401D01*
X143927945Y-106110401D02*
X143927945Y-105729449D01*
X143927945Y-105729449D02*
X143975564Y-105634211D01*
X143975564Y-105634211D02*
X144070802Y-105586592D01*
X144070802Y-105586592D02*
X144261278Y-105586592D01*
X144261278Y-105586592D02*
X144356516Y-105634211D01*
X144356516Y-105634211D02*
X144404135Y-105729449D01*
X144404135Y-105729449D02*
X144404135Y-105824687D01*
X144404135Y-105824687D02*
X143927945Y-105919925D01*
X144737469Y-105586592D02*
X144975564Y-106253259D01*
X144975564Y-106253259D02*
X145213659Y-105586592D01*
X146308898Y-105967544D02*
X146785088Y-105967544D01*
X146213660Y-106253259D02*
X146546993Y-105253259D01*
X146546993Y-105253259D02*
X146880326Y-106253259D01*
X148689851Y-105348497D02*
X148737470Y-105300878D01*
X148737470Y-105300878D02*
X148832708Y-105253259D01*
X148832708Y-105253259D02*
X149070803Y-105253259D01*
X149070803Y-105253259D02*
X149166041Y-105300878D01*
X149166041Y-105300878D02*
X149213660Y-105348497D01*
X149213660Y-105348497D02*
X149261279Y-105443735D01*
X149261279Y-105443735D02*
X149261279Y-105538973D01*
X149261279Y-105538973D02*
X149213660Y-105681830D01*
X149213660Y-105681830D02*
X148642232Y-106253259D01*
X148642232Y-106253259D02*
X149261279Y-106253259D01*
X149880327Y-105253259D02*
X149975565Y-105253259D01*
X149975565Y-105253259D02*
X150070803Y-105300878D01*
X150070803Y-105300878D02*
X150118422Y-105348497D01*
X150118422Y-105348497D02*
X150166041Y-105443735D01*
X150166041Y-105443735D02*
X150213660Y-105634211D01*
X150213660Y-105634211D02*
X150213660Y-105872306D01*
X150213660Y-105872306D02*
X150166041Y-106062782D01*
X150166041Y-106062782D02*
X150118422Y-106158020D01*
X150118422Y-106158020D02*
X150070803Y-106205640D01*
X150070803Y-106205640D02*
X149975565Y-106253259D01*
X149975565Y-106253259D02*
X149880327Y-106253259D01*
X149880327Y-106253259D02*
X149785089Y-106205640D01*
X149785089Y-106205640D02*
X149737470Y-106158020D01*
X149737470Y-106158020D02*
X149689851Y-106062782D01*
X149689851Y-106062782D02*
X149642232Y-105872306D01*
X149642232Y-105872306D02*
X149642232Y-105634211D01*
X149642232Y-105634211D02*
X149689851Y-105443735D01*
X149689851Y-105443735D02*
X149737470Y-105348497D01*
X149737470Y-105348497D02*
X149785089Y-105300878D01*
X149785089Y-105300878D02*
X149880327Y-105253259D01*
X150594613Y-105348497D02*
X150642232Y-105300878D01*
X150642232Y-105300878D02*
X150737470Y-105253259D01*
X150737470Y-105253259D02*
X150975565Y-105253259D01*
X150975565Y-105253259D02*
X151070803Y-105300878D01*
X151070803Y-105300878D02*
X151118422Y-105348497D01*
X151118422Y-105348497D02*
X151166041Y-105443735D01*
X151166041Y-105443735D02*
X151166041Y-105538973D01*
X151166041Y-105538973D02*
X151118422Y-105681830D01*
X151118422Y-105681830D02*
X150546994Y-106253259D01*
X150546994Y-106253259D02*
X151166041Y-106253259D01*
X152023184Y-105253259D02*
X151832708Y-105253259D01*
X151832708Y-105253259D02*
X151737470Y-105300878D01*
X151737470Y-105300878D02*
X151689851Y-105348497D01*
X151689851Y-105348497D02*
X151594613Y-105491354D01*
X151594613Y-105491354D02*
X151546994Y-105681830D01*
X151546994Y-105681830D02*
X151546994Y-106062782D01*
X151546994Y-106062782D02*
X151594613Y-106158020D01*
X151594613Y-106158020D02*
X151642232Y-106205640D01*
X151642232Y-106205640D02*
X151737470Y-106253259D01*
X151737470Y-106253259D02*
X151927946Y-106253259D01*
X151927946Y-106253259D02*
X152023184Y-106205640D01*
X152023184Y-106205640D02*
X152070803Y-106158020D01*
X152070803Y-106158020D02*
X152118422Y-106062782D01*
X152118422Y-106062782D02*
X152118422Y-105824687D01*
X152118422Y-105824687D02*
X152070803Y-105729449D01*
X152070803Y-105729449D02*
X152023184Y-105681830D01*
X152023184Y-105681830D02*
X151927946Y-105634211D01*
X151927946Y-105634211D02*
X151737470Y-105634211D01*
X151737470Y-105634211D02*
X151642232Y-105681830D01*
X151642232Y-105681830D02*
X151594613Y-105729449D01*
X151594613Y-105729449D02*
X151546994Y-105824687D01*
X152546994Y-105872306D02*
X153308899Y-105872306D01*
X153975565Y-105253259D02*
X154070803Y-105253259D01*
X154070803Y-105253259D02*
X154166041Y-105300878D01*
X154166041Y-105300878D02*
X154213660Y-105348497D01*
X154213660Y-105348497D02*
X154261279Y-105443735D01*
X154261279Y-105443735D02*
X154308898Y-105634211D01*
X154308898Y-105634211D02*
X154308898Y-105872306D01*
X154308898Y-105872306D02*
X154261279Y-106062782D01*
X154261279Y-106062782D02*
X154213660Y-106158020D01*
X154213660Y-106158020D02*
X154166041Y-106205640D01*
X154166041Y-106205640D02*
X154070803Y-106253259D01*
X154070803Y-106253259D02*
X153975565Y-106253259D01*
X153975565Y-106253259D02*
X153880327Y-106205640D01*
X153880327Y-106205640D02*
X153832708Y-106158020D01*
X153832708Y-106158020D02*
X153785089Y-106062782D01*
X153785089Y-106062782D02*
X153737470Y-105872306D01*
X153737470Y-105872306D02*
X153737470Y-105634211D01*
X153737470Y-105634211D02*
X153785089Y-105443735D01*
X153785089Y-105443735D02*
X153832708Y-105348497D01*
X153832708Y-105348497D02*
X153880327Y-105300878D01*
X153880327Y-105300878D02*
X153975565Y-105253259D01*
X154785089Y-106253259D02*
X154975565Y-106253259D01*
X154975565Y-106253259D02*
X155070803Y-106205640D01*
X155070803Y-106205640D02*
X155118422Y-106158020D01*
X155118422Y-106158020D02*
X155213660Y-106015163D01*
X155213660Y-106015163D02*
X155261279Y-105824687D01*
X155261279Y-105824687D02*
X155261279Y-105443735D01*
X155261279Y-105443735D02*
X155213660Y-105348497D01*
X155213660Y-105348497D02*
X155166041Y-105300878D01*
X155166041Y-105300878D02*
X155070803Y-105253259D01*
X155070803Y-105253259D02*
X154880327Y-105253259D01*
X154880327Y-105253259D02*
X154785089Y-105300878D01*
X154785089Y-105300878D02*
X154737470Y-105348497D01*
X154737470Y-105348497D02*
X154689851Y-105443735D01*
X154689851Y-105443735D02*
X154689851Y-105681830D01*
X154689851Y-105681830D02*
X154737470Y-105777068D01*
X154737470Y-105777068D02*
X154785089Y-105824687D01*
X154785089Y-105824687D02*
X154880327Y-105872306D01*
X154880327Y-105872306D02*
X155070803Y-105872306D01*
X155070803Y-105872306D02*
X155166041Y-105824687D01*
X155166041Y-105824687D02*
X155213660Y-105777068D01*
X155213660Y-105777068D02*
X155261279Y-105681830D01*
X155689851Y-105872306D02*
X156451756Y-105872306D01*
X156880327Y-105348497D02*
X156927946Y-105300878D01*
X156927946Y-105300878D02*
X157023184Y-105253259D01*
X157023184Y-105253259D02*
X157261279Y-105253259D01*
X157261279Y-105253259D02*
X157356517Y-105300878D01*
X157356517Y-105300878D02*
X157404136Y-105348497D01*
X157404136Y-105348497D02*
X157451755Y-105443735D01*
X157451755Y-105443735D02*
X157451755Y-105538973D01*
X157451755Y-105538973D02*
X157404136Y-105681830D01*
X157404136Y-105681830D02*
X156832708Y-106253259D01*
X156832708Y-106253259D02*
X157451755Y-106253259D01*
X157785089Y-105253259D02*
X158451755Y-105253259D01*
X158451755Y-105253259D02*
X158023184Y-106253259D01*
X106880952Y-113360640D02*
X107023809Y-113408259D01*
X107023809Y-113408259D02*
X107261904Y-113408259D01*
X107261904Y-113408259D02*
X107357142Y-113360640D01*
X107357142Y-113360640D02*
X107404761Y-113313020D01*
X107404761Y-113313020D02*
X107452380Y-113217782D01*
X107452380Y-113217782D02*
X107452380Y-113122544D01*
X107452380Y-113122544D02*
X107404761Y-113027306D01*
X107404761Y-113027306D02*
X107357142Y-112979687D01*
X107357142Y-112979687D02*
X107261904Y-112932068D01*
X107261904Y-112932068D02*
X107071428Y-112884449D01*
X107071428Y-112884449D02*
X106976190Y-112836830D01*
X106976190Y-112836830D02*
X106928571Y-112789211D01*
X106928571Y-112789211D02*
X106880952Y-112693973D01*
X106880952Y-112693973D02*
X106880952Y-112598735D01*
X106880952Y-112598735D02*
X106928571Y-112503497D01*
X106928571Y-112503497D02*
X106976190Y-112455878D01*
X106976190Y-112455878D02*
X107071428Y-112408259D01*
X107071428Y-112408259D02*
X107309523Y-112408259D01*
X107309523Y-112408259D02*
X107452380Y-112455878D01*
X107785714Y-112408259D02*
X108023809Y-113408259D01*
X108023809Y-113408259D02*
X108214285Y-112693973D01*
X108214285Y-112693973D02*
X108404761Y-113408259D01*
X108404761Y-113408259D02*
X108642857Y-112408259D01*
X109547618Y-113408259D02*
X108976190Y-113408259D01*
X109261904Y-113408259D02*
X109261904Y-112408259D01*
X109261904Y-112408259D02*
X109166666Y-112551116D01*
X109166666Y-112551116D02*
X109071428Y-112646354D01*
X109071428Y-112646354D02*
X108976190Y-112693973D01*
X111214285Y-113408259D02*
X110738095Y-113408259D01*
X110738095Y-113408259D02*
X110738095Y-112408259D01*
X111547619Y-113408259D02*
X111547619Y-112408259D01*
X111547619Y-112884449D02*
X112119047Y-112884449D01*
X112119047Y-113408259D02*
X112119047Y-112408259D01*
X113119047Y-113408259D02*
X112547619Y-113408259D01*
X112833333Y-113408259D02*
X112833333Y-112408259D01*
X112833333Y-112408259D02*
X112738095Y-112551116D01*
X112738095Y-112551116D02*
X112642857Y-112646354D01*
X112642857Y-112646354D02*
X112547619Y-112693973D01*
X126880952Y-113360640D02*
X127023809Y-113408259D01*
X127023809Y-113408259D02*
X127261904Y-113408259D01*
X127261904Y-113408259D02*
X127357142Y-113360640D01*
X127357142Y-113360640D02*
X127404761Y-113313020D01*
X127404761Y-113313020D02*
X127452380Y-113217782D01*
X127452380Y-113217782D02*
X127452380Y-113122544D01*
X127452380Y-113122544D02*
X127404761Y-113027306D01*
X127404761Y-113027306D02*
X127357142Y-112979687D01*
X127357142Y-112979687D02*
X127261904Y-112932068D01*
X127261904Y-112932068D02*
X127071428Y-112884449D01*
X127071428Y-112884449D02*
X126976190Y-112836830D01*
X126976190Y-112836830D02*
X126928571Y-112789211D01*
X126928571Y-112789211D02*
X126880952Y-112693973D01*
X126880952Y-112693973D02*
X126880952Y-112598735D01*
X126880952Y-112598735D02*
X126928571Y-112503497D01*
X126928571Y-112503497D02*
X126976190Y-112455878D01*
X126976190Y-112455878D02*
X127071428Y-112408259D01*
X127071428Y-112408259D02*
X127309523Y-112408259D01*
X127309523Y-112408259D02*
X127452380Y-112455878D01*
X127785714Y-112408259D02*
X128023809Y-113408259D01*
X128023809Y-113408259D02*
X128214285Y-112693973D01*
X128214285Y-112693973D02*
X128404761Y-113408259D01*
X128404761Y-113408259D02*
X128642857Y-112408259D01*
X128976190Y-112503497D02*
X129023809Y-112455878D01*
X129023809Y-112455878D02*
X129119047Y-112408259D01*
X129119047Y-112408259D02*
X129357142Y-112408259D01*
X129357142Y-112408259D02*
X129452380Y-112455878D01*
X129452380Y-112455878D02*
X129499999Y-112503497D01*
X129499999Y-112503497D02*
X129547618Y-112598735D01*
X129547618Y-112598735D02*
X129547618Y-112693973D01*
X129547618Y-112693973D02*
X129499999Y-112836830D01*
X129499999Y-112836830D02*
X128928571Y-113408259D01*
X128928571Y-113408259D02*
X129547618Y-113408259D01*
X131214285Y-113408259D02*
X130738095Y-113408259D01*
X130738095Y-113408259D02*
X130738095Y-112408259D01*
X131547619Y-113408259D02*
X131547619Y-112408259D01*
X131547619Y-112884449D02*
X132119047Y-112884449D01*
X132119047Y-113408259D02*
X132119047Y-112408259D01*
X132547619Y-112503497D02*
X132595238Y-112455878D01*
X132595238Y-112455878D02*
X132690476Y-112408259D01*
X132690476Y-112408259D02*
X132928571Y-112408259D01*
X132928571Y-112408259D02*
X133023809Y-112455878D01*
X133023809Y-112455878D02*
X133071428Y-112503497D01*
X133071428Y-112503497D02*
X133119047Y-112598735D01*
X133119047Y-112598735D02*
X133119047Y-112693973D01*
X133119047Y-112693973D02*
X133071428Y-112836830D01*
X133071428Y-112836830D02*
X132500000Y-113408259D01*
X132500000Y-113408259D02*
X133119047Y-113408259D01*
X131441666Y-102713259D02*
X131441666Y-103427544D01*
X131441666Y-103427544D02*
X131394047Y-103570401D01*
X131394047Y-103570401D02*
X131298809Y-103665640D01*
X131298809Y-103665640D02*
X131155952Y-103713259D01*
X131155952Y-103713259D02*
X131060714Y-103713259D01*
X132441666Y-103713259D02*
X131870238Y-103713259D01*
X132155952Y-103713259D02*
X132155952Y-102713259D01*
X132155952Y-102713259D02*
X132060714Y-102856116D01*
X132060714Y-102856116D02*
X131965476Y-102951354D01*
X131965476Y-102951354D02*
X131870238Y-102998973D01*
X146880952Y-113360640D02*
X147023809Y-113408259D01*
X147023809Y-113408259D02*
X147261904Y-113408259D01*
X147261904Y-113408259D02*
X147357142Y-113360640D01*
X147357142Y-113360640D02*
X147404761Y-113313020D01*
X147404761Y-113313020D02*
X147452380Y-113217782D01*
X147452380Y-113217782D02*
X147452380Y-113122544D01*
X147452380Y-113122544D02*
X147404761Y-113027306D01*
X147404761Y-113027306D02*
X147357142Y-112979687D01*
X147357142Y-112979687D02*
X147261904Y-112932068D01*
X147261904Y-112932068D02*
X147071428Y-112884449D01*
X147071428Y-112884449D02*
X146976190Y-112836830D01*
X146976190Y-112836830D02*
X146928571Y-112789211D01*
X146928571Y-112789211D02*
X146880952Y-112693973D01*
X146880952Y-112693973D02*
X146880952Y-112598735D01*
X146880952Y-112598735D02*
X146928571Y-112503497D01*
X146928571Y-112503497D02*
X146976190Y-112455878D01*
X146976190Y-112455878D02*
X147071428Y-112408259D01*
X147071428Y-112408259D02*
X147309523Y-112408259D01*
X147309523Y-112408259D02*
X147452380Y-112455878D01*
X147785714Y-112408259D02*
X148023809Y-113408259D01*
X148023809Y-113408259D02*
X148214285Y-112693973D01*
X148214285Y-112693973D02*
X148404761Y-113408259D01*
X148404761Y-113408259D02*
X148642857Y-112408259D01*
X148928571Y-112408259D02*
X149547618Y-112408259D01*
X149547618Y-112408259D02*
X149214285Y-112789211D01*
X149214285Y-112789211D02*
X149357142Y-112789211D01*
X149357142Y-112789211D02*
X149452380Y-112836830D01*
X149452380Y-112836830D02*
X149499999Y-112884449D01*
X149499999Y-112884449D02*
X149547618Y-112979687D01*
X149547618Y-112979687D02*
X149547618Y-113217782D01*
X149547618Y-113217782D02*
X149499999Y-113313020D01*
X149499999Y-113313020D02*
X149452380Y-113360640D01*
X149452380Y-113360640D02*
X149357142Y-113408259D01*
X149357142Y-113408259D02*
X149071428Y-113408259D01*
X149071428Y-113408259D02*
X148976190Y-113360640D01*
X148976190Y-113360640D02*
X148928571Y-113313020D01*
X151214285Y-113408259D02*
X150738095Y-113408259D01*
X150738095Y-113408259D02*
X150738095Y-112408259D01*
X151547619Y-113408259D02*
X151547619Y-112408259D01*
X151547619Y-112884449D02*
X152119047Y-112884449D01*
X152119047Y-113408259D02*
X152119047Y-112408259D01*
X152500000Y-112408259D02*
X153119047Y-112408259D01*
X153119047Y-112408259D02*
X152785714Y-112789211D01*
X152785714Y-112789211D02*
X152928571Y-112789211D01*
X152928571Y-112789211D02*
X153023809Y-112836830D01*
X153023809Y-112836830D02*
X153071428Y-112884449D01*
X153071428Y-112884449D02*
X153119047Y-112979687D01*
X153119047Y-112979687D02*
X153119047Y-113217782D01*
X153119047Y-113217782D02*
X153071428Y-113313020D01*
X153071428Y-113313020D02*
X153023809Y-113360640D01*
X153023809Y-113360640D02*
X152928571Y-113408259D01*
X152928571Y-113408259D02*
X152642857Y-113408259D01*
X152642857Y-113408259D02*
X152547619Y-113360640D01*
X152547619Y-113360640D02*
X152500000Y-113313020D01*
X164880952Y-104360640D02*
X165023809Y-104408259D01*
X165023809Y-104408259D02*
X165261904Y-104408259D01*
X165261904Y-104408259D02*
X165357142Y-104360640D01*
X165357142Y-104360640D02*
X165404761Y-104313020D01*
X165404761Y-104313020D02*
X165452380Y-104217782D01*
X165452380Y-104217782D02*
X165452380Y-104122544D01*
X165452380Y-104122544D02*
X165404761Y-104027306D01*
X165404761Y-104027306D02*
X165357142Y-103979687D01*
X165357142Y-103979687D02*
X165261904Y-103932068D01*
X165261904Y-103932068D02*
X165071428Y-103884449D01*
X165071428Y-103884449D02*
X164976190Y-103836830D01*
X164976190Y-103836830D02*
X164928571Y-103789211D01*
X164928571Y-103789211D02*
X164880952Y-103693973D01*
X164880952Y-103693973D02*
X164880952Y-103598735D01*
X164880952Y-103598735D02*
X164928571Y-103503497D01*
X164928571Y-103503497D02*
X164976190Y-103455878D01*
X164976190Y-103455878D02*
X165071428Y-103408259D01*
X165071428Y-103408259D02*
X165309523Y-103408259D01*
X165309523Y-103408259D02*
X165452380Y-103455878D01*
X165785714Y-103408259D02*
X166023809Y-104408259D01*
X166023809Y-104408259D02*
X166214285Y-103693973D01*
X166214285Y-103693973D02*
X166404761Y-104408259D01*
X166404761Y-104408259D02*
X166642857Y-103408259D01*
X167499999Y-103408259D02*
X167023809Y-103408259D01*
X167023809Y-103408259D02*
X166976190Y-103884449D01*
X166976190Y-103884449D02*
X167023809Y-103836830D01*
X167023809Y-103836830D02*
X167119047Y-103789211D01*
X167119047Y-103789211D02*
X167357142Y-103789211D01*
X167357142Y-103789211D02*
X167452380Y-103836830D01*
X167452380Y-103836830D02*
X167499999Y-103884449D01*
X167499999Y-103884449D02*
X167547618Y-103979687D01*
X167547618Y-103979687D02*
X167547618Y-104217782D01*
X167547618Y-104217782D02*
X167499999Y-104313020D01*
X167499999Y-104313020D02*
X167452380Y-104360640D01*
X167452380Y-104360640D02*
X167357142Y-104408259D01*
X167357142Y-104408259D02*
X167119047Y-104408259D01*
X167119047Y-104408259D02*
X167023809Y-104360640D01*
X167023809Y-104360640D02*
X166976190Y-104313020D01*
X169214285Y-104408259D02*
X168738095Y-104408259D01*
X168738095Y-104408259D02*
X168738095Y-103408259D01*
X169547619Y-104408259D02*
X169547619Y-103408259D01*
X169547619Y-103884449D02*
X170119047Y-103884449D01*
X170119047Y-104408259D02*
X170119047Y-103408259D01*
X171071428Y-103408259D02*
X170595238Y-103408259D01*
X170595238Y-103408259D02*
X170547619Y-103884449D01*
X170547619Y-103884449D02*
X170595238Y-103836830D01*
X170595238Y-103836830D02*
X170690476Y-103789211D01*
X170690476Y-103789211D02*
X170928571Y-103789211D01*
X170928571Y-103789211D02*
X171023809Y-103836830D01*
X171023809Y-103836830D02*
X171071428Y-103884449D01*
X171071428Y-103884449D02*
X171119047Y-103979687D01*
X171119047Y-103979687D02*
X171119047Y-104217782D01*
X171119047Y-104217782D02*
X171071428Y-104313020D01*
X171071428Y-104313020D02*
X171023809Y-104360640D01*
X171023809Y-104360640D02*
X170928571Y-104408259D01*
X170928571Y-104408259D02*
X170690476Y-104408259D01*
X170690476Y-104408259D02*
X170595238Y-104360640D01*
X170595238Y-104360640D02*
X170547619Y-104313020D01*
X164880952Y-122360640D02*
X165023809Y-122408259D01*
X165023809Y-122408259D02*
X165261904Y-122408259D01*
X165261904Y-122408259D02*
X165357142Y-122360640D01*
X165357142Y-122360640D02*
X165404761Y-122313020D01*
X165404761Y-122313020D02*
X165452380Y-122217782D01*
X165452380Y-122217782D02*
X165452380Y-122122544D01*
X165452380Y-122122544D02*
X165404761Y-122027306D01*
X165404761Y-122027306D02*
X165357142Y-121979687D01*
X165357142Y-121979687D02*
X165261904Y-121932068D01*
X165261904Y-121932068D02*
X165071428Y-121884449D01*
X165071428Y-121884449D02*
X164976190Y-121836830D01*
X164976190Y-121836830D02*
X164928571Y-121789211D01*
X164928571Y-121789211D02*
X164880952Y-121693973D01*
X164880952Y-121693973D02*
X164880952Y-121598735D01*
X164880952Y-121598735D02*
X164928571Y-121503497D01*
X164928571Y-121503497D02*
X164976190Y-121455878D01*
X164976190Y-121455878D02*
X165071428Y-121408259D01*
X165071428Y-121408259D02*
X165309523Y-121408259D01*
X165309523Y-121408259D02*
X165452380Y-121455878D01*
X165785714Y-121408259D02*
X166023809Y-122408259D01*
X166023809Y-122408259D02*
X166214285Y-121693973D01*
X166214285Y-121693973D02*
X166404761Y-122408259D01*
X166404761Y-122408259D02*
X166642857Y-121408259D01*
X167452380Y-121741592D02*
X167452380Y-122408259D01*
X167214285Y-121360640D02*
X166976190Y-122074925D01*
X166976190Y-122074925D02*
X167595237Y-122074925D01*
X169214285Y-122408259D02*
X168738095Y-122408259D01*
X168738095Y-122408259D02*
X168738095Y-121408259D01*
X169547619Y-122408259D02*
X169547619Y-121408259D01*
X169547619Y-121884449D02*
X170119047Y-121884449D01*
X170119047Y-122408259D02*
X170119047Y-121408259D01*
X171023809Y-121741592D02*
X171023809Y-122408259D01*
X170785714Y-121360640D02*
X170547619Y-122074925D01*
X170547619Y-122074925D02*
X171166666Y-122074925D01*
X100503259Y-123785713D02*
X99503259Y-123785713D01*
X99503259Y-123785713D02*
X100217544Y-123452380D01*
X100217544Y-123452380D02*
X99503259Y-123119047D01*
X99503259Y-123119047D02*
X100503259Y-123119047D01*
X99503259Y-122452380D02*
X99503259Y-122261904D01*
X99503259Y-122261904D02*
X99550878Y-122166666D01*
X99550878Y-122166666D02*
X99646116Y-122071428D01*
X99646116Y-122071428D02*
X99836592Y-122023809D01*
X99836592Y-122023809D02*
X100169925Y-122023809D01*
X100169925Y-122023809D02*
X100360401Y-122071428D01*
X100360401Y-122071428D02*
X100455640Y-122166666D01*
X100455640Y-122166666D02*
X100503259Y-122261904D01*
X100503259Y-122261904D02*
X100503259Y-122452380D01*
X100503259Y-122452380D02*
X100455640Y-122547618D01*
X100455640Y-122547618D02*
X100360401Y-122642856D01*
X100360401Y-122642856D02*
X100169925Y-122690475D01*
X100169925Y-122690475D02*
X99836592Y-122690475D01*
X99836592Y-122690475D02*
X99646116Y-122642856D01*
X99646116Y-122642856D02*
X99550878Y-122547618D01*
X99550878Y-122547618D02*
X99503259Y-122452380D01*
X99503259Y-121595237D02*
X100312782Y-121595237D01*
X100312782Y-121595237D02*
X100408020Y-121547618D01*
X100408020Y-121547618D02*
X100455640Y-121499999D01*
X100455640Y-121499999D02*
X100503259Y-121404761D01*
X100503259Y-121404761D02*
X100503259Y-121214285D01*
X100503259Y-121214285D02*
X100455640Y-121119047D01*
X100455640Y-121119047D02*
X100408020Y-121071428D01*
X100408020Y-121071428D02*
X100312782Y-121023809D01*
X100312782Y-121023809D02*
X99503259Y-121023809D01*
X99503259Y-120690475D02*
X99503259Y-120119047D01*
X100503259Y-120404761D02*
X99503259Y-120404761D01*
X100503259Y-119785713D02*
X99503259Y-119785713D01*
X99979449Y-119785713D02*
X99979449Y-119214285D01*
X100503259Y-119214285D02*
X99503259Y-119214285D01*
M02*
