M48
; DRILL file {KiCad 9.0.9-9.0.9~ubuntu24.04.1} date 2026-09-29T16:27:34+0000
; FORMAT={-:-/ absolute / metric / decimal}
; #@! TF.CreationDate,2026-09-29T16:27:34+00:00
; #@! TF.GenerationSoftware,Kicad,Pcbnew,9.0.9-9.0.9~ubuntu24.04.1
; #@! TF.FileFunction,Plated,1,2,PTH
FMAT,2
METRIC
; #@! TA.AperFunction,Plated,PTH,ViaDrill
T1C0.300
; #@! TA.AperFunction,Plated,PTH,ComponentDrill
T2C0.700
; #@! TA.AperFunction,Plated,PTH,ComponentDrill
T3C1.300
; #@! TA.AperFunction,Plated,PTH,ComponentDrill
T4C2.700
%
G90
G05
T1
X98.0Y-106.3
X99.0Y-107.1
X118.6Y-125.5
X120.6Y-115.9
X123.2Y-116.9
X129.0Y-115.9
X134.6Y-104.1
X138.6Y-125.5
X140.6Y-115.9
X143.2Y-103.1
X143.4Y-112.3
X146.4Y-110.5
X146.6Y-107.5
X147.8Y-116.9
X150.2Y-118.1
X151.2Y-117.5
X151.4Y-101.7
X152.6Y-107.3
X153.0Y-119.9
X153.6Y-105.7
X154.6Y-106.1
X155.0Y-118.9
X155.8Y-103.1
X158.0Y-117.5
X158.6Y-125.5
X160.2Y-108.9
X160.2Y-115.9
X171.4Y-107.3
X173.0Y-110.3
X176.0Y-119.9
X176.6Y-108.9
X176.6Y-116.5
X176.8Y-134.7
T2
X130.64Y-104.81
X130.64Y-106.08
X130.64Y-107.35
X130.64Y-108.62
X130.64Y-109.89
X130.64Y-111.16
X131.91Y-104.81
X131.91Y-106.08
X131.91Y-107.35
X131.91Y-108.62
X131.91Y-109.89
X131.91Y-111.16
T3
X105.6Y-126.2
X112.6Y-127.25
X125.6Y-126.2
X132.6Y-127.25
X145.6Y-126.2
X152.6Y-127.25
X163.6Y-117.2
X163.6Y-135.2
X170.6Y-118.25
X170.6Y-136.25
T4
X100.6Y-104.1
M30
