M48
; DRILL file {KiCad 9.0.9-9.0.9~ubuntu24.04.1} date 2026-09-27T13:27:18+0000
; FORMAT={-:-/ absolute / metric / decimal}
; #@! TF.CreationDate,2026-09-27T13:27:18+00:00
; #@! TF.GenerationSoftware,Kicad,Pcbnew,9.0.9-9.0.9~ubuntu24.04.1
; #@! TF.FileFunction,MixedPlating,1,2
FMAT,2
METRIC
; #@! TA.AperFunction,Plated,PTH,ViaDrill
T1C0.300
; #@! TA.AperFunction,Plated,PTH,ComponentDrill
T2C0.650
; #@! TA.AperFunction,Plated,PTH,ComponentDrill
T3C1.200
; #@! TA.AperFunction,NonPlated,NPTH,ComponentDrill
T4C2.200
; #@! TA.AperFunction,NonPlated,NPTH,ComponentDrill
T5C5.250
%
G90
G05
T1
X106.8Y-118.7
X107.6Y-115.5
X113.4Y-116.1
X115.2Y-112.3
X127.2Y-131.9
X127.6Y-132.7
X134.4Y-116.1
X137.8Y-109.1
X141.0Y-106.1
X143.2Y-107.7
X144.2Y-110.1
X145.0Y-111.1
X145.0Y-112.3
X146.0Y-103.7
X146.6Y-115.1
X146.8Y-118.7
X147.2Y-102.9
X147.6Y-115.5
X150.0Y-103.9
X151.0Y-102.5
X151.2Y-105.7
X152.8Y-115.1
X153.4Y-102.5
X153.6Y-109.1
X154.8Y-103.9
X154.8Y-107.7
X157.6Y-102.5
X157.6Y-104.7
X161.2Y-105.7
X161.6Y-121.1
X162.0Y-106.1
X162.4Y-122.9
X163.2Y-123.3
X167.2Y-105.5
X168.8Y-122.5
X170.6Y-124.5
T2
X131.9Y-104.81
X131.9Y-106.08
X131.9Y-107.35
X131.9Y-108.62
X131.9Y-109.89
X131.9Y-111.16
X133.17Y-104.81
X133.17Y-106.08
X133.17Y-107.35
X133.17Y-108.62
X133.17Y-109.89
X133.17Y-111.16
T3
X105.6Y-126.2
X112.6Y-127.25
X125.6Y-126.2
X132.6Y-127.25
X145.6Y-126.2
X152.6Y-127.25
X163.6Y-117.2
X163.6Y-135.2
X170.6Y-118.25
X170.6Y-136.25
T4
X100.5Y-104.0
X100.5Y-139.0
X177.5Y-104.0
X177.5Y-139.0
T5
X110.0Y-121.5
X130.0Y-121.5
X150.0Y-121.5
X168.0Y-112.5
X168.0Y-130.5
M30
