%TF.GenerationSoftware,KiCad,Pcbnew,9.0.9-9.0.9~ubuntu24.04.1*%
%TF.CreationDate,2026-09-27T13:27:18+00:00*%
%TF.ProjectId,key-board-lh,6b65792d-626f-4617-9264-2d6c682e6b69,rev?*%
%TF.SameCoordinates,Original*%
%TF.FileFunction,Legend,Bot*%
%TF.FilePolarity,Positive*%
%FSLAX46Y46*%
G04 Gerber Fmt 4.6, Leading zero omitted, Abs format (unit mm)*
G04 Created by KiCad (PCBNEW 9.0.9-9.0.9~ubuntu24.04.1) date 2026-09-27 13:27:18*
%MOMM*%
%LPD*%
G01*
G04 APERTURE LIST*
%ADD10C,0.120000*%
G04 APERTURE END LIST*
D10*
%TO.C,U-KEYS-LH*%
X145440000Y-103440000D02*
X145440000Y-107560000D01*
X145440000Y-107560000D02*
X145495000Y-107560000D01*
X145495000Y-103440000D02*
X145440000Y-103440000D01*
X155505000Y-107560000D02*
X155560000Y-107560000D01*
X155560000Y-103440000D02*
X155505000Y-103440000D01*
X155560000Y-107560000D02*
X155560000Y-103440000D01*
X155840000Y-108340000D02*
X155510000Y-108100000D01*
X155840000Y-107860000D01*
X155840000Y-108340000D01*
G36*
X155840000Y-108340000D02*
G01*
X155510000Y-108100000D01*
X155840000Y-107860000D01*
X155840000Y-108340000D01*
G37*
%TO.C,C-KEY-LH5*%
X160238748Y-105265000D02*
X160761252Y-105265000D01*
X160238748Y-106735000D02*
X160761252Y-106735000D01*
%TO.C,C-DECOUPLE-165-LH*%
X156265000Y-103761252D02*
X156265000Y-103238748D01*
X157735000Y-103761252D02*
X157735000Y-103238748D01*
%TO.C,C-KEY-LH3*%
X145738748Y-114765000D02*
X146261252Y-114765000D01*
X145738748Y-116235000D02*
X146261252Y-116235000D01*
%TO.C,R-KEY-PU-LH1*%
X113772936Y-114765000D02*
X114227064Y-114765000D01*
X113772936Y-116235000D02*
X114227064Y-116235000D01*
%TO.C,R-KEY-PU-LH4*%
X169772936Y-122265000D02*
X170227064Y-122265000D01*
X169772936Y-123735000D02*
X170227064Y-123735000D01*
%TO.C,R-KEY-PU-LH5*%
X168272936Y-105265000D02*
X168727064Y-105265000D01*
X168272936Y-106735000D02*
X168727064Y-106735000D01*
%TO.C,R-KEY-SER-LH2*%
X129772936Y-131765000D02*
X130227064Y-131765000D01*
X129772936Y-133235000D02*
X130227064Y-133235000D01*
%TO.C,R-KEY-SER-LH4*%
X165772936Y-122265000D02*
X166227064Y-122265000D01*
X165772936Y-123735000D02*
X166227064Y-123735000D01*
%TO.C,R-KEY-SER-LH5*%
X164272936Y-105265000D02*
X164727064Y-105265000D01*
X164272936Y-106735000D02*
X164727064Y-106735000D01*
%TO.C,C-KEY-LH2*%
X125738748Y-131765000D02*
X126261252Y-131765000D01*
X125738748Y-133235000D02*
X126261252Y-133235000D01*
%TO.C,R-KEY-PU-FREE3*%
X143265000Y-105727064D02*
X143265000Y-105272936D01*
X144735000Y-105727064D02*
X144735000Y-105272936D01*
%TO.C,R-KEY-PU-LH2*%
X133772936Y-131765000D02*
X134227064Y-131765000D01*
X133772936Y-133235000D02*
X134227064Y-133235000D01*
%TO.C,C-KEY-LH4*%
X161738748Y-122265000D02*
X162261252Y-122265000D01*
X161738748Y-123735000D02*
X162261252Y-123735000D01*
%TO.C,R-KEY-PU-LH3*%
X153772936Y-114765000D02*
X154227064Y-114765000D01*
X153772936Y-116235000D02*
X154227064Y-116235000D01*
%TO.C,R-KEY-SER-LH1*%
X109772936Y-114765000D02*
X110227064Y-114765000D01*
X109772936Y-116235000D02*
X110227064Y-116235000D01*
%TO.C,R-KEY-SER-LH3*%
X149772936Y-114765000D02*
X150227064Y-114765000D01*
X149772936Y-116235000D02*
X150227064Y-116235000D01*
%TO.C,C-KEY-LH1*%
X105738748Y-114765000D02*
X106261252Y-114765000D01*
X105738748Y-116235000D02*
X106261252Y-116235000D01*
%TO.C,J-CHAIN*%
X133900000Y-115090000D02*
X139120000Y-115090000D01*
X139120000Y-100880000D01*
X133900000Y-100880000D01*
X133900000Y-115090000D01*
%TD*%
M02*
