%TF.GenerationSoftware,KiCad,Pcbnew,9.0.9-9.0.9~ubuntu24.04.1*%
%TF.CreationDate,2026-09-27T14:39:15+00:00*%
%TF.ProjectId,key-board-lh,6b65792d-626f-4617-9264-2d6c682e6b69,rev?*%
%TF.SameCoordinates,Original*%
%TF.FileFunction,Soldermask,Bot*%
%TF.FilePolarity,Negative*%
%FSLAX46Y46*%
G04 Gerber Fmt 4.6, Leading zero omitted, Abs format (unit mm)*
G04 Created by KiCad (PCBNEW 9.0.9-9.0.9~ubuntu24.04.1) date 2026-09-27 14:39:15*
%MOMM*%
%LPD*%
G01*
G04 APERTURE LIST*
G04 Aperture macros list*
%AMRoundRect*
0 Rectangle with rounded corners*
0 $1 Rounding radius*
0 $2 $3 $4 $5 $6 $7 $8 $9 X,Y pos of 4 corners*
0 Add a 4 corners polygon primitive as box body*
4,1,4,$2,$3,$4,$5,$6,$7,$8,$9,$2,$3,0*
0 Add four circle primitives for the rounded corners*
1,1,$1+$1,$2,$3*
1,1,$1+$1,$4,$5*
1,1,$1+$1,$6,$7*
1,1,$1+$1,$8,$9*
0 Add four rect primitives between the rounded corners*
20,1,$1+$1,$2,$3,$4,$5,0*
20,1,$1+$1,$4,$5,$6,$7,0*
20,1,$1+$1,$6,$7,$8,$9,0*
20,1,$1+$1,$8,$9,$2,$3,0*%
G04 Aperture macros list end*
%ADD10C,5.250000*%
%ADD11C,2.000000*%
%ADD12C,1.000000*%
%ADD13RoundRect,0.250000X-0.262500X-0.450000X0.262500X-0.450000X0.262500X0.450000X-0.262500X0.450000X0*%
%ADD14RoundRect,0.250000X-0.250000X-0.475000X0.250000X-0.475000X0.250000X0.475000X-0.250000X0.475000X0*%
%ADD15RoundRect,0.250000X0.475000X-0.250000X0.475000X0.250000X-0.475000X0.250000X-0.475000X-0.250000X0*%
%ADD16RoundRect,0.150000X0.150000X-0.825000X0.150000X0.825000X-0.150000X0.825000X-0.150000X-0.825000X0*%
%ADD17C,2.200000*%
%ADD18RoundRect,0.250000X0.450000X-0.262500X0.450000X0.262500X-0.450000X0.262500X-0.450000X-0.262500X0*%
%ADD19R,1.050000X1.050000*%
%ADD20C,1.050000*%
G04 APERTURE END LIST*
D10*
%TO.C,SW-LH2*%
X130000000Y-121500000D03*
D11*
X125600000Y-126200000D03*
X132600000Y-127250000D03*
%TD*%
D10*
%TO.C,SW-LH1*%
X110000000Y-121500000D03*
D11*
X105600000Y-126200000D03*
X112600000Y-127250000D03*
%TD*%
D10*
%TO.C,SW-LH4*%
X168000000Y-130500000D03*
D11*
X163600000Y-135200000D03*
X170600000Y-136250000D03*
%TD*%
D10*
%TO.C,SW-LH5*%
X168000000Y-112500000D03*
D11*
X163600000Y-117200000D03*
X170600000Y-118250000D03*
%TD*%
D10*
%TO.C,SW-LH3*%
X150000000Y-121500000D03*
D11*
X145600000Y-126200000D03*
X152600000Y-127250000D03*
%TD*%
D12*
%TO.C,TP-SCK-LH*%
X152000000Y-112500000D03*
%TD*%
D13*
%TO.C,R-KEY-SER-LH4*%
X165087500Y-123000000D03*
X166912500Y-123000000D03*
%TD*%
%TO.C,R-KEY-SER-LH2*%
X129087500Y-132500000D03*
X130912500Y-132500000D03*
%TD*%
%TO.C,R-KEY-PU-LH1*%
X113087500Y-115500000D03*
X114912500Y-115500000D03*
%TD*%
D14*
%TO.C,C-KEY-LH4*%
X161050000Y-123000000D03*
X162950000Y-123000000D03*
%TD*%
%TO.C,C-KEY-LH5*%
X159550000Y-106000000D03*
X161450000Y-106000000D03*
%TD*%
%TO.C,C-KEY-LH2*%
X125050000Y-132500000D03*
X126950000Y-132500000D03*
%TD*%
%TO.C,C-KEY-LH3*%
X145050000Y-132500000D03*
X146950000Y-132500000D03*
%TD*%
D13*
%TO.C,R-KEY-SER-LH1*%
X109087500Y-115500000D03*
X110912500Y-115500000D03*
%TD*%
D15*
%TO.C,C-DECOUPLE-165-LH*%
X157000000Y-104450000D03*
X157000000Y-102550000D03*
%TD*%
D12*
%TO.C,TP-SHLD-LH*%
X155500000Y-112500000D03*
%TD*%
D16*
%TO.C,U-KEYS-LH*%
X154945000Y-107975000D03*
X153675000Y-107975000D03*
X152405000Y-107975000D03*
X151135000Y-107975000D03*
X149865000Y-107975000D03*
X148595000Y-107975000D03*
X147325000Y-107975000D03*
X146055000Y-107975000D03*
X146055000Y-103025000D03*
X147325000Y-103025000D03*
X148595000Y-103025000D03*
X149865000Y-103025000D03*
X151135000Y-103025000D03*
X152405000Y-103025000D03*
X153675000Y-103025000D03*
X154945000Y-103025000D03*
%TD*%
D13*
%TO.C,R-KEY-PU-LH3*%
X153087500Y-132500000D03*
X154912500Y-132500000D03*
%TD*%
D12*
%TO.C,TP-GND-LH*%
X148500000Y-112500000D03*
%TD*%
D13*
%TO.C,R-KEY-SER-LH3*%
X149087500Y-132500000D03*
X150912500Y-132500000D03*
%TD*%
D17*
%TO.C,H4*%
X177500000Y-104000000D03*
%TD*%
D18*
%TO.C,R-KEY-PU-FREE3*%
X144000000Y-106412500D03*
X144000000Y-104587500D03*
%TD*%
D17*
%TO.C,H2*%
X100500000Y-104000000D03*
%TD*%
D12*
%TO.C,TP-QH-LH*%
X159000000Y-112500000D03*
%TD*%
D17*
%TO.C,H1*%
X100500000Y-139000000D03*
%TD*%
D13*
%TO.C,R-KEY-SER-LH5*%
X163587500Y-106000000D03*
X165412500Y-106000000D03*
%TD*%
D14*
%TO.C,C-KEY-LH1*%
X105050000Y-115500000D03*
X106950000Y-115500000D03*
%TD*%
D13*
%TO.C,R-KEY-PU-LH5*%
X167587500Y-106000000D03*
X169412500Y-106000000D03*
%TD*%
D17*
%TO.C,H3*%
X177500000Y-139000000D03*
%TD*%
D19*
%TO.C,J-CHAIN*%
X131140000Y-111160000D03*
D20*
X132410000Y-111160000D03*
X131140000Y-109890000D03*
X132410000Y-109890000D03*
X131140000Y-108620000D03*
X132410000Y-108620000D03*
X131140000Y-107350000D03*
X132410000Y-107350000D03*
X131140000Y-106080000D03*
X132410000Y-106080000D03*
X131140000Y-104810000D03*
X132410000Y-104810000D03*
%TD*%
D13*
%TO.C,R-KEY-PU-LH2*%
X133087500Y-132500000D03*
X134912500Y-132500000D03*
%TD*%
%TO.C,R-KEY-PU-LH4*%
X169087500Y-123000000D03*
X170912500Y-123000000D03*
%TD*%
D12*
%TO.C,TP-3V3-LH*%
X145000000Y-112500000D03*
%TD*%
M02*
