%TF.GenerationSoftware,KiCad,Pcbnew,9.0.9-9.0.9~ubuntu24.04.1*%
%TF.CreationDate,2026-09-27T02:31:35+00:00*%
%TF.ProjectId,key-board-lh,6b65792d-626f-4617-9264-2d6c682e6b69,rev?*%
%TF.SameCoordinates,Original*%
%TF.FileFunction,Legend,Bot*%
%TF.FilePolarity,Positive*%
%FSLAX46Y46*%
G04 Gerber Fmt 4.6, Leading zero omitted, Abs format (unit mm)*
G04 Created by KiCad (PCBNEW 9.0.9-9.0.9~ubuntu24.04.1) date 2026-09-27 02:31:35*
%MOMM*%
%LPD*%
G01*
G04 APERTURE LIST*
%ADD10C,0.120000*%
G04 APERTURE END LIST*
D10*
%TO.C,R-KEY-SER-LH2*%
X125772936Y-129464999D02*
X126227064Y-129464999D01*
X125772936Y-130934999D02*
X126227064Y-130934999D01*
%TO.C,C-KEY-LH5*%
X163738748Y-105765000D02*
X164261252Y-105765000D01*
X163738748Y-107235000D02*
X164261252Y-107235000D01*
%TO.C,R-KEY-SER-LH4*%
X167772936Y-123765000D02*
X168227064Y-123765000D01*
X167772936Y-125235000D02*
X168227064Y-125235000D01*
%TO.C,C-DECOUPLE-165-LH*%
X144538748Y-121465000D02*
X145061252Y-121465000D01*
X144538748Y-122935000D02*
X145061252Y-122935000D01*
%TO.C,R-KEY-PU-LH4*%
X171772936Y-123765000D02*
X172227064Y-123765000D01*
X171772936Y-125235000D02*
X172227064Y-125235000D01*
%TO.C,R-KEY-PU-LH5*%
X171772936Y-105765000D02*
X172227064Y-105765000D01*
X171772936Y-107235000D02*
X172227064Y-107235000D01*
%TO.C,R-KEY-PU-FREE3*%
X133765000Y-121727064D02*
X133765000Y-121272936D01*
X135235000Y-121727064D02*
X135235000Y-121272936D01*
%TO.C,R-KEY-SER-LH5*%
X167772936Y-105765000D02*
X168227064Y-105765000D01*
X167772936Y-107235000D02*
X168227064Y-107235000D01*
%TO.C,C-KEY-LH1*%
X105738748Y-114765000D02*
X106261252Y-114765000D01*
X105738748Y-116235000D02*
X106261252Y-116235000D01*
%TO.C,C-KEY-LH3*%
X145738748Y-114765000D02*
X146261252Y-114765000D01*
X145738748Y-116235000D02*
X146261252Y-116235000D01*
%TO.C,U-KEYS-LH*%
X134040000Y-125640000D02*
X134040000Y-129760000D01*
X134040000Y-129760000D02*
X134095000Y-129760000D01*
X134095000Y-125640000D02*
X134040000Y-125640000D01*
X144105000Y-129760000D02*
X144160000Y-129760000D01*
X144160000Y-125640000D02*
X144105000Y-125640000D01*
X144160000Y-129760000D02*
X144160000Y-125640000D01*
X144440000Y-130540000D02*
X144110000Y-130300000D01*
X144440000Y-130060000D01*
X144440000Y-130540000D01*
G36*
X144440000Y-130540000D02*
G01*
X144110000Y-130300000D01*
X144440000Y-130060000D01*
X144440000Y-130540000D01*
G37*
%TO.C,R-KEY-SER-LH3*%
X149772936Y-114765000D02*
X150227064Y-114765000D01*
X149772936Y-116235000D02*
X150227064Y-116235000D01*
%TO.C,C-KEY-LH4*%
X163738748Y-123765000D02*
X164261252Y-123765000D01*
X163738748Y-125235000D02*
X164261252Y-125235000D01*
%TO.C,R-KEY-SER-LH1*%
X109772936Y-114765000D02*
X110227064Y-114765000D01*
X109772936Y-116235000D02*
X110227064Y-116235000D01*
%TO.C,J-CHAIN*%
X121290000Y-112740000D02*
X122090000Y-112740000D01*
X121290000Y-113040000D02*
X121290000Y-112740000D01*
X121290000Y-116910000D02*
X121290000Y-114860000D01*
X122060000Y-116560000D02*
X122060000Y-116910000D01*
X122060000Y-116910000D02*
X121290000Y-116910000D01*
X122090000Y-111440000D02*
X137910000Y-111440000D01*
X122090000Y-112740000D02*
X122090000Y-111440000D01*
X124040000Y-116560000D02*
X122060000Y-116560000D01*
X124040000Y-117150000D02*
X124040000Y-116560000D01*
X137910000Y-111440000D02*
X137910000Y-112740000D01*
X137910000Y-112740000D02*
X138710000Y-112740000D01*
X137940000Y-116560000D02*
X135960000Y-116560000D01*
X137940000Y-116910000D02*
X137940000Y-116560000D01*
X138710000Y-112740000D02*
X138710000Y-113040000D01*
X138710000Y-114860000D02*
X138710000Y-116910000D01*
X138710000Y-116910000D02*
X137940000Y-116910000D01*
%TO.C,R-KEY-PU-LH2*%
X129772936Y-129464999D02*
X130227064Y-129464999D01*
X129772936Y-130934999D02*
X130227064Y-130934999D01*
%TO.C,R-KEY-PU-LH3*%
X153772936Y-114765000D02*
X154227064Y-114765000D01*
X153772936Y-116235000D02*
X154227064Y-116235000D01*
%TO.C,C-KEY-LH2*%
X121738748Y-129464999D02*
X122261252Y-129464999D01*
X121738748Y-130934999D02*
X122261252Y-130934999D01*
%TO.C,R-KEY-PU-LH1*%
X113772936Y-114765000D02*
X114227064Y-114765000D01*
X113772936Y-116235000D02*
X114227064Y-116235000D01*
%TD*%
M02*
