%TF.GenerationSoftware,KiCad,Pcbnew,9.0.9-9.0.9~ubuntu24.04.1*%
%TF.CreationDate,2026-09-27T02:31:35+00:00*%
%TF.ProjectId,key-board-lh,6b65792d-626f-4617-9264-2d6c682e6b69,rev?*%
%TF.SameCoordinates,Original*%
%TF.FileFunction,Copper,L2,Bot*%
%TF.FilePolarity,Positive*%
%FSLAX46Y46*%
G04 Gerber Fmt 4.6, Leading zero omitted, Abs format (unit mm)*
G04 Created by KiCad (PCBNEW 9.0.9-9.0.9~ubuntu24.04.1) date 2026-09-27 02:31:35*
%MOMM*%
%LPD*%
G01*
G04 APERTURE LIST*
G04 Aperture macros list*
%AMRoundRect*
0 Rectangle with rounded corners*
0 $1 Rounding radius*
0 $2 $3 $4 $5 $6 $7 $8 $9 X,Y pos of 4 corners*
0 Add a 4 corners polygon primitive as box body*
4,1,4,$2,$3,$4,$5,$6,$7,$8,$9,$2,$3,0*
0 Add four circle primitives for the rounded corners*
1,1,$1+$1,$2,$3*
1,1,$1+$1,$4,$5*
1,1,$1+$1,$6,$7*
1,1,$1+$1,$8,$9*
0 Add four rect primitives between the rounded corners*
20,1,$1+$1,$2,$3,$4,$5,0*
20,1,$1+$1,$4,$5,$6,$7,0*
20,1,$1+$1,$6,$7,$8,$9,0*
20,1,$1+$1,$8,$9,$2,$3,0*%
G04 Aperture macros list end*
%TA.AperFunction,ComponentPad*%
%ADD10C,2.000000*%
%TD*%
%TA.AperFunction,SMDPad,CuDef*%
%ADD11RoundRect,0.250000X-0.262500X-0.450000X0.262500X-0.450000X0.262500X0.450000X-0.262500X0.450000X0*%
%TD*%
%TA.AperFunction,SMDPad,CuDef*%
%ADD12RoundRect,0.250000X-0.250000X-0.475000X0.250000X-0.475000X0.250000X0.475000X-0.250000X0.475000X0*%
%TD*%
%TA.AperFunction,SMDPad,CuDef*%
%ADD13RoundRect,0.250000X0.450000X-0.262500X0.450000X0.262500X-0.450000X0.262500X-0.450000X-0.262500X0*%
%TD*%
%TA.AperFunction,SMDPad,CuDef*%
%ADD14RoundRect,0.150000X0.150000X-0.825000X0.150000X0.825000X-0.150000X0.825000X-0.150000X-0.825000X0*%
%TD*%
%TA.AperFunction,SMDPad,CuDef*%
%ADD15R,0.400000X1.000000*%
%TD*%
%TA.AperFunction,SMDPad,CuDef*%
%ADD16R,2.000000X1.300000*%
%TD*%
%TA.AperFunction,ViaPad*%
%ADD17C,0.600000*%
%TD*%
%TA.AperFunction,Conductor*%
%ADD18C,0.250000*%
%TD*%
%TA.AperFunction,Conductor*%
%ADD19C,0.400000*%
%TD*%
G04 APERTURE END LIST*
D10*
%TO.P,SW-LH2,1*%
%TO.N,/LH2/SWITCH_LEG*%
X125600000Y-126200000D03*
%TO.P,SW-LH2,2*%
%TO.N,GND_CHAIN*%
X132600000Y-127250000D03*
%TD*%
%TO.P,SW-LH3,1*%
%TO.N,/LH3/SWITCH_LEG*%
X145600000Y-126200000D03*
%TO.P,SW-LH3,2*%
%TO.N,GND_CHAIN*%
X152600000Y-127250000D03*
%TD*%
%TO.P,SW-LH4,1*%
%TO.N,/LH4/SWITCH_LEG*%
X163600000Y-135200000D03*
%TO.P,SW-LH4,2*%
%TO.N,GND_CHAIN*%
X170600000Y-136250000D03*
%TD*%
%TO.P,SW-LH5,1*%
%TO.N,/LH5/SWITCH_LEG*%
X163600000Y-117200000D03*
%TO.P,SW-LH5,2*%
%TO.N,GND_CHAIN*%
X170600000Y-118250000D03*
%TD*%
%TO.P,SW-LH1,1*%
%TO.N,/LH1/SWITCH_LEG*%
X105600000Y-126200000D03*
%TO.P,SW-LH1,2*%
%TO.N,GND_CHAIN*%
X112600000Y-127250000D03*
%TD*%
D11*
%TO.P,R-KEY-SER-LH2,1*%
%TO.N,/KEY_LH2*%
X125087500Y-130199999D03*
%TO.P,R-KEY-SER-LH2,2*%
%TO.N,/LH2/SWITCH_LEG*%
X126912500Y-130199999D03*
%TD*%
D12*
%TO.P,C-KEY-LH5,1*%
%TO.N,/KEY_LH5*%
X163050000Y-106500000D03*
%TO.P,C-KEY-LH5,2*%
%TO.N,GND_CHAIN*%
X164950000Y-106500000D03*
%TD*%
D11*
%TO.P,R-KEY-SER-LH4,1*%
%TO.N,/KEY_LH4*%
X167087500Y-124500000D03*
%TO.P,R-KEY-SER-LH4,2*%
%TO.N,/LH4/SWITCH_LEG*%
X168912500Y-124500000D03*
%TD*%
D12*
%TO.P,C-DECOUPLE-165-LH,1*%
%TO.N,V3V3_CHAIN_LH*%
X143850000Y-122200000D03*
%TO.P,C-DECOUPLE-165-LH,2*%
%TO.N,GND_CHAIN*%
X145750000Y-122200000D03*
%TD*%
D11*
%TO.P,R-KEY-PU-LH4,1*%
%TO.N,V3V3_CHAIN_LH*%
X171087500Y-124500000D03*
%TO.P,R-KEY-PU-LH4,2*%
%TO.N,/KEY_LH4*%
X172912500Y-124500000D03*
%TD*%
%TO.P,R-KEY-PU-LH5,1*%
%TO.N,V3V3_CHAIN_LH*%
X171087500Y-106500000D03*
%TO.P,R-KEY-PU-LH5,2*%
%TO.N,/KEY_LH5*%
X172912500Y-106500000D03*
%TD*%
D13*
%TO.P,R-KEY-PU-FREE3,1*%
%TO.N,V3V3_CHAIN_LH*%
X134500000Y-122412500D03*
%TO.P,R-KEY-PU-FREE3,2*%
%TO.N,/KEY_FREE3*%
X134500000Y-120587500D03*
%TD*%
D11*
%TO.P,R-KEY-SER-LH5,1*%
%TO.N,/KEY_LH5*%
X167087500Y-106500000D03*
%TO.P,R-KEY-SER-LH5,2*%
%TO.N,/LH5/SWITCH_LEG*%
X168912500Y-106500000D03*
%TD*%
D12*
%TO.P,C-KEY-LH1,1*%
%TO.N,/KEY_LH1*%
X105050000Y-115500000D03*
%TO.P,C-KEY-LH1,2*%
%TO.N,GND_CHAIN*%
X106950000Y-115500000D03*
%TD*%
%TO.P,C-KEY-LH3,1*%
%TO.N,/KEY_LH3*%
X145050000Y-115500000D03*
%TO.P,C-KEY-LH3,2*%
%TO.N,GND_CHAIN*%
X146950000Y-115500000D03*
%TD*%
D14*
%TO.P,U-KEYS-LH,1*%
%TO.N,/CHAIN_SHLD*%
X143545000Y-130175000D03*
%TO.P,U-KEYS-LH,2*%
%TO.N,/CHAIN_SCK*%
X142275000Y-130175000D03*
%TO.P,U-KEYS-LH,3*%
%TO.N,/KEY_LH4*%
X141005000Y-130175000D03*
%TO.P,U-KEYS-LH,4*%
%TO.N,/KEY_LH3*%
X139735000Y-130175000D03*
%TO.P,U-KEYS-LH,5*%
%TO.N,/KEY_LH2*%
X138465000Y-130175000D03*
%TO.P,U-KEYS-LH,6*%
%TO.N,/KEY_LH1*%
X137195000Y-130175000D03*
%TO.P,U-KEYS-LH,7*%
%TO.N,unconnected-(U-KEYS-LH-~{Q7}-Pad7)*%
X135925000Y-130175000D03*
%TO.P,U-KEYS-LH,8*%
%TO.N,GND_CHAIN*%
X134655000Y-130175000D03*
%TO.P,U-KEYS-LH,9*%
%TO.N,/HOP_LH_LT*%
X134655000Y-125225000D03*
%TO.P,U-KEYS-LH,10*%
%TO.N,/CHAIN_SER_LH*%
X135925000Y-125225000D03*
%TO.P,U-KEYS-LH,11*%
%TO.N,/KEY_FREE3*%
X137195000Y-125225000D03*
%TO.P,U-KEYS-LH,12*%
%TO.N,V3V3_CHAIN_LH*%
X138465000Y-125225000D03*
%TO.P,U-KEYS-LH,13*%
%TO.N,GND_CHAIN*%
X139735000Y-125225000D03*
%TO.P,U-KEYS-LH,14*%
%TO.N,/KEY_LH5*%
X141005000Y-125225000D03*
%TO.P,U-KEYS-LH,15*%
%TO.N,GND_CHAIN*%
X142275000Y-125225000D03*
%TO.P,U-KEYS-LH,16*%
%TO.N,V3V3_CHAIN_LH*%
X143545000Y-125225000D03*
%TD*%
D11*
%TO.P,R-KEY-SER-LH3,1*%
%TO.N,/KEY_LH3*%
X149087500Y-115500000D03*
%TO.P,R-KEY-SER-LH3,2*%
%TO.N,/LH3/SWITCH_LEG*%
X150912500Y-115500000D03*
%TD*%
D12*
%TO.P,C-KEY-LH4,1*%
%TO.N,/KEY_LH4*%
X163050000Y-124500000D03*
%TO.P,C-KEY-LH4,2*%
%TO.N,GND_CHAIN*%
X164950000Y-124500000D03*
%TD*%
D11*
%TO.P,R-KEY-SER-LH1,1*%
%TO.N,/KEY_LH1*%
X109087500Y-115500000D03*
%TO.P,R-KEY-SER-LH1,2*%
%TO.N,/LH1/SWITCH_LEG*%
X110912500Y-115500000D03*
%TD*%
D15*
%TO.P,J-CHAIN,1*%
%TO.N,unconnected-(J-CHAIN-Pin_1-Pad1)*%
X124500000Y-116650000D03*
%TO.P,J-CHAIN,2*%
%TO.N,unconnected-(J-CHAIN-Pin_2-Pad2)*%
X125500000Y-116650000D03*
%TO.P,J-CHAIN,3*%
%TO.N,V3V3_CHAIN_LH*%
X126500000Y-116650000D03*
%TO.P,J-CHAIN,4*%
%TO.N,GND_CHAIN*%
X127500000Y-116650000D03*
%TO.P,J-CHAIN,5*%
%TO.N,/HOP_LH_LT*%
X128500000Y-116650000D03*
%TO.P,J-CHAIN,6*%
%TO.N,GND_CHAIN*%
X129500000Y-116650000D03*
%TO.P,J-CHAIN,7*%
%TO.N,/CHAIN_SER_LH*%
X130500000Y-116650000D03*
%TO.P,J-CHAIN,8*%
%TO.N,GND_CHAIN*%
X131500000Y-116650000D03*
%TO.P,J-CHAIN,9*%
%TO.N,/CHAIN_SHLD*%
X132500000Y-116650000D03*
%TO.P,J-CHAIN,10*%
%TO.N,GND_CHAIN*%
X133500000Y-116650000D03*
%TO.P,J-CHAIN,11*%
%TO.N,/CHAIN_SCK*%
X134500000Y-116650000D03*
%TO.P,J-CHAIN,12*%
%TO.N,GND_CHAIN*%
X135500000Y-116650000D03*
D16*
%TO.P,J-CHAIN,MP*%
%TO.N,N/C*%
X121700000Y-113950000D03*
X138300000Y-113950000D03*
%TD*%
D11*
%TO.P,R-KEY-PU-LH2,1*%
%TO.N,V3V3_CHAIN_LH*%
X129087500Y-130199999D03*
%TO.P,R-KEY-PU-LH2,2*%
%TO.N,/KEY_LH2*%
X130912500Y-130199999D03*
%TD*%
%TO.P,R-KEY-PU-LH3,1*%
%TO.N,V3V3_CHAIN_LH*%
X153087500Y-115500000D03*
%TO.P,R-KEY-PU-LH3,2*%
%TO.N,/KEY_LH3*%
X154912500Y-115500000D03*
%TD*%
D12*
%TO.P,C-KEY-LH2,1*%
%TO.N,/KEY_LH2*%
X121050000Y-130199999D03*
%TO.P,C-KEY-LH2,2*%
%TO.N,GND_CHAIN*%
X122950000Y-130199999D03*
%TD*%
D11*
%TO.P,R-KEY-PU-LH1,1*%
%TO.N,V3V3_CHAIN_LH*%
X113087500Y-115500000D03*
%TO.P,R-KEY-PU-LH1,2*%
%TO.N,/KEY_LH1*%
X114912500Y-115500000D03*
%TD*%
D17*
%TO.N,/CHAIN_SCK*%
X134500000Y-117000000D03*
X142100000Y-129400000D03*
%TO.N,/CHAIN_SHLD*%
X135300000Y-119400000D03*
X143300000Y-129400000D03*
%TO.N,/HOP_LH_LT*%
X134500000Y-124400000D03*
X128500000Y-117000000D03*
%TO.N,/KEY_LH1*%
X115300000Y-116000000D03*
X137100000Y-129400000D03*
%TO.N,/KEY_LH3*%
X142700000Y-127000000D03*
X146100000Y-116800000D03*
%TO.N,/KEY_LH4*%
X162700000Y-125000000D03*
X141100000Y-130199999D03*
%TO.N,/KEY_LH5*%
X162700000Y-107000000D03*
X143500000Y-123600000D03*
%TO.N,GND_CHAIN*%
X129100000Y-117800000D03*
X107300000Y-116000000D03*
X146100000Y-122800000D03*
X164500000Y-106800000D03*
X164700000Y-124200000D03*
X165500000Y-124400000D03*
X146700000Y-116000000D03*
X106500000Y-115800000D03*
X131699999Y-117400000D03*
X127300000Y-115800000D03*
X130300000Y-128600000D03*
X165300000Y-107000000D03*
X145500000Y-123400000D03*
X129300000Y-115800000D03*
X136100000Y-116600000D03*
X142700000Y-118800000D03*
X123300000Y-129600000D03*
X147500000Y-115400000D03*
X133300000Y-115800000D03*
X123500000Y-130400000D03*
%TO.N,V3V3_CHAIN_LH*%
X144500000Y-131000000D03*
X144100000Y-121600000D03*
X129500000Y-129800000D03*
X170700000Y-107000000D03*
X152500000Y-116000000D03*
X138700000Y-127200000D03*
X134300000Y-122800000D03*
X154100000Y-116800000D03*
X170700000Y-124000000D03*
%TD*%
D18*
%TO.N,/CHAIN_SCK*%
X134500000Y-116650000D02*
X134500000Y-117000000D01*
%TO.N,/CHAIN_SER_LH*%
X130900000Y-117800000D02*
X131100000Y-118000000D01*
X135924999Y-125224999D02*
X135700000Y-124400000D01*
X132900000Y-119800000D02*
X133100000Y-120000000D01*
X132699999Y-119600000D02*
X132900000Y-119800000D01*
X131900000Y-118800000D02*
X132100000Y-119000000D01*
X133699999Y-123600000D02*
X135100000Y-123600000D01*
X133300000Y-120200000D02*
X133300000Y-123200000D01*
X130500000Y-117000000D02*
X130500000Y-117400000D01*
X135100000Y-123600000D02*
X135300000Y-123800000D01*
X130500000Y-117400000D02*
X130699999Y-117600000D01*
X131300000Y-118200000D02*
X131500000Y-118400000D01*
X132500000Y-119400000D02*
X132699999Y-119600000D01*
X130699999Y-117600000D02*
X130900000Y-117800000D01*
X135700000Y-124200000D02*
X135700000Y-124400000D01*
X131699999Y-118600000D02*
X131900000Y-118800000D01*
X131500000Y-118400000D02*
X131699999Y-118600000D01*
X133100000Y-120000000D02*
X133300000Y-120200000D01*
X133500000Y-123400000D02*
X133699999Y-123600000D01*
X132300000Y-119200000D02*
X132500000Y-119400000D01*
X133300000Y-123200000D02*
X133500000Y-123400000D01*
X131100000Y-118000000D02*
X131300000Y-118200000D01*
X135300000Y-123800000D02*
X135700000Y-124200000D01*
X132100000Y-119000000D02*
X132300000Y-119200000D01*
%TO.N,/CHAIN_SHLD*%
X134100000Y-118200000D02*
X133900000Y-118000000D01*
X134900000Y-119000000D02*
X134700000Y-118800000D01*
X135100000Y-119200000D02*
X134900000Y-119000000D01*
X135300000Y-119400000D02*
X135100000Y-119200000D01*
X132500000Y-116650000D02*
X132500000Y-117000000D01*
X132900000Y-117800000D02*
X132699999Y-117600000D01*
X134500000Y-118600000D02*
X134300000Y-118400000D01*
X134300000Y-118400000D02*
X134100000Y-118200000D01*
X133900000Y-118000000D02*
X133699999Y-117800000D01*
X134700000Y-118800000D02*
X134500000Y-118600000D01*
X133699999Y-117800000D02*
X132900000Y-117800000D01*
X132500000Y-117400000D02*
X132500000Y-117000000D01*
X132699999Y-117600000D02*
X132500000Y-117400000D01*
%TO.N,/HOP_LH_LT*%
X128500000Y-116650000D02*
X128500000Y-117000000D01*
%TO.N,/KEY_FREE3*%
X136100000Y-121800000D02*
X135900000Y-121600000D01*
X135700000Y-121400000D02*
X135300000Y-121000000D01*
X136700000Y-124000000D02*
X136700000Y-122400000D01*
X134500000Y-120587500D02*
X135100000Y-120800000D01*
X136900000Y-124200000D02*
X136700000Y-124000000D01*
X135300000Y-121000000D02*
X135100000Y-120800000D01*
X136700000Y-122400000D02*
X136300000Y-122000000D01*
X136300000Y-122000000D02*
X136100000Y-121800000D01*
X137100000Y-124400000D02*
X136900000Y-124200000D01*
X135900000Y-121600000D02*
X135700000Y-121400000D01*
%TO.N,/KEY_LH1*%
X105700000Y-116400000D02*
X105300000Y-116000000D01*
X105900000Y-116600000D02*
X105700000Y-116400000D01*
X109700000Y-114600000D02*
X109500000Y-114800000D01*
X114100000Y-114400000D02*
X113900000Y-114200000D01*
X114300000Y-114600000D02*
X114100000Y-114400000D01*
X113900000Y-114200000D02*
X110100000Y-114200000D01*
X109900000Y-114400000D02*
X109700000Y-114600000D01*
X108100000Y-116600000D02*
X107900000Y-116800000D01*
X109500000Y-114800000D02*
X109500000Y-115000000D01*
X105050000Y-115500000D02*
X105300000Y-116000000D01*
X110100000Y-114200000D02*
X109900000Y-114400000D01*
X109087500Y-115499999D02*
X109500000Y-115000000D01*
X108700000Y-116000000D02*
X108300000Y-116400000D01*
X107900000Y-116800000D02*
X106100000Y-116800000D01*
X108300000Y-116400000D02*
X108100000Y-116600000D01*
X106100000Y-116800000D02*
X105900000Y-116600000D01*
X137195000Y-130174999D02*
X137100000Y-129400000D01*
X114500000Y-114800000D02*
X114300000Y-114600000D01*
X114500000Y-115000000D02*
X114500000Y-114800000D01*
%TO.N,/KEY_LH2*%
X125900000Y-131199999D02*
X125500000Y-130800000D01*
X125500000Y-130800000D02*
X125500000Y-130600000D01*
X124300000Y-130800000D02*
X124100000Y-131000000D01*
X138300000Y-129199999D02*
X138300000Y-129400000D01*
X138100000Y-129000000D02*
X138300000Y-129199999D01*
X123700000Y-131400000D02*
X121900000Y-131400000D01*
X133500000Y-129199999D02*
X133699999Y-129000000D01*
X121700000Y-131199999D02*
X121300000Y-130800000D01*
X138464999Y-130174999D02*
X138300000Y-129400000D01*
X137700000Y-128600000D02*
X138100000Y-129000000D01*
X123900000Y-131199999D02*
X123700000Y-131400000D01*
X124100000Y-131000000D02*
X123900000Y-131199999D01*
X121050000Y-130199998D02*
X121300000Y-130800000D01*
X125087500Y-130199999D02*
X125500000Y-130600000D01*
X124700000Y-130800000D02*
X124300000Y-130800000D01*
X126100000Y-131400000D02*
X125900000Y-131199999D01*
X133300000Y-129400000D02*
X133500000Y-129199999D01*
X133100000Y-129600000D02*
X133300000Y-129400000D01*
X121900000Y-131400000D02*
X121700000Y-131199999D01*
X130699999Y-130800000D02*
X130100000Y-131400000D01*
X134100000Y-128600000D02*
X137700000Y-128600000D01*
X133900000Y-128800000D02*
X134100000Y-128600000D01*
X133699999Y-129000000D02*
X133900000Y-128800000D01*
X131300000Y-129600000D02*
X133100000Y-129600000D01*
X130100000Y-131400000D02*
X126100000Y-131400000D01*
%TO.N,/KEY_LH3*%
X146100000Y-116800000D02*
X145900000Y-116600000D01*
X148300000Y-116400000D02*
X148100000Y-116600000D01*
X153900000Y-114200000D02*
X154100000Y-114400000D01*
X154300000Y-114600000D02*
X154500000Y-114800000D01*
X154500000Y-114800000D02*
X154500000Y-115000000D01*
X142100000Y-127600000D02*
X141900000Y-127800000D01*
X145900000Y-116600000D02*
X145700000Y-116400000D01*
X145700000Y-116400000D02*
X145300000Y-116000000D01*
X142700000Y-127000000D02*
X142300000Y-127400000D01*
X149700000Y-114600000D02*
X149900000Y-114400000D01*
X147900000Y-116800000D02*
X146100000Y-116800000D01*
X140300000Y-128800000D02*
X140100000Y-129000000D01*
X140100000Y-129000000D02*
X139900000Y-129199999D01*
X141500000Y-128199999D02*
X141300000Y-128400000D01*
X149500000Y-115000000D02*
X149500000Y-114800000D01*
X140500000Y-128600000D02*
X140300000Y-128800000D01*
X148100000Y-116600000D02*
X147900000Y-116800000D01*
X139900000Y-129199999D02*
X139900000Y-129400000D01*
X141900000Y-127800000D02*
X141700000Y-128000000D01*
X145049999Y-115500000D02*
X145300000Y-116000000D01*
X149500000Y-114800000D02*
X149700000Y-114600000D01*
X154912499Y-115500000D02*
X154500000Y-115000000D01*
X141100000Y-128600000D02*
X140500000Y-128600000D01*
X148700000Y-116000000D02*
X148300000Y-116400000D01*
X139735000Y-130174999D02*
X139900000Y-129400000D01*
X142300000Y-127400000D02*
X142100000Y-127600000D01*
X149900000Y-114400000D02*
X150100000Y-114200000D01*
X150100000Y-114200000D02*
X153900000Y-114200000D01*
X141700000Y-128000000D02*
X141500000Y-128199999D01*
X154100000Y-114400000D02*
X154300000Y-114600000D01*
X141300000Y-128400000D02*
X141100000Y-128600000D01*
%TO.N,/KEY_LH4*%
X172100000Y-123400000D02*
X172300000Y-123600000D01*
X172300000Y-123600000D02*
X172500000Y-123800000D01*
X167900000Y-123400000D02*
X168100000Y-123200000D01*
X163300000Y-125000000D02*
X163700000Y-125400000D01*
X172912500Y-124500000D02*
X172500000Y-124000000D01*
X171900000Y-123200000D02*
X172100000Y-123400000D01*
X163700000Y-125400000D02*
X163900000Y-125600000D01*
X167087500Y-124499999D02*
X166700000Y-125000000D01*
X167500000Y-124000000D02*
X167500000Y-123800000D01*
X172500000Y-123800000D02*
X172500000Y-124000000D01*
X167500000Y-123800000D02*
X167700000Y-123600000D01*
X141005000Y-130174999D02*
X141100000Y-130199999D01*
X163900000Y-125600000D02*
X164100000Y-125800000D01*
X168100000Y-123200000D02*
X171900000Y-123200000D01*
X167700000Y-123600000D02*
X167900000Y-123400000D01*
X165900000Y-125800000D02*
X166100000Y-125600000D01*
X166300000Y-125400000D02*
X166700000Y-125000000D01*
X164100000Y-125800000D02*
X165900000Y-125800000D01*
X166100000Y-125600000D02*
X166300000Y-125400000D01*
%TO.N,/KEY_LH5*%
X141300000Y-124200000D02*
X141100000Y-124400000D01*
X141900000Y-123600000D02*
X141700000Y-123800000D01*
X167500000Y-106000000D02*
X167500000Y-105800000D01*
X141500000Y-124000000D02*
X141300000Y-124200000D01*
X172912500Y-106500000D02*
X172500000Y-106000000D01*
X167500000Y-105800000D02*
X167700000Y-105600000D01*
X172500000Y-105800000D02*
X172500000Y-106000000D01*
X163300000Y-107000000D02*
X163700000Y-107400000D01*
X163900000Y-107600000D02*
X164100000Y-107800000D01*
X164100000Y-107800000D02*
X165900000Y-107800000D01*
X167900000Y-105400000D02*
X168100000Y-105200000D01*
X141700000Y-123800000D02*
X141500000Y-123800000D01*
X166100000Y-107600000D02*
X166300000Y-107400000D01*
X167087500Y-106500000D02*
X166700000Y-107000000D01*
X141005000Y-125224999D02*
X141100000Y-124400000D01*
X167700000Y-105600000D02*
X167900000Y-105400000D01*
X172100000Y-105400000D02*
X172300000Y-105600000D01*
X165900000Y-107800000D02*
X166100000Y-107600000D01*
X172300000Y-105600000D02*
X172500000Y-105800000D01*
X166300000Y-107400000D02*
X166700000Y-107000000D01*
X163700000Y-107400000D02*
X163900000Y-107600000D01*
X143500000Y-123600000D02*
X141900000Y-123600000D01*
X141500000Y-123800000D02*
X141500000Y-124000000D01*
X168100000Y-105200000D02*
X171900000Y-105200000D01*
X171900000Y-105200000D02*
X172100000Y-105400000D01*
%TO.N,/LH1/SWITCH_LEG*%
X109500000Y-117400000D02*
X109300000Y-117600000D01*
X108300000Y-118600000D02*
X108100000Y-118800000D01*
X108100000Y-118800000D02*
X107900000Y-119000000D01*
X108900000Y-118000000D02*
X108500000Y-118400000D01*
X109100000Y-117800000D02*
X108900000Y-118000000D01*
X109300000Y-117600000D02*
X109100000Y-117800000D01*
X106900000Y-120000000D02*
X106500000Y-120400000D01*
X107300000Y-119600000D02*
X107100000Y-119800000D01*
X110100000Y-116400000D02*
X110100000Y-116800000D01*
X107900000Y-119000000D02*
X107500000Y-119400000D01*
X110100000Y-116800000D02*
X109900000Y-117000000D01*
X106500000Y-120400000D02*
X106300000Y-120600000D01*
X109900000Y-117000000D02*
X109500000Y-117400000D01*
X107100000Y-119800000D02*
X106900000Y-120000000D01*
X107500000Y-119400000D02*
X107300000Y-119600000D01*
X106300000Y-120600000D02*
X106100000Y-120800000D01*
X108500000Y-118400000D02*
X108300000Y-118600000D01*
X110500000Y-116000000D02*
X110100000Y-116400000D01*
X105600000Y-126200000D02*
X106100000Y-125400000D01*
X106100000Y-120800000D02*
X106100000Y-125400000D01*
%TO.N,/LH2/SWITCH_LEG*%
X126700000Y-127800000D02*
X126500000Y-127600000D01*
X126500000Y-127600000D02*
X126300000Y-127400000D01*
X125600000Y-126200000D02*
X126100000Y-127000000D01*
X126700000Y-129600000D02*
X126700000Y-127800000D01*
X126300000Y-127400000D02*
X126100000Y-127200000D01*
X126100000Y-127200000D02*
X126100000Y-127000000D01*
%TO.N,/LH3/SWITCH_LEG*%
X146300000Y-125000000D02*
X146100000Y-125200000D01*
X149100000Y-117800000D02*
X148900000Y-118000000D01*
X147500000Y-119400000D02*
X147300000Y-119600000D01*
X148500000Y-118400000D02*
X148300000Y-118600000D01*
X148700000Y-118200000D02*
X148500000Y-118400000D01*
X149900000Y-117000000D02*
X149700000Y-117200000D01*
X147700000Y-119200000D02*
X147500000Y-119400000D01*
X147300000Y-119600000D02*
X147100000Y-119800000D01*
X145599999Y-126199999D02*
X146100000Y-125400000D01*
X146100000Y-125200000D02*
X146100000Y-125400000D01*
X148100000Y-118800000D02*
X147900000Y-119000000D01*
X150100000Y-116400000D02*
X150100000Y-116800000D01*
X150100000Y-116800000D02*
X149900000Y-117000000D01*
X146900000Y-120000000D02*
X146900000Y-124400000D01*
X150500000Y-116000000D02*
X150300000Y-116200000D01*
X149700000Y-117200000D02*
X149500000Y-117400000D01*
X148300000Y-118600000D02*
X148100000Y-118800000D01*
X147100000Y-119800000D02*
X146900000Y-120000000D01*
X146900000Y-124400000D02*
X146700000Y-124600000D01*
X146700000Y-124600000D02*
X146300000Y-125000000D01*
X150300000Y-116200000D02*
X150100000Y-116400000D01*
X147900000Y-119000000D02*
X147700000Y-119200000D01*
X149500000Y-117400000D02*
X149300000Y-117600000D01*
X149300000Y-117600000D02*
X149100000Y-117800000D01*
X148900000Y-118000000D02*
X148700000Y-118200000D01*
%TO.N,/LH4/SWITCH_LEG*%
X167300000Y-126600000D02*
X167100000Y-126800000D01*
X164300000Y-129600000D02*
X164100000Y-129800000D01*
X165300000Y-128600000D02*
X165100000Y-128800000D01*
X164500000Y-129400000D02*
X164300000Y-129600000D01*
X168500000Y-125000000D02*
X168100000Y-125400000D01*
X167500000Y-126400000D02*
X167300000Y-126600000D01*
X164100000Y-129800000D02*
X164100000Y-134400000D01*
X166100000Y-127800000D02*
X165900000Y-128000000D01*
X166500000Y-127400000D02*
X166300000Y-127600000D01*
X165500000Y-128400000D02*
X165300000Y-128600000D01*
X166700000Y-127200000D02*
X166500000Y-127400000D01*
X165100000Y-128800000D02*
X164700000Y-129199999D01*
X164700000Y-129199999D02*
X164500000Y-129400000D01*
X165700000Y-128199999D02*
X165500000Y-128400000D01*
X167100000Y-126800000D02*
X166700000Y-127200000D01*
X165900000Y-128000000D02*
X165700000Y-128199999D01*
X168100000Y-125400000D02*
X168100000Y-125800000D01*
X168100000Y-125800000D02*
X167700000Y-126200000D01*
X167700000Y-126200000D02*
X167500000Y-126400000D01*
X166300000Y-127600000D02*
X166100000Y-127800000D01*
X163600000Y-135200000D02*
X164100000Y-134400000D01*
%TO.N,/LH5/SWITCH_LEG*%
X168500000Y-107200000D02*
X168500000Y-107000000D01*
X164300000Y-111400000D02*
X164700000Y-111000000D01*
X166100000Y-109600000D02*
X166300000Y-109400000D01*
X168300000Y-107400000D02*
X168500000Y-107200000D01*
X168912500Y-106500000D02*
X168500000Y-107000000D01*
X166700000Y-109000000D02*
X167100000Y-108600000D01*
X165700000Y-110000000D02*
X166100000Y-109600000D01*
X164100000Y-116400000D02*
X164100000Y-111600000D01*
X165300000Y-110400000D02*
X165700000Y-110000000D01*
X167300000Y-108400000D02*
X167700000Y-108000000D01*
X164700000Y-111000000D02*
X165100000Y-110600000D01*
X164100000Y-111600000D02*
X164300000Y-111400000D01*
X166300000Y-109400000D02*
X166700000Y-109000000D01*
X168100000Y-107600000D02*
X168300000Y-107400000D01*
X167100000Y-108600000D02*
X167300000Y-108400000D01*
X167700000Y-108000000D02*
X168100000Y-107600000D01*
X165100000Y-110600000D02*
X165300000Y-110400000D01*
%TO.N,GND_CHAIN*%
X131500000Y-116650000D02*
X131699999Y-117400000D01*
X137300000Y-118800000D02*
X142700000Y-118800000D01*
X132599999Y-127249999D02*
X133500000Y-127400000D01*
X127499999Y-116650000D02*
X127500000Y-117000000D01*
X144100000Y-120200000D02*
X144300000Y-120400000D01*
X139900000Y-126000000D02*
X140100000Y-126200000D01*
X133500000Y-116650000D02*
X133500000Y-116400000D01*
X127499999Y-116650000D02*
X127300000Y-115800000D01*
X140100000Y-126400000D02*
X140300000Y-126600000D01*
X122950000Y-130199998D02*
X123500000Y-130400000D01*
X169100000Y-120200000D02*
X169500000Y-119800000D01*
X165700000Y-123600000D02*
X165900000Y-123400000D01*
X106949999Y-115500000D02*
X107300000Y-116000000D01*
X136700000Y-118200000D02*
X136900000Y-118400000D01*
X135900000Y-117400000D02*
X136100000Y-117600000D01*
X135500000Y-116650000D02*
X136100000Y-116600000D01*
X135100000Y-115600000D02*
X135300000Y-115800000D01*
X131900000Y-115600000D02*
X133100000Y-115600000D01*
X131500000Y-116000000D02*
X131500000Y-116400000D01*
X143100000Y-119200000D02*
X143300000Y-119400000D01*
X167900000Y-121400000D02*
X168100000Y-121200000D01*
X138100000Y-128000000D02*
X137900000Y-127800000D01*
X129100000Y-117800000D02*
X127900000Y-117800000D01*
X169500000Y-119800000D02*
X169500000Y-118400000D01*
X166900000Y-122400000D02*
X167100000Y-122200000D01*
X106949999Y-115500000D02*
X106500000Y-115800000D01*
X140100000Y-126200000D02*
X140100000Y-126400000D01*
X164949999Y-106499999D02*
X164500000Y-106800000D01*
X129699999Y-116200000D02*
X129699999Y-115800000D01*
X146949999Y-115499999D02*
X146700000Y-116000000D01*
X135300000Y-115800000D02*
X135500000Y-116000000D01*
X130900000Y-128000000D02*
X130699999Y-128199999D01*
X140300000Y-127000000D02*
X140100000Y-127200000D01*
X164949999Y-106499999D02*
X165300000Y-107000000D01*
X129100000Y-117800000D02*
X129300000Y-117600000D01*
X129500000Y-117400000D02*
X129500000Y-117000000D01*
X144300000Y-120400000D02*
X144500000Y-120600000D01*
X129500000Y-116650000D02*
X129500000Y-117000000D01*
X127500000Y-117400000D02*
X127500000Y-117000000D01*
X127900000Y-117800000D02*
X127700000Y-117600000D01*
X143300000Y-119400000D02*
X143500000Y-119600000D01*
X144500000Y-120600000D02*
X144700000Y-120800000D01*
X130500000Y-128400000D02*
X130300000Y-128600000D01*
X140500000Y-126800000D02*
X141500000Y-126800000D01*
X144700000Y-120800000D02*
X144900000Y-121000000D01*
X169500000Y-118400000D02*
X169700000Y-118400000D01*
X131300000Y-127600000D02*
X131100000Y-127800000D01*
X140300000Y-126600000D02*
X140500000Y-126800000D01*
X142100000Y-126200000D02*
X142300000Y-126000000D01*
X133500000Y-116000000D02*
X133500000Y-116400000D01*
X164949999Y-124499999D02*
X165500000Y-124400000D01*
X133699999Y-115800000D02*
X133900000Y-115600000D01*
X167100000Y-122200000D02*
X167700000Y-121600000D01*
X131500000Y-116650000D02*
X131500000Y-116400000D01*
X168700000Y-120600000D02*
X168900000Y-120400000D01*
X129300000Y-117600000D02*
X129500000Y-117400000D01*
X139300000Y-128000000D02*
X138100000Y-128000000D01*
X131699999Y-127400000D02*
X131500000Y-127400000D01*
X122950000Y-130199998D02*
X123300000Y-129600000D01*
X143500000Y-119600000D02*
X143700000Y-119800000D01*
X133100000Y-115600000D02*
X133300000Y-115800000D01*
X143700000Y-119800000D02*
X143900000Y-120000000D01*
X137500000Y-127400000D02*
X133500000Y-127400000D01*
X142700000Y-118800000D02*
X142900000Y-119000000D01*
X131699999Y-115800000D02*
X131900000Y-115600000D01*
X133500000Y-116000000D02*
X133699999Y-115800000D01*
X142900000Y-119000000D02*
X143100000Y-119200000D01*
X139700000Y-127600000D02*
X139300000Y-128000000D01*
X131500000Y-127400000D02*
X131300000Y-127600000D01*
X141500000Y-126800000D02*
X141700000Y-126600000D01*
X146949999Y-115499999D02*
X147500000Y-115400000D01*
X137900000Y-127800000D02*
X137700000Y-127600000D01*
X136300000Y-117800000D02*
X136700000Y-118200000D01*
X131100000Y-115600000D02*
X131300000Y-115800000D01*
X167700000Y-121600000D02*
X167900000Y-121400000D01*
X164949999Y-124499999D02*
X164700000Y-124200000D01*
X129699999Y-115800000D02*
X129900000Y-115600000D01*
X145750000Y-122200000D02*
X145500000Y-123400000D01*
X135500000Y-116650000D02*
X135500000Y-116400000D01*
X141700000Y-126600000D02*
X141900000Y-126400000D01*
X131300000Y-115800000D02*
X131500000Y-116000000D01*
X140500000Y-126800000D02*
X140300000Y-127000000D01*
X135700000Y-117200000D02*
X135900000Y-117400000D01*
X168900000Y-120400000D02*
X169100000Y-120200000D01*
X133500000Y-116650000D02*
X133300000Y-115800000D01*
X165300000Y-124000000D02*
X165700000Y-123600000D01*
X166100000Y-123200000D02*
X166700000Y-122600000D01*
X131100000Y-127800000D02*
X130900000Y-128000000D01*
X145750000Y-122200000D02*
X145500000Y-121600000D01*
X165900000Y-123400000D02*
X166100000Y-123200000D01*
X130699999Y-128199999D02*
X130500000Y-128400000D01*
X142274999Y-125224999D02*
X142300000Y-126000000D01*
X166700000Y-122600000D02*
X166900000Y-122400000D01*
X136100000Y-117600000D02*
X136300000Y-117800000D01*
X145300000Y-121400000D02*
X145500000Y-121600000D01*
X129500000Y-116400000D02*
X129699999Y-116200000D01*
X133300000Y-115800000D02*
X133500000Y-116000000D01*
X135500000Y-116000000D02*
X135500000Y-116400000D01*
X127700000Y-117600000D02*
X127500000Y-117400000D01*
X136900000Y-118400000D02*
X137100000Y-118600000D01*
X143900000Y-120000000D02*
X144100000Y-120200000D01*
X129900000Y-115600000D02*
X131100000Y-115600000D01*
X131500000Y-116000000D02*
X131699999Y-115800000D01*
X139900000Y-127400000D02*
X139700000Y-127600000D01*
X135500000Y-117000000D02*
X135700000Y-117200000D01*
X145100000Y-121200000D02*
X145300000Y-121400000D01*
X168100000Y-121200000D02*
X168700000Y-120600000D01*
X133900000Y-115600000D02*
X135100000Y-115600000D01*
X141900000Y-126400000D02*
X142100000Y-126200000D01*
X144900000Y-121000000D02*
X145100000Y-121200000D01*
X137100000Y-118600000D02*
X137300000Y-118800000D01*
X129500000Y-116650000D02*
X129300000Y-115800000D01*
X137700000Y-127600000D02*
X137500000Y-127400000D01*
X140100000Y-127200000D02*
X139900000Y-127400000D01*
X170599999Y-118249999D02*
X169700000Y-118400000D01*
D19*
%TO.N,V3V3_CHAIN_LH*%
X114100000Y-116800000D02*
X113900000Y-116600000D01*
X128300000Y-124600000D02*
X128100000Y-124400000D01*
X143700000Y-128000000D02*
X143900000Y-128199999D01*
X153500000Y-116000000D02*
X153500000Y-116200000D01*
X143700000Y-126000000D02*
X143700000Y-128000000D01*
X128699999Y-129600000D02*
X128699999Y-125000000D01*
X144300000Y-123000000D02*
X144500000Y-123200000D01*
X129087499Y-130199998D02*
X129500000Y-129800000D01*
X126900000Y-123200000D02*
X126500000Y-122800000D01*
X153087499Y-115500000D02*
X152700000Y-116000000D01*
X144300000Y-124400000D02*
X143700000Y-124400000D01*
X143545000Y-125224999D02*
X143700000Y-124400000D01*
X153700000Y-116400000D02*
X153900000Y-116600000D01*
X138700000Y-127200000D02*
X138700000Y-126000000D01*
X171087499Y-124499999D02*
X170700000Y-124000000D01*
X128699999Y-125000000D02*
X128300000Y-124600000D01*
X134500000Y-122412500D02*
X134300000Y-122800000D01*
X127100000Y-123400000D02*
X126900000Y-123200000D01*
X144500000Y-123200000D02*
X144500000Y-124200000D01*
X144500000Y-124200000D02*
X144300000Y-124400000D01*
X127900000Y-124200000D02*
X127300000Y-123600000D01*
X144500000Y-128800000D02*
X144500000Y-131000000D01*
X171087499Y-106500000D02*
X170700000Y-107000000D01*
X153500000Y-116200000D02*
X153700000Y-116400000D01*
X127300000Y-123600000D02*
X127100000Y-123400000D01*
X126500000Y-116650000D02*
X126500000Y-117000000D01*
X128100000Y-124400000D02*
X127900000Y-124200000D01*
X138464999Y-125224999D02*
X138700000Y-126000000D01*
X113500000Y-116200000D02*
X113500000Y-116000000D01*
X126500000Y-122800000D02*
X126500000Y-117000000D01*
X153900000Y-116600000D02*
X154100000Y-116800000D01*
X144100000Y-122800000D02*
X144300000Y-122800000D01*
X113087500Y-115499999D02*
X113500000Y-116000000D01*
X152500000Y-116000000D02*
X152700000Y-116000000D01*
X113700000Y-116400000D02*
X113500000Y-116200000D01*
X144100000Y-128400000D02*
X144300000Y-128600000D01*
X114900000Y-117600000D02*
X114700000Y-117400000D01*
X143900000Y-128199999D02*
X144100000Y-128400000D01*
X144300000Y-128600000D02*
X144500000Y-128800000D01*
X144300000Y-122800000D02*
X144300000Y-123000000D01*
X113900000Y-116600000D02*
X113700000Y-116400000D01*
X115100000Y-117800000D02*
X114900000Y-117600000D01*
X114700000Y-117400000D02*
X114100000Y-116800000D01*
X126500000Y-117800000D02*
X115100000Y-117800000D01*
%TD*%
%TA.AperFunction,Conductor*%
%TO.N,GND_CHAIN*%
G36*
X178142539Y-102320185D02*
G01*
X178188294Y-102372989D01*
X178199500Y-102424500D01*
X178199500Y-140575500D01*
X178179815Y-140642539D01*
X178127011Y-140688294D01*
X178075500Y-140699500D01*
X157924500Y-140699500D01*
X157857461Y-140679815D01*
X157811706Y-140627011D01*
X157800500Y-140575500D01*
X157800500Y-132527719D01*
X157802667Y-132516073D01*
X157800500Y-132488294D01*
X157800500Y-132460438D01*
X157800394Y-132460042D01*
X157796544Y-132437593D01*
X157795190Y-132420235D01*
X157794854Y-132407501D01*
X157795300Y-132389810D01*
X157791630Y-132374592D01*
X157790413Y-132358988D01*
X157782394Y-132336293D01*
X157772908Y-132296957D01*
X157770509Y-132284036D01*
X157768293Y-132267159D01*
X157768293Y-132267156D01*
X157767889Y-132266181D01*
X157765830Y-132261203D01*
X157765829Y-132261200D01*
X157762128Y-132252256D01*
X157758351Y-132236593D01*
X157747066Y-132215860D01*
X157731635Y-132178571D01*
X157727324Y-132166390D01*
X157722383Y-132149709D01*
X157722382Y-132149708D01*
X157719216Y-132144542D01*
X157710360Y-132127156D01*
X157708038Y-132121544D01*
X157697441Y-132107724D01*
X157690131Y-132097082D01*
X157672233Y-132067878D01*
X157666099Y-132056595D01*
X157658540Y-132040785D01*
X157658539Y-132040784D01*
X157658539Y-132040783D01*
X157654667Y-132036259D01*
X157648283Y-132028798D01*
X157640040Y-132015348D01*
X157622667Y-131998863D01*
X157596541Y-131968332D01*
X157588498Y-131957850D01*
X157578933Y-131943904D01*
X157578932Y-131943903D01*
X157566627Y-131933373D01*
X157556097Y-131921068D01*
X157536690Y-131907756D01*
X157531664Y-131903455D01*
X157531662Y-131903453D01*
X157506033Y-131881522D01*
X157496703Y-131872660D01*
X157484655Y-131859963D01*
X157484650Y-131859959D01*
X157479558Y-131856838D01*
X157479558Y-131856837D01*
X157471194Y-131851711D01*
X157459214Y-131841460D01*
X157437619Y-131831134D01*
X157432122Y-131827766D01*
X157432120Y-131827765D01*
X157402914Y-131809865D01*
X157392267Y-131802550D01*
X157378452Y-131791958D01*
X157378448Y-131791956D01*
X157372844Y-131789636D01*
X157372844Y-131789637D01*
X157363803Y-131785896D01*
X157350293Y-131777616D01*
X157327401Y-131770833D01*
X157290210Y-131755444D01*
X157278361Y-131749788D01*
X157263402Y-131741647D01*
X157263399Y-131741646D01*
X157257129Y-131740134D01*
X157238796Y-131734170D01*
X157232836Y-131731704D01*
X157215952Y-131729487D01*
X157203029Y-131727088D01*
X157189783Y-131723894D01*
X157169913Y-131719102D01*
X157157682Y-131715477D01*
X157141011Y-131709587D01*
X157141010Y-131709586D01*
X157135225Y-131709135D01*
X157135225Y-131709134D01*
X157125396Y-131708367D01*
X157110183Y-131704699D01*
X157086132Y-131705303D01*
X157079766Y-131704807D01*
X157079753Y-131704807D01*
X157062403Y-131703454D01*
X157039953Y-131699604D01*
X157039569Y-131699501D01*
X157039563Y-131699500D01*
X157039562Y-131699500D01*
X157039560Y-131699500D01*
X157016532Y-131699500D01*
X157006889Y-131699124D01*
X157003961Y-131698895D01*
X156983929Y-131697332D01*
X156983926Y-131697332D01*
X156983523Y-131697408D01*
X156960844Y-131699500D01*
X144752206Y-131699500D01*
X144685167Y-131679815D01*
X144639412Y-131627011D01*
X144629468Y-131557853D01*
X144658493Y-131494297D01*
X144690206Y-131468113D01*
X144762087Y-131426611D01*
X144807314Y-131400500D01*
X144900500Y-131307314D01*
X144966392Y-131193186D01*
X145000500Y-131065892D01*
X145000500Y-130934108D01*
X144966392Y-130806814D01*
X144966177Y-130806442D01*
X144917113Y-130721460D01*
X144900500Y-130659460D01*
X144900500Y-128862729D01*
X144900501Y-128862716D01*
X144900501Y-128747274D01*
X144900501Y-128747273D01*
X144873207Y-128645413D01*
X144847068Y-128600139D01*
X144820480Y-128554087D01*
X144745913Y-128479520D01*
X144745911Y-128479519D01*
X144545913Y-128279520D01*
X144545911Y-128279519D01*
X144345913Y-128079520D01*
X144345912Y-128079519D01*
X144338848Y-128072455D01*
X144338841Y-128072449D01*
X144245721Y-127979329D01*
X144145913Y-127879520D01*
X144145912Y-127879519D01*
X144136819Y-127870426D01*
X144103334Y-127809103D01*
X144100500Y-127782745D01*
X144100500Y-125947275D01*
X144100500Y-125947273D01*
X144073207Y-125845413D01*
X144062111Y-125826193D01*
X144045500Y-125764196D01*
X144045500Y-124924500D01*
X144065185Y-124857461D01*
X144117989Y-124811706D01*
X144169500Y-124800500D01*
X144352725Y-124800500D01*
X144352727Y-124800500D01*
X144454588Y-124773207D01*
X144545913Y-124720480D01*
X144728472Y-124537918D01*
X144728475Y-124537917D01*
X144745912Y-124520480D01*
X144745913Y-124520480D01*
X144820480Y-124445913D01*
X144873207Y-124354587D01*
X144885874Y-124307314D01*
X144900501Y-124252727D01*
X144900501Y-124147273D01*
X144900501Y-124139678D01*
X144900500Y-124139660D01*
X144900500Y-123262728D01*
X144900500Y-123252729D01*
X144900501Y-123252727D01*
X144900501Y-123159993D01*
X144920186Y-123092954D01*
X144972991Y-123047199D01*
X145032205Y-123038685D01*
X145042148Y-123037256D01*
X145042149Y-123037256D01*
X145071174Y-123050511D01*
X145099806Y-123063587D01*
X145100677Y-123062440D01*
X145227904Y-123158920D01*
X145368556Y-123214386D01*
X145456946Y-123225000D01*
X145550000Y-123225000D01*
X145550000Y-122400000D01*
X144950000Y-122400000D01*
X144950000Y-122718053D01*
X144957136Y-122777481D01*
X144952292Y-122806373D01*
X144950205Y-122835591D01*
X144946583Y-122840429D01*
X144945584Y-122846390D01*
X144925888Y-122868077D01*
X144908337Y-122891527D01*
X144902676Y-122893638D01*
X144898612Y-122898114D01*
X144870314Y-122905711D01*
X144842874Y-122915948D01*
X144836968Y-122914663D01*
X144831132Y-122916231D01*
X144803223Y-122907325D01*
X144774600Y-122901101D01*
X144767826Y-122896030D01*
X144764569Y-122894991D01*
X144746345Y-122879952D01*
X144738847Y-122872455D01*
X144738844Y-122872449D01*
X144738826Y-122872434D01*
X144736796Y-122870404D01*
X144703327Y-122809073D01*
X144700500Y-122782745D01*
X144700500Y-122747275D01*
X144700500Y-122747273D01*
X144673207Y-122645413D01*
X144620480Y-122554087D01*
X144586819Y-122520426D01*
X144553334Y-122459103D01*
X144550500Y-122432745D01*
X144550500Y-121853936D01*
X144555136Y-121820345D01*
X144559343Y-121805394D01*
X144566392Y-121793186D01*
X144596198Y-121681946D01*
X144950000Y-121681946D01*
X144950000Y-122000000D01*
X145550000Y-122000000D01*
X145550000Y-121175000D01*
X145456946Y-121175000D01*
X145368556Y-121185613D01*
X145227904Y-121241079D01*
X145107435Y-121332435D01*
X145016079Y-121452904D01*
X144960613Y-121593556D01*
X144950000Y-121681946D01*
X144596198Y-121681946D01*
X144600500Y-121665892D01*
X144600500Y-121534108D01*
X144566392Y-121406814D01*
X144500500Y-121292686D01*
X144407314Y-121199500D01*
X144350250Y-121166554D01*
X144293187Y-121133608D01*
X144229539Y-121116554D01*
X144165892Y-121099500D01*
X144034108Y-121099500D01*
X143906812Y-121133608D01*
X143792686Y-121199500D01*
X143792683Y-121199502D01*
X143754005Y-121238181D01*
X143692682Y-121271666D01*
X143666324Y-121274500D01*
X143545730Y-121274500D01*
X143515300Y-121277353D01*
X143515298Y-121277353D01*
X143387119Y-121322206D01*
X143387117Y-121322207D01*
X143277850Y-121402850D01*
X143197207Y-121512117D01*
X143197206Y-121512119D01*
X143152353Y-121640298D01*
X143152353Y-121640300D01*
X143149500Y-121670730D01*
X143149500Y-122729269D01*
X143152353Y-122759699D01*
X143152353Y-122759701D01*
X143197206Y-122887880D01*
X143197209Y-122887886D01*
X143274727Y-122992919D01*
X143277358Y-123000123D01*
X143282866Y-123005465D01*
X143289178Y-123032485D01*
X143298698Y-123058547D01*
X143297016Y-123066031D01*
X143298762Y-123073503D01*
X143289463Y-123099648D01*
X143283382Y-123126718D01*
X143277332Y-123133760D01*
X143275350Y-123139334D01*
X143262914Y-123150542D01*
X143250779Y-123164669D01*
X143244173Y-123169773D01*
X143192686Y-123199500D01*
X143148408Y-123243777D01*
X143142146Y-123248617D01*
X143116678Y-123258562D01*
X143092682Y-123271666D01*
X143079496Y-123273083D01*
X143077063Y-123274034D01*
X143074834Y-123273584D01*
X143066324Y-123274500D01*
X141950465Y-123274500D01*
X141950449Y-123274499D01*
X141942853Y-123274499D01*
X141857147Y-123274499D01*
X141801956Y-123289287D01*
X141774360Y-123296682D01*
X141745832Y-123313153D01*
X141737250Y-123318108D01*
X141700138Y-123339535D01*
X141642124Y-123397548D01*
X141642108Y-123397562D01*
X141601492Y-123438180D01*
X141540169Y-123471666D01*
X141513810Y-123474500D01*
X141457145Y-123474500D01*
X141400130Y-123489777D01*
X141330280Y-123488114D01*
X141272418Y-123448950D01*
X141244915Y-123384722D01*
X141256502Y-123315820D01*
X141289371Y-123274150D01*
X141555634Y-123055634D01*
X141829233Y-122722254D01*
X142001481Y-122400000D01*
X142032532Y-122341907D01*
X142032532Y-122341906D01*
X142032534Y-122341903D01*
X142157727Y-121929198D01*
X142200000Y-121500000D01*
X142157727Y-121070801D01*
X142032534Y-120658096D01*
X142032532Y-120658093D01*
X142032532Y-120658091D01*
X141829236Y-120277750D01*
X141829232Y-120277743D01*
X141555634Y-119944364D01*
X141222255Y-119670766D01*
X141222248Y-119670762D01*
X140841907Y-119467466D01*
X140429196Y-119342271D01*
X140000000Y-119300000D01*
X139570802Y-119342271D01*
X139158091Y-119467466D01*
X138777750Y-119670762D01*
X138777743Y-119670766D01*
X138444364Y-119944364D01*
X138170766Y-120277743D01*
X138170762Y-120277750D01*
X137967466Y-120658091D01*
X137842271Y-121070802D01*
X137800000Y-121500000D01*
X137842271Y-121929196D01*
X137967466Y-122341907D01*
X138170762Y-122722248D01*
X138170766Y-122722255D01*
X138444364Y-123055634D01*
X138777743Y-123329232D01*
X138777750Y-123329236D01*
X139158091Y-123532532D01*
X139158093Y-123532532D01*
X139158096Y-123532534D01*
X139570801Y-123657727D01*
X139570800Y-123657727D01*
X139598600Y-123660465D01*
X140000000Y-123700000D01*
X140429198Y-123657727D01*
X140841903Y-123532534D01*
X140929687Y-123485613D01*
X141104125Y-123392374D01*
X141172528Y-123378132D01*
X141237771Y-123403132D01*
X141279142Y-123459437D01*
X141283504Y-123529170D01*
X141250262Y-123589411D01*
X141239534Y-123600139D01*
X141239530Y-123600144D01*
X141196685Y-123674355D01*
X141196682Y-123674362D01*
X141174500Y-123757147D01*
X141174500Y-123813811D01*
X141165855Y-123843250D01*
X141159332Y-123873238D01*
X141155577Y-123878253D01*
X141154815Y-123880850D01*
X141138186Y-123901486D01*
X141089673Y-123950000D01*
X141046606Y-123993067D01*
X141046579Y-123993091D01*
X141026493Y-124013179D01*
X140965171Y-124046666D01*
X140938810Y-124049500D01*
X140821739Y-124049500D01*
X140753608Y-124059426D01*
X140648514Y-124110803D01*
X140565802Y-124193515D01*
X140535154Y-124256207D01*
X140488026Y-124307789D01*
X140420492Y-124325703D01*
X140353993Y-124304262D01*
X140309644Y-124250272D01*
X140306712Y-124242700D01*
X140287346Y-124187354D01*
X140206792Y-124078207D01*
X140097645Y-123997653D01*
X139969602Y-123952850D01*
X139939207Y-123950000D01*
X139935000Y-123950000D01*
X139935000Y-126499999D01*
X139939196Y-126499999D01*
X139969606Y-126497148D01*
X140097645Y-126452346D01*
X140206792Y-126371792D01*
X140287346Y-126262645D01*
X140287347Y-126262643D01*
X140306712Y-126207300D01*
X140347433Y-126150523D01*
X140412385Y-126124775D01*
X140480947Y-126138231D01*
X140531351Y-126186617D01*
X140535155Y-126193793D01*
X140565803Y-126256485D01*
X140648514Y-126339196D01*
X140648515Y-126339196D01*
X140648517Y-126339198D01*
X140753607Y-126390573D01*
X140773580Y-126393483D01*
X140821739Y-126400500D01*
X140821740Y-126400500D01*
X141188261Y-126400500D01*
X141210971Y-126397191D01*
X141256393Y-126390573D01*
X141361483Y-126339198D01*
X141444198Y-126256483D01*
X141474845Y-126193792D01*
X141521971Y-126142211D01*
X141589505Y-126124296D01*
X141656004Y-126145736D01*
X141700355Y-126199725D01*
X141703286Y-126207298D01*
X141722651Y-126262641D01*
X141722653Y-126262645D01*
X141803207Y-126371792D01*
X141912354Y-126452346D01*
X142040397Y-126497149D01*
X142070793Y-126499999D01*
X142074999Y-126499999D01*
X142075000Y-126499998D01*
X142075000Y-125349000D01*
X142077550Y-125340314D01*
X142076262Y-125331353D01*
X142087240Y-125307312D01*
X142094685Y-125281961D01*
X142101525Y-125276033D01*
X142105287Y-125267797D01*
X142127521Y-125253507D01*
X142147489Y-125236206D01*
X142158003Y-125233918D01*
X142164065Y-125230023D01*
X142199000Y-125225000D01*
X142351000Y-125225000D01*
X142418039Y-125244685D01*
X142463794Y-125297489D01*
X142475000Y-125349000D01*
X142475000Y-126480384D01*
X142455315Y-126547423D01*
X142413002Y-126587770D01*
X142392689Y-126599498D01*
X142392683Y-126599502D01*
X142299502Y-126692683D01*
X142299500Y-126692686D01*
X142233608Y-126806812D01*
X142199500Y-126934108D01*
X142199500Y-126988811D01*
X142179815Y-127055850D01*
X142163185Y-127076487D01*
X142046604Y-127193069D01*
X142046603Y-127193068D01*
X141300137Y-127939535D01*
X141100141Y-128139531D01*
X141100139Y-128139535D01*
X141001491Y-128238182D01*
X140940167Y-128271666D01*
X140913810Y-128274500D01*
X140550465Y-128274500D01*
X140550449Y-128274499D01*
X140542853Y-128274499D01*
X140457147Y-128274499D01*
X140401956Y-128289287D01*
X140374360Y-128296682D01*
X140355805Y-128307395D01*
X140337250Y-128318108D01*
X140300138Y-128339535D01*
X140246604Y-128393069D01*
X140246603Y-128393068D01*
X139676491Y-128963181D01*
X139615168Y-128996666D01*
X139588810Y-128999500D01*
X139551739Y-128999500D01*
X139483608Y-129009426D01*
X139378514Y-129060803D01*
X139295803Y-129143514D01*
X139244426Y-129248608D01*
X139234500Y-129316739D01*
X139234500Y-131033260D01*
X139244426Y-131101391D01*
X139295803Y-131206485D01*
X139378514Y-131289196D01*
X139378515Y-131289196D01*
X139378517Y-131289198D01*
X139483607Y-131340573D01*
X139488405Y-131341272D01*
X139551739Y-131350500D01*
X139551740Y-131350500D01*
X139918261Y-131350500D01*
X139940971Y-131347191D01*
X139986393Y-131340573D01*
X140091483Y-131289198D01*
X140174198Y-131206483D01*
X140225573Y-131101393D01*
X140235500Y-131033260D01*
X140235500Y-129376187D01*
X140244143Y-129346751D01*
X140250666Y-129316763D01*
X140254422Y-129311744D01*
X140255185Y-129309148D01*
X140271811Y-129288513D01*
X140289653Y-129270671D01*
X140289658Y-129270668D01*
X140292805Y-129267521D01*
X140297846Y-129264767D01*
X140321874Y-129247449D01*
X140321880Y-129247446D01*
X140323526Y-129250739D01*
X140354123Y-129234026D01*
X140423815Y-129238999D01*
X140479755Y-129280862D01*
X140504183Y-129346322D01*
X140504500Y-129355188D01*
X140504500Y-131033260D01*
X140514426Y-131101391D01*
X140565803Y-131206485D01*
X140648514Y-131289196D01*
X140648515Y-131289196D01*
X140648517Y-131289198D01*
X140753607Y-131340573D01*
X140758405Y-131341272D01*
X140821739Y-131350500D01*
X140821740Y-131350500D01*
X141188261Y-131350500D01*
X141210971Y-131347191D01*
X141256393Y-131340573D01*
X141361483Y-131289198D01*
X141444198Y-131206483D01*
X141495573Y-131101393D01*
X141505500Y-131033260D01*
X141505500Y-130531877D01*
X141509650Y-130516387D01*
X141508996Y-130502641D01*
X141522114Y-130469876D01*
X141543114Y-130433504D01*
X141593681Y-130385289D01*
X141662289Y-130372067D01*
X141727153Y-130398035D01*
X141767681Y-130454950D01*
X141774500Y-130495505D01*
X141774500Y-131033260D01*
X141784426Y-131101391D01*
X141835803Y-131206485D01*
X141918514Y-131289196D01*
X141918515Y-131289196D01*
X141918517Y-131289198D01*
X142023607Y-131340573D01*
X142028405Y-131341272D01*
X142091739Y-131350500D01*
X142091740Y-131350500D01*
X142458261Y-131350500D01*
X142480971Y-131347191D01*
X142526393Y-131340573D01*
X142631483Y-131289198D01*
X142714198Y-131206483D01*
X142765573Y-131101393D01*
X142775500Y-131033260D01*
X142775500Y-129882676D01*
X142780768Y-129864734D01*
X142781037Y-129846034D01*
X142790409Y-129831901D01*
X142795185Y-129815637D01*
X142809315Y-129803392D01*
X142819653Y-129787805D01*
X142835177Y-129780983D01*
X142847989Y-129769882D01*
X142866497Y-129767220D01*
X142883620Y-129759697D01*
X142900365Y-129762350D01*
X142917147Y-129759938D01*
X142934158Y-129767706D01*
X142952628Y-129770634D01*
X142974804Y-129786269D01*
X142980703Y-129788963D01*
X142982042Y-129790140D01*
X142984671Y-129792485D01*
X142992686Y-129800500D01*
X142995436Y-129802088D01*
X143003042Y-129808872D01*
X143019183Y-129834802D01*
X143037189Y-129859461D01*
X143038221Y-129865383D01*
X143039967Y-129868188D01*
X143039871Y-129874850D01*
X143044500Y-129901408D01*
X143044500Y-131033260D01*
X143054426Y-131101391D01*
X143105803Y-131206485D01*
X143188514Y-131289196D01*
X143188515Y-131289196D01*
X143188517Y-131289198D01*
X143293607Y-131340573D01*
X143298405Y-131341272D01*
X143361739Y-131350500D01*
X143361740Y-131350500D01*
X143728261Y-131350500D01*
X143750971Y-131347191D01*
X143796393Y-131340573D01*
X143901483Y-131289198D01*
X143906119Y-131284561D01*
X143967439Y-131251076D01*
X144037131Y-131256057D01*
X144093066Y-131297926D01*
X144097782Y-131305075D01*
X144099498Y-131307311D01*
X144099500Y-131307314D01*
X144192686Y-131400500D01*
X144192687Y-131400501D01*
X144192689Y-131400502D01*
X144309794Y-131468113D01*
X144358010Y-131518680D01*
X144371232Y-131587287D01*
X144345264Y-131652152D01*
X144288350Y-131692680D01*
X144247794Y-131699500D01*
X130560189Y-131699500D01*
X130493150Y-131679815D01*
X130447395Y-131627011D01*
X130437451Y-131557853D01*
X130466476Y-131494297D01*
X130472508Y-131487819D01*
X130823508Y-131136818D01*
X130884831Y-131103333D01*
X130911189Y-131100499D01*
X131229270Y-131100499D01*
X131259699Y-131097645D01*
X131259701Y-131097645D01*
X131345131Y-131067751D01*
X131383870Y-131054196D01*
X134055001Y-131054196D01*
X134057851Y-131084606D01*
X134102653Y-131212645D01*
X134183207Y-131321792D01*
X134292354Y-131402346D01*
X134420397Y-131447149D01*
X134450793Y-131449999D01*
X134454999Y-131449999D01*
X134455000Y-131449998D01*
X134455000Y-130375000D01*
X134055001Y-130375000D01*
X134055001Y-131054196D01*
X131383870Y-131054196D01*
X131387882Y-131052792D01*
X131497150Y-130972149D01*
X131577793Y-130862881D01*
X131604619Y-130786216D01*
X131622646Y-130734700D01*
X131622646Y-130734698D01*
X131625500Y-130704268D01*
X131625500Y-130049500D01*
X131645185Y-129982461D01*
X131697989Y-129936706D01*
X131749500Y-129925500D01*
X133142851Y-129925500D01*
X133142853Y-129925500D01*
X133225639Y-129903318D01*
X133299862Y-129860465D01*
X133560465Y-129599861D01*
X133560465Y-129599860D01*
X133699860Y-129460465D01*
X133699862Y-129460464D01*
X133843319Y-129317007D01*
X133904642Y-129283522D01*
X133974334Y-129288506D01*
X134030267Y-129330378D01*
X134054684Y-129395842D01*
X134055000Y-129404688D01*
X134055000Y-129975000D01*
X134531000Y-129975000D01*
X134598039Y-129994685D01*
X134643794Y-130047489D01*
X134655000Y-130099000D01*
X134655000Y-130175000D01*
X134731000Y-130175000D01*
X134798039Y-130194685D01*
X134843794Y-130247489D01*
X134855000Y-130299000D01*
X134855000Y-131449999D01*
X134859196Y-131449999D01*
X134889606Y-131447148D01*
X135017645Y-131402346D01*
X135126792Y-131321792D01*
X135207346Y-131212645D01*
X135207347Y-131212643D01*
X135226712Y-131157300D01*
X135267433Y-131100523D01*
X135332385Y-131074775D01*
X135400947Y-131088231D01*
X135451351Y-131136617D01*
X135455155Y-131143793D01*
X135485803Y-131206485D01*
X135568514Y-131289196D01*
X135568515Y-131289196D01*
X135568517Y-131289198D01*
X135673607Y-131340573D01*
X135678405Y-131341272D01*
X135741739Y-131350500D01*
X135741740Y-131350500D01*
X136108261Y-131350500D01*
X136130971Y-131347191D01*
X136176393Y-131340573D01*
X136281483Y-131289198D01*
X136364198Y-131206483D01*
X136415573Y-131101393D01*
X136425500Y-131033260D01*
X136425500Y-129695506D01*
X136426360Y-129692576D01*
X136425640Y-129689607D01*
X136436142Y-129659260D01*
X136445185Y-129628467D01*
X136447492Y-129626467D01*
X136448492Y-129623580D01*
X136473737Y-129603725D01*
X136497989Y-129582712D01*
X136501010Y-129582277D01*
X136503412Y-129580389D01*
X136535368Y-129577337D01*
X136567147Y-129572768D01*
X136569926Y-129574037D01*
X136572966Y-129573747D01*
X136601496Y-129588454D01*
X136630703Y-129601793D01*
X136633173Y-129604784D01*
X136635069Y-129605762D01*
X136656886Y-129633505D01*
X136677886Y-129669877D01*
X136694500Y-129731878D01*
X136694500Y-131033260D01*
X136704426Y-131101391D01*
X136755803Y-131206485D01*
X136838514Y-131289196D01*
X136838515Y-131289196D01*
X136838517Y-131289198D01*
X136943607Y-131340573D01*
X136948405Y-131341272D01*
X137011739Y-131350500D01*
X137011740Y-131350500D01*
X137378261Y-131350500D01*
X137400971Y-131347191D01*
X137446393Y-131340573D01*
X137551483Y-131289198D01*
X137634198Y-131206483D01*
X137685573Y-131101393D01*
X137695500Y-131033260D01*
X137695500Y-129355188D01*
X137701738Y-129333942D01*
X137703318Y-129311854D01*
X137711390Y-129301070D01*
X137715185Y-129288149D01*
X137731918Y-129273649D01*
X137745190Y-129255921D01*
X137757810Y-129251213D01*
X137767989Y-129242394D01*
X137789906Y-129239242D01*
X137810654Y-129231504D01*
X137823814Y-129234366D01*
X137837147Y-129232450D01*
X137857290Y-129241649D01*
X137878927Y-129246356D01*
X137896652Y-129259624D01*
X137900703Y-129261475D01*
X137907181Y-129267507D01*
X137928181Y-129288507D01*
X137961666Y-129349830D01*
X137964500Y-129376188D01*
X137964500Y-131033260D01*
X137974426Y-131101391D01*
X138025803Y-131206485D01*
X138108514Y-131289196D01*
X138108515Y-131289196D01*
X138108517Y-131289198D01*
X138213607Y-131340573D01*
X138218405Y-131341272D01*
X138281739Y-131350500D01*
X138281740Y-131350500D01*
X138648261Y-131350500D01*
X138670971Y-131347191D01*
X138716393Y-131340573D01*
X138821483Y-131289198D01*
X138904198Y-131206483D01*
X138955573Y-131101393D01*
X138965500Y-131033260D01*
X138965500Y-129316740D01*
X138955573Y-129248607D01*
X138904198Y-129143517D01*
X138904196Y-129143515D01*
X138904196Y-129143514D01*
X138821485Y-129060803D01*
X138716391Y-129009426D01*
X138648261Y-128999500D01*
X138648260Y-128999500D01*
X138611191Y-128999500D01*
X138581753Y-128990856D01*
X138551768Y-128984334D01*
X138546750Y-128980577D01*
X138544152Y-128979815D01*
X138523513Y-128963184D01*
X138506870Y-128946542D01*
X138499862Y-128939534D01*
X138499859Y-128939532D01*
X138360466Y-128800139D01*
X138360465Y-128800138D01*
X137899862Y-128339535D01*
X137862750Y-128318108D01*
X137825640Y-128296682D01*
X137761588Y-128279520D01*
X137742853Y-128274500D01*
X137742852Y-128274500D01*
X134150465Y-128274500D01*
X134150449Y-128274499D01*
X134142853Y-128274499D01*
X134057147Y-128274499D01*
X134001956Y-128289287D01*
X133974360Y-128296682D01*
X133955805Y-128307395D01*
X133937250Y-128318108D01*
X133900138Y-128339535D01*
X133846604Y-128393069D01*
X133846603Y-128393068D01*
X133300137Y-128939535D01*
X133100141Y-129139531D01*
X133100139Y-129139535D01*
X133001491Y-129238182D01*
X132940167Y-129271666D01*
X132913810Y-129274500D01*
X131257147Y-129274500D01*
X131179615Y-129295274D01*
X131147525Y-129299499D01*
X130595730Y-129299499D01*
X130565300Y-129302352D01*
X130565298Y-129302352D01*
X130437119Y-129347205D01*
X130437117Y-129347206D01*
X130327850Y-129427849D01*
X130247207Y-129537116D01*
X130210367Y-129642397D01*
X130169645Y-129699173D01*
X130104692Y-129724919D01*
X130036130Y-129711462D01*
X129985728Y-129663074D01*
X129973552Y-129633537D01*
X129966392Y-129606814D01*
X129900500Y-129492686D01*
X129807314Y-129399500D01*
X129730564Y-129355188D01*
X129693187Y-129333608D01*
X129611998Y-129311854D01*
X129565892Y-129299500D01*
X129434108Y-129299500D01*
X129432557Y-129299500D01*
X129418809Y-129300370D01*
X129413291Y-129300345D01*
X129404266Y-129299499D01*
X129224167Y-129299499D01*
X129223944Y-129299498D01*
X129190664Y-129289563D01*
X129157460Y-129279814D01*
X129157271Y-129279596D01*
X129156993Y-129279513D01*
X129134311Y-129253098D01*
X129111705Y-129227010D01*
X129111635Y-129226692D01*
X129111475Y-129226505D01*
X129111261Y-129224971D01*
X129100499Y-129175499D01*
X129100499Y-127147682D01*
X131300000Y-127147682D01*
X131300000Y-127352317D01*
X131332009Y-127554417D01*
X131395244Y-127749031D01*
X131488139Y-127931347D01*
X131550279Y-128016876D01*
X132057241Y-127509914D01*
X132119881Y-127618408D01*
X132231592Y-127730119D01*
X132340083Y-127792757D01*
X131833121Y-128299719D01*
X131833122Y-128299720D01*
X131918640Y-128361852D01*
X131918649Y-128361858D01*
X132100968Y-128454755D01*
X132295582Y-128517990D01*
X132497683Y-128550000D01*
X132702317Y-128550000D01*
X132904417Y-128517990D01*
X133099031Y-128454755D01*
X133281349Y-128361859D01*
X133366876Y-128299719D01*
X133366877Y-128299718D01*
X132859916Y-127792757D01*
X132968408Y-127730119D01*
X133080119Y-127618408D01*
X133142757Y-127509915D01*
X133649718Y-128016877D01*
X133649719Y-128016876D01*
X133711859Y-127931349D01*
X133804755Y-127749031D01*
X133867990Y-127554417D01*
X133900000Y-127352317D01*
X133900000Y-127147682D01*
X133867990Y-126945582D01*
X133804755Y-126750968D01*
X133711858Y-126568649D01*
X133711852Y-126568640D01*
X133649720Y-126483122D01*
X133649719Y-126483121D01*
X133142757Y-126990083D01*
X133080119Y-126881592D01*
X132968408Y-126769881D01*
X132859914Y-126707241D01*
X133366876Y-126200279D01*
X133281347Y-126138139D01*
X133099031Y-126045244D01*
X132904417Y-125982009D01*
X132702317Y-125950000D01*
X132497683Y-125950000D01*
X132295582Y-125982009D01*
X132100968Y-126045244D01*
X131918648Y-126138141D01*
X131833122Y-126200278D01*
X131833122Y-126200279D01*
X132340085Y-126707242D01*
X132231592Y-126769881D01*
X132119881Y-126881592D01*
X132057242Y-126990085D01*
X131550279Y-126483122D01*
X131550278Y-126483122D01*
X131488141Y-126568648D01*
X131395244Y-126750968D01*
X131332009Y-126945582D01*
X131300000Y-127147682D01*
X129100499Y-127147682D01*
X129100499Y-124974743D01*
X129100500Y-124947274D01*
X129073206Y-124845413D01*
X129047276Y-124800501D01*
X129020479Y-124754087D01*
X128945912Y-124679520D01*
X128945910Y-124679519D01*
X128545913Y-124279520D01*
X128545912Y-124279519D01*
X128538854Y-124272461D01*
X128538846Y-124272454D01*
X128506036Y-124239644D01*
X128472553Y-124178321D01*
X128477539Y-124108630D01*
X128519411Y-124052697D01*
X128584876Y-124028281D01*
X128647520Y-124040244D01*
X128897860Y-124160802D01*
X128990408Y-124193186D01*
X129202693Y-124267468D01*
X129202705Y-124267472D01*
X129517577Y-124339339D01*
X129838511Y-124375499D01*
X129838512Y-124375500D01*
X129838515Y-124375500D01*
X130161488Y-124375500D01*
X130161488Y-124375499D01*
X130482423Y-124339339D01*
X130797295Y-124267472D01*
X131102140Y-124160802D01*
X131393125Y-124020671D01*
X131666591Y-123848841D01*
X131919099Y-123647473D01*
X132147473Y-123419099D01*
X132348841Y-123166591D01*
X132520671Y-122893125D01*
X132660802Y-122602140D01*
X132731534Y-122400000D01*
X132733459Y-122394500D01*
X132774180Y-122337724D01*
X132839133Y-122311977D01*
X132907695Y-122325433D01*
X132958097Y-122373821D01*
X132974500Y-122435455D01*
X132974500Y-123157147D01*
X132974500Y-123242853D01*
X132980807Y-123266392D01*
X132996682Y-123325640D01*
X133004705Y-123339535D01*
X133039535Y-123399862D01*
X133239535Y-123599861D01*
X133435193Y-123795520D01*
X133435203Y-123795531D01*
X133439533Y-123799861D01*
X133439534Y-123799862D01*
X133500137Y-123860465D01*
X133500139Y-123860466D01*
X133500143Y-123860469D01*
X133564862Y-123897834D01*
X133574361Y-123903318D01*
X133634963Y-123919556D01*
X133657145Y-123925500D01*
X133657146Y-123925500D01*
X133981251Y-123925500D01*
X134048290Y-123945185D01*
X134094045Y-123997989D01*
X134103989Y-124067147D01*
X134088639Y-124111497D01*
X134067984Y-124147273D01*
X134033608Y-124206812D01*
X134013771Y-124280848D01*
X133999500Y-124334108D01*
X133999500Y-124465892D01*
X134013836Y-124519396D01*
X134033608Y-124593187D01*
X134043837Y-124610903D01*
X134099500Y-124707314D01*
X134099502Y-124707316D01*
X134118181Y-124725995D01*
X134151666Y-124787318D01*
X134154500Y-124813676D01*
X134154500Y-126083260D01*
X134164426Y-126151391D01*
X134215803Y-126256485D01*
X134298514Y-126339196D01*
X134298515Y-126339196D01*
X134298517Y-126339198D01*
X134403607Y-126390573D01*
X134423580Y-126393483D01*
X134471739Y-126400500D01*
X134471740Y-126400500D01*
X134838261Y-126400500D01*
X134860971Y-126397191D01*
X134906393Y-126390573D01*
X135011483Y-126339198D01*
X135094198Y-126256483D01*
X135145573Y-126151393D01*
X135155500Y-126083260D01*
X135155500Y-124566763D01*
X135158687Y-124555906D01*
X135157487Y-124544655D01*
X135168354Y-124522984D01*
X135175185Y-124499724D01*
X135183736Y-124492314D01*
X135188809Y-124482199D01*
X135209669Y-124469843D01*
X135227989Y-124453969D01*
X135239188Y-124452358D01*
X135248924Y-124446592D01*
X135273150Y-124447475D01*
X135297147Y-124444025D01*
X135307440Y-124448725D01*
X135318748Y-124449138D01*
X135338651Y-124462979D01*
X135360703Y-124473050D01*
X135368306Y-124483601D01*
X135376110Y-124489029D01*
X135394097Y-124519396D01*
X135394283Y-124519846D01*
X135399317Y-124534586D01*
X135400227Y-124537921D01*
X135417119Y-124599861D01*
X135420131Y-124610903D01*
X135424500Y-124643530D01*
X135424500Y-126083260D01*
X135434426Y-126151391D01*
X135485803Y-126256485D01*
X135568514Y-126339196D01*
X135568515Y-126339196D01*
X135568517Y-126339198D01*
X135673607Y-126390573D01*
X135693580Y-126393483D01*
X135741739Y-126400500D01*
X135741740Y-126400500D01*
X136108261Y-126400500D01*
X136130971Y-126397191D01*
X136176393Y-126390573D01*
X136281483Y-126339198D01*
X136364198Y-126256483D01*
X136415573Y-126151393D01*
X136425500Y-126083260D01*
X136425500Y-124485189D01*
X136431738Y-124463943D01*
X136433318Y-124441855D01*
X136441390Y-124431071D01*
X136445185Y-124418150D01*
X136461918Y-124403650D01*
X136475190Y-124385922D01*
X136487810Y-124381214D01*
X136497989Y-124372395D01*
X136519906Y-124369243D01*
X136540654Y-124361505D01*
X136553814Y-124364367D01*
X136567147Y-124362451D01*
X136587290Y-124371650D01*
X136608927Y-124376357D01*
X136626652Y-124389625D01*
X136630703Y-124391476D01*
X136637181Y-124397508D01*
X136639533Y-124399860D01*
X136639535Y-124399862D01*
X136658179Y-124418506D01*
X136691666Y-124479828D01*
X136694500Y-124506189D01*
X136694500Y-126083260D01*
X136704426Y-126151391D01*
X136755803Y-126256485D01*
X136838514Y-126339196D01*
X136838515Y-126339196D01*
X136838517Y-126339198D01*
X136943607Y-126390573D01*
X136963580Y-126393483D01*
X137011739Y-126400500D01*
X137011740Y-126400500D01*
X137378261Y-126400500D01*
X137400971Y-126397191D01*
X137446393Y-126390573D01*
X137551483Y-126339198D01*
X137634198Y-126256483D01*
X137685573Y-126151393D01*
X137695500Y-126083260D01*
X137695500Y-124366740D01*
X137695500Y-124366739D01*
X137964500Y-124366739D01*
X137964500Y-126083260D01*
X137974426Y-126151391D01*
X138025803Y-126256485D01*
X138108514Y-126339196D01*
X138108515Y-126339196D01*
X138108517Y-126339198D01*
X138213607Y-126390573D01*
X138222258Y-126394802D01*
X138221505Y-126396340D01*
X138270339Y-126428698D01*
X138298473Y-126492653D01*
X138299500Y-126508582D01*
X138299500Y-126859460D01*
X138282887Y-126921460D01*
X138233609Y-127006810D01*
X138233609Y-127006811D01*
X138233608Y-127006813D01*
X138233608Y-127006814D01*
X138204436Y-127115687D01*
X138199500Y-127134108D01*
X138199500Y-127265891D01*
X138233608Y-127393187D01*
X138252123Y-127425255D01*
X138299500Y-127507314D01*
X138392686Y-127600500D01*
X138506814Y-127666392D01*
X138634108Y-127700500D01*
X138634110Y-127700500D01*
X138765890Y-127700500D01*
X138765892Y-127700500D01*
X138893186Y-127666392D01*
X139007314Y-127600500D01*
X139100500Y-127507314D01*
X139166392Y-127393186D01*
X139200500Y-127265892D01*
X139200500Y-127134108D01*
X139166392Y-127006814D01*
X139162378Y-126999862D01*
X139117113Y-126921460D01*
X139100500Y-126859460D01*
X139100500Y-126497338D01*
X139120185Y-126430299D01*
X139172989Y-126384544D01*
X139242147Y-126374600D01*
X139298134Y-126397568D01*
X139372355Y-126452346D01*
X139372354Y-126452346D01*
X139500397Y-126497149D01*
X139530793Y-126499999D01*
X139534999Y-126499999D01*
X139535000Y-126499998D01*
X139535000Y-123950000D01*
X139530796Y-123950001D01*
X139530774Y-123950002D01*
X139500399Y-123952850D01*
X139500394Y-123952851D01*
X139372354Y-123997653D01*
X139263207Y-124078207D01*
X139182653Y-124187354D01*
X139182651Y-124187359D01*
X139163286Y-124242701D01*
X139122564Y-124299477D01*
X139057611Y-124325224D01*
X138989050Y-124311767D01*
X138938647Y-124263380D01*
X138934845Y-124256207D01*
X138904198Y-124193517D01*
X138904196Y-124193515D01*
X138904196Y-124193514D01*
X138821485Y-124110803D01*
X138716391Y-124059426D01*
X138648261Y-124049500D01*
X138648260Y-124049500D01*
X138281740Y-124049500D01*
X138281739Y-124049500D01*
X138213608Y-124059426D01*
X138108514Y-124110803D01*
X138025803Y-124193514D01*
X137974426Y-124298608D01*
X137964500Y-124366739D01*
X137695500Y-124366739D01*
X137692477Y-124345995D01*
X137685573Y-124298608D01*
X137676242Y-124279520D01*
X137634198Y-124193517D01*
X137634196Y-124193515D01*
X137634196Y-124193514D01*
X137551485Y-124110803D01*
X137446391Y-124059426D01*
X137378261Y-124049500D01*
X137378260Y-124049500D01*
X137261189Y-124049500D01*
X137231748Y-124040855D01*
X137201762Y-124034332D01*
X137196746Y-124030577D01*
X137194150Y-124029815D01*
X137173508Y-124013181D01*
X137061819Y-123901492D01*
X137028334Y-123840169D01*
X137025500Y-123813811D01*
X137025500Y-122357149D01*
X137025500Y-122357147D01*
X137003318Y-122274362D01*
X136998781Y-122266503D01*
X136960469Y-122200144D01*
X136960463Y-122200136D01*
X135436819Y-120676492D01*
X135403334Y-120615169D01*
X135400500Y-120588811D01*
X135400500Y-120270730D01*
X135397646Y-120240300D01*
X135397646Y-120240298D01*
X135352793Y-120112119D01*
X135352792Y-120112117D01*
X135348925Y-120106877D01*
X135332560Y-120084703D01*
X135308590Y-120019076D01*
X135323905Y-119950905D01*
X135373646Y-119901837D01*
X135400232Y-119891298D01*
X135493186Y-119866392D01*
X135607314Y-119800500D01*
X135700500Y-119707314D01*
X135766392Y-119593186D01*
X135800500Y-119465892D01*
X135800500Y-119334108D01*
X135766392Y-119206814D01*
X135700500Y-119092686D01*
X135607314Y-118999500D01*
X135550250Y-118966554D01*
X135493187Y-118933608D01*
X135429539Y-118916554D01*
X135365892Y-118899500D01*
X135365891Y-118899500D01*
X135311189Y-118899500D01*
X135244150Y-118879815D01*
X135223508Y-118863181D01*
X134092793Y-117732466D01*
X134092793Y-117732467D01*
X133960464Y-117600139D01*
X133960464Y-117600138D01*
X133904976Y-117544650D01*
X133871491Y-117483327D01*
X133876475Y-117413635D01*
X133904976Y-117369288D01*
X133945544Y-117328720D01*
X134006867Y-117295235D01*
X134076559Y-117300219D01*
X134120906Y-117328720D01*
X134192686Y-117400500D01*
X134306814Y-117466392D01*
X134434108Y-117500500D01*
X134434110Y-117500500D01*
X134565890Y-117500500D01*
X134565892Y-117500500D01*
X134693186Y-117466392D01*
X134807314Y-117400500D01*
X134879096Y-117328717D01*
X134940415Y-117295235D01*
X135010107Y-117300219D01*
X135054455Y-117328720D01*
X135127520Y-117401785D01*
X135127525Y-117401788D01*
X135230123Y-117447089D01*
X135255205Y-117449999D01*
X135299999Y-117449999D01*
X135700000Y-117449999D01*
X135744786Y-117449999D01*
X135744808Y-117449997D01*
X135769869Y-117447091D01*
X135769873Y-117447090D01*
X135872474Y-117401788D01*
X135872479Y-117401785D01*
X135951785Y-117322479D01*
X135951788Y-117322474D01*
X135997089Y-117219877D01*
X135997089Y-117219875D01*
X135999999Y-117194794D01*
X136000000Y-117194791D01*
X136000000Y-116850000D01*
X135700000Y-116850000D01*
X135700000Y-117449999D01*
X135299999Y-117449999D01*
X135300000Y-117449998D01*
X135300000Y-116450000D01*
X135700000Y-116450000D01*
X135999999Y-116450000D01*
X135999999Y-116105214D01*
X135999997Y-116105191D01*
X135997091Y-116080130D01*
X135997090Y-116080126D01*
X135951788Y-115977525D01*
X135951785Y-115977520D01*
X135872479Y-115898214D01*
X135872474Y-115898211D01*
X135769876Y-115852910D01*
X135744794Y-115850000D01*
X135700000Y-115850000D01*
X135700000Y-116450000D01*
X135300000Y-116450000D01*
X135300000Y-115850000D01*
X135255203Y-115850000D01*
X135230130Y-115852908D01*
X135230126Y-115852909D01*
X135127525Y-115898211D01*
X135127520Y-115898214D01*
X135048214Y-115977520D01*
X135041717Y-115987005D01*
X135039496Y-115985483D01*
X135005301Y-116025960D01*
X134938513Y-116046483D01*
X134871232Y-116027640D01*
X134849279Y-116010174D01*
X134844553Y-116005448D01*
X134778230Y-115961132D01*
X134778229Y-115961131D01*
X134719752Y-115949500D01*
X134719748Y-115949500D01*
X134280252Y-115949500D01*
X134280247Y-115949500D01*
X134221770Y-115961131D01*
X134221769Y-115961132D01*
X134155447Y-116005447D01*
X134150717Y-116010178D01*
X134089393Y-116043660D01*
X134019701Y-116038673D01*
X133963769Y-115996800D01*
X133956634Y-115984598D01*
X133951785Y-115977520D01*
X133872479Y-115898214D01*
X133872474Y-115898211D01*
X133769876Y-115852910D01*
X133744794Y-115850000D01*
X133700000Y-115850000D01*
X133700000Y-116526000D01*
X133697449Y-116534685D01*
X133698738Y-116543647D01*
X133687759Y-116567687D01*
X133680315Y-116593039D01*
X133673474Y-116598966D01*
X133669713Y-116607203D01*
X133647478Y-116621492D01*
X133627511Y-116638794D01*
X133616996Y-116641081D01*
X133610935Y-116644977D01*
X133576000Y-116650000D01*
X133424000Y-116650000D01*
X133356961Y-116630315D01*
X133311206Y-116577511D01*
X133300000Y-116526000D01*
X133300000Y-115850000D01*
X133255203Y-115850000D01*
X133230130Y-115852908D01*
X133230126Y-115852909D01*
X133127525Y-115898211D01*
X133127520Y-115898214D01*
X133048214Y-115977520D01*
X133041717Y-115987005D01*
X133039496Y-115985483D01*
X133005301Y-116025960D01*
X132938513Y-116046483D01*
X132871232Y-116027640D01*
X132849279Y-116010174D01*
X132844553Y-116005448D01*
X132778230Y-115961132D01*
X132778229Y-115961131D01*
X132719752Y-115949500D01*
X132719748Y-115949500D01*
X132280252Y-115949500D01*
X132280247Y-115949500D01*
X132221770Y-115961131D01*
X132221769Y-115961132D01*
X132155447Y-116005447D01*
X132150717Y-116010178D01*
X132089393Y-116043660D01*
X132019701Y-116038673D01*
X131963769Y-115996800D01*
X131956634Y-115984598D01*
X131951785Y-115977520D01*
X131872479Y-115898214D01*
X131872474Y-115898211D01*
X131769876Y-115852910D01*
X131744794Y-115850000D01*
X131700000Y-115850000D01*
X131700000Y-117449999D01*
X131744786Y-117449999D01*
X131744808Y-117449997D01*
X131769869Y-117447091D01*
X131769873Y-117447090D01*
X131872474Y-117401788D01*
X131872479Y-117401785D01*
X131959912Y-117314353D01*
X131962004Y-117316445D01*
X132002323Y-117283532D01*
X132071743Y-117275623D01*
X132134419Y-117306502D01*
X132170452Y-117366364D01*
X132174500Y-117397790D01*
X132174500Y-117442853D01*
X132189947Y-117500500D01*
X132196682Y-117525637D01*
X132196685Y-117525644D01*
X132239530Y-117599855D01*
X132239534Y-117599860D01*
X132239535Y-117599862D01*
X132300138Y-117660465D01*
X132300139Y-117660466D01*
X132439534Y-117799861D01*
X132439535Y-117799862D01*
X132639533Y-117999860D01*
X132639535Y-117999862D01*
X132700138Y-118060465D01*
X132700140Y-118060466D01*
X132700144Y-118060469D01*
X132774355Y-118103314D01*
X132774362Y-118103318D01*
X132857147Y-118125500D01*
X132857148Y-118125500D01*
X132942853Y-118125500D01*
X133513811Y-118125500D01*
X133580850Y-118145185D01*
X133601492Y-118161819D01*
X134763181Y-119323508D01*
X134796666Y-119384831D01*
X134799500Y-119411189D01*
X134799500Y-119465892D01*
X134816554Y-119529539D01*
X134833608Y-119593187D01*
X134837622Y-119600139D01*
X134888638Y-119688501D01*
X134905111Y-119756399D01*
X134882259Y-119822426D01*
X134827338Y-119865617D01*
X134781251Y-119874500D01*
X133995730Y-119874500D01*
X133965300Y-119877353D01*
X133965298Y-119877353D01*
X133837119Y-119922206D01*
X133837117Y-119922207D01*
X133767068Y-119973905D01*
X133727850Y-120002850D01*
X133727849Y-120002850D01*
X133720374Y-120008368D01*
X133718346Y-120005620D01*
X133671822Y-120031001D01*
X133602132Y-120025988D01*
X133557832Y-119997505D01*
X133092797Y-119532470D01*
X133092790Y-119532464D01*
X132899860Y-119339535D01*
X132699862Y-119139536D01*
X132499862Y-118939535D01*
X132092797Y-118532470D01*
X132092790Y-118532464D01*
X131899860Y-118339535D01*
X131699862Y-118139536D01*
X131499862Y-117939535D01*
X131222006Y-117661679D01*
X131188521Y-117600356D01*
X131193505Y-117530664D01*
X131235377Y-117474731D01*
X131298996Y-117451001D01*
X131300000Y-117449998D01*
X131300000Y-115850000D01*
X131255203Y-115850000D01*
X131230130Y-115852908D01*
X131230126Y-115852909D01*
X131127525Y-115898211D01*
X131127520Y-115898214D01*
X131048214Y-115977520D01*
X131041717Y-115987005D01*
X131039496Y-115985483D01*
X131005301Y-116025960D01*
X130938513Y-116046483D01*
X130871232Y-116027640D01*
X130849279Y-116010174D01*
X130844553Y-116005448D01*
X130778230Y-115961132D01*
X130778229Y-115961131D01*
X130719752Y-115949500D01*
X130719748Y-115949500D01*
X130280252Y-115949500D01*
X130280247Y-115949500D01*
X130221770Y-115961131D01*
X130221769Y-115961132D01*
X130155447Y-116005447D01*
X130150717Y-116010178D01*
X130089393Y-116043660D01*
X130019701Y-116038673D01*
X129963769Y-115996800D01*
X129956634Y-115984598D01*
X129951785Y-115977520D01*
X129872479Y-115898214D01*
X129872474Y-115898211D01*
X129769876Y-115852910D01*
X129744794Y-115850000D01*
X129700000Y-115850000D01*
X129700000Y-117449999D01*
X129744786Y-117449999D01*
X129744808Y-117449997D01*
X129769869Y-117447091D01*
X129769873Y-117447090D01*
X129872474Y-117401788D01*
X129872479Y-117401785D01*
X129959912Y-117314353D01*
X129962004Y-117316445D01*
X130002323Y-117283532D01*
X130071743Y-117275623D01*
X130134419Y-117306502D01*
X130170452Y-117366364D01*
X130174500Y-117397790D01*
X130174500Y-117442853D01*
X130189947Y-117500500D01*
X130196682Y-117525637D01*
X130196685Y-117525644D01*
X130239530Y-117599855D01*
X130239534Y-117599860D01*
X130239535Y-117599862D01*
X130300138Y-117660465D01*
X130300139Y-117660466D01*
X130439534Y-117799861D01*
X130439535Y-117799862D01*
X130639533Y-117999860D01*
X130639535Y-117999862D01*
X130839533Y-118199860D01*
X130839535Y-118199862D01*
X131039533Y-118399860D01*
X131039535Y-118399862D01*
X131239535Y-118599861D01*
X131300139Y-118660465D01*
X131312770Y-118673096D01*
X131346254Y-118734420D01*
X131341269Y-118804111D01*
X131299398Y-118860045D01*
X131233933Y-118884461D01*
X131171286Y-118872497D01*
X131102147Y-118839201D01*
X131102133Y-118839195D01*
X130797306Y-118732531D01*
X130797294Y-118732527D01*
X130482426Y-118660661D01*
X130482410Y-118660659D01*
X130161489Y-118624500D01*
X130161485Y-118624500D01*
X129838515Y-118624500D01*
X129838510Y-118624500D01*
X129517589Y-118660659D01*
X129517573Y-118660661D01*
X129202705Y-118732527D01*
X129202693Y-118732531D01*
X128897866Y-118839195D01*
X128897852Y-118839201D01*
X128606877Y-118979327D01*
X128333410Y-119151158D01*
X128080901Y-119352526D01*
X127852526Y-119580901D01*
X127651158Y-119833410D01*
X127479327Y-120106877D01*
X127339201Y-120397852D01*
X127339195Y-120397866D01*
X127232531Y-120702693D01*
X127232527Y-120702705D01*
X127160661Y-121017573D01*
X127160659Y-121017589D01*
X127147720Y-121132427D01*
X127120653Y-121196841D01*
X127063059Y-121236396D01*
X126993222Y-121238533D01*
X126933315Y-121202575D01*
X126902360Y-121139937D01*
X126900500Y-121118543D01*
X126900500Y-117474127D01*
X126920185Y-117407088D01*
X126972989Y-117361333D01*
X127042147Y-117351389D01*
X127105703Y-117380414D01*
X127112181Y-117386446D01*
X127127520Y-117401785D01*
X127127525Y-117401788D01*
X127230123Y-117447089D01*
X127255205Y-117449999D01*
X127299999Y-117449999D01*
X127700000Y-117449999D01*
X127744786Y-117449999D01*
X127744808Y-117449997D01*
X127769869Y-117447091D01*
X127769873Y-117447090D01*
X127872474Y-117401788D01*
X127872475Y-117401788D01*
X127945543Y-117328720D01*
X128006866Y-117295235D01*
X128076558Y-117300219D01*
X128120906Y-117328720D01*
X128192686Y-117400500D01*
X128306814Y-117466392D01*
X128434108Y-117500500D01*
X128434110Y-117500500D01*
X128565890Y-117500500D01*
X128565892Y-117500500D01*
X128693186Y-117466392D01*
X128807314Y-117400500D01*
X128879096Y-117328717D01*
X128940415Y-117295235D01*
X129010107Y-117300219D01*
X129054455Y-117328720D01*
X129127520Y-117401785D01*
X129127525Y-117401788D01*
X129230123Y-117447089D01*
X129255205Y-117449999D01*
X129299999Y-117449999D01*
X129300000Y-117449998D01*
X129300000Y-115850000D01*
X129255203Y-115850000D01*
X129230130Y-115852908D01*
X129230126Y-115852909D01*
X129127525Y-115898211D01*
X129127520Y-115898214D01*
X129048214Y-115977520D01*
X129041717Y-115987005D01*
X129039496Y-115985483D01*
X129005301Y-116025960D01*
X128938513Y-116046483D01*
X128871232Y-116027640D01*
X128849279Y-116010174D01*
X128844553Y-116005448D01*
X128778230Y-115961132D01*
X128778229Y-115961131D01*
X128719752Y-115949500D01*
X128719748Y-115949500D01*
X128280252Y-115949500D01*
X128280247Y-115949500D01*
X128221770Y-115961131D01*
X128221769Y-115961132D01*
X128155447Y-116005447D01*
X128150717Y-116010178D01*
X128089393Y-116043660D01*
X128019701Y-116038673D01*
X127963769Y-115996800D01*
X127956634Y-115984598D01*
X127951785Y-115977520D01*
X127872479Y-115898214D01*
X127872474Y-115898211D01*
X127769876Y-115852910D01*
X127744794Y-115850000D01*
X127700000Y-115850000D01*
X127700000Y-117449999D01*
X127299999Y-117449999D01*
X127300000Y-117449998D01*
X127300000Y-115850000D01*
X127255203Y-115850000D01*
X127230130Y-115852908D01*
X127230126Y-115852909D01*
X127127525Y-115898211D01*
X127127520Y-115898214D01*
X127048214Y-115977520D01*
X127041717Y-115987005D01*
X127039496Y-115985483D01*
X127005301Y-116025960D01*
X126938513Y-116046483D01*
X126871232Y-116027640D01*
X126849279Y-116010174D01*
X126844553Y-116005448D01*
X126778230Y-115961132D01*
X126778229Y-115961131D01*
X126719752Y-115949500D01*
X126719748Y-115949500D01*
X126280252Y-115949500D01*
X126280247Y-115949500D01*
X126221770Y-115961131D01*
X126221769Y-115961132D01*
X126155447Y-116005447D01*
X126104348Y-116081923D01*
X126101333Y-116079908D01*
X126070707Y-116117904D01*
X126004410Y-116139961D01*
X125936713Y-116122673D01*
X125897582Y-116080632D01*
X125895652Y-116081923D01*
X125844552Y-116005447D01*
X125778230Y-115961132D01*
X125778229Y-115961131D01*
X125719752Y-115949500D01*
X125719748Y-115949500D01*
X125280252Y-115949500D01*
X125280247Y-115949500D01*
X125221770Y-115961131D01*
X125221769Y-115961132D01*
X125155447Y-116005447D01*
X125104348Y-116081923D01*
X125101333Y-116079908D01*
X125070707Y-116117904D01*
X125004410Y-116139961D01*
X124936713Y-116122673D01*
X124897582Y-116080632D01*
X124895652Y-116081923D01*
X124844552Y-116005447D01*
X124778230Y-115961132D01*
X124778229Y-115961131D01*
X124719752Y-115949500D01*
X124719748Y-115949500D01*
X124280252Y-115949500D01*
X124280247Y-115949500D01*
X124221770Y-115961131D01*
X124221769Y-115961132D01*
X124155447Y-116005447D01*
X124111132Y-116071769D01*
X124111131Y-116071770D01*
X124099500Y-116130247D01*
X124099500Y-117169752D01*
X124113515Y-117240210D01*
X124112387Y-117240434D01*
X124118527Y-117297511D01*
X124087255Y-117359991D01*
X124027168Y-117395647D01*
X123996496Y-117399500D01*
X115317255Y-117399500D01*
X115287818Y-117390856D01*
X115257829Y-117384333D01*
X115252812Y-117380577D01*
X115250216Y-117379815D01*
X115229579Y-117363186D01*
X115145913Y-117279520D01*
X115145911Y-117279519D01*
X114945913Y-117079520D01*
X114476123Y-116609730D01*
X114442638Y-116548407D01*
X114447622Y-116478715D01*
X114489494Y-116422782D01*
X114554958Y-116398365D01*
X114575376Y-116398590D01*
X114595734Y-116400500D01*
X114959460Y-116400500D01*
X115021460Y-116417113D01*
X115022870Y-116417927D01*
X115106814Y-116466392D01*
X115234108Y-116500500D01*
X115234110Y-116500500D01*
X115365890Y-116500500D01*
X115365892Y-116500500D01*
X115493186Y-116466392D01*
X115607314Y-116400500D01*
X115700500Y-116307314D01*
X115766392Y-116193186D01*
X115800500Y-116065892D01*
X115800500Y-115934108D01*
X115766392Y-115806814D01*
X115700500Y-115692686D01*
X115661819Y-115654005D01*
X115628334Y-115592682D01*
X115625500Y-115566324D01*
X115625500Y-114995728D01*
X115623970Y-114979411D01*
X115623155Y-114970730D01*
X144349500Y-114970730D01*
X144349500Y-116029269D01*
X144352353Y-116059699D01*
X144352353Y-116059701D01*
X144396842Y-116186839D01*
X144397207Y-116187882D01*
X144477850Y-116297150D01*
X144587118Y-116377793D01*
X144603588Y-116383556D01*
X144715299Y-116422646D01*
X144745730Y-116425500D01*
X144745734Y-116425500D01*
X145213811Y-116425500D01*
X145280850Y-116445185D01*
X145301492Y-116461819D01*
X145563181Y-116723508D01*
X145596666Y-116784831D01*
X145599500Y-116811189D01*
X145599500Y-116865892D01*
X145615509Y-116925638D01*
X145633608Y-116993187D01*
X145637622Y-117000139D01*
X145699500Y-117107314D01*
X145792686Y-117200500D01*
X145906814Y-117266392D01*
X146034108Y-117300500D01*
X146034110Y-117300500D01*
X146165890Y-117300500D01*
X146165892Y-117300500D01*
X146293186Y-117266392D01*
X146407314Y-117200500D01*
X146445995Y-117161819D01*
X146507318Y-117128334D01*
X146533676Y-117125500D01*
X147942851Y-117125500D01*
X147942853Y-117125500D01*
X148025639Y-117103318D01*
X148099862Y-117060465D01*
X148299860Y-116860466D01*
X148299862Y-116860465D01*
X148499860Y-116660466D01*
X148499862Y-116660465D01*
X148723507Y-116436818D01*
X148784830Y-116403334D01*
X148811188Y-116400500D01*
X149404270Y-116400500D01*
X149434699Y-116397646D01*
X149434701Y-116397646D01*
X149498790Y-116375219D01*
X149562882Y-116352793D01*
X149576867Y-116342471D01*
X149589126Y-116337993D01*
X149598989Y-116329448D01*
X149621311Y-116326238D01*
X149642495Y-116318501D01*
X149655227Y-116321361D01*
X149668147Y-116319504D01*
X149688661Y-116328872D01*
X149710665Y-116333816D01*
X149719830Y-116343107D01*
X149731703Y-116348529D01*
X149743895Y-116367500D01*
X149759734Y-116383556D01*
X149763286Y-116397673D01*
X149769477Y-116407307D01*
X149774500Y-116442242D01*
X149774500Y-116613811D01*
X149754815Y-116680850D01*
X149738185Y-116701487D01*
X149646604Y-116793069D01*
X149646603Y-116793068D01*
X146846601Y-119593071D01*
X146639537Y-119800135D01*
X146639535Y-119800138D01*
X146596683Y-119874358D01*
X146596682Y-119874360D01*
X146596682Y-119874361D01*
X146588923Y-119903318D01*
X146588922Y-119903319D01*
X146574500Y-119957145D01*
X146574500Y-121220746D01*
X146554815Y-121287785D01*
X146502011Y-121333540D01*
X146432853Y-121343484D01*
X146375575Y-121319550D01*
X146272097Y-121241080D01*
X146131443Y-121185613D01*
X146043054Y-121175000D01*
X145950000Y-121175000D01*
X145950000Y-123225000D01*
X146043054Y-123225000D01*
X146131443Y-123214386D01*
X146272097Y-123158919D01*
X146272098Y-123158919D01*
X146375574Y-123080450D01*
X146440886Y-123055626D01*
X146509249Y-123070054D01*
X146558961Y-123119151D01*
X146574500Y-123179253D01*
X146574500Y-124213809D01*
X146565856Y-124243245D01*
X146559333Y-124273235D01*
X146555577Y-124278251D01*
X146554815Y-124280848D01*
X146538182Y-124301489D01*
X146482696Y-124356976D01*
X146046601Y-124793071D01*
X145864928Y-124974743D01*
X145803605Y-125008228D01*
X145757851Y-125009536D01*
X145694481Y-124999500D01*
X145505519Y-124999500D01*
X145505514Y-124999500D01*
X145318881Y-125029059D01*
X145139163Y-125087454D01*
X144970800Y-125173240D01*
X144904297Y-125221558D01*
X144817927Y-125284310D01*
X144817925Y-125284312D01*
X144817924Y-125284312D01*
X144684312Y-125417924D01*
X144684312Y-125417925D01*
X144684310Y-125417927D01*
X144649099Y-125466391D01*
X144573240Y-125570800D01*
X144487454Y-125739163D01*
X144429059Y-125918881D01*
X144399500Y-126105513D01*
X144399500Y-126294486D01*
X144429059Y-126481118D01*
X144487454Y-126660836D01*
X144515084Y-126715062D01*
X144573240Y-126829199D01*
X144684310Y-126982073D01*
X144817927Y-127115690D01*
X144970801Y-127226760D01*
X145047598Y-127265890D01*
X145139163Y-127312545D01*
X145139165Y-127312545D01*
X145139168Y-127312547D01*
X145203242Y-127333366D01*
X145318881Y-127370940D01*
X145505514Y-127400500D01*
X145505519Y-127400500D01*
X145694486Y-127400500D01*
X145881118Y-127370940D01*
X145938433Y-127352317D01*
X146060832Y-127312547D01*
X146229199Y-127226760D01*
X146338040Y-127147682D01*
X151300000Y-127147682D01*
X151300000Y-127352317D01*
X151332009Y-127554417D01*
X151395244Y-127749031D01*
X151488139Y-127931347D01*
X151550279Y-128016876D01*
X152057241Y-127509914D01*
X152119881Y-127618408D01*
X152231592Y-127730119D01*
X152340083Y-127792757D01*
X151833121Y-128299719D01*
X151833122Y-128299720D01*
X151918640Y-128361852D01*
X151918649Y-128361858D01*
X152100968Y-128454755D01*
X152295582Y-128517990D01*
X152497683Y-128550000D01*
X152702317Y-128550000D01*
X152904417Y-128517990D01*
X153099031Y-128454755D01*
X153281349Y-128361859D01*
X153366876Y-128299719D01*
X153366877Y-128299718D01*
X152859916Y-127792757D01*
X152968408Y-127730119D01*
X153080119Y-127618408D01*
X153142757Y-127509915D01*
X153649718Y-128016877D01*
X153649719Y-128016876D01*
X153711859Y-127931349D01*
X153804755Y-127749031D01*
X153867990Y-127554417D01*
X153900000Y-127352317D01*
X153900000Y-127147682D01*
X153867990Y-126945582D01*
X153804755Y-126750968D01*
X153711858Y-126568649D01*
X153711852Y-126568640D01*
X153649720Y-126483122D01*
X153649719Y-126483121D01*
X153142757Y-126990083D01*
X153080119Y-126881592D01*
X152968408Y-126769881D01*
X152859914Y-126707241D01*
X153366876Y-126200279D01*
X153281347Y-126138139D01*
X153099031Y-126045244D01*
X152904417Y-125982009D01*
X152702317Y-125950000D01*
X152497683Y-125950000D01*
X152295582Y-125982009D01*
X152100968Y-126045244D01*
X151918648Y-126138141D01*
X151833122Y-126200278D01*
X151833122Y-126200279D01*
X152340085Y-126707242D01*
X152231592Y-126769881D01*
X152119881Y-126881592D01*
X152057242Y-126990085D01*
X151550279Y-126483122D01*
X151550278Y-126483122D01*
X151488141Y-126568648D01*
X151395244Y-126750968D01*
X151332009Y-126945582D01*
X151300000Y-127147682D01*
X146338040Y-127147682D01*
X146382073Y-127115690D01*
X146515690Y-126982073D01*
X146626760Y-126829199D01*
X146712547Y-126660832D01*
X146770940Y-126481118D01*
X146778989Y-126430299D01*
X146800500Y-126294486D01*
X146800500Y-126105513D01*
X146770940Y-125918881D01*
X146712545Y-125739163D01*
X146667290Y-125650347D01*
X146626760Y-125570801D01*
X146515690Y-125417927D01*
X146515681Y-125417918D01*
X146512526Y-125414223D01*
X146513625Y-125413284D01*
X146483241Y-125357640D01*
X146488225Y-125287948D01*
X146516726Y-125243601D01*
X146704334Y-125055993D01*
X146826219Y-124934108D01*
X162199500Y-124934108D01*
X162199500Y-125065892D01*
X162210366Y-125106446D01*
X162233608Y-125193187D01*
X162251976Y-125225000D01*
X162299500Y-125307314D01*
X162392686Y-125400500D01*
X162491521Y-125457563D01*
X162506810Y-125466390D01*
X162506814Y-125466392D01*
X162634108Y-125500500D01*
X162634110Y-125500500D01*
X162765890Y-125500500D01*
X162765892Y-125500500D01*
X162893186Y-125466392D01*
X162935238Y-125442112D01*
X162950726Y-125437962D01*
X162962303Y-125430523D01*
X162997238Y-125425500D01*
X163213811Y-125425500D01*
X163280850Y-125445185D01*
X163301492Y-125461819D01*
X163439534Y-125599861D01*
X163439535Y-125599862D01*
X163639533Y-125799860D01*
X163639535Y-125799862D01*
X163839533Y-125999860D01*
X163839535Y-125999862D01*
X163900138Y-126060465D01*
X163924203Y-126074359D01*
X163924206Y-126074362D01*
X163974357Y-126103316D01*
X163974361Y-126103318D01*
X164057147Y-126125501D01*
X164057149Y-126125501D01*
X164150449Y-126125501D01*
X164150465Y-126125500D01*
X165942851Y-126125500D01*
X165942853Y-126125500D01*
X166025639Y-126103318D01*
X166099862Y-126060465D01*
X166299860Y-125860466D01*
X166299862Y-125860465D01*
X166499860Y-125660466D01*
X166499862Y-125660465D01*
X166723507Y-125436818D01*
X166784830Y-125403334D01*
X166811188Y-125400500D01*
X167404270Y-125400500D01*
X167434699Y-125397646D01*
X167434701Y-125397646D01*
X167498790Y-125375219D01*
X167562882Y-125352793D01*
X167576867Y-125342471D01*
X167589126Y-125337993D01*
X167598989Y-125329448D01*
X167621311Y-125326238D01*
X167642495Y-125318501D01*
X167655227Y-125321361D01*
X167668147Y-125319504D01*
X167688661Y-125328872D01*
X167710665Y-125333816D01*
X167719830Y-125343107D01*
X167731703Y-125348529D01*
X167743895Y-125367500D01*
X167759734Y-125383556D01*
X167763286Y-125397673D01*
X167769477Y-125407307D01*
X167774500Y-125442242D01*
X167774500Y-125613811D01*
X167754815Y-125680850D01*
X167738181Y-125701492D01*
X167446604Y-125993068D01*
X165500137Y-127939535D01*
X165300138Y-128139535D01*
X165046604Y-128393068D01*
X164846601Y-128593071D01*
X164500136Y-128939534D01*
X164500137Y-128939535D01*
X164300139Y-129139535D01*
X164300138Y-129139535D01*
X164046604Y-129393068D01*
X163839537Y-129600135D01*
X163839533Y-129600141D01*
X163796681Y-129674362D01*
X163796680Y-129674363D01*
X163784325Y-129720478D01*
X163774500Y-129757145D01*
X163774500Y-133875500D01*
X163754815Y-133942539D01*
X163702011Y-133988294D01*
X163650500Y-133999500D01*
X163505514Y-133999500D01*
X163318881Y-134029059D01*
X163139163Y-134087454D01*
X162970800Y-134173240D01*
X162883579Y-134236610D01*
X162817927Y-134284310D01*
X162817925Y-134284312D01*
X162817924Y-134284312D01*
X162684312Y-134417924D01*
X162684312Y-134417925D01*
X162684310Y-134417927D01*
X162636610Y-134483579D01*
X162573240Y-134570800D01*
X162487454Y-134739163D01*
X162429059Y-134918881D01*
X162399500Y-135105513D01*
X162399500Y-135294486D01*
X162429059Y-135481118D01*
X162487454Y-135660836D01*
X162533379Y-135750968D01*
X162573240Y-135829199D01*
X162684310Y-135982073D01*
X162817927Y-136115690D01*
X162970801Y-136226760D01*
X163050347Y-136267290D01*
X163139163Y-136312545D01*
X163139165Y-136312545D01*
X163139168Y-136312547D01*
X163235497Y-136343846D01*
X163318881Y-136370940D01*
X163505514Y-136400500D01*
X163505519Y-136400500D01*
X163694486Y-136400500D01*
X163881118Y-136370940D01*
X163938433Y-136352317D01*
X164060832Y-136312547D01*
X164229199Y-136226760D01*
X164338040Y-136147682D01*
X169300000Y-136147682D01*
X169300000Y-136352317D01*
X169332009Y-136554417D01*
X169395244Y-136749031D01*
X169488139Y-136931347D01*
X169550279Y-137016876D01*
X170057241Y-136509914D01*
X170119881Y-136618408D01*
X170231592Y-136730119D01*
X170340083Y-136792757D01*
X169833121Y-137299719D01*
X169833122Y-137299720D01*
X169918640Y-137361852D01*
X169918649Y-137361858D01*
X170100968Y-137454755D01*
X170295582Y-137517990D01*
X170497683Y-137550000D01*
X170702317Y-137550000D01*
X170904417Y-137517990D01*
X171099031Y-137454755D01*
X171281349Y-137361859D01*
X171366876Y-137299719D01*
X171366877Y-137299718D01*
X170859916Y-136792757D01*
X170968408Y-136730119D01*
X171080119Y-136618408D01*
X171142757Y-136509915D01*
X171649718Y-137016877D01*
X171649719Y-137016876D01*
X171711859Y-136931349D01*
X171804755Y-136749031D01*
X171867990Y-136554417D01*
X171900000Y-136352317D01*
X171900000Y-136147682D01*
X171867990Y-135945582D01*
X171804755Y-135750968D01*
X171711858Y-135568649D01*
X171711852Y-135568640D01*
X171649720Y-135483122D01*
X171649719Y-135483121D01*
X171142757Y-135990083D01*
X171080119Y-135881592D01*
X170968408Y-135769881D01*
X170859914Y-135707241D01*
X171366876Y-135200279D01*
X171281347Y-135138139D01*
X171099031Y-135045244D01*
X170904417Y-134982009D01*
X170702317Y-134950000D01*
X170497683Y-134950000D01*
X170295582Y-134982009D01*
X170100968Y-135045244D01*
X169918648Y-135138141D01*
X169833122Y-135200278D01*
X169833122Y-135200279D01*
X170340085Y-135707242D01*
X170231592Y-135769881D01*
X170119881Y-135881592D01*
X170057242Y-135990085D01*
X169550279Y-135483122D01*
X169550278Y-135483122D01*
X169488141Y-135568648D01*
X169395244Y-135750968D01*
X169332009Y-135945582D01*
X169300000Y-136147682D01*
X164338040Y-136147682D01*
X164382073Y-136115690D01*
X164515690Y-135982073D01*
X164626760Y-135829199D01*
X164712547Y-135660832D01*
X164770940Y-135481118D01*
X164800500Y-135294486D01*
X164800500Y-135105513D01*
X164770940Y-134918881D01*
X164712545Y-134739163D01*
X164626759Y-134570800D01*
X164515690Y-134417927D01*
X164461819Y-134364056D01*
X164428334Y-134302733D01*
X164425500Y-134276375D01*
X164425500Y-129986188D01*
X164434144Y-129956748D01*
X164440667Y-129926763D01*
X164444422Y-129921745D01*
X164445185Y-129919149D01*
X164461812Y-129898513D01*
X164499860Y-129860466D01*
X164499862Y-129860465D01*
X164760465Y-129599861D01*
X164760465Y-129599860D01*
X164960465Y-129399860D01*
X164960464Y-129399860D01*
X165173098Y-129187227D01*
X165234418Y-129153745D01*
X165304110Y-129158729D01*
X165360043Y-129200601D01*
X165384460Y-129266065D01*
X165372497Y-129328711D01*
X165339201Y-129397851D01*
X165339198Y-129397858D01*
X165339198Y-129397860D01*
X165319938Y-129452903D01*
X165232531Y-129702693D01*
X165232527Y-129702705D01*
X165160661Y-130017573D01*
X165160659Y-130017589D01*
X165124500Y-130338510D01*
X165124500Y-130661489D01*
X165160659Y-130982410D01*
X165160661Y-130982426D01*
X165232527Y-131297294D01*
X165232531Y-131297306D01*
X165339195Y-131602133D01*
X165339201Y-131602147D01*
X165479327Y-131893122D01*
X165485820Y-131903455D01*
X165651159Y-132166591D01*
X165852527Y-132419099D01*
X166080901Y-132647473D01*
X166333409Y-132848841D01*
X166606875Y-133020671D01*
X166897860Y-133160802D01*
X166897866Y-133160804D01*
X167202693Y-133267468D01*
X167202705Y-133267472D01*
X167517577Y-133339339D01*
X167838511Y-133375499D01*
X167838512Y-133375500D01*
X167838515Y-133375500D01*
X168161488Y-133375500D01*
X168161488Y-133375499D01*
X168482423Y-133339339D01*
X168797295Y-133267472D01*
X169102140Y-133160802D01*
X169393125Y-133020671D01*
X169666591Y-132848841D01*
X169919099Y-132647473D01*
X170147473Y-132419099D01*
X170348841Y-132166591D01*
X170520671Y-131893125D01*
X170660802Y-131602140D01*
X170767472Y-131297295D01*
X170839339Y-130982423D01*
X170875500Y-130661485D01*
X170875500Y-130338515D01*
X170839339Y-130017577D01*
X170767472Y-129702705D01*
X170765032Y-129695733D01*
X170722005Y-129572768D01*
X170660802Y-129397860D01*
X170520671Y-129106875D01*
X170348841Y-128833409D01*
X170147473Y-128580901D01*
X169919099Y-128352527D01*
X169904994Y-128341279D01*
X169803658Y-128260466D01*
X169666591Y-128151159D01*
X169393125Y-127979329D01*
X169393122Y-127979327D01*
X169102147Y-127839201D01*
X169102133Y-127839195D01*
X168797306Y-127732531D01*
X168797294Y-127732527D01*
X168482426Y-127660661D01*
X168482410Y-127660659D01*
X168161489Y-127624500D01*
X168161485Y-127624500D01*
X167838515Y-127624500D01*
X167838510Y-127624500D01*
X167517589Y-127660659D01*
X167517573Y-127660661D01*
X167202705Y-127732527D01*
X167202693Y-127732531D01*
X166897866Y-127839195D01*
X166897859Y-127839198D01*
X166828711Y-127872498D01*
X166814185Y-127874889D01*
X166801268Y-127881943D01*
X166780406Y-127880451D01*
X166759769Y-127883849D01*
X166746258Y-127878009D01*
X166731576Y-127876959D01*
X166714831Y-127864424D01*
X166695635Y-127856126D01*
X166687426Y-127843907D01*
X166675643Y-127835087D01*
X166668334Y-127815492D01*
X166656670Y-127798131D01*
X166656369Y-127783413D01*
X166651226Y-127769623D01*
X166655671Y-127749187D01*
X166655245Y-127728276D01*
X166663209Y-127714534D01*
X166666078Y-127701350D01*
X166687225Y-127673100D01*
X166699860Y-127660466D01*
X166699862Y-127660465D01*
X166899860Y-127460466D01*
X166899862Y-127460465D01*
X167360465Y-126999862D01*
X167360465Y-126999861D01*
X167499860Y-126860466D01*
X167499862Y-126860465D01*
X167699860Y-126660466D01*
X167699862Y-126660465D01*
X167899860Y-126460466D01*
X167899862Y-126460465D01*
X168360465Y-125999862D01*
X168371176Y-125981308D01*
X168391164Y-125946690D01*
X168391164Y-125946689D01*
X168403317Y-125925639D01*
X168403318Y-125925638D01*
X168425500Y-125842853D01*
X168425500Y-125586189D01*
X168434144Y-125556748D01*
X168440668Y-125526762D01*
X168444422Y-125521746D01*
X168445185Y-125519150D01*
X168461819Y-125498508D01*
X168523508Y-125436819D01*
X168584831Y-125403334D01*
X168611189Y-125400500D01*
X169229270Y-125400500D01*
X169259699Y-125397646D01*
X169259701Y-125397646D01*
X169323790Y-125375219D01*
X169387882Y-125352793D01*
X169497150Y-125272150D01*
X169577793Y-125162882D01*
X169611731Y-125065892D01*
X169622646Y-125034701D01*
X169622646Y-125034699D01*
X169625500Y-125004269D01*
X169625500Y-123995730D01*
X169622646Y-123965300D01*
X169622646Y-123965298D01*
X169580112Y-123843745D01*
X169577793Y-123837118D01*
X169497150Y-123727850D01*
X169497149Y-123727849D01*
X169493669Y-123723134D01*
X169469698Y-123657505D01*
X169485014Y-123589334D01*
X169534754Y-123540266D01*
X169593439Y-123525500D01*
X170181251Y-123525500D01*
X170248290Y-123545185D01*
X170294045Y-123597989D01*
X170303989Y-123667147D01*
X170288639Y-123711497D01*
X170269242Y-123745095D01*
X170233608Y-123806812D01*
X170213770Y-123880850D01*
X170199500Y-123934108D01*
X170199500Y-124065892D01*
X170211534Y-124110803D01*
X170233608Y-124193187D01*
X170262510Y-124243245D01*
X170299500Y-124307314D01*
X170299502Y-124307316D01*
X170338181Y-124345995D01*
X170371666Y-124407318D01*
X170374500Y-124433676D01*
X170374500Y-125004269D01*
X170377353Y-125034699D01*
X170377353Y-125034701D01*
X170422206Y-125162880D01*
X170422207Y-125162882D01*
X170502850Y-125272150D01*
X170612118Y-125352793D01*
X170644306Y-125364056D01*
X170740299Y-125397646D01*
X170770730Y-125400500D01*
X170770734Y-125400500D01*
X171404270Y-125400500D01*
X171434699Y-125397646D01*
X171434701Y-125397646D01*
X171498790Y-125375219D01*
X171562882Y-125352793D01*
X171672150Y-125272150D01*
X171752793Y-125162882D01*
X171786731Y-125065892D01*
X171797646Y-125034701D01*
X171797646Y-125034699D01*
X171800500Y-125004269D01*
X171800500Y-123995730D01*
X171797646Y-123965301D01*
X171794653Y-123956748D01*
X171757829Y-123851512D01*
X171757433Y-123843745D01*
X171753705Y-123836918D01*
X171755676Y-123809346D01*
X171754267Y-123781737D01*
X171758134Y-123774986D01*
X171758689Y-123767226D01*
X171775255Y-123745095D01*
X171788996Y-123721109D01*
X171795899Y-123717520D01*
X171800561Y-123711293D01*
X171826461Y-123701632D01*
X171850989Y-123688882D01*
X171858735Y-123689594D01*
X171866025Y-123686876D01*
X171893038Y-123692752D01*
X171920564Y-123695286D01*
X171928421Y-123700449D01*
X171934298Y-123701728D01*
X171962552Y-123722879D01*
X172137507Y-123897834D01*
X172170992Y-123959157D01*
X172173260Y-123997352D01*
X172171894Y-124011585D01*
X172172791Y-124016926D01*
X172174500Y-124037444D01*
X172174500Y-124042851D01*
X172174501Y-124042860D01*
X172180024Y-124063476D01*
X172181562Y-124069217D01*
X172186075Y-124096113D01*
X172192602Y-124110422D01*
X172195275Y-124120398D01*
X172195003Y-124131796D01*
X172199500Y-124152489D01*
X172199500Y-125004269D01*
X172202353Y-125034699D01*
X172202353Y-125034701D01*
X172247206Y-125162880D01*
X172247207Y-125162882D01*
X172327850Y-125272150D01*
X172437118Y-125352793D01*
X172469306Y-125364056D01*
X172565299Y-125397646D01*
X172595730Y-125400500D01*
X172595734Y-125400500D01*
X173229270Y-125400500D01*
X173259699Y-125397646D01*
X173259701Y-125397646D01*
X173323790Y-125375219D01*
X173387882Y-125352793D01*
X173497150Y-125272150D01*
X173577793Y-125162882D01*
X173611731Y-125065892D01*
X173622646Y-125034701D01*
X173622646Y-125034699D01*
X173625500Y-125004269D01*
X173625500Y-123995730D01*
X173622646Y-123965300D01*
X173622646Y-123965298D01*
X173580112Y-123843745D01*
X173577793Y-123837118D01*
X173497150Y-123727850D01*
X173387882Y-123647207D01*
X173387880Y-123647206D01*
X173259700Y-123602353D01*
X173229270Y-123599500D01*
X173229266Y-123599500D01*
X172811189Y-123599500D01*
X172744150Y-123579815D01*
X172723508Y-123563181D01*
X172099864Y-122939537D01*
X172099862Y-122939535D01*
X172059499Y-122916231D01*
X172025640Y-122896682D01*
X171984246Y-122885591D01*
X171942853Y-122874500D01*
X171942852Y-122874500D01*
X168150465Y-122874500D01*
X168150449Y-122874499D01*
X168142853Y-122874499D01*
X168057147Y-122874499D01*
X168007210Y-122887880D01*
X167974360Y-122896682D01*
X167958722Y-122905711D01*
X167937250Y-122918108D01*
X167900138Y-122939535D01*
X167846604Y-122993069D01*
X167846603Y-122993068D01*
X167446601Y-123393071D01*
X167439533Y-123400138D01*
X167439533Y-123400139D01*
X167342991Y-123496682D01*
X167276492Y-123563181D01*
X167215169Y-123596666D01*
X167188811Y-123599500D01*
X166770730Y-123599500D01*
X166740300Y-123602353D01*
X166740298Y-123602353D01*
X166612119Y-123647206D01*
X166612117Y-123647207D01*
X166502850Y-123727850D01*
X166422207Y-123837117D01*
X166422206Y-123837119D01*
X166377353Y-123965298D01*
X166377353Y-123965300D01*
X166374500Y-123995730D01*
X166374500Y-124813811D01*
X166354815Y-124880850D01*
X166338181Y-124901492D01*
X166046604Y-125193068D01*
X165904894Y-125334778D01*
X165843571Y-125368263D01*
X165773879Y-125363279D01*
X165717946Y-125321407D01*
X165693529Y-125255943D01*
X165701859Y-125201607D01*
X165739385Y-125106446D01*
X165750000Y-125018053D01*
X165750000Y-124700000D01*
X164150000Y-124700000D01*
X164150000Y-125018055D01*
X164157963Y-125084376D01*
X164153118Y-125113273D01*
X164151029Y-125142492D01*
X164147409Y-125147326D01*
X164146411Y-125153284D01*
X164126711Y-125174975D01*
X164109157Y-125198425D01*
X164103499Y-125200535D01*
X164099438Y-125205007D01*
X164071142Y-125212603D01*
X164043693Y-125222842D01*
X164037790Y-125221558D01*
X164031958Y-125223124D01*
X164004048Y-125214217D01*
X163975420Y-125207990D01*
X163968649Y-125202921D01*
X163965395Y-125201883D01*
X163947166Y-125186839D01*
X163786819Y-125026492D01*
X163753334Y-124965169D01*
X163750500Y-124938811D01*
X163750500Y-123981946D01*
X164150000Y-123981946D01*
X164150000Y-124300000D01*
X164750000Y-124300000D01*
X165150000Y-124300000D01*
X165750000Y-124300000D01*
X165750000Y-123981946D01*
X165739386Y-123893556D01*
X165683920Y-123752904D01*
X165592564Y-123632435D01*
X165472095Y-123541079D01*
X165331443Y-123485613D01*
X165243054Y-123475000D01*
X165150000Y-123475000D01*
X165150000Y-124300000D01*
X164750000Y-124300000D01*
X164750000Y-123475000D01*
X164656946Y-123475000D01*
X164568556Y-123485613D01*
X164427904Y-123541079D01*
X164307435Y-123632435D01*
X164216079Y-123752904D01*
X164160613Y-123893556D01*
X164150000Y-123981946D01*
X163750500Y-123981946D01*
X163750500Y-123970730D01*
X163747646Y-123940300D01*
X163747646Y-123940298D01*
X163702793Y-123812119D01*
X163702792Y-123812117D01*
X163695113Y-123801712D01*
X163622150Y-123702850D01*
X163512882Y-123622207D01*
X163512880Y-123622206D01*
X163384700Y-123577353D01*
X163354270Y-123574500D01*
X163354266Y-123574500D01*
X162745734Y-123574500D01*
X162745730Y-123574500D01*
X162715300Y-123577353D01*
X162715298Y-123577353D01*
X162587119Y-123622206D01*
X162587117Y-123622207D01*
X162477850Y-123702850D01*
X162397207Y-123812117D01*
X162397206Y-123812119D01*
X162352353Y-123940298D01*
X162352353Y-123940300D01*
X162349500Y-123970730D01*
X162349500Y-124591324D01*
X162329815Y-124658363D01*
X162313181Y-124679005D01*
X162299502Y-124692683D01*
X162299500Y-124692686D01*
X162233608Y-124806812D01*
X162220469Y-124855850D01*
X162199500Y-124934108D01*
X146826219Y-124934108D01*
X146960465Y-124799862D01*
X146960465Y-124799861D01*
X147099860Y-124660466D01*
X147099862Y-124660465D01*
X147160465Y-124599862D01*
X147186604Y-124554588D01*
X147203318Y-124525639D01*
X147225501Y-124442853D01*
X147225501Y-124357147D01*
X147225501Y-124349552D01*
X147225500Y-124349534D01*
X147225500Y-122909323D01*
X147245185Y-122842284D01*
X147297989Y-122796529D01*
X147367147Y-122786585D01*
X147430703Y-122815610D01*
X147461219Y-122855519D01*
X147467267Y-122868077D01*
X147479329Y-122893126D01*
X147569892Y-123037256D01*
X147651159Y-123166591D01*
X147741216Y-123279519D01*
X147831214Y-123392374D01*
X147852527Y-123419099D01*
X148080901Y-123647473D01*
X148333409Y-123848841D01*
X148592375Y-124011560D01*
X148606877Y-124020672D01*
X148652932Y-124042851D01*
X148897860Y-124160802D01*
X148990408Y-124193186D01*
X149202693Y-124267468D01*
X149202705Y-124267472D01*
X149517577Y-124339339D01*
X149838511Y-124375499D01*
X149838512Y-124375500D01*
X149838515Y-124375500D01*
X150161488Y-124375500D01*
X150161488Y-124375499D01*
X150482423Y-124339339D01*
X150797295Y-124267472D01*
X151102140Y-124160802D01*
X151393125Y-124020671D01*
X151666591Y-123848841D01*
X151919099Y-123647473D01*
X152147473Y-123419099D01*
X152348841Y-123166591D01*
X152520671Y-122893125D01*
X152660802Y-122602140D01*
X152767472Y-122297295D01*
X152839339Y-121982423D01*
X152875500Y-121661485D01*
X152875500Y-121338515D01*
X152839339Y-121017577D01*
X152767472Y-120702705D01*
X152755165Y-120667535D01*
X152660804Y-120397866D01*
X152660802Y-120397860D01*
X152542030Y-120151228D01*
X152520672Y-120106877D01*
X152520671Y-120106875D01*
X152348841Y-119833409D01*
X152147473Y-119580901D01*
X151919099Y-119352527D01*
X151919098Y-119352526D01*
X151919097Y-119352525D01*
X151915186Y-119349406D01*
X151736380Y-119206814D01*
X151666591Y-119151159D01*
X151393125Y-118979329D01*
X151393122Y-118979327D01*
X151102147Y-118839201D01*
X151102133Y-118839195D01*
X150797306Y-118732531D01*
X150797294Y-118732527D01*
X150482426Y-118660661D01*
X150482410Y-118660659D01*
X150161489Y-118624500D01*
X150161485Y-118624500D01*
X149838515Y-118624500D01*
X149838510Y-118624500D01*
X149517589Y-118660659D01*
X149517573Y-118660661D01*
X149202705Y-118732527D01*
X149202693Y-118732531D01*
X148897866Y-118839195D01*
X148897859Y-118839198D01*
X148828711Y-118872498D01*
X148814185Y-118874889D01*
X148801268Y-118881943D01*
X148780406Y-118880451D01*
X148759769Y-118883849D01*
X148746258Y-118878009D01*
X148731576Y-118876959D01*
X148714831Y-118864424D01*
X148695635Y-118856126D01*
X148687426Y-118843907D01*
X148675643Y-118835087D01*
X148668334Y-118815492D01*
X148656670Y-118798131D01*
X148656369Y-118783413D01*
X148651226Y-118769623D01*
X148655671Y-118749187D01*
X148655245Y-118728276D01*
X148663209Y-118714534D01*
X148666078Y-118701350D01*
X148687225Y-118673100D01*
X148699860Y-118660466D01*
X148699862Y-118660465D01*
X148899860Y-118460466D01*
X148899862Y-118460465D01*
X149099860Y-118260466D01*
X149099862Y-118260465D01*
X149299860Y-118060466D01*
X149299862Y-118060465D01*
X149499860Y-117860466D01*
X149499862Y-117860465D01*
X149699860Y-117660466D01*
X149699862Y-117660465D01*
X149899860Y-117460466D01*
X149899862Y-117460465D01*
X150099860Y-117260466D01*
X150099862Y-117260465D01*
X150299860Y-117060466D01*
X150299862Y-117060465D01*
X150360465Y-116999862D01*
X150386604Y-116954588D01*
X150403318Y-116925639D01*
X150425501Y-116842853D01*
X150425501Y-116757147D01*
X150425501Y-116749552D01*
X150425500Y-116749534D01*
X150425500Y-116586188D01*
X150445185Y-116519149D01*
X150461812Y-116498513D01*
X150499860Y-116460466D01*
X150499862Y-116460465D01*
X150515142Y-116445185D01*
X150523508Y-116436819D01*
X150584831Y-116403334D01*
X150611189Y-116400500D01*
X151229270Y-116400500D01*
X151259699Y-116397646D01*
X151259701Y-116397646D01*
X151323790Y-116375219D01*
X151387882Y-116352793D01*
X151497150Y-116272150D01*
X151577793Y-116162882D01*
X151606122Y-116081923D01*
X151622646Y-116034701D01*
X151622646Y-116034699D01*
X151625500Y-116004269D01*
X151625500Y-114995730D01*
X151622646Y-114965300D01*
X151622646Y-114965298D01*
X151577793Y-114837119D01*
X151577792Y-114837117D01*
X151559342Y-114812118D01*
X151497150Y-114727850D01*
X151497149Y-114727849D01*
X151493669Y-114723134D01*
X151469698Y-114657505D01*
X151485014Y-114589334D01*
X151534754Y-114540266D01*
X151593439Y-114525500D01*
X152406561Y-114525500D01*
X152473600Y-114545185D01*
X152519355Y-114597989D01*
X152529299Y-114667147D01*
X152506331Y-114723134D01*
X152502850Y-114727849D01*
X152502850Y-114727850D01*
X152474326Y-114766498D01*
X152422207Y-114837117D01*
X152422206Y-114837119D01*
X152377353Y-114965298D01*
X152377353Y-114965300D01*
X152374500Y-114995730D01*
X152374500Y-115422937D01*
X152354815Y-115489976D01*
X152312501Y-115530324D01*
X152192686Y-115599500D01*
X152192683Y-115599502D01*
X152099502Y-115692683D01*
X152099500Y-115692686D01*
X152033608Y-115806812D01*
X152020926Y-115854144D01*
X151999500Y-115934108D01*
X151999500Y-116065892D01*
X152006818Y-116093203D01*
X152033608Y-116193187D01*
X152066554Y-116250250D01*
X152099500Y-116307314D01*
X152192686Y-116400500D01*
X152282881Y-116452574D01*
X152306810Y-116466390D01*
X152306814Y-116466392D01*
X152434108Y-116500500D01*
X152434110Y-116500500D01*
X152565890Y-116500500D01*
X152565892Y-116500500D01*
X152693186Y-116466392D01*
X152777130Y-116417927D01*
X152778540Y-116417113D01*
X152794028Y-116412962D01*
X152805605Y-116405523D01*
X152840540Y-116400500D01*
X153083524Y-116400500D01*
X153150563Y-116420185D01*
X153173058Y-116440880D01*
X153173773Y-116440166D01*
X153179519Y-116445912D01*
X153179520Y-116445913D01*
X153277254Y-116543647D01*
X153372449Y-116638841D01*
X153372452Y-116638845D01*
X153379519Y-116645912D01*
X153379520Y-116645913D01*
X153576018Y-116842410D01*
X153576123Y-116842602D01*
X153582329Y-116853351D01*
X153583968Y-116852122D01*
X153583971Y-116852126D01*
X153582331Y-116853355D01*
X153608099Y-116897985D01*
X153633608Y-116993186D01*
X153699500Y-117107314D01*
X153792686Y-117200500D01*
X153906814Y-117266392D01*
X154034108Y-117300500D01*
X154034110Y-117300500D01*
X154165890Y-117300500D01*
X154165892Y-117300500D01*
X154293186Y-117266392D01*
X154407314Y-117200500D01*
X154500500Y-117107314D01*
X154566392Y-116993186D01*
X154600500Y-116865892D01*
X154600500Y-116734108D01*
X154566392Y-116606814D01*
X154554663Y-116586500D01*
X154538191Y-116518601D01*
X154561043Y-116452574D01*
X154615964Y-116409383D01*
X154662051Y-116400500D01*
X155229270Y-116400500D01*
X155259699Y-116397646D01*
X155259701Y-116397646D01*
X155323790Y-116375219D01*
X155387882Y-116352793D01*
X155497150Y-116272150D01*
X155577793Y-116162882D01*
X155606122Y-116081923D01*
X155622646Y-116034701D01*
X155622646Y-116034699D01*
X155625500Y-116004269D01*
X155625500Y-114995730D01*
X155622646Y-114965300D01*
X155622646Y-114965298D01*
X155577793Y-114837119D01*
X155577792Y-114837117D01*
X155559342Y-114812118D01*
X155497150Y-114727850D01*
X155387882Y-114647207D01*
X155387880Y-114647206D01*
X155259700Y-114602353D01*
X155229270Y-114599500D01*
X155229266Y-114599500D01*
X154811189Y-114599500D01*
X154744150Y-114579815D01*
X154723508Y-114563181D01*
X154099864Y-113939537D01*
X154099862Y-113939535D01*
X154062750Y-113918108D01*
X154025640Y-113896682D01*
X153984246Y-113885591D01*
X153942853Y-113874500D01*
X153942852Y-113874500D01*
X150150465Y-113874500D01*
X150150449Y-113874499D01*
X150142853Y-113874499D01*
X150057147Y-113874499D01*
X150001956Y-113889287D01*
X149974360Y-113896682D01*
X149955805Y-113907395D01*
X149937250Y-113918108D01*
X149900138Y-113939535D01*
X149846604Y-113993069D01*
X149846603Y-113993068D01*
X149446601Y-114393071D01*
X149439533Y-114400138D01*
X149439533Y-114400139D01*
X149354060Y-114485613D01*
X149276492Y-114563181D01*
X149215169Y-114596666D01*
X149188811Y-114599500D01*
X148770730Y-114599500D01*
X148740300Y-114602353D01*
X148740298Y-114602353D01*
X148612119Y-114647206D01*
X148612117Y-114647207D01*
X148502850Y-114727850D01*
X148422207Y-114837117D01*
X148422206Y-114837119D01*
X148377353Y-114965298D01*
X148377353Y-114965300D01*
X148374500Y-114995730D01*
X148374500Y-115813811D01*
X148354815Y-115880850D01*
X148338181Y-115901492D01*
X148046604Y-116193068D01*
X147904894Y-116334778D01*
X147843571Y-116368263D01*
X147773879Y-116363279D01*
X147717946Y-116321407D01*
X147693529Y-116255943D01*
X147701859Y-116201607D01*
X147739385Y-116106446D01*
X147750000Y-116018053D01*
X147750000Y-115700000D01*
X146150000Y-115700000D01*
X146150000Y-116018055D01*
X146157963Y-116084376D01*
X146153118Y-116113273D01*
X146151029Y-116142492D01*
X146147409Y-116147326D01*
X146146411Y-116153284D01*
X146126711Y-116174975D01*
X146109157Y-116198425D01*
X146103499Y-116200535D01*
X146099438Y-116205007D01*
X146071142Y-116212603D01*
X146043693Y-116222842D01*
X146037790Y-116221558D01*
X146031958Y-116223124D01*
X146004048Y-116214217D01*
X145975420Y-116207990D01*
X145968649Y-116202921D01*
X145965395Y-116201883D01*
X145947166Y-116186839D01*
X145786819Y-116026492D01*
X145753334Y-115965169D01*
X145750500Y-115938811D01*
X145750500Y-114981946D01*
X146150000Y-114981946D01*
X146150000Y-115300000D01*
X146750000Y-115300000D01*
X147150000Y-115300000D01*
X147750000Y-115300000D01*
X147750000Y-114981946D01*
X147739386Y-114893556D01*
X147683920Y-114752904D01*
X147592564Y-114632435D01*
X147472095Y-114541079D01*
X147331443Y-114485613D01*
X147243054Y-114475000D01*
X147150000Y-114475000D01*
X147150000Y-115300000D01*
X146750000Y-115300000D01*
X146750000Y-114475000D01*
X146656946Y-114475000D01*
X146568556Y-114485613D01*
X146427904Y-114541079D01*
X146307435Y-114632435D01*
X146216079Y-114752904D01*
X146160613Y-114893556D01*
X146150000Y-114981946D01*
X145750500Y-114981946D01*
X145750500Y-114970730D01*
X145747646Y-114940300D01*
X145747646Y-114940298D01*
X145702793Y-114812119D01*
X145702792Y-114812117D01*
X145695113Y-114801712D01*
X145622150Y-114702850D01*
X145512882Y-114622207D01*
X145512880Y-114622206D01*
X145384700Y-114577353D01*
X145354270Y-114574500D01*
X145354266Y-114574500D01*
X144745734Y-114574500D01*
X144745730Y-114574500D01*
X144715300Y-114577353D01*
X144715298Y-114577353D01*
X144587119Y-114622206D01*
X144587117Y-114622207D01*
X144477850Y-114702850D01*
X144397207Y-114812117D01*
X144397206Y-114812119D01*
X144352353Y-114940298D01*
X144352353Y-114940300D01*
X144349500Y-114970730D01*
X115623155Y-114970730D01*
X115622646Y-114965300D01*
X115622646Y-114965298D01*
X115577793Y-114837119D01*
X115577792Y-114837117D01*
X115559342Y-114812118D01*
X115497150Y-114727850D01*
X115387882Y-114647207D01*
X115387880Y-114647206D01*
X115259700Y-114602353D01*
X115229270Y-114599500D01*
X115229266Y-114599500D01*
X114811189Y-114599500D01*
X114744150Y-114579815D01*
X114723508Y-114563181D01*
X114099864Y-113939537D01*
X114099862Y-113939535D01*
X114062750Y-113918108D01*
X114025640Y-113896682D01*
X113984246Y-113885591D01*
X113942853Y-113874500D01*
X113942852Y-113874500D01*
X110150465Y-113874500D01*
X110150449Y-113874499D01*
X110142853Y-113874499D01*
X110057147Y-113874499D01*
X110001956Y-113889287D01*
X109974360Y-113896682D01*
X109955805Y-113907395D01*
X109937250Y-113918108D01*
X109900138Y-113939535D01*
X109846604Y-113993069D01*
X109846603Y-113993068D01*
X109446601Y-114393071D01*
X109439533Y-114400138D01*
X109439533Y-114400139D01*
X109354060Y-114485613D01*
X109276492Y-114563181D01*
X109215169Y-114596666D01*
X109188811Y-114599500D01*
X108770730Y-114599500D01*
X108740300Y-114602353D01*
X108740298Y-114602353D01*
X108612119Y-114647206D01*
X108612117Y-114647207D01*
X108502850Y-114727850D01*
X108422207Y-114837117D01*
X108422206Y-114837119D01*
X108377353Y-114965298D01*
X108377353Y-114965300D01*
X108374500Y-114995730D01*
X108374500Y-115813811D01*
X108354815Y-115880850D01*
X108338181Y-115901492D01*
X108046604Y-116193068D01*
X107904894Y-116334778D01*
X107843571Y-116368263D01*
X107773879Y-116363279D01*
X107717946Y-116321407D01*
X107693529Y-116255943D01*
X107701859Y-116201607D01*
X107739385Y-116106446D01*
X107750000Y-116018053D01*
X107750000Y-115700000D01*
X106150000Y-115700000D01*
X106150000Y-116018055D01*
X106157963Y-116084376D01*
X106153118Y-116113273D01*
X106151029Y-116142492D01*
X106147409Y-116147326D01*
X106146411Y-116153284D01*
X106126711Y-116174975D01*
X106109157Y-116198425D01*
X106103499Y-116200535D01*
X106099438Y-116205007D01*
X106071142Y-116212603D01*
X106043693Y-116222842D01*
X106037790Y-116221558D01*
X106031958Y-116223124D01*
X106004048Y-116214217D01*
X105975420Y-116207990D01*
X105968649Y-116202921D01*
X105965395Y-116201883D01*
X105947166Y-116186839D01*
X105786819Y-116026492D01*
X105753334Y-115965169D01*
X105750500Y-115938811D01*
X105750500Y-114981946D01*
X106150000Y-114981946D01*
X106150000Y-115300000D01*
X106750000Y-115300000D01*
X107150000Y-115300000D01*
X107750000Y-115300000D01*
X107750000Y-114981946D01*
X107739386Y-114893556D01*
X107683920Y-114752904D01*
X107592564Y-114632435D01*
X107472095Y-114541079D01*
X107331443Y-114485613D01*
X107243054Y-114475000D01*
X107150000Y-114475000D01*
X107150000Y-115300000D01*
X106750000Y-115300000D01*
X106750000Y-114475000D01*
X106656946Y-114475000D01*
X106568556Y-114485613D01*
X106427904Y-114541079D01*
X106307435Y-114632435D01*
X106216079Y-114752904D01*
X106160613Y-114893556D01*
X106150000Y-114981946D01*
X105750500Y-114981946D01*
X105750500Y-114970730D01*
X105747646Y-114940300D01*
X105747646Y-114940298D01*
X105702793Y-114812119D01*
X105702792Y-114812117D01*
X105695113Y-114801712D01*
X105622150Y-114702850D01*
X105512882Y-114622207D01*
X105512880Y-114622206D01*
X105384700Y-114577353D01*
X105354270Y-114574500D01*
X105354266Y-114574500D01*
X104745734Y-114574500D01*
X104745730Y-114574500D01*
X104715300Y-114577353D01*
X104715298Y-114577353D01*
X104587119Y-114622206D01*
X104587117Y-114622207D01*
X104477850Y-114702850D01*
X104397207Y-114812117D01*
X104397206Y-114812119D01*
X104352353Y-114940298D01*
X104352353Y-114940300D01*
X104349500Y-114970730D01*
X104349500Y-116029269D01*
X104352353Y-116059699D01*
X104352353Y-116059701D01*
X104396842Y-116186839D01*
X104397207Y-116187882D01*
X104477850Y-116297150D01*
X104587118Y-116377793D01*
X104603588Y-116383556D01*
X104715299Y-116422646D01*
X104745730Y-116425500D01*
X104745734Y-116425500D01*
X105213811Y-116425500D01*
X105280850Y-116445185D01*
X105301492Y-116461819D01*
X105900138Y-117060465D01*
X105937250Y-117081891D01*
X105937252Y-117081893D01*
X105974358Y-117103317D01*
X105974360Y-117103317D01*
X105974361Y-117103318D01*
X106057147Y-117125501D01*
X106057149Y-117125501D01*
X106150449Y-117125501D01*
X106150465Y-117125500D01*
X107942851Y-117125500D01*
X107942853Y-117125500D01*
X108025639Y-117103318D01*
X108099862Y-117060465D01*
X108299860Y-116860466D01*
X108299862Y-116860465D01*
X108499860Y-116660466D01*
X108499862Y-116660465D01*
X108723507Y-116436818D01*
X108784830Y-116403334D01*
X108811188Y-116400500D01*
X109404270Y-116400500D01*
X109434699Y-116397646D01*
X109434701Y-116397646D01*
X109498790Y-116375219D01*
X109562882Y-116352793D01*
X109576867Y-116342471D01*
X109589126Y-116337993D01*
X109598989Y-116329448D01*
X109621311Y-116326238D01*
X109642495Y-116318501D01*
X109655227Y-116321361D01*
X109668147Y-116319504D01*
X109688661Y-116328872D01*
X109710665Y-116333816D01*
X109719830Y-116343107D01*
X109731703Y-116348529D01*
X109743895Y-116367500D01*
X109759734Y-116383556D01*
X109763286Y-116397673D01*
X109769477Y-116407307D01*
X109774500Y-116442242D01*
X109774500Y-116613809D01*
X109754815Y-116680848D01*
X109738181Y-116701490D01*
X109682697Y-116756974D01*
X109682695Y-116756977D01*
X105839537Y-120600135D01*
X105839535Y-120600138D01*
X105796683Y-120674358D01*
X105796682Y-120674360D01*
X105796682Y-120674361D01*
X105788923Y-120703318D01*
X105788922Y-120703319D01*
X105774500Y-120757145D01*
X105774500Y-124875500D01*
X105754815Y-124942539D01*
X105702011Y-124988294D01*
X105650500Y-124999500D01*
X105505514Y-124999500D01*
X105318881Y-125029059D01*
X105139163Y-125087454D01*
X104970800Y-125173240D01*
X104904297Y-125221558D01*
X104817927Y-125284310D01*
X104817925Y-125284312D01*
X104817924Y-125284312D01*
X104684312Y-125417924D01*
X104684312Y-125417925D01*
X104684310Y-125417927D01*
X104649099Y-125466391D01*
X104573240Y-125570800D01*
X104487454Y-125739163D01*
X104429059Y-125918881D01*
X104399500Y-126105513D01*
X104399500Y-126294486D01*
X104429059Y-126481118D01*
X104487454Y-126660836D01*
X104515084Y-126715062D01*
X104573240Y-126829199D01*
X104684310Y-126982073D01*
X104817927Y-127115690D01*
X104970801Y-127226760D01*
X105047598Y-127265890D01*
X105139163Y-127312545D01*
X105139165Y-127312545D01*
X105139168Y-127312547D01*
X105203242Y-127333366D01*
X105318881Y-127370940D01*
X105505514Y-127400500D01*
X105505519Y-127400500D01*
X105694486Y-127400500D01*
X105881118Y-127370940D01*
X105938433Y-127352317D01*
X106060832Y-127312547D01*
X106229199Y-127226760D01*
X106338040Y-127147682D01*
X111300000Y-127147682D01*
X111300000Y-127352317D01*
X111332009Y-127554417D01*
X111395244Y-127749031D01*
X111488139Y-127931347D01*
X111550279Y-128016876D01*
X112057241Y-127509914D01*
X112119881Y-127618408D01*
X112231592Y-127730119D01*
X112340083Y-127792757D01*
X111833121Y-128299719D01*
X111833122Y-128299720D01*
X111918640Y-128361852D01*
X111918649Y-128361858D01*
X112100968Y-128454755D01*
X112295582Y-128517990D01*
X112497683Y-128550000D01*
X112702317Y-128550000D01*
X112904417Y-128517990D01*
X113099031Y-128454755D01*
X113281349Y-128361859D01*
X113366876Y-128299719D01*
X113366877Y-128299718D01*
X112859916Y-127792757D01*
X112968408Y-127730119D01*
X113080119Y-127618408D01*
X113142757Y-127509915D01*
X113649718Y-128016877D01*
X113649719Y-128016876D01*
X113711859Y-127931349D01*
X113804755Y-127749031D01*
X113867990Y-127554417D01*
X113900000Y-127352317D01*
X113900000Y-127147682D01*
X113867990Y-126945582D01*
X113804755Y-126750968D01*
X113711858Y-126568649D01*
X113711852Y-126568640D01*
X113649720Y-126483122D01*
X113649719Y-126483121D01*
X113142757Y-126990083D01*
X113080119Y-126881592D01*
X112968408Y-126769881D01*
X112859914Y-126707241D01*
X113366876Y-126200279D01*
X113281347Y-126138139D01*
X113099031Y-126045244D01*
X112904417Y-125982009D01*
X112702317Y-125950000D01*
X112497683Y-125950000D01*
X112295582Y-125982009D01*
X112100968Y-126045244D01*
X111918648Y-126138141D01*
X111833122Y-126200278D01*
X111833122Y-126200279D01*
X112340085Y-126707242D01*
X112231592Y-126769881D01*
X112119881Y-126881592D01*
X112057242Y-126990085D01*
X111550279Y-126483122D01*
X111550278Y-126483122D01*
X111488141Y-126568648D01*
X111395244Y-126750968D01*
X111332009Y-126945582D01*
X111300000Y-127147682D01*
X106338040Y-127147682D01*
X106382073Y-127115690D01*
X106515690Y-126982073D01*
X106626760Y-126829199D01*
X106712547Y-126660832D01*
X106770940Y-126481118D01*
X106778989Y-126430299D01*
X106800500Y-126294486D01*
X106800500Y-126105513D01*
X106770940Y-125918881D01*
X106712545Y-125739163D01*
X106667290Y-125650347D01*
X106626760Y-125570801D01*
X106515690Y-125417927D01*
X106461819Y-125364056D01*
X106428334Y-125302733D01*
X106425500Y-125276375D01*
X106425500Y-120986188D01*
X106434144Y-120956748D01*
X106440667Y-120926763D01*
X106444422Y-120921745D01*
X106445185Y-120919149D01*
X106461812Y-120898513D01*
X106499860Y-120860466D01*
X106499862Y-120860465D01*
X106699860Y-120660466D01*
X106699862Y-120660465D01*
X107160465Y-120199862D01*
X107160465Y-120199861D01*
X107173095Y-120187231D01*
X107234418Y-120153746D01*
X107304109Y-120158730D01*
X107360043Y-120200601D01*
X107384460Y-120266066D01*
X107372497Y-120328713D01*
X107339198Y-120397859D01*
X107339195Y-120397866D01*
X107232531Y-120702693D01*
X107232527Y-120702705D01*
X107160661Y-121017573D01*
X107160659Y-121017589D01*
X107124500Y-121338510D01*
X107124500Y-121661489D01*
X107160659Y-121982410D01*
X107160661Y-121982426D01*
X107232527Y-122297294D01*
X107232531Y-122297306D01*
X107339195Y-122602133D01*
X107339201Y-122602147D01*
X107479327Y-122893122D01*
X107479329Y-122893125D01*
X107651159Y-123166591D01*
X107741216Y-123279519D01*
X107831214Y-123392374D01*
X107852527Y-123419099D01*
X108080901Y-123647473D01*
X108333409Y-123848841D01*
X108592375Y-124011560D01*
X108606877Y-124020672D01*
X108652932Y-124042851D01*
X108897860Y-124160802D01*
X108990408Y-124193186D01*
X109202693Y-124267468D01*
X109202705Y-124267472D01*
X109517577Y-124339339D01*
X109838511Y-124375499D01*
X109838512Y-124375500D01*
X109838515Y-124375500D01*
X110161488Y-124375500D01*
X110161488Y-124375499D01*
X110482423Y-124339339D01*
X110797295Y-124267472D01*
X111102140Y-124160802D01*
X111393125Y-124020671D01*
X111666591Y-123848841D01*
X111919099Y-123647473D01*
X112147473Y-123419099D01*
X112348841Y-123166591D01*
X112520671Y-122893125D01*
X112660802Y-122602140D01*
X112767472Y-122297295D01*
X112839339Y-121982423D01*
X112875500Y-121661485D01*
X112875500Y-121499999D01*
X117800000Y-121499999D01*
X117842271Y-121929196D01*
X117967466Y-122341907D01*
X118170762Y-122722248D01*
X118170766Y-122722255D01*
X118444364Y-123055634D01*
X118777743Y-123329232D01*
X118777750Y-123329236D01*
X119158091Y-123532532D01*
X119158093Y-123532532D01*
X119158096Y-123532534D01*
X119570801Y-123657727D01*
X119570800Y-123657727D01*
X119598600Y-123660465D01*
X120000000Y-123700000D01*
X120429198Y-123657727D01*
X120841903Y-123532534D01*
X120950478Y-123474500D01*
X121054128Y-123419098D01*
X121222254Y-123329233D01*
X121555634Y-123055634D01*
X121829233Y-122722254D01*
X122001481Y-122400000D01*
X122032532Y-122341907D01*
X122032532Y-122341906D01*
X122032534Y-122341903D01*
X122157727Y-121929198D01*
X122200000Y-121500000D01*
X122157727Y-121070801D01*
X122032534Y-120658096D01*
X122032532Y-120658093D01*
X122032532Y-120658091D01*
X121829236Y-120277750D01*
X121829232Y-120277743D01*
X121555634Y-119944364D01*
X121222255Y-119670766D01*
X121222248Y-119670762D01*
X120841907Y-119467466D01*
X120429196Y-119342271D01*
X120000000Y-119300000D01*
X119570802Y-119342271D01*
X119158091Y-119467466D01*
X118777750Y-119670762D01*
X118777743Y-119670766D01*
X118444364Y-119944364D01*
X118170766Y-120277743D01*
X118170762Y-120277750D01*
X117967466Y-120658091D01*
X117842271Y-121070802D01*
X117800000Y-121499999D01*
X112875500Y-121499999D01*
X112875500Y-121338515D01*
X112839339Y-121017577D01*
X112767472Y-120702705D01*
X112755165Y-120667535D01*
X112660804Y-120397866D01*
X112660802Y-120397860D01*
X112542030Y-120151228D01*
X112520672Y-120106877D01*
X112520671Y-120106875D01*
X112348841Y-119833409D01*
X112147473Y-119580901D01*
X111919099Y-119352527D01*
X111919096Y-119352525D01*
X111803658Y-119260466D01*
X111666591Y-119151159D01*
X111393125Y-118979329D01*
X111393122Y-118979327D01*
X111102147Y-118839201D01*
X111102133Y-118839195D01*
X110797306Y-118732531D01*
X110797294Y-118732527D01*
X110482426Y-118660661D01*
X110482410Y-118660659D01*
X110161489Y-118624500D01*
X110161485Y-118624500D01*
X109838515Y-118624500D01*
X109838510Y-118624500D01*
X109517589Y-118660659D01*
X109517573Y-118660661D01*
X109202705Y-118732527D01*
X109202693Y-118732531D01*
X108897866Y-118839195D01*
X108897859Y-118839198D01*
X108828711Y-118872498D01*
X108814185Y-118874889D01*
X108801268Y-118881943D01*
X108780406Y-118880451D01*
X108759769Y-118883849D01*
X108746258Y-118878009D01*
X108731576Y-118876959D01*
X108714831Y-118864424D01*
X108695635Y-118856126D01*
X108687426Y-118843907D01*
X108675643Y-118835087D01*
X108668334Y-118815492D01*
X108656670Y-118798131D01*
X108656369Y-118783413D01*
X108651226Y-118769623D01*
X108655671Y-118749187D01*
X108655245Y-118728276D01*
X108663209Y-118714534D01*
X108666078Y-118701350D01*
X108687225Y-118673100D01*
X108699860Y-118660466D01*
X108699862Y-118660465D01*
X109160465Y-118199862D01*
X109160465Y-118199861D01*
X109299860Y-118060466D01*
X109299862Y-118060465D01*
X109499860Y-117860466D01*
X109499862Y-117860465D01*
X109699860Y-117660466D01*
X109699862Y-117660465D01*
X110160465Y-117199862D01*
X110160465Y-117199861D01*
X110299860Y-117060466D01*
X110299862Y-117060465D01*
X110360465Y-116999862D01*
X110386604Y-116954588D01*
X110403318Y-116925639D01*
X110425501Y-116842853D01*
X110425501Y-116757147D01*
X110425501Y-116749552D01*
X110425500Y-116749534D01*
X110425500Y-116586189D01*
X110445185Y-116519150D01*
X110445186Y-116519149D01*
X110461819Y-116498508D01*
X110523508Y-116436819D01*
X110584831Y-116403334D01*
X110611189Y-116400500D01*
X111229270Y-116400500D01*
X111259699Y-116397646D01*
X111259701Y-116397646D01*
X111323790Y-116375219D01*
X111387882Y-116352793D01*
X111497150Y-116272150D01*
X111577793Y-116162882D01*
X111606122Y-116081923D01*
X111622646Y-116034701D01*
X111622646Y-116034699D01*
X111625500Y-116004269D01*
X111625500Y-114995730D01*
X111622646Y-114965300D01*
X111622646Y-114965298D01*
X111577793Y-114837119D01*
X111577792Y-114837117D01*
X111559342Y-114812118D01*
X111497150Y-114727850D01*
X111497149Y-114727849D01*
X111493669Y-114723134D01*
X111469698Y-114657505D01*
X111485014Y-114589334D01*
X111534754Y-114540266D01*
X111593439Y-114525500D01*
X112406561Y-114525500D01*
X112473600Y-114545185D01*
X112519355Y-114597989D01*
X112529299Y-114667147D01*
X112506331Y-114723134D01*
X112502850Y-114727849D01*
X112502850Y-114727850D01*
X112474326Y-114766498D01*
X112422207Y-114837117D01*
X112422206Y-114837119D01*
X112377353Y-114965298D01*
X112377353Y-114965300D01*
X112374500Y-114995730D01*
X112374500Y-116004269D01*
X112377353Y-116034699D01*
X112377353Y-116034701D01*
X112420585Y-116158247D01*
X112422207Y-116162882D01*
X112502850Y-116272150D01*
X112612118Y-116352793D01*
X112644306Y-116364056D01*
X112740299Y-116397646D01*
X112770730Y-116400500D01*
X112770734Y-116400500D01*
X113083524Y-116400500D01*
X113150563Y-116420185D01*
X113173058Y-116440880D01*
X113173773Y-116440166D01*
X113179519Y-116445912D01*
X113179520Y-116445913D01*
X113277254Y-116543647D01*
X113372449Y-116638841D01*
X113372452Y-116638845D01*
X113379519Y-116645912D01*
X113379520Y-116645913D01*
X113473142Y-116739535D01*
X113572449Y-116838841D01*
X113572452Y-116838845D01*
X113579519Y-116845912D01*
X113579520Y-116845913D01*
X113679442Y-116945835D01*
X113772449Y-117038841D01*
X113772452Y-117038845D01*
X114379520Y-117645913D01*
X114572449Y-117838841D01*
X114572452Y-117838845D01*
X114579519Y-117845912D01*
X114579520Y-117845913D01*
X114679189Y-117945582D01*
X114772449Y-118038841D01*
X114772452Y-118038845D01*
X114779520Y-118045913D01*
X114854087Y-118120480D01*
X114945413Y-118173207D01*
X115047273Y-118200501D01*
X115047275Y-118200501D01*
X115160323Y-118200501D01*
X115160339Y-118200500D01*
X125975500Y-118200500D01*
X126042539Y-118220185D01*
X126088294Y-118272989D01*
X126099500Y-118324500D01*
X126099500Y-122747273D01*
X126099500Y-122852727D01*
X126104786Y-122872455D01*
X126126793Y-122954589D01*
X126144671Y-122985553D01*
X126179520Y-123045913D01*
X126579519Y-123445912D01*
X126579520Y-123445913D01*
X126678792Y-123545185D01*
X126772449Y-123638841D01*
X126772452Y-123638845D01*
X126779519Y-123645912D01*
X126779520Y-123645913D01*
X126878702Y-123745095D01*
X126972449Y-123838841D01*
X126972452Y-123838845D01*
X126979520Y-123845913D01*
X127579519Y-124445912D01*
X127579520Y-124445913D01*
X127678262Y-124544655D01*
X127772449Y-124638841D01*
X127772452Y-124638845D01*
X127779519Y-124645912D01*
X127779520Y-124645913D01*
X127979520Y-124845912D01*
X128263181Y-125129573D01*
X128296665Y-125190895D01*
X128299499Y-125217253D01*
X128299499Y-129652727D01*
X128302867Y-129665297D01*
X128326792Y-129754589D01*
X128346639Y-129788963D01*
X128357886Y-129808443D01*
X128374500Y-129870444D01*
X128374500Y-130704268D01*
X128377353Y-130734698D01*
X128377353Y-130734700D01*
X128420365Y-130857617D01*
X128422207Y-130862881D01*
X128424369Y-130865811D01*
X128432528Y-130876865D01*
X128456500Y-130942494D01*
X128441185Y-131010664D01*
X128391446Y-131059733D01*
X128332759Y-131074500D01*
X127667241Y-131074500D01*
X127600202Y-131054815D01*
X127554447Y-131002011D01*
X127544503Y-130932853D01*
X127567472Y-130876865D01*
X127577793Y-130862881D01*
X127604619Y-130786216D01*
X127622646Y-130734700D01*
X127622646Y-130734698D01*
X127625500Y-130704268D01*
X127625500Y-129695729D01*
X127622646Y-129665299D01*
X127622646Y-129665297D01*
X127577793Y-129537118D01*
X127577792Y-129537116D01*
X127559342Y-129512117D01*
X127497150Y-129427849D01*
X127387882Y-129347206D01*
X127387880Y-129347205D01*
X127259700Y-129302352D01*
X127229270Y-129299499D01*
X127229266Y-129299499D01*
X127149500Y-129299499D01*
X127082461Y-129279814D01*
X127036706Y-129227010D01*
X127025500Y-129175499D01*
X127025500Y-127852855D01*
X127025501Y-127852842D01*
X127025501Y-127757148D01*
X127018904Y-127732527D01*
X127003318Y-127674361D01*
X126974530Y-127624500D01*
X126960465Y-127600138D01*
X126899862Y-127539535D01*
X126899860Y-127539533D01*
X126699862Y-127339535D01*
X126699860Y-127339533D01*
X126516726Y-127156399D01*
X126483241Y-127095076D01*
X126488225Y-127025384D01*
X126513269Y-126986423D01*
X126512521Y-126985784D01*
X126515684Y-126982079D01*
X126515684Y-126982078D01*
X126515690Y-126982073D01*
X126626760Y-126829199D01*
X126712547Y-126660832D01*
X126770940Y-126481118D01*
X126778989Y-126430299D01*
X126800500Y-126294486D01*
X126800500Y-126105513D01*
X126770940Y-125918881D01*
X126712545Y-125739163D01*
X126667290Y-125650347D01*
X126626760Y-125570801D01*
X126515690Y-125417927D01*
X126382073Y-125284310D01*
X126229199Y-125173240D01*
X126208870Y-125162882D01*
X126060836Y-125087454D01*
X125881118Y-125029059D01*
X125694486Y-124999500D01*
X125694481Y-124999500D01*
X125505519Y-124999500D01*
X125505514Y-124999500D01*
X125318881Y-125029059D01*
X125139163Y-125087454D01*
X124970800Y-125173240D01*
X124904297Y-125221558D01*
X124817927Y-125284310D01*
X124817925Y-125284312D01*
X124817924Y-125284312D01*
X124684312Y-125417924D01*
X124684312Y-125417925D01*
X124684310Y-125417927D01*
X124649099Y-125466391D01*
X124573240Y-125570800D01*
X124487454Y-125739163D01*
X124429059Y-125918881D01*
X124399500Y-126105513D01*
X124399500Y-126294486D01*
X124429059Y-126481118D01*
X124487454Y-126660836D01*
X124515084Y-126715062D01*
X124573240Y-126829199D01*
X124684310Y-126982073D01*
X124817927Y-127115690D01*
X124970801Y-127226760D01*
X125047598Y-127265890D01*
X125139163Y-127312545D01*
X125139165Y-127312545D01*
X125139168Y-127312547D01*
X125203242Y-127333366D01*
X125318881Y-127370940D01*
X125505514Y-127400500D01*
X125505519Y-127400500D01*
X125694479Y-127400500D01*
X125694481Y-127400500D01*
X125757849Y-127390463D01*
X125763273Y-127391164D01*
X125768400Y-127389252D01*
X125797550Y-127395593D01*
X125827141Y-127399417D01*
X125832746Y-127403249D01*
X125836673Y-127404104D01*
X125864927Y-127425255D01*
X126039533Y-127599860D01*
X126338181Y-127898508D01*
X126371666Y-127959831D01*
X126374500Y-127986189D01*
X126374500Y-129330822D01*
X126354815Y-129397861D01*
X126333617Y-129420476D01*
X126334420Y-129421279D01*
X126327851Y-129427847D01*
X126247207Y-129537116D01*
X126247206Y-129537118D01*
X126202353Y-129665297D01*
X126202353Y-129665299D01*
X126200074Y-129689607D01*
X126199500Y-129695733D01*
X126199500Y-130704265D01*
X126199709Y-130706492D01*
X126202036Y-130731314D01*
X126196738Y-130758547D01*
X126194759Y-130786222D01*
X126190159Y-130792366D01*
X126188694Y-130799898D01*
X126169515Y-130819942D01*
X126152887Y-130842155D01*
X126145696Y-130844836D01*
X126140391Y-130850382D01*
X126113418Y-130856876D01*
X126087423Y-130866572D01*
X126079923Y-130864940D01*
X126072463Y-130866737D01*
X126046260Y-130857617D01*
X126019150Y-130851720D01*
X126010317Y-130845108D01*
X126006476Y-130843771D01*
X125990896Y-130830569D01*
X125862088Y-130701761D01*
X125828603Y-130640438D01*
X125825784Y-130615988D01*
X125825515Y-130598433D01*
X125825500Y-130596532D01*
X125825500Y-130557150D01*
X125825042Y-130553672D01*
X125825042Y-130553671D01*
X125825039Y-130553649D01*
X125824874Y-130552397D01*
X125821214Y-130539535D01*
X125814013Y-130514225D01*
X125813523Y-130512453D01*
X125804724Y-130479609D01*
X125800500Y-130447520D01*
X125800500Y-129695729D01*
X125797646Y-129665299D01*
X125797646Y-129665297D01*
X125752793Y-129537118D01*
X125752792Y-129537116D01*
X125734342Y-129512117D01*
X125672150Y-129427849D01*
X125562882Y-129347206D01*
X125562880Y-129347205D01*
X125434700Y-129302352D01*
X125404270Y-129299499D01*
X125404266Y-129299499D01*
X124770734Y-129299499D01*
X124770730Y-129299499D01*
X124740300Y-129302352D01*
X124740298Y-129302352D01*
X124612119Y-129347205D01*
X124612117Y-129347206D01*
X124502850Y-129427849D01*
X124422207Y-129537116D01*
X124422206Y-129537118D01*
X124377353Y-129665297D01*
X124377353Y-129665299D01*
X124374500Y-129695729D01*
X124374500Y-130350499D01*
X124354815Y-130417538D01*
X124302011Y-130463293D01*
X124264932Y-130471359D01*
X124265206Y-130473438D01*
X124257149Y-130474498D01*
X124174359Y-130496682D01*
X124155947Y-130507312D01*
X124155948Y-130507313D01*
X124100138Y-130539535D01*
X124046604Y-130593069D01*
X124046603Y-130593068D01*
X123961681Y-130677991D01*
X123900358Y-130711476D01*
X123830666Y-130706492D01*
X123774733Y-130664620D01*
X123750316Y-130599156D01*
X123750000Y-130590310D01*
X123750000Y-130399999D01*
X122150000Y-130399999D01*
X122150000Y-130718052D01*
X122160613Y-130806442D01*
X122198142Y-130901607D01*
X122204423Y-130971194D01*
X122172086Y-131033130D01*
X122111397Y-131067751D01*
X122041625Y-131064066D01*
X121995106Y-131034778D01*
X121960467Y-131000139D01*
X121893181Y-130932853D01*
X121786496Y-130826169D01*
X121753012Y-130764847D01*
X121751070Y-130732193D01*
X121750365Y-130732161D01*
X121750500Y-130729275D01*
X121750500Y-129681945D01*
X122150000Y-129681945D01*
X122150000Y-129999999D01*
X122750000Y-129999999D01*
X123150000Y-129999999D01*
X123750000Y-129999999D01*
X123750000Y-129681945D01*
X123739386Y-129593555D01*
X123683920Y-129452903D01*
X123592564Y-129332434D01*
X123472095Y-129241078D01*
X123331443Y-129185612D01*
X123243054Y-129174999D01*
X123150000Y-129174999D01*
X123150000Y-129999999D01*
X122750000Y-129999999D01*
X122750000Y-129174999D01*
X122656946Y-129174999D01*
X122568556Y-129185612D01*
X122427904Y-129241078D01*
X122307435Y-129332434D01*
X122216079Y-129452903D01*
X122160613Y-129593555D01*
X122150000Y-129681945D01*
X121750500Y-129681945D01*
X121750500Y-129670729D01*
X121747646Y-129640299D01*
X121747646Y-129640297D01*
X121702793Y-129512118D01*
X121702792Y-129512116D01*
X121669889Y-129467534D01*
X121622150Y-129402849D01*
X121512882Y-129322206D01*
X121512880Y-129322205D01*
X121384700Y-129277352D01*
X121354270Y-129274499D01*
X121354266Y-129274499D01*
X120745734Y-129274499D01*
X120745730Y-129274499D01*
X120715300Y-129277352D01*
X120715298Y-129277352D01*
X120587119Y-129322205D01*
X120587117Y-129322206D01*
X120477850Y-129402849D01*
X120397207Y-129512116D01*
X120397206Y-129512118D01*
X120352353Y-129640297D01*
X120352353Y-129640299D01*
X120349500Y-129670729D01*
X120349500Y-130729268D01*
X120352353Y-130759698D01*
X120352353Y-130759700D01*
X120389808Y-130866737D01*
X120397207Y-130887881D01*
X120477850Y-130997149D01*
X120587118Y-131077792D01*
X120616951Y-131088231D01*
X120715299Y-131122645D01*
X120745730Y-131125499D01*
X120745734Y-131125499D01*
X121113811Y-131125499D01*
X121180850Y-131145184D01*
X121201492Y-131161818D01*
X121439535Y-131399860D01*
X121527494Y-131487819D01*
X121560979Y-131549142D01*
X121555995Y-131618834D01*
X121514123Y-131674767D01*
X121448659Y-131699184D01*
X121439813Y-131699500D01*
X99924500Y-131699500D01*
X99857461Y-131679815D01*
X99811706Y-131627011D01*
X99800500Y-131575500D01*
X99800500Y-113280247D01*
X120499500Y-113280247D01*
X120499500Y-114619752D01*
X120511131Y-114678229D01*
X120511132Y-114678230D01*
X120555447Y-114744552D01*
X120621769Y-114788867D01*
X120621770Y-114788868D01*
X120680247Y-114800499D01*
X120680250Y-114800500D01*
X120680252Y-114800500D01*
X122719750Y-114800500D01*
X122719751Y-114800499D01*
X122734568Y-114797552D01*
X122778229Y-114788868D01*
X122778229Y-114788867D01*
X122778231Y-114788867D01*
X122844552Y-114744552D01*
X122888867Y-114678231D01*
X122888867Y-114678229D01*
X122888868Y-114678229D01*
X122900499Y-114619752D01*
X122900500Y-114619750D01*
X122900500Y-113280249D01*
X122900499Y-113280247D01*
X137099500Y-113280247D01*
X137099500Y-114619752D01*
X137111131Y-114678229D01*
X137111132Y-114678230D01*
X137155447Y-114744552D01*
X137221769Y-114788867D01*
X137221770Y-114788868D01*
X137280247Y-114800499D01*
X137280250Y-114800500D01*
X137280252Y-114800500D01*
X139319750Y-114800500D01*
X139319751Y-114800499D01*
X139334568Y-114797552D01*
X139378229Y-114788868D01*
X139378229Y-114788867D01*
X139378231Y-114788867D01*
X139444552Y-114744552D01*
X139488867Y-114678231D01*
X139488867Y-114678229D01*
X139488868Y-114678229D01*
X139500499Y-114619752D01*
X139500500Y-114619750D01*
X139500500Y-113280249D01*
X139500499Y-113280247D01*
X139488868Y-113221770D01*
X139488867Y-113221769D01*
X139444552Y-113155447D01*
X139378230Y-113111132D01*
X139378229Y-113111131D01*
X139319752Y-113099500D01*
X139319748Y-113099500D01*
X137280252Y-113099500D01*
X137280247Y-113099500D01*
X137221770Y-113111131D01*
X137221769Y-113111132D01*
X137155447Y-113155447D01*
X137111132Y-113221769D01*
X137111131Y-113221770D01*
X137099500Y-113280247D01*
X122900499Y-113280247D01*
X122888868Y-113221770D01*
X122888867Y-113221769D01*
X122844552Y-113155447D01*
X122778230Y-113111132D01*
X122778229Y-113111131D01*
X122719752Y-113099500D01*
X122719748Y-113099500D01*
X120680252Y-113099500D01*
X120680247Y-113099500D01*
X120621770Y-113111131D01*
X120621769Y-113111132D01*
X120555447Y-113155447D01*
X120511132Y-113221769D01*
X120511131Y-113221770D01*
X120499500Y-113280247D01*
X99800500Y-113280247D01*
X99800500Y-111424500D01*
X99820185Y-111357461D01*
X99872989Y-111311706D01*
X99924500Y-111300500D01*
X156972282Y-111300500D01*
X156983928Y-111302667D01*
X157011707Y-111300500D01*
X157039562Y-111300500D01*
X157039958Y-111300393D01*
X157062399Y-111296544D01*
X157079762Y-111295190D01*
X157092496Y-111294854D01*
X157110187Y-111295300D01*
X157115809Y-111293943D01*
X157135245Y-111290862D01*
X157141011Y-111290413D01*
X157157675Y-111284524D01*
X157169908Y-111280897D01*
X157203042Y-111272906D01*
X157215954Y-111270509D01*
X157232838Y-111268294D01*
X157241149Y-111264854D01*
X157247736Y-111262128D01*
X157263405Y-111258351D01*
X157284137Y-111247067D01*
X157321433Y-111231633D01*
X157333604Y-111227327D01*
X157350290Y-111222385D01*
X157363807Y-111214100D01*
X157378452Y-111208041D01*
X157397394Y-111193516D01*
X157432132Y-111172226D01*
X157443419Y-111166091D01*
X157459214Y-111158540D01*
X157461396Y-111156671D01*
X157463738Y-111154669D01*
X157463743Y-111154664D01*
X157471198Y-111148283D01*
X157484652Y-111140040D01*
X157501138Y-111122665D01*
X157531675Y-111096534D01*
X157542142Y-111088503D01*
X157556099Y-111078931D01*
X157566630Y-111066623D01*
X157578932Y-111056097D01*
X157592240Y-111036694D01*
X157618483Y-111006024D01*
X157627348Y-110996693D01*
X157640039Y-110984652D01*
X157648283Y-110971199D01*
X157658541Y-110959212D01*
X157668868Y-110937610D01*
X157690138Y-110902904D01*
X157697449Y-110892264D01*
X157708038Y-110878456D01*
X157714099Y-110863807D01*
X157722384Y-110850290D01*
X157729164Y-110827402D01*
X157744550Y-110790221D01*
X157750215Y-110778354D01*
X157758351Y-110763407D01*
X157759860Y-110757148D01*
X157765829Y-110738798D01*
X157768293Y-110732844D01*
X157770509Y-110715963D01*
X157772906Y-110703044D01*
X157780898Y-110669904D01*
X157784521Y-110657684D01*
X157790413Y-110641012D01*
X157791630Y-110625404D01*
X157795300Y-110610188D01*
X157794694Y-110586128D01*
X157796544Y-110562399D01*
X157800393Y-110539958D01*
X157800500Y-110539562D01*
X157800500Y-110511705D01*
X157802667Y-110483927D01*
X157800500Y-110472280D01*
X157800500Y-106934108D01*
X162199500Y-106934108D01*
X162199500Y-107065891D01*
X162233608Y-107193187D01*
X162266554Y-107250250D01*
X162299500Y-107307314D01*
X162392686Y-107400500D01*
X162480134Y-107450988D01*
X162506810Y-107466390D01*
X162506814Y-107466392D01*
X162634108Y-107500500D01*
X162634110Y-107500500D01*
X162765890Y-107500500D01*
X162765892Y-107500500D01*
X162893186Y-107466392D01*
X162935238Y-107442112D01*
X162950726Y-107437962D01*
X162962303Y-107430523D01*
X162997238Y-107425500D01*
X163213811Y-107425500D01*
X163280850Y-107445185D01*
X163301492Y-107461819D01*
X163439534Y-107599861D01*
X163439535Y-107599862D01*
X163639533Y-107799860D01*
X163639535Y-107799862D01*
X163839533Y-107999860D01*
X163839535Y-107999862D01*
X163900138Y-108060465D01*
X163924442Y-108074497D01*
X163924445Y-108074500D01*
X163974357Y-108103316D01*
X163974361Y-108103318D01*
X164057147Y-108125501D01*
X164057149Y-108125501D01*
X164150449Y-108125501D01*
X164150465Y-108125500D01*
X165942851Y-108125500D01*
X165942853Y-108125500D01*
X166025639Y-108103318D01*
X166099862Y-108060465D01*
X166299860Y-107860466D01*
X166299862Y-107860465D01*
X166499860Y-107660466D01*
X166499862Y-107660465D01*
X166723507Y-107436818D01*
X166784830Y-107403334D01*
X166811188Y-107400500D01*
X167404270Y-107400500D01*
X167428612Y-107398216D01*
X167434699Y-107397646D01*
X167548487Y-107357829D01*
X167618262Y-107354267D01*
X167678889Y-107388995D01*
X167711117Y-107450988D01*
X167704713Y-107520564D01*
X167677120Y-107562552D01*
X167500138Y-107739535D01*
X167046604Y-108193068D01*
X166882696Y-108356976D01*
X166500138Y-108739535D01*
X166046604Y-109193068D01*
X165882696Y-109356976D01*
X165500138Y-109739535D01*
X165046604Y-110193068D01*
X164882696Y-110356976D01*
X164500138Y-110739535D01*
X164046604Y-111193068D01*
X163839537Y-111400135D01*
X163839533Y-111400141D01*
X163796681Y-111474361D01*
X163796682Y-111474362D01*
X163774500Y-111557147D01*
X163774500Y-115875500D01*
X163754815Y-115942539D01*
X163702011Y-115988294D01*
X163650500Y-115999500D01*
X163505514Y-115999500D01*
X163318881Y-116029059D01*
X163139163Y-116087454D01*
X162970800Y-116173240D01*
X162914401Y-116214217D01*
X162817927Y-116284310D01*
X162817925Y-116284312D01*
X162817924Y-116284312D01*
X162684312Y-116417924D01*
X162684312Y-116417925D01*
X162684310Y-116417927D01*
X162649099Y-116466391D01*
X162573240Y-116570800D01*
X162487454Y-116739163D01*
X162429059Y-116918881D01*
X162399500Y-117105513D01*
X162399500Y-117294486D01*
X162429059Y-117481118D01*
X162487454Y-117660836D01*
X162558292Y-117799862D01*
X162573240Y-117829199D01*
X162684310Y-117982073D01*
X162817927Y-118115690D01*
X162970801Y-118226760D01*
X163036951Y-118260465D01*
X163139163Y-118312545D01*
X163139165Y-118312545D01*
X163139168Y-118312547D01*
X163222222Y-118339533D01*
X163318881Y-118370940D01*
X163505514Y-118400500D01*
X163505519Y-118400500D01*
X163694486Y-118400500D01*
X163881118Y-118370940D01*
X163938433Y-118352317D01*
X164060832Y-118312547D01*
X164229199Y-118226760D01*
X164338040Y-118147682D01*
X169300000Y-118147682D01*
X169300000Y-118352317D01*
X169332009Y-118554417D01*
X169395244Y-118749031D01*
X169488139Y-118931347D01*
X169550279Y-119016876D01*
X170057241Y-118509914D01*
X170119881Y-118618408D01*
X170231592Y-118730119D01*
X170340083Y-118792757D01*
X169833121Y-119299719D01*
X169833122Y-119299720D01*
X169918640Y-119361852D01*
X169918649Y-119361858D01*
X170100968Y-119454755D01*
X170295582Y-119517990D01*
X170497683Y-119550000D01*
X170702317Y-119550000D01*
X170904417Y-119517990D01*
X171099031Y-119454755D01*
X171281349Y-119361859D01*
X171366876Y-119299719D01*
X171366877Y-119299718D01*
X170859916Y-118792757D01*
X170968408Y-118730119D01*
X171080119Y-118618408D01*
X171142757Y-118509915D01*
X171649718Y-119016877D01*
X171649719Y-119016876D01*
X171711859Y-118931349D01*
X171804755Y-118749031D01*
X171867990Y-118554417D01*
X171900000Y-118352317D01*
X171900000Y-118147682D01*
X171867990Y-117945582D01*
X171804755Y-117750968D01*
X171711858Y-117568649D01*
X171711852Y-117568640D01*
X171649720Y-117483122D01*
X171649719Y-117483121D01*
X171142757Y-117990083D01*
X171080119Y-117881592D01*
X170968408Y-117769881D01*
X170859914Y-117707241D01*
X171366876Y-117200279D01*
X171281347Y-117138139D01*
X171099031Y-117045244D01*
X170904417Y-116982009D01*
X170702317Y-116950000D01*
X170497683Y-116950000D01*
X170295582Y-116982009D01*
X170100968Y-117045244D01*
X169918648Y-117138141D01*
X169833122Y-117200278D01*
X169833122Y-117200279D01*
X170340085Y-117707242D01*
X170231592Y-117769881D01*
X170119881Y-117881592D01*
X170057242Y-117990085D01*
X169550279Y-117483122D01*
X169550278Y-117483122D01*
X169488141Y-117568648D01*
X169395244Y-117750968D01*
X169332009Y-117945582D01*
X169300000Y-118147682D01*
X164338040Y-118147682D01*
X164382073Y-118115690D01*
X164515690Y-117982073D01*
X164626760Y-117829199D01*
X164712547Y-117660832D01*
X164770940Y-117481118D01*
X164773272Y-117466392D01*
X164800500Y-117294486D01*
X164800500Y-117105513D01*
X164770940Y-116918881D01*
X164732267Y-116799860D01*
X164712547Y-116739168D01*
X164712545Y-116739165D01*
X164712545Y-116739163D01*
X164652588Y-116621492D01*
X164626760Y-116570801D01*
X164515690Y-116417927D01*
X164461819Y-116364056D01*
X164428334Y-116302733D01*
X164425500Y-116276375D01*
X164425500Y-111786188D01*
X164434144Y-111756748D01*
X164440667Y-111726763D01*
X164444422Y-111721745D01*
X164445185Y-111719149D01*
X164461812Y-111698513D01*
X164499860Y-111660466D01*
X164499862Y-111660465D01*
X164960465Y-111199862D01*
X165360465Y-110799862D01*
X165360465Y-110799861D01*
X165421146Y-110739179D01*
X165482467Y-110705696D01*
X165552159Y-110710680D01*
X165608092Y-110752552D01*
X165632509Y-110818016D01*
X165617657Y-110886289D01*
X165613819Y-110892834D01*
X165479327Y-111106877D01*
X165339201Y-111397852D01*
X165339195Y-111397866D01*
X165232531Y-111702693D01*
X165232527Y-111702705D01*
X165160661Y-112017573D01*
X165160659Y-112017589D01*
X165124500Y-112338510D01*
X165124500Y-112661489D01*
X165160659Y-112982410D01*
X165160661Y-112982426D01*
X165232527Y-113297294D01*
X165232531Y-113297306D01*
X165339195Y-113602133D01*
X165339201Y-113602147D01*
X165479327Y-113893122D01*
X165479329Y-113893125D01*
X165651159Y-114166591D01*
X165852527Y-114419099D01*
X166080901Y-114647473D01*
X166333409Y-114848841D01*
X166567182Y-114995730D01*
X166606877Y-115020672D01*
X166641704Y-115037444D01*
X166897860Y-115160802D01*
X166897866Y-115160804D01*
X167202693Y-115267468D01*
X167202705Y-115267472D01*
X167517577Y-115339339D01*
X167838511Y-115375499D01*
X167838512Y-115375500D01*
X167838515Y-115375500D01*
X168161488Y-115375500D01*
X168161488Y-115375499D01*
X168482423Y-115339339D01*
X168797295Y-115267472D01*
X169102140Y-115160802D01*
X169393125Y-115020671D01*
X169666591Y-114848841D01*
X169919099Y-114647473D01*
X170147473Y-114419099D01*
X170348841Y-114166591D01*
X170520671Y-113893125D01*
X170660802Y-113602140D01*
X170767472Y-113297295D01*
X170839339Y-112982423D01*
X170875500Y-112661485D01*
X170875500Y-112338515D01*
X170839339Y-112017577D01*
X170767472Y-111702705D01*
X170766003Y-111698508D01*
X170660804Y-111397866D01*
X170660802Y-111397860D01*
X170520671Y-111106875D01*
X170348841Y-110833409D01*
X170147473Y-110580901D01*
X169919099Y-110352527D01*
X169666591Y-110151159D01*
X169432222Y-110003895D01*
X169393122Y-109979327D01*
X169102147Y-109839201D01*
X169102133Y-109839195D01*
X168797306Y-109732531D01*
X168797294Y-109732527D01*
X168482426Y-109660661D01*
X168482410Y-109660659D01*
X168161489Y-109624500D01*
X168161485Y-109624500D01*
X167838515Y-109624500D01*
X167838510Y-109624500D01*
X167517589Y-109660659D01*
X167517573Y-109660661D01*
X167202705Y-109732527D01*
X167202693Y-109732531D01*
X166897866Y-109839195D01*
X166897852Y-109839201D01*
X166606877Y-109979327D01*
X166392837Y-110113817D01*
X166372118Y-110119671D01*
X166353224Y-110129989D01*
X166339165Y-110128983D01*
X166325600Y-110132817D01*
X166305004Y-110126540D01*
X166283532Y-110125005D01*
X166272247Y-110116557D01*
X166258765Y-110112449D01*
X166244834Y-110096036D01*
X166227598Y-110083134D01*
X166222671Y-110069926D01*
X166213551Y-110059181D01*
X166210704Y-110037842D01*
X166203181Y-110017670D01*
X166206177Y-110003895D01*
X166204314Y-109989925D01*
X166213456Y-109970432D01*
X166218033Y-109949397D01*
X166232203Y-109930466D01*
X166233985Y-109926668D01*
X166239151Y-109921175D01*
X166360465Y-109799862D01*
X166360465Y-109799861D01*
X166499860Y-109660466D01*
X166499862Y-109660465D01*
X166960465Y-109199862D01*
X167360465Y-108799862D01*
X167360465Y-108799861D01*
X167499860Y-108660466D01*
X167499862Y-108660465D01*
X167960465Y-108199862D01*
X168360465Y-107799862D01*
X168360465Y-107799861D01*
X168499860Y-107660466D01*
X168499862Y-107660465D01*
X168699860Y-107460466D01*
X168699862Y-107460465D01*
X168723508Y-107436819D01*
X168784831Y-107403334D01*
X168811189Y-107400500D01*
X169229270Y-107400500D01*
X169259699Y-107397646D01*
X169259701Y-107397646D01*
X169323790Y-107375219D01*
X169387882Y-107352793D01*
X169497150Y-107272150D01*
X169577793Y-107162882D01*
X169611731Y-107065892D01*
X169622646Y-107034701D01*
X169622646Y-107034699D01*
X169625500Y-107004269D01*
X169625500Y-105995730D01*
X169622646Y-105965300D01*
X169622646Y-105965298D01*
X169577793Y-105837119D01*
X169577792Y-105837117D01*
X169559342Y-105812118D01*
X169497150Y-105727850D01*
X169497149Y-105727849D01*
X169493669Y-105723134D01*
X169469698Y-105657505D01*
X169485014Y-105589334D01*
X169534754Y-105540266D01*
X169593439Y-105525500D01*
X170406561Y-105525500D01*
X170473600Y-105545185D01*
X170519355Y-105597989D01*
X170529299Y-105667147D01*
X170506331Y-105723134D01*
X170502850Y-105727849D01*
X170502850Y-105727850D01*
X170474326Y-105766498D01*
X170422207Y-105837117D01*
X170422206Y-105837119D01*
X170377353Y-105965298D01*
X170377353Y-105965300D01*
X170374500Y-105995730D01*
X170374500Y-106566324D01*
X170354815Y-106633363D01*
X170338181Y-106654005D01*
X170299502Y-106692683D01*
X170299500Y-106692686D01*
X170233608Y-106806812D01*
X170199500Y-106934108D01*
X170199500Y-107065891D01*
X170233608Y-107193187D01*
X170266554Y-107250250D01*
X170299500Y-107307314D01*
X170392686Y-107400500D01*
X170480134Y-107450988D01*
X170506810Y-107466390D01*
X170506814Y-107466392D01*
X170634108Y-107500500D01*
X170634110Y-107500500D01*
X170765890Y-107500500D01*
X170765892Y-107500500D01*
X170893186Y-107466392D01*
X170978540Y-107417113D01*
X171040540Y-107400500D01*
X171404270Y-107400500D01*
X171434699Y-107397646D01*
X171434701Y-107397646D01*
X171498790Y-107375219D01*
X171562882Y-107352793D01*
X171672150Y-107272150D01*
X171752793Y-107162882D01*
X171786731Y-107065892D01*
X171797646Y-107034701D01*
X171797646Y-107034699D01*
X171800500Y-107004269D01*
X171800500Y-105995730D01*
X171797646Y-105965301D01*
X171786982Y-105934826D01*
X171757829Y-105851512D01*
X171757433Y-105843745D01*
X171753705Y-105836918D01*
X171755676Y-105809346D01*
X171754267Y-105781737D01*
X171758134Y-105774986D01*
X171758689Y-105767226D01*
X171775255Y-105745095D01*
X171788996Y-105721109D01*
X171795899Y-105717520D01*
X171800561Y-105711293D01*
X171826461Y-105701632D01*
X171850989Y-105688882D01*
X171858735Y-105689594D01*
X171866025Y-105686876D01*
X171893038Y-105692752D01*
X171920564Y-105695286D01*
X171928421Y-105700449D01*
X171934298Y-105701728D01*
X171962552Y-105722879D01*
X172137507Y-105897834D01*
X172170992Y-105959157D01*
X172173260Y-105997352D01*
X172171894Y-106011585D01*
X172172791Y-106016926D01*
X172174500Y-106037444D01*
X172174500Y-106042851D01*
X172174501Y-106042860D01*
X172180024Y-106063476D01*
X172181562Y-106069217D01*
X172186075Y-106096113D01*
X172192602Y-106110422D01*
X172195275Y-106120398D01*
X172195003Y-106131796D01*
X172199500Y-106152489D01*
X172199500Y-107004269D01*
X172202353Y-107034699D01*
X172202353Y-107034701D01*
X172247206Y-107162880D01*
X172247207Y-107162882D01*
X172327850Y-107272150D01*
X172437118Y-107352793D01*
X172479845Y-107367744D01*
X172565299Y-107397646D01*
X172595730Y-107400500D01*
X172595734Y-107400500D01*
X173229270Y-107400500D01*
X173259699Y-107397646D01*
X173259701Y-107397646D01*
X173323790Y-107375219D01*
X173387882Y-107352793D01*
X173497150Y-107272150D01*
X173577793Y-107162882D01*
X173611731Y-107065892D01*
X173622646Y-107034701D01*
X173622646Y-107034699D01*
X173625500Y-107004269D01*
X173625500Y-105995730D01*
X173622646Y-105965300D01*
X173622646Y-105965298D01*
X173577793Y-105837119D01*
X173577792Y-105837117D01*
X173559342Y-105812118D01*
X173497150Y-105727850D01*
X173387882Y-105647207D01*
X173387880Y-105647206D01*
X173259700Y-105602353D01*
X173229270Y-105599500D01*
X173229266Y-105599500D01*
X172811189Y-105599500D01*
X172744150Y-105579815D01*
X172723508Y-105563181D01*
X172099864Y-104939537D01*
X172099862Y-104939535D01*
X172062750Y-104918108D01*
X172025640Y-104896682D01*
X171984246Y-104885591D01*
X171942853Y-104874500D01*
X171942852Y-104874500D01*
X168150465Y-104874500D01*
X168150449Y-104874499D01*
X168142853Y-104874499D01*
X168057147Y-104874499D01*
X168001956Y-104889287D01*
X167974360Y-104896682D01*
X167955805Y-104907395D01*
X167937250Y-104918108D01*
X167900138Y-104939535D01*
X167846604Y-104993069D01*
X167846603Y-104993068D01*
X167446601Y-105393071D01*
X167439533Y-105400138D01*
X167439533Y-105400139D01*
X167354060Y-105485613D01*
X167276492Y-105563181D01*
X167215169Y-105596666D01*
X167188811Y-105599500D01*
X166770730Y-105599500D01*
X166740300Y-105602353D01*
X166740298Y-105602353D01*
X166612119Y-105647206D01*
X166612117Y-105647207D01*
X166502850Y-105727850D01*
X166422207Y-105837117D01*
X166422206Y-105837119D01*
X166377353Y-105965298D01*
X166377353Y-105965300D01*
X166374500Y-105995730D01*
X166374500Y-106813811D01*
X166354815Y-106880850D01*
X166338181Y-106901492D01*
X166046604Y-107193068D01*
X165904894Y-107334778D01*
X165843571Y-107368263D01*
X165773879Y-107363279D01*
X165717946Y-107321407D01*
X165693529Y-107255943D01*
X165701859Y-107201607D01*
X165739385Y-107106446D01*
X165750000Y-107018053D01*
X165750000Y-106700000D01*
X164150000Y-106700000D01*
X164150000Y-107018055D01*
X164157963Y-107084376D01*
X164153118Y-107113273D01*
X164151029Y-107142492D01*
X164147409Y-107147326D01*
X164146411Y-107153284D01*
X164126711Y-107174975D01*
X164109157Y-107198425D01*
X164103499Y-107200535D01*
X164099438Y-107205007D01*
X164071142Y-107212603D01*
X164043693Y-107222842D01*
X164037790Y-107221558D01*
X164031958Y-107223124D01*
X164004048Y-107214217D01*
X163975420Y-107207990D01*
X163968649Y-107202921D01*
X163965395Y-107201883D01*
X163947166Y-107186839D01*
X163786819Y-107026492D01*
X163753334Y-106965169D01*
X163750500Y-106938811D01*
X163750500Y-105981946D01*
X164150000Y-105981946D01*
X164150000Y-106300000D01*
X164750000Y-106300000D01*
X165150000Y-106300000D01*
X165750000Y-106300000D01*
X165750000Y-105981946D01*
X165739386Y-105893556D01*
X165683920Y-105752904D01*
X165592564Y-105632435D01*
X165472095Y-105541079D01*
X165331443Y-105485613D01*
X165243054Y-105475000D01*
X165150000Y-105475000D01*
X165150000Y-106300000D01*
X164750000Y-106300000D01*
X164750000Y-105475000D01*
X164656946Y-105475000D01*
X164568556Y-105485613D01*
X164427904Y-105541079D01*
X164307435Y-105632435D01*
X164216079Y-105752904D01*
X164160613Y-105893556D01*
X164150000Y-105981946D01*
X163750500Y-105981946D01*
X163750500Y-105970730D01*
X163747646Y-105940300D01*
X163747646Y-105940298D01*
X163702793Y-105812119D01*
X163702792Y-105812117D01*
X163695113Y-105801712D01*
X163622150Y-105702850D01*
X163512882Y-105622207D01*
X163512880Y-105622206D01*
X163384700Y-105577353D01*
X163354270Y-105574500D01*
X163354266Y-105574500D01*
X162745734Y-105574500D01*
X162745730Y-105574500D01*
X162715300Y-105577353D01*
X162715298Y-105577353D01*
X162587119Y-105622206D01*
X162587117Y-105622207D01*
X162477850Y-105702850D01*
X162397207Y-105812117D01*
X162397206Y-105812119D01*
X162352353Y-105940298D01*
X162352353Y-105940300D01*
X162349500Y-105970730D01*
X162349500Y-106591324D01*
X162329815Y-106658363D01*
X162313181Y-106679005D01*
X162299502Y-106692683D01*
X162299500Y-106692686D01*
X162233608Y-106806812D01*
X162199500Y-106934108D01*
X157800500Y-106934108D01*
X157800500Y-102424500D01*
X157820185Y-102357461D01*
X157872989Y-102311706D01*
X157924500Y-102300500D01*
X178075500Y-102300500D01*
X178142539Y-102320185D01*
G37*
%TD.AperFunction*%
%TD*%
M02*
