%TF.GenerationSoftware,KiCad,Pcbnew,9.0.9-9.0.9~ubuntu24.04.1*%
%TF.CreationDate,2026-10-04T15:05:19+00:00*%
%TF.ProjectId,key-board-lh,6b65792d-626f-4617-9264-2d6c682e6b69,A*%
%TF.SameCoordinates,Original*%
%TF.FileFunction,Legend,Bot*%
%TF.FilePolarity,Positive*%
%FSLAX46Y46*%
G04 Gerber Fmt 4.6, Leading zero omitted, Abs format (unit mm)*
G04 Created by KiCad (PCBNEW 9.0.9-9.0.9~ubuntu24.04.1) date 2026-10-04 15:05:19*
%MOMM*%
%LPD*%
G01*
G04 APERTURE LIST*
%ADD10C,0.180000*%
%ADD11C,0.390000*%
%ADD12C,0.150000*%
G04 APERTURE END LIST*
D10*
X98350000Y-122100000D02*
X97150000Y-121500000D01*
X98350000Y-120900000D01*
X98350000Y-122100000D01*
G36*
X98350000Y-122100000D02*
G01*
X97150000Y-121500000D01*
X98350000Y-120900000D01*
X98350000Y-122100000D01*
G37*
X142494999Y-107985000D02*
X141295000Y-108585000D01*
X141295000Y-107385000D01*
X142494999Y-107985000D01*
G36*
X142494999Y-107985000D02*
G01*
X141295000Y-108585000D01*
X141295000Y-107385000D01*
X142494999Y-107985000D01*
G37*
D11*
X129605000Y-111160000D02*
G75*
G02*
X129215000Y-111160000I-195000J0D01*
G01*
X129215000Y-111160000D02*
G75*
G02*
X129605000Y-111160000I195000J0D01*
G01*
D10*
X103385713Y-121953259D02*
X103385713Y-120953259D01*
X103385713Y-120953259D02*
X103052380Y-121667544D01*
X103052380Y-121667544D02*
X102719047Y-120953259D01*
X102719047Y-120953259D02*
X102719047Y-121953259D01*
X102052380Y-120953259D02*
X101861904Y-120953259D01*
X101861904Y-120953259D02*
X101766666Y-121000878D01*
X101766666Y-121000878D02*
X101671428Y-121096116D01*
X101671428Y-121096116D02*
X101623809Y-121286592D01*
X101623809Y-121286592D02*
X101623809Y-121619925D01*
X101623809Y-121619925D02*
X101671428Y-121810401D01*
X101671428Y-121810401D02*
X101766666Y-121905640D01*
X101766666Y-121905640D02*
X101861904Y-121953259D01*
X101861904Y-121953259D02*
X102052380Y-121953259D01*
X102052380Y-121953259D02*
X102147618Y-121905640D01*
X102147618Y-121905640D02*
X102242856Y-121810401D01*
X102242856Y-121810401D02*
X102290475Y-121619925D01*
X102290475Y-121619925D02*
X102290475Y-121286592D01*
X102290475Y-121286592D02*
X102242856Y-121096116D01*
X102242856Y-121096116D02*
X102147618Y-121000878D01*
X102147618Y-121000878D02*
X102052380Y-120953259D01*
X101195237Y-120953259D02*
X101195237Y-121762782D01*
X101195237Y-121762782D02*
X101147618Y-121858020D01*
X101147618Y-121858020D02*
X101099999Y-121905640D01*
X101099999Y-121905640D02*
X101004761Y-121953259D01*
X101004761Y-121953259D02*
X100814285Y-121953259D01*
X100814285Y-121953259D02*
X100719047Y-121905640D01*
X100719047Y-121905640D02*
X100671428Y-121858020D01*
X100671428Y-121858020D02*
X100623809Y-121762782D01*
X100623809Y-121762782D02*
X100623809Y-120953259D01*
X100290475Y-120953259D02*
X99719047Y-120953259D01*
X100004761Y-121953259D02*
X100004761Y-120953259D01*
X99385713Y-121953259D02*
X99385713Y-120953259D01*
X99385713Y-121429449D02*
X98814285Y-121429449D01*
X98814285Y-121953259D02*
X98814285Y-120953259D01*
X116990476Y-120128259D02*
X117466666Y-120128259D01*
X117466666Y-120128259D02*
X117466666Y-119128259D01*
X116657142Y-120128259D02*
X116657142Y-119128259D01*
X116657142Y-119604449D02*
X116085714Y-119604449D01*
X116085714Y-120128259D02*
X116085714Y-119128259D01*
X115085714Y-120128259D02*
X115657142Y-120128259D01*
X115371428Y-120128259D02*
X115371428Y-119128259D01*
X115371428Y-119128259D02*
X115466666Y-119271116D01*
X115466666Y-119271116D02*
X115561904Y-119366354D01*
X115561904Y-119366354D02*
X115657142Y-119413973D01*
X116466666Y-123683020D02*
X116514285Y-123730640D01*
X116514285Y-123730640D02*
X116657142Y-123778259D01*
X116657142Y-123778259D02*
X116752380Y-123778259D01*
X116752380Y-123778259D02*
X116895237Y-123730640D01*
X116895237Y-123730640D02*
X116990475Y-123635401D01*
X116990475Y-123635401D02*
X117038094Y-123540163D01*
X117038094Y-123540163D02*
X117085713Y-123349687D01*
X117085713Y-123349687D02*
X117085713Y-123206830D01*
X117085713Y-123206830D02*
X117038094Y-123016354D01*
X117038094Y-123016354D02*
X116990475Y-122921116D01*
X116990475Y-122921116D02*
X116895237Y-122825878D01*
X116895237Y-122825878D02*
X116752380Y-122778259D01*
X116752380Y-122778259D02*
X116657142Y-122778259D01*
X116657142Y-122778259D02*
X116514285Y-122825878D01*
X116514285Y-122825878D02*
X116466666Y-122873497D01*
X115514285Y-123778259D02*
X116085713Y-123778259D01*
X115799999Y-123778259D02*
X115799999Y-122778259D01*
X115799999Y-122778259D02*
X115895237Y-122921116D01*
X115895237Y-122921116D02*
X115990475Y-123016354D01*
X115990475Y-123016354D02*
X116085713Y-123063973D01*
X127666666Y-105863020D02*
X127714285Y-105910640D01*
X127714285Y-105910640D02*
X127857142Y-105958259D01*
X127857142Y-105958259D02*
X127952380Y-105958259D01*
X127952380Y-105958259D02*
X128095237Y-105910640D01*
X128095237Y-105910640D02*
X128190475Y-105815401D01*
X128190475Y-105815401D02*
X128238094Y-105720163D01*
X128238094Y-105720163D02*
X128285713Y-105529687D01*
X128285713Y-105529687D02*
X128285713Y-105386830D01*
X128285713Y-105386830D02*
X128238094Y-105196354D01*
X128238094Y-105196354D02*
X128190475Y-105101116D01*
X128190475Y-105101116D02*
X128095237Y-105005878D01*
X128095237Y-105005878D02*
X127952380Y-104958259D01*
X127952380Y-104958259D02*
X127857142Y-104958259D01*
X127857142Y-104958259D02*
X127714285Y-105005878D01*
X127714285Y-105005878D02*
X127666666Y-105053497D01*
X127333332Y-104958259D02*
X126666666Y-104958259D01*
X126666666Y-104958259D02*
X127095237Y-105958259D01*
X135853332Y-115718259D02*
X135853332Y-116432544D01*
X135853332Y-116432544D02*
X135900951Y-116575401D01*
X135900951Y-116575401D02*
X135996189Y-116670640D01*
X135996189Y-116670640D02*
X136139046Y-116718259D01*
X136139046Y-116718259D02*
X136234284Y-116718259D01*
X134853332Y-116718259D02*
X135424760Y-116718259D01*
X135139046Y-116718259D02*
X135139046Y-115718259D01*
X135139046Y-115718259D02*
X135234284Y-115861116D01*
X135234284Y-115861116D02*
X135329522Y-115956354D01*
X135329522Y-115956354D02*
X135424760Y-116003973D01*
X136990476Y-120128259D02*
X137466666Y-120128259D01*
X137466666Y-120128259D02*
X137466666Y-119128259D01*
X136657142Y-120128259D02*
X136657142Y-119128259D01*
X136657142Y-119604449D02*
X136085714Y-119604449D01*
X136085714Y-120128259D02*
X136085714Y-119128259D01*
X135657142Y-119223497D02*
X135609523Y-119175878D01*
X135609523Y-119175878D02*
X135514285Y-119128259D01*
X135514285Y-119128259D02*
X135276190Y-119128259D01*
X135276190Y-119128259D02*
X135180952Y-119175878D01*
X135180952Y-119175878D02*
X135133333Y-119223497D01*
X135133333Y-119223497D02*
X135085714Y-119318735D01*
X135085714Y-119318735D02*
X135085714Y-119413973D01*
X135085714Y-119413973D02*
X135133333Y-119556830D01*
X135133333Y-119556830D02*
X135704761Y-120128259D01*
X135704761Y-120128259D02*
X135085714Y-120128259D01*
X136466666Y-123683020D02*
X136514285Y-123730640D01*
X136514285Y-123730640D02*
X136657142Y-123778259D01*
X136657142Y-123778259D02*
X136752380Y-123778259D01*
X136752380Y-123778259D02*
X136895237Y-123730640D01*
X136895237Y-123730640D02*
X136990475Y-123635401D01*
X136990475Y-123635401D02*
X137038094Y-123540163D01*
X137038094Y-123540163D02*
X137085713Y-123349687D01*
X137085713Y-123349687D02*
X137085713Y-123206830D01*
X137085713Y-123206830D02*
X137038094Y-123016354D01*
X137038094Y-123016354D02*
X136990475Y-122921116D01*
X136990475Y-122921116D02*
X136895237Y-122825878D01*
X136895237Y-122825878D02*
X136752380Y-122778259D01*
X136752380Y-122778259D02*
X136657142Y-122778259D01*
X136657142Y-122778259D02*
X136514285Y-122825878D01*
X136514285Y-122825878D02*
X136466666Y-122873497D01*
X136085713Y-122873497D02*
X136038094Y-122825878D01*
X136038094Y-122825878D02*
X135942856Y-122778259D01*
X135942856Y-122778259D02*
X135704761Y-122778259D01*
X135704761Y-122778259D02*
X135609523Y-122825878D01*
X135609523Y-122825878D02*
X135561904Y-122873497D01*
X135561904Y-122873497D02*
X135514285Y-122968735D01*
X135514285Y-122968735D02*
X135514285Y-123063973D01*
X135514285Y-123063973D02*
X135561904Y-123206830D01*
X135561904Y-123206830D02*
X136133332Y-123778259D01*
X136133332Y-123778259D02*
X135514285Y-123778259D01*
X146625476Y-102253259D02*
X146958809Y-101777068D01*
X147196904Y-102253259D02*
X147196904Y-101253259D01*
X147196904Y-101253259D02*
X146815952Y-101253259D01*
X146815952Y-101253259D02*
X146720714Y-101300878D01*
X146720714Y-101300878D02*
X146673095Y-101348497D01*
X146673095Y-101348497D02*
X146625476Y-101443735D01*
X146625476Y-101443735D02*
X146625476Y-101586592D01*
X146625476Y-101586592D02*
X146673095Y-101681830D01*
X146673095Y-101681830D02*
X146720714Y-101729449D01*
X146720714Y-101729449D02*
X146815952Y-101777068D01*
X146815952Y-101777068D02*
X147196904Y-101777068D01*
X145673095Y-102253259D02*
X146244523Y-102253259D01*
X145958809Y-102253259D02*
X145958809Y-101253259D01*
X145958809Y-101253259D02*
X146054047Y-101396116D01*
X146054047Y-101396116D02*
X146149285Y-101491354D01*
X146149285Y-101491354D02*
X146244523Y-101538973D01*
X144720714Y-102253259D02*
X145292142Y-102253259D01*
X145006428Y-102253259D02*
X145006428Y-101253259D01*
X145006428Y-101253259D02*
X145101666Y-101396116D01*
X145101666Y-101396116D02*
X145196904Y-101491354D01*
X145196904Y-101491354D02*
X145292142Y-101538973D01*
X151761904Y-110448259D02*
X151761904Y-111257782D01*
X151761904Y-111257782D02*
X151714285Y-111353020D01*
X151714285Y-111353020D02*
X151666666Y-111400640D01*
X151666666Y-111400640D02*
X151571428Y-111448259D01*
X151571428Y-111448259D02*
X151380952Y-111448259D01*
X151380952Y-111448259D02*
X151285714Y-111400640D01*
X151285714Y-111400640D02*
X151238095Y-111353020D01*
X151238095Y-111353020D02*
X151190476Y-111257782D01*
X151190476Y-111257782D02*
X151190476Y-110448259D01*
X150190476Y-111448259D02*
X150761904Y-111448259D01*
X150476190Y-111448259D02*
X150476190Y-110448259D01*
X150476190Y-110448259D02*
X150571428Y-110591116D01*
X150571428Y-110591116D02*
X150666666Y-110686354D01*
X150666666Y-110686354D02*
X150761904Y-110733973D01*
X156990476Y-120128259D02*
X157466666Y-120128259D01*
X157466666Y-120128259D02*
X157466666Y-119128259D01*
X156657142Y-120128259D02*
X156657142Y-119128259D01*
X156657142Y-119604449D02*
X156085714Y-119604449D01*
X156085714Y-120128259D02*
X156085714Y-119128259D01*
X155704761Y-119128259D02*
X155085714Y-119128259D01*
X155085714Y-119128259D02*
X155419047Y-119509211D01*
X155419047Y-119509211D02*
X155276190Y-119509211D01*
X155276190Y-119509211D02*
X155180952Y-119556830D01*
X155180952Y-119556830D02*
X155133333Y-119604449D01*
X155133333Y-119604449D02*
X155085714Y-119699687D01*
X155085714Y-119699687D02*
X155085714Y-119937782D01*
X155085714Y-119937782D02*
X155133333Y-120033020D01*
X155133333Y-120033020D02*
X155180952Y-120080640D01*
X155180952Y-120080640D02*
X155276190Y-120128259D01*
X155276190Y-120128259D02*
X155561904Y-120128259D01*
X155561904Y-120128259D02*
X155657142Y-120080640D01*
X155657142Y-120080640D02*
X155704761Y-120033020D01*
X156466666Y-123683020D02*
X156514285Y-123730640D01*
X156514285Y-123730640D02*
X156657142Y-123778259D01*
X156657142Y-123778259D02*
X156752380Y-123778259D01*
X156752380Y-123778259D02*
X156895237Y-123730640D01*
X156895237Y-123730640D02*
X156990475Y-123635401D01*
X156990475Y-123635401D02*
X157038094Y-123540163D01*
X157038094Y-123540163D02*
X157085713Y-123349687D01*
X157085713Y-123349687D02*
X157085713Y-123206830D01*
X157085713Y-123206830D02*
X157038094Y-123016354D01*
X157038094Y-123016354D02*
X156990475Y-122921116D01*
X156990475Y-122921116D02*
X156895237Y-122825878D01*
X156895237Y-122825878D02*
X156752380Y-122778259D01*
X156752380Y-122778259D02*
X156657142Y-122778259D01*
X156657142Y-122778259D02*
X156514285Y-122825878D01*
X156514285Y-122825878D02*
X156466666Y-122873497D01*
X156133332Y-122778259D02*
X155514285Y-122778259D01*
X155514285Y-122778259D02*
X155847618Y-123159211D01*
X155847618Y-123159211D02*
X155704761Y-123159211D01*
X155704761Y-123159211D02*
X155609523Y-123206830D01*
X155609523Y-123206830D02*
X155561904Y-123254449D01*
X155561904Y-123254449D02*
X155514285Y-123349687D01*
X155514285Y-123349687D02*
X155514285Y-123587782D01*
X155514285Y-123587782D02*
X155561904Y-123683020D01*
X155561904Y-123683020D02*
X155609523Y-123730640D01*
X155609523Y-123730640D02*
X155704761Y-123778259D01*
X155704761Y-123778259D02*
X155990475Y-123778259D01*
X155990475Y-123778259D02*
X156085713Y-123730640D01*
X156085713Y-123730640D02*
X156133332Y-123683020D01*
X158257856Y-102158020D02*
X158305475Y-102205640D01*
X158305475Y-102205640D02*
X158448332Y-102253259D01*
X158448332Y-102253259D02*
X158543570Y-102253259D01*
X158543570Y-102253259D02*
X158686427Y-102205640D01*
X158686427Y-102205640D02*
X158781665Y-102110401D01*
X158781665Y-102110401D02*
X158829284Y-102015163D01*
X158829284Y-102015163D02*
X158876903Y-101824687D01*
X158876903Y-101824687D02*
X158876903Y-101681830D01*
X158876903Y-101681830D02*
X158829284Y-101491354D01*
X158829284Y-101491354D02*
X158781665Y-101396116D01*
X158781665Y-101396116D02*
X158686427Y-101300878D01*
X158686427Y-101300878D02*
X158543570Y-101253259D01*
X158543570Y-101253259D02*
X158448332Y-101253259D01*
X158448332Y-101253259D02*
X158305475Y-101300878D01*
X158305475Y-101300878D02*
X158257856Y-101348497D01*
X157400713Y-101253259D02*
X157591189Y-101253259D01*
X157591189Y-101253259D02*
X157686427Y-101300878D01*
X157686427Y-101300878D02*
X157734046Y-101348497D01*
X157734046Y-101348497D02*
X157829284Y-101491354D01*
X157829284Y-101491354D02*
X157876903Y-101681830D01*
X157876903Y-101681830D02*
X157876903Y-102062782D01*
X157876903Y-102062782D02*
X157829284Y-102158020D01*
X157829284Y-102158020D02*
X157781665Y-102205640D01*
X157781665Y-102205640D02*
X157686427Y-102253259D01*
X157686427Y-102253259D02*
X157495951Y-102253259D01*
X157495951Y-102253259D02*
X157400713Y-102205640D01*
X157400713Y-102205640D02*
X157353094Y-102158020D01*
X157353094Y-102158020D02*
X157305475Y-102062782D01*
X157305475Y-102062782D02*
X157305475Y-101824687D01*
X157305475Y-101824687D02*
X157353094Y-101729449D01*
X157353094Y-101729449D02*
X157400713Y-101681830D01*
X157400713Y-101681830D02*
X157495951Y-101634211D01*
X157495951Y-101634211D02*
X157686427Y-101634211D01*
X157686427Y-101634211D02*
X157781665Y-101681830D01*
X157781665Y-101681830D02*
X157829284Y-101729449D01*
X157829284Y-101729449D02*
X157876903Y-101824687D01*
X174990476Y-111128259D02*
X175466666Y-111128259D01*
X175466666Y-111128259D02*
X175466666Y-110128259D01*
X174657142Y-111128259D02*
X174657142Y-110128259D01*
X174657142Y-110604449D02*
X174085714Y-110604449D01*
X174085714Y-111128259D02*
X174085714Y-110128259D01*
X173133333Y-110128259D02*
X173609523Y-110128259D01*
X173609523Y-110128259D02*
X173657142Y-110604449D01*
X173657142Y-110604449D02*
X173609523Y-110556830D01*
X173609523Y-110556830D02*
X173514285Y-110509211D01*
X173514285Y-110509211D02*
X173276190Y-110509211D01*
X173276190Y-110509211D02*
X173180952Y-110556830D01*
X173180952Y-110556830D02*
X173133333Y-110604449D01*
X173133333Y-110604449D02*
X173085714Y-110699687D01*
X173085714Y-110699687D02*
X173085714Y-110937782D01*
X173085714Y-110937782D02*
X173133333Y-111033020D01*
X173133333Y-111033020D02*
X173180952Y-111080640D01*
X173180952Y-111080640D02*
X173276190Y-111128259D01*
X173276190Y-111128259D02*
X173514285Y-111128259D01*
X173514285Y-111128259D02*
X173609523Y-111080640D01*
X173609523Y-111080640D02*
X173657142Y-111033020D01*
X174466666Y-114683020D02*
X174514285Y-114730640D01*
X174514285Y-114730640D02*
X174657142Y-114778259D01*
X174657142Y-114778259D02*
X174752380Y-114778259D01*
X174752380Y-114778259D02*
X174895237Y-114730640D01*
X174895237Y-114730640D02*
X174990475Y-114635401D01*
X174990475Y-114635401D02*
X175038094Y-114540163D01*
X175038094Y-114540163D02*
X175085713Y-114349687D01*
X175085713Y-114349687D02*
X175085713Y-114206830D01*
X175085713Y-114206830D02*
X175038094Y-114016354D01*
X175038094Y-114016354D02*
X174990475Y-113921116D01*
X174990475Y-113921116D02*
X174895237Y-113825878D01*
X174895237Y-113825878D02*
X174752380Y-113778259D01*
X174752380Y-113778259D02*
X174657142Y-113778259D01*
X174657142Y-113778259D02*
X174514285Y-113825878D01*
X174514285Y-113825878D02*
X174466666Y-113873497D01*
X173561904Y-113778259D02*
X174038094Y-113778259D01*
X174038094Y-113778259D02*
X174085713Y-114254449D01*
X174085713Y-114254449D02*
X174038094Y-114206830D01*
X174038094Y-114206830D02*
X173942856Y-114159211D01*
X173942856Y-114159211D02*
X173704761Y-114159211D01*
X173704761Y-114159211D02*
X173609523Y-114206830D01*
X173609523Y-114206830D02*
X173561904Y-114254449D01*
X173561904Y-114254449D02*
X173514285Y-114349687D01*
X173514285Y-114349687D02*
X173514285Y-114587782D01*
X173514285Y-114587782D02*
X173561904Y-114683020D01*
X173561904Y-114683020D02*
X173609523Y-114730640D01*
X173609523Y-114730640D02*
X173704761Y-114778259D01*
X173704761Y-114778259D02*
X173942856Y-114778259D01*
X173942856Y-114778259D02*
X174038094Y-114730640D01*
X174038094Y-114730640D02*
X174085713Y-114683020D01*
X174990476Y-129128258D02*
X175466666Y-129128258D01*
X175466666Y-129128258D02*
X175466666Y-128128258D01*
X174657142Y-129128258D02*
X174657142Y-128128258D01*
X174657142Y-128604448D02*
X174085714Y-128604448D01*
X174085714Y-129128258D02*
X174085714Y-128128258D01*
X173180952Y-128461591D02*
X173180952Y-129128258D01*
X173419047Y-128080639D02*
X173657142Y-128794924D01*
X173657142Y-128794924D02*
X173038095Y-128794924D01*
X174466666Y-132683020D02*
X174514285Y-132730640D01*
X174514285Y-132730640D02*
X174657142Y-132778259D01*
X174657142Y-132778259D02*
X174752380Y-132778259D01*
X174752380Y-132778259D02*
X174895237Y-132730640D01*
X174895237Y-132730640D02*
X174990475Y-132635401D01*
X174990475Y-132635401D02*
X175038094Y-132540163D01*
X175038094Y-132540163D02*
X175085713Y-132349687D01*
X175085713Y-132349687D02*
X175085713Y-132206830D01*
X175085713Y-132206830D02*
X175038094Y-132016354D01*
X175038094Y-132016354D02*
X174990475Y-131921116D01*
X174990475Y-131921116D02*
X174895237Y-131825878D01*
X174895237Y-131825878D02*
X174752380Y-131778259D01*
X174752380Y-131778259D02*
X174657142Y-131778259D01*
X174657142Y-131778259D02*
X174514285Y-131825878D01*
X174514285Y-131825878D02*
X174466666Y-131873497D01*
X173609523Y-132111592D02*
X173609523Y-132778259D01*
X173847618Y-131730640D02*
X174085713Y-132444925D01*
X174085713Y-132444925D02*
X173466666Y-132444925D01*
X119880327Y-136953259D02*
X119642232Y-137953259D01*
X119642232Y-137953259D02*
X119451756Y-137238973D01*
X119451756Y-137238973D02*
X119261280Y-137953259D01*
X119261280Y-137953259D02*
X119023185Y-136953259D01*
X118451756Y-136953259D02*
X118261280Y-136953259D01*
X118261280Y-136953259D02*
X118166042Y-137000878D01*
X118166042Y-137000878D02*
X118070804Y-137096116D01*
X118070804Y-137096116D02*
X118023185Y-137286592D01*
X118023185Y-137286592D02*
X118023185Y-137619925D01*
X118023185Y-137619925D02*
X118070804Y-137810401D01*
X118070804Y-137810401D02*
X118166042Y-137905640D01*
X118166042Y-137905640D02*
X118261280Y-137953259D01*
X118261280Y-137953259D02*
X118451756Y-137953259D01*
X118451756Y-137953259D02*
X118546994Y-137905640D01*
X118546994Y-137905640D02*
X118642232Y-137810401D01*
X118642232Y-137810401D02*
X118689851Y-137619925D01*
X118689851Y-137619925D02*
X118689851Y-137286592D01*
X118689851Y-137286592D02*
X118642232Y-137096116D01*
X118642232Y-137096116D02*
X118546994Y-137000878D01*
X118546994Y-137000878D02*
X118451756Y-136953259D01*
X117404137Y-136953259D02*
X117213661Y-136953259D01*
X117213661Y-136953259D02*
X117118423Y-137000878D01*
X117118423Y-137000878D02*
X117023185Y-137096116D01*
X117023185Y-137096116D02*
X116975566Y-137286592D01*
X116975566Y-137286592D02*
X116975566Y-137619925D01*
X116975566Y-137619925D02*
X117023185Y-137810401D01*
X117023185Y-137810401D02*
X117118423Y-137905640D01*
X117118423Y-137905640D02*
X117213661Y-137953259D01*
X117213661Y-137953259D02*
X117404137Y-137953259D01*
X117404137Y-137953259D02*
X117499375Y-137905640D01*
X117499375Y-137905640D02*
X117594613Y-137810401D01*
X117594613Y-137810401D02*
X117642232Y-137619925D01*
X117642232Y-137619925D02*
X117642232Y-137286592D01*
X117642232Y-137286592D02*
X117594613Y-137096116D01*
X117594613Y-137096116D02*
X117499375Y-137000878D01*
X117499375Y-137000878D02*
X117404137Y-136953259D01*
X116546994Y-137953259D02*
X116546994Y-136953259D01*
X116546994Y-136953259D02*
X116308899Y-136953259D01*
X116308899Y-136953259D02*
X116166042Y-137000878D01*
X116166042Y-137000878D02*
X116070804Y-137096116D01*
X116070804Y-137096116D02*
X116023185Y-137191354D01*
X116023185Y-137191354D02*
X115975566Y-137381830D01*
X115975566Y-137381830D02*
X115975566Y-137524687D01*
X115975566Y-137524687D02*
X116023185Y-137715163D01*
X116023185Y-137715163D02*
X116070804Y-137810401D01*
X116070804Y-137810401D02*
X116166042Y-137905640D01*
X116166042Y-137905640D02*
X116308899Y-137953259D01*
X116308899Y-137953259D02*
X116546994Y-137953259D01*
X115356518Y-137477068D02*
X115356518Y-137953259D01*
X115689851Y-136953259D02*
X115356518Y-137477068D01*
X115356518Y-137477068D02*
X115023185Y-136953259D01*
X113927946Y-137953259D02*
X113927946Y-136953259D01*
X113832708Y-137572306D02*
X113546994Y-137953259D01*
X113546994Y-137286592D02*
X113927946Y-137667544D01*
X112737470Y-137905640D02*
X112832708Y-137953259D01*
X112832708Y-137953259D02*
X113023184Y-137953259D01*
X113023184Y-137953259D02*
X113118422Y-137905640D01*
X113118422Y-137905640D02*
X113166041Y-137810401D01*
X113166041Y-137810401D02*
X113166041Y-137429449D01*
X113166041Y-137429449D02*
X113118422Y-137334211D01*
X113118422Y-137334211D02*
X113023184Y-137286592D01*
X113023184Y-137286592D02*
X112832708Y-137286592D01*
X112832708Y-137286592D02*
X112737470Y-137334211D01*
X112737470Y-137334211D02*
X112689851Y-137429449D01*
X112689851Y-137429449D02*
X112689851Y-137524687D01*
X112689851Y-137524687D02*
X113166041Y-137619925D01*
X112356517Y-137286592D02*
X112118422Y-137953259D01*
X111880327Y-137286592D02*
X112118422Y-137953259D01*
X112118422Y-137953259D02*
X112213660Y-138191354D01*
X112213660Y-138191354D02*
X112261279Y-138238973D01*
X112261279Y-138238973D02*
X112356517Y-138286592D01*
X110737469Y-137953259D02*
X110737469Y-136953259D01*
X110737469Y-137334211D02*
X110642231Y-137286592D01*
X110642231Y-137286592D02*
X110451755Y-137286592D01*
X110451755Y-137286592D02*
X110356517Y-137334211D01*
X110356517Y-137334211D02*
X110308898Y-137381830D01*
X110308898Y-137381830D02*
X110261279Y-137477068D01*
X110261279Y-137477068D02*
X110261279Y-137762782D01*
X110261279Y-137762782D02*
X110308898Y-137858020D01*
X110308898Y-137858020D02*
X110356517Y-137905640D01*
X110356517Y-137905640D02*
X110451755Y-137953259D01*
X110451755Y-137953259D02*
X110642231Y-137953259D01*
X110642231Y-137953259D02*
X110737469Y-137905640D01*
X109689850Y-137953259D02*
X109785088Y-137905640D01*
X109785088Y-137905640D02*
X109832707Y-137858020D01*
X109832707Y-137858020D02*
X109880326Y-137762782D01*
X109880326Y-137762782D02*
X109880326Y-137477068D01*
X109880326Y-137477068D02*
X109832707Y-137381830D01*
X109832707Y-137381830D02*
X109785088Y-137334211D01*
X109785088Y-137334211D02*
X109689850Y-137286592D01*
X109689850Y-137286592D02*
X109546993Y-137286592D01*
X109546993Y-137286592D02*
X109451755Y-137334211D01*
X109451755Y-137334211D02*
X109404136Y-137381830D01*
X109404136Y-137381830D02*
X109356517Y-137477068D01*
X109356517Y-137477068D02*
X109356517Y-137762782D01*
X109356517Y-137762782D02*
X109404136Y-137858020D01*
X109404136Y-137858020D02*
X109451755Y-137905640D01*
X109451755Y-137905640D02*
X109546993Y-137953259D01*
X109546993Y-137953259D02*
X109689850Y-137953259D01*
X108499374Y-137953259D02*
X108499374Y-137429449D01*
X108499374Y-137429449D02*
X108546993Y-137334211D01*
X108546993Y-137334211D02*
X108642231Y-137286592D01*
X108642231Y-137286592D02*
X108832707Y-137286592D01*
X108832707Y-137286592D02*
X108927945Y-137334211D01*
X108499374Y-137905640D02*
X108594612Y-137953259D01*
X108594612Y-137953259D02*
X108832707Y-137953259D01*
X108832707Y-137953259D02*
X108927945Y-137905640D01*
X108927945Y-137905640D02*
X108975564Y-137810401D01*
X108975564Y-137810401D02*
X108975564Y-137715163D01*
X108975564Y-137715163D02*
X108927945Y-137619925D01*
X108927945Y-137619925D02*
X108832707Y-137572306D01*
X108832707Y-137572306D02*
X108594612Y-137572306D01*
X108594612Y-137572306D02*
X108499374Y-137524687D01*
X108023183Y-137953259D02*
X108023183Y-137286592D01*
X108023183Y-137477068D02*
X107975564Y-137381830D01*
X107975564Y-137381830D02*
X107927945Y-137334211D01*
X107927945Y-137334211D02*
X107832707Y-137286592D01*
X107832707Y-137286592D02*
X107737469Y-137286592D01*
X106975564Y-137953259D02*
X106975564Y-136953259D01*
X106975564Y-137905640D02*
X107070802Y-137953259D01*
X107070802Y-137953259D02*
X107261278Y-137953259D01*
X107261278Y-137953259D02*
X107356516Y-137905640D01*
X107356516Y-137905640D02*
X107404135Y-137858020D01*
X107404135Y-137858020D02*
X107451754Y-137762782D01*
X107451754Y-137762782D02*
X107451754Y-137477068D01*
X107451754Y-137477068D02*
X107404135Y-137381830D01*
X107404135Y-137381830D02*
X107356516Y-137334211D01*
X107356516Y-137334211D02*
X107261278Y-137286592D01*
X107261278Y-137286592D02*
X107070802Y-137286592D01*
X107070802Y-137286592D02*
X106975564Y-137334211D01*
X105261278Y-137953259D02*
X105737468Y-137953259D01*
X105737468Y-137953259D02*
X105737468Y-136953259D01*
X104927944Y-137953259D02*
X104927944Y-136953259D01*
X104927944Y-137429449D02*
X104356516Y-137429449D01*
X104356516Y-137953259D02*
X104356516Y-136953259D01*
X119356517Y-139753259D02*
X119356517Y-139086592D01*
X119356517Y-139277068D02*
X119308898Y-139181830D01*
X119308898Y-139181830D02*
X119261279Y-139134211D01*
X119261279Y-139134211D02*
X119166041Y-139086592D01*
X119166041Y-139086592D02*
X119070803Y-139086592D01*
X118356517Y-139705640D02*
X118451755Y-139753259D01*
X118451755Y-139753259D02*
X118642231Y-139753259D01*
X118642231Y-139753259D02*
X118737469Y-139705640D01*
X118737469Y-139705640D02*
X118785088Y-139610401D01*
X118785088Y-139610401D02*
X118785088Y-139229449D01*
X118785088Y-139229449D02*
X118737469Y-139134211D01*
X118737469Y-139134211D02*
X118642231Y-139086592D01*
X118642231Y-139086592D02*
X118451755Y-139086592D01*
X118451755Y-139086592D02*
X118356517Y-139134211D01*
X118356517Y-139134211D02*
X118308898Y-139229449D01*
X118308898Y-139229449D02*
X118308898Y-139324687D01*
X118308898Y-139324687D02*
X118785088Y-139419925D01*
X117975564Y-139086592D02*
X117737469Y-139753259D01*
X117737469Y-139753259D02*
X117499374Y-139086592D01*
X116404135Y-139467544D02*
X115927945Y-139467544D01*
X116499373Y-139753259D02*
X116166040Y-138753259D01*
X116166040Y-138753259D02*
X115832707Y-139753259D01*
X114023182Y-138848497D02*
X113975563Y-138800878D01*
X113975563Y-138800878D02*
X113880325Y-138753259D01*
X113880325Y-138753259D02*
X113642230Y-138753259D01*
X113642230Y-138753259D02*
X113546992Y-138800878D01*
X113546992Y-138800878D02*
X113499373Y-138848497D01*
X113499373Y-138848497D02*
X113451754Y-138943735D01*
X113451754Y-138943735D02*
X113451754Y-139038973D01*
X113451754Y-139038973D02*
X113499373Y-139181830D01*
X113499373Y-139181830D02*
X114070801Y-139753259D01*
X114070801Y-139753259D02*
X113451754Y-139753259D01*
X112832706Y-138753259D02*
X112737468Y-138753259D01*
X112737468Y-138753259D02*
X112642230Y-138800878D01*
X112642230Y-138800878D02*
X112594611Y-138848497D01*
X112594611Y-138848497D02*
X112546992Y-138943735D01*
X112546992Y-138943735D02*
X112499373Y-139134211D01*
X112499373Y-139134211D02*
X112499373Y-139372306D01*
X112499373Y-139372306D02*
X112546992Y-139562782D01*
X112546992Y-139562782D02*
X112594611Y-139658020D01*
X112594611Y-139658020D02*
X112642230Y-139705640D01*
X112642230Y-139705640D02*
X112737468Y-139753259D01*
X112737468Y-139753259D02*
X112832706Y-139753259D01*
X112832706Y-139753259D02*
X112927944Y-139705640D01*
X112927944Y-139705640D02*
X112975563Y-139658020D01*
X112975563Y-139658020D02*
X113023182Y-139562782D01*
X113023182Y-139562782D02*
X113070801Y-139372306D01*
X113070801Y-139372306D02*
X113070801Y-139134211D01*
X113070801Y-139134211D02*
X113023182Y-138943735D01*
X113023182Y-138943735D02*
X112975563Y-138848497D01*
X112975563Y-138848497D02*
X112927944Y-138800878D01*
X112927944Y-138800878D02*
X112832706Y-138753259D01*
X112118420Y-138848497D02*
X112070801Y-138800878D01*
X112070801Y-138800878D02*
X111975563Y-138753259D01*
X111975563Y-138753259D02*
X111737468Y-138753259D01*
X111737468Y-138753259D02*
X111642230Y-138800878D01*
X111642230Y-138800878D02*
X111594611Y-138848497D01*
X111594611Y-138848497D02*
X111546992Y-138943735D01*
X111546992Y-138943735D02*
X111546992Y-139038973D01*
X111546992Y-139038973D02*
X111594611Y-139181830D01*
X111594611Y-139181830D02*
X112166039Y-139753259D01*
X112166039Y-139753259D02*
X111546992Y-139753259D01*
X110689849Y-138753259D02*
X110880325Y-138753259D01*
X110880325Y-138753259D02*
X110975563Y-138800878D01*
X110975563Y-138800878D02*
X111023182Y-138848497D01*
X111023182Y-138848497D02*
X111118420Y-138991354D01*
X111118420Y-138991354D02*
X111166039Y-139181830D01*
X111166039Y-139181830D02*
X111166039Y-139562782D01*
X111166039Y-139562782D02*
X111118420Y-139658020D01*
X111118420Y-139658020D02*
X111070801Y-139705640D01*
X111070801Y-139705640D02*
X110975563Y-139753259D01*
X110975563Y-139753259D02*
X110785087Y-139753259D01*
X110785087Y-139753259D02*
X110689849Y-139705640D01*
X110689849Y-139705640D02*
X110642230Y-139658020D01*
X110642230Y-139658020D02*
X110594611Y-139562782D01*
X110594611Y-139562782D02*
X110594611Y-139324687D01*
X110594611Y-139324687D02*
X110642230Y-139229449D01*
X110642230Y-139229449D02*
X110689849Y-139181830D01*
X110689849Y-139181830D02*
X110785087Y-139134211D01*
X110785087Y-139134211D02*
X110975563Y-139134211D01*
X110975563Y-139134211D02*
X111070801Y-139181830D01*
X111070801Y-139181830D02*
X111118420Y-139229449D01*
X111118420Y-139229449D02*
X111166039Y-139324687D01*
X110166039Y-139372306D02*
X109404135Y-139372306D01*
X108404135Y-139753259D02*
X108975563Y-139753259D01*
X108689849Y-139753259D02*
X108689849Y-138753259D01*
X108689849Y-138753259D02*
X108785087Y-138896116D01*
X108785087Y-138896116D02*
X108880325Y-138991354D01*
X108880325Y-138991354D02*
X108975563Y-139038973D01*
X107785087Y-138753259D02*
X107689849Y-138753259D01*
X107689849Y-138753259D02*
X107594611Y-138800878D01*
X107594611Y-138800878D02*
X107546992Y-138848497D01*
X107546992Y-138848497D02*
X107499373Y-138943735D01*
X107499373Y-138943735D02*
X107451754Y-139134211D01*
X107451754Y-139134211D02*
X107451754Y-139372306D01*
X107451754Y-139372306D02*
X107499373Y-139562782D01*
X107499373Y-139562782D02*
X107546992Y-139658020D01*
X107546992Y-139658020D02*
X107594611Y-139705640D01*
X107594611Y-139705640D02*
X107689849Y-139753259D01*
X107689849Y-139753259D02*
X107785087Y-139753259D01*
X107785087Y-139753259D02*
X107880325Y-139705640D01*
X107880325Y-139705640D02*
X107927944Y-139658020D01*
X107927944Y-139658020D02*
X107975563Y-139562782D01*
X107975563Y-139562782D02*
X108023182Y-139372306D01*
X108023182Y-139372306D02*
X108023182Y-139134211D01*
X108023182Y-139134211D02*
X107975563Y-138943735D01*
X107975563Y-138943735D02*
X107927944Y-138848497D01*
X107927944Y-138848497D02*
X107880325Y-138800878D01*
X107880325Y-138800878D02*
X107785087Y-138753259D01*
X107023182Y-139372306D02*
X106261278Y-139372306D01*
X105594611Y-138753259D02*
X105499373Y-138753259D01*
X105499373Y-138753259D02*
X105404135Y-138800878D01*
X105404135Y-138800878D02*
X105356516Y-138848497D01*
X105356516Y-138848497D02*
X105308897Y-138943735D01*
X105308897Y-138943735D02*
X105261278Y-139134211D01*
X105261278Y-139134211D02*
X105261278Y-139372306D01*
X105261278Y-139372306D02*
X105308897Y-139562782D01*
X105308897Y-139562782D02*
X105356516Y-139658020D01*
X105356516Y-139658020D02*
X105404135Y-139705640D01*
X105404135Y-139705640D02*
X105499373Y-139753259D01*
X105499373Y-139753259D02*
X105594611Y-139753259D01*
X105594611Y-139753259D02*
X105689849Y-139705640D01*
X105689849Y-139705640D02*
X105737468Y-139658020D01*
X105737468Y-139658020D02*
X105785087Y-139562782D01*
X105785087Y-139562782D02*
X105832706Y-139372306D01*
X105832706Y-139372306D02*
X105832706Y-139134211D01*
X105832706Y-139134211D02*
X105785087Y-138943735D01*
X105785087Y-138943735D02*
X105737468Y-138848497D01*
X105737468Y-138848497D02*
X105689849Y-138800878D01*
X105689849Y-138800878D02*
X105594611Y-138753259D01*
X104927944Y-138753259D02*
X104308897Y-138753259D01*
X104308897Y-138753259D02*
X104642230Y-139134211D01*
X104642230Y-139134211D02*
X104499373Y-139134211D01*
X104499373Y-139134211D02*
X104404135Y-139181830D01*
X104404135Y-139181830D02*
X104356516Y-139229449D01*
X104356516Y-139229449D02*
X104308897Y-139324687D01*
X104308897Y-139324687D02*
X104308897Y-139562782D01*
X104308897Y-139562782D02*
X104356516Y-139658020D01*
X104356516Y-139658020D02*
X104404135Y-139705640D01*
X104404135Y-139705640D02*
X104499373Y-139753259D01*
X104499373Y-139753259D02*
X104785087Y-139753259D01*
X104785087Y-139753259D02*
X104880325Y-139705640D01*
X104880325Y-139705640D02*
X104927944Y-139658020D01*
X121248259Y-118633333D02*
X120772068Y-118300000D01*
X121248259Y-118061905D02*
X120248259Y-118061905D01*
X120248259Y-118061905D02*
X120248259Y-118442857D01*
X120248259Y-118442857D02*
X120295878Y-118538095D01*
X120295878Y-118538095D02*
X120343497Y-118585714D01*
X120343497Y-118585714D02*
X120438735Y-118633333D01*
X120438735Y-118633333D02*
X120581592Y-118633333D01*
X120581592Y-118633333D02*
X120676830Y-118585714D01*
X120676830Y-118585714D02*
X120724449Y-118538095D01*
X120724449Y-118538095D02*
X120772068Y-118442857D01*
X120772068Y-118442857D02*
X120772068Y-118061905D01*
X120343497Y-119014286D02*
X120295878Y-119061905D01*
X120295878Y-119061905D02*
X120248259Y-119157143D01*
X120248259Y-119157143D02*
X120248259Y-119395238D01*
X120248259Y-119395238D02*
X120295878Y-119490476D01*
X120295878Y-119490476D02*
X120343497Y-119538095D01*
X120343497Y-119538095D02*
X120438735Y-119585714D01*
X120438735Y-119585714D02*
X120533973Y-119585714D01*
X120533973Y-119585714D02*
X120676830Y-119538095D01*
X120676830Y-119538095D02*
X121248259Y-118966667D01*
X121248259Y-118966667D02*
X121248259Y-119585714D01*
X121248259Y-124033332D02*
X120772068Y-123699999D01*
X121248259Y-123461904D02*
X120248259Y-123461904D01*
X120248259Y-123461904D02*
X120248259Y-123842856D01*
X120248259Y-123842856D02*
X120295878Y-123938094D01*
X120295878Y-123938094D02*
X120343497Y-123985713D01*
X120343497Y-123985713D02*
X120438735Y-124033332D01*
X120438735Y-124033332D02*
X120581592Y-124033332D01*
X120581592Y-124033332D02*
X120676830Y-123985713D01*
X120676830Y-123985713D02*
X120724449Y-123938094D01*
X120724449Y-123938094D02*
X120772068Y-123842856D01*
X120772068Y-123842856D02*
X120772068Y-123461904D01*
X121248259Y-124985713D02*
X121248259Y-124414285D01*
X121248259Y-124699999D02*
X120248259Y-124699999D01*
X120248259Y-124699999D02*
X120391116Y-124604761D01*
X120391116Y-124604761D02*
X120486354Y-124509523D01*
X120486354Y-124509523D02*
X120533973Y-124414285D01*
X141248259Y-118633333D02*
X140772068Y-118300000D01*
X141248259Y-118061905D02*
X140248259Y-118061905D01*
X140248259Y-118061905D02*
X140248259Y-118442857D01*
X140248259Y-118442857D02*
X140295878Y-118538095D01*
X140295878Y-118538095D02*
X140343497Y-118585714D01*
X140343497Y-118585714D02*
X140438735Y-118633333D01*
X140438735Y-118633333D02*
X140581592Y-118633333D01*
X140581592Y-118633333D02*
X140676830Y-118585714D01*
X140676830Y-118585714D02*
X140724449Y-118538095D01*
X140724449Y-118538095D02*
X140772068Y-118442857D01*
X140772068Y-118442857D02*
X140772068Y-118061905D01*
X140581592Y-119490476D02*
X141248259Y-119490476D01*
X140200640Y-119252381D02*
X140914925Y-119014286D01*
X140914925Y-119014286D02*
X140914925Y-119633333D01*
X141248259Y-124033332D02*
X140772068Y-123699999D01*
X141248259Y-123461904D02*
X140248259Y-123461904D01*
X140248259Y-123461904D02*
X140248259Y-123842856D01*
X140248259Y-123842856D02*
X140295878Y-123938094D01*
X140295878Y-123938094D02*
X140343497Y-123985713D01*
X140343497Y-123985713D02*
X140438735Y-124033332D01*
X140438735Y-124033332D02*
X140581592Y-124033332D01*
X140581592Y-124033332D02*
X140676830Y-123985713D01*
X140676830Y-123985713D02*
X140724449Y-123938094D01*
X140724449Y-123938094D02*
X140772068Y-123842856D01*
X140772068Y-123842856D02*
X140772068Y-123461904D01*
X140248259Y-124366666D02*
X140248259Y-124985713D01*
X140248259Y-124985713D02*
X140629211Y-124652380D01*
X140629211Y-124652380D02*
X140629211Y-124795237D01*
X140629211Y-124795237D02*
X140676830Y-124890475D01*
X140676830Y-124890475D02*
X140724449Y-124938094D01*
X140724449Y-124938094D02*
X140819687Y-124985713D01*
X140819687Y-124985713D02*
X141057782Y-124985713D01*
X141057782Y-124985713D02*
X141153020Y-124938094D01*
X141153020Y-124938094D02*
X141200640Y-124890475D01*
X141200640Y-124890475D02*
X141248259Y-124795237D01*
X141248259Y-124795237D02*
X141248259Y-124509523D01*
X141248259Y-124509523D02*
X141200640Y-124414285D01*
X141200640Y-124414285D02*
X141153020Y-124366666D01*
X161248259Y-118633333D02*
X160772068Y-118300000D01*
X161248259Y-118061905D02*
X160248259Y-118061905D01*
X160248259Y-118061905D02*
X160248259Y-118442857D01*
X160248259Y-118442857D02*
X160295878Y-118538095D01*
X160295878Y-118538095D02*
X160343497Y-118585714D01*
X160343497Y-118585714D02*
X160438735Y-118633333D01*
X160438735Y-118633333D02*
X160581592Y-118633333D01*
X160581592Y-118633333D02*
X160676830Y-118585714D01*
X160676830Y-118585714D02*
X160724449Y-118538095D01*
X160724449Y-118538095D02*
X160772068Y-118442857D01*
X160772068Y-118442857D02*
X160772068Y-118061905D01*
X160248259Y-119490476D02*
X160248259Y-119300000D01*
X160248259Y-119300000D02*
X160295878Y-119204762D01*
X160295878Y-119204762D02*
X160343497Y-119157143D01*
X160343497Y-119157143D02*
X160486354Y-119061905D01*
X160486354Y-119061905D02*
X160676830Y-119014286D01*
X160676830Y-119014286D02*
X161057782Y-119014286D01*
X161057782Y-119014286D02*
X161153020Y-119061905D01*
X161153020Y-119061905D02*
X161200640Y-119109524D01*
X161200640Y-119109524D02*
X161248259Y-119204762D01*
X161248259Y-119204762D02*
X161248259Y-119395238D01*
X161248259Y-119395238D02*
X161200640Y-119490476D01*
X161200640Y-119490476D02*
X161153020Y-119538095D01*
X161153020Y-119538095D02*
X161057782Y-119585714D01*
X161057782Y-119585714D02*
X160819687Y-119585714D01*
X160819687Y-119585714D02*
X160724449Y-119538095D01*
X160724449Y-119538095D02*
X160676830Y-119490476D01*
X160676830Y-119490476D02*
X160629211Y-119395238D01*
X160629211Y-119395238D02*
X160629211Y-119204762D01*
X160629211Y-119204762D02*
X160676830Y-119109524D01*
X160676830Y-119109524D02*
X160724449Y-119061905D01*
X160724449Y-119061905D02*
X160819687Y-119014286D01*
X161248259Y-124033332D02*
X160772068Y-123699999D01*
X161248259Y-123461904D02*
X160248259Y-123461904D01*
X160248259Y-123461904D02*
X160248259Y-123842856D01*
X160248259Y-123842856D02*
X160295878Y-123938094D01*
X160295878Y-123938094D02*
X160343497Y-123985713D01*
X160343497Y-123985713D02*
X160438735Y-124033332D01*
X160438735Y-124033332D02*
X160581592Y-124033332D01*
X160581592Y-124033332D02*
X160676830Y-123985713D01*
X160676830Y-123985713D02*
X160724449Y-123938094D01*
X160724449Y-123938094D02*
X160772068Y-123842856D01*
X160772068Y-123842856D02*
X160772068Y-123461904D01*
X160248259Y-124938094D02*
X160248259Y-124461904D01*
X160248259Y-124461904D02*
X160724449Y-124414285D01*
X160724449Y-124414285D02*
X160676830Y-124461904D01*
X160676830Y-124461904D02*
X160629211Y-124557142D01*
X160629211Y-124557142D02*
X160629211Y-124795237D01*
X160629211Y-124795237D02*
X160676830Y-124890475D01*
X160676830Y-124890475D02*
X160724449Y-124938094D01*
X160724449Y-124938094D02*
X160819687Y-124985713D01*
X160819687Y-124985713D02*
X161057782Y-124985713D01*
X161057782Y-124985713D02*
X161153020Y-124938094D01*
X161153020Y-124938094D02*
X161200640Y-124890475D01*
X161200640Y-124890475D02*
X161248259Y-124795237D01*
X161248259Y-124795237D02*
X161248259Y-124557142D01*
X161248259Y-124557142D02*
X161200640Y-124461904D01*
X161200640Y-124461904D02*
X161153020Y-124414285D01*
X179248259Y-109157142D02*
X178772068Y-108823809D01*
X179248259Y-108585714D02*
X178248259Y-108585714D01*
X178248259Y-108585714D02*
X178248259Y-108966666D01*
X178248259Y-108966666D02*
X178295878Y-109061904D01*
X178295878Y-109061904D02*
X178343497Y-109109523D01*
X178343497Y-109109523D02*
X178438735Y-109157142D01*
X178438735Y-109157142D02*
X178581592Y-109157142D01*
X178581592Y-109157142D02*
X178676830Y-109109523D01*
X178676830Y-109109523D02*
X178724449Y-109061904D01*
X178724449Y-109061904D02*
X178772068Y-108966666D01*
X178772068Y-108966666D02*
X178772068Y-108585714D01*
X179248259Y-110109523D02*
X179248259Y-109538095D01*
X179248259Y-109823809D02*
X178248259Y-109823809D01*
X178248259Y-109823809D02*
X178391116Y-109728571D01*
X178391116Y-109728571D02*
X178486354Y-109633333D01*
X178486354Y-109633333D02*
X178533973Y-109538095D01*
X178248259Y-110728571D02*
X178248259Y-110823809D01*
X178248259Y-110823809D02*
X178295878Y-110919047D01*
X178295878Y-110919047D02*
X178343497Y-110966666D01*
X178343497Y-110966666D02*
X178438735Y-111014285D01*
X178438735Y-111014285D02*
X178629211Y-111061904D01*
X178629211Y-111061904D02*
X178867306Y-111061904D01*
X178867306Y-111061904D02*
X179057782Y-111014285D01*
X179057782Y-111014285D02*
X179153020Y-110966666D01*
X179153020Y-110966666D02*
X179200640Y-110919047D01*
X179200640Y-110919047D02*
X179248259Y-110823809D01*
X179248259Y-110823809D02*
X179248259Y-110728571D01*
X179248259Y-110728571D02*
X179200640Y-110633333D01*
X179200640Y-110633333D02*
X179153020Y-110585714D01*
X179153020Y-110585714D02*
X179057782Y-110538095D01*
X179057782Y-110538095D02*
X178867306Y-110490476D01*
X178867306Y-110490476D02*
X178629211Y-110490476D01*
X178629211Y-110490476D02*
X178438735Y-110538095D01*
X178438735Y-110538095D02*
X178343497Y-110585714D01*
X178343497Y-110585714D02*
X178295878Y-110633333D01*
X178295878Y-110633333D02*
X178248259Y-110728571D01*
X179248259Y-115033332D02*
X178772068Y-114699999D01*
X179248259Y-114461904D02*
X178248259Y-114461904D01*
X178248259Y-114461904D02*
X178248259Y-114842856D01*
X178248259Y-114842856D02*
X178295878Y-114938094D01*
X178295878Y-114938094D02*
X178343497Y-114985713D01*
X178343497Y-114985713D02*
X178438735Y-115033332D01*
X178438735Y-115033332D02*
X178581592Y-115033332D01*
X178581592Y-115033332D02*
X178676830Y-114985713D01*
X178676830Y-114985713D02*
X178724449Y-114938094D01*
X178724449Y-114938094D02*
X178772068Y-114842856D01*
X178772068Y-114842856D02*
X178772068Y-114461904D01*
X179248259Y-115509523D02*
X179248259Y-115699999D01*
X179248259Y-115699999D02*
X179200640Y-115795237D01*
X179200640Y-115795237D02*
X179153020Y-115842856D01*
X179153020Y-115842856D02*
X179010163Y-115938094D01*
X179010163Y-115938094D02*
X178819687Y-115985713D01*
X178819687Y-115985713D02*
X178438735Y-115985713D01*
X178438735Y-115985713D02*
X178343497Y-115938094D01*
X178343497Y-115938094D02*
X178295878Y-115890475D01*
X178295878Y-115890475D02*
X178248259Y-115795237D01*
X178248259Y-115795237D02*
X178248259Y-115604761D01*
X178248259Y-115604761D02*
X178295878Y-115509523D01*
X178295878Y-115509523D02*
X178343497Y-115461904D01*
X178343497Y-115461904D02*
X178438735Y-115414285D01*
X178438735Y-115414285D02*
X178676830Y-115414285D01*
X178676830Y-115414285D02*
X178772068Y-115461904D01*
X178772068Y-115461904D02*
X178819687Y-115509523D01*
X178819687Y-115509523D02*
X178867306Y-115604761D01*
X178867306Y-115604761D02*
X178867306Y-115795237D01*
X178867306Y-115795237D02*
X178819687Y-115890475D01*
X178819687Y-115890475D02*
X178772068Y-115938094D01*
X178772068Y-115938094D02*
X178676830Y-115985713D01*
X179248259Y-127633333D02*
X178772068Y-127300000D01*
X179248259Y-127061905D02*
X178248259Y-127061905D01*
X178248259Y-127061905D02*
X178248259Y-127442857D01*
X178248259Y-127442857D02*
X178295878Y-127538095D01*
X178295878Y-127538095D02*
X178343497Y-127585714D01*
X178343497Y-127585714D02*
X178438735Y-127633333D01*
X178438735Y-127633333D02*
X178581592Y-127633333D01*
X178581592Y-127633333D02*
X178676830Y-127585714D01*
X178676830Y-127585714D02*
X178724449Y-127538095D01*
X178724449Y-127538095D02*
X178772068Y-127442857D01*
X178772068Y-127442857D02*
X178772068Y-127061905D01*
X178676830Y-128204762D02*
X178629211Y-128109524D01*
X178629211Y-128109524D02*
X178581592Y-128061905D01*
X178581592Y-128061905D02*
X178486354Y-128014286D01*
X178486354Y-128014286D02*
X178438735Y-128014286D01*
X178438735Y-128014286D02*
X178343497Y-128061905D01*
X178343497Y-128061905D02*
X178295878Y-128109524D01*
X178295878Y-128109524D02*
X178248259Y-128204762D01*
X178248259Y-128204762D02*
X178248259Y-128395238D01*
X178248259Y-128395238D02*
X178295878Y-128490476D01*
X178295878Y-128490476D02*
X178343497Y-128538095D01*
X178343497Y-128538095D02*
X178438735Y-128585714D01*
X178438735Y-128585714D02*
X178486354Y-128585714D01*
X178486354Y-128585714D02*
X178581592Y-128538095D01*
X178581592Y-128538095D02*
X178629211Y-128490476D01*
X178629211Y-128490476D02*
X178676830Y-128395238D01*
X178676830Y-128395238D02*
X178676830Y-128204762D01*
X178676830Y-128204762D02*
X178724449Y-128109524D01*
X178724449Y-128109524D02*
X178772068Y-128061905D01*
X178772068Y-128061905D02*
X178867306Y-128014286D01*
X178867306Y-128014286D02*
X179057782Y-128014286D01*
X179057782Y-128014286D02*
X179153020Y-128061905D01*
X179153020Y-128061905D02*
X179200640Y-128109524D01*
X179200640Y-128109524D02*
X179248259Y-128204762D01*
X179248259Y-128204762D02*
X179248259Y-128395238D01*
X179248259Y-128395238D02*
X179200640Y-128490476D01*
X179200640Y-128490476D02*
X179153020Y-128538095D01*
X179153020Y-128538095D02*
X179057782Y-128585714D01*
X179057782Y-128585714D02*
X178867306Y-128585714D01*
X178867306Y-128585714D02*
X178772068Y-128538095D01*
X178772068Y-128538095D02*
X178724449Y-128490476D01*
X178724449Y-128490476D02*
X178676830Y-128395238D01*
X179248259Y-133033331D02*
X178772068Y-132699998D01*
X179248259Y-132461903D02*
X178248259Y-132461903D01*
X178248259Y-132461903D02*
X178248259Y-132842855D01*
X178248259Y-132842855D02*
X178295878Y-132938093D01*
X178295878Y-132938093D02*
X178343497Y-132985712D01*
X178343497Y-132985712D02*
X178438735Y-133033331D01*
X178438735Y-133033331D02*
X178581592Y-133033331D01*
X178581592Y-133033331D02*
X178676830Y-132985712D01*
X178676830Y-132985712D02*
X178724449Y-132938093D01*
X178724449Y-132938093D02*
X178772068Y-132842855D01*
X178772068Y-132842855D02*
X178772068Y-132461903D01*
X178248259Y-133366665D02*
X178248259Y-134033331D01*
X178248259Y-134033331D02*
X179248259Y-133604760D01*
D12*
%TO.C,R6*%
X158265000Y-118572936D02*
X158265000Y-119027064D01*
X159735000Y-118572936D02*
X159735000Y-119027064D01*
%TO.C,C6*%
X155061252Y-101065000D02*
X154538748Y-101065000D01*
X155061252Y-102535000D02*
X154538748Y-102535000D01*
%TO.C,R10*%
X176265000Y-109572936D02*
X176265000Y-110027064D01*
X177735000Y-109572936D02*
X177735000Y-110027064D01*
%TO.C,R11*%
X149957064Y-101065000D02*
X149502936Y-101065000D01*
X149957064Y-102535000D02*
X149502936Y-102535000D01*
%TO.C,U1*%
X145940000Y-104440000D02*
X145940000Y-108560000D01*
X145940000Y-108560000D02*
X145995000Y-108560000D01*
X145995000Y-104440000D02*
X145940000Y-104440000D01*
X156005000Y-108560000D02*
X156060000Y-108560000D01*
X156060000Y-104440000D02*
X156005000Y-104440000D01*
X156060000Y-108560000D02*
X156060000Y-104440000D01*
X156340000Y-109340000D02*
X156010000Y-109100000D01*
X156340000Y-108860000D01*
X156340000Y-109340000D01*
G36*
X156340000Y-109340000D02*
G01*
X156010000Y-109100000D01*
X156340000Y-108860000D01*
X156340000Y-109340000D01*
G37*
%TO.C,R1*%
X118265000Y-123972936D02*
X118265000Y-124427064D01*
X119735000Y-123972936D02*
X119735000Y-124427064D01*
%TO.C,C8*%
X144738748Y-110665000D02*
X145261252Y-110665000D01*
X144738748Y-112135000D02*
X145261252Y-112135000D01*
%TO.C,C3*%
X156561252Y-120765000D02*
X156038748Y-120765000D01*
X156561252Y-122235000D02*
X156038748Y-122235000D01*
%TO.C,R3*%
X138265000Y-123972936D02*
X138265000Y-124427064D01*
X139735000Y-123972936D02*
X139735000Y-124427064D01*
%TO.C,C4*%
X174561252Y-129765000D02*
X174038748Y-129765000D01*
X174561252Y-131235000D02*
X174038748Y-131235000D01*
%TO.C,C7*%
X126765000Y-108261252D02*
X126765000Y-107738748D01*
X128235000Y-108261252D02*
X128235000Y-107738748D01*
%TO.C,C1*%
X116561252Y-120765000D02*
X116038748Y-120765000D01*
X116561252Y-122235000D02*
X116038748Y-122235000D01*
%TO.C,R7*%
X176265000Y-132972935D02*
X176265000Y-133427063D01*
X177735000Y-132972935D02*
X177735000Y-133427063D01*
%TO.C,R5*%
X158265000Y-123972936D02*
X158265000Y-124427064D01*
X159735000Y-123972936D02*
X159735000Y-124427064D01*
%TO.C,C2*%
X136561252Y-120765000D02*
X136038748Y-120765000D01*
X136561252Y-122235000D02*
X136038748Y-122235000D01*
%TO.C,R9*%
X176265000Y-114972936D02*
X176265000Y-115427064D01*
X177735000Y-114972936D02*
X177735000Y-115427064D01*
%TO.C,C5*%
X174561252Y-111765000D02*
X174038748Y-111765000D01*
X174561252Y-113235000D02*
X174038748Y-113235000D01*
%TO.C,R8*%
X176265000Y-127572936D02*
X176265000Y-128027064D01*
X177735000Y-127572936D02*
X177735000Y-128027064D01*
%TO.C,R4*%
X138265000Y-118572936D02*
X138265000Y-119027064D01*
X139735000Y-118572936D02*
X139735000Y-119027064D01*
%TO.C,R2*%
X118265000Y-118572936D02*
X118265000Y-119027064D01*
X119735000Y-118572936D02*
X119735000Y-119027064D01*
%TD*%
M02*
