%TF.GenerationSoftware,KiCad,Pcbnew,9.0.9-9.0.9~ubuntu24.04.1*%
%TF.CreationDate,2026-09-27T03:24:54+00:00*%
%TF.ProjectId,key-board-lh,6b65792d-626f-4617-9264-2d6c682e6b69,rev?*%
%TF.SameCoordinates,Original*%
%TF.FileFunction,Copper,L1,Top*%
%TF.FilePolarity,Positive*%
%FSLAX46Y46*%
G04 Gerber Fmt 4.6, Leading zero omitted, Abs format (unit mm)*
G04 Created by KiCad (PCBNEW 9.0.9-9.0.9~ubuntu24.04.1) date 2026-09-27 03:24:54*
%MOMM*%
%LPD*%
G01*
G04 APERTURE LIST*
%TA.AperFunction,ComponentPad*%
%ADD10C,2.000000*%
%TD*%
%TA.AperFunction,ViaPad*%
%ADD11C,0.600000*%
%TD*%
%TA.AperFunction,Conductor*%
%ADD12C,0.250000*%
%TD*%
%TA.AperFunction,Conductor*%
%ADD13C,0.400000*%
%TD*%
G04 APERTURE END LIST*
D10*
%TO.P,SW-LH5,1*%
%TO.N,/LH5/SWITCH_LEG*%
X163600000Y-117200000D03*
%TO.P,SW-LH5,2*%
%TO.N,GND_CHAIN*%
X170600000Y-118250000D03*
%TD*%
%TO.P,SW-LH4,1*%
%TO.N,/LH4/SWITCH_LEG*%
X163600000Y-135200000D03*
%TO.P,SW-LH4,2*%
%TO.N,GND_CHAIN*%
X170600000Y-136250000D03*
%TD*%
%TO.P,SW-LH3,1*%
%TO.N,/LH3/SWITCH_LEG*%
X145600000Y-126200000D03*
%TO.P,SW-LH3,2*%
%TO.N,GND_CHAIN*%
X152600000Y-127250000D03*
%TD*%
%TO.P,SW-LH2,1*%
%TO.N,/LH2/SWITCH_LEG*%
X125600000Y-126200000D03*
%TO.P,SW-LH2,2*%
%TO.N,GND_CHAIN*%
X132600000Y-127250000D03*
%TD*%
%TO.P,SW-LH1,1*%
%TO.N,/LH1/SWITCH_LEG*%
X105600000Y-126200000D03*
%TO.P,SW-LH1,2*%
%TO.N,GND_CHAIN*%
X112600000Y-127250000D03*
%TD*%
D11*
%TO.N,/CHAIN_SCK*%
X134600000Y-113500000D03*
X152000000Y-113500000D03*
%TO.N,/CHAIN_SHLD*%
X153200000Y-112700000D03*
X133600000Y-112700000D03*
%TO.N,/HOP_LH_LT*%
X144400000Y-104300000D03*
X128600000Y-104300000D03*
%TO.N,/KEY_LH1*%
X147000000Y-109300000D03*
X115200000Y-109300000D03*
%TO.N,/KEY_LH4*%
X151000000Y-109300000D03*
X160800000Y-109300000D03*
%TO.N,GND_CHAIN*%
X161200000Y-107300000D03*
X106800000Y-118700000D03*
X156600000Y-102500000D03*
X136000000Y-116700000D03*
X131600000Y-117300000D03*
X127200000Y-131900000D03*
X146800000Y-118700000D03*
X171600000Y-125500000D03*
X149200000Y-106900000D03*
X163200000Y-123300000D03*
X162400000Y-122900000D03*
X135600000Y-118700000D03*
X152000000Y-102900000D03*
X127600000Y-132699999D03*
X127600000Y-117300000D03*
X133199999Y-118700000D03*
X160200000Y-107300000D03*
X107600000Y-115500000D03*
X129600000Y-117300000D03*
X140400000Y-116100000D03*
X147200000Y-116100000D03*
X149400000Y-103100000D03*
X144000000Y-108500000D03*
X132800000Y-117900000D03*
%TO.N,V3V3_CHAIN_LH*%
X168800000Y-122500000D03*
X126600000Y-115100000D03*
X148600000Y-104300000D03*
X134199999Y-117900000D03*
X154400000Y-113500000D03*
X152800000Y-115100000D03*
X166200000Y-106300000D03*
X154400000Y-106300000D03*
X113400000Y-115100000D03*
X153200000Y-104300000D03*
%TD*%
D12*
%TO.N,/CHAIN_SCK*%
X152000000Y-113500000D02*
X134600000Y-113500000D01*
%TO.N,/CHAIN_SHLD*%
X153200000Y-112700000D02*
X133600000Y-112700000D01*
%TO.N,/HOP_LH_LT*%
X128600000Y-104300000D02*
X144400000Y-104300000D01*
%TO.N,/KEY_LH1*%
X115200000Y-109300000D02*
X147000000Y-109300000D01*
%TO.N,/KEY_LH4*%
X160800000Y-109300000D02*
X151000000Y-109300000D01*
%TO.N,GND_CHAIN*%
X148400000Y-124700000D02*
X148600000Y-124900000D01*
X170000000Y-123900000D02*
X170200000Y-124100000D01*
X109800000Y-126100000D02*
X109600000Y-125900000D01*
X149200000Y-125500000D02*
X149400000Y-125700000D01*
X147800000Y-124100000D02*
X148200000Y-124500000D01*
X140400000Y-118700000D02*
X140400000Y-116100000D01*
X171000000Y-124900000D02*
X171200000Y-125100000D01*
X169400000Y-123300000D02*
X169600000Y-123500000D01*
X153800000Y-107100000D02*
X154000000Y-107300000D01*
X151200000Y-127500000D02*
X151400000Y-127700000D01*
X111800000Y-127700000D02*
X111400000Y-127700000D01*
X148600000Y-124900000D02*
X148800000Y-125100000D01*
X109600000Y-125900000D02*
X109400000Y-125700000D01*
X107400000Y-123700000D02*
X106800000Y-123100000D01*
X170200000Y-122500000D02*
X170200000Y-119100000D01*
X149400000Y-125700000D02*
X149600000Y-125900000D01*
X127800000Y-131300000D02*
X127600000Y-131500000D01*
X109400000Y-125700000D02*
X108800000Y-125100000D01*
X129600000Y-129500000D02*
X129000000Y-130100000D01*
X152599999Y-127249999D02*
X151800000Y-127700000D01*
X107600000Y-123900000D02*
X107400000Y-123700000D01*
X147600000Y-123900000D02*
X147800000Y-124100000D01*
X169400000Y-123300000D02*
X169600000Y-123100000D01*
X112600000Y-127250000D02*
X113400000Y-127700000D01*
X149800000Y-126100000D02*
X150200000Y-126500000D01*
X108800000Y-125100000D02*
X108600000Y-124900000D01*
X128800000Y-130300000D02*
X128600000Y-130500000D01*
X110400000Y-126700000D02*
X109800000Y-126100000D01*
X129800000Y-129300000D02*
X129600000Y-129500000D01*
X131800000Y-127700000D02*
X131400000Y-127700000D01*
X147400000Y-123700000D02*
X147600000Y-123900000D01*
X106800000Y-123100000D02*
X106800000Y-118700000D01*
X130800000Y-128300000D02*
X130600000Y-128500000D01*
X110600000Y-126900000D02*
X110400000Y-126700000D01*
X169600000Y-123100000D02*
X169800000Y-122900000D01*
X149600000Y-125900000D02*
X149800000Y-126100000D01*
X150800000Y-127100000D02*
X151200000Y-127500000D01*
X148800000Y-125100000D02*
X149200000Y-125500000D01*
X148200000Y-124500000D02*
X148400000Y-124700000D01*
X171200000Y-125100000D02*
X171600000Y-125500000D01*
X153600000Y-106900000D02*
X153800000Y-107100000D01*
X146800000Y-123100000D02*
X147200000Y-123500000D01*
X110800000Y-127100000D02*
X110600000Y-126900000D01*
X132599999Y-127249999D02*
X133400000Y-127700000D01*
X129000000Y-130100000D02*
X128800000Y-130300000D01*
X146800000Y-118700000D02*
X146800000Y-123100000D01*
X163200000Y-123300000D02*
X169400000Y-123300000D01*
X169600000Y-123500000D02*
X170000000Y-123900000D01*
X111400000Y-127700000D02*
X110800000Y-127100000D01*
X149200000Y-106900000D02*
X153600000Y-106900000D01*
X150400000Y-126700000D02*
X150600000Y-126900000D01*
X130600000Y-128500000D02*
X130000000Y-129100000D01*
X133800000Y-127700000D02*
X133400000Y-127700000D01*
X107800000Y-124100000D02*
X107600000Y-123900000D01*
X128000000Y-131100000D02*
X127800000Y-131300000D01*
X147200000Y-123500000D02*
X147400000Y-123700000D01*
X170600000Y-124500000D02*
X171000000Y-124900000D01*
X170200000Y-124100000D02*
X170600000Y-124500000D01*
X128600000Y-130500000D02*
X128000000Y-131100000D01*
X127600000Y-131500000D02*
X127400000Y-131699999D01*
X154000000Y-107300000D02*
X160200000Y-107300000D01*
X135600000Y-118700000D02*
X133199999Y-118700000D01*
X170599999Y-118249999D02*
X170200000Y-119100000D01*
X150600000Y-126900000D02*
X150800000Y-127100000D01*
X169800000Y-122900000D02*
X170200000Y-122500000D01*
X146800000Y-118700000D02*
X135600000Y-118700000D01*
X151400000Y-127700000D02*
X151800000Y-127700000D01*
X131199999Y-127900000D02*
X131000000Y-128100000D01*
X131000000Y-128100000D02*
X130800000Y-128300000D01*
X108600000Y-124900000D02*
X108400000Y-124700000D01*
X108400000Y-124700000D02*
X107800000Y-124100000D01*
X133800000Y-118700000D02*
X133800000Y-127700000D01*
X131400000Y-127700000D02*
X113400000Y-127700000D01*
X130000000Y-129100000D02*
X129800000Y-129300000D01*
X127400000Y-131699999D02*
X127200000Y-131900000D01*
X150200000Y-126500000D02*
X150400000Y-126700000D01*
X131400000Y-127700000D02*
X131199999Y-127900000D01*
D13*
%TO.N,V3V3_CHAIN_LH*%
X153000000Y-114900000D02*
X152800000Y-115100000D01*
X163600000Y-119700000D02*
X163800000Y-119900000D01*
X163800000Y-119900000D02*
X164000000Y-120100000D01*
X161800000Y-117900000D02*
X162000000Y-118100000D01*
X164000000Y-120100000D02*
X164200000Y-120300000D01*
X154200000Y-113700000D02*
X154000000Y-113900000D01*
X162200000Y-118300000D02*
X162600000Y-118700000D01*
X154000000Y-105100000D02*
X154200000Y-105300000D01*
X165000000Y-121100000D02*
X165200000Y-121300000D01*
X160600000Y-116700000D02*
X160800000Y-116900000D01*
X152800000Y-115100000D02*
X126600000Y-115100000D01*
X154400000Y-105500000D02*
X154400000Y-106300000D01*
X153800000Y-104900000D02*
X154000000Y-105100000D01*
X162000000Y-118100000D02*
X162200000Y-118300000D01*
X164600000Y-120700000D02*
X164800000Y-120900000D01*
X161200000Y-117300000D02*
X161600000Y-117700000D01*
X166400000Y-122500000D02*
X168800000Y-122500000D01*
X165600000Y-121700000D02*
X165800000Y-121900000D01*
X159200000Y-115300000D02*
X159400000Y-115500000D01*
X166000000Y-122100000D02*
X166200000Y-122300000D01*
X153600000Y-104700000D02*
X153800000Y-104900000D01*
X153400000Y-114500000D02*
X153200000Y-114700000D01*
X166200000Y-122300000D02*
X166400000Y-122500000D01*
X154400000Y-106300000D02*
X166200000Y-106300000D01*
X153400000Y-104500000D02*
X153600000Y-104700000D01*
X154000000Y-113900000D02*
X153800000Y-114100000D01*
X134199999Y-115100000D02*
X134199999Y-117900000D01*
X160200000Y-116300000D02*
X160400000Y-116500000D01*
X160800000Y-116900000D02*
X161000000Y-117100000D01*
X163000000Y-119100000D02*
X163200000Y-119300000D01*
X159800000Y-115900000D02*
X160000000Y-116100000D01*
X148600000Y-104300000D02*
X153200000Y-104300000D01*
X154400000Y-113500000D02*
X154200000Y-113700000D01*
X164800000Y-120900000D02*
X165000000Y-121100000D01*
X161000000Y-117100000D02*
X161200000Y-117300000D01*
X164200000Y-120300000D02*
X164600000Y-120700000D01*
X126600000Y-115100000D02*
X113400000Y-115100000D01*
X163200000Y-119300000D02*
X163600000Y-119700000D01*
X153200000Y-114700000D02*
X153000000Y-114900000D01*
X159400000Y-115500000D02*
X159600000Y-115700000D01*
X153600000Y-114300000D02*
X153400000Y-114500000D01*
X153800000Y-114100000D02*
X153600000Y-114300000D01*
X165200000Y-121300000D02*
X165600000Y-121700000D01*
X160400000Y-116500000D02*
X160600000Y-116700000D01*
X160000000Y-116100000D02*
X160200000Y-116300000D01*
X154200000Y-105300000D02*
X154400000Y-105500000D01*
X159600000Y-115700000D02*
X159800000Y-115900000D01*
X153200000Y-104300000D02*
X153400000Y-104500000D01*
X161600000Y-117700000D02*
X161800000Y-117900000D01*
X159000000Y-115100000D02*
X159200000Y-115300000D01*
X162600000Y-118700000D02*
X162800000Y-118900000D01*
X152800000Y-115100000D02*
X159000000Y-115100000D01*
X162800000Y-118900000D02*
X163000000Y-119100000D01*
X165800000Y-121900000D02*
X166000000Y-122100000D01*
%TD*%
%TA.AperFunction,Conductor*%
%TO.N,GND_CHAIN*%
G36*
X179993037Y-100800883D02*
G01*
X180099145Y-100809249D01*
X180118318Y-100812284D01*
X180206455Y-100833426D01*
X180224944Y-100839428D01*
X180308280Y-100873912D01*
X180325592Y-100882722D01*
X180402307Y-100929667D01*
X180418235Y-100941248D01*
X180486464Y-100999672D01*
X180500056Y-101013273D01*
X180558826Y-101082011D01*
X180570298Y-101097793D01*
X180617284Y-101174461D01*
X180626137Y-101191843D01*
X180660771Y-101275542D01*
X180666701Y-101293734D01*
X180687875Y-101381059D01*
X180691004Y-101400792D01*
X180699137Y-101506782D01*
X180699500Y-101516269D01*
X180699500Y-141483732D01*
X180699137Y-141493218D01*
X180691003Y-141599237D01*
X180687874Y-141618971D01*
X180666707Y-141706268D01*
X180660773Y-141724469D01*
X180626145Y-141808133D01*
X180617294Y-141825509D01*
X180570286Y-141902208D01*
X180558820Y-141917981D01*
X180500047Y-141986738D01*
X180486448Y-142000350D01*
X180418235Y-142058768D01*
X180402295Y-142070357D01*
X180325558Y-142117310D01*
X180308278Y-142126106D01*
X180224992Y-142160592D01*
X180206433Y-142166615D01*
X180118350Y-142187709D01*
X180099226Y-142190735D01*
X179993024Y-142199116D01*
X179983269Y-142199500D01*
X98016683Y-142199500D01*
X98006953Y-142199118D01*
X97993253Y-142198039D01*
X97900483Y-142190737D01*
X97881264Y-142187692D01*
X97793610Y-142166646D01*
X97775122Y-142160640D01*
X97691853Y-142126161D01*
X97674502Y-142117322D01*
X97597707Y-142070263D01*
X97581958Y-142058820D01*
X97513476Y-142000320D01*
X97499721Y-141986562D01*
X97441189Y-141918018D01*
X97429767Y-141902296D01*
X97382704Y-141825508D01*
X97373853Y-141808133D01*
X97339373Y-141724825D01*
X97333392Y-141706421D01*
X97312303Y-141618735D01*
X97309248Y-141599463D01*
X97309230Y-141599237D01*
X97300882Y-141493062D01*
X97300500Y-141483342D01*
X97300500Y-138999999D01*
X98300000Y-138999999D01*
X98342271Y-139429196D01*
X98467466Y-139841907D01*
X98670762Y-140222248D01*
X98670766Y-140222255D01*
X98944364Y-140555634D01*
X99277743Y-140829232D01*
X99277750Y-140829236D01*
X99658091Y-141032532D01*
X99658093Y-141032532D01*
X99658096Y-141032534D01*
X100070801Y-141157727D01*
X100070800Y-141157727D01*
X100113073Y-141161890D01*
X100500000Y-141200000D01*
X100929198Y-141157727D01*
X101341903Y-141032534D01*
X101722254Y-140829233D01*
X102055634Y-140555634D01*
X102329233Y-140222254D01*
X102532534Y-139841903D01*
X102657727Y-139429198D01*
X102700000Y-139000000D01*
X102700000Y-138999999D01*
X175300000Y-138999999D01*
X175342271Y-139429196D01*
X175467466Y-139841907D01*
X175670762Y-140222248D01*
X175670766Y-140222255D01*
X175944364Y-140555634D01*
X176277743Y-140829232D01*
X176277750Y-140829236D01*
X176658091Y-141032532D01*
X176658093Y-141032532D01*
X176658096Y-141032534D01*
X177070801Y-141157727D01*
X177070800Y-141157727D01*
X177113073Y-141161890D01*
X177500000Y-141200000D01*
X177929198Y-141157727D01*
X178341903Y-141032534D01*
X178722254Y-140829233D01*
X179055634Y-140555634D01*
X179329233Y-140222254D01*
X179532534Y-139841903D01*
X179657727Y-139429198D01*
X179700000Y-139000000D01*
X179657727Y-138570801D01*
X179532534Y-138158096D01*
X179532532Y-138158093D01*
X179532532Y-138158091D01*
X179329236Y-137777750D01*
X179329232Y-137777743D01*
X179055634Y-137444364D01*
X178722255Y-137170766D01*
X178722248Y-137170762D01*
X178341907Y-136967466D01*
X177929196Y-136842271D01*
X177500000Y-136800000D01*
X177070802Y-136842271D01*
X176658091Y-136967466D01*
X176277750Y-137170762D01*
X176277743Y-137170766D01*
X175944364Y-137444364D01*
X175670766Y-137777743D01*
X175670762Y-137777750D01*
X175467466Y-138158091D01*
X175342271Y-138570802D01*
X175300000Y-138999999D01*
X102700000Y-138999999D01*
X102657727Y-138570801D01*
X102532534Y-138158096D01*
X102532532Y-138158093D01*
X102532532Y-138158091D01*
X102329236Y-137777750D01*
X102329232Y-137777743D01*
X102055634Y-137444364D01*
X101938595Y-137348313D01*
X101722255Y-137170766D01*
X101722248Y-137170762D01*
X101341907Y-136967466D01*
X100929196Y-136842271D01*
X100500000Y-136800000D01*
X100070802Y-136842271D01*
X99658091Y-136967466D01*
X99277750Y-137170762D01*
X99277743Y-137170766D01*
X98944364Y-137444364D01*
X98670766Y-137777743D01*
X98670762Y-137777750D01*
X98467466Y-138158091D01*
X98342271Y-138570802D01*
X98300000Y-138999999D01*
X97300500Y-138999999D01*
X97300500Y-135105513D01*
X162399500Y-135105513D01*
X162399500Y-135294486D01*
X162429059Y-135481118D01*
X162487454Y-135660836D01*
X162533379Y-135750968D01*
X162573240Y-135829199D01*
X162684310Y-135982073D01*
X162817927Y-136115690D01*
X162970801Y-136226760D01*
X163050347Y-136267290D01*
X163139163Y-136312545D01*
X163139165Y-136312545D01*
X163139168Y-136312547D01*
X163235497Y-136343846D01*
X163318881Y-136370940D01*
X163505514Y-136400500D01*
X163505519Y-136400500D01*
X163694486Y-136400500D01*
X163881118Y-136370940D01*
X163938433Y-136352317D01*
X164060832Y-136312547D01*
X164229199Y-136226760D01*
X164338040Y-136147682D01*
X169300000Y-136147682D01*
X169300000Y-136352317D01*
X169332009Y-136554417D01*
X169395244Y-136749031D01*
X169488139Y-136931347D01*
X169550279Y-137016876D01*
X170057241Y-136509914D01*
X170119881Y-136618408D01*
X170231592Y-136730119D01*
X170340083Y-136792757D01*
X169833121Y-137299719D01*
X169833122Y-137299720D01*
X169918640Y-137361852D01*
X169918649Y-137361858D01*
X170100968Y-137454755D01*
X170295582Y-137517990D01*
X170497683Y-137550000D01*
X170702317Y-137550000D01*
X170904417Y-137517990D01*
X171099031Y-137454755D01*
X171281349Y-137361859D01*
X171366876Y-137299719D01*
X171366877Y-137299718D01*
X170859916Y-136792757D01*
X170968408Y-136730119D01*
X171080119Y-136618408D01*
X171142757Y-136509915D01*
X171649718Y-137016877D01*
X171649719Y-137016876D01*
X171711859Y-136931349D01*
X171804755Y-136749031D01*
X171867990Y-136554417D01*
X171900000Y-136352317D01*
X171900000Y-136147682D01*
X171867990Y-135945582D01*
X171804755Y-135750968D01*
X171711858Y-135568649D01*
X171711852Y-135568640D01*
X171649720Y-135483122D01*
X171649719Y-135483121D01*
X171142757Y-135990083D01*
X171080119Y-135881592D01*
X170968408Y-135769881D01*
X170859914Y-135707241D01*
X171366876Y-135200279D01*
X171281347Y-135138139D01*
X171099031Y-135045244D01*
X170904417Y-134982009D01*
X170702317Y-134950000D01*
X170497683Y-134950000D01*
X170295582Y-134982009D01*
X170100968Y-135045244D01*
X169918648Y-135138141D01*
X169833122Y-135200278D01*
X169833122Y-135200279D01*
X170340085Y-135707242D01*
X170231592Y-135769881D01*
X170119881Y-135881592D01*
X170057242Y-135990085D01*
X169550279Y-135483122D01*
X169550278Y-135483122D01*
X169488141Y-135568648D01*
X169395244Y-135750968D01*
X169332009Y-135945582D01*
X169300000Y-136147682D01*
X164338040Y-136147682D01*
X164382073Y-136115690D01*
X164515690Y-135982073D01*
X164626760Y-135829199D01*
X164712547Y-135660832D01*
X164770940Y-135481118D01*
X164800500Y-135294486D01*
X164800500Y-135105513D01*
X164770940Y-134918881D01*
X164712545Y-134739163D01*
X164626759Y-134570800D01*
X164515690Y-134417927D01*
X164382073Y-134284310D01*
X164229199Y-134173240D01*
X164060836Y-134087454D01*
X163881118Y-134029059D01*
X163694486Y-133999500D01*
X163694481Y-133999500D01*
X163505519Y-133999500D01*
X163505514Y-133999500D01*
X163318881Y-134029059D01*
X163139163Y-134087454D01*
X162970800Y-134173240D01*
X162883579Y-134236610D01*
X162817927Y-134284310D01*
X162817925Y-134284312D01*
X162817924Y-134284312D01*
X162684312Y-134417924D01*
X162684312Y-134417925D01*
X162684310Y-134417927D01*
X162636610Y-134483579D01*
X162573240Y-134570800D01*
X162487454Y-134739163D01*
X162429059Y-134918881D01*
X162399500Y-135105513D01*
X97300500Y-135105513D01*
X97300500Y-130338510D01*
X165124500Y-130338510D01*
X165124500Y-130661489D01*
X165160659Y-130982410D01*
X165160661Y-130982426D01*
X165232527Y-131297294D01*
X165232531Y-131297306D01*
X165339195Y-131602133D01*
X165339201Y-131602147D01*
X165479327Y-131893122D01*
X165479329Y-131893125D01*
X165651159Y-132166591D01*
X165852527Y-132419099D01*
X166080901Y-132647473D01*
X166333409Y-132848841D01*
X166606875Y-133020671D01*
X166897860Y-133160802D01*
X166897866Y-133160804D01*
X167202693Y-133267468D01*
X167202705Y-133267472D01*
X167517577Y-133339339D01*
X167838511Y-133375499D01*
X167838512Y-133375500D01*
X167838515Y-133375500D01*
X168161488Y-133375500D01*
X168161488Y-133375499D01*
X168482423Y-133339339D01*
X168797295Y-133267472D01*
X169102140Y-133160802D01*
X169393125Y-133020671D01*
X169666591Y-132848841D01*
X169919099Y-132647473D01*
X170147473Y-132419099D01*
X170348841Y-132166591D01*
X170520671Y-131893125D01*
X170660802Y-131602140D01*
X170767472Y-131297295D01*
X170839339Y-130982423D01*
X170875500Y-130661485D01*
X170875500Y-130338515D01*
X170839339Y-130017577D01*
X170767472Y-129702705D01*
X170660802Y-129397860D01*
X170520671Y-129106875D01*
X170348841Y-128833409D01*
X170147473Y-128580901D01*
X169919099Y-128352527D01*
X169666591Y-128151159D01*
X169393125Y-127979329D01*
X169393122Y-127979327D01*
X169102147Y-127839201D01*
X169102133Y-127839195D01*
X168797306Y-127732531D01*
X168797294Y-127732527D01*
X168482426Y-127660661D01*
X168482410Y-127660659D01*
X168161489Y-127624500D01*
X168161485Y-127624500D01*
X167838515Y-127624500D01*
X167838510Y-127624500D01*
X167517589Y-127660659D01*
X167517573Y-127660661D01*
X167202705Y-127732527D01*
X167202693Y-127732531D01*
X166897866Y-127839195D01*
X166897852Y-127839201D01*
X166606877Y-127979327D01*
X166333410Y-128151158D01*
X166080901Y-128352526D01*
X165852526Y-128580901D01*
X165651158Y-128833410D01*
X165479327Y-129106877D01*
X165339201Y-129397852D01*
X165339195Y-129397866D01*
X165232531Y-129702693D01*
X165232527Y-129702705D01*
X165160661Y-130017573D01*
X165160659Y-130017589D01*
X165124500Y-130338510D01*
X97300500Y-130338510D01*
X97300500Y-126105513D01*
X104399500Y-126105513D01*
X104399500Y-126294486D01*
X104429059Y-126481118D01*
X104487454Y-126660836D01*
X104533379Y-126750968D01*
X104573240Y-126829199D01*
X104684310Y-126982073D01*
X104817927Y-127115690D01*
X104970801Y-127226760D01*
X105050347Y-127267290D01*
X105139163Y-127312545D01*
X105139165Y-127312545D01*
X105139168Y-127312547D01*
X105235497Y-127343846D01*
X105318881Y-127370940D01*
X105505514Y-127400500D01*
X105505519Y-127400500D01*
X105694486Y-127400500D01*
X105881118Y-127370940D01*
X105938433Y-127352317D01*
X106060832Y-127312547D01*
X106229199Y-127226760D01*
X106338040Y-127147682D01*
X111300000Y-127147682D01*
X111300000Y-127352317D01*
X111332009Y-127554417D01*
X111395244Y-127749031D01*
X111488139Y-127931347D01*
X111550279Y-128016876D01*
X112057241Y-127509914D01*
X112119881Y-127618408D01*
X112231592Y-127730119D01*
X112340083Y-127792757D01*
X111833121Y-128299719D01*
X111833122Y-128299720D01*
X111918640Y-128361852D01*
X111918649Y-128361858D01*
X112100968Y-128454755D01*
X112295582Y-128517990D01*
X112497683Y-128550000D01*
X112702317Y-128550000D01*
X112904417Y-128517990D01*
X113099031Y-128454755D01*
X113281349Y-128361859D01*
X113366876Y-128299719D01*
X113366877Y-128299718D01*
X112859916Y-127792757D01*
X112968408Y-127730119D01*
X113080119Y-127618408D01*
X113142757Y-127509915D01*
X113649718Y-128016877D01*
X113649719Y-128016876D01*
X113711859Y-127931349D01*
X113804755Y-127749031D01*
X113867990Y-127554417D01*
X113900000Y-127352317D01*
X113900000Y-127147682D01*
X113867990Y-126945582D01*
X113804755Y-126750968D01*
X113711858Y-126568649D01*
X113711852Y-126568640D01*
X113649720Y-126483122D01*
X113649719Y-126483121D01*
X113142757Y-126990083D01*
X113080119Y-126881592D01*
X112968408Y-126769881D01*
X112859914Y-126707241D01*
X113366876Y-126200279D01*
X113366876Y-126200278D01*
X113281352Y-126138142D01*
X113217315Y-126105513D01*
X124399500Y-126105513D01*
X124399500Y-126294486D01*
X124429059Y-126481118D01*
X124487454Y-126660836D01*
X124533379Y-126750968D01*
X124573240Y-126829199D01*
X124684310Y-126982073D01*
X124817927Y-127115690D01*
X124970801Y-127226760D01*
X125050347Y-127267290D01*
X125139163Y-127312545D01*
X125139165Y-127312545D01*
X125139168Y-127312547D01*
X125235497Y-127343846D01*
X125318881Y-127370940D01*
X125505514Y-127400500D01*
X125505519Y-127400500D01*
X125694486Y-127400500D01*
X125881118Y-127370940D01*
X125938433Y-127352317D01*
X126060832Y-127312547D01*
X126229199Y-127226760D01*
X126338040Y-127147682D01*
X131300000Y-127147682D01*
X131300000Y-127352317D01*
X131332009Y-127554417D01*
X131395244Y-127749031D01*
X131488139Y-127931347D01*
X131550279Y-128016876D01*
X132057241Y-127509914D01*
X132119881Y-127618408D01*
X132231592Y-127730119D01*
X132340083Y-127792757D01*
X131833121Y-128299719D01*
X131833122Y-128299720D01*
X131918640Y-128361852D01*
X131918649Y-128361858D01*
X132100968Y-128454755D01*
X132295582Y-128517990D01*
X132497683Y-128550000D01*
X132702317Y-128550000D01*
X132904417Y-128517990D01*
X133099031Y-128454755D01*
X133281349Y-128361859D01*
X133366876Y-128299719D01*
X133366877Y-128299718D01*
X132859916Y-127792757D01*
X132968408Y-127730119D01*
X133080119Y-127618408D01*
X133142757Y-127509915D01*
X133649718Y-128016877D01*
X133649719Y-128016876D01*
X133711859Y-127931349D01*
X133804755Y-127749031D01*
X133867990Y-127554417D01*
X133900000Y-127352317D01*
X133900000Y-127147682D01*
X133867990Y-126945582D01*
X133804755Y-126750968D01*
X133711858Y-126568649D01*
X133711852Y-126568640D01*
X133649720Y-126483122D01*
X133649719Y-126483121D01*
X133142757Y-126990083D01*
X133080119Y-126881592D01*
X132968408Y-126769881D01*
X132859914Y-126707241D01*
X133366876Y-126200279D01*
X133366876Y-126200278D01*
X133281352Y-126138142D01*
X133217315Y-126105513D01*
X144399500Y-126105513D01*
X144399500Y-126294486D01*
X144429059Y-126481118D01*
X144487454Y-126660836D01*
X144533379Y-126750968D01*
X144573240Y-126829199D01*
X144684310Y-126982073D01*
X144817927Y-127115690D01*
X144970801Y-127226760D01*
X145050347Y-127267290D01*
X145139163Y-127312545D01*
X145139165Y-127312545D01*
X145139168Y-127312547D01*
X145235497Y-127343846D01*
X145318881Y-127370940D01*
X145505514Y-127400500D01*
X145505519Y-127400500D01*
X145694486Y-127400500D01*
X145881118Y-127370940D01*
X145938433Y-127352317D01*
X146060832Y-127312547D01*
X146229199Y-127226760D01*
X146338040Y-127147682D01*
X151300000Y-127147682D01*
X151300000Y-127352317D01*
X151332009Y-127554417D01*
X151395244Y-127749031D01*
X151488139Y-127931347D01*
X151550279Y-128016876D01*
X152057241Y-127509914D01*
X152119881Y-127618408D01*
X152231592Y-127730119D01*
X152340083Y-127792757D01*
X151833121Y-128299719D01*
X151833122Y-128299720D01*
X151918640Y-128361852D01*
X151918649Y-128361858D01*
X152100968Y-128454755D01*
X152295582Y-128517990D01*
X152497683Y-128550000D01*
X152702317Y-128550000D01*
X152904417Y-128517990D01*
X153099031Y-128454755D01*
X153281349Y-128361859D01*
X153366876Y-128299719D01*
X153366877Y-128299718D01*
X152859916Y-127792757D01*
X152968408Y-127730119D01*
X153080119Y-127618408D01*
X153142757Y-127509915D01*
X153649718Y-128016877D01*
X153649719Y-128016876D01*
X153711859Y-127931349D01*
X153804755Y-127749031D01*
X153867990Y-127554417D01*
X153900000Y-127352317D01*
X153900000Y-127147682D01*
X153867990Y-126945582D01*
X153804755Y-126750968D01*
X153711858Y-126568649D01*
X153711852Y-126568640D01*
X153649720Y-126483122D01*
X153649719Y-126483121D01*
X153142757Y-126990083D01*
X153080119Y-126881592D01*
X152968408Y-126769881D01*
X152859914Y-126707241D01*
X153366876Y-126200279D01*
X153281347Y-126138139D01*
X153099031Y-126045244D01*
X152904417Y-125982009D01*
X152702317Y-125950000D01*
X152497683Y-125950000D01*
X152295582Y-125982009D01*
X152100968Y-126045244D01*
X151918648Y-126138141D01*
X151833122Y-126200278D01*
X151833122Y-126200279D01*
X152340085Y-126707242D01*
X152231592Y-126769881D01*
X152119881Y-126881592D01*
X152057242Y-126990085D01*
X151550279Y-126483122D01*
X151550278Y-126483122D01*
X151488141Y-126568648D01*
X151395244Y-126750968D01*
X151332009Y-126945582D01*
X151300000Y-127147682D01*
X146338040Y-127147682D01*
X146382073Y-127115690D01*
X146515690Y-126982073D01*
X146626760Y-126829199D01*
X146712547Y-126660832D01*
X146770940Y-126481118D01*
X146800500Y-126294486D01*
X146800500Y-126105513D01*
X146770940Y-125918881D01*
X146712545Y-125739163D01*
X146626759Y-125570800D01*
X146515690Y-125417927D01*
X146382073Y-125284310D01*
X146229199Y-125173240D01*
X146060836Y-125087454D01*
X145881118Y-125029059D01*
X145694486Y-124999500D01*
X145694481Y-124999500D01*
X145505519Y-124999500D01*
X145505514Y-124999500D01*
X145318881Y-125029059D01*
X145139163Y-125087454D01*
X144970800Y-125173240D01*
X144883579Y-125236610D01*
X144817927Y-125284310D01*
X144817925Y-125284312D01*
X144817924Y-125284312D01*
X144684312Y-125417924D01*
X144684312Y-125417925D01*
X144684310Y-125417927D01*
X144636610Y-125483579D01*
X144573240Y-125570800D01*
X144487454Y-125739163D01*
X144429059Y-125918881D01*
X144399500Y-126105513D01*
X133217315Y-126105513D01*
X133099031Y-126045244D01*
X132904417Y-125982009D01*
X132702317Y-125950000D01*
X132497683Y-125950000D01*
X132295582Y-125982009D01*
X132100968Y-126045244D01*
X131918648Y-126138141D01*
X131833122Y-126200278D01*
X131833122Y-126200279D01*
X132340085Y-126707242D01*
X132231592Y-126769881D01*
X132119881Y-126881592D01*
X132057242Y-126990085D01*
X131550279Y-126483122D01*
X131550278Y-126483122D01*
X131488141Y-126568648D01*
X131395244Y-126750968D01*
X131332009Y-126945582D01*
X131300000Y-127147682D01*
X126338040Y-127147682D01*
X126382073Y-127115690D01*
X126515690Y-126982073D01*
X126626760Y-126829199D01*
X126712547Y-126660832D01*
X126770940Y-126481118D01*
X126800500Y-126294486D01*
X126800500Y-126105513D01*
X126770940Y-125918881D01*
X126712545Y-125739163D01*
X126626759Y-125570800D01*
X126515690Y-125417927D01*
X126382073Y-125284310D01*
X126229199Y-125173240D01*
X126060836Y-125087454D01*
X125881118Y-125029059D01*
X125694486Y-124999500D01*
X125694481Y-124999500D01*
X125505519Y-124999500D01*
X125505514Y-124999500D01*
X125318881Y-125029059D01*
X125139163Y-125087454D01*
X124970800Y-125173240D01*
X124883579Y-125236610D01*
X124817927Y-125284310D01*
X124817925Y-125284312D01*
X124817924Y-125284312D01*
X124684312Y-125417924D01*
X124684312Y-125417925D01*
X124684310Y-125417927D01*
X124636610Y-125483579D01*
X124573240Y-125570800D01*
X124487454Y-125739163D01*
X124429059Y-125918881D01*
X124399500Y-126105513D01*
X113217315Y-126105513D01*
X113099031Y-126045244D01*
X112904417Y-125982009D01*
X112702317Y-125950000D01*
X112497683Y-125950000D01*
X112295582Y-125982009D01*
X112100968Y-126045244D01*
X111918648Y-126138141D01*
X111833122Y-126200278D01*
X111833122Y-126200279D01*
X112340085Y-126707242D01*
X112231592Y-126769881D01*
X112119881Y-126881592D01*
X112057242Y-126990085D01*
X111550279Y-126483122D01*
X111550278Y-126483122D01*
X111488141Y-126568648D01*
X111395244Y-126750968D01*
X111332009Y-126945582D01*
X111300000Y-127147682D01*
X106338040Y-127147682D01*
X106382073Y-127115690D01*
X106515690Y-126982073D01*
X106626760Y-126829199D01*
X106712547Y-126660832D01*
X106770940Y-126481118D01*
X106800500Y-126294486D01*
X106800500Y-126105513D01*
X106770940Y-125918881D01*
X106712545Y-125739163D01*
X106626759Y-125570800D01*
X106515690Y-125417927D01*
X106382073Y-125284310D01*
X106229199Y-125173240D01*
X106060836Y-125087454D01*
X105881118Y-125029059D01*
X105694486Y-124999500D01*
X105694481Y-124999500D01*
X105505519Y-124999500D01*
X105505514Y-124999500D01*
X105318881Y-125029059D01*
X105139163Y-125087454D01*
X104970800Y-125173240D01*
X104883579Y-125236610D01*
X104817927Y-125284310D01*
X104817925Y-125284312D01*
X104817924Y-125284312D01*
X104684312Y-125417924D01*
X104684312Y-125417925D01*
X104684310Y-125417927D01*
X104636610Y-125483579D01*
X104573240Y-125570800D01*
X104487454Y-125739163D01*
X104429059Y-125918881D01*
X104399500Y-126105513D01*
X97300500Y-126105513D01*
X97300500Y-121338510D01*
X107124500Y-121338510D01*
X107124500Y-121661489D01*
X107160659Y-121982410D01*
X107160661Y-121982426D01*
X107232527Y-122297294D01*
X107232531Y-122297306D01*
X107339195Y-122602133D01*
X107339201Y-122602147D01*
X107479327Y-122893122D01*
X107479329Y-122893125D01*
X107651159Y-123166591D01*
X107852527Y-123419099D01*
X108080901Y-123647473D01*
X108333409Y-123848841D01*
X108606875Y-124020671D01*
X108897860Y-124160802D01*
X108897866Y-124160804D01*
X109202693Y-124267468D01*
X109202705Y-124267472D01*
X109517577Y-124339339D01*
X109838511Y-124375499D01*
X109838512Y-124375500D01*
X109838515Y-124375500D01*
X110161488Y-124375500D01*
X110161488Y-124375499D01*
X110482423Y-124339339D01*
X110797295Y-124267472D01*
X111102140Y-124160802D01*
X111393125Y-124020671D01*
X111666591Y-123848841D01*
X111919099Y-123647473D01*
X112147473Y-123419099D01*
X112348841Y-123166591D01*
X112520671Y-122893125D01*
X112660802Y-122602140D01*
X112767472Y-122297295D01*
X112839339Y-121982423D01*
X112875500Y-121661485D01*
X112875500Y-121338515D01*
X112875499Y-121338510D01*
X127124500Y-121338510D01*
X127124500Y-121661489D01*
X127160659Y-121982410D01*
X127160661Y-121982426D01*
X127232527Y-122297294D01*
X127232531Y-122297306D01*
X127339195Y-122602133D01*
X127339201Y-122602147D01*
X127479327Y-122893122D01*
X127479329Y-122893125D01*
X127651159Y-123166591D01*
X127852527Y-123419099D01*
X128080901Y-123647473D01*
X128333409Y-123848841D01*
X128606875Y-124020671D01*
X128897860Y-124160802D01*
X128897866Y-124160804D01*
X129202693Y-124267468D01*
X129202705Y-124267472D01*
X129517577Y-124339339D01*
X129838511Y-124375499D01*
X129838512Y-124375500D01*
X129838515Y-124375500D01*
X130161488Y-124375500D01*
X130161488Y-124375499D01*
X130482423Y-124339339D01*
X130797295Y-124267472D01*
X131102140Y-124160802D01*
X131393125Y-124020671D01*
X131666591Y-123848841D01*
X131919099Y-123647473D01*
X132147473Y-123419099D01*
X132348841Y-123166591D01*
X132520671Y-122893125D01*
X132660802Y-122602140D01*
X132767472Y-122297295D01*
X132839339Y-121982423D01*
X132875500Y-121661485D01*
X132875500Y-121338515D01*
X132875499Y-121338510D01*
X147124500Y-121338510D01*
X147124500Y-121661489D01*
X147160659Y-121982410D01*
X147160661Y-121982426D01*
X147232527Y-122297294D01*
X147232531Y-122297306D01*
X147339195Y-122602133D01*
X147339201Y-122602147D01*
X147479327Y-122893122D01*
X147479329Y-122893125D01*
X147651159Y-123166591D01*
X147852527Y-123419099D01*
X148080901Y-123647473D01*
X148333409Y-123848841D01*
X148606875Y-124020671D01*
X148897860Y-124160802D01*
X148897866Y-124160804D01*
X149202693Y-124267468D01*
X149202705Y-124267472D01*
X149517577Y-124339339D01*
X149838511Y-124375499D01*
X149838512Y-124375500D01*
X149838515Y-124375500D01*
X150161488Y-124375500D01*
X150161488Y-124375499D01*
X150482423Y-124339339D01*
X150797295Y-124267472D01*
X151102140Y-124160802D01*
X151393125Y-124020671D01*
X151666591Y-123848841D01*
X151919099Y-123647473D01*
X152147473Y-123419099D01*
X152348841Y-123166591D01*
X152520671Y-122893125D01*
X152660802Y-122602140D01*
X152767472Y-122297295D01*
X152839339Y-121982423D01*
X152875500Y-121661485D01*
X152875500Y-121338515D01*
X152839339Y-121017577D01*
X152767472Y-120702705D01*
X152660802Y-120397860D01*
X152520671Y-120106875D01*
X152348841Y-119833409D01*
X152147473Y-119580901D01*
X151919099Y-119352527D01*
X151910805Y-119345913D01*
X151852878Y-119299718D01*
X151666591Y-119151159D01*
X151393429Y-118979520D01*
X151393122Y-118979327D01*
X151102147Y-118839201D01*
X151102133Y-118839195D01*
X150797306Y-118732531D01*
X150797294Y-118732527D01*
X150482426Y-118660661D01*
X150482410Y-118660659D01*
X150161489Y-118624500D01*
X150161485Y-118624500D01*
X149838515Y-118624500D01*
X149838510Y-118624500D01*
X149517589Y-118660659D01*
X149517573Y-118660661D01*
X149202705Y-118732527D01*
X149202693Y-118732531D01*
X148897866Y-118839195D01*
X148897852Y-118839201D01*
X148606877Y-118979327D01*
X148333410Y-119151158D01*
X148080901Y-119352526D01*
X147852526Y-119580901D01*
X147651158Y-119833410D01*
X147479327Y-120106877D01*
X147339201Y-120397852D01*
X147339195Y-120397866D01*
X147232531Y-120702693D01*
X147232527Y-120702705D01*
X147160661Y-121017573D01*
X147160659Y-121017589D01*
X147124500Y-121338510D01*
X132875499Y-121338510D01*
X132839339Y-121017577D01*
X132767472Y-120702705D01*
X132660802Y-120397860D01*
X132520671Y-120106875D01*
X132348841Y-119833409D01*
X132147473Y-119580901D01*
X131919099Y-119352527D01*
X131910805Y-119345913D01*
X131852878Y-119299718D01*
X131666591Y-119151159D01*
X131393429Y-118979520D01*
X131393122Y-118979327D01*
X131102147Y-118839201D01*
X131102133Y-118839195D01*
X130797306Y-118732531D01*
X130797294Y-118732527D01*
X130482426Y-118660661D01*
X130482410Y-118660659D01*
X130161489Y-118624500D01*
X130161485Y-118624500D01*
X129838515Y-118624500D01*
X129838510Y-118624500D01*
X129517589Y-118660659D01*
X129517573Y-118660661D01*
X129202705Y-118732527D01*
X129202693Y-118732531D01*
X128897866Y-118839195D01*
X128897852Y-118839201D01*
X128606877Y-118979327D01*
X128333410Y-119151158D01*
X128080901Y-119352526D01*
X127852526Y-119580901D01*
X127651158Y-119833410D01*
X127479327Y-120106877D01*
X127339201Y-120397852D01*
X127339195Y-120397866D01*
X127232531Y-120702693D01*
X127232527Y-120702705D01*
X127160661Y-121017573D01*
X127160659Y-121017589D01*
X127124500Y-121338510D01*
X112875499Y-121338510D01*
X112839339Y-121017577D01*
X112767472Y-120702705D01*
X112660802Y-120397860D01*
X112520671Y-120106875D01*
X112348841Y-119833409D01*
X112147473Y-119580901D01*
X111919099Y-119352527D01*
X111910805Y-119345913D01*
X111852878Y-119299718D01*
X111666591Y-119151159D01*
X111393429Y-118979520D01*
X111393122Y-118979327D01*
X111102147Y-118839201D01*
X111102133Y-118839195D01*
X110797306Y-118732531D01*
X110797294Y-118732527D01*
X110482426Y-118660661D01*
X110482410Y-118660659D01*
X110161489Y-118624500D01*
X110161485Y-118624500D01*
X109838515Y-118624500D01*
X109838510Y-118624500D01*
X109517589Y-118660659D01*
X109517573Y-118660661D01*
X109202705Y-118732527D01*
X109202693Y-118732531D01*
X108897866Y-118839195D01*
X108897852Y-118839201D01*
X108606877Y-118979327D01*
X108333410Y-119151158D01*
X108080901Y-119352526D01*
X107852526Y-119580901D01*
X107651158Y-119833410D01*
X107479327Y-120106877D01*
X107339201Y-120397852D01*
X107339195Y-120397866D01*
X107232531Y-120702693D01*
X107232527Y-120702705D01*
X107160661Y-121017573D01*
X107160659Y-121017589D01*
X107124500Y-121338510D01*
X97300500Y-121338510D01*
X97300500Y-115034108D01*
X112899500Y-115034108D01*
X112899500Y-115165892D01*
X112903152Y-115179520D01*
X112933608Y-115293187D01*
X112960255Y-115339340D01*
X112999500Y-115407314D01*
X113092686Y-115500500D01*
X113191345Y-115557461D01*
X113206810Y-115566390D01*
X113206814Y-115566392D01*
X113334108Y-115600500D01*
X113334110Y-115600500D01*
X113465890Y-115600500D01*
X113465892Y-115600500D01*
X113593186Y-115566392D01*
X113673219Y-115520185D01*
X113678540Y-115517113D01*
X113740540Y-115500500D01*
X126259460Y-115500500D01*
X126321460Y-115517113D01*
X126326781Y-115520185D01*
X126406814Y-115566392D01*
X126534108Y-115600500D01*
X126534110Y-115600500D01*
X126665890Y-115600500D01*
X126665892Y-115600500D01*
X126793186Y-115566392D01*
X126873219Y-115520185D01*
X126878540Y-115517113D01*
X126940540Y-115500500D01*
X133675499Y-115500500D01*
X133742538Y-115520185D01*
X133788293Y-115572989D01*
X133799499Y-115624500D01*
X133799499Y-117559460D01*
X133782886Y-117621460D01*
X133733608Y-117706810D01*
X133733608Y-117706811D01*
X133733607Y-117706813D01*
X133733607Y-117706814D01*
X133699499Y-117834108D01*
X133699499Y-117965892D01*
X133703151Y-117979520D01*
X133733607Y-118093187D01*
X133759966Y-118138841D01*
X133799499Y-118207314D01*
X133892685Y-118300500D01*
X134006813Y-118366392D01*
X134134107Y-118400500D01*
X134134109Y-118400500D01*
X134265889Y-118400500D01*
X134265891Y-118400500D01*
X134393185Y-118366392D01*
X134507313Y-118300500D01*
X134600499Y-118207314D01*
X134666391Y-118093186D01*
X134700499Y-117965892D01*
X134700499Y-117834108D01*
X134666391Y-117706814D01*
X134661132Y-117697706D01*
X134617112Y-117621460D01*
X134600499Y-117559460D01*
X134600499Y-115624500D01*
X134620184Y-115557461D01*
X134672988Y-115511706D01*
X134724499Y-115500500D01*
X152459460Y-115500500D01*
X152521460Y-115517113D01*
X152526781Y-115520185D01*
X152606814Y-115566392D01*
X152734108Y-115600500D01*
X152734110Y-115600500D01*
X152865890Y-115600500D01*
X152865892Y-115600500D01*
X152993186Y-115566392D01*
X153073219Y-115520185D01*
X153078540Y-115517113D01*
X153140540Y-115500500D01*
X158782746Y-115500500D01*
X158812186Y-115509144D01*
X158842173Y-115515668D01*
X158847188Y-115519422D01*
X158849785Y-115520185D01*
X158870427Y-115536819D01*
X158872449Y-115538841D01*
X158872452Y-115538845D01*
X159072449Y-115738841D01*
X159072452Y-115738845D01*
X159272449Y-115938841D01*
X159272452Y-115938845D01*
X159472449Y-116138841D01*
X159472452Y-116138845D01*
X159672449Y-116338841D01*
X159672452Y-116338845D01*
X159872449Y-116538841D01*
X159872452Y-116538845D01*
X160072449Y-116738841D01*
X160072452Y-116738845D01*
X160272449Y-116938841D01*
X160272452Y-116938845D01*
X160279519Y-116945912D01*
X160279520Y-116945913D01*
X160378851Y-117045244D01*
X160472449Y-117138841D01*
X160472452Y-117138845D01*
X160672449Y-117338841D01*
X160672452Y-117338845D01*
X160872449Y-117538841D01*
X160872452Y-117538845D01*
X161279520Y-117945913D01*
X161472449Y-118138841D01*
X161472452Y-118138845D01*
X161672449Y-118338841D01*
X161672452Y-118338845D01*
X161872449Y-118538841D01*
X161872452Y-118538845D01*
X162279520Y-118945913D01*
X162472449Y-119138841D01*
X162472452Y-119138845D01*
X162672449Y-119338841D01*
X162672452Y-119338845D01*
X162872449Y-119538841D01*
X162872452Y-119538845D01*
X163279520Y-119945913D01*
X163472449Y-120138841D01*
X163472452Y-120138845D01*
X163672449Y-120338841D01*
X163672452Y-120338845D01*
X163872449Y-120538841D01*
X163872452Y-120538845D01*
X164279520Y-120945913D01*
X164472449Y-121138841D01*
X164472452Y-121138845D01*
X164672449Y-121338841D01*
X164672452Y-121338845D01*
X164872449Y-121538841D01*
X164872452Y-121538845D01*
X165279520Y-121945913D01*
X165472449Y-122138841D01*
X165472452Y-122138845D01*
X165672449Y-122338841D01*
X165672452Y-122338845D01*
X165872449Y-122538841D01*
X165872452Y-122538845D01*
X166072449Y-122738841D01*
X166072452Y-122738845D01*
X166079520Y-122745913D01*
X166154087Y-122820480D01*
X166245413Y-122873207D01*
X166347273Y-122900501D01*
X166347275Y-122900501D01*
X166460323Y-122900501D01*
X166460339Y-122900500D01*
X168459460Y-122900500D01*
X168521460Y-122917113D01*
X168606814Y-122966392D01*
X168734108Y-123000500D01*
X168734110Y-123000500D01*
X168865890Y-123000500D01*
X168865892Y-123000500D01*
X168993186Y-122966392D01*
X169107314Y-122900500D01*
X169200500Y-122807314D01*
X169266392Y-122693186D01*
X169300500Y-122565892D01*
X169300500Y-122434108D01*
X169266392Y-122306814D01*
X169200500Y-122192686D01*
X169107314Y-122099500D01*
X169044410Y-122063182D01*
X168993187Y-122033608D01*
X168929539Y-122016554D01*
X168865892Y-121999500D01*
X168734108Y-121999500D01*
X168606814Y-122033608D01*
X168606813Y-122033608D01*
X168606811Y-122033609D01*
X168606810Y-122033609D01*
X168521460Y-122082887D01*
X168459460Y-122099500D01*
X166617255Y-122099500D01*
X166587818Y-122090856D01*
X166557829Y-122084333D01*
X166552812Y-122080577D01*
X166550216Y-122079815D01*
X166529579Y-122063186D01*
X166445913Y-121979520D01*
X166445911Y-121979519D01*
X166245913Y-121779520D01*
X166245912Y-121779519D01*
X166238848Y-121772455D01*
X166238841Y-121772449D01*
X166038848Y-121572455D01*
X166038841Y-121572449D01*
X165845913Y-121379520D01*
X165438848Y-120972455D01*
X165438841Y-120972449D01*
X165238848Y-120772455D01*
X165238841Y-120772449D01*
X165038848Y-120572455D01*
X165038841Y-120572449D01*
X164845913Y-120379520D01*
X164438848Y-119972455D01*
X164438841Y-119972449D01*
X164238848Y-119772455D01*
X164238841Y-119772449D01*
X164038848Y-119572455D01*
X164038841Y-119572449D01*
X163845913Y-119379520D01*
X163438848Y-118972455D01*
X163438841Y-118972449D01*
X163238848Y-118772455D01*
X163238841Y-118772449D01*
X163038848Y-118572455D01*
X163038841Y-118572449D01*
X162958316Y-118491924D01*
X162924831Y-118430601D01*
X162929815Y-118360909D01*
X162971687Y-118304976D01*
X163037151Y-118280559D01*
X163102292Y-118293758D01*
X163139163Y-118312545D01*
X163139165Y-118312545D01*
X163139168Y-118312547D01*
X163235497Y-118343846D01*
X163318881Y-118370940D01*
X163505514Y-118400500D01*
X163505519Y-118400500D01*
X163694486Y-118400500D01*
X163881118Y-118370940D01*
X163938433Y-118352317D01*
X164060832Y-118312547D01*
X164229199Y-118226760D01*
X164338040Y-118147682D01*
X169300000Y-118147682D01*
X169300000Y-118352317D01*
X169332009Y-118554417D01*
X169395244Y-118749031D01*
X169488139Y-118931347D01*
X169550279Y-119016876D01*
X170057241Y-118509914D01*
X170119881Y-118618408D01*
X170231592Y-118730119D01*
X170340083Y-118792757D01*
X169833121Y-119299719D01*
X169833122Y-119299720D01*
X169918640Y-119361852D01*
X169918649Y-119361858D01*
X170100968Y-119454755D01*
X170295582Y-119517990D01*
X170497683Y-119550000D01*
X170702317Y-119550000D01*
X170904417Y-119517990D01*
X171099031Y-119454755D01*
X171281349Y-119361859D01*
X171366876Y-119299719D01*
X171366877Y-119299718D01*
X170859916Y-118792757D01*
X170968408Y-118730119D01*
X171080119Y-118618408D01*
X171142757Y-118509915D01*
X171649718Y-119016877D01*
X171649719Y-119016876D01*
X171711859Y-118931349D01*
X171804755Y-118749031D01*
X171867990Y-118554417D01*
X171900000Y-118352317D01*
X171900000Y-118147682D01*
X171867990Y-117945582D01*
X171804755Y-117750968D01*
X171711858Y-117568649D01*
X171711852Y-117568640D01*
X171649720Y-117483122D01*
X171649719Y-117483121D01*
X171142757Y-117990083D01*
X171080119Y-117881592D01*
X170968408Y-117769881D01*
X170859914Y-117707241D01*
X171366876Y-117200279D01*
X171281347Y-117138139D01*
X171099031Y-117045244D01*
X170904417Y-116982009D01*
X170702317Y-116950000D01*
X170497683Y-116950000D01*
X170295582Y-116982009D01*
X170100968Y-117045244D01*
X169918648Y-117138141D01*
X169833122Y-117200278D01*
X169833122Y-117200279D01*
X170340085Y-117707242D01*
X170231592Y-117769881D01*
X170119881Y-117881592D01*
X170057242Y-117990085D01*
X169550279Y-117483122D01*
X169550278Y-117483122D01*
X169488141Y-117568648D01*
X169395244Y-117750968D01*
X169332009Y-117945582D01*
X169300000Y-118147682D01*
X164338040Y-118147682D01*
X164382073Y-118115690D01*
X164515690Y-117982073D01*
X164626760Y-117829199D01*
X164712547Y-117660832D01*
X164770940Y-117481118D01*
X164800500Y-117294486D01*
X164800500Y-117105513D01*
X164770940Y-116918881D01*
X164725658Y-116779519D01*
X164712547Y-116739168D01*
X164712545Y-116739165D01*
X164712545Y-116739163D01*
X164667290Y-116650347D01*
X164626760Y-116570801D01*
X164515690Y-116417927D01*
X164382073Y-116284310D01*
X164229199Y-116173240D01*
X164175563Y-116145911D01*
X164060836Y-116087454D01*
X163881118Y-116029059D01*
X163694486Y-115999500D01*
X163694481Y-115999500D01*
X163505519Y-115999500D01*
X163505514Y-115999500D01*
X163318881Y-116029059D01*
X163139163Y-116087454D01*
X162970800Y-116173240D01*
X162883579Y-116236610D01*
X162817927Y-116284310D01*
X162817925Y-116284312D01*
X162817924Y-116284312D01*
X162684312Y-116417924D01*
X162684312Y-116417925D01*
X162684310Y-116417927D01*
X162636610Y-116483579D01*
X162573240Y-116570800D01*
X162487454Y-116739163D01*
X162429059Y-116918881D01*
X162399500Y-117105513D01*
X162399500Y-117294486D01*
X162429059Y-117481118D01*
X162487454Y-117660836D01*
X162506241Y-117697706D01*
X162509210Y-117713520D01*
X162516922Y-117727642D01*
X162515526Y-117747151D01*
X162519137Y-117766376D01*
X162513085Y-117781284D01*
X162511938Y-117797334D01*
X162500215Y-117812993D01*
X162492860Y-117831116D01*
X162479710Y-117840385D01*
X162470067Y-117853268D01*
X162451739Y-117860103D01*
X162435754Y-117871373D01*
X162419678Y-117872062D01*
X162404603Y-117877685D01*
X162385489Y-117873527D01*
X162365948Y-117874365D01*
X162351292Y-117866088D01*
X162336330Y-117862834D01*
X162308080Y-117841686D01*
X162308076Y-117841684D01*
X162245913Y-117779520D01*
X162245911Y-117779519D01*
X162045913Y-117579520D01*
X162045912Y-117579519D01*
X162038848Y-117572455D01*
X162038841Y-117572449D01*
X161845913Y-117379520D01*
X161438848Y-116972455D01*
X161438841Y-116972449D01*
X161238848Y-116772455D01*
X161238841Y-116772449D01*
X161038848Y-116572455D01*
X161038841Y-116572449D01*
X160838848Y-116372455D01*
X160838841Y-116372449D01*
X160638848Y-116172455D01*
X160638841Y-116172449D01*
X160438848Y-115972455D01*
X160438841Y-115972449D01*
X160238848Y-115772455D01*
X160238841Y-115772449D01*
X160038848Y-115572455D01*
X160038841Y-115572449D01*
X159838848Y-115372455D01*
X159838841Y-115372449D01*
X159638848Y-115172455D01*
X159638841Y-115172449D01*
X159438855Y-114972462D01*
X159438847Y-114972455D01*
X159245913Y-114779520D01*
X159207316Y-114757235D01*
X159154589Y-114726793D01*
X159103657Y-114713146D01*
X159052727Y-114699500D01*
X159052726Y-114699500D01*
X154066255Y-114699500D01*
X154045011Y-114693262D01*
X154022924Y-114691683D01*
X154012138Y-114683609D01*
X153999216Y-114679815D01*
X153984717Y-114663083D01*
X153966989Y-114649812D01*
X153962280Y-114637189D01*
X153953461Y-114627011D01*
X153950310Y-114605096D01*
X153942571Y-114584349D01*
X153945434Y-114571186D01*
X153943517Y-114557853D01*
X153952715Y-114537710D01*
X153957422Y-114516075D01*
X153970692Y-114498347D01*
X153972542Y-114494297D01*
X153978572Y-114487821D01*
X154028467Y-114437924D01*
X154028471Y-114437921D01*
X154045912Y-114420480D01*
X154045913Y-114420480D01*
X154228471Y-114237919D01*
X154228474Y-114237918D01*
X154245912Y-114220480D01*
X154245913Y-114220480D01*
X154442394Y-114023996D01*
X154442402Y-114023990D01*
X154442504Y-114023933D01*
X154497986Y-113991899D01*
X154544156Y-113979528D01*
X154593184Y-113966393D01*
X154593184Y-113966392D01*
X154593186Y-113966392D01*
X154707314Y-113900500D01*
X154800500Y-113807314D01*
X154866392Y-113693186D01*
X154900500Y-113565892D01*
X154900500Y-113434108D01*
X154866392Y-113306814D01*
X154800500Y-113192686D01*
X154707314Y-113099500D01*
X154642049Y-113061819D01*
X154593187Y-113033608D01*
X154529539Y-113016554D01*
X154465892Y-112999500D01*
X154334108Y-112999500D01*
X154206812Y-113033608D01*
X154092686Y-113099500D01*
X154092683Y-113099502D01*
X153999502Y-113192683D01*
X153999500Y-113192686D01*
X153933607Y-113306814D01*
X153933607Y-113306815D01*
X153908097Y-113402016D01*
X153876004Y-113457602D01*
X153679520Y-113654087D01*
X152879519Y-114454088D01*
X152757599Y-114576006D01*
X152702013Y-114608098D01*
X152606815Y-114633607D01*
X152606810Y-114633609D01*
X152521460Y-114682887D01*
X152459460Y-114699500D01*
X126940540Y-114699500D01*
X126878540Y-114682887D01*
X126793188Y-114633609D01*
X126793187Y-114633608D01*
X126793186Y-114633608D01*
X126665892Y-114599500D01*
X126534108Y-114599500D01*
X126406814Y-114633608D01*
X126406813Y-114633608D01*
X126406811Y-114633609D01*
X126406810Y-114633609D01*
X126321460Y-114682887D01*
X126259460Y-114699500D01*
X113740540Y-114699500D01*
X113678540Y-114682887D01*
X113593188Y-114633609D01*
X113593187Y-114633608D01*
X113593186Y-114633608D01*
X113465892Y-114599500D01*
X113334108Y-114599500D01*
X113206812Y-114633608D01*
X113092686Y-114699500D01*
X113092683Y-114699502D01*
X112999502Y-114792683D01*
X112999500Y-114792686D01*
X112933608Y-114906812D01*
X112903100Y-115020671D01*
X112899500Y-115034108D01*
X97300500Y-115034108D01*
X97300500Y-112634108D01*
X133099500Y-112634108D01*
X133099500Y-112765891D01*
X133133608Y-112893187D01*
X133166554Y-112950250D01*
X133199500Y-113007314D01*
X133292686Y-113100500D01*
X133406814Y-113166392D01*
X133534108Y-113200500D01*
X133534110Y-113200500D01*
X133665890Y-113200500D01*
X133665892Y-113200500D01*
X133793186Y-113166392D01*
X133907314Y-113100500D01*
X133945995Y-113061819D01*
X133972922Y-113047115D01*
X133998741Y-113030523D01*
X134004941Y-113029631D01*
X134007318Y-113028334D01*
X134033676Y-113025500D01*
X134081251Y-113025500D01*
X134148290Y-113045185D01*
X134194045Y-113097989D01*
X134203989Y-113167147D01*
X134188639Y-113211497D01*
X134164944Y-113252538D01*
X134133608Y-113306812D01*
X134108099Y-113402016D01*
X134099500Y-113434108D01*
X134099500Y-113565892D01*
X134116554Y-113629539D01*
X134133608Y-113693187D01*
X134166554Y-113750250D01*
X134199500Y-113807314D01*
X134292686Y-113900500D01*
X134406814Y-113966392D01*
X134534108Y-114000500D01*
X134534110Y-114000500D01*
X134665890Y-114000500D01*
X134665892Y-114000500D01*
X134793186Y-113966392D01*
X134907314Y-113900500D01*
X134945995Y-113861819D01*
X135007318Y-113828334D01*
X135033676Y-113825500D01*
X151566324Y-113825500D01*
X151633363Y-113845185D01*
X151654005Y-113861819D01*
X151692686Y-113900500D01*
X151806814Y-113966392D01*
X151934108Y-114000500D01*
X151934110Y-114000500D01*
X152065890Y-114000500D01*
X152065892Y-114000500D01*
X152193186Y-113966392D01*
X152307314Y-113900500D01*
X152400500Y-113807314D01*
X152466392Y-113693186D01*
X152500500Y-113565892D01*
X152500500Y-113434108D01*
X152466392Y-113306814D01*
X152411361Y-113211498D01*
X152409929Y-113205598D01*
X152405955Y-113201011D01*
X152401790Y-113172048D01*
X152394889Y-113143601D01*
X152396875Y-113137862D01*
X152396011Y-113131853D01*
X152408169Y-113105230D01*
X152417741Y-113077574D01*
X152422513Y-113073820D01*
X152425036Y-113068297D01*
X152449659Y-113052472D01*
X152472662Y-113034383D01*
X152480012Y-113032966D01*
X152483814Y-113030523D01*
X152518749Y-113025500D01*
X152766324Y-113025500D01*
X152833363Y-113045185D01*
X152854005Y-113061819D01*
X152892686Y-113100500D01*
X153006814Y-113166392D01*
X153134108Y-113200500D01*
X153134110Y-113200500D01*
X153265890Y-113200500D01*
X153265892Y-113200500D01*
X153393186Y-113166392D01*
X153507314Y-113100500D01*
X153600500Y-113007314D01*
X153666392Y-112893186D01*
X153700500Y-112765892D01*
X153700500Y-112634108D01*
X153666392Y-112506814D01*
X153666390Y-112506810D01*
X153603012Y-112397036D01*
X153601969Y-112395230D01*
X153600500Y-112392686D01*
X153546324Y-112338510D01*
X165124500Y-112338510D01*
X165124500Y-112661489D01*
X165160659Y-112982410D01*
X165160661Y-112982426D01*
X165232527Y-113297294D01*
X165232531Y-113297306D01*
X165339195Y-113602133D01*
X165339201Y-113602147D01*
X165479327Y-113893122D01*
X165479329Y-113893125D01*
X165651159Y-114166591D01*
X165852527Y-114419099D01*
X166080901Y-114647473D01*
X166333409Y-114848841D01*
X166606875Y-115020671D01*
X166897860Y-115160802D01*
X166951350Y-115179519D01*
X167202693Y-115267468D01*
X167202705Y-115267472D01*
X167517577Y-115339339D01*
X167838511Y-115375499D01*
X167838512Y-115375500D01*
X167838515Y-115375500D01*
X168161488Y-115375500D01*
X168161488Y-115375499D01*
X168482423Y-115339339D01*
X168797295Y-115267472D01*
X169102140Y-115160802D01*
X169393125Y-115020671D01*
X169666591Y-114848841D01*
X169919099Y-114647473D01*
X170147473Y-114419099D01*
X170348841Y-114166591D01*
X170520671Y-113893125D01*
X170660802Y-113602140D01*
X170767472Y-113297295D01*
X170839339Y-112982423D01*
X170875500Y-112661485D01*
X170875500Y-112338515D01*
X170839339Y-112017577D01*
X170767472Y-111702705D01*
X170660802Y-111397860D01*
X170520671Y-111106875D01*
X170348841Y-110833409D01*
X170147473Y-110580901D01*
X169919099Y-110352527D01*
X169666591Y-110151159D01*
X169393125Y-109979329D01*
X169393122Y-109979327D01*
X169102147Y-109839201D01*
X169102133Y-109839195D01*
X168797306Y-109732531D01*
X168797294Y-109732527D01*
X168482426Y-109660661D01*
X168482410Y-109660659D01*
X168161489Y-109624500D01*
X168161485Y-109624500D01*
X167838515Y-109624500D01*
X167838510Y-109624500D01*
X167517589Y-109660659D01*
X167517573Y-109660661D01*
X167202705Y-109732527D01*
X167202693Y-109732531D01*
X166897866Y-109839195D01*
X166897852Y-109839201D01*
X166606877Y-109979327D01*
X166333410Y-110151158D01*
X166080901Y-110352526D01*
X165852526Y-110580901D01*
X165651158Y-110833410D01*
X165479327Y-111106877D01*
X165339201Y-111397852D01*
X165339195Y-111397866D01*
X165232531Y-111702693D01*
X165232527Y-111702705D01*
X165160661Y-112017573D01*
X165160659Y-112017589D01*
X165124500Y-112338510D01*
X153546324Y-112338510D01*
X153507314Y-112299500D01*
X153450250Y-112266554D01*
X153393187Y-112233608D01*
X153329539Y-112216554D01*
X153265892Y-112199500D01*
X153134108Y-112199500D01*
X153006812Y-112233608D01*
X152892686Y-112299500D01*
X152892683Y-112299502D01*
X152854005Y-112338181D01*
X152792682Y-112371666D01*
X152766324Y-112374500D01*
X134033676Y-112374500D01*
X133966637Y-112354815D01*
X133945995Y-112338181D01*
X133907316Y-112299502D01*
X133907314Y-112299500D01*
X133850250Y-112266554D01*
X133793187Y-112233608D01*
X133729539Y-112216554D01*
X133665892Y-112199500D01*
X133534108Y-112199500D01*
X133406812Y-112233608D01*
X133292686Y-112299500D01*
X133292683Y-112299502D01*
X133199502Y-112392683D01*
X133199500Y-112392686D01*
X133133608Y-112506812D01*
X133099500Y-112634108D01*
X97300500Y-112634108D01*
X97300500Y-109234108D01*
X114699500Y-109234108D01*
X114699500Y-109365891D01*
X114733608Y-109493187D01*
X114766554Y-109550250D01*
X114799500Y-109607314D01*
X114892686Y-109700500D01*
X115006814Y-109766392D01*
X115134108Y-109800500D01*
X115134110Y-109800500D01*
X115265890Y-109800500D01*
X115265892Y-109800500D01*
X115393186Y-109766392D01*
X115507314Y-109700500D01*
X115545995Y-109661819D01*
X115607318Y-109628334D01*
X115633676Y-109625500D01*
X146566324Y-109625500D01*
X146633363Y-109645185D01*
X146654005Y-109661819D01*
X146692686Y-109700500D01*
X146806814Y-109766392D01*
X146934108Y-109800500D01*
X146934110Y-109800500D01*
X147065890Y-109800500D01*
X147065892Y-109800500D01*
X147193186Y-109766392D01*
X147307314Y-109700500D01*
X147400500Y-109607314D01*
X147466392Y-109493186D01*
X147500500Y-109365892D01*
X147500500Y-109234108D01*
X150499500Y-109234108D01*
X150499500Y-109365891D01*
X150533608Y-109493187D01*
X150566554Y-109550250D01*
X150599500Y-109607314D01*
X150692686Y-109700500D01*
X150806814Y-109766392D01*
X150934108Y-109800500D01*
X150934110Y-109800500D01*
X151065890Y-109800500D01*
X151065892Y-109800500D01*
X151193186Y-109766392D01*
X151307314Y-109700500D01*
X151345995Y-109661819D01*
X151407318Y-109628334D01*
X151433676Y-109625500D01*
X160366324Y-109625500D01*
X160433363Y-109645185D01*
X160454005Y-109661819D01*
X160492686Y-109700500D01*
X160606814Y-109766392D01*
X160734108Y-109800500D01*
X160734110Y-109800500D01*
X160865890Y-109800500D01*
X160865892Y-109800500D01*
X160993186Y-109766392D01*
X161107314Y-109700500D01*
X161200500Y-109607314D01*
X161266392Y-109493186D01*
X161300500Y-109365892D01*
X161300500Y-109234108D01*
X161266392Y-109106814D01*
X161200500Y-108992686D01*
X161107314Y-108899500D01*
X161050250Y-108866554D01*
X160993187Y-108833608D01*
X160929539Y-108816554D01*
X160865892Y-108799500D01*
X160734108Y-108799500D01*
X160606812Y-108833608D01*
X160492686Y-108899500D01*
X160492683Y-108899502D01*
X160454005Y-108938181D01*
X160392682Y-108971666D01*
X160366324Y-108974500D01*
X151433676Y-108974500D01*
X151366637Y-108954815D01*
X151345995Y-108938181D01*
X151307316Y-108899502D01*
X151307314Y-108899500D01*
X151250250Y-108866554D01*
X151193187Y-108833608D01*
X151129539Y-108816554D01*
X151065892Y-108799500D01*
X150934108Y-108799500D01*
X150806812Y-108833608D01*
X150692686Y-108899500D01*
X150692683Y-108899502D01*
X150599502Y-108992683D01*
X150599500Y-108992686D01*
X150533608Y-109106812D01*
X150499500Y-109234108D01*
X147500500Y-109234108D01*
X147466392Y-109106814D01*
X147400500Y-108992686D01*
X147307314Y-108899500D01*
X147250250Y-108866554D01*
X147193187Y-108833608D01*
X147129539Y-108816554D01*
X147065892Y-108799500D01*
X146934108Y-108799500D01*
X146806812Y-108833608D01*
X146692686Y-108899500D01*
X146692683Y-108899502D01*
X146654005Y-108938181D01*
X146592682Y-108971666D01*
X146566324Y-108974500D01*
X115633676Y-108974500D01*
X115566637Y-108954815D01*
X115545995Y-108938181D01*
X115507316Y-108899502D01*
X115507314Y-108899500D01*
X115450250Y-108866554D01*
X115393187Y-108833608D01*
X115329539Y-108816554D01*
X115265892Y-108799500D01*
X115134108Y-108799500D01*
X115006812Y-108833608D01*
X114892686Y-108899500D01*
X114892683Y-108899502D01*
X114799502Y-108992683D01*
X114799500Y-108992686D01*
X114733608Y-109106812D01*
X114699500Y-109234108D01*
X97300500Y-109234108D01*
X97300500Y-103999999D01*
X98300000Y-103999999D01*
X98342271Y-104429196D01*
X98467466Y-104841907D01*
X98670762Y-105222248D01*
X98670766Y-105222255D01*
X98944364Y-105555634D01*
X99277743Y-105829232D01*
X99277750Y-105829236D01*
X99658091Y-106032532D01*
X99658093Y-106032532D01*
X99658096Y-106032534D01*
X100070801Y-106157727D01*
X100070800Y-106157727D01*
X100113073Y-106161890D01*
X100500000Y-106200000D01*
X100929198Y-106157727D01*
X101341903Y-106032534D01*
X101722254Y-105829233D01*
X102055634Y-105555634D01*
X102329233Y-105222254D01*
X102532534Y-104841903D01*
X102657727Y-104429198D01*
X102664054Y-104364953D01*
X102676942Y-104234108D01*
X128099500Y-104234108D01*
X128099500Y-104365892D01*
X128103152Y-104379520D01*
X128133608Y-104493187D01*
X128166554Y-104550250D01*
X128199500Y-104607314D01*
X128292686Y-104700500D01*
X128391521Y-104757563D01*
X128406810Y-104766390D01*
X128406814Y-104766392D01*
X128534108Y-104800500D01*
X128534110Y-104800500D01*
X128665890Y-104800500D01*
X128665892Y-104800500D01*
X128793186Y-104766392D01*
X128907314Y-104700500D01*
X128945995Y-104661819D01*
X129007318Y-104628334D01*
X129033676Y-104625500D01*
X143966324Y-104625500D01*
X144033363Y-104645185D01*
X144054005Y-104661819D01*
X144092686Y-104700500D01*
X144191521Y-104757563D01*
X144206810Y-104766390D01*
X144206814Y-104766392D01*
X144334108Y-104800500D01*
X144334110Y-104800500D01*
X144465890Y-104800500D01*
X144465892Y-104800500D01*
X144593186Y-104766392D01*
X144707314Y-104700500D01*
X144800500Y-104607314D01*
X144866392Y-104493186D01*
X144900500Y-104365892D01*
X144900500Y-104234108D01*
X148099500Y-104234108D01*
X148099500Y-104365892D01*
X148103152Y-104379520D01*
X148133608Y-104493187D01*
X148166554Y-104550250D01*
X148199500Y-104607314D01*
X148292686Y-104700500D01*
X148391521Y-104757563D01*
X148406810Y-104766390D01*
X148406814Y-104766392D01*
X148534108Y-104800500D01*
X148534110Y-104800500D01*
X148665890Y-104800500D01*
X148665892Y-104800500D01*
X148793186Y-104766392D01*
X148878540Y-104717113D01*
X148940540Y-104700500D01*
X152859460Y-104700500D01*
X152867636Y-104702126D01*
X152872715Y-104701210D01*
X152887845Y-104706146D01*
X152906912Y-104709939D01*
X152914424Y-104713050D01*
X153006814Y-104766392D01*
X153109861Y-104794002D01*
X153117370Y-104797113D01*
X153133357Y-104809996D01*
X153157599Y-104823992D01*
X153279519Y-104945911D01*
X153279519Y-104945912D01*
X153472449Y-105138841D01*
X153472452Y-105138845D01*
X153672449Y-105338841D01*
X153672452Y-105338845D01*
X153679519Y-105345912D01*
X153679520Y-105345913D01*
X153879519Y-105545911D01*
X153879520Y-105545913D01*
X153963182Y-105629574D01*
X153973037Y-105647623D01*
X153996666Y-105690897D01*
X153999500Y-105717255D01*
X153999500Y-105959460D01*
X153982887Y-106021460D01*
X153933609Y-106106810D01*
X153933609Y-106106811D01*
X153899500Y-106234108D01*
X153899500Y-106365891D01*
X153933608Y-106493187D01*
X153966554Y-106550250D01*
X153999500Y-106607314D01*
X154092686Y-106700500D01*
X154191521Y-106757563D01*
X154206810Y-106766390D01*
X154206814Y-106766392D01*
X154334108Y-106800500D01*
X154334110Y-106800500D01*
X154465890Y-106800500D01*
X154465892Y-106800500D01*
X154593186Y-106766392D01*
X154678540Y-106717113D01*
X154740540Y-106700500D01*
X165859460Y-106700500D01*
X165921460Y-106717113D01*
X166006814Y-106766392D01*
X166134108Y-106800500D01*
X166134110Y-106800500D01*
X166265890Y-106800500D01*
X166265892Y-106800500D01*
X166393186Y-106766392D01*
X166507314Y-106700500D01*
X166600500Y-106607314D01*
X166666392Y-106493186D01*
X166700500Y-106365892D01*
X166700500Y-106234108D01*
X166666392Y-106106814D01*
X166600500Y-105992686D01*
X166507314Y-105899500D01*
X166450250Y-105866554D01*
X166393187Y-105833608D01*
X166306702Y-105810435D01*
X166265892Y-105799500D01*
X166134108Y-105799500D01*
X166006814Y-105833608D01*
X166006813Y-105833608D01*
X166006811Y-105833609D01*
X166006810Y-105833609D01*
X165921460Y-105882887D01*
X165859460Y-105899500D01*
X154924500Y-105899500D01*
X154915814Y-105896949D01*
X154906853Y-105898238D01*
X154882812Y-105887259D01*
X154857461Y-105879815D01*
X154851533Y-105872974D01*
X154843297Y-105869213D01*
X154829007Y-105846978D01*
X154811706Y-105827011D01*
X154809418Y-105816496D01*
X154805523Y-105810435D01*
X154800500Y-105775500D01*
X154800500Y-105562729D01*
X154800501Y-105562716D01*
X154800501Y-105447274D01*
X154800501Y-105447273D01*
X154773207Y-105345413D01*
X154747277Y-105300501D01*
X154720480Y-105254087D01*
X154645913Y-105179520D01*
X154645911Y-105179519D01*
X154445913Y-104979520D01*
X154445912Y-104979519D01*
X154438848Y-104972455D01*
X154438841Y-104972449D01*
X154238848Y-104772455D01*
X154238841Y-104772449D01*
X154038848Y-104572455D01*
X154038841Y-104572449D01*
X153838847Y-104372454D01*
X153838844Y-104372452D01*
X153723992Y-104257599D01*
X153691899Y-104202011D01*
X153666392Y-104106814D01*
X153604722Y-103999999D01*
X175300000Y-103999999D01*
X175342271Y-104429196D01*
X175467466Y-104841907D01*
X175670762Y-105222248D01*
X175670766Y-105222255D01*
X175944364Y-105555634D01*
X176277743Y-105829232D01*
X176277750Y-105829236D01*
X176658091Y-106032532D01*
X176658093Y-106032532D01*
X176658096Y-106032534D01*
X177070801Y-106157727D01*
X177070800Y-106157727D01*
X177113073Y-106161890D01*
X177500000Y-106200000D01*
X177929198Y-106157727D01*
X178341903Y-106032534D01*
X178722254Y-105829233D01*
X179055634Y-105555634D01*
X179329233Y-105222254D01*
X179532534Y-104841903D01*
X179657727Y-104429198D01*
X179700000Y-104000000D01*
X179657727Y-103570801D01*
X179532534Y-103158096D01*
X179532532Y-103158093D01*
X179532532Y-103158091D01*
X179329236Y-102777750D01*
X179329232Y-102777743D01*
X179055634Y-102444364D01*
X178722255Y-102170766D01*
X178722248Y-102170762D01*
X178341907Y-101967466D01*
X177929196Y-101842271D01*
X177500000Y-101800000D01*
X177070802Y-101842271D01*
X176658091Y-101967466D01*
X176277750Y-102170762D01*
X176277743Y-102170766D01*
X175944364Y-102444364D01*
X175670766Y-102777743D01*
X175670762Y-102777750D01*
X175467466Y-103158091D01*
X175342271Y-103570802D01*
X175300000Y-103999999D01*
X153604722Y-103999999D01*
X153600500Y-103992686D01*
X153507314Y-103899500D01*
X153450250Y-103866554D01*
X153393187Y-103833608D01*
X153329539Y-103816554D01*
X153265892Y-103799500D01*
X153134108Y-103799500D01*
X153006814Y-103833608D01*
X153006813Y-103833608D01*
X153006811Y-103833609D01*
X153006810Y-103833609D01*
X152921460Y-103882887D01*
X152859460Y-103899500D01*
X148940540Y-103899500D01*
X148878540Y-103882887D01*
X148793188Y-103833609D01*
X148793187Y-103833608D01*
X148793186Y-103833608D01*
X148665892Y-103799500D01*
X148534108Y-103799500D01*
X148406812Y-103833608D01*
X148292686Y-103899500D01*
X148292683Y-103899502D01*
X148199502Y-103992683D01*
X148199500Y-103992686D01*
X148133608Y-104106812D01*
X148108100Y-104202011D01*
X148099500Y-104234108D01*
X144900500Y-104234108D01*
X144866392Y-104106814D01*
X144800500Y-103992686D01*
X144707314Y-103899500D01*
X144650250Y-103866554D01*
X144593187Y-103833608D01*
X144529539Y-103816554D01*
X144465892Y-103799500D01*
X144334108Y-103799500D01*
X144206812Y-103833608D01*
X144092686Y-103899500D01*
X144092683Y-103899502D01*
X144054005Y-103938181D01*
X143992682Y-103971666D01*
X143966324Y-103974500D01*
X129033676Y-103974500D01*
X128966637Y-103954815D01*
X128945995Y-103938181D01*
X128907316Y-103899502D01*
X128907314Y-103899500D01*
X128850250Y-103866554D01*
X128793187Y-103833608D01*
X128729539Y-103816554D01*
X128665892Y-103799500D01*
X128534108Y-103799500D01*
X128406812Y-103833608D01*
X128292686Y-103899500D01*
X128292683Y-103899502D01*
X128199502Y-103992683D01*
X128199500Y-103992686D01*
X128133608Y-104106812D01*
X128108100Y-104202011D01*
X128099500Y-104234108D01*
X102676942Y-104234108D01*
X102678940Y-104213827D01*
X102685608Y-104146116D01*
X102700000Y-104000000D01*
X102657727Y-103570801D01*
X102532534Y-103158096D01*
X102532532Y-103158093D01*
X102532532Y-103158091D01*
X102329236Y-102777750D01*
X102329232Y-102777743D01*
X102055634Y-102444364D01*
X101722255Y-102170766D01*
X101722248Y-102170762D01*
X101341907Y-101967466D01*
X100929196Y-101842271D01*
X100500000Y-101800000D01*
X100070802Y-101842271D01*
X99658091Y-101967466D01*
X99277750Y-102170762D01*
X99277743Y-102170766D01*
X98944364Y-102444364D01*
X98670766Y-102777743D01*
X98670762Y-102777750D01*
X98467466Y-103158091D01*
X98342271Y-103570802D01*
X98300000Y-103999999D01*
X97300500Y-103999999D01*
X97300500Y-101516660D01*
X97300882Y-101506939D01*
X97305446Y-101448904D01*
X97309247Y-101400562D01*
X97312300Y-101381300D01*
X97333396Y-101293583D01*
X97339374Y-101275183D01*
X97373866Y-101191829D01*
X97382709Y-101174469D01*
X97429760Y-101097695D01*
X97441181Y-101081975D01*
X97499722Y-101013440D01*
X97513440Y-100999722D01*
X97581975Y-100941181D01*
X97597695Y-100929760D01*
X97674469Y-100882709D01*
X97691829Y-100873866D01*
X97775183Y-100839374D01*
X97793583Y-100833396D01*
X97881300Y-100812300D01*
X97900562Y-100809247D01*
X97982366Y-100802814D01*
X98006940Y-100800882D01*
X98016661Y-100800500D01*
X179983292Y-100800500D01*
X179993037Y-100800883D01*
G37*
%TD.AperFunction*%
%TD*%
M02*
