M48
; DRILL file {KiCad 9.0.9-9.0.9~ubuntu24.04.1} date 2026-09-27T20:43:41+0000
; FORMAT={-:-/ absolute / metric / decimal}
; #@! TF.CreationDate,2026-09-27T20:43:41+00:00
; #@! TF.GenerationSoftware,Kicad,Pcbnew,9.0.9-9.0.9~ubuntu24.04.1
; #@! TF.FileFunction,Plated,1,2,PTH
FMAT,2
METRIC
; #@! TA.AperFunction,Plated,PTH,ViaDrill
T1C0.300
; #@! TA.AperFunction,Plated,PTH,ComponentDrill
T2C0.700
; #@! TA.AperFunction,Plated,PTH,ComponentDrill
T3C1.300
%
G90
G05
T1
X115.2Y-121.5
X116.6Y-127.7
X120.6Y-115.9
X121.2Y-124.1
X126.0Y-107.9
X134.2Y-104.1
X135.2Y-102.1
X136.6Y-127.7
X140.4Y-109.5
X141.2Y-124.1
X141.4Y-104.1
X141.4Y-110.5
X141.4Y-112.3
X142.4Y-111.5
X142.4Y-114.9
X145.2Y-104.1
X145.2Y-108.3
X145.4Y-110.5
X146.4Y-111.7
X148.4Y-115.9
X149.6Y-111.7
X149.8Y-110.5
X151.0Y-102.1
X152.0Y-102.5
X152.6Y-113.1
X153.6Y-106.7
X155.8Y-108.9
X156.6Y-119.9
X160.2Y-109.3
X161.2Y-124.1
X169.2Y-102.5
X171.4Y-113.1
X173.6Y-111.3
X175.2Y-134.7
X176.6Y-109.3
X177.4Y-117.5
X177.6Y-113.1
T2
X130.64Y-104.81
X130.64Y-106.08
X130.64Y-107.35
X130.64Y-108.62
X130.64Y-109.89
X130.64Y-111.16
X131.91Y-104.81
X131.91Y-106.08
X131.91Y-107.35
X131.91Y-108.62
X131.91Y-109.89
X131.91Y-111.16
T3
X105.6Y-126.2
X112.6Y-127.25
X125.6Y-126.2
X132.6Y-127.25
X145.6Y-126.2
X152.6Y-127.25
X163.6Y-117.2
X163.6Y-135.2
X170.6Y-118.25
X170.6Y-136.25
M30
