M48
; DRILL file {KiCad 9.0.9-9.0.9~ubuntu24.04.1} date 2026-09-29T03:34:01+0000
; FORMAT={-:-/ absolute / metric / decimal}
; #@! TF.CreationDate,2026-09-29T03:34:01+00:00
; #@! TF.GenerationSoftware,Kicad,Pcbnew,9.0.9-9.0.9~ubuntu24.04.1
; #@! TF.FileFunction,Plated,1,2,PTH
FMAT,2
METRIC
; #@! TA.AperFunction,Plated,PTH,ViaDrill
T1C0.300
; #@! TA.AperFunction,Plated,PTH,ComponentDrill
T2C0.700
; #@! TA.AperFunction,Plated,PTH,ComponentDrill
T3C1.300
%
G90
G05
T1
X115.0Y-119.3
X118.6Y-125.5
X125.6Y-107.1
X125.8Y-114.3
X128.6Y-108.5
X129.2Y-101.5
X136.6Y-113.3
X138.6Y-125.5
X140.6Y-109.5
X140.8Y-116.9
X141.6Y-110.5
X141.6Y-113.3
X142.2Y-102.3
X142.6Y-112.3
X143.2Y-109.5
X144.2Y-108.5
X144.2Y-113.3
X145.4Y-115.5
X146.0Y-110.5
X147.2Y-102.3
X147.6Y-115.7
X148.4Y-110.7
X152.0Y-107.5
X153.6Y-110.5
X153.6Y-115.1
X154.4Y-107.5
X155.0Y-118.7
X156.6Y-108.5
X157.6Y-107.5
X158.6Y-125.5
X159.2Y-116.9
X159.4Y-109.5
X173.0Y-110.3
X174.0Y-125.3
X176.0Y-108.5
X176.6Y-116.5
X176.8Y-134.7
X177.4Y-107.5
T2
X130.64Y-104.81
X130.64Y-106.08
X130.64Y-107.35
X130.64Y-108.62
X130.64Y-109.89
X130.64Y-111.16
X131.91Y-104.81
X131.91Y-106.08
X131.91Y-107.35
X131.91Y-108.62
X131.91Y-109.89
X131.91Y-111.16
T3
X105.6Y-126.2
X112.6Y-127.25
X125.6Y-126.2
X132.6Y-127.25
X145.6Y-126.2
X152.6Y-127.25
X163.6Y-117.2
X163.6Y-135.2
X170.6Y-118.25
X170.6Y-136.25
M30
