%TF.GenerationSoftware,KiCad,Pcbnew,9.0.9-9.0.9~ubuntu24.04.1*%
%TF.CreationDate,2026-10-05T19:55:42+00:00*%
%TF.ProjectId,key-board-lh,6b65792d-626f-4617-9264-2d6c682e6b69,A*%
%TF.SameCoordinates,Original*%
%TF.FileFunction,Legend,Top*%
%TF.FilePolarity,Positive*%
%FSLAX46Y46*%
G04 Gerber Fmt 4.6, Leading zero omitted, Abs format (unit mm)*
G04 Created by KiCad (PCBNEW 9.0.9-9.0.9~ubuntu24.04.1) date 2026-10-05 19:55:42*
%MOMM*%
%LPD*%
G01*
G04 APERTURE LIST*
%ADD10C,0.180000*%
%ADD11C,0.390000*%
G04 APERTURE END LIST*
D10*
X98350000Y-122100000D02*
X97150000Y-121500000D01*
X98350000Y-120900000D01*
X98350000Y-122100000D01*
G36*
X98350000Y-122100000D02*
G01*
X97150000Y-121500000D01*
X98350000Y-120900000D01*
X98350000Y-122100000D01*
G37*
X135239999Y-107985000D02*
X134039999Y-108585000D01*
X134039999Y-107385000D01*
X135239999Y-107985000D01*
G36*
X135239999Y-107985000D02*
G01*
X134039999Y-108585000D01*
X134039999Y-107385000D01*
X135239999Y-107985000D01*
G37*
D11*
X129605000Y-111160000D02*
G75*
G02*
X129215000Y-111160000I-195000J0D01*
G01*
X129215000Y-111160000D02*
G75*
G02*
X129605000Y-111160000I195000J0D01*
G01*
D10*
X104261278Y-135153259D02*
X104499373Y-136153259D01*
X104499373Y-136153259D02*
X104689849Y-135438973D01*
X104689849Y-135438973D02*
X104880325Y-136153259D01*
X104880325Y-136153259D02*
X105118421Y-135153259D01*
X105689849Y-135153259D02*
X105880325Y-135153259D01*
X105880325Y-135153259D02*
X105975563Y-135200878D01*
X105975563Y-135200878D02*
X106070801Y-135296116D01*
X106070801Y-135296116D02*
X106118420Y-135486592D01*
X106118420Y-135486592D02*
X106118420Y-135819925D01*
X106118420Y-135819925D02*
X106070801Y-136010401D01*
X106070801Y-136010401D02*
X105975563Y-136105640D01*
X105975563Y-136105640D02*
X105880325Y-136153259D01*
X105880325Y-136153259D02*
X105689849Y-136153259D01*
X105689849Y-136153259D02*
X105594611Y-136105640D01*
X105594611Y-136105640D02*
X105499373Y-136010401D01*
X105499373Y-136010401D02*
X105451754Y-135819925D01*
X105451754Y-135819925D02*
X105451754Y-135486592D01*
X105451754Y-135486592D02*
X105499373Y-135296116D01*
X105499373Y-135296116D02*
X105594611Y-135200878D01*
X105594611Y-135200878D02*
X105689849Y-135153259D01*
X106737468Y-135153259D02*
X106927944Y-135153259D01*
X106927944Y-135153259D02*
X107023182Y-135200878D01*
X107023182Y-135200878D02*
X107118420Y-135296116D01*
X107118420Y-135296116D02*
X107166039Y-135486592D01*
X107166039Y-135486592D02*
X107166039Y-135819925D01*
X107166039Y-135819925D02*
X107118420Y-136010401D01*
X107118420Y-136010401D02*
X107023182Y-136105640D01*
X107023182Y-136105640D02*
X106927944Y-136153259D01*
X106927944Y-136153259D02*
X106737468Y-136153259D01*
X106737468Y-136153259D02*
X106642230Y-136105640D01*
X106642230Y-136105640D02*
X106546992Y-136010401D01*
X106546992Y-136010401D02*
X106499373Y-135819925D01*
X106499373Y-135819925D02*
X106499373Y-135486592D01*
X106499373Y-135486592D02*
X106546992Y-135296116D01*
X106546992Y-135296116D02*
X106642230Y-135200878D01*
X106642230Y-135200878D02*
X106737468Y-135153259D01*
X107594611Y-136153259D02*
X107594611Y-135153259D01*
X107594611Y-135153259D02*
X107832706Y-135153259D01*
X107832706Y-135153259D02*
X107975563Y-135200878D01*
X107975563Y-135200878D02*
X108070801Y-135296116D01*
X108070801Y-135296116D02*
X108118420Y-135391354D01*
X108118420Y-135391354D02*
X108166039Y-135581830D01*
X108166039Y-135581830D02*
X108166039Y-135724687D01*
X108166039Y-135724687D02*
X108118420Y-135915163D01*
X108118420Y-135915163D02*
X108070801Y-136010401D01*
X108070801Y-136010401D02*
X107975563Y-136105640D01*
X107975563Y-136105640D02*
X107832706Y-136153259D01*
X107832706Y-136153259D02*
X107594611Y-136153259D01*
X108785087Y-135677068D02*
X108785087Y-136153259D01*
X108451754Y-135153259D02*
X108785087Y-135677068D01*
X108785087Y-135677068D02*
X109118420Y-135153259D01*
X110213659Y-136153259D02*
X110213659Y-135153259D01*
X110308897Y-135772306D02*
X110594611Y-136153259D01*
X110594611Y-135486592D02*
X110213659Y-135867544D01*
X111404135Y-136105640D02*
X111308897Y-136153259D01*
X111308897Y-136153259D02*
X111118421Y-136153259D01*
X111118421Y-136153259D02*
X111023183Y-136105640D01*
X111023183Y-136105640D02*
X110975564Y-136010401D01*
X110975564Y-136010401D02*
X110975564Y-135629449D01*
X110975564Y-135629449D02*
X111023183Y-135534211D01*
X111023183Y-135534211D02*
X111118421Y-135486592D01*
X111118421Y-135486592D02*
X111308897Y-135486592D01*
X111308897Y-135486592D02*
X111404135Y-135534211D01*
X111404135Y-135534211D02*
X111451754Y-135629449D01*
X111451754Y-135629449D02*
X111451754Y-135724687D01*
X111451754Y-135724687D02*
X110975564Y-135819925D01*
X111785088Y-135486592D02*
X112023183Y-136153259D01*
X112261278Y-135486592D02*
X112023183Y-136153259D01*
X112023183Y-136153259D02*
X111927945Y-136391354D01*
X111927945Y-136391354D02*
X111880326Y-136438973D01*
X111880326Y-136438973D02*
X111785088Y-136486592D01*
X113404136Y-136153259D02*
X113404136Y-135153259D01*
X113404136Y-135534211D02*
X113499374Y-135486592D01*
X113499374Y-135486592D02*
X113689850Y-135486592D01*
X113689850Y-135486592D02*
X113785088Y-135534211D01*
X113785088Y-135534211D02*
X113832707Y-135581830D01*
X113832707Y-135581830D02*
X113880326Y-135677068D01*
X113880326Y-135677068D02*
X113880326Y-135962782D01*
X113880326Y-135962782D02*
X113832707Y-136058020D01*
X113832707Y-136058020D02*
X113785088Y-136105640D01*
X113785088Y-136105640D02*
X113689850Y-136153259D01*
X113689850Y-136153259D02*
X113499374Y-136153259D01*
X113499374Y-136153259D02*
X113404136Y-136105640D01*
X114451755Y-136153259D02*
X114356517Y-136105640D01*
X114356517Y-136105640D02*
X114308898Y-136058020D01*
X114308898Y-136058020D02*
X114261279Y-135962782D01*
X114261279Y-135962782D02*
X114261279Y-135677068D01*
X114261279Y-135677068D02*
X114308898Y-135581830D01*
X114308898Y-135581830D02*
X114356517Y-135534211D01*
X114356517Y-135534211D02*
X114451755Y-135486592D01*
X114451755Y-135486592D02*
X114594612Y-135486592D01*
X114594612Y-135486592D02*
X114689850Y-135534211D01*
X114689850Y-135534211D02*
X114737469Y-135581830D01*
X114737469Y-135581830D02*
X114785088Y-135677068D01*
X114785088Y-135677068D02*
X114785088Y-135962782D01*
X114785088Y-135962782D02*
X114737469Y-136058020D01*
X114737469Y-136058020D02*
X114689850Y-136105640D01*
X114689850Y-136105640D02*
X114594612Y-136153259D01*
X114594612Y-136153259D02*
X114451755Y-136153259D01*
X115642231Y-136153259D02*
X115642231Y-135629449D01*
X115642231Y-135629449D02*
X115594612Y-135534211D01*
X115594612Y-135534211D02*
X115499374Y-135486592D01*
X115499374Y-135486592D02*
X115308898Y-135486592D01*
X115308898Y-135486592D02*
X115213660Y-135534211D01*
X115642231Y-136105640D02*
X115546993Y-136153259D01*
X115546993Y-136153259D02*
X115308898Y-136153259D01*
X115308898Y-136153259D02*
X115213660Y-136105640D01*
X115213660Y-136105640D02*
X115166041Y-136010401D01*
X115166041Y-136010401D02*
X115166041Y-135915163D01*
X115166041Y-135915163D02*
X115213660Y-135819925D01*
X115213660Y-135819925D02*
X115308898Y-135772306D01*
X115308898Y-135772306D02*
X115546993Y-135772306D01*
X115546993Y-135772306D02*
X115642231Y-135724687D01*
X116118422Y-136153259D02*
X116118422Y-135486592D01*
X116118422Y-135677068D02*
X116166041Y-135581830D01*
X116166041Y-135581830D02*
X116213660Y-135534211D01*
X116213660Y-135534211D02*
X116308898Y-135486592D01*
X116308898Y-135486592D02*
X116404136Y-135486592D01*
X117166041Y-136153259D02*
X117166041Y-135153259D01*
X117166041Y-136105640D02*
X117070803Y-136153259D01*
X117070803Y-136153259D02*
X116880327Y-136153259D01*
X116880327Y-136153259D02*
X116785089Y-136105640D01*
X116785089Y-136105640D02*
X116737470Y-136058020D01*
X116737470Y-136058020D02*
X116689851Y-135962782D01*
X116689851Y-135962782D02*
X116689851Y-135677068D01*
X116689851Y-135677068D02*
X116737470Y-135581830D01*
X116737470Y-135581830D02*
X116785089Y-135534211D01*
X116785089Y-135534211D02*
X116880327Y-135486592D01*
X116880327Y-135486592D02*
X117070803Y-135486592D01*
X117070803Y-135486592D02*
X117166041Y-135534211D01*
X118880327Y-136153259D02*
X118404137Y-136153259D01*
X118404137Y-136153259D02*
X118404137Y-135153259D01*
X119213661Y-136153259D02*
X119213661Y-135153259D01*
X119213661Y-135629449D02*
X119785089Y-135629449D01*
X119785089Y-136153259D02*
X119785089Y-135153259D01*
X104356516Y-137953259D02*
X104356516Y-137286592D01*
X104356516Y-137477068D02*
X104404135Y-137381830D01*
X104404135Y-137381830D02*
X104451754Y-137334211D01*
X104451754Y-137334211D02*
X104546992Y-137286592D01*
X104546992Y-137286592D02*
X104642230Y-137286592D01*
X105356516Y-137905640D02*
X105261278Y-137953259D01*
X105261278Y-137953259D02*
X105070802Y-137953259D01*
X105070802Y-137953259D02*
X104975564Y-137905640D01*
X104975564Y-137905640D02*
X104927945Y-137810401D01*
X104927945Y-137810401D02*
X104927945Y-137429449D01*
X104927945Y-137429449D02*
X104975564Y-137334211D01*
X104975564Y-137334211D02*
X105070802Y-137286592D01*
X105070802Y-137286592D02*
X105261278Y-137286592D01*
X105261278Y-137286592D02*
X105356516Y-137334211D01*
X105356516Y-137334211D02*
X105404135Y-137429449D01*
X105404135Y-137429449D02*
X105404135Y-137524687D01*
X105404135Y-137524687D02*
X104927945Y-137619925D01*
X105737469Y-137286592D02*
X105975564Y-137953259D01*
X105975564Y-137953259D02*
X106213659Y-137286592D01*
X107308898Y-137667544D02*
X107785088Y-137667544D01*
X107213660Y-137953259D02*
X107546993Y-136953259D01*
X107546993Y-136953259D02*
X107880326Y-137953259D01*
X109689851Y-137048497D02*
X109737470Y-137000878D01*
X109737470Y-137000878D02*
X109832708Y-136953259D01*
X109832708Y-136953259D02*
X110070803Y-136953259D01*
X110070803Y-136953259D02*
X110166041Y-137000878D01*
X110166041Y-137000878D02*
X110213660Y-137048497D01*
X110213660Y-137048497D02*
X110261279Y-137143735D01*
X110261279Y-137143735D02*
X110261279Y-137238973D01*
X110261279Y-137238973D02*
X110213660Y-137381830D01*
X110213660Y-137381830D02*
X109642232Y-137953259D01*
X109642232Y-137953259D02*
X110261279Y-137953259D01*
X110880327Y-136953259D02*
X110975565Y-136953259D01*
X110975565Y-136953259D02*
X111070803Y-137000878D01*
X111070803Y-137000878D02*
X111118422Y-137048497D01*
X111118422Y-137048497D02*
X111166041Y-137143735D01*
X111166041Y-137143735D02*
X111213660Y-137334211D01*
X111213660Y-137334211D02*
X111213660Y-137572306D01*
X111213660Y-137572306D02*
X111166041Y-137762782D01*
X111166041Y-137762782D02*
X111118422Y-137858020D01*
X111118422Y-137858020D02*
X111070803Y-137905640D01*
X111070803Y-137905640D02*
X110975565Y-137953259D01*
X110975565Y-137953259D02*
X110880327Y-137953259D01*
X110880327Y-137953259D02*
X110785089Y-137905640D01*
X110785089Y-137905640D02*
X110737470Y-137858020D01*
X110737470Y-137858020D02*
X110689851Y-137762782D01*
X110689851Y-137762782D02*
X110642232Y-137572306D01*
X110642232Y-137572306D02*
X110642232Y-137334211D01*
X110642232Y-137334211D02*
X110689851Y-137143735D01*
X110689851Y-137143735D02*
X110737470Y-137048497D01*
X110737470Y-137048497D02*
X110785089Y-137000878D01*
X110785089Y-137000878D02*
X110880327Y-136953259D01*
X111594613Y-137048497D02*
X111642232Y-137000878D01*
X111642232Y-137000878D02*
X111737470Y-136953259D01*
X111737470Y-136953259D02*
X111975565Y-136953259D01*
X111975565Y-136953259D02*
X112070803Y-137000878D01*
X112070803Y-137000878D02*
X112118422Y-137048497D01*
X112118422Y-137048497D02*
X112166041Y-137143735D01*
X112166041Y-137143735D02*
X112166041Y-137238973D01*
X112166041Y-137238973D02*
X112118422Y-137381830D01*
X112118422Y-137381830D02*
X111546994Y-137953259D01*
X111546994Y-137953259D02*
X112166041Y-137953259D01*
X113023184Y-136953259D02*
X112832708Y-136953259D01*
X112832708Y-136953259D02*
X112737470Y-137000878D01*
X112737470Y-137000878D02*
X112689851Y-137048497D01*
X112689851Y-137048497D02*
X112594613Y-137191354D01*
X112594613Y-137191354D02*
X112546994Y-137381830D01*
X112546994Y-137381830D02*
X112546994Y-137762782D01*
X112546994Y-137762782D02*
X112594613Y-137858020D01*
X112594613Y-137858020D02*
X112642232Y-137905640D01*
X112642232Y-137905640D02*
X112737470Y-137953259D01*
X112737470Y-137953259D02*
X112927946Y-137953259D01*
X112927946Y-137953259D02*
X113023184Y-137905640D01*
X113023184Y-137905640D02*
X113070803Y-137858020D01*
X113070803Y-137858020D02*
X113118422Y-137762782D01*
X113118422Y-137762782D02*
X113118422Y-137524687D01*
X113118422Y-137524687D02*
X113070803Y-137429449D01*
X113070803Y-137429449D02*
X113023184Y-137381830D01*
X113023184Y-137381830D02*
X112927946Y-137334211D01*
X112927946Y-137334211D02*
X112737470Y-137334211D01*
X112737470Y-137334211D02*
X112642232Y-137381830D01*
X112642232Y-137381830D02*
X112594613Y-137429449D01*
X112594613Y-137429449D02*
X112546994Y-137524687D01*
X113546994Y-137572306D02*
X114308899Y-137572306D01*
X115308898Y-137953259D02*
X114737470Y-137953259D01*
X115023184Y-137953259D02*
X115023184Y-136953259D01*
X115023184Y-136953259D02*
X114927946Y-137096116D01*
X114927946Y-137096116D02*
X114832708Y-137191354D01*
X114832708Y-137191354D02*
X114737470Y-137238973D01*
X115927946Y-136953259D02*
X116023184Y-136953259D01*
X116023184Y-136953259D02*
X116118422Y-137000878D01*
X116118422Y-137000878D02*
X116166041Y-137048497D01*
X116166041Y-137048497D02*
X116213660Y-137143735D01*
X116213660Y-137143735D02*
X116261279Y-137334211D01*
X116261279Y-137334211D02*
X116261279Y-137572306D01*
X116261279Y-137572306D02*
X116213660Y-137762782D01*
X116213660Y-137762782D02*
X116166041Y-137858020D01*
X116166041Y-137858020D02*
X116118422Y-137905640D01*
X116118422Y-137905640D02*
X116023184Y-137953259D01*
X116023184Y-137953259D02*
X115927946Y-137953259D01*
X115927946Y-137953259D02*
X115832708Y-137905640D01*
X115832708Y-137905640D02*
X115785089Y-137858020D01*
X115785089Y-137858020D02*
X115737470Y-137762782D01*
X115737470Y-137762782D02*
X115689851Y-137572306D01*
X115689851Y-137572306D02*
X115689851Y-137334211D01*
X115689851Y-137334211D02*
X115737470Y-137143735D01*
X115737470Y-137143735D02*
X115785089Y-137048497D01*
X115785089Y-137048497D02*
X115832708Y-137000878D01*
X115832708Y-137000878D02*
X115927946Y-136953259D01*
X116689851Y-137572306D02*
X117451756Y-137572306D01*
X118118422Y-136953259D02*
X118213660Y-136953259D01*
X118213660Y-136953259D02*
X118308898Y-137000878D01*
X118308898Y-137000878D02*
X118356517Y-137048497D01*
X118356517Y-137048497D02*
X118404136Y-137143735D01*
X118404136Y-137143735D02*
X118451755Y-137334211D01*
X118451755Y-137334211D02*
X118451755Y-137572306D01*
X118451755Y-137572306D02*
X118404136Y-137762782D01*
X118404136Y-137762782D02*
X118356517Y-137858020D01*
X118356517Y-137858020D02*
X118308898Y-137905640D01*
X118308898Y-137905640D02*
X118213660Y-137953259D01*
X118213660Y-137953259D02*
X118118422Y-137953259D01*
X118118422Y-137953259D02*
X118023184Y-137905640D01*
X118023184Y-137905640D02*
X117975565Y-137858020D01*
X117975565Y-137858020D02*
X117927946Y-137762782D01*
X117927946Y-137762782D02*
X117880327Y-137572306D01*
X117880327Y-137572306D02*
X117880327Y-137334211D01*
X117880327Y-137334211D02*
X117927946Y-137143735D01*
X117927946Y-137143735D02*
X117975565Y-137048497D01*
X117975565Y-137048497D02*
X118023184Y-137000878D01*
X118023184Y-137000878D02*
X118118422Y-136953259D01*
X118785089Y-136953259D02*
X119404136Y-136953259D01*
X119404136Y-136953259D02*
X119070803Y-137334211D01*
X119070803Y-137334211D02*
X119213660Y-137334211D01*
X119213660Y-137334211D02*
X119308898Y-137381830D01*
X119308898Y-137381830D02*
X119356517Y-137429449D01*
X119356517Y-137429449D02*
X119404136Y-137524687D01*
X119404136Y-137524687D02*
X119404136Y-137762782D01*
X119404136Y-137762782D02*
X119356517Y-137858020D01*
X119356517Y-137858020D02*
X119308898Y-137905640D01*
X119308898Y-137905640D02*
X119213660Y-137953259D01*
X119213660Y-137953259D02*
X118927946Y-137953259D01*
X118927946Y-137953259D02*
X118832708Y-137905640D01*
X118832708Y-137905640D02*
X118785089Y-137858020D01*
X106880952Y-113360640D02*
X107023809Y-113408259D01*
X107023809Y-113408259D02*
X107261904Y-113408259D01*
X107261904Y-113408259D02*
X107357142Y-113360640D01*
X107357142Y-113360640D02*
X107404761Y-113313020D01*
X107404761Y-113313020D02*
X107452380Y-113217782D01*
X107452380Y-113217782D02*
X107452380Y-113122544D01*
X107452380Y-113122544D02*
X107404761Y-113027306D01*
X107404761Y-113027306D02*
X107357142Y-112979687D01*
X107357142Y-112979687D02*
X107261904Y-112932068D01*
X107261904Y-112932068D02*
X107071428Y-112884449D01*
X107071428Y-112884449D02*
X106976190Y-112836830D01*
X106976190Y-112836830D02*
X106928571Y-112789211D01*
X106928571Y-112789211D02*
X106880952Y-112693973D01*
X106880952Y-112693973D02*
X106880952Y-112598735D01*
X106880952Y-112598735D02*
X106928571Y-112503497D01*
X106928571Y-112503497D02*
X106976190Y-112455878D01*
X106976190Y-112455878D02*
X107071428Y-112408259D01*
X107071428Y-112408259D02*
X107309523Y-112408259D01*
X107309523Y-112408259D02*
X107452380Y-112455878D01*
X107785714Y-112408259D02*
X108023809Y-113408259D01*
X108023809Y-113408259D02*
X108214285Y-112693973D01*
X108214285Y-112693973D02*
X108404761Y-113408259D01*
X108404761Y-113408259D02*
X108642857Y-112408259D01*
X109547618Y-113408259D02*
X108976190Y-113408259D01*
X109261904Y-113408259D02*
X109261904Y-112408259D01*
X109261904Y-112408259D02*
X109166666Y-112551116D01*
X109166666Y-112551116D02*
X109071428Y-112646354D01*
X109071428Y-112646354D02*
X108976190Y-112693973D01*
X111214285Y-113408259D02*
X110738095Y-113408259D01*
X110738095Y-113408259D02*
X110738095Y-112408259D01*
X111547619Y-113408259D02*
X111547619Y-112408259D01*
X111547619Y-112884449D02*
X112119047Y-112884449D01*
X112119047Y-113408259D02*
X112119047Y-112408259D01*
X113119047Y-113408259D02*
X112547619Y-113408259D01*
X112833333Y-113408259D02*
X112833333Y-112408259D01*
X112833333Y-112408259D02*
X112738095Y-112551116D01*
X112738095Y-112551116D02*
X112642857Y-112646354D01*
X112642857Y-112646354D02*
X112547619Y-112693973D01*
X126880952Y-113360640D02*
X127023809Y-113408259D01*
X127023809Y-113408259D02*
X127261904Y-113408259D01*
X127261904Y-113408259D02*
X127357142Y-113360640D01*
X127357142Y-113360640D02*
X127404761Y-113313020D01*
X127404761Y-113313020D02*
X127452380Y-113217782D01*
X127452380Y-113217782D02*
X127452380Y-113122544D01*
X127452380Y-113122544D02*
X127404761Y-113027306D01*
X127404761Y-113027306D02*
X127357142Y-112979687D01*
X127357142Y-112979687D02*
X127261904Y-112932068D01*
X127261904Y-112932068D02*
X127071428Y-112884449D01*
X127071428Y-112884449D02*
X126976190Y-112836830D01*
X126976190Y-112836830D02*
X126928571Y-112789211D01*
X126928571Y-112789211D02*
X126880952Y-112693973D01*
X126880952Y-112693973D02*
X126880952Y-112598735D01*
X126880952Y-112598735D02*
X126928571Y-112503497D01*
X126928571Y-112503497D02*
X126976190Y-112455878D01*
X126976190Y-112455878D02*
X127071428Y-112408259D01*
X127071428Y-112408259D02*
X127309523Y-112408259D01*
X127309523Y-112408259D02*
X127452380Y-112455878D01*
X127785714Y-112408259D02*
X128023809Y-113408259D01*
X128023809Y-113408259D02*
X128214285Y-112693973D01*
X128214285Y-112693973D02*
X128404761Y-113408259D01*
X128404761Y-113408259D02*
X128642857Y-112408259D01*
X128976190Y-112503497D02*
X129023809Y-112455878D01*
X129023809Y-112455878D02*
X129119047Y-112408259D01*
X129119047Y-112408259D02*
X129357142Y-112408259D01*
X129357142Y-112408259D02*
X129452380Y-112455878D01*
X129452380Y-112455878D02*
X129499999Y-112503497D01*
X129499999Y-112503497D02*
X129547618Y-112598735D01*
X129547618Y-112598735D02*
X129547618Y-112693973D01*
X129547618Y-112693973D02*
X129499999Y-112836830D01*
X129499999Y-112836830D02*
X128928571Y-113408259D01*
X128928571Y-113408259D02*
X129547618Y-113408259D01*
X131214285Y-113408259D02*
X130738095Y-113408259D01*
X130738095Y-113408259D02*
X130738095Y-112408259D01*
X131547619Y-113408259D02*
X131547619Y-112408259D01*
X131547619Y-112884449D02*
X132119047Y-112884449D01*
X132119047Y-113408259D02*
X132119047Y-112408259D01*
X132547619Y-112503497D02*
X132595238Y-112455878D01*
X132595238Y-112455878D02*
X132690476Y-112408259D01*
X132690476Y-112408259D02*
X132928571Y-112408259D01*
X132928571Y-112408259D02*
X133023809Y-112455878D01*
X133023809Y-112455878D02*
X133071428Y-112503497D01*
X133071428Y-112503497D02*
X133119047Y-112598735D01*
X133119047Y-112598735D02*
X133119047Y-112693973D01*
X133119047Y-112693973D02*
X133071428Y-112836830D01*
X133071428Y-112836830D02*
X132500000Y-113408259D01*
X132500000Y-113408259D02*
X133119047Y-113408259D01*
X131441666Y-102713259D02*
X131441666Y-103427544D01*
X131441666Y-103427544D02*
X131394047Y-103570401D01*
X131394047Y-103570401D02*
X131298809Y-103665640D01*
X131298809Y-103665640D02*
X131155952Y-103713259D01*
X131155952Y-103713259D02*
X131060714Y-103713259D01*
X132441666Y-103713259D02*
X131870238Y-103713259D01*
X132155952Y-103713259D02*
X132155952Y-102713259D01*
X132155952Y-102713259D02*
X132060714Y-102856116D01*
X132060714Y-102856116D02*
X131965476Y-102951354D01*
X131965476Y-102951354D02*
X131870238Y-102998973D01*
X146880952Y-113360640D02*
X147023809Y-113408259D01*
X147023809Y-113408259D02*
X147261904Y-113408259D01*
X147261904Y-113408259D02*
X147357142Y-113360640D01*
X147357142Y-113360640D02*
X147404761Y-113313020D01*
X147404761Y-113313020D02*
X147452380Y-113217782D01*
X147452380Y-113217782D02*
X147452380Y-113122544D01*
X147452380Y-113122544D02*
X147404761Y-113027306D01*
X147404761Y-113027306D02*
X147357142Y-112979687D01*
X147357142Y-112979687D02*
X147261904Y-112932068D01*
X147261904Y-112932068D02*
X147071428Y-112884449D01*
X147071428Y-112884449D02*
X146976190Y-112836830D01*
X146976190Y-112836830D02*
X146928571Y-112789211D01*
X146928571Y-112789211D02*
X146880952Y-112693973D01*
X146880952Y-112693973D02*
X146880952Y-112598735D01*
X146880952Y-112598735D02*
X146928571Y-112503497D01*
X146928571Y-112503497D02*
X146976190Y-112455878D01*
X146976190Y-112455878D02*
X147071428Y-112408259D01*
X147071428Y-112408259D02*
X147309523Y-112408259D01*
X147309523Y-112408259D02*
X147452380Y-112455878D01*
X147785714Y-112408259D02*
X148023809Y-113408259D01*
X148023809Y-113408259D02*
X148214285Y-112693973D01*
X148214285Y-112693973D02*
X148404761Y-113408259D01*
X148404761Y-113408259D02*
X148642857Y-112408259D01*
X148928571Y-112408259D02*
X149547618Y-112408259D01*
X149547618Y-112408259D02*
X149214285Y-112789211D01*
X149214285Y-112789211D02*
X149357142Y-112789211D01*
X149357142Y-112789211D02*
X149452380Y-112836830D01*
X149452380Y-112836830D02*
X149499999Y-112884449D01*
X149499999Y-112884449D02*
X149547618Y-112979687D01*
X149547618Y-112979687D02*
X149547618Y-113217782D01*
X149547618Y-113217782D02*
X149499999Y-113313020D01*
X149499999Y-113313020D02*
X149452380Y-113360640D01*
X149452380Y-113360640D02*
X149357142Y-113408259D01*
X149357142Y-113408259D02*
X149071428Y-113408259D01*
X149071428Y-113408259D02*
X148976190Y-113360640D01*
X148976190Y-113360640D02*
X148928571Y-113313020D01*
X151214285Y-113408259D02*
X150738095Y-113408259D01*
X150738095Y-113408259D02*
X150738095Y-112408259D01*
X151547619Y-113408259D02*
X151547619Y-112408259D01*
X151547619Y-112884449D02*
X152119047Y-112884449D01*
X152119047Y-113408259D02*
X152119047Y-112408259D01*
X152500000Y-112408259D02*
X153119047Y-112408259D01*
X153119047Y-112408259D02*
X152785714Y-112789211D01*
X152785714Y-112789211D02*
X152928571Y-112789211D01*
X152928571Y-112789211D02*
X153023809Y-112836830D01*
X153023809Y-112836830D02*
X153071428Y-112884449D01*
X153071428Y-112884449D02*
X153119047Y-112979687D01*
X153119047Y-112979687D02*
X153119047Y-113217782D01*
X153119047Y-113217782D02*
X153071428Y-113313020D01*
X153071428Y-113313020D02*
X153023809Y-113360640D01*
X153023809Y-113360640D02*
X152928571Y-113408259D01*
X152928571Y-113408259D02*
X152642857Y-113408259D01*
X152642857Y-113408259D02*
X152547619Y-113360640D01*
X152547619Y-113360640D02*
X152500000Y-113313020D01*
X164880952Y-104360640D02*
X165023809Y-104408259D01*
X165023809Y-104408259D02*
X165261904Y-104408259D01*
X165261904Y-104408259D02*
X165357142Y-104360640D01*
X165357142Y-104360640D02*
X165404761Y-104313020D01*
X165404761Y-104313020D02*
X165452380Y-104217782D01*
X165452380Y-104217782D02*
X165452380Y-104122544D01*
X165452380Y-104122544D02*
X165404761Y-104027306D01*
X165404761Y-104027306D02*
X165357142Y-103979687D01*
X165357142Y-103979687D02*
X165261904Y-103932068D01*
X165261904Y-103932068D02*
X165071428Y-103884449D01*
X165071428Y-103884449D02*
X164976190Y-103836830D01*
X164976190Y-103836830D02*
X164928571Y-103789211D01*
X164928571Y-103789211D02*
X164880952Y-103693973D01*
X164880952Y-103693973D02*
X164880952Y-103598735D01*
X164880952Y-103598735D02*
X164928571Y-103503497D01*
X164928571Y-103503497D02*
X164976190Y-103455878D01*
X164976190Y-103455878D02*
X165071428Y-103408259D01*
X165071428Y-103408259D02*
X165309523Y-103408259D01*
X165309523Y-103408259D02*
X165452380Y-103455878D01*
X165785714Y-103408259D02*
X166023809Y-104408259D01*
X166023809Y-104408259D02*
X166214285Y-103693973D01*
X166214285Y-103693973D02*
X166404761Y-104408259D01*
X166404761Y-104408259D02*
X166642857Y-103408259D01*
X167499999Y-103408259D02*
X167023809Y-103408259D01*
X167023809Y-103408259D02*
X166976190Y-103884449D01*
X166976190Y-103884449D02*
X167023809Y-103836830D01*
X167023809Y-103836830D02*
X167119047Y-103789211D01*
X167119047Y-103789211D02*
X167357142Y-103789211D01*
X167357142Y-103789211D02*
X167452380Y-103836830D01*
X167452380Y-103836830D02*
X167499999Y-103884449D01*
X167499999Y-103884449D02*
X167547618Y-103979687D01*
X167547618Y-103979687D02*
X167547618Y-104217782D01*
X167547618Y-104217782D02*
X167499999Y-104313020D01*
X167499999Y-104313020D02*
X167452380Y-104360640D01*
X167452380Y-104360640D02*
X167357142Y-104408259D01*
X167357142Y-104408259D02*
X167119047Y-104408259D01*
X167119047Y-104408259D02*
X167023809Y-104360640D01*
X167023809Y-104360640D02*
X166976190Y-104313020D01*
X169214285Y-104408259D02*
X168738095Y-104408259D01*
X168738095Y-104408259D02*
X168738095Y-103408259D01*
X169547619Y-104408259D02*
X169547619Y-103408259D01*
X169547619Y-103884449D02*
X170119047Y-103884449D01*
X170119047Y-104408259D02*
X170119047Y-103408259D01*
X171071428Y-103408259D02*
X170595238Y-103408259D01*
X170595238Y-103408259D02*
X170547619Y-103884449D01*
X170547619Y-103884449D02*
X170595238Y-103836830D01*
X170595238Y-103836830D02*
X170690476Y-103789211D01*
X170690476Y-103789211D02*
X170928571Y-103789211D01*
X170928571Y-103789211D02*
X171023809Y-103836830D01*
X171023809Y-103836830D02*
X171071428Y-103884449D01*
X171071428Y-103884449D02*
X171119047Y-103979687D01*
X171119047Y-103979687D02*
X171119047Y-104217782D01*
X171119047Y-104217782D02*
X171071428Y-104313020D01*
X171071428Y-104313020D02*
X171023809Y-104360640D01*
X171023809Y-104360640D02*
X170928571Y-104408259D01*
X170928571Y-104408259D02*
X170690476Y-104408259D01*
X170690476Y-104408259D02*
X170595238Y-104360640D01*
X170595238Y-104360640D02*
X170547619Y-104313020D01*
X164880952Y-122360640D02*
X165023809Y-122408259D01*
X165023809Y-122408259D02*
X165261904Y-122408259D01*
X165261904Y-122408259D02*
X165357142Y-122360640D01*
X165357142Y-122360640D02*
X165404761Y-122313020D01*
X165404761Y-122313020D02*
X165452380Y-122217782D01*
X165452380Y-122217782D02*
X165452380Y-122122544D01*
X165452380Y-122122544D02*
X165404761Y-122027306D01*
X165404761Y-122027306D02*
X165357142Y-121979687D01*
X165357142Y-121979687D02*
X165261904Y-121932068D01*
X165261904Y-121932068D02*
X165071428Y-121884449D01*
X165071428Y-121884449D02*
X164976190Y-121836830D01*
X164976190Y-121836830D02*
X164928571Y-121789211D01*
X164928571Y-121789211D02*
X164880952Y-121693973D01*
X164880952Y-121693973D02*
X164880952Y-121598735D01*
X164880952Y-121598735D02*
X164928571Y-121503497D01*
X164928571Y-121503497D02*
X164976190Y-121455878D01*
X164976190Y-121455878D02*
X165071428Y-121408259D01*
X165071428Y-121408259D02*
X165309523Y-121408259D01*
X165309523Y-121408259D02*
X165452380Y-121455878D01*
X165785714Y-121408259D02*
X166023809Y-122408259D01*
X166023809Y-122408259D02*
X166214285Y-121693973D01*
X166214285Y-121693973D02*
X166404761Y-122408259D01*
X166404761Y-122408259D02*
X166642857Y-121408259D01*
X167452380Y-121741592D02*
X167452380Y-122408259D01*
X167214285Y-121360640D02*
X166976190Y-122074925D01*
X166976190Y-122074925D02*
X167595237Y-122074925D01*
X169214285Y-122408259D02*
X168738095Y-122408259D01*
X168738095Y-122408259D02*
X168738095Y-121408259D01*
X169547619Y-122408259D02*
X169547619Y-121408259D01*
X169547619Y-121884449D02*
X170119047Y-121884449D01*
X170119047Y-122408259D02*
X170119047Y-121408259D01*
X171023809Y-121741592D02*
X171023809Y-122408259D01*
X170785714Y-121360640D02*
X170547619Y-122074925D01*
X170547619Y-122074925D02*
X171166666Y-122074925D01*
X99903259Y-123785713D02*
X98903259Y-123785713D01*
X98903259Y-123785713D02*
X99617544Y-123452380D01*
X99617544Y-123452380D02*
X98903259Y-123119047D01*
X98903259Y-123119047D02*
X99903259Y-123119047D01*
X98903259Y-122452380D02*
X98903259Y-122261904D01*
X98903259Y-122261904D02*
X98950878Y-122166666D01*
X98950878Y-122166666D02*
X99046116Y-122071428D01*
X99046116Y-122071428D02*
X99236592Y-122023809D01*
X99236592Y-122023809D02*
X99569925Y-122023809D01*
X99569925Y-122023809D02*
X99760401Y-122071428D01*
X99760401Y-122071428D02*
X99855640Y-122166666D01*
X99855640Y-122166666D02*
X99903259Y-122261904D01*
X99903259Y-122261904D02*
X99903259Y-122452380D01*
X99903259Y-122452380D02*
X99855640Y-122547618D01*
X99855640Y-122547618D02*
X99760401Y-122642856D01*
X99760401Y-122642856D02*
X99569925Y-122690475D01*
X99569925Y-122690475D02*
X99236592Y-122690475D01*
X99236592Y-122690475D02*
X99046116Y-122642856D01*
X99046116Y-122642856D02*
X98950878Y-122547618D01*
X98950878Y-122547618D02*
X98903259Y-122452380D01*
X98903259Y-121595237D02*
X99712782Y-121595237D01*
X99712782Y-121595237D02*
X99808020Y-121547618D01*
X99808020Y-121547618D02*
X99855640Y-121499999D01*
X99855640Y-121499999D02*
X99903259Y-121404761D01*
X99903259Y-121404761D02*
X99903259Y-121214285D01*
X99903259Y-121214285D02*
X99855640Y-121119047D01*
X99855640Y-121119047D02*
X99808020Y-121071428D01*
X99808020Y-121071428D02*
X99712782Y-121023809D01*
X99712782Y-121023809D02*
X98903259Y-121023809D01*
X98903259Y-120690475D02*
X98903259Y-120119047D01*
X99903259Y-120404761D02*
X98903259Y-120404761D01*
X99903259Y-119785713D02*
X98903259Y-119785713D01*
X99379449Y-119785713D02*
X99379449Y-119214285D01*
X99903259Y-119214285D02*
X98903259Y-119214285D01*
M02*
