M48
; DRILL file {KiCad 9.0.9-9.0.9~ubuntu24.04.1} date 2026-09-29T18:01:04+0000
; FORMAT={-:-/ absolute / metric / decimal}
; #@! TF.CreationDate,2026-09-29T18:01:04+00:00
; #@! TF.GenerationSoftware,Kicad,Pcbnew,9.0.9-9.0.9~ubuntu24.04.1
; #@! TF.FileFunction,Plated,1,2,PTH
FMAT,2
METRIC
; #@! TA.AperFunction,Plated,PTH,ViaDrill
T1C0.300
; #@! TA.AperFunction,Plated,PTH,ComponentDrill
T2C0.700
; #@! TA.AperFunction,Plated,PTH,ComponentDrill
T3C2.200
; #@! TA.AperFunction,Plated,PTH,ComponentDrill
T4C2.700
%
G90
G05
T1
X98.0Y-106.3
X99.0Y-107.1
X116.0Y-115.9
X118.0Y-125.3
X122.6Y-116.9
X125.6Y-107.1
X131.4Y-115.9
X133.4Y-114.9
X134.6Y-104.1
X138.0Y-125.3
X140.0Y-115.9
X143.2Y-103.1
X143.4Y-112.3
X145.6Y-114.9
X145.6Y-117.9
X146.2Y-110.5
X147.8Y-116.9
X149.8Y-117.9
X151.2Y-117.5
X151.4Y-101.7
X152.6Y-107.3
X153.2Y-120.1
X153.6Y-105.7
X154.4Y-118.5
X154.6Y-106.1
X155.8Y-103.1
X157.4Y-117.5
X158.0Y-125.3
X160.2Y-115.9
X172.4Y-110.1
X175.4Y-120.1
X176.0Y-116.3
X176.0Y-134.3
T2
X130.64Y-104.81
X130.64Y-106.08
X130.64Y-107.35
X130.64Y-108.62
X130.64Y-109.89
X130.64Y-111.16
X131.91Y-104.81
X131.91Y-106.08
X131.91Y-107.35
X131.91Y-108.62
X131.91Y-109.89
X131.91Y-111.16
T3
X105.6Y-126.2
X112.6Y-127.25
X125.6Y-126.2
X132.6Y-127.25
X145.6Y-126.2
X152.6Y-127.25
X163.6Y-117.2
X163.6Y-135.2
X170.6Y-118.25
X170.6Y-136.25
T4
X100.6Y-104.1
M30
