%TF.GenerationSoftware,KiCad,Pcbnew,9.0.9-9.0.9~ubuntu24.04.1*%
%TF.CreationDate,2026-10-05T19:55:42+00:00*%
%TF.ProjectId,key-board-lh,6b65792d-626f-4617-9264-2d6c682e6b69,A*%
%TF.SameCoordinates,Original*%
%TF.FileFunction,Profile,NP*%
%FSLAX46Y46*%
G04 Gerber Fmt 4.6, Leading zero omitted, Abs format (unit mm)*
G04 Created by KiCad (PCBNEW 9.0.9-9.0.9~ubuntu24.04.1) date 2026-10-05 19:55:42*
%MOMM*%
%LPD*%
G01*
G04 APERTURE LIST*
%TA.AperFunction,Profile*%
%ADD10C,0.100000*%
%TD*%
G04 APERTURE END LIST*
D10*
X94200000Y-101500000D02*
X94200000Y-141500000D01*
X94200000Y-141500000D02*
X94212300Y-141656430D01*
X94212300Y-101343600D02*
X94200000Y-101500000D01*
X94212300Y-141656430D02*
X94248900Y-141809020D01*
X94248900Y-101191000D02*
X94212300Y-101343600D01*
X94248900Y-141809020D02*
X94309000Y-141953990D01*
X94309000Y-101045999D02*
X94248900Y-101191000D01*
X94309000Y-141953990D02*
X94391000Y-142087780D01*
X94391000Y-100912200D02*
X94309000Y-101045999D01*
X94391000Y-142087780D02*
X94492900Y-142207110D01*
X94492900Y-100792900D02*
X94391000Y-100912200D01*
X94492900Y-142207110D02*
X94612199Y-142309020D01*
X94612199Y-100691000D02*
X94492900Y-100792900D01*
X94612199Y-142309020D02*
X94746000Y-142391010D01*
X94746000Y-100609000D02*
X94612199Y-100691000D01*
X94746000Y-142391010D02*
X94891000Y-142451050D01*
X94891000Y-100549000D02*
X94746000Y-100609000D01*
X94891000Y-142451050D02*
X95043600Y-142487690D01*
X95043600Y-100512300D02*
X94891000Y-100549000D01*
X95043600Y-142487690D02*
X95200000Y-142500000D01*
X95200000Y-100500000D02*
X95043600Y-100512300D01*
X95200000Y-142500000D02*
X184300000Y-142500000D01*
X184300000Y-100500000D02*
X95200000Y-100500000D01*
X184300000Y-142500000D02*
X184456000Y-142487690D01*
X184456000Y-100512300D02*
X184300000Y-100500000D01*
X184456000Y-142487690D02*
X184608999Y-142451050D01*
X184608999Y-100549000D02*
X184456000Y-100512300D01*
X184608999Y-142451050D02*
X184754000Y-142391010D01*
X184754000Y-100609000D02*
X184608999Y-100549000D01*
X184754000Y-142391010D02*
X184888000Y-142309020D01*
X184888000Y-100691000D02*
X184754000Y-100609000D01*
X184888000Y-142309020D02*
X185007000Y-142207110D01*
X185007000Y-100792900D02*
X184888000Y-100691000D01*
X185007000Y-142207110D02*
X185108999Y-142087780D01*
X185108999Y-100912200D02*
X185007000Y-100792900D01*
X185108999Y-142087780D02*
X185191000Y-141953990D01*
X185191000Y-101045999D02*
X185108999Y-100912200D01*
X185191000Y-141953990D02*
X185251000Y-141809020D01*
X185251000Y-101191000D02*
X185191000Y-101045999D01*
X185251000Y-141809020D02*
X185288000Y-141656430D01*
X185288000Y-101343600D02*
X185251000Y-101191000D01*
X185288000Y-141656430D02*
X185300000Y-141500000D01*
X185300000Y-101500000D02*
X185288000Y-101343600D01*
X185300000Y-141500000D02*
X185300000Y-101500000D01*
M02*
