%TF.GenerationSoftware,KiCad,Pcbnew,9.0.9-9.0.9~ubuntu24.04.1*%
%TF.CreationDate,2026-09-27T20:43:40+00:00*%
%TF.ProjectId,key-board-lh,6b65792d-626f-4617-9264-2d6c682e6b69,A*%
%TF.SameCoordinates,Original*%
%TF.FileFunction,Copper,L1,Top*%
%TF.FilePolarity,Positive*%
%FSLAX46Y46*%
G04 Gerber Fmt 4.6, Leading zero omitted, Abs format (unit mm)*
G04 Created by KiCad (PCBNEW 9.0.9-9.0.9~ubuntu24.04.1) date 2026-09-27 20:43:40*
%MOMM*%
%LPD*%
G01*
G04 APERTURE LIST*
%TA.AperFunction,ComponentPad*%
%ADD10C,2.000000*%
%TD*%
%TA.AperFunction,ComponentPad*%
%ADD11R,1.070000X1.070000*%
%TD*%
%TA.AperFunction,ComponentPad*%
%ADD12C,1.070000*%
%TD*%
%TA.AperFunction,ViaPad*%
%ADD13C,0.700000*%
%TD*%
%TA.AperFunction,Conductor*%
%ADD14C,0.250000*%
%TD*%
%TA.AperFunction,Conductor*%
%ADD15C,0.400000*%
%TD*%
G04 APERTURE END LIST*
D10*
%TO.P,SW-LH4,1*%
%TO.N,/LH4/SWITCH_LEG*%
X163600000Y-135200000D03*
%TO.P,SW-LH4,2*%
%TO.N,GND_CHAIN*%
X170600000Y-136250000D03*
%TD*%
%TO.P,SW-LH5,1*%
%TO.N,/LH5/SWITCH_LEG*%
X163600000Y-117200000D03*
%TO.P,SW-LH5,2*%
%TO.N,GND_CHAIN*%
X170600000Y-118250000D03*
%TD*%
%TO.P,SW-LH1,1*%
%TO.N,/LH1/SWITCH_LEG*%
X105600000Y-126200000D03*
%TO.P,SW-LH1,2*%
%TO.N,GND_CHAIN*%
X112600000Y-127250000D03*
%TD*%
%TO.P,SW-LH3,1*%
%TO.N,/LH3/SWITCH_LEG*%
X145600000Y-126200000D03*
%TO.P,SW-LH3,2*%
%TO.N,GND_CHAIN*%
X152600000Y-127250000D03*
%TD*%
%TO.P,SW-LH2,1*%
%TO.N,/LH2/SWITCH_LEG*%
X125600000Y-126200000D03*
%TO.P,SW-LH2,2*%
%TO.N,GND_CHAIN*%
X132600000Y-127250000D03*
%TD*%
D11*
%TO.P,J-CHAIN,1*%
%TO.N,unconnected-(J-CHAIN-Pin_1-Pad1)*%
X130640000Y-111160000D03*
D12*
%TO.P,J-CHAIN,2*%
%TO.N,unconnected-(J-CHAIN-Pin_2-Pad2)*%
X131910000Y-111160000D03*
%TO.P,J-CHAIN,3*%
%TO.N,V3V3_CHAIN_LH*%
X130640000Y-109890000D03*
%TO.P,J-CHAIN,4*%
%TO.N,GND_CHAIN*%
X131910000Y-109890000D03*
%TO.P,J-CHAIN,5*%
%TO.N,/HOP_LH_LT*%
X130640000Y-108620000D03*
%TO.P,J-CHAIN,6*%
%TO.N,GND_CHAIN*%
X131910000Y-108620000D03*
%TO.P,J-CHAIN,7*%
%TO.N,/CHAIN_SER_LH*%
X130640000Y-107350000D03*
%TO.P,J-CHAIN,8*%
%TO.N,GND_CHAIN*%
X131910000Y-107350000D03*
%TO.P,J-CHAIN,9*%
%TO.N,/CHAIN_SHLD*%
X130640000Y-106080000D03*
%TO.P,J-CHAIN,10*%
%TO.N,GND_CHAIN*%
X131910000Y-106080000D03*
%TO.P,J-CHAIN,11*%
%TO.N,/CHAIN_SCK*%
X130640000Y-104810000D03*
%TO.P,J-CHAIN,12*%
%TO.N,GND_CHAIN*%
X131910000Y-104810000D03*
%TD*%
D13*
%TO.N,/CHAIN_SCK*%
X153600000Y-106700000D03*
%TO.N,/CHAIN_SER_LH*%
X142400000Y-111500000D03*
X142400000Y-114900000D03*
%TO.N,/CHAIN_SHLD*%
X155800000Y-108900000D03*
%TO.N,/HOP_LH_LT*%
X145200000Y-104100000D03*
X134199999Y-104100000D03*
X141400000Y-104100000D03*
X145400000Y-110500000D03*
X141400000Y-110500000D03*
%TO.N,/KEY_LH1*%
X148400000Y-115900000D03*
X120600000Y-115900000D03*
%TO.N,/KEY_LH2*%
X149800000Y-110500000D03*
X140400000Y-109500000D03*
%TO.N,/KEY_LH4*%
X152600000Y-113100000D03*
X177400000Y-117500000D03*
%TO.N,/KEY_LH5*%
X152000000Y-102500000D03*
X169200000Y-102500000D03*
%TO.N,/LH1/SWITCH_LEG*%
X121200000Y-124100000D03*
%TO.N,/LH2/SWITCH_LEG*%
X141200000Y-124100000D03*
%TO.N,/LH3/SWITCH_LEG*%
X161200000Y-124100000D03*
%TO.N,/LH4/SWITCH_LEG*%
X175200000Y-134700000D03*
%TO.N,/LH5/SWITCH_LEG*%
X177600000Y-113100000D03*
X171400000Y-113100000D03*
%TO.N,GND_CHAIN*%
X149600000Y-111700000D03*
X146400000Y-111700000D03*
X115200000Y-121500000D03*
X136600000Y-127700000D03*
X116600000Y-127700000D03*
X126000000Y-107900000D03*
X173600000Y-111300000D03*
X135200000Y-102100000D03*
X145200000Y-108300000D03*
X151000000Y-102100000D03*
X156600000Y-119900000D03*
%TO.N,V3V3_CHAIN_LH*%
X160200000Y-109300000D03*
X176600000Y-109300000D03*
X141400000Y-112300000D03*
%TD*%
D14*
%TO.N,/CHAIN_SCK*%
X130640000Y-104810000D02*
X131000000Y-104500000D01*
X131000000Y-103900000D02*
X131000000Y-104500000D01*
X153600000Y-106700000D02*
X135600000Y-106700000D01*
X135600000Y-106700000D02*
X132600000Y-103700000D01*
X131199999Y-103700000D02*
X131000000Y-103900000D01*
X132600000Y-103700000D02*
X131199999Y-103700000D01*
%TO.N,/CHAIN_SER_LH*%
X130639999Y-107350000D02*
X130400000Y-107700000D01*
X128600000Y-108900000D02*
X129800000Y-107700000D01*
X140600000Y-113100000D02*
X129199999Y-113100000D01*
X128600000Y-112500000D02*
X128600000Y-108900000D01*
X129199999Y-113100000D02*
X128600000Y-112500000D01*
X140800000Y-113300000D02*
X141800000Y-113300000D01*
X142400000Y-112700000D02*
X142400000Y-111500000D01*
X142400000Y-114900000D02*
X140600000Y-113100000D01*
X141800000Y-113300000D02*
X142400000Y-112700000D01*
X129800000Y-107700000D02*
X130400000Y-107700000D01*
%TO.N,/CHAIN_SHLD*%
X129600000Y-105500000D02*
X130000000Y-105900000D01*
X151400000Y-103100000D02*
X130600000Y-103100000D01*
X129600000Y-104100000D02*
X129600000Y-105500000D01*
X154600000Y-106300000D02*
X151400000Y-103100000D01*
X154600000Y-107700000D02*
X154600000Y-106300000D01*
X130000000Y-105900000D02*
X130199999Y-105900000D01*
X130600000Y-103100000D02*
X129600000Y-104100000D01*
X130639999Y-106079999D02*
X130199999Y-105900000D01*
X155800000Y-108900000D02*
X154600000Y-107700000D01*
%TO.N,/HOP_LH_LT*%
X141400000Y-110500000D02*
X145400000Y-110500000D01*
X145200000Y-104100000D02*
X134199999Y-104100000D01*
%TO.N,/KEY_LH1*%
X120600000Y-115900000D02*
X148400000Y-115900000D01*
%TO.N,/KEY_LH2*%
X148800000Y-109500000D02*
X149800000Y-110500000D01*
X140400000Y-109500000D02*
X148800000Y-109500000D01*
%TO.N,/KEY_LH4*%
X155200000Y-115700000D02*
X152600000Y-113100000D01*
X175600000Y-115700000D02*
X155200000Y-115700000D01*
X177400000Y-117500000D02*
X175600000Y-115700000D01*
%TO.N,/KEY_LH5*%
X169200000Y-102500000D02*
X152000000Y-102500000D01*
%TO.N,/LH1/SWITCH_LEG*%
X112000000Y-124100000D02*
X110600000Y-125500000D01*
X110600000Y-125500000D02*
X106200000Y-125500000D01*
X105600000Y-126200000D02*
X106200000Y-125500000D01*
X121200000Y-124100000D02*
X112000000Y-124100000D01*
%TO.N,/LH2/SWITCH_LEG*%
X141200000Y-124100000D02*
X132000000Y-124100000D01*
X132000000Y-124100000D02*
X130600000Y-125500000D01*
X125600000Y-126200000D02*
X126200000Y-125500000D01*
X130600000Y-125500000D02*
X126200000Y-125500000D01*
%TO.N,/LH3/SWITCH_LEG*%
X145599999Y-126199999D02*
X146200000Y-125500000D01*
X150600000Y-125500000D02*
X146200000Y-125500000D01*
X152000000Y-124100000D02*
X150600000Y-125500000D01*
X161200000Y-124100000D02*
X152000000Y-124100000D01*
%TO.N,/LH4/SWITCH_LEG*%
X175200000Y-134700000D02*
X164400000Y-134700000D01*
X163600000Y-135200000D02*
X164400000Y-134700000D01*
%TO.N,/LH5/SWITCH_LEG*%
X177600000Y-113100000D02*
X171400000Y-113100000D01*
%TO.N,GND_CHAIN*%
X112600000Y-127250000D02*
X113400000Y-127700000D01*
X156600000Y-119900000D02*
X168600000Y-119900000D01*
X132599999Y-127249999D02*
X133400000Y-127700000D01*
X149600000Y-111700000D02*
X146400000Y-111700000D01*
X170599999Y-118249999D02*
X169800000Y-118700000D01*
X135200000Y-102100000D02*
X151000000Y-102100000D01*
X131800000Y-127700000D02*
X116600000Y-127700000D01*
X136600000Y-127700000D02*
X133400000Y-127700000D01*
X168600000Y-119900000D02*
X169800000Y-118700000D01*
X116600000Y-127700000D02*
X113400000Y-127700000D01*
X151800000Y-127700000D02*
X136600000Y-127700000D01*
D15*
%TO.N,V3V3_CHAIN_LH*%
X130639999Y-109890000D02*
X130199999Y-109900000D01*
X129400000Y-112100000D02*
X129400000Y-110300000D01*
X129600000Y-112300000D02*
X129400000Y-112100000D01*
X129400000Y-110300000D02*
X129800000Y-109900000D01*
X129800000Y-109900000D02*
X130199999Y-109900000D01*
X160200000Y-109300000D02*
X176600000Y-109300000D01*
X141400000Y-112300000D02*
X129600000Y-112300000D01*
%TD*%
%TA.AperFunction,Conductor*%
%TO.N,GND_CHAIN*%
G36*
X131583852Y-108755095D02*
G01*
X131629930Y-108834905D01*
X131695095Y-108900070D01*
X131774905Y-108946148D01*
X131847296Y-108965545D01*
X131557842Y-109255000D01*
X131847296Y-109544454D01*
X131774905Y-109563852D01*
X131695095Y-109609930D01*
X131629930Y-109675095D01*
X131583852Y-109754905D01*
X131564454Y-109827296D01*
X131318442Y-109581284D01*
X131295292Y-109546637D01*
X131294660Y-109546976D01*
X131291790Y-109541607D01*
X131211300Y-109421146D01*
X131211297Y-109421142D01*
X131132836Y-109342681D01*
X131128497Y-109334735D01*
X131121250Y-109329310D01*
X131112015Y-109304550D01*
X131099351Y-109281358D01*
X131099996Y-109272328D01*
X131096833Y-109263846D01*
X131102449Y-109238025D01*
X131104335Y-109211666D01*
X131110153Y-109202612D01*
X131111685Y-109195573D01*
X131132836Y-109167319D01*
X131184198Y-109115957D01*
X131211297Y-109088857D01*
X131211300Y-109088854D01*
X131291792Y-108968390D01*
X131291795Y-108968381D01*
X131294665Y-108963015D01*
X131295300Y-108963354D01*
X131318443Y-108928712D01*
X131564454Y-108682701D01*
X131583852Y-108755095D01*
G37*
%TD.AperFunction*%
%TA.AperFunction,Conductor*%
G36*
X131583852Y-107485095D02*
G01*
X131629930Y-107564905D01*
X131695095Y-107630070D01*
X131774905Y-107676148D01*
X131847296Y-107695545D01*
X131557842Y-107985000D01*
X131847296Y-108274454D01*
X131774905Y-108293852D01*
X131695095Y-108339930D01*
X131629930Y-108405095D01*
X131583852Y-108484905D01*
X131564454Y-108557296D01*
X131318442Y-108311284D01*
X131295292Y-108276637D01*
X131294660Y-108276976D01*
X131291790Y-108271607D01*
X131211300Y-108151146D01*
X131211297Y-108151142D01*
X131132836Y-108072681D01*
X131128497Y-108064735D01*
X131121250Y-108059310D01*
X131112015Y-108034550D01*
X131099351Y-108011358D01*
X131099996Y-108002328D01*
X131096833Y-107993846D01*
X131102449Y-107968025D01*
X131104335Y-107941666D01*
X131110153Y-107932612D01*
X131111685Y-107925573D01*
X131132836Y-107897319D01*
X131184198Y-107845957D01*
X131211297Y-107818857D01*
X131211300Y-107818854D01*
X131291792Y-107698390D01*
X131291795Y-107698381D01*
X131294665Y-107693015D01*
X131295300Y-107693354D01*
X131318443Y-107658712D01*
X131564454Y-107412701D01*
X131583852Y-107485095D01*
G37*
%TD.AperFunction*%
%TA.AperFunction,Conductor*%
G36*
X131583852Y-106215095D02*
G01*
X131629930Y-106294905D01*
X131695095Y-106360070D01*
X131774905Y-106406148D01*
X131847296Y-106425545D01*
X131557842Y-106715000D01*
X131847296Y-107004454D01*
X131774905Y-107023852D01*
X131695095Y-107069930D01*
X131629930Y-107135095D01*
X131583852Y-107214905D01*
X131564454Y-107287296D01*
X131318442Y-107041284D01*
X131295292Y-107006637D01*
X131294660Y-107006976D01*
X131291790Y-107001607D01*
X131211300Y-106881146D01*
X131211297Y-106881142D01*
X131132836Y-106802681D01*
X131128497Y-106794735D01*
X131121250Y-106789310D01*
X131112015Y-106764550D01*
X131099351Y-106741358D01*
X131099996Y-106732328D01*
X131096833Y-106723846D01*
X131102449Y-106698025D01*
X131104335Y-106671666D01*
X131110153Y-106662612D01*
X131111685Y-106655573D01*
X131132836Y-106627319D01*
X131184198Y-106575957D01*
X131211297Y-106548857D01*
X131211300Y-106548854D01*
X131291792Y-106428390D01*
X131291795Y-106428381D01*
X131294665Y-106423015D01*
X131295300Y-106423354D01*
X131318443Y-106388712D01*
X131564454Y-106142701D01*
X131583852Y-106215095D01*
G37*
%TD.AperFunction*%
%TA.AperFunction,Conductor*%
G36*
X131583852Y-104945095D02*
G01*
X131629930Y-105024905D01*
X131695095Y-105090070D01*
X131774905Y-105136148D01*
X131847296Y-105155545D01*
X131557842Y-105445000D01*
X131847296Y-105734454D01*
X131774905Y-105753852D01*
X131695095Y-105799930D01*
X131629930Y-105865095D01*
X131583852Y-105944905D01*
X131564454Y-106017296D01*
X131318442Y-105771284D01*
X131295292Y-105736637D01*
X131294660Y-105736976D01*
X131291790Y-105731607D01*
X131211300Y-105611146D01*
X131211297Y-105611142D01*
X131132836Y-105532681D01*
X131128497Y-105524735D01*
X131121250Y-105519310D01*
X131112015Y-105494550D01*
X131099351Y-105471358D01*
X131099996Y-105462328D01*
X131096833Y-105453846D01*
X131102449Y-105428025D01*
X131104335Y-105401666D01*
X131110153Y-105392612D01*
X131111685Y-105385573D01*
X131132836Y-105357319D01*
X131184198Y-105305957D01*
X131211297Y-105278857D01*
X131211300Y-105278854D01*
X131291792Y-105158390D01*
X131291795Y-105158381D01*
X131294665Y-105153015D01*
X131295300Y-105153354D01*
X131318443Y-105118713D01*
X131564454Y-104872701D01*
X131583852Y-104945095D01*
G37*
%TD.AperFunction*%
%TA.AperFunction,Conductor*%
G36*
X179993037Y-100800883D02*
G01*
X180099145Y-100809249D01*
X180118318Y-100812284D01*
X180206455Y-100833426D01*
X180224944Y-100839428D01*
X180308280Y-100873912D01*
X180325592Y-100882722D01*
X180402307Y-100929667D01*
X180418235Y-100941248D01*
X180486464Y-100999672D01*
X180500056Y-101013273D01*
X180558826Y-101082011D01*
X180570298Y-101097793D01*
X180617284Y-101174461D01*
X180626137Y-101191843D01*
X180660771Y-101275542D01*
X180666701Y-101293734D01*
X180687875Y-101381059D01*
X180691004Y-101400792D01*
X180699137Y-101506782D01*
X180699500Y-101516269D01*
X180699500Y-141483732D01*
X180699137Y-141493218D01*
X180691003Y-141599237D01*
X180687874Y-141618971D01*
X180666707Y-141706268D01*
X180660773Y-141724469D01*
X180626145Y-141808133D01*
X180617294Y-141825509D01*
X180570286Y-141902208D01*
X180558820Y-141917981D01*
X180500047Y-141986738D01*
X180486448Y-142000350D01*
X180418235Y-142058768D01*
X180402295Y-142070357D01*
X180325558Y-142117310D01*
X180308278Y-142126106D01*
X180224992Y-142160592D01*
X180206433Y-142166615D01*
X180118350Y-142187709D01*
X180099226Y-142190735D01*
X179993024Y-142199116D01*
X179983269Y-142199500D01*
X98016683Y-142199500D01*
X98006953Y-142199118D01*
X97993253Y-142198039D01*
X97900483Y-142190737D01*
X97881264Y-142187692D01*
X97793610Y-142166646D01*
X97775122Y-142160640D01*
X97691853Y-142126161D01*
X97674502Y-142117322D01*
X97597707Y-142070263D01*
X97581958Y-142058820D01*
X97513476Y-142000320D01*
X97499721Y-141986562D01*
X97441189Y-141918018D01*
X97429767Y-141902296D01*
X97382704Y-141825508D01*
X97373853Y-141808133D01*
X97339373Y-141724825D01*
X97333392Y-141706421D01*
X97312303Y-141618735D01*
X97309248Y-141599463D01*
X97309230Y-141599237D01*
X97300882Y-141493062D01*
X97300500Y-141483342D01*
X97300500Y-139500000D01*
X97550000Y-139500000D01*
X97597075Y-139977969D01*
X97736496Y-140437578D01*
X97962895Y-140861141D01*
X97962899Y-140861148D01*
X98267587Y-141232411D01*
X98638850Y-141537099D01*
X98638857Y-141537103D01*
X99062420Y-141763502D01*
X99062422Y-141763502D01*
X99062425Y-141763504D01*
X99522028Y-141902923D01*
X99522027Y-141902923D01*
X99569104Y-141907559D01*
X100000000Y-141950000D01*
X100477971Y-141902923D01*
X100937574Y-141763504D01*
X101009910Y-141724840D01*
X101244474Y-141599463D01*
X101361147Y-141537100D01*
X101732411Y-141232411D01*
X102037100Y-140861147D01*
X102263504Y-140437574D01*
X102402923Y-139977971D01*
X102450000Y-139500000D01*
X175550000Y-139500000D01*
X175597075Y-139977969D01*
X175736496Y-140437578D01*
X175962895Y-140861141D01*
X175962899Y-140861148D01*
X176267587Y-141232411D01*
X176638850Y-141537099D01*
X176638857Y-141537103D01*
X177062420Y-141763502D01*
X177062422Y-141763502D01*
X177062425Y-141763504D01*
X177522028Y-141902923D01*
X177522027Y-141902923D01*
X177569104Y-141907559D01*
X178000000Y-141950000D01*
X178477971Y-141902923D01*
X178937574Y-141763504D01*
X179009910Y-141724840D01*
X179244474Y-141599463D01*
X179361147Y-141537100D01*
X179732411Y-141232411D01*
X180037100Y-140861147D01*
X180263504Y-140437574D01*
X180402923Y-139977971D01*
X180450000Y-139500000D01*
X180402923Y-139022028D01*
X180263504Y-138562425D01*
X180263502Y-138562422D01*
X180263502Y-138562420D01*
X180037103Y-138138857D01*
X180037099Y-138138850D01*
X179732411Y-137767587D01*
X179361148Y-137462899D01*
X179361141Y-137462895D01*
X178937578Y-137236496D01*
X178707772Y-137166785D01*
X178477971Y-137097076D01*
X178477969Y-137097075D01*
X178477971Y-137097075D01*
X178000000Y-137050000D01*
X177522029Y-137097075D01*
X177062420Y-137236496D01*
X176638857Y-137462895D01*
X176638850Y-137462899D01*
X176267587Y-137767587D01*
X175962899Y-138138850D01*
X175962895Y-138138857D01*
X175736496Y-138562420D01*
X175597075Y-139022029D01*
X175550000Y-139500000D01*
X102450000Y-139500000D01*
X102402923Y-139022028D01*
X102263504Y-138562425D01*
X102263502Y-138562422D01*
X102263502Y-138562420D01*
X102037103Y-138138857D01*
X102037099Y-138138850D01*
X101732411Y-137767587D01*
X101361148Y-137462899D01*
X101361141Y-137462895D01*
X101172039Y-137361818D01*
X100937578Y-137236496D01*
X100707772Y-137166785D01*
X100477971Y-137097076D01*
X100477969Y-137097075D01*
X100477971Y-137097075D01*
X100000000Y-137050000D01*
X99522029Y-137097075D01*
X99062420Y-137236496D01*
X98638857Y-137462895D01*
X98638850Y-137462899D01*
X98267587Y-137767587D01*
X97962899Y-138138850D01*
X97962895Y-138138857D01*
X97736496Y-138562420D01*
X97597075Y-139022029D01*
X97550000Y-139500000D01*
X97300500Y-139500000D01*
X97300500Y-135105513D01*
X162399500Y-135105513D01*
X162399500Y-135294486D01*
X162429059Y-135481118D01*
X162487454Y-135660836D01*
X162533379Y-135750968D01*
X162573240Y-135829199D01*
X162684310Y-135982073D01*
X162817927Y-136115690D01*
X162970801Y-136226760D01*
X163050347Y-136267290D01*
X163139163Y-136312545D01*
X163139165Y-136312545D01*
X163139168Y-136312547D01*
X163235497Y-136343846D01*
X163318881Y-136370940D01*
X163505514Y-136400500D01*
X163505519Y-136400500D01*
X163694486Y-136400500D01*
X163881118Y-136370940D01*
X163938433Y-136352317D01*
X164060832Y-136312547D01*
X164229199Y-136226760D01*
X164382073Y-136115690D01*
X164515690Y-135982073D01*
X164626760Y-135829199D01*
X164712547Y-135660832D01*
X164770940Y-135481118D01*
X164800500Y-135294486D01*
X164800500Y-135149500D01*
X164820185Y-135082461D01*
X164872989Y-135036706D01*
X164924500Y-135025500D01*
X169712735Y-135025500D01*
X169779774Y-135045185D01*
X169825529Y-135097989D01*
X169836353Y-135159229D01*
X169833122Y-135200279D01*
X170302512Y-135669669D01*
X170292110Y-135673978D01*
X170185649Y-135745112D01*
X170095112Y-135835649D01*
X170023978Y-135942110D01*
X170019669Y-135952512D01*
X169550279Y-135483122D01*
X169550278Y-135483122D01*
X169488141Y-135568648D01*
X169395244Y-135750968D01*
X169332009Y-135945582D01*
X169300000Y-136147682D01*
X169300000Y-136352317D01*
X169332009Y-136554417D01*
X169395244Y-136749031D01*
X169488139Y-136931347D01*
X169550279Y-137016876D01*
X170019668Y-136547487D01*
X170023978Y-136557890D01*
X170095112Y-136664351D01*
X170185649Y-136754888D01*
X170292110Y-136826022D01*
X170302510Y-136830330D01*
X169833121Y-137299719D01*
X169833122Y-137299720D01*
X169918640Y-137361852D01*
X169918649Y-137361858D01*
X170100968Y-137454755D01*
X170295582Y-137517990D01*
X170497683Y-137550000D01*
X170702317Y-137550000D01*
X170904417Y-137517990D01*
X171099031Y-137454755D01*
X171281349Y-137361859D01*
X171366876Y-137299719D01*
X171366877Y-137299718D01*
X170897489Y-136830330D01*
X170907890Y-136826022D01*
X171014351Y-136754888D01*
X171104888Y-136664351D01*
X171176022Y-136557890D01*
X171180330Y-136547488D01*
X171649718Y-137016877D01*
X171649719Y-137016876D01*
X171711859Y-136931349D01*
X171804755Y-136749031D01*
X171867990Y-136554417D01*
X171900000Y-136352317D01*
X171900000Y-136147682D01*
X171867990Y-135945582D01*
X171804755Y-135750968D01*
X171711858Y-135568649D01*
X171711852Y-135568640D01*
X171649720Y-135483122D01*
X171649719Y-135483121D01*
X171180330Y-135952510D01*
X171176022Y-135942110D01*
X171104888Y-135835649D01*
X171014351Y-135745112D01*
X170907890Y-135673978D01*
X170897487Y-135669669D01*
X171366876Y-135200279D01*
X171363646Y-135159229D01*
X171378010Y-135090852D01*
X171427061Y-135041095D01*
X171487264Y-135025500D01*
X174695613Y-135025500D01*
X174762652Y-135045185D01*
X174783294Y-135061818D01*
X174861985Y-135140509D01*
X174861987Y-135140510D01*
X174861988Y-135140511D01*
X174987511Y-135212982D01*
X174987512Y-135212982D01*
X174987515Y-135212984D01*
X175127525Y-135250500D01*
X175127528Y-135250500D01*
X175272472Y-135250500D01*
X175272475Y-135250500D01*
X175412485Y-135212984D01*
X175538015Y-135140509D01*
X175640509Y-135038015D01*
X175712984Y-134912485D01*
X175750500Y-134772475D01*
X175750500Y-134627525D01*
X175712984Y-134487515D01*
X175672807Y-134417927D01*
X175640511Y-134361988D01*
X175640506Y-134361982D01*
X175538017Y-134259493D01*
X175538011Y-134259488D01*
X175412488Y-134187017D01*
X175412489Y-134187017D01*
X175401006Y-134183940D01*
X175272475Y-134149500D01*
X175127525Y-134149500D01*
X174998993Y-134183940D01*
X174987511Y-134187017D01*
X174861988Y-134259488D01*
X174783294Y-134338182D01*
X174721970Y-134371666D01*
X174695613Y-134374500D01*
X164523625Y-134374500D01*
X164456586Y-134354815D01*
X164435944Y-134338181D01*
X164382075Y-134284312D01*
X164382073Y-134284310D01*
X164229199Y-134173240D01*
X164060836Y-134087454D01*
X163881118Y-134029059D01*
X163694486Y-133999500D01*
X163694481Y-133999500D01*
X163505519Y-133999500D01*
X163505514Y-133999500D01*
X163318881Y-134029059D01*
X163139163Y-134087454D01*
X162970800Y-134173240D01*
X162883579Y-134236610D01*
X162817927Y-134284310D01*
X162817925Y-134284312D01*
X162817924Y-134284312D01*
X162684312Y-134417924D01*
X162684312Y-134417925D01*
X162684310Y-134417927D01*
X162636610Y-134483579D01*
X162573240Y-134570800D01*
X162487454Y-134739163D01*
X162429059Y-134918881D01*
X162399500Y-135105513D01*
X97300500Y-135105513D01*
X97300500Y-130336824D01*
X165094500Y-130336824D01*
X165094500Y-130663175D01*
X165131035Y-130987441D01*
X165131038Y-130987455D01*
X165203655Y-131305612D01*
X165203656Y-131305614D01*
X165311438Y-131613640D01*
X165453030Y-131907657D01*
X165453032Y-131907660D01*
X165626654Y-132183979D01*
X165830123Y-132439121D01*
X166060879Y-132669877D01*
X166316021Y-132873346D01*
X166592340Y-133046968D01*
X166886361Y-133188562D01*
X167194387Y-133296344D01*
X167512544Y-133368962D01*
X167512553Y-133368963D01*
X167512558Y-133368964D01*
X167728735Y-133393320D01*
X167836825Y-133405499D01*
X167836828Y-133405500D01*
X167836831Y-133405500D01*
X168163172Y-133405500D01*
X168163173Y-133405499D01*
X168328900Y-133386826D01*
X168487441Y-133368964D01*
X168487444Y-133368963D01*
X168487456Y-133368962D01*
X168805613Y-133296344D01*
X169113639Y-133188562D01*
X169407660Y-133046968D01*
X169683979Y-132873346D01*
X169939121Y-132669877D01*
X170169877Y-132439121D01*
X170373346Y-132183979D01*
X170546968Y-131907660D01*
X170688562Y-131613639D01*
X170796344Y-131305613D01*
X170868962Y-130987456D01*
X170905500Y-130663169D01*
X170905500Y-130336831D01*
X170868962Y-130012544D01*
X170796344Y-129694387D01*
X170688562Y-129386361D01*
X170546968Y-129092340D01*
X170373346Y-128816021D01*
X170169877Y-128560879D01*
X169939121Y-128330123D01*
X169683979Y-128126654D01*
X169407660Y-127953032D01*
X169407657Y-127953030D01*
X169113640Y-127811438D01*
X168805614Y-127703656D01*
X168805612Y-127703655D01*
X168560073Y-127647612D01*
X168487456Y-127631038D01*
X168487453Y-127631037D01*
X168487441Y-127631035D01*
X168163175Y-127594500D01*
X168163169Y-127594500D01*
X167836831Y-127594500D01*
X167836824Y-127594500D01*
X167512558Y-127631035D01*
X167512544Y-127631038D01*
X167194387Y-127703655D01*
X167194385Y-127703656D01*
X166886359Y-127811438D01*
X166592342Y-127953030D01*
X166316022Y-128126653D01*
X166060879Y-128330122D01*
X165830122Y-128560879D01*
X165626653Y-128816022D01*
X165453030Y-129092342D01*
X165311438Y-129386359D01*
X165203656Y-129694385D01*
X165203655Y-129694387D01*
X165131038Y-130012544D01*
X165131035Y-130012558D01*
X165094500Y-130336824D01*
X97300500Y-130336824D01*
X97300500Y-126105513D01*
X104399500Y-126105513D01*
X104399500Y-126294486D01*
X104429059Y-126481118D01*
X104487454Y-126660836D01*
X104533379Y-126750968D01*
X104573240Y-126829199D01*
X104684310Y-126982073D01*
X104817927Y-127115690D01*
X104970801Y-127226760D01*
X105050347Y-127267290D01*
X105139163Y-127312545D01*
X105139165Y-127312545D01*
X105139168Y-127312547D01*
X105235497Y-127343846D01*
X105318881Y-127370940D01*
X105505514Y-127400500D01*
X105505519Y-127400500D01*
X105694486Y-127400500D01*
X105881118Y-127370940D01*
X105938433Y-127352317D01*
X106060832Y-127312547D01*
X106229199Y-127226760D01*
X106338040Y-127147682D01*
X111300000Y-127147682D01*
X111300000Y-127352317D01*
X111332009Y-127554417D01*
X111395244Y-127749031D01*
X111488139Y-127931347D01*
X111550279Y-128016876D01*
X112019668Y-127547487D01*
X112023978Y-127557890D01*
X112095112Y-127664351D01*
X112185649Y-127754888D01*
X112292110Y-127826022D01*
X112302510Y-127830330D01*
X111833121Y-128299719D01*
X111833122Y-128299720D01*
X111918640Y-128361852D01*
X111918649Y-128361858D01*
X112100968Y-128454755D01*
X112295582Y-128517990D01*
X112497683Y-128550000D01*
X112702317Y-128550000D01*
X112904417Y-128517990D01*
X113099031Y-128454755D01*
X113281349Y-128361859D01*
X113366876Y-128299719D01*
X113366877Y-128299718D01*
X112897489Y-127830330D01*
X112907890Y-127826022D01*
X113014351Y-127754888D01*
X113104888Y-127664351D01*
X113176022Y-127557890D01*
X113180330Y-127547488D01*
X113649718Y-128016877D01*
X113649719Y-128016876D01*
X113711859Y-127931349D01*
X113804755Y-127749031D01*
X113867990Y-127554417D01*
X113900000Y-127352317D01*
X113900000Y-127147682D01*
X113867990Y-126945582D01*
X113804755Y-126750968D01*
X113711858Y-126568649D01*
X113711852Y-126568640D01*
X113649720Y-126483122D01*
X113649719Y-126483121D01*
X113180330Y-126952510D01*
X113176022Y-126942110D01*
X113104888Y-126835649D01*
X113014351Y-126745112D01*
X112907890Y-126673978D01*
X112897487Y-126669669D01*
X113366876Y-126200279D01*
X113366876Y-126200278D01*
X113281352Y-126138142D01*
X113217315Y-126105513D01*
X124399500Y-126105513D01*
X124399500Y-126294486D01*
X124429059Y-126481118D01*
X124487454Y-126660836D01*
X124533379Y-126750968D01*
X124573240Y-126829199D01*
X124684310Y-126982073D01*
X124817927Y-127115690D01*
X124970801Y-127226760D01*
X125050347Y-127267290D01*
X125139163Y-127312545D01*
X125139165Y-127312545D01*
X125139168Y-127312547D01*
X125235497Y-127343846D01*
X125318881Y-127370940D01*
X125505514Y-127400500D01*
X125505519Y-127400500D01*
X125694486Y-127400500D01*
X125881118Y-127370940D01*
X125938433Y-127352317D01*
X126060832Y-127312547D01*
X126229199Y-127226760D01*
X126338040Y-127147682D01*
X131300000Y-127147682D01*
X131300000Y-127352317D01*
X131332009Y-127554417D01*
X131395244Y-127749031D01*
X131488139Y-127931347D01*
X131550279Y-128016876D01*
X132019668Y-127547487D01*
X132023978Y-127557890D01*
X132095112Y-127664351D01*
X132185649Y-127754888D01*
X132292110Y-127826022D01*
X132302510Y-127830330D01*
X131833121Y-128299719D01*
X131833122Y-128299720D01*
X131918640Y-128361852D01*
X131918649Y-128361858D01*
X132100968Y-128454755D01*
X132295582Y-128517990D01*
X132497683Y-128550000D01*
X132702317Y-128550000D01*
X132904417Y-128517990D01*
X133099031Y-128454755D01*
X133281349Y-128361859D01*
X133366876Y-128299719D01*
X133366877Y-128299718D01*
X132897489Y-127830330D01*
X132907890Y-127826022D01*
X133014351Y-127754888D01*
X133104888Y-127664351D01*
X133176022Y-127557890D01*
X133180330Y-127547488D01*
X133649718Y-128016877D01*
X133649719Y-128016876D01*
X133711859Y-127931349D01*
X133804755Y-127749031D01*
X133867990Y-127554417D01*
X133900000Y-127352317D01*
X133900000Y-127147682D01*
X133867990Y-126945582D01*
X133804755Y-126750968D01*
X133711858Y-126568649D01*
X133711852Y-126568640D01*
X133649720Y-126483122D01*
X133649719Y-126483121D01*
X133180330Y-126952510D01*
X133176022Y-126942110D01*
X133104888Y-126835649D01*
X133014351Y-126745112D01*
X132907890Y-126673978D01*
X132897487Y-126669669D01*
X133366876Y-126200279D01*
X133366876Y-126200278D01*
X133281352Y-126138142D01*
X133217315Y-126105513D01*
X144399500Y-126105513D01*
X144399500Y-126294486D01*
X144429059Y-126481118D01*
X144487454Y-126660836D01*
X144533379Y-126750968D01*
X144573240Y-126829199D01*
X144684310Y-126982073D01*
X144817927Y-127115690D01*
X144970801Y-127226760D01*
X145050347Y-127267290D01*
X145139163Y-127312545D01*
X145139165Y-127312545D01*
X145139168Y-127312547D01*
X145235497Y-127343846D01*
X145318881Y-127370940D01*
X145505514Y-127400500D01*
X145505519Y-127400500D01*
X145694486Y-127400500D01*
X145881118Y-127370940D01*
X145938433Y-127352317D01*
X146060832Y-127312547D01*
X146229199Y-127226760D01*
X146338040Y-127147682D01*
X151300000Y-127147682D01*
X151300000Y-127352317D01*
X151332009Y-127554417D01*
X151395244Y-127749031D01*
X151488139Y-127931347D01*
X151550279Y-128016876D01*
X152019668Y-127547487D01*
X152023978Y-127557890D01*
X152095112Y-127664351D01*
X152185649Y-127754888D01*
X152292110Y-127826022D01*
X152302510Y-127830330D01*
X151833121Y-128299719D01*
X151833122Y-128299720D01*
X151918640Y-128361852D01*
X151918649Y-128361858D01*
X152100968Y-128454755D01*
X152295582Y-128517990D01*
X152497683Y-128550000D01*
X152702317Y-128550000D01*
X152904417Y-128517990D01*
X153099031Y-128454755D01*
X153281349Y-128361859D01*
X153366876Y-128299719D01*
X153366877Y-128299718D01*
X152897489Y-127830330D01*
X152907890Y-127826022D01*
X153014351Y-127754888D01*
X153104888Y-127664351D01*
X153176022Y-127557890D01*
X153180330Y-127547488D01*
X153649718Y-128016877D01*
X153649719Y-128016876D01*
X153711859Y-127931349D01*
X153804755Y-127749031D01*
X153867990Y-127554417D01*
X153900000Y-127352317D01*
X153900000Y-127147682D01*
X153867990Y-126945582D01*
X153804755Y-126750968D01*
X153711858Y-126568649D01*
X153711852Y-126568640D01*
X153649720Y-126483122D01*
X153649719Y-126483121D01*
X153180330Y-126952510D01*
X153176022Y-126942110D01*
X153104888Y-126835649D01*
X153014351Y-126745112D01*
X152907890Y-126673978D01*
X152897487Y-126669669D01*
X153366876Y-126200279D01*
X153281347Y-126138139D01*
X153099031Y-126045244D01*
X152904417Y-125982009D01*
X152702317Y-125950000D01*
X152497683Y-125950000D01*
X152295582Y-125982009D01*
X152100968Y-126045244D01*
X151918648Y-126138141D01*
X151833122Y-126200278D01*
X151833122Y-126200279D01*
X152302512Y-126669669D01*
X152292110Y-126673978D01*
X152185649Y-126745112D01*
X152095112Y-126835649D01*
X152023978Y-126942110D01*
X152019669Y-126952512D01*
X151550279Y-126483122D01*
X151550278Y-126483122D01*
X151488141Y-126568648D01*
X151395244Y-126750968D01*
X151332009Y-126945582D01*
X151300000Y-127147682D01*
X146338040Y-127147682D01*
X146382073Y-127115690D01*
X146515690Y-126982073D01*
X146626760Y-126829199D01*
X146712547Y-126660832D01*
X146770940Y-126481118D01*
X146800500Y-126294486D01*
X146800500Y-126105513D01*
X146778862Y-125968898D01*
X146787817Y-125899605D01*
X146832813Y-125846153D01*
X146899564Y-125825513D01*
X146901335Y-125825500D01*
X150642851Y-125825500D01*
X150642853Y-125825500D01*
X150725639Y-125803318D01*
X150799862Y-125760465D01*
X152098508Y-124461819D01*
X152159831Y-124428334D01*
X152186189Y-124425500D01*
X160695613Y-124425500D01*
X160762652Y-124445185D01*
X160783294Y-124461818D01*
X160861985Y-124540509D01*
X160861987Y-124540510D01*
X160861988Y-124540511D01*
X160987511Y-124612982D01*
X160987512Y-124612982D01*
X160987515Y-124612984D01*
X161127525Y-124650500D01*
X161127528Y-124650500D01*
X161272472Y-124650500D01*
X161272475Y-124650500D01*
X161412485Y-124612984D01*
X161538015Y-124540509D01*
X161640509Y-124438015D01*
X161712984Y-124312485D01*
X161750500Y-124172475D01*
X161750500Y-124027525D01*
X161712984Y-123887515D01*
X161704803Y-123873346D01*
X161640511Y-123761988D01*
X161640506Y-123761982D01*
X161538017Y-123659493D01*
X161538011Y-123659488D01*
X161412488Y-123587017D01*
X161412489Y-123587017D01*
X161401006Y-123583940D01*
X161272475Y-123549500D01*
X161127525Y-123549500D01*
X160998993Y-123583940D01*
X160987511Y-123587017D01*
X160861988Y-123659488D01*
X160783294Y-123738182D01*
X160721970Y-123771666D01*
X160695613Y-123774500D01*
X152133860Y-123774500D01*
X152066821Y-123754815D01*
X152021066Y-123702011D01*
X152011122Y-123632853D01*
X152040147Y-123569297D01*
X152046179Y-123562819D01*
X152059498Y-123549500D01*
X152169877Y-123439121D01*
X152373346Y-123183979D01*
X152546968Y-122907660D01*
X152688562Y-122613639D01*
X152796344Y-122305613D01*
X152868962Y-121987456D01*
X152905500Y-121663169D01*
X152905500Y-121336831D01*
X152868962Y-121012544D01*
X152796344Y-120694387D01*
X152688562Y-120386361D01*
X152546968Y-120092340D01*
X152373346Y-119816021D01*
X152169877Y-119560879D01*
X151939121Y-119330123D01*
X151683979Y-119126654D01*
X151407660Y-118953032D01*
X151407657Y-118953030D01*
X151113640Y-118811438D01*
X150805614Y-118703656D01*
X150805612Y-118703655D01*
X150560073Y-118647612D01*
X150487456Y-118631038D01*
X150487453Y-118631037D01*
X150487441Y-118631035D01*
X150163175Y-118594500D01*
X150163169Y-118594500D01*
X149836831Y-118594500D01*
X149836824Y-118594500D01*
X149512558Y-118631035D01*
X149512544Y-118631038D01*
X149194387Y-118703655D01*
X149194385Y-118703656D01*
X148886359Y-118811438D01*
X148592342Y-118953030D01*
X148316022Y-119126653D01*
X148060879Y-119330122D01*
X147830122Y-119560879D01*
X147626653Y-119816022D01*
X147453030Y-120092342D01*
X147311438Y-120386359D01*
X147203656Y-120694385D01*
X147203655Y-120694387D01*
X147131038Y-121012544D01*
X147131035Y-121012558D01*
X147094500Y-121336824D01*
X147094500Y-121663175D01*
X147131035Y-121987441D01*
X147131038Y-121987455D01*
X147203655Y-122305612D01*
X147203656Y-122305614D01*
X147311438Y-122613640D01*
X147453030Y-122907657D01*
X147453032Y-122907660D01*
X147626654Y-123183979D01*
X147830123Y-123439121D01*
X148060879Y-123669877D01*
X148316021Y-123873346D01*
X148592340Y-124046968D01*
X148886361Y-124188562D01*
X149194387Y-124296344D01*
X149512544Y-124368962D01*
X149512553Y-124368963D01*
X149512558Y-124368964D01*
X149728735Y-124393320D01*
X149836825Y-124405499D01*
X149836828Y-124405500D01*
X149836831Y-124405500D01*
X150163172Y-124405500D01*
X150163173Y-124405499D01*
X150328900Y-124386826D01*
X150487441Y-124368964D01*
X150487444Y-124368963D01*
X150487456Y-124368962D01*
X150805613Y-124296344D01*
X151113639Y-124188562D01*
X151113654Y-124188554D01*
X151113779Y-124188503D01*
X151113820Y-124188498D01*
X151116923Y-124187413D01*
X151117176Y-124188137D01*
X151183247Y-124181021D01*
X151245733Y-124212283D01*
X151281397Y-124272365D01*
X151278917Y-124342191D01*
X151248936Y-124390736D01*
X150501492Y-125138181D01*
X150440169Y-125171666D01*
X150413811Y-125174500D01*
X146261442Y-125174500D01*
X146205147Y-125160985D01*
X146060836Y-125087454D01*
X145881118Y-125029059D01*
X145694486Y-124999500D01*
X145694481Y-124999500D01*
X145505519Y-124999500D01*
X145505514Y-124999500D01*
X145318881Y-125029059D01*
X145139163Y-125087454D01*
X144970800Y-125173240D01*
X144883579Y-125236610D01*
X144817927Y-125284310D01*
X144817925Y-125284312D01*
X144817924Y-125284312D01*
X144684312Y-125417924D01*
X144684312Y-125417925D01*
X144684310Y-125417927D01*
X144636610Y-125483579D01*
X144573240Y-125570800D01*
X144487454Y-125739163D01*
X144429059Y-125918881D01*
X144399500Y-126105513D01*
X133217315Y-126105513D01*
X133099031Y-126045244D01*
X132904417Y-125982009D01*
X132702317Y-125950000D01*
X132497683Y-125950000D01*
X132295582Y-125982009D01*
X132100968Y-126045244D01*
X131918648Y-126138141D01*
X131833122Y-126200278D01*
X131833122Y-126200279D01*
X132302512Y-126669669D01*
X132292110Y-126673978D01*
X132185649Y-126745112D01*
X132095112Y-126835649D01*
X132023978Y-126942110D01*
X132019669Y-126952512D01*
X131550279Y-126483122D01*
X131550278Y-126483122D01*
X131488141Y-126568648D01*
X131395244Y-126750968D01*
X131332009Y-126945582D01*
X131300000Y-127147682D01*
X126338040Y-127147682D01*
X126382073Y-127115690D01*
X126515690Y-126982073D01*
X126626760Y-126829199D01*
X126712547Y-126660832D01*
X126770940Y-126481118D01*
X126800500Y-126294486D01*
X126800500Y-126105513D01*
X126778862Y-125968898D01*
X126787817Y-125899605D01*
X126832813Y-125846153D01*
X126899564Y-125825513D01*
X126901335Y-125825500D01*
X130642851Y-125825500D01*
X130642853Y-125825500D01*
X130725639Y-125803318D01*
X130799862Y-125760465D01*
X132098508Y-124461819D01*
X132159831Y-124428334D01*
X132186189Y-124425500D01*
X140695613Y-124425500D01*
X140762652Y-124445185D01*
X140783294Y-124461818D01*
X140861985Y-124540509D01*
X140861987Y-124540510D01*
X140861988Y-124540511D01*
X140987511Y-124612982D01*
X140987512Y-124612982D01*
X140987515Y-124612984D01*
X141127525Y-124650500D01*
X141127528Y-124650500D01*
X141272472Y-124650500D01*
X141272475Y-124650500D01*
X141412485Y-124612984D01*
X141538015Y-124540509D01*
X141640509Y-124438015D01*
X141712984Y-124312485D01*
X141750500Y-124172475D01*
X141750500Y-124027525D01*
X141712984Y-123887515D01*
X141704803Y-123873346D01*
X141640511Y-123761988D01*
X141640506Y-123761982D01*
X141538017Y-123659493D01*
X141538011Y-123659488D01*
X141412488Y-123587017D01*
X141412489Y-123587017D01*
X141401006Y-123583940D01*
X141272475Y-123549500D01*
X141127525Y-123549500D01*
X140998993Y-123583940D01*
X140987511Y-123587017D01*
X140861988Y-123659488D01*
X140783294Y-123738182D01*
X140721970Y-123771666D01*
X140695613Y-123774500D01*
X132133860Y-123774500D01*
X132066821Y-123754815D01*
X132021066Y-123702011D01*
X132011122Y-123632853D01*
X132040147Y-123569297D01*
X132046179Y-123562819D01*
X132059498Y-123549500D01*
X132169877Y-123439121D01*
X132373346Y-123183979D01*
X132546968Y-122907660D01*
X132688562Y-122613639D01*
X132796344Y-122305613D01*
X132868962Y-121987456D01*
X132905500Y-121663169D01*
X132905500Y-121336831D01*
X132868962Y-121012544D01*
X132796344Y-120694387D01*
X132688562Y-120386361D01*
X132546968Y-120092340D01*
X132373346Y-119816021D01*
X132169877Y-119560879D01*
X131939121Y-119330123D01*
X131683979Y-119126654D01*
X131407660Y-118953032D01*
X131407657Y-118953030D01*
X131113640Y-118811438D01*
X130805614Y-118703656D01*
X130805612Y-118703655D01*
X130560073Y-118647612D01*
X130487456Y-118631038D01*
X130487453Y-118631037D01*
X130487441Y-118631035D01*
X130163175Y-118594500D01*
X130163169Y-118594500D01*
X129836831Y-118594500D01*
X129836824Y-118594500D01*
X129512558Y-118631035D01*
X129512544Y-118631038D01*
X129194387Y-118703655D01*
X129194385Y-118703656D01*
X128886359Y-118811438D01*
X128592342Y-118953030D01*
X128316022Y-119126653D01*
X128060879Y-119330122D01*
X127830122Y-119560879D01*
X127626653Y-119816022D01*
X127453030Y-120092342D01*
X127311438Y-120386359D01*
X127203656Y-120694385D01*
X127203655Y-120694387D01*
X127131038Y-121012544D01*
X127131035Y-121012558D01*
X127094500Y-121336824D01*
X127094500Y-121663175D01*
X127131035Y-121987441D01*
X127131038Y-121987455D01*
X127203655Y-122305612D01*
X127203656Y-122305614D01*
X127311438Y-122613640D01*
X127453030Y-122907657D01*
X127453032Y-122907660D01*
X127626654Y-123183979D01*
X127830123Y-123439121D01*
X128060879Y-123669877D01*
X128316021Y-123873346D01*
X128592340Y-124046968D01*
X128886361Y-124188562D01*
X129194387Y-124296344D01*
X129512544Y-124368962D01*
X129512553Y-124368963D01*
X129512558Y-124368964D01*
X129728735Y-124393320D01*
X129836825Y-124405499D01*
X129836828Y-124405500D01*
X129836831Y-124405500D01*
X130163172Y-124405500D01*
X130163173Y-124405499D01*
X130328900Y-124386826D01*
X130487441Y-124368964D01*
X130487444Y-124368963D01*
X130487456Y-124368962D01*
X130805613Y-124296344D01*
X131113639Y-124188562D01*
X131113654Y-124188554D01*
X131113779Y-124188503D01*
X131113820Y-124188498D01*
X131116923Y-124187413D01*
X131117176Y-124188137D01*
X131183247Y-124181021D01*
X131245733Y-124212283D01*
X131281397Y-124272365D01*
X131278917Y-124342191D01*
X131248936Y-124390736D01*
X130501492Y-125138181D01*
X130440169Y-125171666D01*
X130413811Y-125174500D01*
X126261442Y-125174500D01*
X126205147Y-125160985D01*
X126060836Y-125087454D01*
X125881118Y-125029059D01*
X125694486Y-124999500D01*
X125694481Y-124999500D01*
X125505519Y-124999500D01*
X125505514Y-124999500D01*
X125318881Y-125029059D01*
X125139163Y-125087454D01*
X124970800Y-125173240D01*
X124883579Y-125236610D01*
X124817927Y-125284310D01*
X124817925Y-125284312D01*
X124817924Y-125284312D01*
X124684312Y-125417924D01*
X124684312Y-125417925D01*
X124684310Y-125417927D01*
X124636610Y-125483579D01*
X124573240Y-125570800D01*
X124487454Y-125739163D01*
X124429059Y-125918881D01*
X124399500Y-126105513D01*
X113217315Y-126105513D01*
X113099031Y-126045244D01*
X112904417Y-125982009D01*
X112702317Y-125950000D01*
X112497683Y-125950000D01*
X112295582Y-125982009D01*
X112100968Y-126045244D01*
X111918648Y-126138141D01*
X111833122Y-126200278D01*
X111833122Y-126200279D01*
X112302512Y-126669669D01*
X112292110Y-126673978D01*
X112185649Y-126745112D01*
X112095112Y-126835649D01*
X112023978Y-126942110D01*
X112019669Y-126952512D01*
X111550279Y-126483122D01*
X111550278Y-126483122D01*
X111488141Y-126568648D01*
X111395244Y-126750968D01*
X111332009Y-126945582D01*
X111300000Y-127147682D01*
X106338040Y-127147682D01*
X106382073Y-127115690D01*
X106515690Y-126982073D01*
X106626760Y-126829199D01*
X106712547Y-126660832D01*
X106770940Y-126481118D01*
X106800500Y-126294486D01*
X106800500Y-126105513D01*
X106778862Y-125968898D01*
X106787817Y-125899605D01*
X106832813Y-125846153D01*
X106899564Y-125825513D01*
X106901335Y-125825500D01*
X110642851Y-125825500D01*
X110642853Y-125825500D01*
X110725639Y-125803318D01*
X110799862Y-125760465D01*
X112098508Y-124461819D01*
X112159831Y-124428334D01*
X112186189Y-124425500D01*
X120695613Y-124425500D01*
X120762652Y-124445185D01*
X120783294Y-124461818D01*
X120861985Y-124540509D01*
X120861987Y-124540510D01*
X120861988Y-124540511D01*
X120987511Y-124612982D01*
X120987512Y-124612982D01*
X120987515Y-124612984D01*
X121127525Y-124650500D01*
X121127528Y-124650500D01*
X121272472Y-124650500D01*
X121272475Y-124650500D01*
X121412485Y-124612984D01*
X121538015Y-124540509D01*
X121640509Y-124438015D01*
X121712984Y-124312485D01*
X121750500Y-124172475D01*
X121750500Y-124027525D01*
X121712984Y-123887515D01*
X121704803Y-123873346D01*
X121640511Y-123761988D01*
X121640506Y-123761982D01*
X121538017Y-123659493D01*
X121538011Y-123659488D01*
X121412488Y-123587017D01*
X121412489Y-123587017D01*
X121401006Y-123583940D01*
X121272475Y-123549500D01*
X121127525Y-123549500D01*
X120998993Y-123583940D01*
X120987511Y-123587017D01*
X120861988Y-123659488D01*
X120783294Y-123738182D01*
X120721970Y-123771666D01*
X120695613Y-123774500D01*
X112133860Y-123774500D01*
X112066821Y-123754815D01*
X112021066Y-123702011D01*
X112011122Y-123632853D01*
X112040147Y-123569297D01*
X112046179Y-123562819D01*
X112059498Y-123549500D01*
X112169877Y-123439121D01*
X112373346Y-123183979D01*
X112546968Y-122907660D01*
X112688562Y-122613639D01*
X112796344Y-122305613D01*
X112868962Y-121987456D01*
X112905500Y-121663169D01*
X112905500Y-121336831D01*
X112868962Y-121012544D01*
X112796344Y-120694387D01*
X112688562Y-120386361D01*
X112546968Y-120092340D01*
X112373346Y-119816021D01*
X112169877Y-119560879D01*
X111939121Y-119330123D01*
X111683979Y-119126654D01*
X111407660Y-118953032D01*
X111407657Y-118953030D01*
X111113640Y-118811438D01*
X110805614Y-118703656D01*
X110805612Y-118703655D01*
X110560073Y-118647612D01*
X110487456Y-118631038D01*
X110487453Y-118631037D01*
X110487441Y-118631035D01*
X110163175Y-118594500D01*
X110163169Y-118594500D01*
X109836831Y-118594500D01*
X109836824Y-118594500D01*
X109512558Y-118631035D01*
X109512544Y-118631038D01*
X109194387Y-118703655D01*
X109194385Y-118703656D01*
X108886359Y-118811438D01*
X108592342Y-118953030D01*
X108316022Y-119126653D01*
X108060879Y-119330122D01*
X107830122Y-119560879D01*
X107626653Y-119816022D01*
X107453030Y-120092342D01*
X107311438Y-120386359D01*
X107203656Y-120694385D01*
X107203655Y-120694387D01*
X107131038Y-121012544D01*
X107131035Y-121012558D01*
X107094500Y-121336824D01*
X107094500Y-121663175D01*
X107131035Y-121987441D01*
X107131038Y-121987455D01*
X107203655Y-122305612D01*
X107203656Y-122305614D01*
X107311438Y-122613640D01*
X107453030Y-122907657D01*
X107453032Y-122907660D01*
X107626654Y-123183979D01*
X107830123Y-123439121D01*
X108060879Y-123669877D01*
X108316021Y-123873346D01*
X108592340Y-124046968D01*
X108886361Y-124188562D01*
X109194387Y-124296344D01*
X109512544Y-124368962D01*
X109512553Y-124368963D01*
X109512558Y-124368964D01*
X109728735Y-124393320D01*
X109836825Y-124405499D01*
X109836828Y-124405500D01*
X109836831Y-124405500D01*
X110163172Y-124405500D01*
X110163173Y-124405499D01*
X110328900Y-124386826D01*
X110487441Y-124368964D01*
X110487444Y-124368963D01*
X110487456Y-124368962D01*
X110805613Y-124296344D01*
X111113639Y-124188562D01*
X111113654Y-124188554D01*
X111113779Y-124188503D01*
X111113820Y-124188498D01*
X111116923Y-124187413D01*
X111117176Y-124188137D01*
X111183247Y-124181021D01*
X111245733Y-124212283D01*
X111281397Y-124272365D01*
X111278917Y-124342191D01*
X111248936Y-124390736D01*
X110501492Y-125138181D01*
X110440169Y-125171666D01*
X110413811Y-125174500D01*
X106261442Y-125174500D01*
X106205147Y-125160985D01*
X106060836Y-125087454D01*
X105881118Y-125029059D01*
X105694486Y-124999500D01*
X105694481Y-124999500D01*
X105505519Y-124999500D01*
X105505514Y-124999500D01*
X105318881Y-125029059D01*
X105139163Y-125087454D01*
X104970800Y-125173240D01*
X104883579Y-125236610D01*
X104817927Y-125284310D01*
X104817925Y-125284312D01*
X104817924Y-125284312D01*
X104684312Y-125417924D01*
X104684312Y-125417925D01*
X104684310Y-125417927D01*
X104636610Y-125483579D01*
X104573240Y-125570800D01*
X104487454Y-125739163D01*
X104429059Y-125918881D01*
X104399500Y-126105513D01*
X97300500Y-126105513D01*
X97300500Y-115827525D01*
X120049500Y-115827525D01*
X120049500Y-115972475D01*
X120068983Y-116045185D01*
X120087017Y-116112488D01*
X120159488Y-116238011D01*
X120159490Y-116238013D01*
X120159491Y-116238015D01*
X120261985Y-116340509D01*
X120261986Y-116340510D01*
X120261988Y-116340511D01*
X120387511Y-116412982D01*
X120387512Y-116412982D01*
X120387515Y-116412984D01*
X120527525Y-116450500D01*
X120527528Y-116450500D01*
X120672472Y-116450500D01*
X120672475Y-116450500D01*
X120812485Y-116412984D01*
X120938015Y-116340509D01*
X121016706Y-116261818D01*
X121078030Y-116228334D01*
X121104387Y-116225500D01*
X147895613Y-116225500D01*
X147962652Y-116245185D01*
X147983294Y-116261818D01*
X148061985Y-116340509D01*
X148061987Y-116340510D01*
X148061988Y-116340511D01*
X148187511Y-116412982D01*
X148187512Y-116412982D01*
X148187515Y-116412984D01*
X148327525Y-116450500D01*
X148327528Y-116450500D01*
X148472472Y-116450500D01*
X148472475Y-116450500D01*
X148612485Y-116412984D01*
X148738015Y-116340509D01*
X148840509Y-116238015D01*
X148912984Y-116112485D01*
X148950500Y-115972475D01*
X148950500Y-115827525D01*
X148912984Y-115687515D01*
X148846098Y-115571666D01*
X148840511Y-115561988D01*
X148840506Y-115561982D01*
X148738017Y-115459493D01*
X148738011Y-115459488D01*
X148612488Y-115387017D01*
X148612489Y-115387017D01*
X148601006Y-115383940D01*
X148472475Y-115349500D01*
X148327525Y-115349500D01*
X148198993Y-115383940D01*
X148187511Y-115387017D01*
X148061988Y-115459488D01*
X147983294Y-115538182D01*
X147921970Y-115571666D01*
X147895613Y-115574500D01*
X142795505Y-115574500D01*
X142728466Y-115554815D01*
X142682711Y-115502011D01*
X142672767Y-115432853D01*
X142701792Y-115369297D01*
X142733504Y-115343114D01*
X142738008Y-115340513D01*
X142738007Y-115340513D01*
X142738015Y-115340509D01*
X142840509Y-115238015D01*
X142912984Y-115112485D01*
X142950500Y-114972475D01*
X142950500Y-114827525D01*
X142912984Y-114687515D01*
X142840509Y-114561985D01*
X142738015Y-114459491D01*
X142738013Y-114459490D01*
X142738011Y-114459488D01*
X142612488Y-114387017D01*
X142612489Y-114387017D01*
X142601006Y-114383940D01*
X142472475Y-114349500D01*
X142361189Y-114349500D01*
X142294150Y-114329815D01*
X142273508Y-114313181D01*
X141792010Y-113831683D01*
X141758525Y-113770360D01*
X141763509Y-113700668D01*
X141805381Y-113644735D01*
X141847595Y-113624229D01*
X141925639Y-113603318D01*
X141999862Y-113560465D01*
X142532802Y-113027525D01*
X152049500Y-113027525D01*
X152049500Y-113172475D01*
X152085175Y-113305613D01*
X152087017Y-113312488D01*
X152159488Y-113438011D01*
X152159490Y-113438013D01*
X152159491Y-113438015D01*
X152261985Y-113540509D01*
X152261986Y-113540510D01*
X152261988Y-113540511D01*
X152387511Y-113612982D01*
X152387512Y-113612982D01*
X152387515Y-113612984D01*
X152527525Y-113650500D01*
X152527528Y-113650500D01*
X152638811Y-113650500D01*
X152705850Y-113670185D01*
X152726492Y-113686819D01*
X155000138Y-115960465D01*
X155074361Y-116003318D01*
X155157147Y-116025500D01*
X162792516Y-116025500D01*
X162859555Y-116045185D01*
X162905310Y-116097989D01*
X162915254Y-116167147D01*
X162886229Y-116230703D01*
X162865401Y-116249818D01*
X162817930Y-116284307D01*
X162817924Y-116284312D01*
X162684312Y-116417924D01*
X162684312Y-116417925D01*
X162684310Y-116417927D01*
X162660644Y-116450500D01*
X162573240Y-116570800D01*
X162487454Y-116739163D01*
X162429059Y-116918881D01*
X162399500Y-117105513D01*
X162399500Y-117294486D01*
X162429059Y-117481118D01*
X162487454Y-117660836D01*
X162533379Y-117750968D01*
X162573240Y-117829199D01*
X162684310Y-117982073D01*
X162817927Y-118115690D01*
X162970801Y-118226760D01*
X163050347Y-118267290D01*
X163139163Y-118312545D01*
X163139165Y-118312545D01*
X163139168Y-118312547D01*
X163235497Y-118343846D01*
X163318881Y-118370940D01*
X163505514Y-118400500D01*
X163505519Y-118400500D01*
X163694486Y-118400500D01*
X163881118Y-118370940D01*
X163938433Y-118352317D01*
X164060832Y-118312547D01*
X164229199Y-118226760D01*
X164338040Y-118147682D01*
X169300000Y-118147682D01*
X169300000Y-118352317D01*
X169332009Y-118554417D01*
X169395244Y-118749031D01*
X169488139Y-118931347D01*
X169550279Y-119016876D01*
X170019668Y-118547487D01*
X170023978Y-118557890D01*
X170095112Y-118664351D01*
X170185649Y-118754888D01*
X170292110Y-118826022D01*
X170302510Y-118830330D01*
X169833121Y-119299719D01*
X169833122Y-119299720D01*
X169918640Y-119361852D01*
X169918649Y-119361858D01*
X170100968Y-119454755D01*
X170295582Y-119517990D01*
X170497683Y-119550000D01*
X170702317Y-119550000D01*
X170904417Y-119517990D01*
X171099031Y-119454755D01*
X171281349Y-119361859D01*
X171366876Y-119299719D01*
X171366877Y-119299718D01*
X170897489Y-118830330D01*
X170907890Y-118826022D01*
X171014351Y-118754888D01*
X171104888Y-118664351D01*
X171176022Y-118557890D01*
X171180330Y-118547488D01*
X171649718Y-119016877D01*
X171649719Y-119016876D01*
X171711859Y-118931349D01*
X171804755Y-118749031D01*
X171867990Y-118554417D01*
X171900000Y-118352317D01*
X171900000Y-118147682D01*
X171867990Y-117945582D01*
X171804755Y-117750968D01*
X171711858Y-117568649D01*
X171711852Y-117568640D01*
X171649720Y-117483122D01*
X171649719Y-117483121D01*
X171180330Y-117952510D01*
X171176022Y-117942110D01*
X171104888Y-117835649D01*
X171014351Y-117745112D01*
X170907890Y-117673978D01*
X170897487Y-117669669D01*
X171366876Y-117200279D01*
X171281347Y-117138139D01*
X171099031Y-117045244D01*
X170904417Y-116982009D01*
X170702317Y-116950000D01*
X170497683Y-116950000D01*
X170295582Y-116982009D01*
X170100968Y-117045244D01*
X169918648Y-117138141D01*
X169833122Y-117200278D01*
X169833122Y-117200279D01*
X170302512Y-117669669D01*
X170292110Y-117673978D01*
X170185649Y-117745112D01*
X170095112Y-117835649D01*
X170023978Y-117942110D01*
X170019669Y-117952512D01*
X169550279Y-117483122D01*
X169550278Y-117483122D01*
X169488141Y-117568648D01*
X169395244Y-117750968D01*
X169332009Y-117945582D01*
X169300000Y-118147682D01*
X164338040Y-118147682D01*
X164382073Y-118115690D01*
X164515690Y-117982073D01*
X164626760Y-117829199D01*
X164712547Y-117660832D01*
X164770940Y-117481118D01*
X164787984Y-117373508D01*
X164800500Y-117294486D01*
X164800500Y-117105513D01*
X164770940Y-116918881D01*
X164712545Y-116739163D01*
X164626759Y-116570800D01*
X164515690Y-116417927D01*
X164382073Y-116284310D01*
X164334598Y-116249817D01*
X164291933Y-116194488D01*
X164285954Y-116124875D01*
X164318560Y-116063080D01*
X164379399Y-116028722D01*
X164407484Y-116025500D01*
X175413811Y-116025500D01*
X175480850Y-116045185D01*
X175501492Y-116061819D01*
X176813181Y-117373508D01*
X176846666Y-117434831D01*
X176849500Y-117461189D01*
X176849500Y-117572475D01*
X176873177Y-117660836D01*
X176887017Y-117712488D01*
X176959488Y-117838011D01*
X176959490Y-117838013D01*
X176959491Y-117838015D01*
X177061985Y-117940509D01*
X177061986Y-117940510D01*
X177061988Y-117940511D01*
X177187511Y-118012982D01*
X177187512Y-118012982D01*
X177187515Y-118012984D01*
X177327525Y-118050500D01*
X177327528Y-118050500D01*
X177472472Y-118050500D01*
X177472475Y-118050500D01*
X177612485Y-118012984D01*
X177738015Y-117940509D01*
X177840509Y-117838015D01*
X177912984Y-117712485D01*
X177950500Y-117572475D01*
X177950500Y-117427525D01*
X177912984Y-117287515D01*
X177840509Y-117161985D01*
X177738015Y-117059491D01*
X177738013Y-117059490D01*
X177738011Y-117059488D01*
X177612488Y-116987017D01*
X177612489Y-116987017D01*
X177593799Y-116982009D01*
X177472475Y-116949500D01*
X177361189Y-116949500D01*
X177294150Y-116929815D01*
X177273508Y-116913181D01*
X175799864Y-115439537D01*
X175799862Y-115439535D01*
X175753875Y-115412984D01*
X175725640Y-115396682D01*
X175684246Y-115385591D01*
X175642853Y-115374500D01*
X175642852Y-115374500D01*
X169270814Y-115374500D01*
X169203775Y-115354815D01*
X169158020Y-115302011D01*
X169148076Y-115232853D01*
X169177101Y-115169297D01*
X169217012Y-115138780D01*
X169271613Y-115112485D01*
X169407660Y-115046968D01*
X169683979Y-114873346D01*
X169939121Y-114669877D01*
X170169877Y-114439121D01*
X170373346Y-114183979D01*
X170546968Y-113907660D01*
X170688562Y-113613639D01*
X170739855Y-113467049D01*
X170780577Y-113410274D01*
X170845529Y-113384526D01*
X170914091Y-113397982D01*
X170955272Y-113432516D01*
X170959489Y-113438012D01*
X170959491Y-113438015D01*
X171061985Y-113540509D01*
X171061986Y-113540510D01*
X171061988Y-113540511D01*
X171187511Y-113612982D01*
X171187512Y-113612982D01*
X171187515Y-113612984D01*
X171327525Y-113650500D01*
X171327528Y-113650500D01*
X171472472Y-113650500D01*
X171472475Y-113650500D01*
X171612485Y-113612984D01*
X171738015Y-113540509D01*
X171816706Y-113461818D01*
X171878030Y-113428334D01*
X171904387Y-113425500D01*
X177095613Y-113425500D01*
X177162652Y-113445185D01*
X177183294Y-113461818D01*
X177261985Y-113540509D01*
X177261987Y-113540510D01*
X177261988Y-113540511D01*
X177387511Y-113612982D01*
X177387512Y-113612982D01*
X177387515Y-113612984D01*
X177527525Y-113650500D01*
X177527528Y-113650500D01*
X177672472Y-113650500D01*
X177672475Y-113650500D01*
X177812485Y-113612984D01*
X177938015Y-113540509D01*
X178040509Y-113438015D01*
X178112984Y-113312485D01*
X178150500Y-113172475D01*
X178150500Y-113027525D01*
X178112984Y-112887515D01*
X178091613Y-112850500D01*
X178040511Y-112761988D01*
X178040506Y-112761982D01*
X177938017Y-112659493D01*
X177938011Y-112659488D01*
X177812488Y-112587017D01*
X177812489Y-112587017D01*
X177790589Y-112581149D01*
X177672475Y-112549500D01*
X177527525Y-112549500D01*
X177409411Y-112581149D01*
X177387511Y-112587017D01*
X177261988Y-112659488D01*
X177183294Y-112738182D01*
X177121970Y-112771666D01*
X177095613Y-112774500D01*
X171904387Y-112774500D01*
X171837348Y-112754815D01*
X171816706Y-112738182D01*
X171778379Y-112699855D01*
X171738015Y-112659491D01*
X171738012Y-112659489D01*
X171738011Y-112659488D01*
X171612488Y-112587017D01*
X171612489Y-112587017D01*
X171590589Y-112581149D01*
X171472475Y-112549500D01*
X171327525Y-112549500D01*
X171209411Y-112581149D01*
X171187511Y-112587017D01*
X171091500Y-112642450D01*
X171023600Y-112658923D01*
X170957573Y-112636071D01*
X170914382Y-112581149D01*
X170905500Y-112535063D01*
X170905500Y-112336828D01*
X170905499Y-112336824D01*
X170896233Y-112254588D01*
X170868962Y-112012544D01*
X170796344Y-111694387D01*
X170688562Y-111386361D01*
X170580509Y-111161988D01*
X170546969Y-111092342D01*
X170546968Y-111092340D01*
X170373346Y-110816021D01*
X170169877Y-110560879D01*
X169939121Y-110330123D01*
X169683979Y-110126654D01*
X169461747Y-109987017D01*
X169407657Y-109953030D01*
X169372750Y-109936220D01*
X169320891Y-109889398D01*
X169302578Y-109821971D01*
X169323626Y-109755347D01*
X169377352Y-109710678D01*
X169426552Y-109700500D01*
X176170614Y-109700500D01*
X176237653Y-109720185D01*
X176258295Y-109736819D01*
X176261985Y-109740509D01*
X176261986Y-109740510D01*
X176261988Y-109740511D01*
X176387511Y-109812982D01*
X176387512Y-109812982D01*
X176387515Y-109812984D01*
X176527525Y-109850500D01*
X176527528Y-109850500D01*
X176672472Y-109850500D01*
X176672475Y-109850500D01*
X176812485Y-109812984D01*
X176938015Y-109740509D01*
X177040509Y-109638015D01*
X177112984Y-109512485D01*
X177150500Y-109372475D01*
X177150500Y-109227525D01*
X177112984Y-109087515D01*
X177112218Y-109086189D01*
X177040511Y-108961988D01*
X177040506Y-108961982D01*
X176938017Y-108859493D01*
X176938011Y-108859488D01*
X176812488Y-108787017D01*
X176812489Y-108787017D01*
X176801006Y-108783940D01*
X176672475Y-108749500D01*
X176527525Y-108749500D01*
X176398993Y-108783940D01*
X176387511Y-108787017D01*
X176261988Y-108859488D01*
X176261982Y-108859493D01*
X176258295Y-108863181D01*
X176196972Y-108896666D01*
X176170614Y-108899500D01*
X160629386Y-108899500D01*
X160562347Y-108879815D01*
X160541705Y-108863181D01*
X160538017Y-108859493D01*
X160538011Y-108859488D01*
X160412488Y-108787017D01*
X160412489Y-108787017D01*
X160401006Y-108783940D01*
X160272475Y-108749500D01*
X160127525Y-108749500D01*
X159998993Y-108783940D01*
X159987511Y-108787017D01*
X159861988Y-108859488D01*
X159861982Y-108859493D01*
X159759493Y-108961982D01*
X159759488Y-108961988D01*
X159687017Y-109087511D01*
X159687016Y-109087515D01*
X159649500Y-109227525D01*
X159649500Y-109372475D01*
X159682334Y-109495010D01*
X159687017Y-109512488D01*
X159759488Y-109638011D01*
X159759490Y-109638013D01*
X159759491Y-109638015D01*
X159861985Y-109740509D01*
X159861986Y-109740510D01*
X159861988Y-109740511D01*
X159987511Y-109812982D01*
X159987512Y-109812982D01*
X159987515Y-109812984D01*
X160127525Y-109850500D01*
X160127528Y-109850500D01*
X160272472Y-109850500D01*
X160272475Y-109850500D01*
X160412485Y-109812984D01*
X160538015Y-109740509D01*
X160541705Y-109736819D01*
X160603028Y-109703334D01*
X160629386Y-109700500D01*
X166573448Y-109700500D01*
X166640487Y-109720185D01*
X166686242Y-109772989D01*
X166696186Y-109842147D01*
X166667161Y-109905703D01*
X166627250Y-109936220D01*
X166592342Y-109953030D01*
X166316022Y-110126653D01*
X166060879Y-110330122D01*
X165830122Y-110560879D01*
X165626653Y-110816022D01*
X165453030Y-111092342D01*
X165311438Y-111386359D01*
X165203656Y-111694385D01*
X165203655Y-111694387D01*
X165131038Y-112012544D01*
X165131035Y-112012558D01*
X165094500Y-112336824D01*
X165094500Y-112663175D01*
X165131035Y-112987441D01*
X165131038Y-112987455D01*
X165203655Y-113305612D01*
X165203656Y-113305614D01*
X165311438Y-113613640D01*
X165453030Y-113907657D01*
X165453032Y-113907660D01*
X165626654Y-114183979D01*
X165830123Y-114439121D01*
X166060879Y-114669877D01*
X166316021Y-114873346D01*
X166473780Y-114972472D01*
X166592342Y-115046969D01*
X166782988Y-115138780D01*
X166834847Y-115185603D01*
X166853160Y-115253030D01*
X166832112Y-115319654D01*
X166778386Y-115364322D01*
X166729186Y-115374500D01*
X155386189Y-115374500D01*
X155319150Y-115354815D01*
X155298508Y-115338181D01*
X153186819Y-113226492D01*
X153153334Y-113165169D01*
X153150500Y-113138811D01*
X153150500Y-113027527D01*
X153150500Y-113027525D01*
X153112984Y-112887515D01*
X153091613Y-112850500D01*
X153040511Y-112761988D01*
X153040506Y-112761982D01*
X152938017Y-112659493D01*
X152938011Y-112659488D01*
X152812488Y-112587017D01*
X152812489Y-112587017D01*
X152790589Y-112581149D01*
X152672475Y-112549500D01*
X152527525Y-112549500D01*
X152409411Y-112581149D01*
X152387511Y-112587017D01*
X152261988Y-112659488D01*
X152261982Y-112659493D01*
X152159493Y-112761982D01*
X152159488Y-112761988D01*
X152087017Y-112887511D01*
X152087016Y-112887515D01*
X152049500Y-113027525D01*
X142532802Y-113027525D01*
X142660465Y-112899862D01*
X142703318Y-112825639D01*
X142725500Y-112742853D01*
X142725500Y-112657147D01*
X142725500Y-112004386D01*
X142745185Y-111937347D01*
X142761819Y-111916705D01*
X142798709Y-111879815D01*
X142840509Y-111838015D01*
X142912984Y-111712485D01*
X142950500Y-111572475D01*
X142950500Y-111427525D01*
X142912984Y-111287515D01*
X142881186Y-111232440D01*
X142840511Y-111161988D01*
X142840506Y-111161982D01*
X142738017Y-111059493D01*
X142738015Y-111059491D01*
X142738012Y-111059489D01*
X142738008Y-111059486D01*
X142733504Y-111056886D01*
X142685289Y-111006319D01*
X142672067Y-110937712D01*
X142698035Y-110872847D01*
X142754950Y-110832319D01*
X142795505Y-110825500D01*
X144895613Y-110825500D01*
X144962652Y-110845185D01*
X144983294Y-110861818D01*
X145061985Y-110940509D01*
X145061987Y-110940510D01*
X145061988Y-110940511D01*
X145187511Y-111012982D01*
X145187512Y-111012982D01*
X145187515Y-111012984D01*
X145327525Y-111050500D01*
X145327528Y-111050500D01*
X145472472Y-111050500D01*
X145472475Y-111050500D01*
X145612485Y-111012984D01*
X145738015Y-110940509D01*
X145840509Y-110838015D01*
X145912984Y-110712485D01*
X145950500Y-110572475D01*
X145950500Y-110427525D01*
X145912984Y-110287515D01*
X145846620Y-110172570D01*
X145840511Y-110161988D01*
X145840506Y-110161982D01*
X145738017Y-110059493D01*
X145738015Y-110059491D01*
X145738012Y-110059489D01*
X145738008Y-110059486D01*
X145733504Y-110056886D01*
X145685289Y-110006319D01*
X145672067Y-109937712D01*
X145698035Y-109872847D01*
X145754950Y-109832319D01*
X145795505Y-109825500D01*
X148613811Y-109825500D01*
X148680850Y-109845185D01*
X148701492Y-109861819D01*
X149213181Y-110373507D01*
X149246666Y-110434830D01*
X149249500Y-110461188D01*
X149249500Y-110572475D01*
X149253848Y-110588700D01*
X149287017Y-110712488D01*
X149359488Y-110838011D01*
X149359490Y-110838013D01*
X149359491Y-110838015D01*
X149461985Y-110940509D01*
X149461986Y-110940510D01*
X149461988Y-110940511D01*
X149587511Y-111012982D01*
X149587512Y-111012982D01*
X149587515Y-111012984D01*
X149727525Y-111050500D01*
X149727528Y-111050500D01*
X149872472Y-111050500D01*
X149872475Y-111050500D01*
X150012485Y-111012984D01*
X150138015Y-110940509D01*
X150240509Y-110838015D01*
X150312984Y-110712485D01*
X150350500Y-110572475D01*
X150350500Y-110427525D01*
X150312984Y-110287515D01*
X150246620Y-110172570D01*
X150240511Y-110161988D01*
X150240506Y-110161982D01*
X150138017Y-110059493D01*
X150138011Y-110059488D01*
X150012488Y-109987017D01*
X150012489Y-109987017D01*
X150001006Y-109983940D01*
X149872475Y-109949500D01*
X149761188Y-109949500D01*
X149694149Y-109929815D01*
X149673507Y-109913181D01*
X149341610Y-109581284D01*
X148999862Y-109239535D01*
X148951592Y-109211666D01*
X148925640Y-109196682D01*
X148884246Y-109185591D01*
X148842853Y-109174500D01*
X148842852Y-109174500D01*
X140904387Y-109174500D01*
X140837348Y-109154815D01*
X140816706Y-109138182D01*
X140791009Y-109112485D01*
X140738015Y-109059491D01*
X140738012Y-109059489D01*
X140738011Y-109059488D01*
X140612488Y-108987017D01*
X140612489Y-108987017D01*
X140601006Y-108983940D01*
X140472475Y-108949500D01*
X140327525Y-108949500D01*
X140198993Y-108983940D01*
X140187511Y-108987017D01*
X140061988Y-109059488D01*
X140061982Y-109059493D01*
X139959493Y-109161982D01*
X139959488Y-109161988D01*
X139887017Y-109287511D01*
X139887016Y-109287515D01*
X139849500Y-109427525D01*
X139849500Y-109572475D01*
X139877096Y-109675462D01*
X139887017Y-109712488D01*
X139959488Y-109838011D01*
X139959490Y-109838013D01*
X139959491Y-109838015D01*
X140061985Y-109940509D01*
X140061986Y-109940510D01*
X140061988Y-109940511D01*
X140187511Y-110012982D01*
X140187512Y-110012982D01*
X140187515Y-110012984D01*
X140327525Y-110050500D01*
X140327528Y-110050500D01*
X140472472Y-110050500D01*
X140472475Y-110050500D01*
X140612485Y-110012984D01*
X140738015Y-109940509D01*
X140816706Y-109861818D01*
X140843636Y-109847113D01*
X140869452Y-109830523D01*
X140875654Y-109829631D01*
X140878030Y-109828334D01*
X140904387Y-109825500D01*
X141004495Y-109825500D01*
X141071534Y-109845185D01*
X141117289Y-109897989D01*
X141127233Y-109967147D01*
X141098208Y-110030703D01*
X141066496Y-110056886D01*
X141061991Y-110059486D01*
X141061982Y-110059493D01*
X140959493Y-110161982D01*
X140959488Y-110161988D01*
X140887017Y-110287511D01*
X140887016Y-110287515D01*
X140849500Y-110427525D01*
X140849500Y-110572475D01*
X140853848Y-110588700D01*
X140887017Y-110712488D01*
X140959488Y-110838011D01*
X140959490Y-110838013D01*
X140959491Y-110838015D01*
X141061985Y-110940509D01*
X141061986Y-110940510D01*
X141061988Y-110940511D01*
X141187511Y-111012982D01*
X141187512Y-111012982D01*
X141187515Y-111012984D01*
X141327525Y-111050500D01*
X141327528Y-111050500D01*
X141472472Y-111050500D01*
X141472475Y-111050500D01*
X141612485Y-111012984D01*
X141738015Y-110940509D01*
X141816706Y-110861818D01*
X141843636Y-110847113D01*
X141869452Y-110830523D01*
X141875654Y-110829631D01*
X141878030Y-110828334D01*
X141904387Y-110825500D01*
X142004495Y-110825500D01*
X142071534Y-110845185D01*
X142117289Y-110897989D01*
X142127233Y-110967147D01*
X142098208Y-111030703D01*
X142066496Y-111056886D01*
X142061991Y-111059486D01*
X142061982Y-111059493D01*
X141959493Y-111161982D01*
X141959488Y-111161988D01*
X141887017Y-111287511D01*
X141887016Y-111287515D01*
X141849500Y-111427525D01*
X141849500Y-111427527D01*
X141849500Y-111572474D01*
X141883403Y-111699003D01*
X141881740Y-111768853D01*
X141842577Y-111826715D01*
X141778349Y-111854219D01*
X141709447Y-111842632D01*
X141701641Y-111838490D01*
X141612485Y-111787016D01*
X141472475Y-111749500D01*
X141327525Y-111749500D01*
X141198993Y-111783940D01*
X141187511Y-111787017D01*
X141061988Y-111859488D01*
X141061982Y-111859493D01*
X141058295Y-111863181D01*
X140996972Y-111896666D01*
X140970614Y-111899500D01*
X132510017Y-111899500D01*
X132442978Y-111879815D01*
X132397223Y-111827011D01*
X132387279Y-111757853D01*
X132416304Y-111694297D01*
X132422336Y-111687819D01*
X132481297Y-111628857D01*
X132481300Y-111628854D01*
X132561792Y-111508390D01*
X132617235Y-111374538D01*
X132645500Y-111232440D01*
X132645500Y-111087560D01*
X132617235Y-110945462D01*
X132576498Y-110847113D01*
X132561795Y-110811616D01*
X132561788Y-110811603D01*
X132481300Y-110691146D01*
X132481297Y-110691142D01*
X132378854Y-110588699D01*
X132258387Y-110508206D01*
X132253017Y-110505336D01*
X132253354Y-110504704D01*
X132218715Y-110481557D01*
X131972703Y-110235545D01*
X132045095Y-110216148D01*
X132124905Y-110170070D01*
X132190070Y-110104905D01*
X132236148Y-110025095D01*
X132255545Y-109952704D01*
X132625290Y-110322449D01*
X132649967Y-110285520D01*
X132649970Y-110285513D01*
X132712909Y-110133564D01*
X132712912Y-110133554D01*
X132745000Y-109972242D01*
X132745000Y-109807757D01*
X132712912Y-109646445D01*
X132712909Y-109646435D01*
X132649969Y-109494483D01*
X132649964Y-109494474D01*
X132625291Y-109457550D01*
X132625290Y-109457549D01*
X132255545Y-109827295D01*
X132236148Y-109754905D01*
X132190070Y-109675095D01*
X132124905Y-109609930D01*
X132045095Y-109563852D01*
X131972703Y-109544454D01*
X132262158Y-109255000D01*
X131972703Y-108965545D01*
X132045095Y-108946148D01*
X132124905Y-108900070D01*
X132190070Y-108834905D01*
X132236148Y-108755095D01*
X132255545Y-108682704D01*
X132625290Y-109052449D01*
X132649967Y-109015520D01*
X132649970Y-109015513D01*
X132712909Y-108863564D01*
X132712912Y-108863554D01*
X132745000Y-108702242D01*
X132745000Y-108537757D01*
X132712912Y-108376445D01*
X132712909Y-108376435D01*
X132649969Y-108224483D01*
X132649964Y-108224474D01*
X132625291Y-108187550D01*
X132625290Y-108187549D01*
X132255545Y-108557295D01*
X132236148Y-108484905D01*
X132190070Y-108405095D01*
X132124905Y-108339930D01*
X132045095Y-108293852D01*
X131972703Y-108274454D01*
X132262158Y-107985000D01*
X131972703Y-107695545D01*
X132045095Y-107676148D01*
X132124905Y-107630070D01*
X132190070Y-107564905D01*
X132236148Y-107485095D01*
X132255545Y-107412704D01*
X132625290Y-107782449D01*
X132649967Y-107745520D01*
X132649970Y-107745513D01*
X132712909Y-107593564D01*
X132712912Y-107593554D01*
X132745000Y-107432242D01*
X132745000Y-107267757D01*
X132712912Y-107106445D01*
X132712909Y-107106435D01*
X132649969Y-106954483D01*
X132649964Y-106954474D01*
X132625291Y-106917550D01*
X132625290Y-106917549D01*
X132255545Y-107287295D01*
X132236148Y-107214905D01*
X132190070Y-107135095D01*
X132124905Y-107069930D01*
X132045095Y-107023852D01*
X131972703Y-107004454D01*
X132262158Y-106715000D01*
X131972703Y-106425545D01*
X132045095Y-106406148D01*
X132124905Y-106360070D01*
X132190070Y-106294905D01*
X132236148Y-106215095D01*
X132255545Y-106142704D01*
X132625290Y-106512449D01*
X132649967Y-106475520D01*
X132649970Y-106475513D01*
X132712909Y-106323564D01*
X132712912Y-106323554D01*
X132745000Y-106162242D01*
X132745000Y-105997757D01*
X132712912Y-105836445D01*
X132712909Y-105836435D01*
X132649969Y-105684483D01*
X132649964Y-105684474D01*
X132625291Y-105647550D01*
X132625290Y-105647549D01*
X132255545Y-106017295D01*
X132236148Y-105944905D01*
X132190070Y-105865095D01*
X132124905Y-105799930D01*
X132045095Y-105753852D01*
X131972703Y-105734454D01*
X132262158Y-105445000D01*
X131972703Y-105155545D01*
X132045095Y-105136148D01*
X132124905Y-105090070D01*
X132190070Y-105024905D01*
X132236148Y-104945095D01*
X132255545Y-104872704D01*
X132625290Y-105242449D01*
X132649967Y-105205520D01*
X132649970Y-105205513D01*
X132712909Y-105053564D01*
X132712912Y-105053554D01*
X132745000Y-104892242D01*
X132745000Y-104727757D01*
X132719856Y-104601354D01*
X132726083Y-104531762D01*
X132768946Y-104476585D01*
X132834835Y-104453340D01*
X132902832Y-104469408D01*
X132929154Y-104489481D01*
X134139535Y-105699861D01*
X135339533Y-106899859D01*
X135339535Y-106899862D01*
X135400138Y-106960465D01*
X135406838Y-106964333D01*
X135474361Y-107003318D01*
X135557147Y-107025501D01*
X135557149Y-107025501D01*
X135650449Y-107025501D01*
X135650465Y-107025500D01*
X153095613Y-107025500D01*
X153162652Y-107045185D01*
X153183294Y-107061818D01*
X153261985Y-107140509D01*
X153261987Y-107140510D01*
X153261988Y-107140511D01*
X153387511Y-107212982D01*
X153387512Y-107212982D01*
X153387515Y-107212984D01*
X153527525Y-107250500D01*
X153527528Y-107250500D01*
X153672472Y-107250500D01*
X153672475Y-107250500D01*
X153812485Y-107212984D01*
X153938015Y-107140509D01*
X154040509Y-107038015D01*
X154043112Y-107033505D01*
X154093677Y-106985290D01*
X154162284Y-106972065D01*
X154227149Y-106998031D01*
X154267679Y-107054945D01*
X154274500Y-107095504D01*
X154274500Y-107742852D01*
X154296682Y-107825640D01*
X154318108Y-107862750D01*
X154339535Y-107899862D01*
X154339537Y-107899864D01*
X155213181Y-108773508D01*
X155246666Y-108834831D01*
X155249500Y-108861189D01*
X155249500Y-108972475D01*
X155280684Y-109088853D01*
X155287017Y-109112488D01*
X155359488Y-109238011D01*
X155359490Y-109238013D01*
X155359491Y-109238015D01*
X155461985Y-109340509D01*
X155461986Y-109340510D01*
X155461988Y-109340511D01*
X155587511Y-109412982D01*
X155587512Y-109412982D01*
X155587515Y-109412984D01*
X155727525Y-109450500D01*
X155727528Y-109450500D01*
X155872472Y-109450500D01*
X155872475Y-109450500D01*
X156012485Y-109412984D01*
X156138015Y-109340509D01*
X156240509Y-109238015D01*
X156312984Y-109112485D01*
X156350500Y-108972475D01*
X156350500Y-108827525D01*
X156312984Y-108687515D01*
X156300607Y-108666078D01*
X156240511Y-108561988D01*
X156240506Y-108561982D01*
X156138017Y-108459493D01*
X156138011Y-108459488D01*
X156012488Y-108387017D01*
X156012489Y-108387017D01*
X156001006Y-108383940D01*
X155872475Y-108349500D01*
X155761189Y-108349500D01*
X155694150Y-108329815D01*
X155673508Y-108313181D01*
X154961819Y-107601492D01*
X154928334Y-107540169D01*
X154925500Y-107513811D01*
X154925500Y-106257149D01*
X154925500Y-106257147D01*
X154903318Y-106174362D01*
X154895295Y-106160465D01*
X154860469Y-106100144D01*
X154860463Y-106100136D01*
X152260327Y-103500000D01*
X175550000Y-103500000D01*
X175597075Y-103977969D01*
X175736496Y-104437578D01*
X175962895Y-104861141D01*
X175962899Y-104861148D01*
X176267587Y-105232411D01*
X176638850Y-105537099D01*
X176638857Y-105537103D01*
X177062420Y-105763502D01*
X177062422Y-105763502D01*
X177062425Y-105763504D01*
X177522028Y-105902923D01*
X177522027Y-105902923D01*
X177569104Y-105907559D01*
X178000000Y-105950000D01*
X178477971Y-105902923D01*
X178937574Y-105763504D01*
X179361147Y-105537100D01*
X179732411Y-105232411D01*
X180037100Y-104861147D01*
X180180117Y-104593581D01*
X180263502Y-104437578D01*
X180263502Y-104437577D01*
X180263504Y-104437574D01*
X180402923Y-103977971D01*
X180450000Y-103500000D01*
X180402923Y-103022028D01*
X180263504Y-102562425D01*
X180263502Y-102562422D01*
X180263502Y-102562420D01*
X180037103Y-102138857D01*
X180037099Y-102138850D01*
X179732411Y-101767587D01*
X179361148Y-101462899D01*
X179361141Y-101462895D01*
X178937578Y-101236496D01*
X178606797Y-101136155D01*
X178477971Y-101097076D01*
X178477969Y-101097075D01*
X178477971Y-101097075D01*
X178000000Y-101050000D01*
X177522029Y-101097075D01*
X177062420Y-101236496D01*
X176638857Y-101462895D01*
X176638850Y-101462899D01*
X176267587Y-101767587D01*
X175962899Y-102138850D01*
X175962895Y-102138857D01*
X175736496Y-102562420D01*
X175597075Y-103022029D01*
X175550000Y-103500000D01*
X152260327Y-103500000D01*
X152017987Y-103257660D01*
X151984502Y-103196337D01*
X151989486Y-103126645D01*
X152031358Y-103070712D01*
X152073569Y-103050206D01*
X152212485Y-103012984D01*
X152338015Y-102940509D01*
X152416706Y-102861818D01*
X152478030Y-102828334D01*
X152504387Y-102825500D01*
X168695613Y-102825500D01*
X168762652Y-102845185D01*
X168783294Y-102861818D01*
X168861985Y-102940509D01*
X168861987Y-102940510D01*
X168861988Y-102940511D01*
X168987511Y-103012982D01*
X168987512Y-103012982D01*
X168987515Y-103012984D01*
X169127525Y-103050500D01*
X169127528Y-103050500D01*
X169272472Y-103050500D01*
X169272475Y-103050500D01*
X169412485Y-103012984D01*
X169538015Y-102940509D01*
X169640509Y-102838015D01*
X169712984Y-102712485D01*
X169750500Y-102572475D01*
X169750500Y-102427525D01*
X169712984Y-102287515D01*
X169646098Y-102171666D01*
X169640511Y-102161988D01*
X169640506Y-102161982D01*
X169538017Y-102059493D01*
X169538011Y-102059488D01*
X169412488Y-101987017D01*
X169412489Y-101987017D01*
X169401006Y-101983940D01*
X169272475Y-101949500D01*
X169127525Y-101949500D01*
X168998993Y-101983940D01*
X168987511Y-101987017D01*
X168861988Y-102059488D01*
X168783294Y-102138182D01*
X168721970Y-102171666D01*
X168695613Y-102174500D01*
X152504387Y-102174500D01*
X152437348Y-102154815D01*
X152416706Y-102138182D01*
X152338015Y-102059491D01*
X152338012Y-102059489D01*
X152338011Y-102059488D01*
X152212488Y-101987017D01*
X152212489Y-101987017D01*
X152201006Y-101983940D01*
X152072475Y-101949500D01*
X151927525Y-101949500D01*
X151798993Y-101983940D01*
X151787511Y-101987017D01*
X151661988Y-102059488D01*
X151661982Y-102059493D01*
X151559493Y-102161982D01*
X151559488Y-102161988D01*
X151487017Y-102287511D01*
X151487016Y-102287515D01*
X151449500Y-102427525D01*
X151449500Y-102572475D01*
X151461807Y-102618408D01*
X151460145Y-102688256D01*
X151420983Y-102746119D01*
X151356754Y-102773623D01*
X151342033Y-102774500D01*
X130650465Y-102774500D01*
X130650449Y-102774499D01*
X130642853Y-102774499D01*
X130557148Y-102774499D01*
X130515755Y-102785590D01*
X130474360Y-102796682D01*
X130474355Y-102796685D01*
X130400144Y-102839530D01*
X130400136Y-102839536D01*
X129339537Y-103900135D01*
X129339533Y-103900141D01*
X129296682Y-103974359D01*
X129292520Y-103989896D01*
X129274500Y-104057147D01*
X129274500Y-105542852D01*
X129296682Y-105625640D01*
X129309332Y-105647549D01*
X129339535Y-105699862D01*
X129739534Y-106099861D01*
X129739535Y-106099862D01*
X129800138Y-106160465D01*
X129871186Y-106201484D01*
X129919401Y-106252050D01*
X129930802Y-106284675D01*
X129932762Y-106294528D01*
X129932766Y-106294542D01*
X129988204Y-106428383D01*
X129988211Y-106428396D01*
X130068699Y-106548853D01*
X130068702Y-106548857D01*
X130147164Y-106627319D01*
X130180649Y-106688642D01*
X130175665Y-106758334D01*
X130147164Y-106802681D01*
X130068702Y-106881142D01*
X130068699Y-106881146D01*
X129988211Y-107001603D01*
X129988204Y-107001616D01*
X129932766Y-107135457D01*
X129932763Y-107135469D01*
X129905070Y-107274691D01*
X129872685Y-107336602D01*
X129811969Y-107371176D01*
X129783453Y-107374500D01*
X129757147Y-107374500D01*
X129674359Y-107396682D01*
X129600138Y-107439535D01*
X129600135Y-107439537D01*
X128339537Y-108700135D01*
X128339533Y-108700141D01*
X128296681Y-108774361D01*
X128296682Y-108774362D01*
X128274500Y-108857147D01*
X128274500Y-112542853D01*
X128286334Y-112587016D01*
X128296682Y-112625637D01*
X128296685Y-112625644D01*
X128339530Y-112699855D01*
X128339536Y-112699863D01*
X128407203Y-112767530D01*
X128407209Y-112767535D01*
X128935193Y-113295520D01*
X128935203Y-113295531D01*
X128939533Y-113299861D01*
X128939534Y-113299862D01*
X129000137Y-113360465D01*
X129000139Y-113360466D01*
X129000143Y-113360469D01*
X129041812Y-113384526D01*
X129074361Y-113403318D01*
X129157146Y-113425500D01*
X129242851Y-113425500D01*
X140413811Y-113425500D01*
X140480850Y-113445185D01*
X140501492Y-113461819D01*
X141813181Y-114773508D01*
X141846666Y-114834831D01*
X141849500Y-114861189D01*
X141849500Y-114972475D01*
X141869461Y-115046968D01*
X141887017Y-115112488D01*
X141959488Y-115238011D01*
X141959490Y-115238013D01*
X141959491Y-115238015D01*
X142061985Y-115340509D01*
X142061988Y-115340510D01*
X142061991Y-115340513D01*
X142066496Y-115343114D01*
X142114711Y-115393681D01*
X142127933Y-115462288D01*
X142101965Y-115527153D01*
X142045050Y-115567681D01*
X142004495Y-115574500D01*
X121104387Y-115574500D01*
X121037348Y-115554815D01*
X121016706Y-115538182D01*
X120980535Y-115502011D01*
X120938015Y-115459491D01*
X120938012Y-115459489D01*
X120938011Y-115459488D01*
X120812488Y-115387017D01*
X120812489Y-115387017D01*
X120801006Y-115383940D01*
X120672475Y-115349500D01*
X120527525Y-115349500D01*
X120398993Y-115383940D01*
X120387511Y-115387017D01*
X120261988Y-115459488D01*
X120261982Y-115459493D01*
X120159493Y-115561982D01*
X120159488Y-115561988D01*
X120087017Y-115687511D01*
X120087016Y-115687515D01*
X120049500Y-115827525D01*
X97300500Y-115827525D01*
X97300500Y-103500000D01*
X97550000Y-103500000D01*
X97597075Y-103977969D01*
X97736496Y-104437578D01*
X97962895Y-104861141D01*
X97962899Y-104861148D01*
X98267587Y-105232411D01*
X98638850Y-105537099D01*
X98638857Y-105537103D01*
X99062420Y-105763502D01*
X99062422Y-105763502D01*
X99062425Y-105763504D01*
X99522028Y-105902923D01*
X99522027Y-105902923D01*
X99569104Y-105907559D01*
X100000000Y-105950000D01*
X100477971Y-105902923D01*
X100937574Y-105763504D01*
X101361147Y-105537100D01*
X101732411Y-105232411D01*
X102037100Y-104861147D01*
X102180117Y-104593581D01*
X102263502Y-104437578D01*
X102263502Y-104437577D01*
X102263504Y-104437574D01*
X102402923Y-103977971D01*
X102450000Y-103500000D01*
X102402923Y-103022028D01*
X102263504Y-102562425D01*
X102263502Y-102562422D01*
X102263502Y-102562420D01*
X102037103Y-102138857D01*
X102037099Y-102138850D01*
X101732411Y-101767587D01*
X101361148Y-101462899D01*
X101361141Y-101462895D01*
X100937578Y-101236496D01*
X100606797Y-101136155D01*
X100477971Y-101097076D01*
X100477969Y-101097075D01*
X100477971Y-101097075D01*
X100000000Y-101050000D01*
X99522029Y-101097075D01*
X99062420Y-101236496D01*
X98638857Y-101462895D01*
X98638850Y-101462899D01*
X98267587Y-101767587D01*
X97962899Y-102138850D01*
X97962895Y-102138857D01*
X97736496Y-102562420D01*
X97597075Y-103022029D01*
X97550000Y-103500000D01*
X97300500Y-103500000D01*
X97300500Y-101516660D01*
X97300882Y-101506939D01*
X97305446Y-101448904D01*
X97309247Y-101400562D01*
X97312300Y-101381300D01*
X97333396Y-101293583D01*
X97339374Y-101275183D01*
X97373866Y-101191829D01*
X97382709Y-101174469D01*
X97429760Y-101097695D01*
X97441181Y-101081975D01*
X97499722Y-101013440D01*
X97513440Y-100999722D01*
X97581975Y-100941181D01*
X97597695Y-100929760D01*
X97674469Y-100882709D01*
X97691829Y-100873866D01*
X97775183Y-100839374D01*
X97793583Y-100833396D01*
X97881300Y-100812300D01*
X97900562Y-100809247D01*
X97982366Y-100802814D01*
X98006940Y-100800882D01*
X98016661Y-100800500D01*
X179983292Y-100800500D01*
X179993037Y-100800883D01*
G37*
%TD.AperFunction*%
%TD*%
M02*
