%TF.GenerationSoftware,KiCad,Pcbnew,9.0.9-9.0.9~ubuntu24.04.1*%
%TF.CreationDate,2026-09-29T18:01:03+00:00*%
%TF.ProjectId,key-board-lh,6b65792d-626f-4617-9264-2d6c682e6b69,A*%
%TF.SameCoordinates,Original*%
%TF.FileFunction,Copper,L1,Top*%
%TF.FilePolarity,Positive*%
%FSLAX46Y46*%
G04 Gerber Fmt 4.6, Leading zero omitted, Abs format (unit mm)*
G04 Created by KiCad (PCBNEW 9.0.9-9.0.9~ubuntu24.04.1) date 2026-09-29 18:01:03*
%MOMM*%
%LPD*%
G01*
G04 APERTURE LIST*
%TA.AperFunction,ComponentPad*%
%ADD10C,2.600000*%
%TD*%
%TA.AperFunction,ComponentPad*%
%ADD11R,1.500000X1.070000*%
%TD*%
%TA.AperFunction,ComponentPad*%
%ADD12O,1.500000X1.070000*%
%TD*%
%TA.AperFunction,ComponentPad*%
%ADD13C,3.100000*%
%TD*%
%TA.AperFunction,ConnectorPad*%
%ADD14C,5.400000*%
%TD*%
%TA.AperFunction,ViaPad*%
%ADD15C,0.700000*%
%TD*%
%TA.AperFunction,Conductor*%
%ADD16C,0.250000*%
%TD*%
%TA.AperFunction,Conductor*%
%ADD17C,0.400000*%
%TD*%
G04 APERTURE END LIST*
D10*
%TO.P,SW2,1*%
%TO.N,/LH2/SWITCH_LEG*%
X125600000Y-126200000D03*
%TO.P,SW2,2*%
%TO.N,GND_CHAIN*%
X132600000Y-127250000D03*
%TD*%
%TO.P,SW1,1*%
%TO.N,/LH1/SWITCH_LEG*%
X105600000Y-126200000D03*
%TO.P,SW1,2*%
%TO.N,GND_CHAIN*%
X112600000Y-127250000D03*
%TD*%
%TO.P,SW3,1*%
%TO.N,/LH3/SWITCH_LEG*%
X145600000Y-126200000D03*
%TO.P,SW3,2*%
%TO.N,GND_CHAIN*%
X152600000Y-127250000D03*
%TD*%
%TO.P,SW4,1*%
%TO.N,/LH4/SWITCH_LEG*%
X163600000Y-135200000D03*
%TO.P,SW4,2*%
%TO.N,GND_CHAIN*%
X170600000Y-136250000D03*
%TD*%
%TO.P,SW5,1*%
%TO.N,/LH5/SWITCH_LEG*%
X163600000Y-117200000D03*
%TO.P,SW5,2*%
%TO.N,GND_CHAIN*%
X170600000Y-118250000D03*
%TD*%
D11*
%TO.P,J1,1*%
%TO.N,unconnected-(J1-Pin_1-Pad1)*%
X130425000Y-111160000D03*
D12*
%TO.P,J1,2*%
%TO.N,unconnected-(J1-Pin_2-Pad2)*%
X132125000Y-111160000D03*
%TO.P,J1,3*%
%TO.N,V3V3_CHAIN_LH*%
X130425000Y-109890000D03*
%TO.P,J1,4*%
%TO.N,GND_CHAIN*%
X132125000Y-109890000D03*
%TO.P,J1,5*%
%TO.N,/HOP_LH_LT*%
X130425000Y-108620000D03*
%TO.P,J1,6*%
%TO.N,GND_CHAIN*%
X132125000Y-108620000D03*
%TO.P,J1,7*%
%TO.N,/CHAIN_SER_LH*%
X130425000Y-107350000D03*
%TO.P,J1,8*%
%TO.N,GND_CHAIN*%
X132125000Y-107350000D03*
%TO.P,J1,9*%
%TO.N,/CHAIN_SHLD*%
X130425000Y-106080000D03*
%TO.P,J1,10*%
%TO.N,GND_CHAIN*%
X132125000Y-106080000D03*
%TO.P,J1,11*%
%TO.N,/CHAIN_SCK*%
X130425000Y-104810000D03*
%TO.P,J1,12*%
%TO.N,GND_CHAIN*%
X132125000Y-104810000D03*
%TD*%
D13*
%TO.P,H2,1*%
%TO.N,GND_CHAIN*%
X100600000Y-104100000D03*
D14*
X100600000Y-104100000D03*
%TD*%
D15*
%TO.N,/CHAIN_SCK*%
X153600000Y-105700000D03*
%TO.N,/CHAIN_SER_LH*%
X143200000Y-103100000D03*
%TO.N,/CHAIN_SHLD*%
X154600000Y-106100000D03*
X134600000Y-104100000D03*
%TO.N,/HOP_LH_LT*%
X143400000Y-112300000D03*
%TO.N,/KEY_LH1*%
X122600000Y-116900000D03*
X147800000Y-116900000D03*
%TO.N,/KEY_LH3*%
X157400000Y-117500000D03*
X151200000Y-117500000D03*
%TO.N,/KEY_LH4*%
X153200000Y-120100000D03*
X175400000Y-120100000D03*
%TO.N,/KEY_LH5*%
X152600000Y-107300000D03*
X172400000Y-110100000D03*
%TO.N,/LH1/SWITCH_LEG*%
X118000000Y-125300000D03*
%TO.N,/LH2/SWITCH_LEG*%
X138000000Y-125300000D03*
%TO.N,/LH3/SWITCH_LEG*%
X158000000Y-125300000D03*
%TO.N,/LH4/SWITCH_LEG*%
X176000000Y-134300000D03*
%TO.N,/LH5/SWITCH_LEG*%
X176000000Y-116300000D03*
%TO.N,GND_CHAIN*%
X154400000Y-118500000D03*
X149800000Y-117900000D03*
X133400000Y-114900000D03*
X99000000Y-107100000D03*
X131400000Y-115900000D03*
X125600000Y-107100000D03*
X145600000Y-117900000D03*
X146200000Y-110500000D03*
X145600000Y-114900000D03*
X98000000Y-106300000D03*
X116000000Y-115900000D03*
%TO.N,V3V3_CHAIN_LH*%
X160200000Y-115900000D03*
X140000000Y-115900000D03*
X155800000Y-103100000D03*
X151400000Y-101700000D03*
%TD*%
D16*
%TO.N,/CHAIN_SCK*%
X135000000Y-105700000D02*
X133000000Y-103700000D01*
X133000000Y-103700000D02*
X131199999Y-103700000D01*
X153600000Y-105700000D02*
X135000000Y-105700000D01*
X131199999Y-103700000D02*
X130400000Y-104500000D01*
%TO.N,/CHAIN_SER_LH*%
X129199999Y-106700000D02*
X129600000Y-107100000D01*
X130199999Y-103100000D02*
X129199999Y-104100000D01*
X143200000Y-103100000D02*
X130199999Y-103100000D01*
X129600000Y-107100000D02*
X129800000Y-107100000D01*
X129199999Y-104100000D02*
X129199999Y-106700000D01*
%TO.N,/CHAIN_SHLD*%
X153400000Y-104100000D02*
X134600000Y-104100000D01*
X154600000Y-105300000D02*
X153400000Y-104100000D01*
X154600000Y-106100000D02*
X154600000Y-105300000D01*
%TO.N,/HOP_LH_LT*%
X129400000Y-112300000D02*
X129199999Y-112100000D01*
X129199999Y-109100000D02*
X129400000Y-108900000D01*
X129400000Y-108900000D02*
X130000000Y-108900000D01*
X129199999Y-112100000D02*
X129199999Y-109100000D01*
X143400000Y-112300000D02*
X129400000Y-112300000D01*
%TO.N,/KEY_LH1*%
X122600000Y-116900000D02*
X147800000Y-116900000D01*
%TO.N,/KEY_LH3*%
X157400000Y-117500000D02*
X151200000Y-117500000D01*
%TO.N,/KEY_LH4*%
X175400000Y-120100000D02*
X153200000Y-120100000D01*
%TO.N,/KEY_LH5*%
X172400000Y-110100000D02*
X169600000Y-107300000D01*
X169600000Y-107300000D02*
X152600000Y-107300000D01*
%TO.N,/LH1/SWITCH_LEG*%
X118000000Y-125300000D02*
X106400000Y-125300000D01*
%TO.N,/LH2/SWITCH_LEG*%
X138000000Y-125300000D02*
X126400000Y-125300000D01*
%TO.N,/LH3/SWITCH_LEG*%
X158000000Y-125300000D02*
X146400000Y-125300000D01*
%TO.N,/LH4/SWITCH_LEG*%
X164400000Y-134300000D02*
X176000000Y-134300000D01*
%TO.N,/LH5/SWITCH_LEG*%
X164400000Y-116300000D02*
X176000000Y-116300000D01*
%TO.N,GND_CHAIN*%
X113200000Y-115900000D02*
X102800000Y-105500000D01*
X131400000Y-115900000D02*
X116000000Y-115900000D01*
X150200000Y-117900000D02*
X150600000Y-118300000D01*
X162600000Y-119100000D02*
X169800000Y-119100000D01*
X145600000Y-117900000D02*
X149800000Y-117900000D01*
X151000000Y-118500000D02*
X154400000Y-118500000D01*
X133400000Y-110500000D02*
X133000000Y-110100000D01*
X149800000Y-117900000D02*
X150200000Y-117900000D01*
X133000000Y-110100000D02*
X132600000Y-110100000D01*
X145600000Y-110500000D02*
X133400000Y-110500000D01*
X154400000Y-118500000D02*
X162000000Y-118500000D01*
X150800000Y-118300000D02*
X151000000Y-118500000D01*
X162000000Y-118500000D02*
X162600000Y-119100000D01*
X150600000Y-118300000D02*
X150800000Y-118300000D01*
X100599999Y-104099999D02*
X102000000Y-104500000D01*
X145600000Y-110500000D02*
X145600000Y-114900000D01*
X132400000Y-114900000D02*
X131400000Y-115900000D01*
X116000000Y-115900000D02*
X113200000Y-115900000D01*
X133400000Y-114900000D02*
X132400000Y-114900000D01*
X146200000Y-110500000D02*
X145600000Y-110500000D01*
D17*
%TO.N,V3V3_CHAIN_LH*%
X154400000Y-101700000D02*
X155800000Y-103100000D01*
X160200000Y-115900000D02*
X140000000Y-115900000D01*
X151400000Y-101700000D02*
X154400000Y-101700000D01*
%TD*%
%TA.AperFunction,Conductor*%
%TO.N,GND_CHAIN*%
G36*
X180295651Y-100805370D02*
G01*
X180312938Y-100805216D01*
X180328481Y-100815010D01*
X180346105Y-100820185D01*
X180357423Y-100833246D01*
X180372051Y-100842464D01*
X180379832Y-100859108D01*
X180391860Y-100872989D01*
X180394319Y-100890096D01*
X180401642Y-100905758D01*
X180399189Y-100923965D01*
X180401804Y-100942147D01*
X180394623Y-100957870D01*
X180392316Y-100975003D01*
X180380409Y-100988993D01*
X180372779Y-101005703D01*
X180358062Y-101015253D01*
X180347034Y-101028213D01*
X180315064Y-101043159D01*
X180276690Y-101054799D01*
X180242879Y-101065056D01*
X179674956Y-101368618D01*
X179674949Y-101368622D01*
X179177153Y-101777153D01*
X178768622Y-102274949D01*
X178768618Y-102274956D01*
X178465056Y-102842879D01*
X178278119Y-103459129D01*
X178217036Y-104079325D01*
X178215000Y-104100000D01*
X178215819Y-104108319D01*
X178278119Y-104740869D01*
X178465056Y-105357119D01*
X178768618Y-105925042D01*
X178768622Y-105925049D01*
X179177153Y-106422845D01*
X179674949Y-106831376D01*
X179674956Y-106831380D01*
X180242879Y-107134942D01*
X180242881Y-107134942D01*
X180242884Y-107134944D01*
X180859128Y-107321879D01*
X181500000Y-107384999D01*
X182140871Y-107321879D01*
X182757115Y-107134944D01*
X182878748Y-107069930D01*
X183094112Y-106954815D01*
X183325048Y-106831377D01*
X183822845Y-106422845D01*
X184231377Y-105925048D01*
X184534944Y-105357115D01*
X184556839Y-105284933D01*
X184595137Y-105226496D01*
X184658949Y-105198040D01*
X184728016Y-105208600D01*
X184780410Y-105254824D01*
X184799500Y-105320930D01*
X184799500Y-137679068D01*
X184779815Y-137746107D01*
X184727011Y-137791862D01*
X184657853Y-137801806D01*
X184594297Y-137772781D01*
X184556839Y-137715064D01*
X184556838Y-137715060D01*
X184534944Y-137642884D01*
X184534941Y-137642878D01*
X184231380Y-137074956D01*
X184231376Y-137074949D01*
X183822845Y-136577153D01*
X183325049Y-136168622D01*
X183325042Y-136168618D01*
X182757119Y-135865056D01*
X182140869Y-135678119D01*
X181570014Y-135621895D01*
X181500000Y-135615000D01*
X181499999Y-135615000D01*
X180859129Y-135678119D01*
X180242879Y-135865056D01*
X179674956Y-136168618D01*
X179674949Y-136168622D01*
X179177153Y-136577153D01*
X178768622Y-137074949D01*
X178768618Y-137074956D01*
X178465056Y-137642879D01*
X178278119Y-138259129D01*
X178215000Y-138899999D01*
X178278119Y-139540869D01*
X178465056Y-140157119D01*
X178768618Y-140725042D01*
X178768622Y-140725049D01*
X179177153Y-141222845D01*
X179674949Y-141631376D01*
X179674956Y-141631380D01*
X180242879Y-141934942D01*
X180242881Y-141934942D01*
X180242884Y-141934944D01*
X180315065Y-141956839D01*
X180373503Y-141995137D01*
X180401959Y-142058949D01*
X180391399Y-142128016D01*
X180345175Y-142180410D01*
X180279069Y-142199500D01*
X101820930Y-142199500D01*
X101753891Y-142179815D01*
X101708136Y-142127011D01*
X101698192Y-142057853D01*
X101727217Y-141994297D01*
X101784933Y-141956839D01*
X101857115Y-141934944D01*
X101888851Y-141917981D01*
X102289859Y-141703637D01*
X102425048Y-141631377D01*
X102922845Y-141222845D01*
X103331377Y-140725048D01*
X103634944Y-140157115D01*
X103821879Y-139540871D01*
X103884999Y-138900000D01*
X103821879Y-138259128D01*
X103634944Y-137642884D01*
X103634942Y-137642881D01*
X103634942Y-137642879D01*
X103572303Y-137525689D01*
X103331381Y-137074956D01*
X103331376Y-137074949D01*
X102922845Y-136577153D01*
X102425049Y-136168622D01*
X102425042Y-136168618D01*
X101857119Y-135865056D01*
X101240869Y-135678119D01*
X100670014Y-135621895D01*
X100600000Y-135615000D01*
X100599999Y-135615000D01*
X99959129Y-135678119D01*
X99342879Y-135865056D01*
X98774956Y-136168618D01*
X98774949Y-136168622D01*
X98277153Y-136577153D01*
X97868622Y-137074949D01*
X97868618Y-137074956D01*
X97565056Y-137642879D01*
X97543161Y-137715060D01*
X97504863Y-137773499D01*
X97441051Y-137801955D01*
X97371984Y-137791395D01*
X97319590Y-137745171D01*
X97300500Y-137679065D01*
X97300500Y-135081902D01*
X162099500Y-135081902D01*
X162099500Y-135318097D01*
X162136446Y-135551368D01*
X162209433Y-135775996D01*
X162254812Y-135865056D01*
X162316657Y-135986433D01*
X162455483Y-136177510D01*
X162622490Y-136344517D01*
X162813567Y-136483343D01*
X162861143Y-136507584D01*
X163024003Y-136590566D01*
X163024005Y-136590566D01*
X163024008Y-136590568D01*
X163128960Y-136624669D01*
X163248631Y-136663553D01*
X163481903Y-136700500D01*
X163481908Y-136700500D01*
X163718097Y-136700500D01*
X163951368Y-136663553D01*
X164175992Y-136590568D01*
X164386433Y-136483343D01*
X164577510Y-136344517D01*
X164744517Y-136177510D01*
X164883343Y-135986433D01*
X164990568Y-135775992D01*
X165063553Y-135551368D01*
X165066399Y-135533398D01*
X165100500Y-135318097D01*
X165100500Y-135081902D01*
X165079005Y-134946197D01*
X165063553Y-134848632D01*
X165063552Y-134848628D01*
X165063552Y-134848627D01*
X165043794Y-134787818D01*
X165041799Y-134717977D01*
X165077879Y-134658144D01*
X165140580Y-134627316D01*
X165161725Y-134625500D01*
X169747459Y-134625500D01*
X169814498Y-134645185D01*
X169860253Y-134697989D01*
X169870197Y-134767147D01*
X169841172Y-134830703D01*
X169803755Y-134859984D01*
X169761423Y-134881553D01*
X169618346Y-134985503D01*
X169976307Y-135343464D01*
X169883398Y-135410967D01*
X169760967Y-135533398D01*
X169693464Y-135626307D01*
X169335503Y-135268346D01*
X169231555Y-135411420D01*
X169117219Y-135635815D01*
X169039397Y-135875330D01*
X169000000Y-136124071D01*
X169000000Y-136375928D01*
X169039397Y-136624669D01*
X169117219Y-136864184D01*
X169231559Y-137088586D01*
X169335502Y-137231652D01*
X169335503Y-137231653D01*
X169693464Y-136873691D01*
X169760967Y-136966602D01*
X169883398Y-137089033D01*
X169976306Y-137156534D01*
X169618345Y-137514495D01*
X169618346Y-137514497D01*
X169761413Y-137618440D01*
X169985815Y-137732780D01*
X170225330Y-137810602D01*
X170474072Y-137850000D01*
X170725928Y-137850000D01*
X170974669Y-137810602D01*
X171214184Y-137732780D01*
X171438583Y-137618442D01*
X171581652Y-137514495D01*
X171581653Y-137514495D01*
X171223693Y-137156534D01*
X171316602Y-137089033D01*
X171439033Y-136966602D01*
X171506534Y-136873692D01*
X171864495Y-137231653D01*
X171864495Y-137231652D01*
X171968442Y-137088583D01*
X172082780Y-136864184D01*
X172160602Y-136624669D01*
X172200000Y-136375928D01*
X172200000Y-136124071D01*
X172160602Y-135875330D01*
X172082780Y-135635815D01*
X171968440Y-135411413D01*
X171864497Y-135268346D01*
X171864495Y-135268345D01*
X171506534Y-135626306D01*
X171439033Y-135533398D01*
X171316602Y-135410967D01*
X171223692Y-135343464D01*
X171581653Y-134985503D01*
X171581652Y-134985502D01*
X171438584Y-134881557D01*
X171396245Y-134859984D01*
X171345450Y-134812010D01*
X171328655Y-134744189D01*
X171351193Y-134678054D01*
X171405908Y-134634603D01*
X171452541Y-134625500D01*
X175495613Y-134625500D01*
X175562652Y-134645185D01*
X175583294Y-134661818D01*
X175661985Y-134740509D01*
X175661987Y-134740510D01*
X175661988Y-134740511D01*
X175787511Y-134812982D01*
X175787512Y-134812982D01*
X175787515Y-134812984D01*
X175927525Y-134850500D01*
X175927528Y-134850500D01*
X176072472Y-134850500D01*
X176072475Y-134850500D01*
X176212485Y-134812984D01*
X176338015Y-134740509D01*
X176440509Y-134638015D01*
X176512984Y-134512485D01*
X176550500Y-134372475D01*
X176550500Y-134227525D01*
X176512984Y-134087515D01*
X176494491Y-134055485D01*
X176440511Y-133961988D01*
X176440506Y-133961982D01*
X176338017Y-133859493D01*
X176338011Y-133859488D01*
X176212488Y-133787017D01*
X176212489Y-133787017D01*
X176201006Y-133783940D01*
X176072475Y-133749500D01*
X175927525Y-133749500D01*
X175798993Y-133783940D01*
X175787511Y-133787017D01*
X175661988Y-133859488D01*
X175583294Y-133938182D01*
X175521970Y-133971666D01*
X175495613Y-133974500D01*
X164506337Y-133974500D01*
X164439298Y-133954815D01*
X164433460Y-133950824D01*
X164386433Y-133916657D01*
X164175996Y-133809433D01*
X163951368Y-133736446D01*
X163718097Y-133699500D01*
X163718092Y-133699500D01*
X163481908Y-133699500D01*
X163481903Y-133699500D01*
X163248631Y-133736446D01*
X163024003Y-133809433D01*
X162813566Y-133916657D01*
X162751174Y-133961988D01*
X162622490Y-134055483D01*
X162622488Y-134055485D01*
X162622487Y-134055485D01*
X162455485Y-134222487D01*
X162455485Y-134222488D01*
X162455483Y-134222490D01*
X162395862Y-134304550D01*
X162316657Y-134413566D01*
X162209433Y-134624003D01*
X162136446Y-134848631D01*
X162099500Y-135081902D01*
X97300500Y-135081902D01*
X97300500Y-130336824D01*
X165094500Y-130336824D01*
X165094500Y-130663175D01*
X165131035Y-130987441D01*
X165131038Y-130987455D01*
X165203655Y-131305612D01*
X165203656Y-131305614D01*
X165311438Y-131613640D01*
X165453030Y-131907657D01*
X165453032Y-131907660D01*
X165626654Y-132183979D01*
X165830123Y-132439121D01*
X166060879Y-132669877D01*
X166316021Y-132873346D01*
X166592340Y-133046968D01*
X166886361Y-133188562D01*
X167194387Y-133296344D01*
X167512544Y-133368962D01*
X167512553Y-133368963D01*
X167512558Y-133368964D01*
X167728735Y-133393320D01*
X167836825Y-133405499D01*
X167836828Y-133405500D01*
X167836831Y-133405500D01*
X168163172Y-133405500D01*
X168163173Y-133405499D01*
X168328900Y-133386826D01*
X168487441Y-133368964D01*
X168487444Y-133368963D01*
X168487456Y-133368962D01*
X168805613Y-133296344D01*
X169113639Y-133188562D01*
X169407660Y-133046968D01*
X169683979Y-132873346D01*
X169939121Y-132669877D01*
X170169877Y-132439121D01*
X170373346Y-132183979D01*
X170546968Y-131907660D01*
X170688562Y-131613639D01*
X170796344Y-131305613D01*
X170868962Y-130987456D01*
X170905500Y-130663169D01*
X170905500Y-130336831D01*
X170868962Y-130012544D01*
X170796344Y-129694387D01*
X170688562Y-129386361D01*
X170546968Y-129092340D01*
X170373346Y-128816021D01*
X170169877Y-128560879D01*
X169939121Y-128330123D01*
X169683979Y-128126654D01*
X169407660Y-127953032D01*
X169407657Y-127953030D01*
X169113640Y-127811438D01*
X168805614Y-127703656D01*
X168805612Y-127703655D01*
X168560073Y-127647612D01*
X168487456Y-127631038D01*
X168487453Y-127631037D01*
X168487441Y-127631035D01*
X168163175Y-127594500D01*
X168163169Y-127594500D01*
X167836831Y-127594500D01*
X167836824Y-127594500D01*
X167512558Y-127631035D01*
X167512544Y-127631038D01*
X167194387Y-127703655D01*
X167194385Y-127703656D01*
X166886359Y-127811438D01*
X166592342Y-127953030D01*
X166316022Y-128126653D01*
X166060879Y-128330122D01*
X165830122Y-128560879D01*
X165626653Y-128816022D01*
X165453030Y-129092342D01*
X165311438Y-129386359D01*
X165203656Y-129694385D01*
X165203655Y-129694387D01*
X165131038Y-130012544D01*
X165131035Y-130012558D01*
X165094500Y-130336824D01*
X97300500Y-130336824D01*
X97300500Y-126081902D01*
X104099500Y-126081902D01*
X104099500Y-126318097D01*
X104136446Y-126551368D01*
X104209433Y-126775996D01*
X104235802Y-126827747D01*
X104316657Y-126986433D01*
X104455483Y-127177510D01*
X104622490Y-127344517D01*
X104813567Y-127483343D01*
X104861143Y-127507584D01*
X105024003Y-127590566D01*
X105024005Y-127590566D01*
X105024008Y-127590568D01*
X105128960Y-127624669D01*
X105248631Y-127663553D01*
X105481903Y-127700500D01*
X105481908Y-127700500D01*
X105718097Y-127700500D01*
X105951368Y-127663553D01*
X106175992Y-127590568D01*
X106386433Y-127483343D01*
X106577510Y-127344517D01*
X106744517Y-127177510D01*
X106883343Y-126986433D01*
X106990568Y-126775992D01*
X107063553Y-126551368D01*
X107066399Y-126533398D01*
X107100500Y-126318097D01*
X107100500Y-126081902D01*
X107079005Y-125946197D01*
X107063553Y-125848632D01*
X107063552Y-125848628D01*
X107063552Y-125848627D01*
X107043794Y-125787818D01*
X107041799Y-125717977D01*
X107077879Y-125658144D01*
X107140580Y-125627316D01*
X107161725Y-125625500D01*
X111747459Y-125625500D01*
X111814498Y-125645185D01*
X111860253Y-125697989D01*
X111870197Y-125767147D01*
X111841172Y-125830703D01*
X111803755Y-125859984D01*
X111761423Y-125881553D01*
X111618346Y-125985503D01*
X111976307Y-126343464D01*
X111883398Y-126410967D01*
X111760967Y-126533398D01*
X111693464Y-126626307D01*
X111335503Y-126268346D01*
X111231555Y-126411420D01*
X111117219Y-126635815D01*
X111039397Y-126875330D01*
X111000000Y-127124071D01*
X111000000Y-127375928D01*
X111039397Y-127624669D01*
X111117219Y-127864184D01*
X111231559Y-128088586D01*
X111335502Y-128231652D01*
X111335503Y-128231653D01*
X111693464Y-127873691D01*
X111760967Y-127966602D01*
X111883398Y-128089033D01*
X111976306Y-128156534D01*
X111618345Y-128514495D01*
X111618346Y-128514497D01*
X111761413Y-128618440D01*
X111985815Y-128732780D01*
X112225330Y-128810602D01*
X112474072Y-128850000D01*
X112725928Y-128850000D01*
X112974669Y-128810602D01*
X113214184Y-128732780D01*
X113438583Y-128618442D01*
X113581652Y-128514495D01*
X113581653Y-128514495D01*
X113223693Y-128156534D01*
X113316602Y-128089033D01*
X113439033Y-127966602D01*
X113506534Y-127873692D01*
X113864495Y-128231653D01*
X113864495Y-128231652D01*
X113968442Y-128088583D01*
X114082780Y-127864184D01*
X114160602Y-127624669D01*
X114200000Y-127375928D01*
X114200000Y-127124071D01*
X114160602Y-126875330D01*
X114082780Y-126635815D01*
X113968440Y-126411413D01*
X113864497Y-126268346D01*
X113864495Y-126268345D01*
X113506534Y-126626306D01*
X113439033Y-126533398D01*
X113316602Y-126410967D01*
X113223692Y-126343464D01*
X113485255Y-126081902D01*
X124099500Y-126081902D01*
X124099500Y-126318097D01*
X124136446Y-126551368D01*
X124209433Y-126775996D01*
X124235802Y-126827747D01*
X124316657Y-126986433D01*
X124455483Y-127177510D01*
X124622490Y-127344517D01*
X124813567Y-127483343D01*
X124861143Y-127507584D01*
X125024003Y-127590566D01*
X125024005Y-127590566D01*
X125024008Y-127590568D01*
X125128960Y-127624669D01*
X125248631Y-127663553D01*
X125481903Y-127700500D01*
X125481908Y-127700500D01*
X125718097Y-127700500D01*
X125951368Y-127663553D01*
X126175992Y-127590568D01*
X126386433Y-127483343D01*
X126577510Y-127344517D01*
X126744517Y-127177510D01*
X126883343Y-126986433D01*
X126990568Y-126775992D01*
X127063553Y-126551368D01*
X127066399Y-126533398D01*
X127100500Y-126318097D01*
X127100500Y-126081902D01*
X127079005Y-125946197D01*
X127063553Y-125848632D01*
X127063552Y-125848628D01*
X127063552Y-125848627D01*
X127043794Y-125787818D01*
X127041799Y-125717977D01*
X127077879Y-125658144D01*
X127140580Y-125627316D01*
X127161725Y-125625500D01*
X131747459Y-125625500D01*
X131814498Y-125645185D01*
X131860253Y-125697989D01*
X131870197Y-125767147D01*
X131841172Y-125830703D01*
X131803755Y-125859984D01*
X131761423Y-125881553D01*
X131618346Y-125985503D01*
X131976307Y-126343464D01*
X131883398Y-126410967D01*
X131760967Y-126533398D01*
X131693464Y-126626307D01*
X131335503Y-126268346D01*
X131231555Y-126411420D01*
X131117219Y-126635815D01*
X131039397Y-126875330D01*
X131000000Y-127124071D01*
X131000000Y-127375928D01*
X131039397Y-127624669D01*
X131117219Y-127864184D01*
X131231559Y-128088586D01*
X131335502Y-128231652D01*
X131335503Y-128231653D01*
X131693464Y-127873691D01*
X131760967Y-127966602D01*
X131883398Y-128089033D01*
X131976306Y-128156534D01*
X131618345Y-128514495D01*
X131618346Y-128514497D01*
X131761413Y-128618440D01*
X131985815Y-128732780D01*
X132225330Y-128810602D01*
X132474072Y-128850000D01*
X132725928Y-128850000D01*
X132974669Y-128810602D01*
X133214184Y-128732780D01*
X133438583Y-128618442D01*
X133581652Y-128514495D01*
X133581653Y-128514495D01*
X133223693Y-128156534D01*
X133316602Y-128089033D01*
X133439033Y-127966602D01*
X133506534Y-127873692D01*
X133864495Y-128231653D01*
X133864495Y-128231652D01*
X133968442Y-128088583D01*
X134082780Y-127864184D01*
X134160602Y-127624669D01*
X134200000Y-127375928D01*
X134200000Y-127124071D01*
X134160602Y-126875330D01*
X134082780Y-126635815D01*
X133968440Y-126411413D01*
X133864497Y-126268346D01*
X133864495Y-126268345D01*
X133506534Y-126626306D01*
X133439033Y-126533398D01*
X133316602Y-126410967D01*
X133223692Y-126343464D01*
X133485255Y-126081902D01*
X144099500Y-126081902D01*
X144099500Y-126318097D01*
X144136446Y-126551368D01*
X144209433Y-126775996D01*
X144235802Y-126827747D01*
X144316657Y-126986433D01*
X144455483Y-127177510D01*
X144622490Y-127344517D01*
X144813567Y-127483343D01*
X144861143Y-127507584D01*
X145024003Y-127590566D01*
X145024005Y-127590566D01*
X145024008Y-127590568D01*
X145128960Y-127624669D01*
X145248631Y-127663553D01*
X145481903Y-127700500D01*
X145481908Y-127700500D01*
X145718097Y-127700500D01*
X145951368Y-127663553D01*
X146175992Y-127590568D01*
X146386433Y-127483343D01*
X146577510Y-127344517D01*
X146744517Y-127177510D01*
X146883343Y-126986433D01*
X146990568Y-126775992D01*
X147063553Y-126551368D01*
X147066399Y-126533398D01*
X147100500Y-126318097D01*
X147100500Y-126081902D01*
X147079005Y-125946197D01*
X147063553Y-125848632D01*
X147063552Y-125848628D01*
X147063552Y-125848627D01*
X147043794Y-125787818D01*
X147041799Y-125717977D01*
X147077879Y-125658144D01*
X147140580Y-125627316D01*
X147161725Y-125625500D01*
X151747459Y-125625500D01*
X151814498Y-125645185D01*
X151860253Y-125697989D01*
X151870197Y-125767147D01*
X151841172Y-125830703D01*
X151803755Y-125859984D01*
X151761423Y-125881553D01*
X151618346Y-125985503D01*
X151976307Y-126343464D01*
X151883398Y-126410967D01*
X151760967Y-126533398D01*
X151693464Y-126626307D01*
X151335503Y-126268346D01*
X151231555Y-126411420D01*
X151117219Y-126635815D01*
X151039397Y-126875330D01*
X151000000Y-127124071D01*
X151000000Y-127375928D01*
X151039397Y-127624669D01*
X151117219Y-127864184D01*
X151231559Y-128088586D01*
X151335502Y-128231652D01*
X151335503Y-128231653D01*
X151693464Y-127873691D01*
X151760967Y-127966602D01*
X151883398Y-128089033D01*
X151976306Y-128156534D01*
X151618345Y-128514495D01*
X151618346Y-128514497D01*
X151761413Y-128618440D01*
X151985815Y-128732780D01*
X152225330Y-128810602D01*
X152474072Y-128850000D01*
X152725928Y-128850000D01*
X152974669Y-128810602D01*
X153214184Y-128732780D01*
X153438583Y-128618442D01*
X153581652Y-128514495D01*
X153581653Y-128514495D01*
X153223693Y-128156534D01*
X153316602Y-128089033D01*
X153439033Y-127966602D01*
X153506534Y-127873692D01*
X153864495Y-128231653D01*
X153864495Y-128231652D01*
X153968442Y-128088583D01*
X154082780Y-127864184D01*
X154160602Y-127624669D01*
X154200000Y-127375928D01*
X154200000Y-127124071D01*
X154160602Y-126875330D01*
X154082780Y-126635815D01*
X153968440Y-126411413D01*
X153864497Y-126268346D01*
X153864495Y-126268345D01*
X153506534Y-126626306D01*
X153439033Y-126533398D01*
X153316602Y-126410967D01*
X153223692Y-126343464D01*
X153581653Y-125985503D01*
X153581652Y-125985502D01*
X153438584Y-125881557D01*
X153396245Y-125859984D01*
X153345450Y-125812010D01*
X153328655Y-125744189D01*
X153351193Y-125678054D01*
X153405908Y-125634603D01*
X153452541Y-125625500D01*
X157495613Y-125625500D01*
X157562652Y-125645185D01*
X157583294Y-125661818D01*
X157661985Y-125740509D01*
X157661987Y-125740510D01*
X157661988Y-125740511D01*
X157787511Y-125812982D01*
X157787512Y-125812982D01*
X157787515Y-125812984D01*
X157927525Y-125850500D01*
X157927528Y-125850500D01*
X158072472Y-125850500D01*
X158072475Y-125850500D01*
X158212485Y-125812984D01*
X158338015Y-125740509D01*
X158440509Y-125638015D01*
X158512984Y-125512485D01*
X158550500Y-125372475D01*
X158550500Y-125227525D01*
X158512984Y-125087515D01*
X158494491Y-125055485D01*
X158440511Y-124961988D01*
X158440506Y-124961982D01*
X158338017Y-124859493D01*
X158338011Y-124859488D01*
X158212488Y-124787017D01*
X158212489Y-124787017D01*
X158201006Y-124783940D01*
X158072475Y-124749500D01*
X157927525Y-124749500D01*
X157798993Y-124783940D01*
X157787511Y-124787017D01*
X157661988Y-124859488D01*
X157583294Y-124938182D01*
X157521970Y-124971666D01*
X157495613Y-124974500D01*
X146506337Y-124974500D01*
X146439298Y-124954815D01*
X146433460Y-124950824D01*
X146386433Y-124916657D01*
X146175996Y-124809433D01*
X145951368Y-124736446D01*
X145718097Y-124699500D01*
X145718092Y-124699500D01*
X145481908Y-124699500D01*
X145481903Y-124699500D01*
X145248631Y-124736446D01*
X145024003Y-124809433D01*
X144813566Y-124916657D01*
X144751174Y-124961988D01*
X144622490Y-125055483D01*
X144622488Y-125055485D01*
X144622487Y-125055485D01*
X144455485Y-125222487D01*
X144455485Y-125222488D01*
X144455483Y-125222490D01*
X144395862Y-125304550D01*
X144316657Y-125413566D01*
X144209433Y-125624003D01*
X144136446Y-125848631D01*
X144099500Y-126081902D01*
X133485255Y-126081902D01*
X133577802Y-125989355D01*
X133581653Y-125985503D01*
X133581652Y-125985502D01*
X133438584Y-125881557D01*
X133396245Y-125859984D01*
X133345450Y-125812010D01*
X133328655Y-125744189D01*
X133351193Y-125678054D01*
X133405908Y-125634603D01*
X133452541Y-125625500D01*
X137495613Y-125625500D01*
X137562652Y-125645185D01*
X137583294Y-125661818D01*
X137661985Y-125740509D01*
X137661987Y-125740510D01*
X137661988Y-125740511D01*
X137787511Y-125812982D01*
X137787512Y-125812982D01*
X137787515Y-125812984D01*
X137927525Y-125850500D01*
X137927528Y-125850500D01*
X138072472Y-125850500D01*
X138072475Y-125850500D01*
X138212485Y-125812984D01*
X138338015Y-125740509D01*
X138440509Y-125638015D01*
X138512984Y-125512485D01*
X138550500Y-125372475D01*
X138550500Y-125227525D01*
X138512984Y-125087515D01*
X138494491Y-125055485D01*
X138440511Y-124961988D01*
X138440506Y-124961982D01*
X138338017Y-124859493D01*
X138338011Y-124859488D01*
X138212488Y-124787017D01*
X138212489Y-124787017D01*
X138201006Y-124783940D01*
X138072475Y-124749500D01*
X137927525Y-124749500D01*
X137798993Y-124783940D01*
X137787511Y-124787017D01*
X137661988Y-124859488D01*
X137583294Y-124938182D01*
X137521970Y-124971666D01*
X137495613Y-124974500D01*
X126506337Y-124974500D01*
X126439298Y-124954815D01*
X126433460Y-124950824D01*
X126386433Y-124916657D01*
X126175996Y-124809433D01*
X125951368Y-124736446D01*
X125718097Y-124699500D01*
X125718092Y-124699500D01*
X125481908Y-124699500D01*
X125481903Y-124699500D01*
X125248631Y-124736446D01*
X125024003Y-124809433D01*
X124813566Y-124916657D01*
X124751174Y-124961988D01*
X124622490Y-125055483D01*
X124622488Y-125055485D01*
X124622487Y-125055485D01*
X124455485Y-125222487D01*
X124455485Y-125222488D01*
X124455483Y-125222490D01*
X124395862Y-125304550D01*
X124316657Y-125413566D01*
X124209433Y-125624003D01*
X124136446Y-125848631D01*
X124099500Y-126081902D01*
X113485255Y-126081902D01*
X113577802Y-125989355D01*
X113581653Y-125985503D01*
X113581652Y-125985502D01*
X113438584Y-125881557D01*
X113396245Y-125859984D01*
X113345450Y-125812010D01*
X113328655Y-125744189D01*
X113351193Y-125678054D01*
X113405908Y-125634603D01*
X113452541Y-125625500D01*
X117495613Y-125625500D01*
X117562652Y-125645185D01*
X117583294Y-125661818D01*
X117661985Y-125740509D01*
X117661987Y-125740510D01*
X117661988Y-125740511D01*
X117787511Y-125812982D01*
X117787512Y-125812982D01*
X117787515Y-125812984D01*
X117927525Y-125850500D01*
X117927528Y-125850500D01*
X118072472Y-125850500D01*
X118072475Y-125850500D01*
X118212485Y-125812984D01*
X118338015Y-125740509D01*
X118440509Y-125638015D01*
X118512984Y-125512485D01*
X118550500Y-125372475D01*
X118550500Y-125227525D01*
X118512984Y-125087515D01*
X118494491Y-125055485D01*
X118440511Y-124961988D01*
X118440506Y-124961982D01*
X118338017Y-124859493D01*
X118338011Y-124859488D01*
X118212488Y-124787017D01*
X118212489Y-124787017D01*
X118201006Y-124783940D01*
X118072475Y-124749500D01*
X117927525Y-124749500D01*
X117798993Y-124783940D01*
X117787511Y-124787017D01*
X117661988Y-124859488D01*
X117583294Y-124938182D01*
X117521970Y-124971666D01*
X117495613Y-124974500D01*
X106506337Y-124974500D01*
X106439298Y-124954815D01*
X106433460Y-124950824D01*
X106386433Y-124916657D01*
X106175996Y-124809433D01*
X105951368Y-124736446D01*
X105718097Y-124699500D01*
X105718092Y-124699500D01*
X105481908Y-124699500D01*
X105481903Y-124699500D01*
X105248631Y-124736446D01*
X105024003Y-124809433D01*
X104813566Y-124916657D01*
X104751174Y-124961988D01*
X104622490Y-125055483D01*
X104622488Y-125055485D01*
X104622487Y-125055485D01*
X104455485Y-125222487D01*
X104455485Y-125222488D01*
X104455483Y-125222490D01*
X104395862Y-125304550D01*
X104316657Y-125413566D01*
X104209433Y-125624003D01*
X104136446Y-125848631D01*
X104099500Y-126081902D01*
X97300500Y-126081902D01*
X97300500Y-121336824D01*
X107094500Y-121336824D01*
X107094500Y-121663175D01*
X107131035Y-121987441D01*
X107131038Y-121987455D01*
X107203655Y-122305612D01*
X107203656Y-122305614D01*
X107311438Y-122613640D01*
X107453030Y-122907657D01*
X107453032Y-122907660D01*
X107626654Y-123183979D01*
X107830123Y-123439121D01*
X108060879Y-123669877D01*
X108316021Y-123873346D01*
X108592340Y-124046968D01*
X108886361Y-124188562D01*
X109194387Y-124296344D01*
X109512544Y-124368962D01*
X109512553Y-124368963D01*
X109512558Y-124368964D01*
X109728735Y-124393320D01*
X109836825Y-124405499D01*
X109836828Y-124405500D01*
X109836831Y-124405500D01*
X110163172Y-124405500D01*
X110163173Y-124405499D01*
X110328900Y-124386826D01*
X110487441Y-124368964D01*
X110487444Y-124368963D01*
X110487456Y-124368962D01*
X110805613Y-124296344D01*
X111113639Y-124188562D01*
X111407660Y-124046968D01*
X111683979Y-123873346D01*
X111939121Y-123669877D01*
X112169877Y-123439121D01*
X112373346Y-123183979D01*
X112546968Y-122907660D01*
X112688562Y-122613639D01*
X112796344Y-122305613D01*
X112868962Y-121987456D01*
X112905500Y-121663169D01*
X112905500Y-121336831D01*
X112905499Y-121336824D01*
X127094500Y-121336824D01*
X127094500Y-121663175D01*
X127131035Y-121987441D01*
X127131038Y-121987455D01*
X127203655Y-122305612D01*
X127203656Y-122305614D01*
X127311438Y-122613640D01*
X127453030Y-122907657D01*
X127453032Y-122907660D01*
X127626654Y-123183979D01*
X127830123Y-123439121D01*
X128060879Y-123669877D01*
X128316021Y-123873346D01*
X128592340Y-124046968D01*
X128886361Y-124188562D01*
X129194387Y-124296344D01*
X129512544Y-124368962D01*
X129512553Y-124368963D01*
X129512558Y-124368964D01*
X129728735Y-124393320D01*
X129836825Y-124405499D01*
X129836828Y-124405500D01*
X129836831Y-124405500D01*
X130163172Y-124405500D01*
X130163173Y-124405499D01*
X130328900Y-124386826D01*
X130487441Y-124368964D01*
X130487444Y-124368963D01*
X130487456Y-124368962D01*
X130805613Y-124296344D01*
X131113639Y-124188562D01*
X131407660Y-124046968D01*
X131683979Y-123873346D01*
X131939121Y-123669877D01*
X132169877Y-123439121D01*
X132373346Y-123183979D01*
X132546968Y-122907660D01*
X132688562Y-122613639D01*
X132796344Y-122305613D01*
X132868962Y-121987456D01*
X132905500Y-121663169D01*
X132905500Y-121336831D01*
X132905499Y-121336824D01*
X147094500Y-121336824D01*
X147094500Y-121663175D01*
X147131035Y-121987441D01*
X147131038Y-121987455D01*
X147203655Y-122305612D01*
X147203656Y-122305614D01*
X147311438Y-122613640D01*
X147453030Y-122907657D01*
X147453032Y-122907660D01*
X147626654Y-123183979D01*
X147830123Y-123439121D01*
X148060879Y-123669877D01*
X148316021Y-123873346D01*
X148592340Y-124046968D01*
X148886361Y-124188562D01*
X149194387Y-124296344D01*
X149512544Y-124368962D01*
X149512553Y-124368963D01*
X149512558Y-124368964D01*
X149728735Y-124393320D01*
X149836825Y-124405499D01*
X149836828Y-124405500D01*
X149836831Y-124405500D01*
X150163172Y-124405500D01*
X150163173Y-124405499D01*
X150328900Y-124386826D01*
X150487441Y-124368964D01*
X150487444Y-124368963D01*
X150487456Y-124368962D01*
X150805613Y-124296344D01*
X151113639Y-124188562D01*
X151407660Y-124046968D01*
X151683979Y-123873346D01*
X151939121Y-123669877D01*
X152169877Y-123439121D01*
X152373346Y-123183979D01*
X152546968Y-122907660D01*
X152688562Y-122613639D01*
X152796344Y-122305613D01*
X152868962Y-121987456D01*
X152905500Y-121663169D01*
X152905500Y-121336831D01*
X152868962Y-121012544D01*
X152809172Y-120750589D01*
X152813445Y-120680851D01*
X152854744Y-120624493D01*
X152919956Y-120599410D01*
X152979253Y-120611676D01*
X152980001Y-120609872D01*
X152987510Y-120612982D01*
X152987512Y-120612982D01*
X152987515Y-120612984D01*
X153127525Y-120650500D01*
X153127528Y-120650500D01*
X153272472Y-120650500D01*
X153272475Y-120650500D01*
X153412485Y-120612984D01*
X153538015Y-120540509D01*
X153616706Y-120461818D01*
X153678030Y-120428334D01*
X153704387Y-120425500D01*
X174895613Y-120425500D01*
X174962652Y-120445185D01*
X174983294Y-120461818D01*
X175061985Y-120540509D01*
X175061987Y-120540510D01*
X175061988Y-120540511D01*
X175187511Y-120612982D01*
X175187512Y-120612982D01*
X175187515Y-120612984D01*
X175327525Y-120650500D01*
X175327528Y-120650500D01*
X175472472Y-120650500D01*
X175472475Y-120650500D01*
X175612485Y-120612984D01*
X175738015Y-120540509D01*
X175840509Y-120438015D01*
X175912984Y-120312485D01*
X175950500Y-120172475D01*
X175950500Y-120027525D01*
X175912984Y-119887515D01*
X175871707Y-119816022D01*
X175840511Y-119761988D01*
X175840506Y-119761982D01*
X175738017Y-119659493D01*
X175738011Y-119659488D01*
X175612488Y-119587017D01*
X175612489Y-119587017D01*
X175601006Y-119583940D01*
X175472475Y-119549500D01*
X175327525Y-119549500D01*
X175198993Y-119583940D01*
X175187511Y-119587017D01*
X175061988Y-119659488D01*
X174983294Y-119738182D01*
X174921970Y-119771666D01*
X174895613Y-119774500D01*
X171605421Y-119774500D01*
X171538382Y-119754815D01*
X171492627Y-119702011D01*
X171482683Y-119632853D01*
X171511708Y-119569297D01*
X171532535Y-119550182D01*
X171581652Y-119514495D01*
X171581653Y-119514495D01*
X171223693Y-119156534D01*
X171316602Y-119089033D01*
X171439033Y-118966602D01*
X171506534Y-118873692D01*
X171864495Y-119231653D01*
X171864495Y-119231652D01*
X171968442Y-119088583D01*
X172082780Y-118864184D01*
X172160602Y-118624669D01*
X172200000Y-118375928D01*
X172200000Y-118124071D01*
X172160602Y-117875330D01*
X172082780Y-117635815D01*
X171968440Y-117411413D01*
X171864497Y-117268346D01*
X171864495Y-117268345D01*
X171506534Y-117626306D01*
X171439033Y-117533398D01*
X171316602Y-117410967D01*
X171223692Y-117343464D01*
X171581653Y-116985503D01*
X171581652Y-116985502D01*
X171438584Y-116881557D01*
X171396245Y-116859984D01*
X171345450Y-116812010D01*
X171328655Y-116744189D01*
X171351193Y-116678054D01*
X171405908Y-116634603D01*
X171452541Y-116625500D01*
X175495613Y-116625500D01*
X175562652Y-116645185D01*
X175583294Y-116661818D01*
X175661985Y-116740509D01*
X175661987Y-116740510D01*
X175661988Y-116740511D01*
X175787511Y-116812982D01*
X175787512Y-116812982D01*
X175787515Y-116812984D01*
X175927525Y-116850500D01*
X175927528Y-116850500D01*
X176072472Y-116850500D01*
X176072475Y-116850500D01*
X176212485Y-116812984D01*
X176338015Y-116740509D01*
X176440509Y-116638015D01*
X176512984Y-116512485D01*
X176550500Y-116372475D01*
X176550500Y-116227525D01*
X176512984Y-116087515D01*
X176494491Y-116055485D01*
X176440511Y-115961988D01*
X176440506Y-115961982D01*
X176338017Y-115859493D01*
X176338011Y-115859488D01*
X176212488Y-115787017D01*
X176212489Y-115787017D01*
X176201006Y-115783940D01*
X176072475Y-115749500D01*
X175927525Y-115749500D01*
X175798993Y-115783940D01*
X175787511Y-115787017D01*
X175661988Y-115859488D01*
X175583294Y-115938182D01*
X175521970Y-115971666D01*
X175495613Y-115974500D01*
X164506337Y-115974500D01*
X164439298Y-115954815D01*
X164433460Y-115950824D01*
X164386433Y-115916657D01*
X164175996Y-115809433D01*
X163951368Y-115736446D01*
X163718097Y-115699500D01*
X163718092Y-115699500D01*
X163481908Y-115699500D01*
X163481903Y-115699500D01*
X163248631Y-115736446D01*
X163024003Y-115809433D01*
X162813566Y-115916657D01*
X162751174Y-115961988D01*
X162622490Y-116055483D01*
X162622488Y-116055485D01*
X162622487Y-116055485D01*
X162455485Y-116222487D01*
X162455485Y-116222488D01*
X162455483Y-116222490D01*
X162444202Y-116238017D01*
X162316657Y-116413566D01*
X162209433Y-116624003D01*
X162136446Y-116848631D01*
X162099500Y-117081902D01*
X162099500Y-117318097D01*
X162136446Y-117551368D01*
X162209433Y-117775996D01*
X162306835Y-117967157D01*
X162316657Y-117986433D01*
X162455483Y-118177510D01*
X162622490Y-118344517D01*
X162813567Y-118483343D01*
X162861143Y-118507584D01*
X163024003Y-118590566D01*
X163024005Y-118590566D01*
X163024008Y-118590568D01*
X163128960Y-118624669D01*
X163248631Y-118663553D01*
X163481903Y-118700500D01*
X163481908Y-118700500D01*
X163718097Y-118700500D01*
X163951368Y-118663553D01*
X164175992Y-118590568D01*
X164386433Y-118483343D01*
X164577510Y-118344517D01*
X164744517Y-118177510D01*
X164883343Y-117986433D01*
X164990568Y-117775992D01*
X165063553Y-117551368D01*
X165079529Y-117450500D01*
X165100500Y-117318097D01*
X165100500Y-117081902D01*
X165079005Y-116946197D01*
X165063553Y-116848632D01*
X165063552Y-116848628D01*
X165063552Y-116848627D01*
X165043794Y-116787818D01*
X165041799Y-116717977D01*
X165077879Y-116658144D01*
X165140580Y-116627316D01*
X165161725Y-116625500D01*
X169747459Y-116625500D01*
X169814498Y-116645185D01*
X169860253Y-116697989D01*
X169870197Y-116767147D01*
X169841172Y-116830703D01*
X169803755Y-116859984D01*
X169761423Y-116881553D01*
X169618346Y-116985503D01*
X169976307Y-117343464D01*
X169883398Y-117410967D01*
X169760967Y-117533398D01*
X169693464Y-117626307D01*
X169335503Y-117268346D01*
X169231555Y-117411420D01*
X169117219Y-117635815D01*
X169039397Y-117875330D01*
X169000000Y-118124071D01*
X169000000Y-118375928D01*
X169039397Y-118624669D01*
X169117219Y-118864184D01*
X169231559Y-119088586D01*
X169335502Y-119231652D01*
X169335503Y-119231653D01*
X169693464Y-118873691D01*
X169760967Y-118966602D01*
X169883398Y-119089033D01*
X169976306Y-119156534D01*
X169618345Y-119514495D01*
X169618346Y-119514497D01*
X169667462Y-119550182D01*
X169710128Y-119605512D01*
X169716107Y-119675125D01*
X169683501Y-119736920D01*
X169622663Y-119771277D01*
X169594577Y-119774500D01*
X153704387Y-119774500D01*
X153637348Y-119754815D01*
X153616706Y-119738182D01*
X153580535Y-119702011D01*
X153538015Y-119659491D01*
X153538012Y-119659489D01*
X153538011Y-119659488D01*
X153412488Y-119587017D01*
X153412489Y-119587017D01*
X153401006Y-119583940D01*
X153272475Y-119549500D01*
X153127525Y-119549500D01*
X152998993Y-119583940D01*
X152987511Y-119587017D01*
X152861988Y-119659488D01*
X152861982Y-119659493D01*
X152759493Y-119761982D01*
X152759488Y-119761988D01*
X152687017Y-119887511D01*
X152687016Y-119887513D01*
X152680231Y-119912835D01*
X152643864Y-119972494D01*
X152581017Y-120003022D01*
X152511641Y-119994725D01*
X152457765Y-119950238D01*
X152455463Y-119946710D01*
X152418266Y-119887511D01*
X152373346Y-119816021D01*
X152169877Y-119560879D01*
X151939121Y-119330123D01*
X151683979Y-119126654D01*
X151407660Y-118953032D01*
X151407657Y-118953030D01*
X151113640Y-118811438D01*
X150805614Y-118703656D01*
X150805612Y-118703655D01*
X150560073Y-118647612D01*
X150487456Y-118631038D01*
X150487453Y-118631037D01*
X150487441Y-118631035D01*
X150163175Y-118594500D01*
X150163169Y-118594500D01*
X149836831Y-118594500D01*
X149836824Y-118594500D01*
X149512558Y-118631035D01*
X149512544Y-118631038D01*
X149194387Y-118703655D01*
X149194385Y-118703656D01*
X148886359Y-118811438D01*
X148592342Y-118953030D01*
X148316022Y-119126653D01*
X148060879Y-119330122D01*
X147830122Y-119560879D01*
X147626653Y-119816022D01*
X147453030Y-120092342D01*
X147311438Y-120386359D01*
X147203656Y-120694385D01*
X147203655Y-120694387D01*
X147131038Y-121012544D01*
X147131035Y-121012558D01*
X147094500Y-121336824D01*
X132905499Y-121336824D01*
X132868962Y-121012544D01*
X132796344Y-120694387D01*
X132688562Y-120386361D01*
X132546968Y-120092340D01*
X132373346Y-119816021D01*
X132169877Y-119560879D01*
X131939121Y-119330123D01*
X131683979Y-119126654D01*
X131407660Y-118953032D01*
X131407657Y-118953030D01*
X131113640Y-118811438D01*
X130805614Y-118703656D01*
X130805612Y-118703655D01*
X130560073Y-118647612D01*
X130487456Y-118631038D01*
X130487453Y-118631037D01*
X130487441Y-118631035D01*
X130163175Y-118594500D01*
X130163169Y-118594500D01*
X129836831Y-118594500D01*
X129836824Y-118594500D01*
X129512558Y-118631035D01*
X129512544Y-118631038D01*
X129194387Y-118703655D01*
X129194385Y-118703656D01*
X128886359Y-118811438D01*
X128592342Y-118953030D01*
X128316022Y-119126653D01*
X128060879Y-119330122D01*
X127830122Y-119560879D01*
X127626653Y-119816022D01*
X127453030Y-120092342D01*
X127311438Y-120386359D01*
X127203656Y-120694385D01*
X127203655Y-120694387D01*
X127131038Y-121012544D01*
X127131035Y-121012558D01*
X127094500Y-121336824D01*
X112905499Y-121336824D01*
X112868962Y-121012544D01*
X112796344Y-120694387D01*
X112688562Y-120386361D01*
X112546968Y-120092340D01*
X112373346Y-119816021D01*
X112169877Y-119560879D01*
X111939121Y-119330123D01*
X111683979Y-119126654D01*
X111407660Y-118953032D01*
X111407657Y-118953030D01*
X111113640Y-118811438D01*
X110805614Y-118703656D01*
X110805612Y-118703655D01*
X110560073Y-118647612D01*
X110487456Y-118631038D01*
X110487453Y-118631037D01*
X110487441Y-118631035D01*
X110163175Y-118594500D01*
X110163169Y-118594500D01*
X109836831Y-118594500D01*
X109836824Y-118594500D01*
X109512558Y-118631035D01*
X109512544Y-118631038D01*
X109194387Y-118703655D01*
X109194385Y-118703656D01*
X108886359Y-118811438D01*
X108592342Y-118953030D01*
X108316022Y-119126653D01*
X108060879Y-119330122D01*
X107830122Y-119560879D01*
X107626653Y-119816022D01*
X107453030Y-120092342D01*
X107311438Y-120386359D01*
X107203656Y-120694385D01*
X107203655Y-120694387D01*
X107131038Y-121012544D01*
X107131035Y-121012558D01*
X107094500Y-121336824D01*
X97300500Y-121336824D01*
X97300500Y-116827525D01*
X122049500Y-116827525D01*
X122049500Y-116972475D01*
X122078823Y-117081908D01*
X122087017Y-117112488D01*
X122159488Y-117238011D01*
X122159490Y-117238013D01*
X122159491Y-117238015D01*
X122261985Y-117340509D01*
X122261986Y-117340510D01*
X122261988Y-117340511D01*
X122387511Y-117412982D01*
X122387512Y-117412982D01*
X122387515Y-117412984D01*
X122527525Y-117450500D01*
X122527528Y-117450500D01*
X122672472Y-117450500D01*
X122672475Y-117450500D01*
X122812485Y-117412984D01*
X122938015Y-117340509D01*
X123016706Y-117261818D01*
X123078030Y-117228334D01*
X123104387Y-117225500D01*
X147295613Y-117225500D01*
X147362652Y-117245185D01*
X147383294Y-117261818D01*
X147461985Y-117340509D01*
X147461987Y-117340510D01*
X147461988Y-117340511D01*
X147587511Y-117412982D01*
X147587512Y-117412982D01*
X147587515Y-117412984D01*
X147727525Y-117450500D01*
X147727528Y-117450500D01*
X147872472Y-117450500D01*
X147872475Y-117450500D01*
X147958218Y-117427525D01*
X150649500Y-117427525D01*
X150649500Y-117572475D01*
X150687016Y-117712485D01*
X150687017Y-117712488D01*
X150759488Y-117838011D01*
X150759490Y-117838013D01*
X150759491Y-117838015D01*
X150861985Y-117940509D01*
X150861986Y-117940510D01*
X150861988Y-117940511D01*
X150987511Y-118012982D01*
X150987512Y-118012982D01*
X150987515Y-118012984D01*
X151127525Y-118050500D01*
X151127528Y-118050500D01*
X151272472Y-118050500D01*
X151272475Y-118050500D01*
X151412485Y-118012984D01*
X151538015Y-117940509D01*
X151616706Y-117861818D01*
X151678030Y-117828334D01*
X151704387Y-117825500D01*
X156895613Y-117825500D01*
X156962652Y-117845185D01*
X156983294Y-117861818D01*
X157061985Y-117940509D01*
X157061987Y-117940510D01*
X157061988Y-117940511D01*
X157187511Y-118012982D01*
X157187512Y-118012982D01*
X157187515Y-118012984D01*
X157327525Y-118050500D01*
X157327528Y-118050500D01*
X157472472Y-118050500D01*
X157472475Y-118050500D01*
X157612485Y-118012984D01*
X157738015Y-117940509D01*
X157840509Y-117838015D01*
X157912984Y-117712485D01*
X157950500Y-117572475D01*
X157950500Y-117427525D01*
X157912984Y-117287515D01*
X157884406Y-117238017D01*
X157840511Y-117161988D01*
X157840506Y-117161982D01*
X157738017Y-117059493D01*
X157738011Y-117059488D01*
X157612488Y-116987017D01*
X157612489Y-116987017D01*
X157601006Y-116983940D01*
X157472475Y-116949500D01*
X157327525Y-116949500D01*
X157198993Y-116983940D01*
X157187511Y-116987017D01*
X157061988Y-117059488D01*
X156983294Y-117138182D01*
X156921970Y-117171666D01*
X156895613Y-117174500D01*
X151704387Y-117174500D01*
X151637348Y-117154815D01*
X151616706Y-117138182D01*
X151591009Y-117112485D01*
X151538015Y-117059491D01*
X151538012Y-117059489D01*
X151538011Y-117059488D01*
X151412488Y-116987017D01*
X151412489Y-116987017D01*
X151401006Y-116983940D01*
X151272475Y-116949500D01*
X151127525Y-116949500D01*
X150998993Y-116983940D01*
X150987511Y-116987017D01*
X150861988Y-117059488D01*
X150861982Y-117059493D01*
X150759493Y-117161982D01*
X150759488Y-117161988D01*
X150687017Y-117287511D01*
X150687016Y-117287515D01*
X150649500Y-117427525D01*
X147958218Y-117427525D01*
X148012485Y-117412984D01*
X148138015Y-117340509D01*
X148240509Y-117238015D01*
X148312984Y-117112485D01*
X148350500Y-116972475D01*
X148350500Y-116827525D01*
X148312984Y-116687515D01*
X148284406Y-116638017D01*
X148240511Y-116561988D01*
X148240506Y-116561982D01*
X148190705Y-116512181D01*
X148157220Y-116450858D01*
X148162204Y-116381166D01*
X148204076Y-116325233D01*
X148269540Y-116300816D01*
X148278386Y-116300500D01*
X159770614Y-116300500D01*
X159837653Y-116320185D01*
X159858295Y-116336819D01*
X159861985Y-116340509D01*
X159861986Y-116340510D01*
X159861988Y-116340511D01*
X159987511Y-116412982D01*
X159987512Y-116412982D01*
X159987515Y-116412984D01*
X160127525Y-116450500D01*
X160127528Y-116450500D01*
X160272472Y-116450500D01*
X160272475Y-116450500D01*
X160412485Y-116412984D01*
X160538015Y-116340509D01*
X160640509Y-116238015D01*
X160712984Y-116112485D01*
X160750500Y-115972475D01*
X160750500Y-115827525D01*
X160712984Y-115687515D01*
X160640509Y-115561985D01*
X160538015Y-115459491D01*
X160538013Y-115459490D01*
X160538011Y-115459488D01*
X160412488Y-115387017D01*
X160412489Y-115387017D01*
X160401006Y-115383940D01*
X160272475Y-115349500D01*
X160127525Y-115349500D01*
X159998993Y-115383940D01*
X159987511Y-115387017D01*
X159861988Y-115459488D01*
X159861982Y-115459493D01*
X159858295Y-115463181D01*
X159796972Y-115496666D01*
X159770614Y-115499500D01*
X140429386Y-115499500D01*
X140362347Y-115479815D01*
X140341705Y-115463181D01*
X140338017Y-115459493D01*
X140338011Y-115459488D01*
X140212488Y-115387017D01*
X140212489Y-115387017D01*
X140201006Y-115383940D01*
X140072475Y-115349500D01*
X139927525Y-115349500D01*
X139798993Y-115383940D01*
X139787511Y-115387017D01*
X139661988Y-115459488D01*
X139661982Y-115459493D01*
X139559493Y-115561982D01*
X139559488Y-115561988D01*
X139487017Y-115687511D01*
X139487016Y-115687515D01*
X139449500Y-115827525D01*
X139449500Y-115972475D01*
X139487016Y-116112485D01*
X139487017Y-116112488D01*
X139559488Y-116238011D01*
X139559490Y-116238013D01*
X139559491Y-116238015D01*
X139661985Y-116340509D01*
X139661988Y-116340510D01*
X139661991Y-116340513D01*
X139666496Y-116343114D01*
X139714711Y-116393681D01*
X139727933Y-116462288D01*
X139701965Y-116527153D01*
X139645050Y-116567681D01*
X139604495Y-116574500D01*
X123104387Y-116574500D01*
X123037348Y-116554815D01*
X123016706Y-116538182D01*
X122980535Y-116502011D01*
X122938015Y-116459491D01*
X122938012Y-116459489D01*
X122938011Y-116459488D01*
X122812488Y-116387017D01*
X122812489Y-116387017D01*
X122776523Y-116377380D01*
X122672475Y-116349500D01*
X122527525Y-116349500D01*
X122423477Y-116377380D01*
X122387511Y-116387017D01*
X122261988Y-116459488D01*
X122261982Y-116459493D01*
X122159493Y-116561982D01*
X122159488Y-116561988D01*
X122087017Y-116687511D01*
X122087016Y-116687515D01*
X122049500Y-116827525D01*
X97300500Y-116827525D01*
X97300500Y-104057147D01*
X128874499Y-104057147D01*
X128874499Y-104063919D01*
X128874499Y-106742852D01*
X128896681Y-106825640D01*
X128916224Y-106859488D01*
X128939534Y-106899862D01*
X129339533Y-107299860D01*
X129339535Y-107299862D01*
X129400138Y-107360465D01*
X129431630Y-107378647D01*
X129440441Y-107386228D01*
X129453366Y-107406187D01*
X129469779Y-107423400D01*
X129475951Y-107441064D01*
X129478419Y-107444875D01*
X129478430Y-107448159D01*
X129481181Y-107456031D01*
X129502763Y-107564530D01*
X129502766Y-107564542D01*
X129558204Y-107698383D01*
X129558211Y-107698396D01*
X129638699Y-107818853D01*
X129638702Y-107818857D01*
X129717164Y-107897319D01*
X129750649Y-107958642D01*
X129745665Y-108028334D01*
X129717164Y-108072681D01*
X129638702Y-108151142D01*
X129638699Y-108151146D01*
X129558211Y-108271603D01*
X129558204Y-108271616D01*
X129502766Y-108405457D01*
X129502763Y-108405469D01*
X129488994Y-108474691D01*
X129456609Y-108536602D01*
X129395894Y-108571176D01*
X129367377Y-108574500D01*
X129357147Y-108574500D01*
X129274362Y-108596682D01*
X129274355Y-108596685D01*
X129200144Y-108639530D01*
X129200140Y-108639533D01*
X129146604Y-108693069D01*
X129146603Y-108693068D01*
X128939535Y-108900136D01*
X128939529Y-108900144D01*
X128896684Y-108974355D01*
X128896681Y-108974362D01*
X128874499Y-109057147D01*
X128874499Y-112142852D01*
X128896681Y-112225637D01*
X128896684Y-112225644D01*
X128939529Y-112299855D01*
X128939535Y-112299863D01*
X129007202Y-112367530D01*
X129007208Y-112367535D01*
X129139533Y-112499860D01*
X129139535Y-112499862D01*
X129200138Y-112560465D01*
X129200140Y-112560466D01*
X129200144Y-112560469D01*
X129274355Y-112603314D01*
X129274362Y-112603318D01*
X129357147Y-112625500D01*
X129357148Y-112625500D01*
X129442853Y-112625500D01*
X142895613Y-112625500D01*
X142962652Y-112645185D01*
X142983294Y-112661818D01*
X143061985Y-112740509D01*
X143061987Y-112740510D01*
X143061988Y-112740511D01*
X143187511Y-112812982D01*
X143187512Y-112812982D01*
X143187515Y-112812984D01*
X143327525Y-112850500D01*
X143327528Y-112850500D01*
X143472472Y-112850500D01*
X143472475Y-112850500D01*
X143612485Y-112812984D01*
X143738015Y-112740509D01*
X143840509Y-112638015D01*
X143912984Y-112512485D01*
X143950500Y-112372475D01*
X143950500Y-112336824D01*
X165094500Y-112336824D01*
X165094500Y-112663175D01*
X165131035Y-112987441D01*
X165131038Y-112987455D01*
X165203655Y-113305612D01*
X165203656Y-113305614D01*
X165311438Y-113613640D01*
X165453030Y-113907657D01*
X165453032Y-113907660D01*
X165626654Y-114183979D01*
X165830123Y-114439121D01*
X166060879Y-114669877D01*
X166316021Y-114873346D01*
X166592340Y-115046968D01*
X166886361Y-115188562D01*
X167194387Y-115296344D01*
X167512544Y-115368962D01*
X167512553Y-115368963D01*
X167512558Y-115368964D01*
X167728735Y-115393320D01*
X167836825Y-115405499D01*
X167836828Y-115405500D01*
X167836831Y-115405500D01*
X168163172Y-115405500D01*
X168163173Y-115405499D01*
X168328900Y-115386826D01*
X168487441Y-115368964D01*
X168487444Y-115368963D01*
X168487456Y-115368962D01*
X168805613Y-115296344D01*
X169113639Y-115188562D01*
X169407660Y-115046968D01*
X169683979Y-114873346D01*
X169939121Y-114669877D01*
X170169877Y-114439121D01*
X170373346Y-114183979D01*
X170546968Y-113907660D01*
X170688562Y-113613639D01*
X170796344Y-113305613D01*
X170868962Y-112987456D01*
X170905500Y-112663169D01*
X170905500Y-112336831D01*
X170868962Y-112012544D01*
X170796344Y-111694387D01*
X170688562Y-111386361D01*
X170546968Y-111092340D01*
X170373346Y-110816021D01*
X170169877Y-110560879D01*
X169939121Y-110330123D01*
X169917007Y-110312488D01*
X169796201Y-110216148D01*
X169683979Y-110126654D01*
X169407660Y-109953032D01*
X169407657Y-109953030D01*
X169113640Y-109811438D01*
X168805614Y-109703656D01*
X168805612Y-109703655D01*
X168554923Y-109646437D01*
X168487456Y-109631038D01*
X168487453Y-109631037D01*
X168487441Y-109631035D01*
X168163175Y-109594500D01*
X168163169Y-109594500D01*
X167836831Y-109594500D01*
X167836824Y-109594500D01*
X167512558Y-109631035D01*
X167512544Y-109631038D01*
X167194387Y-109703655D01*
X167194385Y-109703656D01*
X166886359Y-109811438D01*
X166592342Y-109953030D01*
X166316022Y-110126653D01*
X166060879Y-110330122D01*
X165830122Y-110560879D01*
X165626653Y-110816022D01*
X165453030Y-111092342D01*
X165311438Y-111386359D01*
X165203656Y-111694385D01*
X165203655Y-111694387D01*
X165131038Y-112012544D01*
X165131035Y-112012558D01*
X165094500Y-112336824D01*
X143950500Y-112336824D01*
X143950500Y-112227525D01*
X143912984Y-112087515D01*
X143869707Y-112012558D01*
X143840511Y-111961988D01*
X143840506Y-111961982D01*
X143738017Y-111859493D01*
X143738011Y-111859488D01*
X143612488Y-111787017D01*
X143612489Y-111787017D01*
X143601006Y-111783940D01*
X143472475Y-111749500D01*
X143327525Y-111749500D01*
X143198993Y-111783940D01*
X143187511Y-111787017D01*
X143061988Y-111859488D01*
X142983294Y-111938182D01*
X142921970Y-111971666D01*
X142895613Y-111974500D01*
X132853653Y-111974500D01*
X132786614Y-111954815D01*
X132740859Y-111902011D01*
X132730915Y-111832853D01*
X132759940Y-111769297D01*
X132784762Y-111747398D01*
X132808854Y-111731300D01*
X132911297Y-111628857D01*
X132911300Y-111628854D01*
X132991792Y-111508390D01*
X133047235Y-111374538D01*
X133075500Y-111232440D01*
X133075500Y-111087560D01*
X133047235Y-110945462D01*
X133047233Y-110945457D01*
X132991795Y-110811616D01*
X132991788Y-110811603D01*
X132911300Y-110691146D01*
X132911297Y-110691142D01*
X132903192Y-110683037D01*
X132869707Y-110621714D01*
X132874691Y-110552022D01*
X132903193Y-110507674D01*
X132988584Y-110422284D01*
X132988587Y-110422280D01*
X133079963Y-110285527D01*
X133079970Y-110285514D01*
X133142910Y-110133562D01*
X133142913Y-110133553D01*
X133151576Y-110090000D01*
X132249000Y-110090000D01*
X132205970Y-110077364D01*
X132236148Y-110025095D01*
X132260000Y-109936078D01*
X132260000Y-109843922D01*
X132236148Y-109754905D01*
X132198675Y-109690000D01*
X132325000Y-109690000D01*
X133151576Y-109690000D01*
X133151576Y-109689999D01*
X133142913Y-109646446D01*
X133142910Y-109646437D01*
X133079970Y-109494485D01*
X133079963Y-109494472D01*
X132988588Y-109357720D01*
X132973551Y-109342684D01*
X132940064Y-109281361D01*
X132945047Y-109211669D01*
X132973551Y-109167316D01*
X132988588Y-109152279D01*
X133079963Y-109015527D01*
X133079970Y-109015514D01*
X133142910Y-108863562D01*
X133142913Y-108863553D01*
X133151576Y-108820000D01*
X132325000Y-108820000D01*
X132325000Y-109690000D01*
X132198675Y-109690000D01*
X132190070Y-109675095D01*
X132124905Y-109609930D01*
X132045095Y-109563852D01*
X131956078Y-109540000D01*
X131925000Y-109540000D01*
X131925000Y-108970000D01*
X131956078Y-108970000D01*
X132045095Y-108946148D01*
X132124905Y-108900070D01*
X132190070Y-108834905D01*
X132236148Y-108755095D01*
X132260000Y-108666078D01*
X132260000Y-108573922D01*
X132236148Y-108484905D01*
X132198675Y-108420000D01*
X132325000Y-108420000D01*
X133151576Y-108420000D01*
X133151576Y-108419999D01*
X133142913Y-108376446D01*
X133142910Y-108376437D01*
X133079970Y-108224485D01*
X133079963Y-108224472D01*
X132988588Y-108087720D01*
X132973551Y-108072684D01*
X132940064Y-108011361D01*
X132945047Y-107941669D01*
X132973551Y-107897316D01*
X132988588Y-107882279D01*
X133079963Y-107745527D01*
X133079970Y-107745514D01*
X133142910Y-107593562D01*
X133142913Y-107593553D01*
X133151576Y-107550000D01*
X132325000Y-107550000D01*
X132325000Y-108420000D01*
X132198675Y-108420000D01*
X132190070Y-108405095D01*
X132124905Y-108339930D01*
X132045095Y-108293852D01*
X131956078Y-108270000D01*
X131925000Y-108270000D01*
X131925000Y-107700000D01*
X131956078Y-107700000D01*
X132045095Y-107676148D01*
X132124905Y-107630070D01*
X132190070Y-107564905D01*
X132236148Y-107485095D01*
X132260000Y-107396078D01*
X132260000Y-107303922D01*
X132239530Y-107227525D01*
X152049500Y-107227525D01*
X152049500Y-107372475D01*
X152067879Y-107441064D01*
X152087017Y-107512488D01*
X152159488Y-107638011D01*
X152159490Y-107638013D01*
X152159491Y-107638015D01*
X152261985Y-107740509D01*
X152261986Y-107740510D01*
X152261988Y-107740511D01*
X152387511Y-107812982D01*
X152387512Y-107812982D01*
X152387515Y-107812984D01*
X152527525Y-107850500D01*
X152527528Y-107850500D01*
X152672472Y-107850500D01*
X152672475Y-107850500D01*
X152812485Y-107812984D01*
X152938015Y-107740509D01*
X153016706Y-107661818D01*
X153078030Y-107628334D01*
X153104387Y-107625500D01*
X169413811Y-107625500D01*
X169480850Y-107645185D01*
X169501492Y-107661819D01*
X171813181Y-109973508D01*
X171846666Y-110034831D01*
X171849500Y-110061189D01*
X171849500Y-110172475D01*
X171879789Y-110285514D01*
X171887017Y-110312488D01*
X171959488Y-110438011D01*
X171959490Y-110438013D01*
X171959491Y-110438015D01*
X172061985Y-110540509D01*
X172061986Y-110540510D01*
X172061988Y-110540511D01*
X172187511Y-110612982D01*
X172187512Y-110612982D01*
X172187515Y-110612984D01*
X172327525Y-110650500D01*
X172327528Y-110650500D01*
X172472472Y-110650500D01*
X172472475Y-110650500D01*
X172612485Y-110612984D01*
X172738015Y-110540509D01*
X172840509Y-110438015D01*
X172912984Y-110312485D01*
X172950500Y-110172475D01*
X172950500Y-110027525D01*
X172912984Y-109887515D01*
X172887815Y-109843922D01*
X172840511Y-109761988D01*
X172840506Y-109761982D01*
X172738017Y-109659493D01*
X172738011Y-109659488D01*
X172612488Y-109587017D01*
X172612489Y-109587017D01*
X172601006Y-109583940D01*
X172472475Y-109549500D01*
X172361189Y-109549500D01*
X172294150Y-109529815D01*
X172273508Y-109513181D01*
X169799864Y-107039537D01*
X169799862Y-107039535D01*
X169762750Y-107018108D01*
X169725640Y-106996682D01*
X169684246Y-106985591D01*
X169642853Y-106974500D01*
X169642852Y-106974500D01*
X153104387Y-106974500D01*
X153037348Y-106954815D01*
X153016706Y-106938182D01*
X152978385Y-106899861D01*
X152938015Y-106859491D01*
X152938012Y-106859489D01*
X152938011Y-106859488D01*
X152812488Y-106787017D01*
X152812489Y-106787017D01*
X152801006Y-106783940D01*
X152672475Y-106749500D01*
X152527525Y-106749500D01*
X152398993Y-106783940D01*
X152387511Y-106787017D01*
X152261988Y-106859488D01*
X152261982Y-106859493D01*
X152159493Y-106961982D01*
X152159488Y-106961988D01*
X152087017Y-107087511D01*
X152087016Y-107087515D01*
X152049500Y-107227525D01*
X132239530Y-107227525D01*
X132236148Y-107214905D01*
X132198675Y-107150000D01*
X132325000Y-107150000D01*
X133151576Y-107150000D01*
X133151576Y-107149999D01*
X133142913Y-107106446D01*
X133142910Y-107106437D01*
X133079970Y-106954485D01*
X133079963Y-106954472D01*
X132988588Y-106817720D01*
X132973551Y-106802684D01*
X132940064Y-106741361D01*
X132945047Y-106671669D01*
X132973551Y-106627316D01*
X132988588Y-106612279D01*
X133079963Y-106475527D01*
X133079970Y-106475514D01*
X133142910Y-106323562D01*
X133142913Y-106323553D01*
X133151576Y-106280000D01*
X132325000Y-106280000D01*
X132325000Y-107150000D01*
X132198675Y-107150000D01*
X132190070Y-107135095D01*
X132124905Y-107069930D01*
X132045095Y-107023852D01*
X131956078Y-107000000D01*
X131925000Y-107000000D01*
X131925000Y-106430000D01*
X131956078Y-106430000D01*
X132045095Y-106406148D01*
X132124905Y-106360070D01*
X132190070Y-106294905D01*
X132236148Y-106215095D01*
X132260000Y-106126078D01*
X132260000Y-106033922D01*
X132236148Y-105944905D01*
X132198675Y-105880000D01*
X132325000Y-105880000D01*
X133151576Y-105880000D01*
X133151576Y-105879999D01*
X133142913Y-105836446D01*
X133142910Y-105836437D01*
X133079970Y-105684485D01*
X133079963Y-105684472D01*
X132988588Y-105547720D01*
X132973551Y-105532684D01*
X132940064Y-105471361D01*
X132945047Y-105401669D01*
X132973551Y-105357316D01*
X132988588Y-105342279D01*
X133079963Y-105205527D01*
X133079970Y-105205514D01*
X133142910Y-105053562D01*
X133142913Y-105053553D01*
X133151576Y-105010000D01*
X132325000Y-105010000D01*
X132325000Y-105880000D01*
X132198675Y-105880000D01*
X132190070Y-105865095D01*
X132124905Y-105799930D01*
X132045095Y-105753852D01*
X131956078Y-105730000D01*
X131925000Y-105730000D01*
X131925000Y-105160000D01*
X131956078Y-105160000D01*
X132045095Y-105136148D01*
X132124905Y-105090070D01*
X132190070Y-105024905D01*
X132236148Y-104945095D01*
X132260000Y-104856078D01*
X132260000Y-104763922D01*
X132236148Y-104674905D01*
X132204290Y-104619726D01*
X132249000Y-104610000D01*
X133151576Y-104610000D01*
X133160898Y-104598640D01*
X133163531Y-104569213D01*
X133206393Y-104514035D01*
X133272282Y-104490789D01*
X133340280Y-104506856D01*
X133366603Y-104526930D01*
X134800138Y-105960465D01*
X134874361Y-106003318D01*
X134957147Y-106025500D01*
X153095613Y-106025500D01*
X153162652Y-106045185D01*
X153183294Y-106061818D01*
X153261985Y-106140509D01*
X153261987Y-106140510D01*
X153261988Y-106140511D01*
X153387511Y-106212982D01*
X153387512Y-106212982D01*
X153387515Y-106212984D01*
X153527525Y-106250500D01*
X153527528Y-106250500D01*
X153672472Y-106250500D01*
X153672475Y-106250500D01*
X153812485Y-106212984D01*
X153812487Y-106212982D01*
X153812489Y-106212982D01*
X153812490Y-106212981D01*
X153887195Y-106169850D01*
X153955095Y-106153376D01*
X154021122Y-106176228D01*
X154064313Y-106231149D01*
X154068970Y-106245141D01*
X154087015Y-106312483D01*
X154087017Y-106312488D01*
X154159488Y-106438011D01*
X154159490Y-106438013D01*
X154159491Y-106438015D01*
X154261985Y-106540509D01*
X154261986Y-106540510D01*
X154261988Y-106540511D01*
X154387511Y-106612982D01*
X154387512Y-106612982D01*
X154387515Y-106612984D01*
X154527525Y-106650500D01*
X154527528Y-106650500D01*
X154672472Y-106650500D01*
X154672475Y-106650500D01*
X154812485Y-106612984D01*
X154938015Y-106540509D01*
X155040509Y-106438015D01*
X155112984Y-106312485D01*
X155150500Y-106172475D01*
X155150500Y-106027525D01*
X155112984Y-105887515D01*
X155108645Y-105880000D01*
X155040511Y-105761988D01*
X155040510Y-105761987D01*
X155040509Y-105761985D01*
X154961818Y-105683294D01*
X154928334Y-105621970D01*
X154925500Y-105595613D01*
X154925500Y-105257149D01*
X154925500Y-105257147D01*
X154903318Y-105174362D01*
X154903318Y-105174361D01*
X154860465Y-105100138D01*
X153599862Y-103839535D01*
X153562750Y-103818108D01*
X153525640Y-103796682D01*
X153484246Y-103785591D01*
X153442853Y-103774500D01*
X153442852Y-103774500D01*
X143595505Y-103774500D01*
X143528466Y-103754815D01*
X143482711Y-103702011D01*
X143472767Y-103632853D01*
X143501792Y-103569297D01*
X143533504Y-103543114D01*
X143538008Y-103540513D01*
X143538007Y-103540513D01*
X143538015Y-103540509D01*
X143640509Y-103438015D01*
X143712984Y-103312485D01*
X143750500Y-103172475D01*
X143750500Y-103027525D01*
X143712984Y-102887515D01*
X143687213Y-102842879D01*
X143640511Y-102761988D01*
X143640506Y-102761982D01*
X143538017Y-102659493D01*
X143538011Y-102659488D01*
X143412488Y-102587017D01*
X143412489Y-102587017D01*
X143401006Y-102583940D01*
X143272475Y-102549500D01*
X143127525Y-102549500D01*
X142998993Y-102583940D01*
X142987511Y-102587017D01*
X142861988Y-102659488D01*
X142783294Y-102738182D01*
X142721970Y-102771666D01*
X142695613Y-102774500D01*
X130250464Y-102774500D01*
X130250448Y-102774499D01*
X130242852Y-102774499D01*
X130157147Y-102774499D01*
X130115754Y-102785590D01*
X130074359Y-102796682D01*
X130074354Y-102796685D01*
X130000143Y-102839530D01*
X130000135Y-102839536D01*
X128939536Y-103900135D01*
X128939532Y-103900141D01*
X128896681Y-103974359D01*
X128892876Y-103988561D01*
X128874499Y-104057147D01*
X97300500Y-104057147D01*
X97300500Y-101627525D01*
X150849500Y-101627525D01*
X150849500Y-101772475D01*
X150887016Y-101912485D01*
X150887017Y-101912488D01*
X150959488Y-102038011D01*
X150959490Y-102038013D01*
X150959491Y-102038015D01*
X151061985Y-102140509D01*
X151061986Y-102140510D01*
X151061988Y-102140511D01*
X151187511Y-102212982D01*
X151187512Y-102212982D01*
X151187515Y-102212984D01*
X151327525Y-102250500D01*
X151327528Y-102250500D01*
X151472472Y-102250500D01*
X151472475Y-102250500D01*
X151612485Y-102212984D01*
X151738015Y-102140509D01*
X151741705Y-102136819D01*
X151803028Y-102103334D01*
X151829386Y-102100500D01*
X154182745Y-102100500D01*
X154249784Y-102120185D01*
X154270426Y-102136819D01*
X155213181Y-103079574D01*
X155246666Y-103140897D01*
X155249500Y-103167255D01*
X155249500Y-103172475D01*
X155287016Y-103312485D01*
X155287017Y-103312488D01*
X155359488Y-103438011D01*
X155359490Y-103438013D01*
X155359491Y-103438015D01*
X155461985Y-103540509D01*
X155461986Y-103540510D01*
X155461988Y-103540511D01*
X155587511Y-103612982D01*
X155587512Y-103612982D01*
X155587515Y-103612984D01*
X155727525Y-103650500D01*
X155727528Y-103650500D01*
X155872472Y-103650500D01*
X155872475Y-103650500D01*
X156012485Y-103612984D01*
X156138015Y-103540509D01*
X156240509Y-103438015D01*
X156312984Y-103312485D01*
X156350500Y-103172475D01*
X156350500Y-103027525D01*
X156312984Y-102887515D01*
X156287213Y-102842879D01*
X156240511Y-102761988D01*
X156240506Y-102761982D01*
X156138017Y-102659493D01*
X156138011Y-102659488D01*
X156012488Y-102587017D01*
X156012489Y-102587017D01*
X156001006Y-102583940D01*
X155872475Y-102549500D01*
X155872472Y-102549500D01*
X155867255Y-102549500D01*
X155800216Y-102529815D01*
X155779574Y-102513181D01*
X154645915Y-101379522D01*
X154645913Y-101379520D01*
X154600250Y-101353156D01*
X154554589Y-101326793D01*
X154496542Y-101311240D01*
X154452727Y-101299500D01*
X154452726Y-101299500D01*
X151829386Y-101299500D01*
X151762347Y-101279815D01*
X151741705Y-101263181D01*
X151738017Y-101259493D01*
X151738011Y-101259488D01*
X151612488Y-101187017D01*
X151612489Y-101187017D01*
X151596762Y-101182803D01*
X151472475Y-101149500D01*
X151327525Y-101149500D01*
X151203238Y-101182803D01*
X151187511Y-101187017D01*
X151061988Y-101259488D01*
X151061982Y-101259493D01*
X150959493Y-101361982D01*
X150959488Y-101361988D01*
X150887017Y-101487511D01*
X150887016Y-101487515D01*
X150849500Y-101627525D01*
X97300500Y-101627525D01*
X97300500Y-101516660D01*
X97300882Y-101506939D01*
X97302356Y-101488199D01*
X97309247Y-101400562D01*
X97312300Y-101381300D01*
X97333396Y-101293583D01*
X97339374Y-101275183D01*
X97373866Y-101191829D01*
X97382709Y-101174469D01*
X97429760Y-101097695D01*
X97441181Y-101081975D01*
X97499722Y-101013440D01*
X97513440Y-100999722D01*
X97581975Y-100941181D01*
X97597695Y-100929760D01*
X97674469Y-100882709D01*
X97691829Y-100873866D01*
X97775183Y-100839374D01*
X97793583Y-100833396D01*
X97881300Y-100812300D01*
X97900562Y-100809247D01*
X97982366Y-100802814D01*
X98006940Y-100800882D01*
X98016661Y-100800500D01*
X180279066Y-100800500D01*
X180295651Y-100805370D01*
G37*
%TD.AperFunction*%
%TD*%
M02*
