M48
; DRILL file {KiCad 9.0.9-9.0.9~ubuntu24.04.1} date 2026-09-27T18:45:12+0000
; FORMAT={-:-/ absolute / metric / decimal}
; #@! TF.CreationDate,2026-09-27T18:45:12+00:00
; #@! TF.GenerationSoftware,Kicad,Pcbnew,9.0.9-9.0.9~ubuntu24.04.1
; #@! TF.FileFunction,Plated,1,2,PTH
FMAT,2
METRIC
; #@! TA.AperFunction,Plated,PTH,ViaDrill
T1C0.300
; #@! TA.AperFunction,Plated,PTH,ComponentDrill
T2C0.700
; #@! TA.AperFunction,Plated,PTH,ComponentDrill
T3C1.300
%
G90
G05
T1
X110.2Y-114.9
X111.6Y-113.5
X114.6Y-114.5
X126.0Y-107.9
X127.6Y-110.1
X127.6Y-114.5
X128.8Y-112.5
X129.0Y-135.1
X130.4Y-132.9
X133.0Y-110.5
X134.0Y-104.7
X134.0Y-109.5
X134.0Y-111.5
X134.2Y-131.1
X135.2Y-124.7
X144.0Y-114.5
X145.2Y-103.7
X145.4Y-105.7
X145.4Y-107.1
X146.2Y-111.5
X147.2Y-115.7
X147.4Y-114.5
X148.4Y-105.7
X148.4Y-113.5
X149.0Y-135.1
X149.8Y-106.5
X150.4Y-132.9
X150.8Y-102.5
X151.6Y-105.5
X152.2Y-102.3
X152.6Y-111.5
X153.4Y-131.1
X153.6Y-110.5
X154.8Y-106.5
X155.0Y-112.5
X155.8Y-104.1
X164.0Y-106.5
X164.8Y-105.7
X165.4Y-114.7
X165.4Y-126.5
X165.6Y-123.1
X166.4Y-122.3
X167.8Y-104.7
T2
X130.64Y-104.81
X130.64Y-106.08
X130.64Y-107.35
X130.64Y-108.62
X130.64Y-109.89
X130.64Y-111.16
X131.91Y-104.81
X131.91Y-106.08
X131.91Y-107.35
X131.91Y-108.62
X131.91Y-109.89
X131.91Y-111.16
T3
X105.6Y-126.2
X112.6Y-127.25
X125.6Y-126.2
X132.6Y-127.25
X145.6Y-126.2
X152.6Y-127.25
X163.6Y-117.2
X163.6Y-135.2
X170.6Y-118.25
X170.6Y-136.25
M30
