%TF.GenerationSoftware,KiCad,Pcbnew,9.0.9-9.0.9~ubuntu24.04.1*%
%TF.CreationDate,2026-09-27T18:45:12+00:00*%
%TF.ProjectId,key-board-lh,6b65792d-626f-4617-9264-2d6c682e6b69,A*%
%TF.SameCoordinates,Original*%
%TF.FileFunction,Copper,L2,Bot*%
%TF.FilePolarity,Positive*%
%FSLAX46Y46*%
G04 Gerber Fmt 4.6, Leading zero omitted, Abs format (unit mm)*
G04 Created by KiCad (PCBNEW 9.0.9-9.0.9~ubuntu24.04.1) date 2026-09-27 18:45:12*
%MOMM*%
%LPD*%
G01*
G04 APERTURE LIST*
G04 Aperture macros list*
%AMRoundRect*
0 Rectangle with rounded corners*
0 $1 Rounding radius*
0 $2 $3 $4 $5 $6 $7 $8 $9 X,Y pos of 4 corners*
0 Add a 4 corners polygon primitive as box body*
4,1,4,$2,$3,$4,$5,$6,$7,$8,$9,$2,$3,0*
0 Add four circle primitives for the rounded corners*
1,1,$1+$1,$2,$3*
1,1,$1+$1,$4,$5*
1,1,$1+$1,$6,$7*
1,1,$1+$1,$8,$9*
0 Add four rect primitives between the rounded corners*
20,1,$1+$1,$2,$3,$4,$5,0*
20,1,$1+$1,$4,$5,$6,$7,0*
20,1,$1+$1,$6,$7,$8,$9,0*
20,1,$1+$1,$8,$9,$2,$3,0*%
G04 Aperture macros list end*
%TA.AperFunction,ComponentPad*%
%ADD10C,2.000000*%
%TD*%
%TA.AperFunction,SMDPad,CuDef*%
%ADD11RoundRect,0.250000X0.262500X0.450000X-0.262500X0.450000X-0.262500X-0.450000X0.262500X-0.450000X0*%
%TD*%
%TA.AperFunction,SMDPad,CuDef*%
%ADD12RoundRect,0.150000X0.150000X-0.825000X0.150000X0.825000X-0.150000X0.825000X-0.150000X-0.825000X0*%
%TD*%
%TA.AperFunction,SMDPad,CuDef*%
%ADD13RoundRect,0.250000X-0.475000X0.250000X-0.475000X-0.250000X0.475000X-0.250000X0.475000X0.250000X0*%
%TD*%
%TA.AperFunction,SMDPad,CuDef*%
%ADD14C,1.000000*%
%TD*%
%TA.AperFunction,SMDPad,CuDef*%
%ADD15RoundRect,0.250000X0.475000X-0.250000X0.475000X0.250000X-0.475000X0.250000X-0.475000X-0.250000X0*%
%TD*%
%TA.AperFunction,ComponentPad*%
%ADD16R,1.070000X1.070000*%
%TD*%
%TA.AperFunction,ComponentPad*%
%ADD17C,1.070000*%
%TD*%
%TA.AperFunction,SMDPad,CuDef*%
%ADD18RoundRect,0.250000X0.450000X-0.262500X0.450000X0.262500X-0.450000X0.262500X-0.450000X-0.262500X0*%
%TD*%
%TA.AperFunction,SMDPad,CuDef*%
%ADD19RoundRect,0.250000X0.250000X0.475000X-0.250000X0.475000X-0.250000X-0.475000X0.250000X-0.475000X0*%
%TD*%
%TA.AperFunction,ViaPad*%
%ADD20C,0.700000*%
%TD*%
%TA.AperFunction,Conductor*%
%ADD21C,0.250000*%
%TD*%
%TA.AperFunction,Conductor*%
%ADD22C,0.400000*%
%TD*%
G04 APERTURE END LIST*
D10*
%TO.P,SW-LH5,1*%
%TO.N,/LH5/SWITCH_LEG*%
X163600000Y-117200000D03*
%TO.P,SW-LH5,2*%
%TO.N,GND_CHAIN*%
X170600000Y-118250000D03*
%TD*%
%TO.P,SW-LH1,1*%
%TO.N,/LH1/SWITCH_LEG*%
X105600000Y-126200000D03*
%TO.P,SW-LH1,2*%
%TO.N,GND_CHAIN*%
X112600000Y-127250000D03*
%TD*%
%TO.P,SW-LH2,1*%
%TO.N,/LH2/SWITCH_LEG*%
X125600000Y-126200000D03*
%TO.P,SW-LH2,2*%
%TO.N,GND_CHAIN*%
X132600000Y-127250000D03*
%TD*%
%TO.P,SW-LH4,1*%
%TO.N,/LH4/SWITCH_LEG*%
X163600000Y-135200000D03*
%TO.P,SW-LH4,2*%
%TO.N,GND_CHAIN*%
X170600000Y-136250000D03*
%TD*%
%TO.P,SW-LH3,1*%
%TO.N,/LH3/SWITCH_LEG*%
X145600000Y-126200000D03*
%TO.P,SW-LH3,2*%
%TO.N,GND_CHAIN*%
X152600000Y-127250000D03*
%TD*%
D11*
%TO.P,R-KEY-PU-LH3,1*%
%TO.N,V3V3_CHAIN_LH*%
X153612500Y-132500000D03*
%TO.P,R-KEY-PU-LH3,2*%
%TO.N,/KEY_LH3*%
X151787500Y-132500000D03*
%TD*%
%TO.P,R-KEY-PU-LH1,1*%
%TO.N,V3V3_CHAIN_LH*%
X113612500Y-115500000D03*
%TO.P,R-KEY-PU-LH1,2*%
%TO.N,/KEY_LH1*%
X111787500Y-115500000D03*
%TD*%
D12*
%TO.P,U-KEYS-LH,1*%
%TO.N,/CHAIN_SHLD*%
X154945000Y-108975000D03*
%TO.P,U-KEYS-LH,2*%
%TO.N,/CHAIN_SCK*%
X153675000Y-108975000D03*
%TO.P,U-KEYS-LH,3*%
%TO.N,/KEY_LH4*%
X152405000Y-108975000D03*
%TO.P,U-KEYS-LH,4*%
%TO.N,/KEY_LH3*%
X151135000Y-108975000D03*
%TO.P,U-KEYS-LH,5*%
%TO.N,/KEY_LH2*%
X149865000Y-108975000D03*
%TO.P,U-KEYS-LH,6*%
%TO.N,/KEY_LH1*%
X148595000Y-108975000D03*
%TO.P,U-KEYS-LH,7*%
%TO.N,unconnected-(U-KEYS-LH-~{Q7}-Pad7)*%
X147325000Y-108975000D03*
%TO.P,U-KEYS-LH,8*%
%TO.N,GND_CHAIN*%
X146055000Y-108975000D03*
%TO.P,U-KEYS-LH,9*%
%TO.N,/HOP_LH_LT*%
X146055000Y-104025000D03*
%TO.P,U-KEYS-LH,10*%
%TO.N,/CHAIN_SER_LH*%
X147325000Y-104025000D03*
%TO.P,U-KEYS-LH,11*%
%TO.N,/KEY_FREE3*%
X148595000Y-104025000D03*
%TO.P,U-KEYS-LH,12*%
%TO.N,V3V3_CHAIN_LH*%
X149865000Y-104025000D03*
%TO.P,U-KEYS-LH,13*%
%TO.N,GND_CHAIN*%
X151135000Y-104025000D03*
%TO.P,U-KEYS-LH,14*%
%TO.N,/KEY_LH5*%
X152405000Y-104025000D03*
%TO.P,U-KEYS-LH,15*%
%TO.N,GND_CHAIN*%
X153675000Y-104025000D03*
%TO.P,U-KEYS-LH,16*%
%TO.N,V3V3_CHAIN_LH*%
X154945000Y-104025000D03*
%TD*%
D13*
%TO.P,C-KEY-LH5,1*%
%TO.N,/KEY_LH5*%
X164500000Y-102350000D03*
%TO.P,C-KEY-LH5,2*%
%TO.N,GND_CHAIN*%
X164500000Y-104250000D03*
%TD*%
D14*
%TO.P,TP-SER-LH,1*%
%TO.N,/CHAIN_SER_LH*%
X141500000Y-115000000D03*
%TD*%
D13*
%TO.P,C-KEY-LH4,1*%
%TO.N,/KEY_LH4*%
X166000000Y-119350000D03*
%TO.P,C-KEY-LH4,2*%
%TO.N,GND_CHAIN*%
X166000000Y-121250000D03*
%TD*%
D14*
%TO.P,TP-3V3-LH,1*%
%TO.N,V3V3_CHAIN_LH*%
X145000000Y-115000000D03*
%TD*%
%TO.P,TP-QH-LH,1*%
%TO.N,/HOP_LH_LT*%
X159000000Y-115000000D03*
%TD*%
D15*
%TO.P,C-KEY-LH3,1*%
%TO.N,/KEY_LH3*%
X150000000Y-136150000D03*
%TO.P,C-KEY-LH3,2*%
%TO.N,GND_CHAIN*%
X150000000Y-134250000D03*
%TD*%
D16*
%TO.P,J-CHAIN,1*%
%TO.N,unconnected-(J-CHAIN-Pin_1-Pad1)*%
X130640000Y-111160000D03*
D17*
%TO.P,J-CHAIN,2*%
%TO.N,unconnected-(J-CHAIN-Pin_2-Pad2)*%
X131910000Y-111160000D03*
%TO.P,J-CHAIN,3*%
%TO.N,V3V3_CHAIN_LH*%
X130640000Y-109890000D03*
%TO.P,J-CHAIN,4*%
%TO.N,GND_CHAIN*%
X131910000Y-109890000D03*
%TO.P,J-CHAIN,5*%
%TO.N,/HOP_LH_LT*%
X130640000Y-108620000D03*
%TO.P,J-CHAIN,6*%
%TO.N,GND_CHAIN*%
X131910000Y-108620000D03*
%TO.P,J-CHAIN,7*%
%TO.N,/CHAIN_SER_LH*%
X130640000Y-107350000D03*
%TO.P,J-CHAIN,8*%
%TO.N,GND_CHAIN*%
X131910000Y-107350000D03*
%TO.P,J-CHAIN,9*%
%TO.N,/CHAIN_SHLD*%
X130640000Y-106080000D03*
%TO.P,J-CHAIN,10*%
%TO.N,GND_CHAIN*%
X131910000Y-106080000D03*
%TO.P,J-CHAIN,11*%
%TO.N,/CHAIN_SCK*%
X130640000Y-104810000D03*
%TO.P,J-CHAIN,12*%
%TO.N,GND_CHAIN*%
X131910000Y-104810000D03*
%TD*%
D11*
%TO.P,R-KEY-SER-LH3,1*%
%TO.N,/KEY_LH3*%
X148212500Y-132500000D03*
%TO.P,R-KEY-SER-LH3,2*%
%TO.N,/LH3/SWITCH_LEG*%
X146387500Y-132500000D03*
%TD*%
D14*
%TO.P,TP-GND-LH,1*%
%TO.N,GND_CHAIN*%
X148500000Y-115000000D03*
%TD*%
D11*
%TO.P,R-KEY-SER-LH4,1*%
%TO.N,/KEY_LH4*%
X164212500Y-123000000D03*
%TO.P,R-KEY-SER-LH4,2*%
%TO.N,/LH4/SWITCH_LEG*%
X162387500Y-123000000D03*
%TD*%
%TO.P,R-KEY-PU-LH4,1*%
%TO.N,V3V3_CHAIN_LH*%
X169612500Y-123000000D03*
%TO.P,R-KEY-PU-LH4,2*%
%TO.N,/KEY_LH4*%
X167787500Y-123000000D03*
%TD*%
D15*
%TO.P,C-BULK-CHAIN-LH,1*%
%TO.N,V3V3_CHAIN_LH*%
X127000000Y-108950000D03*
%TO.P,C-BULK-CHAIN-LH,2*%
%TO.N,GND_CHAIN*%
X127000000Y-107050000D03*
%TD*%
D14*
%TO.P,TP-SCK-LH,1*%
%TO.N,/CHAIN_SCK*%
X152000000Y-115000000D03*
%TD*%
D15*
%TO.P,C-KEY-LH2,1*%
%TO.N,/KEY_LH2*%
X130000000Y-136150000D03*
%TO.P,C-KEY-LH2,2*%
%TO.N,GND_CHAIN*%
X130000000Y-134250000D03*
%TD*%
D11*
%TO.P,R-KEY-PU-LH5,1*%
%TO.N,V3V3_CHAIN_LH*%
X168112500Y-106000000D03*
%TO.P,R-KEY-PU-LH5,2*%
%TO.N,/KEY_LH5*%
X166287500Y-106000000D03*
%TD*%
%TO.P,R-KEY-SER-LH2,1*%
%TO.N,/KEY_LH2*%
X128212500Y-132500000D03*
%TO.P,R-KEY-SER-LH2,2*%
%TO.N,/LH2/SWITCH_LEG*%
X126387500Y-132500000D03*
%TD*%
%TO.P,R-KEY-PU-LH2,1*%
%TO.N,V3V3_CHAIN_LH*%
X133612499Y-132500000D03*
%TO.P,R-KEY-PU-LH2,2*%
%TO.N,/KEY_LH2*%
X131787499Y-132500000D03*
%TD*%
D18*
%TO.P,R-KEY-PU-FREE3,1*%
%TO.N,V3V3_CHAIN_LH*%
X144000000Y-107412500D03*
%TO.P,R-KEY-PU-FREE3,2*%
%TO.N,/KEY_FREE3*%
X144000000Y-105587500D03*
%TD*%
D14*
%TO.P,TP-SHLD-LH,1*%
%TO.N,/CHAIN_SHLD*%
X155500000Y-115000000D03*
%TD*%
D11*
%TO.P,R-KEY-SER-LH5,1*%
%TO.N,/KEY_LH5*%
X162712500Y-106000000D03*
%TO.P,R-KEY-SER-LH5,2*%
%TO.N,/LH5/SWITCH_LEG*%
X160887500Y-106000000D03*
%TD*%
D13*
%TO.P,C-KEY-LH1,1*%
%TO.N,/KEY_LH1*%
X110000000Y-111850000D03*
%TO.P,C-KEY-LH1,2*%
%TO.N,GND_CHAIN*%
X110000000Y-113750000D03*
%TD*%
D19*
%TO.P,C-DECOUPLE-165-LH,1*%
%TO.N,V3V3_CHAIN_LH*%
X155250000Y-101800000D03*
%TO.P,C-DECOUPLE-165-LH,2*%
%TO.N,GND_CHAIN*%
X153350000Y-101800000D03*
%TD*%
D11*
%TO.P,R-KEY-SER-LH1,1*%
%TO.N,/KEY_LH1*%
X108212500Y-115500000D03*
%TO.P,R-KEY-SER-LH1,2*%
%TO.N,/LH1/SWITCH_LEG*%
X106387500Y-115500000D03*
%TD*%
D20*
%TO.N,/CHAIN_SCK*%
X133000000Y-110500000D03*
X153600000Y-110500000D03*
%TO.N,/CHAIN_SHLD*%
X155000000Y-112500000D03*
X128800000Y-112500000D03*
%TO.N,/HOP_LH_LT*%
X145200000Y-103700000D03*
%TO.N,/KEY_FREE3*%
X148400000Y-105700000D03*
X145400000Y-105700000D03*
%TO.N,/KEY_LH1*%
X111600000Y-113500000D03*
X148400000Y-113500000D03*
%TO.N,/KEY_LH4*%
X165400000Y-114700000D03*
X152600000Y-111500000D03*
%TO.N,GND_CHAIN*%
X130400000Y-132900000D03*
X110200000Y-114900000D03*
X135200000Y-124700000D03*
X149000000Y-135100000D03*
X165600000Y-123100000D03*
X134000000Y-104700000D03*
X147200000Y-115700000D03*
X150400000Y-132900000D03*
X164000000Y-106500000D03*
X154800000Y-106500000D03*
X150800000Y-102500000D03*
X152200000Y-102300000D03*
X164800000Y-105700000D03*
X151600000Y-105500000D03*
X147400000Y-114500000D03*
X166400000Y-122300000D03*
X134000000Y-109500000D03*
X165400000Y-126500000D03*
X126000000Y-107900000D03*
X129000000Y-135100000D03*
X146200000Y-111500000D03*
X134000000Y-111500000D03*
%TO.N,V3V3_CHAIN_LH*%
X134199999Y-131100000D03*
X145400000Y-107100000D03*
X144000000Y-114500000D03*
X155800000Y-104100000D03*
X127600000Y-110100000D03*
X127600000Y-114500000D03*
X114600000Y-114500000D03*
X167800000Y-104700000D03*
X149800000Y-106500000D03*
X153400000Y-131100000D03*
%TD*%
D21*
%TO.N,/CHAIN_SCK*%
X133000000Y-104100000D02*
X132600000Y-103700000D01*
X131000000Y-103900000D02*
X131000000Y-104500000D01*
X133000000Y-110500000D02*
X133000000Y-104100000D01*
X151999999Y-114999999D02*
X152200000Y-114700000D01*
X131199999Y-103700000D02*
X131000000Y-103900000D01*
X153600000Y-113300000D02*
X152200000Y-114700000D01*
X153600000Y-109700000D02*
X153600000Y-113300000D01*
X130640000Y-104810000D02*
X131000000Y-104500000D01*
X132600000Y-103700000D02*
X131199999Y-103700000D01*
%TO.N,/CHAIN_SER_LH*%
X141800000Y-105700000D02*
X145000000Y-102500000D01*
X146600000Y-102500000D02*
X147200000Y-103100000D01*
X129600000Y-112100000D02*
X129600000Y-107900000D01*
X147200000Y-103100000D02*
X147200000Y-103300000D01*
X141800000Y-114700000D02*
X141800000Y-105700000D01*
X147325000Y-104024999D02*
X147200000Y-103300000D01*
X141200000Y-114700000D02*
X132199999Y-114700000D01*
X130639999Y-107350000D02*
X130199999Y-107300000D01*
X129600000Y-107900000D02*
X130199999Y-107300000D01*
X132199999Y-114700000D02*
X129600000Y-112100000D01*
X145000000Y-102500000D02*
X146600000Y-102500000D01*
%TO.N,/CHAIN_SHLD*%
X128800000Y-112500000D02*
X128800000Y-107500000D01*
X155000000Y-109700000D02*
X155000000Y-114500000D01*
X155000000Y-114500000D02*
X155200000Y-114700000D01*
X128800000Y-107500000D02*
X130199999Y-106100000D01*
X155499999Y-114999999D02*
X155200000Y-114700000D01*
X130639999Y-106079999D02*
X130199999Y-106100000D01*
%TO.N,/HOP_LH_LT*%
X158600000Y-110500000D02*
X158600000Y-114900000D01*
X146600000Y-105300000D02*
X146600000Y-105500000D01*
X146000000Y-103700000D02*
X145200000Y-103700000D01*
X155600000Y-107500000D02*
X158600000Y-110500000D01*
X159000000Y-114999999D02*
X158600000Y-114900000D01*
X146600000Y-105500000D02*
X148600000Y-107500000D01*
X148600000Y-107500000D02*
X155600000Y-107500000D01*
X146200000Y-104900000D02*
X146600000Y-105300000D01*
%TO.N,/KEY_FREE3*%
X145400000Y-105700000D02*
X144600000Y-105700000D01*
X144000000Y-105587500D02*
X144600000Y-105700000D01*
X148400000Y-104900000D02*
X148400000Y-105700000D01*
%TO.N,/KEY_LH1*%
X148400000Y-113500000D02*
X148400000Y-109700000D01*
X110000000Y-111849999D02*
X110600000Y-112100000D01*
X111400000Y-112900000D02*
X110600000Y-112100000D01*
X109400000Y-112100000D02*
X108600000Y-112900000D01*
X108600000Y-112900000D02*
X108600000Y-114900000D01*
X111400000Y-113500000D02*
X111600000Y-113500000D01*
X108212499Y-115500000D02*
X108600000Y-114900000D01*
X148594999Y-108975000D02*
X148400000Y-109700000D01*
X111400000Y-114900000D02*
X111400000Y-112900000D01*
%TO.N,/KEY_LH2*%
X149864999Y-108975000D02*
X149800000Y-109700000D01*
X149000000Y-116100000D02*
X149800000Y-115300000D01*
X130000000Y-136149999D02*
X130600000Y-135900000D01*
X128212500Y-132499999D02*
X128600000Y-131900000D01*
X148000000Y-116100000D02*
X149000000Y-116100000D01*
X132600000Y-131500000D02*
X148000000Y-116100000D01*
X132600000Y-131699999D02*
X132600000Y-131500000D01*
X131400000Y-133100000D02*
X131400000Y-135100000D01*
X149800000Y-115300000D02*
X149800000Y-109700000D01*
X131400000Y-131900000D02*
X128600000Y-131900000D01*
X132199999Y-132100000D02*
X132600000Y-131699999D01*
X131400000Y-135100000D02*
X130600000Y-135900000D01*
%TO.N,/KEY_LH3*%
X151400000Y-131900000D02*
X148600000Y-131900000D01*
X151400000Y-135100000D02*
X150600000Y-135900000D01*
X151000000Y-125100000D02*
X153200000Y-122900000D01*
X151400000Y-133100000D02*
X151400000Y-135100000D01*
X151135000Y-108974999D02*
X151000000Y-109700000D01*
X151000000Y-115700000D02*
X151000000Y-109700000D01*
X153200000Y-122900000D02*
X153200000Y-117900000D01*
X151000000Y-131900000D02*
X151000000Y-125100000D01*
X150000000Y-136149999D02*
X150600000Y-135900000D01*
X148212500Y-132499999D02*
X148600000Y-131900000D01*
X153200000Y-117900000D02*
X151000000Y-115700000D01*
%TO.N,/KEY_LH4*%
X166600000Y-119700000D02*
X167400000Y-120500000D01*
X152405000Y-108975000D02*
X152600000Y-109700000D01*
X164212500Y-123000000D02*
X164600000Y-122500000D01*
X164600000Y-120500000D02*
X164600000Y-122500000D01*
X167787500Y-122999999D02*
X167400000Y-122500000D01*
X167400000Y-120500000D02*
X167400000Y-122500000D01*
X165400000Y-119700000D02*
X164600000Y-120500000D01*
X165400000Y-119100000D02*
X165400000Y-114700000D01*
X152600000Y-111500000D02*
X152600000Y-109700000D01*
%TO.N,/KEY_LH5*%
X163000000Y-103700000D02*
X164000000Y-102700000D01*
X166287500Y-106000000D02*
X166000000Y-105500000D01*
X156400000Y-104700000D02*
X155600000Y-105500000D01*
X155600000Y-105500000D02*
X153000000Y-105500000D01*
X166000000Y-103700000D02*
X166000000Y-105500000D01*
X152600000Y-105100000D02*
X152600000Y-104900000D01*
X163000000Y-105500000D02*
X163000000Y-103700000D01*
X153000000Y-105500000D02*
X152600000Y-105100000D01*
X164500000Y-102349999D02*
X164000000Y-102700000D01*
X161600000Y-104700000D02*
X156400000Y-104700000D01*
X165000000Y-102700000D02*
X166000000Y-103700000D01*
X152405000Y-104025000D02*
X152600000Y-104900000D01*
X162400000Y-105500000D02*
X161600000Y-104700000D01*
%TO.N,/LH1/SWITCH_LEG*%
X105600000Y-126200000D02*
X106000000Y-125500000D01*
X106000000Y-116100000D02*
X106000000Y-125500000D01*
%TO.N,/LH2/SWITCH_LEG*%
X125600000Y-126200000D02*
X126000000Y-126900000D01*
X126000000Y-131900000D02*
X126000000Y-126900000D01*
%TO.N,/LH3/SWITCH_LEG*%
X145599999Y-126199999D02*
X146000000Y-126900000D01*
X146000000Y-131900000D02*
X146000000Y-126900000D01*
%TO.N,/LH4/SWITCH_LEG*%
X162800000Y-134700000D02*
X162800000Y-123500000D01*
X162387500Y-123000000D02*
X162800000Y-123500000D01*
%TO.N,/LH5/SWITCH_LEG*%
X160887500Y-106000000D02*
X161200000Y-106500000D01*
X162800000Y-108100000D02*
X161200000Y-106500000D01*
X162800000Y-116700000D02*
X162800000Y-108100000D01*
%TO.N,GND_CHAIN*%
X164499999Y-104249999D02*
X164800000Y-105700000D01*
X132000000Y-109500000D02*
X132000000Y-108900000D01*
X134000000Y-111500000D02*
X134000000Y-109500000D01*
X164499999Y-104249999D02*
X164000000Y-104500000D01*
X113200000Y-126700000D02*
X113200000Y-118900000D01*
X153600000Y-102300000D02*
X153600000Y-103300000D01*
X166000000Y-121249999D02*
X165600000Y-123100000D01*
X130600000Y-103100000D02*
X127600000Y-106100000D01*
X151200000Y-103300000D02*
X151200000Y-103100000D01*
X129999999Y-134249999D02*
X130400000Y-133900000D01*
X134000000Y-104700000D02*
X134000000Y-103900000D01*
X150400000Y-132900000D02*
X150400000Y-133900000D01*
X127600000Y-106100000D02*
X127600000Y-106700000D01*
X146200000Y-112700000D02*
X146200000Y-109700000D01*
X148200000Y-115300000D02*
X147600000Y-115300000D01*
X132599999Y-127249999D02*
X133199999Y-126700000D01*
X166400000Y-121500000D02*
X166400000Y-122300000D01*
X151600000Y-105500000D02*
X151000000Y-104900000D01*
X132000000Y-106900000D02*
X132000000Y-106500000D01*
X150000000Y-134249999D02*
X149000000Y-135100000D01*
X130400000Y-132900000D02*
X130400000Y-133900000D01*
X109999999Y-113749999D02*
X110200000Y-114900000D01*
X134000000Y-103900000D02*
X133199999Y-103100000D01*
X152600000Y-106500000D02*
X154800000Y-106500000D01*
X131910000Y-108620000D02*
X132000000Y-108900000D01*
X133199999Y-103100000D02*
X130600000Y-103100000D01*
X151135000Y-104024999D02*
X151000000Y-104900000D01*
X132199999Y-108300000D02*
X132199999Y-107700000D01*
X165400000Y-128500000D02*
X164800000Y-129100000D01*
X131910000Y-106080000D02*
X132000000Y-106500000D01*
X151135000Y-104024999D02*
X150800000Y-102500000D01*
X129999999Y-134249999D02*
X129000000Y-135100000D01*
X151200000Y-103100000D02*
X152000000Y-102300000D01*
X147600000Y-115300000D02*
X147200000Y-115700000D01*
X151600000Y-105500000D02*
X152600000Y-106500000D01*
X113200000Y-118900000D02*
X110600000Y-116300000D01*
X148499999Y-114999999D02*
X147400000Y-114500000D01*
X126999999Y-107050000D02*
X126000000Y-107900000D01*
X170599999Y-136249999D02*
X169800000Y-135900000D01*
X164000000Y-106500000D02*
X164000000Y-104500000D01*
X148200000Y-114700000D02*
X146200000Y-112700000D01*
X153349999Y-101800000D02*
X153000000Y-102300000D01*
X131910000Y-104810000D02*
X132199999Y-105100000D01*
X165400000Y-126500000D02*
X165400000Y-128500000D01*
X110600000Y-116300000D02*
X110600000Y-114100000D01*
X165400000Y-126500000D02*
X165400000Y-121500000D01*
X152000000Y-102300000D02*
X153000000Y-102300000D01*
X135200000Y-124700000D02*
X133199999Y-126700000D01*
X168800000Y-135900000D02*
X169800000Y-135900000D01*
X131910000Y-107350000D02*
X132199999Y-107700000D01*
X166000000Y-121249999D02*
X165400000Y-121500000D01*
X150000000Y-134249999D02*
X150400000Y-133900000D01*
X132199999Y-105700000D02*
X132199999Y-105100000D01*
X153349999Y-101800000D02*
X152200000Y-102300000D01*
X126999999Y-107050000D02*
X127600000Y-106700000D01*
X153674999Y-104024999D02*
X153600000Y-103300000D01*
X146054999Y-108975000D02*
X146200000Y-109700000D01*
X164800000Y-129100000D02*
X164800000Y-131900000D01*
X164800000Y-131900000D02*
X168800000Y-135900000D01*
X109999999Y-113749999D02*
X110600000Y-114100000D01*
D22*
%TO.N,V3V3_CHAIN_LH*%
X155000000Y-103300000D02*
X155000000Y-102300000D01*
X171200000Y-115100000D02*
X169000000Y-117300000D01*
X169612500Y-123000000D02*
X169200000Y-122500000D01*
X144600000Y-114900000D02*
X144600000Y-107700000D01*
X126999999Y-108949999D02*
X127600000Y-109300000D01*
X169000000Y-122300000D02*
X169200000Y-122500000D01*
X155800000Y-104100000D02*
X155000000Y-104100000D01*
X134199999Y-131100000D02*
X134199999Y-131699999D01*
X134199999Y-131699999D02*
X134000000Y-131900000D01*
X113612500Y-115500000D02*
X114000000Y-115100000D01*
X144600000Y-114500000D02*
X144000000Y-114500000D01*
X155250000Y-101800000D02*
X155000000Y-102300000D01*
X153400000Y-131100000D02*
X153400000Y-131900000D01*
X154945000Y-104024999D02*
X155000000Y-104100000D01*
X169000000Y-117300000D02*
X169000000Y-122300000D01*
X149864999Y-104025000D02*
X149800000Y-104900000D01*
X133612498Y-132499999D02*
X134000000Y-131900000D01*
X144000000Y-107412499D02*
X144600000Y-107700000D01*
X168400000Y-108100000D02*
X171200000Y-110900000D01*
X153612500Y-132500000D02*
X153400000Y-131900000D01*
X168400000Y-106500000D02*
X168400000Y-108100000D01*
X167800000Y-104700000D02*
X167800000Y-105500000D01*
X149800000Y-106500000D02*
X149800000Y-104900000D01*
X171200000Y-110900000D02*
X171200000Y-115100000D01*
X114600000Y-114500000D02*
X114000000Y-115100000D01*
X168112500Y-106000000D02*
X167800000Y-105500000D01*
X144600000Y-107100000D02*
X145400000Y-107100000D01*
X127600000Y-114500000D02*
X127600000Y-109300000D01*
%TD*%
%TA.AperFunction,Conductor*%
%TO.N,GND_CHAIN*%
G36*
X131583852Y-108755095D02*
G01*
X131629930Y-108834905D01*
X131695095Y-108900070D01*
X131774905Y-108946148D01*
X131847296Y-108965545D01*
X131557842Y-109255000D01*
X131847296Y-109544454D01*
X131774905Y-109563852D01*
X131695095Y-109609930D01*
X131629930Y-109675095D01*
X131583852Y-109754905D01*
X131564454Y-109827296D01*
X131318442Y-109581284D01*
X131295292Y-109546637D01*
X131294660Y-109546976D01*
X131291790Y-109541607D01*
X131211300Y-109421146D01*
X131211297Y-109421142D01*
X131132836Y-109342681D01*
X131128497Y-109334735D01*
X131121250Y-109329310D01*
X131112015Y-109304550D01*
X131099351Y-109281358D01*
X131099996Y-109272328D01*
X131096833Y-109263846D01*
X131102449Y-109238025D01*
X131104335Y-109211666D01*
X131110153Y-109202612D01*
X131111685Y-109195573D01*
X131132836Y-109167319D01*
X131184198Y-109115957D01*
X131211297Y-109088857D01*
X131211300Y-109088854D01*
X131291792Y-108968390D01*
X131291795Y-108968381D01*
X131294665Y-108963015D01*
X131295300Y-108963354D01*
X131318443Y-108928712D01*
X131564454Y-108682701D01*
X131583852Y-108755095D01*
G37*
%TD.AperFunction*%
%TA.AperFunction,Conductor*%
G36*
X132638181Y-109065340D02*
G01*
X132652884Y-109092267D01*
X132669477Y-109118086D01*
X132670368Y-109124286D01*
X132671666Y-109126663D01*
X132674500Y-109153021D01*
X132674500Y-109356978D01*
X132654815Y-109424017D01*
X132638181Y-109444659D01*
X132255544Y-109827295D01*
X132236148Y-109754905D01*
X132190070Y-109675095D01*
X132124905Y-109609930D01*
X132045095Y-109563852D01*
X131972703Y-109544454D01*
X132262158Y-109255000D01*
X131972703Y-108965545D01*
X132045095Y-108946148D01*
X132124905Y-108900070D01*
X132190070Y-108834905D01*
X132236148Y-108755095D01*
X132255545Y-108682704D01*
X132638181Y-109065340D01*
G37*
%TD.AperFunction*%
%TA.AperFunction,Conductor*%
G36*
X131583852Y-107485095D02*
G01*
X131629930Y-107564905D01*
X131695095Y-107630070D01*
X131774905Y-107676148D01*
X131847296Y-107695545D01*
X131557842Y-107985000D01*
X131847296Y-108274454D01*
X131774905Y-108293852D01*
X131695095Y-108339930D01*
X131629930Y-108405095D01*
X131583852Y-108484905D01*
X131564454Y-108557296D01*
X131318442Y-108311284D01*
X131295292Y-108276637D01*
X131294660Y-108276976D01*
X131291790Y-108271607D01*
X131211300Y-108151146D01*
X131211297Y-108151142D01*
X131132836Y-108072681D01*
X131128497Y-108064735D01*
X131121250Y-108059310D01*
X131112015Y-108034550D01*
X131099351Y-108011358D01*
X131099996Y-108002328D01*
X131096833Y-107993846D01*
X131102449Y-107968025D01*
X131104335Y-107941666D01*
X131110153Y-107932612D01*
X131111685Y-107925573D01*
X131132836Y-107897319D01*
X131184198Y-107845957D01*
X131211297Y-107818857D01*
X131211300Y-107818854D01*
X131291792Y-107698390D01*
X131291795Y-107698381D01*
X131294665Y-107693015D01*
X131295300Y-107693354D01*
X131318443Y-107658712D01*
X131564454Y-107412701D01*
X131583852Y-107485095D01*
G37*
%TD.AperFunction*%
%TA.AperFunction,Conductor*%
G36*
X132638181Y-107795340D02*
G01*
X132652884Y-107822267D01*
X132669477Y-107848086D01*
X132670368Y-107854286D01*
X132671666Y-107856663D01*
X132674500Y-107883021D01*
X132674500Y-108086978D01*
X132654815Y-108154017D01*
X132638181Y-108174659D01*
X132255545Y-108557295D01*
X132236148Y-108484905D01*
X132190070Y-108405095D01*
X132124905Y-108339930D01*
X132045095Y-108293852D01*
X131972703Y-108274454D01*
X132262158Y-107985000D01*
X131972703Y-107695545D01*
X132045095Y-107676148D01*
X132124905Y-107630070D01*
X132190070Y-107564905D01*
X132236148Y-107485095D01*
X132255545Y-107412704D01*
X132638181Y-107795340D01*
G37*
%TD.AperFunction*%
%TA.AperFunction,Conductor*%
G36*
X131583852Y-106215095D02*
G01*
X131629930Y-106294905D01*
X131695095Y-106360070D01*
X131774905Y-106406148D01*
X131847296Y-106425545D01*
X131557842Y-106715000D01*
X131847296Y-107004454D01*
X131774905Y-107023852D01*
X131695095Y-107069930D01*
X131629930Y-107135095D01*
X131583852Y-107214905D01*
X131564454Y-107287296D01*
X131318442Y-107041284D01*
X131295292Y-107006637D01*
X131294660Y-107006976D01*
X131291790Y-107001607D01*
X131211300Y-106881146D01*
X131211297Y-106881142D01*
X131132836Y-106802681D01*
X131128497Y-106794735D01*
X131121250Y-106789310D01*
X131112015Y-106764550D01*
X131099351Y-106741358D01*
X131099996Y-106732328D01*
X131096833Y-106723846D01*
X131102449Y-106698025D01*
X131104335Y-106671666D01*
X131110153Y-106662612D01*
X131111685Y-106655573D01*
X131132836Y-106627319D01*
X131184198Y-106575957D01*
X131211297Y-106548857D01*
X131211300Y-106548854D01*
X131291792Y-106428390D01*
X131291795Y-106428381D01*
X131294665Y-106423015D01*
X131295300Y-106423354D01*
X131318443Y-106388712D01*
X131564454Y-106142701D01*
X131583852Y-106215095D01*
G37*
%TD.AperFunction*%
%TA.AperFunction,Conductor*%
G36*
X132638181Y-106525340D02*
G01*
X132652884Y-106552267D01*
X132669477Y-106578086D01*
X132670368Y-106584286D01*
X132671666Y-106586663D01*
X132674500Y-106613021D01*
X132674500Y-106816978D01*
X132654815Y-106884017D01*
X132638181Y-106904659D01*
X132255545Y-107287295D01*
X132236148Y-107214905D01*
X132190070Y-107135095D01*
X132124905Y-107069930D01*
X132045095Y-107023852D01*
X131972703Y-107004454D01*
X132262158Y-106715000D01*
X131972703Y-106425545D01*
X132045095Y-106406148D01*
X132124905Y-106360070D01*
X132190070Y-106294905D01*
X132236148Y-106215095D01*
X132255545Y-106142704D01*
X132638181Y-106525340D01*
G37*
%TD.AperFunction*%
%TA.AperFunction,Conductor*%
G36*
X131583852Y-104945095D02*
G01*
X131629930Y-105024905D01*
X131695095Y-105090070D01*
X131774905Y-105136148D01*
X131847296Y-105155545D01*
X131557842Y-105445000D01*
X131847296Y-105734454D01*
X131774905Y-105753852D01*
X131695095Y-105799930D01*
X131629930Y-105865095D01*
X131583852Y-105944905D01*
X131564454Y-106017296D01*
X131318442Y-105771284D01*
X131295292Y-105736637D01*
X131294660Y-105736976D01*
X131291790Y-105731607D01*
X131211299Y-105611144D01*
X131132836Y-105532681D01*
X131128497Y-105524735D01*
X131121250Y-105519310D01*
X131112015Y-105494550D01*
X131099351Y-105471358D01*
X131099996Y-105462328D01*
X131096833Y-105453846D01*
X131102449Y-105428025D01*
X131104335Y-105401666D01*
X131110153Y-105392612D01*
X131111685Y-105385573D01*
X131132836Y-105357319D01*
X131184198Y-105305957D01*
X131211297Y-105278857D01*
X131211300Y-105278854D01*
X131291792Y-105158390D01*
X131291795Y-105158381D01*
X131294665Y-105153015D01*
X131295300Y-105153354D01*
X131318443Y-105118713D01*
X131564454Y-104872701D01*
X131583852Y-104945095D01*
G37*
%TD.AperFunction*%
%TA.AperFunction,Conductor*%
G36*
X132638181Y-105255339D02*
G01*
X132652884Y-105282266D01*
X132669477Y-105308085D01*
X132670368Y-105314285D01*
X132671666Y-105316662D01*
X132674500Y-105343020D01*
X132674500Y-105546978D01*
X132654815Y-105614017D01*
X132638181Y-105634659D01*
X132255545Y-106017295D01*
X132236148Y-105944905D01*
X132190070Y-105865095D01*
X132124905Y-105799930D01*
X132045095Y-105753852D01*
X131972703Y-105734454D01*
X132262158Y-105445000D01*
X131972703Y-105155545D01*
X132045095Y-105136148D01*
X132124905Y-105090070D01*
X132190070Y-105024905D01*
X132236148Y-104945095D01*
X132255545Y-104872703D01*
X132638181Y-105255339D01*
G37*
%TD.AperFunction*%
%TA.AperFunction,Conductor*%
G36*
X152624869Y-100820185D02*
G01*
X152670624Y-100872989D01*
X152680568Y-100942147D01*
X152656634Y-100999425D01*
X152616080Y-101052902D01*
X152560613Y-101193556D01*
X152550000Y-101281946D01*
X152550000Y-101600000D01*
X154150000Y-101600000D01*
X154150000Y-101281946D01*
X154139386Y-101193556D01*
X154083919Y-101052902D01*
X154043366Y-100999425D01*
X154018543Y-100934114D01*
X154032971Y-100865750D01*
X154082068Y-100816039D01*
X154142170Y-100800500D01*
X154581561Y-100800500D01*
X154648600Y-100820185D01*
X154694355Y-100872989D01*
X154704299Y-100942147D01*
X154681331Y-100998134D01*
X154677850Y-101002849D01*
X154677850Y-101002850D01*
X154670154Y-101013278D01*
X154597207Y-101112117D01*
X154597206Y-101112119D01*
X154552353Y-101240298D01*
X154552353Y-101240300D01*
X154549500Y-101270730D01*
X154549500Y-102329269D01*
X154552353Y-102359699D01*
X154552354Y-102359701D01*
X154592541Y-102474548D01*
X154599500Y-102515503D01*
X154599500Y-102848456D01*
X154579815Y-102915495D01*
X154575702Y-102921501D01*
X154570010Y-102929308D01*
X154505802Y-102993517D01*
X154470373Y-103065987D01*
X154463956Y-103074791D01*
X154444541Y-103089712D01*
X154428026Y-103107789D01*
X154417331Y-103110625D01*
X154408558Y-103117369D01*
X154384157Y-103119425D01*
X154360492Y-103125703D01*
X154349961Y-103122307D01*
X154338935Y-103123237D01*
X154317298Y-103111776D01*
X154293993Y-103104262D01*
X154286968Y-103095710D01*
X154277192Y-103090532D01*
X154265185Y-103069192D01*
X154249644Y-103050272D01*
X154246712Y-103042700D01*
X154227346Y-102987354D01*
X154146792Y-102878207D01*
X154046567Y-102804238D01*
X154004317Y-102748590D01*
X153998858Y-102678934D01*
X154021398Y-102629541D01*
X154083920Y-102547095D01*
X154139386Y-102406443D01*
X154150000Y-102318053D01*
X154150000Y-102000000D01*
X152550000Y-102000000D01*
X152550000Y-102318053D01*
X152560613Y-102406443D01*
X152616079Y-102547095D01*
X152694725Y-102650804D01*
X152719548Y-102716116D01*
X152705120Y-102784480D01*
X152656023Y-102834191D01*
X152592747Y-102848368D01*
X152592747Y-102849500D01*
X152221739Y-102849500D01*
X152153608Y-102859426D01*
X152048514Y-102910803D01*
X151965802Y-102993515D01*
X151935154Y-103056207D01*
X151888026Y-103107789D01*
X151820492Y-103125703D01*
X151753993Y-103104262D01*
X151709644Y-103050272D01*
X151706712Y-103042700D01*
X151687346Y-102987354D01*
X151606792Y-102878207D01*
X151497645Y-102797653D01*
X151369602Y-102752850D01*
X151339207Y-102750000D01*
X151335000Y-102750000D01*
X151335000Y-105299999D01*
X151339196Y-105299999D01*
X151369606Y-105297148D01*
X151497645Y-105252346D01*
X151606792Y-105171792D01*
X151687346Y-105062645D01*
X151687347Y-105062643D01*
X151706712Y-105007300D01*
X151747433Y-104950523D01*
X151812385Y-104924775D01*
X151880947Y-104938231D01*
X151931351Y-104986617D01*
X151935154Y-104993791D01*
X151958578Y-105041705D01*
X151965803Y-105056485D01*
X152048514Y-105139196D01*
X152048515Y-105139196D01*
X152048517Y-105139198D01*
X152153607Y-105190573D01*
X152188199Y-105195613D01*
X152226180Y-105201147D01*
X152225934Y-105202829D01*
X152284656Y-105224773D01*
X152317670Y-105261992D01*
X152328202Y-105280233D01*
X152339535Y-105299862D01*
X152739534Y-105699861D01*
X152739535Y-105699862D01*
X152800138Y-105760465D01*
X152800140Y-105760466D01*
X152800144Y-105760469D01*
X152866031Y-105798508D01*
X152874362Y-105803318D01*
X152957147Y-105825500D01*
X152957149Y-105825500D01*
X155642851Y-105825500D01*
X155642853Y-105825500D01*
X155725639Y-105803318D01*
X155799862Y-105760465D01*
X156498508Y-105061819D01*
X156559831Y-105028334D01*
X156586189Y-105025500D01*
X160206561Y-105025500D01*
X160273600Y-105045185D01*
X160319355Y-105097989D01*
X160329299Y-105167147D01*
X160306331Y-105223134D01*
X160222207Y-105337117D01*
X160222206Y-105337119D01*
X160177353Y-105465298D01*
X160177353Y-105465300D01*
X160174500Y-105495730D01*
X160174500Y-106504269D01*
X160177353Y-106534699D01*
X160177353Y-106534701D01*
X160222206Y-106662880D01*
X160222207Y-106662882D01*
X160302850Y-106772150D01*
X160412118Y-106852793D01*
X160454845Y-106867744D01*
X160540299Y-106897646D01*
X160570730Y-106900500D01*
X160570734Y-106900500D01*
X161088811Y-106900500D01*
X161155850Y-106920185D01*
X161176492Y-106936819D01*
X162438181Y-108198507D01*
X162471666Y-108259830D01*
X162474500Y-108286188D01*
X162474500Y-116750979D01*
X162473293Y-116750979D01*
X162469218Y-116795282D01*
X162429060Y-116918878D01*
X162399500Y-117105513D01*
X162399500Y-117294486D01*
X162429059Y-117481118D01*
X162487454Y-117660836D01*
X162573240Y-117829199D01*
X162684310Y-117982073D01*
X162817927Y-118115690D01*
X162970801Y-118226760D01*
X163050347Y-118267290D01*
X163139163Y-118312545D01*
X163139165Y-118312545D01*
X163139168Y-118312547D01*
X163235497Y-118343846D01*
X163318881Y-118370940D01*
X163505514Y-118400500D01*
X163505519Y-118400500D01*
X163694486Y-118400500D01*
X163881118Y-118370940D01*
X163938433Y-118352317D01*
X164060832Y-118312547D01*
X164229199Y-118226760D01*
X164382073Y-118115690D01*
X164515690Y-117982073D01*
X164626760Y-117829199D01*
X164712547Y-117660832D01*
X164770940Y-117481118D01*
X164773351Y-117465893D01*
X164800500Y-117294486D01*
X164800500Y-117105513D01*
X164770940Y-116918881D01*
X164720187Y-116762681D01*
X164712547Y-116739168D01*
X164712545Y-116739165D01*
X164712545Y-116739163D01*
X164626759Y-116570800D01*
X164593120Y-116524500D01*
X164515690Y-116417927D01*
X164382073Y-116284310D01*
X164229199Y-116173240D01*
X164208870Y-116162882D01*
X164060836Y-116087454D01*
X163881118Y-116029059D01*
X163694486Y-115999500D01*
X163694481Y-115999500D01*
X163505519Y-115999500D01*
X163505514Y-115999500D01*
X163318880Y-116029060D01*
X163287816Y-116039153D01*
X163217975Y-116041147D01*
X163158143Y-116005065D01*
X163127316Y-115942364D01*
X163125500Y-115921221D01*
X163125500Y-108152855D01*
X163125501Y-108152842D01*
X163125501Y-108057148D01*
X163124728Y-108054262D01*
X163103318Y-107974361D01*
X163079214Y-107932612D01*
X163071996Y-107920110D01*
X163071994Y-107920108D01*
X163065432Y-107908742D01*
X163060465Y-107900138D01*
X162999862Y-107839535D01*
X162999859Y-107839533D01*
X162269428Y-107109101D01*
X162235944Y-107047780D01*
X162240928Y-106978088D01*
X162282800Y-106922155D01*
X162348264Y-106897738D01*
X162368687Y-106897964D01*
X162395730Y-106900500D01*
X162395734Y-106900500D01*
X163029270Y-106900500D01*
X163059699Y-106897646D01*
X163059701Y-106897646D01*
X163123790Y-106875219D01*
X163187882Y-106852793D01*
X163297150Y-106772150D01*
X163377793Y-106662882D01*
X163404463Y-106586663D01*
X163422646Y-106534701D01*
X163422646Y-106534699D01*
X163425500Y-106504269D01*
X163425500Y-105495730D01*
X163422646Y-105465300D01*
X163422646Y-105465298D01*
X163385700Y-105359716D01*
X163377793Y-105337118D01*
X163377791Y-105337115D01*
X163377790Y-105337113D01*
X163349730Y-105299093D01*
X163325759Y-105233464D01*
X163325500Y-105225460D01*
X163325500Y-104856547D01*
X163345185Y-104789508D01*
X163397989Y-104743753D01*
X163467147Y-104733809D01*
X163530703Y-104762834D01*
X163548304Y-104781622D01*
X163632433Y-104892563D01*
X163752904Y-104983920D01*
X163893556Y-105039386D01*
X163981946Y-105050000D01*
X164300000Y-105050000D01*
X164300000Y-103450000D01*
X164009688Y-103450000D01*
X163988442Y-103443761D01*
X163966354Y-103442182D01*
X163955570Y-103434109D01*
X163942649Y-103430315D01*
X163928149Y-103413581D01*
X163910421Y-103400310D01*
X163905713Y-103387689D01*
X163896894Y-103377511D01*
X163893742Y-103355593D01*
X163886004Y-103334846D01*
X163888866Y-103321685D01*
X163886950Y-103308353D01*
X163896149Y-103288209D01*
X163900856Y-103266573D01*
X163914124Y-103248847D01*
X163915975Y-103244797D01*
X163922007Y-103238319D01*
X164073507Y-103086819D01*
X164134830Y-103053334D01*
X164161188Y-103050500D01*
X164838811Y-103050500D01*
X164905850Y-103070185D01*
X164926492Y-103086819D01*
X165077992Y-103238319D01*
X165111477Y-103299642D01*
X165106493Y-103369334D01*
X165064621Y-103425267D01*
X164999157Y-103449684D01*
X164990311Y-103450000D01*
X164700000Y-103450000D01*
X164700000Y-105050000D01*
X165018054Y-105050000D01*
X165106443Y-105039386D01*
X165247095Y-104983920D01*
X165367566Y-104892563D01*
X165451696Y-104781622D01*
X165507888Y-104740098D01*
X165577610Y-104735547D01*
X165638724Y-104769412D01*
X165671827Y-104830942D01*
X165674500Y-104856547D01*
X165674500Y-105225460D01*
X165654815Y-105292499D01*
X165650270Y-105299093D01*
X165622209Y-105337113D01*
X165622206Y-105337119D01*
X165577353Y-105465298D01*
X165577353Y-105465300D01*
X165574500Y-105495730D01*
X165574500Y-106504269D01*
X165577353Y-106534699D01*
X165577353Y-106534701D01*
X165622206Y-106662880D01*
X165622207Y-106662882D01*
X165702850Y-106772150D01*
X165812118Y-106852793D01*
X165854845Y-106867744D01*
X165940299Y-106897646D01*
X165970730Y-106900500D01*
X165970734Y-106900500D01*
X166604270Y-106900500D01*
X166634699Y-106897646D01*
X166634701Y-106897646D01*
X166698790Y-106875219D01*
X166762882Y-106852793D01*
X166872150Y-106772150D01*
X166952793Y-106662882D01*
X166979463Y-106586663D01*
X166997646Y-106534701D01*
X166997646Y-106534699D01*
X167000500Y-106504269D01*
X167000500Y-105495730D01*
X166997646Y-105465300D01*
X166997646Y-105465298D01*
X166960700Y-105359716D01*
X166952793Y-105337118D01*
X166872150Y-105227850D01*
X166762882Y-105147207D01*
X166762880Y-105147206D01*
X166634700Y-105102353D01*
X166604270Y-105099500D01*
X166604266Y-105099500D01*
X166449500Y-105099500D01*
X166382461Y-105079815D01*
X166336706Y-105027011D01*
X166325500Y-104975500D01*
X166325500Y-103752855D01*
X166325501Y-103752842D01*
X166325501Y-103657149D01*
X166325501Y-103657148D01*
X166303318Y-103574362D01*
X166286893Y-103545913D01*
X166260465Y-103500138D01*
X166260327Y-103500000D01*
X175550000Y-103500000D01*
X175597075Y-103977969D01*
X175736496Y-104437578D01*
X175962895Y-104861141D01*
X175962899Y-104861148D01*
X176267587Y-105232411D01*
X176638850Y-105537099D01*
X176638857Y-105537103D01*
X177062420Y-105763502D01*
X177062422Y-105763502D01*
X177062425Y-105763504D01*
X177522028Y-105902923D01*
X177522027Y-105902923D01*
X177569104Y-105907559D01*
X178000000Y-105950000D01*
X178477971Y-105902923D01*
X178937574Y-105763504D01*
X178943262Y-105760464D01*
X179136558Y-105657145D01*
X179361147Y-105537100D01*
X179732411Y-105232411D01*
X180037100Y-104861147D01*
X180180117Y-104593580D01*
X180263502Y-104437578D01*
X180263502Y-104437577D01*
X180263504Y-104437574D01*
X180402923Y-103977971D01*
X180450000Y-103500000D01*
X180402923Y-103022028D01*
X180263504Y-102562425D01*
X180263502Y-102562422D01*
X180263502Y-102562420D01*
X180037103Y-102138857D01*
X180037099Y-102138850D01*
X179732411Y-101767587D01*
X179361148Y-101462899D01*
X179361141Y-101462895D01*
X178937578Y-101236496D01*
X178606797Y-101136155D01*
X178477971Y-101097076D01*
X178477969Y-101097075D01*
X178477971Y-101097075D01*
X178000000Y-101050000D01*
X177522029Y-101097075D01*
X177062420Y-101236496D01*
X176638857Y-101462895D01*
X176638850Y-101462899D01*
X176267587Y-101767587D01*
X175962899Y-102138850D01*
X175962895Y-102138857D01*
X175736496Y-102562420D01*
X175597075Y-103022029D01*
X175550000Y-103500000D01*
X166260327Y-103500000D01*
X166199862Y-103439535D01*
X166199859Y-103439533D01*
X165461818Y-102701492D01*
X165428334Y-102640170D01*
X165425500Y-102613812D01*
X165425500Y-102045730D01*
X165422646Y-102015300D01*
X165422646Y-102015298D01*
X165377793Y-101887119D01*
X165377792Y-101887117D01*
X165297150Y-101777850D01*
X165187882Y-101697207D01*
X165187880Y-101697206D01*
X165059700Y-101652353D01*
X165029270Y-101649500D01*
X165029266Y-101649500D01*
X163970734Y-101649500D01*
X163970730Y-101649500D01*
X163940300Y-101652353D01*
X163940298Y-101652353D01*
X163812119Y-101697206D01*
X163812117Y-101697207D01*
X163702850Y-101777850D01*
X163622207Y-101887117D01*
X163622206Y-101887119D01*
X163577353Y-102015298D01*
X163577353Y-102015300D01*
X163574500Y-102045730D01*
X163574500Y-102613811D01*
X163554815Y-102680850D01*
X163538181Y-102701492D01*
X162739537Y-103500135D01*
X162739533Y-103500141D01*
X162696681Y-103574362D01*
X162696680Y-103574363D01*
X162682980Y-103625498D01*
X162682980Y-103625499D01*
X162674500Y-103657146D01*
X162674500Y-104975500D01*
X162671949Y-104984185D01*
X162673238Y-104993147D01*
X162662259Y-105017187D01*
X162654815Y-105042539D01*
X162647974Y-105048466D01*
X162644213Y-105056703D01*
X162621978Y-105070992D01*
X162602011Y-105088294D01*
X162591496Y-105090581D01*
X162585435Y-105094477D01*
X162550500Y-105099500D01*
X162511189Y-105099500D01*
X162444150Y-105079815D01*
X162423508Y-105063181D01*
X161799864Y-104439537D01*
X161799862Y-104439535D01*
X161762750Y-104418108D01*
X161725640Y-104396682D01*
X161684246Y-104385591D01*
X161642853Y-104374500D01*
X156457967Y-104374500D01*
X156390928Y-104354815D01*
X156345173Y-104302011D01*
X156335229Y-104232853D01*
X156338189Y-104218416D01*
X156350500Y-104172475D01*
X156350500Y-104027525D01*
X156312984Y-103887515D01*
X156246565Y-103772475D01*
X156240511Y-103761988D01*
X156240506Y-103761982D01*
X156138017Y-103659493D01*
X156138011Y-103659488D01*
X156012488Y-103587017D01*
X156012489Y-103587017D01*
X155998408Y-103583244D01*
X155872475Y-103549500D01*
X155727525Y-103549500D01*
X155601592Y-103583243D01*
X155531744Y-103581581D01*
X155473881Y-103542419D01*
X155446377Y-103478190D01*
X155445500Y-103463469D01*
X155445500Y-103166739D01*
X155435574Y-103098611D01*
X155435573Y-103098608D01*
X155435573Y-103098607D01*
X155418352Y-103063380D01*
X155413099Y-103052634D01*
X155410302Y-103040547D01*
X155405523Y-103033110D01*
X155400500Y-102998175D01*
X155400500Y-102849500D01*
X155420185Y-102782461D01*
X155472989Y-102736706D01*
X155524500Y-102725500D01*
X155554270Y-102725500D01*
X155584699Y-102722646D01*
X155584701Y-102722646D01*
X155648790Y-102700219D01*
X155712882Y-102677793D01*
X155822150Y-102597150D01*
X155902793Y-102487882D01*
X155931290Y-102406443D01*
X155947646Y-102359701D01*
X155947646Y-102359699D01*
X155950500Y-102329269D01*
X155950500Y-101270730D01*
X155947646Y-101240300D01*
X155947646Y-101240298D01*
X155911108Y-101135880D01*
X155902793Y-101112118D01*
X155822150Y-101002850D01*
X155822149Y-101002849D01*
X155818669Y-100998134D01*
X155794698Y-100932505D01*
X155810014Y-100864334D01*
X155859754Y-100815266D01*
X155918439Y-100800500D01*
X179983292Y-100800500D01*
X179993037Y-100800883D01*
X180099145Y-100809249D01*
X180118318Y-100812284D01*
X180206455Y-100833426D01*
X180224944Y-100839428D01*
X180308280Y-100873912D01*
X180325592Y-100882722D01*
X180402307Y-100929667D01*
X180418235Y-100941248D01*
X180486464Y-100999672D01*
X180500056Y-101013273D01*
X180558826Y-101082011D01*
X180570298Y-101097793D01*
X180617284Y-101174461D01*
X180626137Y-101191843D01*
X180660771Y-101275542D01*
X180666701Y-101293734D01*
X180687875Y-101381059D01*
X180691004Y-101400792D01*
X180699137Y-101506782D01*
X180699500Y-101516269D01*
X180699500Y-141483732D01*
X180699137Y-141493218D01*
X180691003Y-141599237D01*
X180687874Y-141618971D01*
X180666707Y-141706268D01*
X180660773Y-141724469D01*
X180626145Y-141808133D01*
X180617294Y-141825509D01*
X180570286Y-141902208D01*
X180558820Y-141917981D01*
X180500047Y-141986738D01*
X180486448Y-142000350D01*
X180418235Y-142058768D01*
X180402295Y-142070357D01*
X180325558Y-142117310D01*
X180308278Y-142126106D01*
X180224992Y-142160592D01*
X180206433Y-142166615D01*
X180118350Y-142187709D01*
X180099226Y-142190735D01*
X179993024Y-142199116D01*
X179983269Y-142199500D01*
X98016683Y-142199500D01*
X98006953Y-142199118D01*
X97993253Y-142198039D01*
X97900483Y-142190737D01*
X97881264Y-142187692D01*
X97793610Y-142166646D01*
X97775122Y-142160640D01*
X97691853Y-142126161D01*
X97674502Y-142117322D01*
X97597707Y-142070263D01*
X97581958Y-142058820D01*
X97513476Y-142000320D01*
X97499721Y-141986562D01*
X97441189Y-141918018D01*
X97429767Y-141902296D01*
X97382704Y-141825508D01*
X97373853Y-141808133D01*
X97339373Y-141724825D01*
X97333392Y-141706421D01*
X97312303Y-141618735D01*
X97309248Y-141599463D01*
X97309230Y-141599237D01*
X97300882Y-141493062D01*
X97300500Y-141483342D01*
X97300500Y-139500000D01*
X97550000Y-139500000D01*
X97597075Y-139977969D01*
X97736496Y-140437578D01*
X97962895Y-140861141D01*
X97962899Y-140861148D01*
X98267587Y-141232411D01*
X98638850Y-141537099D01*
X98638857Y-141537103D01*
X99062420Y-141763502D01*
X99062422Y-141763502D01*
X99062425Y-141763504D01*
X99522028Y-141902923D01*
X99522027Y-141902923D01*
X99569104Y-141907559D01*
X100000000Y-141950000D01*
X100477971Y-141902923D01*
X100937574Y-141763504D01*
X101009910Y-141724840D01*
X101244474Y-141599463D01*
X101361147Y-141537100D01*
X101732411Y-141232411D01*
X102037100Y-140861147D01*
X102263504Y-140437574D01*
X102402923Y-139977971D01*
X102450000Y-139500000D01*
X175550000Y-139500000D01*
X175597075Y-139977969D01*
X175736496Y-140437578D01*
X175962895Y-140861141D01*
X175962899Y-140861148D01*
X176267587Y-141232411D01*
X176638850Y-141537099D01*
X176638857Y-141537103D01*
X177062420Y-141763502D01*
X177062422Y-141763502D01*
X177062425Y-141763504D01*
X177522028Y-141902923D01*
X177522027Y-141902923D01*
X177569104Y-141907559D01*
X178000000Y-141950000D01*
X178477971Y-141902923D01*
X178937574Y-141763504D01*
X179009910Y-141724840D01*
X179244474Y-141599463D01*
X179361147Y-141537100D01*
X179732411Y-141232411D01*
X180037100Y-140861147D01*
X180263504Y-140437574D01*
X180402923Y-139977971D01*
X180450000Y-139500000D01*
X180402923Y-139022028D01*
X180263504Y-138562425D01*
X180263502Y-138562422D01*
X180263502Y-138562420D01*
X180037103Y-138138857D01*
X180037099Y-138138850D01*
X179732411Y-137767587D01*
X179361148Y-137462899D01*
X179361141Y-137462895D01*
X178937578Y-137236496D01*
X178707772Y-137166785D01*
X178477971Y-137097076D01*
X178477969Y-137097075D01*
X178477971Y-137097075D01*
X178000000Y-137050000D01*
X177522029Y-137097075D01*
X177062420Y-137236496D01*
X176638857Y-137462895D01*
X176638850Y-137462899D01*
X176267587Y-137767587D01*
X175962899Y-138138850D01*
X175962895Y-138138857D01*
X175736496Y-138562420D01*
X175597075Y-139022029D01*
X175550000Y-139500000D01*
X102450000Y-139500000D01*
X102402923Y-139022028D01*
X102263504Y-138562425D01*
X102263502Y-138562422D01*
X102263502Y-138562420D01*
X102037103Y-138138857D01*
X102037099Y-138138850D01*
X101732411Y-137767587D01*
X101361148Y-137462899D01*
X101361141Y-137462895D01*
X101172039Y-137361818D01*
X100937578Y-137236496D01*
X100707772Y-137166785D01*
X100477971Y-137097076D01*
X100477969Y-137097075D01*
X100477971Y-137097075D01*
X100000000Y-137050000D01*
X99522029Y-137097075D01*
X99062420Y-137236496D01*
X98638857Y-137462895D01*
X98638850Y-137462899D01*
X98267587Y-137767587D01*
X97962899Y-138138850D01*
X97962895Y-138138857D01*
X97736496Y-138562420D01*
X97597075Y-139022029D01*
X97550000Y-139500000D01*
X97300500Y-139500000D01*
X97300500Y-134543053D01*
X128975000Y-134543053D01*
X128985613Y-134631443D01*
X129041079Y-134772095D01*
X129132435Y-134892564D01*
X129252904Y-134983920D01*
X129393556Y-135039386D01*
X129481946Y-135050000D01*
X129800000Y-135050000D01*
X129800000Y-134450000D01*
X128975000Y-134450000D01*
X128975000Y-134543053D01*
X97300500Y-134543053D01*
X97300500Y-133956946D01*
X128975000Y-133956946D01*
X128975000Y-134050000D01*
X129800000Y-134050000D01*
X129800000Y-133450000D01*
X129481946Y-133450000D01*
X129393556Y-133460613D01*
X129252904Y-133516079D01*
X129132435Y-133607435D01*
X129041079Y-133727904D01*
X128985613Y-133868556D01*
X128975000Y-133956946D01*
X97300500Y-133956946D01*
X97300500Y-126105513D01*
X104399500Y-126105513D01*
X104399500Y-126294486D01*
X104429059Y-126481118D01*
X104487454Y-126660836D01*
X104533379Y-126750968D01*
X104573240Y-126829199D01*
X104684310Y-126982073D01*
X104817927Y-127115690D01*
X104970801Y-127226760D01*
X105050347Y-127267290D01*
X105139163Y-127312545D01*
X105139165Y-127312545D01*
X105139168Y-127312547D01*
X105235497Y-127343846D01*
X105318881Y-127370940D01*
X105505514Y-127400500D01*
X105505519Y-127400500D01*
X105694486Y-127400500D01*
X105881118Y-127370940D01*
X105938433Y-127352317D01*
X106060832Y-127312547D01*
X106229199Y-127226760D01*
X106338040Y-127147682D01*
X111300000Y-127147682D01*
X111300000Y-127352317D01*
X111332009Y-127554417D01*
X111395244Y-127749031D01*
X111488139Y-127931347D01*
X111550279Y-128016876D01*
X112019668Y-127547487D01*
X112023978Y-127557890D01*
X112095112Y-127664351D01*
X112185649Y-127754888D01*
X112292110Y-127826022D01*
X112302510Y-127830330D01*
X111833121Y-128299719D01*
X111833122Y-128299720D01*
X111918640Y-128361852D01*
X111918649Y-128361858D01*
X112100968Y-128454755D01*
X112295582Y-128517990D01*
X112497683Y-128550000D01*
X112702317Y-128550000D01*
X112904417Y-128517990D01*
X113099031Y-128454755D01*
X113281349Y-128361859D01*
X113366876Y-128299719D01*
X113366877Y-128299718D01*
X112897489Y-127830330D01*
X112907890Y-127826022D01*
X113014351Y-127754888D01*
X113104888Y-127664351D01*
X113176022Y-127557890D01*
X113180330Y-127547488D01*
X113649718Y-128016877D01*
X113649719Y-128016876D01*
X113711859Y-127931349D01*
X113804755Y-127749031D01*
X113867990Y-127554417D01*
X113900000Y-127352317D01*
X113900000Y-127147682D01*
X113867990Y-126945582D01*
X113804755Y-126750968D01*
X113711858Y-126568649D01*
X113711852Y-126568640D01*
X113649720Y-126483122D01*
X113649719Y-126483121D01*
X113180330Y-126952510D01*
X113176022Y-126942110D01*
X113104888Y-126835649D01*
X113014351Y-126745112D01*
X112907890Y-126673978D01*
X112897487Y-126669669D01*
X113366876Y-126200279D01*
X113366876Y-126200278D01*
X113281352Y-126138142D01*
X113217315Y-126105513D01*
X124399500Y-126105513D01*
X124399500Y-126294486D01*
X124429059Y-126481118D01*
X124487454Y-126660836D01*
X124533379Y-126750968D01*
X124573240Y-126829199D01*
X124684310Y-126982073D01*
X124817927Y-127115690D01*
X124970801Y-127226760D01*
X125050347Y-127267290D01*
X125139163Y-127312545D01*
X125139165Y-127312545D01*
X125139168Y-127312547D01*
X125235497Y-127343846D01*
X125318881Y-127370940D01*
X125505514Y-127400500D01*
X125505519Y-127400500D01*
X125550500Y-127400500D01*
X125617539Y-127420185D01*
X125663294Y-127472989D01*
X125674500Y-127524500D01*
X125674500Y-131942851D01*
X125675561Y-131950909D01*
X125673880Y-131951130D01*
X125676095Y-131978724D01*
X125674500Y-131995732D01*
X125674500Y-133004269D01*
X125677353Y-133034699D01*
X125677353Y-133034701D01*
X125722206Y-133162880D01*
X125722207Y-133162882D01*
X125802850Y-133272150D01*
X125912118Y-133352793D01*
X125954845Y-133367744D01*
X126040299Y-133397646D01*
X126070730Y-133400500D01*
X126070734Y-133400500D01*
X126704270Y-133400500D01*
X126734699Y-133397646D01*
X126734701Y-133397646D01*
X126798790Y-133375219D01*
X126862882Y-133352793D01*
X126972150Y-133272150D01*
X127052793Y-133162882D01*
X127089791Y-133057148D01*
X127097646Y-133034701D01*
X127097646Y-133034699D01*
X127100500Y-133004269D01*
X127100500Y-131995730D01*
X127499500Y-131995730D01*
X127499500Y-133004269D01*
X127502353Y-133034699D01*
X127502353Y-133034701D01*
X127547206Y-133162880D01*
X127547207Y-133162882D01*
X127627850Y-133272150D01*
X127737118Y-133352793D01*
X127779845Y-133367744D01*
X127865299Y-133397646D01*
X127895730Y-133400500D01*
X127895734Y-133400500D01*
X128529270Y-133400500D01*
X128559699Y-133397646D01*
X128559701Y-133397646D01*
X128623790Y-133375219D01*
X128687882Y-133352793D01*
X128797150Y-133272150D01*
X128877793Y-133162882D01*
X128914791Y-133057148D01*
X128922646Y-133034701D01*
X128922646Y-133034699D01*
X128925500Y-133004269D01*
X128925500Y-132349500D01*
X128945185Y-132282461D01*
X128997989Y-132236706D01*
X129049500Y-132225500D01*
X130950499Y-132225500D01*
X131017538Y-132245185D01*
X131063293Y-132297989D01*
X131074499Y-132349500D01*
X131074499Y-133004264D01*
X131076094Y-133021279D01*
X131073998Y-133048885D01*
X131075560Y-133049091D01*
X131074500Y-133057143D01*
X131074500Y-133515007D01*
X131054815Y-133582046D01*
X131002011Y-133627801D01*
X130932853Y-133637745D01*
X130875193Y-133611412D01*
X130874323Y-133612560D01*
X130747095Y-133516079D01*
X130606443Y-133460613D01*
X130518054Y-133450000D01*
X130200000Y-133450000D01*
X130200000Y-135050000D01*
X130518054Y-135050000D01*
X130606446Y-135039385D01*
X130701607Y-135001859D01*
X130771193Y-134995577D01*
X130833130Y-135027914D01*
X130867751Y-135088602D01*
X130864066Y-135158375D01*
X130834778Y-135204894D01*
X130626170Y-135413501D01*
X130564847Y-135446986D01*
X130532192Y-135448986D01*
X130532162Y-135449635D01*
X130529277Y-135449500D01*
X130529266Y-135449500D01*
X129470734Y-135449500D01*
X129470730Y-135449500D01*
X129440300Y-135452353D01*
X129440298Y-135452353D01*
X129312119Y-135497206D01*
X129312117Y-135497207D01*
X129202850Y-135577850D01*
X129122207Y-135687117D01*
X129122206Y-135687119D01*
X129077353Y-135815298D01*
X129077353Y-135815300D01*
X129074500Y-135845730D01*
X129074500Y-136454269D01*
X129077353Y-136484699D01*
X129077353Y-136484701D01*
X129122206Y-136612880D01*
X129122207Y-136612882D01*
X129202850Y-136722150D01*
X129312118Y-136802793D01*
X129354845Y-136817744D01*
X129440299Y-136847646D01*
X129470730Y-136850500D01*
X129470734Y-136850500D01*
X130529270Y-136850500D01*
X130559699Y-136847646D01*
X130559701Y-136847646D01*
X130623790Y-136825219D01*
X130687882Y-136802793D01*
X130797150Y-136722150D01*
X130877793Y-136612882D01*
X130905800Y-136532842D01*
X130922646Y-136484701D01*
X130922646Y-136484699D01*
X130925500Y-136454269D01*
X130925500Y-136086189D01*
X130945185Y-136019150D01*
X130961819Y-135998508D01*
X131299495Y-135660832D01*
X131660465Y-135299862D01*
X131703318Y-135225639D01*
X131725500Y-135142853D01*
X131725500Y-135057147D01*
X131725500Y-134543053D01*
X148975000Y-134543053D01*
X148985613Y-134631443D01*
X149041079Y-134772095D01*
X149132435Y-134892564D01*
X149252904Y-134983920D01*
X149393556Y-135039386D01*
X149481946Y-135050000D01*
X149800000Y-135050000D01*
X149800000Y-134450000D01*
X148975000Y-134450000D01*
X148975000Y-134543053D01*
X131725500Y-134543053D01*
X131725500Y-133956946D01*
X148975000Y-133956946D01*
X148975000Y-134050000D01*
X149800000Y-134050000D01*
X149800000Y-133450000D01*
X149481946Y-133450000D01*
X149393556Y-133460613D01*
X149252904Y-133516079D01*
X149132435Y-133607435D01*
X149041079Y-133727904D01*
X148985613Y-133868556D01*
X148975000Y-133956946D01*
X131725500Y-133956946D01*
X131725500Y-133524500D01*
X131745185Y-133457461D01*
X131797989Y-133411706D01*
X131849500Y-133400500D01*
X132104269Y-133400500D01*
X132134698Y-133397646D01*
X132134700Y-133397646D01*
X132198789Y-133375219D01*
X132262881Y-133352793D01*
X132372149Y-133272150D01*
X132452792Y-133162882D01*
X132489790Y-133057148D01*
X132497645Y-133034701D01*
X132497645Y-133034699D01*
X132500499Y-133004269D01*
X132500499Y-132311187D01*
X132509143Y-132281746D01*
X132515667Y-132251760D01*
X132519421Y-132246744D01*
X132520184Y-132244148D01*
X132536814Y-132223510D01*
X132687818Y-132072505D01*
X132749141Y-132039021D01*
X132818833Y-132044005D01*
X132874766Y-132085877D01*
X132899183Y-132151341D01*
X132899499Y-132160187D01*
X132899499Y-133004269D01*
X132902352Y-133034699D01*
X132902352Y-133034701D01*
X132947205Y-133162880D01*
X132947206Y-133162882D01*
X133027849Y-133272150D01*
X133137117Y-133352793D01*
X133179844Y-133367744D01*
X133265298Y-133397646D01*
X133295729Y-133400500D01*
X133295733Y-133400500D01*
X133929269Y-133400500D01*
X133959698Y-133397646D01*
X133959700Y-133397646D01*
X134023789Y-133375219D01*
X134087881Y-133352793D01*
X134197149Y-133272150D01*
X134277792Y-133162882D01*
X134314790Y-133057148D01*
X134322645Y-133034701D01*
X134322645Y-133034699D01*
X134325499Y-133004269D01*
X134325499Y-132192255D01*
X134334142Y-132162818D01*
X134340666Y-132132829D01*
X134344421Y-132127812D01*
X134345184Y-132125216D01*
X134361817Y-132104575D01*
X134383598Y-132082793D01*
X134470657Y-131995734D01*
X134520479Y-131945912D01*
X134542564Y-131907660D01*
X134559181Y-131878879D01*
X134559182Y-131878876D01*
X134573207Y-131854585D01*
X134600500Y-131752724D01*
X134600499Y-131647270D01*
X134600499Y-131529386D01*
X134620184Y-131462347D01*
X134636818Y-131441705D01*
X134640507Y-131438016D01*
X134640510Y-131438011D01*
X134653277Y-131415899D01*
X134712983Y-131312485D01*
X134750499Y-131172475D01*
X134750499Y-131027525D01*
X134712983Y-130887515D01*
X134640508Y-130761985D01*
X134538014Y-130659491D01*
X134538012Y-130659490D01*
X134538010Y-130659488D01*
X134412487Y-130587017D01*
X134412488Y-130587017D01*
X134395644Y-130582503D01*
X134273571Y-130549794D01*
X134213913Y-130513430D01*
X134183384Y-130450583D01*
X134191679Y-130381207D01*
X134217983Y-130342342D01*
X138454813Y-126105513D01*
X144399500Y-126105513D01*
X144399500Y-126294486D01*
X144429059Y-126481118D01*
X144487454Y-126660836D01*
X144533379Y-126750968D01*
X144573240Y-126829199D01*
X144684310Y-126982073D01*
X144817927Y-127115690D01*
X144970801Y-127226760D01*
X145050347Y-127267290D01*
X145139163Y-127312545D01*
X145139165Y-127312545D01*
X145139168Y-127312547D01*
X145235497Y-127343846D01*
X145318881Y-127370940D01*
X145505514Y-127400500D01*
X145505519Y-127400500D01*
X145550500Y-127400500D01*
X145617539Y-127420185D01*
X145663294Y-127472989D01*
X145674500Y-127524500D01*
X145674500Y-131942851D01*
X145675561Y-131950909D01*
X145673880Y-131951130D01*
X145676095Y-131978724D01*
X145674500Y-131995732D01*
X145674500Y-133004269D01*
X145677353Y-133034699D01*
X145677353Y-133034701D01*
X145722206Y-133162880D01*
X145722207Y-133162882D01*
X145802850Y-133272150D01*
X145912118Y-133352793D01*
X145954845Y-133367744D01*
X146040299Y-133397646D01*
X146070730Y-133400500D01*
X146070734Y-133400500D01*
X146704270Y-133400500D01*
X146734699Y-133397646D01*
X146734701Y-133397646D01*
X146798790Y-133375219D01*
X146862882Y-133352793D01*
X146972150Y-133272150D01*
X147052793Y-133162882D01*
X147089791Y-133057148D01*
X147097646Y-133034701D01*
X147097646Y-133034699D01*
X147100500Y-133004269D01*
X147100500Y-131995730D01*
X147097646Y-131965300D01*
X147097646Y-131965298D01*
X147052793Y-131837119D01*
X147052792Y-131837117D01*
X147024729Y-131799093D01*
X146972150Y-131727850D01*
X146862882Y-131647207D01*
X146862880Y-131647206D01*
X146734700Y-131602353D01*
X146704270Y-131599500D01*
X146704266Y-131599500D01*
X146449500Y-131599500D01*
X146382461Y-131579815D01*
X146336706Y-131527011D01*
X146325500Y-131475500D01*
X146325500Y-127219973D01*
X146345185Y-127152934D01*
X146376617Y-127119653D01*
X146382073Y-127115690D01*
X146515690Y-126982073D01*
X146626760Y-126829199D01*
X146712547Y-126660832D01*
X146770940Y-126481118D01*
X146782066Y-126410870D01*
X146800500Y-126294486D01*
X146800500Y-126105513D01*
X146770940Y-125918881D01*
X146712545Y-125739163D01*
X146626759Y-125570800D01*
X146515690Y-125417927D01*
X146382073Y-125284310D01*
X146229199Y-125173240D01*
X146060836Y-125087454D01*
X145881118Y-125029059D01*
X145694486Y-124999500D01*
X145694481Y-124999500D01*
X145505519Y-124999500D01*
X145505514Y-124999500D01*
X145318881Y-125029059D01*
X145139163Y-125087454D01*
X144970800Y-125173240D01*
X144907614Y-125219148D01*
X144817927Y-125284310D01*
X144817925Y-125284312D01*
X144817924Y-125284312D01*
X144684312Y-125417924D01*
X144684312Y-125417925D01*
X144684310Y-125417927D01*
X144636610Y-125483579D01*
X144573240Y-125570800D01*
X144487454Y-125739163D01*
X144429059Y-125918881D01*
X144399500Y-126105513D01*
X138454813Y-126105513D01*
X148098508Y-116461819D01*
X148159831Y-116428334D01*
X148186189Y-116425500D01*
X149042851Y-116425500D01*
X149042853Y-116425500D01*
X149125639Y-116403318D01*
X149199862Y-116360465D01*
X150060465Y-115499862D01*
X150103318Y-115425639D01*
X150125500Y-115342853D01*
X150125500Y-115257147D01*
X150125500Y-110213525D01*
X150145185Y-110146486D01*
X150195040Y-110102124D01*
X150221483Y-110089198D01*
X150304198Y-110006483D01*
X150355573Y-109901393D01*
X150365500Y-109833260D01*
X150365500Y-108116740D01*
X150355573Y-108048607D01*
X150333746Y-108003960D01*
X150333461Y-108002290D01*
X150332353Y-108001011D01*
X150327605Y-107967991D01*
X150321987Y-107935088D01*
X150322649Y-107933528D01*
X150322409Y-107931853D01*
X150336266Y-107901509D01*
X150349330Y-107870790D01*
X150350730Y-107869836D01*
X150351434Y-107868297D01*
X150379504Y-107850257D01*
X150407095Y-107831483D01*
X150409243Y-107831145D01*
X150410212Y-107830523D01*
X150445147Y-107825500D01*
X150554853Y-107825500D01*
X150621892Y-107845185D01*
X150667647Y-107897989D01*
X150677591Y-107967147D01*
X150666253Y-108003961D01*
X150644426Y-108048607D01*
X150634500Y-108116739D01*
X150634500Y-109833260D01*
X150644426Y-109901391D01*
X150644427Y-109901393D01*
X150661900Y-109937135D01*
X150674500Y-109991595D01*
X150674500Y-115742852D01*
X150696682Y-115825640D01*
X150704705Y-115839535D01*
X150739535Y-115899862D01*
X151789673Y-116950000D01*
X152838181Y-117998507D01*
X152871666Y-118059830D01*
X152874500Y-118086188D01*
X152874500Y-120229185D01*
X152854815Y-120296224D01*
X152802011Y-120341979D01*
X152732853Y-120351923D01*
X152669297Y-120322898D01*
X152638780Y-120282987D01*
X152546969Y-120092342D01*
X152520678Y-120050500D01*
X152373346Y-119816021D01*
X152169877Y-119560879D01*
X151939121Y-119330123D01*
X151683979Y-119126654D01*
X151407660Y-118953032D01*
X151407657Y-118953030D01*
X151113640Y-118811438D01*
X150805614Y-118703656D01*
X150805612Y-118703655D01*
X150560073Y-118647612D01*
X150487456Y-118631038D01*
X150487453Y-118631037D01*
X150487441Y-118631035D01*
X150163175Y-118594500D01*
X150163169Y-118594500D01*
X149836831Y-118594500D01*
X149836824Y-118594500D01*
X149512558Y-118631035D01*
X149512544Y-118631038D01*
X149194387Y-118703655D01*
X149194385Y-118703656D01*
X148886359Y-118811438D01*
X148592342Y-118953030D01*
X148316022Y-119126653D01*
X148060879Y-119330122D01*
X147830122Y-119560879D01*
X147626653Y-119816022D01*
X147453030Y-120092342D01*
X147311438Y-120386359D01*
X147203656Y-120694385D01*
X147203655Y-120694387D01*
X147131038Y-121012544D01*
X147131035Y-121012558D01*
X147094500Y-121336824D01*
X147094500Y-121663175D01*
X147131035Y-121987441D01*
X147131037Y-121987453D01*
X147131038Y-121987456D01*
X147145313Y-122050000D01*
X147203655Y-122305612D01*
X147203656Y-122305614D01*
X147311438Y-122613640D01*
X147453030Y-122907657D01*
X147475145Y-122942853D01*
X147626654Y-123183979D01*
X147830123Y-123439121D01*
X148060879Y-123669877D01*
X148316021Y-123873346D01*
X148592340Y-124046968D01*
X148886361Y-124188562D01*
X149194387Y-124296344D01*
X149512544Y-124368962D01*
X149512553Y-124368963D01*
X149512558Y-124368964D01*
X149728735Y-124393320D01*
X149836825Y-124405499D01*
X149836828Y-124405500D01*
X149836831Y-124405500D01*
X150163172Y-124405500D01*
X150163173Y-124405499D01*
X150328900Y-124386826D01*
X150487441Y-124368964D01*
X150487444Y-124368963D01*
X150487456Y-124368962D01*
X150805613Y-124296344D01*
X151113639Y-124188562D01*
X151113654Y-124188554D01*
X151113779Y-124188503D01*
X151113820Y-124188498D01*
X151116923Y-124187413D01*
X151117176Y-124188137D01*
X151183247Y-124181021D01*
X151245733Y-124212283D01*
X151281397Y-124272365D01*
X151278917Y-124342191D01*
X151248936Y-124390736D01*
X150739537Y-124900135D01*
X150739533Y-124900141D01*
X150696681Y-124974361D01*
X150696682Y-124974362D01*
X150674500Y-125057147D01*
X150674500Y-131450500D01*
X150654815Y-131517539D01*
X150602011Y-131563294D01*
X150550500Y-131574500D01*
X148608118Y-131574500D01*
X148573417Y-131572769D01*
X148565373Y-131574500D01*
X148557147Y-131574500D01*
X148526586Y-131582688D01*
X148524369Y-131583260D01*
X148522459Y-131583734D01*
X148489629Y-131590799D01*
X148485527Y-131592901D01*
X148473658Y-131595848D01*
X148466606Y-131595549D01*
X148443784Y-131599500D01*
X147895730Y-131599500D01*
X147865300Y-131602353D01*
X147865298Y-131602353D01*
X147737119Y-131647206D01*
X147737117Y-131647207D01*
X147627850Y-131727850D01*
X147547207Y-131837117D01*
X147547206Y-131837119D01*
X147502353Y-131965298D01*
X147502353Y-131965300D01*
X147499500Y-131995730D01*
X147499500Y-133004269D01*
X147502353Y-133034699D01*
X147502353Y-133034701D01*
X147547206Y-133162880D01*
X147547207Y-133162882D01*
X147627850Y-133272150D01*
X147737118Y-133352793D01*
X147779845Y-133367744D01*
X147865299Y-133397646D01*
X147895730Y-133400500D01*
X147895734Y-133400500D01*
X148529270Y-133400500D01*
X148559699Y-133397646D01*
X148559701Y-133397646D01*
X148623790Y-133375219D01*
X148687882Y-133352793D01*
X148797150Y-133272150D01*
X148877793Y-133162882D01*
X148914791Y-133057148D01*
X148922646Y-133034701D01*
X148922646Y-133034699D01*
X148925500Y-133004269D01*
X148925500Y-132349500D01*
X148945185Y-132282461D01*
X148997989Y-132236706D01*
X149049500Y-132225500D01*
X150950500Y-132225500D01*
X151017539Y-132245185D01*
X151063294Y-132297989D01*
X151074500Y-132349500D01*
X151074500Y-133004266D01*
X151076095Y-133021272D01*
X151073887Y-133048867D01*
X151075561Y-133049088D01*
X151074500Y-133057148D01*
X151074500Y-133515007D01*
X151054815Y-133582046D01*
X151002011Y-133627801D01*
X150932853Y-133637745D01*
X150875193Y-133611412D01*
X150874323Y-133612560D01*
X150747095Y-133516079D01*
X150606443Y-133460613D01*
X150518054Y-133450000D01*
X150200000Y-133450000D01*
X150200000Y-135050000D01*
X150518054Y-135050000D01*
X150606446Y-135039385D01*
X150701607Y-135001859D01*
X150771193Y-134995577D01*
X150833130Y-135027914D01*
X150867751Y-135088602D01*
X150864066Y-135158375D01*
X150834778Y-135204894D01*
X150626170Y-135413501D01*
X150564847Y-135446986D01*
X150532192Y-135448986D01*
X150532162Y-135449635D01*
X150529277Y-135449500D01*
X150529266Y-135449500D01*
X149470734Y-135449500D01*
X149470730Y-135449500D01*
X149440300Y-135452353D01*
X149440298Y-135452353D01*
X149312119Y-135497206D01*
X149312117Y-135497207D01*
X149202850Y-135577850D01*
X149122207Y-135687117D01*
X149122206Y-135687119D01*
X149077353Y-135815298D01*
X149077353Y-135815300D01*
X149074500Y-135845730D01*
X149074500Y-136454269D01*
X149077353Y-136484699D01*
X149077353Y-136484701D01*
X149122206Y-136612880D01*
X149122207Y-136612882D01*
X149202850Y-136722150D01*
X149312118Y-136802793D01*
X149354845Y-136817744D01*
X149440299Y-136847646D01*
X149470730Y-136850500D01*
X149470734Y-136850500D01*
X150529270Y-136850500D01*
X150559699Y-136847646D01*
X150559701Y-136847646D01*
X150623790Y-136825219D01*
X150687882Y-136802793D01*
X150797150Y-136722150D01*
X150877793Y-136612882D01*
X150905800Y-136532842D01*
X150922646Y-136484701D01*
X150922646Y-136484699D01*
X150925500Y-136454269D01*
X150925500Y-136086189D01*
X150945185Y-136019150D01*
X150961819Y-135998508D01*
X151299495Y-135660832D01*
X151660465Y-135299862D01*
X151703318Y-135225639D01*
X151725500Y-135142853D01*
X151725500Y-135057147D01*
X151725500Y-133524500D01*
X151745185Y-133457461D01*
X151797989Y-133411706D01*
X151849500Y-133400500D01*
X152104270Y-133400500D01*
X152134699Y-133397646D01*
X152134701Y-133397646D01*
X152198790Y-133375219D01*
X152262882Y-133352793D01*
X152372150Y-133272150D01*
X152452793Y-133162882D01*
X152489791Y-133057148D01*
X152497646Y-133034701D01*
X152497646Y-133034699D01*
X152500500Y-133004269D01*
X152500500Y-131995730D01*
X152497646Y-131965300D01*
X152497646Y-131965298D01*
X152452793Y-131837119D01*
X152452792Y-131837117D01*
X152424729Y-131799093D01*
X152372150Y-131727850D01*
X152262882Y-131647207D01*
X152262880Y-131647206D01*
X152134700Y-131602353D01*
X152104270Y-131599500D01*
X152104266Y-131599500D01*
X151552479Y-131599500D01*
X151523225Y-131596000D01*
X151521817Y-131595658D01*
X151442853Y-131574500D01*
X151434663Y-131574500D01*
X151420246Y-131571000D01*
X151402319Y-131560646D01*
X151382461Y-131554815D01*
X151372679Y-131543527D01*
X151359743Y-131536055D01*
X151350259Y-131517652D01*
X151336706Y-131502011D01*
X151332693Y-131483565D01*
X151327737Y-131473948D01*
X151328611Y-131464803D01*
X151325500Y-131450500D01*
X151325500Y-131027525D01*
X152849500Y-131027525D01*
X152849500Y-131172475D01*
X152885175Y-131305613D01*
X152887017Y-131312488D01*
X152959488Y-131438011D01*
X152959492Y-131438016D01*
X152963181Y-131441705D01*
X152977884Y-131468632D01*
X152994477Y-131494451D01*
X152995368Y-131500651D01*
X152996666Y-131503028D01*
X152999500Y-131529386D01*
X152999500Y-131725460D01*
X152979815Y-131792499D01*
X152975270Y-131799093D01*
X152947209Y-131837113D01*
X152947206Y-131837119D01*
X152902353Y-131965298D01*
X152902353Y-131965300D01*
X152899500Y-131995730D01*
X152899500Y-133004269D01*
X152902353Y-133034699D01*
X152902353Y-133034701D01*
X152947206Y-133162880D01*
X152947207Y-133162882D01*
X153027850Y-133272150D01*
X153137118Y-133352793D01*
X153179845Y-133367744D01*
X153265299Y-133397646D01*
X153295730Y-133400500D01*
X153295734Y-133400500D01*
X153929270Y-133400500D01*
X153959699Y-133397646D01*
X153959701Y-133397646D01*
X154023790Y-133375219D01*
X154087882Y-133352793D01*
X154197150Y-133272150D01*
X154277793Y-133162882D01*
X154314791Y-133057148D01*
X154322646Y-133034701D01*
X154322646Y-133034699D01*
X154325500Y-133004269D01*
X154325500Y-131995730D01*
X154322646Y-131965300D01*
X154322646Y-131965298D01*
X154277793Y-131837119D01*
X154277792Y-131837117D01*
X154249729Y-131799093D01*
X154197150Y-131727850D01*
X154087882Y-131647207D01*
X154087880Y-131647206D01*
X153959700Y-131602353D01*
X153949084Y-131601358D01*
X153884176Y-131575499D01*
X153843552Y-131518653D01*
X153840110Y-131448868D01*
X153853275Y-131415903D01*
X153912984Y-131312485D01*
X153950500Y-131172475D01*
X153950500Y-131027525D01*
X153912984Y-130887515D01*
X153840509Y-130761985D01*
X153738015Y-130659491D01*
X153738013Y-130659490D01*
X153738011Y-130659488D01*
X153612488Y-130587017D01*
X153612489Y-130587017D01*
X153601006Y-130583940D01*
X153472475Y-130549500D01*
X153327525Y-130549500D01*
X153198993Y-130583940D01*
X153187511Y-130587017D01*
X153061988Y-130659488D01*
X153061982Y-130659493D01*
X152959493Y-130761982D01*
X152959488Y-130761988D01*
X152887017Y-130887511D01*
X152887016Y-130887515D01*
X152849500Y-131027525D01*
X151325500Y-131027525D01*
X151325500Y-128089127D01*
X151345185Y-128022088D01*
X151397989Y-127976333D01*
X151467147Y-127966389D01*
X151530703Y-127995414D01*
X151549819Y-128016243D01*
X151550279Y-128016876D01*
X152019668Y-127547487D01*
X152023978Y-127557890D01*
X152095112Y-127664351D01*
X152185649Y-127754888D01*
X152292110Y-127826022D01*
X152302510Y-127830330D01*
X151833121Y-128299719D01*
X151833122Y-128299720D01*
X151918640Y-128361852D01*
X151918649Y-128361858D01*
X152100968Y-128454755D01*
X152295582Y-128517990D01*
X152497683Y-128550000D01*
X152702317Y-128550000D01*
X152904417Y-128517990D01*
X153099031Y-128454755D01*
X153281349Y-128361859D01*
X153366876Y-128299719D01*
X153366877Y-128299718D01*
X152897489Y-127830330D01*
X152907890Y-127826022D01*
X153014351Y-127754888D01*
X153104888Y-127664351D01*
X153176022Y-127557890D01*
X153180330Y-127547488D01*
X153649718Y-128016877D01*
X153649719Y-128016876D01*
X153711859Y-127931349D01*
X153804755Y-127749031D01*
X153867990Y-127554417D01*
X153900000Y-127352317D01*
X153900000Y-127147682D01*
X153867990Y-126945582D01*
X153804755Y-126750968D01*
X153711858Y-126568649D01*
X153711852Y-126568640D01*
X153649720Y-126483122D01*
X153649719Y-126483121D01*
X153180330Y-126952510D01*
X153176022Y-126942110D01*
X153104888Y-126835649D01*
X153014351Y-126745112D01*
X152907890Y-126673978D01*
X152897487Y-126669669D01*
X153366876Y-126200279D01*
X153281347Y-126138139D01*
X153099031Y-126045244D01*
X152904417Y-125982009D01*
X152702317Y-125950000D01*
X152497683Y-125950000D01*
X152295582Y-125982009D01*
X152100968Y-126045244D01*
X151918648Y-126138141D01*
X151833122Y-126200278D01*
X151833122Y-126200279D01*
X152302512Y-126669669D01*
X152292110Y-126673978D01*
X152185649Y-126745112D01*
X152095112Y-126835649D01*
X152023978Y-126942110D01*
X152019669Y-126952512D01*
X151550279Y-126483122D01*
X151550277Y-126483122D01*
X151549818Y-126483755D01*
X151524836Y-126503019D01*
X151501011Y-126523664D01*
X151497388Y-126524184D01*
X151494489Y-126526421D01*
X151463068Y-126529119D01*
X151431853Y-126533608D01*
X151428521Y-126532086D01*
X151424875Y-126532400D01*
X151396984Y-126517684D01*
X151368297Y-126504583D01*
X151366317Y-126501503D01*
X151363080Y-126499795D01*
X151347573Y-126472336D01*
X151330523Y-126445805D01*
X151329816Y-126440892D01*
X151328723Y-126438956D01*
X151325500Y-126410870D01*
X151325500Y-125286187D01*
X151345185Y-125219148D01*
X151361814Y-125198511D01*
X153389652Y-123170672D01*
X153389657Y-123170669D01*
X153399860Y-123160465D01*
X153399862Y-123160465D01*
X153460465Y-123099862D01*
X153481891Y-123062750D01*
X153503318Y-123025639D01*
X153525500Y-122942853D01*
X153525500Y-122857147D01*
X153525500Y-122495730D01*
X161674500Y-122495730D01*
X161674500Y-123504269D01*
X161677353Y-123534699D01*
X161677353Y-123534701D01*
X161722206Y-123662880D01*
X161722207Y-123662882D01*
X161802850Y-123772150D01*
X161912118Y-123852793D01*
X161954845Y-123867744D01*
X162040299Y-123897646D01*
X162070730Y-123900500D01*
X162070734Y-123900500D01*
X162350500Y-123900500D01*
X162417539Y-123920185D01*
X162463294Y-123972989D01*
X162474500Y-124024500D01*
X162474500Y-134750979D01*
X162473293Y-134750979D01*
X162469218Y-134795282D01*
X162429060Y-134918878D01*
X162399500Y-135105513D01*
X162399500Y-135294486D01*
X162429059Y-135481118D01*
X162487454Y-135660836D01*
X162533379Y-135750968D01*
X162573240Y-135829199D01*
X162684310Y-135982073D01*
X162817927Y-136115690D01*
X162970801Y-136226760D01*
X163050347Y-136267290D01*
X163139163Y-136312545D01*
X163139165Y-136312545D01*
X163139168Y-136312547D01*
X163235497Y-136343846D01*
X163318881Y-136370940D01*
X163505514Y-136400500D01*
X163505519Y-136400500D01*
X163694486Y-136400500D01*
X163881118Y-136370940D01*
X163938433Y-136352317D01*
X164060832Y-136312547D01*
X164229199Y-136226760D01*
X164338040Y-136147682D01*
X169300000Y-136147682D01*
X169300000Y-136352317D01*
X169332009Y-136554417D01*
X169395244Y-136749031D01*
X169488139Y-136931347D01*
X169550279Y-137016876D01*
X170019668Y-136547487D01*
X170023978Y-136557890D01*
X170095112Y-136664351D01*
X170185649Y-136754888D01*
X170292110Y-136826022D01*
X170302510Y-136830330D01*
X169833121Y-137299719D01*
X169833122Y-137299720D01*
X169918640Y-137361852D01*
X169918649Y-137361858D01*
X170100968Y-137454755D01*
X170295582Y-137517990D01*
X170497683Y-137550000D01*
X170702317Y-137550000D01*
X170904417Y-137517990D01*
X171099031Y-137454755D01*
X171281349Y-137361859D01*
X171366876Y-137299719D01*
X171366877Y-137299718D01*
X170897489Y-136830330D01*
X170907890Y-136826022D01*
X171014351Y-136754888D01*
X171104888Y-136664351D01*
X171176022Y-136557890D01*
X171180330Y-136547488D01*
X171649718Y-137016877D01*
X171649719Y-137016876D01*
X171711859Y-136931349D01*
X171804755Y-136749031D01*
X171867990Y-136554417D01*
X171900000Y-136352317D01*
X171900000Y-136147682D01*
X171867990Y-135945582D01*
X171804755Y-135750968D01*
X171711858Y-135568649D01*
X171711852Y-135568640D01*
X171649720Y-135483122D01*
X171649719Y-135483121D01*
X171180330Y-135952510D01*
X171176022Y-135942110D01*
X171104888Y-135835649D01*
X171014351Y-135745112D01*
X170907890Y-135673978D01*
X170897487Y-135669669D01*
X171366876Y-135200279D01*
X171281347Y-135138139D01*
X171099031Y-135045244D01*
X170904417Y-134982009D01*
X170702317Y-134950000D01*
X170497683Y-134950000D01*
X170295582Y-134982009D01*
X170100968Y-135045244D01*
X169918648Y-135138141D01*
X169833122Y-135200278D01*
X169833122Y-135200279D01*
X170302512Y-135669669D01*
X170292110Y-135673978D01*
X170185649Y-135745112D01*
X170095112Y-135835649D01*
X170023978Y-135942110D01*
X170019669Y-135952512D01*
X169550279Y-135483122D01*
X169550278Y-135483122D01*
X169488141Y-135568648D01*
X169395244Y-135750968D01*
X169332009Y-135945582D01*
X169300000Y-136147682D01*
X164338040Y-136147682D01*
X164382073Y-136115690D01*
X164515690Y-135982073D01*
X164626760Y-135829199D01*
X164712547Y-135660832D01*
X164770940Y-135481118D01*
X164776346Y-135446986D01*
X164800500Y-135294486D01*
X164800500Y-135105513D01*
X164770940Y-134918881D01*
X164730780Y-134795282D01*
X164712547Y-134739168D01*
X164712545Y-134739165D01*
X164712545Y-134739163D01*
X164667290Y-134650347D01*
X164626760Y-134570801D01*
X164515690Y-134417927D01*
X164382073Y-134284310D01*
X164229199Y-134173240D01*
X164060836Y-134087454D01*
X163881118Y-134029059D01*
X163694486Y-133999500D01*
X163694481Y-133999500D01*
X163505519Y-133999500D01*
X163505514Y-133999500D01*
X163318880Y-134029060D01*
X163287816Y-134039153D01*
X163217975Y-134041147D01*
X163158143Y-134005065D01*
X163127316Y-133942364D01*
X163125500Y-133921221D01*
X163125500Y-130336824D01*
X165094500Y-130336824D01*
X165094500Y-130663175D01*
X165131035Y-130987441D01*
X165131038Y-130987455D01*
X165203655Y-131305612D01*
X165203656Y-131305614D01*
X165311438Y-131613640D01*
X165453030Y-131907657D01*
X165486211Y-131960464D01*
X165626654Y-132183979D01*
X165830123Y-132439121D01*
X166060879Y-132669877D01*
X166316021Y-132873346D01*
X166592340Y-133046968D01*
X166886361Y-133188562D01*
X167194387Y-133296344D01*
X167512544Y-133368962D01*
X167512553Y-133368963D01*
X167512558Y-133368964D01*
X167728735Y-133393320D01*
X167836825Y-133405499D01*
X167836828Y-133405500D01*
X167836831Y-133405500D01*
X168163172Y-133405500D01*
X168163173Y-133405499D01*
X168328900Y-133386826D01*
X168487441Y-133368964D01*
X168487444Y-133368963D01*
X168487456Y-133368962D01*
X168805613Y-133296344D01*
X169113639Y-133188562D01*
X169407660Y-133046968D01*
X169683979Y-132873346D01*
X169939121Y-132669877D01*
X170169877Y-132439121D01*
X170373346Y-132183979D01*
X170546968Y-131907660D01*
X170688562Y-131613639D01*
X170796344Y-131305613D01*
X170868962Y-130987456D01*
X170905500Y-130663169D01*
X170905500Y-130336831D01*
X170868962Y-130012544D01*
X170796344Y-129694387D01*
X170688562Y-129386361D01*
X170546968Y-129092340D01*
X170373346Y-128816021D01*
X170169877Y-128560879D01*
X169939121Y-128330123D01*
X169683979Y-128126654D01*
X169475111Y-127995414D01*
X169407657Y-127953030D01*
X169113640Y-127811438D01*
X168805614Y-127703656D01*
X168805612Y-127703655D01*
X168560073Y-127647612D01*
X168487456Y-127631038D01*
X168487453Y-127631037D01*
X168487441Y-127631035D01*
X168163175Y-127594500D01*
X168163169Y-127594500D01*
X167836831Y-127594500D01*
X167836824Y-127594500D01*
X167512558Y-127631035D01*
X167512544Y-127631038D01*
X167194387Y-127703655D01*
X167194385Y-127703656D01*
X166886359Y-127811438D01*
X166592342Y-127953030D01*
X166316022Y-128126653D01*
X166060879Y-128330122D01*
X165830122Y-128560879D01*
X165626653Y-128816022D01*
X165453030Y-129092342D01*
X165311438Y-129386359D01*
X165203656Y-129694385D01*
X165203655Y-129694387D01*
X165131038Y-130012544D01*
X165131035Y-130012558D01*
X165094500Y-130336824D01*
X163125500Y-130336824D01*
X163125500Y-123515578D01*
X163128105Y-123488413D01*
X163125500Y-123472883D01*
X163125500Y-123457147D01*
X163119973Y-123436522D01*
X163117459Y-123424954D01*
X163113925Y-123403884D01*
X163111685Y-123398974D01*
X163100500Y-123347508D01*
X163100500Y-122495730D01*
X163499500Y-122495730D01*
X163499500Y-123504269D01*
X163502353Y-123534699D01*
X163502353Y-123534701D01*
X163547206Y-123662880D01*
X163547207Y-123662882D01*
X163627850Y-123772150D01*
X163737118Y-123852793D01*
X163779845Y-123867744D01*
X163865299Y-123897646D01*
X163895730Y-123900500D01*
X163895734Y-123900500D01*
X164529270Y-123900500D01*
X164559699Y-123897646D01*
X164559701Y-123897646D01*
X164629145Y-123873346D01*
X164687882Y-123852793D01*
X164797150Y-123772150D01*
X164877793Y-123662882D01*
X164900219Y-123598790D01*
X164922646Y-123534701D01*
X164922646Y-123534699D01*
X164925500Y-123504269D01*
X164925500Y-122522121D01*
X164928305Y-122501580D01*
X164925500Y-122479451D01*
X164925500Y-121984993D01*
X164945185Y-121917954D01*
X164997989Y-121872199D01*
X165067147Y-121862255D01*
X165124806Y-121888587D01*
X165125677Y-121887440D01*
X165252904Y-121983920D01*
X165393556Y-122039386D01*
X165481946Y-122050000D01*
X165800000Y-122050000D01*
X165800000Y-120450000D01*
X165481944Y-120450000D01*
X165415623Y-120457963D01*
X165386730Y-120453118D01*
X165357507Y-120451029D01*
X165352670Y-120447408D01*
X165346715Y-120446410D01*
X165325029Y-120426716D01*
X165301574Y-120409157D01*
X165299463Y-120403497D01*
X165294992Y-120399437D01*
X165287395Y-120371144D01*
X165277157Y-120343693D01*
X165278440Y-120337790D01*
X165276875Y-120331958D01*
X165285781Y-120304048D01*
X165292009Y-120275420D01*
X165297077Y-120268648D01*
X165298116Y-120265395D01*
X165313150Y-120247176D01*
X165473510Y-120086816D01*
X165534831Y-120053334D01*
X165561189Y-120050500D01*
X166438811Y-120050500D01*
X166505850Y-120070185D01*
X166526492Y-120086819D01*
X166686839Y-120247166D01*
X166720324Y-120308489D01*
X166715340Y-120378181D01*
X166673468Y-120434114D01*
X166608004Y-120458531D01*
X166584376Y-120457963D01*
X166518056Y-120450000D01*
X166200000Y-120450000D01*
X166200000Y-122050000D01*
X166518054Y-122050000D01*
X166606443Y-122039386D01*
X166747095Y-121983920D01*
X166874323Y-121887440D01*
X166876248Y-121889978D01*
X166924142Y-121863827D01*
X166993834Y-121868811D01*
X167049767Y-121910683D01*
X167074184Y-121976147D01*
X167074500Y-121984993D01*
X167074500Y-122479452D01*
X167071695Y-122501580D01*
X167074500Y-122522121D01*
X167074500Y-123504269D01*
X167077353Y-123534699D01*
X167077353Y-123534701D01*
X167122206Y-123662880D01*
X167122207Y-123662882D01*
X167202850Y-123772150D01*
X167312118Y-123852793D01*
X167354845Y-123867744D01*
X167440299Y-123897646D01*
X167470730Y-123900500D01*
X167470734Y-123900500D01*
X168104270Y-123900500D01*
X168134699Y-123897646D01*
X168134701Y-123897646D01*
X168204145Y-123873346D01*
X168262882Y-123852793D01*
X168372150Y-123772150D01*
X168452793Y-123662882D01*
X168475219Y-123598790D01*
X168497646Y-123534701D01*
X168497646Y-123534699D01*
X168500500Y-123504269D01*
X168500500Y-122666255D01*
X168506738Y-122645009D01*
X168508318Y-122622922D01*
X168516390Y-122612138D01*
X168520185Y-122599216D01*
X168536916Y-122584717D01*
X168550189Y-122566988D01*
X168562811Y-122562280D01*
X168572989Y-122553461D01*
X168594905Y-122550309D01*
X168615654Y-122542571D01*
X168628814Y-122545433D01*
X168642147Y-122543517D01*
X168662290Y-122552716D01*
X168683927Y-122557423D01*
X168701654Y-122570692D01*
X168705703Y-122572542D01*
X168712168Y-122578561D01*
X168863182Y-122729574D01*
X168896666Y-122790896D01*
X168899500Y-122817254D01*
X168899500Y-123504269D01*
X168902353Y-123534699D01*
X168902353Y-123534701D01*
X168947206Y-123662880D01*
X168947207Y-123662882D01*
X169027850Y-123772150D01*
X169137118Y-123852793D01*
X169179845Y-123867744D01*
X169265299Y-123897646D01*
X169295730Y-123900500D01*
X169295734Y-123900500D01*
X169929270Y-123900500D01*
X169959699Y-123897646D01*
X169959701Y-123897646D01*
X170029145Y-123873346D01*
X170087882Y-123852793D01*
X170197150Y-123772150D01*
X170277793Y-123662882D01*
X170300219Y-123598790D01*
X170322646Y-123534701D01*
X170322646Y-123534699D01*
X170325500Y-123504269D01*
X170325500Y-122495730D01*
X170322646Y-122465300D01*
X170322646Y-122465298D01*
X170277793Y-122337119D01*
X170277792Y-122337117D01*
X170254541Y-122305613D01*
X170197150Y-122227850D01*
X170087882Y-122147207D01*
X170087880Y-122147206D01*
X169959700Y-122102353D01*
X169929270Y-122099500D01*
X169929266Y-122099500D01*
X169524500Y-122099500D01*
X169457461Y-122079815D01*
X169411706Y-122027011D01*
X169400500Y-121975500D01*
X169400500Y-119139231D01*
X169420185Y-119072192D01*
X169472989Y-119026437D01*
X169534230Y-119015613D01*
X169550279Y-119016876D01*
X170019669Y-118547487D01*
X170023978Y-118557890D01*
X170095112Y-118664351D01*
X170185649Y-118754888D01*
X170292110Y-118826022D01*
X170302510Y-118830330D01*
X169833121Y-119299719D01*
X169833122Y-119299720D01*
X169918640Y-119361852D01*
X169918649Y-119361858D01*
X170100968Y-119454755D01*
X170295582Y-119517990D01*
X170497683Y-119550000D01*
X170702317Y-119550000D01*
X170904417Y-119517990D01*
X171099031Y-119454755D01*
X171281349Y-119361859D01*
X171366876Y-119299719D01*
X171366877Y-119299718D01*
X170897489Y-118830330D01*
X170907890Y-118826022D01*
X171014351Y-118754888D01*
X171104888Y-118664351D01*
X171176022Y-118557890D01*
X171180330Y-118547488D01*
X171649718Y-119016877D01*
X171649719Y-119016876D01*
X171711859Y-118931349D01*
X171804755Y-118749031D01*
X171867990Y-118554417D01*
X171900000Y-118352317D01*
X171900000Y-118147682D01*
X171867990Y-117945582D01*
X171804755Y-117750968D01*
X171711858Y-117568649D01*
X171711852Y-117568640D01*
X171649720Y-117483122D01*
X171649719Y-117483121D01*
X171180330Y-117952510D01*
X171176022Y-117942110D01*
X171104888Y-117835649D01*
X171014351Y-117745112D01*
X170907890Y-117673978D01*
X170897487Y-117669669D01*
X171366876Y-117200279D01*
X171281347Y-117138139D01*
X171099031Y-117045244D01*
X170904417Y-116982009D01*
X170702317Y-116950000D01*
X170497683Y-116950000D01*
X170295581Y-116982010D01*
X170295578Y-116982010D01*
X170177687Y-117020316D01*
X170107846Y-117022311D01*
X170048013Y-116986231D01*
X170017185Y-116923530D01*
X170025150Y-116854115D01*
X170051685Y-116814707D01*
X171520480Y-115345913D01*
X171573207Y-115254588D01*
X171600500Y-115152727D01*
X171600500Y-115047273D01*
X171600500Y-110847273D01*
X171590944Y-110811610D01*
X171573207Y-110745412D01*
X171520480Y-110654087D01*
X168836819Y-107970426D01*
X168803334Y-107909103D01*
X168800500Y-107882745D01*
X168800500Y-106619055D01*
X168807459Y-106578100D01*
X168809427Y-106572475D01*
X168822646Y-106534699D01*
X168822647Y-106534689D01*
X168825500Y-106504269D01*
X168825500Y-105495730D01*
X168822646Y-105465300D01*
X168822646Y-105465298D01*
X168785700Y-105359716D01*
X168777793Y-105337118D01*
X168697150Y-105227850D01*
X168587882Y-105147207D01*
X168587880Y-105147206D01*
X168459700Y-105102353D01*
X168429270Y-105099500D01*
X168429266Y-105099500D01*
X168419786Y-105099500D01*
X168352747Y-105079815D01*
X168306992Y-105027011D01*
X168297048Y-104957853D01*
X168310114Y-104920099D01*
X168309872Y-104919999D01*
X168311557Y-104915928D01*
X168312397Y-104913504D01*
X168312981Y-104912492D01*
X168312982Y-104912489D01*
X168312982Y-104912487D01*
X168312984Y-104912485D01*
X168350500Y-104772475D01*
X168350500Y-104627525D01*
X168312984Y-104487515D01*
X168309505Y-104481490D01*
X168240511Y-104361988D01*
X168240506Y-104361982D01*
X168138017Y-104259493D01*
X168138011Y-104259488D01*
X168012488Y-104187017D01*
X168012489Y-104187017D01*
X168001006Y-104183940D01*
X167872475Y-104149500D01*
X167727525Y-104149500D01*
X167598993Y-104183940D01*
X167587511Y-104187017D01*
X167461988Y-104259488D01*
X167461982Y-104259493D01*
X167359493Y-104361982D01*
X167359488Y-104361988D01*
X167287017Y-104487511D01*
X167287016Y-104487515D01*
X167249500Y-104627525D01*
X167249500Y-104772475D01*
X167281678Y-104892563D01*
X167287017Y-104912488D01*
X167359488Y-105038011D01*
X167359493Y-105038017D01*
X167363181Y-105041705D01*
X167396666Y-105103028D01*
X167399500Y-105129386D01*
X167399500Y-105454386D01*
X167397900Y-105461320D01*
X167399500Y-105507017D01*
X167399500Y-106504269D01*
X167402353Y-106534699D01*
X167402353Y-106534701D01*
X167447206Y-106662880D01*
X167447207Y-106662882D01*
X167527850Y-106772150D01*
X167637118Y-106852793D01*
X167679845Y-106867744D01*
X167765299Y-106897646D01*
X167795730Y-106900500D01*
X167795734Y-106900500D01*
X167875500Y-106900500D01*
X167942539Y-106920185D01*
X167988294Y-106972989D01*
X167999500Y-107024500D01*
X167999500Y-108047273D01*
X167999500Y-108152727D01*
X167999846Y-108154017D01*
X168026793Y-108254589D01*
X168039523Y-108276637D01*
X168079520Y-108345913D01*
X168079522Y-108345915D01*
X169429732Y-109696125D01*
X169463217Y-109757448D01*
X169458233Y-109827140D01*
X169416361Y-109883073D01*
X169350897Y-109907490D01*
X169288249Y-109895526D01*
X169113640Y-109811438D01*
X168805614Y-109703656D01*
X168805612Y-109703655D01*
X168560073Y-109647612D01*
X168487456Y-109631038D01*
X168487453Y-109631037D01*
X168487441Y-109631035D01*
X168163175Y-109594500D01*
X168163169Y-109594500D01*
X167836831Y-109594500D01*
X167836824Y-109594500D01*
X167512558Y-109631035D01*
X167512544Y-109631038D01*
X167194387Y-109703655D01*
X167194385Y-109703656D01*
X166886359Y-109811438D01*
X166592342Y-109953030D01*
X166316022Y-110126653D01*
X166060879Y-110330122D01*
X165830122Y-110560879D01*
X165626653Y-110816022D01*
X165453030Y-111092342D01*
X165311438Y-111386359D01*
X165203656Y-111694385D01*
X165203655Y-111694387D01*
X165131038Y-112012544D01*
X165131035Y-112012558D01*
X165094500Y-112336824D01*
X165094500Y-112663175D01*
X165131035Y-112987441D01*
X165131038Y-112987455D01*
X165203655Y-113305612D01*
X165203656Y-113305614D01*
X165311438Y-113613640D01*
X165453030Y-113907657D01*
X165453032Y-113907660D01*
X165473670Y-113940506D01*
X165485623Y-113959528D01*
X165504623Y-114026765D01*
X165484255Y-114093600D01*
X165430987Y-114138814D01*
X165380629Y-114149500D01*
X165327525Y-114149500D01*
X165198993Y-114183940D01*
X165187511Y-114187017D01*
X165061988Y-114259488D01*
X165061982Y-114259493D01*
X164959493Y-114361982D01*
X164959488Y-114361988D01*
X164887017Y-114487511D01*
X164887016Y-114487515D01*
X164849500Y-114627525D01*
X164849500Y-114772475D01*
X164885381Y-114906384D01*
X164887017Y-114912488D01*
X164959488Y-115038011D01*
X164959493Y-115038017D01*
X165038181Y-115116705D01*
X165071666Y-115178028D01*
X165074500Y-115204386D01*
X165074500Y-119513811D01*
X165054815Y-119580850D01*
X165038181Y-119601492D01*
X164339537Y-120300135D01*
X164339533Y-120300141D01*
X164296681Y-120374361D01*
X164296682Y-120374362D01*
X164274500Y-120457147D01*
X164274500Y-121975500D01*
X164254815Y-122042539D01*
X164202011Y-122088294D01*
X164150500Y-122099500D01*
X163895730Y-122099500D01*
X163865300Y-122102353D01*
X163865298Y-122102353D01*
X163737119Y-122147206D01*
X163737117Y-122147207D01*
X163627850Y-122227850D01*
X163547207Y-122337117D01*
X163547206Y-122337119D01*
X163502353Y-122465298D01*
X163502353Y-122465300D01*
X163499500Y-122495730D01*
X163100500Y-122495730D01*
X163097646Y-122465300D01*
X163097646Y-122465298D01*
X163052793Y-122337119D01*
X163052792Y-122337117D01*
X163029541Y-122305613D01*
X162972150Y-122227850D01*
X162862882Y-122147207D01*
X162862880Y-122147206D01*
X162734700Y-122102353D01*
X162704270Y-122099500D01*
X162704266Y-122099500D01*
X162070734Y-122099500D01*
X162070730Y-122099500D01*
X162040300Y-122102353D01*
X162040298Y-122102353D01*
X161912119Y-122147206D01*
X161912117Y-122147207D01*
X161802850Y-122227850D01*
X161722207Y-122337117D01*
X161722206Y-122337119D01*
X161677353Y-122465298D01*
X161677353Y-122465300D01*
X161674500Y-122495730D01*
X153525500Y-122495730D01*
X153525500Y-117857147D01*
X153503318Y-117774361D01*
X153481891Y-117737250D01*
X153460465Y-117700138D01*
X153399862Y-117639535D01*
X153399859Y-117639533D01*
X152511305Y-116750979D01*
X151618903Y-115858576D01*
X151585418Y-115797253D01*
X151590402Y-115727561D01*
X151632274Y-115671628D01*
X151697738Y-115647211D01*
X151754035Y-115656333D01*
X151795672Y-115673580D01*
X151795676Y-115673580D01*
X151795677Y-115673581D01*
X151931004Y-115700500D01*
X151931007Y-115700500D01*
X152068995Y-115700500D01*
X152160041Y-115682389D01*
X152204328Y-115673580D01*
X152331811Y-115620775D01*
X152446542Y-115544114D01*
X152544114Y-115446542D01*
X152620775Y-115331811D01*
X152673580Y-115204328D01*
X152686093Y-115141421D01*
X152700500Y-115068995D01*
X152700500Y-114931004D01*
X152673581Y-114795677D01*
X152673580Y-114795676D01*
X152673580Y-114795672D01*
X152673382Y-114795195D01*
X152673353Y-114794927D01*
X152671812Y-114789845D01*
X152672776Y-114789552D01*
X152665914Y-114725728D01*
X152697188Y-114663249D01*
X152700263Y-114660063D01*
X153244269Y-114116057D01*
X153860465Y-113499862D01*
X153903318Y-113425639D01*
X153925500Y-113342853D01*
X153925500Y-113257147D01*
X153925500Y-111004386D01*
X153945185Y-110937347D01*
X153961819Y-110916705D01*
X154040509Y-110838015D01*
X154112984Y-110712485D01*
X154150500Y-110572475D01*
X154150500Y-110427525D01*
X154112984Y-110287515D01*
X154058136Y-110192516D01*
X154041664Y-110124619D01*
X154064516Y-110058592D01*
X154077839Y-110042841D01*
X154114198Y-110006483D01*
X154165573Y-109901393D01*
X154175500Y-109833260D01*
X154175500Y-108116740D01*
X154165573Y-108048607D01*
X154143746Y-108003960D01*
X154143461Y-108002290D01*
X154142353Y-108001011D01*
X154137605Y-107967991D01*
X154131987Y-107935088D01*
X154132649Y-107933528D01*
X154132409Y-107931853D01*
X154146266Y-107901509D01*
X154159330Y-107870790D01*
X154160730Y-107869836D01*
X154161434Y-107868297D01*
X154189504Y-107850257D01*
X154217095Y-107831483D01*
X154219243Y-107831145D01*
X154220212Y-107830523D01*
X154255147Y-107825500D01*
X154364853Y-107825500D01*
X154431892Y-107845185D01*
X154477647Y-107897989D01*
X154487591Y-107967147D01*
X154476253Y-108003961D01*
X154454426Y-108048607D01*
X154444500Y-108116739D01*
X154444500Y-109833260D01*
X154454426Y-109901391D01*
X154505803Y-110006485D01*
X154588515Y-110089197D01*
X154604959Y-110097236D01*
X154656542Y-110144364D01*
X154674500Y-110208637D01*
X154674500Y-111995613D01*
X154654815Y-112062652D01*
X154638182Y-112083294D01*
X154559488Y-112161988D01*
X154487017Y-112287511D01*
X154487016Y-112287515D01*
X154449500Y-112427525D01*
X154449500Y-112572475D01*
X154487016Y-112712485D01*
X154487017Y-112712488D01*
X154559488Y-112838011D01*
X154559493Y-112838017D01*
X154638181Y-112916705D01*
X154671666Y-112978028D01*
X154674500Y-113004386D01*
X154674500Y-114457147D01*
X154674500Y-114542853D01*
X154677342Y-114553458D01*
X154696682Y-114625640D01*
X154739537Y-114699865D01*
X154781033Y-114741361D01*
X154814518Y-114802684D01*
X154814970Y-114853232D01*
X154810955Y-114873417D01*
X154799500Y-114931007D01*
X154799500Y-115068993D01*
X154799500Y-115068995D01*
X154799499Y-115068995D01*
X154826418Y-115204322D01*
X154826421Y-115204332D01*
X154879221Y-115331804D01*
X154879228Y-115331817D01*
X154955885Y-115446541D01*
X154955888Y-115446545D01*
X155053454Y-115544111D01*
X155053458Y-115544114D01*
X155168182Y-115620771D01*
X155168195Y-115620778D01*
X155232011Y-115647211D01*
X155295672Y-115673580D01*
X155295676Y-115673580D01*
X155295677Y-115673581D01*
X155431004Y-115700500D01*
X155431007Y-115700500D01*
X155568995Y-115700500D01*
X155660041Y-115682389D01*
X155704328Y-115673580D01*
X155831811Y-115620775D01*
X155946542Y-115544114D01*
X156044114Y-115446542D01*
X156120775Y-115331811D01*
X156173580Y-115204328D01*
X156186093Y-115141421D01*
X156200500Y-115068995D01*
X156200500Y-114931004D01*
X156173581Y-114795677D01*
X156173580Y-114795676D01*
X156173580Y-114795672D01*
X156171045Y-114789552D01*
X156120778Y-114668195D01*
X156120771Y-114668182D01*
X156044114Y-114553458D01*
X156044111Y-114553454D01*
X155946545Y-114455888D01*
X155946541Y-114455885D01*
X155831817Y-114379228D01*
X155831804Y-114379221D01*
X155704332Y-114326421D01*
X155704322Y-114326418D01*
X155568995Y-114299500D01*
X155568993Y-114299500D01*
X155449500Y-114299500D01*
X155382461Y-114279815D01*
X155336706Y-114227011D01*
X155325500Y-114175500D01*
X155325500Y-113004386D01*
X155345185Y-112937347D01*
X155361819Y-112916705D01*
X155385184Y-112893340D01*
X155440509Y-112838015D01*
X155512984Y-112712485D01*
X155550500Y-112572475D01*
X155550500Y-112427525D01*
X155512984Y-112287515D01*
X155440509Y-112161985D01*
X155361818Y-112083294D01*
X155328334Y-112021970D01*
X155325500Y-111995613D01*
X155325500Y-110116543D01*
X155345185Y-110049504D01*
X155361815Y-110028865D01*
X155384198Y-110006483D01*
X155435573Y-109901393D01*
X155445500Y-109833260D01*
X155445500Y-108116740D01*
X155445499Y-108116739D01*
X155445273Y-108113615D01*
X155445500Y-108112566D01*
X155445500Y-108112253D01*
X155445568Y-108112253D01*
X155460051Y-108045326D01*
X155509403Y-107995868D01*
X155577660Y-107980943D01*
X155643151Y-108005289D01*
X155656628Y-108016955D01*
X158238181Y-110598507D01*
X158271666Y-110659830D01*
X158274500Y-110686188D01*
X158274500Y-114859929D01*
X158273825Y-114862629D01*
X158274500Y-114902741D01*
X158274500Y-114943167D01*
X158274707Y-114944558D01*
X158274708Y-114944566D01*
X158275266Y-114948318D01*
X158275266Y-114948321D01*
X158275267Y-114948322D01*
X158283963Y-114978724D01*
X158286002Y-114985850D01*
X158286556Y-114987853D01*
X158295273Y-115020379D01*
X158299500Y-115052478D01*
X158299500Y-115068993D01*
X158299500Y-115068995D01*
X158299499Y-115068995D01*
X158326418Y-115204322D01*
X158326421Y-115204332D01*
X158379221Y-115331804D01*
X158379228Y-115331817D01*
X158455885Y-115446541D01*
X158455888Y-115446545D01*
X158553454Y-115544111D01*
X158553458Y-115544114D01*
X158668182Y-115620771D01*
X158668195Y-115620778D01*
X158732011Y-115647211D01*
X158795672Y-115673580D01*
X158795676Y-115673580D01*
X158795677Y-115673581D01*
X158931004Y-115700500D01*
X158931007Y-115700500D01*
X159068995Y-115700500D01*
X159160041Y-115682389D01*
X159204328Y-115673580D01*
X159331811Y-115620775D01*
X159446542Y-115544114D01*
X159544114Y-115446542D01*
X159620775Y-115331811D01*
X159673580Y-115204328D01*
X159686093Y-115141421D01*
X159700500Y-115068995D01*
X159700500Y-114931004D01*
X159673581Y-114795677D01*
X159673580Y-114795676D01*
X159673580Y-114795672D01*
X159671045Y-114789552D01*
X159620778Y-114668195D01*
X159620771Y-114668182D01*
X159544114Y-114553458D01*
X159544111Y-114553454D01*
X159446545Y-114455888D01*
X159446541Y-114455885D01*
X159331817Y-114379228D01*
X159331804Y-114379221D01*
X159204332Y-114326421D01*
X159204322Y-114326418D01*
X159068995Y-114299500D01*
X159068993Y-114299500D01*
X159049500Y-114299500D01*
X158982461Y-114279815D01*
X158936706Y-114227011D01*
X158925500Y-114175500D01*
X158925500Y-110552855D01*
X158925501Y-110552842D01*
X158925501Y-110457148D01*
X158917563Y-110427525D01*
X158903318Y-110374361D01*
X158903317Y-110374360D01*
X158903317Y-110374358D01*
X158903315Y-110374355D01*
X158883317Y-110339719D01*
X158877777Y-110330123D01*
X158860465Y-110300138D01*
X158799862Y-110239535D01*
X158799859Y-110239533D01*
X155799862Y-107239535D01*
X155757202Y-107214905D01*
X155725640Y-107196682D01*
X155684246Y-107185591D01*
X155642853Y-107174500D01*
X155642852Y-107174500D01*
X150195505Y-107174500D01*
X150128466Y-107154815D01*
X150082711Y-107102011D01*
X150072767Y-107032853D01*
X150101792Y-106969297D01*
X150133504Y-106943114D01*
X150138008Y-106940513D01*
X150138007Y-106940513D01*
X150138015Y-106940509D01*
X150240509Y-106838015D01*
X150312984Y-106712485D01*
X150350500Y-106572475D01*
X150350500Y-106427525D01*
X150312984Y-106287515D01*
X150291613Y-106250500D01*
X150240511Y-106161988D01*
X150240506Y-106161982D01*
X150236819Y-106158295D01*
X150203334Y-106096972D01*
X150200500Y-106070614D01*
X150200500Y-105211544D01*
X150220185Y-105144505D01*
X150225089Y-105137426D01*
X150230463Y-105130217D01*
X150304198Y-105056483D01*
X150339925Y-104983401D01*
X150346834Y-104974135D01*
X150365891Y-104959810D01*
X150381971Y-104942211D01*
X150393308Y-104939203D01*
X150402686Y-104932155D01*
X150426463Y-104930408D01*
X150449505Y-104924296D01*
X150460669Y-104927895D01*
X150472368Y-104927036D01*
X150493313Y-104938420D01*
X150516004Y-104945736D01*
X150523450Y-104954800D01*
X150533756Y-104960402D01*
X150545221Y-104981302D01*
X150560355Y-104999725D01*
X150563286Y-105007298D01*
X150582651Y-105062641D01*
X150582653Y-105062645D01*
X150663207Y-105171792D01*
X150772354Y-105252346D01*
X150900397Y-105297149D01*
X150930793Y-105299999D01*
X150934999Y-105299999D01*
X150935000Y-105299998D01*
X150935000Y-102750000D01*
X150930796Y-102750001D01*
X150930774Y-102750002D01*
X150900399Y-102752850D01*
X150900394Y-102752851D01*
X150772354Y-102797653D01*
X150663207Y-102878207D01*
X150582653Y-102987354D01*
X150582651Y-102987359D01*
X150563286Y-103042701D01*
X150522564Y-103099477D01*
X150457611Y-103125224D01*
X150389050Y-103111767D01*
X150338647Y-103063380D01*
X150334845Y-103056207D01*
X150304198Y-102993517D01*
X150304196Y-102993515D01*
X150304196Y-102993514D01*
X150221485Y-102910803D01*
X150116391Y-102859426D01*
X150048261Y-102849500D01*
X150048260Y-102849500D01*
X149681740Y-102849500D01*
X149681739Y-102849500D01*
X149613608Y-102859426D01*
X149508514Y-102910803D01*
X149425803Y-102993514D01*
X149374426Y-103098608D01*
X149364500Y-103166739D01*
X149364500Y-104883260D01*
X149374426Y-104951392D01*
X149386900Y-104976907D01*
X149399500Y-105031368D01*
X149399500Y-106070614D01*
X149379815Y-106137653D01*
X149363181Y-106158295D01*
X149359493Y-106161982D01*
X149359488Y-106161988D01*
X149287017Y-106287511D01*
X149287016Y-106287515D01*
X149249500Y-106427525D01*
X149249500Y-106572475D01*
X149287016Y-106712485D01*
X149287017Y-106712488D01*
X149359488Y-106838011D01*
X149359490Y-106838013D01*
X149359491Y-106838015D01*
X149461985Y-106940509D01*
X149461988Y-106940510D01*
X149461991Y-106940513D01*
X149466496Y-106943114D01*
X149514711Y-106993681D01*
X149527933Y-107062288D01*
X149501965Y-107127153D01*
X149445050Y-107167681D01*
X149404495Y-107174500D01*
X148786189Y-107174500D01*
X148719150Y-107154815D01*
X148698508Y-107138181D01*
X147187852Y-105627525D01*
X147849500Y-105627525D01*
X147849500Y-105772475D01*
X147878394Y-105880306D01*
X147887017Y-105912488D01*
X147959488Y-106038011D01*
X147959490Y-106038013D01*
X147959491Y-106038015D01*
X148061985Y-106140509D01*
X148061986Y-106140510D01*
X148061988Y-106140511D01*
X148187511Y-106212982D01*
X148187512Y-106212982D01*
X148187515Y-106212984D01*
X148327525Y-106250500D01*
X148327528Y-106250500D01*
X148472472Y-106250500D01*
X148472475Y-106250500D01*
X148612485Y-106212984D01*
X148738015Y-106140509D01*
X148840509Y-106038015D01*
X148912984Y-105912485D01*
X148950500Y-105772475D01*
X148950500Y-105627525D01*
X148912984Y-105487515D01*
X148912218Y-105486189D01*
X148840509Y-105361985D01*
X148838768Y-105359716D01*
X148837894Y-105357456D01*
X148836445Y-105354946D01*
X148836836Y-105354719D01*
X148813575Y-105294546D01*
X148827614Y-105226101D01*
X148876429Y-105176113D01*
X148882670Y-105172838D01*
X148951483Y-105139198D01*
X149034198Y-105056483D01*
X149085573Y-104951393D01*
X149095500Y-104883260D01*
X149095500Y-103166740D01*
X149085573Y-103098607D01*
X149034198Y-102993517D01*
X149034196Y-102993515D01*
X149034196Y-102993514D01*
X148951485Y-102910803D01*
X148846391Y-102859426D01*
X148778261Y-102849500D01*
X148778260Y-102849500D01*
X148411740Y-102849500D01*
X148411739Y-102849500D01*
X148343608Y-102859426D01*
X148238514Y-102910803D01*
X148155803Y-102993514D01*
X148104426Y-103098608D01*
X148094500Y-103166739D01*
X148094500Y-104766180D01*
X148090275Y-104798272D01*
X148074500Y-104857145D01*
X148074500Y-105195613D01*
X148054815Y-105262652D01*
X148038182Y-105283294D01*
X147959488Y-105361988D01*
X147887017Y-105487511D01*
X147884814Y-105495734D01*
X147849500Y-105627525D01*
X147187852Y-105627525D01*
X146961819Y-105401492D01*
X146947115Y-105374564D01*
X146930523Y-105348746D01*
X146929631Y-105342545D01*
X146928334Y-105340169D01*
X146925500Y-105313811D01*
X146925500Y-105312369D01*
X146945185Y-105245330D01*
X146997989Y-105199575D01*
X147067147Y-105189631D01*
X147067379Y-105189665D01*
X147073605Y-105190572D01*
X147073607Y-105190573D01*
X147141740Y-105200500D01*
X147141741Y-105200500D01*
X147508261Y-105200500D01*
X147541801Y-105195613D01*
X147576393Y-105190573D01*
X147681483Y-105139198D01*
X147764198Y-105056483D01*
X147815573Y-104951393D01*
X147825500Y-104883260D01*
X147825500Y-103166740D01*
X147815573Y-103098607D01*
X147764198Y-102993517D01*
X147764196Y-102993515D01*
X147764196Y-102993514D01*
X147681485Y-102910803D01*
X147576391Y-102859426D01*
X147508261Y-102849500D01*
X147508260Y-102849500D01*
X147461189Y-102849500D01*
X147394150Y-102829815D01*
X147373508Y-102813181D01*
X146799864Y-102239537D01*
X146799862Y-102239535D01*
X146762750Y-102218108D01*
X146725640Y-102196682D01*
X146684246Y-102185591D01*
X146642853Y-102174500D01*
X144957147Y-102174500D01*
X144874362Y-102196682D01*
X144874355Y-102196685D01*
X144800144Y-102239530D01*
X144800136Y-102239536D01*
X141539537Y-105500135D01*
X141539533Y-105500141D01*
X141496681Y-105574362D01*
X141496680Y-105574363D01*
X141486826Y-105611144D01*
X141474500Y-105657145D01*
X141474500Y-114189084D01*
X141467370Y-114213364D01*
X141464237Y-114238479D01*
X141457692Y-114246323D01*
X141454815Y-114256123D01*
X141435692Y-114272692D01*
X141419477Y-114292129D01*
X141407557Y-114297071D01*
X141402011Y-114301878D01*
X141387652Y-114307388D01*
X141381259Y-114309395D01*
X141295672Y-114326420D01*
X141197311Y-114367162D01*
X141192083Y-114368804D01*
X141182683Y-114368979D01*
X141154931Y-114374500D01*
X132386187Y-114374500D01*
X132319148Y-114354815D01*
X132298506Y-114338181D01*
X130067508Y-112107181D01*
X130034023Y-112045858D01*
X130039007Y-111976166D01*
X130080879Y-111920233D01*
X130146343Y-111895816D01*
X130155189Y-111895500D01*
X131194750Y-111895500D01*
X131194751Y-111895499D01*
X131209568Y-111892552D01*
X131253229Y-111883868D01*
X131253229Y-111883867D01*
X131253231Y-111883867D01*
X131319552Y-111839552D01*
X131338198Y-111811645D01*
X131391809Y-111766842D01*
X131461134Y-111758133D01*
X131510192Y-111777435D01*
X131561610Y-111811792D01*
X131561612Y-111811793D01*
X131561616Y-111811795D01*
X131665791Y-111854945D01*
X131695462Y-111867235D01*
X131837555Y-111895499D01*
X131837559Y-111895500D01*
X131837560Y-111895500D01*
X131982441Y-111895500D01*
X131982442Y-111895499D01*
X132124538Y-111867235D01*
X132258390Y-111811792D01*
X132378854Y-111731300D01*
X132481300Y-111628854D01*
X132561792Y-111508390D01*
X132617235Y-111374538D01*
X132645500Y-111232440D01*
X132645500Y-111136530D01*
X132665185Y-111069491D01*
X132717989Y-111023736D01*
X132787147Y-111013792D01*
X132801566Y-111016749D01*
X132927525Y-111050500D01*
X132927529Y-111050500D01*
X133072472Y-111050500D01*
X133072475Y-111050500D01*
X133212485Y-111012984D01*
X133338015Y-110940509D01*
X133440509Y-110838015D01*
X133512984Y-110712485D01*
X133550500Y-110572475D01*
X133550500Y-110427525D01*
X133512984Y-110287515D01*
X133491323Y-110249998D01*
X133440511Y-110161988D01*
X133440510Y-110161987D01*
X133440509Y-110161985D01*
X133361818Y-110083294D01*
X133328334Y-110021970D01*
X133325500Y-109995613D01*
X133325500Y-104057149D01*
X133325500Y-104057147D01*
X133303318Y-103974362D01*
X133290165Y-103951580D01*
X133260469Y-103900144D01*
X133260463Y-103900136D01*
X132799864Y-103439537D01*
X132799862Y-103439535D01*
X132754909Y-103413581D01*
X132725640Y-103396682D01*
X132665029Y-103380442D01*
X132642853Y-103374500D01*
X131242851Y-103374500D01*
X131157145Y-103374500D01*
X131157143Y-103374500D01*
X131157137Y-103374501D01*
X131134964Y-103380441D01*
X131134965Y-103380442D01*
X131074364Y-103396680D01*
X131074357Y-103396683D01*
X131000140Y-103439532D01*
X131000135Y-103439536D01*
X130793068Y-103646603D01*
X130793069Y-103646604D01*
X130739533Y-103700140D01*
X130739530Y-103700144D01*
X130696685Y-103774355D01*
X130696682Y-103774362D01*
X130674500Y-103857147D01*
X130674500Y-103951580D01*
X130654815Y-104018619D01*
X130602011Y-104064374D01*
X130573297Y-104072115D01*
X130573535Y-104073311D01*
X130425469Y-104102763D01*
X130425457Y-104102766D01*
X130291616Y-104158204D01*
X130291603Y-104158211D01*
X130171146Y-104238699D01*
X130171142Y-104238702D01*
X130068702Y-104341142D01*
X130068699Y-104341146D01*
X129988211Y-104461603D01*
X129988204Y-104461616D01*
X129932766Y-104595457D01*
X129932763Y-104595469D01*
X129904500Y-104737555D01*
X129904500Y-104882444D01*
X129932763Y-105024530D01*
X129932766Y-105024542D01*
X129988204Y-105158383D01*
X129988211Y-105158396D01*
X130068699Y-105278853D01*
X130068702Y-105278857D01*
X130147164Y-105357319D01*
X130180649Y-105418642D01*
X130175665Y-105488334D01*
X130147164Y-105532681D01*
X130068702Y-105611142D01*
X130068701Y-105611144D01*
X129988211Y-105731603D01*
X129988204Y-105731616D01*
X129932766Y-105865457D01*
X129932764Y-105865466D01*
X129929812Y-105880306D01*
X129897426Y-105942216D01*
X129895876Y-105943794D01*
X128539537Y-107300135D01*
X128539535Y-107300138D01*
X128496680Y-107374363D01*
X128492321Y-107390635D01*
X128492321Y-107390637D01*
X128474500Y-107457147D01*
X128474500Y-111995613D01*
X128454815Y-112062652D01*
X128438182Y-112083294D01*
X128359488Y-112161988D01*
X128287017Y-112287511D01*
X128287016Y-112287515D01*
X128249500Y-112427525D01*
X128249500Y-112572475D01*
X128287016Y-112712485D01*
X128287017Y-112712488D01*
X128359488Y-112838011D01*
X128359490Y-112838013D01*
X128359491Y-112838015D01*
X128461985Y-112940509D01*
X128461986Y-112940510D01*
X128461988Y-112940511D01*
X128587511Y-113012982D01*
X128587512Y-113012982D01*
X128587515Y-113012984D01*
X128727525Y-113050500D01*
X128727528Y-113050500D01*
X128872472Y-113050500D01*
X128872475Y-113050500D01*
X129012485Y-113012984D01*
X129138015Y-112940509D01*
X129240509Y-112838015D01*
X129312984Y-112712485D01*
X129350206Y-112573571D01*
X129386569Y-112513914D01*
X129449416Y-112483385D01*
X129518791Y-112491680D01*
X129557660Y-112517987D01*
X131939532Y-114899859D01*
X131939534Y-114899862D01*
X132000137Y-114960465D01*
X132061225Y-114995734D01*
X132074361Y-115003318D01*
X132157146Y-115025501D01*
X132157148Y-115025501D01*
X132250448Y-115025501D01*
X132250464Y-115025500D01*
X140689084Y-115025500D01*
X140756123Y-115045185D01*
X140801878Y-115097989D01*
X140810701Y-115125308D01*
X140826418Y-115204322D01*
X140826421Y-115204332D01*
X140879221Y-115331804D01*
X140879228Y-115331817D01*
X140955885Y-115446541D01*
X140955888Y-115446545D01*
X141053454Y-115544111D01*
X141053458Y-115544114D01*
X141168182Y-115620771D01*
X141168195Y-115620778D01*
X141232011Y-115647211D01*
X141295672Y-115673580D01*
X141295676Y-115673580D01*
X141295677Y-115673581D01*
X141431004Y-115700500D01*
X141431007Y-115700500D01*
X141568995Y-115700500D01*
X141660041Y-115682389D01*
X141704328Y-115673580D01*
X141831811Y-115620775D01*
X141946542Y-115544114D01*
X142044114Y-115446542D01*
X142120775Y-115331811D01*
X142173580Y-115204328D01*
X142186093Y-115141421D01*
X142200500Y-115068995D01*
X142200500Y-114931004D01*
X142173581Y-114795677D01*
X142173580Y-114795676D01*
X142173580Y-114795672D01*
X142173271Y-114794927D01*
X142134939Y-114702382D01*
X142125500Y-114654930D01*
X142125500Y-107095730D01*
X143099500Y-107095730D01*
X143099500Y-107729269D01*
X143102353Y-107759699D01*
X143102353Y-107759701D01*
X143140892Y-107869836D01*
X143147207Y-107887882D01*
X143227850Y-107997150D01*
X143337118Y-108077793D01*
X143379845Y-108092744D01*
X143465299Y-108122646D01*
X143495730Y-108125500D01*
X143495734Y-108125500D01*
X144075500Y-108125500D01*
X144142539Y-108145185D01*
X144188294Y-108197989D01*
X144199500Y-108249500D01*
X144199500Y-113825500D01*
X144179815Y-113892539D01*
X144127011Y-113938294D01*
X144075500Y-113949500D01*
X144072475Y-113949500D01*
X143927525Y-113949500D01*
X143800502Y-113983536D01*
X143787511Y-113987017D01*
X143661988Y-114059488D01*
X143661982Y-114059493D01*
X143559493Y-114161982D01*
X143559488Y-114161988D01*
X143487017Y-114287511D01*
X143487016Y-114287515D01*
X143449500Y-114427525D01*
X143449500Y-114572475D01*
X143484309Y-114702382D01*
X143487017Y-114712488D01*
X143559488Y-114838011D01*
X143559490Y-114838013D01*
X143559491Y-114838015D01*
X143661985Y-114940509D01*
X143661986Y-114940510D01*
X143661988Y-114940511D01*
X143787511Y-115012982D01*
X143787512Y-115012982D01*
X143787515Y-115012984D01*
X143927525Y-115050500D01*
X143927528Y-115050500D01*
X144072473Y-115050500D01*
X144072475Y-115050500D01*
X144112168Y-115039864D01*
X144133867Y-115040380D01*
X144155151Y-115036117D01*
X144168105Y-115041194D01*
X144182017Y-115041525D01*
X144199993Y-115053691D01*
X144220203Y-115061612D01*
X144232483Y-115075680D01*
X144239880Y-115080687D01*
X144244744Y-115086978D01*
X144248464Y-115092122D01*
X144279520Y-115145913D01*
X144307838Y-115174231D01*
X144313636Y-115182249D01*
X144316755Y-115191053D01*
X144327715Y-115207456D01*
X144379223Y-115331807D01*
X144379228Y-115331817D01*
X144455885Y-115446541D01*
X144455888Y-115446545D01*
X144553454Y-115544111D01*
X144553458Y-115544114D01*
X144668182Y-115620771D01*
X144668195Y-115620778D01*
X144732011Y-115647211D01*
X144795672Y-115673580D01*
X144795676Y-115673580D01*
X144795677Y-115673581D01*
X144931004Y-115700500D01*
X144931007Y-115700500D01*
X145068995Y-115700500D01*
X145160041Y-115682389D01*
X145204328Y-115673580D01*
X145331811Y-115620775D01*
X145446542Y-115544114D01*
X145544114Y-115446542D01*
X145620775Y-115331811D01*
X145673580Y-115204328D01*
X145686093Y-115141421D01*
X145700500Y-115068995D01*
X145700500Y-114931004D01*
X145698550Y-114921202D01*
X147700000Y-114921202D01*
X147700000Y-115078797D01*
X147730741Y-115233343D01*
X147730743Y-115233351D01*
X147791048Y-115378940D01*
X147809941Y-115407215D01*
X148217157Y-115000000D01*
X148217157Y-114999999D01*
X147809941Y-114592782D01*
X147791048Y-114621059D01*
X147730743Y-114766648D01*
X147730741Y-114766656D01*
X147700000Y-114921202D01*
X145698550Y-114921202D01*
X145673581Y-114795677D01*
X145673580Y-114795676D01*
X145673580Y-114795672D01*
X145671045Y-114789552D01*
X145620778Y-114668195D01*
X145620771Y-114668182D01*
X145544114Y-114553458D01*
X145544111Y-114553454D01*
X145446545Y-114455888D01*
X145446541Y-114455885D01*
X145331817Y-114379228D01*
X145331804Y-114379221D01*
X145204332Y-114326421D01*
X145204322Y-114326418D01*
X145100308Y-114305728D01*
X145038397Y-114273343D01*
X145003823Y-114212627D01*
X145000500Y-114184111D01*
X145000500Y-109854196D01*
X145455001Y-109854196D01*
X145457851Y-109884606D01*
X145502653Y-110012645D01*
X145583207Y-110121792D01*
X145692354Y-110202346D01*
X145820397Y-110247149D01*
X145850793Y-110249999D01*
X145854999Y-110249999D01*
X146255000Y-110249999D01*
X146259196Y-110249999D01*
X146289606Y-110247148D01*
X146417645Y-110202346D01*
X146526792Y-110121792D01*
X146607346Y-110012645D01*
X146607347Y-110012643D01*
X146626712Y-109957300D01*
X146667433Y-109900523D01*
X146732385Y-109874775D01*
X146800947Y-109888231D01*
X146851351Y-109936617D01*
X146855155Y-109943793D01*
X146885803Y-110006485D01*
X146968514Y-110089196D01*
X146968515Y-110089196D01*
X146968517Y-110089198D01*
X147073607Y-110140573D01*
X147107673Y-110145536D01*
X147141739Y-110150500D01*
X147141740Y-110150500D01*
X147508261Y-110150500D01*
X147530971Y-110147191D01*
X147576393Y-110140573D01*
X147681483Y-110089198D01*
X147764198Y-110006483D01*
X147815573Y-109901393D01*
X147825500Y-109833260D01*
X147825500Y-108116740D01*
X147815573Y-108048607D01*
X147764198Y-107943517D01*
X147764196Y-107943515D01*
X147764196Y-107943514D01*
X147681485Y-107860803D01*
X147674006Y-107857147D01*
X147576393Y-107809427D01*
X147576391Y-107809426D01*
X147508261Y-107799500D01*
X147508260Y-107799500D01*
X147141740Y-107799500D01*
X147141739Y-107799500D01*
X147073608Y-107809426D01*
X146968514Y-107860803D01*
X146885802Y-107943515D01*
X146855154Y-108006207D01*
X146808026Y-108057789D01*
X146740492Y-108075703D01*
X146673993Y-108054262D01*
X146629644Y-108000272D01*
X146626712Y-107992700D01*
X146607346Y-107937354D01*
X146526792Y-107828207D01*
X146417645Y-107747653D01*
X146289602Y-107702850D01*
X146259207Y-107700000D01*
X146255000Y-107700000D01*
X146255000Y-110249999D01*
X145854999Y-110249999D01*
X145855000Y-110249998D01*
X145855000Y-109175000D01*
X145455001Y-109175000D01*
X145455001Y-109854196D01*
X145000500Y-109854196D01*
X145000500Y-107748672D01*
X145002617Y-107725858D01*
X145002636Y-107725756D01*
X145003365Y-107721862D01*
X145003364Y-107721854D01*
X145003745Y-107714846D01*
X145027027Y-107648969D01*
X145082229Y-107606138D01*
X145151824Y-107599951D01*
X145179752Y-107610471D01*
X145180001Y-107609872D01*
X145187510Y-107612982D01*
X145187512Y-107612982D01*
X145187515Y-107612984D01*
X145327525Y-107650500D01*
X145327528Y-107650500D01*
X145468732Y-107650500D01*
X145535771Y-107670185D01*
X145581526Y-107722989D01*
X145591470Y-107792147D01*
X145568502Y-107848134D01*
X145502653Y-107937354D01*
X145457850Y-108065395D01*
X145457850Y-108065399D01*
X145455000Y-108095793D01*
X145455000Y-108775000D01*
X145855000Y-108775000D01*
X145855000Y-107712233D01*
X145805539Y-107676697D01*
X145785967Y-107651592D01*
X145765107Y-107627529D01*
X145764631Y-107624225D01*
X145762580Y-107621594D01*
X145759688Y-107589895D01*
X145755149Y-107558373D01*
X145756535Y-107555336D01*
X145756232Y-107552014D01*
X145770937Y-107523781D01*
X145784161Y-107494811D01*
X145788399Y-107490257D01*
X145788510Y-107490046D01*
X145788695Y-107489939D01*
X145790197Y-107488326D01*
X145840509Y-107438015D01*
X145912984Y-107312485D01*
X145950500Y-107172475D01*
X145950500Y-107027525D01*
X145912984Y-106887515D01*
X145910964Y-106884017D01*
X145840511Y-106761988D01*
X145840506Y-106761982D01*
X145738017Y-106659493D01*
X145738011Y-106659488D01*
X145612488Y-106587017D01*
X145612489Y-106587017D01*
X145579158Y-106578086D01*
X145472475Y-106549500D01*
X145327525Y-106549500D01*
X145220842Y-106578086D01*
X145187511Y-106587017D01*
X145061988Y-106659488D01*
X145061982Y-106659493D01*
X145058295Y-106663181D01*
X144996972Y-106696666D01*
X144970614Y-106699500D01*
X144547271Y-106699500D01*
X144543219Y-106700033D01*
X144515472Y-106700550D01*
X144504266Y-106699500D01*
X143495734Y-106699500D01*
X143495730Y-106699500D01*
X143465300Y-106702353D01*
X143465298Y-106702353D01*
X143337119Y-106747206D01*
X143337117Y-106747207D01*
X143227850Y-106827850D01*
X143147207Y-106937117D01*
X143147206Y-106937119D01*
X143102353Y-107065298D01*
X143102353Y-107065300D01*
X143099500Y-107095730D01*
X142125500Y-107095730D01*
X142125500Y-105886189D01*
X142145185Y-105819150D01*
X142161819Y-105798508D01*
X142541685Y-105418642D01*
X142923992Y-105036334D01*
X142985313Y-105002851D01*
X143055004Y-105007835D01*
X143110938Y-105049707D01*
X143135355Y-105115171D01*
X143128712Y-105164972D01*
X143102354Y-105240298D01*
X143102353Y-105240300D01*
X143099500Y-105270730D01*
X143099500Y-105904269D01*
X143102353Y-105934699D01*
X143102353Y-105934701D01*
X143147206Y-106062880D01*
X143147207Y-106062882D01*
X143227850Y-106172150D01*
X143337118Y-106252793D01*
X143379845Y-106267744D01*
X143465299Y-106297646D01*
X143495730Y-106300500D01*
X143495734Y-106300500D01*
X144504270Y-106300500D01*
X144534699Y-106297646D01*
X144534701Y-106297646D01*
X144598790Y-106275219D01*
X144662882Y-106252793D01*
X144772150Y-106172150D01*
X144823097Y-106103117D01*
X144878743Y-106060869D01*
X144948399Y-106055410D01*
X145009948Y-106088477D01*
X145010546Y-106089071D01*
X145043452Y-106121976D01*
X145061985Y-106140509D01*
X145061987Y-106140510D01*
X145061988Y-106140511D01*
X145187511Y-106212982D01*
X145187512Y-106212982D01*
X145187515Y-106212984D01*
X145327525Y-106250500D01*
X145327528Y-106250500D01*
X145472472Y-106250500D01*
X145472475Y-106250500D01*
X145612485Y-106212984D01*
X145738015Y-106140509D01*
X145840509Y-106038015D01*
X145912984Y-105912485D01*
X145950500Y-105772475D01*
X145950500Y-105627525D01*
X145912984Y-105487515D01*
X145912218Y-105486189D01*
X145854663Y-105386500D01*
X145853231Y-105380598D01*
X145849256Y-105376011D01*
X145845091Y-105347046D01*
X145838190Y-105318600D01*
X145840175Y-105312861D01*
X145839312Y-105306853D01*
X145851468Y-105280233D01*
X145861042Y-105252573D01*
X145865814Y-105248819D01*
X145868337Y-105243297D01*
X145892958Y-105227474D01*
X145915963Y-105209383D01*
X145923313Y-105207966D01*
X145927115Y-105205523D01*
X145962050Y-105200500D01*
X145988811Y-105200500D01*
X146055850Y-105220185D01*
X146076492Y-105236819D01*
X146238181Y-105398508D01*
X146271666Y-105459831D01*
X146274500Y-105486189D01*
X146274500Y-105542853D01*
X146279048Y-105559827D01*
X146296682Y-105625640D01*
X146314872Y-105657145D01*
X146339535Y-105699862D01*
X146339537Y-105699864D01*
X148291656Y-107651983D01*
X148325141Y-107713306D01*
X148320157Y-107782998D01*
X148278285Y-107838931D01*
X148258437Y-107851063D01*
X148251846Y-107854286D01*
X148238514Y-107860803D01*
X148155803Y-107943514D01*
X148104426Y-108048608D01*
X148094500Y-108116739D01*
X148094500Y-109566178D01*
X148090275Y-109598271D01*
X148085564Y-109615853D01*
X148085534Y-109615965D01*
X148074536Y-109656855D01*
X148074500Y-109657140D01*
X148074500Y-109699810D01*
X148074451Y-109750213D01*
X148074500Y-109750956D01*
X148074500Y-112995613D01*
X148054815Y-113062652D01*
X148038182Y-113083294D01*
X147959488Y-113161988D01*
X147887017Y-113287511D01*
X147887016Y-113287515D01*
X147849500Y-113427525D01*
X147849500Y-113572475D01*
X147874500Y-113665775D01*
X147887017Y-113712488D01*
X147959488Y-113838011D01*
X147959490Y-113838013D01*
X147959491Y-113838015D01*
X148061985Y-113940509D01*
X148061986Y-113940510D01*
X148061988Y-113940511D01*
X148187509Y-114012981D01*
X148187510Y-114012981D01*
X148187515Y-114012984D01*
X148201941Y-114016849D01*
X148261598Y-114053211D01*
X148292129Y-114116057D01*
X148283835Y-114185433D01*
X148239351Y-114239312D01*
X148217300Y-114251184D01*
X148121057Y-114291049D01*
X148092782Y-114309941D01*
X148500000Y-114717157D01*
X148500001Y-114717157D01*
X148907215Y-114309941D01*
X148907215Y-114309940D01*
X148878940Y-114291048D01*
X148733351Y-114230743D01*
X148733345Y-114230741D01*
X148686062Y-114221336D01*
X148624151Y-114188951D01*
X148589577Y-114128235D01*
X148593318Y-114058465D01*
X148634184Y-114001794D01*
X148648246Y-113992336D01*
X148738015Y-113940509D01*
X148840509Y-113838015D01*
X148912984Y-113712485D01*
X148950500Y-113572475D01*
X148950500Y-113427525D01*
X148912984Y-113287515D01*
X148840509Y-113161985D01*
X148761818Y-113083294D01*
X148728334Y-113021970D01*
X148725500Y-112995613D01*
X148725500Y-110265429D01*
X148745185Y-110198390D01*
X148797989Y-110152635D01*
X148831618Y-110142725D01*
X148846393Y-110140573D01*
X148951483Y-110089198D01*
X149034198Y-110006483D01*
X149085573Y-109901393D01*
X149095500Y-109833260D01*
X149095500Y-108116740D01*
X149085573Y-108048607D01*
X149063746Y-108003960D01*
X149063461Y-108002290D01*
X149062353Y-108001011D01*
X149057605Y-107967991D01*
X149051987Y-107935088D01*
X149052649Y-107933528D01*
X149052409Y-107931853D01*
X149066266Y-107901509D01*
X149079330Y-107870790D01*
X149080730Y-107869836D01*
X149081434Y-107868297D01*
X149109504Y-107850257D01*
X149137095Y-107831483D01*
X149139243Y-107831145D01*
X149140212Y-107830523D01*
X149175147Y-107825500D01*
X149284853Y-107825500D01*
X149351892Y-107845185D01*
X149397647Y-107897989D01*
X149407591Y-107967147D01*
X149396253Y-108003961D01*
X149374426Y-108048607D01*
X149364500Y-108116739D01*
X149364500Y-109833260D01*
X149374426Y-109901391D01*
X149374427Y-109901393D01*
X149425802Y-110006483D01*
X149425803Y-110006484D01*
X149438179Y-110018860D01*
X149471666Y-110080182D01*
X149474500Y-110106543D01*
X149474500Y-114638759D01*
X149454815Y-114705798D01*
X149402011Y-114751553D01*
X149332853Y-114761497D01*
X149269297Y-114732472D01*
X149235939Y-114686212D01*
X149208952Y-114621060D01*
X149190058Y-114592783D01*
X148641421Y-115141421D01*
X148053273Y-115729567D01*
X148026602Y-115757705D01*
X147964287Y-115774500D01*
X147957147Y-115774500D01*
X147874359Y-115796682D01*
X147800138Y-115839535D01*
X147800135Y-115839537D01*
X132339537Y-131300135D01*
X132339535Y-131300138D01*
X132296682Y-131374361D01*
X132279626Y-131438015D01*
X132277575Y-131445667D01*
X132274500Y-131457144D01*
X132274500Y-131479291D01*
X132254815Y-131546330D01*
X132202011Y-131592085D01*
X132138925Y-131602750D01*
X132120883Y-131601058D01*
X132104265Y-131599500D01*
X132104261Y-131599500D01*
X131552479Y-131599500D01*
X131520387Y-131595275D01*
X131442853Y-131574500D01*
X131442852Y-131574500D01*
X128608118Y-131574500D01*
X128573417Y-131572769D01*
X128565373Y-131574500D01*
X128557147Y-131574500D01*
X128526586Y-131582688D01*
X128524369Y-131583260D01*
X128522459Y-131583734D01*
X128489629Y-131590799D01*
X128485527Y-131592901D01*
X128473658Y-131595848D01*
X128466606Y-131595549D01*
X128443784Y-131599500D01*
X127895730Y-131599500D01*
X127865300Y-131602353D01*
X127865298Y-131602353D01*
X127737119Y-131647206D01*
X127737117Y-131647207D01*
X127627850Y-131727850D01*
X127547207Y-131837117D01*
X127547206Y-131837119D01*
X127502353Y-131965298D01*
X127502353Y-131965300D01*
X127499500Y-131995730D01*
X127100500Y-131995730D01*
X127097646Y-131965300D01*
X127097646Y-131965298D01*
X127052793Y-131837119D01*
X127052792Y-131837117D01*
X127024729Y-131799093D01*
X126972150Y-131727850D01*
X126862882Y-131647207D01*
X126862880Y-131647206D01*
X126734700Y-131602353D01*
X126704270Y-131599500D01*
X126704266Y-131599500D01*
X126449500Y-131599500D01*
X126382461Y-131579815D01*
X126336706Y-131527011D01*
X126325500Y-131475500D01*
X126325500Y-127219973D01*
X126334531Y-127189213D01*
X126342070Y-127158047D01*
X126344465Y-127155385D01*
X126345185Y-127152934D01*
X126349518Y-127147682D01*
X131300000Y-127147682D01*
X131300000Y-127352317D01*
X131332009Y-127554417D01*
X131395244Y-127749031D01*
X131488139Y-127931347D01*
X131550279Y-128016876D01*
X132019668Y-127547487D01*
X132023978Y-127557890D01*
X132095112Y-127664351D01*
X132185649Y-127754888D01*
X132292110Y-127826022D01*
X132302510Y-127830330D01*
X131833121Y-128299719D01*
X131833122Y-128299720D01*
X131918640Y-128361852D01*
X131918649Y-128361858D01*
X132100968Y-128454755D01*
X132295582Y-128517990D01*
X132497683Y-128550000D01*
X132702317Y-128550000D01*
X132904417Y-128517990D01*
X133099031Y-128454755D01*
X133281349Y-128361859D01*
X133366876Y-128299719D01*
X133366877Y-128299718D01*
X132897489Y-127830330D01*
X132907890Y-127826022D01*
X133014351Y-127754888D01*
X133104888Y-127664351D01*
X133176022Y-127557890D01*
X133180330Y-127547488D01*
X133649718Y-128016877D01*
X133649719Y-128016876D01*
X133711859Y-127931349D01*
X133804755Y-127749031D01*
X133867990Y-127554417D01*
X133900000Y-127352317D01*
X133900000Y-127147682D01*
X133867990Y-126945582D01*
X133804755Y-126750968D01*
X133711858Y-126568649D01*
X133711852Y-126568640D01*
X133649720Y-126483122D01*
X133649719Y-126483121D01*
X133180330Y-126952510D01*
X133176022Y-126942110D01*
X133104888Y-126835649D01*
X133014351Y-126745112D01*
X132907890Y-126673978D01*
X132897487Y-126669669D01*
X133366876Y-126200279D01*
X133281347Y-126138139D01*
X133099031Y-126045244D01*
X132904417Y-125982009D01*
X132702317Y-125950000D01*
X132497683Y-125950000D01*
X132295582Y-125982009D01*
X132100968Y-126045244D01*
X131918648Y-126138141D01*
X131833122Y-126200278D01*
X131833122Y-126200279D01*
X132302512Y-126669669D01*
X132292110Y-126673978D01*
X132185649Y-126745112D01*
X132095112Y-126835649D01*
X132023978Y-126942110D01*
X132019669Y-126952512D01*
X131550279Y-126483122D01*
X131550278Y-126483122D01*
X131488141Y-126568648D01*
X131395244Y-126750968D01*
X131332009Y-126945582D01*
X131300000Y-127147682D01*
X126349518Y-127147682D01*
X126363869Y-127130289D01*
X126369884Y-127124545D01*
X126382073Y-127115690D01*
X126515690Y-126982073D01*
X126626760Y-126829199D01*
X126712547Y-126660832D01*
X126770940Y-126481118D01*
X126782066Y-126410870D01*
X126800500Y-126294486D01*
X126800500Y-126105513D01*
X126770940Y-125918881D01*
X126712545Y-125739163D01*
X126626759Y-125570800D01*
X126515690Y-125417927D01*
X126382073Y-125284310D01*
X126229199Y-125173240D01*
X126060836Y-125087454D01*
X125881118Y-125029059D01*
X125694486Y-124999500D01*
X125694481Y-124999500D01*
X125505519Y-124999500D01*
X125505514Y-124999500D01*
X125318881Y-125029059D01*
X125139163Y-125087454D01*
X124970800Y-125173240D01*
X124907614Y-125219148D01*
X124817927Y-125284310D01*
X124817925Y-125284312D01*
X124817924Y-125284312D01*
X124684312Y-125417924D01*
X124684312Y-125417925D01*
X124684310Y-125417927D01*
X124636610Y-125483579D01*
X124573240Y-125570800D01*
X124487454Y-125739163D01*
X124429059Y-125918881D01*
X124399500Y-126105513D01*
X113217315Y-126105513D01*
X113099031Y-126045244D01*
X112904417Y-125982009D01*
X112702317Y-125950000D01*
X112497683Y-125950000D01*
X112295582Y-125982009D01*
X112100968Y-126045244D01*
X111918648Y-126138141D01*
X111833122Y-126200278D01*
X111833122Y-126200279D01*
X112302512Y-126669669D01*
X112292110Y-126673978D01*
X112185649Y-126745112D01*
X112095112Y-126835649D01*
X112023978Y-126942110D01*
X112019669Y-126952512D01*
X111550279Y-126483122D01*
X111550278Y-126483122D01*
X111488141Y-126568648D01*
X111395244Y-126750968D01*
X111332009Y-126945582D01*
X111300000Y-127147682D01*
X106338040Y-127147682D01*
X106382073Y-127115690D01*
X106515690Y-126982073D01*
X106626760Y-126829199D01*
X106712547Y-126660832D01*
X106770940Y-126481118D01*
X106782066Y-126410870D01*
X106800500Y-126294486D01*
X106800500Y-126105513D01*
X106770940Y-125918881D01*
X106712545Y-125739163D01*
X106626759Y-125570800D01*
X106515690Y-125417927D01*
X106382073Y-125284310D01*
X106376610Y-125280341D01*
X106333947Y-125225010D01*
X106325500Y-125180026D01*
X106325500Y-121336824D01*
X107094500Y-121336824D01*
X107094500Y-121663175D01*
X107131035Y-121987441D01*
X107131037Y-121987453D01*
X107131038Y-121987456D01*
X107145313Y-122050000D01*
X107203655Y-122305612D01*
X107203656Y-122305614D01*
X107311438Y-122613640D01*
X107453030Y-122907657D01*
X107475145Y-122942853D01*
X107626654Y-123183979D01*
X107830123Y-123439121D01*
X108060879Y-123669877D01*
X108316021Y-123873346D01*
X108592340Y-124046968D01*
X108886361Y-124188562D01*
X109194387Y-124296344D01*
X109512544Y-124368962D01*
X109512553Y-124368963D01*
X109512558Y-124368964D01*
X109728735Y-124393320D01*
X109836825Y-124405499D01*
X109836828Y-124405500D01*
X109836831Y-124405500D01*
X110163172Y-124405500D01*
X110163173Y-124405499D01*
X110328900Y-124386826D01*
X110487441Y-124368964D01*
X110487444Y-124368963D01*
X110487456Y-124368962D01*
X110805613Y-124296344D01*
X111113639Y-124188562D01*
X111407660Y-124046968D01*
X111683979Y-123873346D01*
X111939121Y-123669877D01*
X112169877Y-123439121D01*
X112373346Y-123183979D01*
X112546968Y-122907660D01*
X112688562Y-122613639D01*
X112796344Y-122305613D01*
X112868962Y-121987456D01*
X112869361Y-121983920D01*
X112905499Y-121663175D01*
X112905500Y-121663171D01*
X112905500Y-121336828D01*
X112905499Y-121336824D01*
X127094500Y-121336824D01*
X127094500Y-121663175D01*
X127131035Y-121987441D01*
X127131037Y-121987453D01*
X127131038Y-121987456D01*
X127145313Y-122050000D01*
X127203655Y-122305612D01*
X127203656Y-122305614D01*
X127311438Y-122613640D01*
X127453030Y-122907657D01*
X127475145Y-122942853D01*
X127626654Y-123183979D01*
X127830123Y-123439121D01*
X128060879Y-123669877D01*
X128316021Y-123873346D01*
X128592340Y-124046968D01*
X128886361Y-124188562D01*
X129194387Y-124296344D01*
X129512544Y-124368962D01*
X129512553Y-124368963D01*
X129512558Y-124368964D01*
X129728735Y-124393320D01*
X129836825Y-124405499D01*
X129836828Y-124405500D01*
X129836831Y-124405500D01*
X130163172Y-124405500D01*
X130163173Y-124405499D01*
X130328900Y-124386826D01*
X130487441Y-124368964D01*
X130487444Y-124368963D01*
X130487456Y-124368962D01*
X130805613Y-124296344D01*
X131113639Y-124188562D01*
X131407660Y-124046968D01*
X131683979Y-123873346D01*
X131939121Y-123669877D01*
X132169877Y-123439121D01*
X132373346Y-123183979D01*
X132546968Y-122907660D01*
X132688562Y-122613639D01*
X132796344Y-122305613D01*
X132868962Y-121987456D01*
X132869361Y-121983920D01*
X132905499Y-121663175D01*
X132905500Y-121663171D01*
X132905500Y-121336828D01*
X132905499Y-121336824D01*
X132868964Y-121012558D01*
X132868963Y-121012553D01*
X132868962Y-121012544D01*
X132796344Y-120694387D01*
X132688562Y-120386361D01*
X132546968Y-120092340D01*
X132373346Y-119816021D01*
X132169877Y-119560879D01*
X131939121Y-119330123D01*
X131683979Y-119126654D01*
X131407660Y-118953032D01*
X131407657Y-118953030D01*
X131113640Y-118811438D01*
X130805614Y-118703656D01*
X130805612Y-118703655D01*
X130560073Y-118647612D01*
X130487456Y-118631038D01*
X130487453Y-118631037D01*
X130487441Y-118631035D01*
X130163175Y-118594500D01*
X130163169Y-118594500D01*
X129836831Y-118594500D01*
X129836824Y-118594500D01*
X129512558Y-118631035D01*
X129512544Y-118631038D01*
X129194387Y-118703655D01*
X129194385Y-118703656D01*
X128886359Y-118811438D01*
X128592342Y-118953030D01*
X128316022Y-119126653D01*
X128060879Y-119330122D01*
X127830122Y-119560879D01*
X127626653Y-119816022D01*
X127453030Y-120092342D01*
X127311438Y-120386359D01*
X127203656Y-120694385D01*
X127203655Y-120694387D01*
X127131038Y-121012544D01*
X127131035Y-121012558D01*
X127094500Y-121336824D01*
X112905499Y-121336824D01*
X112868964Y-121012558D01*
X112868963Y-121012553D01*
X112868962Y-121012544D01*
X112796344Y-120694387D01*
X112688562Y-120386361D01*
X112546968Y-120092340D01*
X112373346Y-119816021D01*
X112169877Y-119560879D01*
X111939121Y-119330123D01*
X111683979Y-119126654D01*
X111407660Y-118953032D01*
X111407657Y-118953030D01*
X111113640Y-118811438D01*
X110805614Y-118703656D01*
X110805612Y-118703655D01*
X110560073Y-118647612D01*
X110487456Y-118631038D01*
X110487453Y-118631037D01*
X110487441Y-118631035D01*
X110163175Y-118594500D01*
X110163169Y-118594500D01*
X109836831Y-118594500D01*
X109836824Y-118594500D01*
X109512558Y-118631035D01*
X109512544Y-118631038D01*
X109194387Y-118703655D01*
X109194385Y-118703656D01*
X108886359Y-118811438D01*
X108592342Y-118953030D01*
X108316022Y-119126653D01*
X108060879Y-119330122D01*
X107830122Y-119560879D01*
X107626653Y-119816022D01*
X107453030Y-120092342D01*
X107311438Y-120386359D01*
X107203656Y-120694385D01*
X107203655Y-120694387D01*
X107131038Y-121012544D01*
X107131035Y-121012558D01*
X107094500Y-121336824D01*
X106325500Y-121336824D01*
X106325500Y-116524500D01*
X106345185Y-116457461D01*
X106397989Y-116411706D01*
X106449500Y-116400500D01*
X106704270Y-116400500D01*
X106734699Y-116397646D01*
X106734701Y-116397646D01*
X106798790Y-116375219D01*
X106862882Y-116352793D01*
X106972150Y-116272150D01*
X107052793Y-116162882D01*
X107089791Y-116057148D01*
X107097646Y-116034701D01*
X107097646Y-116034699D01*
X107100500Y-116004269D01*
X107100500Y-114995730D01*
X107499500Y-114995730D01*
X107499500Y-116004269D01*
X107502353Y-116034699D01*
X107502353Y-116034701D01*
X107547206Y-116162880D01*
X107547207Y-116162882D01*
X107627850Y-116272150D01*
X107737118Y-116352793D01*
X107779845Y-116367744D01*
X107865299Y-116397646D01*
X107895730Y-116400500D01*
X107895734Y-116400500D01*
X108529270Y-116400500D01*
X108559699Y-116397646D01*
X108559701Y-116397646D01*
X108623790Y-116375219D01*
X108687882Y-116352793D01*
X108797150Y-116272150D01*
X108877793Y-116162882D01*
X108914791Y-116057148D01*
X108922646Y-116034701D01*
X108922646Y-116034699D01*
X108925500Y-116004269D01*
X108925500Y-114995733D01*
X108924573Y-114985850D01*
X108923904Y-114978722D01*
X108923453Y-114962420D01*
X108923984Y-114948505D01*
X108925500Y-114942853D01*
X108925500Y-114908831D01*
X108925590Y-114906475D01*
X108925620Y-114906384D01*
X108925654Y-114905030D01*
X108927231Y-114873418D01*
X108926573Y-114865318D01*
X108926894Y-114865291D01*
X108925500Y-114852182D01*
X108925500Y-114484993D01*
X108945185Y-114417954D01*
X108997989Y-114372199D01*
X109067147Y-114362255D01*
X109124806Y-114388587D01*
X109125677Y-114387440D01*
X109252904Y-114483920D01*
X109393556Y-114539386D01*
X109481946Y-114550000D01*
X109800000Y-114550000D01*
X109800000Y-112950000D01*
X109481946Y-112950000D01*
X109393556Y-112960613D01*
X109298391Y-112998142D01*
X109228804Y-113004423D01*
X109166868Y-112972086D01*
X109132247Y-112911397D01*
X109135932Y-112841624D01*
X109165219Y-112795107D01*
X109373830Y-112586495D01*
X109435151Y-112553012D01*
X109467805Y-112551067D01*
X109467838Y-112550365D01*
X109470723Y-112550500D01*
X109470734Y-112550500D01*
X110529277Y-112550500D01*
X110532162Y-112550365D01*
X110532227Y-112551755D01*
X110595494Y-112564058D01*
X110626171Y-112586498D01*
X110834778Y-112795105D01*
X110868263Y-112856428D01*
X110863279Y-112926120D01*
X110821407Y-112982053D01*
X110755943Y-113006470D01*
X110701608Y-112998141D01*
X110606444Y-112960614D01*
X110518054Y-112950000D01*
X110200000Y-112950000D01*
X110200000Y-114550000D01*
X110518054Y-114550000D01*
X110606443Y-114539386D01*
X110747095Y-114483920D01*
X110874323Y-114387440D01*
X110876248Y-114389978D01*
X110924142Y-114363827D01*
X110993834Y-114368811D01*
X111049767Y-114410683D01*
X111074184Y-114476147D01*
X111074500Y-114484993D01*
X111074500Y-114942851D01*
X111075561Y-114950909D01*
X111073880Y-114951130D01*
X111076095Y-114978724D01*
X111074500Y-114995733D01*
X111074500Y-116004269D01*
X111077353Y-116034699D01*
X111077353Y-116034701D01*
X111122206Y-116162880D01*
X111122207Y-116162882D01*
X111202850Y-116272150D01*
X111312118Y-116352793D01*
X111354845Y-116367744D01*
X111440299Y-116397646D01*
X111470730Y-116400500D01*
X111470734Y-116400500D01*
X112104270Y-116400500D01*
X112134699Y-116397646D01*
X112134701Y-116397646D01*
X112198790Y-116375219D01*
X112262882Y-116352793D01*
X112372150Y-116272150D01*
X112452793Y-116162882D01*
X112489791Y-116057148D01*
X112497646Y-116034701D01*
X112497646Y-116034699D01*
X112500500Y-116004269D01*
X112500500Y-114995730D01*
X112899500Y-114995730D01*
X112899500Y-116004269D01*
X112902353Y-116034699D01*
X112902353Y-116034701D01*
X112947206Y-116162880D01*
X112947207Y-116162882D01*
X113027850Y-116272150D01*
X113137118Y-116352793D01*
X113179845Y-116367744D01*
X113265299Y-116397646D01*
X113295730Y-116400500D01*
X113295734Y-116400500D01*
X113929270Y-116400500D01*
X113959699Y-116397646D01*
X113959701Y-116397646D01*
X114023790Y-116375219D01*
X114087882Y-116352793D01*
X114197150Y-116272150D01*
X114277793Y-116162882D01*
X114314791Y-116057148D01*
X114322646Y-116034701D01*
X114322646Y-116034699D01*
X114325500Y-116004269D01*
X114325500Y-115392255D01*
X114345185Y-115325216D01*
X114361819Y-115304574D01*
X114579574Y-115086819D01*
X114640897Y-115053334D01*
X114667255Y-115050500D01*
X114672472Y-115050500D01*
X114672475Y-115050500D01*
X114812485Y-115012984D01*
X114938015Y-114940509D01*
X115040509Y-114838015D01*
X115112984Y-114712485D01*
X115150500Y-114572475D01*
X115150500Y-114427525D01*
X115112984Y-114287515D01*
X115108538Y-114279815D01*
X115040511Y-114161988D01*
X115040506Y-114161982D01*
X114938017Y-114059493D01*
X114938011Y-114059488D01*
X114812488Y-113987017D01*
X114812489Y-113987017D01*
X114799498Y-113983536D01*
X114672475Y-113949500D01*
X114527525Y-113949500D01*
X114400502Y-113983536D01*
X114387511Y-113987017D01*
X114261988Y-114059488D01*
X114261982Y-114059493D01*
X114159493Y-114161982D01*
X114159488Y-114161988D01*
X114087017Y-114287511D01*
X114087016Y-114287515D01*
X114049500Y-114427525D01*
X114049500Y-114427527D01*
X114049500Y-114432743D01*
X114040855Y-114462183D01*
X114034332Y-114492170D01*
X114030577Y-114497185D01*
X114029815Y-114499782D01*
X114013181Y-114520424D01*
X113970424Y-114563181D01*
X113909101Y-114596666D01*
X113882743Y-114599500D01*
X113295730Y-114599500D01*
X113265300Y-114602353D01*
X113265298Y-114602353D01*
X113137119Y-114647206D01*
X113137117Y-114647207D01*
X113027850Y-114727850D01*
X112947207Y-114837117D01*
X112947206Y-114837119D01*
X112902353Y-114965298D01*
X112902353Y-114965300D01*
X112899500Y-114995730D01*
X112500500Y-114995730D01*
X112497646Y-114965300D01*
X112497646Y-114965298D01*
X112460775Y-114859929D01*
X112452793Y-114837118D01*
X112372150Y-114727850D01*
X112262882Y-114647207D01*
X112262880Y-114647206D01*
X112134700Y-114602353D01*
X112104270Y-114599500D01*
X112104266Y-114599500D01*
X111849500Y-114599500D01*
X111782461Y-114579815D01*
X111736706Y-114527011D01*
X111725500Y-114475500D01*
X111725500Y-114131439D01*
X111745185Y-114064400D01*
X111797989Y-114018645D01*
X111804992Y-114016128D01*
X111804978Y-114016093D01*
X111812476Y-114012986D01*
X111812485Y-114012984D01*
X111938015Y-113940509D01*
X112040509Y-113838015D01*
X112112984Y-113712485D01*
X112150500Y-113572475D01*
X112150500Y-113427525D01*
X112112984Y-113287515D01*
X112040509Y-113161985D01*
X111938015Y-113059491D01*
X111938013Y-113059490D01*
X111938011Y-113059488D01*
X111812488Y-112987017D01*
X111804981Y-112983908D01*
X111806021Y-112981396D01*
X111757741Y-112951965D01*
X111728001Y-112893340D01*
X111725500Y-112881077D01*
X111725500Y-112857147D01*
X111703318Y-112774362D01*
X111703318Y-112774361D01*
X111660465Y-112700138D01*
X110961819Y-112001492D01*
X110928334Y-111940169D01*
X110925500Y-111913811D01*
X110925500Y-111545730D01*
X110922646Y-111515300D01*
X110922646Y-111515298D01*
X110877793Y-111387119D01*
X110877792Y-111387117D01*
X110877233Y-111386359D01*
X110797150Y-111277850D01*
X110687882Y-111197207D01*
X110687880Y-111197206D01*
X110559700Y-111152353D01*
X110529270Y-111149500D01*
X110529266Y-111149500D01*
X109470734Y-111149500D01*
X109470730Y-111149500D01*
X109440300Y-111152353D01*
X109440298Y-111152353D01*
X109312119Y-111197206D01*
X109312117Y-111197207D01*
X109202850Y-111277850D01*
X109122207Y-111387117D01*
X109122206Y-111387119D01*
X109077353Y-111515298D01*
X109077353Y-111515300D01*
X109074500Y-111545730D01*
X109074500Y-111913811D01*
X109054815Y-111980850D01*
X109038181Y-112001492D01*
X108339537Y-112700135D01*
X108339533Y-112700141D01*
X108296682Y-112774359D01*
X108294933Y-112780888D01*
X108279626Y-112838015D01*
X108274500Y-112857147D01*
X108274500Y-114475500D01*
X108254815Y-114542539D01*
X108202011Y-114588294D01*
X108150500Y-114599500D01*
X107895730Y-114599500D01*
X107865300Y-114602353D01*
X107865298Y-114602353D01*
X107737119Y-114647206D01*
X107737117Y-114647207D01*
X107627850Y-114727850D01*
X107547207Y-114837117D01*
X107547206Y-114837119D01*
X107502353Y-114965298D01*
X107502353Y-114965300D01*
X107499500Y-114995730D01*
X107100500Y-114995730D01*
X107097646Y-114965300D01*
X107097646Y-114965298D01*
X107060775Y-114859929D01*
X107052793Y-114837118D01*
X106972150Y-114727850D01*
X106862882Y-114647207D01*
X106862880Y-114647206D01*
X106734700Y-114602353D01*
X106704270Y-114599500D01*
X106704266Y-114599500D01*
X106070734Y-114599500D01*
X106070730Y-114599500D01*
X106040300Y-114602353D01*
X106040298Y-114602353D01*
X105912119Y-114647206D01*
X105912117Y-114647207D01*
X105802850Y-114727850D01*
X105722207Y-114837117D01*
X105722206Y-114837119D01*
X105677353Y-114965298D01*
X105677353Y-114965300D01*
X105675239Y-114987853D01*
X105674500Y-114995734D01*
X105674500Y-116004266D01*
X105674575Y-116005065D01*
X105676095Y-116021272D01*
X105673887Y-116048867D01*
X105675561Y-116049088D01*
X105674500Y-116057148D01*
X105674500Y-124875500D01*
X105654815Y-124942539D01*
X105602011Y-124988294D01*
X105550500Y-124999500D01*
X105505514Y-124999500D01*
X105318881Y-125029059D01*
X105139163Y-125087454D01*
X104970800Y-125173240D01*
X104907614Y-125219148D01*
X104817927Y-125284310D01*
X104817925Y-125284312D01*
X104817924Y-125284312D01*
X104684312Y-125417924D01*
X104684312Y-125417925D01*
X104684310Y-125417927D01*
X104636610Y-125483579D01*
X104573240Y-125570800D01*
X104487454Y-125739163D01*
X104429059Y-125918881D01*
X104399500Y-126105513D01*
X97300500Y-126105513D01*
X97300500Y-108645730D01*
X126074500Y-108645730D01*
X126074500Y-109254269D01*
X126077353Y-109284699D01*
X126077353Y-109284701D01*
X126102645Y-109356978D01*
X126122207Y-109412882D01*
X126202850Y-109522150D01*
X126312118Y-109602793D01*
X126354845Y-109617744D01*
X126440299Y-109647646D01*
X126470730Y-109650500D01*
X126470734Y-109650500D01*
X127009082Y-109650500D01*
X127076121Y-109670185D01*
X127121876Y-109722989D01*
X127131820Y-109792147D01*
X127116469Y-109836500D01*
X127087017Y-109887511D01*
X127087016Y-109887515D01*
X127049500Y-110027525D01*
X127049500Y-110172475D01*
X127083708Y-110300138D01*
X127087017Y-110312488D01*
X127159488Y-110438011D01*
X127159493Y-110438017D01*
X127163181Y-110441705D01*
X127196666Y-110503028D01*
X127199500Y-110529386D01*
X127199500Y-114070614D01*
X127179815Y-114137653D01*
X127163181Y-114158295D01*
X127159493Y-114161982D01*
X127159488Y-114161988D01*
X127087017Y-114287511D01*
X127087016Y-114287515D01*
X127049500Y-114427525D01*
X127049500Y-114572475D01*
X127084309Y-114702382D01*
X127087017Y-114712488D01*
X127159488Y-114838011D01*
X127159490Y-114838013D01*
X127159491Y-114838015D01*
X127261985Y-114940509D01*
X127261986Y-114940510D01*
X127261988Y-114940511D01*
X127387511Y-115012982D01*
X127387512Y-115012982D01*
X127387515Y-115012984D01*
X127527525Y-115050500D01*
X127527528Y-115050500D01*
X127672472Y-115050500D01*
X127672475Y-115050500D01*
X127812485Y-115012984D01*
X127938015Y-114940509D01*
X128040509Y-114838015D01*
X128112984Y-114712485D01*
X128150500Y-114572475D01*
X128150500Y-114427525D01*
X128112984Y-114287515D01*
X128108538Y-114279815D01*
X128040511Y-114161988D01*
X128040506Y-114161982D01*
X128036819Y-114158295D01*
X128003334Y-114096972D01*
X128000500Y-114070614D01*
X128000500Y-110529386D01*
X128020185Y-110462347D01*
X128036819Y-110441705D01*
X128040509Y-110438015D01*
X128112984Y-110312485D01*
X128150500Y-110172475D01*
X128150500Y-110027525D01*
X128112984Y-109887515D01*
X128111304Y-109884606D01*
X128040511Y-109761988D01*
X128040506Y-109761982D01*
X128036819Y-109758295D01*
X128003334Y-109696972D01*
X128000500Y-109670614D01*
X128000500Y-109301123D01*
X128000733Y-109249067D01*
X128000500Y-109248181D01*
X128000500Y-109247273D01*
X127987130Y-109197376D01*
X127973896Y-109147085D01*
X127973893Y-109147080D01*
X127973525Y-109146178D01*
X127973524Y-109146176D01*
X127973518Y-109146160D01*
X127973225Y-109145444D01*
X127961009Y-109124286D01*
X127947353Y-109100633D01*
X127941833Y-109090973D01*
X127925500Y-109029460D01*
X127925500Y-108645730D01*
X127922646Y-108615300D01*
X127922646Y-108615298D01*
X127877793Y-108487119D01*
X127877792Y-108487117D01*
X127797150Y-108377850D01*
X127687882Y-108297207D01*
X127687880Y-108297206D01*
X127559700Y-108252353D01*
X127529270Y-108249500D01*
X127529266Y-108249500D01*
X126470734Y-108249500D01*
X126470730Y-108249500D01*
X126440300Y-108252353D01*
X126440298Y-108252353D01*
X126312119Y-108297206D01*
X126312117Y-108297207D01*
X126202850Y-108377850D01*
X126122207Y-108487117D01*
X126122206Y-108487119D01*
X126077353Y-108615298D01*
X126077353Y-108615300D01*
X126074500Y-108645730D01*
X97300500Y-108645730D01*
X97300500Y-107343053D01*
X125975000Y-107343053D01*
X125985613Y-107431443D01*
X126041079Y-107572095D01*
X126132435Y-107692564D01*
X126252904Y-107783920D01*
X126393556Y-107839386D01*
X126481946Y-107850000D01*
X126800000Y-107850000D01*
X127200000Y-107850000D01*
X127518054Y-107850000D01*
X127606443Y-107839386D01*
X127747095Y-107783920D01*
X127867564Y-107692564D01*
X127958920Y-107572095D01*
X128014386Y-107431443D01*
X128025000Y-107343053D01*
X128025000Y-107250000D01*
X127200000Y-107250000D01*
X127200000Y-107850000D01*
X126800000Y-107850000D01*
X126800000Y-107250000D01*
X125975000Y-107250000D01*
X125975000Y-107343053D01*
X97300500Y-107343053D01*
X97300500Y-106756946D01*
X125975000Y-106756946D01*
X125975000Y-106850000D01*
X126800000Y-106850000D01*
X127200000Y-106850000D01*
X128025000Y-106850000D01*
X128025000Y-106756946D01*
X128014386Y-106668556D01*
X127958920Y-106527904D01*
X127867564Y-106407435D01*
X127747095Y-106316079D01*
X127606443Y-106260613D01*
X127518054Y-106250000D01*
X127200000Y-106250000D01*
X127200000Y-106850000D01*
X126800000Y-106850000D01*
X126800000Y-106250000D01*
X126481946Y-106250000D01*
X126393556Y-106260613D01*
X126252904Y-106316079D01*
X126132435Y-106407435D01*
X126041079Y-106527904D01*
X125985613Y-106668556D01*
X125975000Y-106756946D01*
X97300500Y-106756946D01*
X97300500Y-103500000D01*
X97550000Y-103500000D01*
X97597075Y-103977969D01*
X97736496Y-104437578D01*
X97962895Y-104861141D01*
X97962899Y-104861148D01*
X98267587Y-105232411D01*
X98638850Y-105537099D01*
X98638857Y-105537103D01*
X99062420Y-105763502D01*
X99062422Y-105763502D01*
X99062425Y-105763504D01*
X99522028Y-105902923D01*
X99522027Y-105902923D01*
X99569104Y-105907559D01*
X100000000Y-105950000D01*
X100477971Y-105902923D01*
X100937574Y-105763504D01*
X100943262Y-105760464D01*
X101136558Y-105657145D01*
X101361147Y-105537100D01*
X101732411Y-105232411D01*
X102037100Y-104861147D01*
X102180117Y-104593580D01*
X102263502Y-104437578D01*
X102263502Y-104437577D01*
X102263504Y-104437574D01*
X102402923Y-103977971D01*
X102450000Y-103500000D01*
X102402923Y-103022028D01*
X102263504Y-102562425D01*
X102263502Y-102562422D01*
X102263502Y-102562420D01*
X102037103Y-102138857D01*
X102037099Y-102138850D01*
X101732411Y-101767587D01*
X101361148Y-101462899D01*
X101361141Y-101462895D01*
X100937578Y-101236496D01*
X100606797Y-101136155D01*
X100477971Y-101097076D01*
X100477969Y-101097075D01*
X100477971Y-101097075D01*
X100000000Y-101050000D01*
X99522029Y-101097075D01*
X99062420Y-101236496D01*
X98638857Y-101462895D01*
X98638850Y-101462899D01*
X98267587Y-101767587D01*
X97962899Y-102138850D01*
X97962895Y-102138857D01*
X97736496Y-102562420D01*
X97597075Y-103022029D01*
X97550000Y-103500000D01*
X97300500Y-103500000D01*
X97300500Y-101516660D01*
X97300882Y-101506939D01*
X97305446Y-101448904D01*
X97309247Y-101400562D01*
X97312300Y-101381300D01*
X97333396Y-101293583D01*
X97339374Y-101275183D01*
X97373866Y-101191829D01*
X97382709Y-101174469D01*
X97429760Y-101097695D01*
X97441181Y-101081975D01*
X97499722Y-101013440D01*
X97513440Y-100999722D01*
X97581975Y-100941181D01*
X97597695Y-100929760D01*
X97674469Y-100882709D01*
X97691829Y-100873866D01*
X97775183Y-100839374D01*
X97793583Y-100833396D01*
X97881300Y-100812300D01*
X97900562Y-100809247D01*
X97982366Y-100802814D01*
X98006940Y-100800882D01*
X98016661Y-100800500D01*
X152557830Y-100800500D01*
X152624869Y-100820185D01*
G37*
%TD.AperFunction*%
%TD*%
M02*
