M48
; DRILL file {KiCad 9.0.9-9.0.9~ubuntu24.04.1} date 2026-09-27T02:00:42+0000
; FORMAT={-:-/ absolute / metric / decimal}
; #@! TF.CreationDate,2026-09-27T02:00:42+00:00
; #@! TF.GenerationSoftware,Kicad,Pcbnew,9.0.9-9.0.9~ubuntu24.04.1
; #@! TF.FileFunction,MixedPlating,1,2
FMAT,2
METRIC
; #@! TA.AperFunction,Plated,PTH,ViaDrill
T1C0.300
; #@! TA.AperFunction,Plated,PTH,ComponentDrill
T2C1.200
; #@! TA.AperFunction,NonPlated,NPTH,ComponentDrill
T3C5.250
%
G90
G05
T1
X106.5Y-115.8
X107.3Y-116.0
X113.5Y-116.0
X123.3Y-129.8
X123.5Y-130.6
X124.1Y-123.6
X124.3Y-115.4
X125.5Y-114.4
X126.3Y-115.6
X127.5Y-115.2
X128.3Y-113.6
X129.5Y-129.8
X129.9Y-127.8
X130.3Y-114.0
X132.3Y-114.0
X132.5Y-115.2
X133.3Y-121.6
X133.3Y-123.8
X135.7Y-129.0
X135.7Y-130.2
X136.5Y-121.4
X137.3Y-121.6
X137.3Y-126.4
X137.3Y-127.8
X139.7Y-124.4
X139.9Y-129.8
X140.9Y-126.8
X141.7Y-126.4
X142.1Y-129.2
X142.3Y-125.2
X143.1Y-127.0
X143.5Y-122.2
X146.1Y-116.8
X146.9Y-116.0
X147.5Y-115.4
X152.5Y-116.0
X154.1Y-116.8
X162.7Y-107.0
X162.7Y-125.0
X164.7Y-125.0
X165.1Y-107.0
X165.3Y-106.2
X165.5Y-124.4
X170.7Y-107.0
X170.7Y-124.0
T2
X105.6Y-126.2
X112.6Y-127.25
X125.6Y-126.2
X132.6Y-127.25
X145.6Y-126.2
X152.6Y-127.25
X163.6Y-117.2
X163.6Y-135.2
X170.6Y-118.25
X170.6Y-136.25
T3
X110.0Y-121.5
X130.0Y-121.5
X150.0Y-121.5
X168.0Y-112.5
X168.0Y-130.5
M30
