%TF.GenerationSoftware,KiCad,Pcbnew,9.0.9-9.0.9~ubuntu24.04.1*%
%TF.CreationDate,2026-10-01T14:49:22+00:00*%
%TF.ProjectId,key-board-lh,6b65792d-626f-4617-9264-2d6c682e6b69,A*%
%TF.SameCoordinates,Original*%
%TF.FileFunction,Paste,Bot*%
%TF.FilePolarity,Positive*%
%FSLAX46Y46*%
G04 Gerber Fmt 4.6, Leading zero omitted, Abs format (unit mm)*
G04 Created by KiCad (PCBNEW 9.0.9-9.0.9~ubuntu24.04.1) date 2026-10-01 14:49:22*
%MOMM*%
%LPD*%
G01*
G04 APERTURE LIST*
G04 Aperture macros list*
%AMRoundRect*
0 Rectangle with rounded corners*
0 $1 Rounding radius*
0 $2 $3 $4 $5 $6 $7 $8 $9 X,Y pos of 4 corners*
0 Add a 4 corners polygon primitive as box body*
4,1,4,$2,$3,$4,$5,$6,$7,$8,$9,$2,$3,0*
0 Add four circle primitives for the rounded corners*
1,1,$1+$1,$2,$3*
1,1,$1+$1,$4,$5*
1,1,$1+$1,$6,$7*
1,1,$1+$1,$8,$9*
0 Add four rect primitives between the rounded corners*
20,1,$1+$1,$2,$3,$4,$5,0*
20,1,$1+$1,$4,$5,$6,$7,0*
20,1,$1+$1,$6,$7,$8,$9,0*
20,1,$1+$1,$8,$9,$2,$3,0*%
G04 Aperture macros list end*
%ADD10RoundRect,0.250000X0.262500X0.450000X-0.262500X0.450000X-0.262500X-0.450000X0.262500X-0.450000X0*%
%ADD11RoundRect,0.250000X-0.450000X0.262500X-0.450000X-0.262500X0.450000X-0.262500X0.450000X0.262500X0*%
%ADD12RoundRect,0.250000X0.250000X0.475000X-0.250000X0.475000X-0.250000X-0.475000X0.250000X-0.475000X0*%
%ADD13RoundRect,0.250000X0.475000X-0.250000X0.475000X0.250000X-0.475000X0.250000X-0.475000X-0.250000X0*%
%ADD14RoundRect,0.150000X0.150000X-0.825000X0.150000X0.825000X-0.150000X0.825000X-0.150000X-0.825000X0*%
G04 APERTURE END LIST*
D10*
%TO.C,R11*%
X150642500Y-101800000D03*
X148817500Y-101800000D03*
%TD*%
D11*
%TO.C,R9*%
X177400000Y-114287500D03*
X177400000Y-116112500D03*
%TD*%
%TO.C,R4*%
X139400000Y-117887500D03*
X139400000Y-119712500D03*
%TD*%
D12*
%TO.C,C5*%
X175650000Y-112500000D03*
X173750000Y-112500000D03*
%TD*%
D11*
%TO.C,R1*%
X119400000Y-123287500D03*
X119400000Y-125112500D03*
%TD*%
%TO.C,R7*%
X177400000Y-132287499D03*
X177400000Y-134112499D03*
%TD*%
%TO.C,R2*%
X119400000Y-117887500D03*
X119400000Y-119712500D03*
%TD*%
D13*
%TO.C,C7*%
X127500000Y-108950000D03*
X127500000Y-107050000D03*
%TD*%
D11*
%TO.C,R8*%
X177400000Y-126887500D03*
X177400000Y-128712500D03*
%TD*%
D12*
%TO.C,C3*%
X157650000Y-121500000D03*
X155750000Y-121500000D03*
%TD*%
D11*
%TO.C,R10*%
X177400000Y-108887500D03*
X177400000Y-110712500D03*
%TD*%
D12*
%TO.C,C2*%
X137650000Y-121500000D03*
X135750000Y-121500000D03*
%TD*%
D14*
%TO.C,U1*%
X155445000Y-108975000D03*
X154175000Y-108975000D03*
X152905000Y-108975000D03*
X151635000Y-108975000D03*
X150365000Y-108975000D03*
X149095000Y-108975000D03*
X147825000Y-108975000D03*
X146555000Y-108975000D03*
X146555000Y-104025000D03*
X147825000Y-104025000D03*
X149095000Y-104025000D03*
X150365000Y-104025000D03*
X151635000Y-104025000D03*
X152905000Y-104025000D03*
X154175000Y-104025000D03*
X155445000Y-104025000D03*
%TD*%
D12*
%TO.C,C6*%
X155750000Y-101800000D03*
X153850000Y-101800000D03*
%TD*%
%TO.C,C1*%
X117649999Y-121500000D03*
X115749999Y-121500000D03*
%TD*%
D11*
%TO.C,R6*%
X159400000Y-117887500D03*
X159400000Y-119712500D03*
%TD*%
%TO.C,R3*%
X139400000Y-123287500D03*
X139400000Y-125112500D03*
%TD*%
D12*
%TO.C,C4*%
X175650000Y-130500000D03*
X173750000Y-130500000D03*
%TD*%
D11*
%TO.C,R5*%
X159400000Y-123287500D03*
X159400000Y-125112500D03*
%TD*%
M02*
