%TF.GenerationSoftware,KiCad,Pcbnew,9.0.9-9.0.9~ubuntu24.04.1*%
%TF.CreationDate,2026-09-27T02:00:41+00:00*%
%TF.ProjectId,key-board-lh,6b65792d-626f-4617-9264-2d6c682e6b69,rev?*%
%TF.SameCoordinates,Original*%
%TF.FileFunction,Copper,L1,Top*%
%TF.FilePolarity,Positive*%
%FSLAX46Y46*%
G04 Gerber Fmt 4.6, Leading zero omitted, Abs format (unit mm)*
G04 Created by KiCad (PCBNEW 9.0.9-9.0.9~ubuntu24.04.1) date 2026-09-27 02:00:41*
%MOMM*%
%LPD*%
G01*
G04 APERTURE LIST*
%TA.AperFunction,ComponentPad*%
%ADD10C,2.000000*%
%TD*%
%TA.AperFunction,ViaPad*%
%ADD11C,0.600000*%
%TD*%
%TA.AperFunction,Conductor*%
%ADD12C,0.250000*%
%TD*%
%TA.AperFunction,Conductor*%
%ADD13C,0.400000*%
%TD*%
G04 APERTURE END LIST*
D10*
%TO.P,SW-LH5,1*%
%TO.N,/LH5/SWITCH_LEG*%
X163600000Y-117200000D03*
%TO.P,SW-LH5,2*%
%TO.N,GND_CHAIN*%
X170600000Y-118250000D03*
%TD*%
%TO.P,SW-LH3,1*%
%TO.N,/LH3/SWITCH_LEG*%
X145600000Y-126200000D03*
%TO.P,SW-LH3,2*%
%TO.N,GND_CHAIN*%
X152600000Y-127250000D03*
%TD*%
%TO.P,SW-LH4,1*%
%TO.N,/LH4/SWITCH_LEG*%
X163600000Y-135200000D03*
%TO.P,SW-LH4,2*%
%TO.N,GND_CHAIN*%
X170600000Y-136250000D03*
%TD*%
%TO.P,SW-LH1,1*%
%TO.N,/LH1/SWITCH_LEG*%
X105600000Y-126200000D03*
%TO.P,SW-LH1,2*%
%TO.N,GND_CHAIN*%
X112600000Y-127250000D03*
%TD*%
%TO.P,SW-LH2,1*%
%TO.N,/LH2/SWITCH_LEG*%
X125600000Y-126200000D03*
%TO.P,SW-LH2,2*%
%TO.N,GND_CHAIN*%
X132600000Y-127250000D03*
%TD*%
D11*
%TO.N,/CHAIN_SCK*%
X125500000Y-114400000D03*
X135700000Y-129000000D03*
%TO.N,/CHAIN_SHLD*%
X135700000Y-130199999D03*
X127500000Y-115200000D03*
%TO.N,/KEY_LH3*%
X146100000Y-116800000D03*
X137300000Y-126400000D03*
%TO.N,/KEY_LH4*%
X162700000Y-125000000D03*
X137300000Y-127800000D03*
%TO.N,/KEY_LH5*%
X162700000Y-107000000D03*
X143100000Y-127000000D03*
%TO.N,GND_CHAIN*%
X164700000Y-125000000D03*
X165100000Y-107000000D03*
X139700000Y-124400000D03*
X136500000Y-121400000D03*
X146900000Y-116000000D03*
X123500000Y-130600000D03*
X124100000Y-123600000D03*
X142100000Y-129199999D03*
X165300000Y-106200000D03*
X133300000Y-121600000D03*
X137300000Y-121600000D03*
X126300000Y-115600000D03*
X107300000Y-116000000D03*
X165500000Y-124400000D03*
X140900000Y-126800000D03*
X123300000Y-129800000D03*
X132300000Y-114000000D03*
X129900000Y-127800000D03*
X106500000Y-115800000D03*
X141700000Y-126400000D03*
X128300000Y-113600000D03*
X132500000Y-115200000D03*
X130300000Y-114000000D03*
X147500000Y-115400000D03*
X124300000Y-115400000D03*
%TO.N,V3V3_CHAIN_LH*%
X143500000Y-122200000D03*
X170700000Y-107000000D03*
X170700000Y-124000000D03*
X139900000Y-129800000D03*
X152500000Y-116000000D03*
X129500000Y-129800000D03*
X154100000Y-116800000D03*
X133300000Y-123800000D03*
X142300000Y-125200000D03*
X113500000Y-116000000D03*
%TD*%
D12*
%TO.N,/CHAIN_SCK*%
X129699999Y-115400000D02*
X129900000Y-115600000D01*
X134100000Y-119800000D02*
X134300000Y-120000000D01*
X132100000Y-117800000D02*
X132300000Y-118000000D01*
X133100000Y-118800000D02*
X133300000Y-119000000D01*
X134700000Y-120400000D02*
X134900000Y-120600000D01*
X131300000Y-117000000D02*
X131699999Y-117400000D01*
X129100000Y-114800000D02*
X129300000Y-115000000D01*
X129300000Y-115000000D02*
X129699999Y-115400000D01*
X135100000Y-120800000D02*
X135300000Y-121000000D01*
X135700000Y-121400000D02*
X135700000Y-129000000D01*
X132900000Y-118600000D02*
X133100000Y-118800000D01*
X125500000Y-114400000D02*
X128699999Y-114400000D01*
X133300000Y-119000000D02*
X133699999Y-119400000D01*
X131699999Y-117400000D02*
X131900000Y-117600000D01*
X128900000Y-114600000D02*
X129100000Y-114800000D01*
X131900000Y-117600000D02*
X132100000Y-117800000D01*
X134300000Y-120000000D02*
X134700000Y-120400000D01*
X132699999Y-118400000D02*
X132900000Y-118600000D01*
X130699999Y-116400000D02*
X130900000Y-116600000D01*
X133900000Y-119600000D02*
X134100000Y-119800000D01*
X129900000Y-115600000D02*
X130100000Y-115800000D01*
X131100000Y-116800000D02*
X131300000Y-117000000D01*
X130900000Y-116600000D02*
X131100000Y-116800000D01*
X134900000Y-120600000D02*
X135100000Y-120800000D01*
X132300000Y-118000000D02*
X132699999Y-118400000D01*
X135300000Y-121000000D02*
X135700000Y-121400000D01*
X128699999Y-114400000D02*
X128900000Y-114600000D01*
X130100000Y-115800000D02*
X130300000Y-116000000D01*
X133699999Y-119400000D02*
X133900000Y-119600000D01*
X130300000Y-116000000D02*
X130699999Y-116400000D01*
%TO.N,/CHAIN_SHLD*%
X130900000Y-117800000D02*
X130699999Y-117600000D01*
X132699999Y-119600000D02*
X132500000Y-119400000D01*
X131100000Y-118000000D02*
X130900000Y-117800000D01*
X134100000Y-121000000D02*
X133900000Y-120800000D01*
X135700000Y-130199999D02*
X134100000Y-128600000D01*
X129300000Y-116200000D02*
X129100000Y-116000000D01*
X130699999Y-117600000D02*
X130500000Y-117400000D01*
X132900000Y-119800000D02*
X132699999Y-119600000D01*
X129699999Y-116600000D02*
X129500000Y-116400000D01*
X133699999Y-120600000D02*
X133500000Y-120400000D01*
X128500000Y-115400000D02*
X128300000Y-115200000D01*
X128300000Y-115200000D02*
X127500000Y-115200000D01*
X129900000Y-116800000D02*
X129699999Y-116600000D01*
X129100000Y-116000000D02*
X128900000Y-115800000D01*
X131500000Y-118400000D02*
X131300000Y-118200000D01*
X131699999Y-118600000D02*
X131500000Y-118400000D01*
X134100000Y-128600000D02*
X134100000Y-121000000D01*
X128699999Y-115600000D02*
X128500000Y-115400000D01*
X132300000Y-119200000D02*
X132100000Y-119000000D01*
X132100000Y-119000000D02*
X131900000Y-118800000D01*
X131300000Y-118200000D02*
X131100000Y-118000000D01*
X132500000Y-119400000D02*
X132300000Y-119200000D01*
X133100000Y-120000000D02*
X132900000Y-119800000D01*
X130500000Y-117400000D02*
X130300000Y-117200000D01*
X129500000Y-116400000D02*
X129300000Y-116200000D01*
X130100000Y-117000000D02*
X129900000Y-116800000D01*
X133900000Y-120800000D02*
X133699999Y-120600000D01*
X130300000Y-117200000D02*
X130100000Y-117000000D01*
X128900000Y-115800000D02*
X128699999Y-115600000D01*
X133500000Y-120400000D02*
X133300000Y-120200000D01*
X131900000Y-118800000D02*
X131699999Y-118600000D01*
X133300000Y-120200000D02*
X133100000Y-120000000D01*
%TO.N,/KEY_LH3*%
X139100000Y-123800000D02*
X138900000Y-124000000D01*
X146100000Y-116800000D02*
X145900000Y-117000000D01*
X141300000Y-121600000D02*
X141100000Y-121800000D01*
X144300000Y-118600000D02*
X144100000Y-118800000D01*
X142500000Y-120400000D02*
X142300000Y-120600000D01*
X145300000Y-117600000D02*
X145100000Y-117800000D01*
X145500000Y-117400000D02*
X145300000Y-117600000D01*
X138500000Y-124400000D02*
X138300000Y-124600000D01*
X143700000Y-119200000D02*
X143500000Y-119400000D01*
X144100000Y-118800000D02*
X143900000Y-119000000D01*
X138100000Y-124800000D02*
X137900000Y-125000000D01*
X137900000Y-125000000D02*
X137700000Y-125200000D01*
X142900000Y-120000000D02*
X142700000Y-120200000D01*
X142700000Y-120200000D02*
X142500000Y-120400000D01*
X139900000Y-123000000D02*
X139700000Y-123200000D01*
X141700000Y-121200000D02*
X141500000Y-121400000D01*
X145900000Y-117000000D02*
X145700000Y-117200000D01*
X144500000Y-118400000D02*
X144300000Y-118600000D01*
X137700000Y-125200000D02*
X137500000Y-125400000D01*
X140700000Y-122200000D02*
X140500000Y-122400000D01*
X145100000Y-117800000D02*
X144900000Y-118000000D01*
X142100000Y-120800000D02*
X141900000Y-121000000D01*
X140900000Y-122000000D02*
X140700000Y-122200000D01*
X143500000Y-119400000D02*
X143300000Y-119600000D01*
X137300000Y-125600000D02*
X137300000Y-126400000D01*
X138900000Y-124000000D02*
X138700000Y-124200000D01*
X138300000Y-124600000D02*
X138100000Y-124800000D01*
X139300000Y-123600000D02*
X139100000Y-123800000D01*
X141500000Y-121400000D02*
X141300000Y-121600000D01*
X141900000Y-121000000D02*
X141700000Y-121200000D01*
X144700000Y-118200000D02*
X144500000Y-118400000D01*
X137500000Y-125400000D02*
X137300000Y-125600000D01*
X139500000Y-123400000D02*
X139300000Y-123600000D01*
X143900000Y-119000000D02*
X143700000Y-119200000D01*
X140300000Y-122600000D02*
X140100000Y-122800000D01*
X142300000Y-120600000D02*
X142100000Y-120800000D01*
X144900000Y-118000000D02*
X144700000Y-118200000D01*
X145700000Y-117200000D02*
X145500000Y-117400000D01*
X139700000Y-123200000D02*
X139500000Y-123400000D01*
X141100000Y-121800000D02*
X140900000Y-122000000D01*
X138700000Y-124200000D02*
X138500000Y-124400000D01*
X140100000Y-122800000D02*
X139900000Y-123000000D01*
X140500000Y-122400000D02*
X140300000Y-122600000D01*
X143300000Y-119600000D02*
X143100000Y-119800000D01*
X143100000Y-119800000D02*
X142900000Y-120000000D01*
%TO.N,/KEY_LH4*%
X148900000Y-125200000D02*
X148700000Y-125400000D01*
X148100000Y-126000000D02*
X147900000Y-126200000D01*
X146900000Y-127200000D02*
X146700000Y-127400000D01*
X148300000Y-125800000D02*
X148100000Y-126000000D01*
X146700000Y-127400000D02*
X146500000Y-127600000D01*
X147900000Y-126200000D02*
X147700000Y-126400000D01*
X147300000Y-126800000D02*
X147100000Y-127000000D01*
X147500000Y-126600000D02*
X147300000Y-126800000D01*
X162700000Y-125000000D02*
X149100000Y-125000000D01*
X146500000Y-127600000D02*
X146300000Y-127800000D01*
X146300000Y-127800000D02*
X137300000Y-127800000D01*
X148500000Y-125600000D02*
X148300000Y-125800000D01*
X147700000Y-126400000D02*
X147500000Y-126600000D01*
X147100000Y-127000000D02*
X146900000Y-127200000D01*
X148700000Y-125400000D02*
X148500000Y-125600000D01*
X149100000Y-125000000D02*
X148900000Y-125200000D01*
%TO.N,/KEY_LH5*%
X144500000Y-122400000D02*
X144300000Y-122600000D01*
X151900000Y-117800000D02*
X151700000Y-118000000D01*
X155300000Y-114400000D02*
X155100000Y-114600000D01*
X157300000Y-112400000D02*
X157100000Y-112600000D01*
X159300000Y-110400000D02*
X159100000Y-110600000D01*
X152100000Y-117600000D02*
X151900000Y-117800000D01*
X143500000Y-123400000D02*
X143300000Y-123600000D01*
X143700000Y-123200000D02*
X143500000Y-123400000D01*
X143100000Y-123800000D02*
X143100000Y-127000000D01*
X160700000Y-109000000D02*
X160300000Y-109400000D01*
X161700000Y-108000000D02*
X161300000Y-108400000D01*
X152700000Y-117000000D02*
X152300000Y-117400000D01*
X147500000Y-119400000D02*
X147300000Y-119600000D01*
X153300000Y-116400000D02*
X153100000Y-116600000D01*
X160900000Y-108800000D02*
X160700000Y-109000000D01*
X145300000Y-121600000D02*
X145100000Y-121800000D01*
X145900000Y-121000000D02*
X145700000Y-121200000D01*
X144300000Y-122600000D02*
X144100000Y-122800000D01*
X158100000Y-111600000D02*
X157900000Y-111800000D01*
X144100000Y-122800000D02*
X143900000Y-123000000D01*
X151700000Y-118000000D02*
X151300000Y-118400000D01*
X156900000Y-112800000D02*
X156700000Y-113000000D01*
X161100000Y-108600000D02*
X160900000Y-108800000D01*
X145100000Y-121800000D02*
X144900000Y-122000000D01*
X158300000Y-111400000D02*
X158100000Y-111600000D01*
X152900000Y-116800000D02*
X152700000Y-117000000D01*
X152300000Y-117400000D02*
X152100000Y-117600000D01*
X154300000Y-115400000D02*
X154100000Y-115600000D01*
X158700000Y-111000000D02*
X158300000Y-111400000D01*
X160100000Y-109600000D02*
X159900000Y-109800000D01*
X153100000Y-116600000D02*
X152900000Y-116800000D01*
X154900000Y-114800000D02*
X154700000Y-115000000D01*
X162700000Y-107000000D02*
X162300000Y-107400000D01*
X144900000Y-122000000D02*
X144700000Y-122200000D01*
X146700000Y-120200000D02*
X146500000Y-120400000D01*
X148100000Y-118800000D02*
X147900000Y-119000000D01*
X143900000Y-123000000D02*
X143700000Y-123200000D01*
X147900000Y-119000000D02*
X147700000Y-119200000D01*
X162100000Y-107600000D02*
X161900000Y-107800000D01*
X162300000Y-107400000D02*
X162100000Y-107600000D01*
X160300000Y-109400000D02*
X160100000Y-109600000D01*
X147300000Y-119600000D02*
X147100000Y-119800000D01*
X147100000Y-119800000D02*
X146900000Y-120000000D01*
X158900000Y-110800000D02*
X158700000Y-111000000D01*
X159700000Y-110000000D02*
X159300000Y-110400000D01*
X146500000Y-120400000D02*
X146300000Y-120600000D01*
X154100000Y-115600000D02*
X153900000Y-115800000D01*
X155100000Y-114600000D02*
X154900000Y-114800000D01*
X159900000Y-109800000D02*
X159700000Y-110000000D01*
X153900000Y-115800000D02*
X153700000Y-116000000D01*
X151300000Y-118400000D02*
X148500000Y-118400000D01*
X145500000Y-121400000D02*
X145300000Y-121600000D01*
X143300000Y-123600000D02*
X143100000Y-123800000D01*
X146900000Y-120000000D02*
X146700000Y-120200000D01*
X156300000Y-113400000D02*
X156100000Y-113600000D01*
X148500000Y-118400000D02*
X148300000Y-118600000D01*
X153700000Y-116000000D02*
X153300000Y-116400000D01*
X156700000Y-113000000D02*
X156300000Y-113400000D01*
X157900000Y-111800000D02*
X157700000Y-112000000D01*
X161300000Y-108400000D02*
X161100000Y-108600000D01*
X147700000Y-119200000D02*
X147500000Y-119400000D01*
X157100000Y-112600000D02*
X156900000Y-112800000D01*
X145700000Y-121200000D02*
X145500000Y-121400000D01*
X154700000Y-115000000D02*
X154300000Y-115400000D01*
X146300000Y-120600000D02*
X146100000Y-120800000D01*
X148300000Y-118600000D02*
X148100000Y-118800000D01*
X155700000Y-114000000D02*
X155300000Y-114400000D01*
X161900000Y-107800000D02*
X161700000Y-108000000D01*
X155900000Y-113800000D02*
X155700000Y-114000000D01*
X159100000Y-110600000D02*
X158900000Y-110800000D01*
X157700000Y-112000000D02*
X157300000Y-112400000D01*
X156100000Y-113600000D02*
X155900000Y-113800000D01*
X144700000Y-122200000D02*
X144500000Y-122400000D01*
X146100000Y-120800000D02*
X145900000Y-121000000D01*
%TO.N,GND_CHAIN*%
X108100000Y-124200000D02*
X107900000Y-124000000D01*
X140500000Y-123600000D02*
X140700000Y-123400000D01*
X140900000Y-125600000D02*
X141100000Y-125800000D01*
X165500000Y-132600000D02*
X165700000Y-132800000D01*
X142900000Y-121200000D02*
X143100000Y-121000000D01*
X167100000Y-134199999D02*
X167300000Y-134400000D01*
X144100000Y-120000000D02*
X144300000Y-119800000D01*
X136500000Y-119200000D02*
X136300000Y-119000000D01*
X164500000Y-131600000D02*
X164700000Y-131800000D01*
X153500000Y-127000000D02*
X162700000Y-127000000D01*
X107100000Y-123200000D02*
X106900000Y-123000000D01*
X168500000Y-135600000D02*
X168700000Y-135800000D01*
X107900000Y-124000000D02*
X107500000Y-123600000D01*
X123500000Y-129600000D02*
X123300000Y-129800000D01*
X165700000Y-132800000D02*
X166100000Y-133199999D01*
X143100000Y-121000000D02*
X143300000Y-120800000D01*
X124100000Y-129000000D02*
X123900000Y-129199999D01*
X134900000Y-117600000D02*
X134700000Y-117400000D01*
X142100000Y-122000000D02*
X142300000Y-121800000D01*
X124100000Y-127000000D02*
X124500000Y-127400000D01*
X140700000Y-125400000D02*
X140900000Y-125600000D01*
X168300000Y-135400000D02*
X168500000Y-135600000D01*
X124300000Y-128800000D02*
X124100000Y-129000000D01*
X146900000Y-117400000D02*
X146900000Y-116000000D01*
X166700000Y-133800000D02*
X167100000Y-134199999D01*
X136300000Y-119000000D02*
X136100000Y-118800000D01*
X162900000Y-126800000D02*
X163100000Y-126600000D01*
X124500000Y-128600000D02*
X124300000Y-128800000D01*
X107100000Y-116200000D02*
X107300000Y-116000000D01*
X124700000Y-128400000D02*
X124500000Y-128600000D01*
X163500000Y-130600000D02*
X163700000Y-130800000D01*
X135100000Y-117800000D02*
X134900000Y-117600000D01*
X170599999Y-136249999D02*
X169700000Y-136000000D01*
X163100000Y-126600000D02*
X163300000Y-126400000D01*
X142700000Y-121400000D02*
X142900000Y-121200000D01*
X141700000Y-122400000D02*
X141900000Y-122200000D01*
X123900000Y-129199999D02*
X123700000Y-129400000D01*
X136100000Y-118800000D02*
X135900000Y-118600000D01*
X135900000Y-118600000D02*
X135700000Y-118400000D01*
X163700000Y-126000000D02*
X164100000Y-125600000D01*
X112600000Y-127250000D02*
X113500000Y-127000000D01*
X143900000Y-120200000D02*
X144100000Y-120000000D01*
X168100000Y-135200000D02*
X168300000Y-135400000D01*
X166100000Y-133199999D02*
X166300000Y-133400000D01*
X133300000Y-116000000D02*
X133100000Y-115800000D01*
X167500000Y-134600000D02*
X167700000Y-134800000D01*
X109900000Y-126000000D02*
X109500000Y-125600000D01*
X145700000Y-118400000D02*
X145900000Y-118200000D01*
X166300000Y-133400000D02*
X166500000Y-133600000D01*
X140100000Y-124800000D02*
X140300000Y-125000000D01*
X135700000Y-118400000D02*
X135300000Y-118000000D01*
X124100000Y-123600000D02*
X124100000Y-127000000D01*
X168900000Y-136000000D02*
X169700000Y-136000000D01*
X162900000Y-130000000D02*
X163500000Y-130600000D01*
X164100000Y-131199999D02*
X164300000Y-131400000D01*
X110300000Y-126400000D02*
X110100000Y-126200000D01*
X133699999Y-116400000D02*
X133300000Y-116000000D01*
X164300000Y-125400000D02*
X164700000Y-125000000D01*
X111700000Y-127000000D02*
X110900000Y-127000000D01*
X134100000Y-116800000D02*
X133900000Y-116600000D01*
X136500000Y-121400000D02*
X136500000Y-119200000D01*
X168700000Y-135800000D02*
X168900000Y-136000000D01*
X108500000Y-124600000D02*
X108300000Y-124400000D01*
X170900000Y-117400000D02*
X170900000Y-113800000D01*
X164100000Y-125600000D02*
X164300000Y-125400000D01*
X163700000Y-130800000D02*
X164100000Y-131199999D01*
X141500000Y-122600000D02*
X141700000Y-122400000D01*
X140100000Y-124000000D02*
X140300000Y-123800000D01*
X145500000Y-118600000D02*
X145700000Y-118400000D01*
X144900000Y-119200000D02*
X145100000Y-119000000D01*
X171300000Y-113400000D02*
X171500000Y-113200000D01*
X106900000Y-123000000D02*
X106900000Y-116400000D01*
X171500000Y-106400000D02*
X171300000Y-106200000D01*
X108300000Y-124400000D02*
X108100000Y-124200000D01*
X171100000Y-113600000D02*
X171300000Y-113400000D01*
X135300000Y-118000000D02*
X135100000Y-117800000D01*
X170900000Y-113800000D02*
X171100000Y-113600000D01*
X124900000Y-128199999D02*
X124700000Y-128400000D01*
X141100000Y-125800000D02*
X141300000Y-126000000D01*
X124700000Y-127600000D02*
X124900000Y-127800000D01*
X141300000Y-126000000D02*
X141700000Y-126400000D01*
X162700000Y-127000000D02*
X162700000Y-129800000D01*
X140300000Y-123800000D02*
X140500000Y-123600000D01*
X145100000Y-119000000D02*
X145300000Y-118800000D01*
X140900000Y-123200000D02*
X141100000Y-123000000D01*
X162700000Y-127000000D02*
X162900000Y-126800000D01*
X139900000Y-124600000D02*
X140100000Y-124800000D01*
X110100000Y-126200000D02*
X109900000Y-126000000D01*
X133900000Y-116600000D02*
X133699999Y-116400000D01*
X139900000Y-124200000D02*
X140100000Y-124000000D01*
X146500000Y-117600000D02*
X146700000Y-117600000D01*
X143300000Y-120800000D02*
X143500000Y-120600000D01*
X123700000Y-129400000D02*
X123500000Y-129600000D01*
X124500000Y-127400000D02*
X124700000Y-127600000D01*
X141900000Y-122200000D02*
X142100000Y-122000000D01*
X134700000Y-117400000D02*
X134300000Y-117000000D01*
X171500000Y-113200000D02*
X171500000Y-106400000D01*
X124100000Y-127000000D02*
X113500000Y-127000000D01*
X124900000Y-127800000D02*
X129900000Y-127800000D01*
X109500000Y-125600000D02*
X109300000Y-125400000D01*
X145300000Y-118800000D02*
X145500000Y-118600000D01*
X162700000Y-129800000D02*
X162900000Y-130000000D01*
X132699999Y-115400000D02*
X132500000Y-115200000D01*
X141300000Y-122800000D02*
X141500000Y-122600000D01*
X164300000Y-131400000D02*
X164500000Y-131600000D01*
X167300000Y-134400000D02*
X167500000Y-134600000D01*
X106900000Y-116400000D02*
X107100000Y-116200000D01*
X143700000Y-120400000D02*
X143900000Y-120200000D01*
X110900000Y-127000000D02*
X110500000Y-126600000D01*
X133100000Y-115800000D02*
X132900000Y-115600000D01*
X140300000Y-125000000D02*
X140700000Y-125400000D01*
X142300000Y-121800000D02*
X142500000Y-121600000D01*
X146100000Y-118000000D02*
X146300000Y-117800000D01*
X167700000Y-134800000D02*
X168100000Y-135200000D01*
X139700000Y-124400000D02*
X139900000Y-124600000D01*
X165300000Y-132400000D02*
X165500000Y-132600000D01*
X107300000Y-123400000D02*
X107100000Y-123200000D01*
X142500000Y-121600000D02*
X142700000Y-121400000D01*
X141100000Y-123000000D02*
X141300000Y-122800000D01*
X163300000Y-126400000D02*
X163700000Y-126000000D01*
X145900000Y-118200000D02*
X146100000Y-118000000D01*
X144300000Y-119800000D02*
X144500000Y-119600000D01*
X109300000Y-125400000D02*
X109100000Y-125200000D01*
X144700000Y-119400000D02*
X144900000Y-119200000D01*
X146700000Y-117600000D02*
X146900000Y-117400000D01*
X146300000Y-117800000D02*
X146500000Y-117600000D01*
X139700000Y-124400000D02*
X139900000Y-124200000D01*
X134300000Y-117000000D02*
X134100000Y-116800000D01*
X143500000Y-120600000D02*
X143700000Y-120400000D01*
X109100000Y-125200000D02*
X108900000Y-125000000D01*
X132900000Y-115600000D02*
X132699999Y-115400000D01*
X124900000Y-127800000D02*
X124900000Y-128199999D01*
X107500000Y-123600000D02*
X107300000Y-123400000D01*
X166500000Y-133600000D02*
X166700000Y-133800000D01*
X171300000Y-106200000D02*
X165300000Y-106200000D01*
X144500000Y-119600000D02*
X144700000Y-119400000D01*
X110500000Y-126600000D02*
X110300000Y-126400000D01*
X165100000Y-132199999D02*
X165300000Y-132400000D01*
X140700000Y-123400000D02*
X140900000Y-123200000D01*
X164700000Y-131800000D02*
X165100000Y-132199999D01*
X108900000Y-125000000D02*
X108500000Y-124600000D01*
D13*
%TO.N,V3V3_CHAIN_LH*%
X162100000Y-118200000D02*
X162300000Y-118400000D01*
X161700000Y-117800000D02*
X161900000Y-118000000D01*
X143100000Y-122600000D02*
X142900000Y-122800000D01*
X161700000Y-114000000D02*
X161900000Y-113800000D01*
X130100000Y-129199999D02*
X129900000Y-129400000D01*
X144300000Y-121400000D02*
X144700000Y-121000000D01*
X120900000Y-119000000D02*
X120500000Y-118600000D01*
X136300000Y-131199999D02*
X134100000Y-131199999D01*
X118100000Y-116200000D02*
X117900000Y-116000000D01*
X165100000Y-121200000D02*
X165300000Y-121400000D01*
X166100000Y-122200000D02*
X166300000Y-122400000D01*
X123300000Y-121400000D02*
X123100000Y-121200000D01*
X132699999Y-129800000D02*
X132500000Y-129600000D01*
X154100000Y-116800000D02*
X160700000Y-116800000D01*
X124900000Y-123000000D02*
X124500000Y-122600000D01*
X166300000Y-109400000D02*
X166700000Y-109000000D01*
X120100000Y-118200000D02*
X119900000Y-118000000D01*
X161300000Y-114400000D02*
X161700000Y-114000000D01*
X122500000Y-120600000D02*
X122300000Y-120400000D01*
X163300000Y-112400000D02*
X163700000Y-112000000D01*
X144700000Y-121000000D02*
X144900000Y-120800000D01*
X165700000Y-110000000D02*
X166100000Y-109600000D01*
X131100000Y-126000000D02*
X131300000Y-125800000D01*
X164100000Y-120200000D02*
X164300000Y-120400000D01*
X148100000Y-117600000D02*
X148300000Y-117400000D01*
X124300000Y-122400000D02*
X124100000Y-122200000D01*
X162500000Y-118600000D02*
X162700000Y-118800000D01*
X125300000Y-123400000D02*
X125100000Y-123200000D01*
X144100000Y-121600000D02*
X144300000Y-121400000D01*
X133100000Y-124000000D02*
X133300000Y-123800000D01*
X161500000Y-117600000D02*
X161700000Y-117800000D01*
X162700000Y-113000000D02*
X162900000Y-112800000D01*
X121100000Y-119200000D02*
X120900000Y-119000000D01*
X126500000Y-124600000D02*
X126300000Y-124400000D01*
X165300000Y-121400000D02*
X165500000Y-121600000D01*
X128100000Y-126200000D02*
X127900000Y-126000000D01*
X164700000Y-120800000D02*
X165100000Y-121200000D01*
X143500000Y-122200000D02*
X143700000Y-122000000D01*
X130500000Y-128800000D02*
X130300000Y-129000000D01*
X161300000Y-117400000D02*
X161500000Y-117600000D01*
X163300000Y-119400000D02*
X163500000Y-119600000D01*
X165300000Y-110400000D02*
X165700000Y-110000000D01*
X145900000Y-119800000D02*
X146100000Y-119600000D01*
X130300000Y-129000000D02*
X130100000Y-129199999D01*
X132500000Y-124600000D02*
X132699999Y-124400000D01*
X133699999Y-130800000D02*
X133500000Y-130600000D01*
X132500000Y-129600000D02*
X131900000Y-129000000D01*
X122100000Y-120200000D02*
X121900000Y-120000000D01*
X161100000Y-114600000D02*
X161300000Y-114400000D01*
X127100000Y-125200000D02*
X126900000Y-125000000D01*
X127500000Y-125600000D02*
X127300000Y-125400000D01*
X131300000Y-125800000D02*
X131500000Y-125600000D01*
X148900000Y-116800000D02*
X149100000Y-116600000D01*
X125500000Y-123600000D02*
X125300000Y-123400000D01*
X120500000Y-118600000D02*
X120300000Y-118400000D01*
X168100000Y-107600000D02*
X168300000Y-107400000D01*
X121500000Y-119600000D02*
X121300000Y-119400000D01*
X120300000Y-118400000D02*
X120100000Y-118200000D01*
X118900000Y-117000000D02*
X118500000Y-116600000D01*
X160900000Y-114800000D02*
X161100000Y-114600000D01*
X168300000Y-107400000D02*
X168700000Y-107000000D01*
X122300000Y-120400000D02*
X122100000Y-120200000D01*
X129699999Y-129600000D02*
X129500000Y-129800000D01*
X119500000Y-117600000D02*
X119300000Y-117400000D01*
X163700000Y-119800000D02*
X164100000Y-120200000D01*
X160700000Y-116800000D02*
X160700000Y-115000000D01*
X162300000Y-118400000D02*
X162500000Y-118600000D01*
X142900000Y-122800000D02*
X142700000Y-123000000D01*
X123900000Y-122000000D02*
X123500000Y-121600000D01*
X118300000Y-116400000D02*
X118100000Y-116200000D01*
X147700000Y-118000000D02*
X147900000Y-117800000D01*
X142700000Y-123000000D02*
X142300000Y-123400000D01*
X149300000Y-116400000D02*
X149700000Y-116000000D01*
X130699999Y-128600000D02*
X130500000Y-128800000D01*
X167100000Y-123200000D02*
X167300000Y-123400000D01*
X161900000Y-118000000D02*
X162100000Y-118200000D01*
X119900000Y-118000000D02*
X119500000Y-117600000D01*
X117900000Y-116000000D02*
X113500000Y-116000000D01*
X126900000Y-125000000D02*
X126500000Y-124600000D01*
X148300000Y-117400000D02*
X148700000Y-117000000D01*
X149100000Y-116600000D02*
X149300000Y-116400000D01*
X137700000Y-129800000D02*
X136300000Y-131199999D01*
X164300000Y-120400000D02*
X164500000Y-120600000D01*
X124500000Y-122600000D02*
X124300000Y-122400000D01*
X131100000Y-128199999D02*
X130900000Y-128400000D01*
X130900000Y-126200000D02*
X131100000Y-126000000D01*
X131699999Y-128800000D02*
X131500000Y-128600000D01*
X160900000Y-117000000D02*
X161100000Y-117200000D01*
X167700000Y-123800000D02*
X167900000Y-124000000D01*
X168700000Y-107000000D02*
X170700000Y-107000000D01*
X142300000Y-123400000D02*
X142300000Y-125200000D01*
X133900000Y-131000000D02*
X133699999Y-130800000D01*
X165700000Y-121800000D02*
X166100000Y-122200000D01*
X133500000Y-130600000D02*
X132900000Y-130000000D01*
X118500000Y-116600000D02*
X118300000Y-116400000D01*
X167300000Y-108400000D02*
X167700000Y-108000000D01*
X164300000Y-111400000D02*
X164700000Y-111000000D01*
X147100000Y-118600000D02*
X147300000Y-118400000D01*
X165100000Y-110600000D02*
X165300000Y-110400000D01*
X146300000Y-119400000D02*
X146700000Y-119000000D01*
X148700000Y-117000000D02*
X148900000Y-116800000D01*
X144900000Y-120800000D02*
X145100000Y-120600000D01*
X162700000Y-118800000D02*
X162900000Y-119000000D01*
X167500000Y-123600000D02*
X167700000Y-123800000D01*
X166300000Y-122400000D02*
X166500000Y-122600000D01*
X125900000Y-124000000D02*
X125500000Y-123600000D01*
X132900000Y-124200000D02*
X133100000Y-124000000D01*
X165500000Y-121600000D02*
X165700000Y-121800000D01*
X162300000Y-113400000D02*
X162700000Y-113000000D01*
X163700000Y-112000000D02*
X164100000Y-111600000D01*
X123100000Y-121200000D02*
X122900000Y-121000000D01*
X124100000Y-122200000D02*
X123900000Y-122000000D01*
X127900000Y-126000000D02*
X127500000Y-125600000D01*
X134100000Y-131199999D02*
X133900000Y-131000000D01*
X143700000Y-122000000D02*
X143900000Y-121800000D01*
X166700000Y-122800000D02*
X167100000Y-123200000D01*
X164500000Y-120600000D02*
X164700000Y-120800000D01*
X132100000Y-125000000D02*
X132300000Y-124800000D01*
X125100000Y-123200000D02*
X124900000Y-123000000D01*
X131500000Y-125600000D02*
X131699999Y-125400000D01*
X146100000Y-119600000D02*
X146300000Y-119400000D01*
X167100000Y-108600000D02*
X167300000Y-108400000D01*
X132699999Y-124400000D02*
X132900000Y-124200000D01*
X145100000Y-120600000D02*
X145300000Y-120400000D01*
X164700000Y-111000000D02*
X165100000Y-110600000D01*
X123500000Y-121600000D02*
X123300000Y-121400000D01*
X119100000Y-117200000D02*
X118900000Y-117000000D01*
X145300000Y-120400000D02*
X145700000Y-120000000D01*
X143300000Y-122400000D02*
X143100000Y-122600000D01*
X164100000Y-111600000D02*
X164300000Y-111400000D01*
X166100000Y-109600000D02*
X166300000Y-109400000D01*
X130900000Y-128400000D02*
X130699999Y-128600000D01*
X126100000Y-124200000D02*
X125900000Y-124000000D01*
X161100000Y-117200000D02*
X161300000Y-117400000D01*
X129900000Y-129400000D02*
X129699999Y-129600000D01*
X121900000Y-120000000D02*
X121500000Y-119600000D01*
X166500000Y-122600000D02*
X166700000Y-122800000D01*
X131500000Y-128600000D02*
X130900000Y-128000000D01*
X121300000Y-119400000D02*
X121100000Y-119200000D01*
X149700000Y-116000000D02*
X152500000Y-116000000D01*
X162900000Y-112800000D02*
X163100000Y-112600000D01*
X160700000Y-115000000D02*
X160900000Y-114800000D01*
X143900000Y-121800000D02*
X144100000Y-121600000D01*
X122900000Y-121000000D02*
X122500000Y-120600000D01*
X130900000Y-128000000D02*
X130900000Y-126200000D01*
X160700000Y-116800000D02*
X160900000Y-117000000D01*
X145700000Y-120000000D02*
X145900000Y-119800000D01*
X146900000Y-118800000D02*
X147100000Y-118600000D01*
X166700000Y-109000000D02*
X167100000Y-108600000D01*
X163500000Y-119600000D02*
X163700000Y-119800000D01*
X162100000Y-113600000D02*
X162300000Y-113400000D01*
X131900000Y-125200000D02*
X132100000Y-125000000D01*
X163100000Y-119200000D02*
X163300000Y-119400000D01*
X131699999Y-125400000D02*
X131900000Y-125200000D01*
X130900000Y-126200000D02*
X128100000Y-126200000D01*
X163100000Y-112600000D02*
X163300000Y-112400000D01*
X139900000Y-129800000D02*
X137700000Y-129800000D01*
X131900000Y-129000000D02*
X131699999Y-128800000D01*
X147900000Y-117800000D02*
X148100000Y-117600000D01*
X161900000Y-113800000D02*
X162100000Y-113600000D01*
X146700000Y-119000000D02*
X146900000Y-118800000D01*
X162900000Y-119000000D02*
X163100000Y-119200000D01*
X126300000Y-124400000D02*
X126100000Y-124200000D01*
X143500000Y-122200000D02*
X143300000Y-122400000D01*
X167700000Y-108000000D02*
X168100000Y-107600000D01*
X147300000Y-118400000D02*
X147700000Y-118000000D01*
X167900000Y-124000000D02*
X170700000Y-124000000D01*
X132300000Y-124800000D02*
X132500000Y-124600000D01*
X167300000Y-123400000D02*
X167500000Y-123600000D01*
X127300000Y-125400000D02*
X127100000Y-125200000D01*
X132900000Y-130000000D02*
X132699999Y-129800000D01*
X119300000Y-117400000D02*
X119100000Y-117200000D01*
%TD*%
%TA.AperFunction,Conductor*%
%TO.N,GND_CHAIN*%
G36*
X178142539Y-102320185D02*
G01*
X178188294Y-102372989D01*
X178199500Y-102424500D01*
X178199500Y-140575500D01*
X178179815Y-140642539D01*
X178127011Y-140688294D01*
X178075500Y-140699500D01*
X157924500Y-140699500D01*
X157857461Y-140679815D01*
X157811706Y-140627011D01*
X157800500Y-140575500D01*
X157800500Y-135105513D01*
X162399500Y-135105513D01*
X162399500Y-135294486D01*
X162429059Y-135481118D01*
X162487454Y-135660836D01*
X162533379Y-135750968D01*
X162573240Y-135829199D01*
X162684310Y-135982073D01*
X162817927Y-136115690D01*
X162970801Y-136226760D01*
X163050347Y-136267290D01*
X163139163Y-136312545D01*
X163139165Y-136312545D01*
X163139168Y-136312547D01*
X163235497Y-136343846D01*
X163318881Y-136370940D01*
X163505514Y-136400500D01*
X163505519Y-136400500D01*
X163694486Y-136400500D01*
X163881118Y-136370940D01*
X163938433Y-136352317D01*
X164060832Y-136312547D01*
X164229199Y-136226760D01*
X164338040Y-136147682D01*
X169300000Y-136147682D01*
X169300000Y-136352317D01*
X169332009Y-136554417D01*
X169395244Y-136749031D01*
X169488139Y-136931347D01*
X169550279Y-137016876D01*
X170057241Y-136509914D01*
X170119881Y-136618408D01*
X170231592Y-136730119D01*
X170340083Y-136792757D01*
X169833121Y-137299719D01*
X169833122Y-137299720D01*
X169918640Y-137361852D01*
X169918649Y-137361858D01*
X170100968Y-137454755D01*
X170295582Y-137517990D01*
X170497683Y-137550000D01*
X170702317Y-137550000D01*
X170904417Y-137517990D01*
X171099031Y-137454755D01*
X171281349Y-137361859D01*
X171366876Y-137299719D01*
X171366877Y-137299718D01*
X170859916Y-136792757D01*
X170968408Y-136730119D01*
X171080119Y-136618408D01*
X171142757Y-136509915D01*
X171649718Y-137016877D01*
X171649719Y-137016876D01*
X171711859Y-136931349D01*
X171804755Y-136749031D01*
X171867990Y-136554417D01*
X171900000Y-136352317D01*
X171900000Y-136147682D01*
X171867990Y-135945582D01*
X171804755Y-135750968D01*
X171711858Y-135568649D01*
X171711852Y-135568640D01*
X171649720Y-135483122D01*
X171649719Y-135483121D01*
X171142757Y-135990083D01*
X171080119Y-135881592D01*
X170968408Y-135769881D01*
X170859914Y-135707241D01*
X171366876Y-135200279D01*
X171281347Y-135138139D01*
X171099031Y-135045244D01*
X170904417Y-134982009D01*
X170702317Y-134950000D01*
X170497683Y-134950000D01*
X170295582Y-134982009D01*
X170100968Y-135045244D01*
X169918648Y-135138141D01*
X169833122Y-135200278D01*
X169833122Y-135200279D01*
X170340085Y-135707242D01*
X170231592Y-135769881D01*
X170119881Y-135881592D01*
X170057242Y-135990085D01*
X169550279Y-135483122D01*
X169550278Y-135483122D01*
X169488141Y-135568648D01*
X169395244Y-135750968D01*
X169332009Y-135945582D01*
X169300000Y-136147682D01*
X164338040Y-136147682D01*
X164382073Y-136115690D01*
X164515690Y-135982073D01*
X164626760Y-135829199D01*
X164712547Y-135660832D01*
X164770940Y-135481118D01*
X164800500Y-135294486D01*
X164800500Y-135105513D01*
X164770940Y-134918881D01*
X164712545Y-134739163D01*
X164626759Y-134570800D01*
X164515690Y-134417927D01*
X164382073Y-134284310D01*
X164229199Y-134173240D01*
X164060836Y-134087454D01*
X163881118Y-134029059D01*
X163694486Y-133999500D01*
X163694481Y-133999500D01*
X163505519Y-133999500D01*
X163505514Y-133999500D01*
X163318881Y-134029059D01*
X163139163Y-134087454D01*
X162970800Y-134173240D01*
X162883579Y-134236610D01*
X162817927Y-134284310D01*
X162817925Y-134284312D01*
X162817924Y-134284312D01*
X162684312Y-134417924D01*
X162684312Y-134417925D01*
X162684310Y-134417927D01*
X162636610Y-134483579D01*
X162573240Y-134570800D01*
X162487454Y-134739163D01*
X162429059Y-134918881D01*
X162399500Y-135105513D01*
X157800500Y-135105513D01*
X157800500Y-132527719D01*
X157802667Y-132516073D01*
X157800500Y-132488294D01*
X157800500Y-132460438D01*
X157800394Y-132460042D01*
X157796544Y-132437593D01*
X157795190Y-132420235D01*
X157794854Y-132407501D01*
X157795300Y-132389810D01*
X157791630Y-132374592D01*
X157790413Y-132358988D01*
X157782394Y-132336293D01*
X157772908Y-132296957D01*
X157770509Y-132284036D01*
X157768293Y-132267159D01*
X157768293Y-132267156D01*
X157767889Y-132266181D01*
X157765830Y-132261203D01*
X157765829Y-132261200D01*
X157762128Y-132252256D01*
X157758351Y-132236593D01*
X157747066Y-132215860D01*
X157731635Y-132178571D01*
X157727324Y-132166390D01*
X157722383Y-132149709D01*
X157722382Y-132149708D01*
X157719216Y-132144542D01*
X157710360Y-132127156D01*
X157708038Y-132121544D01*
X157697441Y-132107724D01*
X157690131Y-132097082D01*
X157672233Y-132067878D01*
X157666099Y-132056595D01*
X157658540Y-132040785D01*
X157658539Y-132040784D01*
X157658539Y-132040783D01*
X157654667Y-132036259D01*
X157648283Y-132028798D01*
X157640040Y-132015348D01*
X157622667Y-131998863D01*
X157596541Y-131968332D01*
X157588498Y-131957850D01*
X157578933Y-131943904D01*
X157578932Y-131943903D01*
X157566627Y-131933373D01*
X157556097Y-131921068D01*
X157536690Y-131907756D01*
X157531664Y-131903455D01*
X157531662Y-131903453D01*
X157506033Y-131881522D01*
X157496703Y-131872660D01*
X157484655Y-131859963D01*
X157484650Y-131859959D01*
X157479558Y-131856838D01*
X157479558Y-131856837D01*
X157471194Y-131851711D01*
X157459214Y-131841460D01*
X157437619Y-131831134D01*
X157432122Y-131827766D01*
X157432120Y-131827765D01*
X157402914Y-131809865D01*
X157392267Y-131802550D01*
X157378452Y-131791958D01*
X157378448Y-131791956D01*
X157372844Y-131789636D01*
X157372844Y-131789637D01*
X157363803Y-131785896D01*
X157350293Y-131777616D01*
X157327401Y-131770833D01*
X157290210Y-131755444D01*
X157278361Y-131749788D01*
X157263402Y-131741647D01*
X157263399Y-131741646D01*
X157257129Y-131740134D01*
X157238796Y-131734170D01*
X157232836Y-131731704D01*
X157215952Y-131729487D01*
X157203029Y-131727088D01*
X157189783Y-131723894D01*
X157169913Y-131719102D01*
X157157682Y-131715477D01*
X157141011Y-131709587D01*
X157141010Y-131709586D01*
X157135225Y-131709135D01*
X157135225Y-131709134D01*
X157125396Y-131708367D01*
X157110183Y-131704699D01*
X157086132Y-131705303D01*
X157079766Y-131704807D01*
X157079753Y-131704807D01*
X157062403Y-131703454D01*
X157039953Y-131699604D01*
X157039569Y-131699501D01*
X157039563Y-131699500D01*
X157039562Y-131699500D01*
X157039560Y-131699500D01*
X157016532Y-131699500D01*
X157006889Y-131699124D01*
X157003961Y-131698895D01*
X156983929Y-131697332D01*
X156983926Y-131697332D01*
X156983523Y-131697408D01*
X156960844Y-131699500D01*
X136666254Y-131699500D01*
X136599215Y-131679815D01*
X136553460Y-131627011D01*
X136543516Y-131557853D01*
X136572541Y-131494297D01*
X136578573Y-131487819D01*
X137727883Y-130338510D01*
X165124500Y-130338510D01*
X165124500Y-130661489D01*
X165160659Y-130982410D01*
X165160661Y-130982426D01*
X165232527Y-131297294D01*
X165232531Y-131297306D01*
X165339195Y-131602133D01*
X165339201Y-131602147D01*
X165479327Y-131893122D01*
X165485820Y-131903455D01*
X165651159Y-132166591D01*
X165852527Y-132419099D01*
X166080901Y-132647473D01*
X166333409Y-132848841D01*
X166606875Y-133020671D01*
X166897860Y-133160802D01*
X166897866Y-133160804D01*
X167202693Y-133267468D01*
X167202705Y-133267472D01*
X167517577Y-133339339D01*
X167838511Y-133375499D01*
X167838512Y-133375500D01*
X167838515Y-133375500D01*
X168161488Y-133375500D01*
X168161488Y-133375499D01*
X168482423Y-133339339D01*
X168797295Y-133267472D01*
X169102140Y-133160802D01*
X169393125Y-133020671D01*
X169666591Y-132848841D01*
X169919099Y-132647473D01*
X170147473Y-132419099D01*
X170348841Y-132166591D01*
X170520671Y-131893125D01*
X170660802Y-131602140D01*
X170767472Y-131297295D01*
X170839339Y-130982423D01*
X170875500Y-130661485D01*
X170875500Y-130338515D01*
X170839339Y-130017577D01*
X170767472Y-129702705D01*
X170660802Y-129397860D01*
X170520671Y-129106875D01*
X170348841Y-128833409D01*
X170147473Y-128580901D01*
X169919099Y-128352527D01*
X169666591Y-128151159D01*
X169393125Y-127979329D01*
X169393122Y-127979327D01*
X169102147Y-127839201D01*
X169102133Y-127839195D01*
X168797306Y-127732531D01*
X168797294Y-127732527D01*
X168482426Y-127660661D01*
X168482410Y-127660659D01*
X168161489Y-127624500D01*
X168161485Y-127624500D01*
X167838515Y-127624500D01*
X167838510Y-127624500D01*
X167517589Y-127660659D01*
X167517573Y-127660661D01*
X167202705Y-127732527D01*
X167202693Y-127732531D01*
X166897866Y-127839195D01*
X166897852Y-127839201D01*
X166606877Y-127979327D01*
X166333410Y-128151158D01*
X166080901Y-128352526D01*
X165852526Y-128580901D01*
X165651158Y-128833410D01*
X165479329Y-129106875D01*
X165339201Y-129397852D01*
X165339195Y-129397866D01*
X165232531Y-129702693D01*
X165232527Y-129702705D01*
X165160661Y-130017573D01*
X165160659Y-130017589D01*
X165124500Y-130338510D01*
X137727883Y-130338510D01*
X137829574Y-130236819D01*
X137890897Y-130203334D01*
X137917255Y-130200500D01*
X139559460Y-130200500D01*
X139621460Y-130217113D01*
X139639709Y-130227649D01*
X139706814Y-130266392D01*
X139834108Y-130300500D01*
X139834110Y-130300500D01*
X139965890Y-130300500D01*
X139965892Y-130300500D01*
X140093186Y-130266392D01*
X140207314Y-130200500D01*
X140300500Y-130107314D01*
X140366392Y-129993186D01*
X140400500Y-129865892D01*
X140400500Y-129734108D01*
X140366392Y-129606814D01*
X140300500Y-129492686D01*
X140207314Y-129399500D01*
X140128657Y-129354087D01*
X140093187Y-129333608D01*
X139997980Y-129308098D01*
X139965892Y-129299500D01*
X139834108Y-129299500D01*
X139706814Y-129333608D01*
X139706813Y-129333608D01*
X139706811Y-129333609D01*
X139706810Y-129333609D01*
X139621460Y-129382887D01*
X139559460Y-129399500D01*
X137647273Y-129399500D01*
X137545410Y-129426793D01*
X137454087Y-129479520D01*
X137454084Y-129479522D01*
X136321462Y-130612143D01*
X136260139Y-130645628D01*
X136190447Y-130640644D01*
X136134514Y-130598772D01*
X136110097Y-130533308D01*
X136124949Y-130465035D01*
X136126360Y-130462520D01*
X136166392Y-130393185D01*
X136200500Y-130265891D01*
X136200500Y-130134107D01*
X136166392Y-130006813D01*
X136100500Y-129892685D01*
X136007314Y-129799499D01*
X135893186Y-129733607D01*
X135841558Y-129719773D01*
X135781899Y-129683409D01*
X135751370Y-129620562D01*
X135759665Y-129551186D01*
X135804150Y-129497308D01*
X135841557Y-129480225D01*
X135893186Y-129466392D01*
X136007314Y-129400500D01*
X136100500Y-129307314D01*
X136166392Y-129193186D01*
X136200500Y-129065892D01*
X136200500Y-128934108D01*
X136166392Y-128806814D01*
X136100500Y-128692686D01*
X136061819Y-128654005D01*
X136028334Y-128592682D01*
X136025500Y-128566324D01*
X136025500Y-127734108D01*
X136799500Y-127734108D01*
X136799500Y-127865891D01*
X136833608Y-127993187D01*
X136866554Y-128050250D01*
X136899500Y-128107314D01*
X136992686Y-128200500D01*
X137106814Y-128266392D01*
X137234108Y-128300500D01*
X137234110Y-128300500D01*
X137365890Y-128300500D01*
X137365892Y-128300500D01*
X137493186Y-128266392D01*
X137607314Y-128200500D01*
X137645995Y-128161819D01*
X137707318Y-128128334D01*
X137733676Y-128125500D01*
X146342851Y-128125500D01*
X146342853Y-128125500D01*
X146425639Y-128103318D01*
X146499862Y-128060465D01*
X146699860Y-127860466D01*
X146699862Y-127860465D01*
X146899860Y-127660466D01*
X146899862Y-127660465D01*
X147099860Y-127460466D01*
X147099862Y-127460465D01*
X147299860Y-127260466D01*
X147299862Y-127260465D01*
X147412644Y-127147682D01*
X151300000Y-127147682D01*
X151300000Y-127352317D01*
X151332009Y-127554417D01*
X151395244Y-127749031D01*
X151488139Y-127931347D01*
X151550279Y-128016876D01*
X152057241Y-127509914D01*
X152119881Y-127618408D01*
X152231592Y-127730119D01*
X152340083Y-127792757D01*
X151833121Y-128299719D01*
X151833122Y-128299720D01*
X151918640Y-128361852D01*
X151918649Y-128361858D01*
X152100968Y-128454755D01*
X152295582Y-128517990D01*
X152497683Y-128550000D01*
X152702317Y-128550000D01*
X152904417Y-128517990D01*
X153099031Y-128454755D01*
X153281349Y-128361859D01*
X153366876Y-128299719D01*
X153366877Y-128299718D01*
X152859916Y-127792757D01*
X152968408Y-127730119D01*
X153080119Y-127618408D01*
X153142757Y-127509915D01*
X153649718Y-128016877D01*
X153649719Y-128016876D01*
X153711859Y-127931349D01*
X153804755Y-127749031D01*
X153867990Y-127554417D01*
X153900000Y-127352317D01*
X153900000Y-127147682D01*
X153867990Y-126945582D01*
X153804755Y-126750968D01*
X153711858Y-126568649D01*
X153711852Y-126568640D01*
X153649720Y-126483122D01*
X153649719Y-126483121D01*
X153142757Y-126990083D01*
X153080119Y-126881592D01*
X152968408Y-126769881D01*
X152859914Y-126707241D01*
X153366876Y-126200279D01*
X153281347Y-126138139D01*
X153099031Y-126045244D01*
X152904417Y-125982009D01*
X152702317Y-125950000D01*
X152497683Y-125950000D01*
X152295582Y-125982009D01*
X152100968Y-126045244D01*
X151918648Y-126138141D01*
X151833122Y-126200278D01*
X151833122Y-126200279D01*
X152340085Y-126707242D01*
X152231592Y-126769881D01*
X152119881Y-126881592D01*
X152057242Y-126990085D01*
X151550279Y-126483122D01*
X151550278Y-126483122D01*
X151488141Y-126568648D01*
X151395244Y-126750968D01*
X151332009Y-126945582D01*
X151300000Y-127147682D01*
X147412644Y-127147682D01*
X147499860Y-127060466D01*
X147499862Y-127060465D01*
X147699860Y-126860466D01*
X147699862Y-126860465D01*
X147899860Y-126660466D01*
X147899862Y-126660465D01*
X148099860Y-126460466D01*
X148099862Y-126460465D01*
X148299860Y-126260466D01*
X148299862Y-126260465D01*
X148499860Y-126060466D01*
X148499862Y-126060465D01*
X148699860Y-125860466D01*
X148699862Y-125860465D01*
X148899860Y-125660466D01*
X148899862Y-125660465D01*
X149099860Y-125460466D01*
X149099862Y-125460465D01*
X149170746Y-125389579D01*
X149198509Y-125361818D01*
X149242274Y-125337921D01*
X149259831Y-125328334D01*
X149286189Y-125325500D01*
X162266324Y-125325500D01*
X162333363Y-125345185D01*
X162354004Y-125361818D01*
X162392686Y-125400500D01*
X162506814Y-125466392D01*
X162634108Y-125500500D01*
X162634110Y-125500500D01*
X162765890Y-125500500D01*
X162765892Y-125500500D01*
X162893186Y-125466392D01*
X163007314Y-125400500D01*
X163100500Y-125307314D01*
X163166392Y-125193186D01*
X163200500Y-125065892D01*
X163200500Y-124934108D01*
X163166392Y-124806814D01*
X163100500Y-124692686D01*
X163007314Y-124599500D01*
X162950250Y-124566554D01*
X162893187Y-124533608D01*
X162829539Y-124516554D01*
X162765892Y-124499500D01*
X162634108Y-124499500D01*
X162506812Y-124533608D01*
X162392686Y-124599500D01*
X162392683Y-124599502D01*
X162354005Y-124638181D01*
X162292682Y-124671666D01*
X162266324Y-124674500D01*
X149150465Y-124674500D01*
X149150449Y-124674499D01*
X149142853Y-124674499D01*
X149057147Y-124674499D01*
X149001956Y-124689287D01*
X148974360Y-124696682D01*
X148955805Y-124707395D01*
X148937250Y-124718108D01*
X148900138Y-124739535D01*
X148846604Y-124793069D01*
X148846603Y-124793068D01*
X146949597Y-126690075D01*
X146888274Y-126723560D01*
X146818582Y-126718576D01*
X146762649Y-126676704D01*
X146738232Y-126611240D01*
X146743985Y-126564075D01*
X146770940Y-126481118D01*
X146800500Y-126294486D01*
X146800500Y-126105513D01*
X146770940Y-125918881D01*
X146724942Y-125777315D01*
X146712547Y-125739168D01*
X146712545Y-125739165D01*
X146712545Y-125739163D01*
X146626759Y-125570800D01*
X146515690Y-125417927D01*
X146382073Y-125284310D01*
X146229199Y-125173240D01*
X146060836Y-125087454D01*
X145881118Y-125029059D01*
X145694486Y-124999500D01*
X145694481Y-124999500D01*
X145505519Y-124999500D01*
X145505514Y-124999500D01*
X145318881Y-125029059D01*
X145139163Y-125087454D01*
X144970800Y-125173240D01*
X144883579Y-125236610D01*
X144817927Y-125284310D01*
X144817925Y-125284312D01*
X144817924Y-125284312D01*
X144684312Y-125417924D01*
X144684312Y-125417925D01*
X144684310Y-125417927D01*
X144649099Y-125466391D01*
X144573240Y-125570800D01*
X144487454Y-125739163D01*
X144429059Y-125918881D01*
X144399500Y-126105513D01*
X144399500Y-126294486D01*
X144429059Y-126481118D01*
X144487454Y-126660836D01*
X144558617Y-126800500D01*
X144573240Y-126829199D01*
X144684310Y-126982073D01*
X144817927Y-127115690D01*
X144894067Y-127171009D01*
X144970802Y-127226761D01*
X144996815Y-127240015D01*
X145047612Y-127287989D01*
X145064407Y-127355810D01*
X145041870Y-127421945D01*
X144987155Y-127465397D01*
X144940521Y-127474500D01*
X143618749Y-127474500D01*
X143551710Y-127454815D01*
X143505955Y-127402011D01*
X143496011Y-127332853D01*
X143511360Y-127288502D01*
X143566392Y-127193186D01*
X143600500Y-127065892D01*
X143600500Y-126934108D01*
X143566392Y-126806814D01*
X143500500Y-126692686D01*
X143461819Y-126654005D01*
X143428334Y-126592682D01*
X143425500Y-126566324D01*
X143425500Y-123986188D01*
X143434144Y-123956748D01*
X143440667Y-123926763D01*
X143444422Y-123921745D01*
X143445185Y-123919149D01*
X143461812Y-123898513D01*
X143499860Y-123860466D01*
X143499862Y-123860465D01*
X143699860Y-123660466D01*
X143699862Y-123660465D01*
X143899860Y-123460466D01*
X143899862Y-123460465D01*
X144099860Y-123260466D01*
X144099862Y-123260465D01*
X144299860Y-123060466D01*
X144299862Y-123060465D01*
X144499860Y-122860466D01*
X144499862Y-122860465D01*
X144699860Y-122660466D01*
X144699862Y-122660465D01*
X144899860Y-122460466D01*
X144899862Y-122460465D01*
X145099860Y-122260466D01*
X145099862Y-122260465D01*
X145299860Y-122060466D01*
X145299862Y-122060465D01*
X145499860Y-121860466D01*
X145499862Y-121860465D01*
X145699860Y-121660466D01*
X145699862Y-121660465D01*
X145899860Y-121460466D01*
X145899862Y-121460465D01*
X146099860Y-121260466D01*
X146099862Y-121260465D01*
X146299860Y-121060466D01*
X146299862Y-121060465D01*
X146499860Y-120860466D01*
X146499862Y-120860465D01*
X146699860Y-120660466D01*
X146699862Y-120660465D01*
X146899860Y-120460466D01*
X146899862Y-120460465D01*
X147099860Y-120260466D01*
X147099862Y-120260465D01*
X147173098Y-120187228D01*
X147191099Y-120177398D01*
X147234416Y-120153745D01*
X147234418Y-120153745D01*
X147304110Y-120158729D01*
X147334576Y-120181536D01*
X147360042Y-120200599D01*
X147384460Y-120266063D01*
X147372497Y-120328711D01*
X147339201Y-120397851D01*
X147339195Y-120397866D01*
X147232531Y-120702693D01*
X147232527Y-120702705D01*
X147160661Y-121017573D01*
X147160659Y-121017589D01*
X147124500Y-121338510D01*
X147124500Y-121661489D01*
X147160659Y-121982410D01*
X147160661Y-121982426D01*
X147232527Y-122297294D01*
X147232531Y-122297306D01*
X147339195Y-122602133D01*
X147339201Y-122602147D01*
X147479327Y-122893122D01*
X147479329Y-122893125D01*
X147651159Y-123166591D01*
X147852527Y-123419099D01*
X148080901Y-123647473D01*
X148333409Y-123848841D01*
X148606875Y-124020671D01*
X148897860Y-124160802D01*
X148897866Y-124160804D01*
X149202693Y-124267468D01*
X149202705Y-124267472D01*
X149517577Y-124339339D01*
X149838511Y-124375499D01*
X149838512Y-124375500D01*
X149838515Y-124375500D01*
X150161488Y-124375500D01*
X150161488Y-124375499D01*
X150482423Y-124339339D01*
X150797295Y-124267472D01*
X151102140Y-124160802D01*
X151393125Y-124020671D01*
X151666591Y-123848841D01*
X151919099Y-123647473D01*
X152147473Y-123419099D01*
X152348841Y-123166591D01*
X152520671Y-122893125D01*
X152660802Y-122602140D01*
X152767472Y-122297295D01*
X152839339Y-121982423D01*
X152875500Y-121661485D01*
X152875500Y-121338515D01*
X152839339Y-121017577D01*
X152767472Y-120702705D01*
X152755165Y-120667535D01*
X152661599Y-120400138D01*
X152660802Y-120397860D01*
X152520671Y-120106875D01*
X152348841Y-119833409D01*
X152147473Y-119580901D01*
X151919099Y-119352527D01*
X151903567Y-119340141D01*
X151812522Y-119267535D01*
X151666591Y-119151159D01*
X151393125Y-118979329D01*
X151393122Y-118979327D01*
X151337594Y-118952586D01*
X151285734Y-118905763D01*
X151267422Y-118838336D01*
X151288470Y-118771712D01*
X151342197Y-118727044D01*
X151359290Y-118721095D01*
X151425639Y-118703318D01*
X151499862Y-118660465D01*
X151960465Y-118199862D01*
X151960465Y-118199861D01*
X152099860Y-118060466D01*
X152099862Y-118060465D01*
X152299860Y-117860466D01*
X152299862Y-117860465D01*
X152499860Y-117660466D01*
X152499862Y-117660465D01*
X152960465Y-117199862D01*
X152960465Y-117199861D01*
X153099860Y-117060466D01*
X153099862Y-117060465D01*
X153299860Y-116860466D01*
X153299862Y-116860465D01*
X153387821Y-116772505D01*
X153449141Y-116739022D01*
X153518833Y-116744006D01*
X153574767Y-116785877D01*
X153599184Y-116851341D01*
X153599500Y-116860188D01*
X153599500Y-116865892D01*
X153614127Y-116920480D01*
X153633608Y-116993187D01*
X153637622Y-117000139D01*
X153699500Y-117107314D01*
X153792686Y-117200500D01*
X153891521Y-117257563D01*
X153906810Y-117266390D01*
X153906814Y-117266392D01*
X154034108Y-117300500D01*
X154034110Y-117300500D01*
X154165890Y-117300500D01*
X154165892Y-117300500D01*
X154293186Y-117266392D01*
X154373219Y-117220185D01*
X154378540Y-117217113D01*
X154440540Y-117200500D01*
X160482746Y-117200500D01*
X160512186Y-117209144D01*
X160542173Y-117215668D01*
X160547188Y-117219422D01*
X160549785Y-117220185D01*
X160570427Y-117236819D01*
X160572449Y-117238841D01*
X160572452Y-117238845D01*
X160579519Y-117245912D01*
X160579520Y-117245913D01*
X160673142Y-117339535D01*
X160772449Y-117438841D01*
X160772452Y-117438845D01*
X160779519Y-117445912D01*
X160779520Y-117445913D01*
X160873142Y-117539535D01*
X160972449Y-117638841D01*
X160972452Y-117638845D01*
X160979519Y-117645912D01*
X160979520Y-117645913D01*
X161073142Y-117739535D01*
X161172449Y-117838841D01*
X161172452Y-117838845D01*
X161179519Y-117845912D01*
X161179520Y-117845913D01*
X161279189Y-117945582D01*
X161372449Y-118038841D01*
X161372452Y-118038845D01*
X161379519Y-118045912D01*
X161379520Y-118045913D01*
X161473143Y-118139536D01*
X161572449Y-118238841D01*
X161572452Y-118238845D01*
X161579519Y-118245912D01*
X161579520Y-118245913D01*
X161673142Y-118339535D01*
X161772449Y-118438841D01*
X161772452Y-118438845D01*
X161779519Y-118445912D01*
X161779520Y-118445913D01*
X161873142Y-118539535D01*
X161972449Y-118638841D01*
X161972452Y-118638845D01*
X161979519Y-118645912D01*
X161979520Y-118645913D01*
X162073142Y-118739535D01*
X162172449Y-118838841D01*
X162172452Y-118838845D01*
X162179519Y-118845912D01*
X162179520Y-118845913D01*
X162273142Y-118939535D01*
X162372449Y-119038841D01*
X162372452Y-119038845D01*
X162379519Y-119045912D01*
X162379520Y-119045913D01*
X162473143Y-119139536D01*
X162572449Y-119238841D01*
X162572452Y-119238845D01*
X162579519Y-119245912D01*
X162579520Y-119245913D01*
X162673748Y-119340141D01*
X162772449Y-119438841D01*
X162772452Y-119438845D01*
X162779519Y-119445912D01*
X162779520Y-119445913D01*
X162873142Y-119539535D01*
X162972449Y-119638841D01*
X162972452Y-119638845D01*
X162979519Y-119645912D01*
X162979520Y-119645913D01*
X163073142Y-119739535D01*
X163172449Y-119838841D01*
X163172452Y-119838845D01*
X163179519Y-119845912D01*
X163179520Y-119845913D01*
X163273142Y-119939535D01*
X163372449Y-120038841D01*
X163372452Y-120038845D01*
X163779520Y-120445913D01*
X163972449Y-120638841D01*
X163972452Y-120638845D01*
X163979519Y-120645912D01*
X163979520Y-120645913D01*
X164076926Y-120743319D01*
X164172449Y-120838841D01*
X164172452Y-120838845D01*
X164372449Y-121038841D01*
X164372452Y-121038845D01*
X164779520Y-121445913D01*
X164972449Y-121638841D01*
X164972452Y-121638845D01*
X165172449Y-121838841D01*
X165172452Y-121838845D01*
X165372449Y-122038841D01*
X165372452Y-122038845D01*
X165779520Y-122445913D01*
X165972449Y-122638841D01*
X165972452Y-122638845D01*
X166172449Y-122838841D01*
X166172452Y-122838845D01*
X166372449Y-123038841D01*
X166372452Y-123038845D01*
X166779520Y-123445913D01*
X166972449Y-123638841D01*
X166972452Y-123638845D01*
X167172449Y-123838841D01*
X167172452Y-123838845D01*
X167372449Y-124038841D01*
X167372452Y-124038845D01*
X167572449Y-124238841D01*
X167572452Y-124238845D01*
X167579520Y-124245913D01*
X167654087Y-124320480D01*
X167745411Y-124373206D01*
X167745413Y-124373207D01*
X167847273Y-124400501D01*
X167847275Y-124400501D01*
X167960323Y-124400501D01*
X167960339Y-124400500D01*
X170359460Y-124400500D01*
X170421460Y-124417113D01*
X170506814Y-124466392D01*
X170634108Y-124500500D01*
X170634110Y-124500500D01*
X170765890Y-124500500D01*
X170765892Y-124500500D01*
X170893186Y-124466392D01*
X171007314Y-124400500D01*
X171100500Y-124307314D01*
X171166392Y-124193186D01*
X171200500Y-124065892D01*
X171200500Y-123934108D01*
X171166392Y-123806814D01*
X171100500Y-123692686D01*
X171007314Y-123599500D01*
X170944410Y-123563182D01*
X170893187Y-123533608D01*
X170829539Y-123516554D01*
X170765892Y-123499500D01*
X170634108Y-123499500D01*
X170506814Y-123533608D01*
X170506813Y-123533608D01*
X170506811Y-123533609D01*
X170506810Y-123533609D01*
X170421460Y-123582887D01*
X170359460Y-123599500D01*
X168117255Y-123599500D01*
X168087818Y-123590856D01*
X168057829Y-123584333D01*
X168052812Y-123580577D01*
X168050216Y-123579815D01*
X168029579Y-123563186D01*
X167945913Y-123479520D01*
X167945911Y-123479519D01*
X167745913Y-123279520D01*
X167745912Y-123279519D01*
X167738848Y-123272455D01*
X167738841Y-123272449D01*
X167538848Y-123072455D01*
X167538841Y-123072449D01*
X167345913Y-122879520D01*
X166938848Y-122472455D01*
X166938841Y-122472449D01*
X166738848Y-122272455D01*
X166738841Y-122272449D01*
X166538848Y-122072455D01*
X166538841Y-122072449D01*
X166345913Y-121879520D01*
X165938848Y-121472455D01*
X165938841Y-121472449D01*
X165738848Y-121272455D01*
X165738841Y-121272449D01*
X165538848Y-121072455D01*
X165538841Y-121072449D01*
X165345913Y-120879520D01*
X164938848Y-120472455D01*
X164938841Y-120472449D01*
X164738848Y-120272455D01*
X164738841Y-120272449D01*
X164643790Y-120177398D01*
X164545913Y-120079520D01*
X164545912Y-120079519D01*
X164538848Y-120072455D01*
X164538841Y-120072449D01*
X164345913Y-119879520D01*
X163938855Y-119472462D01*
X163938847Y-119472455D01*
X163745913Y-119279520D01*
X163738848Y-119272455D01*
X163738841Y-119272449D01*
X163538848Y-119072455D01*
X163538841Y-119072449D01*
X163445721Y-118979329D01*
X163345913Y-118879520D01*
X163345912Y-118879519D01*
X163338848Y-118872455D01*
X163338841Y-118872449D01*
X163138848Y-118672455D01*
X163138841Y-118672449D01*
X162958317Y-118491924D01*
X162924832Y-118430601D01*
X162929816Y-118360909D01*
X162971688Y-118304976D01*
X163037152Y-118280559D01*
X163102294Y-118293759D01*
X163139161Y-118312544D01*
X163139164Y-118312544D01*
X163139168Y-118312547D01*
X163261567Y-118352317D01*
X163318881Y-118370940D01*
X163505514Y-118400500D01*
X163505519Y-118400500D01*
X163694486Y-118400500D01*
X163881118Y-118370940D01*
X163911990Y-118360909D01*
X164060832Y-118312547D01*
X164229199Y-118226760D01*
X164338040Y-118147682D01*
X169300000Y-118147682D01*
X169300000Y-118352317D01*
X169332009Y-118554417D01*
X169395244Y-118749031D01*
X169488139Y-118931347D01*
X169550279Y-119016876D01*
X170057241Y-118509914D01*
X170119881Y-118618408D01*
X170231592Y-118730119D01*
X170340083Y-118792757D01*
X169833121Y-119299719D01*
X169833122Y-119299720D01*
X169918640Y-119361852D01*
X169918649Y-119361858D01*
X170100968Y-119454755D01*
X170295582Y-119517990D01*
X170497683Y-119550000D01*
X170702317Y-119550000D01*
X170904417Y-119517990D01*
X171099031Y-119454755D01*
X171281349Y-119361859D01*
X171366876Y-119299719D01*
X171366877Y-119299718D01*
X170859916Y-118792757D01*
X170968408Y-118730119D01*
X171080119Y-118618408D01*
X171142757Y-118509915D01*
X171649718Y-119016877D01*
X171649719Y-119016876D01*
X171711859Y-118931349D01*
X171804755Y-118749031D01*
X171867990Y-118554417D01*
X171900000Y-118352317D01*
X171900000Y-118147682D01*
X171867990Y-117945582D01*
X171804755Y-117750968D01*
X171711858Y-117568649D01*
X171711852Y-117568640D01*
X171649720Y-117483122D01*
X171649719Y-117483121D01*
X171142757Y-117990083D01*
X171080119Y-117881592D01*
X170968408Y-117769881D01*
X170859914Y-117707241D01*
X171366876Y-117200279D01*
X171281347Y-117138139D01*
X171099031Y-117045244D01*
X170904417Y-116982009D01*
X170702317Y-116950000D01*
X170497683Y-116950000D01*
X170295582Y-116982009D01*
X170100968Y-117045244D01*
X169918648Y-117138141D01*
X169833122Y-117200278D01*
X169833122Y-117200279D01*
X170340085Y-117707242D01*
X170231592Y-117769881D01*
X170119881Y-117881592D01*
X170057242Y-117990085D01*
X169550279Y-117483122D01*
X169550278Y-117483122D01*
X169488141Y-117568648D01*
X169395244Y-117750968D01*
X169332009Y-117945582D01*
X169300000Y-118147682D01*
X164338040Y-118147682D01*
X164382073Y-118115690D01*
X164515690Y-117982073D01*
X164626760Y-117829199D01*
X164712547Y-117660832D01*
X164770940Y-117481118D01*
X164773091Y-117467535D01*
X164800500Y-117294486D01*
X164800500Y-117105513D01*
X164770940Y-116918881D01*
X164727724Y-116785877D01*
X164712547Y-116739168D01*
X164712545Y-116739165D01*
X164712545Y-116739163D01*
X164641708Y-116600138D01*
X164626760Y-116570801D01*
X164515690Y-116417927D01*
X164382073Y-116284310D01*
X164229199Y-116173240D01*
X164225166Y-116171185D01*
X164060836Y-116087454D01*
X163881118Y-116029059D01*
X163694486Y-115999500D01*
X163694481Y-115999500D01*
X163505519Y-115999500D01*
X163505514Y-115999500D01*
X163318881Y-116029059D01*
X163139163Y-116087454D01*
X162970800Y-116173240D01*
X162896792Y-116227011D01*
X162817927Y-116284310D01*
X162817925Y-116284312D01*
X162817924Y-116284312D01*
X162684312Y-116417924D01*
X162684312Y-116417925D01*
X162684310Y-116417927D01*
X162649099Y-116466391D01*
X162573240Y-116570800D01*
X162487454Y-116739163D01*
X162429059Y-116918881D01*
X162399500Y-117105513D01*
X162399500Y-117294486D01*
X162429059Y-117481118D01*
X162487455Y-117660838D01*
X162506241Y-117697706D01*
X162509211Y-117713521D01*
X162516923Y-117727644D01*
X162515527Y-117747152D01*
X162519138Y-117766375D01*
X162513086Y-117781284D01*
X162511939Y-117797335D01*
X162500217Y-117812993D01*
X162492862Y-117831116D01*
X162479711Y-117840386D01*
X162470068Y-117853269D01*
X162451742Y-117860104D01*
X162435756Y-117871374D01*
X162419678Y-117872063D01*
X162404603Y-117877686D01*
X162385491Y-117873528D01*
X162365951Y-117874366D01*
X162351294Y-117866089D01*
X162336330Y-117862834D01*
X162308076Y-117841683D01*
X162232768Y-117766375D01*
X162186873Y-117720480D01*
X162145913Y-117679520D01*
X162145911Y-117679519D01*
X161945913Y-117479520D01*
X161945912Y-117479519D01*
X161938848Y-117472455D01*
X161938841Y-117472449D01*
X161738848Y-117272455D01*
X161738841Y-117272449D01*
X161538848Y-117072455D01*
X161538841Y-117072449D01*
X161338848Y-116872455D01*
X161338841Y-116872449D01*
X161238899Y-116772507D01*
X161145913Y-116679520D01*
X161145912Y-116679519D01*
X161138845Y-116672452D01*
X161138845Y-116672451D01*
X161138829Y-116672436D01*
X161136796Y-116670404D01*
X161103327Y-116609073D01*
X161100500Y-116582745D01*
X161100500Y-115217255D01*
X161120185Y-115150216D01*
X161136818Y-115129574D01*
X161145912Y-115120480D01*
X161145913Y-115120480D01*
X161328471Y-114937919D01*
X161328474Y-114937918D01*
X161345912Y-114920480D01*
X161345913Y-114920480D01*
X161528472Y-114737918D01*
X161528475Y-114737917D01*
X161545912Y-114720480D01*
X161545913Y-114720480D01*
X162020480Y-114245913D01*
X162020480Y-114245912D01*
X162128470Y-114137920D01*
X162128474Y-114137918D01*
X162145912Y-114120480D01*
X162145913Y-114120480D01*
X162328471Y-113937919D01*
X162328474Y-113937918D01*
X162345912Y-113920480D01*
X162345913Y-113920480D01*
X162528472Y-113737918D01*
X162528475Y-113737917D01*
X162545912Y-113720480D01*
X162545913Y-113720480D01*
X163020480Y-113245913D01*
X163020480Y-113245912D01*
X163128470Y-113137920D01*
X163128474Y-113137918D01*
X163145912Y-113120480D01*
X163145913Y-113120480D01*
X163328471Y-112937919D01*
X163328474Y-112937918D01*
X163345912Y-112920480D01*
X163345913Y-112920480D01*
X163528472Y-112737918D01*
X163528475Y-112737917D01*
X163545912Y-112720480D01*
X163545913Y-112720480D01*
X164020480Y-112245913D01*
X164420480Y-111845913D01*
X164420480Y-111845912D01*
X164528472Y-111737918D01*
X164528475Y-111737917D01*
X164545912Y-111720480D01*
X164545913Y-111720480D01*
X165020480Y-111245913D01*
X165260354Y-111006038D01*
X165321675Y-110972555D01*
X165391366Y-110977539D01*
X165447300Y-111019410D01*
X165471717Y-111084875D01*
X165459753Y-111147522D01*
X165339204Y-111397844D01*
X165339195Y-111397866D01*
X165232531Y-111702693D01*
X165232527Y-111702705D01*
X165160661Y-112017573D01*
X165160659Y-112017589D01*
X165124500Y-112338510D01*
X165124500Y-112661489D01*
X165160659Y-112982410D01*
X165160661Y-112982426D01*
X165232527Y-113297294D01*
X165232531Y-113297306D01*
X165339195Y-113602133D01*
X165339201Y-113602147D01*
X165479327Y-113893122D01*
X165479329Y-113893125D01*
X165651159Y-114166591D01*
X165852527Y-114419099D01*
X166080901Y-114647473D01*
X166333409Y-114848841D01*
X166606875Y-115020671D01*
X166897860Y-115160802D01*
X166959638Y-115182419D01*
X167202693Y-115267468D01*
X167202705Y-115267472D01*
X167517577Y-115339339D01*
X167838511Y-115375499D01*
X167838512Y-115375500D01*
X167838515Y-115375500D01*
X168161488Y-115375500D01*
X168161488Y-115375499D01*
X168482423Y-115339339D01*
X168797295Y-115267472D01*
X169102140Y-115160802D01*
X169393125Y-115020671D01*
X169666591Y-114848841D01*
X169919099Y-114647473D01*
X170147473Y-114419099D01*
X170348841Y-114166591D01*
X170520671Y-113893125D01*
X170660802Y-113602140D01*
X170767472Y-113297295D01*
X170839339Y-112982423D01*
X170875500Y-112661485D01*
X170875500Y-112338515D01*
X170839339Y-112017577D01*
X170767472Y-111702705D01*
X170755165Y-111667535D01*
X170660804Y-111397866D01*
X170660802Y-111397860D01*
X170520671Y-111106875D01*
X170348841Y-110833409D01*
X170147473Y-110580901D01*
X169919099Y-110352527D01*
X169666591Y-110151159D01*
X169393125Y-109979329D01*
X169393122Y-109979327D01*
X169102147Y-109839201D01*
X169102133Y-109839195D01*
X168797306Y-109732531D01*
X168797294Y-109732527D01*
X168482426Y-109660661D01*
X168482410Y-109660659D01*
X168161489Y-109624500D01*
X168161485Y-109624500D01*
X167838515Y-109624500D01*
X167838510Y-109624500D01*
X167517589Y-109660659D01*
X167517573Y-109660661D01*
X167202705Y-109732527D01*
X167202693Y-109732531D01*
X166897866Y-109839195D01*
X166897852Y-109839201D01*
X166647522Y-109959754D01*
X166578580Y-109971106D01*
X166514446Y-109943384D01*
X166475480Y-109885388D01*
X166474055Y-109815533D01*
X166506037Y-109760355D01*
X166528468Y-109737923D01*
X166528472Y-109737920D01*
X166545912Y-109720480D01*
X166545913Y-109720480D01*
X167020480Y-109245913D01*
X167420480Y-108845913D01*
X167420480Y-108845912D01*
X167528472Y-108737918D01*
X167528475Y-108737917D01*
X167545912Y-108720480D01*
X167545913Y-108720480D01*
X168020480Y-108245913D01*
X168420480Y-107845913D01*
X168420480Y-107845912D01*
X168528472Y-107737918D01*
X168528475Y-107737917D01*
X168545912Y-107720480D01*
X168545913Y-107720480D01*
X168829574Y-107436819D01*
X168890897Y-107403334D01*
X168917255Y-107400500D01*
X170359460Y-107400500D01*
X170421460Y-107417113D01*
X170506814Y-107466392D01*
X170634108Y-107500500D01*
X170634110Y-107500500D01*
X170765890Y-107500500D01*
X170765892Y-107500500D01*
X170893186Y-107466392D01*
X171007314Y-107400500D01*
X171100500Y-107307314D01*
X171166392Y-107193186D01*
X171200500Y-107065892D01*
X171200500Y-106934108D01*
X171166392Y-106806814D01*
X171100500Y-106692686D01*
X171007314Y-106599500D01*
X170950250Y-106566554D01*
X170893187Y-106533608D01*
X170829539Y-106516554D01*
X170765892Y-106499500D01*
X170634108Y-106499500D01*
X170506814Y-106533608D01*
X170506813Y-106533608D01*
X170506811Y-106533609D01*
X170506810Y-106533609D01*
X170421460Y-106582887D01*
X170359460Y-106599500D01*
X168647273Y-106599500D01*
X168545413Y-106626793D01*
X168545410Y-106626794D01*
X168462782Y-106674500D01*
X168462780Y-106674501D01*
X168454090Y-106679517D01*
X168454085Y-106679521D01*
X168199499Y-106934108D01*
X167979520Y-107154087D01*
X167979519Y-107154088D01*
X167854087Y-107279519D01*
X167854087Y-107279520D01*
X167836644Y-107296963D01*
X167836641Y-107296964D01*
X167454087Y-107679520D01*
X166979520Y-108154087D01*
X166979518Y-108154087D01*
X166979519Y-108154088D01*
X166836646Y-108296960D01*
X166836644Y-108296962D01*
X166533469Y-108600138D01*
X166454087Y-108679520D01*
X165979520Y-109154087D01*
X165979519Y-109154088D01*
X165854087Y-109279519D01*
X165854087Y-109279520D01*
X165836644Y-109296963D01*
X165836641Y-109296964D01*
X165454087Y-109679520D01*
X164979520Y-110154087D01*
X164979518Y-110154087D01*
X164979519Y-110154088D01*
X164836646Y-110296960D01*
X164836644Y-110296962D01*
X164645310Y-110488297D01*
X164454087Y-110679520D01*
X163979520Y-111154087D01*
X163979519Y-111154088D01*
X163854087Y-111279519D01*
X163854087Y-111279520D01*
X163836644Y-111296963D01*
X163836641Y-111296964D01*
X163454087Y-111679520D01*
X162579520Y-112554087D01*
X162579518Y-112554087D01*
X162579519Y-112554088D01*
X162436646Y-112696960D01*
X162436644Y-112696962D01*
X162195689Y-112937918D01*
X161979520Y-113154087D01*
X161979519Y-113154088D01*
X161779520Y-113354087D01*
X161779519Y-113354088D01*
X161579520Y-113554087D01*
X161579519Y-113554088D01*
X161454087Y-113679519D01*
X161454087Y-113679520D01*
X161436644Y-113696963D01*
X161436641Y-113696964D01*
X160979520Y-114154087D01*
X160379522Y-114754084D01*
X160379520Y-114754087D01*
X160326793Y-114845411D01*
X160306679Y-114920480D01*
X160299500Y-114947271D01*
X160299500Y-116275500D01*
X160279815Y-116342539D01*
X160227011Y-116388294D01*
X160175500Y-116399500D01*
X154440540Y-116399500D01*
X154378540Y-116382887D01*
X154293188Y-116333609D01*
X154293187Y-116333608D01*
X154293186Y-116333608D01*
X154165892Y-116299500D01*
X154160188Y-116299500D01*
X154138944Y-116293262D01*
X154116857Y-116291683D01*
X154106071Y-116283609D01*
X154093149Y-116279815D01*
X154078651Y-116263083D01*
X154060923Y-116249813D01*
X154056214Y-116237190D01*
X154047394Y-116227011D01*
X154044242Y-116205095D01*
X154036504Y-116184349D01*
X154039367Y-116171185D01*
X154037450Y-116157853D01*
X154046647Y-116137712D01*
X154051354Y-116116076D01*
X154064625Y-116098347D01*
X154066475Y-116094297D01*
X154072505Y-116087821D01*
X154080807Y-116079519D01*
X154099860Y-116060466D01*
X154099862Y-116060465D01*
X154299860Y-115860466D01*
X154299862Y-115860465D01*
X154499860Y-115660466D01*
X154499862Y-115660465D01*
X154960465Y-115199862D01*
X154960465Y-115199861D01*
X155099860Y-115060466D01*
X155099862Y-115060465D01*
X155299860Y-114860466D01*
X155299862Y-114860465D01*
X155499860Y-114660466D01*
X155499862Y-114660465D01*
X155960465Y-114199862D01*
X155960465Y-114199861D01*
X156099860Y-114060466D01*
X156099862Y-114060465D01*
X156299860Y-113860466D01*
X156299862Y-113860465D01*
X156499860Y-113660466D01*
X156499862Y-113660465D01*
X156960465Y-113199862D01*
X156960465Y-113199861D01*
X157099860Y-113060466D01*
X157099862Y-113060465D01*
X157299860Y-112860466D01*
X157299862Y-112860465D01*
X157499860Y-112660466D01*
X157499862Y-112660465D01*
X157960465Y-112199862D01*
X157960465Y-112199861D01*
X158099860Y-112060466D01*
X158099862Y-112060465D01*
X158299860Y-111860466D01*
X158299862Y-111860465D01*
X158499860Y-111660466D01*
X158499862Y-111660465D01*
X158960465Y-111199862D01*
X158960465Y-111199861D01*
X159099860Y-111060466D01*
X159099862Y-111060465D01*
X159299860Y-110860466D01*
X159299862Y-110860465D01*
X159499860Y-110660466D01*
X159499862Y-110660465D01*
X159960465Y-110199862D01*
X159960465Y-110199861D01*
X160099860Y-110060466D01*
X160099862Y-110060465D01*
X160299860Y-109860466D01*
X160299862Y-109860465D01*
X160499860Y-109660466D01*
X160499862Y-109660465D01*
X160960465Y-109199862D01*
X160960465Y-109199861D01*
X161099860Y-109060466D01*
X161099862Y-109060465D01*
X161299860Y-108860466D01*
X161299862Y-108860465D01*
X161499860Y-108660466D01*
X161499862Y-108660465D01*
X161960465Y-108199862D01*
X161960465Y-108199861D01*
X162099860Y-108060466D01*
X162099862Y-108060465D01*
X162299860Y-107860466D01*
X162299862Y-107860465D01*
X162499860Y-107660466D01*
X162499862Y-107660465D01*
X162623510Y-107536816D01*
X162675702Y-107508319D01*
X162684831Y-107503334D01*
X162711189Y-107500500D01*
X162765890Y-107500500D01*
X162765892Y-107500500D01*
X162893186Y-107466392D01*
X163007314Y-107400500D01*
X163100500Y-107307314D01*
X163166392Y-107193186D01*
X163200500Y-107065892D01*
X163200500Y-106934108D01*
X163166392Y-106806814D01*
X163100500Y-106692686D01*
X163007314Y-106599500D01*
X162950250Y-106566554D01*
X162893187Y-106533608D01*
X162829539Y-106516554D01*
X162765892Y-106499500D01*
X162634108Y-106499500D01*
X162506812Y-106533608D01*
X162392686Y-106599500D01*
X162392683Y-106599502D01*
X162299502Y-106692683D01*
X162299500Y-106692686D01*
X162233608Y-106806812D01*
X162199500Y-106934108D01*
X162199500Y-106988811D01*
X162179815Y-107055850D01*
X162163185Y-107076487D01*
X162046604Y-107193069D01*
X162046603Y-107193068D01*
X153482696Y-115756976D01*
X153212181Y-116027492D01*
X153150858Y-116060977D01*
X153081167Y-116055993D01*
X153025233Y-116014122D01*
X153000816Y-115948657D01*
X153000500Y-115939811D01*
X153000500Y-115934110D01*
X153000500Y-115934108D01*
X152966392Y-115806814D01*
X152900500Y-115692686D01*
X152807314Y-115599500D01*
X152716581Y-115547115D01*
X152693187Y-115533608D01*
X152629539Y-115516554D01*
X152565892Y-115499500D01*
X152434108Y-115499500D01*
X152306814Y-115533608D01*
X152306813Y-115533608D01*
X152306811Y-115533609D01*
X152306810Y-115533609D01*
X152221460Y-115582887D01*
X152159460Y-115599500D01*
X149647273Y-115599500D01*
X149545413Y-115626793D01*
X149545412Y-115626793D01*
X149463028Y-115674356D01*
X149463029Y-115674357D01*
X149454083Y-115679522D01*
X149077614Y-116055993D01*
X148979520Y-116154087D01*
X148979519Y-116154088D01*
X148779520Y-116354087D01*
X148779519Y-116354088D01*
X148579520Y-116554087D01*
X148579519Y-116554088D01*
X148454087Y-116679519D01*
X148454087Y-116679520D01*
X148436644Y-116696963D01*
X148436641Y-116696964D01*
X147979520Y-117154087D01*
X147579520Y-117554087D01*
X147579518Y-117554087D01*
X147579519Y-117554088D01*
X147436646Y-117696960D01*
X147436644Y-117696962D01*
X147200757Y-117932850D01*
X146979520Y-118154087D01*
X146979519Y-118154088D01*
X146779520Y-118354087D01*
X146779519Y-118354088D01*
X146579520Y-118554087D01*
X146579519Y-118554088D01*
X146454087Y-118679519D01*
X146454087Y-118679520D01*
X146436644Y-118696963D01*
X146436641Y-118696964D01*
X145979520Y-119154087D01*
X145579520Y-119554087D01*
X145579518Y-119554087D01*
X145579519Y-119554088D01*
X145436646Y-119696960D01*
X145436644Y-119696962D01*
X145194074Y-119939533D01*
X144979520Y-120154087D01*
X144979519Y-120154088D01*
X144779520Y-120354087D01*
X144779519Y-120354088D01*
X144579520Y-120554087D01*
X144579519Y-120554088D01*
X144454087Y-120679519D01*
X144454087Y-120679520D01*
X144436644Y-120696963D01*
X144436641Y-120696964D01*
X143979520Y-121154087D01*
X143579520Y-121554087D01*
X143579518Y-121554087D01*
X143579519Y-121554088D01*
X143457599Y-121676006D01*
X143402013Y-121708098D01*
X143306815Y-121733607D01*
X143306814Y-121733607D01*
X143192686Y-121799500D01*
X143192683Y-121799502D01*
X143099502Y-121892683D01*
X143099500Y-121892686D01*
X143033607Y-122006814D01*
X143033607Y-122006815D01*
X143008097Y-122102016D01*
X142976004Y-122157602D01*
X142873142Y-122260465D01*
X142779520Y-122354087D01*
X142779519Y-122354088D01*
X142579520Y-122554087D01*
X142579519Y-122554088D01*
X142454087Y-122679519D01*
X142454087Y-122679520D01*
X142436644Y-122696963D01*
X142436641Y-122696964D01*
X141979522Y-123154084D01*
X141979520Y-123154087D01*
X141926793Y-123245411D01*
X141906679Y-123320480D01*
X141899500Y-123347271D01*
X141899500Y-124859460D01*
X141882887Y-124921460D01*
X141833609Y-125006810D01*
X141833609Y-125006811D01*
X141833608Y-125006813D01*
X141833608Y-125006814D01*
X141799500Y-125134108D01*
X141799500Y-125265892D01*
X141814127Y-125320480D01*
X141833608Y-125393187D01*
X141847891Y-125417925D01*
X141899500Y-125507314D01*
X141992686Y-125600500D01*
X142106814Y-125666392D01*
X142234108Y-125700500D01*
X142234110Y-125700500D01*
X142365890Y-125700500D01*
X142365892Y-125700500D01*
X142493186Y-125666392D01*
X142588501Y-125611361D01*
X142656399Y-125594889D01*
X142722426Y-125617741D01*
X142765617Y-125672662D01*
X142774500Y-125718749D01*
X142774500Y-126566324D01*
X142754815Y-126633363D01*
X142738181Y-126654005D01*
X142699502Y-126692683D01*
X142699500Y-126692686D01*
X142633608Y-126806812D01*
X142617338Y-126867535D01*
X142599500Y-126934108D01*
X142599500Y-127065892D01*
X142599940Y-127067535D01*
X142633608Y-127193187D01*
X142637622Y-127200139D01*
X142688638Y-127288501D01*
X142705111Y-127356399D01*
X142682259Y-127422426D01*
X142627338Y-127465617D01*
X142581251Y-127474500D01*
X137733676Y-127474500D01*
X137666637Y-127454815D01*
X137645995Y-127438181D01*
X137607316Y-127399502D01*
X137607314Y-127399500D01*
X137525591Y-127352317D01*
X137493187Y-127333608D01*
X137429539Y-127316554D01*
X137365892Y-127299500D01*
X137234108Y-127299500D01*
X137106812Y-127333608D01*
X136992686Y-127399500D01*
X136992683Y-127399502D01*
X136899502Y-127492683D01*
X136899500Y-127492686D01*
X136833608Y-127606812D01*
X136799500Y-127734108D01*
X136025500Y-127734108D01*
X136025500Y-126334108D01*
X136799500Y-126334108D01*
X136799500Y-126465892D01*
X136804117Y-126483122D01*
X136833608Y-126593187D01*
X136847753Y-126617686D01*
X136899500Y-126707314D01*
X136992686Y-126800500D01*
X137106814Y-126866392D01*
X137234108Y-126900500D01*
X137234110Y-126900500D01*
X137365890Y-126900500D01*
X137365892Y-126900500D01*
X137493186Y-126866392D01*
X137607314Y-126800500D01*
X137700500Y-126707314D01*
X137766392Y-126593186D01*
X137800500Y-126465892D01*
X137800500Y-126334108D01*
X137766392Y-126206814D01*
X137762618Y-126200278D01*
X137757563Y-126191521D01*
X137700500Y-126092686D01*
X137661819Y-126054005D01*
X137647115Y-126027077D01*
X137630523Y-126001259D01*
X137629631Y-125995058D01*
X137628334Y-125992682D01*
X137625500Y-125966324D01*
X137625500Y-125786188D01*
X137645185Y-125719149D01*
X137661812Y-125698513D01*
X137699860Y-125660466D01*
X137699862Y-125660465D01*
X137899860Y-125460466D01*
X137899862Y-125460465D01*
X138099860Y-125260466D01*
X138099862Y-125260465D01*
X138299860Y-125060466D01*
X138299862Y-125060465D01*
X138499860Y-124860466D01*
X138499862Y-124860465D01*
X138699860Y-124660466D01*
X138699862Y-124660465D01*
X138899860Y-124460466D01*
X138899862Y-124460465D01*
X139099860Y-124260466D01*
X139099862Y-124260465D01*
X139299860Y-124060466D01*
X139299862Y-124060465D01*
X139499860Y-123860466D01*
X139499862Y-123860465D01*
X139699860Y-123660466D01*
X139699862Y-123660465D01*
X139899860Y-123460466D01*
X139899862Y-123460465D01*
X140099860Y-123260466D01*
X140099862Y-123260465D01*
X140299860Y-123060466D01*
X140299862Y-123060465D01*
X140499860Y-122860466D01*
X140499862Y-122860465D01*
X140699860Y-122660466D01*
X140699862Y-122660465D01*
X140899860Y-122460466D01*
X140899862Y-122460465D01*
X141099860Y-122260466D01*
X141099862Y-122260465D01*
X141299860Y-122060466D01*
X141299862Y-122060465D01*
X141499860Y-121860466D01*
X141499862Y-121860465D01*
X141699860Y-121660466D01*
X141699862Y-121660465D01*
X141899860Y-121460466D01*
X141899862Y-121460465D01*
X142099860Y-121260466D01*
X142099862Y-121260465D01*
X142299860Y-121060466D01*
X142299862Y-121060465D01*
X142499860Y-120860466D01*
X142499862Y-120860465D01*
X142699860Y-120660466D01*
X142699862Y-120660465D01*
X142899860Y-120460466D01*
X142899862Y-120460465D01*
X143099860Y-120260466D01*
X143099862Y-120260465D01*
X143299860Y-120060466D01*
X143299862Y-120060465D01*
X143499860Y-119860466D01*
X143499862Y-119860465D01*
X143699860Y-119660466D01*
X143699862Y-119660465D01*
X143899860Y-119460466D01*
X143899862Y-119460465D01*
X144099860Y-119260466D01*
X144099862Y-119260465D01*
X144299860Y-119060466D01*
X144299862Y-119060465D01*
X144499860Y-118860466D01*
X144499862Y-118860465D01*
X144699860Y-118660466D01*
X144699862Y-118660465D01*
X144899860Y-118460466D01*
X144899862Y-118460465D01*
X145099860Y-118260466D01*
X145099862Y-118260465D01*
X145299860Y-118060466D01*
X145299862Y-118060465D01*
X145499860Y-117860466D01*
X145499862Y-117860465D01*
X145699860Y-117660466D01*
X145699862Y-117660465D01*
X145899860Y-117460466D01*
X145899862Y-117460465D01*
X146023508Y-117336817D01*
X146075702Y-117308319D01*
X146084831Y-117303334D01*
X146111189Y-117300500D01*
X146165890Y-117300500D01*
X146165892Y-117300500D01*
X146293186Y-117266392D01*
X146407314Y-117200500D01*
X146500500Y-117107314D01*
X146566392Y-116993186D01*
X146600500Y-116865892D01*
X146600500Y-116734108D01*
X146566392Y-116606814D01*
X146500500Y-116492686D01*
X146407314Y-116399500D01*
X146350250Y-116366554D01*
X146293187Y-116333608D01*
X146229539Y-116316554D01*
X146165892Y-116299500D01*
X146034108Y-116299500D01*
X145906812Y-116333608D01*
X145792686Y-116399500D01*
X145792683Y-116399502D01*
X145699502Y-116492683D01*
X145699500Y-116492686D01*
X145633608Y-116606812D01*
X145599500Y-116734108D01*
X145599500Y-116788811D01*
X145579815Y-116855850D01*
X145563185Y-116876487D01*
X145446604Y-116993069D01*
X145446603Y-116993068D01*
X137246601Y-125193071D01*
X137039537Y-125400135D01*
X137039533Y-125400141D01*
X136996681Y-125474362D01*
X136996680Y-125474363D01*
X136984325Y-125520478D01*
X136974500Y-125557145D01*
X136974500Y-125966324D01*
X136954815Y-126033363D01*
X136938181Y-126054005D01*
X136899502Y-126092683D01*
X136899500Y-126092686D01*
X136833608Y-126206812D01*
X136803152Y-126320480D01*
X136799500Y-126334108D01*
X136025500Y-126334108D01*
X136025500Y-121357149D01*
X136025500Y-121357147D01*
X136003318Y-121274362D01*
X136002214Y-121272449D01*
X135960469Y-121200144D01*
X135960466Y-121200140D01*
X135960465Y-121200138D01*
X135899862Y-121139535D01*
X135499862Y-120739535D01*
X135499860Y-120739533D01*
X135299862Y-120539535D01*
X135299860Y-120539533D01*
X135099862Y-120339535D01*
X135099860Y-120339533D01*
X134899862Y-120139535D01*
X134499862Y-119739535D01*
X134499860Y-119739533D01*
X134299862Y-119539535D01*
X134299860Y-119539533D01*
X134099862Y-119339535D01*
X134092797Y-119332470D01*
X134092790Y-119332464D01*
X133899860Y-119139535D01*
X133499862Y-118739535D01*
X133092797Y-118332470D01*
X133092790Y-118332464D01*
X132899860Y-118139535D01*
X132499862Y-117739535D01*
X132092797Y-117332470D01*
X132092790Y-117332464D01*
X131899860Y-117139535D01*
X131499862Y-116739535D01*
X131092797Y-116332470D01*
X131092790Y-116332464D01*
X130899860Y-116139535D01*
X130499862Y-115739535D01*
X130092797Y-115332470D01*
X130092790Y-115332464D01*
X129899860Y-115139535D01*
X129499862Y-114739535D01*
X129092793Y-114332466D01*
X129092793Y-114332467D01*
X128960464Y-114200139D01*
X128960464Y-114200138D01*
X128899862Y-114139536D01*
X128899854Y-114139530D01*
X128825643Y-114096685D01*
X128825639Y-114096683D01*
X128825637Y-114096682D01*
X128742852Y-114074500D01*
X128742851Y-114074500D01*
X125933676Y-114074500D01*
X125866637Y-114054815D01*
X125845995Y-114038181D01*
X125807316Y-113999502D01*
X125807314Y-113999500D01*
X125750250Y-113966554D01*
X125693187Y-113933608D01*
X125629539Y-113916554D01*
X125565892Y-113899500D01*
X125434108Y-113899500D01*
X125306812Y-113933608D01*
X125192686Y-113999500D01*
X125192683Y-113999502D01*
X125099502Y-114092683D01*
X125099500Y-114092686D01*
X125033608Y-114206812D01*
X124999500Y-114334108D01*
X124999500Y-114465891D01*
X125033608Y-114593187D01*
X125037622Y-114600139D01*
X125099500Y-114707314D01*
X125192686Y-114800500D01*
X125306814Y-114866392D01*
X125434108Y-114900500D01*
X125434110Y-114900500D01*
X125565890Y-114900500D01*
X125565892Y-114900500D01*
X125693186Y-114866392D01*
X125807314Y-114800500D01*
X125845995Y-114761819D01*
X125907318Y-114728334D01*
X125933676Y-114725500D01*
X126981251Y-114725500D01*
X127048290Y-114745185D01*
X127094045Y-114797989D01*
X127103989Y-114867147D01*
X127088639Y-114911497D01*
X127073383Y-114937922D01*
X127033608Y-115006812D01*
X127019232Y-115060465D01*
X126999500Y-115134108D01*
X126999500Y-115265892D01*
X127016554Y-115329539D01*
X127033608Y-115393187D01*
X127037622Y-115400139D01*
X127099500Y-115507314D01*
X127192686Y-115600500D01*
X127306814Y-115666392D01*
X127434108Y-115700500D01*
X127434110Y-115700500D01*
X127565890Y-115700500D01*
X127565892Y-115700500D01*
X127693186Y-115666392D01*
X127807314Y-115600500D01*
X127845995Y-115561819D01*
X127872922Y-115547115D01*
X127898741Y-115530523D01*
X127904941Y-115529631D01*
X127907318Y-115528334D01*
X127933676Y-115525500D01*
X128113810Y-115525500D01*
X128180849Y-115545185D01*
X128201490Y-115561818D01*
X128239520Y-115599847D01*
X128239535Y-115599861D01*
X128439534Y-115799861D01*
X128439535Y-115799862D01*
X128639533Y-115999860D01*
X128639535Y-115999862D01*
X128839533Y-116199860D01*
X128839535Y-116199862D01*
X129039533Y-116399860D01*
X129039535Y-116399862D01*
X129239535Y-116599861D01*
X129439534Y-116799861D01*
X129439535Y-116799862D01*
X129639533Y-116999860D01*
X129639535Y-116999862D01*
X129839533Y-117199860D01*
X129839535Y-117199862D01*
X130039533Y-117399860D01*
X130039535Y-117399862D01*
X130239535Y-117599861D01*
X130439534Y-117799861D01*
X130439535Y-117799862D01*
X130639533Y-117999860D01*
X130639535Y-117999862D01*
X130839533Y-118199860D01*
X130839535Y-118199862D01*
X131039533Y-118399860D01*
X131039535Y-118399862D01*
X131239535Y-118599861D01*
X131278515Y-118638841D01*
X131312770Y-118673096D01*
X131346254Y-118734420D01*
X131341269Y-118804111D01*
X131299398Y-118860045D01*
X131233933Y-118884461D01*
X131171286Y-118872497D01*
X131102147Y-118839201D01*
X131102133Y-118839195D01*
X130797306Y-118732531D01*
X130797294Y-118732527D01*
X130482426Y-118660661D01*
X130482410Y-118660659D01*
X130161489Y-118624500D01*
X130161485Y-118624500D01*
X129838515Y-118624500D01*
X129838510Y-118624500D01*
X129517589Y-118660659D01*
X129517573Y-118660661D01*
X129202705Y-118732527D01*
X129202693Y-118732531D01*
X128897866Y-118839195D01*
X128897852Y-118839201D01*
X128606877Y-118979327D01*
X128333410Y-119151158D01*
X128080901Y-119352526D01*
X127852526Y-119580901D01*
X127651158Y-119833410D01*
X127479327Y-120106877D01*
X127339201Y-120397852D01*
X127339195Y-120397866D01*
X127232531Y-120702693D01*
X127232527Y-120702705D01*
X127160661Y-121017573D01*
X127160659Y-121017589D01*
X127124500Y-121338510D01*
X127124500Y-121661489D01*
X127160659Y-121982410D01*
X127160661Y-121982426D01*
X127232527Y-122297294D01*
X127232531Y-122297306D01*
X127339195Y-122602133D01*
X127339201Y-122602147D01*
X127479327Y-122893122D01*
X127479329Y-122893125D01*
X127651159Y-123166591D01*
X127852527Y-123419099D01*
X128080901Y-123647473D01*
X128333409Y-123848841D01*
X128606875Y-124020671D01*
X128897860Y-124160802D01*
X128897866Y-124160804D01*
X129202693Y-124267468D01*
X129202705Y-124267472D01*
X129517577Y-124339339D01*
X129838511Y-124375499D01*
X129838512Y-124375500D01*
X129838515Y-124375500D01*
X130161488Y-124375500D01*
X130161488Y-124375499D01*
X130482423Y-124339339D01*
X130797295Y-124267472D01*
X131102140Y-124160802D01*
X131393125Y-124020671D01*
X131666591Y-123848841D01*
X131919099Y-123647473D01*
X132147473Y-123419099D01*
X132348841Y-123166591D01*
X132520671Y-122893125D01*
X132660802Y-122602140D01*
X132767472Y-122297295D01*
X132839339Y-121982423D01*
X132875500Y-121661485D01*
X132875500Y-121338515D01*
X132839339Y-121017577D01*
X132767472Y-120702705D01*
X132755165Y-120667535D01*
X132661599Y-120400138D01*
X132660802Y-120397860D01*
X132627502Y-120328713D01*
X132616151Y-120259773D01*
X132643873Y-120195638D01*
X132701868Y-120156672D01*
X132771723Y-120155247D01*
X132826904Y-120187231D01*
X133039535Y-120399862D01*
X133239535Y-120599861D01*
X133439534Y-120799861D01*
X133738181Y-121098508D01*
X133771666Y-121159831D01*
X133774500Y-121186189D01*
X133774500Y-123281250D01*
X133754815Y-123348289D01*
X133702011Y-123394044D01*
X133632853Y-123403988D01*
X133588500Y-123388637D01*
X133493189Y-123333609D01*
X133493186Y-123333608D01*
X133365892Y-123299500D01*
X133234108Y-123299500D01*
X133106812Y-123333608D01*
X132992686Y-123399500D01*
X132992683Y-123399502D01*
X132899502Y-123492683D01*
X132899500Y-123492686D01*
X132833607Y-123606814D01*
X132833607Y-123606815D01*
X132808097Y-123702016D01*
X132776004Y-123757602D01*
X132673142Y-123860465D01*
X132579520Y-123954087D01*
X132579519Y-123954088D01*
X132454086Y-124079520D01*
X132454086Y-124079521D01*
X132254088Y-124279520D01*
X131979520Y-124554087D01*
X131979519Y-124554088D01*
X131779520Y-124754087D01*
X131779519Y-124754088D01*
X131579520Y-124954087D01*
X131579519Y-124954088D01*
X131454086Y-125079520D01*
X131454086Y-125079521D01*
X131254088Y-125279520D01*
X130979520Y-125554087D01*
X130779515Y-125754092D01*
X130770420Y-125763186D01*
X130746702Y-125776134D01*
X130746701Y-125776136D01*
X130736404Y-125781757D01*
X130709102Y-125796666D01*
X130709097Y-125796666D01*
X130709095Y-125796668D01*
X130709088Y-125796667D01*
X130682744Y-125799500D01*
X128317255Y-125799500D01*
X128250216Y-125779815D01*
X128229574Y-125763181D01*
X127738848Y-125272455D01*
X127738841Y-125272449D01*
X127639632Y-125173240D01*
X127545913Y-125079520D01*
X127545912Y-125079519D01*
X127538848Y-125072455D01*
X127538841Y-125072449D01*
X127338848Y-124872455D01*
X127338841Y-124872449D01*
X127145913Y-124679520D01*
X126738848Y-124272455D01*
X126738841Y-124272449D01*
X126538848Y-124072455D01*
X126538841Y-124072449D01*
X126338848Y-123872455D01*
X126338841Y-123872449D01*
X126145913Y-123679520D01*
X125738848Y-123272455D01*
X125738841Y-123272449D01*
X125538848Y-123072455D01*
X125538841Y-123072449D01*
X125338848Y-122872455D01*
X125338841Y-122872449D01*
X125145913Y-122679520D01*
X124738848Y-122272455D01*
X124738841Y-122272449D01*
X124538848Y-122072455D01*
X124538841Y-122072449D01*
X124338848Y-121872455D01*
X124338841Y-121872449D01*
X124145913Y-121679520D01*
X123738848Y-121272455D01*
X123738841Y-121272449D01*
X123538848Y-121072455D01*
X123538841Y-121072449D01*
X123338848Y-120872455D01*
X123338841Y-120872449D01*
X123243537Y-120777145D01*
X123145913Y-120679520D01*
X122745913Y-120279520D01*
X122738848Y-120272455D01*
X122738841Y-120272449D01*
X122643790Y-120177398D01*
X122545913Y-120079520D01*
X122545912Y-120079519D01*
X122538848Y-120072455D01*
X122538841Y-120072449D01*
X122338848Y-119872455D01*
X122338841Y-119872449D01*
X122145913Y-119679520D01*
X121738848Y-119272455D01*
X121738841Y-119272449D01*
X121538848Y-119072455D01*
X121538841Y-119072449D01*
X121445721Y-118979329D01*
X121345913Y-118879520D01*
X121345912Y-118879519D01*
X121338848Y-118872455D01*
X121338841Y-118872449D01*
X121145913Y-118679520D01*
X120738848Y-118272455D01*
X120738841Y-118272449D01*
X120538848Y-118072455D01*
X120538841Y-118072449D01*
X120338848Y-117872455D01*
X120338841Y-117872449D01*
X120145913Y-117679520D01*
X119738848Y-117272455D01*
X119738841Y-117272449D01*
X119538848Y-117072455D01*
X119538841Y-117072449D01*
X119338848Y-116872455D01*
X119338841Y-116872449D01*
X119145913Y-116679520D01*
X118738848Y-116272455D01*
X118738841Y-116272449D01*
X118639632Y-116173240D01*
X118545913Y-116079520D01*
X118545912Y-116079519D01*
X118538848Y-116072455D01*
X118538841Y-116072449D01*
X118338855Y-115872462D01*
X118338847Y-115872455D01*
X118145913Y-115679520D01*
X118107316Y-115657235D01*
X118054589Y-115626793D01*
X118003657Y-115613146D01*
X117952727Y-115599500D01*
X117952726Y-115599500D01*
X113840540Y-115599500D01*
X113778540Y-115582887D01*
X113693188Y-115533609D01*
X113693187Y-115533608D01*
X113693186Y-115533608D01*
X113565892Y-115499500D01*
X113434108Y-115499500D01*
X113306812Y-115533608D01*
X113192686Y-115599500D01*
X113192683Y-115599502D01*
X113099502Y-115692683D01*
X113099500Y-115692686D01*
X113033608Y-115806812D01*
X112999500Y-115934108D01*
X112999500Y-116065892D01*
X113005376Y-116087821D01*
X113033608Y-116193187D01*
X113053137Y-116227011D01*
X113099500Y-116307314D01*
X113192686Y-116400500D01*
X113291521Y-116457563D01*
X113306810Y-116466390D01*
X113306814Y-116466392D01*
X113434108Y-116500500D01*
X113434110Y-116500500D01*
X113565890Y-116500500D01*
X113565892Y-116500500D01*
X113693186Y-116466392D01*
X113773219Y-116420185D01*
X113778540Y-116417113D01*
X113840540Y-116400500D01*
X117682746Y-116400500D01*
X117712186Y-116409144D01*
X117742173Y-116415668D01*
X117747188Y-116419422D01*
X117749785Y-116420185D01*
X117770427Y-116436819D01*
X117772449Y-116438841D01*
X117772452Y-116438845D01*
X117779519Y-116445912D01*
X117779520Y-116445913D01*
X117873142Y-116539535D01*
X117972449Y-116638841D01*
X117972452Y-116638845D01*
X117979519Y-116645912D01*
X117979520Y-116645913D01*
X118077613Y-116744006D01*
X118172449Y-116838841D01*
X118172452Y-116838845D01*
X118579520Y-117245913D01*
X118772449Y-117438841D01*
X118772452Y-117438845D01*
X118779519Y-117445912D01*
X118779520Y-117445913D01*
X118873142Y-117539535D01*
X118972449Y-117638841D01*
X118972452Y-117638845D01*
X118979519Y-117645912D01*
X118979520Y-117645913D01*
X119073142Y-117739535D01*
X119172449Y-117838841D01*
X119172452Y-117838845D01*
X119579520Y-118245913D01*
X119772449Y-118438841D01*
X119772452Y-118438845D01*
X119779519Y-118445912D01*
X119779520Y-118445913D01*
X119873142Y-118539535D01*
X119972449Y-118638841D01*
X119972452Y-118638845D01*
X119979519Y-118645912D01*
X119979520Y-118645913D01*
X120073142Y-118739535D01*
X120172449Y-118838841D01*
X120172452Y-118838845D01*
X120579520Y-119245913D01*
X120772449Y-119438841D01*
X120772452Y-119438845D01*
X120779519Y-119445912D01*
X120779520Y-119445913D01*
X120873142Y-119539535D01*
X120972449Y-119638841D01*
X120972452Y-119638845D01*
X120979519Y-119645912D01*
X120979520Y-119645913D01*
X121073142Y-119739535D01*
X121172449Y-119838841D01*
X121172452Y-119838845D01*
X121579520Y-120245913D01*
X121772449Y-120438841D01*
X121772452Y-120438845D01*
X121779519Y-120445912D01*
X121779520Y-120445913D01*
X121873142Y-120539535D01*
X121972449Y-120638841D01*
X121972452Y-120638845D01*
X121979519Y-120645912D01*
X121979520Y-120645913D01*
X122076926Y-120743319D01*
X122172449Y-120838841D01*
X122172452Y-120838845D01*
X122579520Y-121245913D01*
X122772449Y-121438841D01*
X122772452Y-121438845D01*
X122972449Y-121638841D01*
X122972452Y-121638845D01*
X123172449Y-121838841D01*
X123172452Y-121838845D01*
X123579520Y-122245913D01*
X123772449Y-122438841D01*
X123772452Y-122438845D01*
X123972449Y-122638841D01*
X123972452Y-122638845D01*
X124172449Y-122838841D01*
X124172452Y-122838845D01*
X124579520Y-123245913D01*
X124772449Y-123438841D01*
X124772452Y-123438845D01*
X124972449Y-123638841D01*
X124972452Y-123638845D01*
X125172449Y-123838841D01*
X125172452Y-123838845D01*
X125579520Y-124245913D01*
X125772449Y-124438841D01*
X125772452Y-124438845D01*
X125972449Y-124638841D01*
X125972452Y-124638845D01*
X125979519Y-124645912D01*
X125979520Y-124645913D01*
X126179519Y-124845911D01*
X126179520Y-124845913D01*
X126241684Y-124908077D01*
X126260184Y-124941958D01*
X126275167Y-124969398D01*
X126270183Y-125039090D01*
X126255995Y-125058042D01*
X126228311Y-125095024D01*
X126180630Y-125112807D01*
X126162847Y-125119440D01*
X126162846Y-125119439D01*
X126162846Y-125119440D01*
X126162832Y-125119437D01*
X126097706Y-125106241D01*
X126060836Y-125087454D01*
X125881118Y-125029059D01*
X125694486Y-124999500D01*
X125694481Y-124999500D01*
X125505519Y-124999500D01*
X125505514Y-124999500D01*
X125318881Y-125029059D01*
X125139163Y-125087454D01*
X124970800Y-125173240D01*
X124883579Y-125236610D01*
X124817927Y-125284310D01*
X124817925Y-125284312D01*
X124817924Y-125284312D01*
X124684312Y-125417924D01*
X124684312Y-125417925D01*
X124684310Y-125417927D01*
X124649099Y-125466391D01*
X124573240Y-125570800D01*
X124487454Y-125739163D01*
X124429059Y-125918881D01*
X124399500Y-126105513D01*
X124399500Y-126294486D01*
X124429059Y-126481118D01*
X124487454Y-126660836D01*
X124558617Y-126800500D01*
X124573240Y-126829199D01*
X124684310Y-126982073D01*
X124817927Y-127115690D01*
X124970801Y-127226760D01*
X125036951Y-127260465D01*
X125139163Y-127312545D01*
X125139165Y-127312545D01*
X125139168Y-127312547D01*
X125201663Y-127332853D01*
X125318881Y-127370940D01*
X125505514Y-127400500D01*
X125505519Y-127400500D01*
X125694486Y-127400500D01*
X125881118Y-127370940D01*
X125925870Y-127356399D01*
X126060832Y-127312547D01*
X126229199Y-127226760D01*
X126382073Y-127115690D01*
X126515690Y-126982073D01*
X126626760Y-126829199D01*
X126712547Y-126660832D01*
X126770940Y-126481118D01*
X126777636Y-126438841D01*
X126800500Y-126294486D01*
X126800500Y-126105513D01*
X126770940Y-125918881D01*
X126724942Y-125777315D01*
X126712547Y-125739168D01*
X126712545Y-125739165D01*
X126712545Y-125739163D01*
X126693758Y-125702292D01*
X126690787Y-125686476D01*
X126683077Y-125672355D01*
X126684472Y-125652845D01*
X126680862Y-125633622D01*
X126686913Y-125618713D01*
X126688061Y-125602663D01*
X126699783Y-125587003D01*
X126707139Y-125568882D01*
X126720290Y-125559611D01*
X126729933Y-125546730D01*
X126748257Y-125539895D01*
X126764245Y-125528625D01*
X126780321Y-125527935D01*
X126795397Y-125522313D01*
X126814509Y-125526470D01*
X126834051Y-125525633D01*
X126848707Y-125533910D01*
X126863670Y-125537165D01*
X126891924Y-125558316D01*
X126972449Y-125638841D01*
X126972452Y-125638845D01*
X126979519Y-125645912D01*
X126979520Y-125645913D01*
X127072775Y-125739168D01*
X127172449Y-125838841D01*
X127172452Y-125838845D01*
X127579520Y-126245913D01*
X127772449Y-126438841D01*
X127772452Y-126438845D01*
X127779520Y-126445913D01*
X127854087Y-126520480D01*
X127945413Y-126573207D01*
X128047273Y-126600501D01*
X128047275Y-126600501D01*
X128160323Y-126600501D01*
X128160339Y-126600500D01*
X130375500Y-126600500D01*
X130442539Y-126620185D01*
X130488294Y-126672989D01*
X130499500Y-126724500D01*
X130499500Y-128052728D01*
X130519300Y-128126625D01*
X130519014Y-128138622D01*
X130523209Y-128149868D01*
X130518198Y-128172904D01*
X130517637Y-128196475D01*
X130510537Y-128208122D01*
X130508358Y-128218142D01*
X130487212Y-128246389D01*
X130487208Y-128246397D01*
X130436645Y-128296962D01*
X130254088Y-128479520D01*
X129979520Y-128754087D01*
X129979519Y-128754088D01*
X129858421Y-128875186D01*
X129858420Y-128875185D01*
X129858416Y-128875190D01*
X129626733Y-129106874D01*
X129626732Y-129106875D01*
X129457598Y-129276006D01*
X129402013Y-129308098D01*
X129306815Y-129333607D01*
X129306814Y-129333607D01*
X129192686Y-129399500D01*
X129192683Y-129399502D01*
X129099502Y-129492683D01*
X129099500Y-129492686D01*
X129033608Y-129606812D01*
X128999500Y-129734108D01*
X128999500Y-129865891D01*
X129033608Y-129993187D01*
X129047688Y-130017573D01*
X129099500Y-130107314D01*
X129192686Y-130200500D01*
X129291521Y-130257563D01*
X129306810Y-130266390D01*
X129306814Y-130266392D01*
X129434108Y-130300500D01*
X129434110Y-130300500D01*
X129565890Y-130300500D01*
X129565892Y-130300500D01*
X129693186Y-130266392D01*
X129807314Y-130200500D01*
X129900500Y-130107314D01*
X129966392Y-129993186D01*
X129991901Y-129897982D01*
X130023992Y-129842398D01*
X130220479Y-129645914D01*
X130220479Y-129645912D01*
X130232390Y-129634002D01*
X130232396Y-129633993D01*
X130420480Y-129445911D01*
X130420479Y-129445911D01*
X130479048Y-129387342D01*
X130533989Y-129332400D01*
X130533999Y-129332393D01*
X130545911Y-129320480D01*
X130545913Y-129320480D01*
X130820480Y-129045912D01*
X130820480Y-129045911D01*
X131012318Y-128854073D01*
X131073641Y-128820588D01*
X131143333Y-128825572D01*
X131187680Y-128854073D01*
X131379520Y-129045913D01*
X131572449Y-129238841D01*
X131572452Y-129238845D01*
X132379520Y-130045913D01*
X132572449Y-130238841D01*
X132572452Y-130238845D01*
X133379519Y-131045912D01*
X133379520Y-131045913D01*
X133579520Y-131245912D01*
X133579521Y-131245913D01*
X133779519Y-131445910D01*
X133779520Y-131445912D01*
X133821427Y-131487819D01*
X133821428Y-131487820D01*
X133836628Y-131515658D01*
X133854912Y-131549142D01*
X133849928Y-131618834D01*
X133813388Y-131667645D01*
X133808055Y-131674768D01*
X133767008Y-131690077D01*
X133742592Y-131699184D01*
X133733746Y-131699500D01*
X99924500Y-131699500D01*
X99857461Y-131679815D01*
X99811706Y-131627011D01*
X99800500Y-131575500D01*
X99800500Y-126105513D01*
X104399500Y-126105513D01*
X104399500Y-126294486D01*
X104429059Y-126481118D01*
X104487454Y-126660836D01*
X104558617Y-126800500D01*
X104573240Y-126829199D01*
X104684310Y-126982073D01*
X104817927Y-127115690D01*
X104970801Y-127226760D01*
X105036951Y-127260465D01*
X105139163Y-127312545D01*
X105139165Y-127312545D01*
X105139168Y-127312547D01*
X105201663Y-127332853D01*
X105318881Y-127370940D01*
X105505514Y-127400500D01*
X105505519Y-127400500D01*
X105694486Y-127400500D01*
X105881118Y-127370940D01*
X105925870Y-127356399D01*
X106060832Y-127312547D01*
X106229199Y-127226760D01*
X106338040Y-127147682D01*
X111300000Y-127147682D01*
X111300000Y-127352317D01*
X111332009Y-127554417D01*
X111395244Y-127749031D01*
X111488139Y-127931347D01*
X111550279Y-128016876D01*
X112057241Y-127509914D01*
X112119881Y-127618408D01*
X112231592Y-127730119D01*
X112340083Y-127792757D01*
X111833121Y-128299719D01*
X111833122Y-128299720D01*
X111918640Y-128361852D01*
X111918649Y-128361858D01*
X112100968Y-128454755D01*
X112295582Y-128517990D01*
X112497683Y-128550000D01*
X112702317Y-128550000D01*
X112904417Y-128517990D01*
X113099031Y-128454755D01*
X113281349Y-128361859D01*
X113366876Y-128299719D01*
X113366877Y-128299718D01*
X112859916Y-127792757D01*
X112968408Y-127730119D01*
X113080119Y-127618408D01*
X113142757Y-127509915D01*
X113649718Y-128016877D01*
X113649719Y-128016876D01*
X113711859Y-127931349D01*
X113804755Y-127749031D01*
X113867990Y-127554417D01*
X113900000Y-127352317D01*
X113900000Y-127147682D01*
X113867990Y-126945582D01*
X113804755Y-126750968D01*
X113711858Y-126568649D01*
X113711852Y-126568640D01*
X113649720Y-126483122D01*
X113649719Y-126483121D01*
X113142757Y-126990083D01*
X113080119Y-126881592D01*
X112968408Y-126769881D01*
X112859914Y-126707241D01*
X113366876Y-126200279D01*
X113281347Y-126138139D01*
X113099031Y-126045244D01*
X112904417Y-125982009D01*
X112702317Y-125950000D01*
X112497683Y-125950000D01*
X112295582Y-125982009D01*
X112100968Y-126045244D01*
X111918648Y-126138141D01*
X111833122Y-126200278D01*
X111833122Y-126200279D01*
X112340085Y-126707242D01*
X112231592Y-126769881D01*
X112119881Y-126881592D01*
X112057242Y-126990085D01*
X111550279Y-126483122D01*
X111550278Y-126483122D01*
X111488141Y-126568648D01*
X111395244Y-126750968D01*
X111332009Y-126945582D01*
X111300000Y-127147682D01*
X106338040Y-127147682D01*
X106382073Y-127115690D01*
X106515690Y-126982073D01*
X106626760Y-126829199D01*
X106712547Y-126660832D01*
X106770940Y-126481118D01*
X106777636Y-126438841D01*
X106800500Y-126294486D01*
X106800500Y-126105513D01*
X106770940Y-125918881D01*
X106724942Y-125777315D01*
X106712547Y-125739168D01*
X106712545Y-125739165D01*
X106712545Y-125739163D01*
X106626759Y-125570800D01*
X106515690Y-125417927D01*
X106382073Y-125284310D01*
X106229199Y-125173240D01*
X106060836Y-125087454D01*
X105881118Y-125029059D01*
X105694486Y-124999500D01*
X105694481Y-124999500D01*
X105505519Y-124999500D01*
X105505514Y-124999500D01*
X105318881Y-125029059D01*
X105139163Y-125087454D01*
X104970800Y-125173240D01*
X104883579Y-125236610D01*
X104817927Y-125284310D01*
X104817925Y-125284312D01*
X104817924Y-125284312D01*
X104684312Y-125417924D01*
X104684312Y-125417925D01*
X104684310Y-125417927D01*
X104649099Y-125466391D01*
X104573240Y-125570800D01*
X104487454Y-125739163D01*
X104429059Y-125918881D01*
X104399500Y-126105513D01*
X99800500Y-126105513D01*
X99800500Y-121338510D01*
X107124500Y-121338510D01*
X107124500Y-121661489D01*
X107160659Y-121982410D01*
X107160661Y-121982426D01*
X107232527Y-122297294D01*
X107232531Y-122297306D01*
X107339195Y-122602133D01*
X107339201Y-122602147D01*
X107479327Y-122893122D01*
X107479329Y-122893125D01*
X107651159Y-123166591D01*
X107852527Y-123419099D01*
X108080901Y-123647473D01*
X108333409Y-123848841D01*
X108606875Y-124020671D01*
X108897860Y-124160802D01*
X108897866Y-124160804D01*
X109202693Y-124267468D01*
X109202705Y-124267472D01*
X109517577Y-124339339D01*
X109838511Y-124375499D01*
X109838512Y-124375500D01*
X109838515Y-124375500D01*
X110161488Y-124375500D01*
X110161488Y-124375499D01*
X110482423Y-124339339D01*
X110797295Y-124267472D01*
X111102140Y-124160802D01*
X111393125Y-124020671D01*
X111666591Y-123848841D01*
X111919099Y-123647473D01*
X112147473Y-123419099D01*
X112348841Y-123166591D01*
X112520671Y-122893125D01*
X112660802Y-122602140D01*
X112767472Y-122297295D01*
X112839339Y-121982423D01*
X112875500Y-121661485D01*
X112875500Y-121338515D01*
X112839339Y-121017577D01*
X112767472Y-120702705D01*
X112755165Y-120667535D01*
X112661599Y-120400138D01*
X112660802Y-120397860D01*
X112520671Y-120106875D01*
X112348841Y-119833409D01*
X112147473Y-119580901D01*
X111919099Y-119352527D01*
X111903567Y-119340141D01*
X111812522Y-119267535D01*
X111666591Y-119151159D01*
X111393125Y-118979329D01*
X111393122Y-118979327D01*
X111102147Y-118839201D01*
X111102133Y-118839195D01*
X110797306Y-118732531D01*
X110797294Y-118732527D01*
X110482426Y-118660661D01*
X110482410Y-118660659D01*
X110161489Y-118624500D01*
X110161485Y-118624500D01*
X109838515Y-118624500D01*
X109838510Y-118624500D01*
X109517589Y-118660659D01*
X109517573Y-118660661D01*
X109202705Y-118732527D01*
X109202693Y-118732531D01*
X108897866Y-118839195D01*
X108897852Y-118839201D01*
X108606877Y-118979327D01*
X108333410Y-119151158D01*
X108080901Y-119352526D01*
X107852526Y-119580901D01*
X107651158Y-119833410D01*
X107479327Y-120106877D01*
X107339201Y-120397852D01*
X107339195Y-120397866D01*
X107232531Y-120702693D01*
X107232527Y-120702705D01*
X107160661Y-121017573D01*
X107160659Y-121017589D01*
X107124500Y-121338510D01*
X99800500Y-121338510D01*
X99800500Y-111424500D01*
X99820185Y-111357461D01*
X99872989Y-111311706D01*
X99924500Y-111300500D01*
X156972282Y-111300500D01*
X156983928Y-111302667D01*
X157011707Y-111300500D01*
X157039562Y-111300500D01*
X157039958Y-111300393D01*
X157062399Y-111296544D01*
X157079762Y-111295190D01*
X157092496Y-111294854D01*
X157110187Y-111295300D01*
X157115809Y-111293943D01*
X157135245Y-111290862D01*
X157141011Y-111290413D01*
X157157675Y-111284524D01*
X157169908Y-111280897D01*
X157203042Y-111272906D01*
X157215954Y-111270509D01*
X157232838Y-111268294D01*
X157241149Y-111264854D01*
X157247736Y-111262128D01*
X157263405Y-111258351D01*
X157284137Y-111247067D01*
X157321433Y-111231633D01*
X157333604Y-111227327D01*
X157350290Y-111222385D01*
X157363807Y-111214100D01*
X157378452Y-111208041D01*
X157397394Y-111193516D01*
X157432132Y-111172226D01*
X157443419Y-111166091D01*
X157459214Y-111158540D01*
X157461396Y-111156671D01*
X157463738Y-111154669D01*
X157463743Y-111154664D01*
X157471198Y-111148283D01*
X157484652Y-111140040D01*
X157501138Y-111122665D01*
X157531675Y-111096534D01*
X157542142Y-111088503D01*
X157556099Y-111078931D01*
X157566630Y-111066623D01*
X157578932Y-111056097D01*
X157592240Y-111036694D01*
X157618483Y-111006024D01*
X157627348Y-110996693D01*
X157640039Y-110984652D01*
X157648283Y-110971199D01*
X157658541Y-110959212D01*
X157668868Y-110937610D01*
X157690138Y-110902904D01*
X157697449Y-110892264D01*
X157708038Y-110878456D01*
X157714099Y-110863807D01*
X157722384Y-110850290D01*
X157729164Y-110827402D01*
X157744550Y-110790221D01*
X157750215Y-110778354D01*
X157758351Y-110763407D01*
X157759860Y-110757148D01*
X157765829Y-110738798D01*
X157768293Y-110732844D01*
X157770509Y-110715963D01*
X157772906Y-110703044D01*
X157780898Y-110669904D01*
X157784521Y-110657684D01*
X157790413Y-110641012D01*
X157791630Y-110625404D01*
X157795300Y-110610188D01*
X157794694Y-110586128D01*
X157796544Y-110562399D01*
X157800393Y-110539958D01*
X157800500Y-110539562D01*
X157800500Y-110511705D01*
X157802667Y-110483927D01*
X157800500Y-110472280D01*
X157800500Y-102424500D01*
X157820185Y-102357461D01*
X157872989Y-102311706D01*
X157924500Y-102300500D01*
X178075500Y-102300500D01*
X178142539Y-102320185D01*
G37*
%TD.AperFunction*%
%TA.AperFunction,Conductor*%
G36*
X133652989Y-128020147D02*
G01*
X133709148Y-128031945D01*
X133758905Y-128080996D01*
X133774500Y-128141199D01*
X133774500Y-128642852D01*
X133796682Y-128725640D01*
X133813107Y-128754088D01*
X133839535Y-128799862D01*
X134519195Y-129479522D01*
X135163181Y-130123507D01*
X135196666Y-130184830D01*
X135199500Y-130211188D01*
X135199500Y-130265891D01*
X135208773Y-130300499D01*
X135233608Y-130393186D01*
X135233609Y-130393187D01*
X135299500Y-130507313D01*
X135299502Y-130507315D01*
X135380005Y-130587818D01*
X135413490Y-130649141D01*
X135408506Y-130718833D01*
X135366634Y-130774766D01*
X135301170Y-130799183D01*
X135292324Y-130799499D01*
X134317255Y-130799499D01*
X134250216Y-130779814D01*
X134229574Y-130763181D01*
X133945911Y-130479520D01*
X133945911Y-130479519D01*
X133945910Y-130479519D01*
X133830692Y-130364301D01*
X133830684Y-130364291D01*
X133138848Y-129672455D01*
X133138841Y-129672449D01*
X132945911Y-129479520D01*
X132830692Y-129364301D01*
X132830684Y-129364291D01*
X132195672Y-128729279D01*
X132162187Y-128667956D01*
X132167171Y-128598264D01*
X132209043Y-128542331D01*
X132274507Y-128517914D01*
X132302751Y-128519125D01*
X132497683Y-128550000D01*
X132702317Y-128550000D01*
X132904417Y-128517990D01*
X133099031Y-128454755D01*
X133281349Y-128361859D01*
X133366876Y-128299719D01*
X133366877Y-128299719D01*
X132859915Y-127792757D01*
X132968408Y-127730119D01*
X133080119Y-127618408D01*
X133142757Y-127509915D01*
X133652989Y-128020147D01*
G37*
%TD.AperFunction*%
%TA.AperFunction,Conductor*%
G36*
X133722427Y-124217741D02*
G01*
X133765617Y-124272662D01*
X133774500Y-124318749D01*
X133774500Y-126358799D01*
X133754815Y-126425838D01*
X133702011Y-126471593D01*
X133652496Y-126480344D01*
X133142757Y-126990083D01*
X133080119Y-126881592D01*
X132968408Y-126769881D01*
X132859914Y-126707241D01*
X133366876Y-126200279D01*
X133281347Y-126138139D01*
X133099031Y-126045244D01*
X132904417Y-125982009D01*
X132702317Y-125950000D01*
X132497683Y-125950000D01*
X132295582Y-125982009D01*
X132100968Y-126045244D01*
X131918650Y-126138140D01*
X131765675Y-126249284D01*
X131699868Y-126272764D01*
X131631814Y-126256939D01*
X131583119Y-126206833D01*
X131569244Y-126138355D01*
X131594593Y-126073246D01*
X131605108Y-126061285D01*
X131648707Y-126017686D01*
X131820480Y-125845912D01*
X131820480Y-125845911D01*
X132013664Y-125652727D01*
X132128472Y-125537918D01*
X132128476Y-125537916D01*
X132145912Y-125520480D01*
X132145913Y-125520480D01*
X132328471Y-125337919D01*
X132328474Y-125337918D01*
X132345912Y-125320480D01*
X132345913Y-125320480D01*
X132528471Y-125137919D01*
X132528474Y-125137918D01*
X132545912Y-125120480D01*
X132545913Y-125120480D01*
X132820480Y-124845912D01*
X132820480Y-124845911D01*
X133013664Y-124652727D01*
X133128472Y-124537918D01*
X133128476Y-124537916D01*
X133145912Y-124520480D01*
X133145913Y-124520480D01*
X133342394Y-124323996D01*
X133342402Y-124323990D01*
X133342504Y-124323933D01*
X133397986Y-124291899D01*
X133444194Y-124279519D01*
X133493184Y-124266393D01*
X133493184Y-124266392D01*
X133493186Y-124266392D01*
X133588500Y-124211361D01*
X133656400Y-124194889D01*
X133722427Y-124217741D01*
G37*
%TD.AperFunction*%
%TD*%
M02*
