%TF.GenerationSoftware,KiCad,Pcbnew,9.0.9-9.0.9~ubuntu24.04.1*%
%TF.CreationDate,2026-09-28T00:45:41+00:00*%
%TF.ProjectId,key-board-lh,6b65792d-626f-4617-9264-2d6c682e6b69,A*%
%TF.SameCoordinates,Original*%
%TF.FileFunction,Copper,L2,Bot*%
%TF.FilePolarity,Positive*%
%FSLAX46Y46*%
G04 Gerber Fmt 4.6, Leading zero omitted, Abs format (unit mm)*
G04 Created by KiCad (PCBNEW 9.0.9-9.0.9~ubuntu24.04.1) date 2026-09-28 00:45:41*
%MOMM*%
%LPD*%
G01*
G04 APERTURE LIST*
G04 Aperture macros list*
%AMRoundRect*
0 Rectangle with rounded corners*
0 $1 Rounding radius*
0 $2 $3 $4 $5 $6 $7 $8 $9 X,Y pos of 4 corners*
0 Add a 4 corners polygon primitive as box body*
4,1,4,$2,$3,$4,$5,$6,$7,$8,$9,$2,$3,0*
0 Add four circle primitives for the rounded corners*
1,1,$1+$1,$2,$3*
1,1,$1+$1,$4,$5*
1,1,$1+$1,$6,$7*
1,1,$1+$1,$8,$9*
0 Add four rect primitives between the rounded corners*
20,1,$1+$1,$2,$3,$4,$5,0*
20,1,$1+$1,$4,$5,$6,$7,0*
20,1,$1+$1,$6,$7,$8,$9,0*
20,1,$1+$1,$8,$9,$2,$3,0*%
G04 Aperture macros list end*
%TA.AperFunction,ComponentPad*%
%ADD10C,2.000000*%
%TD*%
%TA.AperFunction,SMDPad,CuDef*%
%ADD11RoundRect,0.250000X-0.450000X0.262500X-0.450000X-0.262500X0.450000X-0.262500X0.450000X0.262500X0*%
%TD*%
%TA.AperFunction,SMDPad,CuDef*%
%ADD12C,1.000000*%
%TD*%
%TA.AperFunction,SMDPad,CuDef*%
%ADD13RoundRect,0.150000X0.150000X-0.825000X0.150000X0.825000X-0.150000X0.825000X-0.150000X-0.825000X0*%
%TD*%
%TA.AperFunction,SMDPad,CuDef*%
%ADD14RoundRect,0.250000X0.450000X-0.262500X0.450000X0.262500X-0.450000X0.262500X-0.450000X-0.262500X0*%
%TD*%
%TA.AperFunction,SMDPad,CuDef*%
%ADD15RoundRect,0.250000X0.250000X0.475000X-0.250000X0.475000X-0.250000X-0.475000X0.250000X-0.475000X0*%
%TD*%
%TA.AperFunction,ComponentPad*%
%ADD16R,1.070000X1.070000*%
%TD*%
%TA.AperFunction,ComponentPad*%
%ADD17C,1.070000*%
%TD*%
%TA.AperFunction,SMDPad,CuDef*%
%ADD18RoundRect,0.250000X0.475000X-0.250000X0.475000X0.250000X-0.475000X0.250000X-0.475000X-0.250000X0*%
%TD*%
%TA.AperFunction,ViaPad*%
%ADD19C,0.700000*%
%TD*%
%TA.AperFunction,Conductor*%
%ADD20C,0.250000*%
%TD*%
%TA.AperFunction,Conductor*%
%ADD21C,0.400000*%
%TD*%
G04 APERTURE END LIST*
D10*
%TO.P,SW5,1*%
%TO.N,/LH5/SWITCH_LEG*%
X163600000Y-117200000D03*
%TO.P,SW5,2*%
%TO.N,GND_CHAIN*%
X170600000Y-118250000D03*
%TD*%
%TO.P,SW3,1*%
%TO.N,/LH3/SWITCH_LEG*%
X145600000Y-126200000D03*
%TO.P,SW3,2*%
%TO.N,GND_CHAIN*%
X152600000Y-127250000D03*
%TD*%
%TO.P,SW2,1*%
%TO.N,/LH2/SWITCH_LEG*%
X125600000Y-126200000D03*
%TO.P,SW2,2*%
%TO.N,GND_CHAIN*%
X132600000Y-127250000D03*
%TD*%
%TO.P,SW4,1*%
%TO.N,/LH4/SWITCH_LEG*%
X163600000Y-135200000D03*
%TO.P,SW4,2*%
%TO.N,GND_CHAIN*%
X170600000Y-136250000D03*
%TD*%
%TO.P,SW1,1*%
%TO.N,/LH1/SWITCH_LEG*%
X105600000Y-126200000D03*
%TO.P,SW1,2*%
%TO.N,GND_CHAIN*%
X112600000Y-127250000D03*
%TD*%
D11*
%TO.P,R3,1*%
%TO.N,/KEY_LH2*%
X140000000Y-123287500D03*
%TO.P,R3,2*%
%TO.N,/LH2/SWITCH_LEG*%
X140000000Y-125112500D03*
%TD*%
%TO.P,R1,1*%
%TO.N,/KEY_LH1*%
X120000000Y-123287500D03*
%TO.P,R1,2*%
%TO.N,/LH1/SWITCH_LEG*%
X120000000Y-125112500D03*
%TD*%
D12*
%TO.P,TP3,1*%
%TO.N,GND_CHAIN*%
X150000000Y-114000000D03*
%TD*%
D11*
%TO.P,R7,1*%
%TO.N,/KEY_LH4*%
X178000000Y-132287499D03*
%TO.P,R7,2*%
%TO.N,/LH4/SWITCH_LEG*%
X178000000Y-134112499D03*
%TD*%
D12*
%TO.P,TP6,1*%
%TO.N,V3V3_CHAIN_LH*%
X160500000Y-114000000D03*
%TD*%
D11*
%TO.P,R9,1*%
%TO.N,/KEY_LH5*%
X178000000Y-114287500D03*
%TO.P,R9,2*%
%TO.N,/LH5/SWITCH_LEG*%
X178000000Y-116112500D03*
%TD*%
%TO.P,R10,1*%
%TO.N,V3V3_CHAIN_LH*%
X178000000Y-108887500D03*
%TO.P,R10,2*%
%TO.N,/KEY_LH5*%
X178000000Y-110712500D03*
%TD*%
D13*
%TO.P,U1,1*%
%TO.N,/CHAIN_SHLD*%
X154945000Y-108975000D03*
%TO.P,U1,2*%
%TO.N,/CHAIN_SCK*%
X153675000Y-108975000D03*
%TO.P,U1,3*%
%TO.N,/KEY_LH4*%
X152405000Y-108975000D03*
%TO.P,U1,4*%
%TO.N,/KEY_LH3*%
X151135000Y-108975000D03*
%TO.P,U1,5*%
%TO.N,/KEY_LH2*%
X149865000Y-108975000D03*
%TO.P,U1,6*%
%TO.N,/KEY_LH1*%
X148595000Y-108975000D03*
%TO.P,U1,7*%
%TO.N,unconnected-(U1-~{Q7}-Pad7)*%
X147325000Y-108975000D03*
%TO.P,U1,8*%
%TO.N,GND_CHAIN*%
X146055000Y-108975000D03*
%TO.P,U1,9*%
%TO.N,/HOP_LH_LT*%
X146055000Y-104025000D03*
%TO.P,U1,10*%
%TO.N,/CHAIN_SER_LH*%
X147325000Y-104025000D03*
%TO.P,U1,11*%
%TO.N,/KEY_FREE3*%
X148595000Y-104025000D03*
%TO.P,U1,12*%
%TO.N,V3V3_CHAIN_LH*%
X149865000Y-104025000D03*
%TO.P,U1,13*%
%TO.N,GND_CHAIN*%
X151135000Y-104025000D03*
%TO.P,U1,14*%
%TO.N,/KEY_LH5*%
X152405000Y-104025000D03*
%TO.P,U1,15*%
%TO.N,GND_CHAIN*%
X153675000Y-104025000D03*
%TO.P,U1,16*%
%TO.N,V3V3_CHAIN_LH*%
X154945000Y-104025000D03*
%TD*%
D12*
%TO.P,TP2,1*%
%TO.N,/CHAIN_SER_LH*%
X146500000Y-114000000D03*
%TD*%
D14*
%TO.P,R11,1*%
%TO.N,V3V3_CHAIN_LH*%
X144000000Y-107412500D03*
%TO.P,R11,2*%
%TO.N,/KEY_FREE3*%
X144000000Y-105587500D03*
%TD*%
D15*
%TO.P,C6,1*%
%TO.N,V3V3_CHAIN_LH*%
X155250000Y-101800000D03*
%TO.P,C6,2*%
%TO.N,GND_CHAIN*%
X153350000Y-101800000D03*
%TD*%
D11*
%TO.P,R5,1*%
%TO.N,/KEY_LH3*%
X160000000Y-123287500D03*
%TO.P,R5,2*%
%TO.N,/LH3/SWITCH_LEG*%
X160000000Y-125112500D03*
%TD*%
D16*
%TO.P,J1,1*%
%TO.N,unconnected-(J1-Pin_1-Pad1)*%
X131140000Y-111160000D03*
D17*
%TO.P,J1,2*%
%TO.N,unconnected-(J1-Pin_2-Pad2)*%
X132410000Y-111160000D03*
%TO.P,J1,3*%
%TO.N,V3V3_CHAIN_LH*%
X131140000Y-109890000D03*
%TO.P,J1,4*%
%TO.N,GND_CHAIN*%
X132410000Y-109890000D03*
%TO.P,J1,5*%
%TO.N,/HOP_LH_LT*%
X131140000Y-108620000D03*
%TO.P,J1,6*%
%TO.N,GND_CHAIN*%
X132410000Y-108620000D03*
%TO.P,J1,7*%
%TO.N,/CHAIN_SER_LH*%
X131140000Y-107350000D03*
%TO.P,J1,8*%
%TO.N,GND_CHAIN*%
X132410000Y-107350000D03*
%TO.P,J1,9*%
%TO.N,/CHAIN_SHLD*%
X131140000Y-106080000D03*
%TO.P,J1,10*%
%TO.N,GND_CHAIN*%
X132410000Y-106080000D03*
%TO.P,J1,11*%
%TO.N,/CHAIN_SCK*%
X131140000Y-104810000D03*
%TO.P,J1,12*%
%TO.N,GND_CHAIN*%
X132410000Y-104810000D03*
%TD*%
D11*
%TO.P,R4,1*%
%TO.N,V3V3_CHAIN_LH*%
X140000000Y-117887500D03*
%TO.P,R4,2*%
%TO.N,/KEY_LH2*%
X140000000Y-119712500D03*
%TD*%
D18*
%TO.P,C7,1*%
%TO.N,V3V3_CHAIN_LH*%
X127000000Y-108950000D03*
%TO.P,C7,2*%
%TO.N,GND_CHAIN*%
X127000000Y-107050000D03*
%TD*%
D15*
%TO.P,C5,1*%
%TO.N,/KEY_LH5*%
X176250000Y-112500000D03*
%TO.P,C5,2*%
%TO.N,GND_CHAIN*%
X174350000Y-112500000D03*
%TD*%
%TO.P,C2,1*%
%TO.N,/KEY_LH2*%
X138250000Y-121500000D03*
%TO.P,C2,2*%
%TO.N,GND_CHAIN*%
X136350000Y-121500000D03*
%TD*%
%TO.P,C3,1*%
%TO.N,/KEY_LH3*%
X158250000Y-121500000D03*
%TO.P,C3,2*%
%TO.N,GND_CHAIN*%
X156350000Y-121500000D03*
%TD*%
D12*
%TO.P,TP5,1*%
%TO.N,/CHAIN_SHLD*%
X157000000Y-114000000D03*
%TD*%
D11*
%TO.P,R2,1*%
%TO.N,V3V3_CHAIN_LH*%
X120000000Y-117887500D03*
%TO.P,R2,2*%
%TO.N,/KEY_LH1*%
X120000000Y-119712500D03*
%TD*%
%TO.P,R6,1*%
%TO.N,V3V3_CHAIN_LH*%
X160000000Y-117887500D03*
%TO.P,R6,2*%
%TO.N,/KEY_LH3*%
X160000000Y-119712500D03*
%TD*%
D15*
%TO.P,C1,1*%
%TO.N,/KEY_LH1*%
X118250000Y-121500000D03*
%TO.P,C1,2*%
%TO.N,GND_CHAIN*%
X116350000Y-121500000D03*
%TD*%
D12*
%TO.P,TP4,1*%
%TO.N,/CHAIN_SCK*%
X153500000Y-114000000D03*
%TD*%
%TO.P,TP1,1*%
%TO.N,/HOP_LH_LT*%
X143000000Y-114000000D03*
%TD*%
D15*
%TO.P,C4,1*%
%TO.N,/KEY_LH4*%
X176250000Y-130500000D03*
%TO.P,C4,2*%
%TO.N,GND_CHAIN*%
X174350000Y-130500000D03*
%TD*%
D11*
%TO.P,R8,1*%
%TO.N,V3V3_CHAIN_LH*%
X178000000Y-126887500D03*
%TO.P,R8,2*%
%TO.N,/KEY_LH4*%
X178000000Y-128712500D03*
%TD*%
D19*
%TO.N,/CHAIN_SCK*%
X153600000Y-115100000D03*
X153600000Y-110500000D03*
%TO.N,/CHAIN_SER_LH*%
X147200000Y-102300000D03*
X141800000Y-102300000D03*
%TO.N,/CHAIN_SHLD*%
X130000000Y-101500000D03*
X154400000Y-107500000D03*
%TO.N,/HOP_LH_LT*%
X142800000Y-112300000D03*
%TO.N,/KEY_LH1*%
X148400000Y-110700000D03*
X125800000Y-114300000D03*
%TO.N,/KEY_LH4*%
X159400000Y-109500000D03*
X152000000Y-107500000D03*
%TO.N,/KEY_LH5*%
X176000000Y-108500000D03*
X156600000Y-108500000D03*
%TO.N,/LH1/SWITCH_LEG*%
X118600000Y-125500000D03*
%TO.N,/LH2/SWITCH_LEG*%
X138600000Y-125500000D03*
%TO.N,/LH3/SWITCH_LEG*%
X158600000Y-125500000D03*
%TO.N,/LH4/SWITCH_LEG*%
X176800000Y-134700000D03*
%TO.N,/LH5/SWITCH_LEG*%
X176600000Y-116500000D03*
%TO.N,GND_CHAIN*%
X125400000Y-107500000D03*
X115000000Y-119300000D03*
X128600000Y-111300000D03*
X173000000Y-110300000D03*
X174000000Y-125300000D03*
X155000000Y-118700000D03*
X145200000Y-109700000D03*
X128600000Y-108300000D03*
%TO.N,V3V3_CHAIN_LH*%
X157600000Y-107500000D03*
X140800000Y-116900000D03*
X177400000Y-107500000D03*
X140600000Y-111300000D03*
X159200000Y-116900000D03*
X143800000Y-111300000D03*
%TD*%
D20*
%TO.N,/CHAIN_SCK*%
X153600000Y-109700000D02*
X153600000Y-110500000D01*
X153600000Y-115100000D02*
X153600000Y-114300000D01*
%TO.N,/CHAIN_SER_LH*%
X142400000Y-115100000D02*
X145400000Y-115100000D01*
X141800000Y-102300000D02*
X141800000Y-114500000D01*
X141800000Y-114500000D02*
X142400000Y-115100000D01*
X147200000Y-103300000D02*
X147200000Y-102300000D01*
X145400000Y-115100000D02*
X146200000Y-114300000D01*
%TO.N,/CHAIN_SHLD*%
X155000000Y-112300000D02*
X156600000Y-113900000D01*
X154400000Y-107700000D02*
X154400000Y-107500000D01*
X130000000Y-101500000D02*
X130000000Y-105300000D01*
X155000000Y-109700000D02*
X155000000Y-112300000D01*
X130000000Y-105300000D02*
X130800000Y-106100000D01*
X154800000Y-108100000D02*
X154400000Y-107700000D01*
%TO.N,/HOP_LH_LT*%
X143000000Y-104500000D02*
X146000000Y-104500000D01*
X142800000Y-113700000D02*
X142800000Y-104700000D01*
X142800000Y-104700000D02*
X143000000Y-104500000D01*
%TO.N,/KEY_FREE3*%
X148000000Y-105500000D02*
X144600000Y-105500000D01*
X148400000Y-104900000D02*
X148400000Y-105100000D01*
X148400000Y-105100000D02*
X148000000Y-105500000D01*
%TO.N,/KEY_LH1*%
X118600000Y-122100000D02*
X119400000Y-122900000D01*
X148400000Y-110700000D02*
X148400000Y-109700000D01*
X120600000Y-119500000D02*
X125800000Y-114300000D01*
X119400000Y-120100000D02*
X118600000Y-120900000D01*
%TO.N,/KEY_LH2*%
X139400000Y-120100000D02*
X138600000Y-120900000D01*
X138600000Y-122100000D02*
X139400000Y-122900000D01*
X149800000Y-112300000D02*
X149800000Y-109700000D01*
X142600000Y-119500000D02*
X149800000Y-112300000D01*
X140600000Y-119500000D02*
X142600000Y-119500000D01*
%TO.N,/KEY_LH3*%
X159400000Y-120100000D02*
X158600000Y-120900000D01*
X158000000Y-120900000D02*
X158000000Y-116700000D01*
X158000000Y-116700000D02*
X151200000Y-109900000D01*
X151200000Y-109900000D02*
X151200000Y-109700000D01*
X158600000Y-122100000D02*
X159400000Y-122900000D01*
%TO.N,/KEY_LH4*%
X152000000Y-107500000D02*
X152000000Y-107900000D01*
X176600000Y-131100000D02*
X177400000Y-131900000D01*
X152000000Y-107900000D02*
X152200000Y-108100000D01*
X176000000Y-126100000D02*
X159400000Y-109500000D01*
X176600000Y-129900000D02*
X177400000Y-129100000D01*
X176000000Y-129900000D02*
X176000000Y-126100000D01*
%TO.N,/KEY_LH5*%
X153600000Y-105500000D02*
X153000000Y-105500000D01*
X176600000Y-111900000D02*
X177400000Y-111100000D01*
X153000000Y-105500000D02*
X152600000Y-105100000D01*
X156600000Y-108500000D02*
X153600000Y-105500000D01*
X176600000Y-113100000D02*
X177400000Y-113900000D01*
X176000000Y-111900000D02*
X176000000Y-108500000D01*
X152600000Y-105100000D02*
X152600000Y-104900000D01*
%TO.N,/LH1/SWITCH_LEG*%
X119400000Y-125500000D02*
X118600000Y-125500000D01*
%TO.N,/LH2/SWITCH_LEG*%
X139400000Y-125500000D02*
X138600000Y-125500000D01*
%TO.N,/LH3/SWITCH_LEG*%
X159400000Y-125500000D02*
X158600000Y-125500000D01*
%TO.N,/LH4/SWITCH_LEG*%
X177200000Y-134700000D02*
X177400000Y-134500000D01*
X176800000Y-134700000D02*
X177200000Y-134700000D01*
%TO.N,/LH5/SWITCH_LEG*%
X177400000Y-116500000D02*
X176600000Y-116500000D01*
%TO.N,GND_CHAIN*%
X113400000Y-124700000D02*
X116000000Y-122100000D01*
X153400000Y-126900000D02*
X153400000Y-124700000D01*
X150800000Y-103500000D02*
X150800000Y-104900000D01*
X150800000Y-104900000D02*
X150800000Y-105300000D01*
X150800000Y-105300000D02*
X148600000Y-107500000D01*
X155000000Y-119100000D02*
X155000000Y-118700000D01*
X146200000Y-107900000D02*
X146200000Y-108100000D01*
X156000000Y-120100000D02*
X155000000Y-119100000D01*
X132400000Y-109500000D02*
X132400000Y-109100000D01*
X132400000Y-106900000D02*
X132400000Y-106500000D01*
X152000000Y-102300000D02*
X150800000Y-103500000D01*
X174000000Y-125300000D02*
X174000000Y-129900000D01*
X128600000Y-113500000D02*
X136000000Y-120900000D01*
X146600000Y-107500000D02*
X146200000Y-107900000D01*
X155000000Y-119100000D02*
X150200000Y-114300000D01*
X174000000Y-131100000D02*
X174000000Y-132500000D01*
X171400000Y-115700000D02*
X174000000Y-113100000D01*
X153400000Y-124700000D02*
X156000000Y-122100000D01*
X136000000Y-124300000D02*
X133400000Y-126900000D01*
X171400000Y-117900000D02*
X171400000Y-115700000D01*
X150800000Y-104900000D02*
X151000000Y-104900000D01*
X128600000Y-111300000D02*
X128600000Y-113500000D01*
X132600000Y-105700000D02*
X132600000Y-105100000D01*
X153000000Y-102300000D02*
X152000000Y-102300000D01*
X113400000Y-126900000D02*
X113400000Y-124700000D01*
X132600000Y-108300000D02*
X132600000Y-107700000D01*
X128600000Y-108300000D02*
X127600000Y-107300000D01*
X156000000Y-120900000D02*
X156000000Y-120100000D01*
X148600000Y-107500000D02*
X146600000Y-107500000D01*
X174000000Y-132500000D02*
X171000000Y-135500000D01*
X153600000Y-102300000D02*
X153600000Y-103300000D01*
X136000000Y-122100000D02*
X136000000Y-124300000D01*
X146000000Y-109700000D02*
X145200000Y-109700000D01*
D21*
%TO.N,V3V3_CHAIN_LH*%
X130000000Y-112100000D02*
X130000000Y-110100000D01*
X144600000Y-107100000D02*
X145400000Y-106300000D01*
X159200000Y-117300000D02*
X159400000Y-117500000D01*
X130000000Y-110100000D02*
X129199999Y-109300000D01*
X160200000Y-117500000D02*
X160200000Y-114300000D01*
X140600000Y-112300000D02*
X130199999Y-112300000D01*
X179400000Y-125700000D02*
X178600000Y-126500000D01*
X179400000Y-109900000D02*
X179400000Y-125700000D01*
X178600000Y-109100000D02*
X179400000Y-109900000D01*
X126400000Y-109300000D02*
X126400000Y-111700000D01*
X140600000Y-116900000D02*
X140600000Y-117500000D01*
X140600000Y-116900000D02*
X140800000Y-116900000D01*
X130199999Y-109900000D02*
X130800000Y-109900000D01*
X145400000Y-106300000D02*
X148600000Y-106300000D01*
X130000000Y-110100000D02*
X130199999Y-109900000D01*
X157600000Y-107500000D02*
X155000000Y-104900000D01*
X177400000Y-107500000D02*
X177400000Y-108500000D01*
X149800000Y-105100000D02*
X149800000Y-104900000D01*
X140600000Y-112300000D02*
X140600000Y-116900000D01*
X140600000Y-111300000D02*
X140600000Y-112300000D01*
X155000000Y-103300000D02*
X155000000Y-102300000D01*
X129199999Y-109300000D02*
X127600000Y-109300000D01*
X143800000Y-107700000D02*
X143800000Y-111300000D01*
X159200000Y-116900000D02*
X159200000Y-117300000D01*
X160200000Y-111900000D02*
X157600000Y-109300000D01*
X148600000Y-106300000D02*
X149800000Y-105100000D01*
X126400000Y-111700000D02*
X120600000Y-117500000D01*
X130199999Y-112300000D02*
X130000000Y-112100000D01*
X160200000Y-113700000D02*
X160200000Y-111900000D01*
X157600000Y-109300000D02*
X157600000Y-107500000D01*
%TD*%
%TA.AperFunction,Conductor*%
%TO.N,GND_CHAIN*%
G36*
X129714835Y-100820185D02*
G01*
X129760590Y-100872989D01*
X129770534Y-100942147D01*
X129741509Y-101005703D01*
X129709796Y-101031887D01*
X129661988Y-101059488D01*
X129661982Y-101059493D01*
X129559493Y-101161982D01*
X129559488Y-101161988D01*
X129487017Y-101287511D01*
X129487016Y-101287515D01*
X129449500Y-101427525D01*
X129449500Y-101572475D01*
X129487016Y-101712485D01*
X129487017Y-101712488D01*
X129559488Y-101838011D01*
X129559493Y-101838017D01*
X129638181Y-101916705D01*
X129671666Y-101978028D01*
X129674500Y-102004386D01*
X129674500Y-105257147D01*
X129674500Y-105342853D01*
X129678376Y-105357319D01*
X129696682Y-105425640D01*
X129707860Y-105445000D01*
X129739535Y-105499862D01*
X129739537Y-105499864D01*
X130380977Y-106141304D01*
X130414462Y-106202627D01*
X130414913Y-106204793D01*
X130432763Y-106294532D01*
X130432766Y-106294542D01*
X130488204Y-106428383D01*
X130488211Y-106428396D01*
X130568699Y-106548853D01*
X130568702Y-106548857D01*
X130647164Y-106627319D01*
X130680649Y-106688642D01*
X130675665Y-106758334D01*
X130647164Y-106802681D01*
X130568702Y-106881142D01*
X130568699Y-106881146D01*
X130488211Y-107001603D01*
X130488204Y-107001616D01*
X130432766Y-107135457D01*
X130432763Y-107135469D01*
X130404500Y-107277555D01*
X130404500Y-107422444D01*
X130432763Y-107564530D01*
X130432766Y-107564542D01*
X130488204Y-107698383D01*
X130488211Y-107698396D01*
X130568699Y-107818853D01*
X130568702Y-107818857D01*
X130647164Y-107897319D01*
X130680649Y-107958642D01*
X130675665Y-108028334D01*
X130647164Y-108072681D01*
X130568702Y-108151142D01*
X130568699Y-108151146D01*
X130488211Y-108271603D01*
X130488204Y-108271616D01*
X130432766Y-108405457D01*
X130432763Y-108405469D01*
X130404500Y-108547555D01*
X130404500Y-108692444D01*
X130432763Y-108834530D01*
X130432766Y-108834542D01*
X130488204Y-108968383D01*
X130488211Y-108968396D01*
X130568699Y-109088853D01*
X130568702Y-109088857D01*
X130647164Y-109167319D01*
X130650056Y-109172615D01*
X130655057Y-109175996D01*
X130666608Y-109202928D01*
X130680649Y-109228642D01*
X130680218Y-109234661D01*
X130682598Y-109240209D01*
X130677755Y-109269107D01*
X130675665Y-109298334D01*
X130671791Y-109304692D01*
X130671050Y-109309118D01*
X130657484Y-109328179D01*
X130651284Y-109338358D01*
X130649270Y-109340575D01*
X130568700Y-109421146D01*
X130548054Y-109452043D01*
X130541867Y-109458858D01*
X130519584Y-109472457D01*
X130499556Y-109489196D01*
X130488327Y-109491533D01*
X130482227Y-109495257D01*
X130471628Y-109495010D01*
X130450066Y-109499500D01*
X130147269Y-109499500D01*
X130109989Y-109509489D01*
X130109987Y-109509490D01*
X130093987Y-109513776D01*
X130073370Y-109519301D01*
X130003520Y-109517636D01*
X129953598Y-109487206D01*
X129445913Y-108979521D01*
X129445912Y-108979520D01*
X129354586Y-108926793D01*
X129252726Y-108899500D01*
X129252725Y-108899500D01*
X128049500Y-108899500D01*
X127982461Y-108879815D01*
X127936706Y-108827011D01*
X127925500Y-108775500D01*
X127925500Y-108645730D01*
X127922646Y-108615300D01*
X127922646Y-108615298D01*
X127877793Y-108487119D01*
X127877792Y-108487117D01*
X127797150Y-108377850D01*
X127687882Y-108297207D01*
X127687880Y-108297206D01*
X127559700Y-108252353D01*
X127529270Y-108249500D01*
X127529266Y-108249500D01*
X126470734Y-108249500D01*
X126470730Y-108249500D01*
X126440300Y-108252353D01*
X126440298Y-108252353D01*
X126312119Y-108297206D01*
X126312117Y-108297207D01*
X126202850Y-108377850D01*
X126122207Y-108487117D01*
X126122206Y-108487119D01*
X126077353Y-108615298D01*
X126077353Y-108615300D01*
X126074500Y-108645730D01*
X126074500Y-109029556D01*
X126057887Y-109091556D01*
X126026794Y-109145410D01*
X126026793Y-109145413D01*
X125999500Y-109247273D01*
X125999500Y-111482745D01*
X125979815Y-111549784D01*
X125963181Y-111570426D01*
X120395426Y-117138181D01*
X120334103Y-117171666D01*
X120307745Y-117174500D01*
X119495730Y-117174500D01*
X119465300Y-117177353D01*
X119465298Y-117177353D01*
X119337119Y-117222206D01*
X119337117Y-117222207D01*
X119227850Y-117302850D01*
X119147207Y-117412117D01*
X119147206Y-117412119D01*
X119102353Y-117540298D01*
X119102353Y-117540300D01*
X119099500Y-117570730D01*
X119099500Y-118204269D01*
X119102353Y-118234699D01*
X119102353Y-118234701D01*
X119143510Y-118352317D01*
X119147207Y-118362882D01*
X119227850Y-118472150D01*
X119337118Y-118552793D01*
X119379845Y-118567744D01*
X119465299Y-118597646D01*
X119495730Y-118600500D01*
X119495734Y-118600500D01*
X120504270Y-118600500D01*
X120534699Y-118597646D01*
X120534701Y-118597646D01*
X120598790Y-118575219D01*
X120662882Y-118552793D01*
X120772150Y-118472150D01*
X120852793Y-118362882D01*
X120875219Y-118298790D01*
X120897646Y-118234701D01*
X120897646Y-118234699D01*
X120900500Y-118204269D01*
X120900500Y-117817253D01*
X120920185Y-117750214D01*
X120936814Y-117729577D01*
X126635703Y-112030687D01*
X126635708Y-112030684D01*
X126645911Y-112020480D01*
X126645913Y-112020480D01*
X126720480Y-111945913D01*
X126773207Y-111854587D01*
X126777236Y-111839552D01*
X126800501Y-111752727D01*
X126800501Y-111647273D01*
X126800500Y-111647269D01*
X126800500Y-109774500D01*
X126820185Y-109707461D01*
X126872989Y-109661706D01*
X126924500Y-109650500D01*
X127372858Y-109650500D01*
X127434857Y-109667112D01*
X127445413Y-109673207D01*
X127547273Y-109700500D01*
X128982744Y-109700500D01*
X129049783Y-109720185D01*
X129070425Y-109736819D01*
X129203449Y-109869842D01*
X129455879Y-110122272D01*
X129563181Y-110229573D01*
X129596666Y-110290896D01*
X129599500Y-110317254D01*
X129599500Y-112152727D01*
X129626793Y-112254587D01*
X129677753Y-112342853D01*
X129679521Y-112345914D01*
X129771523Y-112437916D01*
X129771529Y-112437921D01*
X129872445Y-112538837D01*
X129872458Y-112538852D01*
X129879519Y-112545913D01*
X129954086Y-112620480D01*
X130045412Y-112673207D01*
X130109985Y-112690508D01*
X130109986Y-112690509D01*
X130109987Y-112690509D01*
X130147271Y-112700500D01*
X130147272Y-112700500D01*
X140075500Y-112700500D01*
X140142539Y-112720185D01*
X140188294Y-112772989D01*
X140199500Y-112824500D01*
X140199500Y-117050500D01*
X140179815Y-117117539D01*
X140127011Y-117163294D01*
X140075500Y-117174500D01*
X139495730Y-117174500D01*
X139465300Y-117177353D01*
X139465298Y-117177353D01*
X139337119Y-117222206D01*
X139337117Y-117222207D01*
X139227850Y-117302850D01*
X139147207Y-117412117D01*
X139147206Y-117412119D01*
X139102353Y-117540298D01*
X139102353Y-117540300D01*
X139099500Y-117570730D01*
X139099500Y-118204269D01*
X139102353Y-118234699D01*
X139102353Y-118234701D01*
X139143510Y-118352317D01*
X139147207Y-118362882D01*
X139227850Y-118472150D01*
X139337118Y-118552793D01*
X139379845Y-118567744D01*
X139465299Y-118597646D01*
X139495730Y-118600500D01*
X139495734Y-118600500D01*
X140504270Y-118600500D01*
X140534699Y-118597646D01*
X140534701Y-118597646D01*
X140598790Y-118575219D01*
X140662882Y-118552793D01*
X140772150Y-118472150D01*
X140852793Y-118362882D01*
X140875219Y-118298790D01*
X140897646Y-118234701D01*
X140897646Y-118234699D01*
X140900500Y-118204269D01*
X140900500Y-117813743D01*
X140917113Y-117751742D01*
X140920476Y-117745916D01*
X140920480Y-117745913D01*
X140973207Y-117654587D01*
X141000500Y-117552727D01*
X141000500Y-117491494D01*
X141020185Y-117424455D01*
X141062501Y-117384107D01*
X141138015Y-117340509D01*
X141240509Y-117238015D01*
X141312984Y-117112485D01*
X141350500Y-116972475D01*
X141350500Y-116827525D01*
X141312984Y-116687515D01*
X141293685Y-116654089D01*
X141240511Y-116561988D01*
X141240506Y-116561982D01*
X141138017Y-116459493D01*
X141138015Y-116459491D01*
X141082652Y-116427527D01*
X141062500Y-116415892D01*
X141014284Y-116365325D01*
X141000500Y-116308505D01*
X141000500Y-111729386D01*
X141020185Y-111662347D01*
X141036819Y-111641705D01*
X141040509Y-111638015D01*
X141112984Y-111512485D01*
X141150500Y-111372475D01*
X141150500Y-111227525D01*
X141112984Y-111087515D01*
X141096924Y-111059699D01*
X141040511Y-110961988D01*
X141040506Y-110961982D01*
X140938017Y-110859493D01*
X140938011Y-110859488D01*
X140812488Y-110787017D01*
X140812489Y-110787017D01*
X140801006Y-110783940D01*
X140672475Y-110749500D01*
X140527525Y-110749500D01*
X140398993Y-110783940D01*
X140387511Y-110787017D01*
X140261988Y-110859488D01*
X140261982Y-110859493D01*
X140159493Y-110961982D01*
X140159488Y-110961988D01*
X140087017Y-111087511D01*
X140087016Y-111087515D01*
X140049500Y-111227525D01*
X140049500Y-111372475D01*
X140087016Y-111512485D01*
X140087017Y-111512488D01*
X140159488Y-111638011D01*
X140159490Y-111638013D01*
X140159490Y-111638014D01*
X140159493Y-111638017D01*
X140163181Y-111641705D01*
X140177884Y-111668632D01*
X140194477Y-111694451D01*
X140195368Y-111700651D01*
X140196666Y-111703028D01*
X140199500Y-111729386D01*
X140199500Y-111775500D01*
X140179815Y-111842539D01*
X140127011Y-111888294D01*
X140075500Y-111899500D01*
X133010017Y-111899500D01*
X132942978Y-111879815D01*
X132897223Y-111827011D01*
X132887279Y-111757853D01*
X132916304Y-111694297D01*
X132922336Y-111687819D01*
X132981297Y-111628857D01*
X132981300Y-111628854D01*
X133061792Y-111508390D01*
X133071227Y-111485613D01*
X133100553Y-111414811D01*
X133117235Y-111374538D01*
X133145500Y-111232440D01*
X133145500Y-111087560D01*
X133117235Y-110945462D01*
X133115044Y-110940173D01*
X133061795Y-110811616D01*
X133061788Y-110811603D01*
X132981300Y-110691146D01*
X132981297Y-110691142D01*
X132878854Y-110588699D01*
X132758387Y-110508206D01*
X132753017Y-110505336D01*
X132753354Y-110504704D01*
X132718715Y-110481557D01*
X132472703Y-110235545D01*
X132545095Y-110216148D01*
X132624905Y-110170070D01*
X132690070Y-110104905D01*
X132736148Y-110025095D01*
X132755545Y-109952704D01*
X133125290Y-110322449D01*
X133149967Y-110285520D01*
X133149970Y-110285513D01*
X133212909Y-110133564D01*
X133212912Y-110133554D01*
X133245000Y-109972242D01*
X133245000Y-109807757D01*
X133212912Y-109646445D01*
X133212909Y-109646435D01*
X133149969Y-109494483D01*
X133149964Y-109494474D01*
X133125291Y-109457550D01*
X133125290Y-109457549D01*
X132755545Y-109827295D01*
X132736148Y-109754905D01*
X132690070Y-109675095D01*
X132624905Y-109609930D01*
X132545095Y-109563852D01*
X132472703Y-109544454D01*
X132762158Y-109255000D01*
X132472703Y-108965545D01*
X132545095Y-108946148D01*
X132624905Y-108900070D01*
X132690070Y-108834905D01*
X132736148Y-108755095D01*
X132755545Y-108682704D01*
X133125290Y-109052449D01*
X133149967Y-109015520D01*
X133149970Y-109015513D01*
X133212909Y-108863564D01*
X133212912Y-108863554D01*
X133245000Y-108702242D01*
X133245000Y-108537757D01*
X133212912Y-108376445D01*
X133212909Y-108376435D01*
X133149969Y-108224483D01*
X133149964Y-108224474D01*
X133125291Y-108187550D01*
X133125290Y-108187549D01*
X132755545Y-108557295D01*
X132736148Y-108484905D01*
X132690070Y-108405095D01*
X132624905Y-108339930D01*
X132545095Y-108293852D01*
X132472703Y-108274454D01*
X132762158Y-107985000D01*
X132472703Y-107695545D01*
X132545095Y-107676148D01*
X132624905Y-107630070D01*
X132690070Y-107564905D01*
X132736148Y-107485095D01*
X132755545Y-107412704D01*
X133125290Y-107782449D01*
X133149967Y-107745520D01*
X133149970Y-107745513D01*
X133212909Y-107593564D01*
X133212912Y-107593554D01*
X133245000Y-107432242D01*
X133245000Y-107267757D01*
X133212912Y-107106445D01*
X133212909Y-107106435D01*
X133149969Y-106954483D01*
X133149964Y-106954474D01*
X133125291Y-106917550D01*
X133125290Y-106917549D01*
X132755545Y-107287295D01*
X132736148Y-107214905D01*
X132690070Y-107135095D01*
X132624905Y-107069930D01*
X132545095Y-107023852D01*
X132472703Y-107004454D01*
X132762158Y-106715000D01*
X132472703Y-106425545D01*
X132545095Y-106406148D01*
X132624905Y-106360070D01*
X132690070Y-106294905D01*
X132736148Y-106215095D01*
X132755545Y-106142704D01*
X133125290Y-106512449D01*
X133149967Y-106475520D01*
X133149970Y-106475513D01*
X133212909Y-106323564D01*
X133212912Y-106323554D01*
X133245000Y-106162242D01*
X133245000Y-105997757D01*
X133212912Y-105836445D01*
X133212909Y-105836435D01*
X133149969Y-105684483D01*
X133149964Y-105684474D01*
X133125291Y-105647550D01*
X133125290Y-105647549D01*
X132755545Y-106017295D01*
X132736148Y-105944905D01*
X132690070Y-105865095D01*
X132624905Y-105799930D01*
X132545095Y-105753852D01*
X132472703Y-105734454D01*
X132762158Y-105445000D01*
X132472703Y-105155545D01*
X132545095Y-105136148D01*
X132624905Y-105090070D01*
X132690070Y-105024905D01*
X132736148Y-104945095D01*
X132755545Y-104872704D01*
X133125290Y-105242449D01*
X133149967Y-105205520D01*
X133149970Y-105205513D01*
X133212909Y-105053564D01*
X133212912Y-105053554D01*
X133245000Y-104892242D01*
X133245000Y-104727757D01*
X133212912Y-104566445D01*
X133212909Y-104566435D01*
X133149969Y-104414483D01*
X133149964Y-104414474D01*
X133125291Y-104377550D01*
X133125290Y-104377549D01*
X132755545Y-104747295D01*
X132736148Y-104674905D01*
X132690070Y-104595095D01*
X132624905Y-104529930D01*
X132545095Y-104483852D01*
X132472703Y-104464454D01*
X132842448Y-104094708D01*
X132805514Y-104070029D01*
X132653564Y-104007090D01*
X132653554Y-104007087D01*
X132492242Y-103975000D01*
X132327758Y-103975000D01*
X132166445Y-104007087D01*
X132166435Y-104007090D01*
X132014482Y-104070030D01*
X131977550Y-104094707D01*
X131977550Y-104094708D01*
X132347296Y-104464454D01*
X132274905Y-104483852D01*
X132195095Y-104529930D01*
X132129930Y-104595095D01*
X132083852Y-104674905D01*
X132064454Y-104747296D01*
X131818442Y-104501284D01*
X131795292Y-104466637D01*
X131794660Y-104466976D01*
X131791790Y-104461607D01*
X131711300Y-104341146D01*
X131711297Y-104341142D01*
X131608860Y-104238705D01*
X131608852Y-104238699D01*
X131608850Y-104238697D01*
X131488396Y-104158211D01*
X131488383Y-104158204D01*
X131354542Y-104102766D01*
X131354530Y-104102763D01*
X131212444Y-104074500D01*
X131212440Y-104074500D01*
X131067560Y-104074500D01*
X131067555Y-104074500D01*
X130925469Y-104102763D01*
X130925457Y-104102766D01*
X130791616Y-104158204D01*
X130791603Y-104158211D01*
X130671146Y-104238699D01*
X130671142Y-104238702D01*
X130568702Y-104341142D01*
X130568697Y-104341148D01*
X130552601Y-104365238D01*
X130498988Y-104410043D01*
X130429663Y-104418749D01*
X130366636Y-104388593D01*
X130329918Y-104329150D01*
X130325500Y-104296346D01*
X130325500Y-102004386D01*
X130345185Y-101937347D01*
X130361819Y-101916705D01*
X130440509Y-101838015D01*
X130512984Y-101712485D01*
X130550500Y-101572475D01*
X130550500Y-101427525D01*
X130512984Y-101287515D01*
X130506071Y-101275542D01*
X130440511Y-101161988D01*
X130440506Y-101161982D01*
X130338017Y-101059493D01*
X130338011Y-101059488D01*
X130290204Y-101031887D01*
X130241988Y-100981320D01*
X130228766Y-100912712D01*
X130254734Y-100847848D01*
X130311648Y-100807320D01*
X130352204Y-100800500D01*
X152557830Y-100800500D01*
X152624869Y-100820185D01*
X152670624Y-100872989D01*
X152680568Y-100942147D01*
X152656634Y-100999425D01*
X152616080Y-101052902D01*
X152560613Y-101193556D01*
X152550000Y-101281946D01*
X152550000Y-101600000D01*
X154150000Y-101600000D01*
X154150000Y-101281946D01*
X154139386Y-101193556D01*
X154083919Y-101052902D01*
X154043366Y-100999425D01*
X154018543Y-100934114D01*
X154032971Y-100865750D01*
X154082068Y-100816039D01*
X154142170Y-100800500D01*
X154581561Y-100800500D01*
X154648600Y-100820185D01*
X154694355Y-100872989D01*
X154704299Y-100942147D01*
X154681331Y-100998134D01*
X154677850Y-101002849D01*
X154677850Y-101002850D01*
X154670154Y-101013278D01*
X154597207Y-101112117D01*
X154597206Y-101112119D01*
X154552353Y-101240298D01*
X154552353Y-101240300D01*
X154549500Y-101270730D01*
X154549500Y-102329269D01*
X154552353Y-102359699D01*
X154552354Y-102359701D01*
X154592541Y-102474548D01*
X154599500Y-102515503D01*
X154599500Y-102848456D01*
X154579815Y-102915495D01*
X154575702Y-102921501D01*
X154570010Y-102929308D01*
X154505802Y-102993517D01*
X154470373Y-103065987D01*
X154463956Y-103074791D01*
X154444541Y-103089712D01*
X154428026Y-103107789D01*
X154417331Y-103110625D01*
X154408558Y-103117369D01*
X154384157Y-103119425D01*
X154360492Y-103125703D01*
X154349961Y-103122307D01*
X154338935Y-103123237D01*
X154317298Y-103111776D01*
X154293993Y-103104262D01*
X154286968Y-103095710D01*
X154277192Y-103090532D01*
X154265185Y-103069192D01*
X154249644Y-103050272D01*
X154246712Y-103042700D01*
X154227346Y-102987354D01*
X154146792Y-102878207D01*
X154046567Y-102804238D01*
X154004317Y-102748590D01*
X153998858Y-102678934D01*
X154021398Y-102629541D01*
X154083920Y-102547095D01*
X154139386Y-102406443D01*
X154150000Y-102318053D01*
X154150000Y-102000000D01*
X152550000Y-102000000D01*
X152550000Y-102318053D01*
X152560613Y-102406443D01*
X152616079Y-102547095D01*
X152694725Y-102650804D01*
X152719548Y-102716116D01*
X152705120Y-102784480D01*
X152656023Y-102834191D01*
X152592747Y-102848368D01*
X152592747Y-102849500D01*
X152221739Y-102849500D01*
X152153608Y-102859426D01*
X152048514Y-102910803D01*
X151965802Y-102993515D01*
X151935154Y-103056207D01*
X151888026Y-103107789D01*
X151820492Y-103125703D01*
X151753993Y-103104262D01*
X151709644Y-103050272D01*
X151706712Y-103042700D01*
X151687346Y-102987354D01*
X151606792Y-102878207D01*
X151497645Y-102797653D01*
X151369602Y-102752850D01*
X151339207Y-102750000D01*
X151335000Y-102750000D01*
X151335000Y-105299999D01*
X151339196Y-105299999D01*
X151369606Y-105297148D01*
X151497645Y-105252346D01*
X151606792Y-105171792D01*
X151687346Y-105062645D01*
X151687347Y-105062643D01*
X151706712Y-105007300D01*
X151747433Y-104950523D01*
X151812385Y-104924775D01*
X151880947Y-104938231D01*
X151931351Y-104986617D01*
X151935155Y-104993793D01*
X151965803Y-105056485D01*
X152048514Y-105139196D01*
X152048515Y-105139196D01*
X152048517Y-105139198D01*
X152153607Y-105190573D01*
X152184026Y-105195005D01*
X152226180Y-105201147D01*
X152225934Y-105202829D01*
X152284656Y-105224773D01*
X152317670Y-105261992D01*
X152331896Y-105286631D01*
X152339535Y-105299862D01*
X152739534Y-105699861D01*
X152739535Y-105699862D01*
X152800138Y-105760465D01*
X152800140Y-105760466D01*
X152800144Y-105760469D01*
X152868494Y-105799930D01*
X152874362Y-105803318D01*
X152957147Y-105825500D01*
X153042852Y-105825500D01*
X153413811Y-105825500D01*
X153480850Y-105845185D01*
X153501492Y-105861819D01*
X154382012Y-106742339D01*
X154415497Y-106803662D01*
X154410513Y-106873354D01*
X154368641Y-106929287D01*
X154326426Y-106949794D01*
X154218271Y-106978774D01*
X154187511Y-106987017D01*
X154061988Y-107059488D01*
X154061982Y-107059493D01*
X153959493Y-107161982D01*
X153959488Y-107161988D01*
X153887017Y-107287511D01*
X153887016Y-107287515D01*
X153849500Y-107427525D01*
X153849500Y-107572475D01*
X153868506Y-107643409D01*
X153866844Y-107713256D01*
X153827682Y-107771118D01*
X153763454Y-107798623D01*
X153748732Y-107799500D01*
X153491739Y-107799500D01*
X153423608Y-107809426D01*
X153318514Y-107860803D01*
X153235803Y-107943514D01*
X153184426Y-108048608D01*
X153174500Y-108116739D01*
X153174500Y-109833260D01*
X153184426Y-109901392D01*
X153184426Y-109901393D01*
X153222920Y-109980134D01*
X153234678Y-110049007D01*
X153207335Y-110113304D01*
X153199202Y-110122272D01*
X153159494Y-110161981D01*
X153159488Y-110161988D01*
X153087017Y-110287511D01*
X153087016Y-110287515D01*
X153049500Y-110427525D01*
X153049500Y-110572475D01*
X153071438Y-110654346D01*
X153087017Y-110712488D01*
X153159488Y-110838011D01*
X153159490Y-110838013D01*
X153159491Y-110838015D01*
X153261985Y-110940509D01*
X153261986Y-110940510D01*
X153261988Y-110940511D01*
X153387511Y-111012982D01*
X153387512Y-111012982D01*
X153387515Y-111012984D01*
X153527525Y-111050500D01*
X153527528Y-111050500D01*
X153672472Y-111050500D01*
X153672475Y-111050500D01*
X153812485Y-111012984D01*
X153938015Y-110940509D01*
X154040509Y-110838015D01*
X154112984Y-110712485D01*
X154150500Y-110572475D01*
X154150500Y-110427525D01*
X154112984Y-110287515D01*
X154058136Y-110192516D01*
X154041664Y-110124619D01*
X154064516Y-110058592D01*
X154077839Y-110042841D01*
X154114198Y-110006483D01*
X154165573Y-109901393D01*
X154175500Y-109833260D01*
X154175500Y-108235189D01*
X154181738Y-108213943D01*
X154183318Y-108191855D01*
X154191390Y-108181071D01*
X154195185Y-108168150D01*
X154211918Y-108153650D01*
X154225190Y-108135922D01*
X154237810Y-108131214D01*
X154247989Y-108122395D01*
X154269906Y-108119243D01*
X154290654Y-108111505D01*
X154303814Y-108114367D01*
X154317147Y-108112451D01*
X154337290Y-108121650D01*
X154358927Y-108126357D01*
X154376652Y-108139625D01*
X154380703Y-108141476D01*
X154387181Y-108147508D01*
X154408181Y-108168508D01*
X154441666Y-108229831D01*
X154444500Y-108256189D01*
X154444500Y-109833260D01*
X154454426Y-109901391D01*
X154505803Y-110006485D01*
X154588515Y-110089197D01*
X154604959Y-110097236D01*
X154656542Y-110144364D01*
X154674500Y-110208637D01*
X154674500Y-112342852D01*
X154696682Y-112425640D01*
X154703770Y-112437916D01*
X154739535Y-112499862D01*
X154739536Y-112499863D01*
X154739537Y-112499864D01*
X156270625Y-114030951D01*
X156278695Y-114044987D01*
X156289057Y-114054475D01*
X156299235Y-114080711D01*
X156302833Y-114086969D01*
X156303816Y-114090691D01*
X156326420Y-114204328D01*
X156346859Y-114253673D01*
X156348993Y-114261752D01*
X156348255Y-114288660D01*
X156351134Y-114315433D01*
X156347313Y-114323064D01*
X156347080Y-114331596D01*
X156331909Y-114353837D01*
X156319858Y-114377912D01*
X156312517Y-114382267D01*
X156307709Y-114389317D01*
X156282926Y-114399824D01*
X156259769Y-114413564D01*
X156251238Y-114413259D01*
X156243382Y-114416590D01*
X156216850Y-114412030D01*
X156189944Y-114411069D01*
X156181729Y-114405994D01*
X156174522Y-114404756D01*
X156163734Y-114394878D01*
X156141423Y-114381096D01*
X152121955Y-110361628D01*
X152088470Y-110300305D01*
X152093454Y-110230613D01*
X152135326Y-110174680D01*
X152200790Y-110150263D01*
X152218615Y-110150273D01*
X152221738Y-110150499D01*
X152221740Y-110150500D01*
X152221742Y-110150500D01*
X152588261Y-110150500D01*
X152610971Y-110147191D01*
X152656393Y-110140573D01*
X152761483Y-110089198D01*
X152844198Y-110006483D01*
X152895573Y-109901393D01*
X152905500Y-109833260D01*
X152905500Y-108116740D01*
X152905044Y-108113613D01*
X152895849Y-108050500D01*
X152895573Y-108048607D01*
X152844198Y-107943517D01*
X152844196Y-107943515D01*
X152844196Y-107943514D01*
X152761485Y-107860803D01*
X152656391Y-107809426D01*
X152631359Y-107805779D01*
X152567858Y-107776634D01*
X152530195Y-107717785D01*
X152529463Y-107650985D01*
X152550500Y-107572475D01*
X152550500Y-107427525D01*
X152512984Y-107287515D01*
X152507236Y-107277560D01*
X152440511Y-107161988D01*
X152440506Y-107161982D01*
X152338017Y-107059493D01*
X152338011Y-107059488D01*
X152212488Y-106987017D01*
X152212489Y-106987017D01*
X152201006Y-106983940D01*
X152072475Y-106949500D01*
X151927525Y-106949500D01*
X151798993Y-106983940D01*
X151787511Y-106987017D01*
X151661988Y-107059488D01*
X151661982Y-107059493D01*
X151559493Y-107161982D01*
X151559488Y-107161988D01*
X151487017Y-107287511D01*
X151487016Y-107287515D01*
X151449500Y-107427525D01*
X151449500Y-107427527D01*
X151449500Y-107572474D01*
X151469379Y-107646664D01*
X151467716Y-107716514D01*
X151428553Y-107774376D01*
X151364325Y-107801880D01*
X151331732Y-107801462D01*
X151318261Y-107799500D01*
X151318260Y-107799500D01*
X150951740Y-107799500D01*
X150951739Y-107799500D01*
X150883608Y-107809426D01*
X150778514Y-107860803D01*
X150695803Y-107943514D01*
X150644426Y-108048608D01*
X150634500Y-108116739D01*
X150634500Y-109833260D01*
X150644426Y-109901391D01*
X150695803Y-110006485D01*
X150778514Y-110089196D01*
X150778515Y-110089196D01*
X150778517Y-110089198D01*
X150883607Y-110140573D01*
X150951740Y-110150500D01*
X150951746Y-110150500D01*
X150956015Y-110151122D01*
X151019517Y-110180267D01*
X151025819Y-110186146D01*
X157638181Y-116798508D01*
X157671666Y-116859831D01*
X157674500Y-116886189D01*
X157674500Y-120666586D01*
X157654815Y-120733625D01*
X157650270Y-120740219D01*
X157597209Y-120812113D01*
X157597206Y-120812119D01*
X157552353Y-120940298D01*
X157552353Y-120940300D01*
X157549500Y-120970730D01*
X157549500Y-122029269D01*
X157552353Y-122059699D01*
X157552353Y-122059701D01*
X157597206Y-122187880D01*
X157597207Y-122187882D01*
X157677850Y-122297150D01*
X157787118Y-122377793D01*
X157829845Y-122392744D01*
X157915299Y-122422646D01*
X157945730Y-122425500D01*
X157945734Y-122425500D01*
X158413811Y-122425500D01*
X158480850Y-122445185D01*
X158501492Y-122461819D01*
X159063181Y-123023508D01*
X159096666Y-123084831D01*
X159099500Y-123111189D01*
X159099500Y-123604269D01*
X159102353Y-123634699D01*
X159102353Y-123634701D01*
X159147206Y-123762880D01*
X159147207Y-123762882D01*
X159227850Y-123872150D01*
X159337118Y-123952793D01*
X159379845Y-123967744D01*
X159465299Y-123997646D01*
X159495730Y-124000500D01*
X159495734Y-124000500D01*
X160504270Y-124000500D01*
X160534699Y-123997646D01*
X160534701Y-123997646D01*
X160598790Y-123975219D01*
X160662882Y-123952793D01*
X160772150Y-123872150D01*
X160852793Y-123762882D01*
X160885337Y-123669877D01*
X160897646Y-123634701D01*
X160897646Y-123634699D01*
X160900500Y-123604269D01*
X160900500Y-122970730D01*
X160897646Y-122940300D01*
X160897646Y-122940298D01*
X160852793Y-122812119D01*
X160852792Y-122812117D01*
X160772150Y-122702850D01*
X160662882Y-122622207D01*
X160662880Y-122622206D01*
X160534700Y-122577353D01*
X160504270Y-122574500D01*
X160504266Y-122574500D01*
X159586189Y-122574500D01*
X159519150Y-122554815D01*
X159498508Y-122538181D01*
X158986819Y-122026492D01*
X158953334Y-121965169D01*
X158950500Y-121938811D01*
X158950500Y-121061189D01*
X158970185Y-120994150D01*
X158986819Y-120973508D01*
X159498508Y-120461819D01*
X159559831Y-120428334D01*
X159586189Y-120425500D01*
X160504270Y-120425500D01*
X160534699Y-120422646D01*
X160534701Y-120422646D01*
X160598790Y-120400219D01*
X160662882Y-120377793D01*
X160772150Y-120297150D01*
X160852793Y-120187882D01*
X160886224Y-120092342D01*
X160897646Y-120059701D01*
X160897646Y-120059699D01*
X160900500Y-120029269D01*
X160900500Y-119395730D01*
X160897646Y-119365300D01*
X160897646Y-119365298D01*
X160852793Y-119237119D01*
X160852792Y-119237117D01*
X160772150Y-119127850D01*
X160662882Y-119047207D01*
X160662880Y-119047206D01*
X160534700Y-119002353D01*
X160504270Y-118999500D01*
X160504266Y-118999500D01*
X159495734Y-118999500D01*
X159495730Y-118999500D01*
X159465300Y-119002353D01*
X159465298Y-119002353D01*
X159337119Y-119047206D01*
X159337117Y-119047207D01*
X159227850Y-119127850D01*
X159147207Y-119237117D01*
X159147206Y-119237119D01*
X159102353Y-119365298D01*
X159102353Y-119365300D01*
X159099500Y-119395730D01*
X159099500Y-119888811D01*
X159079815Y-119955850D01*
X159063181Y-119976492D01*
X158537181Y-120502492D01*
X158475858Y-120535977D01*
X158406166Y-120530993D01*
X158350233Y-120489121D01*
X158325816Y-120423657D01*
X158325500Y-120414811D01*
X158325500Y-116657148D01*
X158325500Y-116657147D01*
X158324680Y-116654087D01*
X158303318Y-116574361D01*
X158302227Y-116572472D01*
X158285992Y-116544352D01*
X158260465Y-116500138D01*
X156618903Y-114858576D01*
X156585418Y-114797253D01*
X156590402Y-114727561D01*
X156632274Y-114671628D01*
X156697738Y-114647211D01*
X156754035Y-114656333D01*
X156795672Y-114673580D01*
X156795676Y-114673580D01*
X156795677Y-114673581D01*
X156931004Y-114700500D01*
X156931007Y-114700500D01*
X157068995Y-114700500D01*
X157160041Y-114682389D01*
X157204328Y-114673580D01*
X157331811Y-114620775D01*
X157446542Y-114544114D01*
X157544114Y-114446542D01*
X157620775Y-114331811D01*
X157673580Y-114204328D01*
X157696817Y-114087511D01*
X157700500Y-114068995D01*
X157700500Y-113931004D01*
X157673581Y-113795677D01*
X157673580Y-113795676D01*
X157673580Y-113795672D01*
X157653362Y-113746861D01*
X157620778Y-113668195D01*
X157620771Y-113668182D01*
X157544114Y-113553458D01*
X157544111Y-113553454D01*
X157446545Y-113455888D01*
X157446541Y-113455885D01*
X157331817Y-113379228D01*
X157331804Y-113379221D01*
X157204332Y-113326421D01*
X157204322Y-113326418D01*
X157068995Y-113299500D01*
X157068993Y-113299500D01*
X156931007Y-113299500D01*
X156931005Y-113299500D01*
X156795677Y-113326418D01*
X156795667Y-113326421D01*
X156668193Y-113379222D01*
X156665465Y-113380681D01*
X156663871Y-113381012D01*
X156662560Y-113381556D01*
X156662456Y-113381307D01*
X156597062Y-113394923D01*
X156531818Y-113369923D01*
X156519330Y-113359004D01*
X155942920Y-112782594D01*
X155361819Y-112201492D01*
X155328334Y-112140169D01*
X155325500Y-112113811D01*
X155325500Y-110116543D01*
X155345185Y-110049504D01*
X155361815Y-110028865D01*
X155384198Y-110006483D01*
X155435573Y-109901393D01*
X155445500Y-109833260D01*
X155445500Y-108116740D01*
X155445498Y-108116727D01*
X155445272Y-108113613D01*
X155445500Y-108112559D01*
X155445500Y-108112253D01*
X155445566Y-108112253D01*
X155460052Y-108045324D01*
X155509404Y-107995866D01*
X155577661Y-107980942D01*
X155643152Y-108005289D01*
X155656628Y-108016954D01*
X156013181Y-108373507D01*
X156046666Y-108434830D01*
X156049500Y-108461188D01*
X156049500Y-108572475D01*
X156087016Y-108712485D01*
X156087017Y-108712488D01*
X156159488Y-108838011D01*
X156159490Y-108838013D01*
X156159491Y-108838015D01*
X156261985Y-108940509D01*
X156261986Y-108940510D01*
X156261988Y-108940511D01*
X156387511Y-109012982D01*
X156387512Y-109012982D01*
X156387515Y-109012984D01*
X156527525Y-109050500D01*
X156527528Y-109050500D01*
X156672472Y-109050500D01*
X156672475Y-109050500D01*
X156812485Y-109012984D01*
X156938015Y-108940509D01*
X156987819Y-108890705D01*
X157049142Y-108857220D01*
X157118834Y-108862204D01*
X157174767Y-108904076D01*
X157199184Y-108969540D01*
X157199500Y-108978386D01*
X157199500Y-109247273D01*
X157199500Y-109352727D01*
X157202221Y-109362882D01*
X157226793Y-109454589D01*
X157245625Y-109487206D01*
X157279520Y-109545913D01*
X157279522Y-109545915D01*
X159763181Y-112029574D01*
X159796666Y-112090897D01*
X159799500Y-112117255D01*
X159799500Y-113752728D01*
X159812370Y-113800760D01*
X159814212Y-113857044D01*
X159799500Y-113931004D01*
X159799500Y-113931007D01*
X159799500Y-114068993D01*
X159799500Y-114068995D01*
X159799499Y-114068995D01*
X159814212Y-114142955D01*
X159812370Y-114199239D01*
X159799500Y-114247271D01*
X159799500Y-116421614D01*
X159779815Y-116488653D01*
X159727011Y-116534408D01*
X159657853Y-116544352D01*
X159594297Y-116515327D01*
X159587819Y-116509295D01*
X159538017Y-116459493D01*
X159538011Y-116459488D01*
X159412488Y-116387017D01*
X159412489Y-116387017D01*
X159400498Y-116383804D01*
X159272475Y-116349500D01*
X159127525Y-116349500D01*
X158999502Y-116383804D01*
X158987511Y-116387017D01*
X158861988Y-116459488D01*
X158861982Y-116459493D01*
X158759493Y-116561982D01*
X158759488Y-116561988D01*
X158687017Y-116687511D01*
X158687016Y-116687515D01*
X158649500Y-116827525D01*
X158649500Y-116972475D01*
X158687016Y-117112485D01*
X158687017Y-117112488D01*
X158759488Y-117238011D01*
X158759493Y-117238017D01*
X158763181Y-117241705D01*
X158796666Y-117303028D01*
X158799500Y-117329386D01*
X158799500Y-117352726D01*
X158826793Y-117454589D01*
X158843267Y-117483122D01*
X158879520Y-117545913D01*
X159063182Y-117729574D01*
X159096666Y-117790895D01*
X159099500Y-117817254D01*
X159099500Y-118204269D01*
X159102353Y-118234699D01*
X159102353Y-118234701D01*
X159143510Y-118352317D01*
X159147207Y-118362882D01*
X159227850Y-118472150D01*
X159337118Y-118552793D01*
X159379845Y-118567744D01*
X159465299Y-118597646D01*
X159495730Y-118600500D01*
X159495734Y-118600500D01*
X160504270Y-118600500D01*
X160534699Y-118597646D01*
X160534701Y-118597646D01*
X160598790Y-118575219D01*
X160662882Y-118552793D01*
X160772150Y-118472150D01*
X160852793Y-118362882D01*
X160875219Y-118298790D01*
X160897646Y-118234701D01*
X160897646Y-118234699D01*
X160900500Y-118204269D01*
X160900500Y-117570730D01*
X160897646Y-117540300D01*
X160897646Y-117540298D01*
X160857110Y-117424455D01*
X160852793Y-117412118D01*
X160772150Y-117302850D01*
X160662882Y-117222207D01*
X160662881Y-117222206D01*
X160655405Y-117216689D01*
X160656862Y-117214714D01*
X160656306Y-117214174D01*
X160643297Y-117208233D01*
X160631768Y-117190293D01*
X160616485Y-117175420D01*
X160612532Y-117160362D01*
X160605523Y-117149455D01*
X160600500Y-117114520D01*
X160600500Y-117105513D01*
X162399500Y-117105513D01*
X162399500Y-117294486D01*
X162429059Y-117481118D01*
X162487454Y-117660836D01*
X162540984Y-117765893D01*
X162573240Y-117829199D01*
X162684310Y-117982073D01*
X162817927Y-118115690D01*
X162970801Y-118226760D01*
X163050347Y-118267290D01*
X163139163Y-118312545D01*
X163139165Y-118312545D01*
X163139168Y-118312547D01*
X163235497Y-118343846D01*
X163318881Y-118370940D01*
X163505514Y-118400500D01*
X163505519Y-118400500D01*
X163694486Y-118400500D01*
X163881118Y-118370940D01*
X163938433Y-118352317D01*
X164060832Y-118312547D01*
X164229199Y-118226760D01*
X164382073Y-118115690D01*
X164515690Y-117982073D01*
X164626760Y-117829199D01*
X164712547Y-117660832D01*
X164770940Y-117481118D01*
X164775142Y-117454588D01*
X164800500Y-117294486D01*
X164800500Y-117105513D01*
X164770940Y-116918881D01*
X164712545Y-116739163D01*
X164635463Y-116587882D01*
X164626760Y-116570801D01*
X164515690Y-116417927D01*
X164382073Y-116284310D01*
X164229199Y-116173240D01*
X164207104Y-116161982D01*
X164060836Y-116087454D01*
X163881118Y-116029059D01*
X163694486Y-115999500D01*
X163694481Y-115999500D01*
X163505519Y-115999500D01*
X163505514Y-115999500D01*
X163318881Y-116029059D01*
X163139163Y-116087454D01*
X162970800Y-116173240D01*
X162883579Y-116236610D01*
X162817927Y-116284310D01*
X162817925Y-116284312D01*
X162817924Y-116284312D01*
X162684312Y-116417924D01*
X162684312Y-116417925D01*
X162684310Y-116417927D01*
X162653961Y-116459699D01*
X162573240Y-116570800D01*
X162487454Y-116739163D01*
X162429059Y-116918881D01*
X162399500Y-117105513D01*
X160600500Y-117105513D01*
X160600500Y-114795996D01*
X160620185Y-114728957D01*
X160672989Y-114683202D01*
X160700310Y-114674379D01*
X160704328Y-114673580D01*
X160831811Y-114620775D01*
X160946542Y-114544114D01*
X161044114Y-114446542D01*
X161120775Y-114331811D01*
X161173580Y-114204328D01*
X161196817Y-114087511D01*
X161200500Y-114068995D01*
X161200500Y-113931004D01*
X161173581Y-113795677D01*
X161173580Y-113795676D01*
X161173580Y-113795672D01*
X161153362Y-113746861D01*
X161120778Y-113668195D01*
X161120771Y-113668182D01*
X161044114Y-113553458D01*
X161044111Y-113553454D01*
X160946545Y-113455888D01*
X160946541Y-113455885D01*
X160831817Y-113379228D01*
X160831804Y-113379221D01*
X160704332Y-113326421D01*
X160704322Y-113326418D01*
X160700308Y-113325620D01*
X160638397Y-113293235D01*
X160603823Y-113232519D01*
X160600500Y-113204003D01*
X160600500Y-111847275D01*
X160600499Y-111847271D01*
X160599231Y-111842539D01*
X160585288Y-111790500D01*
X160573207Y-111745412D01*
X160520480Y-111654087D01*
X159093820Y-110227427D01*
X159060335Y-110166104D01*
X159065319Y-110096412D01*
X159107191Y-110040479D01*
X159172655Y-110016062D01*
X159213588Y-110019970D01*
X159327525Y-110050500D01*
X159327528Y-110050500D01*
X159438811Y-110050500D01*
X159505850Y-110070185D01*
X159526492Y-110086819D01*
X175638181Y-126198508D01*
X175671666Y-126259831D01*
X175674500Y-126286189D01*
X175674500Y-129666586D01*
X175654815Y-129733625D01*
X175650270Y-129740219D01*
X175597209Y-129812113D01*
X175597206Y-129812119D01*
X175552353Y-129940298D01*
X175552353Y-129940300D01*
X175549500Y-129970730D01*
X175549500Y-131029269D01*
X175552353Y-131059699D01*
X175552353Y-131059701D01*
X175597206Y-131187880D01*
X175597207Y-131187882D01*
X175677850Y-131297150D01*
X175787118Y-131377793D01*
X175829845Y-131392744D01*
X175915299Y-131422646D01*
X175945730Y-131425500D01*
X175945734Y-131425500D01*
X176413811Y-131425500D01*
X176480850Y-131445185D01*
X176501492Y-131461819D01*
X177063181Y-132023508D01*
X177096666Y-132084831D01*
X177099500Y-132111189D01*
X177099500Y-132604268D01*
X177102353Y-132634698D01*
X177102353Y-132634700D01*
X177147206Y-132762879D01*
X177147207Y-132762881D01*
X177227850Y-132872149D01*
X177337118Y-132952792D01*
X177379845Y-132967743D01*
X177465299Y-132997645D01*
X177495730Y-133000499D01*
X177495734Y-133000499D01*
X178504270Y-133000499D01*
X178534699Y-132997645D01*
X178534701Y-132997645D01*
X178598790Y-132975218D01*
X178662882Y-132952792D01*
X178772150Y-132872149D01*
X178852793Y-132762881D01*
X178875219Y-132698789D01*
X178897646Y-132634700D01*
X178897646Y-132634698D01*
X178900500Y-132604268D01*
X178900500Y-131970729D01*
X178897646Y-131940299D01*
X178897646Y-131940297D01*
X178852793Y-131812118D01*
X178852792Y-131812116D01*
X178772150Y-131702849D01*
X178662882Y-131622206D01*
X178662880Y-131622205D01*
X178534700Y-131577352D01*
X178504270Y-131574499D01*
X178504266Y-131574499D01*
X177586188Y-131574499D01*
X177519149Y-131554814D01*
X177498507Y-131538180D01*
X176986819Y-131026492D01*
X176953334Y-130965169D01*
X176950500Y-130938811D01*
X176950500Y-130061189D01*
X176970185Y-129994150D01*
X176986819Y-129973508D01*
X177498508Y-129461819D01*
X177559831Y-129428334D01*
X177586189Y-129425500D01*
X178504270Y-129425500D01*
X178534699Y-129422646D01*
X178534701Y-129422646D01*
X178598790Y-129400219D01*
X178662882Y-129377793D01*
X178772150Y-129297150D01*
X178852793Y-129187882D01*
X178886224Y-129092342D01*
X178897646Y-129059701D01*
X178897646Y-129059699D01*
X178900500Y-129029269D01*
X178900500Y-128395730D01*
X178897646Y-128365300D01*
X178897646Y-128365298D01*
X178852793Y-128237119D01*
X178852792Y-128237117D01*
X178772150Y-128127850D01*
X178662882Y-128047207D01*
X178662880Y-128047206D01*
X178534700Y-128002353D01*
X178504270Y-127999500D01*
X178504266Y-127999500D01*
X177495734Y-127999500D01*
X177495730Y-127999500D01*
X177465300Y-128002353D01*
X177465298Y-128002353D01*
X177337119Y-128047206D01*
X177337117Y-128047207D01*
X177227850Y-128127850D01*
X177147207Y-128237117D01*
X177147206Y-128237119D01*
X177102353Y-128365298D01*
X177102353Y-128365300D01*
X177099500Y-128395730D01*
X177099500Y-128888811D01*
X177079815Y-128955850D01*
X177063181Y-128976492D01*
X176537181Y-129502492D01*
X176475858Y-129535977D01*
X176406166Y-129530993D01*
X176350233Y-129489121D01*
X176325816Y-129423657D01*
X176325500Y-129414811D01*
X176325500Y-126057149D01*
X176325500Y-126057147D01*
X176303318Y-125974362D01*
X176303318Y-125974361D01*
X176260465Y-125900138D01*
X170042702Y-119682375D01*
X170009217Y-119621052D01*
X170014201Y-119551360D01*
X170056073Y-119495427D01*
X170121537Y-119471010D01*
X170168702Y-119476763D01*
X170295582Y-119517990D01*
X170497683Y-119550000D01*
X170702317Y-119550000D01*
X170904417Y-119517990D01*
X171099031Y-119454755D01*
X171281349Y-119361859D01*
X171366876Y-119299719D01*
X171366877Y-119299719D01*
X170897488Y-118830330D01*
X170907890Y-118826022D01*
X171014351Y-118754888D01*
X171104888Y-118664351D01*
X171176022Y-118557890D01*
X171180330Y-118547488D01*
X171649718Y-119016877D01*
X171649719Y-119016876D01*
X171711859Y-118931349D01*
X171804755Y-118749031D01*
X171867990Y-118554417D01*
X171900000Y-118352317D01*
X171900000Y-118147682D01*
X171867990Y-117945582D01*
X171804755Y-117750968D01*
X171711858Y-117568649D01*
X171711852Y-117568640D01*
X171649720Y-117483122D01*
X171649719Y-117483121D01*
X171180330Y-117952510D01*
X171176022Y-117942110D01*
X171104888Y-117835649D01*
X171014351Y-117745112D01*
X170907890Y-117673978D01*
X170897487Y-117669669D01*
X171366876Y-117200279D01*
X171281347Y-117138139D01*
X171099031Y-117045244D01*
X170904417Y-116982009D01*
X170702317Y-116950000D01*
X170497683Y-116950000D01*
X170295582Y-116982009D01*
X170100968Y-117045244D01*
X169918648Y-117138141D01*
X169833122Y-117200278D01*
X169833122Y-117200279D01*
X170302512Y-117669669D01*
X170292110Y-117673978D01*
X170185649Y-117745112D01*
X170095112Y-117835649D01*
X170023978Y-117942110D01*
X170019669Y-117952511D01*
X169550279Y-117483122D01*
X169550278Y-117483122D01*
X169488141Y-117568648D01*
X169395244Y-117750968D01*
X169332009Y-117945582D01*
X169300000Y-118147682D01*
X169300000Y-118352317D01*
X169332009Y-118554417D01*
X169373236Y-118681297D01*
X169375231Y-118751139D01*
X169339151Y-118810972D01*
X169276450Y-118841800D01*
X169207036Y-118833836D01*
X169167624Y-118807297D01*
X162697151Y-112336824D01*
X165094500Y-112336824D01*
X165094500Y-112663175D01*
X165131035Y-112987441D01*
X165131038Y-112987455D01*
X165203655Y-113305612D01*
X165203656Y-113305614D01*
X165311438Y-113613640D01*
X165453030Y-113907657D01*
X165487168Y-113961988D01*
X165626654Y-114183979D01*
X165830123Y-114439121D01*
X166060879Y-114669877D01*
X166316021Y-114873346D01*
X166592340Y-115046968D01*
X166886361Y-115188562D01*
X167194387Y-115296344D01*
X167512544Y-115368962D01*
X167512553Y-115368963D01*
X167512558Y-115368964D01*
X167728735Y-115393320D01*
X167836825Y-115405499D01*
X167836828Y-115405500D01*
X167836831Y-115405500D01*
X168163172Y-115405500D01*
X168163173Y-115405499D01*
X168328900Y-115386826D01*
X168487441Y-115368964D01*
X168487444Y-115368963D01*
X168487456Y-115368962D01*
X168805613Y-115296344D01*
X169113639Y-115188562D01*
X169407660Y-115046968D01*
X169683979Y-114873346D01*
X169939121Y-114669877D01*
X170169877Y-114439121D01*
X170373346Y-114183979D01*
X170546968Y-113907660D01*
X170688562Y-113613639D01*
X170796344Y-113305613D01*
X170861978Y-113018053D01*
X173550000Y-113018053D01*
X173560613Y-113106443D01*
X173616079Y-113247095D01*
X173707435Y-113367564D01*
X173827904Y-113458920D01*
X173968556Y-113514386D01*
X174056946Y-113525000D01*
X174150000Y-113525000D01*
X174550000Y-113525000D01*
X174643054Y-113525000D01*
X174731443Y-113514386D01*
X174872095Y-113458920D01*
X174992564Y-113367564D01*
X175083920Y-113247095D01*
X175139386Y-113106443D01*
X175150000Y-113018053D01*
X175150000Y-112700000D01*
X174550000Y-112700000D01*
X174550000Y-113525000D01*
X174150000Y-113525000D01*
X174150000Y-112700000D01*
X173550000Y-112700000D01*
X173550000Y-113018053D01*
X170861978Y-113018053D01*
X170868962Y-112987456D01*
X170905500Y-112663169D01*
X170905500Y-112336831D01*
X170870106Y-112022698D01*
X170868964Y-112012558D01*
X170868963Y-112012553D01*
X170868962Y-112012544D01*
X170866547Y-112001965D01*
X170861978Y-111981946D01*
X173550000Y-111981946D01*
X173550000Y-112300000D01*
X174150000Y-112300000D01*
X174550000Y-112300000D01*
X175150000Y-112300000D01*
X175150000Y-111981946D01*
X175139386Y-111893556D01*
X175083920Y-111752904D01*
X174992564Y-111632435D01*
X174872095Y-111541079D01*
X174731443Y-111485613D01*
X174643054Y-111475000D01*
X174550000Y-111475000D01*
X174550000Y-112300000D01*
X174150000Y-112300000D01*
X174150000Y-111475000D01*
X174056946Y-111475000D01*
X173968556Y-111485613D01*
X173827904Y-111541079D01*
X173707435Y-111632435D01*
X173616079Y-111752904D01*
X173560613Y-111893556D01*
X173550000Y-111981946D01*
X170861978Y-111981946D01*
X170796344Y-111694387D01*
X170796343Y-111694385D01*
X170796313Y-111694297D01*
X170688562Y-111386361D01*
X170546968Y-111092340D01*
X170373346Y-110816021D01*
X170169877Y-110560879D01*
X169939121Y-110330123D01*
X169901730Y-110300305D01*
X169824091Y-110238390D01*
X169683979Y-110126654D01*
X169407660Y-109953032D01*
X169407657Y-109953030D01*
X169113640Y-109811438D01*
X168805614Y-109703656D01*
X168805612Y-109703655D01*
X168554914Y-109646435D01*
X168487456Y-109631038D01*
X168487453Y-109631037D01*
X168487441Y-109631035D01*
X168163175Y-109594500D01*
X168163169Y-109594500D01*
X167836831Y-109594500D01*
X167836824Y-109594500D01*
X167512558Y-109631035D01*
X167512544Y-109631038D01*
X167194387Y-109703655D01*
X167194385Y-109703656D01*
X166886359Y-109811438D01*
X166592342Y-109953030D01*
X166316022Y-110126653D01*
X166060879Y-110330122D01*
X165830122Y-110560879D01*
X165626653Y-110816022D01*
X165453030Y-111092342D01*
X165311438Y-111386359D01*
X165203656Y-111694385D01*
X165203655Y-111694387D01*
X165131038Y-112012544D01*
X165131035Y-112012558D01*
X165094500Y-112336824D01*
X162697151Y-112336824D01*
X159986819Y-109626492D01*
X159953334Y-109565169D01*
X159950500Y-109538811D01*
X159950500Y-109427527D01*
X159950500Y-109427525D01*
X159912984Y-109287515D01*
X159909429Y-109281358D01*
X159840511Y-109161988D01*
X159840506Y-109161982D01*
X159738017Y-109059493D01*
X159738011Y-109059488D01*
X159612488Y-108987017D01*
X159612489Y-108987017D01*
X159601006Y-108983940D01*
X159472475Y-108949500D01*
X159327525Y-108949500D01*
X159198993Y-108983940D01*
X159187511Y-108987017D01*
X159061988Y-109059488D01*
X159061982Y-109059493D01*
X158959493Y-109161982D01*
X158959488Y-109161988D01*
X158887017Y-109287511D01*
X158887016Y-109287515D01*
X158849500Y-109427525D01*
X158849500Y-109572475D01*
X158877096Y-109675462D01*
X158880028Y-109686404D01*
X158878365Y-109756254D01*
X158839203Y-109814117D01*
X158774974Y-109841621D01*
X158706072Y-109830035D01*
X158672572Y-109806179D01*
X158036819Y-109170426D01*
X158003334Y-109109103D01*
X158000500Y-109082745D01*
X158000500Y-108427525D01*
X175449500Y-108427525D01*
X175449500Y-108572475D01*
X175487016Y-108712485D01*
X175487017Y-108712488D01*
X175559488Y-108838011D01*
X175559493Y-108838017D01*
X175638181Y-108916705D01*
X175671666Y-108978028D01*
X175674500Y-109004386D01*
X175674500Y-111666586D01*
X175654815Y-111733625D01*
X175650270Y-111740219D01*
X175597209Y-111812113D01*
X175597206Y-111812119D01*
X175552353Y-111940298D01*
X175552353Y-111940300D01*
X175549500Y-111970730D01*
X175549500Y-113029269D01*
X175552353Y-113059699D01*
X175552353Y-113059701D01*
X175597206Y-113187880D01*
X175597207Y-113187882D01*
X175677850Y-113297150D01*
X175787118Y-113377793D01*
X175829845Y-113392744D01*
X175915299Y-113422646D01*
X175945730Y-113425500D01*
X175945734Y-113425500D01*
X176413811Y-113425500D01*
X176480850Y-113445185D01*
X176501492Y-113461819D01*
X177063181Y-114023508D01*
X177096666Y-114084831D01*
X177099500Y-114111189D01*
X177099500Y-114604269D01*
X177102353Y-114634699D01*
X177102353Y-114634701D01*
X177139377Y-114740506D01*
X177147207Y-114762882D01*
X177227850Y-114872150D01*
X177337118Y-114952793D01*
X177379845Y-114967744D01*
X177465299Y-114997646D01*
X177495730Y-115000500D01*
X177495734Y-115000500D01*
X178504270Y-115000500D01*
X178534699Y-114997646D01*
X178534701Y-114997646D01*
X178598790Y-114975219D01*
X178662882Y-114952793D01*
X178772150Y-114872150D01*
X178775729Y-114867299D01*
X178831375Y-114825049D01*
X178901031Y-114819589D01*
X178962581Y-114852654D01*
X178996483Y-114913748D01*
X178999500Y-114940932D01*
X178999500Y-115459067D01*
X178979815Y-115526106D01*
X178927011Y-115571861D01*
X178857853Y-115581805D01*
X178794297Y-115552780D01*
X178775731Y-115532702D01*
X178772150Y-115527850D01*
X178662882Y-115447207D01*
X178662880Y-115447206D01*
X178534700Y-115402353D01*
X178504270Y-115399500D01*
X178504266Y-115399500D01*
X177495734Y-115399500D01*
X177495730Y-115399500D01*
X177465300Y-115402353D01*
X177465298Y-115402353D01*
X177337119Y-115447206D01*
X177337117Y-115447207D01*
X177227850Y-115527850D01*
X177147207Y-115637117D01*
X177147206Y-115637119D01*
X177102353Y-115765298D01*
X177102353Y-115765300D01*
X177099500Y-115795730D01*
X177099500Y-115937950D01*
X177079815Y-116004989D01*
X177027011Y-116050744D01*
X176957853Y-116060688D01*
X176913500Y-116045337D01*
X176812488Y-115987017D01*
X176812489Y-115987017D01*
X176801006Y-115983940D01*
X176672475Y-115949500D01*
X176527525Y-115949500D01*
X176398993Y-115983940D01*
X176387511Y-115987017D01*
X176261988Y-116059488D01*
X176261982Y-116059493D01*
X176159493Y-116161982D01*
X176159488Y-116161988D01*
X176087017Y-116287511D01*
X176087016Y-116287515D01*
X176049500Y-116427525D01*
X176049500Y-116572475D01*
X176081608Y-116692301D01*
X176087017Y-116712488D01*
X176159488Y-116838011D01*
X176159490Y-116838013D01*
X176159491Y-116838015D01*
X176261985Y-116940509D01*
X176261986Y-116940510D01*
X176261988Y-116940511D01*
X176387511Y-117012982D01*
X176387512Y-117012982D01*
X176387515Y-117012984D01*
X176527525Y-117050500D01*
X176527528Y-117050500D01*
X176672472Y-117050500D01*
X176672475Y-117050500D01*
X176812485Y-117012984D01*
X176938015Y-116940509D01*
X177016706Y-116861818D01*
X177078030Y-116828334D01*
X177104387Y-116825500D01*
X177442858Y-116825500D01*
X177450917Y-116824439D01*
X177451178Y-116826423D01*
X177478731Y-116823905D01*
X177495734Y-116825500D01*
X177495738Y-116825500D01*
X178504270Y-116825500D01*
X178534699Y-116822646D01*
X178534701Y-116822646D01*
X178603682Y-116798508D01*
X178662882Y-116777793D01*
X178772150Y-116697150D01*
X178775729Y-116692299D01*
X178831375Y-116650049D01*
X178901031Y-116644589D01*
X178962581Y-116677654D01*
X178996483Y-116738748D01*
X178999500Y-116765932D01*
X178999500Y-125482745D01*
X178979815Y-125549784D01*
X178963181Y-125570426D01*
X178395426Y-126138181D01*
X178334103Y-126171666D01*
X178307745Y-126174500D01*
X177495730Y-126174500D01*
X177465300Y-126177353D01*
X177465298Y-126177353D01*
X177337119Y-126222206D01*
X177337117Y-126222207D01*
X177227850Y-126302850D01*
X177147207Y-126412117D01*
X177147206Y-126412119D01*
X177102353Y-126540298D01*
X177102353Y-126540300D01*
X177099500Y-126570730D01*
X177099500Y-127204269D01*
X177102353Y-127234699D01*
X177102353Y-127234701D01*
X177143510Y-127352317D01*
X177147207Y-127362882D01*
X177227850Y-127472150D01*
X177337118Y-127552793D01*
X177379845Y-127567744D01*
X177465299Y-127597646D01*
X177495730Y-127600500D01*
X177495734Y-127600500D01*
X178504270Y-127600500D01*
X178534699Y-127597646D01*
X178534701Y-127597646D01*
X178598790Y-127575219D01*
X178662882Y-127552793D01*
X178772150Y-127472150D01*
X178852793Y-127362882D01*
X178875219Y-127298790D01*
X178897646Y-127234701D01*
X178897646Y-127234699D01*
X178900500Y-127204269D01*
X178900500Y-126817255D01*
X178920185Y-126750216D01*
X178936819Y-126729574D01*
X179254276Y-126412117D01*
X179720480Y-125945913D01*
X179773207Y-125854588D01*
X179800500Y-125752727D01*
X179800500Y-125647273D01*
X179800500Y-109847273D01*
X179773207Y-109745413D01*
X179773207Y-109745412D01*
X179720480Y-109654087D01*
X178936819Y-108870426D01*
X178903334Y-108809103D01*
X178900500Y-108782745D01*
X178900500Y-108570730D01*
X178897646Y-108540300D01*
X178897646Y-108540298D01*
X178858184Y-108427525D01*
X178852793Y-108412118D01*
X178772150Y-108302850D01*
X178662882Y-108222207D01*
X178662880Y-108222206D01*
X178534700Y-108177353D01*
X178504270Y-108174500D01*
X178504266Y-108174500D01*
X177924500Y-108174500D01*
X177915814Y-108171949D01*
X177906853Y-108173238D01*
X177882812Y-108162259D01*
X177857461Y-108154815D01*
X177851533Y-108147974D01*
X177843297Y-108144213D01*
X177829007Y-108121978D01*
X177811706Y-108102011D01*
X177809418Y-108091496D01*
X177805523Y-108085435D01*
X177800500Y-108050500D01*
X177800500Y-107929386D01*
X177820185Y-107862347D01*
X177836819Y-107841705D01*
X177840509Y-107838015D01*
X177912984Y-107712485D01*
X177950500Y-107572475D01*
X177950500Y-107427525D01*
X177912984Y-107287515D01*
X177907236Y-107277560D01*
X177840511Y-107161988D01*
X177840506Y-107161982D01*
X177738017Y-107059493D01*
X177738011Y-107059488D01*
X177612488Y-106987017D01*
X177612489Y-106987017D01*
X177601006Y-106983940D01*
X177472475Y-106949500D01*
X177327525Y-106949500D01*
X177198993Y-106983940D01*
X177187511Y-106987017D01*
X177061988Y-107059488D01*
X177061982Y-107059493D01*
X176959493Y-107161982D01*
X176959488Y-107161988D01*
X176887017Y-107287511D01*
X176887016Y-107287515D01*
X176849500Y-107427525D01*
X176849500Y-107572475D01*
X176884435Y-107702851D01*
X176887017Y-107712488D01*
X176959488Y-107838011D01*
X176959493Y-107838017D01*
X176963181Y-107841705D01*
X176996666Y-107903028D01*
X176999500Y-107929386D01*
X176999500Y-108552727D01*
X177026793Y-108654587D01*
X177079520Y-108745913D01*
X177079523Y-108745916D01*
X177082887Y-108751742D01*
X177099500Y-108813743D01*
X177099500Y-109204269D01*
X177102353Y-109234699D01*
X177102353Y-109234701D01*
X177147206Y-109362880D01*
X177147207Y-109362882D01*
X177227850Y-109472150D01*
X177337118Y-109552793D01*
X177368723Y-109563852D01*
X177465299Y-109597646D01*
X177495730Y-109600500D01*
X178482745Y-109600500D01*
X178549784Y-109620185D01*
X178570426Y-109636819D01*
X178767788Y-109834181D01*
X178801273Y-109895504D01*
X178796289Y-109965196D01*
X178754417Y-110021129D01*
X178688953Y-110045546D01*
X178639152Y-110038903D01*
X178534701Y-110002354D01*
X178534699Y-110002353D01*
X178504270Y-109999500D01*
X178504266Y-109999500D01*
X177495734Y-109999500D01*
X177495730Y-109999500D01*
X177465300Y-110002353D01*
X177465298Y-110002353D01*
X177337119Y-110047206D01*
X177337117Y-110047207D01*
X177227850Y-110127850D01*
X177147207Y-110237117D01*
X177147206Y-110237119D01*
X177102353Y-110365298D01*
X177102353Y-110365300D01*
X177099500Y-110395730D01*
X177099500Y-110888811D01*
X177079815Y-110955850D01*
X177063181Y-110976492D01*
X176537181Y-111502492D01*
X176475858Y-111535977D01*
X176406166Y-111530993D01*
X176350233Y-111489121D01*
X176325816Y-111423657D01*
X176325500Y-111414811D01*
X176325500Y-109004386D01*
X176345185Y-108937347D01*
X176361819Y-108916705D01*
X176398709Y-108879815D01*
X176440509Y-108838015D01*
X176512984Y-108712485D01*
X176550500Y-108572475D01*
X176550500Y-108427525D01*
X176512984Y-108287515D01*
X176506899Y-108276976D01*
X176440511Y-108161988D01*
X176440506Y-108161982D01*
X176338017Y-108059493D01*
X176338011Y-108059488D01*
X176212488Y-107987017D01*
X176212489Y-107987017D01*
X176189817Y-107980942D01*
X176072475Y-107949500D01*
X175927525Y-107949500D01*
X175810183Y-107980942D01*
X175787511Y-107987017D01*
X175661988Y-108059488D01*
X175661982Y-108059493D01*
X175559493Y-108161982D01*
X175559488Y-108161988D01*
X175487017Y-108287511D01*
X175487016Y-108287515D01*
X175449500Y-108427525D01*
X158000500Y-108427525D01*
X158000500Y-107929386D01*
X158020185Y-107862347D01*
X158036819Y-107841705D01*
X158040509Y-107838015D01*
X158112984Y-107712485D01*
X158150500Y-107572475D01*
X158150500Y-107427525D01*
X158112984Y-107287515D01*
X158107236Y-107277560D01*
X158040511Y-107161988D01*
X158040506Y-107161982D01*
X157938017Y-107059493D01*
X157938011Y-107059488D01*
X157812488Y-106987017D01*
X157812489Y-106987017D01*
X157801006Y-106983940D01*
X157672475Y-106949500D01*
X157672472Y-106949500D01*
X157667255Y-106949500D01*
X157600216Y-106929815D01*
X157579574Y-106913181D01*
X155481819Y-104815426D01*
X155448334Y-104754103D01*
X155445500Y-104727745D01*
X155445500Y-103899999D01*
X178989999Y-103899999D01*
X179042070Y-104428692D01*
X179196287Y-104937076D01*
X179446713Y-105405589D01*
X179446717Y-105405596D01*
X179783739Y-105816259D01*
X180194402Y-106153281D01*
X180194409Y-106153285D01*
X180662922Y-106403711D01*
X180662924Y-106403711D01*
X180662927Y-106403713D01*
X181171305Y-106557928D01*
X181171304Y-106557928D01*
X181223376Y-106563056D01*
X181700000Y-106610000D01*
X182228694Y-106557928D01*
X182737072Y-106403713D01*
X182908790Y-106311928D01*
X183019425Y-106252792D01*
X183205595Y-106153282D01*
X183616259Y-105816259D01*
X183953282Y-105405595D01*
X184148789Y-105039828D01*
X184203711Y-104937076D01*
X184203711Y-104937075D01*
X184203713Y-104937072D01*
X184357928Y-104428694D01*
X184410000Y-103900000D01*
X184357928Y-103371305D01*
X184203713Y-102862927D01*
X184203711Y-102862924D01*
X184203711Y-102862922D01*
X183953285Y-102394409D01*
X183953281Y-102394402D01*
X183616259Y-101983739D01*
X183205596Y-101646717D01*
X183205589Y-101646713D01*
X182737076Y-101396287D01*
X182228692Y-101242070D01*
X181700000Y-101190000D01*
X181171306Y-101242070D01*
X180662922Y-101396287D01*
X180194409Y-101646713D01*
X180194402Y-101646717D01*
X179783739Y-101983739D01*
X179446717Y-102394402D01*
X179446713Y-102394409D01*
X179196287Y-102862922D01*
X179042070Y-103371306D01*
X178989999Y-103899999D01*
X155445500Y-103899999D01*
X155445500Y-103166739D01*
X155435574Y-103098611D01*
X155435573Y-103098608D01*
X155435573Y-103098607D01*
X155418352Y-103063380D01*
X155413099Y-103052634D01*
X155410302Y-103040547D01*
X155405523Y-103033110D01*
X155400500Y-102998175D01*
X155400500Y-102849500D01*
X155420185Y-102782461D01*
X155472989Y-102736706D01*
X155524500Y-102725500D01*
X155554270Y-102725500D01*
X155584699Y-102722646D01*
X155584701Y-102722646D01*
X155648790Y-102700219D01*
X155712882Y-102677793D01*
X155822150Y-102597150D01*
X155902793Y-102487882D01*
X155931290Y-102406443D01*
X155947646Y-102359701D01*
X155947646Y-102359699D01*
X155950500Y-102329269D01*
X155950500Y-101270730D01*
X155947646Y-101240300D01*
X155947646Y-101240298D01*
X155911108Y-101135880D01*
X155902793Y-101112118D01*
X155822150Y-101002850D01*
X155822149Y-101002849D01*
X155818669Y-100998134D01*
X155794698Y-100932505D01*
X155810014Y-100864334D01*
X155859754Y-100815266D01*
X155918439Y-100800500D01*
X184083292Y-100800500D01*
X184093037Y-100800883D01*
X184199145Y-100809249D01*
X184218318Y-100812284D01*
X184306455Y-100833426D01*
X184324944Y-100839428D01*
X184408280Y-100873912D01*
X184425592Y-100882722D01*
X184502307Y-100929667D01*
X184518235Y-100941248D01*
X184586464Y-100999672D01*
X184600056Y-101013273D01*
X184658826Y-101082011D01*
X184670298Y-101097793D01*
X184717284Y-101174461D01*
X184726137Y-101191843D01*
X184760771Y-101275542D01*
X184766701Y-101293734D01*
X184787875Y-101381059D01*
X184791004Y-101400792D01*
X184799137Y-101506782D01*
X184799500Y-101516269D01*
X184799500Y-141483732D01*
X184799137Y-141493218D01*
X184791003Y-141599237D01*
X184787874Y-141618971D01*
X184766707Y-141706268D01*
X184760773Y-141724469D01*
X184726145Y-141808133D01*
X184717294Y-141825509D01*
X184670286Y-141902208D01*
X184658820Y-141917981D01*
X184600047Y-141986738D01*
X184586448Y-142000350D01*
X184518235Y-142058768D01*
X184502295Y-142070357D01*
X184425558Y-142117310D01*
X184408278Y-142126106D01*
X184324992Y-142160592D01*
X184306433Y-142166615D01*
X184218350Y-142187709D01*
X184199226Y-142190735D01*
X184093024Y-142199116D01*
X184083269Y-142199500D01*
X98016683Y-142199500D01*
X98006953Y-142199118D01*
X97993253Y-142198039D01*
X97900483Y-142190737D01*
X97881264Y-142187692D01*
X97793610Y-142166646D01*
X97775122Y-142160640D01*
X97691853Y-142126161D01*
X97674502Y-142117322D01*
X97597707Y-142070263D01*
X97581958Y-142058820D01*
X97513476Y-142000320D01*
X97499721Y-141986562D01*
X97441189Y-141918018D01*
X97429767Y-141902296D01*
X97382704Y-141825508D01*
X97373853Y-141808133D01*
X97339373Y-141724825D01*
X97333392Y-141706421D01*
X97312303Y-141618735D01*
X97309248Y-141599463D01*
X97309230Y-141599237D01*
X97300882Y-141493062D01*
X97300500Y-141483342D01*
X97300500Y-139099999D01*
X97690000Y-139099999D01*
X97742070Y-139628692D01*
X97896287Y-140137076D01*
X98146713Y-140605589D01*
X98146717Y-140605596D01*
X98483739Y-141016259D01*
X98894402Y-141353281D01*
X98894409Y-141353285D01*
X99362922Y-141603711D01*
X99362924Y-141603711D01*
X99362927Y-141603713D01*
X99871305Y-141757928D01*
X99871304Y-141757928D01*
X99923376Y-141763056D01*
X100400000Y-141810000D01*
X100928694Y-141757928D01*
X101437072Y-141603713D01*
X101905595Y-141353282D01*
X102316259Y-141016259D01*
X102653282Y-140605595D01*
X102903713Y-140137072D01*
X103057928Y-139628694D01*
X103110000Y-139100000D01*
X103110000Y-139099999D01*
X178989999Y-139099999D01*
X179042070Y-139628692D01*
X179196287Y-140137076D01*
X179446713Y-140605589D01*
X179446717Y-140605596D01*
X179783739Y-141016259D01*
X180194402Y-141353281D01*
X180194409Y-141353285D01*
X180662922Y-141603711D01*
X180662924Y-141603711D01*
X180662927Y-141603713D01*
X181171305Y-141757928D01*
X181171304Y-141757928D01*
X181223376Y-141763056D01*
X181700000Y-141810000D01*
X182228694Y-141757928D01*
X182737072Y-141603713D01*
X183205595Y-141353282D01*
X183616259Y-141016259D01*
X183953282Y-140605595D01*
X184203713Y-140137072D01*
X184357928Y-139628694D01*
X184410000Y-139100000D01*
X184357928Y-138571305D01*
X184203713Y-138062927D01*
X184203711Y-138062924D01*
X184203711Y-138062922D01*
X183953285Y-137594409D01*
X183953281Y-137594402D01*
X183616259Y-137183739D01*
X183205596Y-136846717D01*
X183205589Y-136846713D01*
X182737076Y-136596287D01*
X182228692Y-136442070D01*
X181700000Y-136390000D01*
X181171306Y-136442070D01*
X180662922Y-136596287D01*
X180194409Y-136846713D01*
X180194402Y-136846717D01*
X179783739Y-137183739D01*
X179446717Y-137594402D01*
X179446713Y-137594409D01*
X179196287Y-138062922D01*
X179042070Y-138571306D01*
X178989999Y-139099999D01*
X103110000Y-139099999D01*
X103057928Y-138571305D01*
X102903713Y-138062927D01*
X102903711Y-138062924D01*
X102903711Y-138062922D01*
X102653285Y-137594409D01*
X102653281Y-137594402D01*
X102437215Y-137331125D01*
X102316259Y-137183739D01*
X101905596Y-136846717D01*
X101905589Y-136846713D01*
X101437076Y-136596287D01*
X100928692Y-136442070D01*
X100400000Y-136390000D01*
X99871306Y-136442070D01*
X99362922Y-136596287D01*
X98894409Y-136846713D01*
X98894402Y-136846717D01*
X98483739Y-137183739D01*
X98146717Y-137594402D01*
X98146713Y-137594409D01*
X97896287Y-138062922D01*
X97742070Y-138571306D01*
X97690000Y-139099999D01*
X97300500Y-139099999D01*
X97300500Y-135105513D01*
X162399500Y-135105513D01*
X162399500Y-135294486D01*
X162429059Y-135481118D01*
X162487454Y-135660836D01*
X162533379Y-135750968D01*
X162573240Y-135829199D01*
X162684310Y-135982073D01*
X162817927Y-136115690D01*
X162970801Y-136226760D01*
X163050347Y-136267290D01*
X163139163Y-136312545D01*
X163139165Y-136312545D01*
X163139168Y-136312547D01*
X163235497Y-136343846D01*
X163318881Y-136370940D01*
X163505514Y-136400500D01*
X163505519Y-136400500D01*
X163694486Y-136400500D01*
X163881118Y-136370940D01*
X163938433Y-136352317D01*
X164060832Y-136312547D01*
X164229199Y-136226760D01*
X164338040Y-136147682D01*
X169300000Y-136147682D01*
X169300000Y-136352317D01*
X169332009Y-136554417D01*
X169395244Y-136749031D01*
X169488139Y-136931347D01*
X169550279Y-137016876D01*
X170019668Y-136547487D01*
X170023978Y-136557890D01*
X170095112Y-136664351D01*
X170185649Y-136754888D01*
X170292110Y-136826022D01*
X170302510Y-136830330D01*
X169833121Y-137299719D01*
X169833122Y-137299720D01*
X169918640Y-137361852D01*
X169918649Y-137361858D01*
X170100968Y-137454755D01*
X170295582Y-137517990D01*
X170497683Y-137550000D01*
X170702317Y-137550000D01*
X170904417Y-137517990D01*
X171099031Y-137454755D01*
X171281349Y-137361859D01*
X171366876Y-137299719D01*
X171366877Y-137299718D01*
X170897489Y-136830330D01*
X170907890Y-136826022D01*
X171014351Y-136754888D01*
X171104888Y-136664351D01*
X171176022Y-136557890D01*
X171180330Y-136547488D01*
X171649718Y-137016877D01*
X171649719Y-137016876D01*
X171711859Y-136931349D01*
X171804755Y-136749031D01*
X171867990Y-136554417D01*
X171900000Y-136352317D01*
X171900000Y-136147682D01*
X171867990Y-135945582D01*
X171804755Y-135750968D01*
X171711858Y-135568649D01*
X171711852Y-135568640D01*
X171649720Y-135483122D01*
X171649719Y-135483121D01*
X171180330Y-135952510D01*
X171176022Y-135942110D01*
X171104888Y-135835649D01*
X171014351Y-135745112D01*
X170907890Y-135673978D01*
X170897487Y-135669669D01*
X171366876Y-135200279D01*
X171281347Y-135138139D01*
X171099031Y-135045244D01*
X170904417Y-134982009D01*
X170702317Y-134950000D01*
X170497683Y-134950000D01*
X170295582Y-134982009D01*
X170100968Y-135045244D01*
X169918648Y-135138141D01*
X169833122Y-135200278D01*
X169833122Y-135200279D01*
X170302512Y-135669669D01*
X170292110Y-135673978D01*
X170185649Y-135745112D01*
X170095112Y-135835649D01*
X170023978Y-135942110D01*
X170019669Y-135952512D01*
X169550279Y-135483122D01*
X169550278Y-135483122D01*
X169488141Y-135568648D01*
X169395244Y-135750968D01*
X169332009Y-135945582D01*
X169300000Y-136147682D01*
X164338040Y-136147682D01*
X164382073Y-136115690D01*
X164515690Y-135982073D01*
X164626760Y-135829199D01*
X164712547Y-135660832D01*
X164770940Y-135481118D01*
X164800500Y-135294486D01*
X164800500Y-135105513D01*
X164770940Y-134918881D01*
X164712545Y-134739163D01*
X164680205Y-134675693D01*
X164655662Y-134627525D01*
X176249500Y-134627525D01*
X176249500Y-134772475D01*
X176273440Y-134861818D01*
X176287017Y-134912488D01*
X176359488Y-135038011D01*
X176359490Y-135038013D01*
X176359491Y-135038015D01*
X176461985Y-135140509D01*
X176461986Y-135140510D01*
X176461988Y-135140511D01*
X176587511Y-135212982D01*
X176587512Y-135212982D01*
X176587515Y-135212984D01*
X176727525Y-135250500D01*
X176727528Y-135250500D01*
X176872472Y-135250500D01*
X176872475Y-135250500D01*
X177012485Y-135212984D01*
X177138015Y-135140509D01*
X177233253Y-135045271D01*
X177288842Y-135013177D01*
X177325639Y-135003318D01*
X177399862Y-134960465D01*
X177498508Y-134861817D01*
X177559831Y-134828333D01*
X177586190Y-134825499D01*
X178504270Y-134825499D01*
X178534699Y-134822645D01*
X178534701Y-134822645D01*
X178598790Y-134800218D01*
X178662882Y-134777792D01*
X178772150Y-134697149D01*
X178852793Y-134587881D01*
X178875219Y-134523789D01*
X178897646Y-134459700D01*
X178897646Y-134459698D01*
X178900500Y-134429268D01*
X178900500Y-133795729D01*
X178897646Y-133765299D01*
X178897646Y-133765297D01*
X178852793Y-133637118D01*
X178852792Y-133637116D01*
X178772150Y-133527849D01*
X178662882Y-133447206D01*
X178662880Y-133447205D01*
X178534700Y-133402352D01*
X178504270Y-133399499D01*
X178504266Y-133399499D01*
X177495734Y-133399499D01*
X177495730Y-133399499D01*
X177465300Y-133402352D01*
X177465298Y-133402352D01*
X177337119Y-133447205D01*
X177337117Y-133447206D01*
X177227850Y-133527849D01*
X177147207Y-133637116D01*
X177147206Y-133637118D01*
X177102353Y-133765297D01*
X177102353Y-133765299D01*
X177099500Y-133795729D01*
X177099500Y-134048731D01*
X177079815Y-134115770D01*
X177027011Y-134161525D01*
X176957853Y-134171469D01*
X176943407Y-134168506D01*
X176901284Y-134157219D01*
X176872475Y-134149500D01*
X176727525Y-134149500D01*
X176598993Y-134183940D01*
X176587511Y-134187017D01*
X176461988Y-134259488D01*
X176461982Y-134259493D01*
X176359493Y-134361982D01*
X176359488Y-134361988D01*
X176287017Y-134487511D01*
X176287016Y-134487515D01*
X176249500Y-134627525D01*
X164655662Y-134627525D01*
X164626760Y-134570801D01*
X164515690Y-134417927D01*
X164382073Y-134284310D01*
X164229199Y-134173240D01*
X164206207Y-134161525D01*
X164060836Y-134087454D01*
X163881118Y-134029059D01*
X163694486Y-133999500D01*
X163694481Y-133999500D01*
X163505519Y-133999500D01*
X163505514Y-133999500D01*
X163318881Y-134029059D01*
X163139163Y-134087454D01*
X162970800Y-134173240D01*
X162883579Y-134236610D01*
X162817927Y-134284310D01*
X162817925Y-134284312D01*
X162817924Y-134284312D01*
X162684312Y-134417924D01*
X162684312Y-134417925D01*
X162684310Y-134417927D01*
X162653960Y-134459700D01*
X162573240Y-134570800D01*
X162487454Y-134739163D01*
X162429059Y-134918881D01*
X162399500Y-135105513D01*
X97300500Y-135105513D01*
X97300500Y-130336824D01*
X165094500Y-130336824D01*
X165094500Y-130663175D01*
X165131035Y-130987441D01*
X165131038Y-130987455D01*
X165203655Y-131305612D01*
X165203656Y-131305614D01*
X165311438Y-131613640D01*
X165453030Y-131907657D01*
X165453032Y-131907660D01*
X165626654Y-132183979D01*
X165830123Y-132439121D01*
X166060879Y-132669877D01*
X166316021Y-132873346D01*
X166592340Y-133046968D01*
X166886361Y-133188562D01*
X167194387Y-133296344D01*
X167512544Y-133368962D01*
X167512553Y-133368963D01*
X167512558Y-133368964D01*
X167728735Y-133393320D01*
X167836825Y-133405499D01*
X167836828Y-133405500D01*
X167836831Y-133405500D01*
X168163172Y-133405500D01*
X168163173Y-133405499D01*
X168328900Y-133386826D01*
X168487441Y-133368964D01*
X168487444Y-133368963D01*
X168487456Y-133368962D01*
X168805613Y-133296344D01*
X169113639Y-133188562D01*
X169407660Y-133046968D01*
X169683979Y-132873346D01*
X169939121Y-132669877D01*
X170169877Y-132439121D01*
X170373346Y-132183979D01*
X170546968Y-131907660D01*
X170688562Y-131613639D01*
X170796344Y-131305613D01*
X170861978Y-131018053D01*
X173550000Y-131018053D01*
X173560613Y-131106443D01*
X173616079Y-131247095D01*
X173707435Y-131367564D01*
X173827904Y-131458920D01*
X173968556Y-131514386D01*
X174056946Y-131525000D01*
X174150000Y-131525000D01*
X174550000Y-131525000D01*
X174643054Y-131525000D01*
X174731443Y-131514386D01*
X174872095Y-131458920D01*
X174992564Y-131367564D01*
X175083920Y-131247095D01*
X175139386Y-131106443D01*
X175150000Y-131018053D01*
X175150000Y-130700000D01*
X174550000Y-130700000D01*
X174550000Y-131525000D01*
X174150000Y-131525000D01*
X174150000Y-130700000D01*
X173550000Y-130700000D01*
X173550000Y-131018053D01*
X170861978Y-131018053D01*
X170868962Y-130987456D01*
X170905500Y-130663169D01*
X170905500Y-130336831D01*
X170868962Y-130012544D01*
X170861978Y-129981946D01*
X173550000Y-129981946D01*
X173550000Y-130300000D01*
X174150000Y-130300000D01*
X174550000Y-130300000D01*
X175150000Y-130300000D01*
X175150000Y-129981946D01*
X175139386Y-129893556D01*
X175083920Y-129752904D01*
X174992564Y-129632435D01*
X174872095Y-129541079D01*
X174731443Y-129485613D01*
X174643054Y-129475000D01*
X174550000Y-129475000D01*
X174550000Y-130300000D01*
X174150000Y-130300000D01*
X174150000Y-129475000D01*
X174056946Y-129475000D01*
X173968556Y-129485613D01*
X173827904Y-129541079D01*
X173707435Y-129632435D01*
X173616079Y-129752904D01*
X173560613Y-129893556D01*
X173550000Y-129981946D01*
X170861978Y-129981946D01*
X170841803Y-129893556D01*
X170796344Y-129694387D01*
X170796343Y-129694385D01*
X170742700Y-129541079D01*
X170688562Y-129386361D01*
X170546968Y-129092340D01*
X170373346Y-128816021D01*
X170169877Y-128560879D01*
X169939121Y-128330123D01*
X169683979Y-128126654D01*
X169407660Y-127953032D01*
X169407657Y-127953030D01*
X169113640Y-127811438D01*
X168805614Y-127703656D01*
X168805612Y-127703655D01*
X168560073Y-127647612D01*
X168487456Y-127631038D01*
X168487453Y-127631037D01*
X168487441Y-127631035D01*
X168163175Y-127594500D01*
X168163169Y-127594500D01*
X167836831Y-127594500D01*
X167836824Y-127594500D01*
X167512558Y-127631035D01*
X167512544Y-127631038D01*
X167194387Y-127703655D01*
X167194385Y-127703656D01*
X166886359Y-127811438D01*
X166592342Y-127953030D01*
X166316022Y-128126653D01*
X166060879Y-128330122D01*
X165830122Y-128560879D01*
X165626653Y-128816022D01*
X165453030Y-129092342D01*
X165311438Y-129386359D01*
X165203656Y-129694385D01*
X165203655Y-129694387D01*
X165131038Y-130012544D01*
X165131035Y-130012558D01*
X165094500Y-130336824D01*
X97300500Y-130336824D01*
X97300500Y-126105513D01*
X104399500Y-126105513D01*
X104399500Y-126294486D01*
X104429059Y-126481118D01*
X104487454Y-126660836D01*
X104532996Y-126750216D01*
X104573240Y-126829199D01*
X104684310Y-126982073D01*
X104817927Y-127115690D01*
X104970801Y-127226760D01*
X105050347Y-127267290D01*
X105139163Y-127312545D01*
X105139165Y-127312545D01*
X105139168Y-127312547D01*
X105235497Y-127343846D01*
X105318881Y-127370940D01*
X105505514Y-127400500D01*
X105505519Y-127400500D01*
X105694486Y-127400500D01*
X105881118Y-127370940D01*
X105938433Y-127352317D01*
X106060832Y-127312547D01*
X106229199Y-127226760D01*
X106338040Y-127147682D01*
X111300000Y-127147682D01*
X111300000Y-127352317D01*
X111332009Y-127554417D01*
X111395244Y-127749031D01*
X111488139Y-127931347D01*
X111550279Y-128016876D01*
X112019668Y-127547487D01*
X112023978Y-127557890D01*
X112095112Y-127664351D01*
X112185649Y-127754888D01*
X112292110Y-127826022D01*
X112302510Y-127830330D01*
X111833121Y-128299719D01*
X111833122Y-128299720D01*
X111918640Y-128361852D01*
X111918649Y-128361858D01*
X112100968Y-128454755D01*
X112295582Y-128517990D01*
X112497683Y-128550000D01*
X112702317Y-128550000D01*
X112904417Y-128517990D01*
X113099031Y-128454755D01*
X113281349Y-128361859D01*
X113366876Y-128299719D01*
X113366877Y-128299718D01*
X112897489Y-127830330D01*
X112907890Y-127826022D01*
X113014351Y-127754888D01*
X113104888Y-127664351D01*
X113176022Y-127557890D01*
X113180330Y-127547488D01*
X113649718Y-128016877D01*
X113649719Y-128016876D01*
X113711859Y-127931349D01*
X113804755Y-127749031D01*
X113867990Y-127554417D01*
X113900000Y-127352317D01*
X113900000Y-127147682D01*
X113867990Y-126945582D01*
X113804755Y-126750968D01*
X113711858Y-126568649D01*
X113711852Y-126568640D01*
X113649720Y-126483122D01*
X113649719Y-126483121D01*
X113180330Y-126952510D01*
X113176022Y-126942110D01*
X113104888Y-126835649D01*
X113014351Y-126745112D01*
X112907890Y-126673978D01*
X112897487Y-126669669D01*
X113366876Y-126200279D01*
X113281347Y-126138139D01*
X113217315Y-126105513D01*
X124399500Y-126105513D01*
X124399500Y-126294486D01*
X124429059Y-126481118D01*
X124487454Y-126660836D01*
X124532996Y-126750216D01*
X124573240Y-126829199D01*
X124684310Y-126982073D01*
X124817927Y-127115690D01*
X124970801Y-127226760D01*
X125050347Y-127267290D01*
X125139163Y-127312545D01*
X125139165Y-127312545D01*
X125139168Y-127312547D01*
X125235497Y-127343846D01*
X125318881Y-127370940D01*
X125505514Y-127400500D01*
X125505519Y-127400500D01*
X125694486Y-127400500D01*
X125881118Y-127370940D01*
X125938433Y-127352317D01*
X126060832Y-127312547D01*
X126229199Y-127226760D01*
X126338040Y-127147682D01*
X131300000Y-127147682D01*
X131300000Y-127352317D01*
X131332009Y-127554417D01*
X131395244Y-127749031D01*
X131488139Y-127931347D01*
X131550279Y-128016876D01*
X132019668Y-127547487D01*
X132023978Y-127557890D01*
X132095112Y-127664351D01*
X132185649Y-127754888D01*
X132292110Y-127826022D01*
X132302510Y-127830330D01*
X131833121Y-128299719D01*
X131833122Y-128299720D01*
X131918640Y-128361852D01*
X131918649Y-128361858D01*
X132100968Y-128454755D01*
X132295582Y-128517990D01*
X132497683Y-128550000D01*
X132702317Y-128550000D01*
X132904417Y-128517990D01*
X133099031Y-128454755D01*
X133281349Y-128361859D01*
X133366876Y-128299719D01*
X133366877Y-128299718D01*
X132897489Y-127830330D01*
X132907890Y-127826022D01*
X133014351Y-127754888D01*
X133104888Y-127664351D01*
X133176022Y-127557890D01*
X133180330Y-127547488D01*
X133649718Y-128016877D01*
X133649719Y-128016876D01*
X133711859Y-127931349D01*
X133804755Y-127749031D01*
X133867990Y-127554417D01*
X133900000Y-127352317D01*
X133900000Y-127147682D01*
X133867990Y-126945582D01*
X133804755Y-126750968D01*
X133711858Y-126568649D01*
X133711852Y-126568640D01*
X133649720Y-126483122D01*
X133649719Y-126483121D01*
X133180330Y-126952510D01*
X133176022Y-126942110D01*
X133104888Y-126835649D01*
X133014351Y-126745112D01*
X132907890Y-126673978D01*
X132897487Y-126669669D01*
X133366876Y-126200279D01*
X133281347Y-126138139D01*
X133217315Y-126105513D01*
X144399500Y-126105513D01*
X144399500Y-126294486D01*
X144429059Y-126481118D01*
X144487454Y-126660836D01*
X144532996Y-126750216D01*
X144573240Y-126829199D01*
X144684310Y-126982073D01*
X144817927Y-127115690D01*
X144970801Y-127226760D01*
X145050347Y-127267290D01*
X145139163Y-127312545D01*
X145139165Y-127312545D01*
X145139168Y-127312547D01*
X145235497Y-127343846D01*
X145318881Y-127370940D01*
X145505514Y-127400500D01*
X145505519Y-127400500D01*
X145694486Y-127400500D01*
X145881118Y-127370940D01*
X145938433Y-127352317D01*
X146060832Y-127312547D01*
X146229199Y-127226760D01*
X146338040Y-127147682D01*
X151300000Y-127147682D01*
X151300000Y-127352317D01*
X151332009Y-127554417D01*
X151395244Y-127749031D01*
X151488139Y-127931347D01*
X151550279Y-128016876D01*
X152019668Y-127547487D01*
X152023978Y-127557890D01*
X152095112Y-127664351D01*
X152185649Y-127754888D01*
X152292110Y-127826022D01*
X152302510Y-127830330D01*
X151833121Y-128299719D01*
X151833122Y-128299720D01*
X151918640Y-128361852D01*
X151918649Y-128361858D01*
X152100968Y-128454755D01*
X152295582Y-128517990D01*
X152497683Y-128550000D01*
X152702317Y-128550000D01*
X152904417Y-128517990D01*
X153099031Y-128454755D01*
X153281349Y-128361859D01*
X153366876Y-128299719D01*
X153366877Y-128299718D01*
X152897489Y-127830330D01*
X152907890Y-127826022D01*
X153014351Y-127754888D01*
X153104888Y-127664351D01*
X153176022Y-127557890D01*
X153180330Y-127547488D01*
X153649718Y-128016877D01*
X153649719Y-128016876D01*
X153711859Y-127931349D01*
X153804755Y-127749031D01*
X153867990Y-127554417D01*
X153900000Y-127352317D01*
X153900000Y-127147682D01*
X153867990Y-126945582D01*
X153804755Y-126750968D01*
X153711858Y-126568649D01*
X153711852Y-126568640D01*
X153649720Y-126483122D01*
X153649719Y-126483121D01*
X153180330Y-126952510D01*
X153176022Y-126942110D01*
X153104888Y-126835649D01*
X153014351Y-126745112D01*
X152907890Y-126673978D01*
X152897487Y-126669669D01*
X153366876Y-126200279D01*
X153281347Y-126138139D01*
X153099031Y-126045244D01*
X152904417Y-125982009D01*
X152702317Y-125950000D01*
X152497683Y-125950000D01*
X152295582Y-125982009D01*
X152100968Y-126045244D01*
X151918648Y-126138141D01*
X151833122Y-126200278D01*
X151833122Y-126200279D01*
X152302512Y-126669669D01*
X152292110Y-126673978D01*
X152185649Y-126745112D01*
X152095112Y-126835649D01*
X152023978Y-126942110D01*
X152019669Y-126952512D01*
X151550279Y-126483122D01*
X151550278Y-126483122D01*
X151488141Y-126568648D01*
X151395244Y-126750968D01*
X151332009Y-126945582D01*
X151300000Y-127147682D01*
X146338040Y-127147682D01*
X146382073Y-127115690D01*
X146515690Y-126982073D01*
X146626760Y-126829199D01*
X146712547Y-126660832D01*
X146770940Y-126481118D01*
X146800500Y-126294486D01*
X146800500Y-126105513D01*
X146770940Y-125918881D01*
X146725097Y-125777792D01*
X146712547Y-125739168D01*
X146712545Y-125739165D01*
X146712545Y-125739163D01*
X146635462Y-125587880D01*
X146626760Y-125570801D01*
X146522663Y-125427525D01*
X158049500Y-125427525D01*
X158049500Y-125572475D01*
X158082907Y-125697149D01*
X158087017Y-125712488D01*
X158159488Y-125838011D01*
X158159490Y-125838013D01*
X158159491Y-125838015D01*
X158261985Y-125940509D01*
X158261986Y-125940510D01*
X158261988Y-125940511D01*
X158387511Y-126012982D01*
X158387512Y-126012982D01*
X158387515Y-126012984D01*
X158527525Y-126050500D01*
X158527528Y-126050500D01*
X158672472Y-126050500D01*
X158672475Y-126050500D01*
X158812485Y-126012984D01*
X158938015Y-125940509D01*
X159016706Y-125861818D01*
X159078030Y-125828334D01*
X159104387Y-125825500D01*
X159442858Y-125825500D01*
X159450917Y-125824439D01*
X159451178Y-125826423D01*
X159478731Y-125823905D01*
X159495734Y-125825500D01*
X159495738Y-125825500D01*
X160504270Y-125825500D01*
X160534699Y-125822646D01*
X160534701Y-125822646D01*
X160598790Y-125800219D01*
X160662882Y-125777793D01*
X160772150Y-125697150D01*
X160852793Y-125587882D01*
X160889582Y-125482745D01*
X160897646Y-125459701D01*
X160897646Y-125459699D01*
X160900500Y-125429269D01*
X160900500Y-124795730D01*
X160897646Y-124765300D01*
X160897646Y-124765298D01*
X160852793Y-124637119D01*
X160852792Y-124637117D01*
X160772150Y-124527850D01*
X160662882Y-124447207D01*
X160662880Y-124447206D01*
X160534700Y-124402353D01*
X160504270Y-124399500D01*
X160504266Y-124399500D01*
X159495734Y-124399500D01*
X159495730Y-124399500D01*
X159465300Y-124402353D01*
X159465298Y-124402353D01*
X159337119Y-124447206D01*
X159337117Y-124447207D01*
X159227850Y-124527850D01*
X159147207Y-124637117D01*
X159147206Y-124637119D01*
X159102353Y-124765298D01*
X159102353Y-124765300D01*
X159099500Y-124795730D01*
X159099500Y-124937950D01*
X159079815Y-125004989D01*
X159027011Y-125050744D01*
X158957853Y-125060688D01*
X158913500Y-125045337D01*
X158812488Y-124987017D01*
X158812489Y-124987017D01*
X158801006Y-124983940D01*
X158672475Y-124949500D01*
X158527525Y-124949500D01*
X158398993Y-124983940D01*
X158387511Y-124987017D01*
X158261988Y-125059488D01*
X158261982Y-125059493D01*
X158159493Y-125161982D01*
X158159488Y-125161988D01*
X158087017Y-125287511D01*
X158087016Y-125287515D01*
X158049500Y-125427525D01*
X146522663Y-125427525D01*
X146515690Y-125417927D01*
X146382073Y-125284310D01*
X146229199Y-125173240D01*
X146207104Y-125161982D01*
X146060836Y-125087454D01*
X145881118Y-125029059D01*
X145694486Y-124999500D01*
X145694481Y-124999500D01*
X145505519Y-124999500D01*
X145505514Y-124999500D01*
X145318881Y-125029059D01*
X145139163Y-125087454D01*
X144970800Y-125173240D01*
X144883579Y-125236610D01*
X144817927Y-125284310D01*
X144817925Y-125284312D01*
X144817924Y-125284312D01*
X144684312Y-125417924D01*
X144684312Y-125417925D01*
X144684310Y-125417927D01*
X144676072Y-125429266D01*
X144573240Y-125570800D01*
X144487454Y-125739163D01*
X144429059Y-125918881D01*
X144399500Y-126105513D01*
X133217315Y-126105513D01*
X133099031Y-126045244D01*
X132904417Y-125982009D01*
X132702317Y-125950000D01*
X132497683Y-125950000D01*
X132295582Y-125982009D01*
X132100968Y-126045244D01*
X131918648Y-126138141D01*
X131833122Y-126200278D01*
X131833122Y-126200279D01*
X132302512Y-126669669D01*
X132292110Y-126673978D01*
X132185649Y-126745112D01*
X132095112Y-126835649D01*
X132023978Y-126942110D01*
X132019669Y-126952512D01*
X131550279Y-126483122D01*
X131550278Y-126483122D01*
X131488141Y-126568648D01*
X131395244Y-126750968D01*
X131332009Y-126945582D01*
X131300000Y-127147682D01*
X126338040Y-127147682D01*
X126382073Y-127115690D01*
X126515690Y-126982073D01*
X126626760Y-126829199D01*
X126712547Y-126660832D01*
X126770940Y-126481118D01*
X126800500Y-126294486D01*
X126800500Y-126105513D01*
X126770940Y-125918881D01*
X126725097Y-125777792D01*
X126712547Y-125739168D01*
X126712545Y-125739165D01*
X126712545Y-125739163D01*
X126635462Y-125587880D01*
X126626760Y-125570801D01*
X126522663Y-125427525D01*
X138049500Y-125427525D01*
X138049500Y-125572475D01*
X138082907Y-125697149D01*
X138087017Y-125712488D01*
X138159488Y-125838011D01*
X138159490Y-125838013D01*
X138159491Y-125838015D01*
X138261985Y-125940509D01*
X138261986Y-125940510D01*
X138261988Y-125940511D01*
X138387511Y-126012982D01*
X138387512Y-126012982D01*
X138387515Y-126012984D01*
X138527525Y-126050500D01*
X138527528Y-126050500D01*
X138672472Y-126050500D01*
X138672475Y-126050500D01*
X138812485Y-126012984D01*
X138938015Y-125940509D01*
X139022315Y-125856208D01*
X139028601Y-125851355D01*
X139054053Y-125841425D01*
X139078030Y-125828334D01*
X139091257Y-125826911D01*
X139093692Y-125825962D01*
X139095915Y-125826410D01*
X139104387Y-125825500D01*
X139442858Y-125825500D01*
X139450917Y-125824439D01*
X139451178Y-125826423D01*
X139478731Y-125823905D01*
X139495734Y-125825500D01*
X139495738Y-125825500D01*
X140504270Y-125825500D01*
X140534699Y-125822646D01*
X140534701Y-125822646D01*
X140598790Y-125800219D01*
X140662882Y-125777793D01*
X140772150Y-125697150D01*
X140852793Y-125587882D01*
X140889582Y-125482745D01*
X140897646Y-125459701D01*
X140897646Y-125459699D01*
X140900500Y-125429269D01*
X140900500Y-124795730D01*
X140897646Y-124765300D01*
X140897646Y-124765298D01*
X140852793Y-124637119D01*
X140852792Y-124637117D01*
X140772150Y-124527850D01*
X140662882Y-124447207D01*
X140662880Y-124447206D01*
X140534700Y-124402353D01*
X140504270Y-124399500D01*
X140504266Y-124399500D01*
X139495734Y-124399500D01*
X139495730Y-124399500D01*
X139465300Y-124402353D01*
X139465298Y-124402353D01*
X139337119Y-124447206D01*
X139337117Y-124447207D01*
X139227850Y-124527850D01*
X139147207Y-124637117D01*
X139147206Y-124637119D01*
X139102353Y-124765298D01*
X139102353Y-124765300D01*
X139099500Y-124795730D01*
X139099500Y-124937950D01*
X139079815Y-125004989D01*
X139027011Y-125050744D01*
X138957853Y-125060688D01*
X138913500Y-125045337D01*
X138812488Y-124987017D01*
X138812489Y-124987017D01*
X138801006Y-124983940D01*
X138672475Y-124949500D01*
X138527525Y-124949500D01*
X138398993Y-124983940D01*
X138387511Y-124987017D01*
X138261988Y-125059488D01*
X138261982Y-125059493D01*
X138159493Y-125161982D01*
X138159488Y-125161988D01*
X138087017Y-125287511D01*
X138087016Y-125287515D01*
X138049500Y-125427525D01*
X126522663Y-125427525D01*
X126515690Y-125417927D01*
X126382073Y-125284310D01*
X126229199Y-125173240D01*
X126207104Y-125161982D01*
X126060836Y-125087454D01*
X125881118Y-125029059D01*
X125694486Y-124999500D01*
X125694481Y-124999500D01*
X125505519Y-124999500D01*
X125505514Y-124999500D01*
X125318881Y-125029059D01*
X125139163Y-125087454D01*
X124970800Y-125173240D01*
X124883579Y-125236610D01*
X124817927Y-125284310D01*
X124817925Y-125284312D01*
X124817924Y-125284312D01*
X124684312Y-125417924D01*
X124684312Y-125417925D01*
X124684310Y-125417927D01*
X124676072Y-125429266D01*
X124573240Y-125570800D01*
X124487454Y-125739163D01*
X124429059Y-125918881D01*
X124399500Y-126105513D01*
X113217315Y-126105513D01*
X113099031Y-126045244D01*
X112904417Y-125982009D01*
X112702317Y-125950000D01*
X112497683Y-125950000D01*
X112295582Y-125982009D01*
X112100968Y-126045244D01*
X111918648Y-126138141D01*
X111833122Y-126200278D01*
X111833122Y-126200279D01*
X112302512Y-126669669D01*
X112292110Y-126673978D01*
X112185649Y-126745112D01*
X112095112Y-126835649D01*
X112023978Y-126942110D01*
X112019669Y-126952512D01*
X111550279Y-126483122D01*
X111550278Y-126483122D01*
X111488141Y-126568648D01*
X111395244Y-126750968D01*
X111332009Y-126945582D01*
X111300000Y-127147682D01*
X106338040Y-127147682D01*
X106382073Y-127115690D01*
X106515690Y-126982073D01*
X106626760Y-126829199D01*
X106712547Y-126660832D01*
X106770940Y-126481118D01*
X106800500Y-126294486D01*
X106800500Y-126105513D01*
X106770940Y-125918881D01*
X106725097Y-125777792D01*
X106712547Y-125739168D01*
X106712545Y-125739165D01*
X106712545Y-125739163D01*
X106635462Y-125587880D01*
X106626760Y-125570801D01*
X106522663Y-125427525D01*
X118049500Y-125427525D01*
X118049500Y-125572475D01*
X118082907Y-125697149D01*
X118087017Y-125712488D01*
X118159488Y-125838011D01*
X118159490Y-125838013D01*
X118159491Y-125838015D01*
X118261985Y-125940509D01*
X118261986Y-125940510D01*
X118261988Y-125940511D01*
X118387511Y-126012982D01*
X118387512Y-126012982D01*
X118387515Y-126012984D01*
X118527525Y-126050500D01*
X118527528Y-126050500D01*
X118672472Y-126050500D01*
X118672475Y-126050500D01*
X118812485Y-126012984D01*
X118938015Y-125940509D01*
X119022315Y-125856208D01*
X119028601Y-125851355D01*
X119054053Y-125841425D01*
X119078030Y-125828334D01*
X119091257Y-125826911D01*
X119093692Y-125825962D01*
X119095915Y-125826410D01*
X119104387Y-125825500D01*
X119442858Y-125825500D01*
X119450917Y-125824439D01*
X119451178Y-125826423D01*
X119478731Y-125823905D01*
X119495734Y-125825500D01*
X119495738Y-125825500D01*
X120504270Y-125825500D01*
X120534699Y-125822646D01*
X120534701Y-125822646D01*
X120598790Y-125800219D01*
X120662882Y-125777793D01*
X120772150Y-125697150D01*
X120852793Y-125587882D01*
X120889582Y-125482745D01*
X120897646Y-125459701D01*
X120897646Y-125459699D01*
X120900500Y-125429269D01*
X120900500Y-124795730D01*
X120897646Y-124765300D01*
X120897646Y-124765298D01*
X120852793Y-124637119D01*
X120852792Y-124637117D01*
X120772150Y-124527850D01*
X120662882Y-124447207D01*
X120662880Y-124447206D01*
X120534700Y-124402353D01*
X120504270Y-124399500D01*
X120504266Y-124399500D01*
X119495734Y-124399500D01*
X119495730Y-124399500D01*
X119465300Y-124402353D01*
X119465298Y-124402353D01*
X119337119Y-124447206D01*
X119337117Y-124447207D01*
X119227850Y-124527850D01*
X119147207Y-124637117D01*
X119147206Y-124637119D01*
X119102353Y-124765298D01*
X119102353Y-124765300D01*
X119099500Y-124795730D01*
X119099500Y-124937950D01*
X119079815Y-125004989D01*
X119027011Y-125050744D01*
X118957853Y-125060688D01*
X118913500Y-125045337D01*
X118812488Y-124987017D01*
X118812489Y-124987017D01*
X118801006Y-124983940D01*
X118672475Y-124949500D01*
X118527525Y-124949500D01*
X118398993Y-124983940D01*
X118387511Y-124987017D01*
X118261988Y-125059488D01*
X118261982Y-125059493D01*
X118159493Y-125161982D01*
X118159488Y-125161988D01*
X118087017Y-125287511D01*
X118087016Y-125287515D01*
X118049500Y-125427525D01*
X106522663Y-125427525D01*
X106515690Y-125417927D01*
X106382073Y-125284310D01*
X106229199Y-125173240D01*
X106207104Y-125161982D01*
X106060836Y-125087454D01*
X105881118Y-125029059D01*
X105694486Y-124999500D01*
X105694481Y-124999500D01*
X105505519Y-124999500D01*
X105505514Y-124999500D01*
X105318881Y-125029059D01*
X105139163Y-125087454D01*
X104970800Y-125173240D01*
X104883579Y-125236610D01*
X104817927Y-125284310D01*
X104817925Y-125284312D01*
X104817924Y-125284312D01*
X104684312Y-125417924D01*
X104684312Y-125417925D01*
X104684310Y-125417927D01*
X104676072Y-125429266D01*
X104573240Y-125570800D01*
X104487454Y-125739163D01*
X104429059Y-125918881D01*
X104399500Y-126105513D01*
X97300500Y-126105513D01*
X97300500Y-121336824D01*
X107094500Y-121336824D01*
X107094500Y-121663175D01*
X107131035Y-121987441D01*
X107131038Y-121987455D01*
X107203655Y-122305612D01*
X107203656Y-122305614D01*
X107311438Y-122613640D01*
X107453030Y-122907657D01*
X107453032Y-122907660D01*
X107626654Y-123183979D01*
X107830123Y-123439121D01*
X108060879Y-123669877D01*
X108316021Y-123873346D01*
X108592340Y-124046968D01*
X108886361Y-124188562D01*
X109194387Y-124296344D01*
X109512544Y-124368962D01*
X109512553Y-124368963D01*
X109512558Y-124368964D01*
X109728735Y-124393320D01*
X109836825Y-124405499D01*
X109836828Y-124405500D01*
X109836831Y-124405500D01*
X110163172Y-124405500D01*
X110163173Y-124405499D01*
X110328900Y-124386826D01*
X110487441Y-124368964D01*
X110487444Y-124368963D01*
X110487456Y-124368962D01*
X110805613Y-124296344D01*
X111113639Y-124188562D01*
X111407660Y-124046968D01*
X111683979Y-123873346D01*
X111939121Y-123669877D01*
X112169877Y-123439121D01*
X112373346Y-123183979D01*
X112546968Y-122907660D01*
X112688562Y-122613639D01*
X112796344Y-122305613D01*
X112861978Y-122018053D01*
X115550000Y-122018053D01*
X115560613Y-122106443D01*
X115616079Y-122247095D01*
X115707435Y-122367564D01*
X115827904Y-122458920D01*
X115968556Y-122514386D01*
X116056946Y-122525000D01*
X116150000Y-122525000D01*
X116550000Y-122525000D01*
X116643054Y-122525000D01*
X116731443Y-122514386D01*
X116872095Y-122458920D01*
X116992564Y-122367564D01*
X117083920Y-122247095D01*
X117139386Y-122106443D01*
X117150000Y-122018053D01*
X117150000Y-121700000D01*
X116550000Y-121700000D01*
X116550000Y-122525000D01*
X116150000Y-122525000D01*
X116150000Y-121700000D01*
X115550000Y-121700000D01*
X115550000Y-122018053D01*
X112861978Y-122018053D01*
X112868962Y-121987456D01*
X112905500Y-121663169D01*
X112905500Y-121336831D01*
X112868962Y-121012544D01*
X112861978Y-120981946D01*
X115550000Y-120981946D01*
X115550000Y-121300000D01*
X116150000Y-121300000D01*
X116550000Y-121300000D01*
X117150000Y-121300000D01*
X117150000Y-120981944D01*
X117148653Y-120970730D01*
X117549500Y-120970730D01*
X117549500Y-122029269D01*
X117552353Y-122059699D01*
X117552353Y-122059701D01*
X117597206Y-122187880D01*
X117597207Y-122187882D01*
X117677850Y-122297150D01*
X117787118Y-122377793D01*
X117829845Y-122392744D01*
X117915299Y-122422646D01*
X117945730Y-122425500D01*
X117945734Y-122425500D01*
X118413811Y-122425500D01*
X118480850Y-122445185D01*
X118501492Y-122461819D01*
X119063181Y-123023508D01*
X119096666Y-123084831D01*
X119099500Y-123111189D01*
X119099500Y-123604269D01*
X119102353Y-123634699D01*
X119102353Y-123634701D01*
X119147206Y-123762880D01*
X119147207Y-123762882D01*
X119227850Y-123872150D01*
X119337118Y-123952793D01*
X119379845Y-123967744D01*
X119465299Y-123997646D01*
X119495730Y-124000500D01*
X119495734Y-124000500D01*
X120504270Y-124000500D01*
X120534699Y-123997646D01*
X120534701Y-123997646D01*
X120598790Y-123975219D01*
X120662882Y-123952793D01*
X120772150Y-123872150D01*
X120852793Y-123762882D01*
X120885337Y-123669877D01*
X120897646Y-123634701D01*
X120897646Y-123634699D01*
X120900500Y-123604269D01*
X120900500Y-122970730D01*
X120897646Y-122940300D01*
X120897646Y-122940298D01*
X120852793Y-122812119D01*
X120852792Y-122812117D01*
X120772150Y-122702850D01*
X120662882Y-122622207D01*
X120662880Y-122622206D01*
X120534700Y-122577353D01*
X120504270Y-122574500D01*
X120504266Y-122574500D01*
X119586189Y-122574500D01*
X119519150Y-122554815D01*
X119498508Y-122538181D01*
X118986819Y-122026492D01*
X118953334Y-121965169D01*
X118950500Y-121938811D01*
X118950500Y-121336824D01*
X127094500Y-121336824D01*
X127094500Y-121663175D01*
X127131035Y-121987441D01*
X127131038Y-121987455D01*
X127203655Y-122305612D01*
X127203656Y-122305614D01*
X127311438Y-122613640D01*
X127453030Y-122907657D01*
X127453032Y-122907660D01*
X127626654Y-123183979D01*
X127830123Y-123439121D01*
X128060879Y-123669877D01*
X128316021Y-123873346D01*
X128592340Y-124046968D01*
X128886361Y-124188562D01*
X129194387Y-124296344D01*
X129512544Y-124368962D01*
X129512553Y-124368963D01*
X129512558Y-124368964D01*
X129728735Y-124393320D01*
X129836825Y-124405499D01*
X129836828Y-124405500D01*
X129836831Y-124405500D01*
X130163172Y-124405500D01*
X130163173Y-124405499D01*
X130328900Y-124386826D01*
X130487441Y-124368964D01*
X130487444Y-124368963D01*
X130487456Y-124368962D01*
X130805613Y-124296344D01*
X131113639Y-124188562D01*
X131407660Y-124046968D01*
X131683979Y-123873346D01*
X131939121Y-123669877D01*
X132169877Y-123439121D01*
X132373346Y-123183979D01*
X132546968Y-122907660D01*
X132688562Y-122613639D01*
X132796344Y-122305613D01*
X132861978Y-122018053D01*
X135550000Y-122018053D01*
X135560613Y-122106443D01*
X135616079Y-122247095D01*
X135707435Y-122367564D01*
X135827904Y-122458920D01*
X135968556Y-122514386D01*
X136056946Y-122525000D01*
X136150000Y-122525000D01*
X136550000Y-122525000D01*
X136643054Y-122525000D01*
X136731443Y-122514386D01*
X136872095Y-122458920D01*
X136992564Y-122367564D01*
X137083920Y-122247095D01*
X137139386Y-122106443D01*
X137150000Y-122018053D01*
X137150000Y-121700000D01*
X136550000Y-121700000D01*
X136550000Y-122525000D01*
X136150000Y-122525000D01*
X136150000Y-121700000D01*
X135550000Y-121700000D01*
X135550000Y-122018053D01*
X132861978Y-122018053D01*
X132868962Y-121987456D01*
X132905500Y-121663169D01*
X132905500Y-121336831D01*
X132868962Y-121012544D01*
X132861978Y-120981946D01*
X135550000Y-120981946D01*
X135550000Y-121300000D01*
X136150000Y-121300000D01*
X136550000Y-121300000D01*
X137150000Y-121300000D01*
X137150000Y-120981944D01*
X137148653Y-120970730D01*
X137549500Y-120970730D01*
X137549500Y-122029269D01*
X137552353Y-122059699D01*
X137552353Y-122059701D01*
X137597206Y-122187880D01*
X137597207Y-122187882D01*
X137677850Y-122297150D01*
X137787118Y-122377793D01*
X137829845Y-122392744D01*
X137915299Y-122422646D01*
X137945730Y-122425500D01*
X137945734Y-122425500D01*
X138413811Y-122425500D01*
X138480850Y-122445185D01*
X138501492Y-122461819D01*
X139063181Y-123023508D01*
X139096666Y-123084831D01*
X139099500Y-123111189D01*
X139099500Y-123604269D01*
X139102353Y-123634699D01*
X139102353Y-123634701D01*
X139147206Y-123762880D01*
X139147207Y-123762882D01*
X139227850Y-123872150D01*
X139337118Y-123952793D01*
X139379845Y-123967744D01*
X139465299Y-123997646D01*
X139495730Y-124000500D01*
X139495734Y-124000500D01*
X140504270Y-124000500D01*
X140534699Y-123997646D01*
X140534701Y-123997646D01*
X140598790Y-123975219D01*
X140662882Y-123952793D01*
X140772150Y-123872150D01*
X140852793Y-123762882D01*
X140885337Y-123669877D01*
X140897646Y-123634701D01*
X140897646Y-123634699D01*
X140900500Y-123604269D01*
X140900500Y-122970730D01*
X140897646Y-122940300D01*
X140897646Y-122940298D01*
X140852793Y-122812119D01*
X140852792Y-122812117D01*
X140772150Y-122702850D01*
X140662882Y-122622207D01*
X140662880Y-122622206D01*
X140534700Y-122577353D01*
X140504270Y-122574500D01*
X140504266Y-122574500D01*
X139586189Y-122574500D01*
X139519150Y-122554815D01*
X139498508Y-122538181D01*
X138986819Y-122026492D01*
X138953334Y-121965169D01*
X138950500Y-121938811D01*
X138950500Y-121336824D01*
X147094500Y-121336824D01*
X147094500Y-121663175D01*
X147131035Y-121987441D01*
X147131038Y-121987455D01*
X147203655Y-122305612D01*
X147203656Y-122305614D01*
X147311438Y-122613640D01*
X147453030Y-122907657D01*
X147453032Y-122907660D01*
X147626654Y-123183979D01*
X147830123Y-123439121D01*
X148060879Y-123669877D01*
X148316021Y-123873346D01*
X148592340Y-124046968D01*
X148886361Y-124188562D01*
X149194387Y-124296344D01*
X149512544Y-124368962D01*
X149512553Y-124368963D01*
X149512558Y-124368964D01*
X149728735Y-124393320D01*
X149836825Y-124405499D01*
X149836828Y-124405500D01*
X149836831Y-124405500D01*
X150163172Y-124405500D01*
X150163173Y-124405499D01*
X150328900Y-124386826D01*
X150487441Y-124368964D01*
X150487444Y-124368963D01*
X150487456Y-124368962D01*
X150805613Y-124296344D01*
X151113639Y-124188562D01*
X151407660Y-124046968D01*
X151683979Y-123873346D01*
X151939121Y-123669877D01*
X152169877Y-123439121D01*
X152373346Y-123183979D01*
X152546968Y-122907660D01*
X152688562Y-122613639D01*
X152796344Y-122305613D01*
X152861978Y-122018053D01*
X155550000Y-122018053D01*
X155560613Y-122106443D01*
X155616079Y-122247095D01*
X155707435Y-122367564D01*
X155827904Y-122458920D01*
X155968556Y-122514386D01*
X156056946Y-122525000D01*
X156150000Y-122525000D01*
X156550000Y-122525000D01*
X156643054Y-122525000D01*
X156731443Y-122514386D01*
X156872095Y-122458920D01*
X156992564Y-122367564D01*
X157083920Y-122247095D01*
X157139386Y-122106443D01*
X157150000Y-122018053D01*
X157150000Y-121700000D01*
X156550000Y-121700000D01*
X156550000Y-122525000D01*
X156150000Y-122525000D01*
X156150000Y-121700000D01*
X155550000Y-121700000D01*
X155550000Y-122018053D01*
X152861978Y-122018053D01*
X152868962Y-121987456D01*
X152905500Y-121663169D01*
X152905500Y-121336831D01*
X152868962Y-121012544D01*
X152861978Y-120981946D01*
X155550000Y-120981946D01*
X155550000Y-121300000D01*
X156150000Y-121300000D01*
X156550000Y-121300000D01*
X157150000Y-121300000D01*
X157150000Y-120981946D01*
X157139386Y-120893556D01*
X157083920Y-120752904D01*
X156992564Y-120632435D01*
X156872095Y-120541079D01*
X156731443Y-120485613D01*
X156643054Y-120475000D01*
X156550000Y-120475000D01*
X156550000Y-121300000D01*
X156150000Y-121300000D01*
X156150000Y-120475000D01*
X156056946Y-120475000D01*
X155968556Y-120485613D01*
X155827904Y-120541079D01*
X155707435Y-120632435D01*
X155616079Y-120752904D01*
X155560613Y-120893556D01*
X155550000Y-120981946D01*
X152861978Y-120981946D01*
X152841803Y-120893556D01*
X152796344Y-120694387D01*
X152796343Y-120694385D01*
X152755393Y-120577354D01*
X152688562Y-120386361D01*
X152546968Y-120092340D01*
X152373346Y-119816021D01*
X152169877Y-119560879D01*
X151939121Y-119330123D01*
X151683979Y-119126654D01*
X151407660Y-118953032D01*
X151407657Y-118953030D01*
X151113640Y-118811438D01*
X150805614Y-118703656D01*
X150805612Y-118703655D01*
X150560073Y-118647612D01*
X150487456Y-118631038D01*
X150487453Y-118631037D01*
X150487441Y-118631035D01*
X150163175Y-118594500D01*
X150163169Y-118594500D01*
X149836831Y-118594500D01*
X149836824Y-118594500D01*
X149512558Y-118631035D01*
X149512544Y-118631038D01*
X149194387Y-118703655D01*
X149194385Y-118703656D01*
X148886359Y-118811438D01*
X148592342Y-118953030D01*
X148316022Y-119126653D01*
X148060879Y-119330122D01*
X147830122Y-119560879D01*
X147626653Y-119816022D01*
X147453030Y-120092342D01*
X147311438Y-120386359D01*
X147203656Y-120694385D01*
X147203655Y-120694387D01*
X147131038Y-121012544D01*
X147131035Y-121012558D01*
X147094500Y-121336824D01*
X138950500Y-121336824D01*
X138950500Y-121061189D01*
X138970185Y-120994150D01*
X138986819Y-120973508D01*
X139498508Y-120461819D01*
X139559831Y-120428334D01*
X139586189Y-120425500D01*
X140504270Y-120425500D01*
X140534699Y-120422646D01*
X140534701Y-120422646D01*
X140598790Y-120400219D01*
X140662882Y-120377793D01*
X140772150Y-120297150D01*
X140852793Y-120187882D01*
X140886224Y-120092342D01*
X140897646Y-120059701D01*
X140897646Y-120059699D01*
X140900500Y-120029269D01*
X140900500Y-119949500D01*
X140920185Y-119882461D01*
X140972989Y-119836706D01*
X141024500Y-119825500D01*
X142642851Y-119825500D01*
X142642853Y-119825500D01*
X142725639Y-119803318D01*
X142799862Y-119760465D01*
X147870267Y-114690058D01*
X149592783Y-114690058D01*
X149621059Y-114708952D01*
X149766648Y-114769256D01*
X149766656Y-114769258D01*
X149921202Y-114799999D01*
X149921206Y-114800000D01*
X150078794Y-114800000D01*
X150078797Y-114799999D01*
X150233343Y-114769258D01*
X150233355Y-114769255D01*
X150378938Y-114708953D01*
X150378943Y-114708950D01*
X150407215Y-114690058D01*
X150407216Y-114690057D01*
X150000001Y-114282842D01*
X150000000Y-114282842D01*
X149592783Y-114690058D01*
X147870267Y-114690058D01*
X149109178Y-113451146D01*
X149170501Y-113417662D01*
X149240193Y-113422646D01*
X149296126Y-113464518D01*
X149320543Y-113529982D01*
X149305691Y-113598255D01*
X149299962Y-113607718D01*
X149291051Y-113621053D01*
X149291047Y-113621060D01*
X149230743Y-113766648D01*
X149230741Y-113766656D01*
X149200000Y-113921202D01*
X149200000Y-114078797D01*
X149230741Y-114233343D01*
X149230743Y-114233351D01*
X149291048Y-114378940D01*
X149309941Y-114407215D01*
X149717158Y-113999999D01*
X150282842Y-113999999D01*
X150282842Y-114000000D01*
X150690057Y-114407216D01*
X150690058Y-114407215D01*
X150708950Y-114378943D01*
X150708953Y-114378938D01*
X150769255Y-114233355D01*
X150769258Y-114233343D01*
X150799999Y-114078797D01*
X150800000Y-114078794D01*
X150800000Y-114068995D01*
X152799499Y-114068995D01*
X152826418Y-114204322D01*
X152826421Y-114204332D01*
X152879221Y-114331804D01*
X152879228Y-114331817D01*
X152955885Y-114446541D01*
X152955888Y-114446545D01*
X153053455Y-114544112D01*
X153053458Y-114544114D01*
X153124179Y-114591368D01*
X153168984Y-114644979D01*
X153177691Y-114714304D01*
X153162675Y-114756470D01*
X153087017Y-114887511D01*
X153087016Y-114887515D01*
X153049500Y-115027525D01*
X153049500Y-115172475D01*
X153053811Y-115188562D01*
X153087017Y-115312488D01*
X153159488Y-115438011D01*
X153159490Y-115438013D01*
X153159491Y-115438015D01*
X153261985Y-115540509D01*
X153261986Y-115540510D01*
X153261988Y-115540511D01*
X153387511Y-115612982D01*
X153387512Y-115612982D01*
X153387515Y-115612984D01*
X153527525Y-115650500D01*
X153527528Y-115650500D01*
X153672472Y-115650500D01*
X153672475Y-115650500D01*
X153812485Y-115612984D01*
X153938015Y-115540509D01*
X154040509Y-115438015D01*
X154112984Y-115312485D01*
X154150500Y-115172475D01*
X154150500Y-115027525D01*
X154112984Y-114887515D01*
X154104803Y-114873346D01*
X154040511Y-114761988D01*
X154040510Y-114761987D01*
X154040509Y-114761985D01*
X153972270Y-114693746D01*
X153938786Y-114632422D01*
X153943771Y-114562731D01*
X153972270Y-114518385D01*
X154044114Y-114446542D01*
X154120775Y-114331811D01*
X154173580Y-114204328D01*
X154196817Y-114087511D01*
X154200500Y-114068995D01*
X154200500Y-113931004D01*
X154173581Y-113795677D01*
X154173580Y-113795676D01*
X154173580Y-113795672D01*
X154153362Y-113746861D01*
X154120778Y-113668195D01*
X154120771Y-113668182D01*
X154047552Y-113558603D01*
X154047551Y-113558602D01*
X154044114Y-113553458D01*
X153946542Y-113455886D01*
X153941397Y-113452448D01*
X153941395Y-113452446D01*
X153831817Y-113379228D01*
X153831804Y-113379221D01*
X153704332Y-113326421D01*
X153704322Y-113326418D01*
X153568995Y-113299500D01*
X153568993Y-113299500D01*
X153431007Y-113299500D01*
X153431005Y-113299500D01*
X153295677Y-113326418D01*
X153295667Y-113326421D01*
X153168195Y-113379221D01*
X153168182Y-113379228D01*
X153053458Y-113455885D01*
X153053454Y-113455888D01*
X152955888Y-113553454D01*
X152955885Y-113553458D01*
X152879228Y-113668182D01*
X152879221Y-113668195D01*
X152826421Y-113795667D01*
X152826418Y-113795677D01*
X152799500Y-113931004D01*
X152799500Y-113931007D01*
X152799500Y-114068993D01*
X152799500Y-114068995D01*
X152799499Y-114068995D01*
X150800000Y-114068995D01*
X150800000Y-113921206D01*
X150799999Y-113921202D01*
X150769258Y-113766656D01*
X150769256Y-113766648D01*
X150708952Y-113621059D01*
X150690058Y-113592783D01*
X150282842Y-113999999D01*
X149717158Y-113999999D01*
X149856201Y-113860957D01*
X149858579Y-113858579D01*
X150407215Y-113309941D01*
X150407215Y-113309940D01*
X150378940Y-113291048D01*
X150233351Y-113230743D01*
X150233343Y-113230741D01*
X150078797Y-113200000D01*
X149921202Y-113200000D01*
X149766656Y-113230741D01*
X149766648Y-113230743D01*
X149621060Y-113291047D01*
X149621049Y-113291053D01*
X149607715Y-113299963D01*
X149541036Y-113320839D01*
X149473657Y-113302352D01*
X149426968Y-113250372D01*
X149415794Y-113181402D01*
X149443682Y-113117339D01*
X149451133Y-113109191D01*
X149989652Y-112570672D01*
X149989657Y-112570669D01*
X149999860Y-112560465D01*
X149999862Y-112560465D01*
X150060465Y-112499862D01*
X150063884Y-112493939D01*
X150102729Y-112426659D01*
X150102729Y-112426657D01*
X150103318Y-112425638D01*
X150104700Y-112420480D01*
X150125501Y-112342853D01*
X150125501Y-112257147D01*
X150125500Y-112257143D01*
X150125500Y-110213525D01*
X150145185Y-110146486D01*
X150195040Y-110102124D01*
X150221483Y-110089198D01*
X150304198Y-110006483D01*
X150355573Y-109901393D01*
X150365500Y-109833260D01*
X150365500Y-108116740D01*
X150365044Y-108113613D01*
X150355849Y-108050500D01*
X150355573Y-108048607D01*
X150304198Y-107943517D01*
X150304196Y-107943515D01*
X150304196Y-107943514D01*
X150221485Y-107860803D01*
X150116391Y-107809426D01*
X150048261Y-107799500D01*
X150048260Y-107799500D01*
X149681740Y-107799500D01*
X149681739Y-107799500D01*
X149613608Y-107809426D01*
X149508514Y-107860803D01*
X149425803Y-107943514D01*
X149374426Y-108048608D01*
X149364500Y-108116739D01*
X149364500Y-109833260D01*
X149374426Y-109901391D01*
X149374427Y-109901393D01*
X149425802Y-110006483D01*
X149425803Y-110006484D01*
X149438179Y-110018860D01*
X149471666Y-110080182D01*
X149474500Y-110106543D01*
X149474500Y-112113811D01*
X149454815Y-112180850D01*
X149438181Y-112201492D01*
X147397629Y-114242043D01*
X147336306Y-114275528D01*
X147266614Y-114270544D01*
X147210681Y-114228672D01*
X147186264Y-114163208D01*
X147188331Y-114130170D01*
X147200500Y-114068995D01*
X147200500Y-113931004D01*
X147173581Y-113795677D01*
X147173580Y-113795676D01*
X147173580Y-113795672D01*
X147153362Y-113746861D01*
X147120778Y-113668195D01*
X147120771Y-113668182D01*
X147044114Y-113553458D01*
X147044111Y-113553454D01*
X146946545Y-113455888D01*
X146946541Y-113455885D01*
X146831817Y-113379228D01*
X146831804Y-113379221D01*
X146704332Y-113326421D01*
X146704322Y-113326418D01*
X146568995Y-113299500D01*
X146568993Y-113299500D01*
X146431007Y-113299500D01*
X146431005Y-113299500D01*
X146295677Y-113326418D01*
X146295667Y-113326421D01*
X146168195Y-113379221D01*
X146168182Y-113379228D01*
X146053458Y-113455885D01*
X146053454Y-113455888D01*
X145955888Y-113553454D01*
X145955885Y-113553458D01*
X145879228Y-113668182D01*
X145879221Y-113668195D01*
X145826421Y-113795667D01*
X145826418Y-113795677D01*
X145799500Y-113931004D01*
X145799500Y-114068997D01*
X145814969Y-114146766D01*
X145808742Y-114216358D01*
X145781033Y-114258638D01*
X145301492Y-114738181D01*
X145240169Y-114771666D01*
X145213811Y-114774500D01*
X143510519Y-114774500D01*
X143443480Y-114754815D01*
X143397725Y-114702011D01*
X143387781Y-114632853D01*
X143416806Y-114569297D01*
X143441627Y-114547399D01*
X143444428Y-114545526D01*
X143446542Y-114544114D01*
X143544114Y-114446542D01*
X143620775Y-114331811D01*
X143673580Y-114204328D01*
X143696817Y-114087511D01*
X143700500Y-114068995D01*
X143700500Y-113931004D01*
X143673581Y-113795677D01*
X143673580Y-113795676D01*
X143673580Y-113795672D01*
X143653362Y-113746861D01*
X143620778Y-113668195D01*
X143620771Y-113668182D01*
X143544114Y-113553458D01*
X143544111Y-113553454D01*
X143446545Y-113455888D01*
X143446541Y-113455885D01*
X143331817Y-113379228D01*
X143331808Y-113379223D01*
X143202047Y-113325475D01*
X143147644Y-113281634D01*
X143125579Y-113215340D01*
X143125500Y-113210914D01*
X143125500Y-112804386D01*
X143145185Y-112737347D01*
X143161819Y-112716705D01*
X143188018Y-112690506D01*
X143240509Y-112638015D01*
X143312984Y-112512485D01*
X143350500Y-112372475D01*
X143350500Y-112227525D01*
X143312984Y-112087515D01*
X143300500Y-112065893D01*
X143240511Y-111961988D01*
X143240510Y-111961987D01*
X143240509Y-111961985D01*
X143161818Y-111883294D01*
X143147113Y-111856363D01*
X143130523Y-111830548D01*
X143129631Y-111824345D01*
X143128334Y-111821970D01*
X143125500Y-111795613D01*
X143125500Y-111695504D01*
X143145185Y-111628465D01*
X143197989Y-111582710D01*
X143267147Y-111572766D01*
X143330703Y-111601791D01*
X143356886Y-111633504D01*
X143359491Y-111638015D01*
X143461985Y-111740509D01*
X143461986Y-111740510D01*
X143461988Y-111740511D01*
X143587511Y-111812982D01*
X143587512Y-111812982D01*
X143587515Y-111812984D01*
X143727525Y-111850500D01*
X143727528Y-111850500D01*
X143872472Y-111850500D01*
X143872475Y-111850500D01*
X144012485Y-111812984D01*
X144138015Y-111740509D01*
X144240509Y-111638015D01*
X144312984Y-111512485D01*
X144350500Y-111372475D01*
X144350500Y-111227525D01*
X144312984Y-111087515D01*
X144296924Y-111059699D01*
X144240511Y-110961988D01*
X144240506Y-110961982D01*
X144236819Y-110958295D01*
X144203334Y-110896972D01*
X144200500Y-110870614D01*
X144200500Y-110627525D01*
X147849500Y-110627525D01*
X147849500Y-110772475D01*
X147884875Y-110904495D01*
X147887017Y-110912488D01*
X147959488Y-111038011D01*
X147959490Y-111038013D01*
X147959491Y-111038015D01*
X148061985Y-111140509D01*
X148061986Y-111140510D01*
X148061988Y-111140511D01*
X148187511Y-111212982D01*
X148187512Y-111212982D01*
X148187515Y-111212984D01*
X148327525Y-111250500D01*
X148327528Y-111250500D01*
X148472472Y-111250500D01*
X148472475Y-111250500D01*
X148612485Y-111212984D01*
X148738015Y-111140509D01*
X148840509Y-111038015D01*
X148912984Y-110912485D01*
X148950500Y-110772475D01*
X148950500Y-110627525D01*
X148912984Y-110487515D01*
X148883318Y-110436133D01*
X148840511Y-110361988D01*
X148840510Y-110361987D01*
X148840509Y-110361985D01*
X148816533Y-110338009D01*
X148783049Y-110276685D01*
X148788035Y-110206993D01*
X148829907Y-110151061D01*
X148849748Y-110138932D01*
X148951483Y-110089198D01*
X149034198Y-110006483D01*
X149085573Y-109901393D01*
X149095500Y-109833260D01*
X149095500Y-108116740D01*
X149095044Y-108113613D01*
X149085849Y-108050500D01*
X149085573Y-108048607D01*
X149034198Y-107943517D01*
X149034196Y-107943515D01*
X149034196Y-107943514D01*
X148951485Y-107860803D01*
X148846391Y-107809426D01*
X148778261Y-107799500D01*
X148778260Y-107799500D01*
X148411740Y-107799500D01*
X148411739Y-107799500D01*
X148343608Y-107809426D01*
X148238514Y-107860803D01*
X148155803Y-107943514D01*
X148104426Y-108048608D01*
X148094500Y-108116739D01*
X148094500Y-109566180D01*
X148090275Y-109598272D01*
X148074500Y-109657145D01*
X148074500Y-110195613D01*
X148054815Y-110262652D01*
X148038182Y-110283294D01*
X147959488Y-110361988D01*
X147887017Y-110487511D01*
X147887016Y-110487515D01*
X147849500Y-110627525D01*
X144200500Y-110627525D01*
X144200500Y-109854196D01*
X145455001Y-109854196D01*
X145457851Y-109884606D01*
X145502653Y-110012645D01*
X145583207Y-110121792D01*
X145692354Y-110202346D01*
X145820397Y-110247149D01*
X145850793Y-110249999D01*
X145854999Y-110249999D01*
X146255000Y-110249999D01*
X146259196Y-110249999D01*
X146289606Y-110247148D01*
X146417645Y-110202346D01*
X146526792Y-110121792D01*
X146607346Y-110012645D01*
X146607347Y-110012643D01*
X146626712Y-109957300D01*
X146667433Y-109900523D01*
X146732385Y-109874775D01*
X146800947Y-109888231D01*
X146851351Y-109936617D01*
X146855155Y-109943793D01*
X146885803Y-110006485D01*
X146968514Y-110089196D01*
X146968515Y-110089196D01*
X146968517Y-110089198D01*
X147073607Y-110140573D01*
X147099626Y-110144364D01*
X147141739Y-110150500D01*
X147141740Y-110150500D01*
X147508261Y-110150500D01*
X147530971Y-110147191D01*
X147576393Y-110140573D01*
X147681483Y-110089198D01*
X147764198Y-110006483D01*
X147815573Y-109901393D01*
X147825500Y-109833260D01*
X147825500Y-108116740D01*
X147825044Y-108113613D01*
X147815849Y-108050500D01*
X147815573Y-108048607D01*
X147764198Y-107943517D01*
X147764196Y-107943515D01*
X147764196Y-107943514D01*
X147681485Y-107860803D01*
X147576391Y-107809426D01*
X147508261Y-107799500D01*
X147508260Y-107799500D01*
X147141740Y-107799500D01*
X147141739Y-107799500D01*
X147073608Y-107809426D01*
X146968514Y-107860803D01*
X146885802Y-107943515D01*
X146855154Y-108006207D01*
X146808026Y-108057789D01*
X146740492Y-108075703D01*
X146673993Y-108054262D01*
X146629644Y-108000272D01*
X146626712Y-107992700D01*
X146607346Y-107937354D01*
X146526792Y-107828207D01*
X146417645Y-107747653D01*
X146289602Y-107702850D01*
X146259207Y-107700000D01*
X146255000Y-107700000D01*
X146255000Y-110249999D01*
X145854999Y-110249999D01*
X145855000Y-110249998D01*
X145855000Y-109175000D01*
X145455001Y-109175000D01*
X145455001Y-109854196D01*
X144200500Y-109854196D01*
X144200500Y-108249500D01*
X144220185Y-108182461D01*
X144272989Y-108136706D01*
X144324500Y-108125500D01*
X144504270Y-108125500D01*
X144534699Y-108122646D01*
X144534701Y-108122646D01*
X144600501Y-108099621D01*
X144611441Y-108095793D01*
X145455000Y-108095793D01*
X145455000Y-108775000D01*
X145855000Y-108775000D01*
X145855000Y-107700000D01*
X145850796Y-107700001D01*
X145850774Y-107700002D01*
X145820399Y-107702850D01*
X145820394Y-107702851D01*
X145692354Y-107747653D01*
X145583207Y-107828207D01*
X145502653Y-107937354D01*
X145457850Y-108065395D01*
X145457850Y-108065399D01*
X145455000Y-108095793D01*
X144611441Y-108095793D01*
X144662882Y-108077793D01*
X144772150Y-107997150D01*
X144852793Y-107887882D01*
X144876947Y-107818853D01*
X144897646Y-107759701D01*
X144897646Y-107759699D01*
X144900500Y-107729269D01*
X144900500Y-107417255D01*
X144920185Y-107350216D01*
X144936819Y-107329574D01*
X145529574Y-106736819D01*
X145590897Y-106703334D01*
X145617255Y-106700500D01*
X148652725Y-106700500D01*
X148652727Y-106700500D01*
X148754588Y-106673207D01*
X148845913Y-106620480D01*
X150120480Y-105345913D01*
X150173207Y-105254588D01*
X150189172Y-105195001D01*
X150192867Y-105187511D01*
X150193299Y-105182357D01*
X150202001Y-105168994D01*
X150210588Y-105151587D01*
X150219267Y-105140280D01*
X150221483Y-105139198D01*
X150304198Y-105056483D01*
X150340311Y-104982610D01*
X150347887Y-104972743D01*
X150366461Y-104959187D01*
X150381971Y-104942211D01*
X150394149Y-104938980D01*
X150404325Y-104931554D01*
X150427278Y-104930192D01*
X150449505Y-104924296D01*
X150461496Y-104928162D01*
X150474072Y-104927416D01*
X150494118Y-104938679D01*
X150516004Y-104945736D01*
X150524000Y-104955470D01*
X150534984Y-104961642D01*
X150545758Y-104981956D01*
X150560355Y-104999725D01*
X150563286Y-105007298D01*
X150582651Y-105062641D01*
X150582653Y-105062645D01*
X150663207Y-105171792D01*
X150772354Y-105252346D01*
X150900397Y-105297149D01*
X150930793Y-105299999D01*
X150934999Y-105299999D01*
X150935000Y-105299998D01*
X150935000Y-102750000D01*
X150930796Y-102750001D01*
X150930774Y-102750002D01*
X150900399Y-102752850D01*
X150900394Y-102752851D01*
X150772354Y-102797653D01*
X150663207Y-102878207D01*
X150582653Y-102987354D01*
X150582651Y-102987359D01*
X150563286Y-103042701D01*
X150522564Y-103099477D01*
X150457611Y-103125224D01*
X150389050Y-103111767D01*
X150338647Y-103063380D01*
X150334845Y-103056207D01*
X150304198Y-102993517D01*
X150304196Y-102993515D01*
X150304196Y-102993514D01*
X150221485Y-102910803D01*
X150116391Y-102859426D01*
X150048261Y-102849500D01*
X150048260Y-102849500D01*
X149681740Y-102849500D01*
X149681739Y-102849500D01*
X149613608Y-102859426D01*
X149508514Y-102910803D01*
X149425803Y-102993514D01*
X149374426Y-103098608D01*
X149364500Y-103166739D01*
X149364500Y-104883261D01*
X149366447Y-104896629D01*
X149365789Y-104901266D01*
X149367426Y-104905655D01*
X149360927Y-104935529D01*
X149356631Y-104965806D01*
X149353292Y-104970622D01*
X149352574Y-104973928D01*
X149331423Y-105002182D01*
X149299250Y-105034355D01*
X149237927Y-105067840D01*
X149168235Y-105062856D01*
X149112302Y-105020984D01*
X149087885Y-104955520D01*
X149088864Y-104928799D01*
X149095500Y-104883260D01*
X149095500Y-103166740D01*
X149085573Y-103098607D01*
X149034198Y-102993517D01*
X149034196Y-102993515D01*
X149034196Y-102993514D01*
X148951485Y-102910803D01*
X148846391Y-102859426D01*
X148778261Y-102849500D01*
X148778260Y-102849500D01*
X148411740Y-102849500D01*
X148411739Y-102849500D01*
X148343608Y-102859426D01*
X148238514Y-102910803D01*
X148155803Y-102993514D01*
X148104426Y-103098608D01*
X148094500Y-103166739D01*
X148094500Y-104766180D01*
X148092885Y-104786125D01*
X148091883Y-104792269D01*
X148074500Y-104857147D01*
X148074500Y-104898939D01*
X148074500Y-104913811D01*
X148069053Y-104932358D01*
X148068036Y-104938604D01*
X148065930Y-104942993D01*
X148054815Y-104980850D01*
X148038172Y-105001501D01*
X148033323Y-105006349D01*
X148005411Y-105021586D01*
X147978349Y-105038270D01*
X147974967Y-105038206D01*
X147971997Y-105039828D01*
X147940279Y-105037556D01*
X147908492Y-105036960D01*
X147905680Y-105035077D01*
X147902305Y-105034836D01*
X147876854Y-105015779D01*
X147850432Y-104998091D01*
X147849084Y-104994986D01*
X147846376Y-104992959D01*
X147835268Y-104963168D01*
X147822604Y-104934002D01*
X147822689Y-104929432D01*
X147821966Y-104927492D01*
X147822947Y-104900779D01*
X147823216Y-104898939D01*
X147825500Y-104883260D01*
X147825500Y-103166740D01*
X147815573Y-103098607D01*
X147764198Y-102993517D01*
X147764196Y-102993515D01*
X147764196Y-102993514D01*
X147681484Y-102910802D01*
X147626770Y-102884054D01*
X147575188Y-102836926D01*
X147557274Y-102769392D01*
X147578715Y-102702894D01*
X147593546Y-102684977D01*
X147640509Y-102638015D01*
X147712984Y-102512485D01*
X147750500Y-102372475D01*
X147750500Y-102227525D01*
X147712984Y-102087515D01*
X147664989Y-102004386D01*
X147640511Y-101961988D01*
X147640506Y-101961982D01*
X147538017Y-101859493D01*
X147538011Y-101859488D01*
X147412488Y-101787017D01*
X147412489Y-101787017D01*
X147401006Y-101783940D01*
X147272475Y-101749500D01*
X147127525Y-101749500D01*
X146998993Y-101783940D01*
X146987511Y-101787017D01*
X146861988Y-101859488D01*
X146861982Y-101859493D01*
X146759493Y-101961982D01*
X146759488Y-101961988D01*
X146687017Y-102087511D01*
X146687016Y-102087515D01*
X146649500Y-102227525D01*
X146649500Y-102372475D01*
X146658602Y-102406443D01*
X146687017Y-102512488D01*
X146759488Y-102638011D01*
X146759493Y-102638017D01*
X146838181Y-102716705D01*
X146852884Y-102743632D01*
X146869477Y-102769451D01*
X146870368Y-102775651D01*
X146871666Y-102778028D01*
X146874500Y-102804386D01*
X146874500Y-102987947D01*
X146861901Y-103042406D01*
X146834428Y-103098604D01*
X146834425Y-103098611D01*
X146824500Y-103166739D01*
X146824500Y-104883260D01*
X146834426Y-104951392D01*
X146856253Y-104996039D01*
X146856538Y-104997709D01*
X146857647Y-104998989D01*
X146862394Y-105032008D01*
X146868013Y-105064912D01*
X146867350Y-105066471D01*
X146867591Y-105068147D01*
X146853733Y-105098490D01*
X146840670Y-105129210D01*
X146839269Y-105130163D01*
X146838566Y-105131703D01*
X146810495Y-105149742D01*
X146782905Y-105168517D01*
X146780756Y-105168854D01*
X146779788Y-105169477D01*
X146744853Y-105174500D01*
X146635147Y-105174500D01*
X146568108Y-105154815D01*
X146522353Y-105102011D01*
X146512409Y-105032853D01*
X146523747Y-104996039D01*
X146534556Y-104973928D01*
X146545573Y-104951393D01*
X146555500Y-104883260D01*
X146555500Y-103166740D01*
X146545573Y-103098607D01*
X146494198Y-102993517D01*
X146494196Y-102993515D01*
X146494196Y-102993514D01*
X146411485Y-102910803D01*
X146306391Y-102859426D01*
X146238261Y-102849500D01*
X146238260Y-102849500D01*
X145871740Y-102849500D01*
X145871739Y-102849500D01*
X145803608Y-102859426D01*
X145698514Y-102910803D01*
X145615803Y-102993514D01*
X145564426Y-103098608D01*
X145554500Y-103166739D01*
X145554500Y-104050500D01*
X145534815Y-104117539D01*
X145482011Y-104163294D01*
X145430500Y-104174500D01*
X143050465Y-104174500D01*
X143050449Y-104174499D01*
X143042853Y-104174499D01*
X142957147Y-104174499D01*
X142901956Y-104189287D01*
X142874360Y-104196682D01*
X142855805Y-104207395D01*
X142837250Y-104218108D01*
X142801589Y-104238697D01*
X142800138Y-104239535D01*
X142746604Y-104293069D01*
X142746603Y-104293068D01*
X142746601Y-104293071D01*
X142539537Y-104500135D01*
X142539533Y-104500141D01*
X142496681Y-104574361D01*
X142496682Y-104574362D01*
X142474500Y-104657147D01*
X142474500Y-111795613D01*
X142466486Y-111822904D01*
X142461486Y-111850914D01*
X142456039Y-111858481D01*
X142454815Y-111862652D01*
X142441410Y-111879942D01*
X142439821Y-111881654D01*
X142359491Y-111961985D01*
X142349905Y-111978587D01*
X142340410Y-111988824D01*
X142321905Y-111999849D01*
X142306319Y-112014711D01*
X142292489Y-112017376D01*
X142280387Y-112024587D01*
X142258858Y-112023857D01*
X142237712Y-112027933D01*
X142224635Y-112022698D01*
X142210557Y-112022221D01*
X142192843Y-112009970D01*
X142172847Y-112001965D01*
X142164675Y-111990488D01*
X142153092Y-111982478D01*
X142144814Y-111962597D01*
X142132319Y-111945050D01*
X142128804Y-111924146D01*
X142126235Y-111917976D01*
X142127023Y-111913557D01*
X142125500Y-111904495D01*
X142125500Y-102804386D01*
X142145185Y-102737347D01*
X142161819Y-102716705D01*
X142200732Y-102677792D01*
X142240509Y-102638015D01*
X142312984Y-102512485D01*
X142350500Y-102372475D01*
X142350500Y-102227525D01*
X142312984Y-102087515D01*
X142264989Y-102004386D01*
X142240511Y-101961988D01*
X142240506Y-101961982D01*
X142138017Y-101859493D01*
X142138011Y-101859488D01*
X142012488Y-101787017D01*
X142012489Y-101787017D01*
X142001006Y-101783940D01*
X141872475Y-101749500D01*
X141727525Y-101749500D01*
X141598993Y-101783940D01*
X141587511Y-101787017D01*
X141461988Y-101859488D01*
X141461982Y-101859493D01*
X141359493Y-101961982D01*
X141359488Y-101961988D01*
X141287017Y-102087511D01*
X141287016Y-102087515D01*
X141249500Y-102227525D01*
X141249500Y-102372475D01*
X141258602Y-102406443D01*
X141287017Y-102512488D01*
X141359488Y-102638011D01*
X141359493Y-102638017D01*
X141438181Y-102716705D01*
X141471666Y-102778028D01*
X141474500Y-102804386D01*
X141474500Y-114457147D01*
X141474500Y-114542853D01*
X141475718Y-114547399D01*
X141496682Y-114625640D01*
X141514404Y-114656334D01*
X141539535Y-114699862D01*
X142200138Y-115360465D01*
X142264414Y-115397575D01*
X142272689Y-115402353D01*
X142274361Y-115403318D01*
X142357147Y-115425500D01*
X142357149Y-115425500D01*
X145442851Y-115425500D01*
X145442853Y-115425500D01*
X145525639Y-115403318D01*
X145599862Y-115360465D01*
X146241362Y-114718963D01*
X146302683Y-114685480D01*
X146353229Y-114685029D01*
X146416621Y-114697638D01*
X146431006Y-114700500D01*
X146431007Y-114700500D01*
X146568994Y-114700500D01*
X146630170Y-114688331D01*
X146699761Y-114694558D01*
X146754939Y-114737420D01*
X146778184Y-114803310D01*
X146762117Y-114871307D01*
X146742043Y-114897629D01*
X142501492Y-119138181D01*
X142440169Y-119171666D01*
X142413811Y-119174500D01*
X140869177Y-119174500D01*
X140802138Y-119154815D01*
X140779524Y-119133617D01*
X140778721Y-119134421D01*
X140772151Y-119127851D01*
X140662882Y-119047207D01*
X140662880Y-119047206D01*
X140534700Y-119002353D01*
X140504270Y-118999500D01*
X140504266Y-118999500D01*
X139495734Y-118999500D01*
X139495730Y-118999500D01*
X139465300Y-119002353D01*
X139465298Y-119002353D01*
X139337119Y-119047206D01*
X139337117Y-119047207D01*
X139227850Y-119127850D01*
X139147207Y-119237117D01*
X139147206Y-119237119D01*
X139102353Y-119365298D01*
X139102353Y-119365300D01*
X139099500Y-119395730D01*
X139099500Y-119888811D01*
X139079815Y-119955850D01*
X139063181Y-119976492D01*
X138501492Y-120538181D01*
X138440169Y-120571666D01*
X138413811Y-120574500D01*
X137945730Y-120574500D01*
X137915300Y-120577353D01*
X137915298Y-120577353D01*
X137787119Y-120622206D01*
X137787117Y-120622207D01*
X137677850Y-120702850D01*
X137597207Y-120812117D01*
X137597206Y-120812119D01*
X137552353Y-120940298D01*
X137552353Y-120940300D01*
X137549500Y-120970730D01*
X137148653Y-120970730D01*
X137139386Y-120893556D01*
X137083920Y-120752904D01*
X136992564Y-120632435D01*
X136872095Y-120541079D01*
X136731443Y-120485613D01*
X136643054Y-120475000D01*
X136550000Y-120475000D01*
X136550000Y-121300000D01*
X136150000Y-121300000D01*
X136150000Y-120475000D01*
X136056946Y-120475000D01*
X135968556Y-120485613D01*
X135827904Y-120541079D01*
X135707435Y-120632435D01*
X135616079Y-120752904D01*
X135560613Y-120893556D01*
X135550000Y-120981946D01*
X132861978Y-120981946D01*
X132841803Y-120893556D01*
X132796344Y-120694387D01*
X132796343Y-120694385D01*
X132755393Y-120577354D01*
X132688562Y-120386361D01*
X132546968Y-120092340D01*
X132373346Y-119816021D01*
X132169877Y-119560879D01*
X131939121Y-119330123D01*
X131683979Y-119126654D01*
X131407660Y-118953032D01*
X131407657Y-118953030D01*
X131113640Y-118811438D01*
X130805614Y-118703656D01*
X130805612Y-118703655D01*
X130560073Y-118647612D01*
X130487456Y-118631038D01*
X130487453Y-118631037D01*
X130487441Y-118631035D01*
X130163175Y-118594500D01*
X130163169Y-118594500D01*
X129836831Y-118594500D01*
X129836824Y-118594500D01*
X129512558Y-118631035D01*
X129512544Y-118631038D01*
X129194387Y-118703655D01*
X129194385Y-118703656D01*
X128886359Y-118811438D01*
X128592342Y-118953030D01*
X128316022Y-119126653D01*
X128060879Y-119330122D01*
X127830122Y-119560879D01*
X127626653Y-119816022D01*
X127453030Y-120092342D01*
X127311438Y-120386359D01*
X127203656Y-120694385D01*
X127203655Y-120694387D01*
X127131038Y-121012544D01*
X127131035Y-121012558D01*
X127094500Y-121336824D01*
X118950500Y-121336824D01*
X118950500Y-121061189D01*
X118970185Y-120994150D01*
X118986819Y-120973508D01*
X119498508Y-120461819D01*
X119559831Y-120428334D01*
X119586189Y-120425500D01*
X120504270Y-120425500D01*
X120534699Y-120422646D01*
X120534701Y-120422646D01*
X120598790Y-120400219D01*
X120662882Y-120377793D01*
X120772150Y-120297150D01*
X120852793Y-120187882D01*
X120886224Y-120092342D01*
X120897646Y-120059701D01*
X120897646Y-120059699D01*
X120900500Y-120029269D01*
X120900500Y-119711187D01*
X120920185Y-119644148D01*
X120936814Y-119623511D01*
X125673506Y-114886818D01*
X125734829Y-114853334D01*
X125761187Y-114850500D01*
X125872472Y-114850500D01*
X125872475Y-114850500D01*
X126012485Y-114812984D01*
X126138015Y-114740509D01*
X126240509Y-114638015D01*
X126312984Y-114512485D01*
X126350500Y-114372475D01*
X126350500Y-114227525D01*
X126312984Y-114087515D01*
X126311434Y-114084831D01*
X126240511Y-113961988D01*
X126240506Y-113961982D01*
X126138017Y-113859493D01*
X126138011Y-113859488D01*
X126012488Y-113787017D01*
X126012489Y-113787017D01*
X125991026Y-113781266D01*
X125872475Y-113749500D01*
X125727525Y-113749500D01*
X125608974Y-113781266D01*
X125587511Y-113787017D01*
X125461988Y-113859488D01*
X125461982Y-113859493D01*
X125359493Y-113961982D01*
X125359488Y-113961988D01*
X125287017Y-114087511D01*
X125287016Y-114087515D01*
X125249500Y-114227525D01*
X125249500Y-114227527D01*
X125249500Y-114338810D01*
X125229815Y-114405849D01*
X125213181Y-114426491D01*
X120665812Y-118973859D01*
X120604489Y-119007344D01*
X120542168Y-119003528D01*
X120542073Y-119003964D01*
X120539262Y-119003350D01*
X120537185Y-119003223D01*
X120534699Y-119002353D01*
X120504270Y-118999500D01*
X120504266Y-118999500D01*
X119495734Y-118999500D01*
X119495730Y-118999500D01*
X119465300Y-119002353D01*
X119465298Y-119002353D01*
X119337119Y-119047206D01*
X119337117Y-119047207D01*
X119227850Y-119127850D01*
X119147207Y-119237117D01*
X119147206Y-119237119D01*
X119102353Y-119365298D01*
X119102353Y-119365300D01*
X119099500Y-119395730D01*
X119099500Y-119888811D01*
X119079815Y-119955850D01*
X119063181Y-119976492D01*
X118501492Y-120538181D01*
X118440169Y-120571666D01*
X118413811Y-120574500D01*
X117945730Y-120574500D01*
X117915300Y-120577353D01*
X117915298Y-120577353D01*
X117787119Y-120622206D01*
X117787117Y-120622207D01*
X117677850Y-120702850D01*
X117597207Y-120812117D01*
X117597206Y-120812119D01*
X117552353Y-120940298D01*
X117552353Y-120940300D01*
X117549500Y-120970730D01*
X117148653Y-120970730D01*
X117139386Y-120893556D01*
X117083920Y-120752904D01*
X116992564Y-120632435D01*
X116872095Y-120541079D01*
X116731443Y-120485613D01*
X116643054Y-120475000D01*
X116550000Y-120475000D01*
X116550000Y-121300000D01*
X116150000Y-121300000D01*
X116150000Y-120475000D01*
X116056946Y-120475000D01*
X115968556Y-120485613D01*
X115827904Y-120541079D01*
X115707435Y-120632435D01*
X115616079Y-120752904D01*
X115560613Y-120893556D01*
X115550000Y-120981946D01*
X112861978Y-120981946D01*
X112841803Y-120893556D01*
X112796344Y-120694387D01*
X112796343Y-120694385D01*
X112755393Y-120577354D01*
X112688562Y-120386361D01*
X112546968Y-120092340D01*
X112373346Y-119816021D01*
X112169877Y-119560879D01*
X111939121Y-119330123D01*
X111683979Y-119126654D01*
X111407660Y-118953032D01*
X111407657Y-118953030D01*
X111113640Y-118811438D01*
X110805614Y-118703656D01*
X110805612Y-118703655D01*
X110560073Y-118647612D01*
X110487456Y-118631038D01*
X110487453Y-118631037D01*
X110487441Y-118631035D01*
X110163175Y-118594500D01*
X110163169Y-118594500D01*
X109836831Y-118594500D01*
X109836824Y-118594500D01*
X109512558Y-118631035D01*
X109512544Y-118631038D01*
X109194387Y-118703655D01*
X109194385Y-118703656D01*
X108886359Y-118811438D01*
X108592342Y-118953030D01*
X108316022Y-119126653D01*
X108060879Y-119330122D01*
X107830122Y-119560879D01*
X107626653Y-119816022D01*
X107453030Y-120092342D01*
X107311438Y-120386359D01*
X107203656Y-120694385D01*
X107203655Y-120694387D01*
X107131038Y-121012544D01*
X107131035Y-121012558D01*
X107094500Y-121336824D01*
X97300500Y-121336824D01*
X97300500Y-107343053D01*
X125975000Y-107343053D01*
X125985613Y-107431443D01*
X126041079Y-107572095D01*
X126132435Y-107692564D01*
X126252904Y-107783920D01*
X126393556Y-107839386D01*
X126481946Y-107850000D01*
X126800000Y-107850000D01*
X127200000Y-107850000D01*
X127518054Y-107850000D01*
X127606443Y-107839386D01*
X127747095Y-107783920D01*
X127867564Y-107692564D01*
X127958920Y-107572095D01*
X128014386Y-107431443D01*
X128025000Y-107343053D01*
X128025000Y-107250000D01*
X127200000Y-107250000D01*
X127200000Y-107850000D01*
X126800000Y-107850000D01*
X126800000Y-107250000D01*
X125975000Y-107250000D01*
X125975000Y-107343053D01*
X97300500Y-107343053D01*
X97300500Y-106756946D01*
X125975000Y-106756946D01*
X125975000Y-106850000D01*
X126800000Y-106850000D01*
X127200000Y-106850000D01*
X128025000Y-106850000D01*
X128025000Y-106756946D01*
X128014386Y-106668556D01*
X127958920Y-106527904D01*
X127867564Y-106407435D01*
X127747095Y-106316079D01*
X127606443Y-106260613D01*
X127518054Y-106250000D01*
X127200000Y-106250000D01*
X127200000Y-106850000D01*
X126800000Y-106850000D01*
X126800000Y-106250000D01*
X126481946Y-106250000D01*
X126393556Y-106260613D01*
X126252904Y-106316079D01*
X126132435Y-106407435D01*
X126041079Y-106527904D01*
X125985613Y-106668556D01*
X125975000Y-106756946D01*
X97300500Y-106756946D01*
X97300500Y-103899999D01*
X97690000Y-103899999D01*
X97742070Y-104428692D01*
X97896287Y-104937076D01*
X98146713Y-105405589D01*
X98146717Y-105405596D01*
X98483739Y-105816259D01*
X98894402Y-106153281D01*
X98894409Y-106153285D01*
X99362922Y-106403711D01*
X99362924Y-106403711D01*
X99362927Y-106403713D01*
X99871305Y-106557928D01*
X99871304Y-106557928D01*
X99923376Y-106563056D01*
X100400000Y-106610000D01*
X100928694Y-106557928D01*
X101437072Y-106403713D01*
X101608790Y-106311928D01*
X101719425Y-106252792D01*
X101905595Y-106153282D01*
X102316259Y-105816259D01*
X102653282Y-105405595D01*
X102848789Y-105039828D01*
X102903711Y-104937076D01*
X102903711Y-104937075D01*
X102903713Y-104937072D01*
X103057928Y-104428694D01*
X103110000Y-103900000D01*
X103057928Y-103371305D01*
X102903713Y-102862927D01*
X102903711Y-102862924D01*
X102903711Y-102862922D01*
X102653285Y-102394409D01*
X102653281Y-102394402D01*
X102316259Y-101983739D01*
X101905596Y-101646717D01*
X101905589Y-101646713D01*
X101437076Y-101396287D01*
X100928692Y-101242070D01*
X100400000Y-101190000D01*
X99871306Y-101242070D01*
X99362922Y-101396287D01*
X98894409Y-101646713D01*
X98894402Y-101646717D01*
X98483739Y-101983739D01*
X98146717Y-102394402D01*
X98146713Y-102394409D01*
X97896287Y-102862922D01*
X97742070Y-103371306D01*
X97690000Y-103899999D01*
X97300500Y-103899999D01*
X97300500Y-101516660D01*
X97300882Y-101506939D01*
X97307127Y-101427525D01*
X97309247Y-101400562D01*
X97312300Y-101381300D01*
X97333396Y-101293583D01*
X97339374Y-101275183D01*
X97373866Y-101191829D01*
X97382709Y-101174469D01*
X97429760Y-101097695D01*
X97441181Y-101081975D01*
X97499722Y-101013440D01*
X97513440Y-100999722D01*
X97581975Y-100941181D01*
X97597695Y-100929760D01*
X97674469Y-100882709D01*
X97691829Y-100873866D01*
X97775183Y-100839374D01*
X97793583Y-100833396D01*
X97881300Y-100812300D01*
X97900562Y-100809247D01*
X97982366Y-100802814D01*
X98006940Y-100800882D01*
X98016661Y-100800500D01*
X129647796Y-100800500D01*
X129714835Y-100820185D01*
G37*
%TD.AperFunction*%
%TA.AperFunction,Conductor*%
G36*
X132083852Y-108755095D02*
G01*
X132129930Y-108834905D01*
X132195095Y-108900070D01*
X132274905Y-108946148D01*
X132347296Y-108965545D01*
X132057842Y-109255000D01*
X132347296Y-109544454D01*
X132274905Y-109563852D01*
X132195095Y-109609930D01*
X132129930Y-109675095D01*
X132083852Y-109754905D01*
X132064454Y-109827296D01*
X131818442Y-109581284D01*
X131795292Y-109546637D01*
X131794660Y-109546976D01*
X131791790Y-109541607D01*
X131711300Y-109421146D01*
X131711297Y-109421142D01*
X131632836Y-109342681D01*
X131628497Y-109334735D01*
X131621250Y-109329310D01*
X131612015Y-109304550D01*
X131599351Y-109281358D01*
X131599996Y-109272328D01*
X131596833Y-109263846D01*
X131602449Y-109238025D01*
X131604335Y-109211666D01*
X131610153Y-109202612D01*
X131611685Y-109195573D01*
X131632836Y-109167319D01*
X131684198Y-109115957D01*
X131711297Y-109088857D01*
X131711300Y-109088854D01*
X131791792Y-108968390D01*
X131791795Y-108968381D01*
X131794665Y-108963015D01*
X131795300Y-108963354D01*
X131818443Y-108928712D01*
X132064454Y-108682701D01*
X132083852Y-108755095D01*
G37*
%TD.AperFunction*%
%TA.AperFunction,Conductor*%
G36*
X132083852Y-107485095D02*
G01*
X132129930Y-107564905D01*
X132195095Y-107630070D01*
X132274905Y-107676148D01*
X132347296Y-107695545D01*
X132057842Y-107985000D01*
X132347296Y-108274454D01*
X132274905Y-108293852D01*
X132195095Y-108339930D01*
X132129930Y-108405095D01*
X132083852Y-108484905D01*
X132064454Y-108557296D01*
X131818442Y-108311284D01*
X131795292Y-108276637D01*
X131794660Y-108276976D01*
X131791790Y-108271607D01*
X131711300Y-108151146D01*
X131711297Y-108151142D01*
X131632836Y-108072681D01*
X131628497Y-108064735D01*
X131621250Y-108059310D01*
X131612015Y-108034550D01*
X131599351Y-108011358D01*
X131599996Y-108002328D01*
X131596833Y-107993846D01*
X131602449Y-107968025D01*
X131604335Y-107941666D01*
X131610153Y-107932612D01*
X131611685Y-107925573D01*
X131632836Y-107897319D01*
X131684198Y-107845957D01*
X131711297Y-107818857D01*
X131711300Y-107818854D01*
X131791792Y-107698390D01*
X131791795Y-107698381D01*
X131794665Y-107693015D01*
X131795300Y-107693354D01*
X131818443Y-107658712D01*
X132064454Y-107412701D01*
X132083852Y-107485095D01*
G37*
%TD.AperFunction*%
%TA.AperFunction,Conductor*%
G36*
X132083852Y-106215095D02*
G01*
X132129930Y-106294905D01*
X132195095Y-106360070D01*
X132274905Y-106406148D01*
X132347296Y-106425545D01*
X132057842Y-106715000D01*
X132347296Y-107004454D01*
X132274905Y-107023852D01*
X132195095Y-107069930D01*
X132129930Y-107135095D01*
X132083852Y-107214905D01*
X132064454Y-107287296D01*
X131818442Y-107041284D01*
X131795292Y-107006637D01*
X131794660Y-107006976D01*
X131791790Y-107001607D01*
X131711300Y-106881146D01*
X131711297Y-106881142D01*
X131632836Y-106802681D01*
X131628497Y-106794735D01*
X131621250Y-106789310D01*
X131612015Y-106764550D01*
X131599351Y-106741358D01*
X131599996Y-106732328D01*
X131596833Y-106723846D01*
X131602449Y-106698025D01*
X131604335Y-106671666D01*
X131610153Y-106662612D01*
X131611685Y-106655573D01*
X131632836Y-106627319D01*
X131684198Y-106575957D01*
X131711297Y-106548857D01*
X131711300Y-106548854D01*
X131791792Y-106428390D01*
X131791795Y-106428381D01*
X131794665Y-106423015D01*
X131795300Y-106423354D01*
X131818443Y-106388712D01*
X132064454Y-106142701D01*
X132083852Y-106215095D01*
G37*
%TD.AperFunction*%
%TA.AperFunction,Conductor*%
G36*
X132083852Y-104945095D02*
G01*
X132129930Y-105024905D01*
X132195095Y-105090070D01*
X132274905Y-105136148D01*
X132347296Y-105155545D01*
X132057842Y-105445000D01*
X132347296Y-105734454D01*
X132274905Y-105753852D01*
X132195095Y-105799930D01*
X132129930Y-105865095D01*
X132083852Y-105944905D01*
X132064454Y-106017296D01*
X131818442Y-105771284D01*
X131795292Y-105736637D01*
X131794660Y-105736976D01*
X131791790Y-105731607D01*
X131711300Y-105611146D01*
X131711297Y-105611142D01*
X131632836Y-105532681D01*
X131628497Y-105524735D01*
X131621250Y-105519310D01*
X131612015Y-105494550D01*
X131599351Y-105471358D01*
X131599996Y-105462328D01*
X131596833Y-105453846D01*
X131602449Y-105428025D01*
X131604335Y-105401666D01*
X131610153Y-105392612D01*
X131611685Y-105385573D01*
X131632836Y-105357319D01*
X131684198Y-105305957D01*
X131711297Y-105278857D01*
X131711300Y-105278854D01*
X131791792Y-105158390D01*
X131791795Y-105158381D01*
X131794665Y-105153015D01*
X131795300Y-105153354D01*
X131818443Y-105118712D01*
X132064454Y-104872701D01*
X132083852Y-104945095D01*
G37*
%TD.AperFunction*%
%TD*%
M02*
