%TF.GenerationSoftware,KiCad,Pcbnew,9.0.9-9.0.9~ubuntu24.04.1*%
%TF.CreationDate,2026-10-01T16:36:55+00:00*%
%TF.ProjectId,key-board-lh,6b65792d-626f-4617-9264-2d6c682e6b69,A*%
%TF.SameCoordinates,Original*%
%TF.FileFunction,Copper,L1,Top*%
%TF.FilePolarity,Positive*%
%FSLAX46Y46*%
G04 Gerber Fmt 4.6, Leading zero omitted, Abs format (unit mm)*
G04 Created by KiCad (PCBNEW 9.0.9-9.0.9~ubuntu24.04.1) date 2026-10-01 16:36:55*
%MOMM*%
%LPD*%
G01*
G04 APERTURE LIST*
%TA.AperFunction,ComponentPad*%
%ADD10C,2.800000*%
%TD*%
%TA.AperFunction,ComponentPad*%
%ADD11R,1.500000X1.070000*%
%TD*%
%TA.AperFunction,ComponentPad*%
%ADD12O,1.500000X1.070000*%
%TD*%
%TA.AperFunction,ViaPad*%
%ADD13C,0.700000*%
%TD*%
%TA.AperFunction,Conductor*%
%ADD14C,0.250000*%
%TD*%
%TA.AperFunction,Conductor*%
%ADD15C,0.400000*%
%TD*%
G04 APERTURE END LIST*
D10*
%TO.P,SW5,1*%
%TO.N,/LH5/SWITCH_LEG*%
X163600000Y-117200000D03*
%TO.P,SW5,2*%
%TO.N,GND_CHAIN*%
X170600000Y-118250000D03*
%TD*%
%TO.P,SW2,1*%
%TO.N,/LH2/SWITCH_LEG*%
X125600000Y-126200000D03*
%TO.P,SW2,2*%
%TO.N,GND_CHAIN*%
X132600000Y-127250000D03*
%TD*%
%TO.P,SW3,1*%
%TO.N,/LH3/SWITCH_LEG*%
X145600000Y-126200000D03*
%TO.P,SW3,2*%
%TO.N,GND_CHAIN*%
X152600000Y-127250000D03*
%TD*%
%TO.P,SW1,1*%
%TO.N,/LH1/SWITCH_LEG*%
X105600000Y-126200000D03*
%TO.P,SW1,2*%
%TO.N,GND_CHAIN*%
X112600000Y-127250000D03*
%TD*%
%TO.P,SW4,1*%
%TO.N,/LH4/SWITCH_LEG*%
X163600000Y-135200000D03*
%TO.P,SW4,2*%
%TO.N,GND_CHAIN*%
X170600000Y-136250000D03*
%TD*%
D11*
%TO.P,J1,1*%
%TO.N,unconnected-(J1-Pin_1-Pad1)*%
X130925000Y-111160000D03*
D12*
%TO.P,J1,2*%
%TO.N,unconnected-(J1-Pin_2-Pad2)*%
X132625000Y-111160000D03*
%TO.P,J1,3*%
%TO.N,V3V3_CHAIN_LH*%
X130925000Y-109890000D03*
%TO.P,J1,4*%
%TO.N,GND_CHAIN*%
X132625000Y-109890000D03*
%TO.P,J1,5*%
%TO.N,/HOP_LH_LT*%
X130925000Y-108620000D03*
%TO.P,J1,6*%
%TO.N,GND_CHAIN*%
X132625000Y-108620000D03*
%TO.P,J1,7*%
%TO.N,/CHAIN_SER_LH*%
X130925000Y-107350000D03*
%TO.P,J1,8*%
%TO.N,GND_CHAIN*%
X132625000Y-107350000D03*
%TO.P,J1,9*%
%TO.N,/CHAIN_SHLD*%
X130925000Y-106080000D03*
%TO.P,J1,10*%
%TO.N,GND_CHAIN*%
X132625000Y-106080000D03*
%TO.P,J1,11*%
%TO.N,/CHAIN_SCK*%
X130925000Y-104810000D03*
%TO.P,J1,12*%
%TO.N,GND_CHAIN*%
X132625000Y-104810000D03*
%TD*%
D13*
%TO.N,/CHAIN_SCK*%
X154000000Y-110500000D03*
%TO.N,/CHAIN_SHLD*%
X155200000Y-110500000D03*
%TO.N,/HOP_LH_LT*%
X145600000Y-103500000D03*
%TO.N,/KEY_LH1*%
X122600000Y-116900000D03*
X149000000Y-116900000D03*
%TO.N,/KEY_LH3*%
X157400000Y-114700000D03*
X151800000Y-114700000D03*
%TO.N,/KEY_LH4*%
X175400000Y-120100000D03*
X153200000Y-120100000D03*
%TO.N,/KEY_LH5*%
X153000000Y-107300000D03*
X170800000Y-107300000D03*
%TO.N,/LH1/SWITCH_LEG*%
X118000000Y-125300000D03*
%TO.N,/LH2/SWITCH_LEG*%
X138000000Y-125300000D03*
%TO.N,/LH3/SWITCH_LEG*%
X158000000Y-125300000D03*
%TO.N,/LH4/SWITCH_LEG*%
X176000000Y-134300000D03*
%TO.N,/LH5/SWITCH_LEG*%
X176000000Y-116300000D03*
%TO.N,GND_CHAIN*%
X136000000Y-117900000D03*
X114400000Y-119300000D03*
X152000000Y-102500000D03*
X155400000Y-117900000D03*
X126000000Y-107100000D03*
X136000000Y-113300000D03*
X146800000Y-117900000D03*
X129000000Y-108700000D03*
X172400000Y-110300000D03*
%TO.N,V3V3_CHAIN_LH*%
X176000000Y-108900000D03*
X140000000Y-112300000D03*
X149800000Y-105500000D03*
X158800000Y-108900000D03*
X155000000Y-105500000D03*
%TD*%
D14*
%TO.N,/CHAIN_SCK*%
X133400000Y-103700000D02*
X131800000Y-103700000D01*
X131800000Y-103700000D02*
X131000000Y-104500000D01*
X140200000Y-110500000D02*
X133400000Y-103700000D01*
X154000000Y-110500000D02*
X140200000Y-110500000D01*
%TO.N,/CHAIN_SHLD*%
X153200000Y-108300000D02*
X139200000Y-108300000D01*
X129600000Y-104100000D02*
X129600000Y-105500000D01*
X155200000Y-110500000D02*
X154800000Y-110100000D01*
X139200000Y-108300000D02*
X134000000Y-103100000D01*
X154800000Y-109900000D02*
X153200000Y-108300000D01*
X154800000Y-110100000D02*
X154800000Y-109900000D01*
X134000000Y-103100000D02*
X130600000Y-103100000D01*
X130600000Y-103100000D02*
X129600000Y-104100000D01*
X130000000Y-105900000D02*
X130400000Y-105900000D01*
X129600000Y-105500000D02*
X130000000Y-105900000D01*
%TO.N,/HOP_LH_LT*%
X129000000Y-107300000D02*
X130000000Y-108300000D01*
X134400000Y-102300000D02*
X130200000Y-102300000D01*
X129000000Y-103500000D02*
X129000000Y-107300000D01*
X135600000Y-103500000D02*
X134400000Y-102300000D01*
X130000000Y-108300000D02*
X130400000Y-108300000D01*
X130200000Y-102300000D02*
X129000000Y-103500000D01*
X145600000Y-103500000D02*
X135600000Y-103500000D01*
%TO.N,/KEY_LH1*%
X122600000Y-116900000D02*
X149000000Y-116900000D01*
%TO.N,/KEY_LH3*%
X157400000Y-114700000D02*
X151800000Y-114700000D01*
%TO.N,/KEY_LH4*%
X175400000Y-120100000D02*
X153200000Y-120100000D01*
%TO.N,/KEY_LH5*%
X170800000Y-107300000D02*
X153000000Y-107300000D01*
%TO.N,/LH1/SWITCH_LEG*%
X118000000Y-125300000D02*
X106400000Y-125300000D01*
%TO.N,/LH2/SWITCH_LEG*%
X138000000Y-125300000D02*
X126400000Y-125300000D01*
%TO.N,/LH3/SWITCH_LEG*%
X158000000Y-125300000D02*
X146400000Y-125300000D01*
%TO.N,/LH4/SWITCH_LEG*%
X164400000Y-134300000D02*
X176000000Y-134300000D01*
%TO.N,/LH5/SWITCH_LEG*%
X164400000Y-116300000D02*
X176000000Y-116300000D01*
%TO.N,GND_CHAIN*%
X146800000Y-117900000D02*
X155400000Y-117900000D01*
X129600000Y-113300000D02*
X128800000Y-112500000D01*
X162600000Y-119100000D02*
X169800000Y-119100000D01*
X114400000Y-128100000D02*
X113800000Y-127500000D01*
X161400000Y-117900000D02*
X162600000Y-119100000D01*
X128800000Y-112500000D02*
X128800000Y-108900000D01*
X155400000Y-117900000D02*
X161400000Y-117900000D01*
X146800000Y-117900000D02*
X136000000Y-117900000D01*
X131800000Y-128100000D02*
X114400000Y-128100000D01*
X136000000Y-113300000D02*
X129600000Y-113300000D01*
X128800000Y-108900000D02*
X129000000Y-108700000D01*
D15*
%TO.N,V3V3_CHAIN_LH*%
X129800000Y-109900000D02*
X130400000Y-109900000D01*
X140000000Y-112300000D02*
X129800000Y-112300000D01*
X129600000Y-112100000D02*
X129600000Y-110100000D01*
X129800000Y-112300000D02*
X129600000Y-112100000D01*
X158800000Y-108900000D02*
X176000000Y-108900000D01*
X129600000Y-110100000D02*
X129800000Y-109900000D01*
X149800000Y-105500000D02*
X155000000Y-105500000D01*
%TD*%
%TA.AperFunction,Conductor*%
%TO.N,GND_CHAIN*%
G36*
X180489651Y-100805370D02*
G01*
X180506938Y-100805216D01*
X180522481Y-100815010D01*
X180540105Y-100820185D01*
X180551423Y-100833246D01*
X180566051Y-100842464D01*
X180573832Y-100859108D01*
X180585860Y-100872989D01*
X180588320Y-100890098D01*
X180595641Y-100905758D01*
X180593189Y-100923963D01*
X180595804Y-100942147D01*
X180588623Y-100957870D01*
X180586316Y-100975003D01*
X180574409Y-100988993D01*
X180566779Y-101005703D01*
X180552062Y-101015253D01*
X180541034Y-101028213D01*
X180509064Y-101043159D01*
X180474975Y-101053500D01*
X180442210Y-101063439D01*
X179873984Y-101367163D01*
X179873977Y-101367168D01*
X179375915Y-101775915D01*
X178967168Y-102273977D01*
X178967163Y-102273984D01*
X178663439Y-102842210D01*
X178476402Y-103458787D01*
X178413249Y-104100000D01*
X178476402Y-104741211D01*
X178663439Y-105357788D01*
X178967163Y-105926014D01*
X178967166Y-105926018D01*
X178967167Y-105926020D01*
X179015726Y-105985189D01*
X179375915Y-106424083D01*
X179623560Y-106627319D01*
X179873979Y-106832832D01*
X179873982Y-106832833D01*
X179873984Y-106832835D01*
X180442210Y-107136559D01*
X180442212Y-107136559D01*
X180442215Y-107136561D01*
X181058786Y-107323596D01*
X181700000Y-107386749D01*
X182341213Y-107323596D01*
X182957784Y-107136561D01*
X182959850Y-107135457D01*
X183266280Y-106971666D01*
X183526020Y-106832832D01*
X184024083Y-106424083D01*
X184432832Y-105926020D01*
X184713104Y-105401669D01*
X184736559Y-105357788D01*
X184736559Y-105357787D01*
X184736561Y-105357784D01*
X184756840Y-105290931D01*
X184795137Y-105232495D01*
X184858949Y-105204039D01*
X184928016Y-105214599D01*
X184980409Y-105260823D01*
X184999500Y-105326929D01*
X184999500Y-137673069D01*
X184979815Y-137740108D01*
X184927011Y-137785863D01*
X184857853Y-137795807D01*
X184794297Y-137766782D01*
X184756839Y-137709064D01*
X184736561Y-137642215D01*
X184736559Y-137642212D01*
X184736559Y-137642210D01*
X184432835Y-137073984D01*
X184432833Y-137073982D01*
X184432832Y-137073979D01*
X184176051Y-136761090D01*
X184024083Y-136575915D01*
X183526021Y-136167168D01*
X183526014Y-136167163D01*
X182957788Y-135863439D01*
X182341211Y-135676402D01*
X181700000Y-135613250D01*
X181058787Y-135676402D01*
X180442210Y-135863439D01*
X179873984Y-136167163D01*
X179873977Y-136167168D01*
X179375915Y-136575915D01*
X178967168Y-137073977D01*
X178967163Y-137073984D01*
X178663439Y-137642210D01*
X178476402Y-138258787D01*
X178413249Y-138900000D01*
X178476402Y-139541211D01*
X178663439Y-140157788D01*
X178967163Y-140726014D01*
X178967168Y-140726021D01*
X179375915Y-141224083D01*
X179722510Y-141508525D01*
X179873979Y-141632832D01*
X179873982Y-141632833D01*
X179873984Y-141632835D01*
X180442210Y-141936559D01*
X180442212Y-141936559D01*
X180442215Y-141936561D01*
X180509065Y-141956839D01*
X180567503Y-141995137D01*
X180595959Y-142058949D01*
X180585399Y-142128016D01*
X180539175Y-142180410D01*
X180473069Y-142199500D01*
X101226930Y-142199500D01*
X101159891Y-142179815D01*
X101114136Y-142127011D01*
X101104192Y-142057853D01*
X101133217Y-141994297D01*
X101190933Y-141956839D01*
X101257784Y-141936561D01*
X101291984Y-141918281D01*
X101621916Y-141741928D01*
X101826020Y-141632832D01*
X102324083Y-141224083D01*
X102732832Y-140726020D01*
X103036561Y-140157784D01*
X103223596Y-139541213D01*
X103286750Y-138900000D01*
X103223596Y-138258786D01*
X103036561Y-137642215D01*
X102837292Y-137269410D01*
X102732835Y-137073984D01*
X102732833Y-137073982D01*
X102732832Y-137073979D01*
X102476051Y-136761090D01*
X102324083Y-136575915D01*
X101826021Y-136167168D01*
X101826014Y-136167163D01*
X101257788Y-135863439D01*
X100641211Y-135676402D01*
X100000000Y-135613250D01*
X99358787Y-135676402D01*
X98742210Y-135863439D01*
X98173984Y-136167163D01*
X98173977Y-136167168D01*
X97675915Y-136575915D01*
X97267168Y-137073977D01*
X97267163Y-137073984D01*
X96963438Y-137642213D01*
X96943160Y-137709061D01*
X96904863Y-137767499D01*
X96841050Y-137795956D01*
X96771984Y-137785395D01*
X96719590Y-137739170D01*
X96700500Y-137673065D01*
X96700500Y-135074038D01*
X161999500Y-135074038D01*
X161999500Y-135325962D01*
X162026510Y-135496497D01*
X162038910Y-135574785D01*
X162116760Y-135814383D01*
X162231132Y-136038848D01*
X162379201Y-136242649D01*
X162379205Y-136242654D01*
X162557345Y-136420794D01*
X162557350Y-136420798D01*
X162735117Y-136549952D01*
X162761155Y-136568870D01*
X162904184Y-136641747D01*
X162985616Y-136683239D01*
X162985618Y-136683239D01*
X162985621Y-136683241D01*
X163225215Y-136761090D01*
X163474038Y-136800500D01*
X163474039Y-136800500D01*
X163725961Y-136800500D01*
X163725962Y-136800500D01*
X163974785Y-136761090D01*
X164214379Y-136683241D01*
X164438845Y-136568870D01*
X164642656Y-136420793D01*
X164820793Y-136242656D01*
X164875642Y-136167163D01*
X164952315Y-136061632D01*
X164959843Y-136051269D01*
X164968870Y-136038845D01*
X165083241Y-135814379D01*
X165161090Y-135574785D01*
X165200500Y-135325962D01*
X165200500Y-135074038D01*
X165161090Y-134825215D01*
X165148938Y-134787817D01*
X165146944Y-134717978D01*
X165183024Y-134658145D01*
X165245724Y-134627316D01*
X165266870Y-134625500D01*
X169559241Y-134625500D01*
X169626280Y-134645185D01*
X169672035Y-134697989D01*
X169681979Y-134767147D01*
X169652954Y-134830703D01*
X169634727Y-134847876D01*
X169547585Y-134914741D01*
X169547585Y-134914742D01*
X169976307Y-135343464D01*
X169883398Y-135410967D01*
X169760967Y-135533398D01*
X169693464Y-135626307D01*
X169264742Y-135197585D01*
X169264741Y-135197585D01*
X169183465Y-135303506D01*
X169183464Y-135303508D01*
X169072054Y-135496479D01*
X169072045Y-135496497D01*
X168986763Y-135702381D01*
X168929088Y-135917632D01*
X168929085Y-135917645D01*
X168900000Y-136138575D01*
X168900000Y-136361424D01*
X168929085Y-136582354D01*
X168929088Y-136582367D01*
X168986763Y-136797618D01*
X169072045Y-137003502D01*
X169072054Y-137003520D01*
X169183462Y-137196488D01*
X169264742Y-137302413D01*
X169693464Y-136873691D01*
X169760967Y-136966602D01*
X169883398Y-137089033D01*
X169976306Y-137156534D01*
X169547585Y-137585256D01*
X169653511Y-137666537D01*
X169846479Y-137777945D01*
X169846497Y-137777954D01*
X170052381Y-137863236D01*
X170267632Y-137920911D01*
X170267645Y-137920914D01*
X170488575Y-137950000D01*
X170711425Y-137950000D01*
X170932354Y-137920914D01*
X170932367Y-137920911D01*
X171147618Y-137863236D01*
X171353502Y-137777954D01*
X171353520Y-137777945D01*
X171546491Y-137666535D01*
X171546495Y-137666533D01*
X171652413Y-137585257D01*
X171652413Y-137585255D01*
X171223693Y-137156534D01*
X171316602Y-137089033D01*
X171439033Y-136966602D01*
X171506534Y-136873692D01*
X171935255Y-137302413D01*
X171935257Y-137302413D01*
X172016533Y-137196495D01*
X172016535Y-137196491D01*
X172127945Y-137003520D01*
X172127954Y-137003502D01*
X172213236Y-136797618D01*
X172270911Y-136582367D01*
X172270914Y-136582354D01*
X172300000Y-136361424D01*
X172300000Y-136138575D01*
X172270914Y-135917645D01*
X172270911Y-135917632D01*
X172213236Y-135702381D01*
X172127954Y-135496497D01*
X172127945Y-135496479D01*
X172016537Y-135303511D01*
X171935256Y-135197585D01*
X171506534Y-135626306D01*
X171439033Y-135533398D01*
X171316602Y-135410967D01*
X171223691Y-135343464D01*
X171652413Y-134914742D01*
X171565272Y-134847876D01*
X171524070Y-134791448D01*
X171519915Y-134721702D01*
X171554128Y-134660781D01*
X171615845Y-134628029D01*
X171640759Y-134625500D01*
X175495613Y-134625500D01*
X175562652Y-134645185D01*
X175583294Y-134661818D01*
X175661985Y-134740509D01*
X175661987Y-134740510D01*
X175661988Y-134740511D01*
X175787511Y-134812982D01*
X175787512Y-134812982D01*
X175787515Y-134812984D01*
X175927525Y-134850500D01*
X175927528Y-134850500D01*
X176072472Y-134850500D01*
X176072475Y-134850500D01*
X176212485Y-134812984D01*
X176338015Y-134740509D01*
X176440509Y-134638015D01*
X176512984Y-134512485D01*
X176550500Y-134372475D01*
X176550500Y-134227525D01*
X176512984Y-134087515D01*
X176446098Y-133971666D01*
X176440511Y-133961988D01*
X176440506Y-133961982D01*
X176338017Y-133859493D01*
X176338011Y-133859488D01*
X176212488Y-133787017D01*
X176212489Y-133787017D01*
X176201006Y-133783940D01*
X176072475Y-133749500D01*
X175927525Y-133749500D01*
X175798993Y-133783940D01*
X175787511Y-133787017D01*
X175661988Y-133859488D01*
X175583294Y-133938182D01*
X175521970Y-133971666D01*
X175495613Y-133974500D01*
X164676467Y-133974500D01*
X164609428Y-133954815D01*
X164603582Y-133950818D01*
X164438848Y-133831132D01*
X164438847Y-133831131D01*
X164438845Y-133831130D01*
X164352268Y-133787017D01*
X164214383Y-133716760D01*
X163974785Y-133638910D01*
X163725962Y-133599500D01*
X163474038Y-133599500D01*
X163349626Y-133619205D01*
X163225214Y-133638910D01*
X162985616Y-133716760D01*
X162761151Y-133831132D01*
X162557350Y-133979201D01*
X162557345Y-133979205D01*
X162379205Y-134157345D01*
X162379201Y-134157350D01*
X162231132Y-134361151D01*
X162116760Y-134585616D01*
X162042884Y-134812984D01*
X162038910Y-134825215D01*
X161999500Y-135074038D01*
X96700500Y-135074038D01*
X96700500Y-130336824D01*
X165094500Y-130336824D01*
X165094500Y-130663175D01*
X165131035Y-130987441D01*
X165131038Y-130987455D01*
X165203655Y-131305612D01*
X165203656Y-131305614D01*
X165311438Y-131613640D01*
X165453030Y-131907657D01*
X165453032Y-131907660D01*
X165626654Y-132183979D01*
X165830123Y-132439121D01*
X166060879Y-132669877D01*
X166316021Y-132873346D01*
X166592340Y-133046968D01*
X166886361Y-133188562D01*
X167194387Y-133296344D01*
X167512544Y-133368962D01*
X167512553Y-133368963D01*
X167512558Y-133368964D01*
X167728735Y-133393320D01*
X167836825Y-133405499D01*
X167836828Y-133405500D01*
X167836831Y-133405500D01*
X168163172Y-133405500D01*
X168163173Y-133405499D01*
X168328900Y-133386826D01*
X168487441Y-133368964D01*
X168487444Y-133368963D01*
X168487456Y-133368962D01*
X168805613Y-133296344D01*
X169113639Y-133188562D01*
X169407660Y-133046968D01*
X169683979Y-132873346D01*
X169939121Y-132669877D01*
X170169877Y-132439121D01*
X170373346Y-132183979D01*
X170546968Y-131907660D01*
X170688562Y-131613639D01*
X170796344Y-131305613D01*
X170868962Y-130987456D01*
X170905500Y-130663169D01*
X170905500Y-130336831D01*
X170868962Y-130012544D01*
X170796344Y-129694387D01*
X170688562Y-129386361D01*
X170546968Y-129092340D01*
X170373346Y-128816021D01*
X170169877Y-128560879D01*
X169939121Y-128330123D01*
X169683979Y-128126654D01*
X169407660Y-127953032D01*
X169407657Y-127953030D01*
X169113640Y-127811438D01*
X168805614Y-127703656D01*
X168805612Y-127703655D01*
X168560073Y-127647612D01*
X168487456Y-127631038D01*
X168487453Y-127631037D01*
X168487441Y-127631035D01*
X168163175Y-127594500D01*
X168163169Y-127594500D01*
X167836831Y-127594500D01*
X167836824Y-127594500D01*
X167512558Y-127631035D01*
X167512544Y-127631038D01*
X167194387Y-127703655D01*
X167194385Y-127703656D01*
X166886359Y-127811438D01*
X166592342Y-127953030D01*
X166316022Y-128126653D01*
X166060879Y-128330122D01*
X165830122Y-128560879D01*
X165626653Y-128816022D01*
X165453030Y-129092342D01*
X165311438Y-129386359D01*
X165203656Y-129694385D01*
X165203655Y-129694387D01*
X165131038Y-130012544D01*
X165131035Y-130012558D01*
X165094500Y-130336824D01*
X96700500Y-130336824D01*
X96700500Y-126074038D01*
X103999500Y-126074038D01*
X103999500Y-126325962D01*
X104026510Y-126496497D01*
X104038910Y-126574785D01*
X104116760Y-126814383D01*
X104231132Y-127038848D01*
X104379201Y-127242649D01*
X104379205Y-127242654D01*
X104557345Y-127420794D01*
X104557350Y-127420798D01*
X104735117Y-127549952D01*
X104761155Y-127568870D01*
X104883161Y-127631035D01*
X104985616Y-127683239D01*
X104985618Y-127683239D01*
X104985621Y-127683241D01*
X105225215Y-127761090D01*
X105474038Y-127800500D01*
X105474039Y-127800500D01*
X105725961Y-127800500D01*
X105725962Y-127800500D01*
X105974785Y-127761090D01*
X106214379Y-127683241D01*
X106438845Y-127568870D01*
X106642656Y-127420793D01*
X106820793Y-127242656D01*
X106835446Y-127222487D01*
X106952315Y-127061632D01*
X106959843Y-127051269D01*
X106968870Y-127038845D01*
X107083241Y-126814379D01*
X107161090Y-126574785D01*
X107200500Y-126325962D01*
X107200500Y-126074038D01*
X107161090Y-125825215D01*
X107148938Y-125787817D01*
X107146944Y-125717978D01*
X107183024Y-125658145D01*
X107245724Y-125627316D01*
X107266870Y-125625500D01*
X111559241Y-125625500D01*
X111626280Y-125645185D01*
X111672035Y-125697989D01*
X111681979Y-125767147D01*
X111652954Y-125830703D01*
X111634727Y-125847876D01*
X111547585Y-125914741D01*
X111547585Y-125914742D01*
X111976307Y-126343464D01*
X111883398Y-126410967D01*
X111760967Y-126533398D01*
X111693464Y-126626307D01*
X111264742Y-126197585D01*
X111264741Y-126197585D01*
X111183465Y-126303506D01*
X111183464Y-126303508D01*
X111072054Y-126496479D01*
X111072045Y-126496497D01*
X110986763Y-126702381D01*
X110929088Y-126917632D01*
X110929085Y-126917645D01*
X110900000Y-127138575D01*
X110900000Y-127361424D01*
X110929085Y-127582354D01*
X110929088Y-127582367D01*
X110986763Y-127797618D01*
X111072045Y-128003502D01*
X111072054Y-128003520D01*
X111183462Y-128196488D01*
X111264742Y-128302413D01*
X111693464Y-127873691D01*
X111760967Y-127966602D01*
X111883398Y-128089033D01*
X111976306Y-128156534D01*
X111547585Y-128585256D01*
X111653511Y-128666537D01*
X111846479Y-128777945D01*
X111846497Y-128777954D01*
X112052381Y-128863236D01*
X112267632Y-128920911D01*
X112267645Y-128920914D01*
X112488575Y-128950000D01*
X112711425Y-128950000D01*
X112932354Y-128920914D01*
X112932367Y-128920911D01*
X113147618Y-128863236D01*
X113353502Y-128777954D01*
X113353520Y-128777945D01*
X113546491Y-128666535D01*
X113546495Y-128666533D01*
X113652413Y-128585257D01*
X113652413Y-128585255D01*
X113223693Y-128156534D01*
X113316602Y-128089033D01*
X113439033Y-127966602D01*
X113506534Y-127873692D01*
X113935255Y-128302413D01*
X113935257Y-128302413D01*
X114016533Y-128196495D01*
X114016535Y-128196491D01*
X114127945Y-128003520D01*
X114127954Y-128003502D01*
X114213236Y-127797618D01*
X114270911Y-127582367D01*
X114270914Y-127582354D01*
X114300000Y-127361424D01*
X114300000Y-127138575D01*
X114270914Y-126917645D01*
X114270911Y-126917632D01*
X114213236Y-126702381D01*
X114127954Y-126496497D01*
X114127945Y-126496479D01*
X114016537Y-126303511D01*
X113935256Y-126197585D01*
X113506534Y-126626306D01*
X113439033Y-126533398D01*
X113316602Y-126410967D01*
X113223692Y-126343464D01*
X113493118Y-126074038D01*
X123999500Y-126074038D01*
X123999500Y-126325962D01*
X124026510Y-126496497D01*
X124038910Y-126574785D01*
X124116760Y-126814383D01*
X124231132Y-127038848D01*
X124379201Y-127242649D01*
X124379205Y-127242654D01*
X124557345Y-127420794D01*
X124557350Y-127420798D01*
X124735117Y-127549952D01*
X124761155Y-127568870D01*
X124883161Y-127631035D01*
X124985616Y-127683239D01*
X124985618Y-127683239D01*
X124985621Y-127683241D01*
X125225215Y-127761090D01*
X125474038Y-127800500D01*
X125474039Y-127800500D01*
X125725961Y-127800500D01*
X125725962Y-127800500D01*
X125974785Y-127761090D01*
X126214379Y-127683241D01*
X126438845Y-127568870D01*
X126642656Y-127420793D01*
X126820793Y-127242656D01*
X126835446Y-127222487D01*
X126952315Y-127061632D01*
X126959843Y-127051269D01*
X126968870Y-127038845D01*
X127083241Y-126814379D01*
X127161090Y-126574785D01*
X127200500Y-126325962D01*
X127200500Y-126074038D01*
X127161090Y-125825215D01*
X127148938Y-125787817D01*
X127146944Y-125717978D01*
X127183024Y-125658145D01*
X127245724Y-125627316D01*
X127266870Y-125625500D01*
X131559241Y-125625500D01*
X131626280Y-125645185D01*
X131672035Y-125697989D01*
X131681979Y-125767147D01*
X131652954Y-125830703D01*
X131634727Y-125847876D01*
X131547585Y-125914741D01*
X131547585Y-125914742D01*
X131976307Y-126343464D01*
X131883398Y-126410967D01*
X131760967Y-126533398D01*
X131693464Y-126626307D01*
X131264742Y-126197585D01*
X131264741Y-126197585D01*
X131183465Y-126303506D01*
X131183464Y-126303508D01*
X131072054Y-126496479D01*
X131072045Y-126496497D01*
X130986763Y-126702381D01*
X130929088Y-126917632D01*
X130929085Y-126917645D01*
X130900000Y-127138575D01*
X130900000Y-127361424D01*
X130929085Y-127582354D01*
X130929088Y-127582367D01*
X130986763Y-127797618D01*
X131072045Y-128003502D01*
X131072054Y-128003520D01*
X131183462Y-128196488D01*
X131264742Y-128302413D01*
X131693464Y-127873691D01*
X131760967Y-127966602D01*
X131883398Y-128089033D01*
X131976306Y-128156534D01*
X131547585Y-128585256D01*
X131653511Y-128666537D01*
X131846479Y-128777945D01*
X131846497Y-128777954D01*
X132052381Y-128863236D01*
X132267632Y-128920911D01*
X132267645Y-128920914D01*
X132488575Y-128950000D01*
X132711425Y-128950000D01*
X132932354Y-128920914D01*
X132932367Y-128920911D01*
X133147618Y-128863236D01*
X133353502Y-128777954D01*
X133353520Y-128777945D01*
X133546491Y-128666535D01*
X133546495Y-128666533D01*
X133652413Y-128585257D01*
X133652413Y-128585255D01*
X133223693Y-128156534D01*
X133316602Y-128089033D01*
X133439033Y-127966602D01*
X133506534Y-127873693D01*
X133935255Y-128302413D01*
X133935257Y-128302413D01*
X134016533Y-128196495D01*
X134016535Y-128196491D01*
X134127945Y-128003520D01*
X134127954Y-128003502D01*
X134213236Y-127797618D01*
X134270911Y-127582367D01*
X134270914Y-127582354D01*
X134300000Y-127361424D01*
X134300000Y-127138575D01*
X134270914Y-126917645D01*
X134270911Y-126917632D01*
X134213236Y-126702381D01*
X134127954Y-126496497D01*
X134127945Y-126496479D01*
X134016537Y-126303511D01*
X133935256Y-126197585D01*
X133506534Y-126626306D01*
X133439033Y-126533398D01*
X133316602Y-126410967D01*
X133223692Y-126343464D01*
X133493118Y-126074038D01*
X143999500Y-126074038D01*
X143999500Y-126325962D01*
X144026510Y-126496497D01*
X144038910Y-126574785D01*
X144116760Y-126814383D01*
X144231132Y-127038848D01*
X144379201Y-127242649D01*
X144379205Y-127242654D01*
X144557345Y-127420794D01*
X144557350Y-127420798D01*
X144735117Y-127549952D01*
X144761155Y-127568870D01*
X144883161Y-127631035D01*
X144985616Y-127683239D01*
X144985618Y-127683239D01*
X144985621Y-127683241D01*
X145225215Y-127761090D01*
X145474038Y-127800500D01*
X145474039Y-127800500D01*
X145725961Y-127800500D01*
X145725962Y-127800500D01*
X145974785Y-127761090D01*
X146214379Y-127683241D01*
X146438845Y-127568870D01*
X146642656Y-127420793D01*
X146820793Y-127242656D01*
X146835446Y-127222487D01*
X146952315Y-127061632D01*
X146959843Y-127051269D01*
X146968870Y-127038845D01*
X147083241Y-126814379D01*
X147161090Y-126574785D01*
X147200500Y-126325962D01*
X147200500Y-126074038D01*
X147161090Y-125825215D01*
X147148938Y-125787817D01*
X147146944Y-125717978D01*
X147183024Y-125658145D01*
X147245724Y-125627316D01*
X147266870Y-125625500D01*
X151559241Y-125625500D01*
X151626280Y-125645185D01*
X151672035Y-125697989D01*
X151681979Y-125767147D01*
X151652954Y-125830703D01*
X151634727Y-125847876D01*
X151547585Y-125914741D01*
X151547585Y-125914742D01*
X151976307Y-126343464D01*
X151883398Y-126410967D01*
X151760967Y-126533398D01*
X151693464Y-126626307D01*
X151264742Y-126197585D01*
X151264741Y-126197585D01*
X151183465Y-126303506D01*
X151183464Y-126303508D01*
X151072054Y-126496479D01*
X151072045Y-126496497D01*
X150986763Y-126702381D01*
X150929088Y-126917632D01*
X150929085Y-126917645D01*
X150900000Y-127138575D01*
X150900000Y-127361424D01*
X150929085Y-127582354D01*
X150929088Y-127582367D01*
X150986763Y-127797618D01*
X151072045Y-128003502D01*
X151072054Y-128003520D01*
X151183462Y-128196488D01*
X151264742Y-128302413D01*
X151693463Y-127873691D01*
X151760967Y-127966602D01*
X151883398Y-128089033D01*
X151976306Y-128156534D01*
X151547585Y-128585256D01*
X151653511Y-128666537D01*
X151846479Y-128777945D01*
X151846497Y-128777954D01*
X152052381Y-128863236D01*
X152267632Y-128920911D01*
X152267645Y-128920914D01*
X152488575Y-128950000D01*
X152711425Y-128950000D01*
X152932354Y-128920914D01*
X152932367Y-128920911D01*
X153147618Y-128863236D01*
X153353502Y-128777954D01*
X153353520Y-128777945D01*
X153546491Y-128666535D01*
X153546495Y-128666533D01*
X153652413Y-128585257D01*
X153652413Y-128585255D01*
X153223693Y-128156534D01*
X153316602Y-128089033D01*
X153439033Y-127966602D01*
X153506534Y-127873692D01*
X153935255Y-128302413D01*
X153935257Y-128302413D01*
X154016533Y-128196495D01*
X154016535Y-128196491D01*
X154127945Y-128003520D01*
X154127954Y-128003502D01*
X154213236Y-127797618D01*
X154270911Y-127582367D01*
X154270914Y-127582354D01*
X154300000Y-127361424D01*
X154300000Y-127138575D01*
X154270914Y-126917645D01*
X154270911Y-126917632D01*
X154213236Y-126702381D01*
X154127954Y-126496497D01*
X154127945Y-126496479D01*
X154016537Y-126303511D01*
X153935256Y-126197585D01*
X153506534Y-126626306D01*
X153439033Y-126533398D01*
X153316602Y-126410967D01*
X153223691Y-126343464D01*
X153652413Y-125914742D01*
X153565272Y-125847876D01*
X153524070Y-125791448D01*
X153519915Y-125721702D01*
X153554128Y-125660781D01*
X153615845Y-125628029D01*
X153640759Y-125625500D01*
X157495613Y-125625500D01*
X157562652Y-125645185D01*
X157583294Y-125661818D01*
X157661985Y-125740509D01*
X157661987Y-125740510D01*
X157661988Y-125740511D01*
X157787511Y-125812982D01*
X157787512Y-125812982D01*
X157787515Y-125812984D01*
X157927525Y-125850500D01*
X157927528Y-125850500D01*
X158072472Y-125850500D01*
X158072475Y-125850500D01*
X158212485Y-125812984D01*
X158338015Y-125740509D01*
X158440509Y-125638015D01*
X158512984Y-125512485D01*
X158550500Y-125372475D01*
X158550500Y-125227525D01*
X158512984Y-125087515D01*
X158446098Y-124971666D01*
X158440511Y-124961988D01*
X158440506Y-124961982D01*
X158338017Y-124859493D01*
X158338011Y-124859488D01*
X158212488Y-124787017D01*
X158212489Y-124787017D01*
X158201006Y-124783940D01*
X158072475Y-124749500D01*
X157927525Y-124749500D01*
X157798993Y-124783940D01*
X157787511Y-124787017D01*
X157661988Y-124859488D01*
X157583294Y-124938182D01*
X157521970Y-124971666D01*
X157495613Y-124974500D01*
X146676467Y-124974500D01*
X146609428Y-124954815D01*
X146603582Y-124950818D01*
X146438848Y-124831132D01*
X146438847Y-124831131D01*
X146438845Y-124831130D01*
X146352268Y-124787017D01*
X146214383Y-124716760D01*
X145974785Y-124638910D01*
X145725962Y-124599500D01*
X145474038Y-124599500D01*
X145349626Y-124619205D01*
X145225214Y-124638910D01*
X144985616Y-124716760D01*
X144761151Y-124831132D01*
X144557350Y-124979201D01*
X144557345Y-124979205D01*
X144379205Y-125157345D01*
X144379201Y-125157350D01*
X144231132Y-125361151D01*
X144116760Y-125585616D01*
X144042884Y-125812984D01*
X144038910Y-125825215D01*
X143999500Y-126074038D01*
X133493118Y-126074038D01*
X133585671Y-125981485D01*
X133652413Y-125914742D01*
X133565272Y-125847876D01*
X133524070Y-125791448D01*
X133519915Y-125721702D01*
X133554128Y-125660781D01*
X133615845Y-125628029D01*
X133640759Y-125625500D01*
X137495613Y-125625500D01*
X137562652Y-125645185D01*
X137583294Y-125661818D01*
X137661985Y-125740509D01*
X137661987Y-125740510D01*
X137661988Y-125740511D01*
X137787511Y-125812982D01*
X137787512Y-125812982D01*
X137787515Y-125812984D01*
X137927525Y-125850500D01*
X137927528Y-125850500D01*
X138072472Y-125850500D01*
X138072475Y-125850500D01*
X138212485Y-125812984D01*
X138338015Y-125740509D01*
X138440509Y-125638015D01*
X138512984Y-125512485D01*
X138550500Y-125372475D01*
X138550500Y-125227525D01*
X138512984Y-125087515D01*
X138446098Y-124971666D01*
X138440511Y-124961988D01*
X138440506Y-124961982D01*
X138338017Y-124859493D01*
X138338011Y-124859488D01*
X138212488Y-124787017D01*
X138212489Y-124787017D01*
X138201006Y-124783940D01*
X138072475Y-124749500D01*
X137927525Y-124749500D01*
X137798993Y-124783940D01*
X137787511Y-124787017D01*
X137661988Y-124859488D01*
X137583294Y-124938182D01*
X137521970Y-124971666D01*
X137495613Y-124974500D01*
X126676467Y-124974500D01*
X126609428Y-124954815D01*
X126603582Y-124950818D01*
X126438848Y-124831132D01*
X126438847Y-124831131D01*
X126438845Y-124831130D01*
X126352268Y-124787017D01*
X126214383Y-124716760D01*
X125974785Y-124638910D01*
X125725962Y-124599500D01*
X125474038Y-124599500D01*
X125349626Y-124619205D01*
X125225214Y-124638910D01*
X124985616Y-124716760D01*
X124761151Y-124831132D01*
X124557350Y-124979201D01*
X124557345Y-124979205D01*
X124379205Y-125157345D01*
X124379201Y-125157350D01*
X124231132Y-125361151D01*
X124116760Y-125585616D01*
X124042884Y-125812984D01*
X124038910Y-125825215D01*
X123999500Y-126074038D01*
X113493118Y-126074038D01*
X113585671Y-125981485D01*
X113652413Y-125914742D01*
X113565272Y-125847876D01*
X113524070Y-125791448D01*
X113519915Y-125721702D01*
X113554128Y-125660781D01*
X113615845Y-125628029D01*
X113640759Y-125625500D01*
X117495613Y-125625500D01*
X117562652Y-125645185D01*
X117583294Y-125661818D01*
X117661985Y-125740509D01*
X117661987Y-125740510D01*
X117661988Y-125740511D01*
X117787511Y-125812982D01*
X117787512Y-125812982D01*
X117787515Y-125812984D01*
X117927525Y-125850500D01*
X117927528Y-125850500D01*
X118072472Y-125850500D01*
X118072475Y-125850500D01*
X118212485Y-125812984D01*
X118338015Y-125740509D01*
X118440509Y-125638015D01*
X118512984Y-125512485D01*
X118550500Y-125372475D01*
X118550500Y-125227525D01*
X118512984Y-125087515D01*
X118446098Y-124971666D01*
X118440511Y-124961988D01*
X118440506Y-124961982D01*
X118338017Y-124859493D01*
X118338011Y-124859488D01*
X118212488Y-124787017D01*
X118212489Y-124787017D01*
X118201006Y-124783940D01*
X118072475Y-124749500D01*
X117927525Y-124749500D01*
X117798993Y-124783940D01*
X117787511Y-124787017D01*
X117661988Y-124859488D01*
X117583294Y-124938182D01*
X117521970Y-124971666D01*
X117495613Y-124974500D01*
X106676467Y-124974500D01*
X106609428Y-124954815D01*
X106603582Y-124950818D01*
X106438848Y-124831132D01*
X106438847Y-124831131D01*
X106438845Y-124831130D01*
X106352268Y-124787017D01*
X106214383Y-124716760D01*
X105974785Y-124638910D01*
X105725962Y-124599500D01*
X105474038Y-124599500D01*
X105349626Y-124619205D01*
X105225214Y-124638910D01*
X104985616Y-124716760D01*
X104761151Y-124831132D01*
X104557350Y-124979201D01*
X104557345Y-124979205D01*
X104379205Y-125157345D01*
X104379201Y-125157350D01*
X104231132Y-125361151D01*
X104116760Y-125585616D01*
X104042884Y-125812984D01*
X104038910Y-125825215D01*
X103999500Y-126074038D01*
X96700500Y-126074038D01*
X96700500Y-121336824D01*
X107094500Y-121336824D01*
X107094500Y-121663175D01*
X107131035Y-121987441D01*
X107131038Y-121987455D01*
X107203655Y-122305612D01*
X107203656Y-122305614D01*
X107311438Y-122613640D01*
X107453030Y-122907657D01*
X107453032Y-122907660D01*
X107626654Y-123183979D01*
X107830123Y-123439121D01*
X108060879Y-123669877D01*
X108316021Y-123873346D01*
X108592340Y-124046968D01*
X108886361Y-124188562D01*
X109194387Y-124296344D01*
X109512544Y-124368962D01*
X109512553Y-124368963D01*
X109512558Y-124368964D01*
X109728735Y-124393320D01*
X109836825Y-124405499D01*
X109836828Y-124405500D01*
X109836831Y-124405500D01*
X110163172Y-124405500D01*
X110163173Y-124405499D01*
X110328900Y-124386826D01*
X110487441Y-124368964D01*
X110487444Y-124368963D01*
X110487456Y-124368962D01*
X110805613Y-124296344D01*
X111113639Y-124188562D01*
X111407660Y-124046968D01*
X111683979Y-123873346D01*
X111939121Y-123669877D01*
X112169877Y-123439121D01*
X112373346Y-123183979D01*
X112546968Y-122907660D01*
X112688562Y-122613639D01*
X112796344Y-122305613D01*
X112868962Y-121987456D01*
X112905500Y-121663169D01*
X112905500Y-121336831D01*
X112905499Y-121336824D01*
X127094500Y-121336824D01*
X127094500Y-121663175D01*
X127131035Y-121987441D01*
X127131038Y-121987455D01*
X127203655Y-122305612D01*
X127203656Y-122305614D01*
X127311438Y-122613640D01*
X127453030Y-122907657D01*
X127453032Y-122907660D01*
X127626654Y-123183979D01*
X127830123Y-123439121D01*
X128060879Y-123669877D01*
X128316021Y-123873346D01*
X128592340Y-124046968D01*
X128886361Y-124188562D01*
X129194387Y-124296344D01*
X129512544Y-124368962D01*
X129512553Y-124368963D01*
X129512558Y-124368964D01*
X129728735Y-124393320D01*
X129836825Y-124405499D01*
X129836828Y-124405500D01*
X129836831Y-124405500D01*
X130163172Y-124405500D01*
X130163173Y-124405499D01*
X130328900Y-124386826D01*
X130487441Y-124368964D01*
X130487444Y-124368963D01*
X130487456Y-124368962D01*
X130805613Y-124296344D01*
X131113639Y-124188562D01*
X131407660Y-124046968D01*
X131683979Y-123873346D01*
X131939121Y-123669877D01*
X132169877Y-123439121D01*
X132373346Y-123183979D01*
X132546968Y-122907660D01*
X132688562Y-122613639D01*
X132796344Y-122305613D01*
X132868962Y-121987456D01*
X132905500Y-121663169D01*
X132905500Y-121336831D01*
X132905499Y-121336824D01*
X147094500Y-121336824D01*
X147094500Y-121663175D01*
X147131035Y-121987441D01*
X147131038Y-121987455D01*
X147203655Y-122305612D01*
X147203656Y-122305614D01*
X147311438Y-122613640D01*
X147453030Y-122907657D01*
X147453032Y-122907660D01*
X147626654Y-123183979D01*
X147830123Y-123439121D01*
X148060879Y-123669877D01*
X148316021Y-123873346D01*
X148592340Y-124046968D01*
X148886361Y-124188562D01*
X149194387Y-124296344D01*
X149512544Y-124368962D01*
X149512553Y-124368963D01*
X149512558Y-124368964D01*
X149728735Y-124393320D01*
X149836825Y-124405499D01*
X149836828Y-124405500D01*
X149836831Y-124405500D01*
X150163172Y-124405500D01*
X150163173Y-124405499D01*
X150328900Y-124386826D01*
X150487441Y-124368964D01*
X150487444Y-124368963D01*
X150487456Y-124368962D01*
X150805613Y-124296344D01*
X151113639Y-124188562D01*
X151407660Y-124046968D01*
X151683979Y-123873346D01*
X151939121Y-123669877D01*
X152169877Y-123439121D01*
X152373346Y-123183979D01*
X152546968Y-122907660D01*
X152688562Y-122613639D01*
X152796344Y-122305613D01*
X152868962Y-121987456D01*
X152905500Y-121663169D01*
X152905500Y-121336831D01*
X152868962Y-121012544D01*
X152809172Y-120750589D01*
X152813445Y-120680851D01*
X152854744Y-120624493D01*
X152919956Y-120599410D01*
X152979253Y-120611676D01*
X152980001Y-120609872D01*
X152987510Y-120612982D01*
X152987512Y-120612982D01*
X152987515Y-120612984D01*
X153127525Y-120650500D01*
X153127528Y-120650500D01*
X153272472Y-120650500D01*
X153272475Y-120650500D01*
X153412485Y-120612984D01*
X153538015Y-120540509D01*
X153616706Y-120461818D01*
X153678030Y-120428334D01*
X153704387Y-120425500D01*
X174895613Y-120425500D01*
X174962652Y-120445185D01*
X174983294Y-120461818D01*
X175061985Y-120540509D01*
X175061987Y-120540510D01*
X175061988Y-120540511D01*
X175187511Y-120612982D01*
X175187512Y-120612982D01*
X175187515Y-120612984D01*
X175327525Y-120650500D01*
X175327528Y-120650500D01*
X175472472Y-120650500D01*
X175472475Y-120650500D01*
X175612485Y-120612984D01*
X175738015Y-120540509D01*
X175840509Y-120438015D01*
X175912984Y-120312485D01*
X175950500Y-120172475D01*
X175950500Y-120027525D01*
X175912984Y-119887515D01*
X175871707Y-119816022D01*
X175840511Y-119761988D01*
X175840506Y-119761982D01*
X175738017Y-119659493D01*
X175738011Y-119659488D01*
X175612488Y-119587017D01*
X175612489Y-119587017D01*
X175601006Y-119583940D01*
X175472475Y-119549500D01*
X175327525Y-119549500D01*
X175198993Y-119583940D01*
X175187511Y-119587017D01*
X175061988Y-119659488D01*
X174983294Y-119738182D01*
X174921970Y-119771666D01*
X174895613Y-119774500D01*
X171771080Y-119774500D01*
X171704041Y-119754815D01*
X171658286Y-119702011D01*
X171649567Y-119641374D01*
X171648739Y-119641320D01*
X171648995Y-119637400D01*
X171648342Y-119632853D01*
X171649453Y-119630419D01*
X171652413Y-119585255D01*
X171223693Y-119156534D01*
X171316602Y-119089033D01*
X171439033Y-118966602D01*
X171506534Y-118873692D01*
X171935255Y-119302413D01*
X171935257Y-119302413D01*
X172016533Y-119196495D01*
X172016535Y-119196491D01*
X172127945Y-119003520D01*
X172127954Y-119003502D01*
X172213236Y-118797618D01*
X172270911Y-118582367D01*
X172270914Y-118582354D01*
X172300000Y-118361424D01*
X172300000Y-118138575D01*
X172270914Y-117917645D01*
X172270911Y-117917632D01*
X172213236Y-117702381D01*
X172127954Y-117496497D01*
X172127945Y-117496479D01*
X172016537Y-117303511D01*
X171935256Y-117197585D01*
X171506534Y-117626306D01*
X171439033Y-117533398D01*
X171316602Y-117410967D01*
X171223691Y-117343464D01*
X171652413Y-116914742D01*
X171565272Y-116847876D01*
X171524070Y-116791448D01*
X171519915Y-116721702D01*
X171554128Y-116660781D01*
X171615845Y-116628029D01*
X171640759Y-116625500D01*
X175495613Y-116625500D01*
X175562652Y-116645185D01*
X175583294Y-116661818D01*
X175661985Y-116740509D01*
X175661987Y-116740510D01*
X175661988Y-116740511D01*
X175787511Y-116812982D01*
X175787512Y-116812982D01*
X175787515Y-116812984D01*
X175927525Y-116850500D01*
X175927528Y-116850500D01*
X176072472Y-116850500D01*
X176072475Y-116850500D01*
X176212485Y-116812984D01*
X176338015Y-116740509D01*
X176440509Y-116638015D01*
X176512984Y-116512485D01*
X176550500Y-116372475D01*
X176550500Y-116227525D01*
X176512984Y-116087515D01*
X176446098Y-115971666D01*
X176440511Y-115961988D01*
X176440506Y-115961982D01*
X176338017Y-115859493D01*
X176338011Y-115859488D01*
X176212488Y-115787017D01*
X176212489Y-115787017D01*
X176201006Y-115783940D01*
X176072475Y-115749500D01*
X175927525Y-115749500D01*
X175798993Y-115783940D01*
X175787511Y-115787017D01*
X175661988Y-115859488D01*
X175583294Y-115938182D01*
X175521970Y-115971666D01*
X175495613Y-115974500D01*
X164676467Y-115974500D01*
X164609428Y-115954815D01*
X164603582Y-115950818D01*
X164438848Y-115831132D01*
X164438847Y-115831131D01*
X164438845Y-115831130D01*
X164352268Y-115787017D01*
X164214383Y-115716760D01*
X163974785Y-115638910D01*
X163725962Y-115599500D01*
X163474038Y-115599500D01*
X163349626Y-115619205D01*
X163225214Y-115638910D01*
X162985616Y-115716760D01*
X162761151Y-115831132D01*
X162557350Y-115979201D01*
X162557345Y-115979205D01*
X162379205Y-116157345D01*
X162379201Y-116157350D01*
X162231132Y-116361151D01*
X162116760Y-116585616D01*
X162042884Y-116812984D01*
X162038910Y-116825215D01*
X161999500Y-117074038D01*
X161999500Y-117325962D01*
X162026510Y-117496497D01*
X162038910Y-117574785D01*
X162116760Y-117814383D01*
X162231132Y-118038848D01*
X162379201Y-118242649D01*
X162379205Y-118242654D01*
X162557345Y-118420794D01*
X162557350Y-118420798D01*
X162735117Y-118549952D01*
X162761155Y-118568870D01*
X162883161Y-118631035D01*
X162985616Y-118683239D01*
X162985618Y-118683239D01*
X162985621Y-118683241D01*
X163225215Y-118761090D01*
X163474038Y-118800500D01*
X163474039Y-118800500D01*
X163725961Y-118800500D01*
X163725962Y-118800500D01*
X163974785Y-118761090D01*
X164214379Y-118683241D01*
X164438845Y-118568870D01*
X164642656Y-118420793D01*
X164820793Y-118242656D01*
X164835446Y-118222487D01*
X164952315Y-118061632D01*
X164959843Y-118051269D01*
X164968870Y-118038845D01*
X165083241Y-117814379D01*
X165161090Y-117574785D01*
X165200500Y-117325962D01*
X165200500Y-117074038D01*
X165161090Y-116825215D01*
X165148938Y-116787817D01*
X165146944Y-116717978D01*
X165183024Y-116658145D01*
X165245724Y-116627316D01*
X165266870Y-116625500D01*
X169559241Y-116625500D01*
X169626280Y-116645185D01*
X169672035Y-116697989D01*
X169681979Y-116767147D01*
X169652954Y-116830703D01*
X169634727Y-116847876D01*
X169547585Y-116914741D01*
X169547585Y-116914742D01*
X169976307Y-117343464D01*
X169883398Y-117410967D01*
X169760967Y-117533398D01*
X169693464Y-117626307D01*
X169264742Y-117197585D01*
X169264741Y-117197585D01*
X169183465Y-117303506D01*
X169183464Y-117303508D01*
X169072054Y-117496479D01*
X169072045Y-117496497D01*
X168986763Y-117702381D01*
X168929088Y-117917632D01*
X168929085Y-117917645D01*
X168900000Y-118138575D01*
X168900000Y-118361424D01*
X168929085Y-118582354D01*
X168929088Y-118582367D01*
X168986763Y-118797618D01*
X169072045Y-119003502D01*
X169072054Y-119003520D01*
X169183462Y-119196488D01*
X169264742Y-119302413D01*
X169693464Y-118873691D01*
X169760967Y-118966602D01*
X169883398Y-119089033D01*
X169976306Y-119156534D01*
X169547585Y-119585256D01*
X169551260Y-119641320D01*
X169547575Y-119641561D01*
X169549759Y-119678317D01*
X169515537Y-119739232D01*
X169453814Y-119771975D01*
X169428919Y-119774500D01*
X153704387Y-119774500D01*
X153637348Y-119754815D01*
X153616706Y-119738182D01*
X153580535Y-119702011D01*
X153538015Y-119659491D01*
X153538012Y-119659489D01*
X153538011Y-119659488D01*
X153412488Y-119587017D01*
X153412489Y-119587017D01*
X153401006Y-119583940D01*
X153272475Y-119549500D01*
X153127525Y-119549500D01*
X152998993Y-119583940D01*
X152987511Y-119587017D01*
X152861988Y-119659488D01*
X152861982Y-119659493D01*
X152759493Y-119761982D01*
X152759488Y-119761988D01*
X152687017Y-119887511D01*
X152687016Y-119887513D01*
X152680231Y-119912835D01*
X152643864Y-119972494D01*
X152581017Y-120003022D01*
X152511641Y-119994725D01*
X152457765Y-119950238D01*
X152455463Y-119946710D01*
X152418266Y-119887511D01*
X152373346Y-119816021D01*
X152169877Y-119560879D01*
X151939121Y-119330123D01*
X151683979Y-119126654D01*
X151407660Y-118953032D01*
X151407657Y-118953030D01*
X151113640Y-118811438D01*
X150805614Y-118703656D01*
X150805612Y-118703655D01*
X150560073Y-118647612D01*
X150487456Y-118631038D01*
X150487453Y-118631037D01*
X150487441Y-118631035D01*
X150163175Y-118594500D01*
X150163169Y-118594500D01*
X149836831Y-118594500D01*
X149836824Y-118594500D01*
X149512558Y-118631035D01*
X149512544Y-118631038D01*
X149194387Y-118703655D01*
X149194385Y-118703656D01*
X148886359Y-118811438D01*
X148592342Y-118953030D01*
X148316022Y-119126653D01*
X148060879Y-119330122D01*
X147830122Y-119560879D01*
X147626653Y-119816022D01*
X147453030Y-120092342D01*
X147311438Y-120386359D01*
X147203656Y-120694385D01*
X147203655Y-120694387D01*
X147131038Y-121012544D01*
X147131035Y-121012558D01*
X147094500Y-121336824D01*
X132905499Y-121336824D01*
X132868962Y-121012544D01*
X132796344Y-120694387D01*
X132688562Y-120386361D01*
X132546968Y-120092340D01*
X132373346Y-119816021D01*
X132169877Y-119560879D01*
X131939121Y-119330123D01*
X131683979Y-119126654D01*
X131407660Y-118953032D01*
X131407657Y-118953030D01*
X131113640Y-118811438D01*
X130805614Y-118703656D01*
X130805612Y-118703655D01*
X130560073Y-118647612D01*
X130487456Y-118631038D01*
X130487453Y-118631037D01*
X130487441Y-118631035D01*
X130163175Y-118594500D01*
X130163169Y-118594500D01*
X129836831Y-118594500D01*
X129836824Y-118594500D01*
X129512558Y-118631035D01*
X129512544Y-118631038D01*
X129194387Y-118703655D01*
X129194385Y-118703656D01*
X128886359Y-118811438D01*
X128592342Y-118953030D01*
X128316022Y-119126653D01*
X128060879Y-119330122D01*
X127830122Y-119560879D01*
X127626653Y-119816022D01*
X127453030Y-120092342D01*
X127311438Y-120386359D01*
X127203656Y-120694385D01*
X127203655Y-120694387D01*
X127131038Y-121012544D01*
X127131035Y-121012558D01*
X127094500Y-121336824D01*
X112905499Y-121336824D01*
X112868962Y-121012544D01*
X112796344Y-120694387D01*
X112688562Y-120386361D01*
X112546968Y-120092340D01*
X112373346Y-119816021D01*
X112169877Y-119560879D01*
X111939121Y-119330123D01*
X111683979Y-119126654D01*
X111407660Y-118953032D01*
X111407657Y-118953030D01*
X111113640Y-118811438D01*
X110805614Y-118703656D01*
X110805612Y-118703655D01*
X110560073Y-118647612D01*
X110487456Y-118631038D01*
X110487453Y-118631037D01*
X110487441Y-118631035D01*
X110163175Y-118594500D01*
X110163169Y-118594500D01*
X109836831Y-118594500D01*
X109836824Y-118594500D01*
X109512558Y-118631035D01*
X109512544Y-118631038D01*
X109194387Y-118703655D01*
X109194385Y-118703656D01*
X108886359Y-118811438D01*
X108592342Y-118953030D01*
X108316022Y-119126653D01*
X108060879Y-119330122D01*
X107830122Y-119560879D01*
X107626653Y-119816022D01*
X107453030Y-120092342D01*
X107311438Y-120386359D01*
X107203656Y-120694385D01*
X107203655Y-120694387D01*
X107131038Y-121012544D01*
X107131035Y-121012558D01*
X107094500Y-121336824D01*
X96700500Y-121336824D01*
X96700500Y-116827525D01*
X122049500Y-116827525D01*
X122049500Y-116972475D01*
X122076714Y-117074038D01*
X122087017Y-117112488D01*
X122159488Y-117238011D01*
X122159490Y-117238013D01*
X122159491Y-117238015D01*
X122261985Y-117340509D01*
X122261986Y-117340510D01*
X122261988Y-117340511D01*
X122387511Y-117412982D01*
X122387512Y-117412982D01*
X122387515Y-117412984D01*
X122527525Y-117450500D01*
X122527528Y-117450500D01*
X122672472Y-117450500D01*
X122672475Y-117450500D01*
X122812485Y-117412984D01*
X122938015Y-117340509D01*
X123016706Y-117261818D01*
X123078030Y-117228334D01*
X123104387Y-117225500D01*
X148495613Y-117225500D01*
X148562652Y-117245185D01*
X148583294Y-117261818D01*
X148661985Y-117340509D01*
X148661987Y-117340510D01*
X148661988Y-117340511D01*
X148787511Y-117412982D01*
X148787512Y-117412982D01*
X148787515Y-117412984D01*
X148927525Y-117450500D01*
X148927528Y-117450500D01*
X149072472Y-117450500D01*
X149072475Y-117450500D01*
X149212485Y-117412984D01*
X149338015Y-117340509D01*
X149440509Y-117238015D01*
X149512984Y-117112485D01*
X149550500Y-116972475D01*
X149550500Y-116827525D01*
X149512984Y-116687515D01*
X149484406Y-116638017D01*
X149440511Y-116561988D01*
X149440506Y-116561982D01*
X149338017Y-116459493D01*
X149338011Y-116459488D01*
X149212488Y-116387017D01*
X149212489Y-116387017D01*
X149201006Y-116383940D01*
X149072475Y-116349500D01*
X148927525Y-116349500D01*
X148798993Y-116383940D01*
X148787511Y-116387017D01*
X148661988Y-116459488D01*
X148583294Y-116538182D01*
X148521970Y-116571666D01*
X148495613Y-116574500D01*
X123104387Y-116574500D01*
X123037348Y-116554815D01*
X123016706Y-116538182D01*
X122991009Y-116512485D01*
X122938015Y-116459491D01*
X122938012Y-116459489D01*
X122938011Y-116459488D01*
X122812488Y-116387017D01*
X122812489Y-116387017D01*
X122801006Y-116383940D01*
X122672475Y-116349500D01*
X122527525Y-116349500D01*
X122398993Y-116383940D01*
X122387511Y-116387017D01*
X122261988Y-116459488D01*
X122261982Y-116459493D01*
X122159493Y-116561982D01*
X122159488Y-116561988D01*
X122087017Y-116687511D01*
X122087016Y-116687515D01*
X122049500Y-116827525D01*
X96700500Y-116827525D01*
X96700500Y-114627525D01*
X151249500Y-114627525D01*
X151249500Y-114772475D01*
X151276529Y-114873346D01*
X151287017Y-114912488D01*
X151359488Y-115038011D01*
X151359490Y-115038013D01*
X151359491Y-115038015D01*
X151461985Y-115140509D01*
X151461986Y-115140510D01*
X151461988Y-115140511D01*
X151587511Y-115212982D01*
X151587512Y-115212982D01*
X151587515Y-115212984D01*
X151727525Y-115250500D01*
X151727528Y-115250500D01*
X151872472Y-115250500D01*
X151872475Y-115250500D01*
X152012485Y-115212984D01*
X152138015Y-115140509D01*
X152216706Y-115061818D01*
X152278030Y-115028334D01*
X152304387Y-115025500D01*
X156895613Y-115025500D01*
X156962652Y-115045185D01*
X156983294Y-115061818D01*
X157061985Y-115140509D01*
X157061987Y-115140510D01*
X157061988Y-115140511D01*
X157187511Y-115212982D01*
X157187512Y-115212982D01*
X157187515Y-115212984D01*
X157327525Y-115250500D01*
X157327528Y-115250500D01*
X157472472Y-115250500D01*
X157472475Y-115250500D01*
X157612485Y-115212984D01*
X157738015Y-115140509D01*
X157840509Y-115038015D01*
X157912984Y-114912485D01*
X157950500Y-114772475D01*
X157950500Y-114627525D01*
X157912984Y-114487515D01*
X157846098Y-114371666D01*
X157840511Y-114361988D01*
X157840506Y-114361982D01*
X157738017Y-114259493D01*
X157738011Y-114259488D01*
X157612488Y-114187017D01*
X157612489Y-114187017D01*
X157601006Y-114183940D01*
X157472475Y-114149500D01*
X157327525Y-114149500D01*
X157198993Y-114183940D01*
X157187511Y-114187017D01*
X157061988Y-114259488D01*
X156983294Y-114338182D01*
X156921970Y-114371666D01*
X156895613Y-114374500D01*
X152304387Y-114374500D01*
X152237348Y-114354815D01*
X152216706Y-114338182D01*
X152138015Y-114259491D01*
X152138012Y-114259489D01*
X152138011Y-114259488D01*
X152012488Y-114187017D01*
X152012489Y-114187017D01*
X152001006Y-114183940D01*
X151872475Y-114149500D01*
X151727525Y-114149500D01*
X151598993Y-114183940D01*
X151587511Y-114187017D01*
X151461988Y-114259488D01*
X151461982Y-114259493D01*
X151359493Y-114361982D01*
X151359488Y-114361988D01*
X151287017Y-114487511D01*
X151287016Y-114487515D01*
X151249500Y-114627525D01*
X96700500Y-114627525D01*
X96700500Y-105326933D01*
X96720185Y-105259894D01*
X96772989Y-105214139D01*
X96842147Y-105204195D01*
X96905703Y-105233220D01*
X96943159Y-105290936D01*
X96957676Y-105338791D01*
X96963439Y-105357788D01*
X97267163Y-105926014D01*
X97267166Y-105926018D01*
X97267167Y-105926020D01*
X97315726Y-105985189D01*
X97675915Y-106424083D01*
X97923560Y-106627319D01*
X98173979Y-106832832D01*
X98173982Y-106832833D01*
X98173984Y-106832835D01*
X98742210Y-107136559D01*
X98742212Y-107136559D01*
X98742215Y-107136561D01*
X99358786Y-107323596D01*
X100000000Y-107386749D01*
X100641213Y-107323596D01*
X101257784Y-107136561D01*
X101259850Y-107135457D01*
X101566280Y-106971666D01*
X101826020Y-106832832D01*
X102324083Y-106424083D01*
X102732832Y-105926020D01*
X103013104Y-105401669D01*
X103036559Y-105357788D01*
X103036559Y-105357787D01*
X103036561Y-105357784D01*
X103223596Y-104741213D01*
X103286750Y-104100000D01*
X103223596Y-103458786D01*
X103223099Y-103457147D01*
X128674500Y-103457147D01*
X128674500Y-107342852D01*
X128696682Y-107425640D01*
X128718108Y-107462750D01*
X128739535Y-107499862D01*
X128739536Y-107499863D01*
X128739537Y-107499864D01*
X129735194Y-108495520D01*
X129735204Y-108495531D01*
X129739534Y-108499861D01*
X129739535Y-108499862D01*
X129800138Y-108560465D01*
X129800140Y-108560466D01*
X129800144Y-108560469D01*
X129823446Y-108573922D01*
X129874362Y-108603318D01*
X129886930Y-108606685D01*
X129946590Y-108643049D01*
X129976454Y-108702268D01*
X130002763Y-108834532D01*
X130002766Y-108834542D01*
X130058204Y-108968383D01*
X130058211Y-108968396D01*
X130138699Y-109088853D01*
X130138702Y-109088857D01*
X130217164Y-109167319D01*
X130220056Y-109172615D01*
X130225057Y-109175996D01*
X130236608Y-109202928D01*
X130250649Y-109228642D01*
X130250218Y-109234661D01*
X130252598Y-109240209D01*
X130247755Y-109269107D01*
X130245665Y-109298334D01*
X130241791Y-109304692D01*
X130241050Y-109309118D01*
X130227484Y-109328179D01*
X130221284Y-109338358D01*
X130219270Y-109340575D01*
X130138700Y-109421146D01*
X130118054Y-109452043D01*
X130111867Y-109458858D01*
X130089584Y-109472457D01*
X130069556Y-109489196D01*
X130058327Y-109491533D01*
X130052227Y-109495257D01*
X130041628Y-109495010D01*
X130020066Y-109499500D01*
X129860339Y-109499500D01*
X129860323Y-109499499D01*
X129852727Y-109499499D01*
X129747273Y-109499499D01*
X129679366Y-109517695D01*
X129645412Y-109526793D01*
X129554084Y-109579522D01*
X129279522Y-109854084D01*
X129279520Y-109854087D01*
X129226792Y-109945413D01*
X129205297Y-110025637D01*
X129199500Y-110047270D01*
X129199500Y-112152726D01*
X129226793Y-112254589D01*
X129257235Y-112307316D01*
X129279520Y-112345913D01*
X129479519Y-112545911D01*
X129479520Y-112545913D01*
X129554087Y-112620480D01*
X129584459Y-112638015D01*
X129645411Y-112673206D01*
X129645412Y-112673206D01*
X129645413Y-112673207D01*
X129747273Y-112700501D01*
X129747275Y-112700501D01*
X129860323Y-112700501D01*
X129860339Y-112700500D01*
X139570614Y-112700500D01*
X139637653Y-112720185D01*
X139658295Y-112736819D01*
X139661985Y-112740509D01*
X139661986Y-112740510D01*
X139661988Y-112740511D01*
X139787511Y-112812982D01*
X139787512Y-112812982D01*
X139787515Y-112812984D01*
X139927525Y-112850500D01*
X139927528Y-112850500D01*
X140072472Y-112850500D01*
X140072475Y-112850500D01*
X140212485Y-112812984D01*
X140338015Y-112740509D01*
X140440509Y-112638015D01*
X140512984Y-112512485D01*
X140550500Y-112372475D01*
X140550500Y-112336824D01*
X165094500Y-112336824D01*
X165094500Y-112663175D01*
X165131035Y-112987441D01*
X165131038Y-112987455D01*
X165203655Y-113305612D01*
X165203656Y-113305614D01*
X165311438Y-113613640D01*
X165453030Y-113907657D01*
X165453032Y-113907660D01*
X165626654Y-114183979D01*
X165830123Y-114439121D01*
X166060879Y-114669877D01*
X166316021Y-114873346D01*
X166592340Y-115046968D01*
X166886361Y-115188562D01*
X167194387Y-115296344D01*
X167512544Y-115368962D01*
X167512553Y-115368963D01*
X167512558Y-115368964D01*
X167728735Y-115393320D01*
X167836825Y-115405499D01*
X167836828Y-115405500D01*
X167836831Y-115405500D01*
X168163172Y-115405500D01*
X168163173Y-115405499D01*
X168328900Y-115386826D01*
X168487441Y-115368964D01*
X168487444Y-115368963D01*
X168487456Y-115368962D01*
X168805613Y-115296344D01*
X169113639Y-115188562D01*
X169407660Y-115046968D01*
X169683979Y-114873346D01*
X169939121Y-114669877D01*
X170169877Y-114439121D01*
X170373346Y-114183979D01*
X170546968Y-113907660D01*
X170688562Y-113613639D01*
X170796344Y-113305613D01*
X170868962Y-112987456D01*
X170905500Y-112663169D01*
X170905500Y-112336831D01*
X170868962Y-112012544D01*
X170796344Y-111694387D01*
X170688562Y-111386361D01*
X170546968Y-111092340D01*
X170373346Y-110816021D01*
X170169877Y-110560879D01*
X169939121Y-110330123D01*
X169683979Y-110126654D01*
X169461747Y-109987017D01*
X169407657Y-109953030D01*
X169113640Y-109811438D01*
X168805614Y-109703656D01*
X168805612Y-109703655D01*
X168524683Y-109639535D01*
X168487456Y-109631038D01*
X168487453Y-109631037D01*
X168487441Y-109631035D01*
X168163175Y-109594500D01*
X168163169Y-109594500D01*
X167836831Y-109594500D01*
X167836824Y-109594500D01*
X167512558Y-109631035D01*
X167512544Y-109631038D01*
X167194387Y-109703655D01*
X167194385Y-109703656D01*
X166886359Y-109811438D01*
X166592342Y-109953030D01*
X166316022Y-110126653D01*
X166060879Y-110330122D01*
X165830122Y-110560879D01*
X165626653Y-110816022D01*
X165453030Y-111092342D01*
X165311438Y-111386359D01*
X165203656Y-111694385D01*
X165203655Y-111694387D01*
X165131038Y-112012544D01*
X165131035Y-112012558D01*
X165094500Y-112336824D01*
X140550500Y-112336824D01*
X140550500Y-112227525D01*
X140512984Y-112087515D01*
X140469707Y-112012558D01*
X140440511Y-111961988D01*
X140440506Y-111961982D01*
X140338017Y-111859493D01*
X140338011Y-111859488D01*
X140212488Y-111787017D01*
X140212489Y-111787017D01*
X140201006Y-111783940D01*
X140072475Y-111749500D01*
X139927525Y-111749500D01*
X139798993Y-111783940D01*
X139787511Y-111787017D01*
X139661988Y-111859488D01*
X139661982Y-111859493D01*
X139658295Y-111863181D01*
X139596972Y-111896666D01*
X139570614Y-111899500D01*
X133440017Y-111899500D01*
X133372978Y-111879815D01*
X133327223Y-111827011D01*
X133317279Y-111757853D01*
X133346304Y-111694297D01*
X133352336Y-111687819D01*
X133411297Y-111628857D01*
X133411300Y-111628854D01*
X133491792Y-111508390D01*
X133547235Y-111374538D01*
X133575500Y-111232440D01*
X133575500Y-111087560D01*
X133547235Y-110945462D01*
X133512589Y-110861818D01*
X133491795Y-110811616D01*
X133491788Y-110811603D01*
X133411300Y-110691146D01*
X133411297Y-110691142D01*
X133403192Y-110683037D01*
X133369707Y-110621714D01*
X133374691Y-110552022D01*
X133403193Y-110507674D01*
X133488584Y-110422284D01*
X133488587Y-110422280D01*
X133579963Y-110285527D01*
X133579970Y-110285514D01*
X133642910Y-110133562D01*
X133642913Y-110133553D01*
X133651576Y-110090000D01*
X132749000Y-110090000D01*
X132705970Y-110077364D01*
X132736148Y-110025095D01*
X132760000Y-109936078D01*
X132760000Y-109843922D01*
X132736148Y-109754905D01*
X132698675Y-109690000D01*
X132825000Y-109690000D01*
X133651576Y-109690000D01*
X133651576Y-109689999D01*
X133642913Y-109646446D01*
X133642910Y-109646437D01*
X133579970Y-109494485D01*
X133579963Y-109494472D01*
X133488588Y-109357720D01*
X133473551Y-109342684D01*
X133440064Y-109281361D01*
X133445047Y-109211669D01*
X133473551Y-109167316D01*
X133488588Y-109152279D01*
X133579963Y-109015527D01*
X133579970Y-109015514D01*
X133642910Y-108863562D01*
X133642913Y-108863553D01*
X133651576Y-108820000D01*
X132825000Y-108820000D01*
X132825000Y-109690000D01*
X132698675Y-109690000D01*
X132690070Y-109675095D01*
X132624905Y-109609930D01*
X132545095Y-109563852D01*
X132456078Y-109540000D01*
X132425000Y-109540000D01*
X132425000Y-108970000D01*
X132456078Y-108970000D01*
X132545095Y-108946148D01*
X132624905Y-108900070D01*
X132690070Y-108834905D01*
X132736148Y-108755095D01*
X132760000Y-108666078D01*
X132760000Y-108573922D01*
X132736148Y-108484905D01*
X132698675Y-108420000D01*
X132825000Y-108420000D01*
X133651576Y-108420000D01*
X133651576Y-108419999D01*
X133642913Y-108376446D01*
X133642910Y-108376437D01*
X133579970Y-108224485D01*
X133579963Y-108224472D01*
X133488588Y-108087720D01*
X133473551Y-108072684D01*
X133440064Y-108011361D01*
X133445047Y-107941669D01*
X133473551Y-107897316D01*
X133488588Y-107882279D01*
X133579963Y-107745527D01*
X133579970Y-107745514D01*
X133642910Y-107593562D01*
X133642913Y-107593553D01*
X133651576Y-107550000D01*
X132825000Y-107550000D01*
X132825000Y-108420000D01*
X132698675Y-108420000D01*
X132690070Y-108405095D01*
X132624905Y-108339930D01*
X132545095Y-108293852D01*
X132456078Y-108270000D01*
X132425000Y-108270000D01*
X132425000Y-107700000D01*
X132456078Y-107700000D01*
X132545095Y-107676148D01*
X132624905Y-107630070D01*
X132690070Y-107564905D01*
X132736148Y-107485095D01*
X132760000Y-107396078D01*
X132760000Y-107303922D01*
X132736148Y-107214905D01*
X132698675Y-107150000D01*
X132825000Y-107150000D01*
X133651576Y-107150000D01*
X133651576Y-107149999D01*
X133642913Y-107106446D01*
X133642910Y-107106437D01*
X133579970Y-106954485D01*
X133579963Y-106954472D01*
X133488588Y-106817720D01*
X133473551Y-106802684D01*
X133440064Y-106741361D01*
X133445047Y-106671669D01*
X133473551Y-106627316D01*
X133488588Y-106612279D01*
X133579963Y-106475527D01*
X133579970Y-106475514D01*
X133642910Y-106323562D01*
X133642913Y-106323553D01*
X133651576Y-106280000D01*
X132825000Y-106280000D01*
X132825000Y-107150000D01*
X132698675Y-107150000D01*
X132690070Y-107135095D01*
X132624905Y-107069930D01*
X132545095Y-107023852D01*
X132456078Y-107000000D01*
X132425000Y-107000000D01*
X132425000Y-106430000D01*
X132456078Y-106430000D01*
X132545095Y-106406148D01*
X132624905Y-106360070D01*
X132690070Y-106294905D01*
X132736148Y-106215095D01*
X132760000Y-106126078D01*
X132760000Y-106033922D01*
X132736148Y-105944905D01*
X132698675Y-105880000D01*
X132825000Y-105880000D01*
X133651576Y-105880000D01*
X133651576Y-105879999D01*
X133642913Y-105836446D01*
X133642910Y-105836437D01*
X133579970Y-105684485D01*
X133579963Y-105684472D01*
X133488588Y-105547720D01*
X133473551Y-105532684D01*
X133440064Y-105471361D01*
X133445047Y-105401669D01*
X133473551Y-105357316D01*
X133488588Y-105342279D01*
X133579963Y-105205527D01*
X133579970Y-105205514D01*
X133642910Y-105053562D01*
X133642913Y-105053553D01*
X133651576Y-105010000D01*
X132825000Y-105010000D01*
X132825000Y-105880000D01*
X132698675Y-105880000D01*
X132690070Y-105865095D01*
X132624905Y-105799930D01*
X132545095Y-105753852D01*
X132456078Y-105730000D01*
X132425000Y-105730000D01*
X132425000Y-105160000D01*
X132456078Y-105160000D01*
X132545095Y-105136148D01*
X132624905Y-105090070D01*
X132690070Y-105024905D01*
X132736148Y-104945095D01*
X132760000Y-104856078D01*
X132760000Y-104763922D01*
X132736148Y-104674905D01*
X132704290Y-104619726D01*
X132749000Y-104610000D01*
X133651576Y-104610000D01*
X133654075Y-104606955D01*
X133711820Y-104567619D01*
X133781664Y-104565748D01*
X133837610Y-104597937D01*
X140000138Y-110760465D01*
X140074361Y-110803318D01*
X140157147Y-110825500D01*
X153495613Y-110825500D01*
X153562652Y-110845185D01*
X153583294Y-110861818D01*
X153661985Y-110940509D01*
X153661987Y-110940510D01*
X153661988Y-110940511D01*
X153787511Y-111012982D01*
X153787512Y-111012982D01*
X153787515Y-111012984D01*
X153927525Y-111050500D01*
X153927528Y-111050500D01*
X154072472Y-111050500D01*
X154072475Y-111050500D01*
X154212485Y-111012984D01*
X154338015Y-110940509D01*
X154440509Y-110838015D01*
X154492613Y-110747769D01*
X154543180Y-110699553D01*
X154611787Y-110686331D01*
X154676652Y-110712299D01*
X154707387Y-110747769D01*
X154714717Y-110760464D01*
X154759491Y-110838015D01*
X154861985Y-110940509D01*
X154861986Y-110940510D01*
X154861988Y-110940511D01*
X154987511Y-111012982D01*
X154987512Y-111012982D01*
X154987515Y-111012984D01*
X155127525Y-111050500D01*
X155127528Y-111050500D01*
X155272472Y-111050500D01*
X155272475Y-111050500D01*
X155412485Y-111012984D01*
X155538015Y-110940509D01*
X155640509Y-110838015D01*
X155712984Y-110712485D01*
X155750500Y-110572475D01*
X155750500Y-110427525D01*
X155712984Y-110287515D01*
X155711836Y-110285527D01*
X155640511Y-110161988D01*
X155640506Y-110161982D01*
X155538017Y-110059493D01*
X155538011Y-110059488D01*
X155412488Y-109987017D01*
X155412489Y-109987017D01*
X155401006Y-109983940D01*
X155272475Y-109949500D01*
X155245395Y-109949500D01*
X155226043Y-109943817D01*
X155205886Y-109943038D01*
X155193199Y-109934173D01*
X155178356Y-109929815D01*
X155165149Y-109914573D01*
X155148613Y-109903019D01*
X155139448Y-109884913D01*
X155132601Y-109877011D01*
X155130693Y-109872612D01*
X155125501Y-109859971D01*
X155125501Y-109857147D01*
X155103318Y-109774361D01*
X155062496Y-109703656D01*
X155060465Y-109700138D01*
X155059423Y-109699096D01*
X155059423Y-109699095D01*
X154995543Y-109635215D01*
X154995520Y-109635194D01*
X154267405Y-108907079D01*
X154195231Y-108834905D01*
X154187851Y-108827525D01*
X158249500Y-108827525D01*
X158249500Y-108972475D01*
X158261036Y-109015527D01*
X158287017Y-109112488D01*
X158359488Y-109238011D01*
X158359490Y-109238013D01*
X158359491Y-109238015D01*
X158461985Y-109340509D01*
X158461986Y-109340510D01*
X158461988Y-109340511D01*
X158587511Y-109412982D01*
X158587512Y-109412982D01*
X158587515Y-109412984D01*
X158727525Y-109450500D01*
X158727528Y-109450500D01*
X158872472Y-109450500D01*
X158872475Y-109450500D01*
X159012485Y-109412984D01*
X159138015Y-109340509D01*
X159141705Y-109336819D01*
X159203028Y-109303334D01*
X159229386Y-109300500D01*
X175570614Y-109300500D01*
X175637653Y-109320185D01*
X175658295Y-109336819D01*
X175661985Y-109340509D01*
X175661986Y-109340510D01*
X175661988Y-109340511D01*
X175787511Y-109412982D01*
X175787512Y-109412982D01*
X175787515Y-109412984D01*
X175927525Y-109450500D01*
X175927528Y-109450500D01*
X176072472Y-109450500D01*
X176072475Y-109450500D01*
X176212485Y-109412984D01*
X176338015Y-109340509D01*
X176440509Y-109238015D01*
X176512984Y-109112485D01*
X176550500Y-108972475D01*
X176550500Y-108827525D01*
X176512984Y-108687515D01*
X176508832Y-108680324D01*
X176440511Y-108561988D01*
X176440506Y-108561982D01*
X176338017Y-108459493D01*
X176338011Y-108459488D01*
X176212488Y-108387017D01*
X176212489Y-108387017D01*
X176201006Y-108383940D01*
X176072475Y-108349500D01*
X175927525Y-108349500D01*
X175798993Y-108383940D01*
X175787511Y-108387017D01*
X175661988Y-108459488D01*
X175661982Y-108459493D01*
X175658295Y-108463181D01*
X175596972Y-108496666D01*
X175570614Y-108499500D01*
X159229386Y-108499500D01*
X159162347Y-108479815D01*
X159141705Y-108463181D01*
X159138017Y-108459493D01*
X159138011Y-108459488D01*
X159012488Y-108387017D01*
X159012489Y-108387017D01*
X159001006Y-108383940D01*
X158872475Y-108349500D01*
X158727525Y-108349500D01*
X158598993Y-108383940D01*
X158587511Y-108387017D01*
X158461988Y-108459488D01*
X158461982Y-108459493D01*
X158359493Y-108561982D01*
X158359488Y-108561988D01*
X158287017Y-108687511D01*
X158287016Y-108687515D01*
X158249500Y-108827525D01*
X154187851Y-108827525D01*
X153399862Y-108039535D01*
X153325639Y-107996682D01*
X153320194Y-107995223D01*
X153260535Y-107958856D01*
X153230007Y-107896008D01*
X153238304Y-107826633D01*
X153273204Y-107779944D01*
X153281245Y-107773285D01*
X153338015Y-107740509D01*
X153420815Y-107657708D01*
X153425300Y-107653995D01*
X153452267Y-107642400D01*
X153478030Y-107628334D01*
X153487305Y-107627336D01*
X153489489Y-107626398D01*
X153492055Y-107626825D01*
X153504387Y-107625500D01*
X170295613Y-107625500D01*
X170362652Y-107645185D01*
X170383294Y-107661818D01*
X170461985Y-107740509D01*
X170461987Y-107740510D01*
X170461988Y-107740511D01*
X170587511Y-107812982D01*
X170587512Y-107812982D01*
X170587515Y-107812984D01*
X170727525Y-107850500D01*
X170727528Y-107850500D01*
X170872472Y-107850500D01*
X170872475Y-107850500D01*
X171012485Y-107812984D01*
X171138015Y-107740509D01*
X171240509Y-107638015D01*
X171312984Y-107512485D01*
X171350500Y-107372475D01*
X171350500Y-107227525D01*
X171312984Y-107087515D01*
X171302831Y-107069930D01*
X171240511Y-106961988D01*
X171240506Y-106961982D01*
X171138017Y-106859493D01*
X171138011Y-106859488D01*
X171012488Y-106787017D01*
X171012489Y-106787017D01*
X171001006Y-106783940D01*
X170872475Y-106749500D01*
X170727525Y-106749500D01*
X170598993Y-106783940D01*
X170587511Y-106787017D01*
X170461988Y-106859488D01*
X170383294Y-106938182D01*
X170321970Y-106971666D01*
X170295613Y-106974500D01*
X153504387Y-106974500D01*
X153437348Y-106954815D01*
X153416706Y-106938182D01*
X153338015Y-106859491D01*
X153338012Y-106859489D01*
X153338011Y-106859488D01*
X153212488Y-106787017D01*
X153212489Y-106787017D01*
X153201006Y-106783940D01*
X153072475Y-106749500D01*
X152927525Y-106749500D01*
X152798993Y-106783940D01*
X152787511Y-106787017D01*
X152661988Y-106859488D01*
X152661982Y-106859493D01*
X152559493Y-106961982D01*
X152559488Y-106961988D01*
X152487017Y-107087511D01*
X152487016Y-107087515D01*
X152449500Y-107227525D01*
X152449500Y-107372475D01*
X152483634Y-107499862D01*
X152487017Y-107512488D01*
X152559488Y-107638011D01*
X152559490Y-107638013D01*
X152559491Y-107638015D01*
X152661985Y-107740509D01*
X152661988Y-107740510D01*
X152661991Y-107740513D01*
X152666496Y-107743114D01*
X152714711Y-107793681D01*
X152727933Y-107862288D01*
X152701965Y-107927153D01*
X152645050Y-107967681D01*
X152604495Y-107974500D01*
X139386188Y-107974500D01*
X139319149Y-107954815D01*
X139298507Y-107938181D01*
X136867406Y-105507079D01*
X136787852Y-105427525D01*
X149249500Y-105427525D01*
X149249500Y-105572475D01*
X149283634Y-105699862D01*
X149287017Y-105712488D01*
X149359488Y-105838011D01*
X149359490Y-105838013D01*
X149359491Y-105838015D01*
X149461985Y-105940509D01*
X149461986Y-105940510D01*
X149461988Y-105940511D01*
X149587511Y-106012982D01*
X149587512Y-106012982D01*
X149587515Y-106012984D01*
X149727525Y-106050500D01*
X149727528Y-106050500D01*
X149872472Y-106050500D01*
X149872475Y-106050500D01*
X150012485Y-106012984D01*
X150138015Y-105940509D01*
X150141705Y-105936819D01*
X150203028Y-105903334D01*
X150229386Y-105900500D01*
X154570614Y-105900500D01*
X154637653Y-105920185D01*
X154658295Y-105936819D01*
X154661985Y-105940509D01*
X154661986Y-105940510D01*
X154661988Y-105940511D01*
X154787511Y-106012982D01*
X154787512Y-106012982D01*
X154787515Y-106012984D01*
X154927525Y-106050500D01*
X154927528Y-106050500D01*
X155072472Y-106050500D01*
X155072475Y-106050500D01*
X155212485Y-106012984D01*
X155338015Y-105940509D01*
X155440509Y-105838015D01*
X155512984Y-105712485D01*
X155550500Y-105572475D01*
X155550500Y-105427525D01*
X155512984Y-105287515D01*
X155497573Y-105260823D01*
X155440511Y-105161988D01*
X155440506Y-105161982D01*
X155338017Y-105059493D01*
X155338011Y-105059488D01*
X155212488Y-104987017D01*
X155212489Y-104987017D01*
X155201006Y-104983940D01*
X155072475Y-104949500D01*
X154927525Y-104949500D01*
X154798993Y-104983940D01*
X154787511Y-104987017D01*
X154661988Y-105059488D01*
X154661982Y-105059493D01*
X154658295Y-105063181D01*
X154596972Y-105096666D01*
X154570614Y-105099500D01*
X150229386Y-105099500D01*
X150162347Y-105079815D01*
X150141705Y-105063181D01*
X150138017Y-105059493D01*
X150138011Y-105059488D01*
X150012488Y-104987017D01*
X150012489Y-104987017D01*
X150001006Y-104983940D01*
X149872475Y-104949500D01*
X149727525Y-104949500D01*
X149598993Y-104983940D01*
X149587511Y-104987017D01*
X149461988Y-105059488D01*
X149461982Y-105059493D01*
X149359493Y-105161982D01*
X149359488Y-105161988D01*
X149287017Y-105287511D01*
X149287016Y-105287515D01*
X149249500Y-105427525D01*
X136787852Y-105427525D01*
X135377144Y-104016817D01*
X135343659Y-103955494D01*
X135348643Y-103885802D01*
X135390515Y-103829869D01*
X135455979Y-103805452D01*
X135496911Y-103809360D01*
X135557147Y-103825500D01*
X145095613Y-103825500D01*
X145162652Y-103845185D01*
X145183294Y-103861818D01*
X145261985Y-103940509D01*
X145261987Y-103940510D01*
X145261988Y-103940511D01*
X145387511Y-104012982D01*
X145387512Y-104012982D01*
X145387515Y-104012984D01*
X145527525Y-104050500D01*
X145527528Y-104050500D01*
X145672472Y-104050500D01*
X145672475Y-104050500D01*
X145812485Y-104012984D01*
X145938015Y-103940509D01*
X146040509Y-103838015D01*
X146112984Y-103712485D01*
X146150500Y-103572475D01*
X146150500Y-103427525D01*
X146112984Y-103287515D01*
X146046098Y-103171666D01*
X146040511Y-103161988D01*
X146040506Y-103161982D01*
X145938017Y-103059493D01*
X145938011Y-103059488D01*
X145812488Y-102987017D01*
X145812489Y-102987017D01*
X145801006Y-102983940D01*
X145672475Y-102949500D01*
X145527525Y-102949500D01*
X145398993Y-102983940D01*
X145387511Y-102987017D01*
X145261988Y-103059488D01*
X145183294Y-103138182D01*
X145121970Y-103171666D01*
X145095613Y-103174500D01*
X135786189Y-103174500D01*
X135719150Y-103154815D01*
X135698508Y-103138181D01*
X134599864Y-102039537D01*
X134599862Y-102039535D01*
X134562750Y-102018108D01*
X134525640Y-101996682D01*
X134484246Y-101985591D01*
X134442853Y-101974500D01*
X130242853Y-101974500D01*
X130157147Y-101974500D01*
X130074359Y-101996682D01*
X130000138Y-102039535D01*
X130000135Y-102039537D01*
X128739537Y-103300135D01*
X128739533Y-103300141D01*
X128696681Y-103374361D01*
X128696682Y-103374362D01*
X128674500Y-103457147D01*
X103223099Y-103457147D01*
X103036561Y-102842215D01*
X103036559Y-102842212D01*
X103036559Y-102842210D01*
X102732835Y-102273984D01*
X102732833Y-102273982D01*
X102732832Y-102273979D01*
X102505261Y-101996682D01*
X102324083Y-101775915D01*
X101826021Y-101367168D01*
X101826014Y-101367163D01*
X101257788Y-101063439D01*
X101238791Y-101057676D01*
X101190936Y-101043159D01*
X101132499Y-101004863D01*
X101104043Y-100941051D01*
X101114603Y-100871984D01*
X101160827Y-100819590D01*
X101226933Y-100800500D01*
X180473066Y-100800500D01*
X180489651Y-100805370D01*
G37*
%TD.AperFunction*%
%TD*%
M02*
