M48
; DRILL file {KiCad 9.0.9-9.0.9~ubuntu24.04.1} date 2026-09-27T02:31:35+0000
; FORMAT={-:-/ absolute / metric / decimal}
; #@! TF.CreationDate,2026-09-27T02:31:35+00:00
; #@! TF.GenerationSoftware,Kicad,Pcbnew,9.0.9-9.0.9~ubuntu24.04.1
; #@! TF.FileFunction,MixedPlating,1,2
FMAT,2
METRIC
; #@! TA.AperFunction,Plated,PTH,ViaDrill
T1C0.300
; #@! TA.AperFunction,Plated,PTH,ComponentDrill
T2C1.200
; #@! TA.AperFunction,NonPlated,NPTH,ComponentDrill
T3C2.200
; #@! TA.AperFunction,NonPlated,NPTH,ComponentDrill
T4C5.250
%
G90
G05
T1
X106.5Y-115.8
X107.3Y-116.0
X115.3Y-116.0
X123.3Y-129.6
X123.5Y-130.4
X127.3Y-115.8
X128.5Y-117.0
X129.1Y-117.8
X129.3Y-115.8
X129.5Y-129.8
X130.3Y-128.6
X131.7Y-117.4
X133.3Y-115.8
X134.3Y-122.8
X134.5Y-117.0
X134.5Y-124.4
X135.3Y-119.4
X136.1Y-116.6
X137.1Y-129.4
X138.7Y-127.2
X141.1Y-130.2
X142.1Y-129.4
X142.7Y-118.8
X142.7Y-127.0
X143.3Y-129.4
X143.5Y-123.6
X144.1Y-121.6
X144.5Y-131.0
X145.5Y-123.4
X146.1Y-116.8
X146.1Y-122.8
X146.7Y-116.0
X147.5Y-115.4
X152.5Y-116.0
X154.1Y-116.8
X162.7Y-107.0
X162.7Y-125.0
X164.5Y-106.8
X164.7Y-124.2
X165.3Y-107.0
X165.5Y-124.4
X170.7Y-107.0
X170.7Y-124.0
T2
X105.6Y-126.2
X112.6Y-127.25
X125.6Y-126.2
X132.6Y-127.25
X145.6Y-126.2
X152.6Y-127.25
X163.6Y-117.2
X163.6Y-135.2
X170.6Y-118.25
X170.6Y-136.25
T3
X120.0Y-121.5
X140.0Y-121.5
T4
X110.0Y-121.5
X130.0Y-121.5
X150.0Y-121.5
X168.0Y-112.5
X168.0Y-130.5
M30
