%TF.GenerationSoftware,KiCad,Pcbnew,9.0.9-9.0.9~ubuntu24.04.1*%
%TF.CreationDate,2026-09-27T20:43:40+00:00*%
%TF.ProjectId,key-board-lh,6b65792d-626f-4617-9264-2d6c682e6b69,A*%
%TF.SameCoordinates,Original*%
%TF.FileFunction,Copper,L2,Bot*%
%TF.FilePolarity,Positive*%
%FSLAX46Y46*%
G04 Gerber Fmt 4.6, Leading zero omitted, Abs format (unit mm)*
G04 Created by KiCad (PCBNEW 9.0.9-9.0.9~ubuntu24.04.1) date 2026-09-27 20:43:40*
%MOMM*%
%LPD*%
G01*
G04 APERTURE LIST*
G04 Aperture macros list*
%AMRoundRect*
0 Rectangle with rounded corners*
0 $1 Rounding radius*
0 $2 $3 $4 $5 $6 $7 $8 $9 X,Y pos of 4 corners*
0 Add a 4 corners polygon primitive as box body*
4,1,4,$2,$3,$4,$5,$6,$7,$8,$9,$2,$3,0*
0 Add four circle primitives for the rounded corners*
1,1,$1+$1,$2,$3*
1,1,$1+$1,$4,$5*
1,1,$1+$1,$6,$7*
1,1,$1+$1,$8,$9*
0 Add four rect primitives between the rounded corners*
20,1,$1+$1,$2,$3,$4,$5,0*
20,1,$1+$1,$4,$5,$6,$7,0*
20,1,$1+$1,$6,$7,$8,$9,0*
20,1,$1+$1,$8,$9,$2,$3,0*%
G04 Aperture macros list end*
%TA.AperFunction,ComponentPad*%
%ADD10C,2.000000*%
%TD*%
%TA.AperFunction,SMDPad,CuDef*%
%ADD11RoundRect,0.250000X0.450000X-0.262500X0.450000X0.262500X-0.450000X0.262500X-0.450000X-0.262500X0*%
%TD*%
%TA.AperFunction,SMDPad,CuDef*%
%ADD12C,1.000000*%
%TD*%
%TA.AperFunction,SMDPad,CuDef*%
%ADD13RoundRect,0.250000X0.250000X0.475000X-0.250000X0.475000X-0.250000X-0.475000X0.250000X-0.475000X0*%
%TD*%
%TA.AperFunction,SMDPad,CuDef*%
%ADD14RoundRect,0.150000X0.150000X-0.825000X0.150000X0.825000X-0.150000X0.825000X-0.150000X-0.825000X0*%
%TD*%
%TA.AperFunction,SMDPad,CuDef*%
%ADD15RoundRect,0.250000X0.475000X-0.250000X0.475000X0.250000X-0.475000X0.250000X-0.475000X-0.250000X0*%
%TD*%
%TA.AperFunction,ComponentPad*%
%ADD16R,1.070000X1.070000*%
%TD*%
%TA.AperFunction,ComponentPad*%
%ADD17C,1.070000*%
%TD*%
%TA.AperFunction,ViaPad*%
%ADD18C,0.700000*%
%TD*%
%TA.AperFunction,Conductor*%
%ADD19C,0.250000*%
%TD*%
%TA.AperFunction,Conductor*%
%ADD20C,0.400000*%
%TD*%
G04 APERTURE END LIST*
D10*
%TO.P,SW-LH4,1*%
%TO.N,/LH4/SWITCH_LEG*%
X163600000Y-135200000D03*
%TO.P,SW-LH4,2*%
%TO.N,GND_CHAIN*%
X170600000Y-136250000D03*
%TD*%
%TO.P,SW-LH5,1*%
%TO.N,/LH5/SWITCH_LEG*%
X163600000Y-117200000D03*
%TO.P,SW-LH5,2*%
%TO.N,GND_CHAIN*%
X170600000Y-118250000D03*
%TD*%
%TO.P,SW-LH1,1*%
%TO.N,/LH1/SWITCH_LEG*%
X105600000Y-126200000D03*
%TO.P,SW-LH1,2*%
%TO.N,GND_CHAIN*%
X112600000Y-127250000D03*
%TD*%
%TO.P,SW-LH3,1*%
%TO.N,/LH3/SWITCH_LEG*%
X145600000Y-126200000D03*
%TO.P,SW-LH3,2*%
%TO.N,GND_CHAIN*%
X152600000Y-127250000D03*
%TD*%
%TO.P,SW-LH2,1*%
%TO.N,/LH2/SWITCH_LEG*%
X125600000Y-126200000D03*
%TO.P,SW-LH2,2*%
%TO.N,GND_CHAIN*%
X132600000Y-127250000D03*
%TD*%
D11*
%TO.P,R-KEY-SER-LH4,1*%
%TO.N,/KEY_LH4*%
X178000000Y-134112499D03*
%TO.P,R-KEY-SER-LH4,2*%
%TO.N,/LH4/SWITCH_LEG*%
X178000000Y-132287499D03*
%TD*%
D12*
%TO.P,TP-3V3-LH,1*%
%TO.N,V3V3_CHAIN_LH*%
X160500000Y-114000000D03*
%TD*%
D13*
%TO.P,C-KEY-LH1,1*%
%TO.N,/KEY_LH1*%
X118250000Y-121500000D03*
%TO.P,C-KEY-LH1,2*%
%TO.N,GND_CHAIN*%
X116350000Y-121500000D03*
%TD*%
D14*
%TO.P,U-KEYS-LH,1*%
%TO.N,/CHAIN_SHLD*%
X154945000Y-108975000D03*
%TO.P,U-KEYS-LH,2*%
%TO.N,/CHAIN_SCK*%
X153675000Y-108975000D03*
%TO.P,U-KEYS-LH,3*%
%TO.N,/KEY_LH4*%
X152405000Y-108975000D03*
%TO.P,U-KEYS-LH,4*%
%TO.N,/KEY_LH3*%
X151135000Y-108975000D03*
%TO.P,U-KEYS-LH,5*%
%TO.N,/KEY_LH2*%
X149865000Y-108975000D03*
%TO.P,U-KEYS-LH,6*%
%TO.N,/KEY_LH1*%
X148595000Y-108975000D03*
%TO.P,U-KEYS-LH,7*%
%TO.N,unconnected-(U-KEYS-LH-~{Q7}-Pad7)*%
X147325000Y-108975000D03*
%TO.P,U-KEYS-LH,8*%
%TO.N,GND_CHAIN*%
X146055000Y-108975000D03*
%TO.P,U-KEYS-LH,9*%
%TO.N,/HOP_LH_LT*%
X146055000Y-104025000D03*
%TO.P,U-KEYS-LH,10*%
%TO.N,/CHAIN_SER_LH*%
X147325000Y-104025000D03*
%TO.P,U-KEYS-LH,11*%
%TO.N,/KEY_FREE3*%
X148595000Y-104025000D03*
%TO.P,U-KEYS-LH,12*%
%TO.N,V3V3_CHAIN_LH*%
X149865000Y-104025000D03*
%TO.P,U-KEYS-LH,13*%
%TO.N,GND_CHAIN*%
X151135000Y-104025000D03*
%TO.P,U-KEYS-LH,14*%
%TO.N,/KEY_LH5*%
X152405000Y-104025000D03*
%TO.P,U-KEYS-LH,15*%
%TO.N,GND_CHAIN*%
X153675000Y-104025000D03*
%TO.P,U-KEYS-LH,16*%
%TO.N,V3V3_CHAIN_LH*%
X154945000Y-104025000D03*
%TD*%
D13*
%TO.P,C-KEY-LH2,1*%
%TO.N,/KEY_LH2*%
X138250000Y-121500000D03*
%TO.P,C-KEY-LH2,2*%
%TO.N,GND_CHAIN*%
X136350000Y-121500000D03*
%TD*%
D11*
%TO.P,R-KEY-PU-FREE3,1*%
%TO.N,V3V3_CHAIN_LH*%
X144000000Y-107412500D03*
%TO.P,R-KEY-PU-FREE3,2*%
%TO.N,/KEY_FREE3*%
X144000000Y-105587500D03*
%TD*%
D13*
%TO.P,C-KEY-LH3,1*%
%TO.N,/KEY_LH3*%
X158250000Y-121500000D03*
%TO.P,C-KEY-LH3,2*%
%TO.N,GND_CHAIN*%
X156350000Y-121500000D03*
%TD*%
%TO.P,C-DECOUPLE-165-LH,1*%
%TO.N,V3V3_CHAIN_LH*%
X155250000Y-101800000D03*
%TO.P,C-DECOUPLE-165-LH,2*%
%TO.N,GND_CHAIN*%
X153350000Y-101800000D03*
%TD*%
D11*
%TO.P,R-KEY-SER-LH5,1*%
%TO.N,/KEY_LH5*%
X178000000Y-116112500D03*
%TO.P,R-KEY-SER-LH5,2*%
%TO.N,/LH5/SWITCH_LEG*%
X178000000Y-114287500D03*
%TD*%
D12*
%TO.P,TP-SHLD-LH,1*%
%TO.N,/CHAIN_SHLD*%
X157000000Y-114000000D03*
%TD*%
D11*
%TO.P,R-KEY-PU-LH5,1*%
%TO.N,V3V3_CHAIN_LH*%
X178000000Y-110712500D03*
%TO.P,R-KEY-PU-LH5,2*%
%TO.N,/KEY_LH5*%
X178000000Y-108887500D03*
%TD*%
D15*
%TO.P,C-BULK-CHAIN-LH,1*%
%TO.N,V3V3_CHAIN_LH*%
X127000000Y-108950000D03*
%TO.P,C-BULK-CHAIN-LH,2*%
%TO.N,GND_CHAIN*%
X127000000Y-107050000D03*
%TD*%
D11*
%TO.P,R-KEY-SER-LH1,1*%
%TO.N,/KEY_LH1*%
X120000000Y-125112500D03*
%TO.P,R-KEY-SER-LH1,2*%
%TO.N,/LH1/SWITCH_LEG*%
X120000000Y-123287500D03*
%TD*%
%TO.P,R-KEY-SER-LH2,1*%
%TO.N,/KEY_LH2*%
X140000000Y-125112500D03*
%TO.P,R-KEY-SER-LH2,2*%
%TO.N,/LH2/SWITCH_LEG*%
X140000000Y-123287500D03*
%TD*%
%TO.P,R-KEY-PU-LH4,1*%
%TO.N,V3V3_CHAIN_LH*%
X178000000Y-128712500D03*
%TO.P,R-KEY-PU-LH4,2*%
%TO.N,/KEY_LH4*%
X178000000Y-126887500D03*
%TD*%
D12*
%TO.P,TP-SCK-LH,1*%
%TO.N,/CHAIN_SCK*%
X153500000Y-114000000D03*
%TD*%
D11*
%TO.P,R-KEY-PU-LH2,1*%
%TO.N,V3V3_CHAIN_LH*%
X140000000Y-119712500D03*
%TO.P,R-KEY-PU-LH2,2*%
%TO.N,/KEY_LH2*%
X140000000Y-117887500D03*
%TD*%
%TO.P,R-KEY-SER-LH3,1*%
%TO.N,/KEY_LH3*%
X160000000Y-125112500D03*
%TO.P,R-KEY-SER-LH3,2*%
%TO.N,/LH3/SWITCH_LEG*%
X160000000Y-123287500D03*
%TD*%
D12*
%TO.P,TP-QH-LH,1*%
%TO.N,/HOP_LH_LT*%
X146500000Y-114000000D03*
%TD*%
D11*
%TO.P,R-KEY-PU-LH3,1*%
%TO.N,V3V3_CHAIN_LH*%
X160000000Y-119712500D03*
%TO.P,R-KEY-PU-LH3,2*%
%TO.N,/KEY_LH3*%
X160000000Y-117887500D03*
%TD*%
D12*
%TO.P,TP-GND-LH,1*%
%TO.N,GND_CHAIN*%
X150000000Y-114000000D03*
%TD*%
D11*
%TO.P,R-KEY-PU-LH1,1*%
%TO.N,V3V3_CHAIN_LH*%
X120000000Y-119712500D03*
%TO.P,R-KEY-PU-LH1,2*%
%TO.N,/KEY_LH1*%
X120000000Y-117887500D03*
%TD*%
D13*
%TO.P,C-KEY-LH5,1*%
%TO.N,/KEY_LH5*%
X176250000Y-112500000D03*
%TO.P,C-KEY-LH5,2*%
%TO.N,GND_CHAIN*%
X174350000Y-112500000D03*
%TD*%
D16*
%TO.P,J-CHAIN,1*%
%TO.N,unconnected-(J-CHAIN-Pin_1-Pad1)*%
X130640000Y-111160000D03*
D17*
%TO.P,J-CHAIN,2*%
%TO.N,unconnected-(J-CHAIN-Pin_2-Pad2)*%
X131910000Y-111160000D03*
%TO.P,J-CHAIN,3*%
%TO.N,V3V3_CHAIN_LH*%
X130640000Y-109890000D03*
%TO.P,J-CHAIN,4*%
%TO.N,GND_CHAIN*%
X131910000Y-109890000D03*
%TO.P,J-CHAIN,5*%
%TO.N,/HOP_LH_LT*%
X130640000Y-108620000D03*
%TO.P,J-CHAIN,6*%
%TO.N,GND_CHAIN*%
X131910000Y-108620000D03*
%TO.P,J-CHAIN,7*%
%TO.N,/CHAIN_SER_LH*%
X130640000Y-107350000D03*
%TO.P,J-CHAIN,8*%
%TO.N,GND_CHAIN*%
X131910000Y-107350000D03*
%TO.P,J-CHAIN,9*%
%TO.N,/CHAIN_SHLD*%
X130640000Y-106080000D03*
%TO.P,J-CHAIN,10*%
%TO.N,GND_CHAIN*%
X131910000Y-106080000D03*
%TO.P,J-CHAIN,11*%
%TO.N,/CHAIN_SCK*%
X130640000Y-104810000D03*
%TO.P,J-CHAIN,12*%
%TO.N,GND_CHAIN*%
X131910000Y-104810000D03*
%TD*%
D13*
%TO.P,C-KEY-LH4,1*%
%TO.N,/KEY_LH4*%
X176250000Y-130500000D03*
%TO.P,C-KEY-LH4,2*%
%TO.N,GND_CHAIN*%
X174350000Y-130500000D03*
%TD*%
D12*
%TO.P,TP-SER-LH,1*%
%TO.N,/CHAIN_SER_LH*%
X143000000Y-114000000D03*
%TD*%
D18*
%TO.N,/CHAIN_SCK*%
X153600000Y-106700000D03*
%TO.N,/CHAIN_SER_LH*%
X142400000Y-111500000D03*
X142400000Y-114900000D03*
%TO.N,/CHAIN_SHLD*%
X155800000Y-108900000D03*
%TO.N,/HOP_LH_LT*%
X145200000Y-104100000D03*
X134199999Y-104100000D03*
X141400000Y-104100000D03*
X145400000Y-110500000D03*
X141400000Y-110500000D03*
%TO.N,/KEY_LH1*%
X148400000Y-115900000D03*
X120600000Y-115900000D03*
%TO.N,/KEY_LH2*%
X149800000Y-110500000D03*
X140400000Y-109500000D03*
%TO.N,/KEY_LH4*%
X152600000Y-113100000D03*
X177400000Y-117500000D03*
%TO.N,/KEY_LH5*%
X152000000Y-102500000D03*
X169200000Y-102500000D03*
%TO.N,/LH1/SWITCH_LEG*%
X121200000Y-124100000D03*
%TO.N,/LH2/SWITCH_LEG*%
X141200000Y-124100000D03*
%TO.N,/LH3/SWITCH_LEG*%
X161200000Y-124100000D03*
%TO.N,/LH4/SWITCH_LEG*%
X175200000Y-134700000D03*
%TO.N,/LH5/SWITCH_LEG*%
X177600000Y-113100000D03*
X171400000Y-113100000D03*
%TO.N,GND_CHAIN*%
X149600000Y-111700000D03*
X146400000Y-111700000D03*
X115200000Y-121500000D03*
X136600000Y-127700000D03*
X116600000Y-127700000D03*
X126000000Y-107900000D03*
X173600000Y-111300000D03*
X135200000Y-102100000D03*
X145200000Y-108300000D03*
X151000000Y-102100000D03*
X156600000Y-119900000D03*
%TO.N,V3V3_CHAIN_LH*%
X160200000Y-109300000D03*
X176600000Y-109300000D03*
X141400000Y-112300000D03*
%TD*%
D19*
%TO.N,/CHAIN_SCK*%
X153600000Y-109700000D02*
X153600000Y-113700000D01*
X153600000Y-108100000D02*
X153600000Y-106700000D01*
X153499999Y-113999999D02*
X153600000Y-113700000D01*
%TO.N,/CHAIN_SER_LH*%
X147200000Y-103100000D02*
X147200000Y-103300000D01*
X142400000Y-105100000D02*
X145000000Y-102500000D01*
X146600000Y-102500000D02*
X147200000Y-103100000D01*
X142600000Y-114100000D02*
X142600000Y-114700000D01*
X147325000Y-104024999D02*
X147200000Y-103300000D01*
X145000000Y-102500000D02*
X146600000Y-102500000D01*
X142600000Y-114700000D02*
X142400000Y-114900000D01*
X142400000Y-111500000D02*
X142400000Y-105100000D01*
%TO.N,/CHAIN_SHLD*%
X155000000Y-109700000D02*
X155000000Y-112300000D01*
X155000000Y-112300000D02*
X156600000Y-113900000D01*
X155000000Y-108900000D02*
X155800000Y-108900000D01*
X156999999Y-113999999D02*
X156600000Y-113900000D01*
%TO.N,/HOP_LH_LT*%
X145400000Y-112900000D02*
X146200000Y-113700000D01*
X130639999Y-108619999D02*
X130199999Y-108700000D01*
X146499999Y-113999999D02*
X146200000Y-113700000D01*
X129600000Y-108100000D02*
X130199999Y-108700000D01*
X132600000Y-103700000D02*
X130000000Y-103700000D01*
X141400000Y-104100000D02*
X141400000Y-110500000D01*
X129600000Y-104100000D02*
X129600000Y-108100000D01*
X146000000Y-104100000D02*
X145200000Y-104100000D01*
X130000000Y-103700000D02*
X129600000Y-104100000D01*
X134199999Y-104100000D02*
X133000000Y-104100000D01*
X133000000Y-104100000D02*
X132600000Y-103700000D01*
X145400000Y-110500000D02*
X145400000Y-112900000D01*
%TO.N,/KEY_FREE3*%
X148400000Y-105100000D02*
X148000000Y-105500000D01*
X148400000Y-104900000D02*
X148400000Y-105100000D01*
X148000000Y-105500000D02*
X144600000Y-105500000D01*
X144000000Y-105587500D02*
X144600000Y-105500000D01*
%TO.N,/KEY_LH1*%
X118600000Y-123900000D02*
X119400000Y-124700000D01*
X148594999Y-108975000D02*
X148400000Y-109700000D01*
X119400000Y-118100000D02*
X118600000Y-118900000D01*
X118249999Y-121500000D02*
X118600000Y-120900000D01*
X148400000Y-115900000D02*
X148400000Y-109700000D01*
X118600000Y-122100000D02*
X118600000Y-123900000D01*
X118600000Y-118900000D02*
X118600000Y-120900000D01*
X119400000Y-124700000D02*
X119600000Y-124700000D01*
X120000000Y-125112500D02*
X119600000Y-124700000D01*
X120600000Y-117500000D02*
X120600000Y-115900000D01*
%TO.N,/KEY_LH2*%
X149800000Y-110500000D02*
X149800000Y-109700000D01*
X138600000Y-118900000D02*
X138600000Y-120900000D01*
X138600000Y-123900000D02*
X139400000Y-124700000D01*
X138600000Y-122100000D02*
X138600000Y-123900000D01*
X138250000Y-121500000D02*
X138600000Y-120900000D01*
X139400000Y-118100000D02*
X138600000Y-118900000D01*
X139400000Y-124700000D02*
X139600000Y-124700000D01*
X140400000Y-117500000D02*
X140400000Y-109500000D01*
X140000000Y-125112499D02*
X139600000Y-124700000D01*
X149864999Y-108975000D02*
X149800000Y-109700000D01*
%TO.N,/KEY_LH3*%
X151135000Y-108974999D02*
X151200000Y-109700000D01*
X160000000Y-125112499D02*
X159400000Y-124900000D01*
X158600000Y-124100000D02*
X159400000Y-124900000D01*
X151200000Y-113300000D02*
X151200000Y-109700000D01*
X160600000Y-118100000D02*
X161200000Y-118700000D01*
X161200000Y-120500000D02*
X160800000Y-120900000D01*
X158600000Y-122100000D02*
X158600000Y-124100000D01*
X161200000Y-118700000D02*
X161200000Y-120500000D01*
X158250000Y-121500000D02*
X158600000Y-120900000D01*
X158000000Y-120900000D02*
X158000000Y-120100000D01*
X160800000Y-120900000D02*
X158600000Y-120900000D01*
X158000000Y-120100000D02*
X151200000Y-113300000D01*
%TO.N,/KEY_LH4*%
X178800000Y-131100000D02*
X179200000Y-131500000D01*
X179200000Y-131500000D02*
X179200000Y-133100000D01*
X176600000Y-127900000D02*
X176600000Y-129900000D01*
X152405000Y-108975000D02*
X152600000Y-109700000D01*
X176249999Y-130499999D02*
X176600000Y-129900000D01*
X152600000Y-113100000D02*
X152600000Y-109700000D01*
X178600000Y-133699999D02*
X178400000Y-133699999D01*
X179200000Y-133100000D02*
X178600000Y-133699999D01*
X177400000Y-126500000D02*
X177400000Y-117500000D01*
X176600000Y-131100000D02*
X178800000Y-131100000D01*
X177400000Y-127100000D02*
X176600000Y-127900000D01*
X177999999Y-134112498D02*
X178400000Y-133699999D01*
%TO.N,/KEY_LH5*%
X175600000Y-109900000D02*
X175600000Y-108900000D01*
X176200000Y-108300000D02*
X177200000Y-108300000D01*
X176000000Y-111900000D02*
X176000000Y-110300000D01*
X152000000Y-103100000D02*
X152200000Y-103300000D01*
X176000000Y-110300000D02*
X175600000Y-109900000D01*
X176600000Y-113100000D02*
X176600000Y-115100000D01*
X152000000Y-102500000D02*
X152000000Y-103100000D01*
X178000000Y-116112499D02*
X177400000Y-115900000D01*
X175600000Y-108900000D02*
X169200000Y-102500000D01*
X177200000Y-108300000D02*
X177400000Y-108500000D01*
X178000000Y-108887500D02*
X177400000Y-108500000D01*
X176600000Y-115100000D02*
X177400000Y-115900000D01*
X152405000Y-104025000D02*
X152200000Y-103300000D01*
X175600000Y-108900000D02*
X176200000Y-108300000D01*
%TO.N,/LH1/SWITCH_LEG*%
X120600000Y-123500000D02*
X121200000Y-124100000D01*
%TO.N,/LH2/SWITCH_LEG*%
X140600000Y-123500000D02*
X141200000Y-124100000D01*
%TO.N,/LH3/SWITCH_LEG*%
X160600000Y-123500000D02*
X161200000Y-124100000D01*
%TO.N,/LH4/SWITCH_LEG*%
X177400000Y-132500000D02*
X175200000Y-134700000D01*
%TO.N,/LH5/SWITCH_LEG*%
X177600000Y-113900000D02*
X177600000Y-113100000D01*
X171400000Y-113100000D02*
X171400000Y-113700000D01*
X163599999Y-117199999D02*
X164400000Y-116700000D01*
X168400000Y-116700000D02*
X164400000Y-116700000D01*
X171400000Y-113700000D02*
X168400000Y-116700000D01*
%TO.N,GND_CHAIN*%
X131910000Y-104810000D02*
X132199999Y-105100000D01*
X136600000Y-127700000D02*
X136600000Y-122100000D01*
X135200000Y-103100000D02*
X135200000Y-102100000D01*
X127600000Y-104900000D02*
X127600000Y-106700000D01*
X153600000Y-102300000D02*
X153600000Y-103300000D01*
X131910000Y-107350000D02*
X132199999Y-107700000D01*
X146054999Y-108975000D02*
X145200000Y-108300000D01*
X131910000Y-109890000D02*
X132199999Y-110100000D01*
X151600000Y-101500000D02*
X153000000Y-101500000D01*
X132199999Y-105700000D02*
X132199999Y-105100000D01*
X151000000Y-102100000D02*
X151000000Y-103300000D01*
X153349999Y-101800000D02*
X153000000Y-101500000D01*
X171400000Y-118700000D02*
X171400000Y-127300000D01*
X136000000Y-113500000D02*
X132600000Y-110100000D01*
X171400000Y-117900000D02*
X171400000Y-115700000D01*
X131910000Y-108620000D02*
X132000000Y-108900000D01*
X129400000Y-103100000D02*
X127600000Y-104900000D01*
X116600000Y-127700000D02*
X116600000Y-122100000D01*
X152599999Y-127249999D02*
X153000000Y-126500000D01*
X146400000Y-109900000D02*
X146200000Y-109700000D01*
X153674999Y-104024999D02*
X153600000Y-103300000D01*
X134600000Y-105100000D02*
X135200000Y-104500000D01*
X132600000Y-110100000D02*
X132199999Y-110100000D01*
X171400000Y-127300000D02*
X174000000Y-129900000D01*
X151000000Y-102100000D02*
X151600000Y-101500000D01*
X171400000Y-115700000D02*
X174000000Y-113100000D01*
X135200000Y-103100000D02*
X135200000Y-104500000D01*
X129400000Y-103100000D02*
X135200000Y-103100000D01*
X132000000Y-106900000D02*
X132000000Y-106500000D01*
X174349999Y-112500000D02*
X174000000Y-113100000D01*
X116349999Y-121500000D02*
X116600000Y-122100000D01*
X136000000Y-120900000D02*
X136000000Y-113500000D01*
X132199999Y-105100000D02*
X134600000Y-105100000D01*
X156000000Y-122100000D02*
X156000000Y-123500000D01*
X132199999Y-108300000D02*
X132199999Y-107700000D01*
X126999999Y-107050000D02*
X126000000Y-107900000D01*
X146400000Y-111700000D02*
X146400000Y-109900000D01*
X150400000Y-114100000D02*
X150400000Y-115300000D01*
X174000000Y-132500000D02*
X171000000Y-135500000D01*
X149600000Y-113900000D02*
X149600000Y-111700000D01*
X131910000Y-106080000D02*
X132000000Y-106500000D01*
X170599999Y-136249999D02*
X171000000Y-135500000D01*
X174350000Y-130500000D02*
X174000000Y-129900000D01*
X174000000Y-131100000D02*
X174000000Y-132500000D01*
X146054999Y-108975000D02*
X146200000Y-109700000D01*
X151135000Y-104024999D02*
X151000000Y-103300000D01*
X150400000Y-115300000D02*
X156000000Y-120900000D01*
X156349999Y-121499999D02*
X156000000Y-120900000D01*
X174349999Y-112500000D02*
X173600000Y-111300000D01*
X156000000Y-123500000D02*
X153000000Y-126500000D01*
X132000000Y-109500000D02*
X132000000Y-108900000D01*
X136349999Y-121499999D02*
X136600000Y-122100000D01*
X116349999Y-121500000D02*
X115200000Y-121500000D01*
X156600000Y-120900000D02*
X156600000Y-119900000D01*
X126999999Y-107050000D02*
X127600000Y-106700000D01*
D20*
%TO.N,V3V3_CHAIN_LH*%
X155000000Y-103300000D02*
X155000000Y-102300000D01*
X130199999Y-109700000D02*
X128000000Y-109700000D01*
X141400000Y-118700000D02*
X140600000Y-119500000D01*
X154945000Y-104024999D02*
X154800000Y-104900000D01*
X141400000Y-113900000D02*
X141400000Y-118700000D01*
X158600000Y-117100000D02*
X158600000Y-118700000D01*
X149800000Y-105100000D02*
X149800000Y-104900000D01*
X126400000Y-113700000D02*
X120600000Y-119500000D01*
X158900000Y-110600000D02*
X160200000Y-109300000D01*
X177999999Y-110712499D02*
X177400000Y-110500000D01*
X150000000Y-104900000D02*
X150000000Y-105100000D01*
X150000000Y-105100000D02*
X150600000Y-105700000D01*
X143400000Y-107700000D02*
X143400000Y-111900000D01*
X160000000Y-119712499D02*
X159400000Y-119500000D01*
X126999999Y-108949999D02*
X127600000Y-109300000D01*
X140000000Y-119712499D02*
X140600000Y-119500000D01*
X128000000Y-109700000D02*
X127600000Y-109300000D01*
X158600000Y-118700000D02*
X159400000Y-119500000D01*
X154200000Y-105700000D02*
X154800000Y-105100000D01*
X177999999Y-128712499D02*
X178600000Y-128500000D01*
X150600000Y-105700000D02*
X154200000Y-105700000D01*
X154800000Y-105100000D02*
X154800000Y-104900000D01*
X178600000Y-111100000D02*
X178600000Y-112700000D01*
X142200000Y-113100000D02*
X141400000Y-113900000D01*
X160200000Y-114300000D02*
X160200000Y-115500000D01*
X179400000Y-127700000D02*
X178600000Y-128500000D01*
X119999999Y-119712499D02*
X120600000Y-119500000D01*
X142200000Y-113100000D02*
X141400000Y-112300000D01*
X142200000Y-113100000D02*
X143400000Y-111900000D01*
X147800000Y-107100000D02*
X149800000Y-105100000D01*
X158900000Y-110600000D02*
X160200000Y-111900000D01*
X160499999Y-113999999D02*
X160200000Y-113700000D01*
X149864999Y-104025000D02*
X149800000Y-104900000D01*
X144600000Y-107100000D02*
X147800000Y-107100000D01*
X158900000Y-110600000D02*
X155000000Y-106700000D01*
X155000000Y-104900000D02*
X155000000Y-106700000D01*
X160200000Y-111900000D02*
X160200000Y-113700000D01*
X160200000Y-115500000D02*
X158600000Y-117100000D01*
X126400000Y-109300000D02*
X126400000Y-113700000D01*
X155250000Y-101800000D02*
X155000000Y-102300000D01*
X179400000Y-113500000D02*
X179400000Y-127700000D01*
X176600000Y-109700000D02*
X177400000Y-110500000D01*
X176600000Y-109300000D02*
X176600000Y-109700000D01*
X178600000Y-112700000D02*
X179400000Y-113500000D01*
%TD*%
%TA.AperFunction,Conductor*%
%TO.N,GND_CHAIN*%
G36*
X131583852Y-108755095D02*
G01*
X131629930Y-108834905D01*
X131695095Y-108900070D01*
X131774905Y-108946148D01*
X131847296Y-108965545D01*
X131557842Y-109255000D01*
X131847296Y-109544454D01*
X131774905Y-109563852D01*
X131695095Y-109609930D01*
X131629930Y-109675095D01*
X131583852Y-109754905D01*
X131564454Y-109827296D01*
X131318442Y-109581284D01*
X131295292Y-109546637D01*
X131294660Y-109546976D01*
X131291790Y-109541607D01*
X131211300Y-109421146D01*
X131211297Y-109421142D01*
X131132836Y-109342681D01*
X131128497Y-109334735D01*
X131121250Y-109329310D01*
X131112015Y-109304550D01*
X131099351Y-109281358D01*
X131099996Y-109272328D01*
X131096833Y-109263846D01*
X131102449Y-109238025D01*
X131104335Y-109211666D01*
X131110153Y-109202612D01*
X131111685Y-109195573D01*
X131132836Y-109167319D01*
X131184198Y-109115957D01*
X131211297Y-109088857D01*
X131211300Y-109088854D01*
X131291792Y-108968390D01*
X131291795Y-108968381D01*
X131294665Y-108963015D01*
X131295300Y-108963354D01*
X131318443Y-108928712D01*
X131564454Y-108682701D01*
X131583852Y-108755095D01*
G37*
%TD.AperFunction*%
%TA.AperFunction,Conductor*%
G36*
X131583852Y-107485095D02*
G01*
X131629930Y-107564905D01*
X131695095Y-107630070D01*
X131774905Y-107676148D01*
X131847296Y-107695545D01*
X131557842Y-107985000D01*
X131847296Y-108274454D01*
X131774905Y-108293852D01*
X131695095Y-108339930D01*
X131629930Y-108405095D01*
X131583852Y-108484905D01*
X131564454Y-108557296D01*
X131318442Y-108311284D01*
X131295292Y-108276637D01*
X131294660Y-108276976D01*
X131291790Y-108271607D01*
X131211300Y-108151146D01*
X131211297Y-108151142D01*
X131132836Y-108072681D01*
X131128497Y-108064735D01*
X131121250Y-108059310D01*
X131112015Y-108034550D01*
X131099351Y-108011358D01*
X131099996Y-108002328D01*
X131096833Y-107993846D01*
X131102449Y-107968025D01*
X131104335Y-107941666D01*
X131110153Y-107932612D01*
X131111685Y-107925573D01*
X131132836Y-107897319D01*
X131184198Y-107845957D01*
X131211297Y-107818857D01*
X131211300Y-107818854D01*
X131291792Y-107698390D01*
X131291795Y-107698381D01*
X131294665Y-107693015D01*
X131295300Y-107693354D01*
X131318443Y-107658712D01*
X131564454Y-107412701D01*
X131583852Y-107485095D01*
G37*
%TD.AperFunction*%
%TA.AperFunction,Conductor*%
G36*
X131583852Y-106215095D02*
G01*
X131629930Y-106294905D01*
X131695095Y-106360070D01*
X131774905Y-106406148D01*
X131847296Y-106425545D01*
X131557842Y-106715000D01*
X131847296Y-107004454D01*
X131774905Y-107023852D01*
X131695095Y-107069930D01*
X131629930Y-107135095D01*
X131583852Y-107214905D01*
X131564454Y-107287296D01*
X131318442Y-107041284D01*
X131295292Y-107006637D01*
X131294660Y-107006976D01*
X131291790Y-107001607D01*
X131211300Y-106881146D01*
X131211297Y-106881142D01*
X131132836Y-106802681D01*
X131128497Y-106794735D01*
X131121250Y-106789310D01*
X131112015Y-106764550D01*
X131099351Y-106741358D01*
X131099996Y-106732328D01*
X131096833Y-106723846D01*
X131102449Y-106698025D01*
X131104335Y-106671666D01*
X131110153Y-106662612D01*
X131111685Y-106655573D01*
X131132836Y-106627319D01*
X131184198Y-106575957D01*
X131211297Y-106548857D01*
X131211300Y-106548854D01*
X131291792Y-106428390D01*
X131291795Y-106428381D01*
X131294665Y-106423015D01*
X131295300Y-106423354D01*
X131318443Y-106388712D01*
X131564454Y-106142701D01*
X131583852Y-106215095D01*
G37*
%TD.AperFunction*%
%TA.AperFunction,Conductor*%
G36*
X131583852Y-104945095D02*
G01*
X131629930Y-105024905D01*
X131695095Y-105090070D01*
X131774905Y-105136148D01*
X131847296Y-105155545D01*
X131557842Y-105445000D01*
X131847296Y-105734454D01*
X131774905Y-105753852D01*
X131695095Y-105799930D01*
X131629930Y-105865095D01*
X131583852Y-105944905D01*
X131564454Y-106017296D01*
X131318442Y-105771284D01*
X131295292Y-105736637D01*
X131294660Y-105736976D01*
X131291790Y-105731607D01*
X131211300Y-105611146D01*
X131211297Y-105611142D01*
X131132836Y-105532681D01*
X131128497Y-105524735D01*
X131121250Y-105519310D01*
X131112015Y-105494550D01*
X131099351Y-105471358D01*
X131099996Y-105462328D01*
X131096833Y-105453846D01*
X131102449Y-105428025D01*
X131104335Y-105401666D01*
X131110153Y-105392612D01*
X131111685Y-105385573D01*
X131132836Y-105357319D01*
X131184198Y-105305957D01*
X131211297Y-105278857D01*
X131211300Y-105278854D01*
X131291792Y-105158390D01*
X131291795Y-105158381D01*
X131294665Y-105153015D01*
X131295300Y-105153354D01*
X131318443Y-105118712D01*
X131564454Y-104872701D01*
X131583852Y-104945095D01*
G37*
%TD.AperFunction*%
%TA.AperFunction,Conductor*%
G36*
X131424019Y-104045185D02*
G01*
X131444661Y-104061819D01*
X131847296Y-104464454D01*
X131774905Y-104483852D01*
X131695095Y-104529930D01*
X131629930Y-104595095D01*
X131583852Y-104674905D01*
X131564454Y-104747296D01*
X131318442Y-104501284D01*
X131295292Y-104466637D01*
X131294660Y-104466976D01*
X131291790Y-104461607D01*
X131211300Y-104341146D01*
X131211297Y-104341142D01*
X131107336Y-104237181D01*
X131096723Y-104217744D01*
X131082223Y-104201011D01*
X131080306Y-104187679D01*
X131073851Y-104175858D01*
X131075430Y-104153771D01*
X131072279Y-104131853D01*
X131077874Y-104119601D01*
X131078835Y-104106166D01*
X131092105Y-104088439D01*
X131101304Y-104068297D01*
X131112635Y-104061014D01*
X131120707Y-104050233D01*
X131141452Y-104042495D01*
X131160082Y-104030523D01*
X131182000Y-104027371D01*
X131186171Y-104025816D01*
X131195017Y-104025500D01*
X131356980Y-104025500D01*
X131424019Y-104045185D01*
G37*
%TD.AperFunction*%
%TA.AperFunction,Conductor*%
G36*
X152624869Y-100820185D02*
G01*
X152670624Y-100872989D01*
X152680568Y-100942147D01*
X152656634Y-100999425D01*
X152616080Y-101052902D01*
X152560613Y-101193556D01*
X152550000Y-101281946D01*
X152550000Y-101600000D01*
X154150000Y-101600000D01*
X154150000Y-101281946D01*
X154139386Y-101193556D01*
X154083919Y-101052902D01*
X154043366Y-100999425D01*
X154018543Y-100934114D01*
X154032971Y-100865750D01*
X154082068Y-100816039D01*
X154142170Y-100800500D01*
X154581561Y-100800500D01*
X154648600Y-100820185D01*
X154694355Y-100872989D01*
X154704299Y-100942147D01*
X154681331Y-100998134D01*
X154677850Y-101002849D01*
X154677850Y-101002850D01*
X154670154Y-101013278D01*
X154597207Y-101112117D01*
X154597206Y-101112119D01*
X154552353Y-101240298D01*
X154552353Y-101240300D01*
X154549500Y-101270730D01*
X154549500Y-102329269D01*
X154552353Y-102359699D01*
X154552354Y-102359701D01*
X154592541Y-102474548D01*
X154599500Y-102515503D01*
X154599500Y-102848456D01*
X154579815Y-102915495D01*
X154575702Y-102921501D01*
X154570010Y-102929308D01*
X154505802Y-102993517D01*
X154470373Y-103065987D01*
X154463956Y-103074791D01*
X154444541Y-103089712D01*
X154428026Y-103107789D01*
X154417331Y-103110625D01*
X154408558Y-103117369D01*
X154384157Y-103119425D01*
X154360492Y-103125703D01*
X154349961Y-103122307D01*
X154338935Y-103123237D01*
X154317298Y-103111776D01*
X154293993Y-103104262D01*
X154286968Y-103095710D01*
X154277192Y-103090532D01*
X154265185Y-103069192D01*
X154249644Y-103050272D01*
X154246712Y-103042700D01*
X154227346Y-102987354D01*
X154146792Y-102878207D01*
X154046567Y-102804238D01*
X154004317Y-102748590D01*
X153998858Y-102678934D01*
X154021398Y-102629541D01*
X154083920Y-102547095D01*
X154139386Y-102406443D01*
X154150000Y-102318053D01*
X154150000Y-102000000D01*
X152550000Y-102000000D01*
X152538407Y-102011592D01*
X152530315Y-102039153D01*
X152477511Y-102084908D01*
X152408353Y-102094852D01*
X152344797Y-102065827D01*
X152338319Y-102059795D01*
X152338017Y-102059493D01*
X152338011Y-102059488D01*
X152212488Y-101987017D01*
X152212489Y-101987017D01*
X152201006Y-101983940D01*
X152072475Y-101949500D01*
X151927525Y-101949500D01*
X151798993Y-101983940D01*
X151787511Y-101987017D01*
X151661988Y-102059488D01*
X151661982Y-102059493D01*
X151559493Y-102161982D01*
X151559488Y-102161988D01*
X151487017Y-102287511D01*
X151487016Y-102287515D01*
X151449500Y-102427525D01*
X151449500Y-102427527D01*
X151449500Y-102572474D01*
X151455243Y-102593907D01*
X151453580Y-102663757D01*
X151414417Y-102721619D01*
X151350189Y-102749123D01*
X151335468Y-102750000D01*
X151335000Y-102750000D01*
X151335000Y-103901000D01*
X151332449Y-103909685D01*
X151333738Y-103918647D01*
X151322759Y-103942687D01*
X151315315Y-103968039D01*
X151308474Y-103973966D01*
X151304713Y-103982203D01*
X151282478Y-103996492D01*
X151262511Y-104013794D01*
X151251996Y-104016081D01*
X151245935Y-104019977D01*
X151211000Y-104025000D01*
X151059000Y-104025000D01*
X150991961Y-104005315D01*
X150946206Y-103952511D01*
X150935000Y-103901000D01*
X150935000Y-102750000D01*
X150930796Y-102750001D01*
X150930774Y-102750002D01*
X150900399Y-102752850D01*
X150900394Y-102752851D01*
X150772354Y-102797653D01*
X150663207Y-102878207D01*
X150582653Y-102987354D01*
X150582651Y-102987359D01*
X150563286Y-103042701D01*
X150522564Y-103099477D01*
X150457611Y-103125224D01*
X150389050Y-103111767D01*
X150338647Y-103063380D01*
X150334851Y-103056219D01*
X150304198Y-102993517D01*
X150304196Y-102993515D01*
X150304196Y-102993514D01*
X150221485Y-102910803D01*
X150116391Y-102859426D01*
X150048261Y-102849500D01*
X150048260Y-102849500D01*
X149681740Y-102849500D01*
X149681739Y-102849500D01*
X149613608Y-102859426D01*
X149508514Y-102910803D01*
X149425803Y-102993514D01*
X149374426Y-103098608D01*
X149364500Y-103166739D01*
X149364500Y-104883261D01*
X149366447Y-104896629D01*
X149365789Y-104901266D01*
X149367426Y-104905655D01*
X149360927Y-104935529D01*
X149356631Y-104965806D01*
X149353292Y-104970622D01*
X149352574Y-104973928D01*
X149331423Y-105002182D01*
X149299250Y-105034355D01*
X149237927Y-105067840D01*
X149168235Y-105062856D01*
X149112302Y-105020984D01*
X149087885Y-104955520D01*
X149088864Y-104928799D01*
X149095500Y-104883260D01*
X149095500Y-103166740D01*
X149085573Y-103098607D01*
X149034198Y-102993517D01*
X149034196Y-102993515D01*
X149034196Y-102993514D01*
X148951485Y-102910803D01*
X148846391Y-102859426D01*
X148778261Y-102849500D01*
X148778260Y-102849500D01*
X148411740Y-102849500D01*
X148411739Y-102849500D01*
X148343608Y-102859426D01*
X148238514Y-102910803D01*
X148155803Y-102993514D01*
X148104426Y-103098608D01*
X148094500Y-103166739D01*
X148094500Y-104766180D01*
X148092885Y-104786125D01*
X148091883Y-104792269D01*
X148074500Y-104857147D01*
X148074500Y-104898939D01*
X148074500Y-104913811D01*
X148069053Y-104932358D01*
X148068036Y-104938604D01*
X148065930Y-104942993D01*
X148054815Y-104980850D01*
X148038172Y-105001501D01*
X148033323Y-105006349D01*
X148005411Y-105021586D01*
X147978349Y-105038270D01*
X147974967Y-105038206D01*
X147971997Y-105039828D01*
X147940279Y-105037556D01*
X147908492Y-105036960D01*
X147905680Y-105035077D01*
X147902305Y-105034836D01*
X147876854Y-105015779D01*
X147850432Y-104998091D01*
X147849084Y-104994986D01*
X147846376Y-104992959D01*
X147835268Y-104963168D01*
X147822604Y-104934002D01*
X147822689Y-104929432D01*
X147821966Y-104927492D01*
X147822947Y-104900779D01*
X147823041Y-104900138D01*
X147825500Y-104883260D01*
X147825500Y-103166740D01*
X147815573Y-103098607D01*
X147764198Y-102993517D01*
X147764196Y-102993515D01*
X147764196Y-102993514D01*
X147681485Y-102910803D01*
X147576391Y-102859426D01*
X147508261Y-102849500D01*
X147508260Y-102849500D01*
X147461189Y-102849500D01*
X147394150Y-102829815D01*
X147373508Y-102813181D01*
X146799864Y-102239537D01*
X146799862Y-102239535D01*
X146762750Y-102218108D01*
X146725640Y-102196682D01*
X146684246Y-102185591D01*
X146642853Y-102174500D01*
X145042853Y-102174500D01*
X144957147Y-102174500D01*
X144874359Y-102196682D01*
X144800138Y-102239535D01*
X144800135Y-102239537D01*
X142139537Y-104900135D01*
X142139535Y-104900138D01*
X142096682Y-104974359D01*
X142094943Y-104980850D01*
X142091444Y-104993910D01*
X142091444Y-104993911D01*
X142091443Y-104993910D01*
X142074500Y-105057145D01*
X142074500Y-110104495D01*
X142054815Y-110171534D01*
X142002011Y-110217289D01*
X141932853Y-110227233D01*
X141869297Y-110198208D01*
X141859590Y-110188824D01*
X141850094Y-110178587D01*
X141840509Y-110161985D01*
X141760178Y-110081654D01*
X141758590Y-110079942D01*
X141744005Y-110050671D01*
X141728334Y-110021970D01*
X141727956Y-110018462D01*
X141727430Y-110017405D01*
X141727638Y-110015500D01*
X141725500Y-109995613D01*
X141725500Y-104604386D01*
X141745185Y-104537347D01*
X141761819Y-104516705D01*
X141794672Y-104483852D01*
X141840509Y-104438015D01*
X141912984Y-104312485D01*
X141950500Y-104172475D01*
X141950500Y-104027525D01*
X141912984Y-103887515D01*
X141846098Y-103771666D01*
X141840511Y-103761988D01*
X141840506Y-103761982D01*
X141738017Y-103659493D01*
X141738011Y-103659488D01*
X141612488Y-103587017D01*
X141612489Y-103587017D01*
X141592235Y-103581590D01*
X141472475Y-103549500D01*
X141327525Y-103549500D01*
X141207765Y-103581590D01*
X141187511Y-103587017D01*
X141061988Y-103659488D01*
X141061982Y-103659493D01*
X140959493Y-103761982D01*
X140959488Y-103761988D01*
X140887017Y-103887511D01*
X140887016Y-103887515D01*
X140849500Y-104027525D01*
X140849500Y-104172475D01*
X140883634Y-104299862D01*
X140887017Y-104312488D01*
X140959488Y-104438011D01*
X140959493Y-104438017D01*
X141038181Y-104516705D01*
X141071666Y-104578028D01*
X141074500Y-104604386D01*
X141074500Y-109104495D01*
X141054815Y-109171534D01*
X141002011Y-109217289D01*
X140932853Y-109227233D01*
X140869297Y-109198208D01*
X140843114Y-109166496D01*
X140840513Y-109161991D01*
X140840510Y-109161988D01*
X140840509Y-109161985D01*
X140738015Y-109059491D01*
X140738013Y-109059490D01*
X140738011Y-109059488D01*
X140612488Y-108987017D01*
X140612489Y-108987017D01*
X140601006Y-108983940D01*
X140472475Y-108949500D01*
X140327525Y-108949500D01*
X140198993Y-108983940D01*
X140187511Y-108987017D01*
X140061988Y-109059488D01*
X140061982Y-109059493D01*
X139959493Y-109161982D01*
X139959488Y-109161988D01*
X139887017Y-109287511D01*
X139887016Y-109287515D01*
X139849500Y-109427525D01*
X139849500Y-109572475D01*
X139877096Y-109675462D01*
X139887017Y-109712488D01*
X139959488Y-109838011D01*
X139959493Y-109838017D01*
X140038181Y-109916705D01*
X140071666Y-109978028D01*
X140074500Y-110004386D01*
X140074500Y-117050500D01*
X140054815Y-117117539D01*
X140002011Y-117163294D01*
X139950500Y-117174500D01*
X139495730Y-117174500D01*
X139465300Y-117177353D01*
X139465298Y-117177353D01*
X139337119Y-117222206D01*
X139337117Y-117222207D01*
X139227850Y-117302850D01*
X139147207Y-117412117D01*
X139147206Y-117412119D01*
X139102353Y-117540298D01*
X139102353Y-117540300D01*
X139099500Y-117570730D01*
X139099500Y-117888811D01*
X139079815Y-117955850D01*
X139063181Y-117976492D01*
X138339537Y-118700135D01*
X138339535Y-118700138D01*
X138296682Y-118774359D01*
X138290212Y-118798508D01*
X138282942Y-118825639D01*
X138281253Y-118831940D01*
X138274500Y-118857143D01*
X138274500Y-120450500D01*
X138254815Y-120517539D01*
X138202011Y-120563294D01*
X138150500Y-120574500D01*
X137945730Y-120574500D01*
X137915300Y-120577353D01*
X137915298Y-120577353D01*
X137787119Y-120622206D01*
X137787117Y-120622207D01*
X137677850Y-120702850D01*
X137597207Y-120812117D01*
X137597206Y-120812119D01*
X137552353Y-120940298D01*
X137552353Y-120940300D01*
X137549500Y-120970730D01*
X137549500Y-122029269D01*
X137552353Y-122059699D01*
X137552353Y-122059701D01*
X137581871Y-122144055D01*
X137597207Y-122187882D01*
X137677850Y-122297150D01*
X137787118Y-122377793D01*
X137829845Y-122392744D01*
X137915299Y-122422646D01*
X137945730Y-122425500D01*
X137945734Y-122425500D01*
X138150500Y-122425500D01*
X138217539Y-122445185D01*
X138263294Y-122497989D01*
X138274500Y-122549500D01*
X138274500Y-123857147D01*
X138274500Y-123942853D01*
X138280481Y-123965173D01*
X138296682Y-124025640D01*
X138308996Y-124046968D01*
X138339535Y-124099862D01*
X138339537Y-124099864D01*
X139063181Y-124823508D01*
X139096666Y-124884831D01*
X139099500Y-124911189D01*
X139099500Y-125429269D01*
X139102353Y-125459699D01*
X139102353Y-125459701D01*
X139141230Y-125570801D01*
X139147207Y-125587882D01*
X139227850Y-125697150D01*
X139337118Y-125777793D01*
X139379845Y-125792744D01*
X139465299Y-125822646D01*
X139495730Y-125825500D01*
X139495734Y-125825500D01*
X140504270Y-125825500D01*
X140534699Y-125822646D01*
X140534701Y-125822646D01*
X140598790Y-125800219D01*
X140662882Y-125777793D01*
X140772150Y-125697150D01*
X140852793Y-125587882D01*
X140875219Y-125523790D01*
X140897646Y-125459701D01*
X140897646Y-125459699D01*
X140900500Y-125429269D01*
X140900500Y-124795733D01*
X140897322Y-124761851D01*
X140910660Y-124693266D01*
X140958960Y-124642780D01*
X141026888Y-124626422D01*
X141052864Y-124630494D01*
X141127525Y-124650500D01*
X141127528Y-124650500D01*
X141272472Y-124650500D01*
X141272475Y-124650500D01*
X141412485Y-124612984D01*
X141538015Y-124540509D01*
X141640509Y-124438015D01*
X141712984Y-124312485D01*
X141750500Y-124172475D01*
X141750500Y-124027525D01*
X141712984Y-123887515D01*
X141704803Y-123873346D01*
X141640511Y-123761988D01*
X141640506Y-123761982D01*
X141538017Y-123659493D01*
X141538011Y-123659488D01*
X141412488Y-123587017D01*
X141412489Y-123587017D01*
X141401006Y-123583940D01*
X141272475Y-123549500D01*
X141161189Y-123549500D01*
X141131748Y-123540855D01*
X141101762Y-123534332D01*
X141096746Y-123530577D01*
X141094150Y-123529815D01*
X141073508Y-123513181D01*
X140936819Y-123376492D01*
X140903334Y-123315169D01*
X140900500Y-123288811D01*
X140900500Y-122970730D01*
X140897646Y-122940300D01*
X140897646Y-122940298D01*
X140852793Y-122812119D01*
X140852792Y-122812117D01*
X140816447Y-122762871D01*
X140772150Y-122702850D01*
X140662882Y-122622207D01*
X140662880Y-122622206D01*
X140534700Y-122577353D01*
X140504270Y-122574500D01*
X140504266Y-122574500D01*
X139495734Y-122574500D01*
X139495730Y-122574500D01*
X139465300Y-122577353D01*
X139465298Y-122577353D01*
X139337119Y-122622206D01*
X139337117Y-122622207D01*
X139227850Y-122702850D01*
X139149270Y-122809323D01*
X139093623Y-122851573D01*
X139023967Y-122857032D01*
X138962417Y-122823965D01*
X138928516Y-122762871D01*
X138925500Y-122735689D01*
X138925500Y-122144055D01*
X138932459Y-122103100D01*
X138947646Y-122059699D01*
X138950500Y-122029266D01*
X138950500Y-121336824D01*
X147094500Y-121336824D01*
X147094500Y-121663175D01*
X147131035Y-121987441D01*
X147131038Y-121987455D01*
X147203655Y-122305612D01*
X147203656Y-122305614D01*
X147311438Y-122613640D01*
X147453030Y-122907657D01*
X147453032Y-122907660D01*
X147626654Y-123183979D01*
X147830123Y-123439121D01*
X148060879Y-123669877D01*
X148316021Y-123873346D01*
X148592340Y-124046968D01*
X148886361Y-124188562D01*
X149194387Y-124296344D01*
X149512544Y-124368962D01*
X149512553Y-124368963D01*
X149512558Y-124368964D01*
X149709186Y-124391118D01*
X149836825Y-124405499D01*
X149836828Y-124405500D01*
X149836831Y-124405500D01*
X150163172Y-124405500D01*
X150163173Y-124405499D01*
X150336398Y-124385982D01*
X150487441Y-124368964D01*
X150487444Y-124368963D01*
X150487456Y-124368962D01*
X150805613Y-124296344D01*
X151113639Y-124188562D01*
X151407660Y-124046968D01*
X151683979Y-123873346D01*
X151939121Y-123669877D01*
X152169877Y-123439121D01*
X152373346Y-123183979D01*
X152546968Y-122907660D01*
X152688562Y-122613639D01*
X152796344Y-122305613D01*
X152861978Y-122018053D01*
X155550000Y-122018053D01*
X155560613Y-122106443D01*
X155616079Y-122247095D01*
X155707435Y-122367564D01*
X155827904Y-122458920D01*
X155968556Y-122514386D01*
X156056946Y-122525000D01*
X156150000Y-122525000D01*
X156550000Y-122525000D01*
X156643054Y-122525000D01*
X156731443Y-122514386D01*
X156872095Y-122458920D01*
X156992564Y-122367564D01*
X157083920Y-122247095D01*
X157139386Y-122106443D01*
X157150000Y-122018053D01*
X157150000Y-121700000D01*
X156550000Y-121700000D01*
X156550000Y-122525000D01*
X156150000Y-122525000D01*
X156150000Y-121700000D01*
X155550000Y-121700000D01*
X155550000Y-122018053D01*
X152861978Y-122018053D01*
X152868962Y-121987456D01*
X152905500Y-121663169D01*
X152905500Y-121336831D01*
X152885629Y-121160465D01*
X152868964Y-121012558D01*
X152868963Y-121012553D01*
X152868962Y-121012544D01*
X152861978Y-120981946D01*
X155550000Y-120981946D01*
X155550000Y-121300000D01*
X156150000Y-121300000D01*
X156550000Y-121300000D01*
X157150000Y-121300000D01*
X157150000Y-120981946D01*
X157139386Y-120893556D01*
X157083920Y-120752904D01*
X156992564Y-120632435D01*
X156872095Y-120541079D01*
X156731443Y-120485613D01*
X156643054Y-120475000D01*
X156550000Y-120475000D01*
X156550000Y-121300000D01*
X156150000Y-121300000D01*
X156150000Y-120475000D01*
X156056946Y-120475000D01*
X155968556Y-120485613D01*
X155827904Y-120541079D01*
X155707435Y-120632435D01*
X155616079Y-120752904D01*
X155560613Y-120893556D01*
X155550000Y-120981946D01*
X152861978Y-120981946D01*
X152841803Y-120893556D01*
X152796344Y-120694387D01*
X152796343Y-120694385D01*
X152777466Y-120640435D01*
X152688562Y-120386361D01*
X152546968Y-120092340D01*
X152373346Y-119816021D01*
X152169877Y-119560879D01*
X151939121Y-119330123D01*
X151683979Y-119126654D01*
X151407660Y-118953032D01*
X151407657Y-118953030D01*
X151113640Y-118811438D01*
X150805614Y-118703656D01*
X150805612Y-118703655D01*
X150503951Y-118634803D01*
X150487456Y-118631038D01*
X150487453Y-118631037D01*
X150487441Y-118631035D01*
X150163175Y-118594500D01*
X150163169Y-118594500D01*
X149836831Y-118594500D01*
X149836824Y-118594500D01*
X149512558Y-118631035D01*
X149512544Y-118631038D01*
X149194387Y-118703655D01*
X149194385Y-118703656D01*
X148886359Y-118811438D01*
X148592342Y-118953030D01*
X148316022Y-119126653D01*
X148060879Y-119330122D01*
X147830122Y-119560879D01*
X147626653Y-119816022D01*
X147453030Y-120092342D01*
X147311438Y-120386359D01*
X147203656Y-120694385D01*
X147203655Y-120694387D01*
X147131038Y-121012544D01*
X147131035Y-121012558D01*
X147094500Y-121336824D01*
X138950500Y-121336824D01*
X138950500Y-120970734D01*
X138947646Y-120940301D01*
X138947646Y-120940300D01*
X138947646Y-120940298D01*
X138932658Y-120897466D01*
X138932305Y-120895550D01*
X138931728Y-120894704D01*
X138929434Y-120879954D01*
X138926979Y-120866619D01*
X138926711Y-120866654D01*
X138926487Y-120864889D01*
X138926396Y-120863452D01*
X138925746Y-120859921D01*
X138925547Y-120852687D01*
X138925683Y-120852171D01*
X138925500Y-120849277D01*
X138925500Y-120264310D01*
X138945185Y-120197271D01*
X138997989Y-120151516D01*
X139067147Y-120141572D01*
X139130703Y-120170597D01*
X139149265Y-120190670D01*
X139227850Y-120297150D01*
X139337118Y-120377793D01*
X139361604Y-120386361D01*
X139465299Y-120422646D01*
X139495730Y-120425500D01*
X139495734Y-120425500D01*
X140504270Y-120425500D01*
X140534699Y-120422646D01*
X140534701Y-120422646D01*
X140598790Y-120400219D01*
X140662882Y-120377793D01*
X140772150Y-120297150D01*
X140852793Y-120187882D01*
X140886224Y-120092342D01*
X140897646Y-120059701D01*
X140897646Y-120059699D01*
X140900500Y-120029269D01*
X140900500Y-119817255D01*
X140920185Y-119750216D01*
X140936819Y-119729574D01*
X141304541Y-119361852D01*
X141720480Y-118945913D01*
X141773207Y-118854588D01*
X141800500Y-118752727D01*
X141800500Y-118647273D01*
X141800500Y-115827525D01*
X147849500Y-115827525D01*
X147849500Y-115972475D01*
X147879606Y-116084831D01*
X147887017Y-116112488D01*
X147959488Y-116238011D01*
X147959490Y-116238013D01*
X147959491Y-116238015D01*
X148061985Y-116340509D01*
X148061986Y-116340510D01*
X148061988Y-116340511D01*
X148187511Y-116412982D01*
X148187512Y-116412982D01*
X148187515Y-116412984D01*
X148327525Y-116450500D01*
X148327528Y-116450500D01*
X148472472Y-116450500D01*
X148472475Y-116450500D01*
X148612485Y-116412984D01*
X148738015Y-116340509D01*
X148840509Y-116238015D01*
X148912984Y-116112485D01*
X148950500Y-115972475D01*
X148950500Y-115827525D01*
X148912984Y-115687515D01*
X148893972Y-115654586D01*
X148840511Y-115561988D01*
X148840510Y-115561987D01*
X148840509Y-115561985D01*
X148761818Y-115483294D01*
X148728334Y-115421970D01*
X148725500Y-115395613D01*
X148725500Y-114690058D01*
X149592783Y-114690058D01*
X149621059Y-114708952D01*
X149766648Y-114769256D01*
X149766656Y-114769258D01*
X149921202Y-114799999D01*
X149921206Y-114800000D01*
X150078794Y-114800000D01*
X150078797Y-114799999D01*
X150233343Y-114769258D01*
X150233355Y-114769255D01*
X150378938Y-114708953D01*
X150378943Y-114708950D01*
X150407215Y-114690058D01*
X150407216Y-114690057D01*
X150000001Y-114282842D01*
X150000000Y-114282842D01*
X149592783Y-114690058D01*
X148725500Y-114690058D01*
X148725500Y-113921202D01*
X149200000Y-113921202D01*
X149200000Y-114078797D01*
X149230741Y-114233343D01*
X149230743Y-114233351D01*
X149291048Y-114378940D01*
X149309941Y-114407215D01*
X149717157Y-114000000D01*
X149717157Y-113999999D01*
X150282842Y-113999999D01*
X150282842Y-114000000D01*
X150690057Y-114407216D01*
X150690058Y-114407215D01*
X150708950Y-114378943D01*
X150708953Y-114378938D01*
X150769255Y-114233355D01*
X150769258Y-114233343D01*
X150799999Y-114078797D01*
X150800000Y-114078794D01*
X150800000Y-113921206D01*
X150799999Y-113921202D01*
X150769258Y-113766656D01*
X150769256Y-113766648D01*
X150708952Y-113621059D01*
X150690058Y-113592783D01*
X150282842Y-113999999D01*
X149717157Y-113999999D01*
X149309941Y-113592782D01*
X149291048Y-113621059D01*
X149230743Y-113766648D01*
X149230741Y-113766656D01*
X149200000Y-113921202D01*
X148725500Y-113921202D01*
X148725500Y-113309941D01*
X149592782Y-113309941D01*
X150000000Y-113717157D01*
X150000001Y-113717157D01*
X150407215Y-113309941D01*
X150407215Y-113309940D01*
X150378940Y-113291048D01*
X150233351Y-113230743D01*
X150233343Y-113230741D01*
X150078797Y-113200000D01*
X149921202Y-113200000D01*
X149766656Y-113230741D01*
X149766648Y-113230743D01*
X149621059Y-113291048D01*
X149592782Y-113309941D01*
X148725500Y-113309941D01*
X148725500Y-110427525D01*
X149249500Y-110427525D01*
X149249500Y-110572475D01*
X149271438Y-110654346D01*
X149287017Y-110712488D01*
X149359488Y-110838011D01*
X149359490Y-110838013D01*
X149359491Y-110838015D01*
X149461985Y-110940509D01*
X149461986Y-110940510D01*
X149461988Y-110940511D01*
X149587511Y-111012982D01*
X149587512Y-111012982D01*
X149587515Y-111012984D01*
X149727525Y-111050500D01*
X149727528Y-111050500D01*
X149872472Y-111050500D01*
X149872475Y-111050500D01*
X150012485Y-111012984D01*
X150138015Y-110940509D01*
X150240509Y-110838015D01*
X150312984Y-110712485D01*
X150350500Y-110572475D01*
X150350500Y-110427525D01*
X150312984Y-110287515D01*
X150254476Y-110186176D01*
X150238004Y-110118280D01*
X150260856Y-110052253D01*
X150274184Y-110036497D01*
X150304196Y-110006485D01*
X150304198Y-110006483D01*
X150355573Y-109901393D01*
X150365500Y-109833260D01*
X150365500Y-108116740D01*
X150355573Y-108048607D01*
X150304198Y-107943517D01*
X150304196Y-107943515D01*
X150304196Y-107943514D01*
X150221485Y-107860803D01*
X150116391Y-107809426D01*
X150048261Y-107799500D01*
X150048260Y-107799500D01*
X149681740Y-107799500D01*
X149681739Y-107799500D01*
X149613608Y-107809426D01*
X149508514Y-107860803D01*
X149425803Y-107943514D01*
X149374426Y-108048608D01*
X149364500Y-108116739D01*
X149364500Y-109833260D01*
X149374426Y-109901391D01*
X149416204Y-109986850D01*
X149427962Y-110055723D01*
X149400619Y-110120020D01*
X149392485Y-110128990D01*
X149359494Y-110161981D01*
X149359488Y-110161988D01*
X149287017Y-110287511D01*
X149287016Y-110287515D01*
X149249500Y-110427525D01*
X148725500Y-110427525D01*
X148725500Y-110265429D01*
X148745185Y-110198390D01*
X148797989Y-110152635D01*
X148831618Y-110142725D01*
X148846393Y-110140573D01*
X148951483Y-110089198D01*
X149034198Y-110006483D01*
X149085573Y-109901393D01*
X149095500Y-109833260D01*
X149095500Y-108116740D01*
X149085573Y-108048607D01*
X149034198Y-107943517D01*
X149034196Y-107943515D01*
X149034196Y-107943514D01*
X148951485Y-107860803D01*
X148846391Y-107809426D01*
X148778261Y-107799500D01*
X148778260Y-107799500D01*
X148411740Y-107799500D01*
X148411739Y-107799500D01*
X148343608Y-107809426D01*
X148238514Y-107860803D01*
X148155803Y-107943514D01*
X148104426Y-108048608D01*
X148094500Y-108116739D01*
X148094500Y-109566178D01*
X148090275Y-109598271D01*
X148085564Y-109615853D01*
X148085534Y-109615965D01*
X148074536Y-109656855D01*
X148074500Y-109657140D01*
X148074500Y-109699810D01*
X148074451Y-109750213D01*
X148074500Y-109750956D01*
X148074500Y-115395613D01*
X148054815Y-115462652D01*
X148038182Y-115483294D01*
X147959488Y-115561988D01*
X147887017Y-115687511D01*
X147887016Y-115687515D01*
X147849500Y-115827525D01*
X141800500Y-115827525D01*
X141800500Y-115378386D01*
X141820185Y-115311347D01*
X141872989Y-115265592D01*
X141942147Y-115255648D01*
X142005703Y-115284673D01*
X142012181Y-115290705D01*
X142061985Y-115340509D01*
X142061986Y-115340510D01*
X142061988Y-115340511D01*
X142187511Y-115412982D01*
X142187512Y-115412982D01*
X142187515Y-115412984D01*
X142327525Y-115450500D01*
X142327528Y-115450500D01*
X142472472Y-115450500D01*
X142472475Y-115450500D01*
X142612485Y-115412984D01*
X142738015Y-115340509D01*
X142840509Y-115238015D01*
X142912984Y-115112485D01*
X142950500Y-114972475D01*
X142950500Y-114827525D01*
X142950500Y-114824500D01*
X142970185Y-114757461D01*
X143022989Y-114711706D01*
X143063118Y-114702976D01*
X143062933Y-114701097D01*
X143068995Y-114700500D01*
X143160041Y-114682389D01*
X143204328Y-114673580D01*
X143331811Y-114620775D01*
X143446542Y-114544114D01*
X143544114Y-114446542D01*
X143620775Y-114331811D01*
X143673580Y-114204328D01*
X143690900Y-114117255D01*
X143700500Y-114068995D01*
X143700500Y-113931004D01*
X143673581Y-113795677D01*
X143673580Y-113795676D01*
X143673580Y-113795672D01*
X143656828Y-113755228D01*
X143620778Y-113668195D01*
X143620771Y-113668182D01*
X143544114Y-113553458D01*
X143544111Y-113553454D01*
X143446545Y-113455888D01*
X143446541Y-113455885D01*
X143331817Y-113379228D01*
X143331804Y-113379221D01*
X143204332Y-113326421D01*
X143204322Y-113326418D01*
X143068995Y-113299500D01*
X143068993Y-113299500D01*
X142931007Y-113299500D01*
X142877399Y-113310163D01*
X142807808Y-113303935D01*
X142752631Y-113261071D01*
X142729387Y-113195181D01*
X142745455Y-113127184D01*
X142765524Y-113100868D01*
X143720480Y-112145913D01*
X143773207Y-112054588D01*
X143800500Y-111952727D01*
X143800500Y-111847273D01*
X143800500Y-110427525D01*
X144849500Y-110427525D01*
X144849500Y-110572475D01*
X144871438Y-110654346D01*
X144887017Y-110712488D01*
X144959488Y-110838011D01*
X144959490Y-110838013D01*
X144959490Y-110838014D01*
X144959493Y-110838017D01*
X145038181Y-110916705D01*
X145071666Y-110978028D01*
X145074500Y-111004386D01*
X145074500Y-112942852D01*
X145096682Y-113025640D01*
X145110294Y-113049216D01*
X145139535Y-113099862D01*
X145139537Y-113099864D01*
X145781033Y-113741360D01*
X145814518Y-113802683D01*
X145814970Y-113853231D01*
X145799501Y-113931002D01*
X145799500Y-113931007D01*
X145799500Y-114068993D01*
X145799500Y-114068995D01*
X145799499Y-114068995D01*
X145826418Y-114204322D01*
X145826421Y-114204332D01*
X145879221Y-114331804D01*
X145879228Y-114331817D01*
X145955885Y-114446541D01*
X145955888Y-114446545D01*
X146053454Y-114544111D01*
X146053458Y-114544114D01*
X146168182Y-114620771D01*
X146168195Y-114620778D01*
X146286732Y-114669877D01*
X146295672Y-114673580D01*
X146295676Y-114673580D01*
X146295677Y-114673581D01*
X146431004Y-114700500D01*
X146431007Y-114700500D01*
X146568995Y-114700500D01*
X146660041Y-114682389D01*
X146704328Y-114673580D01*
X146831811Y-114620775D01*
X146946542Y-114544114D01*
X147044114Y-114446542D01*
X147120775Y-114331811D01*
X147173580Y-114204328D01*
X147190900Y-114117255D01*
X147200500Y-114068995D01*
X147200500Y-113931004D01*
X147173581Y-113795677D01*
X147173580Y-113795676D01*
X147173580Y-113795672D01*
X147156828Y-113755228D01*
X147120778Y-113668195D01*
X147120771Y-113668182D01*
X147044114Y-113553458D01*
X147044111Y-113553454D01*
X146946545Y-113455888D01*
X146946541Y-113455885D01*
X146831817Y-113379228D01*
X146831804Y-113379221D01*
X146704332Y-113326421D01*
X146704322Y-113326418D01*
X146568995Y-113299500D01*
X146568993Y-113299500D01*
X146431007Y-113299500D01*
X146353231Y-113314970D01*
X146283640Y-113308741D01*
X146241360Y-113281033D01*
X145761819Y-112801492D01*
X145728334Y-112740169D01*
X145725500Y-112713811D01*
X145725500Y-111004386D01*
X145745185Y-110937347D01*
X145761819Y-110916705D01*
X145783020Y-110895504D01*
X145840509Y-110838015D01*
X145912984Y-110712485D01*
X145950500Y-110572475D01*
X145950500Y-110427525D01*
X145912984Y-110287515D01*
X145883888Y-110237119D01*
X145871613Y-110215858D01*
X145855000Y-110153858D01*
X145855000Y-109175000D01*
X145455001Y-109175000D01*
X145455001Y-109825500D01*
X145435316Y-109892539D01*
X145382512Y-109938294D01*
X145331001Y-109949500D01*
X145327525Y-109949500D01*
X145198993Y-109983940D01*
X145187511Y-109987017D01*
X145061988Y-110059488D01*
X145061982Y-110059493D01*
X144959493Y-110161982D01*
X144959488Y-110161988D01*
X144887017Y-110287511D01*
X144887016Y-110287515D01*
X144849500Y-110427525D01*
X143800500Y-110427525D01*
X143800500Y-108249500D01*
X143820185Y-108182461D01*
X143872989Y-108136706D01*
X143924500Y-108125500D01*
X144504270Y-108125500D01*
X144534699Y-108122646D01*
X144534701Y-108122646D01*
X144598790Y-108100219D01*
X144662882Y-108077793D01*
X144772150Y-107997150D01*
X144852793Y-107887882D01*
X144878432Y-107814609D01*
X144897646Y-107759701D01*
X144897646Y-107759699D01*
X144900500Y-107729269D01*
X144900500Y-107624500D01*
X144920185Y-107557461D01*
X144972989Y-107511706D01*
X145024500Y-107500500D01*
X145668867Y-107500500D01*
X145735906Y-107520185D01*
X145781661Y-107572989D01*
X145791605Y-107642147D01*
X145762580Y-107705703D01*
X145709821Y-107741542D01*
X145692354Y-107747653D01*
X145583207Y-107828207D01*
X145502653Y-107937354D01*
X145457850Y-108065395D01*
X145457850Y-108065399D01*
X145455000Y-108095793D01*
X145455000Y-108775000D01*
X145931000Y-108775000D01*
X145998039Y-108794685D01*
X146043794Y-108847489D01*
X146055000Y-108899000D01*
X146055000Y-108975000D01*
X146131000Y-108975000D01*
X146198039Y-108994685D01*
X146243794Y-109047489D01*
X146255000Y-109099000D01*
X146255000Y-110249999D01*
X146259196Y-110249999D01*
X146289606Y-110247148D01*
X146417645Y-110202346D01*
X146526792Y-110121792D01*
X146607346Y-110012645D01*
X146607347Y-110012643D01*
X146626712Y-109957300D01*
X146667433Y-109900523D01*
X146732385Y-109874775D01*
X146800947Y-109888231D01*
X146851351Y-109936617D01*
X146855155Y-109943793D01*
X146885803Y-110006485D01*
X146968514Y-110089196D01*
X146968515Y-110089196D01*
X146968517Y-110089198D01*
X147073607Y-110140573D01*
X147099626Y-110144364D01*
X147141739Y-110150500D01*
X147141740Y-110150500D01*
X147508261Y-110150500D01*
X147530971Y-110147191D01*
X147576393Y-110140573D01*
X147681483Y-110089198D01*
X147764198Y-110006483D01*
X147815573Y-109901393D01*
X147825500Y-109833260D01*
X147825500Y-108116740D01*
X147815573Y-108048607D01*
X147764198Y-107943517D01*
X147764196Y-107943515D01*
X147764196Y-107943514D01*
X147681485Y-107860803D01*
X147576391Y-107809426D01*
X147508261Y-107799500D01*
X147508260Y-107799500D01*
X147141740Y-107799500D01*
X147141739Y-107799500D01*
X147073608Y-107809426D01*
X146968514Y-107860803D01*
X146885802Y-107943515D01*
X146855154Y-108006207D01*
X146808026Y-108057789D01*
X146740492Y-108075703D01*
X146673993Y-108054262D01*
X146629644Y-108000272D01*
X146626712Y-107992700D01*
X146607346Y-107937354D01*
X146526792Y-107828207D01*
X146417645Y-107747653D01*
X146400179Y-107741542D01*
X146343403Y-107700820D01*
X146317655Y-107635867D01*
X146331111Y-107567306D01*
X146379498Y-107516903D01*
X146441133Y-107500500D01*
X147852725Y-107500500D01*
X147852727Y-107500500D01*
X147954588Y-107473207D01*
X148045913Y-107420480D01*
X149812319Y-105654074D01*
X149873642Y-105620589D01*
X149943334Y-105625573D01*
X149987681Y-105654074D01*
X150354087Y-106020480D01*
X150445412Y-106073207D01*
X150547273Y-106100500D01*
X150547275Y-106100500D01*
X153121614Y-106100500D01*
X153188653Y-106120185D01*
X153234408Y-106172989D01*
X153244352Y-106242147D01*
X153215327Y-106305703D01*
X153209295Y-106312181D01*
X153159493Y-106361982D01*
X153159488Y-106361988D01*
X153087017Y-106487511D01*
X153087016Y-106487515D01*
X153049500Y-106627525D01*
X153049500Y-106772475D01*
X153071503Y-106854589D01*
X153087017Y-106912488D01*
X153159488Y-107038011D01*
X153159493Y-107038017D01*
X153238181Y-107116705D01*
X153271666Y-107178028D01*
X153274500Y-107204386D01*
X153274500Y-107853456D01*
X153254815Y-107920495D01*
X153238181Y-107941137D01*
X153235803Y-107943514D01*
X153184426Y-108048608D01*
X153174500Y-108116739D01*
X153174500Y-109833260D01*
X153184426Y-109901391D01*
X153235801Y-110006482D01*
X153235802Y-110006483D01*
X153238178Y-110008859D01*
X153240391Y-110012911D01*
X153241773Y-110014847D01*
X153241539Y-110015013D01*
X153271665Y-110070179D01*
X153274500Y-110096543D01*
X153274500Y-112704495D01*
X153254815Y-112771534D01*
X153202011Y-112817289D01*
X153132853Y-112827233D01*
X153069297Y-112798208D01*
X153043114Y-112766496D01*
X153040513Y-112761991D01*
X153040511Y-112761988D01*
X153040509Y-112761985D01*
X152961818Y-112683294D01*
X152928334Y-112621970D01*
X152925500Y-112595613D01*
X152925500Y-109742697D01*
X152925541Y-109742544D01*
X152925500Y-109699691D01*
X152925500Y-109657147D01*
X152925498Y-109657143D01*
X152925458Y-109656834D01*
X152914425Y-109615815D01*
X152914394Y-109615699D01*
X152909725Y-109598273D01*
X152909725Y-109598271D01*
X152905500Y-109566181D01*
X152905500Y-108116739D01*
X152896397Y-108054262D01*
X152895573Y-108048607D01*
X152844198Y-107943517D01*
X152844196Y-107943515D01*
X152844196Y-107943514D01*
X152761485Y-107860803D01*
X152656391Y-107809426D01*
X152588261Y-107799500D01*
X152588260Y-107799500D01*
X152221740Y-107799500D01*
X152221739Y-107799500D01*
X152153608Y-107809426D01*
X152048514Y-107860803D01*
X151965803Y-107943514D01*
X151914426Y-108048608D01*
X151904500Y-108116739D01*
X151904500Y-109833260D01*
X151914426Y-109901391D01*
X151965803Y-110006485D01*
X152048514Y-110089196D01*
X152048515Y-110089196D01*
X152048517Y-110089198D01*
X152153607Y-110140573D01*
X152168378Y-110142725D01*
X152231877Y-110171867D01*
X152269542Y-110230716D01*
X152274500Y-110265429D01*
X152274500Y-112595613D01*
X152254815Y-112662652D01*
X152238182Y-112683294D01*
X152159488Y-112761988D01*
X152087017Y-112887511D01*
X152087016Y-112887515D01*
X152049500Y-113027525D01*
X152049500Y-113172475D01*
X152086394Y-113310163D01*
X152087017Y-113312488D01*
X152159488Y-113438011D01*
X152159490Y-113438013D01*
X152159491Y-113438015D01*
X152261985Y-113540509D01*
X152261986Y-113540510D01*
X152261988Y-113540511D01*
X152387511Y-113612982D01*
X152387512Y-113612982D01*
X152387515Y-113612984D01*
X152527525Y-113650500D01*
X152527528Y-113650500D01*
X152672471Y-113650500D01*
X152672475Y-113650500D01*
X152672974Y-113650366D01*
X152673411Y-113650376D01*
X152680531Y-113649439D01*
X152680677Y-113650549D01*
X152742821Y-113652026D01*
X152800685Y-113691187D01*
X152828191Y-113755414D01*
X152826686Y-113794331D01*
X152799500Y-113931002D01*
X152799500Y-113931007D01*
X152799500Y-114068993D01*
X152801450Y-114078794D01*
X152811669Y-114130171D01*
X152805441Y-114199763D01*
X152762577Y-114254940D01*
X152696687Y-114278184D01*
X152628690Y-114262116D01*
X152602370Y-114242043D01*
X151561819Y-113201492D01*
X151528334Y-113140169D01*
X151525500Y-113113811D01*
X151525500Y-110106543D01*
X151545185Y-110039504D01*
X151561821Y-110018860D01*
X151567770Y-110012911D01*
X151574198Y-110006483D01*
X151625573Y-109901393D01*
X151635500Y-109833260D01*
X151635500Y-108116740D01*
X151625573Y-108048607D01*
X151574198Y-107943517D01*
X151574196Y-107943515D01*
X151574196Y-107943514D01*
X151491485Y-107860803D01*
X151386391Y-107809426D01*
X151318261Y-107799500D01*
X151318260Y-107799500D01*
X150951740Y-107799500D01*
X150951739Y-107799500D01*
X150883608Y-107809426D01*
X150778514Y-107860803D01*
X150695803Y-107943514D01*
X150644426Y-108048608D01*
X150634500Y-108116739D01*
X150634500Y-109833260D01*
X150644426Y-109901391D01*
X150695803Y-110006485D01*
X150778514Y-110089196D01*
X150778513Y-110089196D01*
X150778516Y-110089197D01*
X150778517Y-110089198D01*
X150804959Y-110102124D01*
X150856542Y-110149251D01*
X150874500Y-110213525D01*
X150874500Y-113342852D01*
X150896682Y-113425640D01*
X150915897Y-113458920D01*
X150939535Y-113499862D01*
X150939537Y-113499864D01*
X157638181Y-120198508D01*
X157671666Y-120259831D01*
X157674500Y-120286189D01*
X157674500Y-120666586D01*
X157654815Y-120733625D01*
X157650270Y-120740219D01*
X157597209Y-120812113D01*
X157597206Y-120812119D01*
X157552353Y-120940298D01*
X157552353Y-120940300D01*
X157549500Y-120970730D01*
X157549500Y-122029269D01*
X157552353Y-122059699D01*
X157552353Y-122059701D01*
X157581871Y-122144055D01*
X157597207Y-122187882D01*
X157677850Y-122297150D01*
X157787118Y-122377793D01*
X157829845Y-122392744D01*
X157915299Y-122422646D01*
X157945730Y-122425500D01*
X157945734Y-122425500D01*
X158150500Y-122425500D01*
X158217539Y-122445185D01*
X158263294Y-122497989D01*
X158274500Y-122549500D01*
X158274500Y-124142852D01*
X158296682Y-124225640D01*
X158316641Y-124260209D01*
X158339535Y-124299862D01*
X158339537Y-124299864D01*
X159063181Y-125023508D01*
X159096666Y-125084831D01*
X159099500Y-125111189D01*
X159099500Y-125429269D01*
X159102353Y-125459699D01*
X159102353Y-125459701D01*
X159141230Y-125570801D01*
X159147207Y-125587882D01*
X159227850Y-125697150D01*
X159337118Y-125777793D01*
X159379845Y-125792744D01*
X159465299Y-125822646D01*
X159495730Y-125825500D01*
X159495734Y-125825500D01*
X160504270Y-125825500D01*
X160534699Y-125822646D01*
X160534701Y-125822646D01*
X160598790Y-125800219D01*
X160662882Y-125777793D01*
X160772150Y-125697150D01*
X160852793Y-125587882D01*
X160875219Y-125523790D01*
X160897646Y-125459701D01*
X160897646Y-125459699D01*
X160900500Y-125429269D01*
X160900500Y-124795733D01*
X160897322Y-124761851D01*
X160910660Y-124693266D01*
X160958960Y-124642780D01*
X161026888Y-124626422D01*
X161052864Y-124630494D01*
X161127525Y-124650500D01*
X161127528Y-124650500D01*
X161272472Y-124650500D01*
X161272475Y-124650500D01*
X161412485Y-124612984D01*
X161538015Y-124540509D01*
X161640509Y-124438015D01*
X161712984Y-124312485D01*
X161750500Y-124172475D01*
X161750500Y-124027525D01*
X161712984Y-123887515D01*
X161704803Y-123873346D01*
X161640511Y-123761988D01*
X161640506Y-123761982D01*
X161538017Y-123659493D01*
X161538011Y-123659488D01*
X161412488Y-123587017D01*
X161412489Y-123587017D01*
X161401006Y-123583940D01*
X161272475Y-123549500D01*
X161161189Y-123549500D01*
X161131748Y-123540855D01*
X161101762Y-123534332D01*
X161096746Y-123530577D01*
X161094150Y-123529815D01*
X161073508Y-123513181D01*
X160936819Y-123376492D01*
X160903334Y-123315169D01*
X160900500Y-123288811D01*
X160900500Y-122970730D01*
X160897646Y-122940300D01*
X160897646Y-122940298D01*
X160852793Y-122812119D01*
X160852792Y-122812117D01*
X160816447Y-122762871D01*
X160772150Y-122702850D01*
X160662882Y-122622207D01*
X160662880Y-122622206D01*
X160534700Y-122577353D01*
X160504270Y-122574500D01*
X160504266Y-122574500D01*
X159495734Y-122574500D01*
X159495730Y-122574500D01*
X159465300Y-122577353D01*
X159465298Y-122577353D01*
X159337119Y-122622206D01*
X159337117Y-122622207D01*
X159227850Y-122702850D01*
X159149270Y-122809323D01*
X159093623Y-122851573D01*
X159023967Y-122857032D01*
X158962417Y-122823965D01*
X158928516Y-122762871D01*
X158925500Y-122735689D01*
X158925500Y-122144055D01*
X158932459Y-122103100D01*
X158947646Y-122059699D01*
X158950500Y-122029266D01*
X158950500Y-121349500D01*
X158970185Y-121282461D01*
X159022989Y-121236706D01*
X159074500Y-121225500D01*
X160842851Y-121225500D01*
X160842853Y-121225500D01*
X160925639Y-121203318D01*
X160999862Y-121160465D01*
X161460465Y-120699862D01*
X161494776Y-120640433D01*
X161503318Y-120625638D01*
X161525500Y-120542853D01*
X161525500Y-118657147D01*
X161503318Y-118574362D01*
X161503318Y-118574361D01*
X161460465Y-118500138D01*
X160936819Y-117976492D01*
X160903334Y-117915169D01*
X160900500Y-117888811D01*
X160900500Y-117570730D01*
X160897646Y-117540300D01*
X160897646Y-117540298D01*
X160852793Y-117412119D01*
X160852792Y-117412117D01*
X160811970Y-117356805D01*
X160772150Y-117302850D01*
X160662882Y-117222207D01*
X160662880Y-117222206D01*
X160649967Y-117217688D01*
X160534700Y-117177353D01*
X160504270Y-117174500D01*
X160504266Y-117174500D01*
X159495734Y-117174500D01*
X159495730Y-117174500D01*
X159465302Y-117177353D01*
X159399301Y-117200448D01*
X159329523Y-117204009D01*
X159268895Y-117169280D01*
X159236668Y-117107287D01*
X159236831Y-117105513D01*
X162399500Y-117105513D01*
X162399500Y-117294486D01*
X162429059Y-117481118D01*
X162487454Y-117660836D01*
X162533379Y-117750968D01*
X162573240Y-117829199D01*
X162684310Y-117982073D01*
X162817927Y-118115690D01*
X162970801Y-118226760D01*
X163050347Y-118267290D01*
X163139163Y-118312545D01*
X163139165Y-118312545D01*
X163139168Y-118312547D01*
X163221043Y-118339150D01*
X163318881Y-118370940D01*
X163505514Y-118400500D01*
X163505519Y-118400500D01*
X163694486Y-118400500D01*
X163881118Y-118370940D01*
X163938433Y-118352317D01*
X164060832Y-118312547D01*
X164229199Y-118226760D01*
X164338040Y-118147682D01*
X169300000Y-118147682D01*
X169300000Y-118352317D01*
X169332009Y-118554417D01*
X169395244Y-118749031D01*
X169488139Y-118931347D01*
X169550279Y-119016876D01*
X170019668Y-118547487D01*
X170023978Y-118557890D01*
X170095112Y-118664351D01*
X170185649Y-118754888D01*
X170292110Y-118826022D01*
X170302510Y-118830330D01*
X169833121Y-119299719D01*
X169833122Y-119299720D01*
X169918640Y-119361852D01*
X169918649Y-119361858D01*
X170100968Y-119454755D01*
X170295582Y-119517990D01*
X170497683Y-119550000D01*
X170702317Y-119550000D01*
X170904417Y-119517990D01*
X171099031Y-119454755D01*
X171281349Y-119361859D01*
X171366876Y-119299719D01*
X171366877Y-119299718D01*
X170897489Y-118830330D01*
X170907890Y-118826022D01*
X171014351Y-118754888D01*
X171104888Y-118664351D01*
X171176022Y-118557890D01*
X171180330Y-118547488D01*
X171649718Y-119016877D01*
X171649719Y-119016876D01*
X171711859Y-118931349D01*
X171804755Y-118749031D01*
X171867990Y-118554417D01*
X171900000Y-118352317D01*
X171900000Y-118147682D01*
X171867990Y-117945582D01*
X171804755Y-117750968D01*
X171711858Y-117568649D01*
X171711852Y-117568640D01*
X171649720Y-117483122D01*
X171649719Y-117483121D01*
X171180330Y-117952510D01*
X171176022Y-117942110D01*
X171104888Y-117835649D01*
X171014351Y-117745112D01*
X170907890Y-117673978D01*
X170897487Y-117669669D01*
X171366876Y-117200279D01*
X171281347Y-117138139D01*
X171099031Y-117045244D01*
X170904417Y-116982009D01*
X170702317Y-116950000D01*
X170497683Y-116950000D01*
X170295582Y-116982009D01*
X170100968Y-117045244D01*
X169918648Y-117138141D01*
X169833122Y-117200278D01*
X169833122Y-117200279D01*
X170302512Y-117669669D01*
X170292110Y-117673978D01*
X170185649Y-117745112D01*
X170095112Y-117835649D01*
X170023978Y-117942110D01*
X170019669Y-117952512D01*
X169550279Y-117483122D01*
X169550278Y-117483122D01*
X169488141Y-117568648D01*
X169395244Y-117750968D01*
X169332009Y-117945582D01*
X169300000Y-118147682D01*
X164338040Y-118147682D01*
X164382073Y-118115690D01*
X164515690Y-117982073D01*
X164626760Y-117829199D01*
X164712547Y-117660832D01*
X164770940Y-117481118D01*
X164779428Y-117427525D01*
X164800500Y-117294486D01*
X164800500Y-117149500D01*
X164820185Y-117082461D01*
X164872989Y-117036706D01*
X164924500Y-117025500D01*
X168442851Y-117025500D01*
X168442853Y-117025500D01*
X168525639Y-117003318D01*
X168599862Y-116960465D01*
X171599859Y-113960466D01*
X171599862Y-113960465D01*
X171660465Y-113899862D01*
X171686604Y-113854588D01*
X171703318Y-113825639D01*
X171725501Y-113742853D01*
X171725501Y-113657147D01*
X171725501Y-113649552D01*
X171725500Y-113649534D01*
X171725500Y-113604386D01*
X171745185Y-113537347D01*
X171761819Y-113516705D01*
X171795780Y-113482744D01*
X171840509Y-113438015D01*
X171912984Y-113312485D01*
X171950500Y-113172475D01*
X171950500Y-113027525D01*
X171947962Y-113018053D01*
X173550000Y-113018053D01*
X173560613Y-113106443D01*
X173616079Y-113247095D01*
X173707435Y-113367564D01*
X173827904Y-113458920D01*
X173968556Y-113514386D01*
X174056946Y-113525000D01*
X174150000Y-113525000D01*
X174550000Y-113525000D01*
X174643054Y-113525000D01*
X174731443Y-113514386D01*
X174872095Y-113458920D01*
X174992564Y-113367564D01*
X175083920Y-113247095D01*
X175139386Y-113106443D01*
X175150000Y-113018053D01*
X175150000Y-112700000D01*
X174550000Y-112700000D01*
X174550000Y-113525000D01*
X174150000Y-113525000D01*
X174150000Y-112700000D01*
X173550000Y-112700000D01*
X173550000Y-113018053D01*
X171947962Y-113018053D01*
X171912984Y-112887515D01*
X171902978Y-112870185D01*
X171840511Y-112761988D01*
X171840510Y-112761986D01*
X171840509Y-112761985D01*
X171738015Y-112659491D01*
X171738013Y-112659490D01*
X171738011Y-112659488D01*
X171612488Y-112587017D01*
X171612489Y-112587017D01*
X171590589Y-112581149D01*
X171472475Y-112549500D01*
X171327525Y-112549500D01*
X171209411Y-112581149D01*
X171187511Y-112587017D01*
X171091500Y-112642450D01*
X171023600Y-112658923D01*
X170957573Y-112636071D01*
X170914382Y-112581149D01*
X170905500Y-112535063D01*
X170905500Y-112336828D01*
X170905499Y-112336824D01*
X170903651Y-112320426D01*
X170874973Y-112065892D01*
X170868964Y-112012558D01*
X170868963Y-112012553D01*
X170868962Y-112012544D01*
X170866547Y-112001965D01*
X170861978Y-111981946D01*
X173550000Y-111981946D01*
X173550000Y-112300000D01*
X174150000Y-112300000D01*
X174550000Y-112300000D01*
X175150000Y-112300000D01*
X175150000Y-111981946D01*
X175139386Y-111893556D01*
X175083920Y-111752904D01*
X174992564Y-111632435D01*
X174872095Y-111541079D01*
X174731443Y-111485613D01*
X174643054Y-111475000D01*
X174550000Y-111475000D01*
X174550000Y-112300000D01*
X174150000Y-112300000D01*
X174150000Y-111475000D01*
X174056946Y-111475000D01*
X173968556Y-111485613D01*
X173827904Y-111541079D01*
X173707435Y-111632435D01*
X173616079Y-111752904D01*
X173560613Y-111893556D01*
X173550000Y-111981946D01*
X170861978Y-111981946D01*
X170796344Y-111694387D01*
X170796343Y-111694385D01*
X170782244Y-111654090D01*
X170688562Y-111386361D01*
X170580509Y-111161988D01*
X170546969Y-111092342D01*
X170546968Y-111092340D01*
X170373346Y-110816021D01*
X170169877Y-110560879D01*
X169939121Y-110330123D01*
X169937577Y-110328892D01*
X169824091Y-110238390D01*
X169683979Y-110126654D01*
X169461747Y-109987017D01*
X169407657Y-109953030D01*
X169113640Y-109811438D01*
X168805614Y-109703656D01*
X168805612Y-109703655D01*
X168554914Y-109646435D01*
X168487456Y-109631038D01*
X168487453Y-109631037D01*
X168487441Y-109631035D01*
X168163175Y-109594500D01*
X168163169Y-109594500D01*
X167836831Y-109594500D01*
X167836824Y-109594500D01*
X167512558Y-109631035D01*
X167512544Y-109631038D01*
X167194387Y-109703655D01*
X167194385Y-109703656D01*
X166886359Y-109811438D01*
X166592342Y-109953030D01*
X166316022Y-110126653D01*
X166060879Y-110330122D01*
X165830122Y-110560879D01*
X165626653Y-110816022D01*
X165453030Y-111092342D01*
X165311438Y-111386359D01*
X165203656Y-111694385D01*
X165203655Y-111694387D01*
X165131038Y-112012544D01*
X165131035Y-112012558D01*
X165094500Y-112336824D01*
X165094500Y-112663175D01*
X165131035Y-112987441D01*
X165131037Y-112987453D01*
X165131038Y-112987456D01*
X165134691Y-113003461D01*
X165203655Y-113305612D01*
X165203656Y-113305614D01*
X165311438Y-113613640D01*
X165453030Y-113907657D01*
X165506744Y-113993143D01*
X165626654Y-114183979D01*
X165694105Y-114268560D01*
X165816161Y-114421614D01*
X165830123Y-114439121D01*
X166060879Y-114669877D01*
X166316021Y-114873346D01*
X166592340Y-115046968D01*
X166886361Y-115188562D01*
X167194387Y-115296344D01*
X167512544Y-115368962D01*
X167512553Y-115368963D01*
X167512558Y-115368964D01*
X167728735Y-115393320D01*
X167836825Y-115405499D01*
X167836828Y-115405500D01*
X167836831Y-115405500D01*
X168163172Y-115405500D01*
X168163173Y-115405499D01*
X168328900Y-115386826D01*
X168487441Y-115368964D01*
X168487444Y-115368963D01*
X168487456Y-115368962D01*
X168805613Y-115296344D01*
X169113639Y-115188562D01*
X169113654Y-115188554D01*
X169113779Y-115188503D01*
X169113820Y-115188498D01*
X169116923Y-115187413D01*
X169117176Y-115188137D01*
X169183247Y-115181021D01*
X169245733Y-115212283D01*
X169281397Y-115272365D01*
X169278917Y-115342191D01*
X169248936Y-115390736D01*
X168301492Y-116338181D01*
X168240169Y-116371666D01*
X168213811Y-116374500D01*
X164523625Y-116374500D01*
X164456586Y-116354815D01*
X164435944Y-116338181D01*
X164382075Y-116284312D01*
X164382073Y-116284310D01*
X164229199Y-116173240D01*
X164060836Y-116087454D01*
X163881118Y-116029059D01*
X163694486Y-115999500D01*
X163694481Y-115999500D01*
X163505519Y-115999500D01*
X163505514Y-115999500D01*
X163318881Y-116029059D01*
X163139163Y-116087454D01*
X162970800Y-116173240D01*
X162883579Y-116236610D01*
X162817927Y-116284310D01*
X162817925Y-116284312D01*
X162817924Y-116284312D01*
X162684312Y-116417924D01*
X162684312Y-116417925D01*
X162684310Y-116417927D01*
X162676072Y-116429266D01*
X162573240Y-116570800D01*
X162487454Y-116739163D01*
X162429059Y-116918881D01*
X162399500Y-117105513D01*
X159236831Y-117105513D01*
X159243073Y-117037711D01*
X159270664Y-116995727D01*
X160435703Y-115830687D01*
X160435708Y-115830684D01*
X160445911Y-115820480D01*
X160445913Y-115820480D01*
X160520480Y-115745913D01*
X160573207Y-115654587D01*
X160581229Y-115624649D01*
X160600501Y-115552727D01*
X160600501Y-115447273D01*
X160600501Y-115439678D01*
X160600500Y-115439660D01*
X160600500Y-114795996D01*
X160620185Y-114728957D01*
X160672989Y-114683202D01*
X160700310Y-114674379D01*
X160704328Y-114673580D01*
X160831811Y-114620775D01*
X160946542Y-114544114D01*
X161044114Y-114446542D01*
X161120775Y-114331811D01*
X161173580Y-114204328D01*
X161190900Y-114117255D01*
X161200500Y-114068995D01*
X161200500Y-113931004D01*
X161173581Y-113795677D01*
X161173580Y-113795676D01*
X161173580Y-113795672D01*
X161156828Y-113755228D01*
X161120778Y-113668195D01*
X161120771Y-113668182D01*
X161044114Y-113553458D01*
X161044111Y-113553454D01*
X160946545Y-113455888D01*
X160946541Y-113455885D01*
X160831817Y-113379228D01*
X160831804Y-113379221D01*
X160704332Y-113326421D01*
X160704322Y-113326418D01*
X160700308Y-113325620D01*
X160638397Y-113293235D01*
X160603823Y-113232519D01*
X160600500Y-113204003D01*
X160600500Y-111962729D01*
X160600501Y-111962716D01*
X160600501Y-111847274D01*
X160598432Y-111839552D01*
X160573207Y-111745413D01*
X160565059Y-111731300D01*
X160520480Y-111654087D01*
X160445913Y-111579520D01*
X160445912Y-111579519D01*
X160441582Y-111575189D01*
X160441571Y-111575179D01*
X159554073Y-110687681D01*
X159520588Y-110626358D01*
X159525572Y-110556666D01*
X159554073Y-110512319D01*
X160179573Y-109886819D01*
X160240896Y-109853334D01*
X160267254Y-109850500D01*
X160272472Y-109850500D01*
X160272475Y-109850500D01*
X160412485Y-109812984D01*
X160538015Y-109740509D01*
X160640509Y-109638015D01*
X160712984Y-109512485D01*
X160750500Y-109372475D01*
X160750500Y-109227525D01*
X160712984Y-109087515D01*
X160696805Y-109059493D01*
X160640511Y-108961988D01*
X160640506Y-108961982D01*
X160538017Y-108859493D01*
X160538011Y-108859488D01*
X160412488Y-108787017D01*
X160412489Y-108787017D01*
X160401006Y-108783940D01*
X160272475Y-108749500D01*
X160127525Y-108749500D01*
X159998993Y-108783940D01*
X159987511Y-108787017D01*
X159861988Y-108859488D01*
X159861982Y-108859493D01*
X159759493Y-108961982D01*
X159759488Y-108961988D01*
X159687017Y-109087511D01*
X159687016Y-109087515D01*
X159649500Y-109227525D01*
X159649500Y-109227527D01*
X159649500Y-109232745D01*
X159629815Y-109299784D01*
X159613181Y-109320426D01*
X158987681Y-109945926D01*
X158926358Y-109979411D01*
X158856666Y-109974427D01*
X158812319Y-109945926D01*
X155436819Y-106570426D01*
X155403334Y-106509103D01*
X155400500Y-106482745D01*
X155400500Y-105051822D01*
X155413099Y-104997364D01*
X155435573Y-104951393D01*
X155445500Y-104883260D01*
X155445500Y-103166740D01*
X155442844Y-103148508D01*
X155435574Y-103098611D01*
X155435573Y-103098608D01*
X155435573Y-103098607D01*
X155414845Y-103056206D01*
X155413099Y-103052634D01*
X155410302Y-103040547D01*
X155405523Y-103033110D01*
X155400500Y-102998175D01*
X155400500Y-102849500D01*
X155420185Y-102782461D01*
X155472989Y-102736706D01*
X155524500Y-102725500D01*
X155554270Y-102725500D01*
X155584699Y-102722646D01*
X155584701Y-102722646D01*
X155648790Y-102700219D01*
X155712882Y-102677793D01*
X155822150Y-102597150D01*
X155902793Y-102487882D01*
X155923913Y-102427525D01*
X168649500Y-102427525D01*
X168649500Y-102572475D01*
X168678026Y-102678934D01*
X168687017Y-102712488D01*
X168759488Y-102838011D01*
X168759490Y-102838013D01*
X168759491Y-102838015D01*
X168861985Y-102940509D01*
X168861986Y-102940510D01*
X168861988Y-102940511D01*
X168987511Y-103012982D01*
X168987512Y-103012982D01*
X168987515Y-103012984D01*
X169127525Y-103050500D01*
X169127528Y-103050500D01*
X169238811Y-103050500D01*
X169305850Y-103070185D01*
X169326492Y-103086819D01*
X175238181Y-108998507D01*
X175271666Y-109059830D01*
X175274500Y-109086188D01*
X175274500Y-109857147D01*
X175274500Y-109942853D01*
X175284404Y-109979815D01*
X175296682Y-110025640D01*
X175312671Y-110053332D01*
X175339535Y-110099862D01*
X175339537Y-110099864D01*
X175638181Y-110398508D01*
X175671666Y-110459831D01*
X175674500Y-110486189D01*
X175674500Y-111666586D01*
X175654815Y-111733625D01*
X175650270Y-111740219D01*
X175597209Y-111812113D01*
X175597206Y-111812119D01*
X175552353Y-111940298D01*
X175552353Y-111940300D01*
X175549500Y-111970730D01*
X175549500Y-113029269D01*
X175552353Y-113059699D01*
X175552353Y-113059701D01*
X175597206Y-113187880D01*
X175597207Y-113187882D01*
X175677850Y-113297150D01*
X175787118Y-113377793D01*
X175817717Y-113388500D01*
X175915299Y-113422646D01*
X175945730Y-113425500D01*
X175945734Y-113425500D01*
X176150500Y-113425500D01*
X176217539Y-113445185D01*
X176263294Y-113497989D01*
X176274500Y-113549500D01*
X176274500Y-115142852D01*
X176296682Y-115225640D01*
X176303825Y-115238011D01*
X176339535Y-115299862D01*
X176339537Y-115299864D01*
X177063181Y-116023508D01*
X177096666Y-116084831D01*
X177099500Y-116111189D01*
X177099500Y-116429269D01*
X177102353Y-116459699D01*
X177102353Y-116459701D01*
X177141230Y-116570801D01*
X177147207Y-116587882D01*
X177227850Y-116697150D01*
X177298074Y-116748977D01*
X177340324Y-116804624D01*
X177345783Y-116874280D01*
X177312716Y-116935830D01*
X177256535Y-116968521D01*
X177187516Y-116987015D01*
X177187511Y-116987017D01*
X177061988Y-117059488D01*
X177061982Y-117059493D01*
X176959493Y-117161982D01*
X176959488Y-117161988D01*
X176887017Y-117287511D01*
X176887016Y-117287515D01*
X176849500Y-117427525D01*
X176849500Y-117572475D01*
X176873177Y-117660836D01*
X176887017Y-117712488D01*
X176959488Y-117838011D01*
X176959493Y-117838017D01*
X177038181Y-117916705D01*
X177071666Y-117978028D01*
X177074500Y-118004386D01*
X177074500Y-126542852D01*
X177095275Y-126620387D01*
X177099500Y-126652480D01*
X177099500Y-126888811D01*
X177079815Y-126955850D01*
X177063181Y-126976492D01*
X176339537Y-127700135D01*
X176339535Y-127700138D01*
X176296682Y-127774359D01*
X176286747Y-127811438D01*
X176275186Y-127854587D01*
X176274500Y-127857147D01*
X176274500Y-127857148D01*
X176274500Y-129450500D01*
X176254815Y-129517539D01*
X176202011Y-129563294D01*
X176150500Y-129574500D01*
X175945730Y-129574500D01*
X175915300Y-129577353D01*
X175915298Y-129577353D01*
X175787119Y-129622206D01*
X175787117Y-129622207D01*
X175677850Y-129702850D01*
X175597207Y-129812117D01*
X175597206Y-129812119D01*
X175552353Y-129940298D01*
X175552353Y-129940300D01*
X175549500Y-129970730D01*
X175549500Y-131029269D01*
X175552353Y-131059699D01*
X175552353Y-131059701D01*
X175597206Y-131187880D01*
X175597207Y-131187882D01*
X175677850Y-131297150D01*
X175787118Y-131377793D01*
X175829845Y-131392744D01*
X175915299Y-131422646D01*
X175945730Y-131425500D01*
X176557147Y-131425500D01*
X177226814Y-131425500D01*
X177293853Y-131445185D01*
X177339608Y-131497989D01*
X177349552Y-131567147D01*
X177320527Y-131630703D01*
X177300447Y-131649270D01*
X177227851Y-131702847D01*
X177147207Y-131812116D01*
X177147206Y-131812118D01*
X177102353Y-131940297D01*
X177102353Y-131940299D01*
X177099500Y-131970729D01*
X177099500Y-132288811D01*
X177079815Y-132355850D01*
X177063181Y-132376492D01*
X175326492Y-134113181D01*
X175265169Y-134146666D01*
X175238811Y-134149500D01*
X175127525Y-134149500D01*
X174998993Y-134183940D01*
X174987511Y-134187017D01*
X174861988Y-134259488D01*
X174861982Y-134259493D01*
X174759493Y-134361982D01*
X174759488Y-134361988D01*
X174687017Y-134487511D01*
X174687016Y-134487515D01*
X174649500Y-134627525D01*
X174649500Y-134772475D01*
X174663708Y-134825499D01*
X174687017Y-134912488D01*
X174759488Y-135038011D01*
X174759490Y-135038013D01*
X174759491Y-135038015D01*
X174861985Y-135140509D01*
X174861986Y-135140510D01*
X174861988Y-135140511D01*
X174987511Y-135212982D01*
X174987512Y-135212982D01*
X174987515Y-135212984D01*
X175127525Y-135250500D01*
X175127528Y-135250500D01*
X175272472Y-135250500D01*
X175272475Y-135250500D01*
X175412485Y-135212984D01*
X175538015Y-135140509D01*
X175640509Y-135038015D01*
X175712984Y-134912485D01*
X175750500Y-134772475D01*
X175750500Y-134661187D01*
X175770185Y-134594148D01*
X175786819Y-134573506D01*
X176536819Y-133823506D01*
X177334189Y-133026135D01*
X177395510Y-132992652D01*
X177457839Y-132996473D01*
X177457935Y-132996035D01*
X177460765Y-132996653D01*
X177462828Y-132996779D01*
X177465301Y-132997645D01*
X177465309Y-132997645D01*
X177465310Y-132997646D01*
X177495730Y-133000499D01*
X177495734Y-133000499D01*
X178504269Y-133000499D01*
X178531310Y-132997963D01*
X178558542Y-133003259D01*
X178586222Y-133005239D01*
X178592364Y-133009837D01*
X178599894Y-133011302D01*
X178619940Y-133030481D01*
X178642155Y-133047111D01*
X178644835Y-133054298D01*
X178650380Y-133059603D01*
X178656875Y-133086578D01*
X178666572Y-133112575D01*
X178664941Y-133120072D01*
X178666737Y-133127531D01*
X178657617Y-133153736D01*
X178651720Y-133180848D01*
X178645111Y-133189676D01*
X178643774Y-133193519D01*
X178630569Y-133209102D01*
X178501761Y-133337910D01*
X178440438Y-133371395D01*
X178415988Y-133374214D01*
X178400166Y-133374457D01*
X178398438Y-133374484D01*
X178396532Y-133374499D01*
X178357138Y-133374499D01*
X178353679Y-133374953D01*
X178353677Y-133374954D01*
X178352413Y-133375120D01*
X178314269Y-133385972D01*
X178312436Y-133386478D01*
X178279616Y-133395273D01*
X178247519Y-133399499D01*
X177495730Y-133399499D01*
X177465300Y-133402352D01*
X177465298Y-133402352D01*
X177337119Y-133447205D01*
X177337117Y-133447206D01*
X177227850Y-133527849D01*
X177147207Y-133637116D01*
X177147206Y-133637118D01*
X177102353Y-133765297D01*
X177102353Y-133765299D01*
X177099500Y-133795729D01*
X177099500Y-134429268D01*
X177102353Y-134459698D01*
X177102353Y-134459700D01*
X177141230Y-134570800D01*
X177147207Y-134587881D01*
X177227850Y-134697149D01*
X177337118Y-134777792D01*
X177379845Y-134792743D01*
X177465299Y-134822645D01*
X177495730Y-134825499D01*
X177495734Y-134825499D01*
X178504270Y-134825499D01*
X178534699Y-134822645D01*
X178534701Y-134822645D01*
X178598790Y-134800218D01*
X178662882Y-134777792D01*
X178772150Y-134697149D01*
X178852793Y-134587881D01*
X178875219Y-134523789D01*
X178897646Y-134459700D01*
X178897646Y-134459698D01*
X178900500Y-134429268D01*
X178900500Y-133911187D01*
X178920185Y-133844148D01*
X178936819Y-133823506D01*
X179123209Y-133637116D01*
X179389652Y-133370673D01*
X179389657Y-133370669D01*
X179399860Y-133360465D01*
X179399862Y-133360465D01*
X179460465Y-133299862D01*
X179503318Y-133225638D01*
X179525500Y-133142853D01*
X179525500Y-131457147D01*
X179503318Y-131374362D01*
X179463626Y-131305613D01*
X179460469Y-131300144D01*
X179460463Y-131300136D01*
X178999864Y-130839537D01*
X178999862Y-130839535D01*
X178962750Y-130818108D01*
X178925640Y-130796682D01*
X178884246Y-130785591D01*
X178842853Y-130774500D01*
X178842852Y-130774500D01*
X177074500Y-130774500D01*
X177007461Y-130754815D01*
X176961706Y-130702011D01*
X176950500Y-130650500D01*
X176950500Y-129970730D01*
X176947646Y-129940300D01*
X176947646Y-129940298D01*
X176932658Y-129897466D01*
X176932305Y-129895551D01*
X176931728Y-129894705D01*
X176929433Y-129879950D01*
X176926979Y-129866620D01*
X176926711Y-129866655D01*
X176926487Y-129864890D01*
X176926396Y-129863452D01*
X176925746Y-129859921D01*
X176925547Y-129852688D01*
X176925683Y-129852172D01*
X176925500Y-129849278D01*
X176925500Y-129264310D01*
X176945185Y-129197271D01*
X176997989Y-129151516D01*
X177067147Y-129141572D01*
X177130703Y-129170597D01*
X177149265Y-129190670D01*
X177227850Y-129297150D01*
X177337118Y-129377793D01*
X177361604Y-129386361D01*
X177465299Y-129422646D01*
X177495730Y-129425500D01*
X177495734Y-129425500D01*
X178504270Y-129425500D01*
X178534699Y-129422646D01*
X178534701Y-129422646D01*
X178598790Y-129400219D01*
X178662882Y-129377793D01*
X178772150Y-129297150D01*
X178852793Y-129187882D01*
X178886224Y-129092342D01*
X178897646Y-129059701D01*
X178897646Y-129059699D01*
X178900500Y-129029269D01*
X178900500Y-128817255D01*
X178920185Y-128750216D01*
X178936819Y-128729574D01*
X179304541Y-128361852D01*
X179720480Y-127945913D01*
X179773207Y-127854588D01*
X179800500Y-127752727D01*
X179800500Y-127647273D01*
X179800500Y-113447273D01*
X179789108Y-113404756D01*
X179773207Y-113345412D01*
X179720480Y-113254087D01*
X179036819Y-112570426D01*
X179003334Y-112509103D01*
X179000500Y-112482745D01*
X179000500Y-111047275D01*
X179000500Y-111047273D01*
X178973207Y-110945413D01*
X178920480Y-110854087D01*
X178920478Y-110854085D01*
X178917113Y-110848256D01*
X178900500Y-110786256D01*
X178900500Y-110395730D01*
X178897646Y-110365300D01*
X178897646Y-110365298D01*
X178857300Y-110249999D01*
X178852793Y-110237118D01*
X178772150Y-110127850D01*
X178662882Y-110047207D01*
X178662880Y-110047206D01*
X178534700Y-110002353D01*
X178504270Y-109999500D01*
X178504266Y-109999500D01*
X177517255Y-109999500D01*
X177450216Y-109979815D01*
X177429574Y-109963181D01*
X177232211Y-109765818D01*
X177198726Y-109704495D01*
X177203710Y-109634803D01*
X177245582Y-109578870D01*
X177311046Y-109554453D01*
X177360847Y-109561096D01*
X177465299Y-109597646D01*
X177495730Y-109600500D01*
X177495734Y-109600500D01*
X178504270Y-109600500D01*
X178534699Y-109597646D01*
X178534701Y-109597646D01*
X178606642Y-109572472D01*
X178662882Y-109552793D01*
X178772150Y-109472150D01*
X178852793Y-109362882D01*
X178879166Y-109287511D01*
X178897646Y-109234701D01*
X178897646Y-109234699D01*
X178900500Y-109204269D01*
X178900500Y-108570730D01*
X178897646Y-108540300D01*
X178897646Y-108540298D01*
X178852793Y-108412119D01*
X178852792Y-108412117D01*
X178772150Y-108302850D01*
X178662882Y-108222207D01*
X178662880Y-108222206D01*
X178534700Y-108177353D01*
X178504270Y-108174500D01*
X178504266Y-108174500D01*
X177586189Y-108174500D01*
X177519150Y-108154815D01*
X177498507Y-108138181D01*
X177456119Y-108095793D01*
X177399862Y-108039535D01*
X177368493Y-108021423D01*
X177325640Y-107996682D01*
X177282040Y-107985000D01*
X177242853Y-107974500D01*
X176242853Y-107974500D01*
X176157147Y-107974500D01*
X176074359Y-107996682D01*
X176000138Y-108039535D01*
X176000135Y-108039537D01*
X175687680Y-108351992D01*
X175626357Y-108385477D01*
X175556665Y-108380493D01*
X175512318Y-108351992D01*
X170741917Y-103581590D01*
X170660327Y-103500000D01*
X175550000Y-103500000D01*
X175597075Y-103977969D01*
X175736496Y-104437578D01*
X175962895Y-104861141D01*
X175962899Y-104861148D01*
X176267587Y-105232411D01*
X176638850Y-105537099D01*
X176638857Y-105537103D01*
X177062420Y-105763502D01*
X177062422Y-105763502D01*
X177062425Y-105763504D01*
X177522028Y-105902923D01*
X177522027Y-105902923D01*
X177569104Y-105907559D01*
X178000000Y-105950000D01*
X178477971Y-105902923D01*
X178937574Y-105763504D01*
X178943262Y-105760464D01*
X179222624Y-105611142D01*
X179361147Y-105537100D01*
X179732411Y-105232411D01*
X180037100Y-104861147D01*
X180263268Y-104438015D01*
X180263502Y-104437578D01*
X180263502Y-104437577D01*
X180263504Y-104437574D01*
X180402923Y-103977971D01*
X180450000Y-103500000D01*
X180402923Y-103022028D01*
X180263504Y-102562425D01*
X180263502Y-102562422D01*
X180263502Y-102562420D01*
X180037103Y-102138857D01*
X180037099Y-102138850D01*
X179732411Y-101767587D01*
X179361148Y-101462899D01*
X179361141Y-101462895D01*
X178937578Y-101236496D01*
X178606797Y-101136155D01*
X178477971Y-101097076D01*
X178477969Y-101097075D01*
X178477971Y-101097075D01*
X178000000Y-101050000D01*
X177522029Y-101097075D01*
X177062420Y-101236496D01*
X176638857Y-101462895D01*
X176638850Y-101462899D01*
X176267587Y-101767587D01*
X175962899Y-102138850D01*
X175962895Y-102138857D01*
X175736496Y-102562420D01*
X175597075Y-103022029D01*
X175550000Y-103500000D01*
X170660327Y-103500000D01*
X169786819Y-102626492D01*
X169753334Y-102565169D01*
X169750500Y-102538811D01*
X169750500Y-102427527D01*
X169750500Y-102427525D01*
X169712984Y-102287515D01*
X169660541Y-102196682D01*
X169640511Y-102161988D01*
X169640506Y-102161982D01*
X169538017Y-102059493D01*
X169538011Y-102059488D01*
X169412488Y-101987017D01*
X169412489Y-101987017D01*
X169401006Y-101983940D01*
X169272475Y-101949500D01*
X169127525Y-101949500D01*
X168998993Y-101983940D01*
X168987511Y-101987017D01*
X168861988Y-102059488D01*
X168861982Y-102059493D01*
X168759493Y-102161982D01*
X168759488Y-102161988D01*
X168687017Y-102287511D01*
X168687016Y-102287515D01*
X168649500Y-102427525D01*
X155923913Y-102427525D01*
X155931290Y-102406443D01*
X155941088Y-102378443D01*
X155947645Y-102359701D01*
X155947646Y-102359699D01*
X155950500Y-102329269D01*
X155950500Y-101270730D01*
X155947646Y-101240300D01*
X155947646Y-101240298D01*
X155911108Y-101135880D01*
X155902793Y-101112118D01*
X155822150Y-101002850D01*
X155822149Y-101002849D01*
X155818669Y-100998134D01*
X155794698Y-100932505D01*
X155810014Y-100864334D01*
X155859754Y-100815266D01*
X155918439Y-100800500D01*
X179983292Y-100800500D01*
X179993037Y-100800883D01*
X180099145Y-100809249D01*
X180118318Y-100812284D01*
X180206455Y-100833426D01*
X180224944Y-100839428D01*
X180308280Y-100873912D01*
X180325592Y-100882722D01*
X180402307Y-100929667D01*
X180418235Y-100941248D01*
X180486464Y-100999672D01*
X180500056Y-101013273D01*
X180558826Y-101082011D01*
X180570298Y-101097793D01*
X180617284Y-101174461D01*
X180626137Y-101191843D01*
X180660771Y-101275542D01*
X180666701Y-101293734D01*
X180687875Y-101381059D01*
X180691004Y-101400792D01*
X180699137Y-101506782D01*
X180699500Y-101516269D01*
X180699500Y-141483732D01*
X180699137Y-141493218D01*
X180691003Y-141599237D01*
X180687874Y-141618971D01*
X180666707Y-141706268D01*
X180660773Y-141724469D01*
X180626145Y-141808133D01*
X180617294Y-141825509D01*
X180570286Y-141902208D01*
X180558820Y-141917981D01*
X180500047Y-141986738D01*
X180486448Y-142000350D01*
X180418235Y-142058768D01*
X180402295Y-142070357D01*
X180325558Y-142117310D01*
X180308278Y-142126106D01*
X180224992Y-142160592D01*
X180206433Y-142166615D01*
X180118350Y-142187709D01*
X180099226Y-142190735D01*
X179993024Y-142199116D01*
X179983269Y-142199500D01*
X98016683Y-142199500D01*
X98006953Y-142199118D01*
X97993253Y-142198039D01*
X97900483Y-142190737D01*
X97881264Y-142187692D01*
X97793610Y-142166646D01*
X97775122Y-142160640D01*
X97691853Y-142126161D01*
X97674502Y-142117322D01*
X97597707Y-142070263D01*
X97581958Y-142058820D01*
X97513476Y-142000320D01*
X97499721Y-141986562D01*
X97441189Y-141918018D01*
X97429767Y-141902296D01*
X97382704Y-141825508D01*
X97373853Y-141808133D01*
X97339373Y-141724825D01*
X97333392Y-141706421D01*
X97312303Y-141618735D01*
X97309248Y-141599463D01*
X97309230Y-141599237D01*
X97300882Y-141493062D01*
X97300500Y-141483342D01*
X97300500Y-139500000D01*
X97550000Y-139500000D01*
X97597075Y-139977969D01*
X97736496Y-140437578D01*
X97962895Y-140861141D01*
X97962899Y-140861148D01*
X98267587Y-141232411D01*
X98638850Y-141537099D01*
X98638857Y-141537103D01*
X99062420Y-141763502D01*
X99062422Y-141763502D01*
X99062425Y-141763504D01*
X99522028Y-141902923D01*
X99522027Y-141902923D01*
X99569104Y-141907559D01*
X100000000Y-141950000D01*
X100477971Y-141902923D01*
X100937574Y-141763504D01*
X101009910Y-141724840D01*
X101244474Y-141599463D01*
X101361147Y-141537100D01*
X101732411Y-141232411D01*
X102037100Y-140861147D01*
X102263504Y-140437574D01*
X102402923Y-139977971D01*
X102450000Y-139500000D01*
X175550000Y-139500000D01*
X175597075Y-139977969D01*
X175736496Y-140437578D01*
X175962895Y-140861141D01*
X175962899Y-140861148D01*
X176267587Y-141232411D01*
X176638850Y-141537099D01*
X176638857Y-141537103D01*
X177062420Y-141763502D01*
X177062422Y-141763502D01*
X177062425Y-141763504D01*
X177522028Y-141902923D01*
X177522027Y-141902923D01*
X177569104Y-141907559D01*
X178000000Y-141950000D01*
X178477971Y-141902923D01*
X178937574Y-141763504D01*
X179009910Y-141724840D01*
X179244474Y-141599463D01*
X179361147Y-141537100D01*
X179732411Y-141232411D01*
X180037100Y-140861147D01*
X180263504Y-140437574D01*
X180402923Y-139977971D01*
X180450000Y-139500000D01*
X180402923Y-139022028D01*
X180263504Y-138562425D01*
X180263502Y-138562422D01*
X180263502Y-138562420D01*
X180037103Y-138138857D01*
X180037099Y-138138850D01*
X179732411Y-137767587D01*
X179361148Y-137462899D01*
X179361141Y-137462895D01*
X178937578Y-137236496D01*
X178707772Y-137166785D01*
X178477971Y-137097076D01*
X178477969Y-137097075D01*
X178477971Y-137097075D01*
X178000000Y-137050000D01*
X177522029Y-137097075D01*
X177062420Y-137236496D01*
X176638857Y-137462895D01*
X176638850Y-137462899D01*
X176267587Y-137767587D01*
X175962899Y-138138850D01*
X175962895Y-138138857D01*
X175736496Y-138562420D01*
X175597075Y-139022029D01*
X175550000Y-139500000D01*
X102450000Y-139500000D01*
X102402923Y-139022028D01*
X102263504Y-138562425D01*
X102263502Y-138562422D01*
X102263502Y-138562420D01*
X102037103Y-138138857D01*
X102037099Y-138138850D01*
X101732411Y-137767587D01*
X101361148Y-137462899D01*
X101361141Y-137462895D01*
X101172039Y-137361818D01*
X100937578Y-137236496D01*
X100707772Y-137166785D01*
X100477971Y-137097076D01*
X100477969Y-137097075D01*
X100477971Y-137097075D01*
X100000000Y-137050000D01*
X99522029Y-137097075D01*
X99062420Y-137236496D01*
X98638857Y-137462895D01*
X98638850Y-137462899D01*
X98267587Y-137767587D01*
X97962899Y-138138850D01*
X97962895Y-138138857D01*
X97736496Y-138562420D01*
X97597075Y-139022029D01*
X97550000Y-139500000D01*
X97300500Y-139500000D01*
X97300500Y-135105513D01*
X162399500Y-135105513D01*
X162399500Y-135294486D01*
X162429059Y-135481118D01*
X162487454Y-135660836D01*
X162533379Y-135750968D01*
X162573240Y-135829199D01*
X162684310Y-135982073D01*
X162817927Y-136115690D01*
X162970801Y-136226760D01*
X163050347Y-136267290D01*
X163139163Y-136312545D01*
X163139165Y-136312545D01*
X163139168Y-136312547D01*
X163235497Y-136343846D01*
X163318881Y-136370940D01*
X163505514Y-136400500D01*
X163505519Y-136400500D01*
X163694486Y-136400500D01*
X163881118Y-136370940D01*
X163938433Y-136352317D01*
X164060832Y-136312547D01*
X164229199Y-136226760D01*
X164338040Y-136147682D01*
X169300000Y-136147682D01*
X169300000Y-136352317D01*
X169332009Y-136554417D01*
X169395244Y-136749031D01*
X169488139Y-136931347D01*
X169550279Y-137016876D01*
X170019668Y-136547487D01*
X170023978Y-136557890D01*
X170095112Y-136664351D01*
X170185649Y-136754888D01*
X170292110Y-136826022D01*
X170302510Y-136830330D01*
X169833121Y-137299719D01*
X169833122Y-137299720D01*
X169918640Y-137361852D01*
X169918649Y-137361858D01*
X170100968Y-137454755D01*
X170295582Y-137517990D01*
X170497683Y-137550000D01*
X170702317Y-137550000D01*
X170904417Y-137517990D01*
X171099031Y-137454755D01*
X171281349Y-137361859D01*
X171366876Y-137299719D01*
X171366877Y-137299718D01*
X170897489Y-136830330D01*
X170907890Y-136826022D01*
X171014351Y-136754888D01*
X171104888Y-136664351D01*
X171176022Y-136557890D01*
X171180330Y-136547488D01*
X171649718Y-137016877D01*
X171649719Y-137016876D01*
X171711859Y-136931349D01*
X171804755Y-136749031D01*
X171867990Y-136554417D01*
X171900000Y-136352317D01*
X171900000Y-136147682D01*
X171867990Y-135945582D01*
X171804755Y-135750968D01*
X171711858Y-135568649D01*
X171711852Y-135568640D01*
X171649720Y-135483122D01*
X171649719Y-135483121D01*
X171180330Y-135952510D01*
X171176022Y-135942110D01*
X171104888Y-135835649D01*
X171014351Y-135745112D01*
X170907890Y-135673978D01*
X170897487Y-135669669D01*
X171366876Y-135200279D01*
X171281347Y-135138139D01*
X171099031Y-135045244D01*
X170904417Y-134982009D01*
X170702317Y-134950000D01*
X170497683Y-134950000D01*
X170295582Y-134982009D01*
X170100968Y-135045244D01*
X169918648Y-135138141D01*
X169833122Y-135200278D01*
X169833122Y-135200279D01*
X170302512Y-135669669D01*
X170292110Y-135673978D01*
X170185649Y-135745112D01*
X170095112Y-135835649D01*
X170023978Y-135942110D01*
X170019669Y-135952512D01*
X169550279Y-135483122D01*
X169550278Y-135483122D01*
X169488141Y-135568648D01*
X169395244Y-135750968D01*
X169332009Y-135945582D01*
X169300000Y-136147682D01*
X164338040Y-136147682D01*
X164382073Y-136115690D01*
X164515690Y-135982073D01*
X164626760Y-135829199D01*
X164712547Y-135660832D01*
X164770940Y-135481118D01*
X164800500Y-135294486D01*
X164800500Y-135105513D01*
X164770940Y-134918881D01*
X164712545Y-134739163D01*
X164638656Y-134594148D01*
X164626760Y-134570801D01*
X164515690Y-134417927D01*
X164382073Y-134284310D01*
X164229199Y-134173240D01*
X164189947Y-134153240D01*
X164060836Y-134087454D01*
X163881118Y-134029059D01*
X163694486Y-133999500D01*
X163694481Y-133999500D01*
X163505519Y-133999500D01*
X163505514Y-133999500D01*
X163318881Y-134029059D01*
X163139163Y-134087454D01*
X162970800Y-134173240D01*
X162883579Y-134236610D01*
X162817927Y-134284310D01*
X162817925Y-134284312D01*
X162817924Y-134284312D01*
X162684312Y-134417924D01*
X162684312Y-134417925D01*
X162684310Y-134417927D01*
X162653960Y-134459700D01*
X162573240Y-134570800D01*
X162487454Y-134739163D01*
X162429059Y-134918881D01*
X162399500Y-135105513D01*
X97300500Y-135105513D01*
X97300500Y-130336824D01*
X165094500Y-130336824D01*
X165094500Y-130663175D01*
X165131035Y-130987441D01*
X165131038Y-130987455D01*
X165203655Y-131305612D01*
X165203656Y-131305614D01*
X165311438Y-131613640D01*
X165453030Y-131907657D01*
X165453032Y-131907660D01*
X165626654Y-132183979D01*
X165830123Y-132439121D01*
X166060879Y-132669877D01*
X166316021Y-132873346D01*
X166592340Y-133046968D01*
X166886361Y-133188562D01*
X167194387Y-133296344D01*
X167512544Y-133368962D01*
X167512553Y-133368963D01*
X167512558Y-133368964D01*
X167728735Y-133393320D01*
X167836825Y-133405499D01*
X167836828Y-133405500D01*
X167836831Y-133405500D01*
X168163172Y-133405500D01*
X168163173Y-133405499D01*
X168336487Y-133385972D01*
X168487441Y-133368964D01*
X168487444Y-133368963D01*
X168487456Y-133368962D01*
X168805613Y-133296344D01*
X169113639Y-133188562D01*
X169407660Y-133046968D01*
X169683979Y-132873346D01*
X169939121Y-132669877D01*
X170169877Y-132439121D01*
X170373346Y-132183979D01*
X170546968Y-131907660D01*
X170688562Y-131613639D01*
X170796344Y-131305613D01*
X170861978Y-131018053D01*
X173550000Y-131018053D01*
X173560613Y-131106443D01*
X173616079Y-131247095D01*
X173707435Y-131367564D01*
X173827904Y-131458920D01*
X173968556Y-131514386D01*
X174056946Y-131525000D01*
X174150000Y-131525000D01*
X174550000Y-131525000D01*
X174643054Y-131525000D01*
X174731443Y-131514386D01*
X174872095Y-131458920D01*
X174992564Y-131367564D01*
X175083920Y-131247095D01*
X175139386Y-131106443D01*
X175150000Y-131018053D01*
X175150000Y-130700000D01*
X174550000Y-130700000D01*
X174550000Y-131525000D01*
X174150000Y-131525000D01*
X174150000Y-130700000D01*
X173550000Y-130700000D01*
X173550000Y-131018053D01*
X170861978Y-131018053D01*
X170868962Y-130987456D01*
X170905500Y-130663169D01*
X170905500Y-130336831D01*
X170868962Y-130012544D01*
X170861978Y-129981946D01*
X173550000Y-129981946D01*
X173550000Y-130300000D01*
X174150000Y-130300000D01*
X174550000Y-130300000D01*
X175150000Y-130300000D01*
X175150000Y-129981946D01*
X175139386Y-129893556D01*
X175083920Y-129752904D01*
X174992564Y-129632435D01*
X174872095Y-129541079D01*
X174731443Y-129485613D01*
X174643054Y-129475000D01*
X174550000Y-129475000D01*
X174550000Y-130300000D01*
X174150000Y-130300000D01*
X174150000Y-129475000D01*
X174056946Y-129475000D01*
X173968556Y-129485613D01*
X173827904Y-129541079D01*
X173707435Y-129632435D01*
X173616079Y-129752904D01*
X173560613Y-129893556D01*
X173550000Y-129981946D01*
X170861978Y-129981946D01*
X170841803Y-129893556D01*
X170796344Y-129694387D01*
X170796343Y-129694385D01*
X170755393Y-129577354D01*
X170688562Y-129386361D01*
X170546968Y-129092340D01*
X170373346Y-128816021D01*
X170169877Y-128560879D01*
X169939121Y-128330123D01*
X169683979Y-128126654D01*
X169407660Y-127953032D01*
X169407657Y-127953030D01*
X169113640Y-127811438D01*
X168805614Y-127703656D01*
X168805612Y-127703655D01*
X168558585Y-127647273D01*
X168487456Y-127631038D01*
X168487453Y-127631037D01*
X168487441Y-127631035D01*
X168163175Y-127594500D01*
X168163169Y-127594500D01*
X167836831Y-127594500D01*
X167836824Y-127594500D01*
X167512558Y-127631035D01*
X167512544Y-127631038D01*
X167194387Y-127703655D01*
X167194385Y-127703656D01*
X166886359Y-127811438D01*
X166592342Y-127953030D01*
X166316022Y-128126653D01*
X166060879Y-128330122D01*
X165830122Y-128560879D01*
X165626653Y-128816022D01*
X165453030Y-129092342D01*
X165311438Y-129386359D01*
X165203656Y-129694385D01*
X165203655Y-129694387D01*
X165131038Y-130012544D01*
X165131035Y-130012558D01*
X165094500Y-130336824D01*
X97300500Y-130336824D01*
X97300500Y-126105513D01*
X104399500Y-126105513D01*
X104399500Y-126294486D01*
X104429059Y-126481118D01*
X104487454Y-126660836D01*
X104533379Y-126750968D01*
X104573240Y-126829199D01*
X104684310Y-126982073D01*
X104817927Y-127115690D01*
X104970801Y-127226760D01*
X105050347Y-127267290D01*
X105139163Y-127312545D01*
X105139165Y-127312545D01*
X105139168Y-127312547D01*
X105235497Y-127343846D01*
X105318881Y-127370940D01*
X105505514Y-127400500D01*
X105505519Y-127400500D01*
X105694486Y-127400500D01*
X105881118Y-127370940D01*
X105938433Y-127352317D01*
X106060832Y-127312547D01*
X106229199Y-127226760D01*
X106338040Y-127147682D01*
X111300000Y-127147682D01*
X111300000Y-127352317D01*
X111332009Y-127554417D01*
X111395244Y-127749031D01*
X111488139Y-127931347D01*
X111550279Y-128016876D01*
X112019668Y-127547487D01*
X112023978Y-127557890D01*
X112095112Y-127664351D01*
X112185649Y-127754888D01*
X112292110Y-127826022D01*
X112302510Y-127830330D01*
X111833121Y-128299719D01*
X111833122Y-128299720D01*
X111918640Y-128361852D01*
X111918649Y-128361858D01*
X112100968Y-128454755D01*
X112295582Y-128517990D01*
X112497683Y-128550000D01*
X112702317Y-128550000D01*
X112904417Y-128517990D01*
X113099031Y-128454755D01*
X113281349Y-128361859D01*
X113366876Y-128299719D01*
X113366877Y-128299718D01*
X112897489Y-127830330D01*
X112907890Y-127826022D01*
X113014351Y-127754888D01*
X113104888Y-127664351D01*
X113176022Y-127557890D01*
X113180330Y-127547488D01*
X113649718Y-128016877D01*
X113649719Y-128016876D01*
X113711859Y-127931349D01*
X113804755Y-127749031D01*
X113867990Y-127554417D01*
X113900000Y-127352317D01*
X113900000Y-127147682D01*
X113867990Y-126945582D01*
X113804755Y-126750968D01*
X113711858Y-126568649D01*
X113711852Y-126568640D01*
X113649720Y-126483122D01*
X113649719Y-126483121D01*
X113180330Y-126952510D01*
X113176022Y-126942110D01*
X113104888Y-126835649D01*
X113014351Y-126745112D01*
X112907890Y-126673978D01*
X112897487Y-126669669D01*
X113366876Y-126200279D01*
X113366876Y-126200278D01*
X113281352Y-126138142D01*
X113217315Y-126105513D01*
X124399500Y-126105513D01*
X124399500Y-126294486D01*
X124429059Y-126481118D01*
X124487454Y-126660836D01*
X124533379Y-126750968D01*
X124573240Y-126829199D01*
X124684310Y-126982073D01*
X124817927Y-127115690D01*
X124970801Y-127226760D01*
X125050347Y-127267290D01*
X125139163Y-127312545D01*
X125139165Y-127312545D01*
X125139168Y-127312547D01*
X125235497Y-127343846D01*
X125318881Y-127370940D01*
X125505514Y-127400500D01*
X125505519Y-127400500D01*
X125694486Y-127400500D01*
X125881118Y-127370940D01*
X125938433Y-127352317D01*
X126060832Y-127312547D01*
X126229199Y-127226760D01*
X126338040Y-127147682D01*
X131300000Y-127147682D01*
X131300000Y-127352317D01*
X131332009Y-127554417D01*
X131395244Y-127749031D01*
X131488139Y-127931347D01*
X131550279Y-128016876D01*
X132019668Y-127547487D01*
X132023978Y-127557890D01*
X132095112Y-127664351D01*
X132185649Y-127754888D01*
X132292110Y-127826022D01*
X132302510Y-127830330D01*
X131833121Y-128299719D01*
X131833122Y-128299720D01*
X131918640Y-128361852D01*
X131918649Y-128361858D01*
X132100968Y-128454755D01*
X132295582Y-128517990D01*
X132497683Y-128550000D01*
X132702317Y-128550000D01*
X132904417Y-128517990D01*
X133099031Y-128454755D01*
X133281349Y-128361859D01*
X133366876Y-128299719D01*
X133366877Y-128299718D01*
X132897489Y-127830330D01*
X132907890Y-127826022D01*
X133014351Y-127754888D01*
X133104888Y-127664351D01*
X133176022Y-127557890D01*
X133180330Y-127547488D01*
X133649718Y-128016877D01*
X133649719Y-128016876D01*
X133711859Y-127931349D01*
X133804755Y-127749031D01*
X133867990Y-127554417D01*
X133900000Y-127352317D01*
X133900000Y-127147682D01*
X133867990Y-126945582D01*
X133804755Y-126750968D01*
X133711858Y-126568649D01*
X133711852Y-126568640D01*
X133649720Y-126483122D01*
X133649719Y-126483121D01*
X133180330Y-126952510D01*
X133176022Y-126942110D01*
X133104888Y-126835649D01*
X133014351Y-126745112D01*
X132907890Y-126673978D01*
X132897487Y-126669669D01*
X133366876Y-126200279D01*
X133366876Y-126200278D01*
X133281352Y-126138142D01*
X133217315Y-126105513D01*
X144399500Y-126105513D01*
X144399500Y-126294486D01*
X144429059Y-126481118D01*
X144487454Y-126660836D01*
X144533379Y-126750968D01*
X144573240Y-126829199D01*
X144684310Y-126982073D01*
X144817927Y-127115690D01*
X144970801Y-127226760D01*
X145050347Y-127267290D01*
X145139163Y-127312545D01*
X145139165Y-127312545D01*
X145139168Y-127312547D01*
X145235497Y-127343846D01*
X145318881Y-127370940D01*
X145505514Y-127400500D01*
X145505519Y-127400500D01*
X145694486Y-127400500D01*
X145881118Y-127370940D01*
X145938433Y-127352317D01*
X146060832Y-127312547D01*
X146229199Y-127226760D01*
X146338040Y-127147682D01*
X151300000Y-127147682D01*
X151300000Y-127352317D01*
X151332009Y-127554417D01*
X151395244Y-127749031D01*
X151488139Y-127931347D01*
X151550279Y-128016876D01*
X152019668Y-127547487D01*
X152023978Y-127557890D01*
X152095112Y-127664351D01*
X152185649Y-127754888D01*
X152292110Y-127826022D01*
X152302510Y-127830330D01*
X151833121Y-128299719D01*
X151833122Y-128299720D01*
X151918640Y-128361852D01*
X151918649Y-128361858D01*
X152100968Y-128454755D01*
X152295582Y-128517990D01*
X152497683Y-128550000D01*
X152702317Y-128550000D01*
X152904417Y-128517990D01*
X153099031Y-128454755D01*
X153281349Y-128361859D01*
X153366876Y-128299719D01*
X153366877Y-128299718D01*
X152897489Y-127830330D01*
X152907890Y-127826022D01*
X153014351Y-127754888D01*
X153104888Y-127664351D01*
X153176022Y-127557890D01*
X153180330Y-127547488D01*
X153649718Y-128016877D01*
X153649719Y-128016876D01*
X153711859Y-127931349D01*
X153804755Y-127749031D01*
X153867990Y-127554417D01*
X153900000Y-127352317D01*
X153900000Y-127147682D01*
X153867990Y-126945582D01*
X153804755Y-126750968D01*
X153711858Y-126568649D01*
X153711852Y-126568640D01*
X153649720Y-126483122D01*
X153649719Y-126483121D01*
X153180330Y-126952510D01*
X153176022Y-126942110D01*
X153104888Y-126835649D01*
X153014351Y-126745112D01*
X152907890Y-126673978D01*
X152897487Y-126669669D01*
X153366876Y-126200279D01*
X153281347Y-126138139D01*
X153099031Y-126045244D01*
X152904417Y-125982009D01*
X152702317Y-125950000D01*
X152497683Y-125950000D01*
X152295582Y-125982009D01*
X152100968Y-126045244D01*
X151918648Y-126138141D01*
X151833122Y-126200278D01*
X151833122Y-126200279D01*
X152302512Y-126669669D01*
X152292110Y-126673978D01*
X152185649Y-126745112D01*
X152095112Y-126835649D01*
X152023978Y-126942110D01*
X152019669Y-126952512D01*
X151550279Y-126483122D01*
X151550278Y-126483122D01*
X151488141Y-126568648D01*
X151395244Y-126750968D01*
X151332009Y-126945582D01*
X151300000Y-127147682D01*
X146338040Y-127147682D01*
X146382073Y-127115690D01*
X146515690Y-126982073D01*
X146626760Y-126829199D01*
X146712547Y-126660832D01*
X146770940Y-126481118D01*
X146800500Y-126294486D01*
X146800500Y-126105513D01*
X146770940Y-125918881D01*
X146712545Y-125739163D01*
X146626759Y-125570800D01*
X146515690Y-125417927D01*
X146382073Y-125284310D01*
X146229199Y-125173240D01*
X146060836Y-125087454D01*
X145881118Y-125029059D01*
X145694486Y-124999500D01*
X145694481Y-124999500D01*
X145505519Y-124999500D01*
X145505514Y-124999500D01*
X145318881Y-125029059D01*
X145139163Y-125087454D01*
X144970800Y-125173240D01*
X144883579Y-125236610D01*
X144817927Y-125284310D01*
X144817925Y-125284312D01*
X144817924Y-125284312D01*
X144684312Y-125417924D01*
X144684312Y-125417925D01*
X144684310Y-125417927D01*
X144676072Y-125429266D01*
X144573240Y-125570800D01*
X144487454Y-125739163D01*
X144429059Y-125918881D01*
X144399500Y-126105513D01*
X133217315Y-126105513D01*
X133099031Y-126045244D01*
X132904417Y-125982009D01*
X132702317Y-125950000D01*
X132497683Y-125950000D01*
X132295582Y-125982009D01*
X132100968Y-126045244D01*
X131918648Y-126138141D01*
X131833122Y-126200278D01*
X131833122Y-126200279D01*
X132302512Y-126669669D01*
X132292110Y-126673978D01*
X132185649Y-126745112D01*
X132095112Y-126835649D01*
X132023978Y-126942110D01*
X132019669Y-126952512D01*
X131550279Y-126483122D01*
X131550278Y-126483122D01*
X131488141Y-126568648D01*
X131395244Y-126750968D01*
X131332009Y-126945582D01*
X131300000Y-127147682D01*
X126338040Y-127147682D01*
X126382073Y-127115690D01*
X126515690Y-126982073D01*
X126626760Y-126829199D01*
X126712547Y-126660832D01*
X126770940Y-126481118D01*
X126800500Y-126294486D01*
X126800500Y-126105513D01*
X126770940Y-125918881D01*
X126712545Y-125739163D01*
X126626759Y-125570800D01*
X126515690Y-125417927D01*
X126382073Y-125284310D01*
X126229199Y-125173240D01*
X126060836Y-125087454D01*
X125881118Y-125029059D01*
X125694486Y-124999500D01*
X125694481Y-124999500D01*
X125505519Y-124999500D01*
X125505514Y-124999500D01*
X125318881Y-125029059D01*
X125139163Y-125087454D01*
X124970800Y-125173240D01*
X124883579Y-125236610D01*
X124817927Y-125284310D01*
X124817925Y-125284312D01*
X124817924Y-125284312D01*
X124684312Y-125417924D01*
X124684312Y-125417925D01*
X124684310Y-125417927D01*
X124676072Y-125429266D01*
X124573240Y-125570800D01*
X124487454Y-125739163D01*
X124429059Y-125918881D01*
X124399500Y-126105513D01*
X113217315Y-126105513D01*
X113099031Y-126045244D01*
X112904417Y-125982009D01*
X112702317Y-125950000D01*
X112497683Y-125950000D01*
X112295582Y-125982009D01*
X112100968Y-126045244D01*
X111918648Y-126138141D01*
X111833122Y-126200278D01*
X111833122Y-126200279D01*
X112302512Y-126669669D01*
X112292110Y-126673978D01*
X112185649Y-126745112D01*
X112095112Y-126835649D01*
X112023978Y-126942110D01*
X112019669Y-126952512D01*
X111550279Y-126483122D01*
X111550278Y-126483122D01*
X111488141Y-126568648D01*
X111395244Y-126750968D01*
X111332009Y-126945582D01*
X111300000Y-127147682D01*
X106338040Y-127147682D01*
X106382073Y-127115690D01*
X106515690Y-126982073D01*
X106626760Y-126829199D01*
X106712547Y-126660832D01*
X106770940Y-126481118D01*
X106800500Y-126294486D01*
X106800500Y-126105513D01*
X106770940Y-125918881D01*
X106712545Y-125739163D01*
X106626759Y-125570800D01*
X106515690Y-125417927D01*
X106382073Y-125284310D01*
X106229199Y-125173240D01*
X106060836Y-125087454D01*
X105881118Y-125029059D01*
X105694486Y-124999500D01*
X105694481Y-124999500D01*
X105505519Y-124999500D01*
X105505514Y-124999500D01*
X105318881Y-125029059D01*
X105139163Y-125087454D01*
X104970800Y-125173240D01*
X104883579Y-125236610D01*
X104817927Y-125284310D01*
X104817925Y-125284312D01*
X104817924Y-125284312D01*
X104684312Y-125417924D01*
X104684312Y-125417925D01*
X104684310Y-125417927D01*
X104676072Y-125429266D01*
X104573240Y-125570800D01*
X104487454Y-125739163D01*
X104429059Y-125918881D01*
X104399500Y-126105513D01*
X97300500Y-126105513D01*
X97300500Y-121336824D01*
X107094500Y-121336824D01*
X107094500Y-121663175D01*
X107131035Y-121987441D01*
X107131038Y-121987455D01*
X107203655Y-122305612D01*
X107203656Y-122305614D01*
X107311438Y-122613640D01*
X107453030Y-122907657D01*
X107453032Y-122907660D01*
X107626654Y-123183979D01*
X107830123Y-123439121D01*
X108060879Y-123669877D01*
X108316021Y-123873346D01*
X108592340Y-124046968D01*
X108886361Y-124188562D01*
X109194387Y-124296344D01*
X109512544Y-124368962D01*
X109512553Y-124368963D01*
X109512558Y-124368964D01*
X109709186Y-124391118D01*
X109836825Y-124405499D01*
X109836828Y-124405500D01*
X109836831Y-124405500D01*
X110163172Y-124405500D01*
X110163173Y-124405499D01*
X110336398Y-124385982D01*
X110487441Y-124368964D01*
X110487444Y-124368963D01*
X110487456Y-124368962D01*
X110805613Y-124296344D01*
X111113639Y-124188562D01*
X111407660Y-124046968D01*
X111683979Y-123873346D01*
X111939121Y-123669877D01*
X112169877Y-123439121D01*
X112373346Y-123183979D01*
X112546968Y-122907660D01*
X112688562Y-122613639D01*
X112796344Y-122305613D01*
X112861978Y-122018053D01*
X115550000Y-122018053D01*
X115560613Y-122106443D01*
X115616079Y-122247095D01*
X115707435Y-122367564D01*
X115827904Y-122458920D01*
X115968556Y-122514386D01*
X116056946Y-122525000D01*
X116150000Y-122525000D01*
X116550000Y-122525000D01*
X116643054Y-122525000D01*
X116731443Y-122514386D01*
X116872095Y-122458920D01*
X116992564Y-122367564D01*
X117083920Y-122247095D01*
X117139386Y-122106443D01*
X117150000Y-122018053D01*
X117150000Y-121700000D01*
X116550000Y-121700000D01*
X116550000Y-122525000D01*
X116150000Y-122525000D01*
X116150000Y-121700000D01*
X115550000Y-121700000D01*
X115550000Y-122018053D01*
X112861978Y-122018053D01*
X112868962Y-121987456D01*
X112905500Y-121663169D01*
X112905500Y-121336831D01*
X112885629Y-121160465D01*
X112868964Y-121012558D01*
X112868963Y-121012553D01*
X112868962Y-121012544D01*
X112861978Y-120981946D01*
X115550000Y-120981946D01*
X115550000Y-121300000D01*
X116150000Y-121300000D01*
X116550000Y-121300000D01*
X117150000Y-121300000D01*
X117150000Y-120981944D01*
X117148653Y-120970730D01*
X117549500Y-120970730D01*
X117549500Y-122029269D01*
X117552353Y-122059699D01*
X117552353Y-122059701D01*
X117581871Y-122144055D01*
X117597207Y-122187882D01*
X117677850Y-122297150D01*
X117787118Y-122377793D01*
X117829845Y-122392744D01*
X117915299Y-122422646D01*
X117945730Y-122425500D01*
X117945734Y-122425500D01*
X118150500Y-122425500D01*
X118217539Y-122445185D01*
X118263294Y-122497989D01*
X118274500Y-122549500D01*
X118274500Y-123857147D01*
X118274500Y-123942853D01*
X118280481Y-123965173D01*
X118296682Y-124025640D01*
X118308996Y-124046968D01*
X118339535Y-124099862D01*
X118339537Y-124099864D01*
X119063181Y-124823508D01*
X119096666Y-124884831D01*
X119099500Y-124911189D01*
X119099500Y-125429269D01*
X119102353Y-125459699D01*
X119102353Y-125459701D01*
X119141230Y-125570801D01*
X119147207Y-125587882D01*
X119227850Y-125697150D01*
X119337118Y-125777793D01*
X119379845Y-125792744D01*
X119465299Y-125822646D01*
X119495730Y-125825500D01*
X119495734Y-125825500D01*
X120504270Y-125825500D01*
X120534699Y-125822646D01*
X120534701Y-125822646D01*
X120598790Y-125800219D01*
X120662882Y-125777793D01*
X120772150Y-125697150D01*
X120852793Y-125587882D01*
X120875219Y-125523790D01*
X120897646Y-125459701D01*
X120897646Y-125459699D01*
X120900500Y-125429269D01*
X120900500Y-124795733D01*
X120897322Y-124761851D01*
X120910660Y-124693266D01*
X120958960Y-124642780D01*
X121026888Y-124626422D01*
X121052864Y-124630494D01*
X121127525Y-124650500D01*
X121127528Y-124650500D01*
X121272472Y-124650500D01*
X121272475Y-124650500D01*
X121412485Y-124612984D01*
X121538015Y-124540509D01*
X121640509Y-124438015D01*
X121712984Y-124312485D01*
X121750500Y-124172475D01*
X121750500Y-124027525D01*
X121712984Y-123887515D01*
X121704803Y-123873346D01*
X121640511Y-123761988D01*
X121640506Y-123761982D01*
X121538017Y-123659493D01*
X121538011Y-123659488D01*
X121412488Y-123587017D01*
X121412489Y-123587017D01*
X121401006Y-123583940D01*
X121272475Y-123549500D01*
X121161189Y-123549500D01*
X121131748Y-123540855D01*
X121101762Y-123534332D01*
X121096746Y-123530577D01*
X121094150Y-123529815D01*
X121073508Y-123513181D01*
X120936819Y-123376492D01*
X120903334Y-123315169D01*
X120900500Y-123288811D01*
X120900500Y-122970730D01*
X120897646Y-122940300D01*
X120897646Y-122940298D01*
X120852793Y-122812119D01*
X120852792Y-122812117D01*
X120816447Y-122762871D01*
X120772150Y-122702850D01*
X120662882Y-122622207D01*
X120662880Y-122622206D01*
X120534700Y-122577353D01*
X120504270Y-122574500D01*
X120504266Y-122574500D01*
X119495734Y-122574500D01*
X119495730Y-122574500D01*
X119465300Y-122577353D01*
X119465298Y-122577353D01*
X119337119Y-122622206D01*
X119337117Y-122622207D01*
X119227850Y-122702850D01*
X119149270Y-122809323D01*
X119093623Y-122851573D01*
X119023967Y-122857032D01*
X118962417Y-122823965D01*
X118928516Y-122762871D01*
X118925500Y-122735689D01*
X118925500Y-122144055D01*
X118932459Y-122103100D01*
X118947646Y-122059699D01*
X118950500Y-122029266D01*
X118950500Y-121336824D01*
X127094500Y-121336824D01*
X127094500Y-121663175D01*
X127131035Y-121987441D01*
X127131038Y-121987455D01*
X127203655Y-122305612D01*
X127203656Y-122305614D01*
X127311438Y-122613640D01*
X127453030Y-122907657D01*
X127453032Y-122907660D01*
X127626654Y-123183979D01*
X127830123Y-123439121D01*
X128060879Y-123669877D01*
X128316021Y-123873346D01*
X128592340Y-124046968D01*
X128886361Y-124188562D01*
X129194387Y-124296344D01*
X129512544Y-124368962D01*
X129512553Y-124368963D01*
X129512558Y-124368964D01*
X129709186Y-124391118D01*
X129836825Y-124405499D01*
X129836828Y-124405500D01*
X129836831Y-124405500D01*
X130163172Y-124405500D01*
X130163173Y-124405499D01*
X130336398Y-124385982D01*
X130487441Y-124368964D01*
X130487444Y-124368963D01*
X130487456Y-124368962D01*
X130805613Y-124296344D01*
X131113639Y-124188562D01*
X131407660Y-124046968D01*
X131683979Y-123873346D01*
X131939121Y-123669877D01*
X132169877Y-123439121D01*
X132373346Y-123183979D01*
X132546968Y-122907660D01*
X132688562Y-122613639D01*
X132796344Y-122305613D01*
X132861978Y-122018053D01*
X135550000Y-122018053D01*
X135560613Y-122106443D01*
X135616079Y-122247095D01*
X135707435Y-122367564D01*
X135827904Y-122458920D01*
X135968556Y-122514386D01*
X136056946Y-122525000D01*
X136150000Y-122525000D01*
X136550000Y-122525000D01*
X136643054Y-122525000D01*
X136731443Y-122514386D01*
X136872095Y-122458920D01*
X136992564Y-122367564D01*
X137083920Y-122247095D01*
X137139386Y-122106443D01*
X137150000Y-122018053D01*
X137150000Y-121700000D01*
X136550000Y-121700000D01*
X136550000Y-122525000D01*
X136150000Y-122525000D01*
X136150000Y-121700000D01*
X135550000Y-121700000D01*
X135550000Y-122018053D01*
X132861978Y-122018053D01*
X132868962Y-121987456D01*
X132905500Y-121663169D01*
X132905500Y-121336831D01*
X132885629Y-121160465D01*
X132868964Y-121012558D01*
X132868963Y-121012553D01*
X132868962Y-121012544D01*
X132861978Y-120981946D01*
X135550000Y-120981946D01*
X135550000Y-121300000D01*
X136150000Y-121300000D01*
X136550000Y-121300000D01*
X137150000Y-121300000D01*
X137150000Y-120981946D01*
X137139386Y-120893556D01*
X137083920Y-120752904D01*
X136992564Y-120632435D01*
X136872095Y-120541079D01*
X136731443Y-120485613D01*
X136643054Y-120475000D01*
X136550000Y-120475000D01*
X136550000Y-121300000D01*
X136150000Y-121300000D01*
X136150000Y-120475000D01*
X136056946Y-120475000D01*
X135968556Y-120485613D01*
X135827904Y-120541079D01*
X135707435Y-120632435D01*
X135616079Y-120752904D01*
X135560613Y-120893556D01*
X135550000Y-120981946D01*
X132861978Y-120981946D01*
X132841803Y-120893556D01*
X132796344Y-120694387D01*
X132796343Y-120694385D01*
X132777466Y-120640435D01*
X132688562Y-120386361D01*
X132546968Y-120092340D01*
X132373346Y-119816021D01*
X132169877Y-119560879D01*
X131939121Y-119330123D01*
X131683979Y-119126654D01*
X131407660Y-118953032D01*
X131407657Y-118953030D01*
X131113640Y-118811438D01*
X130805614Y-118703656D01*
X130805612Y-118703655D01*
X130503951Y-118634803D01*
X130487456Y-118631038D01*
X130487453Y-118631037D01*
X130487441Y-118631035D01*
X130163175Y-118594500D01*
X130163169Y-118594500D01*
X129836831Y-118594500D01*
X129836824Y-118594500D01*
X129512558Y-118631035D01*
X129512544Y-118631038D01*
X129194387Y-118703655D01*
X129194385Y-118703656D01*
X128886359Y-118811438D01*
X128592342Y-118953030D01*
X128316022Y-119126653D01*
X128060879Y-119330122D01*
X127830122Y-119560879D01*
X127626653Y-119816022D01*
X127453030Y-120092342D01*
X127311438Y-120386359D01*
X127203656Y-120694385D01*
X127203655Y-120694387D01*
X127131038Y-121012544D01*
X127131035Y-121012558D01*
X127094500Y-121336824D01*
X118950500Y-121336824D01*
X118950500Y-120970734D01*
X118947646Y-120940301D01*
X118947646Y-120940300D01*
X118947646Y-120940298D01*
X118932658Y-120897466D01*
X118932305Y-120895550D01*
X118931728Y-120894704D01*
X118929434Y-120879954D01*
X118926979Y-120866619D01*
X118926711Y-120866654D01*
X118926487Y-120864889D01*
X118926396Y-120863452D01*
X118925746Y-120859921D01*
X118925547Y-120852687D01*
X118925683Y-120852171D01*
X118925500Y-120849277D01*
X118925500Y-120264310D01*
X118945185Y-120197271D01*
X118997989Y-120151516D01*
X119067147Y-120141572D01*
X119130703Y-120170597D01*
X119149265Y-120190670D01*
X119227850Y-120297150D01*
X119337118Y-120377793D01*
X119361604Y-120386361D01*
X119465299Y-120422646D01*
X119495730Y-120425500D01*
X119495734Y-120425500D01*
X120504270Y-120425500D01*
X120534699Y-120422646D01*
X120534701Y-120422646D01*
X120598790Y-120400219D01*
X120662882Y-120377793D01*
X120772150Y-120297150D01*
X120852793Y-120187882D01*
X120886224Y-120092342D01*
X120897646Y-120059701D01*
X120897646Y-120059699D01*
X120900500Y-120029269D01*
X120900500Y-119817253D01*
X120920185Y-119750214D01*
X120936814Y-119729577D01*
X126635703Y-114030687D01*
X126635708Y-114030684D01*
X126645911Y-114020480D01*
X126645913Y-114020480D01*
X126720480Y-113945913D01*
X126773207Y-113854587D01*
X126778481Y-113834905D01*
X126782347Y-113820479D01*
X126795469Y-113771506D01*
X126800501Y-113752727D01*
X126800501Y-113647273D01*
X126800501Y-113639678D01*
X126800500Y-113639660D01*
X126800500Y-109774500D01*
X126820185Y-109707461D01*
X126872989Y-109661706D01*
X126924500Y-109650500D01*
X127332745Y-109650500D01*
X127399784Y-109670185D01*
X127420426Y-109686819D01*
X127679519Y-109945912D01*
X127679520Y-109945913D01*
X127754087Y-110020480D01*
X127845413Y-110073207D01*
X127947273Y-110100500D01*
X128052727Y-110100500D01*
X129848238Y-110100500D01*
X129861859Y-110104499D01*
X129876032Y-110103655D01*
X129894718Y-110114148D01*
X129915277Y-110120185D01*
X129925760Y-110131579D01*
X129936954Y-110137865D01*
X129950657Y-110158640D01*
X129957768Y-110166369D01*
X129960537Y-110171587D01*
X129988208Y-110238390D01*
X130026048Y-110295022D01*
X130028992Y-110300568D01*
X130034802Y-110328892D01*
X130043442Y-110356485D01*
X130041737Y-110362699D01*
X130043032Y-110369012D01*
X130032608Y-110395976D01*
X130024958Y-110423866D01*
X130019735Y-110429278D01*
X130017840Y-110434182D01*
X130008238Y-110441193D01*
X129988355Y-110461800D01*
X129960447Y-110480447D01*
X129916132Y-110546769D01*
X129916131Y-110546770D01*
X129904500Y-110605247D01*
X129904500Y-111714752D01*
X129916131Y-111773229D01*
X129916132Y-111773230D01*
X129960447Y-111839552D01*
X130026769Y-111883867D01*
X130026770Y-111883868D01*
X130085247Y-111895499D01*
X130085250Y-111895500D01*
X130085252Y-111895500D01*
X131194750Y-111895500D01*
X131194751Y-111895499D01*
X131209568Y-111892552D01*
X131253229Y-111883868D01*
X131253229Y-111883867D01*
X131253231Y-111883867D01*
X131319552Y-111839552D01*
X131338198Y-111811645D01*
X131391809Y-111766842D01*
X131461134Y-111758133D01*
X131510192Y-111777435D01*
X131561610Y-111811792D01*
X131561612Y-111811793D01*
X131561616Y-111811795D01*
X131664038Y-111854219D01*
X131695462Y-111867235D01*
X131827787Y-111893556D01*
X131837555Y-111895499D01*
X131837559Y-111895500D01*
X131837560Y-111895500D01*
X131982441Y-111895500D01*
X131982442Y-111895499D01*
X132124538Y-111867235D01*
X132257603Y-111812118D01*
X132258383Y-111811795D01*
X132258383Y-111811794D01*
X132258390Y-111811792D01*
X132378854Y-111731300D01*
X132481300Y-111628854D01*
X132561792Y-111508390D01*
X132571227Y-111485613D01*
X132597308Y-111422646D01*
X132617235Y-111374538D01*
X132645500Y-111232440D01*
X132645500Y-111087560D01*
X132617235Y-110945462D01*
X132617215Y-110945413D01*
X132561795Y-110811616D01*
X132561788Y-110811603D01*
X132481300Y-110691146D01*
X132481297Y-110691142D01*
X132378854Y-110588699D01*
X132258387Y-110508206D01*
X132253017Y-110505336D01*
X132253354Y-110504704D01*
X132218715Y-110481557D01*
X131972703Y-110235545D01*
X132045095Y-110216148D01*
X132124905Y-110170070D01*
X132190070Y-110104905D01*
X132236148Y-110025095D01*
X132255545Y-109952704D01*
X132625290Y-110322449D01*
X132649967Y-110285520D01*
X132649970Y-110285513D01*
X132712909Y-110133564D01*
X132712912Y-110133554D01*
X132745000Y-109972242D01*
X132745000Y-109807757D01*
X132712912Y-109646445D01*
X132712909Y-109646435D01*
X132649969Y-109494483D01*
X132649964Y-109494474D01*
X132625291Y-109457550D01*
X132625290Y-109457549D01*
X132255545Y-109827295D01*
X132236148Y-109754905D01*
X132190070Y-109675095D01*
X132124905Y-109609930D01*
X132045095Y-109563852D01*
X131972703Y-109544454D01*
X132262158Y-109255000D01*
X131972703Y-108965545D01*
X132045095Y-108946148D01*
X132124905Y-108900070D01*
X132190070Y-108834905D01*
X132236148Y-108755095D01*
X132255545Y-108682704D01*
X132625290Y-109052449D01*
X132649967Y-109015520D01*
X132649970Y-109015513D01*
X132712909Y-108863564D01*
X132712912Y-108863554D01*
X132745000Y-108702242D01*
X132745000Y-108537757D01*
X132712912Y-108376445D01*
X132712909Y-108376435D01*
X132649969Y-108224483D01*
X132649964Y-108224474D01*
X132625291Y-108187550D01*
X132625290Y-108187549D01*
X132255545Y-108557295D01*
X132236148Y-108484905D01*
X132190070Y-108405095D01*
X132124905Y-108339930D01*
X132045095Y-108293852D01*
X131972703Y-108274454D01*
X132262158Y-107985000D01*
X131972703Y-107695545D01*
X132045095Y-107676148D01*
X132124905Y-107630070D01*
X132190070Y-107564905D01*
X132236148Y-107485095D01*
X132255545Y-107412704D01*
X132625290Y-107782449D01*
X132649967Y-107745520D01*
X132649970Y-107745513D01*
X132712909Y-107593564D01*
X132712912Y-107593554D01*
X132745000Y-107432242D01*
X132745000Y-107267757D01*
X132712912Y-107106445D01*
X132712909Y-107106435D01*
X132649969Y-106954483D01*
X132649964Y-106954474D01*
X132625291Y-106917550D01*
X132625290Y-106917549D01*
X132255545Y-107287295D01*
X132236148Y-107214905D01*
X132190070Y-107135095D01*
X132124905Y-107069930D01*
X132045095Y-107023852D01*
X131972703Y-107004454D01*
X132262158Y-106715000D01*
X131972703Y-106425545D01*
X132045095Y-106406148D01*
X132124905Y-106360070D01*
X132190070Y-106294905D01*
X132236148Y-106215095D01*
X132255545Y-106142704D01*
X132625290Y-106512449D01*
X132649967Y-106475520D01*
X132649970Y-106475513D01*
X132712909Y-106323564D01*
X132712912Y-106323554D01*
X132745000Y-106162242D01*
X132745000Y-105997757D01*
X132712912Y-105836445D01*
X132712909Y-105836435D01*
X132649969Y-105684483D01*
X132649964Y-105684474D01*
X132625291Y-105647550D01*
X132625290Y-105647549D01*
X132255545Y-106017295D01*
X132236148Y-105944905D01*
X132190070Y-105865095D01*
X132124905Y-105799930D01*
X132045095Y-105753852D01*
X131972703Y-105734454D01*
X132262158Y-105445000D01*
X131972703Y-105155545D01*
X132045095Y-105136148D01*
X132124905Y-105090070D01*
X132190070Y-105024905D01*
X132236148Y-104945095D01*
X132255545Y-104872703D01*
X132625290Y-105242449D01*
X132649967Y-105205520D01*
X132649970Y-105205513D01*
X132712909Y-105053564D01*
X132712912Y-105053554D01*
X132745000Y-104892242D01*
X132745000Y-104727757D01*
X132712912Y-104566445D01*
X132712909Y-104566435D01*
X132712473Y-104565382D01*
X132712408Y-104564785D01*
X132711143Y-104560613D01*
X132711934Y-104560372D01*
X132705004Y-104495913D01*
X132736279Y-104433434D01*
X132796368Y-104397782D01*
X132866193Y-104400276D01*
X132874319Y-104403306D01*
X132874360Y-104403317D01*
X132874362Y-104403318D01*
X132957147Y-104425500D01*
X133042852Y-104425500D01*
X133695612Y-104425500D01*
X133762651Y-104445185D01*
X133783293Y-104461818D01*
X133861984Y-104540509D01*
X133861986Y-104540510D01*
X133861987Y-104540511D01*
X133987510Y-104612982D01*
X133987511Y-104612982D01*
X133987514Y-104612984D01*
X134127524Y-104650500D01*
X134127527Y-104650500D01*
X134272471Y-104650500D01*
X134272474Y-104650500D01*
X134412484Y-104612984D01*
X134538014Y-104540509D01*
X134640508Y-104438015D01*
X134712983Y-104312485D01*
X134750499Y-104172475D01*
X134750499Y-104027525D01*
X134712983Y-103887515D01*
X134646097Y-103771666D01*
X134640510Y-103761988D01*
X134640505Y-103761982D01*
X134538016Y-103659493D01*
X134538010Y-103659488D01*
X134412487Y-103587017D01*
X134412488Y-103587017D01*
X134392234Y-103581590D01*
X134272474Y-103549500D01*
X134127524Y-103549500D01*
X134007764Y-103581590D01*
X133987510Y-103587017D01*
X133861987Y-103659488D01*
X133783293Y-103738182D01*
X133721969Y-103771666D01*
X133695612Y-103774500D01*
X133186189Y-103774500D01*
X133119150Y-103754815D01*
X133098508Y-103738181D01*
X132799864Y-103439537D01*
X132799862Y-103439535D01*
X132762750Y-103418108D01*
X132725640Y-103396682D01*
X132684246Y-103385591D01*
X132642853Y-103374500D01*
X129957147Y-103374500D01*
X129874362Y-103396682D01*
X129874355Y-103396685D01*
X129824207Y-103425638D01*
X129800144Y-103439530D01*
X129800136Y-103439536D01*
X129339537Y-103900135D01*
X129339533Y-103900141D01*
X129296682Y-103974359D01*
X129294581Y-103982203D01*
X129274500Y-104057147D01*
X129274500Y-108142853D01*
X129295763Y-108222206D01*
X129296682Y-108225637D01*
X129296685Y-108225644D01*
X129339530Y-108299855D01*
X129339536Y-108299863D01*
X129407203Y-108367530D01*
X129407209Y-108367535D01*
X129956727Y-108917054D01*
X129973030Y-108937182D01*
X129979242Y-108946744D01*
X129988208Y-108968390D01*
X130068700Y-109088854D01*
X130076872Y-109097026D01*
X130083967Y-109107947D01*
X130090395Y-109129448D01*
X130101149Y-109149142D01*
X130100209Y-109162275D01*
X130103981Y-109174889D01*
X130097765Y-109196449D01*
X130096165Y-109218834D01*
X130088274Y-109229373D01*
X130084628Y-109242025D01*
X130067739Y-109256805D01*
X130054293Y-109274767D01*
X130041958Y-109279367D01*
X130032050Y-109288039D01*
X130009854Y-109291341D01*
X129988829Y-109299184D01*
X129979983Y-109299500D01*
X128217255Y-109299500D01*
X128150216Y-109279815D01*
X128129574Y-109263181D01*
X127961819Y-109095426D01*
X127928334Y-109034103D01*
X127925500Y-109007745D01*
X127925500Y-108645730D01*
X127922646Y-108615300D01*
X127922646Y-108615298D01*
X127877793Y-108487119D01*
X127877792Y-108487117D01*
X127797150Y-108377850D01*
X127687882Y-108297207D01*
X127687880Y-108297206D01*
X127559700Y-108252353D01*
X127529270Y-108249500D01*
X127529266Y-108249500D01*
X126470734Y-108249500D01*
X126470730Y-108249500D01*
X126440300Y-108252353D01*
X126440298Y-108252353D01*
X126312119Y-108297206D01*
X126312117Y-108297207D01*
X126202850Y-108377850D01*
X126122207Y-108487117D01*
X126122206Y-108487119D01*
X126077353Y-108615298D01*
X126077353Y-108615300D01*
X126074500Y-108645730D01*
X126074500Y-109029556D01*
X126057887Y-109091556D01*
X126026794Y-109145410D01*
X126026793Y-109145413D01*
X125999500Y-109247273D01*
X125999500Y-113482744D01*
X125979815Y-113549783D01*
X125963181Y-113570425D01*
X121065818Y-118467787D01*
X121004495Y-118501272D01*
X120934803Y-118496288D01*
X120878870Y-118454416D01*
X120854453Y-118388952D01*
X120861095Y-118339155D01*
X120897646Y-118234699D01*
X120900500Y-118204266D01*
X120900500Y-117652480D01*
X120904725Y-117620387D01*
X120904884Y-117619791D01*
X120925500Y-117542853D01*
X120925500Y-116404386D01*
X120945185Y-116337347D01*
X120961819Y-116316705D01*
X120994214Y-116284310D01*
X121040509Y-116238015D01*
X121112984Y-116112485D01*
X121150500Y-115972475D01*
X121150500Y-115827525D01*
X121112984Y-115687515D01*
X121093972Y-115654586D01*
X121040511Y-115561988D01*
X121040510Y-115561986D01*
X121040509Y-115561985D01*
X120938015Y-115459491D01*
X120938013Y-115459490D01*
X120938011Y-115459488D01*
X120812488Y-115387017D01*
X120812489Y-115387017D01*
X120801006Y-115383940D01*
X120672475Y-115349500D01*
X120527525Y-115349500D01*
X120398993Y-115383940D01*
X120387511Y-115387017D01*
X120261988Y-115459488D01*
X120261982Y-115459493D01*
X120159493Y-115561982D01*
X120159488Y-115561988D01*
X120087017Y-115687511D01*
X120087016Y-115687515D01*
X120049500Y-115827525D01*
X120049500Y-115972475D01*
X120079606Y-116084831D01*
X120087017Y-116112488D01*
X120159488Y-116238011D01*
X120159493Y-116238017D01*
X120238181Y-116316705D01*
X120271666Y-116378028D01*
X120274500Y-116404386D01*
X120274500Y-117050500D01*
X120254815Y-117117539D01*
X120202011Y-117163294D01*
X120150500Y-117174500D01*
X119495730Y-117174500D01*
X119465300Y-117177353D01*
X119465298Y-117177353D01*
X119337119Y-117222206D01*
X119337117Y-117222207D01*
X119227850Y-117302850D01*
X119147207Y-117412117D01*
X119147206Y-117412119D01*
X119102353Y-117540298D01*
X119102353Y-117540300D01*
X119099500Y-117570730D01*
X119099500Y-117888811D01*
X119079815Y-117955850D01*
X119063181Y-117976492D01*
X118339537Y-118700135D01*
X118339535Y-118700138D01*
X118296682Y-118774359D01*
X118290212Y-118798508D01*
X118282942Y-118825639D01*
X118281253Y-118831940D01*
X118274500Y-118857143D01*
X118274500Y-120450500D01*
X118254815Y-120517539D01*
X118202011Y-120563294D01*
X118150500Y-120574500D01*
X117945730Y-120574500D01*
X117915300Y-120577353D01*
X117915298Y-120577353D01*
X117787119Y-120622206D01*
X117787117Y-120622207D01*
X117677850Y-120702850D01*
X117597207Y-120812117D01*
X117597206Y-120812119D01*
X117552353Y-120940298D01*
X117552353Y-120940300D01*
X117549500Y-120970730D01*
X117148653Y-120970730D01*
X117139386Y-120893556D01*
X117083920Y-120752904D01*
X116992564Y-120632435D01*
X116872095Y-120541079D01*
X116731443Y-120485613D01*
X116643054Y-120475000D01*
X116550000Y-120475000D01*
X116550000Y-121300000D01*
X116150000Y-121300000D01*
X116150000Y-120475000D01*
X116056946Y-120475000D01*
X115968556Y-120485613D01*
X115827904Y-120541079D01*
X115707435Y-120632435D01*
X115616079Y-120752904D01*
X115560613Y-120893556D01*
X115550000Y-120981946D01*
X112861978Y-120981946D01*
X112841803Y-120893556D01*
X112796344Y-120694387D01*
X112796343Y-120694385D01*
X112777466Y-120640435D01*
X112688562Y-120386361D01*
X112546968Y-120092340D01*
X112373346Y-119816021D01*
X112169877Y-119560879D01*
X111939121Y-119330123D01*
X111683979Y-119126654D01*
X111407660Y-118953032D01*
X111407657Y-118953030D01*
X111113640Y-118811438D01*
X110805614Y-118703656D01*
X110805612Y-118703655D01*
X110503951Y-118634803D01*
X110487456Y-118631038D01*
X110487453Y-118631037D01*
X110487441Y-118631035D01*
X110163175Y-118594500D01*
X110163169Y-118594500D01*
X109836831Y-118594500D01*
X109836824Y-118594500D01*
X109512558Y-118631035D01*
X109512544Y-118631038D01*
X109194387Y-118703655D01*
X109194385Y-118703656D01*
X108886359Y-118811438D01*
X108592342Y-118953030D01*
X108316022Y-119126653D01*
X108060879Y-119330122D01*
X107830122Y-119560879D01*
X107626653Y-119816022D01*
X107453030Y-120092342D01*
X107311438Y-120386359D01*
X107203656Y-120694385D01*
X107203655Y-120694387D01*
X107131038Y-121012544D01*
X107131035Y-121012558D01*
X107094500Y-121336824D01*
X97300500Y-121336824D01*
X97300500Y-107343053D01*
X125975000Y-107343053D01*
X125985613Y-107431443D01*
X126041079Y-107572095D01*
X126132435Y-107692564D01*
X126252904Y-107783920D01*
X126393556Y-107839386D01*
X126481946Y-107850000D01*
X126800000Y-107850000D01*
X127200000Y-107850000D01*
X127518054Y-107850000D01*
X127606443Y-107839386D01*
X127747095Y-107783920D01*
X127867564Y-107692564D01*
X127958920Y-107572095D01*
X128014386Y-107431443D01*
X128025000Y-107343053D01*
X128025000Y-107250000D01*
X127200000Y-107250000D01*
X127200000Y-107850000D01*
X126800000Y-107850000D01*
X126800000Y-107250000D01*
X125975000Y-107250000D01*
X125975000Y-107343053D01*
X97300500Y-107343053D01*
X97300500Y-106756946D01*
X125975000Y-106756946D01*
X125975000Y-106850000D01*
X126800000Y-106850000D01*
X127200000Y-106850000D01*
X128025000Y-106850000D01*
X128025000Y-106756946D01*
X128014386Y-106668556D01*
X127958920Y-106527904D01*
X127867564Y-106407435D01*
X127747095Y-106316079D01*
X127606443Y-106260613D01*
X127518054Y-106250000D01*
X127200000Y-106250000D01*
X127200000Y-106850000D01*
X126800000Y-106850000D01*
X126800000Y-106250000D01*
X126481946Y-106250000D01*
X126393556Y-106260613D01*
X126252904Y-106316079D01*
X126132435Y-106407435D01*
X126041079Y-106527904D01*
X125985613Y-106668556D01*
X125975000Y-106756946D01*
X97300500Y-106756946D01*
X97300500Y-103500000D01*
X97550000Y-103500000D01*
X97597075Y-103977969D01*
X97736496Y-104437578D01*
X97962895Y-104861141D01*
X97962899Y-104861148D01*
X98267587Y-105232411D01*
X98638850Y-105537099D01*
X98638857Y-105537103D01*
X99062420Y-105763502D01*
X99062422Y-105763502D01*
X99062425Y-105763504D01*
X99522028Y-105902923D01*
X99522027Y-105902923D01*
X99569104Y-105907559D01*
X100000000Y-105950000D01*
X100477971Y-105902923D01*
X100937574Y-105763504D01*
X100943262Y-105760464D01*
X101222624Y-105611142D01*
X101361147Y-105537100D01*
X101732411Y-105232411D01*
X102037100Y-104861147D01*
X102263268Y-104438015D01*
X102263502Y-104437578D01*
X102263502Y-104437577D01*
X102263504Y-104437574D01*
X102402923Y-103977971D01*
X102450000Y-103500000D01*
X102402923Y-103022028D01*
X102263504Y-102562425D01*
X102263502Y-102562422D01*
X102263502Y-102562420D01*
X102037103Y-102138857D01*
X102037099Y-102138850D01*
X101732411Y-101767587D01*
X101361148Y-101462899D01*
X101361141Y-101462895D01*
X100937578Y-101236496D01*
X100606797Y-101136155D01*
X100477971Y-101097076D01*
X100477969Y-101097075D01*
X100477971Y-101097075D01*
X100000000Y-101050000D01*
X99522029Y-101097075D01*
X99062420Y-101236496D01*
X98638857Y-101462895D01*
X98638850Y-101462899D01*
X98267587Y-101767587D01*
X97962899Y-102138850D01*
X97962895Y-102138857D01*
X97736496Y-102562420D01*
X97597075Y-103022029D01*
X97550000Y-103500000D01*
X97300500Y-103500000D01*
X97300500Y-101516660D01*
X97300882Y-101506939D01*
X97305446Y-101448904D01*
X97309247Y-101400562D01*
X97312300Y-101381300D01*
X97333396Y-101293583D01*
X97339374Y-101275183D01*
X97373866Y-101191829D01*
X97382709Y-101174469D01*
X97429760Y-101097695D01*
X97441181Y-101081975D01*
X97499722Y-101013440D01*
X97513440Y-100999722D01*
X97581975Y-100941181D01*
X97597695Y-100929760D01*
X97674469Y-100882709D01*
X97691829Y-100873866D01*
X97775183Y-100839374D01*
X97793583Y-100833396D01*
X97881300Y-100812300D01*
X97900562Y-100809247D01*
X97982366Y-100802814D01*
X98006940Y-100800882D01*
X98016661Y-100800500D01*
X152557830Y-100800500D01*
X152624869Y-100820185D01*
G37*
%TD.AperFunction*%
%TD*%
M02*
