%TF.GenerationSoftware,KiCad,Pcbnew,9.0.9-9.0.9~ubuntu24.04.1*%
%TF.CreationDate,2026-09-27T21:33:55+00:00*%
%TF.ProjectId,key-board-lh,6b65792d-626f-4617-9264-2d6c682e6b69,A*%
%TF.SameCoordinates,Original*%
%TF.FileFunction,Copper,L1,Top*%
%TF.FilePolarity,Positive*%
%FSLAX46Y46*%
G04 Gerber Fmt 4.6, Leading zero omitted, Abs format (unit mm)*
G04 Created by KiCad (PCBNEW 9.0.9-9.0.9~ubuntu24.04.1) date 2026-09-27 21:33:55*
%MOMM*%
%LPD*%
G01*
G04 APERTURE LIST*
%TA.AperFunction,ComponentPad*%
%ADD10C,2.000000*%
%TD*%
%TA.AperFunction,ComponentPad*%
%ADD11R,1.070000X1.070000*%
%TD*%
%TA.AperFunction,ComponentPad*%
%ADD12C,1.070000*%
%TD*%
%TA.AperFunction,ViaPad*%
%ADD13C,0.700000*%
%TD*%
%TA.AperFunction,Conductor*%
%ADD14C,0.250000*%
%TD*%
%TA.AperFunction,Conductor*%
%ADD15C,0.400000*%
%TD*%
G04 APERTURE END LIST*
D10*
%TO.P,SW-LH2,1*%
%TO.N,/LH2/SWITCH_LEG*%
X125600000Y-126200000D03*
%TO.P,SW-LH2,2*%
%TO.N,GND_CHAIN*%
X132600000Y-127250000D03*
%TD*%
%TO.P,SW-LH3,1*%
%TO.N,/LH3/SWITCH_LEG*%
X145600000Y-126200000D03*
%TO.P,SW-LH3,2*%
%TO.N,GND_CHAIN*%
X152600000Y-127250000D03*
%TD*%
%TO.P,SW-LH5,1*%
%TO.N,/LH5/SWITCH_LEG*%
X163600000Y-117200000D03*
%TO.P,SW-LH5,2*%
%TO.N,GND_CHAIN*%
X170600000Y-118250000D03*
%TD*%
%TO.P,SW-LH1,1*%
%TO.N,/LH1/SWITCH_LEG*%
X105600000Y-126200000D03*
%TO.P,SW-LH1,2*%
%TO.N,GND_CHAIN*%
X112600000Y-127250000D03*
%TD*%
%TO.P,SW-LH4,1*%
%TO.N,/LH4/SWITCH_LEG*%
X163600000Y-135200000D03*
%TO.P,SW-LH4,2*%
%TO.N,GND_CHAIN*%
X170600000Y-136250000D03*
%TD*%
D11*
%TO.P,J-CHAIN,1*%
%TO.N,unconnected-(J-CHAIN-Pin_1-Pad1)*%
X130640000Y-111160000D03*
D12*
%TO.P,J-CHAIN,2*%
%TO.N,unconnected-(J-CHAIN-Pin_2-Pad2)*%
X131910000Y-111160000D03*
%TO.P,J-CHAIN,3*%
%TO.N,V3V3_CHAIN_LH*%
X130640000Y-109890000D03*
%TO.P,J-CHAIN,4*%
%TO.N,GND_CHAIN*%
X131910000Y-109890000D03*
%TO.P,J-CHAIN,5*%
%TO.N,/HOP_LH_LT*%
X130640000Y-108620000D03*
%TO.P,J-CHAIN,6*%
%TO.N,GND_CHAIN*%
X131910000Y-108620000D03*
%TO.P,J-CHAIN,7*%
%TO.N,/CHAIN_SER_LH*%
X130640000Y-107350000D03*
%TO.P,J-CHAIN,8*%
%TO.N,GND_CHAIN*%
X131910000Y-107350000D03*
%TO.P,J-CHAIN,9*%
%TO.N,/CHAIN_SHLD*%
X130640000Y-106080000D03*
%TO.P,J-CHAIN,10*%
%TO.N,GND_CHAIN*%
X131910000Y-106080000D03*
%TO.P,J-CHAIN,11*%
%TO.N,/CHAIN_SCK*%
X130640000Y-104810000D03*
%TO.P,J-CHAIN,12*%
%TO.N,GND_CHAIN*%
X131910000Y-104810000D03*
%TD*%
D13*
%TO.N,/CHAIN_SCK*%
X153600000Y-110500000D03*
X152400000Y-113900000D03*
%TO.N,/CHAIN_SER_LH*%
X141800000Y-102300000D03*
X147200000Y-102300000D03*
%TO.N,/CHAIN_SHLD*%
X129600000Y-101500000D03*
X154400000Y-107500000D03*
%TO.N,/HOP_LH_LT*%
X142800000Y-112300000D03*
%TO.N,/KEY_LH1*%
X148400000Y-110500000D03*
X126000000Y-114100000D03*
%TO.N,/KEY_LH4*%
X152000000Y-107500000D03*
X159400000Y-109500000D03*
%TO.N,/KEY_LH5*%
X176000000Y-108500000D03*
X156600000Y-108500000D03*
%TO.N,/LH1/SWITCH_LEG*%
X118600000Y-125500000D03*
%TO.N,/LH2/SWITCH_LEG*%
X138600000Y-125500000D03*
%TO.N,/LH3/SWITCH_LEG*%
X158600000Y-125500000D03*
%TO.N,/LH4/SWITCH_LEG*%
X176800000Y-134700000D03*
%TO.N,/LH5/SWITCH_LEG*%
X176600000Y-116500000D03*
%TO.N,GND_CHAIN*%
X150800000Y-112100000D03*
X173000000Y-110300000D03*
X148800000Y-112100000D03*
X145200000Y-109700000D03*
X135200000Y-121500000D03*
X171000000Y-122300000D03*
X155000000Y-118700000D03*
X128600000Y-107500000D03*
X136600000Y-127700000D03*
%TO.N,V3V3_CHAIN_LH*%
X143800000Y-111300000D03*
X140600000Y-115100000D03*
X160400000Y-115100000D03*
X140600000Y-111300000D03*
%TD*%
D14*
%TO.N,/CHAIN_SCK*%
X143000000Y-103700000D02*
X131199999Y-103700000D01*
X131199999Y-103700000D02*
X131000000Y-103900000D01*
X152400000Y-111700000D02*
X152400000Y-113900000D01*
X153600000Y-110500000D02*
X149800000Y-110500000D01*
X153600000Y-110500000D02*
X152400000Y-111700000D01*
X131000000Y-103900000D02*
X131000000Y-104500000D01*
X149800000Y-110500000D02*
X143000000Y-103700000D01*
%TO.N,/CHAIN_SER_LH*%
X131400000Y-102300000D02*
X129600000Y-104100000D01*
X129600000Y-104100000D02*
X129600000Y-106700000D01*
X129600000Y-106700000D02*
X130199999Y-107300000D01*
X147200000Y-102300000D02*
X131400000Y-102300000D01*
%TO.N,/CHAIN_SHLD*%
X148200000Y-101300000D02*
X129800000Y-101300000D01*
X129800000Y-101300000D02*
X129600000Y-101500000D01*
X154400000Y-107500000D02*
X148200000Y-101300000D01*
%TO.N,/HOP_LH_LT*%
X142800000Y-112300000D02*
X129800000Y-112300000D01*
X129600000Y-109300000D02*
X130199999Y-108700000D01*
X129600000Y-112100000D02*
X129600000Y-109300000D01*
X129800000Y-112300000D02*
X129600000Y-112100000D01*
%TO.N,/KEY_LH1*%
X126000000Y-114100000D02*
X144800000Y-114100000D01*
X144800000Y-114100000D02*
X148400000Y-110500000D01*
%TO.N,/KEY_LH4*%
X154000000Y-109500000D02*
X152000000Y-107500000D01*
X159400000Y-109500000D02*
X154000000Y-109500000D01*
%TO.N,/KEY_LH5*%
X176000000Y-108500000D02*
X156600000Y-108500000D01*
%TO.N,/LH1/SWITCH_LEG*%
X118600000Y-125500000D02*
X106200000Y-125500000D01*
%TO.N,/LH2/SWITCH_LEG*%
X138600000Y-125500000D02*
X126200000Y-125500000D01*
%TO.N,/LH3/SWITCH_LEG*%
X158600000Y-125500000D02*
X146200000Y-125500000D01*
%TO.N,/LH4/SWITCH_LEG*%
X164400000Y-134700000D02*
X176800000Y-134700000D01*
%TO.N,/LH5/SWITCH_LEG*%
X176600000Y-116500000D02*
X164200000Y-116500000D01*
%TO.N,GND_CHAIN*%
X148800000Y-112100000D02*
X150800000Y-112100000D01*
X155000000Y-118700000D02*
X169800000Y-118700000D01*
X171000000Y-119100000D02*
X171000000Y-122300000D01*
X145200000Y-109700000D02*
X132199999Y-109700000D01*
X131800000Y-127700000D02*
X113400000Y-127700000D01*
X151800000Y-127700000D02*
X133400000Y-127700000D01*
D15*
%TO.N,V3V3_CHAIN_LH*%
X140600000Y-115100000D02*
X160400000Y-115100000D01*
X143800000Y-111300000D02*
X140600000Y-111300000D01*
%TD*%
%TA.AperFunction,Conductor*%
%TO.N,GND_CHAIN*%
G36*
X129314835Y-100820185D02*
G01*
X129360590Y-100872989D01*
X129370534Y-100942147D01*
X129341509Y-101005703D01*
X129309796Y-101031887D01*
X129261988Y-101059488D01*
X129261982Y-101059493D01*
X129159493Y-101161982D01*
X129159488Y-101161988D01*
X129087017Y-101287511D01*
X129087016Y-101287515D01*
X129049500Y-101427525D01*
X129049500Y-101572475D01*
X129085284Y-101706021D01*
X129087017Y-101712488D01*
X129159488Y-101838011D01*
X129159490Y-101838013D01*
X129159491Y-101838015D01*
X129261985Y-101940509D01*
X129261986Y-101940510D01*
X129261988Y-101940511D01*
X129387511Y-102012982D01*
X129387512Y-102012982D01*
X129387515Y-102012984D01*
X129527525Y-102050500D01*
X129527528Y-102050500D01*
X129672472Y-102050500D01*
X129672475Y-102050500D01*
X129812485Y-102012984D01*
X129938015Y-101940509D01*
X130040509Y-101838015D01*
X130112984Y-101712485D01*
X130112985Y-101712479D01*
X130116092Y-101704981D01*
X130118603Y-101706021D01*
X130148035Y-101657741D01*
X130210884Y-101627216D01*
X130231440Y-101625500D01*
X141404495Y-101625500D01*
X141471534Y-101645185D01*
X141517289Y-101697989D01*
X141527233Y-101767147D01*
X141498208Y-101830703D01*
X141488824Y-101840410D01*
X141478587Y-101849905D01*
X141461985Y-101859491D01*
X141381654Y-101939821D01*
X141379942Y-101941410D01*
X141350671Y-101955994D01*
X141321970Y-101971666D01*
X141318462Y-101972043D01*
X141317405Y-101972570D01*
X141315500Y-101972361D01*
X141295613Y-101974500D01*
X131357147Y-101974500D01*
X131274362Y-101996682D01*
X131274359Y-101996683D01*
X131246129Y-102012982D01*
X131246126Y-102012984D01*
X131223132Y-102026259D01*
X131200139Y-102039534D01*
X131200136Y-102039536D01*
X129339537Y-103900135D01*
X129339533Y-103900141D01*
X129296682Y-103974359D01*
X129292520Y-103989896D01*
X129274500Y-104057147D01*
X129274500Y-106742852D01*
X129296682Y-106825637D01*
X129296685Y-106825644D01*
X129339530Y-106899855D01*
X129339536Y-106899863D01*
X129407203Y-106967530D01*
X129407209Y-106967535D01*
X129888426Y-107448753D01*
X129921911Y-107510076D01*
X129922362Y-107512242D01*
X129932763Y-107564532D01*
X129932766Y-107564542D01*
X129988204Y-107698383D01*
X129988211Y-107698396D01*
X130068699Y-107818853D01*
X130068702Y-107818857D01*
X130147164Y-107897319D01*
X130180649Y-107958642D01*
X130175665Y-108028334D01*
X130147164Y-108072681D01*
X130068702Y-108151142D01*
X130068699Y-108151146D01*
X129988211Y-108271603D01*
X129988204Y-108271616D01*
X129932766Y-108405457D01*
X129932763Y-108405467D01*
X129914913Y-108495205D01*
X129882528Y-108557116D01*
X129880977Y-108558694D01*
X129400140Y-109039533D01*
X129339536Y-109100136D01*
X129339530Y-109100144D01*
X129296685Y-109174355D01*
X129296682Y-109174362D01*
X129274500Y-109257147D01*
X129274500Y-112142852D01*
X129296682Y-112225640D01*
X129318108Y-112262750D01*
X129339535Y-112299862D01*
X129539533Y-112499860D01*
X129539535Y-112499862D01*
X129600138Y-112560465D01*
X129606838Y-112564333D01*
X129674361Y-112603318D01*
X129757147Y-112625501D01*
X129757149Y-112625501D01*
X129850449Y-112625501D01*
X129850465Y-112625500D01*
X142295613Y-112625500D01*
X142362652Y-112645185D01*
X142383294Y-112661818D01*
X142461985Y-112740509D01*
X142461987Y-112740510D01*
X142461988Y-112740511D01*
X142587511Y-112812982D01*
X142587512Y-112812982D01*
X142587515Y-112812984D01*
X142727525Y-112850500D01*
X142727528Y-112850500D01*
X142872472Y-112850500D01*
X142872475Y-112850500D01*
X143012485Y-112812984D01*
X143138015Y-112740509D01*
X143240509Y-112638015D01*
X143312984Y-112512485D01*
X143350500Y-112372475D01*
X143350500Y-112227525D01*
X143312984Y-112087515D01*
X143269707Y-112012558D01*
X143240511Y-111961988D01*
X143240506Y-111961982D01*
X143190705Y-111912181D01*
X143180092Y-111892744D01*
X143165592Y-111876011D01*
X143163675Y-111862679D01*
X143157220Y-111850858D01*
X143158799Y-111828771D01*
X143155648Y-111806853D01*
X143161243Y-111794601D01*
X143162204Y-111781166D01*
X143175474Y-111763439D01*
X143184673Y-111743297D01*
X143196004Y-111736014D01*
X143204076Y-111725233D01*
X143224821Y-111717495D01*
X143243451Y-111705523D01*
X143265369Y-111702371D01*
X143269540Y-111700816D01*
X143278386Y-111700500D01*
X143370614Y-111700500D01*
X143437653Y-111720185D01*
X143458295Y-111736819D01*
X143461985Y-111740509D01*
X143461986Y-111740510D01*
X143461988Y-111740511D01*
X143587511Y-111812982D01*
X143587512Y-111812982D01*
X143587515Y-111812984D01*
X143727525Y-111850500D01*
X143727528Y-111850500D01*
X143872472Y-111850500D01*
X143872475Y-111850500D01*
X144012485Y-111812984D01*
X144138015Y-111740509D01*
X144240509Y-111638015D01*
X144312984Y-111512485D01*
X144350500Y-111372475D01*
X144350500Y-111227525D01*
X144312984Y-111087515D01*
X144291613Y-111050500D01*
X144240511Y-110961988D01*
X144240506Y-110961982D01*
X144138017Y-110859493D01*
X144138011Y-110859488D01*
X144012488Y-110787017D01*
X144012489Y-110787017D01*
X144001006Y-110783940D01*
X143872475Y-110749500D01*
X143727525Y-110749500D01*
X143598993Y-110783940D01*
X143587511Y-110787017D01*
X143461988Y-110859488D01*
X143461982Y-110859493D01*
X143458295Y-110863181D01*
X143396972Y-110896666D01*
X143370614Y-110899500D01*
X141029386Y-110899500D01*
X140962347Y-110879815D01*
X140941705Y-110863181D01*
X140938017Y-110859493D01*
X140938011Y-110859488D01*
X140812488Y-110787017D01*
X140812489Y-110787017D01*
X140801006Y-110783940D01*
X140672475Y-110749500D01*
X140527525Y-110749500D01*
X140398993Y-110783940D01*
X140387511Y-110787017D01*
X140261988Y-110859488D01*
X140261982Y-110859493D01*
X140159493Y-110961982D01*
X140159488Y-110961988D01*
X140087017Y-111087511D01*
X140087016Y-111087515D01*
X140049500Y-111227525D01*
X140049500Y-111372475D01*
X140087016Y-111512485D01*
X140087017Y-111512488D01*
X140159488Y-111638011D01*
X140159490Y-111638013D01*
X140159491Y-111638015D01*
X140261985Y-111740509D01*
X140261988Y-111740510D01*
X140261991Y-111740513D01*
X140266496Y-111743114D01*
X140314711Y-111793681D01*
X140327933Y-111862288D01*
X140301965Y-111927153D01*
X140245050Y-111967681D01*
X140204495Y-111974500D01*
X132423653Y-111974500D01*
X132356614Y-111954815D01*
X132310859Y-111902011D01*
X132300915Y-111832853D01*
X132329940Y-111769297D01*
X132354762Y-111747398D01*
X132378854Y-111731300D01*
X132481297Y-111628857D01*
X132481300Y-111628854D01*
X132561792Y-111508390D01*
X132617235Y-111374538D01*
X132645500Y-111232440D01*
X132645500Y-111087560D01*
X132617235Y-110945462D01*
X132597023Y-110896666D01*
X132561795Y-110811616D01*
X132561788Y-110811603D01*
X132481300Y-110691146D01*
X132481297Y-110691142D01*
X132378854Y-110588699D01*
X132258387Y-110508206D01*
X132253017Y-110505336D01*
X132253354Y-110504704D01*
X132218715Y-110481557D01*
X131972703Y-110235545D01*
X132045095Y-110216148D01*
X132124905Y-110170070D01*
X132190070Y-110104905D01*
X132236148Y-110025095D01*
X132255545Y-109952704D01*
X132625290Y-110322449D01*
X132649967Y-110285520D01*
X132649970Y-110285513D01*
X132712909Y-110133564D01*
X132712912Y-110133554D01*
X132745000Y-109972242D01*
X132745000Y-109807757D01*
X132712912Y-109646445D01*
X132712909Y-109646435D01*
X132649969Y-109494483D01*
X132649964Y-109494474D01*
X132625291Y-109457550D01*
X132625290Y-109457549D01*
X132255545Y-109827295D01*
X132236148Y-109754905D01*
X132190070Y-109675095D01*
X132124905Y-109609930D01*
X132045095Y-109563852D01*
X131972703Y-109544454D01*
X132262158Y-109255000D01*
X131972703Y-108965545D01*
X132045095Y-108946148D01*
X132124905Y-108900070D01*
X132190070Y-108834905D01*
X132236148Y-108755095D01*
X132255545Y-108682704D01*
X132625290Y-109052449D01*
X132649967Y-109015520D01*
X132649970Y-109015513D01*
X132712909Y-108863564D01*
X132712912Y-108863554D01*
X132745000Y-108702242D01*
X132745000Y-108537757D01*
X132712912Y-108376445D01*
X132712909Y-108376435D01*
X132649969Y-108224483D01*
X132649964Y-108224474D01*
X132625291Y-108187550D01*
X132625290Y-108187549D01*
X132255545Y-108557295D01*
X132236148Y-108484905D01*
X132190070Y-108405095D01*
X132124905Y-108339930D01*
X132045095Y-108293852D01*
X131972703Y-108274454D01*
X132262158Y-107985000D01*
X131972703Y-107695545D01*
X132045095Y-107676148D01*
X132124905Y-107630070D01*
X132190070Y-107564905D01*
X132236148Y-107485095D01*
X132255545Y-107412704D01*
X132625290Y-107782449D01*
X132649967Y-107745520D01*
X132649970Y-107745513D01*
X132712909Y-107593564D01*
X132712912Y-107593554D01*
X132745000Y-107432242D01*
X132745000Y-107267757D01*
X132712912Y-107106445D01*
X132712909Y-107106435D01*
X132649969Y-106954483D01*
X132649964Y-106954474D01*
X132625291Y-106917550D01*
X132625290Y-106917549D01*
X132255545Y-107287295D01*
X132236148Y-107214905D01*
X132190070Y-107135095D01*
X132124905Y-107069930D01*
X132045095Y-107023852D01*
X131972703Y-107004454D01*
X132262158Y-106715000D01*
X131972703Y-106425545D01*
X132045095Y-106406148D01*
X132124905Y-106360070D01*
X132190070Y-106294905D01*
X132236148Y-106215095D01*
X132255545Y-106142704D01*
X132625290Y-106512449D01*
X132649967Y-106475520D01*
X132649970Y-106475513D01*
X132712909Y-106323564D01*
X132712912Y-106323554D01*
X132745000Y-106162242D01*
X132745000Y-105997757D01*
X132712912Y-105836445D01*
X132712909Y-105836435D01*
X132649969Y-105684483D01*
X132649964Y-105684474D01*
X132625291Y-105647550D01*
X132625290Y-105647549D01*
X132255545Y-106017295D01*
X132236148Y-105944905D01*
X132190070Y-105865095D01*
X132124905Y-105799930D01*
X132045095Y-105753852D01*
X131972703Y-105734454D01*
X132262158Y-105445000D01*
X131972703Y-105155545D01*
X132045095Y-105136148D01*
X132124905Y-105090070D01*
X132190070Y-105024905D01*
X132236148Y-104945095D01*
X132255545Y-104872704D01*
X132625290Y-105242449D01*
X132649967Y-105205520D01*
X132649970Y-105205513D01*
X132712909Y-105053564D01*
X132712912Y-105053554D01*
X132745000Y-104892242D01*
X132745000Y-104727757D01*
X132712912Y-104566445D01*
X132712909Y-104566435D01*
X132649969Y-104414483D01*
X132649964Y-104414474D01*
X132625291Y-104377550D01*
X132625290Y-104377549D01*
X132255545Y-104747295D01*
X132236148Y-104674905D01*
X132190070Y-104595095D01*
X132124905Y-104529930D01*
X132045095Y-104483852D01*
X131972703Y-104464454D01*
X132375338Y-104061819D01*
X132436661Y-104028334D01*
X132463019Y-104025500D01*
X142813811Y-104025500D01*
X142880850Y-104045185D01*
X142901492Y-104061819D01*
X148578888Y-109739215D01*
X148612373Y-109800538D01*
X148607389Y-109870230D01*
X148565517Y-109926163D01*
X148500053Y-109950580D01*
X148475024Y-109949835D01*
X148472479Y-109949500D01*
X148472475Y-109949500D01*
X148327525Y-109949500D01*
X148198993Y-109983940D01*
X148187511Y-109987017D01*
X148061988Y-110059488D01*
X148061982Y-110059493D01*
X147959493Y-110161982D01*
X147959488Y-110161988D01*
X147887017Y-110287511D01*
X147887016Y-110287515D01*
X147849500Y-110427525D01*
X147849500Y-110427527D01*
X147849500Y-110538811D01*
X147829815Y-110605850D01*
X147813181Y-110626492D01*
X144701492Y-113738181D01*
X144640169Y-113771666D01*
X144613811Y-113774500D01*
X126504387Y-113774500D01*
X126437348Y-113754815D01*
X126416706Y-113738182D01*
X126416705Y-113738181D01*
X126338015Y-113659491D01*
X126338012Y-113659489D01*
X126338011Y-113659488D01*
X126212488Y-113587017D01*
X126212489Y-113587017D01*
X126201006Y-113583940D01*
X126072475Y-113549500D01*
X125927525Y-113549500D01*
X125798993Y-113583940D01*
X125787511Y-113587017D01*
X125661988Y-113659488D01*
X125661982Y-113659493D01*
X125559493Y-113761982D01*
X125559488Y-113761988D01*
X125487017Y-113887511D01*
X125487016Y-113887515D01*
X125449500Y-114027525D01*
X125449500Y-114172475D01*
X125487016Y-114312485D01*
X125487017Y-114312488D01*
X125559488Y-114438011D01*
X125559490Y-114438013D01*
X125559491Y-114438015D01*
X125661985Y-114540509D01*
X125661986Y-114540510D01*
X125661988Y-114540511D01*
X125787511Y-114612982D01*
X125787512Y-114612982D01*
X125787515Y-114612984D01*
X125927525Y-114650500D01*
X125927528Y-114650500D01*
X126072472Y-114650500D01*
X126072475Y-114650500D01*
X126212485Y-114612984D01*
X126338015Y-114540509D01*
X126416706Y-114461818D01*
X126478030Y-114428334D01*
X126504387Y-114425500D01*
X140204495Y-114425500D01*
X140271534Y-114445185D01*
X140317289Y-114497989D01*
X140327233Y-114567147D01*
X140298208Y-114630703D01*
X140266496Y-114656886D01*
X140261991Y-114659486D01*
X140261982Y-114659493D01*
X140159493Y-114761982D01*
X140159488Y-114761988D01*
X140087017Y-114887511D01*
X140087016Y-114887515D01*
X140049500Y-115027525D01*
X140049500Y-115172475D01*
X140053811Y-115188562D01*
X140087017Y-115312488D01*
X140159488Y-115438011D01*
X140159490Y-115438013D01*
X140159491Y-115438015D01*
X140261985Y-115540509D01*
X140261986Y-115540510D01*
X140261988Y-115540511D01*
X140387511Y-115612982D01*
X140387512Y-115612982D01*
X140387515Y-115612984D01*
X140527525Y-115650500D01*
X140527528Y-115650500D01*
X140672472Y-115650500D01*
X140672475Y-115650500D01*
X140812485Y-115612984D01*
X140938015Y-115540509D01*
X140941705Y-115536819D01*
X141003028Y-115503334D01*
X141029386Y-115500500D01*
X159970614Y-115500500D01*
X160037653Y-115520185D01*
X160058295Y-115536819D01*
X160061985Y-115540509D01*
X160061986Y-115540510D01*
X160061988Y-115540511D01*
X160187511Y-115612982D01*
X160187512Y-115612982D01*
X160187515Y-115612984D01*
X160327525Y-115650500D01*
X160327528Y-115650500D01*
X160472472Y-115650500D01*
X160472475Y-115650500D01*
X160612485Y-115612984D01*
X160738015Y-115540509D01*
X160840509Y-115438015D01*
X160912984Y-115312485D01*
X160950500Y-115172475D01*
X160950500Y-115027525D01*
X160912984Y-114887515D01*
X160904803Y-114873346D01*
X160840511Y-114761988D01*
X160840506Y-114761982D01*
X160738017Y-114659493D01*
X160738011Y-114659488D01*
X160612488Y-114587017D01*
X160612489Y-114587017D01*
X160601006Y-114583940D01*
X160472475Y-114549500D01*
X160327525Y-114549500D01*
X160198993Y-114583940D01*
X160187511Y-114587017D01*
X160061988Y-114659488D01*
X160061982Y-114659493D01*
X160058295Y-114663181D01*
X159996972Y-114696666D01*
X159970614Y-114699500D01*
X141029386Y-114699500D01*
X140962347Y-114679815D01*
X140941705Y-114663181D01*
X140938017Y-114659493D01*
X140938015Y-114659491D01*
X140938012Y-114659489D01*
X140938008Y-114659486D01*
X140933504Y-114656886D01*
X140885289Y-114606319D01*
X140872067Y-114537712D01*
X140898035Y-114472847D01*
X140954950Y-114432319D01*
X140995505Y-114425500D01*
X144842851Y-114425500D01*
X144842853Y-114425500D01*
X144925639Y-114403318D01*
X144999862Y-114360465D01*
X148273506Y-111086818D01*
X148334829Y-111053334D01*
X148361187Y-111050500D01*
X148472472Y-111050500D01*
X148472475Y-111050500D01*
X148612485Y-111012984D01*
X148738015Y-110940509D01*
X148840509Y-110838015D01*
X148912984Y-110712485D01*
X148950500Y-110572475D01*
X148950500Y-110427525D01*
X148950499Y-110427522D01*
X148950165Y-110424985D01*
X148950500Y-110422835D01*
X148950500Y-110419398D01*
X148951036Y-110419398D01*
X148960926Y-110355949D01*
X149007303Y-110303690D01*
X149074571Y-110284801D01*
X149141372Y-110305277D01*
X149160784Y-110321111D01*
X149600138Y-110760465D01*
X149674361Y-110803318D01*
X149757147Y-110825500D01*
X149842853Y-110825500D01*
X152514811Y-110825500D01*
X152581850Y-110845185D01*
X152627605Y-110897989D01*
X152637549Y-110967147D01*
X152608524Y-111030703D01*
X152602492Y-111037181D01*
X152139537Y-111500135D01*
X152139533Y-111500141D01*
X152096682Y-111574359D01*
X152094773Y-111581485D01*
X152079626Y-111638015D01*
X152074500Y-111657147D01*
X152074500Y-113395613D01*
X152054815Y-113462652D01*
X152038182Y-113483294D01*
X151959488Y-113561988D01*
X151887017Y-113687511D01*
X151887016Y-113687515D01*
X151849500Y-113827525D01*
X151849500Y-113972475D01*
X151887016Y-114112485D01*
X151887017Y-114112488D01*
X151959488Y-114238011D01*
X151959490Y-114238013D01*
X151959491Y-114238015D01*
X152061985Y-114340509D01*
X152061986Y-114340510D01*
X152061988Y-114340511D01*
X152187511Y-114412982D01*
X152187512Y-114412982D01*
X152187515Y-114412984D01*
X152327525Y-114450500D01*
X152327528Y-114450500D01*
X152472472Y-114450500D01*
X152472475Y-114450500D01*
X152612485Y-114412984D01*
X152738015Y-114340509D01*
X152840509Y-114238015D01*
X152912984Y-114112485D01*
X152950500Y-113972475D01*
X152950500Y-113827525D01*
X152912984Y-113687515D01*
X152896805Y-113659493D01*
X152840511Y-113561988D01*
X152840510Y-113561987D01*
X152840509Y-113561985D01*
X152761818Y-113483294D01*
X152728334Y-113421970D01*
X152725500Y-113395613D01*
X152725500Y-112336824D01*
X165094500Y-112336824D01*
X165094500Y-112663175D01*
X165131035Y-112987441D01*
X165131038Y-112987455D01*
X165203655Y-113305612D01*
X165203656Y-113305614D01*
X165311438Y-113613640D01*
X165453030Y-113907657D01*
X165453032Y-113907660D01*
X165626654Y-114183979D01*
X165669748Y-114238017D01*
X165829242Y-114438017D01*
X165830123Y-114439121D01*
X166060879Y-114669877D01*
X166316021Y-114873346D01*
X166592340Y-115046968D01*
X166886361Y-115188562D01*
X167194387Y-115296344D01*
X167512544Y-115368962D01*
X167512553Y-115368963D01*
X167512558Y-115368964D01*
X167728735Y-115393320D01*
X167836825Y-115405499D01*
X167836828Y-115405500D01*
X167836831Y-115405500D01*
X168163172Y-115405500D01*
X168163173Y-115405499D01*
X168328900Y-115386826D01*
X168487441Y-115368964D01*
X168487444Y-115368963D01*
X168487456Y-115368962D01*
X168805613Y-115296344D01*
X169113639Y-115188562D01*
X169407660Y-115046968D01*
X169683979Y-114873346D01*
X169939121Y-114669877D01*
X170169877Y-114439121D01*
X170373346Y-114183979D01*
X170546968Y-113907660D01*
X170688562Y-113613639D01*
X170796344Y-113305613D01*
X170868962Y-112987456D01*
X170905500Y-112663169D01*
X170905500Y-112336831D01*
X170868962Y-112012544D01*
X170796344Y-111694387D01*
X170688562Y-111386361D01*
X170546968Y-111092340D01*
X170373346Y-110816021D01*
X170169877Y-110560879D01*
X169939121Y-110330123D01*
X169927820Y-110321111D01*
X169796201Y-110216148D01*
X169683979Y-110126654D01*
X169461747Y-109987017D01*
X169407657Y-109953030D01*
X169113640Y-109811438D01*
X168805614Y-109703656D01*
X168805612Y-109703655D01*
X168554914Y-109646435D01*
X168487456Y-109631038D01*
X168487453Y-109631037D01*
X168487441Y-109631035D01*
X168163175Y-109594500D01*
X168163169Y-109594500D01*
X167836831Y-109594500D01*
X167836824Y-109594500D01*
X167512558Y-109631035D01*
X167512544Y-109631038D01*
X167194387Y-109703655D01*
X167194385Y-109703656D01*
X166886359Y-109811438D01*
X166592342Y-109953030D01*
X166316022Y-110126653D01*
X166060879Y-110330122D01*
X165830122Y-110560879D01*
X165626653Y-110816022D01*
X165453030Y-111092342D01*
X165311438Y-111386359D01*
X165203656Y-111694385D01*
X165203655Y-111694387D01*
X165131038Y-112012544D01*
X165131035Y-112012558D01*
X165094500Y-112336824D01*
X152725500Y-112336824D01*
X152725500Y-111886188D01*
X152745185Y-111819149D01*
X152761815Y-111798511D01*
X153473507Y-111086818D01*
X153534830Y-111053334D01*
X153561188Y-111050500D01*
X153672472Y-111050500D01*
X153672475Y-111050500D01*
X153812485Y-111012984D01*
X153938015Y-110940509D01*
X154040509Y-110838015D01*
X154112984Y-110712485D01*
X154150500Y-110572475D01*
X154150500Y-110427525D01*
X154112984Y-110287515D01*
X154046098Y-110171666D01*
X154040511Y-110161988D01*
X154040506Y-110161982D01*
X153938017Y-110059493D01*
X153938015Y-110059491D01*
X153938012Y-110059489D01*
X153938008Y-110059486D01*
X153933504Y-110056886D01*
X153885289Y-110006319D01*
X153872067Y-109937712D01*
X153898035Y-109872847D01*
X153954950Y-109832319D01*
X153995505Y-109825500D01*
X158895613Y-109825500D01*
X158962652Y-109845185D01*
X158983294Y-109861818D01*
X159061985Y-109940509D01*
X159061987Y-109940510D01*
X159061988Y-109940511D01*
X159187511Y-110012982D01*
X159187512Y-110012982D01*
X159187515Y-110012984D01*
X159327525Y-110050500D01*
X159327528Y-110050500D01*
X159472472Y-110050500D01*
X159472475Y-110050500D01*
X159612485Y-110012984D01*
X159738015Y-109940509D01*
X159840509Y-109838015D01*
X159912984Y-109712485D01*
X159950500Y-109572475D01*
X159950500Y-109427525D01*
X159912984Y-109287515D01*
X159909429Y-109281358D01*
X159840511Y-109161988D01*
X159840506Y-109161982D01*
X159738017Y-109059493D01*
X159738015Y-109059491D01*
X159738012Y-109059489D01*
X159738008Y-109059486D01*
X159733504Y-109056886D01*
X159685289Y-109006319D01*
X159672067Y-108937712D01*
X159698035Y-108872847D01*
X159754950Y-108832319D01*
X159795505Y-108825500D01*
X175495613Y-108825500D01*
X175562652Y-108845185D01*
X175583294Y-108861818D01*
X175661985Y-108940509D01*
X175661987Y-108940510D01*
X175661988Y-108940511D01*
X175787511Y-109012982D01*
X175787512Y-109012982D01*
X175787515Y-109012984D01*
X175927525Y-109050500D01*
X175927528Y-109050500D01*
X176072472Y-109050500D01*
X176072475Y-109050500D01*
X176212485Y-109012984D01*
X176338015Y-108940509D01*
X176440509Y-108838015D01*
X176512984Y-108712485D01*
X176550500Y-108572475D01*
X176550500Y-108427525D01*
X176512984Y-108287515D01*
X176506899Y-108276976D01*
X176440511Y-108161988D01*
X176440506Y-108161982D01*
X176338017Y-108059493D01*
X176338011Y-108059488D01*
X176212488Y-107987017D01*
X176212489Y-107987017D01*
X176201006Y-107983940D01*
X176072475Y-107949500D01*
X175927525Y-107949500D01*
X175798993Y-107983940D01*
X175787511Y-107987017D01*
X175661988Y-108059488D01*
X175583294Y-108138182D01*
X175521970Y-108171666D01*
X175495613Y-108174500D01*
X157104387Y-108174500D01*
X157037348Y-108154815D01*
X157016706Y-108138182D01*
X156938015Y-108059491D01*
X156938012Y-108059489D01*
X156938011Y-108059488D01*
X156812488Y-107987017D01*
X156812489Y-107987017D01*
X156801006Y-107983940D01*
X156672475Y-107949500D01*
X156527525Y-107949500D01*
X156398993Y-107983940D01*
X156387511Y-107987017D01*
X156261988Y-108059488D01*
X156261982Y-108059493D01*
X156159493Y-108161982D01*
X156159488Y-108161988D01*
X156087017Y-108287511D01*
X156087016Y-108287515D01*
X156049500Y-108427525D01*
X156049500Y-108572475D01*
X156087016Y-108712485D01*
X156087017Y-108712488D01*
X156159488Y-108838011D01*
X156159490Y-108838013D01*
X156159491Y-108838015D01*
X156261985Y-108940509D01*
X156261988Y-108940510D01*
X156261991Y-108940513D01*
X156266496Y-108943114D01*
X156314711Y-108993681D01*
X156327933Y-109062288D01*
X156301965Y-109127153D01*
X156245050Y-109167681D01*
X156204495Y-109174500D01*
X154186189Y-109174500D01*
X154119150Y-109154815D01*
X154098508Y-109138181D01*
X152586819Y-107626492D01*
X152553334Y-107565169D01*
X152550500Y-107538811D01*
X152550500Y-107427527D01*
X152550500Y-107427525D01*
X152512984Y-107287515D01*
X152507236Y-107277560D01*
X152440511Y-107161988D01*
X152440506Y-107161982D01*
X152338017Y-107059493D01*
X152338011Y-107059488D01*
X152212488Y-106987017D01*
X152212489Y-106987017D01*
X152201006Y-106983940D01*
X152072475Y-106949500D01*
X151927525Y-106949500D01*
X151798993Y-106983940D01*
X151787511Y-106987017D01*
X151661988Y-107059488D01*
X151661982Y-107059493D01*
X151559493Y-107161982D01*
X151559488Y-107161988D01*
X151487017Y-107287511D01*
X151487016Y-107287515D01*
X151449500Y-107427525D01*
X151449500Y-107572475D01*
X151483239Y-107698390D01*
X151487017Y-107712488D01*
X151559488Y-107838011D01*
X151559490Y-107838013D01*
X151559491Y-107838015D01*
X151661985Y-107940509D01*
X151661986Y-107940510D01*
X151661988Y-107940511D01*
X151787511Y-108012982D01*
X151787512Y-108012982D01*
X151787515Y-108012984D01*
X151927525Y-108050500D01*
X151927528Y-108050500D01*
X152038811Y-108050500D01*
X152105850Y-108070185D01*
X152126492Y-108086819D01*
X153778888Y-109739215D01*
X153812373Y-109800538D01*
X153807389Y-109870230D01*
X153765517Y-109926163D01*
X153700053Y-109950580D01*
X153675024Y-109949835D01*
X153672479Y-109949500D01*
X153672475Y-109949500D01*
X153527525Y-109949500D01*
X153398993Y-109983940D01*
X153387511Y-109987017D01*
X153261988Y-110059488D01*
X153183294Y-110138182D01*
X153121970Y-110171666D01*
X153095613Y-110174500D01*
X149986189Y-110174500D01*
X149919150Y-110154815D01*
X149898508Y-110138181D01*
X143199864Y-103439537D01*
X143199862Y-103439535D01*
X143162750Y-103418108D01*
X143125640Y-103396682D01*
X143065029Y-103380442D01*
X143042853Y-103374500D01*
X131242851Y-103374500D01*
X131157145Y-103374500D01*
X131157143Y-103374500D01*
X131157137Y-103374501D01*
X131134963Y-103380442D01*
X131134963Y-103380443D01*
X131096920Y-103390637D01*
X131027070Y-103388974D01*
X130969207Y-103349812D01*
X130941703Y-103285584D01*
X130953289Y-103216681D01*
X130977142Y-103183184D01*
X131498508Y-102661819D01*
X131559831Y-102628334D01*
X131586189Y-102625500D01*
X141295613Y-102625500D01*
X141362652Y-102645185D01*
X141383294Y-102661818D01*
X141461985Y-102740509D01*
X141461987Y-102740510D01*
X141461988Y-102740511D01*
X141587511Y-102812982D01*
X141587512Y-102812982D01*
X141587515Y-102812984D01*
X141727525Y-102850500D01*
X141727528Y-102850500D01*
X141872472Y-102850500D01*
X141872475Y-102850500D01*
X142012485Y-102812984D01*
X142138015Y-102740509D01*
X142216706Y-102661818D01*
X142278030Y-102628334D01*
X142304387Y-102625500D01*
X146695613Y-102625500D01*
X146762652Y-102645185D01*
X146783294Y-102661818D01*
X146861985Y-102740509D01*
X146861987Y-102740510D01*
X146861988Y-102740511D01*
X146987511Y-102812982D01*
X146987512Y-102812982D01*
X146987515Y-102812984D01*
X147127525Y-102850500D01*
X147127528Y-102850500D01*
X147272472Y-102850500D01*
X147272475Y-102850500D01*
X147412485Y-102812984D01*
X147538015Y-102740509D01*
X147640509Y-102638015D01*
X147712984Y-102512485D01*
X147750500Y-102372475D01*
X147750500Y-102227525D01*
X147712984Y-102087515D01*
X147691613Y-102050500D01*
X147640511Y-101961988D01*
X147640506Y-101961982D01*
X147538017Y-101859493D01*
X147538015Y-101859491D01*
X147538012Y-101859489D01*
X147538008Y-101859486D01*
X147533504Y-101856886D01*
X147485289Y-101806319D01*
X147472067Y-101737712D01*
X147498035Y-101672847D01*
X147554950Y-101632319D01*
X147595505Y-101625500D01*
X148013811Y-101625500D01*
X148080850Y-101645185D01*
X148101492Y-101661819D01*
X153813181Y-107373508D01*
X153846666Y-107434831D01*
X153849500Y-107461189D01*
X153849500Y-107572475D01*
X153883239Y-107698390D01*
X153887017Y-107712488D01*
X153959488Y-107838011D01*
X153959490Y-107838013D01*
X153959491Y-107838015D01*
X154061985Y-107940509D01*
X154061986Y-107940510D01*
X154061988Y-107940511D01*
X154187511Y-108012982D01*
X154187512Y-108012982D01*
X154187515Y-108012984D01*
X154327525Y-108050500D01*
X154327528Y-108050500D01*
X154472472Y-108050500D01*
X154472475Y-108050500D01*
X154612485Y-108012984D01*
X154738015Y-107940509D01*
X154840509Y-107838015D01*
X154912984Y-107712485D01*
X154950500Y-107572475D01*
X154950500Y-107427525D01*
X154912984Y-107287515D01*
X154907236Y-107277560D01*
X154840511Y-107161988D01*
X154840506Y-107161982D01*
X154738017Y-107059493D01*
X154738011Y-107059488D01*
X154612488Y-106987017D01*
X154612489Y-106987017D01*
X154601006Y-106983940D01*
X154472475Y-106949500D01*
X154361189Y-106949500D01*
X154294150Y-106929815D01*
X154273508Y-106913181D01*
X150860327Y-103500000D01*
X175550000Y-103500000D01*
X175597075Y-103977969D01*
X175736496Y-104437578D01*
X175962895Y-104861141D01*
X175962899Y-104861148D01*
X176267587Y-105232411D01*
X176638850Y-105537099D01*
X176638857Y-105537103D01*
X177062420Y-105763502D01*
X177062422Y-105763502D01*
X177062425Y-105763504D01*
X177522028Y-105902923D01*
X177522027Y-105902923D01*
X177569104Y-105907559D01*
X178000000Y-105950000D01*
X178477971Y-105902923D01*
X178937574Y-105763504D01*
X179361147Y-105537100D01*
X179732411Y-105232411D01*
X180037100Y-104861147D01*
X180194627Y-104566435D01*
X180263502Y-104437578D01*
X180263502Y-104437577D01*
X180263504Y-104437574D01*
X180402923Y-103977971D01*
X180450000Y-103500000D01*
X180402923Y-103022028D01*
X180263504Y-102562425D01*
X180263502Y-102562422D01*
X180263502Y-102562420D01*
X180037103Y-102138857D01*
X180037099Y-102138850D01*
X179732411Y-101767587D01*
X179361148Y-101462899D01*
X179361141Y-101462895D01*
X178937578Y-101236496D01*
X178606797Y-101136155D01*
X178477971Y-101097076D01*
X178477969Y-101097075D01*
X178477971Y-101097075D01*
X178000000Y-101050000D01*
X177522029Y-101097075D01*
X177062420Y-101236496D01*
X176638857Y-101462895D01*
X176638850Y-101462899D01*
X176267587Y-101767587D01*
X175962899Y-102138850D01*
X175962895Y-102138857D01*
X175736496Y-102562420D01*
X175597075Y-103022029D01*
X175550000Y-103500000D01*
X150860327Y-103500000D01*
X148399864Y-101039537D01*
X148399862Y-101039535D01*
X148391885Y-101034929D01*
X148386614Y-101031886D01*
X148338399Y-100981318D01*
X148325178Y-100912711D01*
X148351147Y-100847847D01*
X148408062Y-100807319D01*
X148448616Y-100800500D01*
X179983292Y-100800500D01*
X179993037Y-100800883D01*
X180099145Y-100809249D01*
X180118318Y-100812284D01*
X180206455Y-100833426D01*
X180224944Y-100839428D01*
X180308280Y-100873912D01*
X180325592Y-100882722D01*
X180402307Y-100929667D01*
X180418235Y-100941248D01*
X180486464Y-100999672D01*
X180500056Y-101013273D01*
X180558826Y-101082011D01*
X180570298Y-101097793D01*
X180617284Y-101174461D01*
X180626137Y-101191843D01*
X180660771Y-101275542D01*
X180666701Y-101293734D01*
X180687875Y-101381059D01*
X180691004Y-101400792D01*
X180699137Y-101506782D01*
X180699500Y-101516269D01*
X180699500Y-141483732D01*
X180699137Y-141493218D01*
X180691003Y-141599237D01*
X180687874Y-141618971D01*
X180666707Y-141706268D01*
X180660773Y-141724469D01*
X180626145Y-141808133D01*
X180617294Y-141825509D01*
X180570286Y-141902208D01*
X180558820Y-141917981D01*
X180500047Y-141986738D01*
X180486448Y-142000350D01*
X180418235Y-142058768D01*
X180402295Y-142070357D01*
X180325558Y-142117310D01*
X180308278Y-142126106D01*
X180224992Y-142160592D01*
X180206433Y-142166615D01*
X180118350Y-142187709D01*
X180099226Y-142190735D01*
X179993024Y-142199116D01*
X179983269Y-142199500D01*
X98016683Y-142199500D01*
X98006953Y-142199118D01*
X97993253Y-142198039D01*
X97900483Y-142190737D01*
X97881264Y-142187692D01*
X97793610Y-142166646D01*
X97775122Y-142160640D01*
X97691853Y-142126161D01*
X97674502Y-142117322D01*
X97597707Y-142070263D01*
X97581958Y-142058820D01*
X97513476Y-142000320D01*
X97499721Y-141986562D01*
X97441189Y-141918018D01*
X97429767Y-141902296D01*
X97382704Y-141825508D01*
X97373853Y-141808133D01*
X97339373Y-141724825D01*
X97333392Y-141706421D01*
X97312303Y-141618735D01*
X97309248Y-141599463D01*
X97309230Y-141599237D01*
X97300882Y-141493062D01*
X97300500Y-141483342D01*
X97300500Y-139500000D01*
X97550000Y-139500000D01*
X97597075Y-139977969D01*
X97736496Y-140437578D01*
X97962895Y-140861141D01*
X97962899Y-140861148D01*
X98267587Y-141232411D01*
X98638850Y-141537099D01*
X98638857Y-141537103D01*
X99062420Y-141763502D01*
X99062422Y-141763502D01*
X99062425Y-141763504D01*
X99522028Y-141902923D01*
X99522027Y-141902923D01*
X99569104Y-141907559D01*
X100000000Y-141950000D01*
X100477971Y-141902923D01*
X100937574Y-141763504D01*
X101009910Y-141724840D01*
X101244474Y-141599463D01*
X101361147Y-141537100D01*
X101732411Y-141232411D01*
X102037100Y-140861147D01*
X102263504Y-140437574D01*
X102402923Y-139977971D01*
X102450000Y-139500000D01*
X175550000Y-139500000D01*
X175597075Y-139977969D01*
X175736496Y-140437578D01*
X175962895Y-140861141D01*
X175962899Y-140861148D01*
X176267587Y-141232411D01*
X176638850Y-141537099D01*
X176638857Y-141537103D01*
X177062420Y-141763502D01*
X177062422Y-141763502D01*
X177062425Y-141763504D01*
X177522028Y-141902923D01*
X177522027Y-141902923D01*
X177569104Y-141907559D01*
X178000000Y-141950000D01*
X178477971Y-141902923D01*
X178937574Y-141763504D01*
X179009910Y-141724840D01*
X179244474Y-141599463D01*
X179361147Y-141537100D01*
X179732411Y-141232411D01*
X180037100Y-140861147D01*
X180263504Y-140437574D01*
X180402923Y-139977971D01*
X180450000Y-139500000D01*
X180402923Y-139022028D01*
X180263504Y-138562425D01*
X180263502Y-138562422D01*
X180263502Y-138562420D01*
X180037103Y-138138857D01*
X180037099Y-138138850D01*
X179732411Y-137767587D01*
X179361148Y-137462899D01*
X179361141Y-137462895D01*
X178937578Y-137236496D01*
X178707772Y-137166785D01*
X178477971Y-137097076D01*
X178477969Y-137097075D01*
X178477971Y-137097075D01*
X178000000Y-137050000D01*
X177522029Y-137097075D01*
X177062420Y-137236496D01*
X176638857Y-137462895D01*
X176638850Y-137462899D01*
X176267587Y-137767587D01*
X175962899Y-138138850D01*
X175962895Y-138138857D01*
X175736496Y-138562420D01*
X175597075Y-139022029D01*
X175550000Y-139500000D01*
X102450000Y-139500000D01*
X102402923Y-139022028D01*
X102263504Y-138562425D01*
X102263502Y-138562422D01*
X102263502Y-138562420D01*
X102037103Y-138138857D01*
X102037099Y-138138850D01*
X101732411Y-137767587D01*
X101361148Y-137462899D01*
X101361141Y-137462895D01*
X101172039Y-137361818D01*
X100937578Y-137236496D01*
X100707772Y-137166785D01*
X100477971Y-137097076D01*
X100477969Y-137097075D01*
X100477971Y-137097075D01*
X100000000Y-137050000D01*
X99522029Y-137097075D01*
X99062420Y-137236496D01*
X98638857Y-137462895D01*
X98638850Y-137462899D01*
X98267587Y-137767587D01*
X97962899Y-138138850D01*
X97962895Y-138138857D01*
X97736496Y-138562420D01*
X97597075Y-139022029D01*
X97550000Y-139500000D01*
X97300500Y-139500000D01*
X97300500Y-135105513D01*
X162399500Y-135105513D01*
X162399500Y-135294486D01*
X162429059Y-135481118D01*
X162487454Y-135660836D01*
X162533379Y-135750968D01*
X162573240Y-135829199D01*
X162684310Y-135982073D01*
X162817927Y-136115690D01*
X162970801Y-136226760D01*
X163050347Y-136267290D01*
X163139163Y-136312545D01*
X163139165Y-136312545D01*
X163139168Y-136312547D01*
X163235497Y-136343846D01*
X163318881Y-136370940D01*
X163505514Y-136400500D01*
X163505519Y-136400500D01*
X163694486Y-136400500D01*
X163881118Y-136370940D01*
X163938433Y-136352317D01*
X164060832Y-136312547D01*
X164229199Y-136226760D01*
X164382073Y-136115690D01*
X164515690Y-135982073D01*
X164626760Y-135829199D01*
X164712547Y-135660832D01*
X164770940Y-135481118D01*
X164800500Y-135294486D01*
X164800500Y-135149500D01*
X164820185Y-135082461D01*
X164872989Y-135036706D01*
X164924500Y-135025500D01*
X169712735Y-135025500D01*
X169779774Y-135045185D01*
X169825529Y-135097989D01*
X169836353Y-135159229D01*
X169833122Y-135200279D01*
X170302512Y-135669669D01*
X170292110Y-135673978D01*
X170185649Y-135745112D01*
X170095112Y-135835649D01*
X170023978Y-135942110D01*
X170019669Y-135952512D01*
X169550279Y-135483122D01*
X169550278Y-135483122D01*
X169488141Y-135568648D01*
X169395244Y-135750968D01*
X169332009Y-135945582D01*
X169300000Y-136147682D01*
X169300000Y-136352317D01*
X169332009Y-136554417D01*
X169395244Y-136749031D01*
X169488139Y-136931347D01*
X169550279Y-137016876D01*
X170019668Y-136547487D01*
X170023978Y-136557890D01*
X170095112Y-136664351D01*
X170185649Y-136754888D01*
X170292110Y-136826022D01*
X170302510Y-136830330D01*
X169833121Y-137299719D01*
X169833122Y-137299720D01*
X169918640Y-137361852D01*
X169918649Y-137361858D01*
X170100968Y-137454755D01*
X170295582Y-137517990D01*
X170497683Y-137550000D01*
X170702317Y-137550000D01*
X170904417Y-137517990D01*
X171099031Y-137454755D01*
X171281349Y-137361859D01*
X171366876Y-137299719D01*
X171366877Y-137299718D01*
X170897489Y-136830330D01*
X170907890Y-136826022D01*
X171014351Y-136754888D01*
X171104888Y-136664351D01*
X171176022Y-136557890D01*
X171180330Y-136547488D01*
X171649718Y-137016877D01*
X171649719Y-137016876D01*
X171711859Y-136931349D01*
X171804755Y-136749031D01*
X171867990Y-136554417D01*
X171900000Y-136352317D01*
X171900000Y-136147682D01*
X171867990Y-135945582D01*
X171804755Y-135750968D01*
X171711858Y-135568649D01*
X171711852Y-135568640D01*
X171649720Y-135483122D01*
X171649719Y-135483121D01*
X171180330Y-135952510D01*
X171176022Y-135942110D01*
X171104888Y-135835649D01*
X171014351Y-135745112D01*
X170907890Y-135673978D01*
X170897487Y-135669669D01*
X171366876Y-135200279D01*
X171363646Y-135159229D01*
X171378010Y-135090852D01*
X171427061Y-135041095D01*
X171487264Y-135025500D01*
X176295613Y-135025500D01*
X176362652Y-135045185D01*
X176383294Y-135061818D01*
X176461985Y-135140509D01*
X176461987Y-135140510D01*
X176461988Y-135140511D01*
X176587511Y-135212982D01*
X176587512Y-135212982D01*
X176587515Y-135212984D01*
X176727525Y-135250500D01*
X176727528Y-135250500D01*
X176872472Y-135250500D01*
X176872475Y-135250500D01*
X177012485Y-135212984D01*
X177138015Y-135140509D01*
X177240509Y-135038015D01*
X177312984Y-134912485D01*
X177350500Y-134772475D01*
X177350500Y-134627525D01*
X177312984Y-134487515D01*
X177272807Y-134417927D01*
X177240511Y-134361988D01*
X177240506Y-134361982D01*
X177138017Y-134259493D01*
X177138011Y-134259488D01*
X177012488Y-134187017D01*
X177012489Y-134187017D01*
X177001006Y-134183940D01*
X176872475Y-134149500D01*
X176727525Y-134149500D01*
X176598993Y-134183940D01*
X176587511Y-134187017D01*
X176461988Y-134259488D01*
X176383294Y-134338182D01*
X176321970Y-134371666D01*
X176295613Y-134374500D01*
X164523625Y-134374500D01*
X164456586Y-134354815D01*
X164435944Y-134338181D01*
X164382075Y-134284312D01*
X164382073Y-134284310D01*
X164229199Y-134173240D01*
X164060836Y-134087454D01*
X163881118Y-134029059D01*
X163694486Y-133999500D01*
X163694481Y-133999500D01*
X163505519Y-133999500D01*
X163505514Y-133999500D01*
X163318881Y-134029059D01*
X163139163Y-134087454D01*
X162970800Y-134173240D01*
X162883579Y-134236610D01*
X162817927Y-134284310D01*
X162817925Y-134284312D01*
X162817924Y-134284312D01*
X162684312Y-134417924D01*
X162684312Y-134417925D01*
X162684310Y-134417927D01*
X162636610Y-134483579D01*
X162573240Y-134570800D01*
X162487454Y-134739163D01*
X162429059Y-134918881D01*
X162399500Y-135105513D01*
X97300500Y-135105513D01*
X97300500Y-130336824D01*
X165094500Y-130336824D01*
X165094500Y-130663175D01*
X165131035Y-130987441D01*
X165131038Y-130987455D01*
X165203655Y-131305612D01*
X165203656Y-131305614D01*
X165311438Y-131613640D01*
X165453030Y-131907657D01*
X165453032Y-131907660D01*
X165626654Y-132183979D01*
X165830123Y-132439121D01*
X166060879Y-132669877D01*
X166316021Y-132873346D01*
X166592340Y-133046968D01*
X166886361Y-133188562D01*
X167194387Y-133296344D01*
X167512544Y-133368962D01*
X167512553Y-133368963D01*
X167512558Y-133368964D01*
X167728735Y-133393320D01*
X167836825Y-133405499D01*
X167836828Y-133405500D01*
X167836831Y-133405500D01*
X168163172Y-133405500D01*
X168163173Y-133405499D01*
X168328900Y-133386826D01*
X168487441Y-133368964D01*
X168487444Y-133368963D01*
X168487456Y-133368962D01*
X168805613Y-133296344D01*
X169113639Y-133188562D01*
X169407660Y-133046968D01*
X169683979Y-132873346D01*
X169939121Y-132669877D01*
X170169877Y-132439121D01*
X170373346Y-132183979D01*
X170546968Y-131907660D01*
X170688562Y-131613639D01*
X170796344Y-131305613D01*
X170868962Y-130987456D01*
X170905500Y-130663169D01*
X170905500Y-130336831D01*
X170868962Y-130012544D01*
X170796344Y-129694387D01*
X170688562Y-129386361D01*
X170546968Y-129092340D01*
X170373346Y-128816021D01*
X170169877Y-128560879D01*
X169939121Y-128330123D01*
X169683979Y-128126654D01*
X169407660Y-127953032D01*
X169407657Y-127953030D01*
X169113640Y-127811438D01*
X168805614Y-127703656D01*
X168805612Y-127703655D01*
X168560073Y-127647612D01*
X168487456Y-127631038D01*
X168487453Y-127631037D01*
X168487441Y-127631035D01*
X168163175Y-127594500D01*
X168163169Y-127594500D01*
X167836831Y-127594500D01*
X167836824Y-127594500D01*
X167512558Y-127631035D01*
X167512544Y-127631038D01*
X167194387Y-127703655D01*
X167194385Y-127703656D01*
X166886359Y-127811438D01*
X166592342Y-127953030D01*
X166316022Y-128126653D01*
X166060879Y-128330122D01*
X165830122Y-128560879D01*
X165626653Y-128816022D01*
X165453030Y-129092342D01*
X165311438Y-129386359D01*
X165203656Y-129694385D01*
X165203655Y-129694387D01*
X165131038Y-130012544D01*
X165131035Y-130012558D01*
X165094500Y-130336824D01*
X97300500Y-130336824D01*
X97300500Y-126105513D01*
X104399500Y-126105513D01*
X104399500Y-126294486D01*
X104429059Y-126481118D01*
X104487454Y-126660836D01*
X104533379Y-126750968D01*
X104573240Y-126829199D01*
X104684310Y-126982073D01*
X104817927Y-127115690D01*
X104970801Y-127226760D01*
X105050347Y-127267290D01*
X105139163Y-127312545D01*
X105139165Y-127312545D01*
X105139168Y-127312547D01*
X105235497Y-127343846D01*
X105318881Y-127370940D01*
X105505514Y-127400500D01*
X105505519Y-127400500D01*
X105694486Y-127400500D01*
X105881118Y-127370940D01*
X105938433Y-127352317D01*
X106060832Y-127312547D01*
X106229199Y-127226760D01*
X106382073Y-127115690D01*
X106515690Y-126982073D01*
X106626760Y-126829199D01*
X106712547Y-126660832D01*
X106770940Y-126481118D01*
X106800500Y-126294486D01*
X106800500Y-126105513D01*
X106778862Y-125968898D01*
X106787817Y-125899605D01*
X106832813Y-125846153D01*
X106899564Y-125825513D01*
X106901335Y-125825500D01*
X112015745Y-125825500D01*
X112082784Y-125845185D01*
X112128539Y-125897989D01*
X112138483Y-125967147D01*
X112109458Y-126030703D01*
X112072040Y-126059985D01*
X111918648Y-126138141D01*
X111833122Y-126200278D01*
X111833122Y-126200279D01*
X112302512Y-126669669D01*
X112292110Y-126673978D01*
X112185649Y-126745112D01*
X112095112Y-126835649D01*
X112023978Y-126942110D01*
X112019669Y-126952512D01*
X111550279Y-126483122D01*
X111550278Y-126483122D01*
X111488141Y-126568648D01*
X111395244Y-126750968D01*
X111332009Y-126945582D01*
X111300000Y-127147682D01*
X111300000Y-127352317D01*
X111332009Y-127554417D01*
X111395244Y-127749031D01*
X111488139Y-127931347D01*
X111550279Y-128016876D01*
X112019668Y-127547487D01*
X112023978Y-127557890D01*
X112095112Y-127664351D01*
X112185649Y-127754888D01*
X112292110Y-127826022D01*
X112302510Y-127830330D01*
X111833121Y-128299719D01*
X111833122Y-128299720D01*
X111918640Y-128361852D01*
X111918649Y-128361858D01*
X112100968Y-128454755D01*
X112295582Y-128517990D01*
X112497683Y-128550000D01*
X112702317Y-128550000D01*
X112904417Y-128517990D01*
X113099031Y-128454755D01*
X113281349Y-128361859D01*
X113366876Y-128299719D01*
X113366877Y-128299718D01*
X112897489Y-127830330D01*
X112907890Y-127826022D01*
X113014351Y-127754888D01*
X113104888Y-127664351D01*
X113176022Y-127557890D01*
X113180330Y-127547488D01*
X113649718Y-128016877D01*
X113649719Y-128016876D01*
X113711859Y-127931349D01*
X113804755Y-127749031D01*
X113867990Y-127554417D01*
X113900000Y-127352317D01*
X113900000Y-127147682D01*
X113867990Y-126945582D01*
X113804755Y-126750968D01*
X113711858Y-126568649D01*
X113711852Y-126568640D01*
X113649720Y-126483122D01*
X113649719Y-126483121D01*
X113180330Y-126952510D01*
X113176022Y-126942110D01*
X113104888Y-126835649D01*
X113014351Y-126745112D01*
X112907890Y-126673978D01*
X112897487Y-126669669D01*
X113366876Y-126200279D01*
X113281347Y-126138139D01*
X113217314Y-126105513D01*
X124399500Y-126105513D01*
X124399500Y-126294486D01*
X124429059Y-126481118D01*
X124487454Y-126660836D01*
X124533379Y-126750968D01*
X124573240Y-126829199D01*
X124684310Y-126982073D01*
X124817927Y-127115690D01*
X124970801Y-127226760D01*
X125050347Y-127267290D01*
X125139163Y-127312545D01*
X125139165Y-127312545D01*
X125139168Y-127312547D01*
X125235497Y-127343846D01*
X125318881Y-127370940D01*
X125505514Y-127400500D01*
X125505519Y-127400500D01*
X125694486Y-127400500D01*
X125881118Y-127370940D01*
X125938433Y-127352317D01*
X126060832Y-127312547D01*
X126229199Y-127226760D01*
X126382073Y-127115690D01*
X126515690Y-126982073D01*
X126626760Y-126829199D01*
X126712547Y-126660832D01*
X126770940Y-126481118D01*
X126800500Y-126294486D01*
X126800500Y-126105513D01*
X126778862Y-125968898D01*
X126787817Y-125899605D01*
X126832813Y-125846153D01*
X126899564Y-125825513D01*
X126901335Y-125825500D01*
X132015745Y-125825500D01*
X132082784Y-125845185D01*
X132128539Y-125897989D01*
X132138483Y-125967147D01*
X132109458Y-126030703D01*
X132072040Y-126059985D01*
X131918648Y-126138141D01*
X131833122Y-126200278D01*
X131833122Y-126200279D01*
X132302512Y-126669669D01*
X132292110Y-126673978D01*
X132185649Y-126745112D01*
X132095112Y-126835649D01*
X132023978Y-126942110D01*
X132019669Y-126952512D01*
X131550279Y-126483122D01*
X131550278Y-126483122D01*
X131488141Y-126568648D01*
X131395244Y-126750968D01*
X131332009Y-126945582D01*
X131300000Y-127147682D01*
X131300000Y-127352317D01*
X131332009Y-127554417D01*
X131395244Y-127749031D01*
X131488139Y-127931347D01*
X131550279Y-128016876D01*
X132019668Y-127547487D01*
X132023978Y-127557890D01*
X132095112Y-127664351D01*
X132185649Y-127754888D01*
X132292110Y-127826022D01*
X132302510Y-127830330D01*
X131833121Y-128299719D01*
X131833122Y-128299720D01*
X131918640Y-128361852D01*
X131918649Y-128361858D01*
X132100968Y-128454755D01*
X132295582Y-128517990D01*
X132497683Y-128550000D01*
X132702317Y-128550000D01*
X132904417Y-128517990D01*
X133099031Y-128454755D01*
X133281349Y-128361859D01*
X133366876Y-128299719D01*
X133366877Y-128299718D01*
X132897489Y-127830330D01*
X132907890Y-127826022D01*
X133014351Y-127754888D01*
X133104888Y-127664351D01*
X133176022Y-127557890D01*
X133180330Y-127547488D01*
X133649718Y-128016877D01*
X133649719Y-128016876D01*
X133711859Y-127931349D01*
X133804755Y-127749031D01*
X133867990Y-127554417D01*
X133900000Y-127352317D01*
X133900000Y-127147682D01*
X133867990Y-126945582D01*
X133804755Y-126750968D01*
X133711858Y-126568649D01*
X133711852Y-126568640D01*
X133649720Y-126483122D01*
X133649719Y-126483121D01*
X133180330Y-126952510D01*
X133176022Y-126942110D01*
X133104888Y-126835649D01*
X133014351Y-126745112D01*
X132907890Y-126673978D01*
X132897487Y-126669669D01*
X133366876Y-126200279D01*
X133281347Y-126138139D01*
X133217314Y-126105513D01*
X144399500Y-126105513D01*
X144399500Y-126294486D01*
X144429059Y-126481118D01*
X144487454Y-126660836D01*
X144533379Y-126750968D01*
X144573240Y-126829199D01*
X144684310Y-126982073D01*
X144817927Y-127115690D01*
X144970801Y-127226760D01*
X145050347Y-127267290D01*
X145139163Y-127312545D01*
X145139165Y-127312545D01*
X145139168Y-127312547D01*
X145235497Y-127343846D01*
X145318881Y-127370940D01*
X145505514Y-127400500D01*
X145505519Y-127400500D01*
X145694486Y-127400500D01*
X145881118Y-127370940D01*
X145938433Y-127352317D01*
X146060832Y-127312547D01*
X146229199Y-127226760D01*
X146382073Y-127115690D01*
X146515690Y-126982073D01*
X146626760Y-126829199D01*
X146712547Y-126660832D01*
X146770940Y-126481118D01*
X146800500Y-126294486D01*
X146800500Y-126105513D01*
X146778862Y-125968898D01*
X146787817Y-125899605D01*
X146832813Y-125846153D01*
X146899564Y-125825513D01*
X146901335Y-125825500D01*
X152015745Y-125825500D01*
X152082784Y-125845185D01*
X152128539Y-125897989D01*
X152138483Y-125967147D01*
X152109458Y-126030703D01*
X152072040Y-126059985D01*
X151918648Y-126138141D01*
X151833122Y-126200278D01*
X151833122Y-126200279D01*
X152302512Y-126669669D01*
X152292110Y-126673978D01*
X152185649Y-126745112D01*
X152095112Y-126835649D01*
X152023978Y-126942110D01*
X152019669Y-126952512D01*
X151550279Y-126483122D01*
X151550278Y-126483122D01*
X151488141Y-126568648D01*
X151395244Y-126750968D01*
X151332009Y-126945582D01*
X151300000Y-127147682D01*
X151300000Y-127352317D01*
X151332009Y-127554417D01*
X151395244Y-127749031D01*
X151488139Y-127931347D01*
X151550279Y-128016876D01*
X152019668Y-127547487D01*
X152023978Y-127557890D01*
X152095112Y-127664351D01*
X152185649Y-127754888D01*
X152292110Y-127826022D01*
X152302510Y-127830330D01*
X151833121Y-128299719D01*
X151833122Y-128299720D01*
X151918640Y-128361852D01*
X151918649Y-128361858D01*
X152100968Y-128454755D01*
X152295582Y-128517990D01*
X152497683Y-128550000D01*
X152702317Y-128550000D01*
X152904417Y-128517990D01*
X153099031Y-128454755D01*
X153281349Y-128361859D01*
X153366876Y-128299719D01*
X153366877Y-128299718D01*
X152897489Y-127830330D01*
X152907890Y-127826022D01*
X153014351Y-127754888D01*
X153104888Y-127664351D01*
X153176022Y-127557890D01*
X153180330Y-127547488D01*
X153649718Y-128016877D01*
X153649719Y-128016876D01*
X153711859Y-127931349D01*
X153804755Y-127749031D01*
X153867990Y-127554417D01*
X153900000Y-127352317D01*
X153900000Y-127147682D01*
X153867990Y-126945582D01*
X153804755Y-126750968D01*
X153711858Y-126568649D01*
X153711852Y-126568640D01*
X153649720Y-126483122D01*
X153649719Y-126483121D01*
X153180330Y-126952510D01*
X153176022Y-126942110D01*
X153104888Y-126835649D01*
X153014351Y-126745112D01*
X152907890Y-126673978D01*
X152897487Y-126669669D01*
X153366876Y-126200279D01*
X153281347Y-126138139D01*
X153127960Y-126059985D01*
X153077164Y-126012010D01*
X153060369Y-125944189D01*
X153082906Y-125878055D01*
X153137621Y-125834603D01*
X153184255Y-125825500D01*
X158095613Y-125825500D01*
X158162652Y-125845185D01*
X158183294Y-125861818D01*
X158261985Y-125940509D01*
X158261987Y-125940510D01*
X158261988Y-125940511D01*
X158387511Y-126012982D01*
X158387512Y-126012982D01*
X158387515Y-126012984D01*
X158527525Y-126050500D01*
X158527528Y-126050500D01*
X158672472Y-126050500D01*
X158672475Y-126050500D01*
X158812485Y-126012984D01*
X158938015Y-125940509D01*
X159040509Y-125838015D01*
X159112984Y-125712485D01*
X159150500Y-125572475D01*
X159150500Y-125427525D01*
X159112984Y-125287515D01*
X159046098Y-125171666D01*
X159040511Y-125161988D01*
X159040506Y-125161982D01*
X158938017Y-125059493D01*
X158938011Y-125059488D01*
X158812488Y-124987017D01*
X158812489Y-124987017D01*
X158801006Y-124983940D01*
X158672475Y-124949500D01*
X158527525Y-124949500D01*
X158398993Y-124983940D01*
X158387511Y-124987017D01*
X158261988Y-125059488D01*
X158183294Y-125138182D01*
X158121970Y-125171666D01*
X158095613Y-125174500D01*
X146261442Y-125174500D01*
X146205147Y-125160985D01*
X146060836Y-125087454D01*
X145881118Y-125029059D01*
X145694486Y-124999500D01*
X145694481Y-124999500D01*
X145505519Y-124999500D01*
X145505514Y-124999500D01*
X145318881Y-125029059D01*
X145139163Y-125087454D01*
X144970800Y-125173240D01*
X144883579Y-125236610D01*
X144817927Y-125284310D01*
X144817925Y-125284312D01*
X144817924Y-125284312D01*
X144684312Y-125417924D01*
X144684312Y-125417925D01*
X144684310Y-125417927D01*
X144636610Y-125483579D01*
X144573240Y-125570800D01*
X144487454Y-125739163D01*
X144429059Y-125918881D01*
X144399500Y-126105513D01*
X133217314Y-126105513D01*
X133127960Y-126059985D01*
X133077164Y-126012010D01*
X133060369Y-125944189D01*
X133082906Y-125878055D01*
X133137621Y-125834603D01*
X133184255Y-125825500D01*
X138095613Y-125825500D01*
X138162652Y-125845185D01*
X138183294Y-125861818D01*
X138261985Y-125940509D01*
X138261987Y-125940510D01*
X138261988Y-125940511D01*
X138387511Y-126012982D01*
X138387512Y-126012982D01*
X138387515Y-126012984D01*
X138527525Y-126050500D01*
X138527528Y-126050500D01*
X138672472Y-126050500D01*
X138672475Y-126050500D01*
X138812485Y-126012984D01*
X138938015Y-125940509D01*
X139040509Y-125838015D01*
X139112984Y-125712485D01*
X139150500Y-125572475D01*
X139150500Y-125427525D01*
X139112984Y-125287515D01*
X139046098Y-125171666D01*
X139040511Y-125161988D01*
X139040506Y-125161982D01*
X138938017Y-125059493D01*
X138938011Y-125059488D01*
X138812488Y-124987017D01*
X138812489Y-124987017D01*
X138801006Y-124983940D01*
X138672475Y-124949500D01*
X138527525Y-124949500D01*
X138398993Y-124983940D01*
X138387511Y-124987017D01*
X138261988Y-125059488D01*
X138183294Y-125138182D01*
X138121970Y-125171666D01*
X138095613Y-125174500D01*
X126261442Y-125174500D01*
X126205147Y-125160985D01*
X126060836Y-125087454D01*
X125881118Y-125029059D01*
X125694486Y-124999500D01*
X125694481Y-124999500D01*
X125505519Y-124999500D01*
X125505514Y-124999500D01*
X125318881Y-125029059D01*
X125139163Y-125087454D01*
X124970800Y-125173240D01*
X124883579Y-125236610D01*
X124817927Y-125284310D01*
X124817925Y-125284312D01*
X124817924Y-125284312D01*
X124684312Y-125417924D01*
X124684312Y-125417925D01*
X124684310Y-125417927D01*
X124636610Y-125483579D01*
X124573240Y-125570800D01*
X124487454Y-125739163D01*
X124429059Y-125918881D01*
X124399500Y-126105513D01*
X113217314Y-126105513D01*
X113127960Y-126059985D01*
X113077164Y-126012010D01*
X113060369Y-125944189D01*
X113082906Y-125878055D01*
X113137621Y-125834603D01*
X113184255Y-125825500D01*
X118095613Y-125825500D01*
X118162652Y-125845185D01*
X118183294Y-125861818D01*
X118261985Y-125940509D01*
X118261987Y-125940510D01*
X118261988Y-125940511D01*
X118387511Y-126012982D01*
X118387512Y-126012982D01*
X118387515Y-126012984D01*
X118527525Y-126050500D01*
X118527528Y-126050500D01*
X118672472Y-126050500D01*
X118672475Y-126050500D01*
X118812485Y-126012984D01*
X118938015Y-125940509D01*
X119040509Y-125838015D01*
X119112984Y-125712485D01*
X119150500Y-125572475D01*
X119150500Y-125427525D01*
X119112984Y-125287515D01*
X119046098Y-125171666D01*
X119040511Y-125161988D01*
X119040506Y-125161982D01*
X118938017Y-125059493D01*
X118938011Y-125059488D01*
X118812488Y-124987017D01*
X118812489Y-124987017D01*
X118801006Y-124983940D01*
X118672475Y-124949500D01*
X118527525Y-124949500D01*
X118398993Y-124983940D01*
X118387511Y-124987017D01*
X118261988Y-125059488D01*
X118183294Y-125138182D01*
X118121970Y-125171666D01*
X118095613Y-125174500D01*
X106261442Y-125174500D01*
X106205147Y-125160985D01*
X106060836Y-125087454D01*
X105881118Y-125029059D01*
X105694486Y-124999500D01*
X105694481Y-124999500D01*
X105505519Y-124999500D01*
X105505514Y-124999500D01*
X105318881Y-125029059D01*
X105139163Y-125087454D01*
X104970800Y-125173240D01*
X104883579Y-125236610D01*
X104817927Y-125284310D01*
X104817925Y-125284312D01*
X104817924Y-125284312D01*
X104684312Y-125417924D01*
X104684312Y-125417925D01*
X104684310Y-125417927D01*
X104636610Y-125483579D01*
X104573240Y-125570800D01*
X104487454Y-125739163D01*
X104429059Y-125918881D01*
X104399500Y-126105513D01*
X97300500Y-126105513D01*
X97300500Y-121336824D01*
X107094500Y-121336824D01*
X107094500Y-121663175D01*
X107131035Y-121987441D01*
X107131038Y-121987455D01*
X107203655Y-122305612D01*
X107203656Y-122305614D01*
X107311438Y-122613640D01*
X107453030Y-122907657D01*
X107453032Y-122907660D01*
X107626654Y-123183979D01*
X107830123Y-123439121D01*
X108060879Y-123669877D01*
X108316021Y-123873346D01*
X108592340Y-124046968D01*
X108886361Y-124188562D01*
X109194387Y-124296344D01*
X109512544Y-124368962D01*
X109512553Y-124368963D01*
X109512558Y-124368964D01*
X109728735Y-124393320D01*
X109836825Y-124405499D01*
X109836828Y-124405500D01*
X109836831Y-124405500D01*
X110163172Y-124405500D01*
X110163173Y-124405499D01*
X110328900Y-124386826D01*
X110487441Y-124368964D01*
X110487444Y-124368963D01*
X110487456Y-124368962D01*
X110805613Y-124296344D01*
X111113639Y-124188562D01*
X111407660Y-124046968D01*
X111683979Y-123873346D01*
X111939121Y-123669877D01*
X112169877Y-123439121D01*
X112373346Y-123183979D01*
X112546968Y-122907660D01*
X112688562Y-122613639D01*
X112796344Y-122305613D01*
X112868962Y-121987456D01*
X112905500Y-121663169D01*
X112905500Y-121336831D01*
X112905499Y-121336824D01*
X127094500Y-121336824D01*
X127094500Y-121663175D01*
X127131035Y-121987441D01*
X127131038Y-121987455D01*
X127203655Y-122305612D01*
X127203656Y-122305614D01*
X127311438Y-122613640D01*
X127453030Y-122907657D01*
X127453032Y-122907660D01*
X127626654Y-123183979D01*
X127830123Y-123439121D01*
X128060879Y-123669877D01*
X128316021Y-123873346D01*
X128592340Y-124046968D01*
X128886361Y-124188562D01*
X129194387Y-124296344D01*
X129512544Y-124368962D01*
X129512553Y-124368963D01*
X129512558Y-124368964D01*
X129728735Y-124393320D01*
X129836825Y-124405499D01*
X129836828Y-124405500D01*
X129836831Y-124405500D01*
X130163172Y-124405500D01*
X130163173Y-124405499D01*
X130328900Y-124386826D01*
X130487441Y-124368964D01*
X130487444Y-124368963D01*
X130487456Y-124368962D01*
X130805613Y-124296344D01*
X131113639Y-124188562D01*
X131407660Y-124046968D01*
X131683979Y-123873346D01*
X131939121Y-123669877D01*
X132169877Y-123439121D01*
X132373346Y-123183979D01*
X132546968Y-122907660D01*
X132688562Y-122613639D01*
X132796344Y-122305613D01*
X132868962Y-121987456D01*
X132905500Y-121663169D01*
X132905500Y-121336831D01*
X132905499Y-121336824D01*
X147094500Y-121336824D01*
X147094500Y-121663175D01*
X147131035Y-121987441D01*
X147131038Y-121987455D01*
X147203655Y-122305612D01*
X147203656Y-122305614D01*
X147311438Y-122613640D01*
X147453030Y-122907657D01*
X147453032Y-122907660D01*
X147626654Y-123183979D01*
X147830123Y-123439121D01*
X148060879Y-123669877D01*
X148316021Y-123873346D01*
X148592340Y-124046968D01*
X148886361Y-124188562D01*
X149194387Y-124296344D01*
X149512544Y-124368962D01*
X149512553Y-124368963D01*
X149512558Y-124368964D01*
X149728735Y-124393320D01*
X149836825Y-124405499D01*
X149836828Y-124405500D01*
X149836831Y-124405500D01*
X150163172Y-124405500D01*
X150163173Y-124405499D01*
X150328900Y-124386826D01*
X150487441Y-124368964D01*
X150487444Y-124368963D01*
X150487456Y-124368962D01*
X150805613Y-124296344D01*
X151113639Y-124188562D01*
X151407660Y-124046968D01*
X151683979Y-123873346D01*
X151939121Y-123669877D01*
X152169877Y-123439121D01*
X152373346Y-123183979D01*
X152546968Y-122907660D01*
X152688562Y-122613639D01*
X152796344Y-122305613D01*
X152868962Y-121987456D01*
X152905500Y-121663169D01*
X152905500Y-121336831D01*
X152868962Y-121012544D01*
X152796344Y-120694387D01*
X152688562Y-120386361D01*
X152546968Y-120092340D01*
X152373346Y-119816021D01*
X152169877Y-119560879D01*
X151939121Y-119330123D01*
X151683979Y-119126654D01*
X151407660Y-118953032D01*
X151407657Y-118953030D01*
X151113640Y-118811438D01*
X150805614Y-118703656D01*
X150805612Y-118703655D01*
X150560073Y-118647612D01*
X150487456Y-118631038D01*
X150487453Y-118631037D01*
X150487441Y-118631035D01*
X150163175Y-118594500D01*
X150163169Y-118594500D01*
X149836831Y-118594500D01*
X149836824Y-118594500D01*
X149512558Y-118631035D01*
X149512544Y-118631038D01*
X149194387Y-118703655D01*
X149194385Y-118703656D01*
X148886359Y-118811438D01*
X148592342Y-118953030D01*
X148316022Y-119126653D01*
X148060879Y-119330122D01*
X147830122Y-119560879D01*
X147626653Y-119816022D01*
X147453030Y-120092342D01*
X147311438Y-120386359D01*
X147203656Y-120694385D01*
X147203655Y-120694387D01*
X147131038Y-121012544D01*
X147131035Y-121012558D01*
X147094500Y-121336824D01*
X132905499Y-121336824D01*
X132868962Y-121012544D01*
X132796344Y-120694387D01*
X132688562Y-120386361D01*
X132546968Y-120092340D01*
X132373346Y-119816021D01*
X132169877Y-119560879D01*
X131939121Y-119330123D01*
X131683979Y-119126654D01*
X131407660Y-118953032D01*
X131407657Y-118953030D01*
X131113640Y-118811438D01*
X130805614Y-118703656D01*
X130805612Y-118703655D01*
X130560073Y-118647612D01*
X130487456Y-118631038D01*
X130487453Y-118631037D01*
X130487441Y-118631035D01*
X130163175Y-118594500D01*
X130163169Y-118594500D01*
X129836831Y-118594500D01*
X129836824Y-118594500D01*
X129512558Y-118631035D01*
X129512544Y-118631038D01*
X129194387Y-118703655D01*
X129194385Y-118703656D01*
X128886359Y-118811438D01*
X128592342Y-118953030D01*
X128316022Y-119126653D01*
X128060879Y-119330122D01*
X127830122Y-119560879D01*
X127626653Y-119816022D01*
X127453030Y-120092342D01*
X127311438Y-120386359D01*
X127203656Y-120694385D01*
X127203655Y-120694387D01*
X127131038Y-121012544D01*
X127131035Y-121012558D01*
X127094500Y-121336824D01*
X112905499Y-121336824D01*
X112868962Y-121012544D01*
X112796344Y-120694387D01*
X112688562Y-120386361D01*
X112546968Y-120092340D01*
X112373346Y-119816021D01*
X112169877Y-119560879D01*
X111939121Y-119330123D01*
X111683979Y-119126654D01*
X111407660Y-118953032D01*
X111407657Y-118953030D01*
X111113640Y-118811438D01*
X110805614Y-118703656D01*
X110805612Y-118703655D01*
X110560073Y-118647612D01*
X110487456Y-118631038D01*
X110487453Y-118631037D01*
X110487441Y-118631035D01*
X110163175Y-118594500D01*
X110163169Y-118594500D01*
X109836831Y-118594500D01*
X109836824Y-118594500D01*
X109512558Y-118631035D01*
X109512544Y-118631038D01*
X109194387Y-118703655D01*
X109194385Y-118703656D01*
X108886359Y-118811438D01*
X108592342Y-118953030D01*
X108316022Y-119126653D01*
X108060879Y-119330122D01*
X107830122Y-119560879D01*
X107626653Y-119816022D01*
X107453030Y-120092342D01*
X107311438Y-120386359D01*
X107203656Y-120694385D01*
X107203655Y-120694387D01*
X107131038Y-121012544D01*
X107131035Y-121012558D01*
X107094500Y-121336824D01*
X97300500Y-121336824D01*
X97300500Y-117105513D01*
X162399500Y-117105513D01*
X162399500Y-117294486D01*
X162429059Y-117481118D01*
X162487454Y-117660836D01*
X162533379Y-117750968D01*
X162573240Y-117829199D01*
X162684310Y-117982073D01*
X162817927Y-118115690D01*
X162970801Y-118226760D01*
X163050347Y-118267290D01*
X163139163Y-118312545D01*
X163139165Y-118312545D01*
X163139168Y-118312547D01*
X163235497Y-118343846D01*
X163318881Y-118370940D01*
X163505514Y-118400500D01*
X163505519Y-118400500D01*
X163694486Y-118400500D01*
X163881118Y-118370940D01*
X163938433Y-118352317D01*
X164060832Y-118312547D01*
X164229199Y-118226760D01*
X164382073Y-118115690D01*
X164515690Y-117982073D01*
X164626760Y-117829199D01*
X164712547Y-117660832D01*
X164770940Y-117481118D01*
X164800500Y-117294486D01*
X164800500Y-117105513D01*
X164778862Y-116968898D01*
X164787817Y-116899605D01*
X164832813Y-116846153D01*
X164899564Y-116825513D01*
X164901335Y-116825500D01*
X170015745Y-116825500D01*
X170082784Y-116845185D01*
X170128539Y-116897989D01*
X170138483Y-116967147D01*
X170109458Y-117030703D01*
X170072040Y-117059985D01*
X169918648Y-117138141D01*
X169833122Y-117200278D01*
X169833122Y-117200279D01*
X170302512Y-117669669D01*
X170292110Y-117673978D01*
X170185649Y-117745112D01*
X170095112Y-117835649D01*
X170023978Y-117942110D01*
X170019669Y-117952512D01*
X169550279Y-117483122D01*
X169550278Y-117483122D01*
X169488141Y-117568648D01*
X169395244Y-117750968D01*
X169332009Y-117945582D01*
X169300000Y-118147682D01*
X169300000Y-118352317D01*
X169332009Y-118554417D01*
X169395244Y-118749031D01*
X169488139Y-118931347D01*
X169550279Y-119016876D01*
X170019668Y-118547487D01*
X170023978Y-118557890D01*
X170095112Y-118664351D01*
X170185649Y-118754888D01*
X170292110Y-118826022D01*
X170302510Y-118830330D01*
X169833121Y-119299719D01*
X169833122Y-119299720D01*
X169918640Y-119361852D01*
X169918649Y-119361858D01*
X170100968Y-119454755D01*
X170295582Y-119517990D01*
X170497683Y-119550000D01*
X170702317Y-119550000D01*
X170904417Y-119517990D01*
X171099031Y-119454755D01*
X171281349Y-119361859D01*
X171366876Y-119299719D01*
X171366877Y-119299718D01*
X170897489Y-118830330D01*
X170907890Y-118826022D01*
X171014351Y-118754888D01*
X171104888Y-118664351D01*
X171176022Y-118557890D01*
X171180330Y-118547488D01*
X171649718Y-119016877D01*
X171649719Y-119016876D01*
X171711859Y-118931349D01*
X171804755Y-118749031D01*
X171867990Y-118554417D01*
X171900000Y-118352317D01*
X171900000Y-118147682D01*
X171867990Y-117945582D01*
X171804755Y-117750968D01*
X171711858Y-117568649D01*
X171711852Y-117568640D01*
X171649720Y-117483122D01*
X171649719Y-117483121D01*
X171180330Y-117952510D01*
X171176022Y-117942110D01*
X171104888Y-117835649D01*
X171014351Y-117745112D01*
X170907890Y-117673978D01*
X170897487Y-117669669D01*
X171366876Y-117200279D01*
X171281347Y-117138139D01*
X171127960Y-117059985D01*
X171077164Y-117012010D01*
X171060369Y-116944189D01*
X171082906Y-116878055D01*
X171137621Y-116834603D01*
X171184255Y-116825500D01*
X176095613Y-116825500D01*
X176162652Y-116845185D01*
X176183294Y-116861818D01*
X176261985Y-116940509D01*
X176261987Y-116940510D01*
X176261988Y-116940511D01*
X176387511Y-117012982D01*
X176387512Y-117012982D01*
X176387515Y-117012984D01*
X176527525Y-117050500D01*
X176527528Y-117050500D01*
X176672472Y-117050500D01*
X176672475Y-117050500D01*
X176812485Y-117012984D01*
X176938015Y-116940509D01*
X177040509Y-116838015D01*
X177112984Y-116712485D01*
X177150500Y-116572475D01*
X177150500Y-116427525D01*
X177112984Y-116287515D01*
X177046098Y-116171666D01*
X177040511Y-116161988D01*
X177040506Y-116161982D01*
X176938017Y-116059493D01*
X176938011Y-116059488D01*
X176812488Y-115987017D01*
X176812489Y-115987017D01*
X176801006Y-115983940D01*
X176672475Y-115949500D01*
X176527525Y-115949500D01*
X176398993Y-115983940D01*
X176387511Y-115987017D01*
X176261988Y-116059488D01*
X176183294Y-116138182D01*
X176121970Y-116171666D01*
X176095613Y-116174500D01*
X164261442Y-116174500D01*
X164205147Y-116160985D01*
X164060836Y-116087454D01*
X163881118Y-116029059D01*
X163694486Y-115999500D01*
X163694481Y-115999500D01*
X163505519Y-115999500D01*
X163505514Y-115999500D01*
X163318881Y-116029059D01*
X163139163Y-116087454D01*
X162970800Y-116173240D01*
X162883579Y-116236610D01*
X162817927Y-116284310D01*
X162817925Y-116284312D01*
X162817924Y-116284312D01*
X162684312Y-116417924D01*
X162684312Y-116417925D01*
X162684310Y-116417927D01*
X162636610Y-116483579D01*
X162573240Y-116570800D01*
X162487454Y-116739163D01*
X162429059Y-116918881D01*
X162399500Y-117105513D01*
X97300500Y-117105513D01*
X97300500Y-103500000D01*
X97550000Y-103500000D01*
X97597075Y-103977969D01*
X97736496Y-104437578D01*
X97962895Y-104861141D01*
X97962899Y-104861148D01*
X98267587Y-105232411D01*
X98638850Y-105537099D01*
X98638857Y-105537103D01*
X99062420Y-105763502D01*
X99062422Y-105763502D01*
X99062425Y-105763504D01*
X99522028Y-105902923D01*
X99522027Y-105902923D01*
X99569104Y-105907559D01*
X100000000Y-105950000D01*
X100477971Y-105902923D01*
X100937574Y-105763504D01*
X101361147Y-105537100D01*
X101732411Y-105232411D01*
X102037100Y-104861147D01*
X102194627Y-104566435D01*
X102263502Y-104437578D01*
X102263502Y-104437577D01*
X102263504Y-104437574D01*
X102402923Y-103977971D01*
X102450000Y-103500000D01*
X102402923Y-103022028D01*
X102263504Y-102562425D01*
X102263502Y-102562422D01*
X102263502Y-102562420D01*
X102037103Y-102138857D01*
X102037099Y-102138850D01*
X101732411Y-101767587D01*
X101361148Y-101462899D01*
X101361141Y-101462895D01*
X100937578Y-101236496D01*
X100606797Y-101136155D01*
X100477971Y-101097076D01*
X100477969Y-101097075D01*
X100477971Y-101097075D01*
X100000000Y-101050000D01*
X99522029Y-101097075D01*
X99062420Y-101236496D01*
X98638857Y-101462895D01*
X98638850Y-101462899D01*
X98267587Y-101767587D01*
X97962899Y-102138850D01*
X97962895Y-102138857D01*
X97736496Y-102562420D01*
X97597075Y-103022029D01*
X97550000Y-103500000D01*
X97300500Y-103500000D01*
X97300500Y-101516660D01*
X97300882Y-101506939D01*
X97307127Y-101427525D01*
X97309247Y-101400562D01*
X97312300Y-101381300D01*
X97333396Y-101293583D01*
X97339374Y-101275183D01*
X97373866Y-101191829D01*
X97382709Y-101174469D01*
X97429760Y-101097695D01*
X97441181Y-101081975D01*
X97499722Y-101013440D01*
X97513440Y-100999722D01*
X97581975Y-100941181D01*
X97597695Y-100929760D01*
X97674469Y-100882709D01*
X97691829Y-100873866D01*
X97775183Y-100839374D01*
X97793583Y-100833396D01*
X97881300Y-100812300D01*
X97900562Y-100809247D01*
X97982366Y-100802814D01*
X98006940Y-100800882D01*
X98016661Y-100800500D01*
X129247796Y-100800500D01*
X129314835Y-100820185D01*
G37*
%TD.AperFunction*%
%TA.AperFunction,Conductor*%
G36*
X131583852Y-108755095D02*
G01*
X131629930Y-108834905D01*
X131695095Y-108900070D01*
X131774905Y-108946148D01*
X131847296Y-108965545D01*
X131557842Y-109255000D01*
X131847296Y-109544454D01*
X131774905Y-109563852D01*
X131695095Y-109609930D01*
X131629930Y-109675095D01*
X131583852Y-109754905D01*
X131564454Y-109827296D01*
X131318442Y-109581284D01*
X131295292Y-109546637D01*
X131294660Y-109546976D01*
X131291790Y-109541607D01*
X131211300Y-109421146D01*
X131211297Y-109421142D01*
X131132836Y-109342681D01*
X131128497Y-109334735D01*
X131121250Y-109329310D01*
X131112015Y-109304550D01*
X131099351Y-109281358D01*
X131099996Y-109272328D01*
X131096833Y-109263846D01*
X131102449Y-109238025D01*
X131104335Y-109211666D01*
X131110153Y-109202612D01*
X131111685Y-109195573D01*
X131132836Y-109167319D01*
X131184198Y-109115957D01*
X131211297Y-109088857D01*
X131211300Y-109088854D01*
X131291792Y-108968390D01*
X131291795Y-108968381D01*
X131294665Y-108963015D01*
X131295300Y-108963354D01*
X131318443Y-108928712D01*
X131564454Y-108682701D01*
X131583852Y-108755095D01*
G37*
%TD.AperFunction*%
%TA.AperFunction,Conductor*%
G36*
X131583852Y-107485095D02*
G01*
X131629930Y-107564905D01*
X131695095Y-107630070D01*
X131774905Y-107676148D01*
X131847296Y-107695545D01*
X131557842Y-107985000D01*
X131847296Y-108274454D01*
X131774905Y-108293852D01*
X131695095Y-108339930D01*
X131629930Y-108405095D01*
X131583852Y-108484905D01*
X131564454Y-108557296D01*
X131318442Y-108311284D01*
X131295292Y-108276637D01*
X131294660Y-108276976D01*
X131291790Y-108271607D01*
X131211300Y-108151146D01*
X131211297Y-108151142D01*
X131132836Y-108072681D01*
X131128497Y-108064735D01*
X131121250Y-108059310D01*
X131112015Y-108034550D01*
X131099351Y-108011358D01*
X131099996Y-108002328D01*
X131096833Y-107993846D01*
X131102449Y-107968025D01*
X131104335Y-107941666D01*
X131110153Y-107932612D01*
X131111685Y-107925573D01*
X131132836Y-107897319D01*
X131184198Y-107845957D01*
X131211297Y-107818857D01*
X131211300Y-107818854D01*
X131291792Y-107698390D01*
X131291795Y-107698381D01*
X131294665Y-107693015D01*
X131295300Y-107693354D01*
X131318443Y-107658712D01*
X131564454Y-107412701D01*
X131583852Y-107485095D01*
G37*
%TD.AperFunction*%
%TA.AperFunction,Conductor*%
G36*
X131583852Y-106215095D02*
G01*
X131629930Y-106294905D01*
X131695095Y-106360070D01*
X131774905Y-106406148D01*
X131847296Y-106425545D01*
X131557842Y-106715000D01*
X131847296Y-107004454D01*
X131774905Y-107023852D01*
X131695095Y-107069930D01*
X131629930Y-107135095D01*
X131583852Y-107214905D01*
X131564454Y-107287296D01*
X131318442Y-107041284D01*
X131295292Y-107006637D01*
X131294660Y-107006976D01*
X131291790Y-107001607D01*
X131211300Y-106881146D01*
X131211297Y-106881142D01*
X131132836Y-106802681D01*
X131128497Y-106794735D01*
X131121250Y-106789310D01*
X131112015Y-106764550D01*
X131099351Y-106741358D01*
X131099996Y-106732328D01*
X131096833Y-106723846D01*
X131102449Y-106698025D01*
X131104335Y-106671666D01*
X131110153Y-106662612D01*
X131111685Y-106655573D01*
X131132836Y-106627319D01*
X131184198Y-106575957D01*
X131211297Y-106548857D01*
X131211300Y-106548854D01*
X131291792Y-106428390D01*
X131291795Y-106428381D01*
X131294665Y-106423015D01*
X131295300Y-106423354D01*
X131318443Y-106388712D01*
X131564454Y-106142701D01*
X131583852Y-106215095D01*
G37*
%TD.AperFunction*%
%TA.AperFunction,Conductor*%
G36*
X131583852Y-104945095D02*
G01*
X131629930Y-105024905D01*
X131695095Y-105090070D01*
X131774905Y-105136148D01*
X131847296Y-105155545D01*
X131557842Y-105445000D01*
X131847296Y-105734454D01*
X131774905Y-105753852D01*
X131695095Y-105799930D01*
X131629930Y-105865095D01*
X131583852Y-105944905D01*
X131564454Y-106017296D01*
X131318442Y-105771284D01*
X131295292Y-105736637D01*
X131294660Y-105736976D01*
X131291790Y-105731607D01*
X131211300Y-105611146D01*
X131211297Y-105611142D01*
X131132836Y-105532681D01*
X131128497Y-105524735D01*
X131121250Y-105519310D01*
X131112015Y-105494550D01*
X131099351Y-105471358D01*
X131099996Y-105462328D01*
X131096833Y-105453846D01*
X131102449Y-105428025D01*
X131104335Y-105401666D01*
X131110153Y-105392612D01*
X131111685Y-105385573D01*
X131132836Y-105357319D01*
X131184198Y-105305957D01*
X131211297Y-105278857D01*
X131211300Y-105278854D01*
X131291792Y-105158390D01*
X131291795Y-105158381D01*
X131294665Y-105153015D01*
X131295300Y-105153354D01*
X131318443Y-105118713D01*
X131564454Y-104872702D01*
X131583852Y-104945095D01*
G37*
%TD.AperFunction*%
%TD*%
M02*
