%TF.GenerationSoftware,KiCad,Pcbnew,9.0.9-9.0.9~ubuntu24.04.1*%
%TF.CreationDate,2026-09-27T14:39:15+00:00*%
%TF.ProjectId,key-board-lh,6b65792d-626f-4617-9264-2d6c682e6b69,rev?*%
%TF.SameCoordinates,Original*%
%TF.FileFunction,Copper,L2,Bot*%
%TF.FilePolarity,Positive*%
%FSLAX46Y46*%
G04 Gerber Fmt 4.6, Leading zero omitted, Abs format (unit mm)*
G04 Created by KiCad (PCBNEW 9.0.9-9.0.9~ubuntu24.04.1) date 2026-09-27 14:39:15*
%MOMM*%
%LPD*%
G01*
G04 APERTURE LIST*
G04 Aperture macros list*
%AMRoundRect*
0 Rectangle with rounded corners*
0 $1 Rounding radius*
0 $2 $3 $4 $5 $6 $7 $8 $9 X,Y pos of 4 corners*
0 Add a 4 corners polygon primitive as box body*
4,1,4,$2,$3,$4,$5,$6,$7,$8,$9,$2,$3,0*
0 Add four circle primitives for the rounded corners*
1,1,$1+$1,$2,$3*
1,1,$1+$1,$4,$5*
1,1,$1+$1,$6,$7*
1,1,$1+$1,$8,$9*
0 Add four rect primitives between the rounded corners*
20,1,$1+$1,$2,$3,$4,$5,0*
20,1,$1+$1,$4,$5,$6,$7,0*
20,1,$1+$1,$6,$7,$8,$9,0*
20,1,$1+$1,$8,$9,$2,$3,0*%
G04 Aperture macros list end*
%TA.AperFunction,ComponentPad*%
%ADD10C,2.000000*%
%TD*%
%TA.AperFunction,SMDPad,CuDef*%
%ADD11C,1.000000*%
%TD*%
%TA.AperFunction,SMDPad,CuDef*%
%ADD12RoundRect,0.250000X-0.262500X-0.450000X0.262500X-0.450000X0.262500X0.450000X-0.262500X0.450000X0*%
%TD*%
%TA.AperFunction,SMDPad,CuDef*%
%ADD13RoundRect,0.250000X-0.250000X-0.475000X0.250000X-0.475000X0.250000X0.475000X-0.250000X0.475000X0*%
%TD*%
%TA.AperFunction,SMDPad,CuDef*%
%ADD14RoundRect,0.250000X0.475000X-0.250000X0.475000X0.250000X-0.475000X0.250000X-0.475000X-0.250000X0*%
%TD*%
%TA.AperFunction,SMDPad,CuDef*%
%ADD15RoundRect,0.150000X0.150000X-0.825000X0.150000X0.825000X-0.150000X0.825000X-0.150000X-0.825000X0*%
%TD*%
%TA.AperFunction,SMDPad,CuDef*%
%ADD16RoundRect,0.250000X0.450000X-0.262500X0.450000X0.262500X-0.450000X0.262500X-0.450000X-0.262500X0*%
%TD*%
%TA.AperFunction,ComponentPad*%
%ADD17R,1.050000X1.050000*%
%TD*%
%TA.AperFunction,ComponentPad*%
%ADD18C,1.050000*%
%TD*%
%TA.AperFunction,ViaPad*%
%ADD19C,0.700000*%
%TD*%
%TA.AperFunction,Conductor*%
%ADD20C,0.250000*%
%TD*%
%TA.AperFunction,Conductor*%
%ADD21C,0.400000*%
%TD*%
G04 APERTURE END LIST*
D10*
%TO.P,SW-LH2,1*%
%TO.N,/LH2/SWITCH_LEG*%
X125600000Y-126200000D03*
%TO.P,SW-LH2,2*%
%TO.N,GND_CHAIN*%
X132600000Y-127250000D03*
%TD*%
%TO.P,SW-LH1,1*%
%TO.N,/LH1/SWITCH_LEG*%
X105600000Y-126200000D03*
%TO.P,SW-LH1,2*%
%TO.N,GND_CHAIN*%
X112600000Y-127250000D03*
%TD*%
%TO.P,SW-LH4,1*%
%TO.N,/LH4/SWITCH_LEG*%
X163600000Y-135200000D03*
%TO.P,SW-LH4,2*%
%TO.N,GND_CHAIN*%
X170600000Y-136250000D03*
%TD*%
%TO.P,SW-LH5,1*%
%TO.N,/LH5/SWITCH_LEG*%
X163600000Y-117200000D03*
%TO.P,SW-LH5,2*%
%TO.N,GND_CHAIN*%
X170600000Y-118250000D03*
%TD*%
%TO.P,SW-LH3,1*%
%TO.N,/LH3/SWITCH_LEG*%
X145600000Y-126200000D03*
%TO.P,SW-LH3,2*%
%TO.N,GND_CHAIN*%
X152600000Y-127250000D03*
%TD*%
D11*
%TO.P,TP-SCK-LH,1*%
%TO.N,/CHAIN_SCK*%
X152000000Y-112500000D03*
%TD*%
D12*
%TO.P,R-KEY-SER-LH4,1*%
%TO.N,/KEY_LH4*%
X165087500Y-123000000D03*
%TO.P,R-KEY-SER-LH4,2*%
%TO.N,/LH4/SWITCH_LEG*%
X166912500Y-123000000D03*
%TD*%
%TO.P,R-KEY-SER-LH2,1*%
%TO.N,/KEY_LH2*%
X129087500Y-132500000D03*
%TO.P,R-KEY-SER-LH2,2*%
%TO.N,/LH2/SWITCH_LEG*%
X130912500Y-132500000D03*
%TD*%
%TO.P,R-KEY-PU-LH1,1*%
%TO.N,V3V3_CHAIN_LH*%
X113087500Y-115500000D03*
%TO.P,R-KEY-PU-LH1,2*%
%TO.N,/KEY_LH1*%
X114912500Y-115500000D03*
%TD*%
D13*
%TO.P,C-KEY-LH4,1*%
%TO.N,/KEY_LH4*%
X161050000Y-123000000D03*
%TO.P,C-KEY-LH4,2*%
%TO.N,GND_CHAIN*%
X162950000Y-123000000D03*
%TD*%
%TO.P,C-KEY-LH5,1*%
%TO.N,/KEY_LH5*%
X159550000Y-106000000D03*
%TO.P,C-KEY-LH5,2*%
%TO.N,GND_CHAIN*%
X161450000Y-106000000D03*
%TD*%
%TO.P,C-KEY-LH2,1*%
%TO.N,/KEY_LH2*%
X125050000Y-132500000D03*
%TO.P,C-KEY-LH2,2*%
%TO.N,GND_CHAIN*%
X126950000Y-132500000D03*
%TD*%
%TO.P,C-KEY-LH3,1*%
%TO.N,/KEY_LH3*%
X145050000Y-132500000D03*
%TO.P,C-KEY-LH3,2*%
%TO.N,GND_CHAIN*%
X146950000Y-132500000D03*
%TD*%
D12*
%TO.P,R-KEY-SER-LH1,1*%
%TO.N,/KEY_LH1*%
X109087500Y-115500000D03*
%TO.P,R-KEY-SER-LH1,2*%
%TO.N,/LH1/SWITCH_LEG*%
X110912500Y-115500000D03*
%TD*%
D14*
%TO.P,C-DECOUPLE-165-LH,1*%
%TO.N,V3V3_CHAIN_LH*%
X157000000Y-104450000D03*
%TO.P,C-DECOUPLE-165-LH,2*%
%TO.N,GND_CHAIN*%
X157000000Y-102550000D03*
%TD*%
D11*
%TO.P,TP-SHLD-LH,1*%
%TO.N,/CHAIN_SHLD*%
X155500000Y-112500000D03*
%TD*%
D15*
%TO.P,U-KEYS-LH,1*%
%TO.N,/CHAIN_SHLD*%
X154945000Y-107975000D03*
%TO.P,U-KEYS-LH,2*%
%TO.N,/CHAIN_SCK*%
X153675000Y-107975000D03*
%TO.P,U-KEYS-LH,3*%
%TO.N,/KEY_LH4*%
X152405000Y-107975000D03*
%TO.P,U-KEYS-LH,4*%
%TO.N,/KEY_LH3*%
X151135000Y-107975000D03*
%TO.P,U-KEYS-LH,5*%
%TO.N,/KEY_LH2*%
X149865000Y-107975000D03*
%TO.P,U-KEYS-LH,6*%
%TO.N,/KEY_LH1*%
X148595000Y-107975000D03*
%TO.P,U-KEYS-LH,7*%
%TO.N,unconnected-(U-KEYS-LH-~{Q7}-Pad7)*%
X147325000Y-107975000D03*
%TO.P,U-KEYS-LH,8*%
%TO.N,GND_CHAIN*%
X146055000Y-107975000D03*
%TO.P,U-KEYS-LH,9*%
%TO.N,/HOP_LH_LT*%
X146055000Y-103025000D03*
%TO.P,U-KEYS-LH,10*%
%TO.N,/CHAIN_SER_LH*%
X147325000Y-103025000D03*
%TO.P,U-KEYS-LH,11*%
%TO.N,/KEY_FREE3*%
X148595000Y-103025000D03*
%TO.P,U-KEYS-LH,12*%
%TO.N,V3V3_CHAIN_LH*%
X149865000Y-103025000D03*
%TO.P,U-KEYS-LH,13*%
%TO.N,GND_CHAIN*%
X151135000Y-103025000D03*
%TO.P,U-KEYS-LH,14*%
%TO.N,/KEY_LH5*%
X152405000Y-103025000D03*
%TO.P,U-KEYS-LH,15*%
%TO.N,GND_CHAIN*%
X153675000Y-103025000D03*
%TO.P,U-KEYS-LH,16*%
%TO.N,V3V3_CHAIN_LH*%
X154945000Y-103025000D03*
%TD*%
D12*
%TO.P,R-KEY-PU-LH3,1*%
%TO.N,V3V3_CHAIN_LH*%
X153087500Y-132500000D03*
%TO.P,R-KEY-PU-LH3,2*%
%TO.N,/KEY_LH3*%
X154912500Y-132500000D03*
%TD*%
D11*
%TO.P,TP-GND-LH,1*%
%TO.N,GND_CHAIN*%
X148500000Y-112500000D03*
%TD*%
D12*
%TO.P,R-KEY-SER-LH3,1*%
%TO.N,/KEY_LH3*%
X149087500Y-132500000D03*
%TO.P,R-KEY-SER-LH3,2*%
%TO.N,/LH3/SWITCH_LEG*%
X150912500Y-132500000D03*
%TD*%
D16*
%TO.P,R-KEY-PU-FREE3,1*%
%TO.N,V3V3_CHAIN_LH*%
X144000000Y-106412500D03*
%TO.P,R-KEY-PU-FREE3,2*%
%TO.N,/KEY_FREE3*%
X144000000Y-104587500D03*
%TD*%
D11*
%TO.P,TP-QH-LH,1*%
%TO.N,/HOP_LH_LT*%
X159000000Y-112500000D03*
%TD*%
D12*
%TO.P,R-KEY-SER-LH5,1*%
%TO.N,/KEY_LH5*%
X163587500Y-106000000D03*
%TO.P,R-KEY-SER-LH5,2*%
%TO.N,/LH5/SWITCH_LEG*%
X165412500Y-106000000D03*
%TD*%
D13*
%TO.P,C-KEY-LH1,1*%
%TO.N,/KEY_LH1*%
X105050000Y-115500000D03*
%TO.P,C-KEY-LH1,2*%
%TO.N,GND_CHAIN*%
X106950000Y-115500000D03*
%TD*%
D12*
%TO.P,R-KEY-PU-LH5,1*%
%TO.N,V3V3_CHAIN_LH*%
X167587500Y-106000000D03*
%TO.P,R-KEY-PU-LH5,2*%
%TO.N,/KEY_LH5*%
X169412500Y-106000000D03*
%TD*%
D17*
%TO.P,J-CHAIN,1*%
%TO.N,unconnected-(J-CHAIN-Pin_1-Pad1)*%
X131140000Y-111160000D03*
D18*
%TO.P,J-CHAIN,2*%
%TO.N,unconnected-(J-CHAIN-Pin_2-Pad2)*%
X132410000Y-111160000D03*
%TO.P,J-CHAIN,3*%
%TO.N,V3V3_CHAIN_LH*%
X131140000Y-109890000D03*
%TO.P,J-CHAIN,4*%
%TO.N,GND_CHAIN*%
X132410000Y-109890000D03*
%TO.P,J-CHAIN,5*%
%TO.N,/HOP_LH_LT*%
X131140000Y-108620000D03*
%TO.P,J-CHAIN,6*%
%TO.N,GND_CHAIN*%
X132410000Y-108620000D03*
%TO.P,J-CHAIN,7*%
%TO.N,/CHAIN_SER_LH*%
X131140000Y-107350000D03*
%TO.P,J-CHAIN,8*%
%TO.N,GND_CHAIN*%
X132410000Y-107350000D03*
%TO.P,J-CHAIN,9*%
%TO.N,/CHAIN_SHLD*%
X131140000Y-106080000D03*
%TO.P,J-CHAIN,10*%
%TO.N,GND_CHAIN*%
X132410000Y-106080000D03*
%TO.P,J-CHAIN,11*%
%TO.N,/CHAIN_SCK*%
X131140000Y-104810000D03*
%TO.P,J-CHAIN,12*%
%TO.N,GND_CHAIN*%
X132410000Y-104810000D03*
%TD*%
D12*
%TO.P,R-KEY-PU-LH2,1*%
%TO.N,V3V3_CHAIN_LH*%
X133087500Y-132500000D03*
%TO.P,R-KEY-PU-LH2,2*%
%TO.N,/KEY_LH2*%
X134912500Y-132500000D03*
%TD*%
%TO.P,R-KEY-PU-LH4,1*%
%TO.N,V3V3_CHAIN_LH*%
X169087500Y-123000000D03*
%TO.P,R-KEY-PU-LH4,2*%
%TO.N,/KEY_LH4*%
X170912500Y-123000000D03*
%TD*%
D11*
%TO.P,TP-3V3-LH,1*%
%TO.N,V3V3_CHAIN_LH*%
X145000000Y-112500000D03*
%TD*%
D19*
%TO.N,/CHAIN_SCK*%
X153600000Y-105700000D03*
%TO.N,/CHAIN_SER_LH*%
X147200000Y-103100000D03*
%TO.N,/CHAIN_SHLD*%
X154800000Y-106700000D03*
X133600000Y-106700000D03*
%TO.N,/HOP_LH_LT*%
X158600000Y-107300000D03*
X146000000Y-102100000D03*
%TO.N,/KEY_LH1*%
X109400000Y-114900000D03*
X114600000Y-114900000D03*
X147400000Y-114900000D03*
%TO.N,/KEY_LH2*%
X146800000Y-120500000D03*
X135200000Y-132100000D03*
%TO.N,/KEY_LH4*%
X152600000Y-108700000D03*
X160800000Y-108700000D03*
%TO.N,/KEY_LH5*%
X155200000Y-105500000D03*
X164000000Y-105700000D03*
X169000000Y-105700000D03*
X152600000Y-103700000D03*
%TO.N,/LH4/SWITCH_LEG*%
X166600000Y-123300000D03*
X164400000Y-124300000D03*
%TO.N,GND_CHAIN*%
X162600000Y-123500000D03*
X158200000Y-103500000D03*
X147200000Y-132100000D03*
X154000000Y-101500000D03*
X146200000Y-110300000D03*
X163600000Y-122900000D03*
X157600000Y-102500000D03*
X146200000Y-108500000D03*
X153200000Y-123500000D03*
X106800000Y-118700000D03*
X127200000Y-133100000D03*
X127200000Y-132100000D03*
X161200000Y-105700000D03*
X142600000Y-104100000D03*
X148400000Y-110300000D03*
X148600000Y-113900000D03*
X107600000Y-115500000D03*
X147200000Y-133100000D03*
X142600000Y-110300000D03*
X151000000Y-103700000D03*
X148400000Y-111900000D03*
X162000000Y-106100000D03*
X153200000Y-118500000D03*
%TO.N,V3V3_CHAIN_LH*%
X144600000Y-112300000D03*
X113400000Y-112300000D03*
%TD*%
D20*
%TO.N,/CHAIN_SCK*%
X153200000Y-109300000D02*
X153400000Y-109100000D01*
X153674999Y-107975000D02*
X153600000Y-108700000D01*
X152600000Y-109900000D02*
X152800000Y-109700000D01*
X153600000Y-108900000D02*
X153600000Y-108700000D01*
X153400000Y-109100000D02*
X153600000Y-108900000D01*
X153600000Y-107100000D02*
X153600000Y-105700000D01*
X152400000Y-112500000D02*
X152400000Y-110100000D01*
X152800000Y-109700000D02*
X153200000Y-109300000D01*
X152400000Y-110100000D02*
X152600000Y-109900000D01*
%TO.N,/CHAIN_SHLD*%
X133199999Y-103900000D02*
X133000000Y-103700000D01*
X133600000Y-106700000D02*
X133600000Y-104300000D01*
X155000000Y-112100000D02*
X155200000Y-112300000D01*
X130600000Y-105900000D02*
X130800000Y-106100000D01*
X130400000Y-103900000D02*
X130199999Y-104100000D01*
X130400000Y-105700000D02*
X130600000Y-105900000D01*
X133600000Y-104300000D02*
X133400000Y-104100000D01*
X155000000Y-108700000D02*
X155000000Y-112100000D01*
X130000000Y-105300000D02*
X130199999Y-105500000D01*
X130000000Y-104300000D02*
X130000000Y-105300000D01*
X133000000Y-103700000D02*
X130600000Y-103700000D01*
X155499999Y-112499999D02*
X155200000Y-112300000D01*
X154800000Y-107100000D02*
X154800000Y-106700000D01*
X130600000Y-103700000D02*
X130400000Y-103900000D01*
X130199999Y-104100000D02*
X130000000Y-104300000D01*
X130199999Y-105500000D02*
X130400000Y-105700000D01*
X131139999Y-106079999D02*
X130800000Y-106100000D01*
X133400000Y-104100000D02*
X133199999Y-103900000D01*
%TO.N,/HOP_LH_LT*%
X158600000Y-107300000D02*
X158600000Y-112500000D01*
X146000000Y-102300000D02*
X146000000Y-102100000D01*
X159000000Y-112499999D02*
X158600000Y-112500000D01*
%TO.N,/KEY_FREE3*%
X148200000Y-104300000D02*
X148000000Y-104500000D01*
X148400000Y-103900000D02*
X148400000Y-104100000D01*
X148000000Y-104500000D02*
X144600000Y-104500000D01*
X144000000Y-104587500D02*
X144600000Y-104500000D01*
X148400000Y-104100000D02*
X148200000Y-104300000D01*
%TO.N,/KEY_LH1*%
X109087500Y-115499999D02*
X109400000Y-114900000D01*
X148400000Y-109100000D02*
X148400000Y-108700000D01*
X105600000Y-114700000D02*
X105400000Y-114900000D01*
X148594999Y-107974999D02*
X148400000Y-108700000D01*
X147400000Y-114900000D02*
X147400000Y-110100000D01*
X105050000Y-115500000D02*
X105400000Y-114900000D01*
X106000000Y-114300000D02*
X105600000Y-114700000D01*
X148200000Y-109300000D02*
X148400000Y-109100000D01*
X147600000Y-109900000D02*
X147800000Y-109700000D01*
X108800000Y-114900000D02*
X108600000Y-114700000D01*
X108600000Y-114700000D02*
X108400000Y-114500000D01*
X147800000Y-109700000D02*
X148200000Y-109300000D01*
X108200000Y-114300000D02*
X106000000Y-114300000D01*
X147400000Y-110100000D02*
X147600000Y-109900000D01*
X108400000Y-114500000D02*
X108200000Y-114300000D01*
%TO.N,/KEY_LH2*%
X134199999Y-133500000D02*
X134000000Y-133699999D01*
X147400000Y-116300000D02*
X147600000Y-116100000D01*
X126000000Y-131300000D02*
X125600000Y-131699999D01*
X126200000Y-131100000D02*
X126000000Y-131300000D01*
X125049999Y-132499999D02*
X125400000Y-131900000D01*
X129800000Y-133500000D02*
X129600000Y-133300000D01*
X125600000Y-131699999D02*
X125400000Y-131900000D01*
X129087499Y-132499999D02*
X129400000Y-133100000D01*
X128000000Y-131100000D02*
X126200000Y-131100000D01*
X148400000Y-115300000D02*
X148600000Y-115100000D01*
X149864999Y-107975000D02*
X149800000Y-108700000D01*
X148800000Y-114900000D02*
X149200000Y-114500000D01*
X149800000Y-113900000D02*
X149800000Y-108700000D01*
X128199999Y-131300000D02*
X128000000Y-131100000D01*
X134000000Y-133699999D02*
X130000000Y-133699999D01*
X130000000Y-133699999D02*
X129800000Y-133500000D01*
X147600000Y-116100000D02*
X147800000Y-115900000D01*
X147800000Y-115900000D02*
X148200000Y-115500000D01*
X128400000Y-131500000D02*
X128199999Y-131300000D01*
X149600000Y-114100000D02*
X149800000Y-113900000D01*
X134600000Y-133100000D02*
X134400000Y-133300000D01*
X148200000Y-115500000D02*
X148400000Y-115300000D01*
X134400000Y-133300000D02*
X134199999Y-133500000D01*
X146800000Y-116900000D02*
X147200000Y-116500000D01*
X146800000Y-120500000D02*
X146800000Y-116900000D01*
X129600000Y-133300000D02*
X129400000Y-133100000D01*
X149400000Y-114300000D02*
X149600000Y-114100000D01*
X147200000Y-116500000D02*
X147400000Y-116300000D01*
X149200000Y-114500000D02*
X149400000Y-114300000D01*
X128800000Y-131900000D02*
X128400000Y-131500000D01*
X148600000Y-115100000D02*
X148800000Y-114900000D01*
%TO.N,/KEY_LH3*%
X152600000Y-114700000D02*
X152400000Y-114500000D01*
X153400000Y-115500000D02*
X153200000Y-115300000D01*
X151600000Y-113700000D02*
X151400000Y-113500000D01*
X149600000Y-133300000D02*
X149800000Y-133500000D01*
X154400000Y-116500000D02*
X154200000Y-116300000D01*
X154600000Y-116700000D02*
X154400000Y-116500000D01*
X148200000Y-131300000D02*
X148000000Y-131100000D01*
X152400000Y-114500000D02*
X152200000Y-114300000D01*
X146200000Y-131100000D02*
X146000000Y-131300000D01*
X153000000Y-115100000D02*
X152800000Y-114900000D01*
X152800000Y-114900000D02*
X152600000Y-114700000D01*
X151400000Y-113500000D02*
X151200000Y-113300000D01*
X153600000Y-115700000D02*
X153400000Y-115500000D01*
X148800000Y-131900000D02*
X148400000Y-131500000D01*
X145800000Y-131500000D02*
X145600000Y-131699999D01*
X145600000Y-131699999D02*
X145400000Y-131900000D01*
X154600000Y-131900000D02*
X154600000Y-116700000D01*
X154000000Y-133699999D02*
X154200000Y-133500000D01*
X151000000Y-113100000D02*
X151000000Y-108700000D01*
X152000000Y-114100000D02*
X151800000Y-113900000D01*
X151135000Y-107975000D02*
X151000000Y-108700000D01*
X148400000Y-131500000D02*
X148200000Y-131300000D01*
X146000000Y-131300000D02*
X145800000Y-131500000D01*
X154000000Y-116100000D02*
X153800000Y-115900000D01*
X154912500Y-132500000D02*
X154600000Y-133100000D01*
X153200000Y-115300000D02*
X153000000Y-115100000D01*
X145049999Y-132500000D02*
X145400000Y-131900000D01*
X154400000Y-133300000D02*
X154600000Y-133100000D01*
X153800000Y-115900000D02*
X153600000Y-115700000D01*
X151200000Y-113300000D02*
X151000000Y-113100000D01*
X148000000Y-131100000D02*
X146200000Y-131100000D01*
X149400000Y-133100000D02*
X149600000Y-133300000D01*
X151800000Y-113900000D02*
X151600000Y-113700000D01*
X154200000Y-133500000D02*
X154400000Y-133300000D01*
X154200000Y-116300000D02*
X154000000Y-116100000D01*
X152200000Y-114300000D02*
X152000000Y-114100000D01*
X150000000Y-133699999D02*
X154000000Y-133699999D01*
X149800000Y-133500000D02*
X150000000Y-133699999D01*
%TO.N,/KEY_LH4*%
X164600000Y-122300000D02*
X164800000Y-122500000D01*
X161800000Y-122100000D02*
X162000000Y-121900000D01*
X170000000Y-124100000D02*
X170200000Y-123900000D01*
X161400000Y-122500000D02*
X161600000Y-122300000D01*
X164400000Y-122100000D02*
X164600000Y-122300000D01*
X166000000Y-124100000D02*
X166200000Y-124300000D01*
X162000000Y-121900000D02*
X162200000Y-121700000D01*
X164200000Y-121900000D02*
X164400000Y-122100000D01*
X165087500Y-123000000D02*
X164800000Y-122500000D01*
X160800000Y-122500000D02*
X160800000Y-108700000D01*
X164000000Y-121700000D02*
X164200000Y-121900000D01*
X170200000Y-123900000D02*
X170600000Y-123500000D01*
X162200000Y-121700000D02*
X164000000Y-121700000D01*
X170912500Y-123000000D02*
X170600000Y-123500000D01*
X166200000Y-124300000D02*
X169800000Y-124300000D01*
X152405000Y-107974999D02*
X152600000Y-108700000D01*
X165800000Y-123900000D02*
X166000000Y-124100000D01*
X161600000Y-122300000D02*
X161800000Y-122100000D01*
X169800000Y-124300000D02*
X170000000Y-124100000D01*
X165400000Y-123500000D02*
X165600000Y-123700000D01*
X165600000Y-123700000D02*
X165800000Y-123900000D01*
%TO.N,/KEY_LH5*%
X169412500Y-105999999D02*
X169000000Y-105700000D01*
X159200000Y-105500000D02*
X155200000Y-105500000D01*
X162400000Y-107100000D02*
X162600000Y-106900000D01*
X162600000Y-106900000D02*
X163200000Y-106300000D01*
X160600000Y-107300000D02*
X162200000Y-107300000D01*
X162200000Y-107300000D02*
X162400000Y-107100000D01*
X163587499Y-105999999D02*
X163200000Y-106300000D01*
X160400000Y-107100000D02*
X160600000Y-107300000D01*
X159800000Y-106500000D02*
X160200000Y-106900000D01*
X152405000Y-103024999D02*
X152600000Y-103700000D01*
X160200000Y-106900000D02*
X160400000Y-107100000D01*
%TO.N,/LH1/SWITCH_LEG*%
X108800000Y-117900000D02*
X108600000Y-118100000D01*
X106600000Y-120100000D02*
X106400000Y-120300000D01*
X106800000Y-119900000D02*
X106600000Y-120100000D01*
X108600000Y-118100000D02*
X108400000Y-118300000D01*
X109400000Y-117300000D02*
X108800000Y-117900000D01*
X110400000Y-116300000D02*
X109800000Y-116900000D01*
X106400000Y-120300000D02*
X106200000Y-120500000D01*
X107600000Y-119100000D02*
X107400000Y-119300000D01*
X110600000Y-116100000D02*
X110400000Y-116300000D01*
X106200000Y-120500000D02*
X106200000Y-125500000D01*
X108400000Y-118300000D02*
X107800000Y-118900000D01*
X107800000Y-118900000D02*
X107600000Y-119100000D01*
X105600000Y-126200000D02*
X106200000Y-125500000D01*
X107400000Y-119300000D02*
X106800000Y-119900000D01*
X109600000Y-117100000D02*
X109400000Y-117300000D01*
X109800000Y-116900000D02*
X109600000Y-117100000D01*
%TO.N,/LH2/SWITCH_LEG*%
X130600000Y-131900000D02*
X130600000Y-131300000D01*
X129400000Y-130100000D02*
X129199999Y-129900000D01*
X130400000Y-131100000D02*
X130199999Y-130900000D01*
X129000000Y-129699999D02*
X128800000Y-129500000D01*
X127200000Y-127900000D02*
X126600000Y-127300000D01*
X128199999Y-128900000D02*
X128000000Y-128699999D01*
X129800000Y-130500000D02*
X129600000Y-130300000D01*
X130600000Y-131300000D02*
X130400000Y-131100000D01*
X127400000Y-128100000D02*
X127200000Y-127900000D01*
X128600000Y-129300000D02*
X128400000Y-129100000D01*
X127600000Y-128300000D02*
X127400000Y-128100000D01*
X128000000Y-128699999D02*
X127600000Y-128300000D01*
X128400000Y-129100000D02*
X128199999Y-128900000D01*
X130199999Y-130900000D02*
X130000000Y-130699999D01*
X129600000Y-130300000D02*
X129400000Y-130100000D01*
X126400000Y-127100000D02*
X126200000Y-126900000D01*
X125600000Y-126200000D02*
X126200000Y-126900000D01*
X129199999Y-129900000D02*
X129000000Y-129699999D01*
X126600000Y-127300000D02*
X126400000Y-127100000D01*
X130000000Y-130699999D02*
X129800000Y-130500000D01*
X128800000Y-129500000D02*
X128600000Y-129300000D01*
%TO.N,/LH3/SWITCH_LEG*%
X147000000Y-128300000D02*
X147200000Y-128500000D01*
X149800000Y-131100000D02*
X150000000Y-131300000D01*
X150200000Y-131500000D02*
X150400000Y-131699999D01*
X146400000Y-126700000D02*
X146400000Y-127700000D01*
X146800000Y-128100000D02*
X147000000Y-128300000D01*
X149200000Y-130500000D02*
X149400000Y-130699999D01*
X146600000Y-127900000D02*
X146800000Y-128100000D01*
X150000000Y-131300000D02*
X150200000Y-131500000D01*
X148400000Y-129699999D02*
X148600000Y-129900000D01*
X149000000Y-130300000D02*
X149200000Y-130500000D01*
X147800000Y-129100000D02*
X148000000Y-129300000D01*
X146400000Y-127700000D02*
X146600000Y-127900000D01*
X147600000Y-128900000D02*
X147800000Y-129100000D01*
X148200000Y-129500000D02*
X148400000Y-129699999D01*
X148800000Y-130100000D02*
X149000000Y-130300000D01*
X150912500Y-132500000D02*
X150600000Y-131900000D01*
X147200000Y-128500000D02*
X147400000Y-128699999D01*
X148000000Y-129300000D02*
X148200000Y-129500000D01*
X147400000Y-128699999D02*
X147600000Y-128900000D01*
X149600000Y-130900000D02*
X149800000Y-131100000D01*
X149400000Y-130699999D02*
X149600000Y-130900000D01*
X150400000Y-131699999D02*
X150600000Y-131900000D01*
X148600000Y-129900000D02*
X148800000Y-130100000D01*
%TO.N,/LH4/SWITCH_LEG*%
X166912500Y-123000000D02*
X166600000Y-123300000D01*
X164400000Y-134700000D02*
X164400000Y-124300000D01*
%TO.N,/LH5/SWITCH_LEG*%
X165000000Y-106700000D02*
X165000000Y-106500000D01*
X164800000Y-106900000D02*
X165000000Y-106700000D01*
X164400000Y-116700000D02*
X164400000Y-107300000D01*
X164400000Y-107300000D02*
X164600000Y-107100000D01*
X165412500Y-105999999D02*
X165000000Y-106500000D01*
X164600000Y-107100000D02*
X164800000Y-106900000D01*
%TO.N,GND_CHAIN*%
X132409999Y-106080000D02*
X132400000Y-106500000D01*
X148400000Y-112100000D02*
X148400000Y-110300000D01*
X132409999Y-108620000D02*
X132600000Y-108900000D01*
X153200000Y-118500000D02*
X153200000Y-126300000D01*
X148600000Y-112900000D02*
X148600000Y-113900000D01*
X146200000Y-110300000D02*
X146200000Y-108700000D01*
X132600000Y-109500000D02*
X132600000Y-108900000D01*
X153000000Y-101500000D02*
X153200000Y-101700000D01*
X132410000Y-104809999D02*
X132600000Y-105100000D01*
X133000000Y-110100000D02*
X133199999Y-110300000D01*
X161449999Y-106000000D02*
X161200000Y-105700000D01*
X151600000Y-101700000D02*
X151800000Y-101500000D01*
X132409999Y-107349999D02*
X132600000Y-107700000D01*
X133400000Y-110500000D02*
X133600000Y-110700000D01*
X153800000Y-102300000D02*
X153800000Y-102100000D01*
X146054999Y-107974999D02*
X146200000Y-108700000D01*
X148499999Y-112499999D02*
X148400000Y-111900000D01*
X133600000Y-126700000D02*
X133400000Y-126900000D01*
X153674999Y-103024999D02*
X154000000Y-101500000D01*
X126949999Y-132499999D02*
X127200000Y-132100000D01*
X151200000Y-102100000D02*
X151400000Y-101900000D01*
X132600000Y-108300000D02*
X132600000Y-107700000D01*
X162950000Y-122999999D02*
X162600000Y-123500000D01*
X153674999Y-103024999D02*
X153600000Y-102300000D01*
X106800000Y-118700000D02*
X106800000Y-116100000D01*
X156999999Y-102549999D02*
X156400000Y-102300000D01*
X161449999Y-106000000D02*
X162000000Y-106100000D01*
X171400000Y-135100000D02*
X171000000Y-135500000D01*
X171400000Y-121500000D02*
X171600000Y-121700000D01*
X162950000Y-122999999D02*
X163600000Y-122900000D01*
X133600000Y-110700000D02*
X133600000Y-126700000D01*
X153800000Y-102100000D02*
X154000000Y-101900000D01*
X132400000Y-106900000D02*
X132400000Y-106500000D01*
X153200000Y-101700000D02*
X153400000Y-101900000D01*
X153400000Y-101900000D02*
X153600000Y-102100000D01*
X156000000Y-101900000D02*
X156200000Y-102100000D01*
X154400000Y-101500000D02*
X155600000Y-101500000D01*
X157800000Y-103100000D02*
X158200000Y-103500000D01*
X146950000Y-132500000D02*
X147200000Y-132100000D01*
X146950000Y-132500000D02*
X147200000Y-133100000D01*
X155600000Y-101500000D02*
X155800000Y-101700000D01*
X133199999Y-110300000D02*
X133400000Y-110500000D01*
X172000000Y-122100000D02*
X172000000Y-134500000D01*
X156999999Y-102549999D02*
X157600000Y-102500000D01*
X152599999Y-127249999D02*
X153000000Y-126500000D01*
X153600000Y-102100000D02*
X153600000Y-102300000D01*
X157600000Y-102900000D02*
X157800000Y-103100000D01*
X151400000Y-101900000D02*
X151600000Y-101700000D01*
X126949999Y-132499999D02*
X127200000Y-133100000D01*
X171800000Y-134700000D02*
X171600000Y-134900000D01*
X106949999Y-115500000D02*
X107600000Y-115500000D01*
X151800000Y-101500000D02*
X153000000Y-101500000D01*
X171600000Y-121700000D02*
X171800000Y-121900000D01*
X172000000Y-134500000D02*
X171800000Y-134700000D01*
X142600000Y-110300000D02*
X142600000Y-104100000D01*
X106949999Y-115500000D02*
X106800000Y-116100000D01*
X155800000Y-101700000D02*
X156000000Y-101900000D01*
X132600000Y-105700000D02*
X132600000Y-105100000D01*
X151200000Y-102300000D02*
X151200000Y-102100000D01*
X132800000Y-110100000D02*
X133000000Y-110100000D01*
X154000000Y-101900000D02*
X154200000Y-101700000D01*
X171600000Y-134900000D02*
X171400000Y-135100000D01*
X171400000Y-118700000D02*
X171400000Y-121500000D01*
X132599999Y-127249999D02*
X133400000Y-126900000D01*
X153200000Y-126300000D02*
X153000000Y-126500000D01*
X156200000Y-102100000D02*
X156400000Y-102300000D01*
X151135000Y-103024999D02*
X151000000Y-103700000D01*
X146054999Y-107974999D02*
X146200000Y-108500000D01*
X154200000Y-101700000D02*
X154400000Y-101500000D01*
X171800000Y-121900000D02*
X172000000Y-122100000D01*
X170599999Y-136249999D02*
X171000000Y-135500000D01*
D21*
%TO.N,V3V3_CHAIN_LH*%
X143200000Y-125700000D02*
X143000000Y-125900000D01*
X143000000Y-125900000D02*
X142800000Y-126100000D01*
X156999999Y-104449999D02*
X156400000Y-104700000D01*
X168000000Y-106500000D02*
X168000000Y-107700000D01*
X142800000Y-126100000D02*
X142600000Y-126300000D01*
X144600000Y-106100000D02*
X147800000Y-106100000D01*
X138000000Y-130900000D02*
X137800000Y-131100000D01*
X170400000Y-115900000D02*
X170200000Y-116100000D01*
X113400000Y-112300000D02*
X113400000Y-114900000D01*
X113087500Y-115499999D02*
X113400000Y-114900000D01*
X150200000Y-104300000D02*
X150400000Y-104500000D01*
X142600000Y-126300000D02*
X142400000Y-126500000D01*
X166400000Y-104700000D02*
X166600000Y-104900000D01*
X147800000Y-106100000D02*
X148000000Y-105900000D01*
X166600000Y-104900000D02*
X166800000Y-105100000D01*
X152000000Y-130100000D02*
X152200000Y-130300000D01*
X154400000Y-104500000D02*
X154600000Y-104300000D01*
X169600000Y-116700000D02*
X169400000Y-116900000D01*
X145600000Y-123700000D02*
X145800000Y-123900000D01*
X147200000Y-125300000D02*
X147400000Y-125500000D01*
X144200000Y-124700000D02*
X144000000Y-124900000D01*
X145000000Y-123900000D02*
X144800000Y-124100000D01*
X142200000Y-126700000D02*
X142000000Y-126900000D01*
X145400000Y-123500000D02*
X145600000Y-123700000D01*
X138200000Y-130699999D02*
X138000000Y-130900000D01*
X148600000Y-105300000D02*
X148800000Y-105100000D01*
X169400000Y-109100000D02*
X169600000Y-109300000D01*
X149200000Y-127300000D02*
X149400000Y-127500000D01*
X154945000Y-103025000D02*
X154800000Y-103900000D01*
X144000000Y-106412500D02*
X144600000Y-106700000D01*
X149000000Y-104900000D02*
X149200000Y-104700000D01*
X169400000Y-116900000D02*
X169200000Y-117100000D01*
X147600000Y-125700000D02*
X147800000Y-125900000D01*
X141200000Y-127700000D02*
X141000000Y-127900000D01*
X145400000Y-123500000D02*
X145200000Y-123700000D01*
X148800000Y-105100000D02*
X149000000Y-104900000D01*
X167587500Y-105999999D02*
X167200000Y-105500000D01*
X145800000Y-123900000D02*
X146000000Y-124100000D01*
X170200000Y-109900000D02*
X170400000Y-110100000D01*
X141600000Y-127300000D02*
X141400000Y-127500000D01*
X141800000Y-127100000D02*
X141600000Y-127300000D01*
X134000000Y-131300000D02*
X133800000Y-131500000D01*
X148200000Y-105700000D02*
X148400000Y-105500000D01*
X146200000Y-124300000D02*
X146400000Y-124500000D01*
X170600000Y-115700000D02*
X170400000Y-115900000D01*
X141400000Y-127500000D02*
X141200000Y-127700000D01*
X157600000Y-104700000D02*
X166400000Y-104700000D01*
X154200000Y-104700000D02*
X154400000Y-104500000D01*
X146800000Y-124900000D02*
X147000000Y-125100000D01*
X151000000Y-129100000D02*
X151200000Y-129300000D01*
X168400000Y-108100000D02*
X168600000Y-108300000D01*
X152800000Y-130900000D02*
X152800000Y-131900000D01*
X145200000Y-123700000D02*
X145000000Y-123900000D01*
X168000000Y-107700000D02*
X168200000Y-107900000D01*
X139200000Y-129699999D02*
X139000000Y-129900000D01*
X139400000Y-129500000D02*
X139200000Y-129699999D01*
X146400000Y-124500000D02*
X146600000Y-124700000D01*
X144600000Y-112500000D02*
X144600000Y-106700000D01*
X166800000Y-105100000D02*
X167200000Y-105500000D01*
X138400000Y-130500000D02*
X138200000Y-130699999D01*
X139000000Y-129900000D02*
X138400000Y-130500000D01*
X153087499Y-132499999D02*
X152800000Y-131900000D01*
X148400000Y-126500000D02*
X148600000Y-126700000D01*
X149800000Y-104100000D02*
X149800000Y-103900000D01*
X147400000Y-125500000D02*
X147600000Y-125700000D01*
X150000000Y-103900000D02*
X150000000Y-104100000D01*
X144600000Y-124300000D02*
X144400000Y-124500000D01*
X142400000Y-126500000D02*
X142200000Y-126700000D01*
X170400000Y-110100000D02*
X170600000Y-110300000D01*
X169600000Y-109300000D02*
X170200000Y-109900000D01*
X148200000Y-126300000D02*
X148400000Y-126500000D01*
X143600000Y-125300000D02*
X143400000Y-125500000D01*
X147800000Y-125900000D02*
X148000000Y-126100000D01*
X171200000Y-110900000D02*
X171200000Y-115100000D01*
X150000000Y-104100000D02*
X150200000Y-104300000D01*
X154600000Y-104300000D02*
X154800000Y-104100000D01*
X155800000Y-104700000D02*
X156400000Y-104700000D01*
X149200000Y-104700000D02*
X149400000Y-104500000D01*
X169087500Y-123000000D02*
X169000000Y-122500000D01*
X148000000Y-126100000D02*
X148200000Y-126300000D01*
X145400000Y-112500000D02*
X145400000Y-123500000D01*
X133600000Y-131699999D02*
X133400000Y-131900000D01*
X140200000Y-128699999D02*
X140000000Y-128900000D01*
X152200000Y-130300000D02*
X152400000Y-130500000D01*
X150400000Y-104500000D02*
X150600000Y-104700000D01*
X149800000Y-127900000D02*
X150000000Y-128100000D01*
X169000000Y-117300000D02*
X169000000Y-122500000D01*
X155200000Y-104100000D02*
X155400000Y-104300000D01*
X171200000Y-115100000D02*
X170600000Y-115700000D01*
X133800000Y-131500000D02*
X133600000Y-131699999D01*
X149400000Y-127500000D02*
X149600000Y-127700000D01*
X150000000Y-128100000D02*
X150200000Y-128300000D01*
X149000000Y-127100000D02*
X149200000Y-127300000D01*
X144800000Y-124100000D02*
X144600000Y-124300000D01*
X151400000Y-129500000D02*
X152000000Y-130100000D01*
X155000000Y-103900000D02*
X155200000Y-104100000D01*
X154800000Y-104100000D02*
X154800000Y-103900000D01*
X137800000Y-131100000D02*
X134199999Y-131100000D01*
X148800000Y-126900000D02*
X149000000Y-127100000D01*
X168200000Y-107900000D02*
X168400000Y-108100000D01*
X149400000Y-104500000D02*
X149600000Y-104300000D01*
X134199999Y-131100000D02*
X134000000Y-131300000D01*
X170200000Y-116100000D02*
X169600000Y-116700000D01*
X149600000Y-104300000D02*
X149800000Y-104100000D01*
X149864999Y-103024999D02*
X149800000Y-103900000D01*
X170600000Y-110300000D02*
X171200000Y-110900000D01*
X144000000Y-124900000D02*
X143800000Y-125100000D01*
X147000000Y-125100000D02*
X147200000Y-125300000D01*
X143800000Y-125100000D02*
X143600000Y-125300000D01*
X150400000Y-128500000D02*
X151000000Y-129100000D01*
X150200000Y-128300000D02*
X150400000Y-128500000D01*
X133087500Y-132499999D02*
X133400000Y-131900000D01*
X143400000Y-125500000D02*
X143200000Y-125700000D01*
X142000000Y-126900000D02*
X141800000Y-127100000D01*
X152400000Y-130500000D02*
X152800000Y-130900000D01*
X148600000Y-126700000D02*
X148800000Y-126900000D01*
X155600000Y-104500000D02*
X155800000Y-104700000D01*
X149600000Y-127700000D02*
X149800000Y-127900000D01*
X144400000Y-124500000D02*
X144200000Y-124700000D01*
X140400000Y-128500000D02*
X140200000Y-128699999D01*
X169200000Y-108900000D02*
X169400000Y-109100000D01*
X148400000Y-105500000D02*
X148600000Y-105300000D01*
X168600000Y-108300000D02*
X169200000Y-108900000D01*
X146000000Y-124100000D02*
X146200000Y-124300000D01*
X141000000Y-127900000D02*
X140400000Y-128500000D01*
X151200000Y-129300000D02*
X151400000Y-129500000D01*
X155400000Y-104300000D02*
X155600000Y-104500000D01*
X146600000Y-124700000D02*
X146800000Y-124900000D01*
X169200000Y-117100000D02*
X169000000Y-117300000D01*
X148000000Y-105900000D02*
X148200000Y-105700000D01*
X140000000Y-128900000D02*
X139400000Y-129500000D01*
X150600000Y-104700000D02*
X154200000Y-104700000D01*
%TD*%
%TA.AperFunction,Conductor*%
%TO.N,GND_CHAIN*%
G36*
X149916974Y-104623687D02*
G01*
X149943332Y-104625572D01*
X149952384Y-104631389D01*
X149959425Y-104632921D01*
X149987677Y-104654070D01*
X150072455Y-104738847D01*
X150072462Y-104738855D01*
X150079519Y-104745912D01*
X150079520Y-104745913D01*
X150175514Y-104841907D01*
X150272449Y-104938841D01*
X150272452Y-104938845D01*
X150279520Y-104945913D01*
X150354087Y-105020480D01*
X150413164Y-105054588D01*
X150413165Y-105054589D01*
X150445407Y-105073204D01*
X150445410Y-105073206D01*
X150445412Y-105073206D01*
X150445413Y-105073207D01*
X150547273Y-105100501D01*
X150547275Y-105100501D01*
X150660323Y-105100501D01*
X150660339Y-105100500D01*
X153121614Y-105100500D01*
X153188653Y-105120185D01*
X153234408Y-105172989D01*
X153244352Y-105242147D01*
X153215327Y-105305703D01*
X153209295Y-105312181D01*
X153159493Y-105361982D01*
X153159488Y-105361988D01*
X153087017Y-105487511D01*
X153087016Y-105487515D01*
X153049500Y-105627525D01*
X153049500Y-105772475D01*
X153068983Y-105845185D01*
X153087017Y-105912488D01*
X153159488Y-106038011D01*
X153159493Y-106038017D01*
X153238181Y-106116705D01*
X153271666Y-106178028D01*
X153274500Y-106204386D01*
X153274500Y-106853456D01*
X153254815Y-106920495D01*
X153238181Y-106941137D01*
X153235803Y-106943514D01*
X153184426Y-107048608D01*
X153174500Y-107116739D01*
X153174500Y-108196613D01*
X153168261Y-108217858D01*
X153166682Y-108239947D01*
X153158609Y-108250730D01*
X153154815Y-108263652D01*
X153138081Y-108278151D01*
X153124810Y-108295880D01*
X153112189Y-108300587D01*
X153102011Y-108309407D01*
X153080093Y-108312558D01*
X153059346Y-108320297D01*
X153046185Y-108317434D01*
X153032853Y-108319351D01*
X153012709Y-108310151D01*
X152991073Y-108305445D01*
X152973347Y-108292176D01*
X152969297Y-108290326D01*
X152962819Y-108284294D01*
X152941819Y-108263294D01*
X152908334Y-108201971D01*
X152905500Y-108175613D01*
X152905500Y-107116739D01*
X152895573Y-107048608D01*
X152894860Y-107047149D01*
X152844198Y-106943517D01*
X152844196Y-106943515D01*
X152844196Y-106943514D01*
X152761485Y-106860803D01*
X152656391Y-106809426D01*
X152588261Y-106799500D01*
X152588260Y-106799500D01*
X152221740Y-106799500D01*
X152221739Y-106799500D01*
X152153608Y-106809426D01*
X152048514Y-106860803D01*
X151965803Y-106943514D01*
X151914426Y-107048608D01*
X151904500Y-107116739D01*
X151904500Y-108833260D01*
X151914426Y-108901391D01*
X151965803Y-109006485D01*
X152048514Y-109089196D01*
X152048515Y-109089196D01*
X152048517Y-109089198D01*
X152153607Y-109140573D01*
X152179626Y-109144364D01*
X152221739Y-109150500D01*
X152221740Y-109150500D01*
X152246064Y-109150500D01*
X152308063Y-109167112D01*
X152356172Y-109194888D01*
X152369089Y-109202346D01*
X152387515Y-109212984D01*
X152526426Y-109250205D01*
X152586085Y-109286569D01*
X152616614Y-109349416D01*
X152608319Y-109418791D01*
X152582012Y-109457660D01*
X152139537Y-109900135D01*
X152139533Y-109900141D01*
X152096681Y-109974361D01*
X152096682Y-109974362D01*
X152074500Y-110057147D01*
X152074500Y-111675500D01*
X152054815Y-111742539D01*
X152002011Y-111788294D01*
X151950500Y-111799500D01*
X151931005Y-111799500D01*
X151795677Y-111826418D01*
X151795667Y-111826421D01*
X151668195Y-111879221D01*
X151668182Y-111879228D01*
X151553458Y-111955885D01*
X151553454Y-111955888D01*
X151537181Y-111972162D01*
X151475858Y-112005647D01*
X151406166Y-112000663D01*
X151350233Y-111958791D01*
X151325816Y-111893327D01*
X151325500Y-111884481D01*
X151325500Y-109247746D01*
X151345185Y-109180707D01*
X151395038Y-109136346D01*
X151491483Y-109089198D01*
X151574198Y-109006483D01*
X151625573Y-108901393D01*
X151635500Y-108833260D01*
X151635500Y-107116740D01*
X151625573Y-107048607D01*
X151574198Y-106943517D01*
X151574196Y-106943515D01*
X151574196Y-106943514D01*
X151491485Y-106860803D01*
X151386391Y-106809426D01*
X151318261Y-106799500D01*
X151318260Y-106799500D01*
X150951740Y-106799500D01*
X150951739Y-106799500D01*
X150883608Y-106809426D01*
X150778514Y-106860803D01*
X150695803Y-106943514D01*
X150644426Y-107048608D01*
X150634500Y-107116739D01*
X150634500Y-108833260D01*
X150644426Y-108901391D01*
X150644427Y-108901393D01*
X150661900Y-108937135D01*
X150674500Y-108991595D01*
X150674500Y-113142852D01*
X150696682Y-113225640D01*
X150704705Y-113239535D01*
X150739535Y-113299862D01*
X150739537Y-113299864D01*
X154238181Y-116798508D01*
X154271666Y-116859831D01*
X154274500Y-116886189D01*
X154274500Y-131759334D01*
X154254815Y-131826373D01*
X154250271Y-131832967D01*
X154247207Y-131837118D01*
X154247206Y-131837119D01*
X154202353Y-131965298D01*
X154202353Y-131965300D01*
X154199500Y-131995730D01*
X154199500Y-132988811D01*
X154179815Y-133055850D01*
X154163183Y-133076489D01*
X154146602Y-133093071D01*
X154146601Y-133093070D01*
X153962553Y-133277119D01*
X153901230Y-133310604D01*
X153831538Y-133305620D01*
X153775605Y-133263748D01*
X153751188Y-133198284D01*
X153757831Y-133148483D01*
X153797646Y-133034699D01*
X153798359Y-133027090D01*
X153800500Y-133004269D01*
X153800500Y-131995730D01*
X153797646Y-131965300D01*
X153797646Y-131965298D01*
X153752793Y-131837119D01*
X153752792Y-131837117D01*
X153749729Y-131832967D01*
X153672150Y-131727850D01*
X153562882Y-131647207D01*
X153562880Y-131647206D01*
X153434700Y-131602353D01*
X153404270Y-131599500D01*
X153404266Y-131599500D01*
X153324500Y-131599500D01*
X153257461Y-131579815D01*
X153211706Y-131527011D01*
X153200500Y-131475500D01*
X153200500Y-130847275D01*
X153200500Y-130847273D01*
X153173207Y-130745413D01*
X153120480Y-130654087D01*
X153045913Y-130579520D01*
X152645913Y-130179520D01*
X152638848Y-130172455D01*
X152638841Y-130172449D01*
X152438848Y-129972455D01*
X152438841Y-129972449D01*
X152245913Y-129779520D01*
X151638848Y-129172455D01*
X151638841Y-129172449D01*
X151438848Y-128972455D01*
X151438841Y-128972449D01*
X151245913Y-128779520D01*
X150806534Y-128340141D01*
X150645913Y-128179520D01*
X150645911Y-128179519D01*
X150445913Y-127979520D01*
X150445912Y-127979519D01*
X150438848Y-127972455D01*
X150438841Y-127972449D01*
X150238848Y-127772455D01*
X150238841Y-127772449D01*
X150038848Y-127572455D01*
X150038841Y-127572449D01*
X149945170Y-127478778D01*
X149845913Y-127379520D01*
X149845912Y-127379519D01*
X149838855Y-127372462D01*
X149838847Y-127372455D01*
X149645913Y-127179520D01*
X149638848Y-127172455D01*
X149638841Y-127172449D01*
X149614074Y-127147682D01*
X151300000Y-127147682D01*
X151300000Y-127352317D01*
X151332009Y-127554417D01*
X151395244Y-127749031D01*
X151488139Y-127931347D01*
X151550279Y-128016876D01*
X152057241Y-127509914D01*
X152119881Y-127618408D01*
X152231592Y-127730119D01*
X152340083Y-127792757D01*
X151833121Y-128299719D01*
X151833122Y-128299720D01*
X151918640Y-128361852D01*
X151918649Y-128361858D01*
X152100968Y-128454755D01*
X152295582Y-128517990D01*
X152497683Y-128550000D01*
X152702317Y-128550000D01*
X152904417Y-128517990D01*
X153099031Y-128454755D01*
X153281349Y-128361859D01*
X153366876Y-128299719D01*
X153366877Y-128299718D01*
X152859916Y-127792757D01*
X152968408Y-127730119D01*
X153080119Y-127618408D01*
X153142757Y-127509915D01*
X153649718Y-128016877D01*
X153649719Y-128016876D01*
X153711859Y-127931349D01*
X153804755Y-127749031D01*
X153867990Y-127554417D01*
X153900000Y-127352317D01*
X153900000Y-127147682D01*
X153867990Y-126945582D01*
X153804755Y-126750968D01*
X153711858Y-126568649D01*
X153711852Y-126568640D01*
X153649720Y-126483122D01*
X153649719Y-126483121D01*
X153142757Y-126990083D01*
X153080119Y-126881592D01*
X152968408Y-126769881D01*
X152859914Y-126707241D01*
X153366876Y-126200279D01*
X153281347Y-126138139D01*
X153099031Y-126045244D01*
X152904417Y-125982009D01*
X152702317Y-125950000D01*
X152497683Y-125950000D01*
X152295582Y-125982009D01*
X152100968Y-126045244D01*
X151918648Y-126138141D01*
X151833122Y-126200278D01*
X151833122Y-126200279D01*
X152340085Y-126707242D01*
X152231592Y-126769881D01*
X152119881Y-126881592D01*
X152057242Y-126990085D01*
X151550279Y-126483122D01*
X151550278Y-126483122D01*
X151488141Y-126568648D01*
X151395244Y-126750968D01*
X151332009Y-126945582D01*
X151300000Y-127147682D01*
X149614074Y-127147682D01*
X149438848Y-126972455D01*
X149438841Y-126972449D01*
X149238848Y-126772455D01*
X149238841Y-126772449D01*
X149038848Y-126572455D01*
X149038841Y-126572449D01*
X148838848Y-126372455D01*
X148838841Y-126372449D01*
X148801615Y-126335223D01*
X148801616Y-126335223D01*
X148645913Y-126179520D01*
X148645911Y-126179519D01*
X148638844Y-126172451D01*
X148638841Y-126172449D01*
X148438848Y-125972455D01*
X148438841Y-125972449D01*
X148238848Y-125772455D01*
X148238841Y-125772449D01*
X148038848Y-125572455D01*
X148038841Y-125572449D01*
X147838848Y-125372455D01*
X147838841Y-125372449D01*
X147638848Y-125172455D01*
X147638841Y-125172449D01*
X147438848Y-124972455D01*
X147438841Y-124972449D01*
X147238848Y-124772455D01*
X147238841Y-124772449D01*
X147038848Y-124572455D01*
X147038841Y-124572449D01*
X146838848Y-124372455D01*
X146838841Y-124372449D01*
X146638848Y-124172455D01*
X146638841Y-124172449D01*
X146438848Y-123972455D01*
X146438841Y-123972449D01*
X146344185Y-123877793D01*
X146245913Y-123779520D01*
X146245912Y-123779519D01*
X146238848Y-123772455D01*
X146238841Y-123772449D01*
X146038848Y-123572455D01*
X146038841Y-123572449D01*
X145945280Y-123478888D01*
X145845913Y-123379520D01*
X145845912Y-123379519D01*
X145838845Y-123372452D01*
X145838845Y-123372451D01*
X145838829Y-123372436D01*
X145836796Y-123370404D01*
X145803327Y-123309073D01*
X145800500Y-123282745D01*
X145800500Y-112447275D01*
X145800500Y-112447273D01*
X145773207Y-112345413D01*
X145720480Y-112254087D01*
X145645913Y-112179520D01*
X145645912Y-112179519D01*
X145645911Y-112179518D01*
X145642345Y-112177459D01*
X145601251Y-112138968D01*
X145544114Y-112053458D01*
X145544111Y-112053454D01*
X145446545Y-111955888D01*
X145446541Y-111955885D01*
X145331817Y-111879228D01*
X145331804Y-111879221D01*
X145204332Y-111826421D01*
X145204322Y-111826418D01*
X145100308Y-111805728D01*
X145038397Y-111773343D01*
X145003823Y-111712627D01*
X145000500Y-111684111D01*
X145000500Y-108854196D01*
X145455001Y-108854196D01*
X145457851Y-108884606D01*
X145502653Y-109012645D01*
X145583207Y-109121792D01*
X145692354Y-109202346D01*
X145820397Y-109247149D01*
X145850793Y-109249999D01*
X145854999Y-109249999D01*
X145855000Y-109249998D01*
X145855000Y-108175000D01*
X145455001Y-108175000D01*
X145455001Y-108854196D01*
X145000500Y-108854196D01*
X145000500Y-106748665D01*
X145002617Y-106725849D01*
X145003364Y-106721861D01*
X145000865Y-106689366D01*
X145000575Y-106684174D01*
X145000500Y-106682020D01*
X145000500Y-106647273D01*
X144999109Y-106642082D01*
X144998647Y-106628816D01*
X145005898Y-106600510D01*
X145010399Y-106571650D01*
X145014465Y-106567068D01*
X145015986Y-106561132D01*
X145037388Y-106541241D01*
X145056779Y-106519394D01*
X145062737Y-106517682D01*
X145067166Y-106513567D01*
X145093583Y-106508824D01*
X145122572Y-106500500D01*
X145668867Y-106500500D01*
X145735906Y-106520185D01*
X145781661Y-106572989D01*
X145791605Y-106642147D01*
X145762580Y-106705703D01*
X145709821Y-106741542D01*
X145692354Y-106747653D01*
X145583207Y-106828207D01*
X145502653Y-106937354D01*
X145457850Y-107065395D01*
X145457850Y-107065399D01*
X145455000Y-107095793D01*
X145455000Y-107775000D01*
X145931000Y-107775000D01*
X145998039Y-107794685D01*
X146043794Y-107847489D01*
X146055000Y-107899000D01*
X146055000Y-107975000D01*
X146131000Y-107975000D01*
X146198039Y-107994685D01*
X146243794Y-108047489D01*
X146255000Y-108099000D01*
X146255000Y-109249999D01*
X146259196Y-109249999D01*
X146289606Y-109247148D01*
X146417645Y-109202346D01*
X146526792Y-109121792D01*
X146607346Y-109012645D01*
X146607347Y-109012643D01*
X146626712Y-108957300D01*
X146667433Y-108900523D01*
X146732385Y-108874775D01*
X146800947Y-108888231D01*
X146851351Y-108936617D01*
X146855154Y-108943791D01*
X146872620Y-108979519D01*
X146885803Y-109006485D01*
X146968514Y-109089196D01*
X146968515Y-109089196D01*
X146968517Y-109089198D01*
X147073607Y-109140573D01*
X147099626Y-109144364D01*
X147141739Y-109150500D01*
X147141740Y-109150500D01*
X147508261Y-109150500D01*
X147584308Y-109139420D01*
X147653485Y-109149233D01*
X147706375Y-109194888D01*
X147726186Y-109261891D01*
X147706627Y-109328967D01*
X147689867Y-109349805D01*
X147139537Y-109900135D01*
X147139533Y-109900141D01*
X147096681Y-109974361D01*
X147096682Y-109974362D01*
X147074500Y-110057147D01*
X147074500Y-114395613D01*
X147054815Y-114462652D01*
X147038182Y-114483294D01*
X146959488Y-114561988D01*
X146887017Y-114687511D01*
X146887016Y-114687515D01*
X146849500Y-114827525D01*
X146849500Y-114972475D01*
X146873271Y-115061188D01*
X146887017Y-115112488D01*
X146959488Y-115238011D01*
X146959490Y-115238013D01*
X146959491Y-115238015D01*
X147061985Y-115340509D01*
X147061986Y-115340510D01*
X147061988Y-115340511D01*
X147187511Y-115412982D01*
X147187512Y-115412982D01*
X147187515Y-115412984D01*
X147327525Y-115450500D01*
X147327528Y-115450500D01*
X147472469Y-115450500D01*
X147472475Y-115450500D01*
X147472480Y-115450498D01*
X147475012Y-115450165D01*
X147477161Y-115450500D01*
X147480602Y-115450500D01*
X147480602Y-115451036D01*
X147544048Y-115460926D01*
X147596308Y-115507302D01*
X147615198Y-115574569D01*
X147594723Y-115641371D01*
X147578888Y-115660784D01*
X146539537Y-116700135D01*
X146539533Y-116700141D01*
X146496683Y-116774359D01*
X146496682Y-116774361D01*
X146496682Y-116774362D01*
X146480481Y-116834826D01*
X146474500Y-116857147D01*
X146474500Y-119995613D01*
X146454815Y-120062652D01*
X146438182Y-120083294D01*
X146359488Y-120161988D01*
X146287017Y-120287511D01*
X146287016Y-120287515D01*
X146249500Y-120427525D01*
X146249500Y-120572475D01*
X146279970Y-120686188D01*
X146287017Y-120712488D01*
X146359488Y-120838011D01*
X146359490Y-120838013D01*
X146359491Y-120838015D01*
X146461985Y-120940509D01*
X146461986Y-120940510D01*
X146461988Y-120940511D01*
X146587511Y-121012982D01*
X146587512Y-121012982D01*
X146587515Y-121012984D01*
X146727525Y-121050500D01*
X146727528Y-121050500D01*
X146872473Y-121050500D01*
X146872475Y-121050500D01*
X146959001Y-121027315D01*
X147028848Y-121028976D01*
X147086711Y-121068138D01*
X147114216Y-121132366D01*
X147114313Y-121160972D01*
X147094500Y-121336824D01*
X147094500Y-121663175D01*
X147131035Y-121987441D01*
X147131038Y-121987455D01*
X147203655Y-122305612D01*
X147203656Y-122305614D01*
X147311438Y-122613640D01*
X147453030Y-122907657D01*
X147487168Y-122961988D01*
X147626654Y-123183979D01*
X147830123Y-123439121D01*
X148060879Y-123669877D01*
X148316021Y-123873346D01*
X148592340Y-124046968D01*
X148886361Y-124188562D01*
X149194387Y-124296344D01*
X149512544Y-124368962D01*
X149512553Y-124368963D01*
X149512558Y-124368964D01*
X149728735Y-124393320D01*
X149836825Y-124405499D01*
X149836828Y-124405500D01*
X149836831Y-124405500D01*
X150163172Y-124405500D01*
X150163173Y-124405499D01*
X150328900Y-124386826D01*
X150487441Y-124368964D01*
X150487444Y-124368963D01*
X150487456Y-124368962D01*
X150805613Y-124296344D01*
X151113639Y-124188562D01*
X151407660Y-124046968D01*
X151683979Y-123873346D01*
X151939121Y-123669877D01*
X152169877Y-123439121D01*
X152373346Y-123183979D01*
X152546968Y-122907660D01*
X152688562Y-122613639D01*
X152796344Y-122305613D01*
X152868962Y-121987456D01*
X152905500Y-121663169D01*
X152905500Y-121336831D01*
X152873239Y-121050500D01*
X152868964Y-121012558D01*
X152868963Y-121012553D01*
X152868962Y-121012544D01*
X152796344Y-120694387D01*
X152688562Y-120386361D01*
X152580509Y-120161988D01*
X152546969Y-120092342D01*
X152546968Y-120092340D01*
X152373346Y-119816021D01*
X152169877Y-119560879D01*
X151939121Y-119330123D01*
X151683979Y-119126654D01*
X151407660Y-118953032D01*
X151407657Y-118953030D01*
X151113640Y-118811438D01*
X150805614Y-118703656D01*
X150805612Y-118703655D01*
X150560073Y-118647612D01*
X150487456Y-118631038D01*
X150487453Y-118631037D01*
X150487441Y-118631035D01*
X150163175Y-118594500D01*
X150163169Y-118594500D01*
X149836831Y-118594500D01*
X149836824Y-118594500D01*
X149512558Y-118631035D01*
X149512544Y-118631038D01*
X149194387Y-118703655D01*
X149194385Y-118703656D01*
X148886359Y-118811438D01*
X148592342Y-118953030D01*
X148316022Y-119126653D01*
X148060879Y-119330122D01*
X147830122Y-119560879D01*
X147626653Y-119816022D01*
X147453031Y-120092340D01*
X147453029Y-120092344D01*
X147437140Y-120125338D01*
X147417393Y-120147208D01*
X147399731Y-120170803D01*
X147394241Y-120172850D01*
X147390317Y-120177197D01*
X147361880Y-120184919D01*
X147334266Y-120195219D01*
X147328542Y-120193973D01*
X147322890Y-120195509D01*
X147294792Y-120186632D01*
X147265993Y-120180367D01*
X147259443Y-120175463D01*
X147256266Y-120174460D01*
X147237744Y-120159220D01*
X147161818Y-120083294D01*
X147128334Y-120021970D01*
X147125500Y-119995613D01*
X147125500Y-117086189D01*
X147145185Y-117019150D01*
X147161819Y-116998508D01*
X147306240Y-116854087D01*
X147460465Y-116699862D01*
X147460465Y-116699861D01*
X147599860Y-116560466D01*
X147599862Y-116560465D01*
X147799860Y-116360466D01*
X147799862Y-116360465D01*
X147999860Y-116160466D01*
X147999862Y-116160465D01*
X148460465Y-115699862D01*
X148460465Y-115699861D01*
X148599860Y-115560466D01*
X148599862Y-115560465D01*
X148799860Y-115360466D01*
X148799862Y-115360465D01*
X148999860Y-115160466D01*
X148999862Y-115160465D01*
X149460465Y-114699862D01*
X149460465Y-114699861D01*
X149599860Y-114560466D01*
X149599862Y-114560465D01*
X149799860Y-114360466D01*
X149799862Y-114360465D01*
X149999860Y-114160466D01*
X149999862Y-114160465D01*
X150060465Y-114099862D01*
X150095295Y-114039535D01*
X150103318Y-114025639D01*
X150125501Y-113942853D01*
X150125501Y-113857147D01*
X150125501Y-113849552D01*
X150125500Y-113849534D01*
X150125500Y-109213525D01*
X150145185Y-109146486D01*
X150195040Y-109102124D01*
X150221483Y-109089198D01*
X150304198Y-109006483D01*
X150355573Y-108901393D01*
X150365500Y-108833260D01*
X150365500Y-107116740D01*
X150355573Y-107048607D01*
X150304198Y-106943517D01*
X150304196Y-106943515D01*
X150304196Y-106943514D01*
X150221485Y-106860803D01*
X150116391Y-106809426D01*
X150048261Y-106799500D01*
X150048260Y-106799500D01*
X149681740Y-106799500D01*
X149681739Y-106799500D01*
X149613608Y-106809426D01*
X149508514Y-106860803D01*
X149425803Y-106943514D01*
X149374426Y-107048608D01*
X149364500Y-107116739D01*
X149364500Y-108833260D01*
X149374426Y-108901391D01*
X149374427Y-108901393D01*
X149425802Y-109006483D01*
X149425803Y-109006484D01*
X149438179Y-109018860D01*
X149471666Y-109080182D01*
X149474500Y-109106543D01*
X149474500Y-112138759D01*
X149454815Y-112205798D01*
X149402011Y-112251553D01*
X149332853Y-112261497D01*
X149269297Y-112232472D01*
X149235939Y-112186212D01*
X149208952Y-112121060D01*
X149190058Y-112092783D01*
X148782842Y-112499999D01*
X148782842Y-112500001D01*
X149190057Y-112907216D01*
X149190058Y-112907215D01*
X149208950Y-112878943D01*
X149208953Y-112878938D01*
X149235939Y-112813789D01*
X149279780Y-112759385D01*
X149346074Y-112737320D01*
X149413773Y-112754599D01*
X149461384Y-112805736D01*
X149474500Y-112861241D01*
X149474500Y-113713811D01*
X149454815Y-113780850D01*
X149438185Y-113801487D01*
X149346604Y-113893069D01*
X149346603Y-113893068D01*
X148160784Y-115078888D01*
X148099461Y-115112373D01*
X148029769Y-115107389D01*
X147973836Y-115065517D01*
X147949419Y-115000053D01*
X147950165Y-114975012D01*
X147950498Y-114972481D01*
X147950500Y-114972475D01*
X147950500Y-114827525D01*
X147912984Y-114687515D01*
X147901888Y-114668297D01*
X147840511Y-114561988D01*
X147840510Y-114561987D01*
X147840509Y-114561985D01*
X147761818Y-114483294D01*
X147728334Y-114421970D01*
X147725500Y-114395613D01*
X147725500Y-113190058D01*
X148092783Y-113190058D01*
X148121059Y-113208952D01*
X148266648Y-113269256D01*
X148266656Y-113269258D01*
X148421202Y-113299999D01*
X148421206Y-113300000D01*
X148578794Y-113300000D01*
X148578797Y-113299999D01*
X148733343Y-113269258D01*
X148733355Y-113269255D01*
X148878938Y-113208953D01*
X148878943Y-113208950D01*
X148907215Y-113190058D01*
X148907216Y-113190057D01*
X148500001Y-112782842D01*
X148500000Y-112782842D01*
X148092783Y-113190058D01*
X147725500Y-113190058D01*
X147725500Y-113035711D01*
X147745185Y-112968672D01*
X147769905Y-112947251D01*
X148217157Y-112500000D01*
X148217157Y-112499999D01*
X147780924Y-112063765D01*
X147768297Y-112057999D01*
X147757197Y-112040728D01*
X147742296Y-112026603D01*
X147738088Y-112010993D01*
X147730523Y-111999221D01*
X147725500Y-111964286D01*
X147725500Y-111809941D01*
X148092782Y-111809941D01*
X148500000Y-112217157D01*
X148500001Y-112217157D01*
X148907215Y-111809941D01*
X148907215Y-111809940D01*
X148878940Y-111791048D01*
X148733351Y-111730743D01*
X148733343Y-111730741D01*
X148578797Y-111700000D01*
X148421202Y-111700000D01*
X148266656Y-111730741D01*
X148266648Y-111730743D01*
X148121059Y-111791048D01*
X148092782Y-111809941D01*
X147725500Y-111809941D01*
X147725500Y-110286188D01*
X147745185Y-110219149D01*
X147761812Y-110198513D01*
X147799860Y-110160466D01*
X147799862Y-110160465D01*
X147999860Y-109960466D01*
X147999862Y-109960465D01*
X148460465Y-109499862D01*
X148460465Y-109499861D01*
X148599860Y-109360466D01*
X148599862Y-109360465D01*
X148660465Y-109299862D01*
X148690944Y-109247071D01*
X148703318Y-109225639D01*
X148704373Y-109221700D01*
X148709781Y-109211548D01*
X148730195Y-109190703D01*
X148748502Y-109167986D01*
X148754929Y-109165449D01*
X148758669Y-109161632D01*
X148772771Y-109158410D01*
X148801343Y-109147136D01*
X148846393Y-109140573D01*
X148951483Y-109089198D01*
X149034198Y-109006483D01*
X149085573Y-108901393D01*
X149095500Y-108833260D01*
X149095500Y-107116740D01*
X149085573Y-107048607D01*
X149034198Y-106943517D01*
X149034196Y-106943515D01*
X149034196Y-106943514D01*
X148951485Y-106860803D01*
X148846391Y-106809426D01*
X148778261Y-106799500D01*
X148778260Y-106799500D01*
X148411740Y-106799500D01*
X148411739Y-106799500D01*
X148343608Y-106809426D01*
X148238514Y-106860803D01*
X148155803Y-106943514D01*
X148104426Y-107048608D01*
X148094500Y-107116739D01*
X148094500Y-108566178D01*
X148090275Y-108598271D01*
X148085564Y-108615853D01*
X148085534Y-108615965D01*
X148074536Y-108656855D01*
X148074500Y-108657140D01*
X148074500Y-108699619D01*
X148074451Y-108750214D01*
X148074500Y-108750957D01*
X148074500Y-108913809D01*
X148054815Y-108980848D01*
X148038181Y-109001490D01*
X148024805Y-109014866D01*
X147963482Y-109048351D01*
X147893790Y-109043367D01*
X147837857Y-109001495D01*
X147813440Y-108936031D01*
X147814420Y-108909307D01*
X147825500Y-108833260D01*
X147825500Y-107116739D01*
X147815573Y-107048608D01*
X147814860Y-107047149D01*
X147764198Y-106943517D01*
X147764196Y-106943515D01*
X147764196Y-106943514D01*
X147681485Y-106860803D01*
X147576391Y-106809426D01*
X147508261Y-106799500D01*
X147508260Y-106799500D01*
X147141740Y-106799500D01*
X147141739Y-106799500D01*
X147073608Y-106809426D01*
X146968514Y-106860803D01*
X146885802Y-106943515D01*
X146855154Y-107006207D01*
X146808026Y-107057789D01*
X146740492Y-107075703D01*
X146673993Y-107054262D01*
X146629644Y-107000272D01*
X146626712Y-106992700D01*
X146607346Y-106937354D01*
X146526792Y-106828207D01*
X146417645Y-106747653D01*
X146400179Y-106741542D01*
X146343403Y-106700820D01*
X146317655Y-106635867D01*
X146331111Y-106567306D01*
X146379498Y-106516903D01*
X146441133Y-106500500D01*
X147852725Y-106500500D01*
X147852727Y-106500500D01*
X147954588Y-106473207D01*
X148045913Y-106420480D01*
X148228471Y-106237919D01*
X148228474Y-106237918D01*
X148245912Y-106220480D01*
X148245913Y-106220480D01*
X148428471Y-106037919D01*
X148428474Y-106037918D01*
X148445912Y-106020480D01*
X148445913Y-106020480D01*
X148628471Y-105837919D01*
X148628474Y-105837918D01*
X148645912Y-105820480D01*
X148645913Y-105820480D01*
X148828471Y-105637919D01*
X148828474Y-105637918D01*
X148845912Y-105620480D01*
X148845913Y-105620480D01*
X149028471Y-105437919D01*
X149028474Y-105437918D01*
X149045912Y-105420480D01*
X149045913Y-105420480D01*
X149228471Y-105237919D01*
X149228474Y-105237918D01*
X149245912Y-105220480D01*
X149245913Y-105220480D01*
X149428471Y-105037919D01*
X149428474Y-105037918D01*
X149445912Y-105020480D01*
X149445913Y-105020480D01*
X149628471Y-104837919D01*
X149628474Y-104837918D01*
X149645912Y-104820480D01*
X149645913Y-104820480D01*
X149812319Y-104654071D01*
X149820262Y-104649734D01*
X149825688Y-104642487D01*
X149850447Y-104633252D01*
X149873640Y-104620588D01*
X149882669Y-104621233D01*
X149891152Y-104618070D01*
X149916974Y-104623687D01*
G37*
%TD.AperFunction*%
%TA.AperFunction,Conductor*%
G36*
X160661026Y-105120185D02*
G01*
X160706781Y-105172989D01*
X160716725Y-105242147D01*
X160709342Y-105269990D01*
X160660613Y-105393556D01*
X160650000Y-105481946D01*
X160650000Y-105800000D01*
X162250000Y-105800000D01*
X162250000Y-105481946D01*
X162239386Y-105393556D01*
X162190658Y-105269990D01*
X162184377Y-105200403D01*
X162216714Y-105138467D01*
X162277403Y-105103846D01*
X162306013Y-105100500D01*
X162851209Y-105100500D01*
X162918248Y-105120185D01*
X162964003Y-105172989D01*
X162973947Y-105242147D01*
X162950979Y-105298131D01*
X162940658Y-105312118D01*
X162922207Y-105337117D01*
X162922206Y-105337119D01*
X162877353Y-105465298D01*
X162877353Y-105465300D01*
X162874500Y-105495730D01*
X162874500Y-106113811D01*
X162854815Y-106180850D01*
X162838181Y-106201492D01*
X162461681Y-106577992D01*
X162400358Y-106611477D01*
X162330666Y-106606493D01*
X162274733Y-106564621D01*
X162250316Y-106499157D01*
X162250000Y-106490311D01*
X162250000Y-106200000D01*
X160650000Y-106200000D01*
X160650000Y-106518055D01*
X160657963Y-106584376D01*
X160653118Y-106613273D01*
X160651029Y-106642492D01*
X160647409Y-106647326D01*
X160646411Y-106653284D01*
X160626711Y-106674975D01*
X160609157Y-106698425D01*
X160603499Y-106700535D01*
X160599438Y-106705007D01*
X160571142Y-106712603D01*
X160543693Y-106722842D01*
X160537790Y-106721558D01*
X160531958Y-106723124D01*
X160504048Y-106714217D01*
X160475420Y-106707990D01*
X160468649Y-106702921D01*
X160465395Y-106701883D01*
X160447166Y-106686839D01*
X160286819Y-106526492D01*
X160253334Y-106465169D01*
X160250500Y-106438811D01*
X160250500Y-105470730D01*
X160247646Y-105440300D01*
X160247646Y-105440298D01*
X160202793Y-105312119D01*
X160202792Y-105312117D01*
X160198246Y-105305957D01*
X160192471Y-105298132D01*
X160168501Y-105232505D01*
X160183816Y-105164335D01*
X160233556Y-105115266D01*
X160292242Y-105100500D01*
X160593987Y-105100500D01*
X160661026Y-105120185D01*
G37*
%TD.AperFunction*%
%TA.AperFunction,Conductor*%
G36*
X132085000Y-108662787D02*
G01*
X132107149Y-108745445D01*
X132149936Y-108819554D01*
X132210446Y-108880064D01*
X132284555Y-108922851D01*
X132367213Y-108945000D01*
X132367842Y-108945000D01*
X132057842Y-109255000D01*
X132367842Y-109565000D01*
X132367213Y-109565000D01*
X132284555Y-109587149D01*
X132210446Y-109629936D01*
X132149936Y-109690446D01*
X132107149Y-109764555D01*
X132085000Y-109847213D01*
X132085000Y-109847842D01*
X131790406Y-109553248D01*
X131774985Y-109534457D01*
X131703535Y-109427525D01*
X131703529Y-109427517D01*
X131618693Y-109342681D01*
X131614354Y-109334735D01*
X131607107Y-109329310D01*
X131597872Y-109304550D01*
X131585208Y-109281358D01*
X131585853Y-109272328D01*
X131582690Y-109263846D01*
X131588306Y-109238025D01*
X131590192Y-109211666D01*
X131596010Y-109202612D01*
X131597542Y-109195573D01*
X131618693Y-109167319D01*
X131670055Y-109115957D01*
X131703527Y-109082484D01*
X131703528Y-109082483D01*
X131703529Y-109082482D01*
X131703532Y-109082479D01*
X131774993Y-108975529D01*
X131790406Y-108956749D01*
X132085000Y-108662155D01*
X132085000Y-108662787D01*
G37*
%TD.AperFunction*%
%TA.AperFunction,Conductor*%
G36*
X132085000Y-107392787D02*
G01*
X132107149Y-107475445D01*
X132149936Y-107549554D01*
X132210446Y-107610064D01*
X132284555Y-107652851D01*
X132367213Y-107675000D01*
X132367842Y-107675000D01*
X132057842Y-107985000D01*
X132367842Y-108295000D01*
X132367213Y-108295000D01*
X132284555Y-108317149D01*
X132210446Y-108359936D01*
X132149936Y-108420446D01*
X132107149Y-108494555D01*
X132085000Y-108577213D01*
X132085000Y-108577842D01*
X131790406Y-108283248D01*
X131774985Y-108264457D01*
X131703535Y-108157525D01*
X131703529Y-108157517D01*
X131618693Y-108072681D01*
X131614354Y-108064735D01*
X131607107Y-108059310D01*
X131597872Y-108034550D01*
X131585208Y-108011358D01*
X131585853Y-108002328D01*
X131582690Y-107993846D01*
X131588306Y-107968025D01*
X131590192Y-107941666D01*
X131596010Y-107932612D01*
X131597542Y-107925573D01*
X131618693Y-107897319D01*
X131670055Y-107845957D01*
X131703527Y-107812484D01*
X131703528Y-107812483D01*
X131703529Y-107812482D01*
X131703532Y-107812479D01*
X131774993Y-107705529D01*
X131790406Y-107686749D01*
X132085000Y-107392155D01*
X132085000Y-107392787D01*
G37*
%TD.AperFunction*%
%TA.AperFunction,Conductor*%
G36*
X132085000Y-106122787D02*
G01*
X132107149Y-106205445D01*
X132149936Y-106279554D01*
X132210446Y-106340064D01*
X132284555Y-106382851D01*
X132367213Y-106405000D01*
X132367842Y-106405000D01*
X132057842Y-106715000D01*
X132367842Y-107025000D01*
X132367213Y-107025000D01*
X132284555Y-107047149D01*
X132210446Y-107089936D01*
X132149936Y-107150446D01*
X132107149Y-107224555D01*
X132085000Y-107307213D01*
X132085000Y-107307842D01*
X131790406Y-107013248D01*
X131774985Y-106994457D01*
X131703535Y-106887525D01*
X131703529Y-106887517D01*
X131618693Y-106802681D01*
X131614354Y-106794735D01*
X131607107Y-106789310D01*
X131597872Y-106764550D01*
X131585208Y-106741358D01*
X131585853Y-106732328D01*
X131582690Y-106723846D01*
X131588306Y-106698025D01*
X131590192Y-106671666D01*
X131596010Y-106662612D01*
X131597542Y-106655573D01*
X131618693Y-106627319D01*
X131670055Y-106575957D01*
X131703527Y-106542484D01*
X131703528Y-106542483D01*
X131703529Y-106542482D01*
X131703532Y-106542479D01*
X131774993Y-106435529D01*
X131790406Y-106416749D01*
X132085000Y-106122155D01*
X132085000Y-106122787D01*
G37*
%TD.AperFunction*%
%TA.AperFunction,Conductor*%
G36*
X133039212Y-106426370D02*
G01*
X133072697Y-106487693D01*
X133071306Y-106546144D01*
X133064472Y-106571650D01*
X133049500Y-106627525D01*
X133049500Y-106772475D01*
X133077645Y-106877515D01*
X133075983Y-106947364D01*
X133045552Y-106997289D01*
X132735000Y-107307841D01*
X132735000Y-107307213D01*
X132712851Y-107224555D01*
X132670064Y-107150446D01*
X132609554Y-107089936D01*
X132535445Y-107047149D01*
X132452787Y-107025000D01*
X132452158Y-107025000D01*
X132762158Y-106715000D01*
X132452158Y-106405000D01*
X132452787Y-106405000D01*
X132535445Y-106382851D01*
X132609554Y-106340064D01*
X132670064Y-106279554D01*
X132712851Y-106205445D01*
X132735000Y-106122787D01*
X132735000Y-106122158D01*
X133039212Y-106426370D01*
G37*
%TD.AperFunction*%
%TA.AperFunction,Conductor*%
G36*
X132085000Y-104852787D02*
G01*
X132107149Y-104935445D01*
X132149936Y-105009554D01*
X132210446Y-105070064D01*
X132284555Y-105112851D01*
X132367213Y-105135000D01*
X132367842Y-105135000D01*
X132057842Y-105445000D01*
X132367842Y-105755000D01*
X132367213Y-105755000D01*
X132284555Y-105777149D01*
X132210446Y-105819936D01*
X132149936Y-105880446D01*
X132107149Y-105954555D01*
X132085000Y-106037213D01*
X132085000Y-106037842D01*
X131790406Y-105743248D01*
X131774985Y-105724457D01*
X131703535Y-105617525D01*
X131703529Y-105617517D01*
X131618693Y-105532681D01*
X131614354Y-105524735D01*
X131607107Y-105519310D01*
X131597872Y-105494550D01*
X131585208Y-105471358D01*
X131585853Y-105462328D01*
X131582690Y-105453846D01*
X131588306Y-105428025D01*
X131590192Y-105401666D01*
X131596010Y-105392612D01*
X131597542Y-105385573D01*
X131618693Y-105357319D01*
X131670055Y-105305957D01*
X131703527Y-105272484D01*
X131703528Y-105272483D01*
X131703532Y-105272479D01*
X131774993Y-105165529D01*
X131790406Y-105146749D01*
X132085000Y-104852155D01*
X132085000Y-104852787D01*
G37*
%TD.AperFunction*%
%TA.AperFunction,Conductor*%
G36*
X133118080Y-105235239D02*
G01*
X133138346Y-105233244D01*
X133153191Y-105236059D01*
X133168147Y-105233909D01*
X133186822Y-105242437D01*
X133206992Y-105246263D01*
X133217958Y-105256656D01*
X133231703Y-105262934D01*
X133242801Y-105280204D01*
X133257703Y-105294328D01*
X133261910Y-105309938D01*
X133269477Y-105321712D01*
X133274500Y-105356647D01*
X133274500Y-105533351D01*
X133254815Y-105600390D01*
X133202011Y-105646145D01*
X133138348Y-105656754D01*
X133118081Y-105654758D01*
X132735000Y-106037840D01*
X132735000Y-106037213D01*
X132712851Y-105954555D01*
X132670064Y-105880446D01*
X132609554Y-105819936D01*
X132535445Y-105777149D01*
X132452787Y-105755000D01*
X132452158Y-105755000D01*
X132762158Y-105445000D01*
X132452158Y-105135000D01*
X132452787Y-105135000D01*
X132535445Y-105112851D01*
X132609554Y-105070064D01*
X132670064Y-105009554D01*
X132712851Y-104935445D01*
X132735000Y-104852787D01*
X132735000Y-104852158D01*
X133118080Y-105235239D01*
G37*
%TD.AperFunction*%
%TA.AperFunction,Conductor*%
G36*
X131860277Y-104026468D02*
G01*
X131863625Y-104025678D01*
X131893564Y-104036242D01*
X131924018Y-104045185D01*
X131928000Y-104048394D01*
X131929513Y-104048928D01*
X131930935Y-104050759D01*
X131944660Y-104061819D01*
X132367842Y-104485000D01*
X132367213Y-104485000D01*
X132284555Y-104507149D01*
X132210446Y-104549936D01*
X132149936Y-104610446D01*
X132107149Y-104684555D01*
X132085000Y-104767213D01*
X132085000Y-104767842D01*
X131790406Y-104473248D01*
X131786873Y-104466778D01*
X131774985Y-104454457D01*
X131703535Y-104347525D01*
X131703529Y-104347517D01*
X131602482Y-104246470D01*
X131601122Y-104245354D01*
X131600600Y-104244588D01*
X131598172Y-104242160D01*
X131598632Y-104241699D01*
X131561787Y-104187608D01*
X131559916Y-104117764D01*
X131596103Y-104057995D01*
X131658859Y-104027279D01*
X131679786Y-104025500D01*
X131856979Y-104025500D01*
X131860277Y-104026468D01*
G37*
%TD.AperFunction*%
%TA.AperFunction,Conductor*%
G36*
X179993037Y-100800883D02*
G01*
X180099145Y-100809249D01*
X180118318Y-100812284D01*
X180206455Y-100833426D01*
X180224944Y-100839428D01*
X180308280Y-100873912D01*
X180325592Y-100882722D01*
X180402307Y-100929667D01*
X180418235Y-100941248D01*
X180486464Y-100999672D01*
X180500056Y-101013273D01*
X180558826Y-101082011D01*
X180570298Y-101097793D01*
X180617284Y-101174461D01*
X180626137Y-101191843D01*
X180660771Y-101275542D01*
X180666701Y-101293734D01*
X180687875Y-101381059D01*
X180691004Y-101400792D01*
X180699137Y-101506782D01*
X180699500Y-101516269D01*
X180699500Y-141483732D01*
X180699137Y-141493218D01*
X180691003Y-141599237D01*
X180687874Y-141618971D01*
X180666707Y-141706268D01*
X180660773Y-141724469D01*
X180626145Y-141808133D01*
X180617294Y-141825509D01*
X180570286Y-141902208D01*
X180558820Y-141917981D01*
X180500047Y-141986738D01*
X180486448Y-142000350D01*
X180418235Y-142058768D01*
X180402295Y-142070357D01*
X180325558Y-142117310D01*
X180308278Y-142126106D01*
X180224992Y-142160592D01*
X180206433Y-142166615D01*
X180118350Y-142187709D01*
X180099226Y-142190735D01*
X179993024Y-142199116D01*
X179983269Y-142199500D01*
X98016683Y-142199500D01*
X98006953Y-142199118D01*
X97993253Y-142198039D01*
X97900483Y-142190737D01*
X97881264Y-142187692D01*
X97793610Y-142166646D01*
X97775122Y-142160640D01*
X97691853Y-142126161D01*
X97674502Y-142117322D01*
X97597707Y-142070263D01*
X97581958Y-142058820D01*
X97513476Y-142000320D01*
X97499721Y-141986562D01*
X97441189Y-141918018D01*
X97429767Y-141902296D01*
X97382704Y-141825508D01*
X97373853Y-141808133D01*
X97339373Y-141724825D01*
X97333392Y-141706421D01*
X97312303Y-141618735D01*
X97309248Y-141599463D01*
X97309230Y-141599237D01*
X97300882Y-141493062D01*
X97300500Y-141483342D01*
X97300500Y-138999999D01*
X98300000Y-138999999D01*
X98342271Y-139429196D01*
X98467466Y-139841907D01*
X98670762Y-140222248D01*
X98670766Y-140222255D01*
X98944364Y-140555634D01*
X99277743Y-140829232D01*
X99277750Y-140829236D01*
X99658091Y-141032532D01*
X99658093Y-141032532D01*
X99658096Y-141032534D01*
X100070801Y-141157727D01*
X100070800Y-141157727D01*
X100113073Y-141161890D01*
X100500000Y-141200000D01*
X100929198Y-141157727D01*
X101341903Y-141032534D01*
X101722254Y-140829233D01*
X102055634Y-140555634D01*
X102329233Y-140222254D01*
X102532534Y-139841903D01*
X102657727Y-139429198D01*
X102700000Y-139000000D01*
X102700000Y-138999999D01*
X175300000Y-138999999D01*
X175342271Y-139429196D01*
X175467466Y-139841907D01*
X175670762Y-140222248D01*
X175670766Y-140222255D01*
X175944364Y-140555634D01*
X176277743Y-140829232D01*
X176277750Y-140829236D01*
X176658091Y-141032532D01*
X176658093Y-141032532D01*
X176658096Y-141032534D01*
X177070801Y-141157727D01*
X177070800Y-141157727D01*
X177113073Y-141161890D01*
X177500000Y-141200000D01*
X177929198Y-141157727D01*
X178341903Y-141032534D01*
X178722254Y-140829233D01*
X179055634Y-140555634D01*
X179329233Y-140222254D01*
X179532534Y-139841903D01*
X179657727Y-139429198D01*
X179700000Y-139000000D01*
X179657727Y-138570801D01*
X179532534Y-138158096D01*
X179532532Y-138158093D01*
X179532532Y-138158091D01*
X179329236Y-137777750D01*
X179329232Y-137777743D01*
X179055634Y-137444364D01*
X178722255Y-137170766D01*
X178722248Y-137170762D01*
X178341907Y-136967466D01*
X177929196Y-136842271D01*
X177500000Y-136800000D01*
X177070802Y-136842271D01*
X176658091Y-136967466D01*
X176277750Y-137170762D01*
X176277743Y-137170766D01*
X175944364Y-137444364D01*
X175670766Y-137777743D01*
X175670762Y-137777750D01*
X175467466Y-138158091D01*
X175342271Y-138570802D01*
X175300000Y-138999999D01*
X102700000Y-138999999D01*
X102657727Y-138570801D01*
X102532534Y-138158096D01*
X102532532Y-138158093D01*
X102532532Y-138158091D01*
X102329236Y-137777750D01*
X102329232Y-137777743D01*
X102055634Y-137444364D01*
X101938595Y-137348313D01*
X101722255Y-137170766D01*
X101722248Y-137170762D01*
X101341907Y-136967466D01*
X100929196Y-136842271D01*
X100500000Y-136800000D01*
X100070802Y-136842271D01*
X99658091Y-136967466D01*
X99277750Y-137170762D01*
X99277743Y-137170766D01*
X98944364Y-137444364D01*
X98670766Y-137777743D01*
X98670762Y-137777750D01*
X98467466Y-138158091D01*
X98342271Y-138570802D01*
X98300000Y-138999999D01*
X97300500Y-138999999D01*
X97300500Y-131970730D01*
X124349500Y-131970730D01*
X124349500Y-133029269D01*
X124352353Y-133059699D01*
X124352353Y-133059701D01*
X124393352Y-133176866D01*
X124397207Y-133187882D01*
X124477850Y-133297150D01*
X124587118Y-133377793D01*
X124629845Y-133392744D01*
X124715299Y-133422646D01*
X124745730Y-133425500D01*
X124745734Y-133425500D01*
X125354270Y-133425500D01*
X125384699Y-133422646D01*
X125384701Y-133422646D01*
X125456145Y-133397646D01*
X125512882Y-133377793D01*
X125622150Y-133297150D01*
X125702793Y-133187882D01*
X125731290Y-133106443D01*
X125747646Y-133059701D01*
X125747646Y-133059699D01*
X125750500Y-133029269D01*
X125750500Y-133018053D01*
X126150000Y-133018053D01*
X126160613Y-133106443D01*
X126216079Y-133247095D01*
X126307435Y-133367564D01*
X126427904Y-133458920D01*
X126568556Y-133514386D01*
X126656946Y-133525000D01*
X126750000Y-133525000D01*
X127150000Y-133525000D01*
X127243054Y-133525000D01*
X127331443Y-133514386D01*
X127472095Y-133458920D01*
X127592564Y-133367564D01*
X127683920Y-133247095D01*
X127739386Y-133106443D01*
X127750000Y-133018053D01*
X127750000Y-132700000D01*
X127150000Y-132700000D01*
X127150000Y-133525000D01*
X126750000Y-133525000D01*
X126750000Y-132700000D01*
X126150000Y-132700000D01*
X126150000Y-133018053D01*
X125750500Y-133018053D01*
X125750500Y-132061187D01*
X125770185Y-131994148D01*
X125786814Y-131973510D01*
X125860465Y-131899860D01*
X125860464Y-131899860D01*
X125947169Y-131813155D01*
X126008492Y-131779672D01*
X126078184Y-131784658D01*
X126134116Y-131826530D01*
X126158532Y-131891995D01*
X126157964Y-131915623D01*
X126150000Y-131981946D01*
X126150000Y-132300000D01*
X127750000Y-132300000D01*
X127750000Y-131981946D01*
X127739386Y-131893556D01*
X127683920Y-131752904D01*
X127587440Y-131625677D01*
X127589978Y-131623751D01*
X127586699Y-131617744D01*
X127572199Y-131601011D01*
X127570282Y-131587679D01*
X127563827Y-131575858D01*
X127565406Y-131553771D01*
X127562255Y-131531853D01*
X127567850Y-131519601D01*
X127568811Y-131506166D01*
X127582081Y-131488439D01*
X127591280Y-131468297D01*
X127602611Y-131461014D01*
X127610683Y-131450233D01*
X127631428Y-131442495D01*
X127650058Y-131430523D01*
X127671976Y-131427371D01*
X127676147Y-131425816D01*
X127684993Y-131425500D01*
X127813811Y-131425500D01*
X127880850Y-131445185D01*
X127901493Y-131461820D01*
X127939531Y-131499859D01*
X127939535Y-131499862D01*
X128338501Y-131898828D01*
X128371986Y-131960151D01*
X128373991Y-131992807D01*
X128374635Y-131992838D01*
X128374500Y-131995723D01*
X128374500Y-133004269D01*
X128377353Y-133034699D01*
X128377353Y-133034701D01*
X128419886Y-133156250D01*
X128422207Y-133162882D01*
X128502850Y-133272150D01*
X128612118Y-133352793D01*
X128654331Y-133367564D01*
X128740299Y-133397646D01*
X128770730Y-133400500D01*
X128770734Y-133400500D01*
X129188811Y-133400500D01*
X129255850Y-133420185D01*
X129276491Y-133436818D01*
X129339533Y-133499860D01*
X129339535Y-133499862D01*
X129539535Y-133699861D01*
X129539536Y-133699862D01*
X129739533Y-133899859D01*
X129739535Y-133899861D01*
X129800138Y-133960464D01*
X129800140Y-133960465D01*
X129800144Y-133960468D01*
X129848282Y-133988260D01*
X129874362Y-134003317D01*
X129957147Y-134025499D01*
X129957148Y-134025499D01*
X129957149Y-134025499D01*
X134042851Y-134025499D01*
X134042853Y-134025499D01*
X134125639Y-134003317D01*
X134199862Y-133960464D01*
X134460464Y-133699862D01*
X134460464Y-133699861D01*
X134477897Y-133682428D01*
X134477906Y-133682418D01*
X134635327Y-133525000D01*
X134660464Y-133499863D01*
X134660464Y-133499862D01*
X134677898Y-133482429D01*
X134677902Y-133482423D01*
X134723508Y-133436818D01*
X134784831Y-133403333D01*
X134811188Y-133400500D01*
X135229270Y-133400500D01*
X135259699Y-133397646D01*
X135259701Y-133397646D01*
X135325850Y-133374499D01*
X135387882Y-133352793D01*
X135497150Y-133272150D01*
X135577793Y-133162882D01*
X135608022Y-133076492D01*
X135622646Y-133034701D01*
X135622646Y-133034699D01*
X135625500Y-133004269D01*
X135625500Y-132497236D01*
X135642112Y-132435238D01*
X135712984Y-132312485D01*
X135750500Y-132172475D01*
X135750500Y-132027525D01*
X135712984Y-131887515D01*
X135692199Y-131851515D01*
X135640511Y-131761988D01*
X135640506Y-131761982D01*
X135590705Y-131712181D01*
X135557220Y-131650858D01*
X135562204Y-131581166D01*
X135604076Y-131525233D01*
X135669540Y-131500816D01*
X135678386Y-131500500D01*
X137852725Y-131500500D01*
X137852727Y-131500500D01*
X137954588Y-131473207D01*
X138045913Y-131420480D01*
X138320480Y-131145912D01*
X138320480Y-131145911D01*
X138520480Y-130945911D01*
X138520479Y-130945911D01*
X138633991Y-130832399D01*
X138633999Y-130832393D01*
X138645911Y-130820480D01*
X138645913Y-130820480D01*
X139320480Y-130145913D01*
X139320480Y-130145911D01*
X139332391Y-130134001D01*
X139332396Y-130133993D01*
X139520480Y-129945911D01*
X139520479Y-129945911D01*
X139579048Y-129887342D01*
X139633991Y-129832399D01*
X139633999Y-129832393D01*
X139645911Y-129820480D01*
X139645913Y-129820480D01*
X140320480Y-129145913D01*
X140320480Y-129145911D01*
X140332391Y-129134001D01*
X140332396Y-129133993D01*
X140520480Y-128945911D01*
X140520479Y-128945911D01*
X140579048Y-128887342D01*
X140633991Y-128832399D01*
X140633999Y-128832393D01*
X140645911Y-128820480D01*
X140645913Y-128820480D01*
X141320480Y-128145913D01*
X141320480Y-128145912D01*
X141428470Y-128037920D01*
X141428474Y-128037918D01*
X141445912Y-128020480D01*
X141445913Y-128020480D01*
X141628471Y-127837919D01*
X141628474Y-127837918D01*
X141645912Y-127820480D01*
X141645913Y-127820480D01*
X141828471Y-127637919D01*
X141828474Y-127637918D01*
X141845912Y-127620480D01*
X141845913Y-127620480D01*
X142028471Y-127437919D01*
X142028474Y-127437918D01*
X142045912Y-127420480D01*
X142045913Y-127420480D01*
X142228471Y-127237919D01*
X142228474Y-127237918D01*
X142245912Y-127220480D01*
X142245913Y-127220480D01*
X142428471Y-127037919D01*
X142428474Y-127037918D01*
X142445912Y-127020480D01*
X142445913Y-127020480D01*
X142628471Y-126837919D01*
X142628474Y-126837918D01*
X142645912Y-126820480D01*
X142645913Y-126820480D01*
X142828471Y-126637919D01*
X142828474Y-126637918D01*
X142845912Y-126620480D01*
X142845913Y-126620480D01*
X143028471Y-126437919D01*
X143028474Y-126437918D01*
X143045912Y-126420480D01*
X143045913Y-126420480D01*
X143228471Y-126237919D01*
X143228474Y-126237918D01*
X143245912Y-126220480D01*
X143245913Y-126220480D01*
X143428471Y-126037919D01*
X143428474Y-126037918D01*
X143445912Y-126020480D01*
X143445913Y-126020480D01*
X143628471Y-125837919D01*
X143628474Y-125837918D01*
X143645912Y-125820480D01*
X143645913Y-125820480D01*
X143828471Y-125637919D01*
X143828474Y-125637918D01*
X143845912Y-125620480D01*
X143845913Y-125620480D01*
X144028471Y-125437919D01*
X144028474Y-125437918D01*
X144045912Y-125420480D01*
X144045913Y-125420480D01*
X144228471Y-125237919D01*
X144228474Y-125237918D01*
X144245912Y-125220480D01*
X144245913Y-125220480D01*
X144428471Y-125037919D01*
X144428474Y-125037918D01*
X144445912Y-125020480D01*
X144445913Y-125020480D01*
X144628471Y-124837919D01*
X144628474Y-124837918D01*
X144645912Y-124820480D01*
X144645913Y-124820480D01*
X144828471Y-124637919D01*
X144828474Y-124637918D01*
X144845912Y-124620480D01*
X144845913Y-124620480D01*
X145028471Y-124437919D01*
X145028474Y-124437918D01*
X145045912Y-124420480D01*
X145045913Y-124420480D01*
X145245911Y-124220480D01*
X145245913Y-124220480D01*
X145312321Y-124154070D01*
X145344402Y-124136554D01*
X145373640Y-124120588D01*
X145373643Y-124120588D01*
X145443334Y-124125572D01*
X145443346Y-124125581D01*
X145487678Y-124154071D01*
X145587695Y-124254087D01*
X145672449Y-124338841D01*
X145672452Y-124338845D01*
X145872449Y-124538841D01*
X145872452Y-124538845D01*
X145879519Y-124545912D01*
X145879520Y-124545913D01*
X146079519Y-124745911D01*
X146079520Y-124745913D01*
X146167357Y-124833749D01*
X146241683Y-124908076D01*
X146275168Y-124969399D01*
X146270184Y-125039091D01*
X146228312Y-125095024D01*
X146162848Y-125119441D01*
X146097706Y-125106241D01*
X146060838Y-125087455D01*
X145881118Y-125029059D01*
X145694486Y-124999500D01*
X145694481Y-124999500D01*
X145505519Y-124999500D01*
X145505514Y-124999500D01*
X145318881Y-125029059D01*
X145139163Y-125087454D01*
X144970800Y-125173240D01*
X144905781Y-125220480D01*
X144817927Y-125284310D01*
X144817925Y-125284312D01*
X144817924Y-125284312D01*
X144684312Y-125417924D01*
X144684312Y-125417925D01*
X144684310Y-125417927D01*
X144650819Y-125464023D01*
X144573240Y-125570800D01*
X144487454Y-125739163D01*
X144429059Y-125918881D01*
X144399500Y-126105513D01*
X144399500Y-126294486D01*
X144429059Y-126481118D01*
X144487454Y-126660836D01*
X144544907Y-126773593D01*
X144573240Y-126829199D01*
X144684310Y-126982073D01*
X144817927Y-127115690D01*
X144970801Y-127226760D01*
X145050347Y-127267290D01*
X145139163Y-127312545D01*
X145139165Y-127312545D01*
X145139168Y-127312547D01*
X145235497Y-127343846D01*
X145318881Y-127370940D01*
X145505514Y-127400500D01*
X145505519Y-127400500D01*
X145694486Y-127400500D01*
X145881118Y-127370940D01*
X145912181Y-127360847D01*
X145982022Y-127358852D01*
X146041855Y-127394932D01*
X146072684Y-127457632D01*
X146074500Y-127478778D01*
X146074500Y-127657147D01*
X146074500Y-127742853D01*
X146082430Y-127772449D01*
X146096682Y-127825640D01*
X146104705Y-127839535D01*
X146139535Y-127899862D01*
X146139537Y-127899864D01*
X146739535Y-128499862D01*
X146939536Y-128699862D01*
X147139533Y-128899858D01*
X147139535Y-128899860D01*
X147332464Y-129092790D01*
X147332467Y-129092794D01*
X147739535Y-129499862D01*
X147939536Y-129699862D01*
X148139533Y-129899858D01*
X148139535Y-129899860D01*
X148332464Y-130092790D01*
X148332467Y-130092794D01*
X148739535Y-130499862D01*
X148939536Y-130699862D01*
X149139533Y-130899858D01*
X149139535Y-130899860D01*
X149332464Y-131092790D01*
X149332467Y-131092794D01*
X149677120Y-131437447D01*
X149710605Y-131498770D01*
X149705621Y-131568462D01*
X149663749Y-131624395D01*
X149598285Y-131648812D01*
X149548484Y-131642169D01*
X149434700Y-131602353D01*
X149404270Y-131599500D01*
X149404266Y-131599500D01*
X149011189Y-131599500D01*
X148944150Y-131579815D01*
X148923508Y-131563181D01*
X148199864Y-130839537D01*
X148199862Y-130839535D01*
X148162750Y-130818108D01*
X148125640Y-130796682D01*
X148061588Y-130779520D01*
X148042853Y-130774500D01*
X148042852Y-130774500D01*
X146250465Y-130774500D01*
X146250449Y-130774499D01*
X146242853Y-130774499D01*
X146157147Y-130774499D01*
X146101956Y-130789287D01*
X146074360Y-130796682D01*
X146055805Y-130807395D01*
X146037250Y-130818108D01*
X146012508Y-130832393D01*
X146000138Y-130839535D01*
X145946604Y-130893069D01*
X145946603Y-130893068D01*
X145301491Y-131538181D01*
X145240168Y-131571666D01*
X145213810Y-131574500D01*
X144745730Y-131574500D01*
X144715300Y-131577353D01*
X144715298Y-131577353D01*
X144587119Y-131622206D01*
X144587117Y-131622207D01*
X144477850Y-131702850D01*
X144397207Y-131812117D01*
X144397206Y-131812119D01*
X144352353Y-131940298D01*
X144352353Y-131940300D01*
X144349500Y-131970730D01*
X144349500Y-133029269D01*
X144352353Y-133059699D01*
X144352353Y-133059701D01*
X144393352Y-133176866D01*
X144397207Y-133187882D01*
X144477850Y-133297150D01*
X144587118Y-133377793D01*
X144629845Y-133392744D01*
X144715299Y-133422646D01*
X144745730Y-133425500D01*
X144745734Y-133425500D01*
X145354270Y-133425500D01*
X145384699Y-133422646D01*
X145384701Y-133422646D01*
X145456145Y-133397646D01*
X145512882Y-133377793D01*
X145622150Y-133297150D01*
X145702793Y-133187882D01*
X145731290Y-133106443D01*
X145747646Y-133059701D01*
X145747646Y-133059699D01*
X145750500Y-133029269D01*
X145750500Y-133018053D01*
X146150000Y-133018053D01*
X146160613Y-133106443D01*
X146216079Y-133247095D01*
X146307435Y-133367564D01*
X146427904Y-133458920D01*
X146568556Y-133514386D01*
X146656946Y-133525000D01*
X146750000Y-133525000D01*
X147150000Y-133525000D01*
X147243054Y-133525000D01*
X147331443Y-133514386D01*
X147472095Y-133458920D01*
X147592564Y-133367564D01*
X147683920Y-133247095D01*
X147739386Y-133106443D01*
X147750000Y-133018053D01*
X147750000Y-132700000D01*
X147150000Y-132700000D01*
X147150000Y-133525000D01*
X146750000Y-133525000D01*
X146750000Y-132700000D01*
X146150000Y-132700000D01*
X146150000Y-133018053D01*
X145750500Y-133018053D01*
X145750500Y-132061187D01*
X145770185Y-131994148D01*
X145786814Y-131973510D01*
X145860465Y-131899860D01*
X145860464Y-131899860D01*
X145947169Y-131813155D01*
X146008492Y-131779672D01*
X146078184Y-131784658D01*
X146134116Y-131826530D01*
X146158532Y-131891995D01*
X146157964Y-131915623D01*
X146150000Y-131981946D01*
X146150000Y-132300000D01*
X147750000Y-132300000D01*
X147750000Y-131981946D01*
X147739386Y-131893556D01*
X147683920Y-131752904D01*
X147587440Y-131625677D01*
X147589978Y-131623751D01*
X147586699Y-131617744D01*
X147572199Y-131601011D01*
X147570282Y-131587679D01*
X147563827Y-131575858D01*
X147565406Y-131553771D01*
X147562255Y-131531853D01*
X147567850Y-131519601D01*
X147568811Y-131506166D01*
X147582081Y-131488439D01*
X147591280Y-131468297D01*
X147602611Y-131461014D01*
X147610683Y-131450233D01*
X147631428Y-131442495D01*
X147650058Y-131430523D01*
X147671976Y-131427371D01*
X147676147Y-131425816D01*
X147684993Y-131425500D01*
X147813811Y-131425500D01*
X147880850Y-131445185D01*
X147901492Y-131461819D01*
X148338501Y-131898828D01*
X148371986Y-131960151D01*
X148373991Y-131992807D01*
X148374635Y-131992838D01*
X148374500Y-131995723D01*
X148374500Y-133004269D01*
X148377353Y-133034699D01*
X148377353Y-133034701D01*
X148419886Y-133156250D01*
X148422207Y-133162882D01*
X148502850Y-133272150D01*
X148612118Y-133352793D01*
X148654331Y-133367564D01*
X148740299Y-133397646D01*
X148770730Y-133400500D01*
X148770734Y-133400500D01*
X149188811Y-133400500D01*
X149255850Y-133420185D01*
X149276491Y-133436818D01*
X149339533Y-133499860D01*
X149339535Y-133499862D01*
X149539535Y-133699861D01*
X149539536Y-133699862D01*
X149739533Y-133899859D01*
X149739535Y-133899861D01*
X149800138Y-133960464D01*
X149800140Y-133960465D01*
X149800144Y-133960468D01*
X149848282Y-133988260D01*
X149874362Y-134003317D01*
X149957147Y-134025499D01*
X149957148Y-134025499D01*
X149957149Y-134025499D01*
X154042851Y-134025499D01*
X154042852Y-134025499D01*
X154042853Y-134025499D01*
X154125638Y-134003317D01*
X154199862Y-133960464D01*
X154260465Y-133899861D01*
X154260466Y-133899859D01*
X154399859Y-133760466D01*
X154399862Y-133760465D01*
X154599860Y-133560466D01*
X154599862Y-133560465D01*
X154677909Y-133482418D01*
X154723508Y-133436819D01*
X154784831Y-133403334D01*
X154811189Y-133400500D01*
X155229270Y-133400500D01*
X155259699Y-133397646D01*
X155259701Y-133397646D01*
X155325850Y-133374499D01*
X155387882Y-133352793D01*
X155497150Y-133272150D01*
X155577793Y-133162882D01*
X155608022Y-133076492D01*
X155622646Y-133034701D01*
X155622646Y-133034699D01*
X155625500Y-133004269D01*
X155625500Y-131995730D01*
X155622646Y-131965300D01*
X155622646Y-131965298D01*
X155577793Y-131837119D01*
X155577792Y-131837117D01*
X155574729Y-131832967D01*
X155497150Y-131727850D01*
X155387882Y-131647207D01*
X155387880Y-131647206D01*
X155259700Y-131602353D01*
X155229270Y-131599500D01*
X155229266Y-131599500D01*
X155049500Y-131599500D01*
X154982461Y-131579815D01*
X154936706Y-131527011D01*
X154925500Y-131475500D01*
X154925500Y-116752855D01*
X154925501Y-116752842D01*
X154925501Y-116657148D01*
X154924681Y-116654087D01*
X154903318Y-116574361D01*
X154869664Y-116516071D01*
X154860465Y-116500138D01*
X154799862Y-116439535D01*
X154799860Y-116439533D01*
X154599862Y-116239535D01*
X154599860Y-116239533D01*
X154399862Y-116039535D01*
X154399860Y-116039533D01*
X154199862Y-115839535D01*
X154199860Y-115839533D01*
X153999862Y-115639535D01*
X153999860Y-115639533D01*
X153799862Y-115439535D01*
X153799860Y-115439533D01*
X153599862Y-115239535D01*
X153599860Y-115239533D01*
X153399862Y-115039535D01*
X153399860Y-115039533D01*
X153199862Y-114839535D01*
X153199860Y-114839533D01*
X152999862Y-114639535D01*
X152999860Y-114639533D01*
X152799862Y-114439535D01*
X152799860Y-114439533D01*
X152599862Y-114239535D01*
X152599860Y-114239533D01*
X152399862Y-114039535D01*
X152399860Y-114039533D01*
X152199862Y-113839535D01*
X152199860Y-113839533D01*
X151999862Y-113639535D01*
X151999860Y-113639533D01*
X151799862Y-113439535D01*
X151799860Y-113439533D01*
X151757956Y-113397629D01*
X151724471Y-113336306D01*
X151729455Y-113266614D01*
X151771327Y-113210681D01*
X151836791Y-113186264D01*
X151869829Y-113188331D01*
X151931004Y-113200500D01*
X151931007Y-113200500D01*
X152068995Y-113200500D01*
X152160041Y-113182389D01*
X152204328Y-113173580D01*
X152331811Y-113120775D01*
X152446542Y-113044114D01*
X152544114Y-112946542D01*
X152620775Y-112831811D01*
X152650775Y-112759385D01*
X152673579Y-112704331D01*
X152673580Y-112704328D01*
X152677835Y-112682935D01*
X152692065Y-112645126D01*
X152703318Y-112625638D01*
X152725500Y-112542853D01*
X152725500Y-110286188D01*
X152734144Y-110256748D01*
X152740667Y-110226763D01*
X152744422Y-110221745D01*
X152745185Y-110219149D01*
X152761812Y-110198513D01*
X152799860Y-110160466D01*
X152799862Y-110160465D01*
X152999860Y-109960466D01*
X152999862Y-109960465D01*
X153460465Y-109499862D01*
X153460465Y-109499861D01*
X153599860Y-109360466D01*
X153599862Y-109360465D01*
X153773507Y-109186818D01*
X153834830Y-109153334D01*
X153853813Y-109151292D01*
X153853780Y-109150825D01*
X153858259Y-109150500D01*
X153858260Y-109150500D01*
X153926393Y-109140573D01*
X154031483Y-109089198D01*
X154114198Y-109006483D01*
X154165573Y-108901393D01*
X154175500Y-108833260D01*
X154175500Y-107153386D01*
X154181738Y-107132140D01*
X154183318Y-107110052D01*
X154191390Y-107099268D01*
X154195185Y-107086347D01*
X154211918Y-107071847D01*
X154225190Y-107054119D01*
X154237810Y-107049411D01*
X154247989Y-107040592D01*
X154269906Y-107037440D01*
X154290654Y-107029702D01*
X154303814Y-107032564D01*
X154317147Y-107030648D01*
X154337290Y-107039847D01*
X154358927Y-107044554D01*
X154376652Y-107057822D01*
X154380703Y-107059673D01*
X154387181Y-107065705D01*
X154408181Y-107086705D01*
X154441666Y-107148028D01*
X154444500Y-107174386D01*
X154444500Y-108833260D01*
X154454426Y-108901391D01*
X154505803Y-109006485D01*
X154588515Y-109089197D01*
X154604959Y-109097236D01*
X154656542Y-109144364D01*
X154674500Y-109208637D01*
X154674500Y-112057147D01*
X154674500Y-112142853D01*
X154684324Y-112179518D01*
X154696682Y-112225640D01*
X154717385Y-112261497D01*
X154739535Y-112299862D01*
X154739537Y-112299864D01*
X154764442Y-112324769D01*
X154797927Y-112386092D01*
X154798317Y-112424767D01*
X154800097Y-112424943D01*
X154799500Y-112431005D01*
X154799500Y-112431007D01*
X154799500Y-112568993D01*
X154799500Y-112568995D01*
X154799499Y-112568995D01*
X154826418Y-112704322D01*
X154826421Y-112704332D01*
X154879221Y-112831804D01*
X154879228Y-112831817D01*
X154955885Y-112946541D01*
X154955888Y-112946545D01*
X155053454Y-113044111D01*
X155053458Y-113044114D01*
X155168182Y-113120771D01*
X155168195Y-113120778D01*
X155295667Y-113173578D01*
X155295672Y-113173580D01*
X155295676Y-113173580D01*
X155295677Y-113173581D01*
X155431004Y-113200500D01*
X155431007Y-113200500D01*
X155568995Y-113200500D01*
X155660041Y-113182389D01*
X155704328Y-113173580D01*
X155831811Y-113120775D01*
X155946542Y-113044114D01*
X156044114Y-112946542D01*
X156120775Y-112831811D01*
X156173580Y-112704328D01*
X156200500Y-112568993D01*
X156200500Y-112431007D01*
X156200500Y-112431005D01*
X156200500Y-112431004D01*
X156173581Y-112295677D01*
X156173580Y-112295676D01*
X156173580Y-112295672D01*
X156156355Y-112254087D01*
X156120778Y-112168195D01*
X156120771Y-112168182D01*
X156044114Y-112053458D01*
X156044111Y-112053454D01*
X155946545Y-111955888D01*
X155946541Y-111955885D01*
X155831817Y-111879228D01*
X155831804Y-111879221D01*
X155704332Y-111826421D01*
X155704322Y-111826418D01*
X155568995Y-111799500D01*
X155568993Y-111799500D01*
X155449500Y-111799500D01*
X155382461Y-111779815D01*
X155336706Y-111727011D01*
X155325500Y-111675500D01*
X155325500Y-109116543D01*
X155345185Y-109049504D01*
X155361815Y-109028865D01*
X155384198Y-109006483D01*
X155435573Y-108901393D01*
X155445500Y-108833260D01*
X155445500Y-107116740D01*
X155435573Y-107048607D01*
X155384198Y-106943517D01*
X155384196Y-106943515D01*
X155384196Y-106943514D01*
X155372098Y-106931416D01*
X155338613Y-106870093D01*
X155340004Y-106811641D01*
X155350500Y-106772475D01*
X155350500Y-106627525D01*
X155312984Y-106487515D01*
X155304723Y-106473207D01*
X155240511Y-106361988D01*
X155240510Y-106361986D01*
X155240509Y-106361985D01*
X155140705Y-106262181D01*
X155107220Y-106200858D01*
X155112204Y-106131166D01*
X155154076Y-106075233D01*
X155219540Y-106050816D01*
X155228386Y-106050500D01*
X155272472Y-106050500D01*
X155272475Y-106050500D01*
X155412485Y-106012984D01*
X155538015Y-105940509D01*
X155616706Y-105861818D01*
X155678030Y-105828334D01*
X155704387Y-105825500D01*
X158725500Y-105825500D01*
X158792539Y-105845185D01*
X158838294Y-105897989D01*
X158849500Y-105949500D01*
X158849500Y-106529269D01*
X158852353Y-106559699D01*
X158852353Y-106559701D01*
X158866759Y-106600868D01*
X158870321Y-106670647D01*
X158835593Y-106731274D01*
X158773600Y-106763502D01*
X158717625Y-106761598D01*
X158710538Y-106759699D01*
X158672475Y-106749500D01*
X158527525Y-106749500D01*
X158424451Y-106777119D01*
X158387511Y-106787017D01*
X158261988Y-106859488D01*
X158261982Y-106859493D01*
X158159493Y-106961982D01*
X158159488Y-106961988D01*
X158087017Y-107087511D01*
X158087016Y-107087515D01*
X158049500Y-107227525D01*
X158049500Y-107372475D01*
X158077091Y-107475445D01*
X158087017Y-107512488D01*
X158159488Y-107638011D01*
X158159493Y-107638017D01*
X158238181Y-107716705D01*
X158271666Y-107778028D01*
X158274500Y-107804386D01*
X158274500Y-112457148D01*
X158274500Y-112542854D01*
X158296682Y-112625639D01*
X158307931Y-112645123D01*
X158307936Y-112645132D01*
X158322164Y-112682935D01*
X158326419Y-112704325D01*
X158326420Y-112704330D01*
X158379221Y-112831804D01*
X158379228Y-112831817D01*
X158455885Y-112946541D01*
X158455888Y-112946545D01*
X158553454Y-113044111D01*
X158553458Y-113044114D01*
X158668182Y-113120771D01*
X158668195Y-113120778D01*
X158795667Y-113173578D01*
X158795672Y-113173580D01*
X158795676Y-113173580D01*
X158795677Y-113173581D01*
X158931004Y-113200500D01*
X158931007Y-113200500D01*
X159068995Y-113200500D01*
X159160041Y-113182389D01*
X159204328Y-113173580D01*
X159331811Y-113120775D01*
X159446542Y-113044114D01*
X159544114Y-112946542D01*
X159620775Y-112831811D01*
X159673580Y-112704328D01*
X159700500Y-112568993D01*
X159700500Y-112431007D01*
X159700500Y-112431005D01*
X159700500Y-112431004D01*
X159673581Y-112295677D01*
X159673580Y-112295676D01*
X159673580Y-112295672D01*
X159656355Y-112254087D01*
X159620778Y-112168195D01*
X159620771Y-112168182D01*
X159544114Y-112053458D01*
X159544111Y-112053454D01*
X159446545Y-111955888D01*
X159446541Y-111955885D01*
X159331817Y-111879228D01*
X159331804Y-111879221D01*
X159204332Y-111826421D01*
X159204322Y-111826418D01*
X159068995Y-111799500D01*
X159068993Y-111799500D01*
X159049500Y-111799500D01*
X158982461Y-111779815D01*
X158936706Y-111727011D01*
X158925500Y-111675500D01*
X158925500Y-107804386D01*
X158945185Y-107737347D01*
X158961819Y-107716705D01*
X158991775Y-107686749D01*
X159040509Y-107638015D01*
X159112984Y-107512485D01*
X159150500Y-107372475D01*
X159150500Y-107227525D01*
X159112984Y-107087515D01*
X159112982Y-107087511D01*
X159111171Y-107080751D01*
X159112834Y-107010901D01*
X159151996Y-106953038D01*
X159216225Y-106925534D01*
X159242524Y-106925199D01*
X159245734Y-106925500D01*
X159713811Y-106925500D01*
X159780850Y-106945185D01*
X159801492Y-106961819D01*
X160400138Y-107560465D01*
X160437250Y-107581891D01*
X160437252Y-107581893D01*
X160474358Y-107603317D01*
X160474360Y-107603317D01*
X160474361Y-107603318D01*
X160557147Y-107625501D01*
X160557149Y-107625501D01*
X160650449Y-107625501D01*
X160650465Y-107625500D01*
X162242851Y-107625500D01*
X162242853Y-107625500D01*
X162325639Y-107603318D01*
X162399862Y-107560465D01*
X162599860Y-107360466D01*
X162599862Y-107360465D01*
X162799860Y-107160466D01*
X162799862Y-107160465D01*
X163053630Y-106906695D01*
X163114949Y-106873213D01*
X163182263Y-106877338D01*
X163240299Y-106897646D01*
X163270730Y-106900500D01*
X163270734Y-106900500D01*
X163904270Y-106900500D01*
X163928612Y-106898216D01*
X163934699Y-106897646D01*
X164048484Y-106857830D01*
X164118261Y-106854268D01*
X164178889Y-106888997D01*
X164211116Y-106950990D01*
X164204712Y-107020565D01*
X164177120Y-107062552D01*
X164139538Y-107100134D01*
X164139535Y-107100138D01*
X164096683Y-107174358D01*
X164096682Y-107174360D01*
X164096682Y-107174361D01*
X164088923Y-107203318D01*
X164088922Y-107203319D01*
X164074500Y-107257145D01*
X164074500Y-115921221D01*
X164054815Y-115988260D01*
X164002011Y-116034015D01*
X163932853Y-116043959D01*
X163912184Y-116039153D01*
X163881119Y-116029060D01*
X163694486Y-115999500D01*
X163694481Y-115999500D01*
X163505519Y-115999500D01*
X163505514Y-115999500D01*
X163318881Y-116029059D01*
X163139163Y-116087454D01*
X162970800Y-116173240D01*
X162905781Y-116220480D01*
X162817927Y-116284310D01*
X162817925Y-116284312D01*
X162817924Y-116284312D01*
X162684312Y-116417924D01*
X162684312Y-116417925D01*
X162684310Y-116417927D01*
X162654527Y-116458920D01*
X162573240Y-116570800D01*
X162487454Y-116739163D01*
X162429059Y-116918881D01*
X162399500Y-117105513D01*
X162399500Y-117294486D01*
X162429059Y-117481118D01*
X162487454Y-117660836D01*
X162533379Y-117750968D01*
X162573240Y-117829199D01*
X162684310Y-117982073D01*
X162817927Y-118115690D01*
X162970801Y-118226760D01*
X163050347Y-118267290D01*
X163139163Y-118312545D01*
X163139165Y-118312545D01*
X163139168Y-118312547D01*
X163235497Y-118343846D01*
X163318881Y-118370940D01*
X163505514Y-118400500D01*
X163505519Y-118400500D01*
X163694486Y-118400500D01*
X163881118Y-118370940D01*
X163913353Y-118360466D01*
X164060832Y-118312547D01*
X164229199Y-118226760D01*
X164382073Y-118115690D01*
X164515690Y-117982073D01*
X164626760Y-117829199D01*
X164712547Y-117660832D01*
X164770940Y-117481118D01*
X164788930Y-117367532D01*
X164800500Y-117294486D01*
X164800500Y-117105513D01*
X164770940Y-116918881D01*
X164737090Y-116814704D01*
X164730779Y-116795281D01*
X164726713Y-116750981D01*
X164725500Y-116750981D01*
X164725500Y-107486188D01*
X164734144Y-107456748D01*
X164740667Y-107426763D01*
X164744422Y-107421745D01*
X164745185Y-107419149D01*
X164761812Y-107398513D01*
X164799860Y-107360466D01*
X164799862Y-107360465D01*
X164999860Y-107160466D01*
X164999862Y-107160465D01*
X165199860Y-106960466D01*
X165199862Y-106960465D01*
X165223511Y-106936816D01*
X165256313Y-106918906D01*
X165284831Y-106903334D01*
X165284833Y-106903333D01*
X165284838Y-106903333D01*
X165311189Y-106900500D01*
X165729270Y-106900500D01*
X165759699Y-106897646D01*
X165759701Y-106897646D01*
X165838441Y-106870093D01*
X165887882Y-106852793D01*
X165997150Y-106772150D01*
X166077793Y-106662882D01*
X166107497Y-106577992D01*
X166122646Y-106534701D01*
X166122646Y-106534699D01*
X166125500Y-106504269D01*
X166125500Y-105495730D01*
X166122646Y-105465300D01*
X166122646Y-105465298D01*
X166086493Y-105361982D01*
X166077793Y-105337118D01*
X166049020Y-105298132D01*
X166044542Y-105285873D01*
X166035997Y-105276011D01*
X166032787Y-105253688D01*
X166025050Y-105232505D01*
X166027910Y-105219772D01*
X166026053Y-105206853D01*
X166035421Y-105186338D01*
X166040365Y-105164335D01*
X166049656Y-105155169D01*
X166055078Y-105143297D01*
X166074049Y-105131104D01*
X166090105Y-105115266D01*
X166104222Y-105111713D01*
X166113856Y-105105523D01*
X166148791Y-105100500D01*
X166182746Y-105100500D01*
X166249785Y-105120185D01*
X166270427Y-105136819D01*
X166272449Y-105138841D01*
X166272452Y-105138845D01*
X166279519Y-105145912D01*
X166279520Y-105145913D01*
X166376044Y-105242437D01*
X166472449Y-105338841D01*
X166472452Y-105338845D01*
X166838181Y-105704574D01*
X166871666Y-105765897D01*
X166874500Y-105792255D01*
X166874500Y-106504269D01*
X166877353Y-106534699D01*
X166877353Y-106534701D01*
X166922206Y-106662880D01*
X166922207Y-106662882D01*
X167002850Y-106772150D01*
X167112118Y-106852793D01*
X167154845Y-106867744D01*
X167240299Y-106897646D01*
X167270730Y-106900500D01*
X167270734Y-106900500D01*
X167475500Y-106900500D01*
X167542539Y-106920185D01*
X167588294Y-106972989D01*
X167599500Y-107024500D01*
X167599500Y-107647273D01*
X167599500Y-107752727D01*
X167604786Y-107772455D01*
X167626793Y-107854589D01*
X167657235Y-107907316D01*
X167679520Y-107945913D01*
X167872455Y-108138847D01*
X167872462Y-108138855D01*
X167879519Y-108145912D01*
X167879520Y-108145913D01*
X167974325Y-108240718D01*
X168072449Y-108338841D01*
X168072452Y-108338845D01*
X168272449Y-108538841D01*
X168272452Y-108538845D01*
X168879520Y-109145913D01*
X169072449Y-109338841D01*
X169072452Y-109338845D01*
X169079519Y-109345912D01*
X169079520Y-109345913D01*
X169279519Y-109545911D01*
X169279520Y-109545913D01*
X169429734Y-109696127D01*
X169463217Y-109757448D01*
X169458233Y-109827140D01*
X169416361Y-109883073D01*
X169350897Y-109907490D01*
X169288249Y-109895526D01*
X169113640Y-109811438D01*
X168805614Y-109703656D01*
X168805612Y-109703655D01*
X168560073Y-109647612D01*
X168487456Y-109631038D01*
X168487453Y-109631037D01*
X168487441Y-109631035D01*
X168163175Y-109594500D01*
X168163169Y-109594500D01*
X167836831Y-109594500D01*
X167836824Y-109594500D01*
X167512558Y-109631035D01*
X167512544Y-109631038D01*
X167194387Y-109703655D01*
X167194385Y-109703656D01*
X166886359Y-109811438D01*
X166592342Y-109953030D01*
X166316022Y-110126653D01*
X166060879Y-110330122D01*
X165830122Y-110560879D01*
X165626653Y-110816022D01*
X165453030Y-111092342D01*
X165311438Y-111386359D01*
X165203656Y-111694385D01*
X165203655Y-111694387D01*
X165131038Y-112012544D01*
X165131035Y-112012558D01*
X165094500Y-112336824D01*
X165094500Y-112663175D01*
X165131035Y-112987441D01*
X165131038Y-112987455D01*
X165203655Y-113305612D01*
X165203656Y-113305614D01*
X165311438Y-113613640D01*
X165453030Y-113907657D01*
X165475144Y-113942851D01*
X165626654Y-114183979D01*
X165719066Y-114299860D01*
X165816445Y-114421970D01*
X165830123Y-114439121D01*
X166060879Y-114669877D01*
X166316021Y-114873346D01*
X166592340Y-115046968D01*
X166886361Y-115188562D01*
X167194387Y-115296344D01*
X167512544Y-115368962D01*
X167512553Y-115368963D01*
X167512558Y-115368964D01*
X167728735Y-115393320D01*
X167836825Y-115405499D01*
X167836828Y-115405500D01*
X167836831Y-115405500D01*
X168163172Y-115405500D01*
X168163173Y-115405499D01*
X168328900Y-115386826D01*
X168487441Y-115368964D01*
X168487444Y-115368963D01*
X168487456Y-115368962D01*
X168805613Y-115296344D01*
X169113639Y-115188562D01*
X169407660Y-115046968D01*
X169683979Y-114873346D01*
X169939121Y-114669877D01*
X170169877Y-114439121D01*
X170373346Y-114183979D01*
X170546968Y-113907660D01*
X170563780Y-113872750D01*
X170610602Y-113820891D01*
X170678029Y-113802578D01*
X170744653Y-113823626D01*
X170789322Y-113877352D01*
X170799500Y-113926552D01*
X170799500Y-114882745D01*
X170779815Y-114949784D01*
X170763181Y-114970426D01*
X170279520Y-115454087D01*
X170279519Y-115454088D01*
X170079520Y-115654087D01*
X170079519Y-115654088D01*
X169954087Y-115779519D01*
X169954087Y-115779520D01*
X169936644Y-115796963D01*
X169936641Y-115796964D01*
X169279520Y-116454087D01*
X168679522Y-117054084D01*
X168679520Y-117054087D01*
X168626793Y-117145411D01*
X168606679Y-117220480D01*
X168599500Y-117247271D01*
X168599500Y-122093920D01*
X168579815Y-122160959D01*
X168549134Y-122193690D01*
X168502853Y-122227847D01*
X168502850Y-122227850D01*
X168422207Y-122337117D01*
X168422206Y-122337119D01*
X168377353Y-122465298D01*
X168377353Y-122465300D01*
X168374500Y-122495730D01*
X168374500Y-123504269D01*
X168377353Y-123534699D01*
X168377353Y-123534701D01*
X168420873Y-123659070D01*
X168422207Y-123662882D01*
X168502849Y-123772149D01*
X168506331Y-123776866D01*
X168530302Y-123842495D01*
X168514986Y-123910666D01*
X168465246Y-123959734D01*
X168406561Y-123974500D01*
X167593439Y-123974500D01*
X167526400Y-123954815D01*
X167480645Y-123902011D01*
X167470701Y-123832853D01*
X167493669Y-123776866D01*
X167497150Y-123772150D01*
X167577793Y-123662882D01*
X167609437Y-123572449D01*
X167622646Y-123534701D01*
X167622646Y-123534699D01*
X167625500Y-123504269D01*
X167625500Y-122495730D01*
X167622646Y-122465300D01*
X167622646Y-122465298D01*
X167577793Y-122337119D01*
X167577792Y-122337117D01*
X167559342Y-122312118D01*
X167497150Y-122227850D01*
X167387882Y-122147207D01*
X167387880Y-122147206D01*
X167259700Y-122102353D01*
X167229270Y-122099500D01*
X167229266Y-122099500D01*
X166595734Y-122099500D01*
X166595730Y-122099500D01*
X166565300Y-122102353D01*
X166565298Y-122102353D01*
X166437119Y-122147206D01*
X166437117Y-122147207D01*
X166327850Y-122227850D01*
X166247207Y-122337117D01*
X166247206Y-122337119D01*
X166202353Y-122465298D01*
X166202353Y-122465300D01*
X166199500Y-122495730D01*
X166199500Y-122870614D01*
X166179815Y-122937653D01*
X166163181Y-122958295D01*
X166159493Y-122961982D01*
X166159488Y-122961988D01*
X166087017Y-123087511D01*
X166087016Y-123087515D01*
X166049500Y-123227525D01*
X166049500Y-123227527D01*
X166049500Y-123372479D01*
X166049835Y-123375024D01*
X166049500Y-123377172D01*
X166049500Y-123380602D01*
X166048965Y-123380602D01*
X166039069Y-123444059D01*
X165992688Y-123496314D01*
X165925418Y-123515198D01*
X165858618Y-123494716D01*
X165839215Y-123478888D01*
X165836819Y-123476492D01*
X165803334Y-123415169D01*
X165800500Y-123388811D01*
X165800500Y-122495730D01*
X165797646Y-122465300D01*
X165797646Y-122465298D01*
X165752793Y-122337119D01*
X165752792Y-122337117D01*
X165734342Y-122312118D01*
X165672150Y-122227850D01*
X165562882Y-122147207D01*
X165562880Y-122147206D01*
X165434700Y-122102353D01*
X165404270Y-122099500D01*
X165404266Y-122099500D01*
X164911189Y-122099500D01*
X164844150Y-122079815D01*
X164823508Y-122063181D01*
X164199864Y-121439537D01*
X164199862Y-121439535D01*
X164162750Y-121418108D01*
X164125640Y-121396682D01*
X164084246Y-121385591D01*
X164042853Y-121374500D01*
X164042852Y-121374500D01*
X162250465Y-121374500D01*
X162250449Y-121374499D01*
X162242853Y-121374499D01*
X162157147Y-121374499D01*
X162101956Y-121389287D01*
X162074360Y-121396682D01*
X162055805Y-121407395D01*
X162037250Y-121418108D01*
X162000138Y-121439535D01*
X161946604Y-121493069D01*
X161946603Y-121493068D01*
X161401491Y-122038181D01*
X161374563Y-122052884D01*
X161348745Y-122069477D01*
X161342544Y-122070368D01*
X161340168Y-122071666D01*
X161313810Y-122074500D01*
X161249500Y-122074500D01*
X161182461Y-122054815D01*
X161136706Y-122002011D01*
X161125500Y-121950500D01*
X161125500Y-109204386D01*
X161145185Y-109137347D01*
X161161819Y-109116705D01*
X161198342Y-109080182D01*
X161240509Y-109038015D01*
X161312984Y-108912485D01*
X161350500Y-108772475D01*
X161350500Y-108627525D01*
X161312984Y-108487515D01*
X161267295Y-108408380D01*
X161240511Y-108361988D01*
X161240506Y-108361982D01*
X161138017Y-108259493D01*
X161138011Y-108259488D01*
X161012488Y-108187017D01*
X161012489Y-108187017D01*
X161001006Y-108183940D01*
X160872475Y-108149500D01*
X160727525Y-108149500D01*
X160598993Y-108183940D01*
X160587511Y-108187017D01*
X160461988Y-108259488D01*
X160461982Y-108259493D01*
X160359493Y-108361982D01*
X160359488Y-108361988D01*
X160287017Y-108487511D01*
X160287016Y-108487515D01*
X160249500Y-108627525D01*
X160249500Y-108772475D01*
X160287016Y-108912485D01*
X160287017Y-108912488D01*
X160359488Y-109038011D01*
X160359493Y-109038017D01*
X160438181Y-109116705D01*
X160471666Y-109178028D01*
X160474500Y-109204386D01*
X160474500Y-122166586D01*
X160454815Y-122233625D01*
X160450270Y-122240219D01*
X160397209Y-122312113D01*
X160397206Y-122312119D01*
X160352353Y-122440298D01*
X160352353Y-122440300D01*
X160349500Y-122470730D01*
X160349500Y-123529269D01*
X160352353Y-123559699D01*
X160352353Y-123559701D01*
X160397206Y-123687880D01*
X160397207Y-123687882D01*
X160477850Y-123797150D01*
X160587118Y-123877793D01*
X160629845Y-123892744D01*
X160715299Y-123922646D01*
X160745730Y-123925500D01*
X160745734Y-123925500D01*
X161354270Y-123925500D01*
X161384699Y-123922646D01*
X161384701Y-123922646D01*
X161456145Y-123897646D01*
X161512882Y-123877793D01*
X161622150Y-123797150D01*
X161702793Y-123687882D01*
X161731290Y-123606443D01*
X161747646Y-123559701D01*
X161747646Y-123559699D01*
X161750500Y-123529269D01*
X161750500Y-123518053D01*
X162150000Y-123518053D01*
X162160613Y-123606443D01*
X162216079Y-123747095D01*
X162307435Y-123867564D01*
X162427904Y-123958920D01*
X162568556Y-124014386D01*
X162656946Y-124025000D01*
X162750000Y-124025000D01*
X163150000Y-124025000D01*
X163243054Y-124025000D01*
X163331443Y-124014386D01*
X163472095Y-123958920D01*
X163592564Y-123867564D01*
X163683920Y-123747095D01*
X163739386Y-123606443D01*
X163750000Y-123518053D01*
X163750000Y-123200000D01*
X163150000Y-123200000D01*
X163150000Y-124025000D01*
X162750000Y-124025000D01*
X162750000Y-123200000D01*
X162150000Y-123200000D01*
X162150000Y-123518053D01*
X161750500Y-123518053D01*
X161750500Y-122661188D01*
X161770185Y-122594149D01*
X161786806Y-122573519D01*
X161799860Y-122560466D01*
X161799862Y-122560465D01*
X161938320Y-122422005D01*
X161999641Y-122388522D01*
X162069333Y-122393506D01*
X162125267Y-122435377D01*
X162149684Y-122500842D01*
X162150000Y-122509688D01*
X162150000Y-122800000D01*
X163750000Y-122800000D01*
X163750000Y-122481946D01*
X163739386Y-122393556D01*
X163683920Y-122252904D01*
X163662324Y-122224426D01*
X163657402Y-122211476D01*
X163648334Y-122201011D01*
X163645236Y-122179465D01*
X163637501Y-122159114D01*
X163640361Y-122145561D01*
X163638390Y-122131853D01*
X163647433Y-122112050D01*
X163651929Y-122090750D01*
X163661661Y-122080896D01*
X163667415Y-122068297D01*
X163685728Y-122056527D01*
X163701026Y-122041039D01*
X163715755Y-122037230D01*
X163726193Y-122030523D01*
X163761128Y-122025500D01*
X163813811Y-122025500D01*
X163880850Y-122045185D01*
X163901492Y-122061819D01*
X164338181Y-122498508D01*
X164371666Y-122559831D01*
X164374500Y-122586189D01*
X164374500Y-123504269D01*
X164377353Y-123534698D01*
X164397663Y-123592740D01*
X164401224Y-123662519D01*
X164366495Y-123723146D01*
X164312717Y-123753467D01*
X164225395Y-123776866D01*
X164187511Y-123787017D01*
X164061988Y-123859488D01*
X164061982Y-123859493D01*
X163959493Y-123961982D01*
X163959488Y-123961988D01*
X163887017Y-124087511D01*
X163887016Y-124087515D01*
X163849500Y-124227525D01*
X163849500Y-124372475D01*
X163883633Y-124499860D01*
X163887017Y-124512488D01*
X163959488Y-124638011D01*
X163959493Y-124638017D01*
X164038181Y-124716705D01*
X164071666Y-124778028D01*
X164074500Y-124804386D01*
X164074500Y-133921221D01*
X164054815Y-133988260D01*
X164002011Y-134034015D01*
X163932853Y-134043959D01*
X163912184Y-134039153D01*
X163881119Y-134029060D01*
X163694486Y-133999500D01*
X163694481Y-133999500D01*
X163505519Y-133999500D01*
X163505514Y-133999500D01*
X163318881Y-134029059D01*
X163139163Y-134087454D01*
X162970800Y-134173240D01*
X162883579Y-134236610D01*
X162817927Y-134284310D01*
X162817925Y-134284312D01*
X162817924Y-134284312D01*
X162684312Y-134417924D01*
X162684312Y-134417925D01*
X162684310Y-134417927D01*
X162636610Y-134483579D01*
X162573240Y-134570800D01*
X162487454Y-134739163D01*
X162429059Y-134918881D01*
X162399500Y-135105513D01*
X162399500Y-135294486D01*
X162429059Y-135481118D01*
X162487454Y-135660836D01*
X162533379Y-135750968D01*
X162573240Y-135829199D01*
X162684310Y-135982073D01*
X162817927Y-136115690D01*
X162970801Y-136226760D01*
X163050347Y-136267290D01*
X163139163Y-136312545D01*
X163139165Y-136312545D01*
X163139168Y-136312547D01*
X163235497Y-136343846D01*
X163318881Y-136370940D01*
X163505514Y-136400500D01*
X163505519Y-136400500D01*
X163694486Y-136400500D01*
X163881118Y-136370940D01*
X163938433Y-136352317D01*
X164060832Y-136312547D01*
X164229199Y-136226760D01*
X164338040Y-136147682D01*
X169300000Y-136147682D01*
X169300000Y-136352317D01*
X169332009Y-136554417D01*
X169395244Y-136749031D01*
X169488139Y-136931347D01*
X169550279Y-137016876D01*
X170057241Y-136509914D01*
X170119881Y-136618408D01*
X170231592Y-136730119D01*
X170340083Y-136792757D01*
X169833121Y-137299719D01*
X169833122Y-137299720D01*
X169918640Y-137361852D01*
X169918649Y-137361858D01*
X170100968Y-137454755D01*
X170295582Y-137517990D01*
X170497683Y-137550000D01*
X170702317Y-137550000D01*
X170904417Y-137517990D01*
X171099031Y-137454755D01*
X171281349Y-137361859D01*
X171366876Y-137299719D01*
X171366877Y-137299718D01*
X170859916Y-136792757D01*
X170968408Y-136730119D01*
X171080119Y-136618408D01*
X171142757Y-136509915D01*
X171649718Y-137016877D01*
X171649719Y-137016876D01*
X171711859Y-136931349D01*
X171804755Y-136749031D01*
X171867990Y-136554417D01*
X171900000Y-136352317D01*
X171900000Y-136147682D01*
X171867990Y-135945582D01*
X171804755Y-135750968D01*
X171711858Y-135568649D01*
X171711852Y-135568640D01*
X171649720Y-135483122D01*
X171649719Y-135483121D01*
X171142757Y-135990083D01*
X171080119Y-135881592D01*
X170968408Y-135769881D01*
X170859914Y-135707241D01*
X171366876Y-135200279D01*
X171281347Y-135138139D01*
X171099031Y-135045244D01*
X170904417Y-134982009D01*
X170702317Y-134950000D01*
X170497683Y-134950000D01*
X170295582Y-134982009D01*
X170100968Y-135045244D01*
X169918648Y-135138141D01*
X169833122Y-135200278D01*
X169833122Y-135200279D01*
X170340085Y-135707242D01*
X170231592Y-135769881D01*
X170119881Y-135881592D01*
X170057242Y-135990085D01*
X169550279Y-135483122D01*
X169550278Y-135483122D01*
X169488141Y-135568648D01*
X169395244Y-135750968D01*
X169332009Y-135945582D01*
X169300000Y-136147682D01*
X164338040Y-136147682D01*
X164382073Y-136115690D01*
X164515690Y-135982073D01*
X164626760Y-135829199D01*
X164712547Y-135660832D01*
X164770940Y-135481118D01*
X164800500Y-135294486D01*
X164800500Y-135105513D01*
X164770940Y-134918881D01*
X164758539Y-134880718D01*
X164730779Y-134795281D01*
X164726713Y-134750981D01*
X164725500Y-134750981D01*
X164725500Y-130336824D01*
X165094500Y-130336824D01*
X165094500Y-130663175D01*
X165131035Y-130987441D01*
X165131038Y-130987455D01*
X165203655Y-131305612D01*
X165203656Y-131305614D01*
X165311438Y-131613640D01*
X165453030Y-131907657D01*
X165473540Y-131940298D01*
X165626654Y-132183979D01*
X165830123Y-132439121D01*
X166060879Y-132669877D01*
X166316021Y-132873346D01*
X166592340Y-133046968D01*
X166592342Y-133046969D01*
X166618776Y-133059699D01*
X166886361Y-133188562D01*
X167194387Y-133296344D01*
X167512544Y-133368962D01*
X167512553Y-133368963D01*
X167512558Y-133368964D01*
X167728735Y-133393320D01*
X167836825Y-133405499D01*
X167836828Y-133405500D01*
X167836831Y-133405500D01*
X168163172Y-133405500D01*
X168163173Y-133405499D01*
X168328900Y-133386826D01*
X168487441Y-133368964D01*
X168487444Y-133368963D01*
X168487456Y-133368962D01*
X168805613Y-133296344D01*
X169113639Y-133188562D01*
X169407660Y-133046968D01*
X169683979Y-132873346D01*
X169939121Y-132669877D01*
X170169877Y-132439121D01*
X170373346Y-132183979D01*
X170546968Y-131907660D01*
X170688562Y-131613639D01*
X170796344Y-131305613D01*
X170868962Y-130987456D01*
X170883501Y-130858422D01*
X170888043Y-130818108D01*
X170905500Y-130663169D01*
X170905500Y-130336831D01*
X170893320Y-130228735D01*
X170868964Y-130012558D01*
X170868963Y-130012553D01*
X170868962Y-130012544D01*
X170796344Y-129694387D01*
X170688562Y-129386361D01*
X170583178Y-129167531D01*
X170546969Y-129092342D01*
X170546968Y-129092340D01*
X170373346Y-128816021D01*
X170169877Y-128560879D01*
X169939121Y-128330123D01*
X169901172Y-128299860D01*
X169825527Y-128239535D01*
X169683979Y-128126654D01*
X169407660Y-127953032D01*
X169407657Y-127953030D01*
X169113640Y-127811438D01*
X168805614Y-127703656D01*
X168805612Y-127703655D01*
X168524683Y-127639535D01*
X168487456Y-127631038D01*
X168487453Y-127631037D01*
X168487441Y-127631035D01*
X168163175Y-127594500D01*
X168163169Y-127594500D01*
X167836831Y-127594500D01*
X167836824Y-127594500D01*
X167512558Y-127631035D01*
X167512544Y-127631038D01*
X167194387Y-127703655D01*
X167194385Y-127703656D01*
X166886359Y-127811438D01*
X166592342Y-127953030D01*
X166316022Y-128126653D01*
X166060879Y-128330122D01*
X165830122Y-128560879D01*
X165626653Y-128816022D01*
X165453030Y-129092342D01*
X165311438Y-129386359D01*
X165203656Y-129694385D01*
X165203655Y-129694387D01*
X165131038Y-130012544D01*
X165131035Y-130012558D01*
X165094500Y-130336824D01*
X164725500Y-130336824D01*
X164725500Y-124804386D01*
X164745185Y-124737347D01*
X164761819Y-124716705D01*
X164840509Y-124638015D01*
X164912984Y-124512485D01*
X164950500Y-124372475D01*
X164950500Y-124227525D01*
X164912984Y-124087515D01*
X164912982Y-124087511D01*
X164912982Y-124087510D01*
X164912981Y-124087507D01*
X164912397Y-124086496D01*
X164912163Y-124085534D01*
X164909872Y-124080001D01*
X164910734Y-124079643D01*
X164895927Y-124018595D01*
X164918781Y-123952569D01*
X164973704Y-123909381D01*
X165019786Y-123900500D01*
X165288811Y-123900500D01*
X165355850Y-123920185D01*
X165376492Y-123936819D01*
X166000138Y-124560465D01*
X166037250Y-124581891D01*
X166037252Y-124581893D01*
X166074358Y-124603317D01*
X166074360Y-124603317D01*
X166074361Y-124603318D01*
X166157147Y-124625501D01*
X166157149Y-124625501D01*
X166250449Y-124625501D01*
X166250465Y-124625500D01*
X169842851Y-124625500D01*
X169842853Y-124625500D01*
X169925639Y-124603318D01*
X169999862Y-124560465D01*
X170199860Y-124360466D01*
X170199862Y-124360465D01*
X170399860Y-124160466D01*
X170399862Y-124160465D01*
X170623508Y-123936819D01*
X170684831Y-123903334D01*
X170711189Y-123900500D01*
X171229270Y-123900500D01*
X171259699Y-123897646D01*
X171259701Y-123897646D01*
X171329145Y-123873346D01*
X171387882Y-123852793D01*
X171497150Y-123772150D01*
X171577793Y-123662882D01*
X171609437Y-123572449D01*
X171622646Y-123534701D01*
X171622646Y-123534699D01*
X171625500Y-123504269D01*
X171625500Y-122495730D01*
X171622646Y-122465300D01*
X171622646Y-122465298D01*
X171577793Y-122337119D01*
X171577792Y-122337117D01*
X171559342Y-122312118D01*
X171497150Y-122227850D01*
X171387882Y-122147207D01*
X171387880Y-122147206D01*
X171259700Y-122102353D01*
X171229270Y-122099500D01*
X171229266Y-122099500D01*
X170595734Y-122099500D01*
X170595730Y-122099500D01*
X170565300Y-122102353D01*
X170565298Y-122102353D01*
X170437119Y-122147206D01*
X170437117Y-122147207D01*
X170327850Y-122227850D01*
X170247207Y-122337117D01*
X170247206Y-122337119D01*
X170202353Y-122465298D01*
X170202353Y-122465300D01*
X170199500Y-122495730D01*
X170199500Y-123388811D01*
X170190855Y-123418251D01*
X170184332Y-123448238D01*
X170180577Y-123453253D01*
X170179815Y-123455850D01*
X170163186Y-123476486D01*
X170079974Y-123559699D01*
X170009103Y-123630570D01*
X169947780Y-123664054D01*
X169878088Y-123659070D01*
X169822155Y-123617198D01*
X169797738Y-123551734D01*
X169797964Y-123531310D01*
X169800500Y-123504268D01*
X169800500Y-122495730D01*
X169797646Y-122465300D01*
X169797646Y-122465298D01*
X169752793Y-122337119D01*
X169752792Y-122337117D01*
X169734342Y-122312118D01*
X169672150Y-122227850D01*
X169562882Y-122147207D01*
X169519003Y-122131853D01*
X169483544Y-122119445D01*
X169426769Y-122078723D01*
X169401022Y-122013770D01*
X169400500Y-122002404D01*
X169400500Y-119139231D01*
X169420185Y-119072192D01*
X169472989Y-119026437D01*
X169534230Y-119015613D01*
X169550279Y-119016876D01*
X170057241Y-118509914D01*
X170119881Y-118618408D01*
X170231592Y-118730119D01*
X170340083Y-118792757D01*
X169833121Y-119299719D01*
X169833122Y-119299720D01*
X169918640Y-119361852D01*
X169918649Y-119361858D01*
X170100968Y-119454755D01*
X170295582Y-119517990D01*
X170497683Y-119550000D01*
X170702317Y-119550000D01*
X170904417Y-119517990D01*
X171099031Y-119454755D01*
X171281349Y-119361859D01*
X171366876Y-119299719D01*
X171366877Y-119299718D01*
X170859916Y-118792757D01*
X170968408Y-118730119D01*
X171080119Y-118618408D01*
X171142757Y-118509915D01*
X171649718Y-119016877D01*
X171649719Y-119016876D01*
X171711859Y-118931349D01*
X171804755Y-118749031D01*
X171867990Y-118554417D01*
X171900000Y-118352317D01*
X171900000Y-118147682D01*
X171867990Y-117945582D01*
X171804755Y-117750968D01*
X171711858Y-117568649D01*
X171711852Y-117568640D01*
X171649720Y-117483122D01*
X171649719Y-117483121D01*
X171142757Y-117990083D01*
X171080119Y-117881592D01*
X170968408Y-117769881D01*
X170859914Y-117707241D01*
X171366876Y-117200279D01*
X171281347Y-117138139D01*
X171099031Y-117045244D01*
X170904417Y-116982009D01*
X170702317Y-116950000D01*
X170497683Y-116950000D01*
X170295581Y-116982010D01*
X170295578Y-116982010D01*
X170177687Y-117020316D01*
X170107846Y-117022311D01*
X170048013Y-116986231D01*
X170017185Y-116923530D01*
X170025150Y-116854115D01*
X170051685Y-116814707D01*
X170520480Y-116345913D01*
X170520480Y-116345912D01*
X170628470Y-116237920D01*
X170628474Y-116237918D01*
X170645912Y-116220480D01*
X170645913Y-116220480D01*
X170828472Y-116037918D01*
X170828475Y-116037917D01*
X170845912Y-116020480D01*
X170845913Y-116020480D01*
X171520480Y-115345913D01*
X171573207Y-115254588D01*
X171600500Y-115152727D01*
X171600500Y-115047273D01*
X171600500Y-110847273D01*
X171573207Y-110745412D01*
X171520480Y-110654087D01*
X170845913Y-109979520D01*
X170838848Y-109972455D01*
X170838841Y-109972449D01*
X170638848Y-109772455D01*
X170638841Y-109772449D01*
X170544777Y-109678385D01*
X170445913Y-109579520D01*
X169845913Y-108979520D01*
X169838848Y-108972455D01*
X169838841Y-108972449D01*
X169741167Y-108874775D01*
X169645913Y-108779520D01*
X169645912Y-108779519D01*
X169638848Y-108772455D01*
X169638841Y-108772449D01*
X169445913Y-108579520D01*
X168838848Y-107972455D01*
X168838841Y-107972449D01*
X168638848Y-107772455D01*
X168638841Y-107772449D01*
X168541392Y-107675000D01*
X168445913Y-107579520D01*
X168445912Y-107579519D01*
X168438845Y-107572452D01*
X168438845Y-107572451D01*
X168438829Y-107572436D01*
X168436796Y-107570404D01*
X168403327Y-107509073D01*
X168400500Y-107482745D01*
X168400500Y-106447275D01*
X168400500Y-106447273D01*
X168373207Y-106345413D01*
X168320480Y-106254087D01*
X168320478Y-106254085D01*
X168317113Y-106248256D01*
X168312962Y-106232767D01*
X168305523Y-106221191D01*
X168300500Y-106186256D01*
X168300500Y-106052204D01*
X168320185Y-105985165D01*
X168372989Y-105939410D01*
X168442147Y-105929466D01*
X168505703Y-105958491D01*
X168531887Y-105990204D01*
X168559488Y-106038011D01*
X168559493Y-106038017D01*
X168663181Y-106141705D01*
X168696666Y-106203028D01*
X168699500Y-106229386D01*
X168699500Y-106504269D01*
X168702353Y-106534699D01*
X168702353Y-106534701D01*
X168747206Y-106662880D01*
X168747207Y-106662882D01*
X168827850Y-106772150D01*
X168937118Y-106852793D01*
X168979845Y-106867744D01*
X169065299Y-106897646D01*
X169095730Y-106900500D01*
X169095734Y-106900500D01*
X169729270Y-106900500D01*
X169759699Y-106897646D01*
X169759701Y-106897646D01*
X169838441Y-106870093D01*
X169887882Y-106852793D01*
X169997150Y-106772150D01*
X170077793Y-106662882D01*
X170107497Y-106577992D01*
X170122646Y-106534701D01*
X170122646Y-106534699D01*
X170125500Y-106504269D01*
X170125500Y-105495730D01*
X170122646Y-105465300D01*
X170122646Y-105465298D01*
X170086493Y-105361982D01*
X170077793Y-105337118D01*
X169997150Y-105227850D01*
X169887882Y-105147207D01*
X169887880Y-105147206D01*
X169759700Y-105102353D01*
X169729270Y-105099500D01*
X169729266Y-105099500D01*
X169095734Y-105099500D01*
X169095730Y-105099500D01*
X169065301Y-105102353D01*
X168944475Y-105144632D01*
X168935227Y-105146844D01*
X168935376Y-105147397D01*
X168927527Y-105149500D01*
X168927525Y-105149500D01*
X168834225Y-105174500D01*
X168787511Y-105187017D01*
X168661988Y-105259488D01*
X168661982Y-105259493D01*
X168559493Y-105361982D01*
X168559486Y-105361991D01*
X168509098Y-105449265D01*
X168458531Y-105497480D01*
X168389924Y-105510702D01*
X168325059Y-105484734D01*
X168284671Y-105428219D01*
X168261493Y-105361982D01*
X168252793Y-105337118D01*
X168172150Y-105227850D01*
X168062882Y-105147207D01*
X168062880Y-105147206D01*
X167934700Y-105102353D01*
X167904270Y-105099500D01*
X167904266Y-105099500D01*
X167417255Y-105099500D01*
X167350216Y-105079815D01*
X167329574Y-105063181D01*
X167038848Y-104772455D01*
X167038841Y-104772449D01*
X166838855Y-104572462D01*
X166838847Y-104572455D01*
X166645913Y-104379520D01*
X166582410Y-104342856D01*
X166554589Y-104326793D01*
X166454085Y-104299864D01*
X166452727Y-104299500D01*
X166452726Y-104299500D01*
X158049500Y-104299500D01*
X157982461Y-104279815D01*
X157936706Y-104227011D01*
X157928123Y-104200872D01*
X157925500Y-104188323D01*
X157925500Y-104145734D01*
X157922646Y-104115301D01*
X157882300Y-103999999D01*
X175300000Y-103999999D01*
X175300000Y-104000000D01*
X175303613Y-104036685D01*
X175342271Y-104429196D01*
X175467466Y-104841907D01*
X175670762Y-105222248D01*
X175670766Y-105222255D01*
X175944364Y-105555634D01*
X176277743Y-105829232D01*
X176277750Y-105829236D01*
X176658091Y-106032532D01*
X176658093Y-106032532D01*
X176658096Y-106032534D01*
X177070801Y-106157727D01*
X177070800Y-106157727D01*
X177113073Y-106161890D01*
X177500000Y-106200000D01*
X177929198Y-106157727D01*
X178341903Y-106032534D01*
X178378483Y-106012982D01*
X178520413Y-105937119D01*
X178722254Y-105829233D01*
X179055634Y-105555634D01*
X179329233Y-105222254D01*
X179486873Y-104927330D01*
X179532532Y-104841907D01*
X179532532Y-104841906D01*
X179532534Y-104841903D01*
X179657727Y-104429198D01*
X179700000Y-104000000D01*
X179657727Y-103570801D01*
X179532534Y-103158096D01*
X179532532Y-103158093D01*
X179532532Y-103158091D01*
X179329236Y-102777750D01*
X179329232Y-102777743D01*
X179055634Y-102444364D01*
X178722255Y-102170766D01*
X178722248Y-102170762D01*
X178341907Y-101967466D01*
X177929196Y-101842271D01*
X177500000Y-101800000D01*
X177070802Y-101842271D01*
X176658091Y-101967466D01*
X176277750Y-102170762D01*
X176277743Y-102170766D01*
X175944364Y-102444364D01*
X175670766Y-102777743D01*
X175670762Y-102777750D01*
X175467466Y-103158091D01*
X175342271Y-103570802D01*
X175300000Y-103999999D01*
X157882300Y-103999999D01*
X157877793Y-103987118D01*
X157797150Y-103877850D01*
X157687882Y-103797207D01*
X157687880Y-103797206D01*
X157559700Y-103752353D01*
X157529270Y-103749500D01*
X157529266Y-103749500D01*
X156470734Y-103749500D01*
X156470730Y-103749500D01*
X156440300Y-103752353D01*
X156440298Y-103752353D01*
X156312119Y-103797206D01*
X156312117Y-103797207D01*
X156202850Y-103877850D01*
X156122207Y-103987117D01*
X156122206Y-103987119D01*
X156077353Y-104115298D01*
X156076631Y-104123003D01*
X156070531Y-104138311D01*
X156069356Y-104154749D01*
X156057865Y-104170098D01*
X156050769Y-104187910D01*
X156037360Y-104197491D01*
X156027485Y-104210684D01*
X156009521Y-104217384D01*
X155993921Y-104228532D01*
X155977460Y-104229342D01*
X155962021Y-104235102D01*
X155943285Y-104231026D01*
X155924136Y-104231970D01*
X155909239Y-104223620D01*
X155893748Y-104220251D01*
X155865499Y-104199104D01*
X155865495Y-104199102D01*
X155845913Y-104179520D01*
X155845911Y-104179519D01*
X155645913Y-103979520D01*
X155645912Y-103979519D01*
X155638855Y-103972462D01*
X155638847Y-103972455D01*
X155481817Y-103815424D01*
X155448334Y-103754103D01*
X155445500Y-103727745D01*
X155445500Y-102843053D01*
X155975000Y-102843053D01*
X155985613Y-102931443D01*
X156041079Y-103072095D01*
X156132435Y-103192564D01*
X156252904Y-103283920D01*
X156393556Y-103339386D01*
X156481946Y-103350000D01*
X156800000Y-103350000D01*
X157200000Y-103350000D01*
X157518054Y-103350000D01*
X157606443Y-103339386D01*
X157747095Y-103283920D01*
X157867564Y-103192564D01*
X157958920Y-103072095D01*
X158014386Y-102931443D01*
X158025000Y-102843053D01*
X158025000Y-102750000D01*
X157200000Y-102750000D01*
X157200000Y-103350000D01*
X156800000Y-103350000D01*
X156800000Y-102750000D01*
X155975000Y-102750000D01*
X155975000Y-102843053D01*
X155445500Y-102843053D01*
X155445500Y-102256946D01*
X155975000Y-102256946D01*
X155975000Y-102350000D01*
X156800000Y-102350000D01*
X157200000Y-102350000D01*
X158025000Y-102350000D01*
X158025000Y-102256946D01*
X158014386Y-102168556D01*
X157958920Y-102027904D01*
X157867564Y-101907435D01*
X157747095Y-101816079D01*
X157606443Y-101760613D01*
X157518054Y-101750000D01*
X157200000Y-101750000D01*
X157200000Y-102350000D01*
X156800000Y-102350000D01*
X156800000Y-101750000D01*
X156481946Y-101750000D01*
X156393556Y-101760613D01*
X156252904Y-101816079D01*
X156132435Y-101907435D01*
X156041079Y-102027904D01*
X155985613Y-102168556D01*
X155975000Y-102256946D01*
X155445500Y-102256946D01*
X155445500Y-102166739D01*
X155435573Y-102098608D01*
X155435573Y-102098607D01*
X155384198Y-101993517D01*
X155384196Y-101993515D01*
X155384196Y-101993514D01*
X155301485Y-101910803D01*
X155196391Y-101859426D01*
X155128261Y-101849500D01*
X155128260Y-101849500D01*
X154761740Y-101849500D01*
X154761739Y-101849500D01*
X154693608Y-101859426D01*
X154588514Y-101910803D01*
X154505802Y-101993515D01*
X154475154Y-102056207D01*
X154428026Y-102107789D01*
X154360492Y-102125703D01*
X154293993Y-102104262D01*
X154249644Y-102050272D01*
X154246712Y-102042700D01*
X154227346Y-101987354D01*
X154146792Y-101878207D01*
X154037645Y-101797653D01*
X153909602Y-101752850D01*
X153879207Y-101750000D01*
X153875000Y-101750000D01*
X153875000Y-102901000D01*
X153872449Y-102909685D01*
X153873738Y-102918647D01*
X153862759Y-102942687D01*
X153855315Y-102968039D01*
X153848474Y-102973966D01*
X153844713Y-102982203D01*
X153822478Y-102996492D01*
X153802511Y-103013794D01*
X153791996Y-103016081D01*
X153785935Y-103019977D01*
X153751000Y-103025000D01*
X153599000Y-103025000D01*
X153531961Y-103005315D01*
X153486206Y-102952511D01*
X153475000Y-102901000D01*
X153475000Y-101750000D01*
X153470796Y-101750001D01*
X153470774Y-101750002D01*
X153440399Y-101752850D01*
X153440394Y-101752851D01*
X153312354Y-101797653D01*
X153203207Y-101878207D01*
X153122653Y-101987354D01*
X153122651Y-101987359D01*
X153103286Y-102042701D01*
X153062564Y-102099477D01*
X152997611Y-102125224D01*
X152929050Y-102111767D01*
X152878647Y-102063380D01*
X152874845Y-102056207D01*
X152844198Y-101993517D01*
X152844196Y-101993515D01*
X152844196Y-101993514D01*
X152761485Y-101910803D01*
X152656391Y-101859426D01*
X152588261Y-101849500D01*
X152588260Y-101849500D01*
X152221740Y-101849500D01*
X152221739Y-101849500D01*
X152153608Y-101859426D01*
X152048514Y-101910803D01*
X151965802Y-101993515D01*
X151935154Y-102056207D01*
X151888026Y-102107789D01*
X151820492Y-102125703D01*
X151753993Y-102104262D01*
X151709644Y-102050272D01*
X151706712Y-102042700D01*
X151687346Y-101987354D01*
X151606792Y-101878207D01*
X151497645Y-101797653D01*
X151369602Y-101752850D01*
X151339207Y-101750000D01*
X151335000Y-101750000D01*
X151335000Y-102901000D01*
X151332449Y-102909685D01*
X151333738Y-102918647D01*
X151322759Y-102942687D01*
X151315315Y-102968039D01*
X151308474Y-102973966D01*
X151304713Y-102982203D01*
X151282478Y-102996492D01*
X151262511Y-103013794D01*
X151251996Y-103016081D01*
X151245935Y-103019977D01*
X151211000Y-103025000D01*
X151059000Y-103025000D01*
X150991961Y-103005315D01*
X150946206Y-102952511D01*
X150935000Y-102901000D01*
X150935000Y-101750000D01*
X150930796Y-101750001D01*
X150930774Y-101750002D01*
X150900399Y-101752850D01*
X150900394Y-101752851D01*
X150772354Y-101797653D01*
X150663207Y-101878207D01*
X150582653Y-101987354D01*
X150582651Y-101987359D01*
X150563286Y-102042701D01*
X150522564Y-102099477D01*
X150457611Y-102125224D01*
X150389050Y-102111767D01*
X150338647Y-102063380D01*
X150334845Y-102056207D01*
X150304198Y-101993517D01*
X150304196Y-101993515D01*
X150304196Y-101993514D01*
X150221485Y-101910803D01*
X150116391Y-101859426D01*
X150048261Y-101849500D01*
X150048260Y-101849500D01*
X149681740Y-101849500D01*
X149681739Y-101849500D01*
X149613608Y-101859426D01*
X149508514Y-101910803D01*
X149425803Y-101993514D01*
X149374426Y-102098608D01*
X149364500Y-102166739D01*
X149364500Y-103883260D01*
X149366447Y-103896627D01*
X149365789Y-103901263D01*
X149367426Y-103905652D01*
X149360926Y-103935530D01*
X149356631Y-103965804D01*
X149353293Y-103970619D01*
X149352575Y-103973925D01*
X149331425Y-104002180D01*
X149299252Y-104034354D01*
X149237929Y-104067840D01*
X149168237Y-104062856D01*
X149112303Y-104020986D01*
X149087885Y-103955522D01*
X149088864Y-103928799D01*
X149095500Y-103883260D01*
X149095500Y-102166740D01*
X149085573Y-102098607D01*
X149034198Y-101993517D01*
X149034196Y-101993515D01*
X149034196Y-101993514D01*
X148951485Y-101910803D01*
X148846391Y-101859426D01*
X148778261Y-101849500D01*
X148778260Y-101849500D01*
X148411740Y-101849500D01*
X148411739Y-101849500D01*
X148343608Y-101859426D01*
X148238514Y-101910803D01*
X148155803Y-101993514D01*
X148104426Y-102098608D01*
X148094500Y-102166739D01*
X148094500Y-103766180D01*
X148092885Y-103786125D01*
X148091883Y-103792269D01*
X148074500Y-103857147D01*
X148074500Y-103898939D01*
X148074500Y-103913811D01*
X148069053Y-103932358D01*
X148068036Y-103938604D01*
X148065930Y-103942993D01*
X148054815Y-103980850D01*
X148038172Y-104001501D01*
X148033323Y-104006349D01*
X148005411Y-104021586D01*
X147978349Y-104038270D01*
X147974967Y-104038206D01*
X147971997Y-104039828D01*
X147940279Y-104037556D01*
X147908492Y-104036960D01*
X147905680Y-104035077D01*
X147902305Y-104034836D01*
X147876854Y-104015779D01*
X147850432Y-103998091D01*
X147849084Y-103994986D01*
X147846376Y-103992959D01*
X147835268Y-103963168D01*
X147822604Y-103934002D01*
X147822689Y-103929432D01*
X147821966Y-103927492D01*
X147822947Y-103900779D01*
X147823216Y-103898939D01*
X147825500Y-103883260D01*
X147825500Y-102166740D01*
X147815573Y-102098607D01*
X147764198Y-101993517D01*
X147764196Y-101993515D01*
X147764196Y-101993514D01*
X147681485Y-101910803D01*
X147576391Y-101859426D01*
X147508261Y-101849500D01*
X147508260Y-101849500D01*
X147141740Y-101849500D01*
X147141739Y-101849500D01*
X147073608Y-101859426D01*
X146968514Y-101910803D01*
X146885803Y-101993514D01*
X146834426Y-102098608D01*
X146824500Y-102166739D01*
X146824500Y-102645614D01*
X146815855Y-102675054D01*
X146809332Y-102705041D01*
X146805577Y-102710056D01*
X146804815Y-102712653D01*
X146788181Y-102733295D01*
X146767181Y-102754295D01*
X146705858Y-102787780D01*
X146636166Y-102782796D01*
X146580233Y-102740924D01*
X146555816Y-102675460D01*
X146555500Y-102666614D01*
X146555500Y-102166746D01*
X146555500Y-102166740D01*
X146551794Y-102141304D01*
X146550500Y-102123439D01*
X146550500Y-102027527D01*
X146550500Y-102027525D01*
X146512984Y-101887515D01*
X146496767Y-101859427D01*
X146440511Y-101761988D01*
X146440506Y-101761982D01*
X146338017Y-101659493D01*
X146338011Y-101659488D01*
X146212488Y-101587017D01*
X146212489Y-101587017D01*
X146201006Y-101583940D01*
X146072475Y-101549500D01*
X145927525Y-101549500D01*
X145798993Y-101583940D01*
X145787511Y-101587017D01*
X145661988Y-101659488D01*
X145661982Y-101659493D01*
X145559493Y-101761982D01*
X145559488Y-101761988D01*
X145487017Y-101887511D01*
X145487016Y-101887515D01*
X145449500Y-102027525D01*
X145449500Y-102172475D01*
X145487016Y-102312485D01*
X145537887Y-102400597D01*
X145554500Y-102462595D01*
X145554500Y-103883260D01*
X145564426Y-103951392D01*
X145586253Y-103996039D01*
X145598013Y-104064912D01*
X145570670Y-104129210D01*
X145512905Y-104168517D01*
X145474853Y-104174500D01*
X144960480Y-104174500D01*
X144893441Y-104154815D01*
X144859968Y-104118371D01*
X144858311Y-104119595D01*
X144852792Y-104112117D01*
X144772150Y-104002850D01*
X144662882Y-103922207D01*
X144662880Y-103922206D01*
X144534700Y-103877353D01*
X144504270Y-103874500D01*
X144504266Y-103874500D01*
X143495734Y-103874500D01*
X143495730Y-103874500D01*
X143465300Y-103877353D01*
X143465298Y-103877353D01*
X143337119Y-103922206D01*
X143337117Y-103922207D01*
X143227850Y-104002850D01*
X143147207Y-104112117D01*
X143147206Y-104112119D01*
X143102353Y-104240298D01*
X143102353Y-104240300D01*
X143099500Y-104270730D01*
X143099500Y-104904269D01*
X143102353Y-104934699D01*
X143102353Y-104934701D01*
X143144305Y-105054589D01*
X143147207Y-105062882D01*
X143227850Y-105172150D01*
X143337118Y-105252793D01*
X143379845Y-105267744D01*
X143465299Y-105297646D01*
X143495730Y-105300500D01*
X143495734Y-105300500D01*
X144504270Y-105300500D01*
X144534699Y-105297646D01*
X144534701Y-105297646D01*
X144606622Y-105272479D01*
X144662882Y-105252793D01*
X144772150Y-105172150D01*
X144852793Y-105062882D01*
X144892467Y-104949500D01*
X144897646Y-104934701D01*
X144899256Y-104927330D01*
X144901379Y-104927793D01*
X144923198Y-104873018D01*
X144980041Y-104832391D01*
X145020802Y-104825500D01*
X148042851Y-104825500D01*
X148042853Y-104825500D01*
X148125639Y-104803318D01*
X148199862Y-104760465D01*
X148399860Y-104560466D01*
X148399862Y-104560465D01*
X148599860Y-104360466D01*
X148599862Y-104360465D01*
X148660465Y-104299862D01*
X148682328Y-104261993D01*
X148732892Y-104213779D01*
X148773977Y-104202232D01*
X148773819Y-104201147D01*
X148778259Y-104200500D01*
X148778260Y-104200500D01*
X148823797Y-104193865D01*
X148892973Y-104203678D01*
X148945864Y-104249333D01*
X148965675Y-104316335D01*
X148946117Y-104383411D01*
X148929357Y-104404249D01*
X148879521Y-104454086D01*
X147679520Y-105654087D01*
X147679516Y-105654089D01*
X147670425Y-105663181D01*
X147655894Y-105671115D01*
X147647293Y-105677315D01*
X147647291Y-105677316D01*
X147646700Y-105676135D01*
X147609102Y-105696666D01*
X147582744Y-105699500D01*
X144547271Y-105699500D01*
X144543219Y-105700033D01*
X144515472Y-105700550D01*
X144504266Y-105699500D01*
X143495734Y-105699500D01*
X143495730Y-105699500D01*
X143465300Y-105702353D01*
X143465298Y-105702353D01*
X143337119Y-105747206D01*
X143337117Y-105747207D01*
X143227850Y-105827850D01*
X143147207Y-105937117D01*
X143147206Y-105937119D01*
X143102353Y-106065298D01*
X143102353Y-106065300D01*
X143099500Y-106095730D01*
X143099500Y-106729269D01*
X143102353Y-106759699D01*
X143102353Y-106759701D01*
X143147082Y-106887525D01*
X143147207Y-106887882D01*
X143227850Y-106997150D01*
X143337118Y-107077793D01*
X143364891Y-107087511D01*
X143465299Y-107122646D01*
X143495730Y-107125500D01*
X143495734Y-107125500D01*
X144075500Y-107125500D01*
X144142539Y-107145185D01*
X144188294Y-107197989D01*
X144199500Y-107249500D01*
X144199500Y-111870614D01*
X144179815Y-111937653D01*
X144163181Y-111958295D01*
X144159493Y-111961982D01*
X144159488Y-111961988D01*
X144087017Y-112087511D01*
X144087016Y-112087515D01*
X144049500Y-112227525D01*
X144049500Y-112372475D01*
X144083671Y-112500000D01*
X144087017Y-112512488D01*
X144159488Y-112638011D01*
X144159490Y-112638013D01*
X144159491Y-112638015D01*
X144261985Y-112740509D01*
X144261986Y-112740510D01*
X144261988Y-112740511D01*
X144276548Y-112748917D01*
X144297895Y-112764492D01*
X144300106Y-112766499D01*
X144354087Y-112820480D01*
X144369156Y-112829180D01*
X144378992Y-112838109D01*
X144385289Y-112848424D01*
X144398746Y-112861027D01*
X144455886Y-112946542D01*
X144455888Y-112946544D01*
X144455891Y-112946548D01*
X144553454Y-113044111D01*
X144553458Y-113044114D01*
X144668182Y-113120771D01*
X144668195Y-113120778D01*
X144795667Y-113173578D01*
X144795672Y-113173580D01*
X144866394Y-113187647D01*
X144899691Y-113194271D01*
X144961602Y-113226656D01*
X144996176Y-113287371D01*
X144999500Y-113315888D01*
X144999500Y-123282745D01*
X144979815Y-123349784D01*
X144963181Y-123370426D01*
X144879520Y-123454087D01*
X144879519Y-123454088D01*
X144679520Y-123654087D01*
X144679519Y-123654088D01*
X144479520Y-123854087D01*
X144479519Y-123854088D01*
X144279520Y-124054087D01*
X144279519Y-124054088D01*
X144079520Y-124254087D01*
X144079519Y-124254088D01*
X143879520Y-124454087D01*
X143879519Y-124454088D01*
X143679520Y-124654087D01*
X143679519Y-124654088D01*
X143479520Y-124854087D01*
X143479519Y-124854088D01*
X143279520Y-125054087D01*
X143279519Y-125054088D01*
X143079520Y-125254087D01*
X143079519Y-125254088D01*
X142879520Y-125454087D01*
X142879519Y-125454088D01*
X142679520Y-125654087D01*
X142679519Y-125654088D01*
X142479520Y-125854087D01*
X142479519Y-125854088D01*
X142279520Y-126054087D01*
X142279519Y-126054088D01*
X142079520Y-126254087D01*
X142079519Y-126254088D01*
X141879520Y-126454087D01*
X141879519Y-126454088D01*
X141679520Y-126654087D01*
X141679519Y-126654088D01*
X141479520Y-126854087D01*
X141479519Y-126854088D01*
X141279520Y-127054087D01*
X141279519Y-127054088D01*
X141079520Y-127254087D01*
X141079519Y-127254088D01*
X140879520Y-127454087D01*
X140879519Y-127454088D01*
X140754087Y-127579519D01*
X140754087Y-127579520D01*
X140736644Y-127596963D01*
X140736641Y-127596964D01*
X140233747Y-128099860D01*
X140079520Y-128254087D01*
X140079519Y-128254088D01*
X140003485Y-128330122D01*
X139958427Y-128375180D01*
X139958405Y-128375200D01*
X139894072Y-128439534D01*
X139754088Y-128579519D01*
X139079521Y-129254085D01*
X139079520Y-129254087D01*
X139079519Y-129254088D01*
X138987694Y-129345913D01*
X138958427Y-129375180D01*
X138958405Y-129375200D01*
X138898406Y-129435200D01*
X138754088Y-129579519D01*
X138754087Y-129579520D01*
X138079520Y-130254087D01*
X138079519Y-130254088D01*
X137958421Y-130375186D01*
X137958420Y-130375185D01*
X137958416Y-130375190D01*
X137736925Y-130596681D01*
X137736926Y-130596682D01*
X137670425Y-130663182D01*
X137609105Y-130696666D01*
X137582746Y-130699500D01*
X134147269Y-130699500D01*
X134109987Y-130709489D01*
X134109987Y-130709490D01*
X134088462Y-130715257D01*
X134045410Y-130726793D01*
X134045409Y-130726794D01*
X133954086Y-130779520D01*
X133875188Y-130858418D01*
X133875187Y-130858417D01*
X133875183Y-130858421D01*
X133875184Y-130858422D01*
X133754088Y-130979520D01*
X133754087Y-130979520D01*
X133479521Y-131254085D01*
X133479520Y-131254087D01*
X133479519Y-131254088D01*
X133390754Y-131342853D01*
X133358427Y-131375180D01*
X133358405Y-131375200D01*
X133313128Y-131420478D01*
X133170424Y-131563182D01*
X133109104Y-131596666D01*
X133082745Y-131599500D01*
X132770730Y-131599500D01*
X132740300Y-131602353D01*
X132740298Y-131602353D01*
X132612119Y-131647206D01*
X132612117Y-131647207D01*
X132502850Y-131727850D01*
X132422207Y-131837117D01*
X132422206Y-131837119D01*
X132377353Y-131965298D01*
X132377353Y-131965300D01*
X132374500Y-131995730D01*
X132374500Y-133004269D01*
X132377353Y-133034699D01*
X132377353Y-133034701D01*
X132419886Y-133156250D01*
X132422207Y-133162882D01*
X132422352Y-133163078D01*
X132432528Y-133176866D01*
X132456498Y-133242495D01*
X132441182Y-133310665D01*
X132391442Y-133359733D01*
X132332757Y-133374499D01*
X131667243Y-133374499D01*
X131600204Y-133354814D01*
X131554449Y-133302010D01*
X131544505Y-133232852D01*
X131567472Y-133176866D01*
X131577793Y-133162882D01*
X131608022Y-133076492D01*
X131622646Y-133034701D01*
X131622646Y-133034699D01*
X131625500Y-133004269D01*
X131625500Y-131995730D01*
X131622646Y-131965300D01*
X131622646Y-131965298D01*
X131577793Y-131837119D01*
X131577792Y-131837117D01*
X131574729Y-131832967D01*
X131497150Y-131727850D01*
X131387882Y-131647207D01*
X131387880Y-131647206D01*
X131259700Y-131602353D01*
X131229270Y-131599500D01*
X131229266Y-131599500D01*
X131049500Y-131599500D01*
X131040814Y-131596949D01*
X131031853Y-131598238D01*
X131007812Y-131587259D01*
X130982461Y-131579815D01*
X130976533Y-131572974D01*
X130968297Y-131569213D01*
X130954007Y-131546978D01*
X130936706Y-131527011D01*
X130934418Y-131516496D01*
X130930523Y-131510435D01*
X130925500Y-131475500D01*
X130925500Y-131352855D01*
X130925501Y-131352842D01*
X130925501Y-131257148D01*
X130925501Y-131257147D01*
X130903318Y-131174361D01*
X130876827Y-131128478D01*
X130867683Y-131112639D01*
X130867680Y-131112636D01*
X130860673Y-131100499D01*
X130860465Y-131100138D01*
X130799862Y-131039535D01*
X130799860Y-131039533D01*
X130599862Y-130839535D01*
X130592797Y-130832470D01*
X130592790Y-130832464D01*
X130417470Y-130657145D01*
X130339846Y-130579520D01*
X130199863Y-130439535D01*
X130199860Y-130439533D01*
X130195532Y-130435205D01*
X130195532Y-130435204D01*
X130195527Y-130435200D01*
X129999861Y-130239535D01*
X129799862Y-130039535D01*
X129592797Y-129832470D01*
X129592790Y-129832464D01*
X129417470Y-129657145D01*
X129339845Y-129579519D01*
X129199863Y-129439535D01*
X129199860Y-129439533D01*
X129195532Y-129435205D01*
X129195532Y-129435204D01*
X129195527Y-129435200D01*
X128999861Y-129239535D01*
X128799862Y-129039535D01*
X128592797Y-128832470D01*
X128592790Y-128832464D01*
X128417470Y-128657145D01*
X128306237Y-128545911D01*
X128277903Y-128517577D01*
X128277901Y-128517572D01*
X128100474Y-128340146D01*
X128100469Y-128340142D01*
X128060045Y-128299718D01*
X127799861Y-128039535D01*
X127599862Y-127839535D01*
X127599860Y-127839533D01*
X127399862Y-127639535D01*
X126908009Y-127147682D01*
X131300000Y-127147682D01*
X131300000Y-127352317D01*
X131332009Y-127554417D01*
X131395244Y-127749031D01*
X131488139Y-127931347D01*
X131550279Y-128016876D01*
X132057241Y-127509914D01*
X132119881Y-127618408D01*
X132231592Y-127730119D01*
X132340083Y-127792757D01*
X131833121Y-128299719D01*
X131833122Y-128299720D01*
X131918640Y-128361852D01*
X131918649Y-128361858D01*
X132100968Y-128454755D01*
X132295582Y-128517990D01*
X132497683Y-128550000D01*
X132702317Y-128550000D01*
X132904417Y-128517990D01*
X133099031Y-128454755D01*
X133281349Y-128361859D01*
X133366876Y-128299719D01*
X133366877Y-128299718D01*
X132859916Y-127792757D01*
X132968408Y-127730119D01*
X133080119Y-127618408D01*
X133142757Y-127509915D01*
X133649718Y-128016877D01*
X133649719Y-128016876D01*
X133711859Y-127931349D01*
X133804755Y-127749031D01*
X133867990Y-127554417D01*
X133900000Y-127352317D01*
X133900000Y-127147682D01*
X133867990Y-126945582D01*
X133804755Y-126750968D01*
X133711858Y-126568649D01*
X133711852Y-126568640D01*
X133649720Y-126483122D01*
X133649719Y-126483121D01*
X133142757Y-126990083D01*
X133080119Y-126881592D01*
X132968408Y-126769881D01*
X132859914Y-126707241D01*
X133366876Y-126200279D01*
X133281347Y-126138139D01*
X133099031Y-126045244D01*
X132904417Y-125982009D01*
X132702317Y-125950000D01*
X132497683Y-125950000D01*
X132295582Y-125982009D01*
X132100968Y-126045244D01*
X131918648Y-126138141D01*
X131833122Y-126200278D01*
X131833122Y-126200279D01*
X132340085Y-126707242D01*
X132231592Y-126769881D01*
X132119881Y-126881592D01*
X132057242Y-126990085D01*
X131550279Y-126483122D01*
X131550278Y-126483122D01*
X131488141Y-126568648D01*
X131395244Y-126750968D01*
X131332009Y-126945582D01*
X131300000Y-127147682D01*
X126908009Y-127147682D01*
X126799862Y-127039535D01*
X126799860Y-127039533D01*
X126677896Y-126917569D01*
X126644411Y-126856246D01*
X126649395Y-126786554D01*
X126655088Y-126773601D01*
X126712547Y-126660832D01*
X126770940Y-126481118D01*
X126775221Y-126454087D01*
X126800500Y-126294486D01*
X126800500Y-126105513D01*
X126770940Y-125918881D01*
X126725658Y-125779519D01*
X126712547Y-125739168D01*
X126712545Y-125739165D01*
X126712545Y-125739163D01*
X126658770Y-125633625D01*
X126626760Y-125570801D01*
X126515690Y-125417927D01*
X126382073Y-125284310D01*
X126229199Y-125173240D01*
X126175563Y-125145911D01*
X126060836Y-125087454D01*
X125881118Y-125029059D01*
X125694486Y-124999500D01*
X125694481Y-124999500D01*
X125505519Y-124999500D01*
X125505514Y-124999500D01*
X125318881Y-125029059D01*
X125139163Y-125087454D01*
X124970800Y-125173240D01*
X124905781Y-125220480D01*
X124817927Y-125284310D01*
X124817925Y-125284312D01*
X124817924Y-125284312D01*
X124684312Y-125417924D01*
X124684312Y-125417925D01*
X124684310Y-125417927D01*
X124650819Y-125464023D01*
X124573240Y-125570800D01*
X124487454Y-125739163D01*
X124429059Y-125918881D01*
X124399500Y-126105513D01*
X124399500Y-126294486D01*
X124429059Y-126481118D01*
X124487454Y-126660836D01*
X124544907Y-126773593D01*
X124573240Y-126829199D01*
X124684310Y-126982073D01*
X124817927Y-127115690D01*
X124970801Y-127226760D01*
X125050347Y-127267290D01*
X125139163Y-127312545D01*
X125139165Y-127312545D01*
X125139168Y-127312547D01*
X125235497Y-127343846D01*
X125318881Y-127370940D01*
X125505514Y-127400500D01*
X125505519Y-127400500D01*
X125694486Y-127400500D01*
X125881118Y-127370940D01*
X126057542Y-127313615D01*
X126127380Y-127311621D01*
X126183539Y-127343866D01*
X127339535Y-128499862D01*
X127739533Y-128899858D01*
X127739534Y-128899859D01*
X128007203Y-129167531D01*
X128007210Y-129167537D01*
X128339535Y-129499862D01*
X128539536Y-129699862D01*
X128739533Y-129899858D01*
X128739534Y-129899859D01*
X129007203Y-130167531D01*
X129007210Y-130167537D01*
X129139533Y-130299860D01*
X129139535Y-130299862D01*
X129339533Y-130499860D01*
X129339535Y-130499862D01*
X129539536Y-130699862D01*
X129739534Y-130899859D01*
X129956927Y-131117255D01*
X130007203Y-131167531D01*
X130007210Y-131167537D01*
X130238181Y-131398508D01*
X130271666Y-131459831D01*
X130274500Y-131486189D01*
X130274500Y-131759334D01*
X130254815Y-131826373D01*
X130250271Y-131832967D01*
X130247207Y-131837118D01*
X130247206Y-131837119D01*
X130202353Y-131965298D01*
X130202353Y-131965300D01*
X130199500Y-131995730D01*
X130199500Y-133004269D01*
X130202353Y-133034699D01*
X130202354Y-133034701D01*
X130242168Y-133148483D01*
X130242564Y-133156250D01*
X130246293Y-133163078D01*
X130244320Y-133190655D01*
X130245730Y-133218262D01*
X130241863Y-133225011D01*
X130241309Y-133232770D01*
X130224742Y-133254900D01*
X130211002Y-133278889D01*
X130204100Y-133282476D01*
X130199439Y-133288704D01*
X130173537Y-133298365D01*
X130149008Y-133311117D01*
X130141262Y-133310403D01*
X130133975Y-133313122D01*
X130106964Y-133307246D01*
X130079433Y-133304712D01*
X130071576Y-133299548D01*
X130065702Y-133298271D01*
X130037446Y-133277119D01*
X130024073Y-133263746D01*
X129999864Y-133239538D01*
X129999862Y-133239536D01*
X129999861Y-133239535D01*
X129836817Y-133076490D01*
X129803334Y-133015169D01*
X129800500Y-132988811D01*
X129800500Y-131995730D01*
X129797646Y-131965300D01*
X129797646Y-131965298D01*
X129752793Y-131837119D01*
X129752792Y-131837117D01*
X129749729Y-131832967D01*
X129672150Y-131727850D01*
X129562882Y-131647207D01*
X129562880Y-131647206D01*
X129434700Y-131602353D01*
X129404270Y-131599500D01*
X129404266Y-131599500D01*
X129011189Y-131599500D01*
X128944150Y-131579815D01*
X128923508Y-131563181D01*
X128592797Y-131232470D01*
X128592790Y-131232464D01*
X128399860Y-131039535D01*
X128260466Y-130900140D01*
X128260466Y-130900139D01*
X128199863Y-130839536D01*
X128199855Y-130839530D01*
X128125644Y-130796685D01*
X128125639Y-130796682D01*
X128093613Y-130788101D01*
X128061588Y-130779520D01*
X128061587Y-130779519D01*
X128061585Y-130779519D01*
X128042856Y-130774500D01*
X128042854Y-130774500D01*
X128042853Y-130774500D01*
X126250465Y-130774500D01*
X126250449Y-130774499D01*
X126242853Y-130774499D01*
X126157147Y-130774499D01*
X126101956Y-130789287D01*
X126074360Y-130796682D01*
X126055805Y-130807395D01*
X126037250Y-130818108D01*
X126012508Y-130832393D01*
X126000138Y-130839535D01*
X125946604Y-130893069D01*
X125946603Y-130893068D01*
X125746601Y-131093071D01*
X125400136Y-131439534D01*
X125400137Y-131439535D01*
X125333507Y-131506166D01*
X125301492Y-131538181D01*
X125240169Y-131571666D01*
X125213810Y-131574500D01*
X124745730Y-131574500D01*
X124715300Y-131577353D01*
X124715298Y-131577353D01*
X124587119Y-131622206D01*
X124587117Y-131622207D01*
X124477850Y-131702850D01*
X124397207Y-131812117D01*
X124397206Y-131812119D01*
X124352353Y-131940298D01*
X124352353Y-131940300D01*
X124349500Y-131970730D01*
X97300500Y-131970730D01*
X97300500Y-114970730D01*
X104349500Y-114970730D01*
X104349500Y-116029269D01*
X104352353Y-116059699D01*
X104352353Y-116059701D01*
X104397206Y-116187880D01*
X104397207Y-116187882D01*
X104477850Y-116297150D01*
X104587118Y-116377793D01*
X104619132Y-116388995D01*
X104715299Y-116422646D01*
X104745730Y-116425500D01*
X104745734Y-116425500D01*
X105354270Y-116425500D01*
X105384699Y-116422646D01*
X105384701Y-116422646D01*
X105456145Y-116397646D01*
X105512882Y-116377793D01*
X105622150Y-116297150D01*
X105702793Y-116187882D01*
X105731290Y-116106443D01*
X105747646Y-116059701D01*
X105747646Y-116059699D01*
X105750500Y-116029269D01*
X105750500Y-116018053D01*
X106150000Y-116018053D01*
X106160613Y-116106443D01*
X106216079Y-116247095D01*
X106307435Y-116367564D01*
X106427904Y-116458920D01*
X106568556Y-116514386D01*
X106656946Y-116525000D01*
X106750000Y-116525000D01*
X107150000Y-116525000D01*
X107243054Y-116525000D01*
X107331443Y-116514386D01*
X107472095Y-116458920D01*
X107592564Y-116367564D01*
X107683920Y-116247095D01*
X107739386Y-116106443D01*
X107750000Y-116018053D01*
X107750000Y-115700000D01*
X107150000Y-115700000D01*
X107150000Y-116525000D01*
X106750000Y-116525000D01*
X106750000Y-115700000D01*
X106150000Y-115700000D01*
X106150000Y-116018053D01*
X105750500Y-116018053D01*
X105750500Y-115061188D01*
X105770185Y-114994149D01*
X105786806Y-114973519D01*
X105799860Y-114960466D01*
X105799862Y-114960465D01*
X105947169Y-114813157D01*
X106008489Y-114779675D01*
X106078180Y-114784659D01*
X106134114Y-114826530D01*
X106158531Y-114891995D01*
X106157963Y-114915623D01*
X106150000Y-114981944D01*
X106150000Y-115300000D01*
X107750000Y-115300000D01*
X107750000Y-114981946D01*
X107739385Y-114893555D01*
X107700517Y-114794989D01*
X107697658Y-114763318D01*
X107693134Y-114731853D01*
X107694540Y-114728773D01*
X107694236Y-114725403D01*
X107708949Y-114697221D01*
X107722159Y-114668297D01*
X107725006Y-114666466D01*
X107726573Y-114663467D01*
X107754185Y-114647715D01*
X107780937Y-114630523D01*
X107785463Y-114629872D01*
X107787262Y-114628846D01*
X107815872Y-114625500D01*
X108013811Y-114625500D01*
X108080850Y-114645185D01*
X108101492Y-114661819D01*
X108338501Y-114898828D01*
X108371986Y-114960151D01*
X108373991Y-114992807D01*
X108374635Y-114992838D01*
X108374500Y-114995723D01*
X108374500Y-116004269D01*
X108377353Y-116034699D01*
X108377353Y-116034701D01*
X108422206Y-116162880D01*
X108422207Y-116162882D01*
X108502850Y-116272150D01*
X108612118Y-116352793D01*
X108654231Y-116367529D01*
X108740299Y-116397646D01*
X108770730Y-116400500D01*
X108770734Y-116400500D01*
X109404270Y-116400500D01*
X109428612Y-116398216D01*
X109434699Y-116397646D01*
X109548487Y-116357829D01*
X109618262Y-116354267D01*
X109678889Y-116388995D01*
X109711117Y-116450988D01*
X109704713Y-116520564D01*
X109677120Y-116562552D01*
X105939537Y-120300135D01*
X105939533Y-120300141D01*
X105896681Y-120374361D01*
X105896682Y-120374362D01*
X105874500Y-120457147D01*
X105874500Y-124882826D01*
X105854815Y-124949865D01*
X105802011Y-124995620D01*
X105732853Y-125005564D01*
X105731104Y-125005300D01*
X105694481Y-124999500D01*
X105505519Y-124999500D01*
X105505514Y-124999500D01*
X105318881Y-125029059D01*
X105139163Y-125087454D01*
X104970800Y-125173240D01*
X104905781Y-125220480D01*
X104817927Y-125284310D01*
X104817925Y-125284312D01*
X104817924Y-125284312D01*
X104684312Y-125417924D01*
X104684312Y-125417925D01*
X104684310Y-125417927D01*
X104650819Y-125464023D01*
X104573240Y-125570800D01*
X104487454Y-125739163D01*
X104429059Y-125918881D01*
X104399500Y-126105513D01*
X104399500Y-126294486D01*
X104429059Y-126481118D01*
X104487454Y-126660836D01*
X104544907Y-126773593D01*
X104573240Y-126829199D01*
X104684310Y-126982073D01*
X104817927Y-127115690D01*
X104970801Y-127226760D01*
X105050347Y-127267290D01*
X105139163Y-127312545D01*
X105139165Y-127312545D01*
X105139168Y-127312547D01*
X105235497Y-127343846D01*
X105318881Y-127370940D01*
X105505514Y-127400500D01*
X105505519Y-127400500D01*
X105694486Y-127400500D01*
X105881118Y-127370940D01*
X106060832Y-127312547D01*
X106229199Y-127226760D01*
X106338040Y-127147682D01*
X111300000Y-127147682D01*
X111300000Y-127352317D01*
X111332009Y-127554417D01*
X111395244Y-127749031D01*
X111488139Y-127931347D01*
X111550279Y-128016876D01*
X112057241Y-127509914D01*
X112119881Y-127618408D01*
X112231592Y-127730119D01*
X112340083Y-127792757D01*
X111833121Y-128299719D01*
X111833122Y-128299720D01*
X111918640Y-128361852D01*
X111918649Y-128361858D01*
X112100968Y-128454755D01*
X112295582Y-128517990D01*
X112497683Y-128550000D01*
X112702317Y-128550000D01*
X112904417Y-128517990D01*
X113099031Y-128454755D01*
X113281349Y-128361859D01*
X113366876Y-128299719D01*
X113366877Y-128299718D01*
X112859916Y-127792757D01*
X112968408Y-127730119D01*
X113080119Y-127618408D01*
X113142757Y-127509915D01*
X113649718Y-128016877D01*
X113649719Y-128016876D01*
X113711859Y-127931349D01*
X113804755Y-127749031D01*
X113867990Y-127554417D01*
X113900000Y-127352317D01*
X113900000Y-127147682D01*
X113867990Y-126945582D01*
X113804755Y-126750968D01*
X113711858Y-126568649D01*
X113711852Y-126568640D01*
X113649720Y-126483122D01*
X113649719Y-126483121D01*
X113142757Y-126990083D01*
X113080119Y-126881592D01*
X112968408Y-126769881D01*
X112859914Y-126707241D01*
X113366876Y-126200279D01*
X113281347Y-126138139D01*
X113099031Y-126045244D01*
X112904417Y-125982009D01*
X112702317Y-125950000D01*
X112497683Y-125950000D01*
X112295582Y-125982009D01*
X112100968Y-126045244D01*
X111918648Y-126138141D01*
X111833122Y-126200278D01*
X111833122Y-126200279D01*
X112340085Y-126707242D01*
X112231592Y-126769881D01*
X112119881Y-126881592D01*
X112057242Y-126990085D01*
X111550279Y-126483122D01*
X111550278Y-126483122D01*
X111488141Y-126568648D01*
X111395244Y-126750968D01*
X111332009Y-126945582D01*
X111300000Y-127147682D01*
X106338040Y-127147682D01*
X106382073Y-127115690D01*
X106515690Y-126982073D01*
X106626760Y-126829199D01*
X106712547Y-126660832D01*
X106770940Y-126481118D01*
X106775221Y-126454087D01*
X106800500Y-126294486D01*
X106800500Y-126105513D01*
X106770940Y-125918881D01*
X106725658Y-125779519D01*
X106712547Y-125739168D01*
X106712545Y-125739165D01*
X106712545Y-125739163D01*
X106681423Y-125678083D01*
X106626760Y-125570801D01*
X106596118Y-125528626D01*
X106549182Y-125464023D01*
X106525702Y-125398217D01*
X106525500Y-125391138D01*
X106525500Y-120686188D01*
X106534144Y-120656748D01*
X106540667Y-120626763D01*
X106544422Y-120621745D01*
X106545185Y-120619149D01*
X106561812Y-120598513D01*
X106599860Y-120560466D01*
X106599862Y-120560465D01*
X106799860Y-120360466D01*
X106799862Y-120360465D01*
X106999860Y-120160466D01*
X106999862Y-120160465D01*
X107325814Y-119834512D01*
X107387135Y-119801029D01*
X107456826Y-119806013D01*
X107512760Y-119847884D01*
X107537177Y-119913349D01*
X107522325Y-119981622D01*
X107518487Y-119988166D01*
X107453033Y-120092336D01*
X107453032Y-120092338D01*
X107311438Y-120386359D01*
X107203656Y-120694385D01*
X107203655Y-120694387D01*
X107131038Y-121012544D01*
X107131035Y-121012558D01*
X107094500Y-121336824D01*
X107094500Y-121663175D01*
X107131035Y-121987441D01*
X107131038Y-121987455D01*
X107203655Y-122305612D01*
X107203656Y-122305614D01*
X107311438Y-122613640D01*
X107453030Y-122907657D01*
X107487168Y-122961988D01*
X107626654Y-123183979D01*
X107830123Y-123439121D01*
X108060879Y-123669877D01*
X108316021Y-123873346D01*
X108592340Y-124046968D01*
X108886361Y-124188562D01*
X109194387Y-124296344D01*
X109512544Y-124368962D01*
X109512553Y-124368963D01*
X109512558Y-124368964D01*
X109728735Y-124393320D01*
X109836825Y-124405499D01*
X109836828Y-124405500D01*
X109836831Y-124405500D01*
X110163172Y-124405500D01*
X110163173Y-124405499D01*
X110328900Y-124386826D01*
X110487441Y-124368964D01*
X110487444Y-124368963D01*
X110487456Y-124368962D01*
X110805613Y-124296344D01*
X111113639Y-124188562D01*
X111407660Y-124046968D01*
X111683979Y-123873346D01*
X111939121Y-123669877D01*
X112169877Y-123439121D01*
X112373346Y-123183979D01*
X112546968Y-122907660D01*
X112688562Y-122613639D01*
X112796344Y-122305613D01*
X112868962Y-121987456D01*
X112905500Y-121663169D01*
X112905500Y-121336831D01*
X112905499Y-121336824D01*
X127094500Y-121336824D01*
X127094500Y-121663175D01*
X127131035Y-121987441D01*
X127131038Y-121987455D01*
X127203655Y-122305612D01*
X127203656Y-122305614D01*
X127311438Y-122613640D01*
X127453030Y-122907657D01*
X127487168Y-122961988D01*
X127626654Y-123183979D01*
X127830123Y-123439121D01*
X128060879Y-123669877D01*
X128316021Y-123873346D01*
X128592340Y-124046968D01*
X128886361Y-124188562D01*
X129194387Y-124296344D01*
X129512544Y-124368962D01*
X129512553Y-124368963D01*
X129512558Y-124368964D01*
X129728735Y-124393320D01*
X129836825Y-124405499D01*
X129836828Y-124405500D01*
X129836831Y-124405500D01*
X130163172Y-124405500D01*
X130163173Y-124405499D01*
X130328900Y-124386826D01*
X130487441Y-124368964D01*
X130487444Y-124368963D01*
X130487456Y-124368962D01*
X130805613Y-124296344D01*
X131113639Y-124188562D01*
X131407660Y-124046968D01*
X131683979Y-123873346D01*
X131939121Y-123669877D01*
X132169877Y-123439121D01*
X132373346Y-123183979D01*
X132546968Y-122907660D01*
X132688562Y-122613639D01*
X132796344Y-122305613D01*
X132868962Y-121987456D01*
X132905500Y-121663169D01*
X132905500Y-121336831D01*
X132873239Y-121050500D01*
X132868964Y-121012558D01*
X132868963Y-121012553D01*
X132868962Y-121012544D01*
X132796344Y-120694387D01*
X132688562Y-120386361D01*
X132580509Y-120161988D01*
X132546969Y-120092342D01*
X132546968Y-120092340D01*
X132373346Y-119816021D01*
X132169877Y-119560879D01*
X131939121Y-119330123D01*
X131683979Y-119126654D01*
X131407660Y-118953032D01*
X131407657Y-118953030D01*
X131113640Y-118811438D01*
X130805614Y-118703656D01*
X130805612Y-118703655D01*
X130560073Y-118647612D01*
X130487456Y-118631038D01*
X130487453Y-118631037D01*
X130487441Y-118631035D01*
X130163175Y-118594500D01*
X130163169Y-118594500D01*
X129836831Y-118594500D01*
X129836824Y-118594500D01*
X129512558Y-118631035D01*
X129512544Y-118631038D01*
X129194387Y-118703655D01*
X129194385Y-118703656D01*
X128886359Y-118811438D01*
X128592342Y-118953030D01*
X128316022Y-119126653D01*
X128060879Y-119330122D01*
X127830122Y-119560879D01*
X127626653Y-119816022D01*
X127453030Y-120092342D01*
X127311438Y-120386359D01*
X127203656Y-120694385D01*
X127203655Y-120694387D01*
X127131038Y-121012544D01*
X127131035Y-121012558D01*
X127094500Y-121336824D01*
X112905499Y-121336824D01*
X112873239Y-121050500D01*
X112868964Y-121012558D01*
X112868963Y-121012553D01*
X112868962Y-121012544D01*
X112796344Y-120694387D01*
X112688562Y-120386361D01*
X112580509Y-120161988D01*
X112546969Y-120092342D01*
X112546968Y-120092340D01*
X112373346Y-119816021D01*
X112169877Y-119560879D01*
X111939121Y-119330123D01*
X111683979Y-119126654D01*
X111407660Y-118953032D01*
X111407657Y-118953030D01*
X111113640Y-118811438D01*
X110805614Y-118703656D01*
X110805612Y-118703655D01*
X110560073Y-118647612D01*
X110487456Y-118631038D01*
X110487453Y-118631037D01*
X110487441Y-118631035D01*
X110163175Y-118594500D01*
X110163169Y-118594500D01*
X109836831Y-118594500D01*
X109836824Y-118594500D01*
X109512558Y-118631035D01*
X109512544Y-118631038D01*
X109194387Y-118703655D01*
X109194385Y-118703656D01*
X108886359Y-118811438D01*
X108592338Y-118953032D01*
X108592336Y-118953033D01*
X108488166Y-119018487D01*
X108420929Y-119037487D01*
X108354094Y-119017119D01*
X108308881Y-118963850D01*
X108299644Y-118894594D01*
X108329316Y-118831338D01*
X108334498Y-118825828D01*
X108660465Y-118499862D01*
X108660465Y-118499861D01*
X108799860Y-118360466D01*
X108799862Y-118360465D01*
X108999860Y-118160466D01*
X108999862Y-118160465D01*
X109660465Y-117499862D01*
X109660465Y-117499861D01*
X109799860Y-117360466D01*
X109799862Y-117360465D01*
X109999860Y-117160466D01*
X109999862Y-117160465D01*
X110660465Y-116499862D01*
X110660465Y-116499861D01*
X110723508Y-116436818D01*
X110784831Y-116403333D01*
X110811188Y-116400500D01*
X111229270Y-116400500D01*
X111259699Y-116397646D01*
X111259701Y-116397646D01*
X111323790Y-116375219D01*
X111387882Y-116352793D01*
X111497150Y-116272150D01*
X111577793Y-116162882D01*
X111608022Y-116076492D01*
X111622646Y-116034701D01*
X111622646Y-116034699D01*
X111625500Y-116004269D01*
X111625500Y-114995730D01*
X112374500Y-114995730D01*
X112374500Y-116004269D01*
X112377353Y-116034699D01*
X112377353Y-116034701D01*
X112422206Y-116162880D01*
X112422207Y-116162882D01*
X112502850Y-116272150D01*
X112612118Y-116352793D01*
X112654231Y-116367529D01*
X112740299Y-116397646D01*
X112770730Y-116400500D01*
X112770734Y-116400500D01*
X113404270Y-116400500D01*
X113434699Y-116397646D01*
X113434701Y-116397646D01*
X113498790Y-116375219D01*
X113562882Y-116352793D01*
X113672150Y-116272150D01*
X113752793Y-116162882D01*
X113783022Y-116076492D01*
X113797646Y-116034701D01*
X113797646Y-116034699D01*
X113800500Y-116004269D01*
X113800500Y-114995736D01*
X113800500Y-114995734D01*
X113799449Y-114984527D01*
X113799561Y-114960232D01*
X113800231Y-114953728D01*
X113800500Y-114952727D01*
X113800500Y-114951126D01*
X113801154Y-114944784D01*
X113801721Y-114943397D01*
X113801702Y-114943396D01*
X113801974Y-114940293D01*
X113802548Y-114938824D01*
X113803448Y-114930627D01*
X113803695Y-114929513D01*
X113802823Y-114924259D01*
X114045785Y-114924259D01*
X114047073Y-114926709D01*
X114049500Y-114951121D01*
X114049500Y-114972475D01*
X114073271Y-115061188D01*
X114087017Y-115112488D01*
X114159488Y-115238011D01*
X114159493Y-115238017D01*
X114163181Y-115241705D01*
X114196666Y-115303028D01*
X114199500Y-115329386D01*
X114199500Y-116004269D01*
X114202353Y-116034699D01*
X114202353Y-116034701D01*
X114247206Y-116162880D01*
X114247207Y-116162882D01*
X114327850Y-116272150D01*
X114437118Y-116352793D01*
X114479231Y-116367529D01*
X114565299Y-116397646D01*
X114595730Y-116400500D01*
X114595734Y-116400500D01*
X115229270Y-116400500D01*
X115259699Y-116397646D01*
X115259701Y-116397646D01*
X115323790Y-116375219D01*
X115387882Y-116352793D01*
X115497150Y-116272150D01*
X115577793Y-116162882D01*
X115608022Y-116076492D01*
X115622646Y-116034701D01*
X115622646Y-116034699D01*
X115625500Y-116004269D01*
X115625500Y-114995730D01*
X115622646Y-114965300D01*
X115622646Y-114965298D01*
X115589006Y-114869163D01*
X115577793Y-114837118D01*
X115497150Y-114727850D01*
X115387882Y-114647207D01*
X115387880Y-114647206D01*
X115259700Y-114602353D01*
X115229270Y-114599500D01*
X115229266Y-114599500D01*
X115129386Y-114599500D01*
X115062347Y-114579815D01*
X115041705Y-114563181D01*
X114938017Y-114459493D01*
X114938011Y-114459488D01*
X114812488Y-114387017D01*
X114812489Y-114387017D01*
X114801006Y-114383940D01*
X114672475Y-114349500D01*
X114527525Y-114349500D01*
X114398993Y-114383940D01*
X114387511Y-114387017D01*
X114261988Y-114459488D01*
X114261982Y-114459493D01*
X114159493Y-114561982D01*
X114159488Y-114561988D01*
X114087017Y-114687511D01*
X114087016Y-114687515D01*
X114049500Y-114827525D01*
X114049500Y-114827527D01*
X114049500Y-114911611D01*
X114045785Y-114924259D01*
X113802823Y-114924259D01*
X113801617Y-114916994D01*
X113800617Y-114893982D01*
X113800500Y-114888599D01*
X113800500Y-112729386D01*
X113820185Y-112662347D01*
X113836819Y-112641705D01*
X113840509Y-112638015D01*
X113912984Y-112512485D01*
X113950500Y-112372475D01*
X113950500Y-112227525D01*
X113912984Y-112087515D01*
X113885971Y-112040728D01*
X113840511Y-111961988D01*
X113840506Y-111961982D01*
X113738017Y-111859493D01*
X113738011Y-111859488D01*
X113612488Y-111787017D01*
X113612489Y-111787017D01*
X113601006Y-111783940D01*
X113472475Y-111749500D01*
X113327525Y-111749500D01*
X113198993Y-111783940D01*
X113187511Y-111787017D01*
X113061988Y-111859488D01*
X113061982Y-111859493D01*
X112959493Y-111961982D01*
X112959488Y-111961988D01*
X112887017Y-112087511D01*
X112887016Y-112087515D01*
X112849500Y-112227525D01*
X112849500Y-112372475D01*
X112883671Y-112500000D01*
X112887017Y-112512488D01*
X112959488Y-112638011D01*
X112959493Y-112638017D01*
X112963181Y-112641705D01*
X112996666Y-112703028D01*
X112999500Y-112729386D01*
X112999500Y-114475500D01*
X112979815Y-114542539D01*
X112927011Y-114588294D01*
X112875500Y-114599500D01*
X112770730Y-114599500D01*
X112740300Y-114602353D01*
X112740298Y-114602353D01*
X112612119Y-114647206D01*
X112612117Y-114647207D01*
X112502850Y-114727850D01*
X112422207Y-114837117D01*
X112422206Y-114837119D01*
X112377353Y-114965298D01*
X112377353Y-114965300D01*
X112374500Y-114995730D01*
X111625500Y-114995730D01*
X111622646Y-114965300D01*
X111622646Y-114965298D01*
X111589006Y-114869163D01*
X111577793Y-114837118D01*
X111497150Y-114727850D01*
X111387882Y-114647207D01*
X111387880Y-114647206D01*
X111259700Y-114602353D01*
X111229270Y-114599500D01*
X111229266Y-114599500D01*
X110595734Y-114599500D01*
X110595730Y-114599500D01*
X110565300Y-114602353D01*
X110565298Y-114602353D01*
X110437119Y-114647206D01*
X110437117Y-114647207D01*
X110327850Y-114727850D01*
X110247207Y-114837117D01*
X110247206Y-114837119D01*
X110202353Y-114965298D01*
X110202353Y-114965300D01*
X110199500Y-114995730D01*
X110199500Y-115988811D01*
X110179815Y-116055850D01*
X110163181Y-116076492D01*
X109962552Y-116277120D01*
X109901229Y-116310605D01*
X109831537Y-116305621D01*
X109775604Y-116263749D01*
X109751187Y-116198285D01*
X109757829Y-116148489D01*
X109797646Y-116034699D01*
X109798359Y-116027090D01*
X109800500Y-116004269D01*
X109800500Y-115329386D01*
X109820185Y-115262347D01*
X109836819Y-115241705D01*
X109840509Y-115238015D01*
X109912984Y-115112485D01*
X109950500Y-114972475D01*
X109950500Y-114827525D01*
X109912984Y-114687515D01*
X109901888Y-114668297D01*
X109840511Y-114561988D01*
X109840510Y-114561986D01*
X109840509Y-114561985D01*
X109738015Y-114459491D01*
X109738013Y-114459490D01*
X109738011Y-114459488D01*
X109612488Y-114387017D01*
X109612489Y-114387017D01*
X109601006Y-114383940D01*
X109472475Y-114349500D01*
X109327525Y-114349500D01*
X109198993Y-114383940D01*
X109187511Y-114387017D01*
X109061988Y-114459488D01*
X109061981Y-114459494D01*
X109028581Y-114492894D01*
X108967258Y-114526379D01*
X108897566Y-114521393D01*
X108853220Y-114492893D01*
X108399864Y-114039537D01*
X108399862Y-114039535D01*
X108362750Y-114018108D01*
X108325640Y-113996682D01*
X108284246Y-113985591D01*
X108242853Y-113974500D01*
X105957147Y-113974500D01*
X105874362Y-113996682D01*
X105874355Y-113996685D01*
X105824207Y-114025638D01*
X105800144Y-114039530D01*
X105800136Y-114039536D01*
X105301491Y-114538181D01*
X105290272Y-114544307D01*
X105240169Y-114571666D01*
X105213810Y-114574500D01*
X104745730Y-114574500D01*
X104715300Y-114577353D01*
X104715298Y-114577353D01*
X104587119Y-114622206D01*
X104587117Y-114622207D01*
X104477850Y-114702850D01*
X104397207Y-114812117D01*
X104397206Y-114812119D01*
X104352353Y-114940298D01*
X104352353Y-114940300D01*
X104349500Y-114970730D01*
X97300500Y-114970730D01*
X97300500Y-103999999D01*
X98300000Y-103999999D01*
X98300000Y-104000000D01*
X98303613Y-104036685D01*
X98342271Y-104429196D01*
X98467466Y-104841907D01*
X98670762Y-105222248D01*
X98670766Y-105222255D01*
X98944364Y-105555634D01*
X99277743Y-105829232D01*
X99277750Y-105829236D01*
X99658091Y-106032532D01*
X99658093Y-106032532D01*
X99658096Y-106032534D01*
X100070801Y-106157727D01*
X100070800Y-106157727D01*
X100113073Y-106161890D01*
X100500000Y-106200000D01*
X100929198Y-106157727D01*
X101341903Y-106032534D01*
X101378483Y-106012982D01*
X101520413Y-105937119D01*
X101722254Y-105829233D01*
X102055634Y-105555634D01*
X102329233Y-105222254D01*
X102486873Y-104927330D01*
X102532532Y-104841907D01*
X102532532Y-104841906D01*
X102532534Y-104841903D01*
X102657727Y-104429198D01*
X102674673Y-104257147D01*
X129674500Y-104257147D01*
X129674500Y-105342853D01*
X129682721Y-105373532D01*
X129696682Y-105425637D01*
X129696685Y-105425644D01*
X129739530Y-105499855D01*
X129739536Y-105499863D01*
X130393705Y-106154032D01*
X130427190Y-106215355D01*
X130427641Y-106217521D01*
X130442379Y-106291614D01*
X130442381Y-106291620D01*
X130497069Y-106423650D01*
X130497074Y-106423659D01*
X130576467Y-106542478D01*
X130576470Y-106542482D01*
X130661307Y-106627319D01*
X130694792Y-106688642D01*
X130689808Y-106758334D01*
X130661307Y-106802681D01*
X130576470Y-106887517D01*
X130576467Y-106887521D01*
X130497074Y-107006340D01*
X130497069Y-107006349D01*
X130442381Y-107138379D01*
X130442379Y-107138385D01*
X130414500Y-107278542D01*
X130414500Y-107278545D01*
X130414500Y-107421455D01*
X130414500Y-107421457D01*
X130414499Y-107421457D01*
X130442379Y-107561614D01*
X130442381Y-107561620D01*
X130497069Y-107693650D01*
X130497074Y-107693659D01*
X130576467Y-107812478D01*
X130576470Y-107812482D01*
X130661307Y-107897319D01*
X130694792Y-107958642D01*
X130689808Y-108028334D01*
X130661307Y-108072681D01*
X130576470Y-108157517D01*
X130576467Y-108157521D01*
X130497074Y-108276340D01*
X130497069Y-108276349D01*
X130442381Y-108408379D01*
X130442379Y-108408385D01*
X130414500Y-108548542D01*
X130414500Y-108548545D01*
X130414500Y-108691455D01*
X130414500Y-108691457D01*
X130414499Y-108691457D01*
X130442379Y-108831614D01*
X130442381Y-108831620D01*
X130497069Y-108963650D01*
X130497074Y-108963659D01*
X130576467Y-109082478D01*
X130576470Y-109082482D01*
X130661307Y-109167319D01*
X130694792Y-109228642D01*
X130689808Y-109298334D01*
X130661307Y-109342681D01*
X130576470Y-109427517D01*
X130576467Y-109427521D01*
X130497074Y-109546340D01*
X130497069Y-109546349D01*
X130442381Y-109678379D01*
X130442379Y-109678385D01*
X130414500Y-109818542D01*
X130414500Y-109818545D01*
X130414500Y-109961455D01*
X130414500Y-109961457D01*
X130414499Y-109961457D01*
X130442379Y-110101614D01*
X130442381Y-110101620D01*
X130497069Y-110233650D01*
X130497073Y-110233657D01*
X130538586Y-110295786D01*
X130559463Y-110362463D01*
X130540978Y-110429844D01*
X130504375Y-110467777D01*
X130470448Y-110490446D01*
X130426132Y-110556769D01*
X130426131Y-110556770D01*
X130414500Y-110615247D01*
X130414500Y-111704752D01*
X130426131Y-111763229D01*
X130426132Y-111763230D01*
X130470447Y-111829552D01*
X130536769Y-111873867D01*
X130536770Y-111873868D01*
X130595247Y-111885499D01*
X130595250Y-111885500D01*
X130595252Y-111885500D01*
X131684750Y-111885500D01*
X131684751Y-111885499D01*
X131699568Y-111882552D01*
X131743229Y-111873868D01*
X131743229Y-111873867D01*
X131743231Y-111873867D01*
X131809552Y-111829552D01*
X131832222Y-111795624D01*
X131885832Y-111750821D01*
X131955157Y-111742112D01*
X132004213Y-111761414D01*
X132066335Y-111802922D01*
X132066345Y-111802928D01*
X132066347Y-111802929D01*
X132198380Y-111857619D01*
X132198384Y-111857619D01*
X132198385Y-111857620D01*
X132338542Y-111885500D01*
X132338545Y-111885500D01*
X132481457Y-111885500D01*
X132575751Y-111866742D01*
X132621620Y-111857619D01*
X132753653Y-111802929D01*
X132872479Y-111723532D01*
X132973532Y-111622479D01*
X133052929Y-111503653D01*
X133107619Y-111371620D01*
X133135500Y-111231455D01*
X133135500Y-111088545D01*
X133135500Y-111088542D01*
X133107620Y-110948385D01*
X133107619Y-110948384D01*
X133107619Y-110948380D01*
X133052929Y-110816347D01*
X133052928Y-110816346D01*
X133052925Y-110816340D01*
X132973532Y-110697521D01*
X132973529Y-110697517D01*
X132872482Y-110596470D01*
X132872478Y-110596467D01*
X132765541Y-110525014D01*
X132746751Y-110509593D01*
X132452158Y-110215000D01*
X132452787Y-110215000D01*
X132535445Y-110192851D01*
X132609554Y-110150064D01*
X132670064Y-110089554D01*
X132712851Y-110015445D01*
X132735000Y-109932787D01*
X132735000Y-109932159D01*
X133118081Y-110315240D01*
X133141106Y-110280782D01*
X133141109Y-110280775D01*
X133203294Y-110130648D01*
X133203297Y-110130636D01*
X133234999Y-109971259D01*
X133235000Y-109971256D01*
X133235000Y-109808744D01*
X133234999Y-109808740D01*
X133203297Y-109649363D01*
X133203294Y-109649351D01*
X133141108Y-109499220D01*
X133141103Y-109499211D01*
X133118082Y-109464759D01*
X133118081Y-109464758D01*
X132735000Y-109847840D01*
X132735000Y-109847213D01*
X132712851Y-109764555D01*
X132670064Y-109690446D01*
X132609554Y-109629936D01*
X132535445Y-109587149D01*
X132452787Y-109565000D01*
X132452158Y-109565000D01*
X132762158Y-109255000D01*
X132452158Y-108945000D01*
X132452787Y-108945000D01*
X132535445Y-108922851D01*
X132609554Y-108880064D01*
X132670064Y-108819554D01*
X132712851Y-108745445D01*
X132735000Y-108662787D01*
X132735000Y-108662159D01*
X133118081Y-109045240D01*
X133141106Y-109010782D01*
X133141109Y-109010775D01*
X133203294Y-108860648D01*
X133203297Y-108860636D01*
X133234999Y-108701259D01*
X133235000Y-108701256D01*
X133235000Y-108538744D01*
X133234999Y-108538740D01*
X133203297Y-108379363D01*
X133203294Y-108379351D01*
X133141108Y-108229220D01*
X133141103Y-108229211D01*
X133118082Y-108194759D01*
X133118081Y-108194758D01*
X132735000Y-108577840D01*
X132735000Y-108577213D01*
X132712851Y-108494555D01*
X132670064Y-108420446D01*
X132609554Y-108359936D01*
X132535445Y-108317149D01*
X132452787Y-108295000D01*
X132452158Y-108295000D01*
X132762158Y-107985000D01*
X132452158Y-107675000D01*
X132452787Y-107675000D01*
X132535445Y-107652851D01*
X132609554Y-107610064D01*
X132670064Y-107549554D01*
X132712851Y-107475445D01*
X132735000Y-107392787D01*
X132735000Y-107392159D01*
X133118081Y-107775240D01*
X133141106Y-107740782D01*
X133141109Y-107740775D01*
X133203294Y-107590648D01*
X133203297Y-107590636D01*
X133234999Y-107431259D01*
X133235000Y-107431256D01*
X133235000Y-107333717D01*
X133254685Y-107266678D01*
X133307489Y-107220923D01*
X133376647Y-107210979D01*
X133391078Y-107213938D01*
X133527525Y-107250500D01*
X133527528Y-107250500D01*
X133672472Y-107250500D01*
X133672475Y-107250500D01*
X133812485Y-107212984D01*
X133938015Y-107140509D01*
X134040509Y-107038015D01*
X134112984Y-106912485D01*
X134150500Y-106772475D01*
X134150500Y-106627525D01*
X134112984Y-106487515D01*
X134104723Y-106473207D01*
X134040511Y-106361988D01*
X134040510Y-106361987D01*
X134040509Y-106361985D01*
X133961818Y-106283294D01*
X133928334Y-106221970D01*
X133925500Y-106195613D01*
X133925500Y-104352855D01*
X133925501Y-104352842D01*
X133925501Y-104257148D01*
X133922341Y-104245354D01*
X133903318Y-104174361D01*
X133886790Y-104145734D01*
X133875344Y-104125908D01*
X133875341Y-104125904D01*
X133869219Y-104115301D01*
X133860465Y-104100138D01*
X133799862Y-104039535D01*
X133799860Y-104039533D01*
X133599862Y-103839535D01*
X133592797Y-103832470D01*
X133592790Y-103832464D01*
X133399860Y-103639535D01*
X133260466Y-103500140D01*
X133260466Y-103500139D01*
X133199863Y-103439536D01*
X133199858Y-103439532D01*
X133125641Y-103396683D01*
X133125634Y-103396680D01*
X133065034Y-103380442D01*
X133065034Y-103380441D01*
X133042861Y-103374501D01*
X133042855Y-103374500D01*
X133042854Y-103374500D01*
X133042853Y-103374500D01*
X133042852Y-103374500D01*
X130650465Y-103374500D01*
X130650449Y-103374499D01*
X130642853Y-103374499D01*
X130557147Y-103374499D01*
X130501956Y-103389287D01*
X130474360Y-103396682D01*
X130455805Y-103407395D01*
X130437250Y-103418108D01*
X130402771Y-103438015D01*
X130400138Y-103439535D01*
X130346604Y-103493069D01*
X130346603Y-103493068D01*
X129793068Y-104046603D01*
X129793069Y-104046604D01*
X129739533Y-104100140D01*
X129739530Y-104100144D01*
X129696685Y-104174355D01*
X129696682Y-104174362D01*
X129674500Y-104257147D01*
X102674673Y-104257147D01*
X102700000Y-104000000D01*
X102657727Y-103570801D01*
X102532534Y-103158096D01*
X102532532Y-103158093D01*
X102532532Y-103158091D01*
X102329236Y-102777750D01*
X102329232Y-102777743D01*
X102055634Y-102444364D01*
X101722255Y-102170766D01*
X101722248Y-102170762D01*
X101341907Y-101967466D01*
X100929196Y-101842271D01*
X100500000Y-101800000D01*
X100070802Y-101842271D01*
X99658091Y-101967466D01*
X99277750Y-102170762D01*
X99277743Y-102170766D01*
X98944364Y-102444364D01*
X98670766Y-102777743D01*
X98670762Y-102777750D01*
X98467466Y-103158091D01*
X98342271Y-103570802D01*
X98300000Y-103999999D01*
X97300500Y-103999999D01*
X97300500Y-101516660D01*
X97300882Y-101506939D01*
X97305446Y-101448904D01*
X97309247Y-101400562D01*
X97312300Y-101381300D01*
X97333396Y-101293583D01*
X97339374Y-101275183D01*
X97373866Y-101191829D01*
X97382709Y-101174469D01*
X97429760Y-101097695D01*
X97441181Y-101081975D01*
X97499722Y-101013440D01*
X97513440Y-100999722D01*
X97581975Y-100941181D01*
X97597695Y-100929760D01*
X97674469Y-100882709D01*
X97691829Y-100873866D01*
X97775183Y-100839374D01*
X97793583Y-100833396D01*
X97881300Y-100812300D01*
X97900562Y-100809247D01*
X97982366Y-100802814D01*
X98006940Y-100800882D01*
X98016661Y-100800500D01*
X179983292Y-100800500D01*
X179993037Y-100800883D01*
G37*
%TD.AperFunction*%
%TD*%
M02*
