%TF.GenerationSoftware,KiCad,Pcbnew,9.0.9-9.0.9~ubuntu24.04.1*%
%TF.CreationDate,2026-10-04T00:55:11+00:00*%
%TF.ProjectId,matrix-carrier,6d617472-6978-42d6-9361-72726965722e,A*%
%TF.SameCoordinates,Original*%
%TF.FileFunction,Legend,Bot*%
%TF.FilePolarity,Positive*%
%FSLAX46Y46*%
G04 Gerber Fmt 4.6, Leading zero omitted, Abs format (unit mm)*
G04 Created by KiCad (PCBNEW 9.0.9-9.0.9~ubuntu24.04.1) date 2026-10-04 00:55:11*
%MOMM*%
%LPD*%
G01*
G04 APERTURE LIST*
%ADD10C,0.180000*%
%ADD11C,0.150000*%
G04 APERTURE END LIST*
D10*
X322603333Y-140028259D02*
X322603333Y-140742544D01*
X322603333Y-140742544D02*
X322650952Y-140885401D01*
X322650952Y-140885401D02*
X322746190Y-140980640D01*
X322746190Y-140980640D02*
X322889047Y-141028259D01*
X322889047Y-141028259D02*
X322984285Y-141028259D01*
X321603333Y-141028259D02*
X322174761Y-141028259D01*
X321889047Y-141028259D02*
X321889047Y-140028259D01*
X321889047Y-140028259D02*
X321984285Y-140171116D01*
X321984285Y-140171116D02*
X322079523Y-140266354D01*
X322079523Y-140266354D02*
X322174761Y-140313973D01*
X344119047Y-141253259D02*
X344119047Y-141967544D01*
X344119047Y-141967544D02*
X344166666Y-142110401D01*
X344166666Y-142110401D02*
X344261904Y-142205640D01*
X344261904Y-142205640D02*
X344404761Y-142253259D01*
X344404761Y-142253259D02*
X344499999Y-142253259D01*
X343642856Y-141872306D02*
X342880952Y-141872306D01*
X342404761Y-142253259D02*
X342404761Y-141253259D01*
X342404761Y-141253259D02*
X342071428Y-141967544D01*
X342071428Y-141967544D02*
X341738095Y-141253259D01*
X341738095Y-141253259D02*
X341738095Y-142253259D01*
X340690476Y-142158020D02*
X340738095Y-142205640D01*
X340738095Y-142205640D02*
X340880952Y-142253259D01*
X340880952Y-142253259D02*
X340976190Y-142253259D01*
X340976190Y-142253259D02*
X341119047Y-142205640D01*
X341119047Y-142205640D02*
X341214285Y-142110401D01*
X341214285Y-142110401D02*
X341261904Y-142015163D01*
X341261904Y-142015163D02*
X341309523Y-141824687D01*
X341309523Y-141824687D02*
X341309523Y-141681830D01*
X341309523Y-141681830D02*
X341261904Y-141491354D01*
X341261904Y-141491354D02*
X341214285Y-141396116D01*
X341214285Y-141396116D02*
X341119047Y-141300878D01*
X341119047Y-141300878D02*
X340976190Y-141253259D01*
X340976190Y-141253259D02*
X340880952Y-141253259D01*
X340880952Y-141253259D02*
X340738095Y-141300878D01*
X340738095Y-141300878D02*
X340690476Y-141348497D01*
X340261904Y-141253259D02*
X340261904Y-142062782D01*
X340261904Y-142062782D02*
X340214285Y-142158020D01*
X340214285Y-142158020D02*
X340166666Y-142205640D01*
X340166666Y-142205640D02*
X340071428Y-142253259D01*
X340071428Y-142253259D02*
X339880952Y-142253259D01*
X339880952Y-142253259D02*
X339785714Y-142205640D01*
X339785714Y-142205640D02*
X339738095Y-142158020D01*
X339738095Y-142158020D02*
X339690476Y-142062782D01*
X339690476Y-142062782D02*
X339690476Y-141253259D01*
X339214285Y-141872306D02*
X338452381Y-141872306D01*
X337404762Y-142158020D02*
X337452381Y-142205640D01*
X337452381Y-142205640D02*
X337595238Y-142253259D01*
X337595238Y-142253259D02*
X337690476Y-142253259D01*
X337690476Y-142253259D02*
X337833333Y-142205640D01*
X337833333Y-142205640D02*
X337928571Y-142110401D01*
X337928571Y-142110401D02*
X337976190Y-142015163D01*
X337976190Y-142015163D02*
X338023809Y-141824687D01*
X338023809Y-141824687D02*
X338023809Y-141681830D01*
X338023809Y-141681830D02*
X337976190Y-141491354D01*
X337976190Y-141491354D02*
X337928571Y-141396116D01*
X337928571Y-141396116D02*
X337833333Y-141300878D01*
X337833333Y-141300878D02*
X337690476Y-141253259D01*
X337690476Y-141253259D02*
X337595238Y-141253259D01*
X337595238Y-141253259D02*
X337452381Y-141300878D01*
X337452381Y-141300878D02*
X337404762Y-141348497D01*
X336214285Y-142253259D02*
X336214285Y-141253259D01*
X336214285Y-141253259D02*
X335880952Y-141967544D01*
X335880952Y-141967544D02*
X335547619Y-141253259D01*
X335547619Y-141253259D02*
X335547619Y-142253259D01*
X334880952Y-141253259D02*
X334690476Y-141253259D01*
X334690476Y-141253259D02*
X334595238Y-141300878D01*
X334595238Y-141300878D02*
X334500000Y-141396116D01*
X334500000Y-141396116D02*
X334452381Y-141586592D01*
X334452381Y-141586592D02*
X334452381Y-141919925D01*
X334452381Y-141919925D02*
X334500000Y-142110401D01*
X334500000Y-142110401D02*
X334595238Y-142205640D01*
X334595238Y-142205640D02*
X334690476Y-142253259D01*
X334690476Y-142253259D02*
X334880952Y-142253259D01*
X334880952Y-142253259D02*
X334976190Y-142205640D01*
X334976190Y-142205640D02*
X335071428Y-142110401D01*
X335071428Y-142110401D02*
X335119047Y-141919925D01*
X335119047Y-141919925D02*
X335119047Y-141586592D01*
X335119047Y-141586592D02*
X335071428Y-141396116D01*
X335071428Y-141396116D02*
X334976190Y-141300878D01*
X334976190Y-141300878D02*
X334880952Y-141253259D01*
X334023809Y-141253259D02*
X334023809Y-142062782D01*
X334023809Y-142062782D02*
X333976190Y-142158020D01*
X333976190Y-142158020D02*
X333928571Y-142205640D01*
X333928571Y-142205640D02*
X333833333Y-142253259D01*
X333833333Y-142253259D02*
X333642857Y-142253259D01*
X333642857Y-142253259D02*
X333547619Y-142205640D01*
X333547619Y-142205640D02*
X333500000Y-142158020D01*
X333500000Y-142158020D02*
X333452381Y-142062782D01*
X333452381Y-142062782D02*
X333452381Y-141253259D01*
X333119047Y-141253259D02*
X332547619Y-141253259D01*
X332833333Y-142253259D02*
X332833333Y-141253259D01*
X332214285Y-142253259D02*
X332214285Y-141253259D01*
X332214285Y-141729449D02*
X331642857Y-141729449D01*
X331642857Y-142253259D02*
X331642857Y-141253259D01*
X331166666Y-142158020D02*
X331119047Y-142205640D01*
X331119047Y-142205640D02*
X331166666Y-142253259D01*
X331166666Y-142253259D02*
X331214285Y-142205640D01*
X331214285Y-142205640D02*
X331166666Y-142158020D01*
X331166666Y-142158020D02*
X331166666Y-142253259D01*
X331166666Y-141634211D02*
X331119047Y-141681830D01*
X331119047Y-141681830D02*
X331166666Y-141729449D01*
X331166666Y-141729449D02*
X331214285Y-141681830D01*
X331214285Y-141681830D02*
X331166666Y-141634211D01*
X331166666Y-141634211D02*
X331166666Y-141729449D01*
X329595238Y-141729449D02*
X329928571Y-141729449D01*
X329928571Y-142253259D02*
X329928571Y-141253259D01*
X329928571Y-141253259D02*
X329452381Y-141253259D01*
X329119047Y-141967544D02*
X328642857Y-141967544D01*
X329214285Y-142253259D02*
X328880952Y-141253259D01*
X328880952Y-141253259D02*
X328547619Y-142253259D01*
X327642857Y-142253259D02*
X327976190Y-141777068D01*
X328214285Y-142253259D02*
X328214285Y-141253259D01*
X328214285Y-141253259D02*
X327833333Y-141253259D01*
X327833333Y-141253259D02*
X327738095Y-141300878D01*
X327738095Y-141300878D02*
X327690476Y-141348497D01*
X327690476Y-141348497D02*
X327642857Y-141443735D01*
X327642857Y-141443735D02*
X327642857Y-141586592D01*
X327642857Y-141586592D02*
X327690476Y-141681830D01*
X327690476Y-141681830D02*
X327738095Y-141729449D01*
X327738095Y-141729449D02*
X327833333Y-141777068D01*
X327833333Y-141777068D02*
X328214285Y-141777068D01*
X326499999Y-142205640D02*
X326357142Y-142253259D01*
X326357142Y-142253259D02*
X326119047Y-142253259D01*
X326119047Y-142253259D02*
X326023809Y-142205640D01*
X326023809Y-142205640D02*
X325976190Y-142158020D01*
X325976190Y-142158020D02*
X325928571Y-142062782D01*
X325928571Y-142062782D02*
X325928571Y-141967544D01*
X325928571Y-141967544D02*
X325976190Y-141872306D01*
X325976190Y-141872306D02*
X326023809Y-141824687D01*
X326023809Y-141824687D02*
X326119047Y-141777068D01*
X326119047Y-141777068D02*
X326309523Y-141729449D01*
X326309523Y-141729449D02*
X326404761Y-141681830D01*
X326404761Y-141681830D02*
X326452380Y-141634211D01*
X326452380Y-141634211D02*
X326499999Y-141538973D01*
X326499999Y-141538973D02*
X326499999Y-141443735D01*
X326499999Y-141443735D02*
X326452380Y-141348497D01*
X326452380Y-141348497D02*
X326404761Y-141300878D01*
X326404761Y-141300878D02*
X326309523Y-141253259D01*
X326309523Y-141253259D02*
X326071428Y-141253259D01*
X326071428Y-141253259D02*
X325928571Y-141300878D01*
X325499999Y-142253259D02*
X325499999Y-141253259D01*
X325023809Y-142253259D02*
X325023809Y-141253259D01*
X325023809Y-141253259D02*
X324785714Y-141253259D01*
X324785714Y-141253259D02*
X324642857Y-141300878D01*
X324642857Y-141300878D02*
X324547619Y-141396116D01*
X324547619Y-141396116D02*
X324500000Y-141491354D01*
X324500000Y-141491354D02*
X324452381Y-141681830D01*
X324452381Y-141681830D02*
X324452381Y-141824687D01*
X324452381Y-141824687D02*
X324500000Y-142015163D01*
X324500000Y-142015163D02*
X324547619Y-142110401D01*
X324547619Y-142110401D02*
X324642857Y-142205640D01*
X324642857Y-142205640D02*
X324785714Y-142253259D01*
X324785714Y-142253259D02*
X325023809Y-142253259D01*
X324023809Y-141729449D02*
X323690476Y-141729449D01*
X323547619Y-142253259D02*
X324023809Y-142253259D01*
X324023809Y-142253259D02*
X324023809Y-141253259D01*
X324023809Y-141253259D02*
X323547619Y-141253259D01*
D11*
%TO.C,J1*%
X330705000Y-139065000D02*
X330125000Y-138615000D01*
X330705000Y-138165000D01*
X330705000Y-139065000D01*
G36*
X330705000Y-139065000D02*
G01*
X330125000Y-138615000D01*
X330705000Y-138165000D01*
X330705000Y-139065000D01*
G37*
%TD*%
M02*
