%TF.GenerationSoftware,KiCad,Pcbnew,9.0.9-9.0.9~ubuntu24.04.1*%
%TF.CreationDate,2026-10-05T13:00:51+00:00*%
%TF.ProjectId,matrix-carrier,6d617472-6978-42d6-9361-72726965722e,A*%
%TF.SameCoordinates,Original*%
%TF.FileFunction,Soldermask,Top*%
%TF.FilePolarity,Negative*%
%FSLAX46Y46*%
G04 Gerber Fmt 4.6, Leading zero omitted, Abs format (unit mm)*
G04 Created by KiCad (PCBNEW 9.0.9-9.0.9~ubuntu24.04.1) date 2026-10-05 13:00:51*
%MOMM*%
%LPD*%
G01*
G04 APERTURE LIST*
%ADD10R,1.020000X2.800000*%
%ADD11C,3.100000*%
%ADD12C,5.400000*%
%ADD13R,1.070000X1.500000*%
%ADD14O,1.070000X1.500000*%
G04 APERTURE END LIST*
D10*
%TO.C,J2*%
X332970000Y-131330000D03*
X335510000Y-134530000D03*
X338050000Y-131330000D03*
X340590000Y-134530000D03*
X343130000Y-131330000D03*
X345670000Y-134530000D03*
X348210000Y-131330000D03*
X350750000Y-134530000D03*
X353290000Y-131330000D03*
X355830000Y-134530000D03*
%TD*%
%TO.C,J3*%
X332970000Y-108470000D03*
X335510000Y-111670000D03*
X338050000Y-108470000D03*
X340590000Y-111670000D03*
X343130000Y-108470000D03*
X345670000Y-111670000D03*
X348210000Y-108470000D03*
X350750000Y-111670000D03*
X353290000Y-108470000D03*
X355830000Y-111670000D03*
%TD*%
D11*
%TO.C,H2*%
X337100000Y-104000000D03*
D12*
X337100000Y-104000000D03*
%TD*%
D11*
%TO.C,H3*%
X351700000Y-104000000D03*
D12*
X351700000Y-104000000D03*
%TD*%
D11*
%TO.C,H1*%
X351700000Y-139000000D03*
D12*
X351700000Y-139000000D03*
%TD*%
D13*
%TO.C,J1*%
X329255000Y-138830000D03*
D14*
X329255000Y-137130000D03*
X327985000Y-138830000D03*
X327985000Y-137130000D03*
X326715000Y-138830000D03*
X326715000Y-137130000D03*
X325445000Y-138830000D03*
X325445000Y-137130000D03*
X324175000Y-138830000D03*
X324175000Y-137130000D03*
X322905000Y-138830000D03*
X322905000Y-137130000D03*
X321635000Y-138830000D03*
X321635000Y-137130000D03*
X320365000Y-138830000D03*
X320365000Y-137130000D03*
X319095000Y-138830000D03*
X319095000Y-137130000D03*
X317825000Y-138830000D03*
X317825000Y-137130000D03*
X316555000Y-138830000D03*
X316555000Y-137130000D03*
X315285000Y-138830000D03*
X315285000Y-137130000D03*
%TD*%
M02*
