%TF.GenerationSoftware,KiCad,Pcbnew,9.0.9-9.0.9~ubuntu24.04.1*%
%TF.CreationDate,2026-10-05T13:00:51+00:00*%
%TF.ProjectId,matrix-carrier,6d617472-6978-42d6-9361-72726965722e,A*%
%TF.SameCoordinates,Original*%
%TF.FileFunction,Copper,L1,Top*%
%TF.FilePolarity,Positive*%
%FSLAX46Y46*%
G04 Gerber Fmt 4.6, Leading zero omitted, Abs format (unit mm)*
G04 Created by KiCad (PCBNEW 9.0.9-9.0.9~ubuntu24.04.1) date 2026-10-05 13:00:51*
%MOMM*%
%LPD*%
G01*
G04 APERTURE LIST*
%TA.AperFunction,SMDPad,CuDef*%
%ADD10R,1.020000X2.800000*%
%TD*%
%TA.AperFunction,ComponentPad*%
%ADD11C,3.100000*%
%TD*%
%TA.AperFunction,ConnectorPad*%
%ADD12C,5.400000*%
%TD*%
%TA.AperFunction,ComponentPad*%
%ADD13R,1.070000X1.500000*%
%TD*%
%TA.AperFunction,ComponentPad*%
%ADD14O,1.070000X1.500000*%
%TD*%
%TA.AperFunction,ViaPad*%
%ADD15C,0.700000*%
%TD*%
%TA.AperFunction,Conductor*%
%ADD16C,0.400000*%
%TD*%
%TA.AperFunction,Conductor*%
%ADD17C,0.250000*%
%TD*%
G04 APERTURE END LIST*
D10*
%TO.P,J2,1*%
%TO.N,/INST_5V_A*%
X332970000Y-131330000D03*
%TO.P,J2,2*%
%TO.N,PWR_GND*%
X335510000Y-134530000D03*
%TO.P,J2,3*%
%TO.N,/DEV_3V3*%
X338050000Y-131330000D03*
%TO.P,J2,4*%
%TO.N,/IO7*%
X340590000Y-134530000D03*
%TO.P,J2,5*%
%TO.N,/IO6*%
X343130000Y-131330000D03*
%TO.P,J2,6*%
%TO.N,unconnected-(J2-Pin_6-Pad6)*%
X345670000Y-134530000D03*
%TO.P,J2,7*%
%TO.N,unconnected-(J2-Pin_7-Pad7)*%
X348210000Y-131330000D03*
%TO.P,J2,8*%
%TO.N,/IO3*%
X350750000Y-134530000D03*
%TO.P,J2,9*%
%TO.N,/IO2*%
X353290000Y-131330000D03*
%TO.P,J2,10*%
%TO.N,/IO1*%
X355830000Y-134530000D03*
%TD*%
%TO.P,J3,1*%
%TO.N,/IO33*%
X332970000Y-108470000D03*
%TO.P,J3,2*%
%TO.N,/IO34*%
X335510000Y-111670000D03*
%TO.P,J3,3*%
%TO.N,/IO35*%
X338050000Y-108470000D03*
%TO.P,J3,4*%
%TO.N,/IO36*%
X340590000Y-111670000D03*
%TO.P,J3,5*%
%TO.N,/IO37*%
X343130000Y-108470000D03*
%TO.P,J3,6*%
%TO.N,/IO38*%
X345670000Y-111670000D03*
%TO.P,J3,7*%
%TO.N,/IO39*%
X348210000Y-108470000D03*
%TO.P,J3,8*%
%TO.N,/IO40*%
X350750000Y-111670000D03*
%TO.P,J3,9*%
%TO.N,/U0TXD*%
X353290000Y-108470000D03*
%TO.P,J3,10*%
%TO.N,/U0RXD*%
X355830000Y-111670000D03*
%TD*%
D11*
%TO.P,H2,1*%
%TO.N,PWR_GND*%
X337100000Y-104000000D03*
D12*
X337100000Y-104000000D03*
%TD*%
D11*
%TO.P,H3,1*%
%TO.N,PWR_GND*%
X351700000Y-104000000D03*
D12*
X351700000Y-104000000D03*
%TD*%
D11*
%TO.P,H1,1*%
%TO.N,PWR_GND*%
X351700000Y-139000000D03*
D12*
X351700000Y-139000000D03*
%TD*%
D13*
%TO.P,J1,1*%
%TO.N,unconnected-(J1-Pin_1-Pad1)*%
X329255000Y-138830000D03*
D14*
%TO.P,J1,2*%
%TO.N,/IO6*%
X329255000Y-137130000D03*
%TO.P,J1,3*%
%TO.N,/U0TXD*%
X327985000Y-138830000D03*
%TO.P,J1,4*%
%TO.N,/U0RXD*%
X327985000Y-137130000D03*
%TO.P,J1,5*%
%TO.N,/IO40*%
X326715000Y-138830000D03*
%TO.P,J1,6*%
%TO.N,/IO33*%
X326715000Y-137130000D03*
%TO.P,J1,7*%
%TO.N,/IO37*%
X325445000Y-138830000D03*
%TO.P,J1,8*%
%TO.N,/INST_5V_A*%
X325445000Y-137130000D03*
%TO.P,J1,9*%
%TO.N,/IO39*%
X324175000Y-138830000D03*
%TO.P,J1,10*%
%TO.N,PWR_GND*%
X324175000Y-137130000D03*
%TO.P,J1,11*%
%TO.N,/IO34*%
X322905000Y-138830000D03*
%TO.P,J1,12*%
%TO.N,/DEV_3V3*%
X322905000Y-137130000D03*
%TO.P,J1,13*%
%TO.N,/IO36*%
X321635000Y-138830000D03*
%TO.P,J1,14*%
%TO.N,PWR_GND*%
X321635000Y-137130000D03*
%TO.P,J1,15*%
%TO.N,/IO35*%
X320365000Y-138830000D03*
%TO.P,J1,16*%
%TO.N,PWR_GND*%
X320365000Y-137130000D03*
%TO.P,J1,17*%
%TO.N,/IO38*%
X319095000Y-138830000D03*
%TO.P,J1,18*%
%TO.N,/IO3*%
X319095000Y-137130000D03*
%TO.P,J1,19*%
%TO.N,/IO7*%
X317825000Y-138830000D03*
%TO.P,J1,20*%
%TO.N,/IO2*%
X317825000Y-137130000D03*
%TO.P,J1,21*%
%TO.N,/IO1*%
X316555000Y-138830000D03*
%TO.P,J1,22*%
%TO.N,/INST_5V_A*%
X316555000Y-137130000D03*
%TO.P,J1,23*%
%TO.N,PWR_GND*%
X315285000Y-138830000D03*
%TO.P,J1,24*%
%TO.N,/INST_5V_A*%
X315285000Y-137130000D03*
%TD*%
D15*
%TO.N,/INST_5V_A*%
X325445000Y-130800000D03*
%TO.N,/IO1*%
X355830000Y-136600000D03*
%TO.N,/IO2*%
X340350000Y-128699999D03*
X331100000Y-131600000D03*
%TO.N,/IO3*%
X341050000Y-129400000D03*
X330400000Y-132300000D03*
%TO.N,/IO6*%
X339600000Y-130600000D03*
%TO.N,/IO33*%
X331100000Y-134700000D03*
X340350000Y-115700000D03*
%TO.N,/IO34*%
X341050000Y-115000000D03*
X331100000Y-136100000D03*
%TO.N,/IO35*%
X342450000Y-114300000D03*
X332500000Y-137500000D03*
%TO.N,/IO36*%
X341750000Y-113600000D03*
X331800000Y-136800000D03*
%TO.N,/IO37*%
X347350000Y-125200000D03*
%TO.N,/IO38*%
X333200000Y-138200000D03*
X345250000Y-124500000D03*
%TO.N,/IO39*%
X348050000Y-125900000D03*
%TO.N,/IO40*%
X346650000Y-126600000D03*
%TO.N,/U0RXD*%
X342450000Y-128000000D03*
X330400000Y-135400000D03*
%TO.N,/U0TXD*%
X345950000Y-127300000D03*
%TO.N,PWR_GND*%
X356500000Y-103500000D03*
X356600000Y-131500000D03*
X313200000Y-136000000D03*
X356600000Y-125000000D03*
X344500000Y-103500000D03*
X344400000Y-119000000D03*
X350000000Y-116000000D03*
X354000000Y-120000000D03*
X313200000Y-141000000D03*
X354000000Y-116000000D03*
X346900000Y-120000000D03*
X350000000Y-120000000D03*
X336000000Y-107600000D03*
%TD*%
D16*
%TO.N,/DEV_3V3*%
X334650000Y-132400000D02*
X338050000Y-132400000D01*
X333900000Y-133150000D02*
X334650000Y-132400000D01*
X323405000Y-133150000D02*
X333900000Y-133150000D01*
X322905000Y-133650000D02*
X323405000Y-133150000D01*
X322905000Y-137345000D02*
X322905000Y-133650000D01*
%TO.N,/INST_5V_A*%
X315284999Y-137345000D02*
X315284999Y-131300000D01*
X316555000Y-137345000D02*
X316555000Y-130800000D01*
X316555000Y-130800000D02*
X332970000Y-130800000D01*
X315284999Y-131300000D02*
X315784999Y-130800000D01*
X315784999Y-130800000D02*
X316555000Y-130800000D01*
D17*
%TO.N,/IO1*%
X355830000Y-136600000D02*
X355830000Y-134530000D01*
%TO.N,/IO2*%
X352790000Y-128699999D02*
X353290000Y-129199999D01*
X318325000Y-131600000D02*
X331100000Y-131600000D01*
X317825000Y-137345000D02*
X317825000Y-132100000D01*
X353290000Y-129199999D02*
X353290000Y-131000000D01*
X317825000Y-132100000D02*
X318325000Y-131600000D01*
X340350000Y-128699999D02*
X352790000Y-128699999D01*
%TO.N,/IO3*%
X319095000Y-132800000D02*
X319595000Y-132300000D01*
X350750000Y-129900000D02*
X350750000Y-133500000D01*
X341050000Y-129400000D02*
X350250000Y-129400000D01*
X350250000Y-129400000D02*
X350750000Y-129900000D01*
X319595000Y-132300000D02*
X330400000Y-132300000D01*
X319095000Y-137345000D02*
X319095000Y-132800000D01*
%TO.N,/IO6*%
X339600000Y-130600000D02*
X343130000Y-130600000D01*
%TO.N,/IO7*%
X317825000Y-141550000D02*
X318325000Y-142050000D01*
X340590000Y-141550000D02*
X340590000Y-134530000D01*
X317825000Y-138615000D02*
X317825000Y-141550000D01*
X318325000Y-142050000D02*
X340090000Y-142050000D01*
X340090000Y-142050000D02*
X340590000Y-141550000D01*
%TO.N,/IO33*%
X326715000Y-135200000D02*
X327215000Y-134700000D01*
X340350000Y-115700000D02*
X333470000Y-115700000D01*
X327215000Y-134700000D02*
X331100000Y-134700000D01*
X332970000Y-115200000D02*
X332970000Y-108970000D01*
X326715000Y-137345000D02*
X326715000Y-135200000D01*
X333470000Y-115700000D02*
X332970000Y-115200000D01*
%TO.N,/IO34*%
X335510000Y-114500000D02*
X335510000Y-112470000D01*
X331100000Y-139550000D02*
X331100000Y-136100000D01*
X322905000Y-138615000D02*
X322905000Y-139550000D01*
X322905000Y-139550000D02*
X323405000Y-140050000D01*
X341050000Y-115000000D02*
X336010000Y-115000000D01*
X330600000Y-140050000D02*
X331100000Y-139550000D01*
X336010000Y-115000000D02*
X335510000Y-114500000D01*
X323405000Y-140050000D02*
X330600000Y-140050000D01*
%TO.N,/IO35*%
X342450000Y-114300000D02*
X338550000Y-114300000D01*
X332000000Y-141050000D02*
X332500000Y-140550000D01*
X338550000Y-114300000D02*
X338050000Y-113800000D01*
X332500000Y-140550000D02*
X332500000Y-137500000D01*
X320365000Y-140550000D02*
X320865000Y-141050000D01*
X320865000Y-141050000D02*
X332000000Y-141050000D01*
X338050000Y-113800000D02*
X338050000Y-108970000D01*
X320365000Y-138615000D02*
X320365000Y-140550000D01*
%TO.N,/IO36*%
X341750000Y-113600000D02*
X341000000Y-113600000D01*
X341000000Y-113600000D02*
X340590000Y-113190000D01*
X331300000Y-140550000D02*
X331800000Y-140050000D01*
X331800000Y-140050000D02*
X331800000Y-136800000D01*
X321635000Y-140050000D02*
X322135000Y-140550000D01*
X322135000Y-140550000D02*
X331300000Y-140550000D01*
X340590000Y-113190000D02*
X340590000Y-112470000D01*
X321635000Y-138615000D02*
X321635000Y-140050000D01*
%TO.N,/IO37*%
X347350000Y-125200000D02*
X343630000Y-125200000D01*
X343630000Y-125200000D02*
X343130000Y-124700000D01*
X343130000Y-124700000D02*
X343130000Y-108970000D01*
%TO.N,/IO38*%
X333200000Y-141050000D02*
X333200000Y-138200000D01*
X319095000Y-138615000D02*
X319095000Y-141050000D01*
X345250000Y-124500000D02*
X345670000Y-124079999D01*
X319095000Y-141050000D02*
X319595000Y-141550000D01*
X319595000Y-141550000D02*
X332700000Y-141550000D01*
X345670000Y-124079999D02*
X345670000Y-112470000D01*
X332700000Y-141550000D02*
X333200000Y-141050000D01*
%TO.N,/IO39*%
X348050000Y-125900000D02*
X348050000Y-108970000D01*
%TO.N,/IO40*%
X350750000Y-126100000D02*
X350750000Y-112470000D01*
X350250000Y-126600000D02*
X350750000Y-126100000D01*
X346650000Y-126600000D02*
X350250000Y-126600000D01*
%TO.N,/U0RXD*%
X327985000Y-137345000D02*
X327985000Y-135900000D01*
X327985000Y-135900000D02*
X328485000Y-135400000D01*
X342450000Y-128000000D02*
X355330000Y-128000000D01*
X328485000Y-135400000D02*
X330400000Y-135400000D01*
X355330000Y-128000000D02*
X355830000Y-127500000D01*
X355830000Y-127500000D02*
X355830000Y-112470000D01*
%TO.N,/U0TXD*%
X345950000Y-127300000D02*
X352790000Y-127300000D01*
X353290000Y-126800000D02*
X353290000Y-108970000D01*
X352790000Y-127300000D02*
X353290000Y-126800000D01*
D16*
%TO.N,PWR_GND*%
X324175000Y-134400000D02*
X324675000Y-133900000D01*
X324675000Y-133900000D02*
X335510000Y-133900000D01*
X324175000Y-137345000D02*
X324175000Y-134400000D01*
%TD*%
%TA.AperFunction,Conductor*%
%TO.N,PWR_GND*%
G36*
X314946519Y-130435185D02*
G01*
X314992274Y-130487989D01*
X315002218Y-130557147D01*
X314973193Y-130620703D01*
X314967161Y-130627181D01*
X314740887Y-130853453D01*
X314740886Y-130853454D01*
X314664221Y-130968192D01*
X314611420Y-131095667D01*
X314611417Y-131095679D01*
X314591746Y-131194574D01*
X314591746Y-131194577D01*
X314584499Y-131231006D01*
X314584499Y-136099720D01*
X314564814Y-136166759D01*
X314548180Y-136187401D01*
X314480677Y-136254903D01*
X314480674Y-136254907D01*
X314367355Y-136424500D01*
X314367348Y-136424513D01*
X314289295Y-136612951D01*
X314289292Y-136612961D01*
X314249500Y-136813009D01*
X314249500Y-136813012D01*
X314249500Y-137446988D01*
X314249500Y-137446990D01*
X314249499Y-137446990D01*
X314289292Y-137647038D01*
X314289295Y-137647048D01*
X314367348Y-137835486D01*
X314367355Y-137835499D01*
X314480674Y-138005092D01*
X314480677Y-138005096D01*
X314624903Y-138149322D01*
X314624907Y-138149325D01*
X314794500Y-138262644D01*
X314794513Y-138262651D01*
X314857648Y-138288802D01*
X314982956Y-138340706D01*
X314982960Y-138340706D01*
X314982961Y-138340707D01*
X315183009Y-138380500D01*
X315393080Y-138380500D01*
X315393080Y-138382634D01*
X315452230Y-138393837D01*
X315502951Y-138441890D01*
X315518949Y-138506920D01*
X315519500Y-138506920D01*
X315519500Y-138509159D01*
X315519642Y-138509737D01*
X315519500Y-138511728D01*
X315519500Y-138513012D01*
X315519500Y-139146988D01*
X315519500Y-139146990D01*
X315519499Y-139146990D01*
X315559292Y-139347038D01*
X315559295Y-139347048D01*
X315637348Y-139535486D01*
X315637355Y-139535499D01*
X315750674Y-139705092D01*
X315750677Y-139705096D01*
X315894903Y-139849322D01*
X315894907Y-139849325D01*
X316064500Y-139962644D01*
X316064513Y-139962651D01*
X316252951Y-140040704D01*
X316252956Y-140040706D01*
X316252960Y-140040706D01*
X316252961Y-140040707D01*
X316453009Y-140080500D01*
X316453012Y-140080500D01*
X316656990Y-140080500D01*
X316791579Y-140053727D01*
X316857044Y-140040706D01*
X317028048Y-139969873D01*
X317097517Y-139962405D01*
X317159996Y-139993680D01*
X317195648Y-140053769D01*
X317199500Y-140084435D01*
X317199500Y-141611606D01*
X317209992Y-141664353D01*
X317223537Y-141732453D01*
X317229268Y-141746289D01*
X317229271Y-141746295D01*
X317231080Y-141750662D01*
X317270688Y-141846286D01*
X317304915Y-141897509D01*
X317309050Y-141903698D01*
X317309051Y-141903699D01*
X317339141Y-141948733D01*
X317378227Y-141987819D01*
X317411712Y-142049142D01*
X317406728Y-142118834D01*
X317364856Y-142174767D01*
X317299392Y-142199184D01*
X317290546Y-142199500D01*
X312816731Y-142199500D01*
X312806977Y-142199116D01*
X312800517Y-142198606D01*
X312700775Y-142190735D01*
X312681651Y-142187709D01*
X312593566Y-142166614D01*
X312575007Y-142160591D01*
X312491716Y-142126103D01*
X312474436Y-142117307D01*
X312397704Y-142070357D01*
X312381766Y-142058770D01*
X312313561Y-142000362D01*
X312299958Y-141986746D01*
X312241176Y-141917975D01*
X312229713Y-141902206D01*
X312182703Y-141825507D01*
X312173853Y-141808133D01*
X312139222Y-141724462D01*
X312133293Y-141706276D01*
X312112123Y-141618965D01*
X312108995Y-141599240D01*
X312100863Y-141493218D01*
X312100500Y-141483735D01*
X312100500Y-131131267D01*
X312100863Y-131121782D01*
X312101229Y-131116999D01*
X312108995Y-131015785D01*
X312112121Y-130996068D01*
X312133299Y-130908725D01*
X312139227Y-130890540D01*
X312173862Y-130806837D01*
X312182706Y-130789473D01*
X312229703Y-130712788D01*
X312241173Y-130697011D01*
X312299947Y-130628268D01*
X312313529Y-130614676D01*
X312381772Y-130556240D01*
X312397679Y-130544674D01*
X312474411Y-130497718D01*
X312491711Y-130488915D01*
X312575062Y-130454424D01*
X312593537Y-130448426D01*
X312681680Y-130427284D01*
X312700856Y-130424248D01*
X312806957Y-130415884D01*
X312816702Y-130415500D01*
X314879480Y-130415500D01*
X314946519Y-130435185D01*
G37*
%TD.AperFunction*%
%TA.AperFunction,Conductor*%
G36*
X356393037Y-100800883D02*
G01*
X356499145Y-100809249D01*
X356518318Y-100812284D01*
X356518324Y-100812286D01*
X356606455Y-100833426D01*
X356624944Y-100839428D01*
X356708280Y-100873912D01*
X356725592Y-100882722D01*
X356802307Y-100929667D01*
X356818235Y-100941248D01*
X356886464Y-100999672D01*
X356900056Y-101013273D01*
X356958826Y-101082011D01*
X356970297Y-101097792D01*
X356970298Y-101097793D01*
X357017284Y-101174461D01*
X357026137Y-101191843D01*
X357060771Y-101275542D01*
X357066701Y-101293734D01*
X357087875Y-101381059D01*
X357091004Y-101400792D01*
X357099137Y-101506782D01*
X357099500Y-101516269D01*
X357099500Y-141483732D01*
X357099137Y-141493218D01*
X357091003Y-141599237D01*
X357087874Y-141618971D01*
X357066707Y-141706268D01*
X357060773Y-141724469D01*
X357026145Y-141808133D01*
X357017294Y-141825509D01*
X356970286Y-141902208D01*
X356958820Y-141917981D01*
X356900047Y-141986738D01*
X356886448Y-142000350D01*
X356818235Y-142058768D01*
X356802295Y-142070357D01*
X356725558Y-142117310D01*
X356708278Y-142126106D01*
X356624992Y-142160592D01*
X356606433Y-142166615D01*
X356518350Y-142187709D01*
X356499226Y-142190735D01*
X356393024Y-142199116D01*
X356383269Y-142199500D01*
X341124454Y-142199500D01*
X341110157Y-142195302D01*
X341095277Y-142196018D01*
X341077312Y-142185657D01*
X341057415Y-142179815D01*
X341047659Y-142168556D01*
X341034751Y-142161112D01*
X341025238Y-142142681D01*
X341011660Y-142127011D01*
X341009539Y-142112265D01*
X341002706Y-142099025D01*
X341004667Y-142078380D01*
X341001716Y-142057853D01*
X341008016Y-142043129D01*
X341009315Y-142029468D01*
X341022276Y-142009807D01*
X341026947Y-141998894D01*
X341031528Y-141993062D01*
X341075858Y-141948733D01*
X341127256Y-141871809D01*
X341144312Y-141846285D01*
X341183920Y-141750662D01*
X341191463Y-141732452D01*
X341215500Y-141611606D01*
X341215500Y-136507195D01*
X341235185Y-136440156D01*
X341287989Y-136394401D01*
X341296145Y-136391021D01*
X341342331Y-136373796D01*
X341457546Y-136287546D01*
X341543796Y-136172331D01*
X341594091Y-136037483D01*
X341600500Y-135977873D01*
X341600499Y-133082128D01*
X341594091Y-133022517D01*
X341575374Y-132972335D01*
X341543797Y-132887671D01*
X341543793Y-132887664D01*
X341457547Y-132772455D01*
X341457544Y-132772452D01*
X341342335Y-132686206D01*
X341342328Y-132686202D01*
X341207482Y-132635908D01*
X341207483Y-132635908D01*
X341147883Y-132629501D01*
X341147881Y-132629500D01*
X341147873Y-132629500D01*
X341147864Y-132629500D01*
X340032129Y-132629500D01*
X340032123Y-132629501D01*
X339972516Y-132635908D01*
X339837671Y-132686202D01*
X339837664Y-132686206D01*
X339722455Y-132772452D01*
X339722452Y-132772455D01*
X339636206Y-132887664D01*
X339636202Y-132887671D01*
X339585908Y-133022517D01*
X339579620Y-133081011D01*
X339579501Y-133082123D01*
X339579500Y-133082135D01*
X339579500Y-135977870D01*
X339579501Y-135977876D01*
X339585908Y-136037483D01*
X339636202Y-136172328D01*
X339636206Y-136172335D01*
X339722452Y-136287544D01*
X339722455Y-136287547D01*
X339837666Y-136373794D01*
X339837667Y-136373794D01*
X339837669Y-136373796D01*
X339883833Y-136391013D01*
X339939765Y-136432882D01*
X339964184Y-136498346D01*
X339964500Y-136507195D01*
X339964500Y-141239548D01*
X339955855Y-141268988D01*
X339949332Y-141298975D01*
X339945577Y-141303990D01*
X339944815Y-141306587D01*
X339928181Y-141327229D01*
X339867229Y-141388181D01*
X339805906Y-141421666D01*
X339779548Y-141424500D01*
X333907493Y-141424500D01*
X333840454Y-141404815D01*
X333794699Y-141352011D01*
X333784755Y-141282853D01*
X333792932Y-141253047D01*
X333801463Y-141232452D01*
X333825500Y-141111606D01*
X333825500Y-138828650D01*
X333845185Y-138761611D01*
X333856943Y-138747021D01*
X333856761Y-138746872D01*
X333860626Y-138742162D01*
X333953703Y-138602863D01*
X334017816Y-138448082D01*
X334050500Y-138283767D01*
X334050500Y-138116233D01*
X334017816Y-137951918D01*
X333953703Y-137797137D01*
X333915833Y-137740461D01*
X333860626Y-137657837D01*
X333742162Y-137539373D01*
X333602860Y-137446295D01*
X333448082Y-137382184D01*
X333448078Y-137382183D01*
X333420687Y-137376734D01*
X333358776Y-137344347D01*
X333324204Y-137283630D01*
X333323271Y-137279343D01*
X333317816Y-137251918D01*
X333257426Y-137106124D01*
X333253704Y-137097139D01*
X333160626Y-136957837D01*
X333042162Y-136839373D01*
X332902860Y-136746295D01*
X332748082Y-136682184D01*
X332748078Y-136682183D01*
X332720687Y-136676734D01*
X332658776Y-136644347D01*
X332624204Y-136583630D01*
X332623271Y-136579343D01*
X332617816Y-136551918D01*
X332556841Y-136404712D01*
X332553704Y-136397139D01*
X332538107Y-136373797D01*
X332520925Y-136348082D01*
X332460626Y-136257837D01*
X332342162Y-136139373D01*
X332202860Y-136046295D01*
X332048082Y-135982184D01*
X332048078Y-135982183D01*
X332020687Y-135976734D01*
X331958776Y-135944347D01*
X331924204Y-135883630D01*
X331923271Y-135879343D01*
X331917816Y-135851918D01*
X331853703Y-135697137D01*
X331820925Y-135648082D01*
X331760626Y-135557837D01*
X331690470Y-135487681D01*
X331656985Y-135426358D01*
X331661969Y-135356666D01*
X331690470Y-135312319D01*
X331760623Y-135242165D01*
X331760626Y-135242162D01*
X331853703Y-135102863D01*
X331917816Y-134948082D01*
X331950500Y-134783767D01*
X331950500Y-134616233D01*
X331917816Y-134451918D01*
X331853703Y-134297137D01*
X331822537Y-134250494D01*
X331760626Y-134157837D01*
X331664970Y-134062181D01*
X331631485Y-134000858D01*
X331636469Y-133931166D01*
X331678341Y-133875233D01*
X331743805Y-133850816D01*
X331752651Y-133850500D01*
X333968996Y-133850500D01*
X334060040Y-133832389D01*
X334104328Y-133823580D01*
X334168069Y-133797177D01*
X334231807Y-133770777D01*
X334231808Y-133770776D01*
X334231811Y-133770775D01*
X334346543Y-133694114D01*
X334903838Y-133136819D01*
X334965161Y-133103334D01*
X334991519Y-133100500D01*
X337158486Y-133100500D01*
X337225525Y-133120185D01*
X337232797Y-133125233D01*
X337297668Y-133173795D01*
X337297671Y-133173797D01*
X337432517Y-133224091D01*
X337432516Y-133224091D01*
X337439444Y-133224835D01*
X337492127Y-133230500D01*
X338607872Y-133230499D01*
X338667483Y-133224091D01*
X338802331Y-133173796D01*
X338917546Y-133087546D01*
X339003796Y-132972331D01*
X339054091Y-132837483D01*
X339060500Y-132777873D01*
X339060499Y-131482684D01*
X339080184Y-131415646D01*
X339132987Y-131369891D01*
X339202146Y-131359947D01*
X339231952Y-131368124D01*
X339351918Y-131417816D01*
X339516228Y-131450499D01*
X339516232Y-131450500D01*
X339516233Y-131450500D01*
X339683768Y-131450500D01*
X339683769Y-131450499D01*
X339848082Y-131417816D01*
X340002863Y-131353703D01*
X340142162Y-131260626D01*
X340146872Y-131256761D01*
X340147912Y-131258028D01*
X340202293Y-131228334D01*
X340228651Y-131225500D01*
X341995500Y-131225500D01*
X342062539Y-131245185D01*
X342108294Y-131297989D01*
X342119500Y-131349500D01*
X342119500Y-132777870D01*
X342119501Y-132777876D01*
X342125908Y-132837483D01*
X342176202Y-132972328D01*
X342176206Y-132972335D01*
X342262452Y-133087544D01*
X342262455Y-133087547D01*
X342377664Y-133173793D01*
X342377671Y-133173797D01*
X342512517Y-133224091D01*
X342512516Y-133224091D01*
X342519444Y-133224835D01*
X342572127Y-133230500D01*
X343687872Y-133230499D01*
X343747483Y-133224091D01*
X343882331Y-133173796D01*
X343997546Y-133087546D01*
X344001597Y-133082135D01*
X344659500Y-133082135D01*
X344659500Y-135977870D01*
X344659501Y-135977876D01*
X344665908Y-136037483D01*
X344716202Y-136172328D01*
X344716206Y-136172335D01*
X344802452Y-136287544D01*
X344802455Y-136287547D01*
X344917664Y-136373793D01*
X344917671Y-136373797D01*
X345052517Y-136424091D01*
X345052516Y-136424091D01*
X345056321Y-136424500D01*
X345112127Y-136430500D01*
X346227872Y-136430499D01*
X346287483Y-136424091D01*
X346422331Y-136373796D01*
X346537546Y-136287546D01*
X346623796Y-136172331D01*
X346674091Y-136037483D01*
X346680500Y-135977873D01*
X346680499Y-133082128D01*
X346674091Y-133022517D01*
X346655374Y-132972335D01*
X346623797Y-132887671D01*
X346623793Y-132887664D01*
X346537547Y-132772455D01*
X346537544Y-132772452D01*
X346422335Y-132686206D01*
X346422328Y-132686202D01*
X346287482Y-132635908D01*
X346287483Y-132635908D01*
X346227883Y-132629501D01*
X346227881Y-132629500D01*
X346227873Y-132629500D01*
X346227864Y-132629500D01*
X345112129Y-132629500D01*
X345112123Y-132629501D01*
X345052516Y-132635908D01*
X344917671Y-132686202D01*
X344917664Y-132686206D01*
X344802455Y-132772452D01*
X344802452Y-132772455D01*
X344716206Y-132887664D01*
X344716202Y-132887671D01*
X344665908Y-133022517D01*
X344659620Y-133081011D01*
X344659501Y-133082123D01*
X344659500Y-133082135D01*
X344001597Y-133082135D01*
X344083796Y-132972331D01*
X344134091Y-132837483D01*
X344140500Y-132777873D01*
X344140499Y-130149499D01*
X344160184Y-130082461D01*
X344212987Y-130036706D01*
X344264499Y-130025500D01*
X347075500Y-130025500D01*
X347142539Y-130045185D01*
X347188294Y-130097989D01*
X347199500Y-130149500D01*
X347199500Y-132777870D01*
X347199501Y-132777876D01*
X347205908Y-132837483D01*
X347256202Y-132972328D01*
X347256206Y-132972335D01*
X347342452Y-133087544D01*
X347342455Y-133087547D01*
X347457664Y-133173793D01*
X347457671Y-133173797D01*
X347592517Y-133224091D01*
X347592516Y-133224091D01*
X347599444Y-133224835D01*
X347652127Y-133230500D01*
X348767872Y-133230499D01*
X348827483Y-133224091D01*
X348962331Y-133173796D01*
X349077546Y-133087546D01*
X349163796Y-132972331D01*
X349214091Y-132837483D01*
X349220500Y-132777873D01*
X349220499Y-130149499D01*
X349240184Y-130082461D01*
X349292987Y-130036706D01*
X349344499Y-130025500D01*
X349939548Y-130025500D01*
X349968988Y-130034144D01*
X349998975Y-130040668D01*
X350003990Y-130044422D01*
X350006587Y-130045185D01*
X350027229Y-130061819D01*
X350088181Y-130122771D01*
X350121666Y-130184094D01*
X350124500Y-130210452D01*
X350124500Y-132552803D01*
X350104815Y-132619842D01*
X350052011Y-132665597D01*
X350043834Y-132668985D01*
X349997670Y-132686203D01*
X349997664Y-132686206D01*
X349882455Y-132772452D01*
X349882452Y-132772455D01*
X349796206Y-132887664D01*
X349796202Y-132887671D01*
X349745908Y-133022517D01*
X349739620Y-133081011D01*
X349739501Y-133082123D01*
X349739500Y-133082135D01*
X349739500Y-135977870D01*
X349739501Y-135977876D01*
X349745908Y-136037483D01*
X349796202Y-136172328D01*
X349796206Y-136172335D01*
X349882452Y-136287544D01*
X349882455Y-136287547D01*
X349997664Y-136373793D01*
X349997671Y-136373797D01*
X350132517Y-136424091D01*
X350132516Y-136424091D01*
X350136321Y-136424500D01*
X350192127Y-136430500D01*
X350899218Y-136430499D01*
X350966256Y-136450183D01*
X351012011Y-136502987D01*
X351021955Y-136572146D01*
X350992930Y-136635702D01*
X350938115Y-136672240D01*
X350874616Y-136693217D01*
X350874614Y-136693218D01*
X350762421Y-136736496D01*
X350652490Y-136785226D01*
X350652463Y-136785239D01*
X350545081Y-136839289D01*
X350545075Y-136839293D01*
X350440462Y-136898554D01*
X350440461Y-136898555D01*
X350338845Y-136962903D01*
X350240525Y-137032148D01*
X350240523Y-137032150D01*
X350145749Y-137106112D01*
X350145746Y-137106114D01*
X350054688Y-137184661D01*
X349967588Y-137267588D01*
X349884661Y-137354688D01*
X349806114Y-137445746D01*
X349806112Y-137445749D01*
X349732150Y-137540523D01*
X349732148Y-137540525D01*
X349662903Y-137638845D01*
X349598555Y-137740461D01*
X349598554Y-137740462D01*
X349539293Y-137845075D01*
X349539289Y-137845081D01*
X349485239Y-137952463D01*
X349485226Y-137952490D01*
X349436496Y-138062421D01*
X349393218Y-138174614D01*
X349393213Y-138174628D01*
X349355503Y-138288776D01*
X349355498Y-138288793D01*
X349323424Y-138404692D01*
X349323419Y-138404712D01*
X349297077Y-138522019D01*
X349276522Y-138640473D01*
X349276514Y-138640528D01*
X349261798Y-138759841D01*
X349261798Y-138759844D01*
X349261797Y-138759858D01*
X349252951Y-138879784D01*
X349250000Y-139000000D01*
X349252951Y-139120215D01*
X349252952Y-139120228D01*
X349261798Y-139240154D01*
X349261798Y-139240157D01*
X349276514Y-139359470D01*
X349276522Y-139359525D01*
X349297077Y-139477979D01*
X349323419Y-139595286D01*
X349323424Y-139595306D01*
X349355498Y-139711205D01*
X349355503Y-139711222D01*
X349393213Y-139825370D01*
X349393218Y-139825384D01*
X349436496Y-139937577D01*
X349447611Y-139962651D01*
X349482210Y-140040706D01*
X349485226Y-140047508D01*
X349485239Y-140047535D01*
X349539289Y-140154917D01*
X349539293Y-140154923D01*
X349598554Y-140259536D01*
X349598555Y-140259537D01*
X349598564Y-140259551D01*
X349653488Y-140346286D01*
X349662903Y-140361153D01*
X349732148Y-140459473D01*
X349732150Y-140459475D01*
X349806112Y-140554249D01*
X349806114Y-140554252D01*
X349855589Y-140611607D01*
X349884669Y-140645319D01*
X349967588Y-140732411D01*
X350054680Y-140815330D01*
X350054686Y-140815335D01*
X350054688Y-140815337D01*
X350145746Y-140893884D01*
X350145749Y-140893886D01*
X350240523Y-140967848D01*
X350240525Y-140967850D01*
X350240532Y-140967855D01*
X350240536Y-140967858D01*
X350338852Y-141037100D01*
X350440448Y-141101435D01*
X350440461Y-141101443D01*
X350440462Y-141101444D01*
X350498226Y-141134166D01*
X350545077Y-141160707D01*
X350652490Y-141214773D01*
X350762425Y-141263504D01*
X350874619Y-141306782D01*
X350874626Y-141306784D01*
X350874628Y-141306785D01*
X350988776Y-141344495D01*
X350988792Y-141344499D01*
X350988802Y-141344503D01*
X351104698Y-141376576D01*
X351222028Y-141402923D01*
X351282493Y-141413414D01*
X351340473Y-141423476D01*
X351340487Y-141423478D01*
X351340510Y-141423482D01*
X351459858Y-141438202D01*
X351579784Y-141447048D01*
X351700000Y-141450000D01*
X351820215Y-141447048D01*
X351940141Y-141438202D01*
X352059489Y-141423482D01*
X352059516Y-141423477D01*
X352059525Y-141423476D01*
X352093564Y-141417569D01*
X352177971Y-141402923D01*
X352295301Y-141376576D01*
X352411197Y-141344503D01*
X352411214Y-141344497D01*
X352411222Y-141344495D01*
X352463763Y-141327137D01*
X352525380Y-141306782D01*
X352637574Y-141263504D01*
X352747509Y-141214773D01*
X352854922Y-141160707D01*
X352941597Y-141111606D01*
X352959536Y-141101444D01*
X352959537Y-141101443D01*
X352959538Y-141101442D01*
X352959551Y-141101435D01*
X353061147Y-141037100D01*
X353159463Y-140967858D01*
X353254249Y-140893886D01*
X353254252Y-140893884D01*
X353254257Y-140893879D01*
X353254263Y-140893875D01*
X353345319Y-140815330D01*
X353432411Y-140732411D01*
X353515330Y-140645319D01*
X353593875Y-140554263D01*
X353667858Y-140459463D01*
X353737100Y-140361147D01*
X353801435Y-140259551D01*
X353801443Y-140259537D01*
X353801444Y-140259536D01*
X353816826Y-140232381D01*
X353860707Y-140154922D01*
X353914773Y-140047509D01*
X353963504Y-139937574D01*
X354006782Y-139825380D01*
X354044503Y-139711197D01*
X354076576Y-139595301D01*
X354102923Y-139477971D01*
X354123482Y-139359489D01*
X354138202Y-139240141D01*
X354147048Y-139120215D01*
X354150000Y-139000000D01*
X354147048Y-138879784D01*
X354138202Y-138759858D01*
X354123482Y-138640510D01*
X354116949Y-138602863D01*
X354102921Y-138522019D01*
X354076579Y-138404712D01*
X354076576Y-138404698D01*
X354044503Y-138288802D01*
X354044499Y-138288792D01*
X354044495Y-138288776D01*
X354006785Y-138174628D01*
X354006780Y-138174614D01*
X353984260Y-138116233D01*
X353963504Y-138062425D01*
X353914773Y-137952490D01*
X353860707Y-137845077D01*
X353817471Y-137768755D01*
X353801444Y-137740462D01*
X353801443Y-137740461D01*
X353801435Y-137740448D01*
X353737100Y-137638852D01*
X353667858Y-137540536D01*
X353667855Y-137540532D01*
X353667850Y-137540525D01*
X353667848Y-137540523D01*
X353593886Y-137445749D01*
X353593884Y-137445746D01*
X353515337Y-137354688D01*
X353515335Y-137354686D01*
X353515330Y-137354680D01*
X353432411Y-137267588D01*
X353345319Y-137184669D01*
X353345310Y-137184661D01*
X353254252Y-137106114D01*
X353254249Y-137106112D01*
X353159475Y-137032150D01*
X353159473Y-137032148D01*
X353061153Y-136962903D01*
X352959537Y-136898555D01*
X352959536Y-136898554D01*
X352870424Y-136848074D01*
X352854922Y-136839292D01*
X352854919Y-136839290D01*
X352854917Y-136839289D01*
X352747535Y-136785239D01*
X352747531Y-136785237D01*
X352747509Y-136785226D01*
X352659687Y-136746297D01*
X352637577Y-136736496D01*
X352525384Y-136693218D01*
X352525370Y-136693213D01*
X352411222Y-136655503D01*
X352411205Y-136655498D01*
X352295306Y-136623424D01*
X352295286Y-136623419D01*
X352177979Y-136597077D01*
X352059525Y-136576522D01*
X352059470Y-136576514D01*
X351940155Y-136561798D01*
X351887037Y-136557880D01*
X351820215Y-136552951D01*
X351700000Y-136550000D01*
X351699999Y-136550000D01*
X351640552Y-136551459D01*
X351573050Y-136533425D01*
X351526013Y-136481759D01*
X351514376Y-136412865D01*
X351541833Y-136348616D01*
X351563193Y-136328234D01*
X351617546Y-136287546D01*
X351703796Y-136172331D01*
X351754091Y-136037483D01*
X351760500Y-135977873D01*
X351760499Y-133082128D01*
X351754091Y-133022517D01*
X351735374Y-132972335D01*
X351703797Y-132887671D01*
X351703793Y-132887664D01*
X351617547Y-132772455D01*
X351617544Y-132772452D01*
X351502335Y-132686206D01*
X351502329Y-132686203D01*
X351456166Y-132668985D01*
X351400233Y-132627113D01*
X351375816Y-132561649D01*
X351375500Y-132552803D01*
X351375500Y-129838396D01*
X351375500Y-129838394D01*
X351374123Y-129831473D01*
X351374123Y-129831467D01*
X351374122Y-129831468D01*
X351357818Y-129749500D01*
X351357818Y-129749499D01*
X351351464Y-129717555D01*
X351351463Y-129717548D01*
X351322439Y-129647478D01*
X351304312Y-129603715D01*
X351304311Y-129603713D01*
X351304310Y-129603711D01*
X351304309Y-129603710D01*
X351283425Y-129572455D01*
X351283423Y-129572453D01*
X351283422Y-129572452D01*
X351247299Y-129518389D01*
X351226422Y-129451712D01*
X351244907Y-129384332D01*
X351296886Y-129337642D01*
X351350402Y-129325499D01*
X352379787Y-129325499D01*
X352446826Y-129345184D01*
X352492581Y-129397988D01*
X352502525Y-129467146D01*
X352473500Y-129530702D01*
X352454101Y-129548762D01*
X352422454Y-129572454D01*
X352422453Y-129572455D01*
X352422452Y-129572456D01*
X352336206Y-129687664D01*
X352336202Y-129687671D01*
X352285908Y-129822517D01*
X352281929Y-129859532D01*
X352279501Y-129882123D01*
X352279500Y-129882135D01*
X352279500Y-132777870D01*
X352279501Y-132777876D01*
X352285908Y-132837483D01*
X352336202Y-132972328D01*
X352336206Y-132972335D01*
X352422452Y-133087544D01*
X352422455Y-133087547D01*
X352537664Y-133173793D01*
X352537671Y-133173797D01*
X352672517Y-133224091D01*
X352672516Y-133224091D01*
X352679444Y-133224835D01*
X352732127Y-133230500D01*
X353847872Y-133230499D01*
X353907483Y-133224091D01*
X354042331Y-133173796D01*
X354157546Y-133087546D01*
X354161597Y-133082135D01*
X354819500Y-133082135D01*
X354819500Y-135977870D01*
X354819501Y-135977876D01*
X354825908Y-136037483D01*
X354876202Y-136172328D01*
X354876203Y-136172329D01*
X354876204Y-136172331D01*
X354940214Y-136257837D01*
X354962455Y-136287547D01*
X354967742Y-136292834D01*
X355001230Y-136354156D01*
X355001683Y-136404709D01*
X354992638Y-136450183D01*
X354979501Y-136516231D01*
X354979500Y-136516234D01*
X354979500Y-136683771D01*
X355012182Y-136848074D01*
X355012184Y-136848082D01*
X355076295Y-137002860D01*
X355169373Y-137142162D01*
X355287837Y-137260626D01*
X355380494Y-137322537D01*
X355427137Y-137353703D01*
X355427138Y-137353703D01*
X355427139Y-137353704D01*
X355462201Y-137368227D01*
X355581918Y-137417816D01*
X355722283Y-137445736D01*
X355746228Y-137450499D01*
X355746232Y-137450500D01*
X355746233Y-137450500D01*
X355913768Y-137450500D01*
X355913769Y-137450499D01*
X356078082Y-137417816D01*
X356232863Y-137353703D01*
X356372162Y-137260626D01*
X356490626Y-137142162D01*
X356583703Y-137002863D01*
X356647816Y-136848082D01*
X356680500Y-136683767D01*
X356680500Y-136516233D01*
X356658317Y-136404709D01*
X356664544Y-136335120D01*
X356692257Y-136292835D01*
X356697542Y-136287548D01*
X356697546Y-136287546D01*
X356783796Y-136172331D01*
X356834091Y-136037483D01*
X356840500Y-135977873D01*
X356840499Y-133082128D01*
X356834091Y-133022517D01*
X356815374Y-132972335D01*
X356783797Y-132887671D01*
X356783793Y-132887664D01*
X356697547Y-132772455D01*
X356697544Y-132772452D01*
X356582335Y-132686206D01*
X356582328Y-132686202D01*
X356447482Y-132635908D01*
X356447483Y-132635908D01*
X356387883Y-132629501D01*
X356387881Y-132629500D01*
X356387873Y-132629500D01*
X356387864Y-132629500D01*
X355272129Y-132629500D01*
X355272123Y-132629501D01*
X355212516Y-132635908D01*
X355077671Y-132686202D01*
X355077664Y-132686206D01*
X354962455Y-132772452D01*
X354962452Y-132772455D01*
X354876206Y-132887664D01*
X354876202Y-132887671D01*
X354825908Y-133022517D01*
X354819620Y-133081011D01*
X354819501Y-133082123D01*
X354819500Y-133082135D01*
X354161597Y-133082135D01*
X354243796Y-132972331D01*
X354294091Y-132837483D01*
X354300500Y-132777873D01*
X354300499Y-129882128D01*
X354295052Y-129831459D01*
X354294091Y-129822516D01*
X354243797Y-129687671D01*
X354243793Y-129687664D01*
X354157547Y-129572455D01*
X354157544Y-129572452D01*
X354042335Y-129486206D01*
X354042329Y-129486203D01*
X353996166Y-129468985D01*
X353979181Y-129456270D01*
X353959752Y-129447757D01*
X353951772Y-129435751D01*
X353940233Y-129427113D01*
X353932819Y-129407235D01*
X353921076Y-129389568D01*
X353917544Y-129366283D01*
X353915816Y-129361649D01*
X353915515Y-129354715D01*
X353915500Y-129353742D01*
X353915500Y-129138393D01*
X353914094Y-129131326D01*
X353898431Y-129052580D01*
X353891463Y-129017547D01*
X353862689Y-128948081D01*
X353844312Y-128903714D01*
X353808755Y-128850500D01*
X353805764Y-128846023D01*
X353787300Y-128818389D01*
X353766423Y-128751712D01*
X353784908Y-128684332D01*
X353836888Y-128637642D01*
X353890403Y-128625500D01*
X355391607Y-128625500D01*
X355452029Y-128613481D01*
X355512452Y-128601463D01*
X355545792Y-128587652D01*
X355626286Y-128554312D01*
X355692220Y-128510255D01*
X355728733Y-128485858D01*
X355815858Y-128398733D01*
X355815859Y-128398730D01*
X355822925Y-128391665D01*
X355822928Y-128391661D01*
X356228729Y-127985860D01*
X356228733Y-127985858D01*
X356315858Y-127898733D01*
X356367256Y-127821809D01*
X356384312Y-127796285D01*
X356424719Y-127698733D01*
X356431463Y-127682452D01*
X356455500Y-127561606D01*
X356455500Y-113647195D01*
X356475185Y-113580156D01*
X356527989Y-113534401D01*
X356536145Y-113531021D01*
X356582331Y-113513796D01*
X356697546Y-113427546D01*
X356783796Y-113312331D01*
X356834091Y-113177483D01*
X356840500Y-113117873D01*
X356840499Y-110222128D01*
X356834091Y-110162517D01*
X356815374Y-110112335D01*
X356783797Y-110027671D01*
X356783793Y-110027664D01*
X356697547Y-109912455D01*
X356697544Y-109912452D01*
X356582335Y-109826206D01*
X356582328Y-109826202D01*
X356447482Y-109775908D01*
X356447483Y-109775908D01*
X356387883Y-109769501D01*
X356387881Y-109769500D01*
X356387873Y-109769500D01*
X356387864Y-109769500D01*
X355272129Y-109769500D01*
X355272123Y-109769501D01*
X355212516Y-109775908D01*
X355077671Y-109826202D01*
X355077664Y-109826206D01*
X354962455Y-109912452D01*
X354962452Y-109912455D01*
X354876206Y-110027664D01*
X354876202Y-110027671D01*
X354825908Y-110162517D01*
X354819501Y-110222116D01*
X354819501Y-110222123D01*
X354819500Y-110222135D01*
X354819500Y-113117870D01*
X354819501Y-113117876D01*
X354825908Y-113177483D01*
X354876202Y-113312328D01*
X354876206Y-113312335D01*
X354962452Y-113427544D01*
X354962455Y-113427547D01*
X355077666Y-113513794D01*
X355077667Y-113513794D01*
X355077669Y-113513796D01*
X355123833Y-113531013D01*
X355179765Y-113572882D01*
X355204184Y-113638346D01*
X355204500Y-113647195D01*
X355204500Y-127189548D01*
X355195855Y-127218988D01*
X355189332Y-127248975D01*
X355185577Y-127253990D01*
X355184815Y-127256587D01*
X355168181Y-127277229D01*
X355107229Y-127338181D01*
X355045906Y-127371666D01*
X355019548Y-127374500D01*
X353890401Y-127374500D01*
X353823362Y-127354815D01*
X353777607Y-127302011D01*
X353767663Y-127232853D01*
X353787298Y-127181611D01*
X353808754Y-127149500D01*
X353827254Y-127121813D01*
X353827256Y-127121810D01*
X353836844Y-127107461D01*
X353844312Y-127096285D01*
X353876561Y-127018429D01*
X353891463Y-126982452D01*
X353903363Y-126922623D01*
X353907611Y-126901270D01*
X353907611Y-126901267D01*
X353915500Y-126861607D01*
X353915500Y-126738393D01*
X353915500Y-110447195D01*
X353935185Y-110380156D01*
X353987989Y-110334401D01*
X353996145Y-110331021D01*
X354042331Y-110313796D01*
X354059501Y-110300943D01*
X354125192Y-110251766D01*
X354157546Y-110227546D01*
X354243796Y-110112331D01*
X354294091Y-109977483D01*
X354300500Y-109917873D01*
X354300499Y-107022128D01*
X354294091Y-106962517D01*
X354243796Y-106827669D01*
X354243795Y-106827668D01*
X354243793Y-106827664D01*
X354157547Y-106712455D01*
X354157544Y-106712452D01*
X354042335Y-106626206D01*
X354042328Y-106626202D01*
X353907482Y-106575908D01*
X353907483Y-106575908D01*
X353847883Y-106569501D01*
X353847881Y-106569500D01*
X353847873Y-106569500D01*
X353847864Y-106569500D01*
X352732129Y-106569500D01*
X352732123Y-106569501D01*
X352672516Y-106575908D01*
X352537671Y-106626202D01*
X352537664Y-106626206D01*
X352422455Y-106712452D01*
X352422452Y-106712455D01*
X352336206Y-106827664D01*
X352336202Y-106827671D01*
X352285908Y-106962517D01*
X352279501Y-107022116D01*
X352279501Y-107022123D01*
X352279500Y-107022135D01*
X352279500Y-109917870D01*
X352279501Y-109917876D01*
X352285908Y-109977483D01*
X352336202Y-110112328D01*
X352336206Y-110112335D01*
X352422452Y-110227544D01*
X352422455Y-110227547D01*
X352537666Y-110313794D01*
X352537667Y-110313794D01*
X352537669Y-110313796D01*
X352583833Y-110331013D01*
X352639765Y-110372882D01*
X352664184Y-110438346D01*
X352664500Y-110447195D01*
X352664500Y-126489548D01*
X352655855Y-126518988D01*
X352649332Y-126548975D01*
X352645577Y-126553990D01*
X352644815Y-126556587D01*
X352628181Y-126577229D01*
X352567229Y-126638181D01*
X352505906Y-126671666D01*
X352479548Y-126674500D01*
X351350402Y-126674500D01*
X351283363Y-126654815D01*
X351237608Y-126602011D01*
X351227664Y-126532853D01*
X351247300Y-126481610D01*
X351288053Y-126420618D01*
X351288054Y-126420615D01*
X351288058Y-126420610D01*
X351304312Y-126396285D01*
X351333446Y-126325949D01*
X351351463Y-126282452D01*
X351375500Y-126161606D01*
X351375500Y-113647195D01*
X351395185Y-113580156D01*
X351447989Y-113534401D01*
X351456145Y-113531021D01*
X351502331Y-113513796D01*
X351617546Y-113427546D01*
X351703796Y-113312331D01*
X351754091Y-113177483D01*
X351760500Y-113117873D01*
X351760499Y-110222128D01*
X351754091Y-110162517D01*
X351735374Y-110112335D01*
X351703797Y-110027671D01*
X351703793Y-110027664D01*
X351617547Y-109912455D01*
X351617544Y-109912452D01*
X351502335Y-109826206D01*
X351502328Y-109826202D01*
X351367482Y-109775908D01*
X351367483Y-109775908D01*
X351307883Y-109769501D01*
X351307881Y-109769500D01*
X351307873Y-109769500D01*
X351307864Y-109769500D01*
X350192129Y-109769500D01*
X350192123Y-109769501D01*
X350132516Y-109775908D01*
X349997671Y-109826202D01*
X349997664Y-109826206D01*
X349882455Y-109912452D01*
X349882452Y-109912455D01*
X349796206Y-110027664D01*
X349796202Y-110027671D01*
X349745908Y-110162517D01*
X349739501Y-110222116D01*
X349739501Y-110222123D01*
X349739500Y-110222135D01*
X349739500Y-113117870D01*
X349739501Y-113117876D01*
X349745908Y-113177483D01*
X349796202Y-113312328D01*
X349796206Y-113312335D01*
X349882452Y-113427544D01*
X349882455Y-113427547D01*
X349997666Y-113513794D01*
X349997667Y-113513794D01*
X349997669Y-113513796D01*
X350043833Y-113531013D01*
X350099765Y-113572882D01*
X350124184Y-113638346D01*
X350124500Y-113647195D01*
X350124500Y-125789548D01*
X350115855Y-125818988D01*
X350109332Y-125848975D01*
X350105577Y-125853990D01*
X350104815Y-125856587D01*
X350088181Y-125877229D01*
X350027229Y-125938181D01*
X349965906Y-125971666D01*
X349939548Y-125974500D01*
X349024500Y-125974500D01*
X348957461Y-125954815D01*
X348911706Y-125902011D01*
X348900500Y-125850500D01*
X348900500Y-125816232D01*
X348900499Y-125816228D01*
X348885562Y-125741134D01*
X348867816Y-125651918D01*
X348803703Y-125497137D01*
X348772537Y-125450494D01*
X348710626Y-125357837D01*
X348706761Y-125353128D01*
X348708028Y-125352087D01*
X348678334Y-125297707D01*
X348675500Y-125271349D01*
X348675500Y-110491813D01*
X348695185Y-110424774D01*
X348747989Y-110379019D01*
X348786245Y-110368523D01*
X348827483Y-110364091D01*
X348962331Y-110313796D01*
X349077546Y-110227546D01*
X349163796Y-110112331D01*
X349214091Y-109977483D01*
X349220500Y-109917873D01*
X349220499Y-107022128D01*
X349214091Y-106962517D01*
X349163796Y-106827669D01*
X349163795Y-106827668D01*
X349163793Y-106827664D01*
X349077547Y-106712455D01*
X349077544Y-106712452D01*
X348962335Y-106626206D01*
X348962328Y-106626202D01*
X348827482Y-106575908D01*
X348827483Y-106575908D01*
X348767883Y-106569501D01*
X348767881Y-106569500D01*
X348767873Y-106569500D01*
X348767864Y-106569500D01*
X347652129Y-106569500D01*
X347652123Y-106569501D01*
X347592516Y-106575908D01*
X347457671Y-106626202D01*
X347457664Y-106626206D01*
X347342455Y-106712452D01*
X347342452Y-106712455D01*
X347256206Y-106827664D01*
X347256202Y-106827671D01*
X347205908Y-106962517D01*
X347199501Y-107022116D01*
X347199501Y-107022123D01*
X347199500Y-107022135D01*
X347199500Y-109917870D01*
X347199501Y-109917876D01*
X347205908Y-109977483D01*
X347256202Y-110112328D01*
X347256203Y-110112329D01*
X347256204Y-110112331D01*
X347342452Y-110227543D01*
X347342451Y-110227543D01*
X347342452Y-110227544D01*
X347342454Y-110227546D01*
X347374812Y-110251769D01*
X347416681Y-110307700D01*
X347424500Y-110351034D01*
X347424500Y-124225500D01*
X347404815Y-124292539D01*
X347352011Y-124338294D01*
X347300500Y-124349500D01*
X347266228Y-124349500D01*
X347101925Y-124382182D01*
X347101917Y-124382184D01*
X346947139Y-124446295D01*
X346807837Y-124539373D01*
X346803128Y-124543239D01*
X346802087Y-124541971D01*
X346747707Y-124571666D01*
X346721349Y-124574500D01*
X346323857Y-124574500D01*
X346256818Y-124554815D01*
X346211063Y-124502011D01*
X346201119Y-124432853D01*
X346220753Y-124381612D01*
X346224309Y-124376288D01*
X346224312Y-124376284D01*
X346271463Y-124262450D01*
X346295500Y-124141605D01*
X346295500Y-124018392D01*
X346295500Y-113647195D01*
X346315185Y-113580156D01*
X346367989Y-113534401D01*
X346376145Y-113531021D01*
X346422331Y-113513796D01*
X346537546Y-113427546D01*
X346623796Y-113312331D01*
X346674091Y-113177483D01*
X346680500Y-113117873D01*
X346680499Y-110222128D01*
X346674091Y-110162517D01*
X346655374Y-110112335D01*
X346623797Y-110027671D01*
X346623793Y-110027664D01*
X346537547Y-109912455D01*
X346537544Y-109912452D01*
X346422335Y-109826206D01*
X346422328Y-109826202D01*
X346287482Y-109775908D01*
X346287483Y-109775908D01*
X346227883Y-109769501D01*
X346227881Y-109769500D01*
X346227873Y-109769500D01*
X346227864Y-109769500D01*
X345112129Y-109769500D01*
X345112123Y-109769501D01*
X345052516Y-109775908D01*
X344917671Y-109826202D01*
X344917664Y-109826206D01*
X344802455Y-109912452D01*
X344802452Y-109912455D01*
X344716206Y-110027664D01*
X344716202Y-110027671D01*
X344665908Y-110162517D01*
X344659501Y-110222116D01*
X344659501Y-110222123D01*
X344659500Y-110222135D01*
X344659500Y-113117870D01*
X344659501Y-113117876D01*
X344665908Y-113177483D01*
X344716202Y-113312328D01*
X344716206Y-113312335D01*
X344802452Y-113427544D01*
X344802455Y-113427547D01*
X344917666Y-113513794D01*
X344917667Y-113513794D01*
X344917669Y-113513796D01*
X344963833Y-113531013D01*
X345019765Y-113572882D01*
X345044184Y-113638346D01*
X345044500Y-113647195D01*
X345044500Y-123581691D01*
X345024815Y-123648730D01*
X344972011Y-123694485D01*
X344967954Y-123696252D01*
X344847137Y-123746296D01*
X344707837Y-123839373D01*
X344589373Y-123957837D01*
X344496295Y-124097139D01*
X344432184Y-124251917D01*
X344432182Y-124251925D01*
X344399500Y-124416228D01*
X344399500Y-124450500D01*
X344379815Y-124517539D01*
X344327011Y-124563294D01*
X344275500Y-124574500D01*
X343940452Y-124574500D01*
X343911011Y-124565855D01*
X343881025Y-124559332D01*
X343876009Y-124555577D01*
X343873413Y-124554815D01*
X343852771Y-124538181D01*
X343791819Y-124477229D01*
X343758334Y-124415906D01*
X343755500Y-124389548D01*
X343755500Y-110447195D01*
X343775185Y-110380156D01*
X343827989Y-110334401D01*
X343836145Y-110331021D01*
X343882331Y-110313796D01*
X343899501Y-110300943D01*
X343965192Y-110251766D01*
X343997546Y-110227546D01*
X344083796Y-110112331D01*
X344134091Y-109977483D01*
X344140500Y-109917873D01*
X344140499Y-107022128D01*
X344134091Y-106962517D01*
X344083796Y-106827669D01*
X344083795Y-106827668D01*
X344083793Y-106827664D01*
X343997547Y-106712455D01*
X343997544Y-106712452D01*
X343882335Y-106626206D01*
X343882328Y-106626202D01*
X343747482Y-106575908D01*
X343747483Y-106575908D01*
X343687883Y-106569501D01*
X343687881Y-106569500D01*
X343687873Y-106569500D01*
X343687864Y-106569500D01*
X342572129Y-106569500D01*
X342572123Y-106569501D01*
X342512516Y-106575908D01*
X342377671Y-106626202D01*
X342377664Y-106626206D01*
X342262455Y-106712452D01*
X342262452Y-106712455D01*
X342176206Y-106827664D01*
X342176202Y-106827671D01*
X342125908Y-106962517D01*
X342119501Y-107022116D01*
X342119501Y-107022123D01*
X342119500Y-107022135D01*
X342119500Y-109917870D01*
X342119501Y-109917876D01*
X342125908Y-109977483D01*
X342176202Y-110112328D01*
X342176206Y-110112335D01*
X342262452Y-110227544D01*
X342262455Y-110227547D01*
X342377666Y-110313794D01*
X342377667Y-110313794D01*
X342377669Y-110313796D01*
X342423833Y-110331013D01*
X342479765Y-110372882D01*
X342504184Y-110438346D01*
X342504500Y-110447195D01*
X342504500Y-112852349D01*
X342484815Y-112919388D01*
X342432011Y-112965143D01*
X342362853Y-112975087D01*
X342299297Y-112946062D01*
X342292819Y-112940030D01*
X342292162Y-112939373D01*
X342152860Y-112846295D01*
X341998082Y-112782184D01*
X341998074Y-112782182D01*
X341833771Y-112749500D01*
X341833767Y-112749500D01*
X341724499Y-112749500D01*
X341657460Y-112729815D01*
X341611705Y-112677011D01*
X341600499Y-112625500D01*
X341600499Y-110222129D01*
X341600498Y-110222123D01*
X341600497Y-110222116D01*
X341594091Y-110162517D01*
X341575374Y-110112335D01*
X341543797Y-110027671D01*
X341543793Y-110027664D01*
X341457547Y-109912455D01*
X341457544Y-109912452D01*
X341342335Y-109826206D01*
X341342328Y-109826202D01*
X341207482Y-109775908D01*
X341207483Y-109775908D01*
X341147883Y-109769501D01*
X341147881Y-109769500D01*
X341147873Y-109769500D01*
X341147864Y-109769500D01*
X340032129Y-109769500D01*
X340032123Y-109769501D01*
X339972516Y-109775908D01*
X339837671Y-109826202D01*
X339837664Y-109826206D01*
X339722455Y-109912452D01*
X339722452Y-109912455D01*
X339636206Y-110027664D01*
X339636202Y-110027671D01*
X339585908Y-110162517D01*
X339579501Y-110222116D01*
X339579501Y-110222123D01*
X339579500Y-110222135D01*
X339579500Y-113117870D01*
X339579501Y-113117876D01*
X339585908Y-113177483D01*
X339636202Y-113312328D01*
X339636206Y-113312335D01*
X339722452Y-113427544D01*
X339722453Y-113427544D01*
X339722454Y-113427546D01*
X339751972Y-113449643D01*
X339754097Y-113451234D01*
X339795967Y-113507168D01*
X339800951Y-113576860D01*
X339767465Y-113638182D01*
X339706141Y-113671667D01*
X339679785Y-113674500D01*
X338860452Y-113674500D01*
X338831011Y-113665855D01*
X338801025Y-113659332D01*
X338796009Y-113655577D01*
X338793413Y-113654815D01*
X338772771Y-113638181D01*
X338711819Y-113577229D01*
X338678334Y-113515906D01*
X338675500Y-113489548D01*
X338675500Y-110447195D01*
X338695185Y-110380156D01*
X338747989Y-110334401D01*
X338756145Y-110331021D01*
X338802331Y-110313796D01*
X338819501Y-110300943D01*
X338885192Y-110251766D01*
X338917546Y-110227546D01*
X339003796Y-110112331D01*
X339054091Y-109977483D01*
X339060500Y-109917873D01*
X339060499Y-107022128D01*
X339054091Y-106962517D01*
X339003796Y-106827669D01*
X339003795Y-106827668D01*
X339003793Y-106827664D01*
X338917547Y-106712455D01*
X338917544Y-106712452D01*
X338802335Y-106626206D01*
X338802328Y-106626202D01*
X338667482Y-106575908D01*
X338667483Y-106575908D01*
X338607883Y-106569501D01*
X338607881Y-106569500D01*
X338607873Y-106569500D01*
X338607865Y-106569500D01*
X337900778Y-106569500D01*
X337833739Y-106549815D01*
X337787984Y-106497011D01*
X337778040Y-106427853D01*
X337807065Y-106364297D01*
X337861879Y-106327759D01*
X337925380Y-106306782D01*
X338037574Y-106263504D01*
X338147509Y-106214773D01*
X338254922Y-106160707D01*
X338332381Y-106116826D01*
X338359536Y-106101444D01*
X338359537Y-106101443D01*
X338359538Y-106101442D01*
X338359551Y-106101435D01*
X338461147Y-106037100D01*
X338559463Y-105967858D01*
X338654249Y-105893886D01*
X338654252Y-105893884D01*
X338654257Y-105893879D01*
X338654263Y-105893875D01*
X338745319Y-105815330D01*
X338832411Y-105732411D01*
X338915330Y-105645319D01*
X338993875Y-105554263D01*
X339067858Y-105459463D01*
X339137100Y-105361147D01*
X339201435Y-105259551D01*
X339201443Y-105259537D01*
X339201444Y-105259536D01*
X339216826Y-105232381D01*
X339260707Y-105154922D01*
X339314773Y-105047509D01*
X339363504Y-104937574D01*
X339406782Y-104825380D01*
X339444503Y-104711197D01*
X339476576Y-104595301D01*
X339502923Y-104477971D01*
X339523482Y-104359489D01*
X339538202Y-104240141D01*
X339547048Y-104120215D01*
X339550000Y-104000000D01*
X349250000Y-104000000D01*
X349252951Y-104120215D01*
X349252952Y-104120228D01*
X349261798Y-104240154D01*
X349261798Y-104240157D01*
X349276514Y-104359470D01*
X349276522Y-104359525D01*
X349297077Y-104477979D01*
X349323419Y-104595286D01*
X349323424Y-104595306D01*
X349355498Y-104711205D01*
X349355503Y-104711222D01*
X349393213Y-104825370D01*
X349393218Y-104825384D01*
X349436496Y-104937577D01*
X349485226Y-105047508D01*
X349485239Y-105047535D01*
X349539289Y-105154917D01*
X349539293Y-105154923D01*
X349598554Y-105259536D01*
X349598555Y-105259537D01*
X349662903Y-105361153D01*
X349732148Y-105459473D01*
X349732150Y-105459475D01*
X349806112Y-105554249D01*
X349806114Y-105554252D01*
X349884661Y-105645310D01*
X349884669Y-105645319D01*
X349967588Y-105732411D01*
X350054680Y-105815330D01*
X350054686Y-105815335D01*
X350054688Y-105815337D01*
X350145746Y-105893884D01*
X350145749Y-105893886D01*
X350240523Y-105967848D01*
X350240525Y-105967850D01*
X350240532Y-105967855D01*
X350240536Y-105967858D01*
X350338852Y-106037100D01*
X350440448Y-106101435D01*
X350440461Y-106101443D01*
X350440462Y-106101444D01*
X350498226Y-106134166D01*
X350545077Y-106160707D01*
X350652490Y-106214773D01*
X350762425Y-106263504D01*
X350874619Y-106306782D01*
X350874626Y-106306784D01*
X350874628Y-106306785D01*
X350988776Y-106344495D01*
X350988792Y-106344499D01*
X350988802Y-106344503D01*
X351104698Y-106376576D01*
X351222028Y-106402923D01*
X351282493Y-106413414D01*
X351340473Y-106423476D01*
X351340487Y-106423478D01*
X351340510Y-106423482D01*
X351459858Y-106438202D01*
X351579784Y-106447048D01*
X351700000Y-106450000D01*
X351820215Y-106447048D01*
X351940141Y-106438202D01*
X352059489Y-106423482D01*
X352059516Y-106423477D01*
X352059525Y-106423476D01*
X352093564Y-106417569D01*
X352177971Y-106402923D01*
X352295301Y-106376576D01*
X352411197Y-106344503D01*
X352411214Y-106344497D01*
X352411222Y-106344495D01*
X352463763Y-106327137D01*
X352525380Y-106306782D01*
X352637574Y-106263504D01*
X352747509Y-106214773D01*
X352854922Y-106160707D01*
X352932381Y-106116826D01*
X352959536Y-106101444D01*
X352959537Y-106101443D01*
X352959538Y-106101442D01*
X352959551Y-106101435D01*
X353061147Y-106037100D01*
X353159463Y-105967858D01*
X353254249Y-105893886D01*
X353254252Y-105893884D01*
X353254257Y-105893879D01*
X353254263Y-105893875D01*
X353345319Y-105815330D01*
X353432411Y-105732411D01*
X353515330Y-105645319D01*
X353593875Y-105554263D01*
X353667858Y-105459463D01*
X353737100Y-105361147D01*
X353801435Y-105259551D01*
X353801443Y-105259537D01*
X353801444Y-105259536D01*
X353816826Y-105232381D01*
X353860707Y-105154922D01*
X353914773Y-105047509D01*
X353963504Y-104937574D01*
X354006782Y-104825380D01*
X354044503Y-104711197D01*
X354076576Y-104595301D01*
X354102923Y-104477971D01*
X354123482Y-104359489D01*
X354138202Y-104240141D01*
X354147048Y-104120215D01*
X354150000Y-104000000D01*
X354147048Y-103879784D01*
X354138202Y-103759858D01*
X354123482Y-103640510D01*
X354102923Y-103522028D01*
X354076576Y-103404698D01*
X354044503Y-103288802D01*
X354044499Y-103288792D01*
X354044495Y-103288776D01*
X354006785Y-103174628D01*
X354006780Y-103174614D01*
X353963502Y-103062421D01*
X353914773Y-102952490D01*
X353860707Y-102845077D01*
X353834166Y-102798226D01*
X353801444Y-102740462D01*
X353801443Y-102740461D01*
X353801435Y-102740448D01*
X353737100Y-102638852D01*
X353667858Y-102540536D01*
X353667855Y-102540532D01*
X353667850Y-102540525D01*
X353667848Y-102540523D01*
X353593886Y-102445749D01*
X353593884Y-102445746D01*
X353515337Y-102354688D01*
X353515335Y-102354686D01*
X353515330Y-102354680D01*
X353432411Y-102267588D01*
X353345319Y-102184669D01*
X353345310Y-102184661D01*
X353254252Y-102106114D01*
X353254249Y-102106112D01*
X353159475Y-102032150D01*
X353159473Y-102032148D01*
X353061153Y-101962903D01*
X352959537Y-101898555D01*
X352959536Y-101898554D01*
X352878347Y-101852562D01*
X352854922Y-101839292D01*
X352854919Y-101839290D01*
X352854917Y-101839289D01*
X352747535Y-101785239D01*
X352747531Y-101785237D01*
X352747509Y-101785226D01*
X352684475Y-101757285D01*
X352637577Y-101736496D01*
X352525384Y-101693218D01*
X352525370Y-101693213D01*
X352411222Y-101655503D01*
X352411205Y-101655498D01*
X352295306Y-101623424D01*
X352295286Y-101623419D01*
X352177979Y-101597077D01*
X352059525Y-101576522D01*
X352059470Y-101576514D01*
X351940155Y-101561798D01*
X351887037Y-101557880D01*
X351820215Y-101552951D01*
X351700000Y-101550000D01*
X351699999Y-101550000D01*
X351695664Y-101550106D01*
X351579784Y-101552951D01*
X351579770Y-101552951D01*
X351579770Y-101552952D01*
X351459844Y-101561798D01*
X351459841Y-101561798D01*
X351340528Y-101576514D01*
X351340473Y-101576522D01*
X351222019Y-101597077D01*
X351104712Y-101623419D01*
X351104692Y-101623424D01*
X350988793Y-101655498D01*
X350988776Y-101655503D01*
X350874628Y-101693213D01*
X350874614Y-101693218D01*
X350762421Y-101736496D01*
X350652490Y-101785226D01*
X350652463Y-101785239D01*
X350545081Y-101839289D01*
X350545075Y-101839293D01*
X350440462Y-101898554D01*
X350440461Y-101898555D01*
X350338845Y-101962903D01*
X350240525Y-102032148D01*
X350240523Y-102032150D01*
X350145749Y-102106112D01*
X350145746Y-102106114D01*
X350054688Y-102184661D01*
X349967588Y-102267588D01*
X349884661Y-102354688D01*
X349806114Y-102445746D01*
X349806112Y-102445749D01*
X349732150Y-102540523D01*
X349732148Y-102540525D01*
X349662903Y-102638845D01*
X349598555Y-102740461D01*
X349598554Y-102740462D01*
X349539293Y-102845075D01*
X349539289Y-102845081D01*
X349485239Y-102952463D01*
X349485226Y-102952490D01*
X349436496Y-103062421D01*
X349393218Y-103174614D01*
X349393213Y-103174628D01*
X349355503Y-103288776D01*
X349355498Y-103288793D01*
X349323424Y-103404692D01*
X349323419Y-103404712D01*
X349297077Y-103522019D01*
X349276522Y-103640473D01*
X349276514Y-103640528D01*
X349261798Y-103759841D01*
X349261798Y-103759844D01*
X349261797Y-103759858D01*
X349252951Y-103879784D01*
X349250000Y-104000000D01*
X339550000Y-104000000D01*
X339547048Y-103879784D01*
X339538202Y-103759858D01*
X339523482Y-103640510D01*
X339502923Y-103522028D01*
X339476576Y-103404698D01*
X339444503Y-103288802D01*
X339444499Y-103288792D01*
X339444495Y-103288776D01*
X339406785Y-103174628D01*
X339406780Y-103174614D01*
X339363502Y-103062421D01*
X339314773Y-102952490D01*
X339260707Y-102845077D01*
X339234166Y-102798226D01*
X339201444Y-102740462D01*
X339201443Y-102740461D01*
X339201435Y-102740448D01*
X339137100Y-102638852D01*
X339067858Y-102540536D01*
X339067855Y-102540532D01*
X339067850Y-102540525D01*
X339067848Y-102540523D01*
X338993886Y-102445749D01*
X338993884Y-102445746D01*
X338915337Y-102354688D01*
X338915335Y-102354686D01*
X338915330Y-102354680D01*
X338832411Y-102267588D01*
X338745319Y-102184669D01*
X338745310Y-102184661D01*
X338654252Y-102106114D01*
X338654249Y-102106112D01*
X338559475Y-102032150D01*
X338559473Y-102032148D01*
X338461153Y-101962903D01*
X338359537Y-101898555D01*
X338359536Y-101898554D01*
X338278347Y-101852562D01*
X338254922Y-101839292D01*
X338254919Y-101839290D01*
X338254917Y-101839289D01*
X338147535Y-101785239D01*
X338147531Y-101785237D01*
X338147509Y-101785226D01*
X338084475Y-101757285D01*
X338037577Y-101736496D01*
X337925384Y-101693218D01*
X337925370Y-101693213D01*
X337811222Y-101655503D01*
X337811205Y-101655498D01*
X337695306Y-101623424D01*
X337695286Y-101623419D01*
X337577979Y-101597077D01*
X337459525Y-101576522D01*
X337459470Y-101576514D01*
X337340155Y-101561798D01*
X337287037Y-101557880D01*
X337220215Y-101552951D01*
X337100000Y-101550000D01*
X337099999Y-101550000D01*
X337095664Y-101550106D01*
X336979784Y-101552951D01*
X336979770Y-101552951D01*
X336979770Y-101552952D01*
X336859844Y-101561798D01*
X336859841Y-101561798D01*
X336740528Y-101576514D01*
X336740473Y-101576522D01*
X336622019Y-101597077D01*
X336504712Y-101623419D01*
X336504692Y-101623424D01*
X336388793Y-101655498D01*
X336388776Y-101655503D01*
X336274628Y-101693213D01*
X336274614Y-101693218D01*
X336162421Y-101736496D01*
X336052490Y-101785226D01*
X336052463Y-101785239D01*
X335945081Y-101839289D01*
X335945075Y-101839293D01*
X335840462Y-101898554D01*
X335840461Y-101898555D01*
X335738845Y-101962903D01*
X335640525Y-102032148D01*
X335640523Y-102032150D01*
X335545749Y-102106112D01*
X335545746Y-102106114D01*
X335454688Y-102184661D01*
X335367588Y-102267588D01*
X335284661Y-102354688D01*
X335206114Y-102445746D01*
X335206112Y-102445749D01*
X335132150Y-102540523D01*
X335132148Y-102540525D01*
X335062903Y-102638845D01*
X334998555Y-102740461D01*
X334998554Y-102740462D01*
X334939293Y-102845075D01*
X334939289Y-102845081D01*
X334885239Y-102952463D01*
X334885226Y-102952490D01*
X334836496Y-103062421D01*
X334793218Y-103174614D01*
X334793213Y-103174628D01*
X334755503Y-103288776D01*
X334755498Y-103288793D01*
X334723424Y-103404692D01*
X334723419Y-103404712D01*
X334697077Y-103522019D01*
X334676522Y-103640473D01*
X334676514Y-103640528D01*
X334661798Y-103759841D01*
X334661798Y-103759844D01*
X334661797Y-103759858D01*
X334652951Y-103879784D01*
X334650000Y-104000000D01*
X334652951Y-104120215D01*
X334652952Y-104120228D01*
X334661798Y-104240154D01*
X334661798Y-104240157D01*
X334676514Y-104359470D01*
X334676522Y-104359525D01*
X334697077Y-104477979D01*
X334723419Y-104595286D01*
X334723424Y-104595306D01*
X334755498Y-104711205D01*
X334755503Y-104711222D01*
X334793213Y-104825370D01*
X334793218Y-104825384D01*
X334836496Y-104937577D01*
X334885226Y-105047508D01*
X334885239Y-105047535D01*
X334939289Y-105154917D01*
X334939293Y-105154923D01*
X334998554Y-105259536D01*
X334998555Y-105259537D01*
X335062903Y-105361153D01*
X335132148Y-105459473D01*
X335132150Y-105459475D01*
X335206112Y-105554249D01*
X335206114Y-105554252D01*
X335284661Y-105645310D01*
X335284669Y-105645319D01*
X335367588Y-105732411D01*
X335454680Y-105815330D01*
X335454686Y-105815335D01*
X335454688Y-105815337D01*
X335545746Y-105893884D01*
X335545749Y-105893886D01*
X335640523Y-105967848D01*
X335640525Y-105967850D01*
X335640532Y-105967855D01*
X335640536Y-105967858D01*
X335738852Y-106037100D01*
X335840448Y-106101435D01*
X335840461Y-106101443D01*
X335840462Y-106101444D01*
X335898226Y-106134166D01*
X335945077Y-106160707D01*
X336052490Y-106214773D01*
X336162425Y-106263504D01*
X336274619Y-106306782D01*
X336274626Y-106306784D01*
X336274628Y-106306785D01*
X336388776Y-106344495D01*
X336388792Y-106344499D01*
X336388802Y-106344503D01*
X336504698Y-106376576D01*
X336622028Y-106402923D01*
X336682493Y-106413414D01*
X336740473Y-106423476D01*
X336740487Y-106423478D01*
X336740510Y-106423482D01*
X336859858Y-106438202D01*
X336979784Y-106447048D01*
X337100000Y-106450000D01*
X337159448Y-106448540D01*
X337226947Y-106466571D01*
X337273985Y-106518236D01*
X337285624Y-106587129D01*
X337258169Y-106651378D01*
X337236803Y-106671767D01*
X337182453Y-106712454D01*
X337182452Y-106712455D01*
X337096206Y-106827664D01*
X337096202Y-106827671D01*
X337045908Y-106962517D01*
X337039501Y-107022116D01*
X337039501Y-107022123D01*
X337039500Y-107022135D01*
X337039500Y-109917870D01*
X337039501Y-109917876D01*
X337045908Y-109977483D01*
X337096202Y-110112328D01*
X337096206Y-110112335D01*
X337182452Y-110227544D01*
X337182455Y-110227547D01*
X337297666Y-110313794D01*
X337297667Y-110313794D01*
X337297669Y-110313796D01*
X337343833Y-110331013D01*
X337399765Y-110372882D01*
X337424184Y-110438346D01*
X337424500Y-110447195D01*
X337424500Y-113861606D01*
X337442527Y-113952240D01*
X337448537Y-113982453D01*
X337453584Y-113994638D01*
X337453588Y-113994646D01*
X337455281Y-113998733D01*
X337495688Y-114096286D01*
X337526342Y-114142162D01*
X337530650Y-114148610D01*
X337530653Y-114148615D01*
X337552700Y-114181609D01*
X337573578Y-114248286D01*
X337555094Y-114315666D01*
X337503115Y-114362357D01*
X337449598Y-114374500D01*
X336320452Y-114374500D01*
X336253413Y-114354815D01*
X336232771Y-114338181D01*
X336171819Y-114277229D01*
X336138334Y-114215906D01*
X336135500Y-114189548D01*
X336135500Y-113647195D01*
X336155185Y-113580156D01*
X336207989Y-113534401D01*
X336216145Y-113531021D01*
X336262331Y-113513796D01*
X336377546Y-113427546D01*
X336463796Y-113312331D01*
X336514091Y-113177483D01*
X336520500Y-113117873D01*
X336520499Y-110222128D01*
X336514091Y-110162517D01*
X336495374Y-110112335D01*
X336463797Y-110027671D01*
X336463793Y-110027664D01*
X336377547Y-109912455D01*
X336377544Y-109912452D01*
X336262335Y-109826206D01*
X336262328Y-109826202D01*
X336127482Y-109775908D01*
X336127483Y-109775908D01*
X336067883Y-109769501D01*
X336067881Y-109769500D01*
X336067873Y-109769500D01*
X336067864Y-109769500D01*
X334952129Y-109769500D01*
X334952123Y-109769501D01*
X334892516Y-109775908D01*
X334757671Y-109826202D01*
X334757664Y-109826206D01*
X334642455Y-109912452D01*
X334642452Y-109912455D01*
X334556206Y-110027664D01*
X334556202Y-110027671D01*
X334505908Y-110162517D01*
X334499501Y-110222116D01*
X334499501Y-110222123D01*
X334499500Y-110222135D01*
X334499500Y-113117870D01*
X334499501Y-113117876D01*
X334505908Y-113177483D01*
X334556202Y-113312328D01*
X334556206Y-113312335D01*
X334642452Y-113427544D01*
X334642455Y-113427547D01*
X334757666Y-113513794D01*
X334757667Y-113513794D01*
X334757669Y-113513796D01*
X334803833Y-113531013D01*
X334859765Y-113572882D01*
X334884184Y-113638346D01*
X334884500Y-113647195D01*
X334884500Y-114561606D01*
X334902527Y-114652240D01*
X334908537Y-114682453D01*
X334913584Y-114694638D01*
X334913588Y-114694646D01*
X334915281Y-114698733D01*
X334955688Y-114796286D01*
X334986342Y-114842162D01*
X334990650Y-114848610D01*
X334990653Y-114848615D01*
X335012700Y-114881609D01*
X335033578Y-114948286D01*
X335015094Y-115015666D01*
X334963115Y-115062357D01*
X334909598Y-115074500D01*
X333780452Y-115074500D01*
X333713413Y-115054815D01*
X333692771Y-115038181D01*
X333631819Y-114977229D01*
X333598334Y-114915906D01*
X333595500Y-114889548D01*
X333595500Y-110447195D01*
X333615185Y-110380156D01*
X333667989Y-110334401D01*
X333676145Y-110331021D01*
X333722331Y-110313796D01*
X333739501Y-110300943D01*
X333805192Y-110251766D01*
X333837546Y-110227546D01*
X333923796Y-110112331D01*
X333974091Y-109977483D01*
X333980500Y-109917873D01*
X333980499Y-107022128D01*
X333974091Y-106962517D01*
X333923796Y-106827669D01*
X333923795Y-106827668D01*
X333923793Y-106827664D01*
X333837547Y-106712455D01*
X333837544Y-106712452D01*
X333722335Y-106626206D01*
X333722328Y-106626202D01*
X333587482Y-106575908D01*
X333587483Y-106575908D01*
X333527883Y-106569501D01*
X333527881Y-106569500D01*
X333527873Y-106569500D01*
X333527864Y-106569500D01*
X332412129Y-106569500D01*
X332412123Y-106569501D01*
X332344804Y-106576738D01*
X332344654Y-106575342D01*
X332283244Y-106572050D01*
X332226573Y-106531182D01*
X332200993Y-106466163D01*
X332200500Y-106455114D01*
X332200500Y-101516267D01*
X332200863Y-101506782D01*
X332201133Y-101503258D01*
X332208995Y-101400782D01*
X332212120Y-101381072D01*
X332233299Y-101293723D01*
X332239221Y-101275554D01*
X332273864Y-101191835D01*
X332282708Y-101174470D01*
X332329705Y-101097785D01*
X332341172Y-101082012D01*
X332399948Y-101013266D01*
X332413529Y-100999675D01*
X332481764Y-100941246D01*
X332497688Y-100929669D01*
X332574406Y-100882721D01*
X332591707Y-100873917D01*
X332675056Y-100839428D01*
X332693544Y-100833427D01*
X332781678Y-100812286D01*
X332800853Y-100809249D01*
X332906961Y-100800883D01*
X332916707Y-100800500D01*
X356383292Y-100800500D01*
X356393037Y-100800883D01*
G37*
%TD.AperFunction*%
%TA.AperFunction,Conductor*%
G36*
X322406519Y-132945185D02*
G01*
X322452274Y-132997989D01*
X322462218Y-133067147D01*
X322433193Y-133130703D01*
X322427161Y-133137181D01*
X322360888Y-133203453D01*
X322360887Y-133203454D01*
X322284222Y-133318192D01*
X322231421Y-133445667D01*
X322231418Y-133445677D01*
X322204500Y-133581004D01*
X322204500Y-136099719D01*
X322184815Y-136166758D01*
X322168181Y-136187400D01*
X322100677Y-136254903D01*
X322100674Y-136254907D01*
X321987355Y-136424500D01*
X321987348Y-136424513D01*
X321909295Y-136612951D01*
X321909292Y-136612961D01*
X321869500Y-136813009D01*
X321869500Y-137453080D01*
X321867374Y-137453080D01*
X321856141Y-137512270D01*
X321808069Y-137562974D01*
X321743080Y-137578936D01*
X321743080Y-137579500D01*
X321740786Y-137579500D01*
X321740216Y-137579640D01*
X321738261Y-137579500D01*
X321736988Y-137579500D01*
X321533012Y-137579500D01*
X321533010Y-137579500D01*
X321332961Y-137619292D01*
X321332951Y-137619295D01*
X321144509Y-137697350D01*
X321090220Y-137733624D01*
X321079990Y-137740461D01*
X321068891Y-137747877D01*
X321002213Y-137768755D01*
X320934833Y-137750270D01*
X320931109Y-137747877D01*
X320920010Y-137740461D01*
X320855493Y-137697352D01*
X320855492Y-137697351D01*
X320855490Y-137697350D01*
X320667048Y-137619295D01*
X320667038Y-137619292D01*
X320466990Y-137579500D01*
X320466988Y-137579500D01*
X320263012Y-137579500D01*
X320256920Y-137579500D01*
X320256920Y-137577375D01*
X320197725Y-137566139D01*
X320147022Y-137518065D01*
X320131063Y-137453080D01*
X320130500Y-137453080D01*
X320130500Y-137450786D01*
X320130359Y-137450212D01*
X320130500Y-137448247D01*
X320130500Y-136813009D01*
X320090707Y-136612961D01*
X320090706Y-136612960D01*
X320090706Y-136612956D01*
X320075615Y-136576522D01*
X320012651Y-136424513D01*
X320012644Y-136424500D01*
X319899325Y-136254907D01*
X319899322Y-136254903D01*
X319756819Y-136112400D01*
X319723334Y-136051077D01*
X319720500Y-136024719D01*
X319720500Y-133110452D01*
X319729144Y-133081011D01*
X319735668Y-133051025D01*
X319739422Y-133046009D01*
X319740185Y-133043413D01*
X319756819Y-133022771D01*
X319817771Y-132961819D01*
X319879094Y-132928334D01*
X319905452Y-132925500D01*
X322339480Y-132925500D01*
X322406519Y-132945185D01*
G37*
%TD.AperFunction*%
%TA.AperFunction,Conductor*%
G36*
X327031343Y-133853677D02*
G01*
X327042561Y-133852474D01*
X327064270Y-133863346D01*
X327087560Y-133870185D01*
X327094945Y-133878708D01*
X327105034Y-133883761D01*
X327117419Y-133904644D01*
X327133315Y-133922989D01*
X327134920Y-133934153D01*
X327140675Y-133943857D01*
X327139803Y-133968117D01*
X327143259Y-133992147D01*
X327138572Y-134002408D01*
X327138168Y-134013682D01*
X327124318Y-134033620D01*
X327114234Y-134055703D01*
X327104743Y-134061801D01*
X327098309Y-134071066D01*
X327067952Y-134089070D01*
X327056678Y-134093737D01*
X327032548Y-134098537D01*
X326985397Y-134118067D01*
X326918715Y-134145688D01*
X326918714Y-134145689D01*
X326898401Y-134159261D01*
X326898395Y-134159264D01*
X326816268Y-134214140D01*
X326772705Y-134257703D01*
X326729142Y-134301267D01*
X326319082Y-134711326D01*
X326319074Y-134711334D01*
X326316270Y-134714139D01*
X326316267Y-134714142D01*
X326229142Y-134801267D01*
X326199461Y-134845688D01*
X326194896Y-134852518D01*
X326194892Y-134852524D01*
X326160690Y-134903710D01*
X326160690Y-134903711D01*
X326160688Y-134903714D01*
X326142311Y-134948082D01*
X326113538Y-135017545D01*
X326113535Y-135017555D01*
X326089500Y-135138389D01*
X326089500Y-135875564D01*
X326069815Y-135942603D01*
X326017011Y-135988358D01*
X325947853Y-135998302D01*
X325918048Y-135990125D01*
X325747048Y-135919295D01*
X325747038Y-135919292D01*
X325546990Y-135879500D01*
X325546988Y-135879500D01*
X325343012Y-135879500D01*
X325343010Y-135879500D01*
X325142961Y-135919292D01*
X325142951Y-135919295D01*
X324954513Y-135997348D01*
X324954500Y-135997355D01*
X324784907Y-136110674D01*
X324784903Y-136110677D01*
X324640677Y-136254903D01*
X324640674Y-136254907D01*
X324527355Y-136424500D01*
X324527348Y-136424513D01*
X324449295Y-136612951D01*
X324449292Y-136612961D01*
X324409500Y-136813009D01*
X324409500Y-137453080D01*
X324407374Y-137453080D01*
X324406352Y-137458461D01*
X324408502Y-137473411D01*
X324399970Y-137492093D01*
X324396141Y-137512270D01*
X324385750Y-137523228D01*
X324379477Y-137536967D01*
X324362197Y-137548071D01*
X324348069Y-137562974D01*
X324332466Y-137567178D01*
X324320699Y-137574741D01*
X324295668Y-137577095D01*
X324285764Y-137579764D01*
X324278315Y-137579764D01*
X324276988Y-137579500D01*
X324073012Y-137579500D01*
X324071685Y-137579764D01*
X324064235Y-137579764D01*
X324036317Y-137571566D01*
X324007725Y-137566139D01*
X324003189Y-137561839D01*
X323997196Y-137560079D01*
X323978143Y-137538091D01*
X323957022Y-137518065D01*
X323955531Y-137511995D01*
X323951441Y-137507275D01*
X323947300Y-137478477D01*
X323941063Y-137453080D01*
X323940500Y-137453080D01*
X323940500Y-137450786D01*
X323940359Y-137450212D01*
X323940500Y-137448247D01*
X323940500Y-136813009D01*
X323900707Y-136612961D01*
X323900706Y-136612960D01*
X323900706Y-136612956D01*
X323885615Y-136576522D01*
X323822651Y-136424513D01*
X323822644Y-136424500D01*
X323709325Y-136254907D01*
X323709322Y-136254903D01*
X323641819Y-136187400D01*
X323608334Y-136126077D01*
X323605500Y-136099719D01*
X323605500Y-133991519D01*
X323625185Y-133924480D01*
X323641819Y-133903838D01*
X323658838Y-133886819D01*
X323720161Y-133853334D01*
X323746519Y-133850500D01*
X327020521Y-133850500D01*
X327031343Y-133853677D01*
G37*
%TD.AperFunction*%
%TD*%
M02*
