%TF.GenerationSoftware,KiCad,Pcbnew,9.0.9-9.0.9~ubuntu24.04.1*%
%TF.CreationDate,2026-10-04T15:05:00+00:00*%
%TF.ProjectId,main-board,6d61696e-2d62-46f6-9172-642e6b696361,A*%
%TF.SameCoordinates,Original*%
%TF.FileFunction,Profile,NP*%
%FSLAX46Y46*%
G04 Gerber Fmt 4.6, Leading zero omitted, Abs format (unit mm)*
G04 Created by KiCad (PCBNEW 9.0.9-9.0.9~ubuntu24.04.1) date 2026-10-04 15:05:00*
%MOMM*%
%LPD*%
G01*
G04 APERTURE LIST*
%TA.AperFunction,Profile*%
%ADD10C,0.100000*%
%TD*%
G04 APERTURE END LIST*
D10*
X67500000Y-100500000D02*
X67500000Y-142500000D01*
X67500000Y-142500000D02*
X359900000Y-142500000D01*
X80289999Y-106150000D02*
X80296100Y-106071800D01*
X80289999Y-110450000D02*
X80289999Y-106150000D01*
X80296100Y-106071800D02*
X80314500Y-105995500D01*
X80296100Y-110528200D02*
X80289999Y-110450000D01*
X80314500Y-105995500D02*
X80344500Y-105923000D01*
X80314500Y-110604500D02*
X80296100Y-110528200D01*
X80344500Y-105923000D02*
X80385500Y-105856100D01*
X80344500Y-110676999D02*
X80314500Y-110604500D01*
X80385500Y-105856100D02*
X80436399Y-105796500D01*
X80385500Y-110743900D02*
X80344500Y-110676999D01*
X80436399Y-105796500D02*
X80496100Y-105745500D01*
X80436399Y-110803600D02*
X80385500Y-110743900D01*
X80496100Y-105745500D02*
X80563000Y-105704500D01*
X80496100Y-110854500D02*
X80436399Y-110803600D01*
X80563000Y-105704500D02*
X80635500Y-105674500D01*
X80563000Y-110895500D02*
X80496100Y-110854500D01*
X80635500Y-105674500D02*
X80711800Y-105656200D01*
X80635500Y-110925500D02*
X80563000Y-110895500D01*
X80711800Y-105656200D02*
X80789999Y-105650000D01*
X80711800Y-110943900D02*
X80635500Y-110925500D01*
X80789999Y-105650000D02*
X88390000Y-105650000D01*
X80789999Y-110950000D02*
X80711800Y-110943900D01*
X88390000Y-105650000D02*
X88468200Y-105656200D01*
X88390000Y-110950000D02*
X80789999Y-110950000D01*
X88468200Y-105656200D02*
X88544500Y-105674500D01*
X88468200Y-110943900D02*
X88390000Y-110950000D01*
X88544500Y-105674500D02*
X88617000Y-105704500D01*
X88544500Y-110925500D02*
X88468200Y-110943900D01*
X88617000Y-105704500D02*
X88683900Y-105745500D01*
X88617000Y-110895500D02*
X88544500Y-110925500D01*
X88683900Y-105745500D02*
X88743500Y-105796500D01*
X88683900Y-110854500D02*
X88617000Y-110895500D01*
X88743500Y-105796500D02*
X88794500Y-105856100D01*
X88743500Y-110803600D02*
X88683900Y-110854500D01*
X88794500Y-105856100D02*
X88835500Y-105923000D01*
X88794500Y-110743900D02*
X88743500Y-110803600D01*
X88835500Y-105923000D02*
X88865500Y-105995500D01*
X88835500Y-110676999D02*
X88794500Y-110743900D01*
X88865500Y-105995500D02*
X88883800Y-106071800D01*
X88865500Y-110604500D02*
X88835500Y-110676999D01*
X88883800Y-106071800D02*
X88890000Y-106150000D01*
X88883800Y-110528200D02*
X88865500Y-110604500D01*
X88890000Y-106150000D02*
X88890000Y-110450000D01*
X88890000Y-110450000D02*
X88883800Y-110528200D01*
X191000000Y-111500000D02*
X191025000Y-111187100D01*
X191000000Y-131500000D02*
X191025000Y-131187099D01*
X191025000Y-111187100D02*
X191098000Y-110882000D01*
X191025000Y-111812900D02*
X191000000Y-111500000D01*
X191025000Y-131187099D02*
X191098000Y-130882000D01*
X191025000Y-131812900D02*
X191000000Y-131500000D01*
X191098000Y-110882000D02*
X191218000Y-110592000D01*
X191098000Y-112118000D02*
X191025000Y-111812900D01*
X191098000Y-130882000D02*
X191218000Y-130591999D01*
X191098000Y-132118000D02*
X191025000Y-131812900D01*
X191218000Y-110592000D02*
X191382000Y-110324400D01*
X191218000Y-112408000D02*
X191098000Y-112118000D01*
X191218000Y-130591999D02*
X191382000Y-130324400D01*
X191218000Y-132408000D02*
X191098000Y-132118000D01*
X191382000Y-110324400D02*
X191586000Y-110085800D01*
X191382000Y-112675600D02*
X191218000Y-112408000D01*
X191382000Y-130324400D02*
X191586000Y-130085800D01*
X191382000Y-132675600D02*
X191218000Y-132408000D01*
X191586000Y-110085800D02*
X191824000Y-109882000D01*
X191586000Y-112914200D02*
X191382000Y-112675600D01*
X191586000Y-130085800D02*
X191824000Y-129882000D01*
X191586000Y-132914200D02*
X191382000Y-132675600D01*
X191824000Y-109882000D02*
X192092000Y-109718000D01*
X191824000Y-113118000D02*
X191586000Y-112914200D01*
X191824000Y-129882000D02*
X192092000Y-129717999D01*
X191824000Y-133118000D02*
X191586000Y-132914200D01*
X192092000Y-109718000D02*
X192382000Y-109597900D01*
X192092000Y-113282000D02*
X191824000Y-113118000D01*
X192092000Y-129717999D02*
X192382000Y-129597900D01*
X192092000Y-133282000D02*
X191824000Y-133118000D01*
X192382000Y-109597900D02*
X192687000Y-109524599D01*
X192382000Y-113402099D02*
X192092000Y-113282000D01*
X192382000Y-129597900D02*
X192687000Y-129524599D01*
X192382000Y-133402099D02*
X192092000Y-133282000D01*
X192687000Y-109524599D02*
X193000000Y-109500000D01*
X192687000Y-113475400D02*
X192382000Y-113402099D01*
X192687000Y-129524599D02*
X193000000Y-129500000D01*
X192687000Y-133475400D02*
X192382000Y-133402099D01*
X193000000Y-109500000D02*
X193313000Y-109524599D01*
X193000000Y-113500000D02*
X192687000Y-113475400D01*
X193000000Y-129500000D02*
X193313000Y-129524599D01*
X193000000Y-133500000D02*
X192687000Y-133475400D01*
X193313000Y-109524599D02*
X193618000Y-109597900D01*
X193313000Y-113475400D02*
X193000000Y-113500000D01*
X193313000Y-129524599D02*
X193618000Y-129597900D01*
X193313000Y-133475400D02*
X193000000Y-133500000D01*
X193618000Y-109597900D02*
X193908000Y-109718000D01*
X193618000Y-113402099D02*
X193313000Y-113475400D01*
X193618000Y-129597900D02*
X193908000Y-129717999D01*
X193618000Y-133402099D02*
X193313000Y-133475400D01*
X193908000Y-109718000D02*
X194176000Y-109882000D01*
X193908000Y-113282000D02*
X193618000Y-113402099D01*
X193908000Y-129717999D02*
X194176000Y-129882000D01*
X193908000Y-133282000D02*
X193618000Y-133402099D01*
X194176000Y-109882000D02*
X194414000Y-110085800D01*
X194176000Y-113118000D02*
X193908000Y-113282000D01*
X194176000Y-129882000D02*
X194414000Y-130085800D01*
X194176000Y-133118000D02*
X193908000Y-133282000D01*
X194414000Y-110085800D02*
X194618000Y-110324400D01*
X194414000Y-112914200D02*
X194176000Y-113118000D01*
X194414000Y-130085800D02*
X194618000Y-130324400D01*
X194414000Y-132914200D02*
X194176000Y-133118000D01*
X194618000Y-110324400D02*
X194782000Y-110592000D01*
X194618000Y-112675600D02*
X194414000Y-112914200D01*
X194618000Y-130324400D02*
X194782000Y-130591999D01*
X194618000Y-132675600D02*
X194414000Y-132914200D01*
X194782000Y-110592000D02*
X194902000Y-110882000D01*
X194782000Y-112408000D02*
X194618000Y-112675600D01*
X194782000Y-130591999D02*
X194902000Y-130882000D01*
X194782000Y-132408000D02*
X194618000Y-132675600D01*
X194902000Y-110882000D02*
X194975000Y-111187100D01*
X194902000Y-112118000D02*
X194782000Y-112408000D01*
X194902000Y-130882000D02*
X194975000Y-131187099D01*
X194902000Y-132118000D02*
X194782000Y-132408000D01*
X194975000Y-111187100D02*
X195000000Y-111500000D01*
X194975000Y-111812900D02*
X194902000Y-112118000D01*
X194975000Y-131187099D02*
X195000000Y-131500000D01*
X194975000Y-131812900D02*
X194902000Y-132118000D01*
X195000000Y-111500000D02*
X194975000Y-111812900D01*
X195000000Y-131500000D02*
X194975000Y-131812900D01*
X359900000Y-100500000D02*
X67500000Y-100500000D01*
X359900000Y-142500000D02*
X359900000Y-100500000D01*
M02*
