%TF.GenerationSoftware,KiCad,Pcbnew,9.0.9-9.0.9~ubuntu24.04.1*%
%TF.CreationDate,2026-10-01T07:55:24+00:00*%
%TF.ProjectId,main-board,6d61696e-2d62-46f6-9172-642e6b696361,A*%
%TF.SameCoordinates,Original*%
%TF.FileFunction,Legend,Top*%
%TF.FilePolarity,Positive*%
%FSLAX46Y46*%
G04 Gerber Fmt 4.6, Leading zero omitted, Abs format (unit mm)*
G04 Created by KiCad (PCBNEW 9.0.9-9.0.9~ubuntu24.04.1) date 2026-10-01 07:55:24*
%MOMM*%
%LPD*%
G01*
G04 APERTURE LIST*
%ADD10C,0.180000*%
%ADD11C,0.150000*%
%ADD12C,0.375000*%
G04 APERTURE END LIST*
D10*
X160261278Y-103953259D02*
X160499373Y-104953259D01*
X160499373Y-104953259D02*
X160689849Y-104238973D01*
X160689849Y-104238973D02*
X160880325Y-104953259D01*
X160880325Y-104953259D02*
X161118421Y-103953259D01*
X161689849Y-103953259D02*
X161880325Y-103953259D01*
X161880325Y-103953259D02*
X161975563Y-104000878D01*
X161975563Y-104000878D02*
X162070801Y-104096116D01*
X162070801Y-104096116D02*
X162118420Y-104286592D01*
X162118420Y-104286592D02*
X162118420Y-104619925D01*
X162118420Y-104619925D02*
X162070801Y-104810401D01*
X162070801Y-104810401D02*
X161975563Y-104905640D01*
X161975563Y-104905640D02*
X161880325Y-104953259D01*
X161880325Y-104953259D02*
X161689849Y-104953259D01*
X161689849Y-104953259D02*
X161594611Y-104905640D01*
X161594611Y-104905640D02*
X161499373Y-104810401D01*
X161499373Y-104810401D02*
X161451754Y-104619925D01*
X161451754Y-104619925D02*
X161451754Y-104286592D01*
X161451754Y-104286592D02*
X161499373Y-104096116D01*
X161499373Y-104096116D02*
X161594611Y-104000878D01*
X161594611Y-104000878D02*
X161689849Y-103953259D01*
X162737468Y-103953259D02*
X162927944Y-103953259D01*
X162927944Y-103953259D02*
X163023182Y-104000878D01*
X163023182Y-104000878D02*
X163118420Y-104096116D01*
X163118420Y-104096116D02*
X163166039Y-104286592D01*
X163166039Y-104286592D02*
X163166039Y-104619925D01*
X163166039Y-104619925D02*
X163118420Y-104810401D01*
X163118420Y-104810401D02*
X163023182Y-104905640D01*
X163023182Y-104905640D02*
X162927944Y-104953259D01*
X162927944Y-104953259D02*
X162737468Y-104953259D01*
X162737468Y-104953259D02*
X162642230Y-104905640D01*
X162642230Y-104905640D02*
X162546992Y-104810401D01*
X162546992Y-104810401D02*
X162499373Y-104619925D01*
X162499373Y-104619925D02*
X162499373Y-104286592D01*
X162499373Y-104286592D02*
X162546992Y-104096116D01*
X162546992Y-104096116D02*
X162642230Y-104000878D01*
X162642230Y-104000878D02*
X162737468Y-103953259D01*
X163594611Y-104953259D02*
X163594611Y-103953259D01*
X163594611Y-103953259D02*
X163832706Y-103953259D01*
X163832706Y-103953259D02*
X163975563Y-104000878D01*
X163975563Y-104000878D02*
X164070801Y-104096116D01*
X164070801Y-104096116D02*
X164118420Y-104191354D01*
X164118420Y-104191354D02*
X164166039Y-104381830D01*
X164166039Y-104381830D02*
X164166039Y-104524687D01*
X164166039Y-104524687D02*
X164118420Y-104715163D01*
X164118420Y-104715163D02*
X164070801Y-104810401D01*
X164070801Y-104810401D02*
X163975563Y-104905640D01*
X163975563Y-104905640D02*
X163832706Y-104953259D01*
X163832706Y-104953259D02*
X163594611Y-104953259D01*
X164785087Y-104477068D02*
X164785087Y-104953259D01*
X164451754Y-103953259D02*
X164785087Y-104477068D01*
X164785087Y-104477068D02*
X165118420Y-103953259D01*
X166213659Y-104953259D02*
X166213659Y-104286592D01*
X166213659Y-104381830D02*
X166261278Y-104334211D01*
X166261278Y-104334211D02*
X166356516Y-104286592D01*
X166356516Y-104286592D02*
X166499373Y-104286592D01*
X166499373Y-104286592D02*
X166594611Y-104334211D01*
X166594611Y-104334211D02*
X166642230Y-104429449D01*
X166642230Y-104429449D02*
X166642230Y-104953259D01*
X166642230Y-104429449D02*
X166689849Y-104334211D01*
X166689849Y-104334211D02*
X166785087Y-104286592D01*
X166785087Y-104286592D02*
X166927944Y-104286592D01*
X166927944Y-104286592D02*
X167023183Y-104334211D01*
X167023183Y-104334211D02*
X167070802Y-104429449D01*
X167070802Y-104429449D02*
X167070802Y-104953259D01*
X167975563Y-104953259D02*
X167975563Y-104429449D01*
X167975563Y-104429449D02*
X167927944Y-104334211D01*
X167927944Y-104334211D02*
X167832706Y-104286592D01*
X167832706Y-104286592D02*
X167642230Y-104286592D01*
X167642230Y-104286592D02*
X167546992Y-104334211D01*
X167975563Y-104905640D02*
X167880325Y-104953259D01*
X167880325Y-104953259D02*
X167642230Y-104953259D01*
X167642230Y-104953259D02*
X167546992Y-104905640D01*
X167546992Y-104905640D02*
X167499373Y-104810401D01*
X167499373Y-104810401D02*
X167499373Y-104715163D01*
X167499373Y-104715163D02*
X167546992Y-104619925D01*
X167546992Y-104619925D02*
X167642230Y-104572306D01*
X167642230Y-104572306D02*
X167880325Y-104572306D01*
X167880325Y-104572306D02*
X167975563Y-104524687D01*
X168451754Y-104953259D02*
X168451754Y-104286592D01*
X168451754Y-103953259D02*
X168404135Y-104000878D01*
X168404135Y-104000878D02*
X168451754Y-104048497D01*
X168451754Y-104048497D02*
X168499373Y-104000878D01*
X168499373Y-104000878D02*
X168451754Y-103953259D01*
X168451754Y-103953259D02*
X168451754Y-104048497D01*
X168927944Y-104286592D02*
X168927944Y-104953259D01*
X168927944Y-104381830D02*
X168975563Y-104334211D01*
X168975563Y-104334211D02*
X169070801Y-104286592D01*
X169070801Y-104286592D02*
X169213658Y-104286592D01*
X169213658Y-104286592D02*
X169308896Y-104334211D01*
X169308896Y-104334211D02*
X169356515Y-104429449D01*
X169356515Y-104429449D02*
X169356515Y-104953259D01*
X170594611Y-104953259D02*
X170594611Y-103953259D01*
X170594611Y-104334211D02*
X170689849Y-104286592D01*
X170689849Y-104286592D02*
X170880325Y-104286592D01*
X170880325Y-104286592D02*
X170975563Y-104334211D01*
X170975563Y-104334211D02*
X171023182Y-104381830D01*
X171023182Y-104381830D02*
X171070801Y-104477068D01*
X171070801Y-104477068D02*
X171070801Y-104762782D01*
X171070801Y-104762782D02*
X171023182Y-104858020D01*
X171023182Y-104858020D02*
X170975563Y-104905640D01*
X170975563Y-104905640D02*
X170880325Y-104953259D01*
X170880325Y-104953259D02*
X170689849Y-104953259D01*
X170689849Y-104953259D02*
X170594611Y-104905640D01*
X171642230Y-104953259D02*
X171546992Y-104905640D01*
X171546992Y-104905640D02*
X171499373Y-104858020D01*
X171499373Y-104858020D02*
X171451754Y-104762782D01*
X171451754Y-104762782D02*
X171451754Y-104477068D01*
X171451754Y-104477068D02*
X171499373Y-104381830D01*
X171499373Y-104381830D02*
X171546992Y-104334211D01*
X171546992Y-104334211D02*
X171642230Y-104286592D01*
X171642230Y-104286592D02*
X171785087Y-104286592D01*
X171785087Y-104286592D02*
X171880325Y-104334211D01*
X171880325Y-104334211D02*
X171927944Y-104381830D01*
X171927944Y-104381830D02*
X171975563Y-104477068D01*
X171975563Y-104477068D02*
X171975563Y-104762782D01*
X171975563Y-104762782D02*
X171927944Y-104858020D01*
X171927944Y-104858020D02*
X171880325Y-104905640D01*
X171880325Y-104905640D02*
X171785087Y-104953259D01*
X171785087Y-104953259D02*
X171642230Y-104953259D01*
X172832706Y-104953259D02*
X172832706Y-104429449D01*
X172832706Y-104429449D02*
X172785087Y-104334211D01*
X172785087Y-104334211D02*
X172689849Y-104286592D01*
X172689849Y-104286592D02*
X172499373Y-104286592D01*
X172499373Y-104286592D02*
X172404135Y-104334211D01*
X172832706Y-104905640D02*
X172737468Y-104953259D01*
X172737468Y-104953259D02*
X172499373Y-104953259D01*
X172499373Y-104953259D02*
X172404135Y-104905640D01*
X172404135Y-104905640D02*
X172356516Y-104810401D01*
X172356516Y-104810401D02*
X172356516Y-104715163D01*
X172356516Y-104715163D02*
X172404135Y-104619925D01*
X172404135Y-104619925D02*
X172499373Y-104572306D01*
X172499373Y-104572306D02*
X172737468Y-104572306D01*
X172737468Y-104572306D02*
X172832706Y-104524687D01*
X173308897Y-104953259D02*
X173308897Y-104286592D01*
X173308897Y-104477068D02*
X173356516Y-104381830D01*
X173356516Y-104381830D02*
X173404135Y-104334211D01*
X173404135Y-104334211D02*
X173499373Y-104286592D01*
X173499373Y-104286592D02*
X173594611Y-104286592D01*
X174356516Y-104953259D02*
X174356516Y-103953259D01*
X174356516Y-104905640D02*
X174261278Y-104953259D01*
X174261278Y-104953259D02*
X174070802Y-104953259D01*
X174070802Y-104953259D02*
X173975564Y-104905640D01*
X173975564Y-104905640D02*
X173927945Y-104858020D01*
X173927945Y-104858020D02*
X173880326Y-104762782D01*
X173880326Y-104762782D02*
X173880326Y-104477068D01*
X173880326Y-104477068D02*
X173927945Y-104381830D01*
X173927945Y-104381830D02*
X173975564Y-104334211D01*
X173975564Y-104334211D02*
X174070802Y-104286592D01*
X174070802Y-104286592D02*
X174261278Y-104286592D01*
X174261278Y-104286592D02*
X174356516Y-104334211D01*
X160356516Y-106753259D02*
X160356516Y-106086592D01*
X160356516Y-106277068D02*
X160404135Y-106181830D01*
X160404135Y-106181830D02*
X160451754Y-106134211D01*
X160451754Y-106134211D02*
X160546992Y-106086592D01*
X160546992Y-106086592D02*
X160642230Y-106086592D01*
X161356516Y-106705640D02*
X161261278Y-106753259D01*
X161261278Y-106753259D02*
X161070802Y-106753259D01*
X161070802Y-106753259D02*
X160975564Y-106705640D01*
X160975564Y-106705640D02*
X160927945Y-106610401D01*
X160927945Y-106610401D02*
X160927945Y-106229449D01*
X160927945Y-106229449D02*
X160975564Y-106134211D01*
X160975564Y-106134211D02*
X161070802Y-106086592D01*
X161070802Y-106086592D02*
X161261278Y-106086592D01*
X161261278Y-106086592D02*
X161356516Y-106134211D01*
X161356516Y-106134211D02*
X161404135Y-106229449D01*
X161404135Y-106229449D02*
X161404135Y-106324687D01*
X161404135Y-106324687D02*
X160927945Y-106419925D01*
X161737469Y-106086592D02*
X161975564Y-106753259D01*
X161975564Y-106753259D02*
X162213659Y-106086592D01*
X163308898Y-106467544D02*
X163785088Y-106467544D01*
X163213660Y-106753259D02*
X163546993Y-105753259D01*
X163546993Y-105753259D02*
X163880326Y-106753259D01*
X165689851Y-105848497D02*
X165737470Y-105800878D01*
X165737470Y-105800878D02*
X165832708Y-105753259D01*
X165832708Y-105753259D02*
X166070803Y-105753259D01*
X166070803Y-105753259D02*
X166166041Y-105800878D01*
X166166041Y-105800878D02*
X166213660Y-105848497D01*
X166213660Y-105848497D02*
X166261279Y-105943735D01*
X166261279Y-105943735D02*
X166261279Y-106038973D01*
X166261279Y-106038973D02*
X166213660Y-106181830D01*
X166213660Y-106181830D02*
X165642232Y-106753259D01*
X165642232Y-106753259D02*
X166261279Y-106753259D01*
X166880327Y-105753259D02*
X166975565Y-105753259D01*
X166975565Y-105753259D02*
X167070803Y-105800878D01*
X167070803Y-105800878D02*
X167118422Y-105848497D01*
X167118422Y-105848497D02*
X167166041Y-105943735D01*
X167166041Y-105943735D02*
X167213660Y-106134211D01*
X167213660Y-106134211D02*
X167213660Y-106372306D01*
X167213660Y-106372306D02*
X167166041Y-106562782D01*
X167166041Y-106562782D02*
X167118422Y-106658020D01*
X167118422Y-106658020D02*
X167070803Y-106705640D01*
X167070803Y-106705640D02*
X166975565Y-106753259D01*
X166975565Y-106753259D02*
X166880327Y-106753259D01*
X166880327Y-106753259D02*
X166785089Y-106705640D01*
X166785089Y-106705640D02*
X166737470Y-106658020D01*
X166737470Y-106658020D02*
X166689851Y-106562782D01*
X166689851Y-106562782D02*
X166642232Y-106372306D01*
X166642232Y-106372306D02*
X166642232Y-106134211D01*
X166642232Y-106134211D02*
X166689851Y-105943735D01*
X166689851Y-105943735D02*
X166737470Y-105848497D01*
X166737470Y-105848497D02*
X166785089Y-105800878D01*
X166785089Y-105800878D02*
X166880327Y-105753259D01*
X167594613Y-105848497D02*
X167642232Y-105800878D01*
X167642232Y-105800878D02*
X167737470Y-105753259D01*
X167737470Y-105753259D02*
X167975565Y-105753259D01*
X167975565Y-105753259D02*
X168070803Y-105800878D01*
X168070803Y-105800878D02*
X168118422Y-105848497D01*
X168118422Y-105848497D02*
X168166041Y-105943735D01*
X168166041Y-105943735D02*
X168166041Y-106038973D01*
X168166041Y-106038973D02*
X168118422Y-106181830D01*
X168118422Y-106181830D02*
X167546994Y-106753259D01*
X167546994Y-106753259D02*
X168166041Y-106753259D01*
X169023184Y-105753259D02*
X168832708Y-105753259D01*
X168832708Y-105753259D02*
X168737470Y-105800878D01*
X168737470Y-105800878D02*
X168689851Y-105848497D01*
X168689851Y-105848497D02*
X168594613Y-105991354D01*
X168594613Y-105991354D02*
X168546994Y-106181830D01*
X168546994Y-106181830D02*
X168546994Y-106562782D01*
X168546994Y-106562782D02*
X168594613Y-106658020D01*
X168594613Y-106658020D02*
X168642232Y-106705640D01*
X168642232Y-106705640D02*
X168737470Y-106753259D01*
X168737470Y-106753259D02*
X168927946Y-106753259D01*
X168927946Y-106753259D02*
X169023184Y-106705640D01*
X169023184Y-106705640D02*
X169070803Y-106658020D01*
X169070803Y-106658020D02*
X169118422Y-106562782D01*
X169118422Y-106562782D02*
X169118422Y-106324687D01*
X169118422Y-106324687D02*
X169070803Y-106229449D01*
X169070803Y-106229449D02*
X169023184Y-106181830D01*
X169023184Y-106181830D02*
X168927946Y-106134211D01*
X168927946Y-106134211D02*
X168737470Y-106134211D01*
X168737470Y-106134211D02*
X168642232Y-106181830D01*
X168642232Y-106181830D02*
X168594613Y-106229449D01*
X168594613Y-106229449D02*
X168546994Y-106324687D01*
X169546994Y-106372306D02*
X170308899Y-106372306D01*
X170975565Y-105753259D02*
X171070803Y-105753259D01*
X171070803Y-105753259D02*
X171166041Y-105800878D01*
X171166041Y-105800878D02*
X171213660Y-105848497D01*
X171213660Y-105848497D02*
X171261279Y-105943735D01*
X171261279Y-105943735D02*
X171308898Y-106134211D01*
X171308898Y-106134211D02*
X171308898Y-106372306D01*
X171308898Y-106372306D02*
X171261279Y-106562782D01*
X171261279Y-106562782D02*
X171213660Y-106658020D01*
X171213660Y-106658020D02*
X171166041Y-106705640D01*
X171166041Y-106705640D02*
X171070803Y-106753259D01*
X171070803Y-106753259D02*
X170975565Y-106753259D01*
X170975565Y-106753259D02*
X170880327Y-106705640D01*
X170880327Y-106705640D02*
X170832708Y-106658020D01*
X170832708Y-106658020D02*
X170785089Y-106562782D01*
X170785089Y-106562782D02*
X170737470Y-106372306D01*
X170737470Y-106372306D02*
X170737470Y-106134211D01*
X170737470Y-106134211D02*
X170785089Y-105943735D01*
X170785089Y-105943735D02*
X170832708Y-105848497D01*
X170832708Y-105848497D02*
X170880327Y-105800878D01*
X170880327Y-105800878D02*
X170975565Y-105753259D01*
X171785089Y-106753259D02*
X171975565Y-106753259D01*
X171975565Y-106753259D02*
X172070803Y-106705640D01*
X172070803Y-106705640D02*
X172118422Y-106658020D01*
X172118422Y-106658020D02*
X172213660Y-106515163D01*
X172213660Y-106515163D02*
X172261279Y-106324687D01*
X172261279Y-106324687D02*
X172261279Y-105943735D01*
X172261279Y-105943735D02*
X172213660Y-105848497D01*
X172213660Y-105848497D02*
X172166041Y-105800878D01*
X172166041Y-105800878D02*
X172070803Y-105753259D01*
X172070803Y-105753259D02*
X171880327Y-105753259D01*
X171880327Y-105753259D02*
X171785089Y-105800878D01*
X171785089Y-105800878D02*
X171737470Y-105848497D01*
X171737470Y-105848497D02*
X171689851Y-105943735D01*
X171689851Y-105943735D02*
X171689851Y-106181830D01*
X171689851Y-106181830D02*
X171737470Y-106277068D01*
X171737470Y-106277068D02*
X171785089Y-106324687D01*
X171785089Y-106324687D02*
X171880327Y-106372306D01*
X171880327Y-106372306D02*
X172070803Y-106372306D01*
X172070803Y-106372306D02*
X172166041Y-106324687D01*
X172166041Y-106324687D02*
X172213660Y-106277068D01*
X172213660Y-106277068D02*
X172261279Y-106181830D01*
X172689851Y-106372306D02*
X173451756Y-106372306D01*
X173832708Y-105753259D02*
X174451755Y-105753259D01*
X174451755Y-105753259D02*
X174118422Y-106134211D01*
X174118422Y-106134211D02*
X174261279Y-106134211D01*
X174261279Y-106134211D02*
X174356517Y-106181830D01*
X174356517Y-106181830D02*
X174404136Y-106229449D01*
X174404136Y-106229449D02*
X174451755Y-106324687D01*
X174451755Y-106324687D02*
X174451755Y-106562782D01*
X174451755Y-106562782D02*
X174404136Y-106658020D01*
X174404136Y-106658020D02*
X174356517Y-106705640D01*
X174356517Y-106705640D02*
X174261279Y-106753259D01*
X174261279Y-106753259D02*
X173975565Y-106753259D01*
X173975565Y-106753259D02*
X173880327Y-106705640D01*
X173880327Y-106705640D02*
X173832708Y-106658020D01*
X175070803Y-105753259D02*
X175166041Y-105753259D01*
X175166041Y-105753259D02*
X175261279Y-105800878D01*
X175261279Y-105800878D02*
X175308898Y-105848497D01*
X175308898Y-105848497D02*
X175356517Y-105943735D01*
X175356517Y-105943735D02*
X175404136Y-106134211D01*
X175404136Y-106134211D02*
X175404136Y-106372306D01*
X175404136Y-106372306D02*
X175356517Y-106562782D01*
X175356517Y-106562782D02*
X175308898Y-106658020D01*
X175308898Y-106658020D02*
X175261279Y-106705640D01*
X175261279Y-106705640D02*
X175166041Y-106753259D01*
X175166041Y-106753259D02*
X175070803Y-106753259D01*
X175070803Y-106753259D02*
X174975565Y-106705640D01*
X174975565Y-106705640D02*
X174927946Y-106658020D01*
X174927946Y-106658020D02*
X174880327Y-106562782D01*
X174880327Y-106562782D02*
X174832708Y-106372306D01*
X174832708Y-106372306D02*
X174832708Y-106134211D01*
X174832708Y-106134211D02*
X174880327Y-105943735D01*
X174880327Y-105943735D02*
X174927946Y-105848497D01*
X174927946Y-105848497D02*
X174975565Y-105800878D01*
X174975565Y-105800878D02*
X175070803Y-105753259D01*
X77033333Y-139253019D02*
X76985714Y-139300639D01*
X76985714Y-139300639D02*
X76842857Y-139348258D01*
X76842857Y-139348258D02*
X76747619Y-139348258D01*
X76747619Y-139348258D02*
X76604762Y-139300639D01*
X76604762Y-139300639D02*
X76509524Y-139205400D01*
X76509524Y-139205400D02*
X76461905Y-139110162D01*
X76461905Y-139110162D02*
X76414286Y-138919686D01*
X76414286Y-138919686D02*
X76414286Y-138776829D01*
X76414286Y-138776829D02*
X76461905Y-138586353D01*
X76461905Y-138586353D02*
X76509524Y-138491115D01*
X76509524Y-138491115D02*
X76604762Y-138395877D01*
X76604762Y-138395877D02*
X76747619Y-138348258D01*
X76747619Y-138348258D02*
X76842857Y-138348258D01*
X76842857Y-138348258D02*
X76985714Y-138395877D01*
X76985714Y-138395877D02*
X77033333Y-138443496D01*
X77890476Y-138681591D02*
X77890476Y-139348258D01*
X77652381Y-138300639D02*
X77414286Y-139014924D01*
X77414286Y-139014924D02*
X78033333Y-139014924D01*
X78453095Y-123653258D02*
X78453095Y-124462781D01*
X78453095Y-124462781D02*
X78500714Y-124558019D01*
X78500714Y-124558019D02*
X78548333Y-124605639D01*
X78548333Y-124605639D02*
X78643571Y-124653258D01*
X78643571Y-124653258D02*
X78834047Y-124653258D01*
X78834047Y-124653258D02*
X78929285Y-124605639D01*
X78929285Y-124605639D02*
X78976904Y-124558019D01*
X78976904Y-124558019D02*
X79024523Y-124462781D01*
X79024523Y-124462781D02*
X79024523Y-123653258D01*
X79405476Y-123653258D02*
X80024523Y-123653258D01*
X80024523Y-123653258D02*
X79691190Y-124034210D01*
X79691190Y-124034210D02*
X79834047Y-124034210D01*
X79834047Y-124034210D02*
X79929285Y-124081829D01*
X79929285Y-124081829D02*
X79976904Y-124129448D01*
X79976904Y-124129448D02*
X80024523Y-124224686D01*
X80024523Y-124224686D02*
X80024523Y-124462781D01*
X80024523Y-124462781D02*
X79976904Y-124558019D01*
X79976904Y-124558019D02*
X79929285Y-124605639D01*
X79929285Y-124605639D02*
X79834047Y-124653258D01*
X79834047Y-124653258D02*
X79548333Y-124653258D01*
X79548333Y-124653258D02*
X79453095Y-124605639D01*
X79453095Y-124605639D02*
X79405476Y-124558019D01*
X81504523Y-133958020D02*
X81456904Y-134005640D01*
X81456904Y-134005640D02*
X81314047Y-134053259D01*
X81314047Y-134053259D02*
X81218809Y-134053259D01*
X81218809Y-134053259D02*
X81075952Y-134005640D01*
X81075952Y-134005640D02*
X80980714Y-133910401D01*
X80980714Y-133910401D02*
X80933095Y-133815163D01*
X80933095Y-133815163D02*
X80885476Y-133624687D01*
X80885476Y-133624687D02*
X80885476Y-133481830D01*
X80885476Y-133481830D02*
X80933095Y-133291354D01*
X80933095Y-133291354D02*
X80980714Y-133196116D01*
X80980714Y-133196116D02*
X81075952Y-133100878D01*
X81075952Y-133100878D02*
X81218809Y-133053259D01*
X81218809Y-133053259D02*
X81314047Y-133053259D01*
X81314047Y-133053259D02*
X81456904Y-133100878D01*
X81456904Y-133100878D02*
X81504523Y-133148497D01*
X81837857Y-133053259D02*
X82504523Y-133053259D01*
X82504523Y-133053259D02*
X82075952Y-134053259D01*
X81761905Y-135758259D02*
X81761905Y-134758259D01*
X81761905Y-134758259D02*
X82000000Y-134758259D01*
X82000000Y-134758259D02*
X82142857Y-134805878D01*
X82142857Y-134805878D02*
X82238095Y-134901116D01*
X82238095Y-134901116D02*
X82285714Y-134996354D01*
X82285714Y-134996354D02*
X82333333Y-135186830D01*
X82333333Y-135186830D02*
X82333333Y-135329687D01*
X82333333Y-135329687D02*
X82285714Y-135520163D01*
X82285714Y-135520163D02*
X82238095Y-135615401D01*
X82238095Y-135615401D02*
X82142857Y-135710640D01*
X82142857Y-135710640D02*
X82000000Y-135758259D01*
X82000000Y-135758259D02*
X81761905Y-135758259D01*
X83285714Y-135758259D02*
X82714286Y-135758259D01*
X83000000Y-135758259D02*
X83000000Y-134758259D01*
X83000000Y-134758259D02*
X82904762Y-134901116D01*
X82904762Y-134901116D02*
X82809524Y-134996354D01*
X82809524Y-134996354D02*
X82714286Y-135043973D01*
X83255714Y-125448259D02*
X83255714Y-124448259D01*
X83255714Y-124448259D02*
X83493809Y-124448259D01*
X83493809Y-124448259D02*
X83636666Y-124495878D01*
X83636666Y-124495878D02*
X83731904Y-124591116D01*
X83731904Y-124591116D02*
X83779523Y-124686354D01*
X83779523Y-124686354D02*
X83827142Y-124876830D01*
X83827142Y-124876830D02*
X83827142Y-125019687D01*
X83827142Y-125019687D02*
X83779523Y-125210163D01*
X83779523Y-125210163D02*
X83731904Y-125305401D01*
X83731904Y-125305401D02*
X83636666Y-125400640D01*
X83636666Y-125400640D02*
X83493809Y-125448259D01*
X83493809Y-125448259D02*
X83255714Y-125448259D01*
X84779523Y-125448259D02*
X84208095Y-125448259D01*
X84493809Y-125448259D02*
X84493809Y-124448259D01*
X84493809Y-124448259D02*
X84398571Y-124591116D01*
X84398571Y-124591116D02*
X84303333Y-124686354D01*
X84303333Y-124686354D02*
X84208095Y-124733973D01*
X85255714Y-125448259D02*
X85446190Y-125448259D01*
X85446190Y-125448259D02*
X85541428Y-125400640D01*
X85541428Y-125400640D02*
X85589047Y-125353020D01*
X85589047Y-125353020D02*
X85684285Y-125210163D01*
X85684285Y-125210163D02*
X85731904Y-125019687D01*
X85731904Y-125019687D02*
X85731904Y-124638735D01*
X85731904Y-124638735D02*
X85684285Y-124543497D01*
X85684285Y-124543497D02*
X85636666Y-124495878D01*
X85636666Y-124495878D02*
X85541428Y-124448259D01*
X85541428Y-124448259D02*
X85350952Y-124448259D01*
X85350952Y-124448259D02*
X85255714Y-124495878D01*
X85255714Y-124495878D02*
X85208095Y-124543497D01*
X85208095Y-124543497D02*
X85160476Y-124638735D01*
X85160476Y-124638735D02*
X85160476Y-124876830D01*
X85160476Y-124876830D02*
X85208095Y-124972068D01*
X85208095Y-124972068D02*
X85255714Y-125019687D01*
X85255714Y-125019687D02*
X85350952Y-125067306D01*
X85350952Y-125067306D02*
X85541428Y-125067306D01*
X85541428Y-125067306D02*
X85636666Y-125019687D01*
X85636666Y-125019687D02*
X85684285Y-124972068D01*
X85684285Y-124972068D02*
X85731904Y-124876830D01*
X86833333Y-127428259D02*
X86500000Y-126952068D01*
X86261905Y-127428259D02*
X86261905Y-126428259D01*
X86261905Y-126428259D02*
X86642857Y-126428259D01*
X86642857Y-126428259D02*
X86738095Y-126475878D01*
X86738095Y-126475878D02*
X86785714Y-126523497D01*
X86785714Y-126523497D02*
X86833333Y-126618735D01*
X86833333Y-126618735D02*
X86833333Y-126761592D01*
X86833333Y-126761592D02*
X86785714Y-126856830D01*
X86785714Y-126856830D02*
X86738095Y-126904449D01*
X86738095Y-126904449D02*
X86642857Y-126952068D01*
X86642857Y-126952068D02*
X86261905Y-126952068D01*
X87690476Y-126761592D02*
X87690476Y-127428259D01*
X87452381Y-126380640D02*
X87214286Y-127094925D01*
X87214286Y-127094925D02*
X87833333Y-127094925D01*
X87333333Y-135958259D02*
X87000000Y-135482068D01*
X86761905Y-135958259D02*
X86761905Y-134958259D01*
X86761905Y-134958259D02*
X87142857Y-134958259D01*
X87142857Y-134958259D02*
X87238095Y-135005878D01*
X87238095Y-135005878D02*
X87285714Y-135053497D01*
X87285714Y-135053497D02*
X87333333Y-135148735D01*
X87333333Y-135148735D02*
X87333333Y-135291592D01*
X87333333Y-135291592D02*
X87285714Y-135386830D01*
X87285714Y-135386830D02*
X87238095Y-135434449D01*
X87238095Y-135434449D02*
X87142857Y-135482068D01*
X87142857Y-135482068D02*
X86761905Y-135482068D01*
X88190476Y-134958259D02*
X88000000Y-134958259D01*
X88000000Y-134958259D02*
X87904762Y-135005878D01*
X87904762Y-135005878D02*
X87857143Y-135053497D01*
X87857143Y-135053497D02*
X87761905Y-135196354D01*
X87761905Y-135196354D02*
X87714286Y-135386830D01*
X87714286Y-135386830D02*
X87714286Y-135767782D01*
X87714286Y-135767782D02*
X87761905Y-135863020D01*
X87761905Y-135863020D02*
X87809524Y-135910640D01*
X87809524Y-135910640D02*
X87904762Y-135958259D01*
X87904762Y-135958259D02*
X88095238Y-135958259D01*
X88095238Y-135958259D02*
X88190476Y-135910640D01*
X88190476Y-135910640D02*
X88238095Y-135863020D01*
X88238095Y-135863020D02*
X88285714Y-135767782D01*
X88285714Y-135767782D02*
X88285714Y-135529687D01*
X88285714Y-135529687D02*
X88238095Y-135434449D01*
X88238095Y-135434449D02*
X88190476Y-135386830D01*
X88190476Y-135386830D02*
X88095238Y-135339211D01*
X88095238Y-135339211D02*
X87904762Y-135339211D01*
X87904762Y-135339211D02*
X87809524Y-135386830D01*
X87809524Y-135386830D02*
X87761905Y-135434449D01*
X87761905Y-135434449D02*
X87714286Y-135529687D01*
X87842142Y-133958020D02*
X87794523Y-134005640D01*
X87794523Y-134005640D02*
X87651666Y-134053259D01*
X87651666Y-134053259D02*
X87556428Y-134053259D01*
X87556428Y-134053259D02*
X87413571Y-134005640D01*
X87413571Y-134005640D02*
X87318333Y-133910401D01*
X87318333Y-133910401D02*
X87270714Y-133815163D01*
X87270714Y-133815163D02*
X87223095Y-133624687D01*
X87223095Y-133624687D02*
X87223095Y-133481830D01*
X87223095Y-133481830D02*
X87270714Y-133291354D01*
X87270714Y-133291354D02*
X87318333Y-133196116D01*
X87318333Y-133196116D02*
X87413571Y-133100878D01*
X87413571Y-133100878D02*
X87556428Y-133053259D01*
X87556428Y-133053259D02*
X87651666Y-133053259D01*
X87651666Y-133053259D02*
X87794523Y-133100878D01*
X87794523Y-133100878D02*
X87842142Y-133148497D01*
X88223095Y-133148497D02*
X88270714Y-133100878D01*
X88270714Y-133100878D02*
X88365952Y-133053259D01*
X88365952Y-133053259D02*
X88604047Y-133053259D01*
X88604047Y-133053259D02*
X88699285Y-133100878D01*
X88699285Y-133100878D02*
X88746904Y-133148497D01*
X88746904Y-133148497D02*
X88794523Y-133243735D01*
X88794523Y-133243735D02*
X88794523Y-133338973D01*
X88794523Y-133338973D02*
X88746904Y-133481830D01*
X88746904Y-133481830D02*
X88175476Y-134053259D01*
X88175476Y-134053259D02*
X88794523Y-134053259D01*
X91333333Y-139183020D02*
X91285714Y-139230640D01*
X91285714Y-139230640D02*
X91142857Y-139278259D01*
X91142857Y-139278259D02*
X91047619Y-139278259D01*
X91047619Y-139278259D02*
X90904762Y-139230640D01*
X90904762Y-139230640D02*
X90809524Y-139135401D01*
X90809524Y-139135401D02*
X90761905Y-139040163D01*
X90761905Y-139040163D02*
X90714286Y-138849687D01*
X90714286Y-138849687D02*
X90714286Y-138706830D01*
X90714286Y-138706830D02*
X90761905Y-138516354D01*
X90761905Y-138516354D02*
X90809524Y-138421116D01*
X90809524Y-138421116D02*
X90904762Y-138325878D01*
X90904762Y-138325878D02*
X91047619Y-138278259D01*
X91047619Y-138278259D02*
X91142857Y-138278259D01*
X91142857Y-138278259D02*
X91285714Y-138325878D01*
X91285714Y-138325878D02*
X91333333Y-138373497D01*
X92190476Y-138278259D02*
X92000000Y-138278259D01*
X92000000Y-138278259D02*
X91904762Y-138325878D01*
X91904762Y-138325878D02*
X91857143Y-138373497D01*
X91857143Y-138373497D02*
X91761905Y-138516354D01*
X91761905Y-138516354D02*
X91714286Y-138706830D01*
X91714286Y-138706830D02*
X91714286Y-139087782D01*
X91714286Y-139087782D02*
X91761905Y-139183020D01*
X91761905Y-139183020D02*
X91809524Y-139230640D01*
X91809524Y-139230640D02*
X91904762Y-139278259D01*
X91904762Y-139278259D02*
X92095238Y-139278259D01*
X92095238Y-139278259D02*
X92190476Y-139230640D01*
X92190476Y-139230640D02*
X92238095Y-139183020D01*
X92238095Y-139183020D02*
X92285714Y-139087782D01*
X92285714Y-139087782D02*
X92285714Y-138849687D01*
X92285714Y-138849687D02*
X92238095Y-138754449D01*
X92238095Y-138754449D02*
X92190476Y-138706830D01*
X92190476Y-138706830D02*
X92095238Y-138659211D01*
X92095238Y-138659211D02*
X91904762Y-138659211D01*
X91904762Y-138659211D02*
X91809524Y-138706830D01*
X91809524Y-138706830D02*
X91761905Y-138754449D01*
X91761905Y-138754449D02*
X91714286Y-138849687D01*
X97738095Y-131898259D02*
X97738095Y-132707782D01*
X97738095Y-132707782D02*
X97785714Y-132803020D01*
X97785714Y-132803020D02*
X97833333Y-132850640D01*
X97833333Y-132850640D02*
X97928571Y-132898259D01*
X97928571Y-132898259D02*
X98119047Y-132898259D01*
X98119047Y-132898259D02*
X98214285Y-132850640D01*
X98214285Y-132850640D02*
X98261904Y-132803020D01*
X98261904Y-132803020D02*
X98309523Y-132707782D01*
X98309523Y-132707782D02*
X98309523Y-131898259D01*
X98738095Y-131993497D02*
X98785714Y-131945878D01*
X98785714Y-131945878D02*
X98880952Y-131898259D01*
X98880952Y-131898259D02*
X99119047Y-131898259D01*
X99119047Y-131898259D02*
X99214285Y-131945878D01*
X99214285Y-131945878D02*
X99261904Y-131993497D01*
X99261904Y-131993497D02*
X99309523Y-132088735D01*
X99309523Y-132088735D02*
X99309523Y-132183973D01*
X99309523Y-132183973D02*
X99261904Y-132326830D01*
X99261904Y-132326830D02*
X98690476Y-132898259D01*
X98690476Y-132898259D02*
X99309523Y-132898259D01*
X99925714Y-125448259D02*
X99925714Y-124448259D01*
X99925714Y-124448259D02*
X100163809Y-124448259D01*
X100163809Y-124448259D02*
X100306666Y-124495878D01*
X100306666Y-124495878D02*
X100401904Y-124591116D01*
X100401904Y-124591116D02*
X100449523Y-124686354D01*
X100449523Y-124686354D02*
X100497142Y-124876830D01*
X100497142Y-124876830D02*
X100497142Y-125019687D01*
X100497142Y-125019687D02*
X100449523Y-125210163D01*
X100449523Y-125210163D02*
X100401904Y-125305401D01*
X100401904Y-125305401D02*
X100306666Y-125400640D01*
X100306666Y-125400640D02*
X100163809Y-125448259D01*
X100163809Y-125448259D02*
X99925714Y-125448259D01*
X101449523Y-125448259D02*
X100878095Y-125448259D01*
X101163809Y-125448259D02*
X101163809Y-124448259D01*
X101163809Y-124448259D02*
X101068571Y-124591116D01*
X101068571Y-124591116D02*
X100973333Y-124686354D01*
X100973333Y-124686354D02*
X100878095Y-124733973D01*
X102020952Y-124876830D02*
X101925714Y-124829211D01*
X101925714Y-124829211D02*
X101878095Y-124781592D01*
X101878095Y-124781592D02*
X101830476Y-124686354D01*
X101830476Y-124686354D02*
X101830476Y-124638735D01*
X101830476Y-124638735D02*
X101878095Y-124543497D01*
X101878095Y-124543497D02*
X101925714Y-124495878D01*
X101925714Y-124495878D02*
X102020952Y-124448259D01*
X102020952Y-124448259D02*
X102211428Y-124448259D01*
X102211428Y-124448259D02*
X102306666Y-124495878D01*
X102306666Y-124495878D02*
X102354285Y-124543497D01*
X102354285Y-124543497D02*
X102401904Y-124638735D01*
X102401904Y-124638735D02*
X102401904Y-124686354D01*
X102401904Y-124686354D02*
X102354285Y-124781592D01*
X102354285Y-124781592D02*
X102306666Y-124829211D01*
X102306666Y-124829211D02*
X102211428Y-124876830D01*
X102211428Y-124876830D02*
X102020952Y-124876830D01*
X102020952Y-124876830D02*
X101925714Y-124924449D01*
X101925714Y-124924449D02*
X101878095Y-124972068D01*
X101878095Y-124972068D02*
X101830476Y-125067306D01*
X101830476Y-125067306D02*
X101830476Y-125257782D01*
X101830476Y-125257782D02*
X101878095Y-125353020D01*
X101878095Y-125353020D02*
X101925714Y-125400640D01*
X101925714Y-125400640D02*
X102020952Y-125448259D01*
X102020952Y-125448259D02*
X102211428Y-125448259D01*
X102211428Y-125448259D02*
X102306666Y-125400640D01*
X102306666Y-125400640D02*
X102354285Y-125353020D01*
X102354285Y-125353020D02*
X102401904Y-125257782D01*
X102401904Y-125257782D02*
X102401904Y-125067306D01*
X102401904Y-125067306D02*
X102354285Y-124972068D01*
X102354285Y-124972068D02*
X102306666Y-124924449D01*
X102306666Y-124924449D02*
X102211428Y-124876830D01*
X100672142Y-115533020D02*
X100624523Y-115580640D01*
X100624523Y-115580640D02*
X100481666Y-115628259D01*
X100481666Y-115628259D02*
X100386428Y-115628259D01*
X100386428Y-115628259D02*
X100243571Y-115580640D01*
X100243571Y-115580640D02*
X100148333Y-115485401D01*
X100148333Y-115485401D02*
X100100714Y-115390163D01*
X100100714Y-115390163D02*
X100053095Y-115199687D01*
X100053095Y-115199687D02*
X100053095Y-115056830D01*
X100053095Y-115056830D02*
X100100714Y-114866354D01*
X100100714Y-114866354D02*
X100148333Y-114771116D01*
X100148333Y-114771116D02*
X100243571Y-114675878D01*
X100243571Y-114675878D02*
X100386428Y-114628259D01*
X100386428Y-114628259D02*
X100481666Y-114628259D01*
X100481666Y-114628259D02*
X100624523Y-114675878D01*
X100624523Y-114675878D02*
X100672142Y-114723497D01*
X101005476Y-114628259D02*
X101624523Y-114628259D01*
X101624523Y-114628259D02*
X101291190Y-115009211D01*
X101291190Y-115009211D02*
X101434047Y-115009211D01*
X101434047Y-115009211D02*
X101529285Y-115056830D01*
X101529285Y-115056830D02*
X101576904Y-115104449D01*
X101576904Y-115104449D02*
X101624523Y-115199687D01*
X101624523Y-115199687D02*
X101624523Y-115437782D01*
X101624523Y-115437782D02*
X101576904Y-115533020D01*
X101576904Y-115533020D02*
X101529285Y-115580640D01*
X101529285Y-115580640D02*
X101434047Y-115628259D01*
X101434047Y-115628259D02*
X101148333Y-115628259D01*
X101148333Y-115628259D02*
X101053095Y-115580640D01*
X101053095Y-115580640D02*
X101005476Y-115533020D01*
X102481666Y-114628259D02*
X102291190Y-114628259D01*
X102291190Y-114628259D02*
X102195952Y-114675878D01*
X102195952Y-114675878D02*
X102148333Y-114723497D01*
X102148333Y-114723497D02*
X102053095Y-114866354D01*
X102053095Y-114866354D02*
X102005476Y-115056830D01*
X102005476Y-115056830D02*
X102005476Y-115437782D01*
X102005476Y-115437782D02*
X102053095Y-115533020D01*
X102053095Y-115533020D02*
X102100714Y-115580640D01*
X102100714Y-115580640D02*
X102195952Y-115628259D01*
X102195952Y-115628259D02*
X102386428Y-115628259D01*
X102386428Y-115628259D02*
X102481666Y-115580640D01*
X102481666Y-115580640D02*
X102529285Y-115533020D01*
X102529285Y-115533020D02*
X102576904Y-115437782D01*
X102576904Y-115437782D02*
X102576904Y-115199687D01*
X102576904Y-115199687D02*
X102529285Y-115104449D01*
X102529285Y-115104449D02*
X102481666Y-115056830D01*
X102481666Y-115056830D02*
X102386428Y-115009211D01*
X102386428Y-115009211D02*
X102195952Y-115009211D01*
X102195952Y-115009211D02*
X102100714Y-115056830D01*
X102100714Y-115056830D02*
X102053095Y-115104449D01*
X102053095Y-115104449D02*
X102005476Y-115199687D01*
X115704523Y-103453259D02*
X115371190Y-102977068D01*
X115133095Y-103453259D02*
X115133095Y-102453259D01*
X115133095Y-102453259D02*
X115514047Y-102453259D01*
X115514047Y-102453259D02*
X115609285Y-102500878D01*
X115609285Y-102500878D02*
X115656904Y-102548497D01*
X115656904Y-102548497D02*
X115704523Y-102643735D01*
X115704523Y-102643735D02*
X115704523Y-102786592D01*
X115704523Y-102786592D02*
X115656904Y-102881830D01*
X115656904Y-102881830D02*
X115609285Y-102929449D01*
X115609285Y-102929449D02*
X115514047Y-102977068D01*
X115514047Y-102977068D02*
X115133095Y-102977068D01*
X116656904Y-103453259D02*
X116085476Y-103453259D01*
X116371190Y-103453259D02*
X116371190Y-102453259D01*
X116371190Y-102453259D02*
X116275952Y-102596116D01*
X116275952Y-102596116D02*
X116180714Y-102691354D01*
X116180714Y-102691354D02*
X116085476Y-102738973D01*
X117514047Y-102786592D02*
X117514047Y-103453259D01*
X117275952Y-102405640D02*
X117037857Y-103119925D01*
X117037857Y-103119925D02*
X117656904Y-103119925D01*
X116595714Y-125448259D02*
X116595714Y-124448259D01*
X116595714Y-124448259D02*
X116833809Y-124448259D01*
X116833809Y-124448259D02*
X116976666Y-124495878D01*
X116976666Y-124495878D02*
X117071904Y-124591116D01*
X117071904Y-124591116D02*
X117119523Y-124686354D01*
X117119523Y-124686354D02*
X117167142Y-124876830D01*
X117167142Y-124876830D02*
X117167142Y-125019687D01*
X117167142Y-125019687D02*
X117119523Y-125210163D01*
X117119523Y-125210163D02*
X117071904Y-125305401D01*
X117071904Y-125305401D02*
X116976666Y-125400640D01*
X116976666Y-125400640D02*
X116833809Y-125448259D01*
X116833809Y-125448259D02*
X116595714Y-125448259D01*
X118119523Y-125448259D02*
X117548095Y-125448259D01*
X117833809Y-125448259D02*
X117833809Y-124448259D01*
X117833809Y-124448259D02*
X117738571Y-124591116D01*
X117738571Y-124591116D02*
X117643333Y-124686354D01*
X117643333Y-124686354D02*
X117548095Y-124733973D01*
X118452857Y-124448259D02*
X119119523Y-124448259D01*
X119119523Y-124448259D02*
X118690952Y-125448259D01*
X117342142Y-115533020D02*
X117294523Y-115580640D01*
X117294523Y-115580640D02*
X117151666Y-115628259D01*
X117151666Y-115628259D02*
X117056428Y-115628259D01*
X117056428Y-115628259D02*
X116913571Y-115580640D01*
X116913571Y-115580640D02*
X116818333Y-115485401D01*
X116818333Y-115485401D02*
X116770714Y-115390163D01*
X116770714Y-115390163D02*
X116723095Y-115199687D01*
X116723095Y-115199687D02*
X116723095Y-115056830D01*
X116723095Y-115056830D02*
X116770714Y-114866354D01*
X116770714Y-114866354D02*
X116818333Y-114771116D01*
X116818333Y-114771116D02*
X116913571Y-114675878D01*
X116913571Y-114675878D02*
X117056428Y-114628259D01*
X117056428Y-114628259D02*
X117151666Y-114628259D01*
X117151666Y-114628259D02*
X117294523Y-114675878D01*
X117294523Y-114675878D02*
X117342142Y-114723497D01*
X117675476Y-114628259D02*
X118294523Y-114628259D01*
X118294523Y-114628259D02*
X117961190Y-115009211D01*
X117961190Y-115009211D02*
X118104047Y-115009211D01*
X118104047Y-115009211D02*
X118199285Y-115056830D01*
X118199285Y-115056830D02*
X118246904Y-115104449D01*
X118246904Y-115104449D02*
X118294523Y-115199687D01*
X118294523Y-115199687D02*
X118294523Y-115437782D01*
X118294523Y-115437782D02*
X118246904Y-115533020D01*
X118246904Y-115533020D02*
X118199285Y-115580640D01*
X118199285Y-115580640D02*
X118104047Y-115628259D01*
X118104047Y-115628259D02*
X117818333Y-115628259D01*
X117818333Y-115628259D02*
X117723095Y-115580640D01*
X117723095Y-115580640D02*
X117675476Y-115533020D01*
X119199285Y-114628259D02*
X118723095Y-114628259D01*
X118723095Y-114628259D02*
X118675476Y-115104449D01*
X118675476Y-115104449D02*
X118723095Y-115056830D01*
X118723095Y-115056830D02*
X118818333Y-115009211D01*
X118818333Y-115009211D02*
X119056428Y-115009211D01*
X119056428Y-115009211D02*
X119151666Y-115056830D01*
X119151666Y-115056830D02*
X119199285Y-115104449D01*
X119199285Y-115104449D02*
X119246904Y-115199687D01*
X119246904Y-115199687D02*
X119246904Y-115437782D01*
X119246904Y-115437782D02*
X119199285Y-115533020D01*
X119199285Y-115533020D02*
X119151666Y-115580640D01*
X119151666Y-115580640D02*
X119056428Y-115628259D01*
X119056428Y-115628259D02*
X118818333Y-115628259D01*
X118818333Y-115628259D02*
X118723095Y-115580640D01*
X118723095Y-115580640D02*
X118675476Y-115533020D01*
X121357142Y-113078259D02*
X121023809Y-112602068D01*
X120785714Y-113078259D02*
X120785714Y-112078259D01*
X120785714Y-112078259D02*
X121166666Y-112078259D01*
X121166666Y-112078259D02*
X121261904Y-112125878D01*
X121261904Y-112125878D02*
X121309523Y-112173497D01*
X121309523Y-112173497D02*
X121357142Y-112268735D01*
X121357142Y-112268735D02*
X121357142Y-112411592D01*
X121357142Y-112411592D02*
X121309523Y-112506830D01*
X121309523Y-112506830D02*
X121261904Y-112554449D01*
X121261904Y-112554449D02*
X121166666Y-112602068D01*
X121166666Y-112602068D02*
X120785714Y-112602068D01*
X121690476Y-112078259D02*
X122309523Y-112078259D01*
X122309523Y-112078259D02*
X121976190Y-112459211D01*
X121976190Y-112459211D02*
X122119047Y-112459211D01*
X122119047Y-112459211D02*
X122214285Y-112506830D01*
X122214285Y-112506830D02*
X122261904Y-112554449D01*
X122261904Y-112554449D02*
X122309523Y-112649687D01*
X122309523Y-112649687D02*
X122309523Y-112887782D01*
X122309523Y-112887782D02*
X122261904Y-112983020D01*
X122261904Y-112983020D02*
X122214285Y-113030640D01*
X122214285Y-113030640D02*
X122119047Y-113078259D01*
X122119047Y-113078259D02*
X121833333Y-113078259D01*
X121833333Y-113078259D02*
X121738095Y-113030640D01*
X121738095Y-113030640D02*
X121690476Y-112983020D01*
X122642857Y-112078259D02*
X123309523Y-112078259D01*
X123309523Y-112078259D02*
X122880952Y-113078259D01*
X122557141Y-135578258D02*
X122223808Y-135102067D01*
X121985713Y-135578258D02*
X121985713Y-134578258D01*
X121985713Y-134578258D02*
X122366665Y-134578258D01*
X122366665Y-134578258D02*
X122461903Y-134625877D01*
X122461903Y-134625877D02*
X122509522Y-134673496D01*
X122509522Y-134673496D02*
X122557141Y-134768734D01*
X122557141Y-134768734D02*
X122557141Y-134911591D01*
X122557141Y-134911591D02*
X122509522Y-135006829D01*
X122509522Y-135006829D02*
X122461903Y-135054448D01*
X122461903Y-135054448D02*
X122366665Y-135102067D01*
X122366665Y-135102067D02*
X121985713Y-135102067D01*
X122890475Y-134578258D02*
X123509522Y-134578258D01*
X123509522Y-134578258D02*
X123176189Y-134959210D01*
X123176189Y-134959210D02*
X123319046Y-134959210D01*
X123319046Y-134959210D02*
X123414284Y-135006829D01*
X123414284Y-135006829D02*
X123461903Y-135054448D01*
X123461903Y-135054448D02*
X123509522Y-135149686D01*
X123509522Y-135149686D02*
X123509522Y-135387781D01*
X123509522Y-135387781D02*
X123461903Y-135483019D01*
X123461903Y-135483019D02*
X123414284Y-135530639D01*
X123414284Y-135530639D02*
X123319046Y-135578258D01*
X123319046Y-135578258D02*
X123033332Y-135578258D01*
X123033332Y-135578258D02*
X122938094Y-135530639D01*
X122938094Y-135530639D02*
X122890475Y-135483019D01*
X123842856Y-134578258D02*
X124461903Y-134578258D01*
X124461903Y-134578258D02*
X124128570Y-134959210D01*
X124128570Y-134959210D02*
X124271427Y-134959210D01*
X124271427Y-134959210D02*
X124366665Y-135006829D01*
X124366665Y-135006829D02*
X124414284Y-135054448D01*
X124414284Y-135054448D02*
X124461903Y-135149686D01*
X124461903Y-135149686D02*
X124461903Y-135387781D01*
X124461903Y-135387781D02*
X124414284Y-135483019D01*
X124414284Y-135483019D02*
X124366665Y-135530639D01*
X124366665Y-135530639D02*
X124271427Y-135578258D01*
X124271427Y-135578258D02*
X123985713Y-135578258D01*
X123985713Y-135578258D02*
X123890475Y-135530639D01*
X123890475Y-135530639D02*
X123842856Y-135483019D01*
X124957142Y-124433020D02*
X124909523Y-124480640D01*
X124909523Y-124480640D02*
X124766666Y-124528259D01*
X124766666Y-124528259D02*
X124671428Y-124528259D01*
X124671428Y-124528259D02*
X124528571Y-124480640D01*
X124528571Y-124480640D02*
X124433333Y-124385401D01*
X124433333Y-124385401D02*
X124385714Y-124290163D01*
X124385714Y-124290163D02*
X124338095Y-124099687D01*
X124338095Y-124099687D02*
X124338095Y-123956830D01*
X124338095Y-123956830D02*
X124385714Y-123766354D01*
X124385714Y-123766354D02*
X124433333Y-123671116D01*
X124433333Y-123671116D02*
X124528571Y-123575878D01*
X124528571Y-123575878D02*
X124671428Y-123528259D01*
X124671428Y-123528259D02*
X124766666Y-123528259D01*
X124766666Y-123528259D02*
X124909523Y-123575878D01*
X124909523Y-123575878D02*
X124957142Y-123623497D01*
X125909523Y-124528259D02*
X125338095Y-124528259D01*
X125623809Y-124528259D02*
X125623809Y-123528259D01*
X125623809Y-123528259D02*
X125528571Y-123671116D01*
X125528571Y-123671116D02*
X125433333Y-123766354D01*
X125433333Y-123766354D02*
X125338095Y-123813973D01*
X126242857Y-123528259D02*
X126861904Y-123528259D01*
X126861904Y-123528259D02*
X126528571Y-123909211D01*
X126528571Y-123909211D02*
X126671428Y-123909211D01*
X126671428Y-123909211D02*
X126766666Y-123956830D01*
X126766666Y-123956830D02*
X126814285Y-124004449D01*
X126814285Y-124004449D02*
X126861904Y-124099687D01*
X126861904Y-124099687D02*
X126861904Y-124337782D01*
X126861904Y-124337782D02*
X126814285Y-124433020D01*
X126814285Y-124433020D02*
X126766666Y-124480640D01*
X126766666Y-124480640D02*
X126671428Y-124528259D01*
X126671428Y-124528259D02*
X126385714Y-124528259D01*
X126385714Y-124528259D02*
X126290476Y-124480640D01*
X126290476Y-124480640D02*
X126242857Y-124433020D01*
X129238095Y-125808259D02*
X129238095Y-126617782D01*
X129238095Y-126617782D02*
X129285714Y-126713020D01*
X129285714Y-126713020D02*
X129333333Y-126760640D01*
X129333333Y-126760640D02*
X129428571Y-126808259D01*
X129428571Y-126808259D02*
X129619047Y-126808259D01*
X129619047Y-126808259D02*
X129714285Y-126760640D01*
X129714285Y-126760640D02*
X129761904Y-126713020D01*
X129761904Y-126713020D02*
X129809523Y-126617782D01*
X129809523Y-126617782D02*
X129809523Y-125808259D01*
X130190476Y-125808259D02*
X130857142Y-125808259D01*
X130857142Y-125808259D02*
X130428571Y-126808259D01*
X133265714Y-125448259D02*
X133265714Y-124448259D01*
X133265714Y-124448259D02*
X133503809Y-124448259D01*
X133503809Y-124448259D02*
X133646666Y-124495878D01*
X133646666Y-124495878D02*
X133741904Y-124591116D01*
X133741904Y-124591116D02*
X133789523Y-124686354D01*
X133789523Y-124686354D02*
X133837142Y-124876830D01*
X133837142Y-124876830D02*
X133837142Y-125019687D01*
X133837142Y-125019687D02*
X133789523Y-125210163D01*
X133789523Y-125210163D02*
X133741904Y-125305401D01*
X133741904Y-125305401D02*
X133646666Y-125400640D01*
X133646666Y-125400640D02*
X133503809Y-125448259D01*
X133503809Y-125448259D02*
X133265714Y-125448259D01*
X134789523Y-125448259D02*
X134218095Y-125448259D01*
X134503809Y-125448259D02*
X134503809Y-124448259D01*
X134503809Y-124448259D02*
X134408571Y-124591116D01*
X134408571Y-124591116D02*
X134313333Y-124686354D01*
X134313333Y-124686354D02*
X134218095Y-124733973D01*
X135646666Y-124448259D02*
X135456190Y-124448259D01*
X135456190Y-124448259D02*
X135360952Y-124495878D01*
X135360952Y-124495878D02*
X135313333Y-124543497D01*
X135313333Y-124543497D02*
X135218095Y-124686354D01*
X135218095Y-124686354D02*
X135170476Y-124876830D01*
X135170476Y-124876830D02*
X135170476Y-125257782D01*
X135170476Y-125257782D02*
X135218095Y-125353020D01*
X135218095Y-125353020D02*
X135265714Y-125400640D01*
X135265714Y-125400640D02*
X135360952Y-125448259D01*
X135360952Y-125448259D02*
X135551428Y-125448259D01*
X135551428Y-125448259D02*
X135646666Y-125400640D01*
X135646666Y-125400640D02*
X135694285Y-125353020D01*
X135694285Y-125353020D02*
X135741904Y-125257782D01*
X135741904Y-125257782D02*
X135741904Y-125019687D01*
X135741904Y-125019687D02*
X135694285Y-124924449D01*
X135694285Y-124924449D02*
X135646666Y-124876830D01*
X135646666Y-124876830D02*
X135551428Y-124829211D01*
X135551428Y-124829211D02*
X135360952Y-124829211D01*
X135360952Y-124829211D02*
X135265714Y-124876830D01*
X135265714Y-124876830D02*
X135218095Y-124924449D01*
X135218095Y-124924449D02*
X135170476Y-125019687D01*
X143009761Y-140453259D02*
X142676428Y-139977068D01*
X142438333Y-140453259D02*
X142438333Y-139453259D01*
X142438333Y-139453259D02*
X142819285Y-139453259D01*
X142819285Y-139453259D02*
X142914523Y-139500878D01*
X142914523Y-139500878D02*
X142962142Y-139548497D01*
X142962142Y-139548497D02*
X143009761Y-139643735D01*
X143009761Y-139643735D02*
X143009761Y-139786592D01*
X143009761Y-139786592D02*
X142962142Y-139881830D01*
X142962142Y-139881830D02*
X142914523Y-139929449D01*
X142914523Y-139929449D02*
X142819285Y-139977068D01*
X142819285Y-139977068D02*
X142438333Y-139977068D01*
X143962142Y-140453259D02*
X143390714Y-140453259D01*
X143676428Y-140453259D02*
X143676428Y-139453259D01*
X143676428Y-139453259D02*
X143581190Y-139596116D01*
X143581190Y-139596116D02*
X143485952Y-139691354D01*
X143485952Y-139691354D02*
X143390714Y-139738973D01*
X144819285Y-139453259D02*
X144628809Y-139453259D01*
X144628809Y-139453259D02*
X144533571Y-139500878D01*
X144533571Y-139500878D02*
X144485952Y-139548497D01*
X144485952Y-139548497D02*
X144390714Y-139691354D01*
X144390714Y-139691354D02*
X144343095Y-139881830D01*
X144343095Y-139881830D02*
X144343095Y-140262782D01*
X144343095Y-140262782D02*
X144390714Y-140358020D01*
X144390714Y-140358020D02*
X144438333Y-140405640D01*
X144438333Y-140405640D02*
X144533571Y-140453259D01*
X144533571Y-140453259D02*
X144724047Y-140453259D01*
X144724047Y-140453259D02*
X144819285Y-140405640D01*
X144819285Y-140405640D02*
X144866904Y-140358020D01*
X144866904Y-140358020D02*
X144914523Y-140262782D01*
X144914523Y-140262782D02*
X144914523Y-140024687D01*
X144914523Y-140024687D02*
X144866904Y-139929449D01*
X144866904Y-139929449D02*
X144819285Y-139881830D01*
X144819285Y-139881830D02*
X144724047Y-139834211D01*
X144724047Y-139834211D02*
X144533571Y-139834211D01*
X144533571Y-139834211D02*
X144438333Y-139881830D01*
X144438333Y-139881830D02*
X144390714Y-139929449D01*
X144390714Y-139929449D02*
X144343095Y-140024687D01*
X149935713Y-125448259D02*
X149935713Y-124448259D01*
X149935713Y-124448259D02*
X150173808Y-124448259D01*
X150173808Y-124448259D02*
X150316665Y-124495878D01*
X150316665Y-124495878D02*
X150411903Y-124591116D01*
X150411903Y-124591116D02*
X150459522Y-124686354D01*
X150459522Y-124686354D02*
X150507141Y-124876830D01*
X150507141Y-124876830D02*
X150507141Y-125019687D01*
X150507141Y-125019687D02*
X150459522Y-125210163D01*
X150459522Y-125210163D02*
X150411903Y-125305401D01*
X150411903Y-125305401D02*
X150316665Y-125400640D01*
X150316665Y-125400640D02*
X150173808Y-125448259D01*
X150173808Y-125448259D02*
X149935713Y-125448259D01*
X151459522Y-125448259D02*
X150888094Y-125448259D01*
X151173808Y-125448259D02*
X151173808Y-124448259D01*
X151173808Y-124448259D02*
X151078570Y-124591116D01*
X151078570Y-124591116D02*
X150983332Y-124686354D01*
X150983332Y-124686354D02*
X150888094Y-124733973D01*
X152364284Y-124448259D02*
X151888094Y-124448259D01*
X151888094Y-124448259D02*
X151840475Y-124924449D01*
X151840475Y-124924449D02*
X151888094Y-124876830D01*
X151888094Y-124876830D02*
X151983332Y-124829211D01*
X151983332Y-124829211D02*
X152221427Y-124829211D01*
X152221427Y-124829211D02*
X152316665Y-124876830D01*
X152316665Y-124876830D02*
X152364284Y-124924449D01*
X152364284Y-124924449D02*
X152411903Y-125019687D01*
X152411903Y-125019687D02*
X152411903Y-125257782D01*
X152411903Y-125257782D02*
X152364284Y-125353020D01*
X152364284Y-125353020D02*
X152316665Y-125400640D01*
X152316665Y-125400640D02*
X152221427Y-125448259D01*
X152221427Y-125448259D02*
X151983332Y-125448259D01*
X151983332Y-125448259D02*
X151888094Y-125400640D01*
X151888094Y-125400640D02*
X151840475Y-125353020D01*
X150682142Y-115533020D02*
X150634523Y-115580640D01*
X150634523Y-115580640D02*
X150491666Y-115628259D01*
X150491666Y-115628259D02*
X150396428Y-115628259D01*
X150396428Y-115628259D02*
X150253571Y-115580640D01*
X150253571Y-115580640D02*
X150158333Y-115485401D01*
X150158333Y-115485401D02*
X150110714Y-115390163D01*
X150110714Y-115390163D02*
X150063095Y-115199687D01*
X150063095Y-115199687D02*
X150063095Y-115056830D01*
X150063095Y-115056830D02*
X150110714Y-114866354D01*
X150110714Y-114866354D02*
X150158333Y-114771116D01*
X150158333Y-114771116D02*
X150253571Y-114675878D01*
X150253571Y-114675878D02*
X150396428Y-114628259D01*
X150396428Y-114628259D02*
X150491666Y-114628259D01*
X150491666Y-114628259D02*
X150634523Y-114675878D01*
X150634523Y-114675878D02*
X150682142Y-114723497D01*
X151015476Y-114628259D02*
X151634523Y-114628259D01*
X151634523Y-114628259D02*
X151301190Y-115009211D01*
X151301190Y-115009211D02*
X151444047Y-115009211D01*
X151444047Y-115009211D02*
X151539285Y-115056830D01*
X151539285Y-115056830D02*
X151586904Y-115104449D01*
X151586904Y-115104449D02*
X151634523Y-115199687D01*
X151634523Y-115199687D02*
X151634523Y-115437782D01*
X151634523Y-115437782D02*
X151586904Y-115533020D01*
X151586904Y-115533020D02*
X151539285Y-115580640D01*
X151539285Y-115580640D02*
X151444047Y-115628259D01*
X151444047Y-115628259D02*
X151158333Y-115628259D01*
X151158333Y-115628259D02*
X151063095Y-115580640D01*
X151063095Y-115580640D02*
X151015476Y-115533020D01*
X151967857Y-114628259D02*
X152586904Y-114628259D01*
X152586904Y-114628259D02*
X152253571Y-115009211D01*
X152253571Y-115009211D02*
X152396428Y-115009211D01*
X152396428Y-115009211D02*
X152491666Y-115056830D01*
X152491666Y-115056830D02*
X152539285Y-115104449D01*
X152539285Y-115104449D02*
X152586904Y-115199687D01*
X152586904Y-115199687D02*
X152586904Y-115437782D01*
X152586904Y-115437782D02*
X152539285Y-115533020D01*
X152539285Y-115533020D02*
X152491666Y-115580640D01*
X152491666Y-115580640D02*
X152396428Y-115628259D01*
X152396428Y-115628259D02*
X152110714Y-115628259D01*
X152110714Y-115628259D02*
X152015476Y-115580640D01*
X152015476Y-115580640D02*
X151967857Y-115533020D01*
X155704523Y-103453259D02*
X155371190Y-102977068D01*
X155133095Y-103453259D02*
X155133095Y-102453259D01*
X155133095Y-102453259D02*
X155514047Y-102453259D01*
X155514047Y-102453259D02*
X155609285Y-102500878D01*
X155609285Y-102500878D02*
X155656904Y-102548497D01*
X155656904Y-102548497D02*
X155704523Y-102643735D01*
X155704523Y-102643735D02*
X155704523Y-102786592D01*
X155704523Y-102786592D02*
X155656904Y-102881830D01*
X155656904Y-102881830D02*
X155609285Y-102929449D01*
X155609285Y-102929449D02*
X155514047Y-102977068D01*
X155514047Y-102977068D02*
X155133095Y-102977068D01*
X156656904Y-103453259D02*
X156085476Y-103453259D01*
X156371190Y-103453259D02*
X156371190Y-102453259D01*
X156371190Y-102453259D02*
X156275952Y-102596116D01*
X156275952Y-102596116D02*
X156180714Y-102691354D01*
X156180714Y-102691354D02*
X156085476Y-102738973D01*
X157228333Y-102881830D02*
X157133095Y-102834211D01*
X157133095Y-102834211D02*
X157085476Y-102786592D01*
X157085476Y-102786592D02*
X157037857Y-102691354D01*
X157037857Y-102691354D02*
X157037857Y-102643735D01*
X157037857Y-102643735D02*
X157085476Y-102548497D01*
X157085476Y-102548497D02*
X157133095Y-102500878D01*
X157133095Y-102500878D02*
X157228333Y-102453259D01*
X157228333Y-102453259D02*
X157418809Y-102453259D01*
X157418809Y-102453259D02*
X157514047Y-102500878D01*
X157514047Y-102500878D02*
X157561666Y-102548497D01*
X157561666Y-102548497D02*
X157609285Y-102643735D01*
X157609285Y-102643735D02*
X157609285Y-102691354D01*
X157609285Y-102691354D02*
X157561666Y-102786592D01*
X157561666Y-102786592D02*
X157514047Y-102834211D01*
X157514047Y-102834211D02*
X157418809Y-102881830D01*
X157418809Y-102881830D02*
X157228333Y-102881830D01*
X157228333Y-102881830D02*
X157133095Y-102929449D01*
X157133095Y-102929449D02*
X157085476Y-102977068D01*
X157085476Y-102977068D02*
X157037857Y-103072306D01*
X157037857Y-103072306D02*
X157037857Y-103262782D01*
X157037857Y-103262782D02*
X157085476Y-103358020D01*
X157085476Y-103358020D02*
X157133095Y-103405640D01*
X157133095Y-103405640D02*
X157228333Y-103453259D01*
X157228333Y-103453259D02*
X157418809Y-103453259D01*
X157418809Y-103453259D02*
X157514047Y-103405640D01*
X157514047Y-103405640D02*
X157561666Y-103358020D01*
X157561666Y-103358020D02*
X157609285Y-103262782D01*
X157609285Y-103262782D02*
X157609285Y-103072306D01*
X157609285Y-103072306D02*
X157561666Y-102977068D01*
X157561666Y-102977068D02*
X157514047Y-102929449D01*
X157514047Y-102929449D02*
X157418809Y-102881830D01*
X167352142Y-115533020D02*
X167304523Y-115580640D01*
X167304523Y-115580640D02*
X167161666Y-115628259D01*
X167161666Y-115628259D02*
X167066428Y-115628259D01*
X167066428Y-115628259D02*
X166923571Y-115580640D01*
X166923571Y-115580640D02*
X166828333Y-115485401D01*
X166828333Y-115485401D02*
X166780714Y-115390163D01*
X166780714Y-115390163D02*
X166733095Y-115199687D01*
X166733095Y-115199687D02*
X166733095Y-115056830D01*
X166733095Y-115056830D02*
X166780714Y-114866354D01*
X166780714Y-114866354D02*
X166828333Y-114771116D01*
X166828333Y-114771116D02*
X166923571Y-114675878D01*
X166923571Y-114675878D02*
X167066428Y-114628259D01*
X167066428Y-114628259D02*
X167161666Y-114628259D01*
X167161666Y-114628259D02*
X167304523Y-114675878D01*
X167304523Y-114675878D02*
X167352142Y-114723497D01*
X167685476Y-114628259D02*
X168304523Y-114628259D01*
X168304523Y-114628259D02*
X167971190Y-115009211D01*
X167971190Y-115009211D02*
X168114047Y-115009211D01*
X168114047Y-115009211D02*
X168209285Y-115056830D01*
X168209285Y-115056830D02*
X168256904Y-115104449D01*
X168256904Y-115104449D02*
X168304523Y-115199687D01*
X168304523Y-115199687D02*
X168304523Y-115437782D01*
X168304523Y-115437782D02*
X168256904Y-115533020D01*
X168256904Y-115533020D02*
X168209285Y-115580640D01*
X168209285Y-115580640D02*
X168114047Y-115628259D01*
X168114047Y-115628259D02*
X167828333Y-115628259D01*
X167828333Y-115628259D02*
X167733095Y-115580640D01*
X167733095Y-115580640D02*
X167685476Y-115533020D01*
X168685476Y-114723497D02*
X168733095Y-114675878D01*
X168733095Y-114675878D02*
X168828333Y-114628259D01*
X168828333Y-114628259D02*
X169066428Y-114628259D01*
X169066428Y-114628259D02*
X169161666Y-114675878D01*
X169161666Y-114675878D02*
X169209285Y-114723497D01*
X169209285Y-114723497D02*
X169256904Y-114818735D01*
X169256904Y-114818735D02*
X169256904Y-114913973D01*
X169256904Y-114913973D02*
X169209285Y-115056830D01*
X169209285Y-115056830D02*
X168637857Y-115628259D01*
X168637857Y-115628259D02*
X169256904Y-115628259D01*
X183275714Y-125448259D02*
X183275714Y-124448259D01*
X183275714Y-124448259D02*
X183513809Y-124448259D01*
X183513809Y-124448259D02*
X183656666Y-124495878D01*
X183656666Y-124495878D02*
X183751904Y-124591116D01*
X183751904Y-124591116D02*
X183799523Y-124686354D01*
X183799523Y-124686354D02*
X183847142Y-124876830D01*
X183847142Y-124876830D02*
X183847142Y-125019687D01*
X183847142Y-125019687D02*
X183799523Y-125210163D01*
X183799523Y-125210163D02*
X183751904Y-125305401D01*
X183751904Y-125305401D02*
X183656666Y-125400640D01*
X183656666Y-125400640D02*
X183513809Y-125448259D01*
X183513809Y-125448259D02*
X183275714Y-125448259D01*
X184799523Y-125448259D02*
X184228095Y-125448259D01*
X184513809Y-125448259D02*
X184513809Y-124448259D01*
X184513809Y-124448259D02*
X184418571Y-124591116D01*
X184418571Y-124591116D02*
X184323333Y-124686354D01*
X184323333Y-124686354D02*
X184228095Y-124733973D01*
X185132857Y-124448259D02*
X185751904Y-124448259D01*
X185751904Y-124448259D02*
X185418571Y-124829211D01*
X185418571Y-124829211D02*
X185561428Y-124829211D01*
X185561428Y-124829211D02*
X185656666Y-124876830D01*
X185656666Y-124876830D02*
X185704285Y-124924449D01*
X185704285Y-124924449D02*
X185751904Y-125019687D01*
X185751904Y-125019687D02*
X185751904Y-125257782D01*
X185751904Y-125257782D02*
X185704285Y-125353020D01*
X185704285Y-125353020D02*
X185656666Y-125400640D01*
X185656666Y-125400640D02*
X185561428Y-125448259D01*
X185561428Y-125448259D02*
X185275714Y-125448259D01*
X185275714Y-125448259D02*
X185180476Y-125400640D01*
X185180476Y-125400640D02*
X185132857Y-125353020D01*
X184022142Y-115533020D02*
X183974523Y-115580640D01*
X183974523Y-115580640D02*
X183831666Y-115628259D01*
X183831666Y-115628259D02*
X183736428Y-115628259D01*
X183736428Y-115628259D02*
X183593571Y-115580640D01*
X183593571Y-115580640D02*
X183498333Y-115485401D01*
X183498333Y-115485401D02*
X183450714Y-115390163D01*
X183450714Y-115390163D02*
X183403095Y-115199687D01*
X183403095Y-115199687D02*
X183403095Y-115056830D01*
X183403095Y-115056830D02*
X183450714Y-114866354D01*
X183450714Y-114866354D02*
X183498333Y-114771116D01*
X183498333Y-114771116D02*
X183593571Y-114675878D01*
X183593571Y-114675878D02*
X183736428Y-114628259D01*
X183736428Y-114628259D02*
X183831666Y-114628259D01*
X183831666Y-114628259D02*
X183974523Y-114675878D01*
X183974523Y-114675878D02*
X184022142Y-114723497D01*
X184355476Y-114628259D02*
X184974523Y-114628259D01*
X184974523Y-114628259D02*
X184641190Y-115009211D01*
X184641190Y-115009211D02*
X184784047Y-115009211D01*
X184784047Y-115009211D02*
X184879285Y-115056830D01*
X184879285Y-115056830D02*
X184926904Y-115104449D01*
X184926904Y-115104449D02*
X184974523Y-115199687D01*
X184974523Y-115199687D02*
X184974523Y-115437782D01*
X184974523Y-115437782D02*
X184926904Y-115533020D01*
X184926904Y-115533020D02*
X184879285Y-115580640D01*
X184879285Y-115580640D02*
X184784047Y-115628259D01*
X184784047Y-115628259D02*
X184498333Y-115628259D01*
X184498333Y-115628259D02*
X184403095Y-115580640D01*
X184403095Y-115580640D02*
X184355476Y-115533020D01*
X185926904Y-115628259D02*
X185355476Y-115628259D01*
X185641190Y-115628259D02*
X185641190Y-114628259D01*
X185641190Y-114628259D02*
X185545952Y-114771116D01*
X185545952Y-114771116D02*
X185450714Y-114866354D01*
X185450714Y-114866354D02*
X185355476Y-114913973D01*
X199945714Y-125448259D02*
X199945714Y-124448259D01*
X199945714Y-124448259D02*
X200183809Y-124448259D01*
X200183809Y-124448259D02*
X200326666Y-124495878D01*
X200326666Y-124495878D02*
X200421904Y-124591116D01*
X200421904Y-124591116D02*
X200469523Y-124686354D01*
X200469523Y-124686354D02*
X200517142Y-124876830D01*
X200517142Y-124876830D02*
X200517142Y-125019687D01*
X200517142Y-125019687D02*
X200469523Y-125210163D01*
X200469523Y-125210163D02*
X200421904Y-125305401D01*
X200421904Y-125305401D02*
X200326666Y-125400640D01*
X200326666Y-125400640D02*
X200183809Y-125448259D01*
X200183809Y-125448259D02*
X199945714Y-125448259D01*
X201469523Y-125448259D02*
X200898095Y-125448259D01*
X201183809Y-125448259D02*
X201183809Y-124448259D01*
X201183809Y-124448259D02*
X201088571Y-124591116D01*
X201088571Y-124591116D02*
X200993333Y-124686354D01*
X200993333Y-124686354D02*
X200898095Y-124733973D01*
X201850476Y-124543497D02*
X201898095Y-124495878D01*
X201898095Y-124495878D02*
X201993333Y-124448259D01*
X201993333Y-124448259D02*
X202231428Y-124448259D01*
X202231428Y-124448259D02*
X202326666Y-124495878D01*
X202326666Y-124495878D02*
X202374285Y-124543497D01*
X202374285Y-124543497D02*
X202421904Y-124638735D01*
X202421904Y-124638735D02*
X202421904Y-124733973D01*
X202421904Y-124733973D02*
X202374285Y-124876830D01*
X202374285Y-124876830D02*
X201802857Y-125448259D01*
X201802857Y-125448259D02*
X202421904Y-125448259D01*
X200692142Y-115533020D02*
X200644523Y-115580640D01*
X200644523Y-115580640D02*
X200501666Y-115628259D01*
X200501666Y-115628259D02*
X200406428Y-115628259D01*
X200406428Y-115628259D02*
X200263571Y-115580640D01*
X200263571Y-115580640D02*
X200168333Y-115485401D01*
X200168333Y-115485401D02*
X200120714Y-115390163D01*
X200120714Y-115390163D02*
X200073095Y-115199687D01*
X200073095Y-115199687D02*
X200073095Y-115056830D01*
X200073095Y-115056830D02*
X200120714Y-114866354D01*
X200120714Y-114866354D02*
X200168333Y-114771116D01*
X200168333Y-114771116D02*
X200263571Y-114675878D01*
X200263571Y-114675878D02*
X200406428Y-114628259D01*
X200406428Y-114628259D02*
X200501666Y-114628259D01*
X200501666Y-114628259D02*
X200644523Y-114675878D01*
X200644523Y-114675878D02*
X200692142Y-114723497D01*
X201025476Y-114628259D02*
X201644523Y-114628259D01*
X201644523Y-114628259D02*
X201311190Y-115009211D01*
X201311190Y-115009211D02*
X201454047Y-115009211D01*
X201454047Y-115009211D02*
X201549285Y-115056830D01*
X201549285Y-115056830D02*
X201596904Y-115104449D01*
X201596904Y-115104449D02*
X201644523Y-115199687D01*
X201644523Y-115199687D02*
X201644523Y-115437782D01*
X201644523Y-115437782D02*
X201596904Y-115533020D01*
X201596904Y-115533020D02*
X201549285Y-115580640D01*
X201549285Y-115580640D02*
X201454047Y-115628259D01*
X201454047Y-115628259D02*
X201168333Y-115628259D01*
X201168333Y-115628259D02*
X201073095Y-115580640D01*
X201073095Y-115580640D02*
X201025476Y-115533020D01*
X202263571Y-114628259D02*
X202358809Y-114628259D01*
X202358809Y-114628259D02*
X202454047Y-114675878D01*
X202454047Y-114675878D02*
X202501666Y-114723497D01*
X202501666Y-114723497D02*
X202549285Y-114818735D01*
X202549285Y-114818735D02*
X202596904Y-115009211D01*
X202596904Y-115009211D02*
X202596904Y-115247306D01*
X202596904Y-115247306D02*
X202549285Y-115437782D01*
X202549285Y-115437782D02*
X202501666Y-115533020D01*
X202501666Y-115533020D02*
X202454047Y-115580640D01*
X202454047Y-115580640D02*
X202358809Y-115628259D01*
X202358809Y-115628259D02*
X202263571Y-115628259D01*
X202263571Y-115628259D02*
X202168333Y-115580640D01*
X202168333Y-115580640D02*
X202120714Y-115533020D01*
X202120714Y-115533020D02*
X202073095Y-115437782D01*
X202073095Y-115437782D02*
X202025476Y-115247306D01*
X202025476Y-115247306D02*
X202025476Y-115009211D01*
X202025476Y-115009211D02*
X202073095Y-114818735D01*
X202073095Y-114818735D02*
X202120714Y-114723497D01*
X202120714Y-114723497D02*
X202168333Y-114675878D01*
X202168333Y-114675878D02*
X202263571Y-114628259D01*
X216615713Y-125448259D02*
X216615713Y-124448259D01*
X216615713Y-124448259D02*
X216853808Y-124448259D01*
X216853808Y-124448259D02*
X216996665Y-124495878D01*
X216996665Y-124495878D02*
X217091903Y-124591116D01*
X217091903Y-124591116D02*
X217139522Y-124686354D01*
X217139522Y-124686354D02*
X217187141Y-124876830D01*
X217187141Y-124876830D02*
X217187141Y-125019687D01*
X217187141Y-125019687D02*
X217139522Y-125210163D01*
X217139522Y-125210163D02*
X217091903Y-125305401D01*
X217091903Y-125305401D02*
X216996665Y-125400640D01*
X216996665Y-125400640D02*
X216853808Y-125448259D01*
X216853808Y-125448259D02*
X216615713Y-125448259D01*
X218139522Y-125448259D02*
X217568094Y-125448259D01*
X217853808Y-125448259D02*
X217853808Y-124448259D01*
X217853808Y-124448259D02*
X217758570Y-124591116D01*
X217758570Y-124591116D02*
X217663332Y-124686354D01*
X217663332Y-124686354D02*
X217568094Y-124733973D01*
X219091903Y-125448259D02*
X218520475Y-125448259D01*
X218806189Y-125448259D02*
X218806189Y-124448259D01*
X218806189Y-124448259D02*
X218710951Y-124591116D01*
X218710951Y-124591116D02*
X218615713Y-124686354D01*
X218615713Y-124686354D02*
X218520475Y-124733973D01*
X217362142Y-115533020D02*
X217314523Y-115580640D01*
X217314523Y-115580640D02*
X217171666Y-115628259D01*
X217171666Y-115628259D02*
X217076428Y-115628259D01*
X217076428Y-115628259D02*
X216933571Y-115580640D01*
X216933571Y-115580640D02*
X216838333Y-115485401D01*
X216838333Y-115485401D02*
X216790714Y-115390163D01*
X216790714Y-115390163D02*
X216743095Y-115199687D01*
X216743095Y-115199687D02*
X216743095Y-115056830D01*
X216743095Y-115056830D02*
X216790714Y-114866354D01*
X216790714Y-114866354D02*
X216838333Y-114771116D01*
X216838333Y-114771116D02*
X216933571Y-114675878D01*
X216933571Y-114675878D02*
X217076428Y-114628259D01*
X217076428Y-114628259D02*
X217171666Y-114628259D01*
X217171666Y-114628259D02*
X217314523Y-114675878D01*
X217314523Y-114675878D02*
X217362142Y-114723497D01*
X217743095Y-114723497D02*
X217790714Y-114675878D01*
X217790714Y-114675878D02*
X217885952Y-114628259D01*
X217885952Y-114628259D02*
X218124047Y-114628259D01*
X218124047Y-114628259D02*
X218219285Y-114675878D01*
X218219285Y-114675878D02*
X218266904Y-114723497D01*
X218266904Y-114723497D02*
X218314523Y-114818735D01*
X218314523Y-114818735D02*
X218314523Y-114913973D01*
X218314523Y-114913973D02*
X218266904Y-115056830D01*
X218266904Y-115056830D02*
X217695476Y-115628259D01*
X217695476Y-115628259D02*
X218314523Y-115628259D01*
X218790714Y-115628259D02*
X218981190Y-115628259D01*
X218981190Y-115628259D02*
X219076428Y-115580640D01*
X219076428Y-115580640D02*
X219124047Y-115533020D01*
X219124047Y-115533020D02*
X219219285Y-115390163D01*
X219219285Y-115390163D02*
X219266904Y-115199687D01*
X219266904Y-115199687D02*
X219266904Y-114818735D01*
X219266904Y-114818735D02*
X219219285Y-114723497D01*
X219219285Y-114723497D02*
X219171666Y-114675878D01*
X219171666Y-114675878D02*
X219076428Y-114628259D01*
X219076428Y-114628259D02*
X218885952Y-114628259D01*
X218885952Y-114628259D02*
X218790714Y-114675878D01*
X218790714Y-114675878D02*
X218743095Y-114723497D01*
X218743095Y-114723497D02*
X218695476Y-114818735D01*
X218695476Y-114818735D02*
X218695476Y-115056830D01*
X218695476Y-115056830D02*
X218743095Y-115152068D01*
X218743095Y-115152068D02*
X218790714Y-115199687D01*
X218790714Y-115199687D02*
X218885952Y-115247306D01*
X218885952Y-115247306D02*
X219076428Y-115247306D01*
X219076428Y-115247306D02*
X219171666Y-115199687D01*
X219171666Y-115199687D02*
X219219285Y-115152068D01*
X219219285Y-115152068D02*
X219266904Y-115056830D01*
X224809761Y-132858020D02*
X224762142Y-132905640D01*
X224762142Y-132905640D02*
X224619285Y-132953259D01*
X224619285Y-132953259D02*
X224524047Y-132953259D01*
X224524047Y-132953259D02*
X224381190Y-132905640D01*
X224381190Y-132905640D02*
X224285952Y-132810401D01*
X224285952Y-132810401D02*
X224238333Y-132715163D01*
X224238333Y-132715163D02*
X224190714Y-132524687D01*
X224190714Y-132524687D02*
X224190714Y-132381830D01*
X224190714Y-132381830D02*
X224238333Y-132191354D01*
X224238333Y-132191354D02*
X224285952Y-132096116D01*
X224285952Y-132096116D02*
X224381190Y-132000878D01*
X224381190Y-132000878D02*
X224524047Y-131953259D01*
X224524047Y-131953259D02*
X224619285Y-131953259D01*
X224619285Y-131953259D02*
X224762142Y-132000878D01*
X224762142Y-132000878D02*
X224809761Y-132048497D01*
X225190714Y-132048497D02*
X225238333Y-132000878D01*
X225238333Y-132000878D02*
X225333571Y-131953259D01*
X225333571Y-131953259D02*
X225571666Y-131953259D01*
X225571666Y-131953259D02*
X225666904Y-132000878D01*
X225666904Y-132000878D02*
X225714523Y-132048497D01*
X225714523Y-132048497D02*
X225762142Y-132143735D01*
X225762142Y-132143735D02*
X225762142Y-132238973D01*
X225762142Y-132238973D02*
X225714523Y-132381830D01*
X225714523Y-132381830D02*
X225143095Y-132953259D01*
X225143095Y-132953259D02*
X225762142Y-132953259D01*
X226095476Y-131953259D02*
X226714523Y-131953259D01*
X226714523Y-131953259D02*
X226381190Y-132334211D01*
X226381190Y-132334211D02*
X226524047Y-132334211D01*
X226524047Y-132334211D02*
X226619285Y-132381830D01*
X226619285Y-132381830D02*
X226666904Y-132429449D01*
X226666904Y-132429449D02*
X226714523Y-132524687D01*
X226714523Y-132524687D02*
X226714523Y-132762782D01*
X226714523Y-132762782D02*
X226666904Y-132858020D01*
X226666904Y-132858020D02*
X226619285Y-132905640D01*
X226619285Y-132905640D02*
X226524047Y-132953259D01*
X226524047Y-132953259D02*
X226238333Y-132953259D01*
X226238333Y-132953259D02*
X226143095Y-132905640D01*
X226143095Y-132905640D02*
X226095476Y-132858020D01*
X225057142Y-140948258D02*
X224723809Y-140472067D01*
X224485714Y-140948258D02*
X224485714Y-139948258D01*
X224485714Y-139948258D02*
X224866666Y-139948258D01*
X224866666Y-139948258D02*
X224961904Y-139995877D01*
X224961904Y-139995877D02*
X225009523Y-140043496D01*
X225009523Y-140043496D02*
X225057142Y-140138734D01*
X225057142Y-140138734D02*
X225057142Y-140281591D01*
X225057142Y-140281591D02*
X225009523Y-140376829D01*
X225009523Y-140376829D02*
X224961904Y-140424448D01*
X224961904Y-140424448D02*
X224866666Y-140472067D01*
X224866666Y-140472067D02*
X224485714Y-140472067D01*
X225390476Y-139948258D02*
X226009523Y-139948258D01*
X226009523Y-139948258D02*
X225676190Y-140329210D01*
X225676190Y-140329210D02*
X225819047Y-140329210D01*
X225819047Y-140329210D02*
X225914285Y-140376829D01*
X225914285Y-140376829D02*
X225961904Y-140424448D01*
X225961904Y-140424448D02*
X226009523Y-140519686D01*
X226009523Y-140519686D02*
X226009523Y-140757781D01*
X226009523Y-140757781D02*
X225961904Y-140853019D01*
X225961904Y-140853019D02*
X225914285Y-140900639D01*
X225914285Y-140900639D02*
X225819047Y-140948258D01*
X225819047Y-140948258D02*
X225533333Y-140948258D01*
X225533333Y-140948258D02*
X225438095Y-140900639D01*
X225438095Y-140900639D02*
X225390476Y-140853019D01*
X226628571Y-139948258D02*
X226723809Y-139948258D01*
X226723809Y-139948258D02*
X226819047Y-139995877D01*
X226819047Y-139995877D02*
X226866666Y-140043496D01*
X226866666Y-140043496D02*
X226914285Y-140138734D01*
X226914285Y-140138734D02*
X226961904Y-140329210D01*
X226961904Y-140329210D02*
X226961904Y-140567305D01*
X226961904Y-140567305D02*
X226914285Y-140757781D01*
X226914285Y-140757781D02*
X226866666Y-140853019D01*
X226866666Y-140853019D02*
X226819047Y-140900639D01*
X226819047Y-140900639D02*
X226723809Y-140948258D01*
X226723809Y-140948258D02*
X226628571Y-140948258D01*
X226628571Y-140948258D02*
X226533333Y-140900639D01*
X226533333Y-140900639D02*
X226485714Y-140853019D01*
X226485714Y-140853019D02*
X226438095Y-140757781D01*
X226438095Y-140757781D02*
X226390476Y-140567305D01*
X226390476Y-140567305D02*
X226390476Y-140329210D01*
X226390476Y-140329210D02*
X226438095Y-140138734D01*
X226438095Y-140138734D02*
X226485714Y-140043496D01*
X226485714Y-140043496D02*
X226533333Y-139995877D01*
X226533333Y-139995877D02*
X226628571Y-139948258D01*
X226466666Y-105934449D02*
X226133333Y-105934449D01*
X226133333Y-106458259D02*
X226133333Y-105458259D01*
X226133333Y-105458259D02*
X226609523Y-105458259D01*
X227323809Y-105934449D02*
X227466666Y-105982068D01*
X227466666Y-105982068D02*
X227514285Y-106029687D01*
X227514285Y-106029687D02*
X227561904Y-106124925D01*
X227561904Y-106124925D02*
X227561904Y-106267782D01*
X227561904Y-106267782D02*
X227514285Y-106363020D01*
X227514285Y-106363020D02*
X227466666Y-106410640D01*
X227466666Y-106410640D02*
X227371428Y-106458259D01*
X227371428Y-106458259D02*
X226990476Y-106458259D01*
X226990476Y-106458259D02*
X226990476Y-105458259D01*
X226990476Y-105458259D02*
X227323809Y-105458259D01*
X227323809Y-105458259D02*
X227419047Y-105505878D01*
X227419047Y-105505878D02*
X227466666Y-105553497D01*
X227466666Y-105553497D02*
X227514285Y-105648735D01*
X227514285Y-105648735D02*
X227514285Y-105743973D01*
X227514285Y-105743973D02*
X227466666Y-105839211D01*
X227466666Y-105839211D02*
X227419047Y-105886830D01*
X227419047Y-105886830D02*
X227323809Y-105934449D01*
X227323809Y-105934449D02*
X226990476Y-105934449D01*
X227942857Y-105553497D02*
X227990476Y-105505878D01*
X227990476Y-105505878D02*
X228085714Y-105458259D01*
X228085714Y-105458259D02*
X228323809Y-105458259D01*
X228323809Y-105458259D02*
X228419047Y-105505878D01*
X228419047Y-105505878D02*
X228466666Y-105553497D01*
X228466666Y-105553497D02*
X228514285Y-105648735D01*
X228514285Y-105648735D02*
X228514285Y-105743973D01*
X228514285Y-105743973D02*
X228466666Y-105886830D01*
X228466666Y-105886830D02*
X227895238Y-106458259D01*
X227895238Y-106458259D02*
X228514285Y-106458259D01*
X230457142Y-128558259D02*
X230123809Y-128082068D01*
X229885714Y-128558259D02*
X229885714Y-127558259D01*
X229885714Y-127558259D02*
X230266666Y-127558259D01*
X230266666Y-127558259D02*
X230361904Y-127605878D01*
X230361904Y-127605878D02*
X230409523Y-127653497D01*
X230409523Y-127653497D02*
X230457142Y-127748735D01*
X230457142Y-127748735D02*
X230457142Y-127891592D01*
X230457142Y-127891592D02*
X230409523Y-127986830D01*
X230409523Y-127986830D02*
X230361904Y-128034449D01*
X230361904Y-128034449D02*
X230266666Y-128082068D01*
X230266666Y-128082068D02*
X229885714Y-128082068D01*
X230838095Y-127653497D02*
X230885714Y-127605878D01*
X230885714Y-127605878D02*
X230980952Y-127558259D01*
X230980952Y-127558259D02*
X231219047Y-127558259D01*
X231219047Y-127558259D02*
X231314285Y-127605878D01*
X231314285Y-127605878D02*
X231361904Y-127653497D01*
X231361904Y-127653497D02*
X231409523Y-127748735D01*
X231409523Y-127748735D02*
X231409523Y-127843973D01*
X231409523Y-127843973D02*
X231361904Y-127986830D01*
X231361904Y-127986830D02*
X230790476Y-128558259D01*
X230790476Y-128558259D02*
X231409523Y-128558259D01*
X231885714Y-128558259D02*
X232076190Y-128558259D01*
X232076190Y-128558259D02*
X232171428Y-128510640D01*
X232171428Y-128510640D02*
X232219047Y-128463020D01*
X232219047Y-128463020D02*
X232314285Y-128320163D01*
X232314285Y-128320163D02*
X232361904Y-128129687D01*
X232361904Y-128129687D02*
X232361904Y-127748735D01*
X232361904Y-127748735D02*
X232314285Y-127653497D01*
X232314285Y-127653497D02*
X232266666Y-127605878D01*
X232266666Y-127605878D02*
X232171428Y-127558259D01*
X232171428Y-127558259D02*
X231980952Y-127558259D01*
X231980952Y-127558259D02*
X231885714Y-127605878D01*
X231885714Y-127605878D02*
X231838095Y-127653497D01*
X231838095Y-127653497D02*
X231790476Y-127748735D01*
X231790476Y-127748735D02*
X231790476Y-127986830D01*
X231790476Y-127986830D02*
X231838095Y-128082068D01*
X231838095Y-128082068D02*
X231885714Y-128129687D01*
X231885714Y-128129687D02*
X231980952Y-128177306D01*
X231980952Y-128177306D02*
X232171428Y-128177306D01*
X232171428Y-128177306D02*
X232266666Y-128129687D01*
X232266666Y-128129687D02*
X232314285Y-128082068D01*
X232314285Y-128082068D02*
X232361904Y-127986830D01*
X230457142Y-140948258D02*
X230123809Y-140472067D01*
X229885714Y-140948258D02*
X229885714Y-139948258D01*
X229885714Y-139948258D02*
X230266666Y-139948258D01*
X230266666Y-139948258D02*
X230361904Y-139995877D01*
X230361904Y-139995877D02*
X230409523Y-140043496D01*
X230409523Y-140043496D02*
X230457142Y-140138734D01*
X230457142Y-140138734D02*
X230457142Y-140281591D01*
X230457142Y-140281591D02*
X230409523Y-140376829D01*
X230409523Y-140376829D02*
X230361904Y-140424448D01*
X230361904Y-140424448D02*
X230266666Y-140472067D01*
X230266666Y-140472067D02*
X229885714Y-140472067D01*
X230790476Y-139948258D02*
X231409523Y-139948258D01*
X231409523Y-139948258D02*
X231076190Y-140329210D01*
X231076190Y-140329210D02*
X231219047Y-140329210D01*
X231219047Y-140329210D02*
X231314285Y-140376829D01*
X231314285Y-140376829D02*
X231361904Y-140424448D01*
X231361904Y-140424448D02*
X231409523Y-140519686D01*
X231409523Y-140519686D02*
X231409523Y-140757781D01*
X231409523Y-140757781D02*
X231361904Y-140853019D01*
X231361904Y-140853019D02*
X231314285Y-140900639D01*
X231314285Y-140900639D02*
X231219047Y-140948258D01*
X231219047Y-140948258D02*
X230933333Y-140948258D01*
X230933333Y-140948258D02*
X230838095Y-140900639D01*
X230838095Y-140900639D02*
X230790476Y-140853019D01*
X232361904Y-140948258D02*
X231790476Y-140948258D01*
X232076190Y-140948258D02*
X232076190Y-139948258D01*
X232076190Y-139948258D02*
X231980952Y-140091115D01*
X231980952Y-140091115D02*
X231885714Y-140186353D01*
X231885714Y-140186353D02*
X231790476Y-140233972D01*
X230704523Y-136458020D02*
X230656904Y-136505640D01*
X230656904Y-136505640D02*
X230514047Y-136553259D01*
X230514047Y-136553259D02*
X230418809Y-136553259D01*
X230418809Y-136553259D02*
X230275952Y-136505640D01*
X230275952Y-136505640D02*
X230180714Y-136410401D01*
X230180714Y-136410401D02*
X230133095Y-136315163D01*
X230133095Y-136315163D02*
X230085476Y-136124687D01*
X230085476Y-136124687D02*
X230085476Y-135981830D01*
X230085476Y-135981830D02*
X230133095Y-135791354D01*
X230133095Y-135791354D02*
X230180714Y-135696116D01*
X230180714Y-135696116D02*
X230275952Y-135600878D01*
X230275952Y-135600878D02*
X230418809Y-135553259D01*
X230418809Y-135553259D02*
X230514047Y-135553259D01*
X230514047Y-135553259D02*
X230656904Y-135600878D01*
X230656904Y-135600878D02*
X230704523Y-135648497D01*
X231085476Y-135648497D02*
X231133095Y-135600878D01*
X231133095Y-135600878D02*
X231228333Y-135553259D01*
X231228333Y-135553259D02*
X231466428Y-135553259D01*
X231466428Y-135553259D02*
X231561666Y-135600878D01*
X231561666Y-135600878D02*
X231609285Y-135648497D01*
X231609285Y-135648497D02*
X231656904Y-135743735D01*
X231656904Y-135743735D02*
X231656904Y-135838973D01*
X231656904Y-135838973D02*
X231609285Y-135981830D01*
X231609285Y-135981830D02*
X231037857Y-136553259D01*
X231037857Y-136553259D02*
X231656904Y-136553259D01*
X232514047Y-135886592D02*
X232514047Y-136553259D01*
X232275952Y-135505640D02*
X232037857Y-136219925D01*
X232037857Y-136219925D02*
X232656904Y-136219925D01*
X233285714Y-125448259D02*
X233285714Y-124448259D01*
X233285714Y-124448259D02*
X233523809Y-124448259D01*
X233523809Y-124448259D02*
X233666666Y-124495878D01*
X233666666Y-124495878D02*
X233761904Y-124591116D01*
X233761904Y-124591116D02*
X233809523Y-124686354D01*
X233809523Y-124686354D02*
X233857142Y-124876830D01*
X233857142Y-124876830D02*
X233857142Y-125019687D01*
X233857142Y-125019687D02*
X233809523Y-125210163D01*
X233809523Y-125210163D02*
X233761904Y-125305401D01*
X233761904Y-125305401D02*
X233666666Y-125400640D01*
X233666666Y-125400640D02*
X233523809Y-125448259D01*
X233523809Y-125448259D02*
X233285714Y-125448259D01*
X234809523Y-125448259D02*
X234238095Y-125448259D01*
X234523809Y-125448259D02*
X234523809Y-124448259D01*
X234523809Y-124448259D02*
X234428571Y-124591116D01*
X234428571Y-124591116D02*
X234333333Y-124686354D01*
X234333333Y-124686354D02*
X234238095Y-124733973D01*
X235428571Y-124448259D02*
X235523809Y-124448259D01*
X235523809Y-124448259D02*
X235619047Y-124495878D01*
X235619047Y-124495878D02*
X235666666Y-124543497D01*
X235666666Y-124543497D02*
X235714285Y-124638735D01*
X235714285Y-124638735D02*
X235761904Y-124829211D01*
X235761904Y-124829211D02*
X235761904Y-125067306D01*
X235761904Y-125067306D02*
X235714285Y-125257782D01*
X235714285Y-125257782D02*
X235666666Y-125353020D01*
X235666666Y-125353020D02*
X235619047Y-125400640D01*
X235619047Y-125400640D02*
X235523809Y-125448259D01*
X235523809Y-125448259D02*
X235428571Y-125448259D01*
X235428571Y-125448259D02*
X235333333Y-125400640D01*
X235333333Y-125400640D02*
X235285714Y-125353020D01*
X235285714Y-125353020D02*
X235238095Y-125257782D01*
X235238095Y-125257782D02*
X235190476Y-125067306D01*
X235190476Y-125067306D02*
X235190476Y-124829211D01*
X235190476Y-124829211D02*
X235238095Y-124638735D01*
X235238095Y-124638735D02*
X235285714Y-124543497D01*
X235285714Y-124543497D02*
X235333333Y-124495878D01*
X235333333Y-124495878D02*
X235428571Y-124448259D01*
X234032142Y-115533020D02*
X233984523Y-115580640D01*
X233984523Y-115580640D02*
X233841666Y-115628259D01*
X233841666Y-115628259D02*
X233746428Y-115628259D01*
X233746428Y-115628259D02*
X233603571Y-115580640D01*
X233603571Y-115580640D02*
X233508333Y-115485401D01*
X233508333Y-115485401D02*
X233460714Y-115390163D01*
X233460714Y-115390163D02*
X233413095Y-115199687D01*
X233413095Y-115199687D02*
X233413095Y-115056830D01*
X233413095Y-115056830D02*
X233460714Y-114866354D01*
X233460714Y-114866354D02*
X233508333Y-114771116D01*
X233508333Y-114771116D02*
X233603571Y-114675878D01*
X233603571Y-114675878D02*
X233746428Y-114628259D01*
X233746428Y-114628259D02*
X233841666Y-114628259D01*
X233841666Y-114628259D02*
X233984523Y-114675878D01*
X233984523Y-114675878D02*
X234032142Y-114723497D01*
X234413095Y-114723497D02*
X234460714Y-114675878D01*
X234460714Y-114675878D02*
X234555952Y-114628259D01*
X234555952Y-114628259D02*
X234794047Y-114628259D01*
X234794047Y-114628259D02*
X234889285Y-114675878D01*
X234889285Y-114675878D02*
X234936904Y-114723497D01*
X234936904Y-114723497D02*
X234984523Y-114818735D01*
X234984523Y-114818735D02*
X234984523Y-114913973D01*
X234984523Y-114913973D02*
X234936904Y-115056830D01*
X234936904Y-115056830D02*
X234365476Y-115628259D01*
X234365476Y-115628259D02*
X234984523Y-115628259D01*
X235555952Y-115056830D02*
X235460714Y-115009211D01*
X235460714Y-115009211D02*
X235413095Y-114961592D01*
X235413095Y-114961592D02*
X235365476Y-114866354D01*
X235365476Y-114866354D02*
X235365476Y-114818735D01*
X235365476Y-114818735D02*
X235413095Y-114723497D01*
X235413095Y-114723497D02*
X235460714Y-114675878D01*
X235460714Y-114675878D02*
X235555952Y-114628259D01*
X235555952Y-114628259D02*
X235746428Y-114628259D01*
X235746428Y-114628259D02*
X235841666Y-114675878D01*
X235841666Y-114675878D02*
X235889285Y-114723497D01*
X235889285Y-114723497D02*
X235936904Y-114818735D01*
X235936904Y-114818735D02*
X235936904Y-114866354D01*
X235936904Y-114866354D02*
X235889285Y-114961592D01*
X235889285Y-114961592D02*
X235841666Y-115009211D01*
X235841666Y-115009211D02*
X235746428Y-115056830D01*
X235746428Y-115056830D02*
X235555952Y-115056830D01*
X235555952Y-115056830D02*
X235460714Y-115104449D01*
X235460714Y-115104449D02*
X235413095Y-115152068D01*
X235413095Y-115152068D02*
X235365476Y-115247306D01*
X235365476Y-115247306D02*
X235365476Y-115437782D01*
X235365476Y-115437782D02*
X235413095Y-115533020D01*
X235413095Y-115533020D02*
X235460714Y-115580640D01*
X235460714Y-115580640D02*
X235555952Y-115628259D01*
X235555952Y-115628259D02*
X235746428Y-115628259D01*
X235746428Y-115628259D02*
X235841666Y-115580640D01*
X235841666Y-115580640D02*
X235889285Y-115533020D01*
X235889285Y-115533020D02*
X235936904Y-115437782D01*
X235936904Y-115437782D02*
X235936904Y-115247306D01*
X235936904Y-115247306D02*
X235889285Y-115152068D01*
X235889285Y-115152068D02*
X235841666Y-115104449D01*
X235841666Y-115104449D02*
X235746428Y-115056830D01*
X238523095Y-130253259D02*
X238523095Y-131062782D01*
X238523095Y-131062782D02*
X238570714Y-131158020D01*
X238570714Y-131158020D02*
X238618333Y-131205640D01*
X238618333Y-131205640D02*
X238713571Y-131253259D01*
X238713571Y-131253259D02*
X238904047Y-131253259D01*
X238904047Y-131253259D02*
X238999285Y-131205640D01*
X238999285Y-131205640D02*
X239046904Y-131158020D01*
X239046904Y-131158020D02*
X239094523Y-131062782D01*
X239094523Y-131062782D02*
X239094523Y-130253259D01*
X239713571Y-130681830D02*
X239618333Y-130634211D01*
X239618333Y-130634211D02*
X239570714Y-130586592D01*
X239570714Y-130586592D02*
X239523095Y-130491354D01*
X239523095Y-130491354D02*
X239523095Y-130443735D01*
X239523095Y-130443735D02*
X239570714Y-130348497D01*
X239570714Y-130348497D02*
X239618333Y-130300878D01*
X239618333Y-130300878D02*
X239713571Y-130253259D01*
X239713571Y-130253259D02*
X239904047Y-130253259D01*
X239904047Y-130253259D02*
X239999285Y-130300878D01*
X239999285Y-130300878D02*
X240046904Y-130348497D01*
X240046904Y-130348497D02*
X240094523Y-130443735D01*
X240094523Y-130443735D02*
X240094523Y-130491354D01*
X240094523Y-130491354D02*
X240046904Y-130586592D01*
X240046904Y-130586592D02*
X239999285Y-130634211D01*
X239999285Y-130634211D02*
X239904047Y-130681830D01*
X239904047Y-130681830D02*
X239713571Y-130681830D01*
X239713571Y-130681830D02*
X239618333Y-130729449D01*
X239618333Y-130729449D02*
X239570714Y-130777068D01*
X239570714Y-130777068D02*
X239523095Y-130872306D01*
X239523095Y-130872306D02*
X239523095Y-131062782D01*
X239523095Y-131062782D02*
X239570714Y-131158020D01*
X239570714Y-131158020D02*
X239618333Y-131205640D01*
X239618333Y-131205640D02*
X239713571Y-131253259D01*
X239713571Y-131253259D02*
X239904047Y-131253259D01*
X239904047Y-131253259D02*
X239999285Y-131205640D01*
X239999285Y-131205640D02*
X240046904Y-131158020D01*
X240046904Y-131158020D02*
X240094523Y-131062782D01*
X240094523Y-131062782D02*
X240094523Y-130872306D01*
X240094523Y-130872306D02*
X240046904Y-130777068D01*
X240046904Y-130777068D02*
X239999285Y-130729449D01*
X239999285Y-130729449D02*
X239904047Y-130681830D01*
X240957142Y-124433020D02*
X240909523Y-124480640D01*
X240909523Y-124480640D02*
X240766666Y-124528259D01*
X240766666Y-124528259D02*
X240671428Y-124528259D01*
X240671428Y-124528259D02*
X240528571Y-124480640D01*
X240528571Y-124480640D02*
X240433333Y-124385401D01*
X240433333Y-124385401D02*
X240385714Y-124290163D01*
X240385714Y-124290163D02*
X240338095Y-124099687D01*
X240338095Y-124099687D02*
X240338095Y-123956830D01*
X240338095Y-123956830D02*
X240385714Y-123766354D01*
X240385714Y-123766354D02*
X240433333Y-123671116D01*
X240433333Y-123671116D02*
X240528571Y-123575878D01*
X240528571Y-123575878D02*
X240671428Y-123528259D01*
X240671428Y-123528259D02*
X240766666Y-123528259D01*
X240766666Y-123528259D02*
X240909523Y-123575878D01*
X240909523Y-123575878D02*
X240957142Y-123623497D01*
X241909523Y-124528259D02*
X241338095Y-124528259D01*
X241623809Y-124528259D02*
X241623809Y-123528259D01*
X241623809Y-123528259D02*
X241528571Y-123671116D01*
X241528571Y-123671116D02*
X241433333Y-123766354D01*
X241433333Y-123766354D02*
X241338095Y-123813973D01*
X242766666Y-123861592D02*
X242766666Y-124528259D01*
X242528571Y-123480640D02*
X242290476Y-124194925D01*
X242290476Y-124194925D02*
X242909523Y-124194925D01*
X246186665Y-115668259D02*
X246186665Y-116382544D01*
X246186665Y-116382544D02*
X246139046Y-116525401D01*
X246139046Y-116525401D02*
X246043808Y-116620640D01*
X246043808Y-116620640D02*
X245900951Y-116668259D01*
X245900951Y-116668259D02*
X245805713Y-116668259D01*
X247139046Y-115668259D02*
X246662856Y-115668259D01*
X246662856Y-115668259D02*
X246615237Y-116144449D01*
X246615237Y-116144449D02*
X246662856Y-116096830D01*
X246662856Y-116096830D02*
X246758094Y-116049211D01*
X246758094Y-116049211D02*
X246996189Y-116049211D01*
X246996189Y-116049211D02*
X247091427Y-116096830D01*
X247091427Y-116096830D02*
X247139046Y-116144449D01*
X247139046Y-116144449D02*
X247186665Y-116239687D01*
X247186665Y-116239687D02*
X247186665Y-116477782D01*
X247186665Y-116477782D02*
X247139046Y-116573020D01*
X247139046Y-116573020D02*
X247091427Y-116620640D01*
X247091427Y-116620640D02*
X246996189Y-116668259D01*
X246996189Y-116668259D02*
X246758094Y-116668259D01*
X246758094Y-116668259D02*
X246662856Y-116620640D01*
X246662856Y-116620640D02*
X246615237Y-116573020D01*
X250431905Y-125448259D02*
X250431905Y-124448259D01*
X250431905Y-124448259D02*
X250670000Y-124448259D01*
X250670000Y-124448259D02*
X250812857Y-124495878D01*
X250812857Y-124495878D02*
X250908095Y-124591116D01*
X250908095Y-124591116D02*
X250955714Y-124686354D01*
X250955714Y-124686354D02*
X251003333Y-124876830D01*
X251003333Y-124876830D02*
X251003333Y-125019687D01*
X251003333Y-125019687D02*
X250955714Y-125210163D01*
X250955714Y-125210163D02*
X250908095Y-125305401D01*
X250908095Y-125305401D02*
X250812857Y-125400640D01*
X250812857Y-125400640D02*
X250670000Y-125448259D01*
X250670000Y-125448259D02*
X250431905Y-125448259D01*
X251479524Y-125448259D02*
X251670000Y-125448259D01*
X251670000Y-125448259D02*
X251765238Y-125400640D01*
X251765238Y-125400640D02*
X251812857Y-125353020D01*
X251812857Y-125353020D02*
X251908095Y-125210163D01*
X251908095Y-125210163D02*
X251955714Y-125019687D01*
X251955714Y-125019687D02*
X251955714Y-124638735D01*
X251955714Y-124638735D02*
X251908095Y-124543497D01*
X251908095Y-124543497D02*
X251860476Y-124495878D01*
X251860476Y-124495878D02*
X251765238Y-124448259D01*
X251765238Y-124448259D02*
X251574762Y-124448259D01*
X251574762Y-124448259D02*
X251479524Y-124495878D01*
X251479524Y-124495878D02*
X251431905Y-124543497D01*
X251431905Y-124543497D02*
X251384286Y-124638735D01*
X251384286Y-124638735D02*
X251384286Y-124876830D01*
X251384286Y-124876830D02*
X251431905Y-124972068D01*
X251431905Y-124972068D02*
X251479524Y-125019687D01*
X251479524Y-125019687D02*
X251574762Y-125067306D01*
X251574762Y-125067306D02*
X251765238Y-125067306D01*
X251765238Y-125067306D02*
X251860476Y-125019687D01*
X251860476Y-125019687D02*
X251908095Y-124972068D01*
X251908095Y-124972068D02*
X251955714Y-124876830D01*
X251009761Y-140453259D02*
X250676428Y-139977068D01*
X250438333Y-140453259D02*
X250438333Y-139453259D01*
X250438333Y-139453259D02*
X250819285Y-139453259D01*
X250819285Y-139453259D02*
X250914523Y-139500878D01*
X250914523Y-139500878D02*
X250962142Y-139548497D01*
X250962142Y-139548497D02*
X251009761Y-139643735D01*
X251009761Y-139643735D02*
X251009761Y-139786592D01*
X251009761Y-139786592D02*
X250962142Y-139881830D01*
X250962142Y-139881830D02*
X250914523Y-139929449D01*
X250914523Y-139929449D02*
X250819285Y-139977068D01*
X250819285Y-139977068D02*
X250438333Y-139977068D01*
X251390714Y-139548497D02*
X251438333Y-139500878D01*
X251438333Y-139500878D02*
X251533571Y-139453259D01*
X251533571Y-139453259D02*
X251771666Y-139453259D01*
X251771666Y-139453259D02*
X251866904Y-139500878D01*
X251866904Y-139500878D02*
X251914523Y-139548497D01*
X251914523Y-139548497D02*
X251962142Y-139643735D01*
X251962142Y-139643735D02*
X251962142Y-139738973D01*
X251962142Y-139738973D02*
X251914523Y-139881830D01*
X251914523Y-139881830D02*
X251343095Y-140453259D01*
X251343095Y-140453259D02*
X251962142Y-140453259D01*
X252819285Y-139786592D02*
X252819285Y-140453259D01*
X252581190Y-139405640D02*
X252343095Y-140119925D01*
X252343095Y-140119925D02*
X252962142Y-140119925D01*
X267101905Y-125448259D02*
X267101905Y-124448259D01*
X267101905Y-124448259D02*
X267340000Y-124448259D01*
X267340000Y-124448259D02*
X267482857Y-124495878D01*
X267482857Y-124495878D02*
X267578095Y-124591116D01*
X267578095Y-124591116D02*
X267625714Y-124686354D01*
X267625714Y-124686354D02*
X267673333Y-124876830D01*
X267673333Y-124876830D02*
X267673333Y-125019687D01*
X267673333Y-125019687D02*
X267625714Y-125210163D01*
X267625714Y-125210163D02*
X267578095Y-125305401D01*
X267578095Y-125305401D02*
X267482857Y-125400640D01*
X267482857Y-125400640D02*
X267340000Y-125448259D01*
X267340000Y-125448259D02*
X267101905Y-125448259D01*
X268244762Y-124876830D02*
X268149524Y-124829211D01*
X268149524Y-124829211D02*
X268101905Y-124781592D01*
X268101905Y-124781592D02*
X268054286Y-124686354D01*
X268054286Y-124686354D02*
X268054286Y-124638735D01*
X268054286Y-124638735D02*
X268101905Y-124543497D01*
X268101905Y-124543497D02*
X268149524Y-124495878D01*
X268149524Y-124495878D02*
X268244762Y-124448259D01*
X268244762Y-124448259D02*
X268435238Y-124448259D01*
X268435238Y-124448259D02*
X268530476Y-124495878D01*
X268530476Y-124495878D02*
X268578095Y-124543497D01*
X268578095Y-124543497D02*
X268625714Y-124638735D01*
X268625714Y-124638735D02*
X268625714Y-124686354D01*
X268625714Y-124686354D02*
X268578095Y-124781592D01*
X268578095Y-124781592D02*
X268530476Y-124829211D01*
X268530476Y-124829211D02*
X268435238Y-124876830D01*
X268435238Y-124876830D02*
X268244762Y-124876830D01*
X268244762Y-124876830D02*
X268149524Y-124924449D01*
X268149524Y-124924449D02*
X268101905Y-124972068D01*
X268101905Y-124972068D02*
X268054286Y-125067306D01*
X268054286Y-125067306D02*
X268054286Y-125257782D01*
X268054286Y-125257782D02*
X268101905Y-125353020D01*
X268101905Y-125353020D02*
X268149524Y-125400640D01*
X268149524Y-125400640D02*
X268244762Y-125448259D01*
X268244762Y-125448259D02*
X268435238Y-125448259D01*
X268435238Y-125448259D02*
X268530476Y-125400640D01*
X268530476Y-125400640D02*
X268578095Y-125353020D01*
X268578095Y-125353020D02*
X268625714Y-125257782D01*
X268625714Y-125257782D02*
X268625714Y-125067306D01*
X268625714Y-125067306D02*
X268578095Y-124972068D01*
X268578095Y-124972068D02*
X268530476Y-124924449D01*
X268530476Y-124924449D02*
X268435238Y-124876830D01*
X267372142Y-115533020D02*
X267324523Y-115580640D01*
X267324523Y-115580640D02*
X267181666Y-115628259D01*
X267181666Y-115628259D02*
X267086428Y-115628259D01*
X267086428Y-115628259D02*
X266943571Y-115580640D01*
X266943571Y-115580640D02*
X266848333Y-115485401D01*
X266848333Y-115485401D02*
X266800714Y-115390163D01*
X266800714Y-115390163D02*
X266753095Y-115199687D01*
X266753095Y-115199687D02*
X266753095Y-115056830D01*
X266753095Y-115056830D02*
X266800714Y-114866354D01*
X266800714Y-114866354D02*
X266848333Y-114771116D01*
X266848333Y-114771116D02*
X266943571Y-114675878D01*
X266943571Y-114675878D02*
X267086428Y-114628259D01*
X267086428Y-114628259D02*
X267181666Y-114628259D01*
X267181666Y-114628259D02*
X267324523Y-114675878D01*
X267324523Y-114675878D02*
X267372142Y-114723497D01*
X267753095Y-114723497D02*
X267800714Y-114675878D01*
X267800714Y-114675878D02*
X267895952Y-114628259D01*
X267895952Y-114628259D02*
X268134047Y-114628259D01*
X268134047Y-114628259D02*
X268229285Y-114675878D01*
X268229285Y-114675878D02*
X268276904Y-114723497D01*
X268276904Y-114723497D02*
X268324523Y-114818735D01*
X268324523Y-114818735D02*
X268324523Y-114913973D01*
X268324523Y-114913973D02*
X268276904Y-115056830D01*
X268276904Y-115056830D02*
X267705476Y-115628259D01*
X267705476Y-115628259D02*
X268324523Y-115628259D01*
X269181666Y-114628259D02*
X268991190Y-114628259D01*
X268991190Y-114628259D02*
X268895952Y-114675878D01*
X268895952Y-114675878D02*
X268848333Y-114723497D01*
X268848333Y-114723497D02*
X268753095Y-114866354D01*
X268753095Y-114866354D02*
X268705476Y-115056830D01*
X268705476Y-115056830D02*
X268705476Y-115437782D01*
X268705476Y-115437782D02*
X268753095Y-115533020D01*
X268753095Y-115533020D02*
X268800714Y-115580640D01*
X268800714Y-115580640D02*
X268895952Y-115628259D01*
X268895952Y-115628259D02*
X269086428Y-115628259D01*
X269086428Y-115628259D02*
X269181666Y-115580640D01*
X269181666Y-115580640D02*
X269229285Y-115533020D01*
X269229285Y-115533020D02*
X269276904Y-115437782D01*
X269276904Y-115437782D02*
X269276904Y-115199687D01*
X269276904Y-115199687D02*
X269229285Y-115104449D01*
X269229285Y-115104449D02*
X269181666Y-115056830D01*
X269181666Y-115056830D02*
X269086428Y-115009211D01*
X269086428Y-115009211D02*
X268895952Y-115009211D01*
X268895952Y-115009211D02*
X268800714Y-115056830D01*
X268800714Y-115056830D02*
X268753095Y-115104449D01*
X268753095Y-115104449D02*
X268705476Y-115199687D01*
X276487142Y-102313020D02*
X276439523Y-102360640D01*
X276439523Y-102360640D02*
X276296666Y-102408259D01*
X276296666Y-102408259D02*
X276201428Y-102408259D01*
X276201428Y-102408259D02*
X276058571Y-102360640D01*
X276058571Y-102360640D02*
X275963333Y-102265401D01*
X275963333Y-102265401D02*
X275915714Y-102170163D01*
X275915714Y-102170163D02*
X275868095Y-101979687D01*
X275868095Y-101979687D02*
X275868095Y-101836830D01*
X275868095Y-101836830D02*
X275915714Y-101646354D01*
X275915714Y-101646354D02*
X275963333Y-101551116D01*
X275963333Y-101551116D02*
X276058571Y-101455878D01*
X276058571Y-101455878D02*
X276201428Y-101408259D01*
X276201428Y-101408259D02*
X276296666Y-101408259D01*
X276296666Y-101408259D02*
X276439523Y-101455878D01*
X276439523Y-101455878D02*
X276487142Y-101503497D01*
X277439523Y-102408259D02*
X276868095Y-102408259D01*
X277153809Y-102408259D02*
X277153809Y-101408259D01*
X277153809Y-101408259D02*
X277058571Y-101551116D01*
X277058571Y-101551116D02*
X276963333Y-101646354D01*
X276963333Y-101646354D02*
X276868095Y-101693973D01*
X278391904Y-102408259D02*
X277820476Y-102408259D01*
X278106190Y-102408259D02*
X278106190Y-101408259D01*
X278106190Y-101408259D02*
X278010952Y-101551116D01*
X278010952Y-101551116D02*
X277915714Y-101646354D01*
X277915714Y-101646354D02*
X277820476Y-101693973D01*
X280557142Y-127813020D02*
X280509523Y-127860640D01*
X280509523Y-127860640D02*
X280366666Y-127908259D01*
X280366666Y-127908259D02*
X280271428Y-127908259D01*
X280271428Y-127908259D02*
X280128571Y-127860640D01*
X280128571Y-127860640D02*
X280033333Y-127765401D01*
X280033333Y-127765401D02*
X279985714Y-127670163D01*
X279985714Y-127670163D02*
X279938095Y-127479687D01*
X279938095Y-127479687D02*
X279938095Y-127336830D01*
X279938095Y-127336830D02*
X279985714Y-127146354D01*
X279985714Y-127146354D02*
X280033333Y-127051116D01*
X280033333Y-127051116D02*
X280128571Y-126955878D01*
X280128571Y-126955878D02*
X280271428Y-126908259D01*
X280271428Y-126908259D02*
X280366666Y-126908259D01*
X280366666Y-126908259D02*
X280509523Y-126955878D01*
X280509523Y-126955878D02*
X280557142Y-127003497D01*
X281509523Y-127908259D02*
X280938095Y-127908259D01*
X281223809Y-127908259D02*
X281223809Y-126908259D01*
X281223809Y-126908259D02*
X281128571Y-127051116D01*
X281128571Y-127051116D02*
X281033333Y-127146354D01*
X281033333Y-127146354D02*
X280938095Y-127193973D01*
X282128571Y-126908259D02*
X282223809Y-126908259D01*
X282223809Y-126908259D02*
X282319047Y-126955878D01*
X282319047Y-126955878D02*
X282366666Y-127003497D01*
X282366666Y-127003497D02*
X282414285Y-127098735D01*
X282414285Y-127098735D02*
X282461904Y-127289211D01*
X282461904Y-127289211D02*
X282461904Y-127527306D01*
X282461904Y-127527306D02*
X282414285Y-127717782D01*
X282414285Y-127717782D02*
X282366666Y-127813020D01*
X282366666Y-127813020D02*
X282319047Y-127860640D01*
X282319047Y-127860640D02*
X282223809Y-127908259D01*
X282223809Y-127908259D02*
X282128571Y-127908259D01*
X282128571Y-127908259D02*
X282033333Y-127860640D01*
X282033333Y-127860640D02*
X281985714Y-127813020D01*
X281985714Y-127813020D02*
X281938095Y-127717782D01*
X281938095Y-127717782D02*
X281890476Y-127527306D01*
X281890476Y-127527306D02*
X281890476Y-127289211D01*
X281890476Y-127289211D02*
X281938095Y-127098735D01*
X281938095Y-127098735D02*
X281985714Y-127003497D01*
X281985714Y-127003497D02*
X282033333Y-126955878D01*
X282033333Y-126955878D02*
X282128571Y-126908259D01*
X283771905Y-125448259D02*
X283771905Y-124448259D01*
X283771905Y-124448259D02*
X284010000Y-124448259D01*
X284010000Y-124448259D02*
X284152857Y-124495878D01*
X284152857Y-124495878D02*
X284248095Y-124591116D01*
X284248095Y-124591116D02*
X284295714Y-124686354D01*
X284295714Y-124686354D02*
X284343333Y-124876830D01*
X284343333Y-124876830D02*
X284343333Y-125019687D01*
X284343333Y-125019687D02*
X284295714Y-125210163D01*
X284295714Y-125210163D02*
X284248095Y-125305401D01*
X284248095Y-125305401D02*
X284152857Y-125400640D01*
X284152857Y-125400640D02*
X284010000Y-125448259D01*
X284010000Y-125448259D02*
X283771905Y-125448259D01*
X284676667Y-124448259D02*
X285343333Y-124448259D01*
X285343333Y-124448259D02*
X284914762Y-125448259D01*
X285263333Y-102858259D02*
X284787143Y-102858259D01*
X284787143Y-102858259D02*
X284787143Y-101858259D01*
X286120476Y-102858259D02*
X285549048Y-102858259D01*
X285834762Y-102858259D02*
X285834762Y-101858259D01*
X285834762Y-101858259D02*
X285739524Y-102001116D01*
X285739524Y-102001116D02*
X285644286Y-102096354D01*
X285644286Y-102096354D02*
X285549048Y-102143973D01*
X294068095Y-101153259D02*
X294068095Y-101962782D01*
X294068095Y-101962782D02*
X294115714Y-102058020D01*
X294115714Y-102058020D02*
X294163333Y-102105640D01*
X294163333Y-102105640D02*
X294258571Y-102153259D01*
X294258571Y-102153259D02*
X294449047Y-102153259D01*
X294449047Y-102153259D02*
X294544285Y-102105640D01*
X294544285Y-102105640D02*
X294591904Y-102058020D01*
X294591904Y-102058020D02*
X294639523Y-101962782D01*
X294639523Y-101962782D02*
X294639523Y-101153259D01*
X295591904Y-101153259D02*
X295115714Y-101153259D01*
X295115714Y-101153259D02*
X295068095Y-101629449D01*
X295068095Y-101629449D02*
X295115714Y-101581830D01*
X295115714Y-101581830D02*
X295210952Y-101534211D01*
X295210952Y-101534211D02*
X295449047Y-101534211D01*
X295449047Y-101534211D02*
X295544285Y-101581830D01*
X295544285Y-101581830D02*
X295591904Y-101629449D01*
X295591904Y-101629449D02*
X295639523Y-101724687D01*
X295639523Y-101724687D02*
X295639523Y-101962782D01*
X295639523Y-101962782D02*
X295591904Y-102058020D01*
X295591904Y-102058020D02*
X295544285Y-102105640D01*
X295544285Y-102105640D02*
X295449047Y-102153259D01*
X295449047Y-102153259D02*
X295210952Y-102153259D01*
X295210952Y-102153259D02*
X295115714Y-102105640D01*
X295115714Y-102105640D02*
X295068095Y-102058020D01*
X297057142Y-127713020D02*
X297009523Y-127760640D01*
X297009523Y-127760640D02*
X296866666Y-127808259D01*
X296866666Y-127808259D02*
X296771428Y-127808259D01*
X296771428Y-127808259D02*
X296628571Y-127760640D01*
X296628571Y-127760640D02*
X296533333Y-127665401D01*
X296533333Y-127665401D02*
X296485714Y-127570163D01*
X296485714Y-127570163D02*
X296438095Y-127379687D01*
X296438095Y-127379687D02*
X296438095Y-127236830D01*
X296438095Y-127236830D02*
X296485714Y-127046354D01*
X296485714Y-127046354D02*
X296533333Y-126951116D01*
X296533333Y-126951116D02*
X296628571Y-126855878D01*
X296628571Y-126855878D02*
X296771428Y-126808259D01*
X296771428Y-126808259D02*
X296866666Y-126808259D01*
X296866666Y-126808259D02*
X297009523Y-126855878D01*
X297009523Y-126855878D02*
X297057142Y-126903497D01*
X298009523Y-127808259D02*
X297438095Y-127808259D01*
X297723809Y-127808259D02*
X297723809Y-126808259D01*
X297723809Y-126808259D02*
X297628571Y-126951116D01*
X297628571Y-126951116D02*
X297533333Y-127046354D01*
X297533333Y-127046354D02*
X297438095Y-127093973D01*
X298390476Y-126903497D02*
X298438095Y-126855878D01*
X298438095Y-126855878D02*
X298533333Y-126808259D01*
X298533333Y-126808259D02*
X298771428Y-126808259D01*
X298771428Y-126808259D02*
X298866666Y-126855878D01*
X298866666Y-126855878D02*
X298914285Y-126903497D01*
X298914285Y-126903497D02*
X298961904Y-126998735D01*
X298961904Y-126998735D02*
X298961904Y-127093973D01*
X298961904Y-127093973D02*
X298914285Y-127236830D01*
X298914285Y-127236830D02*
X298342857Y-127808259D01*
X298342857Y-127808259D02*
X298961904Y-127808259D01*
X297957142Y-140478258D02*
X297623809Y-140002067D01*
X297385714Y-140478258D02*
X297385714Y-139478258D01*
X297385714Y-139478258D02*
X297766666Y-139478258D01*
X297766666Y-139478258D02*
X297861904Y-139525877D01*
X297861904Y-139525877D02*
X297909523Y-139573496D01*
X297909523Y-139573496D02*
X297957142Y-139668734D01*
X297957142Y-139668734D02*
X297957142Y-139811591D01*
X297957142Y-139811591D02*
X297909523Y-139906829D01*
X297909523Y-139906829D02*
X297861904Y-139954448D01*
X297861904Y-139954448D02*
X297766666Y-140002067D01*
X297766666Y-140002067D02*
X297385714Y-140002067D01*
X298909523Y-140478258D02*
X298338095Y-140478258D01*
X298623809Y-140478258D02*
X298623809Y-139478258D01*
X298623809Y-139478258D02*
X298528571Y-139621115D01*
X298528571Y-139621115D02*
X298433333Y-139716353D01*
X298433333Y-139716353D02*
X298338095Y-139763972D01*
X299861904Y-140478258D02*
X299290476Y-140478258D01*
X299576190Y-140478258D02*
X299576190Y-139478258D01*
X299576190Y-139478258D02*
X299480952Y-139621115D01*
X299480952Y-139621115D02*
X299385714Y-139716353D01*
X299385714Y-139716353D02*
X299290476Y-139763972D01*
X299379523Y-120953258D02*
X299379523Y-121667543D01*
X299379523Y-121667543D02*
X299331904Y-121810400D01*
X299331904Y-121810400D02*
X299236666Y-121905639D01*
X299236666Y-121905639D02*
X299093809Y-121953258D01*
X299093809Y-121953258D02*
X298998571Y-121953258D01*
X300379523Y-121953258D02*
X299808095Y-121953258D01*
X300093809Y-121953258D02*
X300093809Y-120953258D01*
X300093809Y-120953258D02*
X299998571Y-121096115D01*
X299998571Y-121096115D02*
X299903333Y-121191353D01*
X299903333Y-121191353D02*
X299808095Y-121238972D01*
X314033333Y-117828259D02*
X313700000Y-117352068D01*
X313461905Y-117828259D02*
X313461905Y-116828259D01*
X313461905Y-116828259D02*
X313842857Y-116828259D01*
X313842857Y-116828259D02*
X313938095Y-116875878D01*
X313938095Y-116875878D02*
X313985714Y-116923497D01*
X313985714Y-116923497D02*
X314033333Y-117018735D01*
X314033333Y-117018735D02*
X314033333Y-117161592D01*
X314033333Y-117161592D02*
X313985714Y-117256830D01*
X313985714Y-117256830D02*
X313938095Y-117304449D01*
X313938095Y-117304449D02*
X313842857Y-117352068D01*
X313842857Y-117352068D02*
X313461905Y-117352068D01*
X314985714Y-117828259D02*
X314414286Y-117828259D01*
X314700000Y-117828259D02*
X314700000Y-116828259D01*
X314700000Y-116828259D02*
X314604762Y-116971116D01*
X314604762Y-116971116D02*
X314509524Y-117066354D01*
X314509524Y-117066354D02*
X314414286Y-117113973D01*
X317033333Y-117828259D02*
X316700000Y-117352068D01*
X316461905Y-117828259D02*
X316461905Y-116828259D01*
X316461905Y-116828259D02*
X316842857Y-116828259D01*
X316842857Y-116828259D02*
X316938095Y-116875878D01*
X316938095Y-116875878D02*
X316985714Y-116923497D01*
X316985714Y-116923497D02*
X317033333Y-117018735D01*
X317033333Y-117018735D02*
X317033333Y-117161592D01*
X317033333Y-117161592D02*
X316985714Y-117256830D01*
X316985714Y-117256830D02*
X316938095Y-117304449D01*
X316938095Y-117304449D02*
X316842857Y-117352068D01*
X316842857Y-117352068D02*
X316461905Y-117352068D01*
X317414286Y-116923497D02*
X317461905Y-116875878D01*
X317461905Y-116875878D02*
X317557143Y-116828259D01*
X317557143Y-116828259D02*
X317795238Y-116828259D01*
X317795238Y-116828259D02*
X317890476Y-116875878D01*
X317890476Y-116875878D02*
X317938095Y-116923497D01*
X317938095Y-116923497D02*
X317985714Y-117018735D01*
X317985714Y-117018735D02*
X317985714Y-117113973D01*
X317985714Y-117113973D02*
X317938095Y-117256830D01*
X317938095Y-117256830D02*
X317366667Y-117828259D01*
X317366667Y-117828259D02*
X317985714Y-117828259D01*
X320033333Y-117828259D02*
X319700000Y-117352068D01*
X319461905Y-117828259D02*
X319461905Y-116828259D01*
X319461905Y-116828259D02*
X319842857Y-116828259D01*
X319842857Y-116828259D02*
X319938095Y-116875878D01*
X319938095Y-116875878D02*
X319985714Y-116923497D01*
X319985714Y-116923497D02*
X320033333Y-117018735D01*
X320033333Y-117018735D02*
X320033333Y-117161592D01*
X320033333Y-117161592D02*
X319985714Y-117256830D01*
X319985714Y-117256830D02*
X319938095Y-117304449D01*
X319938095Y-117304449D02*
X319842857Y-117352068D01*
X319842857Y-117352068D02*
X319461905Y-117352068D01*
X320366667Y-116828259D02*
X320985714Y-116828259D01*
X320985714Y-116828259D02*
X320652381Y-117209211D01*
X320652381Y-117209211D02*
X320795238Y-117209211D01*
X320795238Y-117209211D02*
X320890476Y-117256830D01*
X320890476Y-117256830D02*
X320938095Y-117304449D01*
X320938095Y-117304449D02*
X320985714Y-117399687D01*
X320985714Y-117399687D02*
X320985714Y-117637782D01*
X320985714Y-117637782D02*
X320938095Y-117733020D01*
X320938095Y-117733020D02*
X320890476Y-117780640D01*
X320890476Y-117780640D02*
X320795238Y-117828259D01*
X320795238Y-117828259D02*
X320509524Y-117828259D01*
X320509524Y-117828259D02*
X320414286Y-117780640D01*
X320414286Y-117780640D02*
X320366667Y-117733020D01*
X322409761Y-124058019D02*
X322362142Y-124105639D01*
X322362142Y-124105639D02*
X322219285Y-124153258D01*
X322219285Y-124153258D02*
X322124047Y-124153258D01*
X322124047Y-124153258D02*
X321981190Y-124105639D01*
X321981190Y-124105639D02*
X321885952Y-124010400D01*
X321885952Y-124010400D02*
X321838333Y-123915162D01*
X321838333Y-123915162D02*
X321790714Y-123724686D01*
X321790714Y-123724686D02*
X321790714Y-123581829D01*
X321790714Y-123581829D02*
X321838333Y-123391353D01*
X321838333Y-123391353D02*
X321885952Y-123296115D01*
X321885952Y-123296115D02*
X321981190Y-123200877D01*
X321981190Y-123200877D02*
X322124047Y-123153258D01*
X322124047Y-123153258D02*
X322219285Y-123153258D01*
X322219285Y-123153258D02*
X322362142Y-123200877D01*
X322362142Y-123200877D02*
X322409761Y-123248496D01*
X322743095Y-123153258D02*
X323362142Y-123153258D01*
X323362142Y-123153258D02*
X323028809Y-123534210D01*
X323028809Y-123534210D02*
X323171666Y-123534210D01*
X323171666Y-123534210D02*
X323266904Y-123581829D01*
X323266904Y-123581829D02*
X323314523Y-123629448D01*
X323314523Y-123629448D02*
X323362142Y-123724686D01*
X323362142Y-123724686D02*
X323362142Y-123962781D01*
X323362142Y-123962781D02*
X323314523Y-124058019D01*
X323314523Y-124058019D02*
X323266904Y-124105639D01*
X323266904Y-124105639D02*
X323171666Y-124153258D01*
X323171666Y-124153258D02*
X322885952Y-124153258D01*
X322885952Y-124153258D02*
X322790714Y-124105639D01*
X322790714Y-124105639D02*
X322743095Y-124058019D01*
X323933571Y-123581829D02*
X323838333Y-123534210D01*
X323838333Y-123534210D02*
X323790714Y-123486591D01*
X323790714Y-123486591D02*
X323743095Y-123391353D01*
X323743095Y-123391353D02*
X323743095Y-123343734D01*
X323743095Y-123343734D02*
X323790714Y-123248496D01*
X323790714Y-123248496D02*
X323838333Y-123200877D01*
X323838333Y-123200877D02*
X323933571Y-123153258D01*
X323933571Y-123153258D02*
X324124047Y-123153258D01*
X324124047Y-123153258D02*
X324219285Y-123200877D01*
X324219285Y-123200877D02*
X324266904Y-123248496D01*
X324266904Y-123248496D02*
X324314523Y-123343734D01*
X324314523Y-123343734D02*
X324314523Y-123391353D01*
X324314523Y-123391353D02*
X324266904Y-123486591D01*
X324266904Y-123486591D02*
X324219285Y-123534210D01*
X324219285Y-123534210D02*
X324124047Y-123581829D01*
X324124047Y-123581829D02*
X323933571Y-123581829D01*
X323933571Y-123581829D02*
X323838333Y-123629448D01*
X323838333Y-123629448D02*
X323790714Y-123677067D01*
X323790714Y-123677067D02*
X323743095Y-123772305D01*
X323743095Y-123772305D02*
X323743095Y-123962781D01*
X323743095Y-123962781D02*
X323790714Y-124058019D01*
X323790714Y-124058019D02*
X323838333Y-124105639D01*
X323838333Y-124105639D02*
X323933571Y-124153258D01*
X323933571Y-124153258D02*
X324124047Y-124153258D01*
X324124047Y-124153258D02*
X324219285Y-124105639D01*
X324219285Y-124105639D02*
X324266904Y-124058019D01*
X324266904Y-124058019D02*
X324314523Y-123962781D01*
X324314523Y-123962781D02*
X324314523Y-123772305D01*
X324314523Y-123772305D02*
X324266904Y-123677067D01*
X324266904Y-123677067D02*
X324219285Y-123629448D01*
X324219285Y-123629448D02*
X324124047Y-123581829D01*
X322654523Y-126653259D02*
X322321190Y-126177068D01*
X322083095Y-126653259D02*
X322083095Y-125653259D01*
X322083095Y-125653259D02*
X322464047Y-125653259D01*
X322464047Y-125653259D02*
X322559285Y-125700878D01*
X322559285Y-125700878D02*
X322606904Y-125748497D01*
X322606904Y-125748497D02*
X322654523Y-125843735D01*
X322654523Y-125843735D02*
X322654523Y-125986592D01*
X322654523Y-125986592D02*
X322606904Y-126081830D01*
X322606904Y-126081830D02*
X322559285Y-126129449D01*
X322559285Y-126129449D02*
X322464047Y-126177068D01*
X322464047Y-126177068D02*
X322083095Y-126177068D01*
X322987857Y-125653259D02*
X323606904Y-125653259D01*
X323606904Y-125653259D02*
X323273571Y-126034211D01*
X323273571Y-126034211D02*
X323416428Y-126034211D01*
X323416428Y-126034211D02*
X323511666Y-126081830D01*
X323511666Y-126081830D02*
X323559285Y-126129449D01*
X323559285Y-126129449D02*
X323606904Y-126224687D01*
X323606904Y-126224687D02*
X323606904Y-126462782D01*
X323606904Y-126462782D02*
X323559285Y-126558020D01*
X323559285Y-126558020D02*
X323511666Y-126605640D01*
X323511666Y-126605640D02*
X323416428Y-126653259D01*
X323416428Y-126653259D02*
X323130714Y-126653259D01*
X323130714Y-126653259D02*
X323035476Y-126605640D01*
X323035476Y-126605640D02*
X322987857Y-126558020D01*
X324464047Y-125653259D02*
X324273571Y-125653259D01*
X324273571Y-125653259D02*
X324178333Y-125700878D01*
X324178333Y-125700878D02*
X324130714Y-125748497D01*
X324130714Y-125748497D02*
X324035476Y-125891354D01*
X324035476Y-125891354D02*
X323987857Y-126081830D01*
X323987857Y-126081830D02*
X323987857Y-126462782D01*
X323987857Y-126462782D02*
X324035476Y-126558020D01*
X324035476Y-126558020D02*
X324083095Y-126605640D01*
X324083095Y-126605640D02*
X324178333Y-126653259D01*
X324178333Y-126653259D02*
X324368809Y-126653259D01*
X324368809Y-126653259D02*
X324464047Y-126605640D01*
X324464047Y-126605640D02*
X324511666Y-126558020D01*
X324511666Y-126558020D02*
X324559285Y-126462782D01*
X324559285Y-126462782D02*
X324559285Y-126224687D01*
X324559285Y-126224687D02*
X324511666Y-126129449D01*
X324511666Y-126129449D02*
X324464047Y-126081830D01*
X324464047Y-126081830D02*
X324368809Y-126034211D01*
X324368809Y-126034211D02*
X324178333Y-126034211D01*
X324178333Y-126034211D02*
X324083095Y-126081830D01*
X324083095Y-126081830D02*
X324035476Y-126129449D01*
X324035476Y-126129449D02*
X323987857Y-126224687D01*
X327346666Y-130338259D02*
X327346666Y-131052544D01*
X327346666Y-131052544D02*
X327299047Y-131195401D01*
X327299047Y-131195401D02*
X327203809Y-131290640D01*
X327203809Y-131290640D02*
X327060952Y-131338259D01*
X327060952Y-131338259D02*
X326965714Y-131338259D01*
X327775238Y-130433497D02*
X327822857Y-130385878D01*
X327822857Y-130385878D02*
X327918095Y-130338259D01*
X327918095Y-130338259D02*
X328156190Y-130338259D01*
X328156190Y-130338259D02*
X328251428Y-130385878D01*
X328251428Y-130385878D02*
X328299047Y-130433497D01*
X328299047Y-130433497D02*
X328346666Y-130528735D01*
X328346666Y-130528735D02*
X328346666Y-130623973D01*
X328346666Y-130623973D02*
X328299047Y-130766830D01*
X328299047Y-130766830D02*
X327727619Y-131338259D01*
X327727619Y-131338259D02*
X328346666Y-131338259D01*
X330404761Y-131193495D02*
X330309523Y-131145876D01*
X330309523Y-131145876D02*
X330214285Y-131050638D01*
X330214285Y-131050638D02*
X330071428Y-130907780D01*
X330071428Y-130907780D02*
X329976190Y-130860161D01*
X329976190Y-130860161D02*
X329880952Y-130860161D01*
X329928571Y-131098257D02*
X329833333Y-131050638D01*
X329833333Y-131050638D02*
X329738095Y-130955399D01*
X329738095Y-130955399D02*
X329690476Y-130764923D01*
X329690476Y-130764923D02*
X329690476Y-130431590D01*
X329690476Y-130431590D02*
X329738095Y-130241114D01*
X329738095Y-130241114D02*
X329833333Y-130145876D01*
X329833333Y-130145876D02*
X329928571Y-130098257D01*
X329928571Y-130098257D02*
X330119047Y-130098257D01*
X330119047Y-130098257D02*
X330214285Y-130145876D01*
X330214285Y-130145876D02*
X330309523Y-130241114D01*
X330309523Y-130241114D02*
X330357142Y-130431590D01*
X330357142Y-130431590D02*
X330357142Y-130764923D01*
X330357142Y-130764923D02*
X330309523Y-130955399D01*
X330309523Y-130955399D02*
X330214285Y-131050638D01*
X330214285Y-131050638D02*
X330119047Y-131098257D01*
X330119047Y-131098257D02*
X329928571Y-131098257D01*
X331309523Y-131098257D02*
X330738095Y-131098257D01*
X331023809Y-131098257D02*
X331023809Y-130098257D01*
X331023809Y-130098257D02*
X330928571Y-130241114D01*
X330928571Y-130241114D02*
X330833333Y-130336352D01*
X330833333Y-130336352D02*
X330738095Y-130383971D01*
X337561905Y-124708259D02*
X337561905Y-123708259D01*
X337561905Y-123708259D02*
X337800000Y-123708259D01*
X337800000Y-123708259D02*
X337942857Y-123755878D01*
X337942857Y-123755878D02*
X338038095Y-123851116D01*
X338038095Y-123851116D02*
X338085714Y-123946354D01*
X338085714Y-123946354D02*
X338133333Y-124136830D01*
X338133333Y-124136830D02*
X338133333Y-124279687D01*
X338133333Y-124279687D02*
X338085714Y-124470163D01*
X338085714Y-124470163D02*
X338038095Y-124565401D01*
X338038095Y-124565401D02*
X337942857Y-124660640D01*
X337942857Y-124660640D02*
X337800000Y-124708259D01*
X337800000Y-124708259D02*
X337561905Y-124708259D01*
X338466667Y-123708259D02*
X339085714Y-123708259D01*
X339085714Y-123708259D02*
X338752381Y-124089211D01*
X338752381Y-124089211D02*
X338895238Y-124089211D01*
X338895238Y-124089211D02*
X338990476Y-124136830D01*
X338990476Y-124136830D02*
X339038095Y-124184449D01*
X339038095Y-124184449D02*
X339085714Y-124279687D01*
X339085714Y-124279687D02*
X339085714Y-124517782D01*
X339085714Y-124517782D02*
X339038095Y-124613020D01*
X339038095Y-124613020D02*
X338990476Y-124660640D01*
X338990476Y-124660640D02*
X338895238Y-124708259D01*
X338895238Y-124708259D02*
X338609524Y-124708259D01*
X338609524Y-124708259D02*
X338514286Y-124660640D01*
X338514286Y-124660640D02*
X338466667Y-124613020D01*
X340820714Y-130453259D02*
X340820714Y-129453259D01*
X340820714Y-129453259D02*
X341058809Y-129453259D01*
X341058809Y-129453259D02*
X341201666Y-129500878D01*
X341201666Y-129500878D02*
X341296904Y-129596116D01*
X341296904Y-129596116D02*
X341344523Y-129691354D01*
X341344523Y-129691354D02*
X341392142Y-129881830D01*
X341392142Y-129881830D02*
X341392142Y-130024687D01*
X341392142Y-130024687D02*
X341344523Y-130215163D01*
X341344523Y-130215163D02*
X341296904Y-130310401D01*
X341296904Y-130310401D02*
X341201666Y-130405640D01*
X341201666Y-130405640D02*
X341058809Y-130453259D01*
X341058809Y-130453259D02*
X340820714Y-130453259D01*
X341773095Y-129548497D02*
X341820714Y-129500878D01*
X341820714Y-129500878D02*
X341915952Y-129453259D01*
X341915952Y-129453259D02*
X342154047Y-129453259D01*
X342154047Y-129453259D02*
X342249285Y-129500878D01*
X342249285Y-129500878D02*
X342296904Y-129548497D01*
X342296904Y-129548497D02*
X342344523Y-129643735D01*
X342344523Y-129643735D02*
X342344523Y-129738973D01*
X342344523Y-129738973D02*
X342296904Y-129881830D01*
X342296904Y-129881830D02*
X341725476Y-130453259D01*
X341725476Y-130453259D02*
X342344523Y-130453259D01*
X342709760Y-122603259D02*
X342376427Y-122127068D01*
X342138332Y-122603259D02*
X342138332Y-121603259D01*
X342138332Y-121603259D02*
X342519284Y-121603259D01*
X342519284Y-121603259D02*
X342614522Y-121650878D01*
X342614522Y-121650878D02*
X342662141Y-121698497D01*
X342662141Y-121698497D02*
X342709760Y-121793735D01*
X342709760Y-121793735D02*
X342709760Y-121936592D01*
X342709760Y-121936592D02*
X342662141Y-122031830D01*
X342662141Y-122031830D02*
X342614522Y-122079449D01*
X342614522Y-122079449D02*
X342519284Y-122127068D01*
X342519284Y-122127068D02*
X342138332Y-122127068D01*
X343043094Y-121603259D02*
X343662141Y-121603259D01*
X343662141Y-121603259D02*
X343328808Y-121984211D01*
X343328808Y-121984211D02*
X343471665Y-121984211D01*
X343471665Y-121984211D02*
X343566903Y-122031830D01*
X343566903Y-122031830D02*
X343614522Y-122079449D01*
X343614522Y-122079449D02*
X343662141Y-122174687D01*
X343662141Y-122174687D02*
X343662141Y-122412782D01*
X343662141Y-122412782D02*
X343614522Y-122508020D01*
X343614522Y-122508020D02*
X343566903Y-122555640D01*
X343566903Y-122555640D02*
X343471665Y-122603259D01*
X343471665Y-122603259D02*
X343185951Y-122603259D01*
X343185951Y-122603259D02*
X343090713Y-122555640D01*
X343090713Y-122555640D02*
X343043094Y-122508020D01*
X344138332Y-122603259D02*
X344328808Y-122603259D01*
X344328808Y-122603259D02*
X344424046Y-122555640D01*
X344424046Y-122555640D02*
X344471665Y-122508020D01*
X344471665Y-122508020D02*
X344566903Y-122365163D01*
X344566903Y-122365163D02*
X344614522Y-122174687D01*
X344614522Y-122174687D02*
X344614522Y-121793735D01*
X344614522Y-121793735D02*
X344566903Y-121698497D01*
X344566903Y-121698497D02*
X344519284Y-121650878D01*
X344519284Y-121650878D02*
X344424046Y-121603259D01*
X344424046Y-121603259D02*
X344233570Y-121603259D01*
X344233570Y-121603259D02*
X344138332Y-121650878D01*
X344138332Y-121650878D02*
X344090713Y-121698497D01*
X344090713Y-121698497D02*
X344043094Y-121793735D01*
X344043094Y-121793735D02*
X344043094Y-122031830D01*
X344043094Y-122031830D02*
X344090713Y-122127068D01*
X344090713Y-122127068D02*
X344138332Y-122174687D01*
X344138332Y-122174687D02*
X344233570Y-122222306D01*
X344233570Y-122222306D02*
X344424046Y-122222306D01*
X344424046Y-122222306D02*
X344519284Y-122174687D01*
X344519284Y-122174687D02*
X344566903Y-122127068D01*
X344566903Y-122127068D02*
X344614522Y-122031830D01*
X346957142Y-118188259D02*
X346623809Y-117712068D01*
X346385714Y-118188259D02*
X346385714Y-117188259D01*
X346385714Y-117188259D02*
X346766666Y-117188259D01*
X346766666Y-117188259D02*
X346861904Y-117235878D01*
X346861904Y-117235878D02*
X346909523Y-117283497D01*
X346909523Y-117283497D02*
X346957142Y-117378735D01*
X346957142Y-117378735D02*
X346957142Y-117521592D01*
X346957142Y-117521592D02*
X346909523Y-117616830D01*
X346909523Y-117616830D02*
X346861904Y-117664449D01*
X346861904Y-117664449D02*
X346766666Y-117712068D01*
X346766666Y-117712068D02*
X346385714Y-117712068D01*
X347290476Y-117188259D02*
X347909523Y-117188259D01*
X347909523Y-117188259D02*
X347576190Y-117569211D01*
X347576190Y-117569211D02*
X347719047Y-117569211D01*
X347719047Y-117569211D02*
X347814285Y-117616830D01*
X347814285Y-117616830D02*
X347861904Y-117664449D01*
X347861904Y-117664449D02*
X347909523Y-117759687D01*
X347909523Y-117759687D02*
X347909523Y-117997782D01*
X347909523Y-117997782D02*
X347861904Y-118093020D01*
X347861904Y-118093020D02*
X347814285Y-118140640D01*
X347814285Y-118140640D02*
X347719047Y-118188259D01*
X347719047Y-118188259D02*
X347433333Y-118188259D01*
X347433333Y-118188259D02*
X347338095Y-118140640D01*
X347338095Y-118140640D02*
X347290476Y-118093020D01*
X348480952Y-117616830D02*
X348385714Y-117569211D01*
X348385714Y-117569211D02*
X348338095Y-117521592D01*
X348338095Y-117521592D02*
X348290476Y-117426354D01*
X348290476Y-117426354D02*
X348290476Y-117378735D01*
X348290476Y-117378735D02*
X348338095Y-117283497D01*
X348338095Y-117283497D02*
X348385714Y-117235878D01*
X348385714Y-117235878D02*
X348480952Y-117188259D01*
X348480952Y-117188259D02*
X348671428Y-117188259D01*
X348671428Y-117188259D02*
X348766666Y-117235878D01*
X348766666Y-117235878D02*
X348814285Y-117283497D01*
X348814285Y-117283497D02*
X348861904Y-117378735D01*
X348861904Y-117378735D02*
X348861904Y-117426354D01*
X348861904Y-117426354D02*
X348814285Y-117521592D01*
X348814285Y-117521592D02*
X348766666Y-117569211D01*
X348766666Y-117569211D02*
X348671428Y-117616830D01*
X348671428Y-117616830D02*
X348480952Y-117616830D01*
X348480952Y-117616830D02*
X348385714Y-117664449D01*
X348385714Y-117664449D02*
X348338095Y-117712068D01*
X348338095Y-117712068D02*
X348290476Y-117807306D01*
X348290476Y-117807306D02*
X348290476Y-117997782D01*
X348290476Y-117997782D02*
X348338095Y-118093020D01*
X348338095Y-118093020D02*
X348385714Y-118140640D01*
X348385714Y-118140640D02*
X348480952Y-118188259D01*
X348480952Y-118188259D02*
X348671428Y-118188259D01*
X348671428Y-118188259D02*
X348766666Y-118140640D01*
X348766666Y-118140640D02*
X348814285Y-118093020D01*
X348814285Y-118093020D02*
X348861904Y-117997782D01*
X348861904Y-117997782D02*
X348861904Y-117807306D01*
X348861904Y-117807306D02*
X348814285Y-117712068D01*
X348814285Y-117712068D02*
X348766666Y-117664449D01*
X348766666Y-117664449D02*
X348671428Y-117616830D01*
X349006190Y-137053259D02*
X349006190Y-136053259D01*
X349006190Y-136053259D02*
X349577618Y-137053259D01*
X349577618Y-137053259D02*
X349577618Y-136053259D01*
X349910952Y-136053259D02*
X350482380Y-136053259D01*
X350196666Y-137053259D02*
X350196666Y-136053259D01*
X351339523Y-137053259D02*
X350768095Y-137053259D01*
X351053809Y-137053259D02*
X351053809Y-136053259D01*
X351053809Y-136053259D02*
X350958571Y-136196116D01*
X350958571Y-136196116D02*
X350863333Y-136291354D01*
X350863333Y-136291354D02*
X350768095Y-136338973D01*
X123653258Y-125795476D02*
X123177067Y-126128809D01*
X123653258Y-126366904D02*
X122653258Y-126366904D01*
X122653258Y-126366904D02*
X122653258Y-125985952D01*
X122653258Y-125985952D02*
X122700877Y-125890714D01*
X122700877Y-125890714D02*
X122748496Y-125843095D01*
X122748496Y-125843095D02*
X122843734Y-125795476D01*
X122843734Y-125795476D02*
X122986591Y-125795476D01*
X122986591Y-125795476D02*
X123081829Y-125843095D01*
X123081829Y-125843095D02*
X123129448Y-125890714D01*
X123129448Y-125890714D02*
X123177067Y-125985952D01*
X123177067Y-125985952D02*
X123177067Y-126366904D01*
X122653258Y-125462142D02*
X122653258Y-124843095D01*
X122653258Y-124843095D02*
X123034210Y-125176428D01*
X123034210Y-125176428D02*
X123034210Y-125033571D01*
X123034210Y-125033571D02*
X123081829Y-124938333D01*
X123081829Y-124938333D02*
X123129448Y-124890714D01*
X123129448Y-124890714D02*
X123224686Y-124843095D01*
X123224686Y-124843095D02*
X123462781Y-124843095D01*
X123462781Y-124843095D02*
X123558019Y-124890714D01*
X123558019Y-124890714D02*
X123605639Y-124938333D01*
X123605639Y-124938333D02*
X123653258Y-125033571D01*
X123653258Y-125033571D02*
X123653258Y-125319285D01*
X123653258Y-125319285D02*
X123605639Y-125414523D01*
X123605639Y-125414523D02*
X123558019Y-125462142D01*
X122748496Y-124462142D02*
X122700877Y-124414523D01*
X122700877Y-124414523D02*
X122653258Y-124319285D01*
X122653258Y-124319285D02*
X122653258Y-124081190D01*
X122653258Y-124081190D02*
X122700877Y-123985952D01*
X122700877Y-123985952D02*
X122748496Y-123938333D01*
X122748496Y-123938333D02*
X122843734Y-123890714D01*
X122843734Y-123890714D02*
X122938972Y-123890714D01*
X122938972Y-123890714D02*
X123081829Y-123938333D01*
X123081829Y-123938333D02*
X123653258Y-124509761D01*
X123653258Y-124509761D02*
X123653258Y-123890714D01*
X124053259Y-103346904D02*
X124862782Y-103346904D01*
X124862782Y-103346904D02*
X124958020Y-103299285D01*
X124958020Y-103299285D02*
X125005640Y-103251666D01*
X125005640Y-103251666D02*
X125053259Y-103156428D01*
X125053259Y-103156428D02*
X125053259Y-102965952D01*
X125053259Y-102965952D02*
X125005640Y-102870714D01*
X125005640Y-102870714D02*
X124958020Y-102823095D01*
X124958020Y-102823095D02*
X124862782Y-102775476D01*
X124862782Y-102775476D02*
X124053259Y-102775476D01*
X125053259Y-102251666D02*
X125053259Y-102061190D01*
X125053259Y-102061190D02*
X125005640Y-101965952D01*
X125005640Y-101965952D02*
X124958020Y-101918333D01*
X124958020Y-101918333D02*
X124815163Y-101823095D01*
X124815163Y-101823095D02*
X124624687Y-101775476D01*
X124624687Y-101775476D02*
X124243735Y-101775476D01*
X124243735Y-101775476D02*
X124148497Y-101823095D01*
X124148497Y-101823095D02*
X124100878Y-101870714D01*
X124100878Y-101870714D02*
X124053259Y-101965952D01*
X124053259Y-101965952D02*
X124053259Y-102156428D01*
X124053259Y-102156428D02*
X124100878Y-102251666D01*
X124100878Y-102251666D02*
X124148497Y-102299285D01*
X124148497Y-102299285D02*
X124243735Y-102346904D01*
X124243735Y-102346904D02*
X124481830Y-102346904D01*
X124481830Y-102346904D02*
X124577068Y-102299285D01*
X124577068Y-102299285D02*
X124624687Y-102251666D01*
X124624687Y-102251666D02*
X124672306Y-102156428D01*
X124672306Y-102156428D02*
X124672306Y-101965952D01*
X124672306Y-101965952D02*
X124624687Y-101870714D01*
X124624687Y-101870714D02*
X124577068Y-101823095D01*
X124577068Y-101823095D02*
X124481830Y-101775476D01*
X226153259Y-127525475D02*
X225677068Y-127858808D01*
X226153259Y-128096903D02*
X225153259Y-128096903D01*
X225153259Y-128096903D02*
X225153259Y-127715951D01*
X225153259Y-127715951D02*
X225200878Y-127620713D01*
X225200878Y-127620713D02*
X225248497Y-127573094D01*
X225248497Y-127573094D02*
X225343735Y-127525475D01*
X225343735Y-127525475D02*
X225486592Y-127525475D01*
X225486592Y-127525475D02*
X225581830Y-127573094D01*
X225581830Y-127573094D02*
X225629449Y-127620713D01*
X225629449Y-127620713D02*
X225677068Y-127715951D01*
X225677068Y-127715951D02*
X225677068Y-128096903D01*
X225248497Y-127144522D02*
X225200878Y-127096903D01*
X225200878Y-127096903D02*
X225153259Y-127001665D01*
X225153259Y-127001665D02*
X225153259Y-126763570D01*
X225153259Y-126763570D02*
X225200878Y-126668332D01*
X225200878Y-126668332D02*
X225248497Y-126620713D01*
X225248497Y-126620713D02*
X225343735Y-126573094D01*
X225343735Y-126573094D02*
X225438973Y-126573094D01*
X225438973Y-126573094D02*
X225581830Y-126620713D01*
X225581830Y-126620713D02*
X226153259Y-127192141D01*
X226153259Y-127192141D02*
X226153259Y-126573094D01*
X225581830Y-126001665D02*
X225534211Y-126096903D01*
X225534211Y-126096903D02*
X225486592Y-126144522D01*
X225486592Y-126144522D02*
X225391354Y-126192141D01*
X225391354Y-126192141D02*
X225343735Y-126192141D01*
X225343735Y-126192141D02*
X225248497Y-126144522D01*
X225248497Y-126144522D02*
X225200878Y-126096903D01*
X225200878Y-126096903D02*
X225153259Y-126001665D01*
X225153259Y-126001665D02*
X225153259Y-125811189D01*
X225153259Y-125811189D02*
X225200878Y-125715951D01*
X225200878Y-125715951D02*
X225248497Y-125668332D01*
X225248497Y-125668332D02*
X225343735Y-125620713D01*
X225343735Y-125620713D02*
X225391354Y-125620713D01*
X225391354Y-125620713D02*
X225486592Y-125668332D01*
X225486592Y-125668332D02*
X225534211Y-125715951D01*
X225534211Y-125715951D02*
X225581830Y-125811189D01*
X225581830Y-125811189D02*
X225581830Y-126001665D01*
X225581830Y-126001665D02*
X225629449Y-126096903D01*
X225629449Y-126096903D02*
X225677068Y-126144522D01*
X225677068Y-126144522D02*
X225772306Y-126192141D01*
X225772306Y-126192141D02*
X225962782Y-126192141D01*
X225962782Y-126192141D02*
X226058020Y-126144522D01*
X226058020Y-126144522D02*
X226105640Y-126096903D01*
X226105640Y-126096903D02*
X226153259Y-126001665D01*
X226153259Y-126001665D02*
X226153259Y-125811189D01*
X226153259Y-125811189D02*
X226105640Y-125715951D01*
X226105640Y-125715951D02*
X226058020Y-125668332D01*
X226058020Y-125668332D02*
X225962782Y-125620713D01*
X225962782Y-125620713D02*
X225772306Y-125620713D01*
X225772306Y-125620713D02*
X225677068Y-125668332D01*
X225677068Y-125668332D02*
X225629449Y-125715951D01*
X225629449Y-125715951D02*
X225581830Y-125811189D01*
X300848259Y-134242857D02*
X300372068Y-134576190D01*
X300848259Y-134814285D02*
X299848259Y-134814285D01*
X299848259Y-134814285D02*
X299848259Y-134433333D01*
X299848259Y-134433333D02*
X299895878Y-134338095D01*
X299895878Y-134338095D02*
X299943497Y-134290476D01*
X299943497Y-134290476D02*
X300038735Y-134242857D01*
X300038735Y-134242857D02*
X300181592Y-134242857D01*
X300181592Y-134242857D02*
X300276830Y-134290476D01*
X300276830Y-134290476D02*
X300324449Y-134338095D01*
X300324449Y-134338095D02*
X300372068Y-134433333D01*
X300372068Y-134433333D02*
X300372068Y-134814285D01*
X300848259Y-133290476D02*
X300848259Y-133861904D01*
X300848259Y-133576190D02*
X299848259Y-133576190D01*
X299848259Y-133576190D02*
X299991116Y-133671428D01*
X299991116Y-133671428D02*
X300086354Y-133766666D01*
X300086354Y-133766666D02*
X300133973Y-133861904D01*
X299848259Y-132671428D02*
X299848259Y-132576190D01*
X299848259Y-132576190D02*
X299895878Y-132480952D01*
X299895878Y-132480952D02*
X299943497Y-132433333D01*
X299943497Y-132433333D02*
X300038735Y-132385714D01*
X300038735Y-132385714D02*
X300229211Y-132338095D01*
X300229211Y-132338095D02*
X300467306Y-132338095D01*
X300467306Y-132338095D02*
X300657782Y-132385714D01*
X300657782Y-132385714D02*
X300753020Y-132433333D01*
X300753020Y-132433333D02*
X300800640Y-132480952D01*
X300800640Y-132480952D02*
X300848259Y-132576190D01*
X300848259Y-132576190D02*
X300848259Y-132671428D01*
X300848259Y-132671428D02*
X300800640Y-132766666D01*
X300800640Y-132766666D02*
X300753020Y-132814285D01*
X300753020Y-132814285D02*
X300657782Y-132861904D01*
X300657782Y-132861904D02*
X300467306Y-132909523D01*
X300467306Y-132909523D02*
X300229211Y-132909523D01*
X300229211Y-132909523D02*
X300038735Y-132861904D01*
X300038735Y-132861904D02*
X299943497Y-132814285D01*
X299943497Y-132814285D02*
X299895878Y-132766666D01*
X299895878Y-132766666D02*
X299848259Y-132671428D01*
X331248259Y-120414285D02*
X330248259Y-120414285D01*
X330248259Y-120414285D02*
X330248259Y-120176190D01*
X330248259Y-120176190D02*
X330295878Y-120033333D01*
X330295878Y-120033333D02*
X330391116Y-119938095D01*
X330391116Y-119938095D02*
X330486354Y-119890476D01*
X330486354Y-119890476D02*
X330676830Y-119842857D01*
X330676830Y-119842857D02*
X330819687Y-119842857D01*
X330819687Y-119842857D02*
X331010163Y-119890476D01*
X331010163Y-119890476D02*
X331105401Y-119938095D01*
X331105401Y-119938095D02*
X331200640Y-120033333D01*
X331200640Y-120033333D02*
X331248259Y-120176190D01*
X331248259Y-120176190D02*
X331248259Y-120414285D01*
X330343497Y-119461904D02*
X330295878Y-119414285D01*
X330295878Y-119414285D02*
X330248259Y-119319047D01*
X330248259Y-119319047D02*
X330248259Y-119080952D01*
X330248259Y-119080952D02*
X330295878Y-118985714D01*
X330295878Y-118985714D02*
X330343497Y-118938095D01*
X330343497Y-118938095D02*
X330438735Y-118890476D01*
X330438735Y-118890476D02*
X330533973Y-118890476D01*
X330533973Y-118890476D02*
X330676830Y-118938095D01*
X330676830Y-118938095D02*
X331248259Y-119509523D01*
X331248259Y-119509523D02*
X331248259Y-118890476D01*
X330248259Y-118271428D02*
X330248259Y-118176190D01*
X330248259Y-118176190D02*
X330295878Y-118080952D01*
X330295878Y-118080952D02*
X330343497Y-118033333D01*
X330343497Y-118033333D02*
X330438735Y-117985714D01*
X330438735Y-117985714D02*
X330629211Y-117938095D01*
X330629211Y-117938095D02*
X330867306Y-117938095D01*
X330867306Y-117938095D02*
X331057782Y-117985714D01*
X331057782Y-117985714D02*
X331153020Y-118033333D01*
X331153020Y-118033333D02*
X331200640Y-118080952D01*
X331200640Y-118080952D02*
X331248259Y-118176190D01*
X331248259Y-118176190D02*
X331248259Y-118271428D01*
X331248259Y-118271428D02*
X331200640Y-118366666D01*
X331200640Y-118366666D02*
X331153020Y-118414285D01*
X331153020Y-118414285D02*
X331057782Y-118461904D01*
X331057782Y-118461904D02*
X330867306Y-118509523D01*
X330867306Y-118509523D02*
X330629211Y-118509523D01*
X330629211Y-118509523D02*
X330438735Y-118461904D01*
X330438735Y-118461904D02*
X330343497Y-118414285D01*
X330343497Y-118414285D02*
X330295878Y-118366666D01*
X330295878Y-118366666D02*
X330248259Y-118271428D01*
D11*
%TO.C,C37*%
X84383748Y-116165000D02*
X84906252Y-116165000D01*
X84383748Y-117635000D02*
X84906252Y-117635000D01*
%TO.C,C1*%
X90465000Y-129661252D02*
X90465000Y-129138748D01*
X91935000Y-129661252D02*
X91935000Y-129138748D01*
%TO.C,C12*%
X296965000Y-129538748D02*
X296965000Y-130061252D01*
X298435000Y-129538748D02*
X298435000Y-130061252D01*
%TO.C,D7*%
X281985000Y-124120000D02*
X287385000Y-124120000D01*
X283085000Y-118880000D02*
X287385000Y-118880000D01*
X280935000Y-119300000D02*
X280935000Y-118500000D01*
X281735000Y-118500000D01*
X280935000Y-119300000D01*
G36*
X280935000Y-119300000D02*
G01*
X280935000Y-118500000D01*
X281735000Y-118500000D01*
X280935000Y-119300000D01*
G37*
%TO.C,C22*%
X257265000Y-105438748D02*
X257265000Y-105961252D01*
X258735000Y-105438748D02*
X258735000Y-105961252D01*
%TO.C,U4*%
X72240000Y-128840000D02*
X76360000Y-128840000D01*
X72240000Y-128935000D02*
X72240000Y-128840000D01*
X72240000Y-133960000D02*
X72240000Y-133865000D01*
X76360000Y-128840000D02*
X76360000Y-128935000D01*
X76360000Y-133865000D02*
X76360000Y-133960000D01*
X76360000Y-133960000D02*
X72240000Y-133960000D01*
X71700000Y-128930000D02*
X71460000Y-128600000D01*
X71940000Y-128600000D01*
X71700000Y-128930000D01*
G36*
X71700000Y-128930000D02*
G01*
X71460000Y-128600000D01*
X71940000Y-128600000D01*
X71700000Y-128930000D01*
G37*
%TO.C,C23*%
X227665000Y-132238748D02*
X227665000Y-132761252D01*
X229135000Y-132238748D02*
X229135000Y-132761252D01*
%TO.C,U8*%
X240940000Y-128740000D02*
X240995000Y-128740000D01*
X240940000Y-132860000D02*
X240940000Y-128740000D01*
X240995000Y-132860000D02*
X240940000Y-132860000D01*
X251005000Y-128740000D02*
X251060000Y-128740000D01*
X251060000Y-128740000D02*
X251060000Y-132860000D01*
X251060000Y-132860000D02*
X251005000Y-132860000D01*
X240990000Y-133400000D02*
X240660000Y-133640000D01*
X240660000Y-133160000D01*
X240990000Y-133400000D01*
G36*
X240990000Y-133400000D02*
G01*
X240660000Y-133640000D01*
X240660000Y-133160000D01*
X240990000Y-133400000D01*
G37*
%TO.C,R21*%
X220472936Y-139265000D02*
X220927064Y-139265000D01*
X220472936Y-140735000D02*
X220927064Y-140735000D01*
%TO.C,R15*%
X107527064Y-102265000D02*
X107072936Y-102265000D01*
X107527064Y-103735000D02*
X107072936Y-103735000D01*
%TO.C,FB2*%
X226740000Y-108899622D02*
X226740000Y-108100378D01*
X227860000Y-108899622D02*
X227860000Y-108100378D01*
%TO.C,C31*%
X184403748Y-116165000D02*
X184926252Y-116165000D01*
X184403748Y-117635000D02*
X184926252Y-117635000D01*
%TO.C,R37*%
X121265000Y-110427064D02*
X121265000Y-109972936D01*
X122735000Y-110427064D02*
X122735000Y-109972936D01*
%TO.C,D13*%
X181965000Y-124120000D02*
X187365000Y-124120000D01*
X183065000Y-118880000D02*
X187365000Y-118880000D01*
X180915000Y-119300000D02*
X180915000Y-118500000D01*
X181715000Y-118500000D01*
X180915000Y-119300000D01*
G36*
X180915000Y-119300000D02*
G01*
X180915000Y-118500000D01*
X181715000Y-118500000D01*
X180915000Y-119300000D01*
G37*
%TO.C,R20*%
X215072936Y-139265000D02*
X215527064Y-139265000D01*
X215072936Y-140735000D02*
X215527064Y-140735000D01*
%TO.C,C3*%
X92665000Y-129138748D02*
X92665000Y-129661252D01*
X94135000Y-129138748D02*
X94135000Y-129661252D01*
%TO.C,R19*%
X147527064Y-102265000D02*
X147072936Y-102265000D01*
X147527064Y-103735000D02*
X147072936Y-103735000D01*
%TO.C,D19*%
X81945000Y-124120000D02*
X87345000Y-124120000D01*
X83045000Y-118880000D02*
X87345000Y-118880000D01*
X80895000Y-119300000D02*
X80895000Y-118500000D01*
X81695000Y-118500000D01*
X80895000Y-119300000D01*
G36*
X80895000Y-119300000D02*
G01*
X80895000Y-118500000D01*
X81695000Y-118500000D01*
X80895000Y-119300000D01*
G37*
%TO.C,U1*%
X315590000Y-130940000D02*
X317410000Y-130940000D01*
X315590000Y-130990000D02*
X315590000Y-130940000D01*
X315590000Y-134060000D02*
X315590000Y-134010000D01*
X317410000Y-130940000D02*
X317410000Y-130990000D01*
X317410000Y-132110000D02*
X317410000Y-132890000D01*
X317410000Y-134010000D02*
X317410000Y-134060000D01*
X317410000Y-134060000D02*
X315590000Y-134060000D01*
X315050000Y-130990000D02*
X314810000Y-130660000D01*
X315290000Y-130660000D01*
X315050000Y-130990000D01*
G36*
X315050000Y-130990000D02*
G01*
X314810000Y-130660000D01*
X315290000Y-130660000D01*
X315050000Y-130990000D01*
G37*
%TO.C,R26*%
X260927064Y-102265000D02*
X260472936Y-102265000D01*
X260927064Y-103735000D02*
X260472936Y-103735000D01*
%TO.C,R31*%
X230872936Y-138065000D02*
X231327064Y-138065000D01*
X230872936Y-139535000D02*
X231327064Y-139535000D01*
%TO.C,R25*%
X260472936Y-139265000D02*
X260927064Y-139265000D01*
X260472936Y-140735000D02*
X260927064Y-140735000D01*
%TO.C,U9*%
X123690000Y-104240000D02*
X125510000Y-104240000D01*
X123690000Y-104290000D02*
X123690000Y-104240000D01*
X123690000Y-107360000D02*
X123690000Y-107310000D01*
X125510000Y-104240000D02*
X125510000Y-104290000D01*
X125510000Y-105410000D02*
X125510000Y-106190000D01*
X125510000Y-107310000D02*
X125510000Y-107360000D01*
X125510000Y-107360000D02*
X123690000Y-107360000D01*
X123150000Y-104290000D02*
X122910000Y-103960000D01*
X123390000Y-103960000D01*
X123150000Y-104290000D01*
G36*
X123150000Y-104290000D02*
G01*
X122910000Y-103960000D01*
X123390000Y-103960000D01*
X123150000Y-104290000D01*
G37*
%TO.C,U10*%
X67890000Y-104500000D02*
X67890000Y-116300000D01*
D12*
X79737500Y-105200000D02*
G75*
G02*
X79362500Y-105200000I-187500J0D01*
G01*
X79362500Y-105200000D02*
G75*
G02*
X79737500Y-105200000I187500J0D01*
G01*
D11*
%TO.C,J6*%
X354249999Y-118760000D02*
X354249999Y-120460000D01*
%TO.C,C7*%
X78465000Y-133861252D02*
X78465000Y-133338748D01*
X79935000Y-133861252D02*
X79935000Y-133338748D01*
%TO.C,C28*%
X234413748Y-116165000D02*
X234936252Y-116165000D01*
X234413748Y-117635000D02*
X234936252Y-117635000D01*
%TO.C,R36*%
X319290000Y-126927064D02*
X319290000Y-125472936D01*
X321110000Y-126927064D02*
X321110000Y-125472936D01*
%TO.C,C10*%
X274450000Y-130840000D02*
X275700000Y-130840000D01*
X275075000Y-130215000D02*
X275075000Y-131465000D01*
X275940000Y-129404437D02*
X275940000Y-132090000D01*
X275940000Y-129404437D02*
X277004437Y-128340000D01*
X275940000Y-137795563D02*
X275940000Y-135110000D01*
X275940000Y-137795563D02*
X277004437Y-138860000D01*
X277004437Y-128340000D02*
X286460000Y-128340000D01*
X277004437Y-138860000D02*
X286460000Y-138860000D01*
X286460000Y-128340000D02*
X286460000Y-132090000D01*
X286460000Y-138860000D02*
X286460000Y-135110000D01*
%TO.C,D10*%
X231975000Y-124120000D02*
X237375000Y-124120000D01*
X233075000Y-118880000D02*
X237375000Y-118880000D01*
X230925000Y-119300000D02*
X230925000Y-118500000D01*
X231725000Y-118500000D01*
X230925000Y-119300000D01*
G36*
X230925000Y-119300000D02*
G01*
X230925000Y-118500000D01*
X231725000Y-118500000D01*
X230925000Y-119300000D01*
G37*
%TO.C,D20*%
X327800000Y-121560000D02*
X327800000Y-117550000D01*
X327800000Y-121560000D02*
X329800000Y-121560000D01*
X329800000Y-121560000D02*
X329800000Y-117550000D01*
%TO.C,C6*%
X91238748Y-136365000D02*
X91761252Y-136365000D01*
X91238748Y-137835000D02*
X91761252Y-137835000D01*
%TO.C,R17*%
X152472936Y-139265000D02*
X152927064Y-139265000D01*
X152472936Y-140735000D02*
X152927064Y-140735000D01*
%TO.C,C5*%
X78490000Y-129811252D02*
X78490000Y-128388748D01*
X80310000Y-129811252D02*
X80310000Y-128388748D01*
%TO.C,R40*%
X322465000Y-120627064D02*
X322465000Y-120172936D01*
X323935000Y-120627064D02*
X323935000Y-120172936D01*
%TO.C,R27*%
X255527064Y-102265000D02*
X255072936Y-102265000D01*
X255527064Y-103735000D02*
X255072936Y-103735000D01*
%TO.C,R22*%
X220927064Y-102265000D02*
X220472936Y-102265000D01*
X220927064Y-103735000D02*
X220472936Y-103735000D01*
%TO.C,C2*%
X91088748Y-132690000D02*
X92511252Y-132690000D01*
X91088748Y-134510000D02*
X92511252Y-134510000D01*
%TO.C,R10*%
X297865000Y-133827064D02*
X297865000Y-133372936D01*
X299335000Y-133827064D02*
X299335000Y-133372936D01*
%TO.C,R14*%
X112927064Y-102265000D02*
X112472936Y-102265000D01*
X112927064Y-103735000D02*
X112472936Y-103735000D01*
%TO.C,R35*%
X316290000Y-126927064D02*
X316290000Y-125472936D01*
X318110000Y-126927064D02*
X318110000Y-125472936D01*
%TO.C,R16*%
X147072936Y-139265000D02*
X147527064Y-139265000D01*
X147072936Y-140735000D02*
X147527064Y-140735000D01*
%TO.C,R2*%
X316290000Y-121127064D02*
X316290000Y-119672936D01*
X318110000Y-121127064D02*
X318110000Y-119672936D01*
%TO.C,C17*%
X149265000Y-137561252D02*
X149265000Y-137038748D01*
X150735000Y-137561252D02*
X150735000Y-137038748D01*
%TO.C,R34*%
X313290000Y-126927064D02*
X313290000Y-125472936D01*
X315110000Y-126927064D02*
X315110000Y-125472936D01*
%TO.C,J1*%
X304780000Y-110609999D02*
X310420000Y-110609999D01*
X310420000Y-132389999D01*
X304780000Y-132389999D01*
X304780000Y-110609999D01*
X302300000Y-113644999D02*
X301850000Y-113064999D01*
X302750000Y-113064999D01*
X302300000Y-113644999D01*
G36*
X302300000Y-113644999D02*
G01*
X301850000Y-113064999D01*
X302750000Y-113064999D01*
X302300000Y-113644999D01*
G37*
%TO.C,C30*%
X201073748Y-116165000D02*
X201596252Y-116165000D01*
X201073748Y-117635000D02*
X201596252Y-117635000D01*
%TO.C,C21*%
X257265000Y-137561252D02*
X257265000Y-137038748D01*
X258735000Y-137561252D02*
X258735000Y-137038748D01*
%TO.C,C32*%
X167733748Y-116165000D02*
X168256252Y-116165000D01*
X167733748Y-117635000D02*
X168256252Y-117635000D01*
%TO.C,U7*%
X124940000Y-128740000D02*
X124995000Y-128740000D01*
X124940000Y-132860000D02*
X124940000Y-128740000D01*
X124995000Y-132860000D02*
X124940000Y-132860000D01*
X135005000Y-128740000D02*
X135060000Y-128740000D01*
X135060000Y-128740000D02*
X135060000Y-132860000D01*
X135060000Y-132860000D02*
X135005000Y-132860000D01*
X124990000Y-133400000D02*
X124660000Y-133640000D01*
X124660000Y-133160000D01*
X124990000Y-133400000D01*
G36*
X124990000Y-133400000D02*
G01*
X124660000Y-133640000D01*
X124660000Y-133160000D01*
X124990000Y-133400000D01*
G37*
%TO.C,R43*%
X332165000Y-119427064D02*
X332165000Y-118972936D01*
X333635000Y-119427064D02*
X333635000Y-118972936D01*
%TO.C,U6*%
X290240000Y-129165000D02*
X294360000Y-129165000D01*
X290240000Y-129230000D02*
X290240000Y-129165000D01*
X290240000Y-138035000D02*
X290240000Y-137970000D01*
X294360000Y-129165000D02*
X294360000Y-129230000D01*
X294360000Y-137970000D02*
X294360000Y-138035000D01*
X294360000Y-138035000D02*
X290240000Y-138035000D01*
X289700000Y-129230000D02*
X289460000Y-128900000D01*
X289940000Y-128900000D01*
X289700000Y-129230000D01*
G36*
X289700000Y-129230000D02*
G01*
X289460000Y-128900000D01*
X289940000Y-128900000D01*
X289700000Y-129230000D01*
G37*
%TO.C,R32*%
X122465000Y-129027064D02*
X122465000Y-128572936D01*
X123935000Y-129027064D02*
X123935000Y-128572936D01*
%TO.C,R6*%
X87272936Y-136465000D02*
X87727064Y-136465000D01*
X87272936Y-137935000D02*
X87727064Y-137935000D01*
%TO.C,D14*%
X165295000Y-124120000D02*
X170695000Y-124120000D01*
X166395000Y-118880000D02*
X170695000Y-118880000D01*
X164245000Y-119300000D02*
X164245000Y-118500000D01*
X165045000Y-118500000D01*
X164245000Y-119300000D01*
G36*
X164245000Y-119300000D02*
G01*
X164245000Y-118500000D01*
X165045000Y-118500000D01*
X164245000Y-119300000D01*
G37*
%TO.C,R42*%
X329865000Y-123927064D02*
X329865000Y-123472936D01*
X331335000Y-123927064D02*
X331335000Y-123472936D01*
%TO.C,C26*%
X267753748Y-116165000D02*
X268276252Y-116165000D01*
X267753748Y-117635000D02*
X268276252Y-117635000D01*
%TO.C,L1*%
X282320000Y-103290000D02*
X288540000Y-103290000D01*
X288540000Y-109510000D02*
X282320000Y-109510000D01*
%TO.C,Q1*%
X329740000Y-126639999D02*
X331260000Y-126639999D01*
X329740000Y-126689999D02*
X329740000Y-126639999D01*
X329740000Y-128589999D02*
X329740000Y-127809999D01*
X329740000Y-129759999D02*
X329740000Y-129709999D01*
X331260000Y-126639999D02*
X331260000Y-127639999D01*
X331260000Y-128759999D02*
X331260000Y-129759999D01*
X331260000Y-129759999D02*
X329740000Y-129759999D01*
X329440000Y-128149999D02*
X328960000Y-128149999D01*
X329200000Y-127819999D01*
X329440000Y-128149999D01*
G36*
X329440000Y-128149999D02*
G01*
X328960000Y-128149999D01*
X329200000Y-127819999D01*
X329440000Y-128149999D01*
G37*
%TO.C,D1*%
X80140000Y-136200000D02*
X80140000Y-138200000D01*
X80140000Y-136200000D02*
X84150000Y-136200000D01*
X80140000Y-138200000D02*
X84150000Y-138200000D01*
%TO.C,R33*%
X122465000Y-132927063D02*
X122465000Y-132472935D01*
X123935000Y-132927063D02*
X123935000Y-132472935D01*
%TO.C,R28*%
X225472936Y-129065000D02*
X225927064Y-129065000D01*
X225472936Y-130535000D02*
X225927064Y-130535000D01*
%TO.C,D4*%
X289110000Y-111850000D02*
X283600000Y-111850000D01*
X289110000Y-115150000D02*
X283600000Y-115150000D01*
X289110000Y-115150000D02*
X289110000Y-111850000D01*
%TO.C,D15*%
X148625000Y-124120000D02*
X154025000Y-124120000D01*
X149725000Y-118880000D02*
X154025000Y-118880000D01*
X147575000Y-119300000D02*
X147575000Y-118500000D01*
X148375000Y-118500000D01*
X147575000Y-119300000D01*
G36*
X147575000Y-119300000D02*
G01*
X147575000Y-118500000D01*
X148375000Y-118500000D01*
X147575000Y-119300000D01*
G37*
%TO.C,D16*%
X131955000Y-124120000D02*
X137355000Y-124120000D01*
X133055000Y-118880000D02*
X137355000Y-118880000D01*
X130905000Y-119300000D02*
X130905000Y-118500000D01*
X131705000Y-118500000D01*
X130905000Y-119300000D01*
G36*
X130905000Y-119300000D02*
G01*
X130905000Y-118500000D01*
X131705000Y-118500000D01*
X130905000Y-119300000D01*
G37*
%TO.C,D3*%
X336650000Y-132010000D02*
X336650000Y-126500000D01*
X336650000Y-132010000D02*
X339950000Y-132010000D01*
X339950000Y-132010000D02*
X339950000Y-126500000D01*
%TO.C,C36*%
X101053748Y-116165000D02*
X101576252Y-116165000D01*
X101053748Y-117635000D02*
X101576252Y-117635000D01*
%TO.C,R8*%
X68165000Y-132577064D02*
X68165000Y-132122936D01*
X69635000Y-132577064D02*
X69635000Y-132122936D01*
%TO.C,R13*%
X112472936Y-139265000D02*
X112927064Y-139265000D01*
X112472936Y-140735000D02*
X112927064Y-140735000D01*
%TO.C,R41*%
X327565000Y-123927064D02*
X327565000Y-123472936D01*
X329035000Y-123927064D02*
X329035000Y-123472936D01*
%TO.C,D11*%
X215305000Y-124120000D02*
X220705000Y-124120000D01*
X216405000Y-118880000D02*
X220705000Y-118880000D01*
X214255000Y-119300000D02*
X214255000Y-118500000D01*
X215055000Y-118500000D01*
X214255000Y-119300000D01*
G36*
X214255000Y-119300000D02*
G01*
X214255000Y-118500000D01*
X215055000Y-118500000D01*
X214255000Y-119300000D01*
G37*
%TO.C,C19*%
X217265000Y-137561252D02*
X217265000Y-137038748D01*
X218735000Y-137561252D02*
X218735000Y-137038748D01*
%TO.C,R24*%
X255072936Y-139265000D02*
X255527064Y-139265000D01*
X255072936Y-140735000D02*
X255527064Y-140735000D01*
%TO.C,C27*%
X251083748Y-116165000D02*
X251606252Y-116165000D01*
X251083748Y-117635000D02*
X251606252Y-117635000D01*
%TO.C,D12*%
X198635000Y-124120000D02*
X204035000Y-124120000D01*
X199735000Y-118880000D02*
X204035000Y-118880000D01*
X197585000Y-119300000D02*
X197585000Y-118500000D01*
X198385000Y-118500000D01*
X197585000Y-119300000D01*
G36*
X197585000Y-119300000D02*
G01*
X197585000Y-118500000D01*
X198385000Y-118500000D01*
X197585000Y-119300000D01*
G37*
%TO.C,C4*%
X76488748Y-136090000D02*
X77911252Y-136090000D01*
X76488748Y-137910000D02*
X77911252Y-137910000D01*
%TO.C,R7*%
X68165000Y-122227064D02*
X68165000Y-121772936D01*
X69635000Y-122227064D02*
X69635000Y-121772936D01*
%TO.C,C38*%
X325265000Y-123961252D02*
X325265000Y-123438748D01*
X326735000Y-123961252D02*
X326735000Y-123438748D01*
%TO.C,R11*%
X297865000Y-137827064D02*
X297865000Y-137372936D01*
X299335000Y-137827064D02*
X299335000Y-137372936D01*
%TO.C,R23*%
X215527064Y-102265000D02*
X215072936Y-102265000D01*
X215527064Y-103735000D02*
X215072936Y-103735000D01*
%TO.C,R29*%
X230872936Y-129065000D02*
X231327064Y-129065000D01*
X230872936Y-130535000D02*
X231327064Y-130535000D01*
%TO.C,D17*%
X115285000Y-124120000D02*
X120685000Y-124120000D01*
X116385000Y-118880000D02*
X120685000Y-118880000D01*
X114235000Y-119300000D02*
X114235000Y-118500000D01*
X115035000Y-118500000D01*
X114235000Y-119300000D01*
G36*
X114235000Y-119300000D02*
G01*
X114235000Y-118500000D01*
X115035000Y-118500000D01*
X114235000Y-119300000D01*
G37*
%TO.C,C20*%
X217265000Y-105438748D02*
X217265000Y-105961252D01*
X218735000Y-105438748D02*
X218735000Y-105961252D01*
%TO.C,C14*%
X241338748Y-125065000D02*
X241861252Y-125065000D01*
X241338748Y-126535000D02*
X241861252Y-126535000D01*
%TO.C,C13*%
X125338748Y-125065000D02*
X125861252Y-125065000D01*
X125338748Y-126535000D02*
X125861252Y-126535000D01*
%TO.C,R39*%
X346872936Y-121240000D02*
X348327064Y-121240000D01*
X346872936Y-123060000D02*
X348327064Y-123060000D01*
%TO.C,C18*%
X149265000Y-105438748D02*
X149265000Y-105961252D01*
X150735000Y-105438748D02*
X150735000Y-105961252D01*
%TO.C,C16*%
X109265000Y-105438748D02*
X109265000Y-105961252D01*
X110735000Y-105438748D02*
X110735000Y-105961252D01*
%TO.C,C33*%
X151063748Y-116165000D02*
X151586252Y-116165000D01*
X151063748Y-117635000D02*
X151586252Y-117635000D01*
%TO.C,U5*%
X290280000Y-102405000D02*
X290280000Y-103645000D01*
X290520000Y-102645000D02*
X299140000Y-102645000D01*
X290520000Y-114365000D02*
X290520000Y-102645000D01*
X291520000Y-102405000D02*
X290280000Y-102405000D01*
X299140000Y-102645000D02*
X299140000Y-114365000D01*
X299140000Y-114365000D02*
X290520000Y-114365000D01*
%TO.C,C25*%
X284423748Y-116165000D02*
X284946252Y-116165000D01*
X284423748Y-117635000D02*
X284946252Y-117635000D01*
%TO.C,FB1*%
X125840000Y-110599622D02*
X125840000Y-109800378D01*
X126960000Y-110599622D02*
X126960000Y-109800378D01*
%TO.C,R3*%
X319290000Y-121127064D02*
X319290000Y-119672936D01*
X321110000Y-121127064D02*
X321110000Y-119672936D01*
%TO.C,U3*%
X71940000Y-121640000D02*
X76060000Y-121640000D01*
X71940000Y-121735000D02*
X71940000Y-121640000D01*
X71940000Y-126760000D02*
X71940000Y-126665000D01*
X76060000Y-121640000D02*
X76060000Y-121735000D01*
X76060000Y-126665000D02*
X76060000Y-126760000D01*
X76060000Y-126760000D02*
X71940000Y-126760000D01*
X71400000Y-121730000D02*
X71160000Y-121400000D01*
X71640000Y-121400000D01*
X71400000Y-121730000D01*
G36*
X71400000Y-121730000D02*
G01*
X71160000Y-121400000D01*
X71640000Y-121400000D01*
X71400000Y-121730000D01*
G37*
%TO.C,C29*%
X217743748Y-116165000D02*
X218266252Y-116165000D01*
X217743748Y-117635000D02*
X218266252Y-117635000D01*
%TO.C,D2*%
X343150000Y-134910000D02*
X343150000Y-126400000D01*
X349650000Y-134910000D02*
X343150000Y-134910000D01*
X349650000Y-134910000D02*
X349650000Y-126400000D01*
%TO.C,C39*%
X332165000Y-123961252D02*
X332165000Y-123438748D01*
X333635000Y-123961252D02*
X333635000Y-123438748D01*
%TO.C,D6*%
X353910000Y-121300000D02*
X351250000Y-121300000D01*
X353910000Y-123000000D02*
X351250000Y-123000000D01*
X353910000Y-123000000D02*
X353910000Y-121300000D01*
%TO.C,C11*%
X273720000Y-103990000D02*
X276070000Y-103990000D01*
X273720000Y-109745563D02*
X273720000Y-103990000D01*
X274784437Y-110810000D02*
X273720000Y-109745563D01*
X274784437Y-110810000D02*
X276070000Y-110810000D01*
X274888750Y-111443750D02*
X275676250Y-111443750D01*
X275282500Y-111837500D02*
X275282500Y-111050000D01*
X279475563Y-110810000D02*
X278190000Y-110810000D01*
X279475563Y-110810000D02*
X280540000Y-109745563D01*
X280540000Y-103990000D02*
X278190000Y-103990000D01*
X280540000Y-109745563D02*
X280540000Y-103990000D01*
%TO.C,U2*%
X96440000Y-126440000D02*
X100560000Y-126440000D01*
X96440000Y-126535000D02*
X96440000Y-126440000D01*
X96440000Y-131560000D02*
X96440000Y-131465000D01*
X100560000Y-126440000D02*
X100560000Y-126535000D01*
X100560000Y-131465000D02*
X100560000Y-131560000D01*
X100560000Y-131560000D02*
X96440000Y-131560000D01*
X95900000Y-126530000D02*
X95660000Y-126200000D01*
X96140000Y-126200000D01*
X95900000Y-126530000D01*
G36*
X95900000Y-126530000D02*
G01*
X95660000Y-126200000D01*
X96140000Y-126200000D01*
X95900000Y-126530000D01*
G37*
%TO.C,R18*%
X152927064Y-102265000D02*
X152472936Y-102265000D01*
X152927064Y-103735000D02*
X152472936Y-103735000D01*
%TO.C,R30*%
X225472936Y-138065000D02*
X225927064Y-138065000D01*
X225472936Y-139535000D02*
X225927064Y-139535000D01*
%TO.C,R12*%
X107072936Y-139265000D02*
X107527064Y-139265000D01*
X107072936Y-140735000D02*
X107527064Y-140735000D01*
%TO.C,C24*%
X227665000Y-136361252D02*
X227665000Y-135838748D01*
X229135000Y-136361252D02*
X229135000Y-135838748D01*
%TO.C,J2*%
X321220000Y-134780000D02*
X321220000Y-133400000D01*
X322600000Y-134780000D02*
X321220000Y-134780000D01*
X323870000Y-132020000D02*
X334140000Y-132020000D01*
X323870000Y-134780000D02*
X323870000Y-132020000D01*
X323870000Y-134780000D02*
X334140000Y-134780000D01*
X334140000Y-134780000D02*
X334140000Y-132020000D01*
%TO.C,D5*%
X353910000Y-118760000D02*
X351250000Y-118760000D01*
X353910000Y-120460000D02*
X351250000Y-120460000D01*
X353910000Y-120460000D02*
X353910000Y-118760000D01*
%TO.C,C8*%
X82138748Y-101865000D02*
X82661252Y-101865000D01*
X82138748Y-103335000D02*
X82661252Y-103335000D01*
%TO.C,C34*%
X134393748Y-116165000D02*
X134916252Y-116165000D01*
X134393748Y-117635000D02*
X134916252Y-117635000D01*
%TO.C,C15*%
X109265000Y-137561252D02*
X109265000Y-137038748D01*
X110735000Y-137561252D02*
X110735000Y-137038748D01*
%TO.C,D18*%
X98615000Y-124120000D02*
X104015000Y-124120000D01*
X99715000Y-118880000D02*
X104015000Y-118880000D01*
X97565000Y-119300000D02*
X97565000Y-118500000D01*
X98365000Y-118500000D01*
X97565000Y-119300000D01*
G36*
X97565000Y-119300000D02*
G01*
X97565000Y-118500000D01*
X98365000Y-118500000D01*
X97565000Y-119300000D01*
G37*
%TO.C,R9*%
X68165000Y-125222936D02*
X68165000Y-125677064D01*
X69635000Y-125222936D02*
X69635000Y-125677064D01*
%TO.C,C35*%
X117723748Y-116165000D02*
X118246252Y-116165000D01*
X117723748Y-117635000D02*
X118246252Y-117635000D01*
%TO.C,R5*%
X88365000Y-129627064D02*
X88365000Y-129172936D01*
X89835000Y-129627064D02*
X89835000Y-129172936D01*
%TO.C,R38*%
X346872936Y-118700000D02*
X348327064Y-118700000D01*
X346872936Y-120520000D02*
X348327064Y-120520000D01*
%TO.C,R1*%
X313290000Y-121127064D02*
X313290000Y-119672936D01*
X315110000Y-121127064D02*
X315110000Y-119672936D01*
%TO.C,D8*%
X265315000Y-124120000D02*
X270715000Y-124120000D01*
X266415000Y-118880000D02*
X270715000Y-118880000D01*
X264265000Y-119300000D02*
X264265000Y-118500000D01*
X265065000Y-118500000D01*
X264265000Y-119300000D01*
G36*
X264265000Y-119300000D02*
G01*
X264265000Y-118500000D01*
X265065000Y-118500000D01*
X264265000Y-119300000D01*
G37*
%TO.C,C9*%
X68165000Y-129161252D02*
X68165000Y-128638748D01*
X69635000Y-129161252D02*
X69635000Y-128638748D01*
%TO.C,D9*%
X248645000Y-124120000D02*
X254045000Y-124120000D01*
X249745000Y-118880000D02*
X254045000Y-118880000D01*
X247595000Y-119300000D02*
X247595000Y-118500000D01*
X248395000Y-118500000D01*
X247595000Y-119300000D01*
G36*
X247595000Y-119300000D02*
G01*
X247595000Y-118500000D01*
X248395000Y-118500000D01*
X247595000Y-119300000D01*
G37*
%TO.C,R4*%
X86265000Y-129627064D02*
X86265000Y-129172936D01*
X87735000Y-129627064D02*
X87735000Y-129172936D01*
%TD*%
M02*
