%TF.GenerationSoftware,KiCad,Pcbnew,9.0.9-9.0.9~ubuntu24.04.1*%
%TF.CreationDate,2026-10-01T17:03:29+00:00*%
%TF.ProjectId,main-board,6d61696e-2d62-46f6-9172-642e6b696361,A*%
%TF.SameCoordinates,Original*%
%TF.FileFunction,Soldermask,Bot*%
%TF.FilePolarity,Negative*%
%FSLAX46Y46*%
G04 Gerber Fmt 4.6, Leading zero omitted, Abs format (unit mm)*
G04 Created by KiCad (PCBNEW 9.0.9-9.0.9~ubuntu24.04.1) date 2026-10-01 17:03:29*
%MOMM*%
%LPD*%
G01*
G04 APERTURE LIST*
%ADD10R,1.700000X1.700000*%
%ADD11C,1.700000*%
%ADD12C,3.100000*%
%ADD13C,5.400000*%
%ADD14R,2.300000X1.500000*%
%ADD15O,2.300000X1.500000*%
%ADD16O,1.700000X1.700000*%
%ADD17R,1.500000X1.070000*%
%ADD18O,1.500000X1.070000*%
%ADD19C,5.250000*%
G04 APERTURE END LIST*
D10*
%TO.C,J2*%
X322600000Y-133400000D03*
D11*
X325140000Y-133400000D03*
X327680000Y-133400000D03*
X330220000Y-133400000D03*
X332760000Y-133400000D03*
%TD*%
D12*
%TO.C,H9*%
X71500000Y-138500000D03*
D13*
X71500000Y-138500000D03*
%TD*%
D14*
%TO.C,U5*%
X292580000Y-106015000D03*
D15*
X292580000Y-108555000D03*
X292580000Y-111095000D03*
%TD*%
D12*
%TO.C,H1*%
X100000000Y-138900000D03*
D13*
X100000000Y-138900000D03*
%TD*%
D12*
%TO.C,H5*%
X208000000Y-138900000D03*
D13*
X208000000Y-138900000D03*
%TD*%
D10*
%TO.C,J6*%
X355599999Y-119610000D03*
D16*
X355599999Y-122150000D03*
X355599999Y-124690000D03*
X355599999Y-127230000D03*
X355599999Y-129770000D03*
X355599999Y-132310000D03*
X355599999Y-134850000D03*
X355599999Y-137390000D03*
%TD*%
D17*
%TO.C,J1*%
X302085000Y-114514999D03*
D18*
X303785000Y-114514999D03*
X302085000Y-115784999D03*
X303785000Y-115784999D03*
X302085000Y-117054999D03*
X303785000Y-117054999D03*
X302085000Y-118324999D03*
X303785000Y-118324999D03*
X302085000Y-119594999D03*
X303785000Y-119594999D03*
X302085000Y-120864999D03*
X303785000Y-120864999D03*
X302085000Y-122134999D03*
X303785000Y-122134999D03*
X302085000Y-123404999D03*
X303785000Y-123404999D03*
X302085000Y-124674999D03*
X303785000Y-124674999D03*
X302085000Y-125944999D03*
X303785000Y-125944999D03*
X302085000Y-127214999D03*
X303785000Y-127214999D03*
X302085000Y-128484999D03*
X303785000Y-128484999D03*
%TD*%
D12*
%TO.C,H6*%
X208000000Y-104100000D03*
D13*
X208000000Y-104100000D03*
%TD*%
D12*
%TO.C,H10*%
X338313000Y-137000000D03*
D13*
X338313000Y-137000000D03*
%TD*%
D12*
%TO.C,H3*%
X181700000Y-138900000D03*
D13*
X181700000Y-138900000D03*
%TD*%
D17*
%TO.C,J5*%
X241925000Y-104810000D03*
D18*
X243625000Y-104810000D03*
X241925000Y-106080000D03*
X243625000Y-106080000D03*
X241925000Y-107350000D03*
X243625000Y-107350000D03*
X241925000Y-108620000D03*
X243625000Y-108620000D03*
X241925000Y-109890000D03*
X243625000Y-109890000D03*
X241925000Y-111160000D03*
X243625000Y-111160000D03*
%TD*%
D12*
%TO.C,H4*%
X181700000Y-104100000D03*
D13*
X181700000Y-104100000D03*
%TD*%
D17*
%TO.C,J4*%
X130925000Y-104810000D03*
D18*
X132625000Y-104810000D03*
X130925000Y-106080000D03*
X132625000Y-106080000D03*
X130925000Y-107350000D03*
X132625000Y-107350000D03*
X130925000Y-108620000D03*
X132625000Y-108620000D03*
X130925000Y-109890000D03*
X132625000Y-109890000D03*
X130925000Y-111160000D03*
X132625000Y-111160000D03*
%TD*%
D12*
%TO.C,H8*%
X307700000Y-104100000D03*
D13*
X307700000Y-104100000D03*
%TD*%
D12*
%TO.C,H11*%
X338313000Y-120000000D03*
D13*
X338313000Y-120000000D03*
%TD*%
D12*
%TO.C,H2*%
X100000000Y-104100000D03*
D13*
X100000000Y-104100000D03*
%TD*%
D12*
%TO.C,H7*%
X307700000Y-138900000D03*
D13*
X307700000Y-138900000D03*
%TD*%
D19*
%TO.C,SW8*%
X258000000Y-111500000D03*
%TD*%
%TO.C,SW3*%
X150000000Y-131500000D03*
%TD*%
%TO.C,SW1*%
X110000000Y-131500000D03*
%TD*%
%TO.C,SW6*%
X218000000Y-111500000D03*
%TD*%
%TO.C,SW5*%
X218000000Y-131500000D03*
%TD*%
%TO.C,SW4*%
X150000000Y-111500000D03*
%TD*%
%TO.C,SW2*%
X110000000Y-111500000D03*
%TD*%
%TO.C,SW7*%
X258000000Y-131500000D03*
%TD*%
M02*
