%TF.GenerationSoftware,KiCad,Pcbnew,9.0.9-9.0.9~ubuntu24.04.1*%
%TF.CreationDate,2026-10-06T02:58:45+00:00*%
%TF.ProjectId,main-board,6d61696e-2d62-46f6-9172-642e6b696361,A*%
%TF.SameCoordinates,Original*%
%TF.FileFunction,Soldermask,Top*%
%TF.FilePolarity,Negative*%
%FSLAX46Y46*%
G04 Gerber Fmt 4.6, Leading zero omitted, Abs format (unit mm)*
G04 Created by KiCad (PCBNEW 9.0.9-9.0.9~ubuntu24.04.1) date 2026-10-06 02:58:45*
%MOMM*%
%LPD*%
G01*
G04 APERTURE LIST*
G04 Aperture macros list*
%AMRoundRect*
0 Rectangle with rounded corners*
0 $1 Rounding radius*
0 $2 $3 $4 $5 $6 $7 $8 $9 X,Y pos of 4 corners*
0 Add a 4 corners polygon primitive as box body*
4,1,4,$2,$3,$4,$5,$6,$7,$8,$9,$2,$3,0*
0 Add four circle primitives for the rounded corners*
1,1,$1+$1,$2,$3*
1,1,$1+$1,$4,$5*
1,1,$1+$1,$6,$7*
1,1,$1+$1,$8,$9*
0 Add four rect primitives between the rounded corners*
20,1,$1+$1,$2,$3,$4,$5,0*
20,1,$1+$1,$4,$5,$6,$7,0*
20,1,$1+$1,$6,$7,$8,$9,0*
20,1,$1+$1,$8,$9,$2,$3,0*%
G04 Aperture macros list end*
%ADD10RoundRect,0.250000X0.450000X-0.262500X0.450000X0.262500X-0.450000X0.262500X-0.450000X-0.262500X0*%
%ADD11RoundRect,0.250000X-0.475000X0.250000X-0.475000X-0.250000X0.475000X-0.250000X0.475000X0.250000X0*%
%ADD12RoundRect,0.218750X0.381250X-0.218750X0.381250X0.218750X-0.381250X0.218750X-0.381250X-0.218750X0*%
%ADD13R,1.500000X1.000000*%
%ADD14RoundRect,0.250000X-0.262500X-0.450000X0.262500X-0.450000X0.262500X0.450000X-0.262500X0.450000X0*%
%ADD15RoundRect,0.150000X-0.512500X-0.150000X0.512500X-0.150000X0.512500X0.150000X-0.512500X0.150000X0*%
%ADD16RoundRect,0.250000X-0.250000X-0.475000X0.250000X-0.475000X0.250000X0.475000X-0.250000X0.475000X0*%
%ADD17RoundRect,0.250000X-0.650000X1.000000X-0.650000X-1.000000X0.650000X-1.000000X0.650000X1.000000X0*%
%ADD18RoundRect,0.250000X1.400000X1.000000X-1.400000X1.000000X-1.400000X-1.000000X1.400000X-1.000000X0*%
%ADD19RoundRect,0.250000X0.475000X-0.250000X0.475000X0.250000X-0.475000X0.250000X-0.475000X-0.250000X0*%
%ADD20R,1.500000X1.070000*%
%ADD21O,1.500000X1.070000*%
%ADD22RoundRect,0.150000X0.150000X-0.512500X0.150000X0.512500X-0.150000X0.512500X-0.150000X-0.512500X0*%
%ADD23RoundRect,0.250000X-0.325000X-0.650000X0.325000X-0.650000X0.325000X0.650000X-0.325000X0.650000X0*%
%ADD24RoundRect,0.150000X0.150000X-0.587500X0.150000X0.587500X-0.150000X0.587500X-0.150000X-0.587500X0*%
%ADD25RoundRect,0.250000X0.262500X0.450000X-0.262500X0.450000X-0.262500X-0.450000X0.262500X-0.450000X0*%
%ADD26RoundRect,0.150000X-0.825000X-0.150000X0.825000X-0.150000X0.825000X0.150000X-0.825000X0.150000X0*%
%ADD27C,3.100000*%
%ADD28C,5.400000*%
%ADD29RoundRect,0.250000X-0.600000X-2.600000X0.600000X-2.600000X0.600000X2.600000X-0.600000X2.600000X0*%
%ADD30RoundRect,0.250000X-0.450000X0.262500X-0.450000X-0.262500X0.450000X-0.262500X0.450000X0.262500X0*%
%ADD31RoundRect,0.112500X0.112500X-0.187500X0.112500X0.187500X-0.112500X0.187500X-0.112500X-0.187500X0*%
%ADD32RoundRect,0.150000X-0.587500X-0.150000X0.587500X-0.150000X0.587500X0.150000X-0.587500X0.150000X0*%
%ADD33RoundRect,0.250000X0.625000X-0.312500X0.625000X0.312500X-0.625000X0.312500X-0.625000X-0.312500X0*%
%ADD34RoundRect,0.250000X-0.312500X-0.625000X0.312500X-0.625000X0.312500X0.625000X-0.312500X0.625000X0*%
%ADD35RoundRect,0.250000X0.650000X-0.325000X0.650000X0.325000X-0.650000X0.325000X-0.650000X-0.325000X0*%
%ADD36RoundRect,0.225000X-0.225000X-0.375000X0.225000X-0.375000X0.225000X0.375000X-0.225000X0.375000X0*%
%ADD37R,1.700000X1.700000*%
%ADD38O,1.700000X1.700000*%
%ADD39RoundRect,0.200000X-0.200000X-0.275000X0.200000X-0.275000X0.200000X0.275000X-0.200000X0.275000X0*%
%ADD40R,1.520000X2.800000*%
%ADD41RoundRect,0.250000X-1.500000X-0.550000X1.500000X-0.550000X1.500000X0.550000X-1.500000X0.550000X0*%
%ADD42R,1.070000X1.500000*%
%ADD43O,1.070000X1.500000*%
%ADD44RoundRect,0.150000X0.150000X-0.825000X0.150000X0.825000X-0.150000X0.825000X-0.150000X-0.825000X0*%
%ADD45RoundRect,0.250000X-0.250000X-2.500000X0.250000X-2.500000X0.250000X2.500000X-0.250000X2.500000X0*%
%ADD46RoundRect,0.250000X-0.550000X-1.250000X0.550000X-1.250000X0.550000X1.250000X-0.550000X1.250000X0*%
%ADD47R,1.500000X2.300000*%
%ADD48O,1.500000X2.300000*%
%ADD49R,1.020000X3.200000*%
%ADD50RoundRect,0.225000X0.375000X-0.225000X0.375000X0.225000X-0.375000X0.225000X-0.375000X-0.225000X0*%
%ADD51RoundRect,0.250000X0.550000X-1.500000X0.550000X1.500000X-0.550000X1.500000X-0.550000X-1.500000X0*%
%ADD52C,5.250000*%
%ADD53C,3.400000*%
G04 APERTURE END LIST*
D10*
%TO.C,R8*%
X68900000Y-133262500D03*
X68900000Y-131437500D03*
%TD*%
D11*
%TO.C,C8*%
X86100000Y-101650000D03*
X86100000Y-103550000D03*
%TD*%
D12*
%TO.C,FB3*%
X351950000Y-114462500D03*
X351950000Y-112337500D03*
%TD*%
D13*
%TO.C,D17*%
X141707700Y-119900000D03*
X141707700Y-121500000D03*
X141707700Y-123100000D03*
X146607700Y-123100000D03*
X146607700Y-121500000D03*
X146607700Y-119900000D03*
%TD*%
D14*
%TO.C,R6*%
X86587500Y-137200000D03*
X88412500Y-137200000D03*
%TD*%
D15*
%TO.C,U9*%
X123462500Y-104850000D03*
X123462500Y-105800000D03*
X123462500Y-106750000D03*
X125737500Y-106750000D03*
X125737500Y-104850000D03*
%TD*%
D16*
%TO.C,C203*%
X81650000Y-126400000D03*
X83550000Y-126400000D03*
%TD*%
D17*
%TO.C,D3*%
X351600000Y-126199999D03*
X351600000Y-130199999D03*
%TD*%
D18*
%TO.C,D2*%
X346400000Y-134000000D03*
X346400000Y-127200000D03*
%TD*%
D19*
%TO.C,C7*%
X81200000Y-134850000D03*
X81200000Y-132950000D03*
%TD*%
D20*
%TO.C,J4*%
X130925000Y-104810000D03*
D21*
X132625000Y-104810000D03*
X130925000Y-106080000D03*
X132625000Y-106080000D03*
X130925000Y-107350000D03*
X132625000Y-107350000D03*
X130925000Y-108620000D03*
X132625000Y-108620000D03*
X130925000Y-109890000D03*
X132625000Y-109890000D03*
X130925000Y-111160000D03*
X132625000Y-111160000D03*
%TD*%
D13*
%TO.C,D13*%
X221185000Y-119900000D03*
X221185000Y-121500000D03*
X221185000Y-123100000D03*
X226085000Y-123100000D03*
X226085000Y-121500000D03*
X226085000Y-119900000D03*
%TD*%
D22*
%TO.C,U12*%
X355950000Y-114537500D03*
X356900000Y-114537500D03*
X357850000Y-114537500D03*
X357850000Y-112262500D03*
X355950000Y-112262500D03*
%TD*%
D12*
%TO.C,FB1*%
X126400000Y-111262500D03*
X126400000Y-109137500D03*
%TD*%
%TO.C,FB4*%
X354050000Y-114462500D03*
X354050000Y-112337500D03*
%TD*%
D14*
%TO.C,R16*%
X134487499Y-135750000D03*
X136312499Y-135750000D03*
%TD*%
D23*
%TO.C,C4*%
X73525000Y-127460000D03*
X76475000Y-127460000D03*
%TD*%
D16*
%TO.C,C205*%
X244350000Y-125800000D03*
X246250000Y-125800000D03*
%TD*%
D13*
%TO.C,D15*%
X181446000Y-119900000D03*
X181446000Y-121500000D03*
X181446000Y-123100000D03*
X186346000Y-123100000D03*
X186346000Y-121500000D03*
X186346000Y-119900000D03*
%TD*%
D19*
%TO.C,C9*%
X68900000Y-129850000D03*
X68900000Y-127950000D03*
%TD*%
D24*
%TO.C,Q2*%
X297050000Y-129837500D03*
X298950000Y-129837500D03*
X298000000Y-127962500D03*
%TD*%
D25*
%TO.C,R18*%
X161012500Y-110750000D03*
X159187500Y-110750000D03*
%TD*%
D26*
%TO.C,U4*%
X73925000Y-129495000D03*
X73925000Y-130765000D03*
X73925000Y-132035000D03*
X73925000Y-133305000D03*
X78875000Y-133305000D03*
X78875000Y-132035000D03*
X78875000Y-130765000D03*
X78875000Y-129495000D03*
%TD*%
D13*
%TO.C,D20*%
X82100000Y-119900000D03*
X82100000Y-121500000D03*
X82100000Y-123100000D03*
X87000000Y-123100000D03*
X87000000Y-121500000D03*
X87000000Y-119900000D03*
%TD*%
D19*
%TO.C,C1*%
X91200000Y-131350000D03*
X91200000Y-129450000D03*
%TD*%
D16*
%TO.C,C14*%
X240650000Y-125800000D03*
X242550000Y-125800000D03*
%TD*%
D10*
%TO.C,R49*%
X323500000Y-113512500D03*
X323500000Y-111687500D03*
%TD*%
D11*
%TO.C,C207*%
X289800000Y-128650000D03*
X289800000Y-130550000D03*
%TD*%
%TO.C,C23*%
X228400000Y-131550000D03*
X228400000Y-133450000D03*
%TD*%
D27*
%TO.C,H8*%
X307700000Y-104100000D03*
D28*
X307700000Y-104100000D03*
%TD*%
D16*
%TO.C,C33*%
X182946000Y-117000000D03*
X184846000Y-117000000D03*
%TD*%
D29*
%TO.C,L1*%
X305550000Y-131500000D03*
X310050000Y-131500000D03*
%TD*%
D14*
%TO.C,R20*%
X206987500Y-132250000D03*
X208812500Y-132250000D03*
%TD*%
D13*
%TO.C,D11*%
X260923000Y-119900000D03*
X260923000Y-121500000D03*
X260923000Y-123100000D03*
X265823000Y-123100000D03*
X265823000Y-121500000D03*
X265823000Y-119900000D03*
%TD*%
D19*
%TO.C,C12*%
X330900000Y-114350000D03*
X330900000Y-112450000D03*
%TD*%
D16*
%TO.C,C28*%
X282291999Y-117000000D03*
X284191999Y-117000000D03*
%TD*%
D25*
%TO.C,R27*%
X263612500Y-111250000D03*
X261787500Y-111250000D03*
%TD*%
D19*
%TO.C,C17*%
X138100000Y-134000000D03*
X138100000Y-132100000D03*
%TD*%
D25*
%TO.C,R26*%
X269012500Y-111250000D03*
X267187500Y-111250000D03*
%TD*%
D19*
%TO.C,C40*%
X338000000Y-109950000D03*
X338000000Y-108050000D03*
%TD*%
D10*
%TO.C,R48*%
X325600000Y-113512500D03*
X325600000Y-111687500D03*
%TD*%
D30*
%TO.C,R47*%
X91000000Y-123687500D03*
X91000000Y-125512500D03*
%TD*%
D14*
%TO.C,R45*%
X91487500Y-127600000D03*
X93312500Y-127600000D03*
%TD*%
D16*
%TO.C,C31*%
X222685000Y-117000000D03*
X224585000Y-117000000D03*
%TD*%
D31*
%TO.C,D6*%
X352600000Y-123500000D03*
X352600000Y-121400000D03*
%TD*%
D10*
%TO.C,R33*%
X123200000Y-133612499D03*
X123200000Y-131787499D03*
%TD*%
D15*
%TO.C,U11*%
X234462500Y-104850000D03*
X234462500Y-105800000D03*
X234462500Y-106750000D03*
X236737500Y-106750000D03*
X236737500Y-104850000D03*
%TD*%
D13*
%TO.C,D19*%
X101969199Y-119900000D03*
X101969199Y-121500000D03*
X101969199Y-123100000D03*
X106869199Y-123100000D03*
X106869199Y-121500000D03*
X106869199Y-119900000D03*
%TD*%
D14*
%TO.C,R25*%
X248887499Y-139250000D03*
X250712499Y-139250000D03*
%TD*%
D16*
%TO.C,C30*%
X242554000Y-117000000D03*
X244454000Y-117000000D03*
%TD*%
D32*
%TO.C,Q1*%
X338062500Y-112550000D03*
X338062500Y-114450000D03*
X339937500Y-113500000D03*
%TD*%
D10*
%TO.C,R40*%
X341600000Y-132112499D03*
X341600000Y-130287499D03*
%TD*%
%TO.C,R5*%
X89100000Y-131312500D03*
X89100000Y-129487500D03*
%TD*%
D27*
%TO.C,H6*%
X205800000Y-104100000D03*
D28*
X205800000Y-104100000D03*
%TD*%
D27*
%TO.C,H11*%
X338450000Y-104100000D03*
D28*
X338450000Y-104100000D03*
%TD*%
D33*
%TO.C,R36*%
X297700000Y-114962500D03*
X297700000Y-112037500D03*
%TD*%
D30*
%TO.C,R9*%
X68900000Y-124537500D03*
X68900000Y-126362500D03*
%TD*%
D19*
%TO.C,C19*%
X210600000Y-130500000D03*
X210600000Y-128600000D03*
%TD*%
D16*
%TO.C,C29*%
X262423000Y-117000000D03*
X264323000Y-117000000D03*
%TD*%
D25*
%TO.C,R15*%
X117362499Y-114750000D03*
X115537499Y-114750000D03*
%TD*%
D11*
%TO.C,C201*%
X83900000Y-101650000D03*
X83900000Y-103550000D03*
%TD*%
D16*
%TO.C,C13*%
X124650000Y-125800000D03*
X126550000Y-125800000D03*
%TD*%
D33*
%TO.C,R50*%
X333300000Y-108462500D03*
X333300000Y-105537500D03*
%TD*%
D14*
%TO.C,R13*%
X123887500Y-140000000D03*
X125712500Y-140000000D03*
%TD*%
D27*
%TO.C,H7*%
X307700000Y-138900000D03*
D28*
X307700000Y-138900000D03*
%TD*%
D14*
%TO.C,R46*%
X340387500Y-134600000D03*
X342212500Y-134600000D03*
%TD*%
D13*
%TO.C,D16*%
X161577000Y-119900000D03*
X161577000Y-121500000D03*
X161577000Y-123100000D03*
X166477000Y-123100000D03*
X166477000Y-121500000D03*
X166477000Y-119900000D03*
%TD*%
D16*
%TO.C,C206*%
X128350000Y-125800000D03*
X130250000Y-125800000D03*
%TD*%
D34*
%TO.C,R39*%
X347487500Y-122150000D03*
X350412500Y-122150000D03*
%TD*%
D19*
%TO.C,C46*%
X350750000Y-134450000D03*
X350750000Y-132550000D03*
%TD*%
D33*
%TO.C,R2*%
X337000000Y-132662499D03*
X337000000Y-129737499D03*
%TD*%
D14*
%TO.C,R29*%
X230187500Y-129800000D03*
X232012500Y-129800000D03*
%TD*%
D15*
%TO.C,U13*%
X292162500Y-128650000D03*
X292162500Y-129600000D03*
X292162500Y-130550000D03*
X294437500Y-130550000D03*
X294437500Y-129600000D03*
X294437500Y-128650000D03*
%TD*%
D14*
%TO.C,R30*%
X235787500Y-135800000D03*
X237612500Y-135800000D03*
%TD*%
D25*
%TO.C,R22*%
X232762500Y-114750000D03*
X230937500Y-114750000D03*
%TD*%
D27*
%TO.C,H9*%
X71500000Y-138500000D03*
D28*
X71500000Y-138500000D03*
%TD*%
D19*
%TO.C,C45*%
X318000000Y-122200000D03*
X318000000Y-120300000D03*
%TD*%
D14*
%TO.C,R31*%
X241187500Y-135800000D03*
X243012500Y-135800000D03*
%TD*%
D15*
%TO.C,U1*%
X337362500Y-124750000D03*
X337362500Y-125700000D03*
X337362500Y-126650000D03*
X339637500Y-126650000D03*
X339637500Y-124750000D03*
%TD*%
D10*
%TO.C,R7*%
X68900000Y-122912500D03*
X68900000Y-121087500D03*
%TD*%
D11*
%TO.C,C20*%
X229150000Y-116500000D03*
X229150000Y-118400000D03*
%TD*%
D35*
%TO.C,C5*%
X81400000Y-131174999D03*
X81400000Y-128224999D03*
%TD*%
D16*
%TO.C,C36*%
X123338500Y-117000000D03*
X125238500Y-117000000D03*
%TD*%
%TO.C,C34*%
X163077000Y-117000000D03*
X164977000Y-117000000D03*
%TD*%
D26*
%TO.C,U3*%
X71525000Y-121695000D03*
X71525000Y-122965000D03*
X71525000Y-124235000D03*
X71525000Y-125505000D03*
X76475000Y-125505000D03*
X76475000Y-124235000D03*
X76475000Y-122965000D03*
X76475000Y-121695000D03*
%TD*%
D13*
%TO.C,D8*%
X320531000Y-119900000D03*
X320531000Y-121500000D03*
X320531000Y-123100000D03*
X325431000Y-123100000D03*
X325431000Y-121500000D03*
X325431000Y-119900000D03*
%TD*%
D33*
%TO.C,R51*%
X335800000Y-111212500D03*
X335800000Y-108287500D03*
%TD*%
D16*
%TO.C,C38*%
X83600000Y-117000000D03*
X85500000Y-117000000D03*
%TD*%
D10*
%TO.C,R11*%
X325900000Y-127012500D03*
X325900000Y-125187500D03*
%TD*%
D14*
%TO.C,R21*%
X212387499Y-132250000D03*
X214212499Y-132250000D03*
%TD*%
D27*
%TO.C,H10*%
X338450000Y-138900000D03*
D28*
X338450000Y-138900000D03*
%TD*%
D36*
%TO.C,D1*%
X80850000Y-137200000D03*
X84150000Y-137200000D03*
%TD*%
D37*
%TO.C,J6*%
X355599999Y-119610000D03*
D38*
X355599999Y-122150000D03*
X355599999Y-124690000D03*
X355599999Y-127230000D03*
X355599999Y-129770000D03*
X355599999Y-132310000D03*
X355599999Y-134850000D03*
X355599999Y-137390000D03*
%TD*%
D39*
%TO.C,R44*%
X136075000Y-128300000D03*
X137725000Y-128300000D03*
%TD*%
D11*
%TO.C,C204*%
X79200000Y-123450000D03*
X79200000Y-125350000D03*
%TD*%
D35*
%TO.C,C42*%
X96200000Y-125575000D03*
X96200000Y-122625000D03*
%TD*%
D40*
%TO.C,U10*%
X77960000Y-102400000D03*
X75420000Y-102400000D03*
X72880000Y-102400000D03*
X70340000Y-102400000D03*
X70340000Y-118400000D03*
X72880000Y-118400000D03*
X75420000Y-118400000D03*
X77960000Y-118400000D03*
%TD*%
D16*
%TO.C,C27*%
X302161999Y-117000000D03*
X304061999Y-117000000D03*
%TD*%
D33*
%TO.C,R35*%
X295100000Y-114962500D03*
X295100000Y-112037500D03*
%TD*%
D13*
%TO.C,D9*%
X300661999Y-119900000D03*
X300661999Y-121500000D03*
X300661999Y-123100000D03*
X305561999Y-123100000D03*
X305561999Y-121500000D03*
X305561999Y-119900000D03*
%TD*%
D11*
%TO.C,C6*%
X71650000Y-131080000D03*
X71650000Y-132980000D03*
%TD*%
D26*
%TO.C,U2*%
X96025000Y-127495000D03*
X96025000Y-128765000D03*
X96025000Y-130035000D03*
X96025000Y-131305000D03*
X100975000Y-131305000D03*
X100975000Y-130035000D03*
X100975000Y-128765000D03*
X100975000Y-127495000D03*
%TD*%
D16*
%TO.C,C3*%
X100550000Y-125600000D03*
X102450000Y-125600000D03*
%TD*%
D33*
%TO.C,R3*%
X339300000Y-132662499D03*
X339300000Y-129737499D03*
%TD*%
D14*
%TO.C,R28*%
X224787500Y-129800000D03*
X226612500Y-129800000D03*
%TD*%
%TO.C,R17*%
X139887500Y-135750000D03*
X141712500Y-135750000D03*
%TD*%
D16*
%TO.C,C26*%
X322031000Y-117000000D03*
X323931000Y-117000000D03*
%TD*%
D10*
%TO.C,R42*%
X347000000Y-114412500D03*
X347000000Y-112587500D03*
%TD*%
%TO.C,R32*%
X123200000Y-129712500D03*
X123200000Y-127887500D03*
%TD*%
D20*
%TO.C,J5*%
X241925000Y-104810000D03*
D21*
X243625000Y-104810000D03*
X241925000Y-106080000D03*
X243625000Y-106080000D03*
X241925000Y-107350000D03*
X243625000Y-107350000D03*
X241925000Y-108620000D03*
X243625000Y-108620000D03*
X241925000Y-109890000D03*
X243625000Y-109890000D03*
X241925000Y-111160000D03*
X243625000Y-111160000D03*
%TD*%
D19*
%TO.C,C39*%
X342500000Y-114450000D03*
X342500000Y-112550000D03*
%TD*%
D34*
%TO.C,R38*%
X347487500Y-119610000D03*
X350412500Y-119610000D03*
%TD*%
D41*
%TO.C,C10*%
X269500000Y-138500000D03*
X274900000Y-138500000D03*
%TD*%
D16*
%TO.C,C32*%
X202815000Y-117000000D03*
X204715000Y-117000000D03*
%TD*%
D30*
%TO.C,R43*%
X340300000Y-108087500D03*
X340300000Y-109912500D03*
%TD*%
D13*
%TO.C,D18*%
X121838500Y-119900000D03*
X121838500Y-121500000D03*
X121838500Y-123100000D03*
X126738500Y-123100000D03*
X126738500Y-121500000D03*
X126738500Y-119900000D03*
%TD*%
D16*
%TO.C,C47*%
X99050000Y-116000000D03*
X100950000Y-116000000D03*
%TD*%
D27*
%TO.C,H3*%
X181700000Y-138900000D03*
D28*
X181700000Y-138900000D03*
%TD*%
D13*
%TO.C,D14*%
X201315000Y-119900000D03*
X201315000Y-121500000D03*
X201315000Y-123100000D03*
X206215000Y-123100000D03*
X206215000Y-121500000D03*
X206215000Y-119900000D03*
%TD*%
D27*
%TO.C,H2*%
X97800000Y-104100000D03*
D28*
X97800000Y-104100000D03*
%TD*%
D10*
%TO.C,R37*%
X122000000Y-111112500D03*
X122000000Y-109287500D03*
%TD*%
D35*
%TO.C,C2*%
X93600000Y-125575000D03*
X93600000Y-122625000D03*
%TD*%
D10*
%TO.C,R10*%
X328300000Y-113912500D03*
X328300000Y-112087500D03*
%TD*%
D11*
%TO.C,C22*%
X265399999Y-113000000D03*
X265399999Y-114900000D03*
%TD*%
D23*
%TO.C,C43*%
X278525000Y-131699999D03*
X281475000Y-131699999D03*
%TD*%
D19*
%TO.C,C24*%
X239400000Y-134050000D03*
X239400000Y-132150000D03*
%TD*%
D25*
%TO.C,R19*%
X155612500Y-110750000D03*
X153787500Y-110750000D03*
%TD*%
D10*
%TO.C,R41*%
X344800000Y-114412500D03*
X344800000Y-112587500D03*
%TD*%
D14*
%TO.C,R12*%
X118487500Y-140000000D03*
X120312500Y-140000000D03*
%TD*%
D26*
%TO.C,U6*%
X328425000Y-116190000D03*
X328425000Y-117460000D03*
X328425000Y-118730000D03*
X328425000Y-120000000D03*
X328425000Y-121270000D03*
X328425000Y-122540000D03*
X328425000Y-123810000D03*
X333375000Y-123810000D03*
X333375000Y-122540000D03*
X333375000Y-121270000D03*
X333375000Y-120000000D03*
X333375000Y-118730000D03*
X333375000Y-117460000D03*
X333375000Y-116190000D03*
%TD*%
D13*
%TO.C,D12*%
X241054000Y-119900000D03*
X241054000Y-121500000D03*
X241054000Y-123100000D03*
X245954000Y-123100000D03*
X245954000Y-121500000D03*
X245954000Y-119900000D03*
%TD*%
D16*
%TO.C,C37*%
X103469199Y-117000000D03*
X105369199Y-117000000D03*
%TD*%
D25*
%TO.C,R23*%
X227362500Y-114750000D03*
X225537500Y-114750000D03*
%TD*%
D41*
%TO.C,C44*%
X269500000Y-131300000D03*
X274900000Y-131300000D03*
%TD*%
D42*
%TO.C,J1*%
X315284999Y-138830000D03*
D43*
X315284999Y-137130000D03*
X316554999Y-138830000D03*
X316554999Y-137130000D03*
X317824999Y-138830000D03*
X317824999Y-137130000D03*
X319094999Y-138830000D03*
X319094999Y-137130000D03*
X320364999Y-138830000D03*
X320364999Y-137130000D03*
X321634999Y-138830000D03*
X321634999Y-137130000D03*
X322904999Y-138830000D03*
X322904999Y-137130000D03*
X324174999Y-138830000D03*
X324174999Y-137130000D03*
X325444999Y-138830000D03*
X325444999Y-137130000D03*
X326714999Y-138830000D03*
X326714999Y-137130000D03*
X327984999Y-138830000D03*
X327984999Y-137130000D03*
X329254999Y-138830000D03*
X329254999Y-137130000D03*
%TD*%
D27*
%TO.C,H4*%
X181700000Y-104100000D03*
D28*
X181700000Y-104100000D03*
%TD*%
D44*
%TO.C,U7*%
X125555000Y-133275000D03*
X126825000Y-133275000D03*
X128095000Y-133275000D03*
X129365000Y-133275000D03*
X130635000Y-133275000D03*
X131905000Y-133275000D03*
X133175000Y-133275000D03*
X134445000Y-133275000D03*
X134445000Y-128325000D03*
X133175000Y-128325000D03*
X131905000Y-128325000D03*
X130635000Y-128325000D03*
X129365000Y-128325000D03*
X128095000Y-128325000D03*
X126825000Y-128325000D03*
X125555000Y-128325000D03*
%TD*%
D11*
%TO.C,C202*%
X81700000Y-101650000D03*
X81700000Y-103550000D03*
%TD*%
D45*
%TO.C,J7*%
X352000000Y-107500000D03*
X354000000Y-107500000D03*
X356000000Y-107500000D03*
D46*
X349600000Y-105250000D03*
X358400000Y-105250000D03*
%TD*%
D10*
%TO.C,R4*%
X87000000Y-131312500D03*
X87000000Y-129487500D03*
%TD*%
D19*
%TO.C,C15*%
X122100000Y-138250000D03*
X122100000Y-136350000D03*
%TD*%
D16*
%TO.C,C208*%
X300650000Y-129400000D03*
X302550000Y-129400000D03*
%TD*%
D27*
%TO.C,H5*%
X205800000Y-138900000D03*
D28*
X205800000Y-138900000D03*
%TD*%
D11*
%TO.C,C18*%
X157400000Y-112500000D03*
X157400000Y-114400000D03*
%TD*%
D47*
%TO.C,U5*%
X286100000Y-135250000D03*
D48*
X283560000Y-135250000D03*
X281020000Y-135250000D03*
%TD*%
D31*
%TO.C,D5*%
X352600000Y-119750000D03*
X352600000Y-117650000D03*
%TD*%
D49*
%TO.C,J2*%
X344000000Y-137400000D03*
X346540000Y-140600000D03*
X349080000Y-137400000D03*
%TD*%
D50*
%TO.C,D21*%
X343000000Y-110650000D03*
X343000000Y-107350000D03*
%TD*%
D25*
%TO.C,R14*%
X122762500Y-114750000D03*
X120937500Y-114750000D03*
%TD*%
D33*
%TO.C,R34*%
X292500000Y-114962500D03*
X292500000Y-112037500D03*
%TD*%
D13*
%TO.C,D10*%
X280791999Y-119900000D03*
X280791999Y-121500000D03*
X280791999Y-123100000D03*
X285691999Y-123100000D03*
X285691999Y-121500000D03*
X285691999Y-119900000D03*
%TD*%
D16*
%TO.C,C35*%
X143207700Y-117000000D03*
X145107700Y-117000000D03*
%TD*%
D44*
%TO.C,U8*%
X241555000Y-133275000D03*
X242825000Y-133275000D03*
X244095000Y-133275000D03*
X245365000Y-133275000D03*
X246635000Y-133275000D03*
X247905000Y-133275000D03*
X249175000Y-133275000D03*
X250445000Y-133275000D03*
X250445000Y-128325000D03*
X249175000Y-128325000D03*
X247905000Y-128325000D03*
X246635000Y-128325000D03*
X245365000Y-128325000D03*
X244095000Y-128325000D03*
X242825000Y-128325000D03*
X241555000Y-128325000D03*
%TD*%
D14*
%TO.C,R24*%
X243487500Y-139250000D03*
X245312500Y-139250000D03*
%TD*%
D27*
%TO.C,H1*%
X97800000Y-138900000D03*
D28*
X97800000Y-138900000D03*
%TD*%
D19*
%TO.C,C21*%
X247100000Y-137500000D03*
X247100000Y-135600000D03*
%TD*%
D51*
%TO.C,C11*%
X297000000Y-140200000D03*
X297000000Y-134800000D03*
%TD*%
D12*
%TO.C,FB2*%
X227300000Y-109562500D03*
X227300000Y-107437500D03*
%TD*%
D33*
%TO.C,R1*%
X334700000Y-132662499D03*
X334700000Y-129737499D03*
%TD*%
D11*
%TO.C,C16*%
X119150000Y-116500000D03*
X119150000Y-118400000D03*
%TD*%
D52*
%TO.C,SW5*%
X218000000Y-131500000D03*
D53*
X222400000Y-136200000D03*
X215400000Y-137250000D03*
%TD*%
D52*
%TO.C,SW7*%
X258000000Y-131500000D03*
D53*
X262400000Y-136200000D03*
X255400000Y-137250000D03*
%TD*%
D52*
%TO.C,SW2*%
X110000000Y-111500000D03*
D53*
X105600000Y-106800000D03*
X112600000Y-105750000D03*
%TD*%
D52*
%TO.C,SW6*%
X218000000Y-111500000D03*
D53*
X213600000Y-106800000D03*
X220600000Y-105750000D03*
%TD*%
D52*
%TO.C,SW4*%
X150000000Y-111500000D03*
D53*
X145600000Y-106800000D03*
X152600000Y-105750000D03*
%TD*%
D52*
%TO.C,SW8*%
X258000000Y-111500000D03*
D53*
X253600000Y-106800000D03*
X260600000Y-105750000D03*
%TD*%
D52*
%TO.C,SW1*%
X110000000Y-131500000D03*
D53*
X114400000Y-136200000D03*
X107400000Y-137250000D03*
%TD*%
D52*
%TO.C,SW3*%
X150000000Y-131500000D03*
D53*
X154400000Y-136200000D03*
X147400000Y-137250000D03*
%TD*%
M02*
