%TF.GenerationSoftware,KiCad,Pcbnew,9.0.9-9.0.9~ubuntu24.04.1*%
%TF.CreationDate,2026-10-06T03:37:37+00:00*%
%TF.ProjectId,main-board,6d61696e-2d62-46f6-9172-642e6b696361,A*%
%TF.SameCoordinates,Original*%
%TF.FileFunction,Soldermask,Bot*%
%TF.FilePolarity,Negative*%
%FSLAX46Y46*%
G04 Gerber Fmt 4.6, Leading zero omitted, Abs format (unit mm)*
G04 Created by KiCad (PCBNEW 9.0.9-9.0.9~ubuntu24.04.1) date 2026-10-06 03:37:37*
%MOMM*%
%LPD*%
G01*
G04 APERTURE LIST*
%ADD10R,1.500000X1.070000*%
%ADD11O,1.500000X1.070000*%
%ADD12C,3.100000*%
%ADD13C,5.400000*%
%ADD14R,1.700000X1.700000*%
%ADD15O,1.700000X1.700000*%
%ADD16R,1.070000X1.500000*%
%ADD17O,1.070000X1.500000*%
%ADD18R,1.500000X2.300000*%
%ADD19O,1.500000X2.300000*%
%ADD20C,5.250000*%
G04 APERTURE END LIST*
D10*
%TO.C,J4*%
X130925000Y-104810000D03*
D11*
X132625000Y-104810000D03*
X130925000Y-106080000D03*
X132625000Y-106080000D03*
X130925000Y-107350000D03*
X132625000Y-107350000D03*
X130925000Y-108620000D03*
X132625000Y-108620000D03*
X130925000Y-109890000D03*
X132625000Y-109890000D03*
X130925000Y-111160000D03*
X132625000Y-111160000D03*
%TD*%
D12*
%TO.C,H8*%
X307700000Y-104100000D03*
D13*
X307700000Y-104100000D03*
%TD*%
D12*
%TO.C,H6*%
X205800000Y-104100000D03*
D13*
X205800000Y-104100000D03*
%TD*%
D12*
%TO.C,H11*%
X338450000Y-104100000D03*
D13*
X338450000Y-104100000D03*
%TD*%
D12*
%TO.C,H7*%
X307700000Y-138900000D03*
D13*
X307700000Y-138900000D03*
%TD*%
D12*
%TO.C,H9*%
X71500000Y-138500000D03*
D13*
X71500000Y-138500000D03*
%TD*%
D12*
%TO.C,H10*%
X338450000Y-138900000D03*
D13*
X338450000Y-138900000D03*
%TD*%
D14*
%TO.C,J6*%
X355599999Y-119610000D03*
D15*
X355599999Y-122150000D03*
X355599999Y-124690000D03*
X355599999Y-127230000D03*
X355599999Y-129770000D03*
X355599999Y-132310000D03*
X355599999Y-134850000D03*
X355599999Y-137390000D03*
%TD*%
D10*
%TO.C,J5*%
X241925000Y-104810000D03*
D11*
X243625000Y-104810000D03*
X241925000Y-106080000D03*
X243625000Y-106080000D03*
X241925000Y-107350000D03*
X243625000Y-107350000D03*
X241925000Y-108620000D03*
X243625000Y-108620000D03*
X241925000Y-109890000D03*
X243625000Y-109890000D03*
X241925000Y-111160000D03*
X243625000Y-111160000D03*
%TD*%
D12*
%TO.C,H3*%
X181700000Y-138900000D03*
D13*
X181700000Y-138900000D03*
%TD*%
D12*
%TO.C,H2*%
X97800000Y-104100000D03*
D13*
X97800000Y-104100000D03*
%TD*%
D16*
%TO.C,J1*%
X315284999Y-138830000D03*
D17*
X315284999Y-137130000D03*
X316554999Y-138830000D03*
X316554999Y-137130000D03*
X317824999Y-138830000D03*
X317824999Y-137130000D03*
X319094999Y-138830000D03*
X319094999Y-137130000D03*
X320364999Y-138830000D03*
X320364999Y-137130000D03*
X321634999Y-138830000D03*
X321634999Y-137130000D03*
X322904999Y-138830000D03*
X322904999Y-137130000D03*
X324174999Y-138830000D03*
X324174999Y-137130000D03*
X325444999Y-138830000D03*
X325444999Y-137130000D03*
X326714999Y-138830000D03*
X326714999Y-137130000D03*
X327984999Y-138830000D03*
X327984999Y-137130000D03*
X329254999Y-138830000D03*
X329254999Y-137130000D03*
%TD*%
D12*
%TO.C,H4*%
X181700000Y-104100000D03*
D13*
X181700000Y-104100000D03*
%TD*%
D12*
%TO.C,H5*%
X205800000Y-138900000D03*
D13*
X205800000Y-138900000D03*
%TD*%
D18*
%TO.C,U5*%
X286100000Y-135250000D03*
D19*
X283560000Y-135250000D03*
X281020000Y-135250000D03*
%TD*%
D12*
%TO.C,H1*%
X97800000Y-138900000D03*
D13*
X97800000Y-138900000D03*
%TD*%
D20*
%TO.C,SW5*%
X218000000Y-131500000D03*
%TD*%
%TO.C,SW7*%
X258000000Y-131500000D03*
%TD*%
%TO.C,SW2*%
X110000000Y-111500000D03*
%TD*%
%TO.C,SW6*%
X218000000Y-111500000D03*
%TD*%
%TO.C,SW4*%
X150000000Y-111500000D03*
%TD*%
%TO.C,SW8*%
X258000000Y-111500000D03*
%TD*%
%TO.C,SW1*%
X110000000Y-131500000D03*
%TD*%
%TO.C,SW3*%
X150000000Y-131500000D03*
%TD*%
M02*
