%TF.GenerationSoftware,KiCad,Pcbnew,9.0.9-9.0.9~ubuntu24.04.1*%
%TF.CreationDate,2026-10-01T17:03:29+00:00*%
%TF.ProjectId,main-board,6d61696e-2d62-46f6-9172-642e6b696361,A*%
%TF.SameCoordinates,Original*%
%TF.FileFunction,Paste,Top*%
%TF.FilePolarity,Positive*%
%FSLAX46Y46*%
G04 Gerber Fmt 4.6, Leading zero omitted, Abs format (unit mm)*
G04 Created by KiCad (PCBNEW 9.0.9-9.0.9~ubuntu24.04.1) date 2026-10-01 17:03:29*
%MOMM*%
%LPD*%
G01*
G04 APERTURE LIST*
G04 Aperture macros list*
%AMRoundRect*
0 Rectangle with rounded corners*
0 $1 Rounding radius*
0 $2 $3 $4 $5 $6 $7 $8 $9 X,Y pos of 4 corners*
0 Add a 4 corners polygon primitive as box body*
4,1,4,$2,$3,$4,$5,$6,$7,$8,$9,$2,$3,0*
0 Add four circle primitives for the rounded corners*
1,1,$1+$1,$2,$3*
1,1,$1+$1,$4,$5*
1,1,$1+$1,$6,$7*
1,1,$1+$1,$8,$9*
0 Add four rect primitives between the rounded corners*
20,1,$1+$1,$2,$3,$4,$5,0*
20,1,$1+$1,$4,$5,$6,$7,0*
20,1,$1+$1,$6,$7,$8,$9,0*
20,1,$1+$1,$8,$9,$2,$3,0*%
G04 Aperture macros list end*
%ADD10RoundRect,0.250000X-0.262500X-0.450000X0.262500X-0.450000X0.262500X0.450000X-0.262500X0.450000X0*%
%ADD11R,1.500000X1.000000*%
%ADD12RoundRect,0.250000X-0.475000X0.250000X-0.475000X-0.250000X0.475000X-0.250000X0.475000X0.250000X0*%
%ADD13RoundRect,0.250000X0.625000X-0.312500X0.625000X0.312500X-0.625000X0.312500X-0.625000X-0.312500X0*%
%ADD14RoundRect,0.250000X0.450000X-0.262500X0.450000X0.262500X-0.450000X0.262500X-0.450000X-0.262500X0*%
%ADD15RoundRect,0.250000X-1.750000X-1.000000X1.750000X-1.000000X1.750000X1.000000X-1.750000X1.000000X0*%
%ADD16RoundRect,0.250000X0.475000X-0.250000X0.475000X0.250000X-0.475000X0.250000X-0.475000X-0.250000X0*%
%ADD17RoundRect,0.150000X0.150000X-0.825000X0.150000X0.825000X-0.150000X0.825000X-0.150000X-0.825000X0*%
%ADD18RoundRect,0.250000X-0.600000X-2.600000X0.600000X-2.600000X0.600000X2.600000X-0.600000X2.600000X0*%
%ADD19RoundRect,0.112500X0.187500X0.112500X-0.187500X0.112500X-0.187500X-0.112500X0.187500X-0.112500X0*%
%ADD20RoundRect,0.250000X-0.250000X-0.475000X0.250000X-0.475000X0.250000X0.475000X-0.250000X0.475000X0*%
%ADD21RoundRect,0.150000X-0.825000X-0.150000X0.825000X-0.150000X0.825000X0.150000X-0.825000X0.150000X0*%
%ADD22RoundRect,0.250000X-0.325000X-0.650000X0.325000X-0.650000X0.325000X0.650000X-0.325000X0.650000X0*%
%ADD23RoundRect,0.250000X-0.312500X-0.625000X0.312500X-0.625000X0.312500X0.625000X-0.312500X0.625000X0*%
%ADD24RoundRect,0.250000X0.262500X0.450000X-0.262500X0.450000X-0.262500X-0.450000X0.262500X-0.450000X0*%
%ADD25R,1.520000X2.800000*%
%ADD26RoundRect,0.150000X-0.512500X-0.150000X0.512500X-0.150000X0.512500X0.150000X-0.512500X0.150000X0*%
%ADD27RoundRect,0.150000X-0.587500X-0.150000X0.587500X-0.150000X0.587500X0.150000X-0.587500X0.150000X0*%
%ADD28RoundRect,0.250000X0.650000X-1.000000X0.650000X1.000000X-0.650000X1.000000X-0.650000X-1.000000X0*%
%ADD29RoundRect,0.200000X-0.200000X-0.275000X0.200000X-0.275000X0.200000X0.275000X-0.200000X0.275000X0*%
%ADD30RoundRect,0.225000X0.375000X-0.225000X0.375000X0.225000X-0.375000X0.225000X-0.375000X-0.225000X0*%
%ADD31RoundRect,0.250000X1.400000X1.000000X-1.400000X1.000000X-1.400000X-1.000000X1.400000X-1.000000X0*%
%ADD32RoundRect,0.250000X1.000000X0.650000X-1.000000X0.650000X-1.000000X-0.650000X1.000000X-0.650000X0*%
%ADD33RoundRect,0.218750X0.381250X-0.218750X0.381250X0.218750X-0.381250X0.218750X-0.381250X-0.218750X0*%
%ADD34RoundRect,0.225000X-0.225000X-0.375000X0.225000X-0.375000X0.225000X0.375000X-0.225000X0.375000X0*%
%ADD35RoundRect,0.250000X-0.450000X0.262500X-0.450000X-0.262500X0.450000X-0.262500X0.450000X0.262500X0*%
%ADD36RoundRect,0.250000X0.650000X-0.325000X0.650000X0.325000X-0.650000X0.325000X-0.650000X-0.325000X0*%
%ADD37RoundRect,0.250000X0.550000X-1.500000X0.550000X1.500000X-0.550000X1.500000X-0.550000X-1.500000X0*%
G04 APERTURE END LIST*
D10*
%TO.C,R25*%
X259787500Y-140000000D03*
X261612500Y-140000000D03*
%TD*%
D11*
%TO.C,D13*%
X182215000Y-119900000D03*
X182215000Y-121500000D03*
X182215000Y-123100000D03*
X187115000Y-123100000D03*
X187115000Y-121500000D03*
X187115000Y-119900000D03*
%TD*%
D12*
%TO.C,C16*%
X110000000Y-104750000D03*
X110000000Y-106650000D03*
%TD*%
D11*
%TO.C,D11*%
X215555000Y-119900000D03*
X215555000Y-121500000D03*
X215555000Y-123100000D03*
X220455000Y-123100000D03*
X220455000Y-121500000D03*
X220455000Y-119900000D03*
%TD*%
%TO.C,D7*%
X282235000Y-119900000D03*
X282235000Y-121500000D03*
X282235000Y-123100000D03*
X287135000Y-123100000D03*
X287135000Y-121500000D03*
X287135000Y-119900000D03*
%TD*%
D13*
%TO.C,R3*%
X320200000Y-121862500D03*
X320200000Y-118937500D03*
%TD*%
D14*
%TO.C,R37*%
X122000000Y-111112500D03*
X122000000Y-109287500D03*
%TD*%
D15*
%TO.C,C10*%
X277200000Y-133600000D03*
X285200000Y-133600000D03*
%TD*%
D11*
%TO.C,D19*%
X82195000Y-119900000D03*
X82195000Y-121500000D03*
X82195000Y-123100000D03*
X87095000Y-123100000D03*
X87095000Y-121500000D03*
X87095000Y-119900000D03*
%TD*%
D16*
%TO.C,C21*%
X258000000Y-138250000D03*
X258000000Y-136350000D03*
%TD*%
D17*
%TO.C,U8*%
X241555000Y-133275000D03*
X242825000Y-133275000D03*
X244095000Y-133275000D03*
X245365000Y-133275000D03*
X246635000Y-133275000D03*
X247905000Y-133275000D03*
X249175000Y-133275000D03*
X250445000Y-133275000D03*
X250445000Y-128325000D03*
X249175000Y-128325000D03*
X247905000Y-128325000D03*
X246635000Y-128325000D03*
X245365000Y-128325000D03*
X244095000Y-128325000D03*
X242825000Y-128325000D03*
X241555000Y-128325000D03*
%TD*%
D18*
%TO.C,L1*%
X283180000Y-106400000D03*
X287680000Y-106400000D03*
%TD*%
D12*
%TO.C,C12*%
X297700000Y-128850000D03*
X297700000Y-130750000D03*
%TD*%
D16*
%TO.C,C1*%
X91200000Y-130350000D03*
X91200000Y-128450000D03*
%TD*%
D19*
%TO.C,D6*%
X353350000Y-122150000D03*
X351250000Y-122150000D03*
%TD*%
D20*
%TO.C,C36*%
X100365000Y-116900000D03*
X102265000Y-116900000D03*
%TD*%
D21*
%TO.C,U3*%
X71525000Y-122295000D03*
X71525000Y-123565000D03*
X71525000Y-124835000D03*
X71525000Y-126105000D03*
X76475000Y-126105000D03*
X76475000Y-124835000D03*
X76475000Y-123565000D03*
X76475000Y-122295000D03*
%TD*%
D16*
%TO.C,C17*%
X150000000Y-138250000D03*
X150000000Y-136350000D03*
%TD*%
D11*
%TO.C,D14*%
X165545000Y-119900000D03*
X165545000Y-121500000D03*
X165545000Y-123100000D03*
X170445000Y-123100000D03*
X170445000Y-121500000D03*
X170445000Y-119900000D03*
%TD*%
D22*
%TO.C,C2*%
X90325000Y-133600000D03*
X93275000Y-133600000D03*
%TD*%
D20*
%TO.C,C27*%
X250395000Y-116900000D03*
X252295000Y-116900000D03*
%TD*%
D16*
%TO.C,C203*%
X81800000Y-127350000D03*
X81800000Y-125450000D03*
%TD*%
D10*
%TO.C,R16*%
X146387500Y-140000000D03*
X148212500Y-140000000D03*
%TD*%
D23*
%TO.C,R38*%
X346137500Y-119610000D03*
X349062500Y-119610000D03*
%TD*%
D10*
%TO.C,R13*%
X111787500Y-140000000D03*
X113612500Y-140000000D03*
%TD*%
D16*
%TO.C,C19*%
X218000000Y-138250000D03*
X218000000Y-136350000D03*
%TD*%
D10*
%TO.C,R31*%
X230187500Y-138800000D03*
X232012500Y-138800000D03*
%TD*%
D24*
%TO.C,R18*%
X153612500Y-103000000D03*
X151787500Y-103000000D03*
%TD*%
D20*
%TO.C,C33*%
X150375000Y-116900000D03*
X152275000Y-116900000D03*
%TD*%
D14*
%TO.C,R4*%
X87000000Y-130312500D03*
X87000000Y-128487500D03*
%TD*%
D25*
%TO.C,U10*%
X77960000Y-102400000D03*
X75420000Y-102400000D03*
X72880000Y-102400000D03*
X70340000Y-102400000D03*
X70340000Y-118400000D03*
X72880000Y-118400000D03*
X75420000Y-118400000D03*
X77960000Y-118400000D03*
%TD*%
D26*
%TO.C,U9*%
X123462500Y-104850000D03*
X123462500Y-105800000D03*
X123462500Y-106750000D03*
X125737500Y-106750000D03*
X125737500Y-104850000D03*
%TD*%
D17*
%TO.C,U7*%
X125555000Y-133275000D03*
X126825000Y-133275000D03*
X128095000Y-133275000D03*
X129365000Y-133275000D03*
X130635000Y-133275000D03*
X131905000Y-133275000D03*
X133175000Y-133275000D03*
X134445000Y-133275000D03*
X134445000Y-128325000D03*
X133175000Y-128325000D03*
X131905000Y-128325000D03*
X130635000Y-128325000D03*
X129365000Y-128325000D03*
X128095000Y-128325000D03*
X126825000Y-128325000D03*
X125555000Y-128325000D03*
%TD*%
D20*
%TO.C,C26*%
X267065000Y-116900000D03*
X268965000Y-116900000D03*
%TD*%
D26*
%TO.C,U1*%
X315362500Y-131550000D03*
X315362500Y-132500000D03*
X315362500Y-133450000D03*
X317637500Y-133450000D03*
X317637500Y-131550000D03*
%TD*%
D27*
%TO.C,Q1*%
X329562500Y-127249999D03*
X329562500Y-129149999D03*
X331437500Y-128199999D03*
%TD*%
D20*
%TO.C,C14*%
X240650000Y-125800000D03*
X242550000Y-125800000D03*
%TD*%
D28*
%TO.C,D3*%
X338300000Y-130500000D03*
X338300000Y-126500000D03*
%TD*%
D10*
%TO.C,R29*%
X230187500Y-129800000D03*
X232012500Y-129800000D03*
%TD*%
D29*
%TO.C,R44*%
X136075000Y-128300000D03*
X137725000Y-128300000D03*
%TD*%
D12*
%TO.C,C22*%
X258000000Y-104750000D03*
X258000000Y-106650000D03*
%TD*%
D20*
%TO.C,C6*%
X90550000Y-137100000D03*
X92450000Y-137100000D03*
%TD*%
D12*
%TO.C,C204*%
X79200000Y-124050000D03*
X79200000Y-125950000D03*
%TD*%
D13*
%TO.C,R2*%
X317200000Y-121862500D03*
X317200000Y-118937500D03*
%TD*%
%TO.C,R34*%
X314200000Y-127662500D03*
X314200000Y-124737500D03*
%TD*%
D30*
%TO.C,D20*%
X328800000Y-120850000D03*
X328800000Y-117550000D03*
%TD*%
D10*
%TO.C,R21*%
X219787500Y-140000000D03*
X221612500Y-140000000D03*
%TD*%
D13*
%TO.C,R36*%
X320200000Y-127662500D03*
X320200000Y-124737500D03*
%TD*%
D21*
%TO.C,U2*%
X96025000Y-127095000D03*
X96025000Y-128365000D03*
X96025000Y-129635000D03*
X96025000Y-130905000D03*
X100975000Y-130905000D03*
X100975000Y-129635000D03*
X100975000Y-128365000D03*
X100975000Y-127095000D03*
%TD*%
D11*
%TO.C,D10*%
X232225000Y-119900000D03*
X232225000Y-121500000D03*
X232225000Y-123100000D03*
X237125000Y-123100000D03*
X237125000Y-121500000D03*
X237125000Y-119900000D03*
%TD*%
D14*
%TO.C,R43*%
X332900000Y-120112500D03*
X332900000Y-118287500D03*
%TD*%
D23*
%TO.C,R39*%
X346137500Y-122150000D03*
X349062500Y-122150000D03*
%TD*%
D20*
%TO.C,C34*%
X133705000Y-116900000D03*
X135605000Y-116900000D03*
%TD*%
D16*
%TO.C,C7*%
X79200000Y-134550000D03*
X79200000Y-132650000D03*
%TD*%
D20*
%TO.C,C13*%
X124650000Y-125800000D03*
X126550000Y-125800000D03*
%TD*%
D24*
%TO.C,R15*%
X108212500Y-103000000D03*
X106387500Y-103000000D03*
%TD*%
D10*
%TO.C,R28*%
X224787500Y-129800000D03*
X226612500Y-129800000D03*
%TD*%
D14*
%TO.C,R10*%
X298600000Y-134512500D03*
X298600000Y-132687500D03*
%TD*%
D31*
%TO.C,D2*%
X346400000Y-133400000D03*
X346400000Y-126600000D03*
%TD*%
D32*
%TO.C,D4*%
X287600000Y-113500000D03*
X283600000Y-113500000D03*
%TD*%
D24*
%TO.C,R23*%
X216212500Y-103000000D03*
X214387500Y-103000000D03*
%TD*%
D11*
%TO.C,D12*%
X198885000Y-119900000D03*
X198885000Y-121500000D03*
X198885000Y-123100000D03*
X203785000Y-123100000D03*
X203785000Y-121500000D03*
X203785000Y-119900000D03*
%TD*%
D19*
%TO.C,D5*%
X353350000Y-119610000D03*
X351250000Y-119610000D03*
%TD*%
D13*
%TO.C,R35*%
X317200000Y-127662500D03*
X317200000Y-124737500D03*
%TD*%
D14*
%TO.C,R41*%
X328300000Y-124612500D03*
X328300000Y-122787500D03*
%TD*%
D10*
%TO.C,R17*%
X151787500Y-140000000D03*
X153612500Y-140000000D03*
%TD*%
D24*
%TO.C,R26*%
X261612500Y-103000000D03*
X259787500Y-103000000D03*
%TD*%
D20*
%TO.C,C35*%
X117035000Y-116900000D03*
X118935000Y-116900000D03*
%TD*%
D33*
%TO.C,FB2*%
X227300000Y-109562500D03*
X227300000Y-107437500D03*
%TD*%
%TO.C,FB1*%
X126400000Y-111262500D03*
X126400000Y-109137500D03*
%TD*%
D16*
%TO.C,C38*%
X326000000Y-124650000D03*
X326000000Y-122750000D03*
%TD*%
D11*
%TO.C,D9*%
X248895000Y-119900000D03*
X248895000Y-121500000D03*
X248895000Y-123100000D03*
X253795000Y-123100000D03*
X253795000Y-121500000D03*
X253795000Y-119900000D03*
%TD*%
D12*
%TO.C,C8*%
X83900000Y-101650000D03*
X83900000Y-103550000D03*
%TD*%
D34*
%TO.C,D1*%
X80850000Y-137200000D03*
X84150000Y-137200000D03*
%TD*%
D10*
%TO.C,R24*%
X254387500Y-140000000D03*
X256212500Y-140000000D03*
%TD*%
D14*
%TO.C,R42*%
X330600000Y-124612500D03*
X330600000Y-122787500D03*
%TD*%
D13*
%TO.C,R1*%
X314200000Y-121862500D03*
X314200000Y-118937500D03*
%TD*%
D11*
%TO.C,D18*%
X98865000Y-119900000D03*
X98865000Y-121500000D03*
X98865000Y-123100000D03*
X103765000Y-123100000D03*
X103765000Y-121500000D03*
X103765000Y-119900000D03*
%TD*%
D35*
%TO.C,R9*%
X68900000Y-124537500D03*
X68900000Y-126362500D03*
%TD*%
D14*
%TO.C,R7*%
X68900000Y-122912500D03*
X68900000Y-121087500D03*
%TD*%
D21*
%TO.C,U6*%
X289825000Y-129790000D03*
X289825000Y-131060000D03*
X289825000Y-132330000D03*
X289825000Y-133600000D03*
X289825000Y-134870000D03*
X289825000Y-136140000D03*
X289825000Y-137410000D03*
X294775000Y-137410000D03*
X294775000Y-136140000D03*
X294775000Y-134870000D03*
X294775000Y-133600000D03*
X294775000Y-132330000D03*
X294775000Y-131060000D03*
X294775000Y-129790000D03*
%TD*%
D20*
%TO.C,C37*%
X83695000Y-116900000D03*
X85595000Y-116900000D03*
%TD*%
D12*
%TO.C,C23*%
X228400000Y-131550000D03*
X228400000Y-133450000D03*
%TD*%
D14*
%TO.C,R40*%
X323200000Y-121312500D03*
X323200000Y-119487500D03*
%TD*%
D22*
%TO.C,C4*%
X75725000Y-137000000D03*
X78675000Y-137000000D03*
%TD*%
D16*
%TO.C,C9*%
X68900000Y-129850000D03*
X68900000Y-127950000D03*
%TD*%
D14*
%TO.C,R33*%
X123200000Y-133612499D03*
X123200000Y-131787499D03*
%TD*%
D20*
%TO.C,C29*%
X217055000Y-116900000D03*
X218955000Y-116900000D03*
%TD*%
D10*
%TO.C,R30*%
X224787500Y-138800000D03*
X226612500Y-138800000D03*
%TD*%
D12*
%TO.C,C3*%
X93400000Y-128450000D03*
X93400000Y-130350000D03*
%TD*%
D36*
%TO.C,C5*%
X79400000Y-130575000D03*
X79400000Y-127625000D03*
%TD*%
D12*
%TO.C,C20*%
X218000000Y-104750000D03*
X218000000Y-106650000D03*
%TD*%
D11*
%TO.C,D8*%
X265565000Y-119900000D03*
X265565000Y-121500000D03*
X265565000Y-123100000D03*
X270465000Y-123100000D03*
X270465000Y-121500000D03*
X270465000Y-119900000D03*
%TD*%
%TO.C,D15*%
X148875000Y-119900000D03*
X148875000Y-121500000D03*
X148875000Y-123100000D03*
X153775000Y-123100000D03*
X153775000Y-121500000D03*
X153775000Y-119900000D03*
%TD*%
D21*
%TO.C,U4*%
X71825000Y-129495000D03*
X71825000Y-130765000D03*
X71825000Y-132035000D03*
X71825000Y-133305000D03*
X76775000Y-133305000D03*
X76775000Y-132035000D03*
X76775000Y-130765000D03*
X76775000Y-129495000D03*
%TD*%
D20*
%TO.C,C25*%
X283735000Y-116900000D03*
X285635000Y-116900000D03*
%TD*%
D14*
%TO.C,R5*%
X89100000Y-130312500D03*
X89100000Y-128487500D03*
%TD*%
D20*
%TO.C,C28*%
X233725000Y-116900000D03*
X235625000Y-116900000D03*
%TD*%
%TO.C,C31*%
X183715000Y-116900000D03*
X185615000Y-116900000D03*
%TD*%
D11*
%TO.C,D16*%
X132205000Y-119900000D03*
X132205000Y-121500000D03*
X132205000Y-123100000D03*
X137105000Y-123100000D03*
X137105000Y-121500000D03*
X137105000Y-119900000D03*
%TD*%
D12*
%TO.C,C202*%
X81700000Y-101650000D03*
X81700000Y-103550000D03*
%TD*%
D14*
%TO.C,R8*%
X68900000Y-133262500D03*
X68900000Y-131437500D03*
%TD*%
D16*
%TO.C,C24*%
X228400000Y-137050000D03*
X228400000Y-135150000D03*
%TD*%
D20*
%TO.C,C32*%
X167045000Y-116900000D03*
X168945000Y-116900000D03*
%TD*%
D24*
%TO.C,R19*%
X148212500Y-103000000D03*
X146387500Y-103000000D03*
%TD*%
D14*
%TO.C,R32*%
X123200000Y-129712500D03*
X123200000Y-127887500D03*
%TD*%
D37*
%TO.C,C11*%
X277130000Y-110100000D03*
X277130000Y-104700000D03*
%TD*%
D10*
%TO.C,R12*%
X106387500Y-140000000D03*
X108212500Y-140000000D03*
%TD*%
%TO.C,R20*%
X214387500Y-140000000D03*
X216212500Y-140000000D03*
%TD*%
D11*
%TO.C,D17*%
X115535000Y-119900000D03*
X115535000Y-121500000D03*
X115535000Y-123100000D03*
X120435000Y-123100000D03*
X120435000Y-121500000D03*
X120435000Y-119900000D03*
%TD*%
D24*
%TO.C,R22*%
X221612500Y-103000000D03*
X219787500Y-103000000D03*
%TD*%
D20*
%TO.C,C30*%
X200385000Y-116900000D03*
X202285000Y-116900000D03*
%TD*%
D24*
%TO.C,R14*%
X113612500Y-103000000D03*
X111787500Y-103000000D03*
%TD*%
D16*
%TO.C,C39*%
X332900000Y-124650000D03*
X332900000Y-122750000D03*
%TD*%
D12*
%TO.C,C18*%
X150000000Y-104750000D03*
X150000000Y-106650000D03*
%TD*%
D16*
%TO.C,C15*%
X110000000Y-138250000D03*
X110000000Y-136350000D03*
%TD*%
D24*
%TO.C,R27*%
X256212500Y-103000000D03*
X254387500Y-103000000D03*
%TD*%
D10*
%TO.C,R6*%
X86587500Y-137200000D03*
X88412500Y-137200000D03*
%TD*%
D12*
%TO.C,C201*%
X86100000Y-101650000D03*
X86100000Y-103550000D03*
%TD*%
D14*
%TO.C,R11*%
X298600000Y-138512500D03*
X298600000Y-136687500D03*
%TD*%
M02*
