M48
; DRILL file {KiCad 9.0.9-9.0.9~ubuntu24.04.1} date 2026-10-04T15:05:01+0000
; FORMAT={-:-/ absolute / metric / decimal}
; #@! TF.CreationDate,2026-10-04T15:05:01+00:00
; #@! TF.GenerationSoftware,Kicad,Pcbnew,9.0.9-9.0.9~ubuntu24.04.1
; #@! TF.FileFunction,Plated,1,4,PTH
FMAT,2
METRIC
; #@! TA.AperFunction,Plated,PTH,ViaDrill
T1C0.300
; #@! TA.AperFunction,Plated,PTH,ViaDrill
T2C0.600
; #@! TA.AperFunction,Plated,PTH,ComponentDrill
T3C0.700
; #@! TA.AperFunction,Plated,PTH,ComponentDrill
T4C1.000
; #@! TA.AperFunction,Plated,PTH,ComponentDrill
T5C1.020
; #@! TA.AperFunction,Plated,PTH,ComponentDrill
T6C2.700
; #@! TA.AperFunction,Plated,PTH,ComponentDrill
T7C3.000
%
G90
G05
T1
X70.611Y-133.58
X71.22Y-126.245
X72.0Y-127.0
X72.88Y-104.4
X73.3Y-112.3
X74.065Y-102.212
X74.1Y-124.9
X74.9Y-112.3
X75.313Y-133.486
X76.578Y-120.902
X77.475Y-127.46
X78.041Y-123.761
X78.6Y-122.1
X79.2Y-126.25
X79.5Y-101.425
X80.474Y-103.975
X81.4Y-129.225
X82.239Y-132.35
X82.6Y-117.0
X83.259Y-121.189
X84.55Y-126.4
X85.05Y-137.2
X85.7Y-122.7
X85.7Y-130.5
X85.841Y-121.811
X86.5Y-117.0
X86.587Y-138.3
X87.292Y-103.975
X88.266Y-101.425
X89.1Y-128.487
X89.304Y-101.7
X90.351Y-128.601
X91.9Y-126.5
X93.6Y-123.625
X93.852Y-105.355
X94.046Y-101.863
X94.892Y-130.673
X95.72Y-132.045
X96.2Y-123.625
X96.962Y-106.256
X97.363Y-109.794
X99.3Y-127.7
X100.7Y-122.7
X100.769Y-121.5
X101.495Y-108.036
X102.469Y-117.0
X103.1Y-131.3
X103.1Y-136.5
X103.4Y-130.1
X103.45Y-125.6
X104.1Y-133.7
X104.107Y-110.924
X105.8Y-130.1
X106.269Y-117.0
X107.436Y-104.367
X108.069Y-121.5
X110.1Y-135.35
X111.112Y-107.35
X112.488Y-101.425
X112.7Y-138.5
X114.3Y-120.3
X114.468Y-103.975
X118.428Y-101.425
X118.9Y-124.9
X120.407Y-103.975
X120.638Y-121.5
X120.7Y-107.5
X121.7Y-106.7
X122.1Y-118.7
X122.362Y-105.8
X122.438Y-117.0
X123.3Y-107.7
X124.367Y-101.425
X124.7Y-127.9
X124.7Y-134.1
X126.138Y-117.0
X126.299Y-127.028
X126.347Y-103.975
X126.7Y-134.7
X127.1Y-131.5
X127.938Y-121.5
X128.9Y-124.1
X129.7Y-110.3
X130.1Y-127.1
X130.306Y-101.425
X130.5Y-131.7
X131.3Y-134.7
X131.7Y-126.9
X131.9Y-117.5
X133.3Y-125.9
X133.5Y-129.9
X133.9Y-130.9
X134.266Y-103.975
X134.5Y-113.9
X134.5Y-126.1
X134.7Y-108.7
X135.221Y-133.47
X136.246Y-101.425
X138.3Y-127.3
X139.5Y-116.5
X140.1Y-114.3
X140.205Y-103.975
X140.508Y-121.5
X140.9Y-114.9
X142.185Y-101.425
X142.308Y-117.0
X145.1Y-134.1
X146.108Y-117.0
X147.808Y-121.5
X148.124Y-101.425
X149.9Y-107.55
X150.1Y-135.35
X154.064Y-101.425
X155.054Y-103.975
X159.7Y-122.3
X160.003Y-101.425
X160.377Y-121.5
X160.993Y-103.975
X162.177Y-117.0
X165.1Y-119.7
X165.3Y-122.7
X165.942Y-101.425
X165.977Y-117.0
X166.932Y-103.975
X167.677Y-121.5
X171.882Y-101.425
X172.872Y-103.975
X174.7Y-140.3
X175.552Y-105.355
X177.245Y-103.086
X179.593Y-110.011
X180.058Y-107.444
X180.246Y-121.5
X181.946Y-117.0
X184.648Y-106.377
X185.669Y-108.961
X185.846Y-117.0
X187.546Y-121.5
X187.654Y-101.863
X188.7Y-107.5
X189.538Y-103.975
X193.401Y-101.425
X195.333Y-103.975
X199.196Y-101.425
X200.115Y-121.5
X201.815Y-117.0
X201.852Y-105.355
X204.048Y-103.919
X205.363Y-109.794
X205.615Y-117.0
X206.794Y-107.624
X207.415Y-121.5
X212.107Y-110.924
X213.3Y-139.7
X215.436Y-104.367
X218.1Y-135.35
X219.112Y-107.35
X219.985Y-121.5
X220.49Y-101.425
X220.7Y-138.5
X221.785Y-117.0
X222.3Y-112.1
X222.475Y-103.975
X224.1Y-111.9
X225.585Y-117.0
X226.443Y-101.425
X226.5Y-117.7
X227.285Y-121.5
X227.551Y-134.299
X227.7Y-117.3
X227.7Y-123.1
X227.9Y-127.5
X228.428Y-103.975
X228.9Y-105.5
X229.249Y-134.301
X229.7Y-109.9
X229.9Y-121.1
X230.1Y-122.3
X231.1Y-106.9
X231.1Y-108.5
X231.3Y-125.1
X231.5Y-128.3
X232.396Y-101.425
X232.7Y-124.9
X233.362Y-105.8
X233.7Y-123.9
X235.3Y-127.5
X235.5Y-122.1
X235.7Y-106.3
X236.5Y-122.3
X236.5Y-126.3
X237.1Y-105.7
X237.357Y-103.975
X237.5Y-118.7
X237.5Y-130.3
X238.1Y-129.3
X238.349Y-101.425
X239.5Y-113.9
X239.5Y-129.3
X239.7Y-119.9
X239.7Y-126.3
X239.854Y-121.5
X239.9Y-123.1
X240.5Y-127.7
X240.9Y-117.7
X241.5Y-130.7
X241.654Y-117.0
X242.299Y-127.028
X243.3Y-129.9
X243.3Y-131.9
X243.5Y-120.1
X243.5Y-124.9
X243.5Y-126.9
X244.302Y-101.425
X244.7Y-131.9
X245.294Y-103.975
X245.3Y-126.9
X245.354Y-117.0
X246.3Y-118.3
X246.7Y-106.3
X247.154Y-121.5
X247.203Y-125.25
X247.3Y-134.7
X247.7Y-129.9
X248.1Y-117.5
X248.1Y-119.5
X248.443Y-127.032
X248.9Y-126.1
X249.7Y-113.9
X249.9Y-123.1
X249.9Y-126.1
X250.255Y-101.425
X250.5Y-139.5
X251.221Y-133.47
X251.247Y-103.975
X251.7Y-117.5
X253.3Y-120.3
X254.1Y-114.7
X254.9Y-141.1
X256.207Y-101.425
X257.3Y-139.5
X257.9Y-107.55
X258.1Y-135.35
X258.5Y-126.3
X259.7Y-123.1
X259.723Y-121.5
X261.523Y-117.0
X262.16Y-101.425
X262.5Y-120.3
X263.152Y-103.975
X265.223Y-117.0
X267.023Y-121.5
X268.113Y-101.425
X269.105Y-103.975
X269.5Y-130.1
X269.5Y-132.6
X269.5Y-137.2
X269.5Y-139.7
X274.066Y-101.425
X274.9Y-130.0
X274.9Y-132.5
X274.9Y-137.2
X274.9Y-139.7
X275.058Y-103.975
X279.592Y-121.5
X280.019Y-101.425
X280.475Y-131.7
X281.011Y-103.975
X281.292Y-117.0
X282.475Y-131.7
X283.1Y-122.7
X285.092Y-117.0
X285.972Y-101.425
X286.892Y-121.5
X286.964Y-103.975
X289.7Y-114.7
X290.5Y-120.3
X291.925Y-101.425
X292.917Y-103.975
X293.9Y-111.3
X295.5Y-113.3
X295.7Y-134.8
X296.3Y-115.7
X297.3Y-117.7
X297.3Y-119.5
X297.3Y-122.3
X297.877Y-101.425
X297.9Y-123.9
X298.2Y-134.8
X298.869Y-103.975
X299.462Y-121.5
X301.1Y-118.5
X301.162Y-117.0
X301.552Y-105.355
X302.1Y-120.3
X303.245Y-103.086
X304.1Y-121.3
X304.25Y-131.5
X304.962Y-117.0
X305.593Y-110.011
X306.058Y-107.444
X306.762Y-121.5
X306.806Y-131.164
X308.3Y-135.1
X310.648Y-106.377
X310.7Y-135.5
X311.669Y-108.961
X312.5Y-118.1
X312.7Y-128.1
X313.1Y-124.9
X313.6Y-141.4
X313.654Y-101.863
X314.9Y-140.7
X315.538Y-103.975
X315.9Y-129.1
X316.1Y-127.9
X318.7Y-125.3
X319.331Y-121.5
X319.533Y-101.425
X319.7Y-126.3
X319.7Y-129.9
X321.1Y-126.3
X321.131Y-117.0
X321.531Y-103.975
X321.9Y-129.9
X322.5Y-126.3
X323.9Y-129.1
X324.831Y-117.0
X325.3Y-129.1
X325.526Y-101.425
X326.1Y-129.9
X326.3Y-118.7
X326.629Y-119.834
X326.631Y-121.5
X327.299Y-120.65
X327.524Y-103.975
X327.607Y-115.454
X328.178Y-124.571
X328.3Y-111.087
X329.582Y-120.677
X330.9Y-111.45
X331.519Y-101.425
X333.5Y-139.5
X333.516Y-103.975
X333.7Y-133.7
X334.532Y-118.137
X334.532Y-121.863
X334.722Y-117.08
X334.722Y-122.92
X334.9Y-134.7
X335.5Y-128.1
X336.262Y-125.7
X337.3Y-127.7
X337.3Y-130.9
X337.511Y-101.425
X338.1Y-128.5
X339.509Y-103.975
X339.7Y-130.7
X340.3Y-107.087
X340.387Y-112.721
X340.387Y-114.279
X341.1Y-133.1
X341.137Y-113.5
X343.0Y-106.45
X343.504Y-101.425
X345.501Y-103.975
X346.4Y-126.2
X346.4Y-129.6
X346.741Y-111.622
X348.225Y-105.7
X348.225Y-111.35
X348.3Y-117.5
X349.523Y-102.677
X349.75Y-117.7
X350.248Y-130.562
X350.775Y-108.525
X350.775Y-114.175
X352.6Y-118.35
X352.952Y-130.562
X353.0Y-133.2
X353.166Y-120.834
T2
X330.6Y-126.6
X330.6Y-141.4
X331.6Y-116.8
T3
X131.14Y-104.81
X131.14Y-106.08
X131.14Y-107.35
X131.14Y-108.62
X131.14Y-109.89
X131.14Y-111.16
X132.41Y-104.81
X132.41Y-106.08
X132.41Y-107.35
X132.41Y-108.62
X132.41Y-109.89
X132.41Y-111.16
X242.14Y-104.81
X242.14Y-106.08
X242.14Y-107.35
X242.14Y-108.62
X242.14Y-109.89
X242.14Y-111.16
X243.41Y-104.81
X243.41Y-106.08
X243.41Y-107.35
X243.41Y-108.62
X243.41Y-109.89
X243.41Y-111.16
X315.285Y-137.345
X315.285Y-138.615
X316.555Y-137.345
X316.555Y-138.615
X317.825Y-137.345
X317.825Y-138.615
X319.095Y-137.345
X319.095Y-138.615
X320.365Y-137.345
X320.365Y-138.615
X321.635Y-137.345
X321.635Y-138.615
X322.905Y-137.345
X322.905Y-138.615
X324.175Y-137.345
X324.175Y-138.615
X325.445Y-137.345
X325.445Y-138.615
X326.715Y-137.345
X326.715Y-138.615
X327.985Y-137.345
X327.985Y-138.615
X329.255Y-137.345
X329.255Y-138.615
T4
X281.02Y-135.25
X283.56Y-135.25
X286.1Y-135.25
X344.0Y-140.7
X346.54Y-140.7
X349.08Y-140.7
T5
X355.6Y-119.61
X355.6Y-122.15
X355.6Y-124.69
X355.6Y-127.23
X355.6Y-129.77
X355.6Y-132.31
X355.6Y-134.85
X355.6Y-137.39
T6
X71.5Y-138.5
X100.0Y-104.1
X100.0Y-138.9
X181.7Y-104.1
X181.7Y-138.9
X208.0Y-104.1
X208.0Y-138.9
X307.7Y-104.1
X307.7Y-138.9
X338.313Y-120.0
X338.313Y-137.0
T7
X105.6Y-106.8
X107.4Y-137.25
X112.6Y-105.75
X114.4Y-136.2
X145.6Y-106.8
X147.4Y-137.25
X152.6Y-105.75
X154.4Y-136.2
X213.6Y-106.8
X215.4Y-137.25
X220.6Y-105.75
X222.4Y-136.2
X253.6Y-106.8
X255.4Y-137.25
X260.6Y-105.75
X262.4Y-136.2
M30
