M48
; DRILL file {KiCad 9.0.9-9.0.9~ubuntu24.04.1} date 2026-10-01T07:55:25+0000
; FORMAT={-:-/ absolute / metric / decimal}
; #@! TF.CreationDate,2026-10-01T07:55:25+00:00
; #@! TF.GenerationSoftware,Kicad,Pcbnew,9.0.9-9.0.9~ubuntu24.04.1
; #@! TF.FileFunction,Plated,1,4,PTH
FMAT,2
METRIC
; #@! TA.AperFunction,Plated,PTH,ViaDrill
T1C0.300
; #@! TA.AperFunction,Plated,PTH,ComponentDrill
T2C0.700
; #@! TA.AperFunction,Plated,PTH,ComponentDrill
T3C1.000
; #@! TA.AperFunction,Plated,PTH,ComponentDrill
T4C1.020
; #@! TA.AperFunction,Plated,PTH,ComponentDrill
T5C2.200
; #@! TA.AperFunction,Plated,PTH,ComponentDrill
T6C2.700
%
G90
G05
T1
X70.1Y-121.5
X70.1Y-123.7
X70.1Y-129.5
X70.1Y-132.5
X70.437Y-133.49
X71.22Y-126.845
X71.5Y-103.7
X71.5Y-116.3
X71.687Y-102.275
X74.1Y-131.9
X74.3Y-104.1
X74.3Y-120.7
X74.7Y-125.1
X75.1Y-130.9
X76.7Y-136.7
X76.78Y-121.555
X77.9Y-116.3
X77.9Y-125.9
X77.9Y-134.1
X78.1Y-131.5
X79.2Y-131.75
X79.4Y-126.625
X79.675Y-137.0
X82.1Y-118.3
X82.1Y-129.9
X82.795Y-116.9
X83.354Y-121.189
X84.35Y-102.6
X85.05Y-137.2
X86.495Y-116.9
X86.587Y-138.3
X88.295Y-121.5
X89.1Y-127.487
X90.3Y-126.5
X90.3Y-131.1
X91.2Y-127.45
X92.1Y-133.3
X92.3Y-127.7
X93.35Y-137.1
X93.4Y-131.35
X93.5Y-126.5
X94.275Y-133.6
X94.5Y-125.7
X94.5Y-127.9
X94.7Y-128.9
X95.72Y-131.645
X96.7Y-115.7
X97.3Y-133.7
X97.5Y-126.9
X97.665Y-121.5
X97.9Y-125.7
X99.465Y-116.9
X99.5Y-127.3
X99.7Y-133.7
X102.3Y-119.5
X102.3Y-122.7
X102.5Y-127.3
X102.5Y-129.5
X103.165Y-116.9
X104.3Y-126.3
X104.3Y-139.5
X104.965Y-121.5
X105.3Y-103.3
X105.9Y-118.3
X105.9Y-130.7
X110.0Y-135.45
X110.0Y-107.55
X110.9Y-108.3
X111.1Y-104.3
X111.7Y-114.3
X111.7Y-116.3
X112.3Y-133.9
X112.3Y-141.3
X113.5Y-120.3
X113.5Y-124.1
X114.335Y-121.5
X114.7Y-139.5
X116.035Y-116.9
X116.3Y-127.3
X116.3Y-136.9
X119.1Y-108.3
X119.1Y-135.9
X119.935Y-116.9
X120.1Y-103.3
X120.1Y-108.9
X120.7Y-134.9
X121.1Y-104.9
X121.5Y-124.5
X121.5Y-128.1
X121.635Y-121.5
X122.1Y-130.1
X122.1Y-133.3
X122.362Y-105.8
X123.3Y-107.7
X124.5Y-128.3
X124.5Y-130.7
X124.5Y-132.5
X124.7Y-106.3
X124.7Y-110.7
X124.9Y-111.7
X124.9Y-127.1
X125.9Y-103.7
X125.9Y-114.3
X126.299Y-127.028
X127.45Y-125.8
X127.5Y-101.7
X127.5Y-110.9
X127.557Y-127.032
X127.9Y-134.7
X128.5Y-106.9
X128.5Y-113.3
X128.5Y-114.3
X129.1Y-134.7
X129.1Y-141.3
X129.5Y-109.5
X129.5Y-112.3
X129.7Y-107.9
X130.1Y-120.3
X130.1Y-124.1
X130.5Y-135.3
X130.5Y-136.9
X131.005Y-121.5
X131.3Y-129.7
X131.3Y-131.7
X132.3Y-102.7
X132.3Y-131.9
X132.3Y-138.5
X132.705Y-116.9
X132.9Y-126.7
X133.3Y-139.5
X133.9Y-106.5
X133.9Y-112.3
X134.9Y-108.9
X134.9Y-126.7
X135.221Y-133.47
X135.9Y-107.5
X135.9Y-113.3
X135.9Y-118.3
X135.9Y-126.3
X136.505Y-116.9
X136.9Y-103.7
X136.9Y-108.7
X138.305Y-121.5
X140.7Y-105.1
X140.7Y-117.9
X141.7Y-106.5
X141.7Y-118.9
X142.7Y-107.5
X142.7Y-128.5
X143.7Y-104.9
X143.7Y-114.3
X145.3Y-103.3
X146.5Y-138.9
X146.7Y-120.3
X146.7Y-124.1
X147.675Y-121.5
X147.7Y-141.7
X149.1Y-108.3
X149.1Y-135.3
X149.375Y-116.9
X150.0Y-135.45
X150.0Y-107.55
X150.9Y-107.9
X150.9Y-134.7
X153.175Y-116.9
X154.7Y-139.5
X154.975Y-121.5
X156.3Y-133.5
X156.3Y-141.7
X163.5Y-120.3
X163.5Y-124.1
X164.345Y-121.5
X166.145Y-116.9
X169.945Y-116.9
X171.645Y-121.5
X180.1Y-120.3
X180.1Y-124.1
X181.015Y-121.5
X182.815Y-116.9
X184.7Y-133.5
X184.7Y-136.5
X186.515Y-116.9
X188.315Y-121.5
X190.1Y-124.3
X190.1Y-128.5
X191.3Y-118.1
X191.3Y-127.7
X195.7Y-124.3
X195.7Y-127.7
X196.3Y-134.1
X196.3Y-136.5
X196.7Y-120.3
X196.7Y-124.1
X197.685Y-121.5
X198.5Y-114.3
X198.5Y-117.1
X199.485Y-116.9
X203.285Y-116.9
X204.985Y-121.5
X211.3Y-101.7
X211.3Y-107.9
X211.3Y-135.1
X211.3Y-141.5
X212.3Y-134.1
X212.3Y-139.5
X213.3Y-103.3
X213.3Y-135.3
X213.3Y-139.7
X213.5Y-120.3
X213.5Y-124.1
X214.355Y-121.5
X215.9Y-114.3
X216.155Y-116.9
X217.1Y-135.3
X218.0Y-107.55
X218.0Y-135.45
X218.9Y-108.3
X218.9Y-134.7
X219.1Y-104.3
X219.955Y-116.9
X220.1Y-114.3
X221.5Y-113.3
X221.5Y-118.9
X221.655Y-121.5
X221.7Y-138.7
X222.5Y-118.9
X222.5Y-125.3
X222.7Y-103.3
X222.7Y-109.3
X222.7Y-139.5
X222.7Y-140.5
X223.7Y-109.9
X223.7Y-129.3
X224.3Y-134.3
X224.3Y-137.7
X225.1Y-130.9
X225.1Y-137.7
X227.551Y-134.299
X229.249Y-134.301
X230.1Y-120.3
X230.1Y-124.1
X231.025Y-121.5
X232.825Y-116.9
X233.1Y-138.7
X233.1Y-141.5
X233.7Y-108.5
X233.7Y-130.1
X236.525Y-116.9
X238.3Y-124.5
X238.3Y-126.3
X238.325Y-121.5
X239.5Y-103.7
X239.5Y-114.3
X239.5Y-129.1
X239.5Y-136.5
X239.7Y-122.3
X239.7Y-127.7
X240.5Y-107.7
X240.5Y-112.3
X240.5Y-132.5
X240.7Y-117.1
X241.7Y-114.3
X242.299Y-127.028
X242.3Y-131.9
X243.3Y-103.7
X243.3Y-134.7
X243.3Y-141.5
X243.45Y-125.8
X243.5Y-126.9
X243.5Y-131.1
X244.9Y-112.3
X244.9Y-126.9
X244.9Y-137.5
X245.7Y-105.1
X245.7Y-122.3
X245.7Y-125.9
X245.9Y-114.3
X246.1Y-131.7
X246.1Y-140.3
X246.3Y-129.9
X246.5Y-126.9
X246.7Y-107.5
X246.7Y-118.1
X246.7Y-120.3
X246.7Y-124.1
X247.1Y-134.7
X247.3Y-129.9
X247.695Y-121.5
X247.7Y-106.3
X247.7Y-113.3
X248.1Y-136.5
X248.1Y-139.7
X248.443Y-127.032
X248.5Y-106.3
X248.5Y-117.9
X249.395Y-116.9
X250.3Y-108.9
X250.3Y-126.7
X251.221Y-133.47
X251.7Y-104.9
X251.7Y-130.7
X252.7Y-127.5
X252.7Y-138.7
X253.295Y-116.9
X253.3Y-103.3
X253.3Y-124.9
X253.3Y-126.5
X254.995Y-121.5
X255.1Y-124.3
X255.1Y-129.7
X257.1Y-135.3
X257.3Y-139.7
X258.0Y-135.45
X258.0Y-107.55
X262.5Y-103.7
X262.5Y-124.3
X262.7Y-139.5
X263.5Y-120.3
X263.5Y-124.1
X264.3Y-127.5
X264.3Y-139.5
X264.365Y-121.5
X266.065Y-116.9
X269.965Y-116.9
X271.665Y-121.5
X272.5Y-120.3
X272.5Y-124.1
X275.7Y-103.5
X275.7Y-107.7
X277.2Y-131.9
X278.33Y-104.7
X281.035Y-121.5
X281.7Y-107.7
X281.7Y-110.9
X281.88Y-106.4
X282.835Y-116.9
X285.2Y-135.3
X286.535Y-116.9
X287.7Y-128.3
X287.7Y-140.5
X288.333Y-119.834
X288.335Y-121.5
X288.5Y-122.7
X288.5Y-126.5
X288.699Y-134.25
X289.007Y-129.054
X289.578Y-138.171
X289.9Y-110.9
X289.9Y-121.7
X290.982Y-134.277
X293.1Y-116.3
X293.1Y-131.1
X293.1Y-132.5
X293.1Y-138.5
X294.1Y-124.3
X294.1Y-125.9
X294.3Y-110.1
X294.3Y-118.9
X295.1Y-127.5
X295.3Y-109.3
X295.3Y-122.7
X295.932Y-131.737
X295.932Y-135.463
X296.122Y-130.68
X296.122Y-136.52
X296.9Y-135.5
X297.3Y-133.3
X297.5Y-134.1
X297.7Y-111.1
X297.7Y-121.9
X297.7Y-131.65
X297.9Y-126.1
X298.6Y-131.688
X298.7Y-107.5
X298.7Y-117.9
X298.9Y-124.3
X298.9Y-129.7
X299.1Y-130.7
X299.7Y-108.5
X299.7Y-116.3
X299.7Y-123.5
X299.9Y-136.3
X300.7Y-115.9
X300.7Y-124.7
X300.7Y-128.5
X300.9Y-131.1
X300.9Y-139.5
X301.5Y-112.1
X301.9Y-136.3
X301.9Y-141.5
X302.5Y-131.9
X302.9Y-134.1
X302.9Y-140.5
X304.1Y-132.9
X304.1Y-135.3
X304.5Y-101.7
X304.9Y-108.5
X304.9Y-136.3
X305.1Y-134.1
X305.7Y-110.1
X306.1Y-133.9
X306.7Y-109.1
X307.1Y-135.1
X307.7Y-108.9
X308.7Y-107.9
X309.5Y-108.9
X310.5Y-110.1
X310.9Y-123.1
X310.9Y-124.7
X310.9Y-125.7
X310.9Y-126.7
X310.9Y-131.1
X311.1Y-132.9
X311.1Y-135.3
X311.9Y-126.7
X311.9Y-128.7
X311.9Y-137.5
X312.3Y-118.5
X312.3Y-122.9
X312.7Y-133.9
X312.9Y-125.1
X313.3Y-131.9
X313.7Y-138.5
X313.9Y-120.1
X314.262Y-132.5
X314.3Y-131.3
X315.5Y-121.7
X315.7Y-119.3
X315.7Y-122.9
X315.7Y-127.3
X316.9Y-120.7
X316.9Y-140.9
X317.9Y-132.5
X318.5Y-119.3
X318.7Y-122.3
X318.7Y-126.1
X318.7Y-128.1
X318.7Y-130.5
X319.7Y-123.1
X319.7Y-134.1
X320.7Y-123.7
X320.7Y-129.7
X320.7Y-130.7
X320.7Y-133.3
X321.9Y-119.9
X321.9Y-121.5
X321.9Y-128.9
X322.3Y-122.3
X322.9Y-130.7
X324.3Y-122.3
X324.3Y-131.1
X324.5Y-135.3
X325.3Y-118.5
X325.3Y-126.1
X327.1Y-125.1
X327.1Y-128.9
X329.033Y-116.681
X329.7Y-137.5
X330.6Y-121.787
X331.7Y-125.1
X331.7Y-127.1
X331.887Y-128.979
X332.3Y-138.5
X332.9Y-117.287
X332.9Y-126.1
X332.9Y-128.7
X334.1Y-120.5
X334.1Y-123.1
X334.1Y-131.1
X334.1Y-136.1
X339.652Y-126.138
X343.9Y-130.1
X343.9Y-132.5
X346.4Y-124.9
X350.55Y-119.61
X350.55Y-122.15
X351.5Y-127.7
X351.5Y-140.9
X352.5Y-125.1
X352.5Y-132.3
X353.0Y-133.2
X354.1Y-128.7
X354.9Y-139.3
T2
X131.14Y-104.81
X131.14Y-106.08
X131.14Y-107.35
X131.14Y-108.62
X131.14Y-109.89
X131.14Y-111.16
X132.41Y-104.81
X132.41Y-106.08
X132.41Y-107.35
X132.41Y-108.62
X132.41Y-109.89
X132.41Y-111.16
X242.14Y-104.81
X242.14Y-106.08
X242.14Y-107.35
X242.14Y-108.62
X242.14Y-109.89
X242.14Y-111.16
X243.41Y-104.81
X243.41Y-106.08
X243.41Y-107.35
X243.41Y-108.62
X243.41Y-109.89
X243.41Y-111.16
X302.3Y-114.515
X302.3Y-115.785
X302.3Y-117.055
X302.3Y-118.325
X302.3Y-119.595
X302.3Y-120.865
X302.3Y-122.135
X302.3Y-123.405
X302.3Y-124.675
X302.3Y-125.945
X302.3Y-127.215
X302.3Y-128.485
X303.57Y-114.515
X303.57Y-115.785
X303.57Y-117.055
X303.57Y-118.325
X303.57Y-119.595
X303.57Y-120.865
X303.57Y-122.135
X303.57Y-123.405
X303.57Y-124.675
X303.57Y-125.945
X303.57Y-127.215
X303.57Y-128.485
T3
X292.58Y-106.015
X292.58Y-108.555
X292.58Y-111.095
X322.6Y-133.4
X325.14Y-133.4
X327.68Y-133.4
X330.22Y-133.4
X332.76Y-133.4
T4
X355.6Y-119.61
X355.6Y-122.15
X355.6Y-124.69
X355.6Y-127.23
X355.6Y-129.77
X355.6Y-132.31
X355.6Y-134.85
X355.6Y-137.39
T5
X105.6Y-106.8
X107.4Y-137.25
X112.6Y-105.75
X114.4Y-136.2
X145.6Y-106.8
X147.4Y-137.25
X152.6Y-105.75
X154.4Y-136.2
X213.6Y-106.8
X215.4Y-137.25
X220.6Y-105.75
X222.4Y-136.2
X253.6Y-106.8
X255.4Y-137.25
X260.6Y-105.75
X262.4Y-136.2
T6
X71.5Y-138.5
X100.0Y-104.1
X100.0Y-138.9
X181.7Y-104.1
X181.7Y-138.9
X208.0Y-104.1
X208.0Y-138.9
X307.7Y-104.1
X307.7Y-138.9
X338.313Y-120.0
X338.313Y-137.0
M30
