%TF.GenerationSoftware,KiCad,Pcbnew,9.0.9-9.0.9~ubuntu24.04.1*%
%TF.CreationDate,2026-10-06T01:31:57+00:00*%
%TF.ProjectId,main-board,6d61696e-2d62-46f6-9172-642e6b696361,A*%
%TF.SameCoordinates,Original*%
%TF.FileFunction,Copper,L4,Bot*%
%TF.FilePolarity,Positive*%
%FSLAX46Y46*%
G04 Gerber Fmt 4.6, Leading zero omitted, Abs format (unit mm)*
G04 Created by KiCad (PCBNEW 9.0.9-9.0.9~ubuntu24.04.1) date 2026-10-06 01:31:57*
%MOMM*%
%LPD*%
G01*
G04 APERTURE LIST*
%TA.AperFunction,ComponentPad*%
%ADD10R,1.500000X1.070000*%
%TD*%
%TA.AperFunction,ComponentPad*%
%ADD11O,1.500000X1.070000*%
%TD*%
%TA.AperFunction,ComponentPad*%
%ADD12C,3.100000*%
%TD*%
%TA.AperFunction,ConnectorPad*%
%ADD13C,5.400000*%
%TD*%
%TA.AperFunction,ComponentPad*%
%ADD14R,1.700000X1.700000*%
%TD*%
%TA.AperFunction,ComponentPad*%
%ADD15O,1.700000X1.700000*%
%TD*%
%TA.AperFunction,ComponentPad*%
%ADD16R,1.070000X1.500000*%
%TD*%
%TA.AperFunction,ComponentPad*%
%ADD17O,1.070000X1.500000*%
%TD*%
%TA.AperFunction,ComponentPad*%
%ADD18R,1.500000X2.300000*%
%TD*%
%TA.AperFunction,ComponentPad*%
%ADD19O,1.500000X2.300000*%
%TD*%
%TA.AperFunction,ComponentPad*%
%ADD20C,3.400000*%
%TD*%
%TA.AperFunction,ViaPad*%
%ADD21C,0.700000*%
%TD*%
%TA.AperFunction,ViaPad*%
%ADD22C,1.000000*%
%TD*%
%TA.AperFunction,Conductor*%
%ADD23C,0.250000*%
%TD*%
%TA.AperFunction,Conductor*%
%ADD24C,0.300000*%
%TD*%
%TA.AperFunction,Conductor*%
%ADD25C,0.500000*%
%TD*%
%TA.AperFunction,Conductor*%
%ADD26C,0.400000*%
%TD*%
G04 APERTURE END LIST*
D10*
%TO.P,J4,1*%
%TO.N,PWR_GND*%
X130925000Y-104810000D03*
D11*
%TO.P,J4,2*%
%TO.N,/CHAIN_SCK*%
X132625000Y-104810000D03*
%TO.P,J4,3*%
%TO.N,PWR_GND*%
X130925000Y-106080000D03*
%TO.P,J4,4*%
%TO.N,/CHAIN_SHLD*%
X132625000Y-106080000D03*
%TO.P,J4,5*%
%TO.N,PWR_GND*%
X130925000Y-107350000D03*
%TO.P,J4,6*%
%TO.N,/CHAIN_SER_LH*%
X132625000Y-107350000D03*
%TO.P,J4,7*%
%TO.N,PWR_GND*%
X130925000Y-108620000D03*
%TO.P,J4,8*%
%TO.N,/HOP_LH_LT*%
X132625000Y-108620000D03*
%TO.P,J4,9*%
%TO.N,PWR_GND*%
X130925000Y-109890000D03*
%TO.P,J4,10*%
%TO.N,/V3V3_CHAIN_LH*%
X132625000Y-109890000D03*
%TO.P,J4,11*%
%TO.N,unconnected-(J4-Pin_11-Pad11)*%
X130925000Y-111160000D03*
%TO.P,J4,12*%
%TO.N,unconnected-(J4-Pin_12-Pad12)*%
X132625000Y-111160000D03*
%TD*%
D12*
%TO.P,H8,1*%
%TO.N,PWR_GND*%
X307700000Y-104100000D03*
D13*
X307700000Y-104100000D03*
%TD*%
D12*
%TO.P,H6,1*%
%TO.N,PWR_GND*%
X205800000Y-104100000D03*
D13*
X205800000Y-104100000D03*
%TD*%
D12*
%TO.P,H11,1*%
%TO.N,PWR_GND*%
X338450000Y-104100000D03*
D13*
X338450000Y-104100000D03*
%TD*%
D12*
%TO.P,H7,1*%
%TO.N,PWR_GND*%
X307700000Y-138900000D03*
D13*
X307700000Y-138900000D03*
%TD*%
D12*
%TO.P,H9,1*%
%TO.N,PWR_GND*%
X71500000Y-138500000D03*
D13*
X71500000Y-138500000D03*
%TD*%
D12*
%TO.P,H10,1*%
%TO.N,PWR_GND*%
X338450000Y-138900000D03*
D13*
X338450000Y-138900000D03*
%TD*%
D14*
%TO.P,J6,1*%
%TO.N,/BREATH_SENSE*%
X355599999Y-119610000D03*
D15*
%TO.P,J6,2*%
%TO.N,/AGND_SENSE*%
X355599999Y-122150000D03*
%TO.P,J6,3*%
%TO.N,UMBILICAL_POS12*%
X355599999Y-124690000D03*
%TO.P,J6,4*%
%TO.N,/SCLK*%
X355599999Y-127230000D03*
%TO.P,J6,5*%
%TO.N,/MOSI*%
X355599999Y-129770000D03*
%TO.P,J6,6*%
%TO.N,PWR_GND*%
X355599999Y-132310000D03*
%TO.P,J6,7*%
%TO.N,/CS_MOD*%
X355599999Y-134850000D03*
%TO.P,J6,8*%
%TO.N,/DIG_GND*%
X355599999Y-137390000D03*
%TD*%
D10*
%TO.P,J5,1*%
%TO.N,PWR_GND*%
X241925000Y-104810000D03*
D11*
%TO.P,J5,2*%
%TO.N,/CHAIN_SCK*%
X243625000Y-104810000D03*
%TO.P,J5,3*%
%TO.N,PWR_GND*%
X241925000Y-106080000D03*
%TO.P,J5,4*%
%TO.N,/CHAIN_SHLD*%
X243625000Y-106080000D03*
%TO.P,J5,5*%
%TO.N,PWR_GND*%
X241925000Y-107350000D03*
%TO.P,J5,6*%
%TO.N,/HOP_LT_RH*%
X243625000Y-107350000D03*
%TO.P,J5,7*%
%TO.N,PWR_GND*%
X241925000Y-108620000D03*
%TO.P,J5,8*%
%TO.N,/HOP_RH_RT*%
X243625000Y-108620000D03*
%TO.P,J5,9*%
%TO.N,PWR_GND*%
X241925000Y-109890000D03*
%TO.P,J5,10*%
%TO.N,/V3V3_CHAIN_RH*%
X243625000Y-109890000D03*
%TO.P,J5,11*%
%TO.N,unconnected-(J5-Pin_11-Pad11)*%
X241925000Y-111160000D03*
%TO.P,J5,12*%
%TO.N,unconnected-(J5-Pin_12-Pad12)*%
X243625000Y-111160000D03*
%TD*%
D12*
%TO.P,H3,1*%
%TO.N,PWR_GND*%
X181700000Y-138900000D03*
D13*
X181700000Y-138900000D03*
%TD*%
D12*
%TO.P,H2,1*%
%TO.N,PWR_GND*%
X97800000Y-104100000D03*
D13*
X97800000Y-104100000D03*
%TD*%
D16*
%TO.P,J1,1*%
%TO.N,INST_5V_A*%
X315284999Y-138830000D03*
D17*
%TO.P,J1,2*%
%TO.N,PWR_GND*%
X315284999Y-137130000D03*
%TO.P,J1,3*%
%TO.N,INST_5V_A*%
X316554999Y-138830000D03*
%TO.P,J1,4*%
%TO.N,/IO1*%
X316554999Y-137130000D03*
%TO.P,J1,5*%
%TO.N,/IO2*%
X317824999Y-138830000D03*
%TO.P,J1,6*%
%TO.N,/IO7*%
X317824999Y-137130000D03*
%TO.P,J1,7*%
%TO.N,/carrier/IO3*%
X319094999Y-138830000D03*
%TO.P,J1,8*%
%TO.N,/IO38*%
X319094999Y-137130000D03*
%TO.P,J1,9*%
%TO.N,PWR_GND*%
X320364999Y-138830000D03*
%TO.P,J1,10*%
%TO.N,/IO35*%
X320364999Y-137130000D03*
%TO.P,J1,11*%
%TO.N,PWR_GND*%
X321634999Y-138830000D03*
%TO.P,J1,12*%
%TO.N,/IO36*%
X321634999Y-137130000D03*
%TO.P,J1,13*%
%TO.N,DEV_3V3*%
X322904999Y-138830000D03*
%TO.P,J1,14*%
%TO.N,/carrier/IO34*%
X322904999Y-137130000D03*
%TO.P,J1,15*%
%TO.N,PWR_GND*%
X324174999Y-138830000D03*
%TO.P,J1,16*%
%TO.N,/IO39*%
X324174999Y-137130000D03*
%TO.P,J1,17*%
%TO.N,INST_5V_A*%
X325444999Y-138830000D03*
%TO.P,J1,18*%
%TO.N,/IO37*%
X325444999Y-137130000D03*
%TO.P,J1,19*%
%TO.N,/IO33*%
X326714999Y-138830000D03*
%TO.P,J1,20*%
%TO.N,/CHAIN_QH_RT*%
X326714999Y-137130000D03*
%TO.P,J1,21*%
%TO.N,/U0RXD*%
X327984999Y-138830000D03*
%TO.P,J1,22*%
%TO.N,/U0TXD*%
X327984999Y-137130000D03*
%TO.P,J1,23*%
%TO.N,/IO6*%
X329254999Y-138830000D03*
%TO.P,J1,24*%
%TO.N,unconnected-(J1-Pin_24-Pad24)*%
X329254999Y-137130000D03*
%TD*%
D12*
%TO.P,H4,1*%
%TO.N,PWR_GND*%
X181700000Y-104100000D03*
D13*
X181700000Y-104100000D03*
%TD*%
D12*
%TO.P,H5,1*%
%TO.N,PWR_GND*%
X205800000Y-138900000D03*
D13*
X205800000Y-138900000D03*
%TD*%
D18*
%TO.P,U5,1*%
%TO.N,BUCK_IN*%
X286100000Y-135250000D03*
D19*
%TO.P,U5,2*%
%TO.N,PWR_GND*%
X283560000Y-135250000D03*
%TO.P,U5,3*%
%TO.N,/power-entry-instrument/BUCK_A_OUT*%
X281020000Y-135250000D03*
%TD*%
D12*
%TO.P,H1,1*%
%TO.N,PWR_GND*%
X97800000Y-138900000D03*
D13*
X97800000Y-138900000D03*
%TD*%
D20*
%TO.P,SW5,1*%
%TO.N,/RT1/SWITCH_LEG*%
X222400000Y-136200000D03*
%TO.P,SW5,2*%
%TO.N,PWR_GND*%
X215400000Y-137250000D03*
%TD*%
%TO.P,SW7,1*%
%TO.N,/RT3/SWITCH_LEG*%
X262400000Y-136200000D03*
%TO.P,SW7,2*%
%TO.N,PWR_GND*%
X255400000Y-137250000D03*
%TD*%
%TO.P,SW2,1*%
%TO.N,/LT2/SWITCH_LEG*%
X105600000Y-106800000D03*
%TO.P,SW2,2*%
%TO.N,PWR_GND*%
X112600000Y-105750000D03*
%TD*%
%TO.P,SW6,1*%
%TO.N,/RT2/SWITCH_LEG*%
X213600000Y-106800000D03*
%TO.P,SW6,2*%
%TO.N,PWR_GND*%
X220600000Y-105750000D03*
%TD*%
%TO.P,SW4,1*%
%TO.N,/LT4/SWITCH_LEG*%
X145600000Y-106800000D03*
%TO.P,SW4,2*%
%TO.N,PWR_GND*%
X152600000Y-105750000D03*
%TD*%
%TO.P,SW8,1*%
%TO.N,/RT4/SWITCH_LEG*%
X253600000Y-106800000D03*
%TO.P,SW8,2*%
%TO.N,PWR_GND*%
X260600000Y-105750000D03*
%TD*%
%TO.P,SW1,1*%
%TO.N,/LT1/SWITCH_LEG*%
X114400000Y-136200000D03*
%TO.P,SW1,2*%
%TO.N,PWR_GND*%
X107400000Y-137250000D03*
%TD*%
%TO.P,SW3,1*%
%TO.N,/LT3/SWITCH_LEG*%
X154400000Y-136200000D03*
%TO.P,SW3,2*%
%TO.N,PWR_GND*%
X147400000Y-137250000D03*
%TD*%
D21*
%TO.N,/CHAIN_QH_RT*%
X326100000Y-129900000D03*
X250700000Y-126900000D03*
X252100000Y-127700000D03*
X321900000Y-129900000D03*
%TO.N,/CHAIN_SCK*%
X222300000Y-112100000D03*
X248100000Y-113900000D03*
X126700000Y-134700000D03*
X120700000Y-107500000D03*
X246900000Y-129900000D03*
X245500000Y-105500000D03*
X254100000Y-114700000D03*
X289700000Y-114700000D03*
X247100000Y-105500000D03*
X229100000Y-108700000D03*
%TO.N,/CHAIN_SER_LH*%
X254900000Y-118500000D03*
X129699999Y-110300000D03*
X247300000Y-118500000D03*
X295500000Y-113300000D03*
%TO.N,/CHAIN_SHLD*%
X224700000Y-121300000D03*
X124700000Y-134100000D03*
X135100000Y-105500000D03*
X246300000Y-108100000D03*
X119900000Y-108900000D03*
X240700000Y-134500000D03*
X220900000Y-117500000D03*
X229300000Y-110300000D03*
X293900000Y-111300000D03*
%TO.N,/CS_MOD*%
X339700000Y-130699999D03*
%TO.N,/HOP_LH_LT*%
X134500000Y-113900000D03*
X134500000Y-126100000D03*
%TO.N,/HOP_LT_RH*%
X165100000Y-119700000D03*
X233100000Y-107700000D03*
X245300000Y-108700000D03*
%TO.N,/HOP_RH_RT*%
X248900000Y-126100000D03*
%TO.N,/IO1*%
X326300000Y-118700000D03*
%TO.N,/IO7*%
X312700000Y-128100000D03*
X296300000Y-115700000D03*
%TO.N,/IO33*%
X297300000Y-122300000D03*
X297300000Y-117700000D03*
X297300000Y-119500000D03*
X313600000Y-141400000D03*
%TO.N,/IO35*%
X313700000Y-125500000D03*
X294100000Y-125500000D03*
X333700000Y-133699999D03*
X264700000Y-140500000D03*
X211500000Y-135700000D03*
X214100000Y-139100000D03*
X316100000Y-127900000D03*
%TO.N,/IO36*%
X104100000Y-133699999D03*
X319700000Y-126300000D03*
X319700000Y-129900000D03*
X335100000Y-134500000D03*
X258500000Y-126300000D03*
%TO.N,/IO37*%
X213300000Y-139700000D03*
X322500000Y-126300000D03*
X297900000Y-123900000D03*
X325300000Y-129100000D03*
X103100000Y-131300000D03*
X174700000Y-140300000D03*
%TO.N,/IO38*%
X315900000Y-129100000D03*
X301100000Y-118500000D03*
%TO.N,/IO39*%
X321100000Y-126300000D03*
X99300000Y-127700000D03*
X323900000Y-129100000D03*
X237700000Y-121300000D03*
X235100000Y-121300000D03*
X229100000Y-127300000D03*
X252900000Y-116500000D03*
X318700000Y-125300000D03*
%TO.N,/KEY_FREE1*%
X130100000Y-127100000D03*
X124700000Y-127900000D03*
%TO.N,/KEY_FREE2*%
X127100000Y-131500000D03*
X131699999Y-126900000D03*
%TO.N,/KEY_LT1*%
X127100000Y-136500000D03*
X131300000Y-134700000D03*
%TO.N,/KEY_LT2*%
X130900000Y-130699999D03*
X121900000Y-118500000D03*
%TO.N,/KEY_LT4*%
X155900000Y-111900000D03*
X145300000Y-110500000D03*
X133300000Y-131699999D03*
X139900000Y-113900000D03*
X137100000Y-129300000D03*
X128900000Y-131699999D03*
%TO.N,/KEY_RT1*%
X216100000Y-128300000D03*
X247300000Y-131900000D03*
%TO.N,/KEY_RT2*%
X235500000Y-119500000D03*
X246100000Y-131900000D03*
%TO.N,/KEY_RT4*%
X253900000Y-122300000D03*
X255700000Y-116500000D03*
%TO.N,/MOSI*%
X338100000Y-128699999D03*
%TO.N,/RT2/SWITCH_LEG*%
X223300000Y-105500000D03*
X223300000Y-109100000D03*
%TO.N,/SCLK*%
X335500000Y-128100000D03*
%TO.N,/SENSOR_BUFFERED_OUT*%
X85700000Y-130500000D03*
X78600000Y-122100000D03*
X348300000Y-117500000D03*
%TO.N,/U0RXD*%
X335100000Y-136300000D03*
X337300000Y-134100000D03*
X345100000Y-138100000D03*
%TO.N,/U0TXD*%
X337700000Y-135100000D03*
%TO.N,/V3V3_CHAIN_RH*%
X228300000Y-106700000D03*
%TO.N,/led-strip-drive/LED_D1*%
X302100000Y-120300000D03*
X290500000Y-120300000D03*
%TO.N,/led-strip-drive/LED_D3*%
X253300000Y-120300000D03*
X262500000Y-120300000D03*
%TO.N,/led-strip-drive/LED_D4*%
X259700000Y-123100000D03*
X249900000Y-123100000D03*
%TO.N,/led-strip-drive/LED_D5*%
X227700000Y-123100000D03*
X239900000Y-123100000D03*
%TO.N,/led-strip-drive/LED_D8*%
X159700000Y-122300000D03*
X165300000Y-122700000D03*
%TO.N,/led-strip-drive/LED_D10*%
X118900000Y-124900000D03*
X114300000Y-120300000D03*
%TO.N,/led-strip-drive/LED_D12*%
X85700000Y-122700000D03*
X100700000Y-122700000D03*
%TO.N,/power-entry-instrument/INRUSH_GATE*%
X337200000Y-111800000D03*
X341300000Y-111200000D03*
%TO.N,AGND_INST*%
X321190841Y-103975000D03*
X80451057Y-103975000D03*
X303244510Y-103086235D03*
X95963744Y-107340955D03*
X148124386Y-101425000D03*
X106343799Y-111009796D03*
X193282040Y-101425000D03*
X215436442Y-104366994D03*
X199651780Y-105354999D03*
X226443283Y-101425000D03*
X343584619Y-102388599D03*
X91651780Y-105354999D03*
X251246780Y-103975000D03*
X189538367Y-103975000D03*
X311668658Y-108960594D03*
X136245657Y-101425000D03*
X96200000Y-123625000D03*
X256207479Y-101425000D03*
X220490444Y-101425000D03*
X244301801Y-101425000D03*
X250254640Y-101425000D03*
X154063750Y-101425000D03*
X101015986Y-108125010D03*
X171881844Y-101425000D03*
X180058054Y-107443596D03*
X326843316Y-103975000D03*
X202390961Y-105601360D03*
X126346716Y-103975000D03*
X107436442Y-104366994D03*
X74065158Y-102211856D03*
X324959158Y-101425000D03*
X280018835Y-103975000D03*
X79500000Y-101425000D03*
X171881844Y-103975000D03*
X348225000Y-111350000D03*
X84549999Y-126399999D03*
X175551780Y-105354999D03*
X349750000Y-117700000D03*
X160003115Y-103975000D03*
X203305992Y-109858085D03*
X310647653Y-106377490D03*
X207243369Y-107967715D03*
X79199999Y-126250000D03*
X154063750Y-103975000D03*
X89100000Y-128487500D03*
X262160318Y-103975000D03*
X179593415Y-110010831D03*
X335063478Y-105651481D03*
X305593415Y-110010831D03*
X195153877Y-103975000D03*
X274065996Y-101425000D03*
X90351471Y-128601471D03*
X285971674Y-101425000D03*
X232396122Y-101425000D03*
X187653986Y-101862717D03*
X71219954Y-126244558D03*
X262160318Y-101425000D03*
X120407351Y-103975000D03*
X130306292Y-101425000D03*
X245293940Y-103975000D03*
X88059517Y-101425000D03*
X228427563Y-103975000D03*
X350775000Y-114175000D03*
X315538367Y-103975000D03*
X280018835Y-101425000D03*
X350775000Y-108525000D03*
X319306683Y-101425000D03*
X165942480Y-101425000D03*
X114467987Y-103975000D03*
X268113157Y-103975000D03*
X297877353Y-101425000D03*
X349522881Y-102677118D03*
X70610769Y-133579999D03*
X100790594Y-110665030D03*
X297877353Y-103975000D03*
X134265869Y-103975000D03*
X340805896Y-106985372D03*
X140205233Y-103975000D03*
X301551780Y-105354999D03*
X118427563Y-101425000D03*
X348225000Y-105700000D03*
X222474724Y-103975000D03*
X142185021Y-101425000D03*
X112488198Y-101425000D03*
X274065996Y-103975000D03*
X81400000Y-129224999D03*
X160003115Y-101425000D03*
X146144598Y-103975000D03*
X77474999Y-127460000D03*
X89304293Y-101699999D03*
X238348962Y-101425000D03*
X291924514Y-103975000D03*
X103399999Y-130100000D03*
X75313293Y-133485668D03*
X82239230Y-132350000D03*
X177244510Y-103086235D03*
X94892307Y-130672972D03*
X306058054Y-107443596D03*
X185668658Y-108960594D03*
X330611632Y-101425000D03*
X313653986Y-101862717D03*
X88059517Y-103975000D03*
X208790594Y-110665030D03*
X214343799Y-111009796D03*
X93344510Y-103086235D03*
X285971674Y-103975000D03*
X165942480Y-103975000D03*
X93600000Y-123625000D03*
X95719954Y-132044558D03*
X124366928Y-101425000D03*
X184647653Y-106377490D03*
X198928908Y-101535867D03*
X291924514Y-101425000D03*
X85050000Y-137200000D03*
X103449999Y-125599999D03*
X268113157Y-101425000D03*
X95305992Y-109858085D03*
X237356822Y-103975000D03*
X72880000Y-104400000D03*
%TO.N,DEV_3V3*%
X237700000Y-131900000D03*
X304100000Y-121300000D03*
X156100000Y-112900000D03*
X131900000Y-117500000D03*
X128900000Y-124100000D03*
X109700000Y-126500000D03*
X240900000Y-127100000D03*
X158100000Y-109700000D03*
X315500000Y-141000000D03*
X139300000Y-116500000D03*
X243500000Y-126700000D03*
X140900000Y-114900000D03*
X135700000Y-134300000D03*
X136100000Y-126100000D03*
X313300000Y-138100000D03*
X91900000Y-126500000D03*
D22*
%TO.N,INST_5V_A*%
X331600000Y-116800000D03*
D21*
X295550000Y-130550000D03*
D22*
X330600000Y-141400000D03*
X330600000Y-126600000D03*
D21*
X295700000Y-128900000D03*
%TO.N,INST_POS12*%
X142307699Y-116999999D03*
X78040889Y-123760582D03*
X319331000Y-121500000D03*
X86587500Y-138300000D03*
X281291999Y-117000000D03*
X83259110Y-121189417D03*
X162177000Y-117000000D03*
X221785000Y-116999999D03*
X181946000Y-117000000D03*
X261522999Y-116999999D03*
X316800000Y-122200000D03*
X340387499Y-112720577D03*
X350750000Y-135449999D03*
X269500000Y-137200000D03*
X306805703Y-131163535D03*
X241653999Y-116999999D03*
X140507700Y-121500000D03*
X201815000Y-117000000D03*
X239853999Y-121500000D03*
X180246000Y-121500000D03*
X200114999Y-121500000D03*
X259722999Y-121500000D03*
X269500000Y-130100000D03*
X269500000Y-139700000D03*
X301161999Y-117000000D03*
X219985000Y-121500000D03*
X98149999Y-115999999D03*
X160377000Y-121500000D03*
X102469199Y-117000000D03*
X340387499Y-114279422D03*
X122438499Y-117000000D03*
X100769199Y-121500000D03*
X299461999Y-121500000D03*
X341137499Y-113499999D03*
X120638500Y-121500000D03*
X82600000Y-117000000D03*
X76578239Y-120901689D03*
X321131000Y-116999999D03*
X304249999Y-131500000D03*
X269500000Y-132600000D03*
X279591998Y-121500000D03*
%TO.N,PWR_GND*%
X344699999Y-110294486D03*
X346741180Y-111621574D03*
X274900000Y-137200000D03*
X286891999Y-121500000D03*
X274900000Y-132500000D03*
X267022999Y-121500000D03*
X291099981Y-129884700D03*
X108069199Y-121500000D03*
X242299132Y-127027516D03*
X156240889Y-114710582D03*
X356900000Y-115637499D03*
X295700000Y-134799999D03*
X135220865Y-133470017D03*
X355198880Y-111987145D03*
X334722486Y-117080157D03*
X265223000Y-117000000D03*
X336262499Y-125699999D03*
X105799999Y-130100000D03*
X280475000Y-131699999D03*
X127938500Y-121500000D03*
X230634924Y-116915075D03*
X351789230Y-131949999D03*
X352599999Y-118350000D03*
X233362500Y-105799999D03*
X324831000Y-117000000D03*
X248442683Y-127032368D03*
X263754550Y-113950000D03*
X139299999Y-132100000D03*
X274900000Y-130000000D03*
X350033809Y-137099587D03*
X334743569Y-121564989D03*
X358601119Y-111987145D03*
X211759110Y-128289417D03*
X245354000Y-116999999D03*
X327607437Y-115454070D03*
X303612518Y-129684700D03*
X185845999Y-116999999D03*
X282475000Y-131699999D03*
X126299132Y-127027516D03*
X304961999Y-116999999D03*
X247154000Y-121500000D03*
X227285000Y-121500000D03*
X123452296Y-136712346D03*
X146107699Y-116999999D03*
X350247703Y-130562345D03*
X326629190Y-119834122D03*
X248742073Y-135160007D03*
X251220865Y-133470017D03*
X122362499Y-105799999D03*
X274900000Y-139700000D03*
X348621629Y-127795283D03*
X147807699Y-121500000D03*
X334531616Y-118136503D03*
X328177680Y-124570810D03*
X352999999Y-133199999D03*
X285091999Y-116999999D03*
X298200000Y-134800000D03*
X352952296Y-130562345D03*
X106269199Y-117000000D03*
X207415000Y-121500000D03*
X225584999Y-116999999D03*
X165976999Y-116999999D03*
X316960769Y-119699999D03*
X167677000Y-121500000D03*
X133300000Y-125900000D03*
X328299999Y-111087499D03*
X126138500Y-117000000D03*
X101902627Y-115449999D03*
X326631000Y-121500000D03*
X237915075Y-133634924D03*
X344178370Y-127795283D03*
X205615000Y-116999999D03*
X117937564Y-117700000D03*
X330899999Y-111450000D03*
X187546000Y-121500000D03*
X353165685Y-120834314D03*
X247202627Y-125250000D03*
X306761999Y-121500000D03*
X85840889Y-121810582D03*
X329777296Y-120362346D03*
X133500000Y-129900000D03*
X346399999Y-126200000D03*
X227551471Y-134298528D03*
X86499999Y-117000000D03*
X356961435Y-107224970D03*
%TO.N,VS*%
X73300000Y-112300000D03*
X72000000Y-127000000D03*
X74100000Y-124900000D03*
X74900000Y-112300000D03*
%TO.N,/IO6*%
X331500000Y-138500000D03*
X327100000Y-120700000D03*
X331500000Y-129900000D03*
X326900000Y-114700000D03*
%TO.N,/MIDI_TIP_DRV*%
X333300000Y-111300000D03*
X327100000Y-123100000D03*
%TO.N,/MIDI_RING_DRV*%
X334700000Y-123300000D03*
X335900000Y-112300000D03*
%TO.N,/IO2*%
X305100000Y-114700000D03*
X310300000Y-135100000D03*
X330500000Y-118700000D03*
X308500000Y-130300000D03*
X324500000Y-110900000D03*
X308300000Y-135100000D03*
X310900000Y-111100000D03*
X292700000Y-123900000D03*
X308300000Y-132100000D03*
X298500000Y-124700000D03*
%TO.N,/midi-out/MIDI_RING*%
X354900000Y-109700000D03*
X358900000Y-113500000D03*
%TO.N,/midi-out/MIDI_TIP_R*%
X334900000Y-115700000D03*
X336500000Y-117300000D03*
X343700000Y-124700000D03*
X344700000Y-123700000D03*
X346500000Y-110500000D03*
X331900000Y-109100000D03*
%TO.N,/midi-out/MIDI_RING_R*%
X336500000Y-113300000D03*
X354100000Y-115500000D03*
%TD*%
D23*
%TO.N,/CHAIN_QH_RT*%
X325900000Y-130100000D02*
X326100000Y-129900000D01*
X321900000Y-129900000D02*
X323500000Y-129900000D01*
X323700000Y-130100000D02*
X325900000Y-130100000D01*
X251500000Y-127700000D02*
X250700000Y-126900000D01*
X323500000Y-129900000D02*
X323700000Y-130100000D01*
X252100000Y-127700000D02*
X251500000Y-127700000D01*
%TO.N,/CHAIN_SCK*%
X245500000Y-105500000D02*
X247100000Y-105500000D01*
X248100000Y-113900000D02*
X248100000Y-125700000D01*
X120700000Y-120100000D02*
X123700000Y-123100000D01*
X247900000Y-125900000D02*
X247900000Y-126100000D01*
X225700000Y-108700000D02*
X229100000Y-108700000D01*
X246900000Y-127100000D02*
X246900000Y-129900000D01*
X120700000Y-107500000D02*
X120700000Y-120100000D01*
X225700000Y-108700000D02*
X222300000Y-112100000D01*
X254100000Y-114700000D02*
X289700000Y-114700000D01*
X247900000Y-126100000D02*
X246900000Y-127100000D01*
X123700000Y-123100000D02*
X123700000Y-131699999D01*
X248100000Y-125700000D02*
X247900000Y-125900000D01*
X123700000Y-131699999D02*
X126700000Y-134700000D01*
%TO.N,/CHAIN_SER_LH*%
X282900000Y-124100000D02*
X293700000Y-113300000D01*
X134500000Y-107500000D02*
X147500000Y-120500000D01*
X130100000Y-112300000D02*
X133500000Y-112300000D01*
X129699999Y-111900000D02*
X130100000Y-112300000D01*
X228900000Y-118500000D02*
X247300000Y-118500000D01*
X147500000Y-120500000D02*
X221900000Y-120500000D01*
X267700000Y-124100000D02*
X282900000Y-124100000D01*
X133500000Y-112300000D02*
X133900000Y-111900000D01*
X133900000Y-111900000D02*
X133900000Y-107900000D01*
X226900000Y-120500000D02*
X228900000Y-118500000D01*
X293700000Y-113300000D02*
X295500000Y-113300000D01*
X129699999Y-110300000D02*
X129699999Y-111900000D01*
X221900000Y-120500000D02*
X226900000Y-120500000D01*
X262100000Y-118500000D02*
X267700000Y-124100000D01*
X254900000Y-118500000D02*
X262100000Y-118500000D01*
X133900000Y-107900000D02*
X133300000Y-107300000D01*
X133300000Y-107500000D02*
X134500000Y-107500000D01*
%TO.N,/CHAIN_SHLD*%
X133900000Y-105500000D02*
X133300000Y-106100000D01*
X244300000Y-106100000D02*
X243410000Y-106080000D01*
X135100000Y-105500000D02*
X133900000Y-105500000D01*
X255500000Y-108300000D02*
X254700000Y-109100000D01*
X220900000Y-115500000D02*
X220900000Y-117500000D01*
X220900000Y-115500000D02*
X149300000Y-115500000D01*
X224100000Y-115500000D02*
X220900000Y-115500000D01*
X133300000Y-106100000D02*
X132410000Y-106080000D01*
X246500000Y-108300000D02*
X251700000Y-108300000D01*
X259500000Y-108300000D02*
X255500000Y-108300000D01*
X226900000Y-123500000D02*
X226900000Y-123700000D01*
X236900000Y-134100000D02*
X237300000Y-134500000D01*
X251700000Y-108300000D02*
X252500000Y-109100000D01*
X293900000Y-111300000D02*
X262500000Y-111300000D01*
X119700000Y-109100000D02*
X119700000Y-129100000D01*
X226900000Y-123700000D02*
X236900000Y-133699999D01*
X139500000Y-105700000D02*
X149300000Y-115500000D01*
X135300000Y-105700000D02*
X139500000Y-105700000D01*
X229300000Y-110300000D02*
X224100000Y-115500000D01*
X119700000Y-129100000D02*
X124700000Y-134100000D01*
X237300000Y-134500000D02*
X240700000Y-134500000D01*
X252500000Y-109100000D02*
X254700000Y-109100000D01*
X246300000Y-108100000D02*
X244300000Y-106100000D01*
X262500000Y-111300000D02*
X259500000Y-108300000D01*
X224700000Y-121300000D02*
X226900000Y-123500000D01*
X119900000Y-108900000D02*
X119700000Y-109100000D01*
X236900000Y-133699999D02*
X236900000Y-134100000D01*
%TO.N,/CS_MOD*%
X348900000Y-130699999D02*
X352700000Y-134500000D01*
X339700000Y-130699999D02*
X348900000Y-130699999D01*
X352700000Y-134500000D02*
X354900000Y-134500000D01*
%TO.N,/HOP_LH_LT*%
X134500000Y-113900000D02*
X134500000Y-126100000D01*
%TO.N,/HOP_LT_RH*%
X233100000Y-107700000D02*
X221100000Y-119700000D01*
X245300000Y-108300000D02*
X244300000Y-107300000D01*
X221100000Y-119700000D02*
X165100000Y-119700000D01*
X245300000Y-108700000D02*
X245300000Y-108300000D01*
X244300000Y-107300000D02*
X243410000Y-107350000D01*
%TO.N,/HOP_RH_RT*%
X243500000Y-108700000D02*
X244300000Y-108700000D01*
X243410000Y-108620000D02*
X243500000Y-108700000D01*
X248900000Y-113300000D02*
X248900000Y-126100000D01*
X244300000Y-108700000D02*
X248900000Y-113300000D01*
%TO.N,/IO1*%
X326300000Y-118700000D02*
X316700000Y-128300000D01*
X316700000Y-128300000D02*
X316700000Y-136500000D01*
%TO.N,/IO7*%
X299900000Y-119300000D02*
X303100000Y-119300000D01*
X303100000Y-119300000D02*
X311900000Y-128100000D01*
X311900000Y-128100000D02*
X312700000Y-128100000D01*
X296300000Y-115700000D02*
X299900000Y-119300000D01*
%TO.N,/IO33*%
X305900000Y-130900000D02*
X305900000Y-131699999D01*
X297300000Y-122300000D02*
X305900000Y-130900000D01*
X313600000Y-141400000D02*
X313600000Y-139400000D01*
X297300000Y-117700000D02*
X297300000Y-119500000D01*
X313600000Y-139400000D02*
X305900000Y-131699999D01*
%TO.N,/IO35*%
X323100000Y-133899999D02*
X323100000Y-133699999D01*
X294100000Y-125500000D02*
X286100000Y-133500000D01*
X320500000Y-136500000D02*
X323100000Y-133899999D01*
X313700000Y-125500000D02*
X316100000Y-127900000D01*
X211500000Y-136700000D02*
X211500000Y-135700000D01*
X271700000Y-133500000D02*
X286100000Y-133500000D01*
X333700000Y-133699999D02*
X323100000Y-133699999D01*
X213700000Y-138900000D02*
X211500000Y-136700000D01*
X264700000Y-140500000D02*
X271700000Y-133500000D01*
X214100000Y-139100000D02*
X213900000Y-138900000D01*
X213900000Y-138900000D02*
X213700000Y-138900000D01*
%TO.N,/IO36*%
X220900000Y-139300000D02*
X246900000Y-139300000D01*
X194500000Y-135700000D02*
X158300000Y-135700000D01*
X113100000Y-139500000D02*
X107300000Y-133699999D01*
X321900000Y-136500000D02*
X321900000Y-136300000D01*
X107300000Y-133699999D02*
X104100000Y-133699999D01*
X154500000Y-139500000D02*
X113100000Y-139500000D01*
X246900000Y-139300000D02*
X252100000Y-134100000D01*
X252100000Y-132699999D02*
X252100000Y-134100000D01*
X158300000Y-135700000D02*
X154500000Y-139500000D01*
X258500000Y-126300000D02*
X252100000Y-132699999D01*
X216500000Y-134900000D02*
X195300000Y-134900000D01*
X323500000Y-134700000D02*
X334900000Y-134700000D01*
X335100000Y-134500000D02*
X334900000Y-134700000D01*
X319700000Y-126300000D02*
X319700000Y-129900000D01*
X216500000Y-134900000D02*
X220900000Y-139300000D01*
X321900000Y-136300000D02*
X323500000Y-134700000D01*
X195300000Y-134900000D02*
X194500000Y-135700000D01*
%TO.N,/IO37*%
X103100000Y-131300000D02*
X103100000Y-137500000D01*
X213300000Y-139700000D02*
X213700000Y-140100000D01*
X105900000Y-140300000D02*
X174700000Y-140300000D01*
X253700000Y-134900000D02*
X256299999Y-134900000D01*
X257700000Y-136300000D02*
X258899999Y-136300000D01*
X103100000Y-137500000D02*
X105900000Y-140300000D01*
X297100000Y-124700000D02*
X297900000Y-123900000D01*
X322500000Y-126300000D02*
X325300000Y-129100000D01*
X258899999Y-136300000D02*
X270500000Y-124700000D01*
X256299999Y-134900000D02*
X257700000Y-136300000D01*
X248500000Y-140100000D02*
X253700000Y-134900000D01*
X213700000Y-140100000D02*
X248500000Y-140100000D01*
X270500000Y-124700000D02*
X297100000Y-124700000D01*
%TO.N,/IO38*%
X305300000Y-118500000D02*
X315900000Y-129100000D01*
X301100000Y-118500000D02*
X305300000Y-118500000D01*
%TO.N,/IO39*%
X321100000Y-126300000D02*
X323900000Y-129100000D01*
X293500000Y-112300000D02*
X305700000Y-112300000D01*
X235100000Y-121300000D02*
X237700000Y-121300000D01*
X252900000Y-116500000D02*
X253700000Y-115700000D01*
X126700000Y-137500000D02*
X139300000Y-137500000D01*
X290100000Y-115700000D02*
X293500000Y-112300000D01*
X253700000Y-115700000D02*
X290100000Y-115700000D01*
X149500000Y-127300000D02*
X229100000Y-127300000D01*
X139300000Y-137500000D02*
X149500000Y-127300000D01*
X305700000Y-112300000D02*
X318700000Y-125300000D01*
X116900000Y-127700000D02*
X126700000Y-137500000D01*
X99300000Y-127700000D02*
X116900000Y-127700000D01*
%TO.N,/KEY_FREE1*%
X124700000Y-127900000D02*
X129300000Y-127900000D01*
X129300000Y-127900000D02*
X130100000Y-127100000D01*
%TO.N,/KEY_FREE2*%
X127100000Y-131500000D02*
X131699999Y-126900000D01*
%TO.N,/KEY_LT1*%
X127100000Y-136500000D02*
X129500000Y-136500000D01*
X129500000Y-136500000D02*
X131300000Y-134700000D01*
%TO.N,/KEY_LT2*%
X132500000Y-127500000D02*
X132500000Y-126300000D01*
X128500000Y-125100000D02*
X121900000Y-118500000D01*
X130900000Y-130699999D02*
X130900000Y-129100000D01*
X131300000Y-125100000D02*
X128500000Y-125100000D01*
X130900000Y-129100000D02*
X132500000Y-127500000D01*
X132500000Y-126300000D02*
X131300000Y-125100000D01*
%TO.N,/KEY_LT4*%
X137100000Y-116700000D02*
X137100000Y-129300000D01*
X151500000Y-108300000D02*
X147500000Y-108300000D01*
X155900000Y-111900000D02*
X155100000Y-111900000D01*
X155100000Y-111900000D02*
X151500000Y-108300000D01*
X147500000Y-108300000D02*
X145300000Y-110500000D01*
X139900000Y-113900000D02*
X137100000Y-116700000D01*
X133300000Y-131699999D02*
X128900000Y-131699999D01*
%TO.N,/KEY_RT1*%
X243900000Y-135300000D02*
X247300000Y-131900000D01*
X225700000Y-134500000D02*
X219500000Y-128300000D01*
X225700000Y-134500000D02*
X226300000Y-134500000D01*
X226300000Y-134500000D02*
X227100000Y-135300000D01*
X227100000Y-135300000D02*
X243900000Y-135300000D01*
X219500000Y-128300000D02*
X216100000Y-128300000D01*
%TO.N,/KEY_RT2*%
X246100000Y-126300000D02*
X246100000Y-131900000D01*
X235500000Y-119500000D02*
X236500000Y-120500000D01*
X240300000Y-120500000D02*
X246100000Y-126300000D01*
X236500000Y-120500000D02*
X240300000Y-120500000D01*
%TO.N,/KEY_RT4*%
X253900000Y-122300000D02*
X252300000Y-120700000D01*
X252300000Y-119900000D02*
X255700000Y-116500000D01*
X252300000Y-120700000D02*
X252300000Y-119900000D01*
%TO.N,/MOSI*%
X353900000Y-128500000D02*
X354900000Y-129500000D01*
X340875000Y-128500000D02*
X353900000Y-128500000D01*
X338100000Y-128699999D02*
X340700000Y-128699999D01*
X340700000Y-128699999D02*
X340875000Y-128500000D01*
%TO.N,/RT2/SWITCH_LEG*%
X223300000Y-109100000D02*
X223300000Y-105500000D01*
%TO.N,/SCLK*%
X354900000Y-127100000D02*
X338100000Y-127100000D01*
X336900000Y-126700000D02*
X335500000Y-128100000D01*
X337700000Y-126700000D02*
X336900000Y-126700000D01*
X338100000Y-127100000D02*
X337700000Y-126700000D01*
%TO.N,/SENSOR_BUFFERED_OUT*%
X78600000Y-103850000D02*
X78600000Y-122100000D01*
X79500000Y-102950000D02*
X89961632Y-102950000D01*
X77500000Y-122900000D02*
X77100000Y-123300000D01*
X189538367Y-102950000D02*
X197961632Y-102950000D01*
X111498304Y-102950000D02*
X173861632Y-102950000D01*
X77700000Y-122900000D02*
X77500000Y-122900000D01*
X97335958Y-109329451D02*
X105312736Y-110037279D01*
X78100000Y-125300000D02*
X80500000Y-125300000D01*
X78500000Y-122100000D02*
X77700000Y-122900000D01*
X349250000Y-105700000D02*
X349250000Y-117000000D01*
X346288367Y-102950000D02*
X346500000Y-102950000D01*
X80500000Y-125300000D02*
X85700000Y-130500000D01*
X77100000Y-124300000D02*
X78100000Y-125300000D01*
X77100000Y-123300000D02*
X77100000Y-124300000D01*
X79500000Y-102950000D02*
X78600000Y-103850000D01*
X349250000Y-117000000D02*
X348300000Y-117500000D01*
X315538367Y-102950000D02*
X330611632Y-102950000D01*
X205335958Y-109329451D02*
X213312736Y-110037279D01*
X219498304Y-102950000D02*
X299861632Y-102950000D01*
X197961632Y-102950000D02*
G75*
G02*
X200656040Y-105150005I-32J-2750000D01*
G01*
X213312736Y-110037279D02*
G75*
G03*
X216794914Y-106204166I287264J3237279D01*
G01*
X330611632Y-102950000D02*
G75*
G02*
X333306040Y-105150005I-32J-2750000D01*
G01*
X89961632Y-102950000D02*
G75*
G02*
X92656040Y-105150005I-32J-2750000D01*
G01*
X105312736Y-110037279D02*
G75*
G03*
X108794914Y-106204166I287264J3237279D01*
G01*
X299861632Y-102950000D02*
G75*
G02*
X302556040Y-105150005I-32J-2750000D01*
G01*
X216794915Y-106204166D02*
G75*
G02*
X219498304Y-102950005I2703385J504166D01*
G01*
X346500000Y-102950000D02*
G75*
G02*
X349250000Y-105700000I0J-2750000D01*
G01*
X176556071Y-105149999D02*
G75*
G03*
X186843927Y-105149999I5143928J1049999D01*
G01*
X92656071Y-105149999D02*
G75*
G03*
X97335958Y-109329452I5143929J1049999D01*
G01*
X333306071Y-105149999D02*
G75*
G03*
X343593929Y-105149999I5143929J1049999D01*
G01*
X108794915Y-106204166D02*
G75*
G02*
X111498304Y-102950005I2703385J504166D01*
G01*
X343593928Y-105149999D02*
G75*
G02*
X346288367Y-102949967I2694472J-550001D01*
G01*
X173861632Y-102950000D02*
G75*
G02*
X176556040Y-105150005I-32J-2750000D01*
G01*
X186843928Y-105149999D02*
G75*
G02*
X189538367Y-102949967I2694472J-550001D01*
G01*
X200656071Y-105149999D02*
G75*
G03*
X205335958Y-109329452I5143929J1049999D01*
G01*
X302556071Y-105149999D02*
G75*
G03*
X312843929Y-105149999I5143929J1049999D01*
G01*
X312843928Y-105149999D02*
G75*
G02*
X315538367Y-102949967I2694472J-550001D01*
G01*
%TO.N,/U0RXD*%
X328300000Y-139700000D02*
X328300000Y-139900000D01*
X331300000Y-140100000D02*
X335100000Y-136300000D01*
X328100000Y-139500000D02*
X328300000Y-139700000D01*
X344100000Y-138100000D02*
X340100000Y-134100000D01*
X328300000Y-139900000D02*
X328500000Y-140100000D01*
X345100000Y-138100000D02*
X344100000Y-138100000D01*
X328500000Y-140100000D02*
X331300000Y-140100000D01*
X337300000Y-134100000D02*
X340100000Y-134100000D01*
%TO.N,/U0TXD*%
X328300000Y-136300000D02*
X328300000Y-136100000D01*
X337300000Y-135500000D02*
X337700000Y-135100000D01*
X328300000Y-136100000D02*
X328900000Y-135500000D01*
X328900000Y-135500000D02*
X337300000Y-135500000D01*
X328100000Y-136500000D02*
X328300000Y-136300000D01*
%TO.N,/V3V3_CHAIN_RH*%
X233500000Y-106700000D02*
X228300000Y-106700000D01*
X244900000Y-110500000D02*
X244900000Y-111900000D01*
X244500000Y-112300000D02*
X239100000Y-112300000D01*
X243500000Y-109900000D02*
X244300000Y-109900000D01*
X244900000Y-111900000D02*
X244500000Y-112300000D01*
X244300000Y-109900000D02*
X244900000Y-110500000D01*
X243410000Y-109890000D02*
X243500000Y-109900000D01*
X239100000Y-112300000D02*
X233500000Y-106700000D01*
%TO.N,/led-strip-drive/LED_D1*%
X290500000Y-120300000D02*
X302100000Y-120300000D01*
%TO.N,/led-strip-drive/LED_D3*%
X253300000Y-120300000D02*
X262500000Y-120300000D01*
%TO.N,/led-strip-drive/LED_D4*%
X249900000Y-123100000D02*
X259700000Y-123100000D01*
%TO.N,/led-strip-drive/LED_D5*%
X227700000Y-123100000D02*
X239900000Y-123100000D01*
%TO.N,/led-strip-drive/LED_D8*%
X159700000Y-122300000D02*
X160100000Y-122700000D01*
X160100000Y-122700000D02*
X165300000Y-122700000D01*
%TO.N,/led-strip-drive/LED_D10*%
X114300000Y-120300000D02*
X118900000Y-124900000D01*
%TO.N,/led-strip-drive/LED_D12*%
X85700000Y-122700000D02*
X100700000Y-122700000D01*
%TO.N,/power-entry-instrument/INRUSH_GATE*%
X340700000Y-111800000D02*
X341300000Y-111200000D01*
X337200000Y-111800000D02*
X340700000Y-111800000D01*
%TO.N,AGND_INST*%
X88059517Y-102000000D02*
X89010575Y-102000000D01*
X140205233Y-102000000D02*
X141195127Y-102000000D01*
X136245657Y-103400000D02*
X137235551Y-103400000D01*
X130306292Y-103400000D02*
X131296186Y-103400000D01*
X85206345Y-103400000D02*
X86157402Y-103400000D01*
X134265869Y-102000000D02*
X135255763Y-102000000D01*
X190474285Y-102000000D02*
X191410203Y-102000000D01*
X250254640Y-103400000D02*
X251246780Y-103400000D01*
X198798806Y-102095955D02*
X198928908Y-101535867D01*
X246286080Y-103400000D02*
X247278220Y-103400000D01*
X158023327Y-103400000D02*
X159013221Y-103400000D01*
X130306292Y-102000000D02*
X130306292Y-101425000D01*
X288948094Y-103400000D02*
X289940234Y-103400000D01*
X131296186Y-102000000D02*
X132286080Y-102000000D01*
X89010575Y-102000000D02*
X89961632Y-102000000D01*
X148124386Y-102000000D02*
X148124386Y-101425000D01*
X262160318Y-102000000D02*
X262160318Y-101425000D01*
X143174915Y-103400000D02*
X144164809Y-103400000D01*
X319306683Y-102000000D02*
X320248762Y-102000000D01*
X263152458Y-102000000D02*
X264144598Y-102000000D01*
X350200000Y-108525000D02*
X350775000Y-108525000D01*
X294900933Y-102000000D02*
X295893073Y-102000000D01*
X291924514Y-102000000D02*
X291924514Y-101425000D01*
X238348962Y-102000000D02*
X238348962Y-101425000D01*
X255215339Y-103400000D02*
X256207479Y-103400000D01*
X80451057Y-102000000D02*
X81402115Y-102000000D01*
X329669553Y-102000000D02*
X330611632Y-102000000D01*
X131296186Y-103400000D02*
X132286080Y-103400000D01*
X349116295Y-103083704D02*
X349522881Y-102677118D01*
X98182492Y-109856338D02*
X99068801Y-109934985D01*
X232396122Y-102000000D02*
X233388262Y-102000000D01*
X275058136Y-103400000D02*
X276050276Y-103400000D01*
X224459004Y-103400000D02*
X225451143Y-103400000D01*
X230411843Y-102000000D02*
X231403983Y-102000000D01*
X240333241Y-103400000D02*
X241325381Y-103400000D01*
X273073856Y-103400000D02*
X274065996Y-103400000D01*
X189538367Y-102000000D02*
X190474285Y-102000000D01*
X226443283Y-102000000D02*
X227435423Y-102000000D01*
X324017079Y-103400000D02*
X324959158Y-103400000D01*
X278034556Y-103400000D02*
X279026695Y-103400000D01*
X144164809Y-103400000D02*
X145154704Y-103400000D01*
X120407351Y-103400000D02*
X121397245Y-103400000D01*
X159013221Y-102000000D02*
X160003115Y-102000000D01*
X249262500Y-103400000D02*
X250254640Y-103400000D01*
X280018835Y-103400000D02*
X281010975Y-103400000D01*
X163962691Y-103400000D02*
X164952585Y-103400000D01*
X124366928Y-102000000D02*
X124366928Y-101425000D01*
X128326504Y-102000000D02*
X129316398Y-102000000D01*
X133275974Y-102000000D02*
X134265869Y-102000000D01*
X111498304Y-102450000D02*
X173861632Y-102450000D01*
X248270360Y-102000000D02*
X249262500Y-102000000D01*
X206182492Y-109856338D02*
X207068801Y-109934985D01*
X275058136Y-102000000D02*
X276050276Y-102000000D01*
X221482584Y-102000000D02*
X222474724Y-102000000D01*
X280018835Y-102000000D02*
X280018835Y-101425000D01*
X324959158Y-103400000D02*
X325901237Y-103400000D01*
X348800000Y-106641666D02*
X348800000Y-107583333D01*
X241325381Y-103400000D02*
X242317521Y-103400000D01*
X222474724Y-103400000D02*
X223466864Y-103400000D01*
X159013221Y-103400000D02*
X160003115Y-103400000D01*
X92215163Y-105240000D02*
X91651780Y-105354999D01*
X249262500Y-102000000D02*
X250254640Y-102000000D01*
X195153877Y-103400000D02*
X195153877Y-103975000D01*
X220490444Y-102000000D02*
X220490444Y-101425000D01*
X350200000Y-106641666D02*
X350200000Y-107583333D01*
X315538367Y-102000000D02*
X316480446Y-102000000D01*
X326843316Y-102000000D02*
X327785395Y-102000000D01*
X120407351Y-103400000D02*
X120407351Y-103975000D01*
X163962691Y-102000000D02*
X164952585Y-102000000D01*
X123377033Y-102000000D02*
X124366928Y-102000000D01*
X191410203Y-103400000D02*
X192346122Y-103400000D01*
X263152458Y-103400000D02*
X264144598Y-103400000D01*
X272081716Y-103400000D02*
X273073856Y-103400000D01*
X101727727Y-110170928D02*
X102614035Y-110249575D01*
X245293940Y-102000000D02*
X246286080Y-102000000D01*
X237356822Y-103400000D02*
X238348962Y-103400000D01*
X203534526Y-109330452D02*
X203305992Y-109858085D01*
X250254640Y-102000000D02*
X250254640Y-101425000D01*
X210614035Y-110249575D02*
X211500344Y-110328223D01*
X251246780Y-103400000D02*
X251246780Y-103975000D01*
X244301801Y-103400000D02*
X245293940Y-103400000D01*
X139215339Y-103400000D02*
X140205233Y-103400000D01*
X242317521Y-103400000D02*
X243309661Y-103400000D01*
X121397245Y-103400000D02*
X122387139Y-103400000D01*
X273073856Y-102000000D02*
X274065996Y-102000000D01*
X259183898Y-102000000D02*
X260176038Y-102000000D01*
X228427563Y-103400000D02*
X229419703Y-103400000D01*
X245293940Y-103400000D02*
X245293940Y-103975000D01*
X112488198Y-102000000D02*
X112488198Y-101425000D01*
X233388262Y-102000000D02*
X234380402Y-102000000D01*
X323075000Y-102000000D02*
X324017079Y-102000000D01*
X298869492Y-102000000D02*
X299861632Y-102000000D01*
X156043539Y-103400000D02*
X157033433Y-103400000D01*
X350200000Y-113233333D02*
X350200000Y-114175000D01*
X100841418Y-110092280D02*
X100790594Y-110665030D01*
X79500000Y-102000000D02*
X80451057Y-102000000D01*
X251246780Y-102000000D02*
X252238919Y-102000000D01*
X255215339Y-102000000D02*
X256207479Y-102000000D01*
X265136738Y-103400000D02*
X266128877Y-103400000D01*
X164952585Y-102000000D02*
X165942480Y-102000000D01*
X237356822Y-103400000D02*
X237356822Y-103975000D01*
X350200000Y-108525000D02*
X350200000Y-109466666D01*
X116447775Y-102000000D02*
X117437669Y-102000000D01*
X148124386Y-102000000D02*
X149114280Y-102000000D01*
X132286080Y-102000000D02*
X133275974Y-102000000D01*
X99192545Y-108540465D02*
X100078854Y-108619112D01*
X326843316Y-103400000D02*
X326843316Y-103975000D01*
X319306683Y-102000000D02*
X319306683Y-101425000D01*
X176115163Y-105240000D02*
X175551780Y-105354999D01*
X283987395Y-103400000D02*
X284979535Y-103400000D01*
X143174915Y-102000000D02*
X144164809Y-102000000D01*
X251246780Y-103400000D02*
X252238919Y-103400000D01*
X350200000Y-111350000D02*
X350200000Y-112291666D01*
X316480446Y-102000000D02*
X317422525Y-102000000D01*
X346288367Y-102000000D02*
X346500000Y-102000000D01*
X115457881Y-102000000D02*
X116447775Y-102000000D01*
X150104174Y-103400000D02*
X151094068Y-103400000D01*
X348800000Y-107583333D02*
X348800000Y-108525000D01*
X134265869Y-103400000D02*
X135255763Y-103400000D01*
X194217959Y-103400000D02*
X195153877Y-103400000D01*
X144164809Y-102000000D02*
X145154704Y-102000000D01*
X223466864Y-103400000D02*
X224459004Y-103400000D01*
X321190841Y-103400000D02*
X321190841Y-103975000D01*
X179804599Y-107959722D02*
X180058054Y-107443596D01*
X282003115Y-102000000D02*
X282995255Y-102000000D01*
X145154704Y-103400000D02*
X146144598Y-103400000D01*
X241325381Y-102000000D02*
X242317521Y-102000000D01*
X208841418Y-110092280D02*
X209727727Y-110170928D01*
X205380153Y-108831408D02*
X213356930Y-109539236D01*
X235372542Y-102000000D02*
X236364682Y-102000000D01*
X149114280Y-103400000D02*
X150104174Y-103400000D01*
X79500000Y-102000000D02*
X79500000Y-101425000D01*
X160003115Y-103400000D02*
X160993009Y-103400000D01*
X156043539Y-102000000D02*
X157033433Y-102000000D01*
X155053645Y-102000000D02*
X156043539Y-102000000D01*
X171881844Y-102000000D02*
X171881844Y-101425000D01*
X212510397Y-109012350D02*
X213396705Y-109090997D01*
X295893073Y-103400000D02*
X296885213Y-103400000D01*
X281010975Y-103400000D02*
X282003115Y-103400000D01*
X95534526Y-109330452D02*
X95305992Y-109858085D01*
X151094068Y-103400000D02*
X152083962Y-103400000D01*
X172871738Y-102000000D02*
X173861632Y-102000000D01*
X157033433Y-103400000D02*
X158023327Y-103400000D01*
X328727474Y-102000000D02*
X329669553Y-102000000D01*
X170891950Y-103400000D02*
X171881844Y-103400000D01*
X165942480Y-103400000D02*
X166932374Y-103400000D01*
X286963814Y-103400000D02*
X287955954Y-103400000D01*
X128326504Y-103400000D02*
X129316398Y-103400000D01*
X84255287Y-103400000D02*
X85206345Y-103400000D01*
X142185021Y-102000000D02*
X142185021Y-101425000D01*
X324959158Y-102000000D02*
X324959158Y-101425000D01*
X150104174Y-102000000D02*
X151094068Y-102000000D01*
X138225445Y-103400000D02*
X139215339Y-103400000D01*
X192346122Y-103400000D02*
X193282040Y-103400000D01*
X262160318Y-103400000D02*
X263152458Y-103400000D01*
X111498304Y-102000000D02*
X112488198Y-102000000D01*
X348800000Y-105700000D02*
X348800000Y-106641666D01*
X260176038Y-103400000D02*
X261168178Y-103400000D01*
X153073856Y-102000000D02*
X154063750Y-102000000D01*
X297877353Y-103400000D02*
X297877353Y-103975000D01*
X265136738Y-102000000D02*
X266128877Y-102000000D01*
X350200000Y-105700000D02*
X350200000Y-106641666D01*
X272081716Y-102000000D02*
X273073856Y-102000000D01*
X271089577Y-102000000D02*
X272081716Y-102000000D01*
X142185021Y-102000000D02*
X143174915Y-102000000D01*
X254223199Y-102000000D02*
X255215339Y-102000000D01*
X207955109Y-110013633D02*
X208841418Y-110092280D01*
X129316398Y-103400000D02*
X130306292Y-103400000D01*
X100965162Y-108697760D02*
X101851471Y-108776407D01*
X146144598Y-103400000D02*
X146144598Y-103975000D01*
X267121017Y-103400000D02*
X268113157Y-103400000D01*
X83304230Y-102000000D02*
X84255287Y-102000000D01*
X219498304Y-102000000D02*
X220490444Y-102000000D01*
X196089796Y-102000000D02*
X197025714Y-102000000D01*
X135255763Y-103400000D02*
X136245657Y-103400000D01*
X87108460Y-102000000D02*
X88059517Y-102000000D01*
X291924514Y-103400000D02*
X291924514Y-103975000D01*
X253231059Y-102000000D02*
X254223199Y-102000000D01*
X92889503Y-103437794D02*
X93344510Y-103086235D01*
X348800000Y-108525000D02*
X348800000Y-109466666D01*
X165942480Y-102000000D02*
X166932374Y-102000000D01*
X207068801Y-109934985D02*
X207955109Y-110013633D01*
X139215339Y-102000000D02*
X140205233Y-102000000D01*
X82353172Y-103400000D02*
X83304230Y-103400000D01*
X85206345Y-102000000D02*
X86157402Y-102000000D01*
X268113157Y-103400000D02*
X268113157Y-103975000D01*
X324017079Y-102000000D02*
X324959158Y-102000000D01*
X219498304Y-102450000D02*
X299861632Y-102450000D01*
X236364682Y-103400000D02*
X237356822Y-103400000D01*
X205419928Y-108383170D02*
X206306236Y-108461817D01*
X80451057Y-103400000D02*
X80451057Y-103975000D01*
X256207479Y-102000000D02*
X256207479Y-101425000D01*
X191410203Y-102000000D02*
X192346122Y-102000000D01*
X256207479Y-103400000D02*
X257199619Y-103400000D01*
X262160318Y-103400000D02*
X262160318Y-103975000D01*
X274065996Y-102000000D02*
X274065996Y-101425000D01*
X293908793Y-103400000D02*
X294900933Y-103400000D01*
X295893073Y-102000000D02*
X296885213Y-102000000D01*
X322132920Y-103400000D02*
X323075000Y-103400000D01*
X214243756Y-110443566D02*
X214343799Y-111009796D01*
X165942480Y-103400000D02*
X165942480Y-103975000D01*
X230411843Y-103400000D02*
X231403983Y-103400000D01*
X323075000Y-103400000D02*
X324017079Y-103400000D01*
X246286080Y-102000000D02*
X247278220Y-102000000D01*
X160003115Y-102000000D02*
X160003115Y-101425000D01*
X291924514Y-102000000D02*
X292916653Y-102000000D01*
X325901237Y-102000000D02*
X326843316Y-102000000D01*
X257199619Y-102000000D02*
X258191759Y-102000000D01*
X270097437Y-103400000D02*
X271089577Y-103400000D01*
X98306236Y-108461817D02*
X99192545Y-108540465D01*
X112488198Y-102000000D02*
X113478093Y-102000000D01*
X278034556Y-102000000D02*
X279026695Y-102000000D01*
X316480446Y-103400000D02*
X317422525Y-103400000D01*
X220490444Y-102000000D02*
X221482584Y-102000000D01*
X122387139Y-103400000D02*
X123377033Y-103400000D01*
X102737780Y-108855055D02*
X103624088Y-108933702D01*
X293908793Y-102000000D02*
X294900933Y-102000000D01*
X327785395Y-102000000D02*
X328727474Y-102000000D01*
X311304996Y-108515201D02*
X311668658Y-108960594D01*
X135255763Y-102000000D02*
X136245657Y-102000000D01*
X256207479Y-102000000D02*
X257199619Y-102000000D01*
X168912162Y-102000000D02*
X169902056Y-102000000D01*
X133275974Y-103400000D02*
X134265869Y-103400000D01*
X236364682Y-102000000D02*
X237356822Y-102000000D01*
X189538367Y-103400000D02*
X190474285Y-103400000D01*
X315538367Y-103400000D02*
X315538367Y-103975000D01*
X153073856Y-103400000D02*
X154063750Y-103400000D01*
X322132920Y-102000000D02*
X323075000Y-102000000D01*
X185304996Y-108515201D02*
X185668658Y-108960594D01*
X320248762Y-102000000D02*
X321190841Y-102000000D01*
X151094068Y-102000000D02*
X152083962Y-102000000D01*
X166932374Y-103400000D02*
X167922268Y-103400000D01*
X239341101Y-102000000D02*
X240333241Y-102000000D01*
X201864734Y-105833114D02*
X202390961Y-105601360D01*
X211624088Y-108933702D02*
X212510397Y-109012350D01*
X248270360Y-103400000D02*
X249262500Y-103400000D01*
X190474285Y-103400000D02*
X191410203Y-103400000D01*
X282995255Y-102000000D02*
X283987395Y-102000000D01*
X100965162Y-108697760D02*
X101015986Y-108125010D01*
X257199619Y-103400000D02*
X258191759Y-103400000D01*
X238348962Y-102000000D02*
X239341101Y-102000000D01*
X160993009Y-103400000D02*
X161982903Y-103400000D01*
X129316398Y-102000000D02*
X130306292Y-102000000D01*
X187907441Y-102378843D02*
X187653986Y-101862717D01*
X259183898Y-103400000D02*
X260176038Y-103400000D01*
X252238919Y-102000000D02*
X253231059Y-102000000D01*
X348800000Y-110408333D02*
X348800000Y-111350000D01*
X348800000Y-111350000D02*
X348225000Y-111350000D01*
X243309661Y-102000000D02*
X244301801Y-102000000D01*
X290932374Y-102000000D02*
X291924514Y-102000000D01*
X117437669Y-102000000D02*
X118427563Y-102000000D01*
X165942480Y-102000000D02*
X165942480Y-101425000D01*
X350200000Y-109466666D02*
X350200000Y-110408333D01*
X267121017Y-102000000D02*
X268113157Y-102000000D01*
X88059517Y-103400000D02*
X88059517Y-103975000D01*
X229419703Y-103400000D02*
X230411843Y-103400000D01*
X118427563Y-102000000D02*
X118427563Y-101425000D01*
X270097437Y-102000000D02*
X271089577Y-102000000D01*
X225451143Y-103400000D02*
X226443283Y-103400000D01*
X254223199Y-103400000D02*
X255215339Y-103400000D01*
X287955954Y-102000000D02*
X288948094Y-102000000D01*
X87108460Y-103400000D02*
X88059517Y-103400000D01*
X280018835Y-103400000D02*
X280018835Y-103975000D01*
X86157402Y-103400000D02*
X87108460Y-103400000D01*
X215982775Y-104546288D02*
X215436442Y-104366994D01*
X141195127Y-102000000D02*
X142185021Y-102000000D01*
X288948094Y-102000000D02*
X289940234Y-102000000D01*
X261168178Y-102000000D02*
X262160318Y-102000000D01*
X81402115Y-103400000D02*
X82353172Y-103400000D01*
X274065996Y-103400000D02*
X275058136Y-103400000D01*
X285971674Y-102000000D02*
X285971674Y-101425000D01*
X97296184Y-109777690D02*
X98182492Y-109856338D01*
X127336610Y-103400000D02*
X128326504Y-103400000D01*
X264144598Y-103400000D02*
X265136738Y-103400000D01*
X313907441Y-102378843D02*
X313653986Y-101862717D01*
X148124386Y-103400000D02*
X149114280Y-103400000D01*
X116447775Y-103400000D02*
X117437669Y-103400000D01*
X136245657Y-102000000D02*
X136245657Y-101425000D01*
X348800000Y-105700000D02*
X348225000Y-105700000D01*
X286963814Y-102000000D02*
X287955954Y-102000000D01*
X193282040Y-102000000D02*
X193282040Y-101425000D01*
X268113157Y-102000000D02*
X268113157Y-101425000D01*
X277042416Y-103400000D02*
X278034556Y-103400000D01*
X302789503Y-103437794D02*
X303244510Y-103086235D01*
X106243756Y-110443566D02*
X106343799Y-111009796D01*
X126346716Y-102000000D02*
X127336610Y-102000000D01*
X296885213Y-102000000D02*
X297877353Y-102000000D01*
X207192545Y-108540465D02*
X208078854Y-108619112D01*
X208841418Y-110092280D02*
X208790594Y-110665030D01*
X297877353Y-102000000D02*
X298869492Y-102000000D01*
X350200000Y-110408333D02*
X350200000Y-111350000D01*
X200215163Y-105240000D02*
X199651780Y-105354999D01*
X192346122Y-102000000D02*
X193282040Y-102000000D01*
X170891950Y-102000000D02*
X171881844Y-102000000D01*
X145154704Y-102000000D02*
X146144598Y-102000000D01*
X120407351Y-102000000D02*
X121397245Y-102000000D01*
X253231059Y-103400000D02*
X254223199Y-103400000D01*
X226443283Y-103400000D02*
X227435423Y-103400000D01*
X346288367Y-102450000D02*
X346500000Y-102450000D01*
X245293940Y-103400000D02*
X246286080Y-103400000D01*
X114467987Y-102000000D02*
X115457881Y-102000000D01*
X97380153Y-108831408D02*
X105356930Y-109539236D01*
X244301801Y-102000000D02*
X244301801Y-101425000D01*
X195153877Y-102000000D02*
X196089796Y-102000000D01*
X84255287Y-102000000D02*
X85206345Y-102000000D01*
X137235551Y-103400000D02*
X138225445Y-103400000D01*
X205296184Y-109777690D02*
X206182492Y-109856338D01*
X82353172Y-102000000D02*
X83304230Y-102000000D01*
X99955109Y-110013633D02*
X100841418Y-110092280D01*
X294900933Y-103400000D02*
X295893073Y-103400000D01*
X227435423Y-103400000D02*
X228427563Y-103400000D01*
X207192545Y-108540465D02*
X207243369Y-107967715D01*
X341169558Y-107430765D02*
X340805896Y-106985372D01*
X132286080Y-103400000D02*
X133275974Y-103400000D01*
X277042416Y-102000000D02*
X278034556Y-102000000D01*
X100078854Y-108619112D02*
X100965162Y-108697760D01*
X146144598Y-102000000D02*
X147134492Y-102000000D01*
X103500344Y-110328223D02*
X104386652Y-110406870D01*
X167922268Y-103400000D02*
X168912162Y-103400000D01*
X320248762Y-103400000D02*
X321190841Y-103400000D01*
X154063750Y-102000000D02*
X154063750Y-101425000D01*
X247278220Y-103400000D02*
X248270360Y-103400000D01*
X284979535Y-102000000D02*
X285971674Y-102000000D01*
X330611632Y-102000000D02*
X330611632Y-101425000D01*
X208078854Y-108619112D02*
X208965162Y-108697760D01*
X86157402Y-102000000D02*
X87108460Y-102000000D01*
X233388262Y-103400000D02*
X234380402Y-103400000D01*
X147134492Y-102000000D02*
X148124386Y-102000000D01*
X158023327Y-102000000D02*
X159013221Y-102000000D01*
X118427563Y-102000000D02*
X119417457Y-102000000D01*
X99068801Y-109934985D02*
X99955109Y-110013633D01*
X318364604Y-103400000D02*
X319306683Y-103400000D01*
X223466864Y-102000000D02*
X224459004Y-102000000D01*
X171881844Y-103400000D02*
X171881844Y-103975000D01*
X117437669Y-103400000D02*
X118427563Y-103400000D01*
X119417457Y-102000000D02*
X120407351Y-102000000D01*
X228427563Y-103400000D02*
X228427563Y-103975000D01*
X212386652Y-110406870D02*
X213272961Y-110485518D01*
X305804599Y-107959722D02*
X306058054Y-107443596D01*
X197025714Y-102000000D02*
X197961632Y-102000000D01*
X104510397Y-109012350D02*
X105396705Y-109090997D01*
X161982903Y-102000000D02*
X162972797Y-102000000D01*
X243309661Y-103400000D02*
X244301801Y-103400000D01*
X97419928Y-108383170D02*
X98306236Y-108461817D01*
X311102660Y-106729049D02*
X310647653Y-106377490D01*
X229419703Y-102000000D02*
X230411843Y-102000000D01*
X123377033Y-103400000D02*
X124366928Y-103400000D01*
X321190841Y-103400000D02*
X322132920Y-103400000D01*
X152083962Y-103400000D02*
X153073856Y-103400000D01*
X169902056Y-103400000D02*
X170891950Y-103400000D01*
X324959158Y-102000000D02*
X325901237Y-102000000D01*
X350200000Y-112291666D02*
X350200000Y-113233333D01*
X81402115Y-102000000D02*
X82353172Y-102000000D01*
X239341101Y-103400000D02*
X240333241Y-103400000D01*
X171881844Y-102000000D02*
X172871738Y-102000000D01*
X274065996Y-103400000D02*
X274065996Y-103975000D01*
X154063750Y-103400000D02*
X155053645Y-103400000D01*
X252238919Y-103400000D02*
X253231059Y-103400000D01*
X261168178Y-103400000D02*
X262160318Y-103400000D01*
X138225445Y-102000000D02*
X139215339Y-102000000D01*
X160993009Y-102000000D02*
X161982903Y-102000000D01*
X350200000Y-114175000D02*
X350775000Y-114175000D01*
X321190841Y-102000000D02*
X322132920Y-102000000D01*
X269105297Y-102000000D02*
X270097437Y-102000000D01*
X282003115Y-103400000D02*
X282995255Y-103400000D01*
X231403983Y-102000000D02*
X232396122Y-102000000D01*
X268113157Y-102000000D02*
X269105297Y-102000000D01*
X130306292Y-102000000D02*
X131296186Y-102000000D01*
X282995255Y-103400000D02*
X283987395Y-103400000D01*
X189538367Y-102450000D02*
X197961632Y-102450000D01*
X283987395Y-102000000D02*
X284979535Y-102000000D01*
X189538367Y-103400000D02*
X189538367Y-103975000D01*
X154063750Y-103400000D02*
X154063750Y-103975000D01*
X114467987Y-103400000D02*
X114467987Y-103975000D01*
X126346716Y-103400000D02*
X127336610Y-103400000D01*
X262160318Y-102000000D02*
X263152458Y-102000000D01*
X140205233Y-103400000D02*
X140205233Y-103975000D01*
X169902056Y-102000000D02*
X170891950Y-102000000D01*
X276050276Y-103400000D02*
X277042416Y-103400000D01*
X269105297Y-103400000D02*
X270097437Y-103400000D01*
X162972797Y-103400000D02*
X163962691Y-103400000D01*
X274065996Y-102000000D02*
X275058136Y-102000000D01*
X157033433Y-102000000D02*
X158023327Y-102000000D01*
X289940234Y-103400000D02*
X290932374Y-103400000D01*
X140205233Y-103400000D02*
X141195127Y-103400000D01*
X79500000Y-102450000D02*
X89961632Y-102450000D01*
X152083962Y-102000000D02*
X153073856Y-102000000D01*
X100841418Y-110092280D02*
X101727727Y-110170928D01*
X185102660Y-106729049D02*
X184647653Y-106377490D01*
X137235551Y-102000000D02*
X138225445Y-102000000D01*
X222474724Y-103400000D02*
X222474724Y-103975000D01*
X88059517Y-102000000D02*
X88059517Y-101425000D01*
X292916653Y-103400000D02*
X293908793Y-103400000D01*
X244301801Y-102000000D02*
X245293940Y-102000000D01*
X334540726Y-105890971D02*
X335063478Y-105651481D01*
X297877353Y-102000000D02*
X297877353Y-101425000D01*
X349750000Y-117000000D02*
X349750000Y-117700000D01*
X234380402Y-103400000D02*
X235372542Y-103400000D01*
X348800000Y-109466666D02*
X348800000Y-110408333D01*
X350200000Y-107583333D02*
X350200000Y-108525000D01*
X266128877Y-102000000D02*
X267121017Y-102000000D01*
X127336610Y-102000000D02*
X128326504Y-102000000D01*
X113478093Y-102000000D02*
X114467987Y-102000000D01*
X101851471Y-108776407D02*
X102737780Y-108855055D01*
X125356822Y-102000000D02*
X126346716Y-102000000D01*
X317422525Y-102000000D02*
X318364604Y-102000000D01*
X240333241Y-102000000D02*
X241325381Y-102000000D01*
X118427563Y-103400000D02*
X119417457Y-103400000D01*
X119417457Y-103400000D02*
X120407351Y-103400000D01*
X242317521Y-102000000D02*
X243309661Y-102000000D01*
X232396122Y-103400000D02*
X233388262Y-103400000D01*
X164952585Y-103400000D02*
X165942480Y-103400000D01*
X124366928Y-102000000D02*
X125356822Y-102000000D01*
X125356822Y-103400000D02*
X126346716Y-103400000D01*
X209851471Y-108776407D02*
X210737780Y-108855055D01*
X179786449Y-109469201D02*
X179593415Y-110010831D01*
X83304230Y-103400000D02*
X84255287Y-103400000D01*
X279026695Y-102000000D02*
X280018835Y-102000000D01*
X315538367Y-103400000D02*
X316480446Y-103400000D01*
X155053645Y-103400000D02*
X156043539Y-103400000D01*
X227435423Y-102000000D02*
X228427563Y-102000000D01*
X211500344Y-110328223D02*
X212386652Y-110406870D01*
X102614035Y-110249575D02*
X103500344Y-110328223D01*
X206306236Y-108461817D02*
X207192545Y-108540465D01*
X281010975Y-102000000D02*
X282003115Y-102000000D01*
X104386652Y-110406870D02*
X105272961Y-110485518D01*
X209727727Y-110170928D02*
X210614035Y-110249575D01*
X280018835Y-102000000D02*
X281010975Y-102000000D01*
X160003115Y-102000000D02*
X160993009Y-102000000D01*
X318364604Y-102000000D02*
X319306683Y-102000000D01*
X319306683Y-103400000D02*
X320248762Y-103400000D01*
X121397245Y-102000000D02*
X122387139Y-102000000D01*
X167922268Y-102000000D02*
X168912162Y-102000000D01*
X296885213Y-103400000D02*
X297877353Y-103400000D01*
X264144598Y-102000000D02*
X265136738Y-102000000D01*
X225451143Y-102000000D02*
X226443283Y-102000000D01*
X162972797Y-102000000D02*
X163962691Y-102000000D01*
X160003115Y-103400000D02*
X160003115Y-103975000D01*
X72880000Y-102450000D02*
X72880000Y-104400000D01*
X260176038Y-102000000D02*
X261168178Y-102000000D01*
X122387139Y-102000000D02*
X123377033Y-102000000D01*
X154063750Y-102000000D02*
X155053645Y-102000000D01*
X149114280Y-102000000D02*
X150104174Y-102000000D01*
X193282040Y-103400000D02*
X194217959Y-103400000D01*
X258191759Y-103400000D02*
X259183898Y-103400000D01*
X126346716Y-103400000D02*
X126346716Y-103975000D01*
X302115163Y-105240000D02*
X301551780Y-105354999D01*
X79500000Y-102450000D02*
X72880000Y-102450000D01*
X115457881Y-103400000D02*
X116447775Y-103400000D01*
X124366928Y-103400000D02*
X125356822Y-103400000D01*
X194217959Y-102000000D02*
X195153877Y-102000000D01*
X290932374Y-103400000D02*
X291924514Y-103400000D01*
X237356822Y-102000000D02*
X238348962Y-102000000D01*
X349750000Y-105700000D02*
X349750000Y-117000000D01*
X268113157Y-103400000D02*
X269105297Y-103400000D01*
X161982903Y-103400000D02*
X162972797Y-103400000D01*
X107982775Y-104546288D02*
X107436442Y-104366994D01*
X136245657Y-102000000D02*
X137235551Y-102000000D01*
X238348962Y-103400000D02*
X239341101Y-103400000D01*
X222474724Y-102000000D02*
X223466864Y-102000000D01*
X232396122Y-102000000D02*
X232396122Y-101425000D01*
X95680295Y-107841236D02*
X95963744Y-107340955D01*
X266128877Y-103400000D02*
X267121017Y-103400000D01*
X208965162Y-108697760D02*
X209851471Y-108776407D01*
X146144598Y-103400000D02*
X147134492Y-103400000D01*
X147134492Y-103400000D02*
X148124386Y-103400000D01*
X234380402Y-102000000D02*
X235372542Y-102000000D01*
X325901237Y-103400000D02*
X326843316Y-103400000D01*
X315538367Y-102450000D02*
X330611632Y-102450000D01*
X114467987Y-103400000D02*
X115457881Y-103400000D01*
X134265869Y-103400000D02*
X134265869Y-103975000D01*
X166932374Y-102000000D02*
X167922268Y-102000000D01*
X193282040Y-102000000D02*
X194217959Y-102000000D01*
X226443283Y-102000000D02*
X226443283Y-101425000D01*
X228427563Y-102000000D02*
X229419703Y-102000000D01*
X142185021Y-103400000D02*
X143174915Y-103400000D01*
X224459004Y-102000000D02*
X225451143Y-102000000D01*
X285971674Y-102000000D02*
X286963814Y-102000000D01*
X276050276Y-102000000D02*
X277042416Y-102000000D01*
X168912162Y-103400000D02*
X169902056Y-103400000D01*
X291924514Y-103400000D02*
X292916653Y-103400000D01*
X210737780Y-108855055D02*
X211624088Y-108933702D01*
X285971674Y-103400000D02*
X286963814Y-103400000D01*
X287955954Y-103400000D02*
X288948094Y-103400000D01*
X231403983Y-103400000D02*
X232396122Y-103400000D01*
X285971674Y-103400000D02*
X285971674Y-103975000D01*
X279026695Y-103400000D02*
X280018835Y-103400000D01*
X289940234Y-102000000D02*
X290932374Y-102000000D01*
X343948281Y-102833992D02*
X343584619Y-102388599D01*
X250254640Y-102000000D02*
X251246780Y-102000000D01*
X258191759Y-102000000D02*
X259183898Y-102000000D01*
X284979535Y-103400000D02*
X285971674Y-103400000D01*
X80451057Y-103400000D02*
X81402115Y-103400000D01*
X176789503Y-103437794D02*
X177244510Y-103086235D01*
X292916653Y-102000000D02*
X293908793Y-102000000D01*
X271089577Y-103400000D02*
X272081716Y-103400000D01*
X317422525Y-103400000D02*
X318364604Y-103400000D01*
X235372542Y-103400000D02*
X236364682Y-103400000D01*
X103624088Y-108933702D02*
X104510397Y-109012350D01*
X305786449Y-109469201D02*
X305593415Y-110010831D01*
X247278220Y-102000000D02*
X248270360Y-102000000D01*
X141195127Y-103400000D02*
X142185021Y-103400000D01*
X107557076Y-108008242D02*
G75*
G03*
X107861023Y-107221628I-1957076J1208242D01*
G01*
X179786449Y-109469201D02*
G75*
G03*
X180729034Y-109716687I1913551J5369301D01*
G01*
X202935758Y-107307197D02*
G75*
G03*
X203680297Y-107841232I2864142J3207097D01*
G01*
X94321271Y-106627537D02*
G75*
G03*
X94935757Y-107307198I3478629J2527437D01*
G01*
X177395584Y-107836577D02*
G75*
G03*
X178095003Y-108515201I4304416J3736577D01*
G01*
X178980441Y-107430765D02*
G75*
G03*
X179804599Y-107959722I2719559J3330765D01*
G01*
X312174573Y-104158931D02*
G75*
G02*
X312610502Y-103437799I3363727J-1541069D01*
G01*
X177045969Y-105050000D02*
G75*
G03*
X186354031Y-105050000I4654031J950000D01*
G01*
X107861016Y-106378333D02*
G75*
G02*
X107806448Y-105454638I3637284J678333D01*
G01*
X184500200Y-109064763D02*
G75*
G03*
X185305002Y-108515208I-2800200J4964863D01*
G01*
X218580261Y-102115701D02*
G75*
G02*
X219498304Y-102000001I918039J-3584299D01*
G01*
X308670966Y-109716691D02*
G75*
G03*
X309613551Y-109469205I-970966J5616791D01*
G01*
X348350000Y-102495706D02*
G75*
G02*
X349116295Y-103083704I-1850000J-3204294D01*
G01*
X197961632Y-102450000D02*
G75*
G02*
X201145938Y-105050006I-32J-3250000D01*
G01*
X302115163Y-105240000D02*
G75*
G03*
X302390986Y-106174685I5584737J1140000D01*
G01*
X180729033Y-109716691D02*
G75*
G03*
X181700000Y-109799998I970967J5616791D01*
G01*
X202729596Y-108902355D02*
G75*
G03*
X203534529Y-109330445I3070404J4802455D01*
G01*
X200301718Y-102833992D02*
G75*
G02*
X200889499Y-103437797I-2340118J-2866008D01*
G01*
X90798806Y-102095955D02*
G75*
G02*
X91592561Y-102378837I-837106J-3603945D01*
G01*
X343104030Y-105049999D02*
G75*
G02*
X346288367Y-102449967I3184370J-650001D01*
G01*
X173861632Y-102450000D02*
G75*
G02*
X177045938Y-105050006I-32J-3250000D01*
G01*
X349116295Y-103083704D02*
G75*
G02*
X349704294Y-103849999I-2616295J-2616296D01*
G01*
X337477067Y-108288484D02*
G75*
G03*
X338450000Y-108400002I972933J4188384D01*
G01*
X334236877Y-104960000D02*
G75*
G03*
X334540725Y-105890971I4213123J860000D01*
G01*
X106236128Y-109010280D02*
G75*
G03*
X106990035Y-108632430I-636128J2210280D01*
G01*
X302390982Y-106174687D02*
G75*
G03*
X302821995Y-107048725I5308918J2074687D01*
G01*
X214990035Y-108632430D02*
G75*
G03*
X215557076Y-108008242I-1390035J1832430D01*
G01*
X94935758Y-107307197D02*
G75*
G03*
X95680297Y-107841232I2864142J3207097D01*
G01*
X186354030Y-105050000D02*
G75*
G02*
X189538367Y-102449967I3184370J-650000D01*
G01*
X92301718Y-102833992D02*
G75*
G02*
X92889499Y-103437797I-2340118J-2866008D01*
G01*
X178095003Y-108515201D02*
G75*
G03*
X178899803Y-109064755I3604997J4415301D01*
G01*
X89961632Y-102450000D02*
G75*
G02*
X93145938Y-105050006I-32J-3250000D01*
G01*
X89961632Y-102000000D02*
G75*
G02*
X90798804Y-102095962I-32J-3700000D01*
G01*
X332951718Y-102833992D02*
G75*
G02*
X333539499Y-103437797I-2340118J-2866008D01*
G01*
X342359273Y-105890971D02*
G75*
G03*
X342663121Y-104960000I-3909273J1790971D01*
G01*
X109719633Y-102455569D02*
G75*
G02*
X110580263Y-102115711I1778667J-3244531D01*
G01*
X95680295Y-107841236D02*
G75*
G03*
X96521077Y-108205405I2119705J3741236D01*
G01*
X350073925Y-104742369D02*
G75*
G02*
X350199996Y-105700000I-3574025J-957631D01*
G01*
X304095003Y-108515201D02*
G75*
G03*
X304899803Y-109064755I3604997J4415301D01*
G01*
X201864734Y-105833114D02*
G75*
G03*
X202321271Y-106627537I3935266J1733114D01*
G01*
X341169558Y-107430765D02*
G75*
G03*
X341852660Y-106729049I-2719558J3330765D01*
G01*
X200889503Y-103437794D02*
G75*
G02*
X201325433Y-104158928I-2927803J-2262206D01*
G01*
X307700000Y-109800000D02*
G75*
G03*
X308670966Y-109716693I0J5700100D01*
G01*
X92889503Y-103437794D02*
G75*
G02*
X93325433Y-104158928I-2927803J-2262206D01*
G01*
X340345400Y-107959722D02*
G75*
G03*
X341169558Y-107430765I-1895400J3859722D01*
G01*
X306729033Y-109716691D02*
G75*
G03*
X307700000Y-109799998I970967J5616791D01*
G01*
X302789503Y-103437794D02*
G75*
G02*
X303225433Y-104158928I-2927803J-2262206D01*
G01*
X215861016Y-106378333D02*
G75*
G02*
X215806448Y-105454638I3637284J678333D01*
G01*
X312610496Y-103437794D02*
G75*
G02*
X313198278Y-102833988I2927904J-2262206D01*
G01*
X338450000Y-108399999D02*
G75*
G03*
X339422931Y-108288481I0J4299899D01*
G01*
X199592558Y-102378843D02*
G75*
G02*
X200301714Y-102833997I-1630958J-3321157D01*
G01*
X216378966Y-103710092D02*
G75*
G02*
X216970246Y-102998348I3119334J-1989908D01*
G01*
X301492558Y-102378843D02*
G75*
G02*
X302201714Y-102833997I-1630958J-3321157D01*
G01*
X215861024Y-107221628D02*
G75*
G03*
X215861017Y-106378333I-2261024J421628D01*
G01*
X174698806Y-102095955D02*
G75*
G02*
X175492561Y-102378837I-837106J-3603945D01*
G01*
X304297339Y-106729049D02*
G75*
G03*
X304980441Y-107430765I3402661J2629049D01*
G01*
X177790726Y-105890971D02*
G75*
G03*
X178297348Y-106729042I3909174J1790971D01*
G01*
X93864734Y-105833114D02*
G75*
G03*
X94321271Y-106627537I3935266J1733114D01*
G01*
X311913122Y-104959999D02*
G75*
G02*
X312174577Y-104158933I3625178J-740001D01*
G01*
X300698806Y-102095955D02*
G75*
G02*
X301492561Y-102378837I-837106J-3603945D01*
G01*
X204397414Y-109624740D02*
G75*
G03*
X205296184Y-109777690I1402586J5524740D01*
G01*
X313198281Y-102833992D02*
G75*
G02*
X313907438Y-102378837I2340119J-2866008D01*
G01*
X302201718Y-102833992D02*
G75*
G02*
X302789499Y-103437797I-2340118J-2866008D01*
G01*
X333795969Y-105050000D02*
G75*
G03*
X343104031Y-105050000I4654031J950000D01*
G01*
X203534526Y-109330452D02*
G75*
G03*
X204397413Y-109624745I2265574J5230652D01*
G01*
X180727067Y-108288484D02*
G75*
G03*
X181700000Y-108400002I972933J4188384D01*
G01*
X107982775Y-104546288D02*
G75*
G02*
X108378967Y-103710093I3515525J-1153712D01*
G01*
X187907441Y-102378843D02*
G75*
G02*
X188701194Y-102095961I1630859J-3321057D01*
G01*
X303790726Y-105890971D02*
G75*
G03*
X304297348Y-106729042I3909174J1790971D01*
G01*
X310419558Y-107430765D02*
G75*
G03*
X311102660Y-106729049I-2719558J3330765D01*
G01*
X105396705Y-109090997D02*
G75*
G03*
X106236128Y-109010280I203295J2290997D01*
G01*
X309595400Y-107959722D02*
G75*
G03*
X310419558Y-107430765I-1895400J3859722D01*
G01*
X183613550Y-109469201D02*
G75*
G03*
X184500200Y-109064763I-1913550J5369201D01*
G01*
X185102660Y-106729049D02*
G75*
G03*
X185609284Y-105890976I-3402560J2629049D01*
G01*
X303486877Y-104960000D02*
G75*
G03*
X303790725Y-105890971I4213123J860000D01*
G01*
X201373964Y-107691686D02*
G75*
G03*
X202003214Y-108351401I4426136J3591786D01*
G01*
X215982775Y-104546288D02*
G75*
G02*
X216378967Y-103710093I3515525J-1153712D01*
G01*
X305786449Y-109469201D02*
G75*
G03*
X306729034Y-109716687I1913551J5369301D01*
G01*
X309613550Y-109469201D02*
G75*
G03*
X310500200Y-109064763I-1913550J5369201D01*
G01*
X336554599Y-107959722D02*
G75*
G03*
X337477067Y-108288484I1895401J3859722D01*
G01*
X107861024Y-107221628D02*
G75*
G03*
X107861017Y-106378333I-2261024J421628D01*
G01*
X303395584Y-107836577D02*
G75*
G03*
X304095003Y-108515201I4304416J3736577D01*
G01*
X173861632Y-102000000D02*
G75*
G02*
X174698804Y-102095962I-32J-3700000D01*
G01*
X202321271Y-106627537D02*
G75*
G03*
X202935757Y-107307198I3478629J2527437D01*
G01*
X186174573Y-104158931D02*
G75*
G02*
X186610502Y-103437799I3363727J-1541069D01*
G01*
X343948281Y-102833992D02*
G75*
G02*
X344657438Y-102378837I2340119J-2866008D01*
G01*
X213356930Y-109539236D02*
G75*
G03*
X216303389Y-106295833I243070J2739236D01*
G01*
X198798806Y-102095955D02*
G75*
G02*
X199592561Y-102378837I-837106J-3603945D01*
G01*
X188701193Y-102095955D02*
G75*
G02*
X189538367Y-101999992I837207J-3604045D01*
G01*
X176789503Y-103437794D02*
G75*
G02*
X177225433Y-104158928I-2927803J-2262206D01*
G01*
X107806449Y-105454638D02*
G75*
G02*
X107982775Y-104546288I3691851J-245362D01*
G01*
X96397414Y-109624740D02*
G75*
G03*
X97296184Y-109777690I1402586J5524740D01*
G01*
X342924573Y-104158931D02*
G75*
G02*
X343360502Y-103437799I3363727J-1541069D01*
G01*
X175492558Y-102378843D02*
G75*
G02*
X176201714Y-102833997I-1630958J-3321157D01*
G01*
X303045969Y-105050000D02*
G75*
G03*
X312354031Y-105050000I4654031J950000D01*
G01*
X176390982Y-106174687D02*
G75*
G03*
X176821995Y-107048725I5308918J2074687D01*
G01*
X186610496Y-103437794D02*
G75*
G02*
X187198278Y-102833988I2927904J-2262206D01*
G01*
X311609273Y-105890971D02*
G75*
G03*
X311913121Y-104960000I-3909273J1790971D01*
G01*
X176821988Y-107048729D02*
G75*
G03*
X177395584Y-107836577I4878012J2948729D01*
G01*
X311102660Y-106729049D02*
G75*
G03*
X311609284Y-105890976I-3402560J2629049D01*
G01*
X108378966Y-103710092D02*
G75*
G02*
X108970246Y-102998348I3119334J-1989908D01*
G01*
X108303389Y-106295833D02*
G75*
G02*
X111498304Y-102450004I3194911J595833D01*
G01*
X181700000Y-108399999D02*
G75*
G03*
X182672931Y-108288481I0J4299899D01*
G01*
X217719633Y-102455569D02*
G75*
G02*
X218580263Y-102115711I1778667J-3244531D01*
G01*
X347457630Y-102126074D02*
G75*
G02*
X348350000Y-102495706I-957630J-3573926D01*
G01*
X176115163Y-105240000D02*
G75*
G03*
X176390986Y-106174685I5584737J1140000D01*
G01*
X96521077Y-108205405D02*
G75*
G03*
X97419928Y-108383169I1278923J4105405D01*
G01*
X346500000Y-102450000D02*
G75*
G02*
X349750000Y-105700000I0J-3250000D01*
G01*
X177486877Y-104960000D02*
G75*
G03*
X177790725Y-105890971I4213123J860000D01*
G01*
X201145969Y-105050000D02*
G75*
G03*
X205380153Y-108831409I4654031J950000D01*
G01*
X202003214Y-108351401D02*
G75*
G03*
X202729596Y-108902355I3796786J4251401D01*
G01*
X345451193Y-102095955D02*
G75*
G02*
X346288367Y-101999992I837207J-3604045D01*
G01*
X314701193Y-102095955D02*
G75*
G02*
X315538367Y-101999992I837207J-3604045D01*
G01*
X332242558Y-102378843D02*
G75*
G02*
X332951714Y-102833997I-1630958J-3321157D01*
G01*
X330611632Y-102450000D02*
G75*
G02*
X333795938Y-105050005I-32J-3250000D01*
G01*
X200857944Y-106940085D02*
G75*
G03*
X201373964Y-107691686I4942056J2840085D01*
G01*
X343360496Y-103437794D02*
G75*
G02*
X343948278Y-102833988I2927904J-2262206D01*
G01*
X95534526Y-109330452D02*
G75*
G03*
X96397413Y-109624745I2265574J5230652D01*
G01*
X182672932Y-108288484D02*
G75*
G03*
X183595400Y-107959722I-972932J4188484D01*
G01*
X92215163Y-105240000D02*
G75*
G03*
X92468359Y-106115826I5584737J1140000D01*
G01*
X176201718Y-102833992D02*
G75*
G02*
X176789499Y-103437797I-2340118J-2866008D01*
G01*
X204521077Y-108205405D02*
G75*
G03*
X205419928Y-108383169I1278923J4105405D01*
G01*
X335047339Y-106729049D02*
G75*
G03*
X335730441Y-107430765I3402661J2629049D01*
G01*
X179804599Y-107959722D02*
G75*
G03*
X180727067Y-108288484I1895401J3859722D01*
G01*
X344657441Y-102378843D02*
G75*
G02*
X345451194Y-102095961I1630859J-3321057D01*
G01*
X105356930Y-109539236D02*
G75*
G03*
X108303389Y-106295833I243070J2739236D01*
G01*
X312354030Y-105049999D02*
G75*
G02*
X315538367Y-102449967I3184370J-650001D01*
G01*
X197961632Y-102000000D02*
G75*
G02*
X198798804Y-102095962I-32J-3700000D01*
G01*
X200215163Y-105240000D02*
G75*
G03*
X200468359Y-106115826I5584737J1140000D01*
G01*
X93586877Y-104960000D02*
G75*
G03*
X93864740Y-105833112I4213023J860000D01*
G01*
X302821988Y-107048729D02*
G75*
G03*
X303395584Y-107836577I4878012J2948729D01*
G01*
X299861632Y-102450000D02*
G75*
G02*
X303045938Y-105050005I-32J-3250000D01*
G01*
X110580261Y-102115701D02*
G75*
G02*
X111498304Y-102000001I918039J-3584299D01*
G01*
X304899799Y-109064763D02*
G75*
G03*
X305786449Y-109469201I2800201J4964763D01*
G01*
X346500000Y-102000000D02*
G75*
G02*
X347457630Y-102126074I0J-3700000D01*
G01*
X187198281Y-102833992D02*
G75*
G02*
X187907438Y-102378837I2340119J-2866008D01*
G01*
X108970246Y-102998348D02*
G75*
G02*
X109719634Y-102455570I2528054J-2701652D01*
G01*
X331448806Y-102095955D02*
G75*
G02*
X332242561Y-102378837I-837106J-3603945D01*
G01*
X93325426Y-104158931D02*
G75*
G02*
X93586882Y-104959999I-3363726J-1541069D01*
G01*
X184419558Y-107430765D02*
G75*
G03*
X185102660Y-106729049I-2719558J3330765D01*
G01*
X185609273Y-105890971D02*
G75*
G03*
X185913121Y-104960000I-3909273J1790971D01*
G01*
X305804599Y-107959722D02*
G75*
G03*
X306727067Y-108288484I1895401J3859722D01*
G01*
X93145969Y-105050000D02*
G75*
G03*
X97380153Y-108831409I4654031J950000D01*
G01*
X304980441Y-107430765D02*
G75*
G03*
X305804599Y-107959722I2719559J3330765D01*
G01*
X106990035Y-108632430D02*
G75*
G03*
X107557076Y-108008242I-1390035J1832430D01*
G01*
X185913122Y-104960000D02*
G75*
G02*
X186174578Y-104158933I3625178J-740000D01*
G01*
X200468355Y-106115827D02*
G75*
G03*
X200857944Y-106940085I5331445J2015727D01*
G01*
X92468355Y-106115827D02*
G75*
G03*
X92857944Y-106940085I5331445J2015727D01*
G01*
X178899799Y-109064763D02*
G75*
G03*
X179786449Y-109469201I2800201J4964763D01*
G01*
X201586877Y-104960000D02*
G75*
G03*
X201864740Y-105833112I4213023J860000D01*
G01*
X330611632Y-102000000D02*
G75*
G02*
X331448804Y-102095962I-32J-3700000D01*
G01*
X201325426Y-104158931D02*
G75*
G02*
X201586882Y-104959999I-3363726J-1541069D01*
G01*
X183595400Y-107959722D02*
G75*
G03*
X184419558Y-107430765I-1895400J3859722D01*
G01*
X177225426Y-104158931D02*
G75*
G02*
X177486882Y-104959999I-3363726J-1541069D01*
G01*
X303225426Y-104158931D02*
G75*
G02*
X303486882Y-104959999I-3363726J-1541069D01*
G01*
X213396705Y-109090997D02*
G75*
G03*
X214236128Y-109010280I203295J2290997D01*
G01*
X334540726Y-105890971D02*
G75*
G03*
X335047348Y-106729042I3909174J1790971D01*
G01*
X342663122Y-104959999D02*
G75*
G02*
X342924577Y-104158933I3625178J-740001D01*
G01*
X341852660Y-106729049D02*
G75*
G03*
X342359284Y-105890976I-3402560J2629049D01*
G01*
X335730441Y-107430765D02*
G75*
G03*
X336554599Y-107959722I2719559J3330765D01*
G01*
X215806449Y-105454638D02*
G75*
G02*
X215982775Y-104546288I3691851J-245362D01*
G01*
X92857944Y-106940085D02*
G75*
G03*
X93373964Y-107691686I4942056J2840085D01*
G01*
X349704293Y-103850000D02*
G75*
G02*
X350073934Y-104742367I-3204193J-1850000D01*
G01*
X91592558Y-102378843D02*
G75*
G02*
X92301714Y-102833997I-1630958J-3321157D01*
G01*
X94729596Y-108902355D02*
G75*
G03*
X95534529Y-109330445I3070404J4802455D01*
G01*
X310500200Y-109064763D02*
G75*
G03*
X311305002Y-108515208I-2800200J4964863D01*
G01*
X339422932Y-108288484D02*
G75*
G03*
X340345400Y-107959722I-972932J4188484D01*
G01*
X94003214Y-108351401D02*
G75*
G03*
X94729596Y-108902355I3796786J4251401D01*
G01*
X213272961Y-110485518D02*
G75*
G03*
X214243756Y-110443566I327039J3685518D01*
G01*
X306727067Y-108288484D02*
G75*
G03*
X307700000Y-108400002I972933J4188384D01*
G01*
X93373964Y-107691686D02*
G75*
G03*
X94003214Y-108351401I4426136J3591786D01*
G01*
X313907441Y-102378843D02*
G75*
G02*
X314701194Y-102095961I1630859J-3321057D01*
G01*
X333539503Y-103437794D02*
G75*
G02*
X333975433Y-104158928I-2927803J-2262206D01*
G01*
X203680295Y-107841236D02*
G75*
G03*
X204521077Y-108205405I2119705J3741236D01*
G01*
X308672932Y-108288484D02*
G75*
G03*
X309595400Y-107959722I-972932J4188484D01*
G01*
X215557076Y-108008242D02*
G75*
G03*
X215861023Y-107221628I-1957076J1208242D01*
G01*
X181700000Y-109800000D02*
G75*
G03*
X182670966Y-109716693I0J5700100D01*
G01*
X307700000Y-108399999D02*
G75*
G03*
X308672931Y-108288481I0J4299899D01*
G01*
X216970246Y-102998348D02*
G75*
G02*
X217719634Y-102455570I2528054J-2701652D01*
G01*
X214236128Y-109010280D02*
G75*
G03*
X214990035Y-108632430I-636128J2210280D01*
G01*
X216303389Y-106295833D02*
G75*
G02*
X219498304Y-102450004I3194911J595833D01*
G01*
X182670966Y-109716691D02*
G75*
G03*
X183613551Y-109469205I-970966J5616791D01*
G01*
X178297339Y-106729049D02*
G75*
G03*
X178980441Y-107430765I3402661J2629049D01*
G01*
X105272961Y-110485518D02*
G75*
G03*
X106243756Y-110443566I327039J3685518D01*
G01*
X299861632Y-102000000D02*
G75*
G02*
X300698804Y-102095962I-32J-3700000D01*
G01*
X333975426Y-104158931D02*
G75*
G02*
X334236882Y-104959999I-3363726J-1541069D01*
G01*
D24*
%TO.N,DEV_3V3*%
X315500000Y-141000000D02*
X322500000Y-141000000D01*
X139300000Y-116500000D02*
X140900000Y-114900000D01*
X240700000Y-128900000D02*
X237700000Y-131900000D01*
X240700000Y-127300000D02*
X240700000Y-128900000D01*
X322500000Y-141000000D02*
X322900000Y-140600000D01*
X304100000Y-121300000D02*
X304100000Y-126900000D01*
X313300000Y-136100000D02*
X313300000Y-138100000D01*
X135700000Y-134300000D02*
X135900000Y-134300000D01*
X322900000Y-138620000D02*
X322900000Y-139500000D01*
X241700000Y-126100000D02*
X240900000Y-126900000D01*
X136100000Y-134100000D02*
X136100000Y-126100000D01*
X131900000Y-117500000D02*
X128900000Y-120500000D01*
X322900000Y-140600000D02*
X322900000Y-139500000D01*
X243500000Y-126700000D02*
X242900000Y-126100000D01*
X242900000Y-126100000D02*
X241700000Y-126100000D01*
X156500000Y-112900000D02*
X158100000Y-111300000D01*
X135900000Y-134300000D02*
X136100000Y-134100000D01*
X156100000Y-112900000D02*
X156500000Y-112900000D01*
X91900000Y-126500000D02*
X109700000Y-126500000D01*
X158100000Y-111300000D02*
X158100000Y-109700000D01*
X304100000Y-126900000D02*
X313300000Y-136100000D01*
X240900000Y-126900000D02*
X240900000Y-127100000D01*
X128900000Y-120500000D02*
X128900000Y-124100000D01*
D25*
%TO.N,INST_5V_A*%
X331600000Y-125600000D02*
X331600000Y-116800000D01*
D23*
X295700000Y-128900000D02*
X295700000Y-130300000D01*
D25*
X330600000Y-126600000D02*
X331600000Y-125600000D01*
X325440000Y-138620000D02*
X325440000Y-141400000D01*
X325440000Y-141400000D02*
X330600000Y-141400000D01*
D26*
%TO.N,PWR_GND*%
X133500000Y-126100000D02*
X133500000Y-129900000D01*
X133300000Y-125900000D02*
X133500000Y-126100000D01*
D24*
%TO.N,VS*%
X74900000Y-112300000D02*
X73300000Y-112300000D01*
X74100000Y-124900000D02*
X72000000Y-127000000D01*
D23*
%TO.N,/IO6*%
X327300000Y-120700000D02*
X327100000Y-120700000D01*
X329500000Y-122900000D02*
X329500000Y-127900000D01*
X326700000Y-114900000D02*
X326700000Y-117700000D01*
X329700000Y-138500000D02*
X329255000Y-138615000D01*
X327300000Y-120900000D02*
X327500000Y-120900000D01*
X329500000Y-127900000D02*
X331500000Y-129900000D01*
X326700000Y-117700000D02*
X327500000Y-118500000D01*
X327500000Y-120900000D02*
X329500000Y-122900000D01*
X327500000Y-118500000D02*
X327500000Y-120500000D01*
X327500000Y-120500000D02*
X327300000Y-120700000D01*
X331500000Y-138500000D02*
X329700000Y-138500000D01*
X326900000Y-114700000D02*
X326700000Y-114900000D01*
%TO.N,/MIDI_TIP_DRV*%
X331900000Y-130900000D02*
X331100000Y-130900000D01*
X333300000Y-129500000D02*
X331900000Y-130900000D01*
X327100000Y-126900000D02*
X327100000Y-123100000D01*
X331100000Y-130900000D02*
X327100000Y-126900000D01*
X333300000Y-111300000D02*
X333300000Y-129500000D01*
%TO.N,/MIDI_RING_DRV*%
X335700000Y-117900000D02*
X335500000Y-118100000D01*
X333900000Y-120100000D02*
X333900000Y-122500000D01*
X333900000Y-122500000D02*
X334700000Y-123300000D01*
X335500000Y-118500000D02*
X333900000Y-120100000D01*
X335500000Y-118100000D02*
X335500000Y-118500000D01*
X335700000Y-112500000D02*
X335900000Y-112300000D01*
X335700000Y-117900000D02*
X335700000Y-112500000D01*
%TO.N,/IO2*%
X314300000Y-135900000D02*
X314300000Y-136300000D01*
X305100000Y-114700000D02*
X294700000Y-114700000D01*
X310300000Y-134300000D02*
X308300000Y-132300000D01*
X314650000Y-140000000D02*
X314250000Y-139600000D01*
X314300000Y-136300000D02*
X314250000Y-136400000D01*
X306300000Y-135100000D02*
X308300000Y-135100000D01*
X314250000Y-139600000D02*
X314250000Y-136400000D01*
X317825000Y-139600000D02*
X317425000Y-140000000D01*
X308700000Y-130300000D02*
X314300000Y-135900000D01*
X302700000Y-131500000D02*
X306300000Y-135100000D01*
X330500000Y-116900000D02*
X330500000Y-118700000D01*
X298500000Y-124700000D02*
X302700000Y-128900000D01*
X302700000Y-128900000D02*
X302700000Y-131500000D01*
X324500000Y-110900000D02*
X330500000Y-116900000D01*
X324300000Y-111100000D02*
X310900000Y-111100000D01*
X289500000Y-119900000D02*
X289500000Y-120700000D01*
X308500000Y-130300000D02*
X308700000Y-130300000D01*
X308300000Y-132300000D02*
X308300000Y-132100000D01*
X289500000Y-120700000D02*
X292700000Y-123900000D01*
X310300000Y-135100000D02*
X310300000Y-134300000D01*
X294700000Y-114700000D02*
X289500000Y-119900000D01*
X317825000Y-138615000D02*
X317825000Y-139600000D01*
X317425000Y-140000000D02*
X314650000Y-140000000D01*
%TO.N,/midi-out/MIDI_RING*%
X358900000Y-113500000D02*
X358300000Y-112900000D01*
X358100000Y-112900000D02*
X354900000Y-109700000D01*
X358300000Y-112900000D02*
X358100000Y-112900000D01*
%TO.N,/midi-out/MIDI_TIP_R*%
X336500000Y-117300000D02*
X336500000Y-117700000D01*
X344700000Y-112300000D02*
X344700000Y-123700000D01*
X343700000Y-124700000D02*
X343500000Y-124700000D01*
X346500000Y-110500000D02*
X344700000Y-112300000D01*
X333700000Y-110300000D02*
X334900000Y-111500000D01*
X333100000Y-110300000D02*
X333700000Y-110300000D01*
X331900000Y-109100000D02*
X333100000Y-110300000D01*
X334900000Y-111500000D02*
X334900000Y-115700000D01*
X343500000Y-124700000D02*
X336500000Y-117700000D01*
%TO.N,/midi-out/MIDI_RING_R*%
X345100000Y-125100000D02*
X342100000Y-122100000D01*
X354100000Y-118300000D02*
X354100000Y-123300000D01*
X342100000Y-115100000D02*
X338300000Y-115100000D01*
X338300000Y-115100000D02*
X336500000Y-113300000D01*
X354100000Y-123300000D02*
X352300000Y-125100000D01*
X342100000Y-122100000D02*
X342100000Y-115100000D01*
X352300000Y-125100000D02*
X345100000Y-125100000D01*
X354100000Y-118300000D02*
X354100000Y-115500000D01*
%TD*%
M02*
