%TF.GenerationSoftware,KiCad,Pcbnew,9.0.9-9.0.9~ubuntu24.04.1*%
%TF.CreationDate,2026-10-04T19:16:41+00:00*%
%TF.ProjectId,module-jack,6d6f6475-6c65-42d6-9a61-636b2e6b6963,A*%
%TF.SameCoordinates,Original*%
%TF.FileFunction,Copper,L2,Bot*%
%TF.FilePolarity,Positive*%
%FSLAX46Y46*%
G04 Gerber Fmt 4.6, Leading zero omitted, Abs format (unit mm)*
G04 Created by KiCad (PCBNEW 9.0.9-9.0.9~ubuntu24.04.1) date 2026-10-04 19:16:41*
%MOMM*%
%LPD*%
G01*
G04 APERTURE LIST*
G04 Aperture macros list*
%AMRoundRect*
0 Rectangle with rounded corners*
0 $1 Rounding radius*
0 $2 $3 $4 $5 $6 $7 $8 $9 X,Y pos of 4 corners*
0 Add a 4 corners polygon primitive as box body*
4,1,4,$2,$3,$4,$5,$6,$7,$8,$9,$2,$3,0*
0 Add four circle primitives for the rounded corners*
1,1,$1+$1,$2,$3*
1,1,$1+$1,$4,$5*
1,1,$1+$1,$6,$7*
1,1,$1+$1,$8,$9*
0 Add four rect primitives between the rounded corners*
20,1,$1+$1,$2,$3,$4,$5,0*
20,1,$1+$1,$4,$5,$6,$7,0*
20,1,$1+$1,$6,$7,$8,$9,0*
20,1,$1+$1,$8,$9,$2,$3,0*%
G04 Aperture macros list end*
%TA.AperFunction,ComponentPad*%
%ADD10C,6.400000*%
%TD*%
%TA.AperFunction,ComponentPad*%
%ADD11O,2.700000X2.400000*%
%TD*%
%TA.AperFunction,ComponentPad*%
%ADD12R,1.800000X1.800000*%
%TD*%
%TA.AperFunction,ComponentPad*%
%ADD13C,1.800000*%
%TD*%
%TA.AperFunction,ComponentPad*%
%ADD14R,1.830000X1.930000*%
%TD*%
%TA.AperFunction,ComponentPad*%
%ADD15C,2.130000*%
%TD*%
%TA.AperFunction,ComponentPad*%
%ADD16R,1.700000X1.700000*%
%TD*%
%TA.AperFunction,ComponentPad*%
%ADD17C,1.700000*%
%TD*%
%TA.AperFunction,SMDPad,CuDef*%
%ADD18RoundRect,0.112500X-0.187500X-0.112500X0.187500X-0.112500X0.187500X0.112500X-0.187500X0.112500X0*%
%TD*%
%TA.AperFunction,ViaPad*%
%ADD19C,0.700000*%
%TD*%
%TA.AperFunction,Conductor*%
%ADD20C,0.250000*%
%TD*%
G04 APERTURE END LIST*
D10*
%TO.P,H1,1*%
%TO.N,/AGND_MOD*%
X76750000Y-35200000D03*
%TD*%
D11*
%TO.P,RV2,*%
%TO.N,*%
X79950000Y-43700000D03*
X90550000Y-43700000D03*
D12*
%TO.P,RV2,1*%
%TO.N,/DAC_AVDD*%
X82750000Y-50700000D03*
D13*
%TO.P,RV2,2*%
%TO.N,/OFFSET_WIPER*%
X85250000Y-50700000D03*
%TO.P,RV2,3*%
%TO.N,/AGND_MOD*%
X87750000Y-50700000D03*
%TD*%
D14*
%TO.P,J6,S*%
%TO.N,/AGND_MOD*%
X101230000Y-87500000D03*
D15*
%TO.P,J6,T*%
%TO.N,/MOD4_JACK*%
X89830000Y-87500000D03*
%TO.P,J6,TN*%
%TO.N,N/C*%
X98130000Y-87500000D03*
%TD*%
D14*
%TO.P,J4,S*%
%TO.N,/AGND_MOD*%
X69270000Y-87500000D03*
D15*
%TO.P,J4,T*%
%TO.N,/MOD2_JACK*%
X80670000Y-87500000D03*
%TO.P,J4,TN*%
%TO.N,N/C*%
X72370000Y-87500000D03*
%TD*%
D11*
%TO.P,RV3,*%
%TO.N,*%
X96950000Y-43700000D03*
X107550000Y-43700000D03*
D12*
%TO.P,RV3,1*%
%TO.N,/RESP_V_SHAPED*%
X99750000Y-50700000D03*
D13*
%TO.P,RV3,2*%
%TO.N,/RESP_WIPER*%
X102250000Y-50700000D03*
%TO.P,RV3,3*%
%TO.N,/RESP_V_IN_HALF*%
X104750000Y-50700000D03*
%TD*%
D14*
%TO.P,J2,S*%
%TO.N,/AGND_MOD*%
X69270000Y-61500000D03*
D15*
%TO.P,J2,T*%
%TO.N,/BREATH_JACK*%
X80670000Y-61500000D03*
%TO.P,J2,TN*%
%TO.N,N/C*%
X72370000Y-61500000D03*
%TD*%
D11*
%TO.P,RV1,*%
%TO.N,*%
X62950000Y-43700000D03*
X73550000Y-43700000D03*
D12*
%TO.P,RV1,1*%
%TO.N,/GAIN_FLOOR*%
X65750000Y-50700000D03*
D13*
%TO.P,RV1,2*%
%TO.N,/GAIN_WIPER*%
X68250000Y-50700000D03*
%TO.P,RV1,3*%
%TO.N,/BREATH_SHAPED*%
X70750000Y-50700000D03*
%TD*%
D14*
%TO.P,J1,S*%
%TO.N,/AGND_MOD*%
X101230000Y-61500000D03*
D15*
%TO.P,J1,T*%
%TO.N,/PITCH_JACK*%
X89830000Y-61500000D03*
%TO.P,J1,TN*%
%TO.N,N/C*%
X98130000Y-61500000D03*
%TD*%
D10*
%TO.P,H2,1*%
%TO.N,/AGND_MOD*%
X93750000Y-35200000D03*
%TD*%
D14*
%TO.P,J5,S*%
%TO.N,/AGND_MOD*%
X101230000Y-74500000D03*
D15*
%TO.P,J5,T*%
%TO.N,/MOD3_JACK*%
X89830000Y-74500000D03*
%TO.P,J5,TN*%
%TO.N,N/C*%
X98130000Y-74500000D03*
%TD*%
D16*
%TO.P,J7,1*%
%TO.N,/BREATH_SHAPED*%
X83980000Y-61569999D03*
D17*
%TO.P,J7,2*%
%TO.N,/AGND_MOD*%
X86520000Y-61569999D03*
%TO.P,J7,3*%
%TO.N,/GAIN_WIPER*%
X83980000Y-64109999D03*
%TO.P,J7,4*%
%TO.N,/RESP_V_IN_HALF*%
X86520000Y-64109999D03*
%TO.P,J7,5*%
%TO.N,/AGND_MOD*%
X83980000Y-66649999D03*
%TO.P,J7,6*%
%TO.N,/RESP_WIPER*%
X86520000Y-66649999D03*
%TO.P,J7,7*%
%TO.N,/GAIN_FLOOR*%
X83980000Y-69189999D03*
%TO.P,J7,8*%
%TO.N,/RESP_V_SHAPED*%
X86520000Y-69189999D03*
%TO.P,J7,9*%
%TO.N,/OFFSET_WIPER*%
X83980000Y-71729999D03*
%TO.P,J7,10*%
%TO.N,/AGND_MOD*%
X86520000Y-71729999D03*
%TO.P,J7,11*%
%TO.N,/BREATH_JACK*%
X83980000Y-74269999D03*
%TO.P,J7,12*%
%TO.N,/DAC_AVDD*%
X86520000Y-74269999D03*
%TO.P,J7,13*%
%TO.N,/AGND_MOD*%
X83980000Y-76809999D03*
%TO.P,J7,14*%
%TO.N,/PITCH_JACK*%
X86520000Y-76809999D03*
%TO.P,J7,15*%
%TO.N,/MOD1_JACK*%
X83980000Y-79349999D03*
%TO.P,J7,16*%
%TO.N,/MOD3_JACK*%
X86520000Y-79349999D03*
%TO.P,J7,17*%
%TO.N,/MOD2_JACK*%
X83980000Y-81889999D03*
%TO.P,J7,18*%
%TO.N,/AGND_MOD*%
X86520000Y-81889999D03*
%TO.P,J7,19*%
%TO.N,unconnected-(J7-Pin_19-Pad19)*%
X83980000Y-84429999D03*
%TO.P,J7,20*%
%TO.N,/MOD4_JACK*%
X86520000Y-84429999D03*
%TD*%
D14*
%TO.P,J3,S*%
%TO.N,/AGND_MOD*%
X69270000Y-74500000D03*
D15*
%TO.P,J3,T*%
%TO.N,/MOD1_JACK*%
X80670000Y-74500000D03*
%TO.P,J3,TN*%
%TO.N,N/C*%
X72370000Y-74500000D03*
%TD*%
D18*
%TO.P,D2,1*%
%TO.N,/PITCH_JACK*%
X92950000Y-64000000D03*
%TO.P,D2,2*%
%TO.N,/AGND_MOD*%
X95050000Y-64000000D03*
%TD*%
D19*
%TO.N,/BREATH_JACK*%
X81200000Y-72900000D03*
%TO.N,/BREATH_SHAPED*%
X71600000Y-56500000D03*
X83200000Y-56500000D03*
%TO.N,/DAC_AVDD*%
X83600000Y-55500000D03*
X88000000Y-55500000D03*
%TO.N,/GAIN_FLOOR*%
X66599999Y-68700000D03*
%TO.N,/GAIN_WIPER*%
X67800000Y-63700000D03*
%TO.N,/MOD1_JACK*%
X81600000Y-79500000D03*
%TO.N,/MOD2_JACK*%
X81600000Y-82300000D03*
%TO.N,/MOD3_JACK*%
X89000000Y-79500000D03*
%TO.N,/MOD4_JACK*%
X87000000Y-86900000D03*
%TO.N,/OFFSET_WIPER*%
X82400000Y-57500000D03*
X84600000Y-57500000D03*
%TO.N,/PITCH_JACK*%
X90400000Y-63900000D03*
X91800000Y-64099999D03*
X91800000Y-76100000D03*
%TO.N,/RESP_V_IN_HALF*%
X104200000Y-64900000D03*
%TO.N,/RESP_V_SHAPED*%
X99800000Y-68500000D03*
%TO.N,/RESP_WIPER*%
X102800000Y-65900000D03*
%TD*%
D20*
%TO.N,/BREATH_JACK*%
X81200000Y-72900000D02*
X83000000Y-72900000D01*
X83600000Y-73500000D02*
X83800000Y-73500000D01*
X83000000Y-72900000D02*
X83600000Y-73500000D01*
%TO.N,/BREATH_SHAPED*%
X71600000Y-56500000D02*
X83200000Y-56500000D01*
%TO.N,/DAC_AVDD*%
X83600000Y-55500000D02*
X88000000Y-55500000D01*
%TO.N,/GAIN_FLOOR*%
X66599999Y-68700000D02*
X83400000Y-68700000D01*
%TO.N,/GAIN_WIPER*%
X67800000Y-63700000D02*
X83400000Y-63700000D01*
%TO.N,/MOD1_JACK*%
X81600000Y-79500000D02*
X83200000Y-79500000D01*
%TO.N,/MOD2_JACK*%
X81600000Y-82300000D02*
X83400000Y-82300000D01*
%TO.N,/MOD3_JACK*%
X87200000Y-79500000D02*
X89000000Y-79500000D01*
%TO.N,/MOD4_JACK*%
X87000000Y-86900000D02*
X89000000Y-86900000D01*
%TO.N,/OFFSET_WIPER*%
X82400000Y-57500000D02*
X84600000Y-57500000D01*
%TO.N,/PITCH_JACK*%
X86800000Y-76100000D02*
X91800000Y-76100000D01*
X91800000Y-64099999D02*
X92800000Y-64099999D01*
X92800000Y-63900000D02*
X90400000Y-63900000D01*
%TO.N,/RESP_V_IN_HALF*%
X86600000Y-64900000D02*
X91400000Y-64900000D01*
X102400000Y-65099999D02*
X102600000Y-64900000D01*
X91600000Y-65099999D02*
X102400000Y-65099999D01*
X91400000Y-64900000D02*
X91600000Y-65099999D01*
X102600000Y-64900000D02*
X104200000Y-64900000D01*
%TO.N,/RESP_V_SHAPED*%
X86800000Y-68500000D02*
X99800000Y-68500000D01*
%TO.N,/RESP_WIPER*%
X86800000Y-65900000D02*
X102800000Y-65900000D01*
%TD*%
%TA.AperFunction,Conductor*%
%TO.N,/AGND_MOD*%
G36*
X108942539Y-32020185D02*
G01*
X108988294Y-32072989D01*
X108999500Y-32124500D01*
X108999500Y-42302260D01*
X108979815Y-42369299D01*
X108927011Y-42415054D01*
X108857853Y-42424998D01*
X108800014Y-42400636D01*
X108646782Y-42283058D01*
X108646780Y-42283057D01*
X108646774Y-42283052D01*
X108453726Y-42171595D01*
X108453722Y-42171593D01*
X108247790Y-42086293D01*
X108247783Y-42086291D01*
X108247781Y-42086290D01*
X108032463Y-42028596D01*
X108032457Y-42028595D01*
X108032452Y-42028594D01*
X107811466Y-41999501D01*
X107811463Y-41999500D01*
X107811457Y-41999500D01*
X107288543Y-41999500D01*
X107288537Y-41999500D01*
X107288533Y-41999501D01*
X107067547Y-42028594D01*
X107067540Y-42028595D01*
X107067537Y-42028596D01*
X106852219Y-42086290D01*
X106852209Y-42086293D01*
X106646277Y-42171593D01*
X106646273Y-42171595D01*
X106453226Y-42283052D01*
X106453217Y-42283058D01*
X106276377Y-42418751D01*
X106276370Y-42418757D01*
X106118757Y-42576370D01*
X106118751Y-42576377D01*
X105983058Y-42753217D01*
X105983052Y-42753226D01*
X105871595Y-42946273D01*
X105871593Y-42946277D01*
X105786293Y-43152209D01*
X105786290Y-43152219D01*
X105728597Y-43367534D01*
X105728594Y-43367547D01*
X105699501Y-43588533D01*
X105699500Y-43588549D01*
X105699500Y-43811450D01*
X105699501Y-43811466D01*
X105728594Y-44032452D01*
X105728595Y-44032457D01*
X105728596Y-44032463D01*
X105728597Y-44032465D01*
X105786290Y-44247780D01*
X105786293Y-44247790D01*
X105871593Y-44453722D01*
X105871595Y-44453726D01*
X105983052Y-44646774D01*
X105983057Y-44646780D01*
X105983058Y-44646782D01*
X106118751Y-44823622D01*
X106118757Y-44823629D01*
X106276370Y-44981242D01*
X106276377Y-44981248D01*
X106402294Y-45077867D01*
X106453226Y-45116948D01*
X106646274Y-45228405D01*
X106852219Y-45313710D01*
X107067537Y-45371404D01*
X107288543Y-45400500D01*
X107288550Y-45400500D01*
X107811450Y-45400500D01*
X107811457Y-45400500D01*
X108032463Y-45371404D01*
X108247781Y-45313710D01*
X108453726Y-45228405D01*
X108646774Y-45116948D01*
X108800015Y-44999362D01*
X108865183Y-44974169D01*
X108933628Y-44988207D01*
X108983617Y-45037021D01*
X108999500Y-45097739D01*
X108999500Y-91875500D01*
X108979815Y-91942539D01*
X108927011Y-91988294D01*
X108875500Y-91999500D01*
X61624500Y-91999500D01*
X61557461Y-91979815D01*
X61511706Y-91927011D01*
X61500500Y-91875500D01*
X61500500Y-87376792D01*
X70804500Y-87376792D01*
X70804500Y-87623208D01*
X70819850Y-87720124D01*
X70843048Y-87866590D01*
X70843048Y-87866593D01*
X70919192Y-88100940D01*
X71005931Y-88271174D01*
X71031064Y-88320501D01*
X71175903Y-88519855D01*
X71350145Y-88694097D01*
X71549499Y-88838936D01*
X71693508Y-88912312D01*
X71769059Y-88950807D01*
X72003407Y-89026951D01*
X72003408Y-89026951D01*
X72003411Y-89026952D01*
X72246792Y-89065500D01*
X72246793Y-89065500D01*
X72493207Y-89065500D01*
X72493208Y-89065500D01*
X72736589Y-89026952D01*
X72736592Y-89026951D01*
X72736593Y-89026951D01*
X72970940Y-88950807D01*
X72970940Y-88950806D01*
X72970943Y-88950806D01*
X73190501Y-88838936D01*
X73389855Y-88694097D01*
X73564097Y-88519855D01*
X73708936Y-88320501D01*
X73820806Y-88100943D01*
X73896952Y-87866589D01*
X73935500Y-87623208D01*
X73935500Y-87500000D01*
X74250000Y-87500000D01*
X74251806Y-87573601D01*
X74251806Y-87573614D01*
X74251807Y-87573615D01*
X74257222Y-87647035D01*
X74266233Y-87720087D01*
X74266239Y-87720124D01*
X74278823Y-87792643D01*
X74294948Y-87864452D01*
X74314588Y-87935425D01*
X74314593Y-87935441D01*
X74337677Y-88005317D01*
X74337683Y-88005334D01*
X74364180Y-88074025D01*
X74394016Y-88141332D01*
X74394019Y-88141337D01*
X74427109Y-88207080D01*
X74427115Y-88207091D01*
X74463399Y-88271140D01*
X74463419Y-88271174D01*
X74502793Y-88333352D01*
X74545186Y-88393546D01*
X74545192Y-88393553D01*
X74590465Y-88451566D01*
X74590476Y-88451578D01*
X74590484Y-88451589D01*
X74638573Y-88507338D01*
X74638583Y-88507348D01*
X74689338Y-88560660D01*
X74723647Y-88593324D01*
X74742661Y-88611426D01*
X74798410Y-88659515D01*
X74798421Y-88659524D01*
X74798432Y-88659533D01*
X74840405Y-88692288D01*
X74856451Y-88704811D01*
X74916644Y-88747204D01*
X74978845Y-88786592D01*
X75013959Y-88806484D01*
X75042907Y-88822883D01*
X75042918Y-88822889D01*
X75074798Y-88838935D01*
X75108667Y-88855983D01*
X75175974Y-88885819D01*
X75244665Y-88912316D01*
X75314572Y-88935410D01*
X75385529Y-88955046D01*
X75385542Y-88955049D01*
X75385546Y-88955050D01*
X75457355Y-88971175D01*
X75457364Y-88971177D01*
X75506724Y-88979741D01*
X75529874Y-88983759D01*
X75529892Y-88983761D01*
X75529904Y-88983764D01*
X75529907Y-88983764D01*
X75529911Y-88983765D01*
X75602963Y-88992776D01*
X75602970Y-88992776D01*
X75602974Y-88992777D01*
X75676398Y-88998193D01*
X75750000Y-89000000D01*
X75823601Y-88998193D01*
X75897025Y-88992777D01*
X75897030Y-88992776D01*
X75897035Y-88992776D01*
X75970087Y-88983765D01*
X75970087Y-88983764D01*
X75970095Y-88983764D01*
X76042635Y-88971177D01*
X76114470Y-88955046D01*
X76185427Y-88935410D01*
X76255334Y-88912316D01*
X76324025Y-88885819D01*
X76391332Y-88855983D01*
X76441784Y-88830587D01*
X76457080Y-88822889D01*
X76457091Y-88822883D01*
X76457095Y-88822881D01*
X76521154Y-88786592D01*
X76583355Y-88747204D01*
X76643548Y-88704811D01*
X76701589Y-88659515D01*
X76757338Y-88611426D01*
X76810660Y-88560660D01*
X76861426Y-88507338D01*
X76909515Y-88451589D01*
X76954811Y-88393548D01*
X76997204Y-88333355D01*
X77036592Y-88271154D01*
X77072881Y-88207095D01*
X77105983Y-88141332D01*
X77135819Y-88074025D01*
X77162316Y-88005334D01*
X77185410Y-87935427D01*
X77205046Y-87864470D01*
X77221177Y-87792635D01*
X77233764Y-87720095D01*
X77242777Y-87647025D01*
X77248193Y-87573601D01*
X77250000Y-87500000D01*
X77248193Y-87426398D01*
X77244534Y-87376792D01*
X79104500Y-87376792D01*
X79104500Y-87623208D01*
X79119850Y-87720124D01*
X79143048Y-87866590D01*
X79143048Y-87866593D01*
X79219192Y-88100940D01*
X79305931Y-88271174D01*
X79331064Y-88320501D01*
X79475903Y-88519855D01*
X79650145Y-88694097D01*
X79849499Y-88838936D01*
X79993508Y-88912312D01*
X80069059Y-88950807D01*
X80303407Y-89026951D01*
X80303408Y-89026951D01*
X80303411Y-89026952D01*
X80546792Y-89065500D01*
X80546793Y-89065500D01*
X80793207Y-89065500D01*
X80793208Y-89065500D01*
X81036589Y-89026952D01*
X81036592Y-89026951D01*
X81036593Y-89026951D01*
X81270940Y-88950807D01*
X81270940Y-88950806D01*
X81270943Y-88950806D01*
X81490501Y-88838936D01*
X81689855Y-88694097D01*
X81864097Y-88519855D01*
X82008936Y-88320501D01*
X82120806Y-88100943D01*
X82196952Y-87866589D01*
X82235500Y-87623208D01*
X82235500Y-87376792D01*
X82196952Y-87133411D01*
X82196951Y-87133407D01*
X82196951Y-87133406D01*
X82120807Y-86899059D01*
X82104185Y-86866436D01*
X82078603Y-86816228D01*
X86149500Y-86816228D01*
X86149500Y-86983771D01*
X86182182Y-87148074D01*
X86182184Y-87148082D01*
X86246295Y-87302860D01*
X86339373Y-87442162D01*
X86457837Y-87560626D01*
X86477277Y-87573615D01*
X86597137Y-87653703D01*
X86751918Y-87717816D01*
X86916228Y-87750499D01*
X86916232Y-87750500D01*
X86916233Y-87750500D01*
X87083768Y-87750500D01*
X87083769Y-87750499D01*
X87248082Y-87717816D01*
X87402863Y-87653703D01*
X87542162Y-87560626D01*
X87546872Y-87556761D01*
X87547912Y-87558028D01*
X87602293Y-87528334D01*
X87628651Y-87525500D01*
X88143119Y-87525500D01*
X88210158Y-87545185D01*
X88255913Y-87597989D01*
X88265592Y-87630102D01*
X88303048Y-87866590D01*
X88303048Y-87866593D01*
X88379192Y-88100940D01*
X88465931Y-88271174D01*
X88491064Y-88320501D01*
X88635903Y-88519855D01*
X88810145Y-88694097D01*
X89009499Y-88838936D01*
X89153508Y-88912312D01*
X89229059Y-88950807D01*
X89463407Y-89026951D01*
X89463408Y-89026951D01*
X89463411Y-89026952D01*
X89706792Y-89065500D01*
X89706793Y-89065500D01*
X89953207Y-89065500D01*
X89953208Y-89065500D01*
X90196589Y-89026952D01*
X90196592Y-89026951D01*
X90196593Y-89026951D01*
X90430940Y-88950807D01*
X90430940Y-88950806D01*
X90430943Y-88950806D01*
X90650501Y-88838936D01*
X90849855Y-88694097D01*
X91024097Y-88519855D01*
X91168936Y-88320501D01*
X91280806Y-88100943D01*
X91356952Y-87866589D01*
X91395500Y-87623208D01*
X91395500Y-87500000D01*
X93250000Y-87500000D01*
X93251806Y-87573601D01*
X93251806Y-87573614D01*
X93251807Y-87573615D01*
X93257222Y-87647035D01*
X93266233Y-87720087D01*
X93266239Y-87720124D01*
X93278823Y-87792643D01*
X93294948Y-87864452D01*
X93314588Y-87935425D01*
X93314593Y-87935441D01*
X93337677Y-88005317D01*
X93337683Y-88005334D01*
X93364180Y-88074025D01*
X93394016Y-88141332D01*
X93394019Y-88141337D01*
X93427109Y-88207080D01*
X93427115Y-88207091D01*
X93463399Y-88271140D01*
X93463419Y-88271174D01*
X93502793Y-88333352D01*
X93545186Y-88393546D01*
X93545192Y-88393553D01*
X93590465Y-88451566D01*
X93590476Y-88451578D01*
X93590484Y-88451589D01*
X93638573Y-88507338D01*
X93638583Y-88507348D01*
X93689338Y-88560660D01*
X93723647Y-88593324D01*
X93742661Y-88611426D01*
X93798410Y-88659515D01*
X93798421Y-88659524D01*
X93798432Y-88659533D01*
X93840405Y-88692288D01*
X93856451Y-88704811D01*
X93916644Y-88747204D01*
X93978845Y-88786592D01*
X94013959Y-88806484D01*
X94042907Y-88822883D01*
X94042918Y-88822889D01*
X94074798Y-88838935D01*
X94108667Y-88855983D01*
X94175974Y-88885819D01*
X94244665Y-88912316D01*
X94314572Y-88935410D01*
X94385529Y-88955046D01*
X94385542Y-88955049D01*
X94385546Y-88955050D01*
X94457355Y-88971175D01*
X94457364Y-88971177D01*
X94506724Y-88979741D01*
X94529874Y-88983759D01*
X94529892Y-88983761D01*
X94529904Y-88983764D01*
X94529907Y-88983764D01*
X94529911Y-88983765D01*
X94602963Y-88992776D01*
X94602970Y-88992776D01*
X94602974Y-88992777D01*
X94676398Y-88998193D01*
X94750000Y-89000000D01*
X94823601Y-88998193D01*
X94897025Y-88992777D01*
X94897030Y-88992776D01*
X94897035Y-88992776D01*
X94970087Y-88983765D01*
X94970087Y-88983764D01*
X94970095Y-88983764D01*
X95042635Y-88971177D01*
X95114470Y-88955046D01*
X95185427Y-88935410D01*
X95255334Y-88912316D01*
X95324025Y-88885819D01*
X95391332Y-88855983D01*
X95441784Y-88830587D01*
X95457080Y-88822889D01*
X95457091Y-88822883D01*
X95457095Y-88822881D01*
X95521154Y-88786592D01*
X95583355Y-88747204D01*
X95643548Y-88704811D01*
X95701589Y-88659515D01*
X95757338Y-88611426D01*
X95810660Y-88560660D01*
X95861426Y-88507338D01*
X95909515Y-88451589D01*
X95954811Y-88393548D01*
X95997204Y-88333355D01*
X96036592Y-88271154D01*
X96072881Y-88207095D01*
X96105983Y-88141332D01*
X96135819Y-88074025D01*
X96162316Y-88005334D01*
X96185410Y-87935427D01*
X96205046Y-87864470D01*
X96221177Y-87792635D01*
X96233764Y-87720095D01*
X96242777Y-87647025D01*
X96248193Y-87573601D01*
X96250000Y-87500000D01*
X96248193Y-87426398D01*
X96244534Y-87376792D01*
X96564500Y-87376792D01*
X96564500Y-87623208D01*
X96579850Y-87720124D01*
X96603048Y-87866590D01*
X96603048Y-87866593D01*
X96679192Y-88100940D01*
X96765931Y-88271174D01*
X96791064Y-88320501D01*
X96935903Y-88519855D01*
X97110145Y-88694097D01*
X97309499Y-88838936D01*
X97453508Y-88912312D01*
X97529059Y-88950807D01*
X97763407Y-89026951D01*
X97763408Y-89026951D01*
X97763411Y-89026952D01*
X98006792Y-89065500D01*
X98006793Y-89065500D01*
X98253207Y-89065500D01*
X98253208Y-89065500D01*
X98496589Y-89026952D01*
X98496592Y-89026951D01*
X98496593Y-89026951D01*
X98730940Y-88950807D01*
X98730940Y-88950806D01*
X98730943Y-88950806D01*
X98950501Y-88838936D01*
X99149855Y-88694097D01*
X99324097Y-88519855D01*
X99468936Y-88320501D01*
X99580806Y-88100943D01*
X99656952Y-87866589D01*
X99695500Y-87623208D01*
X99695500Y-87376792D01*
X99656952Y-87133411D01*
X99656951Y-87133407D01*
X99656951Y-87133406D01*
X99580807Y-86899059D01*
X99538605Y-86816233D01*
X99468936Y-86679499D01*
X99324097Y-86480145D01*
X99149855Y-86305903D01*
X98950501Y-86161064D01*
X98858486Y-86114180D01*
X98730940Y-86049192D01*
X98496592Y-85973048D01*
X98314053Y-85944137D01*
X98253208Y-85934500D01*
X98006792Y-85934500D01*
X97925665Y-85947349D01*
X97763409Y-85973048D01*
X97763406Y-85973048D01*
X97529059Y-86049192D01*
X97309498Y-86161064D01*
X97110142Y-86305905D01*
X96935905Y-86480142D01*
X96791064Y-86679498D01*
X96679192Y-86899059D01*
X96603048Y-87133406D01*
X96603048Y-87133409D01*
X96576210Y-87302860D01*
X96564500Y-87376792D01*
X96244534Y-87376792D01*
X96242777Y-87352974D01*
X96233764Y-87279904D01*
X96221177Y-87207364D01*
X96205046Y-87135529D01*
X96185410Y-87064572D01*
X96162316Y-86994665D01*
X96135819Y-86925974D01*
X96105983Y-86858667D01*
X96084621Y-86816228D01*
X96072889Y-86792918D01*
X96072883Y-86792907D01*
X96036599Y-86728858D01*
X96036592Y-86728845D01*
X95997204Y-86666644D01*
X95954811Y-86606451D01*
X95942288Y-86590405D01*
X95909533Y-86548432D01*
X95909524Y-86548421D01*
X95909515Y-86548410D01*
X95861426Y-86492661D01*
X95843324Y-86473647D01*
X95810660Y-86439338D01*
X95774622Y-86405029D01*
X95757338Y-86388573D01*
X95701589Y-86340484D01*
X95701578Y-86340476D01*
X95701566Y-86340465D01*
X95643553Y-86295192D01*
X95643546Y-86295186D01*
X95583352Y-86252793D01*
X95521174Y-86213419D01*
X95521140Y-86213399D01*
X95457091Y-86177115D01*
X95457080Y-86177109D01*
X95407772Y-86152291D01*
X95391332Y-86144016D01*
X95324025Y-86114180D01*
X95255343Y-86087686D01*
X95255317Y-86087677D01*
X95185441Y-86064593D01*
X95185425Y-86064588D01*
X95114452Y-86044948D01*
X95042643Y-86028823D01*
X94970124Y-86016239D01*
X94970087Y-86016233D01*
X94897035Y-86007222D01*
X94823615Y-86001807D01*
X94823614Y-86001806D01*
X94823601Y-86001806D01*
X94750000Y-86000000D01*
X94749999Y-86000000D01*
X94747247Y-86000067D01*
X94676398Y-86001806D01*
X94676385Y-86001806D01*
X94676383Y-86001807D01*
X94602963Y-86007222D01*
X94529911Y-86016233D01*
X94529874Y-86016239D01*
X94457355Y-86028823D01*
X94385546Y-86044948D01*
X94314573Y-86064588D01*
X94314557Y-86064593D01*
X94244681Y-86087677D01*
X94244655Y-86087686D01*
X94175973Y-86114180D01*
X94137894Y-86131060D01*
X94108667Y-86144016D01*
X94108661Y-86144018D01*
X94108661Y-86144019D01*
X94042918Y-86177109D01*
X94042907Y-86177115D01*
X93978858Y-86213399D01*
X93978824Y-86213419D01*
X93916646Y-86252793D01*
X93856452Y-86295186D01*
X93856445Y-86295192D01*
X93798432Y-86340465D01*
X93798410Y-86340484D01*
X93742661Y-86388573D01*
X93742655Y-86388578D01*
X93742650Y-86388583D01*
X93689338Y-86439338D01*
X93638583Y-86492650D01*
X93638573Y-86492661D01*
X93592521Y-86546047D01*
X93590465Y-86548432D01*
X93545192Y-86606445D01*
X93545186Y-86606452D01*
X93502793Y-86666646D01*
X93463419Y-86728824D01*
X93463399Y-86728858D01*
X93427115Y-86792907D01*
X93427109Y-86792918D01*
X93394019Y-86858661D01*
X93364180Y-86925973D01*
X93337686Y-86994655D01*
X93337677Y-86994681D01*
X93314593Y-87064557D01*
X93314588Y-87064573D01*
X93294948Y-87135546D01*
X93278823Y-87207355D01*
X93266239Y-87279874D01*
X93266233Y-87279911D01*
X93257222Y-87352963D01*
X93251807Y-87426383D01*
X93251806Y-87426398D01*
X93250000Y-87500000D01*
X91395500Y-87500000D01*
X91395500Y-87376792D01*
X91356952Y-87133411D01*
X91356951Y-87133407D01*
X91356951Y-87133406D01*
X91280807Y-86899059D01*
X91238605Y-86816233D01*
X91168936Y-86679499D01*
X91024097Y-86480145D01*
X90849855Y-86305903D01*
X90650501Y-86161064D01*
X90558486Y-86114180D01*
X90430940Y-86049192D01*
X90196592Y-85973048D01*
X90014053Y-85944137D01*
X89953208Y-85934500D01*
X89706792Y-85934500D01*
X89625665Y-85947349D01*
X89463409Y-85973048D01*
X89463406Y-85973048D01*
X89229059Y-86049192D01*
X89009498Y-86161064D01*
X88937466Y-86213399D01*
X88885962Y-86250818D01*
X88820157Y-86274298D01*
X88813078Y-86274500D01*
X87628651Y-86274500D01*
X87561612Y-86254815D01*
X87547021Y-86243057D01*
X87546872Y-86243239D01*
X87542162Y-86239373D01*
X87402860Y-86146295D01*
X87248082Y-86082184D01*
X87248074Y-86082182D01*
X87083771Y-86049500D01*
X87083767Y-86049500D01*
X86916233Y-86049500D01*
X86916228Y-86049500D01*
X86751925Y-86082182D01*
X86751917Y-86082184D01*
X86597139Y-86146295D01*
X86457837Y-86239373D01*
X86339373Y-86357837D01*
X86246295Y-86497139D01*
X86182184Y-86651917D01*
X86182182Y-86651925D01*
X86149500Y-86816228D01*
X82078603Y-86816228D01*
X82066720Y-86792907D01*
X82008936Y-86679499D01*
X81864097Y-86480145D01*
X81689855Y-86305903D01*
X81490501Y-86161064D01*
X81398486Y-86114180D01*
X81270940Y-86049192D01*
X81036592Y-85973048D01*
X80854053Y-85944137D01*
X80793208Y-85934500D01*
X80546792Y-85934500D01*
X80465665Y-85947349D01*
X80303409Y-85973048D01*
X80303406Y-85973048D01*
X80069059Y-86049192D01*
X79849498Y-86161064D01*
X79650142Y-86305905D01*
X79475905Y-86480142D01*
X79331064Y-86679498D01*
X79219192Y-86899059D01*
X79143048Y-87133406D01*
X79143048Y-87133409D01*
X79116210Y-87302860D01*
X79104500Y-87376792D01*
X77244534Y-87376792D01*
X77242777Y-87352974D01*
X77233764Y-87279904D01*
X77221177Y-87207364D01*
X77205046Y-87135529D01*
X77185410Y-87064572D01*
X77162316Y-86994665D01*
X77135819Y-86925974D01*
X77105983Y-86858667D01*
X77084621Y-86816228D01*
X77072889Y-86792918D01*
X77072883Y-86792907D01*
X77036599Y-86728858D01*
X77036592Y-86728845D01*
X76997204Y-86666644D01*
X76954811Y-86606451D01*
X76942288Y-86590405D01*
X76909533Y-86548432D01*
X76909524Y-86548421D01*
X76909515Y-86548410D01*
X76861426Y-86492661D01*
X76843324Y-86473647D01*
X76810660Y-86439338D01*
X76774622Y-86405029D01*
X76757338Y-86388573D01*
X76701589Y-86340484D01*
X76701578Y-86340476D01*
X76701566Y-86340465D01*
X76643553Y-86295192D01*
X76643546Y-86295186D01*
X76583352Y-86252793D01*
X76521174Y-86213419D01*
X76521140Y-86213399D01*
X76457091Y-86177115D01*
X76457080Y-86177109D01*
X76407772Y-86152291D01*
X76391332Y-86144016D01*
X76324025Y-86114180D01*
X76255343Y-86087686D01*
X76255317Y-86087677D01*
X76185441Y-86064593D01*
X76185425Y-86064588D01*
X76114452Y-86044948D01*
X76042643Y-86028823D01*
X75970124Y-86016239D01*
X75970087Y-86016233D01*
X75897035Y-86007222D01*
X75823615Y-86001807D01*
X75823614Y-86001806D01*
X75823601Y-86001806D01*
X75750000Y-86000000D01*
X75749999Y-86000000D01*
X75747247Y-86000067D01*
X75676398Y-86001806D01*
X75676385Y-86001806D01*
X75676383Y-86001807D01*
X75602963Y-86007222D01*
X75529911Y-86016233D01*
X75529874Y-86016239D01*
X75457355Y-86028823D01*
X75385546Y-86044948D01*
X75314573Y-86064588D01*
X75314557Y-86064593D01*
X75244681Y-86087677D01*
X75244655Y-86087686D01*
X75175973Y-86114180D01*
X75137894Y-86131060D01*
X75108667Y-86144016D01*
X75108661Y-86144018D01*
X75108661Y-86144019D01*
X75042918Y-86177109D01*
X75042907Y-86177115D01*
X74978858Y-86213399D01*
X74978824Y-86213419D01*
X74916646Y-86252793D01*
X74856452Y-86295186D01*
X74856445Y-86295192D01*
X74798432Y-86340465D01*
X74798410Y-86340484D01*
X74742661Y-86388573D01*
X74742655Y-86388578D01*
X74742650Y-86388583D01*
X74689338Y-86439338D01*
X74638583Y-86492650D01*
X74638573Y-86492661D01*
X74592521Y-86546047D01*
X74590465Y-86548432D01*
X74545192Y-86606445D01*
X74545186Y-86606452D01*
X74502793Y-86666646D01*
X74463419Y-86728824D01*
X74463399Y-86728858D01*
X74427115Y-86792907D01*
X74427109Y-86792918D01*
X74394019Y-86858661D01*
X74364180Y-86925973D01*
X74337686Y-86994655D01*
X74337677Y-86994681D01*
X74314593Y-87064557D01*
X74314588Y-87064573D01*
X74294948Y-87135546D01*
X74278823Y-87207355D01*
X74266239Y-87279874D01*
X74266233Y-87279911D01*
X74257222Y-87352963D01*
X74251807Y-87426383D01*
X74251806Y-87426398D01*
X74250000Y-87500000D01*
X73935500Y-87500000D01*
X73935500Y-87376792D01*
X73896952Y-87133411D01*
X73896951Y-87133407D01*
X73896951Y-87133406D01*
X73820807Y-86899059D01*
X73778605Y-86816233D01*
X73708936Y-86679499D01*
X73564097Y-86480145D01*
X73389855Y-86305903D01*
X73190501Y-86161064D01*
X73098486Y-86114180D01*
X72970940Y-86049192D01*
X72736592Y-85973048D01*
X72554053Y-85944137D01*
X72493208Y-85934500D01*
X72246792Y-85934500D01*
X72165665Y-85947349D01*
X72003409Y-85973048D01*
X72003406Y-85973048D01*
X71769059Y-86049192D01*
X71549498Y-86161064D01*
X71350142Y-86305905D01*
X71175905Y-86480142D01*
X71031064Y-86679498D01*
X70919192Y-86899059D01*
X70843048Y-87133406D01*
X70843048Y-87133409D01*
X70816210Y-87302860D01*
X70804500Y-87376792D01*
X61500500Y-87376792D01*
X61500500Y-74376792D01*
X70804500Y-74376792D01*
X70804500Y-74623208D01*
X70819850Y-74720124D01*
X70843048Y-74866590D01*
X70843048Y-74866593D01*
X70919192Y-75100940D01*
X71017666Y-75294205D01*
X71031064Y-75320501D01*
X71175903Y-75519855D01*
X71350145Y-75694097D01*
X71549499Y-75838936D01*
X71693508Y-75912312D01*
X71769059Y-75950807D01*
X72003407Y-76026951D01*
X72003408Y-76026951D01*
X72003411Y-76026952D01*
X72246792Y-76065500D01*
X72246793Y-76065500D01*
X72493207Y-76065500D01*
X72493208Y-76065500D01*
X72736589Y-76026952D01*
X72736592Y-76026951D01*
X72736593Y-76026951D01*
X72970940Y-75950807D01*
X72970940Y-75950806D01*
X72970943Y-75950806D01*
X73190501Y-75838936D01*
X73389855Y-75694097D01*
X73564097Y-75519855D01*
X73708936Y-75320501D01*
X73820806Y-75100943D01*
X73896952Y-74866589D01*
X73935500Y-74623208D01*
X73935500Y-74500000D01*
X74250000Y-74500000D01*
X74251806Y-74573601D01*
X74251806Y-74573614D01*
X74251807Y-74573615D01*
X74257222Y-74647035D01*
X74266233Y-74720087D01*
X74266239Y-74720124D01*
X74278823Y-74792643D01*
X74294948Y-74864452D01*
X74314588Y-74935425D01*
X74314593Y-74935441D01*
X74325698Y-74969055D01*
X74337683Y-75005334D01*
X74364180Y-75074025D01*
X74394016Y-75141332D01*
X74394019Y-75141337D01*
X74427109Y-75207080D01*
X74427115Y-75207091D01*
X74463399Y-75271140D01*
X74463419Y-75271174D01*
X74502793Y-75333352D01*
X74545186Y-75393546D01*
X74545192Y-75393553D01*
X74590465Y-75451566D01*
X74590476Y-75451578D01*
X74590484Y-75451589D01*
X74638573Y-75507338D01*
X74655029Y-75524622D01*
X74689338Y-75560660D01*
X74723647Y-75593324D01*
X74742661Y-75611426D01*
X74798410Y-75659515D01*
X74798421Y-75659524D01*
X74798432Y-75659533D01*
X74840405Y-75692288D01*
X74856451Y-75704811D01*
X74916644Y-75747204D01*
X74916646Y-75747205D01*
X74968259Y-75779889D01*
X74978845Y-75786592D01*
X75013959Y-75806484D01*
X75042907Y-75822883D01*
X75042918Y-75822889D01*
X75074798Y-75838935D01*
X75108667Y-75855983D01*
X75175974Y-75885819D01*
X75244665Y-75912316D01*
X75314572Y-75935410D01*
X75385529Y-75955046D01*
X75385542Y-75955049D01*
X75385546Y-75955050D01*
X75457355Y-75971175D01*
X75457364Y-75971177D01*
X75506724Y-75979741D01*
X75529874Y-75983759D01*
X75529892Y-75983761D01*
X75529904Y-75983764D01*
X75529907Y-75983764D01*
X75529911Y-75983765D01*
X75602963Y-75992776D01*
X75602970Y-75992776D01*
X75602974Y-75992777D01*
X75676398Y-75998193D01*
X75750000Y-76000000D01*
X75823601Y-75998193D01*
X75897025Y-75992777D01*
X75897030Y-75992776D01*
X75897035Y-75992776D01*
X75970087Y-75983765D01*
X75970087Y-75983764D01*
X75970095Y-75983764D01*
X76042635Y-75971177D01*
X76114470Y-75955046D01*
X76185427Y-75935410D01*
X76255334Y-75912316D01*
X76324025Y-75885819D01*
X76391332Y-75855983D01*
X76441784Y-75830587D01*
X76457080Y-75822889D01*
X76457091Y-75822883D01*
X76457095Y-75822881D01*
X76521154Y-75786592D01*
X76583355Y-75747204D01*
X76643548Y-75704811D01*
X76701589Y-75659515D01*
X76757338Y-75611426D01*
X76810660Y-75560660D01*
X76861426Y-75507338D01*
X76909515Y-75451589D01*
X76954811Y-75393548D01*
X76997204Y-75333355D01*
X77036592Y-75271154D01*
X77072881Y-75207095D01*
X77105983Y-75141332D01*
X77135819Y-75074025D01*
X77162316Y-75005334D01*
X77185410Y-74935427D01*
X77205046Y-74864470D01*
X77221177Y-74792635D01*
X77233764Y-74720095D01*
X77242777Y-74647025D01*
X77248193Y-74573601D01*
X77250000Y-74500000D01*
X77248193Y-74426398D01*
X77242777Y-74352974D01*
X77233764Y-74279904D01*
X77221177Y-74207364D01*
X77205046Y-74135529D01*
X77185410Y-74064572D01*
X77162316Y-73994665D01*
X77135819Y-73925974D01*
X77105983Y-73858667D01*
X77080655Y-73808348D01*
X77072889Y-73792918D01*
X77072883Y-73792907D01*
X77036599Y-73728858D01*
X77036592Y-73728845D01*
X76997204Y-73666644D01*
X76954811Y-73606451D01*
X76942288Y-73590405D01*
X76909533Y-73548432D01*
X76909524Y-73548421D01*
X76909515Y-73548410D01*
X76861426Y-73492661D01*
X76843324Y-73473647D01*
X76810660Y-73439338D01*
X76774622Y-73405029D01*
X76757338Y-73388573D01*
X76701589Y-73340484D01*
X76701578Y-73340476D01*
X76701566Y-73340465D01*
X76643553Y-73295192D01*
X76643546Y-73295186D01*
X76583352Y-73252793D01*
X76521174Y-73213419D01*
X76521140Y-73213399D01*
X76457091Y-73177115D01*
X76457080Y-73177109D01*
X76407772Y-73152291D01*
X76391332Y-73144016D01*
X76324025Y-73114180D01*
X76314446Y-73110485D01*
X76255343Y-73087686D01*
X76255317Y-73087677D01*
X76185441Y-73064593D01*
X76185425Y-73064588D01*
X76114452Y-73044948D01*
X76042643Y-73028823D01*
X75970124Y-73016239D01*
X75970087Y-73016233D01*
X75897035Y-73007222D01*
X75823615Y-73001807D01*
X75823614Y-73001806D01*
X75823601Y-73001806D01*
X75750000Y-73000000D01*
X75749999Y-73000000D01*
X75747247Y-73000067D01*
X75676398Y-73001806D01*
X75676385Y-73001806D01*
X75676383Y-73001807D01*
X75602963Y-73007222D01*
X75529911Y-73016233D01*
X75529874Y-73016239D01*
X75457355Y-73028823D01*
X75385546Y-73044948D01*
X75314573Y-73064588D01*
X75314557Y-73064593D01*
X75244681Y-73087677D01*
X75244655Y-73087686D01*
X75175973Y-73114180D01*
X75137894Y-73131060D01*
X75108667Y-73144016D01*
X75108661Y-73144018D01*
X75108661Y-73144019D01*
X75042918Y-73177109D01*
X75042907Y-73177115D01*
X74978858Y-73213399D01*
X74978824Y-73213419D01*
X74916646Y-73252793D01*
X74856452Y-73295186D01*
X74856445Y-73295192D01*
X74798432Y-73340465D01*
X74798410Y-73340484D01*
X74742661Y-73388573D01*
X74742655Y-73388578D01*
X74742650Y-73388583D01*
X74689338Y-73439338D01*
X74638583Y-73492650D01*
X74638573Y-73492661D01*
X74610246Y-73525500D01*
X74590465Y-73548432D01*
X74545192Y-73606445D01*
X74545186Y-73606452D01*
X74502793Y-73666646D01*
X74463419Y-73728824D01*
X74463399Y-73728858D01*
X74427115Y-73792907D01*
X74427109Y-73792918D01*
X74394019Y-73858661D01*
X74364180Y-73925973D01*
X74337686Y-73994655D01*
X74337677Y-73994681D01*
X74314593Y-74064557D01*
X74314588Y-74064573D01*
X74294948Y-74135546D01*
X74278823Y-74207355D01*
X74266239Y-74279874D01*
X74266233Y-74279911D01*
X74257222Y-74352963D01*
X74251807Y-74426383D01*
X74251806Y-74426398D01*
X74250000Y-74500000D01*
X73935500Y-74500000D01*
X73935500Y-74376792D01*
X73896952Y-74133411D01*
X73896951Y-74133407D01*
X73896951Y-74133406D01*
X73820807Y-73899059D01*
X73800223Y-73858661D01*
X73708936Y-73679499D01*
X73564097Y-73480145D01*
X73389855Y-73305903D01*
X73190501Y-73161064D01*
X73091234Y-73110485D01*
X72970940Y-73049192D01*
X72736592Y-72973048D01*
X72554053Y-72944137D01*
X72493208Y-72934500D01*
X72246792Y-72934500D01*
X72165665Y-72947349D01*
X72003409Y-72973048D01*
X72003406Y-72973048D01*
X71769059Y-73049192D01*
X71549498Y-73161064D01*
X71350142Y-73305905D01*
X71175905Y-73480142D01*
X71031064Y-73679498D01*
X70919192Y-73899059D01*
X70843048Y-74133406D01*
X70843048Y-74133409D01*
X70808274Y-74352963D01*
X70804500Y-74376792D01*
X61500500Y-74376792D01*
X61500500Y-68616228D01*
X65749499Y-68616228D01*
X65749499Y-68783771D01*
X65782181Y-68948074D01*
X65782183Y-68948082D01*
X65846294Y-69102860D01*
X65939372Y-69242162D01*
X66057836Y-69360626D01*
X66113754Y-69397989D01*
X66197136Y-69453703D01*
X66351917Y-69517816D01*
X66516227Y-69550499D01*
X66516231Y-69550500D01*
X66516232Y-69550500D01*
X66683767Y-69550500D01*
X66683768Y-69550499D01*
X66848081Y-69517816D01*
X67002862Y-69453703D01*
X67142161Y-69360626D01*
X67146871Y-69356761D01*
X67147911Y-69358028D01*
X67202292Y-69328334D01*
X67228650Y-69325500D01*
X82528221Y-69325500D01*
X82595260Y-69345185D01*
X82641015Y-69397989D01*
X82650694Y-69430101D01*
X82662753Y-69506239D01*
X82728444Y-69708413D01*
X82824951Y-69897819D01*
X82949890Y-70069785D01*
X83100213Y-70220108D01*
X83272182Y-70345049D01*
X83280946Y-70349515D01*
X83331742Y-70397490D01*
X83348536Y-70465311D01*
X83325998Y-70531446D01*
X83280946Y-70570483D01*
X83272182Y-70574948D01*
X83100213Y-70699889D01*
X82949890Y-70850212D01*
X82824951Y-71022178D01*
X82728444Y-71211584D01*
X82662753Y-71413759D01*
X82629500Y-71623712D01*
X82629500Y-71836286D01*
X82662754Y-72046242D01*
X82684180Y-72112184D01*
X82686175Y-72182022D01*
X82650095Y-72241855D01*
X82587394Y-72272684D01*
X82566249Y-72274500D01*
X81828651Y-72274500D01*
X81761612Y-72254815D01*
X81747021Y-72243057D01*
X81746872Y-72243239D01*
X81742162Y-72239373D01*
X81602860Y-72146295D01*
X81448082Y-72082184D01*
X81448074Y-72082182D01*
X81283771Y-72049500D01*
X81283767Y-72049500D01*
X81116233Y-72049500D01*
X81116228Y-72049500D01*
X80951925Y-72082182D01*
X80951917Y-72082184D01*
X80797139Y-72146295D01*
X80657837Y-72239373D01*
X80539373Y-72357837D01*
X80446295Y-72497139D01*
X80382184Y-72651917D01*
X80382182Y-72651925D01*
X80349500Y-72816228D01*
X80349500Y-72867980D01*
X80329815Y-72935019D01*
X80277011Y-72980774D01*
X80263818Y-72985911D01*
X80069059Y-73049192D01*
X79849498Y-73161064D01*
X79650142Y-73305905D01*
X79475905Y-73480142D01*
X79331064Y-73679498D01*
X79219192Y-73899059D01*
X79143048Y-74133406D01*
X79143048Y-74133409D01*
X79108274Y-74352963D01*
X79104500Y-74376792D01*
X79104500Y-74623208D01*
X79119850Y-74720124D01*
X79143048Y-74866590D01*
X79143048Y-74866593D01*
X79219192Y-75100940D01*
X79317666Y-75294205D01*
X79331064Y-75320501D01*
X79475903Y-75519855D01*
X79650145Y-75694097D01*
X79849499Y-75838936D01*
X79993508Y-75912312D01*
X80069059Y-75950807D01*
X80303407Y-76026951D01*
X80303408Y-76026951D01*
X80303411Y-76026952D01*
X80546792Y-76065500D01*
X80546793Y-76065500D01*
X80793207Y-76065500D01*
X80793208Y-76065500D01*
X81036589Y-76026952D01*
X81036592Y-76026951D01*
X81036593Y-76026951D01*
X81270940Y-75950807D01*
X81270940Y-75950806D01*
X81270943Y-75950806D01*
X81490501Y-75838936D01*
X81689855Y-75694097D01*
X81864097Y-75519855D01*
X82008936Y-75320501D01*
X82120806Y-75100943D01*
X82196952Y-74866589D01*
X82235500Y-74623208D01*
X82235500Y-74376792D01*
X82196952Y-74133411D01*
X82196951Y-74133407D01*
X82196951Y-74133406D01*
X82120807Y-73899059D01*
X82100223Y-73858661D01*
X82022333Y-73705793D01*
X82009438Y-73637126D01*
X82035714Y-73572385D01*
X82092821Y-73532128D01*
X82132819Y-73525500D01*
X82641290Y-73525500D01*
X82708329Y-73545185D01*
X82754084Y-73597989D01*
X82764028Y-73667147D01*
X82751775Y-73705795D01*
X82728444Y-73751584D01*
X82662753Y-73953759D01*
X82634299Y-74133411D01*
X82629500Y-74163712D01*
X82629500Y-74376286D01*
X82637435Y-74426383D01*
X82662753Y-74586238D01*
X82728444Y-74788413D01*
X82824951Y-74977819D01*
X82949890Y-75149785D01*
X83100213Y-75300108D01*
X83272179Y-75425047D01*
X83272181Y-75425048D01*
X83272184Y-75425050D01*
X83461588Y-75521556D01*
X83663757Y-75587245D01*
X83873713Y-75620499D01*
X83873714Y-75620499D01*
X84086286Y-75620499D01*
X84086287Y-75620499D01*
X84296243Y-75587245D01*
X84498412Y-75521556D01*
X84687816Y-75425050D01*
X84796214Y-75346295D01*
X84859786Y-75300108D01*
X84859788Y-75300105D01*
X84859792Y-75300103D01*
X85010104Y-75149791D01*
X85010106Y-75149787D01*
X85010109Y-75149785D01*
X85135048Y-74977819D01*
X85135047Y-74977819D01*
X85135051Y-74977815D01*
X85139514Y-74969053D01*
X85187488Y-74918258D01*
X85255308Y-74901462D01*
X85321444Y-74923998D01*
X85360486Y-74969055D01*
X85364951Y-74977819D01*
X85489890Y-75149785D01*
X85640213Y-75300108D01*
X85812182Y-75425049D01*
X85820946Y-75429515D01*
X85871742Y-75477490D01*
X85888536Y-75545311D01*
X85865998Y-75611446D01*
X85820946Y-75650483D01*
X85812182Y-75654948D01*
X85640213Y-75779889D01*
X85489890Y-75930212D01*
X85364951Y-76102178D01*
X85268444Y-76291584D01*
X85202753Y-76493759D01*
X85169500Y-76703712D01*
X85169500Y-76916286D01*
X85174919Y-76950499D01*
X85202753Y-77126238D01*
X85268444Y-77328413D01*
X85364951Y-77517819D01*
X85489890Y-77689785D01*
X85640213Y-77840108D01*
X85812182Y-77965049D01*
X85820946Y-77969515D01*
X85871742Y-78017490D01*
X85888536Y-78085311D01*
X85865998Y-78151446D01*
X85820946Y-78190483D01*
X85812182Y-78194948D01*
X85640213Y-78319889D01*
X85489890Y-78470212D01*
X85364949Y-78642181D01*
X85360484Y-78650945D01*
X85312509Y-78701741D01*
X85244688Y-78718535D01*
X85178553Y-78695997D01*
X85139516Y-78650945D01*
X85135050Y-78642181D01*
X85010109Y-78470212D01*
X84859786Y-78319889D01*
X84687820Y-78194950D01*
X84498414Y-78098443D01*
X84498413Y-78098442D01*
X84498412Y-78098442D01*
X84296243Y-78032753D01*
X84296241Y-78032752D01*
X84296240Y-78032752D01*
X84134957Y-78007207D01*
X84086287Y-77999499D01*
X83873713Y-77999499D01*
X83825042Y-78007207D01*
X83663760Y-78032752D01*
X83461585Y-78098443D01*
X83272179Y-78194950D01*
X83100213Y-78319889D01*
X82949890Y-78470212D01*
X82824951Y-78642178D01*
X82741075Y-78806795D01*
X82693100Y-78857591D01*
X82630590Y-78874500D01*
X82228651Y-78874500D01*
X82161612Y-78854815D01*
X82147021Y-78843057D01*
X82146872Y-78843239D01*
X82142162Y-78839373D01*
X82002860Y-78746295D01*
X81848082Y-78682184D01*
X81848074Y-78682182D01*
X81683771Y-78649500D01*
X81683767Y-78649500D01*
X81516233Y-78649500D01*
X81516228Y-78649500D01*
X81351925Y-78682182D01*
X81351917Y-78682184D01*
X81197139Y-78746295D01*
X81057837Y-78839373D01*
X80939373Y-78957837D01*
X80846295Y-79097139D01*
X80782184Y-79251917D01*
X80782182Y-79251925D01*
X80749500Y-79416228D01*
X80749500Y-79583771D01*
X80782182Y-79748074D01*
X80782184Y-79748082D01*
X80846295Y-79902860D01*
X80939373Y-80042162D01*
X81057837Y-80160626D01*
X81150494Y-80222537D01*
X81197137Y-80253703D01*
X81351918Y-80317816D01*
X81516228Y-80350499D01*
X81516232Y-80350500D01*
X81516233Y-80350500D01*
X81683768Y-80350500D01*
X81683769Y-80350499D01*
X81848082Y-80317816D01*
X82002863Y-80253703D01*
X82142162Y-80160626D01*
X82146872Y-80156761D01*
X82147912Y-80158028D01*
X82202293Y-80128334D01*
X82228651Y-80125500D01*
X82810944Y-80125500D01*
X82877983Y-80145185D01*
X82911263Y-80176616D01*
X82949895Y-80229789D01*
X82949897Y-80229792D01*
X83100213Y-80380108D01*
X83272182Y-80505049D01*
X83280946Y-80509515D01*
X83331742Y-80557490D01*
X83348536Y-80625311D01*
X83325998Y-80691446D01*
X83280946Y-80730483D01*
X83272182Y-80734948D01*
X83100213Y-80859889D01*
X82949890Y-81010212D01*
X82824951Y-81182178D01*
X82728444Y-81371582D01*
X82662753Y-81573755D01*
X82661619Y-81578484D01*
X82659529Y-81577982D01*
X82633444Y-81633023D01*
X82574136Y-81669960D01*
X82540892Y-81674500D01*
X82228651Y-81674500D01*
X82161612Y-81654815D01*
X82147021Y-81643057D01*
X82146872Y-81643239D01*
X82142162Y-81639373D01*
X82002860Y-81546295D01*
X81848082Y-81482184D01*
X81848074Y-81482182D01*
X81683771Y-81449500D01*
X81683767Y-81449500D01*
X81516233Y-81449500D01*
X81516228Y-81449500D01*
X81351925Y-81482182D01*
X81351917Y-81482184D01*
X81197139Y-81546295D01*
X81057837Y-81639373D01*
X80939373Y-81757837D01*
X80846295Y-81897139D01*
X80782184Y-82051917D01*
X80782182Y-82051925D01*
X80749500Y-82216228D01*
X80749500Y-82383771D01*
X80782182Y-82548074D01*
X80782184Y-82548082D01*
X80846295Y-82702860D01*
X80939373Y-82842162D01*
X81057837Y-82960626D01*
X81150494Y-83022537D01*
X81197137Y-83053703D01*
X81351918Y-83117816D01*
X81516228Y-83150499D01*
X81516232Y-83150500D01*
X81516233Y-83150500D01*
X81683768Y-83150500D01*
X81683769Y-83150499D01*
X81848082Y-83117816D01*
X82002863Y-83053703D01*
X82142162Y-82960626D01*
X82146872Y-82956761D01*
X82147912Y-82958028D01*
X82202293Y-82928334D01*
X82228651Y-82925500D01*
X83067347Y-82925500D01*
X83086845Y-82931225D01*
X83107150Y-82932062D01*
X83130045Y-82943910D01*
X83134386Y-82945185D01*
X83138624Y-82948033D01*
X83139417Y-82948590D01*
X83272184Y-83045050D01*
X83288751Y-83053491D01*
X83295927Y-83058532D01*
X83312457Y-83079276D01*
X83331742Y-83097490D01*
X83333892Y-83106176D01*
X83339469Y-83113174D01*
X83342159Y-83139560D01*
X83348536Y-83165311D01*
X83345649Y-83173781D01*
X83346557Y-83182684D01*
X83334554Y-83206337D01*
X83325998Y-83231446D01*
X83318530Y-83237916D01*
X83314941Y-83244991D01*
X83300810Y-83253270D01*
X83280946Y-83270483D01*
X83272182Y-83274948D01*
X83100213Y-83399889D01*
X82949890Y-83550212D01*
X82824951Y-83722178D01*
X82728444Y-83911584D01*
X82662753Y-84113759D01*
X82629500Y-84323712D01*
X82629500Y-84536285D01*
X82662753Y-84746238D01*
X82728444Y-84948413D01*
X82824951Y-85137819D01*
X82949890Y-85309785D01*
X83100213Y-85460108D01*
X83272179Y-85585047D01*
X83272181Y-85585048D01*
X83272184Y-85585050D01*
X83461588Y-85681556D01*
X83663757Y-85747245D01*
X83873713Y-85780499D01*
X83873714Y-85780499D01*
X84086286Y-85780499D01*
X84086287Y-85780499D01*
X84296243Y-85747245D01*
X84498412Y-85681556D01*
X84687816Y-85585050D01*
X84709789Y-85569085D01*
X84859786Y-85460108D01*
X84859788Y-85460105D01*
X84859792Y-85460103D01*
X85010104Y-85309791D01*
X85010106Y-85309787D01*
X85010109Y-85309785D01*
X85135048Y-85137819D01*
X85135047Y-85137819D01*
X85135051Y-85137815D01*
X85139514Y-85129053D01*
X85187488Y-85078258D01*
X85255308Y-85061462D01*
X85321444Y-85083998D01*
X85360486Y-85129055D01*
X85364951Y-85137819D01*
X85489890Y-85309785D01*
X85640213Y-85460108D01*
X85812179Y-85585047D01*
X85812181Y-85585048D01*
X85812184Y-85585050D01*
X86001588Y-85681556D01*
X86203757Y-85747245D01*
X86413713Y-85780499D01*
X86413714Y-85780499D01*
X86626286Y-85780499D01*
X86626287Y-85780499D01*
X86836243Y-85747245D01*
X87038412Y-85681556D01*
X87227816Y-85585050D01*
X87249789Y-85569085D01*
X87399786Y-85460108D01*
X87399788Y-85460105D01*
X87399792Y-85460103D01*
X87550104Y-85309791D01*
X87550106Y-85309787D01*
X87550109Y-85309785D01*
X87675048Y-85137819D01*
X87675047Y-85137819D01*
X87675051Y-85137815D01*
X87771557Y-84948411D01*
X87837246Y-84746242D01*
X87870500Y-84536286D01*
X87870500Y-84323712D01*
X87837246Y-84113756D01*
X87771557Y-83911587D01*
X87675051Y-83722183D01*
X87675049Y-83722180D01*
X87675048Y-83722178D01*
X87550109Y-83550212D01*
X87399786Y-83399889D01*
X87227820Y-83274950D01*
X87038414Y-83178443D01*
X87038413Y-83178442D01*
X87038412Y-83178442D01*
X86836243Y-83112753D01*
X86836241Y-83112752D01*
X86836240Y-83112752D01*
X86674957Y-83087207D01*
X86626287Y-83079499D01*
X86413713Y-83079499D01*
X86365042Y-83087207D01*
X86203760Y-83112752D01*
X86001585Y-83178443D01*
X85812179Y-83274950D01*
X85640213Y-83399889D01*
X85489890Y-83550212D01*
X85364949Y-83722181D01*
X85360484Y-83730945D01*
X85312509Y-83781741D01*
X85244688Y-83798535D01*
X85178553Y-83775997D01*
X85139516Y-83730945D01*
X85135050Y-83722181D01*
X85010109Y-83550212D01*
X84859786Y-83399889D01*
X84687820Y-83274950D01*
X84687115Y-83274590D01*
X84679054Y-83270484D01*
X84628259Y-83222511D01*
X84611463Y-83154691D01*
X84633999Y-83088555D01*
X84679054Y-83049514D01*
X84687816Y-83045050D01*
X84709789Y-83029085D01*
X84859786Y-82920108D01*
X84859788Y-82920105D01*
X84859792Y-82920103D01*
X85010104Y-82769791D01*
X85010106Y-82769787D01*
X85010109Y-82769785D01*
X85135048Y-82597819D01*
X85135047Y-82597819D01*
X85135051Y-82597815D01*
X85231557Y-82408411D01*
X85297246Y-82206242D01*
X85330500Y-81996286D01*
X85330500Y-81783712D01*
X85297246Y-81573756D01*
X85231557Y-81371587D01*
X85135051Y-81182183D01*
X85135049Y-81182180D01*
X85135048Y-81182178D01*
X85010109Y-81010212D01*
X84859786Y-80859889D01*
X84687820Y-80734950D01*
X84687115Y-80734590D01*
X84679054Y-80730484D01*
X84628259Y-80682511D01*
X84611463Y-80614691D01*
X84633999Y-80548555D01*
X84679054Y-80509514D01*
X84687816Y-80505050D01*
X84709789Y-80489085D01*
X84859786Y-80380108D01*
X84859788Y-80380105D01*
X84859792Y-80380103D01*
X85010104Y-80229791D01*
X85010106Y-80229787D01*
X85010109Y-80229785D01*
X85135048Y-80057819D01*
X85135047Y-80057819D01*
X85135051Y-80057815D01*
X85139514Y-80049053D01*
X85187488Y-79998258D01*
X85255308Y-79981462D01*
X85321444Y-80003998D01*
X85360486Y-80049055D01*
X85364951Y-80057819D01*
X85489890Y-80229785D01*
X85640213Y-80380108D01*
X85812179Y-80505047D01*
X85812181Y-80505048D01*
X85812184Y-80505050D01*
X86001588Y-80601556D01*
X86203757Y-80667245D01*
X86413713Y-80700499D01*
X86413714Y-80700499D01*
X86626286Y-80700499D01*
X86626287Y-80700499D01*
X86836243Y-80667245D01*
X87038412Y-80601556D01*
X87227816Y-80505050D01*
X87249789Y-80489085D01*
X87399786Y-80380108D01*
X87399788Y-80380105D01*
X87399792Y-80380103D01*
X87550104Y-80229791D01*
X87588738Y-80176615D01*
X87644067Y-80133949D01*
X87689056Y-80125500D01*
X88371349Y-80125500D01*
X88438388Y-80145185D01*
X88452978Y-80156942D01*
X88453128Y-80156761D01*
X88457837Y-80160626D01*
X88550494Y-80222537D01*
X88597137Y-80253703D01*
X88751918Y-80317816D01*
X88916228Y-80350499D01*
X88916232Y-80350500D01*
X88916233Y-80350500D01*
X89083768Y-80350500D01*
X89083769Y-80350499D01*
X89248082Y-80317816D01*
X89402863Y-80253703D01*
X89542162Y-80160626D01*
X89660626Y-80042162D01*
X89753703Y-79902863D01*
X89817816Y-79748082D01*
X89850500Y-79583767D01*
X89850500Y-79416233D01*
X89817816Y-79251918D01*
X89753703Y-79097137D01*
X89722537Y-79050494D01*
X89660626Y-78957837D01*
X89542162Y-78839373D01*
X89402860Y-78746295D01*
X89248082Y-78682184D01*
X89248074Y-78682182D01*
X89083771Y-78649500D01*
X89083767Y-78649500D01*
X88916233Y-78649500D01*
X88916228Y-78649500D01*
X88751925Y-78682182D01*
X88751917Y-78682184D01*
X88597139Y-78746295D01*
X88457837Y-78839373D01*
X88453128Y-78843239D01*
X88452087Y-78841971D01*
X88397707Y-78871666D01*
X88371349Y-78874500D01*
X87869410Y-78874500D01*
X87802371Y-78854815D01*
X87758925Y-78806795D01*
X87705397Y-78701741D01*
X87675051Y-78642183D01*
X87675049Y-78642180D01*
X87675048Y-78642178D01*
X87550109Y-78470212D01*
X87399786Y-78319889D01*
X87227820Y-78194950D01*
X87227115Y-78194590D01*
X87219054Y-78190484D01*
X87168259Y-78142511D01*
X87151463Y-78074691D01*
X87173999Y-78008555D01*
X87219054Y-77969514D01*
X87227816Y-77965050D01*
X87249789Y-77949085D01*
X87399786Y-77840108D01*
X87399788Y-77840105D01*
X87399792Y-77840103D01*
X87550104Y-77689791D01*
X87550106Y-77689787D01*
X87550109Y-77689785D01*
X87675048Y-77517819D01*
X87675047Y-77517819D01*
X87675051Y-77517815D01*
X87771557Y-77328411D01*
X87837246Y-77126242D01*
X87870500Y-76916286D01*
X87870500Y-76849500D01*
X87890185Y-76782461D01*
X87942989Y-76736706D01*
X87994500Y-76725500D01*
X91171349Y-76725500D01*
X91238388Y-76745185D01*
X91252978Y-76756942D01*
X91253128Y-76756761D01*
X91257837Y-76760626D01*
X91290516Y-76782461D01*
X91397137Y-76853703D01*
X91551918Y-76917816D01*
X91716228Y-76950499D01*
X91716232Y-76950500D01*
X91716233Y-76950500D01*
X91883768Y-76950500D01*
X91883769Y-76950499D01*
X92048082Y-76917816D01*
X92202863Y-76853703D01*
X92342162Y-76760626D01*
X92460626Y-76642162D01*
X92553703Y-76502863D01*
X92617816Y-76348082D01*
X92650500Y-76183767D01*
X92650500Y-76016233D01*
X92617816Y-75851918D01*
X92553703Y-75697137D01*
X92496425Y-75611415D01*
X92460626Y-75557837D01*
X92342162Y-75439373D01*
X92202860Y-75346295D01*
X92048082Y-75282184D01*
X92048074Y-75282182D01*
X91883771Y-75249500D01*
X91883767Y-75249500D01*
X91716233Y-75249500D01*
X91716228Y-75249500D01*
X91551925Y-75282182D01*
X91551917Y-75282184D01*
X91401761Y-75344381D01*
X91332291Y-75351850D01*
X91269812Y-75320575D01*
X91234160Y-75260486D01*
X91236654Y-75190661D01*
X91243824Y-75173524D01*
X91280806Y-75100943D01*
X91356952Y-74866589D01*
X91395500Y-74623208D01*
X91395500Y-74500000D01*
X93250000Y-74500000D01*
X93251806Y-74573601D01*
X93251806Y-74573614D01*
X93251807Y-74573615D01*
X93257222Y-74647035D01*
X93266233Y-74720087D01*
X93266239Y-74720124D01*
X93278823Y-74792643D01*
X93294948Y-74864452D01*
X93314588Y-74935425D01*
X93314593Y-74935441D01*
X93325698Y-74969055D01*
X93337683Y-75005334D01*
X93364180Y-75074025D01*
X93394016Y-75141332D01*
X93394019Y-75141337D01*
X93427109Y-75207080D01*
X93427115Y-75207091D01*
X93463399Y-75271140D01*
X93463419Y-75271174D01*
X93502793Y-75333352D01*
X93545186Y-75393546D01*
X93545192Y-75393553D01*
X93590465Y-75451566D01*
X93590476Y-75451578D01*
X93590484Y-75451589D01*
X93638573Y-75507338D01*
X93655029Y-75524622D01*
X93689338Y-75560660D01*
X93723647Y-75593324D01*
X93742661Y-75611426D01*
X93798410Y-75659515D01*
X93798421Y-75659524D01*
X93798432Y-75659533D01*
X93840405Y-75692288D01*
X93856451Y-75704811D01*
X93916644Y-75747204D01*
X93916646Y-75747205D01*
X93968259Y-75779889D01*
X93978845Y-75786592D01*
X94013959Y-75806484D01*
X94042907Y-75822883D01*
X94042918Y-75822889D01*
X94074798Y-75838935D01*
X94108667Y-75855983D01*
X94175974Y-75885819D01*
X94244665Y-75912316D01*
X94314572Y-75935410D01*
X94385529Y-75955046D01*
X94385542Y-75955049D01*
X94385546Y-75955050D01*
X94457355Y-75971175D01*
X94457364Y-75971177D01*
X94506724Y-75979741D01*
X94529874Y-75983759D01*
X94529892Y-75983761D01*
X94529904Y-75983764D01*
X94529907Y-75983764D01*
X94529911Y-75983765D01*
X94602963Y-75992776D01*
X94602970Y-75992776D01*
X94602974Y-75992777D01*
X94676398Y-75998193D01*
X94750000Y-76000000D01*
X94823601Y-75998193D01*
X94897025Y-75992777D01*
X94897030Y-75992776D01*
X94897035Y-75992776D01*
X94970087Y-75983765D01*
X94970087Y-75983764D01*
X94970095Y-75983764D01*
X95042635Y-75971177D01*
X95114470Y-75955046D01*
X95185427Y-75935410D01*
X95255334Y-75912316D01*
X95324025Y-75885819D01*
X95391332Y-75855983D01*
X95441784Y-75830587D01*
X95457080Y-75822889D01*
X95457091Y-75822883D01*
X95457095Y-75822881D01*
X95521154Y-75786592D01*
X95583355Y-75747204D01*
X95643548Y-75704811D01*
X95701589Y-75659515D01*
X95757338Y-75611426D01*
X95810660Y-75560660D01*
X95861426Y-75507338D01*
X95909515Y-75451589D01*
X95954811Y-75393548D01*
X95997204Y-75333355D01*
X96036592Y-75271154D01*
X96072881Y-75207095D01*
X96105983Y-75141332D01*
X96135819Y-75074025D01*
X96162316Y-75005334D01*
X96185410Y-74935427D01*
X96205046Y-74864470D01*
X96221177Y-74792635D01*
X96233764Y-74720095D01*
X96242777Y-74647025D01*
X96248193Y-74573601D01*
X96250000Y-74500000D01*
X96248193Y-74426398D01*
X96244534Y-74376792D01*
X96564500Y-74376792D01*
X96564500Y-74623208D01*
X96579850Y-74720124D01*
X96603048Y-74866590D01*
X96603048Y-74866593D01*
X96679192Y-75100940D01*
X96777666Y-75294205D01*
X96791064Y-75320501D01*
X96935903Y-75519855D01*
X97110145Y-75694097D01*
X97309499Y-75838936D01*
X97453508Y-75912312D01*
X97529059Y-75950807D01*
X97763407Y-76026951D01*
X97763408Y-76026951D01*
X97763411Y-76026952D01*
X98006792Y-76065500D01*
X98006793Y-76065500D01*
X98253207Y-76065500D01*
X98253208Y-76065500D01*
X98496589Y-76026952D01*
X98496592Y-76026951D01*
X98496593Y-76026951D01*
X98730940Y-75950807D01*
X98730940Y-75950806D01*
X98730943Y-75950806D01*
X98950501Y-75838936D01*
X99149855Y-75694097D01*
X99324097Y-75519855D01*
X99468936Y-75320501D01*
X99580806Y-75100943D01*
X99656952Y-74866589D01*
X99695500Y-74623208D01*
X99695500Y-74376792D01*
X99656952Y-74133411D01*
X99656951Y-74133407D01*
X99656951Y-74133406D01*
X99580807Y-73899059D01*
X99560223Y-73858661D01*
X99468936Y-73679499D01*
X99324097Y-73480145D01*
X99149855Y-73305903D01*
X98950501Y-73161064D01*
X98851234Y-73110485D01*
X98730940Y-73049192D01*
X98496592Y-72973048D01*
X98314053Y-72944137D01*
X98253208Y-72934500D01*
X98006792Y-72934500D01*
X97925665Y-72947349D01*
X97763409Y-72973048D01*
X97763406Y-72973048D01*
X97529059Y-73049192D01*
X97309498Y-73161064D01*
X97110142Y-73305905D01*
X96935905Y-73480142D01*
X96791064Y-73679498D01*
X96679192Y-73899059D01*
X96603048Y-74133406D01*
X96603048Y-74133409D01*
X96568274Y-74352963D01*
X96564500Y-74376792D01*
X96244534Y-74376792D01*
X96242777Y-74352974D01*
X96233764Y-74279904D01*
X96221177Y-74207364D01*
X96205046Y-74135529D01*
X96185410Y-74064572D01*
X96162316Y-73994665D01*
X96135819Y-73925974D01*
X96105983Y-73858667D01*
X96080655Y-73808348D01*
X96072889Y-73792918D01*
X96072883Y-73792907D01*
X96036599Y-73728858D01*
X96036592Y-73728845D01*
X95997204Y-73666644D01*
X95954811Y-73606451D01*
X95942288Y-73590405D01*
X95909533Y-73548432D01*
X95909524Y-73548421D01*
X95909515Y-73548410D01*
X95861426Y-73492661D01*
X95843324Y-73473647D01*
X95810660Y-73439338D01*
X95774622Y-73405029D01*
X95757338Y-73388573D01*
X95701589Y-73340484D01*
X95701578Y-73340476D01*
X95701566Y-73340465D01*
X95643553Y-73295192D01*
X95643546Y-73295186D01*
X95583352Y-73252793D01*
X95521174Y-73213419D01*
X95521140Y-73213399D01*
X95457091Y-73177115D01*
X95457080Y-73177109D01*
X95407772Y-73152291D01*
X95391332Y-73144016D01*
X95324025Y-73114180D01*
X95314446Y-73110485D01*
X95255343Y-73087686D01*
X95255317Y-73087677D01*
X95185441Y-73064593D01*
X95185425Y-73064588D01*
X95114452Y-73044948D01*
X95042643Y-73028823D01*
X94970124Y-73016239D01*
X94970087Y-73016233D01*
X94897035Y-73007222D01*
X94823615Y-73001807D01*
X94823614Y-73001806D01*
X94823601Y-73001806D01*
X94750000Y-73000000D01*
X94749999Y-73000000D01*
X94747247Y-73000067D01*
X94676398Y-73001806D01*
X94676385Y-73001806D01*
X94676383Y-73001807D01*
X94602963Y-73007222D01*
X94529911Y-73016233D01*
X94529874Y-73016239D01*
X94457355Y-73028823D01*
X94385546Y-73044948D01*
X94314573Y-73064588D01*
X94314557Y-73064593D01*
X94244681Y-73087677D01*
X94244655Y-73087686D01*
X94175973Y-73114180D01*
X94137894Y-73131060D01*
X94108667Y-73144016D01*
X94108661Y-73144018D01*
X94108661Y-73144019D01*
X94042918Y-73177109D01*
X94042907Y-73177115D01*
X93978858Y-73213399D01*
X93978824Y-73213419D01*
X93916646Y-73252793D01*
X93856452Y-73295186D01*
X93856445Y-73295192D01*
X93798432Y-73340465D01*
X93798410Y-73340484D01*
X93742661Y-73388573D01*
X93742655Y-73388578D01*
X93742650Y-73388583D01*
X93689338Y-73439338D01*
X93638583Y-73492650D01*
X93638573Y-73492661D01*
X93610246Y-73525500D01*
X93590465Y-73548432D01*
X93545192Y-73606445D01*
X93545186Y-73606452D01*
X93502793Y-73666646D01*
X93463419Y-73728824D01*
X93463399Y-73728858D01*
X93427115Y-73792907D01*
X93427109Y-73792918D01*
X93394019Y-73858661D01*
X93364180Y-73925973D01*
X93337686Y-73994655D01*
X93337677Y-73994681D01*
X93314593Y-74064557D01*
X93314588Y-74064573D01*
X93294948Y-74135546D01*
X93278823Y-74207355D01*
X93266239Y-74279874D01*
X93266233Y-74279911D01*
X93257222Y-74352963D01*
X93251807Y-74426383D01*
X93251806Y-74426398D01*
X93250000Y-74500000D01*
X91395500Y-74500000D01*
X91395500Y-74376792D01*
X91356952Y-74133411D01*
X91356951Y-74133407D01*
X91356951Y-74133406D01*
X91280807Y-73899059D01*
X91260223Y-73858661D01*
X91168936Y-73679499D01*
X91024097Y-73480145D01*
X90849855Y-73305903D01*
X90650501Y-73161064D01*
X90551234Y-73110485D01*
X90430940Y-73049192D01*
X90196592Y-72973048D01*
X90014053Y-72944137D01*
X89953208Y-72934500D01*
X89706792Y-72934500D01*
X89625665Y-72947349D01*
X89463409Y-72973048D01*
X89463406Y-72973048D01*
X89229059Y-73049192D01*
X89009498Y-73161064D01*
X88810142Y-73305905D01*
X88635905Y-73480142D01*
X88491064Y-73679498D01*
X88379192Y-73899059D01*
X88303048Y-74133406D01*
X88303048Y-74133409D01*
X88268274Y-74352963D01*
X88264500Y-74376792D01*
X88264500Y-74623208D01*
X88279850Y-74720124D01*
X88303048Y-74866590D01*
X88303048Y-74866593D01*
X88379192Y-75100940D01*
X88404080Y-75149785D01*
X88465913Y-75271140D01*
X88477666Y-75294205D01*
X88490562Y-75362874D01*
X88464286Y-75427615D01*
X88407179Y-75467872D01*
X88367181Y-75474500D01*
X87524757Y-75474500D01*
X87457718Y-75454815D01*
X87411963Y-75402011D01*
X87402019Y-75332853D01*
X87431044Y-75269297D01*
X87437076Y-75262819D01*
X87492815Y-75207080D01*
X87550104Y-75149791D01*
X87550106Y-75149787D01*
X87550109Y-75149785D01*
X87675048Y-74977819D01*
X87675047Y-74977819D01*
X87675051Y-74977815D01*
X87771557Y-74788411D01*
X87837246Y-74586242D01*
X87870500Y-74376286D01*
X87870500Y-74163712D01*
X87837246Y-73953756D01*
X87771557Y-73751587D01*
X87675051Y-73562183D01*
X87675049Y-73562180D01*
X87675048Y-73562178D01*
X87550109Y-73390212D01*
X87399786Y-73239889D01*
X87227820Y-73114950D01*
X87038414Y-73018443D01*
X87038413Y-73018442D01*
X87038412Y-73018442D01*
X86836243Y-72952753D01*
X86836241Y-72952752D01*
X86836240Y-72952752D01*
X86674957Y-72927207D01*
X86626287Y-72919499D01*
X86413713Y-72919499D01*
X86365042Y-72927207D01*
X86203760Y-72952752D01*
X86001585Y-73018443D01*
X85812179Y-73114950D01*
X85640213Y-73239889D01*
X85489890Y-73390212D01*
X85364949Y-73562181D01*
X85360484Y-73570945D01*
X85312509Y-73621741D01*
X85244688Y-73638535D01*
X85178553Y-73615997D01*
X85139516Y-73570945D01*
X85135050Y-73562181D01*
X85010109Y-73390212D01*
X84859786Y-73239889D01*
X84687820Y-73114950D01*
X84686309Y-73114180D01*
X84679054Y-73110484D01*
X84628259Y-73062511D01*
X84611463Y-72994691D01*
X84633999Y-72928555D01*
X84679054Y-72889514D01*
X84687816Y-72885050D01*
X84711311Y-72867980D01*
X84859786Y-72760108D01*
X84859788Y-72760105D01*
X84859792Y-72760103D01*
X85010104Y-72609791D01*
X85010106Y-72609787D01*
X85010109Y-72609785D01*
X85135048Y-72437819D01*
X85135047Y-72437819D01*
X85135051Y-72437815D01*
X85231557Y-72248411D01*
X85297246Y-72046242D01*
X85330500Y-71836286D01*
X85330500Y-71623712D01*
X85297246Y-71413756D01*
X85231557Y-71211587D01*
X85135051Y-71022183D01*
X85135049Y-71022180D01*
X85135048Y-71022178D01*
X85010109Y-70850212D01*
X84859786Y-70699889D01*
X84687820Y-70574950D01*
X84687115Y-70574590D01*
X84679054Y-70570484D01*
X84628259Y-70522511D01*
X84611463Y-70454691D01*
X84633999Y-70388555D01*
X84679054Y-70349514D01*
X84687816Y-70345050D01*
X84709789Y-70329085D01*
X84859786Y-70220108D01*
X84859788Y-70220105D01*
X84859792Y-70220103D01*
X85010104Y-70069791D01*
X85010106Y-70069787D01*
X85010109Y-70069785D01*
X85135048Y-69897819D01*
X85135047Y-69897819D01*
X85135051Y-69897815D01*
X85139514Y-69889053D01*
X85187488Y-69838258D01*
X85255308Y-69821462D01*
X85321444Y-69843998D01*
X85360486Y-69889055D01*
X85364951Y-69897819D01*
X85489890Y-70069785D01*
X85640213Y-70220108D01*
X85812179Y-70345047D01*
X85812181Y-70345048D01*
X85812184Y-70345050D01*
X86001588Y-70441556D01*
X86203757Y-70507245D01*
X86413713Y-70540499D01*
X86413714Y-70540499D01*
X86626286Y-70540499D01*
X86626287Y-70540499D01*
X86836243Y-70507245D01*
X87038412Y-70441556D01*
X87227816Y-70345050D01*
X87249789Y-70329085D01*
X87399786Y-70220108D01*
X87399788Y-70220105D01*
X87399792Y-70220103D01*
X87550104Y-70069791D01*
X87550106Y-70069787D01*
X87550109Y-70069785D01*
X87675048Y-69897819D01*
X87675047Y-69897819D01*
X87675051Y-69897815D01*
X87771557Y-69708411D01*
X87837246Y-69506242D01*
X87870500Y-69296286D01*
X87870500Y-69249500D01*
X87890185Y-69182461D01*
X87942989Y-69136706D01*
X87994500Y-69125500D01*
X99171349Y-69125500D01*
X99238388Y-69145185D01*
X99252978Y-69156942D01*
X99253128Y-69156761D01*
X99257837Y-69160626D01*
X99290516Y-69182461D01*
X99397137Y-69253703D01*
X99551918Y-69317816D01*
X99716228Y-69350499D01*
X99716232Y-69350500D01*
X99716233Y-69350500D01*
X99883768Y-69350500D01*
X99883769Y-69350499D01*
X100048082Y-69317816D01*
X100202863Y-69253703D01*
X100342162Y-69160626D01*
X100460626Y-69042162D01*
X100553703Y-68902863D01*
X100617816Y-68748082D01*
X100650500Y-68583767D01*
X100650500Y-68416233D01*
X100617816Y-68251918D01*
X100553703Y-68097137D01*
X100512151Y-68034950D01*
X100460626Y-67957837D01*
X100342162Y-67839373D01*
X100202860Y-67746295D01*
X100048082Y-67682184D01*
X100048074Y-67682182D01*
X99883771Y-67649500D01*
X99883767Y-67649500D01*
X99716233Y-67649500D01*
X99716228Y-67649500D01*
X99551925Y-67682182D01*
X99551917Y-67682184D01*
X99397139Y-67746295D01*
X99257837Y-67839373D01*
X99253128Y-67843239D01*
X99252087Y-67841971D01*
X99197707Y-67871666D01*
X99171349Y-67874500D01*
X87504757Y-67874500D01*
X87437718Y-67854815D01*
X87391963Y-67802011D01*
X87382019Y-67732853D01*
X87411044Y-67669297D01*
X87417076Y-67662819D01*
X87430395Y-67649500D01*
X87550104Y-67529791D01*
X87550106Y-67529787D01*
X87550109Y-67529785D01*
X87675048Y-67357819D01*
X87675047Y-67357819D01*
X87675051Y-67357815D01*
X87771557Y-67168411D01*
X87837246Y-66966242D01*
X87870500Y-66756286D01*
X87870500Y-66649500D01*
X87890185Y-66582461D01*
X87942989Y-66536706D01*
X87994500Y-66525500D01*
X102171349Y-66525500D01*
X102238388Y-66545185D01*
X102252978Y-66556942D01*
X102253128Y-66556761D01*
X102257837Y-66560626D01*
X102290516Y-66582461D01*
X102397137Y-66653703D01*
X102551918Y-66717816D01*
X102716228Y-66750499D01*
X102716232Y-66750500D01*
X102716233Y-66750500D01*
X102883768Y-66750500D01*
X102883769Y-66750499D01*
X103048082Y-66717816D01*
X103202863Y-66653703D01*
X103342162Y-66560626D01*
X103460626Y-66442162D01*
X103553703Y-66302863D01*
X103617816Y-66148082D01*
X103650500Y-65983767D01*
X103650500Y-65816233D01*
X103647360Y-65800447D01*
X103653587Y-65730856D01*
X103696449Y-65675678D01*
X103762339Y-65652433D01*
X103816427Y-65661693D01*
X103951918Y-65717816D01*
X104116228Y-65750499D01*
X104116232Y-65750500D01*
X104116233Y-65750500D01*
X104283768Y-65750500D01*
X104283769Y-65750499D01*
X104448082Y-65717816D01*
X104602863Y-65653703D01*
X104742162Y-65560626D01*
X104860626Y-65442162D01*
X104953703Y-65302863D01*
X105017816Y-65148082D01*
X105050500Y-64983767D01*
X105050500Y-64816233D01*
X105017816Y-64651918D01*
X104953703Y-64497137D01*
X104898249Y-64414144D01*
X104860626Y-64357837D01*
X104742162Y-64239373D01*
X104602860Y-64146295D01*
X104448082Y-64082184D01*
X104448074Y-64082182D01*
X104283771Y-64049500D01*
X104283767Y-64049500D01*
X104116233Y-64049500D01*
X104116228Y-64049500D01*
X103951925Y-64082182D01*
X103951917Y-64082184D01*
X103797139Y-64146295D01*
X103657837Y-64239373D01*
X103653128Y-64243239D01*
X103652087Y-64241971D01*
X103597707Y-64271666D01*
X103571349Y-64274500D01*
X102538389Y-64274500D01*
X102417555Y-64298535D01*
X102417545Y-64298538D01*
X102303716Y-64345687D01*
X102303707Y-64345692D01*
X102201267Y-64414141D01*
X102201263Y-64414144D01*
X102177228Y-64438180D01*
X102115905Y-64471665D01*
X102089547Y-64474499D01*
X93835828Y-64474499D01*
X93768789Y-64454814D01*
X93723034Y-64402010D01*
X93713090Y-64332852D01*
X93716752Y-64315904D01*
X93734500Y-64254815D01*
X93747765Y-64209156D01*
X93750500Y-64174405D01*
X93750499Y-63825596D01*
X93747765Y-63790844D01*
X93704555Y-63642113D01*
X93625715Y-63508802D01*
X93625713Y-63508800D01*
X93625710Y-63508796D01*
X93516203Y-63399289D01*
X93516194Y-63399282D01*
X93435111Y-63351330D01*
X93382887Y-63320445D01*
X93234156Y-63277235D01*
X93234153Y-63277234D01*
X93234151Y-63277234D01*
X93199410Y-63274500D01*
X93199405Y-63274500D01*
X92861609Y-63274500D01*
X92861606Y-63274500D01*
X92021668Y-63274500D01*
X91997477Y-63272117D01*
X91883770Y-63249499D01*
X91883767Y-63249499D01*
X91716233Y-63249499D01*
X91716229Y-63249499D01*
X91602523Y-63272117D01*
X91578332Y-63274500D01*
X91028651Y-63274500D01*
X90961612Y-63254815D01*
X90947021Y-63243057D01*
X90946872Y-63243239D01*
X90942162Y-63239373D01*
X90802860Y-63146295D01*
X90648077Y-63082182D01*
X90644968Y-63081239D01*
X90643538Y-63080302D01*
X90642454Y-63079853D01*
X90642539Y-63079647D01*
X90586531Y-63042939D01*
X90558077Y-62979126D01*
X90568640Y-62910059D01*
X90614866Y-62857668D01*
X90624668Y-62852098D01*
X90650501Y-62838936D01*
X90849855Y-62694097D01*
X91024097Y-62519855D01*
X91168936Y-62320501D01*
X91280806Y-62100943D01*
X91356952Y-61866589D01*
X91395500Y-61623208D01*
X91395500Y-61500000D01*
X93250000Y-61500000D01*
X93251806Y-61573601D01*
X93251806Y-61573614D01*
X93251807Y-61573615D01*
X93257222Y-61647035D01*
X93266233Y-61720087D01*
X93266239Y-61720124D01*
X93278823Y-61792643D01*
X93294948Y-61864452D01*
X93314588Y-61935425D01*
X93314593Y-61935441D01*
X93337677Y-62005317D01*
X93337683Y-62005334D01*
X93364180Y-62074025D01*
X93394016Y-62141332D01*
X93394019Y-62141337D01*
X93427109Y-62207080D01*
X93427115Y-62207091D01*
X93463399Y-62271140D01*
X93463419Y-62271174D01*
X93502793Y-62333352D01*
X93545186Y-62393546D01*
X93545192Y-62393553D01*
X93590465Y-62451566D01*
X93590476Y-62451578D01*
X93590484Y-62451589D01*
X93638573Y-62507338D01*
X93638583Y-62507348D01*
X93689338Y-62560660D01*
X93723647Y-62593324D01*
X93742661Y-62611426D01*
X93798410Y-62659515D01*
X93798421Y-62659524D01*
X93798432Y-62659533D01*
X93840405Y-62692288D01*
X93856451Y-62704811D01*
X93916644Y-62747204D01*
X93916646Y-62747205D01*
X93964559Y-62777546D01*
X93978845Y-62786592D01*
X93989719Y-62792752D01*
X94042907Y-62822883D01*
X94042918Y-62822889D01*
X94074798Y-62838935D01*
X94108667Y-62855983D01*
X94175974Y-62885819D01*
X94244665Y-62912316D01*
X94314572Y-62935410D01*
X94385529Y-62955046D01*
X94385542Y-62955049D01*
X94385546Y-62955050D01*
X94457355Y-62971175D01*
X94457364Y-62971177D01*
X94503175Y-62979126D01*
X94529874Y-62983759D01*
X94529892Y-62983761D01*
X94529904Y-62983764D01*
X94529907Y-62983764D01*
X94529911Y-62983765D01*
X94602963Y-62992776D01*
X94602970Y-62992776D01*
X94602974Y-62992777D01*
X94676398Y-62998193D01*
X94750000Y-63000000D01*
X94823601Y-62998193D01*
X94897025Y-62992777D01*
X94897030Y-62992776D01*
X94897035Y-62992776D01*
X94970087Y-62983765D01*
X94970087Y-62983764D01*
X94970095Y-62983764D01*
X95042635Y-62971177D01*
X95114470Y-62955046D01*
X95185427Y-62935410D01*
X95255334Y-62912316D01*
X95324025Y-62885819D01*
X95391332Y-62855983D01*
X95441784Y-62830587D01*
X95457080Y-62822889D01*
X95457091Y-62822883D01*
X95457095Y-62822881D01*
X95521154Y-62786592D01*
X95583355Y-62747204D01*
X95643548Y-62704811D01*
X95701589Y-62659515D01*
X95757338Y-62611426D01*
X95810660Y-62560660D01*
X95861426Y-62507338D01*
X95909515Y-62451589D01*
X95954811Y-62393548D01*
X95997204Y-62333355D01*
X96036592Y-62271154D01*
X96072881Y-62207095D01*
X96105983Y-62141332D01*
X96135819Y-62074025D01*
X96162316Y-62005334D01*
X96185410Y-61935427D01*
X96205046Y-61864470D01*
X96221177Y-61792635D01*
X96233764Y-61720095D01*
X96242777Y-61647025D01*
X96248193Y-61573601D01*
X96250000Y-61500000D01*
X96248193Y-61426398D01*
X96244534Y-61376792D01*
X96564500Y-61376792D01*
X96564500Y-61623208D01*
X96579850Y-61720124D01*
X96603048Y-61866590D01*
X96603048Y-61866593D01*
X96679192Y-62100940D01*
X96765931Y-62271174D01*
X96791064Y-62320501D01*
X96935903Y-62519855D01*
X97110145Y-62694097D01*
X97309499Y-62838936D01*
X97456998Y-62914090D01*
X97529059Y-62950807D01*
X97763407Y-63026951D01*
X97763408Y-63026951D01*
X97763411Y-63026952D01*
X98006792Y-63065500D01*
X98006793Y-63065500D01*
X98253207Y-63065500D01*
X98253208Y-63065500D01*
X98496589Y-63026952D01*
X98496592Y-63026951D01*
X98496593Y-63026951D01*
X98730940Y-62950807D01*
X98730940Y-62950806D01*
X98730943Y-62950806D01*
X98950501Y-62838936D01*
X99149855Y-62694097D01*
X99324097Y-62519855D01*
X99468936Y-62320501D01*
X99580806Y-62100943D01*
X99656952Y-61866589D01*
X99695500Y-61623208D01*
X99695500Y-61376792D01*
X99656952Y-61133411D01*
X99656951Y-61133407D01*
X99656951Y-61133406D01*
X99580807Y-60899059D01*
X99560223Y-60858661D01*
X99468936Y-60679499D01*
X99324097Y-60480145D01*
X99149855Y-60305903D01*
X98950501Y-60161064D01*
X98858486Y-60114180D01*
X98730940Y-60049192D01*
X98496592Y-59973048D01*
X98314053Y-59944137D01*
X98253208Y-59934500D01*
X98006792Y-59934500D01*
X97925665Y-59947349D01*
X97763409Y-59973048D01*
X97763406Y-59973048D01*
X97529059Y-60049192D01*
X97309498Y-60161064D01*
X97110142Y-60305905D01*
X96935905Y-60480142D01*
X96791064Y-60679498D01*
X96679192Y-60899059D01*
X96603048Y-61133406D01*
X96603048Y-61133409D01*
X96568274Y-61352963D01*
X96564500Y-61376792D01*
X96244534Y-61376792D01*
X96242777Y-61352974D01*
X96233764Y-61279904D01*
X96221177Y-61207364D01*
X96205046Y-61135529D01*
X96185410Y-61064572D01*
X96162316Y-60994665D01*
X96135819Y-60925974D01*
X96105983Y-60858667D01*
X96089204Y-60825333D01*
X96072889Y-60792918D01*
X96072883Y-60792907D01*
X96036599Y-60728858D01*
X96036592Y-60728845D01*
X95997204Y-60666644D01*
X95972612Y-60631726D01*
X95954812Y-60606452D01*
X95954806Y-60606445D01*
X95909533Y-60548432D01*
X95909524Y-60548421D01*
X95909515Y-60548410D01*
X95861426Y-60492661D01*
X95843324Y-60473647D01*
X95810660Y-60439338D01*
X95774622Y-60405029D01*
X95757338Y-60388573D01*
X95701589Y-60340484D01*
X95701578Y-60340476D01*
X95701566Y-60340465D01*
X95643553Y-60295192D01*
X95643546Y-60295186D01*
X95583352Y-60252793D01*
X95521174Y-60213419D01*
X95521140Y-60213399D01*
X95457091Y-60177115D01*
X95457080Y-60177109D01*
X95407772Y-60152291D01*
X95391332Y-60144016D01*
X95324025Y-60114180D01*
X95255343Y-60087686D01*
X95255317Y-60087677D01*
X95185441Y-60064593D01*
X95185425Y-60064588D01*
X95114452Y-60044948D01*
X95042643Y-60028823D01*
X94970124Y-60016239D01*
X94970087Y-60016233D01*
X94897035Y-60007222D01*
X94823615Y-60001807D01*
X94823614Y-60001806D01*
X94823601Y-60001806D01*
X94750000Y-60000000D01*
X94749999Y-60000000D01*
X94747247Y-60000067D01*
X94676398Y-60001806D01*
X94676385Y-60001806D01*
X94676383Y-60001807D01*
X94602963Y-60007222D01*
X94529911Y-60016233D01*
X94529874Y-60016239D01*
X94457355Y-60028823D01*
X94385546Y-60044948D01*
X94314573Y-60064588D01*
X94314557Y-60064593D01*
X94244681Y-60087677D01*
X94244655Y-60087686D01*
X94175973Y-60114180D01*
X94137894Y-60131060D01*
X94108667Y-60144016D01*
X94108661Y-60144018D01*
X94108661Y-60144019D01*
X94042918Y-60177109D01*
X94042907Y-60177115D01*
X93978858Y-60213399D01*
X93978824Y-60213419D01*
X93916646Y-60252793D01*
X93856452Y-60295186D01*
X93856445Y-60295192D01*
X93798432Y-60340465D01*
X93798410Y-60340484D01*
X93742661Y-60388573D01*
X93742655Y-60388578D01*
X93742650Y-60388583D01*
X93689338Y-60439338D01*
X93638583Y-60492650D01*
X93638573Y-60492661D01*
X93592521Y-60546047D01*
X93590465Y-60548432D01*
X93545192Y-60606445D01*
X93545186Y-60606452D01*
X93502793Y-60666646D01*
X93463419Y-60728824D01*
X93463399Y-60728858D01*
X93427115Y-60792907D01*
X93427109Y-60792918D01*
X93394019Y-60858661D01*
X93364180Y-60925973D01*
X93337686Y-60994655D01*
X93337677Y-60994681D01*
X93314593Y-61064557D01*
X93314588Y-61064573D01*
X93294948Y-61135546D01*
X93278823Y-61207355D01*
X93266239Y-61279874D01*
X93266233Y-61279911D01*
X93257222Y-61352963D01*
X93251807Y-61426383D01*
X93251806Y-61426398D01*
X93250000Y-61500000D01*
X91395500Y-61500000D01*
X91395500Y-61376792D01*
X91356952Y-61133411D01*
X91356951Y-61133407D01*
X91356951Y-61133406D01*
X91280807Y-60899059D01*
X91260223Y-60858661D01*
X91168936Y-60679499D01*
X91024097Y-60480145D01*
X90849855Y-60305903D01*
X90650501Y-60161064D01*
X90558486Y-60114180D01*
X90430940Y-60049192D01*
X90196592Y-59973048D01*
X90014053Y-59944137D01*
X89953208Y-59934500D01*
X89706792Y-59934500D01*
X89625665Y-59947349D01*
X89463409Y-59973048D01*
X89463406Y-59973048D01*
X89229059Y-60049192D01*
X89009498Y-60161064D01*
X88810142Y-60305905D01*
X88635905Y-60480142D01*
X88491064Y-60679498D01*
X88379192Y-60899059D01*
X88303048Y-61133406D01*
X88303048Y-61133409D01*
X88268274Y-61352963D01*
X88264500Y-61376792D01*
X88264500Y-61623208D01*
X88279850Y-61720124D01*
X88303048Y-61866590D01*
X88303048Y-61866593D01*
X88379192Y-62100940D01*
X88465931Y-62271174D01*
X88491064Y-62320501D01*
X88635903Y-62519855D01*
X88810145Y-62694097D01*
X89009499Y-62838936D01*
X89156998Y-62914090D01*
X89229059Y-62950807D01*
X89463407Y-63026951D01*
X89463408Y-63026951D01*
X89463411Y-63026952D01*
X89706792Y-63065500D01*
X89706793Y-63065500D01*
X89732349Y-63065500D01*
X89799388Y-63085185D01*
X89845143Y-63137989D01*
X89855087Y-63207147D01*
X89826062Y-63270703D01*
X89820030Y-63277181D01*
X89739376Y-63357834D01*
X89739373Y-63357837D01*
X89646295Y-63497139D01*
X89582184Y-63651917D01*
X89582182Y-63651925D01*
X89549500Y-63816228D01*
X89549500Y-63983770D01*
X89577853Y-64126309D01*
X89571626Y-64195900D01*
X89528763Y-64251078D01*
X89462873Y-64274322D01*
X89456236Y-64274500D01*
X87994500Y-64274500D01*
X87927461Y-64254815D01*
X87881706Y-64202011D01*
X87870500Y-64150500D01*
X87870500Y-64003712D01*
X87861688Y-63948074D01*
X87837246Y-63793756D01*
X87771557Y-63591587D01*
X87675051Y-63402183D01*
X87675049Y-63402180D01*
X87675048Y-63402178D01*
X87550109Y-63230212D01*
X87399786Y-63079889D01*
X87227820Y-62954950D01*
X87038414Y-62858443D01*
X87038413Y-62858442D01*
X87038412Y-62858442D01*
X86836243Y-62792753D01*
X86836241Y-62792752D01*
X86836240Y-62792752D01*
X86674957Y-62767207D01*
X86626287Y-62759499D01*
X86413713Y-62759499D01*
X86365042Y-62767207D01*
X86203760Y-62792752D01*
X86001585Y-62858443D01*
X85812179Y-62954950D01*
X85640213Y-63079889D01*
X85489890Y-63230212D01*
X85364949Y-63402181D01*
X85360484Y-63410945D01*
X85312509Y-63461741D01*
X85244688Y-63478535D01*
X85178553Y-63455997D01*
X85139516Y-63410945D01*
X85135050Y-63402181D01*
X85010109Y-63230212D01*
X84896569Y-63116672D01*
X84863084Y-63055349D01*
X84868068Y-62985657D01*
X84909940Y-62929724D01*
X84940915Y-62912809D01*
X85072331Y-62863795D01*
X85187546Y-62777545D01*
X85273796Y-62662330D01*
X85324091Y-62527482D01*
X85330500Y-62467872D01*
X85330499Y-60672127D01*
X85324091Y-60612516D01*
X85321829Y-60606452D01*
X85273797Y-60477670D01*
X85273793Y-60477663D01*
X85187547Y-60362454D01*
X85187544Y-60362451D01*
X85072335Y-60276205D01*
X85072328Y-60276201D01*
X84937482Y-60225907D01*
X84937483Y-60225907D01*
X84877883Y-60219500D01*
X84877881Y-60219499D01*
X84877873Y-60219499D01*
X84877864Y-60219499D01*
X83082129Y-60219499D01*
X83082123Y-60219500D01*
X83022516Y-60225907D01*
X82887671Y-60276201D01*
X82887664Y-60276205D01*
X82772455Y-60362451D01*
X82772452Y-60362454D01*
X82686206Y-60477663D01*
X82686202Y-60477670D01*
X82635908Y-60612516D01*
X82630089Y-60666644D01*
X82629501Y-60672122D01*
X82629500Y-60672134D01*
X82629500Y-62467869D01*
X82629501Y-62467875D01*
X82635908Y-62527482D01*
X82686202Y-62662327D01*
X82686206Y-62662334D01*
X82718005Y-62704811D01*
X82772454Y-62777545D01*
X82870889Y-62851234D01*
X82912760Y-62907167D01*
X82917744Y-62976859D01*
X82884259Y-63038182D01*
X82822935Y-63071666D01*
X82796578Y-63074500D01*
X81544678Y-63074500D01*
X81477639Y-63054815D01*
X81431884Y-63002011D01*
X81421940Y-62932853D01*
X81450965Y-62869297D01*
X81486401Y-62841566D01*
X81486349Y-62841481D01*
X81487094Y-62841024D01*
X81488384Y-62840015D01*
X81490499Y-62838937D01*
X81490498Y-62838937D01*
X81490501Y-62838936D01*
X81689855Y-62694097D01*
X81864097Y-62519855D01*
X82008936Y-62320501D01*
X82120806Y-62100943D01*
X82196952Y-61866589D01*
X82235500Y-61623208D01*
X82235500Y-61376792D01*
X82196952Y-61133411D01*
X82196951Y-61133407D01*
X82196951Y-61133406D01*
X82120807Y-60899059D01*
X82100223Y-60858661D01*
X82008936Y-60679499D01*
X81864097Y-60480145D01*
X81689855Y-60305903D01*
X81490501Y-60161064D01*
X81398486Y-60114180D01*
X81270940Y-60049192D01*
X81036592Y-59973048D01*
X80854053Y-59944137D01*
X80793208Y-59934500D01*
X80546792Y-59934500D01*
X80465665Y-59947349D01*
X80303409Y-59973048D01*
X80303406Y-59973048D01*
X80069059Y-60049192D01*
X79849498Y-60161064D01*
X79650142Y-60305905D01*
X79475905Y-60480142D01*
X79331064Y-60679498D01*
X79219192Y-60899059D01*
X79143048Y-61133406D01*
X79143048Y-61133409D01*
X79108274Y-61352963D01*
X79104500Y-61376792D01*
X79104500Y-61623208D01*
X79119850Y-61720124D01*
X79143048Y-61866590D01*
X79143048Y-61866593D01*
X79219192Y-62100940D01*
X79305931Y-62271174D01*
X79331064Y-62320501D01*
X79475903Y-62519855D01*
X79650145Y-62694097D01*
X79799660Y-62802726D01*
X79849500Y-62838937D01*
X79851616Y-62840015D01*
X79852276Y-62840638D01*
X79853651Y-62841481D01*
X79853474Y-62841769D01*
X79902413Y-62887989D01*
X79919208Y-62955810D01*
X79896671Y-63021945D01*
X79841956Y-63065397D01*
X79795322Y-63074500D01*
X76479353Y-63074500D01*
X76412314Y-63054815D01*
X76366559Y-63002011D01*
X76356615Y-62932853D01*
X76385640Y-62869297D01*
X76423603Y-62839740D01*
X76457064Y-62822897D01*
X76457091Y-62822883D01*
X76457095Y-62822881D01*
X76521154Y-62786592D01*
X76583355Y-62747204D01*
X76643548Y-62704811D01*
X76701589Y-62659515D01*
X76757338Y-62611426D01*
X76810660Y-62560660D01*
X76861426Y-62507338D01*
X76909515Y-62451589D01*
X76954811Y-62393548D01*
X76997204Y-62333355D01*
X77036592Y-62271154D01*
X77072881Y-62207095D01*
X77105983Y-62141332D01*
X77135819Y-62074025D01*
X77162316Y-62005334D01*
X77185410Y-61935427D01*
X77205046Y-61864470D01*
X77221177Y-61792635D01*
X77233764Y-61720095D01*
X77242777Y-61647025D01*
X77248193Y-61573601D01*
X77250000Y-61500000D01*
X77248193Y-61426398D01*
X77242777Y-61352974D01*
X77233764Y-61279904D01*
X77221177Y-61207364D01*
X77205046Y-61135529D01*
X77185410Y-61064572D01*
X77162316Y-60994665D01*
X77135819Y-60925974D01*
X77105983Y-60858667D01*
X77089204Y-60825333D01*
X77072889Y-60792918D01*
X77072883Y-60792907D01*
X77036599Y-60728858D01*
X77036592Y-60728845D01*
X76997204Y-60666644D01*
X76972612Y-60631726D01*
X76954812Y-60606452D01*
X76954806Y-60606445D01*
X76909533Y-60548432D01*
X76909524Y-60548421D01*
X76909515Y-60548410D01*
X76861426Y-60492661D01*
X76843324Y-60473647D01*
X76810660Y-60439338D01*
X76774622Y-60405029D01*
X76757338Y-60388573D01*
X76701589Y-60340484D01*
X76701578Y-60340476D01*
X76701566Y-60340465D01*
X76643553Y-60295192D01*
X76643546Y-60295186D01*
X76583352Y-60252793D01*
X76521174Y-60213419D01*
X76521140Y-60213399D01*
X76457091Y-60177115D01*
X76457080Y-60177109D01*
X76407772Y-60152291D01*
X76391332Y-60144016D01*
X76324025Y-60114180D01*
X76255343Y-60087686D01*
X76255317Y-60087677D01*
X76185441Y-60064593D01*
X76185425Y-60064588D01*
X76114452Y-60044948D01*
X76042643Y-60028823D01*
X75970124Y-60016239D01*
X75970087Y-60016233D01*
X75897035Y-60007222D01*
X75823615Y-60001807D01*
X75823614Y-60001806D01*
X75823601Y-60001806D01*
X75750000Y-60000000D01*
X75749999Y-60000000D01*
X75747247Y-60000067D01*
X75676398Y-60001806D01*
X75676385Y-60001806D01*
X75676383Y-60001807D01*
X75602963Y-60007222D01*
X75529911Y-60016233D01*
X75529874Y-60016239D01*
X75457355Y-60028823D01*
X75385546Y-60044948D01*
X75314573Y-60064588D01*
X75314557Y-60064593D01*
X75244681Y-60087677D01*
X75244655Y-60087686D01*
X75175973Y-60114180D01*
X75137894Y-60131060D01*
X75108667Y-60144016D01*
X75108661Y-60144018D01*
X75108661Y-60144019D01*
X75042918Y-60177109D01*
X75042907Y-60177115D01*
X74978858Y-60213399D01*
X74978824Y-60213419D01*
X74916646Y-60252793D01*
X74856452Y-60295186D01*
X74856445Y-60295192D01*
X74798432Y-60340465D01*
X74798410Y-60340484D01*
X74742661Y-60388573D01*
X74742655Y-60388578D01*
X74742650Y-60388583D01*
X74689338Y-60439338D01*
X74638583Y-60492650D01*
X74638573Y-60492661D01*
X74592521Y-60546047D01*
X74590465Y-60548432D01*
X74545192Y-60606445D01*
X74545186Y-60606452D01*
X74502793Y-60666646D01*
X74463419Y-60728824D01*
X74463399Y-60728858D01*
X74427115Y-60792907D01*
X74427109Y-60792918D01*
X74394019Y-60858661D01*
X74364180Y-60925973D01*
X74337686Y-60994655D01*
X74337677Y-60994681D01*
X74314593Y-61064557D01*
X74314588Y-61064573D01*
X74294948Y-61135546D01*
X74278823Y-61207355D01*
X74266239Y-61279874D01*
X74266233Y-61279911D01*
X74257222Y-61352963D01*
X74251807Y-61426383D01*
X74251806Y-61426398D01*
X74250000Y-61500000D01*
X74251806Y-61573601D01*
X74251806Y-61573614D01*
X74251807Y-61573615D01*
X74257222Y-61647035D01*
X74266233Y-61720087D01*
X74266239Y-61720124D01*
X74278823Y-61792643D01*
X74294948Y-61864452D01*
X74314588Y-61935425D01*
X74314593Y-61935441D01*
X74337677Y-62005317D01*
X74337683Y-62005334D01*
X74364180Y-62074025D01*
X74394016Y-62141332D01*
X74394019Y-62141337D01*
X74427109Y-62207080D01*
X74427115Y-62207091D01*
X74463399Y-62271140D01*
X74463419Y-62271174D01*
X74502793Y-62333352D01*
X74545186Y-62393546D01*
X74545192Y-62393553D01*
X74590465Y-62451566D01*
X74590476Y-62451578D01*
X74590484Y-62451589D01*
X74638573Y-62507338D01*
X74638583Y-62507348D01*
X74689338Y-62560660D01*
X74723647Y-62593324D01*
X74742661Y-62611426D01*
X74798410Y-62659515D01*
X74798421Y-62659524D01*
X74798432Y-62659533D01*
X74840405Y-62692288D01*
X74856451Y-62704811D01*
X74916644Y-62747204D01*
X74916646Y-62747205D01*
X74964559Y-62777546D01*
X74978845Y-62786592D01*
X74989719Y-62792752D01*
X75042907Y-62822883D01*
X75042934Y-62822897D01*
X75076396Y-62839740D01*
X75127428Y-62887463D01*
X75144557Y-62955201D01*
X75122345Y-63021446D01*
X75067844Y-63065166D01*
X75020646Y-63074500D01*
X73244678Y-63074500D01*
X73177639Y-63054815D01*
X73131884Y-63002011D01*
X73121940Y-62932853D01*
X73150965Y-62869297D01*
X73186401Y-62841566D01*
X73186349Y-62841481D01*
X73187094Y-62841024D01*
X73188384Y-62840015D01*
X73190499Y-62838937D01*
X73190498Y-62838937D01*
X73190501Y-62838936D01*
X73389855Y-62694097D01*
X73564097Y-62519855D01*
X73708936Y-62320501D01*
X73820806Y-62100943D01*
X73896952Y-61866589D01*
X73935500Y-61623208D01*
X73935500Y-61376792D01*
X73896952Y-61133411D01*
X73896951Y-61133407D01*
X73896951Y-61133406D01*
X73820807Y-60899059D01*
X73800223Y-60858661D01*
X73708936Y-60679499D01*
X73564097Y-60480145D01*
X73389855Y-60305903D01*
X73190501Y-60161064D01*
X73098486Y-60114180D01*
X72970940Y-60049192D01*
X72736592Y-59973048D01*
X72554053Y-59944137D01*
X72493208Y-59934500D01*
X72246792Y-59934500D01*
X72165665Y-59947349D01*
X72003409Y-59973048D01*
X72003406Y-59973048D01*
X71769059Y-60049192D01*
X71549498Y-60161064D01*
X71350142Y-60305905D01*
X71175905Y-60480142D01*
X71031064Y-60679498D01*
X70919192Y-60899059D01*
X70843048Y-61133406D01*
X70843048Y-61133409D01*
X70808274Y-61352963D01*
X70804500Y-61376792D01*
X70804500Y-61623208D01*
X70819850Y-61720124D01*
X70843048Y-61866590D01*
X70843048Y-61866593D01*
X70919192Y-62100940D01*
X71005931Y-62271174D01*
X71031064Y-62320501D01*
X71175903Y-62519855D01*
X71350145Y-62694097D01*
X71499660Y-62802726D01*
X71549500Y-62838937D01*
X71551616Y-62840015D01*
X71552276Y-62840638D01*
X71553651Y-62841481D01*
X71553474Y-62841769D01*
X71602413Y-62887989D01*
X71619208Y-62955810D01*
X71596671Y-63021945D01*
X71541956Y-63065397D01*
X71495322Y-63074500D01*
X68428651Y-63074500D01*
X68361612Y-63054815D01*
X68347021Y-63043057D01*
X68346872Y-63043239D01*
X68342162Y-63039373D01*
X68202860Y-62946295D01*
X68048082Y-62882184D01*
X68048074Y-62882182D01*
X67883771Y-62849500D01*
X67883767Y-62849500D01*
X67716233Y-62849500D01*
X67716228Y-62849500D01*
X67551925Y-62882182D01*
X67551917Y-62882184D01*
X67397139Y-62946295D01*
X67257837Y-63039373D01*
X67139373Y-63157837D01*
X67046295Y-63297139D01*
X66982184Y-63451917D01*
X66982182Y-63451925D01*
X66949500Y-63616228D01*
X66949500Y-63783771D01*
X66982182Y-63948074D01*
X66982184Y-63948082D01*
X67046295Y-64102860D01*
X67139373Y-64242162D01*
X67257837Y-64360626D01*
X67337930Y-64414142D01*
X67397137Y-64453703D01*
X67551918Y-64517816D01*
X67716228Y-64550499D01*
X67716232Y-64550500D01*
X67716233Y-64550500D01*
X67883768Y-64550500D01*
X67883769Y-64550499D01*
X68048082Y-64517816D01*
X68202863Y-64453703D01*
X68342162Y-64360626D01*
X68346872Y-64356761D01*
X68347912Y-64358028D01*
X68402293Y-64328334D01*
X68428651Y-64325500D01*
X82540892Y-64325500D01*
X82607931Y-64345185D01*
X82653686Y-64397989D01*
X82660832Y-64421690D01*
X82661616Y-64421502D01*
X82662753Y-64426238D01*
X82662754Y-64426242D01*
X82692508Y-64517816D01*
X82728444Y-64628413D01*
X82824951Y-64817819D01*
X82949890Y-64989785D01*
X83100213Y-65140108D01*
X83272179Y-65265047D01*
X83272181Y-65265048D01*
X83272184Y-65265050D01*
X83461588Y-65361556D01*
X83663757Y-65427245D01*
X83873713Y-65460499D01*
X83873714Y-65460499D01*
X84086286Y-65460499D01*
X84086287Y-65460499D01*
X84296243Y-65427245D01*
X84498412Y-65361556D01*
X84687816Y-65265050D01*
X84709789Y-65249085D01*
X84859786Y-65140108D01*
X84859788Y-65140105D01*
X84859792Y-65140103D01*
X85010104Y-64989791D01*
X85010106Y-64989787D01*
X85010109Y-64989785D01*
X85135048Y-64817819D01*
X85135047Y-64817819D01*
X85135051Y-64817815D01*
X85139514Y-64809053D01*
X85187488Y-64758258D01*
X85255308Y-64741462D01*
X85321444Y-64763998D01*
X85360486Y-64809055D01*
X85364951Y-64817819D01*
X85489890Y-64989785D01*
X85640213Y-65140108D01*
X85812182Y-65265049D01*
X85820946Y-65269515D01*
X85871742Y-65317490D01*
X85888536Y-65385311D01*
X85865998Y-65451446D01*
X85820946Y-65490483D01*
X85812182Y-65494948D01*
X85640213Y-65619889D01*
X85489890Y-65770212D01*
X85364951Y-65942178D01*
X85268444Y-66131584D01*
X85202753Y-66333759D01*
X85169500Y-66543712D01*
X85169500Y-66756285D01*
X85202753Y-66966238D01*
X85268444Y-67168413D01*
X85364951Y-67357819D01*
X85489890Y-67529785D01*
X85640213Y-67680108D01*
X85812182Y-67805049D01*
X85820946Y-67809515D01*
X85871742Y-67857490D01*
X85888536Y-67925311D01*
X85865998Y-67991446D01*
X85820946Y-68030483D01*
X85812182Y-68034948D01*
X85640213Y-68159889D01*
X85489890Y-68310212D01*
X85364949Y-68482181D01*
X85360484Y-68490945D01*
X85312509Y-68541741D01*
X85244688Y-68558535D01*
X85178553Y-68535997D01*
X85139516Y-68490945D01*
X85135050Y-68482181D01*
X85010109Y-68310212D01*
X84859786Y-68159889D01*
X84687820Y-68034950D01*
X84498414Y-67938443D01*
X84498413Y-67938442D01*
X84498412Y-67938442D01*
X84296243Y-67872753D01*
X84296241Y-67872752D01*
X84296240Y-67872752D01*
X84101894Y-67841971D01*
X84086287Y-67839499D01*
X83873713Y-67839499D01*
X83858106Y-67841971D01*
X83663760Y-67872752D01*
X83461585Y-67938443D01*
X83272183Y-68034948D01*
X83250341Y-68050818D01*
X83184534Y-68074298D01*
X83177455Y-68074500D01*
X67228650Y-68074500D01*
X67161611Y-68054815D01*
X67147020Y-68043057D01*
X67146871Y-68043239D01*
X67142161Y-68039373D01*
X67002859Y-67946295D01*
X66848081Y-67882184D01*
X66848073Y-67882182D01*
X66683770Y-67849500D01*
X66683766Y-67849500D01*
X66516232Y-67849500D01*
X66516227Y-67849500D01*
X66351924Y-67882182D01*
X66351916Y-67882184D01*
X66197138Y-67946295D01*
X66057836Y-68039373D01*
X65939372Y-68157837D01*
X65846294Y-68297139D01*
X65782183Y-68451917D01*
X65782181Y-68451925D01*
X65749499Y-68616228D01*
X61500500Y-68616228D01*
X61500500Y-56416228D01*
X70749500Y-56416228D01*
X70749500Y-56583771D01*
X70782182Y-56748074D01*
X70782184Y-56748082D01*
X70846295Y-56902860D01*
X70939373Y-57042162D01*
X71057837Y-57160626D01*
X71113755Y-57197989D01*
X71197137Y-57253703D01*
X71351918Y-57317816D01*
X71516228Y-57350499D01*
X71516232Y-57350500D01*
X71516233Y-57350500D01*
X71683768Y-57350500D01*
X71683769Y-57350499D01*
X71848082Y-57317816D01*
X72002863Y-57253703D01*
X72142162Y-57160626D01*
X72146872Y-57156761D01*
X72147912Y-57158028D01*
X72202293Y-57128334D01*
X72228651Y-57125500D01*
X81456236Y-57125500D01*
X81523275Y-57145185D01*
X81569030Y-57197989D01*
X81578974Y-57267147D01*
X81577853Y-57273691D01*
X81549500Y-57416229D01*
X81549500Y-57583771D01*
X81582182Y-57748074D01*
X81582184Y-57748082D01*
X81646295Y-57902860D01*
X81739373Y-58042162D01*
X81857837Y-58160626D01*
X81950494Y-58222537D01*
X81997137Y-58253703D01*
X82151918Y-58317816D01*
X82316228Y-58350499D01*
X82316232Y-58350500D01*
X82316233Y-58350500D01*
X82483768Y-58350500D01*
X82483769Y-58350499D01*
X82648082Y-58317816D01*
X82802863Y-58253703D01*
X82942162Y-58160626D01*
X82946872Y-58156761D01*
X82947912Y-58158028D01*
X83002293Y-58128334D01*
X83028651Y-58125500D01*
X83971349Y-58125500D01*
X84038388Y-58145185D01*
X84052978Y-58156942D01*
X84053128Y-58156761D01*
X84057837Y-58160626D01*
X84150494Y-58222537D01*
X84197137Y-58253703D01*
X84351918Y-58317816D01*
X84516228Y-58350499D01*
X84516232Y-58350500D01*
X84516233Y-58350500D01*
X84683768Y-58350500D01*
X84683769Y-58350499D01*
X84848082Y-58317816D01*
X85002863Y-58253703D01*
X85142162Y-58160626D01*
X85260626Y-58042162D01*
X85353703Y-57902863D01*
X85417816Y-57748082D01*
X85450500Y-57583767D01*
X85450500Y-57416233D01*
X85417816Y-57251918D01*
X85353703Y-57097137D01*
X85316970Y-57042162D01*
X85260626Y-56957837D01*
X85142162Y-56839373D01*
X85002860Y-56746295D01*
X84848082Y-56682184D01*
X84848074Y-56682182D01*
X84683771Y-56649500D01*
X84683767Y-56649500D01*
X84516233Y-56649500D01*
X84516228Y-56649500D01*
X84351925Y-56682182D01*
X84351917Y-56682184D01*
X84216430Y-56738305D01*
X84146960Y-56745774D01*
X84084481Y-56714499D01*
X84048829Y-56654410D01*
X84047360Y-56599552D01*
X84050500Y-56583767D01*
X84050500Y-56416233D01*
X84032539Y-56325935D01*
X84034198Y-56307385D01*
X84030805Y-56289069D01*
X84037248Y-56273303D01*
X84038766Y-56256344D01*
X84050191Y-56241635D01*
X84057239Y-56224393D01*
X84079412Y-56204019D01*
X84081629Y-56201166D01*
X84082958Y-56200222D01*
X84084089Y-56199428D01*
X84142162Y-56160626D01*
X84148604Y-56154183D01*
X84157453Y-56147978D01*
X84180728Y-56140108D01*
X84202293Y-56128334D01*
X84221744Y-56126242D01*
X84223642Y-56125601D01*
X84224865Y-56125907D01*
X84228651Y-56125500D01*
X87371349Y-56125500D01*
X87438388Y-56145185D01*
X87452978Y-56156942D01*
X87453128Y-56156761D01*
X87457837Y-56160626D01*
X87517097Y-56200222D01*
X87597137Y-56253703D01*
X87751918Y-56317816D01*
X87916228Y-56350499D01*
X87916232Y-56350500D01*
X87916233Y-56350500D01*
X88083768Y-56350500D01*
X88083769Y-56350499D01*
X88248082Y-56317816D01*
X88402863Y-56253703D01*
X88542162Y-56160626D01*
X88660626Y-56042162D01*
X88753703Y-55902863D01*
X88817816Y-55748082D01*
X88850500Y-55583767D01*
X88850500Y-55416233D01*
X88817816Y-55251918D01*
X88753703Y-55097137D01*
X88722537Y-55050494D01*
X88660626Y-54957837D01*
X88542162Y-54839373D01*
X88402860Y-54746295D01*
X88248082Y-54682184D01*
X88248074Y-54682182D01*
X88083771Y-54649500D01*
X88083767Y-54649500D01*
X87916233Y-54649500D01*
X87916228Y-54649500D01*
X87751925Y-54682182D01*
X87751917Y-54682184D01*
X87597139Y-54746295D01*
X87457837Y-54839373D01*
X87453128Y-54843239D01*
X87452087Y-54841971D01*
X87397707Y-54871666D01*
X87371349Y-54874500D01*
X84228651Y-54874500D01*
X84161612Y-54854815D01*
X84147021Y-54843057D01*
X84146872Y-54843239D01*
X84142162Y-54839373D01*
X84002860Y-54746295D01*
X83848082Y-54682184D01*
X83848074Y-54682182D01*
X83683771Y-54649500D01*
X83683767Y-54649500D01*
X83516233Y-54649500D01*
X83516228Y-54649500D01*
X83351925Y-54682182D01*
X83351917Y-54682184D01*
X83197139Y-54746295D01*
X83057837Y-54839373D01*
X82939373Y-54957837D01*
X82846295Y-55097139D01*
X82782184Y-55251917D01*
X82782182Y-55251925D01*
X82749500Y-55416228D01*
X82749500Y-55583771D01*
X82767460Y-55674063D01*
X82765800Y-55692612D01*
X82769194Y-55710926D01*
X82762750Y-55726691D01*
X82761233Y-55743655D01*
X82749806Y-55758363D01*
X82742761Y-55775603D01*
X82720584Y-55795980D01*
X82718369Y-55798832D01*
X82717044Y-55799775D01*
X82715887Y-55800586D01*
X82657838Y-55839374D01*
X82651392Y-55845819D01*
X82642550Y-55852021D01*
X82619269Y-55859891D01*
X82597707Y-55871666D01*
X82578260Y-55873756D01*
X82576361Y-55874399D01*
X82575136Y-55874092D01*
X82571349Y-55874500D01*
X72228651Y-55874500D01*
X72161612Y-55854815D01*
X72147021Y-55843057D01*
X72146872Y-55843239D01*
X72142162Y-55839373D01*
X72002860Y-55746295D01*
X71848082Y-55682184D01*
X71848074Y-55682182D01*
X71683771Y-55649500D01*
X71683767Y-55649500D01*
X71516233Y-55649500D01*
X71516228Y-55649500D01*
X71351925Y-55682182D01*
X71351917Y-55682184D01*
X71197139Y-55746295D01*
X71057837Y-55839373D01*
X70939373Y-55957837D01*
X70846295Y-56097139D01*
X70782184Y-56251917D01*
X70782182Y-56251925D01*
X70749500Y-56416228D01*
X61500500Y-56416228D01*
X61500500Y-49752135D01*
X64349500Y-49752135D01*
X64349500Y-51647870D01*
X64349501Y-51647876D01*
X64355908Y-51707483D01*
X64406202Y-51842328D01*
X64406206Y-51842335D01*
X64492452Y-51957544D01*
X64492455Y-51957547D01*
X64607664Y-52043793D01*
X64607671Y-52043797D01*
X64742517Y-52094091D01*
X64742516Y-52094091D01*
X64749444Y-52094835D01*
X64802127Y-52100500D01*
X66697872Y-52100499D01*
X66757483Y-52094091D01*
X66892331Y-52043796D01*
X67007546Y-51957546D01*
X67093796Y-51842331D01*
X67112735Y-51791554D01*
X67154606Y-51735620D01*
X67220070Y-51711202D01*
X67288343Y-51726053D01*
X67316598Y-51747205D01*
X67337636Y-51768243D01*
X67337641Y-51768247D01*
X67369721Y-51791554D01*
X67515978Y-51897815D01*
X67644375Y-51963237D01*
X67712393Y-51997895D01*
X67712396Y-51997896D01*
X67817221Y-52031955D01*
X67922049Y-52066015D01*
X68139778Y-52100500D01*
X68139779Y-52100500D01*
X68360221Y-52100500D01*
X68360222Y-52100500D01*
X68577951Y-52066015D01*
X68787606Y-51997895D01*
X68984022Y-51897815D01*
X69162365Y-51768242D01*
X69318242Y-51612365D01*
X69399682Y-51500270D01*
X69455011Y-51457606D01*
X69524624Y-51451627D01*
X69586420Y-51484232D01*
X69600313Y-51500265D01*
X69681753Y-51612358D01*
X69681758Y-51612365D01*
X69837636Y-51768243D01*
X69837641Y-51768247D01*
X69869721Y-51791554D01*
X70015978Y-51897815D01*
X70144375Y-51963237D01*
X70212393Y-51997895D01*
X70212396Y-51997896D01*
X70317221Y-52031955D01*
X70422049Y-52066015D01*
X70639778Y-52100500D01*
X70639779Y-52100500D01*
X70860221Y-52100500D01*
X70860222Y-52100500D01*
X71077951Y-52066015D01*
X71287606Y-51997895D01*
X71484022Y-51897815D01*
X71662365Y-51768242D01*
X71818242Y-51612365D01*
X71947815Y-51434022D01*
X72047895Y-51237606D01*
X72116015Y-51027951D01*
X72150500Y-50810222D01*
X72150500Y-50589778D01*
X72116015Y-50372049D01*
X72047895Y-50162394D01*
X72047895Y-50162393D01*
X72013237Y-50094375D01*
X71947815Y-49965978D01*
X71911335Y-49915767D01*
X71842986Y-49821691D01*
X71818247Y-49787641D01*
X71818243Y-49787636D01*
X71782742Y-49752135D01*
X81349500Y-49752135D01*
X81349500Y-51647870D01*
X81349501Y-51647876D01*
X81355908Y-51707483D01*
X81406202Y-51842328D01*
X81406206Y-51842335D01*
X81492452Y-51957544D01*
X81492455Y-51957547D01*
X81607664Y-52043793D01*
X81607671Y-52043797D01*
X81742517Y-52094091D01*
X81742516Y-52094091D01*
X81749444Y-52094835D01*
X81802127Y-52100500D01*
X83697872Y-52100499D01*
X83757483Y-52094091D01*
X83892331Y-52043796D01*
X84007546Y-51957546D01*
X84093796Y-51842331D01*
X84112735Y-51791554D01*
X84154606Y-51735620D01*
X84220070Y-51711202D01*
X84288343Y-51726053D01*
X84316598Y-51747205D01*
X84337636Y-51768243D01*
X84337641Y-51768247D01*
X84369721Y-51791554D01*
X84515978Y-51897815D01*
X84644375Y-51963237D01*
X84712393Y-51997895D01*
X84712396Y-51997896D01*
X84817221Y-52031955D01*
X84922049Y-52066015D01*
X85139778Y-52100500D01*
X85139779Y-52100500D01*
X85360221Y-52100500D01*
X85360222Y-52100500D01*
X85577951Y-52066015D01*
X85787606Y-51997895D01*
X85984022Y-51897815D01*
X86162365Y-51768242D01*
X86318242Y-51612365D01*
X86447815Y-51434022D01*
X86547895Y-51237606D01*
X86616015Y-51027951D01*
X86650500Y-50810222D01*
X86650500Y-50589778D01*
X86616015Y-50372049D01*
X86547895Y-50162394D01*
X86547895Y-50162393D01*
X86513237Y-50094375D01*
X86447815Y-49965978D01*
X86411335Y-49915767D01*
X86342986Y-49821691D01*
X86318247Y-49787641D01*
X86318243Y-49787636D01*
X86282742Y-49752135D01*
X98349500Y-49752135D01*
X98349500Y-51647870D01*
X98349501Y-51647876D01*
X98355908Y-51707483D01*
X98406202Y-51842328D01*
X98406206Y-51842335D01*
X98492452Y-51957544D01*
X98492455Y-51957547D01*
X98607664Y-52043793D01*
X98607671Y-52043797D01*
X98742517Y-52094091D01*
X98742516Y-52094091D01*
X98749444Y-52094835D01*
X98802127Y-52100500D01*
X100697872Y-52100499D01*
X100757483Y-52094091D01*
X100892331Y-52043796D01*
X101007546Y-51957546D01*
X101093796Y-51842331D01*
X101112735Y-51791554D01*
X101154606Y-51735620D01*
X101220070Y-51711202D01*
X101288343Y-51726053D01*
X101316598Y-51747205D01*
X101337636Y-51768243D01*
X101337641Y-51768247D01*
X101369721Y-51791554D01*
X101515978Y-51897815D01*
X101644375Y-51963237D01*
X101712393Y-51997895D01*
X101712396Y-51997896D01*
X101817221Y-52031955D01*
X101922049Y-52066015D01*
X102139778Y-52100500D01*
X102139779Y-52100500D01*
X102360221Y-52100500D01*
X102360222Y-52100500D01*
X102577951Y-52066015D01*
X102787606Y-51997895D01*
X102984022Y-51897815D01*
X103162365Y-51768242D01*
X103318242Y-51612365D01*
X103399682Y-51500270D01*
X103455011Y-51457606D01*
X103524624Y-51451627D01*
X103586420Y-51484232D01*
X103600313Y-51500265D01*
X103681753Y-51612358D01*
X103681758Y-51612365D01*
X103837636Y-51768243D01*
X103837641Y-51768247D01*
X103869721Y-51791554D01*
X104015978Y-51897815D01*
X104144375Y-51963237D01*
X104212393Y-51997895D01*
X104212396Y-51997896D01*
X104317221Y-52031955D01*
X104422049Y-52066015D01*
X104639778Y-52100500D01*
X104639779Y-52100500D01*
X104860221Y-52100500D01*
X104860222Y-52100500D01*
X105077951Y-52066015D01*
X105287606Y-51997895D01*
X105484022Y-51897815D01*
X105662365Y-51768242D01*
X105818242Y-51612365D01*
X105947815Y-51434022D01*
X106047895Y-51237606D01*
X106116015Y-51027951D01*
X106150500Y-50810222D01*
X106150500Y-50589778D01*
X106116015Y-50372049D01*
X106047895Y-50162394D01*
X106047895Y-50162393D01*
X106013237Y-50094375D01*
X105947815Y-49965978D01*
X105842985Y-49821691D01*
X105818247Y-49787641D01*
X105818243Y-49787636D01*
X105662363Y-49631756D01*
X105662358Y-49631752D01*
X105484025Y-49502187D01*
X105484024Y-49502186D01*
X105484022Y-49502185D01*
X105366791Y-49442452D01*
X105287606Y-49402104D01*
X105287603Y-49402103D01*
X105077952Y-49333985D01*
X104969086Y-49316742D01*
X104860222Y-49299500D01*
X104639778Y-49299500D01*
X104567201Y-49310995D01*
X104422047Y-49333985D01*
X104212396Y-49402103D01*
X104212393Y-49402104D01*
X104015974Y-49502187D01*
X103837641Y-49631752D01*
X103837636Y-49631756D01*
X103681756Y-49787636D01*
X103681752Y-49787641D01*
X103600318Y-49899727D01*
X103544989Y-49942393D01*
X103475375Y-49948372D01*
X103413580Y-49915767D01*
X103399682Y-49899727D01*
X103318247Y-49787641D01*
X103318243Y-49787636D01*
X103162363Y-49631756D01*
X103162358Y-49631752D01*
X102984025Y-49502187D01*
X102984024Y-49502186D01*
X102984022Y-49502185D01*
X102866791Y-49442452D01*
X102787606Y-49402104D01*
X102787603Y-49402103D01*
X102577952Y-49333985D01*
X102469086Y-49316742D01*
X102360222Y-49299500D01*
X102139778Y-49299500D01*
X102067201Y-49310995D01*
X101922047Y-49333985D01*
X101712396Y-49402103D01*
X101712393Y-49402104D01*
X101515974Y-49502187D01*
X101337641Y-49631752D01*
X101337635Y-49631757D01*
X101316596Y-49652796D01*
X101255273Y-49686280D01*
X101185581Y-49681294D01*
X101129648Y-49639421D01*
X101112735Y-49608446D01*
X101093797Y-49557671D01*
X101093793Y-49557664D01*
X101007547Y-49442455D01*
X101007544Y-49442452D01*
X100892335Y-49356206D01*
X100892328Y-49356202D01*
X100757482Y-49305908D01*
X100757483Y-49305908D01*
X100697883Y-49299501D01*
X100697881Y-49299500D01*
X100697873Y-49299500D01*
X100697864Y-49299500D01*
X98802129Y-49299500D01*
X98802123Y-49299501D01*
X98742516Y-49305908D01*
X98607671Y-49356202D01*
X98607664Y-49356206D01*
X98492455Y-49442452D01*
X98492452Y-49442455D01*
X98406206Y-49557664D01*
X98406202Y-49557671D01*
X98355908Y-49692517D01*
X98349501Y-49752116D01*
X98349500Y-49752135D01*
X86282742Y-49752135D01*
X86162363Y-49631756D01*
X86162358Y-49631752D01*
X85984025Y-49502187D01*
X85984024Y-49502186D01*
X85984022Y-49502185D01*
X85866791Y-49442452D01*
X85787606Y-49402104D01*
X85787603Y-49402103D01*
X85577952Y-49333985D01*
X85469086Y-49316742D01*
X85360222Y-49299500D01*
X85139778Y-49299500D01*
X85067201Y-49310995D01*
X84922047Y-49333985D01*
X84712396Y-49402103D01*
X84712393Y-49402104D01*
X84515974Y-49502187D01*
X84337641Y-49631752D01*
X84337635Y-49631757D01*
X84316596Y-49652796D01*
X84255273Y-49686280D01*
X84185581Y-49681294D01*
X84129648Y-49639421D01*
X84112735Y-49608446D01*
X84093797Y-49557671D01*
X84093793Y-49557664D01*
X84007547Y-49442455D01*
X84007544Y-49442452D01*
X83892335Y-49356206D01*
X83892328Y-49356202D01*
X83757482Y-49305908D01*
X83757483Y-49305908D01*
X83697883Y-49299501D01*
X83697881Y-49299500D01*
X83697873Y-49299500D01*
X83697864Y-49299500D01*
X81802129Y-49299500D01*
X81802123Y-49299501D01*
X81742516Y-49305908D01*
X81607671Y-49356202D01*
X81607664Y-49356206D01*
X81492455Y-49442452D01*
X81492452Y-49442455D01*
X81406206Y-49557664D01*
X81406202Y-49557671D01*
X81355908Y-49692517D01*
X81349501Y-49752116D01*
X81349500Y-49752135D01*
X71782742Y-49752135D01*
X71662363Y-49631756D01*
X71662358Y-49631752D01*
X71484025Y-49502187D01*
X71484024Y-49502186D01*
X71484022Y-49502185D01*
X71366791Y-49442452D01*
X71287606Y-49402104D01*
X71287603Y-49402103D01*
X71077952Y-49333985D01*
X70969086Y-49316742D01*
X70860222Y-49299500D01*
X70639778Y-49299500D01*
X70567201Y-49310995D01*
X70422047Y-49333985D01*
X70212396Y-49402103D01*
X70212393Y-49402104D01*
X70015974Y-49502187D01*
X69837641Y-49631752D01*
X69837636Y-49631756D01*
X69681756Y-49787636D01*
X69681752Y-49787641D01*
X69600318Y-49899727D01*
X69544989Y-49942393D01*
X69475375Y-49948372D01*
X69413580Y-49915767D01*
X69399682Y-49899727D01*
X69318247Y-49787641D01*
X69318243Y-49787636D01*
X69162363Y-49631756D01*
X69162358Y-49631752D01*
X68984025Y-49502187D01*
X68984024Y-49502186D01*
X68984022Y-49502185D01*
X68866791Y-49442452D01*
X68787606Y-49402104D01*
X68787603Y-49402103D01*
X68577952Y-49333985D01*
X68469086Y-49316742D01*
X68360222Y-49299500D01*
X68139778Y-49299500D01*
X68067201Y-49310995D01*
X67922047Y-49333985D01*
X67712396Y-49402103D01*
X67712393Y-49402104D01*
X67515974Y-49502187D01*
X67337641Y-49631752D01*
X67337635Y-49631757D01*
X67316596Y-49652796D01*
X67255273Y-49686280D01*
X67185581Y-49681294D01*
X67129648Y-49639421D01*
X67112735Y-49608446D01*
X67093797Y-49557671D01*
X67093793Y-49557664D01*
X67007547Y-49442455D01*
X67007544Y-49442452D01*
X66892335Y-49356206D01*
X66892328Y-49356202D01*
X66757482Y-49305908D01*
X66757483Y-49305908D01*
X66697883Y-49299501D01*
X66697881Y-49299500D01*
X66697873Y-49299500D01*
X66697864Y-49299500D01*
X64802129Y-49299500D01*
X64802123Y-49299501D01*
X64742516Y-49305908D01*
X64607671Y-49356202D01*
X64607664Y-49356206D01*
X64492455Y-49442452D01*
X64492452Y-49442455D01*
X64406206Y-49557664D01*
X64406202Y-49557671D01*
X64355908Y-49692517D01*
X64349501Y-49752116D01*
X64349500Y-49752135D01*
X61500500Y-49752135D01*
X61500500Y-45097739D01*
X61520185Y-45030700D01*
X61572989Y-44984945D01*
X61642147Y-44975001D01*
X61699984Y-44999362D01*
X61853226Y-45116948D01*
X62046274Y-45228405D01*
X62252219Y-45313710D01*
X62467537Y-45371404D01*
X62688543Y-45400500D01*
X62688550Y-45400500D01*
X63211450Y-45400500D01*
X63211457Y-45400500D01*
X63432463Y-45371404D01*
X63647781Y-45313710D01*
X63853726Y-45228405D01*
X64046774Y-45116948D01*
X64223624Y-44981247D01*
X64381247Y-44823624D01*
X64516948Y-44646774D01*
X64628405Y-44453726D01*
X64713710Y-44247781D01*
X64771404Y-44032463D01*
X64800500Y-43811457D01*
X64800500Y-43588549D01*
X71699500Y-43588549D01*
X71699500Y-43811450D01*
X71699501Y-43811466D01*
X71728594Y-44032452D01*
X71728595Y-44032457D01*
X71728596Y-44032463D01*
X71728597Y-44032465D01*
X71786290Y-44247780D01*
X71786293Y-44247790D01*
X71871593Y-44453722D01*
X71871595Y-44453726D01*
X71983052Y-44646774D01*
X71983057Y-44646780D01*
X71983058Y-44646782D01*
X72118751Y-44823622D01*
X72118757Y-44823629D01*
X72276370Y-44981242D01*
X72276377Y-44981248D01*
X72402294Y-45077867D01*
X72453226Y-45116948D01*
X72646274Y-45228405D01*
X72852219Y-45313710D01*
X73067537Y-45371404D01*
X73288543Y-45400500D01*
X73288550Y-45400500D01*
X73811450Y-45400500D01*
X73811457Y-45400500D01*
X74032463Y-45371404D01*
X74247781Y-45313710D01*
X74453726Y-45228405D01*
X74646774Y-45116948D01*
X74823624Y-44981247D01*
X74981247Y-44823624D01*
X75116948Y-44646774D01*
X75228405Y-44453726D01*
X75313710Y-44247781D01*
X75371404Y-44032463D01*
X75400500Y-43811457D01*
X75400500Y-43588549D01*
X78099500Y-43588549D01*
X78099500Y-43811450D01*
X78099501Y-43811466D01*
X78128594Y-44032452D01*
X78128595Y-44032457D01*
X78128596Y-44032463D01*
X78128597Y-44032465D01*
X78186290Y-44247780D01*
X78186293Y-44247790D01*
X78271593Y-44453722D01*
X78271595Y-44453726D01*
X78383052Y-44646774D01*
X78383057Y-44646780D01*
X78383058Y-44646782D01*
X78518751Y-44823622D01*
X78518757Y-44823629D01*
X78676370Y-44981242D01*
X78676377Y-44981248D01*
X78802294Y-45077867D01*
X78853226Y-45116948D01*
X79046274Y-45228405D01*
X79252219Y-45313710D01*
X79467537Y-45371404D01*
X79688543Y-45400500D01*
X79688550Y-45400500D01*
X80211450Y-45400500D01*
X80211457Y-45400500D01*
X80432463Y-45371404D01*
X80647781Y-45313710D01*
X80853726Y-45228405D01*
X81046774Y-45116948D01*
X81223624Y-44981247D01*
X81381247Y-44823624D01*
X81516948Y-44646774D01*
X81628405Y-44453726D01*
X81713710Y-44247781D01*
X81771404Y-44032463D01*
X81800500Y-43811457D01*
X81800500Y-43588549D01*
X88699500Y-43588549D01*
X88699500Y-43811450D01*
X88699501Y-43811466D01*
X88728594Y-44032452D01*
X88728595Y-44032457D01*
X88728596Y-44032463D01*
X88728597Y-44032465D01*
X88786290Y-44247780D01*
X88786293Y-44247790D01*
X88871593Y-44453722D01*
X88871595Y-44453726D01*
X88983052Y-44646774D01*
X88983057Y-44646780D01*
X88983058Y-44646782D01*
X89118751Y-44823622D01*
X89118757Y-44823629D01*
X89276370Y-44981242D01*
X89276377Y-44981248D01*
X89402294Y-45077867D01*
X89453226Y-45116948D01*
X89646274Y-45228405D01*
X89852219Y-45313710D01*
X90067537Y-45371404D01*
X90288543Y-45400500D01*
X90288550Y-45400500D01*
X90811450Y-45400500D01*
X90811457Y-45400500D01*
X91032463Y-45371404D01*
X91247781Y-45313710D01*
X91453726Y-45228405D01*
X91646774Y-45116948D01*
X91823624Y-44981247D01*
X91981247Y-44823624D01*
X92116948Y-44646774D01*
X92228405Y-44453726D01*
X92313710Y-44247781D01*
X92371404Y-44032463D01*
X92400500Y-43811457D01*
X92400500Y-43588549D01*
X95099500Y-43588549D01*
X95099500Y-43811450D01*
X95099501Y-43811466D01*
X95128594Y-44032452D01*
X95128595Y-44032457D01*
X95128596Y-44032463D01*
X95128597Y-44032465D01*
X95186290Y-44247780D01*
X95186293Y-44247790D01*
X95271593Y-44453722D01*
X95271595Y-44453726D01*
X95383052Y-44646774D01*
X95383057Y-44646780D01*
X95383058Y-44646782D01*
X95518751Y-44823622D01*
X95518757Y-44823629D01*
X95676370Y-44981242D01*
X95676377Y-44981248D01*
X95802294Y-45077867D01*
X95853226Y-45116948D01*
X96046274Y-45228405D01*
X96252219Y-45313710D01*
X96467537Y-45371404D01*
X96688543Y-45400500D01*
X96688550Y-45400500D01*
X97211450Y-45400500D01*
X97211457Y-45400500D01*
X97432463Y-45371404D01*
X97647781Y-45313710D01*
X97853726Y-45228405D01*
X98046774Y-45116948D01*
X98223624Y-44981247D01*
X98381247Y-44823624D01*
X98516948Y-44646774D01*
X98628405Y-44453726D01*
X98713710Y-44247781D01*
X98771404Y-44032463D01*
X98800500Y-43811457D01*
X98800500Y-43588543D01*
X98771404Y-43367537D01*
X98713710Y-43152219D01*
X98628405Y-42946274D01*
X98516948Y-42753226D01*
X98381247Y-42576376D01*
X98381242Y-42576370D01*
X98223629Y-42418757D01*
X98223622Y-42418751D01*
X98046782Y-42283058D01*
X98046780Y-42283057D01*
X98046774Y-42283052D01*
X97853726Y-42171595D01*
X97853722Y-42171593D01*
X97647790Y-42086293D01*
X97647783Y-42086291D01*
X97647781Y-42086290D01*
X97432463Y-42028596D01*
X97432457Y-42028595D01*
X97432452Y-42028594D01*
X97211466Y-41999501D01*
X97211463Y-41999500D01*
X97211457Y-41999500D01*
X96688543Y-41999500D01*
X96688537Y-41999500D01*
X96688533Y-41999501D01*
X96467547Y-42028594D01*
X96467540Y-42028595D01*
X96467537Y-42028596D01*
X96252219Y-42086290D01*
X96252209Y-42086293D01*
X96046277Y-42171593D01*
X96046273Y-42171595D01*
X95853226Y-42283052D01*
X95853217Y-42283058D01*
X95676377Y-42418751D01*
X95676370Y-42418757D01*
X95518757Y-42576370D01*
X95518751Y-42576377D01*
X95383058Y-42753217D01*
X95383052Y-42753226D01*
X95271595Y-42946273D01*
X95271593Y-42946277D01*
X95186293Y-43152209D01*
X95186290Y-43152219D01*
X95128597Y-43367534D01*
X95128594Y-43367547D01*
X95099501Y-43588533D01*
X95099500Y-43588549D01*
X92400500Y-43588549D01*
X92400500Y-43588543D01*
X92371404Y-43367537D01*
X92313710Y-43152219D01*
X92228405Y-42946274D01*
X92116948Y-42753226D01*
X91981247Y-42576376D01*
X91981242Y-42576370D01*
X91823629Y-42418757D01*
X91823622Y-42418751D01*
X91646782Y-42283058D01*
X91646780Y-42283057D01*
X91646774Y-42283052D01*
X91453726Y-42171595D01*
X91453722Y-42171593D01*
X91247790Y-42086293D01*
X91247783Y-42086291D01*
X91247781Y-42086290D01*
X91032463Y-42028596D01*
X91032457Y-42028595D01*
X91032452Y-42028594D01*
X90811466Y-41999501D01*
X90811463Y-41999500D01*
X90811457Y-41999500D01*
X90288543Y-41999500D01*
X90288537Y-41999500D01*
X90288533Y-41999501D01*
X90067547Y-42028594D01*
X90067540Y-42028595D01*
X90067537Y-42028596D01*
X89852219Y-42086290D01*
X89852209Y-42086293D01*
X89646277Y-42171593D01*
X89646273Y-42171595D01*
X89453226Y-42283052D01*
X89453217Y-42283058D01*
X89276377Y-42418751D01*
X89276370Y-42418757D01*
X89118757Y-42576370D01*
X89118751Y-42576377D01*
X88983058Y-42753217D01*
X88983052Y-42753226D01*
X88871595Y-42946273D01*
X88871593Y-42946277D01*
X88786293Y-43152209D01*
X88786290Y-43152219D01*
X88728597Y-43367534D01*
X88728594Y-43367547D01*
X88699501Y-43588533D01*
X88699500Y-43588549D01*
X81800500Y-43588549D01*
X81800500Y-43588543D01*
X81771404Y-43367537D01*
X81713710Y-43152219D01*
X81628405Y-42946274D01*
X81516948Y-42753226D01*
X81381247Y-42576376D01*
X81381242Y-42576370D01*
X81223629Y-42418757D01*
X81223622Y-42418751D01*
X81046782Y-42283058D01*
X81046780Y-42283057D01*
X81046774Y-42283052D01*
X80853726Y-42171595D01*
X80853722Y-42171593D01*
X80647790Y-42086293D01*
X80647783Y-42086291D01*
X80647781Y-42086290D01*
X80432463Y-42028596D01*
X80432457Y-42028595D01*
X80432452Y-42028594D01*
X80211466Y-41999501D01*
X80211463Y-41999500D01*
X80211457Y-41999500D01*
X79688543Y-41999500D01*
X79688537Y-41999500D01*
X79688533Y-41999501D01*
X79467547Y-42028594D01*
X79467540Y-42028595D01*
X79467537Y-42028596D01*
X79252219Y-42086290D01*
X79252209Y-42086293D01*
X79046277Y-42171593D01*
X79046273Y-42171595D01*
X78853226Y-42283052D01*
X78853217Y-42283058D01*
X78676377Y-42418751D01*
X78676370Y-42418757D01*
X78518757Y-42576370D01*
X78518751Y-42576377D01*
X78383058Y-42753217D01*
X78383052Y-42753226D01*
X78271595Y-42946273D01*
X78271593Y-42946277D01*
X78186293Y-43152209D01*
X78186290Y-43152219D01*
X78128597Y-43367534D01*
X78128594Y-43367547D01*
X78099501Y-43588533D01*
X78099500Y-43588549D01*
X75400500Y-43588549D01*
X75400500Y-43588543D01*
X75371404Y-43367537D01*
X75313710Y-43152219D01*
X75228405Y-42946274D01*
X75116948Y-42753226D01*
X74981247Y-42576376D01*
X74981242Y-42576370D01*
X74823629Y-42418757D01*
X74823622Y-42418751D01*
X74646782Y-42283058D01*
X74646780Y-42283057D01*
X74646774Y-42283052D01*
X74453726Y-42171595D01*
X74453722Y-42171593D01*
X74247790Y-42086293D01*
X74247783Y-42086291D01*
X74247781Y-42086290D01*
X74032463Y-42028596D01*
X74032457Y-42028595D01*
X74032452Y-42028594D01*
X73811466Y-41999501D01*
X73811463Y-41999500D01*
X73811457Y-41999500D01*
X73288543Y-41999500D01*
X73288537Y-41999500D01*
X73288533Y-41999501D01*
X73067547Y-42028594D01*
X73067540Y-42028595D01*
X73067537Y-42028596D01*
X72852219Y-42086290D01*
X72852209Y-42086293D01*
X72646277Y-42171593D01*
X72646273Y-42171595D01*
X72453226Y-42283052D01*
X72453217Y-42283058D01*
X72276377Y-42418751D01*
X72276370Y-42418757D01*
X72118757Y-42576370D01*
X72118751Y-42576377D01*
X71983058Y-42753217D01*
X71983052Y-42753226D01*
X71871595Y-42946273D01*
X71871593Y-42946277D01*
X71786293Y-43152209D01*
X71786290Y-43152219D01*
X71728597Y-43367534D01*
X71728594Y-43367547D01*
X71699501Y-43588533D01*
X71699500Y-43588549D01*
X64800500Y-43588549D01*
X64800500Y-43588543D01*
X64771404Y-43367537D01*
X64713710Y-43152219D01*
X64628405Y-42946274D01*
X64516948Y-42753226D01*
X64381247Y-42576376D01*
X64381242Y-42576370D01*
X64223629Y-42418757D01*
X64223622Y-42418751D01*
X64046782Y-42283058D01*
X64046780Y-42283057D01*
X64046774Y-42283052D01*
X63853726Y-42171595D01*
X63853722Y-42171593D01*
X63647790Y-42086293D01*
X63647783Y-42086291D01*
X63647781Y-42086290D01*
X63432463Y-42028596D01*
X63432457Y-42028595D01*
X63432452Y-42028594D01*
X63211466Y-41999501D01*
X63211463Y-41999500D01*
X63211457Y-41999500D01*
X62688543Y-41999500D01*
X62688537Y-41999500D01*
X62688533Y-41999501D01*
X62467547Y-42028594D01*
X62467540Y-42028595D01*
X62467537Y-42028596D01*
X62252219Y-42086290D01*
X62252209Y-42086293D01*
X62046277Y-42171593D01*
X62046273Y-42171595D01*
X61853226Y-42283052D01*
X61853217Y-42283058D01*
X61699986Y-42400636D01*
X61634817Y-42425830D01*
X61566372Y-42411791D01*
X61516382Y-42362977D01*
X61500500Y-42302260D01*
X61500500Y-32124500D01*
X61520185Y-32057461D01*
X61572989Y-32011706D01*
X61624500Y-32000500D01*
X108875500Y-32000500D01*
X108942539Y-32020185D01*
G37*
%TD.AperFunction*%
%TD*%
M02*
