%TF.GenerationSoftware,KiCad,Pcbnew,9.0.9-9.0.9~ubuntu24.04.1*%
%TF.CreationDate,2026-10-04T19:16:41+00:00*%
%TF.ProjectId,module-jack,6d6f6475-6c65-42d6-9a61-636b2e6b6963,A*%
%TF.SameCoordinates,Original*%
%TF.FileFunction,Copper,L1,Top*%
%TF.FilePolarity,Positive*%
%FSLAX46Y46*%
G04 Gerber Fmt 4.6, Leading zero omitted, Abs format (unit mm)*
G04 Created by KiCad (PCBNEW 9.0.9-9.0.9~ubuntu24.04.1) date 2026-10-04 19:16:41*
%MOMM*%
%LPD*%
G01*
G04 APERTURE LIST*
%TA.AperFunction,ComponentPad*%
%ADD10C,6.400000*%
%TD*%
%TA.AperFunction,ComponentPad*%
%ADD11O,2.700000X2.400000*%
%TD*%
%TA.AperFunction,ComponentPad*%
%ADD12R,1.800000X1.800000*%
%TD*%
%TA.AperFunction,ComponentPad*%
%ADD13C,1.800000*%
%TD*%
%TA.AperFunction,ComponentPad*%
%ADD14R,1.830000X1.930000*%
%TD*%
%TA.AperFunction,ComponentPad*%
%ADD15C,2.130000*%
%TD*%
%TA.AperFunction,ComponentPad*%
%ADD16R,1.700000X1.700000*%
%TD*%
%TA.AperFunction,ComponentPad*%
%ADD17C,1.700000*%
%TD*%
%TA.AperFunction,ViaPad*%
%ADD18C,0.700000*%
%TD*%
%TA.AperFunction,Conductor*%
%ADD19C,0.250000*%
%TD*%
G04 APERTURE END LIST*
D10*
%TO.P,H1,1*%
%TO.N,/AGND_MOD*%
X76750000Y-35200000D03*
%TD*%
D11*
%TO.P,RV2,*%
%TO.N,*%
X79950000Y-43700000D03*
X90550000Y-43700000D03*
D12*
%TO.P,RV2,1*%
%TO.N,/DAC_AVDD*%
X82750000Y-50700000D03*
D13*
%TO.P,RV2,2*%
%TO.N,/OFFSET_WIPER*%
X85250000Y-50700000D03*
%TO.P,RV2,3*%
%TO.N,/AGND_MOD*%
X87750000Y-50700000D03*
%TD*%
D14*
%TO.P,J6,S*%
%TO.N,/AGND_MOD*%
X101230000Y-87500000D03*
D15*
%TO.P,J6,T*%
%TO.N,/MOD4_JACK*%
X89830000Y-87500000D03*
%TO.P,J6,TN*%
%TO.N,N/C*%
X98130000Y-87500000D03*
%TD*%
D14*
%TO.P,J4,S*%
%TO.N,/AGND_MOD*%
X69270000Y-87500000D03*
D15*
%TO.P,J4,T*%
%TO.N,/MOD2_JACK*%
X80670000Y-87500000D03*
%TO.P,J4,TN*%
%TO.N,N/C*%
X72370000Y-87500000D03*
%TD*%
D11*
%TO.P,RV3,*%
%TO.N,*%
X96950000Y-43700000D03*
X107550000Y-43700000D03*
D12*
%TO.P,RV3,1*%
%TO.N,/RESP_V_SHAPED*%
X99750000Y-50700000D03*
D13*
%TO.P,RV3,2*%
%TO.N,/RESP_WIPER*%
X102250000Y-50700000D03*
%TO.P,RV3,3*%
%TO.N,/RESP_V_IN_HALF*%
X104750000Y-50700000D03*
%TD*%
D14*
%TO.P,J2,S*%
%TO.N,/AGND_MOD*%
X69270000Y-61500000D03*
D15*
%TO.P,J2,T*%
%TO.N,/BREATH_JACK*%
X80670000Y-61500000D03*
%TO.P,J2,TN*%
%TO.N,N/C*%
X72370000Y-61500000D03*
%TD*%
D11*
%TO.P,RV1,*%
%TO.N,*%
X62950000Y-43700000D03*
X73550000Y-43700000D03*
D12*
%TO.P,RV1,1*%
%TO.N,/GAIN_FLOOR*%
X65750000Y-50700000D03*
D13*
%TO.P,RV1,2*%
%TO.N,/GAIN_WIPER*%
X68250000Y-50700000D03*
%TO.P,RV1,3*%
%TO.N,/BREATH_SHAPED*%
X70750000Y-50700000D03*
%TD*%
D14*
%TO.P,J1,S*%
%TO.N,/AGND_MOD*%
X101230000Y-61500000D03*
D15*
%TO.P,J1,T*%
%TO.N,/PITCH_JACK*%
X89830000Y-61500000D03*
%TO.P,J1,TN*%
%TO.N,N/C*%
X98130000Y-61500000D03*
%TD*%
D10*
%TO.P,H2,1*%
%TO.N,/AGND_MOD*%
X93750000Y-35200000D03*
%TD*%
D14*
%TO.P,J5,S*%
%TO.N,/AGND_MOD*%
X101230000Y-74500000D03*
D15*
%TO.P,J5,T*%
%TO.N,/MOD3_JACK*%
X89830000Y-74500000D03*
%TO.P,J5,TN*%
%TO.N,N/C*%
X98130000Y-74500000D03*
%TD*%
D16*
%TO.P,J7,1*%
%TO.N,/BREATH_SHAPED*%
X83980000Y-61569999D03*
D17*
%TO.P,J7,2*%
%TO.N,/AGND_MOD*%
X86520000Y-61569999D03*
%TO.P,J7,3*%
%TO.N,/GAIN_WIPER*%
X83980000Y-64109999D03*
%TO.P,J7,4*%
%TO.N,/RESP_V_IN_HALF*%
X86520000Y-64109999D03*
%TO.P,J7,5*%
%TO.N,/AGND_MOD*%
X83980000Y-66649999D03*
%TO.P,J7,6*%
%TO.N,/RESP_WIPER*%
X86520000Y-66649999D03*
%TO.P,J7,7*%
%TO.N,/GAIN_FLOOR*%
X83980000Y-69189999D03*
%TO.P,J7,8*%
%TO.N,/RESP_V_SHAPED*%
X86520000Y-69189999D03*
%TO.P,J7,9*%
%TO.N,/OFFSET_WIPER*%
X83980000Y-71729999D03*
%TO.P,J7,10*%
%TO.N,/AGND_MOD*%
X86520000Y-71729999D03*
%TO.P,J7,11*%
%TO.N,/BREATH_JACK*%
X83980000Y-74269999D03*
%TO.P,J7,12*%
%TO.N,/DAC_AVDD*%
X86520000Y-74269999D03*
%TO.P,J7,13*%
%TO.N,/AGND_MOD*%
X83980000Y-76809999D03*
%TO.P,J7,14*%
%TO.N,/PITCH_JACK*%
X86520000Y-76809999D03*
%TO.P,J7,15*%
%TO.N,/MOD1_JACK*%
X83980000Y-79349999D03*
%TO.P,J7,16*%
%TO.N,/MOD3_JACK*%
X86520000Y-79349999D03*
%TO.P,J7,17*%
%TO.N,/MOD2_JACK*%
X83980000Y-81889999D03*
%TO.P,J7,18*%
%TO.N,/AGND_MOD*%
X86520000Y-81889999D03*
%TO.P,J7,19*%
%TO.N,unconnected-(J7-Pin_19-Pad19)*%
X83980000Y-84429999D03*
%TO.P,J7,20*%
%TO.N,/MOD4_JACK*%
X86520000Y-84429999D03*
%TD*%
D14*
%TO.P,J3,S*%
%TO.N,/AGND_MOD*%
X69270000Y-74500000D03*
D15*
%TO.P,J3,T*%
%TO.N,/MOD1_JACK*%
X80670000Y-74500000D03*
%TO.P,J3,TN*%
%TO.N,N/C*%
X72370000Y-74500000D03*
%TD*%
D18*
%TO.N,/BREATH_JACK*%
X81200000Y-72900000D03*
%TO.N,/BREATH_SHAPED*%
X71600000Y-56500000D03*
X83200000Y-56500000D03*
%TO.N,/DAC_AVDD*%
X83600000Y-55500000D03*
X88000000Y-55500000D03*
%TO.N,/GAIN_FLOOR*%
X66599999Y-68700000D03*
%TO.N,/GAIN_WIPER*%
X67800000Y-63700000D03*
%TO.N,/MOD1_JACK*%
X81600000Y-79500000D03*
%TO.N,/MOD2_JACK*%
X81600000Y-82300000D03*
%TO.N,/MOD3_JACK*%
X89000000Y-79500000D03*
%TO.N,/MOD4_JACK*%
X87000000Y-86900000D03*
%TO.N,/OFFSET_WIPER*%
X82400000Y-57500000D03*
X84600000Y-57500000D03*
%TO.N,/PITCH_JACK*%
X90400000Y-63900000D03*
X91800000Y-64099999D03*
X91800000Y-76100000D03*
%TO.N,/RESP_V_IN_HALF*%
X104200000Y-64900000D03*
%TO.N,/RESP_V_SHAPED*%
X99800000Y-68500000D03*
%TO.N,/RESP_WIPER*%
X102800000Y-65900000D03*
%TD*%
D19*
%TO.N,/BREATH_JACK*%
X81200000Y-62300000D02*
X81200000Y-72900000D01*
%TO.N,/BREATH_SHAPED*%
X83200000Y-56500000D02*
X83200000Y-60900000D01*
X71600000Y-50900000D02*
X71600000Y-56500000D01*
%TO.N,/DAC_AVDD*%
X88000000Y-73100000D02*
X87200000Y-73900000D01*
X83600000Y-51500000D02*
X83600000Y-55500000D01*
X88000000Y-55500000D02*
X88000000Y-73100000D01*
%TO.N,/GAIN_FLOOR*%
X66599999Y-51500000D02*
X66599999Y-68700000D01*
%TO.N,/GAIN_WIPER*%
X67800000Y-51300000D02*
X67800000Y-63700000D01*
%TO.N,/MOD1_JACK*%
X81600000Y-74900000D02*
X81600000Y-79500000D01*
%TO.N,/MOD2_JACK*%
X81600000Y-87100000D02*
X81600000Y-82300000D01*
%TO.N,/MOD3_JACK*%
X89000000Y-79500000D02*
X89000000Y-75100000D01*
%TO.N,/MOD4_JACK*%
X87000000Y-85100000D02*
X87000000Y-86900000D01*
%TO.N,/OFFSET_WIPER*%
X84600000Y-57500000D02*
X84600000Y-51100000D01*
X83200000Y-70500000D02*
X82400000Y-69700000D01*
X83200000Y-71500000D02*
X83200000Y-70500000D01*
X82400000Y-69700000D02*
X82400000Y-57500000D01*
%TO.N,/PITCH_JACK*%
X91800000Y-76100000D02*
X91800000Y-64099999D01*
X90400000Y-63900000D02*
X90400000Y-62300000D01*
%TO.N,/RESP_V_IN_HALF*%
X104200000Y-64900000D02*
X104200000Y-51300000D01*
%TO.N,/RESP_V_SHAPED*%
X99800000Y-68500000D02*
X99800000Y-51500000D01*
%TO.N,/RESP_WIPER*%
X102800000Y-65900000D02*
X102800000Y-51300000D01*
%TD*%
%TA.AperFunction,Conductor*%
%TO.N,/AGND_MOD*%
G36*
X82030703Y-70215739D02*
G01*
X82037181Y-70221771D01*
X82538181Y-70722771D01*
X82571666Y-70784094D01*
X82574500Y-70810452D01*
X82574500Y-71561606D01*
X82586853Y-71623712D01*
X82598537Y-71682453D01*
X82620061Y-71734414D01*
X82629500Y-71781867D01*
X82629500Y-71836285D01*
X82662753Y-72046238D01*
X82728444Y-72248413D01*
X82824951Y-72437819D01*
X82949890Y-72609785D01*
X83100213Y-72760108D01*
X83272182Y-72885049D01*
X83280946Y-72889515D01*
X83331742Y-72937490D01*
X83348536Y-73005311D01*
X83325998Y-73071446D01*
X83280946Y-73110483D01*
X83272182Y-73114948D01*
X83100213Y-73239889D01*
X82949890Y-73390212D01*
X82824951Y-73562178D01*
X82728444Y-73751584D01*
X82728443Y-73751586D01*
X82728443Y-73751587D01*
X82698857Y-73842642D01*
X82662753Y-73953759D01*
X82629500Y-74163712D01*
X82629500Y-74376285D01*
X82659908Y-74568278D01*
X82662754Y-74586242D01*
X82674764Y-74623206D01*
X82728444Y-74788413D01*
X82824951Y-74977819D01*
X82949890Y-75149785D01*
X83100213Y-75300108D01*
X83272179Y-75425047D01*
X83272181Y-75425048D01*
X83272184Y-75425050D01*
X83461588Y-75521556D01*
X83663757Y-75587245D01*
X83873713Y-75620499D01*
X83873714Y-75620499D01*
X84086286Y-75620499D01*
X84086287Y-75620499D01*
X84296243Y-75587245D01*
X84498412Y-75521556D01*
X84687816Y-75425050D01*
X84772789Y-75363314D01*
X84859786Y-75300108D01*
X84859788Y-75300105D01*
X84859792Y-75300103D01*
X85010104Y-75149791D01*
X85010106Y-75149787D01*
X85010109Y-75149785D01*
X85135048Y-74977819D01*
X85135047Y-74977819D01*
X85135051Y-74977815D01*
X85139514Y-74969053D01*
X85187488Y-74918258D01*
X85255308Y-74901462D01*
X85321444Y-74923998D01*
X85360486Y-74969055D01*
X85364951Y-74977819D01*
X85489890Y-75149785D01*
X85640213Y-75300108D01*
X85812182Y-75425049D01*
X85820946Y-75429515D01*
X85871742Y-75477490D01*
X85888536Y-75545311D01*
X85865998Y-75611446D01*
X85820946Y-75650483D01*
X85812182Y-75654948D01*
X85640213Y-75779889D01*
X85489890Y-75930212D01*
X85364951Y-76102178D01*
X85268444Y-76291584D01*
X85202753Y-76493759D01*
X85169500Y-76703712D01*
X85169500Y-76916286D01*
X85174919Y-76950499D01*
X85202753Y-77126238D01*
X85268444Y-77328413D01*
X85364951Y-77517819D01*
X85489890Y-77689785D01*
X85640213Y-77840108D01*
X85812182Y-77965049D01*
X85820946Y-77969515D01*
X85871742Y-78017490D01*
X85888536Y-78085311D01*
X85865998Y-78151446D01*
X85820946Y-78190483D01*
X85812182Y-78194948D01*
X85640213Y-78319889D01*
X85489890Y-78470212D01*
X85364949Y-78642181D01*
X85360484Y-78650945D01*
X85312509Y-78701741D01*
X85244688Y-78718535D01*
X85178553Y-78695997D01*
X85139516Y-78650945D01*
X85135050Y-78642181D01*
X85010109Y-78470212D01*
X84859786Y-78319889D01*
X84687820Y-78194950D01*
X84498414Y-78098443D01*
X84498413Y-78098442D01*
X84498412Y-78098442D01*
X84296243Y-78032753D01*
X84296241Y-78032752D01*
X84296240Y-78032752D01*
X84134957Y-78007207D01*
X84086287Y-77999499D01*
X83873713Y-77999499D01*
X83825042Y-78007207D01*
X83663760Y-78032752D01*
X83461585Y-78098443D01*
X83272179Y-78194950D01*
X83100213Y-78319889D01*
X82949890Y-78470212D01*
X82824951Y-78642178D01*
X82728444Y-78831584D01*
X82662753Y-79033759D01*
X82638786Y-79185082D01*
X82608857Y-79248217D01*
X82549545Y-79285148D01*
X82479683Y-79284150D01*
X82421450Y-79245540D01*
X82401752Y-79213137D01*
X82353704Y-79097139D01*
X82260626Y-78957837D01*
X82256761Y-78953128D01*
X82258028Y-78952087D01*
X82228334Y-78897707D01*
X82225500Y-78871349D01*
X82225500Y-74838393D01*
X82225499Y-74838392D01*
X82216412Y-74792709D01*
X82215557Y-74749120D01*
X82218324Y-74731649D01*
X82235500Y-74623208D01*
X82235500Y-74376792D01*
X82196952Y-74133411D01*
X82196951Y-74133407D01*
X82196951Y-74133406D01*
X82120807Y-73899059D01*
X82085249Y-73829272D01*
X82008936Y-73679499D01*
X81899865Y-73529375D01*
X81876386Y-73463571D01*
X81892211Y-73395517D01*
X81897074Y-73387613D01*
X81953703Y-73302863D01*
X82017816Y-73148082D01*
X82050500Y-72983767D01*
X82050500Y-72816233D01*
X82017816Y-72651918D01*
X81953703Y-72497137D01*
X81914065Y-72437815D01*
X81860626Y-72357837D01*
X81856761Y-72353128D01*
X81858028Y-72352087D01*
X81828334Y-72297707D01*
X81825500Y-72271349D01*
X81825500Y-70309452D01*
X81845185Y-70242413D01*
X81897989Y-70196658D01*
X81967147Y-70186714D01*
X82030703Y-70215739D01*
G37*
%TD.AperFunction*%
%TA.AperFunction,Conductor*%
G36*
X85321444Y-69843998D02*
G01*
X85360486Y-69889055D01*
X85364951Y-69897819D01*
X85489890Y-70069785D01*
X85640213Y-70220108D01*
X85812179Y-70345047D01*
X85812181Y-70345048D01*
X85812184Y-70345050D01*
X86001588Y-70441556D01*
X86203757Y-70507245D01*
X86413713Y-70540499D01*
X86413714Y-70540499D01*
X86626286Y-70540499D01*
X86626287Y-70540499D01*
X86836243Y-70507245D01*
X87038412Y-70441556D01*
X87194206Y-70362174D01*
X87262874Y-70349279D01*
X87327614Y-70375555D01*
X87367872Y-70432661D01*
X87374500Y-70472660D01*
X87374500Y-72789547D01*
X87365855Y-72818987D01*
X87359332Y-72848974D01*
X87355577Y-72853989D01*
X87354815Y-72856586D01*
X87338181Y-72877229D01*
X87207152Y-73008257D01*
X87145829Y-73041741D01*
X87076137Y-73036757D01*
X87063177Y-73031060D01*
X87038409Y-73018440D01*
X86836240Y-72952752D01*
X86674957Y-72927207D01*
X86626287Y-72919499D01*
X86413713Y-72919499D01*
X86365042Y-72927207D01*
X86203760Y-72952752D01*
X86001585Y-73018443D01*
X85812179Y-73114950D01*
X85640213Y-73239889D01*
X85489890Y-73390212D01*
X85364949Y-73562181D01*
X85360484Y-73570945D01*
X85312509Y-73621741D01*
X85244688Y-73638535D01*
X85178553Y-73615997D01*
X85139516Y-73570945D01*
X85135050Y-73562181D01*
X85010109Y-73390212D01*
X84859786Y-73239889D01*
X84687820Y-73114950D01*
X84687115Y-73114590D01*
X84679054Y-73110484D01*
X84628259Y-73062511D01*
X84611463Y-72994691D01*
X84633999Y-72928555D01*
X84679054Y-72889514D01*
X84687816Y-72885050D01*
X84778745Y-72818987D01*
X84859786Y-72760108D01*
X84859788Y-72760105D01*
X84859792Y-72760103D01*
X85010104Y-72609791D01*
X85010106Y-72609787D01*
X85010109Y-72609785D01*
X85135048Y-72437819D01*
X85135047Y-72437819D01*
X85135051Y-72437815D01*
X85231557Y-72248411D01*
X85297246Y-72046242D01*
X85330500Y-71836286D01*
X85330500Y-71623712D01*
X85297246Y-71413756D01*
X85231557Y-71211587D01*
X85135051Y-71022183D01*
X85135049Y-71022180D01*
X85135048Y-71022178D01*
X85010109Y-70850212D01*
X84859786Y-70699889D01*
X84687820Y-70574950D01*
X84687115Y-70574590D01*
X84679054Y-70570484D01*
X84628259Y-70522511D01*
X84611463Y-70454691D01*
X84633999Y-70388555D01*
X84679054Y-70349514D01*
X84687816Y-70345050D01*
X84829085Y-70242413D01*
X84859786Y-70220108D01*
X84859788Y-70220105D01*
X84859792Y-70220103D01*
X85010104Y-70069791D01*
X85010106Y-70069787D01*
X85010109Y-70069785D01*
X85135048Y-69897819D01*
X85135047Y-69897819D01*
X85135051Y-69897815D01*
X85139514Y-69889053D01*
X85187488Y-69838258D01*
X85255308Y-69821462D01*
X85321444Y-69843998D01*
G37*
%TD.AperFunction*%
%TA.AperFunction,Conductor*%
G36*
X85321444Y-64763998D02*
G01*
X85360486Y-64809055D01*
X85364951Y-64817819D01*
X85489890Y-64989785D01*
X85640213Y-65140108D01*
X85812182Y-65265049D01*
X85820946Y-65269515D01*
X85871742Y-65317490D01*
X85888536Y-65385311D01*
X85865998Y-65451446D01*
X85820946Y-65490483D01*
X85812182Y-65494948D01*
X85640213Y-65619889D01*
X85489890Y-65770212D01*
X85364951Y-65942178D01*
X85268444Y-66131584D01*
X85202753Y-66333759D01*
X85169500Y-66543712D01*
X85169500Y-66756285D01*
X85202753Y-66966238D01*
X85268444Y-67168413D01*
X85364951Y-67357819D01*
X85489890Y-67529785D01*
X85640213Y-67680108D01*
X85812182Y-67805049D01*
X85820946Y-67809515D01*
X85871742Y-67857490D01*
X85888536Y-67925311D01*
X85865998Y-67991446D01*
X85820946Y-68030483D01*
X85812182Y-68034948D01*
X85640213Y-68159889D01*
X85489890Y-68310212D01*
X85364949Y-68482181D01*
X85360484Y-68490945D01*
X85312509Y-68541741D01*
X85244688Y-68558535D01*
X85178553Y-68535997D01*
X85139516Y-68490945D01*
X85135050Y-68482181D01*
X85010109Y-68310212D01*
X84859786Y-68159889D01*
X84687820Y-68034950D01*
X84498414Y-67938443D01*
X84498413Y-67938442D01*
X84498412Y-67938442D01*
X84296243Y-67872753D01*
X84296241Y-67872752D01*
X84296240Y-67872752D01*
X84134957Y-67847207D01*
X84086287Y-67839499D01*
X83873713Y-67839499D01*
X83825042Y-67847207D01*
X83663760Y-67872752D01*
X83461585Y-67938443D01*
X83272179Y-68034950D01*
X83222385Y-68071128D01*
X83156578Y-68094608D01*
X83088525Y-68078782D01*
X83039830Y-68028676D01*
X83025500Y-67970810D01*
X83025500Y-65329187D01*
X83045185Y-65262148D01*
X83097989Y-65216393D01*
X83167147Y-65206449D01*
X83222383Y-65228867D01*
X83272184Y-65265050D01*
X83461588Y-65361556D01*
X83663757Y-65427245D01*
X83873713Y-65460499D01*
X83873714Y-65460499D01*
X84086286Y-65460499D01*
X84086287Y-65460499D01*
X84296243Y-65427245D01*
X84498412Y-65361556D01*
X84687816Y-65265050D01*
X84768474Y-65206449D01*
X84859786Y-65140108D01*
X84859788Y-65140105D01*
X84859792Y-65140103D01*
X85010104Y-64989791D01*
X85010106Y-64989787D01*
X85010109Y-64989785D01*
X85135048Y-64817819D01*
X85135047Y-64817819D01*
X85135051Y-64817815D01*
X85139514Y-64809053D01*
X85187488Y-64758258D01*
X85255308Y-64741462D01*
X85321444Y-64763998D01*
G37*
%TD.AperFunction*%
%TA.AperFunction,Conductor*%
G36*
X108942539Y-32020185D02*
G01*
X108988294Y-32072989D01*
X108999500Y-32124500D01*
X108999500Y-42302260D01*
X108979815Y-42369299D01*
X108927011Y-42415054D01*
X108857853Y-42424998D01*
X108800014Y-42400636D01*
X108646782Y-42283058D01*
X108646780Y-42283057D01*
X108646774Y-42283052D01*
X108453726Y-42171595D01*
X108453722Y-42171593D01*
X108247790Y-42086293D01*
X108247783Y-42086291D01*
X108247781Y-42086290D01*
X108032463Y-42028596D01*
X108032457Y-42028595D01*
X108032452Y-42028594D01*
X107811466Y-41999501D01*
X107811463Y-41999500D01*
X107811457Y-41999500D01*
X107288543Y-41999500D01*
X107288537Y-41999500D01*
X107288533Y-41999501D01*
X107067547Y-42028594D01*
X107067540Y-42028595D01*
X107067537Y-42028596D01*
X106852219Y-42086290D01*
X106852209Y-42086293D01*
X106646277Y-42171593D01*
X106646273Y-42171595D01*
X106453226Y-42283052D01*
X106453217Y-42283058D01*
X106276377Y-42418751D01*
X106276370Y-42418757D01*
X106118757Y-42576370D01*
X106118751Y-42576377D01*
X105983058Y-42753217D01*
X105983052Y-42753226D01*
X105871595Y-42946273D01*
X105871593Y-42946277D01*
X105786293Y-43152209D01*
X105786290Y-43152219D01*
X105728597Y-43367534D01*
X105728594Y-43367547D01*
X105699501Y-43588533D01*
X105699500Y-43588549D01*
X105699500Y-43811450D01*
X105699501Y-43811466D01*
X105728594Y-44032452D01*
X105728595Y-44032457D01*
X105728596Y-44032463D01*
X105728597Y-44032465D01*
X105786290Y-44247780D01*
X105786293Y-44247790D01*
X105871593Y-44453722D01*
X105871595Y-44453726D01*
X105983052Y-44646774D01*
X105983057Y-44646780D01*
X105983058Y-44646782D01*
X106118751Y-44823622D01*
X106118757Y-44823629D01*
X106276370Y-44981242D01*
X106276377Y-44981248D01*
X106402294Y-45077867D01*
X106453226Y-45116948D01*
X106646274Y-45228405D01*
X106852219Y-45313710D01*
X107067537Y-45371404D01*
X107288543Y-45400500D01*
X107288550Y-45400500D01*
X107811450Y-45400500D01*
X107811457Y-45400500D01*
X108032463Y-45371404D01*
X108247781Y-45313710D01*
X108453726Y-45228405D01*
X108646774Y-45116948D01*
X108800015Y-44999362D01*
X108865183Y-44974169D01*
X108933628Y-44988207D01*
X108983617Y-45037021D01*
X108999500Y-45097739D01*
X108999500Y-91875500D01*
X108979815Y-91942539D01*
X108927011Y-91988294D01*
X108875500Y-91999500D01*
X61624500Y-91999500D01*
X61557461Y-91979815D01*
X61511706Y-91927011D01*
X61500500Y-91875500D01*
X61500500Y-87376792D01*
X70804500Y-87376792D01*
X70804500Y-87623207D01*
X70843048Y-87866590D01*
X70843048Y-87866593D01*
X70919192Y-88100940D01*
X70944368Y-88150350D01*
X71031064Y-88320501D01*
X71175903Y-88519855D01*
X71350145Y-88694097D01*
X71549499Y-88838936D01*
X71769057Y-88950806D01*
X71769059Y-88950807D01*
X72003407Y-89026951D01*
X72003408Y-89026951D01*
X72003411Y-89026952D01*
X72246792Y-89065500D01*
X72246793Y-89065500D01*
X72493207Y-89065500D01*
X72493208Y-89065500D01*
X72736589Y-89026952D01*
X72736592Y-89026951D01*
X72736593Y-89026951D01*
X72970940Y-88950807D01*
X72970940Y-88950806D01*
X72970943Y-88950806D01*
X73190501Y-88838936D01*
X73389855Y-88694097D01*
X73564097Y-88519855D01*
X73708936Y-88320501D01*
X73820806Y-88100943D01*
X73837623Y-88049186D01*
X73896951Y-87866593D01*
X73896951Y-87866592D01*
X73896952Y-87866589D01*
X73935500Y-87623208D01*
X73935500Y-87604994D01*
X74248525Y-87604994D01*
X74248525Y-87604995D01*
X74285834Y-87848809D01*
X74285837Y-87848819D01*
X74362466Y-88083267D01*
X74476356Y-88302048D01*
X74476358Y-88302051D01*
X74476360Y-88302054D01*
X74499544Y-88332932D01*
X74624456Y-88499301D01*
X74802779Y-88669710D01*
X74802792Y-88669720D01*
X75006547Y-88808712D01*
X75006552Y-88808714D01*
X75230268Y-88912560D01*
X75230275Y-88912562D01*
X75230278Y-88912564D01*
X75467965Y-88978481D01*
X75713226Y-89004692D01*
X75959475Y-88990493D01*
X75959479Y-88990492D01*
X76200092Y-88936268D01*
X76200094Y-88936267D01*
X76200099Y-88936266D01*
X76428634Y-88843468D01*
X76638945Y-88714589D01*
X76825382Y-88553092D01*
X76982939Y-88363313D01*
X77107385Y-88150350D01*
X77195377Y-87919921D01*
X77244553Y-87678215D01*
X77253592Y-87431722D01*
X77222250Y-87187064D01*
X77151370Y-86950809D01*
X77042856Y-86729303D01*
X76899621Y-86528495D01*
X76725512Y-86353777D01*
X76725507Y-86353773D01*
X76525208Y-86209843D01*
X76525202Y-86209840D01*
X76304081Y-86100555D01*
X76304076Y-86100554D01*
X76220491Y-86075159D01*
X76068074Y-86028851D01*
X76068070Y-86028850D01*
X76068072Y-86028850D01*
X75823540Y-85996657D01*
X75823529Y-85996656D01*
X75823526Y-85996656D01*
X75813606Y-85996413D01*
X75750004Y-85994858D01*
X75749992Y-85994859D01*
X75504168Y-86015070D01*
X75264944Y-86075159D01*
X75264936Y-86075162D01*
X75038746Y-86173512D01*
X74831644Y-86307492D01*
X74831643Y-86307493D01*
X74649211Y-86473494D01*
X74496338Y-86667064D01*
X74496336Y-86667067D01*
X74377130Y-86883008D01*
X74377126Y-86883017D01*
X74294796Y-87115508D01*
X74294791Y-87115528D01*
X74251538Y-87358351D01*
X74248525Y-87604994D01*
X73935500Y-87604994D01*
X73935500Y-87376792D01*
X73896952Y-87133411D01*
X73896951Y-87133407D01*
X73896951Y-87133406D01*
X73820807Y-86899059D01*
X73778605Y-86816232D01*
X73708936Y-86679499D01*
X73564097Y-86480145D01*
X73389855Y-86305903D01*
X73190501Y-86161064D01*
X73071745Y-86100555D01*
X72970940Y-86049192D01*
X72736592Y-85973048D01*
X72554053Y-85944137D01*
X72493208Y-85934500D01*
X72246792Y-85934500D01*
X72165665Y-85947349D01*
X72003409Y-85973048D01*
X72003406Y-85973048D01*
X71769059Y-86049192D01*
X71549498Y-86161064D01*
X71350142Y-86305905D01*
X71175905Y-86480142D01*
X71031064Y-86679498D01*
X70919192Y-86899059D01*
X70843048Y-87133406D01*
X70843048Y-87133409D01*
X70804500Y-87376792D01*
X61500500Y-87376792D01*
X61500500Y-74376792D01*
X70804500Y-74376792D01*
X70804500Y-74623207D01*
X70843048Y-74866590D01*
X70843048Y-74866593D01*
X70919192Y-75100940D01*
X70944368Y-75150350D01*
X71031064Y-75320501D01*
X71175903Y-75519855D01*
X71350145Y-75694097D01*
X71549499Y-75838936D01*
X71769057Y-75950806D01*
X71769059Y-75950807D01*
X72003407Y-76026951D01*
X72003408Y-76026951D01*
X72003411Y-76026952D01*
X72246792Y-76065500D01*
X72246793Y-76065500D01*
X72493207Y-76065500D01*
X72493208Y-76065500D01*
X72736589Y-76026952D01*
X72736592Y-76026951D01*
X72736593Y-76026951D01*
X72970940Y-75950807D01*
X72970940Y-75950806D01*
X72970943Y-75950806D01*
X73190501Y-75838936D01*
X73389855Y-75694097D01*
X73564097Y-75519855D01*
X73708936Y-75320501D01*
X73820806Y-75100943D01*
X73837623Y-75049186D01*
X73896951Y-74866593D01*
X73896951Y-74866592D01*
X73896952Y-74866589D01*
X73935500Y-74623208D01*
X73935500Y-74604994D01*
X74248525Y-74604994D01*
X74248525Y-74604995D01*
X74285834Y-74848809D01*
X74285837Y-74848819D01*
X74362466Y-75083267D01*
X74476356Y-75302048D01*
X74476358Y-75302051D01*
X74476360Y-75302054D01*
X74499544Y-75332932D01*
X74624456Y-75499301D01*
X74802779Y-75669710D01*
X74802792Y-75669720D01*
X75006547Y-75808712D01*
X75006552Y-75808714D01*
X75230268Y-75912560D01*
X75230275Y-75912562D01*
X75230278Y-75912564D01*
X75467965Y-75978481D01*
X75713226Y-76004692D01*
X75959475Y-75990493D01*
X75959479Y-75990492D01*
X76200092Y-75936268D01*
X76200094Y-75936267D01*
X76200099Y-75936266D01*
X76428634Y-75843468D01*
X76638945Y-75714589D01*
X76825382Y-75553092D01*
X76982939Y-75363313D01*
X77107385Y-75150350D01*
X77195377Y-74919921D01*
X77244553Y-74678215D01*
X77253592Y-74431722D01*
X77222250Y-74187064D01*
X77151370Y-73950809D01*
X77042856Y-73729303D01*
X76940538Y-73585858D01*
X76899625Y-73528500D01*
X76899619Y-73528493D01*
X76725512Y-73353777D01*
X76725507Y-73353773D01*
X76525208Y-73209843D01*
X76525202Y-73209840D01*
X76304081Y-73100555D01*
X76304076Y-73100554D01*
X76208270Y-73071446D01*
X76068074Y-73028851D01*
X76068070Y-73028850D01*
X76068072Y-73028850D01*
X75823540Y-72996657D01*
X75823529Y-72996656D01*
X75823526Y-72996656D01*
X75813606Y-72996413D01*
X75750004Y-72994858D01*
X75749992Y-72994859D01*
X75504168Y-73015070D01*
X75264944Y-73075159D01*
X75264936Y-73075162D01*
X75038746Y-73173512D01*
X74831644Y-73307492D01*
X74831643Y-73307493D01*
X74649211Y-73473494D01*
X74496338Y-73667064D01*
X74496336Y-73667067D01*
X74377130Y-73883008D01*
X74377126Y-73883017D01*
X74294796Y-74115508D01*
X74294791Y-74115528D01*
X74251538Y-74358351D01*
X74248525Y-74604994D01*
X73935500Y-74604994D01*
X73935500Y-74376792D01*
X73896952Y-74133411D01*
X73896951Y-74133407D01*
X73896951Y-74133406D01*
X73820807Y-73899059D01*
X73785249Y-73829272D01*
X73708936Y-73679499D01*
X73564097Y-73480145D01*
X73389855Y-73305903D01*
X73190501Y-73161064D01*
X73071745Y-73100555D01*
X72970940Y-73049192D01*
X72736592Y-72973048D01*
X72554053Y-72944137D01*
X72493208Y-72934500D01*
X72246792Y-72934500D01*
X72165665Y-72947349D01*
X72003409Y-72973048D01*
X72003406Y-72973048D01*
X71769059Y-73049192D01*
X71549498Y-73161064D01*
X71350142Y-73305905D01*
X71175905Y-73480142D01*
X71031064Y-73679498D01*
X70919192Y-73899059D01*
X70843048Y-74133406D01*
X70843048Y-74133409D01*
X70804500Y-74376792D01*
X61500500Y-74376792D01*
X61500500Y-49752135D01*
X64349500Y-49752135D01*
X64349500Y-51647870D01*
X64349501Y-51647876D01*
X64355908Y-51707483D01*
X64406202Y-51842328D01*
X64406206Y-51842335D01*
X64492452Y-51957544D01*
X64492455Y-51957547D01*
X64607664Y-52043793D01*
X64607671Y-52043797D01*
X64742517Y-52094091D01*
X64742516Y-52094091D01*
X64749444Y-52094835D01*
X64802127Y-52100500D01*
X65850499Y-52100499D01*
X65917538Y-52120183D01*
X65963293Y-52172987D01*
X65974499Y-52224499D01*
X65974499Y-68071349D01*
X65954814Y-68138388D01*
X65943056Y-68152978D01*
X65943238Y-68153128D01*
X65939372Y-68157837D01*
X65846294Y-68297139D01*
X65782183Y-68451917D01*
X65782181Y-68451925D01*
X65749499Y-68616228D01*
X65749499Y-68783771D01*
X65782181Y-68948074D01*
X65782183Y-68948082D01*
X65846294Y-69102860D01*
X65939372Y-69242162D01*
X66057836Y-69360626D01*
X66150493Y-69422537D01*
X66197136Y-69453703D01*
X66351917Y-69517816D01*
X66516227Y-69550499D01*
X66516231Y-69550500D01*
X66516232Y-69550500D01*
X66683767Y-69550500D01*
X66683768Y-69550499D01*
X66848081Y-69517816D01*
X67002862Y-69453703D01*
X67142161Y-69360626D01*
X67260625Y-69242162D01*
X67353702Y-69102863D01*
X67417815Y-68948082D01*
X67450499Y-68783767D01*
X67450499Y-68616233D01*
X67417815Y-68451918D01*
X67353702Y-68297137D01*
X67311918Y-68234603D01*
X67260625Y-68157837D01*
X67256760Y-68153128D01*
X67258027Y-68152087D01*
X67228333Y-68097707D01*
X67225499Y-68071349D01*
X67225499Y-64568187D01*
X67245184Y-64501148D01*
X67297988Y-64455393D01*
X67367146Y-64445449D01*
X67396952Y-64453626D01*
X67397135Y-64453702D01*
X67397137Y-64453703D01*
X67551918Y-64517816D01*
X67686833Y-64544652D01*
X67716228Y-64550499D01*
X67716232Y-64550500D01*
X67716233Y-64550500D01*
X67883768Y-64550500D01*
X67883769Y-64550499D01*
X68048082Y-64517816D01*
X68202863Y-64453703D01*
X68342162Y-64360626D01*
X68460626Y-64242162D01*
X68553703Y-64102863D01*
X68617816Y-63948082D01*
X68650500Y-63783767D01*
X68650500Y-63616233D01*
X68617816Y-63451918D01*
X68553703Y-63297137D01*
X68472624Y-63175794D01*
X68460626Y-63157837D01*
X68456761Y-63153128D01*
X68458028Y-63152087D01*
X68428334Y-63097707D01*
X68425500Y-63071349D01*
X68425500Y-61376792D01*
X70804500Y-61376792D01*
X70804500Y-61623207D01*
X70843048Y-61866590D01*
X70843048Y-61866593D01*
X70919192Y-62100940D01*
X70944368Y-62150350D01*
X71031064Y-62320501D01*
X71175903Y-62519855D01*
X71350145Y-62694097D01*
X71549499Y-62838936D01*
X71748106Y-62940131D01*
X71769059Y-62950807D01*
X72003407Y-63026951D01*
X72003408Y-63026951D01*
X72003411Y-63026952D01*
X72246792Y-63065500D01*
X72246793Y-63065500D01*
X72493207Y-63065500D01*
X72493208Y-63065500D01*
X72736589Y-63026952D01*
X72736592Y-63026951D01*
X72736593Y-63026951D01*
X72970940Y-62950807D01*
X72970940Y-62950806D01*
X72970943Y-62950806D01*
X73190501Y-62838936D01*
X73389855Y-62694097D01*
X73564097Y-62519855D01*
X73708936Y-62320501D01*
X73820806Y-62100943D01*
X73837623Y-62049186D01*
X73896951Y-61866593D01*
X73896951Y-61866592D01*
X73896952Y-61866589D01*
X73935500Y-61623208D01*
X73935500Y-61604994D01*
X74248525Y-61604994D01*
X74248525Y-61604995D01*
X74285834Y-61848809D01*
X74285837Y-61848819D01*
X74362466Y-62083267D01*
X74476356Y-62302048D01*
X74476358Y-62302051D01*
X74476360Y-62302054D01*
X74499544Y-62332932D01*
X74624456Y-62499301D01*
X74802779Y-62669710D01*
X74802792Y-62669720D01*
X75006547Y-62808712D01*
X75006552Y-62808714D01*
X75230268Y-62912560D01*
X75230275Y-62912562D01*
X75230278Y-62912564D01*
X75467965Y-62978481D01*
X75713226Y-63004692D01*
X75959475Y-62990493D01*
X75959479Y-62990492D01*
X76200092Y-62936268D01*
X76200094Y-62936267D01*
X76200099Y-62936266D01*
X76428634Y-62843468D01*
X76638945Y-62714589D01*
X76825382Y-62553092D01*
X76982939Y-62363313D01*
X77107385Y-62150350D01*
X77195377Y-61919921D01*
X77244553Y-61678215D01*
X77253592Y-61431722D01*
X77248889Y-61395007D01*
X77247950Y-61387676D01*
X77246556Y-61376792D01*
X79104500Y-61376792D01*
X79104500Y-61623207D01*
X79143048Y-61866590D01*
X79143048Y-61866593D01*
X79219192Y-62100940D01*
X79244368Y-62150350D01*
X79331064Y-62320501D01*
X79475903Y-62519855D01*
X79650145Y-62694097D01*
X79849499Y-62838936D01*
X80048106Y-62940131D01*
X80069059Y-62950807D01*
X80303407Y-63026951D01*
X80303408Y-63026951D01*
X80303411Y-63026952D01*
X80469898Y-63053321D01*
X80533033Y-63083250D01*
X80569964Y-63142562D01*
X80574500Y-63175794D01*
X80574500Y-72271349D01*
X80554815Y-72338388D01*
X80543057Y-72352978D01*
X80543239Y-72353128D01*
X80539373Y-72357837D01*
X80446295Y-72497139D01*
X80382184Y-72651917D01*
X80382182Y-72651925D01*
X80349500Y-72816228D01*
X80349500Y-72867980D01*
X80329815Y-72935019D01*
X80277011Y-72980774D01*
X80263818Y-72985911D01*
X80069059Y-73049192D01*
X79849498Y-73161064D01*
X79650142Y-73305905D01*
X79475905Y-73480142D01*
X79331064Y-73679498D01*
X79219192Y-73899059D01*
X79143048Y-74133406D01*
X79143048Y-74133409D01*
X79104500Y-74376792D01*
X79104500Y-74623207D01*
X79143048Y-74866590D01*
X79143048Y-74866593D01*
X79219192Y-75100940D01*
X79244368Y-75150350D01*
X79331064Y-75320501D01*
X79475903Y-75519855D01*
X79650145Y-75694097D01*
X79849499Y-75838936D01*
X80069057Y-75950806D01*
X80069059Y-75950807D01*
X80303407Y-76026951D01*
X80303408Y-76026951D01*
X80303411Y-76026952D01*
X80546792Y-76065500D01*
X80546793Y-76065500D01*
X80793203Y-76065500D01*
X80793208Y-76065500D01*
X80831103Y-76059497D01*
X80900393Y-76068450D01*
X80953846Y-76113445D01*
X80974487Y-76180196D01*
X80974500Y-76181970D01*
X80974500Y-78871349D01*
X80954815Y-78938388D01*
X80943057Y-78952978D01*
X80943239Y-78953128D01*
X80939373Y-78957837D01*
X80846295Y-79097139D01*
X80782184Y-79251917D01*
X80782182Y-79251925D01*
X80749500Y-79416228D01*
X80749500Y-79583771D01*
X80782182Y-79748074D01*
X80782184Y-79748082D01*
X80846295Y-79902860D01*
X80939373Y-80042162D01*
X81057837Y-80160626D01*
X81150494Y-80222537D01*
X81197137Y-80253703D01*
X81351918Y-80317816D01*
X81516228Y-80350499D01*
X81516232Y-80350500D01*
X81516233Y-80350500D01*
X81683768Y-80350500D01*
X81683769Y-80350499D01*
X81848082Y-80317816D01*
X82002863Y-80253703D01*
X82142162Y-80160626D01*
X82260626Y-80042162D01*
X82353703Y-79902863D01*
X82417816Y-79748082D01*
X82428217Y-79695788D01*
X82460601Y-79633881D01*
X82521316Y-79599306D01*
X82591085Y-79603045D01*
X82647758Y-79643910D01*
X82667764Y-79681663D01*
X82672355Y-79695792D01*
X82728444Y-79868413D01*
X82824951Y-80057819D01*
X82949890Y-80229785D01*
X83100213Y-80380108D01*
X83272182Y-80505049D01*
X83280946Y-80509515D01*
X83331742Y-80557490D01*
X83348536Y-80625311D01*
X83325998Y-80691446D01*
X83280946Y-80730483D01*
X83272182Y-80734948D01*
X83100213Y-80859889D01*
X82949890Y-81010212D01*
X82824951Y-81182178D01*
X82728444Y-81371584D01*
X82662753Y-81573759D01*
X82629500Y-81783712D01*
X82629500Y-81939578D01*
X82609815Y-82006617D01*
X82557011Y-82052372D01*
X82487853Y-82062316D01*
X82424297Y-82033291D01*
X82390939Y-81987031D01*
X82353704Y-81897139D01*
X82260626Y-81757837D01*
X82142162Y-81639373D01*
X82002860Y-81546295D01*
X81848082Y-81482184D01*
X81848074Y-81482182D01*
X81683771Y-81449500D01*
X81683767Y-81449500D01*
X81516233Y-81449500D01*
X81516228Y-81449500D01*
X81351925Y-81482182D01*
X81351917Y-81482184D01*
X81197139Y-81546295D01*
X81057837Y-81639373D01*
X80939373Y-81757837D01*
X80846295Y-81897139D01*
X80782184Y-82051917D01*
X80782182Y-82051925D01*
X80749500Y-82216228D01*
X80749500Y-82383771D01*
X80782182Y-82548074D01*
X80782184Y-82548082D01*
X80846295Y-82702860D01*
X80939373Y-82842162D01*
X80943239Y-82846872D01*
X80941968Y-82847914D01*
X80971662Y-82902272D01*
X80974500Y-82928650D01*
X80974500Y-85818028D01*
X80954815Y-85885067D01*
X80902011Y-85930822D01*
X80832853Y-85940766D01*
X80831105Y-85940502D01*
X80818117Y-85938445D01*
X80793208Y-85934500D01*
X80546792Y-85934500D01*
X80465665Y-85947349D01*
X80303409Y-85973048D01*
X80303406Y-85973048D01*
X80069059Y-86049192D01*
X79849498Y-86161064D01*
X79650142Y-86305905D01*
X79475905Y-86480142D01*
X79331064Y-86679498D01*
X79219192Y-86899059D01*
X79143048Y-87133406D01*
X79143048Y-87133409D01*
X79104500Y-87376792D01*
X79104500Y-87623207D01*
X79143048Y-87866590D01*
X79143048Y-87866593D01*
X79219192Y-88100940D01*
X79244368Y-88150350D01*
X79331064Y-88320501D01*
X79475903Y-88519855D01*
X79650145Y-88694097D01*
X79849499Y-88838936D01*
X80069057Y-88950806D01*
X80069059Y-88950807D01*
X80303407Y-89026951D01*
X80303408Y-89026951D01*
X80303411Y-89026952D01*
X80546792Y-89065500D01*
X80546793Y-89065500D01*
X80793207Y-89065500D01*
X80793208Y-89065500D01*
X81036589Y-89026952D01*
X81036592Y-89026951D01*
X81036593Y-89026951D01*
X81270940Y-88950807D01*
X81270940Y-88950806D01*
X81270943Y-88950806D01*
X81490501Y-88838936D01*
X81689855Y-88694097D01*
X81864097Y-88519855D01*
X82008936Y-88320501D01*
X82120806Y-88100943D01*
X82137623Y-88049186D01*
X82196951Y-87866593D01*
X82196951Y-87866592D01*
X82196952Y-87866589D01*
X82235500Y-87623208D01*
X82235500Y-87376792D01*
X82215557Y-87250878D01*
X82216413Y-87207289D01*
X82220436Y-87187064D01*
X82225500Y-87161606D01*
X82225500Y-82928650D01*
X82245185Y-82861611D01*
X82256943Y-82847021D01*
X82256761Y-82846872D01*
X82260626Y-82842162D01*
X82353703Y-82702863D01*
X82417816Y-82548082D01*
X82450500Y-82383767D01*
X82450500Y-82335894D01*
X82470185Y-82268855D01*
X82522989Y-82223100D01*
X82592147Y-82213156D01*
X82655703Y-82242181D01*
X82692429Y-82297574D01*
X82704881Y-82335894D01*
X82728444Y-82408413D01*
X82824951Y-82597819D01*
X82949890Y-82769785D01*
X83100213Y-82920108D01*
X83272182Y-83045049D01*
X83280946Y-83049515D01*
X83331742Y-83097490D01*
X83348536Y-83165311D01*
X83325998Y-83231446D01*
X83280946Y-83270483D01*
X83272182Y-83274948D01*
X83100213Y-83399889D01*
X82949890Y-83550212D01*
X82824951Y-83722178D01*
X82728444Y-83911584D01*
X82662753Y-84113759D01*
X82629500Y-84323712D01*
X82629500Y-84536285D01*
X82662753Y-84746238D01*
X82728444Y-84948413D01*
X82824951Y-85137819D01*
X82949890Y-85309785D01*
X83100213Y-85460108D01*
X83272179Y-85585047D01*
X83272181Y-85585048D01*
X83272184Y-85585050D01*
X83461588Y-85681556D01*
X83663757Y-85747245D01*
X83873713Y-85780499D01*
X83873714Y-85780499D01*
X84086286Y-85780499D01*
X84086287Y-85780499D01*
X84296243Y-85747245D01*
X84498412Y-85681556D01*
X84687816Y-85585050D01*
X84709789Y-85569085D01*
X84859786Y-85460108D01*
X84859788Y-85460105D01*
X84859792Y-85460103D01*
X85010104Y-85309791D01*
X85010106Y-85309787D01*
X85010109Y-85309785D01*
X85135048Y-85137819D01*
X85135047Y-85137819D01*
X85135051Y-85137815D01*
X85139514Y-85129053D01*
X85187488Y-85078258D01*
X85255308Y-85061462D01*
X85321444Y-85083998D01*
X85360486Y-85129055D01*
X85364951Y-85137819D01*
X85489890Y-85309785D01*
X85640213Y-85460108D01*
X85812179Y-85585047D01*
X85812181Y-85585048D01*
X85812184Y-85585050D01*
X86001588Y-85681556D01*
X86203757Y-85747245D01*
X86269900Y-85757721D01*
X86333032Y-85787648D01*
X86369963Y-85846959D01*
X86374500Y-85880193D01*
X86374500Y-86271349D01*
X86354815Y-86338388D01*
X86343057Y-86352978D01*
X86343239Y-86353128D01*
X86339373Y-86357837D01*
X86246295Y-86497139D01*
X86182184Y-86651917D01*
X86182182Y-86651925D01*
X86149500Y-86816228D01*
X86149500Y-86983771D01*
X86182182Y-87148074D01*
X86182184Y-87148082D01*
X86246295Y-87302860D01*
X86339373Y-87442162D01*
X86457837Y-87560626D01*
X86550494Y-87622537D01*
X86597137Y-87653703D01*
X86751918Y-87717816D01*
X86916228Y-87750499D01*
X86916232Y-87750500D01*
X86916233Y-87750500D01*
X87083768Y-87750500D01*
X87083769Y-87750499D01*
X87248082Y-87717816D01*
X87402863Y-87653703D01*
X87542162Y-87560626D01*
X87660626Y-87442162D01*
X87704305Y-87376792D01*
X88264500Y-87376792D01*
X88264500Y-87623207D01*
X88303048Y-87866590D01*
X88303048Y-87866593D01*
X88379192Y-88100940D01*
X88404368Y-88150350D01*
X88491064Y-88320501D01*
X88635903Y-88519855D01*
X88810145Y-88694097D01*
X89009499Y-88838936D01*
X89229057Y-88950806D01*
X89229059Y-88950807D01*
X89463407Y-89026951D01*
X89463408Y-89026951D01*
X89463411Y-89026952D01*
X89706792Y-89065500D01*
X89706793Y-89065500D01*
X89953207Y-89065500D01*
X89953208Y-89065500D01*
X90196589Y-89026952D01*
X90196592Y-89026951D01*
X90196593Y-89026951D01*
X90430940Y-88950807D01*
X90430940Y-88950806D01*
X90430943Y-88950806D01*
X90650501Y-88838936D01*
X90849855Y-88694097D01*
X91024097Y-88519855D01*
X91168936Y-88320501D01*
X91280806Y-88100943D01*
X91297623Y-88049186D01*
X91356951Y-87866593D01*
X91356951Y-87866592D01*
X91356952Y-87866589D01*
X91395500Y-87623208D01*
X91395500Y-87568282D01*
X93246408Y-87568282D01*
X93277750Y-87812937D01*
X93348627Y-88049184D01*
X93348628Y-88049186D01*
X93348630Y-88049191D01*
X93398187Y-88150350D01*
X93457144Y-88270697D01*
X93600374Y-88471499D01*
X93600380Y-88471506D01*
X93774487Y-88646222D01*
X93774492Y-88646226D01*
X93974791Y-88790156D01*
X93974797Y-88790159D01*
X94195918Y-88899444D01*
X94195919Y-88899444D01*
X94195921Y-88899445D01*
X94431926Y-88971149D01*
X94676474Y-89003344D01*
X94742914Y-89004967D01*
X94749995Y-89005141D01*
X94749996Y-89005140D01*
X94750000Y-89005141D01*
X94995829Y-88984930D01*
X95235055Y-88924841D01*
X95461256Y-88826486D01*
X95668355Y-88692508D01*
X95850790Y-88526504D01*
X96003664Y-88332932D01*
X96122869Y-88116992D01*
X96128553Y-88100943D01*
X96205203Y-87884491D01*
X96205203Y-87884489D01*
X96205206Y-87884482D01*
X96205208Y-87884471D01*
X96248461Y-87641648D01*
X96248909Y-87604993D01*
X96251475Y-87395007D01*
X96251264Y-87393629D01*
X96250812Y-87390671D01*
X96250812Y-87390670D01*
X96248688Y-87376792D01*
X96564500Y-87376792D01*
X96564500Y-87623207D01*
X96603048Y-87866590D01*
X96603048Y-87866593D01*
X96679192Y-88100940D01*
X96704368Y-88150350D01*
X96791064Y-88320501D01*
X96935903Y-88519855D01*
X97110145Y-88694097D01*
X97309499Y-88838936D01*
X97529057Y-88950806D01*
X97529059Y-88950807D01*
X97763407Y-89026951D01*
X97763408Y-89026951D01*
X97763411Y-89026952D01*
X98006792Y-89065500D01*
X98006793Y-89065500D01*
X98253207Y-89065500D01*
X98253208Y-89065500D01*
X98496589Y-89026952D01*
X98496592Y-89026951D01*
X98496593Y-89026951D01*
X98730940Y-88950807D01*
X98730940Y-88950806D01*
X98730943Y-88950806D01*
X98950501Y-88838936D01*
X99149855Y-88694097D01*
X99324097Y-88519855D01*
X99468936Y-88320501D01*
X99580806Y-88100943D01*
X99597623Y-88049186D01*
X99656951Y-87866593D01*
X99656951Y-87866592D01*
X99656952Y-87866589D01*
X99695500Y-87623208D01*
X99695500Y-87376792D01*
X99656952Y-87133411D01*
X99656951Y-87133407D01*
X99656951Y-87133406D01*
X99580807Y-86899059D01*
X99538605Y-86816232D01*
X99468936Y-86679499D01*
X99324097Y-86480145D01*
X99149855Y-86305903D01*
X98950501Y-86161064D01*
X98831745Y-86100555D01*
X98730940Y-86049192D01*
X98496592Y-85973048D01*
X98314053Y-85944137D01*
X98253208Y-85934500D01*
X98006792Y-85934500D01*
X97925665Y-85947349D01*
X97763409Y-85973048D01*
X97763406Y-85973048D01*
X97529059Y-86049192D01*
X97309498Y-86161064D01*
X97110142Y-86305905D01*
X96935905Y-86480142D01*
X96791064Y-86679498D01*
X96679192Y-86899059D01*
X96603048Y-87133406D01*
X96603048Y-87133409D01*
X96564500Y-87376792D01*
X96248688Y-87376792D01*
X96219655Y-87187064D01*
X96214165Y-87151187D01*
X96137534Y-86916734D01*
X96102612Y-86849650D01*
X96023643Y-86697951D01*
X96023641Y-86697948D01*
X96023640Y-86697946D01*
X95875542Y-86500697D01*
X95726047Y-86357837D01*
X95697220Y-86330289D01*
X95697207Y-86330279D01*
X95493452Y-86191287D01*
X95493447Y-86191285D01*
X95269731Y-86087439D01*
X95269723Y-86087436D01*
X95032039Y-86021520D01*
X95032038Y-86021519D01*
X95032035Y-86021519D01*
X94971691Y-86015070D01*
X94786774Y-85995307D01*
X94540525Y-86009507D01*
X94540520Y-86009507D01*
X94299907Y-86063731D01*
X94071363Y-86156533D01*
X93861052Y-86285412D01*
X93674619Y-86446907D01*
X93517062Y-86636685D01*
X93517054Y-86636696D01*
X93392614Y-86849650D01*
X93304624Y-87080072D01*
X93255447Y-87321785D01*
X93246408Y-87568282D01*
X91395500Y-87568282D01*
X91395500Y-87376792D01*
X91356952Y-87133411D01*
X91356951Y-87133407D01*
X91356951Y-87133406D01*
X91280807Y-86899059D01*
X91238605Y-86816232D01*
X91168936Y-86679499D01*
X91024097Y-86480145D01*
X90849855Y-86305903D01*
X90650501Y-86161064D01*
X90531745Y-86100555D01*
X90430940Y-86049192D01*
X90196592Y-85973048D01*
X90014053Y-85944137D01*
X89953208Y-85934500D01*
X89706792Y-85934500D01*
X89625665Y-85947349D01*
X89463409Y-85973048D01*
X89463406Y-85973048D01*
X89229059Y-86049192D01*
X89009498Y-86161064D01*
X88810142Y-86305905D01*
X88635905Y-86480142D01*
X88491064Y-86679498D01*
X88379192Y-86899059D01*
X88303048Y-87133406D01*
X88303048Y-87133409D01*
X88264500Y-87376792D01*
X87704305Y-87376792D01*
X87753703Y-87302863D01*
X87817816Y-87148082D01*
X87850500Y-86983767D01*
X87850500Y-86816233D01*
X87817816Y-86651918D01*
X87753703Y-86497137D01*
X87720140Y-86446907D01*
X87660626Y-86357837D01*
X87656761Y-86353128D01*
X87658028Y-86352087D01*
X87628334Y-86297707D01*
X87625500Y-86271349D01*
X87625500Y-85246306D01*
X87645185Y-85179267D01*
X87649182Y-85173420D01*
X87675051Y-85137815D01*
X87771557Y-84948411D01*
X87837246Y-84746242D01*
X87870500Y-84536286D01*
X87870500Y-84323712D01*
X87837246Y-84113756D01*
X87771557Y-83911587D01*
X87675051Y-83722183D01*
X87675049Y-83722180D01*
X87675048Y-83722178D01*
X87550109Y-83550212D01*
X87399786Y-83399889D01*
X87227820Y-83274950D01*
X87038414Y-83178443D01*
X87038413Y-83178442D01*
X87038412Y-83178442D01*
X86836243Y-83112753D01*
X86836241Y-83112752D01*
X86836240Y-83112752D01*
X86674957Y-83087207D01*
X86626287Y-83079499D01*
X86413713Y-83079499D01*
X86365042Y-83087207D01*
X86203760Y-83112752D01*
X86001585Y-83178443D01*
X85812179Y-83274950D01*
X85640213Y-83399889D01*
X85489890Y-83550212D01*
X85364949Y-83722181D01*
X85360484Y-83730945D01*
X85312509Y-83781741D01*
X85244688Y-83798535D01*
X85178553Y-83775997D01*
X85139516Y-83730945D01*
X85135050Y-83722181D01*
X85010109Y-83550212D01*
X84859786Y-83399889D01*
X84687820Y-83274950D01*
X84687115Y-83274590D01*
X84679054Y-83270484D01*
X84628259Y-83222511D01*
X84611463Y-83154691D01*
X84633999Y-83088555D01*
X84679054Y-83049514D01*
X84687816Y-83045050D01*
X84709789Y-83029085D01*
X84859786Y-82920108D01*
X84859788Y-82920105D01*
X84859792Y-82920103D01*
X85010104Y-82769791D01*
X85010106Y-82769787D01*
X85010109Y-82769785D01*
X85135048Y-82597819D01*
X85135047Y-82597819D01*
X85135051Y-82597815D01*
X85231557Y-82408411D01*
X85297246Y-82206242D01*
X85330500Y-81996286D01*
X85330500Y-81783712D01*
X85297246Y-81573756D01*
X85231557Y-81371587D01*
X85135051Y-81182183D01*
X85135049Y-81182180D01*
X85135048Y-81182178D01*
X85010109Y-81010212D01*
X84859786Y-80859889D01*
X84687820Y-80734950D01*
X84687115Y-80734590D01*
X84679054Y-80730484D01*
X84628259Y-80682511D01*
X84611463Y-80614691D01*
X84633999Y-80548555D01*
X84679054Y-80509514D01*
X84687816Y-80505050D01*
X84709789Y-80489085D01*
X84859786Y-80380108D01*
X84859788Y-80380105D01*
X84859792Y-80380103D01*
X85010104Y-80229791D01*
X85010106Y-80229787D01*
X85010109Y-80229785D01*
X85135048Y-80057819D01*
X85135047Y-80057819D01*
X85135051Y-80057815D01*
X85139514Y-80049053D01*
X85187488Y-79998258D01*
X85255308Y-79981462D01*
X85321444Y-80003998D01*
X85360486Y-80049055D01*
X85364951Y-80057819D01*
X85489890Y-80229785D01*
X85640213Y-80380108D01*
X85812179Y-80505047D01*
X85812181Y-80505048D01*
X85812184Y-80505050D01*
X86001588Y-80601556D01*
X86203757Y-80667245D01*
X86413713Y-80700499D01*
X86413714Y-80700499D01*
X86626286Y-80700499D01*
X86626287Y-80700499D01*
X86836243Y-80667245D01*
X87038412Y-80601556D01*
X87227816Y-80505050D01*
X87249789Y-80489085D01*
X87399786Y-80380108D01*
X87399788Y-80380105D01*
X87399792Y-80380103D01*
X87550104Y-80229791D01*
X87550106Y-80229787D01*
X87550109Y-80229785D01*
X87675048Y-80057819D01*
X87675047Y-80057819D01*
X87675051Y-80057815D01*
X87771557Y-79868411D01*
X87837246Y-79666242D01*
X87870500Y-79456286D01*
X87870500Y-79243712D01*
X87837246Y-79033756D01*
X87771557Y-78831587D01*
X87675051Y-78642183D01*
X87675049Y-78642180D01*
X87675048Y-78642178D01*
X87550109Y-78470212D01*
X87399786Y-78319889D01*
X87227820Y-78194950D01*
X87227115Y-78194590D01*
X87219054Y-78190484D01*
X87168259Y-78142511D01*
X87151463Y-78074691D01*
X87173999Y-78008555D01*
X87219054Y-77969514D01*
X87227816Y-77965050D01*
X87249789Y-77949085D01*
X87399786Y-77840108D01*
X87399788Y-77840105D01*
X87399792Y-77840103D01*
X87550104Y-77689791D01*
X87550106Y-77689787D01*
X87550109Y-77689785D01*
X87675048Y-77517819D01*
X87675047Y-77517819D01*
X87675051Y-77517815D01*
X87771557Y-77328411D01*
X87837246Y-77126242D01*
X87870500Y-76916286D01*
X87870500Y-76703712D01*
X87837246Y-76493756D01*
X87771557Y-76291587D01*
X87675051Y-76102183D01*
X87675049Y-76102180D01*
X87675048Y-76102178D01*
X87550109Y-75930212D01*
X87399786Y-75779889D01*
X87227820Y-75654950D01*
X87227115Y-75654590D01*
X87219054Y-75650484D01*
X87168259Y-75602511D01*
X87151463Y-75534691D01*
X87173999Y-75468555D01*
X87219054Y-75429514D01*
X87227816Y-75425050D01*
X87312789Y-75363314D01*
X87399786Y-75300108D01*
X87399788Y-75300105D01*
X87399792Y-75300103D01*
X87550104Y-75149791D01*
X87550106Y-75149787D01*
X87550109Y-75149785D01*
X87675048Y-74977819D01*
X87675047Y-74977819D01*
X87675051Y-74977815D01*
X87771557Y-74788411D01*
X87837246Y-74586242D01*
X87870500Y-74376286D01*
X87870500Y-74165451D01*
X87890185Y-74098412D01*
X87906819Y-74077770D01*
X88030833Y-73953756D01*
X88155318Y-73829270D01*
X88216639Y-73795787D01*
X88286330Y-73800771D01*
X88342264Y-73842642D01*
X88366681Y-73908107D01*
X88360928Y-73955271D01*
X88303048Y-74133406D01*
X88303048Y-74133409D01*
X88264500Y-74376792D01*
X88264500Y-74623207D01*
X88303048Y-74866590D01*
X88303048Y-74866593D01*
X88368431Y-75067817D01*
X88374500Y-75106135D01*
X88374500Y-78871349D01*
X88354815Y-78938388D01*
X88343057Y-78952978D01*
X88343239Y-78953128D01*
X88339373Y-78957837D01*
X88246295Y-79097139D01*
X88182184Y-79251917D01*
X88182182Y-79251925D01*
X88149500Y-79416228D01*
X88149500Y-79583771D01*
X88182182Y-79748074D01*
X88182184Y-79748082D01*
X88246295Y-79902860D01*
X88339373Y-80042162D01*
X88457837Y-80160626D01*
X88550494Y-80222537D01*
X88597137Y-80253703D01*
X88751918Y-80317816D01*
X88916228Y-80350499D01*
X88916232Y-80350500D01*
X88916233Y-80350500D01*
X89083768Y-80350500D01*
X89083769Y-80350499D01*
X89248082Y-80317816D01*
X89402863Y-80253703D01*
X89542162Y-80160626D01*
X89660626Y-80042162D01*
X89753703Y-79902863D01*
X89817816Y-79748082D01*
X89850500Y-79583767D01*
X89850500Y-79416233D01*
X89817816Y-79251918D01*
X89753703Y-79097137D01*
X89711353Y-79033756D01*
X89660626Y-78957837D01*
X89656761Y-78953128D01*
X89658028Y-78952087D01*
X89628334Y-78897707D01*
X89625500Y-78871349D01*
X89625500Y-76189500D01*
X89645185Y-76122461D01*
X89697989Y-76076706D01*
X89749500Y-76065500D01*
X89953207Y-76065500D01*
X89953208Y-76065500D01*
X90196589Y-76026952D01*
X90196592Y-76026951D01*
X90196593Y-76026951D01*
X90430940Y-75950807D01*
X90430940Y-75950806D01*
X90430943Y-75950806D01*
X90650501Y-75838936D01*
X90784926Y-75741270D01*
X90850728Y-75717792D01*
X90918782Y-75733617D01*
X90967477Y-75783723D01*
X90981353Y-75852200D01*
X90979426Y-75865780D01*
X90966611Y-75930207D01*
X90955727Y-75984930D01*
X90949500Y-76016234D01*
X90949500Y-76183771D01*
X90982182Y-76348074D01*
X90982184Y-76348082D01*
X91046295Y-76502860D01*
X91139373Y-76642162D01*
X91257837Y-76760626D01*
X91350494Y-76822537D01*
X91397137Y-76853703D01*
X91551918Y-76917816D01*
X91716228Y-76950499D01*
X91716232Y-76950500D01*
X91716233Y-76950500D01*
X91883768Y-76950500D01*
X91883769Y-76950499D01*
X92048082Y-76917816D01*
X92202863Y-76853703D01*
X92342162Y-76760626D01*
X92460626Y-76642162D01*
X92553703Y-76502863D01*
X92617816Y-76348082D01*
X92650500Y-76183767D01*
X92650500Y-76016233D01*
X92617816Y-75851918D01*
X92553703Y-75697137D01*
X92490476Y-75602511D01*
X92460626Y-75557837D01*
X92456761Y-75553128D01*
X92458028Y-75552087D01*
X92428334Y-75497707D01*
X92425500Y-75471349D01*
X92425500Y-74568282D01*
X93246408Y-74568282D01*
X93277750Y-74812937D01*
X93348627Y-75049184D01*
X93348628Y-75049186D01*
X93348630Y-75049191D01*
X93398187Y-75150350D01*
X93457144Y-75270697D01*
X93600374Y-75471499D01*
X93600380Y-75471506D01*
X93774487Y-75646222D01*
X93774492Y-75646226D01*
X93974791Y-75790156D01*
X93974797Y-75790159D01*
X94195918Y-75899444D01*
X94195919Y-75899444D01*
X94195921Y-75899445D01*
X94431926Y-75971149D01*
X94676474Y-76003344D01*
X94742914Y-76004967D01*
X94749995Y-76005141D01*
X94749996Y-76005140D01*
X94750000Y-76005141D01*
X94995829Y-75984930D01*
X95235055Y-75924841D01*
X95461256Y-75826486D01*
X95668355Y-75692508D01*
X95850790Y-75526504D01*
X96003664Y-75332932D01*
X96122869Y-75116992D01*
X96128553Y-75100943D01*
X96205203Y-74884491D01*
X96205203Y-74884489D01*
X96205206Y-74884482D01*
X96205208Y-74884471D01*
X96248461Y-74641648D01*
X96249138Y-74586238D01*
X96251475Y-74395007D01*
X96251264Y-74393629D01*
X96250812Y-74390671D01*
X96250812Y-74390670D01*
X96248688Y-74376792D01*
X96564500Y-74376792D01*
X96564500Y-74623207D01*
X96603048Y-74866590D01*
X96603048Y-74866593D01*
X96679192Y-75100940D01*
X96704368Y-75150350D01*
X96791064Y-75320501D01*
X96935903Y-75519855D01*
X97110145Y-75694097D01*
X97309499Y-75838936D01*
X97529057Y-75950806D01*
X97529059Y-75950807D01*
X97763407Y-76026951D01*
X97763408Y-76026951D01*
X97763411Y-76026952D01*
X98006792Y-76065500D01*
X98006793Y-76065500D01*
X98253207Y-76065500D01*
X98253208Y-76065500D01*
X98496589Y-76026952D01*
X98496592Y-76026951D01*
X98496593Y-76026951D01*
X98730940Y-75950807D01*
X98730940Y-75950806D01*
X98730943Y-75950806D01*
X98950501Y-75838936D01*
X99149855Y-75694097D01*
X99324097Y-75519855D01*
X99468936Y-75320501D01*
X99580806Y-75100943D01*
X99597623Y-75049186D01*
X99656951Y-74866593D01*
X99656951Y-74866592D01*
X99656952Y-74866589D01*
X99695500Y-74623208D01*
X99695500Y-74376792D01*
X99656952Y-74133411D01*
X99656951Y-74133407D01*
X99656951Y-74133406D01*
X99580807Y-73899059D01*
X99545249Y-73829272D01*
X99468936Y-73679499D01*
X99324097Y-73480145D01*
X99149855Y-73305903D01*
X98950501Y-73161064D01*
X98831745Y-73100555D01*
X98730940Y-73049192D01*
X98496592Y-72973048D01*
X98314053Y-72944137D01*
X98253208Y-72934500D01*
X98006792Y-72934500D01*
X97925665Y-72947349D01*
X97763409Y-72973048D01*
X97763406Y-72973048D01*
X97529059Y-73049192D01*
X97309498Y-73161064D01*
X97110142Y-73305905D01*
X96935905Y-73480142D01*
X96791064Y-73679498D01*
X96679192Y-73899059D01*
X96603048Y-74133406D01*
X96603048Y-74133409D01*
X96564500Y-74376792D01*
X96248688Y-74376792D01*
X96219655Y-74187064D01*
X96214165Y-74151187D01*
X96137534Y-73916734D01*
X96081112Y-73808348D01*
X96023643Y-73697951D01*
X96023641Y-73697948D01*
X96023640Y-73697946D01*
X95875542Y-73500697D01*
X95816191Y-73443980D01*
X95697220Y-73330289D01*
X95697207Y-73330279D01*
X95493452Y-73191287D01*
X95493447Y-73191285D01*
X95269731Y-73087439D01*
X95269723Y-73087436D01*
X95032039Y-73021520D01*
X95032038Y-73021519D01*
X95032035Y-73021519D01*
X94971691Y-73015070D01*
X94786774Y-72995307D01*
X94540525Y-73009507D01*
X94540520Y-73009507D01*
X94299907Y-73063731D01*
X94071363Y-73156533D01*
X93861052Y-73285412D01*
X93674619Y-73446907D01*
X93517062Y-73636685D01*
X93517054Y-73636696D01*
X93392614Y-73849650D01*
X93304624Y-74080072D01*
X93255447Y-74321785D01*
X93246408Y-74568282D01*
X92425500Y-74568282D01*
X92425500Y-64728649D01*
X92445185Y-64661610D01*
X92456943Y-64647020D01*
X92456761Y-64646871D01*
X92460626Y-64642161D01*
X92495175Y-64590455D01*
X92553703Y-64502862D01*
X92617816Y-64348081D01*
X92650500Y-64183766D01*
X92650500Y-64016232D01*
X92617816Y-63851917D01*
X92553703Y-63697136D01*
X92499645Y-63616233D01*
X92460626Y-63557836D01*
X92342162Y-63439372D01*
X92202860Y-63346294D01*
X92048082Y-63282183D01*
X92048074Y-63282181D01*
X91883771Y-63249499D01*
X91883767Y-63249499D01*
X91716233Y-63249499D01*
X91716228Y-63249499D01*
X91551925Y-63282181D01*
X91551917Y-63282183D01*
X91397140Y-63346294D01*
X91262262Y-63436416D01*
X91255234Y-63438616D01*
X91249893Y-63443682D01*
X91222346Y-63448913D01*
X91195585Y-63457293D01*
X91188484Y-63455345D01*
X91181251Y-63456719D01*
X91155246Y-63446226D01*
X91128204Y-63438808D01*
X91121684Y-63432685D01*
X91116457Y-63430576D01*
X91097045Y-63409545D01*
X91092170Y-63404966D01*
X91091211Y-63403611D01*
X91060626Y-63357838D01*
X91054379Y-63351591D01*
X91048298Y-63343002D01*
X91040237Y-63319505D01*
X91028334Y-63297707D01*
X91026314Y-63278923D01*
X91025625Y-63276914D01*
X91025954Y-63275573D01*
X91025500Y-63271349D01*
X91025500Y-62558213D01*
X91045185Y-62491174D01*
X91049182Y-62485327D01*
X91059224Y-62471506D01*
X91168936Y-62320501D01*
X91280806Y-62100943D01*
X91297623Y-62049186D01*
X91356951Y-61866593D01*
X91356951Y-61866592D01*
X91356952Y-61866589D01*
X91395500Y-61623208D01*
X91395500Y-61568282D01*
X93246408Y-61568282D01*
X93277750Y-61812937D01*
X93348627Y-62049184D01*
X93348628Y-62049186D01*
X93348630Y-62049191D01*
X93398187Y-62150350D01*
X93457144Y-62270697D01*
X93600374Y-62471499D01*
X93600380Y-62471506D01*
X93774487Y-62646222D01*
X93774492Y-62646226D01*
X93974791Y-62790156D01*
X93974797Y-62790159D01*
X94195918Y-62899444D01*
X94195919Y-62899444D01*
X94195921Y-62899445D01*
X94431926Y-62971149D01*
X94676474Y-63003344D01*
X94742914Y-63004967D01*
X94749995Y-63005141D01*
X94749996Y-63005140D01*
X94750000Y-63005141D01*
X94995829Y-62984930D01*
X95235055Y-62924841D01*
X95461256Y-62826486D01*
X95668355Y-62692508D01*
X95850790Y-62526504D01*
X96003664Y-62332932D01*
X96122869Y-62116992D01*
X96128553Y-62100943D01*
X96205203Y-61884491D01*
X96205203Y-61884489D01*
X96205206Y-61884482D01*
X96205208Y-61884471D01*
X96248461Y-61641648D01*
X96248909Y-61604993D01*
X96251475Y-61395007D01*
X96251264Y-61393629D01*
X96250812Y-61390671D01*
X96250812Y-61390670D01*
X96248688Y-61376792D01*
X96564500Y-61376792D01*
X96564500Y-61623207D01*
X96603048Y-61866590D01*
X96603048Y-61866593D01*
X96679192Y-62100940D01*
X96704368Y-62150350D01*
X96791064Y-62320501D01*
X96935903Y-62519855D01*
X97110145Y-62694097D01*
X97309499Y-62838936D01*
X97508106Y-62940131D01*
X97529059Y-62950807D01*
X97763407Y-63026951D01*
X97763408Y-63026951D01*
X97763411Y-63026952D01*
X98006792Y-63065500D01*
X98006793Y-63065500D01*
X98253207Y-63065500D01*
X98253208Y-63065500D01*
X98496589Y-63026952D01*
X98496592Y-63026951D01*
X98496593Y-63026951D01*
X98730940Y-62950807D01*
X98730940Y-62950806D01*
X98730943Y-62950806D01*
X98950501Y-62838936D01*
X98977614Y-62819236D01*
X99043420Y-62795757D01*
X99111474Y-62811582D01*
X99160169Y-62861688D01*
X99174500Y-62919555D01*
X99174500Y-67871349D01*
X99154815Y-67938388D01*
X99143057Y-67952978D01*
X99143239Y-67953128D01*
X99139373Y-67957837D01*
X99046295Y-68097139D01*
X98982184Y-68251917D01*
X98982182Y-68251925D01*
X98949500Y-68416228D01*
X98949500Y-68583771D01*
X98982182Y-68748074D01*
X98982184Y-68748082D01*
X99046295Y-68902860D01*
X99139373Y-69042162D01*
X99257837Y-69160626D01*
X99350494Y-69222537D01*
X99397137Y-69253703D01*
X99551918Y-69317816D01*
X99716228Y-69350499D01*
X99716232Y-69350500D01*
X99716233Y-69350500D01*
X99883768Y-69350500D01*
X99883769Y-69350499D01*
X100048082Y-69317816D01*
X100202863Y-69253703D01*
X100342162Y-69160626D01*
X100460626Y-69042162D01*
X100553703Y-68902863D01*
X100617816Y-68748082D01*
X100650500Y-68583767D01*
X100650500Y-68416233D01*
X100617816Y-68251918D01*
X100553703Y-68097137D01*
X100512151Y-68034950D01*
X100460626Y-67957837D01*
X100456761Y-67953128D01*
X100458028Y-67952087D01*
X100428334Y-67897707D01*
X100425500Y-67871349D01*
X100425500Y-52224499D01*
X100445185Y-52157460D01*
X100497989Y-52111705D01*
X100549500Y-52100499D01*
X100697871Y-52100499D01*
X100697872Y-52100499D01*
X100757483Y-52094091D01*
X100892331Y-52043796D01*
X101007546Y-51957546D01*
X101093796Y-51842331D01*
X101112735Y-51791554D01*
X101154606Y-51735620D01*
X101220070Y-51711202D01*
X101288343Y-51726053D01*
X101316598Y-51747205D01*
X101337636Y-51768243D01*
X101337641Y-51768247D01*
X101369721Y-51791554D01*
X101515978Y-51897815D01*
X101644375Y-51963237D01*
X101712393Y-51997895D01*
X101712396Y-51997896D01*
X101817221Y-52031955D01*
X101922049Y-52066015D01*
X102069898Y-52089432D01*
X102133033Y-52119361D01*
X102169964Y-52178673D01*
X102174500Y-52211905D01*
X102174500Y-65271349D01*
X102154815Y-65338388D01*
X102143057Y-65352978D01*
X102143239Y-65353128D01*
X102139373Y-65357837D01*
X102046295Y-65497139D01*
X101982184Y-65651917D01*
X101982182Y-65651925D01*
X101949500Y-65816228D01*
X101949500Y-65983771D01*
X101982182Y-66148074D01*
X101982184Y-66148082D01*
X102046295Y-66302860D01*
X102139373Y-66442162D01*
X102257837Y-66560626D01*
X102350494Y-66622537D01*
X102397137Y-66653703D01*
X102551918Y-66717816D01*
X102716228Y-66750499D01*
X102716232Y-66750500D01*
X102716233Y-66750500D01*
X102883768Y-66750500D01*
X102883769Y-66750499D01*
X103048082Y-66717816D01*
X103202863Y-66653703D01*
X103342162Y-66560626D01*
X103460626Y-66442162D01*
X103553703Y-66302863D01*
X103617816Y-66148082D01*
X103650500Y-65983767D01*
X103650500Y-65816233D01*
X103647360Y-65800447D01*
X103653587Y-65730856D01*
X103696449Y-65675678D01*
X103762339Y-65652433D01*
X103816427Y-65661693D01*
X103951918Y-65717816D01*
X104116228Y-65750499D01*
X104116232Y-65750500D01*
X104116233Y-65750500D01*
X104283768Y-65750500D01*
X104283769Y-65750499D01*
X104448082Y-65717816D01*
X104602863Y-65653703D01*
X104742162Y-65560626D01*
X104860626Y-65442162D01*
X104953703Y-65302863D01*
X105017816Y-65148082D01*
X105050500Y-64983767D01*
X105050500Y-64816233D01*
X105017816Y-64651918D01*
X104962268Y-64517815D01*
X104953704Y-64497139D01*
X104860626Y-64357837D01*
X104856761Y-64353128D01*
X104858028Y-64352087D01*
X104828334Y-64297707D01*
X104825500Y-64271349D01*
X104825500Y-52211905D01*
X104845185Y-52144866D01*
X104897989Y-52099111D01*
X104930102Y-52089432D01*
X105077951Y-52066015D01*
X105287606Y-51997895D01*
X105484022Y-51897815D01*
X105662365Y-51768242D01*
X105818242Y-51612365D01*
X105947815Y-51434022D01*
X106047895Y-51237606D01*
X106116015Y-51027951D01*
X106150500Y-50810222D01*
X106150500Y-50589778D01*
X106116015Y-50372049D01*
X106047895Y-50162394D01*
X106047895Y-50162393D01*
X106013237Y-50094375D01*
X105947815Y-49965978D01*
X105849501Y-49830659D01*
X105818247Y-49787641D01*
X105818243Y-49787636D01*
X105662363Y-49631756D01*
X105662358Y-49631752D01*
X105484025Y-49502187D01*
X105484024Y-49502186D01*
X105484022Y-49502185D01*
X105366791Y-49442452D01*
X105287606Y-49402104D01*
X105287603Y-49402103D01*
X105077952Y-49333985D01*
X104969086Y-49316742D01*
X104860222Y-49299500D01*
X104639778Y-49299500D01*
X104567201Y-49310995D01*
X104422047Y-49333985D01*
X104212396Y-49402103D01*
X104212393Y-49402104D01*
X104015974Y-49502187D01*
X103837641Y-49631752D01*
X103837636Y-49631756D01*
X103681756Y-49787636D01*
X103681752Y-49787641D01*
X103600318Y-49899727D01*
X103544989Y-49942393D01*
X103475375Y-49948372D01*
X103413580Y-49915767D01*
X103399682Y-49899727D01*
X103318247Y-49787641D01*
X103318243Y-49787636D01*
X103162363Y-49631756D01*
X103162358Y-49631752D01*
X102984025Y-49502187D01*
X102984024Y-49502186D01*
X102984022Y-49502185D01*
X102866791Y-49442452D01*
X102787606Y-49402104D01*
X102787603Y-49402103D01*
X102577952Y-49333985D01*
X102469086Y-49316742D01*
X102360222Y-49299500D01*
X102139778Y-49299500D01*
X102067201Y-49310995D01*
X101922047Y-49333985D01*
X101712396Y-49402103D01*
X101712393Y-49402104D01*
X101515974Y-49502187D01*
X101337641Y-49631752D01*
X101337635Y-49631757D01*
X101316596Y-49652796D01*
X101255273Y-49686280D01*
X101185581Y-49681294D01*
X101129648Y-49639421D01*
X101112735Y-49608446D01*
X101093797Y-49557671D01*
X101093793Y-49557664D01*
X101007547Y-49442455D01*
X101007544Y-49442452D01*
X100892335Y-49356206D01*
X100892328Y-49356202D01*
X100757482Y-49305908D01*
X100757483Y-49305908D01*
X100697883Y-49299501D01*
X100697881Y-49299500D01*
X100697873Y-49299500D01*
X100697864Y-49299500D01*
X98802129Y-49299500D01*
X98802123Y-49299501D01*
X98742516Y-49305908D01*
X98607671Y-49356202D01*
X98607664Y-49356206D01*
X98492455Y-49442452D01*
X98492452Y-49442455D01*
X98406206Y-49557664D01*
X98406202Y-49557671D01*
X98355908Y-49692517D01*
X98349501Y-49752116D01*
X98349500Y-49752135D01*
X98349500Y-51647870D01*
X98349501Y-51647876D01*
X98355908Y-51707483D01*
X98406202Y-51842328D01*
X98406206Y-51842335D01*
X98492452Y-51957544D01*
X98492455Y-51957547D01*
X98607664Y-52043793D01*
X98607671Y-52043797D01*
X98652618Y-52060561D01*
X98742517Y-52094091D01*
X98802127Y-52100500D01*
X99050501Y-52100499D01*
X99117539Y-52120183D01*
X99163294Y-52172987D01*
X99174500Y-52224499D01*
X99174500Y-60080444D01*
X99154815Y-60147483D01*
X99102011Y-60193238D01*
X99032853Y-60203182D01*
X98977616Y-60180763D01*
X98950504Y-60161065D01*
X98730940Y-60049192D01*
X98496592Y-59973048D01*
X98314053Y-59944137D01*
X98253208Y-59934500D01*
X98006792Y-59934500D01*
X97925665Y-59947349D01*
X97763409Y-59973048D01*
X97763406Y-59973048D01*
X97529059Y-60049192D01*
X97309498Y-60161064D01*
X97110142Y-60305905D01*
X96935905Y-60480142D01*
X96791064Y-60679498D01*
X96679192Y-60899059D01*
X96603048Y-61133406D01*
X96603048Y-61133409D01*
X96564500Y-61376792D01*
X96248688Y-61376792D01*
X96214165Y-61151190D01*
X96214165Y-61151187D01*
X96137534Y-60916734D01*
X96102612Y-60849650D01*
X96023643Y-60697951D01*
X96023641Y-60697948D01*
X96023640Y-60697946D01*
X95875542Y-60500697D01*
X95854032Y-60480142D01*
X95697220Y-60330289D01*
X95697207Y-60330279D01*
X95493452Y-60191287D01*
X95493447Y-60191285D01*
X95269731Y-60087439D01*
X95269723Y-60087436D01*
X95032039Y-60021520D01*
X95032038Y-60021519D01*
X95032035Y-60021519D01*
X94971691Y-60015070D01*
X94786774Y-59995307D01*
X94540525Y-60009507D01*
X94540520Y-60009507D01*
X94299907Y-60063731D01*
X94071363Y-60156533D01*
X93861052Y-60285412D01*
X93674619Y-60446907D01*
X93517062Y-60636685D01*
X93517054Y-60636696D01*
X93392614Y-60849650D01*
X93304624Y-61080072D01*
X93255447Y-61321785D01*
X93246408Y-61568282D01*
X91395500Y-61568282D01*
X91395500Y-61376792D01*
X91356952Y-61133411D01*
X91356951Y-61133407D01*
X91356951Y-61133406D01*
X91280807Y-60899059D01*
X91194312Y-60729303D01*
X91168936Y-60679499D01*
X91024097Y-60480145D01*
X90849855Y-60305903D01*
X90650501Y-60161064D01*
X90531745Y-60100555D01*
X90430940Y-60049192D01*
X90196592Y-59973048D01*
X90014053Y-59944137D01*
X89953208Y-59934500D01*
X89706792Y-59934500D01*
X89625665Y-59947349D01*
X89463409Y-59973048D01*
X89463406Y-59973048D01*
X89229059Y-60049192D01*
X89009498Y-60161064D01*
X88922386Y-60224355D01*
X88822384Y-60297010D01*
X88756579Y-60320490D01*
X88688525Y-60304665D01*
X88639830Y-60254559D01*
X88625500Y-60196692D01*
X88625500Y-56128650D01*
X88645185Y-56061611D01*
X88656943Y-56047021D01*
X88656761Y-56046872D01*
X88660626Y-56042162D01*
X88753703Y-55902863D01*
X88817816Y-55748082D01*
X88850500Y-55583767D01*
X88850500Y-55416233D01*
X88817816Y-55251918D01*
X88753703Y-55097137D01*
X88722537Y-55050494D01*
X88660626Y-54957837D01*
X88542162Y-54839373D01*
X88402860Y-54746295D01*
X88248082Y-54682184D01*
X88248074Y-54682182D01*
X88083771Y-54649500D01*
X88083767Y-54649500D01*
X87916233Y-54649500D01*
X87916228Y-54649500D01*
X87751925Y-54682182D01*
X87751917Y-54682184D01*
X87597139Y-54746295D01*
X87457837Y-54839373D01*
X87339373Y-54957837D01*
X87246295Y-55097139D01*
X87182184Y-55251917D01*
X87182182Y-55251925D01*
X87149500Y-55416228D01*
X87149500Y-55583771D01*
X87182182Y-55748074D01*
X87182184Y-55748082D01*
X87246295Y-55902860D01*
X87339373Y-56042162D01*
X87343239Y-56046872D01*
X87341968Y-56047914D01*
X87371662Y-56102272D01*
X87374500Y-56128650D01*
X87374500Y-62827337D01*
X87354815Y-62894376D01*
X87302011Y-62940131D01*
X87232853Y-62950075D01*
X87194205Y-62937822D01*
X87038414Y-62858443D01*
X87038413Y-62858442D01*
X87038412Y-62858442D01*
X86836243Y-62792753D01*
X86836241Y-62792752D01*
X86836240Y-62792752D01*
X86674957Y-62767207D01*
X86626287Y-62759499D01*
X86413713Y-62759499D01*
X86365042Y-62767207D01*
X86203760Y-62792752D01*
X86001585Y-62858443D01*
X85812179Y-62954950D01*
X85640213Y-63079889D01*
X85489890Y-63230212D01*
X85364949Y-63402181D01*
X85360484Y-63410945D01*
X85312509Y-63461741D01*
X85244688Y-63478535D01*
X85178553Y-63455997D01*
X85139516Y-63410945D01*
X85135050Y-63402181D01*
X85010109Y-63230212D01*
X84896569Y-63116672D01*
X84863084Y-63055349D01*
X84868068Y-62985657D01*
X84909940Y-62929724D01*
X84940915Y-62912809D01*
X85072331Y-62863795D01*
X85187546Y-62777545D01*
X85273796Y-62662330D01*
X85324091Y-62527482D01*
X85330500Y-62467872D01*
X85330499Y-60672127D01*
X85324091Y-60612516D01*
X85292753Y-60528495D01*
X85273797Y-60477670D01*
X85273793Y-60477663D01*
X85187547Y-60362454D01*
X85187544Y-60362451D01*
X85072335Y-60276205D01*
X85072328Y-60276201D01*
X84937482Y-60225907D01*
X84937483Y-60225907D01*
X84877883Y-60219500D01*
X84877881Y-60219499D01*
X84877873Y-60219499D01*
X84877865Y-60219499D01*
X83949500Y-60219499D01*
X83882461Y-60199814D01*
X83836706Y-60147010D01*
X83825500Y-60095499D01*
X83825500Y-58227651D01*
X83845185Y-58160612D01*
X83897989Y-58114857D01*
X83967147Y-58104913D01*
X84030703Y-58133938D01*
X84037181Y-58139970D01*
X84057837Y-58160626D01*
X84150494Y-58222537D01*
X84197137Y-58253703D01*
X84351918Y-58317816D01*
X84516228Y-58350499D01*
X84516232Y-58350500D01*
X84516233Y-58350500D01*
X84683768Y-58350500D01*
X84683769Y-58350499D01*
X84848082Y-58317816D01*
X85002863Y-58253703D01*
X85142162Y-58160626D01*
X85260626Y-58042162D01*
X85353703Y-57902863D01*
X85417816Y-57748082D01*
X85450500Y-57583767D01*
X85450500Y-57416233D01*
X85417816Y-57251918D01*
X85353703Y-57097137D01*
X85316970Y-57042162D01*
X85260626Y-56957837D01*
X85256761Y-56953128D01*
X85258028Y-56952087D01*
X85228334Y-56897707D01*
X85225500Y-56871349D01*
X85225500Y-52224500D01*
X85245185Y-52157461D01*
X85297989Y-52111706D01*
X85349500Y-52100500D01*
X85360221Y-52100500D01*
X85360222Y-52100500D01*
X85577951Y-52066015D01*
X85787606Y-51997895D01*
X85984022Y-51897815D01*
X86162365Y-51768242D01*
X86318242Y-51612365D01*
X86447815Y-51434022D01*
X86547895Y-51237606D01*
X86616015Y-51027951D01*
X86650500Y-50810222D01*
X86650500Y-50589778D01*
X86616015Y-50372049D01*
X86547895Y-50162394D01*
X86547895Y-50162393D01*
X86513237Y-50094375D01*
X86447815Y-49965978D01*
X86349501Y-49830659D01*
X86318247Y-49787641D01*
X86318243Y-49787636D01*
X86162363Y-49631756D01*
X86162358Y-49631752D01*
X85984025Y-49502187D01*
X85984024Y-49502186D01*
X85984022Y-49502185D01*
X85866791Y-49442452D01*
X85787606Y-49402104D01*
X85787603Y-49402103D01*
X85577952Y-49333985D01*
X85469086Y-49316742D01*
X85360222Y-49299500D01*
X85139778Y-49299500D01*
X85067201Y-49310995D01*
X84922047Y-49333985D01*
X84712396Y-49402103D01*
X84712393Y-49402104D01*
X84515974Y-49502187D01*
X84337641Y-49631752D01*
X84337635Y-49631757D01*
X84316596Y-49652796D01*
X84255273Y-49686280D01*
X84185581Y-49681294D01*
X84129648Y-49639421D01*
X84112735Y-49608446D01*
X84093797Y-49557671D01*
X84093793Y-49557664D01*
X84007547Y-49442455D01*
X84007544Y-49442452D01*
X83892335Y-49356206D01*
X83892328Y-49356202D01*
X83757482Y-49305908D01*
X83757483Y-49305908D01*
X83697883Y-49299501D01*
X83697881Y-49299500D01*
X83697873Y-49299500D01*
X83697864Y-49299500D01*
X81802129Y-49299500D01*
X81802123Y-49299501D01*
X81742516Y-49305908D01*
X81607671Y-49356202D01*
X81607664Y-49356206D01*
X81492455Y-49442452D01*
X81492452Y-49442455D01*
X81406206Y-49557664D01*
X81406202Y-49557671D01*
X81355908Y-49692517D01*
X81349501Y-49752116D01*
X81349500Y-49752135D01*
X81349500Y-51647870D01*
X81349501Y-51647876D01*
X81355908Y-51707483D01*
X81406202Y-51842328D01*
X81406206Y-51842335D01*
X81492452Y-51957544D01*
X81492455Y-51957547D01*
X81607664Y-52043793D01*
X81607671Y-52043797D01*
X81742517Y-52094091D01*
X81742516Y-52094091D01*
X81749444Y-52094835D01*
X81802127Y-52100500D01*
X82850500Y-52100499D01*
X82917539Y-52120183D01*
X82963294Y-52172987D01*
X82974500Y-52224499D01*
X82974500Y-54871349D01*
X82954815Y-54938388D01*
X82943057Y-54952978D01*
X82943239Y-54953128D01*
X82939373Y-54957837D01*
X82846295Y-55097139D01*
X82782184Y-55251917D01*
X82782182Y-55251925D01*
X82749500Y-55416228D01*
X82749500Y-55583771D01*
X82767460Y-55674063D01*
X82761233Y-55743655D01*
X82718369Y-55798832D01*
X82714735Y-55801355D01*
X82657840Y-55839371D01*
X82657834Y-55839376D01*
X82539373Y-55957837D01*
X82446295Y-56097139D01*
X82382184Y-56251917D01*
X82382182Y-56251925D01*
X82349500Y-56416228D01*
X82349500Y-56541118D01*
X82329815Y-56608157D01*
X82277011Y-56653912D01*
X82249691Y-56662735D01*
X82151925Y-56682182D01*
X82151917Y-56682184D01*
X81997139Y-56746295D01*
X81857837Y-56839373D01*
X81739373Y-56957837D01*
X81646295Y-57097139D01*
X81582184Y-57251917D01*
X81582182Y-57251925D01*
X81549500Y-57416228D01*
X81549500Y-57583771D01*
X81582182Y-57748074D01*
X81582184Y-57748082D01*
X81646295Y-57902860D01*
X81739373Y-58042162D01*
X81743239Y-58046872D01*
X81741968Y-58047914D01*
X81771662Y-58102272D01*
X81774500Y-58128650D01*
X81774500Y-60124037D01*
X81754815Y-60191076D01*
X81702011Y-60236831D01*
X81632853Y-60246775D01*
X81577615Y-60224355D01*
X81490504Y-60161066D01*
X81490503Y-60161065D01*
X81490501Y-60161064D01*
X81361822Y-60095499D01*
X81270940Y-60049192D01*
X81036592Y-59973048D01*
X80854053Y-59944137D01*
X80793208Y-59934500D01*
X80546792Y-59934500D01*
X80465665Y-59947349D01*
X80303409Y-59973048D01*
X80303406Y-59973048D01*
X80069059Y-60049192D01*
X79849498Y-60161064D01*
X79650142Y-60305905D01*
X79475905Y-60480142D01*
X79331064Y-60679498D01*
X79219192Y-60899059D01*
X79143048Y-61133406D01*
X79143048Y-61133409D01*
X79104500Y-61376792D01*
X77246556Y-61376792D01*
X77238250Y-61311968D01*
X77222250Y-61187064D01*
X77151370Y-60950809D01*
X77042856Y-60729303D01*
X76899621Y-60528495D01*
X76725512Y-60353777D01*
X76725507Y-60353773D01*
X76525208Y-60209843D01*
X76525202Y-60209840D01*
X76304081Y-60100555D01*
X76304076Y-60100554D01*
X76220491Y-60075159D01*
X76068074Y-60028851D01*
X76068070Y-60028850D01*
X76068072Y-60028850D01*
X75823540Y-59996657D01*
X75823529Y-59996656D01*
X75823526Y-59996656D01*
X75813606Y-59996413D01*
X75750004Y-59994858D01*
X75749992Y-59994859D01*
X75504168Y-60015070D01*
X75264944Y-60075159D01*
X75264936Y-60075162D01*
X75038746Y-60173512D01*
X74831644Y-60307492D01*
X74831643Y-60307493D01*
X74649211Y-60473494D01*
X74496338Y-60667064D01*
X74496336Y-60667067D01*
X74377130Y-60883008D01*
X74377126Y-60883017D01*
X74294796Y-61115508D01*
X74294791Y-61115528D01*
X74251538Y-61358351D01*
X74248525Y-61604994D01*
X73935500Y-61604994D01*
X73935500Y-61376792D01*
X73896952Y-61133411D01*
X73896951Y-61133407D01*
X73896951Y-61133406D01*
X73820807Y-60899059D01*
X73734312Y-60729303D01*
X73708936Y-60679499D01*
X73564097Y-60480145D01*
X73389855Y-60305903D01*
X73190501Y-60161064D01*
X73071745Y-60100555D01*
X72970940Y-60049192D01*
X72736592Y-59973048D01*
X72554053Y-59944137D01*
X72493208Y-59934500D01*
X72246792Y-59934500D01*
X72165665Y-59947349D01*
X72003409Y-59973048D01*
X72003406Y-59973048D01*
X71769059Y-60049192D01*
X71549498Y-60161064D01*
X71350142Y-60305905D01*
X71175905Y-60480142D01*
X71031064Y-60679498D01*
X70919192Y-60899059D01*
X70843048Y-61133406D01*
X70843048Y-61133409D01*
X70804500Y-61376792D01*
X68425500Y-61376792D01*
X68425500Y-52196066D01*
X68445185Y-52129027D01*
X68497989Y-52083272D01*
X68530095Y-52073594D01*
X68577951Y-52066015D01*
X68787606Y-51997895D01*
X68984022Y-51897815D01*
X69162365Y-51768242D01*
X69318242Y-51612365D01*
X69399682Y-51500270D01*
X69455011Y-51457606D01*
X69524624Y-51451627D01*
X69586420Y-51484232D01*
X69600313Y-51500265D01*
X69681753Y-51612358D01*
X69681758Y-51612365D01*
X69837636Y-51768243D01*
X69837641Y-51768247D01*
X69869721Y-51791554D01*
X70015978Y-51897815D01*
X70144375Y-51963237D01*
X70212393Y-51997895D01*
X70212396Y-51997896D01*
X70317221Y-52031955D01*
X70422049Y-52066015D01*
X70639778Y-52100500D01*
X70639779Y-52100500D01*
X70850500Y-52100500D01*
X70917539Y-52120185D01*
X70963294Y-52172989D01*
X70974500Y-52224500D01*
X70974500Y-55871349D01*
X70954815Y-55938388D01*
X70943057Y-55952978D01*
X70943239Y-55953128D01*
X70939373Y-55957837D01*
X70846295Y-56097139D01*
X70782184Y-56251917D01*
X70782182Y-56251925D01*
X70749500Y-56416228D01*
X70749500Y-56583771D01*
X70782182Y-56748074D01*
X70782184Y-56748082D01*
X70846295Y-56902860D01*
X70939373Y-57042162D01*
X71057837Y-57160626D01*
X71150494Y-57222537D01*
X71197137Y-57253703D01*
X71351918Y-57317816D01*
X71516228Y-57350499D01*
X71516232Y-57350500D01*
X71516233Y-57350500D01*
X71683768Y-57350500D01*
X71683769Y-57350499D01*
X71848082Y-57317816D01*
X72002863Y-57253703D01*
X72142162Y-57160626D01*
X72260626Y-57042162D01*
X72353703Y-56902863D01*
X72417816Y-56748082D01*
X72450500Y-56583767D01*
X72450500Y-56416233D01*
X72417816Y-56251918D01*
X72353703Y-56097137D01*
X72316970Y-56042162D01*
X72260626Y-55957837D01*
X72256761Y-55953128D01*
X72258028Y-55952087D01*
X72228334Y-55897707D01*
X72225500Y-55871349D01*
X72225500Y-50838393D01*
X72225499Y-50838389D01*
X72201464Y-50717555D01*
X72201463Y-50717548D01*
X72157329Y-50611001D01*
X72149418Y-50582948D01*
X72116015Y-50372049D01*
X72047895Y-50162394D01*
X72047895Y-50162393D01*
X72013237Y-50094375D01*
X71947815Y-49965978D01*
X71849501Y-49830659D01*
X71818247Y-49787641D01*
X71818243Y-49787636D01*
X71662363Y-49631756D01*
X71662358Y-49631752D01*
X71484025Y-49502187D01*
X71484024Y-49502186D01*
X71484022Y-49502185D01*
X71366791Y-49442452D01*
X71287606Y-49402104D01*
X71287603Y-49402103D01*
X71077952Y-49333985D01*
X70969086Y-49316742D01*
X70860222Y-49299500D01*
X70639778Y-49299500D01*
X70567201Y-49310995D01*
X70422047Y-49333985D01*
X70212396Y-49402103D01*
X70212393Y-49402104D01*
X70015974Y-49502187D01*
X69837641Y-49631752D01*
X69837636Y-49631756D01*
X69681756Y-49787636D01*
X69681752Y-49787641D01*
X69600318Y-49899727D01*
X69544989Y-49942393D01*
X69475375Y-49948372D01*
X69413580Y-49915767D01*
X69399682Y-49899727D01*
X69318247Y-49787641D01*
X69318243Y-49787636D01*
X69162363Y-49631756D01*
X69162358Y-49631752D01*
X68984025Y-49502187D01*
X68984024Y-49502186D01*
X68984022Y-49502185D01*
X68866791Y-49442452D01*
X68787606Y-49402104D01*
X68787603Y-49402103D01*
X68577952Y-49333985D01*
X68469086Y-49316742D01*
X68360222Y-49299500D01*
X68139778Y-49299500D01*
X68067201Y-49310995D01*
X67922047Y-49333985D01*
X67712396Y-49402103D01*
X67712393Y-49402104D01*
X67515974Y-49502187D01*
X67337641Y-49631752D01*
X67337635Y-49631757D01*
X67316596Y-49652796D01*
X67255273Y-49686280D01*
X67185581Y-49681294D01*
X67129648Y-49639421D01*
X67112735Y-49608446D01*
X67093797Y-49557671D01*
X67093793Y-49557664D01*
X67007547Y-49442455D01*
X67007544Y-49442452D01*
X66892335Y-49356206D01*
X66892328Y-49356202D01*
X66757482Y-49305908D01*
X66757483Y-49305908D01*
X66697883Y-49299501D01*
X66697881Y-49299500D01*
X66697873Y-49299500D01*
X66697864Y-49299500D01*
X64802129Y-49299500D01*
X64802123Y-49299501D01*
X64742516Y-49305908D01*
X64607671Y-49356202D01*
X64607664Y-49356206D01*
X64492455Y-49442452D01*
X64492452Y-49442455D01*
X64406206Y-49557664D01*
X64406202Y-49557671D01*
X64355908Y-49692517D01*
X64349501Y-49752116D01*
X64349500Y-49752135D01*
X61500500Y-49752135D01*
X61500500Y-45097739D01*
X61520185Y-45030700D01*
X61572989Y-44984945D01*
X61642147Y-44975001D01*
X61699984Y-44999362D01*
X61853226Y-45116948D01*
X62046274Y-45228405D01*
X62252219Y-45313710D01*
X62467537Y-45371404D01*
X62688543Y-45400500D01*
X62688550Y-45400500D01*
X63211450Y-45400500D01*
X63211457Y-45400500D01*
X63432463Y-45371404D01*
X63647781Y-45313710D01*
X63853726Y-45228405D01*
X64046774Y-45116948D01*
X64223624Y-44981247D01*
X64381247Y-44823624D01*
X64516948Y-44646774D01*
X64628405Y-44453726D01*
X64713710Y-44247781D01*
X64771404Y-44032463D01*
X64800500Y-43811457D01*
X64800500Y-43588549D01*
X71699500Y-43588549D01*
X71699500Y-43811450D01*
X71699501Y-43811466D01*
X71728594Y-44032452D01*
X71728595Y-44032457D01*
X71728596Y-44032463D01*
X71728597Y-44032465D01*
X71786290Y-44247780D01*
X71786293Y-44247790D01*
X71871593Y-44453722D01*
X71871595Y-44453726D01*
X71983052Y-44646774D01*
X71983057Y-44646780D01*
X71983058Y-44646782D01*
X72118751Y-44823622D01*
X72118757Y-44823629D01*
X72276370Y-44981242D01*
X72276377Y-44981248D01*
X72402294Y-45077867D01*
X72453226Y-45116948D01*
X72646274Y-45228405D01*
X72852219Y-45313710D01*
X73067537Y-45371404D01*
X73288543Y-45400500D01*
X73288550Y-45400500D01*
X73811450Y-45400500D01*
X73811457Y-45400500D01*
X74032463Y-45371404D01*
X74247781Y-45313710D01*
X74453726Y-45228405D01*
X74646774Y-45116948D01*
X74823624Y-44981247D01*
X74981247Y-44823624D01*
X75116948Y-44646774D01*
X75228405Y-44453726D01*
X75313710Y-44247781D01*
X75371404Y-44032463D01*
X75400500Y-43811457D01*
X75400500Y-43588549D01*
X78099500Y-43588549D01*
X78099500Y-43811450D01*
X78099501Y-43811466D01*
X78128594Y-44032452D01*
X78128595Y-44032457D01*
X78128596Y-44032463D01*
X78128597Y-44032465D01*
X78186290Y-44247780D01*
X78186293Y-44247790D01*
X78271593Y-44453722D01*
X78271595Y-44453726D01*
X78383052Y-44646774D01*
X78383057Y-44646780D01*
X78383058Y-44646782D01*
X78518751Y-44823622D01*
X78518757Y-44823629D01*
X78676370Y-44981242D01*
X78676377Y-44981248D01*
X78802294Y-45077867D01*
X78853226Y-45116948D01*
X79046274Y-45228405D01*
X79252219Y-45313710D01*
X79467537Y-45371404D01*
X79688543Y-45400500D01*
X79688550Y-45400500D01*
X80211450Y-45400500D01*
X80211457Y-45400500D01*
X80432463Y-45371404D01*
X80647781Y-45313710D01*
X80853726Y-45228405D01*
X81046774Y-45116948D01*
X81223624Y-44981247D01*
X81381247Y-44823624D01*
X81516948Y-44646774D01*
X81628405Y-44453726D01*
X81713710Y-44247781D01*
X81771404Y-44032463D01*
X81800500Y-43811457D01*
X81800500Y-43588549D01*
X88699500Y-43588549D01*
X88699500Y-43811450D01*
X88699501Y-43811466D01*
X88728594Y-44032452D01*
X88728595Y-44032457D01*
X88728596Y-44032463D01*
X88728597Y-44032465D01*
X88786290Y-44247780D01*
X88786293Y-44247790D01*
X88871593Y-44453722D01*
X88871595Y-44453726D01*
X88983052Y-44646774D01*
X88983057Y-44646780D01*
X88983058Y-44646782D01*
X89118751Y-44823622D01*
X89118757Y-44823629D01*
X89276370Y-44981242D01*
X89276377Y-44981248D01*
X89402294Y-45077867D01*
X89453226Y-45116948D01*
X89646274Y-45228405D01*
X89852219Y-45313710D01*
X90067537Y-45371404D01*
X90288543Y-45400500D01*
X90288550Y-45400500D01*
X90811450Y-45400500D01*
X90811457Y-45400500D01*
X91032463Y-45371404D01*
X91247781Y-45313710D01*
X91453726Y-45228405D01*
X91646774Y-45116948D01*
X91823624Y-44981247D01*
X91981247Y-44823624D01*
X92116948Y-44646774D01*
X92228405Y-44453726D01*
X92313710Y-44247781D01*
X92371404Y-44032463D01*
X92400500Y-43811457D01*
X92400500Y-43588549D01*
X95099500Y-43588549D01*
X95099500Y-43811450D01*
X95099501Y-43811466D01*
X95128594Y-44032452D01*
X95128595Y-44032457D01*
X95128596Y-44032463D01*
X95128597Y-44032465D01*
X95186290Y-44247780D01*
X95186293Y-44247790D01*
X95271593Y-44453722D01*
X95271595Y-44453726D01*
X95383052Y-44646774D01*
X95383057Y-44646780D01*
X95383058Y-44646782D01*
X95518751Y-44823622D01*
X95518757Y-44823629D01*
X95676370Y-44981242D01*
X95676377Y-44981248D01*
X95802294Y-45077867D01*
X95853226Y-45116948D01*
X96046274Y-45228405D01*
X96252219Y-45313710D01*
X96467537Y-45371404D01*
X96688543Y-45400500D01*
X96688550Y-45400500D01*
X97211450Y-45400500D01*
X97211457Y-45400500D01*
X97432463Y-45371404D01*
X97647781Y-45313710D01*
X97853726Y-45228405D01*
X98046774Y-45116948D01*
X98223624Y-44981247D01*
X98381247Y-44823624D01*
X98516948Y-44646774D01*
X98628405Y-44453726D01*
X98713710Y-44247781D01*
X98771404Y-44032463D01*
X98800500Y-43811457D01*
X98800500Y-43588543D01*
X98771404Y-43367537D01*
X98713710Y-43152219D01*
X98628405Y-42946274D01*
X98516948Y-42753226D01*
X98381247Y-42576376D01*
X98381242Y-42576370D01*
X98223629Y-42418757D01*
X98223622Y-42418751D01*
X98046782Y-42283058D01*
X98046780Y-42283057D01*
X98046774Y-42283052D01*
X97853726Y-42171595D01*
X97853722Y-42171593D01*
X97647790Y-42086293D01*
X97647783Y-42086291D01*
X97647781Y-42086290D01*
X97432463Y-42028596D01*
X97432457Y-42028595D01*
X97432452Y-42028594D01*
X97211466Y-41999501D01*
X97211463Y-41999500D01*
X97211457Y-41999500D01*
X96688543Y-41999500D01*
X96688537Y-41999500D01*
X96688533Y-41999501D01*
X96467547Y-42028594D01*
X96467540Y-42028595D01*
X96467537Y-42028596D01*
X96252219Y-42086290D01*
X96252209Y-42086293D01*
X96046277Y-42171593D01*
X96046273Y-42171595D01*
X95853226Y-42283052D01*
X95853217Y-42283058D01*
X95676377Y-42418751D01*
X95676370Y-42418757D01*
X95518757Y-42576370D01*
X95518751Y-42576377D01*
X95383058Y-42753217D01*
X95383052Y-42753226D01*
X95271595Y-42946273D01*
X95271593Y-42946277D01*
X95186293Y-43152209D01*
X95186290Y-43152219D01*
X95128597Y-43367534D01*
X95128594Y-43367547D01*
X95099501Y-43588533D01*
X95099500Y-43588549D01*
X92400500Y-43588549D01*
X92400500Y-43588543D01*
X92371404Y-43367537D01*
X92313710Y-43152219D01*
X92228405Y-42946274D01*
X92116948Y-42753226D01*
X91981247Y-42576376D01*
X91981242Y-42576370D01*
X91823629Y-42418757D01*
X91823622Y-42418751D01*
X91646782Y-42283058D01*
X91646780Y-42283057D01*
X91646774Y-42283052D01*
X91453726Y-42171595D01*
X91453722Y-42171593D01*
X91247790Y-42086293D01*
X91247783Y-42086291D01*
X91247781Y-42086290D01*
X91032463Y-42028596D01*
X91032457Y-42028595D01*
X91032452Y-42028594D01*
X90811466Y-41999501D01*
X90811463Y-41999500D01*
X90811457Y-41999500D01*
X90288543Y-41999500D01*
X90288537Y-41999500D01*
X90288533Y-41999501D01*
X90067547Y-42028594D01*
X90067540Y-42028595D01*
X90067537Y-42028596D01*
X89852219Y-42086290D01*
X89852209Y-42086293D01*
X89646277Y-42171593D01*
X89646273Y-42171595D01*
X89453226Y-42283052D01*
X89453217Y-42283058D01*
X89276377Y-42418751D01*
X89276370Y-42418757D01*
X89118757Y-42576370D01*
X89118751Y-42576377D01*
X88983058Y-42753217D01*
X88983052Y-42753226D01*
X88871595Y-42946273D01*
X88871593Y-42946277D01*
X88786293Y-43152209D01*
X88786290Y-43152219D01*
X88728597Y-43367534D01*
X88728594Y-43367547D01*
X88699501Y-43588533D01*
X88699500Y-43588549D01*
X81800500Y-43588549D01*
X81800500Y-43588543D01*
X81771404Y-43367537D01*
X81713710Y-43152219D01*
X81628405Y-42946274D01*
X81516948Y-42753226D01*
X81381247Y-42576376D01*
X81381242Y-42576370D01*
X81223629Y-42418757D01*
X81223622Y-42418751D01*
X81046782Y-42283058D01*
X81046780Y-42283057D01*
X81046774Y-42283052D01*
X80853726Y-42171595D01*
X80853722Y-42171593D01*
X80647790Y-42086293D01*
X80647783Y-42086291D01*
X80647781Y-42086290D01*
X80432463Y-42028596D01*
X80432457Y-42028595D01*
X80432452Y-42028594D01*
X80211466Y-41999501D01*
X80211463Y-41999500D01*
X80211457Y-41999500D01*
X79688543Y-41999500D01*
X79688537Y-41999500D01*
X79688533Y-41999501D01*
X79467547Y-42028594D01*
X79467540Y-42028595D01*
X79467537Y-42028596D01*
X79252219Y-42086290D01*
X79252209Y-42086293D01*
X79046277Y-42171593D01*
X79046273Y-42171595D01*
X78853226Y-42283052D01*
X78853217Y-42283058D01*
X78676377Y-42418751D01*
X78676370Y-42418757D01*
X78518757Y-42576370D01*
X78518751Y-42576377D01*
X78383058Y-42753217D01*
X78383052Y-42753226D01*
X78271595Y-42946273D01*
X78271593Y-42946277D01*
X78186293Y-43152209D01*
X78186290Y-43152219D01*
X78128597Y-43367534D01*
X78128594Y-43367547D01*
X78099501Y-43588533D01*
X78099500Y-43588549D01*
X75400500Y-43588549D01*
X75400500Y-43588543D01*
X75371404Y-43367537D01*
X75313710Y-43152219D01*
X75228405Y-42946274D01*
X75116948Y-42753226D01*
X74981247Y-42576376D01*
X74981242Y-42576370D01*
X74823629Y-42418757D01*
X74823622Y-42418751D01*
X74646782Y-42283058D01*
X74646780Y-42283057D01*
X74646774Y-42283052D01*
X74453726Y-42171595D01*
X74453722Y-42171593D01*
X74247790Y-42086293D01*
X74247783Y-42086291D01*
X74247781Y-42086290D01*
X74032463Y-42028596D01*
X74032457Y-42028595D01*
X74032452Y-42028594D01*
X73811466Y-41999501D01*
X73811463Y-41999500D01*
X73811457Y-41999500D01*
X73288543Y-41999500D01*
X73288537Y-41999500D01*
X73288533Y-41999501D01*
X73067547Y-42028594D01*
X73067540Y-42028595D01*
X73067537Y-42028596D01*
X72852219Y-42086290D01*
X72852209Y-42086293D01*
X72646277Y-42171593D01*
X72646273Y-42171595D01*
X72453226Y-42283052D01*
X72453217Y-42283058D01*
X72276377Y-42418751D01*
X72276370Y-42418757D01*
X72118757Y-42576370D01*
X72118751Y-42576377D01*
X71983058Y-42753217D01*
X71983052Y-42753226D01*
X71871595Y-42946273D01*
X71871593Y-42946277D01*
X71786293Y-43152209D01*
X71786290Y-43152219D01*
X71728597Y-43367534D01*
X71728594Y-43367547D01*
X71699501Y-43588533D01*
X71699500Y-43588549D01*
X64800500Y-43588549D01*
X64800500Y-43588543D01*
X64771404Y-43367537D01*
X64713710Y-43152219D01*
X64628405Y-42946274D01*
X64516948Y-42753226D01*
X64381247Y-42576376D01*
X64381242Y-42576370D01*
X64223629Y-42418757D01*
X64223622Y-42418751D01*
X64046782Y-42283058D01*
X64046780Y-42283057D01*
X64046774Y-42283052D01*
X63853726Y-42171595D01*
X63853722Y-42171593D01*
X63647790Y-42086293D01*
X63647783Y-42086291D01*
X63647781Y-42086290D01*
X63432463Y-42028596D01*
X63432457Y-42028595D01*
X63432452Y-42028594D01*
X63211466Y-41999501D01*
X63211463Y-41999500D01*
X63211457Y-41999500D01*
X62688543Y-41999500D01*
X62688537Y-41999500D01*
X62688533Y-41999501D01*
X62467547Y-42028594D01*
X62467540Y-42028595D01*
X62467537Y-42028596D01*
X62252219Y-42086290D01*
X62252209Y-42086293D01*
X62046277Y-42171593D01*
X62046273Y-42171595D01*
X61853226Y-42283052D01*
X61853217Y-42283058D01*
X61699986Y-42400636D01*
X61634817Y-42425830D01*
X61566372Y-42411791D01*
X61516382Y-42362977D01*
X61500500Y-42302260D01*
X61500500Y-32124500D01*
X61520185Y-32057461D01*
X61572989Y-32011706D01*
X61624500Y-32000500D01*
X108875500Y-32000500D01*
X108942539Y-32020185D01*
G37*
%TD.AperFunction*%
%TD*%
M02*
