%TF.GenerationSoftware,KiCad,Pcbnew,9.0.9-9.0.9~ubuntu24.04.1*%
%TF.CreationDate,2026-10-04T05:16:58+00:00*%
%TF.ProjectId,module-jack,6d6f6475-6c65-42d6-9a61-636b2e6b6963,A*%
%TF.SameCoordinates,Original*%
%TF.FileFunction,Soldermask,Bot*%
%TF.FilePolarity,Negative*%
%FSLAX46Y46*%
G04 Gerber Fmt 4.6, Leading zero omitted, Abs format (unit mm)*
G04 Created by KiCad (PCBNEW 9.0.9-9.0.9~ubuntu24.04.1) date 2026-10-04 05:16:58*
%MOMM*%
%LPD*%
G01*
G04 APERTURE LIST*
G04 Aperture macros list*
%AMRoundRect*
0 Rectangle with rounded corners*
0 $1 Rounding radius*
0 $2 $3 $4 $5 $6 $7 $8 $9 X,Y pos of 4 corners*
0 Add a 4 corners polygon primitive as box body*
4,1,4,$2,$3,$4,$5,$6,$7,$8,$9,$2,$3,0*
0 Add four circle primitives for the rounded corners*
1,1,$1+$1,$2,$3*
1,1,$1+$1,$4,$5*
1,1,$1+$1,$6,$7*
1,1,$1+$1,$8,$9*
0 Add four rect primitives between the rounded corners*
20,1,$1+$1,$2,$3,$4,$5,0*
20,1,$1+$1,$4,$5,$6,$7,0*
20,1,$1+$1,$6,$7,$8,$9,0*
20,1,$1+$1,$8,$9,$2,$3,0*%
G04 Aperture macros list end*
%ADD10C,6.400000*%
%ADD11O,2.700000X2.400000*%
%ADD12R,1.800000X1.800000*%
%ADD13C,1.800000*%
%ADD14R,1.830000X1.930000*%
%ADD15C,2.130000*%
%ADD16R,1.700000X1.700000*%
%ADD17C,1.700000*%
%ADD18RoundRect,0.112500X-0.187500X-0.112500X0.187500X-0.112500X0.187500X0.112500X-0.187500X0.112500X0*%
G04 APERTURE END LIST*
D10*
%TO.C,H1*%
X76750000Y-35200000D03*
%TD*%
D11*
%TO.C,RV2*%
X79950000Y-43700000D03*
X90550000Y-43700000D03*
D12*
X82750000Y-50700000D03*
D13*
X85250000Y-50700000D03*
X87750000Y-50700000D03*
%TD*%
D14*
%TO.C,J6*%
X101230000Y-87500000D03*
D15*
X89830000Y-87500000D03*
X98130000Y-87500000D03*
%TD*%
D14*
%TO.C,J4*%
X69270000Y-87500000D03*
D15*
X80670000Y-87500000D03*
X72370000Y-87500000D03*
%TD*%
D11*
%TO.C,RV3*%
X96950000Y-43700000D03*
X107550000Y-43700000D03*
D12*
X99750000Y-50700000D03*
D13*
X102250000Y-50700000D03*
X104750000Y-50700000D03*
%TD*%
D14*
%TO.C,J2*%
X69270000Y-61500000D03*
D15*
X80670000Y-61500000D03*
X72370000Y-61500000D03*
%TD*%
D11*
%TO.C,RV1*%
X62950000Y-43700000D03*
X73550000Y-43700000D03*
D12*
X65750000Y-50700000D03*
D13*
X68250000Y-50700000D03*
X70750000Y-50700000D03*
%TD*%
D14*
%TO.C,J1*%
X101230000Y-61500000D03*
D15*
X89830000Y-61500000D03*
X98130000Y-61500000D03*
%TD*%
D10*
%TO.C,H2*%
X93750000Y-35200000D03*
%TD*%
D14*
%TO.C,J5*%
X101230000Y-74500000D03*
D15*
X89830000Y-74500000D03*
X98130000Y-74500000D03*
%TD*%
D16*
%TO.C,J7*%
X83980000Y-61569999D03*
D17*
X86520000Y-61569999D03*
X83980000Y-64109999D03*
X86520000Y-64109999D03*
X83980000Y-66649999D03*
X86520000Y-66649999D03*
X83980000Y-69189999D03*
X86520000Y-69189999D03*
X83980000Y-71729999D03*
X86520000Y-71729999D03*
X83980000Y-74269999D03*
X86520000Y-74269999D03*
X83980000Y-76809999D03*
X86520000Y-76809999D03*
X83980000Y-79349999D03*
X86520000Y-79349999D03*
X83980000Y-81889999D03*
X86520000Y-81889999D03*
X83980000Y-84429999D03*
X86520000Y-84429999D03*
%TD*%
D14*
%TO.C,J3*%
X69270000Y-74500000D03*
D15*
X80670000Y-74500000D03*
X72370000Y-74500000D03*
%TD*%
D18*
%TO.C,D2*%
X92950000Y-64000000D03*
X95050000Y-64000000D03*
%TD*%
M02*
