  0
SECTION
  2
BLOCKS
  0
ENDSEC
  0
SECTION
  2
ENTITIES
  0
LINE
  8
0
 10
37.6
 20
49.485
 11
49.5
 21
49.485
  0
LINE
  8
0
 10
49.5
 20
49.485
 11
49.5
 21
84
  0
LINE
  8
0
 10
49.5
 20
84
 11
1
 21
84
  0
LINE
  8
0
 10
1
 20
84
 11
1
 21
37.85
  0
LINE
  8
0
 10
1
 20
37.85
 11
37.6
 21
37.85
  0
LINE
  8
0
 10
37.6
 20
37.85
 11
37.6
 21
49.485
  0
LINE
  8
0
 10
4.59116
 20
78.5137
 11
4.38588
 21
78.5545
  0
LINE
  8
0
 10
4.38588
 20
78.5545
 11
4.1877
 21
78.6218
  0
LINE
  8
0
 10
4.1877
 20
78.6218
 11
4
 21
78.7144
  0
LINE
  8
0
 10
4
 20
78.7144
 11
3.82597
 21
78.8306
  0
LINE
  8
0
 10
3.82597
 20
78.8306
 11
3.66862
 21
78.9686
  0
LINE
  8
0
 10
3.66862
 20
78.9686
 11
3.53062
 21
79.126
  0
LINE
  8
0
 10
3.53062
 20
79.126
 11
3.41435
 21
79.3
  0
LINE
  8
0
 10
3.41435
 20
79.3
 11
3.32179
 21
79.4877
  0
LINE
  8
0
 10
3.32179
 20
79.4877
 11
3.25452
 21
79.6859
  0
LINE
  8
0
 10
3.25452
 20
79.6859
 11
3.21368
 21
79.8911
  0
LINE
  8
0
 10
3.21368
 20
79.8911
 11
3.2
 21
80.1
  0
LINE
  8
0
 10
3.2
 20
80.1
 11
3.21368
 21
80.3088
  0
LINE
  8
0
 10
3.21368
 20
80.3088
 11
3.25452
 21
80.5141
  0
LINE
  8
0
 10
3.25452
 20
80.5141
 11
3.32179
 21
80.7123
  0
LINE
  8
0
 10
3.32179
 20
80.7123
 11
3.41435
 21
80.9
  0
LINE
  8
0
 10
3.41435
 20
80.9
 11
3.53062
 21
81.074
  0
LINE
  8
0
 10
3.53062
 20
81.074
 11
3.66862
 21
81.2314
  0
LINE
  8
0
 10
3.66862
 20
81.2314
 11
3.82597
 21
81.3694
  0
LINE
  8
0
 10
3.82597
 20
81.3694
 11
4
 21
81.4856
  0
LINE
  8
0
 10
4
 20
81.4856
 11
4.1877
 21
81.5782
  0
LINE
  8
0
 10
4.1877
 20
81.5782
 11
4.38588
 21
81.6455
  0
LINE
  8
0
 10
4.38588
 20
81.6455
 11
4.59116
 21
81.6863
  0
LINE
  8
0
 10
4.59116
 20
81.6863
 11
4.79999
 21
81.7
  0
LINE
  8
0
 10
4.79999
 20
81.7
 11
5.00883
 21
81.6863
  0
LINE
  8
0
 10
5.00883
 20
81.6863
 11
5.2141
 21
81.6455
  0
LINE
  8
0
 10
5.2141
 20
81.6455
 11
5.41229
 21
81.5782
  0
LINE
  8
0
 10
5.41229
 20
81.5782
 11
5.59999
 21
81.4856
  0
LINE
  8
0
 10
5.59999
 20
81.4856
 11
5.77402
 21
81.3694
  0
LINE
  8
0
 10
5.77402
 20
81.3694
 11
5.93137
 21
81.2314
  0
LINE
  8
0
 10
5.93137
 20
81.2314
 11
6.06935
 21
81.074
  0
LINE
  8
0
 10
6.06935
 20
81.074
 11
6.18564
 21
80.9
  0
LINE
  8
0
 10
6.18564
 20
80.9
 11
6.2782
 21
80.7123
  0
LINE
  8
0
 10
6.2782
 20
80.7123
 11
6.34547
 21
80.5141
  0
LINE
  8
0
 10
6.34547
 20
80.5141
 11
6.38631
 21
80.3088
  0
LINE
  8
0
 10
6.38631
 20
80.3088
 11
6.39999
 21
80.1
  0
LINE
  8
0
 10
6.39999
 20
80.1
 11
6.38631
 21
79.8911
  0
LINE
  8
0
 10
6.38631
 20
79.8911
 11
6.34547
 21
79.6859
  0
LINE
  8
0
 10
6.34547
 20
79.6859
 11
6.2782
 21
79.4877
  0
LINE
  8
0
 10
6.2782
 20
79.4877
 11
6.18564
 21
79.3
  0
LINE
  8
0
 10
6.18564
 20
79.3
 11
6.06935
 21
79.126
  0
LINE
  8
0
 10
6.06935
 20
79.126
 11
5.93137
 21
78.9686
  0
LINE
  8
0
 10
5.93137
 20
78.9686
 11
5.77402
 21
78.8306
  0
LINE
  8
0
 10
5.77402
 20
78.8306
 11
5.59999
 21
78.7144
  0
LINE
  8
0
 10
5.59999
 20
78.7144
 11
5.41229
 21
78.6218
  0
LINE
  8
0
 10
5.41229
 20
78.6218
 11
5.2141
 21
78.5545
  0
LINE
  8
0
 10
5.2141
 20
78.5545
 11
5.00883
 21
78.5137
  0
LINE
  8
0
 10
5.00883
 20
78.5137
 11
4.79999
 21
78.5
  0
LINE
  8
0
 10
4.79999
 20
78.5
 11
4.59116
 21
78.5137
  0
LINE
  8
0
 10
45.4911
 20
78.5137
 11
45.2859
 21
78.5545
  0
LINE
  8
0
 10
45.2859
 20
78.5545
 11
45.0877
 21
78.6218
  0
LINE
  8
0
 10
45.0877
 20
78.6218
 11
44.9
 21
78.7144
  0
LINE
  8
0
 10
44.9
 20
78.7144
 11
44.726
 21
78.8306
  0
LINE
  8
0
 10
44.726
 20
78.8306
 11
44.5686
 21
78.9686
  0
LINE
  8
0
 10
44.5686
 20
78.9686
 11
44.4306
 21
79.126
  0
LINE
  8
0
 10
44.4306
 20
79.126
 11
44.3143
 21
79.3
  0
LINE
  8
0
 10
44.3143
 20
79.3
 11
44.2218
 21
79.4877
  0
LINE
  8
0
 10
44.2218
 20
79.4877
 11
44.1545
 21
79.6859
  0
LINE
  8
0
 10
44.1545
 20
79.6859
 11
44.1137
 21
79.8911
  0
LINE
  8
0
 10
44.1137
 20
79.8911
 11
44.1
 21
80.1
  0
LINE
  8
0
 10
44.1
 20
80.1
 11
44.1137
 21
80.3088
  0
LINE
  8
0
 10
44.1137
 20
80.3088
 11
44.1545
 21
80.5141
  0
LINE
  8
0
 10
44.1545
 20
80.5141
 11
44.2218
 21
80.7123
  0
LINE
  8
0
 10
44.2218
 20
80.7123
 11
44.3143
 21
80.9
  0
LINE
  8
0
 10
44.3143
 20
80.9
 11
44.4306
 21
81.074
  0
LINE
  8
0
 10
44.4306
 20
81.074
 11
44.5686
 21
81.2314
  0
LINE
  8
0
 10
44.5686
 20
81.2314
 11
44.726
 21
81.3694
  0
LINE
  8
0
 10
44.726
 20
81.3694
 11
44.9
 21
81.4856
  0
LINE
  8
0
 10
44.9
 20
81.4856
 11
45.0877
 21
81.5782
  0
LINE
  8
0
 10
45.0877
 20
81.5782
 11
45.2859
 21
81.6455
  0
LINE
  8
0
 10
45.2859
 20
81.6455
 11
45.4911
 21
81.6863
  0
LINE
  8
0
 10
45.4911
 20
81.6863
 11
45.7
 21
81.7
  0
LINE
  8
0
 10
45.7
 20
81.7
 11
45.9088
 21
81.6863
  0
LINE
  8
0
 10
45.9088
 20
81.6863
 11
46.1141
 21
81.6455
  0
LINE
  8
0
 10
46.1141
 20
81.6455
 11
46.3123
 21
81.5782
  0
LINE
  8
0
 10
46.3123
 20
81.5782
 11
46.5
 21
81.4856
  0
LINE
  8
0
 10
46.5
 20
81.4856
 11
46.674
 21
81.3694
  0
LINE
  8
0
 10
46.674
 20
81.3694
 11
46.8314
 21
81.2314
  0
LINE
  8
0
 10
46.8314
 20
81.2314
 11
46.9694
 21
81.074
  0
LINE
  8
0
 10
46.9694
 20
81.074
 11
47.0856
 21
80.9
  0
LINE
  8
0
 10
47.0856
 20
80.9
 11
47.1782
 21
80.7123
  0
LINE
  8
0
 10
47.1782
 20
80.7123
 11
47.2455
 21
80.5141
  0
LINE
  8
0
 10
47.2455
 20
80.5141
 11
47.2863
 21
80.3088
  0
LINE
  8
0
 10
47.2863
 20
80.3088
 11
47.3
 21
80.1
  0
LINE
  8
0
 10
47.3
 20
80.1
 11
47.2863
 21
79.8911
  0
LINE
  8
0
 10
47.2863
 20
79.8911
 11
47.2455
 21
79.6859
  0
LINE
  8
0
 10
47.2455
 20
79.6859
 11
47.1782
 21
79.4877
  0
LINE
  8
0
 10
47.1782
 20
79.4877
 11
47.0856
 21
79.3
  0
LINE
  8
0
 10
47.0856
 20
79.3
 11
46.9694
 21
79.126
  0
LINE
  8
0
 10
46.9694
 20
79.126
 11
46.8314
 21
78.9686
  0
LINE
  8
0
 10
46.8314
 20
78.9686
 11
46.674
 21
78.8306
  0
LINE
  8
0
 10
46.674
 20
78.8306
 11
46.5
 21
78.7144
  0
LINE
  8
0
 10
46.5
 20
78.7144
 11
46.3123
 21
78.6218
  0
LINE
  8
0
 10
46.3123
 20
78.6218
 11
46.1141
 21
78.5545
  0
LINE
  8
0
 10
46.1141
 20
78.5545
 11
45.9088
 21
78.5137
  0
LINE
  8
0
 10
45.9088
 20
78.5137
 11
45.7
 21
78.5
  0
LINE
  8
0
 10
45.7
 20
78.5
 11
45.4911
 21
78.5137
  0
LINE
  8
0
 10
11.2912
 20
40.2137
 11
11.0859
 21
40.2545
  0
LINE
  8
0
 10
11.0859
 20
40.2545
 11
10.8877
 21
40.3218
  0
LINE
  8
0
 10
10.8877
 20
40.3218
 11
10.7
 21
40.4144
  0
LINE
  8
0
 10
10.7
 20
40.4144
 11
10.526
 21
40.5306
  0
LINE
  8
0
 10
10.526
 20
40.5306
 11
10.3686
 21
40.6686
  0
LINE
  8
0
 10
10.3686
 20
40.6686
 11
10.2306
 21
40.826
  0
LINE
  8
0
 10
10.2306
 20
40.826
 11
10.1143
 21
41
  0
LINE
  8
0
 10
10.1143
 20
41
 11
10.0218
 21
41.1877
  0
LINE
  8
0
 10
10.0218
 20
41.1877
 11
9.95451
 21
41.3859
  0
LINE
  8
0
 10
9.95451
 20
41.3859
 11
9.91368
 21
41.5912
  0
LINE
  8
0
 10
9.91368
 20
41.5912
 11
9.89999
 21
41.8
  0
LINE
  8
0
 10
9.89999
 20
41.8
 11
9.91368
 21
42.0088
  0
LINE
  8
0
 10
9.91368
 20
42.0088
 11
9.95451
 21
42.2141
  0
LINE
  8
0
 10
9.95451
 20
42.2141
 11
10.0218
 21
42.4123
  0
LINE
  8
0
 10
10.0218
 20
42.4123
 11
10.1143
 21
42.6
  0
LINE
  8
0
 10
10.1143
 20
42.6
 11
10.2306
 21
42.774
  0
LINE
  8
0
 10
10.2306
 20
42.774
 11
10.3686
 21
42.9314
  0
LINE
  8
0
 10
10.3686
 20
42.9314
 11
10.526
 21
43.0694
  0
LINE
  8
0
 10
10.526
 20
43.0694
 11
10.7
 21
43.1856
  0
LINE
  8
0
 10
10.7
 20
43.1856
 11
10.8877
 21
43.2782
  0
LINE
  8
0
 10
10.8877
 20
43.2782
 11
11.0859
 21
43.3455
  0
LINE
  8
0
 10
11.0859
 20
43.3455
 11
11.2912
 21
43.3863
  0
LINE
  8
0
 10
11.2912
 20
43.3863
 11
11.5
 21
43.4
  0
LINE
  8
0
 10
11.5
 20
43.4
 11
11.7088
 21
43.3863
  0
LINE
  8
0
 10
11.7088
 20
43.3863
 11
11.9141
 21
43.3455
  0
LINE
  8
0
 10
11.9141
 20
43.3455
 11
12.1123
 21
43.2782
  0
LINE
  8
0
 10
12.1123
 20
43.2782
 11
12.3
 21
43.1856
  0
LINE
  8
0
 10
12.3
 20
43.1856
 11
12.474
 21
43.0694
  0
LINE
  8
0
 10
12.474
 20
43.0694
 11
12.6314
 21
42.9314
  0
LINE
  8
0
 10
12.6314
 20
42.9314
 11
12.7694
 21
42.774
  0
LINE
  8
0
 10
12.7694
 20
42.774
 11
12.8856
 21
42.6
  0
LINE
  8
0
 10
12.8856
 20
42.6
 11
12.9782
 21
42.4123
  0
LINE
  8
0
 10
12.9782
 20
42.4123
 11
13.0455
 21
42.2141
  0
LINE
  8
0
 10
13.0455
 20
42.2141
 11
13.0863
 21
42.0088
  0
LINE
  8
0
 10
13.0863
 20
42.0088
 11
13.1
 21
41.8
  0
LINE
  8
0
 10
13.1
 20
41.8
 11
13.0863
 21
41.5912
  0
LINE
  8
0
 10
13.0863
 20
41.5912
 11
13.0455
 21
41.3859
  0
LINE
  8
0
 10
13.0455
 20
41.3859
 11
12.9782
 21
41.1877
  0
LINE
  8
0
 10
12.9782
 20
41.1877
 11
12.8856
 21
41
  0
LINE
  8
0
 10
12.8856
 20
41
 11
12.7694
 21
40.826
  0
LINE
  8
0
 10
12.7694
 20
40.826
 11
12.6314
 21
40.6686
  0
LINE
  8
0
 10
12.6314
 20
40.6686
 11
12.474
 21
40.5306
  0
LINE
  8
0
 10
12.474
 20
40.5306
 11
12.3
 21
40.4144
  0
LINE
  8
0
 10
12.3
 20
40.4144
 11
12.1123
 21
40.3218
  0
LINE
  8
0
 10
12.1123
 20
40.3218
 11
11.9141
 21
40.2545
  0
LINE
  8
0
 10
11.9141
 20
40.2545
 11
11.7088
 21
40.2137
  0
LINE
  8
0
 10
11.7088
 20
40.2137
 11
11.5
 21
40.2
  0
LINE
  8
0
 10
11.5
 20
40.2
 11
11.2912
 21
40.2137
  0
ENDSEC
  0
SECTION
  2
OBJECTS
  0
DICTIONARY
  0
ENDSEC
  0
EOF
