  0
SECTION
  2
BLOCKS
  0
ENDSEC
  0
SECTION
  2
ENTITIES
  0
LINE
  8
0
 10
49.5
 20
118.5
 11
1
 21
118.5
  0
LINE
  8
0
 10
1
 20
118.5
 11
1
 21
57.5
  0
LINE
  8
0
 10
1
 20
57.5
 11
49.5
 21
57.5
  0
LINE
  8
0
 10
49.5
 20
57.5
 11
49.5
 21
118.5
  0
LINE
  8
0
 10
16.5412
 20
113.214
 11
16.3359
 21
113.255
  0
LINE
  8
0
 10
16.3359
 20
113.255
 11
16.1377
 21
113.322
  0
LINE
  8
0
 10
16.1377
 20
113.322
 11
15.95
 21
113.414
  0
LINE
  8
0
 10
15.95
 20
113.414
 11
15.776
 21
113.531
  0
LINE
  8
0
 10
15.776
 20
113.531
 11
15.6186
 21
113.669
  0
LINE
  8
0
 10
15.6186
 20
113.669
 11
15.4806
 21
113.826
  0
LINE
  8
0
 10
15.4806
 20
113.826
 11
15.3643
 21
114
  0
LINE
  8
0
 10
15.3643
 20
114
 11
15.2718
 21
114.188
  0
LINE
  8
0
 10
15.2718
 20
114.188
 11
15.2045
 21
114.386
  0
LINE
  8
0
 10
15.2045
 20
114.386
 11
15.1637
 21
114.591
  0
LINE
  8
0
 10
15.1637
 20
114.591
 11
15.15
 21
114.8
  0
LINE
  8
0
 10
15.15
 20
114.8
 11
15.1637
 21
115.009
  0
LINE
  8
0
 10
15.1637
 20
115.009
 11
15.2045
 21
115.214
  0
LINE
  8
0
 10
15.2045
 20
115.214
 11
15.2718
 21
115.412
  0
LINE
  8
0
 10
15.2718
 20
115.412
 11
15.3643
 21
115.6
  0
LINE
  8
0
 10
15.3643
 20
115.6
 11
15.4806
 21
115.774
  0
LINE
  8
0
 10
15.4806
 20
115.774
 11
15.6186
 21
115.931
  0
LINE
  8
0
 10
15.6186
 20
115.931
 11
15.776
 21
116.069
  0
LINE
  8
0
 10
15.776
 20
116.069
 11
15.95
 21
116.186
  0
LINE
  8
0
 10
15.95
 20
116.186
 11
16.1377
 21
116.278
  0
LINE
  8
0
 10
16.1377
 20
116.278
 11
16.3359
 21
116.345
  0
LINE
  8
0
 10
16.3359
 20
116.345
 11
16.5412
 21
116.386
  0
LINE
  8
0
 10
16.5412
 20
116.386
 11
16.75
 21
116.4
  0
LINE
  8
0
 10
16.75
 20
116.4
 11
16.9588
 21
116.386
  0
LINE
  8
0
 10
16.9588
 20
116.386
 11
17.1641
 21
116.345
  0
LINE
  8
0
 10
17.1641
 20
116.345
 11
17.3623
 21
116.278
  0
LINE
  8
0
 10
17.3623
 20
116.278
 11
17.55
 21
116.186
  0
LINE
  8
0
 10
17.55
 20
116.186
 11
17.724
 21
116.069
  0
LINE
  8
0
 10
17.724
 20
116.069
 11
17.8814
 21
115.931
  0
LINE
  8
0
 10
17.8814
 20
115.931
 11
18.0194
 21
115.774
  0
LINE
  8
0
 10
18.0194
 20
115.774
 11
18.1356
 21
115.6
  0
LINE
  8
0
 10
18.1356
 20
115.6
 11
18.2282
 21
115.412
  0
LINE
  8
0
 10
18.2282
 20
115.412
 11
18.2955
 21
115.214
  0
LINE
  8
0
 10
18.2955
 20
115.214
 11
18.3363
 21
115.009
  0
LINE
  8
0
 10
18.3363
 20
115.009
 11
18.35
 21
114.8
  0
LINE
  8
0
 10
18.35
 20
114.8
 11
18.3363
 21
114.591
  0
LINE
  8
0
 10
18.3363
 20
114.591
 11
18.2955
 21
114.386
  0
LINE
  8
0
 10
18.2955
 20
114.386
 11
18.2282
 21
114.188
  0
LINE
  8
0
 10
18.2282
 20
114.188
 11
18.1356
 21
114
  0
LINE
  8
0
 10
18.1356
 20
114
 11
18.0194
 21
113.826
  0
LINE
  8
0
 10
18.0194
 20
113.826
 11
17.8814
 21
113.669
  0
LINE
  8
0
 10
17.8814
 20
113.669
 11
17.724
 21
113.531
  0
LINE
  8
0
 10
17.724
 20
113.531
 11
17.55
 21
113.414
  0
LINE
  8
0
 10
17.55
 20
113.414
 11
17.3623
 21
113.322
  0
LINE
  8
0
 10
17.3623
 20
113.322
 11
17.1641
 21
113.255
  0
LINE
  8
0
 10
17.1641
 20
113.255
 11
16.9588
 21
113.214
  0
LINE
  8
0
 10
16.9588
 20
113.214
 11
16.75
 21
113.2
  0
LINE
  8
0
 10
16.75
 20
113.2
 11
16.5412
 21
113.214
  0
LINE
  8
0
 10
33.5412
 20
113.214
 11
33.3359
 21
113.255
  0
LINE
  8
0
 10
33.3359
 20
113.255
 11
33.1377
 21
113.322
  0
LINE
  8
0
 10
33.1377
 20
113.322
 11
32.95
 21
113.414
  0
LINE
  8
0
 10
32.95
 20
113.414
 11
32.776
 21
113.531
  0
LINE
  8
0
 10
32.776
 20
113.531
 11
32.6186
 21
113.669
  0
LINE
  8
0
 10
32.6186
 20
113.669
 11
32.4806
 21
113.826
  0
LINE
  8
0
 10
32.4806
 20
113.826
 11
32.3643
 21
114
  0
LINE
  8
0
 10
32.3643
 20
114
 11
32.2718
 21
114.188
  0
LINE
  8
0
 10
32.2718
 20
114.188
 11
32.2045
 21
114.386
  0
LINE
  8
0
 10
32.2045
 20
114.386
 11
32.1637
 21
114.591
  0
LINE
  8
0
 10
32.1637
 20
114.591
 11
32.15
 21
114.8
  0
LINE
  8
0
 10
32.15
 20
114.8
 11
32.1637
 21
115.009
  0
LINE
  8
0
 10
32.1637
 20
115.009
 11
32.2045
 21
115.214
  0
LINE
  8
0
 10
32.2045
 20
115.214
 11
32.2718
 21
115.412
  0
LINE
  8
0
 10
32.2718
 20
115.412
 11
32.3643
 21
115.6
  0
LINE
  8
0
 10
32.3643
 20
115.6
 11
32.4806
 21
115.774
  0
LINE
  8
0
 10
32.4806
 20
115.774
 11
32.6186
 21
115.931
  0
LINE
  8
0
 10
32.6186
 20
115.931
 11
32.776
 21
116.069
  0
LINE
  8
0
 10
32.776
 20
116.069
 11
32.95
 21
116.186
  0
LINE
  8
0
 10
32.95
 20
116.186
 11
33.1377
 21
116.278
  0
LINE
  8
0
 10
33.1377
 20
116.278
 11
33.3359
 21
116.345
  0
LINE
  8
0
 10
33.3359
 20
116.345
 11
33.5412
 21
116.386
  0
LINE
  8
0
 10
33.5412
 20
116.386
 11
33.75
 21
116.4
  0
LINE
  8
0
 10
33.75
 20
116.4
 11
33.9588
 21
116.386
  0
LINE
  8
0
 10
33.9588
 20
116.386
 11
34.1641
 21
116.345
  0
LINE
  8
0
 10
34.1641
 20
116.345
 11
34.3623
 21
116.278
  0
LINE
  8
0
 10
34.3623
 20
116.278
 11
34.55
 21
116.186
  0
LINE
  8
0
 10
34.55
 20
116.186
 11
34.724
 21
116.069
  0
LINE
  8
0
 10
34.724
 20
116.069
 11
34.8814
 21
115.931
  0
LINE
  8
0
 10
34.8814
 20
115.931
 11
35.0194
 21
115.774
  0
LINE
  8
0
 10
35.0194
 20
115.774
 11
35.1356
 21
115.6
  0
LINE
  8
0
 10
35.1356
 20
115.6
 11
35.2282
 21
115.412
  0
LINE
  8
0
 10
35.2282
 20
115.412
 11
35.2955
 21
115.214
  0
LINE
  8
0
 10
35.2955
 20
115.214
 11
35.3363
 21
115.009
  0
LINE
  8
0
 10
35.3363
 20
115.009
 11
35.35
 21
114.8
  0
LINE
  8
0
 10
35.35
 20
114.8
 11
35.3363
 21
114.591
  0
LINE
  8
0
 10
35.3363
 20
114.591
 11
35.2955
 21
114.386
  0
LINE
  8
0
 10
35.2955
 20
114.386
 11
35.2282
 21
114.188
  0
LINE
  8
0
 10
35.2282
 20
114.188
 11
35.1356
 21
114
  0
LINE
  8
0
 10
35.1356
 20
114
 11
35.0194
 21
113.826
  0
LINE
  8
0
 10
35.0194
 20
113.826
 11
34.8814
 21
113.669
  0
LINE
  8
0
 10
34.8814
 20
113.669
 11
34.724
 21
113.531
  0
LINE
  8
0
 10
34.724
 20
113.531
 11
34.55
 21
113.414
  0
LINE
  8
0
 10
34.55
 20
113.414
 11
34.3623
 21
113.322
  0
LINE
  8
0
 10
34.3623
 20
113.322
 11
34.1641
 21
113.255
  0
LINE
  8
0
 10
34.1641
 20
113.255
 11
33.9588
 21
113.214
  0
LINE
  8
0
 10
33.9588
 20
113.214
 11
33.75
 21
113.2
  0
LINE
  8
0
 10
33.75
 20
113.2
 11
33.5412
 21
113.214
  0
ENDSEC
  0
SECTION
  2
OBJECTS
  0
DICTIONARY
  0
ENDSEC
  0
EOF
