  0
SECTION
  2
BLOCKS
  0
ENDSEC
  0
SECTION
  2
ENTITIES
  0
LINE
  8
0
 10
49.5
 20
118.5
 11
1
 21
118.5
  0
LINE
  8
0
 10
1
 20
118.5
 11
1
 21
10
  0
LINE
  8
0
 10
1
 20
10
 11
49.5
 21
10
  0
LINE
  8
0
 10
49.5
 20
10
 11
49.5
 21
118.5
  0
LINE
  8
0
 10
16.5412
 20
113.214
 11
16.3359
 21
113.255
  0
LINE
  8
0
 10
16.3359
 20
113.255
 11
16.1377
 21
113.322
  0
LINE
  8
0
 10
16.1377
 20
113.322
 11
15.95
 21
113.414
  0
LINE
  8
0
 10
15.95
 20
113.414
 11
15.776
 21
113.531
  0
LINE
  8
0
 10
15.776
 20
113.531
 11
15.6186
 21
113.669
  0
LINE
  8
0
 10
15.6186
 20
113.669
 11
15.4806
 21
113.826
  0
LINE
  8
0
 10
15.4806
 20
113.826
 11
15.3643
 21
114
  0
LINE
  8
0
 10
15.3643
 20
114
 11
15.2718
 21
114.188
  0
LINE
  8
0
 10
15.2718
 20
114.188
 11
15.2045
 21
114.386
  0
LINE
  8
0
 10
15.2045
 20
114.386
 11
15.1637
 21
114.591
  0
LINE
  8
0
 10
15.1637
 20
114.591
 11
15.15
 21
114.8
  0
LINE
  8
0
 10
15.15
 20
114.8
 11
15.1637
 21
115.009
  0
LINE
  8
0
 10
15.1637
 20
115.009
 11
15.2045
 21
115.214
  0
LINE
  8
0
 10
15.2045
 20
115.214
 11
15.2718
 21
115.412
  0
LINE
  8
0
 10
15.2718
 20
115.412
 11
15.3643
 21
115.6
  0
LINE
  8
0
 10
15.3643
 20
115.6
 11
15.4806
 21
115.774
  0
LINE
  8
0
 10
15.4806
 20
115.774
 11
15.6186
 21
115.931
  0
LINE
  8
0
 10
15.6186
 20
115.931
 11
15.776
 21
116.069
  0
LINE
  8
0
 10
15.776
 20
116.069
 11
15.95
 21
116.186
  0
LINE
  8
0
 10
15.95
 20
116.186
 11
16.1377
 21
116.278
  0
LINE
  8
0
 10
16.1377
 20
116.278
 11
16.3359
 21
116.345
  0
LINE
  8
0
 10
16.3359
 20
116.345
 11
16.5412
 21
116.386
  0
LINE
  8
0
 10
16.5412
 20
116.386
 11
16.75
 21
116.4
  0
LINE
  8
0
 10
16.75
 20
116.4
 11
16.9588
 21
116.386
  0
LINE
  8
0
 10
16.9588
 20
116.386
 11
17.1641
 21
116.345
  0
LINE
  8
0
 10
17.1641
 20
116.345
 11
17.3623
 21
116.278
  0
LINE
  8
0
 10
17.3623
 20
116.278
 11
17.55
 21
116.186
  0
LINE
  8
0
 10
17.55
 20
116.186
 11
17.724
 21
116.069
  0
LINE
  8
0
 10
17.724
 20
116.069
 11
17.8814
 21
115.931
  0
LINE
  8
0
 10
17.8814
 20
115.931
 11
18.0194
 21
115.774
  0
LINE
  8
0
 10
18.0194
 20
115.774
 11
18.1356
 21
115.6
  0
LINE
  8
0
 10
18.1356
 20
115.6
 11
18.2282
 21
115.412
  0
LINE
  8
0
 10
18.2282
 20
115.412
 11
18.2955
 21
115.214
  0
LINE
  8
0
 10
18.2955
 20
115.214
 11
18.3363
 21
115.009
  0
LINE
  8
0
 10
18.3363
 20
115.009
 11
18.35
 21
114.8
  0
LINE
  8
0
 10
18.35
 20
114.8
 11
18.3363
 21
114.591
  0
LINE
  8
0
 10
18.3363
 20
114.591
 11
18.2955
 21
114.386
  0
LINE
  8
0
 10
18.2955
 20
114.386
 11
18.2282
 21
114.188
  0
LINE
  8
0
 10
18.2282
 20
114.188
 11
18.1356
 21
114
  0
LINE
  8
0
 10
18.1356
 20
114
 11
18.0194
 21
113.826
  0
LINE
  8
0
 10
18.0194
 20
113.826
 11
17.8814
 21
113.669
  0
LINE
  8
0
 10
17.8814
 20
113.669
 11
17.724
 21
113.531
  0
LINE
  8
0
 10
17.724
 20
113.531
 11
17.55
 21
113.414
  0
LINE
  8
0
 10
17.55
 20
113.414
 11
17.3623
 21
113.322
  0
LINE
  8
0
 10
17.3623
 20
113.322
 11
17.1641
 21
113.255
  0
LINE
  8
0
 10
17.1641
 20
113.255
 11
16.9588
 21
113.214
  0
LINE
  8
0
 10
16.9588
 20
113.214
 11
16.75
 21
113.2
  0
LINE
  8
0
 10
16.75
 20
113.2
 11
16.5412
 21
113.214
  0
LINE
  8
0
 10
33.5412
 20
113.214
 11
33.3359
 21
113.255
  0
LINE
  8
0
 10
33.3359
 20
113.255
 11
33.1377
 21
113.322
  0
LINE
  8
0
 10
33.1377
 20
113.322
 11
32.95
 21
113.414
  0
LINE
  8
0
 10
32.95
 20
113.414
 11
32.776
 21
113.531
  0
LINE
  8
0
 10
32.776
 20
113.531
 11
32.6186
 21
113.669
  0
LINE
  8
0
 10
32.6186
 20
113.669
 11
32.4806
 21
113.826
  0
LINE
  8
0
 10
32.4806
 20
113.826
 11
32.3643
 21
114
  0
LINE
  8
0
 10
32.3643
 20
114
 11
32.2718
 21
114.188
  0
LINE
  8
0
 10
32.2718
 20
114.188
 11
32.2045
 21
114.386
  0
LINE
  8
0
 10
32.2045
 20
114.386
 11
32.1637
 21
114.591
  0
LINE
  8
0
 10
32.1637
 20
114.591
 11
32.15
 21
114.8
  0
LINE
  8
0
 10
32.15
 20
114.8
 11
32.1637
 21
115.009
  0
LINE
  8
0
 10
32.1637
 20
115.009
 11
32.2045
 21
115.214
  0
LINE
  8
0
 10
32.2045
 20
115.214
 11
32.2718
 21
115.412
  0
LINE
  8
0
 10
32.2718
 20
115.412
 11
32.3643
 21
115.6
  0
LINE
  8
0
 10
32.3643
 20
115.6
 11
32.4806
 21
115.774
  0
LINE
  8
0
 10
32.4806
 20
115.774
 11
32.6186
 21
115.931
  0
LINE
  8
0
 10
32.6186
 20
115.931
 11
32.776
 21
116.069
  0
LINE
  8
0
 10
32.776
 20
116.069
 11
32.95
 21
116.186
  0
LINE
  8
0
 10
32.95
 20
116.186
 11
33.1377
 21
116.278
  0
LINE
  8
0
 10
33.1377
 20
116.278
 11
33.3359
 21
116.345
  0
LINE
  8
0
 10
33.3359
 20
116.345
 11
33.5412
 21
116.386
  0
LINE
  8
0
 10
33.5412
 20
116.386
 11
33.75
 21
116.4
  0
LINE
  8
0
 10
33.75
 20
116.4
 11
33.9588
 21
116.386
  0
LINE
  8
0
 10
33.9588
 20
116.386
 11
34.1641
 21
116.345
  0
LINE
  8
0
 10
34.1641
 20
116.345
 11
34.3623
 21
116.278
  0
LINE
  8
0
 10
34.3623
 20
116.278
 11
34.55
 21
116.186
  0
LINE
  8
0
 10
34.55
 20
116.186
 11
34.724
 21
116.069
  0
LINE
  8
0
 10
34.724
 20
116.069
 11
34.8814
 21
115.931
  0
LINE
  8
0
 10
34.8814
 20
115.931
 11
35.0194
 21
115.774
  0
LINE
  8
0
 10
35.0194
 20
115.774
 11
35.1356
 21
115.6
  0
LINE
  8
0
 10
35.1356
 20
115.6
 11
35.2282
 21
115.412
  0
LINE
  8
0
 10
35.2282
 20
115.412
 11
35.2955
 21
115.214
  0
LINE
  8
0
 10
35.2955
 20
115.214
 11
35.3363
 21
115.009
  0
LINE
  8
0
 10
35.3363
 20
115.009
 11
35.35
 21
114.8
  0
LINE
  8
0
 10
35.35
 20
114.8
 11
35.3363
 21
114.591
  0
LINE
  8
0
 10
35.3363
 20
114.591
 11
35.2955
 21
114.386
  0
LINE
  8
0
 10
35.2955
 20
114.386
 11
35.2282
 21
114.188
  0
LINE
  8
0
 10
35.2282
 20
114.188
 11
35.1356
 21
114
  0
LINE
  8
0
 10
35.1356
 20
114
 11
35.0194
 21
113.826
  0
LINE
  8
0
 10
35.0194
 20
113.826
 11
34.8814
 21
113.669
  0
LINE
  8
0
 10
34.8814
 20
113.669
 11
34.724
 21
113.531
  0
LINE
  8
0
 10
34.724
 20
113.531
 11
34.55
 21
113.414
  0
LINE
  8
0
 10
34.55
 20
113.414
 11
34.3623
 21
113.322
  0
LINE
  8
0
 10
34.3623
 20
113.322
 11
34.1641
 21
113.255
  0
LINE
  8
0
 10
34.1641
 20
113.255
 11
33.9588
 21
113.214
  0
LINE
  8
0
 10
33.9588
 20
113.214
 11
33.75
 21
113.2
  0
LINE
  8
0
 10
33.75
 20
113.2
 11
33.5412
 21
113.214
  0
LINE
  8
0
 10
4.59116
 20
78.5137
 11
4.38588
 21
78.5545
  0
LINE
  8
0
 10
4.38588
 20
78.5545
 11
4.1877
 21
78.6218
  0
LINE
  8
0
 10
4.1877
 20
78.6218
 11
4
 21
78.7144
  0
LINE
  8
0
 10
4
 20
78.7144
 11
3.82597
 21
78.8306
  0
LINE
  8
0
 10
3.82597
 20
78.8306
 11
3.66862
 21
78.9686
  0
LINE
  8
0
 10
3.66862
 20
78.9686
 11
3.53062
 21
79.126
  0
LINE
  8
0
 10
3.53062
 20
79.126
 11
3.41435
 21
79.3
  0
LINE
  8
0
 10
3.41435
 20
79.3
 11
3.32179
 21
79.4877
  0
LINE
  8
0
 10
3.32179
 20
79.4877
 11
3.25452
 21
79.6859
  0
LINE
  8
0
 10
3.25452
 20
79.6859
 11
3.21368
 21
79.8911
  0
LINE
  8
0
 10
3.21368
 20
79.8911
 11
3.2
 21
80.1
  0
LINE
  8
0
 10
3.2
 20
80.1
 11
3.21368
 21
80.3088
  0
LINE
  8
0
 10
3.21368
 20
80.3088
 11
3.25452
 21
80.5141
  0
LINE
  8
0
 10
3.25452
 20
80.5141
 11
3.32179
 21
80.7123
  0
LINE
  8
0
 10
3.32179
 20
80.7123
 11
3.41435
 21
80.9
  0
LINE
  8
0
 10
3.41435
 20
80.9
 11
3.53062
 21
81.074
  0
LINE
  8
0
 10
3.53062
 20
81.074
 11
3.66862
 21
81.2314
  0
LINE
  8
0
 10
3.66862
 20
81.2314
 11
3.82597
 21
81.3694
  0
LINE
  8
0
 10
3.82597
 20
81.3694
 11
4
 21
81.4856
  0
LINE
  8
0
 10
4
 20
81.4856
 11
4.1877
 21
81.5782
  0
LINE
  8
0
 10
4.1877
 20
81.5782
 11
4.38588
 21
81.6455
  0
LINE
  8
0
 10
4.38588
 20
81.6455
 11
4.59116
 21
81.6863
  0
LINE
  8
0
 10
4.59116
 20
81.6863
 11
4.79999
 21
81.7
  0
LINE
  8
0
 10
4.79999
 20
81.7
 11
5.00883
 21
81.6863
  0
LINE
  8
0
 10
5.00883
 20
81.6863
 11
5.2141
 21
81.6455
  0
LINE
  8
0
 10
5.2141
 20
81.6455
 11
5.41229
 21
81.5782
  0
LINE
  8
0
 10
5.41229
 20
81.5782
 11
5.59999
 21
81.4856
  0
LINE
  8
0
 10
5.59999
 20
81.4856
 11
5.77402
 21
81.3694
  0
LINE
  8
0
 10
5.77402
 20
81.3694
 11
5.93137
 21
81.2314
  0
LINE
  8
0
 10
5.93137
 20
81.2314
 11
6.06935
 21
81.074
  0
LINE
  8
0
 10
6.06935
 20
81.074
 11
6.18564
 21
80.9
  0
LINE
  8
0
 10
6.18564
 20
80.9
 11
6.2782
 21
80.7123
  0
LINE
  8
0
 10
6.2782
 20
80.7123
 11
6.34547
 21
80.5141
  0
LINE
  8
0
 10
6.34547
 20
80.5141
 11
6.38631
 21
80.3088
  0
LINE
  8
0
 10
6.38631
 20
80.3088
 11
6.39999
 21
80.1
  0
LINE
  8
0
 10
6.39999
 20
80.1
 11
6.38631
 21
79.8911
  0
LINE
  8
0
 10
6.38631
 20
79.8911
 11
6.34547
 21
79.6859
  0
LINE
  8
0
 10
6.34547
 20
79.6859
 11
6.2782
 21
79.4877
  0
LINE
  8
0
 10
6.2782
 20
79.4877
 11
6.18564
 21
79.3
  0
LINE
  8
0
 10
6.18564
 20
79.3
 11
6.06935
 21
79.126
  0
LINE
  8
0
 10
6.06935
 20
79.126
 11
5.93137
 21
78.9686
  0
LINE
  8
0
 10
5.93137
 20
78.9686
 11
5.77402
 21
78.8306
  0
LINE
  8
0
 10
5.77402
 20
78.8306
 11
5.59999
 21
78.7144
  0
LINE
  8
0
 10
5.59999
 20
78.7144
 11
5.41229
 21
78.6218
  0
LINE
  8
0
 10
5.41229
 20
78.6218
 11
5.2141
 21
78.5545
  0
LINE
  8
0
 10
5.2141
 20
78.5545
 11
5.00883
 21
78.5137
  0
LINE
  8
0
 10
5.00883
 20
78.5137
 11
4.79999
 21
78.5
  0
LINE
  8
0
 10
4.79999
 20
78.5
 11
4.59116
 21
78.5137
  0
LINE
  8
0
 10
45.4911
 20
78.5137
 11
45.2859
 21
78.5545
  0
LINE
  8
0
 10
45.2859
 20
78.5545
 11
45.0877
 21
78.6218
  0
LINE
  8
0
 10
45.0877
 20
78.6218
 11
44.9
 21
78.7144
  0
LINE
  8
0
 10
44.9
 20
78.7144
 11
44.726
 21
78.8306
  0
LINE
  8
0
 10
44.726
 20
78.8306
 11
44.5686
 21
78.9686
  0
LINE
  8
0
 10
44.5686
 20
78.9686
 11
44.4306
 21
79.126
  0
LINE
  8
0
 10
44.4306
 20
79.126
 11
44.3143
 21
79.3
  0
LINE
  8
0
 10
44.3143
 20
79.3
 11
44.2218
 21
79.4877
  0
LINE
  8
0
 10
44.2218
 20
79.4877
 11
44.1545
 21
79.6859
  0
LINE
  8
0
 10
44.1545
 20
79.6859
 11
44.1137
 21
79.8911
  0
LINE
  8
0
 10
44.1137
 20
79.8911
 11
44.1
 21
80.1
  0
LINE
  8
0
 10
44.1
 20
80.1
 11
44.1137
 21
80.3088
  0
LINE
  8
0
 10
44.1137
 20
80.3088
 11
44.1545
 21
80.5141
  0
LINE
  8
0
 10
44.1545
 20
80.5141
 11
44.2218
 21
80.7123
  0
LINE
  8
0
 10
44.2218
 20
80.7123
 11
44.3143
 21
80.9
  0
LINE
  8
0
 10
44.3143
 20
80.9
 11
44.4306
 21
81.074
  0
LINE
  8
0
 10
44.4306
 20
81.074
 11
44.5686
 21
81.2314
  0
LINE
  8
0
 10
44.5686
 20
81.2314
 11
44.726
 21
81.3694
  0
LINE
  8
0
 10
44.726
 20
81.3694
 11
44.9
 21
81.4856
  0
LINE
  8
0
 10
44.9
 20
81.4856
 11
45.0877
 21
81.5782
  0
LINE
  8
0
 10
45.0877
 20
81.5782
 11
45.2859
 21
81.6455
  0
LINE
  8
0
 10
45.2859
 20
81.6455
 11
45.4911
 21
81.6863
  0
LINE
  8
0
 10
45.4911
 20
81.6863
 11
45.7
 21
81.7
  0
LINE
  8
0
 10
45.7
 20
81.7
 11
45.9088
 21
81.6863
  0
LINE
  8
0
 10
45.9088
 20
81.6863
 11
46.1141
 21
81.6455
  0
LINE
  8
0
 10
46.1141
 20
81.6455
 11
46.3123
 21
81.5782
  0
LINE
  8
0
 10
46.3123
 20
81.5782
 11
46.5
 21
81.4856
  0
LINE
  8
0
 10
46.5
 20
81.4856
 11
46.674
 21
81.3694
  0
LINE
  8
0
 10
46.674
 20
81.3694
 11
46.8314
 21
81.2314
  0
LINE
  8
0
 10
46.8314
 20
81.2314
 11
46.9694
 21
81.074
  0
LINE
  8
0
 10
46.9694
 20
81.074
 11
47.0856
 21
80.9
  0
LINE
  8
0
 10
47.0856
 20
80.9
 11
47.1782
 21
80.7123
  0
LINE
  8
0
 10
47.1782
 20
80.7123
 11
47.2455
 21
80.5141
  0
LINE
  8
0
 10
47.2455
 20
80.5141
 11
47.2863
 21
80.3088
  0
LINE
  8
0
 10
47.2863
 20
80.3088
 11
47.3
 21
80.1
  0
LINE
  8
0
 10
47.3
 20
80.1
 11
47.2863
 21
79.8911
  0
LINE
  8
0
 10
47.2863
 20
79.8911
 11
47.2455
 21
79.6859
  0
LINE
  8
0
 10
47.2455
 20
79.6859
 11
47.1782
 21
79.4877
  0
LINE
  8
0
 10
47.1782
 20
79.4877
 11
47.0856
 21
79.3
  0
LINE
  8
0
 10
47.0856
 20
79.3
 11
46.9694
 21
79.126
  0
LINE
  8
0
 10
46.9694
 20
79.126
 11
46.8314
 21
78.9686
  0
LINE
  8
0
 10
46.8314
 20
78.9686
 11
46.674
 21
78.8306
  0
LINE
  8
0
 10
46.674
 20
78.8306
 11
46.5
 21
78.7144
  0
LINE
  8
0
 10
46.5
 20
78.7144
 11
46.3123
 21
78.6218
  0
LINE
  8
0
 10
46.3123
 20
78.6218
 11
46.1141
 21
78.5545
  0
LINE
  8
0
 10
46.1141
 20
78.5545
 11
45.9088
 21
78.5137
  0
LINE
  8
0
 10
45.9088
 20
78.5137
 11
45.7
 21
78.5
  0
LINE
  8
0
 10
45.7
 20
78.5
 11
45.4911
 21
78.5137
  0
LINE
  8
0
 10
11.2912
 20
40.2137
 11
11.0859
 21
40.2545
  0
LINE
  8
0
 10
11.0859
 20
40.2545
 11
10.8877
 21
40.3218
  0
LINE
  8
0
 10
10.8877
 20
40.3218
 11
10.7
 21
40.4144
  0
LINE
  8
0
 10
10.7
 20
40.4144
 11
10.526
 21
40.5306
  0
LINE
  8
0
 10
10.526
 20
40.5306
 11
10.3686
 21
40.6686
  0
LINE
  8
0
 10
10.3686
 20
40.6686
 11
10.2306
 21
40.826
  0
LINE
  8
0
 10
10.2306
 20
40.826
 11
10.1143
 21
41
  0
LINE
  8
0
 10
10.1143
 20
41
 11
10.0218
 21
41.1877
  0
LINE
  8
0
 10
10.0218
 20
41.1877
 11
9.95451
 21
41.3859
  0
LINE
  8
0
 10
9.95451
 20
41.3859
 11
9.91368
 21
41.5912
  0
LINE
  8
0
 10
9.91368
 20
41.5912
 11
9.89999
 21
41.8
  0
LINE
  8
0
 10
9.89999
 20
41.8
 11
9.91368
 21
42.0088
  0
LINE
  8
0
 10
9.91368
 20
42.0088
 11
9.95451
 21
42.2141
  0
LINE
  8
0
 10
9.95451
 20
42.2141
 11
10.0218
 21
42.4123
  0
LINE
  8
0
 10
10.0218
 20
42.4123
 11
10.1143
 21
42.6
  0
LINE
  8
0
 10
10.1143
 20
42.6
 11
10.2306
 21
42.774
  0
LINE
  8
0
 10
10.2306
 20
42.774
 11
10.3686
 21
42.9314
  0
LINE
  8
0
 10
10.3686
 20
42.9314
 11
10.526
 21
43.0694
  0
LINE
  8
0
 10
10.526
 20
43.0694
 11
10.7
 21
43.1856
  0
LINE
  8
0
 10
10.7
 20
43.1856
 11
10.8877
 21
43.2782
  0
LINE
  8
0
 10
10.8877
 20
43.2782
 11
11.0859
 21
43.3455
  0
LINE
  8
0
 10
11.0859
 20
43.3455
 11
11.2912
 21
43.3863
  0
LINE
  8
0
 10
11.2912
 20
43.3863
 11
11.5
 21
43.4
  0
LINE
  8
0
 10
11.5
 20
43.4
 11
11.7088
 21
43.3863
  0
LINE
  8
0
 10
11.7088
 20
43.3863
 11
11.9141
 21
43.3455
  0
LINE
  8
0
 10
11.9141
 20
43.3455
 11
12.1123
 21
43.2782
  0
LINE
  8
0
 10
12.1123
 20
43.2782
 11
12.3
 21
43.1856
  0
LINE
  8
0
 10
12.3
 20
43.1856
 11
12.474
 21
43.0694
  0
LINE
  8
0
 10
12.474
 20
43.0694
 11
12.6314
 21
42.9314
  0
LINE
  8
0
 10
12.6314
 20
42.9314
 11
12.7694
 21
42.774
  0
LINE
  8
0
 10
12.7694
 20
42.774
 11
12.8856
 21
42.6
  0
LINE
  8
0
 10
12.8856
 20
42.6
 11
12.9782
 21
42.4123
  0
LINE
  8
0
 10
12.9782
 20
42.4123
 11
13.0455
 21
42.2141
  0
LINE
  8
0
 10
13.0455
 20
42.2141
 11
13.0863
 21
42.0088
  0
LINE
  8
0
 10
13.0863
 20
42.0088
 11
13.1
 21
41.8
  0
LINE
  8
0
 10
13.1
 20
41.8
 11
13.0863
 21
41.5912
  0
LINE
  8
0
 10
13.0863
 20
41.5912
 11
13.0455
 21
41.3859
  0
LINE
  8
0
 10
13.0455
 20
41.3859
 11
12.9782
 21
41.1877
  0
LINE
  8
0
 10
12.9782
 20
41.1877
 11
12.8856
 21
41
  0
LINE
  8
0
 10
12.8856
 20
41
 11
12.7694
 21
40.826
  0
LINE
  8
0
 10
12.7694
 20
40.826
 11
12.6314
 21
40.6686
  0
LINE
  8
0
 10
12.6314
 20
40.6686
 11
12.474
 21
40.5306
  0
LINE
  8
0
 10
12.474
 20
40.5306
 11
12.3
 21
40.4144
  0
LINE
  8
0
 10
12.3
 20
40.4144
 11
12.1123
 21
40.3218
  0
LINE
  8
0
 10
12.1123
 20
40.3218
 11
11.9141
 21
40.2545
  0
LINE
  8
0
 10
11.9141
 20
40.2545
 11
11.7088
 21
40.2137
  0
LINE
  8
0
 10
11.7088
 20
40.2137
 11
11.5
 21
40.2
  0
LINE
  8
0
 10
11.5
 20
40.2
 11
11.2912
 21
40.2137
  0
LINE
  8
0
 10
6.16615
 20
13.4137
 11
5.96088
 21
13.4545
  0
LINE
  8
0
 10
5.96088
 20
13.4545
 11
5.7627
 21
13.5218
  0
LINE
  8
0
 10
5.7627
 20
13.5218
 11
5.575
 21
13.6143
  0
LINE
  8
0
 10
5.575
 20
13.6143
 11
5.40097
 21
13.7306
  0
LINE
  8
0
 10
5.40097
 20
13.7306
 11
5.24362
 21
13.8686
  0
LINE
  8
0
 10
5.24362
 20
13.8686
 11
5.10562
 21
14.026
  0
LINE
  8
0
 10
5.10562
 20
14.026
 11
4.98935
 21
14.2
  0
LINE
  8
0
 10
4.98935
 20
14.2
 11
4.89679
 21
14.3877
  0
LINE
  8
0
 10
4.89679
 20
14.3877
 11
4.82951
 21
14.5859
  0
LINE
  8
0
 10
4.82951
 20
14.5859
 11
4.78868
 21
14.7912
  0
LINE
  8
0
 10
4.78868
 20
14.7912
 11
4.77499
 21
15
  0
LINE
  8
0
 10
4.77499
 20
15
 11
4.78868
 21
15.2088
  0
LINE
  8
0
 10
4.78868
 20
15.2088
 11
4.82951
 21
15.4141
  0
LINE
  8
0
 10
4.82951
 20
15.4141
 11
4.89679
 21
15.6123
  0
LINE
  8
0
 10
4.89679
 20
15.6123
 11
4.98935
 21
15.8
  0
LINE
  8
0
 10
4.98935
 20
15.8
 11
5.10562
 21
15.974
  0
LINE
  8
0
 10
5.10562
 20
15.974
 11
5.24362
 21
16.1314
  0
LINE
  8
0
 10
5.24362
 20
16.1314
 11
5.40097
 21
16.2694
  0
LINE
  8
0
 10
5.40097
 20
16.2694
 11
5.575
 21
16.3856
  0
LINE
  8
0
 10
5.575
 20
16.3856
 11
5.7627
 21
16.4782
  0
LINE
  8
0
 10
5.7627
 20
16.4782
 11
5.96088
 21
16.5455
  0
LINE
  8
0
 10
5.96088
 20
16.5455
 11
6.16615
 21
16.5863
  0
LINE
  8
0
 10
6.16615
 20
16.5863
 11
6.375
 21
16.6
  0
LINE
  8
0
 10
6.375
 20
16.6
 11
6.58383
 21
16.5863
  0
LINE
  8
0
 10
6.58383
 20
16.5863
 11
6.78911
 21
16.5455
  0
LINE
  8
0
 10
6.78911
 20
16.5455
 11
6.98729
 21
16.4782
  0
LINE
  8
0
 10
6.98729
 20
16.4782
 11
7.17499
 21
16.3856
  0
LINE
  8
0
 10
7.17499
 20
16.3856
 11
7.34901
 21
16.2694
  0
LINE
  8
0
 10
7.34901
 20
16.2694
 11
7.50636
 21
16.1314
  0
LINE
  8
0
 10
7.50636
 20
16.1314
 11
7.64436
 21
15.974
  0
LINE
  8
0
 10
7.64436
 20
15.974
 11
7.76064
 21
15.8
  0
LINE
  8
0
 10
7.76064
 20
15.8
 11
7.8532
 21
15.6123
  0
LINE
  8
0
 10
7.8532
 20
15.6123
 11
7.92047
 21
15.4141
  0
LINE
  8
0
 10
7.92047
 20
15.4141
 11
7.9613
 21
15.2088
  0
LINE
  8
0
 10
7.9613
 20
15.2088
 11
7.97499
 21
15
  0
LINE
  8
0
 10
7.97499
 20
15
 11
7.9613
 21
14.7912
  0
LINE
  8
0
 10
7.9613
 20
14.7912
 11
7.92047
 21
14.5859
  0
LINE
  8
0
 10
7.92047
 20
14.5859
 11
7.8532
 21
14.3877
  0
LINE
  8
0
 10
7.8532
 20
14.3877
 11
7.76064
 21
14.2
  0
LINE
  8
0
 10
7.76064
 20
14.2
 11
7.64436
 21
14.026
  0
LINE
  8
0
 10
7.64436
 20
14.026
 11
7.50636
 21
13.8686
  0
LINE
  8
0
 10
7.50636
 20
13.8686
 11
7.34901
 21
13.7306
  0
LINE
  8
0
 10
7.34901
 20
13.7306
 11
7.17499
 21
13.6143
  0
LINE
  8
0
 10
7.17499
 20
13.6143
 11
6.98729
 21
13.5218
  0
LINE
  8
0
 10
6.98729
 20
13.5218
 11
6.78911
 21
13.4545
  0
LINE
  8
0
 10
6.78911
 20
13.4545
 11
6.58383
 21
13.4137
  0
LINE
  8
0
 10
6.58383
 20
13.4137
 11
6.375
 21
13.4
  0
LINE
  8
0
 10
6.375
 20
13.4
 11
6.16615
 21
13.4137
  0
LINE
  8
0
 10
43.9162
 20
13.4137
 11
43.7109
 21
13.4545
  0
LINE
  8
0
 10
43.7109
 20
13.4545
 11
43.5127
 21
13.5218
  0
LINE
  8
0
 10
43.5127
 20
13.5218
 11
43.325
 21
13.6143
  0
LINE
  8
0
 10
43.325
 20
13.6143
 11
43.151
 21
13.7306
  0
LINE
  8
0
 10
43.151
 20
13.7306
 11
42.9936
 21
13.8686
  0
LINE
  8
0
 10
42.9936
 20
13.8686
 11
42.8556
 21
14.026
  0
LINE
  8
0
 10
42.8556
 20
14.026
 11
42.7393
 21
14.2
  0
LINE
  8
0
 10
42.7393
 20
14.2
 11
42.6468
 21
14.3877
  0
LINE
  8
0
 10
42.6468
 20
14.3877
 11
42.5795
 21
14.5859
  0
LINE
  8
0
 10
42.5795
 20
14.5859
 11
42.5387
 21
14.7912
  0
LINE
  8
0
 10
42.5387
 20
14.7912
 11
42.525
 21
15
  0
LINE
  8
0
 10
42.525
 20
15
 11
42.5387
 21
15.2088
  0
LINE
  8
0
 10
42.5387
 20
15.2088
 11
42.5795
 21
15.4141
  0
LINE
  8
0
 10
42.5795
 20
15.4141
 11
42.6468
 21
15.6123
  0
LINE
  8
0
 10
42.6468
 20
15.6123
 11
42.7393
 21
15.8
  0
LINE
  8
0
 10
42.7393
 20
15.8
 11
42.8556
 21
15.974
  0
LINE
  8
0
 10
42.8556
 20
15.974
 11
42.9936
 21
16.1314
  0
LINE
  8
0
 10
42.9936
 20
16.1314
 11
43.151
 21
16.2694
  0
LINE
  8
0
 10
43.151
 20
16.2694
 11
43.325
 21
16.3856
  0
LINE
  8
0
 10
43.325
 20
16.3856
 11
43.5127
 21
16.4782
  0
LINE
  8
0
 10
43.5127
 20
16.4782
 11
43.7109
 21
16.5455
  0
LINE
  8
0
 10
43.7109
 20
16.5455
 11
43.9162
 21
16.5863
  0
LINE
  8
0
 10
43.9162
 20
16.5863
 11
44.125
 21
16.6
  0
LINE
  8
0
 10
44.125
 20
16.6
 11
44.3338
 21
16.5863
  0
LINE
  8
0
 10
44.3338
 20
16.5863
 11
44.5391
 21
16.5455
  0
LINE
  8
0
 10
44.5391
 20
16.5455
 11
44.7373
 21
16.4782
  0
LINE
  8
0
 10
44.7373
 20
16.4782
 11
44.925
 21
16.3856
  0
LINE
  8
0
 10
44.925
 20
16.3856
 11
45.099
 21
16.2694
  0
LINE
  8
0
 10
45.099
 20
16.2694
 11
45.2564
 21
16.1314
  0
LINE
  8
0
 10
45.2564
 20
16.1314
 11
45.3944
 21
15.974
  0
LINE
  8
0
 10
45.3944
 20
15.974
 11
45.5106
 21
15.8
  0
LINE
  8
0
 10
45.5106
 20
15.8
 11
45.6032
 21
15.6123
  0
LINE
  8
0
 10
45.6032
 20
15.6123
 11
45.6705
 21
15.4141
  0
LINE
  8
0
 10
45.6705
 20
15.4141
 11
45.7113
 21
15.2088
  0
LINE
  8
0
 10
45.7113
 20
15.2088
 11
45.725
 21
15
  0
LINE
  8
0
 10
45.725
 20
15
 11
45.7113
 21
14.7912
  0
LINE
  8
0
 10
45.7113
 20
14.7912
 11
45.6705
 21
14.5859
  0
LINE
  8
0
 10
45.6705
 20
14.5859
 11
45.6032
 21
14.3877
  0
LINE
  8
0
 10
45.6032
 20
14.3877
 11
45.5106
 21
14.2
  0
LINE
  8
0
 10
45.5106
 20
14.2
 11
45.3944
 21
14.026
  0
LINE
  8
0
 10
45.3944
 20
14.026
 11
45.2564
 21
13.8686
  0
LINE
  8
0
 10
45.2564
 20
13.8686
 11
45.099
 21
13.7306
  0
LINE
  8
0
 10
45.099
 20
13.7306
 11
44.925
 21
13.6143
  0
LINE
  8
0
 10
44.925
 20
13.6143
 11
44.7373
 21
13.5218
  0
LINE
  8
0
 10
44.7373
 20
13.5218
 11
44.5391
 21
13.4545
  0
LINE
  8
0
 10
44.5391
 20
13.4545
 11
44.3338
 21
13.4137
  0
LINE
  8
0
 10
44.3338
 20
13.4137
 11
44.125
 21
13.4
  0
LINE
  8
0
 10
44.125
 20
13.4
 11
43.9162
 21
13.4137
  0
ENDSEC
  0
SECTION
  2
OBJECTS
  0
DICTIONARY
  0
ENDSEC
  0
EOF
