  0
SECTION
  2
BLOCKS
  0
ENDSEC
  0
SECTION
  2
ENTITIES
  0
LINE
  8
0
 10
50.5
 20
128.5
 11
0
 21
128.5
  0
LINE
  8
0
 10
0
 20
128.5
 11
0
 21
0
  0
LINE
  8
0
 10
0
 20
0
 11
50.5
 21
0
  0
LINE
  8
0
 10
50.5
 20
0
 11
50.5
 21
128.5
  0
LINE
  8
0
 10
6
 20
123.9
 11
5.79115
 21
123.914
  0
LINE
  8
0
 10
5.79115
 20
123.914
 11
5.58588
 21
123.955
  0
LINE
  8
0
 10
5.58588
 20
123.955
 11
5.3877
 21
124.022
  0
LINE
  8
0
 10
5.3877
 20
124.022
 11
5.2
 21
124.114
  0
LINE
  8
0
 10
5.2
 20
124.114
 11
5.02597
 21
124.231
  0
LINE
  8
0
 10
5.02597
 20
124.231
 11
4.86862
 21
124.369
  0
LINE
  8
0
 10
4.86862
 20
124.369
 11
4.73062
 21
124.526
  0
LINE
  8
0
 10
4.73062
 20
124.526
 11
4.61435
 21
124.7
  0
LINE
  8
0
 10
4.61435
 20
124.7
 11
4.52179
 21
124.888
  0
LINE
  8
0
 10
4.52179
 20
124.888
 11
4.45451
 21
125.086
  0
LINE
  8
0
 10
4.45451
 20
125.086
 11
4.41368
 21
125.291
  0
LINE
  8
0
 10
4.41368
 20
125.291
 11
4.39999
 21
125.5
  0
LINE
  8
0
 10
4.39999
 20
125.5
 11
4.41368
 21
125.709
  0
LINE
  8
0
 10
4.41368
 20
125.709
 11
4.45451
 21
125.914
  0
LINE
  8
0
 10
4.45451
 20
125.914
 11
4.52179
 21
126.112
  0
LINE
  8
0
 10
4.52179
 20
126.112
 11
4.61435
 21
126.3
  0
LINE
  8
0
 10
4.61435
 20
126.3
 11
4.73062
 21
126.474
  0
LINE
  8
0
 10
4.73062
 20
126.474
 11
4.86862
 21
126.631
  0
LINE
  8
0
 10
4.86862
 20
126.631
 11
5.02597
 21
126.769
  0
LINE
  8
0
 10
5.02597
 20
126.769
 11
5.2
 21
126.886
  0
LINE
  8
0
 10
5.2
 20
126.886
 11
5.3877
 21
126.978
  0
LINE
  8
0
 10
5.3877
 20
126.978
 11
5.58588
 21
127.045
  0
LINE
  8
0
 10
5.58588
 20
127.045
 11
5.79115
 21
127.086
  0
LINE
  8
0
 10
5.79115
 20
127.086
 11
6
 21
127.1
  0
LINE
  8
0
 10
6
 20
127.1
 11
9
 21
127.1
  0
LINE
  8
0
 10
9
 20
127.1
 11
9.20883
 21
127.086
  0
LINE
  8
0
 10
9.20883
 20
127.086
 11
9.41411
 21
127.045
  0
LINE
  8
0
 10
9.41411
 20
127.045
 11
9.61229
 21
126.978
  0
LINE
  8
0
 10
9.61229
 20
126.978
 11
9.79999
 21
126.886
  0
LINE
  8
0
 10
9.79999
 20
126.886
 11
9.97401
 21
126.769
  0
LINE
  8
0
 10
9.97401
 20
126.769
 11
10.1314
 21
126.631
  0
LINE
  8
0
 10
10.1314
 20
126.631
 11
10.2694
 21
126.474
  0
LINE
  8
0
 10
10.2694
 20
126.474
 11
10.3856
 21
126.3
  0
LINE
  8
0
 10
10.3856
 20
126.3
 11
10.4782
 21
126.112
  0
LINE
  8
0
 10
10.4782
 20
126.112
 11
10.5455
 21
125.914
  0
LINE
  8
0
 10
10.5455
 20
125.914
 11
10.5863
 21
125.709
  0
LINE
  8
0
 10
10.5863
 20
125.709
 11
10.6
 21
125.5
  0
LINE
  8
0
 10
10.6
 20
125.5
 11
10.5863
 21
125.291
  0
LINE
  8
0
 10
10.5863
 20
125.291
 11
10.5455
 21
125.086
  0
LINE
  8
0
 10
10.5455
 20
125.086
 11
10.4782
 21
124.888
  0
LINE
  8
0
 10
10.4782
 20
124.888
 11
10.3856
 21
124.7
  0
LINE
  8
0
 10
10.3856
 20
124.7
 11
10.2694
 21
124.526
  0
LINE
  8
0
 10
10.2694
 20
124.526
 11
10.1314
 21
124.369
  0
LINE
  8
0
 10
10.1314
 20
124.369
 11
9.97401
 21
124.231
  0
LINE
  8
0
 10
9.97401
 20
124.231
 11
9.79999
 21
124.114
  0
LINE
  8
0
 10
9.79999
 20
124.114
 11
9.61229
 21
124.022
  0
LINE
  8
0
 10
9.61229
 20
124.022
 11
9.41411
 21
123.955
  0
LINE
  8
0
 10
9.41411
 20
123.955
 11
9.20883
 21
123.914
  0
LINE
  8
0
 10
9.20883
 20
123.914
 11
9
 21
123.9
  0
LINE
  8
0
 10
9
 20
123.9
 11
6
 21
123.9
  0
LINE
  8
0
 10
41.56
 20
123.9
 11
41.3512
 21
123.914
  0
LINE
  8
0
 10
41.3512
 20
123.914
 11
41.1459
 21
123.955
  0
LINE
  8
0
 10
41.1459
 20
123.955
 11
40.9477
 21
124.022
  0
LINE
  8
0
 10
40.9477
 20
124.022
 11
40.76
 21
124.114
  0
LINE
  8
0
 10
40.76
 20
124.114
 11
40.586
 21
124.231
  0
LINE
  8
0
 10
40.586
 20
124.231
 11
40.4286
 21
124.369
  0
LINE
  8
0
 10
40.4286
 20
124.369
 11
40.2906
 21
124.526
  0
LINE
  8
0
 10
40.2906
 20
124.526
 11
40.1743
 21
124.7
  0
LINE
  8
0
 10
40.1743
 20
124.7
 11
40.0818
 21
124.888
  0
LINE
  8
0
 10
40.0818
 20
124.888
 11
40.0145
 21
125.086
  0
LINE
  8
0
 10
40.0145
 20
125.086
 11
39.9737
 21
125.291
  0
LINE
  8
0
 10
39.9737
 20
125.291
 11
39.96
 21
125.5
  0
LINE
  8
0
 10
39.96
 20
125.5
 11
39.9737
 21
125.709
  0
LINE
  8
0
 10
39.9737
 20
125.709
 11
40.0145
 21
125.914
  0
LINE
  8
0
 10
40.0145
 20
125.914
 11
40.0818
 21
126.112
  0
LINE
  8
0
 10
40.0818
 20
126.112
 11
40.1743
 21
126.3
  0
LINE
  8
0
 10
40.1743
 20
126.3
 11
40.2906
 21
126.474
  0
LINE
  8
0
 10
40.2906
 20
126.474
 11
40.4286
 21
126.631
  0
LINE
  8
0
 10
40.4286
 20
126.631
 11
40.586
 21
126.769
  0
LINE
  8
0
 10
40.586
 20
126.769
 11
40.76
 21
126.886
  0
LINE
  8
0
 10
40.76
 20
126.886
 11
40.9477
 21
126.978
  0
LINE
  8
0
 10
40.9477
 20
126.978
 11
41.1459
 21
127.045
  0
LINE
  8
0
 10
41.1459
 20
127.045
 11
41.3512
 21
127.086
  0
LINE
  8
0
 10
41.3512
 20
127.086
 11
41.56
 21
127.1
  0
LINE
  8
0
 10
41.56
 20
127.1
 11
44.56
 21
127.1
  0
LINE
  8
0
 10
44.56
 20
127.1
 11
44.7688
 21
127.086
  0
LINE
  8
0
 10
44.7688
 20
127.086
 11
44.9741
 21
127.045
  0
LINE
  8
0
 10
44.9741
 20
127.045
 11
45.1723
 21
126.978
  0
LINE
  8
0
 10
45.1723
 20
126.978
 11
45.36
 21
126.886
  0
LINE
  8
0
 10
45.36
 20
126.886
 11
45.534
 21
126.769
  0
LINE
  8
0
 10
45.534
 20
126.769
 11
45.6914
 21
126.631
  0
LINE
  8
0
 10
45.6914
 20
126.631
 11
45.8294
 21
126.474
  0
LINE
  8
0
 10
45.8294
 20
126.474
 11
45.9456
 21
126.3
  0
LINE
  8
0
 10
45.9456
 20
126.3
 11
46.0382
 21
126.112
  0
LINE
  8
0
 10
46.0382
 20
126.112
 11
46.1055
 21
125.914
  0
LINE
  8
0
 10
46.1055
 20
125.914
 11
46.1463
 21
125.709
  0
LINE
  8
0
 10
46.1463
 20
125.709
 11
46.16
 21
125.5
  0
LINE
  8
0
 10
46.16
 20
125.5
 11
46.1463
 21
125.291
  0
LINE
  8
0
 10
46.1463
 20
125.291
 11
46.1055
 21
125.086
  0
LINE
  8
0
 10
46.1055
 20
125.086
 11
46.0382
 21
124.888
  0
LINE
  8
0
 10
46.0382
 20
124.888
 11
45.9456
 21
124.7
  0
LINE
  8
0
 10
45.9456
 20
124.7
 11
45.8294
 21
124.526
  0
LINE
  8
0
 10
45.8294
 20
124.526
 11
45.6914
 21
124.369
  0
LINE
  8
0
 10
45.6914
 20
124.369
 11
45.534
 21
124.231
  0
LINE
  8
0
 10
45.534
 20
124.231
 11
45.36
 21
124.114
  0
LINE
  8
0
 10
45.36
 20
124.114
 11
45.1723
 21
124.022
  0
LINE
  8
0
 10
45.1723
 20
124.022
 11
44.9741
 21
123.955
  0
LINE
  8
0
 10
44.9741
 20
123.955
 11
44.7688
 21
123.914
  0
LINE
  8
0
 10
44.7688
 20
123.914
 11
44.56
 21
123.9
  0
LINE
  8
0
 10
44.56
 20
123.9
 11
41.56
 21
123.9
  0
LINE
  8
0
 10
41.7932
 20
102.53
 11
41.3441
 21
102.619
  0
LINE
  8
0
 10
41.3441
 20
102.619
 11
40.9106
 21
102.766
  0
LINE
  8
0
 10
40.9106
 20
102.766
 11
40.5
 21
102.969
  0
LINE
  8
0
 10
40.5
 20
102.969
 11
40.1193
 21
103.223
  0
LINE
  8
0
 10
40.1193
 20
103.223
 11
39.7751
 21
103.525
  0
LINE
  8
0
 10
39.7751
 20
103.525
 11
39.4733
 21
103.869
  0
LINE
  8
0
 10
39.4733
 20
103.869
 11
39.2189
 21
104.25
  0
LINE
  8
0
 10
39.2189
 20
104.25
 11
39.0164
 21
104.661
  0
LINE
  8
0
 10
39.0164
 20
104.661
 11
38.8692
 21
105.094
  0
LINE
  8
0
 10
38.8692
 20
105.094
 11
38.7799
 21
105.543
  0
LINE
  8
0
 10
38.7799
 20
105.543
 11
38.75
 21
106
  0
LINE
  8
0
 10
38.75
 20
106
 11
38.7799
 21
106.457
  0
LINE
  8
0
 10
38.7799
 20
106.457
 11
38.8692
 21
106.906
  0
LINE
  8
0
 10
38.8692
 20
106.906
 11
39.0164
 21
107.339
  0
LINE
  8
0
 10
39.0164
 20
107.339
 11
39.2189
 21
107.75
  0
LINE
  8
0
 10
39.2189
 20
107.75
 11
39.4733
 21
108.131
  0
LINE
  8
0
 10
39.4733
 20
108.131
 11
39.7751
 21
108.475
  0
LINE
  8
0
 10
39.7751
 20
108.475
 11
40.1193
 21
108.777
  0
LINE
  8
0
 10
40.1193
 20
108.777
 11
40.5
 21
109.031
  0
LINE
  8
0
 10
40.5
 20
109.031
 11
40.9106
 21
109.234
  0
LINE
  8
0
 10
40.9106
 20
109.234
 11
41.3441
 21
109.381
  0
LINE
  8
0
 10
41.3441
 20
109.381
 11
41.7932
 21
109.47
  0
LINE
  8
0
 10
41.7932
 20
109.47
 11
42.25
 21
109.5
  0
LINE
  8
0
 10
42.25
 20
109.5
 11
42.7068
 21
109.47
  0
LINE
  8
0
 10
42.7068
 20
109.47
 11
43.1559
 21
109.381
  0
LINE
  8
0
 10
43.1559
 20
109.381
 11
43.5894
 21
109.234
  0
LINE
  8
0
 10
43.5894
 20
109.234
 11
44
 21
109.031
  0
LINE
  8
0
 10
44
 20
109.031
 11
44.3807
 21
108.777
  0
LINE
  8
0
 10
44.3807
 20
108.777
 11
44.7249
 21
108.475
  0
LINE
  8
0
 10
44.7249
 20
108.475
 11
45.0267
 21
108.131
  0
LINE
  8
0
 10
45.0267
 20
108.131
 11
45.2811
 21
107.75
  0
LINE
  8
0
 10
45.2811
 20
107.75
 11
45.4836
 21
107.339
  0
LINE
  8
0
 10
45.4836
 20
107.339
 11
45.6307
 21
106.906
  0
LINE
  8
0
 10
45.6307
 20
106.906
 11
45.72
 21
106.457
  0
LINE
  8
0
 10
45.72
 20
106.457
 11
45.75
 21
106
  0
LINE
  8
0
 10
45.75
 20
106
 11
45.72
 21
105.543
  0
LINE
  8
0
 10
45.72
 20
105.543
 11
45.6307
 21
105.094
  0
LINE
  8
0
 10
45.6307
 20
105.094
 11
45.4836
 21
104.661
  0
LINE
  8
0
 10
45.4836
 20
104.661
 11
45.2811
 21
104.25
  0
LINE
  8
0
 10
45.2811
 20
104.25
 11
45.0267
 21
103.869
  0
LINE
  8
0
 10
45.0267
 20
103.869
 11
44.7249
 21
103.525
  0
LINE
  8
0
 10
44.7249
 20
103.525
 11
44.3807
 21
103.223
  0
LINE
  8
0
 10
44.3807
 20
103.223
 11
44
 21
102.969
  0
LINE
  8
0
 10
44
 20
102.969
 11
43.5894
 21
102.766
  0
LINE
  8
0
 10
43.5894
 20
102.766
 11
43.1559
 21
102.619
  0
LINE
  8
0
 10
43.1559
 20
102.619
 11
42.7068
 21
102.53
  0
LINE
  8
0
 10
42.7068
 20
102.53
 11
42.25
 21
102.5
  0
LINE
  8
0
 10
42.25
 20
102.5
 11
41.7932
 21
102.53
  0
LINE
  8
0
 10
24.7932
 20
102.53
 11
24.3441
 21
102.619
  0
LINE
  8
0
 10
24.3441
 20
102.619
 11
23.9106
 21
102.766
  0
LINE
  8
0
 10
23.9106
 20
102.766
 11
23.5
 21
102.969
  0
LINE
  8
0
 10
23.5
 20
102.969
 11
23.1193
 21
103.223
  0
LINE
  8
0
 10
23.1193
 20
103.223
 11
22.7751
 21
103.525
  0
LINE
  8
0
 10
22.7751
 20
103.525
 11
22.4733
 21
103.869
  0
LINE
  8
0
 10
22.4733
 20
103.869
 11
22.2189
 21
104.25
  0
LINE
  8
0
 10
22.2189
 20
104.25
 11
22.0164
 21
104.661
  0
LINE
  8
0
 10
22.0164
 20
104.661
 11
21.8692
 21
105.094
  0
LINE
  8
0
 10
21.8692
 20
105.094
 11
21.7799
 21
105.543
  0
LINE
  8
0
 10
21.7799
 20
105.543
 11
21.75
 21
106
  0
LINE
  8
0
 10
21.75
 20
106
 11
21.7799
 21
106.457
  0
LINE
  8
0
 10
21.7799
 20
106.457
 11
21.8692
 21
106.906
  0
LINE
  8
0
 10
21.8692
 20
106.906
 11
22.0164
 21
107.339
  0
LINE
  8
0
 10
22.0164
 20
107.339
 11
22.2189
 21
107.75
  0
LINE
  8
0
 10
22.2189
 20
107.75
 11
22.4733
 21
108.131
  0
LINE
  8
0
 10
22.4733
 20
108.131
 11
22.7751
 21
108.475
  0
LINE
  8
0
 10
22.7751
 20
108.475
 11
23.1193
 21
108.777
  0
LINE
  8
0
 10
23.1193
 20
108.777
 11
23.5
 21
109.031
  0
LINE
  8
0
 10
23.5
 20
109.031
 11
23.9106
 21
109.234
  0
LINE
  8
0
 10
23.9106
 20
109.234
 11
24.3441
 21
109.381
  0
LINE
  8
0
 10
24.3441
 20
109.381
 11
24.7932
 21
109.47
  0
LINE
  8
0
 10
24.7932
 20
109.47
 11
25.25
 21
109.5
  0
LINE
  8
0
 10
25.25
 20
109.5
 11
25.7068
 21
109.47
  0
LINE
  8
0
 10
25.7068
 20
109.47
 11
26.1559
 21
109.381
  0
LINE
  8
0
 10
26.1559
 20
109.381
 11
26.5894
 21
109.234
  0
LINE
  8
0
 10
26.5894
 20
109.234
 11
27
 21
109.031
  0
LINE
  8
0
 10
27
 20
109.031
 11
27.3807
 21
108.777
  0
LINE
  8
0
 10
27.3807
 20
108.777
 11
27.7249
 21
108.475
  0
LINE
  8
0
 10
27.7249
 20
108.475
 11
28.0267
 21
108.131
  0
LINE
  8
0
 10
28.0267
 20
108.131
 11
28.2811
 21
107.75
  0
LINE
  8
0
 10
28.2811
 20
107.75
 11
28.4836
 21
107.339
  0
LINE
  8
0
 10
28.4836
 20
107.339
 11
28.6307
 21
106.906
  0
LINE
  8
0
 10
28.6307
 20
106.906
 11
28.72
 21
106.457
  0
LINE
  8
0
 10
28.72
 20
106.457
 11
28.75
 21
106
  0
LINE
  8
0
 10
28.75
 20
106
 11
28.72
 21
105.543
  0
LINE
  8
0
 10
28.72
 20
105.543
 11
28.6307
 21
105.094
  0
LINE
  8
0
 10
28.6307
 20
105.094
 11
28.4836
 21
104.661
  0
LINE
  8
0
 10
28.4836
 20
104.661
 11
28.2811
 21
104.25
  0
LINE
  8
0
 10
28.2811
 20
104.25
 11
28.0267
 21
103.869
  0
LINE
  8
0
 10
28.0267
 20
103.869
 11
27.7249
 21
103.525
  0
LINE
  8
0
 10
27.7249
 20
103.525
 11
27.3807
 21
103.223
  0
LINE
  8
0
 10
27.3807
 20
103.223
 11
27
 21
102.969
  0
LINE
  8
0
 10
27
 20
102.969
 11
26.5894
 21
102.766
  0
LINE
  8
0
 10
26.5894
 20
102.766
 11
26.1559
 21
102.619
  0
LINE
  8
0
 10
26.1559
 20
102.619
 11
25.7068
 21
102.53
  0
LINE
  8
0
 10
25.7068
 20
102.53
 11
25.25
 21
102.5
  0
LINE
  8
0
 10
25.25
 20
102.5
 11
24.7932
 21
102.53
  0
LINE
  8
0
 10
7.79315
 20
102.53
 11
7.34413
 21
102.619
  0
LINE
  8
0
 10
7.34413
 20
102.619
 11
6.9106
 21
102.766
  0
LINE
  8
0
 10
6.9106
 20
102.766
 11
6.5
 21
102.969
  0
LINE
  8
0
 10
6.5
 20
102.969
 11
6.11932
 21
103.223
  0
LINE
  8
0
 10
6.11932
 20
103.223
 11
5.77512
 21
103.525
  0
LINE
  8
0
 10
5.77512
 20
103.525
 11
5.47325
 21
103.869
  0
LINE
  8
0
 10
5.47325
 20
103.869
 11
5.2189
 21
104.25
  0
LINE
  8
0
 10
5.2189
 20
104.25
 11
5.01642
 21
104.661
  0
LINE
  8
0
 10
5.01642
 20
104.661
 11
4.86925
 21
105.094
  0
LINE
  8
0
 10
4.86925
 20
105.094
 11
4.77994
 21
105.543
  0
LINE
  8
0
 10
4.77994
 20
105.543
 11
4.75
 21
106
  0
LINE
  8
0
 10
4.75
 20
106
 11
4.77994
 21
106.457
  0
LINE
  8
0
 10
4.77994
 20
106.457
 11
4.86925
 21
106.906
  0
LINE
  8
0
 10
4.86925
 20
106.906
 11
5.01642
 21
107.339
  0
LINE
  8
0
 10
5.01642
 20
107.339
 11
5.2189
 21
107.75
  0
LINE
  8
0
 10
5.2189
 20
107.75
 11
5.47325
 21
108.131
  0
LINE
  8
0
 10
5.47325
 20
108.131
 11
5.77512
 21
108.475
  0
LINE
  8
0
 10
5.77512
 20
108.475
 11
6.11932
 21
108.777
  0
LINE
  8
0
 10
6.11932
 20
108.777
 11
6.5
 21
109.031
  0
LINE
  8
0
 10
6.5
 20
109.031
 11
6.9106
 21
109.234
  0
LINE
  8
0
 10
6.9106
 20
109.234
 11
7.34413
 21
109.381
  0
LINE
  8
0
 10
7.34413
 20
109.381
 11
7.79315
 21
109.47
  0
LINE
  8
0
 10
7.79315
 20
109.47
 11
8.25
 21
109.5
  0
LINE
  8
0
 10
8.25
 20
109.5
 11
8.70683
 21
109.47
  0
LINE
  8
0
 10
8.70683
 20
109.47
 11
9.15585
 21
109.381
  0
LINE
  8
0
 10
9.15585
 20
109.381
 11
9.58939
 21
109.234
  0
LINE
  8
0
 10
9.58939
 20
109.234
 11
10
 21
109.031
  0
LINE
  8
0
 10
10
 20
109.031
 11
10.3807
 21
108.777
  0
LINE
  8
0
 10
10.3807
 20
108.777
 11
10.7249
 21
108.475
  0
LINE
  8
0
 10
10.7249
 20
108.475
 11
11.0267
 21
108.131
  0
LINE
  8
0
 10
11.0267
 20
108.131
 11
11.2811
 21
107.75
  0
LINE
  8
0
 10
11.2811
 20
107.75
 11
11.4836
 21
107.339
  0
LINE
  8
0
 10
11.4836
 20
107.339
 11
11.6307
 21
106.906
  0
LINE
  8
0
 10
11.6307
 20
106.906
 11
11.72
 21
106.457
  0
LINE
  8
0
 10
11.72
 20
106.457
 11
11.75
 21
106
  0
LINE
  8
0
 10
11.75
 20
106
 11
11.72
 21
105.543
  0
LINE
  8
0
 10
11.72
 20
105.543
 11
11.6307
 21
105.094
  0
LINE
  8
0
 10
11.6307
 20
105.094
 11
11.4836
 21
104.661
  0
LINE
  8
0
 10
11.4836
 20
104.661
 11
11.2811
 21
104.25
  0
LINE
  8
0
 10
11.2811
 20
104.25
 11
11.0267
 21
103.869
  0
LINE
  8
0
 10
11.0267
 20
103.869
 11
10.7249
 21
103.525
  0
LINE
  8
0
 10
10.7249
 20
103.525
 11
10.3807
 21
103.223
  0
LINE
  8
0
 10
10.3807
 20
103.223
 11
10
 21
102.969
  0
LINE
  8
0
 10
10
 20
102.969
 11
9.58939
 21
102.766
  0
LINE
  8
0
 10
9.58939
 20
102.766
 11
9.15585
 21
102.619
  0
LINE
  8
0
 10
9.15585
 20
102.619
 11
8.70683
 21
102.53
  0
LINE
  8
0
 10
8.70683
 20
102.53
 11
8.25
 21
102.5
  0
LINE
  8
0
 10
8.25
 20
102.5
 11
7.79315
 21
102.53
  0
LINE
  8
0
 10
15.3388
 20
85.3769
 11
14.9347
 21
85.4573
  0
LINE
  8
0
 10
14.9347
 20
85.4573
 11
14.5445
 21
85.5898
  0
LINE
  8
0
 10
14.5445
 20
85.5898
 11
14.175
 21
85.772
  0
LINE
  8
0
 10
14.175
 20
85.772
 11
13.8324
 21
86.0009
  0
LINE
  8
0
 10
13.8324
 20
86.0009
 11
13.5226
 21
86.2726
  0
LINE
  8
0
 10
13.5226
 20
86.2726
 11
13.2509
 21
86.5824
  0
LINE
  8
0
 10
13.2509
 20
86.5824
 11
13.022
 21
86.925
  0
LINE
  8
0
 10
13.022
 20
86.925
 11
12.8398
 21
87.2945
  0
LINE
  8
0
 10
12.8398
 20
87.2945
 11
12.7073
 21
87.6847
  0
LINE
  8
0
 10
12.7073
 20
87.6847
 11
12.6269
 21
88.0888
  0
LINE
  8
0
 10
12.6269
 20
88.0888
 11
12.6
 21
88.5
  0
LINE
  8
0
 10
12.6
 20
88.5
 11
12.6269
 21
88.9111
  0
LINE
  8
0
 10
12.6269
 20
88.9111
 11
12.7073
 21
89.3153
  0
LINE
  8
0
 10
12.7073
 20
89.3153
 11
12.8398
 21
89.7054
  0
LINE
  8
0
 10
12.8398
 20
89.7054
 11
13.022
 21
90.075
  0
LINE
  8
0
 10
13.022
 20
90.075
 11
13.2509
 21
90.4176
  0
LINE
  8
0
 10
13.2509
 20
90.4176
 11
13.5226
 21
90.7274
  0
LINE
  8
0
 10
13.5226
 20
90.7274
 11
13.8324
 21
90.9991
  0
LINE
  8
0
 10
13.8324
 20
90.9991
 11
14.175
 21
91.228
  0
LINE
  8
0
 10
14.175
 20
91.228
 11
14.5445
 21
91.4102
  0
LINE
  8
0
 10
14.5445
 20
91.4102
 11
14.9347
 21
91.5427
  0
LINE
  8
0
 10
14.9347
 20
91.5427
 11
15.3388
 21
91.623
  0
LINE
  8
0
 10
15.3388
 20
91.623
 11
15.75
 21
91.65
  0
LINE
  8
0
 10
15.75
 20
91.65
 11
16.1611
 21
91.623
  0
LINE
  8
0
 10
16.1611
 20
91.623
 11
16.5653
 21
91.5427
  0
LINE
  8
0
 10
16.5653
 20
91.5427
 11
16.9554
 21
91.4102
  0
LINE
  8
0
 10
16.9554
 20
91.4102
 11
17.325
 21
91.228
  0
LINE
  8
0
 10
17.325
 20
91.228
 11
17.6676
 21
90.9991
  0
LINE
  8
0
 10
17.6676
 20
90.9991
 11
17.9774
 21
90.7274
  0
LINE
  8
0
 10
17.9774
 20
90.7274
 11
18.2491
 21
90.4176
  0
LINE
  8
0
 10
18.2491
 20
90.4176
 11
18.478
 21
90.075
  0
LINE
  8
0
 10
18.478
 20
90.075
 11
18.6602
 21
89.7054
  0
LINE
  8
0
 10
18.6602
 20
89.7054
 11
18.7927
 21
89.3153
  0
LINE
  8
0
 10
18.7927
 20
89.3153
 11
18.873
 21
88.9111
  0
LINE
  8
0
 10
18.873
 20
88.9111
 11
18.9
 21
88.5
  0
LINE
  8
0
 10
18.9
 20
88.5
 11
18.873
 21
88.0888
  0
LINE
  8
0
 10
18.873
 20
88.0888
 11
18.7927
 21
87.6847
  0
LINE
  8
0
 10
18.7927
 20
87.6847
 11
18.6602
 21
87.2945
  0
LINE
  8
0
 10
18.6602
 20
87.2945
 11
18.478
 21
86.925
  0
LINE
  8
0
 10
18.478
 20
86.925
 11
18.2491
 21
86.5824
  0
LINE
  8
0
 10
18.2491
 20
86.5824
 11
17.9774
 21
86.2726
  0
LINE
  8
0
 10
17.9774
 20
86.2726
 11
17.6676
 21
86.0009
  0
LINE
  8
0
 10
17.6676
 20
86.0009
 11
17.325
 21
85.772
  0
LINE
  8
0
 10
17.325
 20
85.772
 11
16.9554
 21
85.5898
  0
LINE
  8
0
 10
16.9554
 20
85.5898
 11
16.5653
 21
85.4573
  0
LINE
  8
0
 10
16.5653
 20
85.4573
 11
16.1611
 21
85.3769
  0
LINE
  8
0
 10
16.1611
 20
85.3769
 11
15.75
 21
85.35
  0
LINE
  8
0
 10
15.75
 20
85.35
 11
15.3388
 21
85.3769
  0
LINE
  8
0
 10
34.3388
 20
85.3769
 11
33.9347
 21
85.4573
  0
LINE
  8
0
 10
33.9347
 20
85.4573
 11
33.5445
 21
85.5898
  0
LINE
  8
0
 10
33.5445
 20
85.5898
 11
33.175
 21
85.772
  0
LINE
  8
0
 10
33.175
 20
85.772
 11
32.8324
 21
86.0009
  0
LINE
  8
0
 10
32.8324
 20
86.0009
 11
32.5226
 21
86.2726
  0
LINE
  8
0
 10
32.5226
 20
86.2726
 11
32.2509
 21
86.5824
  0
LINE
  8
0
 10
32.2509
 20
86.5824
 11
32.022
 21
86.925
  0
LINE
  8
0
 10
32.022
 20
86.925
 11
31.8398
 21
87.2945
  0
LINE
  8
0
 10
31.8398
 20
87.2945
 11
31.7073
 21
87.6847
  0
LINE
  8
0
 10
31.7073
 20
87.6847
 11
31.6269
 21
88.0888
  0
LINE
  8
0
 10
31.6269
 20
88.0888
 11
31.6
 21
88.5
  0
LINE
  8
0
 10
31.6
 20
88.5
 11
31.6269
 21
88.9111
  0
LINE
  8
0
 10
31.6269
 20
88.9111
 11
31.7073
 21
89.3153
  0
LINE
  8
0
 10
31.7073
 20
89.3153
 11
31.8398
 21
89.7054
  0
LINE
  8
0
 10
31.8398
 20
89.7054
 11
32.022
 21
90.075
  0
LINE
  8
0
 10
32.022
 20
90.075
 11
32.2509
 21
90.4176
  0
LINE
  8
0
 10
32.2509
 20
90.4176
 11
32.5226
 21
90.7274
  0
LINE
  8
0
 10
32.5226
 20
90.7274
 11
32.8324
 21
90.9991
  0
LINE
  8
0
 10
32.8324
 20
90.9991
 11
33.175
 21
91.228
  0
LINE
  8
0
 10
33.175
 20
91.228
 11
33.5445
 21
91.4102
  0
LINE
  8
0
 10
33.5445
 20
91.4102
 11
33.9347
 21
91.5427
  0
LINE
  8
0
 10
33.9347
 20
91.5427
 11
34.3388
 21
91.623
  0
LINE
  8
0
 10
34.3388
 20
91.623
 11
34.75
 21
91.65
  0
LINE
  8
0
 10
34.75
 20
91.65
 11
35.1611
 21
91.623
  0
LINE
  8
0
 10
35.1611
 20
91.623
 11
35.5653
 21
91.5427
  0
LINE
  8
0
 10
35.5653
 20
91.5427
 11
35.9554
 21
91.4102
  0
LINE
  8
0
 10
35.9554
 20
91.4102
 11
36.325
 21
91.228
  0
LINE
  8
0
 10
36.325
 20
91.228
 11
36.6676
 21
90.9991
  0
LINE
  8
0
 10
36.6676
 20
90.9991
 11
36.9774
 21
90.7274
  0
LINE
  8
0
 10
36.9774
 20
90.7274
 11
37.2491
 21
90.4176
  0
LINE
  8
0
 10
37.2491
 20
90.4176
 11
37.478
 21
90.075
  0
LINE
  8
0
 10
37.478
 20
90.075
 11
37.6602
 21
89.7054
  0
LINE
  8
0
 10
37.6602
 20
89.7054
 11
37.7927
 21
89.3153
  0
LINE
  8
0
 10
37.7927
 20
89.3153
 11
37.873
 21
88.9111
  0
LINE
  8
0
 10
37.873
 20
88.9111
 11
37.9
 21
88.5
  0
LINE
  8
0
 10
37.9
 20
88.5
 11
37.873
 21
88.0888
  0
LINE
  8
0
 10
37.873
 20
88.0888
 11
37.7927
 21
87.6847
  0
LINE
  8
0
 10
37.7927
 20
87.6847
 11
37.6602
 21
87.2945
  0
LINE
  8
0
 10
37.6602
 20
87.2945
 11
37.478
 21
86.925
  0
LINE
  8
0
 10
37.478
 20
86.925
 11
37.2491
 21
86.5824
  0
LINE
  8
0
 10
37.2491
 20
86.5824
 11
36.9774
 21
86.2726
  0
LINE
  8
0
 10
36.9774
 20
86.2726
 11
36.6676
 21
86.0009
  0
LINE
  8
0
 10
36.6676
 20
86.0009
 11
36.325
 21
85.772
  0
LINE
  8
0
 10
36.325
 20
85.772
 11
35.9554
 21
85.5898
  0
LINE
  8
0
 10
35.9554
 20
85.5898
 11
35.5653
 21
85.4573
  0
LINE
  8
0
 10
35.5653
 20
85.4573
 11
35.1611
 21
85.3769
  0
LINE
  8
0
 10
35.1611
 20
85.3769
 11
34.75
 21
85.35
  0
LINE
  8
0
 10
34.75
 20
85.35
 11
34.3388
 21
85.3769
  0
LINE
  8
0
 10
15.3388
 20
72.3769
 11
14.9347
 21
72.4573
  0
LINE
  8
0
 10
14.9347
 20
72.4573
 11
14.5445
 21
72.5898
  0
LINE
  8
0
 10
14.5445
 20
72.5898
 11
14.175
 21
72.772
  0
LINE
  8
0
 10
14.175
 20
72.772
 11
13.8324
 21
73.0009
  0
LINE
  8
0
 10
13.8324
 20
73.0009
 11
13.5226
 21
73.2726
  0
LINE
  8
0
 10
13.5226
 20
73.2726
 11
13.2509
 21
73.5824
  0
LINE
  8
0
 10
13.2509
 20
73.5824
 11
13.022
 21
73.925
  0
LINE
  8
0
 10
13.022
 20
73.925
 11
12.8398
 21
74.2945
  0
LINE
  8
0
 10
12.8398
 20
74.2945
 11
12.7073
 21
74.6847
  0
LINE
  8
0
 10
12.7073
 20
74.6847
 11
12.6269
 21
75.0888
  0
LINE
  8
0
 10
12.6269
 20
75.0888
 11
12.6
 21
75.5
  0
LINE
  8
0
 10
12.6
 20
75.5
 11
12.6269
 21
75.9111
  0
LINE
  8
0
 10
12.6269
 20
75.9111
 11
12.7073
 21
76.3153
  0
LINE
  8
0
 10
12.7073
 20
76.3153
 11
12.8398
 21
76.7054
  0
LINE
  8
0
 10
12.8398
 20
76.7054
 11
13.022
 21
77.075
  0
LINE
  8
0
 10
13.022
 20
77.075
 11
13.2509
 21
77.4176
  0
LINE
  8
0
 10
13.2509
 20
77.4176
 11
13.5226
 21
77.7274
  0
LINE
  8
0
 10
13.5226
 20
77.7274
 11
13.8324
 21
77.9991
  0
LINE
  8
0
 10
13.8324
 20
77.9991
 11
14.175
 21
78.228
  0
LINE
  8
0
 10
14.175
 20
78.228
 11
14.5445
 21
78.4102
  0
LINE
  8
0
 10
14.5445
 20
78.4102
 11
14.9347
 21
78.5427
  0
LINE
  8
0
 10
14.9347
 20
78.5427
 11
15.3388
 21
78.623
  0
LINE
  8
0
 10
15.3388
 20
78.623
 11
15.75
 21
78.65
  0
LINE
  8
0
 10
15.75
 20
78.65
 11
16.1611
 21
78.623
  0
LINE
  8
0
 10
16.1611
 20
78.623
 11
16.5653
 21
78.5427
  0
LINE
  8
0
 10
16.5653
 20
78.5427
 11
16.9554
 21
78.4102
  0
LINE
  8
0
 10
16.9554
 20
78.4102
 11
17.325
 21
78.228
  0
LINE
  8
0
 10
17.325
 20
78.228
 11
17.6676
 21
77.9991
  0
LINE
  8
0
 10
17.6676
 20
77.9991
 11
17.9774
 21
77.7274
  0
LINE
  8
0
 10
17.9774
 20
77.7274
 11
18.2491
 21
77.4176
  0
LINE
  8
0
 10
18.2491
 20
77.4176
 11
18.478
 21
77.075
  0
LINE
  8
0
 10
18.478
 20
77.075
 11
18.6602
 21
76.7054
  0
LINE
  8
0
 10
18.6602
 20
76.7054
 11
18.7927
 21
76.3153
  0
LINE
  8
0
 10
18.7927
 20
76.3153
 11
18.873
 21
75.9111
  0
LINE
  8
0
 10
18.873
 20
75.9111
 11
18.9
 21
75.5
  0
LINE
  8
0
 10
18.9
 20
75.5
 11
18.873
 21
75.0888
  0
LINE
  8
0
 10
18.873
 20
75.0888
 11
18.7927
 21
74.6847
  0
LINE
  8
0
 10
18.7927
 20
74.6847
 11
18.6602
 21
74.2945
  0
LINE
  8
0
 10
18.6602
 20
74.2945
 11
18.478
 21
73.925
  0
LINE
  8
0
 10
18.478
 20
73.925
 11
18.2491
 21
73.5824
  0
LINE
  8
0
 10
18.2491
 20
73.5824
 11
17.9774
 21
73.2726
  0
LINE
  8
0
 10
17.9774
 20
73.2726
 11
17.6676
 21
73.0009
  0
LINE
  8
0
 10
17.6676
 20
73.0009
 11
17.325
 21
72.772
  0
LINE
  8
0
 10
17.325
 20
72.772
 11
16.9554
 21
72.5898
  0
LINE
  8
0
 10
16.9554
 20
72.5898
 11
16.5653
 21
72.4573
  0
LINE
  8
0
 10
16.5653
 20
72.4573
 11
16.1611
 21
72.3769
  0
LINE
  8
0
 10
16.1611
 20
72.3769
 11
15.75
 21
72.35
  0
LINE
  8
0
 10
15.75
 20
72.35
 11
15.3388
 21
72.3769
  0
LINE
  8
0
 10
34.3388
 20
72.3769
 11
33.9347
 21
72.4573
  0
LINE
  8
0
 10
33.9347
 20
72.4573
 11
33.5445
 21
72.5898
  0
LINE
  8
0
 10
33.5445
 20
72.5898
 11
33.175
 21
72.772
  0
LINE
  8
0
 10
33.175
 20
72.772
 11
32.8324
 21
73.0009
  0
LINE
  8
0
 10
32.8324
 20
73.0009
 11
32.5226
 21
73.2726
  0
LINE
  8
0
 10
32.5226
 20
73.2726
 11
32.2509
 21
73.5824
  0
LINE
  8
0
 10
32.2509
 20
73.5824
 11
32.022
 21
73.925
  0
LINE
  8
0
 10
32.022
 20
73.925
 11
31.8398
 21
74.2945
  0
LINE
  8
0
 10
31.8398
 20
74.2945
 11
31.7073
 21
74.6847
  0
LINE
  8
0
 10
31.7073
 20
74.6847
 11
31.6269
 21
75.0888
  0
LINE
  8
0
 10
31.6269
 20
75.0888
 11
31.6
 21
75.5
  0
LINE
  8
0
 10
31.6
 20
75.5
 11
31.6269
 21
75.9111
  0
LINE
  8
0
 10
31.6269
 20
75.9111
 11
31.7073
 21
76.3153
  0
LINE
  8
0
 10
31.7073
 20
76.3153
 11
31.8398
 21
76.7054
  0
LINE
  8
0
 10
31.8398
 20
76.7054
 11
32.022
 21
77.075
  0
LINE
  8
0
 10
32.022
 20
77.075
 11
32.2509
 21
77.4176
  0
LINE
  8
0
 10
32.2509
 20
77.4176
 11
32.5226
 21
77.7274
  0
LINE
  8
0
 10
32.5226
 20
77.7274
 11
32.8324
 21
77.9991
  0
LINE
  8
0
 10
32.8324
 20
77.9991
 11
33.175
 21
78.228
  0
LINE
  8
0
 10
33.175
 20
78.228
 11
33.5445
 21
78.4102
  0
LINE
  8
0
 10
33.5445
 20
78.4102
 11
33.9347
 21
78.5427
  0
LINE
  8
0
 10
33.9347
 20
78.5427
 11
34.3388
 21
78.623
  0
LINE
  8
0
 10
34.3388
 20
78.623
 11
34.75
 21
78.65
  0
LINE
  8
0
 10
34.75
 20
78.65
 11
35.1611
 21
78.623
  0
LINE
  8
0
 10
35.1611
 20
78.623
 11
35.5653
 21
78.5427
  0
LINE
  8
0
 10
35.5653
 20
78.5427
 11
35.9554
 21
78.4102
  0
LINE
  8
0
 10
35.9554
 20
78.4102
 11
36.325
 21
78.228
  0
LINE
  8
0
 10
36.325
 20
78.228
 11
36.6676
 21
77.9991
  0
LINE
  8
0
 10
36.6676
 20
77.9991
 11
36.9774
 21
77.7274
  0
LINE
  8
0
 10
36.9774
 20
77.7274
 11
37.2491
 21
77.4176
  0
LINE
  8
0
 10
37.2491
 20
77.4176
 11
37.478
 21
77.075
  0
LINE
  8
0
 10
37.478
 20
77.075
 11
37.6602
 21
76.7054
  0
LINE
  8
0
 10
37.6602
 20
76.7054
 11
37.7927
 21
76.3153
  0
LINE
  8
0
 10
37.7927
 20
76.3153
 11
37.873
 21
75.9111
  0
LINE
  8
0
 10
37.873
 20
75.9111
 11
37.9
 21
75.5
  0
LINE
  8
0
 10
37.9
 20
75.5
 11
37.873
 21
75.0888
  0
LINE
  8
0
 10
37.873
 20
75.0888
 11
37.7927
 21
74.6847
  0
LINE
  8
0
 10
37.7927
 20
74.6847
 11
37.6602
 21
74.2945
  0
LINE
  8
0
 10
37.6602
 20
74.2945
 11
37.478
 21
73.925
  0
LINE
  8
0
 10
37.478
 20
73.925
 11
37.2491
 21
73.5824
  0
LINE
  8
0
 10
37.2491
 20
73.5824
 11
36.9774
 21
73.2726
  0
LINE
  8
0
 10
36.9774
 20
73.2726
 11
36.6676
 21
73.0009
  0
LINE
  8
0
 10
36.6676
 20
73.0009
 11
36.325
 21
72.772
  0
LINE
  8
0
 10
36.325
 20
72.772
 11
35.9554
 21
72.5898
  0
LINE
  8
0
 10
35.9554
 20
72.5898
 11
35.5653
 21
72.4573
  0
LINE
  8
0
 10
35.5653
 20
72.4573
 11
35.1611
 21
72.3769
  0
LINE
  8
0
 10
35.1611
 20
72.3769
 11
34.75
 21
72.35
  0
LINE
  8
0
 10
34.75
 20
72.35
 11
34.3388
 21
72.3769
  0
LINE
  8
0
 10
15.3388
 20
59.3769
 11
14.9347
 21
59.4573
  0
LINE
  8
0
 10
14.9347
 20
59.4573
 11
14.5445
 21
59.5898
  0
LINE
  8
0
 10
14.5445
 20
59.5898
 11
14.175
 21
59.772
  0
LINE
  8
0
 10
14.175
 20
59.772
 11
13.8324
 21
60.0009
  0
LINE
  8
0
 10
13.8324
 20
60.0009
 11
13.5226
 21
60.2726
  0
LINE
  8
0
 10
13.5226
 20
60.2726
 11
13.2509
 21
60.5824
  0
LINE
  8
0
 10
13.2509
 20
60.5824
 11
13.022
 21
60.925
  0
LINE
  8
0
 10
13.022
 20
60.925
 11
12.8398
 21
61.2945
  0
LINE
  8
0
 10
12.8398
 20
61.2945
 11
12.7073
 21
61.6847
  0
LINE
  8
0
 10
12.7073
 20
61.6847
 11
12.6269
 21
62.0888
  0
LINE
  8
0
 10
12.6269
 20
62.0888
 11
12.6
 21
62.5
  0
LINE
  8
0
 10
12.6
 20
62.5
 11
12.6269
 21
62.9111
  0
LINE
  8
0
 10
12.6269
 20
62.9111
 11
12.7073
 21
63.3153
  0
LINE
  8
0
 10
12.7073
 20
63.3153
 11
12.8398
 21
63.7054
  0
LINE
  8
0
 10
12.8398
 20
63.7054
 11
13.022
 21
64.075
  0
LINE
  8
0
 10
13.022
 20
64.075
 11
13.2509
 21
64.4176
  0
LINE
  8
0
 10
13.2509
 20
64.4176
 11
13.5226
 21
64.7274
  0
LINE
  8
0
 10
13.5226
 20
64.7274
 11
13.8324
 21
64.9991
  0
LINE
  8
0
 10
13.8324
 20
64.9991
 11
14.175
 21
65.228
  0
LINE
  8
0
 10
14.175
 20
65.228
 11
14.5445
 21
65.4102
  0
LINE
  8
0
 10
14.5445
 20
65.4102
 11
14.9347
 21
65.5427
  0
LINE
  8
0
 10
14.9347
 20
65.5427
 11
15.3388
 21
65.623
  0
LINE
  8
0
 10
15.3388
 20
65.623
 11
15.75
 21
65.65
  0
LINE
  8
0
 10
15.75
 20
65.65
 11
16.1611
 21
65.623
  0
LINE
  8
0
 10
16.1611
 20
65.623
 11
16.5653
 21
65.5427
  0
LINE
  8
0
 10
16.5653
 20
65.5427
 11
16.9554
 21
65.4102
  0
LINE
  8
0
 10
16.9554
 20
65.4102
 11
17.325
 21
65.228
  0
LINE
  8
0
 10
17.325
 20
65.228
 11
17.6676
 21
64.9991
  0
LINE
  8
0
 10
17.6676
 20
64.9991
 11
17.9774
 21
64.7274
  0
LINE
  8
0
 10
17.9774
 20
64.7274
 11
18.2491
 21
64.4176
  0
LINE
  8
0
 10
18.2491
 20
64.4176
 11
18.478
 21
64.075
  0
LINE
  8
0
 10
18.478
 20
64.075
 11
18.6602
 21
63.7054
  0
LINE
  8
0
 10
18.6602
 20
63.7054
 11
18.7927
 21
63.3153
  0
LINE
  8
0
 10
18.7927
 20
63.3153
 11
18.873
 21
62.9111
  0
LINE
  8
0
 10
18.873
 20
62.9111
 11
18.9
 21
62.5
  0
LINE
  8
0
 10
18.9
 20
62.5
 11
18.873
 21
62.0888
  0
LINE
  8
0
 10
18.873
 20
62.0888
 11
18.7927
 21
61.6847
  0
LINE
  8
0
 10
18.7927
 20
61.6847
 11
18.6602
 21
61.2945
  0
LINE
  8
0
 10
18.6602
 20
61.2945
 11
18.478
 21
60.925
  0
LINE
  8
0
 10
18.478
 20
60.925
 11
18.2491
 21
60.5824
  0
LINE
  8
0
 10
18.2491
 20
60.5824
 11
17.9774
 21
60.2726
  0
LINE
  8
0
 10
17.9774
 20
60.2726
 11
17.6676
 21
60.0009
  0
LINE
  8
0
 10
17.6676
 20
60.0009
 11
17.325
 21
59.772
  0
LINE
  8
0
 10
17.325
 20
59.772
 11
16.9554
 21
59.5898
  0
LINE
  8
0
 10
16.9554
 20
59.5898
 11
16.5653
 21
59.4573
  0
LINE
  8
0
 10
16.5653
 20
59.4573
 11
16.1611
 21
59.3769
  0
LINE
  8
0
 10
16.1611
 20
59.3769
 11
15.75
 21
59.35
  0
LINE
  8
0
 10
15.75
 20
59.35
 11
15.3388
 21
59.3769
  0
LINE
  8
0
 10
34.3388
 20
59.3769
 11
33.9347
 21
59.4573
  0
LINE
  8
0
 10
33.9347
 20
59.4573
 11
33.5445
 21
59.5898
  0
LINE
  8
0
 10
33.5445
 20
59.5898
 11
33.175
 21
59.772
  0
LINE
  8
0
 10
33.175
 20
59.772
 11
32.8324
 21
60.0009
  0
LINE
  8
0
 10
32.8324
 20
60.0009
 11
32.5226
 21
60.2726
  0
LINE
  8
0
 10
32.5226
 20
60.2726
 11
32.2509
 21
60.5824
  0
LINE
  8
0
 10
32.2509
 20
60.5824
 11
32.022
 21
60.925
  0
LINE
  8
0
 10
32.022
 20
60.925
 11
31.8398
 21
61.2945
  0
LINE
  8
0
 10
31.8398
 20
61.2945
 11
31.7073
 21
61.6847
  0
LINE
  8
0
 10
31.7073
 20
61.6847
 11
31.6269
 21
62.0888
  0
LINE
  8
0
 10
31.6269
 20
62.0888
 11
31.6
 21
62.5
  0
LINE
  8
0
 10
31.6
 20
62.5
 11
31.6269
 21
62.9111
  0
LINE
  8
0
 10
31.6269
 20
62.9111
 11
31.7073
 21
63.3153
  0
LINE
  8
0
 10
31.7073
 20
63.3153
 11
31.8398
 21
63.7054
  0
LINE
  8
0
 10
31.8398
 20
63.7054
 11
32.022
 21
64.075
  0
LINE
  8
0
 10
32.022
 20
64.075
 11
32.2509
 21
64.4176
  0
LINE
  8
0
 10
32.2509
 20
64.4176
 11
32.5226
 21
64.7274
  0
LINE
  8
0
 10
32.5226
 20
64.7274
 11
32.8324
 21
64.9991
  0
LINE
  8
0
 10
32.8324
 20
64.9991
 11
33.175
 21
65.228
  0
LINE
  8
0
 10
33.175
 20
65.228
 11
33.5445
 21
65.4102
  0
LINE
  8
0
 10
33.5445
 20
65.4102
 11
33.9347
 21
65.5427
  0
LINE
  8
0
 10
33.9347
 20
65.5427
 11
34.3388
 21
65.623
  0
LINE
  8
0
 10
34.3388
 20
65.623
 11
34.75
 21
65.65
  0
LINE
  8
0
 10
34.75
 20
65.65
 11
35.1611
 21
65.623
  0
LINE
  8
0
 10
35.1611
 20
65.623
 11
35.5653
 21
65.5427
  0
LINE
  8
0
 10
35.5653
 20
65.5427
 11
35.9554
 21
65.4102
  0
LINE
  8
0
 10
35.9554
 20
65.4102
 11
36.325
 21
65.228
  0
LINE
  8
0
 10
36.325
 20
65.228
 11
36.6676
 21
64.9991
  0
LINE
  8
0
 10
36.6676
 20
64.9991
 11
36.9774
 21
64.7274
  0
LINE
  8
0
 10
36.9774
 20
64.7274
 11
37.2491
 21
64.4176
  0
LINE
  8
0
 10
37.2491
 20
64.4176
 11
37.478
 21
64.075
  0
LINE
  8
0
 10
37.478
 20
64.075
 11
37.6602
 21
63.7054
  0
LINE
  8
0
 10
37.6602
 20
63.7054
 11
37.7927
 21
63.3153
  0
LINE
  8
0
 10
37.7927
 20
63.3153
 11
37.873
 21
62.9111
  0
LINE
  8
0
 10
37.873
 20
62.9111
 11
37.9
 21
62.5
  0
LINE
  8
0
 10
37.9
 20
62.5
 11
37.873
 21
62.0888
  0
LINE
  8
0
 10
37.873
 20
62.0888
 11
37.7927
 21
61.6847
  0
LINE
  8
0
 10
37.7927
 20
61.6847
 11
37.6602
 21
61.2945
  0
LINE
  8
0
 10
37.6602
 20
61.2945
 11
37.478
 21
60.925
  0
LINE
  8
0
 10
37.478
 20
60.925
 11
37.2491
 21
60.5824
  0
LINE
  8
0
 10
37.2491
 20
60.5824
 11
36.9774
 21
60.2726
  0
LINE
  8
0
 10
36.9774
 20
60.2726
 11
36.6676
 21
60.0009
  0
LINE
  8
0
 10
36.6676
 20
60.0009
 11
36.325
 21
59.772
  0
LINE
  8
0
 10
36.325
 20
59.772
 11
35.9554
 21
59.5898
  0
LINE
  8
0
 10
35.9554
 20
59.5898
 11
35.5653
 21
59.4573
  0
LINE
  8
0
 10
35.5653
 20
59.4573
 11
35.1611
 21
59.3769
  0
LINE
  8
0
 10
35.1611
 20
59.3769
 11
34.75
 21
59.35
  0
LINE
  8
0
 10
34.75
 20
59.35
 11
34.3388
 21
59.3769
  0
LINE
  8
0
 10
15.1411
 20
47.8137
 11
14.9359
 21
47.8545
  0
LINE
  8
0
 10
14.9359
 20
47.8545
 11
14.7377
 21
47.9218
  0
LINE
  8
0
 10
14.7377
 20
47.9218
 11
14.55
 21
48.0144
  0
LINE
  8
0
 10
14.55
 20
48.0144
 11
14.376
 21
48.1306
  0
LINE
  8
0
 10
14.376
 20
48.1306
 11
14.2186
 21
48.2686
  0
LINE
  8
0
 10
14.2186
 20
48.2686
 11
14.0806
 21
48.426
  0
LINE
  8
0
 10
14.0806
 20
48.426
 11
13.9644
 21
48.6
  0
LINE
  8
0
 10
13.9644
 20
48.6
 11
13.8718
 21
48.7877
  0
LINE
  8
0
 10
13.8718
 20
48.7877
 11
13.8045
 21
48.9859
  0
LINE
  8
0
 10
13.8045
 20
48.9859
 11
13.7637
 21
49.1911
  0
LINE
  8
0
 10
13.7637
 20
49.1911
 11
13.75
 21
49.4
  0
LINE
  8
0
 10
13.75
 20
49.4
 11
13.7637
 21
49.6088
  0
LINE
  8
0
 10
13.7637
 20
49.6088
 11
13.8045
 21
49.8141
  0
LINE
  8
0
 10
13.8045
 20
49.8141
 11
13.8718
 21
50.0123
  0
LINE
  8
0
 10
13.8718
 20
50.0123
 11
13.9644
 21
50.2
  0
LINE
  8
0
 10
13.9644
 20
50.2
 11
14.0806
 21
50.374
  0
LINE
  8
0
 10
14.0806
 20
50.374
 11
14.2186
 21
50.5314
  0
LINE
  8
0
 10
14.2186
 20
50.5314
 11
14.376
 21
50.6694
  0
LINE
  8
0
 10
14.376
 20
50.6694
 11
14.55
 21
50.7856
  0
LINE
  8
0
 10
14.55
 20
50.7856
 11
14.7377
 21
50.8782
  0
LINE
  8
0
 10
14.7377
 20
50.8782
 11
14.9359
 21
50.9455
  0
LINE
  8
0
 10
14.9359
 20
50.9455
 11
15.1411
 21
50.9863
  0
LINE
  8
0
 10
15.1411
 20
50.9863
 11
15.35
 21
51
  0
LINE
  8
0
 10
15.35
 20
51
 11
15.5588
 21
50.9863
  0
LINE
  8
0
 10
15.5588
 20
50.9863
 11
15.7641
 21
50.9455
  0
LINE
  8
0
 10
15.7641
 20
50.9455
 11
15.9623
 21
50.8782
  0
LINE
  8
0
 10
15.9623
 20
50.8782
 11
16.15
 21
50.7856
  0
LINE
  8
0
 10
16.15
 20
50.7856
 11
16.324
 21
50.6694
  0
LINE
  8
0
 10
16.324
 20
50.6694
 11
16.4814
 21
50.5314
  0
LINE
  8
0
 10
16.4814
 20
50.5314
 11
16.6194
 21
50.374
  0
LINE
  8
0
 10
16.6194
 20
50.374
 11
16.7356
 21
50.2
  0
LINE
  8
0
 10
16.7356
 20
50.2
 11
16.8282
 21
50.0123
  0
LINE
  8
0
 10
16.8282
 20
50.0123
 11
16.8955
 21
49.8141
  0
LINE
  8
0
 10
16.8955
 20
49.8141
 11
16.9363
 21
49.6088
  0
LINE
  8
0
 10
16.9363
 20
49.6088
 11
16.95
 21
49.4
  0
LINE
  8
0
 10
16.95
 20
49.4
 11
16.9363
 21
49.1911
  0
LINE
  8
0
 10
16.9363
 20
49.1911
 11
16.8955
 21
48.9859
  0
LINE
  8
0
 10
16.8955
 20
48.9859
 11
16.8282
 21
48.7877
  0
LINE
  8
0
 10
16.8282
 20
48.7877
 11
16.7356
 21
48.6
  0
LINE
  8
0
 10
16.7356
 20
48.6
 11
16.6194
 21
48.426
  0
LINE
  8
0
 10
16.6194
 20
48.426
 11
16.4814
 21
48.2686
  0
LINE
  8
0
 10
16.4814
 20
48.2686
 11
16.324
 21
48.1306
  0
LINE
  8
0
 10
16.324
 20
48.1306
 11
16.15
 21
48.0144
  0
LINE
  8
0
 10
16.15
 20
48.0144
 11
15.9623
 21
47.9218
  0
LINE
  8
0
 10
15.9623
 20
47.9218
 11
15.7641
 21
47.8545
  0
LINE
  8
0
 10
15.7641
 20
47.8545
 11
15.5588
 21
47.8137
  0
LINE
  8
0
 10
15.5588
 20
47.8137
 11
15.35
 21
47.8
  0
LINE
  8
0
 10
15.35
 20
47.8
 11
15.1411
 21
47.8137
  0
LINE
  8
0
 10
23.8011
 20
28.4949
 11
22.3771
 21
28.7782
  0
LINE
  8
0
 10
22.3771
 20
28.7782
 11
21.0022
 21
29.2449
  0
LINE
  8
0
 10
21.0022
 20
29.2449
 11
19.7
 21
29.8871
  0
LINE
  8
0
 10
19.7
 20
29.8871
 11
18.4927
 21
30.6938
  0
LINE
  8
0
 10
18.4927
 20
30.6938
 11
17.4011
 21
31.6511
  0
LINE
  8
0
 10
17.4011
 20
31.6511
 11
16.4438
 21
32.7427
  0
LINE
  8
0
 10
16.4438
 20
32.7427
 11
15.6371
 21
33.95
  0
LINE
  8
0
 10
15.6371
 20
33.95
 11
14.9949
 21
35.2522
  0
LINE
  8
0
 10
14.9949
 20
35.2522
 11
14.5282
 21
36.6271
  0
LINE
  8
0
 10
14.5282
 20
36.6271
 11
14.2449
 21
38.0511
  0
LINE
  8
0
 10
14.2449
 20
38.0511
 11
14.15
 21
39.5
  0
LINE
  8
0
 10
14.15
 20
39.5
 11
14.2449
 21
40.9488
  0
LINE
  8
0
 10
14.2449
 20
40.9488
 11
14.5282
 21
42.3729
  0
LINE
  8
0
 10
14.5282
 20
42.3729
 11
14.9949
 21
43.7478
  0
LINE
  8
0
 10
14.9949
 20
43.7478
 11
15.6371
 21
45.05
  0
LINE
  8
0
 10
15.6371
 20
45.05
 11
16.4438
 21
46.2572
  0
LINE
  8
0
 10
16.4438
 20
46.2572
 11
17.4011
 21
47.3489
  0
LINE
  8
0
 10
17.4011
 20
47.3489
 11
18.4927
 21
48.3062
  0
LINE
  8
0
 10
18.4927
 20
48.3062
 11
19.7
 21
49.1129
  0
LINE
  8
0
 10
19.7
 20
49.1129
 11
21.0022
 21
49.7551
  0
LINE
  8
0
 10
21.0022
 20
49.7551
 11
22.3771
 21
50.2218
  0
LINE
  8
0
 10
22.3771
 20
50.2218
 11
23.8011
 21
50.505
  0
LINE
  8
0
 10
23.8011
 20
50.505
 11
25.25
 21
50.6
  0
LINE
  8
0
 10
25.25
 20
50.6
 11
26.6988
 21
50.505
  0
LINE
  8
0
 10
26.6988
 20
50.505
 11
28.1229
 21
50.2218
  0
LINE
  8
0
 10
28.1229
 20
50.2218
 11
29.4978
 21
49.7551
  0
LINE
  8
0
 10
29.4978
 20
49.7551
 11
30.8
 21
49.1129
  0
LINE
  8
0
 10
30.8
 20
49.1129
 11
32.0072
 21
48.3062
  0
LINE
  8
0
 10
32.0072
 20
48.3062
 11
33.0989
 21
47.3489
  0
LINE
  8
0
 10
33.0989
 20
47.3489
 11
34.0562
 21
46.2572
  0
LINE
  8
0
 10
34.0562
 20
46.2572
 11
34.8629
 21
45.05
  0
LINE
  8
0
 10
34.8629
 20
45.05
 11
35.5051
 21
43.7478
  0
LINE
  8
0
 10
35.5051
 20
43.7478
 11
35.9718
 21
42.3729
  0
LINE
  8
0
 10
35.9718
 20
42.3729
 11
36.255
 21
40.9488
  0
LINE
  8
0
 10
36.255
 20
40.9488
 11
36.35
 21
39.5
  0
LINE
  8
0
 10
36.35
 20
39.5
 11
36.255
 21
38.0511
  0
LINE
  8
0
 10
36.255
 20
38.0511
 11
35.9718
 21
36.6271
  0
LINE
  8
0
 10
35.9718
 20
36.6271
 11
35.5051
 21
35.2522
  0
LINE
  8
0
 10
35.5051
 20
35.2522
 11
34.8629
 21
33.95
  0
LINE
  8
0
 10
34.8629
 20
33.95
 11
34.0562
 21
32.7427
  0
LINE
  8
0
 10
34.0562
 20
32.7427
 11
33.0989
 21
31.6511
  0
LINE
  8
0
 10
33.0989
 20
31.6511
 11
32.0072
 21
30.6938
  0
LINE
  8
0
 10
32.0072
 20
30.6938
 11
30.8
 21
29.8871
  0
LINE
  8
0
 10
30.8
 20
29.8871
 11
29.4978
 21
29.2449
  0
LINE
  8
0
 10
29.4978
 20
29.2449
 11
28.1229
 21
28.7782
  0
LINE
  8
0
 10
28.1229
 20
28.7782
 11
26.6988
 21
28.4949
  0
LINE
  8
0
 10
26.6988
 20
28.4949
 11
25.25
 21
28.4
  0
LINE
  8
0
 10
25.25
 20
28.4
 11
23.8011
 21
28.4949
  0
LINE
  8
0
 10
6.16615
 20
37.9137
 11
5.96088
 21
37.9545
  0
LINE
  8
0
 10
5.96088
 20
37.9545
 11
5.7627
 21
38.0218
  0
LINE
  8
0
 10
5.7627
 20
38.0218
 11
5.575
 21
38.1143
  0
LINE
  8
0
 10
5.575
 20
38.1143
 11
5.40097
 21
38.2306
  0
LINE
  8
0
 10
5.40097
 20
38.2306
 11
5.24362
 21
38.3686
  0
LINE
  8
0
 10
5.24362
 20
38.3686
 11
5.10562
 21
38.526
  0
LINE
  8
0
 10
5.10562
 20
38.526
 11
4.98935
 21
38.7
  0
LINE
  8
0
 10
4.98935
 20
38.7
 11
4.89679
 21
38.8877
  0
LINE
  8
0
 10
4.89679
 20
38.8877
 11
4.82951
 21
39.0859
  0
LINE
  8
0
 10
4.82951
 20
39.0859
 11
4.78868
 21
39.2912
  0
LINE
  8
0
 10
4.78868
 20
39.2912
 11
4.77499
 21
39.5
  0
LINE
  8
0
 10
4.77499
 20
39.5
 11
4.78868
 21
39.7088
  0
LINE
  8
0
 10
4.78868
 20
39.7088
 11
4.82951
 21
39.9141
  0
LINE
  8
0
 10
4.82951
 20
39.9141
 11
4.89679
 21
40.1123
  0
LINE
  8
0
 10
4.89679
 20
40.1123
 11
4.98935
 21
40.3
  0
LINE
  8
0
 10
4.98935
 20
40.3
 11
5.10562
 21
40.474
  0
LINE
  8
0
 10
5.10562
 20
40.474
 11
5.24362
 21
40.6314
  0
LINE
  8
0
 10
5.24362
 20
40.6314
 11
5.40097
 21
40.7694
  0
LINE
  8
0
 10
5.40097
 20
40.7694
 11
5.575
 21
40.8856
  0
LINE
  8
0
 10
5.575
 20
40.8856
 11
5.7627
 21
40.9782
  0
LINE
  8
0
 10
5.7627
 20
40.9782
 11
5.96088
 21
41.0455
  0
LINE
  8
0
 10
5.96088
 20
41.0455
 11
6.16615
 21
41.0863
  0
LINE
  8
0
 10
6.16615
 20
41.0863
 11
6.375
 21
41.1
  0
LINE
  8
0
 10
6.375
 20
41.1
 11
6.58383
 21
41.0863
  0
LINE
  8
0
 10
6.58383
 20
41.0863
 11
6.78911
 21
41.0455
  0
LINE
  8
0
 10
6.78911
 20
41.0455
 11
6.98729
 21
40.9782
  0
LINE
  8
0
 10
6.98729
 20
40.9782
 11
7.17499
 21
40.8856
  0
LINE
  8
0
 10
7.17499
 20
40.8856
 11
7.34901
 21
40.7694
  0
LINE
  8
0
 10
7.34901
 20
40.7694
 11
7.50636
 21
40.6314
  0
LINE
  8
0
 10
7.50636
 20
40.6314
 11
7.64436
 21
40.474
  0
LINE
  8
0
 10
7.64436
 20
40.474
 11
7.76064
 21
40.3
  0
LINE
  8
0
 10
7.76064
 20
40.3
 11
7.8532
 21
40.1123
  0
LINE
  8
0
 10
7.8532
 20
40.1123
 11
7.92047
 21
39.9141
  0
LINE
  8
0
 10
7.92047
 20
39.9141
 11
7.9613
 21
39.7088
  0
LINE
  8
0
 10
7.9613
 20
39.7088
 11
7.97499
 21
39.5
  0
LINE
  8
0
 10
7.97499
 20
39.5
 11
7.9613
 21
39.2912
  0
LINE
  8
0
 10
7.9613
 20
39.2912
 11
7.92047
 21
39.0859
  0
LINE
  8
0
 10
7.92047
 20
39.0859
 11
7.8532
 21
38.8877
  0
LINE
  8
0
 10
7.8532
 20
38.8877
 11
7.76064
 21
38.7
  0
LINE
  8
0
 10
7.76064
 20
38.7
 11
7.64436
 21
38.526
  0
LINE
  8
0
 10
7.64436
 20
38.526
 11
7.50636
 21
38.3686
  0
LINE
  8
0
 10
7.50636
 20
38.3686
 11
7.34901
 21
38.2306
  0
LINE
  8
0
 10
7.34901
 20
38.2306
 11
7.17499
 21
38.1143
  0
LINE
  8
0
 10
7.17499
 20
38.1143
 11
6.98729
 21
38.0218
  0
LINE
  8
0
 10
6.98729
 20
38.0218
 11
6.78911
 21
37.9545
  0
LINE
  8
0
 10
6.78911
 20
37.9545
 11
6.58383
 21
37.9137
  0
LINE
  8
0
 10
6.58383
 20
37.9137
 11
6.375
 21
37.9
  0
LINE
  8
0
 10
6.375
 20
37.9
 11
6.16615
 21
37.9137
  0
LINE
  8
0
 10
34.9411
 20
28.0137
 11
34.7359
 21
28.0545
  0
LINE
  8
0
 10
34.7359
 20
28.0545
 11
34.5377
 21
28.1218
  0
LINE
  8
0
 10
34.5377
 20
28.1218
 11
34.35
 21
28.2144
  0
LINE
  8
0
 10
34.35
 20
28.2144
 11
34.176
 21
28.3306
  0
LINE
  8
0
 10
34.176
 20
28.3306
 11
34.0186
 21
28.4686
  0
LINE
  8
0
 10
34.0186
 20
28.4686
 11
33.8806
 21
28.626
  0
LINE
  8
0
 10
33.8806
 20
28.626
 11
33.7644
 21
28.8
  0
LINE
  8
0
 10
33.7644
 20
28.8
 11
33.6718
 21
28.9877
  0
LINE
  8
0
 10
33.6718
 20
28.9877
 11
33.6045
 21
29.1859
  0
LINE
  8
0
 10
33.6045
 20
29.1859
 11
33.5637
 21
29.3911
  0
LINE
  8
0
 10
33.5637
 20
29.3911
 11
33.55
 21
29.6
  0
LINE
  8
0
 10
33.55
 20
29.6
 11
33.5637
 21
29.8088
  0
LINE
  8
0
 10
33.5637
 20
29.8088
 11
33.6045
 21
30.0141
  0
LINE
  8
0
 10
33.6045
 20
30.0141
 11
33.6718
 21
30.2123
  0
LINE
  8
0
 10
33.6718
 20
30.2123
 11
33.7644
 21
30.4
  0
LINE
  8
0
 10
33.7644
 20
30.4
 11
33.8806
 21
30.574
  0
LINE
  8
0
 10
33.8806
 20
30.574
 11
34.0186
 21
30.7314
  0
LINE
  8
0
 10
34.0186
 20
30.7314
 11
34.176
 21
30.8694
  0
LINE
  8
0
 10
34.176
 20
30.8694
 11
34.35
 21
30.9856
  0
LINE
  8
0
 10
34.35
 20
30.9856
 11
34.5377
 21
31.0782
  0
LINE
  8
0
 10
34.5377
 20
31.0782
 11
34.7359
 21
31.1455
  0
LINE
  8
0
 10
34.7359
 20
31.1455
 11
34.9411
 21
31.1863
  0
LINE
  8
0
 10
34.9411
 20
31.1863
 11
35.15
 21
31.2
  0
LINE
  8
0
 10
35.15
 20
31.2
 11
35.3588
 21
31.1863
  0
LINE
  8
0
 10
35.3588
 20
31.1863
 11
35.5641
 21
31.1455
  0
LINE
  8
0
 10
35.5641
 20
31.1455
 11
35.7623
 21
31.0782
  0
LINE
  8
0
 10
35.7623
 20
31.0782
 11
35.95
 21
30.9856
  0
LINE
  8
0
 10
35.95
 20
30.9856
 11
36.124
 21
30.8694
  0
LINE
  8
0
 10
36.124
 20
30.8694
 11
36.2814
 21
30.7314
  0
LINE
  8
0
 10
36.2814
 20
30.7314
 11
36.4194
 21
30.574
  0
LINE
  8
0
 10
36.4194
 20
30.574
 11
36.5356
 21
30.4
  0
LINE
  8
0
 10
36.5356
 20
30.4
 11
36.6282
 21
30.2123
  0
LINE
  8
0
 10
36.6282
 20
30.2123
 11
36.6955
 21
30.0141
  0
LINE
  8
0
 10
36.6955
 20
30.0141
 11
36.7363
 21
29.8088
  0
LINE
  8
0
 10
36.7363
 20
29.8088
 11
36.75
 21
29.6
  0
LINE
  8
0
 10
36.75
 20
29.6
 11
36.7363
 21
29.3911
  0
LINE
  8
0
 10
36.7363
 20
29.3911
 11
36.6955
 21
29.1859
  0
LINE
  8
0
 10
36.6955
 20
29.1859
 11
36.6282
 21
28.9877
  0
LINE
  8
0
 10
36.6282
 20
28.9877
 11
36.5356
 21
28.8
  0
LINE
  8
0
 10
36.5356
 20
28.8
 11
36.4194
 21
28.626
  0
LINE
  8
0
 10
36.4194
 20
28.626
 11
36.2814
 21
28.4686
  0
LINE
  8
0
 10
36.2814
 20
28.4686
 11
36.124
 21
28.3306
  0
LINE
  8
0
 10
36.124
 20
28.3306
 11
35.95
 21
28.2144
  0
LINE
  8
0
 10
35.95
 20
28.2144
 11
35.7623
 21
28.1218
  0
LINE
  8
0
 10
35.7623
 20
28.1218
 11
35.5641
 21
28.0545
  0
LINE
  8
0
 10
35.5641
 20
28.0545
 11
35.3588
 21
28.0137
  0
LINE
  8
0
 10
35.3588
 20
28.0137
 11
35.15
 21
28
  0
LINE
  8
0
 10
35.15
 20
28
 11
34.9411
 21
28.0137
  0
LINE
  8
0
 10
24.8258
 20
13.7778
 11
24.4088
 21
13.8607
  0
LINE
  8
0
 10
24.4088
 20
13.8607
 11
24.0063
 21
13.9974
  0
LINE
  8
0
 10
24.0063
 20
13.9974
 11
23.625
 21
14.1854
  0
LINE
  8
0
 10
23.625
 20
14.1854
 11
23.2715
 21
14.4216
  0
LINE
  8
0
 10
23.2715
 20
14.4216
 11
22.9519
 21
14.7019
  0
LINE
  8
0
 10
22.9519
 20
14.7019
 11
22.6716
 21
15.0215
  0
LINE
  8
0
 10
22.6716
 20
15.0215
 11
22.4354
 21
15.375
  0
LINE
  8
0
 10
22.4354
 20
15.375
 11
22.2474
 21
15.7563
  0
LINE
  8
0
 10
22.2474
 20
15.7563
 11
22.1107
 21
16.1588
  0
LINE
  8
0
 10
22.1107
 20
16.1588
 11
22.0278
 21
16.5758
  0
LINE
  8
0
 10
22.0278
 20
16.5758
 11
22
 21
17
  0
LINE
  8
0
 10
22
 20
17
 11
22.0278
 21
17.4242
  0
LINE
  8
0
 10
22.0278
 20
17.4242
 11
22.1107
 21
17.8412
  0
LINE
  8
0
 10
22.1107
 20
17.8412
 11
22.2474
 21
18.2437
  0
LINE
  8
0
 10
22.2474
 20
18.2437
 11
22.4354
 21
18.625
  0
LINE
  8
0
 10
22.4354
 20
18.625
 11
22.6716
 21
18.9785
  0
LINE
  8
0
 10
22.6716
 20
18.9785
 11
22.9519
 21
19.2981
  0
LINE
  8
0
 10
22.9519
 20
19.2981
 11
23.2392
 21
19.55
  0
LINE
  8
0
 10
23.2392
 20
19.55
 11
27.2608
 21
19.55
  0
LINE
  8
0
 10
27.2608
 20
19.55
 11
27.5481
 21
19.2981
  0
LINE
  8
0
 10
27.5481
 20
19.2981
 11
27.8284
 21
18.9785
  0
LINE
  8
0
 10
27.8284
 20
18.9785
 11
28.0646
 21
18.625
  0
LINE
  8
0
 10
28.0646
 20
18.625
 11
28.2526
 21
18.2437
  0
LINE
  8
0
 10
28.2526
 20
18.2437
 11
28.3893
 21
17.8412
  0
LINE
  8
0
 10
28.3893
 20
17.8412
 11
28.4722
 21
17.4242
  0
LINE
  8
0
 10
28.4722
 20
17.4242
 11
28.5
 21
17
  0
LINE
  8
0
 10
28.5
 20
17
 11
28.4722
 21
16.5758
  0
LINE
  8
0
 10
28.4722
 20
16.5758
 11
28.3893
 21
16.1588
  0
LINE
  8
0
 10
28.3893
 20
16.1588
 11
28.2526
 21
15.7563
  0
LINE
  8
0
 10
28.2526
 20
15.7563
 11
28.0646
 21
15.375
  0
LINE
  8
0
 10
28.0646
 20
15.375
 11
27.8284
 21
15.0215
  0
LINE
  8
0
 10
27.8284
 20
15.0215
 11
27.5481
 21
14.7019
  0
LINE
  8
0
 10
27.5481
 20
14.7019
 11
27.2285
 21
14.4216
  0
LINE
  8
0
 10
27.2285
 20
14.4216
 11
26.875
 21
14.1854
  0
LINE
  8
0
 10
26.875
 20
14.1854
 11
26.4937
 21
13.9974
  0
LINE
  8
0
 10
26.4937
 20
13.9974
 11
26.0912
 21
13.8607
  0
LINE
  8
0
 10
26.0912
 20
13.8607
 11
25.6742
 21
13.7778
  0
LINE
  8
0
 10
25.6742
 20
13.7778
 11
25.25
 21
13.75
  0
LINE
  8
0
 10
25.25
 20
13.75
 11
24.8258
 21
13.7778
  0
LINE
  8
0
 10
41.56
 20
1.39999
 11
41.3512
 21
1.41368
  0
LINE
  8
0
 10
41.3512
 20
1.41368
 11
41.1459
 21
1.45451
  0
LINE
  8
0
 10
41.1459
 20
1.45451
 11
40.9477
 21
1.52179
  0
LINE
  8
0
 10
40.9477
 20
1.52179
 11
40.76
 21
1.61435
  0
LINE
  8
0
 10
40.76
 20
1.61435
 11
40.586
 21
1.73062
  0
LINE
  8
0
 10
40.586
 20
1.73062
 11
40.4286
 21
1.86862
  0
LINE
  8
0
 10
40.4286
 20
1.86862
 11
40.2906
 21
2.02597
  0
LINE
  8
0
 10
40.2906
 20
2.02597
 11
40.1743
 21
2.2
  0
LINE
  8
0
 10
40.1743
 20
2.2
 11
40.0818
 21
2.3877
  0
LINE
  8
0
 10
40.0818
 20
2.3877
 11
40.0145
 21
2.58588
  0
LINE
  8
0
 10
40.0145
 20
2.58588
 11
39.9737
 21
2.79115
  0
LINE
  8
0
 10
39.9737
 20
2.79115
 11
39.96
 21
3
  0
LINE
  8
0
 10
39.96
 20
3
 11
39.9737
 21
3.20883
  0
LINE
  8
0
 10
39.9737
 20
3.20883
 11
40.0145
 21
3.41411
  0
LINE
  8
0
 10
40.0145
 20
3.41411
 11
40.0818
 21
3.61229
  0
LINE
  8
0
 10
40.0818
 20
3.61229
 11
40.1743
 21
3.79999
  0
LINE
  8
0
 10
40.1743
 20
3.79999
 11
40.2906
 21
3.97401
  0
LINE
  8
0
 10
40.2906
 20
3.97401
 11
40.4286
 21
4.13136
  0
LINE
  8
0
 10
40.4286
 20
4.13136
 11
40.586
 21
4.26936
  0
LINE
  8
0
 10
40.586
 20
4.26936
 11
40.76
 21
4.38564
  0
LINE
  8
0
 10
40.76
 20
4.38564
 11
40.9477
 21
4.4782
  0
LINE
  8
0
 10
40.9477
 20
4.4782
 11
41.1459
 21
4.54547
  0
LINE
  8
0
 10
41.1459
 20
4.54547
 11
41.3512
 21
4.5863
  0
LINE
  8
0
 10
41.3512
 20
4.5863
 11
41.56
 21
4.59999
  0
LINE
  8
0
 10
41.56
 20
4.59999
 11
44.56
 21
4.59999
  0
LINE
  8
0
 10
44.56
 20
4.59999
 11
44.7688
 21
4.5863
  0
LINE
  8
0
 10
44.7688
 20
4.5863
 11
44.9741
 21
4.54547
  0
LINE
  8
0
 10
44.9741
 20
4.54547
 11
45.1723
 21
4.4782
  0
LINE
  8
0
 10
45.1723
 20
4.4782
 11
45.36
 21
4.38564
  0
LINE
  8
0
 10
45.36
 20
4.38564
 11
45.534
 21
4.26936
  0
LINE
  8
0
 10
45.534
 20
4.26936
 11
45.6914
 21
4.13136
  0
LINE
  8
0
 10
45.6914
 20
4.13136
 11
45.8294
 21
3.97401
  0
LINE
  8
0
 10
45.8294
 20
3.97401
 11
45.9456
 21
3.79999
  0
LINE
  8
0
 10
45.9456
 20
3.79999
 11
46.0382
 21
3.61229
  0
LINE
  8
0
 10
46.0382
 20
3.61229
 11
46.1055
 21
3.41411
  0
LINE
  8
0
 10
46.1055
 20
3.41411
 11
46.1463
 21
3.20883
  0
LINE
  8
0
 10
46.1463
 20
3.20883
 11
46.16
 21
3
  0
LINE
  8
0
 10
46.16
 20
3
 11
46.1463
 21
2.79115
  0
LINE
  8
0
 10
46.1463
 20
2.79115
 11
46.1055
 21
2.58588
  0
LINE
  8
0
 10
46.1055
 20
2.58588
 11
46.0382
 21
2.3877
  0
LINE
  8
0
 10
46.0382
 20
2.3877
 11
45.9456
 21
2.2
  0
LINE
  8
0
 10
45.9456
 20
2.2
 11
45.8294
 21
2.02597
  0
LINE
  8
0
 10
45.8294
 20
2.02597
 11
45.6914
 21
1.86862
  0
LINE
  8
0
 10
45.6914
 20
1.86862
 11
45.534
 21
1.73062
  0
LINE
  8
0
 10
45.534
 20
1.73062
 11
45.36
 21
1.61435
  0
LINE
  8
0
 10
45.36
 20
1.61435
 11
45.1723
 21
1.52179
  0
LINE
  8
0
 10
45.1723
 20
1.52179
 11
44.9741
 21
1.45451
  0
LINE
  8
0
 10
44.9741
 20
1.45451
 11
44.7688
 21
1.41368
  0
LINE
  8
0
 10
44.7688
 20
1.41368
 11
44.56
 21
1.39999
  0
LINE
  8
0
 10
44.56
 20
1.39999
 11
41.56
 21
1.39999
  0
LINE
  8
0
 10
6
 20
1.39999
 11
5.79115
 21
1.41368
  0
LINE
  8
0
 10
5.79115
 20
1.41368
 11
5.58588
 21
1.45451
  0
LINE
  8
0
 10
5.58588
 20
1.45451
 11
5.3877
 21
1.52179
  0
LINE
  8
0
 10
5.3877
 20
1.52179
 11
5.2
 21
1.61435
  0
LINE
  8
0
 10
5.2
 20
1.61435
 11
5.02597
 21
1.73062
  0
LINE
  8
0
 10
5.02597
 20
1.73062
 11
4.86862
 21
1.86862
  0
LINE
  8
0
 10
4.86862
 20
1.86862
 11
4.73062
 21
2.02597
  0
LINE
  8
0
 10
4.73062
 20
2.02597
 11
4.61435
 21
2.2
  0
LINE
  8
0
 10
4.61435
 20
2.2
 11
4.52179
 21
2.3877
  0
LINE
  8
0
 10
4.52179
 20
2.3877
 11
4.45451
 21
2.58588
  0
LINE
  8
0
 10
4.45451
 20
2.58588
 11
4.41368
 21
2.79115
  0
LINE
  8
0
 10
4.41368
 20
2.79115
 11
4.39999
 21
3
  0
LINE
  8
0
 10
4.39999
 20
3
 11
4.41368
 21
3.20883
  0
LINE
  8
0
 10
4.41368
 20
3.20883
 11
4.45451
 21
3.41411
  0
LINE
  8
0
 10
4.45451
 20
3.41411
 11
4.52179
 21
3.61229
  0
LINE
  8
0
 10
4.52179
 20
3.61229
 11
4.61435
 21
3.79999
  0
LINE
  8
0
 10
4.61435
 20
3.79999
 11
4.73062
 21
3.97401
  0
LINE
  8
0
 10
4.73062
 20
3.97401
 11
4.86862
 21
4.13136
  0
LINE
  8
0
 10
4.86862
 20
4.13136
 11
5.02597
 21
4.26936
  0
LINE
  8
0
 10
5.02597
 20
4.26936
 11
5.2
 21
4.38564
  0
LINE
  8
0
 10
5.2
 20
4.38564
 11
5.3877
 21
4.4782
  0
LINE
  8
0
 10
5.3877
 20
4.4782
 11
5.58588
 21
4.54547
  0
LINE
  8
0
 10
5.58588
 20
4.54547
 11
5.79115
 21
4.5863
  0
LINE
  8
0
 10
5.79115
 20
4.5863
 11
6
 21
4.59999
  0
LINE
  8
0
 10
6
 20
4.59999
 11
9
 21
4.59999
  0
LINE
  8
0
 10
9
 20
4.59999
 11
9.20883
 21
4.5863
  0
LINE
  8
0
 10
9.20883
 20
4.5863
 11
9.41411
 21
4.54547
  0
LINE
  8
0
 10
9.41411
 20
4.54547
 11
9.61229
 21
4.4782
  0
LINE
  8
0
 10
9.61229
 20
4.4782
 11
9.79999
 21
4.38564
  0
LINE
  8
0
 10
9.79999
 20
4.38564
 11
9.97401
 21
4.26936
  0
LINE
  8
0
 10
9.97401
 20
4.26936
 11
10.1314
 21
4.13136
  0
LINE
  8
0
 10
10.1314
 20
4.13136
 11
10.2694
 21
3.97401
  0
LINE
  8
0
 10
10.2694
 20
3.97401
 11
10.3856
 21
3.79999
  0
LINE
  8
0
 10
10.3856
 20
3.79999
 11
10.4782
 21
3.61229
  0
LINE
  8
0
 10
10.4782
 20
3.61229
 11
10.5455
 21
3.41411
  0
LINE
  8
0
 10
10.5455
 20
3.41411
 11
10.5863
 21
3.20883
  0
LINE
  8
0
 10
10.5863
 20
3.20883
 11
10.6
 21
3
  0
LINE
  8
0
 10
10.6
 20
3
 11
10.5863
 21
2.79115
  0
LINE
  8
0
 10
10.5863
 20
2.79115
 11
10.5455
 21
2.58588
  0
LINE
  8
0
 10
10.5455
 20
2.58588
 11
10.4782
 21
2.3877
  0
LINE
  8
0
 10
10.4782
 20
2.3877
 11
10.3856
 21
2.2
  0
LINE
  8
0
 10
10.3856
 20
2.2
 11
10.2694
 21
2.02597
  0
LINE
  8
0
 10
10.2694
 20
2.02597
 11
10.1314
 21
1.86862
  0
LINE
  8
0
 10
10.1314
 20
1.86862
 11
9.97401
 21
1.73062
  0
LINE
  8
0
 10
9.97401
 20
1.73062
 11
9.79999
 21
1.61435
  0
LINE
  8
0
 10
9.79999
 20
1.61435
 11
9.61229
 21
1.52179
  0
LINE
  8
0
 10
9.61229
 20
1.52179
 11
9.41411
 21
1.45451
  0
LINE
  8
0
 10
9.41411
 20
1.45451
 11
9.20883
 21
1.41368
  0
LINE
  8
0
 10
9.20883
 20
1.41368
 11
9
 21
1.39999
  0
LINE
  8
0
 10
9
 20
1.39999
 11
6
 21
1.39999
  0
ENDSEC
  0
SECTION
  2
OBJECTS
  0
DICTIONARY
  0
ENDSEC
  0
EOF
