  0
SECTION
  2
BLOCKS
  0
ENDSEC
  0
SECTION
  2
ENTITIES
  0
LINE
  8
0
 10
50.5
 20
128.5
 11
0
 21
128.5
  0
LINE
  8
0
 10
0
 20
128.5
 11
0
 21
0
  0
LINE
  8
0
 10
0
 20
0
 11
50.5
 21
0
  0
LINE
  8
0
 10
50.5
 20
0
 11
50.5
 21
128.5
  0
LINE
  8
0
 10
6
 20
123.9
 11
5.79115
 21
123.914
  0
LINE
  8
0
 10
5.79115
 20
123.914
 11
5.58588
 21
123.955
  0
LINE
  8
0
 10
5.58588
 20
123.955
 11
5.3877
 21
124.022
  0
LINE
  8
0
 10
5.3877
 20
124.022
 11
5.2
 21
124.114
  0
LINE
  8
0
 10
5.2
 20
124.114
 11
5.02597
 21
124.231
  0
LINE
  8
0
 10
5.02597
 20
124.231
 11
4.86862
 21
124.369
  0
LINE
  8
0
 10
4.86862
 20
124.369
 11
4.73062
 21
124.526
  0
LINE
  8
0
 10
4.73062
 20
124.526
 11
4.61435
 21
124.7
  0
LINE
  8
0
 10
4.61435
 20
124.7
 11
4.52179
 21
124.888
  0
LINE
  8
0
 10
4.52179
 20
124.888
 11
4.45451
 21
125.086
  0
LINE
  8
0
 10
4.45451
 20
125.086
 11
4.41368
 21
125.291
  0
LINE
  8
0
 10
4.41368
 20
125.291
 11
4.39999
 21
125.5
  0
LINE
  8
0
 10
4.39999
 20
125.5
 11
4.41368
 21
125.709
  0
LINE
  8
0
 10
4.41368
 20
125.709
 11
4.45451
 21
125.914
  0
LINE
  8
0
 10
4.45451
 20
125.914
 11
4.52179
 21
126.112
  0
LINE
  8
0
 10
4.52179
 20
126.112
 11
4.61435
 21
126.3
  0
LINE
  8
0
 10
4.61435
 20
126.3
 11
4.73062
 21
126.474
  0
LINE
  8
0
 10
4.73062
 20
126.474
 11
4.86862
 21
126.631
  0
LINE
  8
0
 10
4.86862
 20
126.631
 11
5.02597
 21
126.769
  0
LINE
  8
0
 10
5.02597
 20
126.769
 11
5.2
 21
126.886
  0
LINE
  8
0
 10
5.2
 20
126.886
 11
5.3877
 21
126.978
  0
LINE
  8
0
 10
5.3877
 20
126.978
 11
5.58588
 21
127.045
  0
LINE
  8
0
 10
5.58588
 20
127.045
 11
5.79115
 21
127.086
  0
LINE
  8
0
 10
5.79115
 20
127.086
 11
6
 21
127.1
  0
LINE
  8
0
 10
6
 20
127.1
 11
9
 21
127.1
  0
LINE
  8
0
 10
9
 20
127.1
 11
9.20883
 21
127.086
  0
LINE
  8
0
 10
9.20883
 20
127.086
 11
9.41411
 21
127.045
  0
LINE
  8
0
 10
9.41411
 20
127.045
 11
9.61229
 21
126.978
  0
LINE
  8
0
 10
9.61229
 20
126.978
 11
9.79999
 21
126.886
  0
LINE
  8
0
 10
9.79999
 20
126.886
 11
9.97401
 21
126.769
  0
LINE
  8
0
 10
9.97401
 20
126.769
 11
10.1314
 21
126.631
  0
LINE
  8
0
 10
10.1314
 20
126.631
 11
10.2694
 21
126.474
  0
LINE
  8
0
 10
10.2694
 20
126.474
 11
10.3856
 21
126.3
  0
LINE
  8
0
 10
10.3856
 20
126.3
 11
10.4782
 21
126.112
  0
LINE
  8
0
 10
10.4782
 20
126.112
 11
10.5455
 21
125.914
  0
LINE
  8
0
 10
10.5455
 20
125.914
 11
10.5863
 21
125.709
  0
LINE
  8
0
 10
10.5863
 20
125.709
 11
10.6
 21
125.5
  0
LINE
  8
0
 10
10.6
 20
125.5
 11
10.5863
 21
125.291
  0
LINE
  8
0
 10
10.5863
 20
125.291
 11
10.5455
 21
125.086
  0
LINE
  8
0
 10
10.5455
 20
125.086
 11
10.4782
 21
124.888
  0
LINE
  8
0
 10
10.4782
 20
124.888
 11
10.3856
 21
124.7
  0
LINE
  8
0
 10
10.3856
 20
124.7
 11
10.2694
 21
124.526
  0
LINE
  8
0
 10
10.2694
 20
124.526
 11
10.1314
 21
124.369
  0
LINE
  8
0
 10
10.1314
 20
124.369
 11
9.97401
 21
124.231
  0
LINE
  8
0
 10
9.97401
 20
124.231
 11
9.79999
 21
124.114
  0
LINE
  8
0
 10
9.79999
 20
124.114
 11
9.61229
 21
124.022
  0
LINE
  8
0
 10
9.61229
 20
124.022
 11
9.41411
 21
123.955
  0
LINE
  8
0
 10
9.41411
 20
123.955
 11
9.20883
 21
123.914
  0
LINE
  8
0
 10
9.20883
 20
123.914
 11
9
 21
123.9
  0
LINE
  8
0
 10
9
 20
123.9
 11
6
 21
123.9
  0
LINE
  8
0
 10
41.56
 20
123.9
 11
41.3512
 21
123.914
  0
LINE
  8
0
 10
41.3512
 20
123.914
 11
41.1459
 21
123.955
  0
LINE
  8
0
 10
41.1459
 20
123.955
 11
40.9477
 21
124.022
  0
LINE
  8
0
 10
40.9477
 20
124.022
 11
40.76
 21
124.114
  0
LINE
  8
0
 10
40.76
 20
124.114
 11
40.586
 21
124.231
  0
LINE
  8
0
 10
40.586
 20
124.231
 11
40.4286
 21
124.369
  0
LINE
  8
0
 10
40.4286
 20
124.369
 11
40.2906
 21
124.526
  0
LINE
  8
0
 10
40.2906
 20
124.526
 11
40.1743
 21
124.7
  0
LINE
  8
0
 10
40.1743
 20
124.7
 11
40.0818
 21
124.888
  0
LINE
  8
0
 10
40.0818
 20
124.888
 11
40.0145
 21
125.086
  0
LINE
  8
0
 10
40.0145
 20
125.086
 11
39.9737
 21
125.291
  0
LINE
  8
0
 10
39.9737
 20
125.291
 11
39.96
 21
125.5
  0
LINE
  8
0
 10
39.96
 20
125.5
 11
39.9737
 21
125.709
  0
LINE
  8
0
 10
39.9737
 20
125.709
 11
40.0145
 21
125.914
  0
LINE
  8
0
 10
40.0145
 20
125.914
 11
40.0818
 21
126.112
  0
LINE
  8
0
 10
40.0818
 20
126.112
 11
40.1743
 21
126.3
  0
LINE
  8
0
 10
40.1743
 20
126.3
 11
40.2906
 21
126.474
  0
LINE
  8
0
 10
40.2906
 20
126.474
 11
40.4286
 21
126.631
  0
LINE
  8
0
 10
40.4286
 20
126.631
 11
40.586
 21
126.769
  0
LINE
  8
0
 10
40.586
 20
126.769
 11
40.76
 21
126.886
  0
LINE
  8
0
 10
40.76
 20
126.886
 11
40.9477
 21
126.978
  0
LINE
  8
0
 10
40.9477
 20
126.978
 11
41.1459
 21
127.045
  0
LINE
  8
0
 10
41.1459
 20
127.045
 11
41.3512
 21
127.086
  0
LINE
  8
0
 10
41.3512
 20
127.086
 11
41.56
 21
127.1
  0
LINE
  8
0
 10
41.56
 20
127.1
 11
44.56
 21
127.1
  0
LINE
  8
0
 10
44.56
 20
127.1
 11
44.7688
 21
127.086
  0
LINE
  8
0
 10
44.7688
 20
127.086
 11
44.9741
 21
127.045
  0
LINE
  8
0
 10
44.9741
 20
127.045
 11
45.1723
 21
126.978
  0
LINE
  8
0
 10
45.1723
 20
126.978
 11
45.36
 21
126.886
  0
LINE
  8
0
 10
45.36
 20
126.886
 11
45.534
 21
126.769
  0
LINE
  8
0
 10
45.534
 20
126.769
 11
45.6914
 21
126.631
  0
LINE
  8
0
 10
45.6914
 20
126.631
 11
45.8294
 21
126.474
  0
LINE
  8
0
 10
45.8294
 20
126.474
 11
45.9456
 21
126.3
  0
LINE
  8
0
 10
45.9456
 20
126.3
 11
46.0382
 21
126.112
  0
LINE
  8
0
 10
46.0382
 20
126.112
 11
46.1055
 21
125.914
  0
LINE
  8
0
 10
46.1055
 20
125.914
 11
46.1463
 21
125.709
  0
LINE
  8
0
 10
46.1463
 20
125.709
 11
46.16
 21
125.5
  0
LINE
  8
0
 10
46.16
 20
125.5
 11
46.1463
 21
125.291
  0
LINE
  8
0
 10
46.1463
 20
125.291
 11
46.1055
 21
125.086
  0
LINE
  8
0
 10
46.1055
 20
125.086
 11
46.0382
 21
124.888
  0
LINE
  8
0
 10
46.0382
 20
124.888
 11
45.9456
 21
124.7
  0
LINE
  8
0
 10
45.9456
 20
124.7
 11
45.8294
 21
124.526
  0
LINE
  8
0
 10
45.8294
 20
124.526
 11
45.6914
 21
124.369
  0
LINE
  8
0
 10
45.6914
 20
124.369
 11
45.534
 21
124.231
  0
LINE
  8
0
 10
45.534
 20
124.231
 11
45.36
 21
124.114
  0
LINE
  8
0
 10
45.36
 20
124.114
 11
45.1723
 21
124.022
  0
LINE
  8
0
 10
45.1723
 20
124.022
 11
44.9741
 21
123.955
  0
LINE
  8
0
 10
44.9741
 20
123.955
 11
44.7688
 21
123.914
  0
LINE
  8
0
 10
44.7688
 20
123.914
 11
44.56
 21
123.9
  0
LINE
  8
0
 10
44.56
 20
123.9
 11
41.56
 21
123.9
  0
LINE
  8
0
 10
41.7932
 20
102.53
 11
41.3441
 21
102.619
  0
LINE
  8
0
 10
41.3441
 20
102.619
 11
40.9106
 21
102.766
  0
LINE
  8
0
 10
40.9106
 20
102.766
 11
40.5
 21
102.969
  0
LINE
  8
0
 10
40.5
 20
102.969
 11
40.1193
 21
103.223
  0
LINE
  8
0
 10
40.1193
 20
103.223
 11
39.7751
 21
103.525
  0
LINE
  8
0
 10
39.7751
 20
103.525
 11
39.4733
 21
103.869
  0
LINE
  8
0
 10
39.4733
 20
103.869
 11
39.2189
 21
104.25
  0
LINE
  8
0
 10
39.2189
 20
104.25
 11
39.0164
 21
104.661
  0
LINE
  8
0
 10
39.0164
 20
104.661
 11
38.8692
 21
105.094
  0
LINE
  8
0
 10
38.8692
 20
105.094
 11
38.7799
 21
105.543
  0
LINE
  8
0
 10
38.7799
 20
105.543
 11
38.75
 21
106
  0
LINE
  8
0
 10
38.75
 20
106
 11
38.7799
 21
106.457
  0
LINE
  8
0
 10
38.7799
 20
106.457
 11
38.8692
 21
106.906
  0
LINE
  8
0
 10
38.8692
 20
106.906
 11
39.0164
 21
107.339
  0
LINE
  8
0
 10
39.0164
 20
107.339
 11
39.2189
 21
107.75
  0
LINE
  8
0
 10
39.2189
 20
107.75
 11
39.4733
 21
108.131
  0
LINE
  8
0
 10
39.4733
 20
108.131
 11
39.7751
 21
108.475
  0
LINE
  8
0
 10
39.7751
 20
108.475
 11
40.1193
 21
108.777
  0
LINE
  8
0
 10
40.1193
 20
108.777
 11
40.5
 21
109.031
  0
LINE
  8
0
 10
40.5
 20
109.031
 11
40.9106
 21
109.234
  0
LINE
  8
0
 10
40.9106
 20
109.234
 11
41.3441
 21
109.381
  0
LINE
  8
0
 10
41.3441
 20
109.381
 11
41.7932
 21
109.47
  0
LINE
  8
0
 10
41.7932
 20
109.47
 11
42.25
 21
109.5
  0
LINE
  8
0
 10
42.25
 20
109.5
 11
42.7068
 21
109.47
  0
LINE
  8
0
 10
42.7068
 20
109.47
 11
43.1559
 21
109.381
  0
LINE
  8
0
 10
43.1559
 20
109.381
 11
43.5894
 21
109.234
  0
LINE
  8
0
 10
43.5894
 20
109.234
 11
44
 21
109.031
  0
LINE
  8
0
 10
44
 20
109.031
 11
44.3807
 21
108.777
  0
LINE
  8
0
 10
44.3807
 20
108.777
 11
44.7249
 21
108.475
  0
LINE
  8
0
 10
44.7249
 20
108.475
 11
45.0267
 21
108.131
  0
LINE
  8
0
 10
45.0267
 20
108.131
 11
45.2811
 21
107.75
  0
LINE
  8
0
 10
45.2811
 20
107.75
 11
45.4836
 21
107.339
  0
LINE
  8
0
 10
45.4836
 20
107.339
 11
45.6307
 21
106.906
  0
LINE
  8
0
 10
45.6307
 20
106.906
 11
45.72
 21
106.457
  0
LINE
  8
0
 10
45.72
 20
106.457
 11
45.75
 21
106
  0
LINE
  8
0
 10
45.75
 20
106
 11
45.72
 21
105.543
  0
LINE
  8
0
 10
45.72
 20
105.543
 11
45.6307
 21
105.094
  0
LINE
  8
0
 10
45.6307
 20
105.094
 11
45.4836
 21
104.661
  0
LINE
  8
0
 10
45.4836
 20
104.661
 11
45.2811
 21
104.25
  0
LINE
  8
0
 10
45.2811
 20
104.25
 11
45.0267
 21
103.869
  0
LINE
  8
0
 10
45.0267
 20
103.869
 11
44.7249
 21
103.525
  0
LINE
  8
0
 10
44.7249
 20
103.525
 11
44.3807
 21
103.223
  0
LINE
  8
0
 10
44.3807
 20
103.223
 11
44
 21
102.969
  0
LINE
  8
0
 10
44
 20
102.969
 11
43.5894
 21
102.766
  0
LINE
  8
0
 10
43.5894
 20
102.766
 11
43.1559
 21
102.619
  0
LINE
  8
0
 10
43.1559
 20
102.619
 11
42.7068
 21
102.53
  0
LINE
  8
0
 10
42.7068
 20
102.53
 11
42.25
 21
102.5
  0
LINE
  8
0
 10
42.25
 20
102.5
 11
41.7932
 21
102.53
  0
LINE
  8
0
 10
24.7932
 20
102.53
 11
24.3441
 21
102.619
  0
LINE
  8
0
 10
24.3441
 20
102.619
 11
23.9106
 21
102.766
  0
LINE
  8
0
 10
23.9106
 20
102.766
 11
23.5
 21
102.969
  0
LINE
  8
0
 10
23.5
 20
102.969
 11
23.1193
 21
103.223
  0
LINE
  8
0
 10
23.1193
 20
103.223
 11
22.7751
 21
103.525
  0
LINE
  8
0
 10
22.7751
 20
103.525
 11
22.4733
 21
103.869
  0
LINE
  8
0
 10
22.4733
 20
103.869
 11
22.2189
 21
104.25
  0
LINE
  8
0
 10
22.2189
 20
104.25
 11
22.0164
 21
104.661
  0
LINE
  8
0
 10
22.0164
 20
104.661
 11
21.8692
 21
105.094
  0
LINE
  8
0
 10
21.8692
 20
105.094
 11
21.7799
 21
105.543
  0
LINE
  8
0
 10
21.7799
 20
105.543
 11
21.75
 21
106
  0
LINE
  8
0
 10
21.75
 20
106
 11
21.7799
 21
106.457
  0
LINE
  8
0
 10
21.7799
 20
106.457
 11
21.8692
 21
106.906
  0
LINE
  8
0
 10
21.8692
 20
106.906
 11
22.0164
 21
107.339
  0
LINE
  8
0
 10
22.0164
 20
107.339
 11
22.2189
 21
107.75
  0
LINE
  8
0
 10
22.2189
 20
107.75
 11
22.4733
 21
108.131
  0
LINE
  8
0
 10
22.4733
 20
108.131
 11
22.7751
 21
108.475
  0
LINE
  8
0
 10
22.7751
 20
108.475
 11
23.1193
 21
108.777
  0
LINE
  8
0
 10
23.1193
 20
108.777
 11
23.5
 21
109.031
  0
LINE
  8
0
 10
23.5
 20
109.031
 11
23.9106
 21
109.234
  0
LINE
  8
0
 10
23.9106
 20
109.234
 11
24.3441
 21
109.381
  0
LINE
  8
0
 10
24.3441
 20
109.381
 11
24.7932
 21
109.47
  0
LINE
  8
0
 10
24.7932
 20
109.47
 11
25.25
 21
109.5
  0
LINE
  8
0
 10
25.25
 20
109.5
 11
25.7068
 21
109.47
  0
LINE
  8
0
 10
25.7068
 20
109.47
 11
26.1559
 21
109.381
  0
LINE
  8
0
 10
26.1559
 20
109.381
 11
26.5894
 21
109.234
  0
LINE
  8
0
 10
26.5894
 20
109.234
 11
27
 21
109.031
  0
LINE
  8
0
 10
27
 20
109.031
 11
27.3807
 21
108.777
  0
LINE
  8
0
 10
27.3807
 20
108.777
 11
27.7249
 21
108.475
  0
LINE
  8
0
 10
27.7249
 20
108.475
 11
28.0267
 21
108.131
  0
LINE
  8
0
 10
28.0267
 20
108.131
 11
28.2811
 21
107.75
  0
LINE
  8
0
 10
28.2811
 20
107.75
 11
28.4836
 21
107.339
  0
LINE
  8
0
 10
28.4836
 20
107.339
 11
28.6307
 21
106.906
  0
LINE
  8
0
 10
28.6307
 20
106.906
 11
28.72
 21
106.457
  0
LINE
  8
0
 10
28.72
 20
106.457
 11
28.75
 21
106
  0
LINE
  8
0
 10
28.75
 20
106
 11
28.72
 21
105.543
  0
LINE
  8
0
 10
28.72
 20
105.543
 11
28.6307
 21
105.094
  0
LINE
  8
0
 10
28.6307
 20
105.094
 11
28.4836
 21
104.661
  0
LINE
  8
0
 10
28.4836
 20
104.661
 11
28.2811
 21
104.25
  0
LINE
  8
0
 10
28.2811
 20
104.25
 11
28.0267
 21
103.869
  0
LINE
  8
0
 10
28.0267
 20
103.869
 11
27.7249
 21
103.525
  0
LINE
  8
0
 10
27.7249
 20
103.525
 11
27.3807
 21
103.223
  0
LINE
  8
0
 10
27.3807
 20
103.223
 11
27
 21
102.969
  0
LINE
  8
0
 10
27
 20
102.969
 11
26.5894
 21
102.766
  0
LINE
  8
0
 10
26.5894
 20
102.766
 11
26.1559
 21
102.619
  0
LINE
  8
0
 10
26.1559
 20
102.619
 11
25.7068
 21
102.53
  0
LINE
  8
0
 10
25.7068
 20
102.53
 11
25.25
 21
102.5
  0
LINE
  8
0
 10
25.25
 20
102.5
 11
24.7932
 21
102.53
  0
LINE
  8
0
 10
7.79315
 20
102.53
 11
7.34413
 21
102.619
  0
LINE
  8
0
 10
7.34413
 20
102.619
 11
6.9106
 21
102.766
  0
LINE
  8
0
 10
6.9106
 20
102.766
 11
6.5
 21
102.969
  0
LINE
  8
0
 10
6.5
 20
102.969
 11
6.11932
 21
103.223
  0
LINE
  8
0
 10
6.11932
 20
103.223
 11
5.77512
 21
103.525
  0
LINE
  8
0
 10
5.77512
 20
103.525
 11
5.47325
 21
103.869
  0
LINE
  8
0
 10
5.47325
 20
103.869
 11
5.2189
 21
104.25
  0
LINE
  8
0
 10
5.2189
 20
104.25
 11
5.01642
 21
104.661
  0
LINE
  8
0
 10
5.01642
 20
104.661
 11
4.86925
 21
105.094
  0
LINE
  8
0
 10
4.86925
 20
105.094
 11
4.77994
 21
105.543
  0
LINE
  8
0
 10
4.77994
 20
105.543
 11
4.75
 21
106
  0
LINE
  8
0
 10
4.75
 20
106
 11
4.77994
 21
106.457
  0
LINE
  8
0
 10
4.77994
 20
106.457
 11
4.86925
 21
106.906
  0
LINE
  8
0
 10
4.86925
 20
106.906
 11
5.01642
 21
107.339
  0
LINE
  8
0
 10
5.01642
 20
107.339
 11
5.2189
 21
107.75
  0
LINE
  8
0
 10
5.2189
 20
107.75
 11
5.47325
 21
108.131
  0
LINE
  8
0
 10
5.47325
 20
108.131
 11
5.77512
 21
108.475
  0
LINE
  8
0
 10
5.77512
 20
108.475
 11
6.11932
 21
108.777
  0
LINE
  8
0
 10
6.11932
 20
108.777
 11
6.5
 21
109.031
  0
LINE
  8
0
 10
6.5
 20
109.031
 11
6.9106
 21
109.234
  0
LINE
  8
0
 10
6.9106
 20
109.234
 11
7.34413
 21
109.381
  0
LINE
  8
0
 10
7.34413
 20
109.381
 11
7.79315
 21
109.47
  0
LINE
  8
0
 10
7.79315
 20
109.47
 11
8.25
 21
109.5
  0
LINE
  8
0
 10
8.25
 20
109.5
 11
8.70683
 21
109.47
  0
LINE
  8
0
 10
8.70683
 20
109.47
 11
9.15585
 21
109.381
  0
LINE
  8
0
 10
9.15585
 20
109.381
 11
9.58939
 21
109.234
  0
LINE
  8
0
 10
9.58939
 20
109.234
 11
10
 21
109.031
  0
LINE
  8
0
 10
10
 20
109.031
 11
10.3807
 21
108.777
  0
LINE
  8
0
 10
10.3807
 20
108.777
 11
10.7249
 21
108.475
  0
LINE
  8
0
 10
10.7249
 20
108.475
 11
11.0267
 21
108.131
  0
LINE
  8
0
 10
11.0267
 20
108.131
 11
11.2811
 21
107.75
  0
LINE
  8
0
 10
11.2811
 20
107.75
 11
11.4836
 21
107.339
  0
LINE
  8
0
 10
11.4836
 20
107.339
 11
11.6307
 21
106.906
  0
LINE
  8
0
 10
11.6307
 20
106.906
 11
11.72
 21
106.457
  0
LINE
  8
0
 10
11.72
 20
106.457
 11
11.75
 21
106
  0
LINE
  8
0
 10
11.75
 20
106
 11
11.72
 21
105.543
  0
LINE
  8
0
 10
11.72
 20
105.543
 11
11.6307
 21
105.094
  0
LINE
  8
0
 10
11.6307
 20
105.094
 11
11.4836
 21
104.661
  0
LINE
  8
0
 10
11.4836
 20
104.661
 11
11.2811
 21
104.25
  0
LINE
  8
0
 10
11.2811
 20
104.25
 11
11.0267
 21
103.869
  0
LINE
  8
0
 10
11.0267
 20
103.869
 11
10.7249
 21
103.525
  0
LINE
  8
0
 10
10.7249
 20
103.525
 11
10.3807
 21
103.223
  0
LINE
  8
0
 10
10.3807
 20
103.223
 11
10
 21
102.969
  0
LINE
  8
0
 10
10
 20
102.969
 11
9.58939
 21
102.766
  0
LINE
  8
0
 10
9.58939
 20
102.766
 11
9.15585
 21
102.619
  0
LINE
  8
0
 10
9.15585
 20
102.619
 11
8.70683
 21
102.53
  0
LINE
  8
0
 10
8.70683
 20
102.53
 11
8.25
 21
102.5
  0
LINE
  8
0
 10
8.25
 20
102.5
 11
7.79315
 21
102.53
  0
LINE
  8
0
 10
15.3388
 20
85.3769
 11
14.9347
 21
85.4573
  0
LINE
  8
0
 10
14.9347
 20
85.4573
 11
14.5445
 21
85.5898
  0
LINE
  8
0
 10
14.5445
 20
85.5898
 11
14.175
 21
85.772
  0
LINE
  8
0
 10
14.175
 20
85.772
 11
13.8324
 21
86.0009
  0
LINE
  8
0
 10
13.8324
 20
86.0009
 11
13.5226
 21
86.2726
  0
LINE
  8
0
 10
13.5226
 20
86.2726
 11
13.2509
 21
86.5824
  0
LINE
  8
0
 10
13.2509
 20
86.5824
 11
13.022
 21
86.925
  0
LINE
  8
0
 10
13.022
 20
86.925
 11
12.8398
 21
87.2945
  0
LINE
  8
0
 10
12.8398
 20
87.2945
 11
12.7073
 21
87.6847
  0
LINE
  8
0
 10
12.7073
 20
87.6847
 11
12.6269
 21
88.0888
  0
LINE
  8
0
 10
12.6269
 20
88.0888
 11
12.6
 21
88.5
  0
LINE
  8
0
 10
12.6
 20
88.5
 11
12.6269
 21
88.9111
  0
LINE
  8
0
 10
12.6269
 20
88.9111
 11
12.7073
 21
89.3153
  0
LINE
  8
0
 10
12.7073
 20
89.3153
 11
12.8398
 21
89.7054
  0
LINE
  8
0
 10
12.8398
 20
89.7054
 11
13.022
 21
90.075
  0
LINE
  8
0
 10
13.022
 20
90.075
 11
13.2509
 21
90.4176
  0
LINE
  8
0
 10
13.2509
 20
90.4176
 11
13.5226
 21
90.7274
  0
LINE
  8
0
 10
13.5226
 20
90.7274
 11
13.8324
 21
90.9991
  0
LINE
  8
0
 10
13.8324
 20
90.9991
 11
14.175
 21
91.228
  0
LINE
  8
0
 10
14.175
 20
91.228
 11
14.5445
 21
91.4102
  0
LINE
  8
0
 10
14.5445
 20
91.4102
 11
14.9347
 21
91.5427
  0
LINE
  8
0
 10
14.9347
 20
91.5427
 11
15.3388
 21
91.623
  0
LINE
  8
0
 10
15.3388
 20
91.623
 11
15.75
 21
91.65
  0
LINE
  8
0
 10
15.75
 20
91.65
 11
16.1611
 21
91.623
  0
LINE
  8
0
 10
16.1611
 20
91.623
 11
16.5653
 21
91.5427
  0
LINE
  8
0
 10
16.5653
 20
91.5427
 11
16.9554
 21
91.4102
  0
LINE
  8
0
 10
16.9554
 20
91.4102
 11
17.325
 21
91.228
  0
LINE
  8
0
 10
17.325
 20
91.228
 11
17.6676
 21
90.9991
  0
LINE
  8
0
 10
17.6676
 20
90.9991
 11
17.9774
 21
90.7274
  0
LINE
  8
0
 10
17.9774
 20
90.7274
 11
18.2491
 21
90.4176
  0
LINE
  8
0
 10
18.2491
 20
90.4176
 11
18.478
 21
90.075
  0
LINE
  8
0
 10
18.478
 20
90.075
 11
18.6602
 21
89.7054
  0
LINE
  8
0
 10
18.6602
 20
89.7054
 11
18.7927
 21
89.3153
  0
LINE
  8
0
 10
18.7927
 20
89.3153
 11
18.873
 21
88.9111
  0
LINE
  8
0
 10
18.873
 20
88.9111
 11
18.9
 21
88.5
  0
LINE
  8
0
 10
18.9
 20
88.5
 11
18.873
 21
88.0888
  0
LINE
  8
0
 10
18.873
 20
88.0888
 11
18.7927
 21
87.6847
  0
LINE
  8
0
 10
18.7927
 20
87.6847
 11
18.6602
 21
87.2945
  0
LINE
  8
0
 10
18.6602
 20
87.2945
 11
18.478
 21
86.925
  0
LINE
  8
0
 10
18.478
 20
86.925
 11
18.2491
 21
86.5824
  0
LINE
  8
0
 10
18.2491
 20
86.5824
 11
17.9774
 21
86.2726
  0
LINE
  8
0
 10
17.9774
 20
86.2726
 11
17.6676
 21
86.0009
  0
LINE
  8
0
 10
17.6676
 20
86.0009
 11
17.325
 21
85.772
  0
LINE
  8
0
 10
17.325
 20
85.772
 11
16.9554
 21
85.5898
  0
LINE
  8
0
 10
16.9554
 20
85.5898
 11
16.5653
 21
85.4573
  0
LINE
  8
0
 10
16.5653
 20
85.4573
 11
16.1611
 21
85.3769
  0
LINE
  8
0
 10
16.1611
 20
85.3769
 11
15.75
 21
85.35
  0
LINE
  8
0
 10
15.75
 20
85.35
 11
15.3388
 21
85.3769
  0
LINE
  8
0
 10
34.3388
 20
85.3769
 11
33.9347
 21
85.4573
  0
LINE
  8
0
 10
33.9347
 20
85.4573
 11
33.5445
 21
85.5898
  0
LINE
  8
0
 10
33.5445
 20
85.5898
 11
33.175
 21
85.772
  0
LINE
  8
0
 10
33.175
 20
85.772
 11
32.8324
 21
86.0009
  0
LINE
  8
0
 10
32.8324
 20
86.0009
 11
32.5226
 21
86.2726
  0
LINE
  8
0
 10
32.5226
 20
86.2726
 11
32.2509
 21
86.5824
  0
LINE
  8
0
 10
32.2509
 20
86.5824
 11
32.022
 21
86.925
  0
LINE
  8
0
 10
32.022
 20
86.925
 11
31.8398
 21
87.2945
  0
LINE
  8
0
 10
31.8398
 20
87.2945
 11
31.7073
 21
87.6847
  0
LINE
  8
0
 10
31.7073
 20
87.6847
 11
31.6269
 21
88.0888
  0
LINE
  8
0
 10
31.6269
 20
88.0888
 11
31.6
 21
88.5
  0
LINE
  8
0
 10
31.6
 20
88.5
 11
31.6269
 21
88.9111
  0
LINE
  8
0
 10
31.6269
 20
88.9111
 11
31.7073
 21
89.3153
  0
LINE
  8
0
 10
31.7073
 20
89.3153
 11
31.8398
 21
89.7054
  0
LINE
  8
0
 10
31.8398
 20
89.7054
 11
32.022
 21
90.075
  0
LINE
  8
0
 10
32.022
 20
90.075
 11
32.2509
 21
90.4176
  0
LINE
  8
0
 10
32.2509
 20
90.4176
 11
32.5226
 21
90.7274
  0
LINE
  8
0
 10
32.5226
 20
90.7274
 11
32.8324
 21
90.9991
  0
LINE
  8
0
 10
32.8324
 20
90.9991
 11
33.175
 21
91.228
  0
LINE
  8
0
 10
33.175
 20
91.228
 11
33.5445
 21
91.4102
  0
LINE
  8
0
 10
33.5445
 20
91.4102
 11
33.9347
 21
91.5427
  0
LINE
  8
0
 10
33.9347
 20
91.5427
 11
34.3388
 21
91.623
  0
LINE
  8
0
 10
34.3388
 20
91.623
 11
34.75
 21
91.65
  0
LINE
  8
0
 10
34.75
 20
91.65
 11
35.1611
 21
91.623
  0
LINE
  8
0
 10
35.1611
 20
91.623
 11
35.5653
 21
91.5427
  0
LINE
  8
0
 10
35.5653
 20
91.5427
 11
35.9554
 21
91.4102
  0
LINE
  8
0
 10
35.9554
 20
91.4102
 11
36.325
 21
91.228
  0
LINE
  8
0
 10
36.325
 20
91.228
 11
36.6676
 21
90.9991
  0
LINE
  8
0
 10
36.6676
 20
90.9991
 11
36.9774
 21
90.7274
  0
LINE
  8
0
 10
36.9774
 20
90.7274
 11
37.2491
 21
90.4176
  0
LINE
  8
0
 10
37.2491
 20
90.4176
 11
37.478
 21
90.075
  0
LINE
  8
0
 10
37.478
 20
90.075
 11
37.6602
 21
89.7054
  0
LINE
  8
0
 10
37.6602
 20
89.7054
 11
37.7927
 21
89.3153
  0
LINE
  8
0
 10
37.7927
 20
89.3153
 11
37.873
 21
88.9111
  0
LINE
  8
0
 10
37.873
 20
88.9111
 11
37.9
 21
88.5
  0
LINE
  8
0
 10
37.9
 20
88.5
 11
37.873
 21
88.0888
  0
LINE
  8
0
 10
37.873
 20
88.0888
 11
37.7927
 21
87.6847
  0
LINE
  8
0
 10
37.7927
 20
87.6847
 11
37.6602
 21
87.2945
  0
LINE
  8
0
 10
37.6602
 20
87.2945
 11
37.478
 21
86.925
  0
LINE
  8
0
 10
37.478
 20
86.925
 11
37.2491
 21
86.5824
  0
LINE
  8
0
 10
37.2491
 20
86.5824
 11
36.9774
 21
86.2726
  0
LINE
  8
0
 10
36.9774
 20
86.2726
 11
36.6676
 21
86.0009
  0
LINE
  8
0
 10
36.6676
 20
86.0009
 11
36.325
 21
85.772
  0
LINE
  8
0
 10
36.325
 20
85.772
 11
35.9554
 21
85.5898
  0
LINE
  8
0
 10
35.9554
 20
85.5898
 11
35.5653
 21
85.4573
  0
LINE
  8
0
 10
35.5653
 20
85.4573
 11
35.1611
 21
85.3769
  0
LINE
  8
0
 10
35.1611
 20
85.3769
 11
34.75
 21
85.35
  0
LINE
  8
0
 10
34.75
 20
85.35
 11
34.3388
 21
85.3769
  0
LINE
  8
0
 10
15.3388
 20
72.3769
 11
14.9347
 21
72.4573
  0
LINE
  8
0
 10
14.9347
 20
72.4573
 11
14.5445
 21
72.5898
  0
LINE
  8
0
 10
14.5445
 20
72.5898
 11
14.175
 21
72.772
  0
LINE
  8
0
 10
14.175
 20
72.772
 11
13.8324
 21
73.0009
  0
LINE
  8
0
 10
13.8324
 20
73.0009
 11
13.5226
 21
73.2726
  0
LINE
  8
0
 10
13.5226
 20
73.2726
 11
13.2509
 21
73.5824
  0
LINE
  8
0
 10
13.2509
 20
73.5824
 11
13.022
 21
73.925
  0
LINE
  8
0
 10
13.022
 20
73.925
 11
12.8398
 21
74.2945
  0
LINE
  8
0
 10
12.8398
 20
74.2945
 11
12.7073
 21
74.6847
  0
LINE
  8
0
 10
12.7073
 20
74.6847
 11
12.6269
 21
75.0888
  0
LINE
  8
0
 10
12.6269
 20
75.0888
 11
12.6
 21
75.5
  0
LINE
  8
0
 10
12.6
 20
75.5
 11
12.6269
 21
75.9111
  0
LINE
  8
0
 10
12.6269
 20
75.9111
 11
12.7073
 21
76.3153
  0
LINE
  8
0
 10
12.7073
 20
76.3153
 11
12.8398
 21
76.7054
  0
LINE
  8
0
 10
12.8398
 20
76.7054
 11
13.022
 21
77.075
  0
LINE
  8
0
 10
13.022
 20
77.075
 11
13.2509
 21
77.4176
  0
LINE
  8
0
 10
13.2509
 20
77.4176
 11
13.5226
 21
77.7274
  0
LINE
  8
0
 10
13.5226
 20
77.7274
 11
13.8324
 21
77.9991
  0
LINE
  8
0
 10
13.8324
 20
77.9991
 11
14.175
 21
78.228
  0
LINE
  8
0
 10
14.175
 20
78.228
 11
14.5445
 21
78.4102
  0
LINE
  8
0
 10
14.5445
 20
78.4102
 11
14.9347
 21
78.5427
  0
LINE
  8
0
 10
14.9347
 20
78.5427
 11
15.3388
 21
78.623
  0
LINE
  8
0
 10
15.3388
 20
78.623
 11
15.75
 21
78.65
  0
LINE
  8
0
 10
15.75
 20
78.65
 11
16.1611
 21
78.623
  0
LINE
  8
0
 10
16.1611
 20
78.623
 11
16.5653
 21
78.5427
  0
LINE
  8
0
 10
16.5653
 20
78.5427
 11
16.9554
 21
78.4102
  0
LINE
  8
0
 10
16.9554
 20
78.4102
 11
17.325
 21
78.228
  0
LINE
  8
0
 10
17.325
 20
78.228
 11
17.6676
 21
77.9991
  0
LINE
  8
0
 10
17.6676
 20
77.9991
 11
17.9774
 21
77.7274
  0
LINE
  8
0
 10
17.9774
 20
77.7274
 11
18.2491
 21
77.4176
  0
LINE
  8
0
 10
18.2491
 20
77.4176
 11
18.478
 21
77.075
  0
LINE
  8
0
 10
18.478
 20
77.075
 11
18.6602
 21
76.7054
  0
LINE
  8
0
 10
18.6602
 20
76.7054
 11
18.7927
 21
76.3153
  0
LINE
  8
0
 10
18.7927
 20
76.3153
 11
18.873
 21
75.9111
  0
LINE
  8
0
 10
18.873
 20
75.9111
 11
18.9
 21
75.5
  0
LINE
  8
0
 10
18.9
 20
75.5
 11
18.873
 21
75.0888
  0
LINE
  8
0
 10
18.873
 20
75.0888
 11
18.7927
 21
74.6847
  0
LINE
  8
0
 10
18.7927
 20
74.6847
 11
18.6602
 21
74.2945
  0
LINE
  8
0
 10
18.6602
 20
74.2945
 11
18.478
 21
73.925
  0
LINE
  8
0
 10
18.478
 20
73.925
 11
18.2491
 21
73.5824
  0
LINE
  8
0
 10
18.2491
 20
73.5824
 11
17.9774
 21
73.2726
  0
LINE
  8
0
 10
17.9774
 20
73.2726
 11
17.6676
 21
73.0009
  0
LINE
  8
0
 10
17.6676
 20
73.0009
 11
17.325
 21
72.772
  0
LINE
  8
0
 10
17.325
 20
72.772
 11
16.9554
 21
72.5898
  0
LINE
  8
0
 10
16.9554
 20
72.5898
 11
16.5653
 21
72.4573
  0
LINE
  8
0
 10
16.5653
 20
72.4573
 11
16.1611
 21
72.3769
  0
LINE
  8
0
 10
16.1611
 20
72.3769
 11
15.75
 21
72.35
  0
LINE
  8
0
 10
15.75
 20
72.35
 11
15.3388
 21
72.3769
  0
LINE
  8
0
 10
34.3388
 20
72.3769
 11
33.9347
 21
72.4573
  0
LINE
  8
0
 10
33.9347
 20
72.4573
 11
33.5445
 21
72.5898
  0
LINE
  8
0
 10
33.5445
 20
72.5898
 11
33.175
 21
72.772
  0
LINE
  8
0
 10
33.175
 20
72.772
 11
32.8324
 21
73.0009
  0
LINE
  8
0
 10
32.8324
 20
73.0009
 11
32.5226
 21
73.2726
  0
LINE
  8
0
 10
32.5226
 20
73.2726
 11
32.2509
 21
73.5824
  0
LINE
  8
0
 10
32.2509
 20
73.5824
 11
32.022
 21
73.925
  0
LINE
  8
0
 10
32.022
 20
73.925
 11
31.8398
 21
74.2945
  0
LINE
  8
0
 10
31.8398
 20
74.2945
 11
31.7073
 21
74.6847
  0
LINE
  8
0
 10
31.7073
 20
74.6847
 11
31.6269
 21
75.0888
  0
LINE
  8
0
 10
31.6269
 20
75.0888
 11
31.6
 21
75.5
  0
LINE
  8
0
 10
31.6
 20
75.5
 11
31.6269
 21
75.9111
  0
LINE
  8
0
 10
31.6269
 20
75.9111
 11
31.7073
 21
76.3153
  0
LINE
  8
0
 10
31.7073
 20
76.3153
 11
31.8398
 21
76.7054
  0
LINE
  8
0
 10
31.8398
 20
76.7054
 11
32.022
 21
77.075
  0
LINE
  8
0
 10
32.022
 20
77.075
 11
32.2509
 21
77.4176
  0
LINE
  8
0
 10
32.2509
 20
77.4176
 11
32.5226
 21
77.7274
  0
LINE
  8
0
 10
32.5226
 20
77.7274
 11
32.8324
 21
77.9991
  0
LINE
  8
0
 10
32.8324
 20
77.9991
 11
33.175
 21
78.228
  0
LINE
  8
0
 10
33.175
 20
78.228
 11
33.5445
 21
78.4102
  0
LINE
  8
0
 10
33.5445
 20
78.4102
 11
33.9347
 21
78.5427
  0
LINE
  8
0
 10
33.9347
 20
78.5427
 11
34.3388
 21
78.623
  0
LINE
  8
0
 10
34.3388
 20
78.623
 11
34.75
 21
78.65
  0
LINE
  8
0
 10
34.75
 20
78.65
 11
35.1611
 21
78.623
  0
LINE
  8
0
 10
35.1611
 20
78.623
 11
35.5653
 21
78.5427
  0
LINE
  8
0
 10
35.5653
 20
78.5427
 11
35.9554
 21
78.4102
  0
LINE
  8
0
 10
35.9554
 20
78.4102
 11
36.325
 21
78.228
  0
LINE
  8
0
 10
36.325
 20
78.228
 11
36.6676
 21
77.9991
  0
LINE
  8
0
 10
36.6676
 20
77.9991
 11
36.9774
 21
77.7274
  0
LINE
  8
0
 10
36.9774
 20
77.7274
 11
37.2491
 21
77.4176
  0
LINE
  8
0
 10
37.2491
 20
77.4176
 11
37.478
 21
77.075
  0
LINE
  8
0
 10
37.478
 20
77.075
 11
37.6602
 21
76.7054
  0
LINE
  8
0
 10
37.6602
 20
76.7054
 11
37.7927
 21
76.3153
  0
LINE
  8
0
 10
37.7927
 20
76.3153
 11
37.873
 21
75.9111
  0
LINE
  8
0
 10
37.873
 20
75.9111
 11
37.9
 21
75.5
  0
LINE
  8
0
 10
37.9
 20
75.5
 11
37.873
 21
75.0888
  0
LINE
  8
0
 10
37.873
 20
75.0888
 11
37.7927
 21
74.6847
  0
LINE
  8
0
 10
37.7927
 20
74.6847
 11
37.6602
 21
74.2945
  0
LINE
  8
0
 10
37.6602
 20
74.2945
 11
37.478
 21
73.925
  0
LINE
  8
0
 10
37.478
 20
73.925
 11
37.2491
 21
73.5824
  0
LINE
  8
0
 10
37.2491
 20
73.5824
 11
36.9774
 21
73.2726
  0
LINE
  8
0
 10
36.9774
 20
73.2726
 11
36.6676
 21
73.0009
  0
LINE
  8
0
 10
36.6676
 20
73.0009
 11
36.325
 21
72.772
  0
LINE
  8
0
 10
36.325
 20
72.772
 11
35.9554
 21
72.5898
  0
LINE
  8
0
 10
35.9554
 20
72.5898
 11
35.5653
 21
72.4573
  0
LINE
  8
0
 10
35.5653
 20
72.4573
 11
35.1611
 21
72.3769
  0
LINE
  8
0
 10
35.1611
 20
72.3769
 11
34.75
 21
72.35
  0
LINE
  8
0
 10
34.75
 20
72.35
 11
34.3388
 21
72.3769
  0
LINE
  8
0
 10
34.3388
 20
59.3769
 11
33.9347
 21
59.4573
  0
LINE
  8
0
 10
33.9347
 20
59.4573
 11
33.5445
 21
59.5898
  0
LINE
  8
0
 10
33.5445
 20
59.5898
 11
33.175
 21
59.772
  0
LINE
  8
0
 10
33.175
 20
59.772
 11
32.8324
 21
60.0009
  0
LINE
  8
0
 10
32.8324
 20
60.0009
 11
32.5226
 21
60.2726
  0
LINE
  8
0
 10
32.5226
 20
60.2726
 11
32.2509
 21
60.5824
  0
LINE
  8
0
 10
32.2509
 20
60.5824
 11
32.022
 21
60.925
  0
LINE
  8
0
 10
32.022
 20
60.925
 11
31.8398
 21
61.2945
  0
LINE
  8
0
 10
31.8398
 20
61.2945
 11
31.7073
 21
61.6847
  0
LINE
  8
0
 10
31.7073
 20
61.6847
 11
31.6269
 21
62.0888
  0
LINE
  8
0
 10
31.6269
 20
62.0888
 11
31.6
 21
62.5
  0
LINE
  8
0
 10
31.6
 20
62.5
 11
31.6269
 21
62.9111
  0
LINE
  8
0
 10
31.6269
 20
62.9111
 11
31.7073
 21
63.3153
  0
LINE
  8
0
 10
31.7073
 20
63.3153
 11
31.8398
 21
63.7054
  0
LINE
  8
0
 10
31.8398
 20
63.7054
 11
32.022
 21
64.075
  0
LINE
  8
0
 10
32.022
 20
64.075
 11
32.2509
 21
64.4176
  0
LINE
  8
0
 10
32.2509
 20
64.4176
 11
32.5226
 21
64.7274
  0
LINE
  8
0
 10
32.5226
 20
64.7274
 11
32.8324
 21
64.9991
  0
LINE
  8
0
 10
32.8324
 20
64.9991
 11
33.175
 21
65.228
  0
LINE
  8
0
 10
33.175
 20
65.228
 11
33.5445
 21
65.4102
  0
LINE
  8
0
 10
33.5445
 20
65.4102
 11
33.9347
 21
65.5427
  0
LINE
  8
0
 10
33.9347
 20
65.5427
 11
34.3388
 21
65.623
  0
LINE
  8
0
 10
34.3388
 20
65.623
 11
34.75
 21
65.65
  0
LINE
  8
0
 10
34.75
 20
65.65
 11
35.1611
 21
65.623
  0
LINE
  8
0
 10
35.1611
 20
65.623
 11
35.5653
 21
65.5427
  0
LINE
  8
0
 10
35.5653
 20
65.5427
 11
35.9554
 21
65.4102
  0
LINE
  8
0
 10
35.9554
 20
65.4102
 11
36.325
 21
65.228
  0
LINE
  8
0
 10
36.325
 20
65.228
 11
36.6676
 21
64.9991
  0
LINE
  8
0
 10
36.6676
 20
64.9991
 11
36.9774
 21
64.7274
  0
LINE
  8
0
 10
36.9774
 20
64.7274
 11
37.2491
 21
64.4176
  0
LINE
  8
0
 10
37.2491
 20
64.4176
 11
37.478
 21
64.075
  0
LINE
  8
0
 10
37.478
 20
64.075
 11
37.6602
 21
63.7054
  0
LINE
  8
0
 10
37.6602
 20
63.7054
 11
37.7927
 21
63.3153
  0
LINE
  8
0
 10
37.7927
 20
63.3153
 11
37.873
 21
62.9111
  0
LINE
  8
0
 10
37.873
 20
62.9111
 11
37.9
 21
62.5
  0
LINE
  8
0
 10
37.9
 20
62.5
 11
37.873
 21
62.0888
  0
LINE
  8
0
 10
37.873
 20
62.0888
 11
37.7927
 21
61.6847
  0
LINE
  8
0
 10
37.7927
 20
61.6847
 11
37.6602
 21
61.2945
  0
LINE
  8
0
 10
37.6602
 20
61.2945
 11
37.478
 21
60.925
  0
LINE
  8
0
 10
37.478
 20
60.925
 11
37.2491
 21
60.5824
  0
LINE
  8
0
 10
37.2491
 20
60.5824
 11
36.9774
 21
60.2726
  0
LINE
  8
0
 10
36.9774
 20
60.2726
 11
36.6676
 21
60.0009
  0
LINE
  8
0
 10
36.6676
 20
60.0009
 11
36.325
 21
59.772
  0
LINE
  8
0
 10
36.325
 20
59.772
 11
35.9554
 21
59.5898
  0
LINE
  8
0
 10
35.9554
 20
59.5898
 11
35.5653
 21
59.4573
  0
LINE
  8
0
 10
35.5653
 20
59.4573
 11
35.1611
 21
59.3769
  0
LINE
  8
0
 10
35.1611
 20
59.3769
 11
34.75
 21
59.35
  0
LINE
  8
0
 10
34.75
 20
59.35
 11
34.3388
 21
59.3769
  0
LINE
  8
0
 10
15.3388
 20
59.3769
 11
14.9347
 21
59.4573
  0
LINE
  8
0
 10
14.9347
 20
59.4573
 11
14.5445
 21
59.5898
  0
LINE
  8
0
 10
14.5445
 20
59.5898
 11
14.175
 21
59.772
  0
LINE
  8
0
 10
14.175
 20
59.772
 11
13.8324
 21
60.0009
  0
LINE
  8
0
 10
13.8324
 20
60.0009
 11
13.5226
 21
60.2726
  0
LINE
  8
0
 10
13.5226
 20
60.2726
 11
13.2509
 21
60.5824
  0
LINE
  8
0
 10
13.2509
 20
60.5824
 11
13.022
 21
60.925
  0
LINE
  8
0
 10
13.022
 20
60.925
 11
12.8398
 21
61.2945
  0
LINE
  8
0
 10
12.8398
 20
61.2945
 11
12.7073
 21
61.6847
  0
LINE
  8
0
 10
12.7073
 20
61.6847
 11
12.6269
 21
62.0888
  0
LINE
  8
0
 10
12.6269
 20
62.0888
 11
12.6
 21
62.5
  0
LINE
  8
0
 10
12.6
 20
62.5
 11
12.6269
 21
62.9111
  0
LINE
  8
0
 10
12.6269
 20
62.9111
 11
12.7073
 21
63.3153
  0
LINE
  8
0
 10
12.7073
 20
63.3153
 11
12.8398
 21
63.7054
  0
LINE
  8
0
 10
12.8398
 20
63.7054
 11
13.022
 21
64.075
  0
LINE
  8
0
 10
13.022
 20
64.075
 11
13.2509
 21
64.4176
  0
LINE
  8
0
 10
13.2509
 20
64.4176
 11
13.5226
 21
64.7274
  0
LINE
  8
0
 10
13.5226
 20
64.7274
 11
13.8324
 21
64.9991
  0
LINE
  8
0
 10
13.8324
 20
64.9991
 11
14.175
 21
65.228
  0
LINE
  8
0
 10
14.175
 20
65.228
 11
14.5445
 21
65.4102
  0
LINE
  8
0
 10
14.5445
 20
65.4102
 11
14.9347
 21
65.5427
  0
LINE
  8
0
 10
14.9347
 20
65.5427
 11
15.3388
 21
65.623
  0
LINE
  8
0
 10
15.3388
 20
65.623
 11
15.75
 21
65.65
  0
LINE
  8
0
 10
15.75
 20
65.65
 11
16.1611
 21
65.623
  0
LINE
  8
0
 10
16.1611
 20
65.623
 11
16.5653
 21
65.5427
  0
LINE
  8
0
 10
16.5653
 20
65.5427
 11
16.9554
 21
65.4102
  0
LINE
  8
0
 10
16.9554
 20
65.4102
 11
17.325
 21
65.228
  0
LINE
  8
0
 10
17.325
 20
65.228
 11
17.6676
 21
64.9991
  0
LINE
  8
0
 10
17.6676
 20
64.9991
 11
17.9774
 21
64.7274
  0
LINE
  8
0
 10
17.9774
 20
64.7274
 11
18.2491
 21
64.4176
  0
LINE
  8
0
 10
18.2491
 20
64.4176
 11
18.478
 21
64.075
  0
LINE
  8
0
 10
18.478
 20
64.075
 11
18.6602
 21
63.7054
  0
LINE
  8
0
 10
18.6602
 20
63.7054
 11
18.7927
 21
63.3153
  0
LINE
  8
0
 10
18.7927
 20
63.3153
 11
18.873
 21
62.9111
  0
LINE
  8
0
 10
18.873
 20
62.9111
 11
18.9
 21
62.5
  0
LINE
  8
0
 10
18.9
 20
62.5
 11
18.873
 21
62.0888
  0
LINE
  8
0
 10
18.873
 20
62.0888
 11
18.7927
 21
61.6847
  0
LINE
  8
0
 10
18.7927
 20
61.6847
 11
18.6602
 21
61.2945
  0
LINE
  8
0
 10
18.6602
 20
61.2945
 11
18.478
 21
60.925
  0
LINE
  8
0
 10
18.478
 20
60.925
 11
18.2491
 21
60.5824
  0
LINE
  8
0
 10
18.2491
 20
60.5824
 11
17.9774
 21
60.2726
  0
LINE
  8
0
 10
17.9774
 20
60.2726
 11
17.6676
 21
60.0009
  0
LINE
  8
0
 10
17.6676
 20
60.0009
 11
17.325
 21
59.772
  0
LINE
  8
0
 10
17.325
 20
59.772
 11
16.9554
 21
59.5898
  0
LINE
  8
0
 10
16.9554
 20
59.5898
 11
16.5653
 21
59.4573
  0
LINE
  8
0
 10
16.5653
 20
59.4573
 11
16.1611
 21
59.3769
  0
LINE
  8
0
 10
16.1611
 20
59.3769
 11
15.75
 21
59.35
  0
LINE
  8
0
 10
15.75
 20
59.35
 11
15.3388
 21
59.3769
  0
LINE
  8
0
 10
24.8258
 20
46.2778
 11
24.4088
 21
46.3607
  0
LINE
  8
0
 10
24.4088
 20
46.3607
 11
24.0063
 21
46.4974
  0
LINE
  8
0
 10
24.0063
 20
46.4974
 11
23.625
 21
46.6854
  0
LINE
  8
0
 10
23.625
 20
46.6854
 11
23.2715
 21
46.9216
  0
LINE
  8
0
 10
23.2715
 20
46.9216
 11
22.9519
 21
47.2019
  0
LINE
  8
0
 10
22.9519
 20
47.2019
 11
22.7
 21
47.4892
  0
LINE
  8
0
 10
22.7
 20
47.4892
 11
22.7
 21
51.5108
  0
LINE
  8
0
 10
22.7
 20
51.5108
 11
22.9519
 21
51.7981
  0
LINE
  8
0
 10
22.9519
 20
51.7981
 11
23.2715
 21
52.0784
  0
LINE
  8
0
 10
23.2715
 20
52.0784
 11
23.625
 21
52.3146
  0
LINE
  8
0
 10
23.625
 20
52.3146
 11
24.0063
 21
52.5026
  0
LINE
  8
0
 10
24.0063
 20
52.5026
 11
24.4088
 21
52.6393
  0
LINE
  8
0
 10
24.4088
 20
52.6393
 11
24.8258
 21
52.7222
  0
LINE
  8
0
 10
24.8258
 20
52.7222
 11
25.25
 21
52.75
  0
LINE
  8
0
 10
25.25
 20
52.75
 11
25.6742
 21
52.7222
  0
LINE
  8
0
 10
25.6742
 20
52.7222
 11
26.0912
 21
52.6393
  0
LINE
  8
0
 10
26.0912
 20
52.6393
 11
26.4937
 21
52.5026
  0
LINE
  8
0
 10
26.4937
 20
52.5026
 11
26.875
 21
52.3146
  0
LINE
  8
0
 10
26.875
 20
52.3146
 11
27.2285
 21
52.0784
  0
LINE
  8
0
 10
27.2285
 20
52.0784
 11
27.5481
 21
51.7981
  0
LINE
  8
0
 10
27.5481
 20
51.7981
 11
27.8284
 21
51.4785
  0
LINE
  8
0
 10
27.8284
 20
51.4785
 11
28.0646
 21
51.125
  0
LINE
  8
0
 10
28.0646
 20
51.125
 11
28.2526
 21
50.7437
  0
LINE
  8
0
 10
28.2526
 20
50.7437
 11
28.3893
 21
50.3412
  0
LINE
  8
0
 10
28.3893
 20
50.3412
 11
28.4722
 21
49.9242
  0
LINE
  8
0
 10
28.4722
 20
49.9242
 11
28.5
 21
49.5
  0
LINE
  8
0
 10
28.5
 20
49.5
 11
28.4722
 21
49.0758
  0
LINE
  8
0
 10
28.4722
 20
49.0758
 11
28.3893
 21
48.6588
  0
LINE
  8
0
 10
28.3893
 20
48.6588
 11
28.2526
 21
48.2563
  0
LINE
  8
0
 10
28.2526
 20
48.2563
 11
28.0646
 21
47.875
  0
LINE
  8
0
 10
28.0646
 20
47.875
 11
27.8284
 21
47.5215
  0
LINE
  8
0
 10
27.8284
 20
47.5215
 11
27.5481
 21
47.2019
  0
LINE
  8
0
 10
27.5481
 20
47.2019
 11
27.2285
 21
46.9216
  0
LINE
  8
0
 10
27.2285
 20
46.9216
 11
26.875
 21
46.6854
  0
LINE
  8
0
 10
26.875
 20
46.6854
 11
26.4937
 21
46.4974
  0
LINE
  8
0
 10
26.4937
 20
46.4974
 11
26.0912
 21
46.3607
  0
LINE
  8
0
 10
26.0912
 20
46.3607
 11
25.6742
 21
46.2778
  0
LINE
  8
0
 10
25.6742
 20
46.2778
 11
25.25
 21
46.25
  0
LINE
  8
0
 10
25.25
 20
46.25
 11
24.8258
 21
46.2778
  0
LINE
  8
0
 10
6.18442
 20
48.0525
 11
5.99712
 21
48.0897
  0
LINE
  8
0
 10
5.99712
 20
48.0897
 11
5.81627
 21
48.1511
  0
LINE
  8
0
 10
5.81627
 20
48.1511
 11
5.64499
 21
48.2356
  0
LINE
  8
0
 10
5.64499
 20
48.2356
 11
5.48621
 21
48.3417
  0
LINE
  8
0
 10
5.48621
 20
48.3417
 11
5.34262
 21
48.4676
  0
LINE
  8
0
 10
5.34262
 20
48.4676
 11
5.21669
 21
48.6112
  0
LINE
  8
0
 10
5.21669
 20
48.6112
 11
5.1106
 21
48.77
  0
LINE
  8
0
 10
5.1106
 20
48.77
 11
5.02612
 21
48.9413
  0
LINE
  8
0
 10
5.02612
 20
48.9413
 11
4.96474
 21
49.1221
  0
LINE
  8
0
 10
4.96474
 20
49.1221
 11
4.92749
 21
49.3094
  0
LINE
  8
0
 10
4.92749
 20
49.3094
 11
4.91499
 21
49.5
  0
LINE
  8
0
 10
4.91499
 20
49.5
 11
4.92749
 21
49.6906
  0
LINE
  8
0
 10
4.92749
 20
49.6906
 11
4.96474
 21
49.8779
  0
LINE
  8
0
 10
4.96474
 20
49.8779
 11
5.02612
 21
50.0587
  0
LINE
  8
0
 10
5.02612
 20
50.0587
 11
5.1106
 21
50.23
  0
LINE
  8
0
 10
5.1106
 20
50.23
 11
5.21669
 21
50.3888
  0
LINE
  8
0
 10
5.21669
 20
50.3888
 11
5.34262
 21
50.5324
  0
LINE
  8
0
 10
5.34262
 20
50.5324
 11
5.48621
 21
50.6583
  0
LINE
  8
0
 10
5.48621
 20
50.6583
 11
5.64499
 21
50.7644
  0
LINE
  8
0
 10
5.64499
 20
50.7644
 11
5.81627
 21
50.8489
  0
LINE
  8
0
 10
5.81627
 20
50.8489
 11
5.99712
 21
50.9102
  0
LINE
  8
0
 10
5.99712
 20
50.9102
 11
6.18442
 21
50.9475
  0
LINE
  8
0
 10
6.18442
 20
50.9475
 11
6.375
 21
50.96
  0
LINE
  8
0
 10
6.375
 20
50.96
 11
6.56557
 21
50.9475
  0
LINE
  8
0
 10
6.56557
 20
50.9475
 11
6.75287
 21
50.9102
  0
LINE
  8
0
 10
6.75287
 20
50.9102
 11
6.93372
 21
50.8489
  0
LINE
  8
0
 10
6.93372
 20
50.8489
 11
7.105
 21
50.7644
  0
LINE
  8
0
 10
7.105
 20
50.7644
 11
7.26378
 21
50.6583
  0
LINE
  8
0
 10
7.26378
 20
50.6583
 11
7.40736
 21
50.5324
  0
LINE
  8
0
 10
7.40736
 20
50.5324
 11
7.53329
 21
50.3888
  0
LINE
  8
0
 10
7.53329
 20
50.3888
 11
7.63939
 21
50.23
  0
LINE
  8
0
 10
7.63939
 20
50.23
 11
7.72386
 21
50.0587
  0
LINE
  8
0
 10
7.72386
 20
50.0587
 11
7.78525
 21
49.8779
  0
LINE
  8
0
 10
7.78525
 20
49.8779
 11
7.82249
 21
49.6906
  0
LINE
  8
0
 10
7.82249
 20
49.6906
 11
7.83499
 21
49.5
  0
LINE
  8
0
 10
7.83499
 20
49.5
 11
7.82249
 21
49.3094
  0
LINE
  8
0
 10
7.82249
 20
49.3094
 11
7.78525
 21
49.1221
  0
LINE
  8
0
 10
7.78525
 20
49.1221
 11
7.72386
 21
48.9413
  0
LINE
  8
0
 10
7.72386
 20
48.9413
 11
7.63939
 21
48.77
  0
LINE
  8
0
 10
7.63939
 20
48.77
 11
7.53329
 21
48.6112
  0
LINE
  8
0
 10
7.53329
 20
48.6112
 11
7.40736
 21
48.4676
  0
LINE
  8
0
 10
7.40736
 20
48.4676
 11
7.26378
 21
48.3417
  0
LINE
  8
0
 10
7.26378
 20
48.3417
 11
7.105
 21
48.2356
  0
LINE
  8
0
 10
7.105
 20
48.2356
 11
6.93372
 21
48.1511
  0
LINE
  8
0
 10
6.93372
 20
48.1511
 11
6.75287
 21
48.0897
  0
LINE
  8
0
 10
6.75287
 20
48.0897
 11
6.56557
 21
48.0525
  0
LINE
  8
0
 10
6.56557
 20
48.0525
 11
6.375
 21
48.04
  0
LINE
  8
0
 10
6.375
 20
48.04
 11
6.18442
 21
48.0525
  0
LINE
  8
0
 10
15.1411
 20
33.3137
 11
14.9359
 21
33.3545
  0
LINE
  8
0
 10
14.9359
 20
33.3545
 11
14.7377
 21
33.4218
  0
LINE
  8
0
 10
14.7377
 20
33.4218
 11
14.55
 21
33.5144
  0
LINE
  8
0
 10
14.55
 20
33.5144
 11
14.376
 21
33.6306
  0
LINE
  8
0
 10
14.376
 20
33.6306
 11
14.2186
 21
33.7686
  0
LINE
  8
0
 10
14.2186
 20
33.7686
 11
14.0806
 21
33.926
  0
LINE
  8
0
 10
14.0806
 20
33.926
 11
13.9644
 21
34.1
  0
LINE
  8
0
 10
13.9644
 20
34.1
 11
13.8718
 21
34.2877
  0
LINE
  8
0
 10
13.8718
 20
34.2877
 11
13.8045
 21
34.4859
  0
LINE
  8
0
 10
13.8045
 20
34.4859
 11
13.7637
 21
34.6911
  0
LINE
  8
0
 10
13.7637
 20
34.6911
 11
13.75
 21
34.9
  0
LINE
  8
0
 10
13.75
 20
34.9
 11
13.7637
 21
35.1088
  0
LINE
  8
0
 10
13.7637
 20
35.1088
 11
13.8045
 21
35.3141
  0
LINE
  8
0
 10
13.8045
 20
35.3141
 11
13.8718
 21
35.5123
  0
LINE
  8
0
 10
13.8718
 20
35.5123
 11
13.9644
 21
35.7
  0
LINE
  8
0
 10
13.9644
 20
35.7
 11
14.0806
 21
35.874
  0
LINE
  8
0
 10
14.0806
 20
35.874
 11
14.2186
 21
36.0314
  0
LINE
  8
0
 10
14.2186
 20
36.0314
 11
14.376
 21
36.1694
  0
LINE
  8
0
 10
14.376
 20
36.1694
 11
14.55
 21
36.2856
  0
LINE
  8
0
 10
14.55
 20
36.2856
 11
14.7377
 21
36.3782
  0
LINE
  8
0
 10
14.7377
 20
36.3782
 11
14.9359
 21
36.4455
  0
LINE
  8
0
 10
14.9359
 20
36.4455
 11
15.1411
 21
36.4863
  0
LINE
  8
0
 10
15.1411
 20
36.4863
 11
15.35
 21
36.5
  0
LINE
  8
0
 10
15.35
 20
36.5
 11
15.5588
 21
36.4863
  0
LINE
  8
0
 10
15.5588
 20
36.4863
 11
15.7641
 21
36.4455
  0
LINE
  8
0
 10
15.7641
 20
36.4455
 11
15.9623
 21
36.3782
  0
LINE
  8
0
 10
15.9623
 20
36.3782
 11
16.15
 21
36.2856
  0
LINE
  8
0
 10
16.15
 20
36.2856
 11
16.324
 21
36.1694
  0
LINE
  8
0
 10
16.324
 20
36.1694
 11
16.4814
 21
36.0314
  0
LINE
  8
0
 10
16.4814
 20
36.0314
 11
16.6194
 21
35.874
  0
LINE
  8
0
 10
16.6194
 20
35.874
 11
16.7356
 21
35.7
  0
LINE
  8
0
 10
16.7356
 20
35.7
 11
16.8282
 21
35.5123
  0
LINE
  8
0
 10
16.8282
 20
35.5123
 11
16.8955
 21
35.3141
  0
LINE
  8
0
 10
16.8955
 20
35.3141
 11
16.9363
 21
35.1088
  0
LINE
  8
0
 10
16.9363
 20
35.1088
 11
16.95
 21
34.9
  0
LINE
  8
0
 10
16.95
 20
34.9
 11
16.9363
 21
34.6911
  0
LINE
  8
0
 10
16.9363
 20
34.6911
 11
16.8955
 21
34.4859
  0
LINE
  8
0
 10
16.8955
 20
34.4859
 11
16.8282
 21
34.2877
  0
LINE
  8
0
 10
16.8282
 20
34.2877
 11
16.7356
 21
34.1
  0
LINE
  8
0
 10
16.7356
 20
34.1
 11
16.6194
 21
33.926
  0
LINE
  8
0
 10
16.6194
 20
33.926
 11
16.4814
 21
33.7686
  0
LINE
  8
0
 10
16.4814
 20
33.7686
 11
16.324
 21
33.6306
  0
LINE
  8
0
 10
16.324
 20
33.6306
 11
16.15
 21
33.5144
  0
LINE
  8
0
 10
16.15
 20
33.5144
 11
15.9623
 21
33.4218
  0
LINE
  8
0
 10
15.9623
 20
33.4218
 11
15.7641
 21
33.3545
  0
LINE
  8
0
 10
15.7641
 20
33.3545
 11
15.5588
 21
33.3137
  0
LINE
  8
0
 10
15.5588
 20
33.3137
 11
15.35
 21
33.3
  0
LINE
  8
0
 10
15.35
 20
33.3
 11
15.1411
 21
33.3137
  0
LINE
  8
0
 10
23.8011
 20
13.9949
 11
22.3771
 21
14.2782
  0
LINE
  8
0
 10
22.3771
 20
14.2782
 11
21.0022
 21
14.7449
  0
LINE
  8
0
 10
21.0022
 20
14.7449
 11
19.7
 21
15.3871
  0
LINE
  8
0
 10
19.7
 20
15.3871
 11
18.4927
 21
16.1938
  0
LINE
  8
0
 10
18.4927
 20
16.1938
 11
17.4011
 21
17.1511
  0
LINE
  8
0
 10
17.4011
 20
17.1511
 11
16.4438
 21
18.2427
  0
LINE
  8
0
 10
16.4438
 20
18.2427
 11
15.6371
 21
19.45
  0
LINE
  8
0
 10
15.6371
 20
19.45
 11
14.9949
 21
20.7522
  0
LINE
  8
0
 10
14.9949
 20
20.7522
 11
14.5282
 21
22.1271
  0
LINE
  8
0
 10
14.5282
 20
22.1271
 11
14.2449
 21
23.5511
  0
LINE
  8
0
 10
14.2449
 20
23.5511
 11
14.15
 21
25
  0
LINE
  8
0
 10
14.15
 20
25
 11
14.2449
 21
26.4488
  0
LINE
  8
0
 10
14.2449
 20
26.4488
 11
14.5282
 21
27.8729
  0
LINE
  8
0
 10
14.5282
 20
27.8729
 11
14.9949
 21
29.2478
  0
LINE
  8
0
 10
14.9949
 20
29.2478
 11
15.6371
 21
30.55
  0
LINE
  8
0
 10
15.6371
 20
30.55
 11
16.4438
 21
31.7572
  0
LINE
  8
0
 10
16.4438
 20
31.7572
 11
17.4011
 21
32.8489
  0
LINE
  8
0
 10
17.4011
 20
32.8489
 11
18.4927
 21
33.8062
  0
LINE
  8
0
 10
18.4927
 20
33.8062
 11
19.7
 21
34.6129
  0
LINE
  8
0
 10
19.7
 20
34.6129
 11
21.0022
 21
35.2551
  0
LINE
  8
0
 10
21.0022
 20
35.2551
 11
22.3771
 21
35.7218
  0
LINE
  8
0
 10
22.3771
 20
35.7218
 11
23.8011
 21
36.005
  0
LINE
  8
0
 10
23.8011
 20
36.005
 11
25.25
 21
36.1
  0
LINE
  8
0
 10
25.25
 20
36.1
 11
26.6988
 21
36.005
  0
LINE
  8
0
 10
26.6988
 20
36.005
 11
28.1229
 21
35.7218
  0
LINE
  8
0
 10
28.1229
 20
35.7218
 11
29.4978
 21
35.2551
  0
LINE
  8
0
 10
29.4978
 20
35.2551
 11
30.8
 21
34.6129
  0
LINE
  8
0
 10
30.8
 20
34.6129
 11
32.0072
 21
33.8062
  0
LINE
  8
0
 10
32.0072
 20
33.8062
 11
33.0989
 21
32.8489
  0
LINE
  8
0
 10
33.0989
 20
32.8489
 11
34.0562
 21
31.7572
  0
LINE
  8
0
 10
34.0562
 20
31.7572
 11
34.8629
 21
30.55
  0
LINE
  8
0
 10
34.8629
 20
30.55
 11
35.5051
 21
29.2478
  0
LINE
  8
0
 10
35.5051
 20
29.2478
 11
35.9718
 21
27.8729
  0
LINE
  8
0
 10
35.9718
 20
27.8729
 11
36.255
 21
26.4488
  0
LINE
  8
0
 10
36.255
 20
26.4488
 11
36.35
 21
25
  0
LINE
  8
0
 10
36.35
 20
25
 11
36.255
 21
23.5511
  0
LINE
  8
0
 10
36.255
 20
23.5511
 11
35.9718
 21
22.1271
  0
LINE
  8
0
 10
35.9718
 20
22.1271
 11
35.5051
 21
20.7522
  0
LINE
  8
0
 10
35.5051
 20
20.7522
 11
34.8629
 21
19.45
  0
LINE
  8
0
 10
34.8629
 20
19.45
 11
34.0562
 21
18.2427
  0
LINE
  8
0
 10
34.0562
 20
18.2427
 11
33.0989
 21
17.1511
  0
LINE
  8
0
 10
33.0989
 20
17.1511
 11
32.0072
 21
16.1938
  0
LINE
  8
0
 10
32.0072
 20
16.1938
 11
30.8
 21
15.3871
  0
LINE
  8
0
 10
30.8
 20
15.3871
 11
29.4978
 21
14.7449
  0
LINE
  8
0
 10
29.4978
 20
14.7449
 11
28.1229
 21
14.2782
  0
LINE
  8
0
 10
28.1229
 20
14.2782
 11
26.6988
 21
13.9949
  0
LINE
  8
0
 10
26.6988
 20
13.9949
 11
25.25
 21
13.9
  0
LINE
  8
0
 10
25.25
 20
13.9
 11
23.8011
 21
13.9949
  0
LINE
  8
0
 10
34.9411
 20
13.5137
 11
34.7359
 21
13.5545
  0
LINE
  8
0
 10
34.7359
 20
13.5545
 11
34.5377
 21
13.6218
  0
LINE
  8
0
 10
34.5377
 20
13.6218
 11
34.35
 21
13.7144
  0
LINE
  8
0
 10
34.35
 20
13.7144
 11
34.176
 21
13.8306
  0
LINE
  8
0
 10
34.176
 20
13.8306
 11
34.0186
 21
13.9686
  0
LINE
  8
0
 10
34.0186
 20
13.9686
 11
33.8806
 21
14.126
  0
LINE
  8
0
 10
33.8806
 20
14.126
 11
33.7644
 21
14.3
  0
LINE
  8
0
 10
33.7644
 20
14.3
 11
33.6718
 21
14.4877
  0
LINE
  8
0
 10
33.6718
 20
14.4877
 11
33.6045
 21
14.6859
  0
LINE
  8
0
 10
33.6045
 20
14.6859
 11
33.5637
 21
14.8911
  0
LINE
  8
0
 10
33.5637
 20
14.8911
 11
33.55
 21
15.1
  0
LINE
  8
0
 10
33.55
 20
15.1
 11
33.5637
 21
15.3088
  0
LINE
  8
0
 10
33.5637
 20
15.3088
 11
33.6045
 21
15.5141
  0
LINE
  8
0
 10
33.6045
 20
15.5141
 11
33.6718
 21
15.7123
  0
LINE
  8
0
 10
33.6718
 20
15.7123
 11
33.7644
 21
15.9
  0
LINE
  8
0
 10
33.7644
 20
15.9
 11
33.8806
 21
16.074
  0
LINE
  8
0
 10
33.8806
 20
16.074
 11
34.0186
 21
16.2314
  0
LINE
  8
0
 10
34.0186
 20
16.2314
 11
34.176
 21
16.3694
  0
LINE
  8
0
 10
34.176
 20
16.3694
 11
34.35
 21
16.4856
  0
LINE
  8
0
 10
34.35
 20
16.4856
 11
34.5377
 21
16.5782
  0
LINE
  8
0
 10
34.5377
 20
16.5782
 11
34.7359
 21
16.6455
  0
LINE
  8
0
 10
34.7359
 20
16.6455
 11
34.9411
 21
16.6863
  0
LINE
  8
0
 10
34.9411
 20
16.6863
 11
35.15
 21
16.7
  0
LINE
  8
0
 10
35.15
 20
16.7
 11
35.3588
 21
16.6863
  0
LINE
  8
0
 10
35.3588
 20
16.6863
 11
35.5641
 21
16.6455
  0
LINE
  8
0
 10
35.5641
 20
16.6455
 11
35.7623
 21
16.5782
  0
LINE
  8
0
 10
35.7623
 20
16.5782
 11
35.95
 21
16.4856
  0
LINE
  8
0
 10
35.95
 20
16.4856
 11
36.124
 21
16.3694
  0
LINE
  8
0
 10
36.124
 20
16.3694
 11
36.2814
 21
16.2314
  0
LINE
  8
0
 10
36.2814
 20
16.2314
 11
36.4194
 21
16.074
  0
LINE
  8
0
 10
36.4194
 20
16.074
 11
36.5356
 21
15.9
  0
LINE
  8
0
 10
36.5356
 20
15.9
 11
36.6282
 21
15.7123
  0
LINE
  8
0
 10
36.6282
 20
15.7123
 11
36.6955
 21
15.5141
  0
LINE
  8
0
 10
36.6955
 20
15.5141
 11
36.7363
 21
15.3088
  0
LINE
  8
0
 10
36.7363
 20
15.3088
 11
36.75
 21
15.1
  0
LINE
  8
0
 10
36.75
 20
15.1
 11
36.7363
 21
14.8911
  0
LINE
  8
0
 10
36.7363
 20
14.8911
 11
36.6955
 21
14.6859
  0
LINE
  8
0
 10
36.6955
 20
14.6859
 11
36.6282
 21
14.4877
  0
LINE
  8
0
 10
36.6282
 20
14.4877
 11
36.5356
 21
14.3
  0
LINE
  8
0
 10
36.5356
 20
14.3
 11
36.4194
 21
14.126
  0
LINE
  8
0
 10
36.4194
 20
14.126
 11
36.2814
 21
13.9686
  0
LINE
  8
0
 10
36.2814
 20
13.9686
 11
36.124
 21
13.8306
  0
LINE
  8
0
 10
36.124
 20
13.8306
 11
35.95
 21
13.7144
  0
LINE
  8
0
 10
35.95
 20
13.7144
 11
35.7623
 21
13.6218
  0
LINE
  8
0
 10
35.7623
 20
13.6218
 11
35.5641
 21
13.5545
  0
LINE
  8
0
 10
35.5641
 20
13.5545
 11
35.3588
 21
13.5137
  0
LINE
  8
0
 10
35.3588
 20
13.5137
 11
35.15
 21
13.5
  0
LINE
  8
0
 10
35.15
 20
13.5
 11
34.9411
 21
13.5137
  0
LINE
  8
0
 10
6.1792
 20
13.5128
 11
5.98677
 21
13.5511
  0
LINE
  8
0
 10
5.98677
 20
13.5511
 11
5.80096
 21
13.6142
  0
LINE
  8
0
 10
5.80096
 20
13.6142
 11
5.625
 21
13.701
  0
LINE
  8
0
 10
5.625
 20
13.701
 11
5.46185
 21
13.81
  0
LINE
  8
0
 10
5.46185
 20
13.81
 11
5.31433
 21
13.9393
  0
LINE
  8
0
 10
5.31433
 20
13.9393
 11
5.18497
 21
14.0869
  0
LINE
  8
0
 10
5.18497
 20
14.0869
 11
5.07596
 21
14.25
  0
LINE
  8
0
 10
5.07596
 20
14.25
 11
4.98917
 21
14.426
  0
LINE
  8
0
 10
4.98917
 20
14.426
 11
4.9261
 21
14.6118
  0
LINE
  8
0
 10
4.9261
 20
14.6118
 11
4.88783
 21
14.8042
  0
LINE
  8
0
 10
4.88783
 20
14.8042
 11
4.875
 21
15
  0
LINE
  8
0
 10
4.875
 20
15
 11
4.88783
 21
15.1958
  0
LINE
  8
0
 10
4.88783
 20
15.1958
 11
4.9261
 21
15.3882
  0
LINE
  8
0
 10
4.9261
 20
15.3882
 11
4.98917
 21
15.574
  0
LINE
  8
0
 10
4.98917
 20
15.574
 11
5.07596
 21
15.75
  0
LINE
  8
0
 10
5.07596
 20
15.75
 11
5.18497
 21
15.9131
  0
LINE
  8
0
 10
5.18497
 20
15.9131
 11
5.31433
 21
16.0607
  0
LINE
  8
0
 10
5.31433
 20
16.0607
 11
5.46185
 21
16.19
  0
LINE
  8
0
 10
5.46185
 20
16.19
 11
5.625
 21
16.299
  0
LINE
  8
0
 10
5.625
 20
16.299
 11
5.80096
 21
16.3858
  0
LINE
  8
0
 10
5.80096
 20
16.3858
 11
5.98677
 21
16.4489
  0
LINE
  8
0
 10
5.98677
 20
16.4489
 11
6.1792
 21
16.4872
  0
LINE
  8
0
 10
6.1792
 20
16.4872
 11
6.375
 21
16.5
  0
LINE
  8
0
 10
6.375
 20
16.5
 11
6.57079
 21
16.4872
  0
LINE
  8
0
 10
6.57079
 20
16.4872
 11
6.76321
 21
16.4489
  0
LINE
  8
0
 10
6.76321
 20
16.4489
 11
6.94902
 21
16.3858
  0
LINE
  8
0
 10
6.94902
 20
16.3858
 11
7.125
 21
16.299
  0
LINE
  8
0
 10
7.125
 20
16.299
 11
7.28813
 21
16.19
  0
LINE
  8
0
 10
7.28813
 20
16.19
 11
7.43565
 21
16.0607
  0
LINE
  8
0
 10
7.43565
 20
16.0607
 11
7.56502
 21
15.9131
  0
LINE
  8
0
 10
7.56502
 20
15.9131
 11
7.67403
 21
15.75
  0
LINE
  8
0
 10
7.67403
 20
15.75
 11
7.76082
 21
15.574
  0
LINE
  8
0
 10
7.76082
 20
15.574
 11
7.82388
 21
15.3882
  0
LINE
  8
0
 10
7.82388
 20
15.3882
 11
7.86215
 21
15.1958
  0
LINE
  8
0
 10
7.86215
 20
15.1958
 11
7.875
 21
15
  0
LINE
  8
0
 10
7.875
 20
15
 11
7.86215
 21
14.8042
  0
LINE
  8
0
 10
7.86215
 20
14.8042
 11
7.82388
 21
14.6118
  0
LINE
  8
0
 10
7.82388
 20
14.6118
 11
7.76082
 21
14.426
  0
LINE
  8
0
 10
7.76082
 20
14.426
 11
7.67403
 21
14.25
  0
LINE
  8
0
 10
7.67403
 20
14.25
 11
7.56502
 21
14.0869
  0
LINE
  8
0
 10
7.56502
 20
14.0869
 11
7.43565
 21
13.9393
  0
LINE
  8
0
 10
7.43565
 20
13.9393
 11
7.28813
 21
13.81
  0
LINE
  8
0
 10
7.28813
 20
13.81
 11
7.125
 21
13.701
  0
LINE
  8
0
 10
7.125
 20
13.701
 11
6.94902
 21
13.6142
  0
LINE
  8
0
 10
6.94902
 20
13.6142
 11
6.76321
 21
13.5511
  0
LINE
  8
0
 10
6.76321
 20
13.5511
 11
6.57079
 21
13.5128
  0
LINE
  8
0
 10
6.57079
 20
13.5128
 11
6.375
 21
13.5
  0
LINE
  8
0
 10
6.375
 20
13.5
 11
6.1792
 21
13.5128
  0
LINE
  8
0
 10
43.9292
 20
13.5128
 11
43.7368
 21
13.5511
  0
LINE
  8
0
 10
43.7368
 20
13.5511
 11
43.551
 21
13.6142
  0
LINE
  8
0
 10
43.551
 20
13.6142
 11
43.375
 21
13.701
  0
LINE
  8
0
 10
43.375
 20
13.701
 11
43.2119
 21
13.81
  0
LINE
  8
0
 10
43.2119
 20
13.81
 11
43.0643
 21
13.9393
  0
LINE
  8
0
 10
43.0643
 20
13.9393
 11
42.935
 21
14.0869
  0
LINE
  8
0
 10
42.935
 20
14.0869
 11
42.826
 21
14.25
  0
LINE
  8
0
 10
42.826
 20
14.25
 11
42.7392
 21
14.426
  0
LINE
  8
0
 10
42.7392
 20
14.426
 11
42.6761
 21
14.6118
  0
LINE
  8
0
 10
42.6761
 20
14.6118
 11
42.6378
 21
14.8042
  0
LINE
  8
0
 10
42.6378
 20
14.8042
 11
42.625
 21
15
  0
LINE
  8
0
 10
42.625
 20
15
 11
42.6378
 21
15.1958
  0
LINE
  8
0
 10
42.6378
 20
15.1958
 11
42.6761
 21
15.3882
  0
LINE
  8
0
 10
42.6761
 20
15.3882
 11
42.7392
 21
15.574
  0
LINE
  8
0
 10
42.7392
 20
15.574
 11
42.826
 21
15.75
  0
LINE
  8
0
 10
42.826
 20
15.75
 11
42.935
 21
15.9131
  0
LINE
  8
0
 10
42.935
 20
15.9131
 11
43.0643
 21
16.0607
  0
LINE
  8
0
 10
43.0643
 20
16.0607
 11
43.2119
 21
16.19
  0
LINE
  8
0
 10
43.2119
 20
16.19
 11
43.375
 21
16.299
  0
LINE
  8
0
 10
43.375
 20
16.299
 11
43.551
 21
16.3858
  0
LINE
  8
0
 10
43.551
 20
16.3858
 11
43.7368
 21
16.4489
  0
LINE
  8
0
 10
43.7368
 20
16.4489
 11
43.9292
 21
16.4872
  0
LINE
  8
0
 10
43.9292
 20
16.4872
 11
44.125
 21
16.5
  0
LINE
  8
0
 10
44.125
 20
16.5
 11
44.3208
 21
16.4872
  0
LINE
  8
0
 10
44.3208
 20
16.4872
 11
44.5132
 21
16.4489
  0
LINE
  8
0
 10
44.5132
 20
16.4489
 11
44.699
 21
16.3858
  0
LINE
  8
0
 10
44.699
 20
16.3858
 11
44.875
 21
16.299
  0
LINE
  8
0
 10
44.875
 20
16.299
 11
45.0381
 21
16.19
  0
LINE
  8
0
 10
45.0381
 20
16.19
 11
45.1857
 21
16.0607
  0
LINE
  8
0
 10
45.1857
 20
16.0607
 11
45.315
 21
15.9131
  0
LINE
  8
0
 10
45.315
 20
15.9131
 11
45.424
 21
15.75
  0
LINE
  8
0
 10
45.424
 20
15.75
 11
45.5108
 21
15.574
  0
LINE
  8
0
 10
45.5108
 20
15.574
 11
45.5739
 21
15.3882
  0
LINE
  8
0
 10
45.5739
 20
15.3882
 11
45.6122
 21
15.1958
  0
LINE
  8
0
 10
45.6122
 20
15.1958
 11
45.625
 21
15
  0
LINE
  8
0
 10
45.625
 20
15
 11
45.6122
 21
14.8042
  0
LINE
  8
0
 10
45.6122
 20
14.8042
 11
45.5739
 21
14.6118
  0
LINE
  8
0
 10
45.5739
 20
14.6118
 11
45.5108
 21
14.426
  0
LINE
  8
0
 10
45.5108
 20
14.426
 11
45.424
 21
14.25
  0
LINE
  8
0
 10
45.424
 20
14.25
 11
45.315
 21
14.0869
  0
LINE
  8
0
 10
45.315
 20
14.0869
 11
45.1857
 21
13.9393
  0
LINE
  8
0
 10
45.1857
 20
13.9393
 11
45.0381
 21
13.81
  0
LINE
  8
0
 10
45.0381
 20
13.81
 11
44.875
 21
13.701
  0
LINE
  8
0
 10
44.875
 20
13.701
 11
44.699
 21
13.6142
  0
LINE
  8
0
 10
44.699
 20
13.6142
 11
44.5132
 21
13.5511
  0
LINE
  8
0
 10
44.5132
 20
13.5511
 11
44.3208
 21
13.5128
  0
LINE
  8
0
 10
44.3208
 20
13.5128
 11
44.125
 21
13.5
  0
LINE
  8
0
 10
44.125
 20
13.5
 11
43.9292
 21
13.5128
  0
LINE
  8
0
 10
41.56
 20
1.39999
 11
41.3512
 21
1.41368
  0
LINE
  8
0
 10
41.3512
 20
1.41368
 11
41.1459
 21
1.45451
  0
LINE
  8
0
 10
41.1459
 20
1.45451
 11
40.9477
 21
1.52179
  0
LINE
  8
0
 10
40.9477
 20
1.52179
 11
40.76
 21
1.61435
  0
LINE
  8
0
 10
40.76
 20
1.61435
 11
40.586
 21
1.73062
  0
LINE
  8
0
 10
40.586
 20
1.73062
 11
40.4286
 21
1.86862
  0
LINE
  8
0
 10
40.4286
 20
1.86862
 11
40.2906
 21
2.02597
  0
LINE
  8
0
 10
40.2906
 20
2.02597
 11
40.1743
 21
2.2
  0
LINE
  8
0
 10
40.1743
 20
2.2
 11
40.0818
 21
2.3877
  0
LINE
  8
0
 10
40.0818
 20
2.3877
 11
40.0145
 21
2.58588
  0
LINE
  8
0
 10
40.0145
 20
2.58588
 11
39.9737
 21
2.79115
  0
LINE
  8
0
 10
39.9737
 20
2.79115
 11
39.96
 21
3
  0
LINE
  8
0
 10
39.96
 20
3
 11
39.9737
 21
3.20883
  0
LINE
  8
0
 10
39.9737
 20
3.20883
 11
40.0145
 21
3.41411
  0
LINE
  8
0
 10
40.0145
 20
3.41411
 11
40.0818
 21
3.61229
  0
LINE
  8
0
 10
40.0818
 20
3.61229
 11
40.1743
 21
3.79999
  0
LINE
  8
0
 10
40.1743
 20
3.79999
 11
40.2906
 21
3.97401
  0
LINE
  8
0
 10
40.2906
 20
3.97401
 11
40.4286
 21
4.13136
  0
LINE
  8
0
 10
40.4286
 20
4.13136
 11
40.586
 21
4.26936
  0
LINE
  8
0
 10
40.586
 20
4.26936
 11
40.76
 21
4.38564
  0
LINE
  8
0
 10
40.76
 20
4.38564
 11
40.9477
 21
4.4782
  0
LINE
  8
0
 10
40.9477
 20
4.4782
 11
41.1459
 21
4.54547
  0
LINE
  8
0
 10
41.1459
 20
4.54547
 11
41.3512
 21
4.5863
  0
LINE
  8
0
 10
41.3512
 20
4.5863
 11
41.56
 21
4.59999
  0
LINE
  8
0
 10
41.56
 20
4.59999
 11
44.56
 21
4.59999
  0
LINE
  8
0
 10
44.56
 20
4.59999
 11
44.7688
 21
4.5863
  0
LINE
  8
0
 10
44.7688
 20
4.5863
 11
44.9741
 21
4.54547
  0
LINE
  8
0
 10
44.9741
 20
4.54547
 11
45.1723
 21
4.4782
  0
LINE
  8
0
 10
45.1723
 20
4.4782
 11
45.36
 21
4.38564
  0
LINE
  8
0
 10
45.36
 20
4.38564
 11
45.534
 21
4.26936
  0
LINE
  8
0
 10
45.534
 20
4.26936
 11
45.6914
 21
4.13136
  0
LINE
  8
0
 10
45.6914
 20
4.13136
 11
45.8294
 21
3.97401
  0
LINE
  8
0
 10
45.8294
 20
3.97401
 11
45.9456
 21
3.79999
  0
LINE
  8
0
 10
45.9456
 20
3.79999
 11
46.0382
 21
3.61229
  0
LINE
  8
0
 10
46.0382
 20
3.61229
 11
46.1055
 21
3.41411
  0
LINE
  8
0
 10
46.1055
 20
3.41411
 11
46.1463
 21
3.20883
  0
LINE
  8
0
 10
46.1463
 20
3.20883
 11
46.16
 21
3
  0
LINE
  8
0
 10
46.16
 20
3
 11
46.1463
 21
2.79115
  0
LINE
  8
0
 10
46.1463
 20
2.79115
 11
46.1055
 21
2.58588
  0
LINE
  8
0
 10
46.1055
 20
2.58588
 11
46.0382
 21
2.3877
  0
LINE
  8
0
 10
46.0382
 20
2.3877
 11
45.9456
 21
2.2
  0
LINE
  8
0
 10
45.9456
 20
2.2
 11
45.8294
 21
2.02597
  0
LINE
  8
0
 10
45.8294
 20
2.02597
 11
45.6914
 21
1.86862
  0
LINE
  8
0
 10
45.6914
 20
1.86862
 11
45.534
 21
1.73062
  0
LINE
  8
0
 10
45.534
 20
1.73062
 11
45.36
 21
1.61435
  0
LINE
  8
0
 10
45.36
 20
1.61435
 11
45.1723
 21
1.52179
  0
LINE
  8
0
 10
45.1723
 20
1.52179
 11
44.9741
 21
1.45451
  0
LINE
  8
0
 10
44.9741
 20
1.45451
 11
44.7688
 21
1.41368
  0
LINE
  8
0
 10
44.7688
 20
1.41368
 11
44.56
 21
1.39999
  0
LINE
  8
0
 10
44.56
 20
1.39999
 11
41.56
 21
1.39999
  0
LINE
  8
0
 10
6
 20
1.39999
 11
5.79115
 21
1.41368
  0
LINE
  8
0
 10
5.79115
 20
1.41368
 11
5.58588
 21
1.45451
  0
LINE
  8
0
 10
5.58588
 20
1.45451
 11
5.3877
 21
1.52179
  0
LINE
  8
0
 10
5.3877
 20
1.52179
 11
5.2
 21
1.61435
  0
LINE
  8
0
 10
5.2
 20
1.61435
 11
5.02597
 21
1.73062
  0
LINE
  8
0
 10
5.02597
 20
1.73062
 11
4.86862
 21
1.86862
  0
LINE
  8
0
 10
4.86862
 20
1.86862
 11
4.73062
 21
2.02597
  0
LINE
  8
0
 10
4.73062
 20
2.02597
 11
4.61435
 21
2.2
  0
LINE
  8
0
 10
4.61435
 20
2.2
 11
4.52179
 21
2.3877
  0
LINE
  8
0
 10
4.52179
 20
2.3877
 11
4.45451
 21
2.58588
  0
LINE
  8
0
 10
4.45451
 20
2.58588
 11
4.41368
 21
2.79115
  0
LINE
  8
0
 10
4.41368
 20
2.79115
 11
4.39999
 21
3
  0
LINE
  8
0
 10
4.39999
 20
3
 11
4.41368
 21
3.20883
  0
LINE
  8
0
 10
4.41368
 20
3.20883
 11
4.45451
 21
3.41411
  0
LINE
  8
0
 10
4.45451
 20
3.41411
 11
4.52179
 21
3.61229
  0
LINE
  8
0
 10
4.52179
 20
3.61229
 11
4.61435
 21
3.79999
  0
LINE
  8
0
 10
4.61435
 20
3.79999
 11
4.73062
 21
3.97401
  0
LINE
  8
0
 10
4.73062
 20
3.97401
 11
4.86862
 21
4.13136
  0
LINE
  8
0
 10
4.86862
 20
4.13136
 11
5.02597
 21
4.26936
  0
LINE
  8
0
 10
5.02597
 20
4.26936
 11
5.2
 21
4.38564
  0
LINE
  8
0
 10
5.2
 20
4.38564
 11
5.3877
 21
4.4782
  0
LINE
  8
0
 10
5.3877
 20
4.4782
 11
5.58588
 21
4.54547
  0
LINE
  8
0
 10
5.58588
 20
4.54547
 11
5.79115
 21
4.5863
  0
LINE
  8
0
 10
5.79115
 20
4.5863
 11
6
 21
4.59999
  0
LINE
  8
0
 10
6
 20
4.59999
 11
9
 21
4.59999
  0
LINE
  8
0
 10
9
 20
4.59999
 11
9.20883
 21
4.5863
  0
LINE
  8
0
 10
9.20883
 20
4.5863
 11
9.41411
 21
4.54547
  0
LINE
  8
0
 10
9.41411
 20
4.54547
 11
9.61229
 21
4.4782
  0
LINE
  8
0
 10
9.61229
 20
4.4782
 11
9.79999
 21
4.38564
  0
LINE
  8
0
 10
9.79999
 20
4.38564
 11
9.97401
 21
4.26936
  0
LINE
  8
0
 10
9.97401
 20
4.26936
 11
10.1314
 21
4.13136
  0
LINE
  8
0
 10
10.1314
 20
4.13136
 11
10.2694
 21
3.97401
  0
LINE
  8
0
 10
10.2694
 20
3.97401
 11
10.3856
 21
3.79999
  0
LINE
  8
0
 10
10.3856
 20
3.79999
 11
10.4782
 21
3.61229
  0
LINE
  8
0
 10
10.4782
 20
3.61229
 11
10.5455
 21
3.41411
  0
LINE
  8
0
 10
10.5455
 20
3.41411
 11
10.5863
 21
3.20883
  0
LINE
  8
0
 10
10.5863
 20
3.20883
 11
10.6
 21
3
  0
LINE
  8
0
 10
10.6
 20
3
 11
10.5863
 21
2.79115
  0
LINE
  8
0
 10
10.5863
 20
2.79115
 11
10.5455
 21
2.58588
  0
LINE
  8
0
 10
10.5455
 20
2.58588
 11
10.4782
 21
2.3877
  0
LINE
  8
0
 10
10.4782
 20
2.3877
 11
10.3856
 21
2.2
  0
LINE
  8
0
 10
10.3856
 20
2.2
 11
10.2694
 21
2.02597
  0
LINE
  8
0
 10
10.2694
 20
2.02597
 11
10.1314
 21
1.86862
  0
LINE
  8
0
 10
10.1314
 20
1.86862
 11
9.97401
 21
1.73062
  0
LINE
  8
0
 10
9.97401
 20
1.73062
 11
9.79999
 21
1.61435
  0
LINE
  8
0
 10
9.79999
 20
1.61435
 11
9.61229
 21
1.52179
  0
LINE
  8
0
 10
9.61229
 20
1.52179
 11
9.41411
 21
1.45451
  0
LINE
  8
0
 10
9.41411
 20
1.45451
 11
9.20883
 21
1.41368
  0
LINE
  8
0
 10
9.20883
 20
1.41368
 11
9
 21
1.39999
  0
LINE
  8
0
 10
9
 20
1.39999
 11
6
 21
1.39999
  0
ENDSEC
  0
SECTION
  2
OBJECTS
  0
DICTIONARY
  0
ENDSEC
  0
EOF
