%TF.GenerationSoftware,KiCad,Pcbnew,9.0.9-9.0.9~ubuntu24.04.1*%
%TF.CreationDate,2026-09-29T20:16:32+00:00*%
%TF.ProjectId,key-board-rh,6b65792d-626f-4617-9264-2d72682e6b69,A*%
%TF.SameCoordinates,Original*%
%TF.FileFunction,Legend,Top*%
%TF.FilePolarity,Positive*%
%FSLAX46Y46*%
G04 Gerber Fmt 4.6, Leading zero omitted, Abs format (unit mm)*
G04 Created by KiCad (PCBNEW 9.0.9-9.0.9~ubuntu24.04.1) date 2026-09-29 20:16:32*
%MOMM*%
%LPD*%
G01*
G04 APERTURE LIST*
%ADD10C,0.180000*%
%ADD11C,0.390000*%
G04 APERTURE END LIST*
D10*
X206950000Y-122100000D02*
X205750000Y-121500000D01*
X206950000Y-120900000D01*
X206950000Y-122100000D01*
G36*
X206950000Y-122100000D02*
G01*
X205750000Y-121500000D01*
X206950000Y-120900000D01*
X206950000Y-122100000D01*
G37*
X233739999Y-107985000D02*
X232540000Y-108585000D01*
X232540000Y-107385000D01*
X233739999Y-107985000D01*
G36*
X233739999Y-107985000D02*
G01*
X232540000Y-108585000D01*
X232540000Y-107385000D01*
X233739999Y-107985000D01*
G37*
D11*
X228105000Y-111160000D02*
G75*
G02*
X227715000Y-111160000I-195000J0D01*
G01*
X227715000Y-111160000D02*
G75*
G02*
X228105000Y-111160000I195000J0D01*
G01*
D10*
X236261278Y-103453259D02*
X236499373Y-104453259D01*
X236499373Y-104453259D02*
X236689849Y-103738973D01*
X236689849Y-103738973D02*
X236880325Y-104453259D01*
X236880325Y-104453259D02*
X237118421Y-103453259D01*
X237689849Y-103453259D02*
X237880325Y-103453259D01*
X237880325Y-103453259D02*
X237975563Y-103500878D01*
X237975563Y-103500878D02*
X238070801Y-103596116D01*
X238070801Y-103596116D02*
X238118420Y-103786592D01*
X238118420Y-103786592D02*
X238118420Y-104119925D01*
X238118420Y-104119925D02*
X238070801Y-104310401D01*
X238070801Y-104310401D02*
X237975563Y-104405640D01*
X237975563Y-104405640D02*
X237880325Y-104453259D01*
X237880325Y-104453259D02*
X237689849Y-104453259D01*
X237689849Y-104453259D02*
X237594611Y-104405640D01*
X237594611Y-104405640D02*
X237499373Y-104310401D01*
X237499373Y-104310401D02*
X237451754Y-104119925D01*
X237451754Y-104119925D02*
X237451754Y-103786592D01*
X237451754Y-103786592D02*
X237499373Y-103596116D01*
X237499373Y-103596116D02*
X237594611Y-103500878D01*
X237594611Y-103500878D02*
X237689849Y-103453259D01*
X238737468Y-103453259D02*
X238927944Y-103453259D01*
X238927944Y-103453259D02*
X239023182Y-103500878D01*
X239023182Y-103500878D02*
X239118420Y-103596116D01*
X239118420Y-103596116D02*
X239166039Y-103786592D01*
X239166039Y-103786592D02*
X239166039Y-104119925D01*
X239166039Y-104119925D02*
X239118420Y-104310401D01*
X239118420Y-104310401D02*
X239023182Y-104405640D01*
X239023182Y-104405640D02*
X238927944Y-104453259D01*
X238927944Y-104453259D02*
X238737468Y-104453259D01*
X238737468Y-104453259D02*
X238642230Y-104405640D01*
X238642230Y-104405640D02*
X238546992Y-104310401D01*
X238546992Y-104310401D02*
X238499373Y-104119925D01*
X238499373Y-104119925D02*
X238499373Y-103786592D01*
X238499373Y-103786592D02*
X238546992Y-103596116D01*
X238546992Y-103596116D02*
X238642230Y-103500878D01*
X238642230Y-103500878D02*
X238737468Y-103453259D01*
X239594611Y-104453259D02*
X239594611Y-103453259D01*
X239594611Y-103453259D02*
X239832706Y-103453259D01*
X239832706Y-103453259D02*
X239975563Y-103500878D01*
X239975563Y-103500878D02*
X240070801Y-103596116D01*
X240070801Y-103596116D02*
X240118420Y-103691354D01*
X240118420Y-103691354D02*
X240166039Y-103881830D01*
X240166039Y-103881830D02*
X240166039Y-104024687D01*
X240166039Y-104024687D02*
X240118420Y-104215163D01*
X240118420Y-104215163D02*
X240070801Y-104310401D01*
X240070801Y-104310401D02*
X239975563Y-104405640D01*
X239975563Y-104405640D02*
X239832706Y-104453259D01*
X239832706Y-104453259D02*
X239594611Y-104453259D01*
X240785087Y-103977068D02*
X240785087Y-104453259D01*
X240451754Y-103453259D02*
X240785087Y-103977068D01*
X240785087Y-103977068D02*
X241118420Y-103453259D01*
X242213659Y-104453259D02*
X242213659Y-103453259D01*
X242308897Y-104072306D02*
X242594611Y-104453259D01*
X242594611Y-103786592D02*
X242213659Y-104167544D01*
X243404135Y-104405640D02*
X243308897Y-104453259D01*
X243308897Y-104453259D02*
X243118421Y-104453259D01*
X243118421Y-104453259D02*
X243023183Y-104405640D01*
X243023183Y-104405640D02*
X242975564Y-104310401D01*
X242975564Y-104310401D02*
X242975564Y-103929449D01*
X242975564Y-103929449D02*
X243023183Y-103834211D01*
X243023183Y-103834211D02*
X243118421Y-103786592D01*
X243118421Y-103786592D02*
X243308897Y-103786592D01*
X243308897Y-103786592D02*
X243404135Y-103834211D01*
X243404135Y-103834211D02*
X243451754Y-103929449D01*
X243451754Y-103929449D02*
X243451754Y-104024687D01*
X243451754Y-104024687D02*
X242975564Y-104119925D01*
X243785088Y-103786592D02*
X244023183Y-104453259D01*
X244261278Y-103786592D02*
X244023183Y-104453259D01*
X244023183Y-104453259D02*
X243927945Y-104691354D01*
X243927945Y-104691354D02*
X243880326Y-104738973D01*
X243880326Y-104738973D02*
X243785088Y-104786592D01*
X245404136Y-104453259D02*
X245404136Y-103453259D01*
X245404136Y-103834211D02*
X245499374Y-103786592D01*
X245499374Y-103786592D02*
X245689850Y-103786592D01*
X245689850Y-103786592D02*
X245785088Y-103834211D01*
X245785088Y-103834211D02*
X245832707Y-103881830D01*
X245832707Y-103881830D02*
X245880326Y-103977068D01*
X245880326Y-103977068D02*
X245880326Y-104262782D01*
X245880326Y-104262782D02*
X245832707Y-104358020D01*
X245832707Y-104358020D02*
X245785088Y-104405640D01*
X245785088Y-104405640D02*
X245689850Y-104453259D01*
X245689850Y-104453259D02*
X245499374Y-104453259D01*
X245499374Y-104453259D02*
X245404136Y-104405640D01*
X246451755Y-104453259D02*
X246356517Y-104405640D01*
X246356517Y-104405640D02*
X246308898Y-104358020D01*
X246308898Y-104358020D02*
X246261279Y-104262782D01*
X246261279Y-104262782D02*
X246261279Y-103977068D01*
X246261279Y-103977068D02*
X246308898Y-103881830D01*
X246308898Y-103881830D02*
X246356517Y-103834211D01*
X246356517Y-103834211D02*
X246451755Y-103786592D01*
X246451755Y-103786592D02*
X246594612Y-103786592D01*
X246594612Y-103786592D02*
X246689850Y-103834211D01*
X246689850Y-103834211D02*
X246737469Y-103881830D01*
X246737469Y-103881830D02*
X246785088Y-103977068D01*
X246785088Y-103977068D02*
X246785088Y-104262782D01*
X246785088Y-104262782D02*
X246737469Y-104358020D01*
X246737469Y-104358020D02*
X246689850Y-104405640D01*
X246689850Y-104405640D02*
X246594612Y-104453259D01*
X246594612Y-104453259D02*
X246451755Y-104453259D01*
X247642231Y-104453259D02*
X247642231Y-103929449D01*
X247642231Y-103929449D02*
X247594612Y-103834211D01*
X247594612Y-103834211D02*
X247499374Y-103786592D01*
X247499374Y-103786592D02*
X247308898Y-103786592D01*
X247308898Y-103786592D02*
X247213660Y-103834211D01*
X247642231Y-104405640D02*
X247546993Y-104453259D01*
X247546993Y-104453259D02*
X247308898Y-104453259D01*
X247308898Y-104453259D02*
X247213660Y-104405640D01*
X247213660Y-104405640D02*
X247166041Y-104310401D01*
X247166041Y-104310401D02*
X247166041Y-104215163D01*
X247166041Y-104215163D02*
X247213660Y-104119925D01*
X247213660Y-104119925D02*
X247308898Y-104072306D01*
X247308898Y-104072306D02*
X247546993Y-104072306D01*
X247546993Y-104072306D02*
X247642231Y-104024687D01*
X248118422Y-104453259D02*
X248118422Y-103786592D01*
X248118422Y-103977068D02*
X248166041Y-103881830D01*
X248166041Y-103881830D02*
X248213660Y-103834211D01*
X248213660Y-103834211D02*
X248308898Y-103786592D01*
X248308898Y-103786592D02*
X248404136Y-103786592D01*
X249166041Y-104453259D02*
X249166041Y-103453259D01*
X249166041Y-104405640D02*
X249070803Y-104453259D01*
X249070803Y-104453259D02*
X248880327Y-104453259D01*
X248880327Y-104453259D02*
X248785089Y-104405640D01*
X248785089Y-104405640D02*
X248737470Y-104358020D01*
X248737470Y-104358020D02*
X248689851Y-104262782D01*
X248689851Y-104262782D02*
X248689851Y-103977068D01*
X248689851Y-103977068D02*
X248737470Y-103881830D01*
X248737470Y-103881830D02*
X248785089Y-103834211D01*
X248785089Y-103834211D02*
X248880327Y-103786592D01*
X248880327Y-103786592D02*
X249070803Y-103786592D01*
X249070803Y-103786592D02*
X249166041Y-103834211D01*
X250975565Y-104453259D02*
X250642232Y-103977068D01*
X250404137Y-104453259D02*
X250404137Y-103453259D01*
X250404137Y-103453259D02*
X250785089Y-103453259D01*
X250785089Y-103453259D02*
X250880327Y-103500878D01*
X250880327Y-103500878D02*
X250927946Y-103548497D01*
X250927946Y-103548497D02*
X250975565Y-103643735D01*
X250975565Y-103643735D02*
X250975565Y-103786592D01*
X250975565Y-103786592D02*
X250927946Y-103881830D01*
X250927946Y-103881830D02*
X250880327Y-103929449D01*
X250880327Y-103929449D02*
X250785089Y-103977068D01*
X250785089Y-103977068D02*
X250404137Y-103977068D01*
X251404137Y-104453259D02*
X251404137Y-103453259D01*
X251404137Y-103929449D02*
X251975565Y-103929449D01*
X251975565Y-104453259D02*
X251975565Y-103453259D01*
X236356516Y-106253259D02*
X236356516Y-105586592D01*
X236356516Y-105777068D02*
X236404135Y-105681830D01*
X236404135Y-105681830D02*
X236451754Y-105634211D01*
X236451754Y-105634211D02*
X236546992Y-105586592D01*
X236546992Y-105586592D02*
X236642230Y-105586592D01*
X237356516Y-106205640D02*
X237261278Y-106253259D01*
X237261278Y-106253259D02*
X237070802Y-106253259D01*
X237070802Y-106253259D02*
X236975564Y-106205640D01*
X236975564Y-106205640D02*
X236927945Y-106110401D01*
X236927945Y-106110401D02*
X236927945Y-105729449D01*
X236927945Y-105729449D02*
X236975564Y-105634211D01*
X236975564Y-105634211D02*
X237070802Y-105586592D01*
X237070802Y-105586592D02*
X237261278Y-105586592D01*
X237261278Y-105586592D02*
X237356516Y-105634211D01*
X237356516Y-105634211D02*
X237404135Y-105729449D01*
X237404135Y-105729449D02*
X237404135Y-105824687D01*
X237404135Y-105824687D02*
X236927945Y-105919925D01*
X237737469Y-105586592D02*
X237975564Y-106253259D01*
X237975564Y-106253259D02*
X238213659Y-105586592D01*
X239308898Y-105967544D02*
X239785088Y-105967544D01*
X239213660Y-106253259D02*
X239546993Y-105253259D01*
X239546993Y-105253259D02*
X239880326Y-106253259D01*
X241689851Y-105348497D02*
X241737470Y-105300878D01*
X241737470Y-105300878D02*
X241832708Y-105253259D01*
X241832708Y-105253259D02*
X242070803Y-105253259D01*
X242070803Y-105253259D02*
X242166041Y-105300878D01*
X242166041Y-105300878D02*
X242213660Y-105348497D01*
X242213660Y-105348497D02*
X242261279Y-105443735D01*
X242261279Y-105443735D02*
X242261279Y-105538973D01*
X242261279Y-105538973D02*
X242213660Y-105681830D01*
X242213660Y-105681830D02*
X241642232Y-106253259D01*
X241642232Y-106253259D02*
X242261279Y-106253259D01*
X242880327Y-105253259D02*
X242975565Y-105253259D01*
X242975565Y-105253259D02*
X243070803Y-105300878D01*
X243070803Y-105300878D02*
X243118422Y-105348497D01*
X243118422Y-105348497D02*
X243166041Y-105443735D01*
X243166041Y-105443735D02*
X243213660Y-105634211D01*
X243213660Y-105634211D02*
X243213660Y-105872306D01*
X243213660Y-105872306D02*
X243166041Y-106062782D01*
X243166041Y-106062782D02*
X243118422Y-106158020D01*
X243118422Y-106158020D02*
X243070803Y-106205640D01*
X243070803Y-106205640D02*
X242975565Y-106253259D01*
X242975565Y-106253259D02*
X242880327Y-106253259D01*
X242880327Y-106253259D02*
X242785089Y-106205640D01*
X242785089Y-106205640D02*
X242737470Y-106158020D01*
X242737470Y-106158020D02*
X242689851Y-106062782D01*
X242689851Y-106062782D02*
X242642232Y-105872306D01*
X242642232Y-105872306D02*
X242642232Y-105634211D01*
X242642232Y-105634211D02*
X242689851Y-105443735D01*
X242689851Y-105443735D02*
X242737470Y-105348497D01*
X242737470Y-105348497D02*
X242785089Y-105300878D01*
X242785089Y-105300878D02*
X242880327Y-105253259D01*
X243594613Y-105348497D02*
X243642232Y-105300878D01*
X243642232Y-105300878D02*
X243737470Y-105253259D01*
X243737470Y-105253259D02*
X243975565Y-105253259D01*
X243975565Y-105253259D02*
X244070803Y-105300878D01*
X244070803Y-105300878D02*
X244118422Y-105348497D01*
X244118422Y-105348497D02*
X244166041Y-105443735D01*
X244166041Y-105443735D02*
X244166041Y-105538973D01*
X244166041Y-105538973D02*
X244118422Y-105681830D01*
X244118422Y-105681830D02*
X243546994Y-106253259D01*
X243546994Y-106253259D02*
X244166041Y-106253259D01*
X245023184Y-105253259D02*
X244832708Y-105253259D01*
X244832708Y-105253259D02*
X244737470Y-105300878D01*
X244737470Y-105300878D02*
X244689851Y-105348497D01*
X244689851Y-105348497D02*
X244594613Y-105491354D01*
X244594613Y-105491354D02*
X244546994Y-105681830D01*
X244546994Y-105681830D02*
X244546994Y-106062782D01*
X244546994Y-106062782D02*
X244594613Y-106158020D01*
X244594613Y-106158020D02*
X244642232Y-106205640D01*
X244642232Y-106205640D02*
X244737470Y-106253259D01*
X244737470Y-106253259D02*
X244927946Y-106253259D01*
X244927946Y-106253259D02*
X245023184Y-106205640D01*
X245023184Y-106205640D02*
X245070803Y-106158020D01*
X245070803Y-106158020D02*
X245118422Y-106062782D01*
X245118422Y-106062782D02*
X245118422Y-105824687D01*
X245118422Y-105824687D02*
X245070803Y-105729449D01*
X245070803Y-105729449D02*
X245023184Y-105681830D01*
X245023184Y-105681830D02*
X244927946Y-105634211D01*
X244927946Y-105634211D02*
X244737470Y-105634211D01*
X244737470Y-105634211D02*
X244642232Y-105681830D01*
X244642232Y-105681830D02*
X244594613Y-105729449D01*
X244594613Y-105729449D02*
X244546994Y-105824687D01*
X245546994Y-105872306D02*
X246308899Y-105872306D01*
X246975565Y-105253259D02*
X247070803Y-105253259D01*
X247070803Y-105253259D02*
X247166041Y-105300878D01*
X247166041Y-105300878D02*
X247213660Y-105348497D01*
X247213660Y-105348497D02*
X247261279Y-105443735D01*
X247261279Y-105443735D02*
X247308898Y-105634211D01*
X247308898Y-105634211D02*
X247308898Y-105872306D01*
X247308898Y-105872306D02*
X247261279Y-106062782D01*
X247261279Y-106062782D02*
X247213660Y-106158020D01*
X247213660Y-106158020D02*
X247166041Y-106205640D01*
X247166041Y-106205640D02*
X247070803Y-106253259D01*
X247070803Y-106253259D02*
X246975565Y-106253259D01*
X246975565Y-106253259D02*
X246880327Y-106205640D01*
X246880327Y-106205640D02*
X246832708Y-106158020D01*
X246832708Y-106158020D02*
X246785089Y-106062782D01*
X246785089Y-106062782D02*
X246737470Y-105872306D01*
X246737470Y-105872306D02*
X246737470Y-105634211D01*
X246737470Y-105634211D02*
X246785089Y-105443735D01*
X246785089Y-105443735D02*
X246832708Y-105348497D01*
X246832708Y-105348497D02*
X246880327Y-105300878D01*
X246880327Y-105300878D02*
X246975565Y-105253259D01*
X247785089Y-106253259D02*
X247975565Y-106253259D01*
X247975565Y-106253259D02*
X248070803Y-106205640D01*
X248070803Y-106205640D02*
X248118422Y-106158020D01*
X248118422Y-106158020D02*
X248213660Y-106015163D01*
X248213660Y-106015163D02*
X248261279Y-105824687D01*
X248261279Y-105824687D02*
X248261279Y-105443735D01*
X248261279Y-105443735D02*
X248213660Y-105348497D01*
X248213660Y-105348497D02*
X248166041Y-105300878D01*
X248166041Y-105300878D02*
X248070803Y-105253259D01*
X248070803Y-105253259D02*
X247880327Y-105253259D01*
X247880327Y-105253259D02*
X247785089Y-105300878D01*
X247785089Y-105300878D02*
X247737470Y-105348497D01*
X247737470Y-105348497D02*
X247689851Y-105443735D01*
X247689851Y-105443735D02*
X247689851Y-105681830D01*
X247689851Y-105681830D02*
X247737470Y-105777068D01*
X247737470Y-105777068D02*
X247785089Y-105824687D01*
X247785089Y-105824687D02*
X247880327Y-105872306D01*
X247880327Y-105872306D02*
X248070803Y-105872306D01*
X248070803Y-105872306D02*
X248166041Y-105824687D01*
X248166041Y-105824687D02*
X248213660Y-105777068D01*
X248213660Y-105777068D02*
X248261279Y-105681830D01*
X248689851Y-105872306D02*
X249451756Y-105872306D01*
X249880327Y-105348497D02*
X249927946Y-105300878D01*
X249927946Y-105300878D02*
X250023184Y-105253259D01*
X250023184Y-105253259D02*
X250261279Y-105253259D01*
X250261279Y-105253259D02*
X250356517Y-105300878D01*
X250356517Y-105300878D02*
X250404136Y-105348497D01*
X250404136Y-105348497D02*
X250451755Y-105443735D01*
X250451755Y-105443735D02*
X250451755Y-105538973D01*
X250451755Y-105538973D02*
X250404136Y-105681830D01*
X250404136Y-105681830D02*
X249832708Y-106253259D01*
X249832708Y-106253259D02*
X250451755Y-106253259D01*
X251023184Y-105681830D02*
X250927946Y-105634211D01*
X250927946Y-105634211D02*
X250880327Y-105586592D01*
X250880327Y-105586592D02*
X250832708Y-105491354D01*
X250832708Y-105491354D02*
X250832708Y-105443735D01*
X250832708Y-105443735D02*
X250880327Y-105348497D01*
X250880327Y-105348497D02*
X250927946Y-105300878D01*
X250927946Y-105300878D02*
X251023184Y-105253259D01*
X251023184Y-105253259D02*
X251213660Y-105253259D01*
X251213660Y-105253259D02*
X251308898Y-105300878D01*
X251308898Y-105300878D02*
X251356517Y-105348497D01*
X251356517Y-105348497D02*
X251404136Y-105443735D01*
X251404136Y-105443735D02*
X251404136Y-105491354D01*
X251404136Y-105491354D02*
X251356517Y-105586592D01*
X251356517Y-105586592D02*
X251308898Y-105634211D01*
X251308898Y-105634211D02*
X251213660Y-105681830D01*
X251213660Y-105681830D02*
X251023184Y-105681830D01*
X251023184Y-105681830D02*
X250927946Y-105729449D01*
X250927946Y-105729449D02*
X250880327Y-105777068D01*
X250880327Y-105777068D02*
X250832708Y-105872306D01*
X250832708Y-105872306D02*
X250832708Y-106062782D01*
X250832708Y-106062782D02*
X250880327Y-106158020D01*
X250880327Y-106158020D02*
X250927946Y-106205640D01*
X250927946Y-106205640D02*
X251023184Y-106253259D01*
X251023184Y-106253259D02*
X251213660Y-106253259D01*
X251213660Y-106253259D02*
X251308898Y-106205640D01*
X251308898Y-106205640D02*
X251356517Y-106158020D01*
X251356517Y-106158020D02*
X251404136Y-106062782D01*
X251404136Y-106062782D02*
X251404136Y-105872306D01*
X251404136Y-105872306D02*
X251356517Y-105777068D01*
X251356517Y-105777068D02*
X251308898Y-105729449D01*
X251308898Y-105729449D02*
X251213660Y-105681830D01*
X214785714Y-113360640D02*
X214928571Y-113408259D01*
X214928571Y-113408259D02*
X215166666Y-113408259D01*
X215166666Y-113408259D02*
X215261904Y-113360640D01*
X215261904Y-113360640D02*
X215309523Y-113313020D01*
X215309523Y-113313020D02*
X215357142Y-113217782D01*
X215357142Y-113217782D02*
X215357142Y-113122544D01*
X215357142Y-113122544D02*
X215309523Y-113027306D01*
X215309523Y-113027306D02*
X215261904Y-112979687D01*
X215261904Y-112979687D02*
X215166666Y-112932068D01*
X215166666Y-112932068D02*
X214976190Y-112884449D01*
X214976190Y-112884449D02*
X214880952Y-112836830D01*
X214880952Y-112836830D02*
X214833333Y-112789211D01*
X214833333Y-112789211D02*
X214785714Y-112693973D01*
X214785714Y-112693973D02*
X214785714Y-112598735D01*
X214785714Y-112598735D02*
X214833333Y-112503497D01*
X214833333Y-112503497D02*
X214880952Y-112455878D01*
X214880952Y-112455878D02*
X214976190Y-112408259D01*
X214976190Y-112408259D02*
X215214285Y-112408259D01*
X215214285Y-112408259D02*
X215357142Y-112455878D01*
X215690476Y-112408259D02*
X215928571Y-113408259D01*
X215928571Y-113408259D02*
X216119047Y-112693973D01*
X216119047Y-112693973D02*
X216309523Y-113408259D01*
X216309523Y-113408259D02*
X216547619Y-112408259D01*
X217452380Y-113408259D02*
X216880952Y-113408259D01*
X217166666Y-113408259D02*
X217166666Y-112408259D01*
X217166666Y-112408259D02*
X217071428Y-112551116D01*
X217071428Y-112551116D02*
X216976190Y-112646354D01*
X216976190Y-112646354D02*
X216880952Y-112693973D01*
X219214285Y-113408259D02*
X218880952Y-112932068D01*
X218642857Y-113408259D02*
X218642857Y-112408259D01*
X218642857Y-112408259D02*
X219023809Y-112408259D01*
X219023809Y-112408259D02*
X219119047Y-112455878D01*
X219119047Y-112455878D02*
X219166666Y-112503497D01*
X219166666Y-112503497D02*
X219214285Y-112598735D01*
X219214285Y-112598735D02*
X219214285Y-112741592D01*
X219214285Y-112741592D02*
X219166666Y-112836830D01*
X219166666Y-112836830D02*
X219119047Y-112884449D01*
X219119047Y-112884449D02*
X219023809Y-112932068D01*
X219023809Y-112932068D02*
X218642857Y-112932068D01*
X219642857Y-113408259D02*
X219642857Y-112408259D01*
X219642857Y-112884449D02*
X220214285Y-112884449D01*
X220214285Y-113408259D02*
X220214285Y-112408259D01*
X221214285Y-113408259D02*
X220642857Y-113408259D01*
X220928571Y-113408259D02*
X220928571Y-112408259D01*
X220928571Y-112408259D02*
X220833333Y-112551116D01*
X220833333Y-112551116D02*
X220738095Y-112646354D01*
X220738095Y-112646354D02*
X220642857Y-112693973D01*
X229941666Y-102713259D02*
X229941666Y-103427544D01*
X229941666Y-103427544D02*
X229894047Y-103570401D01*
X229894047Y-103570401D02*
X229798809Y-103665640D01*
X229798809Y-103665640D02*
X229655952Y-103713259D01*
X229655952Y-103713259D02*
X229560714Y-103713259D01*
X230941666Y-103713259D02*
X230370238Y-103713259D01*
X230655952Y-103713259D02*
X230655952Y-102713259D01*
X230655952Y-102713259D02*
X230560714Y-102856116D01*
X230560714Y-102856116D02*
X230465476Y-102951354D01*
X230465476Y-102951354D02*
X230370238Y-102998973D01*
X234785714Y-113360640D02*
X234928571Y-113408259D01*
X234928571Y-113408259D02*
X235166666Y-113408259D01*
X235166666Y-113408259D02*
X235261904Y-113360640D01*
X235261904Y-113360640D02*
X235309523Y-113313020D01*
X235309523Y-113313020D02*
X235357142Y-113217782D01*
X235357142Y-113217782D02*
X235357142Y-113122544D01*
X235357142Y-113122544D02*
X235309523Y-113027306D01*
X235309523Y-113027306D02*
X235261904Y-112979687D01*
X235261904Y-112979687D02*
X235166666Y-112932068D01*
X235166666Y-112932068D02*
X234976190Y-112884449D01*
X234976190Y-112884449D02*
X234880952Y-112836830D01*
X234880952Y-112836830D02*
X234833333Y-112789211D01*
X234833333Y-112789211D02*
X234785714Y-112693973D01*
X234785714Y-112693973D02*
X234785714Y-112598735D01*
X234785714Y-112598735D02*
X234833333Y-112503497D01*
X234833333Y-112503497D02*
X234880952Y-112455878D01*
X234880952Y-112455878D02*
X234976190Y-112408259D01*
X234976190Y-112408259D02*
X235214285Y-112408259D01*
X235214285Y-112408259D02*
X235357142Y-112455878D01*
X235690476Y-112408259D02*
X235928571Y-113408259D01*
X235928571Y-113408259D02*
X236119047Y-112693973D01*
X236119047Y-112693973D02*
X236309523Y-113408259D01*
X236309523Y-113408259D02*
X236547619Y-112408259D01*
X236880952Y-112503497D02*
X236928571Y-112455878D01*
X236928571Y-112455878D02*
X237023809Y-112408259D01*
X237023809Y-112408259D02*
X237261904Y-112408259D01*
X237261904Y-112408259D02*
X237357142Y-112455878D01*
X237357142Y-112455878D02*
X237404761Y-112503497D01*
X237404761Y-112503497D02*
X237452380Y-112598735D01*
X237452380Y-112598735D02*
X237452380Y-112693973D01*
X237452380Y-112693973D02*
X237404761Y-112836830D01*
X237404761Y-112836830D02*
X236833333Y-113408259D01*
X236833333Y-113408259D02*
X237452380Y-113408259D01*
X239214285Y-113408259D02*
X238880952Y-112932068D01*
X238642857Y-113408259D02*
X238642857Y-112408259D01*
X238642857Y-112408259D02*
X239023809Y-112408259D01*
X239023809Y-112408259D02*
X239119047Y-112455878D01*
X239119047Y-112455878D02*
X239166666Y-112503497D01*
X239166666Y-112503497D02*
X239214285Y-112598735D01*
X239214285Y-112598735D02*
X239214285Y-112741592D01*
X239214285Y-112741592D02*
X239166666Y-112836830D01*
X239166666Y-112836830D02*
X239119047Y-112884449D01*
X239119047Y-112884449D02*
X239023809Y-112932068D01*
X239023809Y-112932068D02*
X238642857Y-112932068D01*
X239642857Y-113408259D02*
X239642857Y-112408259D01*
X239642857Y-112884449D02*
X240214285Y-112884449D01*
X240214285Y-113408259D02*
X240214285Y-112408259D01*
X240642857Y-112503497D02*
X240690476Y-112455878D01*
X240690476Y-112455878D02*
X240785714Y-112408259D01*
X240785714Y-112408259D02*
X241023809Y-112408259D01*
X241023809Y-112408259D02*
X241119047Y-112455878D01*
X241119047Y-112455878D02*
X241166666Y-112503497D01*
X241166666Y-112503497D02*
X241214285Y-112598735D01*
X241214285Y-112598735D02*
X241214285Y-112693973D01*
X241214285Y-112693973D02*
X241166666Y-112836830D01*
X241166666Y-112836830D02*
X240595238Y-113408259D01*
X240595238Y-113408259D02*
X241214285Y-113408259D01*
X254785714Y-113360640D02*
X254928571Y-113408259D01*
X254928571Y-113408259D02*
X255166666Y-113408259D01*
X255166666Y-113408259D02*
X255261904Y-113360640D01*
X255261904Y-113360640D02*
X255309523Y-113313020D01*
X255309523Y-113313020D02*
X255357142Y-113217782D01*
X255357142Y-113217782D02*
X255357142Y-113122544D01*
X255357142Y-113122544D02*
X255309523Y-113027306D01*
X255309523Y-113027306D02*
X255261904Y-112979687D01*
X255261904Y-112979687D02*
X255166666Y-112932068D01*
X255166666Y-112932068D02*
X254976190Y-112884449D01*
X254976190Y-112884449D02*
X254880952Y-112836830D01*
X254880952Y-112836830D02*
X254833333Y-112789211D01*
X254833333Y-112789211D02*
X254785714Y-112693973D01*
X254785714Y-112693973D02*
X254785714Y-112598735D01*
X254785714Y-112598735D02*
X254833333Y-112503497D01*
X254833333Y-112503497D02*
X254880952Y-112455878D01*
X254880952Y-112455878D02*
X254976190Y-112408259D01*
X254976190Y-112408259D02*
X255214285Y-112408259D01*
X255214285Y-112408259D02*
X255357142Y-112455878D01*
X255690476Y-112408259D02*
X255928571Y-113408259D01*
X255928571Y-113408259D02*
X256119047Y-112693973D01*
X256119047Y-112693973D02*
X256309523Y-113408259D01*
X256309523Y-113408259D02*
X256547619Y-112408259D01*
X256833333Y-112408259D02*
X257452380Y-112408259D01*
X257452380Y-112408259D02*
X257119047Y-112789211D01*
X257119047Y-112789211D02*
X257261904Y-112789211D01*
X257261904Y-112789211D02*
X257357142Y-112836830D01*
X257357142Y-112836830D02*
X257404761Y-112884449D01*
X257404761Y-112884449D02*
X257452380Y-112979687D01*
X257452380Y-112979687D02*
X257452380Y-113217782D01*
X257452380Y-113217782D02*
X257404761Y-113313020D01*
X257404761Y-113313020D02*
X257357142Y-113360640D01*
X257357142Y-113360640D02*
X257261904Y-113408259D01*
X257261904Y-113408259D02*
X256976190Y-113408259D01*
X256976190Y-113408259D02*
X256880952Y-113360640D01*
X256880952Y-113360640D02*
X256833333Y-113313020D01*
X259214285Y-113408259D02*
X258880952Y-112932068D01*
X258642857Y-113408259D02*
X258642857Y-112408259D01*
X258642857Y-112408259D02*
X259023809Y-112408259D01*
X259023809Y-112408259D02*
X259119047Y-112455878D01*
X259119047Y-112455878D02*
X259166666Y-112503497D01*
X259166666Y-112503497D02*
X259214285Y-112598735D01*
X259214285Y-112598735D02*
X259214285Y-112741592D01*
X259214285Y-112741592D02*
X259166666Y-112836830D01*
X259166666Y-112836830D02*
X259119047Y-112884449D01*
X259119047Y-112884449D02*
X259023809Y-112932068D01*
X259023809Y-112932068D02*
X258642857Y-112932068D01*
X259642857Y-113408259D02*
X259642857Y-112408259D01*
X259642857Y-112884449D02*
X260214285Y-112884449D01*
X260214285Y-113408259D02*
X260214285Y-112408259D01*
X260595238Y-112408259D02*
X261214285Y-112408259D01*
X261214285Y-112408259D02*
X260880952Y-112789211D01*
X260880952Y-112789211D02*
X261023809Y-112789211D01*
X261023809Y-112789211D02*
X261119047Y-112836830D01*
X261119047Y-112836830D02*
X261166666Y-112884449D01*
X261166666Y-112884449D02*
X261214285Y-112979687D01*
X261214285Y-112979687D02*
X261214285Y-113217782D01*
X261214285Y-113217782D02*
X261166666Y-113313020D01*
X261166666Y-113313020D02*
X261119047Y-113360640D01*
X261119047Y-113360640D02*
X261023809Y-113408259D01*
X261023809Y-113408259D02*
X260738095Y-113408259D01*
X260738095Y-113408259D02*
X260642857Y-113360640D01*
X260642857Y-113360640D02*
X260595238Y-113313020D01*
X272785714Y-104360640D02*
X272928571Y-104408259D01*
X272928571Y-104408259D02*
X273166666Y-104408259D01*
X273166666Y-104408259D02*
X273261904Y-104360640D01*
X273261904Y-104360640D02*
X273309523Y-104313020D01*
X273309523Y-104313020D02*
X273357142Y-104217782D01*
X273357142Y-104217782D02*
X273357142Y-104122544D01*
X273357142Y-104122544D02*
X273309523Y-104027306D01*
X273309523Y-104027306D02*
X273261904Y-103979687D01*
X273261904Y-103979687D02*
X273166666Y-103932068D01*
X273166666Y-103932068D02*
X272976190Y-103884449D01*
X272976190Y-103884449D02*
X272880952Y-103836830D01*
X272880952Y-103836830D02*
X272833333Y-103789211D01*
X272833333Y-103789211D02*
X272785714Y-103693973D01*
X272785714Y-103693973D02*
X272785714Y-103598735D01*
X272785714Y-103598735D02*
X272833333Y-103503497D01*
X272833333Y-103503497D02*
X272880952Y-103455878D01*
X272880952Y-103455878D02*
X272976190Y-103408259D01*
X272976190Y-103408259D02*
X273214285Y-103408259D01*
X273214285Y-103408259D02*
X273357142Y-103455878D01*
X273690476Y-103408259D02*
X273928571Y-104408259D01*
X273928571Y-104408259D02*
X274119047Y-103693973D01*
X274119047Y-103693973D02*
X274309523Y-104408259D01*
X274309523Y-104408259D02*
X274547619Y-103408259D01*
X275404761Y-103408259D02*
X274928571Y-103408259D01*
X274928571Y-103408259D02*
X274880952Y-103884449D01*
X274880952Y-103884449D02*
X274928571Y-103836830D01*
X274928571Y-103836830D02*
X275023809Y-103789211D01*
X275023809Y-103789211D02*
X275261904Y-103789211D01*
X275261904Y-103789211D02*
X275357142Y-103836830D01*
X275357142Y-103836830D02*
X275404761Y-103884449D01*
X275404761Y-103884449D02*
X275452380Y-103979687D01*
X275452380Y-103979687D02*
X275452380Y-104217782D01*
X275452380Y-104217782D02*
X275404761Y-104313020D01*
X275404761Y-104313020D02*
X275357142Y-104360640D01*
X275357142Y-104360640D02*
X275261904Y-104408259D01*
X275261904Y-104408259D02*
X275023809Y-104408259D01*
X275023809Y-104408259D02*
X274928571Y-104360640D01*
X274928571Y-104360640D02*
X274880952Y-104313020D01*
X277214285Y-104408259D02*
X276880952Y-103932068D01*
X276642857Y-104408259D02*
X276642857Y-103408259D01*
X276642857Y-103408259D02*
X277023809Y-103408259D01*
X277023809Y-103408259D02*
X277119047Y-103455878D01*
X277119047Y-103455878D02*
X277166666Y-103503497D01*
X277166666Y-103503497D02*
X277214285Y-103598735D01*
X277214285Y-103598735D02*
X277214285Y-103741592D01*
X277214285Y-103741592D02*
X277166666Y-103836830D01*
X277166666Y-103836830D02*
X277119047Y-103884449D01*
X277119047Y-103884449D02*
X277023809Y-103932068D01*
X277023809Y-103932068D02*
X276642857Y-103932068D01*
X277642857Y-104408259D02*
X277642857Y-103408259D01*
X277642857Y-103884449D02*
X278214285Y-103884449D01*
X278214285Y-104408259D02*
X278214285Y-103408259D01*
X279166666Y-103408259D02*
X278690476Y-103408259D01*
X278690476Y-103408259D02*
X278642857Y-103884449D01*
X278642857Y-103884449D02*
X278690476Y-103836830D01*
X278690476Y-103836830D02*
X278785714Y-103789211D01*
X278785714Y-103789211D02*
X279023809Y-103789211D01*
X279023809Y-103789211D02*
X279119047Y-103836830D01*
X279119047Y-103836830D02*
X279166666Y-103884449D01*
X279166666Y-103884449D02*
X279214285Y-103979687D01*
X279214285Y-103979687D02*
X279214285Y-104217782D01*
X279214285Y-104217782D02*
X279166666Y-104313020D01*
X279166666Y-104313020D02*
X279119047Y-104360640D01*
X279119047Y-104360640D02*
X279023809Y-104408259D01*
X279023809Y-104408259D02*
X278785714Y-104408259D01*
X278785714Y-104408259D02*
X278690476Y-104360640D01*
X278690476Y-104360640D02*
X278642857Y-104313020D01*
X272785714Y-122360640D02*
X272928571Y-122408259D01*
X272928571Y-122408259D02*
X273166666Y-122408259D01*
X273166666Y-122408259D02*
X273261904Y-122360640D01*
X273261904Y-122360640D02*
X273309523Y-122313020D01*
X273309523Y-122313020D02*
X273357142Y-122217782D01*
X273357142Y-122217782D02*
X273357142Y-122122544D01*
X273357142Y-122122544D02*
X273309523Y-122027306D01*
X273309523Y-122027306D02*
X273261904Y-121979687D01*
X273261904Y-121979687D02*
X273166666Y-121932068D01*
X273166666Y-121932068D02*
X272976190Y-121884449D01*
X272976190Y-121884449D02*
X272880952Y-121836830D01*
X272880952Y-121836830D02*
X272833333Y-121789211D01*
X272833333Y-121789211D02*
X272785714Y-121693973D01*
X272785714Y-121693973D02*
X272785714Y-121598735D01*
X272785714Y-121598735D02*
X272833333Y-121503497D01*
X272833333Y-121503497D02*
X272880952Y-121455878D01*
X272880952Y-121455878D02*
X272976190Y-121408259D01*
X272976190Y-121408259D02*
X273214285Y-121408259D01*
X273214285Y-121408259D02*
X273357142Y-121455878D01*
X273690476Y-121408259D02*
X273928571Y-122408259D01*
X273928571Y-122408259D02*
X274119047Y-121693973D01*
X274119047Y-121693973D02*
X274309523Y-122408259D01*
X274309523Y-122408259D02*
X274547619Y-121408259D01*
X275357142Y-121741592D02*
X275357142Y-122408259D01*
X275119047Y-121360640D02*
X274880952Y-122074925D01*
X274880952Y-122074925D02*
X275499999Y-122074925D01*
X277214285Y-122408259D02*
X276880952Y-121932068D01*
X276642857Y-122408259D02*
X276642857Y-121408259D01*
X276642857Y-121408259D02*
X277023809Y-121408259D01*
X277023809Y-121408259D02*
X277119047Y-121455878D01*
X277119047Y-121455878D02*
X277166666Y-121503497D01*
X277166666Y-121503497D02*
X277214285Y-121598735D01*
X277214285Y-121598735D02*
X277214285Y-121741592D01*
X277214285Y-121741592D02*
X277166666Y-121836830D01*
X277166666Y-121836830D02*
X277119047Y-121884449D01*
X277119047Y-121884449D02*
X277023809Y-121932068D01*
X277023809Y-121932068D02*
X276642857Y-121932068D01*
X277642857Y-122408259D02*
X277642857Y-121408259D01*
X277642857Y-121884449D02*
X278214285Y-121884449D01*
X278214285Y-122408259D02*
X278214285Y-121408259D01*
X279119047Y-121741592D02*
X279119047Y-122408259D01*
X278880952Y-121360640D02*
X278642857Y-122074925D01*
X278642857Y-122074925D02*
X279261904Y-122074925D01*
X290785714Y-122360640D02*
X290928571Y-122408259D01*
X290928571Y-122408259D02*
X291166666Y-122408259D01*
X291166666Y-122408259D02*
X291261904Y-122360640D01*
X291261904Y-122360640D02*
X291309523Y-122313020D01*
X291309523Y-122313020D02*
X291357142Y-122217782D01*
X291357142Y-122217782D02*
X291357142Y-122122544D01*
X291357142Y-122122544D02*
X291309523Y-122027306D01*
X291309523Y-122027306D02*
X291261904Y-121979687D01*
X291261904Y-121979687D02*
X291166666Y-121932068D01*
X291166666Y-121932068D02*
X290976190Y-121884449D01*
X290976190Y-121884449D02*
X290880952Y-121836830D01*
X290880952Y-121836830D02*
X290833333Y-121789211D01*
X290833333Y-121789211D02*
X290785714Y-121693973D01*
X290785714Y-121693973D02*
X290785714Y-121598735D01*
X290785714Y-121598735D02*
X290833333Y-121503497D01*
X290833333Y-121503497D02*
X290880952Y-121455878D01*
X290880952Y-121455878D02*
X290976190Y-121408259D01*
X290976190Y-121408259D02*
X291214285Y-121408259D01*
X291214285Y-121408259D02*
X291357142Y-121455878D01*
X291690476Y-121408259D02*
X291928571Y-122408259D01*
X291928571Y-122408259D02*
X292119047Y-121693973D01*
X292119047Y-121693973D02*
X292309523Y-122408259D01*
X292309523Y-122408259D02*
X292547619Y-121408259D01*
X293357142Y-121408259D02*
X293166666Y-121408259D01*
X293166666Y-121408259D02*
X293071428Y-121455878D01*
X293071428Y-121455878D02*
X293023809Y-121503497D01*
X293023809Y-121503497D02*
X292928571Y-121646354D01*
X292928571Y-121646354D02*
X292880952Y-121836830D01*
X292880952Y-121836830D02*
X292880952Y-122217782D01*
X292880952Y-122217782D02*
X292928571Y-122313020D01*
X292928571Y-122313020D02*
X292976190Y-122360640D01*
X292976190Y-122360640D02*
X293071428Y-122408259D01*
X293071428Y-122408259D02*
X293261904Y-122408259D01*
X293261904Y-122408259D02*
X293357142Y-122360640D01*
X293357142Y-122360640D02*
X293404761Y-122313020D01*
X293404761Y-122313020D02*
X293452380Y-122217782D01*
X293452380Y-122217782D02*
X293452380Y-121979687D01*
X293452380Y-121979687D02*
X293404761Y-121884449D01*
X293404761Y-121884449D02*
X293357142Y-121836830D01*
X293357142Y-121836830D02*
X293261904Y-121789211D01*
X293261904Y-121789211D02*
X293071428Y-121789211D01*
X293071428Y-121789211D02*
X292976190Y-121836830D01*
X292976190Y-121836830D02*
X292928571Y-121884449D01*
X292928571Y-121884449D02*
X292880952Y-121979687D01*
X295214285Y-122408259D02*
X294880952Y-121932068D01*
X294642857Y-122408259D02*
X294642857Y-121408259D01*
X294642857Y-121408259D02*
X295023809Y-121408259D01*
X295023809Y-121408259D02*
X295119047Y-121455878D01*
X295119047Y-121455878D02*
X295166666Y-121503497D01*
X295166666Y-121503497D02*
X295214285Y-121598735D01*
X295214285Y-121598735D02*
X295214285Y-121741592D01*
X295214285Y-121741592D02*
X295166666Y-121836830D01*
X295166666Y-121836830D02*
X295119047Y-121884449D01*
X295119047Y-121884449D02*
X295023809Y-121932068D01*
X295023809Y-121932068D02*
X294642857Y-121932068D01*
X295642857Y-122408259D02*
X295642857Y-121408259D01*
X295642857Y-121884449D02*
X296214285Y-121884449D01*
X296214285Y-122408259D02*
X296214285Y-121408259D01*
X297119047Y-121408259D02*
X296928571Y-121408259D01*
X296928571Y-121408259D02*
X296833333Y-121455878D01*
X296833333Y-121455878D02*
X296785714Y-121503497D01*
X296785714Y-121503497D02*
X296690476Y-121646354D01*
X296690476Y-121646354D02*
X296642857Y-121836830D01*
X296642857Y-121836830D02*
X296642857Y-122217782D01*
X296642857Y-122217782D02*
X296690476Y-122313020D01*
X296690476Y-122313020D02*
X296738095Y-122360640D01*
X296738095Y-122360640D02*
X296833333Y-122408259D01*
X296833333Y-122408259D02*
X297023809Y-122408259D01*
X297023809Y-122408259D02*
X297119047Y-122360640D01*
X297119047Y-122360640D02*
X297166666Y-122313020D01*
X297166666Y-122313020D02*
X297214285Y-122217782D01*
X297214285Y-122217782D02*
X297214285Y-121979687D01*
X297214285Y-121979687D02*
X297166666Y-121884449D01*
X297166666Y-121884449D02*
X297119047Y-121836830D01*
X297119047Y-121836830D02*
X297023809Y-121789211D01*
X297023809Y-121789211D02*
X296833333Y-121789211D01*
X296833333Y-121789211D02*
X296738095Y-121836830D01*
X296738095Y-121836830D02*
X296690476Y-121884449D01*
X296690476Y-121884449D02*
X296642857Y-121979687D01*
X208503258Y-123785713D02*
X207503258Y-123785713D01*
X207503258Y-123785713D02*
X208217543Y-123452380D01*
X208217543Y-123452380D02*
X207503258Y-123119047D01*
X207503258Y-123119047D02*
X208503258Y-123119047D01*
X207503258Y-122452380D02*
X207503258Y-122261904D01*
X207503258Y-122261904D02*
X207550877Y-122166666D01*
X207550877Y-122166666D02*
X207646115Y-122071428D01*
X207646115Y-122071428D02*
X207836591Y-122023809D01*
X207836591Y-122023809D02*
X208169924Y-122023809D01*
X208169924Y-122023809D02*
X208360400Y-122071428D01*
X208360400Y-122071428D02*
X208455639Y-122166666D01*
X208455639Y-122166666D02*
X208503258Y-122261904D01*
X208503258Y-122261904D02*
X208503258Y-122452380D01*
X208503258Y-122452380D02*
X208455639Y-122547618D01*
X208455639Y-122547618D02*
X208360400Y-122642856D01*
X208360400Y-122642856D02*
X208169924Y-122690475D01*
X208169924Y-122690475D02*
X207836591Y-122690475D01*
X207836591Y-122690475D02*
X207646115Y-122642856D01*
X207646115Y-122642856D02*
X207550877Y-122547618D01*
X207550877Y-122547618D02*
X207503258Y-122452380D01*
X207503258Y-121595237D02*
X208312781Y-121595237D01*
X208312781Y-121595237D02*
X208408019Y-121547618D01*
X208408019Y-121547618D02*
X208455639Y-121499999D01*
X208455639Y-121499999D02*
X208503258Y-121404761D01*
X208503258Y-121404761D02*
X208503258Y-121214285D01*
X208503258Y-121214285D02*
X208455639Y-121119047D01*
X208455639Y-121119047D02*
X208408019Y-121071428D01*
X208408019Y-121071428D02*
X208312781Y-121023809D01*
X208312781Y-121023809D02*
X207503258Y-121023809D01*
X207503258Y-120690475D02*
X207503258Y-120119047D01*
X208503258Y-120404761D02*
X207503258Y-120404761D01*
X208503258Y-119785713D02*
X207503258Y-119785713D01*
X207979448Y-119785713D02*
X207979448Y-119214285D01*
X208503258Y-119214285D02*
X207503258Y-119214285D01*
M02*
