%TF.GenerationSoftware,KiCad,Pcbnew,9.0.9-9.0.9~ubuntu24.04.1*%
%TF.CreationDate,2026-09-29T22:25:37+00:00*%
%TF.ProjectId,key-board-rh,6b65792d-626f-4617-9264-2d72682e6b69,A*%
%TF.SameCoordinates,Original*%
%TF.FileFunction,Copper,L1,Top*%
%TF.FilePolarity,Positive*%
%FSLAX46Y46*%
G04 Gerber Fmt 4.6, Leading zero omitted, Abs format (unit mm)*
G04 Created by KiCad (PCBNEW 9.0.9-9.0.9~ubuntu24.04.1) date 2026-09-29 22:25:37*
%MOMM*%
%LPD*%
G01*
G04 APERTURE LIST*
%TA.AperFunction,ComponentPad*%
%ADD10C,2.600000*%
%TD*%
%TA.AperFunction,ComponentPad*%
%ADD11R,1.500000X1.070000*%
%TD*%
%TA.AperFunction,ComponentPad*%
%ADD12O,1.500000X1.070000*%
%TD*%
%TA.AperFunction,ViaPad*%
%ADD13C,0.700000*%
%TD*%
%TA.AperFunction,Conductor*%
%ADD14C,0.250000*%
%TD*%
%TA.AperFunction,Conductor*%
%ADD15C,0.400000*%
%TD*%
G04 APERTURE END LIST*
D10*
%TO.P,SW5,1*%
%TO.N,/RH5/SWITCH_LEG*%
X271600000Y-117200000D03*
%TO.P,SW5,2*%
%TO.N,GND_CHAIN*%
X278600000Y-118250000D03*
%TD*%
%TO.P,SW4,1*%
%TO.N,/RH4/SWITCH_LEG*%
X271600000Y-135200000D03*
%TO.P,SW4,2*%
%TO.N,GND_CHAIN*%
X278600000Y-136250000D03*
%TD*%
%TO.P,SW1,1*%
%TO.N,/RH1/SWITCH_LEG*%
X213600000Y-126200000D03*
%TO.P,SW1,2*%
%TO.N,GND_CHAIN*%
X220600000Y-127250000D03*
%TD*%
%TO.P,SW3,1*%
%TO.N,/RH3/SWITCH_LEG*%
X253600000Y-126200000D03*
%TO.P,SW3,2*%
%TO.N,GND_CHAIN*%
X260600000Y-127250000D03*
%TD*%
%TO.P,SW6,1*%
%TO.N,/RH6/SWITCH_LEG*%
X289600000Y-135200000D03*
%TO.P,SW6,2*%
%TO.N,GND_CHAIN*%
X296600000Y-136250000D03*
%TD*%
%TO.P,SW2,1*%
%TO.N,/RH2/SWITCH_LEG*%
X233600000Y-126200000D03*
%TO.P,SW2,2*%
%TO.N,GND_CHAIN*%
X240600000Y-127250000D03*
%TD*%
D11*
%TO.P,J1,1*%
%TO.N,unconnected-(J1-Pin_1-Pad1)*%
X242425000Y-111160000D03*
D12*
%TO.P,J1,2*%
%TO.N,unconnected-(J1-Pin_2-Pad2)*%
X244125000Y-111160000D03*
%TO.P,J1,3*%
%TO.N,V3V3_CHAIN_RH*%
X242425000Y-109890000D03*
%TO.P,J1,4*%
%TO.N,GND_CHAIN*%
X244125000Y-109890000D03*
%TO.P,J1,5*%
%TO.N,/HOP_RH_RT*%
X242425000Y-108620000D03*
%TO.P,J1,6*%
%TO.N,GND_CHAIN*%
X244125000Y-108620000D03*
%TO.P,J1,7*%
%TO.N,/HOP_LT_RH*%
X242425000Y-107350000D03*
%TO.P,J1,8*%
%TO.N,GND_CHAIN*%
X244125000Y-107350000D03*
%TO.P,J1,9*%
%TO.N,/CHAIN_SHLD*%
X242425000Y-106080000D03*
%TO.P,J1,10*%
%TO.N,GND_CHAIN*%
X244125000Y-106080000D03*
%TO.P,J1,11*%
%TO.N,/CHAIN_SCK*%
X242425000Y-104810000D03*
%TO.P,J1,12*%
%TO.N,GND_CHAIN*%
X244125000Y-104810000D03*
%TD*%
D13*
%TO.N,/CHAIN_SCK*%
X267000000Y-110100000D03*
%TO.N,/CHAIN_SHLD*%
X268200000Y-112300000D03*
%TO.N,/HOP_LT_RH*%
X241200000Y-101900000D03*
X260600000Y-101900000D03*
%TO.N,/HOP_RH_RT*%
X258600000Y-103100000D03*
X240200000Y-103100000D03*
%TO.N,/KEY_RH1*%
X264000000Y-113300000D03*
X234600000Y-114700000D03*
%TO.N,/KEY_RH2*%
X249400000Y-106900000D03*
X263200000Y-106900000D03*
X250800000Y-117100000D03*
X249400000Y-115700000D03*
%TO.N,/KEY_RH6*%
X301200000Y-106100000D03*
X264800000Y-106100000D03*
%TO.N,/RH1/SWITCH_LEG*%
X226000000Y-125300000D03*
%TO.N,/RH2/SWITCH_LEG*%
X246000000Y-125300000D03*
%TO.N,/RH3/SWITCH_LEG*%
X266000000Y-125300000D03*
%TO.N,/RH4/SWITCH_LEG*%
X284000000Y-134300000D03*
%TO.N,/RH5/SWITCH_LEG*%
X284000000Y-116300000D03*
%TO.N,/RH6/SWITCH_LEG*%
X302000000Y-134300000D03*
%TO.N,GND_CHAIN*%
X263200000Y-117900000D03*
X259200000Y-111300000D03*
X261200000Y-119100000D03*
X222200000Y-118900000D03*
X245400000Y-113300000D03*
X246600000Y-104100000D03*
X237000000Y-108900000D03*
X262000000Y-101700000D03*
X281400000Y-125100000D03*
X242200000Y-118900000D03*
X238000000Y-103900000D03*
X298200000Y-127900000D03*
%TO.N,V3V3_CHAIN_RH*%
X268200000Y-105100000D03*
X302800000Y-125700000D03*
X261399999Y-105100000D03*
X284800000Y-105100000D03*
X286800000Y-125700000D03*
%TD*%
D14*
%TO.N,/CHAIN_SCK*%
X245000000Y-103700000D02*
X243200000Y-103700000D01*
X251400000Y-110100000D02*
X245000000Y-103700000D01*
X243200000Y-103700000D02*
X242400000Y-104500000D01*
X267000000Y-110100000D02*
X251400000Y-110100000D01*
%TO.N,/CHAIN_SHLD*%
X241400000Y-112300000D02*
X268200000Y-112300000D01*
X241800000Y-106300000D02*
X241600000Y-106300000D01*
X241000000Y-111900000D02*
X241400000Y-112300000D01*
X241600000Y-106300000D02*
X241000000Y-106900000D01*
X241000000Y-106900000D02*
X241000000Y-111900000D01*
%TO.N,/HOP_LT_RH*%
X260600000Y-101900000D02*
X241200000Y-101900000D01*
%TO.N,/HOP_RH_RT*%
X240200000Y-103100000D02*
X258600000Y-103100000D01*
%TO.N,/KEY_RH1*%
X262600000Y-114700000D02*
X264000000Y-113300000D01*
X234600000Y-114700000D02*
X262600000Y-114700000D01*
%TO.N,/KEY_RH2*%
X250800000Y-117100000D02*
X249400000Y-115700000D01*
X249400000Y-106900000D02*
X263200000Y-106900000D01*
%TO.N,/KEY_RH6*%
X301200000Y-106100000D02*
X264800000Y-106100000D01*
%TO.N,/RH1/SWITCH_LEG*%
X226000000Y-125300000D02*
X214400000Y-125300000D01*
%TO.N,/RH2/SWITCH_LEG*%
X246000000Y-125300000D02*
X234400000Y-125300000D01*
%TO.N,/RH3/SWITCH_LEG*%
X266000000Y-125300000D02*
X254400000Y-125300000D01*
%TO.N,/RH4/SWITCH_LEG*%
X284000000Y-134300000D02*
X272400000Y-134300000D01*
%TO.N,/RH5/SWITCH_LEG*%
X272400000Y-116300000D02*
X284000000Y-116300000D01*
%TO.N,/RH6/SWITCH_LEG*%
X302000000Y-134300000D02*
X290400000Y-134300000D01*
%TO.N,GND_CHAIN*%
X239800000Y-128100000D02*
X222400000Y-128100000D01*
X262000000Y-101700000D02*
X261399999Y-102300000D01*
X261200000Y-119100000D02*
X277800000Y-119100000D01*
X294800000Y-137100000D02*
X295400000Y-136500000D01*
X245400000Y-113300000D02*
X241200000Y-113300000D01*
X244600000Y-110100000D02*
X250200000Y-110100000D01*
X279200000Y-122900000D02*
X281400000Y-125100000D01*
X279400000Y-137100000D02*
X294800000Y-137100000D01*
X251400000Y-111300000D02*
X259200000Y-111300000D01*
X261399999Y-102500000D02*
X259800000Y-104100000D01*
X241200000Y-113300000D02*
X237000000Y-109100000D01*
X261399999Y-102300000D02*
X261399999Y-102500000D01*
X259800000Y-104100000D02*
X246600000Y-104100000D01*
X259800000Y-128100000D02*
X241800000Y-128100000D01*
X222400000Y-128100000D02*
X221800000Y-127500000D01*
X250200000Y-110100000D02*
X251400000Y-111300000D01*
X241800000Y-128100000D02*
X241600000Y-127900000D01*
X237000000Y-109100000D02*
X237000000Y-108900000D01*
X279200000Y-119300000D02*
X279200000Y-122900000D01*
D15*
%TO.N,V3V3_CHAIN_RH*%
X286800000Y-125700000D02*
X302800000Y-125700000D01*
X268200000Y-105100000D02*
X284800000Y-105100000D01*
X261399999Y-105100000D02*
X268200000Y-105100000D01*
%TD*%
%TA.AperFunction,Conductor*%
%TO.N,GND_CHAIN*%
G36*
X306540105Y-100820185D02*
G01*
X306585860Y-100872989D01*
X306595804Y-100942147D01*
X306566779Y-101005703D01*
X306509062Y-101043159D01*
X306474975Y-101053500D01*
X306442210Y-101063439D01*
X305873984Y-101367163D01*
X305873977Y-101367168D01*
X305375915Y-101775915D01*
X304967168Y-102273977D01*
X304967163Y-102273984D01*
X304663439Y-102842210D01*
X304476402Y-103458787D01*
X304415761Y-104074500D01*
X304413250Y-104100000D01*
X304418983Y-104158204D01*
X304476402Y-104741211D01*
X304663439Y-105357788D01*
X304967163Y-105926014D01*
X304967166Y-105926018D01*
X304967167Y-105926020D01*
X305024623Y-105996030D01*
X305375915Y-106424083D01*
X305696909Y-106687515D01*
X305873979Y-106832832D01*
X305873982Y-106832833D01*
X305873984Y-106832835D01*
X306442210Y-107136559D01*
X306442212Y-107136559D01*
X306442215Y-107136561D01*
X307058786Y-107323596D01*
X307700000Y-107386749D01*
X308341213Y-107323596D01*
X308957784Y-107136561D01*
X309002822Y-107112488D01*
X309526014Y-106832835D01*
X309526012Y-106832835D01*
X309526020Y-106832832D01*
X310024083Y-106424083D01*
X310432832Y-105926020D01*
X310632682Y-105552127D01*
X310736559Y-105357788D01*
X310736559Y-105357787D01*
X310736561Y-105357784D01*
X310756840Y-105290931D01*
X310795137Y-105232495D01*
X310858949Y-105204039D01*
X310928016Y-105214599D01*
X310980409Y-105260823D01*
X310999500Y-105326929D01*
X310999500Y-137673069D01*
X310979815Y-137740108D01*
X310927011Y-137785863D01*
X310857853Y-137795807D01*
X310794297Y-137766782D01*
X310756839Y-137709064D01*
X310736561Y-137642215D01*
X310736559Y-137642212D01*
X310736559Y-137642210D01*
X310432835Y-137073984D01*
X310432833Y-137073982D01*
X310432832Y-137073979D01*
X310229752Y-136826525D01*
X310024083Y-136575915D01*
X309526021Y-136167168D01*
X309526014Y-136167163D01*
X308957788Y-135863439D01*
X308341211Y-135676402D01*
X307700000Y-135613250D01*
X307058787Y-135676402D01*
X306442210Y-135863439D01*
X305873984Y-136167163D01*
X305873977Y-136167168D01*
X305375915Y-136575915D01*
X304967168Y-137073977D01*
X304967163Y-137073984D01*
X304663439Y-137642210D01*
X304476402Y-138258787D01*
X304413250Y-138899999D01*
X304476402Y-139541211D01*
X304663439Y-140157788D01*
X304967163Y-140726014D01*
X304967168Y-140726021D01*
X305375915Y-141224083D01*
X305703860Y-141493219D01*
X305873979Y-141632832D01*
X305873982Y-141632833D01*
X305873984Y-141632835D01*
X306442210Y-141936559D01*
X306442212Y-141936559D01*
X306442215Y-141936561D01*
X306509065Y-141956839D01*
X306567503Y-141995137D01*
X306595959Y-142058949D01*
X306585399Y-142128016D01*
X306539175Y-142180410D01*
X306473069Y-142199500D01*
X209226930Y-142199500D01*
X209159891Y-142179815D01*
X209114136Y-142127011D01*
X209104192Y-142057853D01*
X209133217Y-141994297D01*
X209190933Y-141956839D01*
X209257784Y-141936561D01*
X209291984Y-141918281D01*
X209621916Y-141741928D01*
X209826020Y-141632832D01*
X210324083Y-141224083D01*
X210732832Y-140726020D01*
X211036561Y-140157784D01*
X211223596Y-139541213D01*
X211286750Y-138900000D01*
X211223596Y-138258786D01*
X211036561Y-137642215D01*
X211036559Y-137642212D01*
X211036559Y-137642210D01*
X210974277Y-137525689D01*
X210732835Y-137073984D01*
X210732833Y-137073982D01*
X210732832Y-137073979D01*
X210529752Y-136826525D01*
X210324083Y-136575915D01*
X209826021Y-136167168D01*
X209826014Y-136167163D01*
X209257788Y-135863439D01*
X208641211Y-135676402D01*
X208000000Y-135613250D01*
X207358787Y-135676402D01*
X206742210Y-135863439D01*
X206173984Y-136167163D01*
X206173977Y-136167168D01*
X205675915Y-136575915D01*
X205267168Y-137073977D01*
X205267163Y-137073984D01*
X204963438Y-137642213D01*
X204943160Y-137709061D01*
X204904863Y-137767499D01*
X204841050Y-137795956D01*
X204771984Y-137785395D01*
X204719590Y-137739170D01*
X204700500Y-137673065D01*
X204700500Y-135081902D01*
X270099500Y-135081902D01*
X270099500Y-135318097D01*
X270136446Y-135551368D01*
X270209433Y-135775996D01*
X270253988Y-135863439D01*
X270316657Y-135986433D01*
X270455483Y-136177510D01*
X270622490Y-136344517D01*
X270813567Y-136483343D01*
X270861143Y-136507584D01*
X271024003Y-136590566D01*
X271024005Y-136590566D01*
X271024008Y-136590568D01*
X271128960Y-136624669D01*
X271248631Y-136663553D01*
X271481903Y-136700500D01*
X271481908Y-136700500D01*
X271718097Y-136700500D01*
X271951368Y-136663553D01*
X272175992Y-136590568D01*
X272386433Y-136483343D01*
X272577510Y-136344517D01*
X272744517Y-136177510D01*
X272883343Y-135986433D01*
X272990568Y-135775992D01*
X273063553Y-135551368D01*
X273066399Y-135533398D01*
X273100500Y-135318097D01*
X273100500Y-135081902D01*
X273079005Y-134946197D01*
X273063553Y-134848632D01*
X273063552Y-134848628D01*
X273063552Y-134848627D01*
X273043794Y-134787818D01*
X273041799Y-134717977D01*
X273077879Y-134658144D01*
X273140580Y-134627316D01*
X273161725Y-134625500D01*
X277747459Y-134625500D01*
X277814498Y-134645185D01*
X277860253Y-134697989D01*
X277870197Y-134767147D01*
X277841172Y-134830703D01*
X277803755Y-134859984D01*
X277761423Y-134881553D01*
X277618346Y-134985503D01*
X277976307Y-135343464D01*
X277883398Y-135410967D01*
X277760967Y-135533398D01*
X277693464Y-135626307D01*
X277335503Y-135268346D01*
X277231555Y-135411420D01*
X277117219Y-135635815D01*
X277039397Y-135875330D01*
X277000000Y-136124071D01*
X277000000Y-136375928D01*
X277039397Y-136624669D01*
X277117219Y-136864184D01*
X277231559Y-137088586D01*
X277335502Y-137231652D01*
X277335503Y-137231653D01*
X277693464Y-136873691D01*
X277760967Y-136966602D01*
X277883398Y-137089033D01*
X277976306Y-137156534D01*
X277618345Y-137514495D01*
X277618346Y-137514497D01*
X277761413Y-137618440D01*
X277985815Y-137732780D01*
X278225330Y-137810602D01*
X278474072Y-137850000D01*
X278725928Y-137850000D01*
X278974669Y-137810602D01*
X279214184Y-137732780D01*
X279438583Y-137618442D01*
X279581652Y-137514495D01*
X279581653Y-137514495D01*
X279223693Y-137156534D01*
X279316602Y-137089033D01*
X279439033Y-136966602D01*
X279506534Y-136873692D01*
X279864495Y-137231653D01*
X279864495Y-137231652D01*
X279968442Y-137088583D01*
X280082780Y-136864184D01*
X280160602Y-136624669D01*
X280200000Y-136375928D01*
X280200000Y-136124071D01*
X280160602Y-135875330D01*
X280082780Y-135635815D01*
X279968440Y-135411413D01*
X279864497Y-135268346D01*
X279864495Y-135268345D01*
X279506534Y-135626306D01*
X279439033Y-135533398D01*
X279316602Y-135410967D01*
X279223692Y-135343464D01*
X279485255Y-135081902D01*
X288099500Y-135081902D01*
X288099500Y-135318097D01*
X288136446Y-135551368D01*
X288209433Y-135775996D01*
X288253988Y-135863439D01*
X288316657Y-135986433D01*
X288455483Y-136177510D01*
X288622490Y-136344517D01*
X288813567Y-136483343D01*
X288861143Y-136507584D01*
X289024003Y-136590566D01*
X289024005Y-136590566D01*
X289024008Y-136590568D01*
X289128960Y-136624669D01*
X289248631Y-136663553D01*
X289481903Y-136700500D01*
X289481908Y-136700500D01*
X289718097Y-136700500D01*
X289951368Y-136663553D01*
X290175992Y-136590568D01*
X290386433Y-136483343D01*
X290577510Y-136344517D01*
X290744517Y-136177510D01*
X290883343Y-135986433D01*
X290990568Y-135775992D01*
X291063553Y-135551368D01*
X291066399Y-135533398D01*
X291100500Y-135318097D01*
X291100500Y-135081902D01*
X291079005Y-134946197D01*
X291063553Y-134848632D01*
X291063552Y-134848628D01*
X291063552Y-134848627D01*
X291043794Y-134787818D01*
X291041799Y-134717977D01*
X291077879Y-134658144D01*
X291140580Y-134627316D01*
X291161725Y-134625500D01*
X295747459Y-134625500D01*
X295814498Y-134645185D01*
X295860253Y-134697989D01*
X295870197Y-134767147D01*
X295841172Y-134830703D01*
X295803755Y-134859984D01*
X295761423Y-134881553D01*
X295618346Y-134985503D01*
X295976307Y-135343464D01*
X295883398Y-135410967D01*
X295760967Y-135533398D01*
X295693464Y-135626307D01*
X295335503Y-135268346D01*
X295231555Y-135411420D01*
X295117219Y-135635815D01*
X295039397Y-135875330D01*
X295000000Y-136124071D01*
X295000000Y-136375928D01*
X295039397Y-136624669D01*
X295117219Y-136864184D01*
X295231559Y-137088586D01*
X295335502Y-137231652D01*
X295335503Y-137231653D01*
X295693464Y-136873691D01*
X295760967Y-136966602D01*
X295883398Y-137089033D01*
X295976306Y-137156534D01*
X295618345Y-137514495D01*
X295618346Y-137514497D01*
X295761413Y-137618440D01*
X295985815Y-137732780D01*
X296225330Y-137810602D01*
X296474072Y-137850000D01*
X296725928Y-137850000D01*
X296974669Y-137810602D01*
X297214184Y-137732780D01*
X297438583Y-137618442D01*
X297581652Y-137514495D01*
X297581653Y-137514495D01*
X297223693Y-137156534D01*
X297316602Y-137089033D01*
X297439033Y-136966602D01*
X297506534Y-136873692D01*
X297864495Y-137231653D01*
X297864495Y-137231652D01*
X297968442Y-137088583D01*
X298082780Y-136864184D01*
X298160602Y-136624669D01*
X298200000Y-136375928D01*
X298200000Y-136124071D01*
X298160602Y-135875330D01*
X298082780Y-135635815D01*
X297968440Y-135411413D01*
X297864497Y-135268346D01*
X297864495Y-135268345D01*
X297506534Y-135626306D01*
X297439033Y-135533398D01*
X297316602Y-135410967D01*
X297223692Y-135343464D01*
X297581653Y-134985503D01*
X297581652Y-134985502D01*
X297438584Y-134881557D01*
X297396245Y-134859984D01*
X297345450Y-134812010D01*
X297328655Y-134744189D01*
X297351193Y-134678054D01*
X297405908Y-134634603D01*
X297452541Y-134625500D01*
X301495613Y-134625500D01*
X301562652Y-134645185D01*
X301583294Y-134661818D01*
X301661985Y-134740509D01*
X301661987Y-134740510D01*
X301661988Y-134740511D01*
X301787511Y-134812982D01*
X301787512Y-134812982D01*
X301787515Y-134812984D01*
X301927525Y-134850500D01*
X301927528Y-134850500D01*
X302072472Y-134850500D01*
X302072475Y-134850500D01*
X302212485Y-134812984D01*
X302338015Y-134740509D01*
X302440509Y-134638015D01*
X302512984Y-134512485D01*
X302550500Y-134372475D01*
X302550500Y-134227525D01*
X302512984Y-134087515D01*
X302494491Y-134055485D01*
X302440511Y-133961988D01*
X302440506Y-133961982D01*
X302338017Y-133859493D01*
X302338011Y-133859488D01*
X302212488Y-133787017D01*
X302212489Y-133787017D01*
X302201006Y-133783940D01*
X302072475Y-133749500D01*
X301927525Y-133749500D01*
X301798993Y-133783940D01*
X301787511Y-133787017D01*
X301661988Y-133859488D01*
X301583294Y-133938182D01*
X301521970Y-133971666D01*
X301495613Y-133974500D01*
X290506337Y-133974500D01*
X290439298Y-133954815D01*
X290433460Y-133950824D01*
X290386433Y-133916657D01*
X290175996Y-133809433D01*
X289951368Y-133736446D01*
X289718097Y-133699500D01*
X289718092Y-133699500D01*
X289481908Y-133699500D01*
X289481903Y-133699500D01*
X289248631Y-133736446D01*
X289024003Y-133809433D01*
X288813566Y-133916657D01*
X288751174Y-133961988D01*
X288622490Y-134055483D01*
X288622488Y-134055485D01*
X288622487Y-134055485D01*
X288455485Y-134222487D01*
X288455485Y-134222488D01*
X288455483Y-134222490D01*
X288395862Y-134304550D01*
X288316657Y-134413566D01*
X288209433Y-134624003D01*
X288136446Y-134848631D01*
X288099500Y-135081902D01*
X279485255Y-135081902D01*
X279577802Y-134989355D01*
X279581653Y-134985503D01*
X279581652Y-134985502D01*
X279438584Y-134881557D01*
X279396245Y-134859984D01*
X279345450Y-134812010D01*
X279328655Y-134744189D01*
X279351193Y-134678054D01*
X279405908Y-134634603D01*
X279452541Y-134625500D01*
X283495613Y-134625500D01*
X283562652Y-134645185D01*
X283583294Y-134661818D01*
X283661985Y-134740509D01*
X283661987Y-134740510D01*
X283661988Y-134740511D01*
X283787511Y-134812982D01*
X283787512Y-134812982D01*
X283787515Y-134812984D01*
X283927525Y-134850500D01*
X283927528Y-134850500D01*
X284072472Y-134850500D01*
X284072475Y-134850500D01*
X284212485Y-134812984D01*
X284338015Y-134740509D01*
X284440509Y-134638015D01*
X284512984Y-134512485D01*
X284550500Y-134372475D01*
X284550500Y-134227525D01*
X284512984Y-134087515D01*
X284494491Y-134055485D01*
X284440511Y-133961988D01*
X284440506Y-133961982D01*
X284338017Y-133859493D01*
X284338011Y-133859488D01*
X284212488Y-133787017D01*
X284212489Y-133787017D01*
X284201006Y-133783940D01*
X284072475Y-133749500D01*
X283927525Y-133749500D01*
X283798993Y-133783940D01*
X283787511Y-133787017D01*
X283661988Y-133859488D01*
X283583294Y-133938182D01*
X283521970Y-133971666D01*
X283495613Y-133974500D01*
X272506337Y-133974500D01*
X272439298Y-133954815D01*
X272433460Y-133950824D01*
X272386433Y-133916657D01*
X272175996Y-133809433D01*
X271951368Y-133736446D01*
X271718097Y-133699500D01*
X271718092Y-133699500D01*
X271481908Y-133699500D01*
X271481903Y-133699500D01*
X271248631Y-133736446D01*
X271024003Y-133809433D01*
X270813566Y-133916657D01*
X270751174Y-133961988D01*
X270622490Y-134055483D01*
X270622488Y-134055485D01*
X270622487Y-134055485D01*
X270455485Y-134222487D01*
X270455485Y-134222488D01*
X270455483Y-134222490D01*
X270395862Y-134304550D01*
X270316657Y-134413566D01*
X270209433Y-134624003D01*
X270136446Y-134848631D01*
X270099500Y-135081902D01*
X204700500Y-135081902D01*
X204700500Y-130336824D01*
X273094500Y-130336824D01*
X273094500Y-130663175D01*
X273131035Y-130987441D01*
X273131038Y-130987455D01*
X273203655Y-131305612D01*
X273203656Y-131305614D01*
X273311438Y-131613640D01*
X273453030Y-131907657D01*
X273453032Y-131907660D01*
X273626654Y-132183979D01*
X273830123Y-132439121D01*
X274060879Y-132669877D01*
X274316021Y-132873346D01*
X274592340Y-133046968D01*
X274886361Y-133188562D01*
X275194387Y-133296344D01*
X275512544Y-133368962D01*
X275512553Y-133368963D01*
X275512558Y-133368964D01*
X275728735Y-133393320D01*
X275836825Y-133405499D01*
X275836828Y-133405500D01*
X275836831Y-133405500D01*
X276163172Y-133405500D01*
X276163173Y-133405499D01*
X276328900Y-133386826D01*
X276487441Y-133368964D01*
X276487444Y-133368963D01*
X276487456Y-133368962D01*
X276805613Y-133296344D01*
X277113639Y-133188562D01*
X277407660Y-133046968D01*
X277683979Y-132873346D01*
X277939121Y-132669877D01*
X278169877Y-132439121D01*
X278373346Y-132183979D01*
X278546968Y-131907660D01*
X278688562Y-131613639D01*
X278796344Y-131305613D01*
X278868962Y-130987456D01*
X278905500Y-130663169D01*
X278905500Y-130336831D01*
X278905499Y-130336824D01*
X291094500Y-130336824D01*
X291094500Y-130663175D01*
X291131035Y-130987441D01*
X291131038Y-130987455D01*
X291203655Y-131305612D01*
X291203656Y-131305614D01*
X291311438Y-131613640D01*
X291453030Y-131907657D01*
X291453032Y-131907660D01*
X291626654Y-132183979D01*
X291830123Y-132439121D01*
X292060879Y-132669877D01*
X292316021Y-132873346D01*
X292592340Y-133046968D01*
X292886361Y-133188562D01*
X293194387Y-133296344D01*
X293512544Y-133368962D01*
X293512553Y-133368963D01*
X293512558Y-133368964D01*
X293728735Y-133393320D01*
X293836825Y-133405499D01*
X293836828Y-133405500D01*
X293836831Y-133405500D01*
X294163172Y-133405500D01*
X294163173Y-133405499D01*
X294328900Y-133386826D01*
X294487441Y-133368964D01*
X294487444Y-133368963D01*
X294487456Y-133368962D01*
X294805613Y-133296344D01*
X295113639Y-133188562D01*
X295407660Y-133046968D01*
X295683979Y-132873346D01*
X295939121Y-132669877D01*
X296169877Y-132439121D01*
X296373346Y-132183979D01*
X296546968Y-131907660D01*
X296688562Y-131613639D01*
X296796344Y-131305613D01*
X296868962Y-130987456D01*
X296905500Y-130663169D01*
X296905500Y-130336831D01*
X296868962Y-130012544D01*
X296796344Y-129694387D01*
X296688562Y-129386361D01*
X296546968Y-129092340D01*
X296373346Y-128816021D01*
X296169877Y-128560879D01*
X295939121Y-128330123D01*
X295683979Y-128126654D01*
X295407660Y-127953032D01*
X295407657Y-127953030D01*
X295113640Y-127811438D01*
X294805614Y-127703656D01*
X294805612Y-127703655D01*
X294560073Y-127647612D01*
X294487456Y-127631038D01*
X294487453Y-127631037D01*
X294487441Y-127631035D01*
X294163175Y-127594500D01*
X294163169Y-127594500D01*
X293836831Y-127594500D01*
X293836824Y-127594500D01*
X293512558Y-127631035D01*
X293512544Y-127631038D01*
X293194387Y-127703655D01*
X293194385Y-127703656D01*
X292886359Y-127811438D01*
X292592342Y-127953030D01*
X292316022Y-128126653D01*
X292060879Y-128330122D01*
X291830122Y-128560879D01*
X291626653Y-128816022D01*
X291453030Y-129092342D01*
X291311438Y-129386359D01*
X291203656Y-129694385D01*
X291203655Y-129694387D01*
X291131038Y-130012544D01*
X291131035Y-130012558D01*
X291094500Y-130336824D01*
X278905499Y-130336824D01*
X278868962Y-130012544D01*
X278796344Y-129694387D01*
X278688562Y-129386361D01*
X278546968Y-129092340D01*
X278373346Y-128816021D01*
X278169877Y-128560879D01*
X277939121Y-128330123D01*
X277683979Y-128126654D01*
X277407660Y-127953032D01*
X277407657Y-127953030D01*
X277113640Y-127811438D01*
X276805614Y-127703656D01*
X276805612Y-127703655D01*
X276560073Y-127647612D01*
X276487456Y-127631038D01*
X276487453Y-127631037D01*
X276487441Y-127631035D01*
X276163175Y-127594500D01*
X276163169Y-127594500D01*
X275836831Y-127594500D01*
X275836824Y-127594500D01*
X275512558Y-127631035D01*
X275512544Y-127631038D01*
X275194387Y-127703655D01*
X275194385Y-127703656D01*
X274886359Y-127811438D01*
X274592342Y-127953030D01*
X274316022Y-128126653D01*
X274060879Y-128330122D01*
X273830122Y-128560879D01*
X273626653Y-128816022D01*
X273453030Y-129092342D01*
X273311438Y-129386359D01*
X273203656Y-129694385D01*
X273203655Y-129694387D01*
X273131038Y-130012544D01*
X273131035Y-130012558D01*
X273094500Y-130336824D01*
X204700500Y-130336824D01*
X204700500Y-126081902D01*
X212099500Y-126081902D01*
X212099500Y-126318097D01*
X212136446Y-126551368D01*
X212209433Y-126775996D01*
X212235802Y-126827747D01*
X212316657Y-126986433D01*
X212455483Y-127177510D01*
X212622490Y-127344517D01*
X212813567Y-127483343D01*
X212861143Y-127507584D01*
X213024003Y-127590566D01*
X213024005Y-127590566D01*
X213024008Y-127590568D01*
X213128960Y-127624669D01*
X213248631Y-127663553D01*
X213481903Y-127700500D01*
X213481908Y-127700500D01*
X213718097Y-127700500D01*
X213951368Y-127663553D01*
X214175992Y-127590568D01*
X214386433Y-127483343D01*
X214577510Y-127344517D01*
X214744517Y-127177510D01*
X214883343Y-126986433D01*
X214990568Y-126775992D01*
X215063553Y-126551368D01*
X215066399Y-126533398D01*
X215100500Y-126318097D01*
X215100500Y-126081902D01*
X215079005Y-125946197D01*
X215063553Y-125848632D01*
X215063552Y-125848628D01*
X215063552Y-125848627D01*
X215043794Y-125787818D01*
X215041799Y-125717977D01*
X215077879Y-125658144D01*
X215140580Y-125627316D01*
X215161725Y-125625500D01*
X219747459Y-125625500D01*
X219814498Y-125645185D01*
X219860253Y-125697989D01*
X219870197Y-125767147D01*
X219841172Y-125830703D01*
X219803755Y-125859984D01*
X219761423Y-125881553D01*
X219618346Y-125985503D01*
X219976307Y-126343464D01*
X219883398Y-126410967D01*
X219760967Y-126533398D01*
X219693464Y-126626307D01*
X219335503Y-126268346D01*
X219231555Y-126411420D01*
X219117219Y-126635815D01*
X219039397Y-126875330D01*
X219000000Y-127124071D01*
X219000000Y-127375928D01*
X219039397Y-127624669D01*
X219117219Y-127864184D01*
X219231559Y-128088586D01*
X219335502Y-128231652D01*
X219335503Y-128231653D01*
X219693464Y-127873691D01*
X219760967Y-127966602D01*
X219883398Y-128089033D01*
X219976306Y-128156534D01*
X219618345Y-128514495D01*
X219618346Y-128514497D01*
X219761413Y-128618440D01*
X219985815Y-128732780D01*
X220225330Y-128810602D01*
X220474072Y-128850000D01*
X220725928Y-128850000D01*
X220974669Y-128810602D01*
X221214184Y-128732780D01*
X221438583Y-128618442D01*
X221581652Y-128514495D01*
X221581653Y-128514495D01*
X221223693Y-128156534D01*
X221316602Y-128089033D01*
X221439033Y-127966602D01*
X221506534Y-127873692D01*
X221864495Y-128231653D01*
X221864495Y-128231652D01*
X221968442Y-128088583D01*
X222082780Y-127864184D01*
X222160602Y-127624669D01*
X222200000Y-127375928D01*
X222200000Y-127124071D01*
X222160602Y-126875330D01*
X222082780Y-126635815D01*
X221968440Y-126411413D01*
X221864497Y-126268346D01*
X221864495Y-126268345D01*
X221506534Y-126626306D01*
X221439033Y-126533398D01*
X221316602Y-126410967D01*
X221223692Y-126343464D01*
X221485255Y-126081902D01*
X232099500Y-126081902D01*
X232099500Y-126318097D01*
X232136446Y-126551368D01*
X232209433Y-126775996D01*
X232235802Y-126827747D01*
X232316657Y-126986433D01*
X232455483Y-127177510D01*
X232622490Y-127344517D01*
X232813567Y-127483343D01*
X232861143Y-127507584D01*
X233024003Y-127590566D01*
X233024005Y-127590566D01*
X233024008Y-127590568D01*
X233128960Y-127624669D01*
X233248631Y-127663553D01*
X233481903Y-127700500D01*
X233481908Y-127700500D01*
X233718097Y-127700500D01*
X233951368Y-127663553D01*
X234175992Y-127590568D01*
X234386433Y-127483343D01*
X234577510Y-127344517D01*
X234744517Y-127177510D01*
X234883343Y-126986433D01*
X234990568Y-126775992D01*
X235063553Y-126551368D01*
X235066399Y-126533398D01*
X235100500Y-126318097D01*
X235100500Y-126081902D01*
X235079005Y-125946197D01*
X235063553Y-125848632D01*
X235063552Y-125848628D01*
X235063552Y-125848627D01*
X235043794Y-125787818D01*
X235041799Y-125717977D01*
X235077879Y-125658144D01*
X235140580Y-125627316D01*
X235161725Y-125625500D01*
X239747459Y-125625500D01*
X239814498Y-125645185D01*
X239860253Y-125697989D01*
X239870197Y-125767147D01*
X239841172Y-125830703D01*
X239803755Y-125859984D01*
X239761423Y-125881553D01*
X239618346Y-125985503D01*
X239976307Y-126343464D01*
X239883398Y-126410967D01*
X239760967Y-126533398D01*
X239693464Y-126626307D01*
X239335503Y-126268346D01*
X239231555Y-126411420D01*
X239117219Y-126635815D01*
X239039397Y-126875330D01*
X239000000Y-127124071D01*
X239000000Y-127375928D01*
X239039397Y-127624669D01*
X239117219Y-127864184D01*
X239231559Y-128088586D01*
X239335502Y-128231652D01*
X239335503Y-128231653D01*
X239693464Y-127873691D01*
X239760967Y-127966602D01*
X239883398Y-128089033D01*
X239976306Y-128156534D01*
X239618345Y-128514495D01*
X239618346Y-128514497D01*
X239761413Y-128618440D01*
X239985815Y-128732780D01*
X240225330Y-128810602D01*
X240474072Y-128850000D01*
X240725928Y-128850000D01*
X240974669Y-128810602D01*
X241214184Y-128732780D01*
X241438583Y-128618442D01*
X241581652Y-128514495D01*
X241581653Y-128514495D01*
X241223693Y-128156534D01*
X241316602Y-128089033D01*
X241439033Y-127966602D01*
X241506534Y-127873692D01*
X241864495Y-128231653D01*
X241864495Y-128231652D01*
X241968442Y-128088583D01*
X242082780Y-127864184D01*
X242160602Y-127624669D01*
X242200000Y-127375928D01*
X242200000Y-127124071D01*
X242160602Y-126875330D01*
X242082780Y-126635815D01*
X241968440Y-126411413D01*
X241864497Y-126268346D01*
X241864495Y-126268345D01*
X241506534Y-126626306D01*
X241439033Y-126533398D01*
X241316602Y-126410967D01*
X241223692Y-126343464D01*
X241485255Y-126081902D01*
X252099500Y-126081902D01*
X252099500Y-126318097D01*
X252136446Y-126551368D01*
X252209433Y-126775996D01*
X252235802Y-126827747D01*
X252316657Y-126986433D01*
X252455483Y-127177510D01*
X252622490Y-127344517D01*
X252813567Y-127483343D01*
X252861143Y-127507584D01*
X253024003Y-127590566D01*
X253024005Y-127590566D01*
X253024008Y-127590568D01*
X253128960Y-127624669D01*
X253248631Y-127663553D01*
X253481903Y-127700500D01*
X253481908Y-127700500D01*
X253718097Y-127700500D01*
X253951368Y-127663553D01*
X254175992Y-127590568D01*
X254386433Y-127483343D01*
X254577510Y-127344517D01*
X254744517Y-127177510D01*
X254883343Y-126986433D01*
X254990568Y-126775992D01*
X255063553Y-126551368D01*
X255066399Y-126533398D01*
X255100500Y-126318097D01*
X255100500Y-126081902D01*
X255079005Y-125946197D01*
X255063553Y-125848632D01*
X255063552Y-125848628D01*
X255063552Y-125848627D01*
X255043794Y-125787818D01*
X255041799Y-125717977D01*
X255077879Y-125658144D01*
X255140580Y-125627316D01*
X255161725Y-125625500D01*
X259747459Y-125625500D01*
X259814498Y-125645185D01*
X259860253Y-125697989D01*
X259870197Y-125767147D01*
X259841172Y-125830703D01*
X259803755Y-125859984D01*
X259761423Y-125881553D01*
X259618346Y-125985503D01*
X259976307Y-126343464D01*
X259883398Y-126410967D01*
X259760967Y-126533398D01*
X259693464Y-126626307D01*
X259335503Y-126268346D01*
X259231555Y-126411420D01*
X259117219Y-126635815D01*
X259039397Y-126875330D01*
X259000000Y-127124071D01*
X259000000Y-127375928D01*
X259039397Y-127624669D01*
X259117219Y-127864184D01*
X259231559Y-128088586D01*
X259335502Y-128231652D01*
X259335503Y-128231653D01*
X259693464Y-127873691D01*
X259760967Y-127966602D01*
X259883398Y-128089033D01*
X259976306Y-128156534D01*
X259618345Y-128514495D01*
X259618346Y-128514497D01*
X259761413Y-128618440D01*
X259985815Y-128732780D01*
X260225330Y-128810602D01*
X260474072Y-128850000D01*
X260725928Y-128850000D01*
X260974669Y-128810602D01*
X261214184Y-128732780D01*
X261438583Y-128618442D01*
X261581652Y-128514495D01*
X261581653Y-128514495D01*
X261223693Y-128156534D01*
X261316602Y-128089033D01*
X261439033Y-127966602D01*
X261506534Y-127873692D01*
X261864495Y-128231653D01*
X261864495Y-128231652D01*
X261968442Y-128088583D01*
X262082780Y-127864184D01*
X262160602Y-127624669D01*
X262200000Y-127375928D01*
X262200000Y-127124071D01*
X262160602Y-126875330D01*
X262082780Y-126635815D01*
X261968440Y-126411413D01*
X261864497Y-126268346D01*
X261864495Y-126268345D01*
X261506534Y-126626306D01*
X261439033Y-126533398D01*
X261316602Y-126410967D01*
X261223692Y-126343464D01*
X261581653Y-125985503D01*
X261581652Y-125985502D01*
X261438584Y-125881557D01*
X261396245Y-125859984D01*
X261345450Y-125812010D01*
X261328655Y-125744189D01*
X261351193Y-125678054D01*
X261405908Y-125634603D01*
X261452541Y-125625500D01*
X265495613Y-125625500D01*
X265562652Y-125645185D01*
X265583294Y-125661818D01*
X265661985Y-125740509D01*
X265661987Y-125740510D01*
X265661988Y-125740511D01*
X265787511Y-125812982D01*
X265787512Y-125812982D01*
X265787515Y-125812984D01*
X265927525Y-125850500D01*
X265927528Y-125850500D01*
X266072472Y-125850500D01*
X266072475Y-125850500D01*
X266212485Y-125812984D01*
X266338015Y-125740509D01*
X266440509Y-125638015D01*
X266446565Y-125627525D01*
X286249500Y-125627525D01*
X286249500Y-125772475D01*
X286278728Y-125881553D01*
X286287017Y-125912488D01*
X286359488Y-126038011D01*
X286359490Y-126038013D01*
X286359491Y-126038015D01*
X286461985Y-126140509D01*
X286461986Y-126140510D01*
X286461988Y-126140511D01*
X286587511Y-126212982D01*
X286587512Y-126212982D01*
X286587515Y-126212984D01*
X286727525Y-126250500D01*
X286727528Y-126250500D01*
X286872472Y-126250500D01*
X286872475Y-126250500D01*
X287012485Y-126212984D01*
X287138015Y-126140509D01*
X287141705Y-126136819D01*
X287203028Y-126103334D01*
X287229386Y-126100500D01*
X302370614Y-126100500D01*
X302437653Y-126120185D01*
X302458295Y-126136819D01*
X302461985Y-126140509D01*
X302461986Y-126140510D01*
X302461988Y-126140511D01*
X302587511Y-126212982D01*
X302587512Y-126212982D01*
X302587515Y-126212984D01*
X302727525Y-126250500D01*
X302727528Y-126250500D01*
X302872472Y-126250500D01*
X302872475Y-126250500D01*
X303012485Y-126212984D01*
X303138015Y-126140509D01*
X303240509Y-126038015D01*
X303312984Y-125912485D01*
X303350500Y-125772475D01*
X303350500Y-125627525D01*
X303312984Y-125487515D01*
X303270289Y-125413566D01*
X303240511Y-125361988D01*
X303240506Y-125361982D01*
X303138017Y-125259493D01*
X303138011Y-125259488D01*
X303012488Y-125187017D01*
X303012489Y-125187017D01*
X303001006Y-125183940D01*
X302872475Y-125149500D01*
X302727525Y-125149500D01*
X302598993Y-125183940D01*
X302587511Y-125187017D01*
X302461988Y-125259488D01*
X302461982Y-125259493D01*
X302458295Y-125263181D01*
X302396972Y-125296666D01*
X302370614Y-125299500D01*
X287229386Y-125299500D01*
X287162347Y-125279815D01*
X287141705Y-125263181D01*
X287138017Y-125259493D01*
X287138011Y-125259488D01*
X287012488Y-125187017D01*
X287012489Y-125187017D01*
X287001006Y-125183940D01*
X286872475Y-125149500D01*
X286727525Y-125149500D01*
X286598993Y-125183940D01*
X286587511Y-125187017D01*
X286461988Y-125259488D01*
X286461982Y-125259493D01*
X286359493Y-125361982D01*
X286359488Y-125361988D01*
X286287017Y-125487511D01*
X286287016Y-125487515D01*
X286249500Y-125627525D01*
X266446565Y-125627525D01*
X266512984Y-125512485D01*
X266550500Y-125372475D01*
X266550500Y-125227525D01*
X266512984Y-125087515D01*
X266494491Y-125055485D01*
X266440511Y-124961988D01*
X266440506Y-124961982D01*
X266338017Y-124859493D01*
X266338011Y-124859488D01*
X266212488Y-124787017D01*
X266212489Y-124787017D01*
X266201006Y-124783940D01*
X266072475Y-124749500D01*
X265927525Y-124749500D01*
X265798993Y-124783940D01*
X265787511Y-124787017D01*
X265661988Y-124859488D01*
X265583294Y-124938182D01*
X265521970Y-124971666D01*
X265495613Y-124974500D01*
X254506337Y-124974500D01*
X254439298Y-124954815D01*
X254433460Y-124950824D01*
X254386433Y-124916657D01*
X254175996Y-124809433D01*
X253951368Y-124736446D01*
X253718097Y-124699500D01*
X253718092Y-124699500D01*
X253481908Y-124699500D01*
X253481903Y-124699500D01*
X253248631Y-124736446D01*
X253024003Y-124809433D01*
X252813566Y-124916657D01*
X252751174Y-124961988D01*
X252622490Y-125055483D01*
X252622488Y-125055485D01*
X252622487Y-125055485D01*
X252455485Y-125222487D01*
X252455485Y-125222488D01*
X252455483Y-125222490D01*
X252428600Y-125259491D01*
X252316657Y-125413566D01*
X252209433Y-125624003D01*
X252136446Y-125848631D01*
X252099500Y-126081902D01*
X241485255Y-126081902D01*
X241577802Y-125989355D01*
X241581653Y-125985503D01*
X241581652Y-125985502D01*
X241438584Y-125881557D01*
X241396245Y-125859984D01*
X241345450Y-125812010D01*
X241328655Y-125744189D01*
X241351193Y-125678054D01*
X241405908Y-125634603D01*
X241452541Y-125625500D01*
X245495613Y-125625500D01*
X245562652Y-125645185D01*
X245583294Y-125661818D01*
X245661985Y-125740509D01*
X245661987Y-125740510D01*
X245661988Y-125740511D01*
X245787511Y-125812982D01*
X245787512Y-125812982D01*
X245787515Y-125812984D01*
X245927525Y-125850500D01*
X245927528Y-125850500D01*
X246072472Y-125850500D01*
X246072475Y-125850500D01*
X246212485Y-125812984D01*
X246338015Y-125740509D01*
X246440509Y-125638015D01*
X246512984Y-125512485D01*
X246550500Y-125372475D01*
X246550500Y-125227525D01*
X246512984Y-125087515D01*
X246494491Y-125055485D01*
X246440511Y-124961988D01*
X246440506Y-124961982D01*
X246338017Y-124859493D01*
X246338011Y-124859488D01*
X246212488Y-124787017D01*
X246212489Y-124787017D01*
X246201006Y-124783940D01*
X246072475Y-124749500D01*
X245927525Y-124749500D01*
X245798993Y-124783940D01*
X245787511Y-124787017D01*
X245661988Y-124859488D01*
X245583294Y-124938182D01*
X245521970Y-124971666D01*
X245495613Y-124974500D01*
X234506337Y-124974500D01*
X234439298Y-124954815D01*
X234433460Y-124950824D01*
X234386433Y-124916657D01*
X234175996Y-124809433D01*
X233951368Y-124736446D01*
X233718097Y-124699500D01*
X233718092Y-124699500D01*
X233481908Y-124699500D01*
X233481903Y-124699500D01*
X233248631Y-124736446D01*
X233024003Y-124809433D01*
X232813566Y-124916657D01*
X232751174Y-124961988D01*
X232622490Y-125055483D01*
X232622488Y-125055485D01*
X232622487Y-125055485D01*
X232455485Y-125222487D01*
X232455485Y-125222488D01*
X232455483Y-125222490D01*
X232428600Y-125259491D01*
X232316657Y-125413566D01*
X232209433Y-125624003D01*
X232136446Y-125848631D01*
X232099500Y-126081902D01*
X221485255Y-126081902D01*
X221577802Y-125989355D01*
X221581653Y-125985503D01*
X221581652Y-125985502D01*
X221438584Y-125881557D01*
X221396245Y-125859984D01*
X221345450Y-125812010D01*
X221328655Y-125744189D01*
X221351193Y-125678054D01*
X221405908Y-125634603D01*
X221452541Y-125625500D01*
X225495613Y-125625500D01*
X225562652Y-125645185D01*
X225583294Y-125661818D01*
X225661985Y-125740509D01*
X225661987Y-125740510D01*
X225661988Y-125740511D01*
X225787511Y-125812982D01*
X225787512Y-125812982D01*
X225787515Y-125812984D01*
X225927525Y-125850500D01*
X225927528Y-125850500D01*
X226072472Y-125850500D01*
X226072475Y-125850500D01*
X226212485Y-125812984D01*
X226338015Y-125740509D01*
X226440509Y-125638015D01*
X226512984Y-125512485D01*
X226550500Y-125372475D01*
X226550500Y-125227525D01*
X226512984Y-125087515D01*
X226494491Y-125055485D01*
X226440511Y-124961988D01*
X226440506Y-124961982D01*
X226338017Y-124859493D01*
X226338011Y-124859488D01*
X226212488Y-124787017D01*
X226212489Y-124787017D01*
X226201006Y-124783940D01*
X226072475Y-124749500D01*
X225927525Y-124749500D01*
X225798993Y-124783940D01*
X225787511Y-124787017D01*
X225661988Y-124859488D01*
X225583294Y-124938182D01*
X225521970Y-124971666D01*
X225495613Y-124974500D01*
X214506337Y-124974500D01*
X214439298Y-124954815D01*
X214433460Y-124950824D01*
X214386433Y-124916657D01*
X214175996Y-124809433D01*
X213951368Y-124736446D01*
X213718097Y-124699500D01*
X213718092Y-124699500D01*
X213481908Y-124699500D01*
X213481903Y-124699500D01*
X213248631Y-124736446D01*
X213024003Y-124809433D01*
X212813566Y-124916657D01*
X212751174Y-124961988D01*
X212622490Y-125055483D01*
X212622488Y-125055485D01*
X212622487Y-125055485D01*
X212455485Y-125222487D01*
X212455485Y-125222488D01*
X212455483Y-125222490D01*
X212428600Y-125259491D01*
X212316657Y-125413566D01*
X212209433Y-125624003D01*
X212136446Y-125848631D01*
X212099500Y-126081902D01*
X204700500Y-126081902D01*
X204700500Y-121336824D01*
X215094500Y-121336824D01*
X215094500Y-121663175D01*
X215131035Y-121987441D01*
X215131038Y-121987455D01*
X215203655Y-122305612D01*
X215203656Y-122305614D01*
X215311438Y-122613640D01*
X215453030Y-122907657D01*
X215453032Y-122907660D01*
X215626654Y-123183979D01*
X215830123Y-123439121D01*
X216060879Y-123669877D01*
X216316021Y-123873346D01*
X216592340Y-124046968D01*
X216886361Y-124188562D01*
X217194387Y-124296344D01*
X217512544Y-124368962D01*
X217512553Y-124368963D01*
X217512558Y-124368964D01*
X217728735Y-124393320D01*
X217836825Y-124405499D01*
X217836828Y-124405500D01*
X217836831Y-124405500D01*
X218163172Y-124405500D01*
X218163173Y-124405499D01*
X218328900Y-124386826D01*
X218487441Y-124368964D01*
X218487444Y-124368963D01*
X218487456Y-124368962D01*
X218805613Y-124296344D01*
X219113639Y-124188562D01*
X219407660Y-124046968D01*
X219683979Y-123873346D01*
X219939121Y-123669877D01*
X220169877Y-123439121D01*
X220373346Y-123183979D01*
X220546968Y-122907660D01*
X220688562Y-122613639D01*
X220796344Y-122305613D01*
X220868962Y-121987456D01*
X220905500Y-121663169D01*
X220905500Y-121336831D01*
X220905499Y-121336824D01*
X235094500Y-121336824D01*
X235094500Y-121663175D01*
X235131035Y-121987441D01*
X235131038Y-121987455D01*
X235203655Y-122305612D01*
X235203656Y-122305614D01*
X235311438Y-122613640D01*
X235453030Y-122907657D01*
X235453032Y-122907660D01*
X235626654Y-123183979D01*
X235830123Y-123439121D01*
X236060879Y-123669877D01*
X236316021Y-123873346D01*
X236592340Y-124046968D01*
X236886361Y-124188562D01*
X237194387Y-124296344D01*
X237512544Y-124368962D01*
X237512553Y-124368963D01*
X237512558Y-124368964D01*
X237728735Y-124393320D01*
X237836825Y-124405499D01*
X237836828Y-124405500D01*
X237836831Y-124405500D01*
X238163172Y-124405500D01*
X238163173Y-124405499D01*
X238328900Y-124386826D01*
X238487441Y-124368964D01*
X238487444Y-124368963D01*
X238487456Y-124368962D01*
X238805613Y-124296344D01*
X239113639Y-124188562D01*
X239407660Y-124046968D01*
X239683979Y-123873346D01*
X239939121Y-123669877D01*
X240169877Y-123439121D01*
X240373346Y-123183979D01*
X240546968Y-122907660D01*
X240688562Y-122613639D01*
X240796344Y-122305613D01*
X240868962Y-121987456D01*
X240905500Y-121663169D01*
X240905500Y-121336831D01*
X240905499Y-121336824D01*
X255094500Y-121336824D01*
X255094500Y-121663175D01*
X255131035Y-121987441D01*
X255131038Y-121987455D01*
X255203655Y-122305612D01*
X255203656Y-122305614D01*
X255311438Y-122613640D01*
X255453030Y-122907657D01*
X255453032Y-122907660D01*
X255626654Y-123183979D01*
X255830123Y-123439121D01*
X256060879Y-123669877D01*
X256316021Y-123873346D01*
X256592340Y-124046968D01*
X256886361Y-124188562D01*
X257194387Y-124296344D01*
X257512544Y-124368962D01*
X257512553Y-124368963D01*
X257512558Y-124368964D01*
X257728735Y-124393320D01*
X257836825Y-124405499D01*
X257836828Y-124405500D01*
X257836831Y-124405500D01*
X258163172Y-124405500D01*
X258163173Y-124405499D01*
X258328900Y-124386826D01*
X258487441Y-124368964D01*
X258487444Y-124368963D01*
X258487456Y-124368962D01*
X258805613Y-124296344D01*
X259113639Y-124188562D01*
X259407660Y-124046968D01*
X259683979Y-123873346D01*
X259939121Y-123669877D01*
X260169877Y-123439121D01*
X260373346Y-123183979D01*
X260546968Y-122907660D01*
X260688562Y-122613639D01*
X260796344Y-122305613D01*
X260868962Y-121987456D01*
X260905500Y-121663169D01*
X260905500Y-121336831D01*
X260868962Y-121012544D01*
X260796344Y-120694387D01*
X260688562Y-120386361D01*
X260546968Y-120092340D01*
X260373346Y-119816021D01*
X260169877Y-119560879D01*
X259939121Y-119330123D01*
X259683979Y-119126654D01*
X259407660Y-118953032D01*
X259407657Y-118953030D01*
X259113640Y-118811438D01*
X258805614Y-118703656D01*
X258805612Y-118703655D01*
X258560073Y-118647612D01*
X258487456Y-118631038D01*
X258487453Y-118631037D01*
X258487441Y-118631035D01*
X258163175Y-118594500D01*
X258163169Y-118594500D01*
X257836831Y-118594500D01*
X257836824Y-118594500D01*
X257512558Y-118631035D01*
X257512544Y-118631038D01*
X257194387Y-118703655D01*
X257194385Y-118703656D01*
X256886359Y-118811438D01*
X256592342Y-118953030D01*
X256316022Y-119126653D01*
X256060879Y-119330122D01*
X255830122Y-119560879D01*
X255626653Y-119816022D01*
X255453030Y-120092342D01*
X255311438Y-120386359D01*
X255203656Y-120694385D01*
X255203655Y-120694387D01*
X255131038Y-121012544D01*
X255131035Y-121012558D01*
X255094500Y-121336824D01*
X240905499Y-121336824D01*
X240868962Y-121012544D01*
X240796344Y-120694387D01*
X240688562Y-120386361D01*
X240546968Y-120092340D01*
X240373346Y-119816021D01*
X240169877Y-119560879D01*
X239939121Y-119330123D01*
X239683979Y-119126654D01*
X239407660Y-118953032D01*
X239407657Y-118953030D01*
X239113640Y-118811438D01*
X238805614Y-118703656D01*
X238805612Y-118703655D01*
X238560073Y-118647612D01*
X238487456Y-118631038D01*
X238487453Y-118631037D01*
X238487441Y-118631035D01*
X238163175Y-118594500D01*
X238163169Y-118594500D01*
X237836831Y-118594500D01*
X237836824Y-118594500D01*
X237512558Y-118631035D01*
X237512544Y-118631038D01*
X237194387Y-118703655D01*
X237194385Y-118703656D01*
X236886359Y-118811438D01*
X236592342Y-118953030D01*
X236316022Y-119126653D01*
X236060879Y-119330122D01*
X235830122Y-119560879D01*
X235626653Y-119816022D01*
X235453030Y-120092342D01*
X235311438Y-120386359D01*
X235203656Y-120694385D01*
X235203655Y-120694387D01*
X235131038Y-121012544D01*
X235131035Y-121012558D01*
X235094500Y-121336824D01*
X220905499Y-121336824D01*
X220868962Y-121012544D01*
X220796344Y-120694387D01*
X220688562Y-120386361D01*
X220546968Y-120092340D01*
X220373346Y-119816021D01*
X220169877Y-119560879D01*
X219939121Y-119330123D01*
X219683979Y-119126654D01*
X219407660Y-118953032D01*
X219407657Y-118953030D01*
X219113640Y-118811438D01*
X218805614Y-118703656D01*
X218805612Y-118703655D01*
X218560073Y-118647612D01*
X218487456Y-118631038D01*
X218487453Y-118631037D01*
X218487441Y-118631035D01*
X218163175Y-118594500D01*
X218163169Y-118594500D01*
X217836831Y-118594500D01*
X217836824Y-118594500D01*
X217512558Y-118631035D01*
X217512544Y-118631038D01*
X217194387Y-118703655D01*
X217194385Y-118703656D01*
X216886359Y-118811438D01*
X216592342Y-118953030D01*
X216316022Y-119126653D01*
X216060879Y-119330122D01*
X215830122Y-119560879D01*
X215626653Y-119816022D01*
X215453030Y-120092342D01*
X215311438Y-120386359D01*
X215203656Y-120694385D01*
X215203655Y-120694387D01*
X215131038Y-121012544D01*
X215131035Y-121012558D01*
X215094500Y-121336824D01*
X204700500Y-121336824D01*
X204700500Y-114627525D01*
X234049500Y-114627525D01*
X234049500Y-114772475D01*
X234076529Y-114873346D01*
X234087017Y-114912488D01*
X234159488Y-115038011D01*
X234159490Y-115038013D01*
X234159491Y-115038015D01*
X234261985Y-115140509D01*
X234261986Y-115140510D01*
X234261988Y-115140511D01*
X234387511Y-115212982D01*
X234387512Y-115212982D01*
X234387515Y-115212984D01*
X234527525Y-115250500D01*
X234527528Y-115250500D01*
X234672472Y-115250500D01*
X234672475Y-115250500D01*
X234812485Y-115212984D01*
X234938015Y-115140509D01*
X235016706Y-115061818D01*
X235078030Y-115028334D01*
X235104387Y-115025500D01*
X249004495Y-115025500D01*
X249071534Y-115045185D01*
X249117289Y-115097989D01*
X249127233Y-115167147D01*
X249098208Y-115230703D01*
X249066496Y-115256886D01*
X249061991Y-115259486D01*
X249061982Y-115259493D01*
X248959493Y-115361982D01*
X248959488Y-115361988D01*
X248887017Y-115487511D01*
X248887016Y-115487515D01*
X248849500Y-115627525D01*
X248849500Y-115772475D01*
X248872817Y-115859493D01*
X248887017Y-115912488D01*
X248959488Y-116038011D01*
X248959490Y-116038013D01*
X248959491Y-116038015D01*
X249061985Y-116140509D01*
X249061986Y-116140510D01*
X249061988Y-116140511D01*
X249187511Y-116212982D01*
X249187512Y-116212982D01*
X249187515Y-116212984D01*
X249327525Y-116250500D01*
X249327528Y-116250500D01*
X249438811Y-116250500D01*
X249505850Y-116270185D01*
X249526492Y-116286819D01*
X250213181Y-116973508D01*
X250246666Y-117034831D01*
X250249500Y-117061189D01*
X250249500Y-117172475D01*
X250275189Y-117268345D01*
X250287017Y-117312488D01*
X250359488Y-117438011D01*
X250359490Y-117438013D01*
X250359491Y-117438015D01*
X250461985Y-117540509D01*
X250461986Y-117540510D01*
X250461988Y-117540511D01*
X250587511Y-117612982D01*
X250587512Y-117612982D01*
X250587515Y-117612984D01*
X250727525Y-117650500D01*
X250727528Y-117650500D01*
X250872472Y-117650500D01*
X250872475Y-117650500D01*
X251012485Y-117612984D01*
X251138015Y-117540509D01*
X251240509Y-117438015D01*
X251312984Y-117312485D01*
X251350500Y-117172475D01*
X251350500Y-117081902D01*
X270099500Y-117081902D01*
X270099500Y-117318097D01*
X270136446Y-117551368D01*
X270209433Y-117775996D01*
X270235802Y-117827747D01*
X270316657Y-117986433D01*
X270455483Y-118177510D01*
X270622490Y-118344517D01*
X270813567Y-118483343D01*
X270861143Y-118507584D01*
X271024003Y-118590566D01*
X271024005Y-118590566D01*
X271024008Y-118590568D01*
X271128960Y-118624669D01*
X271248631Y-118663553D01*
X271481903Y-118700500D01*
X271481908Y-118700500D01*
X271718097Y-118700500D01*
X271951368Y-118663553D01*
X272175992Y-118590568D01*
X272386433Y-118483343D01*
X272577510Y-118344517D01*
X272744517Y-118177510D01*
X272883343Y-117986433D01*
X272990568Y-117775992D01*
X273063553Y-117551368D01*
X273081506Y-117438017D01*
X273100500Y-117318097D01*
X273100500Y-117081902D01*
X273069711Y-116887515D01*
X273063553Y-116848632D01*
X273063552Y-116848628D01*
X273063552Y-116848627D01*
X273043794Y-116787818D01*
X273041799Y-116717977D01*
X273077879Y-116658144D01*
X273140580Y-116627316D01*
X273161725Y-116625500D01*
X277747459Y-116625500D01*
X277814498Y-116645185D01*
X277860253Y-116697989D01*
X277870197Y-116767147D01*
X277841172Y-116830703D01*
X277803755Y-116859984D01*
X277761423Y-116881553D01*
X277618346Y-116985503D01*
X277976307Y-117343464D01*
X277883398Y-117410967D01*
X277760967Y-117533398D01*
X277693464Y-117626307D01*
X277335503Y-117268346D01*
X277231555Y-117411420D01*
X277117219Y-117635815D01*
X277039397Y-117875330D01*
X277000000Y-118124071D01*
X277000000Y-118375928D01*
X277039397Y-118624669D01*
X277117219Y-118864184D01*
X277231559Y-119088586D01*
X277335502Y-119231652D01*
X277335503Y-119231653D01*
X277693464Y-118873691D01*
X277760967Y-118966602D01*
X277883398Y-119089033D01*
X277976306Y-119156534D01*
X277618345Y-119514495D01*
X277618346Y-119514497D01*
X277761413Y-119618440D01*
X277985815Y-119732780D01*
X278225330Y-119810602D01*
X278474072Y-119850000D01*
X278725928Y-119850000D01*
X278974669Y-119810602D01*
X279214184Y-119732780D01*
X279438583Y-119618442D01*
X279581652Y-119514495D01*
X279581653Y-119514495D01*
X279223693Y-119156534D01*
X279316602Y-119089033D01*
X279439033Y-118966602D01*
X279506534Y-118873692D01*
X279864495Y-119231653D01*
X279864495Y-119231652D01*
X279968442Y-119088583D01*
X280082780Y-118864184D01*
X280160602Y-118624669D01*
X280200000Y-118375928D01*
X280200000Y-118124071D01*
X280160602Y-117875330D01*
X280082780Y-117635815D01*
X279968440Y-117411413D01*
X279864497Y-117268346D01*
X279864495Y-117268345D01*
X279506534Y-117626306D01*
X279439033Y-117533398D01*
X279316602Y-117410967D01*
X279223692Y-117343464D01*
X279581653Y-116985503D01*
X279581652Y-116985502D01*
X279438584Y-116881557D01*
X279396245Y-116859984D01*
X279345450Y-116812010D01*
X279328655Y-116744189D01*
X279351193Y-116678054D01*
X279405908Y-116634603D01*
X279452541Y-116625500D01*
X283495613Y-116625500D01*
X283562652Y-116645185D01*
X283583294Y-116661818D01*
X283661985Y-116740509D01*
X283661987Y-116740510D01*
X283661988Y-116740511D01*
X283787511Y-116812982D01*
X283787512Y-116812982D01*
X283787515Y-116812984D01*
X283927525Y-116850500D01*
X283927528Y-116850500D01*
X284072472Y-116850500D01*
X284072475Y-116850500D01*
X284212485Y-116812984D01*
X284338015Y-116740509D01*
X284440509Y-116638015D01*
X284512984Y-116512485D01*
X284550500Y-116372475D01*
X284550500Y-116227525D01*
X284512984Y-116087515D01*
X284494491Y-116055485D01*
X284440511Y-115961988D01*
X284440506Y-115961982D01*
X284338017Y-115859493D01*
X284338011Y-115859488D01*
X284212488Y-115787017D01*
X284212489Y-115787017D01*
X284201006Y-115783940D01*
X284072475Y-115749500D01*
X283927525Y-115749500D01*
X283798993Y-115783940D01*
X283787511Y-115787017D01*
X283661988Y-115859488D01*
X283583294Y-115938182D01*
X283521970Y-115971666D01*
X283495613Y-115974500D01*
X272506337Y-115974500D01*
X272439298Y-115954815D01*
X272433460Y-115950824D01*
X272386433Y-115916657D01*
X272378245Y-115912485D01*
X272175996Y-115809433D01*
X271951368Y-115736446D01*
X271718097Y-115699500D01*
X271718092Y-115699500D01*
X271481908Y-115699500D01*
X271481903Y-115699500D01*
X271248631Y-115736446D01*
X271024003Y-115809433D01*
X270813566Y-115916657D01*
X270751174Y-115961988D01*
X270622490Y-116055483D01*
X270622488Y-116055485D01*
X270622487Y-116055485D01*
X270455485Y-116222487D01*
X270455485Y-116222488D01*
X270455483Y-116222490D01*
X270408745Y-116286819D01*
X270316657Y-116413566D01*
X270209433Y-116624003D01*
X270136446Y-116848631D01*
X270099500Y-117081902D01*
X251350500Y-117081902D01*
X251350500Y-117027525D01*
X251312984Y-116887515D01*
X251291613Y-116850500D01*
X251240511Y-116761988D01*
X251240506Y-116761982D01*
X251138017Y-116659493D01*
X251138011Y-116659488D01*
X251012488Y-116587017D01*
X251012489Y-116587017D01*
X251001006Y-116583940D01*
X250872475Y-116549500D01*
X250761189Y-116549500D01*
X250694150Y-116529815D01*
X250673508Y-116513181D01*
X249986819Y-115826492D01*
X249953334Y-115765169D01*
X249950500Y-115738811D01*
X249950500Y-115627527D01*
X249950500Y-115627525D01*
X249912984Y-115487515D01*
X249865632Y-115405500D01*
X249840511Y-115361988D01*
X249840506Y-115361982D01*
X249738017Y-115259493D01*
X249738015Y-115259491D01*
X249738012Y-115259489D01*
X249738008Y-115259486D01*
X249733504Y-115256886D01*
X249685289Y-115206319D01*
X249672067Y-115137712D01*
X249698035Y-115072847D01*
X249754950Y-115032319D01*
X249795505Y-115025500D01*
X262642851Y-115025500D01*
X262642853Y-115025500D01*
X262725639Y-115003318D01*
X262799862Y-114960465D01*
X263873507Y-113886818D01*
X263934830Y-113853334D01*
X263961188Y-113850500D01*
X264072472Y-113850500D01*
X264072475Y-113850500D01*
X264212485Y-113812984D01*
X264338015Y-113740509D01*
X264440509Y-113638015D01*
X264512984Y-113512485D01*
X264550500Y-113372475D01*
X264550500Y-113227525D01*
X264512984Y-113087515D01*
X264440509Y-112961985D01*
X264338015Y-112859491D01*
X264338012Y-112859489D01*
X264338008Y-112859486D01*
X264333504Y-112856886D01*
X264285289Y-112806319D01*
X264272067Y-112737712D01*
X264298035Y-112672847D01*
X264354950Y-112632319D01*
X264395505Y-112625500D01*
X267695613Y-112625500D01*
X267762652Y-112645185D01*
X267783294Y-112661818D01*
X267861985Y-112740509D01*
X267861987Y-112740510D01*
X267861988Y-112740511D01*
X267987511Y-112812982D01*
X267987512Y-112812982D01*
X267987515Y-112812984D01*
X268127525Y-112850500D01*
X268127528Y-112850500D01*
X268272472Y-112850500D01*
X268272475Y-112850500D01*
X268412485Y-112812984D01*
X268538015Y-112740509D01*
X268640509Y-112638015D01*
X268712984Y-112512485D01*
X268750500Y-112372475D01*
X268750500Y-112336824D01*
X273094500Y-112336824D01*
X273094500Y-112663175D01*
X273131035Y-112987441D01*
X273131038Y-112987455D01*
X273203655Y-113305612D01*
X273203656Y-113305614D01*
X273311438Y-113613640D01*
X273453030Y-113907657D01*
X273453032Y-113907660D01*
X273626654Y-114183979D01*
X273830123Y-114439121D01*
X274060879Y-114669877D01*
X274316021Y-114873346D01*
X274592340Y-115046968D01*
X274886361Y-115188562D01*
X275194387Y-115296344D01*
X275512544Y-115368962D01*
X275512553Y-115368963D01*
X275512558Y-115368964D01*
X275728735Y-115393320D01*
X275836825Y-115405499D01*
X275836828Y-115405500D01*
X275836831Y-115405500D01*
X276163172Y-115405500D01*
X276163173Y-115405499D01*
X276328900Y-115386826D01*
X276487441Y-115368964D01*
X276487444Y-115368963D01*
X276487456Y-115368962D01*
X276805613Y-115296344D01*
X277113639Y-115188562D01*
X277407660Y-115046968D01*
X277683979Y-114873346D01*
X277939121Y-114669877D01*
X278169877Y-114439121D01*
X278373346Y-114183979D01*
X278546968Y-113907660D01*
X278688562Y-113613639D01*
X278796344Y-113305613D01*
X278868962Y-112987456D01*
X278905500Y-112663169D01*
X278905500Y-112336831D01*
X278878801Y-112099864D01*
X278868964Y-112012558D01*
X278868963Y-112012553D01*
X278868962Y-112012544D01*
X278796344Y-111694387D01*
X278688562Y-111386361D01*
X278546968Y-111092340D01*
X278373346Y-110816021D01*
X278169877Y-110560879D01*
X277939121Y-110330123D01*
X277917007Y-110312488D01*
X277796201Y-110216148D01*
X277683979Y-110126654D01*
X277407660Y-109953032D01*
X277407657Y-109953030D01*
X277113640Y-109811438D01*
X276805614Y-109703656D01*
X276805612Y-109703655D01*
X276554923Y-109646437D01*
X276487456Y-109631038D01*
X276487453Y-109631037D01*
X276487441Y-109631035D01*
X276163175Y-109594500D01*
X276163169Y-109594500D01*
X275836831Y-109594500D01*
X275836824Y-109594500D01*
X275512558Y-109631035D01*
X275512544Y-109631038D01*
X275194387Y-109703655D01*
X275194385Y-109703656D01*
X274886359Y-109811438D01*
X274592342Y-109953030D01*
X274316022Y-110126653D01*
X274060879Y-110330122D01*
X273830122Y-110560879D01*
X273626653Y-110816022D01*
X273453030Y-111092342D01*
X273311438Y-111386359D01*
X273203656Y-111694385D01*
X273203655Y-111694387D01*
X273131038Y-112012544D01*
X273131035Y-112012558D01*
X273094500Y-112336824D01*
X268750500Y-112336824D01*
X268750500Y-112227525D01*
X268712984Y-112087515D01*
X268677260Y-112025640D01*
X268640511Y-111961988D01*
X268640506Y-111961982D01*
X268538017Y-111859493D01*
X268538011Y-111859488D01*
X268412488Y-111787017D01*
X268412489Y-111787017D01*
X268401006Y-111783940D01*
X268272475Y-111749500D01*
X268127525Y-111749500D01*
X267998993Y-111783940D01*
X267987511Y-111787017D01*
X267861988Y-111859488D01*
X267783294Y-111938182D01*
X267721970Y-111971666D01*
X267695613Y-111974500D01*
X244853653Y-111974500D01*
X244786614Y-111954815D01*
X244740859Y-111902011D01*
X244730915Y-111832853D01*
X244759940Y-111769297D01*
X244784762Y-111747398D01*
X244808854Y-111731300D01*
X244911297Y-111628857D01*
X244911300Y-111628854D01*
X244991792Y-111508390D01*
X245047235Y-111374538D01*
X245075500Y-111232440D01*
X245075500Y-111087560D01*
X245047235Y-110945462D01*
X245047233Y-110945457D01*
X244991795Y-110811616D01*
X244991788Y-110811603D01*
X244911300Y-110691146D01*
X244911297Y-110691142D01*
X244903192Y-110683037D01*
X244869707Y-110621714D01*
X244874691Y-110552022D01*
X244903193Y-110507674D01*
X244988584Y-110422284D01*
X244988587Y-110422280D01*
X245079963Y-110285527D01*
X245079970Y-110285514D01*
X245142910Y-110133562D01*
X245142913Y-110133553D01*
X245151576Y-110090000D01*
X244249000Y-110090000D01*
X244205970Y-110077364D01*
X244236148Y-110025095D01*
X244260000Y-109936078D01*
X244260000Y-109843922D01*
X244236148Y-109754905D01*
X244198675Y-109690000D01*
X244325000Y-109690000D01*
X245151576Y-109690000D01*
X245151576Y-109689999D01*
X245142913Y-109646446D01*
X245142910Y-109646437D01*
X245079970Y-109494485D01*
X245079963Y-109494472D01*
X244988588Y-109357720D01*
X244973551Y-109342684D01*
X244940064Y-109281361D01*
X244945047Y-109211669D01*
X244973551Y-109167316D01*
X244988588Y-109152279D01*
X245079963Y-109015527D01*
X245079970Y-109015514D01*
X245142910Y-108863562D01*
X245142913Y-108863553D01*
X245151576Y-108820000D01*
X244325000Y-108820000D01*
X244325000Y-109690000D01*
X244198675Y-109690000D01*
X244190070Y-109675095D01*
X244124905Y-109609930D01*
X244045095Y-109563852D01*
X243956078Y-109540000D01*
X243925000Y-109540000D01*
X243925000Y-108970000D01*
X243956078Y-108970000D01*
X244045095Y-108946148D01*
X244124905Y-108900070D01*
X244190070Y-108834905D01*
X244236148Y-108755095D01*
X244260000Y-108666078D01*
X244260000Y-108573922D01*
X244236148Y-108484905D01*
X244198675Y-108420000D01*
X244325000Y-108420000D01*
X245151576Y-108420000D01*
X245151576Y-108419999D01*
X245142913Y-108376446D01*
X245142910Y-108376437D01*
X245079970Y-108224485D01*
X245079963Y-108224472D01*
X244988588Y-108087720D01*
X244973551Y-108072684D01*
X244940064Y-108011361D01*
X244945047Y-107941669D01*
X244973551Y-107897316D01*
X244988588Y-107882279D01*
X245079963Y-107745527D01*
X245079970Y-107745514D01*
X245142910Y-107593562D01*
X245142913Y-107593553D01*
X245151576Y-107550000D01*
X244325000Y-107550000D01*
X244325000Y-108420000D01*
X244198675Y-108420000D01*
X244190070Y-108405095D01*
X244124905Y-108339930D01*
X244045095Y-108293852D01*
X243956078Y-108270000D01*
X243925000Y-108270000D01*
X243925000Y-107700000D01*
X243956078Y-107700000D01*
X244045095Y-107676148D01*
X244124905Y-107630070D01*
X244190070Y-107564905D01*
X244236148Y-107485095D01*
X244260000Y-107396078D01*
X244260000Y-107303922D01*
X244236148Y-107214905D01*
X244198675Y-107150000D01*
X244325000Y-107150000D01*
X245151576Y-107150000D01*
X245151576Y-107149999D01*
X245142913Y-107106446D01*
X245142910Y-107106437D01*
X245079970Y-106954485D01*
X245079963Y-106954472D01*
X244988588Y-106817720D01*
X244973551Y-106802684D01*
X244940064Y-106741361D01*
X244945047Y-106671669D01*
X244973551Y-106627316D01*
X244988588Y-106612279D01*
X245079963Y-106475527D01*
X245079970Y-106475514D01*
X245142910Y-106323562D01*
X245142913Y-106323553D01*
X245151576Y-106280000D01*
X244325000Y-106280000D01*
X244325000Y-107150000D01*
X244198675Y-107150000D01*
X244190070Y-107135095D01*
X244124905Y-107069930D01*
X244045095Y-107023852D01*
X243956078Y-107000000D01*
X243925000Y-107000000D01*
X243925000Y-106430000D01*
X243956078Y-106430000D01*
X244045095Y-106406148D01*
X244124905Y-106360070D01*
X244190070Y-106294905D01*
X244236148Y-106215095D01*
X244260000Y-106126078D01*
X244260000Y-106033922D01*
X244236148Y-105944905D01*
X244198675Y-105880000D01*
X244325000Y-105880000D01*
X245151576Y-105880000D01*
X245151576Y-105879999D01*
X245142913Y-105836446D01*
X245142910Y-105836437D01*
X245079970Y-105684485D01*
X245079963Y-105684472D01*
X244988588Y-105547720D01*
X244973551Y-105532684D01*
X244940064Y-105471361D01*
X244945047Y-105401669D01*
X244973551Y-105357316D01*
X244988588Y-105342279D01*
X245079963Y-105205527D01*
X245079970Y-105205514D01*
X245142910Y-105053562D01*
X245142913Y-105053553D01*
X245151576Y-105010000D01*
X244325000Y-105010000D01*
X244325000Y-105880000D01*
X244198675Y-105880000D01*
X244190070Y-105865095D01*
X244124905Y-105799930D01*
X244045095Y-105753852D01*
X243956078Y-105730000D01*
X243925000Y-105730000D01*
X243925000Y-105160000D01*
X243956078Y-105160000D01*
X244045095Y-105136148D01*
X244124905Y-105090070D01*
X244190070Y-105024905D01*
X244236148Y-104945095D01*
X244260000Y-104856078D01*
X244260000Y-104763922D01*
X244236148Y-104674905D01*
X244204290Y-104619726D01*
X244249000Y-104610000D01*
X245151576Y-104610000D01*
X245160898Y-104598640D01*
X245163531Y-104569213D01*
X245206393Y-104514035D01*
X245272282Y-104490789D01*
X245340280Y-104506856D01*
X245366603Y-104526930D01*
X248252656Y-107412982D01*
X251139533Y-110299859D01*
X251139535Y-110299862D01*
X251200138Y-110360465D01*
X251206838Y-110364333D01*
X251274361Y-110403318D01*
X251357147Y-110425500D01*
X266495613Y-110425500D01*
X266562652Y-110445185D01*
X266583294Y-110461818D01*
X266661985Y-110540509D01*
X266661987Y-110540510D01*
X266661988Y-110540511D01*
X266787511Y-110612982D01*
X266787512Y-110612982D01*
X266787515Y-110612984D01*
X266927525Y-110650500D01*
X266927528Y-110650500D01*
X267072472Y-110650500D01*
X267072475Y-110650500D01*
X267212485Y-110612984D01*
X267338015Y-110540509D01*
X267440509Y-110438015D01*
X267512984Y-110312485D01*
X267550500Y-110172475D01*
X267550500Y-110027525D01*
X267512984Y-109887515D01*
X267487815Y-109843922D01*
X267440511Y-109761988D01*
X267440506Y-109761982D01*
X267338017Y-109659493D01*
X267338011Y-109659488D01*
X267212488Y-109587017D01*
X267212489Y-109587017D01*
X267193258Y-109581864D01*
X267072475Y-109549500D01*
X266927525Y-109549500D01*
X266806742Y-109581864D01*
X266787511Y-109587017D01*
X266661988Y-109659488D01*
X266583294Y-109738182D01*
X266521970Y-109771666D01*
X266495613Y-109774500D01*
X251586188Y-109774500D01*
X251519149Y-109754815D01*
X251498507Y-109738181D01*
X249417987Y-107657660D01*
X249384502Y-107596337D01*
X249389486Y-107526645D01*
X249431358Y-107470712D01*
X249473569Y-107450206D01*
X249612485Y-107412984D01*
X249738015Y-107340509D01*
X249816706Y-107261818D01*
X249878030Y-107228334D01*
X249904387Y-107225500D01*
X262695613Y-107225500D01*
X262762652Y-107245185D01*
X262783294Y-107261818D01*
X262861985Y-107340509D01*
X262861987Y-107340510D01*
X262861988Y-107340511D01*
X262987511Y-107412982D01*
X262987512Y-107412982D01*
X262987515Y-107412984D01*
X263127525Y-107450500D01*
X263127528Y-107450500D01*
X263272472Y-107450500D01*
X263272475Y-107450500D01*
X263412485Y-107412984D01*
X263538015Y-107340509D01*
X263640509Y-107238015D01*
X263712984Y-107112485D01*
X263750500Y-106972475D01*
X263750500Y-106827525D01*
X263712984Y-106687515D01*
X263703835Y-106671669D01*
X263640511Y-106561988D01*
X263640506Y-106561982D01*
X263538017Y-106459493D01*
X263538011Y-106459488D01*
X263412488Y-106387017D01*
X263412489Y-106387017D01*
X263401006Y-106383940D01*
X263272475Y-106349500D01*
X263127525Y-106349500D01*
X262998993Y-106383940D01*
X262987511Y-106387017D01*
X262861988Y-106459488D01*
X262783294Y-106538182D01*
X262721970Y-106571666D01*
X262695613Y-106574500D01*
X249904387Y-106574500D01*
X249837348Y-106554815D01*
X249816706Y-106538182D01*
X249738015Y-106459491D01*
X249738012Y-106459489D01*
X249738011Y-106459488D01*
X249612488Y-106387017D01*
X249612489Y-106387017D01*
X249601006Y-106383940D01*
X249472475Y-106349500D01*
X249327525Y-106349500D01*
X249198993Y-106383940D01*
X249187511Y-106387017D01*
X249061988Y-106459488D01*
X249061982Y-106459493D01*
X248959493Y-106561982D01*
X248959488Y-106561988D01*
X248887017Y-106687511D01*
X248887016Y-106687515D01*
X248849794Y-106826427D01*
X248813430Y-106886086D01*
X248750583Y-106916615D01*
X248681207Y-106908320D01*
X248642339Y-106882013D01*
X246867406Y-105107079D01*
X246787852Y-105027525D01*
X260849499Y-105027525D01*
X260849499Y-105172475D01*
X260887015Y-105312485D01*
X260887016Y-105312488D01*
X260959487Y-105438011D01*
X260959489Y-105438013D01*
X260959490Y-105438015D01*
X261061984Y-105540509D01*
X261061985Y-105540510D01*
X261061987Y-105540511D01*
X261187510Y-105612982D01*
X261187511Y-105612982D01*
X261187514Y-105612984D01*
X261327524Y-105650500D01*
X261327527Y-105650500D01*
X261472471Y-105650500D01*
X261472474Y-105650500D01*
X261612484Y-105612984D01*
X261738014Y-105540509D01*
X261741704Y-105536819D01*
X261803027Y-105503334D01*
X261829385Y-105500500D01*
X264321614Y-105500500D01*
X264388653Y-105520185D01*
X264434408Y-105572989D01*
X264444352Y-105642147D01*
X264415327Y-105705703D01*
X264409295Y-105712181D01*
X264359493Y-105761982D01*
X264359488Y-105761988D01*
X264287017Y-105887511D01*
X264287016Y-105887515D01*
X264249500Y-106027525D01*
X264249500Y-106172475D01*
X264287016Y-106312485D01*
X264287017Y-106312488D01*
X264359488Y-106438011D01*
X264359490Y-106438013D01*
X264359491Y-106438015D01*
X264461985Y-106540509D01*
X264461986Y-106540510D01*
X264461988Y-106540511D01*
X264587511Y-106612982D01*
X264587512Y-106612982D01*
X264587515Y-106612984D01*
X264727525Y-106650500D01*
X264727528Y-106650500D01*
X264872472Y-106650500D01*
X264872475Y-106650500D01*
X265012485Y-106612984D01*
X265138015Y-106540509D01*
X265216706Y-106461818D01*
X265278030Y-106428334D01*
X265304387Y-106425500D01*
X300695613Y-106425500D01*
X300762652Y-106445185D01*
X300783294Y-106461818D01*
X300861985Y-106540509D01*
X300861987Y-106540510D01*
X300861988Y-106540511D01*
X300987511Y-106612982D01*
X300987512Y-106612982D01*
X300987515Y-106612984D01*
X301127525Y-106650500D01*
X301127528Y-106650500D01*
X301272472Y-106650500D01*
X301272475Y-106650500D01*
X301412485Y-106612984D01*
X301538015Y-106540509D01*
X301640509Y-106438015D01*
X301712984Y-106312485D01*
X301750500Y-106172475D01*
X301750500Y-106027525D01*
X301712984Y-105887515D01*
X301708645Y-105880000D01*
X301640511Y-105761988D01*
X301640506Y-105761982D01*
X301538017Y-105659493D01*
X301538011Y-105659488D01*
X301412488Y-105587017D01*
X301412489Y-105587017D01*
X301390653Y-105581166D01*
X301272475Y-105549500D01*
X301127525Y-105549500D01*
X301009347Y-105581166D01*
X300987511Y-105587017D01*
X300861988Y-105659488D01*
X300783294Y-105738182D01*
X300721970Y-105771666D01*
X300695613Y-105774500D01*
X285195505Y-105774500D01*
X285128466Y-105754815D01*
X285082711Y-105702011D01*
X285072767Y-105632853D01*
X285101792Y-105569297D01*
X285133504Y-105543114D01*
X285138008Y-105540513D01*
X285138007Y-105540513D01*
X285138015Y-105540509D01*
X285240509Y-105438015D01*
X285312984Y-105312485D01*
X285350500Y-105172475D01*
X285350500Y-105027525D01*
X285312984Y-104887515D01*
X285310056Y-104882444D01*
X285240511Y-104761988D01*
X285240506Y-104761982D01*
X285138017Y-104659493D01*
X285138011Y-104659488D01*
X285012488Y-104587017D01*
X285012489Y-104587017D01*
X285001006Y-104583940D01*
X284872475Y-104549500D01*
X284727525Y-104549500D01*
X284598993Y-104583940D01*
X284587511Y-104587017D01*
X284461988Y-104659488D01*
X284461982Y-104659493D01*
X284458295Y-104663181D01*
X284396972Y-104696666D01*
X284370614Y-104699500D01*
X268629386Y-104699500D01*
X268562347Y-104679815D01*
X268541705Y-104663181D01*
X268538017Y-104659493D01*
X268538011Y-104659488D01*
X268412488Y-104587017D01*
X268412489Y-104587017D01*
X268401006Y-104583940D01*
X268272475Y-104549500D01*
X268127525Y-104549500D01*
X267998993Y-104583940D01*
X267987511Y-104587017D01*
X267861988Y-104659488D01*
X267861982Y-104659493D01*
X267858295Y-104663181D01*
X267796972Y-104696666D01*
X267770614Y-104699500D01*
X261829385Y-104699500D01*
X261762346Y-104679815D01*
X261741704Y-104663181D01*
X261738016Y-104659493D01*
X261738010Y-104659488D01*
X261612487Y-104587017D01*
X261612488Y-104587017D01*
X261601005Y-104583940D01*
X261472474Y-104549500D01*
X261327524Y-104549500D01*
X261198992Y-104583940D01*
X261187510Y-104587017D01*
X261061987Y-104659488D01*
X261061981Y-104659493D01*
X260959492Y-104761982D01*
X260959487Y-104761988D01*
X260887016Y-104887511D01*
X260887015Y-104887515D01*
X260849499Y-105027525D01*
X246787852Y-105027525D01*
X245397508Y-103637181D01*
X245364023Y-103575858D01*
X245369007Y-103506166D01*
X245410879Y-103450233D01*
X245476343Y-103425816D01*
X245485189Y-103425500D01*
X258095613Y-103425500D01*
X258162652Y-103445185D01*
X258183294Y-103461818D01*
X258261985Y-103540509D01*
X258261987Y-103540510D01*
X258261988Y-103540511D01*
X258387511Y-103612982D01*
X258387512Y-103612982D01*
X258387515Y-103612984D01*
X258527525Y-103650500D01*
X258527528Y-103650500D01*
X258672472Y-103650500D01*
X258672475Y-103650500D01*
X258812485Y-103612984D01*
X258938015Y-103540509D01*
X259040509Y-103438015D01*
X259112984Y-103312485D01*
X259150500Y-103172475D01*
X259150500Y-103027525D01*
X259112984Y-102887515D01*
X259104641Y-102873065D01*
X259040511Y-102761988D01*
X259040506Y-102761982D01*
X258938017Y-102659493D01*
X258938011Y-102659488D01*
X258812488Y-102587017D01*
X258812489Y-102587017D01*
X258801006Y-102583940D01*
X258672475Y-102549500D01*
X258527525Y-102549500D01*
X258398993Y-102583940D01*
X258387511Y-102587017D01*
X258261988Y-102659488D01*
X258183294Y-102738182D01*
X258121970Y-102771666D01*
X258095613Y-102774500D01*
X240704387Y-102774500D01*
X240637348Y-102754815D01*
X240616706Y-102738182D01*
X240538015Y-102659491D01*
X240538012Y-102659489D01*
X240538011Y-102659488D01*
X240412488Y-102587017D01*
X240412489Y-102587017D01*
X240401006Y-102583940D01*
X240272475Y-102549500D01*
X240127525Y-102549500D01*
X239998993Y-102583940D01*
X239987511Y-102587017D01*
X239861988Y-102659488D01*
X239861982Y-102659493D01*
X239759493Y-102761982D01*
X239759488Y-102761988D01*
X239687017Y-102887511D01*
X239687016Y-102887515D01*
X239649500Y-103027525D01*
X239649500Y-103172475D01*
X239687016Y-103312485D01*
X239687017Y-103312488D01*
X239759488Y-103438011D01*
X239759490Y-103438013D01*
X239759491Y-103438015D01*
X239861985Y-103540509D01*
X239861986Y-103540510D01*
X239861988Y-103540511D01*
X239987511Y-103612982D01*
X239987512Y-103612982D01*
X239987515Y-103612984D01*
X240127525Y-103650500D01*
X240127528Y-103650500D01*
X240272472Y-103650500D01*
X240272475Y-103650500D01*
X240412485Y-103612984D01*
X240538015Y-103540509D01*
X240616706Y-103461818D01*
X240678030Y-103428334D01*
X240704387Y-103425500D01*
X242714811Y-103425500D01*
X242781850Y-103445185D01*
X242827605Y-103497989D01*
X242837549Y-103567147D01*
X242808524Y-103630703D01*
X242802492Y-103637181D01*
X242401492Y-104038181D01*
X242340169Y-104071666D01*
X242313811Y-104074500D01*
X242137555Y-104074500D01*
X241995469Y-104102763D01*
X241995457Y-104102766D01*
X241861616Y-104158204D01*
X241861603Y-104158211D01*
X241741146Y-104238699D01*
X241741142Y-104238702D01*
X241638702Y-104341142D01*
X241638699Y-104341146D01*
X241558211Y-104461603D01*
X241558204Y-104461616D01*
X241502766Y-104595457D01*
X241502763Y-104595469D01*
X241474500Y-104737555D01*
X241474500Y-104882444D01*
X241502763Y-105024530D01*
X241502766Y-105024542D01*
X241558204Y-105158383D01*
X241558211Y-105158396D01*
X241638699Y-105278853D01*
X241638702Y-105278857D01*
X241717164Y-105357319D01*
X241750649Y-105418642D01*
X241745665Y-105488334D01*
X241717164Y-105532681D01*
X241638702Y-105611142D01*
X241638699Y-105611146D01*
X241558211Y-105731603D01*
X241558204Y-105731616D01*
X241502766Y-105865457D01*
X241502763Y-105865467D01*
X241487922Y-105940077D01*
X241455536Y-106001988D01*
X241428307Y-106023271D01*
X241400141Y-106039533D01*
X241400135Y-106039537D01*
X240739537Y-106700135D01*
X240739533Y-106700141D01*
X240696681Y-106774361D01*
X240692155Y-106791256D01*
X240692155Y-106791257D01*
X240692155Y-106791258D01*
X240674500Y-106857147D01*
X240674500Y-111857147D01*
X240674500Y-111942853D01*
X240679626Y-111961985D01*
X240696682Y-112025640D01*
X240718108Y-112062750D01*
X240739535Y-112099862D01*
X241139534Y-112499861D01*
X241139535Y-112499862D01*
X241200138Y-112560465D01*
X241200140Y-112560466D01*
X241200144Y-112560469D01*
X241274355Y-112603314D01*
X241274362Y-112603318D01*
X241357147Y-112625500D01*
X241442852Y-112625500D01*
X263604495Y-112625500D01*
X263671534Y-112645185D01*
X263717289Y-112697989D01*
X263727233Y-112767147D01*
X263698208Y-112830703D01*
X263666496Y-112856886D01*
X263661991Y-112859486D01*
X263661982Y-112859493D01*
X263559493Y-112961982D01*
X263559488Y-112961988D01*
X263487017Y-113087511D01*
X263487016Y-113087515D01*
X263449500Y-113227525D01*
X263449500Y-113227527D01*
X263449500Y-113338810D01*
X263429815Y-113405849D01*
X263413181Y-113426491D01*
X262501492Y-114338181D01*
X262440169Y-114371666D01*
X262413811Y-114374500D01*
X235104387Y-114374500D01*
X235037348Y-114354815D01*
X235016706Y-114338182D01*
X235016705Y-114338181D01*
X234938015Y-114259491D01*
X234938012Y-114259489D01*
X234938011Y-114259488D01*
X234812488Y-114187017D01*
X234812489Y-114187017D01*
X234801006Y-114183940D01*
X234672475Y-114149500D01*
X234527525Y-114149500D01*
X234398993Y-114183940D01*
X234387511Y-114187017D01*
X234261988Y-114259488D01*
X234261982Y-114259493D01*
X234159493Y-114361982D01*
X234159488Y-114361988D01*
X234087017Y-114487511D01*
X234087016Y-114487515D01*
X234049500Y-114627525D01*
X204700500Y-114627525D01*
X204700500Y-105326933D01*
X204720185Y-105259894D01*
X204772989Y-105214139D01*
X204842147Y-105204195D01*
X204905703Y-105233220D01*
X204943159Y-105290936D01*
X204957676Y-105338791D01*
X204963439Y-105357788D01*
X205267163Y-105926014D01*
X205267166Y-105926018D01*
X205267167Y-105926020D01*
X205324623Y-105996030D01*
X205675915Y-106424083D01*
X205996909Y-106687515D01*
X206173979Y-106832832D01*
X206173982Y-106832833D01*
X206173984Y-106832835D01*
X206742210Y-107136559D01*
X206742212Y-107136559D01*
X206742215Y-107136561D01*
X207358786Y-107323596D01*
X208000000Y-107386749D01*
X208641213Y-107323596D01*
X209257784Y-107136561D01*
X209302822Y-107112488D01*
X209826014Y-106832835D01*
X209826012Y-106832835D01*
X209826020Y-106832832D01*
X210324083Y-106424083D01*
X210732832Y-105926020D01*
X210932682Y-105552127D01*
X211036559Y-105357788D01*
X211036559Y-105357787D01*
X211036561Y-105357784D01*
X211223596Y-104741213D01*
X211286750Y-104100000D01*
X211223596Y-103458786D01*
X211036561Y-102842215D01*
X211036559Y-102842212D01*
X211036559Y-102842210D01*
X210732835Y-102273984D01*
X210732833Y-102273982D01*
X210732832Y-102273979D01*
X210485395Y-101972475D01*
X210424327Y-101898063D01*
X210366438Y-101827525D01*
X240649500Y-101827525D01*
X240649500Y-101972475D01*
X240687016Y-102112485D01*
X240687017Y-102112488D01*
X240759488Y-102238011D01*
X240759490Y-102238013D01*
X240759491Y-102238015D01*
X240861985Y-102340509D01*
X240861986Y-102340510D01*
X240861988Y-102340511D01*
X240987511Y-102412982D01*
X240987512Y-102412982D01*
X240987515Y-102412984D01*
X241127525Y-102450500D01*
X241127528Y-102450500D01*
X241272472Y-102450500D01*
X241272475Y-102450500D01*
X241412485Y-102412984D01*
X241538015Y-102340509D01*
X241616706Y-102261818D01*
X241678030Y-102228334D01*
X241704387Y-102225500D01*
X260095613Y-102225500D01*
X260162652Y-102245185D01*
X260183294Y-102261818D01*
X260261985Y-102340509D01*
X260261987Y-102340510D01*
X260261988Y-102340511D01*
X260387511Y-102412982D01*
X260387512Y-102412982D01*
X260387515Y-102412984D01*
X260527525Y-102450500D01*
X260527528Y-102450500D01*
X260672472Y-102450500D01*
X260672475Y-102450500D01*
X260812485Y-102412984D01*
X260938015Y-102340509D01*
X261040509Y-102238015D01*
X261112984Y-102112485D01*
X261150500Y-101972475D01*
X261150500Y-101827525D01*
X261112984Y-101687515D01*
X261046098Y-101571666D01*
X261040511Y-101561988D01*
X261040506Y-101561982D01*
X260938017Y-101459493D01*
X260938011Y-101459488D01*
X260812488Y-101387017D01*
X260812489Y-101387017D01*
X260790253Y-101381059D01*
X260672475Y-101349500D01*
X260527525Y-101349500D01*
X260409747Y-101381059D01*
X260387511Y-101387017D01*
X260261988Y-101459488D01*
X260183294Y-101538182D01*
X260121970Y-101571666D01*
X260095613Y-101574500D01*
X241704387Y-101574500D01*
X241637348Y-101554815D01*
X241616706Y-101538182D01*
X241585306Y-101506782D01*
X241538015Y-101459491D01*
X241538012Y-101459489D01*
X241538011Y-101459488D01*
X241412488Y-101387017D01*
X241412489Y-101387017D01*
X241390253Y-101381059D01*
X241272475Y-101349500D01*
X241127525Y-101349500D01*
X241009747Y-101381059D01*
X240987511Y-101387017D01*
X240861988Y-101459488D01*
X240861982Y-101459493D01*
X240759493Y-101561982D01*
X240759488Y-101561988D01*
X240687017Y-101687511D01*
X240687016Y-101687515D01*
X240649500Y-101827525D01*
X210366438Y-101827525D01*
X210324083Y-101775915D01*
X209826021Y-101367168D01*
X209826014Y-101367163D01*
X209257788Y-101063439D01*
X209238791Y-101057676D01*
X209190936Y-101043159D01*
X209132499Y-101004863D01*
X209104043Y-100941051D01*
X209114603Y-100871984D01*
X209160827Y-100819590D01*
X209226933Y-100800500D01*
X306473066Y-100800500D01*
X306540105Y-100820185D01*
G37*
%TD.AperFunction*%
%TD*%
M02*
