%TF.GenerationSoftware,KiCad,Pcbnew,9.0.9-9.0.9~ubuntu24.04.1*%
%TF.CreationDate,2026-09-28T15:46:40+00:00*%
%TF.ProjectId,key-board-rh,6b65792d-626f-4617-9264-2d72682e6b69,A*%
%TF.SameCoordinates,Original*%
%TF.FileFunction,Soldermask,Bot*%
%TF.FilePolarity,Negative*%
%FSLAX46Y46*%
G04 Gerber Fmt 4.6, Leading zero omitted, Abs format (unit mm)*
G04 Created by KiCad (PCBNEW 9.0.9-9.0.9~ubuntu24.04.1) date 2026-09-28 15:46:40*
%MOMM*%
%LPD*%
G01*
G04 APERTURE LIST*
G04 Aperture macros list*
%AMRoundRect*
0 Rectangle with rounded corners*
0 $1 Rounding radius*
0 $2 $3 $4 $5 $6 $7 $8 $9 X,Y pos of 4 corners*
0 Add a 4 corners polygon primitive as box body*
4,1,4,$2,$3,$4,$5,$6,$7,$8,$9,$2,$3,0*
0 Add four circle primitives for the rounded corners*
1,1,$1+$1,$2,$3*
1,1,$1+$1,$4,$5*
1,1,$1+$1,$6,$7*
1,1,$1+$1,$8,$9*
0 Add four rect primitives between the rounded corners*
20,1,$1+$1,$2,$3,$4,$5,0*
20,1,$1+$1,$4,$5,$6,$7,0*
20,1,$1+$1,$6,$7,$8,$9,0*
20,1,$1+$1,$8,$9,$2,$3,0*%
G04 Aperture macros list end*
%ADD10C,5.250000*%
%ADD11C,2.000000*%
%ADD12RoundRect,0.250000X0.250000X0.475000X-0.250000X0.475000X-0.250000X-0.475000X0.250000X-0.475000X0*%
%ADD13RoundRect,0.250000X-0.450000X0.262500X-0.450000X-0.262500X0.450000X-0.262500X0.450000X0.262500X0*%
%ADD14R,1.500000X1.070000*%
%ADD15O,1.500000X1.070000*%
%ADD16C,2.200000*%
%ADD17RoundRect,0.250000X0.475000X-0.250000X0.475000X0.250000X-0.475000X0.250000X-0.475000X-0.250000X0*%
%ADD18C,1.000000*%
%ADD19RoundRect,0.150000X0.150000X-0.825000X0.150000X0.825000X-0.150000X0.825000X-0.150000X-0.825000X0*%
G04 APERTURE END LIST*
D10*
%TO.C,SW3*%
X258200000Y-121500000D03*
D11*
X253800000Y-126200000D03*
X260800000Y-127250000D03*
%TD*%
D10*
%TO.C,SW5*%
X276200000Y-112500000D03*
D11*
X271800000Y-117200000D03*
X278800000Y-118250000D03*
%TD*%
D10*
%TO.C,SW4*%
X276200000Y-130500000D03*
D11*
X271800000Y-135200000D03*
X278800000Y-136250000D03*
%TD*%
D10*
%TO.C,SW6*%
X294200000Y-130500000D03*
D11*
X289800000Y-135200000D03*
X296800000Y-136250000D03*
%TD*%
D10*
%TO.C,SW2*%
X238200000Y-121500000D03*
D11*
X233800000Y-126200000D03*
X240800000Y-127250000D03*
%TD*%
D10*
%TO.C,SW1*%
X218200000Y-121500000D03*
D11*
X213800000Y-126200000D03*
X220800000Y-127250000D03*
%TD*%
D12*
%TO.C,C2*%
X246450000Y-121500000D03*
X244550000Y-121500000D03*
%TD*%
D13*
%TO.C,R9*%
X286200000Y-114287500D03*
X286200000Y-116112500D03*
%TD*%
D14*
%TO.C,J1*%
X231625000Y-111160000D03*
D15*
X233325000Y-111160000D03*
X231625000Y-109890000D03*
X233325000Y-109890000D03*
X231625000Y-108620000D03*
X233325000Y-108620000D03*
X231625000Y-107350000D03*
X233325000Y-107350000D03*
X231625000Y-106080000D03*
X233325000Y-106080000D03*
X231625000Y-104810000D03*
X233325000Y-104810000D03*
%TD*%
D16*
%TO.C,H4*%
X307900000Y-103900000D03*
%TD*%
D13*
%TO.C,R2*%
X228200000Y-117887500D03*
X228200000Y-119712500D03*
%TD*%
D12*
%TO.C,C1*%
X226450000Y-121500000D03*
X224550000Y-121500000D03*
%TD*%
%TO.C,C6*%
X302450000Y-130500000D03*
X300550000Y-130500000D03*
%TD*%
D17*
%TO.C,C8*%
X227700000Y-108950000D03*
X227700000Y-107050000D03*
%TD*%
D12*
%TO.C,C5*%
X284450000Y-112500000D03*
X282550000Y-112500000D03*
%TD*%
D18*
%TO.C,TP6*%
X268700000Y-114000000D03*
%TD*%
%TO.C,TP1*%
X251200000Y-114000000D03*
%TD*%
D13*
%TO.C,R10*%
X286200000Y-108887500D03*
X286200000Y-110712500D03*
%TD*%
%TO.C,R5*%
X268200000Y-123287500D03*
X268200000Y-125112500D03*
%TD*%
%TO.C,R11*%
X304200000Y-132287499D03*
X304200000Y-134112499D03*
%TD*%
%TO.C,R12*%
X304200000Y-126887500D03*
X304200000Y-128712500D03*
%TD*%
D19*
%TO.C,U1*%
X263145000Y-108475000D03*
X261875000Y-108475000D03*
X260605000Y-108475000D03*
X259335000Y-108475000D03*
X258065000Y-108475000D03*
X256795000Y-108475000D03*
X255525000Y-108475000D03*
X254255000Y-108475000D03*
X254255000Y-103525000D03*
X255525000Y-103525000D03*
X256795000Y-103525000D03*
X258065000Y-103525000D03*
X259335000Y-103525000D03*
X260605000Y-103525000D03*
X261875000Y-103525000D03*
X263145000Y-103525000D03*
%TD*%
D12*
%TO.C,C3*%
X266450000Y-121500000D03*
X264550000Y-121500000D03*
%TD*%
D13*
%TO.C,R3*%
X248200000Y-123287500D03*
X248200000Y-125112500D03*
%TD*%
D17*
%TO.C,C7*%
X252200000Y-109150000D03*
X252200000Y-107250000D03*
%TD*%
D13*
%TO.C,R4*%
X248200000Y-117887500D03*
X248200000Y-119712500D03*
%TD*%
D16*
%TO.C,H2*%
X208600000Y-103900000D03*
%TD*%
D18*
%TO.C,TP5*%
X265200000Y-114000000D03*
%TD*%
%TO.C,TP2*%
X254700000Y-114000000D03*
%TD*%
D16*
%TO.C,H3*%
X307900000Y-139100000D03*
%TD*%
D13*
%TO.C,R6*%
X268200000Y-117887500D03*
X268200000Y-119712500D03*
%TD*%
D18*
%TO.C,TP3*%
X258200000Y-114000000D03*
%TD*%
D12*
%TO.C,C4*%
X284450000Y-130500000D03*
X282550000Y-130500000D03*
%TD*%
D13*
%TO.C,R7*%
X286200000Y-132287499D03*
X286200000Y-134112499D03*
%TD*%
%TO.C,R8*%
X286200000Y-126887500D03*
X286200000Y-128712500D03*
%TD*%
D18*
%TO.C,TP4*%
X261700000Y-114000000D03*
%TD*%
D13*
%TO.C,R1*%
X228200000Y-123287500D03*
X228200000Y-125112500D03*
%TD*%
D16*
%TO.C,H1*%
X208600000Y-139100000D03*
%TD*%
M02*
