M48
; DRILL file {KiCad 9.0.9-9.0.9~ubuntu24.04.1} date 2026-09-29T20:16:33+0000
; FORMAT={-:-/ absolute / metric / decimal}
; #@! TF.CreationDate,2026-09-29T20:16:33+00:00
; #@! TF.GenerationSoftware,Kicad,Pcbnew,9.0.9-9.0.9~ubuntu24.04.1
; #@! TF.FileFunction,Plated,1,2,PTH
FMAT,2
METRIC
; #@! TA.AperFunction,Plated,PTH,ViaDrill
T1C0.300
; #@! TA.AperFunction,Plated,PTH,ComponentDrill
T2C0.700
; #@! TA.AperFunction,Plated,PTH,ComponentDrill
T3C2.200
%
G90
G05
T1
X225.0Y-103.9
X226.0Y-125.3
X227.2Y-103.1
X228.2Y-101.9
X230.8Y-117.5
X231.8Y-114.7
X244.0Y-116.5
X246.0Y-117.5
X246.0Y-125.3
X253.2Y-103.1
X254.2Y-117.1
X254.8Y-118.9
X255.2Y-101.9
X256.0Y-105.1
X256.4Y-114.7
X259.2Y-106.7
X260.6Y-106.7
X261.6Y-110.1
X261.6Y-111.3
X262.6Y-105.1
X262.8Y-112.3
X264.0Y-117.9
X266.0Y-125.3
X266.8Y-108.9
X268.8Y-111.3
X278.2Y-106.7
X280.2Y-109.9
X281.4Y-125.1
X284.0Y-108.9
X284.0Y-116.3
X284.0Y-134.3
X286.8Y-125.7
X298.2Y-127.9
X301.4Y-107.7
X302.0Y-134.3
X302.8Y-125.7
T2
X229.64Y-104.81
X229.64Y-106.08
X229.64Y-107.35
X229.64Y-108.62
X229.64Y-109.89
X229.64Y-111.16
X230.91Y-104.81
X230.91Y-106.08
X230.91Y-107.35
X230.91Y-108.62
X230.91Y-109.89
X230.91Y-111.16
T3
X213.6Y-126.2
X220.6Y-127.25
X233.6Y-126.2
X240.6Y-127.25
X253.6Y-126.2
X260.6Y-127.25
X271.6Y-117.2
X271.6Y-135.2
X278.6Y-118.25
X278.6Y-136.25
X289.6Y-135.2
X296.6Y-136.25
M30
