M48
; DRILL file {KiCad 9.0.9-9.0.9~ubuntu24.04.1} date 2026-09-29T22:25:37+0000
; FORMAT={-:-/ absolute / metric / decimal}
; #@! TF.CreationDate,2026-09-29T22:25:37+00:00
; #@! TF.GenerationSoftware,Kicad,Pcbnew,9.0.9-9.0.9~ubuntu24.04.1
; #@! TF.FileFunction,Plated,1,2,PTH
FMAT,2
METRIC
; #@! TA.AperFunction,Plated,PTH,ViaDrill
T1C0.300
; #@! TA.AperFunction,Plated,PTH,ComponentDrill
T2C0.700
; #@! TA.AperFunction,Plated,PTH,ComponentDrill
T3C2.200
%
G90
G05
T1
X222.2Y-118.9
X226.0Y-125.3
X234.6Y-114.7
X237.0Y-108.9
X238.0Y-103.9
X240.2Y-103.1
X241.2Y-101.9
X242.2Y-118.9
X245.4Y-113.3
X246.0Y-125.3
X246.6Y-104.1
X249.4Y-106.9
X249.4Y-115.7
X250.8Y-117.1
X258.6Y-103.1
X259.2Y-111.3
X260.6Y-101.9
X261.2Y-119.1
X261.4Y-105.1
X262.0Y-101.7
X263.2Y-106.9
X263.2Y-117.9
X264.0Y-113.3
X264.8Y-106.1
X266.0Y-125.3
X267.0Y-110.1
X268.2Y-105.1
X268.2Y-112.3
X281.4Y-125.1
X284.0Y-116.3
X284.0Y-134.3
X284.8Y-105.1
X286.8Y-125.7
X298.2Y-127.9
X301.2Y-106.1
X302.0Y-134.3
X302.8Y-125.7
T2
X242.64Y-104.81
X242.64Y-106.08
X242.64Y-107.35
X242.64Y-108.62
X242.64Y-109.89
X242.64Y-111.16
X243.91Y-104.81
X243.91Y-106.08
X243.91Y-107.35
X243.91Y-108.62
X243.91Y-109.89
X243.91Y-111.16
T3
X213.6Y-126.2
X220.6Y-127.25
X233.6Y-126.2
X240.6Y-127.25
X253.6Y-126.2
X260.6Y-127.25
X271.6Y-117.2
X271.6Y-135.2
X278.6Y-118.25
X278.6Y-136.25
X289.6Y-135.2
X296.6Y-136.25
M30
