M48
; DRILL file {KiCad 9.0.9-9.0.9~ubuntu24.04.1} date 2026-09-28T19:36:28+0000
; FORMAT={-:-/ absolute / metric / decimal}
; #@! TF.CreationDate,2026-09-28T19:36:28+00:00
; #@! TF.GenerationSoftware,Kicad,Pcbnew,9.0.9-9.0.9~ubuntu24.04.1
; #@! TF.FileFunction,Plated,1,2,PTH
FMAT,2
METRIC
; #@! TA.AperFunction,Plated,PTH,ViaDrill
T1C0.300
; #@! TA.AperFunction,Plated,PTH,ComponentDrill
T2C0.700
; #@! TA.AperFunction,Plated,PTH,ComponentDrill
T3C1.300
%
G90
G05
T1
X223.4Y-121.9
X227.0Y-125.7
X229.0Y-107.1
X229.4Y-108.3
X231.6Y-117.5
X239.8Y-110.7
X243.4Y-121.9
X244.2Y-109.7
X244.8Y-127.7
X246.8Y-117.5
X247.0Y-125.7
X248.6Y-113.5
X250.0Y-112.1
X252.4Y-112.5
X252.4Y-113.9
X256.6Y-110.7
X256.8Y-101.9
X260.2Y-106.9
X260.4Y-105.7
X260.6Y-114.9
X261.4Y-106.7
X261.8Y-110.5
X261.8Y-115.1
X263.0Y-101.9
X263.0Y-118.7
X263.4Y-121.9
X264.2Y-103.1
X267.0Y-125.7
X268.4Y-108.7
X281.4Y-107.7
X281.4Y-130.9
X284.2Y-106.7
X284.8Y-116.5
X284.8Y-134.5
X285.4Y-107.9
X287.6Y-125.7
X299.0Y-127.9
X302.2Y-105.7
X302.8Y-134.5
X303.6Y-125.7
T2
X231.84Y-104.81
X231.84Y-106.08
X231.84Y-107.35
X231.84Y-108.62
X231.84Y-109.89
X231.84Y-111.16
X233.11Y-104.81
X233.11Y-106.08
X233.11Y-107.35
X233.11Y-108.62
X233.11Y-109.89
X233.11Y-111.16
T3
X213.8Y-126.2
X220.8Y-127.25
X233.8Y-126.2
X240.8Y-127.25
X253.8Y-126.2
X260.8Y-127.25
X271.8Y-117.2
X271.8Y-135.2
X278.8Y-118.25
X278.8Y-136.25
X289.8Y-135.2
X296.8Y-136.25
M30
