%TF.GenerationSoftware,KiCad,Pcbnew,9.0.9-9.0.9~ubuntu24.04.1*%
%TF.CreationDate,2026-10-05T19:58:59+00:00*%
%TF.ProjectId,key-board-rh,6b65792d-626f-4617-9264-2d72682e6b69,A*%
%TF.SameCoordinates,Original*%
%TF.FileFunction,Copper,L2,Bot*%
%TF.FilePolarity,Positive*%
%FSLAX46Y46*%
G04 Gerber Fmt 4.6, Leading zero omitted, Abs format (unit mm)*
G04 Created by KiCad (PCBNEW 9.0.9-9.0.9~ubuntu24.04.1) date 2026-10-05 19:58:59*
%MOMM*%
%LPD*%
G01*
G04 APERTURE LIST*
G04 Aperture macros list*
%AMRoundRect*
0 Rectangle with rounded corners*
0 $1 Rounding radius*
0 $2 $3 $4 $5 $6 $7 $8 $9 X,Y pos of 4 corners*
0 Add a 4 corners polygon primitive as box body*
4,1,4,$2,$3,$4,$5,$6,$7,$8,$9,$2,$3,0*
0 Add four circle primitives for the rounded corners*
1,1,$1+$1,$2,$3*
1,1,$1+$1,$4,$5*
1,1,$1+$1,$6,$7*
1,1,$1+$1,$8,$9*
0 Add four rect primitives between the rounded corners*
20,1,$1+$1,$2,$3,$4,$5,0*
20,1,$1+$1,$4,$5,$6,$7,0*
20,1,$1+$1,$6,$7,$8,$9,0*
20,1,$1+$1,$8,$9,$2,$3,0*%
G04 Aperture macros list end*
%TA.AperFunction,ComponentPad*%
%ADD10C,3.400000*%
%TD*%
%TA.AperFunction,SMDPad,CuDef*%
%ADD11RoundRect,0.250000X0.475000X-0.250000X0.475000X0.250000X-0.475000X0.250000X-0.475000X-0.250000X0*%
%TD*%
%TA.AperFunction,SMDPad,CuDef*%
%ADD12RoundRect,0.250000X-0.450000X0.262500X-0.450000X-0.262500X0.450000X-0.262500X0.450000X0.262500X0*%
%TD*%
%TA.AperFunction,SMDPad,CuDef*%
%ADD13RoundRect,0.250000X0.250000X0.475000X-0.250000X0.475000X-0.250000X-0.475000X0.250000X-0.475000X0*%
%TD*%
%TA.AperFunction,SMDPad,CuDef*%
%ADD14RoundRect,0.250000X-0.250000X-0.475000X0.250000X-0.475000X0.250000X0.475000X-0.250000X0.475000X0*%
%TD*%
%TA.AperFunction,ComponentPad*%
%ADD15R,1.500000X1.070000*%
%TD*%
%TA.AperFunction,ComponentPad*%
%ADD16O,1.500000X1.070000*%
%TD*%
%TA.AperFunction,SMDPad,CuDef*%
%ADD17RoundRect,0.150000X0.150000X-0.825000X0.150000X0.825000X-0.150000X0.825000X-0.150000X-0.825000X0*%
%TD*%
%TA.AperFunction,ViaPad*%
%ADD18C,0.700000*%
%TD*%
%TA.AperFunction,Conductor*%
%ADD19C,0.250000*%
%TD*%
%TA.AperFunction,Conductor*%
%ADD20C,0.400000*%
%TD*%
G04 APERTURE END LIST*
D10*
%TO.P,SW3,1*%
%TO.N,/RH3/SWITCH_LEG*%
X253600000Y-126200000D03*
%TO.P,SW3,2*%
%TO.N,GND_CHAIN*%
X260600000Y-127250000D03*
%TD*%
%TO.P,SW5,1*%
%TO.N,/RH5/SWITCH_LEG*%
X271600000Y-117200000D03*
%TO.P,SW5,2*%
%TO.N,GND_CHAIN*%
X278600000Y-118250000D03*
%TD*%
%TO.P,SW2,1*%
%TO.N,/RH2/SWITCH_LEG*%
X233600000Y-126200000D03*
%TO.P,SW2,2*%
%TO.N,GND_CHAIN*%
X240600000Y-127250000D03*
%TD*%
%TO.P,SW4,1*%
%TO.N,/RH4/SWITCH_LEG*%
X271600000Y-135200000D03*
%TO.P,SW4,2*%
%TO.N,GND_CHAIN*%
X278600000Y-136250000D03*
%TD*%
%TO.P,SW6,1*%
%TO.N,/RH6/SWITCH_LEG*%
X289600000Y-135200000D03*
%TO.P,SW6,2*%
%TO.N,GND_CHAIN*%
X296600000Y-136250000D03*
%TD*%
%TO.P,SW1,1*%
%TO.N,/RH1/SWITCH_LEG*%
X213600000Y-126200000D03*
%TO.P,SW1,2*%
%TO.N,GND_CHAIN*%
X220600000Y-127250000D03*
%TD*%
D11*
%TO.P,C8,1*%
%TO.N,V3V3_CHAIN_RH*%
X238000000Y-108950000D03*
%TO.P,C8,2*%
%TO.N,GND_CHAIN*%
X238000000Y-107050000D03*
%TD*%
D12*
%TO.P,R8,1*%
%TO.N,V3V3_CHAIN_RH*%
X285000000Y-126887500D03*
%TO.P,R8,2*%
%TO.N,/KEY_RH4*%
X285000000Y-128712500D03*
%TD*%
D13*
%TO.P,C3,1*%
%TO.N,/KEY_RH3*%
X265250000Y-121500000D03*
%TO.P,C3,2*%
%TO.N,GND_CHAIN*%
X263350000Y-121500000D03*
%TD*%
D12*
%TO.P,R12,1*%
%TO.N,V3V3_CHAIN_RH*%
X303000000Y-126887500D03*
%TO.P,R12,2*%
%TO.N,/KEY_RH6*%
X303000000Y-128712500D03*
%TD*%
%TO.P,R10,1*%
%TO.N,V3V3_CHAIN_RH*%
X285000000Y-108887500D03*
%TO.P,R10,2*%
%TO.N,/KEY_RH5*%
X285000000Y-110712500D03*
%TD*%
D13*
%TO.P,C6,1*%
%TO.N,/KEY_RH6*%
X301250000Y-130500000D03*
%TO.P,C6,2*%
%TO.N,GND_CHAIN*%
X299350000Y-130500000D03*
%TD*%
D12*
%TO.P,R4,1*%
%TO.N,V3V3_CHAIN_RH*%
X247000000Y-117887500D03*
%TO.P,R4,2*%
%TO.N,/KEY_RH2*%
X247000000Y-119712500D03*
%TD*%
D13*
%TO.P,C5,1*%
%TO.N,/KEY_RH5*%
X283250000Y-112500000D03*
%TO.P,C5,2*%
%TO.N,GND_CHAIN*%
X281350000Y-112500000D03*
%TD*%
D14*
%TO.P,C9,1*%
%TO.N,V3V3_CHAIN_RH*%
X270250000Y-103530000D03*
%TO.P,C9,2*%
%TO.N,GND_CHAIN*%
X272150000Y-103530000D03*
%TD*%
D15*
%TO.P,J1,1*%
%TO.N,unconnected-(J1-Pin_1-Pad1)*%
X241925000Y-111160000D03*
D16*
%TO.P,J1,2*%
%TO.N,unconnected-(J1-Pin_2-Pad2)*%
X243625000Y-111160000D03*
%TO.P,J1,3*%
%TO.N,V3V3_CHAIN_RH*%
X241925000Y-109890000D03*
%TO.P,J1,4*%
%TO.N,GND_CHAIN*%
X243625000Y-109890000D03*
%TO.P,J1,5*%
%TO.N,/HOP_RH_RT*%
X241925000Y-108620000D03*
%TO.P,J1,6*%
%TO.N,GND_CHAIN*%
X243625000Y-108620000D03*
%TO.P,J1,7*%
%TO.N,/HOP_LT_RH*%
X241925000Y-107350000D03*
%TO.P,J1,8*%
%TO.N,GND_CHAIN*%
X243625000Y-107350000D03*
%TO.P,J1,9*%
%TO.N,/CHAIN_SHLD*%
X241925000Y-106080000D03*
%TO.P,J1,10*%
%TO.N,GND_CHAIN*%
X243625000Y-106080000D03*
%TO.P,J1,11*%
%TO.N,/CHAIN_SCK*%
X241925000Y-104810000D03*
%TO.P,J1,12*%
%TO.N,GND_CHAIN*%
X243625000Y-104810000D03*
%TD*%
D17*
%TO.P,U1,1*%
%TO.N,/CHAIN_SHLD*%
X268445000Y-108475000D03*
%TO.P,U1,2*%
%TO.N,/CHAIN_SCK*%
X267175000Y-108475000D03*
%TO.P,U1,3*%
%TO.N,/KEY_RH4*%
X265905000Y-108475000D03*
%TO.P,U1,4*%
%TO.N,/KEY_RH3*%
X264635000Y-108475000D03*
%TO.P,U1,5*%
%TO.N,/KEY_RH2*%
X263365000Y-108475000D03*
%TO.P,U1,6*%
%TO.N,/KEY_RH1*%
X262095000Y-108475000D03*
%TO.P,U1,7*%
%TO.N,unconnected-(U1-~{Q7}-Pad7)*%
X260825000Y-108475000D03*
%TO.P,U1,8*%
%TO.N,GND_CHAIN*%
X259555000Y-108475000D03*
%TO.P,U1,9*%
%TO.N,/HOP_RH_RT*%
X259555000Y-103525000D03*
%TO.P,U1,10*%
%TO.N,/HOP_LT_RH*%
X260825000Y-103525000D03*
%TO.P,U1,11*%
%TO.N,V3V3_CHAIN_RH*%
X262095000Y-103525000D03*
%TO.P,U1,12*%
%TO.N,GND_CHAIN*%
X263365000Y-103525000D03*
%TO.P,U1,13*%
%TO.N,/KEY_RH6*%
X264635000Y-103525000D03*
%TO.P,U1,14*%
%TO.N,/KEY_RH5*%
X265905000Y-103525000D03*
%TO.P,U1,15*%
%TO.N,GND_CHAIN*%
X267175000Y-103525000D03*
%TO.P,U1,16*%
%TO.N,V3V3_CHAIN_RH*%
X268445000Y-103525000D03*
%TD*%
D12*
%TO.P,R2,1*%
%TO.N,V3V3_CHAIN_RH*%
X227000000Y-117887500D03*
%TO.P,R2,2*%
%TO.N,/KEY_RH1*%
X227000000Y-119712500D03*
%TD*%
%TO.P,R11,1*%
%TO.N,/KEY_RH6*%
X303000000Y-132287499D03*
%TO.P,R11,2*%
%TO.N,/RH6/SWITCH_LEG*%
X303000000Y-134112499D03*
%TD*%
D13*
%TO.P,C4,1*%
%TO.N,/KEY_RH4*%
X283250000Y-130500000D03*
%TO.P,C4,2*%
%TO.N,GND_CHAIN*%
X281350000Y-130500000D03*
%TD*%
D12*
%TO.P,R6,1*%
%TO.N,V3V3_CHAIN_RH*%
X267000000Y-117887500D03*
%TO.P,R6,2*%
%TO.N,/KEY_RH3*%
X267000000Y-119712500D03*
%TD*%
%TO.P,R9,1*%
%TO.N,/KEY_RH5*%
X285000000Y-114287500D03*
%TO.P,R9,2*%
%TO.N,/RH5/SWITCH_LEG*%
X285000000Y-116112500D03*
%TD*%
D11*
%TO.P,C7,1*%
%TO.N,V3V3_CHAIN_RH*%
X257500000Y-109150000D03*
%TO.P,C7,2*%
%TO.N,GND_CHAIN*%
X257500000Y-107250000D03*
%TD*%
D13*
%TO.P,C2,1*%
%TO.N,/KEY_RH2*%
X245250000Y-121500000D03*
%TO.P,C2,2*%
%TO.N,GND_CHAIN*%
X243350000Y-121500000D03*
%TD*%
%TO.P,C1,1*%
%TO.N,/KEY_RH1*%
X225250000Y-121500000D03*
%TO.P,C1,2*%
%TO.N,GND_CHAIN*%
X223350000Y-121500000D03*
%TD*%
D12*
%TO.P,R1,1*%
%TO.N,/KEY_RH1*%
X227000000Y-123287500D03*
%TO.P,R1,2*%
%TO.N,/RH1/SWITCH_LEG*%
X227000000Y-125112500D03*
%TD*%
%TO.P,R7,1*%
%TO.N,/KEY_RH4*%
X285000000Y-132287499D03*
%TO.P,R7,2*%
%TO.N,/RH4/SWITCH_LEG*%
X285000000Y-134112499D03*
%TD*%
%TO.P,R3,1*%
%TO.N,/KEY_RH2*%
X247000000Y-123287500D03*
%TO.P,R3,2*%
%TO.N,/RH2/SWITCH_LEG*%
X247000000Y-125112500D03*
%TD*%
%TO.P,R5,1*%
%TO.N,/KEY_RH3*%
X267000000Y-123287500D03*
%TO.P,R5,2*%
%TO.N,/RH3/SWITCH_LEG*%
X267000000Y-125112500D03*
%TD*%
D18*
%TO.N,/CHAIN_SCK*%
X267000000Y-105300000D03*
X246400000Y-105300000D03*
%TO.N,/CHAIN_SHLD*%
X268200000Y-105300000D03*
%TO.N,/HOP_LT_RH*%
X260600000Y-101700000D03*
%TO.N,/HOP_RH_RT*%
X258600000Y-102700000D03*
X240600000Y-102700000D03*
%TO.N,/KEY_RH1*%
X262000000Y-106900000D03*
X228200000Y-112300000D03*
%TO.N,/KEY_RH5*%
X283000000Y-106300000D03*
X266000000Y-106300000D03*
%TO.N,/KEY_RH6*%
X301000000Y-107300000D03*
X264800000Y-106700000D03*
%TO.N,/RH1/SWITCH_LEG*%
X225600000Y-125100000D03*
%TO.N,/RH2/SWITCH_LEG*%
X245600000Y-125100000D03*
%TO.N,/RH3/SWITCH_LEG*%
X265600000Y-125100000D03*
%TO.N,/RH4/SWITCH_LEG*%
X283600000Y-134100000D03*
%TO.N,/RH5/SWITCH_LEG*%
X283600000Y-116100000D03*
%TO.N,/RH6/SWITCH_LEG*%
X301600000Y-134100000D03*
%TO.N,GND_CHAIN*%
X297800000Y-127900000D03*
X239400000Y-110300000D03*
X263000000Y-117900000D03*
X273600000Y-102300000D03*
X263000000Y-110900000D03*
X271800000Y-108300000D03*
X279200000Y-127300000D03*
X263000000Y-106500000D03*
X239600000Y-108300000D03*
X245000000Y-114700000D03*
X221800000Y-118900000D03*
X236600000Y-107100000D03*
X279800000Y-109900000D03*
X243600000Y-116100000D03*
%TO.N,V3V3_CHAIN_RH*%
X286400000Y-125700000D03*
X270000000Y-115300000D03*
X302400000Y-125700000D03*
X284400000Y-105300000D03*
X268200000Y-101900000D03*
X266399999Y-116500000D03*
X262000000Y-101900000D03*
X270000000Y-105300000D03*
%TD*%
D19*
%TO.N,/CHAIN_SCK*%
X245700000Y-102900000D02*
X242900000Y-102900000D01*
X246400000Y-103600000D02*
X245700000Y-102900000D01*
X246400000Y-105300000D02*
X246400000Y-103600000D01*
X242900000Y-102900000D02*
X242400000Y-103400000D01*
X242400000Y-103400000D02*
X242400000Y-104500000D01*
X267000000Y-107700000D02*
X267000000Y-105300000D01*
%TO.N,/CHAIN_SHLD*%
X268200000Y-105300000D02*
X268200000Y-107700000D01*
%TO.N,/HOP_LT_RH*%
X260600000Y-101700000D02*
X260600000Y-102700000D01*
%TO.N,/HOP_RH_RT*%
X241000000Y-108300000D02*
X240600000Y-107900000D01*
X241400000Y-108300000D02*
X241000000Y-108300000D01*
X258600000Y-102700000D02*
X259399999Y-102700000D01*
X240600000Y-107900000D02*
X240600000Y-102700000D01*
%TO.N,/KEY_RH1*%
X228200000Y-118900000D02*
X228200000Y-112300000D01*
X227600000Y-119500000D02*
X228200000Y-118900000D01*
X226400000Y-120100000D02*
X225600000Y-120900000D01*
X227600000Y-120100000D02*
X227600000Y-122900000D01*
X262000000Y-106900000D02*
X262000000Y-107700000D01*
%TO.N,/KEY_RH2*%
X245600000Y-122100000D02*
X246400000Y-122900000D01*
X247600000Y-119500000D02*
X256800000Y-110300000D01*
X256800000Y-110300000D02*
X262399999Y-110300000D01*
X263200000Y-109500000D02*
X263200000Y-109300000D01*
X262399999Y-110300000D02*
X263200000Y-109500000D01*
X246400000Y-120100000D02*
X245600000Y-120900000D01*
%TO.N,/KEY_RH3*%
X265600000Y-122100000D02*
X266399999Y-122900000D01*
X265000000Y-120900000D02*
X265000000Y-109500000D01*
X265000000Y-109500000D02*
X264800000Y-109300000D01*
X266399999Y-120100000D02*
X265600000Y-120900000D01*
%TO.N,/KEY_RH4*%
X270600000Y-119500000D02*
X266000000Y-114900000D01*
X283600000Y-131100000D02*
X284400000Y-131900000D01*
X266000000Y-114900000D02*
X266000000Y-109300000D01*
X272600000Y-119500000D02*
X270600000Y-119500000D01*
X284400000Y-129100000D02*
X283600000Y-129900000D01*
X283000000Y-129900000D02*
X272600000Y-119500000D01*
%TO.N,/KEY_RH5*%
X266000000Y-106300000D02*
X266000000Y-104300000D01*
X283600000Y-111900000D02*
X284400000Y-111100000D01*
X283000000Y-111900000D02*
X283000000Y-106300000D01*
X283600000Y-113100000D02*
X284400000Y-113900000D01*
%TO.N,/KEY_RH6*%
X264800000Y-106700000D02*
X264800000Y-104300000D01*
X301000000Y-129900000D02*
X301000000Y-107300000D01*
X301600000Y-129900000D02*
X302400000Y-129100000D01*
X301600000Y-131100000D02*
X302400000Y-131900000D01*
%TO.N,/RH1/SWITCH_LEG*%
X226400000Y-125100000D02*
X225600000Y-125100000D01*
%TO.N,/RH2/SWITCH_LEG*%
X246400000Y-125100000D02*
X245600000Y-125100000D01*
%TO.N,/RH3/SWITCH_LEG*%
X265600000Y-125100000D02*
X266399999Y-125100000D01*
%TO.N,/RH4/SWITCH_LEG*%
X284400000Y-134100000D02*
X283600000Y-134100000D01*
%TO.N,/RH5/SWITCH_LEG*%
X283600000Y-116100000D02*
X284400000Y-116100000D01*
%TO.N,/RH6/SWITCH_LEG*%
X302400000Y-134100000D02*
X301600000Y-134100000D01*
%TO.N,GND_CHAIN*%
X222000000Y-126500000D02*
X222000000Y-123100000D01*
X244000000Y-106900000D02*
X244000000Y-106500000D01*
X263000000Y-123700000D02*
X261000000Y-125700000D01*
X244000000Y-108300000D02*
X244000000Y-107700000D01*
X263000000Y-122100000D02*
X263000000Y-123700000D01*
X222000000Y-123100000D02*
X223000000Y-122100000D01*
X243800000Y-109500000D02*
X243800000Y-109100000D01*
X298000000Y-135500000D02*
X298000000Y-132100000D01*
X266399999Y-101900000D02*
X264200000Y-101900000D01*
X245000000Y-110500000D02*
X244600000Y-110100000D01*
X267000000Y-102700000D02*
X267000000Y-102500000D01*
X279200000Y-127300000D02*
X279200000Y-128100000D01*
X242000000Y-123100000D02*
X243000000Y-122100000D01*
X263000000Y-110900000D02*
X263000000Y-120900000D01*
X242000000Y-126500000D02*
X242000000Y-123100000D01*
X258000000Y-107500000D02*
X259200000Y-107500000D01*
X262100000Y-105600000D02*
X263000000Y-106500000D01*
X240600000Y-113100000D02*
X240400000Y-113100000D01*
X263200000Y-104300000D02*
X263200000Y-104500000D01*
X260200000Y-106900000D02*
X259800000Y-107300000D01*
X239400000Y-112100000D02*
X239400000Y-110300000D01*
X280000000Y-114100000D02*
X281000000Y-113100000D01*
X281000000Y-132699999D02*
X279000000Y-134700000D01*
X281000000Y-131100000D02*
X281000000Y-132699999D01*
X279200000Y-128100000D02*
X281000000Y-129900000D01*
X280000000Y-117500000D02*
X280000000Y-114100000D01*
X240400000Y-113100000D02*
X239400000Y-112100000D01*
X267000000Y-102500000D02*
X266399999Y-101900000D01*
X264200000Y-101900000D02*
X263600000Y-102500000D01*
X244000000Y-105700000D02*
X244000000Y-105100000D01*
X263600000Y-102500000D02*
X263600000Y-102700000D01*
X298000000Y-132100000D02*
X299000000Y-131100000D01*
X271800000Y-108300000D02*
X271800000Y-104100000D01*
X262100000Y-105600000D02*
X263200000Y-104500000D01*
X259800000Y-107300000D02*
X259800000Y-107700000D01*
X260800000Y-106900000D02*
X260200000Y-106900000D01*
X245000000Y-114700000D02*
X245000000Y-110500000D01*
X244600000Y-110100000D02*
X244200000Y-110100000D01*
X262100000Y-105600000D02*
X260800000Y-106900000D01*
X239600000Y-108300000D02*
X238600000Y-107300000D01*
X243600000Y-120900000D02*
X243600000Y-116100000D01*
X243600000Y-116100000D02*
X240600000Y-113100000D01*
X259200000Y-107500000D02*
X259399999Y-107700000D01*
X243410000Y-104810000D02*
X243410000Y-106080000D01*
D20*
%TO.N,V3V3_CHAIN_RH*%
X262000000Y-101900000D02*
X262000000Y-102700000D01*
X240800000Y-109900000D02*
X241400000Y-109900000D01*
X240800000Y-112300000D02*
X240600000Y-112100000D01*
X261600000Y-105100000D02*
X257600000Y-105100000D01*
X239800000Y-109300000D02*
X238600000Y-109300000D01*
X284400000Y-105300000D02*
X284400000Y-108500000D01*
X257000000Y-109500000D02*
X255600000Y-109500000D01*
X246400000Y-117500000D02*
X241200000Y-112300000D01*
X286400000Y-125700000D02*
X285600000Y-126500000D01*
X256200000Y-108100000D02*
X257000000Y-108900000D01*
X262000000Y-104500000D02*
X261600000Y-104900000D01*
X270250000Y-103530000D02*
X268445000Y-103525000D01*
X257600000Y-105100000D02*
X256200000Y-106500000D01*
X240600000Y-110100000D02*
X240800000Y-109900000D01*
X268200000Y-102700000D02*
X268200000Y-101900000D01*
X229600000Y-109300000D02*
X227200000Y-111700000D01*
X240600000Y-110100000D02*
X239800000Y-109300000D01*
X255600000Y-109500000D02*
X247600000Y-117500000D01*
X237400000Y-109300000D02*
X229600000Y-109300000D01*
X270000000Y-104100000D02*
X270000000Y-115300000D01*
X285600000Y-109100000D02*
X286400000Y-109900000D01*
X286400000Y-109900000D02*
X286400000Y-125700000D01*
X261600000Y-104900000D02*
X261600000Y-105100000D01*
X240600000Y-112100000D02*
X240600000Y-110100000D01*
X227200000Y-111700000D02*
X227200000Y-117500000D01*
X302400000Y-125700000D02*
X302400000Y-126500000D01*
X256200000Y-106500000D02*
X256200000Y-108100000D01*
X262000000Y-104300000D02*
X262000000Y-104500000D01*
X266399999Y-116500000D02*
X266399999Y-117500000D01*
X241200000Y-112300000D02*
X240800000Y-112300000D01*
%TD*%
%TA.AperFunction,Conductor*%
%TO.N,GND_CHAIN*%
G36*
X202914666Y-100617655D02*
G01*
X202937525Y-100646381D01*
X202959535Y-100684504D01*
X202959539Y-100684509D01*
X202959540Y-100684511D01*
X203015489Y-100740460D01*
X203015491Y-100740461D01*
X203015495Y-100740464D01*
X203064132Y-100768544D01*
X203084011Y-100780021D01*
X203160438Y-100800500D01*
X204573066Y-100800500D01*
X204640105Y-100820185D01*
X204685860Y-100872989D01*
X204695804Y-100942147D01*
X204666779Y-101005703D01*
X204609062Y-101043159D01*
X204574975Y-101053500D01*
X204542210Y-101063439D01*
X203973984Y-101367163D01*
X203973977Y-101367168D01*
X203475915Y-101775915D01*
X203067168Y-102273977D01*
X203067163Y-102273984D01*
X202763439Y-102842210D01*
X202576402Y-103458787D01*
X202513250Y-104100000D01*
X202576402Y-104741211D01*
X202763439Y-105357788D01*
X203067163Y-105926014D01*
X203067166Y-105926018D01*
X203067167Y-105926020D01*
X203096680Y-105961982D01*
X203475915Y-106424083D01*
X203796909Y-106687515D01*
X203973979Y-106832832D01*
X203973982Y-106832833D01*
X203973984Y-106832835D01*
X204542210Y-107136559D01*
X204542212Y-107136559D01*
X204542215Y-107136561D01*
X205158786Y-107323596D01*
X205800000Y-107386749D01*
X206441213Y-107323596D01*
X207057784Y-107136561D01*
X207102822Y-107112488D01*
X207364772Y-106972472D01*
X207626020Y-106832832D01*
X208124083Y-106424083D01*
X208532832Y-105926020D01*
X208813104Y-105401669D01*
X208836559Y-105357788D01*
X208836559Y-105357787D01*
X208836561Y-105357784D01*
X209023596Y-104741213D01*
X209086750Y-104100000D01*
X209023596Y-103458786D01*
X208836561Y-102842215D01*
X208836559Y-102842212D01*
X208836559Y-102842210D01*
X208532835Y-102273984D01*
X208532833Y-102273982D01*
X208532832Y-102273979D01*
X208400298Y-102112485D01*
X208124083Y-101775915D01*
X207626021Y-101367168D01*
X207626014Y-101367163D01*
X207057788Y-101063439D01*
X207038791Y-101057676D01*
X206990936Y-101043159D01*
X206932499Y-101004863D01*
X206904043Y-100941051D01*
X206914603Y-100871984D01*
X206960827Y-100819590D01*
X207026933Y-100800500D01*
X306473066Y-100800500D01*
X306540105Y-100820185D01*
X306585860Y-100872989D01*
X306595804Y-100942147D01*
X306566779Y-101005703D01*
X306509062Y-101043159D01*
X306474975Y-101053500D01*
X306442210Y-101063439D01*
X305873984Y-101367163D01*
X305873977Y-101367168D01*
X305375915Y-101775915D01*
X304967168Y-102273977D01*
X304967163Y-102273984D01*
X304663439Y-102842210D01*
X304476402Y-103458787D01*
X304414264Y-104089701D01*
X304413250Y-104100000D01*
X304416622Y-104134236D01*
X304476402Y-104741211D01*
X304663439Y-105357788D01*
X304967163Y-105926014D01*
X304967166Y-105926018D01*
X304967167Y-105926020D01*
X304996680Y-105961982D01*
X305375915Y-106424083D01*
X305696909Y-106687515D01*
X305873979Y-106832832D01*
X305873982Y-106832833D01*
X305873984Y-106832835D01*
X306442210Y-107136559D01*
X306442212Y-107136559D01*
X306442215Y-107136561D01*
X307058786Y-107323596D01*
X307700000Y-107386749D01*
X308341213Y-107323596D01*
X308957784Y-107136561D01*
X309002822Y-107112488D01*
X309264772Y-106972472D01*
X309526020Y-106832832D01*
X310024083Y-106424083D01*
X310432832Y-105926020D01*
X310713104Y-105401669D01*
X310736559Y-105357788D01*
X310736559Y-105357787D01*
X310736561Y-105357784D01*
X310756840Y-105290931D01*
X310795137Y-105232495D01*
X310858949Y-105204039D01*
X310928016Y-105214599D01*
X310980409Y-105260823D01*
X310999500Y-105326929D01*
X310999500Y-137673069D01*
X310979815Y-137740108D01*
X310927011Y-137785863D01*
X310857853Y-137795807D01*
X310794297Y-137766782D01*
X310756839Y-137709064D01*
X310736559Y-137642210D01*
X310432835Y-137073984D01*
X310432833Y-137073982D01*
X310432832Y-137073979D01*
X310308525Y-136922510D01*
X310024083Y-136575915D01*
X309526021Y-136167168D01*
X309526014Y-136167163D01*
X308957788Y-135863439D01*
X308341211Y-135676402D01*
X307700000Y-135613250D01*
X307058787Y-135676402D01*
X306442210Y-135863439D01*
X305873984Y-136167163D01*
X305873977Y-136167168D01*
X305375915Y-136575915D01*
X304967168Y-137073977D01*
X304967163Y-137073984D01*
X304663439Y-137642210D01*
X304476402Y-138258787D01*
X304413250Y-138899999D01*
X304476402Y-139541211D01*
X304663439Y-140157788D01*
X304967163Y-140726014D01*
X304967168Y-140726021D01*
X305375915Y-141224083D01*
X305706332Y-141495248D01*
X305873979Y-141632832D01*
X305873982Y-141632833D01*
X305873984Y-141632835D01*
X306442210Y-141936559D01*
X306442212Y-141936559D01*
X306442215Y-141936561D01*
X306509065Y-141956839D01*
X306567503Y-141995137D01*
X306595959Y-142058949D01*
X306585399Y-142128016D01*
X306539175Y-142180410D01*
X306473069Y-142199500D01*
X207026930Y-142199500D01*
X206959891Y-142179815D01*
X206914136Y-142127011D01*
X206904192Y-142057853D01*
X206933217Y-141994297D01*
X206990933Y-141956839D01*
X207057784Y-141936561D01*
X207091984Y-141918281D01*
X207421916Y-141741928D01*
X207626020Y-141632832D01*
X208124083Y-141224083D01*
X208532832Y-140726020D01*
X208836561Y-140157784D01*
X209023596Y-139541213D01*
X209086750Y-138900000D01*
X209023596Y-138258786D01*
X208836561Y-137642215D01*
X208836559Y-137642212D01*
X208836559Y-137642210D01*
X208532835Y-137073984D01*
X208532833Y-137073982D01*
X208532832Y-137073979D01*
X208408525Y-136922510D01*
X208124083Y-136575915D01*
X207626021Y-136167168D01*
X207626014Y-136167163D01*
X207057788Y-135863439D01*
X206441211Y-135676402D01*
X205800000Y-135613250D01*
X205158787Y-135676402D01*
X204542210Y-135863439D01*
X203973984Y-136167163D01*
X203973977Y-136167168D01*
X203475915Y-136575915D01*
X203067168Y-137073977D01*
X203067163Y-137073984D01*
X202763439Y-137642210D01*
X202576402Y-138258787D01*
X202513250Y-138900000D01*
X202576402Y-139541211D01*
X202763439Y-140157788D01*
X203067163Y-140726014D01*
X203067168Y-140726021D01*
X203475915Y-141224083D01*
X203806332Y-141495248D01*
X203973979Y-141632832D01*
X203973982Y-141632833D01*
X203973984Y-141632835D01*
X204542210Y-141936559D01*
X204542212Y-141936559D01*
X204542215Y-141936561D01*
X204609065Y-141956839D01*
X204667503Y-141995137D01*
X204695959Y-142058949D01*
X204685399Y-142128016D01*
X204639175Y-142180410D01*
X204573069Y-142199500D01*
X203160438Y-142199500D01*
X203122224Y-142209739D01*
X203084009Y-142219979D01*
X203084004Y-142219982D01*
X203015495Y-142259535D01*
X203015487Y-142259541D01*
X202959541Y-142315487D01*
X202959537Y-142315492D01*
X202937514Y-142353637D01*
X202936964Y-142354161D01*
X202936776Y-142354899D01*
X202911704Y-142378245D01*
X202886946Y-142401852D01*
X202886199Y-142401995D01*
X202885643Y-142402514D01*
X202851932Y-142408599D01*
X202818339Y-142415073D01*
X202817385Y-142414835D01*
X202816885Y-142414926D01*
X202782686Y-142406200D01*
X202754978Y-142394726D01*
X202737702Y-142385933D01*
X202620425Y-142314175D01*
X202604493Y-142302591D01*
X202500329Y-142213386D01*
X202486728Y-142199772D01*
X202397357Y-142095217D01*
X202385892Y-142079446D01*
X202373329Y-142058949D01*
X202314108Y-141962324D01*
X202305260Y-141944955D01*
X202252668Y-141817884D01*
X202246737Y-141799689D01*
X202224084Y-141706268D01*
X202214361Y-141666169D01*
X202211233Y-141646435D01*
X202210189Y-141632830D01*
X202200363Y-141504732D01*
X202200000Y-141495248D01*
X202200000Y-135075441D01*
X269699500Y-135075441D01*
X269699500Y-135324558D01*
X269699501Y-135324575D01*
X269704629Y-135363528D01*
X269732018Y-135571565D01*
X269759519Y-135674200D01*
X269796498Y-135812207D01*
X269891830Y-136042361D01*
X269891837Y-136042376D01*
X270016400Y-136258126D01*
X270168060Y-136455774D01*
X270168066Y-136455781D01*
X270344218Y-136631933D01*
X270344225Y-136631939D01*
X270541873Y-136783599D01*
X270757623Y-136908162D01*
X270757638Y-136908169D01*
X270856825Y-136949253D01*
X270987793Y-137003502D01*
X271228435Y-137067982D01*
X271475435Y-137100500D01*
X271475442Y-137100500D01*
X271724558Y-137100500D01*
X271724565Y-137100500D01*
X271971565Y-137067982D01*
X272212207Y-137003502D01*
X272442373Y-136908164D01*
X272658127Y-136783599D01*
X272855776Y-136631938D01*
X273031938Y-136455776D01*
X273183599Y-136258127D01*
X273263978Y-136118905D01*
X276600000Y-136118905D01*
X276600000Y-136381094D01*
X276634220Y-136641009D01*
X276634222Y-136641020D01*
X276702075Y-136894255D01*
X276802404Y-137136471D01*
X276802409Y-137136482D01*
X276933496Y-137363528D01*
X277050779Y-137516375D01*
X277050780Y-137516375D01*
X277407095Y-137160059D01*
X277455864Y-137227184D01*
X277622816Y-137394136D01*
X277689938Y-137442903D01*
X277333623Y-137799218D01*
X277333623Y-137799219D01*
X277486467Y-137916500D01*
X277486483Y-137916511D01*
X277713517Y-138047590D01*
X277713528Y-138047595D01*
X277955744Y-138147924D01*
X278208979Y-138215777D01*
X278208990Y-138215779D01*
X278468905Y-138249999D01*
X278468920Y-138250000D01*
X278731080Y-138250000D01*
X278731094Y-138249999D01*
X278991009Y-138215779D01*
X278991020Y-138215777D01*
X279244255Y-138147924D01*
X279486471Y-138047595D01*
X279486482Y-138047590D01*
X279713516Y-137916511D01*
X279713524Y-137916505D01*
X279866375Y-137799218D01*
X279510061Y-137442903D01*
X279577184Y-137394136D01*
X279744136Y-137227184D01*
X279792903Y-137160060D01*
X280149218Y-137516375D01*
X280266505Y-137363524D01*
X280266511Y-137363516D01*
X280397590Y-137136482D01*
X280397595Y-137136471D01*
X280497924Y-136894255D01*
X280565777Y-136641020D01*
X280565779Y-136641009D01*
X280599999Y-136381094D01*
X280600000Y-136381080D01*
X280600000Y-136118919D01*
X280599999Y-136118905D01*
X280565779Y-135858990D01*
X280565777Y-135858979D01*
X280497924Y-135605744D01*
X280397595Y-135363528D01*
X280397590Y-135363517D01*
X280266509Y-135136481D01*
X280266500Y-135136467D01*
X280219673Y-135075441D01*
X287699500Y-135075441D01*
X287699500Y-135324558D01*
X287699501Y-135324575D01*
X287704629Y-135363528D01*
X287732018Y-135571565D01*
X287759519Y-135674200D01*
X287796498Y-135812207D01*
X287891830Y-136042361D01*
X287891837Y-136042376D01*
X288016400Y-136258126D01*
X288168060Y-136455774D01*
X288168066Y-136455781D01*
X288344218Y-136631933D01*
X288344225Y-136631939D01*
X288541873Y-136783599D01*
X288757623Y-136908162D01*
X288757638Y-136908169D01*
X288856825Y-136949253D01*
X288987793Y-137003502D01*
X289228435Y-137067982D01*
X289475435Y-137100500D01*
X289475442Y-137100500D01*
X289724558Y-137100500D01*
X289724565Y-137100500D01*
X289971565Y-137067982D01*
X290212207Y-137003502D01*
X290442373Y-136908164D01*
X290658127Y-136783599D01*
X290855776Y-136631938D01*
X291031938Y-136455776D01*
X291183599Y-136258127D01*
X291263978Y-136118905D01*
X294600000Y-136118905D01*
X294600000Y-136381094D01*
X294634220Y-136641009D01*
X294634222Y-136641020D01*
X294702075Y-136894255D01*
X294802404Y-137136471D01*
X294802409Y-137136482D01*
X294933496Y-137363528D01*
X295050779Y-137516375D01*
X295050780Y-137516375D01*
X295407095Y-137160059D01*
X295455864Y-137227184D01*
X295622816Y-137394136D01*
X295689938Y-137442903D01*
X295333623Y-137799218D01*
X295333623Y-137799219D01*
X295486467Y-137916500D01*
X295486483Y-137916511D01*
X295713517Y-138047590D01*
X295713528Y-138047595D01*
X295955744Y-138147924D01*
X296208979Y-138215777D01*
X296208990Y-138215779D01*
X296468905Y-138249999D01*
X296468920Y-138250000D01*
X296731080Y-138250000D01*
X296731094Y-138249999D01*
X296991009Y-138215779D01*
X296991020Y-138215777D01*
X297244255Y-138147924D01*
X297486471Y-138047595D01*
X297486482Y-138047590D01*
X297713516Y-137916511D01*
X297713524Y-137916505D01*
X297866375Y-137799218D01*
X297510061Y-137442903D01*
X297577184Y-137394136D01*
X297744136Y-137227184D01*
X297792903Y-137160060D01*
X298149218Y-137516375D01*
X298266505Y-137363524D01*
X298266511Y-137363516D01*
X298397590Y-137136482D01*
X298397595Y-137136471D01*
X298497924Y-136894255D01*
X298565777Y-136641020D01*
X298565779Y-136641009D01*
X298599999Y-136381094D01*
X298600000Y-136381080D01*
X298600000Y-136118919D01*
X298599999Y-136118905D01*
X298565779Y-135858990D01*
X298565777Y-135858979D01*
X298497924Y-135605744D01*
X298397595Y-135363528D01*
X298397590Y-135363517D01*
X298266511Y-135136483D01*
X298266500Y-135136467D01*
X298149218Y-134983623D01*
X297792903Y-135339938D01*
X297744136Y-135272816D01*
X297577184Y-135105864D01*
X297510060Y-135057095D01*
X297866375Y-134700780D01*
X297866375Y-134700779D01*
X297713528Y-134583496D01*
X297486482Y-134452409D01*
X297486471Y-134452404D01*
X297244255Y-134352075D01*
X296991020Y-134284222D01*
X296991009Y-134284220D01*
X296731094Y-134250000D01*
X296468905Y-134250000D01*
X296208990Y-134284220D01*
X296208979Y-134284222D01*
X295955744Y-134352075D01*
X295713528Y-134452404D01*
X295713517Y-134452409D01*
X295486476Y-134583492D01*
X295333623Y-134700779D01*
X295333623Y-134700780D01*
X295689939Y-135057096D01*
X295622816Y-135105864D01*
X295455864Y-135272816D01*
X295407096Y-135339939D01*
X295050780Y-134983623D01*
X295050779Y-134983623D01*
X294933492Y-135136476D01*
X294802409Y-135363517D01*
X294802404Y-135363528D01*
X294702075Y-135605744D01*
X294634222Y-135858979D01*
X294634220Y-135858990D01*
X294600000Y-136118905D01*
X291263978Y-136118905D01*
X291308164Y-136042373D01*
X291403502Y-135812207D01*
X291467982Y-135571565D01*
X291500500Y-135324565D01*
X291500500Y-135075435D01*
X291467982Y-134828435D01*
X291403502Y-134587793D01*
X291337839Y-134429268D01*
X291308169Y-134357638D01*
X291308162Y-134357623D01*
X291183602Y-134141877D01*
X291183599Y-134141873D01*
X291095858Y-134027527D01*
X291095856Y-134027525D01*
X301049500Y-134027525D01*
X301049500Y-134172475D01*
X301079443Y-134284222D01*
X301087017Y-134312488D01*
X301159488Y-134438011D01*
X301159490Y-134438013D01*
X301159491Y-134438015D01*
X301261985Y-134540509D01*
X301261986Y-134540510D01*
X301261988Y-134540511D01*
X301387511Y-134612982D01*
X301387512Y-134612982D01*
X301387515Y-134612984D01*
X301527525Y-134650500D01*
X301527528Y-134650500D01*
X301672472Y-134650500D01*
X301672475Y-134650500D01*
X301812485Y-134612984D01*
X301938015Y-134540509D01*
X301941159Y-134537365D01*
X302002482Y-134503880D01*
X302072174Y-134508864D01*
X302128107Y-134550736D01*
X302145880Y-134584090D01*
X302147207Y-134587881D01*
X302227850Y-134697149D01*
X302337118Y-134777792D01*
X302379845Y-134792743D01*
X302465299Y-134822645D01*
X302495730Y-134825499D01*
X302495734Y-134825499D01*
X303504270Y-134825499D01*
X303534699Y-134822645D01*
X303534701Y-134822645D01*
X303598790Y-134800218D01*
X303662882Y-134777792D01*
X303772150Y-134697149D01*
X303852793Y-134587881D01*
X303882186Y-134503880D01*
X303897646Y-134459700D01*
X303897646Y-134459698D01*
X303900500Y-134429268D01*
X303900500Y-133795729D01*
X303897646Y-133765299D01*
X303897646Y-133765297D01*
X303855342Y-133644403D01*
X303852793Y-133637117D01*
X303772150Y-133527849D01*
X303662882Y-133447206D01*
X303662880Y-133447205D01*
X303534700Y-133402352D01*
X303504270Y-133399499D01*
X303504266Y-133399499D01*
X302495734Y-133399499D01*
X302495730Y-133399499D01*
X302465300Y-133402352D01*
X302465298Y-133402352D01*
X302337119Y-133447205D01*
X302337117Y-133447206D01*
X302227850Y-133527849D01*
X302147203Y-133637122D01*
X302145641Y-133640078D01*
X302143079Y-133642709D01*
X302141689Y-133644594D01*
X302141430Y-133644403D01*
X302096909Y-133690147D01*
X302028843Y-133705921D01*
X301963054Y-133682392D01*
X301948334Y-133669810D01*
X301938017Y-133659493D01*
X301938011Y-133659488D01*
X301812488Y-133587017D01*
X301812489Y-133587017D01*
X301801006Y-133583940D01*
X301672475Y-133549500D01*
X301527525Y-133549500D01*
X301398993Y-133583940D01*
X301387511Y-133587017D01*
X301261988Y-133659488D01*
X301261982Y-133659493D01*
X301159493Y-133761982D01*
X301159488Y-133761988D01*
X301087017Y-133887511D01*
X301087016Y-133887515D01*
X301049500Y-134027525D01*
X291095856Y-134027525D01*
X291031939Y-133944225D01*
X291031933Y-133944218D01*
X290855781Y-133768066D01*
X290855774Y-133768060D01*
X290658126Y-133616400D01*
X290442376Y-133491837D01*
X290442361Y-133491830D01*
X290212207Y-133396498D01*
X290109449Y-133368964D01*
X289971565Y-133332018D01*
X289971564Y-133332017D01*
X289971561Y-133332017D01*
X289724575Y-133299501D01*
X289724570Y-133299500D01*
X289724565Y-133299500D01*
X289475435Y-133299500D01*
X289475429Y-133299500D01*
X289475424Y-133299501D01*
X289228438Y-133332017D01*
X288987792Y-133396498D01*
X288757638Y-133491830D01*
X288757623Y-133491837D01*
X288541873Y-133616400D01*
X288344225Y-133768060D01*
X288344218Y-133768066D01*
X288168066Y-133944218D01*
X288168060Y-133944225D01*
X288016400Y-134141873D01*
X287891837Y-134357623D01*
X287891830Y-134357638D01*
X287796498Y-134587792D01*
X287732017Y-134828438D01*
X287699501Y-135075424D01*
X287699500Y-135075441D01*
X280219673Y-135075441D01*
X280149218Y-134983623D01*
X279792903Y-135339938D01*
X279744136Y-135272816D01*
X279577184Y-135105864D01*
X279510060Y-135057095D01*
X279866375Y-134700780D01*
X279866375Y-134700779D01*
X279713528Y-134583496D01*
X279486482Y-134452409D01*
X279486471Y-134452404D01*
X279244255Y-134352075D01*
X278991020Y-134284222D01*
X278991009Y-134284220D01*
X278731094Y-134250000D01*
X278468905Y-134250000D01*
X278208990Y-134284220D01*
X278208979Y-134284222D01*
X277955744Y-134352075D01*
X277713528Y-134452404D01*
X277713517Y-134452409D01*
X277486476Y-134583492D01*
X277333623Y-134700779D01*
X277333623Y-134700780D01*
X277689939Y-135057096D01*
X277622816Y-135105864D01*
X277455864Y-135272816D01*
X277407096Y-135339939D01*
X277050780Y-134983623D01*
X277050779Y-134983623D01*
X276933492Y-135136476D01*
X276802409Y-135363517D01*
X276802404Y-135363528D01*
X276702075Y-135605744D01*
X276634222Y-135858979D01*
X276634220Y-135858990D01*
X276600000Y-136118905D01*
X273263978Y-136118905D01*
X273308164Y-136042373D01*
X273403502Y-135812207D01*
X273467982Y-135571565D01*
X273500500Y-135324565D01*
X273500500Y-135075435D01*
X273467982Y-134828435D01*
X273403502Y-134587793D01*
X273337839Y-134429268D01*
X273308169Y-134357638D01*
X273308162Y-134357623D01*
X273183602Y-134141877D01*
X273183599Y-134141873D01*
X273095858Y-134027527D01*
X273095856Y-134027525D01*
X283049500Y-134027525D01*
X283049500Y-134172475D01*
X283079443Y-134284222D01*
X283087017Y-134312488D01*
X283159488Y-134438011D01*
X283159490Y-134438013D01*
X283159491Y-134438015D01*
X283261985Y-134540509D01*
X283261986Y-134540510D01*
X283261988Y-134540511D01*
X283387511Y-134612982D01*
X283387512Y-134612982D01*
X283387515Y-134612984D01*
X283527525Y-134650500D01*
X283527528Y-134650500D01*
X283672472Y-134650500D01*
X283672475Y-134650500D01*
X283812485Y-134612984D01*
X283938015Y-134540509D01*
X283941159Y-134537365D01*
X284002482Y-134503880D01*
X284072174Y-134508864D01*
X284128107Y-134550736D01*
X284145880Y-134584090D01*
X284147207Y-134587881D01*
X284227850Y-134697149D01*
X284337118Y-134777792D01*
X284379845Y-134792743D01*
X284465299Y-134822645D01*
X284495730Y-134825499D01*
X284495734Y-134825499D01*
X285504270Y-134825499D01*
X285534699Y-134822645D01*
X285534701Y-134822645D01*
X285598790Y-134800218D01*
X285662882Y-134777792D01*
X285772150Y-134697149D01*
X285852793Y-134587881D01*
X285882186Y-134503880D01*
X285897646Y-134459700D01*
X285897646Y-134459698D01*
X285900500Y-134429268D01*
X285900500Y-133795729D01*
X285897646Y-133765299D01*
X285897646Y-133765297D01*
X285855342Y-133644403D01*
X285852793Y-133637117D01*
X285772150Y-133527849D01*
X285662882Y-133447206D01*
X285662880Y-133447205D01*
X285534700Y-133402352D01*
X285504270Y-133399499D01*
X285504266Y-133399499D01*
X284495734Y-133399499D01*
X284495730Y-133399499D01*
X284465300Y-133402352D01*
X284465298Y-133402352D01*
X284337119Y-133447205D01*
X284337117Y-133447206D01*
X284227850Y-133527849D01*
X284147203Y-133637122D01*
X284145641Y-133640078D01*
X284143079Y-133642709D01*
X284141689Y-133644594D01*
X284141430Y-133644403D01*
X284096909Y-133690147D01*
X284028843Y-133705921D01*
X283963054Y-133682392D01*
X283948334Y-133669810D01*
X283938017Y-133659493D01*
X283938011Y-133659488D01*
X283812488Y-133587017D01*
X283812489Y-133587017D01*
X283801006Y-133583940D01*
X283672475Y-133549500D01*
X283527525Y-133549500D01*
X283398993Y-133583940D01*
X283387511Y-133587017D01*
X283261988Y-133659488D01*
X283261982Y-133659493D01*
X283159493Y-133761982D01*
X283159488Y-133761988D01*
X283087017Y-133887511D01*
X283087016Y-133887515D01*
X283049500Y-134027525D01*
X273095856Y-134027525D01*
X273031939Y-133944225D01*
X273031933Y-133944218D01*
X272855781Y-133768066D01*
X272855774Y-133768060D01*
X272658126Y-133616400D01*
X272442376Y-133491837D01*
X272442361Y-133491830D01*
X272212207Y-133396498D01*
X272109449Y-133368964D01*
X271971565Y-133332018D01*
X271971564Y-133332017D01*
X271971561Y-133332017D01*
X271724575Y-133299501D01*
X271724570Y-133299500D01*
X271724565Y-133299500D01*
X271475435Y-133299500D01*
X271475429Y-133299500D01*
X271475424Y-133299501D01*
X271228438Y-133332017D01*
X270987792Y-133396498D01*
X270757638Y-133491830D01*
X270757623Y-133491837D01*
X270541873Y-133616400D01*
X270344225Y-133768060D01*
X270344218Y-133768066D01*
X270168066Y-133944218D01*
X270168060Y-133944225D01*
X270016400Y-134141873D01*
X269891837Y-134357623D01*
X269891830Y-134357638D01*
X269796498Y-134587792D01*
X269732017Y-134828438D01*
X269699501Y-135075424D01*
X269699500Y-135075441D01*
X202200000Y-135075441D01*
X202200000Y-130336824D01*
X273094500Y-130336824D01*
X273094500Y-130663175D01*
X273131035Y-130987441D01*
X273131038Y-130987455D01*
X273203655Y-131305612D01*
X273203656Y-131305614D01*
X273311438Y-131613640D01*
X273453030Y-131907657D01*
X273453032Y-131907660D01*
X273626654Y-132183979D01*
X273830123Y-132439121D01*
X274060879Y-132669877D01*
X274316021Y-132873346D01*
X274592340Y-133046968D01*
X274886361Y-133188562D01*
X275194387Y-133296344D01*
X275512544Y-133368962D01*
X275512553Y-133368963D01*
X275512558Y-133368964D01*
X275728735Y-133393320D01*
X275836825Y-133405499D01*
X275836828Y-133405500D01*
X275836831Y-133405500D01*
X276163172Y-133405500D01*
X276163173Y-133405499D01*
X276328900Y-133386826D01*
X276487441Y-133368964D01*
X276487444Y-133368963D01*
X276487456Y-133368962D01*
X276805613Y-133296344D01*
X277113639Y-133188562D01*
X277407660Y-133046968D01*
X277683979Y-132873346D01*
X277939121Y-132669877D01*
X278169877Y-132439121D01*
X278373346Y-132183979D01*
X278546968Y-131907660D01*
X278688562Y-131613639D01*
X278796344Y-131305613D01*
X278868962Y-130987456D01*
X278905500Y-130663169D01*
X278905500Y-130336831D01*
X278868962Y-130012544D01*
X278796344Y-129694387D01*
X278688562Y-129386361D01*
X278546968Y-129092340D01*
X278373346Y-128816021D01*
X278169877Y-128560879D01*
X277939121Y-128330123D01*
X277683979Y-128126654D01*
X277407660Y-127953032D01*
X277407657Y-127953030D01*
X277113640Y-127811438D01*
X276805614Y-127703656D01*
X276805612Y-127703655D01*
X276560073Y-127647612D01*
X276487456Y-127631038D01*
X276487453Y-127631037D01*
X276487441Y-127631035D01*
X276163175Y-127594500D01*
X276163169Y-127594500D01*
X275836831Y-127594500D01*
X275836824Y-127594500D01*
X275512558Y-127631035D01*
X275512544Y-127631038D01*
X275194387Y-127703655D01*
X275194385Y-127703656D01*
X274886359Y-127811438D01*
X274592342Y-127953030D01*
X274316022Y-128126653D01*
X274060879Y-128330122D01*
X273830122Y-128560879D01*
X273626653Y-128816022D01*
X273453030Y-129092342D01*
X273311438Y-129386359D01*
X273203656Y-129694385D01*
X273203655Y-129694387D01*
X273131038Y-130012544D01*
X273131035Y-130012558D01*
X273094500Y-130336824D01*
X202200000Y-130336824D01*
X202200000Y-126075441D01*
X211699500Y-126075441D01*
X211699500Y-126324558D01*
X211699501Y-126324575D01*
X211731908Y-126570734D01*
X211732018Y-126571565D01*
X211778735Y-126745913D01*
X211796498Y-126812207D01*
X211891830Y-127042361D01*
X211891837Y-127042376D01*
X212016400Y-127258126D01*
X212168060Y-127455774D01*
X212168066Y-127455781D01*
X212344218Y-127631933D01*
X212344225Y-127631939D01*
X212541873Y-127783599D01*
X212757623Y-127908162D01*
X212757638Y-127908169D01*
X212856825Y-127949253D01*
X212987793Y-128003502D01*
X213228435Y-128067982D01*
X213475435Y-128100500D01*
X213475442Y-128100500D01*
X213724558Y-128100500D01*
X213724565Y-128100500D01*
X213971565Y-128067982D01*
X214212207Y-128003502D01*
X214442373Y-127908164D01*
X214658127Y-127783599D01*
X214855776Y-127631938D01*
X215031938Y-127455776D01*
X215183599Y-127258127D01*
X215263978Y-127118905D01*
X218600000Y-127118905D01*
X218600000Y-127381094D01*
X218634220Y-127641009D01*
X218634222Y-127641020D01*
X218702075Y-127894255D01*
X218802404Y-128136471D01*
X218802409Y-128136482D01*
X218933496Y-128363528D01*
X219050779Y-128516375D01*
X219050780Y-128516375D01*
X219407095Y-128160059D01*
X219455864Y-128227184D01*
X219622816Y-128394136D01*
X219689938Y-128442903D01*
X219333623Y-128799218D01*
X219333623Y-128799219D01*
X219486467Y-128916500D01*
X219486483Y-128916511D01*
X219713517Y-129047590D01*
X219713528Y-129047595D01*
X219955744Y-129147924D01*
X220208979Y-129215777D01*
X220208990Y-129215779D01*
X220468905Y-129249999D01*
X220468920Y-129250000D01*
X220731080Y-129250000D01*
X220731094Y-129249999D01*
X220991009Y-129215779D01*
X220991020Y-129215777D01*
X221244255Y-129147924D01*
X221486471Y-129047595D01*
X221486482Y-129047590D01*
X221713516Y-128916511D01*
X221713524Y-128916505D01*
X221866375Y-128799218D01*
X221510061Y-128442903D01*
X221577184Y-128394136D01*
X221744136Y-128227184D01*
X221792903Y-128160060D01*
X222149218Y-128516375D01*
X222266505Y-128363524D01*
X222266511Y-128363516D01*
X222397590Y-128136482D01*
X222397595Y-128136471D01*
X222497924Y-127894255D01*
X222565777Y-127641020D01*
X222565779Y-127641009D01*
X222599999Y-127381094D01*
X222600000Y-127381080D01*
X222600000Y-127118919D01*
X222599999Y-127118905D01*
X222565779Y-126858990D01*
X222565777Y-126858979D01*
X222497924Y-126605744D01*
X222397595Y-126363528D01*
X222397590Y-126363517D01*
X222266509Y-126136481D01*
X222266500Y-126136467D01*
X222219673Y-126075441D01*
X231699500Y-126075441D01*
X231699500Y-126324558D01*
X231699501Y-126324575D01*
X231731908Y-126570734D01*
X231732018Y-126571565D01*
X231778735Y-126745913D01*
X231796498Y-126812207D01*
X231891830Y-127042361D01*
X231891837Y-127042376D01*
X232016400Y-127258126D01*
X232168060Y-127455774D01*
X232168066Y-127455781D01*
X232344218Y-127631933D01*
X232344225Y-127631939D01*
X232541873Y-127783599D01*
X232757623Y-127908162D01*
X232757638Y-127908169D01*
X232856825Y-127949253D01*
X232987793Y-128003502D01*
X233228435Y-128067982D01*
X233475435Y-128100500D01*
X233475442Y-128100500D01*
X233724558Y-128100500D01*
X233724565Y-128100500D01*
X233971565Y-128067982D01*
X234212207Y-128003502D01*
X234442373Y-127908164D01*
X234658127Y-127783599D01*
X234855776Y-127631938D01*
X235031938Y-127455776D01*
X235183599Y-127258127D01*
X235263978Y-127118905D01*
X238600000Y-127118905D01*
X238600000Y-127381094D01*
X238634220Y-127641009D01*
X238634222Y-127641020D01*
X238702075Y-127894255D01*
X238802404Y-128136471D01*
X238802409Y-128136482D01*
X238933496Y-128363528D01*
X239050779Y-128516375D01*
X239050780Y-128516375D01*
X239407095Y-128160059D01*
X239455864Y-128227184D01*
X239622816Y-128394136D01*
X239689938Y-128442903D01*
X239333623Y-128799218D01*
X239333623Y-128799219D01*
X239486467Y-128916500D01*
X239486483Y-128916511D01*
X239713517Y-129047590D01*
X239713528Y-129047595D01*
X239955744Y-129147924D01*
X240208979Y-129215777D01*
X240208990Y-129215779D01*
X240468905Y-129249999D01*
X240468920Y-129250000D01*
X240731080Y-129250000D01*
X240731094Y-129249999D01*
X240991009Y-129215779D01*
X240991020Y-129215777D01*
X241244255Y-129147924D01*
X241486471Y-129047595D01*
X241486482Y-129047590D01*
X241713516Y-128916511D01*
X241713524Y-128916505D01*
X241866375Y-128799218D01*
X241510061Y-128442903D01*
X241577184Y-128394136D01*
X241744136Y-128227184D01*
X241792903Y-128160060D01*
X242149218Y-128516375D01*
X242266505Y-128363524D01*
X242266511Y-128363516D01*
X242397590Y-128136482D01*
X242397595Y-128136471D01*
X242497924Y-127894255D01*
X242565777Y-127641020D01*
X242565779Y-127641009D01*
X242599999Y-127381094D01*
X242600000Y-127381080D01*
X242600000Y-127118919D01*
X242599999Y-127118905D01*
X242565779Y-126858990D01*
X242565777Y-126858979D01*
X242497924Y-126605744D01*
X242397595Y-126363528D01*
X242397590Y-126363517D01*
X242266509Y-126136481D01*
X242266500Y-126136467D01*
X242219673Y-126075441D01*
X251699500Y-126075441D01*
X251699500Y-126324558D01*
X251699501Y-126324575D01*
X251731908Y-126570734D01*
X251732018Y-126571565D01*
X251778735Y-126745913D01*
X251796498Y-126812207D01*
X251891830Y-127042361D01*
X251891837Y-127042376D01*
X252016400Y-127258126D01*
X252168060Y-127455774D01*
X252168066Y-127455781D01*
X252344218Y-127631933D01*
X252344225Y-127631939D01*
X252541873Y-127783599D01*
X252757623Y-127908162D01*
X252757638Y-127908169D01*
X252856825Y-127949253D01*
X252987793Y-128003502D01*
X253228435Y-128067982D01*
X253475435Y-128100500D01*
X253475442Y-128100500D01*
X253724558Y-128100500D01*
X253724565Y-128100500D01*
X253971565Y-128067982D01*
X254212207Y-128003502D01*
X254442373Y-127908164D01*
X254658127Y-127783599D01*
X254855776Y-127631938D01*
X255031938Y-127455776D01*
X255183599Y-127258127D01*
X255263978Y-127118905D01*
X258600000Y-127118905D01*
X258600000Y-127381094D01*
X258634220Y-127641009D01*
X258634222Y-127641020D01*
X258702075Y-127894255D01*
X258802404Y-128136471D01*
X258802409Y-128136482D01*
X258933496Y-128363528D01*
X259050779Y-128516375D01*
X259050780Y-128516375D01*
X259407095Y-128160059D01*
X259455864Y-128227184D01*
X259622816Y-128394136D01*
X259689938Y-128442903D01*
X259333623Y-128799218D01*
X259333623Y-128799219D01*
X259486467Y-128916500D01*
X259486483Y-128916511D01*
X259713517Y-129047590D01*
X259713528Y-129047595D01*
X259955744Y-129147924D01*
X260208979Y-129215777D01*
X260208990Y-129215779D01*
X260468905Y-129249999D01*
X260468920Y-129250000D01*
X260731080Y-129250000D01*
X260731094Y-129249999D01*
X260991009Y-129215779D01*
X260991020Y-129215777D01*
X261244255Y-129147924D01*
X261486471Y-129047595D01*
X261486482Y-129047590D01*
X261713516Y-128916511D01*
X261713524Y-128916505D01*
X261866375Y-128799218D01*
X261510061Y-128442903D01*
X261577184Y-128394136D01*
X261744136Y-128227184D01*
X261792903Y-128160060D01*
X262149218Y-128516375D01*
X262266505Y-128363524D01*
X262266511Y-128363516D01*
X262397590Y-128136482D01*
X262397595Y-128136471D01*
X262497924Y-127894255D01*
X262565777Y-127641020D01*
X262565779Y-127641009D01*
X262599999Y-127381094D01*
X262600000Y-127381080D01*
X262600000Y-127118919D01*
X262599999Y-127118905D01*
X262565779Y-126858990D01*
X262565777Y-126858979D01*
X262497924Y-126605744D01*
X262397595Y-126363528D01*
X262397590Y-126363517D01*
X262266511Y-126136483D01*
X262266500Y-126136467D01*
X262149218Y-125983623D01*
X261792903Y-126339938D01*
X261744136Y-126272816D01*
X261577184Y-126105864D01*
X261510060Y-126057095D01*
X261866375Y-125700780D01*
X261866375Y-125700779D01*
X261713528Y-125583496D01*
X261486482Y-125452409D01*
X261486471Y-125452404D01*
X261244255Y-125352075D01*
X260991020Y-125284222D01*
X260991009Y-125284220D01*
X260731094Y-125250000D01*
X260468905Y-125250000D01*
X260208990Y-125284220D01*
X260208979Y-125284222D01*
X259955744Y-125352075D01*
X259713528Y-125452404D01*
X259713517Y-125452409D01*
X259486476Y-125583492D01*
X259333623Y-125700779D01*
X259333623Y-125700780D01*
X259689939Y-126057096D01*
X259622816Y-126105864D01*
X259455864Y-126272816D01*
X259407096Y-126339939D01*
X259050780Y-125983623D01*
X259050779Y-125983623D01*
X258933492Y-126136476D01*
X258802409Y-126363517D01*
X258802404Y-126363528D01*
X258702075Y-126605744D01*
X258634222Y-126858979D01*
X258634220Y-126858990D01*
X258600000Y-127118905D01*
X255263978Y-127118905D01*
X255308164Y-127042373D01*
X255403502Y-126812207D01*
X255467982Y-126571565D01*
X255500500Y-126324565D01*
X255500500Y-126075435D01*
X255467982Y-125828435D01*
X255403502Y-125587793D01*
X255336278Y-125425500D01*
X255308169Y-125357638D01*
X255308162Y-125357623D01*
X255183602Y-125141877D01*
X255183599Y-125141873D01*
X255095858Y-125027527D01*
X255095856Y-125027525D01*
X265049500Y-125027525D01*
X265049500Y-125172475D01*
X265087016Y-125312485D01*
X265087017Y-125312488D01*
X265159488Y-125438011D01*
X265159490Y-125438013D01*
X265159491Y-125438015D01*
X265261985Y-125540509D01*
X265261986Y-125540510D01*
X265261988Y-125540511D01*
X265387511Y-125612982D01*
X265387512Y-125612982D01*
X265387515Y-125612984D01*
X265527525Y-125650500D01*
X265527528Y-125650500D01*
X265672472Y-125650500D01*
X265672475Y-125650500D01*
X265812485Y-125612984D01*
X265938015Y-125540509D01*
X265941155Y-125537368D01*
X265944454Y-125535566D01*
X265944461Y-125535562D01*
X266002474Y-125503881D01*
X266072166Y-125508862D01*
X266128102Y-125550730D01*
X266145878Y-125584085D01*
X266147205Y-125587878D01*
X266147206Y-125587880D01*
X266147207Y-125587882D01*
X266227850Y-125697150D01*
X266337118Y-125777793D01*
X266379845Y-125792744D01*
X266465299Y-125822646D01*
X266495730Y-125825500D01*
X266495734Y-125825500D01*
X267504270Y-125825500D01*
X267534699Y-125822646D01*
X267534701Y-125822646D01*
X267598790Y-125800219D01*
X267662882Y-125777793D01*
X267772150Y-125697150D01*
X267852793Y-125587882D01*
X267887913Y-125487515D01*
X267897646Y-125459701D01*
X267897646Y-125459699D01*
X267900500Y-125429269D01*
X267900500Y-124795730D01*
X267897646Y-124765300D01*
X267897646Y-124765298D01*
X267860622Y-124659491D01*
X267852793Y-124637118D01*
X267772150Y-124527850D01*
X267662882Y-124447207D01*
X267662880Y-124447206D01*
X267534700Y-124402353D01*
X267504270Y-124399500D01*
X267504266Y-124399500D01*
X266495734Y-124399500D01*
X266495730Y-124399500D01*
X266465300Y-124402353D01*
X266465298Y-124402353D01*
X266337119Y-124447206D01*
X266337117Y-124447207D01*
X266227850Y-124527850D01*
X266147205Y-124637120D01*
X266145646Y-124640071D01*
X266143087Y-124642699D01*
X266141689Y-124644595D01*
X266141429Y-124644403D01*
X266096917Y-124690144D01*
X266028853Y-124705923D01*
X265963062Y-124682398D01*
X265948335Y-124669811D01*
X265938017Y-124659493D01*
X265938011Y-124659488D01*
X265812488Y-124587017D01*
X265812489Y-124587017D01*
X265801006Y-124583940D01*
X265672475Y-124549500D01*
X265527525Y-124549500D01*
X265398993Y-124583940D01*
X265387511Y-124587017D01*
X265261988Y-124659488D01*
X265261982Y-124659493D01*
X265159493Y-124761982D01*
X265159488Y-124761988D01*
X265087017Y-124887511D01*
X265087016Y-124887515D01*
X265049500Y-125027525D01*
X255095856Y-125027525D01*
X255031939Y-124944225D01*
X255031933Y-124944218D01*
X254855781Y-124768066D01*
X254855774Y-124768060D01*
X254658126Y-124616400D01*
X254442376Y-124491837D01*
X254442361Y-124491830D01*
X254212207Y-124396498D01*
X254109449Y-124368964D01*
X253971565Y-124332018D01*
X253971564Y-124332017D01*
X253971561Y-124332017D01*
X253724575Y-124299501D01*
X253724570Y-124299500D01*
X253724565Y-124299500D01*
X253475435Y-124299500D01*
X253475429Y-124299500D01*
X253475424Y-124299501D01*
X253228438Y-124332017D01*
X252987792Y-124396498D01*
X252757638Y-124491830D01*
X252757623Y-124491837D01*
X252541873Y-124616400D01*
X252344225Y-124768060D01*
X252344218Y-124768066D01*
X252168066Y-124944218D01*
X252168060Y-124944225D01*
X252016400Y-125141873D01*
X251891837Y-125357623D01*
X251891830Y-125357638D01*
X251796498Y-125587792D01*
X251732017Y-125828438D01*
X251699501Y-126075424D01*
X251699500Y-126075441D01*
X242219673Y-126075441D01*
X242149218Y-125983623D01*
X241792903Y-126339938D01*
X241744136Y-126272816D01*
X241577184Y-126105864D01*
X241510060Y-126057095D01*
X241866375Y-125700780D01*
X241866375Y-125700779D01*
X241713528Y-125583496D01*
X241486482Y-125452409D01*
X241486471Y-125452404D01*
X241244255Y-125352075D01*
X240991020Y-125284222D01*
X240991009Y-125284220D01*
X240731094Y-125250000D01*
X240468905Y-125250000D01*
X240208990Y-125284220D01*
X240208979Y-125284222D01*
X239955744Y-125352075D01*
X239713528Y-125452404D01*
X239713517Y-125452409D01*
X239486476Y-125583492D01*
X239333623Y-125700779D01*
X239333623Y-125700780D01*
X239689939Y-126057096D01*
X239622816Y-126105864D01*
X239455864Y-126272816D01*
X239407096Y-126339939D01*
X239050780Y-125983623D01*
X239050779Y-125983623D01*
X238933492Y-126136476D01*
X238802409Y-126363517D01*
X238802404Y-126363528D01*
X238702075Y-126605744D01*
X238634222Y-126858979D01*
X238634220Y-126858990D01*
X238600000Y-127118905D01*
X235263978Y-127118905D01*
X235308164Y-127042373D01*
X235403502Y-126812207D01*
X235467982Y-126571565D01*
X235500500Y-126324565D01*
X235500500Y-126075435D01*
X235467982Y-125828435D01*
X235403502Y-125587793D01*
X235336278Y-125425500D01*
X235308169Y-125357638D01*
X235308162Y-125357623D01*
X235183602Y-125141877D01*
X235183599Y-125141873D01*
X235095858Y-125027527D01*
X235095856Y-125027525D01*
X245049500Y-125027525D01*
X245049500Y-125172475D01*
X245087016Y-125312485D01*
X245087017Y-125312488D01*
X245159488Y-125438011D01*
X245159490Y-125438013D01*
X245159491Y-125438015D01*
X245261985Y-125540509D01*
X245261986Y-125540510D01*
X245261988Y-125540511D01*
X245387511Y-125612982D01*
X245387512Y-125612982D01*
X245387515Y-125612984D01*
X245527525Y-125650500D01*
X245527528Y-125650500D01*
X245672472Y-125650500D01*
X245672475Y-125650500D01*
X245812485Y-125612984D01*
X245938015Y-125540509D01*
X245941155Y-125537368D01*
X245944454Y-125535566D01*
X245944461Y-125535562D01*
X246002474Y-125503881D01*
X246072166Y-125508862D01*
X246128102Y-125550730D01*
X246145878Y-125584085D01*
X246147205Y-125587878D01*
X246147206Y-125587880D01*
X246147207Y-125587882D01*
X246227850Y-125697150D01*
X246337118Y-125777793D01*
X246379845Y-125792744D01*
X246465299Y-125822646D01*
X246495730Y-125825500D01*
X246495734Y-125825500D01*
X247504270Y-125825500D01*
X247534699Y-125822646D01*
X247534701Y-125822646D01*
X247598790Y-125800219D01*
X247662882Y-125777793D01*
X247772150Y-125697150D01*
X247852793Y-125587882D01*
X247887913Y-125487515D01*
X247897646Y-125459701D01*
X247897646Y-125459699D01*
X247900500Y-125429269D01*
X247900500Y-124795730D01*
X247897646Y-124765300D01*
X247897646Y-124765298D01*
X247860622Y-124659491D01*
X247852793Y-124637118D01*
X247772150Y-124527850D01*
X247662882Y-124447207D01*
X247662880Y-124447206D01*
X247534700Y-124402353D01*
X247504270Y-124399500D01*
X247504266Y-124399500D01*
X246495734Y-124399500D01*
X246495730Y-124399500D01*
X246465300Y-124402353D01*
X246465298Y-124402353D01*
X246337119Y-124447206D01*
X246337117Y-124447207D01*
X246227850Y-124527850D01*
X246147205Y-124637120D01*
X246145646Y-124640071D01*
X246143087Y-124642699D01*
X246141689Y-124644595D01*
X246141429Y-124644403D01*
X246096917Y-124690144D01*
X246028853Y-124705923D01*
X245963062Y-124682398D01*
X245948335Y-124669811D01*
X245938017Y-124659493D01*
X245938011Y-124659488D01*
X245812488Y-124587017D01*
X245812489Y-124587017D01*
X245801006Y-124583940D01*
X245672475Y-124549500D01*
X245527525Y-124549500D01*
X245398993Y-124583940D01*
X245387511Y-124587017D01*
X245261988Y-124659488D01*
X245261982Y-124659493D01*
X245159493Y-124761982D01*
X245159488Y-124761988D01*
X245087017Y-124887511D01*
X245087016Y-124887515D01*
X245049500Y-125027525D01*
X235095856Y-125027525D01*
X235031939Y-124944225D01*
X235031933Y-124944218D01*
X234855781Y-124768066D01*
X234855774Y-124768060D01*
X234658126Y-124616400D01*
X234442376Y-124491837D01*
X234442361Y-124491830D01*
X234212207Y-124396498D01*
X234109449Y-124368964D01*
X233971565Y-124332018D01*
X233971564Y-124332017D01*
X233971561Y-124332017D01*
X233724575Y-124299501D01*
X233724570Y-124299500D01*
X233724565Y-124299500D01*
X233475435Y-124299500D01*
X233475429Y-124299500D01*
X233475424Y-124299501D01*
X233228438Y-124332017D01*
X232987792Y-124396498D01*
X232757638Y-124491830D01*
X232757623Y-124491837D01*
X232541873Y-124616400D01*
X232344225Y-124768060D01*
X232344218Y-124768066D01*
X232168066Y-124944218D01*
X232168060Y-124944225D01*
X232016400Y-125141873D01*
X231891837Y-125357623D01*
X231891830Y-125357638D01*
X231796498Y-125587792D01*
X231732017Y-125828438D01*
X231699501Y-126075424D01*
X231699500Y-126075441D01*
X222219673Y-126075441D01*
X222149218Y-125983623D01*
X221792903Y-126339938D01*
X221744136Y-126272816D01*
X221577184Y-126105864D01*
X221510060Y-126057095D01*
X221866375Y-125700780D01*
X221866375Y-125700779D01*
X221713528Y-125583496D01*
X221486482Y-125452409D01*
X221486471Y-125452404D01*
X221244255Y-125352075D01*
X220991020Y-125284222D01*
X220991009Y-125284220D01*
X220731094Y-125250000D01*
X220468905Y-125250000D01*
X220208990Y-125284220D01*
X220208979Y-125284222D01*
X219955744Y-125352075D01*
X219713528Y-125452404D01*
X219713517Y-125452409D01*
X219486476Y-125583492D01*
X219333623Y-125700779D01*
X219333623Y-125700780D01*
X219689939Y-126057096D01*
X219622816Y-126105864D01*
X219455864Y-126272816D01*
X219407096Y-126339939D01*
X219050780Y-125983623D01*
X219050779Y-125983623D01*
X218933492Y-126136476D01*
X218802409Y-126363517D01*
X218802404Y-126363528D01*
X218702075Y-126605744D01*
X218634222Y-126858979D01*
X218634220Y-126858990D01*
X218600000Y-127118905D01*
X215263978Y-127118905D01*
X215308164Y-127042373D01*
X215403502Y-126812207D01*
X215467982Y-126571565D01*
X215500500Y-126324565D01*
X215500500Y-126075435D01*
X215467982Y-125828435D01*
X215403502Y-125587793D01*
X215336278Y-125425500D01*
X215308169Y-125357638D01*
X215308162Y-125357623D01*
X215183602Y-125141877D01*
X215183599Y-125141873D01*
X215095858Y-125027527D01*
X215095856Y-125027525D01*
X225049500Y-125027525D01*
X225049500Y-125172475D01*
X225087016Y-125312485D01*
X225087017Y-125312488D01*
X225159488Y-125438011D01*
X225159490Y-125438013D01*
X225159491Y-125438015D01*
X225261985Y-125540509D01*
X225261986Y-125540510D01*
X225261988Y-125540511D01*
X225387511Y-125612982D01*
X225387512Y-125612982D01*
X225387515Y-125612984D01*
X225527525Y-125650500D01*
X225527528Y-125650500D01*
X225672472Y-125650500D01*
X225672475Y-125650500D01*
X225812485Y-125612984D01*
X225938015Y-125540509D01*
X225941155Y-125537368D01*
X225944454Y-125535566D01*
X225944461Y-125535562D01*
X226002474Y-125503881D01*
X226072166Y-125508862D01*
X226128102Y-125550730D01*
X226145878Y-125584085D01*
X226147205Y-125587878D01*
X226147206Y-125587880D01*
X226147207Y-125587882D01*
X226227850Y-125697150D01*
X226337118Y-125777793D01*
X226379845Y-125792744D01*
X226465299Y-125822646D01*
X226495730Y-125825500D01*
X226495734Y-125825500D01*
X227504270Y-125825500D01*
X227534699Y-125822646D01*
X227534701Y-125822646D01*
X227598790Y-125800219D01*
X227662882Y-125777793D01*
X227772150Y-125697150D01*
X227852793Y-125587882D01*
X227887913Y-125487515D01*
X227897646Y-125459701D01*
X227897646Y-125459699D01*
X227900500Y-125429269D01*
X227900500Y-124795730D01*
X227897646Y-124765300D01*
X227897646Y-124765298D01*
X227860622Y-124659491D01*
X227852793Y-124637118D01*
X227772150Y-124527850D01*
X227662882Y-124447207D01*
X227662880Y-124447206D01*
X227534700Y-124402353D01*
X227504270Y-124399500D01*
X227504266Y-124399500D01*
X226495734Y-124399500D01*
X226495730Y-124399500D01*
X226465300Y-124402353D01*
X226465298Y-124402353D01*
X226337119Y-124447206D01*
X226337117Y-124447207D01*
X226227850Y-124527850D01*
X226147205Y-124637120D01*
X226145646Y-124640071D01*
X226143087Y-124642699D01*
X226141689Y-124644595D01*
X226141429Y-124644403D01*
X226096917Y-124690144D01*
X226028853Y-124705923D01*
X225963062Y-124682398D01*
X225948335Y-124669811D01*
X225938017Y-124659493D01*
X225938011Y-124659488D01*
X225812488Y-124587017D01*
X225812489Y-124587017D01*
X225801006Y-124583940D01*
X225672475Y-124549500D01*
X225527525Y-124549500D01*
X225398993Y-124583940D01*
X225387511Y-124587017D01*
X225261988Y-124659488D01*
X225261982Y-124659493D01*
X225159493Y-124761982D01*
X225159488Y-124761988D01*
X225087017Y-124887511D01*
X225087016Y-124887515D01*
X225049500Y-125027525D01*
X215095856Y-125027525D01*
X215031939Y-124944225D01*
X215031933Y-124944218D01*
X214855781Y-124768066D01*
X214855774Y-124768060D01*
X214658126Y-124616400D01*
X214442376Y-124491837D01*
X214442361Y-124491830D01*
X214212207Y-124396498D01*
X214109449Y-124368964D01*
X213971565Y-124332018D01*
X213971564Y-124332017D01*
X213971561Y-124332017D01*
X213724575Y-124299501D01*
X213724570Y-124299500D01*
X213724565Y-124299500D01*
X213475435Y-124299500D01*
X213475429Y-124299500D01*
X213475424Y-124299501D01*
X213228438Y-124332017D01*
X212987792Y-124396498D01*
X212757638Y-124491830D01*
X212757623Y-124491837D01*
X212541873Y-124616400D01*
X212344225Y-124768060D01*
X212344218Y-124768066D01*
X212168066Y-124944218D01*
X212168060Y-124944225D01*
X212016400Y-125141873D01*
X211891837Y-125357623D01*
X211891830Y-125357638D01*
X211796498Y-125587792D01*
X211732017Y-125828438D01*
X211699501Y-126075424D01*
X211699500Y-126075441D01*
X202200000Y-126075441D01*
X202200000Y-121336824D01*
X215094500Y-121336824D01*
X215094500Y-121663175D01*
X215131035Y-121987441D01*
X215131038Y-121987455D01*
X215203655Y-122305612D01*
X215203656Y-122305614D01*
X215311438Y-122613640D01*
X215453030Y-122907657D01*
X215475145Y-122942853D01*
X215626654Y-123183979D01*
X215830123Y-123439121D01*
X216060879Y-123669877D01*
X216316021Y-123873346D01*
X216592340Y-124046968D01*
X216886361Y-124188562D01*
X217194387Y-124296344D01*
X217512544Y-124368962D01*
X217512553Y-124368963D01*
X217512558Y-124368964D01*
X217728735Y-124393320D01*
X217836825Y-124405499D01*
X217836828Y-124405500D01*
X217836831Y-124405500D01*
X218163172Y-124405500D01*
X218163173Y-124405499D01*
X218328900Y-124386826D01*
X218487441Y-124368964D01*
X218487444Y-124368963D01*
X218487456Y-124368962D01*
X218805613Y-124296344D01*
X219113639Y-124188562D01*
X219407660Y-124046968D01*
X219683979Y-123873346D01*
X219939121Y-123669877D01*
X220169877Y-123439121D01*
X220373346Y-123183979D01*
X220546968Y-122907660D01*
X220688562Y-122613639D01*
X220796344Y-122305613D01*
X220868962Y-121987456D01*
X220905500Y-121663169D01*
X220905500Y-121336831D01*
X220868962Y-121012544D01*
X220859418Y-120970730D01*
X224549500Y-120970730D01*
X224549500Y-122029269D01*
X224552353Y-122059699D01*
X224552353Y-122059701D01*
X224597206Y-122187880D01*
X224597207Y-122187882D01*
X224677850Y-122297150D01*
X224787118Y-122377793D01*
X224829845Y-122392744D01*
X224915299Y-122422646D01*
X224945730Y-122425500D01*
X224945734Y-122425500D01*
X225554270Y-122425500D01*
X225584699Y-122422646D01*
X225584701Y-122422646D01*
X225648790Y-122400219D01*
X225712882Y-122377793D01*
X225822150Y-122297150D01*
X225902793Y-122187882D01*
X225925219Y-122123790D01*
X225947646Y-122059701D01*
X225947646Y-122059699D01*
X225950500Y-122029269D01*
X225950500Y-121061189D01*
X225970185Y-120994150D01*
X225986819Y-120973508D01*
X226498508Y-120461819D01*
X226559831Y-120428334D01*
X226586189Y-120425500D01*
X227150500Y-120425500D01*
X227217539Y-120445185D01*
X227263294Y-120497989D01*
X227274500Y-120549500D01*
X227274500Y-122450500D01*
X227254815Y-122517539D01*
X227202011Y-122563294D01*
X227150500Y-122574500D01*
X226495730Y-122574500D01*
X226465300Y-122577353D01*
X226465298Y-122577353D01*
X226337119Y-122622206D01*
X226337117Y-122622207D01*
X226227850Y-122702850D01*
X226147207Y-122812117D01*
X226147206Y-122812119D01*
X226102353Y-122940298D01*
X226102353Y-122940300D01*
X226099500Y-122970730D01*
X226099500Y-123604269D01*
X226102353Y-123634699D01*
X226102353Y-123634701D01*
X226147206Y-123762880D01*
X226147207Y-123762882D01*
X226227850Y-123872150D01*
X226337118Y-123952793D01*
X226379845Y-123967744D01*
X226465299Y-123997646D01*
X226495730Y-124000500D01*
X226495734Y-124000500D01*
X227504270Y-124000500D01*
X227534699Y-123997646D01*
X227534701Y-123997646D01*
X227598790Y-123975219D01*
X227662882Y-123952793D01*
X227772150Y-123872150D01*
X227852793Y-123762882D01*
X227885337Y-123669877D01*
X227897646Y-123634701D01*
X227897646Y-123634699D01*
X227900500Y-123604269D01*
X227900500Y-123052480D01*
X227904725Y-123020387D01*
X227918030Y-122970730D01*
X227925500Y-122942853D01*
X227925500Y-121336824D01*
X235094500Y-121336824D01*
X235094500Y-121663175D01*
X235131035Y-121987441D01*
X235131038Y-121987455D01*
X235203655Y-122305612D01*
X235203656Y-122305614D01*
X235311438Y-122613640D01*
X235453030Y-122907657D01*
X235475145Y-122942853D01*
X235626654Y-123183979D01*
X235830123Y-123439121D01*
X236060879Y-123669877D01*
X236316021Y-123873346D01*
X236592340Y-124046968D01*
X236886361Y-124188562D01*
X237194387Y-124296344D01*
X237512544Y-124368962D01*
X237512553Y-124368963D01*
X237512558Y-124368964D01*
X237728735Y-124393320D01*
X237836825Y-124405499D01*
X237836828Y-124405500D01*
X237836831Y-124405500D01*
X238163172Y-124405500D01*
X238163173Y-124405499D01*
X238328900Y-124386826D01*
X238487441Y-124368964D01*
X238487444Y-124368963D01*
X238487456Y-124368962D01*
X238805613Y-124296344D01*
X239113639Y-124188562D01*
X239407660Y-124046968D01*
X239683979Y-123873346D01*
X239939121Y-123669877D01*
X240169877Y-123439121D01*
X240373346Y-123183979D01*
X240546968Y-122907660D01*
X240688562Y-122613639D01*
X240796344Y-122305613D01*
X240868962Y-121987456D01*
X240905500Y-121663169D01*
X240905500Y-121336831D01*
X240868962Y-121012544D01*
X240796344Y-120694387D01*
X240688562Y-120386361D01*
X240546968Y-120092340D01*
X240373346Y-119816021D01*
X240169877Y-119560879D01*
X239939121Y-119330123D01*
X239683979Y-119126654D01*
X239407660Y-118953032D01*
X239407657Y-118953030D01*
X239113640Y-118811438D01*
X238805614Y-118703656D01*
X238805612Y-118703655D01*
X238536543Y-118642242D01*
X238487456Y-118631038D01*
X238487453Y-118631037D01*
X238487441Y-118631035D01*
X238163175Y-118594500D01*
X238163169Y-118594500D01*
X237836831Y-118594500D01*
X237836824Y-118594500D01*
X237512558Y-118631035D01*
X237512544Y-118631038D01*
X237194387Y-118703655D01*
X237194385Y-118703656D01*
X236886359Y-118811438D01*
X236592342Y-118953030D01*
X236316022Y-119126653D01*
X236060879Y-119330122D01*
X235830122Y-119560879D01*
X235626653Y-119816022D01*
X235453030Y-120092342D01*
X235311438Y-120386359D01*
X235203656Y-120694385D01*
X235203655Y-120694387D01*
X235131038Y-121012544D01*
X235131035Y-121012558D01*
X235094500Y-121336824D01*
X227925500Y-121336824D01*
X227925500Y-120057147D01*
X227904724Y-119979612D01*
X227900500Y-119947521D01*
X227900500Y-119711189D01*
X227920185Y-119644150D01*
X227920186Y-119644149D01*
X227936819Y-119623508D01*
X228196811Y-119363516D01*
X228460465Y-119099862D01*
X228503318Y-119025639D01*
X228525500Y-118942853D01*
X228525500Y-118857147D01*
X228525500Y-112804386D01*
X228545185Y-112737347D01*
X228561819Y-112716705D01*
X228640508Y-112638016D01*
X228640511Y-112638011D01*
X228712982Y-112512488D01*
X228712981Y-112512488D01*
X228712984Y-112512485D01*
X228750500Y-112372475D01*
X228750500Y-112227525D01*
X228712984Y-112087515D01*
X228688933Y-112045858D01*
X228640511Y-111961988D01*
X228640506Y-111961982D01*
X228538017Y-111859493D01*
X228538011Y-111859488D01*
X228412488Y-111787017D01*
X228412489Y-111787017D01*
X228401006Y-111783940D01*
X228272475Y-111749500D01*
X228127525Y-111749500D01*
X228013593Y-111780028D01*
X227943743Y-111778365D01*
X227885881Y-111739202D01*
X227858377Y-111674974D01*
X227869964Y-111606072D01*
X227893816Y-111572575D01*
X229729573Y-109736819D01*
X229790896Y-109703334D01*
X229817254Y-109700500D01*
X237452725Y-109700500D01*
X237452727Y-109700500D01*
X237554587Y-109673207D01*
X237565142Y-109667112D01*
X237627142Y-109650500D01*
X238372858Y-109650500D01*
X238434857Y-109667112D01*
X238445413Y-109673207D01*
X238547273Y-109700500D01*
X239582745Y-109700500D01*
X239649784Y-109720185D01*
X239670426Y-109736819D01*
X240163181Y-110229574D01*
X240196666Y-110290897D01*
X240199500Y-110317255D01*
X240199500Y-112152726D01*
X240226793Y-112254589D01*
X240257235Y-112307316D01*
X240279520Y-112345913D01*
X240479519Y-112545911D01*
X240479520Y-112545913D01*
X240554087Y-112620480D01*
X240584459Y-112638015D01*
X240645411Y-112673206D01*
X240645412Y-112673206D01*
X240645413Y-112673207D01*
X240747273Y-112700501D01*
X240747275Y-112700501D01*
X240860323Y-112700501D01*
X240860339Y-112700500D01*
X240982745Y-112700500D01*
X241049784Y-112720185D01*
X241070426Y-112736819D01*
X246063181Y-117729573D01*
X246096666Y-117790896D01*
X246099500Y-117817254D01*
X246099500Y-118204269D01*
X246102353Y-118234699D01*
X246102353Y-118234701D01*
X246147206Y-118362880D01*
X246147207Y-118362882D01*
X246227850Y-118472150D01*
X246337118Y-118552793D01*
X246379148Y-118567500D01*
X246465299Y-118597646D01*
X246495730Y-118600500D01*
X246495734Y-118600500D01*
X247504270Y-118600500D01*
X247534699Y-118597646D01*
X247534701Y-118597646D01*
X247598790Y-118575219D01*
X247662882Y-118552793D01*
X247772150Y-118472150D01*
X247852793Y-118362882D01*
X247875219Y-118298790D01*
X247897646Y-118234701D01*
X247897646Y-118234699D01*
X247900500Y-118204269D01*
X247900500Y-117817255D01*
X247920185Y-117750216D01*
X247936819Y-117729574D01*
X255729574Y-109936819D01*
X255790897Y-109903334D01*
X255817255Y-109900500D01*
X256439811Y-109900500D01*
X256506850Y-109920185D01*
X256552605Y-109972989D01*
X256562549Y-110042147D01*
X256533524Y-110105703D01*
X256527492Y-110112181D01*
X247665812Y-118973859D01*
X247604489Y-119007344D01*
X247542168Y-119003528D01*
X247542073Y-119003964D01*
X247539262Y-119003350D01*
X247537185Y-119003223D01*
X247534699Y-119002353D01*
X247504270Y-118999500D01*
X247504266Y-118999500D01*
X246495734Y-118999500D01*
X246495730Y-118999500D01*
X246465300Y-119002353D01*
X246465298Y-119002353D01*
X246337119Y-119047206D01*
X246337117Y-119047207D01*
X246227850Y-119127850D01*
X246147207Y-119237117D01*
X246147206Y-119237119D01*
X246102353Y-119365298D01*
X246102353Y-119365300D01*
X246099500Y-119395730D01*
X246099500Y-119888811D01*
X246079815Y-119955850D01*
X246063181Y-119976492D01*
X245501492Y-120538181D01*
X245440169Y-120571666D01*
X245413811Y-120574500D01*
X244945730Y-120574500D01*
X244915300Y-120577353D01*
X244915298Y-120577353D01*
X244787119Y-120622206D01*
X244787117Y-120622207D01*
X244677850Y-120702850D01*
X244597207Y-120812117D01*
X244597206Y-120812119D01*
X244552353Y-120940298D01*
X244552353Y-120940300D01*
X244549500Y-120970730D01*
X244549500Y-122029269D01*
X244552353Y-122059699D01*
X244552353Y-122059701D01*
X244597206Y-122187880D01*
X244597207Y-122187882D01*
X244677850Y-122297150D01*
X244787118Y-122377793D01*
X244829845Y-122392744D01*
X244915299Y-122422646D01*
X244945730Y-122425500D01*
X244945734Y-122425500D01*
X245413811Y-122425500D01*
X245480850Y-122445185D01*
X245501492Y-122461819D01*
X246063181Y-123023508D01*
X246096666Y-123084831D01*
X246099500Y-123111189D01*
X246099500Y-123604269D01*
X246102353Y-123634699D01*
X246102353Y-123634701D01*
X246147206Y-123762880D01*
X246147207Y-123762882D01*
X246227850Y-123872150D01*
X246337118Y-123952793D01*
X246379845Y-123967744D01*
X246465299Y-123997646D01*
X246495730Y-124000500D01*
X246495734Y-124000500D01*
X247504270Y-124000500D01*
X247534699Y-123997646D01*
X247534701Y-123997646D01*
X247598790Y-123975219D01*
X247662882Y-123952793D01*
X247772150Y-123872150D01*
X247852793Y-123762882D01*
X247885337Y-123669877D01*
X247897646Y-123634701D01*
X247897646Y-123634699D01*
X247900500Y-123604269D01*
X247900500Y-122970730D01*
X247897646Y-122940300D01*
X247897646Y-122940298D01*
X247852793Y-122812119D01*
X247852792Y-122812117D01*
X247772150Y-122702850D01*
X247662882Y-122622207D01*
X247662880Y-122622206D01*
X247534700Y-122577353D01*
X247504270Y-122574500D01*
X247504266Y-122574500D01*
X246586189Y-122574500D01*
X246519150Y-122554815D01*
X246498508Y-122538181D01*
X245986819Y-122026492D01*
X245953334Y-121965169D01*
X245950500Y-121938811D01*
X245950500Y-121336824D01*
X255094500Y-121336824D01*
X255094500Y-121663175D01*
X255131035Y-121987441D01*
X255131038Y-121987455D01*
X255203655Y-122305612D01*
X255203656Y-122305614D01*
X255311438Y-122613640D01*
X255453030Y-122907657D01*
X255475145Y-122942853D01*
X255626654Y-123183979D01*
X255830123Y-123439121D01*
X256060879Y-123669877D01*
X256316021Y-123873346D01*
X256592340Y-124046968D01*
X256886361Y-124188562D01*
X257194387Y-124296344D01*
X257512544Y-124368962D01*
X257512553Y-124368963D01*
X257512558Y-124368964D01*
X257728735Y-124393320D01*
X257836825Y-124405499D01*
X257836828Y-124405500D01*
X257836831Y-124405500D01*
X258163172Y-124405500D01*
X258163173Y-124405499D01*
X258328900Y-124386826D01*
X258487441Y-124368964D01*
X258487444Y-124368963D01*
X258487456Y-124368962D01*
X258805613Y-124296344D01*
X259113639Y-124188562D01*
X259407660Y-124046968D01*
X259683979Y-123873346D01*
X259939121Y-123669877D01*
X260169877Y-123439121D01*
X260373346Y-123183979D01*
X260546968Y-122907660D01*
X260688562Y-122613639D01*
X260796344Y-122305613D01*
X260868962Y-121987456D01*
X260905500Y-121663169D01*
X260905500Y-121336831D01*
X260868962Y-121012544D01*
X260796344Y-120694387D01*
X260688562Y-120386361D01*
X260546968Y-120092340D01*
X260373346Y-119816021D01*
X260169877Y-119560879D01*
X259939121Y-119330123D01*
X259683979Y-119126654D01*
X259407660Y-118953032D01*
X259407657Y-118953030D01*
X259113640Y-118811438D01*
X258805614Y-118703656D01*
X258805612Y-118703655D01*
X258536543Y-118642242D01*
X258487456Y-118631038D01*
X258487453Y-118631037D01*
X258487441Y-118631035D01*
X258163175Y-118594500D01*
X258163169Y-118594500D01*
X257836831Y-118594500D01*
X257836824Y-118594500D01*
X257512558Y-118631035D01*
X257512544Y-118631038D01*
X257194387Y-118703655D01*
X257194385Y-118703656D01*
X256886359Y-118811438D01*
X256592342Y-118953030D01*
X256316022Y-119126653D01*
X256060879Y-119330122D01*
X255830122Y-119560879D01*
X255626653Y-119816022D01*
X255453030Y-120092342D01*
X255311438Y-120386359D01*
X255203656Y-120694385D01*
X255203655Y-120694387D01*
X255131038Y-121012544D01*
X255131035Y-121012558D01*
X255094500Y-121336824D01*
X245950500Y-121336824D01*
X245950500Y-121061189D01*
X245970185Y-120994150D01*
X245986819Y-120973508D01*
X246498508Y-120461819D01*
X246559831Y-120428334D01*
X246586189Y-120425500D01*
X247504270Y-120425500D01*
X247534699Y-120422646D01*
X247534701Y-120422646D01*
X247598790Y-120400219D01*
X247662882Y-120377793D01*
X247772150Y-120297150D01*
X247852793Y-120187882D01*
X247886224Y-120092342D01*
X247897646Y-120059701D01*
X247897646Y-120059699D01*
X247900500Y-120029269D01*
X247900500Y-119711188D01*
X247920185Y-119644149D01*
X247936819Y-119623507D01*
X256898507Y-110661819D01*
X256959830Y-110628334D01*
X256986188Y-110625500D01*
X262442850Y-110625500D01*
X262442852Y-110625500D01*
X262525638Y-110603318D01*
X262562749Y-110581891D01*
X262599861Y-110560465D01*
X262660464Y-110499862D01*
X262660465Y-110499859D01*
X263389651Y-109770673D01*
X263389657Y-109770669D01*
X263399860Y-109760465D01*
X263399862Y-109760465D01*
X263460465Y-109699862D01*
X263460469Y-109699854D01*
X263461507Y-109698503D01*
X263462682Y-109697644D01*
X263466212Y-109694115D01*
X263466762Y-109694665D01*
X263517932Y-109657296D01*
X263543914Y-109651793D01*
X263543820Y-109651147D01*
X263548260Y-109650500D01*
X263616393Y-109640573D01*
X263721483Y-109589198D01*
X263804198Y-109506483D01*
X263855573Y-109401393D01*
X263865500Y-109333260D01*
X263865500Y-107616740D01*
X263855573Y-107548607D01*
X263804198Y-107443517D01*
X263804196Y-107443515D01*
X263804196Y-107443514D01*
X263721485Y-107360803D01*
X263616391Y-107309426D01*
X263548261Y-107299500D01*
X263548260Y-107299500D01*
X263181740Y-107299500D01*
X263181739Y-107299500D01*
X263113608Y-107309426D01*
X263008514Y-107360803D01*
X262925803Y-107443514D01*
X262874426Y-107548608D01*
X262864500Y-107616739D01*
X262864500Y-109323810D01*
X262844815Y-109390849D01*
X262828181Y-109411491D01*
X262806628Y-109433044D01*
X262745305Y-109466529D01*
X262675613Y-109461545D01*
X262619680Y-109419673D01*
X262595263Y-109354209D01*
X262595273Y-109336383D01*
X262595500Y-109333256D01*
X262595500Y-107616739D01*
X262585573Y-107548608D01*
X262585573Y-107548607D01*
X262534198Y-107443517D01*
X262534196Y-107443515D01*
X262534196Y-107443514D01*
X262466863Y-107376181D01*
X262433378Y-107314858D01*
X262438362Y-107245166D01*
X262447153Y-107226506D01*
X262512984Y-107112485D01*
X262550500Y-106972475D01*
X262550500Y-106827525D01*
X262512984Y-106687515D01*
X262503835Y-106671669D01*
X262440511Y-106561988D01*
X262440506Y-106561982D01*
X262338017Y-106459493D01*
X262338011Y-106459488D01*
X262212488Y-106387017D01*
X262212489Y-106387017D01*
X262187962Y-106380445D01*
X262072475Y-106349500D01*
X261927525Y-106349500D01*
X261812038Y-106380445D01*
X261787511Y-106387017D01*
X261661988Y-106459488D01*
X261661982Y-106459493D01*
X261559493Y-106561982D01*
X261559488Y-106561988D01*
X261487017Y-106687511D01*
X261487016Y-106687515D01*
X261449500Y-106827525D01*
X261449500Y-106972475D01*
X261485398Y-107106446D01*
X261487017Y-107112488D01*
X261559488Y-107238011D01*
X261559493Y-107238017D01*
X261629051Y-107307575D01*
X261662536Y-107368898D01*
X261657552Y-107438590D01*
X261652771Y-107449715D01*
X261604426Y-107548606D01*
X261604426Y-107548607D01*
X261594500Y-107616739D01*
X261594500Y-109333260D01*
X261604426Y-109401391D01*
X261655803Y-109506485D01*
X261738514Y-109589196D01*
X261738515Y-109589196D01*
X261738517Y-109589198D01*
X261843607Y-109640573D01*
X261869791Y-109644388D01*
X261911739Y-109650500D01*
X261911740Y-109650500D01*
X262278255Y-109650500D01*
X262278260Y-109650500D01*
X262278264Y-109650499D01*
X262281381Y-109650273D01*
X262282430Y-109650500D01*
X262282747Y-109650500D01*
X262282747Y-109650568D01*
X262349670Y-109665050D01*
X262399129Y-109714401D01*
X262414056Y-109782658D01*
X262389710Y-109848149D01*
X262378044Y-109861628D01*
X262301489Y-109938182D01*
X262240169Y-109971666D01*
X262213810Y-109974500D01*
X258332059Y-109974500D01*
X258265020Y-109954815D01*
X258219265Y-109902011D01*
X258209321Y-109832853D01*
X258238346Y-109769297D01*
X258258425Y-109750730D01*
X258265628Y-109745414D01*
X258297150Y-109722150D01*
X258377793Y-109612882D01*
X258402732Y-109541610D01*
X258422646Y-109484701D01*
X258422646Y-109484699D01*
X258425500Y-109454269D01*
X258425500Y-108845730D01*
X258422646Y-108815300D01*
X258422646Y-108815298D01*
X258377793Y-108687119D01*
X258377792Y-108687117D01*
X258297150Y-108577850D01*
X258187882Y-108497207D01*
X258187880Y-108497206D01*
X258059700Y-108452353D01*
X258029270Y-108449500D01*
X258029266Y-108449500D01*
X257167255Y-108449500D01*
X257100216Y-108429815D01*
X257079574Y-108413181D01*
X256636819Y-107970426D01*
X256603334Y-107909103D01*
X256600500Y-107882745D01*
X256600500Y-107616739D01*
X260324500Y-107616739D01*
X260324500Y-109333260D01*
X260334426Y-109401391D01*
X260385803Y-109506485D01*
X260468514Y-109589196D01*
X260468515Y-109589196D01*
X260468517Y-109589198D01*
X260573607Y-109640573D01*
X260599791Y-109644388D01*
X260641739Y-109650500D01*
X260641740Y-109650500D01*
X261008261Y-109650500D01*
X261036146Y-109646437D01*
X261076393Y-109640573D01*
X261181483Y-109589198D01*
X261264198Y-109506483D01*
X261315573Y-109401393D01*
X261325500Y-109333260D01*
X261325500Y-107616740D01*
X261315573Y-107548607D01*
X261264198Y-107443517D01*
X261264196Y-107443515D01*
X261264196Y-107443514D01*
X261181485Y-107360803D01*
X261076391Y-107309426D01*
X261008261Y-107299500D01*
X261008260Y-107299500D01*
X260641740Y-107299500D01*
X260641739Y-107299500D01*
X260573608Y-107309426D01*
X260468514Y-107360803D01*
X260385803Y-107443514D01*
X260334426Y-107548608D01*
X260324500Y-107616739D01*
X256600500Y-107616739D01*
X256600500Y-106717255D01*
X256620185Y-106650216D01*
X256636819Y-106629574D01*
X257729574Y-105536819D01*
X257790897Y-105503334D01*
X257817255Y-105500500D01*
X261652725Y-105500500D01*
X261652727Y-105500500D01*
X261754587Y-105473207D01*
X261845913Y-105420480D01*
X261920480Y-105345913D01*
X261973207Y-105254587D01*
X262000500Y-105152727D01*
X262000500Y-105117255D01*
X262020185Y-105050216D01*
X262036819Y-105029574D01*
X262169421Y-104896972D01*
X262320480Y-104745913D01*
X262335880Y-104719238D01*
X262386446Y-104671022D01*
X262388771Y-104669854D01*
X262451483Y-104639198D01*
X262534198Y-104556483D01*
X262585573Y-104451393D01*
X262595500Y-104383260D01*
X262595500Y-102666740D01*
X262595500Y-102666739D01*
X264134500Y-102666739D01*
X264134500Y-104383260D01*
X264144426Y-104451391D01*
X264195803Y-104556485D01*
X264278514Y-104639196D01*
X264278515Y-104639196D01*
X264278517Y-104639198D01*
X264361601Y-104679815D01*
X264383607Y-104690573D01*
X264387100Y-104691652D01*
X264390716Y-104694048D01*
X264392258Y-104694802D01*
X264392159Y-104695004D01*
X264445343Y-104730247D01*
X264473473Y-104794203D01*
X264474500Y-104810127D01*
X264474500Y-106195613D01*
X264454815Y-106262652D01*
X264438182Y-106283294D01*
X264359488Y-106361988D01*
X264287017Y-106487511D01*
X264287016Y-106487515D01*
X264249500Y-106627525D01*
X264249500Y-106772475D01*
X264272817Y-106859493D01*
X264287017Y-106912488D01*
X264359488Y-107038011D01*
X264359493Y-107038017D01*
X264427093Y-107105617D01*
X264460578Y-107166940D01*
X264455594Y-107236632D01*
X264413722Y-107292565D01*
X264391593Y-107303839D01*
X264392258Y-107305198D01*
X264383607Y-107309426D01*
X264383607Y-107309427D01*
X264359877Y-107321027D01*
X264278514Y-107360803D01*
X264195803Y-107443514D01*
X264144426Y-107548608D01*
X264134500Y-107616739D01*
X264134500Y-109333260D01*
X264144426Y-109401391D01*
X264195803Y-109506485D01*
X264278514Y-109589196D01*
X264278515Y-109589196D01*
X264278517Y-109589198D01*
X264383607Y-109640573D01*
X264409791Y-109644388D01*
X264451739Y-109650500D01*
X264451740Y-109650500D01*
X264550500Y-109650500D01*
X264617539Y-109670185D01*
X264663294Y-109722989D01*
X264674500Y-109774500D01*
X264674500Y-120666586D01*
X264654815Y-120733625D01*
X264650270Y-120740219D01*
X264597209Y-120812113D01*
X264597206Y-120812119D01*
X264552353Y-120940298D01*
X264552353Y-120940300D01*
X264549500Y-120970730D01*
X264549500Y-122029269D01*
X264552353Y-122059699D01*
X264552353Y-122059701D01*
X264597206Y-122187880D01*
X264597207Y-122187882D01*
X264677850Y-122297150D01*
X264787118Y-122377793D01*
X264829845Y-122392744D01*
X264915299Y-122422646D01*
X264945730Y-122425500D01*
X264945734Y-122425500D01*
X265413812Y-122425500D01*
X265480851Y-122445185D01*
X265501492Y-122461818D01*
X266063182Y-123023509D01*
X266096666Y-123084830D01*
X266099500Y-123111188D01*
X266099500Y-123604269D01*
X266102353Y-123634699D01*
X266102353Y-123634701D01*
X266147206Y-123762880D01*
X266147207Y-123762882D01*
X266227850Y-123872150D01*
X266337118Y-123952793D01*
X266379845Y-123967744D01*
X266465299Y-123997646D01*
X266495730Y-124000500D01*
X266495734Y-124000500D01*
X267504270Y-124000500D01*
X267534699Y-123997646D01*
X267534701Y-123997646D01*
X267598790Y-123975219D01*
X267662882Y-123952793D01*
X267772150Y-123872150D01*
X267852793Y-123762882D01*
X267885337Y-123669877D01*
X267897646Y-123634701D01*
X267897646Y-123634699D01*
X267900500Y-123604269D01*
X267900500Y-122970730D01*
X267897646Y-122940300D01*
X267897646Y-122940298D01*
X267852793Y-122812119D01*
X267852792Y-122812117D01*
X267772150Y-122702850D01*
X267662882Y-122622207D01*
X267662880Y-122622206D01*
X267534700Y-122577353D01*
X267504270Y-122574500D01*
X267504266Y-122574500D01*
X266586188Y-122574500D01*
X266519149Y-122554815D01*
X266498507Y-122538181D01*
X265986819Y-122026492D01*
X265953334Y-121965169D01*
X265950500Y-121938811D01*
X265950500Y-121061188D01*
X265970185Y-120994149D01*
X265986819Y-120973507D01*
X266498507Y-120461819D01*
X266559830Y-120428334D01*
X266586188Y-120425500D01*
X267504270Y-120425500D01*
X267534699Y-120422646D01*
X267534701Y-120422646D01*
X267598790Y-120400219D01*
X267662882Y-120377793D01*
X267772150Y-120297150D01*
X267852793Y-120187882D01*
X267886224Y-120092342D01*
X267897646Y-120059701D01*
X267897646Y-120059699D01*
X267900500Y-120029269D01*
X267900500Y-119395730D01*
X267897646Y-119365300D01*
X267897646Y-119365298D01*
X267853639Y-119239537D01*
X267852793Y-119237118D01*
X267772150Y-119127850D01*
X267662882Y-119047207D01*
X267662880Y-119047206D01*
X267534700Y-119002353D01*
X267504270Y-118999500D01*
X267504266Y-118999500D01*
X266495734Y-118999500D01*
X266495730Y-118999500D01*
X266465300Y-119002353D01*
X266465298Y-119002353D01*
X266337119Y-119047206D01*
X266337117Y-119047207D01*
X266227850Y-119127850D01*
X266147207Y-119237117D01*
X266147206Y-119237119D01*
X266102353Y-119365298D01*
X266102353Y-119365300D01*
X266099500Y-119395730D01*
X266099500Y-119888810D01*
X266079815Y-119955849D01*
X266063181Y-119976491D01*
X265537181Y-120502492D01*
X265475858Y-120535977D01*
X265406167Y-120530993D01*
X265350233Y-120489122D01*
X265325816Y-120423657D01*
X265325500Y-120414811D01*
X265325500Y-109665544D01*
X265345185Y-109598505D01*
X265397989Y-109552750D01*
X265467147Y-109542806D01*
X265514861Y-109560169D01*
X265527045Y-109567726D01*
X265548517Y-109589198D01*
X265610566Y-109619531D01*
X265615861Y-109622816D01*
X265635167Y-109644388D01*
X265656542Y-109663917D01*
X265658311Y-109670249D01*
X265662455Y-109674880D01*
X265666283Y-109698782D01*
X265674500Y-109728191D01*
X265674500Y-114857147D01*
X265674500Y-114942853D01*
X265679626Y-114961985D01*
X265696682Y-115025640D01*
X265708996Y-115046968D01*
X265739535Y-115099862D01*
X265739537Y-115099864D01*
X266382012Y-115742339D01*
X266415497Y-115803662D01*
X266410513Y-115873354D01*
X266368641Y-115929287D01*
X266326427Y-115949793D01*
X266204353Y-115982503D01*
X266187510Y-115987017D01*
X266061987Y-116059488D01*
X266061981Y-116059493D01*
X265959492Y-116161982D01*
X265959487Y-116161988D01*
X265887016Y-116287511D01*
X265887015Y-116287515D01*
X265849499Y-116427525D01*
X265849499Y-116572475D01*
X265883879Y-116700780D01*
X265887016Y-116712488D01*
X265959487Y-116838011D01*
X265959492Y-116838017D01*
X265963180Y-116841705D01*
X265996665Y-116903028D01*
X265999499Y-116929386D01*
X265999499Y-117552727D01*
X266026792Y-117654587D01*
X266079519Y-117745913D01*
X266079522Y-117745916D01*
X266082887Y-117751744D01*
X266099500Y-117813745D01*
X266099500Y-118204269D01*
X266102353Y-118234699D01*
X266102353Y-118234701D01*
X266147206Y-118362880D01*
X266147207Y-118362882D01*
X266227850Y-118472150D01*
X266337118Y-118552793D01*
X266379148Y-118567500D01*
X266465299Y-118597646D01*
X266495730Y-118600500D01*
X266495734Y-118600500D01*
X267504270Y-118600500D01*
X267534699Y-118597646D01*
X267534701Y-118597646D01*
X267598790Y-118575219D01*
X267662882Y-118552793D01*
X267772150Y-118472150D01*
X267852793Y-118362882D01*
X267875219Y-118298790D01*
X267897646Y-118234701D01*
X267897646Y-118234699D01*
X267900500Y-118204269D01*
X267900500Y-117570723D01*
X267900365Y-117567838D01*
X267901228Y-117567797D01*
X267913888Y-117502695D01*
X267962187Y-117452208D01*
X268030114Y-117435848D01*
X268096103Y-117458810D01*
X268111690Y-117472017D01*
X270339534Y-119699861D01*
X270339535Y-119699862D01*
X270400138Y-119760465D01*
X270400140Y-119760466D01*
X270400144Y-119760469D01*
X270467262Y-119799219D01*
X270474362Y-119803318D01*
X270557147Y-119825500D01*
X272413811Y-119825500D01*
X272480850Y-119845185D01*
X272501492Y-119861819D01*
X282513501Y-129873828D01*
X282546986Y-129935151D01*
X282548991Y-129967807D01*
X282549635Y-129967838D01*
X282549500Y-129970723D01*
X282549500Y-131029269D01*
X282552353Y-131059699D01*
X282552353Y-131059701D01*
X282597206Y-131187880D01*
X282597207Y-131187882D01*
X282677850Y-131297150D01*
X282787118Y-131377793D01*
X282829845Y-131392744D01*
X282915299Y-131422646D01*
X282945730Y-131425500D01*
X282945734Y-131425500D01*
X283413811Y-131425500D01*
X283480850Y-131445185D01*
X283501492Y-131461819D01*
X284063181Y-132023508D01*
X284096666Y-132084831D01*
X284099500Y-132111189D01*
X284099500Y-132604268D01*
X284102353Y-132634698D01*
X284102353Y-132634700D01*
X284147206Y-132762879D01*
X284147207Y-132762881D01*
X284227850Y-132872149D01*
X284337118Y-132952792D01*
X284379845Y-132967743D01*
X284465299Y-132997645D01*
X284495730Y-133000499D01*
X284495734Y-133000499D01*
X285504270Y-133000499D01*
X285534699Y-132997645D01*
X285534701Y-132997645D01*
X285598790Y-132975218D01*
X285662882Y-132952792D01*
X285772150Y-132872149D01*
X285852793Y-132762881D01*
X285875219Y-132698789D01*
X285897646Y-132634700D01*
X285897646Y-132634698D01*
X285900500Y-132604268D01*
X285900500Y-131970729D01*
X285897646Y-131940299D01*
X285897646Y-131940297D01*
X285852793Y-131812118D01*
X285852792Y-131812116D01*
X285772150Y-131702849D01*
X285662882Y-131622206D01*
X285662880Y-131622205D01*
X285534700Y-131577352D01*
X285504270Y-131574499D01*
X285504266Y-131574499D01*
X284586188Y-131574499D01*
X284519149Y-131554814D01*
X284498507Y-131538180D01*
X283986819Y-131026492D01*
X283953334Y-130965169D01*
X283950500Y-130938811D01*
X283950500Y-130336824D01*
X291094500Y-130336824D01*
X291094500Y-130663175D01*
X291131035Y-130987441D01*
X291131038Y-130987455D01*
X291203655Y-131305612D01*
X291203656Y-131305614D01*
X291311438Y-131613640D01*
X291453030Y-131907657D01*
X291453032Y-131907660D01*
X291626654Y-132183979D01*
X291830123Y-132439121D01*
X292060879Y-132669877D01*
X292316021Y-132873346D01*
X292592340Y-133046968D01*
X292886361Y-133188562D01*
X293194387Y-133296344D01*
X293512544Y-133368962D01*
X293512553Y-133368963D01*
X293512558Y-133368964D01*
X293728735Y-133393320D01*
X293836825Y-133405499D01*
X293836828Y-133405500D01*
X293836831Y-133405500D01*
X294163172Y-133405500D01*
X294163173Y-133405499D01*
X294328900Y-133386826D01*
X294487441Y-133368964D01*
X294487444Y-133368963D01*
X294487456Y-133368962D01*
X294805613Y-133296344D01*
X295113639Y-133188562D01*
X295407660Y-133046968D01*
X295683979Y-132873346D01*
X295939121Y-132669877D01*
X296169877Y-132439121D01*
X296373346Y-132183979D01*
X296546968Y-131907660D01*
X296688562Y-131613639D01*
X296796344Y-131305613D01*
X296868962Y-130987456D01*
X296905500Y-130663169D01*
X296905500Y-130336831D01*
X296868962Y-130012544D01*
X296796344Y-129694387D01*
X296688562Y-129386361D01*
X296546968Y-129092340D01*
X296373346Y-128816021D01*
X296169877Y-128560879D01*
X295939121Y-128330123D01*
X295683979Y-128126654D01*
X295407660Y-127953032D01*
X295407657Y-127953030D01*
X295113640Y-127811438D01*
X294805614Y-127703656D01*
X294805612Y-127703655D01*
X294560073Y-127647612D01*
X294487456Y-127631038D01*
X294487453Y-127631037D01*
X294487441Y-127631035D01*
X294163175Y-127594500D01*
X294163169Y-127594500D01*
X293836831Y-127594500D01*
X293836824Y-127594500D01*
X293512558Y-127631035D01*
X293512544Y-127631038D01*
X293194387Y-127703655D01*
X293194385Y-127703656D01*
X292886359Y-127811438D01*
X292592342Y-127953030D01*
X292316022Y-128126653D01*
X292060879Y-128330122D01*
X291830122Y-128560879D01*
X291626653Y-128816022D01*
X291453030Y-129092342D01*
X291311438Y-129386359D01*
X291203656Y-129694385D01*
X291203655Y-129694387D01*
X291131038Y-130012544D01*
X291131035Y-130012558D01*
X291094500Y-130336824D01*
X283950500Y-130336824D01*
X283950500Y-130061189D01*
X283970185Y-129994150D01*
X283986819Y-129973508D01*
X284498508Y-129461819D01*
X284559831Y-129428334D01*
X284586189Y-129425500D01*
X285504270Y-129425500D01*
X285534699Y-129422646D01*
X285534701Y-129422646D01*
X285598790Y-129400219D01*
X285662882Y-129377793D01*
X285772150Y-129297150D01*
X285852793Y-129187882D01*
X285886224Y-129092342D01*
X285897646Y-129059701D01*
X285897646Y-129059699D01*
X285900500Y-129029269D01*
X285900500Y-128395730D01*
X285897646Y-128365300D01*
X285897646Y-128365298D01*
X285852793Y-128237119D01*
X285852792Y-128237117D01*
X285845461Y-128227184D01*
X285772150Y-128127850D01*
X285662882Y-128047207D01*
X285662880Y-128047206D01*
X285534700Y-128002353D01*
X285504270Y-127999500D01*
X285504266Y-127999500D01*
X284495734Y-127999500D01*
X284495730Y-127999500D01*
X284465300Y-128002353D01*
X284465298Y-128002353D01*
X284337119Y-128047206D01*
X284337117Y-128047207D01*
X284227850Y-128127850D01*
X284147207Y-128237117D01*
X284147206Y-128237119D01*
X284102353Y-128365298D01*
X284102353Y-128365300D01*
X284099500Y-128395730D01*
X284099500Y-128888811D01*
X284079815Y-128955850D01*
X284063181Y-128976492D01*
X283501492Y-129538181D01*
X283474564Y-129552884D01*
X283448746Y-129569477D01*
X283442545Y-129570368D01*
X283440169Y-129571666D01*
X283413811Y-129574500D01*
X283186189Y-129574500D01*
X283119150Y-129554815D01*
X283098508Y-129538181D01*
X272799864Y-119239537D01*
X272799862Y-119239535D01*
X272762750Y-119218108D01*
X272725640Y-119196682D01*
X272684246Y-119185591D01*
X272642853Y-119174500D01*
X272642852Y-119174500D01*
X272422771Y-119174500D01*
X272355732Y-119154815D01*
X272309977Y-119102011D01*
X272300033Y-119032853D01*
X272329058Y-118969297D01*
X272375319Y-118935939D01*
X272442361Y-118908169D01*
X272442361Y-118908168D01*
X272442373Y-118908164D01*
X272658127Y-118783599D01*
X272855776Y-118631938D01*
X273031938Y-118455776D01*
X273183599Y-118258127D01*
X273263978Y-118118905D01*
X276600000Y-118118905D01*
X276600000Y-118381094D01*
X276634220Y-118641009D01*
X276634222Y-118641020D01*
X276702075Y-118894255D01*
X276802404Y-119136471D01*
X276802409Y-119136482D01*
X276933496Y-119363528D01*
X277050779Y-119516375D01*
X277050780Y-119516375D01*
X277407095Y-119160059D01*
X277455864Y-119227184D01*
X277622816Y-119394136D01*
X277689938Y-119442903D01*
X277333623Y-119799218D01*
X277333623Y-119799219D01*
X277486467Y-119916500D01*
X277486483Y-119916511D01*
X277713517Y-120047590D01*
X277713528Y-120047595D01*
X277955744Y-120147924D01*
X278208979Y-120215777D01*
X278208990Y-120215779D01*
X278468905Y-120249999D01*
X278468920Y-120250000D01*
X278731080Y-120250000D01*
X278731094Y-120249999D01*
X278991009Y-120215779D01*
X278991020Y-120215777D01*
X279244255Y-120147924D01*
X279486471Y-120047595D01*
X279486482Y-120047590D01*
X279713516Y-119916511D01*
X279713524Y-119916505D01*
X279866375Y-119799218D01*
X279510061Y-119442903D01*
X279577184Y-119394136D01*
X279744136Y-119227184D01*
X279792903Y-119160060D01*
X280149218Y-119516375D01*
X280266505Y-119363524D01*
X280266511Y-119363516D01*
X280397590Y-119136482D01*
X280397595Y-119136471D01*
X280497924Y-118894255D01*
X280565777Y-118641020D01*
X280565779Y-118641009D01*
X280599999Y-118381094D01*
X280600000Y-118381080D01*
X280600000Y-118118919D01*
X280599999Y-118118905D01*
X280565779Y-117858990D01*
X280565777Y-117858979D01*
X280497924Y-117605744D01*
X280397595Y-117363528D01*
X280397590Y-117363517D01*
X280266511Y-117136483D01*
X280266500Y-117136467D01*
X280149218Y-116983623D01*
X279792903Y-117339938D01*
X279744136Y-117272816D01*
X279577184Y-117105864D01*
X279510060Y-117057095D01*
X279866375Y-116700780D01*
X279866375Y-116700779D01*
X279713528Y-116583496D01*
X279486482Y-116452409D01*
X279486471Y-116452404D01*
X279244255Y-116352075D01*
X278991020Y-116284222D01*
X278991009Y-116284220D01*
X278731094Y-116250000D01*
X278468905Y-116250000D01*
X278208990Y-116284220D01*
X278208979Y-116284222D01*
X277955744Y-116352075D01*
X277713528Y-116452404D01*
X277713517Y-116452409D01*
X277486476Y-116583492D01*
X277333623Y-116700779D01*
X277333623Y-116700780D01*
X277689939Y-117057096D01*
X277622816Y-117105864D01*
X277455864Y-117272816D01*
X277407096Y-117339939D01*
X277050780Y-116983623D01*
X277050779Y-116983623D01*
X276933492Y-117136476D01*
X276802409Y-117363517D01*
X276802404Y-117363528D01*
X276702075Y-117605744D01*
X276634222Y-117858979D01*
X276634220Y-117858990D01*
X276600000Y-118118905D01*
X273263978Y-118118905D01*
X273308164Y-118042373D01*
X273403502Y-117812207D01*
X273467982Y-117571565D01*
X273500500Y-117324565D01*
X273500500Y-117075435D01*
X273467982Y-116828435D01*
X273403502Y-116587793D01*
X273308164Y-116357627D01*
X273282101Y-116312485D01*
X273183599Y-116141873D01*
X273031939Y-115944225D01*
X273031933Y-115944218D01*
X272855781Y-115768066D01*
X272855774Y-115768060D01*
X272658126Y-115616400D01*
X272442376Y-115491837D01*
X272442361Y-115491830D01*
X272212207Y-115396498D01*
X272153304Y-115380715D01*
X271971565Y-115332018D01*
X271971564Y-115332017D01*
X271971561Y-115332017D01*
X271724575Y-115299501D01*
X271724570Y-115299500D01*
X271724565Y-115299500D01*
X271475435Y-115299500D01*
X271475429Y-115299500D01*
X271475424Y-115299501D01*
X271228438Y-115332017D01*
X270987792Y-115396498D01*
X270757638Y-115491830D01*
X270757625Y-115491836D01*
X270734009Y-115505471D01*
X270666108Y-115521941D01*
X270600082Y-115499087D01*
X270556893Y-115444165D01*
X270550836Y-115380715D01*
X270549439Y-115380531D01*
X270550500Y-115372473D01*
X270550500Y-115227527D01*
X270550500Y-115227525D01*
X270512984Y-115087515D01*
X270477260Y-115025640D01*
X270440511Y-114961988D01*
X270440506Y-114961982D01*
X270436819Y-114958295D01*
X270403334Y-114896972D01*
X270400500Y-114870614D01*
X270400500Y-112336824D01*
X273094500Y-112336824D01*
X273094500Y-112663175D01*
X273131035Y-112987441D01*
X273131038Y-112987455D01*
X273203655Y-113305612D01*
X273203656Y-113305614D01*
X273311438Y-113613640D01*
X273453030Y-113907657D01*
X273453032Y-113907660D01*
X273626654Y-114183979D01*
X273830123Y-114439121D01*
X274060879Y-114669877D01*
X274316021Y-114873346D01*
X274592340Y-115046968D01*
X274886361Y-115188562D01*
X275194387Y-115296344D01*
X275512544Y-115368962D01*
X275512553Y-115368963D01*
X275512558Y-115368964D01*
X275728735Y-115393320D01*
X275836825Y-115405499D01*
X275836828Y-115405500D01*
X275836831Y-115405500D01*
X276163172Y-115405500D01*
X276163173Y-115405499D01*
X276328900Y-115386826D01*
X276487441Y-115368964D01*
X276487444Y-115368963D01*
X276487456Y-115368962D01*
X276805613Y-115296344D01*
X277113639Y-115188562D01*
X277407660Y-115046968D01*
X277683979Y-114873346D01*
X277939121Y-114669877D01*
X278169877Y-114439121D01*
X278373346Y-114183979D01*
X278546968Y-113907660D01*
X278688562Y-113613639D01*
X278796344Y-113305613D01*
X278868962Y-112987456D01*
X278905500Y-112663169D01*
X278905500Y-112336831D01*
X278868962Y-112012544D01*
X278796344Y-111694387D01*
X278688562Y-111386361D01*
X278546968Y-111092340D01*
X278373346Y-110816021D01*
X278169877Y-110560879D01*
X277939121Y-110330123D01*
X277683979Y-110126654D01*
X277407660Y-109953032D01*
X277407657Y-109953030D01*
X277113640Y-109811438D01*
X276805614Y-109703656D01*
X276805612Y-109703655D01*
X276554923Y-109646437D01*
X276487456Y-109631038D01*
X276487453Y-109631037D01*
X276487441Y-109631035D01*
X276163175Y-109594500D01*
X276163169Y-109594500D01*
X275836831Y-109594500D01*
X275836824Y-109594500D01*
X275512558Y-109631035D01*
X275512544Y-109631038D01*
X275194387Y-109703655D01*
X275194385Y-109703656D01*
X274886359Y-109811438D01*
X274592342Y-109953030D01*
X274316022Y-110126653D01*
X274060879Y-110330122D01*
X273830122Y-110560879D01*
X273626653Y-110816022D01*
X273453030Y-111092342D01*
X273311438Y-111386359D01*
X273203656Y-111694385D01*
X273203655Y-111694387D01*
X273131038Y-112012544D01*
X273131035Y-112012558D01*
X273094500Y-112336824D01*
X270400500Y-112336824D01*
X270400500Y-106227525D01*
X282449500Y-106227525D01*
X282449500Y-106372475D01*
X282487016Y-106512485D01*
X282487017Y-106512488D01*
X282559488Y-106638011D01*
X282559490Y-106638013D01*
X282559490Y-106638014D01*
X282559493Y-106638017D01*
X282638181Y-106716705D01*
X282671666Y-106778028D01*
X282674500Y-106804386D01*
X282674500Y-111666586D01*
X282654815Y-111733625D01*
X282650270Y-111740219D01*
X282597209Y-111812113D01*
X282597206Y-111812119D01*
X282552353Y-111940298D01*
X282552353Y-111940300D01*
X282549500Y-111970730D01*
X282549500Y-113029269D01*
X282552353Y-113059699D01*
X282552353Y-113059701D01*
X282597206Y-113187880D01*
X282597207Y-113187882D01*
X282677850Y-113297150D01*
X282787118Y-113377793D01*
X282829845Y-113392744D01*
X282915299Y-113422646D01*
X282945730Y-113425500D01*
X282945734Y-113425500D01*
X283413811Y-113425500D01*
X283480850Y-113445185D01*
X283501492Y-113461819D01*
X284063181Y-114023508D01*
X284096666Y-114084831D01*
X284099500Y-114111189D01*
X284099500Y-114604269D01*
X284102353Y-114634699D01*
X284102353Y-114634701D01*
X284130036Y-114713811D01*
X284147207Y-114762882D01*
X284227850Y-114872150D01*
X284337118Y-114952793D01*
X284363396Y-114961988D01*
X284465299Y-114997646D01*
X284495730Y-115000500D01*
X284495734Y-115000500D01*
X285504270Y-115000500D01*
X285534699Y-114997646D01*
X285534701Y-114997646D01*
X285598790Y-114975219D01*
X285662882Y-114952793D01*
X285772150Y-114872150D01*
X285775729Y-114867299D01*
X285831375Y-114825049D01*
X285901031Y-114819589D01*
X285962581Y-114852654D01*
X285996483Y-114913748D01*
X285999500Y-114940932D01*
X285999500Y-115459067D01*
X285979815Y-115526106D01*
X285927011Y-115571861D01*
X285857853Y-115581805D01*
X285794297Y-115552780D01*
X285775731Y-115532702D01*
X285772150Y-115527850D01*
X285662882Y-115447207D01*
X285662880Y-115447206D01*
X285534700Y-115402353D01*
X285504270Y-115399500D01*
X285504266Y-115399500D01*
X284495734Y-115399500D01*
X284495730Y-115399500D01*
X284465300Y-115402353D01*
X284465298Y-115402353D01*
X284337119Y-115447206D01*
X284337117Y-115447207D01*
X284227850Y-115527850D01*
X284147205Y-115637120D01*
X284145646Y-115640071D01*
X284143087Y-115642699D01*
X284141689Y-115644595D01*
X284141429Y-115644403D01*
X284096917Y-115690144D01*
X284028853Y-115705923D01*
X283963062Y-115682398D01*
X283948335Y-115669811D01*
X283938017Y-115659493D01*
X283938011Y-115659488D01*
X283812488Y-115587017D01*
X283812489Y-115587017D01*
X283801006Y-115583940D01*
X283672475Y-115549500D01*
X283527525Y-115549500D01*
X283398993Y-115583940D01*
X283387511Y-115587017D01*
X283261988Y-115659488D01*
X283261982Y-115659493D01*
X283159493Y-115761982D01*
X283159488Y-115761988D01*
X283087017Y-115887511D01*
X283087016Y-115887515D01*
X283049500Y-116027525D01*
X283049500Y-116172475D01*
X283087016Y-116312485D01*
X283087017Y-116312488D01*
X283159488Y-116438011D01*
X283159490Y-116438013D01*
X283159491Y-116438015D01*
X283261985Y-116540509D01*
X283261986Y-116540510D01*
X283261988Y-116540511D01*
X283387511Y-116612982D01*
X283387512Y-116612982D01*
X283387515Y-116612984D01*
X283527525Y-116650500D01*
X283527528Y-116650500D01*
X283672472Y-116650500D01*
X283672475Y-116650500D01*
X283812485Y-116612984D01*
X283938015Y-116540509D01*
X283941155Y-116537368D01*
X283944454Y-116535566D01*
X283944461Y-116535562D01*
X284002474Y-116503881D01*
X284072166Y-116508862D01*
X284128102Y-116550730D01*
X284145878Y-116584085D01*
X284147205Y-116587878D01*
X284147207Y-116587882D01*
X284227850Y-116697150D01*
X284337118Y-116777793D01*
X284379845Y-116792744D01*
X284465299Y-116822646D01*
X284495730Y-116825500D01*
X284495734Y-116825500D01*
X285504270Y-116825500D01*
X285534699Y-116822646D01*
X285534701Y-116822646D01*
X285598790Y-116800219D01*
X285662882Y-116777793D01*
X285772150Y-116697150D01*
X285775729Y-116692299D01*
X285831375Y-116650049D01*
X285901031Y-116644589D01*
X285962581Y-116677654D01*
X285996483Y-116738748D01*
X285999500Y-116765932D01*
X285999500Y-125270614D01*
X285979815Y-125337653D01*
X285963181Y-125358295D01*
X285959493Y-125361982D01*
X285959488Y-125361988D01*
X285887017Y-125487511D01*
X285887016Y-125487515D01*
X285849500Y-125627525D01*
X285849500Y-125627527D01*
X285849500Y-125632745D01*
X285829815Y-125699784D01*
X285813181Y-125720426D01*
X285395426Y-126138181D01*
X285334103Y-126171666D01*
X285307745Y-126174500D01*
X284495730Y-126174500D01*
X284465300Y-126177353D01*
X284465298Y-126177353D01*
X284337119Y-126222206D01*
X284337117Y-126222207D01*
X284227850Y-126302850D01*
X284147207Y-126412117D01*
X284147206Y-126412119D01*
X284102353Y-126540298D01*
X284102353Y-126540300D01*
X284099500Y-126570730D01*
X284099500Y-127204269D01*
X284102353Y-127234699D01*
X284102353Y-127234701D01*
X284147206Y-127362880D01*
X284147207Y-127362882D01*
X284227850Y-127472150D01*
X284337118Y-127552793D01*
X284379845Y-127567744D01*
X284465299Y-127597646D01*
X284495730Y-127600500D01*
X284495734Y-127600500D01*
X285504270Y-127600500D01*
X285534699Y-127597646D01*
X285534701Y-127597646D01*
X285598790Y-127575219D01*
X285662882Y-127552793D01*
X285772150Y-127472150D01*
X285852793Y-127362882D01*
X285875219Y-127298790D01*
X285897646Y-127234701D01*
X285897646Y-127234699D01*
X285900500Y-127204269D01*
X285900500Y-126817255D01*
X285920185Y-126750216D01*
X285936819Y-126729574D01*
X286379574Y-126286819D01*
X286440897Y-126253334D01*
X286467255Y-126250500D01*
X286472472Y-126250500D01*
X286472475Y-126250500D01*
X286612485Y-126212984D01*
X286738015Y-126140509D01*
X286840509Y-126038015D01*
X286912984Y-125912485D01*
X286950500Y-125772475D01*
X286950500Y-125627525D01*
X286912984Y-125487515D01*
X286896924Y-125459699D01*
X286840511Y-125361988D01*
X286840506Y-125361982D01*
X286836819Y-125358295D01*
X286803334Y-125296972D01*
X286800500Y-125270614D01*
X286800500Y-109847275D01*
X286800499Y-109847271D01*
X286790898Y-109811436D01*
X286773208Y-109745414D01*
X286760261Y-109722989D01*
X286720480Y-109654087D01*
X285936819Y-108870426D01*
X285903334Y-108809103D01*
X285900500Y-108782745D01*
X285900500Y-108570730D01*
X285897646Y-108540300D01*
X285897646Y-108540298D01*
X285855551Y-108420000D01*
X285852793Y-108412118D01*
X285772150Y-108302850D01*
X285662882Y-108222207D01*
X285662880Y-108222206D01*
X285534700Y-108177353D01*
X285504270Y-108174500D01*
X285504266Y-108174500D01*
X284924500Y-108174500D01*
X284857461Y-108154815D01*
X284811706Y-108102011D01*
X284800500Y-108050500D01*
X284800500Y-107227525D01*
X300449500Y-107227525D01*
X300449500Y-107372475D01*
X300468536Y-107443517D01*
X300487017Y-107512488D01*
X300559488Y-107638011D01*
X300559493Y-107638017D01*
X300638181Y-107716705D01*
X300671666Y-107778028D01*
X300674500Y-107804386D01*
X300674500Y-129666586D01*
X300654815Y-129733625D01*
X300650270Y-129740219D01*
X300597209Y-129812113D01*
X300597206Y-129812119D01*
X300552353Y-129940298D01*
X300552353Y-129940300D01*
X300549500Y-129970730D01*
X300549500Y-131029269D01*
X300552353Y-131059699D01*
X300552353Y-131059701D01*
X300597206Y-131187880D01*
X300597207Y-131187882D01*
X300677850Y-131297150D01*
X300787118Y-131377793D01*
X300829845Y-131392744D01*
X300915299Y-131422646D01*
X300945730Y-131425500D01*
X300945734Y-131425500D01*
X301413811Y-131425500D01*
X301480850Y-131445185D01*
X301501492Y-131461819D01*
X302063181Y-132023508D01*
X302096666Y-132084831D01*
X302099500Y-132111189D01*
X302099500Y-132604268D01*
X302102353Y-132634698D01*
X302102353Y-132634700D01*
X302147206Y-132762879D01*
X302147207Y-132762881D01*
X302227850Y-132872149D01*
X302337118Y-132952792D01*
X302379845Y-132967743D01*
X302465299Y-132997645D01*
X302495730Y-133000499D01*
X302495734Y-133000499D01*
X303504270Y-133000499D01*
X303534699Y-132997645D01*
X303534701Y-132997645D01*
X303598790Y-132975218D01*
X303662882Y-132952792D01*
X303772150Y-132872149D01*
X303852793Y-132762881D01*
X303875219Y-132698789D01*
X303897646Y-132634700D01*
X303897646Y-132634698D01*
X303900500Y-132604268D01*
X303900500Y-131970729D01*
X303897646Y-131940299D01*
X303897646Y-131940297D01*
X303852793Y-131812118D01*
X303852792Y-131812116D01*
X303772150Y-131702849D01*
X303662882Y-131622206D01*
X303662880Y-131622205D01*
X303534700Y-131577352D01*
X303504270Y-131574499D01*
X303504266Y-131574499D01*
X302586188Y-131574499D01*
X302519149Y-131554814D01*
X302498507Y-131538180D01*
X301986819Y-131026492D01*
X301953334Y-130965169D01*
X301950500Y-130938811D01*
X301950500Y-130061189D01*
X301970185Y-129994150D01*
X301986819Y-129973508D01*
X302498508Y-129461819D01*
X302559831Y-129428334D01*
X302586189Y-129425500D01*
X303504270Y-129425500D01*
X303534699Y-129422646D01*
X303534701Y-129422646D01*
X303598790Y-129400219D01*
X303662882Y-129377793D01*
X303772150Y-129297150D01*
X303852793Y-129187882D01*
X303886224Y-129092342D01*
X303897646Y-129059701D01*
X303897646Y-129059699D01*
X303900500Y-129029269D01*
X303900500Y-128395730D01*
X303897646Y-128365300D01*
X303897646Y-128365298D01*
X303852793Y-128237119D01*
X303852792Y-128237117D01*
X303845461Y-128227184D01*
X303772150Y-128127850D01*
X303662882Y-128047207D01*
X303662880Y-128047206D01*
X303534700Y-128002353D01*
X303504270Y-127999500D01*
X303504266Y-127999500D01*
X302495734Y-127999500D01*
X302495730Y-127999500D01*
X302465300Y-128002353D01*
X302465298Y-128002353D01*
X302337119Y-128047206D01*
X302337117Y-128047207D01*
X302227850Y-128127850D01*
X302147207Y-128237117D01*
X302147206Y-128237119D01*
X302102353Y-128365298D01*
X302102353Y-128365300D01*
X302099500Y-128395730D01*
X302099500Y-128888811D01*
X302079815Y-128955850D01*
X302063181Y-128976492D01*
X301537181Y-129502492D01*
X301475858Y-129535977D01*
X301406166Y-129530993D01*
X301350233Y-129489121D01*
X301325816Y-129423657D01*
X301325500Y-129414811D01*
X301325500Y-125627525D01*
X301849500Y-125627525D01*
X301849500Y-125772475D01*
X301872925Y-125859896D01*
X301887017Y-125912488D01*
X301959488Y-126038011D01*
X301959493Y-126038017D01*
X301963181Y-126041705D01*
X301996666Y-126103028D01*
X301999500Y-126129386D01*
X301999500Y-126552727D01*
X302026793Y-126654587D01*
X302079520Y-126745913D01*
X302079523Y-126745916D01*
X302082887Y-126751742D01*
X302099500Y-126813743D01*
X302099500Y-127204269D01*
X302102353Y-127234699D01*
X302102353Y-127234701D01*
X302147206Y-127362880D01*
X302147207Y-127362882D01*
X302227850Y-127472150D01*
X302337118Y-127552793D01*
X302379845Y-127567744D01*
X302465299Y-127597646D01*
X302495730Y-127600500D01*
X302495734Y-127600500D01*
X303504270Y-127600500D01*
X303534699Y-127597646D01*
X303534701Y-127597646D01*
X303598790Y-127575219D01*
X303662882Y-127552793D01*
X303772150Y-127472150D01*
X303852793Y-127362882D01*
X303875219Y-127298790D01*
X303897646Y-127234701D01*
X303897646Y-127234699D01*
X303900500Y-127204269D01*
X303900500Y-126570730D01*
X303897646Y-126540300D01*
X303897646Y-126540298D01*
X303852793Y-126412119D01*
X303852792Y-126412117D01*
X303816932Y-126363528D01*
X303772150Y-126302850D01*
X303662882Y-126222207D01*
X303662880Y-126222206D01*
X303534700Y-126177353D01*
X303504270Y-126174500D01*
X303504266Y-126174500D01*
X302976484Y-126174500D01*
X302909445Y-126154815D01*
X302863690Y-126102011D01*
X302853746Y-126032853D01*
X302869097Y-125988500D01*
X302912982Y-125912488D01*
X302912981Y-125912488D01*
X302912984Y-125912485D01*
X302950500Y-125772475D01*
X302950500Y-125627525D01*
X302912984Y-125487515D01*
X302896924Y-125459699D01*
X302840511Y-125361988D01*
X302840506Y-125361982D01*
X302738017Y-125259493D01*
X302738011Y-125259488D01*
X302612488Y-125187017D01*
X302612489Y-125187017D01*
X302601006Y-125183940D01*
X302472475Y-125149500D01*
X302327525Y-125149500D01*
X302198993Y-125183940D01*
X302187511Y-125187017D01*
X302061988Y-125259488D01*
X302061982Y-125259493D01*
X301959493Y-125361982D01*
X301959488Y-125361988D01*
X301887017Y-125487511D01*
X301887016Y-125487515D01*
X301849500Y-125627525D01*
X301325500Y-125627525D01*
X301325500Y-107804386D01*
X301345185Y-107737347D01*
X301361819Y-107716705D01*
X301380134Y-107698390D01*
X301440509Y-107638015D01*
X301512984Y-107512485D01*
X301550500Y-107372475D01*
X301550500Y-107227525D01*
X301512984Y-107087515D01*
X301502831Y-107069930D01*
X301440511Y-106961988D01*
X301440506Y-106961982D01*
X301338017Y-106859493D01*
X301338011Y-106859488D01*
X301212488Y-106787017D01*
X301212489Y-106787017D01*
X301201006Y-106783940D01*
X301072475Y-106749500D01*
X300927525Y-106749500D01*
X300798993Y-106783940D01*
X300787511Y-106787017D01*
X300661988Y-106859488D01*
X300661982Y-106859493D01*
X300559493Y-106961982D01*
X300559488Y-106961988D01*
X300487017Y-107087511D01*
X300487016Y-107087515D01*
X300449500Y-107227525D01*
X284800500Y-107227525D01*
X284800500Y-105729386D01*
X284820185Y-105662347D01*
X284836819Y-105641705D01*
X284840509Y-105638015D01*
X284912984Y-105512485D01*
X284950500Y-105372475D01*
X284950500Y-105227525D01*
X284912984Y-105087515D01*
X284900500Y-105065893D01*
X284840511Y-104961988D01*
X284840510Y-104961986D01*
X284840509Y-104961985D01*
X284738015Y-104859491D01*
X284738013Y-104859490D01*
X284738011Y-104859488D01*
X284612488Y-104787017D01*
X284612489Y-104787017D01*
X284584517Y-104779522D01*
X284472475Y-104749500D01*
X284327525Y-104749500D01*
X284215483Y-104779522D01*
X284187511Y-104787017D01*
X284061988Y-104859488D01*
X284061982Y-104859493D01*
X283959493Y-104961982D01*
X283959488Y-104961988D01*
X283887017Y-105087511D01*
X283887016Y-105087515D01*
X283849500Y-105227525D01*
X283849500Y-105372475D01*
X283884564Y-105503334D01*
X283887017Y-105512488D01*
X283959488Y-105638011D01*
X283959493Y-105638017D01*
X283963181Y-105641705D01*
X283996666Y-105703028D01*
X283999500Y-105729386D01*
X283999500Y-108552727D01*
X284026793Y-108654587D01*
X284079520Y-108745913D01*
X284079523Y-108745916D01*
X284082887Y-108751742D01*
X284099500Y-108813743D01*
X284099500Y-109204269D01*
X284102353Y-109234699D01*
X284102353Y-109234701D01*
X284147206Y-109362880D01*
X284147207Y-109362882D01*
X284227850Y-109472150D01*
X284337118Y-109552793D01*
X284368723Y-109563852D01*
X284465299Y-109597646D01*
X284495730Y-109600500D01*
X285482745Y-109600500D01*
X285549784Y-109620185D01*
X285570426Y-109636819D01*
X285767788Y-109834181D01*
X285801273Y-109895504D01*
X285796289Y-109965196D01*
X285754417Y-110021129D01*
X285688953Y-110045546D01*
X285639152Y-110038903D01*
X285534701Y-110002354D01*
X285534699Y-110002353D01*
X285504270Y-109999500D01*
X285504266Y-109999500D01*
X284495734Y-109999500D01*
X284495730Y-109999500D01*
X284465300Y-110002353D01*
X284465298Y-110002353D01*
X284337119Y-110047206D01*
X284337117Y-110047207D01*
X284227850Y-110127850D01*
X284147207Y-110237117D01*
X284147206Y-110237119D01*
X284102353Y-110365298D01*
X284102353Y-110365300D01*
X284099500Y-110395730D01*
X284099500Y-110888811D01*
X284079815Y-110955850D01*
X284063181Y-110976492D01*
X283537181Y-111502492D01*
X283475858Y-111535977D01*
X283406166Y-111530993D01*
X283350233Y-111489121D01*
X283325816Y-111423657D01*
X283325500Y-111414811D01*
X283325500Y-106804386D01*
X283345185Y-106737347D01*
X283361819Y-106716705D01*
X283391013Y-106687511D01*
X283440509Y-106638015D01*
X283512984Y-106512485D01*
X283550500Y-106372475D01*
X283550500Y-106227525D01*
X283512984Y-106087515D01*
X283440509Y-105961985D01*
X283338015Y-105859491D01*
X283338013Y-105859490D01*
X283338011Y-105859488D01*
X283212488Y-105787017D01*
X283212489Y-105787017D01*
X283201006Y-105783940D01*
X283072475Y-105749500D01*
X282927525Y-105749500D01*
X282798993Y-105783940D01*
X282787511Y-105787017D01*
X282661988Y-105859488D01*
X282661982Y-105859493D01*
X282559493Y-105961982D01*
X282559488Y-105961988D01*
X282487017Y-106087511D01*
X282487016Y-106087515D01*
X282449500Y-106227525D01*
X270400500Y-106227525D01*
X270400500Y-105729386D01*
X270420185Y-105662347D01*
X270436819Y-105641705D01*
X270440509Y-105638015D01*
X270512984Y-105512485D01*
X270550500Y-105372475D01*
X270550500Y-105227525D01*
X270512984Y-105087515D01*
X270500500Y-105065893D01*
X270440511Y-104961988D01*
X270440510Y-104961986D01*
X270440509Y-104961985D01*
X270436819Y-104958295D01*
X270403334Y-104896972D01*
X270400500Y-104870614D01*
X270400500Y-104579500D01*
X270420185Y-104512461D01*
X270472989Y-104466706D01*
X270524500Y-104455500D01*
X270554270Y-104455500D01*
X270584699Y-104452646D01*
X270584701Y-104452646D01*
X270649672Y-104429911D01*
X270712882Y-104407793D01*
X270822150Y-104327150D01*
X270902793Y-104217882D01*
X270943074Y-104102766D01*
X270947646Y-104089701D01*
X270947646Y-104089699D01*
X270950500Y-104059269D01*
X270950500Y-103000730D01*
X270947646Y-102970300D01*
X270947646Y-102970298D01*
X270902793Y-102842119D01*
X270902792Y-102842117D01*
X270871504Y-102799723D01*
X270822150Y-102732850D01*
X270712882Y-102652207D01*
X270712880Y-102652206D01*
X270584700Y-102607353D01*
X270554270Y-102604500D01*
X270554266Y-102604500D01*
X269945734Y-102604500D01*
X269945730Y-102604500D01*
X269915300Y-102607353D01*
X269915298Y-102607353D01*
X269787119Y-102652206D01*
X269787117Y-102652207D01*
X269677850Y-102732850D01*
X269597207Y-102842117D01*
X269597206Y-102842119D01*
X269552353Y-102970298D01*
X269552353Y-102970300D01*
X269549500Y-103000730D01*
X269549500Y-103003213D01*
X269529815Y-103070252D01*
X269477011Y-103116007D01*
X269425156Y-103127213D01*
X269069156Y-103126226D01*
X269002172Y-103106355D01*
X268956563Y-103053425D01*
X268945500Y-103002226D01*
X268945500Y-102666739D01*
X268936847Y-102607353D01*
X268935573Y-102598607D01*
X268884198Y-102493517D01*
X268884196Y-102493515D01*
X268884196Y-102493514D01*
X268801482Y-102410800D01*
X268717495Y-102369742D01*
X268665912Y-102322615D01*
X268647998Y-102255081D01*
X268664567Y-102196343D01*
X268712984Y-102112485D01*
X268750500Y-101972475D01*
X268750500Y-101827525D01*
X268712984Y-101687515D01*
X268640509Y-101561985D01*
X268538015Y-101459491D01*
X268538013Y-101459490D01*
X268538011Y-101459488D01*
X268412488Y-101387017D01*
X268412489Y-101387017D01*
X268390253Y-101381059D01*
X268272475Y-101349500D01*
X268127525Y-101349500D01*
X268009747Y-101381059D01*
X267987511Y-101387017D01*
X267861988Y-101459488D01*
X267861982Y-101459493D01*
X267759493Y-101561982D01*
X267759488Y-101561988D01*
X267687017Y-101687511D01*
X267687016Y-101687515D01*
X267649500Y-101827525D01*
X267649500Y-101972475D01*
X267687016Y-102112485D01*
X267687017Y-102112488D01*
X267759488Y-102238011D01*
X267759493Y-102238017D01*
X267763181Y-102241705D01*
X267796666Y-102303028D01*
X267799500Y-102329386D01*
X267799500Y-102752727D01*
X267826793Y-102854587D01*
X267876168Y-102940108D01*
X267879521Y-102945914D01*
X267908181Y-102974574D01*
X267941666Y-103035897D01*
X267944500Y-103062255D01*
X267944500Y-104383260D01*
X267954426Y-104451391D01*
X268005803Y-104556485D01*
X268032232Y-104582914D01*
X268065717Y-104644237D01*
X268060733Y-104713929D01*
X268018861Y-104769862D01*
X267992006Y-104785155D01*
X267987515Y-104787015D01*
X267861988Y-104859488D01*
X267861982Y-104859493D01*
X267759493Y-104961982D01*
X267759491Y-104961985D01*
X267707387Y-105052231D01*
X267656819Y-105100446D01*
X267588212Y-105113668D01*
X267523347Y-105087700D01*
X267492613Y-105052231D01*
X267470950Y-105014711D01*
X267440509Y-104961985D01*
X267338015Y-104859491D01*
X267338013Y-104859490D01*
X267338011Y-104859488D01*
X267212488Y-104787017D01*
X267212489Y-104787017D01*
X267184517Y-104779522D01*
X267072475Y-104749500D01*
X266927525Y-104749500D01*
X266815483Y-104779522D01*
X266787511Y-104787017D01*
X266661988Y-104859488D01*
X266661982Y-104859493D01*
X266559493Y-104961982D01*
X266559486Y-104961991D01*
X266556886Y-104966496D01*
X266506319Y-105014711D01*
X266437712Y-105027933D01*
X266372847Y-105001965D01*
X266332319Y-104945050D01*
X266325500Y-104904495D01*
X266325500Y-104622395D01*
X266341834Y-104566765D01*
X266339685Y-104565714D01*
X266344198Y-104556483D01*
X266395573Y-104451393D01*
X266405500Y-104383260D01*
X266405500Y-102666740D01*
X266395573Y-102598607D01*
X266344198Y-102493517D01*
X266344196Y-102493515D01*
X266344196Y-102493514D01*
X266261485Y-102410803D01*
X266252613Y-102406466D01*
X266156393Y-102359427D01*
X266156391Y-102359426D01*
X266088261Y-102349500D01*
X266088260Y-102349500D01*
X265721740Y-102349500D01*
X265721739Y-102349500D01*
X265653608Y-102359426D01*
X265548514Y-102410803D01*
X265465803Y-102493514D01*
X265414426Y-102598608D01*
X265404500Y-102666739D01*
X265404500Y-104383260D01*
X265414426Y-104451391D01*
X265465803Y-104556485D01*
X265548515Y-104639197D01*
X265548514Y-104639197D01*
X265572898Y-104651117D01*
X265604960Y-104666791D01*
X265656542Y-104713917D01*
X265674500Y-104778191D01*
X265674500Y-105795613D01*
X265654815Y-105862652D01*
X265638182Y-105883294D01*
X265559488Y-105961988D01*
X265487017Y-106087511D01*
X265487016Y-106087515D01*
X265449500Y-106227525D01*
X265449500Y-106227527D01*
X265449500Y-106271613D01*
X265443261Y-106292858D01*
X265441682Y-106314947D01*
X265433609Y-106325730D01*
X265429815Y-106338652D01*
X265413081Y-106353151D01*
X265399810Y-106370880D01*
X265387189Y-106375587D01*
X265377011Y-106384407D01*
X265355093Y-106387558D01*
X265334346Y-106395297D01*
X265321185Y-106392434D01*
X265307853Y-106394351D01*
X265287709Y-106385151D01*
X265266073Y-106380445D01*
X265248347Y-106367176D01*
X265244297Y-106365326D01*
X265237819Y-106359294D01*
X265161819Y-106283294D01*
X265128334Y-106221971D01*
X265125500Y-106195613D01*
X265125500Y-104460878D01*
X265126796Y-104443000D01*
X265135500Y-104383260D01*
X265135500Y-102666739D01*
X265126847Y-102607353D01*
X265125573Y-102598607D01*
X265074198Y-102493517D01*
X265074196Y-102493515D01*
X265074196Y-102493514D01*
X264991485Y-102410803D01*
X264982613Y-102406466D01*
X264886393Y-102359427D01*
X264886391Y-102359426D01*
X264818261Y-102349500D01*
X264818260Y-102349500D01*
X264451740Y-102349500D01*
X264451739Y-102349500D01*
X264383608Y-102359426D01*
X264278514Y-102410803D01*
X264195803Y-102493514D01*
X264144426Y-102598608D01*
X264134500Y-102666739D01*
X262595500Y-102666739D01*
X262585573Y-102598607D01*
X262534198Y-102493517D01*
X262534196Y-102493515D01*
X262534196Y-102493514D01*
X262447148Y-102406466D01*
X262413663Y-102345143D01*
X262418647Y-102275451D01*
X262436459Y-102243291D01*
X262440501Y-102238022D01*
X262440509Y-102238015D01*
X262512984Y-102112485D01*
X262550500Y-101972475D01*
X262550500Y-101827525D01*
X262512984Y-101687515D01*
X262440509Y-101561985D01*
X262338015Y-101459491D01*
X262338013Y-101459490D01*
X262338011Y-101459488D01*
X262212488Y-101387017D01*
X262212489Y-101387017D01*
X262190253Y-101381059D01*
X262072475Y-101349500D01*
X261927525Y-101349500D01*
X261809747Y-101381059D01*
X261787511Y-101387017D01*
X261661988Y-101459488D01*
X261661982Y-101459493D01*
X261559493Y-101561982D01*
X261559488Y-101561988D01*
X261487017Y-101687511D01*
X261487016Y-101687515D01*
X261449500Y-101827525D01*
X261449500Y-101972475D01*
X261487016Y-102112485D01*
X261487017Y-102112488D01*
X261559488Y-102238011D01*
X261559493Y-102238017D01*
X261563181Y-102241705D01*
X261596666Y-102303028D01*
X261599500Y-102329386D01*
X261599500Y-102623439D01*
X261598205Y-102641304D01*
X261594500Y-102666740D01*
X261594500Y-102666746D01*
X261594500Y-104287745D01*
X261585855Y-104317185D01*
X261579332Y-104347172D01*
X261575577Y-104352187D01*
X261574815Y-104354784D01*
X261558181Y-104375426D01*
X261537181Y-104396426D01*
X261475858Y-104429911D01*
X261406166Y-104424927D01*
X261350233Y-104383055D01*
X261325816Y-104317591D01*
X261325500Y-104308745D01*
X261325500Y-102666739D01*
X261316847Y-102607353D01*
X261315573Y-102598607D01*
X261264198Y-102493517D01*
X261264196Y-102493515D01*
X261264196Y-102493514D01*
X261181485Y-102410803D01*
X261172613Y-102406466D01*
X261076393Y-102359427D01*
X261076391Y-102359426D01*
X261031853Y-102352936D01*
X261031853Y-102352937D01*
X261031852Y-102352936D01*
X261031621Y-102352903D01*
X261000136Y-102338452D01*
X260968297Y-102323912D01*
X260968230Y-102323808D01*
X260968120Y-102323758D01*
X260949356Y-102294439D01*
X260930523Y-102265134D01*
X260930500Y-102264976D01*
X260930457Y-102264909D01*
X260925500Y-102230199D01*
X260925500Y-102204386D01*
X260945185Y-102137347D01*
X260961819Y-102116705D01*
X260966039Y-102112485D01*
X261040509Y-102038015D01*
X261112984Y-101912485D01*
X261150500Y-101772475D01*
X261150500Y-101627525D01*
X261112984Y-101487515D01*
X261096805Y-101459493D01*
X261040511Y-101361988D01*
X261040506Y-101361982D01*
X260938017Y-101259493D01*
X260938011Y-101259488D01*
X260812488Y-101187017D01*
X260812489Y-101187017D01*
X260794306Y-101182145D01*
X260672475Y-101149500D01*
X260527525Y-101149500D01*
X260405694Y-101182145D01*
X260387511Y-101187017D01*
X260261988Y-101259488D01*
X260261982Y-101259493D01*
X260159493Y-101361982D01*
X260159488Y-101361988D01*
X260087017Y-101487511D01*
X260087016Y-101487515D01*
X260049500Y-101627525D01*
X260049500Y-101772475D01*
X260087016Y-101912485D01*
X260087017Y-101912488D01*
X260159488Y-102038011D01*
X260159493Y-102038017D01*
X260238181Y-102116705D01*
X260271666Y-102178028D01*
X260274500Y-102204386D01*
X260274500Y-102530904D01*
X260254815Y-102597943D01*
X260202011Y-102643698D01*
X260132853Y-102653642D01*
X260069297Y-102624617D01*
X260039100Y-102585364D01*
X259994199Y-102493517D01*
X259911485Y-102410803D01*
X259902613Y-102406466D01*
X259806393Y-102359427D01*
X259806391Y-102359426D01*
X259738261Y-102349500D01*
X259738260Y-102349500D01*
X259371740Y-102349500D01*
X259371739Y-102349500D01*
X259303611Y-102359425D01*
X259303607Y-102359427D01*
X259298543Y-102361902D01*
X259286458Y-102364698D01*
X259279022Y-102369477D01*
X259244087Y-102374500D01*
X259104387Y-102374500D01*
X259037348Y-102354815D01*
X259016706Y-102338182D01*
X258981552Y-102303028D01*
X258938015Y-102259491D01*
X258938012Y-102259489D01*
X258938011Y-102259488D01*
X258812488Y-102187017D01*
X258812489Y-102187017D01*
X258801006Y-102183940D01*
X258672475Y-102149500D01*
X258527525Y-102149500D01*
X258398993Y-102183940D01*
X258387511Y-102187017D01*
X258261988Y-102259488D01*
X258261982Y-102259493D01*
X258159493Y-102361982D01*
X258159488Y-102361988D01*
X258087017Y-102487511D01*
X258087016Y-102487515D01*
X258049500Y-102627525D01*
X258049500Y-102772475D01*
X258087016Y-102912485D01*
X258087017Y-102912488D01*
X258159488Y-103038011D01*
X258159490Y-103038013D01*
X258159491Y-103038015D01*
X258261985Y-103140509D01*
X258261986Y-103140510D01*
X258261988Y-103140511D01*
X258387511Y-103212982D01*
X258387512Y-103212982D01*
X258387515Y-103212984D01*
X258527525Y-103250500D01*
X258527528Y-103250500D01*
X258672472Y-103250500D01*
X258672475Y-103250500D01*
X258812485Y-103212984D01*
X258868500Y-103180643D01*
X258936398Y-103164170D01*
X259002425Y-103187021D01*
X259045617Y-103241942D01*
X259054500Y-103288030D01*
X259054500Y-104383260D01*
X259064426Y-104451391D01*
X259098475Y-104521040D01*
X259110233Y-104589913D01*
X259082890Y-104654210D01*
X259025125Y-104693517D01*
X258987074Y-104699500D01*
X257547273Y-104699500D01*
X257445410Y-104726793D01*
X257354087Y-104779520D01*
X257354084Y-104779522D01*
X255879522Y-106254084D01*
X255879520Y-106254087D01*
X255826791Y-106345414D01*
X255810519Y-106406148D01*
X255805714Y-106424083D01*
X255799500Y-106447273D01*
X255799500Y-108047273D01*
X255799500Y-108152727D01*
X255806099Y-108177354D01*
X255826793Y-108254589D01*
X255849462Y-108293852D01*
X255879520Y-108345913D01*
X255879522Y-108345915D01*
X256421426Y-108887819D01*
X256454911Y-108949142D01*
X256449927Y-109018834D01*
X256408055Y-109074767D01*
X256342591Y-109099184D01*
X256333745Y-109099500D01*
X255547273Y-109099500D01*
X255445413Y-109126793D01*
X255445410Y-109126794D01*
X255401270Y-109152279D01*
X255400494Y-109152727D01*
X255377407Y-109166056D01*
X255354088Y-109179519D01*
X255354085Y-109179521D01*
X247395426Y-117138181D01*
X247334103Y-117171666D01*
X247307745Y-117174500D01*
X246692254Y-117174500D01*
X246625215Y-117154815D01*
X246604573Y-117138181D01*
X241573574Y-112107181D01*
X241540089Y-112045858D01*
X241545073Y-111976166D01*
X241586945Y-111920233D01*
X241652409Y-111895816D01*
X241661255Y-111895500D01*
X242694750Y-111895500D01*
X242694751Y-111895499D01*
X242709568Y-111892552D01*
X242753229Y-111883868D01*
X242753229Y-111883867D01*
X242753231Y-111883867D01*
X242819552Y-111839552D01*
X242838198Y-111811645D01*
X242891809Y-111766842D01*
X242961134Y-111758133D01*
X243010192Y-111777435D01*
X243061610Y-111811792D01*
X243061612Y-111811793D01*
X243061616Y-111811795D01*
X243195457Y-111867233D01*
X243195462Y-111867235D01*
X243337555Y-111895499D01*
X243337559Y-111895500D01*
X243337560Y-111895500D01*
X243912441Y-111895500D01*
X243912442Y-111895499D01*
X244054538Y-111867235D01*
X244188390Y-111811792D01*
X244308854Y-111731300D01*
X244411300Y-111628854D01*
X244491792Y-111508390D01*
X244547235Y-111374538D01*
X244575500Y-111232440D01*
X244575500Y-111087560D01*
X244547235Y-110945462D01*
X244523770Y-110888811D01*
X244491795Y-110811616D01*
X244491788Y-110811603D01*
X244411300Y-110691146D01*
X244411297Y-110691142D01*
X244403192Y-110683037D01*
X244369707Y-110621714D01*
X244374691Y-110552022D01*
X244403193Y-110507674D01*
X244488584Y-110422284D01*
X244488587Y-110422280D01*
X244579963Y-110285527D01*
X244579970Y-110285514D01*
X244642910Y-110133562D01*
X244642913Y-110133553D01*
X244651576Y-110090000D01*
X243749000Y-110090000D01*
X243705970Y-110077364D01*
X243736148Y-110025095D01*
X243760000Y-109936078D01*
X243760000Y-109843922D01*
X243736148Y-109754905D01*
X243698675Y-109690000D01*
X243825000Y-109690000D01*
X244651576Y-109690000D01*
X244651576Y-109689999D01*
X244642913Y-109646446D01*
X244642910Y-109646437D01*
X244579970Y-109494485D01*
X244579963Y-109494472D01*
X244488588Y-109357720D01*
X244473551Y-109342684D01*
X244440064Y-109281361D01*
X244445047Y-109211669D01*
X244473551Y-109167316D01*
X244488588Y-109152279D01*
X244579963Y-109015527D01*
X244579970Y-109015514D01*
X244642910Y-108863562D01*
X244642913Y-108863553D01*
X244651576Y-108820000D01*
X243825000Y-108820000D01*
X243825000Y-109690000D01*
X243698675Y-109690000D01*
X243690070Y-109675095D01*
X243624905Y-109609930D01*
X243545095Y-109563852D01*
X243456078Y-109540000D01*
X243425000Y-109540000D01*
X243425000Y-108970000D01*
X243456078Y-108970000D01*
X243545095Y-108946148D01*
X243624905Y-108900070D01*
X243690070Y-108834905D01*
X243736148Y-108755095D01*
X243760000Y-108666078D01*
X243760000Y-108573922D01*
X243736148Y-108484905D01*
X243698675Y-108420000D01*
X243825000Y-108420000D01*
X244651576Y-108420000D01*
X244651576Y-108419999D01*
X244642913Y-108376446D01*
X244642910Y-108376437D01*
X244579970Y-108224485D01*
X244579963Y-108224472D01*
X244488588Y-108087720D01*
X244473551Y-108072684D01*
X244440064Y-108011361D01*
X244445047Y-107941669D01*
X244473551Y-107897316D01*
X244488588Y-107882279D01*
X244579963Y-107745527D01*
X244579970Y-107745514D01*
X244642910Y-107593562D01*
X244642913Y-107593553D01*
X244651576Y-107550000D01*
X243825000Y-107550000D01*
X243825000Y-108420000D01*
X243698675Y-108420000D01*
X243690070Y-108405095D01*
X243624905Y-108339930D01*
X243545095Y-108293852D01*
X243456078Y-108270000D01*
X243425000Y-108270000D01*
X243425000Y-107700000D01*
X243456078Y-107700000D01*
X243545095Y-107676148D01*
X243624905Y-107630070D01*
X243690070Y-107564905D01*
X243736148Y-107485095D01*
X243760000Y-107396078D01*
X243760000Y-107303922D01*
X243736148Y-107214905D01*
X243698675Y-107150000D01*
X243825000Y-107150000D01*
X244651576Y-107150000D01*
X244651576Y-107149999D01*
X244642913Y-107106446D01*
X244642910Y-107106437D01*
X244579970Y-106954485D01*
X244579963Y-106954472D01*
X244488588Y-106817720D01*
X244473551Y-106802684D01*
X244440064Y-106741361D01*
X244445047Y-106671669D01*
X244473551Y-106627316D01*
X244488588Y-106612279D01*
X244579963Y-106475527D01*
X244579970Y-106475514D01*
X244642910Y-106323562D01*
X244642913Y-106323553D01*
X244651576Y-106280000D01*
X243825000Y-106280000D01*
X243825000Y-107150000D01*
X243698675Y-107150000D01*
X243690070Y-107135095D01*
X243624905Y-107069930D01*
X243545095Y-107023852D01*
X243456078Y-107000000D01*
X243425000Y-107000000D01*
X243425000Y-106430000D01*
X243456078Y-106430000D01*
X243545095Y-106406148D01*
X243624905Y-106360070D01*
X243690070Y-106294905D01*
X243736148Y-106215095D01*
X243760000Y-106126078D01*
X243760000Y-106033922D01*
X243736148Y-105944905D01*
X243698675Y-105880000D01*
X243825000Y-105880000D01*
X244651576Y-105880000D01*
X244651576Y-105879999D01*
X244642913Y-105836446D01*
X244642910Y-105836437D01*
X244579970Y-105684485D01*
X244579963Y-105684472D01*
X244488588Y-105547720D01*
X244473551Y-105532684D01*
X244440064Y-105471361D01*
X244445047Y-105401669D01*
X244473551Y-105357316D01*
X244488588Y-105342279D01*
X244579963Y-105205527D01*
X244579970Y-105205514D01*
X244642910Y-105053562D01*
X244642913Y-105053553D01*
X244651576Y-105010000D01*
X243825000Y-105010000D01*
X243825000Y-105880000D01*
X243698675Y-105880000D01*
X243690070Y-105865095D01*
X243624905Y-105799930D01*
X243545095Y-105753852D01*
X243456078Y-105730000D01*
X243425000Y-105730000D01*
X243425000Y-105160000D01*
X243456078Y-105160000D01*
X243545095Y-105136148D01*
X243624905Y-105090070D01*
X243690070Y-105024905D01*
X243736148Y-104945095D01*
X243760000Y-104856078D01*
X243760000Y-104763922D01*
X243736148Y-104674905D01*
X243698675Y-104610000D01*
X243825000Y-104610000D01*
X244651576Y-104610000D01*
X244651576Y-104609999D01*
X244642913Y-104566446D01*
X244642910Y-104566437D01*
X244579970Y-104414485D01*
X244579963Y-104414472D01*
X244488587Y-104277719D01*
X244488584Y-104277715D01*
X244372284Y-104161415D01*
X244372280Y-104161412D01*
X244235527Y-104070036D01*
X244235514Y-104070029D01*
X244083564Y-104007090D01*
X244083554Y-104007087D01*
X243922242Y-103975000D01*
X243825000Y-103975000D01*
X243825000Y-104610000D01*
X243698675Y-104610000D01*
X243690070Y-104595095D01*
X243624905Y-104529930D01*
X243545095Y-104483852D01*
X243456078Y-104460000D01*
X243425000Y-104460000D01*
X243425000Y-103975000D01*
X243327758Y-103975000D01*
X243166445Y-104007087D01*
X243166435Y-104007090D01*
X243014485Y-104070029D01*
X243014472Y-104070036D01*
X242918391Y-104134236D01*
X242851713Y-104155114D01*
X242784333Y-104136629D01*
X242737643Y-104084650D01*
X242725500Y-104031134D01*
X242725500Y-103586188D01*
X242745185Y-103519149D01*
X242761819Y-103498507D01*
X242998507Y-103261819D01*
X243059830Y-103228334D01*
X243086188Y-103225500D01*
X245513811Y-103225500D01*
X245580850Y-103245185D01*
X245601492Y-103261819D01*
X246038181Y-103698508D01*
X246071666Y-103759831D01*
X246074500Y-103786189D01*
X246074500Y-104795613D01*
X246054815Y-104862652D01*
X246038182Y-104883294D01*
X245959488Y-104961988D01*
X245887017Y-105087511D01*
X245887016Y-105087515D01*
X245849500Y-105227525D01*
X245849500Y-105372475D01*
X245884564Y-105503334D01*
X245887017Y-105512488D01*
X245959488Y-105638011D01*
X245959490Y-105638013D01*
X245959491Y-105638015D01*
X246061985Y-105740509D01*
X246061986Y-105740510D01*
X246061988Y-105740511D01*
X246187511Y-105812982D01*
X246187512Y-105812982D01*
X246187515Y-105812984D01*
X246327525Y-105850500D01*
X246327528Y-105850500D01*
X246472472Y-105850500D01*
X246472475Y-105850500D01*
X246612485Y-105812984D01*
X246738015Y-105740509D01*
X246840509Y-105638015D01*
X246912984Y-105512485D01*
X246950500Y-105372475D01*
X246950500Y-105227525D01*
X246912984Y-105087515D01*
X246900500Y-105065893D01*
X246840511Y-104961988D01*
X246840510Y-104961987D01*
X246840509Y-104961985D01*
X246761818Y-104883294D01*
X246728334Y-104821970D01*
X246725500Y-104795613D01*
X246725500Y-103557149D01*
X246725500Y-103557147D01*
X246703318Y-103474362D01*
X246694325Y-103458786D01*
X246660469Y-103400144D01*
X246660463Y-103400136D01*
X245899864Y-102639537D01*
X245899862Y-102639535D01*
X245862750Y-102618108D01*
X245825640Y-102596682D01*
X245783399Y-102585364D01*
X245742853Y-102574500D01*
X242942853Y-102574500D01*
X242857147Y-102574500D01*
X242774359Y-102596682D01*
X242755877Y-102607354D01*
X242700138Y-102639535D01*
X242700135Y-102639537D01*
X242139537Y-103200135D01*
X242139533Y-103200141D01*
X242096681Y-103274362D01*
X242093838Y-103284974D01*
X242093838Y-103284976D01*
X242074500Y-103357147D01*
X242074500Y-103950500D01*
X242054815Y-104017539D01*
X242002011Y-104063294D01*
X241950500Y-104074500D01*
X241637555Y-104074500D01*
X241495469Y-104102763D01*
X241495457Y-104102766D01*
X241361616Y-104158204D01*
X241361603Y-104158211D01*
X241241146Y-104238699D01*
X241241142Y-104238702D01*
X241137181Y-104342664D01*
X241075858Y-104376149D01*
X241006166Y-104371165D01*
X240950233Y-104329293D01*
X240925816Y-104263829D01*
X240925500Y-104254983D01*
X240925500Y-103204386D01*
X240945185Y-103137347D01*
X240961819Y-103116705D01*
X240972169Y-103106355D01*
X241040509Y-103038015D01*
X241112984Y-102912485D01*
X241150500Y-102772475D01*
X241150500Y-102627525D01*
X241112984Y-102487515D01*
X241068692Y-102410800D01*
X241040511Y-102361988D01*
X241040506Y-102361982D01*
X240938017Y-102259493D01*
X240938011Y-102259488D01*
X240812488Y-102187017D01*
X240812489Y-102187017D01*
X240801006Y-102183940D01*
X240672475Y-102149500D01*
X240527525Y-102149500D01*
X240398993Y-102183940D01*
X240387511Y-102187017D01*
X240261988Y-102259488D01*
X240261982Y-102259493D01*
X240159493Y-102361982D01*
X240159488Y-102361988D01*
X240087017Y-102487511D01*
X240087016Y-102487515D01*
X240049500Y-102627525D01*
X240049500Y-102772475D01*
X240087016Y-102912485D01*
X240087017Y-102912488D01*
X240159488Y-103038011D01*
X240159493Y-103038017D01*
X240238181Y-103116705D01*
X240271666Y-103178028D01*
X240274500Y-103204386D01*
X240274500Y-107942852D01*
X240296682Y-108025640D01*
X240318108Y-108062750D01*
X240339535Y-108099862D01*
X240739534Y-108499861D01*
X240739535Y-108499862D01*
X240800138Y-108560465D01*
X240800140Y-108560466D01*
X240800144Y-108560469D01*
X240874355Y-108603314D01*
X240874362Y-108603318D01*
X240886929Y-108606685D01*
X240946590Y-108643049D01*
X240976454Y-108702268D01*
X241002763Y-108834532D01*
X241002766Y-108834542D01*
X241058204Y-108968383D01*
X241058211Y-108968396D01*
X241138699Y-109088853D01*
X241138702Y-109088857D01*
X241217164Y-109167319D01*
X241220056Y-109172615D01*
X241225057Y-109175996D01*
X241236608Y-109202928D01*
X241250649Y-109228642D01*
X241250218Y-109234661D01*
X241252598Y-109240209D01*
X241247755Y-109269107D01*
X241245665Y-109298334D01*
X241241791Y-109304692D01*
X241241050Y-109309118D01*
X241227484Y-109328179D01*
X241221284Y-109338358D01*
X241219270Y-109340575D01*
X241138700Y-109421146D01*
X241118054Y-109452043D01*
X241111867Y-109458858D01*
X241089584Y-109472457D01*
X241069556Y-109489196D01*
X241058327Y-109491533D01*
X241052227Y-109495257D01*
X241041628Y-109495010D01*
X241020066Y-109499500D01*
X240860339Y-109499500D01*
X240860323Y-109499499D01*
X240852727Y-109499499D01*
X240747273Y-109499499D01*
X240747272Y-109499499D01*
X240673373Y-109519300D01*
X240603523Y-109517637D01*
X240553599Y-109487206D01*
X240045915Y-108979522D01*
X240045913Y-108979520D01*
X239988112Y-108946148D01*
X239954589Y-108926793D01*
X239903657Y-108913146D01*
X239852727Y-108899500D01*
X239852726Y-108899500D01*
X239049500Y-108899500D01*
X238982461Y-108879815D01*
X238936706Y-108827011D01*
X238925500Y-108775500D01*
X238925500Y-108645730D01*
X238922646Y-108615300D01*
X238922646Y-108615298D01*
X238877793Y-108487119D01*
X238877792Y-108487117D01*
X238797150Y-108377850D01*
X238687882Y-108297207D01*
X238687880Y-108297206D01*
X238559700Y-108252353D01*
X238529270Y-108249500D01*
X238529266Y-108249500D01*
X237470734Y-108249500D01*
X237470730Y-108249500D01*
X237440300Y-108252353D01*
X237440298Y-108252353D01*
X237312119Y-108297206D01*
X237312117Y-108297207D01*
X237202850Y-108377850D01*
X237122207Y-108487117D01*
X237122206Y-108487119D01*
X237077353Y-108615298D01*
X237077353Y-108615300D01*
X237074500Y-108645730D01*
X237074500Y-108775500D01*
X237054815Y-108842539D01*
X237002011Y-108888294D01*
X236950500Y-108899500D01*
X229660339Y-108899500D01*
X229660323Y-108899499D01*
X229652727Y-108899499D01*
X229547273Y-108899499D01*
X229479366Y-108917695D01*
X229445412Y-108926793D01*
X229411889Y-108946148D01*
X229373355Y-108968396D01*
X229354084Y-108979522D01*
X226879522Y-111454084D01*
X226879520Y-111454087D01*
X226826793Y-111545412D01*
X226806216Y-111622207D01*
X226806216Y-111622208D01*
X226799500Y-111647270D01*
X226799500Y-117050500D01*
X226779815Y-117117539D01*
X226727011Y-117163294D01*
X226675500Y-117174500D01*
X226495730Y-117174500D01*
X226465300Y-117177353D01*
X226465298Y-117177353D01*
X226337119Y-117222206D01*
X226337117Y-117222207D01*
X226227850Y-117302850D01*
X226147207Y-117412117D01*
X226147206Y-117412119D01*
X226102353Y-117540298D01*
X226102353Y-117540300D01*
X226099500Y-117570730D01*
X226099500Y-118204269D01*
X226102353Y-118234699D01*
X226102353Y-118234701D01*
X226147206Y-118362880D01*
X226147207Y-118362882D01*
X226227850Y-118472150D01*
X226337118Y-118552793D01*
X226379148Y-118567500D01*
X226465299Y-118597646D01*
X226495730Y-118600500D01*
X226495734Y-118600500D01*
X227504270Y-118600500D01*
X227534699Y-118597646D01*
X227534701Y-118597646D01*
X227598790Y-118575219D01*
X227662882Y-118552793D01*
X227676867Y-118542471D01*
X227689126Y-118537993D01*
X227698989Y-118529448D01*
X227721311Y-118526238D01*
X227742495Y-118518501D01*
X227755227Y-118521361D01*
X227768147Y-118519504D01*
X227788661Y-118528872D01*
X227810665Y-118533816D01*
X227819830Y-118543107D01*
X227831703Y-118548529D01*
X227843895Y-118567500D01*
X227859734Y-118583556D01*
X227863286Y-118597673D01*
X227869477Y-118607307D01*
X227874500Y-118642242D01*
X227874500Y-118713810D01*
X227854815Y-118780849D01*
X227838181Y-118801491D01*
X227665812Y-118973859D01*
X227604489Y-119007344D01*
X227542168Y-119003528D01*
X227542073Y-119003964D01*
X227539262Y-119003350D01*
X227537185Y-119003223D01*
X227534699Y-119002353D01*
X227504270Y-118999500D01*
X227504266Y-118999500D01*
X226495734Y-118999500D01*
X226495730Y-118999500D01*
X226465300Y-119002353D01*
X226465298Y-119002353D01*
X226337119Y-119047206D01*
X226337117Y-119047207D01*
X226227850Y-119127850D01*
X226147207Y-119237117D01*
X226147206Y-119237119D01*
X226102353Y-119365298D01*
X226102353Y-119365300D01*
X226099500Y-119395730D01*
X226099500Y-119888811D01*
X226079815Y-119955850D01*
X226063181Y-119976492D01*
X225501492Y-120538181D01*
X225440169Y-120571666D01*
X225413811Y-120574500D01*
X224945730Y-120574500D01*
X224915300Y-120577353D01*
X224915298Y-120577353D01*
X224787119Y-120622206D01*
X224787117Y-120622207D01*
X224677850Y-120702850D01*
X224597207Y-120812117D01*
X224597206Y-120812119D01*
X224552353Y-120940298D01*
X224552353Y-120940300D01*
X224549500Y-120970730D01*
X220859418Y-120970730D01*
X220796344Y-120694387D01*
X220688562Y-120386361D01*
X220546968Y-120092340D01*
X220373346Y-119816021D01*
X220169877Y-119560879D01*
X219939121Y-119330123D01*
X219683979Y-119126654D01*
X219407660Y-118953032D01*
X219407657Y-118953030D01*
X219113640Y-118811438D01*
X218805614Y-118703656D01*
X218805612Y-118703655D01*
X218536543Y-118642242D01*
X218487456Y-118631038D01*
X218487453Y-118631037D01*
X218487441Y-118631035D01*
X218163175Y-118594500D01*
X218163169Y-118594500D01*
X217836831Y-118594500D01*
X217836824Y-118594500D01*
X217512558Y-118631035D01*
X217512544Y-118631038D01*
X217194387Y-118703655D01*
X217194385Y-118703656D01*
X216886359Y-118811438D01*
X216592342Y-118953030D01*
X216316022Y-119126653D01*
X216060879Y-119330122D01*
X215830122Y-119560879D01*
X215626653Y-119816022D01*
X215453030Y-120092342D01*
X215311438Y-120386359D01*
X215203656Y-120694385D01*
X215203655Y-120694387D01*
X215131038Y-121012544D01*
X215131035Y-121012558D01*
X215094500Y-121336824D01*
X202200000Y-121336824D01*
X202200000Y-101504754D01*
X202200363Y-101495268D01*
X202203108Y-101459488D01*
X202211234Y-101353579D01*
X202214360Y-101333864D01*
X202246741Y-101200312D01*
X202252663Y-101182145D01*
X202305262Y-101055030D01*
X202314106Y-101037666D01*
X202385887Y-100920541D01*
X202397357Y-100904764D01*
X202486738Y-100800223D01*
X202500314Y-100786636D01*
X202604510Y-100697413D01*
X202620411Y-100685852D01*
X202737701Y-100614077D01*
X202754991Y-100605279D01*
X202782729Y-100593801D01*
X202852198Y-100586358D01*
X202914666Y-100617655D01*
G37*
%TD.AperFunction*%
%TD*%
M02*
