M48
; DRILL file {KiCad 9.0.9-9.0.9~ubuntu24.04.1} date 2026-10-04T05:15:14+0000
; FORMAT={-:-/ absolute / metric / decimal}
; #@! TF.CreationDate,2026-10-04T05:15:14+00:00
; #@! TF.GenerationSoftware,Kicad,Pcbnew,9.0.9-9.0.9~ubuntu24.04.1
; #@! TF.FileFunction,Plated,1,2,PTH
FMAT,2
METRIC
; #@! TA.AperFunction,Plated,PTH,ViaDrill
T1C0.300
; #@! TA.AperFunction,Plated,PTH,ComponentDrill
T2C0.700
; #@! TA.AperFunction,Plated,PTH,ComponentDrill
T3C3.000
%
G90
G05
T1
X221.8Y-118.9
X225.6Y-125.1
X228.2Y-112.3
X236.6Y-107.1
X239.4Y-110.3
X239.6Y-108.3
X240.6Y-102.7
X243.6Y-116.1
X245.0Y-114.7
X245.6Y-125.1
X246.4Y-105.3
X258.6Y-102.7
X260.6Y-101.7
X262.0Y-101.9
X262.0Y-106.9
X263.0Y-106.5
X263.0Y-110.9
X263.0Y-117.9
X264.8Y-106.7
X265.6Y-125.1
X266.0Y-106.3
X266.4Y-116.5
X267.0Y-105.3
X268.2Y-101.9
X268.2Y-105.3
X270.0Y-105.3
X270.0Y-115.3
X271.8Y-108.3
X273.6Y-102.3
X279.2Y-127.3
X279.8Y-109.9
X283.0Y-106.3
X283.6Y-116.1
X283.6Y-134.1
X284.4Y-105.3
X286.4Y-125.7
X297.8Y-127.9
X301.0Y-107.3
X301.6Y-134.1
X302.4Y-125.7
T2
X242.14Y-104.81
X242.14Y-106.08
X242.14Y-107.35
X242.14Y-108.62
X242.14Y-109.89
X242.14Y-111.16
X243.41Y-104.81
X243.41Y-106.08
X243.41Y-107.35
X243.41Y-108.62
X243.41Y-109.89
X243.41Y-111.16
T3
X213.6Y-126.2
X220.6Y-127.25
X233.6Y-126.2
X240.6Y-127.25
X253.6Y-126.2
X260.6Y-127.25
X271.6Y-117.2
X271.6Y-135.2
X278.6Y-118.25
X278.6Y-136.25
X289.6Y-135.2
X296.6Y-136.25
M30
