%TF.GenerationSoftware,KiCad,Pcbnew,9.0.9-9.0.9~ubuntu24.04.1*%
%TF.CreationDate,2026-09-28T17:17:05+00:00*%
%TF.ProjectId,key-board-rh,6b65792d-626f-4617-9264-2d72682e6b69,A*%
%TF.SameCoordinates,Original*%
%TF.FileFunction,Legend,Bot*%
%TF.FilePolarity,Positive*%
%FSLAX46Y46*%
G04 Gerber Fmt 4.6, Leading zero omitted, Abs format (unit mm)*
G04 Created by KiCad (PCBNEW 9.0.9-9.0.9~ubuntu24.04.1) date 2026-09-28 17:17:05*
%MOMM*%
%LPD*%
G01*
G04 APERTURE LIST*
%ADD10C,0.180000*%
%ADD11C,0.390000*%
%ADD12C,0.150000*%
G04 APERTURE END LIST*
D10*
X207150000Y-122100000D02*
X205950000Y-121500000D01*
X207150000Y-120900000D01*
X207150000Y-122100000D01*
G36*
X207150000Y-122100000D02*
G01*
X205950000Y-121500000D01*
X207150000Y-120900000D01*
X207150000Y-122100000D01*
G37*
X243195000Y-107985000D02*
X241995000Y-108585000D01*
X241995000Y-107385000D01*
X243195000Y-107985000D01*
G36*
X243195000Y-107985000D02*
G01*
X241995000Y-108585000D01*
X241995000Y-107385000D01*
X243195000Y-107985000D01*
G37*
D11*
X230305000Y-111160000D02*
G75*
G02*
X229915000Y-111160000I-195000J0D01*
G01*
X229915000Y-111160000D02*
G75*
G02*
X230305000Y-111160000I195000J0D01*
G01*
D10*
X212185713Y-121953259D02*
X212185713Y-120953259D01*
X212185713Y-120953259D02*
X211852380Y-121667544D01*
X211852380Y-121667544D02*
X211519047Y-120953259D01*
X211519047Y-120953259D02*
X211519047Y-121953259D01*
X210852380Y-120953259D02*
X210661904Y-120953259D01*
X210661904Y-120953259D02*
X210566666Y-121000878D01*
X210566666Y-121000878D02*
X210471428Y-121096116D01*
X210471428Y-121096116D02*
X210423809Y-121286592D01*
X210423809Y-121286592D02*
X210423809Y-121619925D01*
X210423809Y-121619925D02*
X210471428Y-121810401D01*
X210471428Y-121810401D02*
X210566666Y-121905640D01*
X210566666Y-121905640D02*
X210661904Y-121953259D01*
X210661904Y-121953259D02*
X210852380Y-121953259D01*
X210852380Y-121953259D02*
X210947618Y-121905640D01*
X210947618Y-121905640D02*
X211042856Y-121810401D01*
X211042856Y-121810401D02*
X211090475Y-121619925D01*
X211090475Y-121619925D02*
X211090475Y-121286592D01*
X211090475Y-121286592D02*
X211042856Y-121096116D01*
X211042856Y-121096116D02*
X210947618Y-121000878D01*
X210947618Y-121000878D02*
X210852380Y-120953259D01*
X209995237Y-120953259D02*
X209995237Y-121762782D01*
X209995237Y-121762782D02*
X209947618Y-121858020D01*
X209947618Y-121858020D02*
X209899999Y-121905640D01*
X209899999Y-121905640D02*
X209804761Y-121953259D01*
X209804761Y-121953259D02*
X209614285Y-121953259D01*
X209614285Y-121953259D02*
X209519047Y-121905640D01*
X209519047Y-121905640D02*
X209471428Y-121858020D01*
X209471428Y-121858020D02*
X209423809Y-121762782D01*
X209423809Y-121762782D02*
X209423809Y-120953259D01*
X209090475Y-120953259D02*
X208519047Y-120953259D01*
X208804761Y-121953259D02*
X208804761Y-120953259D01*
X208185713Y-121953259D02*
X208185713Y-120953259D01*
X208185713Y-121429449D02*
X207614285Y-121429449D01*
X207614285Y-121953259D02*
X207614285Y-120953259D01*
X226190476Y-120128259D02*
X226523809Y-119652068D01*
X226761904Y-120128259D02*
X226761904Y-119128259D01*
X226761904Y-119128259D02*
X226380952Y-119128259D01*
X226380952Y-119128259D02*
X226285714Y-119175878D01*
X226285714Y-119175878D02*
X226238095Y-119223497D01*
X226238095Y-119223497D02*
X226190476Y-119318735D01*
X226190476Y-119318735D02*
X226190476Y-119461592D01*
X226190476Y-119461592D02*
X226238095Y-119556830D01*
X226238095Y-119556830D02*
X226285714Y-119604449D01*
X226285714Y-119604449D02*
X226380952Y-119652068D01*
X226380952Y-119652068D02*
X226761904Y-119652068D01*
X225761904Y-120128259D02*
X225761904Y-119128259D01*
X225761904Y-119604449D02*
X225190476Y-119604449D01*
X225190476Y-120128259D02*
X225190476Y-119128259D01*
X224190476Y-120128259D02*
X224761904Y-120128259D01*
X224476190Y-120128259D02*
X224476190Y-119128259D01*
X224476190Y-119128259D02*
X224571428Y-119271116D01*
X224571428Y-119271116D02*
X224666666Y-119366354D01*
X224666666Y-119366354D02*
X224761904Y-119413973D01*
X225666666Y-123683020D02*
X225714285Y-123730640D01*
X225714285Y-123730640D02*
X225857142Y-123778259D01*
X225857142Y-123778259D02*
X225952380Y-123778259D01*
X225952380Y-123778259D02*
X226095237Y-123730640D01*
X226095237Y-123730640D02*
X226190475Y-123635401D01*
X226190475Y-123635401D02*
X226238094Y-123540163D01*
X226238094Y-123540163D02*
X226285713Y-123349687D01*
X226285713Y-123349687D02*
X226285713Y-123206830D01*
X226285713Y-123206830D02*
X226238094Y-123016354D01*
X226238094Y-123016354D02*
X226190475Y-122921116D01*
X226190475Y-122921116D02*
X226095237Y-122825878D01*
X226095237Y-122825878D02*
X225952380Y-122778259D01*
X225952380Y-122778259D02*
X225857142Y-122778259D01*
X225857142Y-122778259D02*
X225714285Y-122825878D01*
X225714285Y-122825878D02*
X225666666Y-122873497D01*
X224714285Y-123778259D02*
X225285713Y-123778259D01*
X224999999Y-123778259D02*
X224999999Y-122778259D01*
X224999999Y-122778259D02*
X225095237Y-122921116D01*
X225095237Y-122921116D02*
X225190475Y-123016354D01*
X225190475Y-123016354D02*
X225285713Y-123063973D01*
X227866666Y-105863020D02*
X227914285Y-105910640D01*
X227914285Y-105910640D02*
X228057142Y-105958259D01*
X228057142Y-105958259D02*
X228152380Y-105958259D01*
X228152380Y-105958259D02*
X228295237Y-105910640D01*
X228295237Y-105910640D02*
X228390475Y-105815401D01*
X228390475Y-105815401D02*
X228438094Y-105720163D01*
X228438094Y-105720163D02*
X228485713Y-105529687D01*
X228485713Y-105529687D02*
X228485713Y-105386830D01*
X228485713Y-105386830D02*
X228438094Y-105196354D01*
X228438094Y-105196354D02*
X228390475Y-105101116D01*
X228390475Y-105101116D02*
X228295237Y-105005878D01*
X228295237Y-105005878D02*
X228152380Y-104958259D01*
X228152380Y-104958259D02*
X228057142Y-104958259D01*
X228057142Y-104958259D02*
X227914285Y-105005878D01*
X227914285Y-105005878D02*
X227866666Y-105053497D01*
X227295237Y-105386830D02*
X227390475Y-105339211D01*
X227390475Y-105339211D02*
X227438094Y-105291592D01*
X227438094Y-105291592D02*
X227485713Y-105196354D01*
X227485713Y-105196354D02*
X227485713Y-105148735D01*
X227485713Y-105148735D02*
X227438094Y-105053497D01*
X227438094Y-105053497D02*
X227390475Y-105005878D01*
X227390475Y-105005878D02*
X227295237Y-104958259D01*
X227295237Y-104958259D02*
X227104761Y-104958259D01*
X227104761Y-104958259D02*
X227009523Y-105005878D01*
X227009523Y-105005878D02*
X226961904Y-105053497D01*
X226961904Y-105053497D02*
X226914285Y-105148735D01*
X226914285Y-105148735D02*
X226914285Y-105196354D01*
X226914285Y-105196354D02*
X226961904Y-105291592D01*
X226961904Y-105291592D02*
X227009523Y-105339211D01*
X227009523Y-105339211D02*
X227104761Y-105386830D01*
X227104761Y-105386830D02*
X227295237Y-105386830D01*
X227295237Y-105386830D02*
X227390475Y-105434449D01*
X227390475Y-105434449D02*
X227438094Y-105482068D01*
X227438094Y-105482068D02*
X227485713Y-105577306D01*
X227485713Y-105577306D02*
X227485713Y-105767782D01*
X227485713Y-105767782D02*
X227438094Y-105863020D01*
X227438094Y-105863020D02*
X227390475Y-105910640D01*
X227390475Y-105910640D02*
X227295237Y-105958259D01*
X227295237Y-105958259D02*
X227104761Y-105958259D01*
X227104761Y-105958259D02*
X227009523Y-105910640D01*
X227009523Y-105910640D02*
X226961904Y-105863020D01*
X226961904Y-105863020D02*
X226914285Y-105767782D01*
X226914285Y-105767782D02*
X226914285Y-105577306D01*
X226914285Y-105577306D02*
X226961904Y-105482068D01*
X226961904Y-105482068D02*
X227009523Y-105434449D01*
X227009523Y-105434449D02*
X227104761Y-105386830D01*
X236553333Y-115718259D02*
X236553333Y-116432544D01*
X236553333Y-116432544D02*
X236600952Y-116575401D01*
X236600952Y-116575401D02*
X236696190Y-116670640D01*
X236696190Y-116670640D02*
X236839047Y-116718259D01*
X236839047Y-116718259D02*
X236934285Y-116718259D01*
X235553333Y-116718259D02*
X236124761Y-116718259D01*
X235839047Y-116718259D02*
X235839047Y-115718259D01*
X235839047Y-115718259D02*
X235934285Y-115861116D01*
X235934285Y-115861116D02*
X236029523Y-115956354D01*
X236029523Y-115956354D02*
X236124761Y-116003973D01*
X246190476Y-120128259D02*
X246523809Y-119652068D01*
X246761904Y-120128259D02*
X246761904Y-119128259D01*
X246761904Y-119128259D02*
X246380952Y-119128259D01*
X246380952Y-119128259D02*
X246285714Y-119175878D01*
X246285714Y-119175878D02*
X246238095Y-119223497D01*
X246238095Y-119223497D02*
X246190476Y-119318735D01*
X246190476Y-119318735D02*
X246190476Y-119461592D01*
X246190476Y-119461592D02*
X246238095Y-119556830D01*
X246238095Y-119556830D02*
X246285714Y-119604449D01*
X246285714Y-119604449D02*
X246380952Y-119652068D01*
X246380952Y-119652068D02*
X246761904Y-119652068D01*
X245761904Y-120128259D02*
X245761904Y-119128259D01*
X245761904Y-119604449D02*
X245190476Y-119604449D01*
X245190476Y-120128259D02*
X245190476Y-119128259D01*
X244761904Y-119223497D02*
X244714285Y-119175878D01*
X244714285Y-119175878D02*
X244619047Y-119128259D01*
X244619047Y-119128259D02*
X244380952Y-119128259D01*
X244380952Y-119128259D02*
X244285714Y-119175878D01*
X244285714Y-119175878D02*
X244238095Y-119223497D01*
X244238095Y-119223497D02*
X244190476Y-119318735D01*
X244190476Y-119318735D02*
X244190476Y-119413973D01*
X244190476Y-119413973D02*
X244238095Y-119556830D01*
X244238095Y-119556830D02*
X244809523Y-120128259D01*
X244809523Y-120128259D02*
X244190476Y-120128259D01*
X245666666Y-123683020D02*
X245714285Y-123730640D01*
X245714285Y-123730640D02*
X245857142Y-123778259D01*
X245857142Y-123778259D02*
X245952380Y-123778259D01*
X245952380Y-123778259D02*
X246095237Y-123730640D01*
X246095237Y-123730640D02*
X246190475Y-123635401D01*
X246190475Y-123635401D02*
X246238094Y-123540163D01*
X246238094Y-123540163D02*
X246285713Y-123349687D01*
X246285713Y-123349687D02*
X246285713Y-123206830D01*
X246285713Y-123206830D02*
X246238094Y-123016354D01*
X246238094Y-123016354D02*
X246190475Y-122921116D01*
X246190475Y-122921116D02*
X246095237Y-122825878D01*
X246095237Y-122825878D02*
X245952380Y-122778259D01*
X245952380Y-122778259D02*
X245857142Y-122778259D01*
X245857142Y-122778259D02*
X245714285Y-122825878D01*
X245714285Y-122825878D02*
X245666666Y-122873497D01*
X245285713Y-122873497D02*
X245238094Y-122825878D01*
X245238094Y-122825878D02*
X245142856Y-122778259D01*
X245142856Y-122778259D02*
X244904761Y-122778259D01*
X244904761Y-122778259D02*
X244809523Y-122825878D01*
X244809523Y-122825878D02*
X244761904Y-122873497D01*
X244761904Y-122873497D02*
X244714285Y-122968735D01*
X244714285Y-122968735D02*
X244714285Y-123063973D01*
X244714285Y-123063973D02*
X244761904Y-123206830D01*
X244761904Y-123206830D02*
X245333332Y-123778259D01*
X245333332Y-123778259D02*
X244714285Y-123778259D01*
X252460626Y-115249531D02*
X251889198Y-115249531D01*
X252174912Y-116249531D02*
X252174912Y-115249531D01*
X251555864Y-116249531D02*
X251555864Y-115249531D01*
X251555864Y-115249531D02*
X251174912Y-115249531D01*
X251174912Y-115249531D02*
X251079674Y-115297150D01*
X251079674Y-115297150D02*
X251032055Y-115344769D01*
X251032055Y-115344769D02*
X250984436Y-115440007D01*
X250984436Y-115440007D02*
X250984436Y-115582864D01*
X250984436Y-115582864D02*
X251032055Y-115678102D01*
X251032055Y-115678102D02*
X251079674Y-115725721D01*
X251079674Y-115725721D02*
X251174912Y-115773340D01*
X251174912Y-115773340D02*
X251555864Y-115773340D01*
X250032055Y-116249531D02*
X250603483Y-116249531D01*
X250317769Y-116249531D02*
X250317769Y-115249531D01*
X250317769Y-115249531D02*
X250413007Y-115392388D01*
X250413007Y-115392388D02*
X250508245Y-115487626D01*
X250508245Y-115487626D02*
X250603483Y-115535245D01*
X252366666Y-106063020D02*
X252414285Y-106110640D01*
X252414285Y-106110640D02*
X252557142Y-106158259D01*
X252557142Y-106158259D02*
X252652380Y-106158259D01*
X252652380Y-106158259D02*
X252795237Y-106110640D01*
X252795237Y-106110640D02*
X252890475Y-106015401D01*
X252890475Y-106015401D02*
X252938094Y-105920163D01*
X252938094Y-105920163D02*
X252985713Y-105729687D01*
X252985713Y-105729687D02*
X252985713Y-105586830D01*
X252985713Y-105586830D02*
X252938094Y-105396354D01*
X252938094Y-105396354D02*
X252890475Y-105301116D01*
X252890475Y-105301116D02*
X252795237Y-105205878D01*
X252795237Y-105205878D02*
X252652380Y-105158259D01*
X252652380Y-105158259D02*
X252557142Y-105158259D01*
X252557142Y-105158259D02*
X252414285Y-105205878D01*
X252414285Y-105205878D02*
X252366666Y-105253497D01*
X252033332Y-105158259D02*
X251366666Y-105158259D01*
X251366666Y-105158259D02*
X251795237Y-106158259D01*
X255960626Y-111656986D02*
X255389198Y-111656986D01*
X255674912Y-112656986D02*
X255674912Y-111656986D01*
X255055864Y-112656986D02*
X255055864Y-111656986D01*
X255055864Y-111656986D02*
X254674912Y-111656986D01*
X254674912Y-111656986D02*
X254579674Y-111704605D01*
X254579674Y-111704605D02*
X254532055Y-111752224D01*
X254532055Y-111752224D02*
X254484436Y-111847462D01*
X254484436Y-111847462D02*
X254484436Y-111990319D01*
X254484436Y-111990319D02*
X254532055Y-112085557D01*
X254532055Y-112085557D02*
X254579674Y-112133176D01*
X254579674Y-112133176D02*
X254674912Y-112180795D01*
X254674912Y-112180795D02*
X255055864Y-112180795D01*
X254103483Y-111752224D02*
X254055864Y-111704605D01*
X254055864Y-111704605D02*
X253960626Y-111656986D01*
X253960626Y-111656986D02*
X253722531Y-111656986D01*
X253722531Y-111656986D02*
X253627293Y-111704605D01*
X253627293Y-111704605D02*
X253579674Y-111752224D01*
X253579674Y-111752224D02*
X253532055Y-111847462D01*
X253532055Y-111847462D02*
X253532055Y-111942700D01*
X253532055Y-111942700D02*
X253579674Y-112085557D01*
X253579674Y-112085557D02*
X254151102Y-112656986D01*
X254151102Y-112656986D02*
X253532055Y-112656986D01*
X259460626Y-115249531D02*
X258889198Y-115249531D01*
X259174912Y-116249531D02*
X259174912Y-115249531D01*
X258555864Y-116249531D02*
X258555864Y-115249531D01*
X258555864Y-115249531D02*
X258174912Y-115249531D01*
X258174912Y-115249531D02*
X258079674Y-115297150D01*
X258079674Y-115297150D02*
X258032055Y-115344769D01*
X258032055Y-115344769D02*
X257984436Y-115440007D01*
X257984436Y-115440007D02*
X257984436Y-115582864D01*
X257984436Y-115582864D02*
X258032055Y-115678102D01*
X258032055Y-115678102D02*
X258079674Y-115725721D01*
X258079674Y-115725721D02*
X258174912Y-115773340D01*
X258174912Y-115773340D02*
X258555864Y-115773340D01*
X257651102Y-115249531D02*
X257032055Y-115249531D01*
X257032055Y-115249531D02*
X257365388Y-115630483D01*
X257365388Y-115630483D02*
X257222531Y-115630483D01*
X257222531Y-115630483D02*
X257127293Y-115678102D01*
X257127293Y-115678102D02*
X257079674Y-115725721D01*
X257079674Y-115725721D02*
X257032055Y-115820959D01*
X257032055Y-115820959D02*
X257032055Y-116059054D01*
X257032055Y-116059054D02*
X257079674Y-116154292D01*
X257079674Y-116154292D02*
X257127293Y-116201912D01*
X257127293Y-116201912D02*
X257222531Y-116249531D01*
X257222531Y-116249531D02*
X257508245Y-116249531D01*
X257508245Y-116249531D02*
X257603483Y-116201912D01*
X257603483Y-116201912D02*
X257651102Y-116154292D01*
X259461904Y-100958259D02*
X259461904Y-101767782D01*
X259461904Y-101767782D02*
X259414285Y-101863020D01*
X259414285Y-101863020D02*
X259366666Y-101910640D01*
X259366666Y-101910640D02*
X259271428Y-101958259D01*
X259271428Y-101958259D02*
X259080952Y-101958259D01*
X259080952Y-101958259D02*
X258985714Y-101910640D01*
X258985714Y-101910640D02*
X258938095Y-101863020D01*
X258938095Y-101863020D02*
X258890476Y-101767782D01*
X258890476Y-101767782D02*
X258890476Y-100958259D01*
X257890476Y-101958259D02*
X258461904Y-101958259D01*
X258176190Y-101958259D02*
X258176190Y-100958259D01*
X258176190Y-100958259D02*
X258271428Y-101101116D01*
X258271428Y-101101116D02*
X258366666Y-101196354D01*
X258366666Y-101196354D02*
X258461904Y-101243973D01*
X262960626Y-111656986D02*
X262389198Y-111656986D01*
X262674912Y-112656986D02*
X262674912Y-111656986D01*
X262055864Y-112656986D02*
X262055864Y-111656986D01*
X262055864Y-111656986D02*
X261674912Y-111656986D01*
X261674912Y-111656986D02*
X261579674Y-111704605D01*
X261579674Y-111704605D02*
X261532055Y-111752224D01*
X261532055Y-111752224D02*
X261484436Y-111847462D01*
X261484436Y-111847462D02*
X261484436Y-111990319D01*
X261484436Y-111990319D02*
X261532055Y-112085557D01*
X261532055Y-112085557D02*
X261579674Y-112133176D01*
X261579674Y-112133176D02*
X261674912Y-112180795D01*
X261674912Y-112180795D02*
X262055864Y-112180795D01*
X260627293Y-111990319D02*
X260627293Y-112656986D01*
X260865388Y-111609367D02*
X261103483Y-112323652D01*
X261103483Y-112323652D02*
X260484436Y-112323652D01*
X266460626Y-115249531D02*
X265889198Y-115249531D01*
X266174912Y-116249531D02*
X266174912Y-115249531D01*
X265555864Y-116249531D02*
X265555864Y-115249531D01*
X265555864Y-115249531D02*
X265174912Y-115249531D01*
X265174912Y-115249531D02*
X265079674Y-115297150D01*
X265079674Y-115297150D02*
X265032055Y-115344769D01*
X265032055Y-115344769D02*
X264984436Y-115440007D01*
X264984436Y-115440007D02*
X264984436Y-115582864D01*
X264984436Y-115582864D02*
X265032055Y-115678102D01*
X265032055Y-115678102D02*
X265079674Y-115725721D01*
X265079674Y-115725721D02*
X265174912Y-115773340D01*
X265174912Y-115773340D02*
X265555864Y-115773340D01*
X264079674Y-115249531D02*
X264555864Y-115249531D01*
X264555864Y-115249531D02*
X264603483Y-115725721D01*
X264603483Y-115725721D02*
X264555864Y-115678102D01*
X264555864Y-115678102D02*
X264460626Y-115630483D01*
X264460626Y-115630483D02*
X264222531Y-115630483D01*
X264222531Y-115630483D02*
X264127293Y-115678102D01*
X264127293Y-115678102D02*
X264079674Y-115725721D01*
X264079674Y-115725721D02*
X264032055Y-115820959D01*
X264032055Y-115820959D02*
X264032055Y-116059054D01*
X264032055Y-116059054D02*
X264079674Y-116154292D01*
X264079674Y-116154292D02*
X264127293Y-116201912D01*
X264127293Y-116201912D02*
X264222531Y-116249531D01*
X264222531Y-116249531D02*
X264460626Y-116249531D01*
X264460626Y-116249531D02*
X264555864Y-116201912D01*
X264555864Y-116201912D02*
X264603483Y-116154292D01*
X266190476Y-120128259D02*
X266523809Y-119652068D01*
X266761904Y-120128259D02*
X266761904Y-119128259D01*
X266761904Y-119128259D02*
X266380952Y-119128259D01*
X266380952Y-119128259D02*
X266285714Y-119175878D01*
X266285714Y-119175878D02*
X266238095Y-119223497D01*
X266238095Y-119223497D02*
X266190476Y-119318735D01*
X266190476Y-119318735D02*
X266190476Y-119461592D01*
X266190476Y-119461592D02*
X266238095Y-119556830D01*
X266238095Y-119556830D02*
X266285714Y-119604449D01*
X266285714Y-119604449D02*
X266380952Y-119652068D01*
X266380952Y-119652068D02*
X266761904Y-119652068D01*
X265761904Y-120128259D02*
X265761904Y-119128259D01*
X265761904Y-119604449D02*
X265190476Y-119604449D01*
X265190476Y-120128259D02*
X265190476Y-119128259D01*
X264809523Y-119128259D02*
X264190476Y-119128259D01*
X264190476Y-119128259D02*
X264523809Y-119509211D01*
X264523809Y-119509211D02*
X264380952Y-119509211D01*
X264380952Y-119509211D02*
X264285714Y-119556830D01*
X264285714Y-119556830D02*
X264238095Y-119604449D01*
X264238095Y-119604449D02*
X264190476Y-119699687D01*
X264190476Y-119699687D02*
X264190476Y-119937782D01*
X264190476Y-119937782D02*
X264238095Y-120033020D01*
X264238095Y-120033020D02*
X264285714Y-120080640D01*
X264285714Y-120080640D02*
X264380952Y-120128259D01*
X264380952Y-120128259D02*
X264666666Y-120128259D01*
X264666666Y-120128259D02*
X264761904Y-120080640D01*
X264761904Y-120080640D02*
X264809523Y-120033020D01*
X265666666Y-123683020D02*
X265714285Y-123730640D01*
X265714285Y-123730640D02*
X265857142Y-123778259D01*
X265857142Y-123778259D02*
X265952380Y-123778259D01*
X265952380Y-123778259D02*
X266095237Y-123730640D01*
X266095237Y-123730640D02*
X266190475Y-123635401D01*
X266190475Y-123635401D02*
X266238094Y-123540163D01*
X266238094Y-123540163D02*
X266285713Y-123349687D01*
X266285713Y-123349687D02*
X266285713Y-123206830D01*
X266285713Y-123206830D02*
X266238094Y-123016354D01*
X266238094Y-123016354D02*
X266190475Y-122921116D01*
X266190475Y-122921116D02*
X266095237Y-122825878D01*
X266095237Y-122825878D02*
X265952380Y-122778259D01*
X265952380Y-122778259D02*
X265857142Y-122778259D01*
X265857142Y-122778259D02*
X265714285Y-122825878D01*
X265714285Y-122825878D02*
X265666666Y-122873497D01*
X265333332Y-122778259D02*
X264714285Y-122778259D01*
X264714285Y-122778259D02*
X265047618Y-123159211D01*
X265047618Y-123159211D02*
X264904761Y-123159211D01*
X264904761Y-123159211D02*
X264809523Y-123206830D01*
X264809523Y-123206830D02*
X264761904Y-123254449D01*
X264761904Y-123254449D02*
X264714285Y-123349687D01*
X264714285Y-123349687D02*
X264714285Y-123587782D01*
X264714285Y-123587782D02*
X264761904Y-123683020D01*
X264761904Y-123683020D02*
X264809523Y-123730640D01*
X264809523Y-123730640D02*
X264904761Y-123778259D01*
X264904761Y-123778259D02*
X265190475Y-123778259D01*
X265190475Y-123778259D02*
X265285713Y-123730640D01*
X265285713Y-123730640D02*
X265333332Y-123683020D01*
X269960626Y-111656986D02*
X269389198Y-111656986D01*
X269674912Y-112656986D02*
X269674912Y-111656986D01*
X269055864Y-112656986D02*
X269055864Y-111656986D01*
X269055864Y-111656986D02*
X268674912Y-111656986D01*
X268674912Y-111656986D02*
X268579674Y-111704605D01*
X268579674Y-111704605D02*
X268532055Y-111752224D01*
X268532055Y-111752224D02*
X268484436Y-111847462D01*
X268484436Y-111847462D02*
X268484436Y-111990319D01*
X268484436Y-111990319D02*
X268532055Y-112085557D01*
X268532055Y-112085557D02*
X268579674Y-112133176D01*
X268579674Y-112133176D02*
X268674912Y-112180795D01*
X268674912Y-112180795D02*
X269055864Y-112180795D01*
X267627293Y-111656986D02*
X267817769Y-111656986D01*
X267817769Y-111656986D02*
X267913007Y-111704605D01*
X267913007Y-111704605D02*
X267960626Y-111752224D01*
X267960626Y-111752224D02*
X268055864Y-111895081D01*
X268055864Y-111895081D02*
X268103483Y-112085557D01*
X268103483Y-112085557D02*
X268103483Y-112466509D01*
X268103483Y-112466509D02*
X268055864Y-112561747D01*
X268055864Y-112561747D02*
X268008245Y-112609367D01*
X268008245Y-112609367D02*
X267913007Y-112656986D01*
X267913007Y-112656986D02*
X267722531Y-112656986D01*
X267722531Y-112656986D02*
X267627293Y-112609367D01*
X267627293Y-112609367D02*
X267579674Y-112561747D01*
X267579674Y-112561747D02*
X267532055Y-112466509D01*
X267532055Y-112466509D02*
X267532055Y-112228414D01*
X267532055Y-112228414D02*
X267579674Y-112133176D01*
X267579674Y-112133176D02*
X267627293Y-112085557D01*
X267627293Y-112085557D02*
X267722531Y-112037938D01*
X267722531Y-112037938D02*
X267913007Y-112037938D01*
X267913007Y-112037938D02*
X268008245Y-112085557D01*
X268008245Y-112085557D02*
X268055864Y-112133176D01*
X268055864Y-112133176D02*
X268103483Y-112228414D01*
X284190476Y-111128259D02*
X284523809Y-110652068D01*
X284761904Y-111128259D02*
X284761904Y-110128259D01*
X284761904Y-110128259D02*
X284380952Y-110128259D01*
X284380952Y-110128259D02*
X284285714Y-110175878D01*
X284285714Y-110175878D02*
X284238095Y-110223497D01*
X284238095Y-110223497D02*
X284190476Y-110318735D01*
X284190476Y-110318735D02*
X284190476Y-110461592D01*
X284190476Y-110461592D02*
X284238095Y-110556830D01*
X284238095Y-110556830D02*
X284285714Y-110604449D01*
X284285714Y-110604449D02*
X284380952Y-110652068D01*
X284380952Y-110652068D02*
X284761904Y-110652068D01*
X283761904Y-111128259D02*
X283761904Y-110128259D01*
X283761904Y-110604449D02*
X283190476Y-110604449D01*
X283190476Y-111128259D02*
X283190476Y-110128259D01*
X282238095Y-110128259D02*
X282714285Y-110128259D01*
X282714285Y-110128259D02*
X282761904Y-110604449D01*
X282761904Y-110604449D02*
X282714285Y-110556830D01*
X282714285Y-110556830D02*
X282619047Y-110509211D01*
X282619047Y-110509211D02*
X282380952Y-110509211D01*
X282380952Y-110509211D02*
X282285714Y-110556830D01*
X282285714Y-110556830D02*
X282238095Y-110604449D01*
X282238095Y-110604449D02*
X282190476Y-110699687D01*
X282190476Y-110699687D02*
X282190476Y-110937782D01*
X282190476Y-110937782D02*
X282238095Y-111033020D01*
X282238095Y-111033020D02*
X282285714Y-111080640D01*
X282285714Y-111080640D02*
X282380952Y-111128259D01*
X282380952Y-111128259D02*
X282619047Y-111128259D01*
X282619047Y-111128259D02*
X282714285Y-111080640D01*
X282714285Y-111080640D02*
X282761904Y-111033020D01*
X283666666Y-114683020D02*
X283714285Y-114730640D01*
X283714285Y-114730640D02*
X283857142Y-114778259D01*
X283857142Y-114778259D02*
X283952380Y-114778259D01*
X283952380Y-114778259D02*
X284095237Y-114730640D01*
X284095237Y-114730640D02*
X284190475Y-114635401D01*
X284190475Y-114635401D02*
X284238094Y-114540163D01*
X284238094Y-114540163D02*
X284285713Y-114349687D01*
X284285713Y-114349687D02*
X284285713Y-114206830D01*
X284285713Y-114206830D02*
X284238094Y-114016354D01*
X284238094Y-114016354D02*
X284190475Y-113921116D01*
X284190475Y-113921116D02*
X284095237Y-113825878D01*
X284095237Y-113825878D02*
X283952380Y-113778259D01*
X283952380Y-113778259D02*
X283857142Y-113778259D01*
X283857142Y-113778259D02*
X283714285Y-113825878D01*
X283714285Y-113825878D02*
X283666666Y-113873497D01*
X282761904Y-113778259D02*
X283238094Y-113778259D01*
X283238094Y-113778259D02*
X283285713Y-114254449D01*
X283285713Y-114254449D02*
X283238094Y-114206830D01*
X283238094Y-114206830D02*
X283142856Y-114159211D01*
X283142856Y-114159211D02*
X282904761Y-114159211D01*
X282904761Y-114159211D02*
X282809523Y-114206830D01*
X282809523Y-114206830D02*
X282761904Y-114254449D01*
X282761904Y-114254449D02*
X282714285Y-114349687D01*
X282714285Y-114349687D02*
X282714285Y-114587782D01*
X282714285Y-114587782D02*
X282761904Y-114683020D01*
X282761904Y-114683020D02*
X282809523Y-114730640D01*
X282809523Y-114730640D02*
X282904761Y-114778259D01*
X282904761Y-114778259D02*
X283142856Y-114778259D01*
X283142856Y-114778259D02*
X283238094Y-114730640D01*
X283238094Y-114730640D02*
X283285713Y-114683020D01*
X284190476Y-129128258D02*
X284523809Y-128652067D01*
X284761904Y-129128258D02*
X284761904Y-128128258D01*
X284761904Y-128128258D02*
X284380952Y-128128258D01*
X284380952Y-128128258D02*
X284285714Y-128175877D01*
X284285714Y-128175877D02*
X284238095Y-128223496D01*
X284238095Y-128223496D02*
X284190476Y-128318734D01*
X284190476Y-128318734D02*
X284190476Y-128461591D01*
X284190476Y-128461591D02*
X284238095Y-128556829D01*
X284238095Y-128556829D02*
X284285714Y-128604448D01*
X284285714Y-128604448D02*
X284380952Y-128652067D01*
X284380952Y-128652067D02*
X284761904Y-128652067D01*
X283761904Y-129128258D02*
X283761904Y-128128258D01*
X283761904Y-128604448D02*
X283190476Y-128604448D01*
X283190476Y-129128258D02*
X283190476Y-128128258D01*
X282285714Y-128461591D02*
X282285714Y-129128258D01*
X282523809Y-128080639D02*
X282761904Y-128794924D01*
X282761904Y-128794924D02*
X282142857Y-128794924D01*
X283666666Y-132683020D02*
X283714285Y-132730640D01*
X283714285Y-132730640D02*
X283857142Y-132778259D01*
X283857142Y-132778259D02*
X283952380Y-132778259D01*
X283952380Y-132778259D02*
X284095237Y-132730640D01*
X284095237Y-132730640D02*
X284190475Y-132635401D01*
X284190475Y-132635401D02*
X284238094Y-132540163D01*
X284238094Y-132540163D02*
X284285713Y-132349687D01*
X284285713Y-132349687D02*
X284285713Y-132206830D01*
X284285713Y-132206830D02*
X284238094Y-132016354D01*
X284238094Y-132016354D02*
X284190475Y-131921116D01*
X284190475Y-131921116D02*
X284095237Y-131825878D01*
X284095237Y-131825878D02*
X283952380Y-131778259D01*
X283952380Y-131778259D02*
X283857142Y-131778259D01*
X283857142Y-131778259D02*
X283714285Y-131825878D01*
X283714285Y-131825878D02*
X283666666Y-131873497D01*
X282809523Y-132111592D02*
X282809523Y-132778259D01*
X283047618Y-131730640D02*
X283285713Y-132444925D01*
X283285713Y-132444925D02*
X282666666Y-132444925D01*
X302190476Y-129128258D02*
X302523809Y-128652067D01*
X302761904Y-129128258D02*
X302761904Y-128128258D01*
X302761904Y-128128258D02*
X302380952Y-128128258D01*
X302380952Y-128128258D02*
X302285714Y-128175877D01*
X302285714Y-128175877D02*
X302238095Y-128223496D01*
X302238095Y-128223496D02*
X302190476Y-128318734D01*
X302190476Y-128318734D02*
X302190476Y-128461591D01*
X302190476Y-128461591D02*
X302238095Y-128556829D01*
X302238095Y-128556829D02*
X302285714Y-128604448D01*
X302285714Y-128604448D02*
X302380952Y-128652067D01*
X302380952Y-128652067D02*
X302761904Y-128652067D01*
X301761904Y-129128258D02*
X301761904Y-128128258D01*
X301761904Y-128604448D02*
X301190476Y-128604448D01*
X301190476Y-129128258D02*
X301190476Y-128128258D01*
X300285714Y-128128258D02*
X300476190Y-128128258D01*
X300476190Y-128128258D02*
X300571428Y-128175877D01*
X300571428Y-128175877D02*
X300619047Y-128223496D01*
X300619047Y-128223496D02*
X300714285Y-128366353D01*
X300714285Y-128366353D02*
X300761904Y-128556829D01*
X300761904Y-128556829D02*
X300761904Y-128937781D01*
X300761904Y-128937781D02*
X300714285Y-129033019D01*
X300714285Y-129033019D02*
X300666666Y-129080639D01*
X300666666Y-129080639D02*
X300571428Y-129128258D01*
X300571428Y-129128258D02*
X300380952Y-129128258D01*
X300380952Y-129128258D02*
X300285714Y-129080639D01*
X300285714Y-129080639D02*
X300238095Y-129033019D01*
X300238095Y-129033019D02*
X300190476Y-128937781D01*
X300190476Y-128937781D02*
X300190476Y-128699686D01*
X300190476Y-128699686D02*
X300238095Y-128604448D01*
X300238095Y-128604448D02*
X300285714Y-128556829D01*
X300285714Y-128556829D02*
X300380952Y-128509210D01*
X300380952Y-128509210D02*
X300571428Y-128509210D01*
X300571428Y-128509210D02*
X300666666Y-128556829D01*
X300666666Y-128556829D02*
X300714285Y-128604448D01*
X300714285Y-128604448D02*
X300761904Y-128699686D01*
X301666666Y-132683020D02*
X301714285Y-132730640D01*
X301714285Y-132730640D02*
X301857142Y-132778259D01*
X301857142Y-132778259D02*
X301952380Y-132778259D01*
X301952380Y-132778259D02*
X302095237Y-132730640D01*
X302095237Y-132730640D02*
X302190475Y-132635401D01*
X302190475Y-132635401D02*
X302238094Y-132540163D01*
X302238094Y-132540163D02*
X302285713Y-132349687D01*
X302285713Y-132349687D02*
X302285713Y-132206830D01*
X302285713Y-132206830D02*
X302238094Y-132016354D01*
X302238094Y-132016354D02*
X302190475Y-131921116D01*
X302190475Y-131921116D02*
X302095237Y-131825878D01*
X302095237Y-131825878D02*
X301952380Y-131778259D01*
X301952380Y-131778259D02*
X301857142Y-131778259D01*
X301857142Y-131778259D02*
X301714285Y-131825878D01*
X301714285Y-131825878D02*
X301666666Y-131873497D01*
X300809523Y-131778259D02*
X300999999Y-131778259D01*
X300999999Y-131778259D02*
X301095237Y-131825878D01*
X301095237Y-131825878D02*
X301142856Y-131873497D01*
X301142856Y-131873497D02*
X301238094Y-132016354D01*
X301238094Y-132016354D02*
X301285713Y-132206830D01*
X301285713Y-132206830D02*
X301285713Y-132587782D01*
X301285713Y-132587782D02*
X301238094Y-132683020D01*
X301238094Y-132683020D02*
X301190475Y-132730640D01*
X301190475Y-132730640D02*
X301095237Y-132778259D01*
X301095237Y-132778259D02*
X300904761Y-132778259D01*
X300904761Y-132778259D02*
X300809523Y-132730640D01*
X300809523Y-132730640D02*
X300761904Y-132683020D01*
X300761904Y-132683020D02*
X300714285Y-132587782D01*
X300714285Y-132587782D02*
X300714285Y-132349687D01*
X300714285Y-132349687D02*
X300761904Y-132254449D01*
X300761904Y-132254449D02*
X300809523Y-132206830D01*
X300809523Y-132206830D02*
X300904761Y-132159211D01*
X300904761Y-132159211D02*
X301095237Y-132159211D01*
X301095237Y-132159211D02*
X301190475Y-132206830D01*
X301190475Y-132206830D02*
X301238094Y-132254449D01*
X301238094Y-132254449D02*
X301285713Y-132349687D01*
X233699375Y-132453259D02*
X233127947Y-132453259D01*
X233413661Y-133453259D02*
X233413661Y-132453259D01*
X232794613Y-133453259D02*
X232794613Y-132453259D01*
X232794613Y-132453259D02*
X232413661Y-132453259D01*
X232413661Y-132453259D02*
X232318423Y-132500878D01*
X232318423Y-132500878D02*
X232270804Y-132548497D01*
X232270804Y-132548497D02*
X232223185Y-132643735D01*
X232223185Y-132643735D02*
X232223185Y-132786592D01*
X232223185Y-132786592D02*
X232270804Y-132881830D01*
X232270804Y-132881830D02*
X232318423Y-132929449D01*
X232318423Y-132929449D02*
X232413661Y-132977068D01*
X232413661Y-132977068D02*
X232794613Y-132977068D01*
X231270804Y-133453259D02*
X231842232Y-133453259D01*
X231556518Y-133453259D02*
X231556518Y-132453259D01*
X231556518Y-132453259D02*
X231651756Y-132596116D01*
X231651756Y-132596116D02*
X231746994Y-132691354D01*
X231746994Y-132691354D02*
X231842232Y-132738973D01*
X229413661Y-133548497D02*
X229508899Y-133500878D01*
X229508899Y-133500878D02*
X229604137Y-133405640D01*
X229604137Y-133405640D02*
X229746994Y-133262782D01*
X229746994Y-133262782D02*
X229842232Y-133215163D01*
X229842232Y-133215163D02*
X229937470Y-133215163D01*
X229889851Y-133453259D02*
X229985089Y-133405640D01*
X229985089Y-133405640D02*
X230080327Y-133310401D01*
X230080327Y-133310401D02*
X230127946Y-133119925D01*
X230127946Y-133119925D02*
X230127946Y-132786592D01*
X230127946Y-132786592D02*
X230080327Y-132596116D01*
X230080327Y-132596116D02*
X229985089Y-132500878D01*
X229985089Y-132500878D02*
X229889851Y-132453259D01*
X229889851Y-132453259D02*
X229699375Y-132453259D01*
X229699375Y-132453259D02*
X229604137Y-132500878D01*
X229604137Y-132500878D02*
X229508899Y-132596116D01*
X229508899Y-132596116D02*
X229461280Y-132786592D01*
X229461280Y-132786592D02*
X229461280Y-133119925D01*
X229461280Y-133119925D02*
X229508899Y-133310401D01*
X229508899Y-133310401D02*
X229604137Y-133405640D01*
X229604137Y-133405640D02*
X229699375Y-133453259D01*
X229699375Y-133453259D02*
X229889851Y-133453259D01*
X229032708Y-133453259D02*
X229032708Y-132453259D01*
X229032708Y-132929449D02*
X228461280Y-132929449D01*
X228461280Y-133453259D02*
X228461280Y-132453259D01*
X226604136Y-132453259D02*
X226032708Y-132453259D01*
X226318422Y-133453259D02*
X226318422Y-132453259D01*
X225699374Y-133453259D02*
X225699374Y-132453259D01*
X225699374Y-132453259D02*
X225318422Y-132453259D01*
X225318422Y-132453259D02*
X225223184Y-132500878D01*
X225223184Y-132500878D02*
X225175565Y-132548497D01*
X225175565Y-132548497D02*
X225127946Y-132643735D01*
X225127946Y-132643735D02*
X225127946Y-132786592D01*
X225127946Y-132786592D02*
X225175565Y-132881830D01*
X225175565Y-132881830D02*
X225223184Y-132929449D01*
X225223184Y-132929449D02*
X225318422Y-132977068D01*
X225318422Y-132977068D02*
X225699374Y-132977068D01*
X224746993Y-132548497D02*
X224699374Y-132500878D01*
X224699374Y-132500878D02*
X224604136Y-132453259D01*
X224604136Y-132453259D02*
X224366041Y-132453259D01*
X224366041Y-132453259D02*
X224270803Y-132500878D01*
X224270803Y-132500878D02*
X224223184Y-132548497D01*
X224223184Y-132548497D02*
X224175565Y-132643735D01*
X224175565Y-132643735D02*
X224175565Y-132738973D01*
X224175565Y-132738973D02*
X224223184Y-132881830D01*
X224223184Y-132881830D02*
X224794612Y-133453259D01*
X224794612Y-133453259D02*
X224175565Y-133453259D01*
X223032707Y-133405640D02*
X222889850Y-133453259D01*
X222889850Y-133453259D02*
X222651755Y-133453259D01*
X222651755Y-133453259D02*
X222556517Y-133405640D01*
X222556517Y-133405640D02*
X222508898Y-133358020D01*
X222508898Y-133358020D02*
X222461279Y-133262782D01*
X222461279Y-133262782D02*
X222461279Y-133167544D01*
X222461279Y-133167544D02*
X222508898Y-133072306D01*
X222508898Y-133072306D02*
X222556517Y-133024687D01*
X222556517Y-133024687D02*
X222651755Y-132977068D01*
X222651755Y-132977068D02*
X222842231Y-132929449D01*
X222842231Y-132929449D02*
X222937469Y-132881830D01*
X222937469Y-132881830D02*
X222985088Y-132834211D01*
X222985088Y-132834211D02*
X223032707Y-132738973D01*
X223032707Y-132738973D02*
X223032707Y-132643735D01*
X223032707Y-132643735D02*
X222985088Y-132548497D01*
X222985088Y-132548497D02*
X222937469Y-132500878D01*
X222937469Y-132500878D02*
X222842231Y-132453259D01*
X222842231Y-132453259D02*
X222604136Y-132453259D01*
X222604136Y-132453259D02*
X222461279Y-132500878D01*
X222032707Y-132929449D02*
X221699374Y-132929449D01*
X221556517Y-133453259D02*
X222032707Y-133453259D01*
X222032707Y-133453259D02*
X222032707Y-132453259D01*
X222032707Y-132453259D02*
X221556517Y-132453259D01*
X220556517Y-133453259D02*
X220889850Y-132977068D01*
X221127945Y-133453259D02*
X221127945Y-132453259D01*
X221127945Y-132453259D02*
X220746993Y-132453259D01*
X220746993Y-132453259D02*
X220651755Y-132500878D01*
X220651755Y-132500878D02*
X220604136Y-132548497D01*
X220604136Y-132548497D02*
X220556517Y-132643735D01*
X220556517Y-132643735D02*
X220556517Y-132786592D01*
X220556517Y-132786592D02*
X220604136Y-132881830D01*
X220604136Y-132881830D02*
X220651755Y-132929449D01*
X220651755Y-132929449D02*
X220746993Y-132977068D01*
X220746993Y-132977068D02*
X221127945Y-132977068D01*
X218746992Y-132453259D02*
X218175564Y-132453259D01*
X218461278Y-133453259D02*
X218461278Y-132453259D01*
X217842230Y-133453259D02*
X217842230Y-132453259D01*
X217842230Y-132453259D02*
X217461278Y-132453259D01*
X217461278Y-132453259D02*
X217366040Y-132500878D01*
X217366040Y-132500878D02*
X217318421Y-132548497D01*
X217318421Y-132548497D02*
X217270802Y-132643735D01*
X217270802Y-132643735D02*
X217270802Y-132786592D01*
X217270802Y-132786592D02*
X217318421Y-132881830D01*
X217318421Y-132881830D02*
X217366040Y-132929449D01*
X217366040Y-132929449D02*
X217461278Y-132977068D01*
X217461278Y-132977068D02*
X217842230Y-132977068D01*
X216937468Y-132453259D02*
X216318421Y-132453259D01*
X216318421Y-132453259D02*
X216651754Y-132834211D01*
X216651754Y-132834211D02*
X216508897Y-132834211D01*
X216508897Y-132834211D02*
X216413659Y-132881830D01*
X216413659Y-132881830D02*
X216366040Y-132929449D01*
X216366040Y-132929449D02*
X216318421Y-133024687D01*
X216318421Y-133024687D02*
X216318421Y-133262782D01*
X216318421Y-133262782D02*
X216366040Y-133358020D01*
X216366040Y-133358020D02*
X216413659Y-133405640D01*
X216413659Y-133405640D02*
X216508897Y-133453259D01*
X216508897Y-133453259D02*
X216794611Y-133453259D01*
X216794611Y-133453259D02*
X216889849Y-133405640D01*
X216889849Y-133405640D02*
X216937468Y-133358020D01*
X214604135Y-132500878D02*
X214699373Y-132453259D01*
X214699373Y-132453259D02*
X214842230Y-132453259D01*
X214842230Y-132453259D02*
X214985087Y-132500878D01*
X214985087Y-132500878D02*
X215080325Y-132596116D01*
X215080325Y-132596116D02*
X215127944Y-132691354D01*
X215127944Y-132691354D02*
X215175563Y-132881830D01*
X215175563Y-132881830D02*
X215175563Y-133024687D01*
X215175563Y-133024687D02*
X215127944Y-133215163D01*
X215127944Y-133215163D02*
X215080325Y-133310401D01*
X215080325Y-133310401D02*
X214985087Y-133405640D01*
X214985087Y-133405640D02*
X214842230Y-133453259D01*
X214842230Y-133453259D02*
X214746992Y-133453259D01*
X214746992Y-133453259D02*
X214604135Y-133405640D01*
X214604135Y-133405640D02*
X214556516Y-133358020D01*
X214556516Y-133358020D02*
X214556516Y-133024687D01*
X214556516Y-133024687D02*
X214746992Y-133024687D01*
X214127944Y-133453259D02*
X214127944Y-132453259D01*
X214127944Y-132453259D02*
X213556516Y-133453259D01*
X213556516Y-133453259D02*
X213556516Y-132453259D01*
X213080325Y-133453259D02*
X213080325Y-132453259D01*
X213080325Y-132453259D02*
X212842230Y-132453259D01*
X212842230Y-132453259D02*
X212699373Y-132500878D01*
X212699373Y-132500878D02*
X212604135Y-132596116D01*
X212604135Y-132596116D02*
X212556516Y-132691354D01*
X212556516Y-132691354D02*
X212508897Y-132881830D01*
X212508897Y-132881830D02*
X212508897Y-133024687D01*
X212508897Y-133024687D02*
X212556516Y-133215163D01*
X212556516Y-133215163D02*
X212604135Y-133310401D01*
X212604135Y-133310401D02*
X212699373Y-133405640D01*
X212699373Y-133405640D02*
X212842230Y-133453259D01*
X212842230Y-133453259D02*
X213080325Y-133453259D01*
X236270804Y-134253259D02*
X235699376Y-134253259D01*
X235985090Y-135253259D02*
X235985090Y-134253259D01*
X235366042Y-135253259D02*
X235366042Y-134253259D01*
X235366042Y-134253259D02*
X234985090Y-134253259D01*
X234985090Y-134253259D02*
X234889852Y-134300878D01*
X234889852Y-134300878D02*
X234842233Y-134348497D01*
X234842233Y-134348497D02*
X234794614Y-134443735D01*
X234794614Y-134443735D02*
X234794614Y-134586592D01*
X234794614Y-134586592D02*
X234842233Y-134681830D01*
X234842233Y-134681830D02*
X234889852Y-134729449D01*
X234889852Y-134729449D02*
X234985090Y-134777068D01*
X234985090Y-134777068D02*
X235366042Y-134777068D01*
X233937471Y-134586592D02*
X233937471Y-135253259D01*
X234175566Y-134205640D02*
X234413661Y-134919925D01*
X234413661Y-134919925D02*
X233794614Y-134919925D01*
X232699375Y-135205640D02*
X232556518Y-135253259D01*
X232556518Y-135253259D02*
X232318423Y-135253259D01*
X232318423Y-135253259D02*
X232223185Y-135205640D01*
X232223185Y-135205640D02*
X232175566Y-135158020D01*
X232175566Y-135158020D02*
X232127947Y-135062782D01*
X232127947Y-135062782D02*
X232127947Y-134967544D01*
X232127947Y-134967544D02*
X232175566Y-134872306D01*
X232175566Y-134872306D02*
X232223185Y-134824687D01*
X232223185Y-134824687D02*
X232318423Y-134777068D01*
X232318423Y-134777068D02*
X232508899Y-134729449D01*
X232508899Y-134729449D02*
X232604137Y-134681830D01*
X232604137Y-134681830D02*
X232651756Y-134634211D01*
X232651756Y-134634211D02*
X232699375Y-134538973D01*
X232699375Y-134538973D02*
X232699375Y-134443735D01*
X232699375Y-134443735D02*
X232651756Y-134348497D01*
X232651756Y-134348497D02*
X232604137Y-134300878D01*
X232604137Y-134300878D02*
X232508899Y-134253259D01*
X232508899Y-134253259D02*
X232270804Y-134253259D01*
X232270804Y-134253259D02*
X232127947Y-134300878D01*
X231127947Y-135158020D02*
X231175566Y-135205640D01*
X231175566Y-135205640D02*
X231318423Y-135253259D01*
X231318423Y-135253259D02*
X231413661Y-135253259D01*
X231413661Y-135253259D02*
X231556518Y-135205640D01*
X231556518Y-135205640D02*
X231651756Y-135110401D01*
X231651756Y-135110401D02*
X231699375Y-135015163D01*
X231699375Y-135015163D02*
X231746994Y-134824687D01*
X231746994Y-134824687D02*
X231746994Y-134681830D01*
X231746994Y-134681830D02*
X231699375Y-134491354D01*
X231699375Y-134491354D02*
X231651756Y-134396116D01*
X231651756Y-134396116D02*
X231556518Y-134300878D01*
X231556518Y-134300878D02*
X231413661Y-134253259D01*
X231413661Y-134253259D02*
X231318423Y-134253259D01*
X231318423Y-134253259D02*
X231175566Y-134300878D01*
X231175566Y-134300878D02*
X231127947Y-134348497D01*
X230699375Y-135253259D02*
X230699375Y-134253259D01*
X230127947Y-135253259D02*
X230556518Y-134681830D01*
X230127947Y-134253259D02*
X230699375Y-134824687D01*
X228318422Y-134253259D02*
X227746994Y-134253259D01*
X228032708Y-135253259D02*
X228032708Y-134253259D01*
X227413660Y-135253259D02*
X227413660Y-134253259D01*
X227413660Y-134253259D02*
X227032708Y-134253259D01*
X227032708Y-134253259D02*
X226937470Y-134300878D01*
X226937470Y-134300878D02*
X226889851Y-134348497D01*
X226889851Y-134348497D02*
X226842232Y-134443735D01*
X226842232Y-134443735D02*
X226842232Y-134586592D01*
X226842232Y-134586592D02*
X226889851Y-134681830D01*
X226889851Y-134681830D02*
X226937470Y-134729449D01*
X226937470Y-134729449D02*
X227032708Y-134777068D01*
X227032708Y-134777068D02*
X227413660Y-134777068D01*
X225937470Y-134253259D02*
X226413660Y-134253259D01*
X226413660Y-134253259D02*
X226461279Y-134729449D01*
X226461279Y-134729449D02*
X226413660Y-134681830D01*
X226413660Y-134681830D02*
X226318422Y-134634211D01*
X226318422Y-134634211D02*
X226080327Y-134634211D01*
X226080327Y-134634211D02*
X225985089Y-134681830D01*
X225985089Y-134681830D02*
X225937470Y-134729449D01*
X225937470Y-134729449D02*
X225889851Y-134824687D01*
X225889851Y-134824687D02*
X225889851Y-135062782D01*
X225889851Y-135062782D02*
X225937470Y-135158020D01*
X225937470Y-135158020D02*
X225985089Y-135205640D01*
X225985089Y-135205640D02*
X226080327Y-135253259D01*
X226080327Y-135253259D02*
X226318422Y-135253259D01*
X226318422Y-135253259D02*
X226413660Y-135205640D01*
X226413660Y-135205640D02*
X226461279Y-135158020D01*
X224746993Y-135205640D02*
X224604136Y-135253259D01*
X224604136Y-135253259D02*
X224366041Y-135253259D01*
X224366041Y-135253259D02*
X224270803Y-135205640D01*
X224270803Y-135205640D02*
X224223184Y-135158020D01*
X224223184Y-135158020D02*
X224175565Y-135062782D01*
X224175565Y-135062782D02*
X224175565Y-134967544D01*
X224175565Y-134967544D02*
X224223184Y-134872306D01*
X224223184Y-134872306D02*
X224270803Y-134824687D01*
X224270803Y-134824687D02*
X224366041Y-134777068D01*
X224366041Y-134777068D02*
X224556517Y-134729449D01*
X224556517Y-134729449D02*
X224651755Y-134681830D01*
X224651755Y-134681830D02*
X224699374Y-134634211D01*
X224699374Y-134634211D02*
X224746993Y-134538973D01*
X224746993Y-134538973D02*
X224746993Y-134443735D01*
X224746993Y-134443735D02*
X224699374Y-134348497D01*
X224699374Y-134348497D02*
X224651755Y-134300878D01*
X224651755Y-134300878D02*
X224556517Y-134253259D01*
X224556517Y-134253259D02*
X224318422Y-134253259D01*
X224318422Y-134253259D02*
X224175565Y-134300878D01*
X223746993Y-135253259D02*
X223746993Y-134253259D01*
X223746993Y-134729449D02*
X223175565Y-134729449D01*
X223175565Y-135253259D02*
X223175565Y-134253259D01*
X221985089Y-134205640D02*
X222842231Y-135491354D01*
X221175565Y-135253259D02*
X221651755Y-135253259D01*
X221651755Y-135253259D02*
X221651755Y-134253259D01*
X220842231Y-135253259D02*
X220842231Y-134253259D01*
X220842231Y-134253259D02*
X220604136Y-134253259D01*
X220604136Y-134253259D02*
X220461279Y-134300878D01*
X220461279Y-134300878D02*
X220366041Y-134396116D01*
X220366041Y-134396116D02*
X220318422Y-134491354D01*
X220318422Y-134491354D02*
X220270803Y-134681830D01*
X220270803Y-134681830D02*
X220270803Y-134824687D01*
X220270803Y-134824687D02*
X220318422Y-135015163D01*
X220318422Y-135015163D02*
X220366041Y-135110401D01*
X220366041Y-135110401D02*
X220461279Y-135205640D01*
X220461279Y-135205640D02*
X220604136Y-135253259D01*
X220604136Y-135253259D02*
X220842231Y-135253259D01*
X218461278Y-134253259D02*
X217889850Y-134253259D01*
X218175564Y-135253259D02*
X218175564Y-134253259D01*
X217556516Y-135253259D02*
X217556516Y-134253259D01*
X217556516Y-134253259D02*
X217175564Y-134253259D01*
X217175564Y-134253259D02*
X217080326Y-134300878D01*
X217080326Y-134300878D02*
X217032707Y-134348497D01*
X217032707Y-134348497D02*
X216985088Y-134443735D01*
X216985088Y-134443735D02*
X216985088Y-134586592D01*
X216985088Y-134586592D02*
X217032707Y-134681830D01*
X217032707Y-134681830D02*
X217080326Y-134729449D01*
X217080326Y-134729449D02*
X217175564Y-134777068D01*
X217175564Y-134777068D02*
X217556516Y-134777068D01*
X216127945Y-134253259D02*
X216318421Y-134253259D01*
X216318421Y-134253259D02*
X216413659Y-134300878D01*
X216413659Y-134300878D02*
X216461278Y-134348497D01*
X216461278Y-134348497D02*
X216556516Y-134491354D01*
X216556516Y-134491354D02*
X216604135Y-134681830D01*
X216604135Y-134681830D02*
X216604135Y-135062782D01*
X216604135Y-135062782D02*
X216556516Y-135158020D01*
X216556516Y-135158020D02*
X216508897Y-135205640D01*
X216508897Y-135205640D02*
X216413659Y-135253259D01*
X216413659Y-135253259D02*
X216223183Y-135253259D01*
X216223183Y-135253259D02*
X216127945Y-135205640D01*
X216127945Y-135205640D02*
X216080326Y-135158020D01*
X216080326Y-135158020D02*
X216032707Y-135062782D01*
X216032707Y-135062782D02*
X216032707Y-134824687D01*
X216032707Y-134824687D02*
X216080326Y-134729449D01*
X216080326Y-134729449D02*
X216127945Y-134681830D01*
X216127945Y-134681830D02*
X216223183Y-134634211D01*
X216223183Y-134634211D02*
X216413659Y-134634211D01*
X216413659Y-134634211D02*
X216508897Y-134681830D01*
X216508897Y-134681830D02*
X216556516Y-134729449D01*
X216556516Y-134729449D02*
X216604135Y-134824687D01*
X214937468Y-134253259D02*
X214318421Y-134253259D01*
X214318421Y-134253259D02*
X214651754Y-134634211D01*
X214651754Y-134634211D02*
X214508897Y-134634211D01*
X214508897Y-134634211D02*
X214413659Y-134681830D01*
X214413659Y-134681830D02*
X214366040Y-134729449D01*
X214366040Y-134729449D02*
X214318421Y-134824687D01*
X214318421Y-134824687D02*
X214318421Y-135062782D01*
X214318421Y-135062782D02*
X214366040Y-135158020D01*
X214366040Y-135158020D02*
X214413659Y-135205640D01*
X214413659Y-135205640D02*
X214508897Y-135253259D01*
X214508897Y-135253259D02*
X214794611Y-135253259D01*
X214794611Y-135253259D02*
X214889849Y-135205640D01*
X214889849Y-135205640D02*
X214937468Y-135158020D01*
X214032706Y-134253259D02*
X213699373Y-135253259D01*
X213699373Y-135253259D02*
X213366040Y-134253259D01*
X213127944Y-134253259D02*
X212508897Y-134253259D01*
X212508897Y-134253259D02*
X212842230Y-134634211D01*
X212842230Y-134634211D02*
X212699373Y-134634211D01*
X212699373Y-134634211D02*
X212604135Y-134681830D01*
X212604135Y-134681830D02*
X212556516Y-134729449D01*
X212556516Y-134729449D02*
X212508897Y-134824687D01*
X212508897Y-134824687D02*
X212508897Y-135062782D01*
X212508897Y-135062782D02*
X212556516Y-135158020D01*
X212556516Y-135158020D02*
X212604135Y-135205640D01*
X212604135Y-135205640D02*
X212699373Y-135253259D01*
X212699373Y-135253259D02*
X212985087Y-135253259D01*
X212985087Y-135253259D02*
X213080325Y-135205640D01*
X213080325Y-135205640D02*
X213127944Y-135158020D01*
X228270803Y-136953259D02*
X228032708Y-137953259D01*
X228032708Y-137953259D02*
X227842232Y-137238973D01*
X227842232Y-137238973D02*
X227651756Y-137953259D01*
X227651756Y-137953259D02*
X227413661Y-136953259D01*
X226842232Y-136953259D02*
X226651756Y-136953259D01*
X226651756Y-136953259D02*
X226556518Y-137000878D01*
X226556518Y-137000878D02*
X226461280Y-137096116D01*
X226461280Y-137096116D02*
X226413661Y-137286592D01*
X226413661Y-137286592D02*
X226413661Y-137619925D01*
X226413661Y-137619925D02*
X226461280Y-137810401D01*
X226461280Y-137810401D02*
X226556518Y-137905640D01*
X226556518Y-137905640D02*
X226651756Y-137953259D01*
X226651756Y-137953259D02*
X226842232Y-137953259D01*
X226842232Y-137953259D02*
X226937470Y-137905640D01*
X226937470Y-137905640D02*
X227032708Y-137810401D01*
X227032708Y-137810401D02*
X227080327Y-137619925D01*
X227080327Y-137619925D02*
X227080327Y-137286592D01*
X227080327Y-137286592D02*
X227032708Y-137096116D01*
X227032708Y-137096116D02*
X226937470Y-137000878D01*
X226937470Y-137000878D02*
X226842232Y-136953259D01*
X225794613Y-136953259D02*
X225604137Y-136953259D01*
X225604137Y-136953259D02*
X225508899Y-137000878D01*
X225508899Y-137000878D02*
X225413661Y-137096116D01*
X225413661Y-137096116D02*
X225366042Y-137286592D01*
X225366042Y-137286592D02*
X225366042Y-137619925D01*
X225366042Y-137619925D02*
X225413661Y-137810401D01*
X225413661Y-137810401D02*
X225508899Y-137905640D01*
X225508899Y-137905640D02*
X225604137Y-137953259D01*
X225604137Y-137953259D02*
X225794613Y-137953259D01*
X225794613Y-137953259D02*
X225889851Y-137905640D01*
X225889851Y-137905640D02*
X225985089Y-137810401D01*
X225985089Y-137810401D02*
X226032708Y-137619925D01*
X226032708Y-137619925D02*
X226032708Y-137286592D01*
X226032708Y-137286592D02*
X225985089Y-137096116D01*
X225985089Y-137096116D02*
X225889851Y-137000878D01*
X225889851Y-137000878D02*
X225794613Y-136953259D01*
X224937470Y-137953259D02*
X224937470Y-136953259D01*
X224937470Y-136953259D02*
X224699375Y-136953259D01*
X224699375Y-136953259D02*
X224556518Y-137000878D01*
X224556518Y-137000878D02*
X224461280Y-137096116D01*
X224461280Y-137096116D02*
X224413661Y-137191354D01*
X224413661Y-137191354D02*
X224366042Y-137381830D01*
X224366042Y-137381830D02*
X224366042Y-137524687D01*
X224366042Y-137524687D02*
X224413661Y-137715163D01*
X224413661Y-137715163D02*
X224461280Y-137810401D01*
X224461280Y-137810401D02*
X224556518Y-137905640D01*
X224556518Y-137905640D02*
X224699375Y-137953259D01*
X224699375Y-137953259D02*
X224937470Y-137953259D01*
X223746994Y-137477068D02*
X223746994Y-137953259D01*
X224080327Y-136953259D02*
X223746994Y-137477068D01*
X223746994Y-137477068D02*
X223413661Y-136953259D01*
X222318422Y-137953259D02*
X222318422Y-136953259D01*
X222223184Y-137572306D02*
X221937470Y-137953259D01*
X221937470Y-137286592D02*
X222318422Y-137667544D01*
X221127946Y-137905640D02*
X221223184Y-137953259D01*
X221223184Y-137953259D02*
X221413660Y-137953259D01*
X221413660Y-137953259D02*
X221508898Y-137905640D01*
X221508898Y-137905640D02*
X221556517Y-137810401D01*
X221556517Y-137810401D02*
X221556517Y-137429449D01*
X221556517Y-137429449D02*
X221508898Y-137334211D01*
X221508898Y-137334211D02*
X221413660Y-137286592D01*
X221413660Y-137286592D02*
X221223184Y-137286592D01*
X221223184Y-137286592D02*
X221127946Y-137334211D01*
X221127946Y-137334211D02*
X221080327Y-137429449D01*
X221080327Y-137429449D02*
X221080327Y-137524687D01*
X221080327Y-137524687D02*
X221556517Y-137619925D01*
X220746993Y-137286592D02*
X220508898Y-137953259D01*
X220270803Y-137286592D02*
X220508898Y-137953259D01*
X220508898Y-137953259D02*
X220604136Y-138191354D01*
X220604136Y-138191354D02*
X220651755Y-138238973D01*
X220651755Y-138238973D02*
X220746993Y-138286592D01*
X219127945Y-137953259D02*
X219127945Y-136953259D01*
X219127945Y-137334211D02*
X219032707Y-137286592D01*
X219032707Y-137286592D02*
X218842231Y-137286592D01*
X218842231Y-137286592D02*
X218746993Y-137334211D01*
X218746993Y-137334211D02*
X218699374Y-137381830D01*
X218699374Y-137381830D02*
X218651755Y-137477068D01*
X218651755Y-137477068D02*
X218651755Y-137762782D01*
X218651755Y-137762782D02*
X218699374Y-137858020D01*
X218699374Y-137858020D02*
X218746993Y-137905640D01*
X218746993Y-137905640D02*
X218842231Y-137953259D01*
X218842231Y-137953259D02*
X219032707Y-137953259D01*
X219032707Y-137953259D02*
X219127945Y-137905640D01*
X218080326Y-137953259D02*
X218175564Y-137905640D01*
X218175564Y-137905640D02*
X218223183Y-137858020D01*
X218223183Y-137858020D02*
X218270802Y-137762782D01*
X218270802Y-137762782D02*
X218270802Y-137477068D01*
X218270802Y-137477068D02*
X218223183Y-137381830D01*
X218223183Y-137381830D02*
X218175564Y-137334211D01*
X218175564Y-137334211D02*
X218080326Y-137286592D01*
X218080326Y-137286592D02*
X217937469Y-137286592D01*
X217937469Y-137286592D02*
X217842231Y-137334211D01*
X217842231Y-137334211D02*
X217794612Y-137381830D01*
X217794612Y-137381830D02*
X217746993Y-137477068D01*
X217746993Y-137477068D02*
X217746993Y-137762782D01*
X217746993Y-137762782D02*
X217794612Y-137858020D01*
X217794612Y-137858020D02*
X217842231Y-137905640D01*
X217842231Y-137905640D02*
X217937469Y-137953259D01*
X217937469Y-137953259D02*
X218080326Y-137953259D01*
X216889850Y-137953259D02*
X216889850Y-137429449D01*
X216889850Y-137429449D02*
X216937469Y-137334211D01*
X216937469Y-137334211D02*
X217032707Y-137286592D01*
X217032707Y-137286592D02*
X217223183Y-137286592D01*
X217223183Y-137286592D02*
X217318421Y-137334211D01*
X216889850Y-137905640D02*
X216985088Y-137953259D01*
X216985088Y-137953259D02*
X217223183Y-137953259D01*
X217223183Y-137953259D02*
X217318421Y-137905640D01*
X217318421Y-137905640D02*
X217366040Y-137810401D01*
X217366040Y-137810401D02*
X217366040Y-137715163D01*
X217366040Y-137715163D02*
X217318421Y-137619925D01*
X217318421Y-137619925D02*
X217223183Y-137572306D01*
X217223183Y-137572306D02*
X216985088Y-137572306D01*
X216985088Y-137572306D02*
X216889850Y-137524687D01*
X216413659Y-137953259D02*
X216413659Y-137286592D01*
X216413659Y-137477068D02*
X216366040Y-137381830D01*
X216366040Y-137381830D02*
X216318421Y-137334211D01*
X216318421Y-137334211D02*
X216223183Y-137286592D01*
X216223183Y-137286592D02*
X216127945Y-137286592D01*
X215366040Y-137953259D02*
X215366040Y-136953259D01*
X215366040Y-137905640D02*
X215461278Y-137953259D01*
X215461278Y-137953259D02*
X215651754Y-137953259D01*
X215651754Y-137953259D02*
X215746992Y-137905640D01*
X215746992Y-137905640D02*
X215794611Y-137858020D01*
X215794611Y-137858020D02*
X215842230Y-137762782D01*
X215842230Y-137762782D02*
X215842230Y-137477068D01*
X215842230Y-137477068D02*
X215794611Y-137381830D01*
X215794611Y-137381830D02*
X215746992Y-137334211D01*
X215746992Y-137334211D02*
X215651754Y-137286592D01*
X215651754Y-137286592D02*
X215461278Y-137286592D01*
X215461278Y-137286592D02*
X215366040Y-137334211D01*
X213556516Y-137953259D02*
X213889849Y-137477068D01*
X214127944Y-137953259D02*
X214127944Y-136953259D01*
X214127944Y-136953259D02*
X213746992Y-136953259D01*
X213746992Y-136953259D02*
X213651754Y-137000878D01*
X213651754Y-137000878D02*
X213604135Y-137048497D01*
X213604135Y-137048497D02*
X213556516Y-137143735D01*
X213556516Y-137143735D02*
X213556516Y-137286592D01*
X213556516Y-137286592D02*
X213604135Y-137381830D01*
X213604135Y-137381830D02*
X213651754Y-137429449D01*
X213651754Y-137429449D02*
X213746992Y-137477068D01*
X213746992Y-137477068D02*
X214127944Y-137477068D01*
X213127944Y-137953259D02*
X213127944Y-136953259D01*
X213127944Y-137429449D02*
X212556516Y-137429449D01*
X212556516Y-137953259D02*
X212556516Y-136953259D01*
X227556517Y-139753259D02*
X227556517Y-139086592D01*
X227556517Y-139277068D02*
X227508898Y-139181830D01*
X227508898Y-139181830D02*
X227461279Y-139134211D01*
X227461279Y-139134211D02*
X227366041Y-139086592D01*
X227366041Y-139086592D02*
X227270803Y-139086592D01*
X226556517Y-139705640D02*
X226651755Y-139753259D01*
X226651755Y-139753259D02*
X226842231Y-139753259D01*
X226842231Y-139753259D02*
X226937469Y-139705640D01*
X226937469Y-139705640D02*
X226985088Y-139610401D01*
X226985088Y-139610401D02*
X226985088Y-139229449D01*
X226985088Y-139229449D02*
X226937469Y-139134211D01*
X226937469Y-139134211D02*
X226842231Y-139086592D01*
X226842231Y-139086592D02*
X226651755Y-139086592D01*
X226651755Y-139086592D02*
X226556517Y-139134211D01*
X226556517Y-139134211D02*
X226508898Y-139229449D01*
X226508898Y-139229449D02*
X226508898Y-139324687D01*
X226508898Y-139324687D02*
X226985088Y-139419925D01*
X226175564Y-139086592D02*
X225937469Y-139753259D01*
X225937469Y-139753259D02*
X225699374Y-139086592D01*
X224604135Y-139467544D02*
X224127945Y-139467544D01*
X224699373Y-139753259D02*
X224366040Y-138753259D01*
X224366040Y-138753259D02*
X224032707Y-139753259D01*
X222223182Y-138848497D02*
X222175563Y-138800878D01*
X222175563Y-138800878D02*
X222080325Y-138753259D01*
X222080325Y-138753259D02*
X221842230Y-138753259D01*
X221842230Y-138753259D02*
X221746992Y-138800878D01*
X221746992Y-138800878D02*
X221699373Y-138848497D01*
X221699373Y-138848497D02*
X221651754Y-138943735D01*
X221651754Y-138943735D02*
X221651754Y-139038973D01*
X221651754Y-139038973D02*
X221699373Y-139181830D01*
X221699373Y-139181830D02*
X222270801Y-139753259D01*
X222270801Y-139753259D02*
X221651754Y-139753259D01*
X221032706Y-138753259D02*
X220937468Y-138753259D01*
X220937468Y-138753259D02*
X220842230Y-138800878D01*
X220842230Y-138800878D02*
X220794611Y-138848497D01*
X220794611Y-138848497D02*
X220746992Y-138943735D01*
X220746992Y-138943735D02*
X220699373Y-139134211D01*
X220699373Y-139134211D02*
X220699373Y-139372306D01*
X220699373Y-139372306D02*
X220746992Y-139562782D01*
X220746992Y-139562782D02*
X220794611Y-139658020D01*
X220794611Y-139658020D02*
X220842230Y-139705640D01*
X220842230Y-139705640D02*
X220937468Y-139753259D01*
X220937468Y-139753259D02*
X221032706Y-139753259D01*
X221032706Y-139753259D02*
X221127944Y-139705640D01*
X221127944Y-139705640D02*
X221175563Y-139658020D01*
X221175563Y-139658020D02*
X221223182Y-139562782D01*
X221223182Y-139562782D02*
X221270801Y-139372306D01*
X221270801Y-139372306D02*
X221270801Y-139134211D01*
X221270801Y-139134211D02*
X221223182Y-138943735D01*
X221223182Y-138943735D02*
X221175563Y-138848497D01*
X221175563Y-138848497D02*
X221127944Y-138800878D01*
X221127944Y-138800878D02*
X221032706Y-138753259D01*
X220318420Y-138848497D02*
X220270801Y-138800878D01*
X220270801Y-138800878D02*
X220175563Y-138753259D01*
X220175563Y-138753259D02*
X219937468Y-138753259D01*
X219937468Y-138753259D02*
X219842230Y-138800878D01*
X219842230Y-138800878D02*
X219794611Y-138848497D01*
X219794611Y-138848497D02*
X219746992Y-138943735D01*
X219746992Y-138943735D02*
X219746992Y-139038973D01*
X219746992Y-139038973D02*
X219794611Y-139181830D01*
X219794611Y-139181830D02*
X220366039Y-139753259D01*
X220366039Y-139753259D02*
X219746992Y-139753259D01*
X218889849Y-138753259D02*
X219080325Y-138753259D01*
X219080325Y-138753259D02*
X219175563Y-138800878D01*
X219175563Y-138800878D02*
X219223182Y-138848497D01*
X219223182Y-138848497D02*
X219318420Y-138991354D01*
X219318420Y-138991354D02*
X219366039Y-139181830D01*
X219366039Y-139181830D02*
X219366039Y-139562782D01*
X219366039Y-139562782D02*
X219318420Y-139658020D01*
X219318420Y-139658020D02*
X219270801Y-139705640D01*
X219270801Y-139705640D02*
X219175563Y-139753259D01*
X219175563Y-139753259D02*
X218985087Y-139753259D01*
X218985087Y-139753259D02*
X218889849Y-139705640D01*
X218889849Y-139705640D02*
X218842230Y-139658020D01*
X218842230Y-139658020D02*
X218794611Y-139562782D01*
X218794611Y-139562782D02*
X218794611Y-139324687D01*
X218794611Y-139324687D02*
X218842230Y-139229449D01*
X218842230Y-139229449D02*
X218889849Y-139181830D01*
X218889849Y-139181830D02*
X218985087Y-139134211D01*
X218985087Y-139134211D02*
X219175563Y-139134211D01*
X219175563Y-139134211D02*
X219270801Y-139181830D01*
X219270801Y-139181830D02*
X219318420Y-139229449D01*
X219318420Y-139229449D02*
X219366039Y-139324687D01*
X218366039Y-139372306D02*
X217604135Y-139372306D01*
X216937468Y-138753259D02*
X216842230Y-138753259D01*
X216842230Y-138753259D02*
X216746992Y-138800878D01*
X216746992Y-138800878D02*
X216699373Y-138848497D01*
X216699373Y-138848497D02*
X216651754Y-138943735D01*
X216651754Y-138943735D02*
X216604135Y-139134211D01*
X216604135Y-139134211D02*
X216604135Y-139372306D01*
X216604135Y-139372306D02*
X216651754Y-139562782D01*
X216651754Y-139562782D02*
X216699373Y-139658020D01*
X216699373Y-139658020D02*
X216746992Y-139705640D01*
X216746992Y-139705640D02*
X216842230Y-139753259D01*
X216842230Y-139753259D02*
X216937468Y-139753259D01*
X216937468Y-139753259D02*
X217032706Y-139705640D01*
X217032706Y-139705640D02*
X217080325Y-139658020D01*
X217080325Y-139658020D02*
X217127944Y-139562782D01*
X217127944Y-139562782D02*
X217175563Y-139372306D01*
X217175563Y-139372306D02*
X217175563Y-139134211D01*
X217175563Y-139134211D02*
X217127944Y-138943735D01*
X217127944Y-138943735D02*
X217080325Y-138848497D01*
X217080325Y-138848497D02*
X217032706Y-138800878D01*
X217032706Y-138800878D02*
X216937468Y-138753259D01*
X216127944Y-139753259D02*
X215937468Y-139753259D01*
X215937468Y-139753259D02*
X215842230Y-139705640D01*
X215842230Y-139705640D02*
X215794611Y-139658020D01*
X215794611Y-139658020D02*
X215699373Y-139515163D01*
X215699373Y-139515163D02*
X215651754Y-139324687D01*
X215651754Y-139324687D02*
X215651754Y-138943735D01*
X215651754Y-138943735D02*
X215699373Y-138848497D01*
X215699373Y-138848497D02*
X215746992Y-138800878D01*
X215746992Y-138800878D02*
X215842230Y-138753259D01*
X215842230Y-138753259D02*
X216032706Y-138753259D01*
X216032706Y-138753259D02*
X216127944Y-138800878D01*
X216127944Y-138800878D02*
X216175563Y-138848497D01*
X216175563Y-138848497D02*
X216223182Y-138943735D01*
X216223182Y-138943735D02*
X216223182Y-139181830D01*
X216223182Y-139181830D02*
X216175563Y-139277068D01*
X216175563Y-139277068D02*
X216127944Y-139324687D01*
X216127944Y-139324687D02*
X216032706Y-139372306D01*
X216032706Y-139372306D02*
X215842230Y-139372306D01*
X215842230Y-139372306D02*
X215746992Y-139324687D01*
X215746992Y-139324687D02*
X215699373Y-139277068D01*
X215699373Y-139277068D02*
X215651754Y-139181830D01*
X215223182Y-139372306D02*
X214461278Y-139372306D01*
X214032706Y-138848497D02*
X213985087Y-138800878D01*
X213985087Y-138800878D02*
X213889849Y-138753259D01*
X213889849Y-138753259D02*
X213651754Y-138753259D01*
X213651754Y-138753259D02*
X213556516Y-138800878D01*
X213556516Y-138800878D02*
X213508897Y-138848497D01*
X213508897Y-138848497D02*
X213461278Y-138943735D01*
X213461278Y-138943735D02*
X213461278Y-139038973D01*
X213461278Y-139038973D02*
X213508897Y-139181830D01*
X213508897Y-139181830D02*
X214080325Y-139753259D01*
X214080325Y-139753259D02*
X213461278Y-139753259D01*
X212889849Y-139181830D02*
X212985087Y-139134211D01*
X212985087Y-139134211D02*
X213032706Y-139086592D01*
X213032706Y-139086592D02*
X213080325Y-138991354D01*
X213080325Y-138991354D02*
X213080325Y-138943735D01*
X213080325Y-138943735D02*
X213032706Y-138848497D01*
X213032706Y-138848497D02*
X212985087Y-138800878D01*
X212985087Y-138800878D02*
X212889849Y-138753259D01*
X212889849Y-138753259D02*
X212699373Y-138753259D01*
X212699373Y-138753259D02*
X212604135Y-138800878D01*
X212604135Y-138800878D02*
X212556516Y-138848497D01*
X212556516Y-138848497D02*
X212508897Y-138943735D01*
X212508897Y-138943735D02*
X212508897Y-138991354D01*
X212508897Y-138991354D02*
X212556516Y-139086592D01*
X212556516Y-139086592D02*
X212604135Y-139134211D01*
X212604135Y-139134211D02*
X212699373Y-139181830D01*
X212699373Y-139181830D02*
X212889849Y-139181830D01*
X212889849Y-139181830D02*
X212985087Y-139229449D01*
X212985087Y-139229449D02*
X213032706Y-139277068D01*
X213032706Y-139277068D02*
X213080325Y-139372306D01*
X213080325Y-139372306D02*
X213080325Y-139562782D01*
X213080325Y-139562782D02*
X213032706Y-139658020D01*
X213032706Y-139658020D02*
X212985087Y-139705640D01*
X212985087Y-139705640D02*
X212889849Y-139753259D01*
X212889849Y-139753259D02*
X212699373Y-139753259D01*
X212699373Y-139753259D02*
X212604135Y-139705640D01*
X212604135Y-139705640D02*
X212556516Y-139658020D01*
X212556516Y-139658020D02*
X212508897Y-139562782D01*
X212508897Y-139562782D02*
X212508897Y-139372306D01*
X212508897Y-139372306D02*
X212556516Y-139277068D01*
X212556516Y-139277068D02*
X212604135Y-139229449D01*
X212604135Y-139229449D02*
X212699373Y-139181830D01*
X230448259Y-118633333D02*
X229972068Y-118300000D01*
X230448259Y-118061905D02*
X229448259Y-118061905D01*
X229448259Y-118061905D02*
X229448259Y-118442857D01*
X229448259Y-118442857D02*
X229495878Y-118538095D01*
X229495878Y-118538095D02*
X229543497Y-118585714D01*
X229543497Y-118585714D02*
X229638735Y-118633333D01*
X229638735Y-118633333D02*
X229781592Y-118633333D01*
X229781592Y-118633333D02*
X229876830Y-118585714D01*
X229876830Y-118585714D02*
X229924449Y-118538095D01*
X229924449Y-118538095D02*
X229972068Y-118442857D01*
X229972068Y-118442857D02*
X229972068Y-118061905D01*
X229543497Y-119014286D02*
X229495878Y-119061905D01*
X229495878Y-119061905D02*
X229448259Y-119157143D01*
X229448259Y-119157143D02*
X229448259Y-119395238D01*
X229448259Y-119395238D02*
X229495878Y-119490476D01*
X229495878Y-119490476D02*
X229543497Y-119538095D01*
X229543497Y-119538095D02*
X229638735Y-119585714D01*
X229638735Y-119585714D02*
X229733973Y-119585714D01*
X229733973Y-119585714D02*
X229876830Y-119538095D01*
X229876830Y-119538095D02*
X230448259Y-118966667D01*
X230448259Y-118966667D02*
X230448259Y-119585714D01*
X230448259Y-124033332D02*
X229972068Y-123699999D01*
X230448259Y-123461904D02*
X229448259Y-123461904D01*
X229448259Y-123461904D02*
X229448259Y-123842856D01*
X229448259Y-123842856D02*
X229495878Y-123938094D01*
X229495878Y-123938094D02*
X229543497Y-123985713D01*
X229543497Y-123985713D02*
X229638735Y-124033332D01*
X229638735Y-124033332D02*
X229781592Y-124033332D01*
X229781592Y-124033332D02*
X229876830Y-123985713D01*
X229876830Y-123985713D02*
X229924449Y-123938094D01*
X229924449Y-123938094D02*
X229972068Y-123842856D01*
X229972068Y-123842856D02*
X229972068Y-123461904D01*
X230448259Y-124985713D02*
X230448259Y-124414285D01*
X230448259Y-124699999D02*
X229448259Y-124699999D01*
X229448259Y-124699999D02*
X229591116Y-124604761D01*
X229591116Y-124604761D02*
X229686354Y-124509523D01*
X229686354Y-124509523D02*
X229733973Y-124414285D01*
X250448259Y-118633333D02*
X249972068Y-118300000D01*
X250448259Y-118061905D02*
X249448259Y-118061905D01*
X249448259Y-118061905D02*
X249448259Y-118442857D01*
X249448259Y-118442857D02*
X249495878Y-118538095D01*
X249495878Y-118538095D02*
X249543497Y-118585714D01*
X249543497Y-118585714D02*
X249638735Y-118633333D01*
X249638735Y-118633333D02*
X249781592Y-118633333D01*
X249781592Y-118633333D02*
X249876830Y-118585714D01*
X249876830Y-118585714D02*
X249924449Y-118538095D01*
X249924449Y-118538095D02*
X249972068Y-118442857D01*
X249972068Y-118442857D02*
X249972068Y-118061905D01*
X249781592Y-119490476D02*
X250448259Y-119490476D01*
X249400640Y-119252381D02*
X250114925Y-119014286D01*
X250114925Y-119014286D02*
X250114925Y-119633333D01*
X250448259Y-124033332D02*
X249972068Y-123699999D01*
X250448259Y-123461904D02*
X249448259Y-123461904D01*
X249448259Y-123461904D02*
X249448259Y-123842856D01*
X249448259Y-123842856D02*
X249495878Y-123938094D01*
X249495878Y-123938094D02*
X249543497Y-123985713D01*
X249543497Y-123985713D02*
X249638735Y-124033332D01*
X249638735Y-124033332D02*
X249781592Y-124033332D01*
X249781592Y-124033332D02*
X249876830Y-123985713D01*
X249876830Y-123985713D02*
X249924449Y-123938094D01*
X249924449Y-123938094D02*
X249972068Y-123842856D01*
X249972068Y-123842856D02*
X249972068Y-123461904D01*
X249448259Y-124366666D02*
X249448259Y-124985713D01*
X249448259Y-124985713D02*
X249829211Y-124652380D01*
X249829211Y-124652380D02*
X249829211Y-124795237D01*
X249829211Y-124795237D02*
X249876830Y-124890475D01*
X249876830Y-124890475D02*
X249924449Y-124938094D01*
X249924449Y-124938094D02*
X250019687Y-124985713D01*
X250019687Y-124985713D02*
X250257782Y-124985713D01*
X250257782Y-124985713D02*
X250353020Y-124938094D01*
X250353020Y-124938094D02*
X250400640Y-124890475D01*
X250400640Y-124890475D02*
X250448259Y-124795237D01*
X250448259Y-124795237D02*
X250448259Y-124509523D01*
X250448259Y-124509523D02*
X250400640Y-124414285D01*
X250400640Y-124414285D02*
X250353020Y-124366666D01*
X270448259Y-118633333D02*
X269972068Y-118300000D01*
X270448259Y-118061905D02*
X269448259Y-118061905D01*
X269448259Y-118061905D02*
X269448259Y-118442857D01*
X269448259Y-118442857D02*
X269495878Y-118538095D01*
X269495878Y-118538095D02*
X269543497Y-118585714D01*
X269543497Y-118585714D02*
X269638735Y-118633333D01*
X269638735Y-118633333D02*
X269781592Y-118633333D01*
X269781592Y-118633333D02*
X269876830Y-118585714D01*
X269876830Y-118585714D02*
X269924449Y-118538095D01*
X269924449Y-118538095D02*
X269972068Y-118442857D01*
X269972068Y-118442857D02*
X269972068Y-118061905D01*
X269448259Y-119490476D02*
X269448259Y-119300000D01*
X269448259Y-119300000D02*
X269495878Y-119204762D01*
X269495878Y-119204762D02*
X269543497Y-119157143D01*
X269543497Y-119157143D02*
X269686354Y-119061905D01*
X269686354Y-119061905D02*
X269876830Y-119014286D01*
X269876830Y-119014286D02*
X270257782Y-119014286D01*
X270257782Y-119014286D02*
X270353020Y-119061905D01*
X270353020Y-119061905D02*
X270400640Y-119109524D01*
X270400640Y-119109524D02*
X270448259Y-119204762D01*
X270448259Y-119204762D02*
X270448259Y-119395238D01*
X270448259Y-119395238D02*
X270400640Y-119490476D01*
X270400640Y-119490476D02*
X270353020Y-119538095D01*
X270353020Y-119538095D02*
X270257782Y-119585714D01*
X270257782Y-119585714D02*
X270019687Y-119585714D01*
X270019687Y-119585714D02*
X269924449Y-119538095D01*
X269924449Y-119538095D02*
X269876830Y-119490476D01*
X269876830Y-119490476D02*
X269829211Y-119395238D01*
X269829211Y-119395238D02*
X269829211Y-119204762D01*
X269829211Y-119204762D02*
X269876830Y-119109524D01*
X269876830Y-119109524D02*
X269924449Y-119061905D01*
X269924449Y-119061905D02*
X270019687Y-119014286D01*
X270448259Y-124033332D02*
X269972068Y-123699999D01*
X270448259Y-123461904D02*
X269448259Y-123461904D01*
X269448259Y-123461904D02*
X269448259Y-123842856D01*
X269448259Y-123842856D02*
X269495878Y-123938094D01*
X269495878Y-123938094D02*
X269543497Y-123985713D01*
X269543497Y-123985713D02*
X269638735Y-124033332D01*
X269638735Y-124033332D02*
X269781592Y-124033332D01*
X269781592Y-124033332D02*
X269876830Y-123985713D01*
X269876830Y-123985713D02*
X269924449Y-123938094D01*
X269924449Y-123938094D02*
X269972068Y-123842856D01*
X269972068Y-123842856D02*
X269972068Y-123461904D01*
X269448259Y-124938094D02*
X269448259Y-124461904D01*
X269448259Y-124461904D02*
X269924449Y-124414285D01*
X269924449Y-124414285D02*
X269876830Y-124461904D01*
X269876830Y-124461904D02*
X269829211Y-124557142D01*
X269829211Y-124557142D02*
X269829211Y-124795237D01*
X269829211Y-124795237D02*
X269876830Y-124890475D01*
X269876830Y-124890475D02*
X269924449Y-124938094D01*
X269924449Y-124938094D02*
X270019687Y-124985713D01*
X270019687Y-124985713D02*
X270257782Y-124985713D01*
X270257782Y-124985713D02*
X270353020Y-124938094D01*
X270353020Y-124938094D02*
X270400640Y-124890475D01*
X270400640Y-124890475D02*
X270448259Y-124795237D01*
X270448259Y-124795237D02*
X270448259Y-124557142D01*
X270448259Y-124557142D02*
X270400640Y-124461904D01*
X270400640Y-124461904D02*
X270353020Y-124414285D01*
X288448259Y-109157142D02*
X287972068Y-108823809D01*
X288448259Y-108585714D02*
X287448259Y-108585714D01*
X287448259Y-108585714D02*
X287448259Y-108966666D01*
X287448259Y-108966666D02*
X287495878Y-109061904D01*
X287495878Y-109061904D02*
X287543497Y-109109523D01*
X287543497Y-109109523D02*
X287638735Y-109157142D01*
X287638735Y-109157142D02*
X287781592Y-109157142D01*
X287781592Y-109157142D02*
X287876830Y-109109523D01*
X287876830Y-109109523D02*
X287924449Y-109061904D01*
X287924449Y-109061904D02*
X287972068Y-108966666D01*
X287972068Y-108966666D02*
X287972068Y-108585714D01*
X288448259Y-110109523D02*
X288448259Y-109538095D01*
X288448259Y-109823809D02*
X287448259Y-109823809D01*
X287448259Y-109823809D02*
X287591116Y-109728571D01*
X287591116Y-109728571D02*
X287686354Y-109633333D01*
X287686354Y-109633333D02*
X287733973Y-109538095D01*
X287448259Y-110728571D02*
X287448259Y-110823809D01*
X287448259Y-110823809D02*
X287495878Y-110919047D01*
X287495878Y-110919047D02*
X287543497Y-110966666D01*
X287543497Y-110966666D02*
X287638735Y-111014285D01*
X287638735Y-111014285D02*
X287829211Y-111061904D01*
X287829211Y-111061904D02*
X288067306Y-111061904D01*
X288067306Y-111061904D02*
X288257782Y-111014285D01*
X288257782Y-111014285D02*
X288353020Y-110966666D01*
X288353020Y-110966666D02*
X288400640Y-110919047D01*
X288400640Y-110919047D02*
X288448259Y-110823809D01*
X288448259Y-110823809D02*
X288448259Y-110728571D01*
X288448259Y-110728571D02*
X288400640Y-110633333D01*
X288400640Y-110633333D02*
X288353020Y-110585714D01*
X288353020Y-110585714D02*
X288257782Y-110538095D01*
X288257782Y-110538095D02*
X288067306Y-110490476D01*
X288067306Y-110490476D02*
X287829211Y-110490476D01*
X287829211Y-110490476D02*
X287638735Y-110538095D01*
X287638735Y-110538095D02*
X287543497Y-110585714D01*
X287543497Y-110585714D02*
X287495878Y-110633333D01*
X287495878Y-110633333D02*
X287448259Y-110728571D01*
X288448259Y-115033332D02*
X287972068Y-114699999D01*
X288448259Y-114461904D02*
X287448259Y-114461904D01*
X287448259Y-114461904D02*
X287448259Y-114842856D01*
X287448259Y-114842856D02*
X287495878Y-114938094D01*
X287495878Y-114938094D02*
X287543497Y-114985713D01*
X287543497Y-114985713D02*
X287638735Y-115033332D01*
X287638735Y-115033332D02*
X287781592Y-115033332D01*
X287781592Y-115033332D02*
X287876830Y-114985713D01*
X287876830Y-114985713D02*
X287924449Y-114938094D01*
X287924449Y-114938094D02*
X287972068Y-114842856D01*
X287972068Y-114842856D02*
X287972068Y-114461904D01*
X288448259Y-115509523D02*
X288448259Y-115699999D01*
X288448259Y-115699999D02*
X288400640Y-115795237D01*
X288400640Y-115795237D02*
X288353020Y-115842856D01*
X288353020Y-115842856D02*
X288210163Y-115938094D01*
X288210163Y-115938094D02*
X288019687Y-115985713D01*
X288019687Y-115985713D02*
X287638735Y-115985713D01*
X287638735Y-115985713D02*
X287543497Y-115938094D01*
X287543497Y-115938094D02*
X287495878Y-115890475D01*
X287495878Y-115890475D02*
X287448259Y-115795237D01*
X287448259Y-115795237D02*
X287448259Y-115604761D01*
X287448259Y-115604761D02*
X287495878Y-115509523D01*
X287495878Y-115509523D02*
X287543497Y-115461904D01*
X287543497Y-115461904D02*
X287638735Y-115414285D01*
X287638735Y-115414285D02*
X287876830Y-115414285D01*
X287876830Y-115414285D02*
X287972068Y-115461904D01*
X287972068Y-115461904D02*
X288019687Y-115509523D01*
X288019687Y-115509523D02*
X288067306Y-115604761D01*
X288067306Y-115604761D02*
X288067306Y-115795237D01*
X288067306Y-115795237D02*
X288019687Y-115890475D01*
X288019687Y-115890475D02*
X287972068Y-115938094D01*
X287972068Y-115938094D02*
X287876830Y-115985713D01*
X288448259Y-127633333D02*
X287972068Y-127300000D01*
X288448259Y-127061905D02*
X287448259Y-127061905D01*
X287448259Y-127061905D02*
X287448259Y-127442857D01*
X287448259Y-127442857D02*
X287495878Y-127538095D01*
X287495878Y-127538095D02*
X287543497Y-127585714D01*
X287543497Y-127585714D02*
X287638735Y-127633333D01*
X287638735Y-127633333D02*
X287781592Y-127633333D01*
X287781592Y-127633333D02*
X287876830Y-127585714D01*
X287876830Y-127585714D02*
X287924449Y-127538095D01*
X287924449Y-127538095D02*
X287972068Y-127442857D01*
X287972068Y-127442857D02*
X287972068Y-127061905D01*
X287876830Y-128204762D02*
X287829211Y-128109524D01*
X287829211Y-128109524D02*
X287781592Y-128061905D01*
X287781592Y-128061905D02*
X287686354Y-128014286D01*
X287686354Y-128014286D02*
X287638735Y-128014286D01*
X287638735Y-128014286D02*
X287543497Y-128061905D01*
X287543497Y-128061905D02*
X287495878Y-128109524D01*
X287495878Y-128109524D02*
X287448259Y-128204762D01*
X287448259Y-128204762D02*
X287448259Y-128395238D01*
X287448259Y-128395238D02*
X287495878Y-128490476D01*
X287495878Y-128490476D02*
X287543497Y-128538095D01*
X287543497Y-128538095D02*
X287638735Y-128585714D01*
X287638735Y-128585714D02*
X287686354Y-128585714D01*
X287686354Y-128585714D02*
X287781592Y-128538095D01*
X287781592Y-128538095D02*
X287829211Y-128490476D01*
X287829211Y-128490476D02*
X287876830Y-128395238D01*
X287876830Y-128395238D02*
X287876830Y-128204762D01*
X287876830Y-128204762D02*
X287924449Y-128109524D01*
X287924449Y-128109524D02*
X287972068Y-128061905D01*
X287972068Y-128061905D02*
X288067306Y-128014286D01*
X288067306Y-128014286D02*
X288257782Y-128014286D01*
X288257782Y-128014286D02*
X288353020Y-128061905D01*
X288353020Y-128061905D02*
X288400640Y-128109524D01*
X288400640Y-128109524D02*
X288448259Y-128204762D01*
X288448259Y-128204762D02*
X288448259Y-128395238D01*
X288448259Y-128395238D02*
X288400640Y-128490476D01*
X288400640Y-128490476D02*
X288353020Y-128538095D01*
X288353020Y-128538095D02*
X288257782Y-128585714D01*
X288257782Y-128585714D02*
X288067306Y-128585714D01*
X288067306Y-128585714D02*
X287972068Y-128538095D01*
X287972068Y-128538095D02*
X287924449Y-128490476D01*
X287924449Y-128490476D02*
X287876830Y-128395238D01*
X288448259Y-133033331D02*
X287972068Y-132699998D01*
X288448259Y-132461903D02*
X287448259Y-132461903D01*
X287448259Y-132461903D02*
X287448259Y-132842855D01*
X287448259Y-132842855D02*
X287495878Y-132938093D01*
X287495878Y-132938093D02*
X287543497Y-132985712D01*
X287543497Y-132985712D02*
X287638735Y-133033331D01*
X287638735Y-133033331D02*
X287781592Y-133033331D01*
X287781592Y-133033331D02*
X287876830Y-132985712D01*
X287876830Y-132985712D02*
X287924449Y-132938093D01*
X287924449Y-132938093D02*
X287972068Y-132842855D01*
X287972068Y-132842855D02*
X287972068Y-132461903D01*
X287448259Y-133366665D02*
X287448259Y-134033331D01*
X287448259Y-134033331D02*
X288448259Y-133604760D01*
X306448259Y-127157142D02*
X305972068Y-126823809D01*
X306448259Y-126585714D02*
X305448259Y-126585714D01*
X305448259Y-126585714D02*
X305448259Y-126966666D01*
X305448259Y-126966666D02*
X305495878Y-127061904D01*
X305495878Y-127061904D02*
X305543497Y-127109523D01*
X305543497Y-127109523D02*
X305638735Y-127157142D01*
X305638735Y-127157142D02*
X305781592Y-127157142D01*
X305781592Y-127157142D02*
X305876830Y-127109523D01*
X305876830Y-127109523D02*
X305924449Y-127061904D01*
X305924449Y-127061904D02*
X305972068Y-126966666D01*
X305972068Y-126966666D02*
X305972068Y-126585714D01*
X306448259Y-128109523D02*
X306448259Y-127538095D01*
X306448259Y-127823809D02*
X305448259Y-127823809D01*
X305448259Y-127823809D02*
X305591116Y-127728571D01*
X305591116Y-127728571D02*
X305686354Y-127633333D01*
X305686354Y-127633333D02*
X305733973Y-127538095D01*
X305543497Y-128490476D02*
X305495878Y-128538095D01*
X305495878Y-128538095D02*
X305448259Y-128633333D01*
X305448259Y-128633333D02*
X305448259Y-128871428D01*
X305448259Y-128871428D02*
X305495878Y-128966666D01*
X305495878Y-128966666D02*
X305543497Y-129014285D01*
X305543497Y-129014285D02*
X305638735Y-129061904D01*
X305638735Y-129061904D02*
X305733973Y-129061904D01*
X305733973Y-129061904D02*
X305876830Y-129014285D01*
X305876830Y-129014285D02*
X306448259Y-128442857D01*
X306448259Y-128442857D02*
X306448259Y-129061904D01*
X306448259Y-132557140D02*
X305972068Y-132223807D01*
X306448259Y-131985712D02*
X305448259Y-131985712D01*
X305448259Y-131985712D02*
X305448259Y-132366664D01*
X305448259Y-132366664D02*
X305495878Y-132461902D01*
X305495878Y-132461902D02*
X305543497Y-132509521D01*
X305543497Y-132509521D02*
X305638735Y-132557140D01*
X305638735Y-132557140D02*
X305781592Y-132557140D01*
X305781592Y-132557140D02*
X305876830Y-132509521D01*
X305876830Y-132509521D02*
X305924449Y-132461902D01*
X305924449Y-132461902D02*
X305972068Y-132366664D01*
X305972068Y-132366664D02*
X305972068Y-131985712D01*
X306448259Y-133509521D02*
X306448259Y-132938093D01*
X306448259Y-133223807D02*
X305448259Y-133223807D01*
X305448259Y-133223807D02*
X305591116Y-133128569D01*
X305591116Y-133128569D02*
X305686354Y-133033331D01*
X305686354Y-133033331D02*
X305733973Y-132938093D01*
X306448259Y-134461902D02*
X306448259Y-133890474D01*
X306448259Y-134176188D02*
X305448259Y-134176188D01*
X305448259Y-134176188D02*
X305591116Y-134080950D01*
X305591116Y-134080950D02*
X305686354Y-133985712D01*
X305686354Y-133985712D02*
X305733973Y-133890474D01*
D12*
%TO.C,C3*%
X265761252Y-120765000D02*
X265238748Y-120765000D01*
X265761252Y-122235000D02*
X265238748Y-122235000D01*
%TO.C,C2*%
X245761252Y-120765000D02*
X245238748Y-120765000D01*
X245761252Y-122235000D02*
X245238748Y-122235000D01*
%TO.C,R11*%
X303465000Y-132972935D02*
X303465000Y-133427063D01*
X304935000Y-132972935D02*
X304935000Y-133427063D01*
%TO.C,R4*%
X247465000Y-118572936D02*
X247465000Y-119027064D01*
X248935000Y-118572936D02*
X248935000Y-119027064D01*
%TO.C,R9*%
X285465000Y-114972936D02*
X285465000Y-115427064D01*
X286935000Y-114972936D02*
X286935000Y-115427064D01*
%TO.C,R10*%
X285465000Y-109572936D02*
X285465000Y-110027064D01*
X286935000Y-109572936D02*
X286935000Y-110027064D01*
%TO.C,R8*%
X285465000Y-127572936D02*
X285465000Y-128027064D01*
X286935000Y-127572936D02*
X286935000Y-128027064D01*
%TO.C,C6*%
X301761252Y-129765000D02*
X301238748Y-129765000D01*
X301761252Y-131235000D02*
X301238748Y-131235000D01*
%TO.C,C8*%
X226965000Y-108261252D02*
X226965000Y-107738748D01*
X228435000Y-108261252D02*
X228435000Y-107738748D01*
%TO.C,R5*%
X267465000Y-123972936D02*
X267465000Y-124427064D01*
X268935000Y-123972936D02*
X268935000Y-124427064D01*
%TO.C,R2*%
X227465000Y-118572936D02*
X227465000Y-119027064D01*
X228935000Y-118572936D02*
X228935000Y-119027064D01*
%TO.C,C1*%
X225761252Y-120765000D02*
X225238748Y-120765000D01*
X225761252Y-122235000D02*
X225238748Y-122235000D01*
%TO.C,R12*%
X303465000Y-127572936D02*
X303465000Y-128027064D01*
X304935000Y-127572936D02*
X304935000Y-128027064D01*
%TO.C,R1*%
X227465000Y-123972936D02*
X227465000Y-124427064D01*
X228935000Y-123972936D02*
X228935000Y-124427064D01*
%TO.C,U1*%
X253640000Y-103940000D02*
X253640000Y-108060000D01*
X253640000Y-108060000D02*
X253695000Y-108060000D01*
X253695000Y-103940000D02*
X253640000Y-103940000D01*
X263705000Y-108060000D02*
X263760000Y-108060000D01*
X263760000Y-103940000D02*
X263705000Y-103940000D01*
X263760000Y-108060000D02*
X263760000Y-103940000D01*
X264040000Y-108840000D02*
X263710000Y-108600000D01*
X264040000Y-108360000D01*
X264040000Y-108840000D01*
G36*
X264040000Y-108840000D02*
G01*
X263710000Y-108600000D01*
X264040000Y-108360000D01*
X264040000Y-108840000D01*
G37*
%TO.C,C4*%
X283761252Y-129765000D02*
X283238748Y-129765000D01*
X283761252Y-131235000D02*
X283238748Y-131235000D01*
%TO.C,C5*%
X283761252Y-111765000D02*
X283238748Y-111765000D01*
X283761252Y-113235000D02*
X283238748Y-113235000D01*
%TO.C,C7*%
X251465000Y-108461252D02*
X251465000Y-107938748D01*
X252935000Y-108461252D02*
X252935000Y-107938748D01*
%TO.C,R7*%
X285465000Y-132972935D02*
X285465000Y-133427063D01*
X286935000Y-132972935D02*
X286935000Y-133427063D01*
%TO.C,R3*%
X247465000Y-123972936D02*
X247465000Y-124427064D01*
X248935000Y-123972936D02*
X248935000Y-124427064D01*
%TO.C,R6*%
X267465000Y-118572936D02*
X267465000Y-119027064D01*
X268935000Y-118572936D02*
X268935000Y-119027064D01*
%TD*%
M02*
