%TF.GenerationSoftware,KiCad,Pcbnew,9.0.9-9.0.9~ubuntu24.04.1*%
%TF.CreationDate,2026-10-04T15:08:43+00:00*%
%TF.ProjectId,key-board-rh,6b65792d-626f-4617-9264-2d72682e6b69,A*%
%TF.SameCoordinates,Original*%
%TF.FileFunction,Legend,Bot*%
%TF.FilePolarity,Positive*%
%FSLAX46Y46*%
G04 Gerber Fmt 4.6, Leading zero omitted, Abs format (unit mm)*
G04 Created by KiCad (PCBNEW 9.0.9-9.0.9~ubuntu24.04.1) date 2026-10-04 15:08:43*
%MOMM*%
%LPD*%
G01*
G04 APERTURE LIST*
%ADD10C,0.180000*%
%ADD11C,0.390000*%
%ADD12C,0.150000*%
G04 APERTURE END LIST*
D10*
X206350000Y-122100000D02*
X205150000Y-121500000D01*
X206350000Y-120900000D01*
X206350000Y-122100000D01*
G36*
X206350000Y-122100000D02*
G01*
X205150000Y-121500000D01*
X206350000Y-120900000D01*
X206350000Y-122100000D01*
G37*
X253494999Y-107985000D02*
X252295000Y-108585000D01*
X252295000Y-107385000D01*
X253494999Y-107985000D01*
G36*
X253494999Y-107985000D02*
G01*
X252295000Y-108585000D01*
X252295000Y-107385000D01*
X253494999Y-107985000D01*
G37*
D11*
X240605000Y-111160000D02*
G75*
G02*
X240215000Y-111160000I-195000J0D01*
G01*
X240215000Y-111160000D02*
G75*
G02*
X240605000Y-111160000I195000J0D01*
G01*
D10*
X211385713Y-121953259D02*
X211385713Y-120953259D01*
X211385713Y-120953259D02*
X211052380Y-121667544D01*
X211052380Y-121667544D02*
X210719047Y-120953259D01*
X210719047Y-120953259D02*
X210719047Y-121953259D01*
X210052380Y-120953259D02*
X209861904Y-120953259D01*
X209861904Y-120953259D02*
X209766666Y-121000878D01*
X209766666Y-121000878D02*
X209671428Y-121096116D01*
X209671428Y-121096116D02*
X209623809Y-121286592D01*
X209623809Y-121286592D02*
X209623809Y-121619925D01*
X209623809Y-121619925D02*
X209671428Y-121810401D01*
X209671428Y-121810401D02*
X209766666Y-121905640D01*
X209766666Y-121905640D02*
X209861904Y-121953259D01*
X209861904Y-121953259D02*
X210052380Y-121953259D01*
X210052380Y-121953259D02*
X210147618Y-121905640D01*
X210147618Y-121905640D02*
X210242856Y-121810401D01*
X210242856Y-121810401D02*
X210290475Y-121619925D01*
X210290475Y-121619925D02*
X210290475Y-121286592D01*
X210290475Y-121286592D02*
X210242856Y-121096116D01*
X210242856Y-121096116D02*
X210147618Y-121000878D01*
X210147618Y-121000878D02*
X210052380Y-120953259D01*
X209195237Y-120953259D02*
X209195237Y-121762782D01*
X209195237Y-121762782D02*
X209147618Y-121858020D01*
X209147618Y-121858020D02*
X209099999Y-121905640D01*
X209099999Y-121905640D02*
X209004761Y-121953259D01*
X209004761Y-121953259D02*
X208814285Y-121953259D01*
X208814285Y-121953259D02*
X208719047Y-121905640D01*
X208719047Y-121905640D02*
X208671428Y-121858020D01*
X208671428Y-121858020D02*
X208623809Y-121762782D01*
X208623809Y-121762782D02*
X208623809Y-120953259D01*
X208290475Y-120953259D02*
X207719047Y-120953259D01*
X208004761Y-121953259D02*
X208004761Y-120953259D01*
X207385713Y-121953259D02*
X207385713Y-120953259D01*
X207385713Y-121429449D02*
X206814285Y-121429449D01*
X206814285Y-121953259D02*
X206814285Y-120953259D01*
X224990476Y-120128259D02*
X225323809Y-119652068D01*
X225561904Y-120128259D02*
X225561904Y-119128259D01*
X225561904Y-119128259D02*
X225180952Y-119128259D01*
X225180952Y-119128259D02*
X225085714Y-119175878D01*
X225085714Y-119175878D02*
X225038095Y-119223497D01*
X225038095Y-119223497D02*
X224990476Y-119318735D01*
X224990476Y-119318735D02*
X224990476Y-119461592D01*
X224990476Y-119461592D02*
X225038095Y-119556830D01*
X225038095Y-119556830D02*
X225085714Y-119604449D01*
X225085714Y-119604449D02*
X225180952Y-119652068D01*
X225180952Y-119652068D02*
X225561904Y-119652068D01*
X224561904Y-120128259D02*
X224561904Y-119128259D01*
X224561904Y-119604449D02*
X223990476Y-119604449D01*
X223990476Y-120128259D02*
X223990476Y-119128259D01*
X222990476Y-120128259D02*
X223561904Y-120128259D01*
X223276190Y-120128259D02*
X223276190Y-119128259D01*
X223276190Y-119128259D02*
X223371428Y-119271116D01*
X223371428Y-119271116D02*
X223466666Y-119366354D01*
X223466666Y-119366354D02*
X223561904Y-119413973D01*
X224466666Y-123683020D02*
X224514285Y-123730640D01*
X224514285Y-123730640D02*
X224657142Y-123778259D01*
X224657142Y-123778259D02*
X224752380Y-123778259D01*
X224752380Y-123778259D02*
X224895237Y-123730640D01*
X224895237Y-123730640D02*
X224990475Y-123635401D01*
X224990475Y-123635401D02*
X225038094Y-123540163D01*
X225038094Y-123540163D02*
X225085713Y-123349687D01*
X225085713Y-123349687D02*
X225085713Y-123206830D01*
X225085713Y-123206830D02*
X225038094Y-123016354D01*
X225038094Y-123016354D02*
X224990475Y-122921116D01*
X224990475Y-122921116D02*
X224895237Y-122825878D01*
X224895237Y-122825878D02*
X224752380Y-122778259D01*
X224752380Y-122778259D02*
X224657142Y-122778259D01*
X224657142Y-122778259D02*
X224514285Y-122825878D01*
X224514285Y-122825878D02*
X224466666Y-122873497D01*
X223514285Y-123778259D02*
X224085713Y-123778259D01*
X223799999Y-123778259D02*
X223799999Y-122778259D01*
X223799999Y-122778259D02*
X223895237Y-122921116D01*
X223895237Y-122921116D02*
X223990475Y-123016354D01*
X223990475Y-123016354D02*
X224085713Y-123063973D01*
X238166666Y-105863020D02*
X238214285Y-105910640D01*
X238214285Y-105910640D02*
X238357142Y-105958259D01*
X238357142Y-105958259D02*
X238452380Y-105958259D01*
X238452380Y-105958259D02*
X238595237Y-105910640D01*
X238595237Y-105910640D02*
X238690475Y-105815401D01*
X238690475Y-105815401D02*
X238738094Y-105720163D01*
X238738094Y-105720163D02*
X238785713Y-105529687D01*
X238785713Y-105529687D02*
X238785713Y-105386830D01*
X238785713Y-105386830D02*
X238738094Y-105196354D01*
X238738094Y-105196354D02*
X238690475Y-105101116D01*
X238690475Y-105101116D02*
X238595237Y-105005878D01*
X238595237Y-105005878D02*
X238452380Y-104958259D01*
X238452380Y-104958259D02*
X238357142Y-104958259D01*
X238357142Y-104958259D02*
X238214285Y-105005878D01*
X238214285Y-105005878D02*
X238166666Y-105053497D01*
X237595237Y-105386830D02*
X237690475Y-105339211D01*
X237690475Y-105339211D02*
X237738094Y-105291592D01*
X237738094Y-105291592D02*
X237785713Y-105196354D01*
X237785713Y-105196354D02*
X237785713Y-105148735D01*
X237785713Y-105148735D02*
X237738094Y-105053497D01*
X237738094Y-105053497D02*
X237690475Y-105005878D01*
X237690475Y-105005878D02*
X237595237Y-104958259D01*
X237595237Y-104958259D02*
X237404761Y-104958259D01*
X237404761Y-104958259D02*
X237309523Y-105005878D01*
X237309523Y-105005878D02*
X237261904Y-105053497D01*
X237261904Y-105053497D02*
X237214285Y-105148735D01*
X237214285Y-105148735D02*
X237214285Y-105196354D01*
X237214285Y-105196354D02*
X237261904Y-105291592D01*
X237261904Y-105291592D02*
X237309523Y-105339211D01*
X237309523Y-105339211D02*
X237404761Y-105386830D01*
X237404761Y-105386830D02*
X237595237Y-105386830D01*
X237595237Y-105386830D02*
X237690475Y-105434449D01*
X237690475Y-105434449D02*
X237738094Y-105482068D01*
X237738094Y-105482068D02*
X237785713Y-105577306D01*
X237785713Y-105577306D02*
X237785713Y-105767782D01*
X237785713Y-105767782D02*
X237738094Y-105863020D01*
X237738094Y-105863020D02*
X237690475Y-105910640D01*
X237690475Y-105910640D02*
X237595237Y-105958259D01*
X237595237Y-105958259D02*
X237404761Y-105958259D01*
X237404761Y-105958259D02*
X237309523Y-105910640D01*
X237309523Y-105910640D02*
X237261904Y-105863020D01*
X237261904Y-105863020D02*
X237214285Y-105767782D01*
X237214285Y-105767782D02*
X237214285Y-105577306D01*
X237214285Y-105577306D02*
X237261904Y-105482068D01*
X237261904Y-105482068D02*
X237309523Y-105434449D01*
X237309523Y-105434449D02*
X237404761Y-105386830D01*
X244990476Y-120128259D02*
X245323809Y-119652068D01*
X245561904Y-120128259D02*
X245561904Y-119128259D01*
X245561904Y-119128259D02*
X245180952Y-119128259D01*
X245180952Y-119128259D02*
X245085714Y-119175878D01*
X245085714Y-119175878D02*
X245038095Y-119223497D01*
X245038095Y-119223497D02*
X244990476Y-119318735D01*
X244990476Y-119318735D02*
X244990476Y-119461592D01*
X244990476Y-119461592D02*
X245038095Y-119556830D01*
X245038095Y-119556830D02*
X245085714Y-119604449D01*
X245085714Y-119604449D02*
X245180952Y-119652068D01*
X245180952Y-119652068D02*
X245561904Y-119652068D01*
X244561904Y-120128259D02*
X244561904Y-119128259D01*
X244561904Y-119604449D02*
X243990476Y-119604449D01*
X243990476Y-120128259D02*
X243990476Y-119128259D01*
X243561904Y-119223497D02*
X243514285Y-119175878D01*
X243514285Y-119175878D02*
X243419047Y-119128259D01*
X243419047Y-119128259D02*
X243180952Y-119128259D01*
X243180952Y-119128259D02*
X243085714Y-119175878D01*
X243085714Y-119175878D02*
X243038095Y-119223497D01*
X243038095Y-119223497D02*
X242990476Y-119318735D01*
X242990476Y-119318735D02*
X242990476Y-119413973D01*
X242990476Y-119413973D02*
X243038095Y-119556830D01*
X243038095Y-119556830D02*
X243609523Y-120128259D01*
X243609523Y-120128259D02*
X242990476Y-120128259D01*
X244466666Y-123683020D02*
X244514285Y-123730640D01*
X244514285Y-123730640D02*
X244657142Y-123778259D01*
X244657142Y-123778259D02*
X244752380Y-123778259D01*
X244752380Y-123778259D02*
X244895237Y-123730640D01*
X244895237Y-123730640D02*
X244990475Y-123635401D01*
X244990475Y-123635401D02*
X245038094Y-123540163D01*
X245038094Y-123540163D02*
X245085713Y-123349687D01*
X245085713Y-123349687D02*
X245085713Y-123206830D01*
X245085713Y-123206830D02*
X245038094Y-123016354D01*
X245038094Y-123016354D02*
X244990475Y-122921116D01*
X244990475Y-122921116D02*
X244895237Y-122825878D01*
X244895237Y-122825878D02*
X244752380Y-122778259D01*
X244752380Y-122778259D02*
X244657142Y-122778259D01*
X244657142Y-122778259D02*
X244514285Y-122825878D01*
X244514285Y-122825878D02*
X244466666Y-122873497D01*
X244085713Y-122873497D02*
X244038094Y-122825878D01*
X244038094Y-122825878D02*
X243942856Y-122778259D01*
X243942856Y-122778259D02*
X243704761Y-122778259D01*
X243704761Y-122778259D02*
X243609523Y-122825878D01*
X243609523Y-122825878D02*
X243561904Y-122873497D01*
X243561904Y-122873497D02*
X243514285Y-122968735D01*
X243514285Y-122968735D02*
X243514285Y-123063973D01*
X243514285Y-123063973D02*
X243561904Y-123206830D01*
X243561904Y-123206830D02*
X244133332Y-123778259D01*
X244133332Y-123778259D02*
X243514285Y-123778259D01*
X246853332Y-115718259D02*
X246853332Y-116432544D01*
X246853332Y-116432544D02*
X246900951Y-116575401D01*
X246900951Y-116575401D02*
X246996189Y-116670640D01*
X246996189Y-116670640D02*
X247139046Y-116718259D01*
X247139046Y-116718259D02*
X247234284Y-116718259D01*
X245853332Y-116718259D02*
X246424760Y-116718259D01*
X246139046Y-116718259D02*
X246139046Y-115718259D01*
X246139046Y-115718259D02*
X246234284Y-115861116D01*
X246234284Y-115861116D02*
X246329522Y-115956354D01*
X246329522Y-115956354D02*
X246424760Y-116003973D01*
X257666666Y-106063020D02*
X257714285Y-106110640D01*
X257714285Y-106110640D02*
X257857142Y-106158259D01*
X257857142Y-106158259D02*
X257952380Y-106158259D01*
X257952380Y-106158259D02*
X258095237Y-106110640D01*
X258095237Y-106110640D02*
X258190475Y-106015401D01*
X258190475Y-106015401D02*
X258238094Y-105920163D01*
X258238094Y-105920163D02*
X258285713Y-105729687D01*
X258285713Y-105729687D02*
X258285713Y-105586830D01*
X258285713Y-105586830D02*
X258238094Y-105396354D01*
X258238094Y-105396354D02*
X258190475Y-105301116D01*
X258190475Y-105301116D02*
X258095237Y-105205878D01*
X258095237Y-105205878D02*
X257952380Y-105158259D01*
X257952380Y-105158259D02*
X257857142Y-105158259D01*
X257857142Y-105158259D02*
X257714285Y-105205878D01*
X257714285Y-105205878D02*
X257666666Y-105253497D01*
X257333332Y-105158259D02*
X256666666Y-105158259D01*
X256666666Y-105158259D02*
X257095237Y-106158259D01*
X264761904Y-100958259D02*
X264761904Y-101767782D01*
X264761904Y-101767782D02*
X264714285Y-101863020D01*
X264714285Y-101863020D02*
X264666666Y-101910640D01*
X264666666Y-101910640D02*
X264571428Y-101958259D01*
X264571428Y-101958259D02*
X264380952Y-101958259D01*
X264380952Y-101958259D02*
X264285714Y-101910640D01*
X264285714Y-101910640D02*
X264238095Y-101863020D01*
X264238095Y-101863020D02*
X264190476Y-101767782D01*
X264190476Y-101767782D02*
X264190476Y-100958259D01*
X263190476Y-101958259D02*
X263761904Y-101958259D01*
X263476190Y-101958259D02*
X263476190Y-100958259D01*
X263476190Y-100958259D02*
X263571428Y-101101116D01*
X263571428Y-101101116D02*
X263666666Y-101196354D01*
X263666666Y-101196354D02*
X263761904Y-101243973D01*
X264990476Y-120128259D02*
X265323809Y-119652068D01*
X265561904Y-120128259D02*
X265561904Y-119128259D01*
X265561904Y-119128259D02*
X265180952Y-119128259D01*
X265180952Y-119128259D02*
X265085714Y-119175878D01*
X265085714Y-119175878D02*
X265038095Y-119223497D01*
X265038095Y-119223497D02*
X264990476Y-119318735D01*
X264990476Y-119318735D02*
X264990476Y-119461592D01*
X264990476Y-119461592D02*
X265038095Y-119556830D01*
X265038095Y-119556830D02*
X265085714Y-119604449D01*
X265085714Y-119604449D02*
X265180952Y-119652068D01*
X265180952Y-119652068D02*
X265561904Y-119652068D01*
X264561904Y-120128259D02*
X264561904Y-119128259D01*
X264561904Y-119604449D02*
X263990476Y-119604449D01*
X263990476Y-120128259D02*
X263990476Y-119128259D01*
X263609523Y-119128259D02*
X262990476Y-119128259D01*
X262990476Y-119128259D02*
X263323809Y-119509211D01*
X263323809Y-119509211D02*
X263180952Y-119509211D01*
X263180952Y-119509211D02*
X263085714Y-119556830D01*
X263085714Y-119556830D02*
X263038095Y-119604449D01*
X263038095Y-119604449D02*
X262990476Y-119699687D01*
X262990476Y-119699687D02*
X262990476Y-119937782D01*
X262990476Y-119937782D02*
X263038095Y-120033020D01*
X263038095Y-120033020D02*
X263085714Y-120080640D01*
X263085714Y-120080640D02*
X263180952Y-120128259D01*
X263180952Y-120128259D02*
X263466666Y-120128259D01*
X263466666Y-120128259D02*
X263561904Y-120080640D01*
X263561904Y-120080640D02*
X263609523Y-120033020D01*
X264466666Y-123683020D02*
X264514285Y-123730640D01*
X264514285Y-123730640D02*
X264657142Y-123778259D01*
X264657142Y-123778259D02*
X264752380Y-123778259D01*
X264752380Y-123778259D02*
X264895237Y-123730640D01*
X264895237Y-123730640D02*
X264990475Y-123635401D01*
X264990475Y-123635401D02*
X265038094Y-123540163D01*
X265038094Y-123540163D02*
X265085713Y-123349687D01*
X265085713Y-123349687D02*
X265085713Y-123206830D01*
X265085713Y-123206830D02*
X265038094Y-123016354D01*
X265038094Y-123016354D02*
X264990475Y-122921116D01*
X264990475Y-122921116D02*
X264895237Y-122825878D01*
X264895237Y-122825878D02*
X264752380Y-122778259D01*
X264752380Y-122778259D02*
X264657142Y-122778259D01*
X264657142Y-122778259D02*
X264514285Y-122825878D01*
X264514285Y-122825878D02*
X264466666Y-122873497D01*
X264133332Y-122778259D02*
X263514285Y-122778259D01*
X263514285Y-122778259D02*
X263847618Y-123159211D01*
X263847618Y-123159211D02*
X263704761Y-123159211D01*
X263704761Y-123159211D02*
X263609523Y-123206830D01*
X263609523Y-123206830D02*
X263561904Y-123254449D01*
X263561904Y-123254449D02*
X263514285Y-123349687D01*
X263514285Y-123349687D02*
X263514285Y-123587782D01*
X263514285Y-123587782D02*
X263561904Y-123683020D01*
X263561904Y-123683020D02*
X263609523Y-123730640D01*
X263609523Y-123730640D02*
X263704761Y-123778259D01*
X263704761Y-123778259D02*
X263990475Y-123778259D01*
X263990475Y-123778259D02*
X264085713Y-123730640D01*
X264085713Y-123730640D02*
X264133332Y-123683020D01*
X271366666Y-102113020D02*
X271414285Y-102160640D01*
X271414285Y-102160640D02*
X271557142Y-102208259D01*
X271557142Y-102208259D02*
X271652380Y-102208259D01*
X271652380Y-102208259D02*
X271795237Y-102160640D01*
X271795237Y-102160640D02*
X271890475Y-102065401D01*
X271890475Y-102065401D02*
X271938094Y-101970163D01*
X271938094Y-101970163D02*
X271985713Y-101779687D01*
X271985713Y-101779687D02*
X271985713Y-101636830D01*
X271985713Y-101636830D02*
X271938094Y-101446354D01*
X271938094Y-101446354D02*
X271890475Y-101351116D01*
X271890475Y-101351116D02*
X271795237Y-101255878D01*
X271795237Y-101255878D02*
X271652380Y-101208259D01*
X271652380Y-101208259D02*
X271557142Y-101208259D01*
X271557142Y-101208259D02*
X271414285Y-101255878D01*
X271414285Y-101255878D02*
X271366666Y-101303497D01*
X270890475Y-102208259D02*
X270699999Y-102208259D01*
X270699999Y-102208259D02*
X270604761Y-102160640D01*
X270604761Y-102160640D02*
X270557142Y-102113020D01*
X270557142Y-102113020D02*
X270461904Y-101970163D01*
X270461904Y-101970163D02*
X270414285Y-101779687D01*
X270414285Y-101779687D02*
X270414285Y-101398735D01*
X270414285Y-101398735D02*
X270461904Y-101303497D01*
X270461904Y-101303497D02*
X270509523Y-101255878D01*
X270509523Y-101255878D02*
X270604761Y-101208259D01*
X270604761Y-101208259D02*
X270795237Y-101208259D01*
X270795237Y-101208259D02*
X270890475Y-101255878D01*
X270890475Y-101255878D02*
X270938094Y-101303497D01*
X270938094Y-101303497D02*
X270985713Y-101398735D01*
X270985713Y-101398735D02*
X270985713Y-101636830D01*
X270985713Y-101636830D02*
X270938094Y-101732068D01*
X270938094Y-101732068D02*
X270890475Y-101779687D01*
X270890475Y-101779687D02*
X270795237Y-101827306D01*
X270795237Y-101827306D02*
X270604761Y-101827306D01*
X270604761Y-101827306D02*
X270509523Y-101779687D01*
X270509523Y-101779687D02*
X270461904Y-101732068D01*
X270461904Y-101732068D02*
X270414285Y-101636830D01*
X282990476Y-111128259D02*
X283323809Y-110652068D01*
X283561904Y-111128259D02*
X283561904Y-110128259D01*
X283561904Y-110128259D02*
X283180952Y-110128259D01*
X283180952Y-110128259D02*
X283085714Y-110175878D01*
X283085714Y-110175878D02*
X283038095Y-110223497D01*
X283038095Y-110223497D02*
X282990476Y-110318735D01*
X282990476Y-110318735D02*
X282990476Y-110461592D01*
X282990476Y-110461592D02*
X283038095Y-110556830D01*
X283038095Y-110556830D02*
X283085714Y-110604449D01*
X283085714Y-110604449D02*
X283180952Y-110652068D01*
X283180952Y-110652068D02*
X283561904Y-110652068D01*
X282561904Y-111128259D02*
X282561904Y-110128259D01*
X282561904Y-110604449D02*
X281990476Y-110604449D01*
X281990476Y-111128259D02*
X281990476Y-110128259D01*
X281038095Y-110128259D02*
X281514285Y-110128259D01*
X281514285Y-110128259D02*
X281561904Y-110604449D01*
X281561904Y-110604449D02*
X281514285Y-110556830D01*
X281514285Y-110556830D02*
X281419047Y-110509211D01*
X281419047Y-110509211D02*
X281180952Y-110509211D01*
X281180952Y-110509211D02*
X281085714Y-110556830D01*
X281085714Y-110556830D02*
X281038095Y-110604449D01*
X281038095Y-110604449D02*
X280990476Y-110699687D01*
X280990476Y-110699687D02*
X280990476Y-110937782D01*
X280990476Y-110937782D02*
X281038095Y-111033020D01*
X281038095Y-111033020D02*
X281085714Y-111080640D01*
X281085714Y-111080640D02*
X281180952Y-111128259D01*
X281180952Y-111128259D02*
X281419047Y-111128259D01*
X281419047Y-111128259D02*
X281514285Y-111080640D01*
X281514285Y-111080640D02*
X281561904Y-111033020D01*
X282466666Y-114683020D02*
X282514285Y-114730640D01*
X282514285Y-114730640D02*
X282657142Y-114778259D01*
X282657142Y-114778259D02*
X282752380Y-114778259D01*
X282752380Y-114778259D02*
X282895237Y-114730640D01*
X282895237Y-114730640D02*
X282990475Y-114635401D01*
X282990475Y-114635401D02*
X283038094Y-114540163D01*
X283038094Y-114540163D02*
X283085713Y-114349687D01*
X283085713Y-114349687D02*
X283085713Y-114206830D01*
X283085713Y-114206830D02*
X283038094Y-114016354D01*
X283038094Y-114016354D02*
X282990475Y-113921116D01*
X282990475Y-113921116D02*
X282895237Y-113825878D01*
X282895237Y-113825878D02*
X282752380Y-113778259D01*
X282752380Y-113778259D02*
X282657142Y-113778259D01*
X282657142Y-113778259D02*
X282514285Y-113825878D01*
X282514285Y-113825878D02*
X282466666Y-113873497D01*
X281561904Y-113778259D02*
X282038094Y-113778259D01*
X282038094Y-113778259D02*
X282085713Y-114254449D01*
X282085713Y-114254449D02*
X282038094Y-114206830D01*
X282038094Y-114206830D02*
X281942856Y-114159211D01*
X281942856Y-114159211D02*
X281704761Y-114159211D01*
X281704761Y-114159211D02*
X281609523Y-114206830D01*
X281609523Y-114206830D02*
X281561904Y-114254449D01*
X281561904Y-114254449D02*
X281514285Y-114349687D01*
X281514285Y-114349687D02*
X281514285Y-114587782D01*
X281514285Y-114587782D02*
X281561904Y-114683020D01*
X281561904Y-114683020D02*
X281609523Y-114730640D01*
X281609523Y-114730640D02*
X281704761Y-114778259D01*
X281704761Y-114778259D02*
X281942856Y-114778259D01*
X281942856Y-114778259D02*
X282038094Y-114730640D01*
X282038094Y-114730640D02*
X282085713Y-114683020D01*
X282990476Y-129128258D02*
X283323809Y-128652067D01*
X283561904Y-129128258D02*
X283561904Y-128128258D01*
X283561904Y-128128258D02*
X283180952Y-128128258D01*
X283180952Y-128128258D02*
X283085714Y-128175877D01*
X283085714Y-128175877D02*
X283038095Y-128223496D01*
X283038095Y-128223496D02*
X282990476Y-128318734D01*
X282990476Y-128318734D02*
X282990476Y-128461591D01*
X282990476Y-128461591D02*
X283038095Y-128556829D01*
X283038095Y-128556829D02*
X283085714Y-128604448D01*
X283085714Y-128604448D02*
X283180952Y-128652067D01*
X283180952Y-128652067D02*
X283561904Y-128652067D01*
X282561904Y-129128258D02*
X282561904Y-128128258D01*
X282561904Y-128604448D02*
X281990476Y-128604448D01*
X281990476Y-129128258D02*
X281990476Y-128128258D01*
X281085714Y-128461591D02*
X281085714Y-129128258D01*
X281323809Y-128080639D02*
X281561904Y-128794924D01*
X281561904Y-128794924D02*
X280942857Y-128794924D01*
X282466666Y-132683020D02*
X282514285Y-132730640D01*
X282514285Y-132730640D02*
X282657142Y-132778259D01*
X282657142Y-132778259D02*
X282752380Y-132778259D01*
X282752380Y-132778259D02*
X282895237Y-132730640D01*
X282895237Y-132730640D02*
X282990475Y-132635401D01*
X282990475Y-132635401D02*
X283038094Y-132540163D01*
X283038094Y-132540163D02*
X283085713Y-132349687D01*
X283085713Y-132349687D02*
X283085713Y-132206830D01*
X283085713Y-132206830D02*
X283038094Y-132016354D01*
X283038094Y-132016354D02*
X282990475Y-131921116D01*
X282990475Y-131921116D02*
X282895237Y-131825878D01*
X282895237Y-131825878D02*
X282752380Y-131778259D01*
X282752380Y-131778259D02*
X282657142Y-131778259D01*
X282657142Y-131778259D02*
X282514285Y-131825878D01*
X282514285Y-131825878D02*
X282466666Y-131873497D01*
X281609523Y-132111592D02*
X281609523Y-132778259D01*
X281847618Y-131730640D02*
X282085713Y-132444925D01*
X282085713Y-132444925D02*
X281466666Y-132444925D01*
X300990476Y-129128258D02*
X301323809Y-128652067D01*
X301561904Y-129128258D02*
X301561904Y-128128258D01*
X301561904Y-128128258D02*
X301180952Y-128128258D01*
X301180952Y-128128258D02*
X301085714Y-128175877D01*
X301085714Y-128175877D02*
X301038095Y-128223496D01*
X301038095Y-128223496D02*
X300990476Y-128318734D01*
X300990476Y-128318734D02*
X300990476Y-128461591D01*
X300990476Y-128461591D02*
X301038095Y-128556829D01*
X301038095Y-128556829D02*
X301085714Y-128604448D01*
X301085714Y-128604448D02*
X301180952Y-128652067D01*
X301180952Y-128652067D02*
X301561904Y-128652067D01*
X300561904Y-129128258D02*
X300561904Y-128128258D01*
X300561904Y-128604448D02*
X299990476Y-128604448D01*
X299990476Y-129128258D02*
X299990476Y-128128258D01*
X299085714Y-128128258D02*
X299276190Y-128128258D01*
X299276190Y-128128258D02*
X299371428Y-128175877D01*
X299371428Y-128175877D02*
X299419047Y-128223496D01*
X299419047Y-128223496D02*
X299514285Y-128366353D01*
X299514285Y-128366353D02*
X299561904Y-128556829D01*
X299561904Y-128556829D02*
X299561904Y-128937781D01*
X299561904Y-128937781D02*
X299514285Y-129033019D01*
X299514285Y-129033019D02*
X299466666Y-129080639D01*
X299466666Y-129080639D02*
X299371428Y-129128258D01*
X299371428Y-129128258D02*
X299180952Y-129128258D01*
X299180952Y-129128258D02*
X299085714Y-129080639D01*
X299085714Y-129080639D02*
X299038095Y-129033019D01*
X299038095Y-129033019D02*
X298990476Y-128937781D01*
X298990476Y-128937781D02*
X298990476Y-128699686D01*
X298990476Y-128699686D02*
X299038095Y-128604448D01*
X299038095Y-128604448D02*
X299085714Y-128556829D01*
X299085714Y-128556829D02*
X299180952Y-128509210D01*
X299180952Y-128509210D02*
X299371428Y-128509210D01*
X299371428Y-128509210D02*
X299466666Y-128556829D01*
X299466666Y-128556829D02*
X299514285Y-128604448D01*
X299514285Y-128604448D02*
X299561904Y-128699686D01*
X300466666Y-132683020D02*
X300514285Y-132730640D01*
X300514285Y-132730640D02*
X300657142Y-132778259D01*
X300657142Y-132778259D02*
X300752380Y-132778259D01*
X300752380Y-132778259D02*
X300895237Y-132730640D01*
X300895237Y-132730640D02*
X300990475Y-132635401D01*
X300990475Y-132635401D02*
X301038094Y-132540163D01*
X301038094Y-132540163D02*
X301085713Y-132349687D01*
X301085713Y-132349687D02*
X301085713Y-132206830D01*
X301085713Y-132206830D02*
X301038094Y-132016354D01*
X301038094Y-132016354D02*
X300990475Y-131921116D01*
X300990475Y-131921116D02*
X300895237Y-131825878D01*
X300895237Y-131825878D02*
X300752380Y-131778259D01*
X300752380Y-131778259D02*
X300657142Y-131778259D01*
X300657142Y-131778259D02*
X300514285Y-131825878D01*
X300514285Y-131825878D02*
X300466666Y-131873497D01*
X299609523Y-131778259D02*
X299799999Y-131778259D01*
X299799999Y-131778259D02*
X299895237Y-131825878D01*
X299895237Y-131825878D02*
X299942856Y-131873497D01*
X299942856Y-131873497D02*
X300038094Y-132016354D01*
X300038094Y-132016354D02*
X300085713Y-132206830D01*
X300085713Y-132206830D02*
X300085713Y-132587782D01*
X300085713Y-132587782D02*
X300038094Y-132683020D01*
X300038094Y-132683020D02*
X299990475Y-132730640D01*
X299990475Y-132730640D02*
X299895237Y-132778259D01*
X299895237Y-132778259D02*
X299704761Y-132778259D01*
X299704761Y-132778259D02*
X299609523Y-132730640D01*
X299609523Y-132730640D02*
X299561904Y-132683020D01*
X299561904Y-132683020D02*
X299514285Y-132587782D01*
X299514285Y-132587782D02*
X299514285Y-132349687D01*
X299514285Y-132349687D02*
X299561904Y-132254449D01*
X299561904Y-132254449D02*
X299609523Y-132206830D01*
X299609523Y-132206830D02*
X299704761Y-132159211D01*
X299704761Y-132159211D02*
X299895237Y-132159211D01*
X299895237Y-132159211D02*
X299990475Y-132206830D01*
X299990475Y-132206830D02*
X300038094Y-132254449D01*
X300038094Y-132254449D02*
X300085713Y-132349687D01*
X228070803Y-136953259D02*
X227832708Y-137953259D01*
X227832708Y-137953259D02*
X227642232Y-137238973D01*
X227642232Y-137238973D02*
X227451756Y-137953259D01*
X227451756Y-137953259D02*
X227213661Y-136953259D01*
X226642232Y-136953259D02*
X226451756Y-136953259D01*
X226451756Y-136953259D02*
X226356518Y-137000878D01*
X226356518Y-137000878D02*
X226261280Y-137096116D01*
X226261280Y-137096116D02*
X226213661Y-137286592D01*
X226213661Y-137286592D02*
X226213661Y-137619925D01*
X226213661Y-137619925D02*
X226261280Y-137810401D01*
X226261280Y-137810401D02*
X226356518Y-137905640D01*
X226356518Y-137905640D02*
X226451756Y-137953259D01*
X226451756Y-137953259D02*
X226642232Y-137953259D01*
X226642232Y-137953259D02*
X226737470Y-137905640D01*
X226737470Y-137905640D02*
X226832708Y-137810401D01*
X226832708Y-137810401D02*
X226880327Y-137619925D01*
X226880327Y-137619925D02*
X226880327Y-137286592D01*
X226880327Y-137286592D02*
X226832708Y-137096116D01*
X226832708Y-137096116D02*
X226737470Y-137000878D01*
X226737470Y-137000878D02*
X226642232Y-136953259D01*
X225594613Y-136953259D02*
X225404137Y-136953259D01*
X225404137Y-136953259D02*
X225308899Y-137000878D01*
X225308899Y-137000878D02*
X225213661Y-137096116D01*
X225213661Y-137096116D02*
X225166042Y-137286592D01*
X225166042Y-137286592D02*
X225166042Y-137619925D01*
X225166042Y-137619925D02*
X225213661Y-137810401D01*
X225213661Y-137810401D02*
X225308899Y-137905640D01*
X225308899Y-137905640D02*
X225404137Y-137953259D01*
X225404137Y-137953259D02*
X225594613Y-137953259D01*
X225594613Y-137953259D02*
X225689851Y-137905640D01*
X225689851Y-137905640D02*
X225785089Y-137810401D01*
X225785089Y-137810401D02*
X225832708Y-137619925D01*
X225832708Y-137619925D02*
X225832708Y-137286592D01*
X225832708Y-137286592D02*
X225785089Y-137096116D01*
X225785089Y-137096116D02*
X225689851Y-137000878D01*
X225689851Y-137000878D02*
X225594613Y-136953259D01*
X224737470Y-137953259D02*
X224737470Y-136953259D01*
X224737470Y-136953259D02*
X224499375Y-136953259D01*
X224499375Y-136953259D02*
X224356518Y-137000878D01*
X224356518Y-137000878D02*
X224261280Y-137096116D01*
X224261280Y-137096116D02*
X224213661Y-137191354D01*
X224213661Y-137191354D02*
X224166042Y-137381830D01*
X224166042Y-137381830D02*
X224166042Y-137524687D01*
X224166042Y-137524687D02*
X224213661Y-137715163D01*
X224213661Y-137715163D02*
X224261280Y-137810401D01*
X224261280Y-137810401D02*
X224356518Y-137905640D01*
X224356518Y-137905640D02*
X224499375Y-137953259D01*
X224499375Y-137953259D02*
X224737470Y-137953259D01*
X223546994Y-137477068D02*
X223546994Y-137953259D01*
X223880327Y-136953259D02*
X223546994Y-137477068D01*
X223546994Y-137477068D02*
X223213661Y-136953259D01*
X222118422Y-137953259D02*
X222118422Y-136953259D01*
X222023184Y-137572306D02*
X221737470Y-137953259D01*
X221737470Y-137286592D02*
X222118422Y-137667544D01*
X220927946Y-137905640D02*
X221023184Y-137953259D01*
X221023184Y-137953259D02*
X221213660Y-137953259D01*
X221213660Y-137953259D02*
X221308898Y-137905640D01*
X221308898Y-137905640D02*
X221356517Y-137810401D01*
X221356517Y-137810401D02*
X221356517Y-137429449D01*
X221356517Y-137429449D02*
X221308898Y-137334211D01*
X221308898Y-137334211D02*
X221213660Y-137286592D01*
X221213660Y-137286592D02*
X221023184Y-137286592D01*
X221023184Y-137286592D02*
X220927946Y-137334211D01*
X220927946Y-137334211D02*
X220880327Y-137429449D01*
X220880327Y-137429449D02*
X220880327Y-137524687D01*
X220880327Y-137524687D02*
X221356517Y-137619925D01*
X220546993Y-137286592D02*
X220308898Y-137953259D01*
X220070803Y-137286592D02*
X220308898Y-137953259D01*
X220308898Y-137953259D02*
X220404136Y-138191354D01*
X220404136Y-138191354D02*
X220451755Y-138238973D01*
X220451755Y-138238973D02*
X220546993Y-138286592D01*
X218927945Y-137953259D02*
X218927945Y-136953259D01*
X218927945Y-137334211D02*
X218832707Y-137286592D01*
X218832707Y-137286592D02*
X218642231Y-137286592D01*
X218642231Y-137286592D02*
X218546993Y-137334211D01*
X218546993Y-137334211D02*
X218499374Y-137381830D01*
X218499374Y-137381830D02*
X218451755Y-137477068D01*
X218451755Y-137477068D02*
X218451755Y-137762782D01*
X218451755Y-137762782D02*
X218499374Y-137858020D01*
X218499374Y-137858020D02*
X218546993Y-137905640D01*
X218546993Y-137905640D02*
X218642231Y-137953259D01*
X218642231Y-137953259D02*
X218832707Y-137953259D01*
X218832707Y-137953259D02*
X218927945Y-137905640D01*
X217880326Y-137953259D02*
X217975564Y-137905640D01*
X217975564Y-137905640D02*
X218023183Y-137858020D01*
X218023183Y-137858020D02*
X218070802Y-137762782D01*
X218070802Y-137762782D02*
X218070802Y-137477068D01*
X218070802Y-137477068D02*
X218023183Y-137381830D01*
X218023183Y-137381830D02*
X217975564Y-137334211D01*
X217975564Y-137334211D02*
X217880326Y-137286592D01*
X217880326Y-137286592D02*
X217737469Y-137286592D01*
X217737469Y-137286592D02*
X217642231Y-137334211D01*
X217642231Y-137334211D02*
X217594612Y-137381830D01*
X217594612Y-137381830D02*
X217546993Y-137477068D01*
X217546993Y-137477068D02*
X217546993Y-137762782D01*
X217546993Y-137762782D02*
X217594612Y-137858020D01*
X217594612Y-137858020D02*
X217642231Y-137905640D01*
X217642231Y-137905640D02*
X217737469Y-137953259D01*
X217737469Y-137953259D02*
X217880326Y-137953259D01*
X216689850Y-137953259D02*
X216689850Y-137429449D01*
X216689850Y-137429449D02*
X216737469Y-137334211D01*
X216737469Y-137334211D02*
X216832707Y-137286592D01*
X216832707Y-137286592D02*
X217023183Y-137286592D01*
X217023183Y-137286592D02*
X217118421Y-137334211D01*
X216689850Y-137905640D02*
X216785088Y-137953259D01*
X216785088Y-137953259D02*
X217023183Y-137953259D01*
X217023183Y-137953259D02*
X217118421Y-137905640D01*
X217118421Y-137905640D02*
X217166040Y-137810401D01*
X217166040Y-137810401D02*
X217166040Y-137715163D01*
X217166040Y-137715163D02*
X217118421Y-137619925D01*
X217118421Y-137619925D02*
X217023183Y-137572306D01*
X217023183Y-137572306D02*
X216785088Y-137572306D01*
X216785088Y-137572306D02*
X216689850Y-137524687D01*
X216213659Y-137953259D02*
X216213659Y-137286592D01*
X216213659Y-137477068D02*
X216166040Y-137381830D01*
X216166040Y-137381830D02*
X216118421Y-137334211D01*
X216118421Y-137334211D02*
X216023183Y-137286592D01*
X216023183Y-137286592D02*
X215927945Y-137286592D01*
X215166040Y-137953259D02*
X215166040Y-136953259D01*
X215166040Y-137905640D02*
X215261278Y-137953259D01*
X215261278Y-137953259D02*
X215451754Y-137953259D01*
X215451754Y-137953259D02*
X215546992Y-137905640D01*
X215546992Y-137905640D02*
X215594611Y-137858020D01*
X215594611Y-137858020D02*
X215642230Y-137762782D01*
X215642230Y-137762782D02*
X215642230Y-137477068D01*
X215642230Y-137477068D02*
X215594611Y-137381830D01*
X215594611Y-137381830D02*
X215546992Y-137334211D01*
X215546992Y-137334211D02*
X215451754Y-137286592D01*
X215451754Y-137286592D02*
X215261278Y-137286592D01*
X215261278Y-137286592D02*
X215166040Y-137334211D01*
X213356516Y-137953259D02*
X213689849Y-137477068D01*
X213927944Y-137953259D02*
X213927944Y-136953259D01*
X213927944Y-136953259D02*
X213546992Y-136953259D01*
X213546992Y-136953259D02*
X213451754Y-137000878D01*
X213451754Y-137000878D02*
X213404135Y-137048497D01*
X213404135Y-137048497D02*
X213356516Y-137143735D01*
X213356516Y-137143735D02*
X213356516Y-137286592D01*
X213356516Y-137286592D02*
X213404135Y-137381830D01*
X213404135Y-137381830D02*
X213451754Y-137429449D01*
X213451754Y-137429449D02*
X213546992Y-137477068D01*
X213546992Y-137477068D02*
X213927944Y-137477068D01*
X212927944Y-137953259D02*
X212927944Y-136953259D01*
X212927944Y-137429449D02*
X212356516Y-137429449D01*
X212356516Y-137953259D02*
X212356516Y-136953259D01*
X227356517Y-139753259D02*
X227356517Y-139086592D01*
X227356517Y-139277068D02*
X227308898Y-139181830D01*
X227308898Y-139181830D02*
X227261279Y-139134211D01*
X227261279Y-139134211D02*
X227166041Y-139086592D01*
X227166041Y-139086592D02*
X227070803Y-139086592D01*
X226356517Y-139705640D02*
X226451755Y-139753259D01*
X226451755Y-139753259D02*
X226642231Y-139753259D01*
X226642231Y-139753259D02*
X226737469Y-139705640D01*
X226737469Y-139705640D02*
X226785088Y-139610401D01*
X226785088Y-139610401D02*
X226785088Y-139229449D01*
X226785088Y-139229449D02*
X226737469Y-139134211D01*
X226737469Y-139134211D02*
X226642231Y-139086592D01*
X226642231Y-139086592D02*
X226451755Y-139086592D01*
X226451755Y-139086592D02*
X226356517Y-139134211D01*
X226356517Y-139134211D02*
X226308898Y-139229449D01*
X226308898Y-139229449D02*
X226308898Y-139324687D01*
X226308898Y-139324687D02*
X226785088Y-139419925D01*
X225975564Y-139086592D02*
X225737469Y-139753259D01*
X225737469Y-139753259D02*
X225499374Y-139086592D01*
X224404135Y-139467544D02*
X223927945Y-139467544D01*
X224499373Y-139753259D02*
X224166040Y-138753259D01*
X224166040Y-138753259D02*
X223832707Y-139753259D01*
X222023182Y-138848497D02*
X221975563Y-138800878D01*
X221975563Y-138800878D02*
X221880325Y-138753259D01*
X221880325Y-138753259D02*
X221642230Y-138753259D01*
X221642230Y-138753259D02*
X221546992Y-138800878D01*
X221546992Y-138800878D02*
X221499373Y-138848497D01*
X221499373Y-138848497D02*
X221451754Y-138943735D01*
X221451754Y-138943735D02*
X221451754Y-139038973D01*
X221451754Y-139038973D02*
X221499373Y-139181830D01*
X221499373Y-139181830D02*
X222070801Y-139753259D01*
X222070801Y-139753259D02*
X221451754Y-139753259D01*
X220832706Y-138753259D02*
X220737468Y-138753259D01*
X220737468Y-138753259D02*
X220642230Y-138800878D01*
X220642230Y-138800878D02*
X220594611Y-138848497D01*
X220594611Y-138848497D02*
X220546992Y-138943735D01*
X220546992Y-138943735D02*
X220499373Y-139134211D01*
X220499373Y-139134211D02*
X220499373Y-139372306D01*
X220499373Y-139372306D02*
X220546992Y-139562782D01*
X220546992Y-139562782D02*
X220594611Y-139658020D01*
X220594611Y-139658020D02*
X220642230Y-139705640D01*
X220642230Y-139705640D02*
X220737468Y-139753259D01*
X220737468Y-139753259D02*
X220832706Y-139753259D01*
X220832706Y-139753259D02*
X220927944Y-139705640D01*
X220927944Y-139705640D02*
X220975563Y-139658020D01*
X220975563Y-139658020D02*
X221023182Y-139562782D01*
X221023182Y-139562782D02*
X221070801Y-139372306D01*
X221070801Y-139372306D02*
X221070801Y-139134211D01*
X221070801Y-139134211D02*
X221023182Y-138943735D01*
X221023182Y-138943735D02*
X220975563Y-138848497D01*
X220975563Y-138848497D02*
X220927944Y-138800878D01*
X220927944Y-138800878D02*
X220832706Y-138753259D01*
X220118420Y-138848497D02*
X220070801Y-138800878D01*
X220070801Y-138800878D02*
X219975563Y-138753259D01*
X219975563Y-138753259D02*
X219737468Y-138753259D01*
X219737468Y-138753259D02*
X219642230Y-138800878D01*
X219642230Y-138800878D02*
X219594611Y-138848497D01*
X219594611Y-138848497D02*
X219546992Y-138943735D01*
X219546992Y-138943735D02*
X219546992Y-139038973D01*
X219546992Y-139038973D02*
X219594611Y-139181830D01*
X219594611Y-139181830D02*
X220166039Y-139753259D01*
X220166039Y-139753259D02*
X219546992Y-139753259D01*
X218689849Y-138753259D02*
X218880325Y-138753259D01*
X218880325Y-138753259D02*
X218975563Y-138800878D01*
X218975563Y-138800878D02*
X219023182Y-138848497D01*
X219023182Y-138848497D02*
X219118420Y-138991354D01*
X219118420Y-138991354D02*
X219166039Y-139181830D01*
X219166039Y-139181830D02*
X219166039Y-139562782D01*
X219166039Y-139562782D02*
X219118420Y-139658020D01*
X219118420Y-139658020D02*
X219070801Y-139705640D01*
X219070801Y-139705640D02*
X218975563Y-139753259D01*
X218975563Y-139753259D02*
X218785087Y-139753259D01*
X218785087Y-139753259D02*
X218689849Y-139705640D01*
X218689849Y-139705640D02*
X218642230Y-139658020D01*
X218642230Y-139658020D02*
X218594611Y-139562782D01*
X218594611Y-139562782D02*
X218594611Y-139324687D01*
X218594611Y-139324687D02*
X218642230Y-139229449D01*
X218642230Y-139229449D02*
X218689849Y-139181830D01*
X218689849Y-139181830D02*
X218785087Y-139134211D01*
X218785087Y-139134211D02*
X218975563Y-139134211D01*
X218975563Y-139134211D02*
X219070801Y-139181830D01*
X219070801Y-139181830D02*
X219118420Y-139229449D01*
X219118420Y-139229449D02*
X219166039Y-139324687D01*
X218166039Y-139372306D02*
X217404135Y-139372306D01*
X216404135Y-139753259D02*
X216975563Y-139753259D01*
X216689849Y-139753259D02*
X216689849Y-138753259D01*
X216689849Y-138753259D02*
X216785087Y-138896116D01*
X216785087Y-138896116D02*
X216880325Y-138991354D01*
X216880325Y-138991354D02*
X216975563Y-139038973D01*
X215785087Y-138753259D02*
X215689849Y-138753259D01*
X215689849Y-138753259D02*
X215594611Y-138800878D01*
X215594611Y-138800878D02*
X215546992Y-138848497D01*
X215546992Y-138848497D02*
X215499373Y-138943735D01*
X215499373Y-138943735D02*
X215451754Y-139134211D01*
X215451754Y-139134211D02*
X215451754Y-139372306D01*
X215451754Y-139372306D02*
X215499373Y-139562782D01*
X215499373Y-139562782D02*
X215546992Y-139658020D01*
X215546992Y-139658020D02*
X215594611Y-139705640D01*
X215594611Y-139705640D02*
X215689849Y-139753259D01*
X215689849Y-139753259D02*
X215785087Y-139753259D01*
X215785087Y-139753259D02*
X215880325Y-139705640D01*
X215880325Y-139705640D02*
X215927944Y-139658020D01*
X215927944Y-139658020D02*
X215975563Y-139562782D01*
X215975563Y-139562782D02*
X216023182Y-139372306D01*
X216023182Y-139372306D02*
X216023182Y-139134211D01*
X216023182Y-139134211D02*
X215975563Y-138943735D01*
X215975563Y-138943735D02*
X215927944Y-138848497D01*
X215927944Y-138848497D02*
X215880325Y-138800878D01*
X215880325Y-138800878D02*
X215785087Y-138753259D01*
X215023182Y-139372306D02*
X214261278Y-139372306D01*
X213594611Y-138753259D02*
X213499373Y-138753259D01*
X213499373Y-138753259D02*
X213404135Y-138800878D01*
X213404135Y-138800878D02*
X213356516Y-138848497D01*
X213356516Y-138848497D02*
X213308897Y-138943735D01*
X213308897Y-138943735D02*
X213261278Y-139134211D01*
X213261278Y-139134211D02*
X213261278Y-139372306D01*
X213261278Y-139372306D02*
X213308897Y-139562782D01*
X213308897Y-139562782D02*
X213356516Y-139658020D01*
X213356516Y-139658020D02*
X213404135Y-139705640D01*
X213404135Y-139705640D02*
X213499373Y-139753259D01*
X213499373Y-139753259D02*
X213594611Y-139753259D01*
X213594611Y-139753259D02*
X213689849Y-139705640D01*
X213689849Y-139705640D02*
X213737468Y-139658020D01*
X213737468Y-139658020D02*
X213785087Y-139562782D01*
X213785087Y-139562782D02*
X213832706Y-139372306D01*
X213832706Y-139372306D02*
X213832706Y-139134211D01*
X213832706Y-139134211D02*
X213785087Y-138943735D01*
X213785087Y-138943735D02*
X213737468Y-138848497D01*
X213737468Y-138848497D02*
X213689849Y-138800878D01*
X213689849Y-138800878D02*
X213594611Y-138753259D01*
X212927944Y-138753259D02*
X212308897Y-138753259D01*
X212308897Y-138753259D02*
X212642230Y-139134211D01*
X212642230Y-139134211D02*
X212499373Y-139134211D01*
X212499373Y-139134211D02*
X212404135Y-139181830D01*
X212404135Y-139181830D02*
X212356516Y-139229449D01*
X212356516Y-139229449D02*
X212308897Y-139324687D01*
X212308897Y-139324687D02*
X212308897Y-139562782D01*
X212308897Y-139562782D02*
X212356516Y-139658020D01*
X212356516Y-139658020D02*
X212404135Y-139705640D01*
X212404135Y-139705640D02*
X212499373Y-139753259D01*
X212499373Y-139753259D02*
X212785087Y-139753259D01*
X212785087Y-139753259D02*
X212880325Y-139705640D01*
X212880325Y-139705640D02*
X212927944Y-139658020D01*
X229248259Y-118633333D02*
X228772068Y-118300000D01*
X229248259Y-118061905D02*
X228248259Y-118061905D01*
X228248259Y-118061905D02*
X228248259Y-118442857D01*
X228248259Y-118442857D02*
X228295878Y-118538095D01*
X228295878Y-118538095D02*
X228343497Y-118585714D01*
X228343497Y-118585714D02*
X228438735Y-118633333D01*
X228438735Y-118633333D02*
X228581592Y-118633333D01*
X228581592Y-118633333D02*
X228676830Y-118585714D01*
X228676830Y-118585714D02*
X228724449Y-118538095D01*
X228724449Y-118538095D02*
X228772068Y-118442857D01*
X228772068Y-118442857D02*
X228772068Y-118061905D01*
X228343497Y-119014286D02*
X228295878Y-119061905D01*
X228295878Y-119061905D02*
X228248259Y-119157143D01*
X228248259Y-119157143D02*
X228248259Y-119395238D01*
X228248259Y-119395238D02*
X228295878Y-119490476D01*
X228295878Y-119490476D02*
X228343497Y-119538095D01*
X228343497Y-119538095D02*
X228438735Y-119585714D01*
X228438735Y-119585714D02*
X228533973Y-119585714D01*
X228533973Y-119585714D02*
X228676830Y-119538095D01*
X228676830Y-119538095D02*
X229248259Y-118966667D01*
X229248259Y-118966667D02*
X229248259Y-119585714D01*
X229248259Y-124033332D02*
X228772068Y-123699999D01*
X229248259Y-123461904D02*
X228248259Y-123461904D01*
X228248259Y-123461904D02*
X228248259Y-123842856D01*
X228248259Y-123842856D02*
X228295878Y-123938094D01*
X228295878Y-123938094D02*
X228343497Y-123985713D01*
X228343497Y-123985713D02*
X228438735Y-124033332D01*
X228438735Y-124033332D02*
X228581592Y-124033332D01*
X228581592Y-124033332D02*
X228676830Y-123985713D01*
X228676830Y-123985713D02*
X228724449Y-123938094D01*
X228724449Y-123938094D02*
X228772068Y-123842856D01*
X228772068Y-123842856D02*
X228772068Y-123461904D01*
X229248259Y-124985713D02*
X229248259Y-124414285D01*
X229248259Y-124699999D02*
X228248259Y-124699999D01*
X228248259Y-124699999D02*
X228391116Y-124604761D01*
X228391116Y-124604761D02*
X228486354Y-124509523D01*
X228486354Y-124509523D02*
X228533973Y-124414285D01*
X249248259Y-118633333D02*
X248772068Y-118300000D01*
X249248259Y-118061905D02*
X248248259Y-118061905D01*
X248248259Y-118061905D02*
X248248259Y-118442857D01*
X248248259Y-118442857D02*
X248295878Y-118538095D01*
X248295878Y-118538095D02*
X248343497Y-118585714D01*
X248343497Y-118585714D02*
X248438735Y-118633333D01*
X248438735Y-118633333D02*
X248581592Y-118633333D01*
X248581592Y-118633333D02*
X248676830Y-118585714D01*
X248676830Y-118585714D02*
X248724449Y-118538095D01*
X248724449Y-118538095D02*
X248772068Y-118442857D01*
X248772068Y-118442857D02*
X248772068Y-118061905D01*
X248581592Y-119490476D02*
X249248259Y-119490476D01*
X248200640Y-119252381D02*
X248914925Y-119014286D01*
X248914925Y-119014286D02*
X248914925Y-119633333D01*
X249248259Y-124033332D02*
X248772068Y-123699999D01*
X249248259Y-123461904D02*
X248248259Y-123461904D01*
X248248259Y-123461904D02*
X248248259Y-123842856D01*
X248248259Y-123842856D02*
X248295878Y-123938094D01*
X248295878Y-123938094D02*
X248343497Y-123985713D01*
X248343497Y-123985713D02*
X248438735Y-124033332D01*
X248438735Y-124033332D02*
X248581592Y-124033332D01*
X248581592Y-124033332D02*
X248676830Y-123985713D01*
X248676830Y-123985713D02*
X248724449Y-123938094D01*
X248724449Y-123938094D02*
X248772068Y-123842856D01*
X248772068Y-123842856D02*
X248772068Y-123461904D01*
X248248259Y-124366666D02*
X248248259Y-124985713D01*
X248248259Y-124985713D02*
X248629211Y-124652380D01*
X248629211Y-124652380D02*
X248629211Y-124795237D01*
X248629211Y-124795237D02*
X248676830Y-124890475D01*
X248676830Y-124890475D02*
X248724449Y-124938094D01*
X248724449Y-124938094D02*
X248819687Y-124985713D01*
X248819687Y-124985713D02*
X249057782Y-124985713D01*
X249057782Y-124985713D02*
X249153020Y-124938094D01*
X249153020Y-124938094D02*
X249200640Y-124890475D01*
X249200640Y-124890475D02*
X249248259Y-124795237D01*
X249248259Y-124795237D02*
X249248259Y-124509523D01*
X249248259Y-124509523D02*
X249200640Y-124414285D01*
X249200640Y-124414285D02*
X249153020Y-124366666D01*
X269248259Y-118633333D02*
X268772068Y-118300000D01*
X269248259Y-118061905D02*
X268248259Y-118061905D01*
X268248259Y-118061905D02*
X268248259Y-118442857D01*
X268248259Y-118442857D02*
X268295878Y-118538095D01*
X268295878Y-118538095D02*
X268343497Y-118585714D01*
X268343497Y-118585714D02*
X268438735Y-118633333D01*
X268438735Y-118633333D02*
X268581592Y-118633333D01*
X268581592Y-118633333D02*
X268676830Y-118585714D01*
X268676830Y-118585714D02*
X268724449Y-118538095D01*
X268724449Y-118538095D02*
X268772068Y-118442857D01*
X268772068Y-118442857D02*
X268772068Y-118061905D01*
X268248259Y-119490476D02*
X268248259Y-119300000D01*
X268248259Y-119300000D02*
X268295878Y-119204762D01*
X268295878Y-119204762D02*
X268343497Y-119157143D01*
X268343497Y-119157143D02*
X268486354Y-119061905D01*
X268486354Y-119061905D02*
X268676830Y-119014286D01*
X268676830Y-119014286D02*
X269057782Y-119014286D01*
X269057782Y-119014286D02*
X269153020Y-119061905D01*
X269153020Y-119061905D02*
X269200640Y-119109524D01*
X269200640Y-119109524D02*
X269248259Y-119204762D01*
X269248259Y-119204762D02*
X269248259Y-119395238D01*
X269248259Y-119395238D02*
X269200640Y-119490476D01*
X269200640Y-119490476D02*
X269153020Y-119538095D01*
X269153020Y-119538095D02*
X269057782Y-119585714D01*
X269057782Y-119585714D02*
X268819687Y-119585714D01*
X268819687Y-119585714D02*
X268724449Y-119538095D01*
X268724449Y-119538095D02*
X268676830Y-119490476D01*
X268676830Y-119490476D02*
X268629211Y-119395238D01*
X268629211Y-119395238D02*
X268629211Y-119204762D01*
X268629211Y-119204762D02*
X268676830Y-119109524D01*
X268676830Y-119109524D02*
X268724449Y-119061905D01*
X268724449Y-119061905D02*
X268819687Y-119014286D01*
X269248259Y-124033332D02*
X268772068Y-123699999D01*
X269248259Y-123461904D02*
X268248259Y-123461904D01*
X268248259Y-123461904D02*
X268248259Y-123842856D01*
X268248259Y-123842856D02*
X268295878Y-123938094D01*
X268295878Y-123938094D02*
X268343497Y-123985713D01*
X268343497Y-123985713D02*
X268438735Y-124033332D01*
X268438735Y-124033332D02*
X268581592Y-124033332D01*
X268581592Y-124033332D02*
X268676830Y-123985713D01*
X268676830Y-123985713D02*
X268724449Y-123938094D01*
X268724449Y-123938094D02*
X268772068Y-123842856D01*
X268772068Y-123842856D02*
X268772068Y-123461904D01*
X268248259Y-124938094D02*
X268248259Y-124461904D01*
X268248259Y-124461904D02*
X268724449Y-124414285D01*
X268724449Y-124414285D02*
X268676830Y-124461904D01*
X268676830Y-124461904D02*
X268629211Y-124557142D01*
X268629211Y-124557142D02*
X268629211Y-124795237D01*
X268629211Y-124795237D02*
X268676830Y-124890475D01*
X268676830Y-124890475D02*
X268724449Y-124938094D01*
X268724449Y-124938094D02*
X268819687Y-124985713D01*
X268819687Y-124985713D02*
X269057782Y-124985713D01*
X269057782Y-124985713D02*
X269153020Y-124938094D01*
X269153020Y-124938094D02*
X269200640Y-124890475D01*
X269200640Y-124890475D02*
X269248259Y-124795237D01*
X269248259Y-124795237D02*
X269248259Y-124557142D01*
X269248259Y-124557142D02*
X269200640Y-124461904D01*
X269200640Y-124461904D02*
X269153020Y-124414285D01*
X287248259Y-109157142D02*
X286772068Y-108823809D01*
X287248259Y-108585714D02*
X286248259Y-108585714D01*
X286248259Y-108585714D02*
X286248259Y-108966666D01*
X286248259Y-108966666D02*
X286295878Y-109061904D01*
X286295878Y-109061904D02*
X286343497Y-109109523D01*
X286343497Y-109109523D02*
X286438735Y-109157142D01*
X286438735Y-109157142D02*
X286581592Y-109157142D01*
X286581592Y-109157142D02*
X286676830Y-109109523D01*
X286676830Y-109109523D02*
X286724449Y-109061904D01*
X286724449Y-109061904D02*
X286772068Y-108966666D01*
X286772068Y-108966666D02*
X286772068Y-108585714D01*
X287248259Y-110109523D02*
X287248259Y-109538095D01*
X287248259Y-109823809D02*
X286248259Y-109823809D01*
X286248259Y-109823809D02*
X286391116Y-109728571D01*
X286391116Y-109728571D02*
X286486354Y-109633333D01*
X286486354Y-109633333D02*
X286533973Y-109538095D01*
X286248259Y-110728571D02*
X286248259Y-110823809D01*
X286248259Y-110823809D02*
X286295878Y-110919047D01*
X286295878Y-110919047D02*
X286343497Y-110966666D01*
X286343497Y-110966666D02*
X286438735Y-111014285D01*
X286438735Y-111014285D02*
X286629211Y-111061904D01*
X286629211Y-111061904D02*
X286867306Y-111061904D01*
X286867306Y-111061904D02*
X287057782Y-111014285D01*
X287057782Y-111014285D02*
X287153020Y-110966666D01*
X287153020Y-110966666D02*
X287200640Y-110919047D01*
X287200640Y-110919047D02*
X287248259Y-110823809D01*
X287248259Y-110823809D02*
X287248259Y-110728571D01*
X287248259Y-110728571D02*
X287200640Y-110633333D01*
X287200640Y-110633333D02*
X287153020Y-110585714D01*
X287153020Y-110585714D02*
X287057782Y-110538095D01*
X287057782Y-110538095D02*
X286867306Y-110490476D01*
X286867306Y-110490476D02*
X286629211Y-110490476D01*
X286629211Y-110490476D02*
X286438735Y-110538095D01*
X286438735Y-110538095D02*
X286343497Y-110585714D01*
X286343497Y-110585714D02*
X286295878Y-110633333D01*
X286295878Y-110633333D02*
X286248259Y-110728571D01*
X287248259Y-115033332D02*
X286772068Y-114699999D01*
X287248259Y-114461904D02*
X286248259Y-114461904D01*
X286248259Y-114461904D02*
X286248259Y-114842856D01*
X286248259Y-114842856D02*
X286295878Y-114938094D01*
X286295878Y-114938094D02*
X286343497Y-114985713D01*
X286343497Y-114985713D02*
X286438735Y-115033332D01*
X286438735Y-115033332D02*
X286581592Y-115033332D01*
X286581592Y-115033332D02*
X286676830Y-114985713D01*
X286676830Y-114985713D02*
X286724449Y-114938094D01*
X286724449Y-114938094D02*
X286772068Y-114842856D01*
X286772068Y-114842856D02*
X286772068Y-114461904D01*
X287248259Y-115509523D02*
X287248259Y-115699999D01*
X287248259Y-115699999D02*
X287200640Y-115795237D01*
X287200640Y-115795237D02*
X287153020Y-115842856D01*
X287153020Y-115842856D02*
X287010163Y-115938094D01*
X287010163Y-115938094D02*
X286819687Y-115985713D01*
X286819687Y-115985713D02*
X286438735Y-115985713D01*
X286438735Y-115985713D02*
X286343497Y-115938094D01*
X286343497Y-115938094D02*
X286295878Y-115890475D01*
X286295878Y-115890475D02*
X286248259Y-115795237D01*
X286248259Y-115795237D02*
X286248259Y-115604761D01*
X286248259Y-115604761D02*
X286295878Y-115509523D01*
X286295878Y-115509523D02*
X286343497Y-115461904D01*
X286343497Y-115461904D02*
X286438735Y-115414285D01*
X286438735Y-115414285D02*
X286676830Y-115414285D01*
X286676830Y-115414285D02*
X286772068Y-115461904D01*
X286772068Y-115461904D02*
X286819687Y-115509523D01*
X286819687Y-115509523D02*
X286867306Y-115604761D01*
X286867306Y-115604761D02*
X286867306Y-115795237D01*
X286867306Y-115795237D02*
X286819687Y-115890475D01*
X286819687Y-115890475D02*
X286772068Y-115938094D01*
X286772068Y-115938094D02*
X286676830Y-115985713D01*
X287248259Y-127633333D02*
X286772068Y-127300000D01*
X287248259Y-127061905D02*
X286248259Y-127061905D01*
X286248259Y-127061905D02*
X286248259Y-127442857D01*
X286248259Y-127442857D02*
X286295878Y-127538095D01*
X286295878Y-127538095D02*
X286343497Y-127585714D01*
X286343497Y-127585714D02*
X286438735Y-127633333D01*
X286438735Y-127633333D02*
X286581592Y-127633333D01*
X286581592Y-127633333D02*
X286676830Y-127585714D01*
X286676830Y-127585714D02*
X286724449Y-127538095D01*
X286724449Y-127538095D02*
X286772068Y-127442857D01*
X286772068Y-127442857D02*
X286772068Y-127061905D01*
X286676830Y-128204762D02*
X286629211Y-128109524D01*
X286629211Y-128109524D02*
X286581592Y-128061905D01*
X286581592Y-128061905D02*
X286486354Y-128014286D01*
X286486354Y-128014286D02*
X286438735Y-128014286D01*
X286438735Y-128014286D02*
X286343497Y-128061905D01*
X286343497Y-128061905D02*
X286295878Y-128109524D01*
X286295878Y-128109524D02*
X286248259Y-128204762D01*
X286248259Y-128204762D02*
X286248259Y-128395238D01*
X286248259Y-128395238D02*
X286295878Y-128490476D01*
X286295878Y-128490476D02*
X286343497Y-128538095D01*
X286343497Y-128538095D02*
X286438735Y-128585714D01*
X286438735Y-128585714D02*
X286486354Y-128585714D01*
X286486354Y-128585714D02*
X286581592Y-128538095D01*
X286581592Y-128538095D02*
X286629211Y-128490476D01*
X286629211Y-128490476D02*
X286676830Y-128395238D01*
X286676830Y-128395238D02*
X286676830Y-128204762D01*
X286676830Y-128204762D02*
X286724449Y-128109524D01*
X286724449Y-128109524D02*
X286772068Y-128061905D01*
X286772068Y-128061905D02*
X286867306Y-128014286D01*
X286867306Y-128014286D02*
X287057782Y-128014286D01*
X287057782Y-128014286D02*
X287153020Y-128061905D01*
X287153020Y-128061905D02*
X287200640Y-128109524D01*
X287200640Y-128109524D02*
X287248259Y-128204762D01*
X287248259Y-128204762D02*
X287248259Y-128395238D01*
X287248259Y-128395238D02*
X287200640Y-128490476D01*
X287200640Y-128490476D02*
X287153020Y-128538095D01*
X287153020Y-128538095D02*
X287057782Y-128585714D01*
X287057782Y-128585714D02*
X286867306Y-128585714D01*
X286867306Y-128585714D02*
X286772068Y-128538095D01*
X286772068Y-128538095D02*
X286724449Y-128490476D01*
X286724449Y-128490476D02*
X286676830Y-128395238D01*
X287248259Y-133033331D02*
X286772068Y-132699998D01*
X287248259Y-132461903D02*
X286248259Y-132461903D01*
X286248259Y-132461903D02*
X286248259Y-132842855D01*
X286248259Y-132842855D02*
X286295878Y-132938093D01*
X286295878Y-132938093D02*
X286343497Y-132985712D01*
X286343497Y-132985712D02*
X286438735Y-133033331D01*
X286438735Y-133033331D02*
X286581592Y-133033331D01*
X286581592Y-133033331D02*
X286676830Y-132985712D01*
X286676830Y-132985712D02*
X286724449Y-132938093D01*
X286724449Y-132938093D02*
X286772068Y-132842855D01*
X286772068Y-132842855D02*
X286772068Y-132461903D01*
X286248259Y-133366665D02*
X286248259Y-134033331D01*
X286248259Y-134033331D02*
X287248259Y-133604760D01*
X305248259Y-127157142D02*
X304772068Y-126823809D01*
X305248259Y-126585714D02*
X304248259Y-126585714D01*
X304248259Y-126585714D02*
X304248259Y-126966666D01*
X304248259Y-126966666D02*
X304295878Y-127061904D01*
X304295878Y-127061904D02*
X304343497Y-127109523D01*
X304343497Y-127109523D02*
X304438735Y-127157142D01*
X304438735Y-127157142D02*
X304581592Y-127157142D01*
X304581592Y-127157142D02*
X304676830Y-127109523D01*
X304676830Y-127109523D02*
X304724449Y-127061904D01*
X304724449Y-127061904D02*
X304772068Y-126966666D01*
X304772068Y-126966666D02*
X304772068Y-126585714D01*
X305248259Y-128109523D02*
X305248259Y-127538095D01*
X305248259Y-127823809D02*
X304248259Y-127823809D01*
X304248259Y-127823809D02*
X304391116Y-127728571D01*
X304391116Y-127728571D02*
X304486354Y-127633333D01*
X304486354Y-127633333D02*
X304533973Y-127538095D01*
X304343497Y-128490476D02*
X304295878Y-128538095D01*
X304295878Y-128538095D02*
X304248259Y-128633333D01*
X304248259Y-128633333D02*
X304248259Y-128871428D01*
X304248259Y-128871428D02*
X304295878Y-128966666D01*
X304295878Y-128966666D02*
X304343497Y-129014285D01*
X304343497Y-129014285D02*
X304438735Y-129061904D01*
X304438735Y-129061904D02*
X304533973Y-129061904D01*
X304533973Y-129061904D02*
X304676830Y-129014285D01*
X304676830Y-129014285D02*
X305248259Y-128442857D01*
X305248259Y-128442857D02*
X305248259Y-129061904D01*
X305248259Y-132557140D02*
X304772068Y-132223807D01*
X305248259Y-131985712D02*
X304248259Y-131985712D01*
X304248259Y-131985712D02*
X304248259Y-132366664D01*
X304248259Y-132366664D02*
X304295878Y-132461902D01*
X304295878Y-132461902D02*
X304343497Y-132509521D01*
X304343497Y-132509521D02*
X304438735Y-132557140D01*
X304438735Y-132557140D02*
X304581592Y-132557140D01*
X304581592Y-132557140D02*
X304676830Y-132509521D01*
X304676830Y-132509521D02*
X304724449Y-132461902D01*
X304724449Y-132461902D02*
X304772068Y-132366664D01*
X304772068Y-132366664D02*
X304772068Y-131985712D01*
X305248259Y-133509521D02*
X305248259Y-132938093D01*
X305248259Y-133223807D02*
X304248259Y-133223807D01*
X304248259Y-133223807D02*
X304391116Y-133128569D01*
X304391116Y-133128569D02*
X304486354Y-133033331D01*
X304486354Y-133033331D02*
X304533973Y-132938093D01*
X305248259Y-134461902D02*
X305248259Y-133890474D01*
X305248259Y-134176188D02*
X304248259Y-134176188D01*
X304248259Y-134176188D02*
X304391116Y-134080950D01*
X304391116Y-134080950D02*
X304486354Y-133985712D01*
X304486354Y-133985712D02*
X304533973Y-133890474D01*
D12*
%TO.C,C8*%
X237265000Y-108261252D02*
X237265000Y-107738748D01*
X238735000Y-108261252D02*
X238735000Y-107738748D01*
%TO.C,R8*%
X284265000Y-127572936D02*
X284265000Y-128027064D01*
X285735000Y-127572936D02*
X285735000Y-128027064D01*
%TO.C,C3*%
X264561252Y-120765000D02*
X264038748Y-120765000D01*
X264561252Y-122235000D02*
X264038748Y-122235000D01*
%TO.C,R12*%
X302265000Y-127572936D02*
X302265000Y-128027064D01*
X303735000Y-127572936D02*
X303735000Y-128027064D01*
%TO.C,R10*%
X284265000Y-109572936D02*
X284265000Y-110027064D01*
X285735000Y-109572936D02*
X285735000Y-110027064D01*
%TO.C,C6*%
X300561252Y-129765000D02*
X300038748Y-129765000D01*
X300561252Y-131235000D02*
X300038748Y-131235000D01*
%TO.C,R4*%
X246265000Y-118572936D02*
X246265000Y-119027064D01*
X247735000Y-118572936D02*
X247735000Y-119027064D01*
%TO.C,C5*%
X282561252Y-111765000D02*
X282038748Y-111765000D01*
X282561252Y-113235000D02*
X282038748Y-113235000D01*
%TO.C,C9*%
X270938748Y-102795000D02*
X271461252Y-102795000D01*
X270938748Y-104265000D02*
X271461252Y-104265000D01*
%TO.C,U1*%
X258940000Y-103940000D02*
X258940000Y-108060000D01*
X258940000Y-108060000D02*
X258995000Y-108060000D01*
X258995000Y-103940000D02*
X258940000Y-103940000D01*
X269005000Y-108060000D02*
X269060000Y-108060000D01*
X269060000Y-103940000D02*
X269005000Y-103940000D01*
X269060000Y-108060000D02*
X269060000Y-103940000D01*
X269340000Y-108840000D02*
X269010000Y-108600000D01*
X269340000Y-108360000D01*
X269340000Y-108840000D01*
G36*
X269340000Y-108840000D02*
G01*
X269010000Y-108600000D01*
X269340000Y-108360000D01*
X269340000Y-108840000D01*
G37*
%TO.C,R2*%
X226265000Y-118572936D02*
X226265000Y-119027064D01*
X227735000Y-118572936D02*
X227735000Y-119027064D01*
%TO.C,R11*%
X302265000Y-132972935D02*
X302265000Y-133427063D01*
X303735000Y-132972935D02*
X303735000Y-133427063D01*
%TO.C,C4*%
X282561252Y-129765000D02*
X282038748Y-129765000D01*
X282561252Y-131235000D02*
X282038748Y-131235000D01*
%TO.C,R6*%
X266265000Y-118572936D02*
X266265000Y-119027064D01*
X267735000Y-118572936D02*
X267735000Y-119027064D01*
%TO.C,R9*%
X284265000Y-114972936D02*
X284265000Y-115427064D01*
X285735000Y-114972936D02*
X285735000Y-115427064D01*
%TO.C,C7*%
X256765000Y-108461252D02*
X256765000Y-107938748D01*
X258235000Y-108461252D02*
X258235000Y-107938748D01*
%TO.C,C2*%
X244561252Y-120765000D02*
X244038748Y-120765000D01*
X244561252Y-122235000D02*
X244038748Y-122235000D01*
%TO.C,C1*%
X224561252Y-120765000D02*
X224038748Y-120765000D01*
X224561252Y-122235000D02*
X224038748Y-122235000D01*
%TO.C,R1*%
X226265000Y-123972936D02*
X226265000Y-124427064D01*
X227735000Y-123972936D02*
X227735000Y-124427064D01*
%TO.C,R7*%
X284265000Y-132972935D02*
X284265000Y-133427063D01*
X285735000Y-132972935D02*
X285735000Y-133427063D01*
%TO.C,R3*%
X246265000Y-123972936D02*
X246265000Y-124427064D01*
X247735000Y-123972936D02*
X247735000Y-124427064D01*
%TO.C,R5*%
X266265000Y-123972936D02*
X266265000Y-124427064D01*
X267735000Y-123972936D02*
X267735000Y-124427064D01*
%TD*%
M02*
