%TF.GenerationSoftware,KiCad,Pcbnew,9.0.9-9.0.9~ubuntu24.04.1*%
%TF.CreationDate,2026-10-01T14:50:48+00:00*%
%TF.ProjectId,key-board-rh,6b65792d-626f-4617-9264-2d72682e6b69,A*%
%TF.SameCoordinates,Original*%
%TF.FileFunction,Profile,NP*%
%FSLAX46Y46*%
G04 Gerber Fmt 4.6, Leading zero omitted, Abs format (unit mm)*
G04 Created by KiCad (PCBNEW 9.0.9-9.0.9~ubuntu24.04.1) date 2026-10-01 14:50:48*
%MOMM*%
%LPD*%
G01*
G04 APERTURE LIST*
%TA.AperFunction,Profile*%
%ADD10C,0.100000*%
%TD*%
G04 APERTURE END LIST*
D10*
X204400000Y-101500000D02*
X204400000Y-141500000D01*
X204400000Y-141500000D02*
X204412000Y-141656430D01*
X204412000Y-101343600D02*
X204400000Y-101500000D01*
X204412000Y-141656430D02*
X204449000Y-141809020D01*
X204449000Y-101191000D02*
X204412000Y-101343600D01*
X204449000Y-141809020D02*
X204509000Y-141953990D01*
X204509000Y-101045999D02*
X204449000Y-101191000D01*
X204509000Y-141953990D02*
X204591000Y-142087780D01*
X204591000Y-100912200D02*
X204509000Y-101045999D01*
X204591000Y-142087780D02*
X204693000Y-142207110D01*
X204693000Y-100792900D02*
X204591000Y-100912200D01*
X204693000Y-142207110D02*
X204812000Y-142309020D01*
X204812000Y-100691000D02*
X204693000Y-100792900D01*
X204812000Y-142309020D02*
X204946000Y-142391010D01*
X204946000Y-100609000D02*
X204812000Y-100691000D01*
X204946000Y-142391010D02*
X205091000Y-142451050D01*
X205091000Y-100549000D02*
X204946000Y-100609000D01*
X205091000Y-142451050D02*
X205244000Y-142487690D01*
X205244000Y-100512300D02*
X205091000Y-100549000D01*
X205244000Y-142487690D02*
X205400000Y-142500000D01*
X205400000Y-100500000D02*
X205244000Y-100512300D01*
X205400000Y-142500000D02*
X310300000Y-142500000D01*
X310300000Y-100500000D02*
X205400000Y-100500000D01*
X310300000Y-142500000D02*
X310456000Y-142487690D01*
X310456000Y-100512300D02*
X310300000Y-100500000D01*
X310456000Y-142487690D02*
X310609000Y-142451050D01*
X310609000Y-100549000D02*
X310456000Y-100512300D01*
X310609000Y-142451050D02*
X310754000Y-142391010D01*
X310754000Y-100609000D02*
X310609000Y-100549000D01*
X310754000Y-142391010D02*
X310888000Y-142309020D01*
X310888000Y-100691000D02*
X310754000Y-100609000D01*
X310888000Y-142309020D02*
X311007000Y-142207110D01*
X311007000Y-100792900D02*
X310888000Y-100691000D01*
X311007000Y-142207110D02*
X311109000Y-142087780D01*
X311109000Y-100912200D02*
X311007000Y-100792900D01*
X311109000Y-142087780D02*
X311191000Y-141953990D01*
X311191000Y-101045999D02*
X311109000Y-100912200D01*
X311191000Y-141953990D02*
X311251000Y-141809020D01*
X311251000Y-101191000D02*
X311191000Y-101045999D01*
X311251000Y-141809020D02*
X311288000Y-141656430D01*
X311288000Y-101343600D02*
X311251000Y-101191000D01*
X311288000Y-141656430D02*
X311300000Y-141500000D01*
X311300000Y-101500000D02*
X311288000Y-101343600D01*
X311300000Y-141500000D02*
X311300000Y-101500000D01*
M02*
