M48
; DRILL file {KiCad 9.0.9-9.0.9~ubuntu24.04.1} date 2026-10-03T16:57:33+0000
; FORMAT={-:-/ absolute / metric / decimal}
; #@! TF.CreationDate,2026-10-03T16:57:33+00:00
; #@! TF.GenerationSoftware,Kicad,Pcbnew,9.0.9-9.0.9~ubuntu24.04.1
; #@! TF.FileFunction,Plated,1,2,PTH
FMAT,2
METRIC
; #@! TA.AperFunction,Plated,PTH,ViaDrill
T1C0.300
; #@! TA.AperFunction,Plated,PTH,ComponentDrill
T2C0.700
; #@! TA.AperFunction,Plated,PTH,ComponentDrill
T3C1.000
; #@! TA.AperFunction,Plated,PTH,ComponentDrill
T4C2.200
%
G90
G05
T1
X222.2Y-118.9
X226.0Y-125.3
X230.8Y-117.3
X236.6Y-107.1
X238.6Y-110.3
X239.4Y-107.1
X239.6Y-108.3
X240.6Y-101.9
X246.0Y-125.3
X251.8Y-113.3
X259.8Y-110.1
X259.8Y-116.3
X260.6Y-101.9
X262.0Y-101.9
X262.0Y-117.3
X264.0Y-117.9
X264.8Y-105.7
X266.0Y-106.7
X266.0Y-125.3
X266.4Y-116.7
X267.0Y-110.1
X268.2Y-101.9
X268.2Y-112.3
X271.8Y-108.1
X273.6Y-102.3
X280.2Y-110.1
X283.2Y-120.3
X284.0Y-116.3
X284.0Y-134.3
X288.8Y-116.7
X289.2Y-118.7
X289.6Y-122.7
X305.3Y-123.405
X319.0Y-139.36
X319.8Y-103.0
X320.2Y-140.05
X322.0Y-132.5
X322.0Y-135.3
X332.97Y-134.53
X334.2Y-141.0
X335.51Y-106.5
X338.05Y-107.9
X338.05Y-136.6
X340.59Y-107.2
X340.59Y-139.36
X343.13Y-105.1
X344.0Y-137.29
X344.4Y-134.4
X345.67Y-108.6
X348.21Y-105.8
X349.08Y-138.67
X350.75Y-104.4
X350.75Y-135.91
X351.62Y-137.98
X353.29Y-103.7
X353.29Y-135.22
X355.83Y-103.0
X355.83Y-140.05
T2
X242.14Y-104.81
X242.14Y-106.08
X242.14Y-107.35
X242.14Y-108.62
X242.14Y-109.89
X242.14Y-111.16
X243.41Y-104.81
X243.41Y-106.08
X243.41Y-107.35
X243.41Y-108.62
X243.41Y-109.89
X243.41Y-111.16
X302.3Y-114.515
X302.3Y-115.785
X302.3Y-117.055
X302.3Y-118.325
X302.3Y-119.595
X302.3Y-120.865
X302.3Y-122.135
X302.3Y-123.405
X302.3Y-124.675
X302.3Y-125.945
X302.3Y-127.215
X302.3Y-128.485
X303.57Y-114.515
X303.57Y-115.785
X303.57Y-117.055
X303.57Y-118.325
X303.57Y-119.595
X303.57Y-120.865
X303.57Y-122.135
X303.57Y-123.405
X303.57Y-124.675
X303.57Y-125.945
X303.57Y-127.215
X303.57Y-128.485
T3
X332.97Y-110.07
X332.97Y-132.93
X335.51Y-110.07
X335.51Y-132.93
X338.05Y-110.07
X338.05Y-132.93
X340.59Y-110.07
X340.59Y-132.93
X343.13Y-110.07
X343.13Y-132.93
X344.0Y-141.3
X345.67Y-110.07
X345.67Y-132.93
X346.54Y-141.3
X348.21Y-110.07
X348.21Y-132.93
X349.08Y-141.3
X350.75Y-110.07
X350.75Y-132.93
X351.62Y-141.3
X353.29Y-110.07
X353.29Y-132.93
X355.83Y-110.07
X355.83Y-132.93
T4
X213.6Y-126.2
X220.6Y-127.25
X233.6Y-126.2
X240.6Y-127.25
X253.6Y-126.2
X260.6Y-127.25
X271.6Y-117.2
X271.6Y-135.2
X278.6Y-118.25
X278.6Y-136.25
X289.6Y-135.2
X296.6Y-136.25
M30
