%TF.GenerationSoftware,KiCad,Pcbnew,9.0.9-9.0.9~ubuntu24.04.1*%
%TF.CreationDate,2026-10-03T16:57:32+00:00*%
%TF.ProjectId,key-board-rh,6b65792d-626f-4617-9264-2d72682e6b69,A*%
%TF.SameCoordinates,Original*%
%TF.FileFunction,Soldermask,Top*%
%TF.FilePolarity,Negative*%
%FSLAX46Y46*%
G04 Gerber Fmt 4.6, Leading zero omitted, Abs format (unit mm)*
G04 Created by KiCad (PCBNEW 9.0.9-9.0.9~ubuntu24.04.1) date 2026-10-03 16:57:32*
%MOMM*%
%LPD*%
G01*
G04 APERTURE LIST*
%ADD10C,5.250000*%
%ADD11R,1.700000X1.700000*%
%ADD12C,1.700000*%
%ADD13R,1.500000X1.070000*%
%ADD14O,1.500000X1.070000*%
%ADD15C,2.700000*%
G04 APERTURE END LIST*
D10*
%TO.C,SW1*%
X218000000Y-121500000D03*
%TD*%
%TO.C,SW3*%
X258000000Y-121500000D03*
%TD*%
%TO.C,SW2*%
X238000000Y-121500000D03*
%TD*%
%TO.C,SW6*%
X294000000Y-130500000D03*
%TD*%
%TO.C,SW4*%
X276000000Y-130500000D03*
%TD*%
%TO.C,SW5*%
X276000000Y-112500000D03*
%TD*%
D11*
%TO.C,J5*%
X344000000Y-141300000D03*
D12*
X346540000Y-141300000D03*
X349080000Y-141300000D03*
X351620000Y-141300000D03*
%TD*%
D13*
%TO.C,J1*%
X241925000Y-111160000D03*
D14*
X243625000Y-111160000D03*
X241925000Y-109890000D03*
X243625000Y-109890000D03*
X241925000Y-108620000D03*
X243625000Y-108620000D03*
X241925000Y-107350000D03*
X243625000Y-107350000D03*
X241925000Y-106080000D03*
X243625000Y-106080000D03*
X241925000Y-104810000D03*
X243625000Y-104810000D03*
%TD*%
D11*
%TO.C,J4*%
X332970000Y-110070000D03*
D12*
X335510000Y-110070000D03*
X338050000Y-110070000D03*
X340590000Y-110070000D03*
X343130000Y-110070000D03*
X345670000Y-110070000D03*
X348210000Y-110070000D03*
X350750000Y-110070000D03*
X353290000Y-110070000D03*
X355830000Y-110070000D03*
%TD*%
D15*
%TO.C,H1*%
X208000000Y-138900000D03*
%TD*%
D11*
%TO.C,J3*%
X332970000Y-132930000D03*
D12*
X335510000Y-132930000D03*
X338050000Y-132930000D03*
X340590000Y-132930000D03*
X343130000Y-132930000D03*
X345670000Y-132930000D03*
X348210000Y-132930000D03*
X350750000Y-132930000D03*
X353290000Y-132930000D03*
X355830000Y-132930000D03*
%TD*%
D15*
%TO.C,H3*%
X307700000Y-138900000D03*
%TD*%
%TO.C,H2*%
X208000000Y-104100000D03*
%TD*%
D13*
%TO.C,J2*%
X302085000Y-128485000D03*
D14*
X303785000Y-128485000D03*
X302085000Y-127215000D03*
X303785000Y-127215000D03*
X302085000Y-125945000D03*
X303785000Y-125945000D03*
X302085000Y-124675000D03*
X303785000Y-124675000D03*
X302085000Y-123405000D03*
X303785000Y-123405000D03*
X302085000Y-122135000D03*
X303785000Y-122135000D03*
X302085000Y-120865000D03*
X303785000Y-120865000D03*
X302085000Y-119595000D03*
X303785000Y-119595000D03*
X302085000Y-118325000D03*
X303785000Y-118325000D03*
X302085000Y-117055000D03*
X303785000Y-117055000D03*
X302085000Y-115785000D03*
X303785000Y-115785000D03*
X302085000Y-114515000D03*
X303785000Y-114515000D03*
%TD*%
D15*
%TO.C,H4*%
X307700000Y-104100000D03*
%TD*%
M02*
