%TF.GenerationSoftware,KiCad,Pcbnew,9.0.9-9.0.9~ubuntu24.04.1*%
%TF.CreationDate,2026-10-03T16:57:32+00:00*%
%TF.ProjectId,key-board-rh,6b65792d-626f-4617-9264-2d72682e6b69,A*%
%TF.SameCoordinates,Original*%
%TF.FileFunction,Legend,Bot*%
%TF.FilePolarity,Positive*%
%FSLAX46Y46*%
G04 Gerber Fmt 4.6, Leading zero omitted, Abs format (unit mm)*
G04 Created by KiCad (PCBNEW 9.0.9-9.0.9~ubuntu24.04.1) date 2026-10-03 16:57:32*
%MOMM*%
%LPD*%
G01*
G04 APERTURE LIST*
%ADD10C,0.180000*%
%ADD11C,0.390000*%
%ADD12C,0.150000*%
G04 APERTURE END LIST*
D10*
X206350000Y-122100000D02*
X205150000Y-121500000D01*
X206350000Y-120900000D01*
X206350000Y-122100000D01*
G36*
X206350000Y-122100000D02*
G01*
X205150000Y-121500000D01*
X206350000Y-120900000D01*
X206350000Y-122100000D01*
G37*
X253494999Y-107985000D02*
X252295000Y-108585000D01*
X252295000Y-107385000D01*
X253494999Y-107985000D01*
G36*
X253494999Y-107985000D02*
G01*
X252295000Y-108585000D01*
X252295000Y-107385000D01*
X253494999Y-107985000D01*
G37*
D11*
X240605000Y-111160000D02*
G75*
G02*
X240215000Y-111160000I-195000J0D01*
G01*
X240215000Y-111160000D02*
G75*
G02*
X240605000Y-111160000I195000J0D01*
G01*
D10*
X211385713Y-121953259D02*
X211385713Y-120953259D01*
X211385713Y-120953259D02*
X211052380Y-121667544D01*
X211052380Y-121667544D02*
X210719047Y-120953259D01*
X210719047Y-120953259D02*
X210719047Y-121953259D01*
X210052380Y-120953259D02*
X209861904Y-120953259D01*
X209861904Y-120953259D02*
X209766666Y-121000878D01*
X209766666Y-121000878D02*
X209671428Y-121096116D01*
X209671428Y-121096116D02*
X209623809Y-121286592D01*
X209623809Y-121286592D02*
X209623809Y-121619925D01*
X209623809Y-121619925D02*
X209671428Y-121810401D01*
X209671428Y-121810401D02*
X209766666Y-121905640D01*
X209766666Y-121905640D02*
X209861904Y-121953259D01*
X209861904Y-121953259D02*
X210052380Y-121953259D01*
X210052380Y-121953259D02*
X210147618Y-121905640D01*
X210147618Y-121905640D02*
X210242856Y-121810401D01*
X210242856Y-121810401D02*
X210290475Y-121619925D01*
X210290475Y-121619925D02*
X210290475Y-121286592D01*
X210290475Y-121286592D02*
X210242856Y-121096116D01*
X210242856Y-121096116D02*
X210147618Y-121000878D01*
X210147618Y-121000878D02*
X210052380Y-120953259D01*
X209195237Y-120953259D02*
X209195237Y-121762782D01*
X209195237Y-121762782D02*
X209147618Y-121858020D01*
X209147618Y-121858020D02*
X209099999Y-121905640D01*
X209099999Y-121905640D02*
X209004761Y-121953259D01*
X209004761Y-121953259D02*
X208814285Y-121953259D01*
X208814285Y-121953259D02*
X208719047Y-121905640D01*
X208719047Y-121905640D02*
X208671428Y-121858020D01*
X208671428Y-121858020D02*
X208623809Y-121762782D01*
X208623809Y-121762782D02*
X208623809Y-120953259D01*
X208290475Y-120953259D02*
X207719047Y-120953259D01*
X208004761Y-121953259D02*
X208004761Y-120953259D01*
X207385713Y-121953259D02*
X207385713Y-120953259D01*
X207385713Y-121429449D02*
X206814285Y-121429449D01*
X206814285Y-121953259D02*
X206814285Y-120953259D01*
X225390476Y-120128259D02*
X225723809Y-119652068D01*
X225961904Y-120128259D02*
X225961904Y-119128259D01*
X225961904Y-119128259D02*
X225580952Y-119128259D01*
X225580952Y-119128259D02*
X225485714Y-119175878D01*
X225485714Y-119175878D02*
X225438095Y-119223497D01*
X225438095Y-119223497D02*
X225390476Y-119318735D01*
X225390476Y-119318735D02*
X225390476Y-119461592D01*
X225390476Y-119461592D02*
X225438095Y-119556830D01*
X225438095Y-119556830D02*
X225485714Y-119604449D01*
X225485714Y-119604449D02*
X225580952Y-119652068D01*
X225580952Y-119652068D02*
X225961904Y-119652068D01*
X224961904Y-120128259D02*
X224961904Y-119128259D01*
X224961904Y-119604449D02*
X224390476Y-119604449D01*
X224390476Y-120128259D02*
X224390476Y-119128259D01*
X223390476Y-120128259D02*
X223961904Y-120128259D01*
X223676190Y-120128259D02*
X223676190Y-119128259D01*
X223676190Y-119128259D02*
X223771428Y-119271116D01*
X223771428Y-119271116D02*
X223866666Y-119366354D01*
X223866666Y-119366354D02*
X223961904Y-119413973D01*
X224866666Y-123683020D02*
X224914285Y-123730640D01*
X224914285Y-123730640D02*
X225057142Y-123778259D01*
X225057142Y-123778259D02*
X225152380Y-123778259D01*
X225152380Y-123778259D02*
X225295237Y-123730640D01*
X225295237Y-123730640D02*
X225390475Y-123635401D01*
X225390475Y-123635401D02*
X225438094Y-123540163D01*
X225438094Y-123540163D02*
X225485713Y-123349687D01*
X225485713Y-123349687D02*
X225485713Y-123206830D01*
X225485713Y-123206830D02*
X225438094Y-123016354D01*
X225438094Y-123016354D02*
X225390475Y-122921116D01*
X225390475Y-122921116D02*
X225295237Y-122825878D01*
X225295237Y-122825878D02*
X225152380Y-122778259D01*
X225152380Y-122778259D02*
X225057142Y-122778259D01*
X225057142Y-122778259D02*
X224914285Y-122825878D01*
X224914285Y-122825878D02*
X224866666Y-122873497D01*
X223914285Y-123778259D02*
X224485713Y-123778259D01*
X224199999Y-123778259D02*
X224199999Y-122778259D01*
X224199999Y-122778259D02*
X224295237Y-122921116D01*
X224295237Y-122921116D02*
X224390475Y-123016354D01*
X224390475Y-123016354D02*
X224485713Y-123063973D01*
X238166666Y-105863020D02*
X238214285Y-105910640D01*
X238214285Y-105910640D02*
X238357142Y-105958259D01*
X238357142Y-105958259D02*
X238452380Y-105958259D01*
X238452380Y-105958259D02*
X238595237Y-105910640D01*
X238595237Y-105910640D02*
X238690475Y-105815401D01*
X238690475Y-105815401D02*
X238738094Y-105720163D01*
X238738094Y-105720163D02*
X238785713Y-105529687D01*
X238785713Y-105529687D02*
X238785713Y-105386830D01*
X238785713Y-105386830D02*
X238738094Y-105196354D01*
X238738094Y-105196354D02*
X238690475Y-105101116D01*
X238690475Y-105101116D02*
X238595237Y-105005878D01*
X238595237Y-105005878D02*
X238452380Y-104958259D01*
X238452380Y-104958259D02*
X238357142Y-104958259D01*
X238357142Y-104958259D02*
X238214285Y-105005878D01*
X238214285Y-105005878D02*
X238166666Y-105053497D01*
X237595237Y-105386830D02*
X237690475Y-105339211D01*
X237690475Y-105339211D02*
X237738094Y-105291592D01*
X237738094Y-105291592D02*
X237785713Y-105196354D01*
X237785713Y-105196354D02*
X237785713Y-105148735D01*
X237785713Y-105148735D02*
X237738094Y-105053497D01*
X237738094Y-105053497D02*
X237690475Y-105005878D01*
X237690475Y-105005878D02*
X237595237Y-104958259D01*
X237595237Y-104958259D02*
X237404761Y-104958259D01*
X237404761Y-104958259D02*
X237309523Y-105005878D01*
X237309523Y-105005878D02*
X237261904Y-105053497D01*
X237261904Y-105053497D02*
X237214285Y-105148735D01*
X237214285Y-105148735D02*
X237214285Y-105196354D01*
X237214285Y-105196354D02*
X237261904Y-105291592D01*
X237261904Y-105291592D02*
X237309523Y-105339211D01*
X237309523Y-105339211D02*
X237404761Y-105386830D01*
X237404761Y-105386830D02*
X237595237Y-105386830D01*
X237595237Y-105386830D02*
X237690475Y-105434449D01*
X237690475Y-105434449D02*
X237738094Y-105482068D01*
X237738094Y-105482068D02*
X237785713Y-105577306D01*
X237785713Y-105577306D02*
X237785713Y-105767782D01*
X237785713Y-105767782D02*
X237738094Y-105863020D01*
X237738094Y-105863020D02*
X237690475Y-105910640D01*
X237690475Y-105910640D02*
X237595237Y-105958259D01*
X237595237Y-105958259D02*
X237404761Y-105958259D01*
X237404761Y-105958259D02*
X237309523Y-105910640D01*
X237309523Y-105910640D02*
X237261904Y-105863020D01*
X237261904Y-105863020D02*
X237214285Y-105767782D01*
X237214285Y-105767782D02*
X237214285Y-105577306D01*
X237214285Y-105577306D02*
X237261904Y-105482068D01*
X237261904Y-105482068D02*
X237309523Y-105434449D01*
X237309523Y-105434449D02*
X237404761Y-105386830D01*
X245390476Y-120128259D02*
X245723809Y-119652068D01*
X245961904Y-120128259D02*
X245961904Y-119128259D01*
X245961904Y-119128259D02*
X245580952Y-119128259D01*
X245580952Y-119128259D02*
X245485714Y-119175878D01*
X245485714Y-119175878D02*
X245438095Y-119223497D01*
X245438095Y-119223497D02*
X245390476Y-119318735D01*
X245390476Y-119318735D02*
X245390476Y-119461592D01*
X245390476Y-119461592D02*
X245438095Y-119556830D01*
X245438095Y-119556830D02*
X245485714Y-119604449D01*
X245485714Y-119604449D02*
X245580952Y-119652068D01*
X245580952Y-119652068D02*
X245961904Y-119652068D01*
X244961904Y-120128259D02*
X244961904Y-119128259D01*
X244961904Y-119604449D02*
X244390476Y-119604449D01*
X244390476Y-120128259D02*
X244390476Y-119128259D01*
X243961904Y-119223497D02*
X243914285Y-119175878D01*
X243914285Y-119175878D02*
X243819047Y-119128259D01*
X243819047Y-119128259D02*
X243580952Y-119128259D01*
X243580952Y-119128259D02*
X243485714Y-119175878D01*
X243485714Y-119175878D02*
X243438095Y-119223497D01*
X243438095Y-119223497D02*
X243390476Y-119318735D01*
X243390476Y-119318735D02*
X243390476Y-119413973D01*
X243390476Y-119413973D02*
X243438095Y-119556830D01*
X243438095Y-119556830D02*
X244009523Y-120128259D01*
X244009523Y-120128259D02*
X243390476Y-120128259D01*
X244866666Y-123683020D02*
X244914285Y-123730640D01*
X244914285Y-123730640D02*
X245057142Y-123778259D01*
X245057142Y-123778259D02*
X245152380Y-123778259D01*
X245152380Y-123778259D02*
X245295237Y-123730640D01*
X245295237Y-123730640D02*
X245390475Y-123635401D01*
X245390475Y-123635401D02*
X245438094Y-123540163D01*
X245438094Y-123540163D02*
X245485713Y-123349687D01*
X245485713Y-123349687D02*
X245485713Y-123206830D01*
X245485713Y-123206830D02*
X245438094Y-123016354D01*
X245438094Y-123016354D02*
X245390475Y-122921116D01*
X245390475Y-122921116D02*
X245295237Y-122825878D01*
X245295237Y-122825878D02*
X245152380Y-122778259D01*
X245152380Y-122778259D02*
X245057142Y-122778259D01*
X245057142Y-122778259D02*
X244914285Y-122825878D01*
X244914285Y-122825878D02*
X244866666Y-122873497D01*
X244485713Y-122873497D02*
X244438094Y-122825878D01*
X244438094Y-122825878D02*
X244342856Y-122778259D01*
X244342856Y-122778259D02*
X244104761Y-122778259D01*
X244104761Y-122778259D02*
X244009523Y-122825878D01*
X244009523Y-122825878D02*
X243961904Y-122873497D01*
X243961904Y-122873497D02*
X243914285Y-122968735D01*
X243914285Y-122968735D02*
X243914285Y-123063973D01*
X243914285Y-123063973D02*
X243961904Y-123206830D01*
X243961904Y-123206830D02*
X244533332Y-123778259D01*
X244533332Y-123778259D02*
X243914285Y-123778259D01*
X246853332Y-115718259D02*
X246853332Y-116432544D01*
X246853332Y-116432544D02*
X246900951Y-116575401D01*
X246900951Y-116575401D02*
X246996189Y-116670640D01*
X246996189Y-116670640D02*
X247139046Y-116718259D01*
X247139046Y-116718259D02*
X247234284Y-116718259D01*
X245853332Y-116718259D02*
X246424760Y-116718259D01*
X246139046Y-116718259D02*
X246139046Y-115718259D01*
X246139046Y-115718259D02*
X246234284Y-115861116D01*
X246234284Y-115861116D02*
X246329522Y-115956354D01*
X246329522Y-115956354D02*
X246424760Y-116003973D01*
X257666666Y-106063020D02*
X257714285Y-106110640D01*
X257714285Y-106110640D02*
X257857142Y-106158259D01*
X257857142Y-106158259D02*
X257952380Y-106158259D01*
X257952380Y-106158259D02*
X258095237Y-106110640D01*
X258095237Y-106110640D02*
X258190475Y-106015401D01*
X258190475Y-106015401D02*
X258238094Y-105920163D01*
X258238094Y-105920163D02*
X258285713Y-105729687D01*
X258285713Y-105729687D02*
X258285713Y-105586830D01*
X258285713Y-105586830D02*
X258238094Y-105396354D01*
X258238094Y-105396354D02*
X258190475Y-105301116D01*
X258190475Y-105301116D02*
X258095237Y-105205878D01*
X258095237Y-105205878D02*
X257952380Y-105158259D01*
X257952380Y-105158259D02*
X257857142Y-105158259D01*
X257857142Y-105158259D02*
X257714285Y-105205878D01*
X257714285Y-105205878D02*
X257666666Y-105253497D01*
X257333332Y-105158259D02*
X256666666Y-105158259D01*
X256666666Y-105158259D02*
X257095237Y-106158259D01*
X264761904Y-100958259D02*
X264761904Y-101767782D01*
X264761904Y-101767782D02*
X264714285Y-101863020D01*
X264714285Y-101863020D02*
X264666666Y-101910640D01*
X264666666Y-101910640D02*
X264571428Y-101958259D01*
X264571428Y-101958259D02*
X264380952Y-101958259D01*
X264380952Y-101958259D02*
X264285714Y-101910640D01*
X264285714Y-101910640D02*
X264238095Y-101863020D01*
X264238095Y-101863020D02*
X264190476Y-101767782D01*
X264190476Y-101767782D02*
X264190476Y-100958259D01*
X263190476Y-101958259D02*
X263761904Y-101958259D01*
X263476190Y-101958259D02*
X263476190Y-100958259D01*
X263476190Y-100958259D02*
X263571428Y-101101116D01*
X263571428Y-101101116D02*
X263666666Y-101196354D01*
X263666666Y-101196354D02*
X263761904Y-101243973D01*
X265390476Y-120128259D02*
X265723809Y-119652068D01*
X265961904Y-120128259D02*
X265961904Y-119128259D01*
X265961904Y-119128259D02*
X265580952Y-119128259D01*
X265580952Y-119128259D02*
X265485714Y-119175878D01*
X265485714Y-119175878D02*
X265438095Y-119223497D01*
X265438095Y-119223497D02*
X265390476Y-119318735D01*
X265390476Y-119318735D02*
X265390476Y-119461592D01*
X265390476Y-119461592D02*
X265438095Y-119556830D01*
X265438095Y-119556830D02*
X265485714Y-119604449D01*
X265485714Y-119604449D02*
X265580952Y-119652068D01*
X265580952Y-119652068D02*
X265961904Y-119652068D01*
X264961904Y-120128259D02*
X264961904Y-119128259D01*
X264961904Y-119604449D02*
X264390476Y-119604449D01*
X264390476Y-120128259D02*
X264390476Y-119128259D01*
X264009523Y-119128259D02*
X263390476Y-119128259D01*
X263390476Y-119128259D02*
X263723809Y-119509211D01*
X263723809Y-119509211D02*
X263580952Y-119509211D01*
X263580952Y-119509211D02*
X263485714Y-119556830D01*
X263485714Y-119556830D02*
X263438095Y-119604449D01*
X263438095Y-119604449D02*
X263390476Y-119699687D01*
X263390476Y-119699687D02*
X263390476Y-119937782D01*
X263390476Y-119937782D02*
X263438095Y-120033020D01*
X263438095Y-120033020D02*
X263485714Y-120080640D01*
X263485714Y-120080640D02*
X263580952Y-120128259D01*
X263580952Y-120128259D02*
X263866666Y-120128259D01*
X263866666Y-120128259D02*
X263961904Y-120080640D01*
X263961904Y-120080640D02*
X264009523Y-120033020D01*
X264866666Y-123683020D02*
X264914285Y-123730640D01*
X264914285Y-123730640D02*
X265057142Y-123778259D01*
X265057142Y-123778259D02*
X265152380Y-123778259D01*
X265152380Y-123778259D02*
X265295237Y-123730640D01*
X265295237Y-123730640D02*
X265390475Y-123635401D01*
X265390475Y-123635401D02*
X265438094Y-123540163D01*
X265438094Y-123540163D02*
X265485713Y-123349687D01*
X265485713Y-123349687D02*
X265485713Y-123206830D01*
X265485713Y-123206830D02*
X265438094Y-123016354D01*
X265438094Y-123016354D02*
X265390475Y-122921116D01*
X265390475Y-122921116D02*
X265295237Y-122825878D01*
X265295237Y-122825878D02*
X265152380Y-122778259D01*
X265152380Y-122778259D02*
X265057142Y-122778259D01*
X265057142Y-122778259D02*
X264914285Y-122825878D01*
X264914285Y-122825878D02*
X264866666Y-122873497D01*
X264533332Y-122778259D02*
X263914285Y-122778259D01*
X263914285Y-122778259D02*
X264247618Y-123159211D01*
X264247618Y-123159211D02*
X264104761Y-123159211D01*
X264104761Y-123159211D02*
X264009523Y-123206830D01*
X264009523Y-123206830D02*
X263961904Y-123254449D01*
X263961904Y-123254449D02*
X263914285Y-123349687D01*
X263914285Y-123349687D02*
X263914285Y-123587782D01*
X263914285Y-123587782D02*
X263961904Y-123683020D01*
X263961904Y-123683020D02*
X264009523Y-123730640D01*
X264009523Y-123730640D02*
X264104761Y-123778259D01*
X264104761Y-123778259D02*
X264390475Y-123778259D01*
X264390475Y-123778259D02*
X264485713Y-123730640D01*
X264485713Y-123730640D02*
X264533332Y-123683020D01*
X271366666Y-102113020D02*
X271414285Y-102160640D01*
X271414285Y-102160640D02*
X271557142Y-102208259D01*
X271557142Y-102208259D02*
X271652380Y-102208259D01*
X271652380Y-102208259D02*
X271795237Y-102160640D01*
X271795237Y-102160640D02*
X271890475Y-102065401D01*
X271890475Y-102065401D02*
X271938094Y-101970163D01*
X271938094Y-101970163D02*
X271985713Y-101779687D01*
X271985713Y-101779687D02*
X271985713Y-101636830D01*
X271985713Y-101636830D02*
X271938094Y-101446354D01*
X271938094Y-101446354D02*
X271890475Y-101351116D01*
X271890475Y-101351116D02*
X271795237Y-101255878D01*
X271795237Y-101255878D02*
X271652380Y-101208259D01*
X271652380Y-101208259D02*
X271557142Y-101208259D01*
X271557142Y-101208259D02*
X271414285Y-101255878D01*
X271414285Y-101255878D02*
X271366666Y-101303497D01*
X270890475Y-102208259D02*
X270699999Y-102208259D01*
X270699999Y-102208259D02*
X270604761Y-102160640D01*
X270604761Y-102160640D02*
X270557142Y-102113020D01*
X270557142Y-102113020D02*
X270461904Y-101970163D01*
X270461904Y-101970163D02*
X270414285Y-101779687D01*
X270414285Y-101779687D02*
X270414285Y-101398735D01*
X270414285Y-101398735D02*
X270461904Y-101303497D01*
X270461904Y-101303497D02*
X270509523Y-101255878D01*
X270509523Y-101255878D02*
X270604761Y-101208259D01*
X270604761Y-101208259D02*
X270795237Y-101208259D01*
X270795237Y-101208259D02*
X270890475Y-101255878D01*
X270890475Y-101255878D02*
X270938094Y-101303497D01*
X270938094Y-101303497D02*
X270985713Y-101398735D01*
X270985713Y-101398735D02*
X270985713Y-101636830D01*
X270985713Y-101636830D02*
X270938094Y-101732068D01*
X270938094Y-101732068D02*
X270890475Y-101779687D01*
X270890475Y-101779687D02*
X270795237Y-101827306D01*
X270795237Y-101827306D02*
X270604761Y-101827306D01*
X270604761Y-101827306D02*
X270509523Y-101779687D01*
X270509523Y-101779687D02*
X270461904Y-101732068D01*
X270461904Y-101732068D02*
X270414285Y-101636830D01*
X283390476Y-111128259D02*
X283723809Y-110652068D01*
X283961904Y-111128259D02*
X283961904Y-110128259D01*
X283961904Y-110128259D02*
X283580952Y-110128259D01*
X283580952Y-110128259D02*
X283485714Y-110175878D01*
X283485714Y-110175878D02*
X283438095Y-110223497D01*
X283438095Y-110223497D02*
X283390476Y-110318735D01*
X283390476Y-110318735D02*
X283390476Y-110461592D01*
X283390476Y-110461592D02*
X283438095Y-110556830D01*
X283438095Y-110556830D02*
X283485714Y-110604449D01*
X283485714Y-110604449D02*
X283580952Y-110652068D01*
X283580952Y-110652068D02*
X283961904Y-110652068D01*
X282961904Y-111128259D02*
X282961904Y-110128259D01*
X282961904Y-110604449D02*
X282390476Y-110604449D01*
X282390476Y-111128259D02*
X282390476Y-110128259D01*
X281438095Y-110128259D02*
X281914285Y-110128259D01*
X281914285Y-110128259D02*
X281961904Y-110604449D01*
X281961904Y-110604449D02*
X281914285Y-110556830D01*
X281914285Y-110556830D02*
X281819047Y-110509211D01*
X281819047Y-110509211D02*
X281580952Y-110509211D01*
X281580952Y-110509211D02*
X281485714Y-110556830D01*
X281485714Y-110556830D02*
X281438095Y-110604449D01*
X281438095Y-110604449D02*
X281390476Y-110699687D01*
X281390476Y-110699687D02*
X281390476Y-110937782D01*
X281390476Y-110937782D02*
X281438095Y-111033020D01*
X281438095Y-111033020D02*
X281485714Y-111080640D01*
X281485714Y-111080640D02*
X281580952Y-111128259D01*
X281580952Y-111128259D02*
X281819047Y-111128259D01*
X281819047Y-111128259D02*
X281914285Y-111080640D01*
X281914285Y-111080640D02*
X281961904Y-111033020D01*
X282866666Y-114683020D02*
X282914285Y-114730640D01*
X282914285Y-114730640D02*
X283057142Y-114778259D01*
X283057142Y-114778259D02*
X283152380Y-114778259D01*
X283152380Y-114778259D02*
X283295237Y-114730640D01*
X283295237Y-114730640D02*
X283390475Y-114635401D01*
X283390475Y-114635401D02*
X283438094Y-114540163D01*
X283438094Y-114540163D02*
X283485713Y-114349687D01*
X283485713Y-114349687D02*
X283485713Y-114206830D01*
X283485713Y-114206830D02*
X283438094Y-114016354D01*
X283438094Y-114016354D02*
X283390475Y-113921116D01*
X283390475Y-113921116D02*
X283295237Y-113825878D01*
X283295237Y-113825878D02*
X283152380Y-113778259D01*
X283152380Y-113778259D02*
X283057142Y-113778259D01*
X283057142Y-113778259D02*
X282914285Y-113825878D01*
X282914285Y-113825878D02*
X282866666Y-113873497D01*
X281961904Y-113778259D02*
X282438094Y-113778259D01*
X282438094Y-113778259D02*
X282485713Y-114254449D01*
X282485713Y-114254449D02*
X282438094Y-114206830D01*
X282438094Y-114206830D02*
X282342856Y-114159211D01*
X282342856Y-114159211D02*
X282104761Y-114159211D01*
X282104761Y-114159211D02*
X282009523Y-114206830D01*
X282009523Y-114206830D02*
X281961904Y-114254449D01*
X281961904Y-114254449D02*
X281914285Y-114349687D01*
X281914285Y-114349687D02*
X281914285Y-114587782D01*
X281914285Y-114587782D02*
X281961904Y-114683020D01*
X281961904Y-114683020D02*
X282009523Y-114730640D01*
X282009523Y-114730640D02*
X282104761Y-114778259D01*
X282104761Y-114778259D02*
X282342856Y-114778259D01*
X282342856Y-114778259D02*
X282438094Y-114730640D01*
X282438094Y-114730640D02*
X282485713Y-114683020D01*
X283390476Y-129128258D02*
X283723809Y-128652067D01*
X283961904Y-129128258D02*
X283961904Y-128128258D01*
X283961904Y-128128258D02*
X283580952Y-128128258D01*
X283580952Y-128128258D02*
X283485714Y-128175877D01*
X283485714Y-128175877D02*
X283438095Y-128223496D01*
X283438095Y-128223496D02*
X283390476Y-128318734D01*
X283390476Y-128318734D02*
X283390476Y-128461591D01*
X283390476Y-128461591D02*
X283438095Y-128556829D01*
X283438095Y-128556829D02*
X283485714Y-128604448D01*
X283485714Y-128604448D02*
X283580952Y-128652067D01*
X283580952Y-128652067D02*
X283961904Y-128652067D01*
X282961904Y-129128258D02*
X282961904Y-128128258D01*
X282961904Y-128604448D02*
X282390476Y-128604448D01*
X282390476Y-129128258D02*
X282390476Y-128128258D01*
X281485714Y-128461591D02*
X281485714Y-129128258D01*
X281723809Y-128080639D02*
X281961904Y-128794924D01*
X281961904Y-128794924D02*
X281342857Y-128794924D01*
X282866666Y-132683020D02*
X282914285Y-132730640D01*
X282914285Y-132730640D02*
X283057142Y-132778259D01*
X283057142Y-132778259D02*
X283152380Y-132778259D01*
X283152380Y-132778259D02*
X283295237Y-132730640D01*
X283295237Y-132730640D02*
X283390475Y-132635401D01*
X283390475Y-132635401D02*
X283438094Y-132540163D01*
X283438094Y-132540163D02*
X283485713Y-132349687D01*
X283485713Y-132349687D02*
X283485713Y-132206830D01*
X283485713Y-132206830D02*
X283438094Y-132016354D01*
X283438094Y-132016354D02*
X283390475Y-131921116D01*
X283390475Y-131921116D02*
X283295237Y-131825878D01*
X283295237Y-131825878D02*
X283152380Y-131778259D01*
X283152380Y-131778259D02*
X283057142Y-131778259D01*
X283057142Y-131778259D02*
X282914285Y-131825878D01*
X282914285Y-131825878D02*
X282866666Y-131873497D01*
X282009523Y-132111592D02*
X282009523Y-132778259D01*
X282247618Y-131730640D02*
X282485713Y-132444925D01*
X282485713Y-132444925D02*
X281866666Y-132444925D01*
X291990476Y-117628259D02*
X292323809Y-117152068D01*
X292561904Y-117628259D02*
X292561904Y-116628259D01*
X292561904Y-116628259D02*
X292180952Y-116628259D01*
X292180952Y-116628259D02*
X292085714Y-116675878D01*
X292085714Y-116675878D02*
X292038095Y-116723497D01*
X292038095Y-116723497D02*
X291990476Y-116818735D01*
X291990476Y-116818735D02*
X291990476Y-116961592D01*
X291990476Y-116961592D02*
X292038095Y-117056830D01*
X292038095Y-117056830D02*
X292085714Y-117104449D01*
X292085714Y-117104449D02*
X292180952Y-117152068D01*
X292180952Y-117152068D02*
X292561904Y-117152068D01*
X291561904Y-117628259D02*
X291561904Y-116628259D01*
X291561904Y-117104449D02*
X290990476Y-117104449D01*
X290990476Y-117628259D02*
X290990476Y-116628259D01*
X290085714Y-116628259D02*
X290276190Y-116628259D01*
X290276190Y-116628259D02*
X290371428Y-116675878D01*
X290371428Y-116675878D02*
X290419047Y-116723497D01*
X290419047Y-116723497D02*
X290514285Y-116866354D01*
X290514285Y-116866354D02*
X290561904Y-117056830D01*
X290561904Y-117056830D02*
X290561904Y-117437782D01*
X290561904Y-117437782D02*
X290514285Y-117533020D01*
X290514285Y-117533020D02*
X290466666Y-117580640D01*
X290466666Y-117580640D02*
X290371428Y-117628259D01*
X290371428Y-117628259D02*
X290180952Y-117628259D01*
X290180952Y-117628259D02*
X290085714Y-117580640D01*
X290085714Y-117580640D02*
X290038095Y-117533020D01*
X290038095Y-117533020D02*
X289990476Y-117437782D01*
X289990476Y-117437782D02*
X289990476Y-117199687D01*
X289990476Y-117199687D02*
X290038095Y-117104449D01*
X290038095Y-117104449D02*
X290085714Y-117056830D01*
X290085714Y-117056830D02*
X290180952Y-117009211D01*
X290180952Y-117009211D02*
X290371428Y-117009211D01*
X290371428Y-117009211D02*
X290466666Y-117056830D01*
X290466666Y-117056830D02*
X290514285Y-117104449D01*
X290514285Y-117104449D02*
X290561904Y-117199687D01*
X291466666Y-121183020D02*
X291514285Y-121230640D01*
X291514285Y-121230640D02*
X291657142Y-121278259D01*
X291657142Y-121278259D02*
X291752380Y-121278259D01*
X291752380Y-121278259D02*
X291895237Y-121230640D01*
X291895237Y-121230640D02*
X291990475Y-121135401D01*
X291990475Y-121135401D02*
X292038094Y-121040163D01*
X292038094Y-121040163D02*
X292085713Y-120849687D01*
X292085713Y-120849687D02*
X292085713Y-120706830D01*
X292085713Y-120706830D02*
X292038094Y-120516354D01*
X292038094Y-120516354D02*
X291990475Y-120421116D01*
X291990475Y-120421116D02*
X291895237Y-120325878D01*
X291895237Y-120325878D02*
X291752380Y-120278259D01*
X291752380Y-120278259D02*
X291657142Y-120278259D01*
X291657142Y-120278259D02*
X291514285Y-120325878D01*
X291514285Y-120325878D02*
X291466666Y-120373497D01*
X290609523Y-120278259D02*
X290799999Y-120278259D01*
X290799999Y-120278259D02*
X290895237Y-120325878D01*
X290895237Y-120325878D02*
X290942856Y-120373497D01*
X290942856Y-120373497D02*
X291038094Y-120516354D01*
X291038094Y-120516354D02*
X291085713Y-120706830D01*
X291085713Y-120706830D02*
X291085713Y-121087782D01*
X291085713Y-121087782D02*
X291038094Y-121183020D01*
X291038094Y-121183020D02*
X290990475Y-121230640D01*
X290990475Y-121230640D02*
X290895237Y-121278259D01*
X290895237Y-121278259D02*
X290704761Y-121278259D01*
X290704761Y-121278259D02*
X290609523Y-121230640D01*
X290609523Y-121230640D02*
X290561904Y-121183020D01*
X290561904Y-121183020D02*
X290514285Y-121087782D01*
X290514285Y-121087782D02*
X290514285Y-120849687D01*
X290514285Y-120849687D02*
X290561904Y-120754449D01*
X290561904Y-120754449D02*
X290609523Y-120706830D01*
X290609523Y-120706830D02*
X290704761Y-120659211D01*
X290704761Y-120659211D02*
X290895237Y-120659211D01*
X290895237Y-120659211D02*
X290990475Y-120706830D01*
X290990475Y-120706830D02*
X291038094Y-120754449D01*
X291038094Y-120754449D02*
X291085713Y-120849687D01*
X306150833Y-109138259D02*
X306150833Y-109852544D01*
X306150833Y-109852544D02*
X306198452Y-109995401D01*
X306198452Y-109995401D02*
X306293690Y-110090640D01*
X306293690Y-110090640D02*
X306436547Y-110138259D01*
X306436547Y-110138259D02*
X306531785Y-110138259D01*
X305722261Y-109233497D02*
X305674642Y-109185878D01*
X305674642Y-109185878D02*
X305579404Y-109138259D01*
X305579404Y-109138259D02*
X305341309Y-109138259D01*
X305341309Y-109138259D02*
X305246071Y-109185878D01*
X305246071Y-109185878D02*
X305198452Y-109233497D01*
X305198452Y-109233497D02*
X305150833Y-109328735D01*
X305150833Y-109328735D02*
X305150833Y-109423973D01*
X305150833Y-109423973D02*
X305198452Y-109566830D01*
X305198452Y-109566830D02*
X305769880Y-110138259D01*
X305769880Y-110138259D02*
X305150833Y-110138259D01*
X329333333Y-133853259D02*
X329333333Y-134567544D01*
X329333333Y-134567544D02*
X329380952Y-134710401D01*
X329380952Y-134710401D02*
X329476190Y-134805640D01*
X329476190Y-134805640D02*
X329619047Y-134853259D01*
X329619047Y-134853259D02*
X329714285Y-134853259D01*
X328952380Y-133853259D02*
X328333333Y-133853259D01*
X328333333Y-133853259D02*
X328666666Y-134234211D01*
X328666666Y-134234211D02*
X328523809Y-134234211D01*
X328523809Y-134234211D02*
X328428571Y-134281830D01*
X328428571Y-134281830D02*
X328380952Y-134329449D01*
X328380952Y-134329449D02*
X328333333Y-134424687D01*
X328333333Y-134424687D02*
X328333333Y-134662782D01*
X328333333Y-134662782D02*
X328380952Y-134758020D01*
X328380952Y-134758020D02*
X328428571Y-134805640D01*
X328428571Y-134805640D02*
X328523809Y-134853259D01*
X328523809Y-134853259D02*
X328809523Y-134853259D01*
X328809523Y-134853259D02*
X328904761Y-134805640D01*
X328904761Y-134805640D02*
X328952380Y-134758020D01*
X344733333Y-106958259D02*
X344733333Y-107672544D01*
X344733333Y-107672544D02*
X344780952Y-107815401D01*
X344780952Y-107815401D02*
X344876190Y-107910640D01*
X344876190Y-107910640D02*
X345019047Y-107958259D01*
X345019047Y-107958259D02*
X345114285Y-107958259D01*
X343828571Y-107291592D02*
X343828571Y-107958259D01*
X344066666Y-106910640D02*
X344304761Y-107624925D01*
X344304761Y-107624925D02*
X343685714Y-107624925D01*
X348143333Y-138188259D02*
X348143333Y-138902544D01*
X348143333Y-138902544D02*
X348190952Y-139045401D01*
X348190952Y-139045401D02*
X348286190Y-139140640D01*
X348286190Y-139140640D02*
X348429047Y-139188259D01*
X348429047Y-139188259D02*
X348524285Y-139188259D01*
X347190952Y-138188259D02*
X347667142Y-138188259D01*
X347667142Y-138188259D02*
X347714761Y-138664449D01*
X347714761Y-138664449D02*
X347667142Y-138616830D01*
X347667142Y-138616830D02*
X347571904Y-138569211D01*
X347571904Y-138569211D02*
X347333809Y-138569211D01*
X347333809Y-138569211D02*
X347238571Y-138616830D01*
X347238571Y-138616830D02*
X347190952Y-138664449D01*
X347190952Y-138664449D02*
X347143333Y-138759687D01*
X347143333Y-138759687D02*
X347143333Y-138997782D01*
X347143333Y-138997782D02*
X347190952Y-139093020D01*
X347190952Y-139093020D02*
X347238571Y-139140640D01*
X347238571Y-139140640D02*
X347333809Y-139188259D01*
X347333809Y-139188259D02*
X347571904Y-139188259D01*
X347571904Y-139188259D02*
X347667142Y-139140640D01*
X347667142Y-139140640D02*
X347714761Y-139093020D01*
X228070803Y-136953259D02*
X227832708Y-137953259D01*
X227832708Y-137953259D02*
X227642232Y-137238973D01*
X227642232Y-137238973D02*
X227451756Y-137953259D01*
X227451756Y-137953259D02*
X227213661Y-136953259D01*
X226642232Y-136953259D02*
X226451756Y-136953259D01*
X226451756Y-136953259D02*
X226356518Y-137000878D01*
X226356518Y-137000878D02*
X226261280Y-137096116D01*
X226261280Y-137096116D02*
X226213661Y-137286592D01*
X226213661Y-137286592D02*
X226213661Y-137619925D01*
X226213661Y-137619925D02*
X226261280Y-137810401D01*
X226261280Y-137810401D02*
X226356518Y-137905640D01*
X226356518Y-137905640D02*
X226451756Y-137953259D01*
X226451756Y-137953259D02*
X226642232Y-137953259D01*
X226642232Y-137953259D02*
X226737470Y-137905640D01*
X226737470Y-137905640D02*
X226832708Y-137810401D01*
X226832708Y-137810401D02*
X226880327Y-137619925D01*
X226880327Y-137619925D02*
X226880327Y-137286592D01*
X226880327Y-137286592D02*
X226832708Y-137096116D01*
X226832708Y-137096116D02*
X226737470Y-137000878D01*
X226737470Y-137000878D02*
X226642232Y-136953259D01*
X225594613Y-136953259D02*
X225404137Y-136953259D01*
X225404137Y-136953259D02*
X225308899Y-137000878D01*
X225308899Y-137000878D02*
X225213661Y-137096116D01*
X225213661Y-137096116D02*
X225166042Y-137286592D01*
X225166042Y-137286592D02*
X225166042Y-137619925D01*
X225166042Y-137619925D02*
X225213661Y-137810401D01*
X225213661Y-137810401D02*
X225308899Y-137905640D01*
X225308899Y-137905640D02*
X225404137Y-137953259D01*
X225404137Y-137953259D02*
X225594613Y-137953259D01*
X225594613Y-137953259D02*
X225689851Y-137905640D01*
X225689851Y-137905640D02*
X225785089Y-137810401D01*
X225785089Y-137810401D02*
X225832708Y-137619925D01*
X225832708Y-137619925D02*
X225832708Y-137286592D01*
X225832708Y-137286592D02*
X225785089Y-137096116D01*
X225785089Y-137096116D02*
X225689851Y-137000878D01*
X225689851Y-137000878D02*
X225594613Y-136953259D01*
X224737470Y-137953259D02*
X224737470Y-136953259D01*
X224737470Y-136953259D02*
X224499375Y-136953259D01*
X224499375Y-136953259D02*
X224356518Y-137000878D01*
X224356518Y-137000878D02*
X224261280Y-137096116D01*
X224261280Y-137096116D02*
X224213661Y-137191354D01*
X224213661Y-137191354D02*
X224166042Y-137381830D01*
X224166042Y-137381830D02*
X224166042Y-137524687D01*
X224166042Y-137524687D02*
X224213661Y-137715163D01*
X224213661Y-137715163D02*
X224261280Y-137810401D01*
X224261280Y-137810401D02*
X224356518Y-137905640D01*
X224356518Y-137905640D02*
X224499375Y-137953259D01*
X224499375Y-137953259D02*
X224737470Y-137953259D01*
X223546994Y-137477068D02*
X223546994Y-137953259D01*
X223880327Y-136953259D02*
X223546994Y-137477068D01*
X223546994Y-137477068D02*
X223213661Y-136953259D01*
X222118422Y-137953259D02*
X222118422Y-136953259D01*
X222023184Y-137572306D02*
X221737470Y-137953259D01*
X221737470Y-137286592D02*
X222118422Y-137667544D01*
X220927946Y-137905640D02*
X221023184Y-137953259D01*
X221023184Y-137953259D02*
X221213660Y-137953259D01*
X221213660Y-137953259D02*
X221308898Y-137905640D01*
X221308898Y-137905640D02*
X221356517Y-137810401D01*
X221356517Y-137810401D02*
X221356517Y-137429449D01*
X221356517Y-137429449D02*
X221308898Y-137334211D01*
X221308898Y-137334211D02*
X221213660Y-137286592D01*
X221213660Y-137286592D02*
X221023184Y-137286592D01*
X221023184Y-137286592D02*
X220927946Y-137334211D01*
X220927946Y-137334211D02*
X220880327Y-137429449D01*
X220880327Y-137429449D02*
X220880327Y-137524687D01*
X220880327Y-137524687D02*
X221356517Y-137619925D01*
X220546993Y-137286592D02*
X220308898Y-137953259D01*
X220070803Y-137286592D02*
X220308898Y-137953259D01*
X220308898Y-137953259D02*
X220404136Y-138191354D01*
X220404136Y-138191354D02*
X220451755Y-138238973D01*
X220451755Y-138238973D02*
X220546993Y-138286592D01*
X218927945Y-137953259D02*
X218927945Y-136953259D01*
X218927945Y-137334211D02*
X218832707Y-137286592D01*
X218832707Y-137286592D02*
X218642231Y-137286592D01*
X218642231Y-137286592D02*
X218546993Y-137334211D01*
X218546993Y-137334211D02*
X218499374Y-137381830D01*
X218499374Y-137381830D02*
X218451755Y-137477068D01*
X218451755Y-137477068D02*
X218451755Y-137762782D01*
X218451755Y-137762782D02*
X218499374Y-137858020D01*
X218499374Y-137858020D02*
X218546993Y-137905640D01*
X218546993Y-137905640D02*
X218642231Y-137953259D01*
X218642231Y-137953259D02*
X218832707Y-137953259D01*
X218832707Y-137953259D02*
X218927945Y-137905640D01*
X217880326Y-137953259D02*
X217975564Y-137905640D01*
X217975564Y-137905640D02*
X218023183Y-137858020D01*
X218023183Y-137858020D02*
X218070802Y-137762782D01*
X218070802Y-137762782D02*
X218070802Y-137477068D01*
X218070802Y-137477068D02*
X218023183Y-137381830D01*
X218023183Y-137381830D02*
X217975564Y-137334211D01*
X217975564Y-137334211D02*
X217880326Y-137286592D01*
X217880326Y-137286592D02*
X217737469Y-137286592D01*
X217737469Y-137286592D02*
X217642231Y-137334211D01*
X217642231Y-137334211D02*
X217594612Y-137381830D01*
X217594612Y-137381830D02*
X217546993Y-137477068D01*
X217546993Y-137477068D02*
X217546993Y-137762782D01*
X217546993Y-137762782D02*
X217594612Y-137858020D01*
X217594612Y-137858020D02*
X217642231Y-137905640D01*
X217642231Y-137905640D02*
X217737469Y-137953259D01*
X217737469Y-137953259D02*
X217880326Y-137953259D01*
X216689850Y-137953259D02*
X216689850Y-137429449D01*
X216689850Y-137429449D02*
X216737469Y-137334211D01*
X216737469Y-137334211D02*
X216832707Y-137286592D01*
X216832707Y-137286592D02*
X217023183Y-137286592D01*
X217023183Y-137286592D02*
X217118421Y-137334211D01*
X216689850Y-137905640D02*
X216785088Y-137953259D01*
X216785088Y-137953259D02*
X217023183Y-137953259D01*
X217023183Y-137953259D02*
X217118421Y-137905640D01*
X217118421Y-137905640D02*
X217166040Y-137810401D01*
X217166040Y-137810401D02*
X217166040Y-137715163D01*
X217166040Y-137715163D02*
X217118421Y-137619925D01*
X217118421Y-137619925D02*
X217023183Y-137572306D01*
X217023183Y-137572306D02*
X216785088Y-137572306D01*
X216785088Y-137572306D02*
X216689850Y-137524687D01*
X216213659Y-137953259D02*
X216213659Y-137286592D01*
X216213659Y-137477068D02*
X216166040Y-137381830D01*
X216166040Y-137381830D02*
X216118421Y-137334211D01*
X216118421Y-137334211D02*
X216023183Y-137286592D01*
X216023183Y-137286592D02*
X215927945Y-137286592D01*
X215166040Y-137953259D02*
X215166040Y-136953259D01*
X215166040Y-137905640D02*
X215261278Y-137953259D01*
X215261278Y-137953259D02*
X215451754Y-137953259D01*
X215451754Y-137953259D02*
X215546992Y-137905640D01*
X215546992Y-137905640D02*
X215594611Y-137858020D01*
X215594611Y-137858020D02*
X215642230Y-137762782D01*
X215642230Y-137762782D02*
X215642230Y-137477068D01*
X215642230Y-137477068D02*
X215594611Y-137381830D01*
X215594611Y-137381830D02*
X215546992Y-137334211D01*
X215546992Y-137334211D02*
X215451754Y-137286592D01*
X215451754Y-137286592D02*
X215261278Y-137286592D01*
X215261278Y-137286592D02*
X215166040Y-137334211D01*
X213356516Y-137953259D02*
X213689849Y-137477068D01*
X213927944Y-137953259D02*
X213927944Y-136953259D01*
X213927944Y-136953259D02*
X213546992Y-136953259D01*
X213546992Y-136953259D02*
X213451754Y-137000878D01*
X213451754Y-137000878D02*
X213404135Y-137048497D01*
X213404135Y-137048497D02*
X213356516Y-137143735D01*
X213356516Y-137143735D02*
X213356516Y-137286592D01*
X213356516Y-137286592D02*
X213404135Y-137381830D01*
X213404135Y-137381830D02*
X213451754Y-137429449D01*
X213451754Y-137429449D02*
X213546992Y-137477068D01*
X213546992Y-137477068D02*
X213927944Y-137477068D01*
X212927944Y-137953259D02*
X212927944Y-136953259D01*
X212927944Y-137429449D02*
X212356516Y-137429449D01*
X212356516Y-137953259D02*
X212356516Y-136953259D01*
X227356517Y-139753259D02*
X227356517Y-139086592D01*
X227356517Y-139277068D02*
X227308898Y-139181830D01*
X227308898Y-139181830D02*
X227261279Y-139134211D01*
X227261279Y-139134211D02*
X227166041Y-139086592D01*
X227166041Y-139086592D02*
X227070803Y-139086592D01*
X226356517Y-139705640D02*
X226451755Y-139753259D01*
X226451755Y-139753259D02*
X226642231Y-139753259D01*
X226642231Y-139753259D02*
X226737469Y-139705640D01*
X226737469Y-139705640D02*
X226785088Y-139610401D01*
X226785088Y-139610401D02*
X226785088Y-139229449D01*
X226785088Y-139229449D02*
X226737469Y-139134211D01*
X226737469Y-139134211D02*
X226642231Y-139086592D01*
X226642231Y-139086592D02*
X226451755Y-139086592D01*
X226451755Y-139086592D02*
X226356517Y-139134211D01*
X226356517Y-139134211D02*
X226308898Y-139229449D01*
X226308898Y-139229449D02*
X226308898Y-139324687D01*
X226308898Y-139324687D02*
X226785088Y-139419925D01*
X225975564Y-139086592D02*
X225737469Y-139753259D01*
X225737469Y-139753259D02*
X225499374Y-139086592D01*
X224404135Y-139467544D02*
X223927945Y-139467544D01*
X224499373Y-139753259D02*
X224166040Y-138753259D01*
X224166040Y-138753259D02*
X223832707Y-139753259D01*
X222023182Y-138848497D02*
X221975563Y-138800878D01*
X221975563Y-138800878D02*
X221880325Y-138753259D01*
X221880325Y-138753259D02*
X221642230Y-138753259D01*
X221642230Y-138753259D02*
X221546992Y-138800878D01*
X221546992Y-138800878D02*
X221499373Y-138848497D01*
X221499373Y-138848497D02*
X221451754Y-138943735D01*
X221451754Y-138943735D02*
X221451754Y-139038973D01*
X221451754Y-139038973D02*
X221499373Y-139181830D01*
X221499373Y-139181830D02*
X222070801Y-139753259D01*
X222070801Y-139753259D02*
X221451754Y-139753259D01*
X220832706Y-138753259D02*
X220737468Y-138753259D01*
X220737468Y-138753259D02*
X220642230Y-138800878D01*
X220642230Y-138800878D02*
X220594611Y-138848497D01*
X220594611Y-138848497D02*
X220546992Y-138943735D01*
X220546992Y-138943735D02*
X220499373Y-139134211D01*
X220499373Y-139134211D02*
X220499373Y-139372306D01*
X220499373Y-139372306D02*
X220546992Y-139562782D01*
X220546992Y-139562782D02*
X220594611Y-139658020D01*
X220594611Y-139658020D02*
X220642230Y-139705640D01*
X220642230Y-139705640D02*
X220737468Y-139753259D01*
X220737468Y-139753259D02*
X220832706Y-139753259D01*
X220832706Y-139753259D02*
X220927944Y-139705640D01*
X220927944Y-139705640D02*
X220975563Y-139658020D01*
X220975563Y-139658020D02*
X221023182Y-139562782D01*
X221023182Y-139562782D02*
X221070801Y-139372306D01*
X221070801Y-139372306D02*
X221070801Y-139134211D01*
X221070801Y-139134211D02*
X221023182Y-138943735D01*
X221023182Y-138943735D02*
X220975563Y-138848497D01*
X220975563Y-138848497D02*
X220927944Y-138800878D01*
X220927944Y-138800878D02*
X220832706Y-138753259D01*
X220118420Y-138848497D02*
X220070801Y-138800878D01*
X220070801Y-138800878D02*
X219975563Y-138753259D01*
X219975563Y-138753259D02*
X219737468Y-138753259D01*
X219737468Y-138753259D02*
X219642230Y-138800878D01*
X219642230Y-138800878D02*
X219594611Y-138848497D01*
X219594611Y-138848497D02*
X219546992Y-138943735D01*
X219546992Y-138943735D02*
X219546992Y-139038973D01*
X219546992Y-139038973D02*
X219594611Y-139181830D01*
X219594611Y-139181830D02*
X220166039Y-139753259D01*
X220166039Y-139753259D02*
X219546992Y-139753259D01*
X218689849Y-138753259D02*
X218880325Y-138753259D01*
X218880325Y-138753259D02*
X218975563Y-138800878D01*
X218975563Y-138800878D02*
X219023182Y-138848497D01*
X219023182Y-138848497D02*
X219118420Y-138991354D01*
X219118420Y-138991354D02*
X219166039Y-139181830D01*
X219166039Y-139181830D02*
X219166039Y-139562782D01*
X219166039Y-139562782D02*
X219118420Y-139658020D01*
X219118420Y-139658020D02*
X219070801Y-139705640D01*
X219070801Y-139705640D02*
X218975563Y-139753259D01*
X218975563Y-139753259D02*
X218785087Y-139753259D01*
X218785087Y-139753259D02*
X218689849Y-139705640D01*
X218689849Y-139705640D02*
X218642230Y-139658020D01*
X218642230Y-139658020D02*
X218594611Y-139562782D01*
X218594611Y-139562782D02*
X218594611Y-139324687D01*
X218594611Y-139324687D02*
X218642230Y-139229449D01*
X218642230Y-139229449D02*
X218689849Y-139181830D01*
X218689849Y-139181830D02*
X218785087Y-139134211D01*
X218785087Y-139134211D02*
X218975563Y-139134211D01*
X218975563Y-139134211D02*
X219070801Y-139181830D01*
X219070801Y-139181830D02*
X219118420Y-139229449D01*
X219118420Y-139229449D02*
X219166039Y-139324687D01*
X218166039Y-139372306D02*
X217404135Y-139372306D01*
X216737468Y-138753259D02*
X216642230Y-138753259D01*
X216642230Y-138753259D02*
X216546992Y-138800878D01*
X216546992Y-138800878D02*
X216499373Y-138848497D01*
X216499373Y-138848497D02*
X216451754Y-138943735D01*
X216451754Y-138943735D02*
X216404135Y-139134211D01*
X216404135Y-139134211D02*
X216404135Y-139372306D01*
X216404135Y-139372306D02*
X216451754Y-139562782D01*
X216451754Y-139562782D02*
X216499373Y-139658020D01*
X216499373Y-139658020D02*
X216546992Y-139705640D01*
X216546992Y-139705640D02*
X216642230Y-139753259D01*
X216642230Y-139753259D02*
X216737468Y-139753259D01*
X216737468Y-139753259D02*
X216832706Y-139705640D01*
X216832706Y-139705640D02*
X216880325Y-139658020D01*
X216880325Y-139658020D02*
X216927944Y-139562782D01*
X216927944Y-139562782D02*
X216975563Y-139372306D01*
X216975563Y-139372306D02*
X216975563Y-139134211D01*
X216975563Y-139134211D02*
X216927944Y-138943735D01*
X216927944Y-138943735D02*
X216880325Y-138848497D01*
X216880325Y-138848497D02*
X216832706Y-138800878D01*
X216832706Y-138800878D02*
X216737468Y-138753259D01*
X215927944Y-139753259D02*
X215737468Y-139753259D01*
X215737468Y-139753259D02*
X215642230Y-139705640D01*
X215642230Y-139705640D02*
X215594611Y-139658020D01*
X215594611Y-139658020D02*
X215499373Y-139515163D01*
X215499373Y-139515163D02*
X215451754Y-139324687D01*
X215451754Y-139324687D02*
X215451754Y-138943735D01*
X215451754Y-138943735D02*
X215499373Y-138848497D01*
X215499373Y-138848497D02*
X215546992Y-138800878D01*
X215546992Y-138800878D02*
X215642230Y-138753259D01*
X215642230Y-138753259D02*
X215832706Y-138753259D01*
X215832706Y-138753259D02*
X215927944Y-138800878D01*
X215927944Y-138800878D02*
X215975563Y-138848497D01*
X215975563Y-138848497D02*
X216023182Y-138943735D01*
X216023182Y-138943735D02*
X216023182Y-139181830D01*
X216023182Y-139181830D02*
X215975563Y-139277068D01*
X215975563Y-139277068D02*
X215927944Y-139324687D01*
X215927944Y-139324687D02*
X215832706Y-139372306D01*
X215832706Y-139372306D02*
X215642230Y-139372306D01*
X215642230Y-139372306D02*
X215546992Y-139324687D01*
X215546992Y-139324687D02*
X215499373Y-139277068D01*
X215499373Y-139277068D02*
X215451754Y-139181830D01*
X215023182Y-139372306D02*
X214261278Y-139372306D01*
X213832706Y-138848497D02*
X213785087Y-138800878D01*
X213785087Y-138800878D02*
X213689849Y-138753259D01*
X213689849Y-138753259D02*
X213451754Y-138753259D01*
X213451754Y-138753259D02*
X213356516Y-138800878D01*
X213356516Y-138800878D02*
X213308897Y-138848497D01*
X213308897Y-138848497D02*
X213261278Y-138943735D01*
X213261278Y-138943735D02*
X213261278Y-139038973D01*
X213261278Y-139038973D02*
X213308897Y-139181830D01*
X213308897Y-139181830D02*
X213880325Y-139753259D01*
X213880325Y-139753259D02*
X213261278Y-139753259D01*
X212689849Y-139181830D02*
X212785087Y-139134211D01*
X212785087Y-139134211D02*
X212832706Y-139086592D01*
X212832706Y-139086592D02*
X212880325Y-138991354D01*
X212880325Y-138991354D02*
X212880325Y-138943735D01*
X212880325Y-138943735D02*
X212832706Y-138848497D01*
X212832706Y-138848497D02*
X212785087Y-138800878D01*
X212785087Y-138800878D02*
X212689849Y-138753259D01*
X212689849Y-138753259D02*
X212499373Y-138753259D01*
X212499373Y-138753259D02*
X212404135Y-138800878D01*
X212404135Y-138800878D02*
X212356516Y-138848497D01*
X212356516Y-138848497D02*
X212308897Y-138943735D01*
X212308897Y-138943735D02*
X212308897Y-138991354D01*
X212308897Y-138991354D02*
X212356516Y-139086592D01*
X212356516Y-139086592D02*
X212404135Y-139134211D01*
X212404135Y-139134211D02*
X212499373Y-139181830D01*
X212499373Y-139181830D02*
X212689849Y-139181830D01*
X212689849Y-139181830D02*
X212785087Y-139229449D01*
X212785087Y-139229449D02*
X212832706Y-139277068D01*
X212832706Y-139277068D02*
X212880325Y-139372306D01*
X212880325Y-139372306D02*
X212880325Y-139562782D01*
X212880325Y-139562782D02*
X212832706Y-139658020D01*
X212832706Y-139658020D02*
X212785087Y-139705640D01*
X212785087Y-139705640D02*
X212689849Y-139753259D01*
X212689849Y-139753259D02*
X212499373Y-139753259D01*
X212499373Y-139753259D02*
X212404135Y-139705640D01*
X212404135Y-139705640D02*
X212356516Y-139658020D01*
X212356516Y-139658020D02*
X212308897Y-139562782D01*
X212308897Y-139562782D02*
X212308897Y-139372306D01*
X212308897Y-139372306D02*
X212356516Y-139277068D01*
X212356516Y-139277068D02*
X212404135Y-139229449D01*
X212404135Y-139229449D02*
X212499373Y-139181830D01*
X229648259Y-118633333D02*
X229172068Y-118300000D01*
X229648259Y-118061905D02*
X228648259Y-118061905D01*
X228648259Y-118061905D02*
X228648259Y-118442857D01*
X228648259Y-118442857D02*
X228695878Y-118538095D01*
X228695878Y-118538095D02*
X228743497Y-118585714D01*
X228743497Y-118585714D02*
X228838735Y-118633333D01*
X228838735Y-118633333D02*
X228981592Y-118633333D01*
X228981592Y-118633333D02*
X229076830Y-118585714D01*
X229076830Y-118585714D02*
X229124449Y-118538095D01*
X229124449Y-118538095D02*
X229172068Y-118442857D01*
X229172068Y-118442857D02*
X229172068Y-118061905D01*
X228743497Y-119014286D02*
X228695878Y-119061905D01*
X228695878Y-119061905D02*
X228648259Y-119157143D01*
X228648259Y-119157143D02*
X228648259Y-119395238D01*
X228648259Y-119395238D02*
X228695878Y-119490476D01*
X228695878Y-119490476D02*
X228743497Y-119538095D01*
X228743497Y-119538095D02*
X228838735Y-119585714D01*
X228838735Y-119585714D02*
X228933973Y-119585714D01*
X228933973Y-119585714D02*
X229076830Y-119538095D01*
X229076830Y-119538095D02*
X229648259Y-118966667D01*
X229648259Y-118966667D02*
X229648259Y-119585714D01*
X229648259Y-124033332D02*
X229172068Y-123699999D01*
X229648259Y-123461904D02*
X228648259Y-123461904D01*
X228648259Y-123461904D02*
X228648259Y-123842856D01*
X228648259Y-123842856D02*
X228695878Y-123938094D01*
X228695878Y-123938094D02*
X228743497Y-123985713D01*
X228743497Y-123985713D02*
X228838735Y-124033332D01*
X228838735Y-124033332D02*
X228981592Y-124033332D01*
X228981592Y-124033332D02*
X229076830Y-123985713D01*
X229076830Y-123985713D02*
X229124449Y-123938094D01*
X229124449Y-123938094D02*
X229172068Y-123842856D01*
X229172068Y-123842856D02*
X229172068Y-123461904D01*
X229648259Y-124985713D02*
X229648259Y-124414285D01*
X229648259Y-124699999D02*
X228648259Y-124699999D01*
X228648259Y-124699999D02*
X228791116Y-124604761D01*
X228791116Y-124604761D02*
X228886354Y-124509523D01*
X228886354Y-124509523D02*
X228933973Y-124414285D01*
X249648259Y-118633333D02*
X249172068Y-118300000D01*
X249648259Y-118061905D02*
X248648259Y-118061905D01*
X248648259Y-118061905D02*
X248648259Y-118442857D01*
X248648259Y-118442857D02*
X248695878Y-118538095D01*
X248695878Y-118538095D02*
X248743497Y-118585714D01*
X248743497Y-118585714D02*
X248838735Y-118633333D01*
X248838735Y-118633333D02*
X248981592Y-118633333D01*
X248981592Y-118633333D02*
X249076830Y-118585714D01*
X249076830Y-118585714D02*
X249124449Y-118538095D01*
X249124449Y-118538095D02*
X249172068Y-118442857D01*
X249172068Y-118442857D02*
X249172068Y-118061905D01*
X248981592Y-119490476D02*
X249648259Y-119490476D01*
X248600640Y-119252381D02*
X249314925Y-119014286D01*
X249314925Y-119014286D02*
X249314925Y-119633333D01*
X249648259Y-124033332D02*
X249172068Y-123699999D01*
X249648259Y-123461904D02*
X248648259Y-123461904D01*
X248648259Y-123461904D02*
X248648259Y-123842856D01*
X248648259Y-123842856D02*
X248695878Y-123938094D01*
X248695878Y-123938094D02*
X248743497Y-123985713D01*
X248743497Y-123985713D02*
X248838735Y-124033332D01*
X248838735Y-124033332D02*
X248981592Y-124033332D01*
X248981592Y-124033332D02*
X249076830Y-123985713D01*
X249076830Y-123985713D02*
X249124449Y-123938094D01*
X249124449Y-123938094D02*
X249172068Y-123842856D01*
X249172068Y-123842856D02*
X249172068Y-123461904D01*
X248648259Y-124366666D02*
X248648259Y-124985713D01*
X248648259Y-124985713D02*
X249029211Y-124652380D01*
X249029211Y-124652380D02*
X249029211Y-124795237D01*
X249029211Y-124795237D02*
X249076830Y-124890475D01*
X249076830Y-124890475D02*
X249124449Y-124938094D01*
X249124449Y-124938094D02*
X249219687Y-124985713D01*
X249219687Y-124985713D02*
X249457782Y-124985713D01*
X249457782Y-124985713D02*
X249553020Y-124938094D01*
X249553020Y-124938094D02*
X249600640Y-124890475D01*
X249600640Y-124890475D02*
X249648259Y-124795237D01*
X249648259Y-124795237D02*
X249648259Y-124509523D01*
X249648259Y-124509523D02*
X249600640Y-124414285D01*
X249600640Y-124414285D02*
X249553020Y-124366666D01*
X269648258Y-118633333D02*
X269172067Y-118300000D01*
X269648258Y-118061905D02*
X268648258Y-118061905D01*
X268648258Y-118061905D02*
X268648258Y-118442857D01*
X268648258Y-118442857D02*
X268695877Y-118538095D01*
X268695877Y-118538095D02*
X268743496Y-118585714D01*
X268743496Y-118585714D02*
X268838734Y-118633333D01*
X268838734Y-118633333D02*
X268981591Y-118633333D01*
X268981591Y-118633333D02*
X269076829Y-118585714D01*
X269076829Y-118585714D02*
X269124448Y-118538095D01*
X269124448Y-118538095D02*
X269172067Y-118442857D01*
X269172067Y-118442857D02*
X269172067Y-118061905D01*
X268648258Y-119490476D02*
X268648258Y-119300000D01*
X268648258Y-119300000D02*
X268695877Y-119204762D01*
X268695877Y-119204762D02*
X268743496Y-119157143D01*
X268743496Y-119157143D02*
X268886353Y-119061905D01*
X268886353Y-119061905D02*
X269076829Y-119014286D01*
X269076829Y-119014286D02*
X269457781Y-119014286D01*
X269457781Y-119014286D02*
X269553019Y-119061905D01*
X269553019Y-119061905D02*
X269600639Y-119109524D01*
X269600639Y-119109524D02*
X269648258Y-119204762D01*
X269648258Y-119204762D02*
X269648258Y-119395238D01*
X269648258Y-119395238D02*
X269600639Y-119490476D01*
X269600639Y-119490476D02*
X269553019Y-119538095D01*
X269553019Y-119538095D02*
X269457781Y-119585714D01*
X269457781Y-119585714D02*
X269219686Y-119585714D01*
X269219686Y-119585714D02*
X269124448Y-119538095D01*
X269124448Y-119538095D02*
X269076829Y-119490476D01*
X269076829Y-119490476D02*
X269029210Y-119395238D01*
X269029210Y-119395238D02*
X269029210Y-119204762D01*
X269029210Y-119204762D02*
X269076829Y-119109524D01*
X269076829Y-119109524D02*
X269124448Y-119061905D01*
X269124448Y-119061905D02*
X269219686Y-119014286D01*
X269648258Y-124033332D02*
X269172067Y-123699999D01*
X269648258Y-123461904D02*
X268648258Y-123461904D01*
X268648258Y-123461904D02*
X268648258Y-123842856D01*
X268648258Y-123842856D02*
X268695877Y-123938094D01*
X268695877Y-123938094D02*
X268743496Y-123985713D01*
X268743496Y-123985713D02*
X268838734Y-124033332D01*
X268838734Y-124033332D02*
X268981591Y-124033332D01*
X268981591Y-124033332D02*
X269076829Y-123985713D01*
X269076829Y-123985713D02*
X269124448Y-123938094D01*
X269124448Y-123938094D02*
X269172067Y-123842856D01*
X269172067Y-123842856D02*
X269172067Y-123461904D01*
X268648258Y-124938094D02*
X268648258Y-124461904D01*
X268648258Y-124461904D02*
X269124448Y-124414285D01*
X269124448Y-124414285D02*
X269076829Y-124461904D01*
X269076829Y-124461904D02*
X269029210Y-124557142D01*
X269029210Y-124557142D02*
X269029210Y-124795237D01*
X269029210Y-124795237D02*
X269076829Y-124890475D01*
X269076829Y-124890475D02*
X269124448Y-124938094D01*
X269124448Y-124938094D02*
X269219686Y-124985713D01*
X269219686Y-124985713D02*
X269457781Y-124985713D01*
X269457781Y-124985713D02*
X269553019Y-124938094D01*
X269553019Y-124938094D02*
X269600639Y-124890475D01*
X269600639Y-124890475D02*
X269648258Y-124795237D01*
X269648258Y-124795237D02*
X269648258Y-124557142D01*
X269648258Y-124557142D02*
X269600639Y-124461904D01*
X269600639Y-124461904D02*
X269553019Y-124414285D01*
X287648259Y-109157142D02*
X287172068Y-108823809D01*
X287648259Y-108585714D02*
X286648259Y-108585714D01*
X286648259Y-108585714D02*
X286648259Y-108966666D01*
X286648259Y-108966666D02*
X286695878Y-109061904D01*
X286695878Y-109061904D02*
X286743497Y-109109523D01*
X286743497Y-109109523D02*
X286838735Y-109157142D01*
X286838735Y-109157142D02*
X286981592Y-109157142D01*
X286981592Y-109157142D02*
X287076830Y-109109523D01*
X287076830Y-109109523D02*
X287124449Y-109061904D01*
X287124449Y-109061904D02*
X287172068Y-108966666D01*
X287172068Y-108966666D02*
X287172068Y-108585714D01*
X287648259Y-110109523D02*
X287648259Y-109538095D01*
X287648259Y-109823809D02*
X286648259Y-109823809D01*
X286648259Y-109823809D02*
X286791116Y-109728571D01*
X286791116Y-109728571D02*
X286886354Y-109633333D01*
X286886354Y-109633333D02*
X286933973Y-109538095D01*
X286648259Y-110728571D02*
X286648259Y-110823809D01*
X286648259Y-110823809D02*
X286695878Y-110919047D01*
X286695878Y-110919047D02*
X286743497Y-110966666D01*
X286743497Y-110966666D02*
X286838735Y-111014285D01*
X286838735Y-111014285D02*
X287029211Y-111061904D01*
X287029211Y-111061904D02*
X287267306Y-111061904D01*
X287267306Y-111061904D02*
X287457782Y-111014285D01*
X287457782Y-111014285D02*
X287553020Y-110966666D01*
X287553020Y-110966666D02*
X287600640Y-110919047D01*
X287600640Y-110919047D02*
X287648259Y-110823809D01*
X287648259Y-110823809D02*
X287648259Y-110728571D01*
X287648259Y-110728571D02*
X287600640Y-110633333D01*
X287600640Y-110633333D02*
X287553020Y-110585714D01*
X287553020Y-110585714D02*
X287457782Y-110538095D01*
X287457782Y-110538095D02*
X287267306Y-110490476D01*
X287267306Y-110490476D02*
X287029211Y-110490476D01*
X287029211Y-110490476D02*
X286838735Y-110538095D01*
X286838735Y-110538095D02*
X286743497Y-110585714D01*
X286743497Y-110585714D02*
X286695878Y-110633333D01*
X286695878Y-110633333D02*
X286648259Y-110728571D01*
X287648259Y-115033332D02*
X287172068Y-114699999D01*
X287648259Y-114461904D02*
X286648259Y-114461904D01*
X286648259Y-114461904D02*
X286648259Y-114842856D01*
X286648259Y-114842856D02*
X286695878Y-114938094D01*
X286695878Y-114938094D02*
X286743497Y-114985713D01*
X286743497Y-114985713D02*
X286838735Y-115033332D01*
X286838735Y-115033332D02*
X286981592Y-115033332D01*
X286981592Y-115033332D02*
X287076830Y-114985713D01*
X287076830Y-114985713D02*
X287124449Y-114938094D01*
X287124449Y-114938094D02*
X287172068Y-114842856D01*
X287172068Y-114842856D02*
X287172068Y-114461904D01*
X287648259Y-115509523D02*
X287648259Y-115699999D01*
X287648259Y-115699999D02*
X287600640Y-115795237D01*
X287600640Y-115795237D02*
X287553020Y-115842856D01*
X287553020Y-115842856D02*
X287410163Y-115938094D01*
X287410163Y-115938094D02*
X287219687Y-115985713D01*
X287219687Y-115985713D02*
X286838735Y-115985713D01*
X286838735Y-115985713D02*
X286743497Y-115938094D01*
X286743497Y-115938094D02*
X286695878Y-115890475D01*
X286695878Y-115890475D02*
X286648259Y-115795237D01*
X286648259Y-115795237D02*
X286648259Y-115604761D01*
X286648259Y-115604761D02*
X286695878Y-115509523D01*
X286695878Y-115509523D02*
X286743497Y-115461904D01*
X286743497Y-115461904D02*
X286838735Y-115414285D01*
X286838735Y-115414285D02*
X287076830Y-115414285D01*
X287076830Y-115414285D02*
X287172068Y-115461904D01*
X287172068Y-115461904D02*
X287219687Y-115509523D01*
X287219687Y-115509523D02*
X287267306Y-115604761D01*
X287267306Y-115604761D02*
X287267306Y-115795237D01*
X287267306Y-115795237D02*
X287219687Y-115890475D01*
X287219687Y-115890475D02*
X287172068Y-115938094D01*
X287172068Y-115938094D02*
X287076830Y-115985713D01*
X287648259Y-127633333D02*
X287172068Y-127300000D01*
X287648259Y-127061905D02*
X286648259Y-127061905D01*
X286648259Y-127061905D02*
X286648259Y-127442857D01*
X286648259Y-127442857D02*
X286695878Y-127538095D01*
X286695878Y-127538095D02*
X286743497Y-127585714D01*
X286743497Y-127585714D02*
X286838735Y-127633333D01*
X286838735Y-127633333D02*
X286981592Y-127633333D01*
X286981592Y-127633333D02*
X287076830Y-127585714D01*
X287076830Y-127585714D02*
X287124449Y-127538095D01*
X287124449Y-127538095D02*
X287172068Y-127442857D01*
X287172068Y-127442857D02*
X287172068Y-127061905D01*
X287076830Y-128204762D02*
X287029211Y-128109524D01*
X287029211Y-128109524D02*
X286981592Y-128061905D01*
X286981592Y-128061905D02*
X286886354Y-128014286D01*
X286886354Y-128014286D02*
X286838735Y-128014286D01*
X286838735Y-128014286D02*
X286743497Y-128061905D01*
X286743497Y-128061905D02*
X286695878Y-128109524D01*
X286695878Y-128109524D02*
X286648259Y-128204762D01*
X286648259Y-128204762D02*
X286648259Y-128395238D01*
X286648259Y-128395238D02*
X286695878Y-128490476D01*
X286695878Y-128490476D02*
X286743497Y-128538095D01*
X286743497Y-128538095D02*
X286838735Y-128585714D01*
X286838735Y-128585714D02*
X286886354Y-128585714D01*
X286886354Y-128585714D02*
X286981592Y-128538095D01*
X286981592Y-128538095D02*
X287029211Y-128490476D01*
X287029211Y-128490476D02*
X287076830Y-128395238D01*
X287076830Y-128395238D02*
X287076830Y-128204762D01*
X287076830Y-128204762D02*
X287124449Y-128109524D01*
X287124449Y-128109524D02*
X287172068Y-128061905D01*
X287172068Y-128061905D02*
X287267306Y-128014286D01*
X287267306Y-128014286D02*
X287457782Y-128014286D01*
X287457782Y-128014286D02*
X287553020Y-128061905D01*
X287553020Y-128061905D02*
X287600640Y-128109524D01*
X287600640Y-128109524D02*
X287648259Y-128204762D01*
X287648259Y-128204762D02*
X287648259Y-128395238D01*
X287648259Y-128395238D02*
X287600640Y-128490476D01*
X287600640Y-128490476D02*
X287553020Y-128538095D01*
X287553020Y-128538095D02*
X287457782Y-128585714D01*
X287457782Y-128585714D02*
X287267306Y-128585714D01*
X287267306Y-128585714D02*
X287172068Y-128538095D01*
X287172068Y-128538095D02*
X287124449Y-128490476D01*
X287124449Y-128490476D02*
X287076830Y-128395238D01*
X287648259Y-133033331D02*
X287172068Y-132699998D01*
X287648259Y-132461903D02*
X286648259Y-132461903D01*
X286648259Y-132461903D02*
X286648259Y-132842855D01*
X286648259Y-132842855D02*
X286695878Y-132938093D01*
X286695878Y-132938093D02*
X286743497Y-132985712D01*
X286743497Y-132985712D02*
X286838735Y-133033331D01*
X286838735Y-133033331D02*
X286981592Y-133033331D01*
X286981592Y-133033331D02*
X287076830Y-132985712D01*
X287076830Y-132985712D02*
X287124449Y-132938093D01*
X287124449Y-132938093D02*
X287172068Y-132842855D01*
X287172068Y-132842855D02*
X287172068Y-132461903D01*
X286648259Y-133366665D02*
X286648259Y-134033331D01*
X286648259Y-134033331D02*
X287648259Y-133604760D01*
X296248259Y-115657142D02*
X295772068Y-115323809D01*
X296248259Y-115085714D02*
X295248259Y-115085714D01*
X295248259Y-115085714D02*
X295248259Y-115466666D01*
X295248259Y-115466666D02*
X295295878Y-115561904D01*
X295295878Y-115561904D02*
X295343497Y-115609523D01*
X295343497Y-115609523D02*
X295438735Y-115657142D01*
X295438735Y-115657142D02*
X295581592Y-115657142D01*
X295581592Y-115657142D02*
X295676830Y-115609523D01*
X295676830Y-115609523D02*
X295724449Y-115561904D01*
X295724449Y-115561904D02*
X295772068Y-115466666D01*
X295772068Y-115466666D02*
X295772068Y-115085714D01*
X296248259Y-116609523D02*
X296248259Y-116038095D01*
X296248259Y-116323809D02*
X295248259Y-116323809D01*
X295248259Y-116323809D02*
X295391116Y-116228571D01*
X295391116Y-116228571D02*
X295486354Y-116133333D01*
X295486354Y-116133333D02*
X295533973Y-116038095D01*
X295343497Y-116990476D02*
X295295878Y-117038095D01*
X295295878Y-117038095D02*
X295248259Y-117133333D01*
X295248259Y-117133333D02*
X295248259Y-117371428D01*
X295248259Y-117371428D02*
X295295878Y-117466666D01*
X295295878Y-117466666D02*
X295343497Y-117514285D01*
X295343497Y-117514285D02*
X295438735Y-117561904D01*
X295438735Y-117561904D02*
X295533973Y-117561904D01*
X295533973Y-117561904D02*
X295676830Y-117514285D01*
X295676830Y-117514285D02*
X296248259Y-116942857D01*
X296248259Y-116942857D02*
X296248259Y-117561904D01*
X296248259Y-121057141D02*
X295772068Y-120723808D01*
X296248259Y-120485713D02*
X295248259Y-120485713D01*
X295248259Y-120485713D02*
X295248259Y-120866665D01*
X295248259Y-120866665D02*
X295295878Y-120961903D01*
X295295878Y-120961903D02*
X295343497Y-121009522D01*
X295343497Y-121009522D02*
X295438735Y-121057141D01*
X295438735Y-121057141D02*
X295581592Y-121057141D01*
X295581592Y-121057141D02*
X295676830Y-121009522D01*
X295676830Y-121009522D02*
X295724449Y-120961903D01*
X295724449Y-120961903D02*
X295772068Y-120866665D01*
X295772068Y-120866665D02*
X295772068Y-120485713D01*
X296248259Y-122009522D02*
X296248259Y-121438094D01*
X296248259Y-121723808D02*
X295248259Y-121723808D01*
X295248259Y-121723808D02*
X295391116Y-121628570D01*
X295391116Y-121628570D02*
X295486354Y-121533332D01*
X295486354Y-121533332D02*
X295533973Y-121438094D01*
X296248259Y-122961903D02*
X296248259Y-122390475D01*
X296248259Y-122676189D02*
X295248259Y-122676189D01*
X295248259Y-122676189D02*
X295391116Y-122580951D01*
X295391116Y-122580951D02*
X295486354Y-122485713D01*
X295486354Y-122485713D02*
X295533973Y-122390475D01*
D12*
%TO.C,R8*%
X284665000Y-127572936D02*
X284665000Y-128027064D01*
X286135000Y-127572936D02*
X286135000Y-128027064D01*
%TO.C,C9*%
X270938748Y-102795000D02*
X271461252Y-102795000D01*
X270938748Y-104265000D02*
X271461252Y-104265000D01*
%TO.C,R6*%
X266664999Y-118572936D02*
X266664999Y-119027064D01*
X268134999Y-118572936D02*
X268134999Y-119027064D01*
%TO.C,J5*%
X342620000Y-139920000D02*
X342620000Y-141300000D01*
X344000000Y-139920000D02*
X342620000Y-139920000D01*
X345270000Y-139920000D02*
X353000000Y-139920000D01*
%TO.C,R7*%
X284665000Y-132972935D02*
X284665000Y-133427063D01*
X286135000Y-132972935D02*
X286135000Y-133427063D01*
%TO.C,R5*%
X266664999Y-123972936D02*
X266664999Y-124427064D01*
X268134999Y-123972936D02*
X268134999Y-124427064D01*
%TO.C,C7*%
X256765000Y-108461252D02*
X256765000Y-107938748D01*
X258235000Y-108461252D02*
X258235000Y-107938748D01*
%TO.C,R4*%
X246665000Y-118572936D02*
X246665000Y-119027064D01*
X248135000Y-118572936D02*
X248135000Y-119027064D01*
%TO.C,C3*%
X264961252Y-120765000D02*
X264438748Y-120765000D01*
X264961252Y-122235000D02*
X264438748Y-122235000D01*
%TO.C,C2*%
X244961252Y-120765000D02*
X244438748Y-120765000D01*
X244961252Y-122235000D02*
X244438748Y-122235000D01*
%TO.C,R9*%
X284665000Y-114972936D02*
X284665000Y-115427064D01*
X286135000Y-114972936D02*
X286135000Y-115427064D01*
%TO.C,C4*%
X282961252Y-129765000D02*
X282438748Y-129765000D01*
X282961252Y-131235000D02*
X282438748Y-131235000D01*
%TO.C,C6*%
X291561252Y-118265000D02*
X291038748Y-118265000D01*
X291561252Y-119735000D02*
X291038748Y-119735000D01*
%TO.C,J4*%
X331590000Y-108690000D02*
X331590000Y-110070000D01*
X332970000Y-108690000D02*
X331590000Y-108690000D01*
%TO.C,R2*%
X226665000Y-118572936D02*
X226665000Y-119027064D01*
X228135000Y-118572936D02*
X228135000Y-119027064D01*
%TO.C,R10*%
X284665000Y-109572936D02*
X284665000Y-110027064D01*
X286135000Y-109572936D02*
X286135000Y-110027064D01*
%TO.C,C8*%
X237265000Y-108261252D02*
X237265000Y-107738748D01*
X238735000Y-108261252D02*
X238735000Y-107738748D01*
%TO.C,R3*%
X246665000Y-123972936D02*
X246665000Y-124427064D01*
X248135000Y-123972936D02*
X248135000Y-124427064D01*
%TO.C,R1*%
X226665000Y-123972936D02*
X226665000Y-124427064D01*
X228135000Y-123972936D02*
X228135000Y-124427064D01*
%TO.C,C1*%
X224961252Y-120765000D02*
X224438748Y-120765000D01*
X224961252Y-122235000D02*
X224438748Y-122235000D01*
%TO.C,U1*%
X258940000Y-103940000D02*
X258940000Y-108060000D01*
X258940000Y-108060000D02*
X258995000Y-108060000D01*
X258995000Y-103940000D02*
X258940000Y-103940000D01*
X269005000Y-108060000D02*
X269060000Y-108060000D01*
X269060000Y-103940000D02*
X269005000Y-103940000D01*
X269060000Y-108060000D02*
X269060000Y-103940000D01*
X269340000Y-108840000D02*
X269010000Y-108600000D01*
X269340000Y-108360000D01*
X269340000Y-108840000D01*
G36*
X269340000Y-108840000D02*
G01*
X269010000Y-108600000D01*
X269340000Y-108360000D01*
X269340000Y-108840000D01*
G37*
%TO.C,R12*%
X293265000Y-116072936D02*
X293265000Y-116527064D01*
X294735000Y-116072936D02*
X294735000Y-116527064D01*
%TO.C,J2*%
X304780000Y-132390000D02*
X310420000Y-132390000D01*
X310420000Y-110610000D01*
X304780000Y-110610000D01*
X304780000Y-132390000D01*
X302750000Y-129935000D02*
X301850000Y-129935000D01*
X302300000Y-129355000D01*
X302750000Y-129935000D01*
G36*
X302750000Y-129935000D02*
G01*
X301850000Y-129935000D01*
X302300000Y-129355000D01*
X302750000Y-129935000D01*
G37*
%TO.C,R11*%
X293265000Y-121472936D02*
X293265000Y-121927064D01*
X294735000Y-121472936D02*
X294735000Y-121927064D01*
%TO.C,C5*%
X282961252Y-111765000D02*
X282438748Y-111765000D01*
X282961252Y-113235000D02*
X282438748Y-113235000D01*
%TD*%
M02*
