%TF.GenerationSoftware,KiCad,Pcbnew,9.0.9-9.0.9~ubuntu24.04.1*%
%TF.CreationDate,2026-09-29T02:46:07+00:00*%
%TF.ProjectId,key-board-rh,6b65792d-626f-4617-9264-2d72682e6b69,A*%
%TF.SameCoordinates,Original*%
%TF.FileFunction,Paste,Bot*%
%TF.FilePolarity,Positive*%
%FSLAX46Y46*%
G04 Gerber Fmt 4.6, Leading zero omitted, Abs format (unit mm)*
G04 Created by KiCad (PCBNEW 9.0.9-9.0.9~ubuntu24.04.1) date 2026-09-29 02:46:07*
%MOMM*%
%LPD*%
G01*
G04 APERTURE LIST*
G04 Aperture macros list*
%AMRoundRect*
0 Rectangle with rounded corners*
0 $1 Rounding radius*
0 $2 $3 $4 $5 $6 $7 $8 $9 X,Y pos of 4 corners*
0 Add a 4 corners polygon primitive as box body*
4,1,4,$2,$3,$4,$5,$6,$7,$8,$9,$2,$3,0*
0 Add four circle primitives for the rounded corners*
1,1,$1+$1,$2,$3*
1,1,$1+$1,$4,$5*
1,1,$1+$1,$6,$7*
1,1,$1+$1,$8,$9*
0 Add four rect primitives between the rounded corners*
20,1,$1+$1,$2,$3,$4,$5,0*
20,1,$1+$1,$4,$5,$6,$7,0*
20,1,$1+$1,$6,$7,$8,$9,0*
20,1,$1+$1,$8,$9,$2,$3,0*%
G04 Aperture macros list end*
%ADD10RoundRect,0.250000X0.250000X0.475000X-0.250000X0.475000X-0.250000X-0.475000X0.250000X-0.475000X0*%
%ADD11RoundRect,0.250000X-0.450000X0.262500X-0.450000X-0.262500X0.450000X-0.262500X0.450000X0.262500X0*%
%ADD12RoundRect,0.250000X0.475000X-0.250000X0.475000X0.250000X-0.475000X0.250000X-0.475000X-0.250000X0*%
%ADD13RoundRect,0.150000X0.150000X-0.825000X0.150000X0.825000X-0.150000X0.825000X-0.150000X-0.825000X0*%
G04 APERTURE END LIST*
D10*
%TO.C,C5*%
X284250000Y-112500000D03*
X282350000Y-112500000D03*
%TD*%
D11*
%TO.C,R3*%
X248000000Y-123287500D03*
X248000000Y-125112500D03*
%TD*%
%TO.C,R1*%
X228000000Y-123287500D03*
X228000000Y-125112500D03*
%TD*%
D10*
%TO.C,C1*%
X226250000Y-121500000D03*
X224350000Y-121500000D03*
%TD*%
D11*
%TO.C,R9*%
X286000000Y-114287500D03*
X286000000Y-116112500D03*
%TD*%
D12*
%TO.C,C8*%
X227500000Y-108950000D03*
X227500000Y-107050000D03*
%TD*%
D11*
%TO.C,R6*%
X268000000Y-117887500D03*
X268000000Y-119712500D03*
%TD*%
D10*
%TO.C,C6*%
X302250000Y-130500000D03*
X300350000Y-130500000D03*
%TD*%
%TO.C,C4*%
X284250000Y-130500000D03*
X282350000Y-130500000D03*
%TD*%
D11*
%TO.C,R2*%
X228000000Y-117887500D03*
X228000000Y-119712500D03*
%TD*%
%TO.C,R4*%
X248000000Y-117887500D03*
X248000000Y-119712500D03*
%TD*%
D10*
%TO.C,C3*%
X266250000Y-121500000D03*
X264350000Y-121500000D03*
%TD*%
D11*
%TO.C,R8*%
X286000000Y-126887500D03*
X286000000Y-128712500D03*
%TD*%
D10*
%TO.C,C2*%
X246250000Y-121500000D03*
X244350000Y-121500000D03*
%TD*%
D12*
%TO.C,C7*%
X252000000Y-109150000D03*
X252000000Y-107250000D03*
%TD*%
D11*
%TO.C,R5*%
X268000000Y-123287500D03*
X268000000Y-125112500D03*
%TD*%
%TO.C,R12*%
X304000000Y-126887500D03*
X304000000Y-128712500D03*
%TD*%
%TO.C,R11*%
X304000000Y-132287499D03*
X304000000Y-134112499D03*
%TD*%
D13*
%TO.C,U1*%
X262945000Y-108475000D03*
X261675000Y-108475000D03*
X260405000Y-108475000D03*
X259135000Y-108475000D03*
X257865000Y-108475000D03*
X256595000Y-108475000D03*
X255325000Y-108475000D03*
X254055000Y-108475000D03*
X254055000Y-103525000D03*
X255325000Y-103525000D03*
X256595000Y-103525000D03*
X257865000Y-103525000D03*
X259135000Y-103525000D03*
X260405000Y-103525000D03*
X261675000Y-103525000D03*
X262945000Y-103525000D03*
%TD*%
D11*
%TO.C,R10*%
X286000000Y-108887500D03*
X286000000Y-110712500D03*
%TD*%
%TO.C,R7*%
X286000000Y-132287499D03*
X286000000Y-134112499D03*
%TD*%
M02*
