%TF.GenerationSoftware,KiCad,Pcbnew,9.0.9-9.0.9~ubuntu24.04.1*%
%TF.CreationDate,2026-09-28T15:46:40+00:00*%
%TF.ProjectId,key-board-rh,6b65792d-626f-4617-9264-2d72682e6b69,A*%
%TF.SameCoordinates,Original*%
%TF.FileFunction,Copper,L1,Top*%
%TF.FilePolarity,Positive*%
%FSLAX46Y46*%
G04 Gerber Fmt 4.6, Leading zero omitted, Abs format (unit mm)*
G04 Created by KiCad (PCBNEW 9.0.9-9.0.9~ubuntu24.04.1) date 2026-09-28 15:46:40*
%MOMM*%
%LPD*%
G01*
G04 APERTURE LIST*
%TA.AperFunction,ComponentPad*%
%ADD10C,2.000000*%
%TD*%
%TA.AperFunction,ComponentPad*%
%ADD11R,1.500000X1.070000*%
%TD*%
%TA.AperFunction,ComponentPad*%
%ADD12O,1.500000X1.070000*%
%TD*%
%TA.AperFunction,ViaPad*%
%ADD13C,0.700000*%
%TD*%
%TA.AperFunction,Conductor*%
%ADD14C,0.250000*%
%TD*%
%TA.AperFunction,Conductor*%
%ADD15C,0.400000*%
%TD*%
G04 APERTURE END LIST*
D10*
%TO.P,SW3,1*%
%TO.N,/RH3/SWITCH_LEG*%
X253800000Y-126200000D03*
%TO.P,SW3,2*%
%TO.N,GND_CHAIN*%
X260800000Y-127250000D03*
%TD*%
%TO.P,SW5,1*%
%TO.N,/RH5/SWITCH_LEG*%
X271800000Y-117200000D03*
%TO.P,SW5,2*%
%TO.N,GND_CHAIN*%
X278800000Y-118250000D03*
%TD*%
%TO.P,SW4,1*%
%TO.N,/RH4/SWITCH_LEG*%
X271800000Y-135200000D03*
%TO.P,SW4,2*%
%TO.N,GND_CHAIN*%
X278800000Y-136250000D03*
%TD*%
%TO.P,SW6,1*%
%TO.N,/RH6/SWITCH_LEG*%
X289800000Y-135200000D03*
%TO.P,SW6,2*%
%TO.N,GND_CHAIN*%
X296800000Y-136250000D03*
%TD*%
%TO.P,SW2,1*%
%TO.N,/RH2/SWITCH_LEG*%
X233800000Y-126200000D03*
%TO.P,SW2,2*%
%TO.N,GND_CHAIN*%
X240800000Y-127250000D03*
%TD*%
%TO.P,SW1,1*%
%TO.N,/RH1/SWITCH_LEG*%
X213800000Y-126200000D03*
%TO.P,SW1,2*%
%TO.N,GND_CHAIN*%
X220800000Y-127250000D03*
%TD*%
D11*
%TO.P,J1,1*%
%TO.N,unconnected-(J1-Pin_1-Pad1)*%
X231625000Y-111160000D03*
D12*
%TO.P,J1,2*%
%TO.N,unconnected-(J1-Pin_2-Pad2)*%
X233325000Y-111160000D03*
%TO.P,J1,3*%
%TO.N,V3V3_CHAIN_RH*%
X231625000Y-109890000D03*
%TO.P,J1,4*%
%TO.N,GND_CHAIN*%
X233325000Y-109890000D03*
%TO.P,J1,5*%
%TO.N,/HOP_RH_RT*%
X231625000Y-108620000D03*
%TO.P,J1,6*%
%TO.N,GND_CHAIN*%
X233325000Y-108620000D03*
%TO.P,J1,7*%
%TO.N,/HOP_LT_RH*%
X231625000Y-107350000D03*
%TO.P,J1,8*%
%TO.N,GND_CHAIN*%
X233325000Y-107350000D03*
%TO.P,J1,9*%
%TO.N,/CHAIN_SHLD*%
X231625000Y-106080000D03*
%TO.P,J1,10*%
%TO.N,GND_CHAIN*%
X233325000Y-106080000D03*
%TO.P,J1,11*%
%TO.N,/CHAIN_SCK*%
X231625000Y-104810000D03*
%TO.P,J1,12*%
%TO.N,GND_CHAIN*%
X233325000Y-104810000D03*
%TD*%
D13*
%TO.N,/CHAIN_SCK*%
X261800000Y-110500000D03*
X261800000Y-115100000D03*
%TO.N,/CHAIN_SHLD*%
X264200000Y-103100000D03*
%TO.N,/HOP_LT_RH*%
X250000000Y-112100000D03*
X252399999Y-112500000D03*
%TO.N,/HOP_RH_RT*%
X252399999Y-113900000D03*
X229399999Y-108300000D03*
X248600000Y-113500000D03*
%TO.N,/KEY_RH1*%
X256600000Y-110700000D03*
X239799999Y-110700000D03*
%TO.N,/KEY_RH4*%
X281400000Y-107700000D03*
X260200000Y-106900000D03*
%TO.N,/KEY_RH5*%
X261399999Y-106700000D03*
X284200000Y-106700000D03*
%TO.N,/KEY_RH6*%
X260399999Y-105700000D03*
X302200000Y-105700000D03*
%TO.N,/RH1/SWITCH_LEG*%
X227000000Y-125700000D03*
%TO.N,/RH2/SWITCH_LEG*%
X247000000Y-125700000D03*
%TO.N,/RH3/SWITCH_LEG*%
X267000000Y-125700000D03*
%TO.N,/RH4/SWITCH_LEG*%
X284800000Y-134500000D03*
%TO.N,/RH5/SWITCH_LEG*%
X284800000Y-116500000D03*
%TO.N,/RH6/SWITCH_LEG*%
X302800000Y-134500000D03*
%TO.N,GND_CHAIN*%
X263000000Y-118700000D03*
X263399999Y-121900000D03*
X243399999Y-121900000D03*
X244799999Y-127700000D03*
X299000000Y-127900000D03*
X281400000Y-130900000D03*
X260600000Y-114900000D03*
X229000000Y-107100000D03*
X223399999Y-121900000D03*
X244200000Y-109700000D03*
%TO.N,V3V3_CHAIN_RH*%
X263000000Y-101900000D03*
X246799999Y-117500000D03*
X303600000Y-125700000D03*
X285400000Y-107900000D03*
X231600000Y-117500000D03*
X256800000Y-101900000D03*
X287600000Y-125700000D03*
X268399999Y-108700000D03*
%TD*%
D14*
%TO.N,/CHAIN_SCK*%
X251000000Y-103700000D02*
X232399999Y-103700000D01*
X261800000Y-110500000D02*
X261800000Y-115100000D01*
X257800000Y-110500000D02*
X251000000Y-103700000D01*
X232399999Y-103700000D02*
X231600000Y-104500000D01*
X261800000Y-110500000D02*
X257800000Y-110500000D01*
%TO.N,/CHAIN_SHLD*%
X230399999Y-104100000D02*
X230399999Y-105500000D01*
X264200000Y-103100000D02*
X231399999Y-103100000D01*
X230399999Y-105500000D02*
X230799999Y-105900000D01*
X230799999Y-105900000D02*
X231000000Y-105900000D01*
X231399999Y-103100000D02*
X230399999Y-104100000D01*
%TO.N,/HOP_LT_RH*%
X230399999Y-107900000D02*
X230799999Y-107500000D01*
X252399999Y-112500000D02*
X250000000Y-112500000D01*
X250000000Y-112500000D02*
X230799999Y-112500000D01*
X230799999Y-112500000D02*
X230399999Y-112100000D01*
X230399999Y-112100000D02*
X230399999Y-107900000D01*
X230799999Y-107500000D02*
X231000000Y-107500000D01*
X250000000Y-112500000D02*
X250000000Y-112100000D01*
%TO.N,/HOP_RH_RT*%
X248600000Y-113500000D02*
X230600000Y-113500000D01*
X249000000Y-113900000D02*
X248600000Y-113500000D01*
X230600000Y-113500000D02*
X229399999Y-112300000D01*
X229399999Y-112300000D02*
X229399999Y-108300000D01*
X252399999Y-113900000D02*
X249000000Y-113900000D01*
%TO.N,/KEY_RH1*%
X239799999Y-110700000D02*
X256600000Y-110700000D01*
%TO.N,/KEY_RH4*%
X261000000Y-107700000D02*
X260200000Y-106900000D01*
X281400000Y-107700000D02*
X261000000Y-107700000D01*
%TO.N,/KEY_RH5*%
X284200000Y-106700000D02*
X261399999Y-106700000D01*
%TO.N,/KEY_RH6*%
X302200000Y-105700000D02*
X260399999Y-105700000D01*
%TO.N,/RH1/SWITCH_LEG*%
X214600000Y-125700000D02*
X227000000Y-125700000D01*
%TO.N,/RH2/SWITCH_LEG*%
X234600000Y-125700000D02*
X247000000Y-125700000D01*
%TO.N,/RH3/SWITCH_LEG*%
X254600000Y-125700000D02*
X267000000Y-125700000D01*
%TO.N,/RH4/SWITCH_LEG*%
X284800000Y-134500000D02*
X272400000Y-134500000D01*
%TO.N,/RH5/SWITCH_LEG*%
X284800000Y-116500000D02*
X272400000Y-116500000D01*
%TO.N,/RH6/SWITCH_LEG*%
X302800000Y-134500000D02*
X290400000Y-134500000D01*
%TO.N,GND_CHAIN*%
X234200000Y-109700000D02*
X234000000Y-109900000D01*
X263000000Y-118700000D02*
X278000000Y-118700000D01*
X244200000Y-109700000D02*
X234200000Y-109700000D01*
X279600000Y-136700000D02*
X296000000Y-136700000D01*
X260000000Y-127700000D02*
X241600000Y-127700000D01*
D15*
%TO.N,V3V3_CHAIN_RH*%
X263000000Y-101900000D02*
X256800000Y-101900000D01*
X246799999Y-117500000D02*
X231600000Y-117500000D01*
X284600000Y-108700000D02*
X285400000Y-107900000D01*
X287600000Y-125700000D02*
X303600000Y-125700000D01*
X268399999Y-108700000D02*
X284600000Y-108700000D01*
%TD*%
%TA.AperFunction,Conductor*%
%TO.N,GND_CHAIN*%
G36*
X310293037Y-100800883D02*
G01*
X310399145Y-100809249D01*
X310418318Y-100812284D01*
X310418324Y-100812286D01*
X310506455Y-100833426D01*
X310524944Y-100839428D01*
X310608280Y-100873912D01*
X310625592Y-100882722D01*
X310702307Y-100929667D01*
X310718235Y-100941248D01*
X310786464Y-100999672D01*
X310800056Y-101013273D01*
X310858826Y-101082011D01*
X310870298Y-101097793D01*
X310917284Y-101174461D01*
X310926137Y-101191843D01*
X310960771Y-101275542D01*
X310966701Y-101293734D01*
X310987875Y-101381059D01*
X310991004Y-101400792D01*
X310999137Y-101506782D01*
X310999500Y-101516269D01*
X310999500Y-141483732D01*
X310999137Y-141493218D01*
X310991003Y-141599237D01*
X310987874Y-141618971D01*
X310966707Y-141706268D01*
X310960773Y-141724469D01*
X310926145Y-141808133D01*
X310917294Y-141825509D01*
X310870286Y-141902208D01*
X310858820Y-141917981D01*
X310800047Y-141986738D01*
X310786448Y-142000350D01*
X310718235Y-142058768D01*
X310702295Y-142070357D01*
X310625558Y-142117310D01*
X310608278Y-142126106D01*
X310524992Y-142160592D01*
X310506433Y-142166615D01*
X310418350Y-142187709D01*
X310399226Y-142190735D01*
X310293024Y-142199116D01*
X310283269Y-142199500D01*
X206216731Y-142199500D01*
X206206977Y-142199116D01*
X206200517Y-142198606D01*
X206100775Y-142190735D01*
X206081651Y-142187709D01*
X205993566Y-142166614D01*
X205975007Y-142160591D01*
X205891716Y-142126103D01*
X205874436Y-142117307D01*
X205797700Y-142070355D01*
X205781761Y-142058767D01*
X205713560Y-142000361D01*
X205699959Y-141986747D01*
X205641176Y-141917977D01*
X205629711Y-141902205D01*
X205582704Y-141825508D01*
X205573853Y-141808133D01*
X205539221Y-141724458D01*
X205533293Y-141706276D01*
X205512123Y-141618965D01*
X205508995Y-141599240D01*
X205500863Y-141493218D01*
X205500500Y-141483735D01*
X205500500Y-139099999D01*
X205890000Y-139099999D01*
X205942070Y-139628692D01*
X206096287Y-140137076D01*
X206346713Y-140605589D01*
X206346717Y-140605596D01*
X206683739Y-141016259D01*
X207094402Y-141353281D01*
X207094409Y-141353285D01*
X207562922Y-141603711D01*
X207562924Y-141603711D01*
X207562927Y-141603713D01*
X208071305Y-141757928D01*
X208071304Y-141757928D01*
X208123376Y-141763056D01*
X208600000Y-141810000D01*
X209128694Y-141757928D01*
X209637072Y-141603713D01*
X210105595Y-141353282D01*
X210516259Y-141016259D01*
X210853282Y-140605595D01*
X211103713Y-140137072D01*
X211257928Y-139628694D01*
X211310000Y-139100000D01*
X305190000Y-139100000D01*
X305242070Y-139628692D01*
X305396287Y-140137076D01*
X305646713Y-140605589D01*
X305646717Y-140605596D01*
X305983739Y-141016259D01*
X306394402Y-141353281D01*
X306394409Y-141353285D01*
X306862922Y-141603711D01*
X306862924Y-141603711D01*
X306862927Y-141603713D01*
X307371305Y-141757928D01*
X307371304Y-141757928D01*
X307423376Y-141763056D01*
X307900000Y-141810000D01*
X308428694Y-141757928D01*
X308937072Y-141603713D01*
X309405595Y-141353282D01*
X309816259Y-141016259D01*
X310153282Y-140605595D01*
X310403713Y-140137072D01*
X310557928Y-139628694D01*
X310609999Y-139100000D01*
X310557928Y-138571305D01*
X310403713Y-138062927D01*
X310403711Y-138062924D01*
X310403711Y-138062922D01*
X310153285Y-137594409D01*
X310153281Y-137594402D01*
X309816259Y-137183739D01*
X309405596Y-136846717D01*
X309405589Y-136846713D01*
X308937076Y-136596287D01*
X308428692Y-136442070D01*
X307900000Y-136390000D01*
X307371306Y-136442070D01*
X306862922Y-136596287D01*
X306394409Y-136846713D01*
X306394402Y-136846717D01*
X305983739Y-137183739D01*
X305646717Y-137594402D01*
X305646713Y-137594409D01*
X305396287Y-138062922D01*
X305242070Y-138571306D01*
X305190000Y-139100000D01*
X211310000Y-139100000D01*
X211257928Y-138571305D01*
X211103713Y-138062927D01*
X211103711Y-138062924D01*
X211103711Y-138062922D01*
X210853285Y-137594409D01*
X210853281Y-137594402D01*
X210637215Y-137331125D01*
X210516259Y-137183739D01*
X210105596Y-136846717D01*
X210105589Y-136846713D01*
X209637076Y-136596287D01*
X209128692Y-136442070D01*
X208600000Y-136390000D01*
X208071306Y-136442070D01*
X207562922Y-136596287D01*
X207094409Y-136846713D01*
X207094402Y-136846717D01*
X206683739Y-137183739D01*
X206346717Y-137594402D01*
X206346713Y-137594409D01*
X206096287Y-138062922D01*
X205942070Y-138571306D01*
X205890000Y-139099999D01*
X205500500Y-139099999D01*
X205500500Y-135105513D01*
X270599500Y-135105513D01*
X270599500Y-135294486D01*
X270629059Y-135481118D01*
X270687454Y-135660836D01*
X270733379Y-135750968D01*
X270773240Y-135829199D01*
X270884310Y-135982073D01*
X271017927Y-136115690D01*
X271170801Y-136226760D01*
X271250347Y-136267290D01*
X271339163Y-136312545D01*
X271339165Y-136312545D01*
X271339168Y-136312547D01*
X271435497Y-136343846D01*
X271518881Y-136370940D01*
X271705514Y-136400500D01*
X271705519Y-136400500D01*
X271894486Y-136400500D01*
X272081118Y-136370940D01*
X272138433Y-136352317D01*
X272260832Y-136312547D01*
X272429199Y-136226760D01*
X272582073Y-136115690D01*
X272715690Y-135982073D01*
X272826760Y-135829199D01*
X272912547Y-135660832D01*
X272970940Y-135481118D01*
X273000500Y-135294486D01*
X273000500Y-135105513D01*
X272978862Y-134968898D01*
X272987817Y-134899605D01*
X273032813Y-134846153D01*
X273099564Y-134825513D01*
X273101335Y-134825500D01*
X278215745Y-134825500D01*
X278282784Y-134845185D01*
X278328539Y-134897989D01*
X278338483Y-134967147D01*
X278309458Y-135030703D01*
X278272040Y-135059985D01*
X278118648Y-135138141D01*
X278033122Y-135200278D01*
X278033122Y-135200279D01*
X278502512Y-135669669D01*
X278492110Y-135673978D01*
X278385649Y-135745112D01*
X278295112Y-135835649D01*
X278223978Y-135942110D01*
X278219669Y-135952512D01*
X277750279Y-135483122D01*
X277750278Y-135483122D01*
X277688141Y-135568648D01*
X277595244Y-135750968D01*
X277532009Y-135945582D01*
X277500000Y-136147682D01*
X277500000Y-136352317D01*
X277532009Y-136554417D01*
X277595244Y-136749031D01*
X277688139Y-136931347D01*
X277750279Y-137016876D01*
X278219668Y-136547486D01*
X278223978Y-136557890D01*
X278295112Y-136664351D01*
X278385649Y-136754888D01*
X278492110Y-136826022D01*
X278502510Y-136830330D01*
X278033121Y-137299719D01*
X278033122Y-137299720D01*
X278118640Y-137361852D01*
X278118649Y-137361858D01*
X278300968Y-137454755D01*
X278495582Y-137517990D01*
X278697683Y-137550000D01*
X278902317Y-137550000D01*
X279104417Y-137517990D01*
X279299031Y-137454755D01*
X279481349Y-137361859D01*
X279566876Y-137299719D01*
X279566877Y-137299718D01*
X279097489Y-136830330D01*
X279107890Y-136826022D01*
X279214351Y-136754888D01*
X279304888Y-136664351D01*
X279376022Y-136557890D01*
X279380330Y-136547488D01*
X279849718Y-137016877D01*
X279849719Y-137016876D01*
X279911859Y-136931349D01*
X280004755Y-136749031D01*
X280067990Y-136554417D01*
X280100000Y-136352317D01*
X280100000Y-136147682D01*
X280067990Y-135945582D01*
X280004755Y-135750968D01*
X279911858Y-135568649D01*
X279911852Y-135568640D01*
X279849720Y-135483122D01*
X279849719Y-135483121D01*
X279380330Y-135952510D01*
X279376022Y-135942110D01*
X279304888Y-135835649D01*
X279214351Y-135745112D01*
X279107890Y-135673978D01*
X279097487Y-135669669D01*
X279566876Y-135200279D01*
X279481347Y-135138139D01*
X279417314Y-135105513D01*
X288599500Y-135105513D01*
X288599500Y-135294486D01*
X288629059Y-135481118D01*
X288687454Y-135660836D01*
X288733379Y-135750968D01*
X288773240Y-135829199D01*
X288884310Y-135982073D01*
X289017927Y-136115690D01*
X289170801Y-136226760D01*
X289250347Y-136267290D01*
X289339163Y-136312545D01*
X289339165Y-136312545D01*
X289339168Y-136312547D01*
X289435497Y-136343846D01*
X289518881Y-136370940D01*
X289705514Y-136400500D01*
X289705519Y-136400500D01*
X289894486Y-136400500D01*
X290081118Y-136370940D01*
X290138433Y-136352317D01*
X290260832Y-136312547D01*
X290429199Y-136226760D01*
X290582073Y-136115690D01*
X290715690Y-135982073D01*
X290826760Y-135829199D01*
X290912547Y-135660832D01*
X290970940Y-135481118D01*
X291000500Y-135294486D01*
X291000500Y-135105513D01*
X290978862Y-134968898D01*
X290987817Y-134899605D01*
X291032813Y-134846153D01*
X291099564Y-134825513D01*
X291101335Y-134825500D01*
X296215745Y-134825500D01*
X296282784Y-134845185D01*
X296328539Y-134897989D01*
X296338483Y-134967147D01*
X296309458Y-135030703D01*
X296272040Y-135059985D01*
X296118648Y-135138141D01*
X296033122Y-135200278D01*
X296033122Y-135200279D01*
X296502512Y-135669669D01*
X296492110Y-135673978D01*
X296385649Y-135745112D01*
X296295112Y-135835649D01*
X296223978Y-135942110D01*
X296219669Y-135952511D01*
X295750279Y-135483122D01*
X295750278Y-135483122D01*
X295688141Y-135568648D01*
X295595244Y-135750968D01*
X295532009Y-135945582D01*
X295500000Y-136147682D01*
X295500000Y-136352317D01*
X295532009Y-136554417D01*
X295595244Y-136749031D01*
X295688139Y-136931347D01*
X295750279Y-137016876D01*
X296219668Y-136547487D01*
X296223978Y-136557890D01*
X296295112Y-136664351D01*
X296385649Y-136754888D01*
X296492110Y-136826022D01*
X296502510Y-136830330D01*
X296033121Y-137299719D01*
X296033122Y-137299720D01*
X296118640Y-137361852D01*
X296118649Y-137361858D01*
X296300968Y-137454755D01*
X296495582Y-137517990D01*
X296697683Y-137550000D01*
X296902317Y-137550000D01*
X297104417Y-137517990D01*
X297299031Y-137454755D01*
X297481349Y-137361859D01*
X297566876Y-137299719D01*
X297566877Y-137299718D01*
X297097489Y-136830330D01*
X297107890Y-136826022D01*
X297214351Y-136754888D01*
X297304888Y-136664351D01*
X297376022Y-136557890D01*
X297380330Y-136547488D01*
X297849718Y-137016877D01*
X297849719Y-137016876D01*
X297911859Y-136931349D01*
X298004755Y-136749031D01*
X298067990Y-136554417D01*
X298100000Y-136352317D01*
X298100000Y-136147682D01*
X298067990Y-135945582D01*
X298004755Y-135750968D01*
X297911858Y-135568649D01*
X297911852Y-135568640D01*
X297849720Y-135483122D01*
X297849719Y-135483121D01*
X297380330Y-135952510D01*
X297376022Y-135942110D01*
X297304888Y-135835649D01*
X297214351Y-135745112D01*
X297107890Y-135673978D01*
X297097487Y-135669669D01*
X297566876Y-135200279D01*
X297481347Y-135138139D01*
X297327960Y-135059985D01*
X297277164Y-135012010D01*
X297260369Y-134944189D01*
X297282906Y-134878055D01*
X297337621Y-134834603D01*
X297384255Y-134825500D01*
X302295613Y-134825500D01*
X302362652Y-134845185D01*
X302383294Y-134861818D01*
X302461985Y-134940509D01*
X302461987Y-134940510D01*
X302461988Y-134940511D01*
X302587511Y-135012982D01*
X302587512Y-135012982D01*
X302587515Y-135012984D01*
X302727525Y-135050500D01*
X302727528Y-135050500D01*
X302872472Y-135050500D01*
X302872475Y-135050500D01*
X303012485Y-135012984D01*
X303138015Y-134940509D01*
X303240509Y-134838015D01*
X303312984Y-134712485D01*
X303350500Y-134572475D01*
X303350500Y-134427525D01*
X303312984Y-134287515D01*
X303246098Y-134171666D01*
X303240511Y-134161988D01*
X303240506Y-134161982D01*
X303138017Y-134059493D01*
X303138011Y-134059488D01*
X303012488Y-133987017D01*
X303012489Y-133987017D01*
X303001006Y-133983940D01*
X302872475Y-133949500D01*
X302727525Y-133949500D01*
X302598993Y-133983940D01*
X302587511Y-133987017D01*
X302461988Y-134059488D01*
X302383294Y-134138182D01*
X302321970Y-134171666D01*
X302295613Y-134174500D01*
X290461442Y-134174500D01*
X290405147Y-134160985D01*
X290260836Y-134087454D01*
X290081118Y-134029059D01*
X289894486Y-133999500D01*
X289894481Y-133999500D01*
X289705519Y-133999500D01*
X289705514Y-133999500D01*
X289518881Y-134029059D01*
X289339163Y-134087454D01*
X289170800Y-134173240D01*
X289083579Y-134236610D01*
X289017927Y-134284310D01*
X289017925Y-134284312D01*
X289017924Y-134284312D01*
X288884312Y-134417924D01*
X288884312Y-134417925D01*
X288884310Y-134417927D01*
X288836610Y-134483579D01*
X288773240Y-134570800D01*
X288687454Y-134739163D01*
X288629059Y-134918881D01*
X288599500Y-135105513D01*
X279417314Y-135105513D01*
X279327960Y-135059985D01*
X279277164Y-135012010D01*
X279260369Y-134944189D01*
X279282906Y-134878055D01*
X279337621Y-134834603D01*
X279384255Y-134825500D01*
X284295613Y-134825500D01*
X284362652Y-134845185D01*
X284383294Y-134861818D01*
X284461985Y-134940509D01*
X284461987Y-134940510D01*
X284461988Y-134940511D01*
X284587511Y-135012982D01*
X284587512Y-135012982D01*
X284587515Y-135012984D01*
X284727525Y-135050500D01*
X284727528Y-135050500D01*
X284872472Y-135050500D01*
X284872475Y-135050500D01*
X285012485Y-135012984D01*
X285138015Y-134940509D01*
X285240509Y-134838015D01*
X285312984Y-134712485D01*
X285350500Y-134572475D01*
X285350500Y-134427525D01*
X285312984Y-134287515D01*
X285246098Y-134171666D01*
X285240511Y-134161988D01*
X285240506Y-134161982D01*
X285138017Y-134059493D01*
X285138011Y-134059488D01*
X285012488Y-133987017D01*
X285012489Y-133987017D01*
X285001006Y-133983940D01*
X284872475Y-133949500D01*
X284727525Y-133949500D01*
X284598993Y-133983940D01*
X284587511Y-133987017D01*
X284461988Y-134059488D01*
X284383294Y-134138182D01*
X284321970Y-134171666D01*
X284295613Y-134174500D01*
X272461442Y-134174500D01*
X272405147Y-134160985D01*
X272260836Y-134087454D01*
X272081118Y-134029059D01*
X271894486Y-133999500D01*
X271894481Y-133999500D01*
X271705519Y-133999500D01*
X271705514Y-133999500D01*
X271518881Y-134029059D01*
X271339163Y-134087454D01*
X271170800Y-134173240D01*
X271083579Y-134236610D01*
X271017927Y-134284310D01*
X271017925Y-134284312D01*
X271017924Y-134284312D01*
X270884312Y-134417924D01*
X270884312Y-134417925D01*
X270884310Y-134417927D01*
X270836610Y-134483579D01*
X270773240Y-134570800D01*
X270687454Y-134739163D01*
X270629059Y-134918881D01*
X270599500Y-135105513D01*
X205500500Y-135105513D01*
X205500500Y-130336824D01*
X273294500Y-130336824D01*
X273294500Y-130663175D01*
X273331035Y-130987441D01*
X273331038Y-130987455D01*
X273403655Y-131305612D01*
X273403656Y-131305614D01*
X273511438Y-131613640D01*
X273653030Y-131907657D01*
X273653032Y-131907660D01*
X273826654Y-132183979D01*
X274030123Y-132439121D01*
X274260879Y-132669877D01*
X274516021Y-132873346D01*
X274792340Y-133046968D01*
X275086361Y-133188562D01*
X275394387Y-133296344D01*
X275712544Y-133368962D01*
X275712553Y-133368963D01*
X275712558Y-133368964D01*
X275928735Y-133393320D01*
X276036825Y-133405499D01*
X276036828Y-133405500D01*
X276036831Y-133405500D01*
X276363172Y-133405500D01*
X276363173Y-133405499D01*
X276528900Y-133386826D01*
X276687441Y-133368964D01*
X276687444Y-133368963D01*
X276687456Y-133368962D01*
X277005613Y-133296344D01*
X277313639Y-133188562D01*
X277607660Y-133046968D01*
X277883979Y-132873346D01*
X278139121Y-132669877D01*
X278369877Y-132439121D01*
X278573346Y-132183979D01*
X278746968Y-131907660D01*
X278888562Y-131613639D01*
X278996344Y-131305613D01*
X279068962Y-130987456D01*
X279105500Y-130663169D01*
X279105500Y-130336831D01*
X279105499Y-130336824D01*
X291294500Y-130336824D01*
X291294500Y-130663175D01*
X291331035Y-130987441D01*
X291331038Y-130987455D01*
X291403655Y-131305612D01*
X291403656Y-131305614D01*
X291511438Y-131613640D01*
X291653030Y-131907657D01*
X291653032Y-131907660D01*
X291826654Y-132183979D01*
X292030123Y-132439121D01*
X292260879Y-132669877D01*
X292516021Y-132873346D01*
X292792340Y-133046968D01*
X293086361Y-133188562D01*
X293394387Y-133296344D01*
X293712544Y-133368962D01*
X293712553Y-133368963D01*
X293712558Y-133368964D01*
X293928735Y-133393320D01*
X294036825Y-133405499D01*
X294036828Y-133405500D01*
X294036831Y-133405500D01*
X294363172Y-133405500D01*
X294363173Y-133405499D01*
X294528900Y-133386826D01*
X294687441Y-133368964D01*
X294687444Y-133368963D01*
X294687456Y-133368962D01*
X295005613Y-133296344D01*
X295313639Y-133188562D01*
X295607660Y-133046968D01*
X295883979Y-132873346D01*
X296139121Y-132669877D01*
X296369877Y-132439121D01*
X296573346Y-132183979D01*
X296746968Y-131907660D01*
X296888562Y-131613639D01*
X296996344Y-131305613D01*
X297068962Y-130987456D01*
X297105500Y-130663169D01*
X297105500Y-130336831D01*
X297068962Y-130012544D01*
X296996344Y-129694387D01*
X296888562Y-129386361D01*
X296746968Y-129092340D01*
X296573346Y-128816021D01*
X296369877Y-128560879D01*
X296139121Y-128330123D01*
X295883979Y-128126654D01*
X295607660Y-127953032D01*
X295607657Y-127953030D01*
X295313640Y-127811438D01*
X295005614Y-127703656D01*
X295005612Y-127703655D01*
X294760073Y-127647612D01*
X294687456Y-127631038D01*
X294687453Y-127631037D01*
X294687441Y-127631035D01*
X294363175Y-127594500D01*
X294363169Y-127594500D01*
X294036831Y-127594500D01*
X294036824Y-127594500D01*
X293712558Y-127631035D01*
X293712544Y-127631038D01*
X293394387Y-127703655D01*
X293394385Y-127703656D01*
X293086359Y-127811438D01*
X292792342Y-127953030D01*
X292516022Y-128126653D01*
X292260879Y-128330122D01*
X292030122Y-128560879D01*
X291826653Y-128816022D01*
X291653030Y-129092342D01*
X291511438Y-129386359D01*
X291403656Y-129694385D01*
X291403655Y-129694387D01*
X291331038Y-130012544D01*
X291331035Y-130012558D01*
X291294500Y-130336824D01*
X279105499Y-130336824D01*
X279068962Y-130012544D01*
X278996344Y-129694387D01*
X278888562Y-129386361D01*
X278746968Y-129092340D01*
X278573346Y-128816021D01*
X278369877Y-128560879D01*
X278139121Y-128330123D01*
X277883979Y-128126654D01*
X277607660Y-127953032D01*
X277607657Y-127953030D01*
X277313640Y-127811438D01*
X277005614Y-127703656D01*
X277005612Y-127703655D01*
X276760073Y-127647612D01*
X276687456Y-127631038D01*
X276687453Y-127631037D01*
X276687441Y-127631035D01*
X276363175Y-127594500D01*
X276363169Y-127594500D01*
X276036831Y-127594500D01*
X276036824Y-127594500D01*
X275712558Y-127631035D01*
X275712544Y-127631038D01*
X275394387Y-127703655D01*
X275394385Y-127703656D01*
X275086359Y-127811438D01*
X274792342Y-127953030D01*
X274516022Y-128126653D01*
X274260879Y-128330122D01*
X274030122Y-128560879D01*
X273826653Y-128816022D01*
X273653030Y-129092342D01*
X273511438Y-129386359D01*
X273403656Y-129694385D01*
X273403655Y-129694387D01*
X273331038Y-130012544D01*
X273331035Y-130012558D01*
X273294500Y-130336824D01*
X205500500Y-130336824D01*
X205500500Y-126105513D01*
X212599500Y-126105513D01*
X212599500Y-126294486D01*
X212629059Y-126481118D01*
X212687454Y-126660836D01*
X212733379Y-126750968D01*
X212773240Y-126829199D01*
X212884310Y-126982073D01*
X213017927Y-127115690D01*
X213170801Y-127226760D01*
X213250347Y-127267290D01*
X213339163Y-127312545D01*
X213339165Y-127312545D01*
X213339168Y-127312547D01*
X213435497Y-127343846D01*
X213518881Y-127370940D01*
X213705514Y-127400500D01*
X213705519Y-127400500D01*
X213894486Y-127400500D01*
X214081118Y-127370940D01*
X214138433Y-127352317D01*
X214260832Y-127312547D01*
X214429199Y-127226760D01*
X214582073Y-127115690D01*
X214715690Y-126982073D01*
X214826760Y-126829199D01*
X214912547Y-126660832D01*
X214970940Y-126481118D01*
X215000500Y-126294486D01*
X215000500Y-126149500D01*
X215020185Y-126082461D01*
X215072989Y-126036706D01*
X215124500Y-126025500D01*
X219912735Y-126025500D01*
X219979774Y-126045185D01*
X220025529Y-126097989D01*
X220036353Y-126159229D01*
X220033122Y-126200279D01*
X220502512Y-126669669D01*
X220492110Y-126673978D01*
X220385649Y-126745112D01*
X220295112Y-126835649D01*
X220223978Y-126942110D01*
X220219669Y-126952511D01*
X219750279Y-126483122D01*
X219750278Y-126483122D01*
X219688141Y-126568648D01*
X219595244Y-126750968D01*
X219532009Y-126945582D01*
X219500000Y-127147682D01*
X219500000Y-127352317D01*
X219532009Y-127554417D01*
X219595244Y-127749031D01*
X219688139Y-127931347D01*
X219750279Y-128016876D01*
X220219668Y-127547487D01*
X220223978Y-127557890D01*
X220295112Y-127664351D01*
X220385649Y-127754888D01*
X220492110Y-127826022D01*
X220502510Y-127830330D01*
X220033121Y-128299719D01*
X220033122Y-128299720D01*
X220118640Y-128361852D01*
X220118649Y-128361858D01*
X220300968Y-128454755D01*
X220495582Y-128517990D01*
X220697683Y-128550000D01*
X220902317Y-128550000D01*
X221104417Y-128517990D01*
X221299031Y-128454755D01*
X221481349Y-128361859D01*
X221566876Y-128299719D01*
X221566877Y-128299718D01*
X221097489Y-127830330D01*
X221107890Y-127826022D01*
X221214351Y-127754888D01*
X221304888Y-127664351D01*
X221376022Y-127557890D01*
X221380330Y-127547488D01*
X221849718Y-128016877D01*
X221849719Y-128016876D01*
X221911859Y-127931349D01*
X222004755Y-127749031D01*
X222067990Y-127554417D01*
X222100000Y-127352317D01*
X222100000Y-127147682D01*
X222067990Y-126945582D01*
X222004755Y-126750968D01*
X221911858Y-126568649D01*
X221911852Y-126568640D01*
X221849720Y-126483122D01*
X221849719Y-126483121D01*
X221380330Y-126952510D01*
X221376022Y-126942110D01*
X221304888Y-126835649D01*
X221214351Y-126745112D01*
X221107890Y-126673978D01*
X221097487Y-126669669D01*
X221566876Y-126200279D01*
X221563646Y-126159229D01*
X221578010Y-126090852D01*
X221627061Y-126041095D01*
X221687264Y-126025500D01*
X226495613Y-126025500D01*
X226562652Y-126045185D01*
X226583294Y-126061818D01*
X226661985Y-126140509D01*
X226661987Y-126140510D01*
X226661988Y-126140511D01*
X226787511Y-126212982D01*
X226787512Y-126212982D01*
X226787515Y-126212984D01*
X226927525Y-126250500D01*
X226927528Y-126250500D01*
X227072472Y-126250500D01*
X227072475Y-126250500D01*
X227212485Y-126212984D01*
X227338015Y-126140509D01*
X227373011Y-126105513D01*
X232599500Y-126105513D01*
X232599500Y-126294486D01*
X232629059Y-126481118D01*
X232687454Y-126660836D01*
X232733379Y-126750968D01*
X232773240Y-126829199D01*
X232884310Y-126982073D01*
X233017927Y-127115690D01*
X233170801Y-127226760D01*
X233250347Y-127267290D01*
X233339163Y-127312545D01*
X233339165Y-127312545D01*
X233339168Y-127312547D01*
X233435497Y-127343846D01*
X233518881Y-127370940D01*
X233705514Y-127400500D01*
X233705519Y-127400500D01*
X233894486Y-127400500D01*
X234081118Y-127370940D01*
X234138433Y-127352317D01*
X234260832Y-127312547D01*
X234429199Y-127226760D01*
X234582073Y-127115690D01*
X234715690Y-126982073D01*
X234826760Y-126829199D01*
X234912547Y-126660832D01*
X234970940Y-126481118D01*
X235000500Y-126294486D01*
X235000500Y-126149500D01*
X235020185Y-126082461D01*
X235072989Y-126036706D01*
X235124500Y-126025500D01*
X239912735Y-126025500D01*
X239979774Y-126045185D01*
X240025529Y-126097989D01*
X240036353Y-126159229D01*
X240033122Y-126200279D01*
X240502512Y-126669669D01*
X240492110Y-126673978D01*
X240385649Y-126745112D01*
X240295112Y-126835649D01*
X240223978Y-126942110D01*
X240219669Y-126952512D01*
X239750279Y-126483122D01*
X239750278Y-126483122D01*
X239688141Y-126568648D01*
X239595244Y-126750968D01*
X239532009Y-126945582D01*
X239500000Y-127147682D01*
X239500000Y-127352317D01*
X239532009Y-127554417D01*
X239595244Y-127749031D01*
X239688139Y-127931347D01*
X239750279Y-128016876D01*
X240219668Y-127547487D01*
X240223978Y-127557890D01*
X240295112Y-127664351D01*
X240385649Y-127754888D01*
X240492110Y-127826022D01*
X240502510Y-127830330D01*
X240033121Y-128299719D01*
X240033122Y-128299720D01*
X240118640Y-128361852D01*
X240118649Y-128361858D01*
X240300968Y-128454755D01*
X240495582Y-128517990D01*
X240697683Y-128550000D01*
X240902317Y-128550000D01*
X241104417Y-128517990D01*
X241299031Y-128454755D01*
X241481349Y-128361859D01*
X241566876Y-128299719D01*
X241566877Y-128299718D01*
X241097489Y-127830330D01*
X241107890Y-127826022D01*
X241214351Y-127754888D01*
X241304888Y-127664351D01*
X241376022Y-127557890D01*
X241380330Y-127547488D01*
X241849718Y-128016877D01*
X241849719Y-128016876D01*
X241911859Y-127931349D01*
X242004755Y-127749031D01*
X242067990Y-127554417D01*
X242100000Y-127352317D01*
X242100000Y-127147682D01*
X242067990Y-126945582D01*
X242004755Y-126750968D01*
X241911858Y-126568649D01*
X241911852Y-126568640D01*
X241849720Y-126483122D01*
X241849719Y-126483121D01*
X241380330Y-126952510D01*
X241376022Y-126942110D01*
X241304888Y-126835649D01*
X241214351Y-126745112D01*
X241107890Y-126673978D01*
X241097487Y-126669669D01*
X241566876Y-126200279D01*
X241563646Y-126159229D01*
X241578010Y-126090852D01*
X241627061Y-126041095D01*
X241687264Y-126025500D01*
X246495613Y-126025500D01*
X246562652Y-126045185D01*
X246583294Y-126061818D01*
X246661985Y-126140509D01*
X246661987Y-126140510D01*
X246661988Y-126140511D01*
X246787511Y-126212982D01*
X246787512Y-126212982D01*
X246787515Y-126212984D01*
X246927525Y-126250500D01*
X246927528Y-126250500D01*
X247072472Y-126250500D01*
X247072475Y-126250500D01*
X247212485Y-126212984D01*
X247338015Y-126140509D01*
X247373011Y-126105513D01*
X252599500Y-126105513D01*
X252599500Y-126294486D01*
X252629059Y-126481118D01*
X252687454Y-126660836D01*
X252733379Y-126750968D01*
X252773240Y-126829199D01*
X252884310Y-126982073D01*
X253017927Y-127115690D01*
X253170801Y-127226760D01*
X253250347Y-127267290D01*
X253339163Y-127312545D01*
X253339165Y-127312545D01*
X253339168Y-127312547D01*
X253435497Y-127343846D01*
X253518881Y-127370940D01*
X253705514Y-127400500D01*
X253705519Y-127400500D01*
X253894486Y-127400500D01*
X254081118Y-127370940D01*
X254138433Y-127352317D01*
X254260832Y-127312547D01*
X254429199Y-127226760D01*
X254582073Y-127115690D01*
X254715690Y-126982073D01*
X254826760Y-126829199D01*
X254912547Y-126660832D01*
X254970940Y-126481118D01*
X255000500Y-126294486D01*
X255000500Y-126149500D01*
X255020185Y-126082461D01*
X255072989Y-126036706D01*
X255124500Y-126025500D01*
X259912735Y-126025500D01*
X259979774Y-126045185D01*
X260025529Y-126097989D01*
X260036353Y-126159229D01*
X260033122Y-126200279D01*
X260502512Y-126669669D01*
X260492110Y-126673978D01*
X260385649Y-126745112D01*
X260295112Y-126835649D01*
X260223978Y-126942110D01*
X260219669Y-126952512D01*
X259750279Y-126483122D01*
X259750278Y-126483122D01*
X259688141Y-126568648D01*
X259595244Y-126750968D01*
X259532009Y-126945582D01*
X259500000Y-127147682D01*
X259500000Y-127352317D01*
X259532009Y-127554417D01*
X259595244Y-127749031D01*
X259688139Y-127931347D01*
X259750279Y-128016876D01*
X260219668Y-127547487D01*
X260223978Y-127557890D01*
X260295112Y-127664351D01*
X260385649Y-127754888D01*
X260492110Y-127826022D01*
X260502510Y-127830330D01*
X260033121Y-128299719D01*
X260033122Y-128299720D01*
X260118640Y-128361852D01*
X260118649Y-128361858D01*
X260300968Y-128454755D01*
X260495582Y-128517990D01*
X260697683Y-128550000D01*
X260902317Y-128550000D01*
X261104417Y-128517990D01*
X261299031Y-128454755D01*
X261481349Y-128361859D01*
X261566876Y-128299719D01*
X261566877Y-128299718D01*
X261097489Y-127830330D01*
X261107890Y-127826022D01*
X261214351Y-127754888D01*
X261304888Y-127664351D01*
X261376022Y-127557890D01*
X261380330Y-127547488D01*
X261849718Y-128016877D01*
X261849719Y-128016876D01*
X261911859Y-127931349D01*
X262004755Y-127749031D01*
X262067990Y-127554417D01*
X262100000Y-127352317D01*
X262100000Y-127147682D01*
X262067990Y-126945582D01*
X262004755Y-126750968D01*
X261911858Y-126568649D01*
X261911852Y-126568640D01*
X261849720Y-126483122D01*
X261849719Y-126483121D01*
X261380330Y-126952510D01*
X261376022Y-126942110D01*
X261304888Y-126835649D01*
X261214351Y-126745112D01*
X261107890Y-126673978D01*
X261097487Y-126669669D01*
X261566876Y-126200279D01*
X261563646Y-126159229D01*
X261578010Y-126090852D01*
X261627061Y-126041095D01*
X261687264Y-126025500D01*
X266495613Y-126025500D01*
X266562652Y-126045185D01*
X266583294Y-126061818D01*
X266661985Y-126140509D01*
X266661987Y-126140510D01*
X266661988Y-126140511D01*
X266787511Y-126212982D01*
X266787512Y-126212982D01*
X266787515Y-126212984D01*
X266927525Y-126250500D01*
X266927528Y-126250500D01*
X267072472Y-126250500D01*
X267072475Y-126250500D01*
X267212485Y-126212984D01*
X267338015Y-126140509D01*
X267440509Y-126038015D01*
X267512984Y-125912485D01*
X267550500Y-125772475D01*
X267550500Y-125627525D01*
X287049500Y-125627525D01*
X287049500Y-125772475D01*
X287087016Y-125912485D01*
X287087017Y-125912488D01*
X287159488Y-126038011D01*
X287159490Y-126038013D01*
X287159491Y-126038015D01*
X287261985Y-126140509D01*
X287261986Y-126140510D01*
X287261988Y-126140511D01*
X287387511Y-126212982D01*
X287387512Y-126212982D01*
X287387515Y-126212984D01*
X287527525Y-126250500D01*
X287527528Y-126250500D01*
X287672472Y-126250500D01*
X287672475Y-126250500D01*
X287812485Y-126212984D01*
X287938015Y-126140509D01*
X287941705Y-126136819D01*
X288003028Y-126103334D01*
X288029386Y-126100500D01*
X303170614Y-126100500D01*
X303237653Y-126120185D01*
X303258295Y-126136819D01*
X303261985Y-126140509D01*
X303261986Y-126140510D01*
X303261988Y-126140511D01*
X303387511Y-126212982D01*
X303387512Y-126212982D01*
X303387515Y-126212984D01*
X303527525Y-126250500D01*
X303527528Y-126250500D01*
X303672472Y-126250500D01*
X303672475Y-126250500D01*
X303812485Y-126212984D01*
X303938015Y-126140509D01*
X304040509Y-126038015D01*
X304112984Y-125912485D01*
X304150500Y-125772475D01*
X304150500Y-125627525D01*
X304112984Y-125487515D01*
X304072807Y-125417927D01*
X304040511Y-125361988D01*
X304040506Y-125361982D01*
X303938017Y-125259493D01*
X303938011Y-125259488D01*
X303812488Y-125187017D01*
X303812489Y-125187017D01*
X303801006Y-125183940D01*
X303672475Y-125149500D01*
X303527525Y-125149500D01*
X303398993Y-125183940D01*
X303387511Y-125187017D01*
X303261988Y-125259488D01*
X303261982Y-125259493D01*
X303258295Y-125263181D01*
X303196972Y-125296666D01*
X303170614Y-125299500D01*
X288029386Y-125299500D01*
X287962347Y-125279815D01*
X287941705Y-125263181D01*
X287938017Y-125259493D01*
X287938011Y-125259488D01*
X287812488Y-125187017D01*
X287812489Y-125187017D01*
X287801006Y-125183940D01*
X287672475Y-125149500D01*
X287527525Y-125149500D01*
X287398993Y-125183940D01*
X287387511Y-125187017D01*
X287261988Y-125259488D01*
X287261982Y-125259493D01*
X287159493Y-125361982D01*
X287159488Y-125361988D01*
X287087017Y-125487511D01*
X287087016Y-125487515D01*
X287049500Y-125627525D01*
X267550500Y-125627525D01*
X267512984Y-125487515D01*
X267472807Y-125417927D01*
X267440511Y-125361988D01*
X267440506Y-125361982D01*
X267338017Y-125259493D01*
X267338011Y-125259488D01*
X267212488Y-125187017D01*
X267212489Y-125187017D01*
X267201006Y-125183940D01*
X267072475Y-125149500D01*
X266927525Y-125149500D01*
X266798993Y-125183940D01*
X266787511Y-125187017D01*
X266661988Y-125259488D01*
X266583294Y-125338182D01*
X266521970Y-125371666D01*
X266495613Y-125374500D01*
X254723625Y-125374500D01*
X254656586Y-125354815D01*
X254635944Y-125338181D01*
X254582075Y-125284312D01*
X254582073Y-125284310D01*
X254429199Y-125173240D01*
X254260836Y-125087454D01*
X254081118Y-125029059D01*
X253894486Y-124999500D01*
X253894481Y-124999500D01*
X253705519Y-124999500D01*
X253705514Y-124999500D01*
X253518881Y-125029059D01*
X253339163Y-125087454D01*
X253170800Y-125173240D01*
X253083579Y-125236610D01*
X253017927Y-125284310D01*
X253017925Y-125284312D01*
X253017924Y-125284312D01*
X252884312Y-125417924D01*
X252884312Y-125417925D01*
X252884310Y-125417927D01*
X252836610Y-125483579D01*
X252773240Y-125570800D01*
X252687454Y-125739163D01*
X252629059Y-125918881D01*
X252599500Y-126105513D01*
X247373011Y-126105513D01*
X247440509Y-126038015D01*
X247512984Y-125912485D01*
X247550500Y-125772475D01*
X247550500Y-125627525D01*
X247512984Y-125487515D01*
X247472807Y-125417927D01*
X247440511Y-125361988D01*
X247440506Y-125361982D01*
X247338017Y-125259493D01*
X247338011Y-125259488D01*
X247212488Y-125187017D01*
X247212489Y-125187017D01*
X247201006Y-125183940D01*
X247072475Y-125149500D01*
X246927525Y-125149500D01*
X246798993Y-125183940D01*
X246787511Y-125187017D01*
X246661988Y-125259488D01*
X246583294Y-125338182D01*
X246521970Y-125371666D01*
X246495613Y-125374500D01*
X234723625Y-125374500D01*
X234656586Y-125354815D01*
X234635944Y-125338181D01*
X234582075Y-125284312D01*
X234582073Y-125284310D01*
X234429199Y-125173240D01*
X234260836Y-125087454D01*
X234081118Y-125029059D01*
X233894486Y-124999500D01*
X233894481Y-124999500D01*
X233705519Y-124999500D01*
X233705514Y-124999500D01*
X233518881Y-125029059D01*
X233339163Y-125087454D01*
X233170800Y-125173240D01*
X233083579Y-125236610D01*
X233017927Y-125284310D01*
X233017925Y-125284312D01*
X233017924Y-125284312D01*
X232884312Y-125417924D01*
X232884312Y-125417925D01*
X232884310Y-125417927D01*
X232836610Y-125483579D01*
X232773240Y-125570800D01*
X232687454Y-125739163D01*
X232629059Y-125918881D01*
X232599500Y-126105513D01*
X227373011Y-126105513D01*
X227440509Y-126038015D01*
X227512984Y-125912485D01*
X227550500Y-125772475D01*
X227550500Y-125627525D01*
X227512984Y-125487515D01*
X227472807Y-125417927D01*
X227440511Y-125361988D01*
X227440506Y-125361982D01*
X227338017Y-125259493D01*
X227338011Y-125259488D01*
X227212488Y-125187017D01*
X227212489Y-125187017D01*
X227201006Y-125183940D01*
X227072475Y-125149500D01*
X226927525Y-125149500D01*
X226798993Y-125183940D01*
X226787511Y-125187017D01*
X226661988Y-125259488D01*
X226583294Y-125338182D01*
X226521970Y-125371666D01*
X226495613Y-125374500D01*
X214723625Y-125374500D01*
X214656586Y-125354815D01*
X214635944Y-125338181D01*
X214582075Y-125284312D01*
X214582073Y-125284310D01*
X214429199Y-125173240D01*
X214260836Y-125087454D01*
X214081118Y-125029059D01*
X213894486Y-124999500D01*
X213894481Y-124999500D01*
X213705519Y-124999500D01*
X213705514Y-124999500D01*
X213518881Y-125029059D01*
X213339163Y-125087454D01*
X213170800Y-125173240D01*
X213083579Y-125236610D01*
X213017927Y-125284310D01*
X213017925Y-125284312D01*
X213017924Y-125284312D01*
X212884312Y-125417924D01*
X212884312Y-125417925D01*
X212884310Y-125417927D01*
X212836610Y-125483579D01*
X212773240Y-125570800D01*
X212687454Y-125739163D01*
X212629059Y-125918881D01*
X212599500Y-126105513D01*
X205500500Y-126105513D01*
X205500500Y-121336824D01*
X215294500Y-121336824D01*
X215294500Y-121663175D01*
X215331035Y-121987441D01*
X215331038Y-121987455D01*
X215403655Y-122305612D01*
X215403656Y-122305614D01*
X215511438Y-122613640D01*
X215653030Y-122907657D01*
X215653032Y-122907660D01*
X215826654Y-123183979D01*
X216030123Y-123439121D01*
X216260879Y-123669877D01*
X216516021Y-123873346D01*
X216792340Y-124046968D01*
X217086361Y-124188562D01*
X217394387Y-124296344D01*
X217712544Y-124368962D01*
X217712553Y-124368963D01*
X217712558Y-124368964D01*
X217928735Y-124393320D01*
X218036825Y-124405499D01*
X218036828Y-124405500D01*
X218036831Y-124405500D01*
X218363172Y-124405500D01*
X218363173Y-124405499D01*
X218528900Y-124386826D01*
X218687441Y-124368964D01*
X218687444Y-124368963D01*
X218687456Y-124368962D01*
X219005613Y-124296344D01*
X219313639Y-124188562D01*
X219607660Y-124046968D01*
X219883979Y-123873346D01*
X220139121Y-123669877D01*
X220369877Y-123439121D01*
X220573346Y-123183979D01*
X220746968Y-122907660D01*
X220888562Y-122613639D01*
X220996344Y-122305613D01*
X221068962Y-121987456D01*
X221105500Y-121663169D01*
X221105500Y-121336831D01*
X221105499Y-121336824D01*
X235294500Y-121336824D01*
X235294500Y-121663175D01*
X235331035Y-121987441D01*
X235331038Y-121987455D01*
X235403655Y-122305612D01*
X235403656Y-122305614D01*
X235511438Y-122613640D01*
X235653030Y-122907657D01*
X235653032Y-122907660D01*
X235826654Y-123183979D01*
X236030123Y-123439121D01*
X236260879Y-123669877D01*
X236516021Y-123873346D01*
X236792340Y-124046968D01*
X237086361Y-124188562D01*
X237394387Y-124296344D01*
X237712544Y-124368962D01*
X237712553Y-124368963D01*
X237712558Y-124368964D01*
X237928735Y-124393320D01*
X238036825Y-124405499D01*
X238036828Y-124405500D01*
X238036831Y-124405500D01*
X238363172Y-124405500D01*
X238363173Y-124405499D01*
X238528900Y-124386826D01*
X238687441Y-124368964D01*
X238687444Y-124368963D01*
X238687456Y-124368962D01*
X239005613Y-124296344D01*
X239313639Y-124188562D01*
X239607660Y-124046968D01*
X239883979Y-123873346D01*
X240139121Y-123669877D01*
X240369877Y-123439121D01*
X240573346Y-123183979D01*
X240746968Y-122907660D01*
X240888562Y-122613639D01*
X240996344Y-122305613D01*
X241068962Y-121987456D01*
X241105500Y-121663169D01*
X241105500Y-121336831D01*
X241105499Y-121336824D01*
X255294500Y-121336824D01*
X255294500Y-121663175D01*
X255331035Y-121987441D01*
X255331038Y-121987455D01*
X255403655Y-122305612D01*
X255403656Y-122305614D01*
X255511438Y-122613640D01*
X255653030Y-122907657D01*
X255653032Y-122907660D01*
X255826654Y-123183979D01*
X256030123Y-123439121D01*
X256260879Y-123669877D01*
X256516021Y-123873346D01*
X256792340Y-124046968D01*
X257086361Y-124188562D01*
X257394387Y-124296344D01*
X257712544Y-124368962D01*
X257712553Y-124368963D01*
X257712558Y-124368964D01*
X257928735Y-124393320D01*
X258036825Y-124405499D01*
X258036828Y-124405500D01*
X258036831Y-124405500D01*
X258363172Y-124405500D01*
X258363173Y-124405499D01*
X258528900Y-124386826D01*
X258687441Y-124368964D01*
X258687444Y-124368963D01*
X258687456Y-124368962D01*
X259005613Y-124296344D01*
X259313639Y-124188562D01*
X259607660Y-124046968D01*
X259883979Y-123873346D01*
X260139121Y-123669877D01*
X260369877Y-123439121D01*
X260573346Y-123183979D01*
X260746968Y-122907660D01*
X260888562Y-122613639D01*
X260996344Y-122305613D01*
X261068962Y-121987456D01*
X261105500Y-121663169D01*
X261105500Y-121336831D01*
X261068962Y-121012544D01*
X260996344Y-120694387D01*
X260888562Y-120386361D01*
X260746968Y-120092340D01*
X260573346Y-119816021D01*
X260369877Y-119560879D01*
X260139121Y-119330123D01*
X259883979Y-119126654D01*
X259607660Y-118953032D01*
X259607657Y-118953030D01*
X259313640Y-118811438D01*
X259005614Y-118703656D01*
X259005612Y-118703655D01*
X258760073Y-118647612D01*
X258687456Y-118631038D01*
X258687453Y-118631037D01*
X258687441Y-118631035D01*
X258363175Y-118594500D01*
X258363169Y-118594500D01*
X258036831Y-118594500D01*
X258036824Y-118594500D01*
X257712558Y-118631035D01*
X257712544Y-118631038D01*
X257394387Y-118703655D01*
X257394385Y-118703656D01*
X257086359Y-118811438D01*
X256792342Y-118953030D01*
X256516022Y-119126653D01*
X256260879Y-119330122D01*
X256030122Y-119560879D01*
X255826653Y-119816022D01*
X255653030Y-120092342D01*
X255511438Y-120386359D01*
X255403656Y-120694385D01*
X255403655Y-120694387D01*
X255331038Y-121012544D01*
X255331035Y-121012558D01*
X255294500Y-121336824D01*
X241105499Y-121336824D01*
X241068962Y-121012544D01*
X240996344Y-120694387D01*
X240888562Y-120386361D01*
X240746968Y-120092340D01*
X240573346Y-119816021D01*
X240369877Y-119560879D01*
X240139121Y-119330123D01*
X239883979Y-119126654D01*
X239607660Y-118953032D01*
X239607657Y-118953030D01*
X239313640Y-118811438D01*
X239005614Y-118703656D01*
X239005612Y-118703655D01*
X238760073Y-118647612D01*
X238687456Y-118631038D01*
X238687453Y-118631037D01*
X238687441Y-118631035D01*
X238363175Y-118594500D01*
X238363169Y-118594500D01*
X238036831Y-118594500D01*
X238036824Y-118594500D01*
X237712558Y-118631035D01*
X237712544Y-118631038D01*
X237394387Y-118703655D01*
X237394385Y-118703656D01*
X237086359Y-118811438D01*
X236792342Y-118953030D01*
X236516022Y-119126653D01*
X236260879Y-119330122D01*
X236030122Y-119560879D01*
X235826653Y-119816022D01*
X235653030Y-120092342D01*
X235511438Y-120386359D01*
X235403656Y-120694385D01*
X235403655Y-120694387D01*
X235331038Y-121012544D01*
X235331035Y-121012558D01*
X235294500Y-121336824D01*
X221105499Y-121336824D01*
X221068962Y-121012544D01*
X220996344Y-120694387D01*
X220888562Y-120386361D01*
X220746968Y-120092340D01*
X220573346Y-119816021D01*
X220369877Y-119560879D01*
X220139121Y-119330123D01*
X219883979Y-119126654D01*
X219607660Y-118953032D01*
X219607657Y-118953030D01*
X219313640Y-118811438D01*
X219005614Y-118703656D01*
X219005612Y-118703655D01*
X218760073Y-118647612D01*
X218687456Y-118631038D01*
X218687453Y-118631037D01*
X218687441Y-118631035D01*
X218363175Y-118594500D01*
X218363169Y-118594500D01*
X218036831Y-118594500D01*
X218036824Y-118594500D01*
X217712558Y-118631035D01*
X217712544Y-118631038D01*
X217394387Y-118703655D01*
X217394385Y-118703656D01*
X217086359Y-118811438D01*
X216792342Y-118953030D01*
X216516022Y-119126653D01*
X216260879Y-119330122D01*
X216030122Y-119560879D01*
X215826653Y-119816022D01*
X215653030Y-120092342D01*
X215511438Y-120386359D01*
X215403656Y-120694385D01*
X215403655Y-120694387D01*
X215331038Y-121012544D01*
X215331035Y-121012558D01*
X215294500Y-121336824D01*
X205500500Y-121336824D01*
X205500500Y-117427525D01*
X231049500Y-117427525D01*
X231049500Y-117572475D01*
X231073177Y-117660836D01*
X231087017Y-117712488D01*
X231159488Y-117838011D01*
X231159490Y-117838013D01*
X231159491Y-117838015D01*
X231261985Y-117940509D01*
X231261986Y-117940510D01*
X231261988Y-117940511D01*
X231387511Y-118012982D01*
X231387512Y-118012982D01*
X231387515Y-118012984D01*
X231527525Y-118050500D01*
X231527528Y-118050500D01*
X231672472Y-118050500D01*
X231672475Y-118050500D01*
X231812485Y-118012984D01*
X231938015Y-117940509D01*
X231941705Y-117936819D01*
X232003028Y-117903334D01*
X232029386Y-117900500D01*
X246370613Y-117900500D01*
X246437652Y-117920185D01*
X246458294Y-117936819D01*
X246461984Y-117940509D01*
X246461985Y-117940510D01*
X246461987Y-117940511D01*
X246587510Y-118012982D01*
X246587511Y-118012982D01*
X246587514Y-118012984D01*
X246727524Y-118050500D01*
X246727527Y-118050500D01*
X246872471Y-118050500D01*
X246872474Y-118050500D01*
X247012484Y-118012984D01*
X247138014Y-117940509D01*
X247240508Y-117838015D01*
X247312983Y-117712485D01*
X247350499Y-117572475D01*
X247350499Y-117427525D01*
X247312983Y-117287515D01*
X247240508Y-117161985D01*
X247184036Y-117105513D01*
X270599500Y-117105513D01*
X270599500Y-117294486D01*
X270629059Y-117481118D01*
X270687454Y-117660836D01*
X270733379Y-117750968D01*
X270773240Y-117829199D01*
X270884310Y-117982073D01*
X271017927Y-118115690D01*
X271170801Y-118226760D01*
X271250347Y-118267290D01*
X271339163Y-118312545D01*
X271339165Y-118312545D01*
X271339168Y-118312547D01*
X271435497Y-118343846D01*
X271518881Y-118370940D01*
X271705514Y-118400500D01*
X271705519Y-118400500D01*
X271894486Y-118400500D01*
X272081118Y-118370940D01*
X272138433Y-118352317D01*
X272260832Y-118312547D01*
X272429199Y-118226760D01*
X272582073Y-118115690D01*
X272715690Y-117982073D01*
X272826760Y-117829199D01*
X272912547Y-117660832D01*
X272970940Y-117481118D01*
X272979428Y-117427525D01*
X273000500Y-117294486D01*
X273000500Y-117105513D01*
X272978862Y-116968898D01*
X272987817Y-116899605D01*
X273032813Y-116846153D01*
X273099564Y-116825513D01*
X273101335Y-116825500D01*
X278215745Y-116825500D01*
X278282784Y-116845185D01*
X278328539Y-116897989D01*
X278338483Y-116967147D01*
X278309458Y-117030703D01*
X278272040Y-117059985D01*
X278118648Y-117138141D01*
X278033122Y-117200278D01*
X278033122Y-117200279D01*
X278502512Y-117669669D01*
X278492110Y-117673978D01*
X278385649Y-117745112D01*
X278295112Y-117835649D01*
X278223978Y-117942110D01*
X278219669Y-117952512D01*
X277750279Y-117483122D01*
X277750278Y-117483122D01*
X277688141Y-117568648D01*
X277595244Y-117750968D01*
X277532009Y-117945582D01*
X277500000Y-118147682D01*
X277500000Y-118352317D01*
X277532009Y-118554417D01*
X277595244Y-118749031D01*
X277688139Y-118931347D01*
X277750279Y-119016876D01*
X278219668Y-118547486D01*
X278223978Y-118557890D01*
X278295112Y-118664351D01*
X278385649Y-118754888D01*
X278492110Y-118826022D01*
X278502510Y-118830330D01*
X278033121Y-119299719D01*
X278033122Y-119299720D01*
X278118640Y-119361852D01*
X278118649Y-119361858D01*
X278300968Y-119454755D01*
X278495582Y-119517990D01*
X278697683Y-119550000D01*
X278902317Y-119550000D01*
X279104417Y-119517990D01*
X279299031Y-119454755D01*
X279481349Y-119361859D01*
X279566876Y-119299719D01*
X279566877Y-119299718D01*
X279097489Y-118830330D01*
X279107890Y-118826022D01*
X279214351Y-118754888D01*
X279304888Y-118664351D01*
X279376022Y-118557890D01*
X279380330Y-118547488D01*
X279849718Y-119016877D01*
X279849719Y-119016876D01*
X279911859Y-118931349D01*
X280004755Y-118749031D01*
X280067990Y-118554417D01*
X280100000Y-118352317D01*
X280100000Y-118147682D01*
X280067990Y-117945582D01*
X280004755Y-117750968D01*
X279911858Y-117568649D01*
X279911852Y-117568640D01*
X279849720Y-117483122D01*
X279849719Y-117483121D01*
X279380330Y-117952510D01*
X279376022Y-117942110D01*
X279304888Y-117835649D01*
X279214351Y-117745112D01*
X279107890Y-117673978D01*
X279097487Y-117669669D01*
X279566876Y-117200279D01*
X279481347Y-117138139D01*
X279327960Y-117059985D01*
X279277164Y-117012010D01*
X279260369Y-116944189D01*
X279282906Y-116878055D01*
X279337621Y-116834603D01*
X279384255Y-116825500D01*
X284295613Y-116825500D01*
X284362652Y-116845185D01*
X284383294Y-116861818D01*
X284461985Y-116940509D01*
X284461987Y-116940510D01*
X284461988Y-116940511D01*
X284587511Y-117012982D01*
X284587512Y-117012982D01*
X284587515Y-117012984D01*
X284727525Y-117050500D01*
X284727528Y-117050500D01*
X284872472Y-117050500D01*
X284872475Y-117050500D01*
X285012485Y-117012984D01*
X285138015Y-116940509D01*
X285240509Y-116838015D01*
X285312984Y-116712485D01*
X285350500Y-116572475D01*
X285350500Y-116427525D01*
X285312984Y-116287515D01*
X285246098Y-116171666D01*
X285240511Y-116161988D01*
X285240506Y-116161982D01*
X285138017Y-116059493D01*
X285138011Y-116059488D01*
X285012488Y-115987017D01*
X285012489Y-115987017D01*
X285001006Y-115983940D01*
X284872475Y-115949500D01*
X284727525Y-115949500D01*
X284598993Y-115983940D01*
X284587511Y-115987017D01*
X284461988Y-116059488D01*
X284383294Y-116138182D01*
X284321970Y-116171666D01*
X284295613Y-116174500D01*
X272461442Y-116174500D01*
X272405147Y-116160985D01*
X272260836Y-116087454D01*
X272081118Y-116029059D01*
X271894486Y-115999500D01*
X271894481Y-115999500D01*
X271705519Y-115999500D01*
X271705514Y-115999500D01*
X271518881Y-116029059D01*
X271339163Y-116087454D01*
X271170800Y-116173240D01*
X271083579Y-116236610D01*
X271017927Y-116284310D01*
X271017925Y-116284312D01*
X271017924Y-116284312D01*
X270884312Y-116417924D01*
X270884312Y-116417925D01*
X270884310Y-116417927D01*
X270836610Y-116483579D01*
X270773240Y-116570800D01*
X270687454Y-116739163D01*
X270629059Y-116918881D01*
X270599500Y-117105513D01*
X247184036Y-117105513D01*
X247138014Y-117059491D01*
X247138012Y-117059490D01*
X247138010Y-117059488D01*
X247012487Y-116987017D01*
X247012488Y-116987017D01*
X247001005Y-116983940D01*
X246872474Y-116949500D01*
X246727524Y-116949500D01*
X246598992Y-116983940D01*
X246587510Y-116987017D01*
X246461987Y-117059488D01*
X246461981Y-117059493D01*
X246458294Y-117063181D01*
X246396971Y-117096666D01*
X246370613Y-117099500D01*
X232029386Y-117099500D01*
X231962347Y-117079815D01*
X231941705Y-117063181D01*
X231938017Y-117059493D01*
X231938011Y-117059488D01*
X231812488Y-116987017D01*
X231812489Y-116987017D01*
X231801006Y-116983940D01*
X231672475Y-116949500D01*
X231527525Y-116949500D01*
X231398993Y-116983940D01*
X231387511Y-116987017D01*
X231261988Y-117059488D01*
X231261982Y-117059493D01*
X231159493Y-117161982D01*
X231159488Y-117161988D01*
X231087017Y-117287511D01*
X231087016Y-117287515D01*
X231049500Y-117427525D01*
X205500500Y-117427525D01*
X205500500Y-108227525D01*
X228849499Y-108227525D01*
X228849499Y-108372475D01*
X228887015Y-108512485D01*
X228887016Y-108512488D01*
X228959487Y-108638011D01*
X228959492Y-108638017D01*
X229038180Y-108716705D01*
X229071665Y-108778028D01*
X229074499Y-108804386D01*
X229074499Y-112342852D01*
X229096681Y-112425640D01*
X229118107Y-112462750D01*
X229139534Y-112499862D01*
X230339533Y-113699859D01*
X230339535Y-113699862D01*
X230400138Y-113760465D01*
X230437250Y-113781891D01*
X230446370Y-113787157D01*
X230446373Y-113787159D01*
X230465709Y-113798322D01*
X230474361Y-113803318D01*
X230557147Y-113825500D01*
X230642853Y-113825500D01*
X248095613Y-113825500D01*
X248162652Y-113845185D01*
X248183294Y-113861818D01*
X248261985Y-113940509D01*
X248261987Y-113940510D01*
X248261988Y-113940511D01*
X248387511Y-114012982D01*
X248387512Y-114012982D01*
X248387515Y-114012984D01*
X248527525Y-114050500D01*
X248527528Y-114050500D01*
X248638811Y-114050500D01*
X248705850Y-114070185D01*
X248726492Y-114086819D01*
X248739534Y-114099861D01*
X248739535Y-114099862D01*
X248800138Y-114160465D01*
X248800140Y-114160466D01*
X248800144Y-114160469D01*
X248874355Y-114203314D01*
X248874362Y-114203318D01*
X248957147Y-114225500D01*
X251895612Y-114225500D01*
X251962651Y-114245185D01*
X251983293Y-114261818D01*
X252061984Y-114340509D01*
X252061986Y-114340510D01*
X252061987Y-114340511D01*
X252187510Y-114412982D01*
X252187511Y-114412982D01*
X252187514Y-114412984D01*
X252327524Y-114450500D01*
X252327527Y-114450500D01*
X252472471Y-114450500D01*
X252472474Y-114450500D01*
X252612484Y-114412984D01*
X252738014Y-114340509D01*
X252840508Y-114238015D01*
X252912983Y-114112485D01*
X252950499Y-113972475D01*
X252950499Y-113827525D01*
X252912983Y-113687515D01*
X252846564Y-113572475D01*
X252840510Y-113561988D01*
X252840505Y-113561982D01*
X252738016Y-113459493D01*
X252738010Y-113459488D01*
X252612487Y-113387017D01*
X252612488Y-113387017D01*
X252601005Y-113383940D01*
X252472474Y-113349500D01*
X252327524Y-113349500D01*
X252198992Y-113383940D01*
X252187510Y-113387017D01*
X252061987Y-113459488D01*
X251983293Y-113538182D01*
X251921969Y-113571666D01*
X251895612Y-113574500D01*
X249274500Y-113574500D01*
X249207461Y-113554815D01*
X249161706Y-113502011D01*
X249150500Y-113450500D01*
X249150500Y-113427527D01*
X249150500Y-113427525D01*
X249112984Y-113287515D01*
X249046620Y-113172570D01*
X249040511Y-113161988D01*
X249040506Y-113161982D01*
X248938017Y-113059493D01*
X248938015Y-113059491D01*
X248938012Y-113059489D01*
X248938008Y-113059486D01*
X248933504Y-113056886D01*
X248885289Y-113006319D01*
X248872067Y-112937712D01*
X248898035Y-112872847D01*
X248954950Y-112832319D01*
X248995505Y-112825500D01*
X249957147Y-112825500D01*
X250042853Y-112825500D01*
X251895612Y-112825500D01*
X251962651Y-112845185D01*
X251983293Y-112861818D01*
X252061984Y-112940509D01*
X252061986Y-112940510D01*
X252061987Y-112940511D01*
X252187510Y-113012982D01*
X252187511Y-113012982D01*
X252187514Y-113012984D01*
X252327524Y-113050500D01*
X252327527Y-113050500D01*
X252472471Y-113050500D01*
X252472474Y-113050500D01*
X252612484Y-113012984D01*
X252738014Y-112940509D01*
X252840508Y-112838015D01*
X252912983Y-112712485D01*
X252950499Y-112572475D01*
X252950499Y-112427525D01*
X252912983Y-112287515D01*
X252904562Y-112272930D01*
X252840510Y-112161988D01*
X252840505Y-112161982D01*
X252738016Y-112059493D01*
X252738010Y-112059488D01*
X252612487Y-111987017D01*
X252612488Y-111987017D01*
X252601005Y-111983940D01*
X252472474Y-111949500D01*
X252327524Y-111949500D01*
X252198992Y-111983940D01*
X252187510Y-111987017D01*
X252061987Y-112059488D01*
X251983293Y-112138182D01*
X251921969Y-112171666D01*
X251895612Y-112174500D01*
X250674500Y-112174500D01*
X250607461Y-112154815D01*
X250561706Y-112102011D01*
X250550500Y-112050500D01*
X250550500Y-112027527D01*
X250550500Y-112027525D01*
X250512984Y-111887515D01*
X250510878Y-111883868D01*
X250440511Y-111761988D01*
X250440506Y-111761982D01*
X250338017Y-111659493D01*
X250338011Y-111659488D01*
X250212488Y-111587017D01*
X250212489Y-111587017D01*
X250201006Y-111583940D01*
X250072475Y-111549500D01*
X249927525Y-111549500D01*
X249798993Y-111583940D01*
X249787511Y-111587017D01*
X249661988Y-111659488D01*
X249661982Y-111659493D01*
X249559493Y-111761982D01*
X249559488Y-111761988D01*
X249487017Y-111887511D01*
X249487016Y-111887515D01*
X249449500Y-112027525D01*
X249449500Y-112027527D01*
X249449500Y-112050500D01*
X249429815Y-112117539D01*
X249377011Y-112163294D01*
X249325500Y-112174500D01*
X230986188Y-112174500D01*
X230956747Y-112165855D01*
X230926761Y-112159332D01*
X230921745Y-112155577D01*
X230919149Y-112154815D01*
X230898507Y-112138181D01*
X230867507Y-112107181D01*
X230834022Y-112045858D01*
X230839006Y-111976166D01*
X230880878Y-111920233D01*
X230946342Y-111895816D01*
X230955188Y-111895500D01*
X232394750Y-111895500D01*
X232394751Y-111895499D01*
X232409568Y-111892552D01*
X232453229Y-111883868D01*
X232453229Y-111883867D01*
X232453231Y-111883867D01*
X232519552Y-111839552D01*
X232538198Y-111811645D01*
X232591809Y-111766842D01*
X232661134Y-111758133D01*
X232710192Y-111777435D01*
X232761610Y-111811792D01*
X232761612Y-111811793D01*
X232761616Y-111811795D01*
X232895457Y-111867233D01*
X232895462Y-111867235D01*
X232997397Y-111887511D01*
X233037555Y-111895499D01*
X233037559Y-111895500D01*
X233037560Y-111895500D01*
X233612441Y-111895500D01*
X233612442Y-111895499D01*
X233754538Y-111867235D01*
X233888390Y-111811792D01*
X234008854Y-111731300D01*
X234111300Y-111628854D01*
X234191792Y-111508390D01*
X234247235Y-111374538D01*
X234275500Y-111232440D01*
X234275500Y-111087560D01*
X234247235Y-110945462D01*
X234212589Y-110861819D01*
X234191795Y-110811616D01*
X234191788Y-110811603D01*
X234111300Y-110691146D01*
X234111297Y-110691142D01*
X234103192Y-110683037D01*
X234069707Y-110621714D01*
X234074691Y-110552022D01*
X234103193Y-110507674D01*
X234188584Y-110422284D01*
X234188587Y-110422280D01*
X234279963Y-110285527D01*
X234279970Y-110285514D01*
X234342910Y-110133562D01*
X234342913Y-110133553D01*
X234351576Y-110090000D01*
X233449000Y-110090000D01*
X233405970Y-110077364D01*
X233436148Y-110025095D01*
X233460000Y-109936078D01*
X233460000Y-109843922D01*
X233436148Y-109754905D01*
X233398675Y-109690000D01*
X233525000Y-109690000D01*
X234351576Y-109690000D01*
X234351576Y-109689999D01*
X234342913Y-109646446D01*
X234342910Y-109646437D01*
X234279970Y-109494485D01*
X234279963Y-109494472D01*
X234188588Y-109357720D01*
X234173551Y-109342684D01*
X234140064Y-109281361D01*
X234145047Y-109211669D01*
X234173551Y-109167316D01*
X234188588Y-109152279D01*
X234279963Y-109015527D01*
X234279970Y-109015514D01*
X234342910Y-108863562D01*
X234342913Y-108863553D01*
X234351576Y-108820000D01*
X233525000Y-108820000D01*
X233525000Y-109690000D01*
X233398675Y-109690000D01*
X233390070Y-109675095D01*
X233324905Y-109609930D01*
X233245095Y-109563852D01*
X233156078Y-109540000D01*
X233125000Y-109540000D01*
X233125000Y-108970000D01*
X233156078Y-108970000D01*
X233245095Y-108946148D01*
X233324905Y-108900070D01*
X233390070Y-108834905D01*
X233436148Y-108755095D01*
X233460000Y-108666078D01*
X233460000Y-108573922D01*
X233436148Y-108484905D01*
X233398675Y-108420000D01*
X233525000Y-108420000D01*
X234351576Y-108420000D01*
X234351576Y-108419999D01*
X234342913Y-108376446D01*
X234342910Y-108376437D01*
X234279970Y-108224485D01*
X234279963Y-108224472D01*
X234188588Y-108087720D01*
X234173551Y-108072684D01*
X234140064Y-108011361D01*
X234145047Y-107941669D01*
X234173551Y-107897316D01*
X234188588Y-107882279D01*
X234279963Y-107745527D01*
X234279970Y-107745514D01*
X234342910Y-107593562D01*
X234342913Y-107593553D01*
X234351576Y-107550000D01*
X233525000Y-107550000D01*
X233525000Y-108420000D01*
X233398675Y-108420000D01*
X233390070Y-108405095D01*
X233324905Y-108339930D01*
X233245095Y-108293852D01*
X233156078Y-108270000D01*
X233125000Y-108270000D01*
X233125000Y-107700000D01*
X233156078Y-107700000D01*
X233245095Y-107676148D01*
X233324905Y-107630070D01*
X233390070Y-107564905D01*
X233436148Y-107485095D01*
X233460000Y-107396078D01*
X233460000Y-107303922D01*
X233436148Y-107214905D01*
X233398675Y-107150000D01*
X233525000Y-107150000D01*
X234351576Y-107150000D01*
X234351576Y-107149999D01*
X234342913Y-107106446D01*
X234342910Y-107106437D01*
X234279970Y-106954485D01*
X234279963Y-106954472D01*
X234188588Y-106817720D01*
X234173551Y-106802684D01*
X234140064Y-106741361D01*
X234145047Y-106671669D01*
X234173551Y-106627316D01*
X234188588Y-106612279D01*
X234279963Y-106475527D01*
X234279970Y-106475514D01*
X234342910Y-106323562D01*
X234342913Y-106323553D01*
X234351576Y-106280000D01*
X233525000Y-106280000D01*
X233525000Y-107150000D01*
X233398675Y-107150000D01*
X233390070Y-107135095D01*
X233324905Y-107069930D01*
X233245095Y-107023852D01*
X233156078Y-107000000D01*
X233125000Y-107000000D01*
X233125000Y-106430000D01*
X233156078Y-106430000D01*
X233245095Y-106406148D01*
X233324905Y-106360070D01*
X233390070Y-106294905D01*
X233436148Y-106215095D01*
X233460000Y-106126078D01*
X233460000Y-106033922D01*
X233436148Y-105944905D01*
X233398675Y-105880000D01*
X233525000Y-105880000D01*
X234351576Y-105880000D01*
X234351576Y-105879999D01*
X234342913Y-105836446D01*
X234342910Y-105836437D01*
X234279970Y-105684485D01*
X234279963Y-105684472D01*
X234188588Y-105547720D01*
X234173551Y-105532684D01*
X234140064Y-105471361D01*
X234145047Y-105401669D01*
X234173551Y-105357316D01*
X234188588Y-105342279D01*
X234279963Y-105205527D01*
X234279970Y-105205514D01*
X234342910Y-105053562D01*
X234342913Y-105053553D01*
X234351576Y-105010000D01*
X233525000Y-105010000D01*
X233525000Y-105880000D01*
X233398675Y-105880000D01*
X233390070Y-105865095D01*
X233324905Y-105799930D01*
X233245095Y-105753852D01*
X233156078Y-105730000D01*
X233125000Y-105730000D01*
X233125000Y-105160000D01*
X233156078Y-105160000D01*
X233245095Y-105136148D01*
X233324905Y-105090070D01*
X233390070Y-105024905D01*
X233436148Y-104945095D01*
X233460000Y-104856078D01*
X233460000Y-104763922D01*
X233436148Y-104674905D01*
X233404290Y-104619726D01*
X233449000Y-104610000D01*
X234351576Y-104610000D01*
X234351576Y-104609999D01*
X234342913Y-104566446D01*
X234342910Y-104566437D01*
X234279970Y-104414485D01*
X234279963Y-104414472D01*
X234188587Y-104277719D01*
X234188584Y-104277715D01*
X234148050Y-104237181D01*
X234114565Y-104175858D01*
X234119549Y-104106166D01*
X234161421Y-104050233D01*
X234226885Y-104025816D01*
X234235731Y-104025500D01*
X250813811Y-104025500D01*
X250880850Y-104045185D01*
X250901492Y-104061819D01*
X256778888Y-109939215D01*
X256812373Y-110000538D01*
X256807389Y-110070230D01*
X256765517Y-110126163D01*
X256700053Y-110150580D01*
X256675024Y-110149835D01*
X256672479Y-110149500D01*
X256672475Y-110149500D01*
X256527525Y-110149500D01*
X256398993Y-110183940D01*
X256387511Y-110187017D01*
X256261988Y-110259488D01*
X256183294Y-110338182D01*
X256121970Y-110371666D01*
X256095613Y-110374500D01*
X240304386Y-110374500D01*
X240237347Y-110354815D01*
X240216705Y-110338182D01*
X240208645Y-110330122D01*
X240138014Y-110259491D01*
X240138011Y-110259489D01*
X240138010Y-110259488D01*
X240012487Y-110187017D01*
X240012488Y-110187017D01*
X240001005Y-110183940D01*
X239872474Y-110149500D01*
X239727524Y-110149500D01*
X239598992Y-110183940D01*
X239587510Y-110187017D01*
X239461987Y-110259488D01*
X239461981Y-110259493D01*
X239359492Y-110361982D01*
X239359487Y-110361988D01*
X239287016Y-110487511D01*
X239287015Y-110487515D01*
X239249499Y-110627525D01*
X239249499Y-110772475D01*
X239268982Y-110845185D01*
X239287016Y-110912488D01*
X239359487Y-111038011D01*
X239359489Y-111038013D01*
X239359490Y-111038015D01*
X239461984Y-111140509D01*
X239461985Y-111140510D01*
X239461987Y-111140511D01*
X239587510Y-111212982D01*
X239587511Y-111212982D01*
X239587514Y-111212984D01*
X239727524Y-111250500D01*
X239727527Y-111250500D01*
X239872471Y-111250500D01*
X239872474Y-111250500D01*
X240012484Y-111212984D01*
X240138014Y-111140509D01*
X240216705Y-111061818D01*
X240278029Y-111028334D01*
X240304386Y-111025500D01*
X256095613Y-111025500D01*
X256162652Y-111045185D01*
X256183294Y-111061818D01*
X256261985Y-111140509D01*
X256261987Y-111140510D01*
X256261988Y-111140511D01*
X256387511Y-111212982D01*
X256387512Y-111212982D01*
X256387515Y-111212984D01*
X256527525Y-111250500D01*
X256527528Y-111250500D01*
X256672472Y-111250500D01*
X256672475Y-111250500D01*
X256812485Y-111212984D01*
X256938015Y-111140509D01*
X257040509Y-111038015D01*
X257112984Y-110912485D01*
X257150500Y-110772475D01*
X257150500Y-110627525D01*
X257150499Y-110627522D01*
X257150165Y-110624985D01*
X257150500Y-110622835D01*
X257150500Y-110619398D01*
X257151036Y-110619398D01*
X257160926Y-110555949D01*
X257207303Y-110503690D01*
X257274571Y-110484801D01*
X257341372Y-110505277D01*
X257360784Y-110521111D01*
X257600138Y-110760465D01*
X257674361Y-110803318D01*
X257757147Y-110825500D01*
X261295613Y-110825500D01*
X261325053Y-110834144D01*
X261355040Y-110840668D01*
X261360055Y-110844422D01*
X261362652Y-110845185D01*
X261383294Y-110861819D01*
X261438181Y-110916706D01*
X261471666Y-110978029D01*
X261474500Y-111004387D01*
X261474500Y-114595613D01*
X261454815Y-114662652D01*
X261438182Y-114683294D01*
X261359488Y-114761988D01*
X261287017Y-114887511D01*
X261287016Y-114887515D01*
X261249500Y-115027525D01*
X261249500Y-115172475D01*
X261253811Y-115188562D01*
X261287017Y-115312488D01*
X261359488Y-115438011D01*
X261359490Y-115438013D01*
X261359491Y-115438015D01*
X261461985Y-115540509D01*
X261461986Y-115540510D01*
X261461988Y-115540511D01*
X261587511Y-115612982D01*
X261587512Y-115612982D01*
X261587515Y-115612984D01*
X261727525Y-115650500D01*
X261727528Y-115650500D01*
X261872472Y-115650500D01*
X261872475Y-115650500D01*
X262012485Y-115612984D01*
X262138015Y-115540509D01*
X262240509Y-115438015D01*
X262312984Y-115312485D01*
X262350500Y-115172475D01*
X262350500Y-115027525D01*
X262312984Y-114887515D01*
X262304803Y-114873346D01*
X262240511Y-114761988D01*
X262240510Y-114761987D01*
X262240509Y-114761985D01*
X262161818Y-114683294D01*
X262128334Y-114621970D01*
X262125500Y-114595613D01*
X262125500Y-112336824D01*
X273294500Y-112336824D01*
X273294500Y-112663175D01*
X273331035Y-112987441D01*
X273331037Y-112987453D01*
X273331038Y-112987456D01*
X273336864Y-113012982D01*
X273403655Y-113305612D01*
X273403656Y-113305614D01*
X273511438Y-113613640D01*
X273653030Y-113907657D01*
X273693756Y-113972472D01*
X273826654Y-114183979D01*
X274030123Y-114439121D01*
X274260879Y-114669877D01*
X274516021Y-114873346D01*
X274792340Y-115046968D01*
X275086361Y-115188562D01*
X275394387Y-115296344D01*
X275712544Y-115368962D01*
X275712553Y-115368963D01*
X275712558Y-115368964D01*
X275928735Y-115393320D01*
X276036825Y-115405499D01*
X276036828Y-115405500D01*
X276036831Y-115405500D01*
X276363172Y-115405500D01*
X276363173Y-115405499D01*
X276528900Y-115386826D01*
X276687441Y-115368964D01*
X276687444Y-115368963D01*
X276687456Y-115368962D01*
X277005613Y-115296344D01*
X277313639Y-115188562D01*
X277607660Y-115046968D01*
X277883979Y-114873346D01*
X278139121Y-114669877D01*
X278369877Y-114439121D01*
X278573346Y-114183979D01*
X278746968Y-113907660D01*
X278888562Y-113613639D01*
X278996344Y-113305613D01*
X279068962Y-112987456D01*
X279071251Y-112967147D01*
X279099943Y-112712485D01*
X279105500Y-112663169D01*
X279105500Y-112336831D01*
X279085800Y-112161985D01*
X279068964Y-112012558D01*
X279068963Y-112012553D01*
X279068962Y-112012544D01*
X278996344Y-111694387D01*
X278888562Y-111386361D01*
X278746968Y-111092340D01*
X278573346Y-110816021D01*
X278369877Y-110560879D01*
X278139121Y-110330123D01*
X277883979Y-110126654D01*
X277661747Y-109987017D01*
X277607657Y-109953030D01*
X277313640Y-109811438D01*
X277005614Y-109703656D01*
X277005612Y-109703655D01*
X276754923Y-109646437D01*
X276687456Y-109631038D01*
X276687453Y-109631037D01*
X276687441Y-109631035D01*
X276363175Y-109594500D01*
X276363169Y-109594500D01*
X276036831Y-109594500D01*
X276036824Y-109594500D01*
X275712558Y-109631035D01*
X275712544Y-109631038D01*
X275394387Y-109703655D01*
X275394385Y-109703656D01*
X275086359Y-109811438D01*
X274792342Y-109953030D01*
X274516022Y-110126653D01*
X274260879Y-110330122D01*
X274030122Y-110560879D01*
X273826653Y-110816022D01*
X273653030Y-111092342D01*
X273511438Y-111386359D01*
X273403656Y-111694385D01*
X273403655Y-111694387D01*
X273331038Y-112012544D01*
X273331035Y-112012558D01*
X273294500Y-112336824D01*
X262125500Y-112336824D01*
X262125500Y-111004386D01*
X262145185Y-110937347D01*
X262161819Y-110916705D01*
X262166039Y-110912485D01*
X262240509Y-110838015D01*
X262312984Y-110712485D01*
X262350500Y-110572475D01*
X262350500Y-110427525D01*
X262312984Y-110287515D01*
X262311836Y-110285527D01*
X262240511Y-110161988D01*
X262240506Y-110161982D01*
X262138017Y-110059493D01*
X262138011Y-110059488D01*
X262012488Y-109987017D01*
X262012489Y-109987017D01*
X262001006Y-109983940D01*
X261872475Y-109949500D01*
X261727525Y-109949500D01*
X261598993Y-109983940D01*
X261587511Y-109987017D01*
X261461988Y-110059488D01*
X261383294Y-110138182D01*
X261321970Y-110171666D01*
X261295613Y-110174500D01*
X257986189Y-110174500D01*
X257919150Y-110154815D01*
X257898508Y-110138181D01*
X254587852Y-106827525D01*
X259649500Y-106827525D01*
X259649500Y-106972475D01*
X259685398Y-107106446D01*
X259687017Y-107112488D01*
X259759488Y-107238011D01*
X259759490Y-107238013D01*
X259759491Y-107238015D01*
X259861985Y-107340509D01*
X259861986Y-107340510D01*
X259861988Y-107340511D01*
X259987511Y-107412982D01*
X259987512Y-107412982D01*
X259987515Y-107412984D01*
X260127525Y-107450500D01*
X260127528Y-107450500D01*
X260238811Y-107450500D01*
X260305850Y-107470185D01*
X260326492Y-107486819D01*
X260800138Y-107960465D01*
X260874361Y-108003318D01*
X260957147Y-108025500D01*
X268004494Y-108025500D01*
X268071533Y-108045185D01*
X268117288Y-108097989D01*
X268127232Y-108167147D01*
X268098207Y-108230703D01*
X268066495Y-108256886D01*
X268061990Y-108259486D01*
X268061981Y-108259493D01*
X267959492Y-108361982D01*
X267959487Y-108361988D01*
X267887016Y-108487511D01*
X267887015Y-108487515D01*
X267849499Y-108627525D01*
X267849499Y-108772475D01*
X267887015Y-108912485D01*
X267887016Y-108912488D01*
X267959487Y-109038011D01*
X267959489Y-109038013D01*
X267959490Y-109038015D01*
X268061984Y-109140509D01*
X268061985Y-109140510D01*
X268061987Y-109140511D01*
X268187510Y-109212982D01*
X268187511Y-109212982D01*
X268187514Y-109212984D01*
X268327524Y-109250500D01*
X268327527Y-109250500D01*
X268472471Y-109250500D01*
X268472474Y-109250500D01*
X268612484Y-109212984D01*
X268738014Y-109140509D01*
X268741704Y-109136819D01*
X268803027Y-109103334D01*
X268829385Y-109100500D01*
X284652725Y-109100500D01*
X284652727Y-109100500D01*
X284754588Y-109073207D01*
X284845913Y-109020480D01*
X285379574Y-108486819D01*
X285440897Y-108453334D01*
X285467255Y-108450500D01*
X285472472Y-108450500D01*
X285472475Y-108450500D01*
X285612485Y-108412984D01*
X285738015Y-108340509D01*
X285840509Y-108238015D01*
X285912984Y-108112485D01*
X285950500Y-107972475D01*
X285950500Y-107827525D01*
X285912984Y-107687515D01*
X285906421Y-107676148D01*
X285840511Y-107561988D01*
X285840506Y-107561982D01*
X285738017Y-107459493D01*
X285738011Y-107459488D01*
X285612488Y-107387017D01*
X285612489Y-107387017D01*
X285601006Y-107383940D01*
X285472475Y-107349500D01*
X285327525Y-107349500D01*
X285198993Y-107383940D01*
X285187511Y-107387017D01*
X285061988Y-107459488D01*
X285061982Y-107459493D01*
X284959493Y-107561982D01*
X284959488Y-107561988D01*
X284887017Y-107687511D01*
X284887016Y-107687515D01*
X284849500Y-107827525D01*
X284849500Y-107827527D01*
X284849500Y-107832745D01*
X284829815Y-107899784D01*
X284813181Y-107920426D01*
X284470426Y-108263181D01*
X284409103Y-108296666D01*
X284382745Y-108299500D01*
X281878386Y-108299500D01*
X281811347Y-108279815D01*
X281765592Y-108227011D01*
X281755648Y-108157853D01*
X281784673Y-108094297D01*
X281790705Y-108087819D01*
X281810500Y-108068024D01*
X281840509Y-108038015D01*
X281912984Y-107912485D01*
X281950500Y-107772475D01*
X281950500Y-107627525D01*
X281912984Y-107487515D01*
X281902978Y-107470185D01*
X281840511Y-107361988D01*
X281840506Y-107361982D01*
X281738017Y-107259493D01*
X281738015Y-107259491D01*
X281738012Y-107259489D01*
X281738008Y-107259486D01*
X281733504Y-107256886D01*
X281685289Y-107206319D01*
X281672067Y-107137712D01*
X281698035Y-107072847D01*
X281754950Y-107032319D01*
X281795505Y-107025500D01*
X283695613Y-107025500D01*
X283762652Y-107045185D01*
X283783294Y-107061818D01*
X283861985Y-107140509D01*
X283861987Y-107140510D01*
X283861988Y-107140511D01*
X283987511Y-107212982D01*
X283987512Y-107212982D01*
X283987515Y-107212984D01*
X284127525Y-107250500D01*
X284127528Y-107250500D01*
X284272472Y-107250500D01*
X284272475Y-107250500D01*
X284412485Y-107212984D01*
X284538015Y-107140509D01*
X284640509Y-107038015D01*
X284712984Y-106912485D01*
X284750500Y-106772475D01*
X284750500Y-106627525D01*
X284712984Y-106487515D01*
X284706055Y-106475514D01*
X284640511Y-106361988D01*
X284640506Y-106361982D01*
X284538017Y-106259493D01*
X284538015Y-106259491D01*
X284538012Y-106259489D01*
X284538008Y-106259486D01*
X284533504Y-106256886D01*
X284485289Y-106206319D01*
X284472067Y-106137712D01*
X284498035Y-106072847D01*
X284554950Y-106032319D01*
X284595505Y-106025500D01*
X301695613Y-106025500D01*
X301762652Y-106045185D01*
X301783294Y-106061818D01*
X301861985Y-106140509D01*
X301861987Y-106140510D01*
X301861988Y-106140511D01*
X301987511Y-106212982D01*
X301987512Y-106212982D01*
X301987515Y-106212984D01*
X302127525Y-106250500D01*
X302127528Y-106250500D01*
X302272472Y-106250500D01*
X302272475Y-106250500D01*
X302412485Y-106212984D01*
X302538015Y-106140509D01*
X302640509Y-106038015D01*
X302712984Y-105912485D01*
X302750500Y-105772475D01*
X302750500Y-105627525D01*
X302712984Y-105487515D01*
X302703657Y-105471361D01*
X302640511Y-105361988D01*
X302640506Y-105361982D01*
X302538017Y-105259493D01*
X302538011Y-105259488D01*
X302412488Y-105187017D01*
X302412489Y-105187017D01*
X302401006Y-105183940D01*
X302272475Y-105149500D01*
X302127525Y-105149500D01*
X301998993Y-105183940D01*
X301987511Y-105187017D01*
X301861988Y-105259488D01*
X301783294Y-105338182D01*
X301721970Y-105371666D01*
X301695613Y-105374500D01*
X260904386Y-105374500D01*
X260837347Y-105354815D01*
X260816705Y-105338182D01*
X260738014Y-105259491D01*
X260738011Y-105259489D01*
X260738010Y-105259488D01*
X260612487Y-105187017D01*
X260612488Y-105187017D01*
X260601005Y-105183940D01*
X260472474Y-105149500D01*
X260327524Y-105149500D01*
X260198992Y-105183940D01*
X260187510Y-105187017D01*
X260061987Y-105259488D01*
X260061981Y-105259493D01*
X259959492Y-105361982D01*
X259959487Y-105361988D01*
X259887016Y-105487511D01*
X259887015Y-105487515D01*
X259849499Y-105627525D01*
X259849499Y-105772475D01*
X259878311Y-105880000D01*
X259887016Y-105912488D01*
X259959487Y-106038011D01*
X259959489Y-106038013D01*
X259959490Y-106038015D01*
X260061984Y-106140509D01*
X260070286Y-106145302D01*
X260070743Y-106145566D01*
X260118959Y-106196133D01*
X260132182Y-106264740D01*
X260106214Y-106329605D01*
X260049299Y-106370133D01*
X260040838Y-106372727D01*
X259987516Y-106387015D01*
X259987511Y-106387017D01*
X259861988Y-106459488D01*
X259861982Y-106459493D01*
X259759493Y-106561982D01*
X259759488Y-106561988D01*
X259687017Y-106687511D01*
X259687016Y-106687515D01*
X259649500Y-106827525D01*
X254587852Y-106827525D01*
X251660327Y-103900000D01*
X305190000Y-103900000D01*
X305242070Y-104428692D01*
X305396287Y-104937076D01*
X305646713Y-105405589D01*
X305646717Y-105405596D01*
X305983739Y-105816259D01*
X306394402Y-106153281D01*
X306394409Y-106153285D01*
X306862922Y-106403711D01*
X306862924Y-106403711D01*
X306862927Y-106403713D01*
X307371305Y-106557928D01*
X307371304Y-106557928D01*
X307412466Y-106561982D01*
X307900000Y-106610000D01*
X308428694Y-106557928D01*
X308937072Y-106403713D01*
X308995337Y-106372570D01*
X309153026Y-106288283D01*
X309405595Y-106153282D01*
X309816259Y-105816259D01*
X310153282Y-105405595D01*
X310403713Y-104937072D01*
X310557928Y-104428694D01*
X310609999Y-103900000D01*
X310557928Y-103371305D01*
X310403713Y-102862927D01*
X310403711Y-102862924D01*
X310403711Y-102862922D01*
X310153285Y-102394409D01*
X310153281Y-102394402D01*
X309816259Y-101983739D01*
X309405596Y-101646717D01*
X309405589Y-101646713D01*
X308937076Y-101396287D01*
X308428692Y-101242070D01*
X307900000Y-101190000D01*
X307371306Y-101242070D01*
X306862922Y-101396287D01*
X306394409Y-101646713D01*
X306394402Y-101646717D01*
X305983739Y-101983739D01*
X305646717Y-102394402D01*
X305646713Y-102394409D01*
X305396287Y-102862922D01*
X305242070Y-103371306D01*
X305190000Y-103900000D01*
X251660327Y-103900000D01*
X251397508Y-103637181D01*
X251364023Y-103575858D01*
X251369007Y-103506166D01*
X251410879Y-103450233D01*
X251476343Y-103425816D01*
X251485189Y-103425500D01*
X263695613Y-103425500D01*
X263762652Y-103445185D01*
X263783294Y-103461818D01*
X263861985Y-103540509D01*
X263861987Y-103540510D01*
X263861988Y-103540511D01*
X263987511Y-103612982D01*
X263987512Y-103612982D01*
X263987515Y-103612984D01*
X264127525Y-103650500D01*
X264127528Y-103650500D01*
X264272472Y-103650500D01*
X264272475Y-103650500D01*
X264412485Y-103612984D01*
X264538015Y-103540509D01*
X264640509Y-103438015D01*
X264712984Y-103312485D01*
X264750500Y-103172475D01*
X264750500Y-103027525D01*
X264712984Y-102887515D01*
X264685283Y-102839536D01*
X264640511Y-102761988D01*
X264640506Y-102761982D01*
X264538017Y-102659493D01*
X264538011Y-102659488D01*
X264412488Y-102587017D01*
X264412489Y-102587017D01*
X264401006Y-102583940D01*
X264272475Y-102549500D01*
X264127525Y-102549500D01*
X263998993Y-102583940D01*
X263987511Y-102587017D01*
X263861988Y-102659488D01*
X263783294Y-102738182D01*
X263721970Y-102771666D01*
X263695613Y-102774500D01*
X231450464Y-102774500D01*
X231450448Y-102774499D01*
X231442852Y-102774499D01*
X231357147Y-102774499D01*
X231315754Y-102785590D01*
X231274359Y-102796682D01*
X231274354Y-102796685D01*
X231200143Y-102839530D01*
X231200135Y-102839536D01*
X230139536Y-103900135D01*
X230139532Y-103900141D01*
X230096681Y-103974359D01*
X230092519Y-103989896D01*
X230074499Y-104057147D01*
X230074499Y-105542852D01*
X230096681Y-105625640D01*
X230118107Y-105662750D01*
X230139534Y-105699862D01*
X230539533Y-106099861D01*
X230539534Y-106099862D01*
X230600137Y-106160465D01*
X230600138Y-106160466D01*
X230600140Y-106160467D01*
X230637294Y-106181918D01*
X230685510Y-106232485D01*
X230696911Y-106265111D01*
X230702764Y-106294535D01*
X230702766Y-106294542D01*
X230758204Y-106428383D01*
X230758211Y-106428396D01*
X230838699Y-106548853D01*
X230838702Y-106548857D01*
X230917164Y-106627319D01*
X230950649Y-106688642D01*
X230945665Y-106758334D01*
X230917164Y-106802681D01*
X230838702Y-106881142D01*
X230838699Y-106881146D01*
X230758211Y-107001603D01*
X230758204Y-107001616D01*
X230702766Y-107135457D01*
X230700996Y-107141294D01*
X230698645Y-107140581D01*
X230671244Y-107192929D01*
X230644037Y-107214189D01*
X230600137Y-107239534D01*
X230139536Y-107700135D01*
X230139532Y-107700141D01*
X230096680Y-107774361D01*
X230096681Y-107774362D01*
X230074499Y-107857147D01*
X230074499Y-107904495D01*
X230054814Y-107971534D01*
X230002010Y-108017289D01*
X229932852Y-108027233D01*
X229869296Y-107998208D01*
X229843113Y-107966496D01*
X229840512Y-107961991D01*
X229840509Y-107961988D01*
X229840508Y-107961985D01*
X229738014Y-107859491D01*
X229738012Y-107859490D01*
X229738010Y-107859488D01*
X229612487Y-107787017D01*
X229612488Y-107787017D01*
X229601005Y-107783940D01*
X229472474Y-107749500D01*
X229327524Y-107749500D01*
X229198992Y-107783940D01*
X229187510Y-107787017D01*
X229061987Y-107859488D01*
X229061981Y-107859493D01*
X228959492Y-107961982D01*
X228959487Y-107961988D01*
X228887016Y-108087511D01*
X228885198Y-108094297D01*
X228849499Y-108227525D01*
X205500500Y-108227525D01*
X205500500Y-103899999D01*
X205890000Y-103899999D01*
X205942070Y-104428692D01*
X206096287Y-104937076D01*
X206346713Y-105405589D01*
X206346717Y-105405596D01*
X206683739Y-105816259D01*
X207094402Y-106153281D01*
X207094409Y-106153285D01*
X207562922Y-106403711D01*
X207562924Y-106403711D01*
X207562927Y-106403713D01*
X208071305Y-106557928D01*
X208071304Y-106557928D01*
X208112466Y-106561982D01*
X208600000Y-106610000D01*
X209128694Y-106557928D01*
X209637072Y-106403713D01*
X209695337Y-106372570D01*
X209853026Y-106288283D01*
X210105595Y-106153282D01*
X210516259Y-105816259D01*
X210853282Y-105405595D01*
X211103713Y-104937072D01*
X211257928Y-104428694D01*
X211310000Y-103900000D01*
X211257928Y-103371305D01*
X211103713Y-102862927D01*
X211103711Y-102862924D01*
X211103711Y-102862922D01*
X210853285Y-102394409D01*
X210853281Y-102394402D01*
X210516259Y-101983739D01*
X210432806Y-101915251D01*
X210325911Y-101827525D01*
X256249500Y-101827525D01*
X256249500Y-101972475D01*
X256287016Y-102112485D01*
X256287017Y-102112488D01*
X256359488Y-102238011D01*
X256359490Y-102238013D01*
X256359491Y-102238015D01*
X256461985Y-102340509D01*
X256461986Y-102340510D01*
X256461988Y-102340511D01*
X256587511Y-102412982D01*
X256587512Y-102412982D01*
X256587515Y-102412984D01*
X256727525Y-102450500D01*
X256727528Y-102450500D01*
X256872472Y-102450500D01*
X256872475Y-102450500D01*
X257012485Y-102412984D01*
X257138015Y-102340509D01*
X257141705Y-102336819D01*
X257203028Y-102303334D01*
X257229386Y-102300500D01*
X262570614Y-102300500D01*
X262637653Y-102320185D01*
X262658295Y-102336819D01*
X262661985Y-102340509D01*
X262661986Y-102340510D01*
X262661988Y-102340511D01*
X262787511Y-102412982D01*
X262787512Y-102412982D01*
X262787515Y-102412984D01*
X262927525Y-102450500D01*
X262927528Y-102450500D01*
X263072472Y-102450500D01*
X263072475Y-102450500D01*
X263212485Y-102412984D01*
X263338015Y-102340509D01*
X263440509Y-102238015D01*
X263512984Y-102112485D01*
X263550500Y-101972475D01*
X263550500Y-101827525D01*
X263512984Y-101687515D01*
X263440509Y-101561985D01*
X263338015Y-101459491D01*
X263338013Y-101459490D01*
X263338011Y-101459488D01*
X263212488Y-101387017D01*
X263212489Y-101387017D01*
X263190253Y-101381059D01*
X263072475Y-101349500D01*
X262927525Y-101349500D01*
X262809747Y-101381059D01*
X262787511Y-101387017D01*
X262661988Y-101459488D01*
X262661982Y-101459493D01*
X262658295Y-101463181D01*
X262596972Y-101496666D01*
X262570614Y-101499500D01*
X257229386Y-101499500D01*
X257162347Y-101479815D01*
X257141705Y-101463181D01*
X257138017Y-101459493D01*
X257138011Y-101459488D01*
X257012488Y-101387017D01*
X257012489Y-101387017D01*
X256990253Y-101381059D01*
X256872475Y-101349500D01*
X256727525Y-101349500D01*
X256609747Y-101381059D01*
X256587511Y-101387017D01*
X256461988Y-101459488D01*
X256461982Y-101459493D01*
X256359493Y-101561982D01*
X256359488Y-101561988D01*
X256287017Y-101687511D01*
X256287016Y-101687515D01*
X256249500Y-101827525D01*
X210325911Y-101827525D01*
X210105596Y-101646718D01*
X210105589Y-101646713D01*
X209637076Y-101396287D01*
X209128692Y-101242070D01*
X208600000Y-101190000D01*
X208071306Y-101242070D01*
X207562922Y-101396287D01*
X207094409Y-101646713D01*
X207094402Y-101646717D01*
X206683739Y-101983739D01*
X206346717Y-102394402D01*
X206346713Y-102394409D01*
X206096287Y-102862922D01*
X205942070Y-103371306D01*
X205890000Y-103899999D01*
X205500500Y-103899999D01*
X205500500Y-101516267D01*
X205500863Y-101506782D01*
X205501639Y-101496666D01*
X205508995Y-101400782D01*
X205512120Y-101381072D01*
X205533299Y-101293723D01*
X205539221Y-101275554D01*
X205573864Y-101191835D01*
X205582708Y-101174470D01*
X205629705Y-101097785D01*
X205641172Y-101082012D01*
X205699948Y-101013266D01*
X205713529Y-100999675D01*
X205781764Y-100941246D01*
X205797688Y-100929669D01*
X205874406Y-100882721D01*
X205891707Y-100873917D01*
X205975056Y-100839428D01*
X205993544Y-100833427D01*
X206081678Y-100812286D01*
X206100853Y-100809249D01*
X206206961Y-100800883D01*
X206216707Y-100800500D01*
X310283292Y-100800500D01*
X310293037Y-100800883D01*
G37*
%TD.AperFunction*%
%TD*%
M02*
