%TF.GenerationSoftware,KiCad,Pcbnew,9.0.9-9.0.9~ubuntu24.04.1*%
%TF.CreationDate,2026-09-29T00:45:25+00:00*%
%TF.ProjectId,key-board-rh,6b65792d-626f-4617-9264-2d72682e6b69,A*%
%TF.SameCoordinates,Original*%
%TF.FileFunction,Profile,NP*%
%FSLAX46Y46*%
G04 Gerber Fmt 4.6, Leading zero omitted, Abs format (unit mm)*
G04 Created by KiCad (PCBNEW 9.0.9-9.0.9~ubuntu24.04.1) date 2026-09-29 00:45:25*
%MOMM*%
%LPD*%
G01*
G04 APERTURE LIST*
%TA.AperFunction,Profile*%
%ADD10C,0.100000*%
%TD*%
G04 APERTURE END LIST*
D10*
X205000000Y-101500000D02*
X205000000Y-141500000D01*
X205000000Y-141500000D02*
X205012000Y-141656430D01*
X205012000Y-101343600D02*
X205000000Y-101500000D01*
X205012000Y-141656430D02*
X205049000Y-141809020D01*
X205049000Y-101191000D02*
X205012000Y-101343600D01*
X205049000Y-141809020D02*
X205109000Y-141953990D01*
X205109000Y-101045999D02*
X205049000Y-101191000D01*
X205109000Y-141953990D02*
X205191000Y-142087780D01*
X205191000Y-100912200D02*
X205109000Y-101045999D01*
X205191000Y-142087780D02*
X205293000Y-142207110D01*
X205293000Y-100792900D02*
X205191000Y-100912200D01*
X205293000Y-142207110D02*
X205412000Y-142309020D01*
X205412000Y-100691000D02*
X205293000Y-100792900D01*
X205412000Y-142309020D02*
X205546000Y-142391010D01*
X205546000Y-100609000D02*
X205412000Y-100691000D01*
X205546000Y-142391010D02*
X205691000Y-142451050D01*
X205691000Y-100549000D02*
X205546000Y-100609000D01*
X205691000Y-142451050D02*
X205844000Y-142487690D01*
X205844000Y-100512300D02*
X205691000Y-100549000D01*
X205844000Y-142487690D02*
X206000000Y-142500000D01*
X206000000Y-100500000D02*
X205844000Y-100512300D01*
X206000000Y-142500000D02*
X310100000Y-142500000D01*
X310100000Y-100500000D02*
X206000000Y-100500000D01*
X310100000Y-142500000D02*
X310256000Y-142487690D01*
X310256000Y-100512300D02*
X310100000Y-100500000D01*
X310256000Y-142487690D02*
X310409000Y-142451050D01*
X310409000Y-100549000D02*
X310256000Y-100512300D01*
X310409000Y-142451050D02*
X310554000Y-142391010D01*
X310554000Y-100609000D02*
X310409000Y-100549000D01*
X310554000Y-142391010D02*
X310688000Y-142309020D01*
X310688000Y-100691000D02*
X310554000Y-100609000D01*
X310688000Y-142309020D02*
X310807000Y-142207110D01*
X310807000Y-100792900D02*
X310688000Y-100691000D01*
X310807000Y-142207110D02*
X310909000Y-142087780D01*
X310909000Y-100912200D02*
X310807000Y-100792900D01*
X310909000Y-142087780D02*
X310991000Y-141953990D01*
X310991000Y-101045999D02*
X310909000Y-100912200D01*
X310991000Y-141953990D02*
X311051000Y-141809020D01*
X311051000Y-101191000D02*
X310991000Y-101045999D01*
X311051000Y-141809020D02*
X311087999Y-141656430D01*
X311087999Y-101343600D02*
X311051000Y-101191000D01*
X311087999Y-141656430D02*
X311100000Y-141500000D01*
X311100000Y-101500000D02*
X311087999Y-101343600D01*
X311100000Y-141500000D02*
X311100000Y-101500000D01*
M02*
