M48
; DRILL file {KiCad 9.0.9-9.0.9~ubuntu24.04.1} date 2026-09-29T02:46:07+0000
; FORMAT={-:-/ absolute / metric / decimal}
; #@! TF.CreationDate,2026-09-29T02:46:07+00:00
; #@! TF.GenerationSoftware,Kicad,Pcbnew,9.0.9-9.0.9~ubuntu24.04.1
; #@! TF.FileFunction,Plated,1,2,PTH
FMAT,2
METRIC
; #@! TA.AperFunction,Plated,PTH,ViaDrill
T1C0.300
; #@! TA.AperFunction,Plated,PTH,ComponentDrill
T2C0.700
; #@! TA.AperFunction,Plated,PTH,ComponentDrill
T3C1.300
%
G90
G05
T1
X223.2Y-121.9
X226.2Y-107.1
X226.8Y-125.7
X229.2Y-108.3
X231.4Y-117.5
X239.6Y-110.7
X243.2Y-121.9
X244.0Y-109.7
X244.6Y-127.7
X246.6Y-117.5
X246.6Y-125.5
X248.4Y-113.5
X249.8Y-112.1
X252.2Y-112.5
X252.2Y-113.9
X256.4Y-110.7
X256.6Y-101.9
X260.0Y-106.9
X260.2Y-105.7
X260.4Y-114.9
X261.2Y-106.7
X261.6Y-110.5
X261.6Y-115.1
X262.8Y-101.9
X262.8Y-118.7
X263.2Y-121.9
X264.0Y-103.1
X266.8Y-125.7
X268.2Y-108.7
X281.2Y-107.7
X281.2Y-130.9
X284.0Y-106.7
X284.6Y-116.5
X284.6Y-134.5
X285.2Y-107.9
X287.4Y-125.7
X298.8Y-127.9
X302.0Y-105.7
X302.6Y-134.5
X303.4Y-125.7
T2
X231.64Y-104.81
X231.64Y-106.08
X231.64Y-107.35
X231.64Y-108.62
X231.64Y-109.89
X231.64Y-111.16
X232.91Y-104.81
X232.91Y-106.08
X232.91Y-107.35
X232.91Y-108.62
X232.91Y-109.89
X232.91Y-111.16
T3
X213.6Y-126.2
X220.6Y-127.25
X233.6Y-126.2
X240.6Y-127.25
X253.6Y-126.2
X260.6Y-127.25
X271.6Y-117.2
X271.6Y-135.2
X278.6Y-118.25
X278.6Y-136.25
X289.6Y-135.2
X296.6Y-136.25
M30
