999
Woody controller body rev A - Matrix window (matrix_window)
999
Material: acrylic (PMMA) sheet, colourless, frosted on the top face
999
Thickness: 3 mm (openings.matrix_acrylic_t)
999
Quantity per instrument: 1
999
Units mm. Cut every closed outline. cad 14437c2de898; verify: python3 tools/cad.py explain fab-dxf-matrix-window
  0
SECTION
  2
BLOCKS
  0
ENDSEC
  0
SECTION
  2
ENTITIES
  0
LINE
  8
0
 10
25.378
 20
0.0062
 11
25.455
 21
0.0245
  0
LINE
  8
0
 10
25.455
 20
0.0245
 11
25.527
 21
0.0545
  0
LINE
  8
0
 10
25.527
 20
0.0545
 11
25.594
 21
0.0955
  0
LINE
  8
0
 10
25.594
 20
0.0955
 11
25.654
 21
0.1465
  0
LINE
  8
0
 10
25.654
 20
0.1465
 11
25.705
 21
0.2061
  0
LINE
  8
0
 10
25.705
 20
0.2061
 11
25.746
 21
0.273
  0
LINE
  8
0
 10
25.746
 20
0.273
 11
25.776
 21
0.3455
  0
LINE
  8
0
 10
25.776
 20
0.3455
 11
25.794
 21
0.4218
  0
LINE
  8
0
 10
25.794
 20
0.4218
 11
25.8
 21
0.5
  0
LINE
  8
0
 10
25.8
 20
0.5
 11
25.8
 21
25.3
  0
LINE
  8
0
 10
25.8
 20
25.3
 11
25.794
 21
25.3782
  0
LINE
  8
0
 10
25.794
 20
25.3782
 11
25.776
 21
25.4545
  0
LINE
  8
0
 10
25.776
 20
25.4545
 11
25.746
 21
25.527
  0
LINE
  8
0
 10
25.746
 20
25.527
 11
25.705
 21
25.5939
  0
LINE
  8
0
 10
25.705
 20
25.5939
 11
25.654
 21
25.6535
  0
LINE
  8
0
 10
25.654
 20
25.6535
 11
25.594
 21
25.7045
  0
LINE
  8
0
 10
25.594
 20
25.7045
 11
25.527
 21
25.7455
  0
LINE
  8
0
 10
25.527
 20
25.7455
 11
25.455
 21
25.7755
  0
LINE
  8
0
 10
25.455
 20
25.7755
 11
25.378
 21
25.7938
  0
LINE
  8
0
 10
25.378
 20
25.7938
 11
25.3
 21
25.8
  0
LINE
  8
0
 10
25.3
 20
25.8
 11
0.5
 21
25.8
  0
LINE
  8
0
 10
0.5
 20
25.8
 11
0.422
 21
25.7938
  0
LINE
  8
0
 10
0.422
 20
25.7938
 11
0.345
 21
25.7755
  0
LINE
  8
0
 10
0.345
 20
25.7755
 11
0.273
 21
25.7455
  0
LINE
  8
0
 10
0.273
 20
25.7455
 11
0.206
 21
25.7045
  0
LINE
  8
0
 10
0.206
 20
25.7045
 11
0.146
 21
25.6535
  0
LINE
  8
0
 10
0.146
 20
25.6535
 11
0.095
 21
25.5939
  0
LINE
  8
0
 10
0.095
 20
25.5939
 11
0.054
 21
25.527
  0
LINE
  8
0
 10
0.054
 20
25.527
 11
0.024
 21
25.4545
  0
LINE
  8
0
 10
0.024
 20
25.4545
 11
0.006
 21
25.3782
  0
LINE
  8
0
 10
0.006
 20
25.3782
 11
0
 21
25.3
  0
LINE
  8
0
 10
0
 20
25.3
 11
0
 21
0.5
  0
LINE
  8
0
 10
0
 20
0.5
 11
0.006
 21
0.4218
  0
LINE
  8
0
 10
0.006
 20
0.4218
 11
0.024
 21
0.3455
  0
LINE
  8
0
 10
0.024
 20
0.3455
 11
0.054
 21
0.273
  0
LINE
  8
0
 10
0.054
 20
0.273
 11
0.095
 21
0.2061
  0
LINE
  8
0
 10
0.095
 20
0.2061
 11
0.146
 21
0.1465
  0
LINE
  8
0
 10
0.146
 20
0.1465
 11
0.206
 21
0.0955
  0
LINE
  8
0
 10
0.206
 20
0.0955
 11
0.273
 21
0.0545
  0
LINE
  8
0
 10
0.273
 20
0.0545
 11
0.345
 21
0.0245
  0
LINE
  8
0
 10
0.345
 20
0.0245
 11
0.422
 21
0.0062
  0
LINE
  8
0
 10
0.422
 20
0.0062
 11
0.5
 21
0
  0
LINE
  8
0
 10
0.5
 20
0
 11
25.3
 21
0
  0
LINE
  8
0
 10
25.3
 20
0
 11
25.378
 21
0.0062
  0
ENDSEC
  0
SECTION
  2
OBJECTS
  0
DICTIONARY
  0
ENDSEC
  0
EOF
