999
Woody controller body rev A - Matrix window (matrix_window)
999
Material: acrylic (PMMA) sheet, colourless, frosted on the top face
999
Thickness: 3 mm (openings.matrix_acrylic_t)
999
Quantity per instrument: 1
999
Units mm. Cut every closed outline. cad 3ae3bfe87f2e; verify: python3 tools/cad.py explain fab-dxf-matrix-window
  0
SECTION
  2
BLOCKS
  0
ENDSEC
  0
SECTION
  2
ENTITIES
  0
LINE
  8
0
 10
24.535
 20
0.0185
 11
24.764
 21
0.0734
  0
LINE
  8
0
 10
24.764
 20
0.0734
 11
24.981
 21
0.1635
  0
LINE
  8
0
 10
24.981
 20
0.1635
 11
25.182
 21
0.2865
  0
LINE
  8
0
 10
25.182
 20
0.2865
 11
25.361
 21
0.4394
  0
LINE
  8
0
 10
25.361
 20
0.4394
 11
25.514
 21
0.6183
  0
LINE
  8
0
 10
25.514
 20
0.6183
 11
25.637
 21
0.819
  0
LINE
  8
0
 10
25.637
 20
0.819
 11
25.727
 21
1.0365
  0
LINE
  8
0
 10
25.727
 20
1.0365
 11
25.782
 21
1.2654
  0
LINE
  8
0
 10
25.782
 20
1.2654
 11
25.8
 21
1.5
  0
LINE
  8
0
 10
25.8
 20
1.5
 11
25.8
 21
24.3
  0
LINE
  8
0
 10
25.8
 20
24.3
 11
25.782
 21
24.5346
  0
LINE
  8
0
 10
25.782
 20
24.5346
 11
25.727
 21
24.7635
  0
LINE
  8
0
 10
25.727
 20
24.7635
 11
25.637
 21
24.981
  0
LINE
  8
0
 10
25.637
 20
24.981
 11
25.514
 21
25.1817
  0
LINE
  8
0
 10
25.514
 20
25.1817
 11
25.361
 21
25.3606
  0
LINE
  8
0
 10
25.361
 20
25.3606
 11
25.182
 21
25.5135
  0
LINE
  8
0
 10
25.182
 20
25.5135
 11
24.981
 21
25.6365
  0
LINE
  8
0
 10
24.981
 20
25.6365
 11
24.764
 21
25.7266
  0
LINE
  8
0
 10
24.764
 20
25.7266
 11
24.535
 21
25.7815
  0
LINE
  8
0
 10
24.535
 20
25.7815
 11
24.3
 21
25.8
  0
LINE
  8
0
 10
24.3
 20
25.8
 11
1.5
 21
25.8
  0
LINE
  8
0
 10
1.5
 20
25.8
 11
1.265
 21
25.7815
  0
LINE
  8
0
 10
1.265
 20
25.7815
 11
1.036
 21
25.7266
  0
LINE
  8
0
 10
1.036
 20
25.7266
 11
0.819
 21
25.6365
  0
LINE
  8
0
 10
0.819
 20
25.6365
 11
0.618
 21
25.5135
  0
LINE
  8
0
 10
0.618
 20
25.5135
 11
0.439
 21
25.3606
  0
LINE
  8
0
 10
0.439
 20
25.3606
 11
0.286
 21
25.1817
  0
LINE
  8
0
 10
0.286
 20
25.1817
 11
0.163
 21
24.981
  0
LINE
  8
0
 10
0.163
 20
24.981
 11
0.073
 21
24.7635
  0
LINE
  8
0
 10
0.073
 20
24.7635
 11
0.018
 21
24.5346
  0
LINE
  8
0
 10
0.018
 20
24.5346
 11
0
 21
24.3
  0
LINE
  8
0
 10
0
 20
24.3
 11
0
 21
1.5
  0
LINE
  8
0
 10
0
 20
1.5
 11
0.018
 21
1.2654
  0
LINE
  8
0
 10
0.018
 20
1.2654
 11
0.073
 21
1.0365
  0
LINE
  8
0
 10
0.073
 20
1.0365
 11
0.163
 21
0.819
  0
LINE
  8
0
 10
0.163
 20
0.819
 11
0.286
 21
0.6183
  0
LINE
  8
0
 10
0.286
 20
0.6183
 11
0.439
 21
0.4394
  0
LINE
  8
0
 10
0.439
 20
0.4394
 11
0.618
 21
0.2865
  0
LINE
  8
0
 10
0.618
 20
0.2865
 11
0.819
 21
0.1635
  0
LINE
  8
0
 10
0.819
 20
0.1635
 11
1.036
 21
0.0734
  0
LINE
  8
0
 10
1.036
 20
0.0734
 11
1.265
 21
0.0185
  0
LINE
  8
0
 10
1.265
 20
0.0185
 11
1.5
 21
0
  0
LINE
  8
0
 10
1.5
 20
0
 11
24.3
 21
0
  0
LINE
  8
0
 10
24.3
 20
0
 11
24.535
 21
0.0185
  0
ENDSEC
  0
SECTION
  2
OBJECTS
  0
DICTIONARY
  0
ENDSEC
  0
EOF
