999
Woody controller body rev A - Acrylic side (side)
999
Material: acrylic (PMMA) sheet, dark grey, frosted on the outside face
999
Thickness: 4 mm (stack.side_t)
999
Quantity per instrument: 2
999
Units mm. Cut every closed outline. cad c4f40d7d1f1a; verify: python3 tools/cad.py explain fab-dxf-side
  0
SECTION
  2
BLOCKS
  0
ENDSEC
  0
SECTION
  2
ENTITIES
  0
LINE
  8
0
 10
312.956
 20
0.0123138
 11
313.109
 21
0.0489502
  0
LINE
  8
0
 10
313.109
 20
0.0489502
 11
313.254
 21
0.108994
  0
LINE
  8
0
 10
313.254
 20
0.108994
 11
313.388
 21
0.190979
  0
LINE
  8
0
 10
313.388
 20
0.190979
 11
313.507
 21
0.292892
  0
LINE
  8
0
 10
313.507
 20
0.292892
 11
313.609
 21
0.412216
  0
LINE
  8
0
 10
313.609
 20
0.412216
 11
313.691
 21
0.546005
  0
LINE
  8
0
 10
313.691
 20
0.546005
 11
313.751
 21
0.690979
  0
LINE
  8
0
 10
313.751
 20
0.690979
 11
313.788
 21
0.843567
  0
LINE
  8
0
 10
313.788
 20
0.843567
 11
313.8
 21
1
  0
LINE
  8
0
 10
313.8
 20
1
 11
313.8
 21
32
  0
LINE
  8
0
 10
313.8
 20
32
 11
313.788
 21
32.1564
  0
LINE
  8
0
 10
313.788
 20
32.1564
 11
313.751
 21
32.309
  0
LINE
  8
0
 10
313.751
 20
32.309
 11
313.691
 21
32.454
  0
LINE
  8
0
 10
313.691
 20
32.454
 11
313.609
 21
32.5878
  0
LINE
  8
0
 10
313.609
 20
32.5878
 11
313.507
 21
32.7071
  0
LINE
  8
0
 10
313.507
 20
32.7071
 11
313.388
 21
32.809
  0
LINE
  8
0
 10
313.388
 20
32.809
 11
313.254
 21
32.891
  0
LINE
  8
0
 10
313.254
 20
32.891
 11
313.109
 21
32.951
  0
LINE
  8
0
 10
313.109
 20
32.951
 11
312.956
 21
32.9877
  0
LINE
  8
0
 10
312.956
 20
32.9877
 11
312.8
 21
33
  0
LINE
  8
0
 10
312.8
 20
33
 11
1
 21
33
  0
LINE
  8
0
 10
1
 20
33
 11
0.843567
 21
32.9877
  0
LINE
  8
0
 10
0.843567
 20
32.9877
 11
0.690979
 21
32.951
  0
LINE
  8
0
 10
0.690979
 20
32.951
 11
0.546005
 21
32.891
  0
LINE
  8
0
 10
0.546005
 20
32.891
 11
0.412216
 21
32.809
  0
LINE
  8
0
 10
0.412216
 20
32.809
 11
0.292892
 21
32.7071
  0
LINE
  8
0
 10
0.292892
 20
32.7071
 11
0.190979
 21
32.5878
  0
LINE
  8
0
 10
0.190979
 20
32.5878
 11
0.108994
 21
32.454
  0
LINE
  8
0
 10
0.108994
 20
32.454
 11
0.0489502
 21
32.309
  0
LINE
  8
0
 10
0.0489502
 20
32.309
 11
0.0123138
 21
32.1564
  0
LINE
  8
0
 10
0.0123138
 20
32.1564
 11
0
 21
32
  0
LINE
  8
0
 10
0
 20
32
 11
0
 21
1
  0
LINE
  8
0
 10
0
 20
1
 11
0.0123138
 21
0.843567
  0
LINE
  8
0
 10
0.0123138
 20
0.843567
 11
0.0489502
 21
0.690979
  0
LINE
  8
0
 10
0.0489502
 20
0.690979
 11
0.108994
 21
0.546005
  0
LINE
  8
0
 10
0.108994
 20
0.546005
 11
0.190979
 21
0.412216
  0
LINE
  8
0
 10
0.190979
 20
0.412216
 11
0.292892
 21
0.292892
  0
LINE
  8
0
 10
0.292892
 20
0.292892
 11
0.412216
 21
0.190979
  0
LINE
  8
0
 10
0.412216
 20
0.190979
 11
0.546005
 21
0.108994
  0
LINE
  8
0
 10
0.546005
 20
0.108994
 11
0.690979
 21
0.0489502
  0
LINE
  8
0
 10
0.690979
 20
0.0489502
 11
0.843567
 21
0.0123138
  0
LINE
  8
0
 10
0.843567
 20
0.0123138
 11
1
 21
0
  0
LINE
  8
0
 10
1
 20
0
 11
312.8
 21
0
  0
LINE
  8
0
 10
312.8
 20
0
 11
312.956
 21
0.0123138
  0
ENDSEC
  0
SECTION
  2
OBJECTS
  0
DICTIONARY
  0
ENDSEC
  0
EOF
