999
Woody controller body rev A - Acrylic side (side)
999
Material: acrylic (PMMA) sheet, dark grey, frosted on the outside face
999
Thickness: 4 mm (stack.side_t)
999
Quantity per instrument: 2
999
Units mm. Cut every closed outline. cad 63c7d985e23e; verify: python3 tools/cad.py explain fab-dxf-side
  0
SECTION
  2
BLOCKS
  0
ENDSEC
  0
SECTION
  2
ENTITIES
  0
LINE
  8
0
 10
0
 20
0
 11
313.8
 21
0
  0
LINE
  8
0
 10
313.8
 20
0
 11
313.8
 21
33
  0
LINE
  8
0
 10
313.8
 20
33
 11
0
 21
33
  0
LINE
  8
0
 10
0
 20
33
 11
0
 21
0
  0
ENDSEC
  0
SECTION
  2
OBJECTS
  0
DICTIONARY
  0
ENDSEC
  0
EOF
