  0
SECTION
  2
BLOCKS
  0
ENDSEC
  0
SECTION
  2
ENTITIES
  0
LINE
  8
0
 10
296.056
 20
7.51231
 11
296.209
 21
7.54895
  0
LINE
  8
0
 10
296.209
 20
7.54895
 11
296.354
 21
7.60899
  0
LINE
  8
0
 10
296.354
 20
7.60899
 11
296.488
 21
7.69098
  0
LINE
  8
0
 10
296.488
 20
7.69098
 11
296.607
 21
7.79289
  0
LINE
  8
0
 10
296.607
 20
7.79289
 11
296.709
 21
7.91222
  0
LINE
  8
0
 10
296.709
 20
7.91222
 11
296.791
 21
8.04601
  0
LINE
  8
0
 10
296.791
 20
8.04601
 11
296.851
 21
8.19098
  0
LINE
  8
0
 10
296.851
 20
8.19098
 11
296.888
 21
8.34357
  0
LINE
  8
0
 10
296.888
 20
8.34357
 11
296.9
 21
8.5
  0
LINE
  8
0
 10
296.9
 20
8.5
 11
296.9
 21
17.37
  0
LINE
  8
0
 10
296.9
 20
17.37
 11
296.888
 21
17.5264
  0
LINE
  8
0
 10
296.888
 20
17.5264
 11
296.851
 21
17.679
  0
LINE
  8
0
 10
296.851
 20
17.679
 11
296.791
 21
17.824
  0
LINE
  8
0
 10
296.791
 20
17.824
 11
296.709
 21
17.9578
  0
LINE
  8
0
 10
296.709
 20
17.9578
 11
296.607
 21
18.0771
  0
LINE
  8
0
 10
296.607
 20
18.0771
 11
296.488
 21
18.179
  0
LINE
  8
0
 10
296.488
 20
18.179
 11
296.354
 21
18.261
  0
LINE
  8
0
 10
296.354
 20
18.261
 11
296.209
 21
18.321
  0
LINE
  8
0
 10
296.209
 20
18.321
 11
296.056
 21
18.3577
  0
LINE
  8
0
 10
296.056
 20
18.3577
 11
295.9
 21
18.37
  0
LINE
  8
0
 10
295.9
 20
18.37
 11
252.3
 21
18.37
  0
LINE
  8
0
 10
252.3
 20
18.37
 11
252.144
 21
18.3823
  0
LINE
  8
0
 10
252.144
 20
18.3823
 11
251.991
 21
18.419
  0
LINE
  8
0
 10
251.991
 20
18.419
 11
251.846
 21
18.479
  0
LINE
  8
0
 10
251.846
 20
18.479
 11
251.712
 21
18.561
  0
LINE
  8
0
 10
251.712
 20
18.561
 11
251.593
 21
18.6629
  0
LINE
  8
0
 10
251.593
 20
18.6629
 11
251.491
 21
18.7822
  0
LINE
  8
0
 10
251.491
 20
18.7822
 11
251.409
 21
18.916
  0
LINE
  8
0
 10
251.409
 20
18.916
 11
251.349
 21
19.0609
  0
LINE
  8
0
 10
251.349
 20
19.0609
 11
251.312
 21
19.2135
  0
LINE
  8
0
 10
251.312
 20
19.2135
 11
251.3
 21
19.37
  0
LINE
  8
0
 10
251.3
 20
19.37
 11
251.3
 21
37.63
  0
LINE
  8
0
 10
251.3
 20
37.63
 11
251.312
 21
37.7864
  0
LINE
  8
0
 10
251.312
 20
37.7864
 11
251.349
 21
37.9391
  0
LINE
  8
0
 10
251.349
 20
37.9391
 11
251.409
 21
38.084
  0
LINE
  8
0
 10
251.409
 20
38.084
 11
251.491
 21
38.2178
  0
LINE
  8
0
 10
251.491
 20
38.2178
 11
251.593
 21
38.3371
  0
LINE
  8
0
 10
251.593
 20
38.3371
 11
251.712
 21
38.439
  0
LINE
  8
0
 10
251.712
 20
38.439
 11
251.846
 21
38.521
  0
LINE
  8
0
 10
251.846
 20
38.521
 11
251.991
 21
38.581
  0
LINE
  8
0
 10
251.991
 20
38.581
 11
252.144
 21
38.6177
  0
LINE
  8
0
 10
252.144
 20
38.6177
 11
252.3
 21
38.63
  0
LINE
  8
0
 10
252.3
 20
38.63
 11
295.9
 21
38.63
  0
LINE
  8
0
 10
295.9
 20
38.63
 11
296.056
 21
38.6423
  0
LINE
  8
0
 10
296.056
 20
38.6423
 11
296.209
 21
38.6789
  0
LINE
  8
0
 10
296.209
 20
38.6789
 11
296.354
 21
38.739
  0
LINE
  8
0
 10
296.354
 20
38.739
 11
296.488
 21
38.821
  0
LINE
  8
0
 10
296.488
 20
38.821
 11
296.607
 21
38.9229
  0
LINE
  8
0
 10
296.607
 20
38.9229
 11
296.709
 21
39.0422
  0
LINE
  8
0
 10
296.709
 20
39.0422
 11
296.791
 21
39.176
  0
LINE
  8
0
 10
296.791
 20
39.176
 11
296.851
 21
39.321
  0
LINE
  8
0
 10
296.851
 20
39.321
 11
296.888
 21
39.4736
  0
LINE
  8
0
 10
296.888
 20
39.4736
 11
296.9
 21
39.63
  0
LINE
  8
0
 10
296.9
 20
39.63
 11
296.9
 21
48.5
  0
LINE
  8
0
 10
296.9
 20
48.5
 11
296.888
 21
48.6564
  0
LINE
  8
0
 10
296.888
 20
48.6564
 11
296.851
 21
48.809
  0
LINE
  8
0
 10
296.851
 20
48.809
 11
296.791
 21
48.954
  0
LINE
  8
0
 10
296.791
 20
48.954
 11
296.709
 21
49.0878
  0
LINE
  8
0
 10
296.709
 20
49.0878
 11
296.607
 21
49.2071
  0
LINE
  8
0
 10
296.607
 20
49.2071
 11
296.488
 21
49.309
  0
LINE
  8
0
 10
296.488
 20
49.309
 11
296.354
 21
49.391
  0
LINE
  8
0
 10
296.354
 20
49.391
 11
296.209
 21
49.451
  0
LINE
  8
0
 10
296.209
 20
49.451
 11
296.056
 21
49.4877
  0
LINE
  8
0
 10
296.056
 20
49.4877
 11
295.9
 21
49.5
  0
LINE
  8
0
 10
295.9
 20
49.5
 11
145.4
 21
49.5
  0
LINE
  8
0
 10
145.4
 20
49.5
 11
145.244
 21
49.4877
  0
LINE
  8
0
 10
145.244
 20
49.4877
 11
145.091
 21
49.451
  0
LINE
  8
0
 10
145.091
 20
49.451
 11
144.946
 21
49.391
  0
LINE
  8
0
 10
144.946
 20
49.391
 11
144.812
 21
49.309
  0
LINE
  8
0
 10
144.812
 20
49.309
 11
144.693
 21
49.2071
  0
LINE
  8
0
 10
144.693
 20
49.2071
 11
144.591
 21
49.0878
  0
LINE
  8
0
 10
144.591
 20
49.0878
 11
144.509
 21
48.954
  0
LINE
  8
0
 10
144.509
 20
48.954
 11
144.449
 21
48.809
  0
LINE
  8
0
 10
144.449
 20
48.809
 11
144.412
 21
48.6564
  0
LINE
  8
0
 10
144.412
 20
48.6564
 11
144.4
 21
48.5
  0
LINE
  8
0
 10
144.4
 20
48.5
 11
144.4
 21
8.5
  0
LINE
  8
0
 10
144.4
 20
8.5
 11
144.412
 21
8.34357
  0
LINE
  8
0
 10
144.412
 20
8.34357
 11
144.449
 21
8.19098
  0
LINE
  8
0
 10
144.449
 20
8.19098
 11
144.509
 21
8.04601
  0
LINE
  8
0
 10
144.509
 20
8.04601
 11
144.591
 21
7.91222
  0
LINE
  8
0
 10
144.591
 20
7.91222
 11
144.693
 21
7.79289
  0
LINE
  8
0
 10
144.693
 20
7.79289
 11
144.812
 21
7.69098
  0
LINE
  8
0
 10
144.812
 20
7.69098
 11
144.946
 21
7.60899
  0
LINE
  8
0
 10
144.946
 20
7.60899
 11
145.091
 21
7.54895
  0
LINE
  8
0
 10
145.091
 20
7.54895
 11
145.244
 21
7.51231
  0
LINE
  8
0
 10
145.244
 20
7.51231
 11
145.4
 21
7.5
  0
LINE
  8
0
 10
145.4
 20
7.5
 11
295.9
 21
7.5
  0
LINE
  8
0
 10
295.9
 20
7.5
 11
296.056
 21
7.51231
  0
ENDSEC
  0
SECTION
  2
OBJECTS
  0
DICTIONARY
  0
ENDSEC
  0
EOF
