  0
SECTION
  2
BLOCKS
  0
ENDSEC
  0
SECTION
  2
ENTITIES
  0
LINE
  8
0
 10
244.5
 20
30
 11
227
 21
30
  0
LINE
  8
0
 10
227
 20
30
 11
226.922
 21
30.0061
  0
LINE
  8
0
 10
226.922
 20
30.0061
 11
226.845
 21
30.0245
  0
LINE
  8
0
 10
226.845
 20
30.0245
 11
226.773
 21
30.0545
  0
LINE
  8
0
 10
226.773
 20
30.0545
 11
226.706
 21
30.0955
  0
LINE
  8
0
 10
226.706
 20
30.0955
 11
226.646
 21
30.1465
  0
LINE
  8
0
 10
226.646
 20
30.1465
 11
226.595
 21
30.2061
  0
LINE
  8
0
 10
226.595
 20
30.2061
 11
226.554
 21
30.273
  0
LINE
  8
0
 10
226.554
 20
30.273
 11
226.524
 21
30.3455
  0
LINE
  8
0
 10
226.524
 20
30.3455
 11
226.506
 21
30.4218
  0
LINE
  8
0
 10
226.506
 20
30.4218
 11
226.5
 21
30.5
  0
LINE
  8
0
 10
226.5
 20
30.5
 11
226.5
 21
48
  0
LINE
  8
0
 10
226.5
 20
48
 11
205.5
 21
48
  0
LINE
  8
0
 10
205.5
 20
48
 11
205.5
 21
39.5
  0
LINE
  8
0
 10
205.5
 20
39.5
 11
205.494
 21
39.4218
  0
LINE
  8
0
 10
205.494
 20
39.4218
 11
205.476
 21
39.3455
  0
LINE
  8
0
 10
205.476
 20
39.3455
 11
205.446
 21
39.273
  0
LINE
  8
0
 10
205.446
 20
39.273
 11
205.405
 21
39.2061
  0
LINE
  8
0
 10
205.405
 20
39.2061
 11
205.354
 21
39.1465
  0
LINE
  8
0
 10
205.354
 20
39.1465
 11
205.294
 21
39.0955
  0
LINE
  8
0
 10
205.294
 20
39.0955
 11
205.227
 21
39.0545
  0
LINE
  8
0
 10
205.227
 20
39.0545
 11
205.155
 21
39.0245
  0
LINE
  8
0
 10
205.155
 20
39.0245
 11
205.078
 21
39.0061
  0
LINE
  8
0
 10
205.078
 20
39.0061
 11
205
 21
39
  0
LINE
  8
0
 10
205
 20
39
 11
147.5
 21
39
  0
LINE
  8
0
 10
147.5
 20
39
 11
147.5
 21
18
  0
LINE
  8
0
 10
147.5
 20
18
 11
205
 21
18
  0
LINE
  8
0
 10
205
 20
18
 11
205.078
 21
17.9939
  0
LINE
  8
0
 10
205.078
 20
17.9939
 11
205.155
 21
17.9755
  0
LINE
  8
0
 10
205.155
 20
17.9755
 11
205.227
 21
17.9455
  0
LINE
  8
0
 10
205.227
 20
17.9455
 11
205.294
 21
17.9045
  0
LINE
  8
0
 10
205.294
 20
17.9045
 11
205.354
 21
17.8535
  0
LINE
  8
0
 10
205.354
 20
17.8535
 11
205.405
 21
17.7939
  0
LINE
  8
0
 10
205.405
 20
17.7939
 11
205.446
 21
17.727
  0
LINE
  8
0
 10
205.446
 20
17.727
 11
205.476
 21
17.6545
  0
LINE
  8
0
 10
205.476
 20
17.6545
 11
205.494
 21
17.5782
  0
LINE
  8
0
 10
205.494
 20
17.5782
 11
205.5
 21
17.5
  0
LINE
  8
0
 10
205.5
 20
17.5
 11
205.5
 21
9
  0
LINE
  8
0
 10
205.5
 20
9
 11
244.5
 21
9
  0
LINE
  8
0
 10
244.5
 20
9
 11
244.5
 21
30
  0
ENDSEC
  0
SECTION
  2
OBJECTS
  0
DICTIONARY
  0
ENDSEC
  0
EOF
