  0
SECTION
  2
BLOCKS
  0
ENDSEC
  0
SECTION
  2
ENTITIES
  0
LINE
  8
0
 10
124.456
 20
7.51231
 11
124.609
 21
7.54895
  0
LINE
  8
0
 10
124.609
 20
7.54895
 11
124.754
 21
7.60899
  0
LINE
  8
0
 10
124.754
 20
7.60899
 11
124.888
 21
7.69098
  0
LINE
  8
0
 10
124.888
 20
7.69098
 11
125.007
 21
7.79289
  0
LINE
  8
0
 10
125.007
 20
7.79289
 11
125.109
 21
7.91222
  0
LINE
  8
0
 10
125.109
 20
7.91222
 11
125.191
 21
8.04601
  0
LINE
  8
0
 10
125.191
 20
8.04601
 11
125.251
 21
8.19098
  0
LINE
  8
0
 10
125.251
 20
8.19098
 11
125.288
 21
8.34357
  0
LINE
  8
0
 10
125.288
 20
8.34357
 11
125.3
 21
8.5
  0
LINE
  8
0
 10
125.3
 20
8.5
 11
125.3
 21
48.5
  0
LINE
  8
0
 10
125.3
 20
48.5
 11
125.288
 21
48.6564
  0
LINE
  8
0
 10
125.288
 20
48.6564
 11
125.251
 21
48.809
  0
LINE
  8
0
 10
125.251
 20
48.809
 11
125.191
 21
48.954
  0
LINE
  8
0
 10
125.191
 20
48.954
 11
125.109
 21
49.0878
  0
LINE
  8
0
 10
125.109
 20
49.0878
 11
125.007
 21
49.2071
  0
LINE
  8
0
 10
125.007
 20
49.2071
 11
124.888
 21
49.309
  0
LINE
  8
0
 10
124.888
 20
49.309
 11
124.754
 21
49.391
  0
LINE
  8
0
 10
124.754
 20
49.391
 11
124.609
 21
49.451
  0
LINE
  8
0
 10
124.609
 20
49.451
 11
124.456
 21
49.4877
  0
LINE
  8
0
 10
124.456
 20
49.4877
 11
124.3
 21
49.5
  0
LINE
  8
0
 10
124.3
 20
49.5
 11
37.4
 21
49.5
  0
LINE
  8
0
 10
37.4
 20
49.5
 11
37.2436
 21
49.4877
  0
LINE
  8
0
 10
37.2436
 20
49.4877
 11
37.091
 21
49.451
  0
LINE
  8
0
 10
37.091
 20
49.451
 11
36.946
 21
49.391
  0
LINE
  8
0
 10
36.946
 20
49.391
 11
36.8122
 21
49.309
  0
LINE
  8
0
 10
36.8122
 20
49.309
 11
36.6929
 21
49.2071
  0
LINE
  8
0
 10
36.6929
 20
49.2071
 11
36.591
 21
49.0878
  0
LINE
  8
0
 10
36.591
 20
49.0878
 11
36.509
 21
48.954
  0
LINE
  8
0
 10
36.509
 20
48.954
 11
36.4489
 21
48.809
  0
LINE
  8
0
 10
36.4489
 20
48.809
 11
36.4123
 21
48.6564
  0
LINE
  8
0
 10
36.4123
 20
48.6564
 11
36.4
 21
48.5
  0
LINE
  8
0
 10
36.4
 20
48.5
 11
36.4
 21
8.5
  0
LINE
  8
0
 10
36.4
 20
8.5
 11
36.4123
 21
8.34357
  0
LINE
  8
0
 10
36.4123
 20
8.34357
 11
36.4489
 21
8.19098
  0
LINE
  8
0
 10
36.4489
 20
8.19098
 11
36.509
 21
8.04601
  0
LINE
  8
0
 10
36.509
 20
8.04601
 11
36.591
 21
7.91222
  0
LINE
  8
0
 10
36.591
 20
7.91222
 11
36.6929
 21
7.79289
  0
LINE
  8
0
 10
36.6929
 20
7.79289
 11
36.8122
 21
7.69098
  0
LINE
  8
0
 10
36.8122
 20
7.69098
 11
36.946
 21
7.60899
  0
LINE
  8
0
 10
36.946
 20
7.60899
 11
37.091
 21
7.54895
  0
LINE
  8
0
 10
37.091
 20
7.54895
 11
37.2436
 21
7.51231
  0
LINE
  8
0
 10
37.2436
 20
7.51231
 11
37.4
 21
7.5
  0
LINE
  8
0
 10
37.4
 20
7.5
 11
124.3
 21
7.5
  0
LINE
  8
0
 10
124.3
 20
7.5
 11
124.456
 21
7.51231
  0
ENDSEC
  0
SECTION
  2
OBJECTS
  0
DICTIONARY
  0
ENDSEC
  0
EOF
