  0
SECTION
  2
BLOCKS
  0
ENDSEC
  0
SECTION
  2
ENTITIES
  0
LINE
  8
0
 10
250.256
 20
7.51231
 11
250.409
 21
7.54895
  0
LINE
  8
0
 10
250.409
 20
7.54895
 11
250.554
 21
7.60899
  0
LINE
  8
0
 10
250.554
 20
7.60899
 11
250.688
 21
7.69098
  0
LINE
  8
0
 10
250.688
 20
7.69098
 11
250.807
 21
7.79289
  0
LINE
  8
0
 10
250.807
 20
7.79289
 11
250.909
 21
7.91222
  0
LINE
  8
0
 10
250.909
 20
7.91222
 11
250.991
 21
8.04601
  0
LINE
  8
0
 10
250.991
 20
8.04601
 11
251.051
 21
8.19098
  0
LINE
  8
0
 10
251.051
 20
8.19098
 11
251.088
 21
8.34357
  0
LINE
  8
0
 10
251.088
 20
8.34357
 11
251.1
 21
8.5
  0
LINE
  8
0
 10
251.1
 20
8.5
 11
251.1
 21
48.5
  0
LINE
  8
0
 10
251.1
 20
48.5
 11
251.088
 21
48.6564
  0
LINE
  8
0
 10
251.088
 20
48.6564
 11
251.051
 21
48.809
  0
LINE
  8
0
 10
251.051
 20
48.809
 11
250.991
 21
48.954
  0
LINE
  8
0
 10
250.991
 20
48.954
 11
250.909
 21
49.0878
  0
LINE
  8
0
 10
250.909
 20
49.0878
 11
250.807
 21
49.2071
  0
LINE
  8
0
 10
250.807
 20
49.2071
 11
250.688
 21
49.309
  0
LINE
  8
0
 10
250.688
 20
49.309
 11
250.554
 21
49.391
  0
LINE
  8
0
 10
250.554
 20
49.391
 11
250.409
 21
49.451
  0
LINE
  8
0
 10
250.409
 20
49.451
 11
250.256
 21
49.4877
  0
LINE
  8
0
 10
250.256
 20
49.4877
 11
250.1
 21
49.5
  0
LINE
  8
0
 10
250.1
 20
49.5
 11
146
 21
49.5
  0
LINE
  8
0
 10
146
 20
49.5
 11
145.844
 21
49.4877
  0
LINE
  8
0
 10
145.844
 20
49.4877
 11
145.691
 21
49.451
  0
LINE
  8
0
 10
145.691
 20
49.451
 11
145.546
 21
49.391
  0
LINE
  8
0
 10
145.546
 20
49.391
 11
145.412
 21
49.309
  0
LINE
  8
0
 10
145.412
 20
49.309
 11
145.293
 21
49.2071
  0
LINE
  8
0
 10
145.293
 20
49.2071
 11
145.191
 21
49.0878
  0
LINE
  8
0
 10
145.191
 20
49.0878
 11
145.109
 21
48.954
  0
LINE
  8
0
 10
145.109
 20
48.954
 11
145.049
 21
48.809
  0
LINE
  8
0
 10
145.049
 20
48.809
 11
145.012
 21
48.6564
  0
LINE
  8
0
 10
145.012
 20
48.6564
 11
145
 21
48.5
  0
LINE
  8
0
 10
145
 20
48.5
 11
145
 21
8.5
  0
LINE
  8
0
 10
145
 20
8.5
 11
145.012
 21
8.34357
  0
LINE
  8
0
 10
145.012
 20
8.34357
 11
145.049
 21
8.19098
  0
LINE
  8
0
 10
145.049
 20
8.19098
 11
145.109
 21
8.04601
  0
LINE
  8
0
 10
145.109
 20
8.04601
 11
145.191
 21
7.91222
  0
LINE
  8
0
 10
145.191
 20
7.91222
 11
145.293
 21
7.79289
  0
LINE
  8
0
 10
145.293
 20
7.79289
 11
145.412
 21
7.69098
  0
LINE
  8
0
 10
145.412
 20
7.69098
 11
145.546
 21
7.60899
  0
LINE
  8
0
 10
145.546
 20
7.60899
 11
145.691
 21
7.54895
  0
LINE
  8
0
 10
145.691
 20
7.54895
 11
145.844
 21
7.51231
  0
LINE
  8
0
 10
145.844
 20
7.51231
 11
146
 21
7.5
  0
LINE
  8
0
 10
146
 20
7.5
 11
250.1
 21
7.5
  0
LINE
  8
0
 10
250.1
 20
7.5
 11
250.256
 21
7.51231
  0
ENDSEC
  0
SECTION
  2
OBJECTS
  0
DICTIONARY
  0
ENDSEC
  0
EOF
