  0
SECTION
  2
BLOCKS
  0
ENDSEC
  0
SECTION
  2
ENTITIES
  0
LINE
  8
0
 10
250.456
 20
7.51231
 11
250.609
 21
7.54895
  0
LINE
  8
0
 10
250.609
 20
7.54895
 11
250.754
 21
7.60899
  0
LINE
  8
0
 10
250.754
 20
7.60899
 11
250.888
 21
7.69098
  0
LINE
  8
0
 10
250.888
 20
7.69098
 11
251.007
 21
7.79289
  0
LINE
  8
0
 10
251.007
 20
7.79289
 11
251.109
 21
7.91222
  0
LINE
  8
0
 10
251.109
 20
7.91222
 11
251.191
 21
8.04601
  0
LINE
  8
0
 10
251.191
 20
8.04601
 11
251.251
 21
8.19098
  0
LINE
  8
0
 10
251.251
 20
8.19098
 11
251.288
 21
8.34357
  0
LINE
  8
0
 10
251.288
 20
8.34357
 11
251.3
 21
8.5
  0
LINE
  8
0
 10
251.3
 20
8.5
 11
251.3
 21
48.5
  0
LINE
  8
0
 10
251.3
 20
48.5
 11
251.288
 21
48.6564
  0
LINE
  8
0
 10
251.288
 20
48.6564
 11
251.251
 21
48.809
  0
LINE
  8
0
 10
251.251
 20
48.809
 11
251.191
 21
48.954
  0
LINE
  8
0
 10
251.191
 20
48.954
 11
251.109
 21
49.0878
  0
LINE
  8
0
 10
251.109
 20
49.0878
 11
251.007
 21
49.2071
  0
LINE
  8
0
 10
251.007
 20
49.2071
 11
250.888
 21
49.309
  0
LINE
  8
0
 10
250.888
 20
49.309
 11
250.754
 21
49.391
  0
LINE
  8
0
 10
250.754
 20
49.391
 11
250.609
 21
49.451
  0
LINE
  8
0
 10
250.609
 20
49.451
 11
250.456
 21
49.4877
  0
LINE
  8
0
 10
250.456
 20
49.4877
 11
250.3
 21
49.5
  0
LINE
  8
0
 10
250.3
 20
49.5
 11
145.4
 21
49.5
  0
LINE
  8
0
 10
145.4
 20
49.5
 11
145.244
 21
49.4877
  0
LINE
  8
0
 10
145.244
 20
49.4877
 11
145.091
 21
49.451
  0
LINE
  8
0
 10
145.091
 20
49.451
 11
144.946
 21
49.391
  0
LINE
  8
0
 10
144.946
 20
49.391
 11
144.812
 21
49.309
  0
LINE
  8
0
 10
144.812
 20
49.309
 11
144.693
 21
49.2071
  0
LINE
  8
0
 10
144.693
 20
49.2071
 11
144.591
 21
49.0878
  0
LINE
  8
0
 10
144.591
 20
49.0878
 11
144.509
 21
48.954
  0
LINE
  8
0
 10
144.509
 20
48.954
 11
144.449
 21
48.809
  0
LINE
  8
0
 10
144.449
 20
48.809
 11
144.412
 21
48.6564
  0
LINE
  8
0
 10
144.412
 20
48.6564
 11
144.4
 21
48.5
  0
LINE
  8
0
 10
144.4
 20
48.5
 11
144.4
 21
8.5
  0
LINE
  8
0
 10
144.4
 20
8.5
 11
144.412
 21
8.34357
  0
LINE
  8
0
 10
144.412
 20
8.34357
 11
144.449
 21
8.19098
  0
LINE
  8
0
 10
144.449
 20
8.19098
 11
144.509
 21
8.04601
  0
LINE
  8
0
 10
144.509
 20
8.04601
 11
144.591
 21
7.91222
  0
LINE
  8
0
 10
144.591
 20
7.91222
 11
144.693
 21
7.79289
  0
LINE
  8
0
 10
144.693
 20
7.79289
 11
144.812
 21
7.69098
  0
LINE
  8
0
 10
144.812
 20
7.69098
 11
144.946
 21
7.60899
  0
LINE
  8
0
 10
144.946
 20
7.60899
 11
145.091
 21
7.54895
  0
LINE
  8
0
 10
145.091
 20
7.54895
 11
145.244
 21
7.51231
  0
LINE
  8
0
 10
145.244
 20
7.51231
 11
145.4
 21
7.5
  0
LINE
  8
0
 10
145.4
 20
7.5
 11
250.3
 21
7.5
  0
LINE
  8
0
 10
250.3
 20
7.5
 11
250.456
 21
7.51231
  0
ENDSEC
  0
SECTION
  2
OBJECTS
  0
DICTIONARY
  0
ENDSEC
  0
EOF
