  0
SECTION
  2
BLOCKS
  0
ENDSEC
  0
SECTION
  2
ENTITIES
  0
LINE
  8
0
 10
124.256
 20
7.51231
 11
124.409
 21
7.54895
  0
LINE
  8
0
 10
124.409
 20
7.54895
 11
124.554
 21
7.60899
  0
LINE
  8
0
 10
124.554
 20
7.60899
 11
124.688
 21
7.69098
  0
LINE
  8
0
 10
124.688
 20
7.69098
 11
124.807
 21
7.79289
  0
LINE
  8
0
 10
124.807
 20
7.79289
 11
124.909
 21
7.91222
  0
LINE
  8
0
 10
124.909
 20
7.91222
 11
124.991
 21
8.04601
  0
LINE
  8
0
 10
124.991
 20
8.04601
 11
125.051
 21
8.19098
  0
LINE
  8
0
 10
125.051
 20
8.19098
 11
125.088
 21
8.34357
  0
LINE
  8
0
 10
125.088
 20
8.34357
 11
125.1
 21
8.5
  0
LINE
  8
0
 10
125.1
 20
8.5
 11
125.1
 21
48.5
  0
LINE
  8
0
 10
125.1
 20
48.5
 11
125.088
 21
48.6564
  0
LINE
  8
0
 10
125.088
 20
48.6564
 11
125.051
 21
48.809
  0
LINE
  8
0
 10
125.051
 20
48.809
 11
124.991
 21
48.954
  0
LINE
  8
0
 10
124.991
 20
48.954
 11
124.909
 21
49.0878
  0
LINE
  8
0
 10
124.909
 20
49.0878
 11
124.807
 21
49.2071
  0
LINE
  8
0
 10
124.807
 20
49.2071
 11
124.688
 21
49.309
  0
LINE
  8
0
 10
124.688
 20
49.309
 11
124.554
 21
49.391
  0
LINE
  8
0
 10
124.554
 20
49.391
 11
124.409
 21
49.451
  0
LINE
  8
0
 10
124.409
 20
49.451
 11
124.256
 21
49.4877
  0
LINE
  8
0
 10
124.256
 20
49.4877
 11
124.1
 21
49.5
  0
LINE
  8
0
 10
124.1
 20
49.5
 11
38
 21
49.5
  0
LINE
  8
0
 10
38
 20
49.5
 11
37.8436
 21
49.4877
  0
LINE
  8
0
 10
37.8436
 20
49.4877
 11
37.691
 21
49.451
  0
LINE
  8
0
 10
37.691
 20
49.451
 11
37.546
 21
49.391
  0
LINE
  8
0
 10
37.546
 20
49.391
 11
37.4122
 21
49.309
  0
LINE
  8
0
 10
37.4122
 20
49.309
 11
37.2929
 21
49.2071
  0
LINE
  8
0
 10
37.2929
 20
49.2071
 11
37.191
 21
49.0878
  0
LINE
  8
0
 10
37.191
 20
49.0878
 11
37.109
 21
48.954
  0
LINE
  8
0
 10
37.109
 20
48.954
 11
37.049
 21
48.809
  0
LINE
  8
0
 10
37.049
 20
48.809
 11
37.0123
 21
48.6564
  0
LINE
  8
0
 10
37.0123
 20
48.6564
 11
37
 21
48.5
  0
LINE
  8
0
 10
37
 20
48.5
 11
37
 21
8.5
  0
LINE
  8
0
 10
37
 20
8.5
 11
37.0123
 21
8.34357
  0
LINE
  8
0
 10
37.0123
 20
8.34357
 11
37.049
 21
8.19098
  0
LINE
  8
0
 10
37.049
 20
8.19098
 11
37.109
 21
8.04601
  0
LINE
  8
0
 10
37.109
 20
8.04601
 11
37.191
 21
7.91222
  0
LINE
  8
0
 10
37.191
 20
7.91222
 11
37.2929
 21
7.79289
  0
LINE
  8
0
 10
37.2929
 20
7.79289
 11
37.4122
 21
7.69098
  0
LINE
  8
0
 10
37.4122
 20
7.69098
 11
37.546
 21
7.60899
  0
LINE
  8
0
 10
37.546
 20
7.60899
 11
37.691
 21
7.54895
  0
LINE
  8
0
 10
37.691
 20
7.54895
 11
37.8436
 21
7.51231
  0
LINE
  8
0
 10
37.8436
 20
7.51231
 11
38
 21
7.5
  0
LINE
  8
0
 10
38
 20
7.5
 11
124.1
 21
7.5
  0
LINE
  8
0
 10
124.1
 20
7.5
 11
124.256
 21
7.51231
  0
ENDSEC
  0
SECTION
  2
OBJECTS
  0
DICTIONARY
  0
ENDSEC
  0
EOF
