  0
SECTION
  2
BLOCKS
  0
ENDSEC
  0
SECTION
  2
ENTITIES
  0
LINE
  8
0
 10
120.156
 20
7.51231
 11
120.309
 21
7.54895
  0
LINE
  8
0
 10
120.309
 20
7.54895
 11
120.454
 21
7.60899
  0
LINE
  8
0
 10
120.454
 20
7.60899
 11
120.588
 21
7.69098
  0
LINE
  8
0
 10
120.588
 20
7.69098
 11
120.707
 21
7.79289
  0
LINE
  8
0
 10
120.707
 20
7.79289
 11
120.809
 21
7.91222
  0
LINE
  8
0
 10
120.809
 20
7.91222
 11
120.891
 21
8.04601
  0
LINE
  8
0
 10
120.891
 20
8.04601
 11
120.951
 21
8.19098
  0
LINE
  8
0
 10
120.951
 20
8.19098
 11
120.988
 21
8.34357
  0
LINE
  8
0
 10
120.988
 20
8.34357
 11
121
 21
8.5
  0
LINE
  8
0
 10
121
 20
8.5
 11
121
 21
48.5
  0
LINE
  8
0
 10
121
 20
48.5
 11
120.988
 21
48.6564
  0
LINE
  8
0
 10
120.988
 20
48.6564
 11
120.951
 21
48.809
  0
LINE
  8
0
 10
120.951
 20
48.809
 11
120.891
 21
48.954
  0
LINE
  8
0
 10
120.891
 20
48.954
 11
120.809
 21
49.0878
  0
LINE
  8
0
 10
120.809
 20
49.0878
 11
120.707
 21
49.2071
  0
LINE
  8
0
 10
120.707
 20
49.2071
 11
120.588
 21
49.309
  0
LINE
  8
0
 10
120.588
 20
49.309
 11
120.454
 21
49.391
  0
LINE
  8
0
 10
120.454
 20
49.391
 11
120.309
 21
49.451
  0
LINE
  8
0
 10
120.309
 20
49.451
 11
120.156
 21
49.4877
  0
LINE
  8
0
 10
120.156
 20
49.4877
 11
120
 21
49.5
  0
LINE
  8
0
 10
120
 20
49.5
 11
38
 21
49.5
  0
LINE
  8
0
 10
38
 20
49.5
 11
37.8436
 21
49.4877
  0
LINE
  8
0
 10
37.8436
 20
49.4877
 11
37.691
 21
49.451
  0
LINE
  8
0
 10
37.691
 20
49.451
 11
37.546
 21
49.391
  0
LINE
  8
0
 10
37.546
 20
49.391
 11
37.4122
 21
49.309
  0
LINE
  8
0
 10
37.4122
 20
49.309
 11
37.2929
 21
49.2071
  0
LINE
  8
0
 10
37.2929
 20
49.2071
 11
37.191
 21
49.0878
  0
LINE
  8
0
 10
37.191
 20
49.0878
 11
37.109
 21
48.954
  0
LINE
  8
0
 10
37.109
 20
48.954
 11
37.049
 21
48.809
  0
LINE
  8
0
 10
37.049
 20
48.809
 11
37.0123
 21
48.6564
  0
LINE
  8
0
 10
37.0123
 20
48.6564
 11
37
 21
48.5
  0
LINE
  8
0
 10
37
 20
48.5
 11
37
 21
8.5
  0
LINE
  8
0
 10
37
 20
8.5
 11
37.0123
 21
8.34357
  0
LINE
  8
0
 10
37.0123
 20
8.34357
 11
37.049
 21
8.19098
  0
LINE
  8
0
 10
37.049
 20
8.19098
 11
37.109
 21
8.04601
  0
LINE
  8
0
 10
37.109
 20
8.04601
 11
37.191
 21
7.91222
  0
LINE
  8
0
 10
37.191
 20
7.91222
 11
37.2929
 21
7.79289
  0
LINE
  8
0
 10
37.2929
 20
7.79289
 11
37.4122
 21
7.69098
  0
LINE
  8
0
 10
37.4122
 20
7.69098
 11
37.546
 21
7.60899
  0
LINE
  8
0
 10
37.546
 20
7.60899
 11
37.691
 21
7.54895
  0
LINE
  8
0
 10
37.691
 20
7.54895
 11
37.8436
 21
7.51231
  0
LINE
  8
0
 10
37.8436
 20
7.51231
 11
38
 21
7.5
  0
LINE
  8
0
 10
38
 20
7.5
 11
120
 21
7.5
  0
LINE
  8
0
 10
120
 20
7.5
 11
120.156
 21
7.51231
  0
ENDSEC
  0
SECTION
  2
OBJECTS
  0
DICTIONARY
  0
ENDSEC
  0
EOF
