  0
SECTION
  2
BLOCKS
  0
ENDSEC
  0
SECTION
  2
ENTITIES
  0
LINE
  8
0
 10
251.3
 20
9
 11
299.9
 21
9
  0
LINE
  8
0
 10
299.9
 20
9
 11
299.9
 21
34
  0
LINE
  8
0
 10
299.9
 20
34
 11
251.3
 21
34
  0
LINE
  8
0
 10
251.3
 20
34
 11
251.3
 21
49.5
  0
LINE
  8
0
 10
251.3
 20
49.5
 11
7.5
 21
49.5
  0
LINE
  8
0
 10
7.5
 20
49.5
 11
7.5
 21
7.5
  0
LINE
  8
0
 10
7.5
 20
7.5
 11
251.3
 21
7.5
  0
LINE
  8
0
 10
251.3
 20
7.5
 11
251.3
 21
9
  0
LINE
  8
0
 10
39.7888
 20
44.5666
 11
39.5828
 21
44.6161
  0
LINE
  8
0
 10
39.5828
 20
44.6161
 11
39.3871
 21
44.6971
  0
LINE
  8
0
 10
39.3871
 20
44.6971
 11
39.2065
 21
44.8078
  0
LINE
  8
0
 10
39.2065
 20
44.8078
 11
39.0454
 21
44.9454
  0
LINE
  8
0
 10
39.0454
 20
44.9454
 11
38.9078
 21
45.1065
  0
LINE
  8
0
 10
38.9078
 20
45.1065
 11
38.7971
 21
45.2871
  0
LINE
  8
0
 10
38.7971
 20
45.2871
 11
38.7161
 21
45.4828
  0
LINE
  8
0
 10
38.7161
 20
45.4828
 11
38.6666
 21
45.6888
  0
LINE
  8
0
 10
38.6666
 20
45.6888
 11
38.65
 21
45.9
  0
LINE
  8
0
 10
38.65
 20
45.9
 11
38.6666
 21
46.1112
  0
LINE
  8
0
 10
38.6666
 20
46.1112
 11
38.7161
 21
46.3172
  0
LINE
  8
0
 10
38.7161
 20
46.3172
 11
38.7971
 21
46.5129
  0
LINE
  8
0
 10
38.7971
 20
46.5129
 11
38.9078
 21
46.6935
  0
LINE
  8
0
 10
38.9078
 20
46.6935
 11
39.0454
 21
46.8546
  0
LINE
  8
0
 10
39.0454
 20
46.8546
 11
39.2065
 21
46.9922
  0
LINE
  8
0
 10
39.2065
 20
46.9922
 11
39.3871
 21
47.1028
  0
LINE
  8
0
 10
39.3871
 20
47.1028
 11
39.5828
 21
47.1839
  0
LINE
  8
0
 10
39.5828
 20
47.1839
 11
39.7888
 21
47.2334
  0
LINE
  8
0
 10
39.7888
 20
47.2334
 11
40
 21
47.25
  0
LINE
  8
0
 10
40
 20
47.25
 11
40.2112
 21
47.2334
  0
LINE
  8
0
 10
40.2112
 20
47.2334
 11
40.4172
 21
47.1839
  0
LINE
  8
0
 10
40.4172
 20
47.1839
 11
40.6129
 21
47.1028
  0
LINE
  8
0
 10
40.6129
 20
47.1028
 11
40.7935
 21
46.9922
  0
LINE
  8
0
 10
40.7935
 20
46.9922
 11
40.9546
 21
46.8546
  0
LINE
  8
0
 10
40.9546
 20
46.8546
 11
41.0922
 21
46.6935
  0
LINE
  8
0
 10
41.0922
 20
46.6935
 11
41.2029
 21
46.5129
  0
LINE
  8
0
 10
41.2029
 20
46.5129
 11
41.2839
 21
46.3172
  0
LINE
  8
0
 10
41.2839
 20
46.3172
 11
41.3334
 21
46.1112
  0
LINE
  8
0
 10
41.3334
 20
46.1112
 11
41.35
 21
45.9
  0
LINE
  8
0
 10
41.35
 20
45.9
 11
41.3334
 21
45.6888
  0
LINE
  8
0
 10
41.3334
 20
45.6888
 11
41.2839
 21
45.4828
  0
LINE
  8
0
 10
41.2839
 20
45.4828
 11
41.2029
 21
45.2871
  0
LINE
  8
0
 10
41.2029
 20
45.2871
 11
41.0922
 21
45.1065
  0
LINE
  8
0
 10
41.0922
 20
45.1065
 11
40.9546
 21
44.9454
  0
LINE
  8
0
 10
40.9546
 20
44.9454
 11
40.7935
 21
44.8078
  0
LINE
  8
0
 10
40.7935
 20
44.8078
 11
40.6129
 21
44.6971
  0
LINE
  8
0
 10
40.6129
 20
44.6971
 11
40.4172
 21
44.6161
  0
LINE
  8
0
 10
40.4172
 20
44.6161
 11
40.2112
 21
44.5666
  0
LINE
  8
0
 10
40.2112
 20
44.5666
 11
40
 21
44.55
  0
LINE
  8
0
 10
40
 20
44.55
 11
39.7888
 21
44.5666
  0
LINE
  8
0
 10
121.489
 20
44.5666
 11
121.283
 21
44.6161
  0
LINE
  8
0
 10
121.283
 20
44.6161
 11
121.087
 21
44.6971
  0
LINE
  8
0
 10
121.087
 20
44.6971
 11
120.906
 21
44.8078
  0
LINE
  8
0
 10
120.906
 20
44.8078
 11
120.745
 21
44.9454
  0
LINE
  8
0
 10
120.745
 20
44.9454
 11
120.608
 21
45.1065
  0
LINE
  8
0
 10
120.608
 20
45.1065
 11
120.497
 21
45.2871
  0
LINE
  8
0
 10
120.497
 20
45.2871
 11
120.416
 21
45.4828
  0
LINE
  8
0
 10
120.416
 20
45.4828
 11
120.367
 21
45.6888
  0
LINE
  8
0
 10
120.367
 20
45.6888
 11
120.35
 21
45.9
  0
LINE
  8
0
 10
120.35
 20
45.9
 11
120.367
 21
46.1112
  0
LINE
  8
0
 10
120.367
 20
46.1112
 11
120.416
 21
46.3172
  0
LINE
  8
0
 10
120.416
 20
46.3172
 11
120.497
 21
46.5129
  0
LINE
  8
0
 10
120.497
 20
46.5129
 11
120.608
 21
46.6935
  0
LINE
  8
0
 10
120.608
 20
46.6935
 11
120.745
 21
46.8546
  0
LINE
  8
0
 10
120.745
 20
46.8546
 11
120.906
 21
46.9922
  0
LINE
  8
0
 10
120.906
 20
46.9922
 11
121.087
 21
47.1028
  0
LINE
  8
0
 10
121.087
 20
47.1028
 11
121.283
 21
47.1839
  0
LINE
  8
0
 10
121.283
 20
47.1839
 11
121.489
 21
47.2334
  0
LINE
  8
0
 10
121.489
 20
47.2334
 11
121.7
 21
47.25
  0
LINE
  8
0
 10
121.7
 20
47.25
 11
121.911
 21
47.2334
  0
LINE
  8
0
 10
121.911
 20
47.2334
 11
122.117
 21
47.1839
  0
LINE
  8
0
 10
122.117
 20
47.1839
 11
122.313
 21
47.1028
  0
LINE
  8
0
 10
122.313
 20
47.1028
 11
122.493
 21
46.9922
  0
LINE
  8
0
 10
122.493
 20
46.9922
 11
122.655
 21
46.8546
  0
LINE
  8
0
 10
122.655
 20
46.8546
 11
122.792
 21
46.6935
  0
LINE
  8
0
 10
122.792
 20
46.6935
 11
122.903
 21
46.5129
  0
LINE
  8
0
 10
122.903
 20
46.5129
 11
122.984
 21
46.3172
  0
LINE
  8
0
 10
122.984
 20
46.3172
 11
123.033
 21
46.1112
  0
LINE
  8
0
 10
123.033
 20
46.1112
 11
123.05
 21
45.9
  0
LINE
  8
0
 10
123.05
 20
45.9
 11
123.033
 21
45.6888
  0
LINE
  8
0
 10
123.033
 20
45.6888
 11
122.984
 21
45.4828
  0
LINE
  8
0
 10
122.984
 20
45.4828
 11
122.903
 21
45.2871
  0
LINE
  8
0
 10
122.903
 20
45.2871
 11
122.792
 21
45.1065
  0
LINE
  8
0
 10
122.792
 20
45.1065
 11
122.655
 21
44.9454
  0
LINE
  8
0
 10
122.655
 20
44.9454
 11
122.493
 21
44.8078
  0
LINE
  8
0
 10
122.493
 20
44.8078
 11
122.313
 21
44.6971
  0
LINE
  8
0
 10
122.313
 20
44.6971
 11
122.117
 21
44.6161
  0
LINE
  8
0
 10
122.117
 20
44.6161
 11
121.911
 21
44.5666
  0
LINE
  8
0
 10
121.911
 20
44.5666
 11
121.7
 21
44.55
  0
LINE
  8
0
 10
121.7
 20
44.55
 11
121.489
 21
44.5666
  0
LINE
  8
0
 10
147.789
 20
44.5666
 11
147.583
 21
44.6161
  0
LINE
  8
0
 10
147.583
 20
44.6161
 11
147.387
 21
44.6971
  0
LINE
  8
0
 10
147.387
 20
44.6971
 11
147.206
 21
44.8078
  0
LINE
  8
0
 10
147.206
 20
44.8078
 11
147.045
 21
44.9454
  0
LINE
  8
0
 10
147.045
 20
44.9454
 11
146.908
 21
45.1065
  0
LINE
  8
0
 10
146.908
 20
45.1065
 11
146.797
 21
45.2871
  0
LINE
  8
0
 10
146.797
 20
45.2871
 11
146.716
 21
45.4828
  0
LINE
  8
0
 10
146.716
 20
45.4828
 11
146.667
 21
45.6888
  0
LINE
  8
0
 10
146.667
 20
45.6888
 11
146.65
 21
45.9
  0
LINE
  8
0
 10
146.65
 20
45.9
 11
146.667
 21
46.1112
  0
LINE
  8
0
 10
146.667
 20
46.1112
 11
146.716
 21
46.3172
  0
LINE
  8
0
 10
146.716
 20
46.3172
 11
146.797
 21
46.5129
  0
LINE
  8
0
 10
146.797
 20
46.5129
 11
146.908
 21
46.6935
  0
LINE
  8
0
 10
146.908
 20
46.6935
 11
147.045
 21
46.8546
  0
LINE
  8
0
 10
147.045
 20
46.8546
 11
147.206
 21
46.9922
  0
LINE
  8
0
 10
147.206
 20
46.9922
 11
147.387
 21
47.1028
  0
LINE
  8
0
 10
147.387
 20
47.1028
 11
147.583
 21
47.1839
  0
LINE
  8
0
 10
147.583
 20
47.1839
 11
147.789
 21
47.2334
  0
LINE
  8
0
 10
147.789
 20
47.2334
 11
148
 21
47.25
  0
LINE
  8
0
 10
148
 20
47.25
 11
148.211
 21
47.2334
  0
LINE
  8
0
 10
148.211
 20
47.2334
 11
148.417
 21
47.1839
  0
LINE
  8
0
 10
148.417
 20
47.1839
 11
148.613
 21
47.1028
  0
LINE
  8
0
 10
148.613
 20
47.1028
 11
148.794
 21
46.9922
  0
LINE
  8
0
 10
148.794
 20
46.9922
 11
148.955
 21
46.8546
  0
LINE
  8
0
 10
148.955
 20
46.8546
 11
149.092
 21
46.6935
  0
LINE
  8
0
 10
149.092
 20
46.6935
 11
149.203
 21
46.5129
  0
LINE
  8
0
 10
149.203
 20
46.5129
 11
149.284
 21
46.3172
  0
LINE
  8
0
 10
149.284
 20
46.3172
 11
149.333
 21
46.1112
  0
LINE
  8
0
 10
149.333
 20
46.1112
 11
149.35
 21
45.9
  0
LINE
  8
0
 10
149.35
 20
45.9
 11
149.333
 21
45.6888
  0
LINE
  8
0
 10
149.333
 20
45.6888
 11
149.284
 21
45.4828
  0
LINE
  8
0
 10
149.284
 20
45.4828
 11
149.203
 21
45.2871
  0
LINE
  8
0
 10
149.203
 20
45.2871
 11
149.092
 21
45.1065
  0
LINE
  8
0
 10
149.092
 20
45.1065
 11
148.955
 21
44.9454
  0
LINE
  8
0
 10
148.955
 20
44.9454
 11
148.794
 21
44.8078
  0
LINE
  8
0
 10
148.794
 20
44.8078
 11
148.613
 21
44.6971
  0
LINE
  8
0
 10
148.613
 20
44.6971
 11
148.417
 21
44.6161
  0
LINE
  8
0
 10
148.417
 20
44.6161
 11
148.211
 21
44.5666
  0
LINE
  8
0
 10
148.211
 20
44.5666
 11
148
 21
44.55
  0
LINE
  8
0
 10
148
 20
44.55
 11
147.789
 21
44.5666
  0
LINE
  8
0
 10
247.489
 20
44.5666
 11
247.283
 21
44.6161
  0
LINE
  8
0
 10
247.283
 20
44.6161
 11
247.087
 21
44.6971
  0
LINE
  8
0
 10
247.087
 20
44.6971
 11
246.906
 21
44.8078
  0
LINE
  8
0
 10
246.906
 20
44.8078
 11
246.745
 21
44.9454
  0
LINE
  8
0
 10
246.745
 20
44.9454
 11
246.608
 21
45.1065
  0
LINE
  8
0
 10
246.608
 20
45.1065
 11
246.497
 21
45.2871
  0
LINE
  8
0
 10
246.497
 20
45.2871
 11
246.416
 21
45.4828
  0
LINE
  8
0
 10
246.416
 20
45.4828
 11
246.367
 21
45.6888
  0
LINE
  8
0
 10
246.367
 20
45.6888
 11
246.35
 21
45.9
  0
LINE
  8
0
 10
246.35
 20
45.9
 11
246.367
 21
46.1112
  0
LINE
  8
0
 10
246.367
 20
46.1112
 11
246.416
 21
46.3172
  0
LINE
  8
0
 10
246.416
 20
46.3172
 11
246.497
 21
46.5129
  0
LINE
  8
0
 10
246.497
 20
46.5129
 11
246.608
 21
46.6935
  0
LINE
  8
0
 10
246.608
 20
46.6935
 11
246.745
 21
46.8546
  0
LINE
  8
0
 10
246.745
 20
46.8546
 11
246.906
 21
46.9922
  0
LINE
  8
0
 10
246.906
 20
46.9922
 11
247.087
 21
47.1028
  0
LINE
  8
0
 10
247.087
 20
47.1028
 11
247.283
 21
47.1839
  0
LINE
  8
0
 10
247.283
 20
47.1839
 11
247.489
 21
47.2334
  0
LINE
  8
0
 10
247.489
 20
47.2334
 11
247.7
 21
47.25
  0
LINE
  8
0
 10
247.7
 20
47.25
 11
247.911
 21
47.2334
  0
LINE
  8
0
 10
247.911
 20
47.2334
 11
248.117
 21
47.1839
  0
LINE
  8
0
 10
248.117
 20
47.1839
 11
248.313
 21
47.1028
  0
LINE
  8
0
 10
248.313
 20
47.1028
 11
248.493
 21
46.9922
  0
LINE
  8
0
 10
248.493
 20
46.9922
 11
248.655
 21
46.8546
  0
LINE
  8
0
 10
248.655
 20
46.8546
 11
248.792
 21
46.6935
  0
LINE
  8
0
 10
248.792
 20
46.6935
 11
248.903
 21
46.5129
  0
LINE
  8
0
 10
248.903
 20
46.5129
 11
248.984
 21
46.3172
  0
LINE
  8
0
 10
248.984
 20
46.3172
 11
249.033
 21
46.1112
  0
LINE
  8
0
 10
249.033
 20
46.1112
 11
249.05
 21
45.9
  0
LINE
  8
0
 10
249.05
 20
45.9
 11
249.033
 21
45.6888
  0
LINE
  8
0
 10
249.033
 20
45.6888
 11
248.984
 21
45.4828
  0
LINE
  8
0
 10
248.984
 20
45.4828
 11
248.903
 21
45.2871
  0
LINE
  8
0
 10
248.903
 20
45.2871
 11
248.792
 21
45.1065
  0
LINE
  8
0
 10
248.792
 20
45.1065
 11
248.655
 21
44.9454
  0
LINE
  8
0
 10
248.655
 20
44.9454
 11
248.493
 21
44.8078
  0
LINE
  8
0
 10
248.493
 20
44.8078
 11
248.313
 21
44.6971
  0
LINE
  8
0
 10
248.313
 20
44.6971
 11
248.117
 21
44.6161
  0
LINE
  8
0
 10
248.117
 20
44.6161
 11
247.911
 21
44.5666
  0
LINE
  8
0
 10
247.911
 20
44.5666
 11
247.7
 21
44.55
  0
LINE
  8
0
 10
247.7
 20
44.55
 11
247.489
 21
44.5666
  0
LINE
  8
0
 10
32.2888
 20
44.1666
 11
32.0828
 21
44.2161
  0
LINE
  8
0
 10
32.0828
 20
44.2161
 11
31.8871
 21
44.2971
  0
LINE
  8
0
 10
31.8871
 20
44.2971
 11
31.7065
 21
44.4078
  0
LINE
  8
0
 10
31.7065
 20
44.4078
 11
31.5454
 21
44.5454
  0
LINE
  8
0
 10
31.5454
 20
44.5454
 11
31.4078
 21
44.7065
  0
LINE
  8
0
 10
31.4078
 20
44.7065
 11
31.2971
 21
44.8871
  0
LINE
  8
0
 10
31.2971
 20
44.8871
 11
31.2161
 21
45.0828
  0
LINE
  8
0
 10
31.2161
 20
45.0828
 11
31.1666
 21
45.2888
  0
LINE
  8
0
 10
31.1666
 20
45.2888
 11
31.15
 21
45.5
  0
LINE
  8
0
 10
31.15
 20
45.5
 11
31.1666
 21
45.7112
  0
LINE
  8
0
 10
31.1666
 20
45.7112
 11
31.2161
 21
45.9172
  0
LINE
  8
0
 10
31.2161
 20
45.9172
 11
31.2971
 21
46.1129
  0
LINE
  8
0
 10
31.2971
 20
46.1129
 11
31.4078
 21
46.2935
  0
LINE
  8
0
 10
31.4078
 20
46.2935
 11
31.5454
 21
46.4546
  0
LINE
  8
0
 10
31.5454
 20
46.4546
 11
31.7065
 21
46.5922
  0
LINE
  8
0
 10
31.7065
 20
46.5922
 11
31.8871
 21
46.7029
  0
LINE
  8
0
 10
31.8871
 20
46.7029
 11
32.0828
 21
46.7839
  0
LINE
  8
0
 10
32.0828
 20
46.7839
 11
32.2888
 21
46.8334
  0
LINE
  8
0
 10
32.2888
 20
46.8334
 11
32.5
 21
46.85
  0
LINE
  8
0
 10
32.5
 20
46.85
 11
32.7112
 21
46.8334
  0
LINE
  8
0
 10
32.7112
 20
46.8334
 11
32.9172
 21
46.7839
  0
LINE
  8
0
 10
32.9172
 20
46.7839
 11
33.1129
 21
46.7029
  0
LINE
  8
0
 10
33.1129
 20
46.7029
 11
33.2935
 21
46.5922
  0
LINE
  8
0
 10
33.2935
 20
46.5922
 11
33.4546
 21
46.4546
  0
LINE
  8
0
 10
33.4546
 20
46.4546
 11
33.5922
 21
46.2935
  0
LINE
  8
0
 10
33.5922
 20
46.2935
 11
33.7029
 21
46.1129
  0
LINE
  8
0
 10
33.7029
 20
46.1129
 11
33.7839
 21
45.9172
  0
LINE
  8
0
 10
33.7839
 20
45.9172
 11
33.8334
 21
45.7112
  0
LINE
  8
0
 10
33.8334
 20
45.7112
 11
33.85
 21
45.5
  0
LINE
  8
0
 10
33.85
 20
45.5
 11
33.8334
 21
45.2888
  0
LINE
  8
0
 10
33.8334
 20
45.2888
 11
33.7839
 21
45.0828
  0
LINE
  8
0
 10
33.7839
 20
45.0828
 11
33.7029
 21
44.8871
  0
LINE
  8
0
 10
33.7029
 20
44.8871
 11
33.5922
 21
44.7065
  0
LINE
  8
0
 10
33.5922
 20
44.7065
 11
33.4546
 21
44.5454
  0
LINE
  8
0
 10
33.4546
 20
44.5454
 11
33.2935
 21
44.4078
  0
LINE
  8
0
 10
33.2935
 20
44.4078
 11
33.1129
 21
44.2971
  0
LINE
  8
0
 10
33.1129
 20
44.2971
 11
32.9172
 21
44.2161
  0
LINE
  8
0
 10
32.9172
 20
44.2161
 11
32.7112
 21
44.1666
  0
LINE
  8
0
 10
32.7112
 20
44.1666
 11
32.5
 21
44.15
  0
LINE
  8
0
 10
32.5
 20
44.15
 11
32.2888
 21
44.1666
  0
LINE
  8
0
 10
20.29
 20
39.05
 11
20.29
 21
44.35
  0
LINE
  8
0
 10
20.29
 20
44.35
 11
28.89
 21
44.35
  0
LINE
  8
0
 10
28.89
 20
44.35
 11
28.89
 21
39.05
  0
LINE
  8
0
 10
28.89
 20
39.05
 11
20.29
 21
39.05
  0
LINE
  8
0
 10
132.687
 20
36.5246
 11
132.382
 21
36.5979
  0
LINE
  8
0
 10
132.382
 20
36.5979
 11
132.092
 21
36.718
  0
LINE
  8
0
 10
132.092
 20
36.718
 11
131.824
 21
36.882
  0
LINE
  8
0
 10
131.824
 20
36.882
 11
131.586
 21
37.0858
  0
LINE
  8
0
 10
131.586
 20
37.0858
 11
131.382
 21
37.3244
  0
LINE
  8
0
 10
131.382
 20
37.3244
 11
131.218
 21
37.592
  0
LINE
  8
0
 10
131.218
 20
37.592
 11
131.098
 21
37.882
  0
LINE
  8
0
 10
131.098
 20
37.882
 11
131.025
 21
38.1871
  0
LINE
  8
0
 10
131.025
 20
38.1871
 11
131
 21
38.5
  0
LINE
  8
0
 10
131
 20
38.5
 11
131.025
 21
38.8129
  0
LINE
  8
0
 10
131.025
 20
38.8129
 11
131.098
 21
39.118
  0
LINE
  8
0
 10
131.098
 20
39.118
 11
131.218
 21
39.408
  0
LINE
  8
0
 10
131.218
 20
39.408
 11
131.382
 21
39.6756
  0
LINE
  8
0
 10
131.382
 20
39.6756
 11
131.586
 21
39.9142
  0
LINE
  8
0
 10
131.586
 20
39.9142
 11
131.824
 21
40.118
  0
LINE
  8
0
 10
131.824
 20
40.118
 11
132.092
 21
40.282
  0
LINE
  8
0
 10
132.092
 20
40.282
 11
132.382
 21
40.4021
  0
LINE
  8
0
 10
132.382
 20
40.4021
 11
132.687
 21
40.4754
  0
LINE
  8
0
 10
132.687
 20
40.4754
 11
133
 21
40.5
  0
LINE
  8
0
 10
133
 20
40.5
 11
133.313
 21
40.4754
  0
LINE
  8
0
 10
133.313
 20
40.4754
 11
133.618
 21
40.4021
  0
LINE
  8
0
 10
133.618
 20
40.4021
 11
133.908
 21
40.282
  0
LINE
  8
0
 10
133.908
 20
40.282
 11
134.176
 21
40.118
  0
LINE
  8
0
 10
134.176
 20
40.118
 11
134.414
 21
39.9142
  0
LINE
  8
0
 10
134.414
 20
39.9142
 11
134.618
 21
39.6756
  0
LINE
  8
0
 10
134.618
 20
39.6756
 11
134.782
 21
39.408
  0
LINE
  8
0
 10
134.782
 20
39.408
 11
134.902
 21
39.118
  0
LINE
  8
0
 10
134.902
 20
39.118
 11
134.975
 21
38.8129
  0
LINE
  8
0
 10
134.975
 20
38.8129
 11
135
 21
38.5
  0
LINE
  8
0
 10
135
 20
38.5
 11
134.975
 21
38.1871
  0
LINE
  8
0
 10
134.975
 20
38.1871
 11
134.902
 21
37.882
  0
LINE
  8
0
 10
134.902
 20
37.882
 11
134.782
 21
37.592
  0
LINE
  8
0
 10
134.782
 20
37.592
 11
134.618
 21
37.3244
  0
LINE
  8
0
 10
134.618
 20
37.3244
 11
134.414
 21
37.0858
  0
LINE
  8
0
 10
134.414
 20
37.0858
 11
134.176
 21
36.882
  0
LINE
  8
0
 10
134.176
 20
36.882
 11
133.908
 21
36.718
  0
LINE
  8
0
 10
133.908
 20
36.718
 11
133.618
 21
36.5979
  0
LINE
  8
0
 10
133.618
 20
36.5979
 11
133.313
 21
36.5246
  0
LINE
  8
0
 10
133.313
 20
36.5246
 11
133
 21
36.5
  0
LINE
  8
0
 10
133
 20
36.5
 11
132.687
 21
36.5246
  0
LINE
  8
0
 10
278.102
 20
28.6666
 11
277.896
 21
28.7161
  0
LINE
  8
0
 10
277.896
 20
28.7161
 11
277.7
 21
28.7971
  0
LINE
  8
0
 10
277.7
 20
28.7971
 11
277.52
 21
28.9078
  0
LINE
  8
0
 10
277.52
 20
28.9078
 11
277.359
 21
29.0454
  0
LINE
  8
0
 10
277.359
 20
29.0454
 11
277.221
 21
29.2065
  0
LINE
  8
0
 10
277.221
 20
29.2065
 11
277.11
 21
29.3871
  0
LINE
  8
0
 10
277.11
 20
29.3871
 11
277.029
 21
29.5828
  0
LINE
  8
0
 10
277.029
 20
29.5828
 11
276.98
 21
29.7888
  0
LINE
  8
0
 10
276.98
 20
29.7888
 11
276.963
 21
30
  0
LINE
  8
0
 10
276.963
 20
30
 11
276.98
 21
30.2112
  0
LINE
  8
0
 10
276.98
 20
30.2112
 11
277.029
 21
30.4172
  0
LINE
  8
0
 10
277.029
 20
30.4172
 11
277.11
 21
30.6129
  0
LINE
  8
0
 10
277.11
 20
30.6129
 11
277.221
 21
30.7935
  0
LINE
  8
0
 10
277.221
 20
30.7935
 11
277.359
 21
30.9546
  0
LINE
  8
0
 10
277.359
 20
30.9546
 11
277.52
 21
31.0922
  0
LINE
  8
0
 10
277.52
 20
31.0922
 11
277.7
 21
31.2029
  0
LINE
  8
0
 10
277.7
 20
31.2029
 11
277.896
 21
31.2839
  0
LINE
  8
0
 10
277.896
 20
31.2839
 11
278.102
 21
31.3334
  0
LINE
  8
0
 10
278.102
 20
31.3334
 11
278.313
 21
31.35
  0
LINE
  8
0
 10
278.313
 20
31.35
 11
278.524
 21
31.3334
  0
LINE
  8
0
 10
278.524
 20
31.3334
 11
278.73
 21
31.2839
  0
LINE
  8
0
 10
278.73
 20
31.2839
 11
278.926
 21
31.2029
  0
LINE
  8
0
 10
278.926
 20
31.2029
 11
279.107
 21
31.0922
  0
LINE
  8
0
 10
279.107
 20
31.0922
 11
279.268
 21
30.9546
  0
LINE
  8
0
 10
279.268
 20
30.9546
 11
279.405
 21
30.7935
  0
LINE
  8
0
 10
279.405
 20
30.7935
 11
279.516
 21
30.6129
  0
LINE
  8
0
 10
279.516
 20
30.6129
 11
279.597
 21
30.4172
  0
LINE
  8
0
 10
279.597
 20
30.4172
 11
279.647
 21
30.2112
  0
LINE
  8
0
 10
279.647
 20
30.2112
 11
279.663
 21
30
  0
LINE
  8
0
 10
279.663
 20
30
 11
279.647
 21
29.7888
  0
LINE
  8
0
 10
279.647
 20
29.7888
 11
279.597
 21
29.5828
  0
LINE
  8
0
 10
279.597
 20
29.5828
 11
279.516
 21
29.3871
  0
LINE
  8
0
 10
279.516
 20
29.3871
 11
279.405
 21
29.2065
  0
LINE
  8
0
 10
279.405
 20
29.2065
 11
279.268
 21
29.0454
  0
LINE
  8
0
 10
279.268
 20
29.0454
 11
279.107
 21
28.9078
  0
LINE
  8
0
 10
279.107
 20
28.9078
 11
278.926
 21
28.7971
  0
LINE
  8
0
 10
278.926
 20
28.7971
 11
278.73
 21
28.7161
  0
LINE
  8
0
 10
278.73
 20
28.7161
 11
278.524
 21
28.6666
  0
LINE
  8
0
 10
278.524
 20
28.6666
 11
278.313
 21
28.65
  0
LINE
  8
0
 10
278.313
 20
28.65
 11
278.102
 21
28.6666
  0
LINE
  8
0
 10
132.687
 20
16.5246
 11
132.382
 21
16.5979
  0
LINE
  8
0
 10
132.382
 20
16.5979
 11
132.092
 21
16.718
  0
LINE
  8
0
 10
132.092
 20
16.718
 11
131.824
 21
16.882
  0
LINE
  8
0
 10
131.824
 20
16.882
 11
131.586
 21
17.0858
  0
LINE
  8
0
 10
131.586
 20
17.0858
 11
131.382
 21
17.3244
  0
LINE
  8
0
 10
131.382
 20
17.3244
 11
131.218
 21
17.592
  0
LINE
  8
0
 10
131.218
 20
17.592
 11
131.098
 21
17.882
  0
LINE
  8
0
 10
131.098
 20
17.882
 11
131.025
 21
18.1871
  0
LINE
  8
0
 10
131.025
 20
18.1871
 11
131
 21
18.5
  0
LINE
  8
0
 10
131
 20
18.5
 11
131.025
 21
18.8129
  0
LINE
  8
0
 10
131.025
 20
18.8129
 11
131.098
 21
19.118
  0
LINE
  8
0
 10
131.098
 20
19.118
 11
131.218
 21
19.408
  0
LINE
  8
0
 10
131.218
 20
19.408
 11
131.382
 21
19.6756
  0
LINE
  8
0
 10
131.382
 20
19.6756
 11
131.586
 21
19.9142
  0
LINE
  8
0
 10
131.586
 20
19.9142
 11
131.824
 21
20.118
  0
LINE
  8
0
 10
131.824
 20
20.118
 11
132.092
 21
20.282
  0
LINE
  8
0
 10
132.092
 20
20.282
 11
132.382
 21
20.4021
  0
LINE
  8
0
 10
132.382
 20
20.4021
 11
132.687
 21
20.4754
  0
LINE
  8
0
 10
132.687
 20
20.4754
 11
133
 21
20.5
  0
LINE
  8
0
 10
133
 20
20.5
 11
133.313
 21
20.4754
  0
LINE
  8
0
 10
133.313
 20
20.4754
 11
133.618
 21
20.4021
  0
LINE
  8
0
 10
133.618
 20
20.4021
 11
133.908
 21
20.282
  0
LINE
  8
0
 10
133.908
 20
20.282
 11
134.176
 21
20.118
  0
LINE
  8
0
 10
134.176
 20
20.118
 11
134.414
 21
19.9142
  0
LINE
  8
0
 10
134.414
 20
19.9142
 11
134.618
 21
19.6756
  0
LINE
  8
0
 10
134.618
 20
19.6756
 11
134.782
 21
19.408
  0
LINE
  8
0
 10
134.782
 20
19.408
 11
134.902
 21
19.118
  0
LINE
  8
0
 10
134.902
 20
19.118
 11
134.975
 21
18.8129
  0
LINE
  8
0
 10
134.975
 20
18.8129
 11
135
 21
18.5
  0
LINE
  8
0
 10
135
 20
18.5
 11
134.975
 21
18.1871
  0
LINE
  8
0
 10
134.975
 20
18.1871
 11
134.902
 21
17.882
  0
LINE
  8
0
 10
134.902
 20
17.882
 11
134.782
 21
17.592
  0
LINE
  8
0
 10
134.782
 20
17.592
 11
134.618
 21
17.3244
  0
LINE
  8
0
 10
134.618
 20
17.3244
 11
134.414
 21
17.0858
  0
LINE
  8
0
 10
134.414
 20
17.0858
 11
134.176
 21
16.882
  0
LINE
  8
0
 10
134.176
 20
16.882
 11
133.908
 21
16.718
  0
LINE
  8
0
 10
133.908
 20
16.718
 11
133.618
 21
16.5979
  0
LINE
  8
0
 10
133.618
 20
16.5979
 11
133.313
 21
16.5246
  0
LINE
  8
0
 10
133.313
 20
16.5246
 11
133
 21
16.5
  0
LINE
  8
0
 10
133
 20
16.5
 11
132.687
 21
16.5246
  0
LINE
  8
0
 10
278.102
 20
11.6666
 11
277.896
 21
11.7161
  0
LINE
  8
0
 10
277.896
 20
11.7161
 11
277.7
 21
11.7971
  0
LINE
  8
0
 10
277.7
 20
11.7971
 11
277.52
 21
11.9078
  0
LINE
  8
0
 10
277.52
 20
11.9078
 11
277.359
 21
12.0454
  0
LINE
  8
0
 10
277.359
 20
12.0454
 11
277.221
 21
12.2065
  0
LINE
  8
0
 10
277.221
 20
12.2065
 11
277.11
 21
12.3871
  0
LINE
  8
0
 10
277.11
 20
12.3871
 11
277.029
 21
12.5828
  0
LINE
  8
0
 10
277.029
 20
12.5828
 11
276.98
 21
12.7888
  0
LINE
  8
0
 10
276.98
 20
12.7888
 11
276.963
 21
13
  0
LINE
  8
0
 10
276.963
 20
13
 11
276.98
 21
13.2112
  0
LINE
  8
0
 10
276.98
 20
13.2112
 11
277.029
 21
13.4172
  0
LINE
  8
0
 10
277.029
 20
13.4172
 11
277.11
 21
13.6129
  0
LINE
  8
0
 10
277.11
 20
13.6129
 11
277.221
 21
13.7935
  0
LINE
  8
0
 10
277.221
 20
13.7935
 11
277.359
 21
13.9546
  0
LINE
  8
0
 10
277.359
 20
13.9546
 11
277.52
 21
14.0922
  0
LINE
  8
0
 10
277.52
 20
14.0922
 11
277.7
 21
14.2029
  0
LINE
  8
0
 10
277.7
 20
14.2029
 11
277.896
 21
14.2839
  0
LINE
  8
0
 10
277.896
 20
14.2839
 11
278.102
 21
14.3334
  0
LINE
  8
0
 10
278.102
 20
14.3334
 11
278.313
 21
14.35
  0
LINE
  8
0
 10
278.313
 20
14.35
 11
278.524
 21
14.3334
  0
LINE
  8
0
 10
278.524
 20
14.3334
 11
278.73
 21
14.2839
  0
LINE
  8
0
 10
278.73
 20
14.2839
 11
278.926
 21
14.2029
  0
LINE
  8
0
 10
278.926
 20
14.2029
 11
279.107
 21
14.0922
  0
LINE
  8
0
 10
279.107
 20
14.0922
 11
279.268
 21
13.9546
  0
LINE
  8
0
 10
279.268
 20
13.9546
 11
279.405
 21
13.7935
  0
LINE
  8
0
 10
279.405
 20
13.7935
 11
279.516
 21
13.6129
  0
LINE
  8
0
 10
279.516
 20
13.6129
 11
279.597
 21
13.4172
  0
LINE
  8
0
 10
279.597
 20
13.4172
 11
279.647
 21
13.2112
  0
LINE
  8
0
 10
279.647
 20
13.2112
 11
279.663
 21
13
  0
LINE
  8
0
 10
279.663
 20
13
 11
279.647
 21
12.7888
  0
LINE
  8
0
 10
279.647
 20
12.7888
 11
279.597
 21
12.5828
  0
LINE
  8
0
 10
279.597
 20
12.5828
 11
279.516
 21
12.3871
  0
LINE
  8
0
 10
279.516
 20
12.3871
 11
279.405
 21
12.2065
  0
LINE
  8
0
 10
279.405
 20
12.2065
 11
279.268
 21
12.0454
  0
LINE
  8
0
 10
279.268
 20
12.0454
 11
279.107
 21
11.9078
  0
LINE
  8
0
 10
279.107
 20
11.9078
 11
278.926
 21
11.7971
  0
LINE
  8
0
 10
278.926
 20
11.7971
 11
278.73
 21
11.7161
  0
LINE
  8
0
 10
278.73
 20
11.7161
 11
278.524
 21
11.6666
  0
LINE
  8
0
 10
278.524
 20
11.6666
 11
278.313
 21
11.65
  0
LINE
  8
0
 10
278.313
 20
11.65
 11
278.102
 21
11.6666
  0
LINE
  8
0
 10
11.2888
 20
10.1666
 11
11.0828
 21
10.2161
  0
LINE
  8
0
 10
11.0828
 20
10.2161
 11
10.8871
 21
10.2971
  0
LINE
  8
0
 10
10.8871
 20
10.2971
 11
10.7065
 21
10.4078
  0
LINE
  8
0
 10
10.7065
 20
10.4078
 11
10.5454
 21
10.5454
  0
LINE
  8
0
 10
10.5454
 20
10.5454
 11
10.4078
 21
10.7065
  0
LINE
  8
0
 10
10.4078
 20
10.7065
 11
10.2971
 21
10.8871
  0
LINE
  8
0
 10
10.2971
 20
10.8871
 11
10.2161
 21
11.0828
  0
LINE
  8
0
 10
10.2161
 20
11.0828
 11
10.1666
 21
11.2888
  0
LINE
  8
0
 10
10.1666
 20
11.2888
 11
10.15
 21
11.5
  0
LINE
  8
0
 10
10.15
 20
11.5
 11
10.1666
 21
11.7112
  0
LINE
  8
0
 10
10.1666
 20
11.7112
 11
10.2161
 21
11.9172
  0
LINE
  8
0
 10
10.2161
 20
11.9172
 11
10.2971
 21
12.1129
  0
LINE
  8
0
 10
10.2971
 20
12.1129
 11
10.4078
 21
12.2935
  0
LINE
  8
0
 10
10.4078
 20
12.2935
 11
10.5454
 21
12.4546
  0
LINE
  8
0
 10
10.5454
 20
12.4546
 11
10.7065
 21
12.5922
  0
LINE
  8
0
 10
10.7065
 20
12.5922
 11
10.8871
 21
12.7029
  0
LINE
  8
0
 10
10.8871
 20
12.7029
 11
11.0828
 21
12.7839
  0
LINE
  8
0
 10
11.0828
 20
12.7839
 11
11.2888
 21
12.8334
  0
LINE
  8
0
 10
11.2888
 20
12.8334
 11
11.5
 21
12.85
  0
LINE
  8
0
 10
11.5
 20
12.85
 11
11.7112
 21
12.8334
  0
LINE
  8
0
 10
11.7112
 20
12.8334
 11
11.9172
 21
12.7839
  0
LINE
  8
0
 10
11.9172
 20
12.7839
 11
12.1129
 21
12.7029
  0
LINE
  8
0
 10
12.1129
 20
12.7029
 11
12.2935
 21
12.5922
  0
LINE
  8
0
 10
12.2935
 20
12.5922
 11
12.4546
 21
12.4546
  0
LINE
  8
0
 10
12.4546
 20
12.4546
 11
12.5922
 21
12.2935
  0
LINE
  8
0
 10
12.5922
 20
12.2935
 11
12.7029
 21
12.1129
  0
LINE
  8
0
 10
12.7029
 20
12.1129
 11
12.7839
 21
11.9172
  0
LINE
  8
0
 10
12.7839
 20
11.9172
 11
12.8334
 21
11.7112
  0
LINE
  8
0
 10
12.8334
 20
11.7112
 11
12.85
 21
11.5
  0
LINE
  8
0
 10
12.85
 20
11.5
 11
12.8334
 21
11.2888
  0
LINE
  8
0
 10
12.8334
 20
11.2888
 11
12.7839
 21
11.0828
  0
LINE
  8
0
 10
12.7839
 20
11.0828
 11
12.7029
 21
10.8871
  0
LINE
  8
0
 10
12.7029
 20
10.8871
 11
12.5922
 21
10.7065
  0
LINE
  8
0
 10
12.5922
 20
10.7065
 11
12.4546
 21
10.5454
  0
LINE
  8
0
 10
12.4546
 20
10.5454
 11
12.2935
 21
10.4078
  0
LINE
  8
0
 10
12.2935
 20
10.4078
 11
12.1129
 21
10.2971
  0
LINE
  8
0
 10
12.1129
 20
10.2971
 11
11.9172
 21
10.2161
  0
LINE
  8
0
 10
11.9172
 20
10.2161
 11
11.7112
 21
10.1666
  0
LINE
  8
0
 10
11.7112
 20
10.1666
 11
11.5
 21
10.15
  0
LINE
  8
0
 10
11.5
 20
10.15
 11
11.2888
 21
10.1666
  0
LINE
  8
0
 10
39.7888
 20
9.76662
 11
39.5828
 21
9.81607
  0
LINE
  8
0
 10
39.5828
 20
9.81607
 11
39.3871
 21
9.89714
  0
LINE
  8
0
 10
39.3871
 20
9.89714
 11
39.2065
 21
10.0078
  0
LINE
  8
0
 10
39.2065
 20
10.0078
 11
39.0454
 21
10.1454
  0
LINE
  8
0
 10
39.0454
 20
10.1454
 11
38.9078
 21
10.3065
  0
LINE
  8
0
 10
38.9078
 20
10.3065
 11
38.7971
 21
10.4871
  0
LINE
  8
0
 10
38.7971
 20
10.4871
 11
38.7161
 21
10.6828
  0
LINE
  8
0
 10
38.7161
 20
10.6828
 11
38.6666
 21
10.8888
  0
LINE
  8
0
 10
38.6666
 20
10.8888
 11
38.65
 21
11.1
  0
LINE
  8
0
 10
38.65
 20
11.1
 11
38.6666
 21
11.3112
  0
LINE
  8
0
 10
38.6666
 20
11.3112
 11
38.7161
 21
11.5172
  0
LINE
  8
0
 10
38.7161
 20
11.5172
 11
38.7971
 21
11.7129
  0
LINE
  8
0
 10
38.7971
 20
11.7129
 11
38.9078
 21
11.8935
  0
LINE
  8
0
 10
38.9078
 20
11.8935
 11
39.0454
 21
12.0546
  0
LINE
  8
0
 10
39.0454
 20
12.0546
 11
39.2065
 21
12.1922
  0
LINE
  8
0
 10
39.2065
 20
12.1922
 11
39.3871
 21
12.3029
  0
LINE
  8
0
 10
39.3871
 20
12.3029
 11
39.5828
 21
12.3839
  0
LINE
  8
0
 10
39.5828
 20
12.3839
 11
39.7888
 21
12.4334
  0
LINE
  8
0
 10
39.7888
 20
12.4334
 11
40
 21
12.45
  0
LINE
  8
0
 10
40
 20
12.45
 11
40.2112
 21
12.4334
  0
LINE
  8
0
 10
40.2112
 20
12.4334
 11
40.4172
 21
12.3839
  0
LINE
  8
0
 10
40.4172
 20
12.3839
 11
40.6129
 21
12.3029
  0
LINE
  8
0
 10
40.6129
 20
12.3029
 11
40.7935
 21
12.1922
  0
LINE
  8
0
 10
40.7935
 20
12.1922
 11
40.9546
 21
12.0546
  0
LINE
  8
0
 10
40.9546
 20
12.0546
 11
41.0922
 21
11.8935
  0
LINE
  8
0
 10
41.0922
 20
11.8935
 11
41.2029
 21
11.7129
  0
LINE
  8
0
 10
41.2029
 20
11.7129
 11
41.2839
 21
11.5172
  0
LINE
  8
0
 10
41.2839
 20
11.5172
 11
41.3334
 21
11.3112
  0
LINE
  8
0
 10
41.3334
 20
11.3112
 11
41.35
 21
11.1
  0
LINE
  8
0
 10
41.35
 20
11.1
 11
41.3334
 21
10.8888
  0
LINE
  8
0
 10
41.3334
 20
10.8888
 11
41.2839
 21
10.6828
  0
LINE
  8
0
 10
41.2839
 20
10.6828
 11
41.2029
 21
10.4871
  0
LINE
  8
0
 10
41.2029
 20
10.4871
 11
41.0922
 21
10.3065
  0
LINE
  8
0
 10
41.0922
 20
10.3065
 11
40.9546
 21
10.1454
  0
LINE
  8
0
 10
40.9546
 20
10.1454
 11
40.7935
 21
10.0078
  0
LINE
  8
0
 10
40.7935
 20
10.0078
 11
40.6129
 21
9.89714
  0
LINE
  8
0
 10
40.6129
 20
9.89714
 11
40.4172
 21
9.81607
  0
LINE
  8
0
 10
40.4172
 20
9.81607
 11
40.2112
 21
9.76662
  0
LINE
  8
0
 10
40.2112
 20
9.76662
 11
40
 21
9.75
  0
LINE
  8
0
 10
40
 20
9.75
 11
39.7888
 21
9.76662
  0
LINE
  8
0
 10
121.489
 20
9.76662
 11
121.283
 21
9.81607
  0
LINE
  8
0
 10
121.283
 20
9.81607
 11
121.087
 21
9.89714
  0
LINE
  8
0
 10
121.087
 20
9.89714
 11
120.906
 21
10.0078
  0
LINE
  8
0
 10
120.906
 20
10.0078
 11
120.745
 21
10.1454
  0
LINE
  8
0
 10
120.745
 20
10.1454
 11
120.608
 21
10.3065
  0
LINE
  8
0
 10
120.608
 20
10.3065
 11
120.497
 21
10.4871
  0
LINE
  8
0
 10
120.497
 20
10.4871
 11
120.416
 21
10.6828
  0
LINE
  8
0
 10
120.416
 20
10.6828
 11
120.367
 21
10.8888
  0
LINE
  8
0
 10
120.367
 20
10.8888
 11
120.35
 21
11.1
  0
LINE
  8
0
 10
120.35
 20
11.1
 11
120.367
 21
11.3112
  0
LINE
  8
0
 10
120.367
 20
11.3112
 11
120.416
 21
11.5172
  0
LINE
  8
0
 10
120.416
 20
11.5172
 11
120.497
 21
11.7129
  0
LINE
  8
0
 10
120.497
 20
11.7129
 11
120.608
 21
11.8935
  0
LINE
  8
0
 10
120.608
 20
11.8935
 11
120.745
 21
12.0546
  0
LINE
  8
0
 10
120.745
 20
12.0546
 11
120.906
 21
12.1922
  0
LINE
  8
0
 10
120.906
 20
12.1922
 11
121.087
 21
12.3029
  0
LINE
  8
0
 10
121.087
 20
12.3029
 11
121.283
 21
12.3839
  0
LINE
  8
0
 10
121.283
 20
12.3839
 11
121.489
 21
12.4334
  0
LINE
  8
0
 10
121.489
 20
12.4334
 11
121.7
 21
12.45
  0
LINE
  8
0
 10
121.7
 20
12.45
 11
121.911
 21
12.4334
  0
LINE
  8
0
 10
121.911
 20
12.4334
 11
122.117
 21
12.3839
  0
LINE
  8
0
 10
122.117
 20
12.3839
 11
122.313
 21
12.3029
  0
LINE
  8
0
 10
122.313
 20
12.3029
 11
122.493
 21
12.1922
  0
LINE
  8
0
 10
122.493
 20
12.1922
 11
122.655
 21
12.0546
  0
LINE
  8
0
 10
122.655
 20
12.0546
 11
122.792
 21
11.8935
  0
LINE
  8
0
 10
122.792
 20
11.8935
 11
122.903
 21
11.7129
  0
LINE
  8
0
 10
122.903
 20
11.7129
 11
122.984
 21
11.5172
  0
LINE
  8
0
 10
122.984
 20
11.5172
 11
123.033
 21
11.3112
  0
LINE
  8
0
 10
123.033
 20
11.3112
 11
123.05
 21
11.1
  0
LINE
  8
0
 10
123.05
 20
11.1
 11
123.033
 21
10.8888
  0
LINE
  8
0
 10
123.033
 20
10.8888
 11
122.984
 21
10.6828
  0
LINE
  8
0
 10
122.984
 20
10.6828
 11
122.903
 21
10.4871
  0
LINE
  8
0
 10
122.903
 20
10.4871
 11
122.792
 21
10.3065
  0
LINE
  8
0
 10
122.792
 20
10.3065
 11
122.655
 21
10.1454
  0
LINE
  8
0
 10
122.655
 20
10.1454
 11
122.493
 21
10.0078
  0
LINE
  8
0
 10
122.493
 20
10.0078
 11
122.313
 21
9.89714
  0
LINE
  8
0
 10
122.313
 20
9.89714
 11
122.117
 21
9.81607
  0
LINE
  8
0
 10
122.117
 20
9.81607
 11
121.911
 21
9.76662
  0
LINE
  8
0
 10
121.911
 20
9.76662
 11
121.7
 21
9.75
  0
LINE
  8
0
 10
121.7
 20
9.75
 11
121.489
 21
9.76662
  0
LINE
  8
0
 10
147.789
 20
9.76662
 11
147.583
 21
9.81607
  0
LINE
  8
0
 10
147.583
 20
9.81607
 11
147.387
 21
9.89714
  0
LINE
  8
0
 10
147.387
 20
9.89714
 11
147.206
 21
10.0078
  0
LINE
  8
0
 10
147.206
 20
10.0078
 11
147.045
 21
10.1454
  0
LINE
  8
0
 10
147.045
 20
10.1454
 11
146.908
 21
10.3065
  0
LINE
  8
0
 10
146.908
 20
10.3065
 11
146.797
 21
10.4871
  0
LINE
  8
0
 10
146.797
 20
10.4871
 11
146.716
 21
10.6828
  0
LINE
  8
0
 10
146.716
 20
10.6828
 11
146.667
 21
10.8888
  0
LINE
  8
0
 10
146.667
 20
10.8888
 11
146.65
 21
11.1
  0
LINE
  8
0
 10
146.65
 20
11.1
 11
146.667
 21
11.3112
  0
LINE
  8
0
 10
146.667
 20
11.3112
 11
146.716
 21
11.5172
  0
LINE
  8
0
 10
146.716
 20
11.5172
 11
146.797
 21
11.7129
  0
LINE
  8
0
 10
146.797
 20
11.7129
 11
146.908
 21
11.8935
  0
LINE
  8
0
 10
146.908
 20
11.8935
 11
147.045
 21
12.0546
  0
LINE
  8
0
 10
147.045
 20
12.0546
 11
147.206
 21
12.1922
  0
LINE
  8
0
 10
147.206
 20
12.1922
 11
147.387
 21
12.3029
  0
LINE
  8
0
 10
147.387
 20
12.3029
 11
147.583
 21
12.3839
  0
LINE
  8
0
 10
147.583
 20
12.3839
 11
147.789
 21
12.4334
  0
LINE
  8
0
 10
147.789
 20
12.4334
 11
148
 21
12.45
  0
LINE
  8
0
 10
148
 20
12.45
 11
148.211
 21
12.4334
  0
LINE
  8
0
 10
148.211
 20
12.4334
 11
148.417
 21
12.3839
  0
LINE
  8
0
 10
148.417
 20
12.3839
 11
148.613
 21
12.3029
  0
LINE
  8
0
 10
148.613
 20
12.3029
 11
148.794
 21
12.1922
  0
LINE
  8
0
 10
148.794
 20
12.1922
 11
148.955
 21
12.0546
  0
LINE
  8
0
 10
148.955
 20
12.0546
 11
149.092
 21
11.8935
  0
LINE
  8
0
 10
149.092
 20
11.8935
 11
149.203
 21
11.7129
  0
LINE
  8
0
 10
149.203
 20
11.7129
 11
149.284
 21
11.5172
  0
LINE
  8
0
 10
149.284
 20
11.5172
 11
149.333
 21
11.3112
  0
LINE
  8
0
 10
149.333
 20
11.3112
 11
149.35
 21
11.1
  0
LINE
  8
0
 10
149.35
 20
11.1
 11
149.333
 21
10.8888
  0
LINE
  8
0
 10
149.333
 20
10.8888
 11
149.284
 21
10.6828
  0
LINE
  8
0
 10
149.284
 20
10.6828
 11
149.203
 21
10.4871
  0
LINE
  8
0
 10
149.203
 20
10.4871
 11
149.092
 21
10.3065
  0
LINE
  8
0
 10
149.092
 20
10.3065
 11
148.955
 21
10.1454
  0
LINE
  8
0
 10
148.955
 20
10.1454
 11
148.794
 21
10.0078
  0
LINE
  8
0
 10
148.794
 20
10.0078
 11
148.613
 21
9.89714
  0
LINE
  8
0
 10
148.613
 20
9.89714
 11
148.417
 21
9.81607
  0
LINE
  8
0
 10
148.417
 20
9.81607
 11
148.211
 21
9.76662
  0
LINE
  8
0
 10
148.211
 20
9.76662
 11
148
 21
9.75
  0
LINE
  8
0
 10
148
 20
9.75
 11
147.789
 21
9.76662
  0
LINE
  8
0
 10
247.489
 20
9.76662
 11
247.283
 21
9.81607
  0
LINE
  8
0
 10
247.283
 20
9.81607
 11
247.087
 21
9.89714
  0
LINE
  8
0
 10
247.087
 20
9.89714
 11
246.906
 21
10.0078
  0
LINE
  8
0
 10
246.906
 20
10.0078
 11
246.745
 21
10.1454
  0
LINE
  8
0
 10
246.745
 20
10.1454
 11
246.608
 21
10.3065
  0
LINE
  8
0
 10
246.608
 20
10.3065
 11
246.497
 21
10.4871
  0
LINE
  8
0
 10
246.497
 20
10.4871
 11
246.416
 21
10.6828
  0
LINE
  8
0
 10
246.416
 20
10.6828
 11
246.367
 21
10.8888
  0
LINE
  8
0
 10
246.367
 20
10.8888
 11
246.35
 21
11.1
  0
LINE
  8
0
 10
246.35
 20
11.1
 11
246.367
 21
11.3112
  0
LINE
  8
0
 10
246.367
 20
11.3112
 11
246.416
 21
11.5172
  0
LINE
  8
0
 10
246.416
 20
11.5172
 11
246.497
 21
11.7129
  0
LINE
  8
0
 10
246.497
 20
11.7129
 11
246.608
 21
11.8935
  0
LINE
  8
0
 10
246.608
 20
11.8935
 11
246.745
 21
12.0546
  0
LINE
  8
0
 10
246.745
 20
12.0546
 11
246.906
 21
12.1922
  0
LINE
  8
0
 10
246.906
 20
12.1922
 11
247.087
 21
12.3029
  0
LINE
  8
0
 10
247.087
 20
12.3029
 11
247.283
 21
12.3839
  0
LINE
  8
0
 10
247.283
 20
12.3839
 11
247.489
 21
12.4334
  0
LINE
  8
0
 10
247.489
 20
12.4334
 11
247.7
 21
12.45
  0
LINE
  8
0
 10
247.7
 20
12.45
 11
247.911
 21
12.4334
  0
LINE
  8
0
 10
247.911
 20
12.4334
 11
248.117
 21
12.3839
  0
LINE
  8
0
 10
248.117
 20
12.3839
 11
248.313
 21
12.3029
  0
LINE
  8
0
 10
248.313
 20
12.3029
 11
248.493
 21
12.1922
  0
LINE
  8
0
 10
248.493
 20
12.1922
 11
248.655
 21
12.0546
  0
LINE
  8
0
 10
248.655
 20
12.0546
 11
248.792
 21
11.8935
  0
LINE
  8
0
 10
248.792
 20
11.8935
 11
248.903
 21
11.7129
  0
LINE
  8
0
 10
248.903
 20
11.7129
 11
248.984
 21
11.5172
  0
LINE
  8
0
 10
248.984
 20
11.5172
 11
249.033
 21
11.3112
  0
LINE
  8
0
 10
249.033
 20
11.3112
 11
249.05
 21
11.1
  0
LINE
  8
0
 10
249.05
 20
11.1
 11
249.033
 21
10.8888
  0
LINE
  8
0
 10
249.033
 20
10.8888
 11
248.984
 21
10.6828
  0
LINE
  8
0
 10
248.984
 20
10.6828
 11
248.903
 21
10.4871
  0
LINE
  8
0
 10
248.903
 20
10.4871
 11
248.792
 21
10.3065
  0
LINE
  8
0
 10
248.792
 20
10.3065
 11
248.655
 21
10.1454
  0
LINE
  8
0
 10
248.655
 20
10.1454
 11
248.493
 21
10.0078
  0
LINE
  8
0
 10
248.493
 20
10.0078
 11
248.313
 21
9.89714
  0
LINE
  8
0
 10
248.313
 20
9.89714
 11
248.117
 21
9.81607
  0
LINE
  8
0
 10
248.117
 20
9.81607
 11
247.911
 21
9.76662
  0
LINE
  8
0
 10
247.911
 20
9.76662
 11
247.7
 21
9.75
  0
LINE
  8
0
 10
247.7
 20
9.75
 11
247.489
 21
9.76662
  0
ENDSEC
  0
SECTION
  2
OBJECTS
  0
DICTIONARY
  0
ENDSEC
  0
EOF
