  0
SECTION
  2
BLOCKS
  0
ENDSEC
  0
SECTION
  2
ENTITIES
  0
LINE
  8
0
 10
251.1
 20
9
 11
253.6
 21
9
  0
LINE
  8
0
 10
253.6
 20
9
 11
253.6
 21
10.3
  0
LINE
  8
0
 10
253.6
 20
10.3
 11
253.625
 21
10.6129
  0
LINE
  8
0
 10
253.625
 20
10.6129
 11
253.698
 21
10.918
  0
LINE
  8
0
 10
253.698
 20
10.918
 11
253.818
 21
11.208
  0
LINE
  8
0
 10
253.818
 20
11.208
 11
253.982
 21
11.4756
  0
LINE
  8
0
 10
253.982
 20
11.4756
 11
254.186
 21
11.7142
  0
LINE
  8
0
 10
254.186
 20
11.7142
 11
254.424
 21
11.918
  0
LINE
  8
0
 10
254.424
 20
11.918
 11
254.692
 21
12.082
  0
LINE
  8
0
 10
254.692
 20
12.082
 11
254.982
 21
12.2021
  0
LINE
  8
0
 10
254.982
 20
12.2021
 11
255.287
 21
12.2754
  0
LINE
  8
0
 10
255.287
 20
12.2754
 11
255.6
 21
12.3
  0
LINE
  8
0
 10
255.6
 20
12.3
 11
255.913
 21
12.2754
  0
LINE
  8
0
 10
255.913
 20
12.2754
 11
256.218
 21
12.2021
  0
LINE
  8
0
 10
256.218
 20
12.2021
 11
256.508
 21
12.082
  0
LINE
  8
0
 10
256.508
 20
12.082
 11
256.776
 21
11.918
  0
LINE
  8
0
 10
256.776
 20
11.918
 11
257.014
 21
11.7142
  0
LINE
  8
0
 10
257.014
 20
11.7142
 11
257.218
 21
11.4756
  0
LINE
  8
0
 10
257.218
 20
11.4756
 11
257.382
 21
11.208
  0
LINE
  8
0
 10
257.382
 20
11.208
 11
257.502
 21
10.918
  0
LINE
  8
0
 10
257.502
 20
10.918
 11
257.575
 21
10.6129
  0
LINE
  8
0
 10
257.575
 20
10.6129
 11
257.6
 21
10.3
  0
LINE
  8
0
 10
257.6
 20
10.3
 11
257.6
 21
9
  0
LINE
  8
0
 10
257.6
 20
9
 11
303.3
 21
9
  0
LINE
  8
0
 10
303.3
 20
9
 11
303.3
 21
34
  0
LINE
  8
0
 10
303.3
 20
34
 11
251.1
 21
34
  0
LINE
  8
0
 10
251.1
 20
34
 11
251.1
 21
49.5
  0
LINE
  8
0
 10
251.1
 20
49.5
 11
135
 21
49.5
  0
LINE
  8
0
 10
135
 20
49.5
 11
135
 21
46.7
  0
LINE
  8
0
 10
135
 20
46.7
 11
134.975
 21
46.3871
  0
LINE
  8
0
 10
134.975
 20
46.3871
 11
134.902
 21
46.082
  0
LINE
  8
0
 10
134.902
 20
46.082
 11
134.782
 21
45.792
  0
LINE
  8
0
 10
134.782
 20
45.792
 11
134.618
 21
45.5244
  0
LINE
  8
0
 10
134.618
 20
45.5244
 11
134.414
 21
45.2858
  0
LINE
  8
0
 10
134.414
 20
45.2858
 11
134.176
 21
45.082
  0
LINE
  8
0
 10
134.176
 20
45.082
 11
133.908
 21
44.918
  0
LINE
  8
0
 10
133.908
 20
44.918
 11
133.618
 21
44.7979
  0
LINE
  8
0
 10
133.618
 20
44.7979
 11
133.313
 21
44.7246
  0
LINE
  8
0
 10
133.313
 20
44.7246
 11
133
 21
44.7
  0
LINE
  8
0
 10
133
 20
44.7
 11
132.687
 21
44.7246
  0
LINE
  8
0
 10
132.687
 20
44.7246
 11
132.382
 21
44.7979
  0
LINE
  8
0
 10
132.382
 20
44.7979
 11
132.092
 21
44.918
  0
LINE
  8
0
 10
132.092
 20
44.918
 11
131.824
 21
45.082
  0
LINE
  8
0
 10
131.824
 20
45.082
 11
131.586
 21
45.2858
  0
LINE
  8
0
 10
131.586
 20
45.2858
 11
131.382
 21
45.5244
  0
LINE
  8
0
 10
131.382
 20
45.5244
 11
131.218
 21
45.792
  0
LINE
  8
0
 10
131.218
 20
45.792
 11
131.098
 21
46.082
  0
LINE
  8
0
 10
131.098
 20
46.082
 11
131.025
 21
46.3871
  0
LINE
  8
0
 10
131.025
 20
46.3871
 11
131
 21
46.7
  0
LINE
  8
0
 10
131
 20
46.7
 11
131
 21
49.5
  0
LINE
  8
0
 10
131
 20
49.5
 11
25.3
 21
49.5
  0
LINE
  8
0
 10
25.3
 20
49.5
 11
25.3
 21
46.7
  0
LINE
  8
0
 10
25.3
 20
46.7
 11
25.2754
 21
46.3871
  0
LINE
  8
0
 10
25.2754
 20
46.3871
 11
25.2021
 21
46.082
  0
LINE
  8
0
 10
25.2021
 20
46.082
 11
25.082
 21
45.792
  0
LINE
  8
0
 10
25.082
 20
45.792
 11
24.918
 21
45.5244
  0
LINE
  8
0
 10
24.918
 20
45.5244
 11
24.7142
 21
45.2858
  0
LINE
  8
0
 10
24.7142
 20
45.2858
 11
24.4756
 21
45.082
  0
LINE
  8
0
 10
24.4756
 20
45.082
 11
24.208
 21
44.918
  0
LINE
  8
0
 10
24.208
 20
44.918
 11
24.0438
 21
44.85
  0
LINE
  8
0
 10
24.0438
 20
44.85
 11
28.89
 21
44.85
  0
LINE
  8
0
 10
28.89
 20
44.85
 11
28.89
 21
39.55
  0
LINE
  8
0
 10
28.89
 20
39.55
 11
20.29
 21
39.55
  0
LINE
  8
0
 10
20.29
 20
39.55
 11
20.29
 21
44.85
  0
LINE
  8
0
 10
20.29
 20
44.85
 11
22.5562
 21
44.85
  0
LINE
  8
0
 10
22.5562
 20
44.85
 11
22.392
 21
44.918
  0
LINE
  8
0
 10
22.392
 20
44.918
 11
22.1244
 21
45.082
  0
LINE
  8
0
 10
22.1244
 20
45.082
 11
21.8858
 21
45.2858
  0
LINE
  8
0
 10
21.8858
 20
45.2858
 11
21.682
 21
45.5244
  0
LINE
  8
0
 10
21.682
 20
45.5244
 11
21.518
 21
45.792
  0
LINE
  8
0
 10
21.518
 20
45.792
 11
21.3979
 21
46.082
  0
LINE
  8
0
 10
21.3979
 20
46.082
 11
21.3246
 21
46.3871
  0
LINE
  8
0
 10
21.3246
 20
46.3871
 11
21.3
 21
46.7
  0
LINE
  8
0
 10
21.3
 20
46.7
 11
21.3
 21
49.5
  0
LINE
  8
0
 10
21.3
 20
49.5
 11
7.5
 21
49.5
  0
LINE
  8
0
 10
7.5
 20
49.5
 11
7.5
 21
7.5
  0
LINE
  8
0
 10
7.5
 20
7.5
 11
21.3
 21
7.5
  0
LINE
  8
0
 10
21.3
 20
7.5
 11
21.3
 21
10.3
  0
LINE
  8
0
 10
21.3
 20
10.3
 11
21.3246
 21
10.6129
  0
LINE
  8
0
 10
21.3246
 20
10.6129
 11
21.3979
 21
10.918
  0
LINE
  8
0
 10
21.3979
 20
10.918
 11
21.518
 21
11.208
  0
LINE
  8
0
 10
21.518
 20
11.208
 11
21.682
 21
11.4756
  0
LINE
  8
0
 10
21.682
 20
11.4756
 11
21.8858
 21
11.7142
  0
LINE
  8
0
 10
21.8858
 20
11.7142
 11
22.1244
 21
11.918
  0
LINE
  8
0
 10
22.1244
 20
11.918
 11
22.392
 21
12.082
  0
LINE
  8
0
 10
22.392
 20
12.082
 11
22.682
 21
12.2021
  0
LINE
  8
0
 10
22.682
 20
12.2021
 11
22.9871
 21
12.2754
  0
LINE
  8
0
 10
22.9871
 20
12.2754
 11
23.3
 21
12.3
  0
LINE
  8
0
 10
23.3
 20
12.3
 11
23.6129
 21
12.2754
  0
LINE
  8
0
 10
23.6129
 20
12.2754
 11
23.918
 21
12.2021
  0
LINE
  8
0
 10
23.918
 20
12.2021
 11
24.208
 21
12.082
  0
LINE
  8
0
 10
24.208
 20
12.082
 11
24.4756
 21
11.918
  0
LINE
  8
0
 10
24.4756
 20
11.918
 11
24.7142
 21
11.7142
  0
LINE
  8
0
 10
24.7142
 20
11.7142
 11
24.918
 21
11.4756
  0
LINE
  8
0
 10
24.918
 20
11.4756
 11
25.082
 21
11.208
  0
LINE
  8
0
 10
25.082
 20
11.208
 11
25.2021
 21
10.918
  0
LINE
  8
0
 10
25.2021
 20
10.918
 11
25.2754
 21
10.6129
  0
LINE
  8
0
 10
25.2754
 20
10.6129
 11
25.3
 21
10.3
  0
LINE
  8
0
 10
25.3
 20
10.3
 11
25.3
 21
7.5
  0
LINE
  8
0
 10
25.3
 20
7.5
 11
131
 21
7.5
  0
LINE
  8
0
 10
131
 20
7.5
 11
131
 21
10.3
  0
LINE
  8
0
 10
131
 20
10.3
 11
131.025
 21
10.6129
  0
LINE
  8
0
 10
131.025
 20
10.6129
 11
131.098
 21
10.918
  0
LINE
  8
0
 10
131.098
 20
10.918
 11
131.218
 21
11.208
  0
LINE
  8
0
 10
131.218
 20
11.208
 11
131.382
 21
11.4756
  0
LINE
  8
0
 10
131.382
 20
11.4756
 11
131.586
 21
11.7142
  0
LINE
  8
0
 10
131.586
 20
11.7142
 11
131.824
 21
11.918
  0
LINE
  8
0
 10
131.824
 20
11.918
 11
132.092
 21
12.082
  0
LINE
  8
0
 10
132.092
 20
12.082
 11
132.382
 21
12.2021
  0
LINE
  8
0
 10
132.382
 20
12.2021
 11
132.687
 21
12.2754
  0
LINE
  8
0
 10
132.687
 20
12.2754
 11
133
 21
12.3
  0
LINE
  8
0
 10
133
 20
12.3
 11
133.313
 21
12.2754
  0
LINE
  8
0
 10
133.313
 20
12.2754
 11
133.618
 21
12.2021
  0
LINE
  8
0
 10
133.618
 20
12.2021
 11
133.908
 21
12.082
  0
LINE
  8
0
 10
133.908
 20
12.082
 11
134.176
 21
11.918
  0
LINE
  8
0
 10
134.176
 20
11.918
 11
134.414
 21
11.7142
  0
LINE
  8
0
 10
134.414
 20
11.7142
 11
134.618
 21
11.4756
  0
LINE
  8
0
 10
134.618
 20
11.4756
 11
134.782
 21
11.208
  0
LINE
  8
0
 10
134.782
 20
11.208
 11
134.902
 21
10.918
  0
LINE
  8
0
 10
134.902
 20
10.918
 11
134.975
 21
10.6129
  0
LINE
  8
0
 10
134.975
 20
10.6129
 11
135
 21
10.3
  0
LINE
  8
0
 10
135
 20
10.3
 11
135
 21
7.5
  0
LINE
  8
0
 10
135
 20
7.5
 11
251.1
 21
7.5
  0
LINE
  8
0
 10
251.1
 20
7.5
 11
251.1
 21
9
  0
LINE
  8
0
 10
247.289
 20
44.5666
 11
247.083
 21
44.6161
  0
LINE
  8
0
 10
247.083
 20
44.6161
 11
246.887
 21
44.6971
  0
LINE
  8
0
 10
246.887
 20
44.6971
 11
246.706
 21
44.8078
  0
LINE
  8
0
 10
246.706
 20
44.8078
 11
246.545
 21
44.9454
  0
LINE
  8
0
 10
246.545
 20
44.9454
 11
246.408
 21
45.1065
  0
LINE
  8
0
 10
246.408
 20
45.1065
 11
246.297
 21
45.2871
  0
LINE
  8
0
 10
246.297
 20
45.2871
 11
246.216
 21
45.4828
  0
LINE
  8
0
 10
246.216
 20
45.4828
 11
246.167
 21
45.6888
  0
LINE
  8
0
 10
246.167
 20
45.6888
 11
246.15
 21
45.9
  0
LINE
  8
0
 10
246.15
 20
45.9
 11
246.167
 21
46.1112
  0
LINE
  8
0
 10
246.167
 20
46.1112
 11
246.216
 21
46.3172
  0
LINE
  8
0
 10
246.216
 20
46.3172
 11
246.297
 21
46.5129
  0
LINE
  8
0
 10
246.297
 20
46.5129
 11
246.408
 21
46.6935
  0
LINE
  8
0
 10
246.408
 20
46.6935
 11
246.545
 21
46.8546
  0
LINE
  8
0
 10
246.545
 20
46.8546
 11
246.706
 21
46.9922
  0
LINE
  8
0
 10
246.706
 20
46.9922
 11
246.887
 21
47.1028
  0
LINE
  8
0
 10
246.887
 20
47.1028
 11
247.083
 21
47.1839
  0
LINE
  8
0
 10
247.083
 20
47.1839
 11
247.289
 21
47.2334
  0
LINE
  8
0
 10
247.289
 20
47.2334
 11
247.5
 21
47.25
  0
LINE
  8
0
 10
247.5
 20
47.25
 11
247.711
 21
47.2334
  0
LINE
  8
0
 10
247.711
 20
47.2334
 11
247.917
 21
47.1839
  0
LINE
  8
0
 10
247.917
 20
47.1839
 11
248.113
 21
47.1028
  0
LINE
  8
0
 10
248.113
 20
47.1028
 11
248.294
 21
46.9922
  0
LINE
  8
0
 10
248.294
 20
46.9922
 11
248.455
 21
46.8546
  0
LINE
  8
0
 10
248.455
 20
46.8546
 11
248.592
 21
46.6935
  0
LINE
  8
0
 10
248.592
 20
46.6935
 11
248.703
 21
46.5129
  0
LINE
  8
0
 10
248.703
 20
46.5129
 11
248.784
 21
46.3172
  0
LINE
  8
0
 10
248.784
 20
46.3172
 11
248.833
 21
46.1112
  0
LINE
  8
0
 10
248.833
 20
46.1112
 11
248.85
 21
45.9
  0
LINE
  8
0
 10
248.85
 20
45.9
 11
248.833
 21
45.6888
  0
LINE
  8
0
 10
248.833
 20
45.6888
 11
248.784
 21
45.4828
  0
LINE
  8
0
 10
248.784
 20
45.4828
 11
248.703
 21
45.2871
  0
LINE
  8
0
 10
248.703
 20
45.2871
 11
248.592
 21
45.1065
  0
LINE
  8
0
 10
248.592
 20
45.1065
 11
248.455
 21
44.9454
  0
LINE
  8
0
 10
248.455
 20
44.9454
 11
248.294
 21
44.8078
  0
LINE
  8
0
 10
248.294
 20
44.8078
 11
248.113
 21
44.6971
  0
LINE
  8
0
 10
248.113
 20
44.6971
 11
247.917
 21
44.6161
  0
LINE
  8
0
 10
247.917
 20
44.6161
 11
247.711
 21
44.5666
  0
LINE
  8
0
 10
247.711
 20
44.5666
 11
247.5
 21
44.55
  0
LINE
  8
0
 10
247.5
 20
44.55
 11
247.289
 21
44.5666
  0
LINE
  8
0
 10
147.889
 20
44.5666
 11
147.683
 21
44.6161
  0
LINE
  8
0
 10
147.683
 20
44.6161
 11
147.487
 21
44.6971
  0
LINE
  8
0
 10
147.487
 20
44.6971
 11
147.306
 21
44.8078
  0
LINE
  8
0
 10
147.306
 20
44.8078
 11
147.145
 21
44.9454
  0
LINE
  8
0
 10
147.145
 20
44.9454
 11
147.008
 21
45.1065
  0
LINE
  8
0
 10
147.008
 20
45.1065
 11
146.897
 21
45.2871
  0
LINE
  8
0
 10
146.897
 20
45.2871
 11
146.816
 21
45.4828
  0
LINE
  8
0
 10
146.816
 20
45.4828
 11
146.767
 21
45.6888
  0
LINE
  8
0
 10
146.767
 20
45.6888
 11
146.75
 21
45.9
  0
LINE
  8
0
 10
146.75
 20
45.9
 11
146.767
 21
46.1112
  0
LINE
  8
0
 10
146.767
 20
46.1112
 11
146.816
 21
46.3172
  0
LINE
  8
0
 10
146.816
 20
46.3172
 11
146.897
 21
46.5129
  0
LINE
  8
0
 10
146.897
 20
46.5129
 11
147.008
 21
46.6935
  0
LINE
  8
0
 10
147.008
 20
46.6935
 11
147.145
 21
46.8546
  0
LINE
  8
0
 10
147.145
 20
46.8546
 11
147.306
 21
46.9922
  0
LINE
  8
0
 10
147.306
 20
46.9922
 11
147.487
 21
47.1028
  0
LINE
  8
0
 10
147.487
 20
47.1028
 11
147.683
 21
47.1839
  0
LINE
  8
0
 10
147.683
 20
47.1839
 11
147.889
 21
47.2334
  0
LINE
  8
0
 10
147.889
 20
47.2334
 11
148.1
 21
47.25
  0
LINE
  8
0
 10
148.1
 20
47.25
 11
148.311
 21
47.2334
  0
LINE
  8
0
 10
148.311
 20
47.2334
 11
148.517
 21
47.1839
  0
LINE
  8
0
 10
148.517
 20
47.1839
 11
148.713
 21
47.1028
  0
LINE
  8
0
 10
148.713
 20
47.1028
 11
148.894
 21
46.9922
  0
LINE
  8
0
 10
148.894
 20
46.9922
 11
149.055
 21
46.8546
  0
LINE
  8
0
 10
149.055
 20
46.8546
 11
149.192
 21
46.6935
  0
LINE
  8
0
 10
149.192
 20
46.6935
 11
149.303
 21
46.5129
  0
LINE
  8
0
 10
149.303
 20
46.5129
 11
149.384
 21
46.3172
  0
LINE
  8
0
 10
149.384
 20
46.3172
 11
149.433
 21
46.1112
  0
LINE
  8
0
 10
149.433
 20
46.1112
 11
149.45
 21
45.9
  0
LINE
  8
0
 10
149.45
 20
45.9
 11
149.433
 21
45.6888
  0
LINE
  8
0
 10
149.433
 20
45.6888
 11
149.384
 21
45.4828
  0
LINE
  8
0
 10
149.384
 20
45.4828
 11
149.303
 21
45.2871
  0
LINE
  8
0
 10
149.303
 20
45.2871
 11
149.192
 21
45.1065
  0
LINE
  8
0
 10
149.192
 20
45.1065
 11
149.055
 21
44.9454
  0
LINE
  8
0
 10
149.055
 20
44.9454
 11
148.894
 21
44.8078
  0
LINE
  8
0
 10
148.894
 20
44.8078
 11
148.713
 21
44.6971
  0
LINE
  8
0
 10
148.713
 20
44.6971
 11
148.517
 21
44.6161
  0
LINE
  8
0
 10
148.517
 20
44.6161
 11
148.311
 21
44.5666
  0
LINE
  8
0
 10
148.311
 20
44.5666
 11
148.1
 21
44.55
  0
LINE
  8
0
 10
148.1
 20
44.55
 11
147.889
 21
44.5666
  0
LINE
  8
0
 10
121.289
 20
44.5666
 11
121.083
 21
44.6161
  0
LINE
  8
0
 10
121.083
 20
44.6161
 11
120.887
 21
44.6971
  0
LINE
  8
0
 10
120.887
 20
44.6971
 11
120.706
 21
44.8078
  0
LINE
  8
0
 10
120.706
 20
44.8078
 11
120.545
 21
44.9454
  0
LINE
  8
0
 10
120.545
 20
44.9454
 11
120.408
 21
45.1065
  0
LINE
  8
0
 10
120.408
 20
45.1065
 11
120.297
 21
45.2871
  0
LINE
  8
0
 10
120.297
 20
45.2871
 11
120.216
 21
45.4828
  0
LINE
  8
0
 10
120.216
 20
45.4828
 11
120.167
 21
45.6888
  0
LINE
  8
0
 10
120.167
 20
45.6888
 11
120.15
 21
45.9
  0
LINE
  8
0
 10
120.15
 20
45.9
 11
120.167
 21
46.1112
  0
LINE
  8
0
 10
120.167
 20
46.1112
 11
120.216
 21
46.3172
  0
LINE
  8
0
 10
120.216
 20
46.3172
 11
120.297
 21
46.5129
  0
LINE
  8
0
 10
120.297
 20
46.5129
 11
120.408
 21
46.6935
  0
LINE
  8
0
 10
120.408
 20
46.6935
 11
120.545
 21
46.8546
  0
LINE
  8
0
 10
120.545
 20
46.8546
 11
120.706
 21
46.9922
  0
LINE
  8
0
 10
120.706
 20
46.9922
 11
120.887
 21
47.1028
  0
LINE
  8
0
 10
120.887
 20
47.1028
 11
121.083
 21
47.1839
  0
LINE
  8
0
 10
121.083
 20
47.1839
 11
121.289
 21
47.2334
  0
LINE
  8
0
 10
121.289
 20
47.2334
 11
121.5
 21
47.25
  0
LINE
  8
0
 10
121.5
 20
47.25
 11
121.711
 21
47.2334
  0
LINE
  8
0
 10
121.711
 20
47.2334
 11
121.917
 21
47.1839
  0
LINE
  8
0
 10
121.917
 20
47.1839
 11
122.113
 21
47.1028
  0
LINE
  8
0
 10
122.113
 20
47.1028
 11
122.294
 21
46.9922
  0
LINE
  8
0
 10
122.294
 20
46.9922
 11
122.455
 21
46.8546
  0
LINE
  8
0
 10
122.455
 20
46.8546
 11
122.592
 21
46.6935
  0
LINE
  8
0
 10
122.592
 20
46.6935
 11
122.703
 21
46.5129
  0
LINE
  8
0
 10
122.703
 20
46.5129
 11
122.784
 21
46.3172
  0
LINE
  8
0
 10
122.784
 20
46.3172
 11
122.833
 21
46.1112
  0
LINE
  8
0
 10
122.833
 20
46.1112
 11
122.85
 21
45.9
  0
LINE
  8
0
 10
122.85
 20
45.9
 11
122.833
 21
45.6888
  0
LINE
  8
0
 10
122.833
 20
45.6888
 11
122.784
 21
45.4828
  0
LINE
  8
0
 10
122.784
 20
45.4828
 11
122.703
 21
45.2871
  0
LINE
  8
0
 10
122.703
 20
45.2871
 11
122.592
 21
45.1065
  0
LINE
  8
0
 10
122.592
 20
45.1065
 11
122.455
 21
44.9454
  0
LINE
  8
0
 10
122.455
 20
44.9454
 11
122.294
 21
44.8078
  0
LINE
  8
0
 10
122.294
 20
44.8078
 11
122.113
 21
44.6971
  0
LINE
  8
0
 10
122.113
 20
44.6971
 11
121.917
 21
44.6161
  0
LINE
  8
0
 10
121.917
 20
44.6161
 11
121.711
 21
44.5666
  0
LINE
  8
0
 10
121.711
 20
44.5666
 11
121.5
 21
44.55
  0
LINE
  8
0
 10
121.5
 20
44.55
 11
121.289
 21
44.5666
  0
LINE
  8
0
 10
39.8888
 20
44.5666
 11
39.6828
 21
44.6161
  0
LINE
  8
0
 10
39.6828
 20
44.6161
 11
39.4871
 21
44.6971
  0
LINE
  8
0
 10
39.4871
 20
44.6971
 11
39.3065
 21
44.8078
  0
LINE
  8
0
 10
39.3065
 20
44.8078
 11
39.1454
 21
44.9454
  0
LINE
  8
0
 10
39.1454
 20
44.9454
 11
39.0078
 21
45.1065
  0
LINE
  8
0
 10
39.0078
 20
45.1065
 11
38.8971
 21
45.2871
  0
LINE
  8
0
 10
38.8971
 20
45.2871
 11
38.8161
 21
45.4828
  0
LINE
  8
0
 10
38.8161
 20
45.4828
 11
38.7666
 21
45.6888
  0
LINE
  8
0
 10
38.7666
 20
45.6888
 11
38.75
 21
45.9
  0
LINE
  8
0
 10
38.75
 20
45.9
 11
38.7666
 21
46.1112
  0
LINE
  8
0
 10
38.7666
 20
46.1112
 11
38.8161
 21
46.3172
  0
LINE
  8
0
 10
38.8161
 20
46.3172
 11
38.8971
 21
46.5129
  0
LINE
  8
0
 10
38.8971
 20
46.5129
 11
39.0078
 21
46.6935
  0
LINE
  8
0
 10
39.0078
 20
46.6935
 11
39.1454
 21
46.8546
  0
LINE
  8
0
 10
39.1454
 20
46.8546
 11
39.3065
 21
46.9922
  0
LINE
  8
0
 10
39.3065
 20
46.9922
 11
39.4871
 21
47.1028
  0
LINE
  8
0
 10
39.4871
 20
47.1028
 11
39.6828
 21
47.1839
  0
LINE
  8
0
 10
39.6828
 20
47.1839
 11
39.8888
 21
47.2334
  0
LINE
  8
0
 10
39.8888
 20
47.2334
 11
40.1
 21
47.25
  0
LINE
  8
0
 10
40.1
 20
47.25
 11
40.3112
 21
47.2334
  0
LINE
  8
0
 10
40.3112
 20
47.2334
 11
40.5172
 21
47.1839
  0
LINE
  8
0
 10
40.5172
 20
47.1839
 11
40.7129
 21
47.1028
  0
LINE
  8
0
 10
40.7129
 20
47.1028
 11
40.8935
 21
46.9922
  0
LINE
  8
0
 10
40.8935
 20
46.9922
 11
41.0546
 21
46.8546
  0
LINE
  8
0
 10
41.0546
 20
46.8546
 11
41.1922
 21
46.6935
  0
LINE
  8
0
 10
41.1922
 20
46.6935
 11
41.3029
 21
46.5129
  0
LINE
  8
0
 10
41.3029
 20
46.5129
 11
41.3839
 21
46.3172
  0
LINE
  8
0
 10
41.3839
 20
46.3172
 11
41.4334
 21
46.1112
  0
LINE
  8
0
 10
41.4334
 20
46.1112
 11
41.45
 21
45.9
  0
LINE
  8
0
 10
41.45
 20
45.9
 11
41.4334
 21
45.6888
  0
LINE
  8
0
 10
41.4334
 20
45.6888
 11
41.3839
 21
45.4828
  0
LINE
  8
0
 10
41.3839
 20
45.4828
 11
41.3029
 21
45.2871
  0
LINE
  8
0
 10
41.3029
 20
45.2871
 11
41.1922
 21
45.1065
  0
LINE
  8
0
 10
41.1922
 20
45.1065
 11
41.0546
 21
44.9454
  0
LINE
  8
0
 10
41.0546
 20
44.9454
 11
40.8935
 21
44.8078
  0
LINE
  8
0
 10
40.8935
 20
44.8078
 11
40.7129
 21
44.6971
  0
LINE
  8
0
 10
40.7129
 20
44.6971
 11
40.5172
 21
44.6161
  0
LINE
  8
0
 10
40.5172
 20
44.6161
 11
40.3112
 21
44.5666
  0
LINE
  8
0
 10
40.3112
 20
44.5666
 11
40.1
 21
44.55
  0
LINE
  8
0
 10
40.1
 20
44.55
 11
39.8888
 21
44.5666
  0
LINE
  8
0
 10
30.2888
 20
44.1666
 11
30.0828
 21
44.2161
  0
LINE
  8
0
 10
30.0828
 20
44.2161
 11
29.8871
 21
44.2971
  0
LINE
  8
0
 10
29.8871
 20
44.2971
 11
29.7065
 21
44.4078
  0
LINE
  8
0
 10
29.7065
 20
44.4078
 11
29.5454
 21
44.5454
  0
LINE
  8
0
 10
29.5454
 20
44.5454
 11
29.4078
 21
44.7065
  0
LINE
  8
0
 10
29.4078
 20
44.7065
 11
29.2971
 21
44.8871
  0
LINE
  8
0
 10
29.2971
 20
44.8871
 11
29.2161
 21
45.0828
  0
LINE
  8
0
 10
29.2161
 20
45.0828
 11
29.1666
 21
45.2888
  0
LINE
  8
0
 10
29.1666
 20
45.2888
 11
29.15
 21
45.5
  0
LINE
  8
0
 10
29.15
 20
45.5
 11
29.1666
 21
45.7112
  0
LINE
  8
0
 10
29.1666
 20
45.7112
 11
29.2161
 21
45.9172
  0
LINE
  8
0
 10
29.2161
 20
45.9172
 11
29.2971
 21
46.1129
  0
LINE
  8
0
 10
29.2971
 20
46.1129
 11
29.4078
 21
46.2935
  0
LINE
  8
0
 10
29.4078
 20
46.2935
 11
29.5454
 21
46.4546
  0
LINE
  8
0
 10
29.5454
 20
46.4546
 11
29.7065
 21
46.5922
  0
LINE
  8
0
 10
29.7065
 20
46.5922
 11
29.8871
 21
46.7029
  0
LINE
  8
0
 10
29.8871
 20
46.7029
 11
30.0828
 21
46.7839
  0
LINE
  8
0
 10
30.0828
 20
46.7839
 11
30.2888
 21
46.8334
  0
LINE
  8
0
 10
30.2888
 20
46.8334
 11
30.5
 21
46.85
  0
LINE
  8
0
 10
30.5
 20
46.85
 11
30.7112
 21
46.8334
  0
LINE
  8
0
 10
30.7112
 20
46.8334
 11
30.9172
 21
46.7839
  0
LINE
  8
0
 10
30.9172
 20
46.7839
 11
31.1129
 21
46.7029
  0
LINE
  8
0
 10
31.1129
 20
46.7029
 11
31.2935
 21
46.5922
  0
LINE
  8
0
 10
31.2935
 20
46.5922
 11
31.4546
 21
46.4546
  0
LINE
  8
0
 10
31.4546
 20
46.4546
 11
31.5922
 21
46.2935
  0
LINE
  8
0
 10
31.5922
 20
46.2935
 11
31.7029
 21
46.1129
  0
LINE
  8
0
 10
31.7029
 20
46.1129
 11
31.7839
 21
45.9172
  0
LINE
  8
0
 10
31.7839
 20
45.9172
 11
31.8334
 21
45.7112
  0
LINE
  8
0
 10
31.8334
 20
45.7112
 11
31.85
 21
45.5
  0
LINE
  8
0
 10
31.85
 20
45.5
 11
31.8334
 21
45.2888
  0
LINE
  8
0
 10
31.8334
 20
45.2888
 11
31.7839
 21
45.0828
  0
LINE
  8
0
 10
31.7839
 20
45.0828
 11
31.7029
 21
44.8871
  0
LINE
  8
0
 10
31.7029
 20
44.8871
 11
31.5922
 21
44.7065
  0
LINE
  8
0
 10
31.5922
 20
44.7065
 11
31.4546
 21
44.5454
  0
LINE
  8
0
 10
31.4546
 20
44.5454
 11
31.2935
 21
44.4078
  0
LINE
  8
0
 10
31.2935
 20
44.4078
 11
31.1129
 21
44.2971
  0
LINE
  8
0
 10
31.1129
 20
44.2971
 11
30.9172
 21
44.2161
  0
LINE
  8
0
 10
30.9172
 20
44.2161
 11
30.7112
 21
44.1666
  0
LINE
  8
0
 10
30.7112
 20
44.1666
 11
30.5
 21
44.15
  0
LINE
  8
0
 10
30.5
 20
44.15
 11
30.2888
 21
44.1666
  0
LINE
  8
0
 10
132.687
 20
36.5246
 11
132.382
 21
36.5979
  0
LINE
  8
0
 10
132.382
 20
36.5979
 11
132.092
 21
36.718
  0
LINE
  8
0
 10
132.092
 20
36.718
 11
131.824
 21
36.882
  0
LINE
  8
0
 10
131.824
 20
36.882
 11
131.586
 21
37.0858
  0
LINE
  8
0
 10
131.586
 20
37.0858
 11
131.382
 21
37.3244
  0
LINE
  8
0
 10
131.382
 20
37.3244
 11
131.218
 21
37.592
  0
LINE
  8
0
 10
131.218
 20
37.592
 11
131.098
 21
37.882
  0
LINE
  8
0
 10
131.098
 20
37.882
 11
131.025
 21
38.1871
  0
LINE
  8
0
 10
131.025
 20
38.1871
 11
131
 21
38.5
  0
LINE
  8
0
 10
131
 20
38.5
 11
131.025
 21
38.8129
  0
LINE
  8
0
 10
131.025
 20
38.8129
 11
131.098
 21
39.118
  0
LINE
  8
0
 10
131.098
 20
39.118
 11
131.218
 21
39.408
  0
LINE
  8
0
 10
131.218
 20
39.408
 11
131.382
 21
39.6756
  0
LINE
  8
0
 10
131.382
 20
39.6756
 11
131.586
 21
39.9142
  0
LINE
  8
0
 10
131.586
 20
39.9142
 11
131.824
 21
40.118
  0
LINE
  8
0
 10
131.824
 20
40.118
 11
132.092
 21
40.282
  0
LINE
  8
0
 10
132.092
 20
40.282
 11
132.382
 21
40.4021
  0
LINE
  8
0
 10
132.382
 20
40.4021
 11
132.687
 21
40.4754
  0
LINE
  8
0
 10
132.687
 20
40.4754
 11
133
 21
40.5
  0
LINE
  8
0
 10
133
 20
40.5
 11
133.313
 21
40.4754
  0
LINE
  8
0
 10
133.313
 20
40.4754
 11
133.618
 21
40.4021
  0
LINE
  8
0
 10
133.618
 20
40.4021
 11
133.908
 21
40.282
  0
LINE
  8
0
 10
133.908
 20
40.282
 11
134.176
 21
40.118
  0
LINE
  8
0
 10
134.176
 20
40.118
 11
134.414
 21
39.9142
  0
LINE
  8
0
 10
134.414
 20
39.9142
 11
134.618
 21
39.6756
  0
LINE
  8
0
 10
134.618
 20
39.6756
 11
134.782
 21
39.408
  0
LINE
  8
0
 10
134.782
 20
39.408
 11
134.902
 21
39.118
  0
LINE
  8
0
 10
134.902
 20
39.118
 11
134.975
 21
38.8129
  0
LINE
  8
0
 10
134.975
 20
38.8129
 11
135
 21
38.5
  0
LINE
  8
0
 10
135
 20
38.5
 11
134.975
 21
38.1871
  0
LINE
  8
0
 10
134.975
 20
38.1871
 11
134.902
 21
37.882
  0
LINE
  8
0
 10
134.902
 20
37.882
 11
134.782
 21
37.592
  0
LINE
  8
0
 10
134.782
 20
37.592
 11
134.618
 21
37.3244
  0
LINE
  8
0
 10
134.618
 20
37.3244
 11
134.414
 21
37.0858
  0
LINE
  8
0
 10
134.414
 20
37.0858
 11
134.176
 21
36.882
  0
LINE
  8
0
 10
134.176
 20
36.882
 11
133.908
 21
36.718
  0
LINE
  8
0
 10
133.908
 20
36.718
 11
133.618
 21
36.5979
  0
LINE
  8
0
 10
133.618
 20
36.5979
 11
133.313
 21
36.5246
  0
LINE
  8
0
 10
133.313
 20
36.5246
 11
133
 21
36.5
  0
LINE
  8
0
 10
133
 20
36.5
 11
132.687
 21
36.5246
  0
LINE
  8
0
 10
295.504
 20
28.6666
 11
295.298
 21
28.7161
  0
LINE
  8
0
 10
295.298
 20
28.7161
 11
295.102
 21
28.7971
  0
LINE
  8
0
 10
295.102
 20
28.7971
 11
294.921
 21
28.9078
  0
LINE
  8
0
 10
294.921
 20
28.9078
 11
294.76
 21
29.0454
  0
LINE
  8
0
 10
294.76
 20
29.0454
 11
294.623
 21
29.2065
  0
LINE
  8
0
 10
294.623
 20
29.2065
 11
294.512
 21
29.3871
  0
LINE
  8
0
 10
294.512
 20
29.3871
 11
294.431
 21
29.5828
  0
LINE
  8
0
 10
294.431
 20
29.5828
 11
294.382
 21
29.7888
  0
LINE
  8
0
 10
294.382
 20
29.7888
 11
294.365
 21
30
  0
LINE
  8
0
 10
294.365
 20
30
 11
294.382
 21
30.2112
  0
LINE
  8
0
 10
294.382
 20
30.2112
 11
294.431
 21
30.4172
  0
LINE
  8
0
 10
294.431
 20
30.4172
 11
294.512
 21
30.6129
  0
LINE
  8
0
 10
294.512
 20
30.6129
 11
294.623
 21
30.7935
  0
LINE
  8
0
 10
294.623
 20
30.7935
 11
294.76
 21
30.9546
  0
LINE
  8
0
 10
294.76
 20
30.9546
 11
294.921
 21
31.0922
  0
LINE
  8
0
 10
294.921
 20
31.0922
 11
295.102
 21
31.2029
  0
LINE
  8
0
 10
295.102
 20
31.2029
 11
295.298
 21
31.2839
  0
LINE
  8
0
 10
295.298
 20
31.2839
 11
295.504
 21
31.3334
  0
LINE
  8
0
 10
295.504
 20
31.3334
 11
295.715
 21
31.35
  0
LINE
  8
0
 10
295.715
 20
31.35
 11
295.926
 21
31.3334
  0
LINE
  8
0
 10
295.926
 20
31.3334
 11
296.132
 21
31.2839
  0
LINE
  8
0
 10
296.132
 20
31.2839
 11
296.328
 21
31.2029
  0
LINE
  8
0
 10
296.328
 20
31.2029
 11
296.508
 21
31.0922
  0
LINE
  8
0
 10
296.508
 20
31.0922
 11
296.67
 21
30.9546
  0
LINE
  8
0
 10
296.67
 20
30.9546
 11
296.807
 21
30.7935
  0
LINE
  8
0
 10
296.807
 20
30.7935
 11
296.918
 21
30.6129
  0
LINE
  8
0
 10
296.918
 20
30.6129
 11
296.999
 21
30.4172
  0
LINE
  8
0
 10
296.999
 20
30.4172
 11
297.048
 21
30.2112
  0
LINE
  8
0
 10
297.048
 20
30.2112
 11
297.065
 21
30
  0
LINE
  8
0
 10
297.065
 20
30
 11
297.048
 21
29.7888
  0
LINE
  8
0
 10
297.048
 20
29.7888
 11
296.999
 21
29.5828
  0
LINE
  8
0
 10
296.999
 20
29.5828
 11
296.918
 21
29.3871
  0
LINE
  8
0
 10
296.918
 20
29.3871
 11
296.807
 21
29.2065
  0
LINE
  8
0
 10
296.807
 20
29.2065
 11
296.67
 21
29.0454
  0
LINE
  8
0
 10
296.67
 20
29.0454
 11
296.508
 21
28.9078
  0
LINE
  8
0
 10
296.508
 20
28.9078
 11
296.328
 21
28.7971
  0
LINE
  8
0
 10
296.328
 20
28.7971
 11
296.132
 21
28.7161
  0
LINE
  8
0
 10
296.132
 20
28.7161
 11
295.926
 21
28.6666
  0
LINE
  8
0
 10
295.926
 20
28.6666
 11
295.715
 21
28.65
  0
LINE
  8
0
 10
295.715
 20
28.65
 11
295.504
 21
28.6666
  0
LINE
  8
0
 10
132.687
 20
16.5246
 11
132.382
 21
16.5979
  0
LINE
  8
0
 10
132.382
 20
16.5979
 11
132.092
 21
16.718
  0
LINE
  8
0
 10
132.092
 20
16.718
 11
131.824
 21
16.882
  0
LINE
  8
0
 10
131.824
 20
16.882
 11
131.586
 21
17.0858
  0
LINE
  8
0
 10
131.586
 20
17.0858
 11
131.382
 21
17.3244
  0
LINE
  8
0
 10
131.382
 20
17.3244
 11
131.218
 21
17.592
  0
LINE
  8
0
 10
131.218
 20
17.592
 11
131.098
 21
17.882
  0
LINE
  8
0
 10
131.098
 20
17.882
 11
131.025
 21
18.1871
  0
LINE
  8
0
 10
131.025
 20
18.1871
 11
131
 21
18.5
  0
LINE
  8
0
 10
131
 20
18.5
 11
131.025
 21
18.8129
  0
LINE
  8
0
 10
131.025
 20
18.8129
 11
131.098
 21
19.118
  0
LINE
  8
0
 10
131.098
 20
19.118
 11
131.218
 21
19.408
  0
LINE
  8
0
 10
131.218
 20
19.408
 11
131.382
 21
19.6756
  0
LINE
  8
0
 10
131.382
 20
19.6756
 11
131.586
 21
19.9142
  0
LINE
  8
0
 10
131.586
 20
19.9142
 11
131.824
 21
20.118
  0
LINE
  8
0
 10
131.824
 20
20.118
 11
132.092
 21
20.282
  0
LINE
  8
0
 10
132.092
 20
20.282
 11
132.382
 21
20.4021
  0
LINE
  8
0
 10
132.382
 20
20.4021
 11
132.687
 21
20.4754
  0
LINE
  8
0
 10
132.687
 20
20.4754
 11
133
 21
20.5
  0
LINE
  8
0
 10
133
 20
20.5
 11
133.313
 21
20.4754
  0
LINE
  8
0
 10
133.313
 20
20.4754
 11
133.618
 21
20.4021
  0
LINE
  8
0
 10
133.618
 20
20.4021
 11
133.908
 21
20.282
  0
LINE
  8
0
 10
133.908
 20
20.282
 11
134.176
 21
20.118
  0
LINE
  8
0
 10
134.176
 20
20.118
 11
134.414
 21
19.9142
  0
LINE
  8
0
 10
134.414
 20
19.9142
 11
134.618
 21
19.6756
  0
LINE
  8
0
 10
134.618
 20
19.6756
 11
134.782
 21
19.408
  0
LINE
  8
0
 10
134.782
 20
19.408
 11
134.902
 21
19.118
  0
LINE
  8
0
 10
134.902
 20
19.118
 11
134.975
 21
18.8129
  0
LINE
  8
0
 10
134.975
 20
18.8129
 11
135
 21
18.5
  0
LINE
  8
0
 10
135
 20
18.5
 11
134.975
 21
18.1871
  0
LINE
  8
0
 10
134.975
 20
18.1871
 11
134.902
 21
17.882
  0
LINE
  8
0
 10
134.902
 20
17.882
 11
134.782
 21
17.592
  0
LINE
  8
0
 10
134.782
 20
17.592
 11
134.618
 21
17.3244
  0
LINE
  8
0
 10
134.618
 20
17.3244
 11
134.414
 21
17.0858
  0
LINE
  8
0
 10
134.414
 20
17.0858
 11
134.176
 21
16.882
  0
LINE
  8
0
 10
134.176
 20
16.882
 11
133.908
 21
16.718
  0
LINE
  8
0
 10
133.908
 20
16.718
 11
133.618
 21
16.5979
  0
LINE
  8
0
 10
133.618
 20
16.5979
 11
133.313
 21
16.5246
  0
LINE
  8
0
 10
133.313
 20
16.5246
 11
133
 21
16.5
  0
LINE
  8
0
 10
133
 20
16.5
 11
132.687
 21
16.5246
  0
LINE
  8
0
 10
295.504
 20
11.6666
 11
295.298
 21
11.7161
  0
LINE
  8
0
 10
295.298
 20
11.7161
 11
295.102
 21
11.7971
  0
LINE
  8
0
 10
295.102
 20
11.7971
 11
294.921
 21
11.9078
  0
LINE
  8
0
 10
294.921
 20
11.9078
 11
294.76
 21
12.0454
  0
LINE
  8
0
 10
294.76
 20
12.0454
 11
294.623
 21
12.2065
  0
LINE
  8
0
 10
294.623
 20
12.2065
 11
294.512
 21
12.3871
  0
LINE
  8
0
 10
294.512
 20
12.3871
 11
294.431
 21
12.5828
  0
LINE
  8
0
 10
294.431
 20
12.5828
 11
294.382
 21
12.7888
  0
LINE
  8
0
 10
294.382
 20
12.7888
 11
294.365
 21
13
  0
LINE
  8
0
 10
294.365
 20
13
 11
294.382
 21
13.2112
  0
LINE
  8
0
 10
294.382
 20
13.2112
 11
294.431
 21
13.4172
  0
LINE
  8
0
 10
294.431
 20
13.4172
 11
294.512
 21
13.6129
  0
LINE
  8
0
 10
294.512
 20
13.6129
 11
294.623
 21
13.7935
  0
LINE
  8
0
 10
294.623
 20
13.7935
 11
294.76
 21
13.9546
  0
LINE
  8
0
 10
294.76
 20
13.9546
 11
294.921
 21
14.0922
  0
LINE
  8
0
 10
294.921
 20
14.0922
 11
295.102
 21
14.2029
  0
LINE
  8
0
 10
295.102
 20
14.2029
 11
295.298
 21
14.2839
  0
LINE
  8
0
 10
295.298
 20
14.2839
 11
295.504
 21
14.3334
  0
LINE
  8
0
 10
295.504
 20
14.3334
 11
295.715
 21
14.35
  0
LINE
  8
0
 10
295.715
 20
14.35
 11
295.926
 21
14.3334
  0
LINE
  8
0
 10
295.926
 20
14.3334
 11
296.132
 21
14.2839
  0
LINE
  8
0
 10
296.132
 20
14.2839
 11
296.328
 21
14.2029
  0
LINE
  8
0
 10
296.328
 20
14.2029
 11
296.508
 21
14.0922
  0
LINE
  8
0
 10
296.508
 20
14.0922
 11
296.67
 21
13.9546
  0
LINE
  8
0
 10
296.67
 20
13.9546
 11
296.807
 21
13.7935
  0
LINE
  8
0
 10
296.807
 20
13.7935
 11
296.918
 21
13.6129
  0
LINE
  8
0
 10
296.918
 20
13.6129
 11
296.999
 21
13.4172
  0
LINE
  8
0
 10
296.999
 20
13.4172
 11
297.048
 21
13.2112
  0
LINE
  8
0
 10
297.048
 20
13.2112
 11
297.065
 21
13
  0
LINE
  8
0
 10
297.065
 20
13
 11
297.048
 21
12.7888
  0
LINE
  8
0
 10
297.048
 20
12.7888
 11
296.999
 21
12.5828
  0
LINE
  8
0
 10
296.999
 20
12.5828
 11
296.918
 21
12.3871
  0
LINE
  8
0
 10
296.918
 20
12.3871
 11
296.807
 21
12.2065
  0
LINE
  8
0
 10
296.807
 20
12.2065
 11
296.67
 21
12.0454
  0
LINE
  8
0
 10
296.67
 20
12.0454
 11
296.508
 21
11.9078
  0
LINE
  8
0
 10
296.508
 20
11.9078
 11
296.328
 21
11.7971
  0
LINE
  8
0
 10
296.328
 20
11.7971
 11
296.132
 21
11.7161
  0
LINE
  8
0
 10
296.132
 20
11.7161
 11
295.926
 21
11.6666
  0
LINE
  8
0
 10
295.926
 20
11.6666
 11
295.715
 21
11.65
  0
LINE
  8
0
 10
295.715
 20
11.65
 11
295.504
 21
11.6666
  0
LINE
  8
0
 10
11.2888
 20
10.1666
 11
11.0828
 21
10.2161
  0
LINE
  8
0
 10
11.0828
 20
10.2161
 11
10.8871
 21
10.2971
  0
LINE
  8
0
 10
10.8871
 20
10.2971
 11
10.7065
 21
10.4078
  0
LINE
  8
0
 10
10.7065
 20
10.4078
 11
10.5454
 21
10.5454
  0
LINE
  8
0
 10
10.5454
 20
10.5454
 11
10.4078
 21
10.7065
  0
LINE
  8
0
 10
10.4078
 20
10.7065
 11
10.2971
 21
10.8871
  0
LINE
  8
0
 10
10.2971
 20
10.8871
 11
10.2161
 21
11.0828
  0
LINE
  8
0
 10
10.2161
 20
11.0828
 11
10.1666
 21
11.2888
  0
LINE
  8
0
 10
10.1666
 20
11.2888
 11
10.15
 21
11.5
  0
LINE
  8
0
 10
10.15
 20
11.5
 11
10.1666
 21
11.7112
  0
LINE
  8
0
 10
10.1666
 20
11.7112
 11
10.2161
 21
11.9172
  0
LINE
  8
0
 10
10.2161
 20
11.9172
 11
10.2971
 21
12.1129
  0
LINE
  8
0
 10
10.2971
 20
12.1129
 11
10.4078
 21
12.2935
  0
LINE
  8
0
 10
10.4078
 20
12.2935
 11
10.5454
 21
12.4546
  0
LINE
  8
0
 10
10.5454
 20
12.4546
 11
10.7065
 21
12.5922
  0
LINE
  8
0
 10
10.7065
 20
12.5922
 11
10.8871
 21
12.7029
  0
LINE
  8
0
 10
10.8871
 20
12.7029
 11
11.0828
 21
12.7839
  0
LINE
  8
0
 10
11.0828
 20
12.7839
 11
11.2888
 21
12.8334
  0
LINE
  8
0
 10
11.2888
 20
12.8334
 11
11.5
 21
12.85
  0
LINE
  8
0
 10
11.5
 20
12.85
 11
11.7112
 21
12.8334
  0
LINE
  8
0
 10
11.7112
 20
12.8334
 11
11.9172
 21
12.7839
  0
LINE
  8
0
 10
11.9172
 20
12.7839
 11
12.1129
 21
12.7029
  0
LINE
  8
0
 10
12.1129
 20
12.7029
 11
12.2935
 21
12.5922
  0
LINE
  8
0
 10
12.2935
 20
12.5922
 11
12.4546
 21
12.4546
  0
LINE
  8
0
 10
12.4546
 20
12.4546
 11
12.5922
 21
12.2935
  0
LINE
  8
0
 10
12.5922
 20
12.2935
 11
12.7029
 21
12.1129
  0
LINE
  8
0
 10
12.7029
 20
12.1129
 11
12.7839
 21
11.9172
  0
LINE
  8
0
 10
12.7839
 20
11.9172
 11
12.8334
 21
11.7112
  0
LINE
  8
0
 10
12.8334
 20
11.7112
 11
12.85
 21
11.5
  0
LINE
  8
0
 10
12.85
 20
11.5
 11
12.8334
 21
11.2888
  0
LINE
  8
0
 10
12.8334
 20
11.2888
 11
12.7839
 21
11.0828
  0
LINE
  8
0
 10
12.7839
 20
11.0828
 11
12.7029
 21
10.8871
  0
LINE
  8
0
 10
12.7029
 20
10.8871
 11
12.5922
 21
10.7065
  0
LINE
  8
0
 10
12.5922
 20
10.7065
 11
12.4546
 21
10.5454
  0
LINE
  8
0
 10
12.4546
 20
10.5454
 11
12.2935
 21
10.4078
  0
LINE
  8
0
 10
12.2935
 20
10.4078
 11
12.1129
 21
10.2971
  0
LINE
  8
0
 10
12.1129
 20
10.2971
 11
11.9172
 21
10.2161
  0
LINE
  8
0
 10
11.9172
 20
10.2161
 11
11.7112
 21
10.1666
  0
LINE
  8
0
 10
11.7112
 20
10.1666
 11
11.5
 21
10.15
  0
LINE
  8
0
 10
11.5
 20
10.15
 11
11.2888
 21
10.1666
  0
LINE
  8
0
 10
39.8888
 20
9.76662
 11
39.6828
 21
9.81607
  0
LINE
  8
0
 10
39.6828
 20
9.81607
 11
39.4871
 21
9.89714
  0
LINE
  8
0
 10
39.4871
 20
9.89714
 11
39.3065
 21
10.0078
  0
LINE
  8
0
 10
39.3065
 20
10.0078
 11
39.1454
 21
10.1454
  0
LINE
  8
0
 10
39.1454
 20
10.1454
 11
39.0078
 21
10.3065
  0
LINE
  8
0
 10
39.0078
 20
10.3065
 11
38.8971
 21
10.4871
  0
LINE
  8
0
 10
38.8971
 20
10.4871
 11
38.8161
 21
10.6828
  0
LINE
  8
0
 10
38.8161
 20
10.6828
 11
38.7666
 21
10.8888
  0
LINE
  8
0
 10
38.7666
 20
10.8888
 11
38.75
 21
11.1
  0
LINE
  8
0
 10
38.75
 20
11.1
 11
38.7666
 21
11.3112
  0
LINE
  8
0
 10
38.7666
 20
11.3112
 11
38.8161
 21
11.5172
  0
LINE
  8
0
 10
38.8161
 20
11.5172
 11
38.8971
 21
11.7129
  0
LINE
  8
0
 10
38.8971
 20
11.7129
 11
39.0078
 21
11.8935
  0
LINE
  8
0
 10
39.0078
 20
11.8935
 11
39.1454
 21
12.0546
  0
LINE
  8
0
 10
39.1454
 20
12.0546
 11
39.3065
 21
12.1922
  0
LINE
  8
0
 10
39.3065
 20
12.1922
 11
39.4871
 21
12.3029
  0
LINE
  8
0
 10
39.4871
 20
12.3029
 11
39.6828
 21
12.3839
  0
LINE
  8
0
 10
39.6828
 20
12.3839
 11
39.8888
 21
12.4334
  0
LINE
  8
0
 10
39.8888
 20
12.4334
 11
40.1
 21
12.45
  0
LINE
  8
0
 10
40.1
 20
12.45
 11
40.3112
 21
12.4334
  0
LINE
  8
0
 10
40.3112
 20
12.4334
 11
40.5172
 21
12.3839
  0
LINE
  8
0
 10
40.5172
 20
12.3839
 11
40.7129
 21
12.3029
  0
LINE
  8
0
 10
40.7129
 20
12.3029
 11
40.8935
 21
12.1922
  0
LINE
  8
0
 10
40.8935
 20
12.1922
 11
41.0546
 21
12.0546
  0
LINE
  8
0
 10
41.0546
 20
12.0546
 11
41.1922
 21
11.8935
  0
LINE
  8
0
 10
41.1922
 20
11.8935
 11
41.3029
 21
11.7129
  0
LINE
  8
0
 10
41.3029
 20
11.7129
 11
41.3839
 21
11.5172
  0
LINE
  8
0
 10
41.3839
 20
11.5172
 11
41.4334
 21
11.3112
  0
LINE
  8
0
 10
41.4334
 20
11.3112
 11
41.45
 21
11.1
  0
LINE
  8
0
 10
41.45
 20
11.1
 11
41.4334
 21
10.8888
  0
LINE
  8
0
 10
41.4334
 20
10.8888
 11
41.3839
 21
10.6828
  0
LINE
  8
0
 10
41.3839
 20
10.6828
 11
41.3029
 21
10.4871
  0
LINE
  8
0
 10
41.3029
 20
10.4871
 11
41.1922
 21
10.3065
  0
LINE
  8
0
 10
41.1922
 20
10.3065
 11
41.0546
 21
10.1454
  0
LINE
  8
0
 10
41.0546
 20
10.1454
 11
40.8935
 21
10.0078
  0
LINE
  8
0
 10
40.8935
 20
10.0078
 11
40.7129
 21
9.89714
  0
LINE
  8
0
 10
40.7129
 20
9.89714
 11
40.5172
 21
9.81607
  0
LINE
  8
0
 10
40.5172
 20
9.81607
 11
40.3112
 21
9.76662
  0
LINE
  8
0
 10
40.3112
 20
9.76662
 11
40.1
 21
9.75
  0
LINE
  8
0
 10
40.1
 20
9.75
 11
39.8888
 21
9.76662
  0
LINE
  8
0
 10
121.289
 20
9.76662
 11
121.083
 21
9.81607
  0
LINE
  8
0
 10
121.083
 20
9.81607
 11
120.887
 21
9.89714
  0
LINE
  8
0
 10
120.887
 20
9.89714
 11
120.706
 21
10.0078
  0
LINE
  8
0
 10
120.706
 20
10.0078
 11
120.545
 21
10.1454
  0
LINE
  8
0
 10
120.545
 20
10.1454
 11
120.408
 21
10.3065
  0
LINE
  8
0
 10
120.408
 20
10.3065
 11
120.297
 21
10.4871
  0
LINE
  8
0
 10
120.297
 20
10.4871
 11
120.216
 21
10.6828
  0
LINE
  8
0
 10
120.216
 20
10.6828
 11
120.167
 21
10.8888
  0
LINE
  8
0
 10
120.167
 20
10.8888
 11
120.15
 21
11.1
  0
LINE
  8
0
 10
120.15
 20
11.1
 11
120.167
 21
11.3112
  0
LINE
  8
0
 10
120.167
 20
11.3112
 11
120.216
 21
11.5172
  0
LINE
  8
0
 10
120.216
 20
11.5172
 11
120.297
 21
11.7129
  0
LINE
  8
0
 10
120.297
 20
11.7129
 11
120.408
 21
11.8935
  0
LINE
  8
0
 10
120.408
 20
11.8935
 11
120.545
 21
12.0546
  0
LINE
  8
0
 10
120.545
 20
12.0546
 11
120.706
 21
12.1922
  0
LINE
  8
0
 10
120.706
 20
12.1922
 11
120.887
 21
12.3029
  0
LINE
  8
0
 10
120.887
 20
12.3029
 11
121.083
 21
12.3839
  0
LINE
  8
0
 10
121.083
 20
12.3839
 11
121.289
 21
12.4334
  0
LINE
  8
0
 10
121.289
 20
12.4334
 11
121.5
 21
12.45
  0
LINE
  8
0
 10
121.5
 20
12.45
 11
121.711
 21
12.4334
  0
LINE
  8
0
 10
121.711
 20
12.4334
 11
121.917
 21
12.3839
  0
LINE
  8
0
 10
121.917
 20
12.3839
 11
122.113
 21
12.3029
  0
LINE
  8
0
 10
122.113
 20
12.3029
 11
122.294
 21
12.1922
  0
LINE
  8
0
 10
122.294
 20
12.1922
 11
122.455
 21
12.0546
  0
LINE
  8
0
 10
122.455
 20
12.0546
 11
122.592
 21
11.8935
  0
LINE
  8
0
 10
122.592
 20
11.8935
 11
122.703
 21
11.7129
  0
LINE
  8
0
 10
122.703
 20
11.7129
 11
122.784
 21
11.5172
  0
LINE
  8
0
 10
122.784
 20
11.5172
 11
122.833
 21
11.3112
  0
LINE
  8
0
 10
122.833
 20
11.3112
 11
122.85
 21
11.1
  0
LINE
  8
0
 10
122.85
 20
11.1
 11
122.833
 21
10.8888
  0
LINE
  8
0
 10
122.833
 20
10.8888
 11
122.784
 21
10.6828
  0
LINE
  8
0
 10
122.784
 20
10.6828
 11
122.703
 21
10.4871
  0
LINE
  8
0
 10
122.703
 20
10.4871
 11
122.592
 21
10.3065
  0
LINE
  8
0
 10
122.592
 20
10.3065
 11
122.455
 21
10.1454
  0
LINE
  8
0
 10
122.455
 20
10.1454
 11
122.294
 21
10.0078
  0
LINE
  8
0
 10
122.294
 20
10.0078
 11
122.113
 21
9.89714
  0
LINE
  8
0
 10
122.113
 20
9.89714
 11
121.917
 21
9.81607
  0
LINE
  8
0
 10
121.917
 20
9.81607
 11
121.711
 21
9.76662
  0
LINE
  8
0
 10
121.711
 20
9.76662
 11
121.5
 21
9.75
  0
LINE
  8
0
 10
121.5
 20
9.75
 11
121.289
 21
9.76662
  0
LINE
  8
0
 10
147.889
 20
9.76662
 11
147.683
 21
9.81607
  0
LINE
  8
0
 10
147.683
 20
9.81607
 11
147.487
 21
9.89714
  0
LINE
  8
0
 10
147.487
 20
9.89714
 11
147.306
 21
10.0078
  0
LINE
  8
0
 10
147.306
 20
10.0078
 11
147.145
 21
10.1454
  0
LINE
  8
0
 10
147.145
 20
10.1454
 11
147.008
 21
10.3065
  0
LINE
  8
0
 10
147.008
 20
10.3065
 11
146.897
 21
10.4871
  0
LINE
  8
0
 10
146.897
 20
10.4871
 11
146.816
 21
10.6828
  0
LINE
  8
0
 10
146.816
 20
10.6828
 11
146.767
 21
10.8888
  0
LINE
  8
0
 10
146.767
 20
10.8888
 11
146.75
 21
11.1
  0
LINE
  8
0
 10
146.75
 20
11.1
 11
146.767
 21
11.3112
  0
LINE
  8
0
 10
146.767
 20
11.3112
 11
146.816
 21
11.5172
  0
LINE
  8
0
 10
146.816
 20
11.5172
 11
146.897
 21
11.7129
  0
LINE
  8
0
 10
146.897
 20
11.7129
 11
147.008
 21
11.8935
  0
LINE
  8
0
 10
147.008
 20
11.8935
 11
147.145
 21
12.0546
  0
LINE
  8
0
 10
147.145
 20
12.0546
 11
147.306
 21
12.1922
  0
LINE
  8
0
 10
147.306
 20
12.1922
 11
147.487
 21
12.3029
  0
LINE
  8
0
 10
147.487
 20
12.3029
 11
147.683
 21
12.3839
  0
LINE
  8
0
 10
147.683
 20
12.3839
 11
147.889
 21
12.4334
  0
LINE
  8
0
 10
147.889
 20
12.4334
 11
148.1
 21
12.45
  0
LINE
  8
0
 10
148.1
 20
12.45
 11
148.311
 21
12.4334
  0
LINE
  8
0
 10
148.311
 20
12.4334
 11
148.517
 21
12.3839
  0
LINE
  8
0
 10
148.517
 20
12.3839
 11
148.713
 21
12.3029
  0
LINE
  8
0
 10
148.713
 20
12.3029
 11
148.894
 21
12.1922
  0
LINE
  8
0
 10
148.894
 20
12.1922
 11
149.055
 21
12.0546
  0
LINE
  8
0
 10
149.055
 20
12.0546
 11
149.192
 21
11.8935
  0
LINE
  8
0
 10
149.192
 20
11.8935
 11
149.303
 21
11.7129
  0
LINE
  8
0
 10
149.303
 20
11.7129
 11
149.384
 21
11.5172
  0
LINE
  8
0
 10
149.384
 20
11.5172
 11
149.433
 21
11.3112
  0
LINE
  8
0
 10
149.433
 20
11.3112
 11
149.45
 21
11.1
  0
LINE
  8
0
 10
149.45
 20
11.1
 11
149.433
 21
10.8888
  0
LINE
  8
0
 10
149.433
 20
10.8888
 11
149.384
 21
10.6828
  0
LINE
  8
0
 10
149.384
 20
10.6828
 11
149.303
 21
10.4871
  0
LINE
  8
0
 10
149.303
 20
10.4871
 11
149.192
 21
10.3065
  0
LINE
  8
0
 10
149.192
 20
10.3065
 11
149.055
 21
10.1454
  0
LINE
  8
0
 10
149.055
 20
10.1454
 11
148.894
 21
10.0078
  0
LINE
  8
0
 10
148.894
 20
10.0078
 11
148.713
 21
9.89714
  0
LINE
  8
0
 10
148.713
 20
9.89714
 11
148.517
 21
9.81607
  0
LINE
  8
0
 10
148.517
 20
9.81607
 11
148.311
 21
9.76662
  0
LINE
  8
0
 10
148.311
 20
9.76662
 11
148.1
 21
9.75
  0
LINE
  8
0
 10
148.1
 20
9.75
 11
147.889
 21
9.76662
  0
LINE
  8
0
 10
247.289
 20
9.76662
 11
247.083
 21
9.81607
  0
LINE
  8
0
 10
247.083
 20
9.81607
 11
246.887
 21
9.89714
  0
LINE
  8
0
 10
246.887
 20
9.89714
 11
246.706
 21
10.0078
  0
LINE
  8
0
 10
246.706
 20
10.0078
 11
246.545
 21
10.1454
  0
LINE
  8
0
 10
246.545
 20
10.1454
 11
246.408
 21
10.3065
  0
LINE
  8
0
 10
246.408
 20
10.3065
 11
246.297
 21
10.4871
  0
LINE
  8
0
 10
246.297
 20
10.4871
 11
246.216
 21
10.6828
  0
LINE
  8
0
 10
246.216
 20
10.6828
 11
246.167
 21
10.8888
  0
LINE
  8
0
 10
246.167
 20
10.8888
 11
246.15
 21
11.1
  0
LINE
  8
0
 10
246.15
 20
11.1
 11
246.167
 21
11.3112
  0
LINE
  8
0
 10
246.167
 20
11.3112
 11
246.216
 21
11.5172
  0
LINE
  8
0
 10
246.216
 20
11.5172
 11
246.297
 21
11.7129
  0
LINE
  8
0
 10
246.297
 20
11.7129
 11
246.408
 21
11.8935
  0
LINE
  8
0
 10
246.408
 20
11.8935
 11
246.545
 21
12.0546
  0
LINE
  8
0
 10
246.545
 20
12.0546
 11
246.706
 21
12.1922
  0
LINE
  8
0
 10
246.706
 20
12.1922
 11
246.887
 21
12.3029
  0
LINE
  8
0
 10
246.887
 20
12.3029
 11
247.083
 21
12.3839
  0
LINE
  8
0
 10
247.083
 20
12.3839
 11
247.289
 21
12.4334
  0
LINE
  8
0
 10
247.289
 20
12.4334
 11
247.5
 21
12.45
  0
LINE
  8
0
 10
247.5
 20
12.45
 11
247.711
 21
12.4334
  0
LINE
  8
0
 10
247.711
 20
12.4334
 11
247.917
 21
12.3839
  0
LINE
  8
0
 10
247.917
 20
12.3839
 11
248.113
 21
12.3029
  0
LINE
  8
0
 10
248.113
 20
12.3029
 11
248.294
 21
12.1922
  0
LINE
  8
0
 10
248.294
 20
12.1922
 11
248.455
 21
12.0546
  0
LINE
  8
0
 10
248.455
 20
12.0546
 11
248.592
 21
11.8935
  0
LINE
  8
0
 10
248.592
 20
11.8935
 11
248.703
 21
11.7129
  0
LINE
  8
0
 10
248.703
 20
11.7129
 11
248.784
 21
11.5172
  0
LINE
  8
0
 10
248.784
 20
11.5172
 11
248.833
 21
11.3112
  0
LINE
  8
0
 10
248.833
 20
11.3112
 11
248.85
 21
11.1
  0
LINE
  8
0
 10
248.85
 20
11.1
 11
248.833
 21
10.8888
  0
LINE
  8
0
 10
248.833
 20
10.8888
 11
248.784
 21
10.6828
  0
LINE
  8
0
 10
248.784
 20
10.6828
 11
248.703
 21
10.4871
  0
LINE
  8
0
 10
248.703
 20
10.4871
 11
248.592
 21
10.3065
  0
LINE
  8
0
 10
248.592
 20
10.3065
 11
248.455
 21
10.1454
  0
LINE
  8
0
 10
248.455
 20
10.1454
 11
248.294
 21
10.0078
  0
LINE
  8
0
 10
248.294
 20
10.0078
 11
248.113
 21
9.89714
  0
LINE
  8
0
 10
248.113
 20
9.89714
 11
247.917
 21
9.81607
  0
LINE
  8
0
 10
247.917
 20
9.81607
 11
247.711
 21
9.76662
  0
LINE
  8
0
 10
247.711
 20
9.76662
 11
247.5
 21
9.75
  0
LINE
  8
0
 10
247.5
 20
9.75
 11
247.289
 21
9.76662
  0
ENDSEC
  0
SECTION
  2
OBJECTS
  0
DICTIONARY
  0
ENDSEC
  0
EOF
