  0
SECTION
  2
BLOCKS
  0
ENDSEC
  0
SECTION
  2
ENTITIES
  0
LINE
  8
0
 10
299.9
 20
49.5
 11
7.5
 21
49.5
  0
LINE
  8
0
 10
7.5
 20
49.5
 11
7.5
 21
7.5
  0
LINE
  8
0
 10
7.5
 20
7.5
 11
299.9
 21
7.5
  0
LINE
  8
0
 10
299.9
 20
7.5
 11
299.9
 21
49.5
  0
LINE
  8
0
 10
37.5888
 20
44.5666
 11
37.3828
 21
44.6161
  0
LINE
  8
0
 10
37.3828
 20
44.6161
 11
37.1871
 21
44.6971
  0
LINE
  8
0
 10
37.1871
 20
44.6971
 11
37.0065
 21
44.8078
  0
LINE
  8
0
 10
37.0065
 20
44.8078
 11
36.8454
 21
44.9454
  0
LINE
  8
0
 10
36.8454
 20
44.9454
 11
36.7078
 21
45.1065
  0
LINE
  8
0
 10
36.7078
 20
45.1065
 11
36.5971
 21
45.2871
  0
LINE
  8
0
 10
36.5971
 20
45.2871
 11
36.5161
 21
45.4828
  0
LINE
  8
0
 10
36.5161
 20
45.4828
 11
36.4666
 21
45.6888
  0
LINE
  8
0
 10
36.4666
 20
45.6888
 11
36.45
 21
45.9
  0
LINE
  8
0
 10
36.45
 20
45.9
 11
36.4666
 21
46.1112
  0
LINE
  8
0
 10
36.4666
 20
46.1112
 11
36.5161
 21
46.3172
  0
LINE
  8
0
 10
36.5161
 20
46.3172
 11
36.5971
 21
46.5129
  0
LINE
  8
0
 10
36.5971
 20
46.5129
 11
36.7078
 21
46.6935
  0
LINE
  8
0
 10
36.7078
 20
46.6935
 11
36.8454
 21
46.8546
  0
LINE
  8
0
 10
36.8454
 20
46.8546
 11
37.0065
 21
46.9922
  0
LINE
  8
0
 10
37.0065
 20
46.9922
 11
37.1871
 21
47.1028
  0
LINE
  8
0
 10
37.1871
 20
47.1028
 11
37.3828
 21
47.1839
  0
LINE
  8
0
 10
37.3828
 20
47.1839
 11
37.5888
 21
47.2334
  0
LINE
  8
0
 10
37.5888
 20
47.2334
 11
37.8
 21
47.25
  0
LINE
  8
0
 10
37.8
 20
47.25
 11
38.0112
 21
47.2334
  0
LINE
  8
0
 10
38.0112
 20
47.2334
 11
38.2172
 21
47.1839
  0
LINE
  8
0
 10
38.2172
 20
47.1839
 11
38.4129
 21
47.1028
  0
LINE
  8
0
 10
38.4129
 20
47.1028
 11
38.5935
 21
46.9922
  0
LINE
  8
0
 10
38.5935
 20
46.9922
 11
38.7546
 21
46.8546
  0
LINE
  8
0
 10
38.7546
 20
46.8546
 11
38.8922
 21
46.6935
  0
LINE
  8
0
 10
38.8922
 20
46.6935
 11
39.0029
 21
46.5129
  0
LINE
  8
0
 10
39.0029
 20
46.5129
 11
39.0839
 21
46.3172
  0
LINE
  8
0
 10
39.0839
 20
46.3172
 11
39.1334
 21
46.1112
  0
LINE
  8
0
 10
39.1334
 20
46.1112
 11
39.15
 21
45.9
  0
LINE
  8
0
 10
39.15
 20
45.9
 11
39.1334
 21
45.6888
  0
LINE
  8
0
 10
39.1334
 20
45.6888
 11
39.0839
 21
45.4828
  0
LINE
  8
0
 10
39.0839
 20
45.4828
 11
39.0029
 21
45.2871
  0
LINE
  8
0
 10
39.0029
 20
45.2871
 11
38.8922
 21
45.1065
  0
LINE
  8
0
 10
38.8922
 20
45.1065
 11
38.7546
 21
44.9454
  0
LINE
  8
0
 10
38.7546
 20
44.9454
 11
38.5935
 21
44.8078
  0
LINE
  8
0
 10
38.5935
 20
44.8078
 11
38.4129
 21
44.6971
  0
LINE
  8
0
 10
38.4129
 20
44.6971
 11
38.2172
 21
44.6161
  0
LINE
  8
0
 10
38.2172
 20
44.6161
 11
38.0112
 21
44.5666
  0
LINE
  8
0
 10
38.0112
 20
44.5666
 11
37.8
 21
44.55
  0
LINE
  8
0
 10
37.8
 20
44.55
 11
37.5888
 21
44.5666
  0
LINE
  8
0
 10
121.489
 20
44.5666
 11
121.283
 21
44.6161
  0
LINE
  8
0
 10
121.283
 20
44.6161
 11
121.087
 21
44.6971
  0
LINE
  8
0
 10
121.087
 20
44.6971
 11
120.906
 21
44.8078
  0
LINE
  8
0
 10
120.906
 20
44.8078
 11
120.745
 21
44.9454
  0
LINE
  8
0
 10
120.745
 20
44.9454
 11
120.608
 21
45.1065
  0
LINE
  8
0
 10
120.608
 20
45.1065
 11
120.497
 21
45.2871
  0
LINE
  8
0
 10
120.497
 20
45.2871
 11
120.416
 21
45.4828
  0
LINE
  8
0
 10
120.416
 20
45.4828
 11
120.367
 21
45.6888
  0
LINE
  8
0
 10
120.367
 20
45.6888
 11
120.35
 21
45.9
  0
LINE
  8
0
 10
120.35
 20
45.9
 11
120.367
 21
46.1112
  0
LINE
  8
0
 10
120.367
 20
46.1112
 11
120.416
 21
46.3172
  0
LINE
  8
0
 10
120.416
 20
46.3172
 11
120.497
 21
46.5129
  0
LINE
  8
0
 10
120.497
 20
46.5129
 11
120.608
 21
46.6935
  0
LINE
  8
0
 10
120.608
 20
46.6935
 11
120.745
 21
46.8546
  0
LINE
  8
0
 10
120.745
 20
46.8546
 11
120.906
 21
46.9922
  0
LINE
  8
0
 10
120.906
 20
46.9922
 11
121.087
 21
47.1028
  0
LINE
  8
0
 10
121.087
 20
47.1028
 11
121.283
 21
47.1839
  0
LINE
  8
0
 10
121.283
 20
47.1839
 11
121.489
 21
47.2334
  0
LINE
  8
0
 10
121.489
 20
47.2334
 11
121.7
 21
47.25
  0
LINE
  8
0
 10
121.7
 20
47.25
 11
121.911
 21
47.2334
  0
LINE
  8
0
 10
121.911
 20
47.2334
 11
122.117
 21
47.1839
  0
LINE
  8
0
 10
122.117
 20
47.1839
 11
122.313
 21
47.1028
  0
LINE
  8
0
 10
122.313
 20
47.1028
 11
122.493
 21
46.9922
  0
LINE
  8
0
 10
122.493
 20
46.9922
 11
122.655
 21
46.8546
  0
LINE
  8
0
 10
122.655
 20
46.8546
 11
122.792
 21
46.6935
  0
LINE
  8
0
 10
122.792
 20
46.6935
 11
122.903
 21
46.5129
  0
LINE
  8
0
 10
122.903
 20
46.5129
 11
122.984
 21
46.3172
  0
LINE
  8
0
 10
122.984
 20
46.3172
 11
123.033
 21
46.1112
  0
LINE
  8
0
 10
123.033
 20
46.1112
 11
123.05
 21
45.9
  0
LINE
  8
0
 10
123.05
 20
45.9
 11
123.033
 21
45.6888
  0
LINE
  8
0
 10
123.033
 20
45.6888
 11
122.984
 21
45.4828
  0
LINE
  8
0
 10
122.984
 20
45.4828
 11
122.903
 21
45.2871
  0
LINE
  8
0
 10
122.903
 20
45.2871
 11
122.792
 21
45.1065
  0
LINE
  8
0
 10
122.792
 20
45.1065
 11
122.655
 21
44.9454
  0
LINE
  8
0
 10
122.655
 20
44.9454
 11
122.493
 21
44.8078
  0
LINE
  8
0
 10
122.493
 20
44.8078
 11
122.313
 21
44.6971
  0
LINE
  8
0
 10
122.313
 20
44.6971
 11
122.117
 21
44.6161
  0
LINE
  8
0
 10
122.117
 20
44.6161
 11
121.911
 21
44.5666
  0
LINE
  8
0
 10
121.911
 20
44.5666
 11
121.7
 21
44.55
  0
LINE
  8
0
 10
121.7
 20
44.55
 11
121.489
 21
44.5666
  0
LINE
  8
0
 10
145.589
 20
44.5666
 11
145.383
 21
44.6161
  0
LINE
  8
0
 10
145.383
 20
44.6161
 11
145.187
 21
44.6971
  0
LINE
  8
0
 10
145.187
 20
44.6971
 11
145.006
 21
44.8078
  0
LINE
  8
0
 10
145.006
 20
44.8078
 11
144.845
 21
44.9454
  0
LINE
  8
0
 10
144.845
 20
44.9454
 11
144.708
 21
45.1065
  0
LINE
  8
0
 10
144.708
 20
45.1065
 11
144.597
 21
45.2871
  0
LINE
  8
0
 10
144.597
 20
45.2871
 11
144.516
 21
45.4828
  0
LINE
  8
0
 10
144.516
 20
45.4828
 11
144.467
 21
45.6888
  0
LINE
  8
0
 10
144.467
 20
45.6888
 11
144.45
 21
45.9
  0
LINE
  8
0
 10
144.45
 20
45.9
 11
144.467
 21
46.1112
  0
LINE
  8
0
 10
144.467
 20
46.1112
 11
144.516
 21
46.3172
  0
LINE
  8
0
 10
144.516
 20
46.3172
 11
144.597
 21
46.5129
  0
LINE
  8
0
 10
144.597
 20
46.5129
 11
144.708
 21
46.6935
  0
LINE
  8
0
 10
144.708
 20
46.6935
 11
144.845
 21
46.8546
  0
LINE
  8
0
 10
144.845
 20
46.8546
 11
145.006
 21
46.9922
  0
LINE
  8
0
 10
145.006
 20
46.9922
 11
145.187
 21
47.1028
  0
LINE
  8
0
 10
145.187
 20
47.1028
 11
145.383
 21
47.1839
  0
LINE
  8
0
 10
145.383
 20
47.1839
 11
145.589
 21
47.2334
  0
LINE
  8
0
 10
145.589
 20
47.2334
 11
145.8
 21
47.25
  0
LINE
  8
0
 10
145.8
 20
47.25
 11
146.011
 21
47.2334
  0
LINE
  8
0
 10
146.011
 20
47.2334
 11
146.217
 21
47.1839
  0
LINE
  8
0
 10
146.217
 20
47.1839
 11
146.413
 21
47.1028
  0
LINE
  8
0
 10
146.413
 20
47.1028
 11
146.594
 21
46.9922
  0
LINE
  8
0
 10
146.594
 20
46.9922
 11
146.755
 21
46.8546
  0
LINE
  8
0
 10
146.755
 20
46.8546
 11
146.892
 21
46.6935
  0
LINE
  8
0
 10
146.892
 20
46.6935
 11
147.003
 21
46.5129
  0
LINE
  8
0
 10
147.003
 20
46.5129
 11
147.084
 21
46.3172
  0
LINE
  8
0
 10
147.084
 20
46.3172
 11
147.133
 21
46.1112
  0
LINE
  8
0
 10
147.133
 20
46.1112
 11
147.15
 21
45.9
  0
LINE
  8
0
 10
147.15
 20
45.9
 11
147.133
 21
45.6888
  0
LINE
  8
0
 10
147.133
 20
45.6888
 11
147.084
 21
45.4828
  0
LINE
  8
0
 10
147.084
 20
45.4828
 11
147.003
 21
45.2871
  0
LINE
  8
0
 10
147.003
 20
45.2871
 11
146.892
 21
45.1065
  0
LINE
  8
0
 10
146.892
 20
45.1065
 11
146.755
 21
44.9454
  0
LINE
  8
0
 10
146.755
 20
44.9454
 11
146.594
 21
44.8078
  0
LINE
  8
0
 10
146.594
 20
44.8078
 11
146.413
 21
44.6971
  0
LINE
  8
0
 10
146.413
 20
44.6971
 11
146.217
 21
44.6161
  0
LINE
  8
0
 10
146.217
 20
44.6161
 11
146.011
 21
44.5666
  0
LINE
  8
0
 10
146.011
 20
44.5666
 11
145.8
 21
44.55
  0
LINE
  8
0
 10
145.8
 20
44.55
 11
145.589
 21
44.5666
  0
LINE
  8
0
 10
247.489
 20
44.5666
 11
247.283
 21
44.6161
  0
LINE
  8
0
 10
247.283
 20
44.6161
 11
247.087
 21
44.6971
  0
LINE
  8
0
 10
247.087
 20
44.6971
 11
246.906
 21
44.8078
  0
LINE
  8
0
 10
246.906
 20
44.8078
 11
246.745
 21
44.9454
  0
LINE
  8
0
 10
246.745
 20
44.9454
 11
246.608
 21
45.1065
  0
LINE
  8
0
 10
246.608
 20
45.1065
 11
246.497
 21
45.2871
  0
LINE
  8
0
 10
246.497
 20
45.2871
 11
246.416
 21
45.4828
  0
LINE
  8
0
 10
246.416
 20
45.4828
 11
246.367
 21
45.6888
  0
LINE
  8
0
 10
246.367
 20
45.6888
 11
246.35
 21
45.9
  0
LINE
  8
0
 10
246.35
 20
45.9
 11
246.367
 21
46.1112
  0
LINE
  8
0
 10
246.367
 20
46.1112
 11
246.416
 21
46.3172
  0
LINE
  8
0
 10
246.416
 20
46.3172
 11
246.497
 21
46.5129
  0
LINE
  8
0
 10
246.497
 20
46.5129
 11
246.608
 21
46.6935
  0
LINE
  8
0
 10
246.608
 20
46.6935
 11
246.745
 21
46.8546
  0
LINE
  8
0
 10
246.745
 20
46.8546
 11
246.906
 21
46.9922
  0
LINE
  8
0
 10
246.906
 20
46.9922
 11
247.087
 21
47.1028
  0
LINE
  8
0
 10
247.087
 20
47.1028
 11
247.283
 21
47.1839
  0
LINE
  8
0
 10
247.283
 20
47.1839
 11
247.489
 21
47.2334
  0
LINE
  8
0
 10
247.489
 20
47.2334
 11
247.7
 21
47.25
  0
LINE
  8
0
 10
247.7
 20
47.25
 11
247.911
 21
47.2334
  0
LINE
  8
0
 10
247.911
 20
47.2334
 11
248.117
 21
47.1839
  0
LINE
  8
0
 10
248.117
 20
47.1839
 11
248.313
 21
47.1028
  0
LINE
  8
0
 10
248.313
 20
47.1028
 11
248.493
 21
46.9922
  0
LINE
  8
0
 10
248.493
 20
46.9922
 11
248.655
 21
46.8546
  0
LINE
  8
0
 10
248.655
 20
46.8546
 11
248.792
 21
46.6935
  0
LINE
  8
0
 10
248.792
 20
46.6935
 11
248.903
 21
46.5129
  0
LINE
  8
0
 10
248.903
 20
46.5129
 11
248.984
 21
46.3172
  0
LINE
  8
0
 10
248.984
 20
46.3172
 11
249.033
 21
46.1112
  0
LINE
  8
0
 10
249.033
 20
46.1112
 11
249.05
 21
45.9
  0
LINE
  8
0
 10
249.05
 20
45.9
 11
249.033
 21
45.6888
  0
LINE
  8
0
 10
249.033
 20
45.6888
 11
248.984
 21
45.4828
  0
LINE
  8
0
 10
248.984
 20
45.4828
 11
248.903
 21
45.2871
  0
LINE
  8
0
 10
248.903
 20
45.2871
 11
248.792
 21
45.1065
  0
LINE
  8
0
 10
248.792
 20
45.1065
 11
248.655
 21
44.9454
  0
LINE
  8
0
 10
248.655
 20
44.9454
 11
248.493
 21
44.8078
  0
LINE
  8
0
 10
248.493
 20
44.8078
 11
248.313
 21
44.6971
  0
LINE
  8
0
 10
248.313
 20
44.6971
 11
248.117
 21
44.6161
  0
LINE
  8
0
 10
248.117
 20
44.6161
 11
247.911
 21
44.5666
  0
LINE
  8
0
 10
247.911
 20
44.5666
 11
247.7
 21
44.55
  0
LINE
  8
0
 10
247.7
 20
44.55
 11
247.489
 21
44.5666
  0
LINE
  8
0
 10
278.239
 20
44.5666
 11
278.033
 21
44.6161
  0
LINE
  8
0
 10
278.033
 20
44.6161
 11
277.837
 21
44.6971
  0
LINE
  8
0
 10
277.837
 20
44.6971
 11
277.656
 21
44.8078
  0
LINE
  8
0
 10
277.656
 20
44.8078
 11
277.495
 21
44.9454
  0
LINE
  8
0
 10
277.495
 20
44.9454
 11
277.358
 21
45.1065
  0
LINE
  8
0
 10
277.358
 20
45.1065
 11
277.247
 21
45.2871
  0
LINE
  8
0
 10
277.247
 20
45.2871
 11
277.166
 21
45.4828
  0
LINE
  8
0
 10
277.166
 20
45.4828
 11
277.117
 21
45.6888
  0
LINE
  8
0
 10
277.117
 20
45.6888
 11
277.1
 21
45.9
  0
LINE
  8
0
 10
277.1
 20
45.9
 11
277.117
 21
46.1112
  0
LINE
  8
0
 10
277.117
 20
46.1112
 11
277.166
 21
46.3172
  0
LINE
  8
0
 10
277.166
 20
46.3172
 11
277.247
 21
46.5129
  0
LINE
  8
0
 10
277.247
 20
46.5129
 11
277.358
 21
46.6935
  0
LINE
  8
0
 10
277.358
 20
46.6935
 11
277.495
 21
46.8546
  0
LINE
  8
0
 10
277.495
 20
46.8546
 11
277.656
 21
46.9922
  0
LINE
  8
0
 10
277.656
 20
46.9922
 11
277.837
 21
47.1028
  0
LINE
  8
0
 10
277.837
 20
47.1028
 11
278.033
 21
47.1839
  0
LINE
  8
0
 10
278.033
 20
47.1839
 11
278.239
 21
47.2334
  0
LINE
  8
0
 10
278.239
 20
47.2334
 11
278.45
 21
47.25
  0
LINE
  8
0
 10
278.45
 20
47.25
 11
278.661
 21
47.2334
  0
LINE
  8
0
 10
278.661
 20
47.2334
 11
278.867
 21
47.1839
  0
LINE
  8
0
 10
278.867
 20
47.1839
 11
279.063
 21
47.1028
  0
LINE
  8
0
 10
279.063
 20
47.1028
 11
279.243
 21
46.9922
  0
LINE
  8
0
 10
279.243
 20
46.9922
 11
279.405
 21
46.8546
  0
LINE
  8
0
 10
279.405
 20
46.8546
 11
279.542
 21
46.6935
  0
LINE
  8
0
 10
279.542
 20
46.6935
 11
279.653
 21
46.5129
  0
LINE
  8
0
 10
279.653
 20
46.5129
 11
279.734
 21
46.3172
  0
LINE
  8
0
 10
279.734
 20
46.3172
 11
279.783
 21
46.1112
  0
LINE
  8
0
 10
279.783
 20
46.1112
 11
279.8
 21
45.9
  0
LINE
  8
0
 10
279.8
 20
45.9
 11
279.783
 21
45.6888
  0
LINE
  8
0
 10
279.783
 20
45.6888
 11
279.734
 21
45.4828
  0
LINE
  8
0
 10
279.734
 20
45.4828
 11
279.653
 21
45.2871
  0
LINE
  8
0
 10
279.653
 20
45.2871
 11
279.542
 21
45.1065
  0
LINE
  8
0
 10
279.542
 20
45.1065
 11
279.405
 21
44.9454
  0
LINE
  8
0
 10
279.405
 20
44.9454
 11
279.243
 21
44.8078
  0
LINE
  8
0
 10
279.243
 20
44.8078
 11
279.063
 21
44.6971
  0
LINE
  8
0
 10
279.063
 20
44.6971
 11
278.867
 21
44.6161
  0
LINE
  8
0
 10
278.867
 20
44.6161
 11
278.661
 21
44.5666
  0
LINE
  8
0
 10
278.661
 20
44.5666
 11
278.45
 21
44.55
  0
LINE
  8
0
 10
278.45
 20
44.55
 11
278.239
 21
44.5666
  0
LINE
  8
0
 10
132.687
 20
36.5246
 11
132.382
 21
36.5979
  0
LINE
  8
0
 10
132.382
 20
36.5979
 11
132.092
 21
36.718
  0
LINE
  8
0
 10
132.092
 20
36.718
 11
131.824
 21
36.882
  0
LINE
  8
0
 10
131.824
 20
36.882
 11
131.586
 21
37.0858
  0
LINE
  8
0
 10
131.586
 20
37.0858
 11
131.382
 21
37.3244
  0
LINE
  8
0
 10
131.382
 20
37.3244
 11
131.218
 21
37.592
  0
LINE
  8
0
 10
131.218
 20
37.592
 11
131.098
 21
37.882
  0
LINE
  8
0
 10
131.098
 20
37.882
 11
131.025
 21
38.1871
  0
LINE
  8
0
 10
131.025
 20
38.1871
 11
131
 21
38.5
  0
LINE
  8
0
 10
131
 20
38.5
 11
131.025
 21
38.8129
  0
LINE
  8
0
 10
131.025
 20
38.8129
 11
131.098
 21
39.118
  0
LINE
  8
0
 10
131.098
 20
39.118
 11
131.218
 21
39.408
  0
LINE
  8
0
 10
131.218
 20
39.408
 11
131.382
 21
39.6756
  0
LINE
  8
0
 10
131.382
 20
39.6756
 11
131.586
 21
39.9142
  0
LINE
  8
0
 10
131.586
 20
39.9142
 11
131.824
 21
40.118
  0
LINE
  8
0
 10
131.824
 20
40.118
 11
132.092
 21
40.282
  0
LINE
  8
0
 10
132.092
 20
40.282
 11
132.382
 21
40.4021
  0
LINE
  8
0
 10
132.382
 20
40.4021
 11
132.687
 21
40.4754
  0
LINE
  8
0
 10
132.687
 20
40.4754
 11
133
 21
40.5
  0
LINE
  8
0
 10
133
 20
40.5
 11
133.313
 21
40.4754
  0
LINE
  8
0
 10
133.313
 20
40.4754
 11
133.618
 21
40.4021
  0
LINE
  8
0
 10
133.618
 20
40.4021
 11
133.908
 21
40.282
  0
LINE
  8
0
 10
133.908
 20
40.282
 11
134.176
 21
40.118
  0
LINE
  8
0
 10
134.176
 20
40.118
 11
134.414
 21
39.9142
  0
LINE
  8
0
 10
134.414
 20
39.9142
 11
134.618
 21
39.6756
  0
LINE
  8
0
 10
134.618
 20
39.6756
 11
134.782
 21
39.408
  0
LINE
  8
0
 10
134.782
 20
39.408
 11
134.902
 21
39.118
  0
LINE
  8
0
 10
134.902
 20
39.118
 11
134.975
 21
38.8129
  0
LINE
  8
0
 10
134.975
 20
38.8129
 11
135
 21
38.5
  0
LINE
  8
0
 10
135
 20
38.5
 11
134.975
 21
38.1871
  0
LINE
  8
0
 10
134.975
 20
38.1871
 11
134.902
 21
37.882
  0
LINE
  8
0
 10
134.902
 20
37.882
 11
134.782
 21
37.592
  0
LINE
  8
0
 10
134.782
 20
37.592
 11
134.618
 21
37.3244
  0
LINE
  8
0
 10
134.618
 20
37.3244
 11
134.414
 21
37.0858
  0
LINE
  8
0
 10
134.414
 20
37.0858
 11
134.176
 21
36.882
  0
LINE
  8
0
 10
134.176
 20
36.882
 11
133.908
 21
36.718
  0
LINE
  8
0
 10
133.908
 20
36.718
 11
133.618
 21
36.5979
  0
LINE
  8
0
 10
133.618
 20
36.5979
 11
133.313
 21
36.5246
  0
LINE
  8
0
 10
133.313
 20
36.5246
 11
133
 21
36.5
  0
LINE
  8
0
 10
133
 20
36.5
 11
132.687
 21
36.5246
  0
LINE
  8
0
 10
132.687
 20
16.5246
 11
132.382
 21
16.5979
  0
LINE
  8
0
 10
132.382
 20
16.5979
 11
132.092
 21
16.718
  0
LINE
  8
0
 10
132.092
 20
16.718
 11
131.824
 21
16.882
  0
LINE
  8
0
 10
131.824
 20
16.882
 11
131.586
 21
17.0858
  0
LINE
  8
0
 10
131.586
 20
17.0858
 11
131.382
 21
17.3244
  0
LINE
  8
0
 10
131.382
 20
17.3244
 11
131.218
 21
17.592
  0
LINE
  8
0
 10
131.218
 20
17.592
 11
131.098
 21
17.882
  0
LINE
  8
0
 10
131.098
 20
17.882
 11
131.025
 21
18.1871
  0
LINE
  8
0
 10
131.025
 20
18.1871
 11
131
 21
18.5
  0
LINE
  8
0
 10
131
 20
18.5
 11
131.025
 21
18.8129
  0
LINE
  8
0
 10
131.025
 20
18.8129
 11
131.098
 21
19.118
  0
LINE
  8
0
 10
131.098
 20
19.118
 11
131.218
 21
19.408
  0
LINE
  8
0
 10
131.218
 20
19.408
 11
131.382
 21
19.6756
  0
LINE
  8
0
 10
131.382
 20
19.6756
 11
131.586
 21
19.9142
  0
LINE
  8
0
 10
131.586
 20
19.9142
 11
131.824
 21
20.118
  0
LINE
  8
0
 10
131.824
 20
20.118
 11
132.092
 21
20.282
  0
LINE
  8
0
 10
132.092
 20
20.282
 11
132.382
 21
20.4021
  0
LINE
  8
0
 10
132.382
 20
20.4021
 11
132.687
 21
20.4754
  0
LINE
  8
0
 10
132.687
 20
20.4754
 11
133
 21
20.5
  0
LINE
  8
0
 10
133
 20
20.5
 11
133.313
 21
20.4754
  0
LINE
  8
0
 10
133.313
 20
20.4754
 11
133.618
 21
20.4021
  0
LINE
  8
0
 10
133.618
 20
20.4021
 11
133.908
 21
20.282
  0
LINE
  8
0
 10
133.908
 20
20.282
 11
134.176
 21
20.118
  0
LINE
  8
0
 10
134.176
 20
20.118
 11
134.414
 21
19.9142
  0
LINE
  8
0
 10
134.414
 20
19.9142
 11
134.618
 21
19.6756
  0
LINE
  8
0
 10
134.618
 20
19.6756
 11
134.782
 21
19.408
  0
LINE
  8
0
 10
134.782
 20
19.408
 11
134.902
 21
19.118
  0
LINE
  8
0
 10
134.902
 20
19.118
 11
134.975
 21
18.8129
  0
LINE
  8
0
 10
134.975
 20
18.8129
 11
135
 21
18.5
  0
LINE
  8
0
 10
135
 20
18.5
 11
134.975
 21
18.1871
  0
LINE
  8
0
 10
134.975
 20
18.1871
 11
134.902
 21
17.882
  0
LINE
  8
0
 10
134.902
 20
17.882
 11
134.782
 21
17.592
  0
LINE
  8
0
 10
134.782
 20
17.592
 11
134.618
 21
17.3244
  0
LINE
  8
0
 10
134.618
 20
17.3244
 11
134.414
 21
17.0858
  0
LINE
  8
0
 10
134.414
 20
17.0858
 11
134.176
 21
16.882
  0
LINE
  8
0
 10
134.176
 20
16.882
 11
133.908
 21
16.718
  0
LINE
  8
0
 10
133.908
 20
16.718
 11
133.618
 21
16.5979
  0
LINE
  8
0
 10
133.618
 20
16.5979
 11
133.313
 21
16.5246
  0
LINE
  8
0
 10
133.313
 20
16.5246
 11
133
 21
16.5
  0
LINE
  8
0
 10
133
 20
16.5
 11
132.687
 21
16.5246
  0
LINE
  8
0
 10
11.2888
 20
10.1666
 11
11.0828
 21
10.2161
  0
LINE
  8
0
 10
11.0828
 20
10.2161
 11
10.8871
 21
10.2971
  0
LINE
  8
0
 10
10.8871
 20
10.2971
 11
10.7065
 21
10.4078
  0
LINE
  8
0
 10
10.7065
 20
10.4078
 11
10.5454
 21
10.5454
  0
LINE
  8
0
 10
10.5454
 20
10.5454
 11
10.4078
 21
10.7065
  0
LINE
  8
0
 10
10.4078
 20
10.7065
 11
10.2971
 21
10.8871
  0
LINE
  8
0
 10
10.2971
 20
10.8871
 11
10.2161
 21
11.0828
  0
LINE
  8
0
 10
10.2161
 20
11.0828
 11
10.1666
 21
11.2888
  0
LINE
  8
0
 10
10.1666
 20
11.2888
 11
10.15
 21
11.5
  0
LINE
  8
0
 10
10.15
 20
11.5
 11
10.1666
 21
11.7112
  0
LINE
  8
0
 10
10.1666
 20
11.7112
 11
10.2161
 21
11.9172
  0
LINE
  8
0
 10
10.2161
 20
11.9172
 11
10.2971
 21
12.1129
  0
LINE
  8
0
 10
10.2971
 20
12.1129
 11
10.4078
 21
12.2935
  0
LINE
  8
0
 10
10.4078
 20
12.2935
 11
10.5454
 21
12.4546
  0
LINE
  8
0
 10
10.5454
 20
12.4546
 11
10.7065
 21
12.5922
  0
LINE
  8
0
 10
10.7065
 20
12.5922
 11
10.8871
 21
12.7029
  0
LINE
  8
0
 10
10.8871
 20
12.7029
 11
11.0828
 21
12.7839
  0
LINE
  8
0
 10
11.0828
 20
12.7839
 11
11.2888
 21
12.8334
  0
LINE
  8
0
 10
11.2888
 20
12.8334
 11
11.5
 21
12.85
  0
LINE
  8
0
 10
11.5
 20
12.85
 11
11.7112
 21
12.8334
  0
LINE
  8
0
 10
11.7112
 20
12.8334
 11
11.9172
 21
12.7839
  0
LINE
  8
0
 10
11.9172
 20
12.7839
 11
12.1129
 21
12.7029
  0
LINE
  8
0
 10
12.1129
 20
12.7029
 11
12.2935
 21
12.5922
  0
LINE
  8
0
 10
12.2935
 20
12.5922
 11
12.4546
 21
12.4546
  0
LINE
  8
0
 10
12.4546
 20
12.4546
 11
12.5922
 21
12.2935
  0
LINE
  8
0
 10
12.5922
 20
12.2935
 11
12.7029
 21
12.1129
  0
LINE
  8
0
 10
12.7029
 20
12.1129
 11
12.7839
 21
11.9172
  0
LINE
  8
0
 10
12.7839
 20
11.9172
 11
12.8334
 21
11.7112
  0
LINE
  8
0
 10
12.8334
 20
11.7112
 11
12.85
 21
11.5
  0
LINE
  8
0
 10
12.85
 20
11.5
 11
12.8334
 21
11.2888
  0
LINE
  8
0
 10
12.8334
 20
11.2888
 11
12.7839
 21
11.0828
  0
LINE
  8
0
 10
12.7839
 20
11.0828
 11
12.7029
 21
10.8871
  0
LINE
  8
0
 10
12.7029
 20
10.8871
 11
12.5922
 21
10.7065
  0
LINE
  8
0
 10
12.5922
 20
10.7065
 11
12.4546
 21
10.5454
  0
LINE
  8
0
 10
12.4546
 20
10.5454
 11
12.2935
 21
10.4078
  0
LINE
  8
0
 10
12.2935
 20
10.4078
 11
12.1129
 21
10.2971
  0
LINE
  8
0
 10
12.1129
 20
10.2971
 11
11.9172
 21
10.2161
  0
LINE
  8
0
 10
11.9172
 20
10.2161
 11
11.7112
 21
10.1666
  0
LINE
  8
0
 10
11.7112
 20
10.1666
 11
11.5
 21
10.15
  0
LINE
  8
0
 10
11.5
 20
10.15
 11
11.2888
 21
10.1666
  0
LINE
  8
0
 10
37.5888
 20
9.76662
 11
37.3828
 21
9.81607
  0
LINE
  8
0
 10
37.3828
 20
9.81607
 11
37.1871
 21
9.89714
  0
LINE
  8
0
 10
37.1871
 20
9.89714
 11
37.0065
 21
10.0078
  0
LINE
  8
0
 10
37.0065
 20
10.0078
 11
36.8454
 21
10.1454
  0
LINE
  8
0
 10
36.8454
 20
10.1454
 11
36.7078
 21
10.3065
  0
LINE
  8
0
 10
36.7078
 20
10.3065
 11
36.5971
 21
10.4871
  0
LINE
  8
0
 10
36.5971
 20
10.4871
 11
36.5161
 21
10.6828
  0
LINE
  8
0
 10
36.5161
 20
10.6828
 11
36.4666
 21
10.8888
  0
LINE
  8
0
 10
36.4666
 20
10.8888
 11
36.45
 21
11.1
  0
LINE
  8
0
 10
36.45
 20
11.1
 11
36.4666
 21
11.3112
  0
LINE
  8
0
 10
36.4666
 20
11.3112
 11
36.5161
 21
11.5172
  0
LINE
  8
0
 10
36.5161
 20
11.5172
 11
36.5971
 21
11.7129
  0
LINE
  8
0
 10
36.5971
 20
11.7129
 11
36.7078
 21
11.8935
  0
LINE
  8
0
 10
36.7078
 20
11.8935
 11
36.8454
 21
12.0546
  0
LINE
  8
0
 10
36.8454
 20
12.0546
 11
37.0065
 21
12.1922
  0
LINE
  8
0
 10
37.0065
 20
12.1922
 11
37.1871
 21
12.3029
  0
LINE
  8
0
 10
37.1871
 20
12.3029
 11
37.3828
 21
12.3839
  0
LINE
  8
0
 10
37.3828
 20
12.3839
 11
37.5888
 21
12.4334
  0
LINE
  8
0
 10
37.5888
 20
12.4334
 11
37.8
 21
12.45
  0
LINE
  8
0
 10
37.8
 20
12.45
 11
38.0112
 21
12.4334
  0
LINE
  8
0
 10
38.0112
 20
12.4334
 11
38.2172
 21
12.3839
  0
LINE
  8
0
 10
38.2172
 20
12.3839
 11
38.4129
 21
12.3029
  0
LINE
  8
0
 10
38.4129
 20
12.3029
 11
38.5935
 21
12.1922
  0
LINE
  8
0
 10
38.5935
 20
12.1922
 11
38.7546
 21
12.0546
  0
LINE
  8
0
 10
38.7546
 20
12.0546
 11
38.8922
 21
11.8935
  0
LINE
  8
0
 10
38.8922
 20
11.8935
 11
39.0029
 21
11.7129
  0
LINE
  8
0
 10
39.0029
 20
11.7129
 11
39.0839
 21
11.5172
  0
LINE
  8
0
 10
39.0839
 20
11.5172
 11
39.1334
 21
11.3112
  0
LINE
  8
0
 10
39.1334
 20
11.3112
 11
39.15
 21
11.1
  0
LINE
  8
0
 10
39.15
 20
11.1
 11
39.1334
 21
10.8888
  0
LINE
  8
0
 10
39.1334
 20
10.8888
 11
39.0839
 21
10.6828
  0
LINE
  8
0
 10
39.0839
 20
10.6828
 11
39.0029
 21
10.4871
  0
LINE
  8
0
 10
39.0029
 20
10.4871
 11
38.8922
 21
10.3065
  0
LINE
  8
0
 10
38.8922
 20
10.3065
 11
38.7546
 21
10.1454
  0
LINE
  8
0
 10
38.7546
 20
10.1454
 11
38.5935
 21
10.0078
  0
LINE
  8
0
 10
38.5935
 20
10.0078
 11
38.4129
 21
9.89714
  0
LINE
  8
0
 10
38.4129
 20
9.89714
 11
38.2172
 21
9.81607
  0
LINE
  8
0
 10
38.2172
 20
9.81607
 11
38.0112
 21
9.76662
  0
LINE
  8
0
 10
38.0112
 20
9.76662
 11
37.8
 21
9.75
  0
LINE
  8
0
 10
37.8
 20
9.75
 11
37.5888
 21
9.76662
  0
LINE
  8
0
 10
121.489
 20
9.76662
 11
121.283
 21
9.81607
  0
LINE
  8
0
 10
121.283
 20
9.81607
 11
121.087
 21
9.89714
  0
LINE
  8
0
 10
121.087
 20
9.89714
 11
120.906
 21
10.0078
  0
LINE
  8
0
 10
120.906
 20
10.0078
 11
120.745
 21
10.1454
  0
LINE
  8
0
 10
120.745
 20
10.1454
 11
120.608
 21
10.3065
  0
LINE
  8
0
 10
120.608
 20
10.3065
 11
120.497
 21
10.4871
  0
LINE
  8
0
 10
120.497
 20
10.4871
 11
120.416
 21
10.6828
  0
LINE
  8
0
 10
120.416
 20
10.6828
 11
120.367
 21
10.8888
  0
LINE
  8
0
 10
120.367
 20
10.8888
 11
120.35
 21
11.1
  0
LINE
  8
0
 10
120.35
 20
11.1
 11
120.367
 21
11.3112
  0
LINE
  8
0
 10
120.367
 20
11.3112
 11
120.416
 21
11.5172
  0
LINE
  8
0
 10
120.416
 20
11.5172
 11
120.497
 21
11.7129
  0
LINE
  8
0
 10
120.497
 20
11.7129
 11
120.608
 21
11.8935
  0
LINE
  8
0
 10
120.608
 20
11.8935
 11
120.745
 21
12.0546
  0
LINE
  8
0
 10
120.745
 20
12.0546
 11
120.906
 21
12.1922
  0
LINE
  8
0
 10
120.906
 20
12.1922
 11
121.087
 21
12.3029
  0
LINE
  8
0
 10
121.087
 20
12.3029
 11
121.283
 21
12.3839
  0
LINE
  8
0
 10
121.283
 20
12.3839
 11
121.489
 21
12.4334
  0
LINE
  8
0
 10
121.489
 20
12.4334
 11
121.7
 21
12.45
  0
LINE
  8
0
 10
121.7
 20
12.45
 11
121.911
 21
12.4334
  0
LINE
  8
0
 10
121.911
 20
12.4334
 11
122.117
 21
12.3839
  0
LINE
  8
0
 10
122.117
 20
12.3839
 11
122.313
 21
12.3029
  0
LINE
  8
0
 10
122.313
 20
12.3029
 11
122.493
 21
12.1922
  0
LINE
  8
0
 10
122.493
 20
12.1922
 11
122.655
 21
12.0546
  0
LINE
  8
0
 10
122.655
 20
12.0546
 11
122.792
 21
11.8935
  0
LINE
  8
0
 10
122.792
 20
11.8935
 11
122.903
 21
11.7129
  0
LINE
  8
0
 10
122.903
 20
11.7129
 11
122.984
 21
11.5172
  0
LINE
  8
0
 10
122.984
 20
11.5172
 11
123.033
 21
11.3112
  0
LINE
  8
0
 10
123.033
 20
11.3112
 11
123.05
 21
11.1
  0
LINE
  8
0
 10
123.05
 20
11.1
 11
123.033
 21
10.8888
  0
LINE
  8
0
 10
123.033
 20
10.8888
 11
122.984
 21
10.6828
  0
LINE
  8
0
 10
122.984
 20
10.6828
 11
122.903
 21
10.4871
  0
LINE
  8
0
 10
122.903
 20
10.4871
 11
122.792
 21
10.3065
  0
LINE
  8
0
 10
122.792
 20
10.3065
 11
122.655
 21
10.1454
  0
LINE
  8
0
 10
122.655
 20
10.1454
 11
122.493
 21
10.0078
  0
LINE
  8
0
 10
122.493
 20
10.0078
 11
122.313
 21
9.89714
  0
LINE
  8
0
 10
122.313
 20
9.89714
 11
122.117
 21
9.81607
  0
LINE
  8
0
 10
122.117
 20
9.81607
 11
121.911
 21
9.76662
  0
LINE
  8
0
 10
121.911
 20
9.76662
 11
121.7
 21
9.75
  0
LINE
  8
0
 10
121.7
 20
9.75
 11
121.489
 21
9.76662
  0
LINE
  8
0
 10
145.589
 20
9.76662
 11
145.383
 21
9.81607
  0
LINE
  8
0
 10
145.383
 20
9.81607
 11
145.187
 21
9.89714
  0
LINE
  8
0
 10
145.187
 20
9.89714
 11
145.006
 21
10.0078
  0
LINE
  8
0
 10
145.006
 20
10.0078
 11
144.845
 21
10.1454
  0
LINE
  8
0
 10
144.845
 20
10.1454
 11
144.708
 21
10.3065
  0
LINE
  8
0
 10
144.708
 20
10.3065
 11
144.597
 21
10.4871
  0
LINE
  8
0
 10
144.597
 20
10.4871
 11
144.516
 21
10.6828
  0
LINE
  8
0
 10
144.516
 20
10.6828
 11
144.467
 21
10.8888
  0
LINE
  8
0
 10
144.467
 20
10.8888
 11
144.45
 21
11.1
  0
LINE
  8
0
 10
144.45
 20
11.1
 11
144.467
 21
11.3112
  0
LINE
  8
0
 10
144.467
 20
11.3112
 11
144.516
 21
11.5172
  0
LINE
  8
0
 10
144.516
 20
11.5172
 11
144.597
 21
11.7129
  0
LINE
  8
0
 10
144.597
 20
11.7129
 11
144.708
 21
11.8935
  0
LINE
  8
0
 10
144.708
 20
11.8935
 11
144.845
 21
12.0546
  0
LINE
  8
0
 10
144.845
 20
12.0546
 11
145.006
 21
12.1922
  0
LINE
  8
0
 10
145.006
 20
12.1922
 11
145.187
 21
12.3029
  0
LINE
  8
0
 10
145.187
 20
12.3029
 11
145.383
 21
12.3839
  0
LINE
  8
0
 10
145.383
 20
12.3839
 11
145.589
 21
12.4334
  0
LINE
  8
0
 10
145.589
 20
12.4334
 11
145.8
 21
12.45
  0
LINE
  8
0
 10
145.8
 20
12.45
 11
146.011
 21
12.4334
  0
LINE
  8
0
 10
146.011
 20
12.4334
 11
146.217
 21
12.3839
  0
LINE
  8
0
 10
146.217
 20
12.3839
 11
146.413
 21
12.3029
  0
LINE
  8
0
 10
146.413
 20
12.3029
 11
146.594
 21
12.1922
  0
LINE
  8
0
 10
146.594
 20
12.1922
 11
146.755
 21
12.0546
  0
LINE
  8
0
 10
146.755
 20
12.0546
 11
146.892
 21
11.8935
  0
LINE
  8
0
 10
146.892
 20
11.8935
 11
147.003
 21
11.7129
  0
LINE
  8
0
 10
147.003
 20
11.7129
 11
147.084
 21
11.5172
  0
LINE
  8
0
 10
147.084
 20
11.5172
 11
147.133
 21
11.3112
  0
LINE
  8
0
 10
147.133
 20
11.3112
 11
147.15
 21
11.1
  0
LINE
  8
0
 10
147.15
 20
11.1
 11
147.133
 21
10.8888
  0
LINE
  8
0
 10
147.133
 20
10.8888
 11
147.084
 21
10.6828
  0
LINE
  8
0
 10
147.084
 20
10.6828
 11
147.003
 21
10.4871
  0
LINE
  8
0
 10
147.003
 20
10.4871
 11
146.892
 21
10.3065
  0
LINE
  8
0
 10
146.892
 20
10.3065
 11
146.755
 21
10.1454
  0
LINE
  8
0
 10
146.755
 20
10.1454
 11
146.594
 21
10.0078
  0
LINE
  8
0
 10
146.594
 20
10.0078
 11
146.413
 21
9.89714
  0
LINE
  8
0
 10
146.413
 20
9.89714
 11
146.217
 21
9.81607
  0
LINE
  8
0
 10
146.217
 20
9.81607
 11
146.011
 21
9.76662
  0
LINE
  8
0
 10
146.011
 20
9.76662
 11
145.8
 21
9.75
  0
LINE
  8
0
 10
145.8
 20
9.75
 11
145.589
 21
9.76662
  0
LINE
  8
0
 10
247.489
 20
9.76662
 11
247.283
 21
9.81607
  0
LINE
  8
0
 10
247.283
 20
9.81607
 11
247.087
 21
9.89714
  0
LINE
  8
0
 10
247.087
 20
9.89714
 11
246.906
 21
10.0078
  0
LINE
  8
0
 10
246.906
 20
10.0078
 11
246.745
 21
10.1454
  0
LINE
  8
0
 10
246.745
 20
10.1454
 11
246.608
 21
10.3065
  0
LINE
  8
0
 10
246.608
 20
10.3065
 11
246.497
 21
10.4871
  0
LINE
  8
0
 10
246.497
 20
10.4871
 11
246.416
 21
10.6828
  0
LINE
  8
0
 10
246.416
 20
10.6828
 11
246.367
 21
10.8888
  0
LINE
  8
0
 10
246.367
 20
10.8888
 11
246.35
 21
11.1
  0
LINE
  8
0
 10
246.35
 20
11.1
 11
246.367
 21
11.3112
  0
LINE
  8
0
 10
246.367
 20
11.3112
 11
246.416
 21
11.5172
  0
LINE
  8
0
 10
246.416
 20
11.5172
 11
246.497
 21
11.7129
  0
LINE
  8
0
 10
246.497
 20
11.7129
 11
246.608
 21
11.8935
  0
LINE
  8
0
 10
246.608
 20
11.8935
 11
246.745
 21
12.0546
  0
LINE
  8
0
 10
246.745
 20
12.0546
 11
246.906
 21
12.1922
  0
LINE
  8
0
 10
246.906
 20
12.1922
 11
247.087
 21
12.3029
  0
LINE
  8
0
 10
247.087
 20
12.3029
 11
247.283
 21
12.3839
  0
LINE
  8
0
 10
247.283
 20
12.3839
 11
247.489
 21
12.4334
  0
LINE
  8
0
 10
247.489
 20
12.4334
 11
247.7
 21
12.45
  0
LINE
  8
0
 10
247.7
 20
12.45
 11
247.911
 21
12.4334
  0
LINE
  8
0
 10
247.911
 20
12.4334
 11
248.117
 21
12.3839
  0
LINE
  8
0
 10
248.117
 20
12.3839
 11
248.313
 21
12.3029
  0
LINE
  8
0
 10
248.313
 20
12.3029
 11
248.493
 21
12.1922
  0
LINE
  8
0
 10
248.493
 20
12.1922
 11
248.655
 21
12.0546
  0
LINE
  8
0
 10
248.655
 20
12.0546
 11
248.792
 21
11.8935
  0
LINE
  8
0
 10
248.792
 20
11.8935
 11
248.903
 21
11.7129
  0
LINE
  8
0
 10
248.903
 20
11.7129
 11
248.984
 21
11.5172
  0
LINE
  8
0
 10
248.984
 20
11.5172
 11
249.033
 21
11.3112
  0
LINE
  8
0
 10
249.033
 20
11.3112
 11
249.05
 21
11.1
  0
LINE
  8
0
 10
249.05
 20
11.1
 11
249.033
 21
10.8888
  0
LINE
  8
0
 10
249.033
 20
10.8888
 11
248.984
 21
10.6828
  0
LINE
  8
0
 10
248.984
 20
10.6828
 11
248.903
 21
10.4871
  0
LINE
  8
0
 10
248.903
 20
10.4871
 11
248.792
 21
10.3065
  0
LINE
  8
0
 10
248.792
 20
10.3065
 11
248.655
 21
10.1454
  0
LINE
  8
0
 10
248.655
 20
10.1454
 11
248.493
 21
10.0078
  0
LINE
  8
0
 10
248.493
 20
10.0078
 11
248.313
 21
9.89714
  0
LINE
  8
0
 10
248.313
 20
9.89714
 11
248.117
 21
9.81607
  0
LINE
  8
0
 10
248.117
 20
9.81607
 11
247.911
 21
9.76662
  0
LINE
  8
0
 10
247.911
 20
9.76662
 11
247.7
 21
9.75
  0
LINE
  8
0
 10
247.7
 20
9.75
 11
247.489
 21
9.76662
  0
LINE
  8
0
 10
278.239
 20
9.76662
 11
278.033
 21
9.81607
  0
LINE
  8
0
 10
278.033
 20
9.81607
 11
277.837
 21
9.89714
  0
LINE
  8
0
 10
277.837
 20
9.89714
 11
277.656
 21
10.0078
  0
LINE
  8
0
 10
277.656
 20
10.0078
 11
277.495
 21
10.1454
  0
LINE
  8
0
 10
277.495
 20
10.1454
 11
277.358
 21
10.3065
  0
LINE
  8
0
 10
277.358
 20
10.3065
 11
277.247
 21
10.4871
  0
LINE
  8
0
 10
277.247
 20
10.4871
 11
277.166
 21
10.6828
  0
LINE
  8
0
 10
277.166
 20
10.6828
 11
277.117
 21
10.8888
  0
LINE
  8
0
 10
277.117
 20
10.8888
 11
277.1
 21
11.1
  0
LINE
  8
0
 10
277.1
 20
11.1
 11
277.117
 21
11.3112
  0
LINE
  8
0
 10
277.117
 20
11.3112
 11
277.166
 21
11.5172
  0
LINE
  8
0
 10
277.166
 20
11.5172
 11
277.247
 21
11.7129
  0
LINE
  8
0
 10
277.247
 20
11.7129
 11
277.358
 21
11.8935
  0
LINE
  8
0
 10
277.358
 20
11.8935
 11
277.495
 21
12.0546
  0
LINE
  8
0
 10
277.495
 20
12.0546
 11
277.656
 21
12.1922
  0
LINE
  8
0
 10
277.656
 20
12.1922
 11
277.837
 21
12.3029
  0
LINE
  8
0
 10
277.837
 20
12.3029
 11
278.033
 21
12.3839
  0
LINE
  8
0
 10
278.033
 20
12.3839
 11
278.239
 21
12.4334
  0
LINE
  8
0
 10
278.239
 20
12.4334
 11
278.45
 21
12.45
  0
LINE
  8
0
 10
278.45
 20
12.45
 11
278.661
 21
12.4334
  0
LINE
  8
0
 10
278.661
 20
12.4334
 11
278.867
 21
12.3839
  0
LINE
  8
0
 10
278.867
 20
12.3839
 11
279.063
 21
12.3029
  0
LINE
  8
0
 10
279.063
 20
12.3029
 11
279.243
 21
12.1922
  0
LINE
  8
0
 10
279.243
 20
12.1922
 11
279.405
 21
12.0546
  0
LINE
  8
0
 10
279.405
 20
12.0546
 11
279.542
 21
11.8935
  0
LINE
  8
0
 10
279.542
 20
11.8935
 11
279.653
 21
11.7129
  0
LINE
  8
0
 10
279.653
 20
11.7129
 11
279.734
 21
11.5172
  0
LINE
  8
0
 10
279.734
 20
11.5172
 11
279.783
 21
11.3112
  0
LINE
  8
0
 10
279.783
 20
11.3112
 11
279.8
 21
11.1
  0
LINE
  8
0
 10
279.8
 20
11.1
 11
279.783
 21
10.8888
  0
LINE
  8
0
 10
279.783
 20
10.8888
 11
279.734
 21
10.6828
  0
LINE
  8
0
 10
279.734
 20
10.6828
 11
279.653
 21
10.4871
  0
LINE
  8
0
 10
279.653
 20
10.4871
 11
279.542
 21
10.3065
  0
LINE
  8
0
 10
279.542
 20
10.3065
 11
279.405
 21
10.1454
  0
LINE
  8
0
 10
279.405
 20
10.1454
 11
279.243
 21
10.0078
  0
LINE
  8
0
 10
279.243
 20
10.0078
 11
279.063
 21
9.89714
  0
LINE
  8
0
 10
279.063
 20
9.89714
 11
278.867
 21
9.81607
  0
LINE
  8
0
 10
278.867
 20
9.81607
 11
278.661
 21
9.76662
  0
LINE
  8
0
 10
278.661
 20
9.76662
 11
278.45
 21
9.75
  0
LINE
  8
0
 10
278.45
 20
9.75
 11
278.239
 21
9.76662
  0
ENDSEC
  0
SECTION
  2
OBJECTS
  0
DICTIONARY
  0
ENDSEC
  0
EOF
