  0
SECTION
  2
BLOCKS
  0
ENDSEC
  0
SECTION
  2
ENTITIES
  0
LINE
  8
0
 10
131.555
 20
34.0534
 11
130.877
 21
34.3342
  0
LINE
  8
0
 10
130.877
 20
34.3342
 11
130.252
 21
34.7175
  0
LINE
  8
0
 10
130.252
 20
34.7175
 11
129.694
 21
35.194
  0
LINE
  8
0
 10
129.694
 20
35.194
 11
129.217
 21
35.7518
  0
LINE
  8
0
 10
129.217
 20
35.7518
 11
128.834
 21
36.3774
  0
LINE
  8
0
 10
128.834
 20
36.3774
 11
128.553
 21
37.0552
  0
LINE
  8
0
 10
128.553
 20
37.0552
 11
128.382
 21
37.7686
  0
LINE
  8
0
 10
128.382
 20
37.7686
 11
128.325
 21
38.5
  0
LINE
  8
0
 10
128.325
 20
38.5
 11
128.382
 21
39.2314
  0
LINE
  8
0
 10
128.382
 20
39.2314
 11
130.037
 21
47.1693
  0
LINE
  8
0
 10
130.037
 20
47.1693
 11
130.147
 21
47.627
  0
LINE
  8
0
 10
130.147
 20
47.627
 11
130.327
 21
48.062
  0
LINE
  8
0
 10
130.327
 20
48.062
 11
130.573
 21
48.4633
  0
LINE
  8
0
 10
130.573
 20
48.4633
 11
130.879
 21
48.8213
  0
LINE
  8
0
 10
130.879
 20
48.8213
 11
131.237
 21
49.127
  0
LINE
  8
0
 10
131.237
 20
49.127
 11
131.638
 21
49.373
  0
LINE
  8
0
 10
131.638
 20
49.373
 11
131.945
 21
49.5
  0
LINE
  8
0
 10
131.945
 20
49.5
 11
24.3554
 21
49.5
  0
LINE
  8
0
 10
24.3554
 20
49.5
 11
24.662
 21
49.373
  0
LINE
  8
0
 10
24.662
 20
49.373
 11
25.0634
 21
49.127
  0
LINE
  8
0
 10
25.0634
 20
49.127
 11
25.4213
 21
48.8213
  0
LINE
  8
0
 10
25.4213
 20
48.8213
 11
25.7271
 21
48.4633
  0
LINE
  8
0
 10
25.7271
 20
48.4633
 11
25.973
 21
48.062
  0
LINE
  8
0
 10
25.973
 20
48.062
 11
26.1532
 21
47.627
  0
LINE
  8
0
 10
26.1532
 20
47.627
 11
26.2631
 21
47.1693
  0
LINE
  8
0
 10
26.2631
 20
47.1693
 11
26.3
 21
46.7
  0
LINE
  8
0
 10
26.3
 20
46.7
 11
26.2631
 21
46.2307
  0
LINE
  8
0
 10
26.2631
 20
46.2307
 11
26.1532
 21
45.7729
  0
LINE
  8
0
 10
26.1532
 20
45.7729
 11
25.973
 21
45.338
  0
LINE
  8
0
 10
25.973
 20
45.338
 11
25.7271
 21
44.9366
  0
LINE
  8
0
 10
25.7271
 20
44.9366
 11
25.653
 21
44.85
  0
LINE
  8
0
 10
25.653
 20
44.85
 11
28.89
 21
44.85
  0
LINE
  8
0
 10
28.89
 20
44.85
 11
28.89
 21
39.55
  0
LINE
  8
0
 10
28.89
 20
39.55
 11
20.29
 21
39.55
  0
LINE
  8
0
 10
20.29
 20
39.55
 11
20.29
 21
44.85
  0
LINE
  8
0
 10
20.29
 20
44.85
 11
20.9469
 21
44.85
  0
LINE
  8
0
 10
20.9469
 20
44.85
 11
20.8729
 21
44.9366
  0
LINE
  8
0
 10
20.8729
 20
44.9366
 11
20.627
 21
45.338
  0
LINE
  8
0
 10
20.627
 20
45.338
 11
20.4468
 21
45.7729
  0
LINE
  8
0
 10
20.4468
 20
45.7729
 11
20.3369
 21
46.2307
  0
LINE
  8
0
 10
20.3369
 20
46.2307
 11
20.3
 21
46.7
  0
LINE
  8
0
 10
20.3
 20
46.7
 11
20.3369
 21
47.1693
  0
LINE
  8
0
 10
20.3369
 20
47.1693
 11
20.4468
 21
47.627
  0
LINE
  8
0
 10
20.4468
 20
47.627
 11
20.627
 21
48.062
  0
LINE
  8
0
 10
20.627
 20
48.062
 11
20.8729
 21
48.4633
  0
LINE
  8
0
 10
20.8729
 20
48.4633
 11
21.1787
 21
48.8213
  0
LINE
  8
0
 10
21.1787
 20
48.8213
 11
21.5366
 21
49.127
  0
LINE
  8
0
 10
21.5366
 20
49.127
 11
21.938
 21
49.373
  0
LINE
  8
0
 10
21.938
 20
49.373
 11
22.2446
 21
49.5
  0
LINE
  8
0
 10
22.2446
 20
49.5
 11
7.5
 21
49.5
  0
LINE
  8
0
 10
7.5
 20
49.5
 11
7.5
 21
7.5
  0
LINE
  8
0
 10
7.5
 20
7.5
 11
22.2446
 21
7.5
  0
LINE
  8
0
 10
22.2446
 20
7.5
 11
21.938
 21
7.62697
  0
LINE
  8
0
 10
21.938
 20
7.62697
 11
21.5366
 21
7.87294
  0
LINE
  8
0
 10
21.5366
 20
7.87294
 11
21.1787
 21
8.17867
  0
LINE
  8
0
 10
21.1787
 20
8.17867
 11
20.8729
 21
8.53664
  0
LINE
  8
0
 10
20.8729
 20
8.53664
 11
20.627
 21
8.93802
  0
LINE
  8
0
 10
20.627
 20
8.93802
 11
20.4468
 21
9.37294
  0
LINE
  8
0
 10
20.4468
 20
9.37294
 11
20.3369
 21
9.83069
  0
LINE
  8
0
 10
20.3369
 20
9.83069
 11
20.3
 21
10.3
  0
LINE
  8
0
 10
20.3
 20
10.3
 11
20.3369
 21
10.7693
  0
LINE
  8
0
 10
20.3369
 20
10.7693
 11
20.4468
 21
11.2271
  0
LINE
  8
0
 10
20.4468
 20
11.2271
 11
20.627
 21
11.662
  0
LINE
  8
0
 10
20.627
 20
11.662
 11
20.8729
 21
12.0634
  0
LINE
  8
0
 10
20.8729
 20
12.0634
 11
21.1787
 21
12.4213
  0
LINE
  8
0
 10
21.1787
 20
12.4213
 11
21.5366
 21
12.7271
  0
LINE
  8
0
 10
21.5366
 20
12.7271
 11
21.938
 21
12.973
  0
LINE
  8
0
 10
21.938
 20
12.973
 11
22.3729
 21
13.1532
  0
LINE
  8
0
 10
22.3729
 20
13.1532
 11
22.8307
 21
13.2631
  0
LINE
  8
0
 10
22.8307
 20
13.2631
 11
23.3
 21
13.3
  0
LINE
  8
0
 10
23.3
 20
13.3
 11
23.7693
 21
13.2631
  0
LINE
  8
0
 10
23.7693
 20
13.2631
 11
24.2271
 21
13.1532
  0
LINE
  8
0
 10
24.2271
 20
13.1532
 11
24.662
 21
12.973
  0
LINE
  8
0
 10
24.662
 20
12.973
 11
25.0634
 21
12.7271
  0
LINE
  8
0
 10
25.0634
 20
12.7271
 11
25.4213
 21
12.4213
  0
LINE
  8
0
 10
25.4213
 20
12.4213
 11
25.7271
 21
12.0634
  0
LINE
  8
0
 10
25.7271
 20
12.0634
 11
25.973
 21
11.662
  0
LINE
  8
0
 10
25.973
 20
11.662
 11
26.1532
 21
11.2271
  0
LINE
  8
0
 10
26.1532
 20
11.2271
 11
26.2631
 21
10.7693
  0
LINE
  8
0
 10
26.2631
 20
10.7693
 11
26.3
 21
10.3
  0
LINE
  8
0
 10
26.3
 20
10.3
 11
26.2631
 21
9.83069
  0
LINE
  8
0
 10
26.2631
 20
9.83069
 11
26.1532
 21
9.37294
  0
LINE
  8
0
 10
26.1532
 20
9.37294
 11
25.973
 21
8.93802
  0
LINE
  8
0
 10
25.973
 20
8.93802
 11
25.7271
 21
8.53664
  0
LINE
  8
0
 10
25.7271
 20
8.53664
 11
25.4213
 21
8.17867
  0
LINE
  8
0
 10
25.4213
 20
8.17867
 11
25.0634
 21
7.87294
  0
LINE
  8
0
 10
25.0634
 20
7.87294
 11
24.662
 21
7.62697
  0
LINE
  8
0
 10
24.662
 20
7.62697
 11
24.3554
 21
7.5
  0
LINE
  8
0
 10
24.3554
 20
7.5
 11
131.945
 21
7.5
  0
LINE
  8
0
 10
131.945
 20
7.5
 11
131.638
 21
7.62697
  0
LINE
  8
0
 10
131.638
 20
7.62697
 11
131.237
 21
7.87294
  0
LINE
  8
0
 10
131.237
 20
7.87294
 11
130.879
 21
8.17867
  0
LINE
  8
0
 10
130.879
 20
8.17867
 11
130.573
 21
8.53664
  0
LINE
  8
0
 10
130.573
 20
8.53664
 11
130.327
 21
8.93802
  0
LINE
  8
0
 10
130.327
 20
8.93802
 11
130.147
 21
9.37294
  0
LINE
  8
0
 10
130.147
 20
9.37294
 11
130.037
 21
9.83069
  0
LINE
  8
0
 10
130.037
 20
9.83069
 11
128.382
 21
17.7686
  0
LINE
  8
0
 10
128.382
 20
17.7686
 11
128.325
 21
18.5
  0
LINE
  8
0
 10
128.325
 20
18.5
 11
128.382
 21
19.2314
  0
LINE
  8
0
 10
128.382
 20
19.2314
 11
128.553
 21
19.9448
  0
LINE
  8
0
 10
128.553
 20
19.9448
 11
128.834
 21
20.6226
  0
LINE
  8
0
 10
128.834
 20
20.6226
 11
129.217
 21
21.2481
  0
LINE
  8
0
 10
129.217
 20
21.2481
 11
129.694
 21
21.806
  0
LINE
  8
0
 10
129.694
 20
21.806
 11
130.252
 21
22.2825
  0
LINE
  8
0
 10
130.252
 20
22.2825
 11
130.877
 21
22.6658
  0
LINE
  8
0
 10
130.877
 20
22.6658
 11
131.555
 21
22.9466
  0
LINE
  8
0
 10
131.555
 20
22.9466
 11
132.269
 21
23.1179
  0
LINE
  8
0
 10
132.269
 20
23.1179
 11
133
 21
23.1754
  0
LINE
  8
0
 10
133
 20
23.1754
 11
133.731
 21
23.1179
  0
LINE
  8
0
 10
133.731
 20
23.1179
 11
134.445
 21
22.9466
  0
LINE
  8
0
 10
134.445
 20
22.9466
 11
135.123
 21
22.6658
  0
LINE
  8
0
 10
135.123
 20
22.6658
 11
135.748
 21
22.2825
  0
LINE
  8
0
 10
135.748
 20
22.2825
 11
136.306
 21
21.806
  0
LINE
  8
0
 10
136.306
 20
21.806
 11
136.782
 21
21.2481
  0
LINE
  8
0
 10
136.782
 20
21.2481
 11
137.166
 21
20.6226
  0
LINE
  8
0
 10
137.166
 20
20.6226
 11
137.447
 21
19.9448
  0
LINE
  8
0
 10
137.447
 20
19.9448
 11
137.618
 21
19.2314
  0
LINE
  8
0
 10
137.618
 20
19.2314
 11
137.675
 21
18.5
  0
LINE
  8
0
 10
137.675
 20
18.5
 11
137.618
 21
17.7686
  0
LINE
  8
0
 10
137.618
 20
17.7686
 11
135.963
 21
9.83069
  0
LINE
  8
0
 10
135.963
 20
9.83069
 11
135.853
 21
9.37294
  0
LINE
  8
0
 10
135.853
 20
9.37294
 11
135.673
 21
8.93802
  0
LINE
  8
0
 10
135.673
 20
8.93802
 11
135.427
 21
8.53664
  0
LINE
  8
0
 10
135.427
 20
8.53664
 11
135.121
 21
8.17867
  0
LINE
  8
0
 10
135.121
 20
8.17867
 11
134.763
 21
7.87294
  0
LINE
  8
0
 10
134.763
 20
7.87294
 11
134.362
 21
7.62697
  0
LINE
  8
0
 10
134.362
 20
7.62697
 11
134.055
 21
7.5
  0
LINE
  8
0
 10
134.055
 20
7.5
 11
251.1
 21
7.5
  0
LINE
  8
0
 10
251.1
 20
7.5
 11
251.1
 21
9
  0
LINE
  8
0
 10
251.1
 20
9
 11
252.901
 21
9
  0
LINE
  8
0
 10
252.901
 20
9
 11
252.747
 21
9.37294
  0
LINE
  8
0
 10
252.747
 20
9.37294
 11
252.637
 21
9.83069
  0
LINE
  8
0
 10
252.637
 20
9.83069
 11
252.6
 21
10.3
  0
LINE
  8
0
 10
252.6
 20
10.3
 11
252.637
 21
10.7693
  0
LINE
  8
0
 10
252.637
 20
10.7693
 11
252.747
 21
11.2271
  0
LINE
  8
0
 10
252.747
 20
11.2271
 11
252.927
 21
11.662
  0
LINE
  8
0
 10
252.927
 20
11.662
 11
253.173
 21
12.0634
  0
LINE
  8
0
 10
253.173
 20
12.0634
 11
253.479
 21
12.4213
  0
LINE
  8
0
 10
253.479
 20
12.4213
 11
253.837
 21
12.7271
  0
LINE
  8
0
 10
253.837
 20
12.7271
 11
254.238
 21
12.973
  0
LINE
  8
0
 10
254.238
 20
12.973
 11
254.673
 21
13.1532
  0
LINE
  8
0
 10
254.673
 20
13.1532
 11
255.131
 21
13.2631
  0
LINE
  8
0
 10
255.131
 20
13.2631
 11
255.6
 21
13.3
  0
LINE
  8
0
 10
255.6
 20
13.3
 11
256.069
 21
13.2631
  0
LINE
  8
0
 10
256.069
 20
13.2631
 11
256.527
 21
13.1532
  0
LINE
  8
0
 10
256.527
 20
13.1532
 11
256.962
 21
12.973
  0
LINE
  8
0
 10
256.962
 20
12.973
 11
257.363
 21
12.7271
  0
LINE
  8
0
 10
257.363
 20
12.7271
 11
257.721
 21
12.4213
  0
LINE
  8
0
 10
257.721
 20
12.4213
 11
258.027
 21
12.0634
  0
LINE
  8
0
 10
258.027
 20
12.0634
 11
258.273
 21
11.662
  0
LINE
  8
0
 10
258.273
 20
11.662
 11
258.453
 21
11.2271
  0
LINE
  8
0
 10
258.453
 20
11.2271
 11
258.563
 21
10.7693
  0
LINE
  8
0
 10
258.563
 20
10.7693
 11
258.6
 21
10.3
  0
LINE
  8
0
 10
258.6
 20
10.3
 11
258.563
 21
9.83069
  0
LINE
  8
0
 10
258.563
 20
9.83069
 11
258.453
 21
9.37294
  0
LINE
  8
0
 10
258.453
 20
9.37294
 11
258.299
 21
9
  0
LINE
  8
0
 10
258.299
 20
9
 11
303.3
 21
9
  0
LINE
  8
0
 10
303.3
 20
9
 11
303.3
 21
34
  0
LINE
  8
0
 10
303.3
 20
34
 11
251.1
 21
34
  0
LINE
  8
0
 10
251.1
 20
34
 11
251.1
 21
49.5
  0
LINE
  8
0
 10
251.1
 20
49.5
 11
134.055
 21
49.5
  0
LINE
  8
0
 10
134.055
 20
49.5
 11
134.362
 21
49.373
  0
LINE
  8
0
 10
134.362
 20
49.373
 11
134.763
 21
49.127
  0
LINE
  8
0
 10
134.763
 20
49.127
 11
135.121
 21
48.8213
  0
LINE
  8
0
 10
135.121
 20
48.8213
 11
135.427
 21
48.4633
  0
LINE
  8
0
 10
135.427
 20
48.4633
 11
135.673
 21
48.062
  0
LINE
  8
0
 10
135.673
 20
48.062
 11
135.853
 21
47.627
  0
LINE
  8
0
 10
135.853
 20
47.627
 11
135.963
 21
47.1693
  0
LINE
  8
0
 10
135.963
 20
47.1693
 11
137.618
 21
39.2314
  0
LINE
  8
0
 10
137.618
 20
39.2314
 11
137.675
 21
38.5
  0
LINE
  8
0
 10
137.675
 20
38.5
 11
137.618
 21
37.7686
  0
LINE
  8
0
 10
137.618
 20
37.7686
 11
137.447
 21
37.0552
  0
LINE
  8
0
 10
137.447
 20
37.0552
 11
137.166
 21
36.3774
  0
LINE
  8
0
 10
137.166
 20
36.3774
 11
136.782
 21
35.7518
  0
LINE
  8
0
 10
136.782
 20
35.7518
 11
136.306
 21
35.194
  0
LINE
  8
0
 10
136.306
 20
35.194
 11
135.748
 21
34.7175
  0
LINE
  8
0
 10
135.748
 20
34.7175
 11
135.123
 21
34.3342
  0
LINE
  8
0
 10
135.123
 20
34.3342
 11
134.445
 21
34.0534
  0
LINE
  8
0
 10
134.445
 20
34.0534
 11
133.731
 21
33.8821
  0
LINE
  8
0
 10
133.731
 20
33.8821
 11
133
 21
33.8246
  0
LINE
  8
0
 10
133
 20
33.8246
 11
132.269
 21
33.8821
  0
LINE
  8
0
 10
132.269
 20
33.8821
 11
131.555
 21
34.0534
  0
LINE
  8
0
 10
246.889
 20
44.1666
 11
246.683
 21
44.2161
  0
LINE
  8
0
 10
246.683
 20
44.2161
 11
246.487
 21
44.2971
  0
LINE
  8
0
 10
246.487
 20
44.2971
 11
246.306
 21
44.4078
  0
LINE
  8
0
 10
246.306
 20
44.4078
 11
246.145
 21
44.5454
  0
LINE
  8
0
 10
246.145
 20
44.5454
 11
246.008
 21
44.7065
  0
LINE
  8
0
 10
246.008
 20
44.7065
 11
245.897
 21
44.8871
  0
LINE
  8
0
 10
245.897
 20
44.8871
 11
245.816
 21
45.0828
  0
LINE
  8
0
 10
245.816
 20
45.0828
 11
245.767
 21
45.2888
  0
LINE
  8
0
 10
245.767
 20
45.2888
 11
245.75
 21
45.5
  0
LINE
  8
0
 10
245.75
 20
45.5
 11
245.767
 21
45.7112
  0
LINE
  8
0
 10
245.767
 20
45.7112
 11
245.816
 21
45.9172
  0
LINE
  8
0
 10
245.816
 20
45.9172
 11
245.897
 21
46.1129
  0
LINE
  8
0
 10
245.897
 20
46.1129
 11
246.008
 21
46.2935
  0
LINE
  8
0
 10
246.008
 20
46.2935
 11
246.145
 21
46.4546
  0
LINE
  8
0
 10
246.145
 20
46.4546
 11
246.306
 21
46.5922
  0
LINE
  8
0
 10
246.306
 20
46.5922
 11
246.487
 21
46.7029
  0
LINE
  8
0
 10
246.487
 20
46.7029
 11
246.683
 21
46.7839
  0
LINE
  8
0
 10
246.683
 20
46.7839
 11
246.889
 21
46.8334
  0
LINE
  8
0
 10
246.889
 20
46.8334
 11
247.1
 21
46.85
  0
LINE
  8
0
 10
247.1
 20
46.85
 11
247.311
 21
46.8334
  0
LINE
  8
0
 10
247.311
 20
46.8334
 11
247.517
 21
46.7839
  0
LINE
  8
0
 10
247.517
 20
46.7839
 11
247.713
 21
46.7029
  0
LINE
  8
0
 10
247.713
 20
46.7029
 11
247.894
 21
46.5922
  0
LINE
  8
0
 10
247.894
 20
46.5922
 11
248.055
 21
46.4546
  0
LINE
  8
0
 10
248.055
 20
46.4546
 11
248.192
 21
46.2935
  0
LINE
  8
0
 10
248.192
 20
46.2935
 11
248.303
 21
46.1129
  0
LINE
  8
0
 10
248.303
 20
46.1129
 11
248.384
 21
45.9172
  0
LINE
  8
0
 10
248.384
 20
45.9172
 11
248.433
 21
45.7112
  0
LINE
  8
0
 10
248.433
 20
45.7112
 11
248.45
 21
45.5
  0
LINE
  8
0
 10
248.45
 20
45.5
 11
248.433
 21
45.2888
  0
LINE
  8
0
 10
248.433
 20
45.2888
 11
248.384
 21
45.0828
  0
LINE
  8
0
 10
248.384
 20
45.0828
 11
248.303
 21
44.8871
  0
LINE
  8
0
 10
248.303
 20
44.8871
 11
248.192
 21
44.7065
  0
LINE
  8
0
 10
248.192
 20
44.7065
 11
248.055
 21
44.5454
  0
LINE
  8
0
 10
248.055
 20
44.5454
 11
247.894
 21
44.4078
  0
LINE
  8
0
 10
247.894
 20
44.4078
 11
247.713
 21
44.2971
  0
LINE
  8
0
 10
247.713
 20
44.2971
 11
247.517
 21
44.2161
  0
LINE
  8
0
 10
247.517
 20
44.2161
 11
247.311
 21
44.1666
  0
LINE
  8
0
 10
247.311
 20
44.1666
 11
247.1
 21
44.15
  0
LINE
  8
0
 10
247.1
 20
44.15
 11
246.889
 21
44.1666
  0
LINE
  8
0
 10
210.839
 20
44.1666
 11
210.633
 21
44.2161
  0
LINE
  8
0
 10
210.633
 20
44.2161
 11
210.437
 21
44.2971
  0
LINE
  8
0
 10
210.437
 20
44.2971
 11
210.256
 21
44.4078
  0
LINE
  8
0
 10
210.256
 20
44.4078
 11
210.095
 21
44.5454
  0
LINE
  8
0
 10
210.095
 20
44.5454
 11
209.958
 21
44.7065
  0
LINE
  8
0
 10
209.958
 20
44.7065
 11
209.847
 21
44.8871
  0
LINE
  8
0
 10
209.847
 20
44.8871
 11
209.766
 21
45.0828
  0
LINE
  8
0
 10
209.766
 20
45.0828
 11
209.717
 21
45.2888
  0
LINE
  8
0
 10
209.717
 20
45.2888
 11
209.7
 21
45.5
  0
LINE
  8
0
 10
209.7
 20
45.5
 11
209.717
 21
45.7112
  0
LINE
  8
0
 10
209.717
 20
45.7112
 11
209.766
 21
45.9172
  0
LINE
  8
0
 10
209.766
 20
45.9172
 11
209.847
 21
46.1129
  0
LINE
  8
0
 10
209.847
 20
46.1129
 11
209.958
 21
46.2935
  0
LINE
  8
0
 10
209.958
 20
46.2935
 11
210.095
 21
46.4546
  0
LINE
  8
0
 10
210.095
 20
46.4546
 11
210.256
 21
46.5922
  0
LINE
  8
0
 10
210.256
 20
46.5922
 11
210.437
 21
46.7029
  0
LINE
  8
0
 10
210.437
 20
46.7029
 11
210.633
 21
46.7839
  0
LINE
  8
0
 10
210.633
 20
46.7839
 11
210.839
 21
46.8334
  0
LINE
  8
0
 10
210.839
 20
46.8334
 11
211.05
 21
46.85
  0
LINE
  8
0
 10
211.05
 20
46.85
 11
211.261
 21
46.8334
  0
LINE
  8
0
 10
211.261
 20
46.8334
 11
211.467
 21
46.7839
  0
LINE
  8
0
 10
211.467
 20
46.7839
 11
211.663
 21
46.7029
  0
LINE
  8
0
 10
211.663
 20
46.7029
 11
211.844
 21
46.5922
  0
LINE
  8
0
 10
211.844
 20
46.5922
 11
212.005
 21
46.4546
  0
LINE
  8
0
 10
212.005
 20
46.4546
 11
212.142
 21
46.2935
  0
LINE
  8
0
 10
212.142
 20
46.2935
 11
212.253
 21
46.1129
  0
LINE
  8
0
 10
212.253
 20
46.1129
 11
212.334
 21
45.9172
  0
LINE
  8
0
 10
212.334
 20
45.9172
 11
212.383
 21
45.7112
  0
LINE
  8
0
 10
212.383
 20
45.7112
 11
212.4
 21
45.5
  0
LINE
  8
0
 10
212.4
 20
45.5
 11
212.383
 21
45.2888
  0
LINE
  8
0
 10
212.383
 20
45.2888
 11
212.334
 21
45.0828
  0
LINE
  8
0
 10
212.334
 20
45.0828
 11
212.253
 21
44.8871
  0
LINE
  8
0
 10
212.253
 20
44.8871
 11
212.142
 21
44.7065
  0
LINE
  8
0
 10
212.142
 20
44.7065
 11
212.005
 21
44.5454
  0
LINE
  8
0
 10
212.005
 20
44.5454
 11
211.844
 21
44.4078
  0
LINE
  8
0
 10
211.844
 20
44.4078
 11
211.663
 21
44.2971
  0
LINE
  8
0
 10
211.663
 20
44.2971
 11
211.467
 21
44.2161
  0
LINE
  8
0
 10
211.467
 20
44.2161
 11
211.261
 21
44.1666
  0
LINE
  8
0
 10
211.261
 20
44.1666
 11
211.05
 21
44.15
  0
LINE
  8
0
 10
211.05
 20
44.15
 11
210.839
 21
44.1666
  0
LINE
  8
0
 10
11.2888
 20
10.1666
 11
11.0828
 21
10.2161
  0
LINE
  8
0
 10
11.0828
 20
10.2161
 11
10.8871
 21
10.2971
  0
LINE
  8
0
 10
10.8871
 20
10.2971
 11
10.7065
 21
10.4078
  0
LINE
  8
0
 10
10.7065
 20
10.4078
 11
10.5454
 21
10.5454
  0
LINE
  8
0
 10
10.5454
 20
10.5454
 11
10.4078
 21
10.7065
  0
LINE
  8
0
 10
10.4078
 20
10.7065
 11
10.2971
 21
10.8871
  0
LINE
  8
0
 10
10.2971
 20
10.8871
 11
10.2161
 21
11.0828
  0
LINE
  8
0
 10
10.2161
 20
11.0828
 11
10.1666
 21
11.2888
  0
LINE
  8
0
 10
10.1666
 20
11.2888
 11
10.15
 21
11.5
  0
LINE
  8
0
 10
10.15
 20
11.5
 11
10.1666
 21
11.7112
  0
LINE
  8
0
 10
10.1666
 20
11.7112
 11
10.2161
 21
11.9172
  0
LINE
  8
0
 10
10.2161
 20
11.9172
 11
10.2971
 21
12.1129
  0
LINE
  8
0
 10
10.2971
 20
12.1129
 11
10.4078
 21
12.2935
  0
LINE
  8
0
 10
10.4078
 20
12.2935
 11
10.5454
 21
12.4546
  0
LINE
  8
0
 10
10.5454
 20
12.4546
 11
10.7065
 21
12.5922
  0
LINE
  8
0
 10
10.7065
 20
12.5922
 11
10.8871
 21
12.7029
  0
LINE
  8
0
 10
10.8871
 20
12.7029
 11
11.0828
 21
12.7839
  0
LINE
  8
0
 10
11.0828
 20
12.7839
 11
11.2888
 21
12.8334
  0
LINE
  8
0
 10
11.2888
 20
12.8334
 11
11.5
 21
12.85
  0
LINE
  8
0
 10
11.5
 20
12.85
 11
11.7112
 21
12.8334
  0
LINE
  8
0
 10
11.7112
 20
12.8334
 11
11.9172
 21
12.7839
  0
LINE
  8
0
 10
11.9172
 20
12.7839
 11
12.1129
 21
12.7029
  0
LINE
  8
0
 10
12.1129
 20
12.7029
 11
12.2935
 21
12.5922
  0
LINE
  8
0
 10
12.2935
 20
12.5922
 11
12.4546
 21
12.4546
  0
LINE
  8
0
 10
12.4546
 20
12.4546
 11
12.5922
 21
12.2935
  0
LINE
  8
0
 10
12.5922
 20
12.2935
 11
12.7029
 21
12.1129
  0
LINE
  8
0
 10
12.7029
 20
12.1129
 11
12.7839
 21
11.9172
  0
LINE
  8
0
 10
12.7839
 20
11.9172
 11
12.8334
 21
11.7112
  0
LINE
  8
0
 10
12.8334
 20
11.7112
 11
12.85
 21
11.5
  0
LINE
  8
0
 10
12.85
 20
11.5
 11
12.8334
 21
11.2888
  0
LINE
  8
0
 10
12.8334
 20
11.2888
 11
12.7839
 21
11.0828
  0
LINE
  8
0
 10
12.7839
 20
11.0828
 11
12.7029
 21
10.8871
  0
LINE
  8
0
 10
12.7029
 20
10.8871
 11
12.5922
 21
10.7065
  0
LINE
  8
0
 10
12.5922
 20
10.7065
 11
12.4546
 21
10.5454
  0
LINE
  8
0
 10
12.4546
 20
10.5454
 11
12.2935
 21
10.4078
  0
LINE
  8
0
 10
12.2935
 20
10.4078
 11
12.1129
 21
10.2971
  0
LINE
  8
0
 10
12.1129
 20
10.2971
 11
11.9172
 21
10.2161
  0
LINE
  8
0
 10
11.9172
 20
10.2161
 11
11.7112
 21
10.1666
  0
LINE
  8
0
 10
11.7112
 20
10.1666
 11
11.5
 21
10.15
  0
LINE
  8
0
 10
11.5
 20
10.15
 11
11.2888
 21
10.1666
  0
LINE
  8
0
 10
69.7888
 20
10.1666
 11
69.5828
 21
10.2161
  0
LINE
  8
0
 10
69.5828
 20
10.2161
 11
69.3871
 21
10.2971
  0
LINE
  8
0
 10
69.3871
 20
10.2971
 11
69.2065
 21
10.4078
  0
LINE
  8
0
 10
69.2065
 20
10.4078
 11
69.0454
 21
10.5454
  0
LINE
  8
0
 10
69.0454
 20
10.5454
 11
68.9078
 21
10.7065
  0
LINE
  8
0
 10
68.9078
 20
10.7065
 11
68.7971
 21
10.8871
  0
LINE
  8
0
 10
68.7971
 20
10.8871
 11
68.7161
 21
11.0828
  0
LINE
  8
0
 10
68.7161
 20
11.0828
 11
68.6666
 21
11.2888
  0
LINE
  8
0
 10
68.6666
 20
11.2888
 11
68.65
 21
11.5
  0
LINE
  8
0
 10
68.65
 20
11.5
 11
68.6666
 21
11.7112
  0
LINE
  8
0
 10
68.6666
 20
11.7112
 11
68.7161
 21
11.9172
  0
LINE
  8
0
 10
68.7161
 20
11.9172
 11
68.7971
 21
12.1129
  0
LINE
  8
0
 10
68.7971
 20
12.1129
 11
68.9078
 21
12.2935
  0
LINE
  8
0
 10
68.9078
 20
12.2935
 11
69.0454
 21
12.4546
  0
LINE
  8
0
 10
69.0454
 20
12.4546
 11
69.2065
 21
12.5922
  0
LINE
  8
0
 10
69.2065
 20
12.5922
 11
69.3871
 21
12.7029
  0
LINE
  8
0
 10
69.3871
 20
12.7029
 11
69.5828
 21
12.7839
  0
LINE
  8
0
 10
69.5828
 20
12.7839
 11
69.7888
 21
12.8334
  0
LINE
  8
0
 10
69.7888
 20
12.8334
 11
70
 21
12.85
  0
LINE
  8
0
 10
70
 20
12.85
 11
70.2112
 21
12.8334
  0
LINE
  8
0
 10
70.2112
 20
12.8334
 11
70.4172
 21
12.7839
  0
LINE
  8
0
 10
70.4172
 20
12.7839
 11
70.6129
 21
12.7029
  0
LINE
  8
0
 10
70.6129
 20
12.7029
 11
70.7935
 21
12.5922
  0
LINE
  8
0
 10
70.7935
 20
12.5922
 11
70.9546
 21
12.4546
  0
LINE
  8
0
 10
70.9546
 20
12.4546
 11
71.0922
 21
12.2935
  0
LINE
  8
0
 10
71.0922
 20
12.2935
 11
71.2029
 21
12.1129
  0
LINE
  8
0
 10
71.2029
 20
12.1129
 11
71.2839
 21
11.9172
  0
LINE
  8
0
 10
71.2839
 20
11.9172
 11
71.3334
 21
11.7112
  0
LINE
  8
0
 10
71.3334
 20
11.7112
 11
71.35
 21
11.5
  0
LINE
  8
0
 10
71.35
 20
11.5
 11
71.3334
 21
11.2888
  0
LINE
  8
0
 10
71.3334
 20
11.2888
 11
71.2839
 21
11.0828
  0
LINE
  8
0
 10
71.2839
 20
11.0828
 11
71.2029
 21
10.8871
  0
LINE
  8
0
 10
71.2029
 20
10.8871
 11
71.0922
 21
10.7065
  0
LINE
  8
0
 10
71.0922
 20
10.7065
 11
70.9546
 21
10.5454
  0
LINE
  8
0
 10
70.9546
 20
10.5454
 11
70.7935
 21
10.4078
  0
LINE
  8
0
 10
70.7935
 20
10.4078
 11
70.6129
 21
10.2971
  0
LINE
  8
0
 10
70.6129
 20
10.2971
 11
70.4172
 21
10.2161
  0
LINE
  8
0
 10
70.4172
 20
10.2161
 11
70.2112
 21
10.1666
  0
LINE
  8
0
 10
70.2112
 20
10.1666
 11
70
 21
10.15
  0
LINE
  8
0
 10
70
 20
10.15
 11
69.7888
 21
10.1666
  0
LINE
  8
0
 10
177.789
 20
10.1666
 11
177.583
 21
10.2161
  0
LINE
  8
0
 10
177.583
 20
10.2161
 11
177.387
 21
10.2971
  0
LINE
  8
0
 10
177.387
 20
10.2971
 11
177.206
 21
10.4078
  0
LINE
  8
0
 10
177.206
 20
10.4078
 11
177.045
 21
10.5454
  0
LINE
  8
0
 10
177.045
 20
10.5454
 11
176.908
 21
10.7065
  0
LINE
  8
0
 10
176.908
 20
10.7065
 11
176.797
 21
10.8871
  0
LINE
  8
0
 10
176.797
 20
10.8871
 11
176.716
 21
11.0828
  0
LINE
  8
0
 10
176.716
 20
11.0828
 11
176.667
 21
11.2888
  0
LINE
  8
0
 10
176.667
 20
11.2888
 11
176.65
 21
11.5
  0
LINE
  8
0
 10
176.65
 20
11.5
 11
176.667
 21
11.7112
  0
LINE
  8
0
 10
176.667
 20
11.7112
 11
176.716
 21
11.9172
  0
LINE
  8
0
 10
176.716
 20
11.9172
 11
176.797
 21
12.1129
  0
LINE
  8
0
 10
176.797
 20
12.1129
 11
176.908
 21
12.2935
  0
LINE
  8
0
 10
176.908
 20
12.2935
 11
177.045
 21
12.4546
  0
LINE
  8
0
 10
177.045
 20
12.4546
 11
177.206
 21
12.5922
  0
LINE
  8
0
 10
177.206
 20
12.5922
 11
177.387
 21
12.7029
  0
LINE
  8
0
 10
177.387
 20
12.7029
 11
177.583
 21
12.7839
  0
LINE
  8
0
 10
177.583
 20
12.7839
 11
177.789
 21
12.8334
  0
LINE
  8
0
 10
177.789
 20
12.8334
 11
178
 21
12.85
  0
LINE
  8
0
 10
178
 20
12.85
 11
178.211
 21
12.8334
  0
LINE
  8
0
 10
178.211
 20
12.8334
 11
178.417
 21
12.7839
  0
LINE
  8
0
 10
178.417
 20
12.7839
 11
178.613
 21
12.7029
  0
LINE
  8
0
 10
178.613
 20
12.7029
 11
178.794
 21
12.5922
  0
LINE
  8
0
 10
178.794
 20
12.5922
 11
178.955
 21
12.4546
  0
LINE
  8
0
 10
178.955
 20
12.4546
 11
179.092
 21
12.2935
  0
LINE
  8
0
 10
179.092
 20
12.2935
 11
179.203
 21
12.1129
  0
LINE
  8
0
 10
179.203
 20
12.1129
 11
179.284
 21
11.9172
  0
LINE
  8
0
 10
179.284
 20
11.9172
 11
179.333
 21
11.7112
  0
LINE
  8
0
 10
179.333
 20
11.7112
 11
179.35
 21
11.5
  0
LINE
  8
0
 10
179.35
 20
11.5
 11
179.333
 21
11.2888
  0
LINE
  8
0
 10
179.333
 20
11.2888
 11
179.284
 21
11.0828
  0
LINE
  8
0
 10
179.284
 20
11.0828
 11
179.203
 21
10.8871
  0
LINE
  8
0
 10
179.203
 20
10.8871
 11
179.092
 21
10.7065
  0
LINE
  8
0
 10
179.092
 20
10.7065
 11
178.955
 21
10.5454
  0
LINE
  8
0
 10
178.955
 20
10.5454
 11
178.794
 21
10.4078
  0
LINE
  8
0
 10
178.794
 20
10.4078
 11
178.613
 21
10.2971
  0
LINE
  8
0
 10
178.613
 20
10.2971
 11
178.417
 21
10.2161
  0
LINE
  8
0
 10
178.417
 20
10.2161
 11
178.211
 21
10.1666
  0
LINE
  8
0
 10
178.211
 20
10.1666
 11
178
 21
10.15
  0
LINE
  8
0
 10
178
 20
10.15
 11
177.789
 21
10.1666
  0
LINE
  8
0
 10
210.839
 20
10.1666
 11
210.633
 21
10.2161
  0
LINE
  8
0
 10
210.633
 20
10.2161
 11
210.437
 21
10.2971
  0
LINE
  8
0
 10
210.437
 20
10.2971
 11
210.256
 21
10.4078
  0
LINE
  8
0
 10
210.256
 20
10.4078
 11
210.095
 21
10.5454
  0
LINE
  8
0
 10
210.095
 20
10.5454
 11
209.958
 21
10.7065
  0
LINE
  8
0
 10
209.958
 20
10.7065
 11
209.847
 21
10.8871
  0
LINE
  8
0
 10
209.847
 20
10.8871
 11
209.766
 21
11.0828
  0
LINE
  8
0
 10
209.766
 20
11.0828
 11
209.717
 21
11.2888
  0
LINE
  8
0
 10
209.717
 20
11.2888
 11
209.7
 21
11.5
  0
LINE
  8
0
 10
209.7
 20
11.5
 11
209.717
 21
11.7112
  0
LINE
  8
0
 10
209.717
 20
11.7112
 11
209.766
 21
11.9172
  0
LINE
  8
0
 10
209.766
 20
11.9172
 11
209.847
 21
12.1129
  0
LINE
  8
0
 10
209.847
 20
12.1129
 11
209.958
 21
12.2935
  0
LINE
  8
0
 10
209.958
 20
12.2935
 11
210.095
 21
12.4546
  0
LINE
  8
0
 10
210.095
 20
12.4546
 11
210.256
 21
12.5922
  0
LINE
  8
0
 10
210.256
 20
12.5922
 11
210.437
 21
12.7029
  0
LINE
  8
0
 10
210.437
 20
12.7029
 11
210.633
 21
12.7839
  0
LINE
  8
0
 10
210.633
 20
12.7839
 11
210.839
 21
12.8334
  0
LINE
  8
0
 10
210.839
 20
12.8334
 11
211.05
 21
12.85
  0
LINE
  8
0
 10
211.05
 20
12.85
 11
211.261
 21
12.8334
  0
LINE
  8
0
 10
211.261
 20
12.8334
 11
211.467
 21
12.7839
  0
LINE
  8
0
 10
211.467
 20
12.7839
 11
211.663
 21
12.7029
  0
LINE
  8
0
 10
211.663
 20
12.7029
 11
211.844
 21
12.5922
  0
LINE
  8
0
 10
211.844
 20
12.5922
 11
212.005
 21
12.4546
  0
LINE
  8
0
 10
212.005
 20
12.4546
 11
212.142
 21
12.2935
  0
LINE
  8
0
 10
212.142
 20
12.2935
 11
212.253
 21
12.1129
  0
LINE
  8
0
 10
212.253
 20
12.1129
 11
212.334
 21
11.9172
  0
LINE
  8
0
 10
212.334
 20
11.9172
 11
212.383
 21
11.7112
  0
LINE
  8
0
 10
212.383
 20
11.7112
 11
212.4
 21
11.5
  0
LINE
  8
0
 10
212.4
 20
11.5
 11
212.383
 21
11.2888
  0
LINE
  8
0
 10
212.383
 20
11.2888
 11
212.334
 21
11.0828
  0
LINE
  8
0
 10
212.334
 20
11.0828
 11
212.253
 21
10.8871
  0
LINE
  8
0
 10
212.253
 20
10.8871
 11
212.142
 21
10.7065
  0
LINE
  8
0
 10
212.142
 20
10.7065
 11
212.005
 21
10.5454
  0
LINE
  8
0
 10
212.005
 20
10.5454
 11
211.844
 21
10.4078
  0
LINE
  8
0
 10
211.844
 20
10.4078
 11
211.663
 21
10.2971
  0
LINE
  8
0
 10
211.663
 20
10.2971
 11
211.467
 21
10.2161
  0
LINE
  8
0
 10
211.467
 20
10.2161
 11
211.261
 21
10.1666
  0
LINE
  8
0
 10
211.261
 20
10.1666
 11
211.05
 21
10.15
  0
LINE
  8
0
 10
211.05
 20
10.15
 11
210.839
 21
10.1666
  0
LINE
  8
0
 10
246.889
 20
10.1666
 11
246.683
 21
10.2161
  0
LINE
  8
0
 10
246.683
 20
10.2161
 11
246.487
 21
10.2971
  0
LINE
  8
0
 10
246.487
 20
10.2971
 11
246.306
 21
10.4078
  0
LINE
  8
0
 10
246.306
 20
10.4078
 11
246.145
 21
10.5454
  0
LINE
  8
0
 10
246.145
 20
10.5454
 11
246.008
 21
10.7065
  0
LINE
  8
0
 10
246.008
 20
10.7065
 11
245.897
 21
10.8871
  0
LINE
  8
0
 10
245.897
 20
10.8871
 11
245.816
 21
11.0828
  0
LINE
  8
0
 10
245.816
 20
11.0828
 11
245.767
 21
11.2888
  0
LINE
  8
0
 10
245.767
 20
11.2888
 11
245.75
 21
11.5
  0
LINE
  8
0
 10
245.75
 20
11.5
 11
245.767
 21
11.7112
  0
LINE
  8
0
 10
245.767
 20
11.7112
 11
245.816
 21
11.9172
  0
LINE
  8
0
 10
245.816
 20
11.9172
 11
245.897
 21
12.1129
  0
LINE
  8
0
 10
245.897
 20
12.1129
 11
246.008
 21
12.2935
  0
LINE
  8
0
 10
246.008
 20
12.2935
 11
246.145
 21
12.4546
  0
LINE
  8
0
 10
246.145
 20
12.4546
 11
246.306
 21
12.5922
  0
LINE
  8
0
 10
246.306
 20
12.5922
 11
246.487
 21
12.7029
  0
LINE
  8
0
 10
246.487
 20
12.7029
 11
246.683
 21
12.7839
  0
LINE
  8
0
 10
246.683
 20
12.7839
 11
246.889
 21
12.8334
  0
LINE
  8
0
 10
246.889
 20
12.8334
 11
247.1
 21
12.85
  0
LINE
  8
0
 10
247.1
 20
12.85
 11
247.311
 21
12.8334
  0
LINE
  8
0
 10
247.311
 20
12.8334
 11
247.517
 21
12.7839
  0
LINE
  8
0
 10
247.517
 20
12.7839
 11
247.713
 21
12.7029
  0
LINE
  8
0
 10
247.713
 20
12.7029
 11
247.894
 21
12.5922
  0
LINE
  8
0
 10
247.894
 20
12.5922
 11
248.055
 21
12.4546
  0
LINE
  8
0
 10
248.055
 20
12.4546
 11
248.192
 21
12.2935
  0
LINE
  8
0
 10
248.192
 20
12.2935
 11
248.303
 21
12.1129
  0
LINE
  8
0
 10
248.303
 20
12.1129
 11
248.384
 21
11.9172
  0
LINE
  8
0
 10
248.384
 20
11.9172
 11
248.433
 21
11.7112
  0
LINE
  8
0
 10
248.433
 20
11.7112
 11
248.45
 21
11.5
  0
LINE
  8
0
 10
248.45
 20
11.5
 11
248.433
 21
11.2888
  0
LINE
  8
0
 10
248.433
 20
11.2888
 11
248.384
 21
11.0828
  0
LINE
  8
0
 10
248.384
 20
11.0828
 11
248.303
 21
10.8871
  0
LINE
  8
0
 10
248.303
 20
10.8871
 11
248.192
 21
10.7065
  0
LINE
  8
0
 10
248.192
 20
10.7065
 11
248.055
 21
10.5454
  0
LINE
  8
0
 10
248.055
 20
10.5454
 11
247.894
 21
10.4078
  0
LINE
  8
0
 10
247.894
 20
10.4078
 11
247.713
 21
10.2971
  0
LINE
  8
0
 10
247.713
 20
10.2971
 11
247.517
 21
10.2161
  0
LINE
  8
0
 10
247.517
 20
10.2161
 11
247.311
 21
10.1666
  0
LINE
  8
0
 10
247.311
 20
10.1666
 11
247.1
 21
10.15
  0
LINE
  8
0
 10
247.1
 20
10.15
 11
246.889
 21
10.1666
  0
ENDSEC
  0
SECTION
  2
OBJECTS
  0
DICTIONARY
  0
ENDSEC
  0
EOF
