  0
SECTION
  2
BLOCKS
  0
ENDSEC
  0
SECTION
  2
ENTITIES
  0
LINE
  8
0
 10
296.035
 20
15.6185
 11
296.264
 21
15.6734
  0
LINE
  8
0
 10
296.264
 20
15.6734
 11
296.481
 21
15.7635
  0
LINE
  8
0
 10
296.481
 20
15.7635
 11
296.682
 21
15.8865
  0
LINE
  8
0
 10
296.682
 20
15.8865
 11
296.861
 21
16.0394
  0
LINE
  8
0
 10
296.861
 20
16.0394
 11
297.014
 21
16.2183
  0
LINE
  8
0
 10
297.014
 20
16.2183
 11
297.137
 21
16.419
  0
LINE
  8
0
 10
297.137
 20
16.419
 11
297.227
 21
16.6365
  0
LINE
  8
0
 10
297.227
 20
16.6365
 11
297.282
 21
16.8654
  0
LINE
  8
0
 10
297.282
 20
16.8654
 11
297.3
 21
17.1
  0
LINE
  8
0
 10
297.3
 20
17.1
 11
297.3
 21
39.9
  0
LINE
  8
0
 10
297.3
 20
39.9
 11
297.282
 21
40.1346
  0
LINE
  8
0
 10
297.282
 20
40.1346
 11
297.227
 21
40.3635
  0
LINE
  8
0
 10
297.227
 20
40.3635
 11
297.137
 21
40.581
  0
LINE
  8
0
 10
297.137
 20
40.581
 11
297.014
 21
40.7817
  0
LINE
  8
0
 10
297.014
 20
40.7817
 11
296.861
 21
40.9606
  0
LINE
  8
0
 10
296.861
 20
40.9606
 11
296.682
 21
41.1135
  0
LINE
  8
0
 10
296.682
 20
41.1135
 11
296.481
 21
41.2365
  0
LINE
  8
0
 10
296.481
 20
41.2365
 11
296.264
 21
41.3266
  0
LINE
  8
0
 10
296.264
 20
41.3266
 11
296.035
 21
41.3815
  0
LINE
  8
0
 10
296.035
 20
41.3815
 11
295.8
 21
41.4
  0
LINE
  8
0
 10
295.8
 20
41.4
 11
273
 21
41.4
  0
LINE
  8
0
 10
273
 20
41.4
 11
272.765
 21
41.3815
  0
LINE
  8
0
 10
272.765
 20
41.3815
 11
272.536
 21
41.3266
  0
LINE
  8
0
 10
272.536
 20
41.3266
 11
272.319
 21
41.2365
  0
LINE
  8
0
 10
272.319
 20
41.2365
 11
272.118
 21
41.1135
  0
LINE
  8
0
 10
272.118
 20
41.1135
 11
271.939
 21
40.9606
  0
LINE
  8
0
 10
271.939
 20
40.9606
 11
271.786
 21
40.7817
  0
LINE
  8
0
 10
271.786
 20
40.7817
 11
271.663
 21
40.581
  0
LINE
  8
0
 10
271.663
 20
40.581
 11
271.573
 21
40.3635
  0
LINE
  8
0
 10
271.573
 20
40.3635
 11
271.518
 21
40.1346
  0
LINE
  8
0
 10
271.518
 20
40.1346
 11
271.5
 21
39.9
  0
LINE
  8
0
 10
271.5
 20
39.9
 11
271.5
 21
17.1
  0
LINE
  8
0
 10
271.5
 20
17.1
 11
271.518
 21
16.8654
  0
LINE
  8
0
 10
271.518
 20
16.8654
 11
271.573
 21
16.6365
  0
LINE
  8
0
 10
271.573
 20
16.6365
 11
271.663
 21
16.419
  0
LINE
  8
0
 10
271.663
 20
16.419
 11
271.786
 21
16.2183
  0
LINE
  8
0
 10
271.786
 20
16.2183
 11
271.939
 21
16.0394
  0
LINE
  8
0
 10
271.939
 20
16.0394
 11
272.118
 21
15.8865
  0
LINE
  8
0
 10
272.118
 20
15.8865
 11
272.319
 21
15.7635
  0
LINE
  8
0
 10
272.319
 20
15.7635
 11
272.536
 21
15.6734
  0
LINE
  8
0
 10
272.536
 20
15.6734
 11
272.765
 21
15.6185
  0
LINE
  8
0
 10
272.765
 20
15.6185
 11
273
 21
15.6
  0
LINE
  8
0
 10
273
 20
15.6
 11
295.8
 21
15.6
  0
LINE
  8
0
 10
295.8
 20
15.6
 11
296.035
 21
15.6185
  0
ENDSEC
  0
SECTION
  2
OBJECTS
  0
DICTIONARY
  0
ENDSEC
  0
EOF
