  0
SECTION
  2
BLOCKS
  0
ENDSEC
  0
SECTION
  2
ENTITIES
  0
LINE
  8
0
 10
296.778
 20
15.6062
 11
296.855
 21
15.6245
  0
LINE
  8
0
 10
296.855
 20
15.6245
 11
296.927
 21
15.6545
  0
LINE
  8
0
 10
296.927
 20
15.6545
 11
296.994
 21
15.6955
  0
LINE
  8
0
 10
296.994
 20
15.6955
 11
297.054
 21
15.7465
  0
LINE
  8
0
 10
297.054
 20
15.7465
 11
297.105
 21
15.8061
  0
LINE
  8
0
 10
297.105
 20
15.8061
 11
297.146
 21
15.873
  0
LINE
  8
0
 10
297.146
 20
15.873
 11
297.176
 21
15.9455
  0
LINE
  8
0
 10
297.176
 20
15.9455
 11
297.194
 21
16.0218
  0
LINE
  8
0
 10
297.194
 20
16.0218
 11
297.2
 21
16.1
  0
LINE
  8
0
 10
297.2
 20
16.1
 11
297.2
 21
40.9
  0
LINE
  8
0
 10
297.2
 20
40.9
 11
297.194
 21
40.9782
  0
LINE
  8
0
 10
297.194
 20
40.9782
 11
297.176
 21
41.0545
  0
LINE
  8
0
 10
297.176
 20
41.0545
 11
297.146
 21
41.127
  0
LINE
  8
0
 10
297.146
 20
41.127
 11
297.105
 21
41.1939
  0
LINE
  8
0
 10
297.105
 20
41.1939
 11
297.054
 21
41.2535
  0
LINE
  8
0
 10
297.054
 20
41.2535
 11
296.994
 21
41.3045
  0
LINE
  8
0
 10
296.994
 20
41.3045
 11
296.927
 21
41.3455
  0
LINE
  8
0
 10
296.927
 20
41.3455
 11
296.855
 21
41.3755
  0
LINE
  8
0
 10
296.855
 20
41.3755
 11
296.778
 21
41.3938
  0
LINE
  8
0
 10
296.778
 20
41.3938
 11
296.7
 21
41.4
  0
LINE
  8
0
 10
296.7
 20
41.4
 11
271.9
 21
41.4
  0
LINE
  8
0
 10
271.9
 20
41.4
 11
271.822
 21
41.3938
  0
LINE
  8
0
 10
271.822
 20
41.3938
 11
271.745
 21
41.3755
  0
LINE
  8
0
 10
271.745
 20
41.3755
 11
271.673
 21
41.3455
  0
LINE
  8
0
 10
271.673
 20
41.3455
 11
271.606
 21
41.3045
  0
LINE
  8
0
 10
271.606
 20
41.3045
 11
271.546
 21
41.2535
  0
LINE
  8
0
 10
271.546
 20
41.2535
 11
271.495
 21
41.1939
  0
LINE
  8
0
 10
271.495
 20
41.1939
 11
271.454
 21
41.127
  0
LINE
  8
0
 10
271.454
 20
41.127
 11
271.424
 21
41.0545
  0
LINE
  8
0
 10
271.424
 20
41.0545
 11
271.406
 21
40.9782
  0
LINE
  8
0
 10
271.406
 20
40.9782
 11
271.4
 21
40.9
  0
LINE
  8
0
 10
271.4
 20
40.9
 11
271.4
 21
16.1
  0
LINE
  8
0
 10
271.4
 20
16.1
 11
271.406
 21
16.0218
  0
LINE
  8
0
 10
271.406
 20
16.0218
 11
271.424
 21
15.9455
  0
LINE
  8
0
 10
271.424
 20
15.9455
 11
271.454
 21
15.873
  0
LINE
  8
0
 10
271.454
 20
15.873
 11
271.495
 21
15.8061
  0
LINE
  8
0
 10
271.495
 20
15.8061
 11
271.546
 21
15.7465
  0
LINE
  8
0
 10
271.546
 20
15.7465
 11
271.606
 21
15.6955
  0
LINE
  8
0
 10
271.606
 20
15.6955
 11
271.673
 21
15.6545
  0
LINE
  8
0
 10
271.673
 20
15.6545
 11
271.745
 21
15.6245
  0
LINE
  8
0
 10
271.745
 20
15.6245
 11
271.822
 21
15.6062
  0
LINE
  8
0
 10
271.822
 20
15.6062
 11
271.9
 21
15.6
  0
LINE
  8
0
 10
271.9
 20
15.6
 11
296.7
 21
15.6
  0
LINE
  8
0
 10
296.7
 20
15.6
 11
296.778
 21
15.6062
  0
ENDSEC
  0
SECTION
  2
OBJECTS
  0
DICTIONARY
  0
ENDSEC
  0
EOF
