  0
SECTION
  2
BLOCKS
  0
ENDSEC
  0
SECTION
  2
ENTITIES
  0
LINE
  8
0
 10
298.578
 20
15.6062
 11
298.655
 21
15.6245
  0
LINE
  8
0
 10
298.655
 20
15.6245
 11
298.727
 21
15.6545
  0
LINE
  8
0
 10
298.727
 20
15.6545
 11
298.794
 21
15.6955
  0
LINE
  8
0
 10
298.794
 20
15.6955
 11
298.854
 21
15.7465
  0
LINE
  8
0
 10
298.854
 20
15.7465
 11
298.905
 21
15.8061
  0
LINE
  8
0
 10
298.905
 20
15.8061
 11
298.946
 21
15.873
  0
LINE
  8
0
 10
298.946
 20
15.873
 11
298.976
 21
15.9455
  0
LINE
  8
0
 10
298.976
 20
15.9455
 11
298.994
 21
16.0218
  0
LINE
  8
0
 10
298.994
 20
16.0218
 11
299
 21
16.1
  0
LINE
  8
0
 10
299
 20
16.1
 11
299
 21
40.9
  0
LINE
  8
0
 10
299
 20
40.9
 11
298.994
 21
40.9782
  0
LINE
  8
0
 10
298.994
 20
40.9782
 11
298.976
 21
41.0545
  0
LINE
  8
0
 10
298.976
 20
41.0545
 11
298.946
 21
41.127
  0
LINE
  8
0
 10
298.946
 20
41.127
 11
298.905
 21
41.1939
  0
LINE
  8
0
 10
298.905
 20
41.1939
 11
298.854
 21
41.2535
  0
LINE
  8
0
 10
298.854
 20
41.2535
 11
298.794
 21
41.3045
  0
LINE
  8
0
 10
298.794
 20
41.3045
 11
298.727
 21
41.3455
  0
LINE
  8
0
 10
298.727
 20
41.3455
 11
298.655
 21
41.3755
  0
LINE
  8
0
 10
298.655
 20
41.3755
 11
298.578
 21
41.3938
  0
LINE
  8
0
 10
298.578
 20
41.3938
 11
298.5
 21
41.4
  0
LINE
  8
0
 10
298.5
 20
41.4
 11
273.7
 21
41.4
  0
LINE
  8
0
 10
273.7
 20
41.4
 11
273.622
 21
41.3938
  0
LINE
  8
0
 10
273.622
 20
41.3938
 11
273.545
 21
41.3755
  0
LINE
  8
0
 10
273.545
 20
41.3755
 11
273.473
 21
41.3455
  0
LINE
  8
0
 10
273.473
 20
41.3455
 11
273.406
 21
41.3045
  0
LINE
  8
0
 10
273.406
 20
41.3045
 11
273.346
 21
41.2535
  0
LINE
  8
0
 10
273.346
 20
41.2535
 11
273.295
 21
41.1939
  0
LINE
  8
0
 10
273.295
 20
41.1939
 11
273.254
 21
41.127
  0
LINE
  8
0
 10
273.254
 20
41.127
 11
273.224
 21
41.0545
  0
LINE
  8
0
 10
273.224
 20
41.0545
 11
273.206
 21
40.9782
  0
LINE
  8
0
 10
273.206
 20
40.9782
 11
273.2
 21
40.9
  0
LINE
  8
0
 10
273.2
 20
40.9
 11
273.2
 21
16.1
  0
LINE
  8
0
 10
273.2
 20
16.1
 11
273.206
 21
16.0218
  0
LINE
  8
0
 10
273.206
 20
16.0218
 11
273.224
 21
15.9455
  0
LINE
  8
0
 10
273.224
 20
15.9455
 11
273.254
 21
15.873
  0
LINE
  8
0
 10
273.254
 20
15.873
 11
273.295
 21
15.8061
  0
LINE
  8
0
 10
273.295
 20
15.8061
 11
273.346
 21
15.7465
  0
LINE
  8
0
 10
273.346
 20
15.7465
 11
273.406
 21
15.6955
  0
LINE
  8
0
 10
273.406
 20
15.6955
 11
273.473
 21
15.6545
  0
LINE
  8
0
 10
273.473
 20
15.6545
 11
273.545
 21
15.6245
  0
LINE
  8
0
 10
273.545
 20
15.6245
 11
273.622
 21
15.6062
  0
LINE
  8
0
 10
273.622
 20
15.6062
 11
273.7
 21
15.6
  0
LINE
  8
0
 10
273.7
 20
15.6
 11
298.5
 21
15.6
  0
LINE
  8
0
 10
298.5
 20
15.6
 11
298.578
 21
15.6062
  0
ENDSEC
  0
SECTION
  2
OBJECTS
  0
DICTIONARY
  0
ENDSEC
  0
EOF
