  0
SECTION
  2
BLOCKS
  0
ENDSEC
  0
SECTION
  2
ENTITIES
  0
LINE
  8
0
 10
322.31
 20
15.6062
 11
322.387
 21
15.6245
  0
LINE
  8
0
 10
322.387
 20
15.6245
 11
322.459
 21
15.6545
  0
LINE
  8
0
 10
322.459
 20
15.6545
 11
322.526
 21
15.6955
  0
LINE
  8
0
 10
322.526
 20
15.6955
 11
322.586
 21
15.7465
  0
LINE
  8
0
 10
322.586
 20
15.7465
 11
322.637
 21
15.8061
  0
LINE
  8
0
 10
322.637
 20
15.8061
 11
322.678
 21
15.873
  0
LINE
  8
0
 10
322.678
 20
15.873
 11
322.708
 21
15.9455
  0
LINE
  8
0
 10
322.708
 20
15.9455
 11
322.726
 21
16.0218
  0
LINE
  8
0
 10
322.726
 20
16.0218
 11
322.732
 21
16.1
  0
LINE
  8
0
 10
322.732
 20
16.1
 11
322.732
 21
40.9
  0
LINE
  8
0
 10
322.732
 20
40.9
 11
322.726
 21
40.9782
  0
LINE
  8
0
 10
322.726
 20
40.9782
 11
322.708
 21
41.0545
  0
LINE
  8
0
 10
322.708
 20
41.0545
 11
322.678
 21
41.127
  0
LINE
  8
0
 10
322.678
 20
41.127
 11
322.637
 21
41.1939
  0
LINE
  8
0
 10
322.637
 20
41.1939
 11
322.586
 21
41.2535
  0
LINE
  8
0
 10
322.586
 20
41.2535
 11
322.526
 21
41.3045
  0
LINE
  8
0
 10
322.526
 20
41.3045
 11
322.459
 21
41.3455
  0
LINE
  8
0
 10
322.459
 20
41.3455
 11
322.387
 21
41.3755
  0
LINE
  8
0
 10
322.387
 20
41.3755
 11
322.31
 21
41.3938
  0
LINE
  8
0
 10
322.31
 20
41.3938
 11
322.232
 21
41.4
  0
LINE
  8
0
 10
322.232
 20
41.4
 11
297.432
 21
41.4
  0
LINE
  8
0
 10
297.432
 20
41.4
 11
297.354
 21
41.3938
  0
LINE
  8
0
 10
297.354
 20
41.3938
 11
297.277
 21
41.3755
  0
LINE
  8
0
 10
297.277
 20
41.3755
 11
297.205
 21
41.3455
  0
LINE
  8
0
 10
297.205
 20
41.3455
 11
297.138
 21
41.3045
  0
LINE
  8
0
 10
297.138
 20
41.3045
 11
297.078
 21
41.2535
  0
LINE
  8
0
 10
297.078
 20
41.2535
 11
297.027
 21
41.1939
  0
LINE
  8
0
 10
297.027
 20
41.1939
 11
296.986
 21
41.127
  0
LINE
  8
0
 10
296.986
 20
41.127
 11
296.956
 21
41.0545
  0
LINE
  8
0
 10
296.956
 20
41.0545
 11
296.938
 21
40.9782
  0
LINE
  8
0
 10
296.938
 20
40.9782
 11
296.932
 21
40.9
  0
LINE
  8
0
 10
296.932
 20
40.9
 11
296.932
 21
16.1
  0
LINE
  8
0
 10
296.932
 20
16.1
 11
296.938
 21
16.0218
  0
LINE
  8
0
 10
296.938
 20
16.0218
 11
296.956
 21
15.9455
  0
LINE
  8
0
 10
296.956
 20
15.9455
 11
296.986
 21
15.873
  0
LINE
  8
0
 10
296.986
 20
15.873
 11
297.027
 21
15.8061
  0
LINE
  8
0
 10
297.027
 20
15.8061
 11
297.078
 21
15.7465
  0
LINE
  8
0
 10
297.078
 20
15.7465
 11
297.138
 21
15.6955
  0
LINE
  8
0
 10
297.138
 20
15.6955
 11
297.205
 21
15.6545
  0
LINE
  8
0
 10
297.205
 20
15.6545
 11
297.277
 21
15.6245
  0
LINE
  8
0
 10
297.277
 20
15.6245
 11
297.354
 21
15.6062
  0
LINE
  8
0
 10
297.354
 20
15.6062
 11
297.432
 21
15.6
  0
LINE
  8
0
 10
297.432
 20
15.6
 11
322.232
 21
15.6
  0
LINE
  8
0
 10
322.232
 20
15.6
 11
322.31
 21
15.6062
  0
ENDSEC
  0
SECTION
  2
OBJECTS
  0
DICTIONARY
  0
ENDSEC
  0
EOF
