  0
SECTION
  2
BLOCKS
  0
ENDSEC
  0
SECTION
  2
ENTITIES
  0
LINE
  8
0
 10
296.556
 20
7.51231
 11
296.709
 21
7.54895
  0
LINE
  8
0
 10
296.709
 20
7.54895
 11
296.854
 21
7.60899
  0
LINE
  8
0
 10
296.854
 20
7.60899
 11
296.988
 21
7.69098
  0
LINE
  8
0
 10
296.988
 20
7.69098
 11
297.107
 21
7.79289
  0
LINE
  8
0
 10
297.107
 20
7.79289
 11
297.209
 21
7.91222
  0
LINE
  8
0
 10
297.209
 20
7.91222
 11
297.291
 21
8.04601
  0
LINE
  8
0
 10
297.291
 20
8.04601
 11
297.351
 21
8.19098
  0
LINE
  8
0
 10
297.351
 20
8.19098
 11
297.388
 21
8.34357
  0
LINE
  8
0
 10
297.388
 20
8.34357
 11
297.4
 21
8.5
  0
LINE
  8
0
 10
297.4
 20
8.5
 11
297.4
 21
48.5
  0
LINE
  8
0
 10
297.4
 20
48.5
 11
297.388
 21
48.6564
  0
LINE
  8
0
 10
297.388
 20
48.6564
 11
297.351
 21
48.809
  0
LINE
  8
0
 10
297.351
 20
48.809
 11
297.291
 21
48.954
  0
LINE
  8
0
 10
297.291
 20
48.954
 11
297.209
 21
49.0878
  0
LINE
  8
0
 10
297.209
 20
49.0878
 11
297.107
 21
49.2071
  0
LINE
  8
0
 10
297.107
 20
49.2071
 11
296.988
 21
49.309
  0
LINE
  8
0
 10
296.988
 20
49.309
 11
296.854
 21
49.391
  0
LINE
  8
0
 10
296.854
 20
49.391
 11
296.709
 21
49.451
  0
LINE
  8
0
 10
296.709
 20
49.451
 11
296.556
 21
49.4877
  0
LINE
  8
0
 10
296.556
 20
49.4877
 11
296.4
 21
49.5
  0
LINE
  8
0
 10
296.4
 20
49.5
 11
272.9
 21
49.5
  0
LINE
  8
0
 10
272.9
 20
49.5
 11
272.744
 21
49.4877
  0
LINE
  8
0
 10
272.744
 20
49.4877
 11
272.591
 21
49.451
  0
LINE
  8
0
 10
272.591
 20
49.451
 11
272.446
 21
49.391
  0
LINE
  8
0
 10
272.446
 20
49.391
 11
272.312
 21
49.309
  0
LINE
  8
0
 10
272.312
 20
49.309
 11
272.193
 21
49.2071
  0
LINE
  8
0
 10
272.193
 20
49.2071
 11
272.091
 21
49.0878
  0
LINE
  8
0
 10
272.091
 20
49.0878
 11
272.009
 21
48.954
  0
LINE
  8
0
 10
272.009
 20
48.954
 11
271.949
 21
48.809
  0
LINE
  8
0
 10
271.949
 20
48.809
 11
271.912
 21
48.6564
  0
LINE
  8
0
 10
271.912
 20
48.6564
 11
271.9
 21
48.5
  0
LINE
  8
0
 10
271.9
 20
48.5
 11
271.9
 21
34.75
  0
LINE
  8
0
 10
271.9
 20
34.75
 11
271.912
 21
34.5936
  0
LINE
  8
0
 10
271.912
 20
34.5936
 11
271.949
 21
34.441
  0
LINE
  8
0
 10
271.949
 20
34.441
 11
272.009
 21
34.296
  0
LINE
  8
0
 10
272.009
 20
34.296
 11
272.091
 21
34.1622
  0
LINE
  8
0
 10
272.091
 20
34.1622
 11
272.193
 21
34.0429
  0
LINE
  8
0
 10
272.193
 20
34.0429
 11
272.312
 21
33.941
  0
LINE
  8
0
 10
272.312
 20
33.941
 11
272.446
 21
33.859
  0
LINE
  8
0
 10
272.446
 20
33.859
 11
272.591
 21
33.799
  0
LINE
  8
0
 10
272.591
 20
33.799
 11
272.744
 21
33.7623
  0
LINE
  8
0
 10
272.744
 20
33.7623
 11
272.9
 21
33.75
  0
LINE
  8
0
 10
272.9
 20
33.75
 11
278.9
 21
33.75
  0
LINE
  8
0
 10
278.9
 20
33.75
 11
279.056
 21
33.7377
  0
LINE
  8
0
 10
279.056
 20
33.7377
 11
279.209
 21
33.701
  0
LINE
  8
0
 10
279.209
 20
33.701
 11
279.354
 21
33.641
  0
LINE
  8
0
 10
279.354
 20
33.641
 11
279.488
 21
33.559
  0
LINE
  8
0
 10
279.488
 20
33.559
 11
279.607
 21
33.4571
  0
LINE
  8
0
 10
279.607
 20
33.4571
 11
279.709
 21
33.3378
  0
LINE
  8
0
 10
279.709
 20
33.3378
 11
279.791
 21
33.204
  0
LINE
  8
0
 10
279.791
 20
33.204
 11
279.851
 21
33.0591
  0
LINE
  8
0
 10
279.851
 20
33.0591
 11
279.888
 21
32.9064
  0
LINE
  8
0
 10
279.888
 20
32.9064
 11
279.9
 21
32.75
  0
LINE
  8
0
 10
279.9
 20
32.75
 11
279.9
 21
24.25
  0
LINE
  8
0
 10
279.9
 20
24.25
 11
279.888
 21
24.0936
  0
LINE
  8
0
 10
279.888
 20
24.0936
 11
279.851
 21
23.9409
  0
LINE
  8
0
 10
279.851
 20
23.9409
 11
279.791
 21
23.796
  0
LINE
  8
0
 10
279.791
 20
23.796
 11
279.709
 21
23.6622
  0
LINE
  8
0
 10
279.709
 20
23.6622
 11
279.607
 21
23.5429
  0
LINE
  8
0
 10
279.607
 20
23.5429
 11
279.488
 21
23.441
  0
LINE
  8
0
 10
279.488
 20
23.441
 11
279.354
 21
23.359
  0
LINE
  8
0
 10
279.354
 20
23.359
 11
279.209
 21
23.299
  0
LINE
  8
0
 10
279.209
 20
23.299
 11
279.056
 21
23.2623
  0
LINE
  8
0
 10
279.056
 20
23.2623
 11
278.9
 21
23.25
  0
LINE
  8
0
 10
278.9
 20
23.25
 11
272.9
 21
23.25
  0
LINE
  8
0
 10
272.9
 20
23.25
 11
272.744
 21
23.2377
  0
LINE
  8
0
 10
272.744
 20
23.2377
 11
272.591
 21
23.201
  0
LINE
  8
0
 10
272.591
 20
23.201
 11
272.446
 21
23.141
  0
LINE
  8
0
 10
272.446
 20
23.141
 11
272.312
 21
23.059
  0
LINE
  8
0
 10
272.312
 20
23.059
 11
272.193
 21
22.9571
  0
LINE
  8
0
 10
272.193
 20
22.9571
 11
272.091
 21
22.8378
  0
LINE
  8
0
 10
272.091
 20
22.8378
 11
272.009
 21
22.704
  0
LINE
  8
0
 10
272.009
 20
22.704
 11
271.949
 21
22.559
  0
LINE
  8
0
 10
271.949
 20
22.559
 11
271.912
 21
22.4064
  0
LINE
  8
0
 10
271.912
 20
22.4064
 11
271.9
 21
22.25
  0
LINE
  8
0
 10
271.9
 20
22.25
 11
271.9
 21
20.885
  0
LINE
  8
0
 10
271.9
 20
20.885
 11
271.888
 21
20.7285
  0
LINE
  8
0
 10
271.888
 20
20.7285
 11
271.851
 21
20.5759
  0
LINE
  8
0
 10
271.851
 20
20.5759
 11
271.791
 21
20.431
  0
LINE
  8
0
 10
271.791
 20
20.431
 11
271.709
 21
20.2972
  0
LINE
  8
0
 10
271.709
 20
20.2972
 11
271.607
 21
20.1779
  0
LINE
  8
0
 10
271.607
 20
20.1779
 11
271.488
 21
20.076
  0
LINE
  8
0
 10
271.488
 20
20.076
 11
271.354
 21
19.994
  0
LINE
  8
0
 10
271.354
 20
19.994
 11
271.209
 21
19.934
  0
LINE
  8
0
 10
271.209
 20
19.934
 11
271.056
 21
19.8973
  0
LINE
  8
0
 10
271.056
 20
19.8973
 11
270.9
 21
19.885
  0
LINE
  8
0
 10
270.9
 20
19.885
 11
252
 21
19.885
  0
LINE
  8
0
 10
252
 20
19.885
 11
251.844
 21
19.8727
  0
LINE
  8
0
 10
251.844
 20
19.8727
 11
251.691
 21
19.836
  0
LINE
  8
0
 10
251.691
 20
19.836
 11
251.546
 21
19.776
  0
LINE
  8
0
 10
251.546
 20
19.776
 11
251.412
 21
19.694
  0
LINE
  8
0
 10
251.412
 20
19.694
 11
251.293
 21
19.5921
  0
LINE
  8
0
 10
251.293
 20
19.5921
 11
251.191
 21
19.4728
  0
LINE
  8
0
 10
251.191
 20
19.4728
 11
251.109
 21
19.339
  0
LINE
  8
0
 10
251.109
 20
19.339
 11
251.049
 21
19.194
  0
LINE
  8
0
 10
251.049
 20
19.194
 11
251.012
 21
19.0414
  0
LINE
  8
0
 10
251.012
 20
19.0414
 11
251
 21
18.885
  0
LINE
  8
0
 10
251
 20
18.885
 11
251
 21
8.5
  0
LINE
  8
0
 10
251
 20
8.5
 11
251.012
 21
8.34357
  0
LINE
  8
0
 10
251.012
 20
8.34357
 11
251.049
 21
8.19098
  0
LINE
  8
0
 10
251.049
 20
8.19098
 11
251.109
 21
8.04601
  0
LINE
  8
0
 10
251.109
 20
8.04601
 11
251.191
 21
7.91222
  0
LINE
  8
0
 10
251.191
 20
7.91222
 11
251.293
 21
7.79289
  0
LINE
  8
0
 10
251.293
 20
7.79289
 11
251.412
 21
7.69098
  0
LINE
  8
0
 10
251.412
 20
7.69098
 11
251.546
 21
7.60899
  0
LINE
  8
0
 10
251.546
 20
7.60899
 11
251.691
 21
7.54895
  0
LINE
  8
0
 10
251.691
 20
7.54895
 11
251.844
 21
7.51231
  0
LINE
  8
0
 10
251.844
 20
7.51231
 11
252
 21
7.5
  0
LINE
  8
0
 10
252
 20
7.5
 11
296.4
 21
7.5
  0
LINE
  8
0
 10
296.4
 20
7.5
 11
296.556
 21
7.51231
  0
ENDSEC
  0
SECTION
  2
OBJECTS
  0
DICTIONARY
  0
ENDSEC
  0
EOF
