  0
SECTION
  2
BLOCKS
  0
ENDSEC
  0
SECTION
  2
ENTITIES
  0
LINE
  8
0
 10
296.878
 20
15.6062
 11
296.955
 21
15.6245
  0
LINE
  8
0
 10
296.955
 20
15.6245
 11
297.027
 21
15.6545
  0
LINE
  8
0
 10
297.027
 20
15.6545
 11
297.094
 21
15.6955
  0
LINE
  8
0
 10
297.094
 20
15.6955
 11
297.154
 21
15.7465
  0
LINE
  8
0
 10
297.154
 20
15.7465
 11
297.205
 21
15.8061
  0
LINE
  8
0
 10
297.205
 20
15.8061
 11
297.246
 21
15.873
  0
LINE
  8
0
 10
297.246
 20
15.873
 11
297.276
 21
15.9455
  0
LINE
  8
0
 10
297.276
 20
15.9455
 11
297.294
 21
16.0218
  0
LINE
  8
0
 10
297.294
 20
16.0218
 11
297.3
 21
16.1
  0
LINE
  8
0
 10
297.3
 20
16.1
 11
297.3
 21
40.9
  0
LINE
  8
0
 10
297.3
 20
40.9
 11
297.294
 21
40.9782
  0
LINE
  8
0
 10
297.294
 20
40.9782
 11
297.276
 21
41.0545
  0
LINE
  8
0
 10
297.276
 20
41.0545
 11
297.246
 21
41.127
  0
LINE
  8
0
 10
297.246
 20
41.127
 11
297.205
 21
41.1939
  0
LINE
  8
0
 10
297.205
 20
41.1939
 11
297.154
 21
41.2535
  0
LINE
  8
0
 10
297.154
 20
41.2535
 11
297.094
 21
41.3045
  0
LINE
  8
0
 10
297.094
 20
41.3045
 11
297.027
 21
41.3455
  0
LINE
  8
0
 10
297.027
 20
41.3455
 11
296.955
 21
41.3755
  0
LINE
  8
0
 10
296.955
 20
41.3755
 11
296.878
 21
41.3938
  0
LINE
  8
0
 10
296.878
 20
41.3938
 11
296.8
 21
41.4
  0
LINE
  8
0
 10
296.8
 20
41.4
 11
272
 21
41.4
  0
LINE
  8
0
 10
272
 20
41.4
 11
271.922
 21
41.3938
  0
LINE
  8
0
 10
271.922
 20
41.3938
 11
271.845
 21
41.3755
  0
LINE
  8
0
 10
271.845
 20
41.3755
 11
271.773
 21
41.3455
  0
LINE
  8
0
 10
271.773
 20
41.3455
 11
271.706
 21
41.3045
  0
LINE
  8
0
 10
271.706
 20
41.3045
 11
271.646
 21
41.2535
  0
LINE
  8
0
 10
271.646
 20
41.2535
 11
271.595
 21
41.1939
  0
LINE
  8
0
 10
271.595
 20
41.1939
 11
271.554
 21
41.127
  0
LINE
  8
0
 10
271.554
 20
41.127
 11
271.524
 21
41.0545
  0
LINE
  8
0
 10
271.524
 20
41.0545
 11
271.506
 21
40.9782
  0
LINE
  8
0
 10
271.506
 20
40.9782
 11
271.5
 21
40.9
  0
LINE
  8
0
 10
271.5
 20
40.9
 11
271.5
 21
16.1
  0
LINE
  8
0
 10
271.5
 20
16.1
 11
271.506
 21
16.0218
  0
LINE
  8
0
 10
271.506
 20
16.0218
 11
271.524
 21
15.9455
  0
LINE
  8
0
 10
271.524
 20
15.9455
 11
271.554
 21
15.873
  0
LINE
  8
0
 10
271.554
 20
15.873
 11
271.595
 21
15.8061
  0
LINE
  8
0
 10
271.595
 20
15.8061
 11
271.646
 21
15.7465
  0
LINE
  8
0
 10
271.646
 20
15.7465
 11
271.706
 21
15.6955
  0
LINE
  8
0
 10
271.706
 20
15.6955
 11
271.773
 21
15.6545
  0
LINE
  8
0
 10
271.773
 20
15.6545
 11
271.845
 21
15.6245
  0
LINE
  8
0
 10
271.845
 20
15.6245
 11
271.922
 21
15.6062
  0
LINE
  8
0
 10
271.922
 20
15.6062
 11
272
 21
15.6
  0
LINE
  8
0
 10
272
 20
15.6
 11
296.8
 21
15.6
  0
LINE
  8
0
 10
296.8
 20
15.6
 11
296.878
 21
15.6062
  0
ENDSEC
  0
SECTION
  2
OBJECTS
  0
DICTIONARY
  0
ENDSEC
  0
EOF
