  0
SECTION
  2
BLOCKS
  0
ENDSEC
  0
SECTION
  2
ENTITIES
  0
LINE
  8
0
 10
488.86
 20
15.6062
 11
488.937
 21
15.6245
  0
LINE
  8
0
 10
488.937
 20
15.6245
 11
489.009
 21
15.6545
  0
LINE
  8
0
 10
489.009
 20
15.6545
 11
489.076
 21
15.6955
  0
LINE
  8
0
 10
489.076
 20
15.6955
 11
489.136
 21
15.7465
  0
LINE
  8
0
 10
489.136
 20
15.7465
 11
489.187
 21
15.8061
  0
LINE
  8
0
 10
489.187
 20
15.8061
 11
489.228
 21
15.873
  0
LINE
  8
0
 10
489.228
 20
15.873
 11
489.258
 21
15.9455
  0
LINE
  8
0
 10
489.258
 20
15.9455
 11
489.276
 21
16.0218
  0
LINE
  8
0
 10
489.276
 20
16.0218
 11
489.282
 21
16.1
  0
LINE
  8
0
 10
489.282
 20
16.1
 11
489.282
 21
40.9
  0
LINE
  8
0
 10
489.282
 20
40.9
 11
489.276
 21
40.9782
  0
LINE
  8
0
 10
489.276
 20
40.9782
 11
489.258
 21
41.0545
  0
LINE
  8
0
 10
489.258
 20
41.0545
 11
489.228
 21
41.127
  0
LINE
  8
0
 10
489.228
 20
41.127
 11
489.187
 21
41.1939
  0
LINE
  8
0
 10
489.187
 20
41.1939
 11
489.136
 21
41.2535
  0
LINE
  8
0
 10
489.136
 20
41.2535
 11
489.076
 21
41.3045
  0
LINE
  8
0
 10
489.076
 20
41.3045
 11
489.009
 21
41.3455
  0
LINE
  8
0
 10
489.009
 20
41.3455
 11
488.937
 21
41.3755
  0
LINE
  8
0
 10
488.937
 20
41.3755
 11
488.86
 21
41.3938
  0
LINE
  8
0
 10
488.86
 20
41.3938
 11
488.782
 21
41.4
  0
LINE
  8
0
 10
488.782
 20
41.4
 11
463.982
 21
41.4
  0
LINE
  8
0
 10
463.982
 20
41.4
 11
463.904
 21
41.3938
  0
LINE
  8
0
 10
463.904
 20
41.3938
 11
463.827
 21
41.3755
  0
LINE
  8
0
 10
463.827
 20
41.3755
 11
463.755
 21
41.3455
  0
LINE
  8
0
 10
463.755
 20
41.3455
 11
463.688
 21
41.3045
  0
LINE
  8
0
 10
463.688
 20
41.3045
 11
463.628
 21
41.2535
  0
LINE
  8
0
 10
463.628
 20
41.2535
 11
463.577
 21
41.1939
  0
LINE
  8
0
 10
463.577
 20
41.1939
 11
463.536
 21
41.127
  0
LINE
  8
0
 10
463.536
 20
41.127
 11
463.506
 21
41.0545
  0
LINE
  8
0
 10
463.506
 20
41.0545
 11
463.488
 21
40.9782
  0
LINE
  8
0
 10
463.488
 20
40.9782
 11
463.482
 21
40.9
  0
LINE
  8
0
 10
463.482
 20
40.9
 11
463.482
 21
16.1
  0
LINE
  8
0
 10
463.482
 20
16.1
 11
463.488
 21
16.0218
  0
LINE
  8
0
 10
463.488
 20
16.0218
 11
463.506
 21
15.9455
  0
LINE
  8
0
 10
463.506
 20
15.9455
 11
463.536
 21
15.873
  0
LINE
  8
0
 10
463.536
 20
15.873
 11
463.577
 21
15.8061
  0
LINE
  8
0
 10
463.577
 20
15.8061
 11
463.628
 21
15.7465
  0
LINE
  8
0
 10
463.628
 20
15.7465
 11
463.688
 21
15.6955
  0
LINE
  8
0
 10
463.688
 20
15.6955
 11
463.755
 21
15.6545
  0
LINE
  8
0
 10
463.755
 20
15.6545
 11
463.827
 21
15.6245
  0
LINE
  8
0
 10
463.827
 20
15.6245
 11
463.904
 21
15.6062
  0
LINE
  8
0
 10
463.904
 20
15.6062
 11
463.982
 21
15.6
  0
LINE
  8
0
 10
463.982
 20
15.6
 11
488.782
 21
15.6
  0
LINE
  8
0
 10
488.782
 20
15.6
 11
488.86
 21
15.6062
  0
ENDSEC
  0
SECTION
  2
OBJECTS
  0
DICTIONARY
  0
ENDSEC
  0
EOF
