  0
SECTION
  2
BLOCKS
  0
ENDSEC
  0
SECTION
  2
ENTITIES
  0
LINE
  8
0
 10
299.628
 20
15.6062
 11
299.705
 21
15.6245
  0
LINE
  8
0
 10
299.705
 20
15.6245
 11
299.777
 21
15.6545
  0
LINE
  8
0
 10
299.777
 20
15.6545
 11
299.844
 21
15.6955
  0
LINE
  8
0
 10
299.844
 20
15.6955
 11
299.904
 21
15.7465
  0
LINE
  8
0
 10
299.904
 20
15.7465
 11
299.955
 21
15.8061
  0
LINE
  8
0
 10
299.955
 20
15.8061
 11
299.996
 21
15.873
  0
LINE
  8
0
 10
299.996
 20
15.873
 11
300.026
 21
15.9455
  0
LINE
  8
0
 10
300.026
 20
15.9455
 11
300.044
 21
16.0218
  0
LINE
  8
0
 10
300.044
 20
16.0218
 11
300.05
 21
16.1
  0
LINE
  8
0
 10
300.05
 20
16.1
 11
300.05
 21
40.9
  0
LINE
  8
0
 10
300.05
 20
40.9
 11
300.044
 21
40.9782
  0
LINE
  8
0
 10
300.044
 20
40.9782
 11
300.026
 21
41.0545
  0
LINE
  8
0
 10
300.026
 20
41.0545
 11
299.996
 21
41.127
  0
LINE
  8
0
 10
299.996
 20
41.127
 11
299.955
 21
41.1939
  0
LINE
  8
0
 10
299.955
 20
41.1939
 11
299.904
 21
41.2535
  0
LINE
  8
0
 10
299.904
 20
41.2535
 11
299.844
 21
41.3045
  0
LINE
  8
0
 10
299.844
 20
41.3045
 11
299.777
 21
41.3455
  0
LINE
  8
0
 10
299.777
 20
41.3455
 11
299.705
 21
41.3755
  0
LINE
  8
0
 10
299.705
 20
41.3755
 11
299.628
 21
41.3938
  0
LINE
  8
0
 10
299.628
 20
41.3938
 11
299.55
 21
41.4
  0
LINE
  8
0
 10
299.55
 20
41.4
 11
274.75
 21
41.4
  0
LINE
  8
0
 10
274.75
 20
41.4
 11
274.672
 21
41.3938
  0
LINE
  8
0
 10
274.672
 20
41.3938
 11
274.595
 21
41.3755
  0
LINE
  8
0
 10
274.595
 20
41.3755
 11
274.523
 21
41.3455
  0
LINE
  8
0
 10
274.523
 20
41.3455
 11
274.456
 21
41.3045
  0
LINE
  8
0
 10
274.456
 20
41.3045
 11
274.396
 21
41.2535
  0
LINE
  8
0
 10
274.396
 20
41.2535
 11
274.345
 21
41.1939
  0
LINE
  8
0
 10
274.345
 20
41.1939
 11
274.304
 21
41.127
  0
LINE
  8
0
 10
274.304
 20
41.127
 11
274.274
 21
41.0545
  0
LINE
  8
0
 10
274.274
 20
41.0545
 11
274.256
 21
40.9782
  0
LINE
  8
0
 10
274.256
 20
40.9782
 11
274.25
 21
40.9
  0
LINE
  8
0
 10
274.25
 20
40.9
 11
274.25
 21
16.1
  0
LINE
  8
0
 10
274.25
 20
16.1
 11
274.256
 21
16.0218
  0
LINE
  8
0
 10
274.256
 20
16.0218
 11
274.274
 21
15.9455
  0
LINE
  8
0
 10
274.274
 20
15.9455
 11
274.304
 21
15.873
  0
LINE
  8
0
 10
274.304
 20
15.873
 11
274.345
 21
15.8061
  0
LINE
  8
0
 10
274.345
 20
15.8061
 11
274.396
 21
15.7465
  0
LINE
  8
0
 10
274.396
 20
15.7465
 11
274.456
 21
15.6955
  0
LINE
  8
0
 10
274.456
 20
15.6955
 11
274.523
 21
15.6545
  0
LINE
  8
0
 10
274.523
 20
15.6545
 11
274.595
 21
15.6245
  0
LINE
  8
0
 10
274.595
 20
15.6245
 11
274.672
 21
15.6062
  0
LINE
  8
0
 10
274.672
 20
15.6062
 11
274.75
 21
15.6
  0
LINE
  8
0
 10
274.75
 20
15.6
 11
299.55
 21
15.6
  0
LINE
  8
0
 10
299.55
 20
15.6
 11
299.628
 21
15.6062
  0
ENDSEC
  0
SECTION
  2
OBJECTS
  0
DICTIONARY
  0
ENDSEC
  0
EOF
