  0
SECTION
  2
BLOCKS
  0
ENDSEC
  0
SECTION
  2
ENTITIES
  0
LINE
  8
0
 10
296.556
 20
7.51231
 11
296.709
 21
7.54895
  0
LINE
  8
0
 10
296.709
 20
7.54895
 11
296.854
 21
7.60899
  0
LINE
  8
0
 10
296.854
 20
7.60899
 11
296.988
 21
7.69098
  0
LINE
  8
0
 10
296.988
 20
7.69098
 11
297.107
 21
7.79289
  0
LINE
  8
0
 10
297.107
 20
7.79289
 11
297.209
 21
7.91222
  0
LINE
  8
0
 10
297.209
 20
7.91222
 11
297.291
 21
8.04601
  0
LINE
  8
0
 10
297.291
 20
8.04601
 11
297.351
 21
8.19098
  0
LINE
  8
0
 10
297.351
 20
8.19098
 11
297.388
 21
8.34357
  0
LINE
  8
0
 10
297.388
 20
8.34357
 11
297.4
 21
8.5
  0
LINE
  8
0
 10
297.4
 20
8.5
 11
297.4
 21
48.5
  0
LINE
  8
0
 10
297.4
 20
48.5
 11
297.388
 21
48.6564
  0
LINE
  8
0
 10
297.388
 20
48.6564
 11
297.351
 21
48.809
  0
LINE
  8
0
 10
297.351
 20
48.809
 11
297.291
 21
48.954
  0
LINE
  8
0
 10
297.291
 20
48.954
 11
297.209
 21
49.0878
  0
LINE
  8
0
 10
297.209
 20
49.0878
 11
297.107
 21
49.2071
  0
LINE
  8
0
 10
297.107
 20
49.2071
 11
296.988
 21
49.309
  0
LINE
  8
0
 10
296.988
 20
49.309
 11
296.854
 21
49.391
  0
LINE
  8
0
 10
296.854
 20
49.391
 11
296.709
 21
49.451
  0
LINE
  8
0
 10
296.709
 20
49.451
 11
296.556
 21
49.4877
  0
LINE
  8
0
 10
296.556
 20
49.4877
 11
296.4
 21
49.5
  0
LINE
  8
0
 10
296.4
 20
49.5
 11
272.9
 21
49.5
  0
LINE
  8
0
 10
272.9
 20
49.5
 11
272.744
 21
49.4877
  0
LINE
  8
0
 10
272.744
 20
49.4877
 11
272.591
 21
49.451
  0
LINE
  8
0
 10
272.591
 20
49.451
 11
272.446
 21
49.391
  0
LINE
  8
0
 10
272.446
 20
49.391
 11
272.312
 21
49.309
  0
LINE
  8
0
 10
272.312
 20
49.309
 11
272.193
 21
49.2071
  0
LINE
  8
0
 10
272.193
 20
49.2071
 11
272.091
 21
49.0878
  0
LINE
  8
0
 10
272.091
 20
49.0878
 11
272.009
 21
48.954
  0
LINE
  8
0
 10
272.009
 20
48.954
 11
271.949
 21
48.809
  0
LINE
  8
0
 10
271.949
 20
48.809
 11
271.912
 21
48.6564
  0
LINE
  8
0
 10
271.912
 20
48.6564
 11
271.9
 21
48.5
  0
LINE
  8
0
 10
271.9
 20
48.5
 11
271.9
 21
33.75
  0
LINE
  8
0
 10
271.9
 20
33.75
 11
279.4
 21
33.75
  0
LINE
  8
0
 10
279.4
 20
33.75
 11
279.478
 21
33.7439
  0
LINE
  8
0
 10
279.478
 20
33.7439
 11
279.555
 21
33.7255
  0
LINE
  8
0
 10
279.555
 20
33.7255
 11
279.627
 21
33.6955
  0
LINE
  8
0
 10
279.627
 20
33.6955
 11
279.694
 21
33.6545
  0
LINE
  8
0
 10
279.694
 20
33.6545
 11
279.754
 21
33.6035
  0
LINE
  8
0
 10
279.754
 20
33.6035
 11
279.805
 21
33.5439
  0
LINE
  8
0
 10
279.805
 20
33.5439
 11
279.846
 21
33.477
  0
LINE
  8
0
 10
279.846
 20
33.477
 11
279.876
 21
33.4045
  0
LINE
  8
0
 10
279.876
 20
33.4045
 11
279.894
 21
33.3282
  0
LINE
  8
0
 10
279.894
 20
33.3282
 11
279.9
 21
33.25
  0
LINE
  8
0
 10
279.9
 20
33.25
 11
279.9
 21
23.75
  0
LINE
  8
0
 10
279.9
 20
23.75
 11
279.894
 21
23.6718
  0
LINE
  8
0
 10
279.894
 20
23.6718
 11
279.876
 21
23.5955
  0
LINE
  8
0
 10
279.876
 20
23.5955
 11
279.846
 21
23.523
  0
LINE
  8
0
 10
279.846
 20
23.523
 11
279.805
 21
23.4561
  0
LINE
  8
0
 10
279.805
 20
23.4561
 11
279.754
 21
23.3965
  0
LINE
  8
0
 10
279.754
 20
23.3965
 11
279.694
 21
23.3455
  0
LINE
  8
0
 10
279.694
 20
23.3455
 11
279.627
 21
23.3045
  0
LINE
  8
0
 10
279.627
 20
23.3045
 11
279.555
 21
23.2745
  0
LINE
  8
0
 10
279.555
 20
23.2745
 11
279.478
 21
23.2561
  0
LINE
  8
0
 10
279.478
 20
23.2561
 11
279.4
 21
23.25
  0
LINE
  8
0
 10
279.4
 20
23.25
 11
271.9
 21
23.25
  0
LINE
  8
0
 10
271.9
 20
23.25
 11
271.9
 21
20.885
  0
LINE
  8
0
 10
271.9
 20
20.885
 11
271.888
 21
20.7285
  0
LINE
  8
0
 10
271.888
 20
20.7285
 11
271.851
 21
20.5759
  0
LINE
  8
0
 10
271.851
 20
20.5759
 11
271.791
 21
20.431
  0
LINE
  8
0
 10
271.791
 20
20.431
 11
271.709
 21
20.2972
  0
LINE
  8
0
 10
271.709
 20
20.2972
 11
271.607
 21
20.1779
  0
LINE
  8
0
 10
271.607
 20
20.1779
 11
271.488
 21
20.076
  0
LINE
  8
0
 10
271.488
 20
20.076
 11
271.354
 21
19.994
  0
LINE
  8
0
 10
271.354
 20
19.994
 11
271.209
 21
19.934
  0
LINE
  8
0
 10
271.209
 20
19.934
 11
271.056
 21
19.8973
  0
LINE
  8
0
 10
271.056
 20
19.8973
 11
270.9
 21
19.885
  0
LINE
  8
0
 10
270.9
 20
19.885
 11
252.8
 21
19.885
  0
LINE
  8
0
 10
252.8
 20
19.885
 11
252.644
 21
19.8727
  0
LINE
  8
0
 10
252.644
 20
19.8727
 11
252.491
 21
19.836
  0
LINE
  8
0
 10
252.491
 20
19.836
 11
252.346
 21
19.776
  0
LINE
  8
0
 10
252.346
 20
19.776
 11
252.212
 21
19.694
  0
LINE
  8
0
 10
252.212
 20
19.694
 11
252.093
 21
19.5921
  0
LINE
  8
0
 10
252.093
 20
19.5921
 11
251.991
 21
19.4728
  0
LINE
  8
0
 10
251.991
 20
19.4728
 11
251.909
 21
19.339
  0
LINE
  8
0
 10
251.909
 20
19.339
 11
251.849
 21
19.194
  0
LINE
  8
0
 10
251.849
 20
19.194
 11
251.812
 21
19.0414
  0
LINE
  8
0
 10
251.812
 20
19.0414
 11
251.8
 21
18.885
  0
LINE
  8
0
 10
251.8
 20
18.885
 11
251.8
 21
8.5
  0
LINE
  8
0
 10
251.8
 20
8.5
 11
251.812
 21
8.34357
  0
LINE
  8
0
 10
251.812
 20
8.34357
 11
251.849
 21
8.19098
  0
LINE
  8
0
 10
251.849
 20
8.19098
 11
251.909
 21
8.04601
  0
LINE
  8
0
 10
251.909
 20
8.04601
 11
251.991
 21
7.91222
  0
LINE
  8
0
 10
251.991
 20
7.91222
 11
252.093
 21
7.79289
  0
LINE
  8
0
 10
252.093
 20
7.79289
 11
252.212
 21
7.69098
  0
LINE
  8
0
 10
252.212
 20
7.69098
 11
252.346
 21
7.60899
  0
LINE
  8
0
 10
252.346
 20
7.60899
 11
252.491
 21
7.54895
  0
LINE
  8
0
 10
252.491
 20
7.54895
 11
252.644
 21
7.51231
  0
LINE
  8
0
 10
252.644
 20
7.51231
 11
252.8
 21
7.5
  0
LINE
  8
0
 10
252.8
 20
7.5
 11
296.4
 21
7.5
  0
LINE
  8
0
 10
296.4
 20
7.5
 11
296.556
 21
7.51231
  0
ENDSEC
  0
SECTION
  2
OBJECTS
  0
DICTIONARY
  0
ENDSEC
  0
EOF
