  0
SECTION
  2
BLOCKS
  0
ENDSEC
  0
SECTION
  2
ENTITIES
  0
LINE
  8
0
 10
453.36
 20
15.6062
 11
453.437
 21
15.6245
  0
LINE
  8
0
 10
453.437
 20
15.6245
 11
453.509
 21
15.6545
  0
LINE
  8
0
 10
453.509
 20
15.6545
 11
453.576
 21
15.6955
  0
LINE
  8
0
 10
453.576
 20
15.6955
 11
453.636
 21
15.7465
  0
LINE
  8
0
 10
453.636
 20
15.7465
 11
453.687
 21
15.8061
  0
LINE
  8
0
 10
453.687
 20
15.8061
 11
453.728
 21
15.873
  0
LINE
  8
0
 10
453.728
 20
15.873
 11
453.758
 21
15.9455
  0
LINE
  8
0
 10
453.758
 20
15.9455
 11
453.776
 21
16.0218
  0
LINE
  8
0
 10
453.776
 20
16.0218
 11
453.782
 21
16.1
  0
LINE
  8
0
 10
453.782
 20
16.1
 11
453.782
 21
40.9
  0
LINE
  8
0
 10
453.782
 20
40.9
 11
453.776
 21
40.9782
  0
LINE
  8
0
 10
453.776
 20
40.9782
 11
453.758
 21
41.0545
  0
LINE
  8
0
 10
453.758
 20
41.0545
 11
453.728
 21
41.127
  0
LINE
  8
0
 10
453.728
 20
41.127
 11
453.687
 21
41.1939
  0
LINE
  8
0
 10
453.687
 20
41.1939
 11
453.636
 21
41.2535
  0
LINE
  8
0
 10
453.636
 20
41.2535
 11
453.576
 21
41.3045
  0
LINE
  8
0
 10
453.576
 20
41.3045
 11
453.509
 21
41.3455
  0
LINE
  8
0
 10
453.509
 20
41.3455
 11
453.437
 21
41.3755
  0
LINE
  8
0
 10
453.437
 20
41.3755
 11
453.36
 21
41.3938
  0
LINE
  8
0
 10
453.36
 20
41.3938
 11
453.282
 21
41.4
  0
LINE
  8
0
 10
453.282
 20
41.4
 11
428.482
 21
41.4
  0
LINE
  8
0
 10
428.482
 20
41.4
 11
428.404
 21
41.3938
  0
LINE
  8
0
 10
428.404
 20
41.3938
 11
428.327
 21
41.3755
  0
LINE
  8
0
 10
428.327
 20
41.3755
 11
428.255
 21
41.3455
  0
LINE
  8
0
 10
428.255
 20
41.3455
 11
428.188
 21
41.3045
  0
LINE
  8
0
 10
428.188
 20
41.3045
 11
428.128
 21
41.2535
  0
LINE
  8
0
 10
428.128
 20
41.2535
 11
428.077
 21
41.1939
  0
LINE
  8
0
 10
428.077
 20
41.1939
 11
428.036
 21
41.127
  0
LINE
  8
0
 10
428.036
 20
41.127
 11
428.006
 21
41.0545
  0
LINE
  8
0
 10
428.006
 20
41.0545
 11
427.988
 21
40.9782
  0
LINE
  8
0
 10
427.988
 20
40.9782
 11
427.982
 21
40.9
  0
LINE
  8
0
 10
427.982
 20
40.9
 11
427.982
 21
16.1
  0
LINE
  8
0
 10
427.982
 20
16.1
 11
427.988
 21
16.0218
  0
LINE
  8
0
 10
427.988
 20
16.0218
 11
428.006
 21
15.9455
  0
LINE
  8
0
 10
428.006
 20
15.9455
 11
428.036
 21
15.873
  0
LINE
  8
0
 10
428.036
 20
15.873
 11
428.077
 21
15.8061
  0
LINE
  8
0
 10
428.077
 20
15.8061
 11
428.128
 21
15.7465
  0
LINE
  8
0
 10
428.128
 20
15.7465
 11
428.188
 21
15.6955
  0
LINE
  8
0
 10
428.188
 20
15.6955
 11
428.255
 21
15.6545
  0
LINE
  8
0
 10
428.255
 20
15.6545
 11
428.327
 21
15.6245
  0
LINE
  8
0
 10
428.327
 20
15.6245
 11
428.404
 21
15.6062
  0
LINE
  8
0
 10
428.404
 20
15.6062
 11
428.482
 21
15.6
  0
LINE
  8
0
 10
428.482
 20
15.6
 11
453.282
 21
15.6
  0
LINE
  8
0
 10
453.282
 20
15.6
 11
453.36
 21
15.6062
  0
ENDSEC
  0
SECTION
  2
OBJECTS
  0
DICTIONARY
  0
ENDSEC
  0
EOF
