  0
SECTION
  2
BLOCKS
  0
ENDSEC
  0
SECTION
  2
ENTITIES
  0
LINE
  8
0
 10
297.378
 20
15.6062
 11
297.455
 21
15.6245
  0
LINE
  8
0
 10
297.455
 20
15.6245
 11
297.527
 21
15.6545
  0
LINE
  8
0
 10
297.527
 20
15.6545
 11
297.594
 21
15.6955
  0
LINE
  8
0
 10
297.594
 20
15.6955
 11
297.654
 21
15.7465
  0
LINE
  8
0
 10
297.654
 20
15.7465
 11
297.705
 21
15.8061
  0
LINE
  8
0
 10
297.705
 20
15.8061
 11
297.746
 21
15.873
  0
LINE
  8
0
 10
297.746
 20
15.873
 11
297.776
 21
15.9455
  0
LINE
  8
0
 10
297.776
 20
15.9455
 11
297.794
 21
16.0218
  0
LINE
  8
0
 10
297.794
 20
16.0218
 11
297.8
 21
16.1
  0
LINE
  8
0
 10
297.8
 20
16.1
 11
297.8
 21
40.9
  0
LINE
  8
0
 10
297.8
 20
40.9
 11
297.794
 21
40.9782
  0
LINE
  8
0
 10
297.794
 20
40.9782
 11
297.776
 21
41.0545
  0
LINE
  8
0
 10
297.776
 20
41.0545
 11
297.746
 21
41.127
  0
LINE
  8
0
 10
297.746
 20
41.127
 11
297.705
 21
41.1939
  0
LINE
  8
0
 10
297.705
 20
41.1939
 11
297.654
 21
41.2535
  0
LINE
  8
0
 10
297.654
 20
41.2535
 11
297.594
 21
41.3045
  0
LINE
  8
0
 10
297.594
 20
41.3045
 11
297.527
 21
41.3455
  0
LINE
  8
0
 10
297.527
 20
41.3455
 11
297.455
 21
41.3755
  0
LINE
  8
0
 10
297.455
 20
41.3755
 11
297.378
 21
41.3938
  0
LINE
  8
0
 10
297.378
 20
41.3938
 11
297.3
 21
41.4
  0
LINE
  8
0
 10
297.3
 20
41.4
 11
272.5
 21
41.4
  0
LINE
  8
0
 10
272.5
 20
41.4
 11
272.422
 21
41.3938
  0
LINE
  8
0
 10
272.422
 20
41.3938
 11
272.345
 21
41.3755
  0
LINE
  8
0
 10
272.345
 20
41.3755
 11
272.273
 21
41.3455
  0
LINE
  8
0
 10
272.273
 20
41.3455
 11
272.206
 21
41.3045
  0
LINE
  8
0
 10
272.206
 20
41.3045
 11
272.146
 21
41.2535
  0
LINE
  8
0
 10
272.146
 20
41.2535
 11
272.095
 21
41.1939
  0
LINE
  8
0
 10
272.095
 20
41.1939
 11
272.054
 21
41.127
  0
LINE
  8
0
 10
272.054
 20
41.127
 11
272.024
 21
41.0545
  0
LINE
  8
0
 10
272.024
 20
41.0545
 11
272.006
 21
40.9782
  0
LINE
  8
0
 10
272.006
 20
40.9782
 11
272
 21
40.9
  0
LINE
  8
0
 10
272
 20
40.9
 11
272
 21
16.1
  0
LINE
  8
0
 10
272
 20
16.1
 11
272.006
 21
16.0218
  0
LINE
  8
0
 10
272.006
 20
16.0218
 11
272.024
 21
15.9455
  0
LINE
  8
0
 10
272.024
 20
15.9455
 11
272.054
 21
15.873
  0
LINE
  8
0
 10
272.054
 20
15.873
 11
272.095
 21
15.8061
  0
LINE
  8
0
 10
272.095
 20
15.8061
 11
272.146
 21
15.7465
  0
LINE
  8
0
 10
272.146
 20
15.7465
 11
272.206
 21
15.6955
  0
LINE
  8
0
 10
272.206
 20
15.6955
 11
272.273
 21
15.6545
  0
LINE
  8
0
 10
272.273
 20
15.6545
 11
272.345
 21
15.6245
  0
LINE
  8
0
 10
272.345
 20
15.6245
 11
272.422
 21
15.6062
  0
LINE
  8
0
 10
272.422
 20
15.6062
 11
272.5
 21
15.6
  0
LINE
  8
0
 10
272.5
 20
15.6
 11
297.3
 21
15.6
  0
LINE
  8
0
 10
297.3
 20
15.6
 11
297.378
 21
15.6062
  0
ENDSEC
  0
SECTION
  2
OBJECTS
  0
DICTIONARY
  0
ENDSEC
  0
EOF
