  0
SECTION
  2
BLOCKS
  0
ENDSEC
  0
SECTION
  2
ENTITIES
  0
LINE
  8
0
 10
491.36
 20
15.6062
 11
491.437
 21
15.6245
  0
LINE
  8
0
 10
491.437
 20
15.6245
 11
491.509
 21
15.6545
  0
LINE
  8
0
 10
491.509
 20
15.6545
 11
491.576
 21
15.6955
  0
LINE
  8
0
 10
491.576
 20
15.6955
 11
491.636
 21
15.7465
  0
LINE
  8
0
 10
491.636
 20
15.7465
 11
491.687
 21
15.8061
  0
LINE
  8
0
 10
491.687
 20
15.8061
 11
491.728
 21
15.873
  0
LINE
  8
0
 10
491.728
 20
15.873
 11
491.758
 21
15.9455
  0
LINE
  8
0
 10
491.758
 20
15.9455
 11
491.776
 21
16.0218
  0
LINE
  8
0
 10
491.776
 20
16.0218
 11
491.782
 21
16.1
  0
LINE
  8
0
 10
491.782
 20
16.1
 11
491.782
 21
40.9
  0
LINE
  8
0
 10
491.782
 20
40.9
 11
491.776
 21
40.9782
  0
LINE
  8
0
 10
491.776
 20
40.9782
 11
491.758
 21
41.0545
  0
LINE
  8
0
 10
491.758
 20
41.0545
 11
491.728
 21
41.127
  0
LINE
  8
0
 10
491.728
 20
41.127
 11
491.687
 21
41.1939
  0
LINE
  8
0
 10
491.687
 20
41.1939
 11
491.636
 21
41.2535
  0
LINE
  8
0
 10
491.636
 20
41.2535
 11
491.576
 21
41.3045
  0
LINE
  8
0
 10
491.576
 20
41.3045
 11
491.509
 21
41.3455
  0
LINE
  8
0
 10
491.509
 20
41.3455
 11
491.437
 21
41.3755
  0
LINE
  8
0
 10
491.437
 20
41.3755
 11
491.36
 21
41.3938
  0
LINE
  8
0
 10
491.36
 20
41.3938
 11
491.282
 21
41.4
  0
LINE
  8
0
 10
491.282
 20
41.4
 11
466.482
 21
41.4
  0
LINE
  8
0
 10
466.482
 20
41.4
 11
466.404
 21
41.3938
  0
LINE
  8
0
 10
466.404
 20
41.3938
 11
466.327
 21
41.3755
  0
LINE
  8
0
 10
466.327
 20
41.3755
 11
466.255
 21
41.3455
  0
LINE
  8
0
 10
466.255
 20
41.3455
 11
466.188
 21
41.3045
  0
LINE
  8
0
 10
466.188
 20
41.3045
 11
466.128
 21
41.2535
  0
LINE
  8
0
 10
466.128
 20
41.2535
 11
466.077
 21
41.1939
  0
LINE
  8
0
 10
466.077
 20
41.1939
 11
466.036
 21
41.127
  0
LINE
  8
0
 10
466.036
 20
41.127
 11
466.006
 21
41.0545
  0
LINE
  8
0
 10
466.006
 20
41.0545
 11
465.988
 21
40.9782
  0
LINE
  8
0
 10
465.988
 20
40.9782
 11
465.982
 21
40.9
  0
LINE
  8
0
 10
465.982
 20
40.9
 11
465.982
 21
16.1
  0
LINE
  8
0
 10
465.982
 20
16.1
 11
465.988
 21
16.0218
  0
LINE
  8
0
 10
465.988
 20
16.0218
 11
466.006
 21
15.9455
  0
LINE
  8
0
 10
466.006
 20
15.9455
 11
466.036
 21
15.873
  0
LINE
  8
0
 10
466.036
 20
15.873
 11
466.077
 21
15.8061
  0
LINE
  8
0
 10
466.077
 20
15.8061
 11
466.128
 21
15.7465
  0
LINE
  8
0
 10
466.128
 20
15.7465
 11
466.188
 21
15.6955
  0
LINE
  8
0
 10
466.188
 20
15.6955
 11
466.255
 21
15.6545
  0
LINE
  8
0
 10
466.255
 20
15.6545
 11
466.327
 21
15.6245
  0
LINE
  8
0
 10
466.327
 20
15.6245
 11
466.404
 21
15.6062
  0
LINE
  8
0
 10
466.404
 20
15.6062
 11
466.482
 21
15.6
  0
LINE
  8
0
 10
466.482
 20
15.6
 11
491.282
 21
15.6
  0
LINE
  8
0
 10
491.282
 20
15.6
 11
491.36
 21
15.6062
  0
ENDSEC
  0
SECTION
  2
OBJECTS
  0
DICTIONARY
  0
ENDSEC
  0
EOF
