  0
SECTION
  2
BLOCKS
  0
ENDSEC
  0
SECTION
  2
ENTITIES
  0
LINE
  8
0
 10
296.556
 20
7.51231
 11
296.709
 21
7.54895
  0
LINE
  8
0
 10
296.709
 20
7.54895
 11
296.854
 21
7.60899
  0
LINE
  8
0
 10
296.854
 20
7.60899
 11
296.988
 21
7.69098
  0
LINE
  8
0
 10
296.988
 20
7.69098
 11
297.107
 21
7.79289
  0
LINE
  8
0
 10
297.107
 20
7.79289
 11
297.209
 21
7.91222
  0
LINE
  8
0
 10
297.209
 20
7.91222
 11
297.291
 21
8.04601
  0
LINE
  8
0
 10
297.291
 20
8.04601
 11
297.351
 21
8.19098
  0
LINE
  8
0
 10
297.351
 20
8.19098
 11
297.388
 21
8.34357
  0
LINE
  8
0
 10
297.388
 20
8.34357
 11
297.4
 21
8.5
  0
LINE
  8
0
 10
297.4
 20
8.5
 11
297.4
 21
48.5
  0
LINE
  8
0
 10
297.4
 20
48.5
 11
297.388
 21
48.6564
  0
LINE
  8
0
 10
297.388
 20
48.6564
 11
297.351
 21
48.809
  0
LINE
  8
0
 10
297.351
 20
48.809
 11
297.291
 21
48.954
  0
LINE
  8
0
 10
297.291
 20
48.954
 11
297.209
 21
49.0878
  0
LINE
  8
0
 10
297.209
 20
49.0878
 11
297.107
 21
49.2071
  0
LINE
  8
0
 10
297.107
 20
49.2071
 11
296.988
 21
49.309
  0
LINE
  8
0
 10
296.988
 20
49.309
 11
296.854
 21
49.391
  0
LINE
  8
0
 10
296.854
 20
49.391
 11
296.709
 21
49.451
  0
LINE
  8
0
 10
296.709
 20
49.451
 11
296.556
 21
49.4877
  0
LINE
  8
0
 10
296.556
 20
49.4877
 11
296.4
 21
49.5
  0
LINE
  8
0
 10
296.4
 20
49.5
 11
272.4
 21
49.5
  0
LINE
  8
0
 10
272.4
 20
49.5
 11
272.244
 21
49.4877
  0
LINE
  8
0
 10
272.244
 20
49.4877
 11
272.091
 21
49.451
  0
LINE
  8
0
 10
272.091
 20
49.451
 11
271.946
 21
49.391
  0
LINE
  8
0
 10
271.946
 20
49.391
 11
271.812
 21
49.309
  0
LINE
  8
0
 10
271.812
 20
49.309
 11
271.693
 21
49.2071
  0
LINE
  8
0
 10
271.693
 20
49.2071
 11
271.591
 21
49.0878
  0
LINE
  8
0
 10
271.591
 20
49.0878
 11
271.509
 21
48.954
  0
LINE
  8
0
 10
271.509
 20
48.954
 11
271.449
 21
48.809
  0
LINE
  8
0
 10
271.449
 20
48.809
 11
271.412
 21
48.6564
  0
LINE
  8
0
 10
271.412
 20
48.6564
 11
271.4
 21
48.5
  0
LINE
  8
0
 10
271.4
 20
48.5
 11
271.4
 21
38.5
  0
LINE
  8
0
 10
271.4
 20
38.5
 11
271.412
 21
38.3436
  0
LINE
  8
0
 10
271.412
 20
38.3436
 11
271.449
 21
38.191
  0
LINE
  8
0
 10
271.449
 20
38.191
 11
271.509
 21
38.046
  0
LINE
  8
0
 10
271.509
 20
38.046
 11
271.591
 21
37.9122
  0
LINE
  8
0
 10
271.591
 20
37.9122
 11
271.693
 21
37.7929
  0
LINE
  8
0
 10
271.693
 20
37.7929
 11
271.812
 21
37.691
  0
LINE
  8
0
 10
271.812
 20
37.691
 11
271.946
 21
37.609
  0
LINE
  8
0
 10
271.946
 20
37.609
 11
272.091
 21
37.549
  0
LINE
  8
0
 10
272.091
 20
37.549
 11
272.244
 21
37.5123
  0
LINE
  8
0
 10
272.244
 20
37.5123
 11
272.4
 21
37.5
  0
LINE
  8
0
 10
272.4
 20
37.5
 11
279.9
 21
37.5
  0
LINE
  8
0
 10
279.9
 20
37.5
 11
280.056
 21
37.4877
  0
LINE
  8
0
 10
280.056
 20
37.4877
 11
280.209
 21
37.451
  0
LINE
  8
0
 10
280.209
 20
37.451
 11
280.354
 21
37.391
  0
LINE
  8
0
 10
280.354
 20
37.391
 11
280.488
 21
37.309
  0
LINE
  8
0
 10
280.488
 20
37.309
 11
280.607
 21
37.2071
  0
LINE
  8
0
 10
280.607
 20
37.2071
 11
280.709
 21
37.0878
  0
LINE
  8
0
 10
280.709
 20
37.0878
 11
280.791
 21
36.954
  0
LINE
  8
0
 10
280.791
 20
36.954
 11
280.851
 21
36.8091
  0
LINE
  8
0
 10
280.851
 20
36.8091
 11
280.888
 21
36.6564
  0
LINE
  8
0
 10
280.888
 20
36.6564
 11
280.9
 21
36.5
  0
LINE
  8
0
 10
280.9
 20
36.5
 11
280.9
 21
20.5
  0
LINE
  8
0
 10
280.9
 20
20.5
 11
280.888
 21
20.3436
  0
LINE
  8
0
 10
280.888
 20
20.3436
 11
280.851
 21
20.1909
  0
LINE
  8
0
 10
280.851
 20
20.1909
 11
280.791
 21
20.046
  0
LINE
  8
0
 10
280.791
 20
20.046
 11
280.709
 21
19.9122
  0
LINE
  8
0
 10
280.709
 20
19.9122
 11
280.607
 21
19.7929
  0
LINE
  8
0
 10
280.607
 20
19.7929
 11
280.488
 21
19.691
  0
LINE
  8
0
 10
280.488
 20
19.691
 11
280.354
 21
19.609
  0
LINE
  8
0
 10
280.354
 20
19.609
 11
280.209
 21
19.549
  0
LINE
  8
0
 10
280.209
 20
19.549
 11
280.056
 21
19.5123
  0
LINE
  8
0
 10
280.056
 20
19.5123
 11
279.9
 21
19.5
  0
LINE
  8
0
 10
279.9
 20
19.5
 11
271.4
 21
19.5
  0
LINE
  8
0
 10
271.4
 20
19.5
 11
271.244
 21
19.5123
  0
LINE
  8
0
 10
271.244
 20
19.5123
 11
271.091
 21
19.549
  0
LINE
  8
0
 10
271.091
 20
19.549
 11
270.946
 21
19.609
  0
LINE
  8
0
 10
270.946
 20
19.609
 11
270.752
 21
19.7276
  0
LINE
  8
0
 10
270.752
 20
19.7276
 11
270.739
 21
19.7376
  0
LINE
  8
0
 10
270.739
 20
19.7376
 11
270.599
 21
19.8089
  0
LINE
  8
0
 10
270.599
 20
19.8089
 11
270.45
 21
19.8574
  0
LINE
  8
0
 10
270.45
 20
19.8574
 11
270.295
 21
19.8819
  0
LINE
  8
0
 10
270.295
 20
19.8819
 11
270.216
 21
19.885
  0
LINE
  8
0
 10
270.216
 20
19.885
 11
252
 21
19.885
  0
LINE
  8
0
 10
252
 20
19.885
 11
251.844
 21
19.8727
  0
LINE
  8
0
 10
251.844
 20
19.8727
 11
251.691
 21
19.836
  0
LINE
  8
0
 10
251.691
 20
19.836
 11
251.546
 21
19.776
  0
LINE
  8
0
 10
251.546
 20
19.776
 11
251.412
 21
19.694
  0
LINE
  8
0
 10
251.412
 20
19.694
 11
251.293
 21
19.5921
  0
LINE
  8
0
 10
251.293
 20
19.5921
 11
251.191
 21
19.4728
  0
LINE
  8
0
 10
251.191
 20
19.4728
 11
251.109
 21
19.339
  0
LINE
  8
0
 10
251.109
 20
19.339
 11
251.049
 21
19.194
  0
LINE
  8
0
 10
251.049
 20
19.194
 11
251.012
 21
19.0414
  0
LINE
  8
0
 10
251.012
 20
19.0414
 11
251
 21
18.885
  0
LINE
  8
0
 10
251
 20
18.885
 11
251
 21
8.5
  0
LINE
  8
0
 10
251
 20
8.5
 11
251.012
 21
8.34357
  0
LINE
  8
0
 10
251.012
 20
8.34357
 11
251.049
 21
8.19098
  0
LINE
  8
0
 10
251.049
 20
8.19098
 11
251.109
 21
8.04601
  0
LINE
  8
0
 10
251.109
 20
8.04601
 11
251.191
 21
7.91222
  0
LINE
  8
0
 10
251.191
 20
7.91222
 11
251.293
 21
7.79289
  0
LINE
  8
0
 10
251.293
 20
7.79289
 11
251.412
 21
7.69098
  0
LINE
  8
0
 10
251.412
 20
7.69098
 11
251.546
 21
7.60899
  0
LINE
  8
0
 10
251.546
 20
7.60899
 11
251.691
 21
7.54895
  0
LINE
  8
0
 10
251.691
 20
7.54895
 11
251.844
 21
7.51231
  0
LINE
  8
0
 10
251.844
 20
7.51231
 11
252
 21
7.5
  0
LINE
  8
0
 10
252
 20
7.5
 11
296.4
 21
7.5
  0
LINE
  8
0
 10
296.4
 20
7.5
 11
296.556
 21
7.51231
  0
ENDSEC
  0
SECTION
  2
OBJECTS
  0
DICTIONARY
  0
ENDSEC
  0
EOF
