  0
SECTION
  2
BLOCKS
  0
ENDSEC
  0
SECTION
  2
ENTITIES
  0
LINE
  8
0
 10
55.7346
 20
0.0184631
 11
55.9635
 21
0.07341
  0
LINE
  8
0
 10
55.9635
 20
0.07341
 11
56.181
 21
0.163483
  0
LINE
  8
0
 10
56.181
 20
0.163483
 11
56.3817
 21
0.286469
  0
LINE
  8
0
 10
56.3817
 20
0.286469
 11
56.5607
 21
0.439346
  0
LINE
  8
0
 10
56.5607
 20
0.439346
 11
56.7135
 21
0.618317
  0
LINE
  8
0
 10
56.7135
 20
0.618317
 11
56.8365
 21
0.819016
  0
LINE
  8
0
 10
56.8365
 20
0.819016
 11
56.9266
 21
1.03647
  0
LINE
  8
0
 10
56.9266
 20
1.03647
 11
56.9815
 21
1.26535
  0
LINE
  8
0
 10
56.9815
 20
1.26535
 11
57
 21
1.5
  0
LINE
  8
0
 10
57
 20
1.5
 11
57
 21
37.5
  0
LINE
  8
0
 10
57
 20
37.5
 11
56.9815
 21
37.7346
  0
LINE
  8
0
 10
56.9815
 20
37.7346
 11
56.9266
 21
37.9635
  0
LINE
  8
0
 10
56.9266
 20
37.9635
 11
56.8365
 21
38.181
  0
LINE
  8
0
 10
56.8365
 20
38.181
 11
56.7135
 21
38.3817
  0
LINE
  8
0
 10
56.7135
 20
38.3817
 11
56.5607
 21
38.5607
  0
LINE
  8
0
 10
56.5607
 20
38.5607
 11
56.3817
 21
38.7135
  0
LINE
  8
0
 10
56.3817
 20
38.7135
 11
56.181
 21
38.8365
  0
LINE
  8
0
 10
56.181
 20
38.8365
 11
55.9635
 21
38.9266
  0
LINE
  8
0
 10
55.9635
 20
38.9266
 11
55.7346
 21
38.9815
  0
LINE
  8
0
 10
55.7346
 20
38.9815
 11
55.5
 21
39
  0
LINE
  8
0
 10
55.5
 20
39
 11
1.5
 21
39
  0
LINE
  8
0
 10
1.5
 20
39
 11
1.26535
 21
38.9815
  0
LINE
  8
0
 10
1.26535
 20
38.9815
 11
1.03647
 21
38.9266
  0
LINE
  8
0
 10
1.03647
 20
38.9266
 11
0.819016
 21
38.8365
  0
LINE
  8
0
 10
0.819016
 20
38.8365
 11
0.618317
 21
38.7135
  0
LINE
  8
0
 10
0.618317
 20
38.7135
 11
0.439346
 21
38.5607
  0
LINE
  8
0
 10
0.439346
 20
38.5607
 11
0.286469
 21
38.3817
  0
LINE
  8
0
 10
0.286469
 20
38.3817
 11
0.163483
 21
38.181
  0
LINE
  8
0
 10
0.163483
 20
38.181
 11
0.07341
 21
37.9635
  0
LINE
  8
0
 10
0.07341
 20
37.9635
 11
0.0184631
 21
37.7346
  0
LINE
  8
0
 10
0.0184631
 20
37.7346
 11
0
 21
37.5
  0
LINE
  8
0
 10
0
 20
37.5
 11
0
 21
1.5
  0
LINE
  8
0
 10
0
 20
1.5
 11
0.0184631
 21
1.26535
  0
LINE
  8
0
 10
0.0184631
 20
1.26535
 11
0.07341
 21
1.03647
  0
LINE
  8
0
 10
0.07341
 20
1.03647
 11
0.163483
 21
0.819016
  0
LINE
  8
0
 10
0.163483
 20
0.819016
 11
0.286469
 21
0.618317
  0
LINE
  8
0
 10
0.286469
 20
0.618317
 11
0.439346
 21
0.439346
  0
LINE
  8
0
 10
0.439346
 20
0.439346
 11
0.618317
 21
0.286469
  0
LINE
  8
0
 10
0.618317
 20
0.286469
 11
0.819016
 21
0.163483
  0
LINE
  8
0
 10
0.819016
 20
0.163483
 11
1.03647
 21
0.07341
  0
LINE
  8
0
 10
1.03647
 20
0.07341
 11
1.26535
 21
0.0184631
  0
LINE
  8
0
 10
1.26535
 20
0.0184631
 11
1.5
 21
0
  0
LINE
  8
0
 10
1.5
 20
0
 11
55.5
 21
0
  0
LINE
  8
0
 10
55.5
 20
0
 11
55.7346
 21
0.0184631
  0
LINE
  8
0
 10
28.0307
 20
15.9369
 11
27.5729
 21
16.0468
  0
LINE
  8
0
 10
27.5729
 20
16.0468
 11
27.138
 21
16.227
  0
LINE
  8
0
 10
27.138
 20
16.227
 11
26.7366
 21
16.4729
  0
LINE
  8
0
 10
26.7366
 20
16.4729
 11
26.3787
 21
16.7787
  0
LINE
  8
0
 10
26.3787
 20
16.7787
 11
26.0729
 21
17.1366
  0
LINE
  8
0
 10
26.0729
 20
17.1366
 11
25.827
 21
17.538
  0
LINE
  8
0
 10
25.827
 20
17.538
 11
25.6468
 21
17.9729
  0
LINE
  8
0
 10
25.6468
 20
17.9729
 11
25.5369
 21
18.4307
  0
LINE
  8
0
 10
25.5369
 20
18.4307
 11
25.5
 21
18.9
  0
LINE
  8
0
 10
25.5
 20
18.9
 11
25.5369
 21
19.3693
  0
LINE
  8
0
 10
25.5369
 20
19.3693
 11
25.6468
 21
19.827
  0
LINE
  8
0
 10
25.6468
 20
19.827
 11
25.827
 21
20.262
  0
LINE
  8
0
 10
25.827
 20
20.262
 11
26.0729
 21
20.6633
  0
LINE
  8
0
 10
26.0729
 20
20.6633
 11
26.3787
 21
21.0213
  0
LINE
  8
0
 10
26.3787
 20
21.0213
 11
26.7366
 21
21.327
  0
LINE
  8
0
 10
26.7366
 20
21.327
 11
27.138
 21
21.573
  0
LINE
  8
0
 10
27.138
 20
21.573
 11
27.5729
 21
21.7532
  0
LINE
  8
0
 10
27.5729
 20
21.7532
 11
28.0307
 21
21.8631
  0
LINE
  8
0
 10
28.0307
 20
21.8631
 11
28.5
 21
21.9
  0
LINE
  8
0
 10
28.5
 20
21.9
 11
28.9693
 21
21.8631
  0
LINE
  8
0
 10
28.9693
 20
21.8631
 11
29.427
 21
21.7532
  0
LINE
  8
0
 10
29.427
 20
21.7532
 11
29.862
 21
21.573
  0
LINE
  8
0
 10
29.862
 20
21.573
 11
30.2634
 21
21.327
  0
LINE
  8
0
 10
30.2634
 20
21.327
 11
30.6213
 21
21.0213
  0
LINE
  8
0
 10
30.6213
 20
21.0213
 11
30.927
 21
20.6633
  0
LINE
  8
0
 10
30.927
 20
20.6633
 11
31.173
 21
20.262
  0
LINE
  8
0
 10
31.173
 20
20.262
 11
31.3532
 21
19.827
  0
LINE
  8
0
 10
31.3532
 20
19.827
 11
31.4631
 21
19.3693
  0
LINE
  8
0
 10
31.4631
 20
19.3693
 11
31.5
 21
18.9
  0
LINE
  8
0
 10
31.5
 20
18.9
 11
31.4631
 21
18.4307
  0
LINE
  8
0
 10
31.4631
 20
18.4307
 11
31.3532
 21
17.9729
  0
LINE
  8
0
 10
31.3532
 20
17.9729
 11
31.173
 21
17.538
  0
LINE
  8
0
 10
31.173
 20
17.538
 11
30.927
 21
17.1366
  0
LINE
  8
0
 10
30.927
 20
17.1366
 11
30.6213
 21
16.7787
  0
LINE
  8
0
 10
30.6213
 20
16.7787
 11
30.2634
 21
16.4729
  0
LINE
  8
0
 10
30.2634
 20
16.4729
 11
29.862
 21
16.227
  0
LINE
  8
0
 10
29.862
 20
16.227
 11
29.427
 21
16.0468
  0
LINE
  8
0
 10
29.427
 20
16.0468
 11
28.9693
 21
15.9369
  0
LINE
  8
0
 10
28.9693
 20
15.9369
 11
28.5
 21
15.9
  0
LINE
  8
0
 10
28.5
 20
15.9
 11
28.0307
 21
15.9369
  0
ENDSEC
  0
SECTION
  2
OBJECTS
  0
DICTIONARY
  0
ENDSEC
  0
EOF
