  0
SECTION
  2
BLOCKS
  0
ENDSEC
  0
SECTION
  2
ENTITIES
  0
LINE
  8
0
 10
56.1564
 20
0.0123138
 11
56.309
 21
0.0489502
  0
LINE
  8
0
 10
56.309
 20
0.0489502
 11
56.454
 21
0.108994
  0
LINE
  8
0
 10
56.454
 20
0.108994
 11
56.5878
 21
0.190979
  0
LINE
  8
0
 10
56.5878
 20
0.190979
 11
56.7071
 21
0.292892
  0
LINE
  8
0
 10
56.7071
 20
0.292892
 11
56.809
 21
0.412216
  0
LINE
  8
0
 10
56.809
 20
0.412216
 11
56.891
 21
0.546005
  0
LINE
  8
0
 10
56.891
 20
0.546005
 11
56.951
 21
0.690979
  0
LINE
  8
0
 10
56.951
 20
0.690979
 11
56.9877
 21
0.843567
  0
LINE
  8
0
 10
56.9877
 20
0.843567
 11
57
 21
1
  0
LINE
  8
0
 10
57
 20
1
 11
57
 21
38
  0
LINE
  8
0
 10
57
 20
38
 11
56.9877
 21
38.1564
  0
LINE
  8
0
 10
56.9877
 20
38.1564
 11
56.951
 21
38.309
  0
LINE
  8
0
 10
56.951
 20
38.309
 11
56.891
 21
38.454
  0
LINE
  8
0
 10
56.891
 20
38.454
 11
56.809
 21
38.5878
  0
LINE
  8
0
 10
56.809
 20
38.5878
 11
56.7071
 21
38.7071
  0
LINE
  8
0
 10
56.7071
 20
38.7071
 11
56.5878
 21
38.809
  0
LINE
  8
0
 10
56.5878
 20
38.809
 11
56.454
 21
38.891
  0
LINE
  8
0
 10
56.454
 20
38.891
 11
56.309
 21
38.951
  0
LINE
  8
0
 10
56.309
 20
38.951
 11
56.1564
 21
38.9877
  0
LINE
  8
0
 10
56.1564
 20
38.9877
 11
56
 21
39
  0
LINE
  8
0
 10
56
 20
39
 11
1
 21
39
  0
LINE
  8
0
 10
1
 20
39
 11
0.843567
 21
38.9877
  0
LINE
  8
0
 10
0.843567
 20
38.9877
 11
0.690979
 21
38.951
  0
LINE
  8
0
 10
0.690979
 20
38.951
 11
0.546005
 21
38.891
  0
LINE
  8
0
 10
0.546005
 20
38.891
 11
0.412216
 21
38.809
  0
LINE
  8
0
 10
0.412216
 20
38.809
 11
0.292892
 21
38.7071
  0
LINE
  8
0
 10
0.292892
 20
38.7071
 11
0.190979
 21
38.5878
  0
LINE
  8
0
 10
0.190979
 20
38.5878
 11
0.108994
 21
38.454
  0
LINE
  8
0
 10
0.108994
 20
38.454
 11
0.0489502
 21
38.309
  0
LINE
  8
0
 10
0.0489502
 20
38.309
 11
0.0123138
 21
38.1564
  0
LINE
  8
0
 10
0.0123138
 20
38.1564
 11
0
 21
38
  0
LINE
  8
0
 10
0
 20
38
 11
0
 21
1
  0
LINE
  8
0
 10
0
 20
1
 11
0.0123138
 21
0.843567
  0
LINE
  8
0
 10
0.0123138
 20
0.843567
 11
0.0489502
 21
0.690979
  0
LINE
  8
0
 10
0.0489502
 20
0.690979
 11
0.108994
 21
0.546005
  0
LINE
  8
0
 10
0.108994
 20
0.546005
 11
0.190979
 21
0.412216
  0
LINE
  8
0
 10
0.190979
 20
0.412216
 11
0.292892
 21
0.292892
  0
LINE
  8
0
 10
0.292892
 20
0.292892
 11
0.412216
 21
0.190979
  0
LINE
  8
0
 10
0.412216
 20
0.190979
 11
0.546005
 21
0.108994
  0
LINE
  8
0
 10
0.546005
 20
0.108994
 11
0.690979
 21
0.0489502
  0
LINE
  8
0
 10
0.690979
 20
0.0489502
 11
0.843567
 21
0.0123138
  0
LINE
  8
0
 10
0.843567
 20
0.0123138
 11
1
 21
0
  0
LINE
  8
0
 10
1
 20
0
 11
56
 21
0
  0
LINE
  8
0
 10
56
 20
0
 11
56.1564
 21
0.0123138
  0
LINE
  8
0
 10
28.0307
 20
15.9369
 11
27.5729
 21
16.0468
  0
LINE
  8
0
 10
27.5729
 20
16.0468
 11
27.138
 21
16.227
  0
LINE
  8
0
 10
27.138
 20
16.227
 11
26.7366
 21
16.4729
  0
LINE
  8
0
 10
26.7366
 20
16.4729
 11
26.3787
 21
16.7787
  0
LINE
  8
0
 10
26.3787
 20
16.7787
 11
26.0729
 21
17.1366
  0
LINE
  8
0
 10
26.0729
 20
17.1366
 11
25.827
 21
17.538
  0
LINE
  8
0
 10
25.827
 20
17.538
 11
25.6468
 21
17.9729
  0
LINE
  8
0
 10
25.6468
 20
17.9729
 11
25.5369
 21
18.4307
  0
LINE
  8
0
 10
25.5369
 20
18.4307
 11
25.5
 21
18.9
  0
LINE
  8
0
 10
25.5
 20
18.9
 11
25.5369
 21
19.3693
  0
LINE
  8
0
 10
25.5369
 20
19.3693
 11
25.6468
 21
19.827
  0
LINE
  8
0
 10
25.6468
 20
19.827
 11
25.827
 21
20.262
  0
LINE
  8
0
 10
25.827
 20
20.262
 11
26.0729
 21
20.6633
  0
LINE
  8
0
 10
26.0729
 20
20.6633
 11
26.3787
 21
21.0213
  0
LINE
  8
0
 10
26.3787
 20
21.0213
 11
26.7366
 21
21.327
  0
LINE
  8
0
 10
26.7366
 20
21.327
 11
27.138
 21
21.573
  0
LINE
  8
0
 10
27.138
 20
21.573
 11
27.5729
 21
21.7532
  0
LINE
  8
0
 10
27.5729
 20
21.7532
 11
28.0307
 21
21.8631
  0
LINE
  8
0
 10
28.0307
 20
21.8631
 11
28.5
 21
21.9
  0
LINE
  8
0
 10
28.5
 20
21.9
 11
28.9693
 21
21.8631
  0
LINE
  8
0
 10
28.9693
 20
21.8631
 11
29.427
 21
21.7532
  0
LINE
  8
0
 10
29.427
 20
21.7532
 11
29.862
 21
21.573
  0
LINE
  8
0
 10
29.862
 20
21.573
 11
30.2634
 21
21.327
  0
LINE
  8
0
 10
30.2634
 20
21.327
 11
30.6213
 21
21.0213
  0
LINE
  8
0
 10
30.6213
 20
21.0213
 11
30.927
 21
20.6633
  0
LINE
  8
0
 10
30.927
 20
20.6633
 11
31.173
 21
20.262
  0
LINE
  8
0
 10
31.173
 20
20.262
 11
31.3532
 21
19.827
  0
LINE
  8
0
 10
31.3532
 20
19.827
 11
31.4631
 21
19.3693
  0
LINE
  8
0
 10
31.4631
 20
19.3693
 11
31.5
 21
18.9
  0
LINE
  8
0
 10
31.5
 20
18.9
 11
31.4631
 21
18.4307
  0
LINE
  8
0
 10
31.4631
 20
18.4307
 11
31.3532
 21
17.9729
  0
LINE
  8
0
 10
31.3532
 20
17.9729
 11
31.173
 21
17.538
  0
LINE
  8
0
 10
31.173
 20
17.538
 11
30.927
 21
17.1366
  0
LINE
  8
0
 10
30.927
 20
17.1366
 11
30.6213
 21
16.7787
  0
LINE
  8
0
 10
30.6213
 20
16.7787
 11
30.2634
 21
16.4729
  0
LINE
  8
0
 10
30.2634
 20
16.4729
 11
29.862
 21
16.227
  0
LINE
  8
0
 10
29.862
 20
16.227
 11
29.427
 21
16.0468
  0
LINE
  8
0
 10
29.427
 20
16.0468
 11
28.9693
 21
15.9369
  0
LINE
  8
0
 10
28.9693
 20
15.9369
 11
28.5
 21
15.9
  0
LINE
  8
0
 10
28.5
 20
15.9
 11
28.0307
 21
15.9369
  0
ENDSEC
  0
SECTION
  2
OBJECTS
  0
DICTIONARY
  0
ENDSEC
  0
EOF
