  0
SECTION
  2
BLOCKS
  0
ENDSEC
  0
SECTION
  2
ENTITIES
  0
LINE
  8
0
 10
56.1564
 20
0.0123138
 11
56.309
 21
0.0489502
  0
LINE
  8
0
 10
56.309
 20
0.0489502
 11
56.454
 21
0.108994
  0
LINE
  8
0
 10
56.454
 20
0.108994
 11
56.5878
 21
0.190979
  0
LINE
  8
0
 10
56.5878
 20
0.190979
 11
56.7071
 21
0.292892
  0
LINE
  8
0
 10
56.7071
 20
0.292892
 11
56.809
 21
0.412216
  0
LINE
  8
0
 10
56.809
 20
0.412216
 11
56.891
 21
0.546005
  0
LINE
  8
0
 10
56.891
 20
0.546005
 11
56.951
 21
0.690979
  0
LINE
  8
0
 10
56.951
 20
0.690979
 11
56.9877
 21
0.843567
  0
LINE
  8
0
 10
56.9877
 20
0.843567
 11
57
 21
1
  0
LINE
  8
0
 10
57
 20
1
 11
57
 21
41
  0
LINE
  8
0
 10
57
 20
41
 11
56.9877
 21
41.1564
  0
LINE
  8
0
 10
56.9877
 20
41.1564
 11
56.951
 21
41.309
  0
LINE
  8
0
 10
56.951
 20
41.309
 11
56.891
 21
41.454
  0
LINE
  8
0
 10
56.891
 20
41.454
 11
56.809
 21
41.5878
  0
LINE
  8
0
 10
56.809
 20
41.5878
 11
56.7071
 21
41.7071
  0
LINE
  8
0
 10
56.7071
 20
41.7071
 11
56.5878
 21
41.809
  0
LINE
  8
0
 10
56.5878
 20
41.809
 11
56.454
 21
41.891
  0
LINE
  8
0
 10
56.454
 20
41.891
 11
56.309
 21
41.951
  0
LINE
  8
0
 10
56.309
 20
41.951
 11
56.1564
 21
41.9877
  0
LINE
  8
0
 10
56.1564
 20
41.9877
 11
56
 21
42
  0
LINE
  8
0
 10
56
 20
42
 11
1
 21
42
  0
LINE
  8
0
 10
1
 20
42
 11
0.843567
 21
41.9877
  0
LINE
  8
0
 10
0.843567
 20
41.9877
 11
0.690979
 21
41.951
  0
LINE
  8
0
 10
0.690979
 20
41.951
 11
0.546005
 21
41.891
  0
LINE
  8
0
 10
0.546005
 20
41.891
 11
0.412216
 21
41.809
  0
LINE
  8
0
 10
0.412216
 20
41.809
 11
0.292892
 21
41.7071
  0
LINE
  8
0
 10
0.292892
 20
41.7071
 11
0.190979
 21
41.5878
  0
LINE
  8
0
 10
0.190979
 20
41.5878
 11
0.108994
 21
41.454
  0
LINE
  8
0
 10
0.108994
 20
41.454
 11
0.0489502
 21
41.309
  0
LINE
  8
0
 10
0.0489502
 20
41.309
 11
0.0123138
 21
41.1564
  0
LINE
  8
0
 10
0.0123138
 20
41.1564
 11
0
 21
41
  0
LINE
  8
0
 10
0
 20
41
 11
0
 21
1
  0
LINE
  8
0
 10
0
 20
1
 11
0.0123138
 21
0.843567
  0
LINE
  8
0
 10
0.0123138
 20
0.843567
 11
0.0489502
 21
0.690979
  0
LINE
  8
0
 10
0.0489502
 20
0.690979
 11
0.108994
 21
0.546005
  0
LINE
  8
0
 10
0.108994
 20
0.546005
 11
0.190979
 21
0.412216
  0
LINE
  8
0
 10
0.190979
 20
0.412216
 11
0.292892
 21
0.292892
  0
LINE
  8
0
 10
0.292892
 20
0.292892
 11
0.412216
 21
0.190979
  0
LINE
  8
0
 10
0.412216
 20
0.190979
 11
0.546005
 21
0.108994
  0
LINE
  8
0
 10
0.546005
 20
0.108994
 11
0.690979
 21
0.0489502
  0
LINE
  8
0
 10
0.690979
 20
0.0489502
 11
0.843567
 21
0.0123138
  0
LINE
  8
0
 10
0.843567
 20
0.0123138
 11
1
 21
0
  0
LINE
  8
0
 10
1
 20
0
 11
56
 21
0
  0
LINE
  8
0
 10
56
 20
0
 11
56.1564
 21
0.0123138
  0
LINE
  8
0
 10
28.0307
 20
17.4369
 11
27.5729
 21
17.5468
  0
LINE
  8
0
 10
27.5729
 20
17.5468
 11
27.138
 21
17.727
  0
LINE
  8
0
 10
27.138
 20
17.727
 11
26.7366
 21
17.9729
  0
LINE
  8
0
 10
26.7366
 20
17.9729
 11
26.3787
 21
18.2787
  0
LINE
  8
0
 10
26.3787
 20
18.2787
 11
26.0729
 21
18.6366
  0
LINE
  8
0
 10
26.0729
 20
18.6366
 11
25.827
 21
19.038
  0
LINE
  8
0
 10
25.827
 20
19.038
 11
25.6468
 21
19.4729
  0
LINE
  8
0
 10
25.6468
 20
19.4729
 11
25.5369
 21
19.9307
  0
LINE
  8
0
 10
25.5369
 20
19.9307
 11
25.5
 21
20.4
  0
LINE
  8
0
 10
25.5
 20
20.4
 11
25.5369
 21
20.8693
  0
LINE
  8
0
 10
25.5369
 20
20.8693
 11
25.6468
 21
21.327
  0
LINE
  8
0
 10
25.6468
 20
21.327
 11
25.827
 21
21.762
  0
LINE
  8
0
 10
25.827
 20
21.762
 11
26.0729
 21
22.1633
  0
LINE
  8
0
 10
26.0729
 20
22.1633
 11
26.3787
 21
22.5213
  0
LINE
  8
0
 10
26.3787
 20
22.5213
 11
26.7366
 21
22.827
  0
LINE
  8
0
 10
26.7366
 20
22.827
 11
27.138
 21
23.073
  0
LINE
  8
0
 10
27.138
 20
23.073
 11
27.5729
 21
23.2532
  0
LINE
  8
0
 10
27.5729
 20
23.2532
 11
28.0307
 21
23.3631
  0
LINE
  8
0
 10
28.0307
 20
23.3631
 11
28.5
 21
23.4
  0
LINE
  8
0
 10
28.5
 20
23.4
 11
28.9693
 21
23.3631
  0
LINE
  8
0
 10
28.9693
 20
23.3631
 11
29.427
 21
23.2532
  0
LINE
  8
0
 10
29.427
 20
23.2532
 11
29.862
 21
23.073
  0
LINE
  8
0
 10
29.862
 20
23.073
 11
30.2634
 21
22.827
  0
LINE
  8
0
 10
30.2634
 20
22.827
 11
30.6213
 21
22.5213
  0
LINE
  8
0
 10
30.6213
 20
22.5213
 11
30.927
 21
22.1633
  0
LINE
  8
0
 10
30.927
 20
22.1633
 11
31.173
 21
21.762
  0
LINE
  8
0
 10
31.173
 20
21.762
 11
31.3532
 21
21.327
  0
LINE
  8
0
 10
31.3532
 20
21.327
 11
31.4631
 21
20.8693
  0
LINE
  8
0
 10
31.4631
 20
20.8693
 11
31.5
 21
20.4
  0
LINE
  8
0
 10
31.5
 20
20.4
 11
31.4631
 21
19.9307
  0
LINE
  8
0
 10
31.4631
 20
19.9307
 11
31.3532
 21
19.4729
  0
LINE
  8
0
 10
31.3532
 20
19.4729
 11
31.173
 21
19.038
  0
LINE
  8
0
 10
31.173
 20
19.038
 11
30.927
 21
18.6366
  0
LINE
  8
0
 10
30.927
 20
18.6366
 11
30.6213
 21
18.2787
  0
LINE
  8
0
 10
30.6213
 20
18.2787
 11
30.2634
 21
17.9729
  0
LINE
  8
0
 10
30.2634
 20
17.9729
 11
29.862
 21
17.727
  0
LINE
  8
0
 10
29.862
 20
17.727
 11
29.427
 21
17.5468
  0
LINE
  8
0
 10
29.427
 20
17.5468
 11
28.9693
 21
17.4369
  0
LINE
  8
0
 10
28.9693
 20
17.4369
 11
28.5
 21
17.4
  0
LINE
  8
0
 10
28.5
 20
17.4
 11
28.0307
 21
17.4369
  0
ENDSEC
  0
SECTION
  2
OBJECTS
  0
DICTIONARY
  0
ENDSEC
  0
EOF
