  0
SECTION
  2
BLOCKS
  0
ENDSEC
  0
SECTION
  2
ENTITIES
  0
LINE
  8
0
 10
56.1564
 20
0.0123138
 11
56.309
 21
0.0489502
  0
LINE
  8
0
 10
56.309
 20
0.0489502
 11
56.454
 21
0.108994
  0
LINE
  8
0
 10
56.454
 20
0.108994
 11
56.5878
 21
0.190979
  0
LINE
  8
0
 10
56.5878
 20
0.190979
 11
56.7071
 21
0.292892
  0
LINE
  8
0
 10
56.7071
 20
0.292892
 11
56.809
 21
0.412216
  0
LINE
  8
0
 10
56.809
 20
0.412216
 11
56.891
 21
0.546005
  0
LINE
  8
0
 10
56.891
 20
0.546005
 11
56.951
 21
0.690979
  0
LINE
  8
0
 10
56.951
 20
0.690979
 11
56.9877
 21
0.843567
  0
LINE
  8
0
 10
56.9877
 20
0.843567
 11
57
 21
1
  0
LINE
  8
0
 10
57
 20
1
 11
57
 21
37
  0
LINE
  8
0
 10
57
 20
37
 11
56.9877
 21
37.1564
  0
LINE
  8
0
 10
56.9877
 20
37.1564
 11
56.951
 21
37.309
  0
LINE
  8
0
 10
56.951
 20
37.309
 11
56.891
 21
37.454
  0
LINE
  8
0
 10
56.891
 20
37.454
 11
56.809
 21
37.5878
  0
LINE
  8
0
 10
56.809
 20
37.5878
 11
56.7071
 21
37.7071
  0
LINE
  8
0
 10
56.7071
 20
37.7071
 11
56.5878
 21
37.809
  0
LINE
  8
0
 10
56.5878
 20
37.809
 11
56.454
 21
37.891
  0
LINE
  8
0
 10
56.454
 20
37.891
 11
56.309
 21
37.951
  0
LINE
  8
0
 10
56.309
 20
37.951
 11
56.1564
 21
37.9877
  0
LINE
  8
0
 10
56.1564
 20
37.9877
 11
56
 21
38
  0
LINE
  8
0
 10
56
 20
38
 11
1
 21
38
  0
LINE
  8
0
 10
1
 20
38
 11
0.843567
 21
37.9877
  0
LINE
  8
0
 10
0.843567
 20
37.9877
 11
0.690979
 21
37.951
  0
LINE
  8
0
 10
0.690979
 20
37.951
 11
0.546005
 21
37.891
  0
LINE
  8
0
 10
0.546005
 20
37.891
 11
0.412216
 21
37.809
  0
LINE
  8
0
 10
0.412216
 20
37.809
 11
0.292892
 21
37.7071
  0
LINE
  8
0
 10
0.292892
 20
37.7071
 11
0.190979
 21
37.5878
  0
LINE
  8
0
 10
0.190979
 20
37.5878
 11
0.108994
 21
37.454
  0
LINE
  8
0
 10
0.108994
 20
37.454
 11
0.0489502
 21
37.309
  0
LINE
  8
0
 10
0.0489502
 20
37.309
 11
0.0123138
 21
37.1564
  0
LINE
  8
0
 10
0.0123138
 20
37.1564
 11
0
 21
37
  0
LINE
  8
0
 10
0
 20
37
 11
0
 21
1
  0
LINE
  8
0
 10
0
 20
1
 11
0.0123138
 21
0.843567
  0
LINE
  8
0
 10
0.0123138
 20
0.843567
 11
0.0489502
 21
0.690979
  0
LINE
  8
0
 10
0.0489502
 20
0.690979
 11
0.108994
 21
0.546005
  0
LINE
  8
0
 10
0.108994
 20
0.546005
 11
0.190979
 21
0.412216
  0
LINE
  8
0
 10
0.190979
 20
0.412216
 11
0.292892
 21
0.292892
  0
LINE
  8
0
 10
0.292892
 20
0.292892
 11
0.412216
 21
0.190979
  0
LINE
  8
0
 10
0.412216
 20
0.190979
 11
0.546005
 21
0.108994
  0
LINE
  8
0
 10
0.546005
 20
0.108994
 11
0.690979
 21
0.0489502
  0
LINE
  8
0
 10
0.690979
 20
0.0489502
 11
0.843567
 21
0.0123138
  0
LINE
  8
0
 10
0.843567
 20
0.0123138
 11
1
 21
0
  0
LINE
  8
0
 10
1
 20
0
 11
56
 21
0
  0
LINE
  8
0
 10
56
 20
0
 11
56.1564
 21
0.0123138
  0
LINE
  8
0
 10
28.0307
 20
15.4369
 11
27.5729
 21
15.5468
  0
LINE
  8
0
 10
27.5729
 20
15.5468
 11
27.138
 21
15.727
  0
LINE
  8
0
 10
27.138
 20
15.727
 11
26.7366
 21
15.9729
  0
LINE
  8
0
 10
26.7366
 20
15.9729
 11
26.3787
 21
16.2787
  0
LINE
  8
0
 10
26.3787
 20
16.2787
 11
26.0729
 21
16.6366
  0
LINE
  8
0
 10
26.0729
 20
16.6366
 11
25.827
 21
17.038
  0
LINE
  8
0
 10
25.827
 20
17.038
 11
25.6468
 21
17.4729
  0
LINE
  8
0
 10
25.6468
 20
17.4729
 11
25.5369
 21
17.9307
  0
LINE
  8
0
 10
25.5369
 20
17.9307
 11
25.5
 21
18.4
  0
LINE
  8
0
 10
25.5
 20
18.4
 11
25.5369
 21
18.8693
  0
LINE
  8
0
 10
25.5369
 20
18.8693
 11
25.6468
 21
19.327
  0
LINE
  8
0
 10
25.6468
 20
19.327
 11
25.827
 21
19.762
  0
LINE
  8
0
 10
25.827
 20
19.762
 11
26.0729
 21
20.1633
  0
LINE
  8
0
 10
26.0729
 20
20.1633
 11
26.3787
 21
20.5213
  0
LINE
  8
0
 10
26.3787
 20
20.5213
 11
26.7366
 21
20.827
  0
LINE
  8
0
 10
26.7366
 20
20.827
 11
27.138
 21
21.073
  0
LINE
  8
0
 10
27.138
 20
21.073
 11
27.5729
 21
21.2532
  0
LINE
  8
0
 10
27.5729
 20
21.2532
 11
28.0307
 21
21.3631
  0
LINE
  8
0
 10
28.0307
 20
21.3631
 11
28.5
 21
21.4
  0
LINE
  8
0
 10
28.5
 20
21.4
 11
28.9693
 21
21.3631
  0
LINE
  8
0
 10
28.9693
 20
21.3631
 11
29.427
 21
21.2532
  0
LINE
  8
0
 10
29.427
 20
21.2532
 11
29.862
 21
21.073
  0
LINE
  8
0
 10
29.862
 20
21.073
 11
30.2634
 21
20.827
  0
LINE
  8
0
 10
30.2634
 20
20.827
 11
30.6213
 21
20.5213
  0
LINE
  8
0
 10
30.6213
 20
20.5213
 11
30.927
 21
20.1633
  0
LINE
  8
0
 10
30.927
 20
20.1633
 11
31.173
 21
19.762
  0
LINE
  8
0
 10
31.173
 20
19.762
 11
31.3532
 21
19.327
  0
LINE
  8
0
 10
31.3532
 20
19.327
 11
31.4631
 21
18.8693
  0
LINE
  8
0
 10
31.4631
 20
18.8693
 11
31.5
 21
18.4
  0
LINE
  8
0
 10
31.5
 20
18.4
 11
31.4631
 21
17.9307
  0
LINE
  8
0
 10
31.4631
 20
17.9307
 11
31.3532
 21
17.4729
  0
LINE
  8
0
 10
31.3532
 20
17.4729
 11
31.173
 21
17.038
  0
LINE
  8
0
 10
31.173
 20
17.038
 11
30.927
 21
16.6366
  0
LINE
  8
0
 10
30.927
 20
16.6366
 11
30.6213
 21
16.2787
  0
LINE
  8
0
 10
30.6213
 20
16.2787
 11
30.2634
 21
15.9729
  0
LINE
  8
0
 10
30.2634
 20
15.9729
 11
29.862
 21
15.727
  0
LINE
  8
0
 10
29.862
 20
15.727
 11
29.427
 21
15.5468
  0
LINE
  8
0
 10
29.427
 20
15.5468
 11
28.9693
 21
15.4369
  0
LINE
  8
0
 10
28.9693
 20
15.4369
 11
28.5
 21
15.4
  0
LINE
  8
0
 10
28.5
 20
15.4
 11
28.0307
 21
15.4369
  0
ENDSEC
  0
SECTION
  2
OBJECTS
  0
DICTIONARY
  0
ENDSEC
  0
EOF
