  0
SECTION
  2
BLOCKS
  0
ENDSEC
  0
SECTION
  2
ENTITIES
  0
LINE
  8
0
 10
314.8
 20
57
 11
0
 21
57
  0
LINE
  8
0
 10
0
 20
57
 11
0
 21
0
  0
LINE
  8
0
 10
0
 20
0
 11
314.8
 21
0
  0
LINE
  8
0
 10
314.8
 20
0
 11
314.8
 21
57
  0
LINE
  8
0
 10
17.0341
 20
45.0209
 11
16.7747
 21
45.0832
  0
LINE
  8
0
 10
16.7747
 20
45.0832
 11
16.5282
 21
45.1853
  0
LINE
  8
0
 10
16.5282
 20
45.1853
 11
16.3008
 21
45.3247
  0
LINE
  8
0
 10
16.3008
 20
45.3247
 11
16.0979
 21
45.4979
  0
LINE
  8
0
 10
16.0979
 20
45.4979
 11
15.9247
 21
45.7008
  0
LINE
  8
0
 10
15.9247
 20
45.7008
 11
15.7853
 21
45.9282
  0
LINE
  8
0
 10
15.7853
 20
45.9282
 11
15.6832
 21
46.1747
  0
LINE
  8
0
 10
15.6832
 20
46.1747
 11
15.6209
 21
46.4341
  0
LINE
  8
0
 10
15.6209
 20
46.4341
 11
15.6
 21
46.7
  0
LINE
  8
0
 10
15.6
 20
46.7
 11
15.6209
 21
46.9659
  0
LINE
  8
0
 10
15.6209
 20
46.9659
 11
15.6832
 21
47.2253
  0
LINE
  8
0
 10
15.6832
 20
47.2253
 11
15.7853
 21
47.4718
  0
LINE
  8
0
 10
15.7853
 20
47.4718
 11
15.9247
 21
47.6992
  0
LINE
  8
0
 10
15.9247
 20
47.6992
 11
16.0979
 21
47.9021
  0
LINE
  8
0
 10
16.0979
 20
47.9021
 11
16.3008
 21
48.0753
  0
LINE
  8
0
 10
16.3008
 20
48.0753
 11
16.5282
 21
48.2147
  0
LINE
  8
0
 10
16.5282
 20
48.2147
 11
16.7747
 21
48.3168
  0
LINE
  8
0
 10
16.7747
 20
48.3168
 11
17.0341
 21
48.3791
  0
LINE
  8
0
 10
17.0341
 20
48.3791
 11
17.3
 21
48.4
  0
LINE
  8
0
 10
17.3
 20
48.4
 11
17.5659
 21
48.3791
  0
LINE
  8
0
 10
17.5659
 20
48.3791
 11
17.8253
 21
48.3168
  0
LINE
  8
0
 10
17.8253
 20
48.3168
 11
18.0718
 21
48.2147
  0
LINE
  8
0
 10
18.0718
 20
48.2147
 11
18.2992
 21
48.0753
  0
LINE
  8
0
 10
18.2992
 20
48.0753
 11
18.5021
 21
47.9021
  0
LINE
  8
0
 10
18.5021
 20
47.9021
 11
18.6753
 21
47.6992
  0
LINE
  8
0
 10
18.6753
 20
47.6992
 11
18.8147
 21
47.4718
  0
LINE
  8
0
 10
18.8147
 20
47.4718
 11
18.9168
 21
47.2253
  0
LINE
  8
0
 10
18.9168
 20
47.2253
 11
18.9791
 21
46.9659
  0
LINE
  8
0
 10
18.9791
 20
46.9659
 11
19
 21
46.7
  0
LINE
  8
0
 10
19
 20
46.7
 11
18.9791
 21
46.4341
  0
LINE
  8
0
 10
18.9791
 20
46.4341
 11
18.9168
 21
46.1747
  0
LINE
  8
0
 10
18.9168
 20
46.1747
 11
18.8147
 21
45.9282
  0
LINE
  8
0
 10
18.8147
 20
45.9282
 11
18.6753
 21
45.7008
  0
LINE
  8
0
 10
18.6753
 20
45.7008
 11
18.5021
 21
45.4979
  0
LINE
  8
0
 10
18.5021
 20
45.4979
 11
18.2992
 21
45.3247
  0
LINE
  8
0
 10
18.2992
 20
45.3247
 11
18.0718
 21
45.1853
  0
LINE
  8
0
 10
18.0718
 20
45.1853
 11
17.8253
 21
45.0832
  0
LINE
  8
0
 10
17.8253
 20
45.0832
 11
17.5659
 21
45.0209
  0
LINE
  8
0
 10
17.5659
 20
45.0209
 11
17.3
 21
45
  0
LINE
  8
0
 10
17.3
 20
45
 11
17.0341
 21
45.0209
  0
LINE
  8
0
 10
126.734
 20
45.0209
 11
126.475
 21
45.0832
  0
LINE
  8
0
 10
126.475
 20
45.0832
 11
126.228
 21
45.1853
  0
LINE
  8
0
 10
126.228
 20
45.1853
 11
126.001
 21
45.3247
  0
LINE
  8
0
 10
126.001
 20
45.3247
 11
125.798
 21
45.4979
  0
LINE
  8
0
 10
125.798
 20
45.4979
 11
125.625
 21
45.7008
  0
LINE
  8
0
 10
125.625
 20
45.7008
 11
125.485
 21
45.9282
  0
LINE
  8
0
 10
125.485
 20
45.9282
 11
125.383
 21
46.1747
  0
LINE
  8
0
 10
125.383
 20
46.1747
 11
125.321
 21
46.4341
  0
LINE
  8
0
 10
125.321
 20
46.4341
 11
125.3
 21
46.7
  0
LINE
  8
0
 10
125.3
 20
46.7
 11
125.321
 21
46.9659
  0
LINE
  8
0
 10
125.321
 20
46.9659
 11
125.383
 21
47.2253
  0
LINE
  8
0
 10
125.383
 20
47.2253
 11
125.485
 21
47.4718
  0
LINE
  8
0
 10
125.485
 20
47.4718
 11
125.625
 21
47.6992
  0
LINE
  8
0
 10
125.625
 20
47.6992
 11
125.798
 21
47.9021
  0
LINE
  8
0
 10
125.798
 20
47.9021
 11
126.001
 21
48.0753
  0
LINE
  8
0
 10
126.001
 20
48.0753
 11
126.228
 21
48.2147
  0
LINE
  8
0
 10
126.228
 20
48.2147
 11
126.475
 21
48.3168
  0
LINE
  8
0
 10
126.475
 20
48.3168
 11
126.734
 21
48.3791
  0
LINE
  8
0
 10
126.734
 20
48.3791
 11
127
 21
48.4
  0
LINE
  8
0
 10
127
 20
48.4
 11
127.266
 21
48.3791
  0
LINE
  8
0
 10
127.266
 20
48.3791
 11
127.525
 21
48.3168
  0
LINE
  8
0
 10
127.525
 20
48.3168
 11
127.772
 21
48.2147
  0
LINE
  8
0
 10
127.772
 20
48.2147
 11
127.999
 21
48.0753
  0
LINE
  8
0
 10
127.999
 20
48.0753
 11
128.202
 21
47.9021
  0
LINE
  8
0
 10
128.202
 20
47.9021
 11
128.375
 21
47.6992
  0
LINE
  8
0
 10
128.375
 20
47.6992
 11
128.515
 21
47.4718
  0
LINE
  8
0
 10
128.515
 20
47.4718
 11
128.617
 21
47.2253
  0
LINE
  8
0
 10
128.617
 20
47.2253
 11
128.679
 21
46.9659
  0
LINE
  8
0
 10
128.679
 20
46.9659
 11
128.7
 21
46.7
  0
LINE
  8
0
 10
128.7
 20
46.7
 11
128.679
 21
46.4341
  0
LINE
  8
0
 10
128.679
 20
46.4341
 11
128.617
 21
46.1747
  0
LINE
  8
0
 10
128.617
 20
46.1747
 11
128.515
 21
45.9282
  0
LINE
  8
0
 10
128.515
 20
45.9282
 11
128.375
 21
45.7008
  0
LINE
  8
0
 10
128.375
 20
45.7008
 11
128.202
 21
45.4979
  0
LINE
  8
0
 10
128.202
 20
45.4979
 11
127.999
 21
45.3247
  0
LINE
  8
0
 10
127.999
 20
45.3247
 11
127.772
 21
45.1853
  0
LINE
  8
0
 10
127.772
 20
45.1853
 11
127.525
 21
45.0832
  0
LINE
  8
0
 10
127.525
 20
45.0832
 11
127.266
 21
45.0209
  0
LINE
  8
0
 10
127.266
 20
45.0209
 11
127
 21
45
  0
LINE
  8
0
 10
127
 20
45
 11
126.734
 21
45.0209
  0
LINE
  8
0
 10
245.234
 20
45.0209
 11
244.975
 21
45.0832
  0
LINE
  8
0
 10
244.975
 20
45.0832
 11
244.728
 21
45.1853
  0
LINE
  8
0
 10
244.728
 20
45.1853
 11
244.501
 21
45.3247
  0
LINE
  8
0
 10
244.501
 20
45.3247
 11
244.298
 21
45.4979
  0
LINE
  8
0
 10
244.298
 20
45.4979
 11
244.125
 21
45.7008
  0
LINE
  8
0
 10
244.125
 20
45.7008
 11
243.985
 21
45.9282
  0
LINE
  8
0
 10
243.985
 20
45.9282
 11
243.883
 21
46.1747
  0
LINE
  8
0
 10
243.883
 20
46.1747
 11
243.821
 21
46.4341
  0
LINE
  8
0
 10
243.821
 20
46.4341
 11
243.8
 21
46.7
  0
LINE
  8
0
 10
243.8
 20
46.7
 11
243.821
 21
46.9659
  0
LINE
  8
0
 10
243.821
 20
46.9659
 11
243.883
 21
47.2253
  0
LINE
  8
0
 10
243.883
 20
47.2253
 11
243.985
 21
47.4718
  0
LINE
  8
0
 10
243.985
 20
47.4718
 11
244.125
 21
47.6992
  0
LINE
  8
0
 10
244.125
 20
47.6992
 11
244.298
 21
47.9021
  0
LINE
  8
0
 10
244.298
 20
47.9021
 11
244.501
 21
48.0753
  0
LINE
  8
0
 10
244.501
 20
48.0753
 11
244.728
 21
48.2147
  0
LINE
  8
0
 10
244.728
 20
48.2147
 11
244.975
 21
48.3168
  0
LINE
  8
0
 10
244.975
 20
48.3168
 11
245.234
 21
48.3791
  0
LINE
  8
0
 10
245.234
 20
48.3791
 11
245.5
 21
48.4
  0
LINE
  8
0
 10
245.5
 20
48.4
 11
245.766
 21
48.3791
  0
LINE
  8
0
 10
245.766
 20
48.3791
 11
246.025
 21
48.3168
  0
LINE
  8
0
 10
246.025
 20
48.3168
 11
246.272
 21
48.2147
  0
LINE
  8
0
 10
246.272
 20
48.2147
 11
246.499
 21
48.0753
  0
LINE
  8
0
 10
246.499
 20
48.0753
 11
246.702
 21
47.9021
  0
LINE
  8
0
 10
246.702
 20
47.9021
 11
246.875
 21
47.6992
  0
LINE
  8
0
 10
246.875
 20
47.6992
 11
247.015
 21
47.4718
  0
LINE
  8
0
 10
247.015
 20
47.4718
 11
247.117
 21
47.2253
  0
LINE
  8
0
 10
247.117
 20
47.2253
 11
247.179
 21
46.9659
  0
LINE
  8
0
 10
247.179
 20
46.9659
 11
247.2
 21
46.7
  0
LINE
  8
0
 10
247.2
 20
46.7
 11
247.179
 21
46.4341
  0
LINE
  8
0
 10
247.179
 20
46.4341
 11
247.117
 21
46.1747
  0
LINE
  8
0
 10
247.117
 20
46.1747
 11
247.015
 21
45.9282
  0
LINE
  8
0
 10
247.015
 20
45.9282
 11
246.875
 21
45.7008
  0
LINE
  8
0
 10
246.875
 20
45.7008
 11
246.702
 21
45.4979
  0
LINE
  8
0
 10
246.702
 20
45.4979
 11
246.499
 21
45.3247
  0
LINE
  8
0
 10
246.499
 20
45.3247
 11
246.272
 21
45.1853
  0
LINE
  8
0
 10
246.272
 20
45.1853
 11
246.025
 21
45.0832
  0
LINE
  8
0
 10
246.025
 20
45.0832
 11
245.766
 21
45.0209
  0
LINE
  8
0
 10
245.766
 20
45.0209
 11
245.5
 21
45
  0
LINE
  8
0
 10
245.5
 20
45
 11
245.234
 21
45.0209
  0
LINE
  8
0
 10
35
 20
9.5
 11
35
 21
47.5
  0
LINE
  8
0
 10
35
 20
47.5
 11
53
 21
47.5
  0
LINE
  8
0
 10
53
 20
47.5
 11
53
 21
9.5
  0
LINE
  8
0
 10
53
 20
9.5
 11
35
 21
9.5
  0
LINE
  8
0
 10
75
 20
9.5
 11
75
 21
47.5
  0
LINE
  8
0
 10
75
 20
47.5
 11
93
 21
47.5
  0
LINE
  8
0
 10
93
 20
47.5
 11
93
 21
9.5
  0
LINE
  8
0
 10
93
 20
9.5
 11
75
 21
9.5
  0
LINE
  8
0
 10
143
 20
9.5
 11
143
 21
47.5
  0
LINE
  8
0
 10
143
 20
47.5
 11
161
 21
47.5
  0
LINE
  8
0
 10
161
 20
47.5
 11
161
 21
9.5
  0
LINE
  8
0
 10
161
 20
9.5
 11
143
 21
9.5
  0
LINE
  8
0
 10
183
 20
9.5
 11
183
 21
47.5
  0
LINE
  8
0
 10
183
 20
47.5
 11
201
 21
47.5
  0
LINE
  8
0
 10
201
 20
47.5
 11
201
 21
9.5
  0
LINE
  8
0
 10
201
 20
9.5
 11
183
 21
9.5
  0
LINE
  8
0
 10
126.726
 20
36.7715
 11
126.459
 21
36.8356
  0
LINE
  8
0
 10
126.459
 20
36.8356
 11
126.206
 21
36.9407
  0
LINE
  8
0
 10
126.206
 20
36.9407
 11
125.971
 21
37.0842
  0
LINE
  8
0
 10
125.971
 20
37.0842
 11
125.763
 21
37.2626
  0
LINE
  8
0
 10
125.763
 20
37.2626
 11
125.584
 21
37.4714
  0
LINE
  8
0
 10
125.584
 20
37.4714
 11
125.441
 21
37.7055
  0
LINE
  8
0
 10
125.441
 20
37.7055
 11
125.336
 21
37.9592
  0
LINE
  8
0
 10
125.336
 20
37.9592
 11
125.272
 21
38.2262
  0
LINE
  8
0
 10
125.272
 20
38.2262
 11
125.25
 21
38.5
  0
LINE
  8
0
 10
125.25
 20
38.5
 11
125.272
 21
38.7738
  0
LINE
  8
0
 10
125.272
 20
38.7738
 11
125.336
 21
39.0408
  0
LINE
  8
0
 10
125.336
 20
39.0408
 11
125.441
 21
39.2945
  0
LINE
  8
0
 10
125.441
 20
39.2945
 11
125.584
 21
39.5286
  0
LINE
  8
0
 10
125.584
 20
39.5286
 11
125.763
 21
39.7374
  0
LINE
  8
0
 10
125.763
 20
39.7374
 11
125.971
 21
39.9158
  0
LINE
  8
0
 10
125.971
 20
39.9158
 11
126.206
 21
40.0592
  0
LINE
  8
0
 10
126.206
 20
40.0592
 11
126.459
 21
40.1643
  0
LINE
  8
0
 10
126.459
 20
40.1643
 11
126.726
 21
40.2285
  0
LINE
  8
0
 10
126.726
 20
40.2285
 11
127
 21
40.25
  0
LINE
  8
0
 10
127
 20
40.25
 11
127.274
 21
40.2285
  0
LINE
  8
0
 10
127.274
 20
40.2285
 11
127.541
 21
40.1643
  0
LINE
  8
0
 10
127.541
 20
40.1643
 11
127.794
 21
40.0592
  0
LINE
  8
0
 10
127.794
 20
40.0592
 11
128.029
 21
39.9158
  0
LINE
  8
0
 10
128.029
 20
39.9158
 11
128.237
 21
39.7374
  0
LINE
  8
0
 10
128.237
 20
39.7374
 11
128.416
 21
39.5286
  0
LINE
  8
0
 10
128.416
 20
39.5286
 11
128.559
 21
39.2945
  0
LINE
  8
0
 10
128.559
 20
39.2945
 11
128.664
 21
39.0408
  0
LINE
  8
0
 10
128.664
 20
39.0408
 11
128.728
 21
38.7738
  0
LINE
  8
0
 10
128.728
 20
38.7738
 11
128.75
 21
38.5
  0
LINE
  8
0
 10
128.75
 20
38.5
 11
128.728
 21
38.2262
  0
LINE
  8
0
 10
128.728
 20
38.2262
 11
128.664
 21
37.9592
  0
LINE
  8
0
 10
128.664
 20
37.9592
 11
128.559
 21
37.7055
  0
LINE
  8
0
 10
128.559
 20
37.7055
 11
128.416
 21
37.4714
  0
LINE
  8
0
 10
128.416
 20
37.4714
 11
128.237
 21
37.2626
  0
LINE
  8
0
 10
128.237
 20
37.2626
 11
128.029
 21
37.0842
  0
LINE
  8
0
 10
128.029
 20
37.0842
 11
127.794
 21
36.9407
  0
LINE
  8
0
 10
127.794
 20
36.9407
 11
127.541
 21
36.8356
  0
LINE
  8
0
 10
127.541
 20
36.8356
 11
127.274
 21
36.7715
  0
LINE
  8
0
 10
127.274
 20
36.7715
 11
127
 21
36.75
  0
LINE
  8
0
 10
127
 20
36.75
 11
126.726
 21
36.7715
  0
LINE
  8
0
 10
126.726
 20
16.7715
 11
126.459
 21
16.8356
  0
LINE
  8
0
 10
126.459
 20
16.8356
 11
126.206
 21
16.9407
  0
LINE
  8
0
 10
126.206
 20
16.9407
 11
125.971
 21
17.0842
  0
LINE
  8
0
 10
125.971
 20
17.0842
 11
125.763
 21
17.2626
  0
LINE
  8
0
 10
125.763
 20
17.2626
 11
125.584
 21
17.4714
  0
LINE
  8
0
 10
125.584
 20
17.4714
 11
125.441
 21
17.7055
  0
LINE
  8
0
 10
125.441
 20
17.7055
 11
125.336
 21
17.9592
  0
LINE
  8
0
 10
125.336
 20
17.9592
 11
125.272
 21
18.2262
  0
LINE
  8
0
 10
125.272
 20
18.2262
 11
125.25
 21
18.5
  0
LINE
  8
0
 10
125.25
 20
18.5
 11
125.272
 21
18.7738
  0
LINE
  8
0
 10
125.272
 20
18.7738
 11
125.336
 21
19.0408
  0
LINE
  8
0
 10
125.336
 20
19.0408
 11
125.441
 21
19.2945
  0
LINE
  8
0
 10
125.441
 20
19.2945
 11
125.584
 21
19.5286
  0
LINE
  8
0
 10
125.584
 20
19.5286
 11
125.763
 21
19.7374
  0
LINE
  8
0
 10
125.763
 20
19.7374
 11
125.971
 21
19.9158
  0
LINE
  8
0
 10
125.971
 20
19.9158
 11
126.206
 21
20.0592
  0
LINE
  8
0
 10
126.206
 20
20.0592
 11
126.459
 21
20.1643
  0
LINE
  8
0
 10
126.459
 20
20.1643
 11
126.726
 21
20.2285
  0
LINE
  8
0
 10
126.726
 20
20.2285
 11
127
 21
20.25
  0
LINE
  8
0
 10
127
 20
20.25
 11
127.274
 21
20.2285
  0
LINE
  8
0
 10
127.274
 20
20.2285
 11
127.541
 21
20.1643
  0
LINE
  8
0
 10
127.541
 20
20.1643
 11
127.794
 21
20.0592
  0
LINE
  8
0
 10
127.794
 20
20.0592
 11
128.029
 21
19.9158
  0
LINE
  8
0
 10
128.029
 20
19.9158
 11
128.237
 21
19.7374
  0
LINE
  8
0
 10
128.237
 20
19.7374
 11
128.416
 21
19.5286
  0
LINE
  8
0
 10
128.416
 20
19.5286
 11
128.559
 21
19.2945
  0
LINE
  8
0
 10
128.559
 20
19.2945
 11
128.664
 21
19.0408
  0
LINE
  8
0
 10
128.664
 20
19.0408
 11
128.728
 21
18.7738
  0
LINE
  8
0
 10
128.728
 20
18.7738
 11
128.75
 21
18.5
  0
LINE
  8
0
 10
128.75
 20
18.5
 11
128.728
 21
18.2262
  0
LINE
  8
0
 10
128.728
 20
18.2262
 11
128.664
 21
17.9592
  0
LINE
  8
0
 10
128.664
 20
17.9592
 11
128.559
 21
17.7055
  0
LINE
  8
0
 10
128.559
 20
17.7055
 11
128.416
 21
17.4714
  0
LINE
  8
0
 10
128.416
 20
17.4714
 11
128.237
 21
17.2626
  0
LINE
  8
0
 10
128.237
 20
17.2626
 11
128.029
 21
17.0842
  0
LINE
  8
0
 10
128.029
 20
17.0842
 11
127.794
 21
16.9407
  0
LINE
  8
0
 10
127.794
 20
16.9407
 11
127.541
 21
16.8356
  0
LINE
  8
0
 10
127.541
 20
16.8356
 11
127.274
 21
16.7715
  0
LINE
  8
0
 10
127.274
 20
16.7715
 11
127
 21
16.75
  0
LINE
  8
0
 10
127
 20
16.75
 11
126.726
 21
16.7715
  0
LINE
  8
0
 10
17.0341
 20
8.62093
 11
16.7747
 21
8.6832
  0
LINE
  8
0
 10
16.7747
 20
8.6832
 11
16.5282
 21
8.78528
  0
LINE
  8
0
 10
16.5282
 20
8.78528
 11
16.3008
 21
8.92467
  0
LINE
  8
0
 10
16.3008
 20
8.92467
 11
16.0979
 21
9.09792
  0
LINE
  8
0
 10
16.0979
 20
9.09792
 11
15.9247
 21
9.30075
  0
LINE
  8
0
 10
15.9247
 20
9.30075
 11
15.7853
 21
9.52821
  0
LINE
  8
0
 10
15.7853
 20
9.52821
 11
15.6832
 21
9.77466
  0
LINE
  8
0
 10
15.6832
 20
9.77466
 11
15.6209
 21
10.0341
  0
LINE
  8
0
 10
15.6209
 20
10.0341
 11
15.6
 21
10.3
  0
LINE
  8
0
 10
15.6
 20
10.3
 11
15.6209
 21
10.5659
  0
LINE
  8
0
 10
15.6209
 20
10.5659
 11
15.6832
 21
10.8253
  0
LINE
  8
0
 10
15.6832
 20
10.8253
 11
15.7853
 21
11.0718
  0
LINE
  8
0
 10
15.7853
 20
11.0718
 11
15.9247
 21
11.2992
  0
LINE
  8
0
 10
15.9247
 20
11.2992
 11
16.0979
 21
11.5021
  0
LINE
  8
0
 10
16.0979
 20
11.5021
 11
16.3008
 21
11.6753
  0
LINE
  8
0
 10
16.3008
 20
11.6753
 11
16.5282
 21
11.8147
  0
LINE
  8
0
 10
16.5282
 20
11.8147
 11
16.7747
 21
11.9168
  0
LINE
  8
0
 10
16.7747
 20
11.9168
 11
17.0341
 21
11.9791
  0
LINE
  8
0
 10
17.0341
 20
11.9791
 11
17.3
 21
12
  0
LINE
  8
0
 10
17.3
 20
12
 11
17.5659
 21
11.9791
  0
LINE
  8
0
 10
17.5659
 20
11.9791
 11
17.8253
 21
11.9168
  0
LINE
  8
0
 10
17.8253
 20
11.9168
 11
18.0718
 21
11.8147
  0
LINE
  8
0
 10
18.0718
 20
11.8147
 11
18.2992
 21
11.6753
  0
LINE
  8
0
 10
18.2992
 20
11.6753
 11
18.5021
 21
11.5021
  0
LINE
  8
0
 10
18.5021
 20
11.5021
 11
18.6753
 21
11.2992
  0
LINE
  8
0
 10
18.6753
 20
11.2992
 11
18.8147
 21
11.0718
  0
LINE
  8
0
 10
18.8147
 20
11.0718
 11
18.9168
 21
10.8253
  0
LINE
  8
0
 10
18.9168
 20
10.8253
 11
18.9791
 21
10.5659
  0
LINE
  8
0
 10
18.9791
 20
10.5659
 11
19
 21
10.3
  0
LINE
  8
0
 10
19
 20
10.3
 11
18.9791
 21
10.0341
  0
LINE
  8
0
 10
18.9791
 20
10.0341
 11
18.9168
 21
9.77466
  0
LINE
  8
0
 10
18.9168
 20
9.77466
 11
18.8147
 21
9.52821
  0
LINE
  8
0
 10
18.8147
 20
9.52821
 11
18.6753
 21
9.30075
  0
LINE
  8
0
 10
18.6753
 20
9.30075
 11
18.5021
 21
9.09792
  0
LINE
  8
0
 10
18.5021
 20
9.09792
 11
18.2992
 21
8.92467
  0
LINE
  8
0
 10
18.2992
 20
8.92467
 11
18.0718
 21
8.78528
  0
LINE
  8
0
 10
18.0718
 20
8.78528
 11
17.8253
 21
8.6832
  0
LINE
  8
0
 10
17.8253
 20
8.6832
 11
17.5659
 21
8.62093
  0
LINE
  8
0
 10
17.5659
 20
8.62093
 11
17.3
 21
8.59999
  0
LINE
  8
0
 10
17.3
 20
8.59999
 11
17.0341
 21
8.62093
  0
LINE
  8
0
 10
126.734
 20
8.62093
 11
126.475
 21
8.6832
  0
LINE
  8
0
 10
126.475
 20
8.6832
 11
126.228
 21
8.78528
  0
LINE
  8
0
 10
126.228
 20
8.78528
 11
126.001
 21
8.92467
  0
LINE
  8
0
 10
126.001
 20
8.92467
 11
125.798
 21
9.09792
  0
LINE
  8
0
 10
125.798
 20
9.09792
 11
125.625
 21
9.30075
  0
LINE
  8
0
 10
125.625
 20
9.30075
 11
125.485
 21
9.52821
  0
LINE
  8
0
 10
125.485
 20
9.52821
 11
125.383
 21
9.77466
  0
LINE
  8
0
 10
125.383
 20
9.77466
 11
125.321
 21
10.0341
  0
LINE
  8
0
 10
125.321
 20
10.0341
 11
125.3
 21
10.3
  0
LINE
  8
0
 10
125.3
 20
10.3
 11
125.321
 21
10.5659
  0
LINE
  8
0
 10
125.321
 20
10.5659
 11
125.383
 21
10.8253
  0
LINE
  8
0
 10
125.383
 20
10.8253
 11
125.485
 21
11.0718
  0
LINE
  8
0
 10
125.485
 20
11.0718
 11
125.625
 21
11.2992
  0
LINE
  8
0
 10
125.625
 20
11.2992
 11
125.798
 21
11.5021
  0
LINE
  8
0
 10
125.798
 20
11.5021
 11
126.001
 21
11.6753
  0
LINE
  8
0
 10
126.001
 20
11.6753
 11
126.228
 21
11.8147
  0
LINE
  8
0
 10
126.228
 20
11.8147
 11
126.475
 21
11.9168
  0
LINE
  8
0
 10
126.475
 20
11.9168
 11
126.734
 21
11.9791
  0
LINE
  8
0
 10
126.734
 20
11.9791
 11
127
 21
12
  0
LINE
  8
0
 10
127
 20
12
 11
127.266
 21
11.9791
  0
LINE
  8
0
 10
127.266
 20
11.9791
 11
127.525
 21
11.9168
  0
LINE
  8
0
 10
127.525
 20
11.9168
 11
127.772
 21
11.8147
  0
LINE
  8
0
 10
127.772
 20
11.8147
 11
127.999
 21
11.6753
  0
LINE
  8
0
 10
127.999
 20
11.6753
 11
128.202
 21
11.5021
  0
LINE
  8
0
 10
128.202
 20
11.5021
 11
128.375
 21
11.2992
  0
LINE
  8
0
 10
128.375
 20
11.2992
 11
128.515
 21
11.0718
  0
LINE
  8
0
 10
128.515
 20
11.0718
 11
128.617
 21
10.8253
  0
LINE
  8
0
 10
128.617
 20
10.8253
 11
128.679
 21
10.5659
  0
LINE
  8
0
 10
128.679
 20
10.5659
 11
128.7
 21
10.3
  0
LINE
  8
0
 10
128.7
 20
10.3
 11
128.679
 21
10.0341
  0
LINE
  8
0
 10
128.679
 20
10.0341
 11
128.617
 21
9.77466
  0
LINE
  8
0
 10
128.617
 20
9.77466
 11
128.515
 21
9.52821
  0
LINE
  8
0
 10
128.515
 20
9.52821
 11
128.375
 21
9.30075
  0
LINE
  8
0
 10
128.375
 20
9.30075
 11
128.202
 21
9.09792
  0
LINE
  8
0
 10
128.202
 20
9.09792
 11
127.999
 21
8.92467
  0
LINE
  8
0
 10
127.999
 20
8.92467
 11
127.772
 21
8.78528
  0
LINE
  8
0
 10
127.772
 20
8.78528
 11
127.525
 21
8.6832
  0
LINE
  8
0
 10
127.525
 20
8.6832
 11
127.266
 21
8.62093
  0
LINE
  8
0
 10
127.266
 20
8.62093
 11
127
 21
8.59999
  0
LINE
  8
0
 10
127
 20
8.59999
 11
126.734
 21
8.62093
  0
LINE
  8
0
 10
245.234
 20
8.62093
 11
244.975
 21
8.6832
  0
LINE
  8
0
 10
244.975
 20
8.6832
 11
244.728
 21
8.78528
  0
LINE
  8
0
 10
244.728
 20
8.78528
 11
244.501
 21
8.92467
  0
LINE
  8
0
 10
244.501
 20
8.92467
 11
244.298
 21
9.09792
  0
LINE
  8
0
 10
244.298
 20
9.09792
 11
244.125
 21
9.30075
  0
LINE
  8
0
 10
244.125
 20
9.30075
 11
243.985
 21
9.52821
  0
LINE
  8
0
 10
243.985
 20
9.52821
 11
243.883
 21
9.77466
  0
LINE
  8
0
 10
243.883
 20
9.77466
 11
243.821
 21
10.0341
  0
LINE
  8
0
 10
243.821
 20
10.0341
 11
243.8
 21
10.3
  0
LINE
  8
0
 10
243.8
 20
10.3
 11
243.821
 21
10.5659
  0
LINE
  8
0
 10
243.821
 20
10.5659
 11
243.883
 21
10.8253
  0
LINE
  8
0
 10
243.883
 20
10.8253
 11
243.985
 21
11.0718
  0
LINE
  8
0
 10
243.985
 20
11.0718
 11
244.125
 21
11.2992
  0
LINE
  8
0
 10
244.125
 20
11.2992
 11
244.298
 21
11.5021
  0
LINE
  8
0
 10
244.298
 20
11.5021
 11
244.501
 21
11.6753
  0
LINE
  8
0
 10
244.501
 20
11.6753
 11
244.728
 21
11.8147
  0
LINE
  8
0
 10
244.728
 20
11.8147
 11
244.975
 21
11.9168
  0
LINE
  8
0
 10
244.975
 20
11.9168
 11
245.234
 21
11.9791
  0
LINE
  8
0
 10
245.234
 20
11.9791
 11
245.5
 21
12
  0
LINE
  8
0
 10
245.5
 20
12
 11
245.766
 21
11.9791
  0
LINE
  8
0
 10
245.766
 20
11.9791
 11
246.025
 21
11.9168
  0
LINE
  8
0
 10
246.025
 20
11.9168
 11
246.272
 21
11.8147
  0
LINE
  8
0
 10
246.272
 20
11.8147
 11
246.499
 21
11.6753
  0
LINE
  8
0
 10
246.499
 20
11.6753
 11
246.702
 21
11.5021
  0
LINE
  8
0
 10
246.702
 20
11.5021
 11
246.875
 21
11.2992
  0
LINE
  8
0
 10
246.875
 20
11.2992
 11
247.015
 21
11.0718
  0
LINE
  8
0
 10
247.015
 20
11.0718
 11
247.117
 21
10.8253
  0
LINE
  8
0
 10
247.117
 20
10.8253
 11
247.179
 21
10.5659
  0
LINE
  8
0
 10
247.179
 20
10.5659
 11
247.2
 21
10.3
  0
LINE
  8
0
 10
247.2
 20
10.3
 11
247.179
 21
10.0341
  0
LINE
  8
0
 10
247.179
 20
10.0341
 11
247.117
 21
9.77466
  0
LINE
  8
0
 10
247.117
 20
9.77466
 11
247.015
 21
9.52821
  0
LINE
  8
0
 10
247.015
 20
9.52821
 11
246.875
 21
9.30075
  0
LINE
  8
0
 10
246.875
 20
9.30075
 11
246.702
 21
9.09792
  0
LINE
  8
0
 10
246.702
 20
9.09792
 11
246.499
 21
8.92467
  0
LINE
  8
0
 10
246.499
 20
8.92467
 11
246.272
 21
8.78528
  0
LINE
  8
0
 10
246.272
 20
8.78528
 11
246.025
 21
8.6832
  0
LINE
  8
0
 10
246.025
 20
8.6832
 11
245.766
 21
8.62093
  0
LINE
  8
0
 10
245.766
 20
8.62093
 11
245.5
 21
8.59999
  0
LINE
  8
0
 10
245.5
 20
8.59999
 11
245.234
 21
8.62093
  0
ENDSEC
  0
SECTION
  2
OBJECTS
  0
DICTIONARY
  0
ENDSEC
  0
EOF
