  0
SECTION
  2
BLOCKS
  0
ENDSEC
  0
SECTION
  2
ENTITIES
  0
LINE
  8
0
 10
447
 20
57
 11
0
 21
57
  0
LINE
  8
0
 10
0
 20
57
 11
0
 21
0
  0
LINE
  8
0
 10
0
 20
0
 11
447
 21
0
  0
LINE
  8
0
 10
447
 20
0
 11
447
 21
57
  0
LINE
  8
0
 10
97
 20
19.5
 11
97
 21
37.5
  0
LINE
  8
0
 10
97
 20
37.5
 11
115
 21
37.5
  0
LINE
  8
0
 10
115
 20
37.5
 11
115
 21
19.5
  0
LINE
  8
0
 10
115
 20
19.5
 11
97
 21
19.5
  0
LINE
  8
0
 10
121
 20
19.5
 11
121
 21
37.5
  0
LINE
  8
0
 10
121
 20
37.5
 11
139
 21
37.5
  0
LINE
  8
0
 10
139
 20
37.5
 11
139
 21
19.5
  0
LINE
  8
0
 10
139
 20
19.5
 11
121
 21
19.5
  0
LINE
  8
0
 10
145
 20
19.5
 11
145
 21
37.5
  0
LINE
  8
0
 10
145
 20
37.5
 11
163
 21
37.5
  0
LINE
  8
0
 10
163
 20
37.5
 11
163
 21
19.5
  0
LINE
  8
0
 10
163
 20
19.5
 11
145
 21
19.5
  0
LINE
  8
0
 10
169
 20
19.5
 11
169
 21
37.5
  0
LINE
  8
0
 10
169
 20
37.5
 11
187
 21
37.5
  0
LINE
  8
0
 10
187
 20
37.5
 11
187
 21
19.5
  0
LINE
  8
0
 10
187
 20
19.5
 11
169
 21
19.5
  0
LINE
  8
0
 10
193
 20
19.5
 11
193
 21
37.5
  0
LINE
  8
0
 10
193
 20
37.5
 11
211
 21
37.5
  0
LINE
  8
0
 10
211
 20
37.5
 11
211
 21
19.5
  0
LINE
  8
0
 10
211
 20
19.5
 11
193
 21
19.5
  0
LINE
  8
0
 10
243
 20
19.5
 11
243
 21
37.5
  0
LINE
  8
0
 10
243
 20
37.5
 11
261
 21
37.5
  0
LINE
  8
0
 10
261
 20
37.5
 11
261
 21
19.5
  0
LINE
  8
0
 10
261
 20
19.5
 11
243
 21
19.5
  0
LINE
  8
0
 10
267
 20
19.5
 11
267
 21
37.5
  0
LINE
  8
0
 10
267
 20
37.5
 11
285
 21
37.5
  0
LINE
  8
0
 10
285
 20
37.5
 11
285
 21
19.5
  0
LINE
  8
0
 10
285
 20
19.5
 11
267
 21
19.5
  0
LINE
  8
0
 10
291
 20
19.5
 11
291
 21
37.5
  0
LINE
  8
0
 10
291
 20
37.5
 11
309
 21
37.5
  0
LINE
  8
0
 10
309
 20
37.5
 11
309
 21
19.5
  0
LINE
  8
0
 10
309
 20
19.5
 11
291
 21
19.5
  0
LINE
  8
0
 10
315
 20
19.5
 11
315
 21
37.5
  0
LINE
  8
0
 10
315
 20
37.5
 11
333
 21
37.5
  0
LINE
  8
0
 10
333
 20
37.5
 11
333
 21
19.5
  0
LINE
  8
0
 10
333
 20
19.5
 11
315
 21
19.5
  0
LINE
  8
0
 10
339
 20
19.5
 11
339
 21
37.5
  0
LINE
  8
0
 10
339
 20
37.5
 11
357
 21
37.5
  0
LINE
  8
0
 10
357
 20
37.5
 11
357
 21
19.5
  0
LINE
  8
0
 10
357
 20
19.5
 11
339
 21
19.5
  0
LINE
  8
0
 10
363
 20
19.5
 11
363
 21
37.5
  0
LINE
  8
0
 10
363
 20
37.5
 11
381
 21
37.5
  0
LINE
  8
0
 10
381
 20
37.5
 11
381
 21
19.5
  0
LINE
  8
0
 10
381
 20
19.5
 11
363
 21
19.5
  0
ENDSEC
  0
SECTION
  2
OBJECTS
  0
DICTIONARY
  0
ENDSEC
  0
EOF
