  0
SECTION
  2
BLOCKS
  0
ENDSEC
  0
SECTION
  2
ENTITIES
  0
LINE
  8
0
 10
447
 20
57
 11
0
 21
57
  0
LINE
  8
0
 10
0
 20
57
 11
0
 21
0
  0
LINE
  8
0
 10
0
 20
0
 11
447
 21
0
  0
LINE
  8
0
 10
447
 20
0
 11
447
 21
57
  0
LINE
  8
0
 10
219.35
 20
31.25
 11
219.35
 21
49.75
  0
LINE
  8
0
 10
219.35
 20
49.75
 11
237.85
 21
49.75
  0
LINE
  8
0
 10
237.85
 20
49.75
 11
237.85
 21
31.25
  0
LINE
  8
0
 10
237.85
 20
31.25
 11
219.35
 21
31.25
  0
LINE
  8
0
 10
379.5
 20
26.5
 11
379.5
 21
48.5
  0
LINE
  8
0
 10
379.5
 20
48.5
 11
401.5
 21
48.5
  0
LINE
  8
0
 10
401.5
 20
48.5
 11
401.5
 21
26.5
  0
LINE
  8
0
 10
401.5
 20
26.5
 11
379.5
 21
26.5
  0
LINE
  8
0
 10
416.734
 20
42.3209
 11
416.475
 21
42.3832
  0
LINE
  8
0
 10
416.475
 20
42.3832
 11
416.228
 21
42.4853
  0
LINE
  8
0
 10
416.228
 20
42.4853
 11
416.001
 21
42.6247
  0
LINE
  8
0
 10
416.001
 20
42.6247
 11
415.798
 21
42.7979
  0
LINE
  8
0
 10
415.798
 20
42.7979
 11
415.625
 21
43.0008
  0
LINE
  8
0
 10
415.625
 20
43.0008
 11
415.485
 21
43.2282
  0
LINE
  8
0
 10
415.485
 20
43.2282
 11
415.383
 21
43.4747
  0
LINE
  8
0
 10
415.383
 20
43.4747
 11
415.321
 21
43.7341
  0
LINE
  8
0
 10
415.321
 20
43.7341
 11
415.3
 21
44
  0
LINE
  8
0
 10
415.3
 20
44
 11
415.321
 21
44.2659
  0
LINE
  8
0
 10
415.321
 20
44.2659
 11
415.383
 21
44.5253
  0
LINE
  8
0
 10
415.383
 20
44.5253
 11
415.485
 21
44.7718
  0
LINE
  8
0
 10
415.485
 20
44.7718
 11
415.625
 21
44.9992
  0
LINE
  8
0
 10
415.625
 20
44.9992
 11
415.798
 21
45.2021
  0
LINE
  8
0
 10
415.798
 20
45.2021
 11
416.001
 21
45.3753
  0
LINE
  8
0
 10
416.001
 20
45.3753
 11
416.228
 21
45.5147
  0
LINE
  8
0
 10
416.228
 20
45.5147
 11
416.475
 21
45.6168
  0
LINE
  8
0
 10
416.475
 20
45.6168
 11
416.734
 21
45.6791
  0
LINE
  8
0
 10
416.734
 20
45.6791
 11
417
 21
45.7
  0
LINE
  8
0
 10
417
 20
45.7
 11
417.266
 21
45.6791
  0
LINE
  8
0
 10
417.266
 20
45.6791
 11
417.525
 21
45.6168
  0
LINE
  8
0
 10
417.525
 20
45.6168
 11
417.772
 21
45.5147
  0
LINE
  8
0
 10
417.772
 20
45.5147
 11
417.999
 21
45.3753
  0
LINE
  8
0
 10
417.999
 20
45.3753
 11
418.202
 21
45.2021
  0
LINE
  8
0
 10
418.202
 20
45.2021
 11
418.375
 21
44.9992
  0
LINE
  8
0
 10
418.375
 20
44.9992
 11
418.515
 21
44.7718
  0
LINE
  8
0
 10
418.515
 20
44.7718
 11
418.617
 21
44.5253
  0
LINE
  8
0
 10
418.617
 20
44.5253
 11
418.679
 21
44.2659
  0
LINE
  8
0
 10
418.679
 20
44.2659
 11
418.7
 21
44
  0
LINE
  8
0
 10
418.7
 20
44
 11
418.679
 21
43.7341
  0
LINE
  8
0
 10
418.679
 20
43.7341
 11
418.617
 21
43.4747
  0
LINE
  8
0
 10
418.617
 20
43.4747
 11
418.515
 21
43.2282
  0
LINE
  8
0
 10
418.515
 20
43.2282
 11
418.375
 21
43.0008
  0
LINE
  8
0
 10
418.375
 20
43.0008
 11
418.202
 21
42.7979
  0
LINE
  8
0
 10
418.202
 20
42.7979
 11
417.999
 21
42.6247
  0
LINE
  8
0
 10
417.999
 20
42.6247
 11
417.772
 21
42.4853
  0
LINE
  8
0
 10
417.772
 20
42.4853
 11
417.525
 21
42.3832
  0
LINE
  8
0
 10
417.525
 20
42.3832
 11
417.266
 21
42.3209
  0
LINE
  8
0
 10
417.266
 20
42.3209
 11
417
 21
42.3
  0
LINE
  8
0
 10
417
 20
42.3
 11
416.734
 21
42.3209
  0
LINE
  8
0
 10
261.934
 20
42.3209
 11
261.675
 21
42.3832
  0
LINE
  8
0
 10
261.675
 20
42.3832
 11
261.428
 21
42.4853
  0
LINE
  8
0
 10
261.428
 20
42.4853
 11
261.201
 21
42.6247
  0
LINE
  8
0
 10
261.201
 20
42.6247
 11
260.998
 21
42.7979
  0
LINE
  8
0
 10
260.998
 20
42.7979
 11
260.825
 21
43.0008
  0
LINE
  8
0
 10
260.825
 20
43.0008
 11
260.685
 21
43.2282
  0
LINE
  8
0
 10
260.685
 20
43.2282
 11
260.583
 21
43.4747
  0
LINE
  8
0
 10
260.583
 20
43.4747
 11
260.521
 21
43.7341
  0
LINE
  8
0
 10
260.521
 20
43.7341
 11
260.5
 21
44
  0
LINE
  8
0
 10
260.5
 20
44
 11
260.521
 21
44.2659
  0
LINE
  8
0
 10
260.521
 20
44.2659
 11
260.583
 21
44.5253
  0
LINE
  8
0
 10
260.583
 20
44.5253
 11
260.685
 21
44.7718
  0
LINE
  8
0
 10
260.685
 20
44.7718
 11
260.825
 21
44.9992
  0
LINE
  8
0
 10
260.825
 20
44.9992
 11
260.998
 21
45.2021
  0
LINE
  8
0
 10
260.998
 20
45.2021
 11
261.201
 21
45.3753
  0
LINE
  8
0
 10
261.201
 20
45.3753
 11
261.428
 21
45.5147
  0
LINE
  8
0
 10
261.428
 20
45.5147
 11
261.675
 21
45.6168
  0
LINE
  8
0
 10
261.675
 20
45.6168
 11
261.934
 21
45.6791
  0
LINE
  8
0
 10
261.934
 20
45.6791
 11
262.2
 21
45.7
  0
LINE
  8
0
 10
262.2
 20
45.7
 11
262.466
 21
45.6791
  0
LINE
  8
0
 10
262.466
 20
45.6791
 11
262.725
 21
45.6168
  0
LINE
  8
0
 10
262.725
 20
45.6168
 11
262.972
 21
45.5147
  0
LINE
  8
0
 10
262.972
 20
45.5147
 11
263.199
 21
45.3753
  0
LINE
  8
0
 10
263.199
 20
45.3753
 11
263.402
 21
45.2021
  0
LINE
  8
0
 10
263.402
 20
45.2021
 11
263.575
 21
44.9992
  0
LINE
  8
0
 10
263.575
 20
44.9992
 11
263.715
 21
44.7718
  0
LINE
  8
0
 10
263.715
 20
44.7718
 11
263.817
 21
44.5253
  0
LINE
  8
0
 10
263.817
 20
44.5253
 11
263.879
 21
44.2659
  0
LINE
  8
0
 10
263.879
 20
44.2659
 11
263.9
 21
44
  0
LINE
  8
0
 10
263.9
 20
44
 11
263.879
 21
43.7341
  0
LINE
  8
0
 10
263.879
 20
43.7341
 11
263.817
 21
43.4747
  0
LINE
  8
0
 10
263.817
 20
43.4747
 11
263.715
 21
43.2282
  0
LINE
  8
0
 10
263.715
 20
43.2282
 11
263.575
 21
43.0008
  0
LINE
  8
0
 10
263.575
 20
43.0008
 11
263.402
 21
42.7979
  0
LINE
  8
0
 10
263.402
 20
42.7979
 11
263.199
 21
42.6247
  0
LINE
  8
0
 10
263.199
 20
42.6247
 11
262.972
 21
42.4853
  0
LINE
  8
0
 10
262.972
 20
42.4853
 11
262.725
 21
42.3832
  0
LINE
  8
0
 10
262.725
 20
42.3832
 11
262.466
 21
42.3209
  0
LINE
  8
0
 10
262.466
 20
42.3209
 11
262.2
 21
42.3
  0
LINE
  8
0
 10
262.2
 20
42.3
 11
261.934
 21
42.3209
  0
LINE
  8
0
 10
107.134
 20
42.3209
 11
106.875
 21
42.3832
  0
LINE
  8
0
 10
106.875
 20
42.3832
 11
106.628
 21
42.4853
  0
LINE
  8
0
 10
106.628
 20
42.4853
 11
106.401
 21
42.6247
  0
LINE
  8
0
 10
106.401
 20
42.6247
 11
106.198
 21
42.7979
  0
LINE
  8
0
 10
106.198
 20
42.7979
 11
106.025
 21
43.0008
  0
LINE
  8
0
 10
106.025
 20
43.0008
 11
105.885
 21
43.2282
  0
LINE
  8
0
 10
105.885
 20
43.2282
 11
105.783
 21
43.4747
  0
LINE
  8
0
 10
105.783
 20
43.4747
 11
105.721
 21
43.7341
  0
LINE
  8
0
 10
105.721
 20
43.7341
 11
105.7
 21
44
  0
LINE
  8
0
 10
105.7
 20
44
 11
105.721
 21
44.2659
  0
LINE
  8
0
 10
105.721
 20
44.2659
 11
105.783
 21
44.5253
  0
LINE
  8
0
 10
105.783
 20
44.5253
 11
105.885
 21
44.7718
  0
LINE
  8
0
 10
105.885
 20
44.7718
 11
106.025
 21
44.9992
  0
LINE
  8
0
 10
106.025
 20
44.9992
 11
106.198
 21
45.2021
  0
LINE
  8
0
 10
106.198
 20
45.2021
 11
106.401
 21
45.3753
  0
LINE
  8
0
 10
106.401
 20
45.3753
 11
106.628
 21
45.5147
  0
LINE
  8
0
 10
106.628
 20
45.5147
 11
106.875
 21
45.6168
  0
LINE
  8
0
 10
106.875
 20
45.6168
 11
107.134
 21
45.6791
  0
LINE
  8
0
 10
107.134
 20
45.6791
 11
107.4
 21
45.7
  0
LINE
  8
0
 10
107.4
 20
45.7
 11
107.666
 21
45.6791
  0
LINE
  8
0
 10
107.666
 20
45.6791
 11
107.925
 21
45.6168
  0
LINE
  8
0
 10
107.925
 20
45.6168
 11
108.172
 21
45.5147
  0
LINE
  8
0
 10
108.172
 20
45.5147
 11
108.399
 21
45.3753
  0
LINE
  8
0
 10
108.399
 20
45.3753
 11
108.602
 21
45.2021
  0
LINE
  8
0
 10
108.602
 20
45.2021
 11
108.775
 21
44.9992
  0
LINE
  8
0
 10
108.775
 20
44.9992
 11
108.915
 21
44.7718
  0
LINE
  8
0
 10
108.915
 20
44.7718
 11
109.017
 21
44.5253
  0
LINE
  8
0
 10
109.017
 20
44.5253
 11
109.079
 21
44.2659
  0
LINE
  8
0
 10
109.079
 20
44.2659
 11
109.1
 21
44
  0
LINE
  8
0
 10
109.1
 20
44
 11
109.079
 21
43.7341
  0
LINE
  8
0
 10
109.079
 20
43.7341
 11
109.017
 21
43.4747
  0
LINE
  8
0
 10
109.017
 20
43.4747
 11
108.915
 21
43.2282
  0
LINE
  8
0
 10
108.915
 20
43.2282
 11
108.775
 21
43.0008
  0
LINE
  8
0
 10
108.775
 20
43.0008
 11
108.602
 21
42.7979
  0
LINE
  8
0
 10
108.602
 20
42.7979
 11
108.399
 21
42.6247
  0
LINE
  8
0
 10
108.399
 20
42.6247
 11
108.172
 21
42.4853
  0
LINE
  8
0
 10
108.172
 20
42.4853
 11
107.925
 21
42.3832
  0
LINE
  8
0
 10
107.925
 20
42.3832
 11
107.666
 21
42.3209
  0
LINE
  8
0
 10
107.666
 20
42.3209
 11
107.4
 21
42.3
  0
LINE
  8
0
 10
107.4
 20
42.3
 11
107.134
 21
42.3209
  0
LINE
  8
0
 10
125.75
 20
26.5705
 11
125.75
 21
45.0705
  0
LINE
  8
0
 10
125.75
 20
45.0705
 11
144.25
 21
45.0705
  0
LINE
  8
0
 10
144.25
 20
45.0705
 11
144.25
 21
26.5705
  0
LINE
  8
0
 10
144.25
 20
26.5705
 11
125.75
 21
26.5705
  0
LINE
  8
0
 10
144.75
 20
26.5705
 11
144.75
 21
45.0705
  0
LINE
  8
0
 10
144.75
 20
45.0705
 11
163.25
 21
45.0705
  0
LINE
  8
0
 10
163.25
 20
45.0705
 11
163.25
 21
26.5705
  0
LINE
  8
0
 10
163.25
 20
26.5705
 11
144.75
 21
26.5705
  0
LINE
  8
0
 10
87.75
 20
9.25
 11
87.75
 21
15.2444
  0
LINE
  8
0
 10
87.75
 20
15.2444
 11
47.8784
 21
15.2534
  0
LINE
  8
0
 10
47.8784
 20
15.2534
 11
47.8003
 21
15.2595
  0
LINE
  8
0
 10
47.8003
 20
15.2595
 11
47.724
 21
15.2778
  0
LINE
  8
0
 10
47.724
 20
15.2778
 11
47.6515
 21
15.3078
  0
LINE
  8
0
 10
47.6515
 20
15.3078
 11
47.5846
 21
15.3488
  0
LINE
  8
0
 10
47.5846
 20
15.3488
 11
47.525
 21
15.3998
  0
LINE
  8
0
 10
47.525
 20
15.3998
 11
46.2554
 21
16.6693
  0
LINE
  8
0
 10
46.2554
 20
16.6693
 11
46.2045
 21
16.729
  0
LINE
  8
0
 10
46.2045
 20
16.729
 11
46.1635
 21
16.7959
  0
LINE
  8
0
 10
46.1635
 20
16.7959
 11
46.1335
 21
16.8684
  0
LINE
  8
0
 10
46.1335
 20
16.8684
 11
46.1151
 21
16.9447
  0
LINE
  8
0
 10
46.1151
 20
16.9447
 11
46.109
 21
17.0229
  0
LINE
  8
0
 10
46.109
 20
17.0229
 11
46.109
 21
39.978
  0
LINE
  8
0
 10
46.109
 20
39.978
 11
46.1151
 21
40.0562
  0
LINE
  8
0
 10
46.1151
 20
40.0562
 11
46.1335
 21
40.1325
  0
LINE
  8
0
 10
46.1335
 20
40.1325
 11
46.1635
 21
40.205
  0
LINE
  8
0
 10
46.1635
 20
40.205
 11
46.2045
 21
40.2719
  0
LINE
  8
0
 10
46.2045
 20
40.2719
 11
46.2554
 21
40.3315
  0
LINE
  8
0
 10
46.2554
 20
40.3315
 11
47.525
 21
41.601
  0
LINE
  8
0
 10
47.525
 20
41.601
 11
47.5845
 21
41.6519
  0
LINE
  8
0
 10
47.5845
 20
41.6519
 11
47.6514
 21
41.6929
  0
LINE
  8
0
 10
47.6514
 20
41.6929
 11
47.7238
 21
41.723
  0
LINE
  8
0
 10
47.7238
 20
41.723
 11
47.8001
 21
41.7413
  0
LINE
  8
0
 10
47.8001
 20
41.7413
 11
47.8783
 21
41.7475
  0
LINE
  8
0
 10
47.8783
 20
41.7475
 11
104.222
 21
41.77
  0
LINE
  8
0
 10
104.222
 20
41.77
 11
104.3
 21
41.7639
  0
LINE
  8
0
 10
104.3
 20
41.7639
 11
104.376
 21
41.7456
  0
LINE
  8
0
 10
104.376
 20
41.7456
 11
104.449
 21
41.7157
  0
LINE
  8
0
 10
104.449
 20
41.7157
 11
104.516
 21
41.6747
  0
LINE
  8
0
 10
104.516
 20
41.6747
 11
104.576
 21
41.6238
  0
LINE
  8
0
 10
104.576
 20
41.6238
 11
105.744
 21
40.4568
  0
LINE
  8
0
 10
105.744
 20
40.4568
 11
105.796
 21
40.3969
  0
LINE
  8
0
 10
105.796
 20
40.3969
 11
105.837
 21
40.33
  0
LINE
  8
0
 10
105.837
 20
40.33
 11
105.867
 21
40.2575
  0
LINE
  8
0
 10
105.867
 20
40.2575
 11
105.885
 21
40.1812
  0
LINE
  8
0
 10
105.885
 20
40.1812
 11
105.891
 21
40.103
  0
LINE
  8
0
 10
105.891
 20
40.103
 11
105.891
 21
27.75
  0
LINE
  8
0
 10
105.891
 20
27.75
 11
106.25
 21
27.75
  0
LINE
  8
0
 10
106.25
 20
27.75
 11
106.25
 21
9.25
  0
LINE
  8
0
 10
106.25
 20
9.25
 11
87.75
 21
9.25
  0
LINE
  8
0
 10
182.75
 20
9.25
 11
182.75
 21
27.75
  0
LINE
  8
0
 10
182.75
 20
27.75
 11
198.361
 21
27.75
  0
LINE
  8
0
 10
198.361
 20
27.75
 11
198.284
 21
28.0698
  0
LINE
  8
0
 10
198.284
 20
28.0698
 11
198.25
 21
28.5
  0
LINE
  8
0
 10
198.25
 20
28.5
 11
198.284
 21
28.9302
  0
LINE
  8
0
 10
198.284
 20
28.9302
 11
198.385
 21
29.3498
  0
LINE
  8
0
 10
198.385
 20
29.3498
 11
198.55
 21
29.7485
  0
LINE
  8
0
 10
198.55
 20
29.7485
 11
198.775
 21
30.1164
  0
LINE
  8
0
 10
198.775
 20
30.1164
 11
199.055
 21
30.4445
  0
LINE
  8
0
 10
199.055
 20
30.4445
 11
199.35
 21
30.6961
  0
LINE
  8
0
 10
199.35
 20
30.6961
 11
199.35
 21
37.75
  0
LINE
  8
0
 10
199.35
 20
37.75
 11
217.85
 21
37.75
  0
LINE
  8
0
 10
217.85
 20
37.75
 11
217.85
 21
19.25
  0
LINE
  8
0
 10
217.85
 20
19.25
 11
201.25
 21
19.25
  0
LINE
  8
0
 10
201.25
 20
19.25
 11
201.25
 21
9.25
  0
LINE
  8
0
 10
201.25
 20
9.25
 11
182.75
 21
9.25
  0
LINE
  8
0
 10
251.35
 20
19.25
 11
251.35
 21
37.75
  0
LINE
  8
0
 10
251.35
 20
37.75
 11
269.85
 21
37.75
  0
LINE
  8
0
 10
269.85
 20
37.75
 11
269.85
 21
19.25
  0
LINE
  8
0
 10
269.85
 20
19.25
 11
251.35
 21
19.25
  0
LINE
  8
0
 10
163.75
 20
9.25
 11
163.75
 21
27.75
  0
LINE
  8
0
 10
163.75
 20
27.75
 11
174.361
 21
27.75
  0
LINE
  8
0
 10
174.361
 20
27.75
 11
174.284
 21
28.0698
  0
LINE
  8
0
 10
174.284
 20
28.0698
 11
174.25
 21
28.5
  0
LINE
  8
0
 10
174.25
 20
28.5
 11
174.284
 21
28.9302
  0
LINE
  8
0
 10
174.284
 20
28.9302
 11
174.385
 21
29.3498
  0
LINE
  8
0
 10
174.385
 20
29.3498
 11
174.55
 21
29.7485
  0
LINE
  8
0
 10
174.55
 20
29.7485
 11
174.775
 21
30.1164
  0
LINE
  8
0
 10
174.775
 20
30.1164
 11
175.055
 21
30.4445
  0
LINE
  8
0
 10
175.055
 20
30.4445
 11
175.384
 21
30.7248
  0
LINE
  8
0
 10
175.384
 20
30.7248
 11
175.752
 21
30.9503
  0
LINE
  8
0
 10
175.752
 20
30.9503
 11
176.15
 21
31.1154
  0
LINE
  8
0
 10
176.15
 20
31.1154
 11
176.57
 21
31.2161
  0
LINE
  8
0
 10
176.57
 20
31.2161
 11
177
 21
31.25
  0
LINE
  8
0
 10
177
 20
31.25
 11
177.43
 21
31.2161
  0
LINE
  8
0
 10
177.43
 20
31.2161
 11
177.85
 21
31.1154
  0
LINE
  8
0
 10
177.85
 20
31.1154
 11
178.248
 21
30.9503
  0
LINE
  8
0
 10
178.248
 20
30.9503
 11
178.616
 21
30.7248
  0
LINE
  8
0
 10
178.616
 20
30.7248
 11
178.945
 21
30.4445
  0
LINE
  8
0
 10
178.945
 20
30.4445
 11
179.225
 21
30.1164
  0
LINE
  8
0
 10
179.225
 20
30.1164
 11
179.45
 21
29.7485
  0
LINE
  8
0
 10
179.45
 20
29.7485
 11
179.615
 21
29.3498
  0
LINE
  8
0
 10
179.615
 20
29.3498
 11
179.716
 21
28.9302
  0
LINE
  8
0
 10
179.716
 20
28.9302
 11
179.75
 21
28.5
  0
LINE
  8
0
 10
179.75
 20
28.5
 11
179.716
 21
28.0698
  0
LINE
  8
0
 10
179.716
 20
28.0698
 11
179.639
 21
27.75
  0
LINE
  8
0
 10
179.639
 20
27.75
 11
182.25
 21
27.75
  0
LINE
  8
0
 10
182.25
 20
27.75
 11
182.25
 21
9.25
  0
LINE
  8
0
 10
182.25
 20
9.25
 11
163.75
 21
9.25
  0
LINE
  8
0
 10
106.75
 20
9.25
 11
106.75
 21
27.75
  0
LINE
  8
0
 10
106.75
 20
27.75
 11
125.25
 21
27.75
  0
LINE
  8
0
 10
125.25
 20
27.75
 11
125.25
 21
9.25
  0
LINE
  8
0
 10
125.25
 20
9.25
 11
106.75
 21
9.25
  0
LINE
  8
0
 10
339.334
 20
11.3209
 11
339.075
 21
11.3832
  0
LINE
  8
0
 10
339.075
 20
11.3832
 11
338.828
 21
11.4853
  0
LINE
  8
0
 10
338.828
 20
11.4853
 11
338.601
 21
11.6247
  0
LINE
  8
0
 10
338.601
 20
11.6247
 11
338.398
 21
11.7979
  0
LINE
  8
0
 10
338.398
 20
11.7979
 11
338.225
 21
12.0008
  0
LINE
  8
0
 10
338.225
 20
12.0008
 11
338.085
 21
12.2282
  0
LINE
  8
0
 10
338.085
 20
12.2282
 11
337.983
 21
12.4747
  0
LINE
  8
0
 10
337.983
 20
12.4747
 11
337.921
 21
12.7341
  0
LINE
  8
0
 10
337.921
 20
12.7341
 11
337.9
 21
13
  0
LINE
  8
0
 10
337.9
 20
13
 11
337.921
 21
13.2659
  0
LINE
  8
0
 10
337.921
 20
13.2659
 11
337.983
 21
13.5253
  0
LINE
  8
0
 10
337.983
 20
13.5253
 11
338.085
 21
13.7718
  0
LINE
  8
0
 10
338.085
 20
13.7718
 11
338.225
 21
13.9992
  0
LINE
  8
0
 10
338.225
 20
13.9992
 11
338.398
 21
14.2021
  0
LINE
  8
0
 10
338.398
 20
14.2021
 11
338.601
 21
14.3753
  0
LINE
  8
0
 10
338.601
 20
14.3753
 11
338.804
 21
14.5
  0
LINE
  8
0
 10
338.804
 20
14.5
 11
330
 21
14.5
  0
LINE
  8
0
 10
330
 20
14.5
 11
330
 21
26.5
  0
LINE
  8
0
 10
330
 20
26.5
 11
370
 21
26.5
  0
LINE
  8
0
 10
370
 20
26.5
 11
370
 21
14.5
  0
LINE
  8
0
 10
370
 20
14.5
 11
340.396
 21
14.5
  0
LINE
  8
0
 10
340.396
 20
14.5
 11
340.599
 21
14.3753
  0
LINE
  8
0
 10
340.599
 20
14.3753
 11
340.802
 21
14.2021
  0
LINE
  8
0
 10
340.802
 20
14.2021
 11
340.975
 21
13.9992
  0
LINE
  8
0
 10
340.975
 20
13.9992
 11
341.115
 21
13.7718
  0
LINE
  8
0
 10
341.115
 20
13.7718
 11
341.217
 21
13.5253
  0
LINE
  8
0
 10
341.217
 20
13.5253
 11
341.279
 21
13.2659
  0
LINE
  8
0
 10
341.279
 20
13.2659
 11
341.3
 21
13
  0
LINE
  8
0
 10
341.3
 20
13
 11
341.279
 21
12.7341
  0
LINE
  8
0
 10
341.279
 20
12.7341
 11
341.217
 21
12.4747
  0
LINE
  8
0
 10
341.217
 20
12.4747
 11
341.115
 21
12.2282
  0
LINE
  8
0
 10
341.115
 20
12.2282
 11
340.975
 21
12.0008
  0
LINE
  8
0
 10
340.975
 20
12.0008
 11
340.802
 21
11.7979
  0
LINE
  8
0
 10
340.802
 20
11.7979
 11
340.599
 21
11.6247
  0
LINE
  8
0
 10
340.599
 20
11.6247
 11
340.372
 21
11.4853
  0
LINE
  8
0
 10
340.372
 20
11.4853
 11
340.125
 21
11.3832
  0
LINE
  8
0
 10
340.125
 20
11.3832
 11
339.866
 21
11.3209
  0
LINE
  8
0
 10
339.866
 20
11.3209
 11
339.6
 21
11.3
  0
LINE
  8
0
 10
339.6
 20
11.3
 11
339.334
 21
11.3209
  0
LINE
  8
0
 10
219.35
 20
7.25
 11
219.35
 21
25.75
  0
LINE
  8
0
 10
219.35
 20
25.75
 11
237.85
 21
25.75
  0
LINE
  8
0
 10
237.85
 20
25.75
 11
237.85
 21
7.25
  0
LINE
  8
0
 10
237.85
 20
7.25
 11
219.35
 21
7.25
  0
LINE
  8
0
 10
29.7341
 20
11.3209
 11
29.4747
 21
11.3832
  0
LINE
  8
0
 10
29.4747
 20
11.3832
 11
29.2282
 21
11.4853
  0
LINE
  8
0
 10
29.2282
 20
11.4853
 11
29.0008
 21
11.6247
  0
LINE
  8
0
 10
29.0008
 20
11.6247
 11
28.7979
 21
11.7979
  0
LINE
  8
0
 10
28.7979
 20
11.7979
 11
28.6247
 21
12.0008
  0
LINE
  8
0
 10
28.6247
 20
12.0008
 11
28.4853
 21
12.2282
  0
LINE
  8
0
 10
28.4853
 20
12.2282
 11
28.3832
 21
12.4747
  0
LINE
  8
0
 10
28.3832
 20
12.4747
 11
28.3209
 21
12.7341
  0
LINE
  8
0
 10
28.3209
 20
12.7341
 11
28.3
 21
13
  0
LINE
  8
0
 10
28.3
 20
13
 11
28.3209
 21
13.2659
  0
LINE
  8
0
 10
28.3209
 20
13.2659
 11
28.3832
 21
13.5253
  0
LINE
  8
0
 10
28.3832
 20
13.5253
 11
28.4853
 21
13.7718
  0
LINE
  8
0
 10
28.4853
 20
13.7718
 11
28.6247
 21
13.9992
  0
LINE
  8
0
 10
28.6247
 20
13.9992
 11
28.7979
 21
14.2021
  0
LINE
  8
0
 10
28.7979
 20
14.2021
 11
29.0008
 21
14.3753
  0
LINE
  8
0
 10
29.0008
 20
14.3753
 11
29.2282
 21
14.5147
  0
LINE
  8
0
 10
29.2282
 20
14.5147
 11
29.4747
 21
14.6168
  0
LINE
  8
0
 10
29.4747
 20
14.6168
 11
29.7341
 21
14.6791
  0
LINE
  8
0
 10
29.7341
 20
14.6791
 11
30
 21
14.7
  0
LINE
  8
0
 10
30
 20
14.7
 11
30.2659
 21
14.6791
  0
LINE
  8
0
 10
30.2659
 20
14.6791
 11
30.5253
 21
14.6168
  0
LINE
  8
0
 10
30.5253
 20
14.6168
 11
30.7718
 21
14.5147
  0
LINE
  8
0
 10
30.7718
 20
14.5147
 11
30.9992
 21
14.3753
  0
LINE
  8
0
 10
30.9992
 20
14.3753
 11
31.2021
 21
14.2021
  0
LINE
  8
0
 10
31.2021
 20
14.2021
 11
31.3753
 21
13.9992
  0
LINE
  8
0
 10
31.3753
 20
13.9992
 11
31.5147
 21
13.7718
  0
LINE
  8
0
 10
31.5147
 20
13.7718
 11
31.6168
 21
13.5253
  0
LINE
  8
0
 10
31.6168
 20
13.5253
 11
31.6791
 21
13.2659
  0
LINE
  8
0
 10
31.6791
 20
13.2659
 11
31.7
 21
13
  0
LINE
  8
0
 10
31.7
 20
13
 11
31.6791
 21
12.7341
  0
LINE
  8
0
 10
31.6791
 20
12.7341
 11
31.6168
 21
12.4747
  0
LINE
  8
0
 10
31.6168
 20
12.4747
 11
31.5147
 21
12.2282
  0
LINE
  8
0
 10
31.5147
 20
12.2282
 11
31.3753
 21
12.0008
  0
LINE
  8
0
 10
31.3753
 20
12.0008
 11
31.2021
 21
11.7979
  0
LINE
  8
0
 10
31.2021
 20
11.7979
 11
30.9992
 21
11.6247
  0
LINE
  8
0
 10
30.9992
 20
11.6247
 11
30.7718
 21
11.4853
  0
LINE
  8
0
 10
30.7718
 20
11.4853
 11
30.5253
 21
11.3832
  0
LINE
  8
0
 10
30.5253
 20
11.3832
 11
30.2659
 21
11.3209
  0
LINE
  8
0
 10
30.2659
 20
11.3209
 11
30
 21
11.3
  0
LINE
  8
0
 10
30
 20
11.3
 11
29.7341
 21
11.3209
  0
ENDSEC
  0
SECTION
  2
OBJECTS
  0
DICTIONARY
  0
ENDSEC
  0
EOF
