  0
SECTION
  2
BLOCKS
  0
ENDSEC
  0
SECTION
  2
ENTITIES
  0
LINE
  8
0
 10
34.8967
 20
42.9641
 11
35.3811
 21
43.0804
  0
LINE
  8
0
 10
35.3811
 20
43.0804
 11
35.8414
 21
43.271
  0
LINE
  8
0
 10
35.8414
 20
43.271
 11
36.2662
 21
43.5314
  0
LINE
  8
0
 10
36.2662
 20
43.5314
 11
36.6451
 21
43.8549
  0
LINE
  8
0
 10
36.6451
 20
43.8549
 11
36.9686
 21
44.2338
  0
LINE
  8
0
 10
36.9686
 20
44.2338
 11
37.2289
 21
44.6586
  0
LINE
  8
0
 10
37.2289
 20
44.6586
 11
37.4196
 21
45.1189
  0
LINE
  8
0
 10
37.4196
 20
45.1189
 11
37.5359
 21
45.6033
  0
LINE
  8
0
 10
37.5359
 20
45.6033
 11
37.575
 21
46.1
  0
LINE
  8
0
 10
37.575
 20
46.1
 11
37.5359
 21
46.5967
  0
LINE
  8
0
 10
37.5359
 20
46.5967
 11
37.4196
 21
47.0811
  0
LINE
  8
0
 10
37.4196
 20
47.0811
 11
37.2289
 21
47.5414
  0
LINE
  8
0
 10
37.2289
 20
47.5414
 11
36.9686
 21
47.9662
  0
LINE
  8
0
 10
36.9686
 20
47.9662
 11
36.6451
 21
48.3451
  0
LINE
  8
0
 10
36.6451
 20
48.3451
 11
36.2662
 21
48.6686
  0
LINE
  8
0
 10
36.2662
 20
48.6686
 11
35.8414
 21
48.9289
  0
LINE
  8
0
 10
35.8414
 20
48.9289
 11
35.3811
 21
49.1196
  0
LINE
  8
0
 10
35.3811
 20
49.1196
 11
34.8967
 21
49.2359
  0
LINE
  8
0
 10
34.8967
 20
49.2359
 11
34.4
 21
49.275
  0
LINE
  8
0
 10
34.4
 20
49.275
 11
33.9033
 21
49.2359
  0
LINE
  8
0
 10
33.9033
 20
49.2359
 11
33.4189
 21
49.1196
  0
LINE
  8
0
 10
33.4189
 20
49.1196
 11
32.9586
 21
48.9289
  0
LINE
  8
0
 10
32.9586
 20
48.9289
 11
32.5338
 21
48.6686
  0
LINE
  8
0
 10
32.5338
 20
48.6686
 11
32.1549
 21
48.3451
  0
LINE
  8
0
 10
32.1549
 20
48.3451
 11
31.8314
 21
47.9662
  0
LINE
  8
0
 10
31.8314
 20
47.9662
 11
31.571
 21
47.5414
  0
LINE
  8
0
 10
31.571
 20
47.5414
 11
31.3804
 21
47.0811
  0
LINE
  8
0
 10
31.3804
 20
47.0811
 11
31.2641
 21
46.5967
  0
LINE
  8
0
 10
31.2641
 20
46.5967
 11
31.225
 21
46.1
  0
LINE
  8
0
 10
31.225
 20
46.1
 11
31.2641
 21
45.6033
  0
LINE
  8
0
 10
31.2641
 20
45.6033
 11
31.3804
 21
45.1189
  0
LINE
  8
0
 10
31.3804
 20
45.1189
 11
31.571
 21
44.6586
  0
LINE
  8
0
 10
31.571
 20
44.6586
 11
31.8314
 21
44.2338
  0
LINE
  8
0
 10
31.8314
 20
44.2338
 11
32.1549
 21
43.8549
  0
LINE
  8
0
 10
32.1549
 20
43.8549
 11
32.5338
 21
43.5314
  0
LINE
  8
0
 10
32.5338
 20
43.5314
 11
32.9586
 21
43.271
  0
LINE
  8
0
 10
32.9586
 20
43.271
 11
33.4189
 21
43.0804
  0
LINE
  8
0
 10
33.4189
 20
43.0804
 11
33.9033
 21
42.9641
  0
LINE
  8
0
 10
33.9033
 20
42.9641
 11
34.4
 21
42.925
  0
LINE
  8
0
 10
34.4
 20
42.925
 11
34.8967
 21
42.9641
  0
LINE
  8
0
 10
116.197
 20
42.9641
 11
116.681
 21
43.0804
  0
LINE
  8
0
 10
116.681
 20
43.0804
 11
117.141
 21
43.271
  0
LINE
  8
0
 10
117.141
 20
43.271
 11
117.566
 21
43.5314
  0
LINE
  8
0
 10
117.566
 20
43.5314
 11
117.945
 21
43.8549
  0
LINE
  8
0
 10
117.945
 20
43.8549
 11
118.269
 21
44.2338
  0
LINE
  8
0
 10
118.269
 20
44.2338
 11
118.529
 21
44.6586
  0
LINE
  8
0
 10
118.529
 20
44.6586
 11
118.72
 21
45.1189
  0
LINE
  8
0
 10
118.72
 20
45.1189
 11
118.836
 21
45.6033
  0
LINE
  8
0
 10
118.836
 20
45.6033
 11
118.875
 21
46.1
  0
LINE
  8
0
 10
118.875
 20
46.1
 11
118.836
 21
46.5967
  0
LINE
  8
0
 10
118.836
 20
46.5967
 11
118.72
 21
47.0811
  0
LINE
  8
0
 10
118.72
 20
47.0811
 11
118.529
 21
47.5414
  0
LINE
  8
0
 10
118.529
 20
47.5414
 11
118.269
 21
47.9662
  0
LINE
  8
0
 10
118.269
 20
47.9662
 11
117.945
 21
48.3451
  0
LINE
  8
0
 10
117.945
 20
48.3451
 11
117.566
 21
48.6686
  0
LINE
  8
0
 10
117.566
 20
48.6686
 11
117.141
 21
48.9289
  0
LINE
  8
0
 10
117.141
 20
48.9289
 11
116.681
 21
49.1196
  0
LINE
  8
0
 10
116.681
 20
49.1196
 11
116.197
 21
49.2359
  0
LINE
  8
0
 10
116.197
 20
49.2359
 11
115.7
 21
49.275
  0
LINE
  8
0
 10
115.7
 20
49.275
 11
115.203
 21
49.2359
  0
LINE
  8
0
 10
115.203
 20
49.2359
 11
114.719
 21
49.1196
  0
LINE
  8
0
 10
114.719
 20
49.1196
 11
114.259
 21
48.9289
  0
LINE
  8
0
 10
114.259
 20
48.9289
 11
113.834
 21
48.6686
  0
LINE
  8
0
 10
113.834
 20
48.6686
 11
113.455
 21
48.3451
  0
LINE
  8
0
 10
113.455
 20
48.3451
 11
113.131
 21
47.9662
  0
LINE
  8
0
 10
113.131
 20
47.9662
 11
112.871
 21
47.5414
  0
LINE
  8
0
 10
112.871
 20
47.5414
 11
112.68
 21
47.0811
  0
LINE
  8
0
 10
112.68
 20
47.0811
 11
112.564
 21
46.5967
  0
LINE
  8
0
 10
112.564
 20
46.5967
 11
112.525
 21
46.1
  0
LINE
  8
0
 10
112.525
 20
46.1
 11
112.564
 21
45.6033
  0
LINE
  8
0
 10
112.564
 20
45.6033
 11
112.68
 21
45.1189
  0
LINE
  8
0
 10
112.68
 20
45.1189
 11
112.871
 21
44.6586
  0
LINE
  8
0
 10
112.871
 20
44.6586
 11
113.131
 21
44.2338
  0
LINE
  8
0
 10
113.131
 20
44.2338
 11
113.455
 21
43.8549
  0
LINE
  8
0
 10
113.455
 20
43.8549
 11
113.834
 21
43.5314
  0
LINE
  8
0
 10
113.834
 20
43.5314
 11
114.259
 21
43.271
  0
LINE
  8
0
 10
114.259
 20
43.271
 11
114.719
 21
43.0804
  0
LINE
  8
0
 10
114.719
 20
43.0804
 11
115.203
 21
42.9641
  0
LINE
  8
0
 10
115.203
 20
42.9641
 11
115.7
 21
42.925
  0
LINE
  8
0
 10
115.7
 20
42.925
 11
116.197
 21
42.9641
  0
LINE
  8
0
 10
143.097
 20
42.9641
 11
143.581
 21
43.0804
  0
LINE
  8
0
 10
143.581
 20
43.0804
 11
144.041
 21
43.271
  0
LINE
  8
0
 10
144.041
 20
43.271
 11
144.466
 21
43.5314
  0
LINE
  8
0
 10
144.466
 20
43.5314
 11
144.845
 21
43.8549
  0
LINE
  8
0
 10
144.845
 20
43.8549
 11
145.169
 21
44.2338
  0
LINE
  8
0
 10
145.169
 20
44.2338
 11
145.429
 21
44.6586
  0
LINE
  8
0
 10
145.429
 20
44.6586
 11
145.62
 21
45.1189
  0
LINE
  8
0
 10
145.62
 20
45.1189
 11
145.736
 21
45.6033
  0
LINE
  8
0
 10
145.736
 20
45.6033
 11
145.775
 21
46.1
  0
LINE
  8
0
 10
145.775
 20
46.1
 11
145.736
 21
46.5967
  0
LINE
  8
0
 10
145.736
 20
46.5967
 11
145.62
 21
47.0811
  0
LINE
  8
0
 10
145.62
 20
47.0811
 11
145.429
 21
47.5414
  0
LINE
  8
0
 10
145.429
 20
47.5414
 11
145.169
 21
47.9662
  0
LINE
  8
0
 10
145.169
 20
47.9662
 11
144.845
 21
48.3451
  0
LINE
  8
0
 10
144.845
 20
48.3451
 11
144.466
 21
48.6686
  0
LINE
  8
0
 10
144.466
 20
48.6686
 11
144.041
 21
48.9289
  0
LINE
  8
0
 10
144.041
 20
48.9289
 11
143.581
 21
49.1196
  0
LINE
  8
0
 10
143.581
 20
49.1196
 11
143.097
 21
49.2359
  0
LINE
  8
0
 10
143.097
 20
49.2359
 11
142.6
 21
49.275
  0
LINE
  8
0
 10
142.6
 20
49.275
 11
142.103
 21
49.2359
  0
LINE
  8
0
 10
142.103
 20
49.2359
 11
141.619
 21
49.1196
  0
LINE
  8
0
 10
141.619
 20
49.1196
 11
141.159
 21
48.9289
  0
LINE
  8
0
 10
141.159
 20
48.9289
 11
140.734
 21
48.6686
  0
LINE
  8
0
 10
140.734
 20
48.6686
 11
140.355
 21
48.3451
  0
LINE
  8
0
 10
140.355
 20
48.3451
 11
140.031
 21
47.9662
  0
LINE
  8
0
 10
140.031
 20
47.9662
 11
139.771
 21
47.5414
  0
LINE
  8
0
 10
139.771
 20
47.5414
 11
139.58
 21
47.0811
  0
LINE
  8
0
 10
139.58
 20
47.0811
 11
139.464
 21
46.5967
  0
LINE
  8
0
 10
139.464
 20
46.5967
 11
139.425
 21
46.1
  0
LINE
  8
0
 10
139.425
 20
46.1
 11
139.464
 21
45.6033
  0
LINE
  8
0
 10
139.464
 20
45.6033
 11
139.58
 21
45.1189
  0
LINE
  8
0
 10
139.58
 20
45.1189
 11
139.771
 21
44.6586
  0
LINE
  8
0
 10
139.771
 20
44.6586
 11
140.031
 21
44.2338
  0
LINE
  8
0
 10
140.031
 20
44.2338
 11
140.355
 21
43.8549
  0
LINE
  8
0
 10
140.355
 20
43.8549
 11
140.734
 21
43.5314
  0
LINE
  8
0
 10
140.734
 20
43.5314
 11
141.159
 21
43.271
  0
LINE
  8
0
 10
141.159
 20
43.271
 11
141.619
 21
43.0804
  0
LINE
  8
0
 10
141.619
 20
43.0804
 11
142.103
 21
42.9641
  0
LINE
  8
0
 10
142.103
 20
42.9641
 11
142.6
 21
42.925
  0
LINE
  8
0
 10
142.6
 20
42.925
 11
143.097
 21
42.9641
  0
LINE
  8
0
 10
242.397
 20
42.9641
 11
242.881
 21
43.0804
  0
LINE
  8
0
 10
242.881
 20
43.0804
 11
243.341
 21
43.271
  0
LINE
  8
0
 10
243.341
 20
43.271
 11
243.766
 21
43.5314
  0
LINE
  8
0
 10
243.766
 20
43.5314
 11
244.145
 21
43.8549
  0
LINE
  8
0
 10
244.145
 20
43.8549
 11
244.469
 21
44.2338
  0
LINE
  8
0
 10
244.469
 20
44.2338
 11
244.729
 21
44.6586
  0
LINE
  8
0
 10
244.729
 20
44.6586
 11
244.92
 21
45.1189
  0
LINE
  8
0
 10
244.92
 20
45.1189
 11
245.036
 21
45.6033
  0
LINE
  8
0
 10
245.036
 20
45.6033
 11
245.075
 21
46.1
  0
LINE
  8
0
 10
245.075
 20
46.1
 11
245.036
 21
46.5967
  0
LINE
  8
0
 10
245.036
 20
46.5967
 11
244.92
 21
47.0811
  0
LINE
  8
0
 10
244.92
 20
47.0811
 11
244.729
 21
47.5414
  0
LINE
  8
0
 10
244.729
 20
47.5414
 11
244.469
 21
47.9662
  0
LINE
  8
0
 10
244.469
 20
47.9662
 11
244.145
 21
48.3451
  0
LINE
  8
0
 10
244.145
 20
48.3451
 11
243.766
 21
48.6686
  0
LINE
  8
0
 10
243.766
 20
48.6686
 11
243.341
 21
48.9289
  0
LINE
  8
0
 10
243.341
 20
48.9289
 11
242.881
 21
49.1196
  0
LINE
  8
0
 10
242.881
 20
49.1196
 11
242.397
 21
49.2359
  0
LINE
  8
0
 10
242.397
 20
49.2359
 11
241.9
 21
49.275
  0
LINE
  8
0
 10
241.9
 20
49.275
 11
241.403
 21
49.2359
  0
LINE
  8
0
 10
241.403
 20
49.2359
 11
240.919
 21
49.1196
  0
LINE
  8
0
 10
240.919
 20
49.1196
 11
240.459
 21
48.9289
  0
LINE
  8
0
 10
240.459
 20
48.9289
 11
240.034
 21
48.6686
  0
LINE
  8
0
 10
240.034
 20
48.6686
 11
239.655
 21
48.3451
  0
LINE
  8
0
 10
239.655
 20
48.3451
 11
239.331
 21
47.9662
  0
LINE
  8
0
 10
239.331
 20
47.9662
 11
239.071
 21
47.5414
  0
LINE
  8
0
 10
239.071
 20
47.5414
 11
238.88
 21
47.0811
  0
LINE
  8
0
 10
238.88
 20
47.0811
 11
238.764
 21
46.5967
  0
LINE
  8
0
 10
238.764
 20
46.5967
 11
238.725
 21
46.1
  0
LINE
  8
0
 10
238.725
 20
46.1
 11
238.764
 21
45.6033
  0
LINE
  8
0
 10
238.764
 20
45.6033
 11
238.88
 21
45.1189
  0
LINE
  8
0
 10
238.88
 20
45.1189
 11
239.071
 21
44.6586
  0
LINE
  8
0
 10
239.071
 20
44.6586
 11
239.331
 21
44.2338
  0
LINE
  8
0
 10
239.331
 20
44.2338
 11
239.655
 21
43.8549
  0
LINE
  8
0
 10
239.655
 20
43.8549
 11
240.034
 21
43.5314
  0
LINE
  8
0
 10
240.034
 20
43.5314
 11
240.459
 21
43.271
  0
LINE
  8
0
 10
240.459
 20
43.271
 11
240.919
 21
43.0804
  0
LINE
  8
0
 10
240.919
 20
43.0804
 11
241.403
 21
42.9641
  0
LINE
  8
0
 10
241.403
 20
42.9641
 11
241.9
 21
42.925
  0
LINE
  8
0
 10
241.9
 20
42.925
 11
242.397
 21
42.9641
  0
LINE
  8
0
 10
34.8967
 20
7.76408
 11
35.3811
 21
7.88039
  0
LINE
  8
0
 10
35.3811
 20
7.88039
 11
35.8414
 21
8.07104
  0
LINE
  8
0
 10
35.8414
 20
8.07104
 11
36.2662
 21
8.33136
  0
LINE
  8
0
 10
36.2662
 20
8.33136
 11
36.6451
 21
8.65492
  0
LINE
  8
0
 10
36.6451
 20
8.65492
 11
36.9686
 21
9.03377
  0
LINE
  8
0
 10
36.9686
 20
9.03377
 11
37.2289
 21
9.45857
  0
LINE
  8
0
 10
37.2289
 20
9.45857
 11
37.4196
 21
9.91887
  0
LINE
  8
0
 10
37.4196
 20
9.91887
 11
37.5359
 21
10.4033
  0
LINE
  8
0
 10
37.5359
 20
10.4033
 11
37.575
 21
10.9
  0
LINE
  8
0
 10
37.575
 20
10.9
 11
37.5359
 21
11.3967
  0
LINE
  8
0
 10
37.5359
 20
11.3967
 11
37.4196
 21
11.8811
  0
LINE
  8
0
 10
37.4196
 20
11.8811
 11
37.2289
 21
12.3414
  0
LINE
  8
0
 10
37.2289
 20
12.3414
 11
36.9686
 21
12.7662
  0
LINE
  8
0
 10
36.9686
 20
12.7662
 11
36.6451
 21
13.1451
  0
LINE
  8
0
 10
36.6451
 20
13.1451
 11
36.2662
 21
13.4686
  0
LINE
  8
0
 10
36.2662
 20
13.4686
 11
35.8414
 21
13.7289
  0
LINE
  8
0
 10
35.8414
 20
13.7289
 11
35.3811
 21
13.9196
  0
LINE
  8
0
 10
35.3811
 20
13.9196
 11
34.8967
 21
14.0359
  0
LINE
  8
0
 10
34.8967
 20
14.0359
 11
34.4
 21
14.075
  0
LINE
  8
0
 10
34.4
 20
14.075
 11
33.9033
 21
14.0359
  0
LINE
  8
0
 10
33.9033
 20
14.0359
 11
33.4189
 21
13.9196
  0
LINE
  8
0
 10
33.4189
 20
13.9196
 11
32.9586
 21
13.7289
  0
LINE
  8
0
 10
32.9586
 20
13.7289
 11
32.5338
 21
13.4686
  0
LINE
  8
0
 10
32.5338
 20
13.4686
 11
32.1549
 21
13.1451
  0
LINE
  8
0
 10
32.1549
 20
13.1451
 11
31.8314
 21
12.7662
  0
LINE
  8
0
 10
31.8314
 20
12.7662
 11
31.571
 21
12.3414
  0
LINE
  8
0
 10
31.571
 20
12.3414
 11
31.3804
 21
11.8811
  0
LINE
  8
0
 10
31.3804
 20
11.8811
 11
31.2641
 21
11.3967
  0
LINE
  8
0
 10
31.2641
 20
11.3967
 11
31.225
 21
10.9
  0
LINE
  8
0
 10
31.225
 20
10.9
 11
31.2641
 21
10.4033
  0
LINE
  8
0
 10
31.2641
 20
10.4033
 11
31.3804
 21
9.91887
  0
LINE
  8
0
 10
31.3804
 20
9.91887
 11
31.571
 21
9.45857
  0
LINE
  8
0
 10
31.571
 20
9.45857
 11
31.8314
 21
9.03377
  0
LINE
  8
0
 10
31.8314
 20
9.03377
 11
32.1549
 21
8.65492
  0
LINE
  8
0
 10
32.1549
 20
8.65492
 11
32.5338
 21
8.33136
  0
LINE
  8
0
 10
32.5338
 20
8.33136
 11
32.9586
 21
8.07104
  0
LINE
  8
0
 10
32.9586
 20
8.07104
 11
33.4189
 21
7.88039
  0
LINE
  8
0
 10
33.4189
 20
7.88039
 11
33.9033
 21
7.76408
  0
LINE
  8
0
 10
33.9033
 20
7.76408
 11
34.4
 21
7.72499
  0
LINE
  8
0
 10
34.4
 20
7.72499
 11
34.8967
 21
7.76408
  0
LINE
  8
0
 10
116.197
 20
7.76408
 11
116.681
 21
7.88039
  0
LINE
  8
0
 10
116.681
 20
7.88039
 11
117.141
 21
8.07104
  0
LINE
  8
0
 10
117.141
 20
8.07104
 11
117.566
 21
8.33136
  0
LINE
  8
0
 10
117.566
 20
8.33136
 11
117.945
 21
8.65492
  0
LINE
  8
0
 10
117.945
 20
8.65492
 11
118.269
 21
9.03377
  0
LINE
  8
0
 10
118.269
 20
9.03377
 11
118.529
 21
9.45857
  0
LINE
  8
0
 10
118.529
 20
9.45857
 11
118.72
 21
9.91887
  0
LINE
  8
0
 10
118.72
 20
9.91887
 11
118.836
 21
10.4033
  0
LINE
  8
0
 10
118.836
 20
10.4033
 11
118.875
 21
10.9
  0
LINE
  8
0
 10
118.875
 20
10.9
 11
118.836
 21
11.3967
  0
LINE
  8
0
 10
118.836
 20
11.3967
 11
118.72
 21
11.8811
  0
LINE
  8
0
 10
118.72
 20
11.8811
 11
118.529
 21
12.3414
  0
LINE
  8
0
 10
118.529
 20
12.3414
 11
118.269
 21
12.7662
  0
LINE
  8
0
 10
118.269
 20
12.7662
 11
117.945
 21
13.1451
  0
LINE
  8
0
 10
117.945
 20
13.1451
 11
117.566
 21
13.4686
  0
LINE
  8
0
 10
117.566
 20
13.4686
 11
117.141
 21
13.7289
  0
LINE
  8
0
 10
117.141
 20
13.7289
 11
116.681
 21
13.9196
  0
LINE
  8
0
 10
116.681
 20
13.9196
 11
116.197
 21
14.0359
  0
LINE
  8
0
 10
116.197
 20
14.0359
 11
115.7
 21
14.075
  0
LINE
  8
0
 10
115.7
 20
14.075
 11
115.203
 21
14.0359
  0
LINE
  8
0
 10
115.203
 20
14.0359
 11
114.719
 21
13.9196
  0
LINE
  8
0
 10
114.719
 20
13.9196
 11
114.259
 21
13.7289
  0
LINE
  8
0
 10
114.259
 20
13.7289
 11
113.834
 21
13.4686
  0
LINE
  8
0
 10
113.834
 20
13.4686
 11
113.455
 21
13.1451
  0
LINE
  8
0
 10
113.455
 20
13.1451
 11
113.131
 21
12.7662
  0
LINE
  8
0
 10
113.131
 20
12.7662
 11
112.871
 21
12.3414
  0
LINE
  8
0
 10
112.871
 20
12.3414
 11
112.68
 21
11.8811
  0
LINE
  8
0
 10
112.68
 20
11.8811
 11
112.564
 21
11.3967
  0
LINE
  8
0
 10
112.564
 20
11.3967
 11
112.525
 21
10.9
  0
LINE
  8
0
 10
112.525
 20
10.9
 11
112.564
 21
10.4033
  0
LINE
  8
0
 10
112.564
 20
10.4033
 11
112.68
 21
9.91887
  0
LINE
  8
0
 10
112.68
 20
9.91887
 11
112.871
 21
9.45857
  0
LINE
  8
0
 10
112.871
 20
9.45857
 11
113.131
 21
9.03377
  0
LINE
  8
0
 10
113.131
 20
9.03377
 11
113.455
 21
8.65492
  0
LINE
  8
0
 10
113.455
 20
8.65492
 11
113.834
 21
8.33136
  0
LINE
  8
0
 10
113.834
 20
8.33136
 11
114.259
 21
8.07104
  0
LINE
  8
0
 10
114.259
 20
8.07104
 11
114.719
 21
7.88039
  0
LINE
  8
0
 10
114.719
 20
7.88039
 11
115.203
 21
7.76408
  0
LINE
  8
0
 10
115.203
 20
7.76408
 11
115.7
 21
7.72499
  0
LINE
  8
0
 10
115.7
 20
7.72499
 11
116.197
 21
7.76408
  0
LINE
  8
0
 10
143.097
 20
7.76408
 11
143.581
 21
7.88039
  0
LINE
  8
0
 10
143.581
 20
7.88039
 11
144.041
 21
8.07104
  0
LINE
  8
0
 10
144.041
 20
8.07104
 11
144.466
 21
8.33136
  0
LINE
  8
0
 10
144.466
 20
8.33136
 11
144.845
 21
8.65492
  0
LINE
  8
0
 10
144.845
 20
8.65492
 11
145.169
 21
9.03377
  0
LINE
  8
0
 10
145.169
 20
9.03377
 11
145.429
 21
9.45857
  0
LINE
  8
0
 10
145.429
 20
9.45857
 11
145.62
 21
9.91887
  0
LINE
  8
0
 10
145.62
 20
9.91887
 11
145.736
 21
10.4033
  0
LINE
  8
0
 10
145.736
 20
10.4033
 11
145.775
 21
10.9
  0
LINE
  8
0
 10
145.775
 20
10.9
 11
145.736
 21
11.3967
  0
LINE
  8
0
 10
145.736
 20
11.3967
 11
145.62
 21
11.8811
  0
LINE
  8
0
 10
145.62
 20
11.8811
 11
145.429
 21
12.3414
  0
LINE
  8
0
 10
145.429
 20
12.3414
 11
145.169
 21
12.7662
  0
LINE
  8
0
 10
145.169
 20
12.7662
 11
144.845
 21
13.1451
  0
LINE
  8
0
 10
144.845
 20
13.1451
 11
144.466
 21
13.4686
  0
LINE
  8
0
 10
144.466
 20
13.4686
 11
144.041
 21
13.7289
  0
LINE
  8
0
 10
144.041
 20
13.7289
 11
143.581
 21
13.9196
  0
LINE
  8
0
 10
143.581
 20
13.9196
 11
143.097
 21
14.0359
  0
LINE
  8
0
 10
143.097
 20
14.0359
 11
142.6
 21
14.075
  0
LINE
  8
0
 10
142.6
 20
14.075
 11
142.103
 21
14.0359
  0
LINE
  8
0
 10
142.103
 20
14.0359
 11
141.619
 21
13.9196
  0
LINE
  8
0
 10
141.619
 20
13.9196
 11
141.159
 21
13.7289
  0
LINE
  8
0
 10
141.159
 20
13.7289
 11
140.734
 21
13.4686
  0
LINE
  8
0
 10
140.734
 20
13.4686
 11
140.355
 21
13.1451
  0
LINE
  8
0
 10
140.355
 20
13.1451
 11
140.031
 21
12.7662
  0
LINE
  8
0
 10
140.031
 20
12.7662
 11
139.771
 21
12.3414
  0
LINE
  8
0
 10
139.771
 20
12.3414
 11
139.58
 21
11.8811
  0
LINE
  8
0
 10
139.58
 20
11.8811
 11
139.464
 21
11.3967
  0
LINE
  8
0
 10
139.464
 20
11.3967
 11
139.425
 21
10.9
  0
LINE
  8
0
 10
139.425
 20
10.9
 11
139.464
 21
10.4033
  0
LINE
  8
0
 10
139.464
 20
10.4033
 11
139.58
 21
9.91887
  0
LINE
  8
0
 10
139.58
 20
9.91887
 11
139.771
 21
9.45857
  0
LINE
  8
0
 10
139.771
 20
9.45857
 11
140.031
 21
9.03377
  0
LINE
  8
0
 10
140.031
 20
9.03377
 11
140.355
 21
8.65492
  0
LINE
  8
0
 10
140.355
 20
8.65492
 11
140.734
 21
8.33136
  0
LINE
  8
0
 10
140.734
 20
8.33136
 11
141.159
 21
8.07104
  0
LINE
  8
0
 10
141.159
 20
8.07104
 11
141.619
 21
7.88039
  0
LINE
  8
0
 10
141.619
 20
7.88039
 11
142.103
 21
7.76408
  0
LINE
  8
0
 10
142.103
 20
7.76408
 11
142.6
 21
7.72499
  0
LINE
  8
0
 10
142.6
 20
7.72499
 11
143.097
 21
7.76408
  0
LINE
  8
0
 10
242.397
 20
7.76408
 11
242.881
 21
7.88039
  0
LINE
  8
0
 10
242.881
 20
7.88039
 11
243.341
 21
8.07104
  0
LINE
  8
0
 10
243.341
 20
8.07104
 11
243.766
 21
8.33136
  0
LINE
  8
0
 10
243.766
 20
8.33136
 11
244.145
 21
8.65492
  0
LINE
  8
0
 10
244.145
 20
8.65492
 11
244.469
 21
9.03377
  0
LINE
  8
0
 10
244.469
 20
9.03377
 11
244.729
 21
9.45857
  0
LINE
  8
0
 10
244.729
 20
9.45857
 11
244.92
 21
9.91887
  0
LINE
  8
0
 10
244.92
 20
9.91887
 11
245.036
 21
10.4033
  0
LINE
  8
0
 10
245.036
 20
10.4033
 11
245.075
 21
10.9
  0
LINE
  8
0
 10
245.075
 20
10.9
 11
245.036
 21
11.3967
  0
LINE
  8
0
 10
245.036
 20
11.3967
 11
244.92
 21
11.8811
  0
LINE
  8
0
 10
244.92
 20
11.8811
 11
244.729
 21
12.3414
  0
LINE
  8
0
 10
244.729
 20
12.3414
 11
244.469
 21
12.7662
  0
LINE
  8
0
 10
244.469
 20
12.7662
 11
244.145
 21
13.1451
  0
LINE
  8
0
 10
244.145
 20
13.1451
 11
243.766
 21
13.4686
  0
LINE
  8
0
 10
243.766
 20
13.4686
 11
243.341
 21
13.7289
  0
LINE
  8
0
 10
243.341
 20
13.7289
 11
242.881
 21
13.9196
  0
LINE
  8
0
 10
242.881
 20
13.9196
 11
242.397
 21
14.0359
  0
LINE
  8
0
 10
242.397
 20
14.0359
 11
241.9
 21
14.075
  0
LINE
  8
0
 10
241.9
 20
14.075
 11
241.403
 21
14.0359
  0
LINE
  8
0
 10
241.403
 20
14.0359
 11
240.919
 21
13.9196
  0
LINE
  8
0
 10
240.919
 20
13.9196
 11
240.459
 21
13.7289
  0
LINE
  8
0
 10
240.459
 20
13.7289
 11
240.034
 21
13.4686
  0
LINE
  8
0
 10
240.034
 20
13.4686
 11
239.655
 21
13.1451
  0
LINE
  8
0
 10
239.655
 20
13.1451
 11
239.331
 21
12.7662
  0
LINE
  8
0
 10
239.331
 20
12.7662
 11
239.071
 21
12.3414
  0
LINE
  8
0
 10
239.071
 20
12.3414
 11
238.88
 21
11.8811
  0
LINE
  8
0
 10
238.88
 20
11.8811
 11
238.764
 21
11.3967
  0
LINE
  8
0
 10
238.764
 20
11.3967
 11
238.725
 21
10.9
  0
LINE
  8
0
 10
238.725
 20
10.9
 11
238.764
 21
10.4033
  0
LINE
  8
0
 10
238.764
 20
10.4033
 11
238.88
 21
9.91887
  0
LINE
  8
0
 10
238.88
 20
9.91887
 11
239.071
 21
9.45857
  0
LINE
  8
0
 10
239.071
 20
9.45857
 11
239.331
 21
9.03377
  0
LINE
  8
0
 10
239.331
 20
9.03377
 11
239.655
 21
8.65492
  0
LINE
  8
0
 10
239.655
 20
8.65492
 11
240.034
 21
8.33136
  0
LINE
  8
0
 10
240.034
 20
8.33136
 11
240.459
 21
8.07104
  0
LINE
  8
0
 10
240.459
 20
8.07104
 11
240.919
 21
7.88039
  0
LINE
  8
0
 10
240.919
 20
7.88039
 11
241.403
 21
7.76408
  0
LINE
  8
0
 10
241.403
 20
7.76408
 11
241.9
 21
7.72499
  0
LINE
  8
0
 10
241.9
 20
7.72499
 11
242.397
 21
7.76408
  0
ENDSEC
  0
SECTION
  2
OBJECTS
  0
DICTIONARY
  0
ENDSEC
  0
EOF
