  0
SECTION
  2
BLOCKS
  0
ENDSEC
  0
SECTION
  2
ENTITIES
  0
LINE
  8
0
 10
341.132
 20
57
 11
0
 21
57
  0
LINE
  8
0
 10
0
 20
57
 11
0
 21
0
  0
LINE
  8
0
 10
0
 20
0
 11
341.132
 21
0
  0
LINE
  8
0
 10
341.132
 20
0
 11
341.132
 21
57
  0
LINE
  8
0
 10
184.882
 20
31.25
 11
184.882
 21
49.75
  0
LINE
  8
0
 10
184.882
 20
49.75
 11
203.382
 21
49.75
  0
LINE
  8
0
 10
203.382
 20
49.75
 11
203.382
 21
31.25
  0
LINE
  8
0
 10
203.382
 20
31.25
 11
184.882
 21
31.25
  0
LINE
  8
0
 10
271.566
 20
46.3209
 11
271.307
 21
46.3832
  0
LINE
  8
0
 10
271.307
 20
46.3832
 11
271.06
 21
46.4853
  0
LINE
  8
0
 10
271.06
 20
46.4853
 11
270.833
 21
46.6247
  0
LINE
  8
0
 10
270.833
 20
46.6247
 11
270.63
 21
46.7979
  0
LINE
  8
0
 10
270.63
 20
46.7979
 11
270.457
 21
47.0008
  0
LINE
  8
0
 10
270.457
 20
47.0008
 11
270.317
 21
47.2282
  0
LINE
  8
0
 10
270.317
 20
47.2282
 11
270.215
 21
47.4747
  0
LINE
  8
0
 10
270.215
 20
47.4747
 11
270.153
 21
47.7341
  0
LINE
  8
0
 10
270.153
 20
47.7341
 11
270.132
 21
48
  0
LINE
  8
0
 10
270.132
 20
48
 11
270.153
 21
48.2659
  0
LINE
  8
0
 10
270.153
 20
48.2659
 11
270.215
 21
48.5253
  0
LINE
  8
0
 10
270.215
 20
48.5253
 11
270.317
 21
48.7718
  0
LINE
  8
0
 10
270.317
 20
48.7718
 11
270.457
 21
48.9992
  0
LINE
  8
0
 10
270.457
 20
48.9992
 11
270.63
 21
49.2021
  0
LINE
  8
0
 10
270.63
 20
49.2021
 11
270.833
 21
49.3753
  0
LINE
  8
0
 10
270.833
 20
49.3753
 11
271.06
 21
49.5147
  0
LINE
  8
0
 10
271.06
 20
49.5147
 11
271.307
 21
49.6168
  0
LINE
  8
0
 10
271.307
 20
49.6168
 11
271.566
 21
49.6791
  0
LINE
  8
0
 10
271.566
 20
49.6791
 11
271.832
 21
49.7
  0
LINE
  8
0
 10
271.832
 20
49.7
 11
272.098
 21
49.6791
  0
LINE
  8
0
 10
272.098
 20
49.6791
 11
272.357
 21
49.6168
  0
LINE
  8
0
 10
272.357
 20
49.6168
 11
272.604
 21
49.5147
  0
LINE
  8
0
 10
272.604
 20
49.5147
 11
272.831
 21
49.3753
  0
LINE
  8
0
 10
272.831
 20
49.3753
 11
273.034
 21
49.2021
  0
LINE
  8
0
 10
273.034
 20
49.2021
 11
273.207
 21
48.9992
  0
LINE
  8
0
 10
273.207
 20
48.9992
 11
273.347
 21
48.7718
  0
LINE
  8
0
 10
273.347
 20
48.7718
 11
273.449
 21
48.5253
  0
LINE
  8
0
 10
273.449
 20
48.5253
 11
273.511
 21
48.2659
  0
LINE
  8
0
 10
273.511
 20
48.2659
 11
273.532
 21
48
  0
LINE
  8
0
 10
273.532
 20
48
 11
273.511
 21
47.7341
  0
LINE
  8
0
 10
273.511
 20
47.7341
 11
273.449
 21
47.4747
  0
LINE
  8
0
 10
273.449
 20
47.4747
 11
273.347
 21
47.2282
  0
LINE
  8
0
 10
273.347
 20
47.2282
 11
273.207
 21
47.0008
  0
LINE
  8
0
 10
273.207
 20
47.0008
 11
273.034
 21
46.7979
  0
LINE
  8
0
 10
273.034
 20
46.7979
 11
272.831
 21
46.6247
  0
LINE
  8
0
 10
272.831
 20
46.6247
 11
272.604
 21
46.4853
  0
LINE
  8
0
 10
272.604
 20
46.4853
 11
272.357
 21
46.3832
  0
LINE
  8
0
 10
272.357
 20
46.3832
 11
272.098
 21
46.3209
  0
LINE
  8
0
 10
272.098
 20
46.3209
 11
271.832
 21
46.3
  0
LINE
  8
0
 10
271.832
 20
46.3
 11
271.566
 21
46.3209
  0
LINE
  8
0
 10
154.266
 20
46.3209
 11
154.007
 21
46.3832
  0
LINE
  8
0
 10
154.007
 20
46.3832
 11
153.76
 21
46.4853
  0
LINE
  8
0
 10
153.76
 20
46.4853
 11
153.533
 21
46.6247
  0
LINE
  8
0
 10
153.533
 20
46.6247
 11
153.33
 21
46.7979
  0
LINE
  8
0
 10
153.33
 20
46.7979
 11
153.157
 21
47.0008
  0
LINE
  8
0
 10
153.157
 20
47.0008
 11
153.017
 21
47.2282
  0
LINE
  8
0
 10
153.017
 20
47.2282
 11
152.915
 21
47.4747
  0
LINE
  8
0
 10
152.915
 20
47.4747
 11
152.853
 21
47.7341
  0
LINE
  8
0
 10
152.853
 20
47.7341
 11
152.832
 21
48
  0
LINE
  8
0
 10
152.832
 20
48
 11
152.853
 21
48.2659
  0
LINE
  8
0
 10
152.853
 20
48.2659
 11
152.915
 21
48.5253
  0
LINE
  8
0
 10
152.915
 20
48.5253
 11
153.017
 21
48.7718
  0
LINE
  8
0
 10
153.017
 20
48.7718
 11
153.157
 21
48.9992
  0
LINE
  8
0
 10
153.157
 20
48.9992
 11
153.33
 21
49.2021
  0
LINE
  8
0
 10
153.33
 20
49.2021
 11
153.533
 21
49.3753
  0
LINE
  8
0
 10
153.533
 20
49.3753
 11
153.76
 21
49.5147
  0
LINE
  8
0
 10
153.76
 20
49.5147
 11
154.007
 21
49.6168
  0
LINE
  8
0
 10
154.007
 20
49.6168
 11
154.266
 21
49.6791
  0
LINE
  8
0
 10
154.266
 20
49.6791
 11
154.532
 21
49.7
  0
LINE
  8
0
 10
154.532
 20
49.7
 11
154.798
 21
49.6791
  0
LINE
  8
0
 10
154.798
 20
49.6791
 11
155.057
 21
49.6168
  0
LINE
  8
0
 10
155.057
 20
49.6168
 11
155.304
 21
49.5147
  0
LINE
  8
0
 10
155.304
 20
49.5147
 11
155.531
 21
49.3753
  0
LINE
  8
0
 10
155.531
 20
49.3753
 11
155.734
 21
49.2021
  0
LINE
  8
0
 10
155.734
 20
49.2021
 11
155.907
 21
48.9992
  0
LINE
  8
0
 10
155.907
 20
48.9992
 11
156.047
 21
48.7718
  0
LINE
  8
0
 10
156.047
 20
48.7718
 11
156.149
 21
48.5253
  0
LINE
  8
0
 10
156.149
 20
48.5253
 11
156.211
 21
48.2659
  0
LINE
  8
0
 10
156.211
 20
48.2659
 11
156.232
 21
48
  0
LINE
  8
0
 10
156.232
 20
48
 11
156.211
 21
47.7341
  0
LINE
  8
0
 10
156.211
 20
47.7341
 11
156.149
 21
47.4747
  0
LINE
  8
0
 10
156.149
 20
47.4747
 11
156.047
 21
47.2282
  0
LINE
  8
0
 10
156.047
 20
47.2282
 11
155.907
 21
47.0008
  0
LINE
  8
0
 10
155.907
 20
47.0008
 11
155.734
 21
46.7979
  0
LINE
  8
0
 10
155.734
 20
46.7979
 11
155.531
 21
46.6247
  0
LINE
  8
0
 10
155.531
 20
46.6247
 11
155.304
 21
46.4853
  0
LINE
  8
0
 10
155.304
 20
46.4853
 11
155.057
 21
46.3832
  0
LINE
  8
0
 10
155.057
 20
46.3832
 11
154.798
 21
46.3209
  0
LINE
  8
0
 10
154.798
 20
46.3209
 11
154.532
 21
46.3
  0
LINE
  8
0
 10
154.532
 20
46.3
 11
154.266
 21
46.3209
  0
LINE
  8
0
 10
39.1251
 20
46.3209
 11
38.8657
 21
46.3832
  0
LINE
  8
0
 10
38.8657
 20
46.3832
 11
38.6192
 21
46.4853
  0
LINE
  8
0
 10
38.6192
 20
46.4853
 11
38.3918
 21
46.6247
  0
LINE
  8
0
 10
38.3918
 20
46.6247
 11
38.1889
 21
46.7979
  0
LINE
  8
0
 10
38.1889
 20
46.7979
 11
38.0157
 21
47.0008
  0
LINE
  8
0
 10
38.0157
 20
47.0008
 11
37.8763
 21
47.2282
  0
LINE
  8
0
 10
37.8763
 20
47.2282
 11
37.7742
 21
47.4747
  0
LINE
  8
0
 10
37.7742
 20
47.4747
 11
37.7119
 21
47.7341
  0
LINE
  8
0
 10
37.7119
 20
47.7341
 11
37.691
 21
48
  0
LINE
  8
0
 10
37.691
 20
48
 11
37.7119
 21
48.2659
  0
LINE
  8
0
 10
37.7119
 20
48.2659
 11
37.7742
 21
48.5253
  0
LINE
  8
0
 10
37.7742
 20
48.5253
 11
37.8763
 21
48.7718
  0
LINE
  8
0
 10
37.8763
 20
48.7718
 11
38.0157
 21
48.9992
  0
LINE
  8
0
 10
38.0157
 20
48.9992
 11
38.1889
 21
49.2021
  0
LINE
  8
0
 10
38.1889
 20
49.2021
 11
38.3918
 21
49.3753
  0
LINE
  8
0
 10
38.3918
 20
49.3753
 11
38.6192
 21
49.5147
  0
LINE
  8
0
 10
38.6192
 20
49.5147
 11
38.8657
 21
49.6168
  0
LINE
  8
0
 10
38.8657
 20
49.6168
 11
39.1251
 21
49.6791
  0
LINE
  8
0
 10
39.1251
 20
49.6791
 11
39.391
 21
49.7
  0
LINE
  8
0
 10
39.391
 20
49.7
 11
39.6569
 21
49.6791
  0
LINE
  8
0
 10
39.6569
 20
49.6791
 11
39.9163
 21
49.6168
  0
LINE
  8
0
 10
39.9163
 20
49.6168
 11
40.1628
 21
49.5147
  0
LINE
  8
0
 10
40.1628
 20
49.5147
 11
40.3902
 21
49.3753
  0
LINE
  8
0
 10
40.3902
 20
49.3753
 11
40.5931
 21
49.2021
  0
LINE
  8
0
 10
40.5931
 20
49.2021
 11
40.7663
 21
48.9992
  0
LINE
  8
0
 10
40.7663
 20
48.9992
 11
40.9057
 21
48.7718
  0
LINE
  8
0
 10
40.9057
 20
48.7718
 11
41.0078
 21
48.5253
  0
LINE
  8
0
 10
41.0078
 20
48.5253
 11
41.0701
 21
48.2659
  0
LINE
  8
0
 10
41.0701
 20
48.2659
 11
41.091
 21
48
  0
LINE
  8
0
 10
41.091
 20
48
 11
41.0701
 21
47.7341
  0
LINE
  8
0
 10
41.0701
 20
47.7341
 11
41.0078
 21
47.4747
  0
LINE
  8
0
 10
41.0078
 20
47.4747
 11
40.9057
 21
47.2282
  0
LINE
  8
0
 10
40.9057
 20
47.2282
 11
40.7663
 21
47.0008
  0
LINE
  8
0
 10
40.7663
 20
47.0008
 11
40.5931
 21
46.7979
  0
LINE
  8
0
 10
40.5931
 20
46.7979
 11
40.3902
 21
46.6247
  0
LINE
  8
0
 10
40.3902
 20
46.6247
 11
40.1628
 21
46.4853
  0
LINE
  8
0
 10
40.1628
 20
46.4853
 11
39.9163
 21
46.3832
  0
LINE
  8
0
 10
39.9163
 20
46.3832
 11
39.6569
 21
46.3209
  0
LINE
  8
0
 10
39.6569
 20
46.3209
 11
39.391
 21
46.3
  0
LINE
  8
0
 10
39.391
 20
46.3
 11
39.1251
 21
46.3209
  0
LINE
  8
0
 10
238.382
 20
8.5
 11
238.382
 21
48.5
  0
LINE
  8
0
 10
238.382
 20
48.5
 11
250.382
 21
48.5
  0
LINE
  8
0
 10
250.382
 20
48.5
 11
250.382
 21
8.5
  0
LINE
  8
0
 10
250.382
 20
8.5
 11
238.382
 21
8.5
  0
LINE
  8
0
 10
72.282
 20
28.25
 11
72.282
 21
46.75
  0
LINE
  8
0
 10
72.282
 20
46.75
 11
90.782
 21
46.75
  0
LINE
  8
0
 10
90.782
 20
46.75
 11
90.782
 21
28.25
  0
LINE
  8
0
 10
90.782
 20
28.25
 11
72.282
 21
28.25
  0
LINE
  8
0
 10
129.282
 20
28.25
 11
129.282
 21
46.75
  0
LINE
  8
0
 10
129.282
 20
46.75
 11
147.782
 21
46.75
  0
LINE
  8
0
 10
147.782
 20
46.75
 11
147.782
 21
28.25
  0
LINE
  8
0
 10
147.782
 20
28.25
 11
129.282
 21
28.25
  0
LINE
  8
0
 10
91.282
 20
26.5705
 11
91.282
 21
45.0705
  0
LINE
  8
0
 10
91.282
 20
45.0705
 11
109.782
 21
45.0705
  0
LINE
  8
0
 10
109.782
 20
45.0705
 11
109.782
 21
26.5705
  0
LINE
  8
0
 10
109.782
 20
26.5705
 11
91.282
 21
26.5705
  0
LINE
  8
0
 10
110.282
 20
26.5705
 11
110.282
 21
45.0705
  0
LINE
  8
0
 10
110.282
 20
45.0705
 11
128.782
 21
45.0705
  0
LINE
  8
0
 10
128.782
 20
45.0705
 11
128.782
 21
26.5705
  0
LINE
  8
0
 10
128.782
 20
26.5705
 11
110.282
 21
26.5705
  0
LINE
  8
0
 10
10.6481
 20
14.2535
 11
8.5
 21
16.4016
  0
LINE
  8
0
 10
8.5
 20
16.4016
 11
8.5
 21
40.5993
  0
LINE
  8
0
 10
8.5
 20
40.5993
 11
10.648
 21
42.7473
  0
LINE
  8
0
 10
10.648
 20
42.7473
 11
68.2336
 21
42.7702
  0
LINE
  8
0
 10
68.2336
 20
42.7702
 11
70.2822
 21
40.725
  0
LINE
  8
0
 10
70.2822
 20
40.725
 11
70.2822
 21
15.7808
  0
LINE
  8
0
 10
70.2822
 20
15.7808
 11
68.7397
 21
14.2405
  0
LINE
  8
0
 10
68.7397
 20
14.2405
 11
10.6481
 21
14.2535
  0
LINE
  8
0
 10
154.102
 20
35.7838
 11
153.682
 21
35.8846
  0
LINE
  8
0
 10
153.682
 20
35.8846
 11
153.284
 21
36.0497
  0
LINE
  8
0
 10
153.284
 20
36.0497
 11
152.916
 21
36.2752
  0
LINE
  8
0
 10
152.916
 20
36.2752
 11
152.587
 21
36.5555
  0
LINE
  8
0
 10
152.587
 20
36.5555
 11
152.307
 21
36.8836
  0
LINE
  8
0
 10
152.307
 20
36.8836
 11
152.082
 21
37.2515
  0
LINE
  8
0
 10
152.082
 20
37.2515
 11
151.917
 21
37.6502
  0
LINE
  8
0
 10
151.917
 20
37.6502
 11
151.816
 21
38.0698
  0
LINE
  8
0
 10
151.816
 20
38.0698
 11
151.782
 21
38.5
  0
LINE
  8
0
 10
151.782
 20
38.5
 11
151.816
 21
38.9302
  0
LINE
  8
0
 10
151.816
 20
38.9302
 11
151.917
 21
39.3498
  0
LINE
  8
0
 10
151.917
 20
39.3498
 11
152.082
 21
39.7485
  0
LINE
  8
0
 10
152.082
 20
39.7485
 11
152.307
 21
40.1164
  0
LINE
  8
0
 10
152.307
 20
40.1164
 11
152.587
 21
40.4445
  0
LINE
  8
0
 10
152.587
 20
40.4445
 11
152.916
 21
40.7248
  0
LINE
  8
0
 10
152.916
 20
40.7248
 11
153.284
 21
40.9503
  0
LINE
  8
0
 10
153.284
 20
40.9503
 11
153.682
 21
41.1154
  0
LINE
  8
0
 10
153.682
 20
41.1154
 11
154.102
 21
41.2161
  0
LINE
  8
0
 10
154.102
 20
41.2161
 11
154.532
 21
41.25
  0
LINE
  8
0
 10
154.532
 20
41.25
 11
154.962
 21
41.2161
  0
LINE
  8
0
 10
154.962
 20
41.2161
 11
155.382
 21
41.1154
  0
LINE
  8
0
 10
155.382
 20
41.1154
 11
155.78
 21
40.9503
  0
LINE
  8
0
 10
155.78
 20
40.9503
 11
156.148
 21
40.7248
  0
LINE
  8
0
 10
156.148
 20
40.7248
 11
156.477
 21
40.4445
  0
LINE
  8
0
 10
156.477
 20
40.4445
 11
156.757
 21
40.1164
  0
LINE
  8
0
 10
156.757
 20
40.1164
 11
156.982
 21
39.7485
  0
LINE
  8
0
 10
156.982
 20
39.7485
 11
157.147
 21
39.3498
  0
LINE
  8
0
 10
157.147
 20
39.3498
 11
157.248
 21
38.9302
  0
LINE
  8
0
 10
157.248
 20
38.9302
 11
157.282
 21
38.5
  0
LINE
  8
0
 10
157.282
 20
38.5
 11
157.248
 21
38.0698
  0
LINE
  8
0
 10
157.248
 20
38.0698
 11
157.147
 21
37.6502
  0
LINE
  8
0
 10
157.147
 20
37.6502
 11
156.982
 21
37.2515
  0
LINE
  8
0
 10
156.982
 20
37.2515
 11
156.757
 21
36.8836
  0
LINE
  8
0
 10
156.757
 20
36.8836
 11
156.477
 21
36.5555
  0
LINE
  8
0
 10
156.477
 20
36.5555
 11
156.148
 21
36.2752
  0
LINE
  8
0
 10
156.148
 20
36.2752
 11
155.78
 21
36.0497
  0
LINE
  8
0
 10
155.78
 20
36.0497
 11
155.382
 21
35.8846
  0
LINE
  8
0
 10
155.382
 20
35.8846
 11
154.962
 21
35.7838
  0
LINE
  8
0
 10
154.962
 20
35.7838
 11
154.532
 21
35.75
  0
LINE
  8
0
 10
154.532
 20
35.75
 11
154.102
 21
35.7838
  0
LINE
  8
0
 10
164.882
 20
19.25
 11
164.882
 21
37.75
  0
LINE
  8
0
 10
164.882
 20
37.75
 11
183.382
 21
37.75
  0
LINE
  8
0
 10
183.382
 20
37.75
 11
183.382
 21
19.25
  0
LINE
  8
0
 10
183.382
 20
19.25
 11
164.882
 21
19.25
  0
LINE
  8
0
 10
216.882
 20
19.25
 11
216.882
 21
37.75
  0
LINE
  8
0
 10
216.882
 20
37.75
 11
235.382
 21
37.75
  0
LINE
  8
0
 10
235.382
 20
37.75
 11
235.382
 21
19.25
  0
LINE
  8
0
 10
235.382
 20
19.25
 11
216.882
 21
19.25
  0
LINE
  8
0
 10
129.282
 20
9.25
 11
129.282
 21
27.75
  0
LINE
  8
0
 10
129.282
 20
27.75
 11
147.782
 21
27.75
  0
LINE
  8
0
 10
147.782
 20
27.75
 11
147.782
 21
9.25
  0
LINE
  8
0
 10
147.782
 20
9.25
 11
129.282
 21
9.25
  0
LINE
  8
0
 10
72.282
 20
9.25
 11
72.282
 21
27.75
  0
LINE
  8
0
 10
72.282
 20
27.75
 11
90.782
 21
27.75
  0
LINE
  8
0
 10
90.782
 20
27.75
 11
90.782
 21
9.25
  0
LINE
  8
0
 10
90.782
 20
9.25
 11
72.282
 21
9.25
  0
LINE
  8
0
 10
184.882
 20
7.25
 11
184.882
 21
25.75
  0
LINE
  8
0
 10
184.882
 20
25.75
 11
203.382
 21
25.75
  0
LINE
  8
0
 10
203.382
 20
25.75
 11
203.382
 21
7.25
  0
LINE
  8
0
 10
203.382
 20
7.25
 11
184.882
 21
7.25
  0
LINE
  8
0
 10
154.102
 20
15.7838
 11
153.682
 21
15.8846
  0
LINE
  8
0
 10
153.682
 20
15.8846
 11
153.284
 21
16.0497
  0
LINE
  8
0
 10
153.284
 20
16.0497
 11
152.916
 21
16.2752
  0
LINE
  8
0
 10
152.916
 20
16.2752
 11
152.587
 21
16.5555
  0
LINE
  8
0
 10
152.587
 20
16.5555
 11
152.307
 21
16.8836
  0
LINE
  8
0
 10
152.307
 20
16.8836
 11
152.082
 21
17.2515
  0
LINE
  8
0
 10
152.082
 20
17.2515
 11
151.917
 21
17.6502
  0
LINE
  8
0
 10
151.917
 20
17.6502
 11
151.816
 21
18.0698
  0
LINE
  8
0
 10
151.816
 20
18.0698
 11
151.782
 21
18.5
  0
LINE
  8
0
 10
151.782
 20
18.5
 11
151.816
 21
18.9302
  0
LINE
  8
0
 10
151.816
 20
18.9302
 11
151.917
 21
19.3498
  0
LINE
  8
0
 10
151.917
 20
19.3498
 11
152.082
 21
19.7485
  0
LINE
  8
0
 10
152.082
 20
19.7485
 11
152.307
 21
20.1164
  0
LINE
  8
0
 10
152.307
 20
20.1164
 11
152.587
 21
20.4445
  0
LINE
  8
0
 10
152.587
 20
20.4445
 11
152.916
 21
20.7248
  0
LINE
  8
0
 10
152.916
 20
20.7248
 11
153.284
 21
20.9503
  0
LINE
  8
0
 10
153.284
 20
20.9503
 11
153.682
 21
21.1154
  0
LINE
  8
0
 10
153.682
 20
21.1154
 11
154.102
 21
21.2161
  0
LINE
  8
0
 10
154.102
 20
21.2161
 11
154.532
 21
21.25
  0
LINE
  8
0
 10
154.532
 20
21.25
 11
154.962
 21
21.2161
  0
LINE
  8
0
 10
154.962
 20
21.2161
 11
155.382
 21
21.1154
  0
LINE
  8
0
 10
155.382
 20
21.1154
 11
155.78
 21
20.9503
  0
LINE
  8
0
 10
155.78
 20
20.9503
 11
156.148
 21
20.7248
  0
LINE
  8
0
 10
156.148
 20
20.7248
 11
156.477
 21
20.4445
  0
LINE
  8
0
 10
156.477
 20
20.4445
 11
156.757
 21
20.1164
  0
LINE
  8
0
 10
156.757
 20
20.1164
 11
156.982
 21
19.7485
  0
LINE
  8
0
 10
156.982
 20
19.7485
 11
157.147
 21
19.3498
  0
LINE
  8
0
 10
157.147
 20
19.3498
 11
157.248
 21
18.9302
  0
LINE
  8
0
 10
157.248
 20
18.9302
 11
157.282
 21
18.5
  0
LINE
  8
0
 10
157.282
 20
18.5
 11
157.248
 21
18.0698
  0
LINE
  8
0
 10
157.248
 20
18.0698
 11
157.147
 21
17.6502
  0
LINE
  8
0
 10
157.147
 20
17.6502
 11
156.982
 21
17.2515
  0
LINE
  8
0
 10
156.982
 20
17.2515
 11
156.757
 21
16.8836
  0
LINE
  8
0
 10
156.757
 20
16.8836
 11
156.477
 21
16.5555
  0
LINE
  8
0
 10
156.477
 20
16.5555
 11
156.148
 21
16.2752
  0
LINE
  8
0
 10
156.148
 20
16.2752
 11
155.78
 21
16.0497
  0
LINE
  8
0
 10
155.78
 20
16.0497
 11
155.382
 21
15.8846
  0
LINE
  8
0
 10
155.382
 20
15.8846
 11
154.962
 21
15.7838
  0
LINE
  8
0
 10
154.962
 20
15.7838
 11
154.532
 21
15.75
  0
LINE
  8
0
 10
154.532
 20
15.75
 11
154.102
 21
15.7838
  0
LINE
  8
0
 10
39.1251
 20
7.32092
 11
38.8657
 21
7.38319
  0
LINE
  8
0
 10
38.8657
 20
7.38319
 11
38.6192
 21
7.48528
  0
LINE
  8
0
 10
38.6192
 20
7.48528
 11
38.3918
 21
7.62466
  0
LINE
  8
0
 10
38.3918
 20
7.62466
 11
38.1889
 21
7.79791
  0
LINE
  8
0
 10
38.1889
 20
7.79791
 11
38.0157
 21
8.00076
  0
LINE
  8
0
 10
38.0157
 20
8.00076
 11
37.8763
 21
8.22821
  0
LINE
  8
0
 10
37.8763
 20
8.22821
 11
37.7742
 21
8.47467
  0
LINE
  8
0
 10
37.7742
 20
8.47467
 11
37.7119
 21
8.73405
  0
LINE
  8
0
 10
37.7119
 20
8.73405
 11
37.691
 21
9
  0
LINE
  8
0
 10
37.691
 20
9
 11
37.7119
 21
9.26593
  0
LINE
  8
0
 10
37.7119
 20
9.26593
 11
37.7742
 21
9.52531
  0
LINE
  8
0
 10
37.7742
 20
9.52531
 11
37.8763
 21
9.77177
  0
LINE
  8
0
 10
37.8763
 20
9.77177
 11
38.0157
 21
9.99922
  0
LINE
  8
0
 10
38.0157
 20
9.99922
 11
38.1889
 21
10.2021
  0
LINE
  8
0
 10
38.1889
 20
10.2021
 11
38.3918
 21
10.3753
  0
LINE
  8
0
 10
38.3918
 20
10.3753
 11
38.6192
 21
10.5147
  0
LINE
  8
0
 10
38.6192
 20
10.5147
 11
38.8657
 21
10.6168
  0
LINE
  8
0
 10
38.8657
 20
10.6168
 11
39.1251
 21
10.6791
  0
LINE
  8
0
 10
39.1251
 20
10.6791
 11
39.391
 21
10.7
  0
LINE
  8
0
 10
39.391
 20
10.7
 11
39.6569
 21
10.6791
  0
LINE
  8
0
 10
39.6569
 20
10.6791
 11
39.9163
 21
10.6168
  0
LINE
  8
0
 10
39.9163
 20
10.6168
 11
40.1628
 21
10.5147
  0
LINE
  8
0
 10
40.1628
 20
10.5147
 11
40.3902
 21
10.3753
  0
LINE
  8
0
 10
40.3902
 20
10.3753
 11
40.5931
 21
10.2021
  0
LINE
  8
0
 10
40.5931
 20
10.2021
 11
40.7663
 21
9.99922
  0
LINE
  8
0
 10
40.7663
 20
9.99922
 11
40.9057
 21
9.77177
  0
LINE
  8
0
 10
40.9057
 20
9.77177
 11
41.0078
 21
9.52531
  0
LINE
  8
0
 10
41.0078
 20
9.52531
 11
41.0701
 21
9.26593
  0
LINE
  8
0
 10
41.0701
 20
9.26593
 11
41.091
 21
9
  0
LINE
  8
0
 10
41.091
 20
9
 11
41.0701
 21
8.73405
  0
LINE
  8
0
 10
41.0701
 20
8.73405
 11
41.0078
 21
8.47467
  0
LINE
  8
0
 10
41.0078
 20
8.47467
 11
40.9057
 21
8.22821
  0
LINE
  8
0
 10
40.9057
 20
8.22821
 11
40.7663
 21
8.00076
  0
LINE
  8
0
 10
40.7663
 20
8.00076
 11
40.5931
 21
7.79791
  0
LINE
  8
0
 10
40.5931
 20
7.79791
 11
40.3902
 21
7.62466
  0
LINE
  8
0
 10
40.3902
 20
7.62466
 11
40.1628
 21
7.48528
  0
LINE
  8
0
 10
40.1628
 20
7.48528
 11
39.9163
 21
7.38319
  0
LINE
  8
0
 10
39.9163
 20
7.38319
 11
39.6569
 21
7.32092
  0
LINE
  8
0
 10
39.6569
 20
7.32092
 11
39.391
 21
7.29999
  0
LINE
  8
0
 10
39.391
 20
7.29999
 11
39.1251
 21
7.32092
  0
LINE
  8
0
 10
154.266
 20
7.32092
 11
154.007
 21
7.38319
  0
LINE
  8
0
 10
154.007
 20
7.38319
 11
153.76
 21
7.48528
  0
LINE
  8
0
 10
153.76
 20
7.48528
 11
153.533
 21
7.62466
  0
LINE
  8
0
 10
153.533
 20
7.62466
 11
153.33
 21
7.79791
  0
LINE
  8
0
 10
153.33
 20
7.79791
 11
153.157
 21
8.00076
  0
LINE
  8
0
 10
153.157
 20
8.00076
 11
153.017
 21
8.22821
  0
LINE
  8
0
 10
153.017
 20
8.22821
 11
152.915
 21
8.47467
  0
LINE
  8
0
 10
152.915
 20
8.47467
 11
152.853
 21
8.73405
  0
LINE
  8
0
 10
152.853
 20
8.73405
 11
152.832
 21
9
  0
LINE
  8
0
 10
152.832
 20
9
 11
152.853
 21
9.26593
  0
LINE
  8
0
 10
152.853
 20
9.26593
 11
152.915
 21
9.52531
  0
LINE
  8
0
 10
152.915
 20
9.52531
 11
153.017
 21
9.77177
  0
LINE
  8
0
 10
153.017
 20
9.77177
 11
153.157
 21
9.99922
  0
LINE
  8
0
 10
153.157
 20
9.99922
 11
153.33
 21
10.2021
  0
LINE
  8
0
 10
153.33
 20
10.2021
 11
153.533
 21
10.3753
  0
LINE
  8
0
 10
153.533
 20
10.3753
 11
153.76
 21
10.5147
  0
LINE
  8
0
 10
153.76
 20
10.5147
 11
154.007
 21
10.6168
  0
LINE
  8
0
 10
154.007
 20
10.6168
 11
154.266
 21
10.6791
  0
LINE
  8
0
 10
154.266
 20
10.6791
 11
154.532
 21
10.7
  0
LINE
  8
0
 10
154.532
 20
10.7
 11
154.798
 21
10.6791
  0
LINE
  8
0
 10
154.798
 20
10.6791
 11
155.057
 21
10.6168
  0
LINE
  8
0
 10
155.057
 20
10.6168
 11
155.304
 21
10.5147
  0
LINE
  8
0
 10
155.304
 20
10.5147
 11
155.531
 21
10.3753
  0
LINE
  8
0
 10
155.531
 20
10.3753
 11
155.734
 21
10.2021
  0
LINE
  8
0
 10
155.734
 20
10.2021
 11
155.907
 21
9.99922
  0
LINE
  8
0
 10
155.907
 20
9.99922
 11
156.047
 21
9.77177
  0
LINE
  8
0
 10
156.047
 20
9.77177
 11
156.149
 21
9.52531
  0
LINE
  8
0
 10
156.149
 20
9.52531
 11
156.211
 21
9.26593
  0
LINE
  8
0
 10
156.211
 20
9.26593
 11
156.232
 21
9
  0
LINE
  8
0
 10
156.232
 20
9
 11
156.211
 21
8.73405
  0
LINE
  8
0
 10
156.211
 20
8.73405
 11
156.149
 21
8.47467
  0
LINE
  8
0
 10
156.149
 20
8.47467
 11
156.047
 21
8.22821
  0
LINE
  8
0
 10
156.047
 20
8.22821
 11
155.907
 21
8.00076
  0
LINE
  8
0
 10
155.907
 20
8.00076
 11
155.734
 21
7.79791
  0
LINE
  8
0
 10
155.734
 20
7.79791
 11
155.531
 21
7.62466
  0
LINE
  8
0
 10
155.531
 20
7.62466
 11
155.304
 21
7.48528
  0
LINE
  8
0
 10
155.304
 20
7.48528
 11
155.057
 21
7.38319
  0
LINE
  8
0
 10
155.057
 20
7.38319
 11
154.798
 21
7.32092
  0
LINE
  8
0
 10
154.798
 20
7.32092
 11
154.532
 21
7.29999
  0
LINE
  8
0
 10
154.532
 20
7.29999
 11
154.266
 21
7.32092
  0
LINE
  8
0
 10
271.566
 20
7.32092
 11
271.307
 21
7.38319
  0
LINE
  8
0
 10
271.307
 20
7.38319
 11
271.06
 21
7.48528
  0
LINE
  8
0
 10
271.06
 20
7.48528
 11
270.833
 21
7.62466
  0
LINE
  8
0
 10
270.833
 20
7.62466
 11
270.63
 21
7.79791
  0
LINE
  8
0
 10
270.63
 20
7.79791
 11
270.457
 21
8.00076
  0
LINE
  8
0
 10
270.457
 20
8.00076
 11
270.317
 21
8.22821
  0
LINE
  8
0
 10
270.317
 20
8.22821
 11
270.215
 21
8.47467
  0
LINE
  8
0
 10
270.215
 20
8.47467
 11
270.153
 21
8.73405
  0
LINE
  8
0
 10
270.153
 20
8.73405
 11
270.132
 21
9
  0
LINE
  8
0
 10
270.132
 20
9
 11
270.153
 21
9.26593
  0
LINE
  8
0
 10
270.153
 20
9.26593
 11
270.215
 21
9.52531
  0
LINE
  8
0
 10
270.215
 20
9.52531
 11
270.317
 21
9.77177
  0
LINE
  8
0
 10
270.317
 20
9.77177
 11
270.457
 21
9.99922
  0
LINE
  8
0
 10
270.457
 20
9.99922
 11
270.63
 21
10.2021
  0
LINE
  8
0
 10
270.63
 20
10.2021
 11
270.833
 21
10.3753
  0
LINE
  8
0
 10
270.833
 20
10.3753
 11
271.06
 21
10.5147
  0
LINE
  8
0
 10
271.06
 20
10.5147
 11
271.307
 21
10.6168
  0
LINE
  8
0
 10
271.307
 20
10.6168
 11
271.566
 21
10.6791
  0
LINE
  8
0
 10
271.566
 20
10.6791
 11
271.832
 21
10.7
  0
LINE
  8
0
 10
271.832
 20
10.7
 11
272.098
 21
10.6791
  0
LINE
  8
0
 10
272.098
 20
10.6791
 11
272.357
 21
10.6168
  0
LINE
  8
0
 10
272.357
 20
10.6168
 11
272.604
 21
10.5147
  0
LINE
  8
0
 10
272.604
 20
10.5147
 11
272.831
 21
10.3753
  0
LINE
  8
0
 10
272.831
 20
10.3753
 11
273.034
 21
10.2021
  0
LINE
  8
0
 10
273.034
 20
10.2021
 11
273.207
 21
9.99922
  0
LINE
  8
0
 10
273.207
 20
9.99922
 11
273.347
 21
9.77177
  0
LINE
  8
0
 10
273.347
 20
9.77177
 11
273.449
 21
9.52531
  0
LINE
  8
0
 10
273.449
 20
9.52531
 11
273.511
 21
9.26593
  0
LINE
  8
0
 10
273.511
 20
9.26593
 11
273.532
 21
9
  0
LINE
  8
0
 10
273.532
 20
9
 11
273.511
 21
8.73405
  0
LINE
  8
0
 10
273.511
 20
8.73405
 11
273.449
 21
8.47467
  0
LINE
  8
0
 10
273.449
 20
8.47467
 11
273.347
 21
8.22821
  0
LINE
  8
0
 10
273.347
 20
8.22821
 11
273.207
 21
8.00076
  0
LINE
  8
0
 10
273.207
 20
8.00076
 11
273.034
 21
7.79791
  0
LINE
  8
0
 10
273.034
 20
7.79791
 11
272.831
 21
7.62466
  0
LINE
  8
0
 10
272.831
 20
7.62466
 11
272.604
 21
7.48528
  0
LINE
  8
0
 10
272.604
 20
7.48528
 11
272.357
 21
7.38319
  0
LINE
  8
0
 10
272.357
 20
7.38319
 11
272.098
 21
7.32092
  0
LINE
  8
0
 10
272.098
 20
7.32092
 11
271.832
 21
7.29999
  0
LINE
  8
0
 10
271.832
 20
7.29999
 11
271.566
 21
7.32092
  0
ENDSEC
  0
SECTION
  2
OBJECTS
  0
DICTIONARY
  0
ENDSEC
  0
EOF
