  0
SECTION
  2
BLOCKS
  0
ENDSEC
  0
SECTION
  2
ENTITIES
  0
LINE
  8
0
 10
592.182
 20
57
 11
0
 21
57
  0
LINE
  8
0
 10
0
 20
57
 11
0
 21
0
  0
LINE
  8
0
 10
0
 20
0
 11
592.182
 21
0
  0
LINE
  8
0
 10
592.182
 20
0
 11
592.182
 21
57
  0
LINE
  8
0
 10
266.932
 20
31.25
 11
266.932
 21
49.75
  0
LINE
  8
0
 10
266.932
 20
49.75
 11
285.432
 21
49.75
  0
LINE
  8
0
 10
285.432
 20
49.75
 11
285.432
 21
31.25
  0
LINE
  8
0
 10
285.432
 20
31.25
 11
266.932
 21
31.25
  0
LINE
  8
0
 10
472.116
 20
46.3209
 11
471.857
 21
46.3832
  0
LINE
  8
0
 10
471.857
 20
46.3832
 11
471.61
 21
46.4853
  0
LINE
  8
0
 10
471.61
 20
46.4853
 11
471.383
 21
46.6247
  0
LINE
  8
0
 10
471.383
 20
46.6247
 11
471.18
 21
46.7979
  0
LINE
  8
0
 10
471.18
 20
46.7979
 11
471.007
 21
47.0008
  0
LINE
  8
0
 10
471.007
 20
47.0008
 11
470.867
 21
47.2282
  0
LINE
  8
0
 10
470.867
 20
47.2282
 11
470.765
 21
47.4747
  0
LINE
  8
0
 10
470.765
 20
47.4747
 11
470.703
 21
47.7341
  0
LINE
  8
0
 10
470.703
 20
47.7341
 11
470.682
 21
48
  0
LINE
  8
0
 10
470.682
 20
48
 11
470.703
 21
48.2659
  0
LINE
  8
0
 10
470.703
 20
48.2659
 11
470.765
 21
48.5253
  0
LINE
  8
0
 10
470.765
 20
48.5253
 11
470.867
 21
48.7718
  0
LINE
  8
0
 10
470.867
 20
48.7718
 11
471.007
 21
48.9992
  0
LINE
  8
0
 10
471.007
 20
48.9992
 11
471.18
 21
49.2021
  0
LINE
  8
0
 10
471.18
 20
49.2021
 11
471.383
 21
49.3753
  0
LINE
  8
0
 10
471.383
 20
49.3753
 11
471.61
 21
49.5147
  0
LINE
  8
0
 10
471.61
 20
49.5147
 11
471.857
 21
49.6168
  0
LINE
  8
0
 10
471.857
 20
49.6168
 11
472.116
 21
49.6791
  0
LINE
  8
0
 10
472.116
 20
49.6791
 11
472.382
 21
49.7
  0
LINE
  8
0
 10
472.382
 20
49.7
 11
472.648
 21
49.6791
  0
LINE
  8
0
 10
472.648
 20
49.6791
 11
472.907
 21
49.6168
  0
LINE
  8
0
 10
472.907
 20
49.6168
 11
473.154
 21
49.5147
  0
LINE
  8
0
 10
473.154
 20
49.5147
 11
473.381
 21
49.3753
  0
LINE
  8
0
 10
473.381
 20
49.3753
 11
473.584
 21
49.2021
  0
LINE
  8
0
 10
473.584
 20
49.2021
 11
473.757
 21
48.9992
  0
LINE
  8
0
 10
473.757
 20
48.9992
 11
473.897
 21
48.7718
  0
LINE
  8
0
 10
473.897
 20
48.7718
 11
473.999
 21
48.5253
  0
LINE
  8
0
 10
473.999
 20
48.5253
 11
474.061
 21
48.2659
  0
LINE
  8
0
 10
474.061
 20
48.2659
 11
474.082
 21
48
  0
LINE
  8
0
 10
474.082
 20
48
 11
474.061
 21
47.7341
  0
LINE
  8
0
 10
474.061
 20
47.7341
 11
473.999
 21
47.4747
  0
LINE
  8
0
 10
473.999
 20
47.4747
 11
473.897
 21
47.2282
  0
LINE
  8
0
 10
473.897
 20
47.2282
 11
473.757
 21
47.0008
  0
LINE
  8
0
 10
473.757
 20
47.0008
 11
473.584
 21
46.7979
  0
LINE
  8
0
 10
473.584
 20
46.7979
 11
473.381
 21
46.6247
  0
LINE
  8
0
 10
473.381
 20
46.6247
 11
473.154
 21
46.4853
  0
LINE
  8
0
 10
473.154
 20
46.4853
 11
472.907
 21
46.3832
  0
LINE
  8
0
 10
472.907
 20
46.3832
 11
472.648
 21
46.3209
  0
LINE
  8
0
 10
472.648
 20
46.3209
 11
472.382
 21
46.3
  0
LINE
  8
0
 10
472.382
 20
46.3
 11
472.116
 21
46.3209
  0
LINE
  8
0
 10
195.291
 20
46.3209
 11
195.032
 21
46.3832
  0
LINE
  8
0
 10
195.032
 20
46.3832
 11
194.785
 21
46.4853
  0
LINE
  8
0
 10
194.785
 20
46.4853
 11
194.558
 21
46.6247
  0
LINE
  8
0
 10
194.558
 20
46.6247
 11
194.355
 21
46.7979
  0
LINE
  8
0
 10
194.355
 20
46.7979
 11
194.182
 21
47.0008
  0
LINE
  8
0
 10
194.182
 20
47.0008
 11
194.042
 21
47.2282
  0
LINE
  8
0
 10
194.042
 20
47.2282
 11
193.94
 21
47.4747
  0
LINE
  8
0
 10
193.94
 20
47.4747
 11
193.878
 21
47.7341
  0
LINE
  8
0
 10
193.878
 20
47.7341
 11
193.857
 21
48
  0
LINE
  8
0
 10
193.857
 20
48
 11
193.878
 21
48.2659
  0
LINE
  8
0
 10
193.878
 20
48.2659
 11
193.94
 21
48.5253
  0
LINE
  8
0
 10
193.94
 20
48.5253
 11
194.042
 21
48.7718
  0
LINE
  8
0
 10
194.042
 20
48.7718
 11
194.182
 21
48.9992
  0
LINE
  8
0
 10
194.182
 20
48.9992
 11
194.355
 21
49.2021
  0
LINE
  8
0
 10
194.355
 20
49.2021
 11
194.558
 21
49.3753
  0
LINE
  8
0
 10
194.558
 20
49.3753
 11
194.785
 21
49.5147
  0
LINE
  8
0
 10
194.785
 20
49.5147
 11
195.032
 21
49.6168
  0
LINE
  8
0
 10
195.032
 20
49.6168
 11
195.291
 21
49.6791
  0
LINE
  8
0
 10
195.291
 20
49.6791
 11
195.557
 21
49.7
  0
LINE
  8
0
 10
195.557
 20
49.7
 11
195.823
 21
49.6791
  0
LINE
  8
0
 10
195.823
 20
49.6791
 11
196.082
 21
49.6168
  0
LINE
  8
0
 10
196.082
 20
49.6168
 11
196.329
 21
49.5147
  0
LINE
  8
0
 10
196.329
 20
49.5147
 11
196.556
 21
49.3753
  0
LINE
  8
0
 10
196.556
 20
49.3753
 11
196.759
 21
49.2021
  0
LINE
  8
0
 10
196.759
 20
49.2021
 11
196.932
 21
48.9992
  0
LINE
  8
0
 10
196.932
 20
48.9992
 11
197.072
 21
48.7718
  0
LINE
  8
0
 10
197.072
 20
48.7718
 11
197.174
 21
48.5253
  0
LINE
  8
0
 10
197.174
 20
48.5253
 11
197.236
 21
48.2659
  0
LINE
  8
0
 10
197.236
 20
48.2659
 11
197.257
 21
48
  0
LINE
  8
0
 10
197.257
 20
48
 11
197.236
 21
47.7341
  0
LINE
  8
0
 10
197.236
 20
47.7341
 11
197.174
 21
47.4747
  0
LINE
  8
0
 10
197.174
 20
47.4747
 11
197.072
 21
47.2282
  0
LINE
  8
0
 10
197.072
 20
47.2282
 11
196.932
 21
47.0008
  0
LINE
  8
0
 10
196.932
 20
47.0008
 11
196.759
 21
46.7979
  0
LINE
  8
0
 10
196.759
 20
46.7979
 11
196.556
 21
46.6247
  0
LINE
  8
0
 10
196.556
 20
46.6247
 11
196.329
 21
46.4853
  0
LINE
  8
0
 10
196.329
 20
46.4853
 11
196.082
 21
46.3832
  0
LINE
  8
0
 10
196.082
 20
46.3832
 11
195.823
 21
46.3209
  0
LINE
  8
0
 10
195.823
 20
46.3209
 11
195.557
 21
46.3
  0
LINE
  8
0
 10
195.557
 20
46.3
 11
195.291
 21
46.3209
  0
LINE
  8
0
 10
39.1251
 20
46.3209
 11
38.8657
 21
46.3832
  0
LINE
  8
0
 10
38.8657
 20
46.3832
 11
38.6192
 21
46.4853
  0
LINE
  8
0
 10
38.6192
 20
46.4853
 11
38.3918
 21
46.6247
  0
LINE
  8
0
 10
38.3918
 20
46.6247
 11
38.1889
 21
46.7979
  0
LINE
  8
0
 10
38.1889
 20
46.7979
 11
38.0157
 21
47.0008
  0
LINE
  8
0
 10
38.0157
 20
47.0008
 11
37.8763
 21
47.2282
  0
LINE
  8
0
 10
37.8763
 20
47.2282
 11
37.7742
 21
47.4747
  0
LINE
  8
0
 10
37.7742
 20
47.4747
 11
37.7119
 21
47.7341
  0
LINE
  8
0
 10
37.7119
 20
47.7341
 11
37.691
 21
48
  0
LINE
  8
0
 10
37.691
 20
48
 11
37.7119
 21
48.2659
  0
LINE
  8
0
 10
37.7119
 20
48.2659
 11
37.7742
 21
48.5253
  0
LINE
  8
0
 10
37.7742
 20
48.5253
 11
37.8763
 21
48.7718
  0
LINE
  8
0
 10
37.8763
 20
48.7718
 11
38.0157
 21
48.9992
  0
LINE
  8
0
 10
38.0157
 20
48.9992
 11
38.1889
 21
49.2021
  0
LINE
  8
0
 10
38.1889
 20
49.2021
 11
38.3918
 21
49.3753
  0
LINE
  8
0
 10
38.3918
 20
49.3753
 11
38.6192
 21
49.5147
  0
LINE
  8
0
 10
38.6192
 20
49.5147
 11
38.8657
 21
49.6168
  0
LINE
  8
0
 10
38.8657
 20
49.6168
 11
39.1251
 21
49.6791
  0
LINE
  8
0
 10
39.1251
 20
49.6791
 11
39.391
 21
49.7
  0
LINE
  8
0
 10
39.391
 20
49.7
 11
39.6569
 21
49.6791
  0
LINE
  8
0
 10
39.6569
 20
49.6791
 11
39.9163
 21
49.6168
  0
LINE
  8
0
 10
39.9163
 20
49.6168
 11
40.1628
 21
49.5147
  0
LINE
  8
0
 10
40.1628
 20
49.5147
 11
40.3902
 21
49.3753
  0
LINE
  8
0
 10
40.3902
 20
49.3753
 11
40.5931
 21
49.2021
  0
LINE
  8
0
 10
40.5931
 20
49.2021
 11
40.7663
 21
48.9992
  0
LINE
  8
0
 10
40.7663
 20
48.9992
 11
40.9057
 21
48.7718
  0
LINE
  8
0
 10
40.9057
 20
48.7718
 11
41.0078
 21
48.5253
  0
LINE
  8
0
 10
41.0078
 20
48.5253
 11
41.0701
 21
48.2659
  0
LINE
  8
0
 10
41.0701
 20
48.2659
 11
41.091
 21
48
  0
LINE
  8
0
 10
41.091
 20
48
 11
41.0701
 21
47.7341
  0
LINE
  8
0
 10
41.0701
 20
47.7341
 11
41.0078
 21
47.4747
  0
LINE
  8
0
 10
41.0078
 20
47.4747
 11
40.9057
 21
47.2282
  0
LINE
  8
0
 10
40.9057
 20
47.2282
 11
40.7663
 21
47.0008
  0
LINE
  8
0
 10
40.7663
 20
47.0008
 11
40.5931
 21
46.7979
  0
LINE
  8
0
 10
40.5931
 20
46.7979
 11
40.3902
 21
46.6247
  0
LINE
  8
0
 10
40.3902
 20
46.6247
 11
40.1628
 21
46.4853
  0
LINE
  8
0
 10
40.1628
 20
46.4853
 11
39.9163
 21
46.3832
  0
LINE
  8
0
 10
39.9163
 20
46.3832
 11
39.6569
 21
46.3209
  0
LINE
  8
0
 10
39.6569
 20
46.3209
 11
39.391
 21
46.3
  0
LINE
  8
0
 10
39.391
 20
46.3
 11
39.1251
 21
46.3209
  0
LINE
  8
0
 10
320.432
 20
8.5
 11
320.432
 21
48.5
  0
LINE
  8
0
 10
320.432
 20
48.5
 11
332.432
 21
48.5
  0
LINE
  8
0
 10
332.432
 20
48.5
 11
332.432
 21
8.5
  0
LINE
  8
0
 10
332.432
 20
8.5
 11
320.432
 21
8.5
  0
LINE
  8
0
 10
72.282
 20
28.25
 11
72.282
 21
46.75
  0
LINE
  8
0
 10
72.282
 20
46.75
 11
90.782
 21
46.75
  0
LINE
  8
0
 10
90.782
 20
46.75
 11
90.782
 21
28.25
  0
LINE
  8
0
 10
90.782
 20
28.25
 11
72.282
 21
28.25
  0
LINE
  8
0
 10
129.282
 20
28.25
 11
129.282
 21
46.75
  0
LINE
  8
0
 10
129.282
 20
46.75
 11
147.782
 21
46.75
  0
LINE
  8
0
 10
147.782
 20
46.75
 11
147.782
 21
28.25
  0
LINE
  8
0
 10
147.782
 20
28.25
 11
129.282
 21
28.25
  0
LINE
  8
0
 10
91.282
 20
26.5705
 11
91.282
 21
45.0705
  0
LINE
  8
0
 10
91.282
 20
45.0705
 11
109.782
 21
45.0705
  0
LINE
  8
0
 10
109.782
 20
45.0705
 11
109.782
 21
26.5705
  0
LINE
  8
0
 10
109.782
 20
26.5705
 11
91.282
 21
26.5705
  0
LINE
  8
0
 10
110.282
 20
26.5705
 11
110.282
 21
45.0705
  0
LINE
  8
0
 10
110.282
 20
45.0705
 11
128.782
 21
45.0705
  0
LINE
  8
0
 10
128.782
 20
45.0705
 11
128.782
 21
26.5705
  0
LINE
  8
0
 10
128.782
 20
26.5705
 11
110.282
 21
26.5705
  0
LINE
  8
0
 10
10.6481
 20
14.2535
 11
8.5
 21
16.4016
  0
LINE
  8
0
 10
8.5
 20
16.4016
 11
8.5
 21
40.5993
  0
LINE
  8
0
 10
8.5
 20
40.5993
 11
10.648
 21
42.7473
  0
LINE
  8
0
 10
10.648
 20
42.7473
 11
68.2336
 21
42.7702
  0
LINE
  8
0
 10
68.2336
 20
42.7702
 11
70.2822
 21
40.725
  0
LINE
  8
0
 10
70.2822
 20
40.725
 11
70.2822
 21
15.7808
  0
LINE
  8
0
 10
70.2822
 20
15.7808
 11
68.7397
 21
14.2405
  0
LINE
  8
0
 10
68.7397
 20
14.2405
 11
10.6481
 21
14.2535
  0
LINE
  8
0
 10
195.127
 20
35.7838
 11
194.707
 21
35.8846
  0
LINE
  8
0
 10
194.707
 20
35.8846
 11
194.309
 21
36.0497
  0
LINE
  8
0
 10
194.309
 20
36.0497
 11
193.941
 21
36.2752
  0
LINE
  8
0
 10
193.941
 20
36.2752
 11
193.612
 21
36.5555
  0
LINE
  8
0
 10
193.612
 20
36.5555
 11
193.332
 21
36.8836
  0
LINE
  8
0
 10
193.332
 20
36.8836
 11
193.107
 21
37.2515
  0
LINE
  8
0
 10
193.107
 20
37.2515
 11
192.942
 21
37.6502
  0
LINE
  8
0
 10
192.942
 20
37.6502
 11
192.841
 21
38.0698
  0
LINE
  8
0
 10
192.841
 20
38.0698
 11
192.807
 21
38.5
  0
LINE
  8
0
 10
192.807
 20
38.5
 11
192.841
 21
38.9302
  0
LINE
  8
0
 10
192.841
 20
38.9302
 11
192.942
 21
39.3498
  0
LINE
  8
0
 10
192.942
 20
39.3498
 11
193.107
 21
39.7485
  0
LINE
  8
0
 10
193.107
 20
39.7485
 11
193.332
 21
40.1164
  0
LINE
  8
0
 10
193.332
 20
40.1164
 11
193.612
 21
40.4445
  0
LINE
  8
0
 10
193.612
 20
40.4445
 11
193.941
 21
40.7248
  0
LINE
  8
0
 10
193.941
 20
40.7248
 11
194.309
 21
40.9503
  0
LINE
  8
0
 10
194.309
 20
40.9503
 11
194.707
 21
41.1154
  0
LINE
  8
0
 10
194.707
 20
41.1154
 11
195.127
 21
41.2161
  0
LINE
  8
0
 10
195.127
 20
41.2161
 11
195.557
 21
41.25
  0
LINE
  8
0
 10
195.557
 20
41.25
 11
195.987
 21
41.2161
  0
LINE
  8
0
 10
195.987
 20
41.2161
 11
196.407
 21
41.1154
  0
LINE
  8
0
 10
196.407
 20
41.1154
 11
196.805
 21
40.9503
  0
LINE
  8
0
 10
196.805
 20
40.9503
 11
197.173
 21
40.7248
  0
LINE
  8
0
 10
197.173
 20
40.7248
 11
197.502
 21
40.4445
  0
LINE
  8
0
 10
197.502
 20
40.4445
 11
197.782
 21
40.1164
  0
LINE
  8
0
 10
197.782
 20
40.1164
 11
198.007
 21
39.7485
  0
LINE
  8
0
 10
198.007
 20
39.7485
 11
198.172
 21
39.3498
  0
LINE
  8
0
 10
198.172
 20
39.3498
 11
198.273
 21
38.9302
  0
LINE
  8
0
 10
198.273
 20
38.9302
 11
198.307
 21
38.5
  0
LINE
  8
0
 10
198.307
 20
38.5
 11
198.273
 21
38.0698
  0
LINE
  8
0
 10
198.273
 20
38.0698
 11
198.172
 21
37.6502
  0
LINE
  8
0
 10
198.172
 20
37.6502
 11
198.007
 21
37.2515
  0
LINE
  8
0
 10
198.007
 20
37.2515
 11
197.782
 21
36.8836
  0
LINE
  8
0
 10
197.782
 20
36.8836
 11
197.502
 21
36.5555
  0
LINE
  8
0
 10
197.502
 20
36.5555
 11
197.173
 21
36.2752
  0
LINE
  8
0
 10
197.173
 20
36.2752
 11
196.805
 21
36.0497
  0
LINE
  8
0
 10
196.805
 20
36.0497
 11
196.407
 21
35.8846
  0
LINE
  8
0
 10
196.407
 20
35.8846
 11
195.987
 21
35.7838
  0
LINE
  8
0
 10
195.987
 20
35.7838
 11
195.557
 21
35.75
  0
LINE
  8
0
 10
195.557
 20
35.75
 11
195.127
 21
35.7838
  0
LINE
  8
0
 10
246.932
 20
19.25
 11
246.932
 21
37.75
  0
LINE
  8
0
 10
246.932
 20
37.75
 11
265.432
 21
37.75
  0
LINE
  8
0
 10
265.432
 20
37.75
 11
265.432
 21
19.25
  0
LINE
  8
0
 10
265.432
 20
19.25
 11
246.932
 21
19.25
  0
LINE
  8
0
 10
298.932
 20
19.25
 11
298.932
 21
37.75
  0
LINE
  8
0
 10
298.932
 20
37.75
 11
317.432
 21
37.75
  0
LINE
  8
0
 10
317.432
 20
37.75
 11
317.432
 21
19.25
  0
LINE
  8
0
 10
317.432
 20
19.25
 11
298.932
 21
19.25
  0
LINE
  8
0
 10
129.282
 20
9.25
 11
129.282
 21
27.75
  0
LINE
  8
0
 10
129.282
 20
27.75
 11
147.782
 21
27.75
  0
LINE
  8
0
 10
147.782
 20
27.75
 11
147.782
 21
9.25
  0
LINE
  8
0
 10
147.782
 20
9.25
 11
129.282
 21
9.25
  0
LINE
  8
0
 10
72.282
 20
9.25
 11
72.282
 21
27.75
  0
LINE
  8
0
 10
72.282
 20
27.75
 11
90.782
 21
27.75
  0
LINE
  8
0
 10
90.782
 20
27.75
 11
90.782
 21
9.25
  0
LINE
  8
0
 10
90.782
 20
9.25
 11
72.282
 21
9.25
  0
LINE
  8
0
 10
266.932
 20
7.25
 11
266.932
 21
25.75
  0
LINE
  8
0
 10
266.932
 20
25.75
 11
285.432
 21
25.75
  0
LINE
  8
0
 10
285.432
 20
25.75
 11
285.432
 21
7.25
  0
LINE
  8
0
 10
285.432
 20
7.25
 11
266.932
 21
7.25
  0
LINE
  8
0
 10
195.127
 20
15.7838
 11
194.707
 21
15.8846
  0
LINE
  8
0
 10
194.707
 20
15.8846
 11
194.309
 21
16.0497
  0
LINE
  8
0
 10
194.309
 20
16.0497
 11
193.941
 21
16.2752
  0
LINE
  8
0
 10
193.941
 20
16.2752
 11
193.612
 21
16.5555
  0
LINE
  8
0
 10
193.612
 20
16.5555
 11
193.332
 21
16.8836
  0
LINE
  8
0
 10
193.332
 20
16.8836
 11
193.107
 21
17.2515
  0
LINE
  8
0
 10
193.107
 20
17.2515
 11
192.942
 21
17.6502
  0
LINE
  8
0
 10
192.942
 20
17.6502
 11
192.841
 21
18.0698
  0
LINE
  8
0
 10
192.841
 20
18.0698
 11
192.807
 21
18.5
  0
LINE
  8
0
 10
192.807
 20
18.5
 11
192.841
 21
18.9302
  0
LINE
  8
0
 10
192.841
 20
18.9302
 11
192.942
 21
19.3498
  0
LINE
  8
0
 10
192.942
 20
19.3498
 11
193.107
 21
19.7485
  0
LINE
  8
0
 10
193.107
 20
19.7485
 11
193.332
 21
20.1164
  0
LINE
  8
0
 10
193.332
 20
20.1164
 11
193.612
 21
20.4445
  0
LINE
  8
0
 10
193.612
 20
20.4445
 11
193.941
 21
20.7248
  0
LINE
  8
0
 10
193.941
 20
20.7248
 11
194.309
 21
20.9503
  0
LINE
  8
0
 10
194.309
 20
20.9503
 11
194.707
 21
21.1154
  0
LINE
  8
0
 10
194.707
 20
21.1154
 11
195.127
 21
21.2161
  0
LINE
  8
0
 10
195.127
 20
21.2161
 11
195.557
 21
21.25
  0
LINE
  8
0
 10
195.557
 20
21.25
 11
195.987
 21
21.2161
  0
LINE
  8
0
 10
195.987
 20
21.2161
 11
196.407
 21
21.1154
  0
LINE
  8
0
 10
196.407
 20
21.1154
 11
196.805
 21
20.9503
  0
LINE
  8
0
 10
196.805
 20
20.9503
 11
197.173
 21
20.7248
  0
LINE
  8
0
 10
197.173
 20
20.7248
 11
197.502
 21
20.4445
  0
LINE
  8
0
 10
197.502
 20
20.4445
 11
197.782
 21
20.1164
  0
LINE
  8
0
 10
197.782
 20
20.1164
 11
198.007
 21
19.7485
  0
LINE
  8
0
 10
198.007
 20
19.7485
 11
198.172
 21
19.3498
  0
LINE
  8
0
 10
198.172
 20
19.3498
 11
198.273
 21
18.9302
  0
LINE
  8
0
 10
198.273
 20
18.9302
 11
198.307
 21
18.5
  0
LINE
  8
0
 10
198.307
 20
18.5
 11
198.273
 21
18.0698
  0
LINE
  8
0
 10
198.273
 20
18.0698
 11
198.172
 21
17.6502
  0
LINE
  8
0
 10
198.172
 20
17.6502
 11
198.007
 21
17.2515
  0
LINE
  8
0
 10
198.007
 20
17.2515
 11
197.782
 21
16.8836
  0
LINE
  8
0
 10
197.782
 20
16.8836
 11
197.502
 21
16.5555
  0
LINE
  8
0
 10
197.502
 20
16.5555
 11
197.173
 21
16.2752
  0
LINE
  8
0
 10
197.173
 20
16.2752
 11
196.805
 21
16.0497
  0
LINE
  8
0
 10
196.805
 20
16.0497
 11
196.407
 21
15.8846
  0
LINE
  8
0
 10
196.407
 20
15.8846
 11
195.987
 21
15.7838
  0
LINE
  8
0
 10
195.987
 20
15.7838
 11
195.557
 21
15.75
  0
LINE
  8
0
 10
195.557
 20
15.75
 11
195.127
 21
15.7838
  0
LINE
  8
0
 10
39.1251
 20
7.32092
 11
38.8657
 21
7.38319
  0
LINE
  8
0
 10
38.8657
 20
7.38319
 11
38.6192
 21
7.48528
  0
LINE
  8
0
 10
38.6192
 20
7.48528
 11
38.3918
 21
7.62466
  0
LINE
  8
0
 10
38.3918
 20
7.62466
 11
38.1889
 21
7.79791
  0
LINE
  8
0
 10
38.1889
 20
7.79791
 11
38.0157
 21
8.00076
  0
LINE
  8
0
 10
38.0157
 20
8.00076
 11
37.8763
 21
8.22821
  0
LINE
  8
0
 10
37.8763
 20
8.22821
 11
37.7742
 21
8.47467
  0
LINE
  8
0
 10
37.7742
 20
8.47467
 11
37.7119
 21
8.73405
  0
LINE
  8
0
 10
37.7119
 20
8.73405
 11
37.691
 21
9
  0
LINE
  8
0
 10
37.691
 20
9
 11
37.7119
 21
9.26593
  0
LINE
  8
0
 10
37.7119
 20
9.26593
 11
37.7742
 21
9.52531
  0
LINE
  8
0
 10
37.7742
 20
9.52531
 11
37.8763
 21
9.77177
  0
LINE
  8
0
 10
37.8763
 20
9.77177
 11
38.0157
 21
9.99922
  0
LINE
  8
0
 10
38.0157
 20
9.99922
 11
38.1889
 21
10.2021
  0
LINE
  8
0
 10
38.1889
 20
10.2021
 11
38.3918
 21
10.3753
  0
LINE
  8
0
 10
38.3918
 20
10.3753
 11
38.6192
 21
10.5147
  0
LINE
  8
0
 10
38.6192
 20
10.5147
 11
38.8657
 21
10.6168
  0
LINE
  8
0
 10
38.8657
 20
10.6168
 11
39.1251
 21
10.6791
  0
LINE
  8
0
 10
39.1251
 20
10.6791
 11
39.391
 21
10.7
  0
LINE
  8
0
 10
39.391
 20
10.7
 11
39.6569
 21
10.6791
  0
LINE
  8
0
 10
39.6569
 20
10.6791
 11
39.9163
 21
10.6168
  0
LINE
  8
0
 10
39.9163
 20
10.6168
 11
40.1628
 21
10.5147
  0
LINE
  8
0
 10
40.1628
 20
10.5147
 11
40.3902
 21
10.3753
  0
LINE
  8
0
 10
40.3902
 20
10.3753
 11
40.5931
 21
10.2021
  0
LINE
  8
0
 10
40.5931
 20
10.2021
 11
40.7663
 21
9.99922
  0
LINE
  8
0
 10
40.7663
 20
9.99922
 11
40.9057
 21
9.77177
  0
LINE
  8
0
 10
40.9057
 20
9.77177
 11
41.0078
 21
9.52531
  0
LINE
  8
0
 10
41.0078
 20
9.52531
 11
41.0701
 21
9.26593
  0
LINE
  8
0
 10
41.0701
 20
9.26593
 11
41.091
 21
9
  0
LINE
  8
0
 10
41.091
 20
9
 11
41.0701
 21
8.73405
  0
LINE
  8
0
 10
41.0701
 20
8.73405
 11
41.0078
 21
8.47467
  0
LINE
  8
0
 10
41.0078
 20
8.47467
 11
40.9057
 21
8.22821
  0
LINE
  8
0
 10
40.9057
 20
8.22821
 11
40.7663
 21
8.00076
  0
LINE
  8
0
 10
40.7663
 20
8.00076
 11
40.5931
 21
7.79791
  0
LINE
  8
0
 10
40.5931
 20
7.79791
 11
40.3902
 21
7.62466
  0
LINE
  8
0
 10
40.3902
 20
7.62466
 11
40.1628
 21
7.48528
  0
LINE
  8
0
 10
40.1628
 20
7.48528
 11
39.9163
 21
7.38319
  0
LINE
  8
0
 10
39.9163
 20
7.38319
 11
39.6569
 21
7.32092
  0
LINE
  8
0
 10
39.6569
 20
7.32092
 11
39.391
 21
7.29999
  0
LINE
  8
0
 10
39.391
 20
7.29999
 11
39.1251
 21
7.32092
  0
LINE
  8
0
 10
195.291
 20
7.32092
 11
195.032
 21
7.38319
  0
LINE
  8
0
 10
195.032
 20
7.38319
 11
194.785
 21
7.48528
  0
LINE
  8
0
 10
194.785
 20
7.48528
 11
194.558
 21
7.62466
  0
LINE
  8
0
 10
194.558
 20
7.62466
 11
194.355
 21
7.79791
  0
LINE
  8
0
 10
194.355
 20
7.79791
 11
194.182
 21
8.00076
  0
LINE
  8
0
 10
194.182
 20
8.00076
 11
194.042
 21
8.22821
  0
LINE
  8
0
 10
194.042
 20
8.22821
 11
193.94
 21
8.47467
  0
LINE
  8
0
 10
193.94
 20
8.47467
 11
193.878
 21
8.73405
  0
LINE
  8
0
 10
193.878
 20
8.73405
 11
193.857
 21
9
  0
LINE
  8
0
 10
193.857
 20
9
 11
193.878
 21
9.26593
  0
LINE
  8
0
 10
193.878
 20
9.26593
 11
193.94
 21
9.52531
  0
LINE
  8
0
 10
193.94
 20
9.52531
 11
194.042
 21
9.77177
  0
LINE
  8
0
 10
194.042
 20
9.77177
 11
194.182
 21
9.99922
  0
LINE
  8
0
 10
194.182
 20
9.99922
 11
194.355
 21
10.2021
  0
LINE
  8
0
 10
194.355
 20
10.2021
 11
194.558
 21
10.3753
  0
LINE
  8
0
 10
194.558
 20
10.3753
 11
194.785
 21
10.5147
  0
LINE
  8
0
 10
194.785
 20
10.5147
 11
195.032
 21
10.6168
  0
LINE
  8
0
 10
195.032
 20
10.6168
 11
195.291
 21
10.6791
  0
LINE
  8
0
 10
195.291
 20
10.6791
 11
195.557
 21
10.7
  0
LINE
  8
0
 10
195.557
 20
10.7
 11
195.823
 21
10.6791
  0
LINE
  8
0
 10
195.823
 20
10.6791
 11
196.082
 21
10.6168
  0
LINE
  8
0
 10
196.082
 20
10.6168
 11
196.329
 21
10.5147
  0
LINE
  8
0
 10
196.329
 20
10.5147
 11
196.556
 21
10.3753
  0
LINE
  8
0
 10
196.556
 20
10.3753
 11
196.759
 21
10.2021
  0
LINE
  8
0
 10
196.759
 20
10.2021
 11
196.932
 21
9.99922
  0
LINE
  8
0
 10
196.932
 20
9.99922
 11
197.072
 21
9.77177
  0
LINE
  8
0
 10
197.072
 20
9.77177
 11
197.174
 21
9.52531
  0
LINE
  8
0
 10
197.174
 20
9.52531
 11
197.236
 21
9.26593
  0
LINE
  8
0
 10
197.236
 20
9.26593
 11
197.257
 21
9
  0
LINE
  8
0
 10
197.257
 20
9
 11
197.236
 21
8.73405
  0
LINE
  8
0
 10
197.236
 20
8.73405
 11
197.174
 21
8.47467
  0
LINE
  8
0
 10
197.174
 20
8.47467
 11
197.072
 21
8.22821
  0
LINE
  8
0
 10
197.072
 20
8.22821
 11
196.932
 21
8.00076
  0
LINE
  8
0
 10
196.932
 20
8.00076
 11
196.759
 21
7.79791
  0
LINE
  8
0
 10
196.759
 20
7.79791
 11
196.556
 21
7.62466
  0
LINE
  8
0
 10
196.556
 20
7.62466
 11
196.329
 21
7.48528
  0
LINE
  8
0
 10
196.329
 20
7.48528
 11
196.082
 21
7.38319
  0
LINE
  8
0
 10
196.082
 20
7.38319
 11
195.823
 21
7.32092
  0
LINE
  8
0
 10
195.823
 20
7.32092
 11
195.557
 21
7.29999
  0
LINE
  8
0
 10
195.557
 20
7.29999
 11
195.291
 21
7.32092
  0
LINE
  8
0
 10
472.116
 20
7.32092
 11
471.857
 21
7.38319
  0
LINE
  8
0
 10
471.857
 20
7.38319
 11
471.61
 21
7.48528
  0
LINE
  8
0
 10
471.61
 20
7.48528
 11
471.383
 21
7.62466
  0
LINE
  8
0
 10
471.383
 20
7.62466
 11
471.18
 21
7.79791
  0
LINE
  8
0
 10
471.18
 20
7.79791
 11
471.007
 21
8.00076
  0
LINE
  8
0
 10
471.007
 20
8.00076
 11
470.867
 21
8.22821
  0
LINE
  8
0
 10
470.867
 20
8.22821
 11
470.765
 21
8.47467
  0
LINE
  8
0
 10
470.765
 20
8.47467
 11
470.703
 21
8.73405
  0
LINE
  8
0
 10
470.703
 20
8.73405
 11
470.682
 21
9
  0
LINE
  8
0
 10
470.682
 20
9
 11
470.703
 21
9.26593
  0
LINE
  8
0
 10
470.703
 20
9.26593
 11
470.765
 21
9.52531
  0
LINE
  8
0
 10
470.765
 20
9.52531
 11
470.867
 21
9.77177
  0
LINE
  8
0
 10
470.867
 20
9.77177
 11
471.007
 21
9.99922
  0
LINE
  8
0
 10
471.007
 20
9.99922
 11
471.18
 21
10.2021
  0
LINE
  8
0
 10
471.18
 20
10.2021
 11
471.383
 21
10.3753
  0
LINE
  8
0
 10
471.383
 20
10.3753
 11
471.61
 21
10.5147
  0
LINE
  8
0
 10
471.61
 20
10.5147
 11
471.857
 21
10.6168
  0
LINE
  8
0
 10
471.857
 20
10.6168
 11
472.116
 21
10.6791
  0
LINE
  8
0
 10
472.116
 20
10.6791
 11
472.382
 21
10.7
  0
LINE
  8
0
 10
472.382
 20
10.7
 11
472.648
 21
10.6791
  0
LINE
  8
0
 10
472.648
 20
10.6791
 11
472.907
 21
10.6168
  0
LINE
  8
0
 10
472.907
 20
10.6168
 11
473.154
 21
10.5147
  0
LINE
  8
0
 10
473.154
 20
10.5147
 11
473.381
 21
10.3753
  0
LINE
  8
0
 10
473.381
 20
10.3753
 11
473.584
 21
10.2021
  0
LINE
  8
0
 10
473.584
 20
10.2021
 11
473.757
 21
9.99922
  0
LINE
  8
0
 10
473.757
 20
9.99922
 11
473.897
 21
9.77177
  0
LINE
  8
0
 10
473.897
 20
9.77177
 11
473.999
 21
9.52531
  0
LINE
  8
0
 10
473.999
 20
9.52531
 11
474.061
 21
9.26593
  0
LINE
  8
0
 10
474.061
 20
9.26593
 11
474.082
 21
9
  0
LINE
  8
0
 10
474.082
 20
9
 11
474.061
 21
8.73405
  0
LINE
  8
0
 10
474.061
 20
8.73405
 11
473.999
 21
8.47467
  0
LINE
  8
0
 10
473.999
 20
8.47467
 11
473.897
 21
8.22821
  0
LINE
  8
0
 10
473.897
 20
8.22821
 11
473.757
 21
8.00076
  0
LINE
  8
0
 10
473.757
 20
8.00076
 11
473.584
 21
7.79791
  0
LINE
  8
0
 10
473.584
 20
7.79791
 11
473.381
 21
7.62466
  0
LINE
  8
0
 10
473.381
 20
7.62466
 11
473.154
 21
7.48528
  0
LINE
  8
0
 10
473.154
 20
7.48528
 11
472.907
 21
7.38319
  0
LINE
  8
0
 10
472.907
 20
7.38319
 11
472.648
 21
7.32092
  0
LINE
  8
0
 10
472.648
 20
7.32092
 11
472.382
 21
7.29999
  0
LINE
  8
0
 10
472.382
 20
7.29999
 11
472.116
 21
7.32092
  0
ENDSEC
  0
SECTION
  2
OBJECTS
  0
DICTIONARY
  0
ENDSEC
  0
EOF
