  0
SECTION
  2
BLOCKS
  0
ENDSEC
  0
SECTION
  2
ENTITIES
  0
LINE
  8
0
 10
384.164
 20
55.2
 11
0
 21
55.2
  0
LINE
  8
0
 10
0
 20
55.2
 11
0
 21
50.8
  0
LINE
  8
0
 10
0
 20
50.8
 11
384.164
 21
50.8
  0
LINE
  8
0
 10
384.164
 20
50.8
 11
384.164
 21
55.2
  0
LINE
  8
0
 10
384.164
 20
6.2
 11
0
 21
6.2
  0
LINE
  8
0
 10
0
 20
6.2
 11
0
 21
1.79999
  0
LINE
  8
0
 10
0
 20
1.79999
 11
384.164
 21
1.79999
  0
LINE
  8
0
 10
384.164
 20
1.79999
 11
384.164
 21
6.2
  0
ENDSEC
  0
SECTION
  2
OBJECTS
  0
DICTIONARY
  0
ENDSEC
  0
EOF
