  0
SECTION
  2
BLOCKS
  0
ENDSEC
  0
SECTION
  2
ENTITIES
  0
LINE
  8
0
 10
384.164
 20
57
 11
0
 21
57
  0
LINE
  8
0
 10
0
 20
57
 11
0
 21
0
  0
LINE
  8
0
 10
0
 20
0
 11
384.164
 21
0
  0
LINE
  8
0
 10
384.164
 20
0
 11
384.164
 21
57
  0
LINE
  8
0
 10
210.414
 20
31.25
 11
210.414
 21
49.75
  0
LINE
  8
0
 10
210.414
 20
49.75
 11
228.914
 21
49.75
  0
LINE
  8
0
 10
228.914
 20
49.75
 11
228.914
 21
31.25
  0
LINE
  8
0
 10
228.914
 20
31.25
 11
210.414
 21
31.25
  0
LINE
  8
0
 10
339.848
 20
46.3209
 11
339.589
 21
46.3832
  0
LINE
  8
0
 10
339.589
 20
46.3832
 11
339.342
 21
46.4853
  0
LINE
  8
0
 10
339.342
 20
46.4853
 11
339.115
 21
46.6247
  0
LINE
  8
0
 10
339.115
 20
46.6247
 11
338.912
 21
46.7979
  0
LINE
  8
0
 10
338.912
 20
46.7979
 11
338.739
 21
47.0008
  0
LINE
  8
0
 10
338.739
 20
47.0008
 11
338.599
 21
47.2282
  0
LINE
  8
0
 10
338.599
 20
47.2282
 11
338.497
 21
47.4747
  0
LINE
  8
0
 10
338.497
 20
47.4747
 11
338.435
 21
47.7341
  0
LINE
  8
0
 10
338.435
 20
47.7341
 11
338.414
 21
48
  0
LINE
  8
0
 10
338.414
 20
48
 11
338.435
 21
48.2659
  0
LINE
  8
0
 10
338.435
 20
48.2659
 11
338.497
 21
48.5253
  0
LINE
  8
0
 10
338.497
 20
48.5253
 11
338.599
 21
48.7718
  0
LINE
  8
0
 10
338.599
 20
48.7718
 11
338.739
 21
48.9992
  0
LINE
  8
0
 10
338.739
 20
48.9992
 11
338.912
 21
49.2021
  0
LINE
  8
0
 10
338.912
 20
49.2021
 11
339.115
 21
49.3753
  0
LINE
  8
0
 10
339.115
 20
49.3753
 11
339.342
 21
49.5147
  0
LINE
  8
0
 10
339.342
 20
49.5147
 11
339.589
 21
49.6168
  0
LINE
  8
0
 10
339.589
 20
49.6168
 11
339.848
 21
49.6791
  0
LINE
  8
0
 10
339.848
 20
49.6791
 11
340.114
 21
49.7
  0
LINE
  8
0
 10
340.114
 20
49.7
 11
340.38
 21
49.6791
  0
LINE
  8
0
 10
340.38
 20
49.6791
 11
340.639
 21
49.6168
  0
LINE
  8
0
 10
340.639
 20
49.6168
 11
340.886
 21
49.5147
  0
LINE
  8
0
 10
340.886
 20
49.5147
 11
341.113
 21
49.3753
  0
LINE
  8
0
 10
341.113
 20
49.3753
 11
341.316
 21
49.2021
  0
LINE
  8
0
 10
341.316
 20
49.2021
 11
341.489
 21
48.9992
  0
LINE
  8
0
 10
341.489
 20
48.9992
 11
341.629
 21
48.7718
  0
LINE
  8
0
 10
341.629
 20
48.7718
 11
341.731
 21
48.5253
  0
LINE
  8
0
 10
341.731
 20
48.5253
 11
341.793
 21
48.2659
  0
LINE
  8
0
 10
341.793
 20
48.2659
 11
341.814
 21
48
  0
LINE
  8
0
 10
341.814
 20
48
 11
341.793
 21
47.7341
  0
LINE
  8
0
 10
341.793
 20
47.7341
 11
341.731
 21
47.4747
  0
LINE
  8
0
 10
341.731
 20
47.4747
 11
341.629
 21
47.2282
  0
LINE
  8
0
 10
341.629
 20
47.2282
 11
341.489
 21
47.0008
  0
LINE
  8
0
 10
341.489
 20
47.0008
 11
341.316
 21
46.7979
  0
LINE
  8
0
 10
341.316
 20
46.7979
 11
341.113
 21
46.6247
  0
LINE
  8
0
 10
341.113
 20
46.6247
 11
340.886
 21
46.4853
  0
LINE
  8
0
 10
340.886
 20
46.4853
 11
340.639
 21
46.3832
  0
LINE
  8
0
 10
340.639
 20
46.3832
 11
340.38
 21
46.3209
  0
LINE
  8
0
 10
340.38
 20
46.3209
 11
340.114
 21
46.3
  0
LINE
  8
0
 10
340.114
 20
46.3
 11
339.848
 21
46.3209
  0
LINE
  8
0
 10
167.032
 20
46.3209
 11
166.773
 21
46.3832
  0
LINE
  8
0
 10
166.773
 20
46.3832
 11
166.526
 21
46.4853
  0
LINE
  8
0
 10
166.526
 20
46.4853
 11
166.299
 21
46.6247
  0
LINE
  8
0
 10
166.299
 20
46.6247
 11
166.096
 21
46.7979
  0
LINE
  8
0
 10
166.096
 20
46.7979
 11
165.923
 21
47.0008
  0
LINE
  8
0
 10
165.923
 20
47.0008
 11
165.783
 21
47.2282
  0
LINE
  8
0
 10
165.783
 20
47.2282
 11
165.681
 21
47.4747
  0
LINE
  8
0
 10
165.681
 20
47.4747
 11
165.619
 21
47.7341
  0
LINE
  8
0
 10
165.619
 20
47.7341
 11
165.598
 21
48
  0
LINE
  8
0
 10
165.598
 20
48
 11
165.619
 21
48.2659
  0
LINE
  8
0
 10
165.619
 20
48.2659
 11
165.681
 21
48.5253
  0
LINE
  8
0
 10
165.681
 20
48.5253
 11
165.783
 21
48.7718
  0
LINE
  8
0
 10
165.783
 20
48.7718
 11
165.923
 21
48.9992
  0
LINE
  8
0
 10
165.923
 20
48.9992
 11
166.096
 21
49.2021
  0
LINE
  8
0
 10
166.096
 20
49.2021
 11
166.299
 21
49.3753
  0
LINE
  8
0
 10
166.299
 20
49.3753
 11
166.526
 21
49.5147
  0
LINE
  8
0
 10
166.526
 20
49.5147
 11
166.773
 21
49.6168
  0
LINE
  8
0
 10
166.773
 20
49.6168
 11
167.032
 21
49.6791
  0
LINE
  8
0
 10
167.032
 20
49.6791
 11
167.298
 21
49.7
  0
LINE
  8
0
 10
167.298
 20
49.7
 11
167.564
 21
49.6791
  0
LINE
  8
0
 10
167.564
 20
49.6791
 11
167.823
 21
49.6168
  0
LINE
  8
0
 10
167.823
 20
49.6168
 11
168.07
 21
49.5147
  0
LINE
  8
0
 10
168.07
 20
49.5147
 11
168.297
 21
49.3753
  0
LINE
  8
0
 10
168.297
 20
49.3753
 11
168.5
 21
49.2021
  0
LINE
  8
0
 10
168.5
 20
49.2021
 11
168.673
 21
48.9992
  0
LINE
  8
0
 10
168.673
 20
48.9992
 11
168.813
 21
48.7718
  0
LINE
  8
0
 10
168.813
 20
48.7718
 11
168.915
 21
48.5253
  0
LINE
  8
0
 10
168.915
 20
48.5253
 11
168.977
 21
48.2659
  0
LINE
  8
0
 10
168.977
 20
48.2659
 11
168.998
 21
48
  0
LINE
  8
0
 10
168.998
 20
48
 11
168.977
 21
47.7341
  0
LINE
  8
0
 10
168.977
 20
47.7341
 11
168.915
 21
47.4747
  0
LINE
  8
0
 10
168.915
 20
47.4747
 11
168.813
 21
47.2282
  0
LINE
  8
0
 10
168.813
 20
47.2282
 11
168.673
 21
47.0008
  0
LINE
  8
0
 10
168.673
 20
47.0008
 11
168.5
 21
46.7979
  0
LINE
  8
0
 10
168.5
 20
46.7979
 11
168.297
 21
46.6247
  0
LINE
  8
0
 10
168.297
 20
46.6247
 11
168.07
 21
46.4853
  0
LINE
  8
0
 10
168.07
 20
46.4853
 11
167.823
 21
46.3832
  0
LINE
  8
0
 10
167.823
 20
46.3832
 11
167.564
 21
46.3209
  0
LINE
  8
0
 10
167.564
 20
46.3209
 11
167.298
 21
46.3
  0
LINE
  8
0
 10
167.298
 20
46.3
 11
167.032
 21
46.3209
  0
LINE
  8
0
 10
39.1251
 20
46.3209
 11
38.8657
 21
46.3832
  0
LINE
  8
0
 10
38.8657
 20
46.3832
 11
38.6192
 21
46.4853
  0
LINE
  8
0
 10
38.6192
 20
46.4853
 11
38.3918
 21
46.6247
  0
LINE
  8
0
 10
38.3918
 20
46.6247
 11
38.1889
 21
46.7979
  0
LINE
  8
0
 10
38.1889
 20
46.7979
 11
38.0157
 21
47.0008
  0
LINE
  8
0
 10
38.0157
 20
47.0008
 11
37.8763
 21
47.2282
  0
LINE
  8
0
 10
37.8763
 20
47.2282
 11
37.7742
 21
47.4747
  0
LINE
  8
0
 10
37.7742
 20
47.4747
 11
37.7119
 21
47.7341
  0
LINE
  8
0
 10
37.7119
 20
47.7341
 11
37.691
 21
48
  0
LINE
  8
0
 10
37.691
 20
48
 11
37.7119
 21
48.2659
  0
LINE
  8
0
 10
37.7119
 20
48.2659
 11
37.7742
 21
48.5253
  0
LINE
  8
0
 10
37.7742
 20
48.5253
 11
37.8763
 21
48.7718
  0
LINE
  8
0
 10
37.8763
 20
48.7718
 11
38.0157
 21
48.9992
  0
LINE
  8
0
 10
38.0157
 20
48.9992
 11
38.1889
 21
49.2021
  0
LINE
  8
0
 10
38.1889
 20
49.2021
 11
38.3918
 21
49.3753
  0
LINE
  8
0
 10
38.3918
 20
49.3753
 11
38.6192
 21
49.5147
  0
LINE
  8
0
 10
38.6192
 20
49.5147
 11
38.8657
 21
49.6168
  0
LINE
  8
0
 10
38.8657
 20
49.6168
 11
39.1251
 21
49.6791
  0
LINE
  8
0
 10
39.1251
 20
49.6791
 11
39.391
 21
49.7
  0
LINE
  8
0
 10
39.391
 20
49.7
 11
39.6569
 21
49.6791
  0
LINE
  8
0
 10
39.6569
 20
49.6791
 11
39.9163
 21
49.6168
  0
LINE
  8
0
 10
39.9163
 20
49.6168
 11
40.1628
 21
49.5147
  0
LINE
  8
0
 10
40.1628
 20
49.5147
 11
40.3902
 21
49.3753
  0
LINE
  8
0
 10
40.3902
 20
49.3753
 11
40.5931
 21
49.2021
  0
LINE
  8
0
 10
40.5931
 20
49.2021
 11
40.7663
 21
48.9992
  0
LINE
  8
0
 10
40.7663
 20
48.9992
 11
40.9057
 21
48.7718
  0
LINE
  8
0
 10
40.9057
 20
48.7718
 11
41.0078
 21
48.5253
  0
LINE
  8
0
 10
41.0078
 20
48.5253
 11
41.0701
 21
48.2659
  0
LINE
  8
0
 10
41.0701
 20
48.2659
 11
41.091
 21
48
  0
LINE
  8
0
 10
41.091
 20
48
 11
41.0701
 21
47.7341
  0
LINE
  8
0
 10
41.0701
 20
47.7341
 11
41.0078
 21
47.4747
  0
LINE
  8
0
 10
41.0078
 20
47.4747
 11
40.9057
 21
47.2282
  0
LINE
  8
0
 10
40.9057
 20
47.2282
 11
40.7663
 21
47.0008
  0
LINE
  8
0
 10
40.7663
 20
47.0008
 11
40.5931
 21
46.7979
  0
LINE
  8
0
 10
40.5931
 20
46.7979
 11
40.3902
 21
46.6247
  0
LINE
  8
0
 10
40.3902
 20
46.6247
 11
40.1628
 21
46.4853
  0
LINE
  8
0
 10
40.1628
 20
46.4853
 11
39.9163
 21
46.3832
  0
LINE
  8
0
 10
39.9163
 20
46.3832
 11
39.6569
 21
46.3209
  0
LINE
  8
0
 10
39.6569
 20
46.3209
 11
39.391
 21
46.3
  0
LINE
  8
0
 10
39.391
 20
46.3
 11
39.1251
 21
46.3209
  0
LINE
  8
0
 10
263.914
 20
8.5
 11
263.914
 21
48.5
  0
LINE
  8
0
 10
263.914
 20
48.5
 11
275.914
 21
48.5
  0
LINE
  8
0
 10
275.914
 20
48.5
 11
275.914
 21
8.5
  0
LINE
  8
0
 10
275.914
 20
8.5
 11
263.914
 21
8.5
  0
LINE
  8
0
 10
72.282
 20
28.25
 11
72.282
 21
46.75
  0
LINE
  8
0
 10
72.282
 20
46.75
 11
90.782
 21
46.75
  0
LINE
  8
0
 10
90.782
 20
46.75
 11
90.782
 21
28.25
  0
LINE
  8
0
 10
90.782
 20
28.25
 11
72.282
 21
28.25
  0
LINE
  8
0
 10
129.282
 20
28.25
 11
129.282
 21
46.75
  0
LINE
  8
0
 10
129.282
 20
46.75
 11
147.782
 21
46.75
  0
LINE
  8
0
 10
147.782
 20
46.75
 11
147.782
 21
28.25
  0
LINE
  8
0
 10
147.782
 20
28.25
 11
129.282
 21
28.25
  0
LINE
  8
0
 10
91.282
 20
26.5705
 11
91.282
 21
45.0705
  0
LINE
  8
0
 10
91.282
 20
45.0705
 11
109.782
 21
45.0705
  0
LINE
  8
0
 10
109.782
 20
45.0705
 11
109.782
 21
26.5705
  0
LINE
  8
0
 10
109.782
 20
26.5705
 11
91.282
 21
26.5705
  0
LINE
  8
0
 10
110.282
 20
26.5705
 11
110.282
 21
45.0705
  0
LINE
  8
0
 10
110.282
 20
45.0705
 11
128.782
 21
45.0705
  0
LINE
  8
0
 10
128.782
 20
45.0705
 11
128.782
 21
26.5705
  0
LINE
  8
0
 10
128.782
 20
26.5705
 11
110.282
 21
26.5705
  0
LINE
  8
0
 10
11.2694
 20
15.2534
 11
11.1913
 21
15.2595
  0
LINE
  8
0
 10
11.1913
 20
15.2595
 11
11.115
 21
15.2778
  0
LINE
  8
0
 10
11.115
 20
15.2778
 11
11.0425
 21
15.3078
  0
LINE
  8
0
 10
11.0425
 20
15.3078
 11
10.9756
 21
15.3488
  0
LINE
  8
0
 10
10.9756
 20
15.3488
 11
10.916
 21
15.3998
  0
LINE
  8
0
 10
10.916
 20
15.3998
 11
9.64645
 21
16.6693
  0
LINE
  8
0
 10
9.64645
 20
16.6693
 11
9.59549
 21
16.729
  0
LINE
  8
0
 10
9.59549
 20
16.729
 11
9.55449
 21
16.7959
  0
LINE
  8
0
 10
9.55449
 20
16.7959
 11
9.52448
 21
16.8684
  0
LINE
  8
0
 10
9.52448
 20
16.8684
 11
9.50615
 21
16.9447
  0
LINE
  8
0
 10
9.50615
 20
16.9447
 11
9.5
 21
17.0229
  0
LINE
  8
0
 10
9.5
 20
17.0229
 11
9.5
 21
39.978
  0
LINE
  8
0
 10
9.5
 20
39.978
 11
9.50615
 21
40.0562
  0
LINE
  8
0
 10
9.50615
 20
40.0562
 11
9.52448
 21
40.1325
  0
LINE
  8
0
 10
9.52448
 20
40.1325
 11
9.55449
 21
40.205
  0
LINE
  8
0
 10
9.55449
 20
40.205
 11
9.59549
 21
40.2719
  0
LINE
  8
0
 10
9.59549
 20
40.2719
 11
9.64645
 21
40.3315
  0
LINE
  8
0
 10
9.64645
 20
40.3315
 11
10.916
 21
41.601
  0
LINE
  8
0
 10
10.916
 20
41.601
 11
10.9755
 21
41.6519
  0
LINE
  8
0
 10
10.9755
 20
41.6519
 11
11.0424
 21
41.6929
  0
LINE
  8
0
 10
11.0424
 20
41.6929
 11
11.1148
 21
41.723
  0
LINE
  8
0
 10
11.1148
 20
41.723
 11
11.1911
 21
41.7413
  0
LINE
  8
0
 10
11.1911
 20
41.7413
 11
11.2693
 21
41.7475
  0
LINE
  8
0
 10
11.2693
 20
41.7475
 11
67.6131
 21
41.77
  0
LINE
  8
0
 10
67.6131
 20
41.77
 11
67.6911
 21
41.7639
  0
LINE
  8
0
 10
67.6911
 20
41.7639
 11
67.7674
 21
41.7456
  0
LINE
  8
0
 10
67.7674
 20
41.7456
 11
67.8399
 21
41.7157
  0
LINE
  8
0
 10
67.8399
 20
41.7157
 11
67.9068
 21
41.6747
  0
LINE
  8
0
 10
67.9068
 20
41.6747
 11
67.9665
 21
41.6238
  0
LINE
  8
0
 10
67.9665
 20
41.6238
 11
69.1355
 21
40.4568
  0
LINE
  8
0
 10
69.1355
 20
40.4568
 11
69.1867
 21
40.3969
  0
LINE
  8
0
 10
69.1867
 20
40.3969
 11
69.2277
 21
40.33
  0
LINE
  8
0
 10
69.2277
 20
40.33
 11
69.2578
 21
40.2575
  0
LINE
  8
0
 10
69.2578
 20
40.2575
 11
69.2761
 21
40.1812
  0
LINE
  8
0
 10
69.2761
 20
40.1812
 11
69.2822
 21
40.103
  0
LINE
  8
0
 10
69.2822
 20
40.103
 11
69.2822
 21
16.4028
  0
LINE
  8
0
 10
69.2822
 20
16.4028
 11
69.276
 21
16.3242
  0
LINE
  8
0
 10
69.276
 20
16.3242
 11
69.2576
 21
16.2479
  0
LINE
  8
0
 10
69.2576
 20
16.2479
 11
69.2276
 21
16.1754
  0
LINE
  8
0
 10
69.2276
 20
16.1754
 11
69.1865
 21
16.1086
  0
LINE
  8
0
 10
69.1865
 20
16.1086
 11
69.1355
 21
16.049
  0
LINE
  8
0
 10
69.1355
 20
16.049
 11
68.4724
 21
15.3868
  0
LINE
  8
0
 10
68.4724
 20
15.3868
 11
68.4129
 21
15.3361
  0
LINE
  8
0
 10
68.4129
 20
15.3361
 11
68.346
 21
15.2951
  0
LINE
  8
0
 10
68.346
 20
15.2951
 11
68.2735
 21
15.2651
  0
LINE
  8
0
 10
68.2735
 20
15.2651
 11
68.1973
 21
15.2468
  0
LINE
  8
0
 10
68.1973
 20
15.2468
 11
68.119
 21
15.2407
  0
LINE
  8
0
 10
68.119
 20
15.2407
 11
11.2694
 21
15.2534
  0
LINE
  8
0
 10
166.868
 20
35.7838
 11
166.448
 21
35.8846
  0
LINE
  8
0
 10
166.448
 20
35.8846
 11
166.05
 21
36.0497
  0
LINE
  8
0
 10
166.05
 20
36.0497
 11
165.682
 21
36.2752
  0
LINE
  8
0
 10
165.682
 20
36.2752
 11
165.353
 21
36.5555
  0
LINE
  8
0
 10
165.353
 20
36.5555
 11
165.073
 21
36.8836
  0
LINE
  8
0
 10
165.073
 20
36.8836
 11
164.848
 21
37.2515
  0
LINE
  8
0
 10
164.848
 20
37.2515
 11
164.683
 21
37.6502
  0
LINE
  8
0
 10
164.683
 20
37.6502
 11
164.582
 21
38.0698
  0
LINE
  8
0
 10
164.582
 20
38.0698
 11
164.548
 21
38.5
  0
LINE
  8
0
 10
164.548
 20
38.5
 11
164.582
 21
38.9302
  0
LINE
  8
0
 10
164.582
 20
38.9302
 11
164.683
 21
39.3498
  0
LINE
  8
0
 10
164.683
 20
39.3498
 11
164.848
 21
39.7485
  0
LINE
  8
0
 10
164.848
 20
39.7485
 11
165.073
 21
40.1164
  0
LINE
  8
0
 10
165.073
 20
40.1164
 11
165.353
 21
40.4445
  0
LINE
  8
0
 10
165.353
 20
40.4445
 11
165.682
 21
40.7248
  0
LINE
  8
0
 10
165.682
 20
40.7248
 11
166.05
 21
40.9503
  0
LINE
  8
0
 10
166.05
 20
40.9503
 11
166.448
 21
41.1154
  0
LINE
  8
0
 10
166.448
 20
41.1154
 11
166.868
 21
41.2161
  0
LINE
  8
0
 10
166.868
 20
41.2161
 11
167.298
 21
41.25
  0
LINE
  8
0
 10
167.298
 20
41.25
 11
167.728
 21
41.2161
  0
LINE
  8
0
 10
167.728
 20
41.2161
 11
168.148
 21
41.1154
  0
LINE
  8
0
 10
168.148
 20
41.1154
 11
168.546
 21
40.9503
  0
LINE
  8
0
 10
168.546
 20
40.9503
 11
168.914
 21
40.7248
  0
LINE
  8
0
 10
168.914
 20
40.7248
 11
169.243
 21
40.4445
  0
LINE
  8
0
 10
169.243
 20
40.4445
 11
169.523
 21
40.1164
  0
LINE
  8
0
 10
169.523
 20
40.1164
 11
169.748
 21
39.7485
  0
LINE
  8
0
 10
169.748
 20
39.7485
 11
169.913
 21
39.3498
  0
LINE
  8
0
 10
169.913
 20
39.3498
 11
170.014
 21
38.9302
  0
LINE
  8
0
 10
170.014
 20
38.9302
 11
170.048
 21
38.5
  0
LINE
  8
0
 10
170.048
 20
38.5
 11
170.014
 21
38.0698
  0
LINE
  8
0
 10
170.014
 20
38.0698
 11
169.913
 21
37.6502
  0
LINE
  8
0
 10
169.913
 20
37.6502
 11
169.748
 21
37.2515
  0
LINE
  8
0
 10
169.748
 20
37.2515
 11
169.523
 21
36.8836
  0
LINE
  8
0
 10
169.523
 20
36.8836
 11
169.243
 21
36.5555
  0
LINE
  8
0
 10
169.243
 20
36.5555
 11
168.914
 21
36.2752
  0
LINE
  8
0
 10
168.914
 20
36.2752
 11
168.546
 21
36.0497
  0
LINE
  8
0
 10
168.546
 20
36.0497
 11
168.148
 21
35.8846
  0
LINE
  8
0
 10
168.148
 20
35.8846
 11
167.728
 21
35.7838
  0
LINE
  8
0
 10
167.728
 20
35.7838
 11
167.298
 21
35.75
  0
LINE
  8
0
 10
167.298
 20
35.75
 11
166.868
 21
35.7838
  0
LINE
  8
0
 10
190.414
 20
19.25
 11
190.414
 21
37.75
  0
LINE
  8
0
 10
190.414
 20
37.75
 11
208.914
 21
37.75
  0
LINE
  8
0
 10
208.914
 20
37.75
 11
208.914
 21
19.25
  0
LINE
  8
0
 10
208.914
 20
19.25
 11
190.414
 21
19.25
  0
LINE
  8
0
 10
242.414
 20
19.25
 11
242.414
 21
37.75
  0
LINE
  8
0
 10
242.414
 20
37.75
 11
260.914
 21
37.75
  0
LINE
  8
0
 10
260.914
 20
37.75
 11
260.914
 21
19.25
  0
LINE
  8
0
 10
260.914
 20
19.25
 11
242.414
 21
19.25
  0
LINE
  8
0
 10
129.282
 20
9.25
 11
129.282
 21
27.75
  0
LINE
  8
0
 10
129.282
 20
27.75
 11
147.782
 21
27.75
  0
LINE
  8
0
 10
147.782
 20
27.75
 11
147.782
 21
9.25
  0
LINE
  8
0
 10
147.782
 20
9.25
 11
129.282
 21
9.25
  0
LINE
  8
0
 10
72.282
 20
9.25
 11
72.282
 21
27.75
  0
LINE
  8
0
 10
72.282
 20
27.75
 11
90.782
 21
27.75
  0
LINE
  8
0
 10
90.782
 20
27.75
 11
90.782
 21
9.25
  0
LINE
  8
0
 10
90.782
 20
9.25
 11
72.282
 21
9.25
  0
LINE
  8
0
 10
210.414
 20
7.25
 11
210.414
 21
25.75
  0
LINE
  8
0
 10
210.414
 20
25.75
 11
228.914
 21
25.75
  0
LINE
  8
0
 10
228.914
 20
25.75
 11
228.914
 21
7.25
  0
LINE
  8
0
 10
228.914
 20
7.25
 11
210.414
 21
7.25
  0
LINE
  8
0
 10
166.868
 20
15.7838
 11
166.448
 21
15.8846
  0
LINE
  8
0
 10
166.448
 20
15.8846
 11
166.05
 21
16.0497
  0
LINE
  8
0
 10
166.05
 20
16.0497
 11
165.682
 21
16.2752
  0
LINE
  8
0
 10
165.682
 20
16.2752
 11
165.353
 21
16.5555
  0
LINE
  8
0
 10
165.353
 20
16.5555
 11
165.073
 21
16.8836
  0
LINE
  8
0
 10
165.073
 20
16.8836
 11
164.848
 21
17.2515
  0
LINE
  8
0
 10
164.848
 20
17.2515
 11
164.683
 21
17.6502
  0
LINE
  8
0
 10
164.683
 20
17.6502
 11
164.582
 21
18.0698
  0
LINE
  8
0
 10
164.582
 20
18.0698
 11
164.548
 21
18.5
  0
LINE
  8
0
 10
164.548
 20
18.5
 11
164.582
 21
18.9302
  0
LINE
  8
0
 10
164.582
 20
18.9302
 11
164.683
 21
19.3498
  0
LINE
  8
0
 10
164.683
 20
19.3498
 11
164.848
 21
19.7485
  0
LINE
  8
0
 10
164.848
 20
19.7485
 11
165.073
 21
20.1164
  0
LINE
  8
0
 10
165.073
 20
20.1164
 11
165.353
 21
20.4445
  0
LINE
  8
0
 10
165.353
 20
20.4445
 11
165.682
 21
20.7248
  0
LINE
  8
0
 10
165.682
 20
20.7248
 11
166.05
 21
20.9503
  0
LINE
  8
0
 10
166.05
 20
20.9503
 11
166.448
 21
21.1154
  0
LINE
  8
0
 10
166.448
 20
21.1154
 11
166.868
 21
21.2161
  0
LINE
  8
0
 10
166.868
 20
21.2161
 11
167.298
 21
21.25
  0
LINE
  8
0
 10
167.298
 20
21.25
 11
167.728
 21
21.2161
  0
LINE
  8
0
 10
167.728
 20
21.2161
 11
168.148
 21
21.1154
  0
LINE
  8
0
 10
168.148
 20
21.1154
 11
168.546
 21
20.9503
  0
LINE
  8
0
 10
168.546
 20
20.9503
 11
168.914
 21
20.7248
  0
LINE
  8
0
 10
168.914
 20
20.7248
 11
169.243
 21
20.4445
  0
LINE
  8
0
 10
169.243
 20
20.4445
 11
169.523
 21
20.1164
  0
LINE
  8
0
 10
169.523
 20
20.1164
 11
169.748
 21
19.7485
  0
LINE
  8
0
 10
169.748
 20
19.7485
 11
169.913
 21
19.3498
  0
LINE
  8
0
 10
169.913
 20
19.3498
 11
170.014
 21
18.9302
  0
LINE
  8
0
 10
170.014
 20
18.9302
 11
170.048
 21
18.5
  0
LINE
  8
0
 10
170.048
 20
18.5
 11
170.014
 21
18.0698
  0
LINE
  8
0
 10
170.014
 20
18.0698
 11
169.913
 21
17.6502
  0
LINE
  8
0
 10
169.913
 20
17.6502
 11
169.748
 21
17.2515
  0
LINE
  8
0
 10
169.748
 20
17.2515
 11
169.523
 21
16.8836
  0
LINE
  8
0
 10
169.523
 20
16.8836
 11
169.243
 21
16.5555
  0
LINE
  8
0
 10
169.243
 20
16.5555
 11
168.914
 21
16.2752
  0
LINE
  8
0
 10
168.914
 20
16.2752
 11
168.546
 21
16.0497
  0
LINE
  8
0
 10
168.546
 20
16.0497
 11
168.148
 21
15.8846
  0
LINE
  8
0
 10
168.148
 20
15.8846
 11
167.728
 21
15.7838
  0
LINE
  8
0
 10
167.728
 20
15.7838
 11
167.298
 21
15.75
  0
LINE
  8
0
 10
167.298
 20
15.75
 11
166.868
 21
15.7838
  0
LINE
  8
0
 10
39.1251
 20
7.32092
 11
38.8657
 21
7.38319
  0
LINE
  8
0
 10
38.8657
 20
7.38319
 11
38.6192
 21
7.48528
  0
LINE
  8
0
 10
38.6192
 20
7.48528
 11
38.3918
 21
7.62466
  0
LINE
  8
0
 10
38.3918
 20
7.62466
 11
38.1889
 21
7.79791
  0
LINE
  8
0
 10
38.1889
 20
7.79791
 11
38.0157
 21
8.00076
  0
LINE
  8
0
 10
38.0157
 20
8.00076
 11
37.8763
 21
8.22821
  0
LINE
  8
0
 10
37.8763
 20
8.22821
 11
37.7742
 21
8.47467
  0
LINE
  8
0
 10
37.7742
 20
8.47467
 11
37.7119
 21
8.73405
  0
LINE
  8
0
 10
37.7119
 20
8.73405
 11
37.691
 21
9
  0
LINE
  8
0
 10
37.691
 20
9
 11
37.7119
 21
9.26593
  0
LINE
  8
0
 10
37.7119
 20
9.26593
 11
37.7742
 21
9.52531
  0
LINE
  8
0
 10
37.7742
 20
9.52531
 11
37.8763
 21
9.77177
  0
LINE
  8
0
 10
37.8763
 20
9.77177
 11
38.0157
 21
9.99922
  0
LINE
  8
0
 10
38.0157
 20
9.99922
 11
38.1889
 21
10.2021
  0
LINE
  8
0
 10
38.1889
 20
10.2021
 11
38.3918
 21
10.3753
  0
LINE
  8
0
 10
38.3918
 20
10.3753
 11
38.6192
 21
10.5147
  0
LINE
  8
0
 10
38.6192
 20
10.5147
 11
38.8657
 21
10.6168
  0
LINE
  8
0
 10
38.8657
 20
10.6168
 11
39.1251
 21
10.6791
  0
LINE
  8
0
 10
39.1251
 20
10.6791
 11
39.391
 21
10.7
  0
LINE
  8
0
 10
39.391
 20
10.7
 11
39.6569
 21
10.6791
  0
LINE
  8
0
 10
39.6569
 20
10.6791
 11
39.9163
 21
10.6168
  0
LINE
  8
0
 10
39.9163
 20
10.6168
 11
40.1628
 21
10.5147
  0
LINE
  8
0
 10
40.1628
 20
10.5147
 11
40.3902
 21
10.3753
  0
LINE
  8
0
 10
40.3902
 20
10.3753
 11
40.5931
 21
10.2021
  0
LINE
  8
0
 10
40.5931
 20
10.2021
 11
40.7663
 21
9.99922
  0
LINE
  8
0
 10
40.7663
 20
9.99922
 11
40.9057
 21
9.77177
  0
LINE
  8
0
 10
40.9057
 20
9.77177
 11
41.0078
 21
9.52531
  0
LINE
  8
0
 10
41.0078
 20
9.52531
 11
41.0701
 21
9.26593
  0
LINE
  8
0
 10
41.0701
 20
9.26593
 11
41.091
 21
9
  0
LINE
  8
0
 10
41.091
 20
9
 11
41.0701
 21
8.73405
  0
LINE
  8
0
 10
41.0701
 20
8.73405
 11
41.0078
 21
8.47467
  0
LINE
  8
0
 10
41.0078
 20
8.47467
 11
40.9057
 21
8.22821
  0
LINE
  8
0
 10
40.9057
 20
8.22821
 11
40.7663
 21
8.00076
  0
LINE
  8
0
 10
40.7663
 20
8.00076
 11
40.5931
 21
7.79791
  0
LINE
  8
0
 10
40.5931
 20
7.79791
 11
40.3902
 21
7.62466
  0
LINE
  8
0
 10
40.3902
 20
7.62466
 11
40.1628
 21
7.48528
  0
LINE
  8
0
 10
40.1628
 20
7.48528
 11
39.9163
 21
7.38319
  0
LINE
  8
0
 10
39.9163
 20
7.38319
 11
39.6569
 21
7.32092
  0
LINE
  8
0
 10
39.6569
 20
7.32092
 11
39.391
 21
7.29999
  0
LINE
  8
0
 10
39.391
 20
7.29999
 11
39.1251
 21
7.32092
  0
LINE
  8
0
 10
167.032
 20
7.32092
 11
166.773
 21
7.38319
  0
LINE
  8
0
 10
166.773
 20
7.38319
 11
166.526
 21
7.48528
  0
LINE
  8
0
 10
166.526
 20
7.48528
 11
166.299
 21
7.62466
  0
LINE
  8
0
 10
166.299
 20
7.62466
 11
166.096
 21
7.79791
  0
LINE
  8
0
 10
166.096
 20
7.79791
 11
165.923
 21
8.00076
  0
LINE
  8
0
 10
165.923
 20
8.00076
 11
165.783
 21
8.22821
  0
LINE
  8
0
 10
165.783
 20
8.22821
 11
165.681
 21
8.47467
  0
LINE
  8
0
 10
165.681
 20
8.47467
 11
165.619
 21
8.73405
  0
LINE
  8
0
 10
165.619
 20
8.73405
 11
165.598
 21
9
  0
LINE
  8
0
 10
165.598
 20
9
 11
165.619
 21
9.26593
  0
LINE
  8
0
 10
165.619
 20
9.26593
 11
165.681
 21
9.52531
  0
LINE
  8
0
 10
165.681
 20
9.52531
 11
165.783
 21
9.77177
  0
LINE
  8
0
 10
165.783
 20
9.77177
 11
165.923
 21
9.99922
  0
LINE
  8
0
 10
165.923
 20
9.99922
 11
166.096
 21
10.2021
  0
LINE
  8
0
 10
166.096
 20
10.2021
 11
166.299
 21
10.3753
  0
LINE
  8
0
 10
166.299
 20
10.3753
 11
166.526
 21
10.5147
  0
LINE
  8
0
 10
166.526
 20
10.5147
 11
166.773
 21
10.6168
  0
LINE
  8
0
 10
166.773
 20
10.6168
 11
167.032
 21
10.6791
  0
LINE
  8
0
 10
167.032
 20
10.6791
 11
167.298
 21
10.7
  0
LINE
  8
0
 10
167.298
 20
10.7
 11
167.564
 21
10.6791
  0
LINE
  8
0
 10
167.564
 20
10.6791
 11
167.823
 21
10.6168
  0
LINE
  8
0
 10
167.823
 20
10.6168
 11
168.07
 21
10.5147
  0
LINE
  8
0
 10
168.07
 20
10.5147
 11
168.297
 21
10.3753
  0
LINE
  8
0
 10
168.297
 20
10.3753
 11
168.5
 21
10.2021
  0
LINE
  8
0
 10
168.5
 20
10.2021
 11
168.673
 21
9.99922
  0
LINE
  8
0
 10
168.673
 20
9.99922
 11
168.813
 21
9.77177
  0
LINE
  8
0
 10
168.813
 20
9.77177
 11
168.915
 21
9.52531
  0
LINE
  8
0
 10
168.915
 20
9.52531
 11
168.977
 21
9.26593
  0
LINE
  8
0
 10
168.977
 20
9.26593
 11
168.998
 21
9
  0
LINE
  8
0
 10
168.998
 20
9
 11
168.977
 21
8.73405
  0
LINE
  8
0
 10
168.977
 20
8.73405
 11
168.915
 21
8.47467
  0
LINE
  8
0
 10
168.915
 20
8.47467
 11
168.813
 21
8.22821
  0
LINE
  8
0
 10
168.813
 20
8.22821
 11
168.673
 21
8.00076
  0
LINE
  8
0
 10
168.673
 20
8.00076
 11
168.5
 21
7.79791
  0
LINE
  8
0
 10
168.5
 20
7.79791
 11
168.297
 21
7.62466
  0
LINE
  8
0
 10
168.297
 20
7.62466
 11
168.07
 21
7.48528
  0
LINE
  8
0
 10
168.07
 20
7.48528
 11
167.823
 21
7.38319
  0
LINE
  8
0
 10
167.823
 20
7.38319
 11
167.564
 21
7.32092
  0
LINE
  8
0
 10
167.564
 20
7.32092
 11
167.298
 21
7.29999
  0
LINE
  8
0
 10
167.298
 20
7.29999
 11
167.032
 21
7.32092
  0
LINE
  8
0
 10
339.848
 20
7.32092
 11
339.589
 21
7.38319
  0
LINE
  8
0
 10
339.589
 20
7.38319
 11
339.342
 21
7.48528
  0
LINE
  8
0
 10
339.342
 20
7.48528
 11
339.115
 21
7.62466
  0
LINE
  8
0
 10
339.115
 20
7.62466
 11
338.912
 21
7.79791
  0
LINE
  8
0
 10
338.912
 20
7.79791
 11
338.739
 21
8.00076
  0
LINE
  8
0
 10
338.739
 20
8.00076
 11
338.599
 21
8.22821
  0
LINE
  8
0
 10
338.599
 20
8.22821
 11
338.497
 21
8.47467
  0
LINE
  8
0
 10
338.497
 20
8.47467
 11
338.435
 21
8.73405
  0
LINE
  8
0
 10
338.435
 20
8.73405
 11
338.414
 21
9
  0
LINE
  8
0
 10
338.414
 20
9
 11
338.435
 21
9.26593
  0
LINE
  8
0
 10
338.435
 20
9.26593
 11
338.497
 21
9.52531
  0
LINE
  8
0
 10
338.497
 20
9.52531
 11
338.599
 21
9.77177
  0
LINE
  8
0
 10
338.599
 20
9.77177
 11
338.739
 21
9.99922
  0
LINE
  8
0
 10
338.739
 20
9.99922
 11
338.912
 21
10.2021
  0
LINE
  8
0
 10
338.912
 20
10.2021
 11
339.115
 21
10.3753
  0
LINE
  8
0
 10
339.115
 20
10.3753
 11
339.342
 21
10.5147
  0
LINE
  8
0
 10
339.342
 20
10.5147
 11
339.589
 21
10.6168
  0
LINE
  8
0
 10
339.589
 20
10.6168
 11
339.848
 21
10.6791
  0
LINE
  8
0
 10
339.848
 20
10.6791
 11
340.114
 21
10.7
  0
LINE
  8
0
 10
340.114
 20
10.7
 11
340.38
 21
10.6791
  0
LINE
  8
0
 10
340.38
 20
10.6791
 11
340.639
 21
10.6168
  0
LINE
  8
0
 10
340.639
 20
10.6168
 11
340.886
 21
10.5147
  0
LINE
  8
0
 10
340.886
 20
10.5147
 11
341.113
 21
10.3753
  0
LINE
  8
0
 10
341.113
 20
10.3753
 11
341.316
 21
10.2021
  0
LINE
  8
0
 10
341.316
 20
10.2021
 11
341.489
 21
9.99922
  0
LINE
  8
0
 10
341.489
 20
9.99922
 11
341.629
 21
9.77177
  0
LINE
  8
0
 10
341.629
 20
9.77177
 11
341.731
 21
9.52531
  0
LINE
  8
0
 10
341.731
 20
9.52531
 11
341.793
 21
9.26593
  0
LINE
  8
0
 10
341.793
 20
9.26593
 11
341.814
 21
9
  0
LINE
  8
0
 10
341.814
 20
9
 11
341.793
 21
8.73405
  0
LINE
  8
0
 10
341.793
 20
8.73405
 11
341.731
 21
8.47467
  0
LINE
  8
0
 10
341.731
 20
8.47467
 11
341.629
 21
8.22821
  0
LINE
  8
0
 10
341.629
 20
8.22821
 11
341.489
 21
8.00076
  0
LINE
  8
0
 10
341.489
 20
8.00076
 11
341.316
 21
7.79791
  0
LINE
  8
0
 10
341.316
 20
7.79791
 11
341.113
 21
7.62466
  0
LINE
  8
0
 10
341.113
 20
7.62466
 11
340.886
 21
7.48528
  0
LINE
  8
0
 10
340.886
 20
7.48528
 11
340.639
 21
7.38319
  0
LINE
  8
0
 10
340.639
 20
7.38319
 11
340.38
 21
7.32092
  0
LINE
  8
0
 10
340.38
 20
7.32092
 11
340.114
 21
7.29999
  0
LINE
  8
0
 10
340.114
 20
7.29999
 11
339.848
 21
7.32092
  0
ENDSEC
  0
SECTION
  2
OBJECTS
  0
DICTIONARY
  0
ENDSEC
  0
EOF
