  0
SECTION
  2
BLOCKS
  0
ENDSEC
  0
SECTION
  2
ENTITIES
  0
LINE
  8
0
 10
290.05
 20
15.5197
 11
290.294
 21
15.5783
  0
LINE
  8
0
 10
290.294
 20
15.5783
 11
290.526
 21
15.6744
  0
LINE
  8
0
 10
290.526
 20
15.6744
 11
290.74
 21
15.8056
  0
LINE
  8
0
 10
290.74
 20
15.8056
 11
290.931
 21
15.9686
  0
LINE
  8
0
 10
290.931
 20
15.9686
 11
291.094
 21
16.1595
  0
LINE
  8
0
 10
291.094
 20
16.1595
 11
291.226
 21
16.3736
  0
LINE
  8
0
 10
291.226
 20
16.3736
 11
291.322
 21
16.6056
  0
LINE
  8
0
 10
291.322
 20
16.6056
 11
291.38
 21
16.8497
  0
LINE
  8
0
 10
291.38
 20
16.8497
 11
291.4
 21
17.1
  0
LINE
  8
0
 10
291.4
 20
17.1
 11
291.4
 21
39.9
  0
LINE
  8
0
 10
291.4
 20
39.9
 11
291.38
 21
40.1503
  0
LINE
  8
0
 10
291.38
 20
40.1503
 11
291.322
 21
40.3944
  0
LINE
  8
0
 10
291.322
 20
40.3944
 11
291.226
 21
40.6264
  0
LINE
  8
0
 10
291.226
 20
40.6264
 11
291.094
 21
40.8405
  0
LINE
  8
0
 10
291.094
 20
40.8405
 11
290.931
 21
41.0314
  0
LINE
  8
0
 10
290.931
 20
41.0314
 11
290.74
 21
41.1944
  0
LINE
  8
0
 10
290.74
 20
41.1944
 11
290.526
 21
41.3256
  0
LINE
  8
0
 10
290.526
 20
41.3256
 11
290.294
 21
41.4217
  0
LINE
  8
0
 10
290.294
 20
41.4217
 11
290.05
 21
41.4803
  0
LINE
  8
0
 10
290.05
 20
41.4803
 11
289.8
 21
41.5
  0
LINE
  8
0
 10
289.8
 20
41.5
 11
267
 21
41.5
  0
LINE
  8
0
 10
267
 20
41.5
 11
266.75
 21
41.4803
  0
LINE
  8
0
 10
266.75
 20
41.4803
 11
266.506
 21
41.4217
  0
LINE
  8
0
 10
266.506
 20
41.4217
 11
266.274
 21
41.3256
  0
LINE
  8
0
 10
266.274
 20
41.3256
 11
266.06
 21
41.1944
  0
LINE
  8
0
 10
266.06
 20
41.1944
 11
265.869
 21
41.0314
  0
LINE
  8
0
 10
265.869
 20
41.0314
 11
265.706
 21
40.8405
  0
LINE
  8
0
 10
265.706
 20
40.8405
 11
265.574
 21
40.6264
  0
LINE
  8
0
 10
265.574
 20
40.6264
 11
265.478
 21
40.3944
  0
LINE
  8
0
 10
265.478
 20
40.3944
 11
265.42
 21
40.1503
  0
LINE
  8
0
 10
265.42
 20
40.1503
 11
265.4
 21
39.9
  0
LINE
  8
0
 10
265.4
 20
39.9
 11
265.4
 21
17.1
  0
LINE
  8
0
 10
265.4
 20
17.1
 11
265.42
 21
16.8497
  0
LINE
  8
0
 10
265.42
 20
16.8497
 11
265.478
 21
16.6056
  0
LINE
  8
0
 10
265.478
 20
16.6056
 11
265.574
 21
16.3736
  0
LINE
  8
0
 10
265.574
 20
16.3736
 11
265.706
 21
16.1595
  0
LINE
  8
0
 10
265.706
 20
16.1595
 11
265.869
 21
15.9686
  0
LINE
  8
0
 10
265.869
 20
15.9686
 11
266.06
 21
15.8056
  0
LINE
  8
0
 10
266.06
 20
15.8056
 11
266.274
 21
15.6744
  0
LINE
  8
0
 10
266.274
 20
15.6744
 11
266.506
 21
15.5783
  0
LINE
  8
0
 10
266.506
 20
15.5783
 11
266.75
 21
15.5197
  0
LINE
  8
0
 10
266.75
 20
15.5197
 11
267
 21
15.5
  0
LINE
  8
0
 10
267
 20
15.5
 11
289.8
 21
15.5
  0
LINE
  8
0
 10
289.8
 20
15.5
 11
290.05
 21
15.5197
  0
ENDSEC
  0
SECTION
  2
OBJECTS
  0
DICTIONARY
  0
ENDSEC
  0
EOF
