  0
SECTION
  2
BLOCKS
  0
ENDSEC
  0
SECTION
  2
ENTITIES
  0
LINE
  8
0
 10
271.413
 20
43.5246
 11
271.718
 21
43.5979
  0
LINE
  8
0
 10
271.718
 20
43.5979
 11
272.008
 21
43.718
  0
LINE
  8
0
 10
272.008
 20
43.718
 11
272.276
 21
43.882
  0
LINE
  8
0
 10
272.276
 20
43.882
 11
272.514
 21
44.0858
  0
LINE
  8
0
 10
272.514
 20
44.0858
 11
272.718
 21
44.3244
  0
LINE
  8
0
 10
272.718
 20
44.3244
 11
272.882
 21
44.592
  0
LINE
  8
0
 10
272.882
 20
44.592
 11
273.002
 21
44.882
  0
LINE
  8
0
 10
273.002
 20
44.882
 11
273.075
 21
45.1871
  0
LINE
  8
0
 10
273.075
 20
45.1871
 11
273.1
 21
45.5
  0
LINE
  8
0
 10
273.1
 20
45.5
 11
273.075
 21
45.8129
  0
LINE
  8
0
 10
273.075
 20
45.8129
 11
273.002
 21
46.118
  0
LINE
  8
0
 10
273.002
 20
46.118
 11
272.882
 21
46.408
  0
LINE
  8
0
 10
272.882
 20
46.408
 11
272.718
 21
46.6756
  0
LINE
  8
0
 10
272.718
 20
46.6756
 11
272.514
 21
46.9142
  0
LINE
  8
0
 10
272.514
 20
46.9142
 11
272.276
 21
47.118
  0
LINE
  8
0
 10
272.276
 20
47.118
 11
272.008
 21
47.282
  0
LINE
  8
0
 10
272.008
 20
47.282
 11
271.718
 21
47.4021
  0
LINE
  8
0
 10
271.718
 20
47.4021
 11
271.413
 21
47.4754
  0
LINE
  8
0
 10
271.413
 20
47.4754
 11
271.1
 21
47.5
  0
LINE
  8
0
 10
271.1
 20
47.5
 11
270.787
 21
47.4754
  0
LINE
  8
0
 10
270.787
 20
47.4754
 11
270.482
 21
47.4021
  0
LINE
  8
0
 10
270.482
 20
47.4021
 11
270.192
 21
47.282
  0
LINE
  8
0
 10
270.192
 20
47.282
 11
269.924
 21
47.118
  0
LINE
  8
0
 10
269.924
 20
47.118
 11
269.686
 21
46.9142
  0
LINE
  8
0
 10
269.686
 20
46.9142
 11
269.482
 21
46.6756
  0
LINE
  8
0
 10
269.482
 20
46.6756
 11
269.318
 21
46.408
  0
LINE
  8
0
 10
269.318
 20
46.408
 11
269.198
 21
46.118
  0
LINE
  8
0
 10
269.198
 20
46.118
 11
269.125
 21
45.8129
  0
LINE
  8
0
 10
269.125
 20
45.8129
 11
269.1
 21
45.5
  0
LINE
  8
0
 10
269.1
 20
45.5
 11
269.125
 21
45.1871
  0
LINE
  8
0
 10
269.125
 20
45.1871
 11
269.198
 21
44.882
  0
LINE
  8
0
 10
269.198
 20
44.882
 11
269.318
 21
44.592
  0
LINE
  8
0
 10
269.318
 20
44.592
 11
269.482
 21
44.3244
  0
LINE
  8
0
 10
269.482
 20
44.3244
 11
269.686
 21
44.0858
  0
LINE
  8
0
 10
269.686
 20
44.0858
 11
269.924
 21
43.882
  0
LINE
  8
0
 10
269.924
 20
43.882
 11
270.192
 21
43.718
  0
LINE
  8
0
 10
270.192
 20
43.718
 11
270.482
 21
43.5979
  0
LINE
  8
0
 10
270.482
 20
43.5979
 11
270.787
 21
43.5246
  0
LINE
  8
0
 10
270.787
 20
43.5246
 11
271.1
 21
43.5
  0
LINE
  8
0
 10
271.1
 20
43.5
 11
271.413
 21
43.5246
  0
LINE
  8
0
 10
286.013
 20
43.5246
 11
286.318
 21
43.5979
  0
LINE
  8
0
 10
286.318
 20
43.5979
 11
286.608
 21
43.718
  0
LINE
  8
0
 10
286.608
 20
43.718
 11
286.876
 21
43.882
  0
LINE
  8
0
 10
286.876
 20
43.882
 11
287.114
 21
44.0858
  0
LINE
  8
0
 10
287.114
 20
44.0858
 11
287.318
 21
44.3244
  0
LINE
  8
0
 10
287.318
 20
44.3244
 11
287.482
 21
44.592
  0
LINE
  8
0
 10
287.482
 20
44.592
 11
287.602
 21
44.882
  0
LINE
  8
0
 10
287.602
 20
44.882
 11
287.675
 21
45.1871
  0
LINE
  8
0
 10
287.675
 20
45.1871
 11
287.7
 21
45.5
  0
LINE
  8
0
 10
287.7
 20
45.5
 11
287.675
 21
45.8129
  0
LINE
  8
0
 10
287.675
 20
45.8129
 11
287.602
 21
46.118
  0
LINE
  8
0
 10
287.602
 20
46.118
 11
287.482
 21
46.408
  0
LINE
  8
0
 10
287.482
 20
46.408
 11
287.318
 21
46.6756
  0
LINE
  8
0
 10
287.318
 20
46.6756
 11
287.114
 21
46.9142
  0
LINE
  8
0
 10
287.114
 20
46.9142
 11
286.876
 21
47.118
  0
LINE
  8
0
 10
286.876
 20
47.118
 11
286.608
 21
47.282
  0
LINE
  8
0
 10
286.608
 20
47.282
 11
286.318
 21
47.4021
  0
LINE
  8
0
 10
286.318
 20
47.4021
 11
286.013
 21
47.4754
  0
LINE
  8
0
 10
286.013
 20
47.4754
 11
285.7
 21
47.5
  0
LINE
  8
0
 10
285.7
 20
47.5
 11
285.387
 21
47.4754
  0
LINE
  8
0
 10
285.387
 20
47.4754
 11
285.082
 21
47.4021
  0
LINE
  8
0
 10
285.082
 20
47.4021
 11
284.792
 21
47.282
  0
LINE
  8
0
 10
284.792
 20
47.282
 11
284.524
 21
47.118
  0
LINE
  8
0
 10
284.524
 20
47.118
 11
284.286
 21
46.9142
  0
LINE
  8
0
 10
284.286
 20
46.9142
 11
284.082
 21
46.6756
  0
LINE
  8
0
 10
284.082
 20
46.6756
 11
283.918
 21
46.408
  0
LINE
  8
0
 10
283.918
 20
46.408
 11
283.798
 21
46.118
  0
LINE
  8
0
 10
283.798
 20
46.118
 11
283.725
 21
45.8129
  0
LINE
  8
0
 10
283.725
 20
45.8129
 11
283.7
 21
45.5
  0
LINE
  8
0
 10
283.7
 20
45.5
 11
283.725
 21
45.1871
  0
LINE
  8
0
 10
283.725
 20
45.1871
 11
283.798
 21
44.882
  0
LINE
  8
0
 10
283.798
 20
44.882
 11
283.918
 21
44.592
  0
LINE
  8
0
 10
283.918
 20
44.592
 11
284.082
 21
44.3244
  0
LINE
  8
0
 10
284.082
 20
44.3244
 11
284.286
 21
44.0858
  0
LINE
  8
0
 10
284.286
 20
44.0858
 11
284.524
 21
43.882
  0
LINE
  8
0
 10
284.524
 20
43.882
 11
284.792
 21
43.718
  0
LINE
  8
0
 10
284.792
 20
43.718
 11
285.082
 21
43.5979
  0
LINE
  8
0
 10
285.082
 20
43.5979
 11
285.387
 21
43.5246
  0
LINE
  8
0
 10
285.387
 20
43.5246
 11
285.7
 21
43.5
  0
LINE
  8
0
 10
285.7
 20
43.5
 11
286.013
 21
43.5246
  0
LINE
  8
0
 10
286.013
 20
9.52461
 11
286.318
 21
9.59789
  0
LINE
  8
0
 10
286.318
 20
9.59789
 11
286.608
 21
9.71797
  0
LINE
  8
0
 10
286.608
 20
9.71797
 11
286.876
 21
9.88196
  0
LINE
  8
0
 10
286.876
 20
9.88196
 11
287.114
 21
10.0858
  0
LINE
  8
0
 10
287.114
 20
10.0858
 11
287.318
 21
10.3244
  0
LINE
  8
0
 10
287.318
 20
10.3244
 11
287.482
 21
10.592
  0
LINE
  8
0
 10
287.482
 20
10.592
 11
287.602
 21
10.882
  0
LINE
  8
0
 10
287.602
 20
10.882
 11
287.675
 21
11.1871
  0
LINE
  8
0
 10
287.675
 20
11.1871
 11
287.7
 21
11.5
  0
LINE
  8
0
 10
287.7
 20
11.5
 11
287.675
 21
11.8129
  0
LINE
  8
0
 10
287.675
 20
11.8129
 11
287.602
 21
12.118
  0
LINE
  8
0
 10
287.602
 20
12.118
 11
287.482
 21
12.408
  0
LINE
  8
0
 10
287.482
 20
12.408
 11
287.318
 21
12.6756
  0
LINE
  8
0
 10
287.318
 20
12.6756
 11
287.114
 21
12.9142
  0
LINE
  8
0
 10
287.114
 20
12.9142
 11
286.876
 21
13.118
  0
LINE
  8
0
 10
286.876
 20
13.118
 11
286.608
 21
13.282
  0
LINE
  8
0
 10
286.608
 20
13.282
 11
286.318
 21
13.4021
  0
LINE
  8
0
 10
286.318
 20
13.4021
 11
286.013
 21
13.4754
  0
LINE
  8
0
 10
286.013
 20
13.4754
 11
285.7
 21
13.5
  0
LINE
  8
0
 10
285.7
 20
13.5
 11
285.387
 21
13.4754
  0
LINE
  8
0
 10
285.387
 20
13.4754
 11
285.082
 21
13.4021
  0
LINE
  8
0
 10
285.082
 20
13.4021
 11
284.792
 21
13.282
  0
LINE
  8
0
 10
284.792
 20
13.282
 11
284.524
 21
13.118
  0
LINE
  8
0
 10
284.524
 20
13.118
 11
284.286
 21
12.9142
  0
LINE
  8
0
 10
284.286
 20
12.9142
 11
284.082
 21
12.6756
  0
LINE
  8
0
 10
284.082
 20
12.6756
 11
283.918
 21
12.408
  0
LINE
  8
0
 10
283.918
 20
12.408
 11
283.798
 21
12.118
  0
LINE
  8
0
 10
283.798
 20
12.118
 11
283.725
 21
11.8129
  0
LINE
  8
0
 10
283.725
 20
11.8129
 11
283.7
 21
11.5
  0
LINE
  8
0
 10
283.7
 20
11.5
 11
283.725
 21
11.1871
  0
LINE
  8
0
 10
283.725
 20
11.1871
 11
283.798
 21
10.882
  0
LINE
  8
0
 10
283.798
 20
10.882
 11
283.918
 21
10.592
  0
LINE
  8
0
 10
283.918
 20
10.592
 11
284.082
 21
10.3244
  0
LINE
  8
0
 10
284.082
 20
10.3244
 11
284.286
 21
10.0858
  0
LINE
  8
0
 10
284.286
 20
10.0858
 11
284.524
 21
9.88196
  0
LINE
  8
0
 10
284.524
 20
9.88196
 11
284.792
 21
9.71797
  0
LINE
  8
0
 10
284.792
 20
9.71797
 11
285.082
 21
9.59789
  0
LINE
  8
0
 10
285.082
 20
9.59789
 11
285.387
 21
9.52461
  0
LINE
  8
0
 10
285.387
 20
9.52461
 11
285.7
 21
9.5
  0
LINE
  8
0
 10
285.7
 20
9.5
 11
286.013
 21
9.52461
  0
ENDSEC
  0
SECTION
  2
OBJECTS
  0
DICTIONARY
  0
ENDSEC
  0
EOF
