  0
SECTION
  2
BLOCKS
  0
ENDSEC
  0
SECTION
  2
ENTITIES
  0
LINE
  8
0
 10
538.932
 20
57
 11
0
 21
57
  0
LINE
  8
0
 10
0
 20
57
 11
0
 21
0
  0
LINE
  8
0
 10
0
 20
0
 11
538.932
 21
0
  0
LINE
  8
0
 10
538.932
 20
0
 11
538.932
 21
57
  0
LINE
  8
0
 10
249.182
 20
31.25
 11
249.182
 21
49.75
  0
LINE
  8
0
 10
249.182
 20
49.75
 11
267.682
 21
49.75
  0
LINE
  8
0
 10
267.682
 20
49.75
 11
267.682
 21
31.25
  0
LINE
  8
0
 10
267.682
 20
31.25
 11
249.182
 21
31.25
  0
LINE
  8
0
 10
436.616
 20
46.3209
 11
436.357
 21
46.3832
  0
LINE
  8
0
 10
436.357
 20
46.3832
 11
436.11
 21
46.4853
  0
LINE
  8
0
 10
436.11
 20
46.4853
 11
435.883
 21
46.6247
  0
LINE
  8
0
 10
435.883
 20
46.6247
 11
435.68
 21
46.7979
  0
LINE
  8
0
 10
435.68
 20
46.7979
 11
435.507
 21
47.0008
  0
LINE
  8
0
 10
435.507
 20
47.0008
 11
435.367
 21
47.2282
  0
LINE
  8
0
 10
435.367
 20
47.2282
 11
435.265
 21
47.4747
  0
LINE
  8
0
 10
435.265
 20
47.4747
 11
435.203
 21
47.7341
  0
LINE
  8
0
 10
435.203
 20
47.7341
 11
435.182
 21
48
  0
LINE
  8
0
 10
435.182
 20
48
 11
435.203
 21
48.2659
  0
LINE
  8
0
 10
435.203
 20
48.2659
 11
435.265
 21
48.5253
  0
LINE
  8
0
 10
435.265
 20
48.5253
 11
435.367
 21
48.7718
  0
LINE
  8
0
 10
435.367
 20
48.7718
 11
435.507
 21
48.9992
  0
LINE
  8
0
 10
435.507
 20
48.9992
 11
435.68
 21
49.2021
  0
LINE
  8
0
 10
435.68
 20
49.2021
 11
435.883
 21
49.3753
  0
LINE
  8
0
 10
435.883
 20
49.3753
 11
436.11
 21
49.5147
  0
LINE
  8
0
 10
436.11
 20
49.5147
 11
436.357
 21
49.6168
  0
LINE
  8
0
 10
436.357
 20
49.6168
 11
436.616
 21
49.6791
  0
LINE
  8
0
 10
436.616
 20
49.6791
 11
436.882
 21
49.7
  0
LINE
  8
0
 10
436.882
 20
49.7
 11
437.148
 21
49.6791
  0
LINE
  8
0
 10
437.148
 20
49.6791
 11
437.407
 21
49.6168
  0
LINE
  8
0
 10
437.407
 20
49.6168
 11
437.654
 21
49.5147
  0
LINE
  8
0
 10
437.654
 20
49.5147
 11
437.881
 21
49.3753
  0
LINE
  8
0
 10
437.881
 20
49.3753
 11
438.084
 21
49.2021
  0
LINE
  8
0
 10
438.084
 20
49.2021
 11
438.257
 21
48.9992
  0
LINE
  8
0
 10
438.257
 20
48.9992
 11
438.397
 21
48.7718
  0
LINE
  8
0
 10
438.397
 20
48.7718
 11
438.499
 21
48.5253
  0
LINE
  8
0
 10
438.499
 20
48.5253
 11
438.561
 21
48.2659
  0
LINE
  8
0
 10
438.561
 20
48.2659
 11
438.582
 21
48
  0
LINE
  8
0
 10
438.582
 20
48
 11
438.561
 21
47.7341
  0
LINE
  8
0
 10
438.561
 20
47.7341
 11
438.499
 21
47.4747
  0
LINE
  8
0
 10
438.499
 20
47.4747
 11
438.397
 21
47.2282
  0
LINE
  8
0
 10
438.397
 20
47.2282
 11
438.257
 21
47.0008
  0
LINE
  8
0
 10
438.257
 20
47.0008
 11
438.084
 21
46.7979
  0
LINE
  8
0
 10
438.084
 20
46.7979
 11
437.881
 21
46.6247
  0
LINE
  8
0
 10
437.881
 20
46.6247
 11
437.654
 21
46.4853
  0
LINE
  8
0
 10
437.654
 20
46.4853
 11
437.407
 21
46.3832
  0
LINE
  8
0
 10
437.407
 20
46.3832
 11
437.148
 21
46.3209
  0
LINE
  8
0
 10
437.148
 20
46.3209
 11
436.882
 21
46.3
  0
LINE
  8
0
 10
436.882
 20
46.3
 11
436.616
 21
46.3209
  0
LINE
  8
0
 10
186.416
 20
46.3209
 11
186.157
 21
46.3832
  0
LINE
  8
0
 10
186.157
 20
46.3832
 11
185.91
 21
46.4853
  0
LINE
  8
0
 10
185.91
 20
46.4853
 11
185.683
 21
46.6247
  0
LINE
  8
0
 10
185.683
 20
46.6247
 11
185.48
 21
46.7979
  0
LINE
  8
0
 10
185.48
 20
46.7979
 11
185.307
 21
47.0008
  0
LINE
  8
0
 10
185.307
 20
47.0008
 11
185.167
 21
47.2282
  0
LINE
  8
0
 10
185.167
 20
47.2282
 11
185.065
 21
47.4747
  0
LINE
  8
0
 10
185.065
 20
47.4747
 11
185.003
 21
47.7341
  0
LINE
  8
0
 10
185.003
 20
47.7341
 11
184.982
 21
48
  0
LINE
  8
0
 10
184.982
 20
48
 11
185.003
 21
48.2659
  0
LINE
  8
0
 10
185.003
 20
48.2659
 11
185.065
 21
48.5253
  0
LINE
  8
0
 10
185.065
 20
48.5253
 11
185.167
 21
48.7718
  0
LINE
  8
0
 10
185.167
 20
48.7718
 11
185.307
 21
48.9992
  0
LINE
  8
0
 10
185.307
 20
48.9992
 11
185.48
 21
49.2021
  0
LINE
  8
0
 10
185.48
 20
49.2021
 11
185.683
 21
49.3753
  0
LINE
  8
0
 10
185.683
 20
49.3753
 11
185.91
 21
49.5147
  0
LINE
  8
0
 10
185.91
 20
49.5147
 11
186.157
 21
49.6168
  0
LINE
  8
0
 10
186.157
 20
49.6168
 11
186.416
 21
49.6791
  0
LINE
  8
0
 10
186.416
 20
49.6791
 11
186.682
 21
49.7
  0
LINE
  8
0
 10
186.682
 20
49.7
 11
186.948
 21
49.6791
  0
LINE
  8
0
 10
186.948
 20
49.6791
 11
187.207
 21
49.6168
  0
LINE
  8
0
 10
187.207
 20
49.6168
 11
187.454
 21
49.5147
  0
LINE
  8
0
 10
187.454
 20
49.5147
 11
187.681
 21
49.3753
  0
LINE
  8
0
 10
187.681
 20
49.3753
 11
187.884
 21
49.2021
  0
LINE
  8
0
 10
187.884
 20
49.2021
 11
188.057
 21
48.9992
  0
LINE
  8
0
 10
188.057
 20
48.9992
 11
188.197
 21
48.7718
  0
LINE
  8
0
 10
188.197
 20
48.7718
 11
188.299
 21
48.5253
  0
LINE
  8
0
 10
188.299
 20
48.5253
 11
188.361
 21
48.2659
  0
LINE
  8
0
 10
188.361
 20
48.2659
 11
188.382
 21
48
  0
LINE
  8
0
 10
188.382
 20
48
 11
188.361
 21
47.7341
  0
LINE
  8
0
 10
188.361
 20
47.7341
 11
188.299
 21
47.4747
  0
LINE
  8
0
 10
188.299
 20
47.4747
 11
188.197
 21
47.2282
  0
LINE
  8
0
 10
188.197
 20
47.2282
 11
188.057
 21
47.0008
  0
LINE
  8
0
 10
188.057
 20
47.0008
 11
187.884
 21
46.7979
  0
LINE
  8
0
 10
187.884
 20
46.7979
 11
187.681
 21
46.6247
  0
LINE
  8
0
 10
187.681
 20
46.6247
 11
187.454
 21
46.4853
  0
LINE
  8
0
 10
187.454
 20
46.4853
 11
187.207
 21
46.3832
  0
LINE
  8
0
 10
187.207
 20
46.3832
 11
186.948
 21
46.3209
  0
LINE
  8
0
 10
186.948
 20
46.3209
 11
186.682
 21
46.3
  0
LINE
  8
0
 10
186.682
 20
46.3
 11
186.416
 21
46.3209
  0
LINE
  8
0
 10
39.1251
 20
46.3209
 11
38.8657
 21
46.3832
  0
LINE
  8
0
 10
38.8657
 20
46.3832
 11
38.6192
 21
46.4853
  0
LINE
  8
0
 10
38.6192
 20
46.4853
 11
38.3918
 21
46.6247
  0
LINE
  8
0
 10
38.3918
 20
46.6247
 11
38.1889
 21
46.7979
  0
LINE
  8
0
 10
38.1889
 20
46.7979
 11
38.0157
 21
47.0008
  0
LINE
  8
0
 10
38.0157
 20
47.0008
 11
37.8763
 21
47.2282
  0
LINE
  8
0
 10
37.8763
 20
47.2282
 11
37.7742
 21
47.4747
  0
LINE
  8
0
 10
37.7742
 20
47.4747
 11
37.7119
 21
47.7341
  0
LINE
  8
0
 10
37.7119
 20
47.7341
 11
37.691
 21
48
  0
LINE
  8
0
 10
37.691
 20
48
 11
37.7119
 21
48.2659
  0
LINE
  8
0
 10
37.7119
 20
48.2659
 11
37.7742
 21
48.5253
  0
LINE
  8
0
 10
37.7742
 20
48.5253
 11
37.8763
 21
48.7718
  0
LINE
  8
0
 10
37.8763
 20
48.7718
 11
38.0157
 21
48.9992
  0
LINE
  8
0
 10
38.0157
 20
48.9992
 11
38.1889
 21
49.2021
  0
LINE
  8
0
 10
38.1889
 20
49.2021
 11
38.3918
 21
49.3753
  0
LINE
  8
0
 10
38.3918
 20
49.3753
 11
38.6192
 21
49.5147
  0
LINE
  8
0
 10
38.6192
 20
49.5147
 11
38.8657
 21
49.6168
  0
LINE
  8
0
 10
38.8657
 20
49.6168
 11
39.1251
 21
49.6791
  0
LINE
  8
0
 10
39.1251
 20
49.6791
 11
39.391
 21
49.7
  0
LINE
  8
0
 10
39.391
 20
49.7
 11
39.6569
 21
49.6791
  0
LINE
  8
0
 10
39.6569
 20
49.6791
 11
39.9163
 21
49.6168
  0
LINE
  8
0
 10
39.9163
 20
49.6168
 11
40.1628
 21
49.5147
  0
LINE
  8
0
 10
40.1628
 20
49.5147
 11
40.3902
 21
49.3753
  0
LINE
  8
0
 10
40.3902
 20
49.3753
 11
40.5931
 21
49.2021
  0
LINE
  8
0
 10
40.5931
 20
49.2021
 11
40.7663
 21
48.9992
  0
LINE
  8
0
 10
40.7663
 20
48.9992
 11
40.9057
 21
48.7718
  0
LINE
  8
0
 10
40.9057
 20
48.7718
 11
41.0078
 21
48.5253
  0
LINE
  8
0
 10
41.0078
 20
48.5253
 11
41.0701
 21
48.2659
  0
LINE
  8
0
 10
41.0701
 20
48.2659
 11
41.091
 21
48
  0
LINE
  8
0
 10
41.091
 20
48
 11
41.0701
 21
47.7341
  0
LINE
  8
0
 10
41.0701
 20
47.7341
 11
41.0078
 21
47.4747
  0
LINE
  8
0
 10
41.0078
 20
47.4747
 11
40.9057
 21
47.2282
  0
LINE
  8
0
 10
40.9057
 20
47.2282
 11
40.7663
 21
47.0008
  0
LINE
  8
0
 10
40.7663
 20
47.0008
 11
40.5931
 21
46.7979
  0
LINE
  8
0
 10
40.5931
 20
46.7979
 11
40.3902
 21
46.6247
  0
LINE
  8
0
 10
40.3902
 20
46.6247
 11
40.1628
 21
46.4853
  0
LINE
  8
0
 10
40.1628
 20
46.4853
 11
39.9163
 21
46.3832
  0
LINE
  8
0
 10
39.9163
 20
46.3832
 11
39.6569
 21
46.3209
  0
LINE
  8
0
 10
39.6569
 20
46.3209
 11
39.391
 21
46.3
  0
LINE
  8
0
 10
39.391
 20
46.3
 11
39.1251
 21
46.3209
  0
LINE
  8
0
 10
302.682
 20
8.5
 11
302.682
 21
48.5
  0
LINE
  8
0
 10
302.682
 20
48.5
 11
314.682
 21
48.5
  0
LINE
  8
0
 10
314.682
 20
48.5
 11
314.682
 21
8.5
  0
LINE
  8
0
 10
314.682
 20
8.5
 11
302.682
 21
8.5
  0
LINE
  8
0
 10
72.282
 20
28.25
 11
72.282
 21
46.75
  0
LINE
  8
0
 10
72.282
 20
46.75
 11
90.782
 21
46.75
  0
LINE
  8
0
 10
90.782
 20
46.75
 11
90.782
 21
28.25
  0
LINE
  8
0
 10
90.782
 20
28.25
 11
72.282
 21
28.25
  0
LINE
  8
0
 10
129.282
 20
28.25
 11
129.282
 21
46.75
  0
LINE
  8
0
 10
129.282
 20
46.75
 11
147.782
 21
46.75
  0
LINE
  8
0
 10
147.782
 20
46.75
 11
147.782
 21
28.25
  0
LINE
  8
0
 10
147.782
 20
28.25
 11
129.282
 21
28.25
  0
LINE
  8
0
 10
91.282
 20
26.5705
 11
91.282
 21
45.0705
  0
LINE
  8
0
 10
91.282
 20
45.0705
 11
109.782
 21
45.0705
  0
LINE
  8
0
 10
109.782
 20
45.0705
 11
109.782
 21
26.5705
  0
LINE
  8
0
 10
109.782
 20
26.5705
 11
91.282
 21
26.5705
  0
LINE
  8
0
 10
110.282
 20
26.5705
 11
110.282
 21
45.0705
  0
LINE
  8
0
 10
110.282
 20
45.0705
 11
128.782
 21
45.0705
  0
LINE
  8
0
 10
128.782
 20
45.0705
 11
128.782
 21
26.5705
  0
LINE
  8
0
 10
128.782
 20
26.5705
 11
110.282
 21
26.5705
  0
LINE
  8
0
 10
11.2694
 20
15.2534
 11
11.1913
 21
15.2595
  0
LINE
  8
0
 10
11.1913
 20
15.2595
 11
11.115
 21
15.2778
  0
LINE
  8
0
 10
11.115
 20
15.2778
 11
11.0425
 21
15.3078
  0
LINE
  8
0
 10
11.0425
 20
15.3078
 11
10.9756
 21
15.3488
  0
LINE
  8
0
 10
10.9756
 20
15.3488
 11
10.916
 21
15.3998
  0
LINE
  8
0
 10
10.916
 20
15.3998
 11
9.64645
 21
16.6693
  0
LINE
  8
0
 10
9.64645
 20
16.6693
 11
9.59549
 21
16.729
  0
LINE
  8
0
 10
9.59549
 20
16.729
 11
9.55449
 21
16.7959
  0
LINE
  8
0
 10
9.55449
 20
16.7959
 11
9.52448
 21
16.8684
  0
LINE
  8
0
 10
9.52448
 20
16.8684
 11
9.50615
 21
16.9447
  0
LINE
  8
0
 10
9.50615
 20
16.9447
 11
9.5
 21
17.0229
  0
LINE
  8
0
 10
9.5
 20
17.0229
 11
9.5
 21
39.978
  0
LINE
  8
0
 10
9.5
 20
39.978
 11
9.50615
 21
40.0562
  0
LINE
  8
0
 10
9.50615
 20
40.0562
 11
9.52448
 21
40.1325
  0
LINE
  8
0
 10
9.52448
 20
40.1325
 11
9.55449
 21
40.205
  0
LINE
  8
0
 10
9.55449
 20
40.205
 11
9.59549
 21
40.2719
  0
LINE
  8
0
 10
9.59549
 20
40.2719
 11
9.64645
 21
40.3315
  0
LINE
  8
0
 10
9.64645
 20
40.3315
 11
10.916
 21
41.601
  0
LINE
  8
0
 10
10.916
 20
41.601
 11
10.9755
 21
41.6519
  0
LINE
  8
0
 10
10.9755
 20
41.6519
 11
11.0424
 21
41.6929
  0
LINE
  8
0
 10
11.0424
 20
41.6929
 11
11.1148
 21
41.723
  0
LINE
  8
0
 10
11.1148
 20
41.723
 11
11.1911
 21
41.7413
  0
LINE
  8
0
 10
11.1911
 20
41.7413
 11
11.2693
 21
41.7475
  0
LINE
  8
0
 10
11.2693
 20
41.7475
 11
67.6131
 21
41.77
  0
LINE
  8
0
 10
67.6131
 20
41.77
 11
67.6911
 21
41.7639
  0
LINE
  8
0
 10
67.6911
 20
41.7639
 11
67.7674
 21
41.7456
  0
LINE
  8
0
 10
67.7674
 20
41.7456
 11
67.8399
 21
41.7157
  0
LINE
  8
0
 10
67.8399
 20
41.7157
 11
67.9068
 21
41.6747
  0
LINE
  8
0
 10
67.9068
 20
41.6747
 11
67.9665
 21
41.6238
  0
LINE
  8
0
 10
67.9665
 20
41.6238
 11
69.1355
 21
40.4568
  0
LINE
  8
0
 10
69.1355
 20
40.4568
 11
69.1867
 21
40.3969
  0
LINE
  8
0
 10
69.1867
 20
40.3969
 11
69.2277
 21
40.33
  0
LINE
  8
0
 10
69.2277
 20
40.33
 11
69.2578
 21
40.2575
  0
LINE
  8
0
 10
69.2578
 20
40.2575
 11
69.2761
 21
40.1812
  0
LINE
  8
0
 10
69.2761
 20
40.1812
 11
69.2822
 21
40.103
  0
LINE
  8
0
 10
69.2822
 20
40.103
 11
69.2822
 21
16.4028
  0
LINE
  8
0
 10
69.2822
 20
16.4028
 11
69.276
 21
16.3242
  0
LINE
  8
0
 10
69.276
 20
16.3242
 11
69.2576
 21
16.2479
  0
LINE
  8
0
 10
69.2576
 20
16.2479
 11
69.2276
 21
16.1754
  0
LINE
  8
0
 10
69.2276
 20
16.1754
 11
69.1865
 21
16.1086
  0
LINE
  8
0
 10
69.1865
 20
16.1086
 11
69.1355
 21
16.049
  0
LINE
  8
0
 10
69.1355
 20
16.049
 11
68.4724
 21
15.3868
  0
LINE
  8
0
 10
68.4724
 20
15.3868
 11
68.4129
 21
15.3361
  0
LINE
  8
0
 10
68.4129
 20
15.3361
 11
68.346
 21
15.2951
  0
LINE
  8
0
 10
68.346
 20
15.2951
 11
68.2735
 21
15.2651
  0
LINE
  8
0
 10
68.2735
 20
15.2651
 11
68.1973
 21
15.2468
  0
LINE
  8
0
 10
68.1973
 20
15.2468
 11
68.119
 21
15.2407
  0
LINE
  8
0
 10
68.119
 20
15.2407
 11
11.2694
 21
15.2534
  0
LINE
  8
0
 10
186.252
 20
35.7838
 11
185.832
 21
35.8846
  0
LINE
  8
0
 10
185.832
 20
35.8846
 11
185.434
 21
36.0497
  0
LINE
  8
0
 10
185.434
 20
36.0497
 11
185.066
 21
36.2752
  0
LINE
  8
0
 10
185.066
 20
36.2752
 11
184.737
 21
36.5555
  0
LINE
  8
0
 10
184.737
 20
36.5555
 11
184.457
 21
36.8836
  0
LINE
  8
0
 10
184.457
 20
36.8836
 11
184.232
 21
37.2515
  0
LINE
  8
0
 10
184.232
 20
37.2515
 11
184.067
 21
37.6502
  0
LINE
  8
0
 10
184.067
 20
37.6502
 11
183.966
 21
38.0698
  0
LINE
  8
0
 10
183.966
 20
38.0698
 11
183.932
 21
38.5
  0
LINE
  8
0
 10
183.932
 20
38.5
 11
183.966
 21
38.9302
  0
LINE
  8
0
 10
183.966
 20
38.9302
 11
184.067
 21
39.3498
  0
LINE
  8
0
 10
184.067
 20
39.3498
 11
184.232
 21
39.7485
  0
LINE
  8
0
 10
184.232
 20
39.7485
 11
184.457
 21
40.1164
  0
LINE
  8
0
 10
184.457
 20
40.1164
 11
184.737
 21
40.4445
  0
LINE
  8
0
 10
184.737
 20
40.4445
 11
185.066
 21
40.7248
  0
LINE
  8
0
 10
185.066
 20
40.7248
 11
185.434
 21
40.9503
  0
LINE
  8
0
 10
185.434
 20
40.9503
 11
185.832
 21
41.1154
  0
LINE
  8
0
 10
185.832
 20
41.1154
 11
186.252
 21
41.2161
  0
LINE
  8
0
 10
186.252
 20
41.2161
 11
186.682
 21
41.25
  0
LINE
  8
0
 10
186.682
 20
41.25
 11
187.112
 21
41.2161
  0
LINE
  8
0
 10
187.112
 20
41.2161
 11
187.532
 21
41.1154
  0
LINE
  8
0
 10
187.532
 20
41.1154
 11
187.93
 21
40.9503
  0
LINE
  8
0
 10
187.93
 20
40.9503
 11
188.298
 21
40.7248
  0
LINE
  8
0
 10
188.298
 20
40.7248
 11
188.627
 21
40.4445
  0
LINE
  8
0
 10
188.627
 20
40.4445
 11
188.907
 21
40.1164
  0
LINE
  8
0
 10
188.907
 20
40.1164
 11
189.132
 21
39.7485
  0
LINE
  8
0
 10
189.132
 20
39.7485
 11
189.297
 21
39.3498
  0
LINE
  8
0
 10
189.297
 20
39.3498
 11
189.398
 21
38.9302
  0
LINE
  8
0
 10
189.398
 20
38.9302
 11
189.432
 21
38.5
  0
LINE
  8
0
 10
189.432
 20
38.5
 11
189.398
 21
38.0698
  0
LINE
  8
0
 10
189.398
 20
38.0698
 11
189.297
 21
37.6502
  0
LINE
  8
0
 10
189.297
 20
37.6502
 11
189.132
 21
37.2515
  0
LINE
  8
0
 10
189.132
 20
37.2515
 11
188.907
 21
36.8836
  0
LINE
  8
0
 10
188.907
 20
36.8836
 11
188.627
 21
36.5555
  0
LINE
  8
0
 10
188.627
 20
36.5555
 11
188.298
 21
36.2752
  0
LINE
  8
0
 10
188.298
 20
36.2752
 11
187.93
 21
36.0497
  0
LINE
  8
0
 10
187.93
 20
36.0497
 11
187.532
 21
35.8846
  0
LINE
  8
0
 10
187.532
 20
35.8846
 11
187.112
 21
35.7838
  0
LINE
  8
0
 10
187.112
 20
35.7838
 11
186.682
 21
35.75
  0
LINE
  8
0
 10
186.682
 20
35.75
 11
186.252
 21
35.7838
  0
LINE
  8
0
 10
229.182
 20
19.25
 11
229.182
 21
37.75
  0
LINE
  8
0
 10
229.182
 20
37.75
 11
247.682
 21
37.75
  0
LINE
  8
0
 10
247.682
 20
37.75
 11
247.682
 21
19.25
  0
LINE
  8
0
 10
247.682
 20
19.25
 11
229.182
 21
19.25
  0
LINE
  8
0
 10
281.182
 20
19.25
 11
281.182
 21
37.75
  0
LINE
  8
0
 10
281.182
 20
37.75
 11
299.682
 21
37.75
  0
LINE
  8
0
 10
299.682
 20
37.75
 11
299.682
 21
19.25
  0
LINE
  8
0
 10
299.682
 20
19.25
 11
281.182
 21
19.25
  0
LINE
  8
0
 10
129.282
 20
9.25
 11
129.282
 21
27.75
  0
LINE
  8
0
 10
129.282
 20
27.75
 11
147.782
 21
27.75
  0
LINE
  8
0
 10
147.782
 20
27.75
 11
147.782
 21
9.25
  0
LINE
  8
0
 10
147.782
 20
9.25
 11
129.282
 21
9.25
  0
LINE
  8
0
 10
72.282
 20
9.25
 11
72.282
 21
27.75
  0
LINE
  8
0
 10
72.282
 20
27.75
 11
90.782
 21
27.75
  0
LINE
  8
0
 10
90.782
 20
27.75
 11
90.782
 21
9.25
  0
LINE
  8
0
 10
90.782
 20
9.25
 11
72.282
 21
9.25
  0
LINE
  8
0
 10
249.182
 20
7.25
 11
249.182
 21
25.75
  0
LINE
  8
0
 10
249.182
 20
25.75
 11
267.682
 21
25.75
  0
LINE
  8
0
 10
267.682
 20
25.75
 11
267.682
 21
7.25
  0
LINE
  8
0
 10
267.682
 20
7.25
 11
249.182
 21
7.25
  0
LINE
  8
0
 10
186.252
 20
15.7838
 11
185.832
 21
15.8846
  0
LINE
  8
0
 10
185.832
 20
15.8846
 11
185.434
 21
16.0497
  0
LINE
  8
0
 10
185.434
 20
16.0497
 11
185.066
 21
16.2752
  0
LINE
  8
0
 10
185.066
 20
16.2752
 11
184.737
 21
16.5555
  0
LINE
  8
0
 10
184.737
 20
16.5555
 11
184.457
 21
16.8836
  0
LINE
  8
0
 10
184.457
 20
16.8836
 11
184.232
 21
17.2515
  0
LINE
  8
0
 10
184.232
 20
17.2515
 11
184.067
 21
17.6502
  0
LINE
  8
0
 10
184.067
 20
17.6502
 11
183.966
 21
18.0698
  0
LINE
  8
0
 10
183.966
 20
18.0698
 11
183.932
 21
18.5
  0
LINE
  8
0
 10
183.932
 20
18.5
 11
183.966
 21
18.9302
  0
LINE
  8
0
 10
183.966
 20
18.9302
 11
184.067
 21
19.3498
  0
LINE
  8
0
 10
184.067
 20
19.3498
 11
184.232
 21
19.7485
  0
LINE
  8
0
 10
184.232
 20
19.7485
 11
184.457
 21
20.1164
  0
LINE
  8
0
 10
184.457
 20
20.1164
 11
184.737
 21
20.4445
  0
LINE
  8
0
 10
184.737
 20
20.4445
 11
185.066
 21
20.7248
  0
LINE
  8
0
 10
185.066
 20
20.7248
 11
185.434
 21
20.9503
  0
LINE
  8
0
 10
185.434
 20
20.9503
 11
185.832
 21
21.1154
  0
LINE
  8
0
 10
185.832
 20
21.1154
 11
186.252
 21
21.2161
  0
LINE
  8
0
 10
186.252
 20
21.2161
 11
186.682
 21
21.25
  0
LINE
  8
0
 10
186.682
 20
21.25
 11
187.112
 21
21.2161
  0
LINE
  8
0
 10
187.112
 20
21.2161
 11
187.532
 21
21.1154
  0
LINE
  8
0
 10
187.532
 20
21.1154
 11
187.93
 21
20.9503
  0
LINE
  8
0
 10
187.93
 20
20.9503
 11
188.298
 21
20.7248
  0
LINE
  8
0
 10
188.298
 20
20.7248
 11
188.627
 21
20.4445
  0
LINE
  8
0
 10
188.627
 20
20.4445
 11
188.907
 21
20.1164
  0
LINE
  8
0
 10
188.907
 20
20.1164
 11
189.132
 21
19.7485
  0
LINE
  8
0
 10
189.132
 20
19.7485
 11
189.297
 21
19.3498
  0
LINE
  8
0
 10
189.297
 20
19.3498
 11
189.398
 21
18.9302
  0
LINE
  8
0
 10
189.398
 20
18.9302
 11
189.432
 21
18.5
  0
LINE
  8
0
 10
189.432
 20
18.5
 11
189.398
 21
18.0698
  0
LINE
  8
0
 10
189.398
 20
18.0698
 11
189.297
 21
17.6502
  0
LINE
  8
0
 10
189.297
 20
17.6502
 11
189.132
 21
17.2515
  0
LINE
  8
0
 10
189.132
 20
17.2515
 11
188.907
 21
16.8836
  0
LINE
  8
0
 10
188.907
 20
16.8836
 11
188.627
 21
16.5555
  0
LINE
  8
0
 10
188.627
 20
16.5555
 11
188.298
 21
16.2752
  0
LINE
  8
0
 10
188.298
 20
16.2752
 11
187.93
 21
16.0497
  0
LINE
  8
0
 10
187.93
 20
16.0497
 11
187.532
 21
15.8846
  0
LINE
  8
0
 10
187.532
 20
15.8846
 11
187.112
 21
15.7838
  0
LINE
  8
0
 10
187.112
 20
15.7838
 11
186.682
 21
15.75
  0
LINE
  8
0
 10
186.682
 20
15.75
 11
186.252
 21
15.7838
  0
LINE
  8
0
 10
39.1251
 20
7.32092
 11
38.8657
 21
7.38319
  0
LINE
  8
0
 10
38.8657
 20
7.38319
 11
38.6192
 21
7.48528
  0
LINE
  8
0
 10
38.6192
 20
7.48528
 11
38.3918
 21
7.62466
  0
LINE
  8
0
 10
38.3918
 20
7.62466
 11
38.1889
 21
7.79791
  0
LINE
  8
0
 10
38.1889
 20
7.79791
 11
38.0157
 21
8.00076
  0
LINE
  8
0
 10
38.0157
 20
8.00076
 11
37.8763
 21
8.22821
  0
LINE
  8
0
 10
37.8763
 20
8.22821
 11
37.7742
 21
8.47467
  0
LINE
  8
0
 10
37.7742
 20
8.47467
 11
37.7119
 21
8.73405
  0
LINE
  8
0
 10
37.7119
 20
8.73405
 11
37.691
 21
9
  0
LINE
  8
0
 10
37.691
 20
9
 11
37.7119
 21
9.26593
  0
LINE
  8
0
 10
37.7119
 20
9.26593
 11
37.7742
 21
9.52531
  0
LINE
  8
0
 10
37.7742
 20
9.52531
 11
37.8763
 21
9.77177
  0
LINE
  8
0
 10
37.8763
 20
9.77177
 11
38.0157
 21
9.99922
  0
LINE
  8
0
 10
38.0157
 20
9.99922
 11
38.1889
 21
10.2021
  0
LINE
  8
0
 10
38.1889
 20
10.2021
 11
38.3918
 21
10.3753
  0
LINE
  8
0
 10
38.3918
 20
10.3753
 11
38.6192
 21
10.5147
  0
LINE
  8
0
 10
38.6192
 20
10.5147
 11
38.8657
 21
10.6168
  0
LINE
  8
0
 10
38.8657
 20
10.6168
 11
39.1251
 21
10.6791
  0
LINE
  8
0
 10
39.1251
 20
10.6791
 11
39.391
 21
10.7
  0
LINE
  8
0
 10
39.391
 20
10.7
 11
39.6569
 21
10.6791
  0
LINE
  8
0
 10
39.6569
 20
10.6791
 11
39.9163
 21
10.6168
  0
LINE
  8
0
 10
39.9163
 20
10.6168
 11
40.1628
 21
10.5147
  0
LINE
  8
0
 10
40.1628
 20
10.5147
 11
40.3902
 21
10.3753
  0
LINE
  8
0
 10
40.3902
 20
10.3753
 11
40.5931
 21
10.2021
  0
LINE
  8
0
 10
40.5931
 20
10.2021
 11
40.7663
 21
9.99922
  0
LINE
  8
0
 10
40.7663
 20
9.99922
 11
40.9057
 21
9.77177
  0
LINE
  8
0
 10
40.9057
 20
9.77177
 11
41.0078
 21
9.52531
  0
LINE
  8
0
 10
41.0078
 20
9.52531
 11
41.0701
 21
9.26593
  0
LINE
  8
0
 10
41.0701
 20
9.26593
 11
41.091
 21
9
  0
LINE
  8
0
 10
41.091
 20
9
 11
41.0701
 21
8.73405
  0
LINE
  8
0
 10
41.0701
 20
8.73405
 11
41.0078
 21
8.47467
  0
LINE
  8
0
 10
41.0078
 20
8.47467
 11
40.9057
 21
8.22821
  0
LINE
  8
0
 10
40.9057
 20
8.22821
 11
40.7663
 21
8.00076
  0
LINE
  8
0
 10
40.7663
 20
8.00076
 11
40.5931
 21
7.79791
  0
LINE
  8
0
 10
40.5931
 20
7.79791
 11
40.3902
 21
7.62466
  0
LINE
  8
0
 10
40.3902
 20
7.62466
 11
40.1628
 21
7.48528
  0
LINE
  8
0
 10
40.1628
 20
7.48528
 11
39.9163
 21
7.38319
  0
LINE
  8
0
 10
39.9163
 20
7.38319
 11
39.6569
 21
7.32092
  0
LINE
  8
0
 10
39.6569
 20
7.32092
 11
39.391
 21
7.29999
  0
LINE
  8
0
 10
39.391
 20
7.29999
 11
39.1251
 21
7.32092
  0
LINE
  8
0
 10
186.416
 20
7.32092
 11
186.157
 21
7.38319
  0
LINE
  8
0
 10
186.157
 20
7.38319
 11
185.91
 21
7.48528
  0
LINE
  8
0
 10
185.91
 20
7.48528
 11
185.683
 21
7.62466
  0
LINE
  8
0
 10
185.683
 20
7.62466
 11
185.48
 21
7.79791
  0
LINE
  8
0
 10
185.48
 20
7.79791
 11
185.307
 21
8.00076
  0
LINE
  8
0
 10
185.307
 20
8.00076
 11
185.167
 21
8.22821
  0
LINE
  8
0
 10
185.167
 20
8.22821
 11
185.065
 21
8.47467
  0
LINE
  8
0
 10
185.065
 20
8.47467
 11
185.003
 21
8.73405
  0
LINE
  8
0
 10
185.003
 20
8.73405
 11
184.982
 21
9
  0
LINE
  8
0
 10
184.982
 20
9
 11
185.003
 21
9.26593
  0
LINE
  8
0
 10
185.003
 20
9.26593
 11
185.065
 21
9.52531
  0
LINE
  8
0
 10
185.065
 20
9.52531
 11
185.167
 21
9.77177
  0
LINE
  8
0
 10
185.167
 20
9.77177
 11
185.307
 21
9.99922
  0
LINE
  8
0
 10
185.307
 20
9.99922
 11
185.48
 21
10.2021
  0
LINE
  8
0
 10
185.48
 20
10.2021
 11
185.683
 21
10.3753
  0
LINE
  8
0
 10
185.683
 20
10.3753
 11
185.91
 21
10.5147
  0
LINE
  8
0
 10
185.91
 20
10.5147
 11
186.157
 21
10.6168
  0
LINE
  8
0
 10
186.157
 20
10.6168
 11
186.416
 21
10.6791
  0
LINE
  8
0
 10
186.416
 20
10.6791
 11
186.682
 21
10.7
  0
LINE
  8
0
 10
186.682
 20
10.7
 11
186.948
 21
10.6791
  0
LINE
  8
0
 10
186.948
 20
10.6791
 11
187.207
 21
10.6168
  0
LINE
  8
0
 10
187.207
 20
10.6168
 11
187.454
 21
10.5147
  0
LINE
  8
0
 10
187.454
 20
10.5147
 11
187.681
 21
10.3753
  0
LINE
  8
0
 10
187.681
 20
10.3753
 11
187.884
 21
10.2021
  0
LINE
  8
0
 10
187.884
 20
10.2021
 11
188.057
 21
9.99922
  0
LINE
  8
0
 10
188.057
 20
9.99922
 11
188.197
 21
9.77177
  0
LINE
  8
0
 10
188.197
 20
9.77177
 11
188.299
 21
9.52531
  0
LINE
  8
0
 10
188.299
 20
9.52531
 11
188.361
 21
9.26593
  0
LINE
  8
0
 10
188.361
 20
9.26593
 11
188.382
 21
9
  0
LINE
  8
0
 10
188.382
 20
9
 11
188.361
 21
8.73405
  0
LINE
  8
0
 10
188.361
 20
8.73405
 11
188.299
 21
8.47467
  0
LINE
  8
0
 10
188.299
 20
8.47467
 11
188.197
 21
8.22821
  0
LINE
  8
0
 10
188.197
 20
8.22821
 11
188.057
 21
8.00076
  0
LINE
  8
0
 10
188.057
 20
8.00076
 11
187.884
 21
7.79791
  0
LINE
  8
0
 10
187.884
 20
7.79791
 11
187.681
 21
7.62466
  0
LINE
  8
0
 10
187.681
 20
7.62466
 11
187.454
 21
7.48528
  0
LINE
  8
0
 10
187.454
 20
7.48528
 11
187.207
 21
7.38319
  0
LINE
  8
0
 10
187.207
 20
7.38319
 11
186.948
 21
7.32092
  0
LINE
  8
0
 10
186.948
 20
7.32092
 11
186.682
 21
7.29999
  0
LINE
  8
0
 10
186.682
 20
7.29999
 11
186.416
 21
7.32092
  0
LINE
  8
0
 10
436.616
 20
7.32092
 11
436.357
 21
7.38319
  0
LINE
  8
0
 10
436.357
 20
7.38319
 11
436.11
 21
7.48528
  0
LINE
  8
0
 10
436.11
 20
7.48528
 11
435.883
 21
7.62466
  0
LINE
  8
0
 10
435.883
 20
7.62466
 11
435.68
 21
7.79791
  0
LINE
  8
0
 10
435.68
 20
7.79791
 11
435.507
 21
8.00076
  0
LINE
  8
0
 10
435.507
 20
8.00076
 11
435.367
 21
8.22821
  0
LINE
  8
0
 10
435.367
 20
8.22821
 11
435.265
 21
8.47467
  0
LINE
  8
0
 10
435.265
 20
8.47467
 11
435.203
 21
8.73405
  0
LINE
  8
0
 10
435.203
 20
8.73405
 11
435.182
 21
9
  0
LINE
  8
0
 10
435.182
 20
9
 11
435.203
 21
9.26593
  0
LINE
  8
0
 10
435.203
 20
9.26593
 11
435.265
 21
9.52531
  0
LINE
  8
0
 10
435.265
 20
9.52531
 11
435.367
 21
9.77177
  0
LINE
  8
0
 10
435.367
 20
9.77177
 11
435.507
 21
9.99922
  0
LINE
  8
0
 10
435.507
 20
9.99922
 11
435.68
 21
10.2021
  0
LINE
  8
0
 10
435.68
 20
10.2021
 11
435.883
 21
10.3753
  0
LINE
  8
0
 10
435.883
 20
10.3753
 11
436.11
 21
10.5147
  0
LINE
  8
0
 10
436.11
 20
10.5147
 11
436.357
 21
10.6168
  0
LINE
  8
0
 10
436.357
 20
10.6168
 11
436.616
 21
10.6791
  0
LINE
  8
0
 10
436.616
 20
10.6791
 11
436.882
 21
10.7
  0
LINE
  8
0
 10
436.882
 20
10.7
 11
437.148
 21
10.6791
  0
LINE
  8
0
 10
437.148
 20
10.6791
 11
437.407
 21
10.6168
  0
LINE
  8
0
 10
437.407
 20
10.6168
 11
437.654
 21
10.5147
  0
LINE
  8
0
 10
437.654
 20
10.5147
 11
437.881
 21
10.3753
  0
LINE
  8
0
 10
437.881
 20
10.3753
 11
438.084
 21
10.2021
  0
LINE
  8
0
 10
438.084
 20
10.2021
 11
438.257
 21
9.99922
  0
LINE
  8
0
 10
438.257
 20
9.99922
 11
438.397
 21
9.77177
  0
LINE
  8
0
 10
438.397
 20
9.77177
 11
438.499
 21
9.52531
  0
LINE
  8
0
 10
438.499
 20
9.52531
 11
438.561
 21
9.26593
  0
LINE
  8
0
 10
438.561
 20
9.26593
 11
438.582
 21
9
  0
LINE
  8
0
 10
438.582
 20
9
 11
438.561
 21
8.73405
  0
LINE
  8
0
 10
438.561
 20
8.73405
 11
438.499
 21
8.47467
  0
LINE
  8
0
 10
438.499
 20
8.47467
 11
438.397
 21
8.22821
  0
LINE
  8
0
 10
438.397
 20
8.22821
 11
438.257
 21
8.00076
  0
LINE
  8
0
 10
438.257
 20
8.00076
 11
438.084
 21
7.79791
  0
LINE
  8
0
 10
438.084
 20
7.79791
 11
437.881
 21
7.62466
  0
LINE
  8
0
 10
437.881
 20
7.62466
 11
437.654
 21
7.48528
  0
LINE
  8
0
 10
437.654
 20
7.48528
 11
437.407
 21
7.38319
  0
LINE
  8
0
 10
437.407
 20
7.38319
 11
437.148
 21
7.32092
  0
LINE
  8
0
 10
437.148
 20
7.32092
 11
436.882
 21
7.29999
  0
LINE
  8
0
 10
436.882
 20
7.29999
 11
436.616
 21
7.32092
  0
ENDSEC
  0
SECTION
  2
OBJECTS
  0
DICTIONARY
  0
ENDSEC
  0
EOF
