  0
SECTION
  2
BLOCKS
  0
ENDSEC
  0
SECTION
  2
ENTITIES
  0
LINE
  8
0
 10
313.8
 20
57
 11
0
 21
57
  0
LINE
  8
0
 10
0
 20
57
 11
0
 21
0
  0
LINE
  8
0
 10
0
 20
0
 11
313.8
 21
0
  0
LINE
  8
0
 10
313.8
 20
0
 11
313.8
 21
57
  0
LINE
  8
0
 10
35
 20
9.5
 11
35
 21
47.5
  0
LINE
  8
0
 10
35
 20
47.5
 11
53
 21
47.5
  0
LINE
  8
0
 10
53
 20
47.5
 11
53
 21
9.5
  0
LINE
  8
0
 10
53
 20
9.5
 11
35
 21
9.5
  0
LINE
  8
0
 10
75
 20
9.5
 11
75
 21
47.5
  0
LINE
  8
0
 10
75
 20
47.5
 11
93
 21
47.5
  0
LINE
  8
0
 10
93
 20
47.5
 11
93
 21
9.5
  0
LINE
  8
0
 10
93
 20
9.5
 11
75
 21
9.5
  0
LINE
  8
0
 10
143
 20
9.5
 11
143
 21
47.5
  0
LINE
  8
0
 10
143
 20
47.5
 11
161
 21
47.5
  0
LINE
  8
0
 10
161
 20
47.5
 11
161
 21
9.5
  0
LINE
  8
0
 10
161
 20
9.5
 11
143
 21
9.5
  0
LINE
  8
0
 10
183
 20
9.5
 11
183
 21
47.5
  0
LINE
  8
0
 10
183
 20
47.5
 11
201
 21
47.5
  0
LINE
  8
0
 10
201
 20
47.5
 11
201
 21
9.5
  0
LINE
  8
0
 10
201
 20
9.5
 11
183
 21
9.5
  0
LINE
  8
0
 10
126.726
 20
36.7715
 11
126.459
 21
36.8356
  0
LINE
  8
0
 10
126.459
 20
36.8356
 11
126.206
 21
36.9407
  0
LINE
  8
0
 10
126.206
 20
36.9407
 11
125.971
 21
37.0842
  0
LINE
  8
0
 10
125.971
 20
37.0842
 11
125.763
 21
37.2626
  0
LINE
  8
0
 10
125.763
 20
37.2626
 11
125.584
 21
37.4714
  0
LINE
  8
0
 10
125.584
 20
37.4714
 11
125.441
 21
37.7055
  0
LINE
  8
0
 10
125.441
 20
37.7055
 11
125.336
 21
37.9592
  0
LINE
  8
0
 10
125.336
 20
37.9592
 11
125.272
 21
38.2262
  0
LINE
  8
0
 10
125.272
 20
38.2262
 11
125.25
 21
38.5
  0
LINE
  8
0
 10
125.25
 20
38.5
 11
125.272
 21
38.7738
  0
LINE
  8
0
 10
125.272
 20
38.7738
 11
125.336
 21
39.0408
  0
LINE
  8
0
 10
125.336
 20
39.0408
 11
125.441
 21
39.2945
  0
LINE
  8
0
 10
125.441
 20
39.2945
 11
125.584
 21
39.5286
  0
LINE
  8
0
 10
125.584
 20
39.5286
 11
125.763
 21
39.7374
  0
LINE
  8
0
 10
125.763
 20
39.7374
 11
125.971
 21
39.9158
  0
LINE
  8
0
 10
125.971
 20
39.9158
 11
126.206
 21
40.0592
  0
LINE
  8
0
 10
126.206
 20
40.0592
 11
126.459
 21
40.1643
  0
LINE
  8
0
 10
126.459
 20
40.1643
 11
126.726
 21
40.2285
  0
LINE
  8
0
 10
126.726
 20
40.2285
 11
127
 21
40.25
  0
LINE
  8
0
 10
127
 20
40.25
 11
127.274
 21
40.2285
  0
LINE
  8
0
 10
127.274
 20
40.2285
 11
127.541
 21
40.1643
  0
LINE
  8
0
 10
127.541
 20
40.1643
 11
127.794
 21
40.0592
  0
LINE
  8
0
 10
127.794
 20
40.0592
 11
128.029
 21
39.9158
  0
LINE
  8
0
 10
128.029
 20
39.9158
 11
128.237
 21
39.7374
  0
LINE
  8
0
 10
128.237
 20
39.7374
 11
128.416
 21
39.5286
  0
LINE
  8
0
 10
128.416
 20
39.5286
 11
128.559
 21
39.2945
  0
LINE
  8
0
 10
128.559
 20
39.2945
 11
128.664
 21
39.0408
  0
LINE
  8
0
 10
128.664
 20
39.0408
 11
128.728
 21
38.7738
  0
LINE
  8
0
 10
128.728
 20
38.7738
 11
128.75
 21
38.5
  0
LINE
  8
0
 10
128.75
 20
38.5
 11
128.728
 21
38.2262
  0
LINE
  8
0
 10
128.728
 20
38.2262
 11
128.664
 21
37.9592
  0
LINE
  8
0
 10
128.664
 20
37.9592
 11
128.559
 21
37.7055
  0
LINE
  8
0
 10
128.559
 20
37.7055
 11
128.416
 21
37.4714
  0
LINE
  8
0
 10
128.416
 20
37.4714
 11
128.237
 21
37.2626
  0
LINE
  8
0
 10
128.237
 20
37.2626
 11
128.029
 21
37.0842
  0
LINE
  8
0
 10
128.029
 20
37.0842
 11
127.794
 21
36.9407
  0
LINE
  8
0
 10
127.794
 20
36.9407
 11
127.541
 21
36.8356
  0
LINE
  8
0
 10
127.541
 20
36.8356
 11
127.274
 21
36.7715
  0
LINE
  8
0
 10
127.274
 20
36.7715
 11
127
 21
36.75
  0
LINE
  8
0
 10
127
 20
36.75
 11
126.726
 21
36.7715
  0
LINE
  8
0
 10
126.726
 20
16.7715
 11
126.459
 21
16.8356
  0
LINE
  8
0
 10
126.459
 20
16.8356
 11
126.206
 21
16.9407
  0
LINE
  8
0
 10
126.206
 20
16.9407
 11
125.971
 21
17.0842
  0
LINE
  8
0
 10
125.971
 20
17.0842
 11
125.763
 21
17.2626
  0
LINE
  8
0
 10
125.763
 20
17.2626
 11
125.584
 21
17.4714
  0
LINE
  8
0
 10
125.584
 20
17.4714
 11
125.441
 21
17.7055
  0
LINE
  8
0
 10
125.441
 20
17.7055
 11
125.336
 21
17.9592
  0
LINE
  8
0
 10
125.336
 20
17.9592
 11
125.272
 21
18.2262
  0
LINE
  8
0
 10
125.272
 20
18.2262
 11
125.25
 21
18.5
  0
LINE
  8
0
 10
125.25
 20
18.5
 11
125.272
 21
18.7738
  0
LINE
  8
0
 10
125.272
 20
18.7738
 11
125.336
 21
19.0408
  0
LINE
  8
0
 10
125.336
 20
19.0408
 11
125.441
 21
19.2945
  0
LINE
  8
0
 10
125.441
 20
19.2945
 11
125.584
 21
19.5286
  0
LINE
  8
0
 10
125.584
 20
19.5286
 11
125.763
 21
19.7374
  0
LINE
  8
0
 10
125.763
 20
19.7374
 11
125.971
 21
19.9158
  0
LINE
  8
0
 10
125.971
 20
19.9158
 11
126.206
 21
20.0592
  0
LINE
  8
0
 10
126.206
 20
20.0592
 11
126.459
 21
20.1643
  0
LINE
  8
0
 10
126.459
 20
20.1643
 11
126.726
 21
20.2285
  0
LINE
  8
0
 10
126.726
 20
20.2285
 11
127
 21
20.25
  0
LINE
  8
0
 10
127
 20
20.25
 11
127.274
 21
20.2285
  0
LINE
  8
0
 10
127.274
 20
20.2285
 11
127.541
 21
20.1643
  0
LINE
  8
0
 10
127.541
 20
20.1643
 11
127.794
 21
20.0592
  0
LINE
  8
0
 10
127.794
 20
20.0592
 11
128.029
 21
19.9158
  0
LINE
  8
0
 10
128.029
 20
19.9158
 11
128.237
 21
19.7374
  0
LINE
  8
0
 10
128.237
 20
19.7374
 11
128.416
 21
19.5286
  0
LINE
  8
0
 10
128.416
 20
19.5286
 11
128.559
 21
19.2945
  0
LINE
  8
0
 10
128.559
 20
19.2945
 11
128.664
 21
19.0408
  0
LINE
  8
0
 10
128.664
 20
19.0408
 11
128.728
 21
18.7738
  0
LINE
  8
0
 10
128.728
 20
18.7738
 11
128.75
 21
18.5
  0
LINE
  8
0
 10
128.75
 20
18.5
 11
128.728
 21
18.2262
  0
LINE
  8
0
 10
128.728
 20
18.2262
 11
128.664
 21
17.9592
  0
LINE
  8
0
 10
128.664
 20
17.9592
 11
128.559
 21
17.7055
  0
LINE
  8
0
 10
128.559
 20
17.7055
 11
128.416
 21
17.4714
  0
LINE
  8
0
 10
128.416
 20
17.4714
 11
128.237
 21
17.2626
  0
LINE
  8
0
 10
128.237
 20
17.2626
 11
128.029
 21
17.0842
  0
LINE
  8
0
 10
128.029
 20
17.0842
 11
127.794
 21
16.9407
  0
LINE
  8
0
 10
127.794
 20
16.9407
 11
127.541
 21
16.8356
  0
LINE
  8
0
 10
127.541
 20
16.8356
 11
127.274
 21
16.7715
  0
LINE
  8
0
 10
127.274
 20
16.7715
 11
127
 21
16.75
  0
LINE
  8
0
 10
127
 20
16.75
 11
126.726
 21
16.7715
  0
ENDSEC
  0
SECTION
  2
OBJECTS
  0
DICTIONARY
  0
ENDSEC
  0
EOF
