  0
SECTION
  2
BLOCKS
  0
ENDSEC
  0
SECTION
  2
ENTITIES
  0
LINE
  8
0
 10
447
 20
53
 11
0
 21
53
  0
LINE
  8
0
 10
0
 20
53
 11
0
 21
0
  0
LINE
  8
0
 10
0
 20
0
 11
447
 21
0
  0
LINE
  8
0
 10
447
 20
0
 11
447
 21
53
  0
LINE
  8
0
 10
107.134
 20
44.3209
 11
106.875
 21
44.3832
  0
LINE
  8
0
 10
106.875
 20
44.3832
 11
106.628
 21
44.4853
  0
LINE
  8
0
 10
106.628
 20
44.4853
 11
106.401
 21
44.6247
  0
LINE
  8
0
 10
106.401
 20
44.6247
 11
106.198
 21
44.7979
  0
LINE
  8
0
 10
106.198
 20
44.7979
 11
106.025
 21
45.0008
  0
LINE
  8
0
 10
106.025
 20
45.0008
 11
105.885
 21
45.2282
  0
LINE
  8
0
 10
105.885
 20
45.2282
 11
105.783
 21
45.4747
  0
LINE
  8
0
 10
105.783
 20
45.4747
 11
105.721
 21
45.7341
  0
LINE
  8
0
 10
105.721
 20
45.7341
 11
105.7
 21
46
  0
LINE
  8
0
 10
105.7
 20
46
 11
105.721
 21
46.2659
  0
LINE
  8
0
 10
105.721
 20
46.2659
 11
105.783
 21
46.5253
  0
LINE
  8
0
 10
105.783
 20
46.5253
 11
105.885
 21
46.7718
  0
LINE
  8
0
 10
105.885
 20
46.7718
 11
106.025
 21
46.9992
  0
LINE
  8
0
 10
106.025
 20
46.9992
 11
106.198
 21
47.2021
  0
LINE
  8
0
 10
106.198
 20
47.2021
 11
106.401
 21
47.3753
  0
LINE
  8
0
 10
106.401
 20
47.3753
 11
106.628
 21
47.5147
  0
LINE
  8
0
 10
106.628
 20
47.5147
 11
106.875
 21
47.6168
  0
LINE
  8
0
 10
106.875
 20
47.6168
 11
107.134
 21
47.6791
  0
LINE
  8
0
 10
107.134
 20
47.6791
 11
107.4
 21
47.7
  0
LINE
  8
0
 10
107.4
 20
47.7
 11
107.666
 21
47.6791
  0
LINE
  8
0
 10
107.666
 20
47.6791
 11
107.925
 21
47.6168
  0
LINE
  8
0
 10
107.925
 20
47.6168
 11
108.172
 21
47.5147
  0
LINE
  8
0
 10
108.172
 20
47.5147
 11
108.399
 21
47.3753
  0
LINE
  8
0
 10
108.399
 20
47.3753
 11
108.602
 21
47.2021
  0
LINE
  8
0
 10
108.602
 20
47.2021
 11
108.775
 21
46.9992
  0
LINE
  8
0
 10
108.775
 20
46.9992
 11
108.915
 21
46.7718
  0
LINE
  8
0
 10
108.915
 20
46.7718
 11
109.017
 21
46.5253
  0
LINE
  8
0
 10
109.017
 20
46.5253
 11
109.079
 21
46.2659
  0
LINE
  8
0
 10
109.079
 20
46.2659
 11
109.1
 21
46
  0
LINE
  8
0
 10
109.1
 20
46
 11
109.079
 21
45.7341
  0
LINE
  8
0
 10
109.079
 20
45.7341
 11
109.017
 21
45.4747
  0
LINE
  8
0
 10
109.017
 20
45.4747
 11
108.915
 21
45.2282
  0
LINE
  8
0
 10
108.915
 20
45.2282
 11
108.775
 21
45.0008
  0
LINE
  8
0
 10
108.775
 20
45.0008
 11
108.602
 21
44.7979
  0
LINE
  8
0
 10
108.602
 20
44.7979
 11
108.399
 21
44.6247
  0
LINE
  8
0
 10
108.399
 20
44.6247
 11
108.172
 21
44.4853
  0
LINE
  8
0
 10
108.172
 20
44.4853
 11
107.925
 21
44.3832
  0
LINE
  8
0
 10
107.925
 20
44.3832
 11
107.666
 21
44.3209
  0
LINE
  8
0
 10
107.666
 20
44.3209
 11
107.4
 21
44.3
  0
LINE
  8
0
 10
107.4
 20
44.3
 11
107.134
 21
44.3209
  0
LINE
  8
0
 10
261.934
 20
44.3209
 11
261.675
 21
44.3832
  0
LINE
  8
0
 10
261.675
 20
44.3832
 11
261.428
 21
44.4853
  0
LINE
  8
0
 10
261.428
 20
44.4853
 11
261.201
 21
44.6247
  0
LINE
  8
0
 10
261.201
 20
44.6247
 11
260.998
 21
44.7979
  0
LINE
  8
0
 10
260.998
 20
44.7979
 11
260.825
 21
45.0008
  0
LINE
  8
0
 10
260.825
 20
45.0008
 11
260.685
 21
45.2282
  0
LINE
  8
0
 10
260.685
 20
45.2282
 11
260.583
 21
45.4747
  0
LINE
  8
0
 10
260.583
 20
45.4747
 11
260.521
 21
45.7341
  0
LINE
  8
0
 10
260.521
 20
45.7341
 11
260.5
 21
46
  0
LINE
  8
0
 10
260.5
 20
46
 11
260.521
 21
46.2659
  0
LINE
  8
0
 10
260.521
 20
46.2659
 11
260.583
 21
46.5253
  0
LINE
  8
0
 10
260.583
 20
46.5253
 11
260.685
 21
46.7718
  0
LINE
  8
0
 10
260.685
 20
46.7718
 11
260.825
 21
46.9992
  0
LINE
  8
0
 10
260.825
 20
46.9992
 11
260.998
 21
47.2021
  0
LINE
  8
0
 10
260.998
 20
47.2021
 11
261.201
 21
47.3753
  0
LINE
  8
0
 10
261.201
 20
47.3753
 11
261.428
 21
47.5147
  0
LINE
  8
0
 10
261.428
 20
47.5147
 11
261.675
 21
47.6168
  0
LINE
  8
0
 10
261.675
 20
47.6168
 11
261.934
 21
47.6791
  0
LINE
  8
0
 10
261.934
 20
47.6791
 11
262.2
 21
47.7
  0
LINE
  8
0
 10
262.2
 20
47.7
 11
262.466
 21
47.6791
  0
LINE
  8
0
 10
262.466
 20
47.6791
 11
262.725
 21
47.6168
  0
LINE
  8
0
 10
262.725
 20
47.6168
 11
262.972
 21
47.5147
  0
LINE
  8
0
 10
262.972
 20
47.5147
 11
263.199
 21
47.3753
  0
LINE
  8
0
 10
263.199
 20
47.3753
 11
263.402
 21
47.2021
  0
LINE
  8
0
 10
263.402
 20
47.2021
 11
263.575
 21
46.9992
  0
LINE
  8
0
 10
263.575
 20
46.9992
 11
263.715
 21
46.7718
  0
LINE
  8
0
 10
263.715
 20
46.7718
 11
263.817
 21
46.5253
  0
LINE
  8
0
 10
263.817
 20
46.5253
 11
263.879
 21
46.2659
  0
LINE
  8
0
 10
263.879
 20
46.2659
 11
263.9
 21
46
  0
LINE
  8
0
 10
263.9
 20
46
 11
263.879
 21
45.7341
  0
LINE
  8
0
 10
263.879
 20
45.7341
 11
263.817
 21
45.4747
  0
LINE
  8
0
 10
263.817
 20
45.4747
 11
263.715
 21
45.2282
  0
LINE
  8
0
 10
263.715
 20
45.2282
 11
263.575
 21
45.0008
  0
LINE
  8
0
 10
263.575
 20
45.0008
 11
263.402
 21
44.7979
  0
LINE
  8
0
 10
263.402
 20
44.7979
 11
263.199
 21
44.6247
  0
LINE
  8
0
 10
263.199
 20
44.6247
 11
262.972
 21
44.4853
  0
LINE
  8
0
 10
262.972
 20
44.4853
 11
262.725
 21
44.3832
  0
LINE
  8
0
 10
262.725
 20
44.3832
 11
262.466
 21
44.3209
  0
LINE
  8
0
 10
262.466
 20
44.3209
 11
262.2
 21
44.3
  0
LINE
  8
0
 10
262.2
 20
44.3
 11
261.934
 21
44.3209
  0
LINE
  8
0
 10
416.734
 20
44.3209
 11
416.475
 21
44.3832
  0
LINE
  8
0
 10
416.475
 20
44.3832
 11
416.228
 21
44.4853
  0
LINE
  8
0
 10
416.228
 20
44.4853
 11
416.001
 21
44.6247
  0
LINE
  8
0
 10
416.001
 20
44.6247
 11
415.798
 21
44.7979
  0
LINE
  8
0
 10
415.798
 20
44.7979
 11
415.625
 21
45.0008
  0
LINE
  8
0
 10
415.625
 20
45.0008
 11
415.485
 21
45.2282
  0
LINE
  8
0
 10
415.485
 20
45.2282
 11
415.383
 21
45.4747
  0
LINE
  8
0
 10
415.383
 20
45.4747
 11
415.321
 21
45.7341
  0
LINE
  8
0
 10
415.321
 20
45.7341
 11
415.3
 21
46
  0
LINE
  8
0
 10
415.3
 20
46
 11
415.321
 21
46.2659
  0
LINE
  8
0
 10
415.321
 20
46.2659
 11
415.383
 21
46.5253
  0
LINE
  8
0
 10
415.383
 20
46.5253
 11
415.485
 21
46.7718
  0
LINE
  8
0
 10
415.485
 20
46.7718
 11
415.625
 21
46.9992
  0
LINE
  8
0
 10
415.625
 20
46.9992
 11
415.798
 21
47.2021
  0
LINE
  8
0
 10
415.798
 20
47.2021
 11
416.001
 21
47.3753
  0
LINE
  8
0
 10
416.001
 20
47.3753
 11
416.228
 21
47.5147
  0
LINE
  8
0
 10
416.228
 20
47.5147
 11
416.475
 21
47.6168
  0
LINE
  8
0
 10
416.475
 20
47.6168
 11
416.734
 21
47.6791
  0
LINE
  8
0
 10
416.734
 20
47.6791
 11
417
 21
47.7
  0
LINE
  8
0
 10
417
 20
47.7
 11
417.266
 21
47.6791
  0
LINE
  8
0
 10
417.266
 20
47.6791
 11
417.525
 21
47.6168
  0
LINE
  8
0
 10
417.525
 20
47.6168
 11
417.772
 21
47.5147
  0
LINE
  8
0
 10
417.772
 20
47.5147
 11
417.999
 21
47.3753
  0
LINE
  8
0
 10
417.999
 20
47.3753
 11
418.202
 21
47.2021
  0
LINE
  8
0
 10
418.202
 20
47.2021
 11
418.375
 21
46.9992
  0
LINE
  8
0
 10
418.375
 20
46.9992
 11
418.515
 21
46.7718
  0
LINE
  8
0
 10
418.515
 20
46.7718
 11
418.617
 21
46.5253
  0
LINE
  8
0
 10
418.617
 20
46.5253
 11
418.679
 21
46.2659
  0
LINE
  8
0
 10
418.679
 20
46.2659
 11
418.7
 21
46
  0
LINE
  8
0
 10
418.7
 20
46
 11
418.679
 21
45.7341
  0
LINE
  8
0
 10
418.679
 20
45.7341
 11
418.617
 21
45.4747
  0
LINE
  8
0
 10
418.617
 20
45.4747
 11
418.515
 21
45.2282
  0
LINE
  8
0
 10
418.515
 20
45.2282
 11
418.375
 21
45.0008
  0
LINE
  8
0
 10
418.375
 20
45.0008
 11
418.202
 21
44.7979
  0
LINE
  8
0
 10
418.202
 20
44.7979
 11
417.999
 21
44.6247
  0
LINE
  8
0
 10
417.999
 20
44.6247
 11
417.772
 21
44.4853
  0
LINE
  8
0
 10
417.772
 20
44.4853
 11
417.525
 21
44.3832
  0
LINE
  8
0
 10
417.525
 20
44.3832
 11
417.266
 21
44.3209
  0
LINE
  8
0
 10
417.266
 20
44.3209
 11
417
 21
44.3
  0
LINE
  8
0
 10
417
 20
44.3
 11
416.734
 21
44.3209
  0
LINE
  8
0
 10
47.8784
 20
13.2534
 11
47.8003
 21
13.2595
  0
LINE
  8
0
 10
47.8003
 20
13.2595
 11
47.724
 21
13.2778
  0
LINE
  8
0
 10
47.724
 20
13.2778
 11
47.6515
 21
13.3078
  0
LINE
  8
0
 10
47.6515
 20
13.3078
 11
47.5846
 21
13.3488
  0
LINE
  8
0
 10
47.5846
 20
13.3488
 11
47.525
 21
13.3998
  0
LINE
  8
0
 10
47.525
 20
13.3998
 11
46.2554
 21
14.6693
  0
LINE
  8
0
 10
46.2554
 20
14.6693
 11
46.2045
 21
14.729
  0
LINE
  8
0
 10
46.2045
 20
14.729
 11
46.1635
 21
14.7959
  0
LINE
  8
0
 10
46.1635
 20
14.7959
 11
46.1335
 21
14.8684
  0
LINE
  8
0
 10
46.1335
 20
14.8684
 11
46.1151
 21
14.9447
  0
LINE
  8
0
 10
46.1151
 20
14.9447
 11
46.109
 21
15.0229
  0
LINE
  8
0
 10
46.109
 20
15.0229
 11
46.109
 21
37.978
  0
LINE
  8
0
 10
46.109
 20
37.978
 11
46.1151
 21
38.0562
  0
LINE
  8
0
 10
46.1151
 20
38.0562
 11
46.1335
 21
38.1325
  0
LINE
  8
0
 10
46.1335
 20
38.1325
 11
46.1635
 21
38.205
  0
LINE
  8
0
 10
46.1635
 20
38.205
 11
46.2045
 21
38.2719
  0
LINE
  8
0
 10
46.2045
 20
38.2719
 11
46.2554
 21
38.3315
  0
LINE
  8
0
 10
46.2554
 20
38.3315
 11
47.525
 21
39.601
  0
LINE
  8
0
 10
47.525
 20
39.601
 11
47.5845
 21
39.6519
  0
LINE
  8
0
 10
47.5845
 20
39.6519
 11
47.6514
 21
39.6929
  0
LINE
  8
0
 10
47.6514
 20
39.6929
 11
47.7238
 21
39.723
  0
LINE
  8
0
 10
47.7238
 20
39.723
 11
47.8001
 21
39.7413
  0
LINE
  8
0
 10
47.8001
 20
39.7413
 11
47.8783
 21
39.7475
  0
LINE
  8
0
 10
47.8783
 20
39.7475
 11
104.222
 21
39.77
  0
LINE
  8
0
 10
104.222
 20
39.77
 11
104.3
 21
39.7639
  0
LINE
  8
0
 10
104.3
 20
39.7639
 11
104.376
 21
39.7456
  0
LINE
  8
0
 10
104.376
 20
39.7456
 11
104.449
 21
39.7157
  0
LINE
  8
0
 10
104.449
 20
39.7157
 11
104.516
 21
39.6747
  0
LINE
  8
0
 10
104.516
 20
39.6747
 11
104.576
 21
39.6238
  0
LINE
  8
0
 10
104.576
 20
39.6238
 11
105.744
 21
38.4568
  0
LINE
  8
0
 10
105.744
 20
38.4568
 11
105.796
 21
38.3969
  0
LINE
  8
0
 10
105.796
 20
38.3969
 11
105.837
 21
38.33
  0
LINE
  8
0
 10
105.837
 20
38.33
 11
105.867
 21
38.2575
  0
LINE
  8
0
 10
105.867
 20
38.2575
 11
105.885
 21
38.1812
  0
LINE
  8
0
 10
105.885
 20
38.1812
 11
105.891
 21
38.103
  0
LINE
  8
0
 10
105.891
 20
38.103
 11
105.891
 21
37.5
  0
LINE
  8
0
 10
105.891
 20
37.5
 11
213
 21
37.5
  0
LINE
  8
0
 10
213
 20
37.5
 11
213
 21
15.5
  0
LINE
  8
0
 10
213
 20
15.5
 11
105.891
 21
15.5
  0
LINE
  8
0
 10
105.891
 20
15.5
 11
105.891
 21
14.4028
  0
LINE
  8
0
 10
105.891
 20
14.4028
 11
105.885
 21
14.3242
  0
LINE
  8
0
 10
105.885
 20
14.3242
 11
105.867
 21
14.2479
  0
LINE
  8
0
 10
105.867
 20
14.2479
 11
105.837
 21
14.1754
  0
LINE
  8
0
 10
105.837
 20
14.1754
 11
105.796
 21
14.1086
  0
LINE
  8
0
 10
105.796
 20
14.1086
 11
105.745
 21
14.049
  0
LINE
  8
0
 10
105.745
 20
14.049
 11
105.081
 21
13.3868
  0
LINE
  8
0
 10
105.081
 20
13.3868
 11
105.022
 21
13.3361
  0
LINE
  8
0
 10
105.022
 20
13.3361
 11
104.955
 21
13.2951
  0
LINE
  8
0
 10
104.955
 20
13.2951
 11
104.883
 21
13.2651
  0
LINE
  8
0
 10
104.883
 20
13.2651
 11
104.806
 21
13.2468
  0
LINE
  8
0
 10
104.806
 20
13.2468
 11
104.728
 21
13.2407
  0
LINE
  8
0
 10
104.728
 20
13.2407
 11
47.8784
 21
13.2534
  0
LINE
  8
0
 10
241
 20
15.5
 11
241
 21
37.5
  0
LINE
  8
0
 10
241
 20
37.5
 11
383
 21
37.5
  0
LINE
  8
0
 10
383
 20
37.5
 11
383
 21
15.5
  0
LINE
  8
0
 10
383
 20
15.5
 11
241
 21
15.5
  0
LINE
  8
0
 10
29.7341
 20
5.32092
 11
29.4747
 21
5.38319
  0
LINE
  8
0
 10
29.4747
 20
5.38319
 11
29.2282
 21
5.48528
  0
LINE
  8
0
 10
29.2282
 20
5.48528
 11
29.0008
 21
5.62466
  0
LINE
  8
0
 10
29.0008
 20
5.62466
 11
28.7979
 21
5.79791
  0
LINE
  8
0
 10
28.7979
 20
5.79791
 11
28.6247
 21
6.00076
  0
LINE
  8
0
 10
28.6247
 20
6.00076
 11
28.4853
 21
6.22821
  0
LINE
  8
0
 10
28.4853
 20
6.22821
 11
28.3832
 21
6.47467
  0
LINE
  8
0
 10
28.3832
 20
6.47467
 11
28.3209
 21
6.73405
  0
LINE
  8
0
 10
28.3209
 20
6.73405
 11
28.3
 21
7
  0
LINE
  8
0
 10
28.3
 20
7
 11
28.3209
 21
7.26593
  0
LINE
  8
0
 10
28.3209
 20
7.26593
 11
28.3832
 21
7.52531
  0
LINE
  8
0
 10
28.3832
 20
7.52531
 11
28.4853
 21
7.77177
  0
LINE
  8
0
 10
28.4853
 20
7.77177
 11
28.6247
 21
7.99922
  0
LINE
  8
0
 10
28.6247
 20
7.99922
 11
28.7979
 21
8.20207
  0
LINE
  8
0
 10
28.7979
 20
8.20207
 11
29.0008
 21
8.37532
  0
LINE
  8
0
 10
29.0008
 20
8.37532
 11
29.2282
 21
8.51471
  0
LINE
  8
0
 10
29.2282
 20
8.51471
 11
29.4747
 21
8.61679
  0
LINE
  8
0
 10
29.4747
 20
8.61679
 11
29.7341
 21
8.67906
  0
LINE
  8
0
 10
29.7341
 20
8.67906
 11
30
 21
8.7
  0
LINE
  8
0
 10
30
 20
8.7
 11
30.2659
 21
8.67906
  0
LINE
  8
0
 10
30.2659
 20
8.67906
 11
30.5253
 21
8.61679
  0
LINE
  8
0
 10
30.5253
 20
8.61679
 11
30.7718
 21
8.51471
  0
LINE
  8
0
 10
30.7718
 20
8.51471
 11
30.9992
 21
8.37532
  0
LINE
  8
0
 10
30.9992
 20
8.37532
 11
31.2021
 21
8.20207
  0
LINE
  8
0
 10
31.2021
 20
8.20207
 11
31.3753
 21
7.99922
  0
LINE
  8
0
 10
31.3753
 20
7.99922
 11
31.5147
 21
7.77177
  0
LINE
  8
0
 10
31.5147
 20
7.77177
 11
31.6168
 21
7.52531
  0
LINE
  8
0
 10
31.6168
 20
7.52531
 11
31.6791
 21
7.26593
  0
LINE
  8
0
 10
31.6791
 20
7.26593
 11
31.7
 21
7
  0
LINE
  8
0
 10
31.7
 20
7
 11
31.6791
 21
6.73405
  0
LINE
  8
0
 10
31.6791
 20
6.73405
 11
31.6168
 21
6.47467
  0
LINE
  8
0
 10
31.6168
 20
6.47467
 11
31.5147
 21
6.22821
  0
LINE
  8
0
 10
31.5147
 20
6.22821
 11
31.3753
 21
6.00076
  0
LINE
  8
0
 10
31.3753
 20
6.00076
 11
31.2021
 21
5.79791
  0
LINE
  8
0
 10
31.2021
 20
5.79791
 11
30.9992
 21
5.62466
  0
LINE
  8
0
 10
30.9992
 20
5.62466
 11
30.7718
 21
5.48528
  0
LINE
  8
0
 10
30.7718
 20
5.48528
 11
30.5253
 21
5.38319
  0
LINE
  8
0
 10
30.5253
 20
5.38319
 11
30.2659
 21
5.32092
  0
LINE
  8
0
 10
30.2659
 20
5.32092
 11
30
 21
5.29999
  0
LINE
  8
0
 10
30
 20
5.29999
 11
29.7341
 21
5.32092
  0
LINE
  8
0
 10
184.534
 20
5.32092
 11
184.275
 21
5.38319
  0
LINE
  8
0
 10
184.275
 20
5.38319
 11
184.028
 21
5.48528
  0
LINE
  8
0
 10
184.028
 20
5.48528
 11
183.801
 21
5.62466
  0
LINE
  8
0
 10
183.801
 20
5.62466
 11
183.598
 21
5.79791
  0
LINE
  8
0
 10
183.598
 20
5.79791
 11
183.425
 21
6.00076
  0
LINE
  8
0
 10
183.425
 20
6.00076
 11
183.285
 21
6.22821
  0
LINE
  8
0
 10
183.285
 20
6.22821
 11
183.183
 21
6.47467
  0
LINE
  8
0
 10
183.183
 20
6.47467
 11
183.121
 21
6.73405
  0
LINE
  8
0
 10
183.121
 20
6.73405
 11
183.1
 21
7
  0
LINE
  8
0
 10
183.1
 20
7
 11
183.121
 21
7.26593
  0
LINE
  8
0
 10
183.121
 20
7.26593
 11
183.183
 21
7.52531
  0
LINE
  8
0
 10
183.183
 20
7.52531
 11
183.285
 21
7.77177
  0
LINE
  8
0
 10
183.285
 20
7.77177
 11
183.425
 21
7.99922
  0
LINE
  8
0
 10
183.425
 20
7.99922
 11
183.598
 21
8.20207
  0
LINE
  8
0
 10
183.598
 20
8.20207
 11
183.801
 21
8.37532
  0
LINE
  8
0
 10
183.801
 20
8.37532
 11
184.028
 21
8.51471
  0
LINE
  8
0
 10
184.028
 20
8.51471
 11
184.275
 21
8.61679
  0
LINE
  8
0
 10
184.275
 20
8.61679
 11
184.534
 21
8.67906
  0
LINE
  8
0
 10
184.534
 20
8.67906
 11
184.8
 21
8.7
  0
LINE
  8
0
 10
184.8
 20
8.7
 11
185.066
 21
8.67906
  0
LINE
  8
0
 10
185.066
 20
8.67906
 11
185.325
 21
8.61679
  0
LINE
  8
0
 10
185.325
 20
8.61679
 11
185.572
 21
8.51471
  0
LINE
  8
0
 10
185.572
 20
8.51471
 11
185.799
 21
8.37532
  0
LINE
  8
0
 10
185.799
 20
8.37532
 11
186.002
 21
8.20207
  0
LINE
  8
0
 10
186.002
 20
8.20207
 11
186.175
 21
7.99922
  0
LINE
  8
0
 10
186.175
 20
7.99922
 11
186.315
 21
7.77177
  0
LINE
  8
0
 10
186.315
 20
7.77177
 11
186.417
 21
7.52531
  0
LINE
  8
0
 10
186.417
 20
7.52531
 11
186.479
 21
7.26593
  0
LINE
  8
0
 10
186.479
 20
7.26593
 11
186.5
 21
7
  0
LINE
  8
0
 10
186.5
 20
7
 11
186.479
 21
6.73405
  0
LINE
  8
0
 10
186.479
 20
6.73405
 11
186.417
 21
6.47467
  0
LINE
  8
0
 10
186.417
 20
6.47467
 11
186.315
 21
6.22821
  0
LINE
  8
0
 10
186.315
 20
6.22821
 11
186.175
 21
6.00076
  0
LINE
  8
0
 10
186.175
 20
6.00076
 11
186.002
 21
5.79791
  0
LINE
  8
0
 10
186.002
 20
5.79791
 11
185.799
 21
5.62466
  0
LINE
  8
0
 10
185.799
 20
5.62466
 11
185.572
 21
5.48528
  0
LINE
  8
0
 10
185.572
 20
5.48528
 11
185.325
 21
5.38319
  0
LINE
  8
0
 10
185.325
 20
5.38319
 11
185.066
 21
5.32092
  0
LINE
  8
0
 10
185.066
 20
5.32092
 11
184.8
 21
5.29999
  0
LINE
  8
0
 10
184.8
 20
5.29999
 11
184.534
 21
5.32092
  0
LINE
  8
0
 10
339.334
 20
5.32092
 11
339.075
 21
5.38319
  0
LINE
  8
0
 10
339.075
 20
5.38319
 11
338.828
 21
5.48528
  0
LINE
  8
0
 10
338.828
 20
5.48528
 11
338.601
 21
5.62466
  0
LINE
  8
0
 10
338.601
 20
5.62466
 11
338.398
 21
5.79791
  0
LINE
  8
0
 10
338.398
 20
5.79791
 11
338.225
 21
6.00076
  0
LINE
  8
0
 10
338.225
 20
6.00076
 11
338.085
 21
6.22821
  0
LINE
  8
0
 10
338.085
 20
6.22821
 11
337.983
 21
6.47467
  0
LINE
  8
0
 10
337.983
 20
6.47467
 11
337.921
 21
6.73405
  0
LINE
  8
0
 10
337.921
 20
6.73405
 11
337.9
 21
7
  0
LINE
  8
0
 10
337.9
 20
7
 11
337.921
 21
7.26593
  0
LINE
  8
0
 10
337.921
 20
7.26593
 11
337.983
 21
7.52531
  0
LINE
  8
0
 10
337.983
 20
7.52531
 11
338.085
 21
7.77177
  0
LINE
  8
0
 10
338.085
 20
7.77177
 11
338.225
 21
7.99922
  0
LINE
  8
0
 10
338.225
 20
7.99922
 11
338.398
 21
8.20207
  0
LINE
  8
0
 10
338.398
 20
8.20207
 11
338.601
 21
8.37532
  0
LINE
  8
0
 10
338.601
 20
8.37532
 11
338.828
 21
8.51471
  0
LINE
  8
0
 10
338.828
 20
8.51471
 11
339.075
 21
8.61679
  0
LINE
  8
0
 10
339.075
 20
8.61679
 11
339.334
 21
8.67906
  0
LINE
  8
0
 10
339.334
 20
8.67906
 11
339.6
 21
8.7
  0
LINE
  8
0
 10
339.6
 20
8.7
 11
339.866
 21
8.67906
  0
LINE
  8
0
 10
339.866
 20
8.67906
 11
340.125
 21
8.61679
  0
LINE
  8
0
 10
340.125
 20
8.61679
 11
340.372
 21
8.51471
  0
LINE
  8
0
 10
340.372
 20
8.51471
 11
340.599
 21
8.37532
  0
LINE
  8
0
 10
340.599
 20
8.37532
 11
340.802
 21
8.20207
  0
LINE
  8
0
 10
340.802
 20
8.20207
 11
340.975
 21
7.99922
  0
LINE
  8
0
 10
340.975
 20
7.99922
 11
341.115
 21
7.77177
  0
LINE
  8
0
 10
341.115
 20
7.77177
 11
341.217
 21
7.52531
  0
LINE
  8
0
 10
341.217
 20
7.52531
 11
341.279
 21
7.26593
  0
LINE
  8
0
 10
341.279
 20
7.26593
 11
341.3
 21
7
  0
LINE
  8
0
 10
341.3
 20
7
 11
341.279
 21
6.73405
  0
LINE
  8
0
 10
341.279
 20
6.73405
 11
341.217
 21
6.47467
  0
LINE
  8
0
 10
341.217
 20
6.47467
 11
341.115
 21
6.22821
  0
LINE
  8
0
 10
341.115
 20
6.22821
 11
340.975
 21
6.00076
  0
LINE
  8
0
 10
340.975
 20
6.00076
 11
340.802
 21
5.79791
  0
LINE
  8
0
 10
340.802
 20
5.79791
 11
340.599
 21
5.62466
  0
LINE
  8
0
 10
340.599
 20
5.62466
 11
340.372
 21
5.48528
  0
LINE
  8
0
 10
340.372
 20
5.48528
 11
340.125
 21
5.38319
  0
LINE
  8
0
 10
340.125
 20
5.38319
 11
339.866
 21
5.32092
  0
LINE
  8
0
 10
339.866
 20
5.32092
 11
339.6
 21
5.29999
  0
LINE
  8
0
 10
339.6
 20
5.29999
 11
339.334
 21
5.32092
  0
ENDSEC
  0
SECTION
  2
OBJECTS
  0
DICTIONARY
  0
ENDSEC
  0
EOF
