  0
SECTION
  2
BLOCKS
  0
ENDSEC
  0
SECTION
  2
ENTITIES
  0
LINE
  8
0
 10
315.6
 20
57
 11
0
 21
57
  0
LINE
  8
0
 10
0
 20
57
 11
0
 21
0
  0
LINE
  8
0
 10
0
 20
0
 11
315.6
 21
0
  0
LINE
  8
0
 10
315.6
 20
0
 11
315.6
 21
57
  0
LINE
  8
0
 10
95
 20
10.5
 11
95
 21
19.5
  0
LINE
  8
0
 10
95
 20
19.5
 11
37
 21
19.5
  0
LINE
  8
0
 10
37
 20
19.5
 11
37
 21
37.5
  0
LINE
  8
0
 10
37
 20
37.5
 11
95
 21
37.5
  0
LINE
  8
0
 10
95
 20
37.5
 11
95
 21
46.5
  0
LINE
  8
0
 10
95
 20
46.5
 11
113
 21
46.5
  0
LINE
  8
0
 10
113
 20
46.5
 11
113
 21
10.5
  0
LINE
  8
0
 10
113
 20
10.5
 11
95
 21
10.5
  0
LINE
  8
0
 10
203
 20
10.5
 11
203
 21
19.5
  0
LINE
  8
0
 10
203
 20
19.5
 11
145
 21
19.5
  0
LINE
  8
0
 10
145
 20
19.5
 11
145
 21
37.5
  0
LINE
  8
0
 10
145
 20
37.5
 11
203
 21
37.5
  0
LINE
  8
0
 10
203
 20
37.5
 11
203
 21
46.5
  0
LINE
  8
0
 10
203
 20
46.5
 11
221
 21
46.5
  0
LINE
  8
0
 10
221
 20
46.5
 11
221
 21
28.5
  0
LINE
  8
0
 10
221
 20
28.5
 11
239
 21
28.5
  0
LINE
  8
0
 10
239
 20
28.5
 11
239
 21
10.5
  0
LINE
  8
0
 10
239
 20
10.5
 11
203
 21
10.5
  0
LINE
  8
0
 10
269.3
 20
17.5
 11
269.3
 21
39.5
  0
LINE
  8
0
 10
269.3
 20
39.5
 11
291.3
 21
39.5
  0
LINE
  8
0
 10
291.3
 20
39.5
 11
291.3
 21
17.5
  0
LINE
  8
0
 10
291.3
 20
17.5
 11
269.3
 21
17.5
  0
ENDSEC
  0
SECTION
  2
OBJECTS
  0
DICTIONARY
  0
ENDSEC
  0
EOF
