  0
SECTION
  2
BLOCKS
  0
ENDSEC
  0
SECTION
  2
ENTITIES
  0
LINE
  8
0
 10
313.6
 20
57
 11
0
 21
57
  0
LINE
  8
0
 10
0
 20
57
 11
0
 21
0
  0
LINE
  8
0
 10
0
 20
0
 11
313.6
 21
0
  0
LINE
  8
0
 10
313.6
 20
0
 11
313.6
 21
57
  0
LINE
  8
0
 10
16.2341
 20
46.3209
 11
15.9747
 21
46.3832
  0
LINE
  8
0
 10
15.9747
 20
46.3832
 11
15.7282
 21
46.4853
  0
LINE
  8
0
 10
15.7282
 20
46.4853
 11
15.5008
 21
46.6247
  0
LINE
  8
0
 10
15.5008
 20
46.6247
 11
15.2979
 21
46.7979
  0
LINE
  8
0
 10
15.2979
 20
46.7979
 11
15.1247
 21
47.0008
  0
LINE
  8
0
 10
15.1247
 20
47.0008
 11
14.9853
 21
47.2282
  0
LINE
  8
0
 10
14.9853
 20
47.2282
 11
14.8832
 21
47.4747
  0
LINE
  8
0
 10
14.8832
 20
47.4747
 11
14.8209
 21
47.7341
  0
LINE
  8
0
 10
14.8209
 20
47.7341
 11
14.8
 21
48
  0
LINE
  8
0
 10
14.8
 20
48
 11
14.8209
 21
48.2659
  0
LINE
  8
0
 10
14.8209
 20
48.2659
 11
14.8832
 21
48.5253
  0
LINE
  8
0
 10
14.8832
 20
48.5253
 11
14.9853
 21
48.7718
  0
LINE
  8
0
 10
14.9853
 20
48.7718
 11
15.1247
 21
48.9992
  0
LINE
  8
0
 10
15.1247
 20
48.9992
 11
15.2979
 21
49.2021
  0
LINE
  8
0
 10
15.2979
 20
49.2021
 11
15.5008
 21
49.3753
  0
LINE
  8
0
 10
15.5008
 20
49.3753
 11
15.7282
 21
49.5147
  0
LINE
  8
0
 10
15.7282
 20
49.5147
 11
15.9747
 21
49.6168
  0
LINE
  8
0
 10
15.9747
 20
49.6168
 11
16.2341
 21
49.6791
  0
LINE
  8
0
 10
16.2341
 20
49.6791
 11
16.5
 21
49.7
  0
LINE
  8
0
 10
16.5
 20
49.7
 11
16.7659
 21
49.6791
  0
LINE
  8
0
 10
16.7659
 20
49.6791
 11
17.0253
 21
49.6168
  0
LINE
  8
0
 10
17.0253
 20
49.6168
 11
17.2718
 21
49.5147
  0
LINE
  8
0
 10
17.2718
 20
49.5147
 11
17.4992
 21
49.3753
  0
LINE
  8
0
 10
17.4992
 20
49.3753
 11
17.7021
 21
49.2021
  0
LINE
  8
0
 10
17.7021
 20
49.2021
 11
17.8753
 21
48.9992
  0
LINE
  8
0
 10
17.8753
 20
48.9992
 11
18.0147
 21
48.7718
  0
LINE
  8
0
 10
18.0147
 20
48.7718
 11
18.1168
 21
48.5253
  0
LINE
  8
0
 10
18.1168
 20
48.5253
 11
18.1791
 21
48.2659
  0
LINE
  8
0
 10
18.1791
 20
48.2659
 11
18.2
 21
48
  0
LINE
  8
0
 10
18.2
 20
48
 11
18.1791
 21
47.7341
  0
LINE
  8
0
 10
18.1791
 20
47.7341
 11
18.1168
 21
47.4747
  0
LINE
  8
0
 10
18.1168
 20
47.4747
 11
18.0147
 21
47.2282
  0
LINE
  8
0
 10
18.0147
 20
47.2282
 11
17.8753
 21
47.0008
  0
LINE
  8
0
 10
17.8753
 20
47.0008
 11
17.7021
 21
46.7979
  0
LINE
  8
0
 10
17.7021
 20
46.7979
 11
17.4992
 21
46.6247
  0
LINE
  8
0
 10
17.4992
 20
46.6247
 11
17.2718
 21
46.4853
  0
LINE
  8
0
 10
17.2718
 20
46.4853
 11
17.0253
 21
46.3832
  0
LINE
  8
0
 10
17.0253
 20
46.3832
 11
16.7659
 21
46.3209
  0
LINE
  8
0
 10
16.7659
 20
46.3209
 11
16.5
 21
46.3
  0
LINE
  8
0
 10
16.5
 20
46.3
 11
16.2341
 21
46.3209
  0
LINE
  8
0
 10
126.734
 20
46.3209
 11
126.475
 21
46.3832
  0
LINE
  8
0
 10
126.475
 20
46.3832
 11
126.228
 21
46.4853
  0
LINE
  8
0
 10
126.228
 20
46.4853
 11
126.001
 21
46.6247
  0
LINE
  8
0
 10
126.001
 20
46.6247
 11
125.798
 21
46.7979
  0
LINE
  8
0
 10
125.798
 20
46.7979
 11
125.625
 21
47.0008
  0
LINE
  8
0
 10
125.625
 20
47.0008
 11
125.485
 21
47.2282
  0
LINE
  8
0
 10
125.485
 20
47.2282
 11
125.383
 21
47.4747
  0
LINE
  8
0
 10
125.383
 20
47.4747
 11
125.321
 21
47.7341
  0
LINE
  8
0
 10
125.321
 20
47.7341
 11
125.3
 21
48
  0
LINE
  8
0
 10
125.3
 20
48
 11
125.321
 21
48.2659
  0
LINE
  8
0
 10
125.321
 20
48.2659
 11
125.383
 21
48.5253
  0
LINE
  8
0
 10
125.383
 20
48.5253
 11
125.485
 21
48.7718
  0
LINE
  8
0
 10
125.485
 20
48.7718
 11
125.625
 21
48.9992
  0
LINE
  8
0
 10
125.625
 20
48.9992
 11
125.798
 21
49.2021
  0
LINE
  8
0
 10
125.798
 20
49.2021
 11
126.001
 21
49.3753
  0
LINE
  8
0
 10
126.001
 20
49.3753
 11
126.228
 21
49.5147
  0
LINE
  8
0
 10
126.228
 20
49.5147
 11
126.475
 21
49.6168
  0
LINE
  8
0
 10
126.475
 20
49.6168
 11
126.734
 21
49.6791
  0
LINE
  8
0
 10
126.734
 20
49.6791
 11
127
 21
49.7
  0
LINE
  8
0
 10
127
 20
49.7
 11
127.266
 21
49.6791
  0
LINE
  8
0
 10
127.266
 20
49.6791
 11
127.525
 21
49.6168
  0
LINE
  8
0
 10
127.525
 20
49.6168
 11
127.772
 21
49.5147
  0
LINE
  8
0
 10
127.772
 20
49.5147
 11
127.999
 21
49.3753
  0
LINE
  8
0
 10
127.999
 20
49.3753
 11
128.202
 21
49.2021
  0
LINE
  8
0
 10
128.202
 20
49.2021
 11
128.375
 21
48.9992
  0
LINE
  8
0
 10
128.375
 20
48.9992
 11
128.515
 21
48.7718
  0
LINE
  8
0
 10
128.515
 20
48.7718
 11
128.617
 21
48.5253
  0
LINE
  8
0
 10
128.617
 20
48.5253
 11
128.679
 21
48.2659
  0
LINE
  8
0
 10
128.679
 20
48.2659
 11
128.7
 21
48
  0
LINE
  8
0
 10
128.7
 20
48
 11
128.679
 21
47.7341
  0
LINE
  8
0
 10
128.679
 20
47.7341
 11
128.617
 21
47.4747
  0
LINE
  8
0
 10
128.617
 20
47.4747
 11
128.515
 21
47.2282
  0
LINE
  8
0
 10
128.515
 20
47.2282
 11
128.375
 21
47.0008
  0
LINE
  8
0
 10
128.375
 20
47.0008
 11
128.202
 21
46.7979
  0
LINE
  8
0
 10
128.202
 20
46.7979
 11
127.999
 21
46.6247
  0
LINE
  8
0
 10
127.999
 20
46.6247
 11
127.772
 21
46.4853
  0
LINE
  8
0
 10
127.772
 20
46.4853
 11
127.525
 21
46.3832
  0
LINE
  8
0
 10
127.525
 20
46.3832
 11
127.266
 21
46.3209
  0
LINE
  8
0
 10
127.266
 20
46.3209
 11
127
 21
46.3
  0
LINE
  8
0
 10
127
 20
46.3
 11
126.734
 21
46.3209
  0
LINE
  8
0
 10
244.034
 20
46.3209
 11
243.775
 21
46.3832
  0
LINE
  8
0
 10
243.775
 20
46.3832
 11
243.528
 21
46.4853
  0
LINE
  8
0
 10
243.528
 20
46.4853
 11
243.301
 21
46.6247
  0
LINE
  8
0
 10
243.301
 20
46.6247
 11
243.098
 21
46.7979
  0
LINE
  8
0
 10
243.098
 20
46.7979
 11
242.925
 21
47.0008
  0
LINE
  8
0
 10
242.925
 20
47.0008
 11
242.785
 21
47.2282
  0
LINE
  8
0
 10
242.785
 20
47.2282
 11
242.683
 21
47.4747
  0
LINE
  8
0
 10
242.683
 20
47.4747
 11
242.621
 21
47.7341
  0
LINE
  8
0
 10
242.621
 20
47.7341
 11
242.6
 21
48
  0
LINE
  8
0
 10
242.6
 20
48
 11
242.621
 21
48.2659
  0
LINE
  8
0
 10
242.621
 20
48.2659
 11
242.683
 21
48.5253
  0
LINE
  8
0
 10
242.683
 20
48.5253
 11
242.785
 21
48.7718
  0
LINE
  8
0
 10
242.785
 20
48.7718
 11
242.925
 21
48.9992
  0
LINE
  8
0
 10
242.925
 20
48.9992
 11
243.098
 21
49.2021
  0
LINE
  8
0
 10
243.098
 20
49.2021
 11
243.301
 21
49.3753
  0
LINE
  8
0
 10
243.301
 20
49.3753
 11
243.528
 21
49.5147
  0
LINE
  8
0
 10
243.528
 20
49.5147
 11
243.775
 21
49.6168
  0
LINE
  8
0
 10
243.775
 20
49.6168
 11
244.034
 21
49.6791
  0
LINE
  8
0
 10
244.034
 20
49.6791
 11
244.3
 21
49.7
  0
LINE
  8
0
 10
244.3
 20
49.7
 11
244.566
 21
49.6791
  0
LINE
  8
0
 10
244.566
 20
49.6791
 11
244.825
 21
49.6168
  0
LINE
  8
0
 10
244.825
 20
49.6168
 11
245.072
 21
49.5147
  0
LINE
  8
0
 10
245.072
 20
49.5147
 11
245.299
 21
49.3753
  0
LINE
  8
0
 10
245.299
 20
49.3753
 11
245.502
 21
49.2021
  0
LINE
  8
0
 10
245.502
 20
49.2021
 11
245.675
 21
48.9992
  0
LINE
  8
0
 10
245.675
 20
48.9992
 11
245.815
 21
48.7718
  0
LINE
  8
0
 10
245.815
 20
48.7718
 11
245.917
 21
48.5253
  0
LINE
  8
0
 10
245.917
 20
48.5253
 11
245.979
 21
48.2659
  0
LINE
  8
0
 10
245.979
 20
48.2659
 11
246
 21
48
  0
LINE
  8
0
 10
246
 20
48
 11
245.979
 21
47.7341
  0
LINE
  8
0
 10
245.979
 20
47.7341
 11
245.917
 21
47.4747
  0
LINE
  8
0
 10
245.917
 20
47.4747
 11
245.815
 21
47.2282
  0
LINE
  8
0
 10
245.815
 20
47.2282
 11
245.675
 21
47.0008
  0
LINE
  8
0
 10
245.675
 20
47.0008
 11
245.502
 21
46.7979
  0
LINE
  8
0
 10
245.502
 20
46.7979
 11
245.299
 21
46.6247
  0
LINE
  8
0
 10
245.299
 20
46.6247
 11
245.072
 21
46.4853
  0
LINE
  8
0
 10
245.072
 20
46.4853
 11
244.825
 21
46.3832
  0
LINE
  8
0
 10
244.825
 20
46.3832
 11
244.566
 21
46.3209
  0
LINE
  8
0
 10
244.566
 20
46.3209
 11
244.3
 21
46.3
  0
LINE
  8
0
 10
244.3
 20
46.3
 11
244.034
 21
46.3209
  0
LINE
  8
0
 10
35
 20
9.5
 11
35
 21
47.5
  0
LINE
  8
0
 10
35
 20
47.5
 11
53
 21
47.5
  0
LINE
  8
0
 10
53
 20
47.5
 11
53
 21
9.5
  0
LINE
  8
0
 10
53
 20
9.5
 11
35
 21
9.5
  0
LINE
  8
0
 10
75
 20
9.5
 11
75
 21
47.5
  0
LINE
  8
0
 10
75
 20
47.5
 11
93
 21
47.5
  0
LINE
  8
0
 10
93
 20
47.5
 11
93
 21
9.5
  0
LINE
  8
0
 10
93
 20
9.5
 11
75
 21
9.5
  0
LINE
  8
0
 10
143
 20
9.5
 11
143
 21
47.5
  0
LINE
  8
0
 10
143
 20
47.5
 11
161
 21
47.5
  0
LINE
  8
0
 10
161
 20
47.5
 11
161
 21
9.5
  0
LINE
  8
0
 10
161
 20
9.5
 11
143
 21
9.5
  0
LINE
  8
0
 10
183
 20
9.5
 11
183
 21
47.5
  0
LINE
  8
0
 10
183
 20
47.5
 11
201
 21
47.5
  0
LINE
  8
0
 10
201
 20
47.5
 11
201
 21
9.5
  0
LINE
  8
0
 10
201
 20
9.5
 11
183
 21
9.5
  0
LINE
  8
0
 10
126.57
 20
35.7838
 11
126.15
 21
35.8846
  0
LINE
  8
0
 10
126.15
 20
35.8846
 11
125.752
 21
36.0497
  0
LINE
  8
0
 10
125.752
 20
36.0497
 11
125.384
 21
36.2752
  0
LINE
  8
0
 10
125.384
 20
36.2752
 11
125.055
 21
36.5555
  0
LINE
  8
0
 10
125.055
 20
36.5555
 11
124.775
 21
36.8836
  0
LINE
  8
0
 10
124.775
 20
36.8836
 11
124.55
 21
37.2515
  0
LINE
  8
0
 10
124.55
 20
37.2515
 11
124.385
 21
37.6502
  0
LINE
  8
0
 10
124.385
 20
37.6502
 11
124.284
 21
38.0698
  0
LINE
  8
0
 10
124.284
 20
38.0698
 11
124.25
 21
38.5
  0
LINE
  8
0
 10
124.25
 20
38.5
 11
124.284
 21
38.9302
  0
LINE
  8
0
 10
124.284
 20
38.9302
 11
124.385
 21
39.3498
  0
LINE
  8
0
 10
124.385
 20
39.3498
 11
124.55
 21
39.7485
  0
LINE
  8
0
 10
124.55
 20
39.7485
 11
124.775
 21
40.1164
  0
LINE
  8
0
 10
124.775
 20
40.1164
 11
125.055
 21
40.4445
  0
LINE
  8
0
 10
125.055
 20
40.4445
 11
125.384
 21
40.7248
  0
LINE
  8
0
 10
125.384
 20
40.7248
 11
125.752
 21
40.9503
  0
LINE
  8
0
 10
125.752
 20
40.9503
 11
126.15
 21
41.1154
  0
LINE
  8
0
 10
126.15
 20
41.1154
 11
126.57
 21
41.2161
  0
LINE
  8
0
 10
126.57
 20
41.2161
 11
127
 21
41.25
  0
LINE
  8
0
 10
127
 20
41.25
 11
127.43
 21
41.2161
  0
LINE
  8
0
 10
127.43
 20
41.2161
 11
127.85
 21
41.1154
  0
LINE
  8
0
 10
127.85
 20
41.1154
 11
128.248
 21
40.9503
  0
LINE
  8
0
 10
128.248
 20
40.9503
 11
128.616
 21
40.7248
  0
LINE
  8
0
 10
128.616
 20
40.7248
 11
128.945
 21
40.4445
  0
LINE
  8
0
 10
128.945
 20
40.4445
 11
129.225
 21
40.1164
  0
LINE
  8
0
 10
129.225
 20
40.1164
 11
129.45
 21
39.7485
  0
LINE
  8
0
 10
129.45
 20
39.7485
 11
129.615
 21
39.3498
  0
LINE
  8
0
 10
129.615
 20
39.3498
 11
129.716
 21
38.9302
  0
LINE
  8
0
 10
129.716
 20
38.9302
 11
129.75
 21
38.5
  0
LINE
  8
0
 10
129.75
 20
38.5
 11
129.716
 21
38.0698
  0
LINE
  8
0
 10
129.716
 20
38.0698
 11
129.615
 21
37.6502
  0
LINE
  8
0
 10
129.615
 20
37.6502
 11
129.45
 21
37.2515
  0
LINE
  8
0
 10
129.45
 20
37.2515
 11
129.225
 21
36.8836
  0
LINE
  8
0
 10
129.225
 20
36.8836
 11
128.945
 21
36.5555
  0
LINE
  8
0
 10
128.945
 20
36.5555
 11
128.616
 21
36.2752
  0
LINE
  8
0
 10
128.616
 20
36.2752
 11
128.248
 21
36.0497
  0
LINE
  8
0
 10
128.248
 20
36.0497
 11
127.85
 21
35.8846
  0
LINE
  8
0
 10
127.85
 20
35.8846
 11
127.43
 21
35.7838
  0
LINE
  8
0
 10
127.43
 20
35.7838
 11
127
 21
35.75
  0
LINE
  8
0
 10
127
 20
35.75
 11
126.57
 21
35.7838
  0
LINE
  8
0
 10
126.57
 20
15.7838
 11
126.15
 21
15.8846
  0
LINE
  8
0
 10
126.15
 20
15.8846
 11
125.752
 21
16.0497
  0
LINE
  8
0
 10
125.752
 20
16.0497
 11
125.384
 21
16.2752
  0
LINE
  8
0
 10
125.384
 20
16.2752
 11
125.055
 21
16.5555
  0
LINE
  8
0
 10
125.055
 20
16.5555
 11
124.775
 21
16.8836
  0
LINE
  8
0
 10
124.775
 20
16.8836
 11
124.55
 21
17.2515
  0
LINE
  8
0
 10
124.55
 20
17.2515
 11
124.385
 21
17.6502
  0
LINE
  8
0
 10
124.385
 20
17.6502
 11
124.284
 21
18.0698
  0
LINE
  8
0
 10
124.284
 20
18.0698
 11
124.25
 21
18.5
  0
LINE
  8
0
 10
124.25
 20
18.5
 11
124.284
 21
18.9302
  0
LINE
  8
0
 10
124.284
 20
18.9302
 11
124.385
 21
19.3498
  0
LINE
  8
0
 10
124.385
 20
19.3498
 11
124.55
 21
19.7485
  0
LINE
  8
0
 10
124.55
 20
19.7485
 11
124.775
 21
20.1164
  0
LINE
  8
0
 10
124.775
 20
20.1164
 11
125.055
 21
20.4445
  0
LINE
  8
0
 10
125.055
 20
20.4445
 11
125.384
 21
20.7248
  0
LINE
  8
0
 10
125.384
 20
20.7248
 11
125.752
 21
20.9503
  0
LINE
  8
0
 10
125.752
 20
20.9503
 11
126.15
 21
21.1154
  0
LINE
  8
0
 10
126.15
 20
21.1154
 11
126.57
 21
21.2161
  0
LINE
  8
0
 10
126.57
 20
21.2161
 11
127
 21
21.25
  0
LINE
  8
0
 10
127
 20
21.25
 11
127.43
 21
21.2161
  0
LINE
  8
0
 10
127.43
 20
21.2161
 11
127.85
 21
21.1154
  0
LINE
  8
0
 10
127.85
 20
21.1154
 11
128.248
 21
20.9503
  0
LINE
  8
0
 10
128.248
 20
20.9503
 11
128.616
 21
20.7248
  0
LINE
  8
0
 10
128.616
 20
20.7248
 11
128.945
 21
20.4445
  0
LINE
  8
0
 10
128.945
 20
20.4445
 11
129.225
 21
20.1164
  0
LINE
  8
0
 10
129.225
 20
20.1164
 11
129.45
 21
19.7485
  0
LINE
  8
0
 10
129.45
 20
19.7485
 11
129.615
 21
19.3498
  0
LINE
  8
0
 10
129.615
 20
19.3498
 11
129.716
 21
18.9302
  0
LINE
  8
0
 10
129.716
 20
18.9302
 11
129.75
 21
18.5
  0
LINE
  8
0
 10
129.75
 20
18.5
 11
129.716
 21
18.0698
  0
LINE
  8
0
 10
129.716
 20
18.0698
 11
129.615
 21
17.6502
  0
LINE
  8
0
 10
129.615
 20
17.6502
 11
129.45
 21
17.2515
  0
LINE
  8
0
 10
129.45
 20
17.2515
 11
129.225
 21
16.8836
  0
LINE
  8
0
 10
129.225
 20
16.8836
 11
128.945
 21
16.5555
  0
LINE
  8
0
 10
128.945
 20
16.5555
 11
128.616
 21
16.2752
  0
LINE
  8
0
 10
128.616
 20
16.2752
 11
128.248
 21
16.0497
  0
LINE
  8
0
 10
128.248
 20
16.0497
 11
127.85
 21
15.8846
  0
LINE
  8
0
 10
127.85
 20
15.8846
 11
127.43
 21
15.7838
  0
LINE
  8
0
 10
127.43
 20
15.7838
 11
127
 21
15.75
  0
LINE
  8
0
 10
127
 20
15.75
 11
126.57
 21
15.7838
  0
LINE
  8
0
 10
16.2341
 20
7.32092
 11
15.9747
 21
7.38319
  0
LINE
  8
0
 10
15.9747
 20
7.38319
 11
15.7282
 21
7.48528
  0
LINE
  8
0
 10
15.7282
 20
7.48528
 11
15.5008
 21
7.62466
  0
LINE
  8
0
 10
15.5008
 20
7.62466
 11
15.2979
 21
7.79791
  0
LINE
  8
0
 10
15.2979
 20
7.79791
 11
15.1247
 21
8.00076
  0
LINE
  8
0
 10
15.1247
 20
8.00076
 11
14.9853
 21
8.22821
  0
LINE
  8
0
 10
14.9853
 20
8.22821
 11
14.8832
 21
8.47467
  0
LINE
  8
0
 10
14.8832
 20
8.47467
 11
14.8209
 21
8.73405
  0
LINE
  8
0
 10
14.8209
 20
8.73405
 11
14.8
 21
9
  0
LINE
  8
0
 10
14.8
 20
9
 11
14.8209
 21
9.26593
  0
LINE
  8
0
 10
14.8209
 20
9.26593
 11
14.8832
 21
9.52531
  0
LINE
  8
0
 10
14.8832
 20
9.52531
 11
14.9853
 21
9.77177
  0
LINE
  8
0
 10
14.9853
 20
9.77177
 11
15.1247
 21
9.99922
  0
LINE
  8
0
 10
15.1247
 20
9.99922
 11
15.2979
 21
10.2021
  0
LINE
  8
0
 10
15.2979
 20
10.2021
 11
15.5008
 21
10.3753
  0
LINE
  8
0
 10
15.5008
 20
10.3753
 11
15.7282
 21
10.5147
  0
LINE
  8
0
 10
15.7282
 20
10.5147
 11
15.9747
 21
10.6168
  0
LINE
  8
0
 10
15.9747
 20
10.6168
 11
16.2341
 21
10.6791
  0
LINE
  8
0
 10
16.2341
 20
10.6791
 11
16.5
 21
10.7
  0
LINE
  8
0
 10
16.5
 20
10.7
 11
16.7659
 21
10.6791
  0
LINE
  8
0
 10
16.7659
 20
10.6791
 11
17.0253
 21
10.6168
  0
LINE
  8
0
 10
17.0253
 20
10.6168
 11
17.2718
 21
10.5147
  0
LINE
  8
0
 10
17.2718
 20
10.5147
 11
17.4992
 21
10.3753
  0
LINE
  8
0
 10
17.4992
 20
10.3753
 11
17.7021
 21
10.2021
  0
LINE
  8
0
 10
17.7021
 20
10.2021
 11
17.8753
 21
9.99922
  0
LINE
  8
0
 10
17.8753
 20
9.99922
 11
18.0147
 21
9.77177
  0
LINE
  8
0
 10
18.0147
 20
9.77177
 11
18.1168
 21
9.52531
  0
LINE
  8
0
 10
18.1168
 20
9.52531
 11
18.1791
 21
9.26593
  0
LINE
  8
0
 10
18.1791
 20
9.26593
 11
18.2
 21
9
  0
LINE
  8
0
 10
18.2
 20
9
 11
18.1791
 21
8.73405
  0
LINE
  8
0
 10
18.1791
 20
8.73405
 11
18.1168
 21
8.47467
  0
LINE
  8
0
 10
18.1168
 20
8.47467
 11
18.0147
 21
8.22821
  0
LINE
  8
0
 10
18.0147
 20
8.22821
 11
17.8753
 21
8.00076
  0
LINE
  8
0
 10
17.8753
 20
8.00076
 11
17.7021
 21
7.79791
  0
LINE
  8
0
 10
17.7021
 20
7.79791
 11
17.4992
 21
7.62466
  0
LINE
  8
0
 10
17.4992
 20
7.62466
 11
17.2718
 21
7.48528
  0
LINE
  8
0
 10
17.2718
 20
7.48528
 11
17.0253
 21
7.38319
  0
LINE
  8
0
 10
17.0253
 20
7.38319
 11
16.7659
 21
7.32092
  0
LINE
  8
0
 10
16.7659
 20
7.32092
 11
16.5
 21
7.29999
  0
LINE
  8
0
 10
16.5
 20
7.29999
 11
16.2341
 21
7.32092
  0
LINE
  8
0
 10
126.734
 20
7.32092
 11
126.475
 21
7.38319
  0
LINE
  8
0
 10
126.475
 20
7.38319
 11
126.228
 21
7.48528
  0
LINE
  8
0
 10
126.228
 20
7.48528
 11
126.001
 21
7.62466
  0
LINE
  8
0
 10
126.001
 20
7.62466
 11
125.798
 21
7.79791
  0
LINE
  8
0
 10
125.798
 20
7.79791
 11
125.625
 21
8.00076
  0
LINE
  8
0
 10
125.625
 20
8.00076
 11
125.485
 21
8.22821
  0
LINE
  8
0
 10
125.485
 20
8.22821
 11
125.383
 21
8.47467
  0
LINE
  8
0
 10
125.383
 20
8.47467
 11
125.321
 21
8.73405
  0
LINE
  8
0
 10
125.321
 20
8.73405
 11
125.3
 21
9
  0
LINE
  8
0
 10
125.3
 20
9
 11
125.321
 21
9.26593
  0
LINE
  8
0
 10
125.321
 20
9.26593
 11
125.383
 21
9.52531
  0
LINE
  8
0
 10
125.383
 20
9.52531
 11
125.485
 21
9.77177
  0
LINE
  8
0
 10
125.485
 20
9.77177
 11
125.625
 21
9.99922
  0
LINE
  8
0
 10
125.625
 20
9.99922
 11
125.798
 21
10.2021
  0
LINE
  8
0
 10
125.798
 20
10.2021
 11
126.001
 21
10.3753
  0
LINE
  8
0
 10
126.001
 20
10.3753
 11
126.228
 21
10.5147
  0
LINE
  8
0
 10
126.228
 20
10.5147
 11
126.475
 21
10.6168
  0
LINE
  8
0
 10
126.475
 20
10.6168
 11
126.734
 21
10.6791
  0
LINE
  8
0
 10
126.734
 20
10.6791
 11
127
 21
10.7
  0
LINE
  8
0
 10
127
 20
10.7
 11
127.266
 21
10.6791
  0
LINE
  8
0
 10
127.266
 20
10.6791
 11
127.525
 21
10.6168
  0
LINE
  8
0
 10
127.525
 20
10.6168
 11
127.772
 21
10.5147
  0
LINE
  8
0
 10
127.772
 20
10.5147
 11
127.999
 21
10.3753
  0
LINE
  8
0
 10
127.999
 20
10.3753
 11
128.202
 21
10.2021
  0
LINE
  8
0
 10
128.202
 20
10.2021
 11
128.375
 21
9.99922
  0
LINE
  8
0
 10
128.375
 20
9.99922
 11
128.515
 21
9.77177
  0
LINE
  8
0
 10
128.515
 20
9.77177
 11
128.617
 21
9.52531
  0
LINE
  8
0
 10
128.617
 20
9.52531
 11
128.679
 21
9.26593
  0
LINE
  8
0
 10
128.679
 20
9.26593
 11
128.7
 21
9
  0
LINE
  8
0
 10
128.7
 20
9
 11
128.679
 21
8.73405
  0
LINE
  8
0
 10
128.679
 20
8.73405
 11
128.617
 21
8.47467
  0
LINE
  8
0
 10
128.617
 20
8.47467
 11
128.515
 21
8.22821
  0
LINE
  8
0
 10
128.515
 20
8.22821
 11
128.375
 21
8.00076
  0
LINE
  8
0
 10
128.375
 20
8.00076
 11
128.202
 21
7.79791
  0
LINE
  8
0
 10
128.202
 20
7.79791
 11
127.999
 21
7.62466
  0
LINE
  8
0
 10
127.999
 20
7.62466
 11
127.772
 21
7.48528
  0
LINE
  8
0
 10
127.772
 20
7.48528
 11
127.525
 21
7.38319
  0
LINE
  8
0
 10
127.525
 20
7.38319
 11
127.266
 21
7.32092
  0
LINE
  8
0
 10
127.266
 20
7.32092
 11
127
 21
7.29999
  0
LINE
  8
0
 10
127
 20
7.29999
 11
126.734
 21
7.32092
  0
LINE
  8
0
 10
244.034
 20
7.32092
 11
243.775
 21
7.38319
  0
LINE
  8
0
 10
243.775
 20
7.38319
 11
243.528
 21
7.48528
  0
LINE
  8
0
 10
243.528
 20
7.48528
 11
243.301
 21
7.62466
  0
LINE
  8
0
 10
243.301
 20
7.62466
 11
243.098
 21
7.79791
  0
LINE
  8
0
 10
243.098
 20
7.79791
 11
242.925
 21
8.00076
  0
LINE
  8
0
 10
242.925
 20
8.00076
 11
242.785
 21
8.22821
  0
LINE
  8
0
 10
242.785
 20
8.22821
 11
242.683
 21
8.47467
  0
LINE
  8
0
 10
242.683
 20
8.47467
 11
242.621
 21
8.73405
  0
LINE
  8
0
 10
242.621
 20
8.73405
 11
242.6
 21
9
  0
LINE
  8
0
 10
242.6
 20
9
 11
242.621
 21
9.26593
  0
LINE
  8
0
 10
242.621
 20
9.26593
 11
242.683
 21
9.52531
  0
LINE
  8
0
 10
242.683
 20
9.52531
 11
242.785
 21
9.77177
  0
LINE
  8
0
 10
242.785
 20
9.77177
 11
242.925
 21
9.99922
  0
LINE
  8
0
 10
242.925
 20
9.99922
 11
243.098
 21
10.2021
  0
LINE
  8
0
 10
243.098
 20
10.2021
 11
243.301
 21
10.3753
  0
LINE
  8
0
 10
243.301
 20
10.3753
 11
243.528
 21
10.5147
  0
LINE
  8
0
 10
243.528
 20
10.5147
 11
243.775
 21
10.6168
  0
LINE
  8
0
 10
243.775
 20
10.6168
 11
244.034
 21
10.6791
  0
LINE
  8
0
 10
244.034
 20
10.6791
 11
244.3
 21
10.7
  0
LINE
  8
0
 10
244.3
 20
10.7
 11
244.566
 21
10.6791
  0
LINE
  8
0
 10
244.566
 20
10.6791
 11
244.825
 21
10.6168
  0
LINE
  8
0
 10
244.825
 20
10.6168
 11
245.072
 21
10.5147
  0
LINE
  8
0
 10
245.072
 20
10.5147
 11
245.299
 21
10.3753
  0
LINE
  8
0
 10
245.299
 20
10.3753
 11
245.502
 21
10.2021
  0
LINE
  8
0
 10
245.502
 20
10.2021
 11
245.675
 21
9.99922
  0
LINE
  8
0
 10
245.675
 20
9.99922
 11
245.815
 21
9.77177
  0
LINE
  8
0
 10
245.815
 20
9.77177
 11
245.917
 21
9.52531
  0
LINE
  8
0
 10
245.917
 20
9.52531
 11
245.979
 21
9.26593
  0
LINE
  8
0
 10
245.979
 20
9.26593
 11
246
 21
9
  0
LINE
  8
0
 10
246
 20
9
 11
245.979
 21
8.73405
  0
LINE
  8
0
 10
245.979
 20
8.73405
 11
245.917
 21
8.47467
  0
LINE
  8
0
 10
245.917
 20
8.47467
 11
245.815
 21
8.22821
  0
LINE
  8
0
 10
245.815
 20
8.22821
 11
245.675
 21
8.00076
  0
LINE
  8
0
 10
245.675
 20
8.00076
 11
245.502
 21
7.79791
  0
LINE
  8
0
 10
245.502
 20
7.79791
 11
245.299
 21
7.62466
  0
LINE
  8
0
 10
245.299
 20
7.62466
 11
245.072
 21
7.48528
  0
LINE
  8
0
 10
245.072
 20
7.48528
 11
244.825
 21
7.38319
  0
LINE
  8
0
 10
244.825
 20
7.38319
 11
244.566
 21
7.32092
  0
LINE
  8
0
 10
244.566
 20
7.32092
 11
244.3
 21
7.29999
  0
LINE
  8
0
 10
244.3
 20
7.29999
 11
244.034
 21
7.32092
  0
ENDSEC
  0
SECTION
  2
OBJECTS
  0
DICTIONARY
  0
ENDSEC
  0
EOF
