  0
SECTION
  2
BLOCKS
  0
ENDSEC
  0
SECTION
  2
ENTITIES
  0
LINE
  8
0
 10
315.6
 20
57
 11
0
 21
57
  0
LINE
  8
0
 10
0
 20
57
 11
0
 21
0
  0
LINE
  8
0
 10
0
 20
0
 11
315.6
 21
0
  0
LINE
  8
0
 10
315.6
 20
0
 11
315.6
 21
57
  0
LINE
  8
0
 10
17.2341
 20
46.3209
 11
16.9747
 21
46.3832
  0
LINE
  8
0
 10
16.9747
 20
46.3832
 11
16.7282
 21
46.4853
  0
LINE
  8
0
 10
16.7282
 20
46.4853
 11
16.5008
 21
46.6247
  0
LINE
  8
0
 10
16.5008
 20
46.6247
 11
16.2979
 21
46.7979
  0
LINE
  8
0
 10
16.2979
 20
46.7979
 11
16.1247
 21
47.0008
  0
LINE
  8
0
 10
16.1247
 20
47.0008
 11
15.9853
 21
47.2282
  0
LINE
  8
0
 10
15.9853
 20
47.2282
 11
15.8832
 21
47.4747
  0
LINE
  8
0
 10
15.8832
 20
47.4747
 11
15.8209
 21
47.7341
  0
LINE
  8
0
 10
15.8209
 20
47.7341
 11
15.8
 21
48
  0
LINE
  8
0
 10
15.8
 20
48
 11
15.8209
 21
48.2659
  0
LINE
  8
0
 10
15.8209
 20
48.2659
 11
15.8832
 21
48.5253
  0
LINE
  8
0
 10
15.8832
 20
48.5253
 11
15.9853
 21
48.7718
  0
LINE
  8
0
 10
15.9853
 20
48.7718
 11
16.1247
 21
48.9992
  0
LINE
  8
0
 10
16.1247
 20
48.9992
 11
16.2979
 21
49.2021
  0
LINE
  8
0
 10
16.2979
 20
49.2021
 11
16.5008
 21
49.3753
  0
LINE
  8
0
 10
16.5008
 20
49.3753
 11
16.7282
 21
49.5147
  0
LINE
  8
0
 10
16.7282
 20
49.5147
 11
16.9747
 21
49.6168
  0
LINE
  8
0
 10
16.9747
 20
49.6168
 11
17.2341
 21
49.6791
  0
LINE
  8
0
 10
17.2341
 20
49.6791
 11
17.5
 21
49.7
  0
LINE
  8
0
 10
17.5
 20
49.7
 11
17.7659
 21
49.6791
  0
LINE
  8
0
 10
17.7659
 20
49.6791
 11
18.0253
 21
49.6168
  0
LINE
  8
0
 10
18.0253
 20
49.6168
 11
18.2718
 21
49.5147
  0
LINE
  8
0
 10
18.2718
 20
49.5147
 11
18.4992
 21
49.3753
  0
LINE
  8
0
 10
18.4992
 20
49.3753
 11
18.7021
 21
49.2021
  0
LINE
  8
0
 10
18.7021
 20
49.2021
 11
18.8753
 21
48.9992
  0
LINE
  8
0
 10
18.8753
 20
48.9992
 11
19.0147
 21
48.7718
  0
LINE
  8
0
 10
19.0147
 20
48.7718
 11
19.1168
 21
48.5253
  0
LINE
  8
0
 10
19.1168
 20
48.5253
 11
19.1791
 21
48.2659
  0
LINE
  8
0
 10
19.1791
 20
48.2659
 11
19.2
 21
48
  0
LINE
  8
0
 10
19.2
 20
48
 11
19.1791
 21
47.7341
  0
LINE
  8
0
 10
19.1791
 20
47.7341
 11
19.1168
 21
47.4747
  0
LINE
  8
0
 10
19.1168
 20
47.4747
 11
19.0147
 21
47.2282
  0
LINE
  8
0
 10
19.0147
 20
47.2282
 11
18.8753
 21
47.0008
  0
LINE
  8
0
 10
18.8753
 20
47.0008
 11
18.7021
 21
46.7979
  0
LINE
  8
0
 10
18.7021
 20
46.7979
 11
18.4992
 21
46.6247
  0
LINE
  8
0
 10
18.4992
 20
46.6247
 11
18.2718
 21
46.4853
  0
LINE
  8
0
 10
18.2718
 20
46.4853
 11
18.0253
 21
46.3832
  0
LINE
  8
0
 10
18.0253
 20
46.3832
 11
17.7659
 21
46.3209
  0
LINE
  8
0
 10
17.7659
 20
46.3209
 11
17.5
 21
46.3
  0
LINE
  8
0
 10
17.5
 20
46.3
 11
17.2341
 21
46.3209
  0
LINE
  8
0
 10
126.484
 20
46.3209
 11
126.225
 21
46.3832
  0
LINE
  8
0
 10
126.225
 20
46.3832
 11
125.978
 21
46.4853
  0
LINE
  8
0
 10
125.978
 20
46.4853
 11
125.751
 21
46.6247
  0
LINE
  8
0
 10
125.751
 20
46.6247
 11
125.548
 21
46.7979
  0
LINE
  8
0
 10
125.548
 20
46.7979
 11
125.375
 21
47.0008
  0
LINE
  8
0
 10
125.375
 20
47.0008
 11
125.235
 21
47.2282
  0
LINE
  8
0
 10
125.235
 20
47.2282
 11
125.133
 21
47.4747
  0
LINE
  8
0
 10
125.133
 20
47.4747
 11
125.071
 21
47.7341
  0
LINE
  8
0
 10
125.071
 20
47.7341
 11
125.05
 21
48
  0
LINE
  8
0
 10
125.05
 20
48
 11
125.071
 21
48.2659
  0
LINE
  8
0
 10
125.071
 20
48.2659
 11
125.133
 21
48.5253
  0
LINE
  8
0
 10
125.133
 20
48.5253
 11
125.235
 21
48.7718
  0
LINE
  8
0
 10
125.235
 20
48.7718
 11
125.375
 21
48.9992
  0
LINE
  8
0
 10
125.375
 20
48.9992
 11
125.548
 21
49.2021
  0
LINE
  8
0
 10
125.548
 20
49.2021
 11
125.751
 21
49.3753
  0
LINE
  8
0
 10
125.751
 20
49.3753
 11
125.978
 21
49.5147
  0
LINE
  8
0
 10
125.978
 20
49.5147
 11
126.225
 21
49.6168
  0
LINE
  8
0
 10
126.225
 20
49.6168
 11
126.484
 21
49.6791
  0
LINE
  8
0
 10
126.484
 20
49.6791
 11
126.75
 21
49.7
  0
LINE
  8
0
 10
126.75
 20
49.7
 11
127.016
 21
49.6791
  0
LINE
  8
0
 10
127.016
 20
49.6791
 11
127.275
 21
49.6168
  0
LINE
  8
0
 10
127.275
 20
49.6168
 11
127.522
 21
49.5147
  0
LINE
  8
0
 10
127.522
 20
49.5147
 11
127.749
 21
49.3753
  0
LINE
  8
0
 10
127.749
 20
49.3753
 11
127.952
 21
49.2021
  0
LINE
  8
0
 10
127.952
 20
49.2021
 11
128.125
 21
48.9992
  0
LINE
  8
0
 10
128.125
 20
48.9992
 11
128.265
 21
48.7718
  0
LINE
  8
0
 10
128.265
 20
48.7718
 11
128.367
 21
48.5253
  0
LINE
  8
0
 10
128.367
 20
48.5253
 11
128.429
 21
48.2659
  0
LINE
  8
0
 10
128.429
 20
48.2659
 11
128.45
 21
48
  0
LINE
  8
0
 10
128.45
 20
48
 11
128.429
 21
47.7341
  0
LINE
  8
0
 10
128.429
 20
47.7341
 11
128.367
 21
47.4747
  0
LINE
  8
0
 10
128.367
 20
47.4747
 11
128.265
 21
47.2282
  0
LINE
  8
0
 10
128.265
 20
47.2282
 11
128.125
 21
47.0008
  0
LINE
  8
0
 10
128.125
 20
47.0008
 11
127.952
 21
46.7979
  0
LINE
  8
0
 10
127.952
 20
46.7979
 11
127.749
 21
46.6247
  0
LINE
  8
0
 10
127.749
 20
46.6247
 11
127.522
 21
46.4853
  0
LINE
  8
0
 10
127.522
 20
46.4853
 11
127.275
 21
46.3832
  0
LINE
  8
0
 10
127.275
 20
46.3832
 11
127.016
 21
46.3209
  0
LINE
  8
0
 10
127.016
 20
46.3209
 11
126.75
 21
46.3
  0
LINE
  8
0
 10
126.75
 20
46.3
 11
126.484
 21
46.3209
  0
LINE
  8
0
 10
246.034
 20
46.3209
 11
245.775
 21
46.3832
  0
LINE
  8
0
 10
245.775
 20
46.3832
 11
245.528
 21
46.4853
  0
LINE
  8
0
 10
245.528
 20
46.4853
 11
245.301
 21
46.6247
  0
LINE
  8
0
 10
245.301
 20
46.6247
 11
245.098
 21
46.7979
  0
LINE
  8
0
 10
245.098
 20
46.7979
 11
244.925
 21
47.0008
  0
LINE
  8
0
 10
244.925
 20
47.0008
 11
244.785
 21
47.2282
  0
LINE
  8
0
 10
244.785
 20
47.2282
 11
244.683
 21
47.4747
  0
LINE
  8
0
 10
244.683
 20
47.4747
 11
244.621
 21
47.7341
  0
LINE
  8
0
 10
244.621
 20
47.7341
 11
244.6
 21
48
  0
LINE
  8
0
 10
244.6
 20
48
 11
244.621
 21
48.2659
  0
LINE
  8
0
 10
244.621
 20
48.2659
 11
244.683
 21
48.5253
  0
LINE
  8
0
 10
244.683
 20
48.5253
 11
244.785
 21
48.7718
  0
LINE
  8
0
 10
244.785
 20
48.7718
 11
244.925
 21
48.9992
  0
LINE
  8
0
 10
244.925
 20
48.9992
 11
245.098
 21
49.2021
  0
LINE
  8
0
 10
245.098
 20
49.2021
 11
245.301
 21
49.3753
  0
LINE
  8
0
 10
245.301
 20
49.3753
 11
245.528
 21
49.5147
  0
LINE
  8
0
 10
245.528
 20
49.5147
 11
245.775
 21
49.6168
  0
LINE
  8
0
 10
245.775
 20
49.6168
 11
246.034
 21
49.6791
  0
LINE
  8
0
 10
246.034
 20
49.6791
 11
246.3
 21
49.7
  0
LINE
  8
0
 10
246.3
 20
49.7
 11
246.566
 21
49.6791
  0
LINE
  8
0
 10
246.566
 20
49.6791
 11
246.825
 21
49.6168
  0
LINE
  8
0
 10
246.825
 20
49.6168
 11
247.072
 21
49.5147
  0
LINE
  8
0
 10
247.072
 20
49.5147
 11
247.299
 21
49.3753
  0
LINE
  8
0
 10
247.299
 20
49.3753
 11
247.502
 21
49.2021
  0
LINE
  8
0
 10
247.502
 20
49.2021
 11
247.675
 21
48.9992
  0
LINE
  8
0
 10
247.675
 20
48.9992
 11
247.815
 21
48.7718
  0
LINE
  8
0
 10
247.815
 20
48.7718
 11
247.917
 21
48.5253
  0
LINE
  8
0
 10
247.917
 20
48.5253
 11
247.979
 21
48.2659
  0
LINE
  8
0
 10
247.979
 20
48.2659
 11
248
 21
48
  0
LINE
  8
0
 10
248
 20
48
 11
247.979
 21
47.7341
  0
LINE
  8
0
 10
247.979
 20
47.7341
 11
247.917
 21
47.4747
  0
LINE
  8
0
 10
247.917
 20
47.4747
 11
247.815
 21
47.2282
  0
LINE
  8
0
 10
247.815
 20
47.2282
 11
247.675
 21
47.0008
  0
LINE
  8
0
 10
247.675
 20
47.0008
 11
247.502
 21
46.7979
  0
LINE
  8
0
 10
247.502
 20
46.7979
 11
247.299
 21
46.6247
  0
LINE
  8
0
 10
247.299
 20
46.6247
 11
247.072
 21
46.4853
  0
LINE
  8
0
 10
247.072
 20
46.4853
 11
246.825
 21
46.3832
  0
LINE
  8
0
 10
246.825
 20
46.3832
 11
246.566
 21
46.3209
  0
LINE
  8
0
 10
246.566
 20
46.3209
 11
246.3
 21
46.3
  0
LINE
  8
0
 10
246.3
 20
46.3
 11
246.034
 21
46.3209
  0
LINE
  8
0
 10
37
 20
9.5
 11
37
 21
47.5
  0
LINE
  8
0
 10
37
 20
47.5
 11
55
 21
47.5
  0
LINE
  8
0
 10
55
 20
47.5
 11
55
 21
9.5
  0
LINE
  8
0
 10
55
 20
9.5
 11
37
 21
9.5
  0
LINE
  8
0
 10
77
 20
9.5
 11
77
 21
47.5
  0
LINE
  8
0
 10
77
 20
47.5
 11
95
 21
47.5
  0
LINE
  8
0
 10
95
 20
47.5
 11
95
 21
9.5
  0
LINE
  8
0
 10
95
 20
9.5
 11
77
 21
9.5
  0
LINE
  8
0
 10
145
 20
9.5
 11
145
 21
47.5
  0
LINE
  8
0
 10
145
 20
47.5
 11
163
 21
47.5
  0
LINE
  8
0
 10
163
 20
47.5
 11
163
 21
9.5
  0
LINE
  8
0
 10
163
 20
9.5
 11
145
 21
9.5
  0
LINE
  8
0
 10
128.57
 20
35.7838
 11
128.15
 21
35.8846
  0
LINE
  8
0
 10
128.15
 20
35.8846
 11
127.752
 21
36.0497
  0
LINE
  8
0
 10
127.752
 20
36.0497
 11
127.384
 21
36.2752
  0
LINE
  8
0
 10
127.384
 20
36.2752
 11
127.055
 21
36.5555
  0
LINE
  8
0
 10
127.055
 20
36.5555
 11
126.775
 21
36.8836
  0
LINE
  8
0
 10
126.775
 20
36.8836
 11
126.55
 21
37.2515
  0
LINE
  8
0
 10
126.55
 20
37.2515
 11
126.385
 21
37.6502
  0
LINE
  8
0
 10
126.385
 20
37.6502
 11
126.284
 21
38.0698
  0
LINE
  8
0
 10
126.284
 20
38.0698
 11
126.25
 21
38.5
  0
LINE
  8
0
 10
126.25
 20
38.5
 11
126.284
 21
38.9302
  0
LINE
  8
0
 10
126.284
 20
38.9302
 11
126.385
 21
39.3498
  0
LINE
  8
0
 10
126.385
 20
39.3498
 11
126.55
 21
39.7485
  0
LINE
  8
0
 10
126.55
 20
39.7485
 11
126.775
 21
40.1164
  0
LINE
  8
0
 10
126.775
 20
40.1164
 11
127.055
 21
40.4445
  0
LINE
  8
0
 10
127.055
 20
40.4445
 11
127.384
 21
40.7248
  0
LINE
  8
0
 10
127.384
 20
40.7248
 11
127.752
 21
40.9503
  0
LINE
  8
0
 10
127.752
 20
40.9503
 11
128.15
 21
41.1154
  0
LINE
  8
0
 10
128.15
 20
41.1154
 11
128.57
 21
41.2161
  0
LINE
  8
0
 10
128.57
 20
41.2161
 11
129
 21
41.25
  0
LINE
  8
0
 10
129
 20
41.25
 11
129.43
 21
41.2161
  0
LINE
  8
0
 10
129.43
 20
41.2161
 11
129.85
 21
41.1154
  0
LINE
  8
0
 10
129.85
 20
41.1154
 11
130.248
 21
40.9503
  0
LINE
  8
0
 10
130.248
 20
40.9503
 11
130.616
 21
40.7248
  0
LINE
  8
0
 10
130.616
 20
40.7248
 11
130.945
 21
40.4445
  0
LINE
  8
0
 10
130.945
 20
40.4445
 11
131.225
 21
40.1164
  0
LINE
  8
0
 10
131.225
 20
40.1164
 11
131.45
 21
39.7485
  0
LINE
  8
0
 10
131.45
 20
39.7485
 11
131.615
 21
39.3498
  0
LINE
  8
0
 10
131.615
 20
39.3498
 11
131.716
 21
38.9302
  0
LINE
  8
0
 10
131.716
 20
38.9302
 11
131.75
 21
38.5
  0
LINE
  8
0
 10
131.75
 20
38.5
 11
131.716
 21
38.0698
  0
LINE
  8
0
 10
131.716
 20
38.0698
 11
131.615
 21
37.6502
  0
LINE
  8
0
 10
131.615
 20
37.6502
 11
131.45
 21
37.2515
  0
LINE
  8
0
 10
131.45
 20
37.2515
 11
131.225
 21
36.8836
  0
LINE
  8
0
 10
131.225
 20
36.8836
 11
130.945
 21
36.5555
  0
LINE
  8
0
 10
130.945
 20
36.5555
 11
130.616
 21
36.2752
  0
LINE
  8
0
 10
130.616
 20
36.2752
 11
130.248
 21
36.0497
  0
LINE
  8
0
 10
130.248
 20
36.0497
 11
129.85
 21
35.8846
  0
LINE
  8
0
 10
129.85
 20
35.8846
 11
129.43
 21
35.7838
  0
LINE
  8
0
 10
129.43
 20
35.7838
 11
129
 21
35.75
  0
LINE
  8
0
 10
129
 20
35.75
 11
128.57
 21
35.7838
  0
LINE
  8
0
 10
185
 20
19.5
 11
185
 21
37.5
  0
LINE
  8
0
 10
185
 20
37.5
 11
203
 21
37.5
  0
LINE
  8
0
 10
203
 20
37.5
 11
203
 21
19.5
  0
LINE
  8
0
 10
203
 20
19.5
 11
185
 21
19.5
  0
LINE
  8
0
 10
128.57
 20
15.7838
 11
128.15
 21
15.8846
  0
LINE
  8
0
 10
128.15
 20
15.8846
 11
127.752
 21
16.0497
  0
LINE
  8
0
 10
127.752
 20
16.0497
 11
127.384
 21
16.2752
  0
LINE
  8
0
 10
127.384
 20
16.2752
 11
127.055
 21
16.5555
  0
LINE
  8
0
 10
127.055
 20
16.5555
 11
126.775
 21
16.8836
  0
LINE
  8
0
 10
126.775
 20
16.8836
 11
126.55
 21
17.2515
  0
LINE
  8
0
 10
126.55
 20
17.2515
 11
126.385
 21
17.6502
  0
LINE
  8
0
 10
126.385
 20
17.6502
 11
126.284
 21
18.0698
  0
LINE
  8
0
 10
126.284
 20
18.0698
 11
126.25
 21
18.5
  0
LINE
  8
0
 10
126.25
 20
18.5
 11
126.284
 21
18.9302
  0
LINE
  8
0
 10
126.284
 20
18.9302
 11
126.385
 21
19.3498
  0
LINE
  8
0
 10
126.385
 20
19.3498
 11
126.55
 21
19.7485
  0
LINE
  8
0
 10
126.55
 20
19.7485
 11
126.775
 21
20.1164
  0
LINE
  8
0
 10
126.775
 20
20.1164
 11
127.055
 21
20.4445
  0
LINE
  8
0
 10
127.055
 20
20.4445
 11
127.384
 21
20.7248
  0
LINE
  8
0
 10
127.384
 20
20.7248
 11
127.752
 21
20.9503
  0
LINE
  8
0
 10
127.752
 20
20.9503
 11
128.15
 21
21.1154
  0
LINE
  8
0
 10
128.15
 20
21.1154
 11
128.57
 21
21.2161
  0
LINE
  8
0
 10
128.57
 20
21.2161
 11
129
 21
21.25
  0
LINE
  8
0
 10
129
 20
21.25
 11
129.43
 21
21.2161
  0
LINE
  8
0
 10
129.43
 20
21.2161
 11
129.85
 21
21.1154
  0
LINE
  8
0
 10
129.85
 20
21.1154
 11
130.248
 21
20.9503
  0
LINE
  8
0
 10
130.248
 20
20.9503
 11
130.616
 21
20.7248
  0
LINE
  8
0
 10
130.616
 20
20.7248
 11
130.945
 21
20.4445
  0
LINE
  8
0
 10
130.945
 20
20.4445
 11
131.225
 21
20.1164
  0
LINE
  8
0
 10
131.225
 20
20.1164
 11
131.45
 21
19.7485
  0
LINE
  8
0
 10
131.45
 20
19.7485
 11
131.615
 21
19.3498
  0
LINE
  8
0
 10
131.615
 20
19.3498
 11
131.716
 21
18.9302
  0
LINE
  8
0
 10
131.716
 20
18.9302
 11
131.75
 21
18.5
  0
LINE
  8
0
 10
131.75
 20
18.5
 11
131.716
 21
18.0698
  0
LINE
  8
0
 10
131.716
 20
18.0698
 11
131.615
 21
17.6502
  0
LINE
  8
0
 10
131.615
 20
17.6502
 11
131.45
 21
17.2515
  0
LINE
  8
0
 10
131.45
 20
17.2515
 11
131.225
 21
16.8836
  0
LINE
  8
0
 10
131.225
 20
16.8836
 11
130.945
 21
16.5555
  0
LINE
  8
0
 10
130.945
 20
16.5555
 11
130.616
 21
16.2752
  0
LINE
  8
0
 10
130.616
 20
16.2752
 11
130.248
 21
16.0497
  0
LINE
  8
0
 10
130.248
 20
16.0497
 11
129.85
 21
15.8846
  0
LINE
  8
0
 10
129.85
 20
15.8846
 11
129.43
 21
15.7838
  0
LINE
  8
0
 10
129.43
 20
15.7838
 11
129
 21
15.75
  0
LINE
  8
0
 10
129
 20
15.75
 11
128.57
 21
15.7838
  0
LINE
  8
0
 10
17.2341
 20
7.32092
 11
16.9747
 21
7.38319
  0
LINE
  8
0
 10
16.9747
 20
7.38319
 11
16.7282
 21
7.48528
  0
LINE
  8
0
 10
16.7282
 20
7.48528
 11
16.5008
 21
7.62466
  0
LINE
  8
0
 10
16.5008
 20
7.62466
 11
16.2979
 21
7.79791
  0
LINE
  8
0
 10
16.2979
 20
7.79791
 11
16.1247
 21
8.00076
  0
LINE
  8
0
 10
16.1247
 20
8.00076
 11
15.9853
 21
8.22821
  0
LINE
  8
0
 10
15.9853
 20
8.22821
 11
15.8832
 21
8.47467
  0
LINE
  8
0
 10
15.8832
 20
8.47467
 11
15.8209
 21
8.73405
  0
LINE
  8
0
 10
15.8209
 20
8.73405
 11
15.8
 21
9
  0
LINE
  8
0
 10
15.8
 20
9
 11
15.8209
 21
9.26593
  0
LINE
  8
0
 10
15.8209
 20
9.26593
 11
15.8832
 21
9.52531
  0
LINE
  8
0
 10
15.8832
 20
9.52531
 11
15.9853
 21
9.77177
  0
LINE
  8
0
 10
15.9853
 20
9.77177
 11
16.1247
 21
9.99922
  0
LINE
  8
0
 10
16.1247
 20
9.99922
 11
16.2979
 21
10.2021
  0
LINE
  8
0
 10
16.2979
 20
10.2021
 11
16.5008
 21
10.3753
  0
LINE
  8
0
 10
16.5008
 20
10.3753
 11
16.7282
 21
10.5147
  0
LINE
  8
0
 10
16.7282
 20
10.5147
 11
16.9747
 21
10.6168
  0
LINE
  8
0
 10
16.9747
 20
10.6168
 11
17.2341
 21
10.6791
  0
LINE
  8
0
 10
17.2341
 20
10.6791
 11
17.5
 21
10.7
  0
LINE
  8
0
 10
17.5
 20
10.7
 11
17.7659
 21
10.6791
  0
LINE
  8
0
 10
17.7659
 20
10.6791
 11
18.0253
 21
10.6168
  0
LINE
  8
0
 10
18.0253
 20
10.6168
 11
18.2718
 21
10.5147
  0
LINE
  8
0
 10
18.2718
 20
10.5147
 11
18.4992
 21
10.3753
  0
LINE
  8
0
 10
18.4992
 20
10.3753
 11
18.7021
 21
10.2021
  0
LINE
  8
0
 10
18.7021
 20
10.2021
 11
18.8753
 21
9.99922
  0
LINE
  8
0
 10
18.8753
 20
9.99922
 11
19.0147
 21
9.77177
  0
LINE
  8
0
 10
19.0147
 20
9.77177
 11
19.1168
 21
9.52531
  0
LINE
  8
0
 10
19.1168
 20
9.52531
 11
19.1791
 21
9.26593
  0
LINE
  8
0
 10
19.1791
 20
9.26593
 11
19.2
 21
9
  0
LINE
  8
0
 10
19.2
 20
9
 11
19.1791
 21
8.73405
  0
LINE
  8
0
 10
19.1791
 20
8.73405
 11
19.1168
 21
8.47467
  0
LINE
  8
0
 10
19.1168
 20
8.47467
 11
19.0147
 21
8.22821
  0
LINE
  8
0
 10
19.0147
 20
8.22821
 11
18.8753
 21
8.00076
  0
LINE
  8
0
 10
18.8753
 20
8.00076
 11
18.7021
 21
7.79791
  0
LINE
  8
0
 10
18.7021
 20
7.79791
 11
18.4992
 21
7.62466
  0
LINE
  8
0
 10
18.4992
 20
7.62466
 11
18.2718
 21
7.48528
  0
LINE
  8
0
 10
18.2718
 20
7.48528
 11
18.0253
 21
7.38319
  0
LINE
  8
0
 10
18.0253
 20
7.38319
 11
17.7659
 21
7.32092
  0
LINE
  8
0
 10
17.7659
 20
7.32092
 11
17.5
 21
7.29999
  0
LINE
  8
0
 10
17.5
 20
7.29999
 11
17.2341
 21
7.32092
  0
LINE
  8
0
 10
126.484
 20
7.32092
 11
126.225
 21
7.38319
  0
LINE
  8
0
 10
126.225
 20
7.38319
 11
125.978
 21
7.48528
  0
LINE
  8
0
 10
125.978
 20
7.48528
 11
125.751
 21
7.62466
  0
LINE
  8
0
 10
125.751
 20
7.62466
 11
125.548
 21
7.79791
  0
LINE
  8
0
 10
125.548
 20
7.79791
 11
125.375
 21
8.00076
  0
LINE
  8
0
 10
125.375
 20
8.00076
 11
125.235
 21
8.22821
  0
LINE
  8
0
 10
125.235
 20
8.22821
 11
125.133
 21
8.47467
  0
LINE
  8
0
 10
125.133
 20
8.47467
 11
125.071
 21
8.73405
  0
LINE
  8
0
 10
125.071
 20
8.73405
 11
125.05
 21
9
  0
LINE
  8
0
 10
125.05
 20
9
 11
125.071
 21
9.26593
  0
LINE
  8
0
 10
125.071
 20
9.26593
 11
125.133
 21
9.52531
  0
LINE
  8
0
 10
125.133
 20
9.52531
 11
125.235
 21
9.77177
  0
LINE
  8
0
 10
125.235
 20
9.77177
 11
125.375
 21
9.99922
  0
LINE
  8
0
 10
125.375
 20
9.99922
 11
125.548
 21
10.2021
  0
LINE
  8
0
 10
125.548
 20
10.2021
 11
125.751
 21
10.3753
  0
LINE
  8
0
 10
125.751
 20
10.3753
 11
125.978
 21
10.5147
  0
LINE
  8
0
 10
125.978
 20
10.5147
 11
126.225
 21
10.6168
  0
LINE
  8
0
 10
126.225
 20
10.6168
 11
126.484
 21
10.6791
  0
LINE
  8
0
 10
126.484
 20
10.6791
 11
126.75
 21
10.7
  0
LINE
  8
0
 10
126.75
 20
10.7
 11
127.016
 21
10.6791
  0
LINE
  8
0
 10
127.016
 20
10.6791
 11
127.275
 21
10.6168
  0
LINE
  8
0
 10
127.275
 20
10.6168
 11
127.522
 21
10.5147
  0
LINE
  8
0
 10
127.522
 20
10.5147
 11
127.749
 21
10.3753
  0
LINE
  8
0
 10
127.749
 20
10.3753
 11
127.952
 21
10.2021
  0
LINE
  8
0
 10
127.952
 20
10.2021
 11
128.125
 21
9.99922
  0
LINE
  8
0
 10
128.125
 20
9.99922
 11
128.265
 21
9.77177
  0
LINE
  8
0
 10
128.265
 20
9.77177
 11
128.367
 21
9.52531
  0
LINE
  8
0
 10
128.367
 20
9.52531
 11
128.429
 21
9.26593
  0
LINE
  8
0
 10
128.429
 20
9.26593
 11
128.45
 21
9
  0
LINE
  8
0
 10
128.45
 20
9
 11
128.429
 21
8.73405
  0
LINE
  8
0
 10
128.429
 20
8.73405
 11
128.367
 21
8.47467
  0
LINE
  8
0
 10
128.367
 20
8.47467
 11
128.265
 21
8.22821
  0
LINE
  8
0
 10
128.265
 20
8.22821
 11
128.125
 21
8.00076
  0
LINE
  8
0
 10
128.125
 20
8.00076
 11
127.952
 21
7.79791
  0
LINE
  8
0
 10
127.952
 20
7.79791
 11
127.749
 21
7.62466
  0
LINE
  8
0
 10
127.749
 20
7.62466
 11
127.522
 21
7.48528
  0
LINE
  8
0
 10
127.522
 20
7.48528
 11
127.275
 21
7.38319
  0
LINE
  8
0
 10
127.275
 20
7.38319
 11
127.016
 21
7.32092
  0
LINE
  8
0
 10
127.016
 20
7.32092
 11
126.75
 21
7.29999
  0
LINE
  8
0
 10
126.75
 20
7.29999
 11
126.484
 21
7.32092
  0
LINE
  8
0
 10
246.034
 20
7.32092
 11
245.775
 21
7.38319
  0
LINE
  8
0
 10
245.775
 20
7.38319
 11
245.528
 21
7.48528
  0
LINE
  8
0
 10
245.528
 20
7.48528
 11
245.301
 21
7.62466
  0
LINE
  8
0
 10
245.301
 20
7.62466
 11
245.098
 21
7.79791
  0
LINE
  8
0
 10
245.098
 20
7.79791
 11
244.925
 21
8.00076
  0
LINE
  8
0
 10
244.925
 20
8.00076
 11
244.785
 21
8.22821
  0
LINE
  8
0
 10
244.785
 20
8.22821
 11
244.683
 21
8.47467
  0
LINE
  8
0
 10
244.683
 20
8.47467
 11
244.621
 21
8.73405
  0
LINE
  8
0
 10
244.621
 20
8.73405
 11
244.6
 21
9
  0
LINE
  8
0
 10
244.6
 20
9
 11
244.621
 21
9.26593
  0
LINE
  8
0
 10
244.621
 20
9.26593
 11
244.683
 21
9.52531
  0
LINE
  8
0
 10
244.683
 20
9.52531
 11
244.785
 21
9.77177
  0
LINE
  8
0
 10
244.785
 20
9.77177
 11
244.925
 21
9.99922
  0
LINE
  8
0
 10
244.925
 20
9.99922
 11
245.098
 21
10.2021
  0
LINE
  8
0
 10
245.098
 20
10.2021
 11
245.301
 21
10.3753
  0
LINE
  8
0
 10
245.301
 20
10.3753
 11
245.528
 21
10.5147
  0
LINE
  8
0
 10
245.528
 20
10.5147
 11
245.775
 21
10.6168
  0
LINE
  8
0
 10
245.775
 20
10.6168
 11
246.034
 21
10.6791
  0
LINE
  8
0
 10
246.034
 20
10.6791
 11
246.3
 21
10.7
  0
LINE
  8
0
 10
246.3
 20
10.7
 11
246.566
 21
10.6791
  0
LINE
  8
0
 10
246.566
 20
10.6791
 11
246.825
 21
10.6168
  0
LINE
  8
0
 10
246.825
 20
10.6168
 11
247.072
 21
10.5147
  0
LINE
  8
0
 10
247.072
 20
10.5147
 11
247.299
 21
10.3753
  0
LINE
  8
0
 10
247.299
 20
10.3753
 11
247.502
 21
10.2021
  0
LINE
  8
0
 10
247.502
 20
10.2021
 11
247.675
 21
9.99922
  0
LINE
  8
0
 10
247.675
 20
9.99922
 11
247.815
 21
9.77177
  0
LINE
  8
0
 10
247.815
 20
9.77177
 11
247.917
 21
9.52531
  0
LINE
  8
0
 10
247.917
 20
9.52531
 11
247.979
 21
9.26593
  0
LINE
  8
0
 10
247.979
 20
9.26593
 11
248
 21
9
  0
LINE
  8
0
 10
248
 20
9
 11
247.979
 21
8.73405
  0
LINE
  8
0
 10
247.979
 20
8.73405
 11
247.917
 21
8.47467
  0
LINE
  8
0
 10
247.917
 20
8.47467
 11
247.815
 21
8.22821
  0
LINE
  8
0
 10
247.815
 20
8.22821
 11
247.675
 21
8.00076
  0
LINE
  8
0
 10
247.675
 20
8.00076
 11
247.502
 21
7.79791
  0
LINE
  8
0
 10
247.502
 20
7.79791
 11
247.299
 21
7.62466
  0
LINE
  8
0
 10
247.299
 20
7.62466
 11
247.072
 21
7.48528
  0
LINE
  8
0
 10
247.072
 20
7.48528
 11
246.825
 21
7.38319
  0
LINE
  8
0
 10
246.825
 20
7.38319
 11
246.566
 21
7.32092
  0
LINE
  8
0
 10
246.566
 20
7.32092
 11
246.3
 21
7.29999
  0
LINE
  8
0
 10
246.3
 20
7.29999
 11
246.034
 21
7.32092
  0
ENDSEC
  0
SECTION
  2
OBJECTS
  0
DICTIONARY
  0
ENDSEC
  0
EOF
