  0
SECTION
  2
BLOCKS
  0
ENDSEC
  0
SECTION
  2
ENTITIES
  0
LINE
  8
0
 10
34.4967
 20
42.7641
 11
34.9811
 21
42.8804
  0
LINE
  8
0
 10
34.9811
 20
42.8804
 11
35.4414
 21
43.071
  0
LINE
  8
0
 10
35.4414
 20
43.071
 11
35.8662
 21
43.3314
  0
LINE
  8
0
 10
35.8662
 20
43.3314
 11
36.2451
 21
43.6549
  0
LINE
  8
0
 10
36.2451
 20
43.6549
 11
36.5686
 21
44.0338
  0
LINE
  8
0
 10
36.5686
 20
44.0338
 11
36.8289
 21
44.4586
  0
LINE
  8
0
 10
36.8289
 20
44.4586
 11
37.0196
 21
44.9189
  0
LINE
  8
0
 10
37.0196
 20
44.9189
 11
37.1359
 21
45.4033
  0
LINE
  8
0
 10
37.1359
 20
45.4033
 11
37.175
 21
45.9
  0
LINE
  8
0
 10
37.175
 20
45.9
 11
37.1359
 21
46.3967
  0
LINE
  8
0
 10
37.1359
 20
46.3967
 11
37.0196
 21
46.8811
  0
LINE
  8
0
 10
37.0196
 20
46.8811
 11
36.8289
 21
47.3414
  0
LINE
  8
0
 10
36.8289
 20
47.3414
 11
36.5686
 21
47.7662
  0
LINE
  8
0
 10
36.5686
 20
47.7662
 11
36.2451
 21
48.1451
  0
LINE
  8
0
 10
36.2451
 20
48.1451
 11
35.8662
 21
48.4686
  0
LINE
  8
0
 10
35.8662
 20
48.4686
 11
35.4414
 21
48.7289
  0
LINE
  8
0
 10
35.4414
 20
48.7289
 11
34.9811
 21
48.9196
  0
LINE
  8
0
 10
34.9811
 20
48.9196
 11
34.4967
 21
49.0359
  0
LINE
  8
0
 10
34.4967
 20
49.0359
 11
34
 21
49.075
  0
LINE
  8
0
 10
34
 20
49.075
 11
33.5033
 21
49.0359
  0
LINE
  8
0
 10
33.5033
 20
49.0359
 11
33.0189
 21
48.9196
  0
LINE
  8
0
 10
33.0189
 20
48.9196
 11
32.5586
 21
48.7289
  0
LINE
  8
0
 10
32.5586
 20
48.7289
 11
32.1338
 21
48.4686
  0
LINE
  8
0
 10
32.1338
 20
48.4686
 11
31.7549
 21
48.1451
  0
LINE
  8
0
 10
31.7549
 20
48.1451
 11
31.4314
 21
47.7662
  0
LINE
  8
0
 10
31.4314
 20
47.7662
 11
31.1711
 21
47.3414
  0
LINE
  8
0
 10
31.1711
 20
47.3414
 11
30.9804
 21
46.8811
  0
LINE
  8
0
 10
30.9804
 20
46.8811
 11
30.8641
 21
46.3967
  0
LINE
  8
0
 10
30.8641
 20
46.3967
 11
30.825
 21
45.9
  0
LINE
  8
0
 10
30.825
 20
45.9
 11
30.8641
 21
45.4033
  0
LINE
  8
0
 10
30.8641
 20
45.4033
 11
30.9804
 21
44.9189
  0
LINE
  8
0
 10
30.9804
 20
44.9189
 11
31.1711
 21
44.4586
  0
LINE
  8
0
 10
31.1711
 20
44.4586
 11
31.4314
 21
44.0338
  0
LINE
  8
0
 10
31.4314
 20
44.0338
 11
31.7549
 21
43.6549
  0
LINE
  8
0
 10
31.7549
 20
43.6549
 11
32.1338
 21
43.3314
  0
LINE
  8
0
 10
32.1338
 20
43.3314
 11
32.5586
 21
43.071
  0
LINE
  8
0
 10
32.5586
 20
43.071
 11
33.0189
 21
42.8804
  0
LINE
  8
0
 10
33.0189
 20
42.8804
 11
33.5033
 21
42.7641
  0
LINE
  8
0
 10
33.5033
 20
42.7641
 11
34
 21
42.725
  0
LINE
  8
0
 10
34
 20
42.725
 11
34.4967
 21
42.7641
  0
LINE
  8
0
 10
116.197
 20
42.7641
 11
116.681
 21
42.8804
  0
LINE
  8
0
 10
116.681
 20
42.8804
 11
117.141
 21
43.071
  0
LINE
  8
0
 10
117.141
 20
43.071
 11
117.566
 21
43.3314
  0
LINE
  8
0
 10
117.566
 20
43.3314
 11
117.945
 21
43.6549
  0
LINE
  8
0
 10
117.945
 20
43.6549
 11
118.269
 21
44.0338
  0
LINE
  8
0
 10
118.269
 20
44.0338
 11
118.529
 21
44.4586
  0
LINE
  8
0
 10
118.529
 20
44.4586
 11
118.72
 21
44.9189
  0
LINE
  8
0
 10
118.72
 20
44.9189
 11
118.836
 21
45.4033
  0
LINE
  8
0
 10
118.836
 20
45.4033
 11
118.875
 21
45.9
  0
LINE
  8
0
 10
118.875
 20
45.9
 11
118.836
 21
46.3967
  0
LINE
  8
0
 10
118.836
 20
46.3967
 11
118.72
 21
46.8811
  0
LINE
  8
0
 10
118.72
 20
46.8811
 11
118.529
 21
47.3414
  0
LINE
  8
0
 10
118.529
 20
47.3414
 11
118.269
 21
47.7662
  0
LINE
  8
0
 10
118.269
 20
47.7662
 11
117.945
 21
48.1451
  0
LINE
  8
0
 10
117.945
 20
48.1451
 11
117.566
 21
48.4686
  0
LINE
  8
0
 10
117.566
 20
48.4686
 11
117.141
 21
48.7289
  0
LINE
  8
0
 10
117.141
 20
48.7289
 11
116.681
 21
48.9196
  0
LINE
  8
0
 10
116.681
 20
48.9196
 11
116.197
 21
49.0359
  0
LINE
  8
0
 10
116.197
 20
49.0359
 11
115.7
 21
49.075
  0
LINE
  8
0
 10
115.7
 20
49.075
 11
115.203
 21
49.0359
  0
LINE
  8
0
 10
115.203
 20
49.0359
 11
114.719
 21
48.9196
  0
LINE
  8
0
 10
114.719
 20
48.9196
 11
114.259
 21
48.7289
  0
LINE
  8
0
 10
114.259
 20
48.7289
 11
113.834
 21
48.4686
  0
LINE
  8
0
 10
113.834
 20
48.4686
 11
113.455
 21
48.1451
  0
LINE
  8
0
 10
113.455
 20
48.1451
 11
113.131
 21
47.7662
  0
LINE
  8
0
 10
113.131
 20
47.7662
 11
112.871
 21
47.3414
  0
LINE
  8
0
 10
112.871
 20
47.3414
 11
112.68
 21
46.8811
  0
LINE
  8
0
 10
112.68
 20
46.8811
 11
112.564
 21
46.3967
  0
LINE
  8
0
 10
112.564
 20
46.3967
 11
112.525
 21
45.9
  0
LINE
  8
0
 10
112.525
 20
45.9
 11
112.564
 21
45.4033
  0
LINE
  8
0
 10
112.564
 20
45.4033
 11
112.68
 21
44.9189
  0
LINE
  8
0
 10
112.68
 20
44.9189
 11
112.871
 21
44.4586
  0
LINE
  8
0
 10
112.871
 20
44.4586
 11
113.131
 21
44.0338
  0
LINE
  8
0
 10
113.131
 20
44.0338
 11
113.455
 21
43.6549
  0
LINE
  8
0
 10
113.455
 20
43.6549
 11
113.834
 21
43.3314
  0
LINE
  8
0
 10
113.834
 20
43.3314
 11
114.259
 21
43.071
  0
LINE
  8
0
 10
114.259
 20
43.071
 11
114.719
 21
42.8804
  0
LINE
  8
0
 10
114.719
 20
42.8804
 11
115.203
 21
42.7641
  0
LINE
  8
0
 10
115.203
 20
42.7641
 11
115.7
 21
42.725
  0
LINE
  8
0
 10
115.7
 20
42.725
 11
116.197
 21
42.7641
  0
LINE
  8
0
 10
142.497
 20
42.7641
 11
142.981
 21
42.8804
  0
LINE
  8
0
 10
142.981
 20
42.8804
 11
143.441
 21
43.071
  0
LINE
  8
0
 10
143.441
 20
43.071
 11
143.866
 21
43.3314
  0
LINE
  8
0
 10
143.866
 20
43.3314
 11
144.245
 21
43.6549
  0
LINE
  8
0
 10
144.245
 20
43.6549
 11
144.569
 21
44.0338
  0
LINE
  8
0
 10
144.569
 20
44.0338
 11
144.829
 21
44.4586
  0
LINE
  8
0
 10
144.829
 20
44.4586
 11
145.02
 21
44.9189
  0
LINE
  8
0
 10
145.02
 20
44.9189
 11
145.136
 21
45.4033
  0
LINE
  8
0
 10
145.136
 20
45.4033
 11
145.175
 21
45.9
  0
LINE
  8
0
 10
145.175
 20
45.9
 11
145.136
 21
46.3967
  0
LINE
  8
0
 10
145.136
 20
46.3967
 11
145.02
 21
46.8811
  0
LINE
  8
0
 10
145.02
 20
46.8811
 11
144.829
 21
47.3414
  0
LINE
  8
0
 10
144.829
 20
47.3414
 11
144.569
 21
47.7662
  0
LINE
  8
0
 10
144.569
 20
47.7662
 11
144.245
 21
48.1451
  0
LINE
  8
0
 10
144.245
 20
48.1451
 11
143.866
 21
48.4686
  0
LINE
  8
0
 10
143.866
 20
48.4686
 11
143.441
 21
48.7289
  0
LINE
  8
0
 10
143.441
 20
48.7289
 11
142.981
 21
48.9196
  0
LINE
  8
0
 10
142.981
 20
48.9196
 11
142.497
 21
49.0359
  0
LINE
  8
0
 10
142.497
 20
49.0359
 11
142
 21
49.075
  0
LINE
  8
0
 10
142
 20
49.075
 11
141.503
 21
49.0359
  0
LINE
  8
0
 10
141.503
 20
49.0359
 11
141.019
 21
48.9196
  0
LINE
  8
0
 10
141.019
 20
48.9196
 11
140.559
 21
48.7289
  0
LINE
  8
0
 10
140.559
 20
48.7289
 11
140.134
 21
48.4686
  0
LINE
  8
0
 10
140.134
 20
48.4686
 11
139.755
 21
48.1451
  0
LINE
  8
0
 10
139.755
 20
48.1451
 11
139.431
 21
47.7662
  0
LINE
  8
0
 10
139.431
 20
47.7662
 11
139.171
 21
47.3414
  0
LINE
  8
0
 10
139.171
 20
47.3414
 11
138.98
 21
46.8811
  0
LINE
  8
0
 10
138.98
 20
46.8811
 11
138.864
 21
46.3967
  0
LINE
  8
0
 10
138.864
 20
46.3967
 11
138.825
 21
45.9
  0
LINE
  8
0
 10
138.825
 20
45.9
 11
138.864
 21
45.4033
  0
LINE
  8
0
 10
138.864
 20
45.4033
 11
138.98
 21
44.9189
  0
LINE
  8
0
 10
138.98
 20
44.9189
 11
139.171
 21
44.4586
  0
LINE
  8
0
 10
139.171
 20
44.4586
 11
139.431
 21
44.0338
  0
LINE
  8
0
 10
139.431
 20
44.0338
 11
139.755
 21
43.6549
  0
LINE
  8
0
 10
139.755
 20
43.6549
 11
140.134
 21
43.3314
  0
LINE
  8
0
 10
140.134
 20
43.3314
 11
140.559
 21
43.071
  0
LINE
  8
0
 10
140.559
 20
43.071
 11
141.019
 21
42.8804
  0
LINE
  8
0
 10
141.019
 20
42.8804
 11
141.503
 21
42.7641
  0
LINE
  8
0
 10
141.503
 20
42.7641
 11
142
 21
42.725
  0
LINE
  8
0
 10
142
 20
42.725
 11
142.497
 21
42.7641
  0
LINE
  8
0
 10
242.197
 20
42.7641
 11
242.681
 21
42.8804
  0
LINE
  8
0
 10
242.681
 20
42.8804
 11
243.141
 21
43.071
  0
LINE
  8
0
 10
243.141
 20
43.071
 11
243.566
 21
43.3314
  0
LINE
  8
0
 10
243.566
 20
43.3314
 11
243.945
 21
43.6549
  0
LINE
  8
0
 10
243.945
 20
43.6549
 11
244.269
 21
44.0338
  0
LINE
  8
0
 10
244.269
 20
44.0338
 11
244.529
 21
44.4586
  0
LINE
  8
0
 10
244.529
 20
44.4586
 11
244.72
 21
44.9189
  0
LINE
  8
0
 10
244.72
 20
44.9189
 11
244.836
 21
45.4033
  0
LINE
  8
0
 10
244.836
 20
45.4033
 11
244.875
 21
45.9
  0
LINE
  8
0
 10
244.875
 20
45.9
 11
244.836
 21
46.3967
  0
LINE
  8
0
 10
244.836
 20
46.3967
 11
244.72
 21
46.8811
  0
LINE
  8
0
 10
244.72
 20
46.8811
 11
244.529
 21
47.3414
  0
LINE
  8
0
 10
244.529
 20
47.3414
 11
244.269
 21
47.7662
  0
LINE
  8
0
 10
244.269
 20
47.7662
 11
243.945
 21
48.1451
  0
LINE
  8
0
 10
243.945
 20
48.1451
 11
243.566
 21
48.4686
  0
LINE
  8
0
 10
243.566
 20
48.4686
 11
243.141
 21
48.7289
  0
LINE
  8
0
 10
243.141
 20
48.7289
 11
242.681
 21
48.9196
  0
LINE
  8
0
 10
242.681
 20
48.9196
 11
242.197
 21
49.0359
  0
LINE
  8
0
 10
242.197
 20
49.0359
 11
241.7
 21
49.075
  0
LINE
  8
0
 10
241.7
 20
49.075
 11
241.203
 21
49.0359
  0
LINE
  8
0
 10
241.203
 20
49.0359
 11
240.719
 21
48.9196
  0
LINE
  8
0
 10
240.719
 20
48.9196
 11
240.259
 21
48.7289
  0
LINE
  8
0
 10
240.259
 20
48.7289
 11
239.834
 21
48.4686
  0
LINE
  8
0
 10
239.834
 20
48.4686
 11
239.455
 21
48.1451
  0
LINE
  8
0
 10
239.455
 20
48.1451
 11
239.131
 21
47.7662
  0
LINE
  8
0
 10
239.131
 20
47.7662
 11
238.871
 21
47.3414
  0
LINE
  8
0
 10
238.871
 20
47.3414
 11
238.68
 21
46.8811
  0
LINE
  8
0
 10
238.68
 20
46.8811
 11
238.564
 21
46.3967
  0
LINE
  8
0
 10
238.564
 20
46.3967
 11
238.525
 21
45.9
  0
LINE
  8
0
 10
238.525
 20
45.9
 11
238.564
 21
45.4033
  0
LINE
  8
0
 10
238.564
 20
45.4033
 11
238.68
 21
44.9189
  0
LINE
  8
0
 10
238.68
 20
44.9189
 11
238.871
 21
44.4586
  0
LINE
  8
0
 10
238.871
 20
44.4586
 11
239.131
 21
44.0338
  0
LINE
  8
0
 10
239.131
 20
44.0338
 11
239.455
 21
43.6549
  0
LINE
  8
0
 10
239.455
 20
43.6549
 11
239.834
 21
43.3314
  0
LINE
  8
0
 10
239.834
 20
43.3314
 11
240.259
 21
43.071
  0
LINE
  8
0
 10
240.259
 20
43.071
 11
240.719
 21
42.8804
  0
LINE
  8
0
 10
240.719
 20
42.8804
 11
241.203
 21
42.7641
  0
LINE
  8
0
 10
241.203
 20
42.7641
 11
241.7
 21
42.725
  0
LINE
  8
0
 10
241.7
 20
42.725
 11
242.197
 21
42.7641
  0
LINE
  8
0
 10
34.4967
 20
7.96408
 11
34.9811
 21
8.08038
  0
LINE
  8
0
 10
34.9811
 20
8.08038
 11
35.4414
 21
8.27104
  0
LINE
  8
0
 10
35.4414
 20
8.27104
 11
35.8662
 21
8.53136
  0
LINE
  8
0
 10
35.8662
 20
8.53136
 11
36.2451
 21
8.85493
  0
LINE
  8
0
 10
36.2451
 20
8.85493
 11
36.5686
 21
9.23378
  0
LINE
  8
0
 10
36.5686
 20
9.23378
 11
36.8289
 21
9.65857
  0
LINE
  8
0
 10
36.8289
 20
9.65857
 11
37.0196
 21
10.1189
  0
LINE
  8
0
 10
37.0196
 20
10.1189
 11
37.1359
 21
10.6033
  0
LINE
  8
0
 10
37.1359
 20
10.6033
 11
37.175
 21
11.1
  0
LINE
  8
0
 10
37.175
 20
11.1
 11
37.1359
 21
11.5967
  0
LINE
  8
0
 10
37.1359
 20
11.5967
 11
37.0196
 21
12.0811
  0
LINE
  8
0
 10
37.0196
 20
12.0811
 11
36.8289
 21
12.5414
  0
LINE
  8
0
 10
36.8289
 20
12.5414
 11
36.5686
 21
12.9662
  0
LINE
  8
0
 10
36.5686
 20
12.9662
 11
36.2451
 21
13.3451
  0
LINE
  8
0
 10
36.2451
 20
13.3451
 11
35.8662
 21
13.6686
  0
LINE
  8
0
 10
35.8662
 20
13.6686
 11
35.4414
 21
13.9289
  0
LINE
  8
0
 10
35.4414
 20
13.9289
 11
34.9811
 21
14.1196
  0
LINE
  8
0
 10
34.9811
 20
14.1196
 11
34.4967
 21
14.2359
  0
LINE
  8
0
 10
34.4967
 20
14.2359
 11
34
 21
14.275
  0
LINE
  8
0
 10
34
 20
14.275
 11
33.5033
 21
14.2359
  0
LINE
  8
0
 10
33.5033
 20
14.2359
 11
33.0189
 21
14.1196
  0
LINE
  8
0
 10
33.0189
 20
14.1196
 11
32.5586
 21
13.9289
  0
LINE
  8
0
 10
32.5586
 20
13.9289
 11
32.1338
 21
13.6686
  0
LINE
  8
0
 10
32.1338
 20
13.6686
 11
31.7549
 21
13.3451
  0
LINE
  8
0
 10
31.7549
 20
13.3451
 11
31.4314
 21
12.9662
  0
LINE
  8
0
 10
31.4314
 20
12.9662
 11
31.1711
 21
12.5414
  0
LINE
  8
0
 10
31.1711
 20
12.5414
 11
30.9804
 21
12.0811
  0
LINE
  8
0
 10
30.9804
 20
12.0811
 11
30.8641
 21
11.5967
  0
LINE
  8
0
 10
30.8641
 20
11.5967
 11
30.825
 21
11.1
  0
LINE
  8
0
 10
30.825
 20
11.1
 11
30.8641
 21
10.6033
  0
LINE
  8
0
 10
30.8641
 20
10.6033
 11
30.9804
 21
10.1189
  0
LINE
  8
0
 10
30.9804
 20
10.1189
 11
31.1711
 21
9.65857
  0
LINE
  8
0
 10
31.1711
 20
9.65857
 11
31.4314
 21
9.23378
  0
LINE
  8
0
 10
31.4314
 20
9.23378
 11
31.7549
 21
8.85493
  0
LINE
  8
0
 10
31.7549
 20
8.85493
 11
32.1338
 21
8.53136
  0
LINE
  8
0
 10
32.1338
 20
8.53136
 11
32.5586
 21
8.27104
  0
LINE
  8
0
 10
32.5586
 20
8.27104
 11
33.0189
 21
8.08038
  0
LINE
  8
0
 10
33.0189
 20
8.08038
 11
33.5033
 21
7.96408
  0
LINE
  8
0
 10
33.5033
 20
7.96408
 11
34
 21
7.92499
  0
LINE
  8
0
 10
34
 20
7.92499
 11
34.4967
 21
7.96408
  0
LINE
  8
0
 10
116.197
 20
7.96408
 11
116.681
 21
8.08038
  0
LINE
  8
0
 10
116.681
 20
8.08038
 11
117.141
 21
8.27104
  0
LINE
  8
0
 10
117.141
 20
8.27104
 11
117.566
 21
8.53136
  0
LINE
  8
0
 10
117.566
 20
8.53136
 11
117.945
 21
8.85493
  0
LINE
  8
0
 10
117.945
 20
8.85493
 11
118.269
 21
9.23378
  0
LINE
  8
0
 10
118.269
 20
9.23378
 11
118.529
 21
9.65857
  0
LINE
  8
0
 10
118.529
 20
9.65857
 11
118.72
 21
10.1189
  0
LINE
  8
0
 10
118.72
 20
10.1189
 11
118.836
 21
10.6033
  0
LINE
  8
0
 10
118.836
 20
10.6033
 11
118.875
 21
11.1
  0
LINE
  8
0
 10
118.875
 20
11.1
 11
118.836
 21
11.5967
  0
LINE
  8
0
 10
118.836
 20
11.5967
 11
118.72
 21
12.0811
  0
LINE
  8
0
 10
118.72
 20
12.0811
 11
118.529
 21
12.5414
  0
LINE
  8
0
 10
118.529
 20
12.5414
 11
118.269
 21
12.9662
  0
LINE
  8
0
 10
118.269
 20
12.9662
 11
117.945
 21
13.3451
  0
LINE
  8
0
 10
117.945
 20
13.3451
 11
117.566
 21
13.6686
  0
LINE
  8
0
 10
117.566
 20
13.6686
 11
117.141
 21
13.9289
  0
LINE
  8
0
 10
117.141
 20
13.9289
 11
116.681
 21
14.1196
  0
LINE
  8
0
 10
116.681
 20
14.1196
 11
116.197
 21
14.2359
  0
LINE
  8
0
 10
116.197
 20
14.2359
 11
115.7
 21
14.275
  0
LINE
  8
0
 10
115.7
 20
14.275
 11
115.203
 21
14.2359
  0
LINE
  8
0
 10
115.203
 20
14.2359
 11
114.719
 21
14.1196
  0
LINE
  8
0
 10
114.719
 20
14.1196
 11
114.259
 21
13.9289
  0
LINE
  8
0
 10
114.259
 20
13.9289
 11
113.834
 21
13.6686
  0
LINE
  8
0
 10
113.834
 20
13.6686
 11
113.455
 21
13.3451
  0
LINE
  8
0
 10
113.455
 20
13.3451
 11
113.131
 21
12.9662
  0
LINE
  8
0
 10
113.131
 20
12.9662
 11
112.871
 21
12.5414
  0
LINE
  8
0
 10
112.871
 20
12.5414
 11
112.68
 21
12.0811
  0
LINE
  8
0
 10
112.68
 20
12.0811
 11
112.564
 21
11.5967
  0
LINE
  8
0
 10
112.564
 20
11.5967
 11
112.525
 21
11.1
  0
LINE
  8
0
 10
112.525
 20
11.1
 11
112.564
 21
10.6033
  0
LINE
  8
0
 10
112.564
 20
10.6033
 11
112.68
 21
10.1189
  0
LINE
  8
0
 10
112.68
 20
10.1189
 11
112.871
 21
9.65857
  0
LINE
  8
0
 10
112.871
 20
9.65857
 11
113.131
 21
9.23378
  0
LINE
  8
0
 10
113.131
 20
9.23378
 11
113.455
 21
8.85493
  0
LINE
  8
0
 10
113.455
 20
8.85493
 11
113.834
 21
8.53136
  0
LINE
  8
0
 10
113.834
 20
8.53136
 11
114.259
 21
8.27104
  0
LINE
  8
0
 10
114.259
 20
8.27104
 11
114.719
 21
8.08038
  0
LINE
  8
0
 10
114.719
 20
8.08038
 11
115.203
 21
7.96408
  0
LINE
  8
0
 10
115.203
 20
7.96408
 11
115.7
 21
7.92499
  0
LINE
  8
0
 10
115.7
 20
7.92499
 11
116.197
 21
7.96408
  0
LINE
  8
0
 10
142.497
 20
7.96408
 11
142.981
 21
8.08038
  0
LINE
  8
0
 10
142.981
 20
8.08038
 11
143.441
 21
8.27104
  0
LINE
  8
0
 10
143.441
 20
8.27104
 11
143.866
 21
8.53136
  0
LINE
  8
0
 10
143.866
 20
8.53136
 11
144.245
 21
8.85493
  0
LINE
  8
0
 10
144.245
 20
8.85493
 11
144.569
 21
9.23378
  0
LINE
  8
0
 10
144.569
 20
9.23378
 11
144.829
 21
9.65857
  0
LINE
  8
0
 10
144.829
 20
9.65857
 11
145.02
 21
10.1189
  0
LINE
  8
0
 10
145.02
 20
10.1189
 11
145.136
 21
10.6033
  0
LINE
  8
0
 10
145.136
 20
10.6033
 11
145.175
 21
11.1
  0
LINE
  8
0
 10
145.175
 20
11.1
 11
145.136
 21
11.5967
  0
LINE
  8
0
 10
145.136
 20
11.5967
 11
145.02
 21
12.0811
  0
LINE
  8
0
 10
145.02
 20
12.0811
 11
144.829
 21
12.5414
  0
LINE
  8
0
 10
144.829
 20
12.5414
 11
144.569
 21
12.9662
  0
LINE
  8
0
 10
144.569
 20
12.9662
 11
144.245
 21
13.3451
  0
LINE
  8
0
 10
144.245
 20
13.3451
 11
143.866
 21
13.6686
  0
LINE
  8
0
 10
143.866
 20
13.6686
 11
143.441
 21
13.9289
  0
LINE
  8
0
 10
143.441
 20
13.9289
 11
142.981
 21
14.1196
  0
LINE
  8
0
 10
142.981
 20
14.1196
 11
142.497
 21
14.2359
  0
LINE
  8
0
 10
142.497
 20
14.2359
 11
142
 21
14.275
  0
LINE
  8
0
 10
142
 20
14.275
 11
141.503
 21
14.2359
  0
LINE
  8
0
 10
141.503
 20
14.2359
 11
141.019
 21
14.1196
  0
LINE
  8
0
 10
141.019
 20
14.1196
 11
140.559
 21
13.9289
  0
LINE
  8
0
 10
140.559
 20
13.9289
 11
140.134
 21
13.6686
  0
LINE
  8
0
 10
140.134
 20
13.6686
 11
139.755
 21
13.3451
  0
LINE
  8
0
 10
139.755
 20
13.3451
 11
139.431
 21
12.9662
  0
LINE
  8
0
 10
139.431
 20
12.9662
 11
139.171
 21
12.5414
  0
LINE
  8
0
 10
139.171
 20
12.5414
 11
138.98
 21
12.0811
  0
LINE
  8
0
 10
138.98
 20
12.0811
 11
138.864
 21
11.5967
  0
LINE
  8
0
 10
138.864
 20
11.5967
 11
138.825
 21
11.1
  0
LINE
  8
0
 10
138.825
 20
11.1
 11
138.864
 21
10.6033
  0
LINE
  8
0
 10
138.864
 20
10.6033
 11
138.98
 21
10.1189
  0
LINE
  8
0
 10
138.98
 20
10.1189
 11
139.171
 21
9.65857
  0
LINE
  8
0
 10
139.171
 20
9.65857
 11
139.431
 21
9.23378
  0
LINE
  8
0
 10
139.431
 20
9.23378
 11
139.755
 21
8.85493
  0
LINE
  8
0
 10
139.755
 20
8.85493
 11
140.134
 21
8.53136
  0
LINE
  8
0
 10
140.134
 20
8.53136
 11
140.559
 21
8.27104
  0
LINE
  8
0
 10
140.559
 20
8.27104
 11
141.019
 21
8.08038
  0
LINE
  8
0
 10
141.019
 20
8.08038
 11
141.503
 21
7.96408
  0
LINE
  8
0
 10
141.503
 20
7.96408
 11
142
 21
7.92499
  0
LINE
  8
0
 10
142
 20
7.92499
 11
142.497
 21
7.96408
  0
LINE
  8
0
 10
242.197
 20
7.96408
 11
242.681
 21
8.08038
  0
LINE
  8
0
 10
242.681
 20
8.08038
 11
243.141
 21
8.27104
  0
LINE
  8
0
 10
243.141
 20
8.27104
 11
243.566
 21
8.53136
  0
LINE
  8
0
 10
243.566
 20
8.53136
 11
243.945
 21
8.85493
  0
LINE
  8
0
 10
243.945
 20
8.85493
 11
244.269
 21
9.23378
  0
LINE
  8
0
 10
244.269
 20
9.23378
 11
244.529
 21
9.65857
  0
LINE
  8
0
 10
244.529
 20
9.65857
 11
244.72
 21
10.1189
  0
LINE
  8
0
 10
244.72
 20
10.1189
 11
244.836
 21
10.6033
  0
LINE
  8
0
 10
244.836
 20
10.6033
 11
244.875
 21
11.1
  0
LINE
  8
0
 10
244.875
 20
11.1
 11
244.836
 21
11.5967
  0
LINE
  8
0
 10
244.836
 20
11.5967
 11
244.72
 21
12.0811
  0
LINE
  8
0
 10
244.72
 20
12.0811
 11
244.529
 21
12.5414
  0
LINE
  8
0
 10
244.529
 20
12.5414
 11
244.269
 21
12.9662
  0
LINE
  8
0
 10
244.269
 20
12.9662
 11
243.945
 21
13.3451
  0
LINE
  8
0
 10
243.945
 20
13.3451
 11
243.566
 21
13.6686
  0
LINE
  8
0
 10
243.566
 20
13.6686
 11
243.141
 21
13.9289
  0
LINE
  8
0
 10
243.141
 20
13.9289
 11
242.681
 21
14.1196
  0
LINE
  8
0
 10
242.681
 20
14.1196
 11
242.197
 21
14.2359
  0
LINE
  8
0
 10
242.197
 20
14.2359
 11
241.7
 21
14.275
  0
LINE
  8
0
 10
241.7
 20
14.275
 11
241.203
 21
14.2359
  0
LINE
  8
0
 10
241.203
 20
14.2359
 11
240.719
 21
14.1196
  0
LINE
  8
0
 10
240.719
 20
14.1196
 11
240.259
 21
13.9289
  0
LINE
  8
0
 10
240.259
 20
13.9289
 11
239.834
 21
13.6686
  0
LINE
  8
0
 10
239.834
 20
13.6686
 11
239.455
 21
13.3451
  0
LINE
  8
0
 10
239.455
 20
13.3451
 11
239.131
 21
12.9662
  0
LINE
  8
0
 10
239.131
 20
12.9662
 11
238.871
 21
12.5414
  0
LINE
  8
0
 10
238.871
 20
12.5414
 11
238.68
 21
12.0811
  0
LINE
  8
0
 10
238.68
 20
12.0811
 11
238.564
 21
11.5967
  0
LINE
  8
0
 10
238.564
 20
11.5967
 11
238.525
 21
11.1
  0
LINE
  8
0
 10
238.525
 20
11.1
 11
238.564
 21
10.6033
  0
LINE
  8
0
 10
238.564
 20
10.6033
 11
238.68
 21
10.1189
  0
LINE
  8
0
 10
238.68
 20
10.1189
 11
238.871
 21
9.65857
  0
LINE
  8
0
 10
238.871
 20
9.65857
 11
239.131
 21
9.23378
  0
LINE
  8
0
 10
239.131
 20
9.23378
 11
239.455
 21
8.85493
  0
LINE
  8
0
 10
239.455
 20
8.85493
 11
239.834
 21
8.53136
  0
LINE
  8
0
 10
239.834
 20
8.53136
 11
240.259
 21
8.27104
  0
LINE
  8
0
 10
240.259
 20
8.27104
 11
240.719
 21
8.08038
  0
LINE
  8
0
 10
240.719
 20
8.08038
 11
241.203
 21
7.96408
  0
LINE
  8
0
 10
241.203
 20
7.96408
 11
241.7
 21
7.92499
  0
LINE
  8
0
 10
241.7
 20
7.92499
 11
242.197
 21
7.96408
  0
ENDSEC
  0
SECTION
  2
OBJECTS
  0
DICTIONARY
  0
ENDSEC
  0
EOF
