  0
SECTION
  2
BLOCKS
  0
ENDSEC
  0
SECTION
  2
ENTITIES
  0
LINE
  8
0
 10
353.65
 20
57
 11
0
 21
57
  0
LINE
  8
0
 10
0
 20
57
 11
0
 21
0
  0
LINE
  8
0
 10
0
 20
0
 11
353.65
 21
0
  0
LINE
  8
0
 10
353.65
 20
0
 11
353.65
 21
57
  0
LINE
  8
0
 10
212.45
 20
31.25
 11
212.45
 21
49.75
  0
LINE
  8
0
 10
212.45
 20
49.75
 11
230.95
 21
49.75
  0
LINE
  8
0
 10
230.95
 20
49.75
 11
230.95
 21
31.25
  0
LINE
  8
0
 10
230.95
 20
31.25
 11
212.45
 21
31.25
  0
LINE
  8
0
 10
309.334
 20
46.3209
 11
309.075
 21
46.3832
  0
LINE
  8
0
 10
309.075
 20
46.3832
 11
308.828
 21
46.4853
  0
LINE
  8
0
 10
308.828
 20
46.4853
 11
308.601
 21
46.6247
  0
LINE
  8
0
 10
308.601
 20
46.6247
 11
308.398
 21
46.7979
  0
LINE
  8
0
 10
308.398
 20
46.7979
 11
308.225
 21
47.0008
  0
LINE
  8
0
 10
308.225
 20
47.0008
 11
308.085
 21
47.2282
  0
LINE
  8
0
 10
308.085
 20
47.2282
 11
307.983
 21
47.4747
  0
LINE
  8
0
 10
307.983
 20
47.4747
 11
307.921
 21
47.7341
  0
LINE
  8
0
 10
307.921
 20
47.7341
 11
307.9
 21
48
  0
LINE
  8
0
 10
307.9
 20
48
 11
307.921
 21
48.2659
  0
LINE
  8
0
 10
307.921
 20
48.2659
 11
307.983
 21
48.5253
  0
LINE
  8
0
 10
307.983
 20
48.5253
 11
308.085
 21
48.7718
  0
LINE
  8
0
 10
308.085
 20
48.7718
 11
308.225
 21
48.9992
  0
LINE
  8
0
 10
308.225
 20
48.9992
 11
308.398
 21
49.2021
  0
LINE
  8
0
 10
308.398
 20
49.2021
 11
308.601
 21
49.3753
  0
LINE
  8
0
 10
308.601
 20
49.3753
 11
308.828
 21
49.5147
  0
LINE
  8
0
 10
308.828
 20
49.5147
 11
309.075
 21
49.6168
  0
LINE
  8
0
 10
309.075
 20
49.6168
 11
309.334
 21
49.6791
  0
LINE
  8
0
 10
309.334
 20
49.6791
 11
309.6
 21
49.7
  0
LINE
  8
0
 10
309.6
 20
49.7
 11
309.866
 21
49.6791
  0
LINE
  8
0
 10
309.866
 20
49.6791
 11
310.125
 21
49.6168
  0
LINE
  8
0
 10
310.125
 20
49.6168
 11
310.372
 21
49.5147
  0
LINE
  8
0
 10
310.372
 20
49.5147
 11
310.599
 21
49.3753
  0
LINE
  8
0
 10
310.599
 20
49.3753
 11
310.802
 21
49.2021
  0
LINE
  8
0
 10
310.802
 20
49.2021
 11
310.975
 21
48.9992
  0
LINE
  8
0
 10
310.975
 20
48.9992
 11
311.115
 21
48.7718
  0
LINE
  8
0
 10
311.115
 20
48.7718
 11
311.217
 21
48.5253
  0
LINE
  8
0
 10
311.217
 20
48.5253
 11
311.279
 21
48.2659
  0
LINE
  8
0
 10
311.279
 20
48.2659
 11
311.3
 21
48
  0
LINE
  8
0
 10
311.3
 20
48
 11
311.279
 21
47.7341
  0
LINE
  8
0
 10
311.279
 20
47.7341
 11
311.217
 21
47.4747
  0
LINE
  8
0
 10
311.217
 20
47.4747
 11
311.115
 21
47.2282
  0
LINE
  8
0
 10
311.115
 20
47.2282
 11
310.975
 21
47.0008
  0
LINE
  8
0
 10
310.975
 20
47.0008
 11
310.802
 21
46.7979
  0
LINE
  8
0
 10
310.802
 20
46.7979
 11
310.599
 21
46.6247
  0
LINE
  8
0
 10
310.599
 20
46.6247
 11
310.372
 21
46.4853
  0
LINE
  8
0
 10
310.372
 20
46.4853
 11
310.125
 21
46.3832
  0
LINE
  8
0
 10
310.125
 20
46.3832
 11
309.866
 21
46.3209
  0
LINE
  8
0
 10
309.866
 20
46.3209
 11
309.6
 21
46.3
  0
LINE
  8
0
 10
309.6
 20
46.3
 11
309.334
 21
46.3209
  0
LINE
  8
0
 10
168.559
 20
46.3209
 11
168.3
 21
46.3832
  0
LINE
  8
0
 10
168.3
 20
46.3832
 11
168.053
 21
46.4853
  0
LINE
  8
0
 10
168.053
 20
46.4853
 11
167.826
 21
46.6247
  0
LINE
  8
0
 10
167.826
 20
46.6247
 11
167.623
 21
46.7979
  0
LINE
  8
0
 10
167.623
 20
46.7979
 11
167.45
 21
47.0008
  0
LINE
  8
0
 10
167.45
 20
47.0008
 11
167.31
 21
47.2282
  0
LINE
  8
0
 10
167.31
 20
47.2282
 11
167.208
 21
47.4747
  0
LINE
  8
0
 10
167.208
 20
47.4747
 11
167.146
 21
47.7341
  0
LINE
  8
0
 10
167.146
 20
47.7341
 11
167.125
 21
48
  0
LINE
  8
0
 10
167.125
 20
48
 11
167.146
 21
48.2659
  0
LINE
  8
0
 10
167.146
 20
48.2659
 11
167.208
 21
48.5253
  0
LINE
  8
0
 10
167.208
 20
48.5253
 11
167.31
 21
48.7718
  0
LINE
  8
0
 10
167.31
 20
48.7718
 11
167.45
 21
48.9992
  0
LINE
  8
0
 10
167.45
 20
48.9992
 11
167.623
 21
49.2021
  0
LINE
  8
0
 10
167.623
 20
49.2021
 11
167.826
 21
49.3753
  0
LINE
  8
0
 10
167.826
 20
49.3753
 11
168.053
 21
49.5147
  0
LINE
  8
0
 10
168.053
 20
49.5147
 11
168.3
 21
49.6168
  0
LINE
  8
0
 10
168.3
 20
49.6168
 11
168.559
 21
49.6791
  0
LINE
  8
0
 10
168.559
 20
49.6791
 11
168.825
 21
49.7
  0
LINE
  8
0
 10
168.825
 20
49.7
 11
169.091
 21
49.6791
  0
LINE
  8
0
 10
169.091
 20
49.6791
 11
169.35
 21
49.6168
  0
LINE
  8
0
 10
169.35
 20
49.6168
 11
169.597
 21
49.5147
  0
LINE
  8
0
 10
169.597
 20
49.5147
 11
169.824
 21
49.3753
  0
LINE
  8
0
 10
169.824
 20
49.3753
 11
170.027
 21
49.2021
  0
LINE
  8
0
 10
170.027
 20
49.2021
 11
170.2
 21
48.9992
  0
LINE
  8
0
 10
170.2
 20
48.9992
 11
170.34
 21
48.7718
  0
LINE
  8
0
 10
170.34
 20
48.7718
 11
170.442
 21
48.5253
  0
LINE
  8
0
 10
170.442
 20
48.5253
 11
170.504
 21
48.2659
  0
LINE
  8
0
 10
170.504
 20
48.2659
 11
170.525
 21
48
  0
LINE
  8
0
 10
170.525
 20
48
 11
170.504
 21
47.7341
  0
LINE
  8
0
 10
170.504
 20
47.7341
 11
170.442
 21
47.4747
  0
LINE
  8
0
 10
170.442
 20
47.4747
 11
170.34
 21
47.2282
  0
LINE
  8
0
 10
170.34
 20
47.2282
 11
170.2
 21
47.0008
  0
LINE
  8
0
 10
170.2
 20
47.0008
 11
170.027
 21
46.7979
  0
LINE
  8
0
 10
170.027
 20
46.7979
 11
169.824
 21
46.6247
  0
LINE
  8
0
 10
169.824
 20
46.6247
 11
169.597
 21
46.4853
  0
LINE
  8
0
 10
169.597
 20
46.4853
 11
169.35
 21
46.3832
  0
LINE
  8
0
 10
169.35
 20
46.3832
 11
169.091
 21
46.3209
  0
LINE
  8
0
 10
169.091
 20
46.3209
 11
168.825
 21
46.3
  0
LINE
  8
0
 10
168.825
 20
46.3
 11
168.559
 21
46.3209
  0
LINE
  8
0
 10
39.1251
 20
46.3209
 11
38.8657
 21
46.3832
  0
LINE
  8
0
 10
38.8657
 20
46.3832
 11
38.6192
 21
46.4853
  0
LINE
  8
0
 10
38.6192
 20
46.4853
 11
38.3918
 21
46.6247
  0
LINE
  8
0
 10
38.3918
 20
46.6247
 11
38.1889
 21
46.7979
  0
LINE
  8
0
 10
38.1889
 20
46.7979
 11
38.0157
 21
47.0008
  0
LINE
  8
0
 10
38.0157
 20
47.0008
 11
37.8763
 21
47.2282
  0
LINE
  8
0
 10
37.8763
 20
47.2282
 11
37.7742
 21
47.4747
  0
LINE
  8
0
 10
37.7742
 20
47.4747
 11
37.7119
 21
47.7341
  0
LINE
  8
0
 10
37.7119
 20
47.7341
 11
37.691
 21
48
  0
LINE
  8
0
 10
37.691
 20
48
 11
37.7119
 21
48.2659
  0
LINE
  8
0
 10
37.7119
 20
48.2659
 11
37.7742
 21
48.5253
  0
LINE
  8
0
 10
37.7742
 20
48.5253
 11
37.8763
 21
48.7718
  0
LINE
  8
0
 10
37.8763
 20
48.7718
 11
38.0157
 21
48.9992
  0
LINE
  8
0
 10
38.0157
 20
48.9992
 11
38.1889
 21
49.2021
  0
LINE
  8
0
 10
38.1889
 20
49.2021
 11
38.3918
 21
49.3753
  0
LINE
  8
0
 10
38.3918
 20
49.3753
 11
38.6192
 21
49.5147
  0
LINE
  8
0
 10
38.6192
 20
49.5147
 11
38.8657
 21
49.6168
  0
LINE
  8
0
 10
38.8657
 20
49.6168
 11
39.1251
 21
49.6791
  0
LINE
  8
0
 10
39.1251
 20
49.6791
 11
39.391
 21
49.7
  0
LINE
  8
0
 10
39.391
 20
49.7
 11
39.6569
 21
49.6791
  0
LINE
  8
0
 10
39.6569
 20
49.6791
 11
39.9163
 21
49.6168
  0
LINE
  8
0
 10
39.9163
 20
49.6168
 11
40.1628
 21
49.5147
  0
LINE
  8
0
 10
40.1628
 20
49.5147
 11
40.3902
 21
49.3753
  0
LINE
  8
0
 10
40.3902
 20
49.3753
 11
40.5931
 21
49.2021
  0
LINE
  8
0
 10
40.5931
 20
49.2021
 11
40.7663
 21
48.9992
  0
LINE
  8
0
 10
40.7663
 20
48.9992
 11
40.9057
 21
48.7718
  0
LINE
  8
0
 10
40.9057
 20
48.7718
 11
41.0078
 21
48.5253
  0
LINE
  8
0
 10
41.0078
 20
48.5253
 11
41.0701
 21
48.2659
  0
LINE
  8
0
 10
41.0701
 20
48.2659
 11
41.091
 21
48
  0
LINE
  8
0
 10
41.091
 20
48
 11
41.0701
 21
47.7341
  0
LINE
  8
0
 10
41.0701
 20
47.7341
 11
41.0078
 21
47.4747
  0
LINE
  8
0
 10
41.0078
 20
47.4747
 11
40.9057
 21
47.2282
  0
LINE
  8
0
 10
40.9057
 20
47.2282
 11
40.7663
 21
47.0008
  0
LINE
  8
0
 10
40.7663
 20
47.0008
 11
40.5931
 21
46.7979
  0
LINE
  8
0
 10
40.5931
 20
46.7979
 11
40.3902
 21
46.6247
  0
LINE
  8
0
 10
40.3902
 20
46.6247
 11
40.1628
 21
46.4853
  0
LINE
  8
0
 10
40.1628
 20
46.4853
 11
39.9163
 21
46.3832
  0
LINE
  8
0
 10
39.9163
 20
46.3832
 11
39.6569
 21
46.3209
  0
LINE
  8
0
 10
39.6569
 20
46.3209
 11
39.391
 21
46.3
  0
LINE
  8
0
 10
39.391
 20
46.3
 11
39.1251
 21
46.3209
  0
LINE
  8
0
 10
265.95
 20
8.5
 11
265.95
 21
48.5
  0
LINE
  8
0
 10
265.95
 20
48.5
 11
277.95
 21
48.5
  0
LINE
  8
0
 10
277.95
 20
48.5
 11
277.95
 21
8.5
  0
LINE
  8
0
 10
277.95
 20
8.5
 11
265.95
 21
8.5
  0
LINE
  8
0
 10
73.3
 20
28.25
 11
73.3
 21
46.75
  0
LINE
  8
0
 10
73.3
 20
46.75
 11
91.8
 21
46.75
  0
LINE
  8
0
 10
91.8
 20
46.75
 11
91.8
 21
28.25
  0
LINE
  8
0
 10
91.8
 20
28.25
 11
73.3
 21
28.25
  0
LINE
  8
0
 10
130.3
 20
28.25
 11
130.3
 21
46.75
  0
LINE
  8
0
 10
130.3
 20
46.75
 11
148.8
 21
46.75
  0
LINE
  8
0
 10
148.8
 20
46.75
 11
148.8
 21
28.25
  0
LINE
  8
0
 10
148.8
 20
28.25
 11
130.3
 21
28.25
  0
LINE
  8
0
 10
92.3
 20
26.5705
 11
92.3
 21
45.0705
  0
LINE
  8
0
 10
92.3
 20
45.0705
 11
110.8
 21
45.0705
  0
LINE
  8
0
 10
110.8
 20
45.0705
 11
110.8
 21
26.5705
  0
LINE
  8
0
 10
110.8
 20
26.5705
 11
92.3
 21
26.5705
  0
LINE
  8
0
 10
111.3
 20
26.5705
 11
111.3
 21
45.0705
  0
LINE
  8
0
 10
111.3
 20
45.0705
 11
129.8
 21
45.0705
  0
LINE
  8
0
 10
129.8
 20
45.0705
 11
129.8
 21
26.5705
  0
LINE
  8
0
 10
129.8
 20
26.5705
 11
111.3
 21
26.5705
  0
LINE
  8
0
 10
11.2694
 20
15.2534
 11
11.1913
 21
15.2595
  0
LINE
  8
0
 10
11.1913
 20
15.2595
 11
11.115
 21
15.2778
  0
LINE
  8
0
 10
11.115
 20
15.2778
 11
11.0425
 21
15.3078
  0
LINE
  8
0
 10
11.0425
 20
15.3078
 11
10.9756
 21
15.3488
  0
LINE
  8
0
 10
10.9756
 20
15.3488
 11
10.916
 21
15.3998
  0
LINE
  8
0
 10
10.916
 20
15.3998
 11
9.64645
 21
16.6693
  0
LINE
  8
0
 10
9.64645
 20
16.6693
 11
9.59549
 21
16.729
  0
LINE
  8
0
 10
9.59549
 20
16.729
 11
9.55449
 21
16.7959
  0
LINE
  8
0
 10
9.55449
 20
16.7959
 11
9.52448
 21
16.8684
  0
LINE
  8
0
 10
9.52448
 20
16.8684
 11
9.50615
 21
16.9447
  0
LINE
  8
0
 10
9.50615
 20
16.9447
 11
9.5
 21
17.0229
  0
LINE
  8
0
 10
9.5
 20
17.0229
 11
9.5
 21
39.978
  0
LINE
  8
0
 10
9.5
 20
39.978
 11
9.50615
 21
40.0562
  0
LINE
  8
0
 10
9.50615
 20
40.0562
 11
9.52448
 21
40.1325
  0
LINE
  8
0
 10
9.52448
 20
40.1325
 11
9.55449
 21
40.205
  0
LINE
  8
0
 10
9.55449
 20
40.205
 11
9.59549
 21
40.2719
  0
LINE
  8
0
 10
9.59549
 20
40.2719
 11
9.64645
 21
40.3315
  0
LINE
  8
0
 10
9.64645
 20
40.3315
 11
10.916
 21
41.601
  0
LINE
  8
0
 10
10.916
 20
41.601
 11
10.9755
 21
41.6519
  0
LINE
  8
0
 10
10.9755
 20
41.6519
 11
11.0424
 21
41.6929
  0
LINE
  8
0
 10
11.0424
 20
41.6929
 11
11.1148
 21
41.723
  0
LINE
  8
0
 10
11.1148
 20
41.723
 11
11.1911
 21
41.7413
  0
LINE
  8
0
 10
11.1911
 20
41.7413
 11
11.2693
 21
41.7475
  0
LINE
  8
0
 10
11.2693
 20
41.7475
 11
67.6131
 21
41.77
  0
LINE
  8
0
 10
67.6131
 20
41.77
 11
67.6911
 21
41.7639
  0
LINE
  8
0
 10
67.6911
 20
41.7639
 11
67.7674
 21
41.7456
  0
LINE
  8
0
 10
67.7674
 20
41.7456
 11
67.8399
 21
41.7157
  0
LINE
  8
0
 10
67.8399
 20
41.7157
 11
67.9068
 21
41.6747
  0
LINE
  8
0
 10
67.9068
 20
41.6747
 11
67.9665
 21
41.6238
  0
LINE
  8
0
 10
67.9665
 20
41.6238
 11
69.1355
 21
40.4568
  0
LINE
  8
0
 10
69.1355
 20
40.4568
 11
69.1867
 21
40.3969
  0
LINE
  8
0
 10
69.1867
 20
40.3969
 11
69.2277
 21
40.33
  0
LINE
  8
0
 10
69.2277
 20
40.33
 11
69.2578
 21
40.2575
  0
LINE
  8
0
 10
69.2578
 20
40.2575
 11
69.2761
 21
40.1812
  0
LINE
  8
0
 10
69.2761
 20
40.1812
 11
69.2822
 21
40.103
  0
LINE
  8
0
 10
69.2822
 20
40.103
 11
69.2822
 21
16.4028
  0
LINE
  8
0
 10
69.2822
 20
16.4028
 11
69.276
 21
16.3242
  0
LINE
  8
0
 10
69.276
 20
16.3242
 11
69.2576
 21
16.2479
  0
LINE
  8
0
 10
69.2576
 20
16.2479
 11
69.2276
 21
16.1754
  0
LINE
  8
0
 10
69.2276
 20
16.1754
 11
69.1865
 21
16.1086
  0
LINE
  8
0
 10
69.1865
 20
16.1086
 11
69.1355
 21
16.049
  0
LINE
  8
0
 10
69.1355
 20
16.049
 11
68.4724
 21
15.3868
  0
LINE
  8
0
 10
68.4724
 20
15.3868
 11
68.4129
 21
15.3361
  0
LINE
  8
0
 10
68.4129
 20
15.3361
 11
68.346
 21
15.2951
  0
LINE
  8
0
 10
68.346
 20
15.2951
 11
68.2735
 21
15.2651
  0
LINE
  8
0
 10
68.2735
 20
15.2651
 11
68.1973
 21
15.2468
  0
LINE
  8
0
 10
68.1973
 20
15.2468
 11
68.119
 21
15.2407
  0
LINE
  8
0
 10
68.119
 20
15.2407
 11
11.2694
 21
15.2534
  0
LINE
  8
0
 10
168.395
 20
35.7838
 11
167.975
 21
35.8846
  0
LINE
  8
0
 10
167.975
 20
35.8846
 11
167.577
 21
36.0497
  0
LINE
  8
0
 10
167.577
 20
36.0497
 11
167.209
 21
36.2752
  0
LINE
  8
0
 10
167.209
 20
36.2752
 11
166.88
 21
36.5555
  0
LINE
  8
0
 10
166.88
 20
36.5555
 11
166.6
 21
36.8836
  0
LINE
  8
0
 10
166.6
 20
36.8836
 11
166.375
 21
37.2515
  0
LINE
  8
0
 10
166.375
 20
37.2515
 11
166.21
 21
37.6502
  0
LINE
  8
0
 10
166.21
 20
37.6502
 11
166.109
 21
38.0698
  0
LINE
  8
0
 10
166.109
 20
38.0698
 11
166.075
 21
38.5
  0
LINE
  8
0
 10
166.075
 20
38.5
 11
166.109
 21
38.9302
  0
LINE
  8
0
 10
166.109
 20
38.9302
 11
166.21
 21
39.3498
  0
LINE
  8
0
 10
166.21
 20
39.3498
 11
166.375
 21
39.7485
  0
LINE
  8
0
 10
166.375
 20
39.7485
 11
166.6
 21
40.1164
  0
LINE
  8
0
 10
166.6
 20
40.1164
 11
166.88
 21
40.4445
  0
LINE
  8
0
 10
166.88
 20
40.4445
 11
167.209
 21
40.7248
  0
LINE
  8
0
 10
167.209
 20
40.7248
 11
167.577
 21
40.9503
  0
LINE
  8
0
 10
167.577
 20
40.9503
 11
167.975
 21
41.1154
  0
LINE
  8
0
 10
167.975
 20
41.1154
 11
168.395
 21
41.2161
  0
LINE
  8
0
 10
168.395
 20
41.2161
 11
168.825
 21
41.25
  0
LINE
  8
0
 10
168.825
 20
41.25
 11
169.255
 21
41.2161
  0
LINE
  8
0
 10
169.255
 20
41.2161
 11
169.675
 21
41.1154
  0
LINE
  8
0
 10
169.675
 20
41.1154
 11
170.073
 21
40.9503
  0
LINE
  8
0
 10
170.073
 20
40.9503
 11
170.441
 21
40.7248
  0
LINE
  8
0
 10
170.441
 20
40.7248
 11
170.77
 21
40.4445
  0
LINE
  8
0
 10
170.77
 20
40.4445
 11
171.05
 21
40.1164
  0
LINE
  8
0
 10
171.05
 20
40.1164
 11
171.275
 21
39.7485
  0
LINE
  8
0
 10
171.275
 20
39.7485
 11
171.44
 21
39.3498
  0
LINE
  8
0
 10
171.44
 20
39.3498
 11
171.541
 21
38.9302
  0
LINE
  8
0
 10
171.541
 20
38.9302
 11
171.575
 21
38.5
  0
LINE
  8
0
 10
171.575
 20
38.5
 11
171.541
 21
38.0698
  0
LINE
  8
0
 10
171.541
 20
38.0698
 11
171.44
 21
37.6502
  0
LINE
  8
0
 10
171.44
 20
37.6502
 11
171.275
 21
37.2515
  0
LINE
  8
0
 10
171.275
 20
37.2515
 11
171.05
 21
36.8836
  0
LINE
  8
0
 10
171.05
 20
36.8836
 11
170.77
 21
36.5555
  0
LINE
  8
0
 10
170.77
 20
36.5555
 11
170.441
 21
36.2752
  0
LINE
  8
0
 10
170.441
 20
36.2752
 11
170.073
 21
36.0497
  0
LINE
  8
0
 10
170.073
 20
36.0497
 11
169.675
 21
35.8846
  0
LINE
  8
0
 10
169.675
 20
35.8846
 11
169.255
 21
35.7838
  0
LINE
  8
0
 10
169.255
 20
35.7838
 11
168.825
 21
35.75
  0
LINE
  8
0
 10
168.825
 20
35.75
 11
168.395
 21
35.7838
  0
LINE
  8
0
 10
192.45
 20
19.25
 11
192.45
 21
37.75
  0
LINE
  8
0
 10
192.45
 20
37.75
 11
210.95
 21
37.75
  0
LINE
  8
0
 10
210.95
 20
37.75
 11
210.95
 21
19.25
  0
LINE
  8
0
 10
210.95
 20
19.25
 11
192.45
 21
19.25
  0
LINE
  8
0
 10
244.45
 20
19.25
 11
244.45
 21
37.75
  0
LINE
  8
0
 10
244.45
 20
37.75
 11
262.95
 21
37.75
  0
LINE
  8
0
 10
262.95
 20
37.75
 11
262.95
 21
19.25
  0
LINE
  8
0
 10
262.95
 20
19.25
 11
244.45
 21
19.25
  0
LINE
  8
0
 10
130.3
 20
9.25
 11
130.3
 21
27.75
  0
LINE
  8
0
 10
130.3
 20
27.75
 11
148.8
 21
27.75
  0
LINE
  8
0
 10
148.8
 20
27.75
 11
148.8
 21
9.25
  0
LINE
  8
0
 10
148.8
 20
9.25
 11
130.3
 21
9.25
  0
LINE
  8
0
 10
73.3
 20
9.25
 11
73.3
 21
27.75
  0
LINE
  8
0
 10
73.3
 20
27.75
 11
91.8
 21
27.75
  0
LINE
  8
0
 10
91.8
 20
27.75
 11
91.8
 21
9.25
  0
LINE
  8
0
 10
91.8
 20
9.25
 11
73.3
 21
9.25
  0
LINE
  8
0
 10
212.45
 20
7.25
 11
212.45
 21
25.75
  0
LINE
  8
0
 10
212.45
 20
25.75
 11
230.95
 21
25.75
  0
LINE
  8
0
 10
230.95
 20
25.75
 11
230.95
 21
7.25
  0
LINE
  8
0
 10
230.95
 20
7.25
 11
212.45
 21
7.25
  0
LINE
  8
0
 10
168.395
 20
15.7838
 11
167.975
 21
15.8846
  0
LINE
  8
0
 10
167.975
 20
15.8846
 11
167.577
 21
16.0497
  0
LINE
  8
0
 10
167.577
 20
16.0497
 11
167.209
 21
16.2752
  0
LINE
  8
0
 10
167.209
 20
16.2752
 11
166.88
 21
16.5555
  0
LINE
  8
0
 10
166.88
 20
16.5555
 11
166.6
 21
16.8836
  0
LINE
  8
0
 10
166.6
 20
16.8836
 11
166.375
 21
17.2515
  0
LINE
  8
0
 10
166.375
 20
17.2515
 11
166.21
 21
17.6502
  0
LINE
  8
0
 10
166.21
 20
17.6502
 11
166.109
 21
18.0698
  0
LINE
  8
0
 10
166.109
 20
18.0698
 11
166.075
 21
18.5
  0
LINE
  8
0
 10
166.075
 20
18.5
 11
166.109
 21
18.9302
  0
LINE
  8
0
 10
166.109
 20
18.9302
 11
166.21
 21
19.3498
  0
LINE
  8
0
 10
166.21
 20
19.3498
 11
166.375
 21
19.7485
  0
LINE
  8
0
 10
166.375
 20
19.7485
 11
166.6
 21
20.1164
  0
LINE
  8
0
 10
166.6
 20
20.1164
 11
166.88
 21
20.4445
  0
LINE
  8
0
 10
166.88
 20
20.4445
 11
167.209
 21
20.7248
  0
LINE
  8
0
 10
167.209
 20
20.7248
 11
167.577
 21
20.9503
  0
LINE
  8
0
 10
167.577
 20
20.9503
 11
167.975
 21
21.1154
  0
LINE
  8
0
 10
167.975
 20
21.1154
 11
168.395
 21
21.2161
  0
LINE
  8
0
 10
168.395
 20
21.2161
 11
168.825
 21
21.25
  0
LINE
  8
0
 10
168.825
 20
21.25
 11
169.255
 21
21.2161
  0
LINE
  8
0
 10
169.255
 20
21.2161
 11
169.675
 21
21.1154
  0
LINE
  8
0
 10
169.675
 20
21.1154
 11
170.073
 21
20.9503
  0
LINE
  8
0
 10
170.073
 20
20.9503
 11
170.441
 21
20.7248
  0
LINE
  8
0
 10
170.441
 20
20.7248
 11
170.77
 21
20.4445
  0
LINE
  8
0
 10
170.77
 20
20.4445
 11
171.05
 21
20.1164
  0
LINE
  8
0
 10
171.05
 20
20.1164
 11
171.275
 21
19.7485
  0
LINE
  8
0
 10
171.275
 20
19.7485
 11
171.44
 21
19.3498
  0
LINE
  8
0
 10
171.44
 20
19.3498
 11
171.541
 21
18.9302
  0
LINE
  8
0
 10
171.541
 20
18.9302
 11
171.575
 21
18.5
  0
LINE
  8
0
 10
171.575
 20
18.5
 11
171.541
 21
18.0698
  0
LINE
  8
0
 10
171.541
 20
18.0698
 11
171.44
 21
17.6502
  0
LINE
  8
0
 10
171.44
 20
17.6502
 11
171.275
 21
17.2515
  0
LINE
  8
0
 10
171.275
 20
17.2515
 11
171.05
 21
16.8836
  0
LINE
  8
0
 10
171.05
 20
16.8836
 11
170.77
 21
16.5555
  0
LINE
  8
0
 10
170.77
 20
16.5555
 11
170.441
 21
16.2752
  0
LINE
  8
0
 10
170.441
 20
16.2752
 11
170.073
 21
16.0497
  0
LINE
  8
0
 10
170.073
 20
16.0497
 11
169.675
 21
15.8846
  0
LINE
  8
0
 10
169.675
 20
15.8846
 11
169.255
 21
15.7838
  0
LINE
  8
0
 10
169.255
 20
15.7838
 11
168.825
 21
15.75
  0
LINE
  8
0
 10
168.825
 20
15.75
 11
168.395
 21
15.7838
  0
LINE
  8
0
 10
39.1251
 20
7.32092
 11
38.8657
 21
7.38319
  0
LINE
  8
0
 10
38.8657
 20
7.38319
 11
38.6192
 21
7.48528
  0
LINE
  8
0
 10
38.6192
 20
7.48528
 11
38.3918
 21
7.62466
  0
LINE
  8
0
 10
38.3918
 20
7.62466
 11
38.1889
 21
7.79791
  0
LINE
  8
0
 10
38.1889
 20
7.79791
 11
38.0157
 21
8.00076
  0
LINE
  8
0
 10
38.0157
 20
8.00076
 11
37.8763
 21
8.22821
  0
LINE
  8
0
 10
37.8763
 20
8.22821
 11
37.7742
 21
8.47467
  0
LINE
  8
0
 10
37.7742
 20
8.47467
 11
37.7119
 21
8.73405
  0
LINE
  8
0
 10
37.7119
 20
8.73405
 11
37.691
 21
9
  0
LINE
  8
0
 10
37.691
 20
9
 11
37.7119
 21
9.26593
  0
LINE
  8
0
 10
37.7119
 20
9.26593
 11
37.7742
 21
9.52531
  0
LINE
  8
0
 10
37.7742
 20
9.52531
 11
37.8763
 21
9.77177
  0
LINE
  8
0
 10
37.8763
 20
9.77177
 11
38.0157
 21
9.99922
  0
LINE
  8
0
 10
38.0157
 20
9.99922
 11
38.1889
 21
10.2021
  0
LINE
  8
0
 10
38.1889
 20
10.2021
 11
38.3918
 21
10.3753
  0
LINE
  8
0
 10
38.3918
 20
10.3753
 11
38.6192
 21
10.5147
  0
LINE
  8
0
 10
38.6192
 20
10.5147
 11
38.8657
 21
10.6168
  0
LINE
  8
0
 10
38.8657
 20
10.6168
 11
39.1251
 21
10.6791
  0
LINE
  8
0
 10
39.1251
 20
10.6791
 11
39.391
 21
10.7
  0
LINE
  8
0
 10
39.391
 20
10.7
 11
39.6569
 21
10.6791
  0
LINE
  8
0
 10
39.6569
 20
10.6791
 11
39.9163
 21
10.6168
  0
LINE
  8
0
 10
39.9163
 20
10.6168
 11
40.1628
 21
10.5147
  0
LINE
  8
0
 10
40.1628
 20
10.5147
 11
40.3902
 21
10.3753
  0
LINE
  8
0
 10
40.3902
 20
10.3753
 11
40.5931
 21
10.2021
  0
LINE
  8
0
 10
40.5931
 20
10.2021
 11
40.7663
 21
9.99922
  0
LINE
  8
0
 10
40.7663
 20
9.99922
 11
40.9057
 21
9.77177
  0
LINE
  8
0
 10
40.9057
 20
9.77177
 11
41.0078
 21
9.52531
  0
LINE
  8
0
 10
41.0078
 20
9.52531
 11
41.0701
 21
9.26593
  0
LINE
  8
0
 10
41.0701
 20
9.26593
 11
41.091
 21
9
  0
LINE
  8
0
 10
41.091
 20
9
 11
41.0701
 21
8.73405
  0
LINE
  8
0
 10
41.0701
 20
8.73405
 11
41.0078
 21
8.47467
  0
LINE
  8
0
 10
41.0078
 20
8.47467
 11
40.9057
 21
8.22821
  0
LINE
  8
0
 10
40.9057
 20
8.22821
 11
40.7663
 21
8.00076
  0
LINE
  8
0
 10
40.7663
 20
8.00076
 11
40.5931
 21
7.79791
  0
LINE
  8
0
 10
40.5931
 20
7.79791
 11
40.3902
 21
7.62466
  0
LINE
  8
0
 10
40.3902
 20
7.62466
 11
40.1628
 21
7.48528
  0
LINE
  8
0
 10
40.1628
 20
7.48528
 11
39.9163
 21
7.38319
  0
LINE
  8
0
 10
39.9163
 20
7.38319
 11
39.6569
 21
7.32092
  0
LINE
  8
0
 10
39.6569
 20
7.32092
 11
39.391
 21
7.29999
  0
LINE
  8
0
 10
39.391
 20
7.29999
 11
39.1251
 21
7.32092
  0
LINE
  8
0
 10
168.559
 20
7.32092
 11
168.3
 21
7.38319
  0
LINE
  8
0
 10
168.3
 20
7.38319
 11
168.053
 21
7.48528
  0
LINE
  8
0
 10
168.053
 20
7.48528
 11
167.826
 21
7.62466
  0
LINE
  8
0
 10
167.826
 20
7.62466
 11
167.623
 21
7.79791
  0
LINE
  8
0
 10
167.623
 20
7.79791
 11
167.45
 21
8.00076
  0
LINE
  8
0
 10
167.45
 20
8.00076
 11
167.31
 21
8.22821
  0
LINE
  8
0
 10
167.31
 20
8.22821
 11
167.208
 21
8.47467
  0
LINE
  8
0
 10
167.208
 20
8.47467
 11
167.146
 21
8.73405
  0
LINE
  8
0
 10
167.146
 20
8.73405
 11
167.125
 21
9
  0
LINE
  8
0
 10
167.125
 20
9
 11
167.146
 21
9.26593
  0
LINE
  8
0
 10
167.146
 20
9.26593
 11
167.208
 21
9.52531
  0
LINE
  8
0
 10
167.208
 20
9.52531
 11
167.31
 21
9.77177
  0
LINE
  8
0
 10
167.31
 20
9.77177
 11
167.45
 21
9.99922
  0
LINE
  8
0
 10
167.45
 20
9.99922
 11
167.623
 21
10.2021
  0
LINE
  8
0
 10
167.623
 20
10.2021
 11
167.826
 21
10.3753
  0
LINE
  8
0
 10
167.826
 20
10.3753
 11
168.053
 21
10.5147
  0
LINE
  8
0
 10
168.053
 20
10.5147
 11
168.3
 21
10.6168
  0
LINE
  8
0
 10
168.3
 20
10.6168
 11
168.559
 21
10.6791
  0
LINE
  8
0
 10
168.559
 20
10.6791
 11
168.825
 21
10.7
  0
LINE
  8
0
 10
168.825
 20
10.7
 11
169.091
 21
10.6791
  0
LINE
  8
0
 10
169.091
 20
10.6791
 11
169.35
 21
10.6168
  0
LINE
  8
0
 10
169.35
 20
10.6168
 11
169.597
 21
10.5147
  0
LINE
  8
0
 10
169.597
 20
10.5147
 11
169.824
 21
10.3753
  0
LINE
  8
0
 10
169.824
 20
10.3753
 11
170.027
 21
10.2021
  0
LINE
  8
0
 10
170.027
 20
10.2021
 11
170.2
 21
9.99922
  0
LINE
  8
0
 10
170.2
 20
9.99922
 11
170.34
 21
9.77177
  0
LINE
  8
0
 10
170.34
 20
9.77177
 11
170.442
 21
9.52531
  0
LINE
  8
0
 10
170.442
 20
9.52531
 11
170.504
 21
9.26593
  0
LINE
  8
0
 10
170.504
 20
9.26593
 11
170.525
 21
9
  0
LINE
  8
0
 10
170.525
 20
9
 11
170.504
 21
8.73405
  0
LINE
  8
0
 10
170.504
 20
8.73405
 11
170.442
 21
8.47467
  0
LINE
  8
0
 10
170.442
 20
8.47467
 11
170.34
 21
8.22821
  0
LINE
  8
0
 10
170.34
 20
8.22821
 11
170.2
 21
8.00076
  0
LINE
  8
0
 10
170.2
 20
8.00076
 11
170.027
 21
7.79791
  0
LINE
  8
0
 10
170.027
 20
7.79791
 11
169.824
 21
7.62466
  0
LINE
  8
0
 10
169.824
 20
7.62466
 11
169.597
 21
7.48528
  0
LINE
  8
0
 10
169.597
 20
7.48528
 11
169.35
 21
7.38319
  0
LINE
  8
0
 10
169.35
 20
7.38319
 11
169.091
 21
7.32092
  0
LINE
  8
0
 10
169.091
 20
7.32092
 11
168.825
 21
7.29999
  0
LINE
  8
0
 10
168.825
 20
7.29999
 11
168.559
 21
7.32092
  0
LINE
  8
0
 10
309.334
 20
7.32092
 11
309.075
 21
7.38319
  0
LINE
  8
0
 10
309.075
 20
7.38319
 11
308.828
 21
7.48528
  0
LINE
  8
0
 10
308.828
 20
7.48528
 11
308.601
 21
7.62466
  0
LINE
  8
0
 10
308.601
 20
7.62466
 11
308.398
 21
7.79791
  0
LINE
  8
0
 10
308.398
 20
7.79791
 11
308.225
 21
8.00076
  0
LINE
  8
0
 10
308.225
 20
8.00076
 11
308.085
 21
8.22821
  0
LINE
  8
0
 10
308.085
 20
8.22821
 11
307.983
 21
8.47467
  0
LINE
  8
0
 10
307.983
 20
8.47467
 11
307.921
 21
8.73405
  0
LINE
  8
0
 10
307.921
 20
8.73405
 11
307.9
 21
9
  0
LINE
  8
0
 10
307.9
 20
9
 11
307.921
 21
9.26593
  0
LINE
  8
0
 10
307.921
 20
9.26593
 11
307.983
 21
9.52531
  0
LINE
  8
0
 10
307.983
 20
9.52531
 11
308.085
 21
9.77177
  0
LINE
  8
0
 10
308.085
 20
9.77177
 11
308.225
 21
9.99922
  0
LINE
  8
0
 10
308.225
 20
9.99922
 11
308.398
 21
10.2021
  0
LINE
  8
0
 10
308.398
 20
10.2021
 11
308.601
 21
10.3753
  0
LINE
  8
0
 10
308.601
 20
10.3753
 11
308.828
 21
10.5147
  0
LINE
  8
0
 10
308.828
 20
10.5147
 11
309.075
 21
10.6168
  0
LINE
  8
0
 10
309.075
 20
10.6168
 11
309.334
 21
10.6791
  0
LINE
  8
0
 10
309.334
 20
10.6791
 11
309.6
 21
10.7
  0
LINE
  8
0
 10
309.6
 20
10.7
 11
309.866
 21
10.6791
  0
LINE
  8
0
 10
309.866
 20
10.6791
 11
310.125
 21
10.6168
  0
LINE
  8
0
 10
310.125
 20
10.6168
 11
310.372
 21
10.5147
  0
LINE
  8
0
 10
310.372
 20
10.5147
 11
310.599
 21
10.3753
  0
LINE
  8
0
 10
310.599
 20
10.3753
 11
310.802
 21
10.2021
  0
LINE
  8
0
 10
310.802
 20
10.2021
 11
310.975
 21
9.99922
  0
LINE
  8
0
 10
310.975
 20
9.99922
 11
311.115
 21
9.77177
  0
LINE
  8
0
 10
311.115
 20
9.77177
 11
311.217
 21
9.52531
  0
LINE
  8
0
 10
311.217
 20
9.52531
 11
311.279
 21
9.26593
  0
LINE
  8
0
 10
311.279
 20
9.26593
 11
311.3
 21
9
  0
LINE
  8
0
 10
311.3
 20
9
 11
311.279
 21
8.73405
  0
LINE
  8
0
 10
311.279
 20
8.73405
 11
311.217
 21
8.47467
  0
LINE
  8
0
 10
311.217
 20
8.47467
 11
311.115
 21
8.22821
  0
LINE
  8
0
 10
311.115
 20
8.22821
 11
310.975
 21
8.00076
  0
LINE
  8
0
 10
310.975
 20
8.00076
 11
310.802
 21
7.79791
  0
LINE
  8
0
 10
310.802
 20
7.79791
 11
310.599
 21
7.62466
  0
LINE
  8
0
 10
310.599
 20
7.62466
 11
310.372
 21
7.48528
  0
LINE
  8
0
 10
310.372
 20
7.48528
 11
310.125
 21
7.38319
  0
LINE
  8
0
 10
310.125
 20
7.38319
 11
309.866
 21
7.32092
  0
LINE
  8
0
 10
309.866
 20
7.32092
 11
309.6
 21
7.29999
  0
LINE
  8
0
 10
309.6
 20
7.29999
 11
309.334
 21
7.32092
  0
ENDSEC
  0
SECTION
  2
OBJECTS
  0
DICTIONARY
  0
ENDSEC
  0
EOF
