  0
SECTION
  2
BLOCKS
  0
ENDSEC
  0
SECTION
  2
ENTITIES
  0
LINE
  8
0
 10
447
 20
49
 11
0
 21
49
  0
LINE
  8
0
 10
0
 20
49
 11
0
 21
0
  0
LINE
  8
0
 10
0
 20
0
 11
447
 21
0
  0
LINE
  8
0
 10
447
 20
0
 11
447
 21
49
  0
LINE
  8
0
 10
379.5
 20
24.5
 11
379.5
 21
46.5
  0
LINE
  8
0
 10
379.5
 20
46.5
 11
401.5
 21
46.5
  0
LINE
  8
0
 10
401.5
 20
46.5
 11
401.5
 21
24.5
  0
LINE
  8
0
 10
401.5
 20
24.5
 11
379.5
 21
24.5
  0
LINE
  8
0
 10
272.75
 20
27.25
 11
272.75
 21
45.75
  0
LINE
  8
0
 10
272.75
 20
45.75
 11
291.25
 21
45.75
  0
LINE
  8
0
 10
291.25
 20
45.75
 11
291.25
 21
27.25
  0
LINE
  8
0
 10
291.25
 20
27.25
 11
272.75
 21
27.25
  0
LINE
  8
0
 10
416.734
 20
42.3209
 11
416.475
 21
42.3832
  0
LINE
  8
0
 10
416.475
 20
42.3832
 11
416.228
 21
42.4853
  0
LINE
  8
0
 10
416.228
 20
42.4853
 11
416.001
 21
42.6247
  0
LINE
  8
0
 10
416.001
 20
42.6247
 11
415.798
 21
42.7979
  0
LINE
  8
0
 10
415.798
 20
42.7979
 11
415.625
 21
43.0008
  0
LINE
  8
0
 10
415.625
 20
43.0008
 11
415.485
 21
43.2282
  0
LINE
  8
0
 10
415.485
 20
43.2282
 11
415.383
 21
43.4747
  0
LINE
  8
0
 10
415.383
 20
43.4747
 11
415.321
 21
43.7341
  0
LINE
  8
0
 10
415.321
 20
43.7341
 11
415.3
 21
44
  0
LINE
  8
0
 10
415.3
 20
44
 11
415.321
 21
44.2659
  0
LINE
  8
0
 10
415.321
 20
44.2659
 11
415.383
 21
44.5253
  0
LINE
  8
0
 10
415.383
 20
44.5253
 11
415.485
 21
44.7718
  0
LINE
  8
0
 10
415.485
 20
44.7718
 11
415.625
 21
44.9992
  0
LINE
  8
0
 10
415.625
 20
44.9992
 11
415.798
 21
45.2021
  0
LINE
  8
0
 10
415.798
 20
45.2021
 11
416.001
 21
45.3753
  0
LINE
  8
0
 10
416.001
 20
45.3753
 11
416.228
 21
45.5147
  0
LINE
  8
0
 10
416.228
 20
45.5147
 11
416.475
 21
45.6168
  0
LINE
  8
0
 10
416.475
 20
45.6168
 11
416.734
 21
45.6791
  0
LINE
  8
0
 10
416.734
 20
45.6791
 11
417
 21
45.7
  0
LINE
  8
0
 10
417
 20
45.7
 11
417.266
 21
45.6791
  0
LINE
  8
0
 10
417.266
 20
45.6791
 11
417.525
 21
45.6168
  0
LINE
  8
0
 10
417.525
 20
45.6168
 11
417.772
 21
45.5147
  0
LINE
  8
0
 10
417.772
 20
45.5147
 11
417.999
 21
45.3753
  0
LINE
  8
0
 10
417.999
 20
45.3753
 11
418.202
 21
45.2021
  0
LINE
  8
0
 10
418.202
 20
45.2021
 11
418.375
 21
44.9992
  0
LINE
  8
0
 10
418.375
 20
44.9992
 11
418.515
 21
44.7718
  0
LINE
  8
0
 10
418.515
 20
44.7718
 11
418.617
 21
44.5253
  0
LINE
  8
0
 10
418.617
 20
44.5253
 11
418.679
 21
44.2659
  0
LINE
  8
0
 10
418.679
 20
44.2659
 11
418.7
 21
44
  0
LINE
  8
0
 10
418.7
 20
44
 11
418.679
 21
43.7341
  0
LINE
  8
0
 10
418.679
 20
43.7341
 11
418.617
 21
43.4747
  0
LINE
  8
0
 10
418.617
 20
43.4747
 11
418.515
 21
43.2282
  0
LINE
  8
0
 10
418.515
 20
43.2282
 11
418.375
 21
43.0008
  0
LINE
  8
0
 10
418.375
 20
43.0008
 11
418.202
 21
42.7979
  0
LINE
  8
0
 10
418.202
 20
42.7979
 11
417.999
 21
42.6247
  0
LINE
  8
0
 10
417.999
 20
42.6247
 11
417.772
 21
42.4853
  0
LINE
  8
0
 10
417.772
 20
42.4853
 11
417.525
 21
42.3832
  0
LINE
  8
0
 10
417.525
 20
42.3832
 11
417.266
 21
42.3209
  0
LINE
  8
0
 10
417.266
 20
42.3209
 11
417
 21
42.3
  0
LINE
  8
0
 10
417
 20
42.3
 11
416.734
 21
42.3209
  0
LINE
  8
0
 10
261.934
 20
42.3209
 11
261.675
 21
42.3832
  0
LINE
  8
0
 10
261.675
 20
42.3832
 11
261.428
 21
42.4853
  0
LINE
  8
0
 10
261.428
 20
42.4853
 11
261.201
 21
42.6247
  0
LINE
  8
0
 10
261.201
 20
42.6247
 11
260.998
 21
42.7979
  0
LINE
  8
0
 10
260.998
 20
42.7979
 11
260.825
 21
43.0008
  0
LINE
  8
0
 10
260.825
 20
43.0008
 11
260.685
 21
43.2282
  0
LINE
  8
0
 10
260.685
 20
43.2282
 11
260.583
 21
43.4747
  0
LINE
  8
0
 10
260.583
 20
43.4747
 11
260.521
 21
43.7341
  0
LINE
  8
0
 10
260.521
 20
43.7341
 11
260.5
 21
44
  0
LINE
  8
0
 10
260.5
 20
44
 11
260.521
 21
44.2659
  0
LINE
  8
0
 10
260.521
 20
44.2659
 11
260.583
 21
44.5253
  0
LINE
  8
0
 10
260.583
 20
44.5253
 11
260.685
 21
44.7718
  0
LINE
  8
0
 10
260.685
 20
44.7718
 11
260.825
 21
44.9992
  0
LINE
  8
0
 10
260.825
 20
44.9992
 11
260.998
 21
45.2021
  0
LINE
  8
0
 10
260.998
 20
45.2021
 11
261.201
 21
45.3753
  0
LINE
  8
0
 10
261.201
 20
45.3753
 11
261.428
 21
45.5147
  0
LINE
  8
0
 10
261.428
 20
45.5147
 11
261.675
 21
45.6168
  0
LINE
  8
0
 10
261.675
 20
45.6168
 11
261.934
 21
45.6791
  0
LINE
  8
0
 10
261.934
 20
45.6791
 11
262.2
 21
45.7
  0
LINE
  8
0
 10
262.2
 20
45.7
 11
262.466
 21
45.6791
  0
LINE
  8
0
 10
262.466
 20
45.6791
 11
262.725
 21
45.6168
  0
LINE
  8
0
 10
262.725
 20
45.6168
 11
262.972
 21
45.5147
  0
LINE
  8
0
 10
262.972
 20
45.5147
 11
263.199
 21
45.3753
  0
LINE
  8
0
 10
263.199
 20
45.3753
 11
263.402
 21
45.2021
  0
LINE
  8
0
 10
263.402
 20
45.2021
 11
263.575
 21
44.9992
  0
LINE
  8
0
 10
263.575
 20
44.9992
 11
263.715
 21
44.7718
  0
LINE
  8
0
 10
263.715
 20
44.7718
 11
263.817
 21
44.5253
  0
LINE
  8
0
 10
263.817
 20
44.5253
 11
263.879
 21
44.2659
  0
LINE
  8
0
 10
263.879
 20
44.2659
 11
263.9
 21
44
  0
LINE
  8
0
 10
263.9
 20
44
 11
263.879
 21
43.7341
  0
LINE
  8
0
 10
263.879
 20
43.7341
 11
263.817
 21
43.4747
  0
LINE
  8
0
 10
263.817
 20
43.4747
 11
263.715
 21
43.2282
  0
LINE
  8
0
 10
263.715
 20
43.2282
 11
263.575
 21
43.0008
  0
LINE
  8
0
 10
263.575
 20
43.0008
 11
263.402
 21
42.7979
  0
LINE
  8
0
 10
263.402
 20
42.7979
 11
263.199
 21
42.6247
  0
LINE
  8
0
 10
263.199
 20
42.6247
 11
262.972
 21
42.4853
  0
LINE
  8
0
 10
262.972
 20
42.4853
 11
262.725
 21
42.3832
  0
LINE
  8
0
 10
262.725
 20
42.3832
 11
262.466
 21
42.3209
  0
LINE
  8
0
 10
262.466
 20
42.3209
 11
262.2
 21
42.3
  0
LINE
  8
0
 10
262.2
 20
42.3
 11
261.934
 21
42.3209
  0
LINE
  8
0
 10
107.134
 20
42.3209
 11
106.875
 21
42.3832
  0
LINE
  8
0
 10
106.875
 20
42.3832
 11
106.628
 21
42.4853
  0
LINE
  8
0
 10
106.628
 20
42.4853
 11
106.401
 21
42.6247
  0
LINE
  8
0
 10
106.401
 20
42.6247
 11
106.198
 21
42.7979
  0
LINE
  8
0
 10
106.198
 20
42.7979
 11
106.025
 21
43.0008
  0
LINE
  8
0
 10
106.025
 20
43.0008
 11
105.885
 21
43.2282
  0
LINE
  8
0
 10
105.885
 20
43.2282
 11
105.783
 21
43.4747
  0
LINE
  8
0
 10
105.783
 20
43.4747
 11
105.721
 21
43.7341
  0
LINE
  8
0
 10
105.721
 20
43.7341
 11
105.7
 21
44
  0
LINE
  8
0
 10
105.7
 20
44
 11
105.721
 21
44.2659
  0
LINE
  8
0
 10
105.721
 20
44.2659
 11
105.783
 21
44.5253
  0
LINE
  8
0
 10
105.783
 20
44.5253
 11
105.885
 21
44.7718
  0
LINE
  8
0
 10
105.885
 20
44.7718
 11
106.025
 21
44.9992
  0
LINE
  8
0
 10
106.025
 20
44.9992
 11
106.198
 21
45.2021
  0
LINE
  8
0
 10
106.198
 20
45.2021
 11
106.401
 21
45.3753
  0
LINE
  8
0
 10
106.401
 20
45.3753
 11
106.628
 21
45.5147
  0
LINE
  8
0
 10
106.628
 20
45.5147
 11
106.875
 21
45.6168
  0
LINE
  8
0
 10
106.875
 20
45.6168
 11
107.134
 21
45.6791
  0
LINE
  8
0
 10
107.134
 20
45.6791
 11
107.4
 21
45.7
  0
LINE
  8
0
 10
107.4
 20
45.7
 11
107.666
 21
45.6791
  0
LINE
  8
0
 10
107.666
 20
45.6791
 11
107.925
 21
45.6168
  0
LINE
  8
0
 10
107.925
 20
45.6168
 11
108.172
 21
45.5147
  0
LINE
  8
0
 10
108.172
 20
45.5147
 11
108.399
 21
45.3753
  0
LINE
  8
0
 10
108.399
 20
45.3753
 11
108.602
 21
45.2021
  0
LINE
  8
0
 10
108.602
 20
45.2021
 11
108.775
 21
44.9992
  0
LINE
  8
0
 10
108.775
 20
44.9992
 11
108.915
 21
44.7718
  0
LINE
  8
0
 10
108.915
 20
44.7718
 11
109.017
 21
44.5253
  0
LINE
  8
0
 10
109.017
 20
44.5253
 11
109.079
 21
44.2659
  0
LINE
  8
0
 10
109.079
 20
44.2659
 11
109.1
 21
44
  0
LINE
  8
0
 10
109.1
 20
44
 11
109.079
 21
43.7341
  0
LINE
  8
0
 10
109.079
 20
43.7341
 11
109.017
 21
43.4747
  0
LINE
  8
0
 10
109.017
 20
43.4747
 11
108.915
 21
43.2282
  0
LINE
  8
0
 10
108.915
 20
43.2282
 11
108.775
 21
43.0008
  0
LINE
  8
0
 10
108.775
 20
43.0008
 11
108.602
 21
42.7979
  0
LINE
  8
0
 10
108.602
 20
42.7979
 11
108.399
 21
42.6247
  0
LINE
  8
0
 10
108.399
 20
42.6247
 11
108.172
 21
42.4853
  0
LINE
  8
0
 10
108.172
 20
42.4853
 11
107.925
 21
42.3832
  0
LINE
  8
0
 10
107.925
 20
42.3832
 11
107.666
 21
42.3209
  0
LINE
  8
0
 10
107.666
 20
42.3209
 11
107.4
 21
42.3
  0
LINE
  8
0
 10
107.4
 20
42.3
 11
107.134
 21
42.3209
  0
LINE
  8
0
 10
125.75
 20
22.5705
 11
125.75
 21
41.0705
  0
LINE
  8
0
 10
125.75
 20
41.0705
 11
144.25
 21
41.0705
  0
LINE
  8
0
 10
144.25
 20
41.0705
 11
144.25
 21
22.5705
  0
LINE
  8
0
 10
144.25
 20
22.5705
 11
125.75
 21
22.5705
  0
LINE
  8
0
 10
144.75
 20
22.5705
 11
144.75
 21
41.0705
  0
LINE
  8
0
 10
144.75
 20
41.0705
 11
163.25
 21
41.0705
  0
LINE
  8
0
 10
163.25
 20
41.0705
 11
163.25
 21
22.5705
  0
LINE
  8
0
 10
163.25
 20
22.5705
 11
144.75
 21
22.5705
  0
LINE
  8
0
 10
252.75
 20
15.25
 11
252.75
 21
33.75
  0
LINE
  8
0
 10
252.75
 20
33.75
 11
271.25
 21
33.75
  0
LINE
  8
0
 10
271.25
 20
33.75
 11
271.25
 21
15.25
  0
LINE
  8
0
 10
271.25
 20
15.25
 11
252.75
 21
15.25
  0
LINE
  8
0
 10
304.75
 20
15.25
 11
304.75
 21
33.75
  0
LINE
  8
0
 10
304.75
 20
33.75
 11
323.25
 21
33.75
  0
LINE
  8
0
 10
323.25
 20
33.75
 11
323.25
 21
15.25
  0
LINE
  8
0
 10
323.25
 20
15.25
 11
304.75
 21
15.25
  0
LINE
  8
0
 10
214.57
 20
21.7838
 11
214.15
 21
21.8846
  0
LINE
  8
0
 10
214.15
 20
21.8846
 11
213.752
 21
22.0497
  0
LINE
  8
0
 10
213.752
 20
22.0497
 11
213.384
 21
22.2752
  0
LINE
  8
0
 10
213.384
 20
22.2752
 11
213.055
 21
22.5555
  0
LINE
  8
0
 10
213.055
 20
22.5555
 11
212.775
 21
22.8836
  0
LINE
  8
0
 10
212.775
 20
22.8836
 11
212.55
 21
23.2515
  0
LINE
  8
0
 10
212.55
 20
23.2515
 11
212.385
 21
23.6502
  0
LINE
  8
0
 10
212.385
 20
23.6502
 11
212.284
 21
24.0698
  0
LINE
  8
0
 10
212.284
 20
24.0698
 11
212.25
 21
24.5
  0
LINE
  8
0
 10
212.25
 20
24.5
 11
212.284
 21
24.9302
  0
LINE
  8
0
 10
212.284
 20
24.9302
 11
212.385
 21
25.3498
  0
LINE
  8
0
 10
212.385
 20
25.3498
 11
212.55
 21
25.7485
  0
LINE
  8
0
 10
212.55
 20
25.7485
 11
212.775
 21
26.1164
  0
LINE
  8
0
 10
212.775
 20
26.1164
 11
213.055
 21
26.4445
  0
LINE
  8
0
 10
213.055
 20
26.4445
 11
213.384
 21
26.7248
  0
LINE
  8
0
 10
213.384
 20
26.7248
 11
213.752
 21
26.9503
  0
LINE
  8
0
 10
213.752
 20
26.9503
 11
214.15
 21
27.1154
  0
LINE
  8
0
 10
214.15
 20
27.1154
 11
214.57
 21
27.2161
  0
LINE
  8
0
 10
214.57
 20
27.2161
 11
215
 21
27.25
  0
LINE
  8
0
 10
215
 20
27.25
 11
215.43
 21
27.2161
  0
LINE
  8
0
 10
215.43
 20
27.2161
 11
215.85
 21
27.1154
  0
LINE
  8
0
 10
215.85
 20
27.1154
 11
216.248
 21
26.9503
  0
LINE
  8
0
 10
216.248
 20
26.9503
 11
216.616
 21
26.7248
  0
LINE
  8
0
 10
216.616
 20
26.7248
 11
216.945
 21
26.4445
  0
LINE
  8
0
 10
216.945
 20
26.4445
 11
217.225
 21
26.1164
  0
LINE
  8
0
 10
217.225
 20
26.1164
 11
217.45
 21
25.7485
  0
LINE
  8
0
 10
217.45
 20
25.7485
 11
217.615
 21
25.3498
  0
LINE
  8
0
 10
217.615
 20
25.3498
 11
217.716
 21
24.9302
  0
LINE
  8
0
 10
217.716
 20
24.9302
 11
217.75
 21
24.5
  0
LINE
  8
0
 10
217.75
 20
24.5
 11
217.716
 21
24.0698
  0
LINE
  8
0
 10
217.716
 20
24.0698
 11
217.615
 21
23.6502
  0
LINE
  8
0
 10
217.615
 20
23.6502
 11
217.45
 21
23.2515
  0
LINE
  8
0
 10
217.45
 20
23.2515
 11
217.225
 21
22.8836
  0
LINE
  8
0
 10
217.225
 20
22.8836
 11
216.945
 21
22.5555
  0
LINE
  8
0
 10
216.945
 20
22.5555
 11
216.616
 21
22.2752
  0
LINE
  8
0
 10
216.616
 20
22.2752
 11
216.248
 21
22.0497
  0
LINE
  8
0
 10
216.248
 20
22.0497
 11
215.85
 21
21.8846
  0
LINE
  8
0
 10
215.85
 20
21.8846
 11
215.43
 21
21.7838
  0
LINE
  8
0
 10
215.43
 20
21.7838
 11
215
 21
21.75
  0
LINE
  8
0
 10
215
 20
21.75
 11
214.57
 21
21.7838
  0
LINE
  8
0
 10
238.57
 20
21.7838
 11
238.15
 21
21.8846
  0
LINE
  8
0
 10
238.15
 20
21.8846
 11
237.752
 21
22.0497
  0
LINE
  8
0
 10
237.752
 20
22.0497
 11
237.384
 21
22.2752
  0
LINE
  8
0
 10
237.384
 20
22.2752
 11
237.055
 21
22.5555
  0
LINE
  8
0
 10
237.055
 20
22.5555
 11
236.775
 21
22.8836
  0
LINE
  8
0
 10
236.775
 20
22.8836
 11
236.55
 21
23.2515
  0
LINE
  8
0
 10
236.55
 20
23.2515
 11
236.385
 21
23.6502
  0
LINE
  8
0
 10
236.385
 20
23.6502
 11
236.284
 21
24.0698
  0
LINE
  8
0
 10
236.284
 20
24.0698
 11
236.25
 21
24.5
  0
LINE
  8
0
 10
236.25
 20
24.5
 11
236.284
 21
24.9302
  0
LINE
  8
0
 10
236.284
 20
24.9302
 11
236.385
 21
25.3498
  0
LINE
  8
0
 10
236.385
 20
25.3498
 11
236.55
 21
25.7485
  0
LINE
  8
0
 10
236.55
 20
25.7485
 11
236.775
 21
26.1164
  0
LINE
  8
0
 10
236.775
 20
26.1164
 11
237.055
 21
26.4445
  0
LINE
  8
0
 10
237.055
 20
26.4445
 11
237.384
 21
26.7248
  0
LINE
  8
0
 10
237.384
 20
26.7248
 11
237.752
 21
26.9503
  0
LINE
  8
0
 10
237.752
 20
26.9503
 11
238.15
 21
27.1154
  0
LINE
  8
0
 10
238.15
 20
27.1154
 11
238.57
 21
27.2161
  0
LINE
  8
0
 10
238.57
 20
27.2161
 11
239
 21
27.25
  0
LINE
  8
0
 10
239
 20
27.25
 11
239.43
 21
27.2161
  0
LINE
  8
0
 10
239.43
 20
27.2161
 11
239.85
 21
27.1154
  0
LINE
  8
0
 10
239.85
 20
27.1154
 11
240.248
 21
26.9503
  0
LINE
  8
0
 10
240.248
 20
26.9503
 11
240.616
 21
26.7248
  0
LINE
  8
0
 10
240.616
 20
26.7248
 11
240.945
 21
26.4445
  0
LINE
  8
0
 10
240.945
 20
26.4445
 11
241.225
 21
26.1164
  0
LINE
  8
0
 10
241.225
 20
26.1164
 11
241.45
 21
25.7485
  0
LINE
  8
0
 10
241.45
 20
25.7485
 11
241.615
 21
25.3498
  0
LINE
  8
0
 10
241.615
 20
25.3498
 11
241.716
 21
24.9302
  0
LINE
  8
0
 10
241.716
 20
24.9302
 11
241.75
 21
24.5
  0
LINE
  8
0
 10
241.75
 20
24.5
 11
241.716
 21
24.0698
  0
LINE
  8
0
 10
241.716
 20
24.0698
 11
241.615
 21
23.6502
  0
LINE
  8
0
 10
241.615
 20
23.6502
 11
241.45
 21
23.2515
  0
LINE
  8
0
 10
241.45
 20
23.2515
 11
241.225
 21
22.8836
  0
LINE
  8
0
 10
241.225
 20
22.8836
 11
240.945
 21
22.5555
  0
LINE
  8
0
 10
240.945
 20
22.5555
 11
240.616
 21
22.2752
  0
LINE
  8
0
 10
240.616
 20
22.2752
 11
240.248
 21
22.0497
  0
LINE
  8
0
 10
240.248
 20
22.0497
 11
239.85
 21
21.8846
  0
LINE
  8
0
 10
239.85
 20
21.8846
 11
239.43
 21
21.7838
  0
LINE
  8
0
 10
239.43
 20
21.7838
 11
239
 21
21.75
  0
LINE
  8
0
 10
239
 20
21.75
 11
238.57
 21
21.7838
  0
LINE
  8
0
 10
87.75
 20
5.25
 11
87.75
 21
23.75
  0
LINE
  8
0
 10
87.75
 20
23.75
 11
106.25
 21
23.75
  0
LINE
  8
0
 10
106.25
 20
23.75
 11
106.25
 21
5.25
  0
LINE
  8
0
 10
106.25
 20
5.25
 11
87.75
 21
5.25
  0
LINE
  8
0
 10
184.534
 20
3.32092
 11
184.275
 21
3.38319
  0
LINE
  8
0
 10
184.275
 20
3.38319
 11
184.028
 21
3.48528
  0
LINE
  8
0
 10
184.028
 20
3.48528
 11
183.801
 21
3.62466
  0
LINE
  8
0
 10
183.801
 20
3.62466
 11
183.598
 21
3.79791
  0
LINE
  8
0
 10
183.598
 20
3.79791
 11
183.425
 21
4.00076
  0
LINE
  8
0
 10
183.425
 20
4.00076
 11
183.285
 21
4.22821
  0
LINE
  8
0
 10
183.285
 20
4.22821
 11
183.183
 21
4.47467
  0
LINE
  8
0
 10
183.183
 20
4.47467
 11
183.121
 21
4.73405
  0
LINE
  8
0
 10
183.121
 20
4.73405
 11
183.1
 21
5
  0
LINE
  8
0
 10
183.1
 20
5
 11
183.12
 21
5.25
  0
LINE
  8
0
 10
183.12
 20
5.25
 11
182.75
 21
5.25
  0
LINE
  8
0
 10
182.75
 20
5.25
 11
182.75
 21
23.75
  0
LINE
  8
0
 10
182.75
 20
23.75
 11
201.25
 21
23.75
  0
LINE
  8
0
 10
201.25
 20
23.75
 11
201.25
 21
5.25
  0
LINE
  8
0
 10
201.25
 20
5.25
 11
186.48
 21
5.25
  0
LINE
  8
0
 10
186.48
 20
5.25
 11
186.5
 21
5
  0
LINE
  8
0
 10
186.5
 20
5
 11
186.479
 21
4.73405
  0
LINE
  8
0
 10
186.479
 20
4.73405
 11
186.417
 21
4.47467
  0
LINE
  8
0
 10
186.417
 20
4.47467
 11
186.315
 21
4.22821
  0
LINE
  8
0
 10
186.315
 20
4.22821
 11
186.175
 21
4.00076
  0
LINE
  8
0
 10
186.175
 20
4.00076
 11
186.002
 21
3.79791
  0
LINE
  8
0
 10
186.002
 20
3.79791
 11
185.799
 21
3.62466
  0
LINE
  8
0
 10
185.799
 20
3.62466
 11
185.572
 21
3.48528
  0
LINE
  8
0
 10
185.572
 20
3.48528
 11
185.325
 21
3.38319
  0
LINE
  8
0
 10
185.325
 20
3.38319
 11
185.066
 21
3.32092
  0
LINE
  8
0
 10
185.066
 20
3.32092
 11
184.8
 21
3.29999
  0
LINE
  8
0
 10
184.8
 20
3.29999
 11
184.534
 21
3.32092
  0
LINE
  8
0
 10
163.75
 20
5.25
 11
163.75
 21
23.75
  0
LINE
  8
0
 10
163.75
 20
23.75
 11
182.25
 21
23.75
  0
LINE
  8
0
 10
182.25
 20
23.75
 11
182.25
 21
5.25
  0
LINE
  8
0
 10
182.25
 20
5.25
 11
163.75
 21
5.25
  0
LINE
  8
0
 10
106.75
 20
5.25
 11
106.75
 21
23.75
  0
LINE
  8
0
 10
106.75
 20
23.75
 11
125.25
 21
23.75
  0
LINE
  8
0
 10
125.25
 20
23.75
 11
125.25
 21
5.25
  0
LINE
  8
0
 10
125.25
 20
5.25
 11
106.75
 21
5.25
  0
LINE
  8
0
 10
330
 20
10.5
 11
330
 21
22.5
  0
LINE
  8
0
 10
330
 20
22.5
 11
370
 21
22.5
  0
LINE
  8
0
 10
370
 20
22.5
 11
370
 21
10.5
  0
LINE
  8
0
 10
370
 20
10.5
 11
330
 21
10.5
  0
LINE
  8
0
 10
272.75
 20
3.25
 11
272.75
 21
21.75
  0
LINE
  8
0
 10
272.75
 20
21.75
 11
291.25
 21
21.75
  0
LINE
  8
0
 10
291.25
 20
21.75
 11
291.25
 21
3.25
  0
LINE
  8
0
 10
291.25
 20
3.25
 11
272.75
 21
3.25
  0
LINE
  8
0
 10
29.7341
 20
3.32092
 11
29.4747
 21
3.38319
  0
LINE
  8
0
 10
29.4747
 20
3.38319
 11
29.2282
 21
3.48528
  0
LINE
  8
0
 10
29.2282
 20
3.48528
 11
29.0008
 21
3.62466
  0
LINE
  8
0
 10
29.0008
 20
3.62466
 11
28.7979
 21
3.79791
  0
LINE
  8
0
 10
28.7979
 20
3.79791
 11
28.6247
 21
4.00076
  0
LINE
  8
0
 10
28.6247
 20
4.00076
 11
28.4853
 21
4.22821
  0
LINE
  8
0
 10
28.4853
 20
4.22821
 11
28.3832
 21
4.47467
  0
LINE
  8
0
 10
28.3832
 20
4.47467
 11
28.3209
 21
4.73405
  0
LINE
  8
0
 10
28.3209
 20
4.73405
 11
28.3
 21
5
  0
LINE
  8
0
 10
28.3
 20
5
 11
28.3209
 21
5.26593
  0
LINE
  8
0
 10
28.3209
 20
5.26593
 11
28.3832
 21
5.52531
  0
LINE
  8
0
 10
28.3832
 20
5.52531
 11
28.4853
 21
5.77177
  0
LINE
  8
0
 10
28.4853
 20
5.77177
 11
28.6247
 21
5.99922
  0
LINE
  8
0
 10
28.6247
 20
5.99922
 11
28.7979
 21
6.20207
  0
LINE
  8
0
 10
28.7979
 20
6.20207
 11
29.0008
 21
6.37532
  0
LINE
  8
0
 10
29.0008
 20
6.37532
 11
29.2282
 21
6.51471
  0
LINE
  8
0
 10
29.2282
 20
6.51471
 11
29.4747
 21
6.61679
  0
LINE
  8
0
 10
29.4747
 20
6.61679
 11
29.7341
 21
6.67906
  0
LINE
  8
0
 10
29.7341
 20
6.67906
 11
30
 21
6.7
  0
LINE
  8
0
 10
30
 20
6.7
 11
30.2659
 21
6.67906
  0
LINE
  8
0
 10
30.2659
 20
6.67906
 11
30.5253
 21
6.61679
  0
LINE
  8
0
 10
30.5253
 20
6.61679
 11
30.7718
 21
6.51471
  0
LINE
  8
0
 10
30.7718
 20
6.51471
 11
30.9992
 21
6.37532
  0
LINE
  8
0
 10
30.9992
 20
6.37532
 11
31.2021
 21
6.20207
  0
LINE
  8
0
 10
31.2021
 20
6.20207
 11
31.3753
 21
5.99922
  0
LINE
  8
0
 10
31.3753
 20
5.99922
 11
31.5147
 21
5.77177
  0
LINE
  8
0
 10
31.5147
 20
5.77177
 11
31.6168
 21
5.52531
  0
LINE
  8
0
 10
31.6168
 20
5.52531
 11
31.6791
 21
5.26593
  0
LINE
  8
0
 10
31.6791
 20
5.26593
 11
31.7
 21
5
  0
LINE
  8
0
 10
31.7
 20
5
 11
31.6791
 21
4.73405
  0
LINE
  8
0
 10
31.6791
 20
4.73405
 11
31.6168
 21
4.47467
  0
LINE
  8
0
 10
31.6168
 20
4.47467
 11
31.5147
 21
4.22821
  0
LINE
  8
0
 10
31.5147
 20
4.22821
 11
31.3753
 21
4.00076
  0
LINE
  8
0
 10
31.3753
 20
4.00076
 11
31.2021
 21
3.79791
  0
LINE
  8
0
 10
31.2021
 20
3.79791
 11
30.9992
 21
3.62466
  0
LINE
  8
0
 10
30.9992
 20
3.62466
 11
30.7718
 21
3.48528
  0
LINE
  8
0
 10
30.7718
 20
3.48528
 11
30.5253
 21
3.38319
  0
LINE
  8
0
 10
30.5253
 20
3.38319
 11
30.2659
 21
3.32092
  0
LINE
  8
0
 10
30.2659
 20
3.32092
 11
30
 21
3.29999
  0
LINE
  8
0
 10
30
 20
3.29999
 11
29.7341
 21
3.32092
  0
LINE
  8
0
 10
339.334
 20
3.32092
 11
339.075
 21
3.38319
  0
LINE
  8
0
 10
339.075
 20
3.38319
 11
338.828
 21
3.48528
  0
LINE
  8
0
 10
338.828
 20
3.48528
 11
338.601
 21
3.62466
  0
LINE
  8
0
 10
338.601
 20
3.62466
 11
338.398
 21
3.79791
  0
LINE
  8
0
 10
338.398
 20
3.79791
 11
338.225
 21
4.00076
  0
LINE
  8
0
 10
338.225
 20
4.00076
 11
338.085
 21
4.22821
  0
LINE
  8
0
 10
338.085
 20
4.22821
 11
337.983
 21
4.47467
  0
LINE
  8
0
 10
337.983
 20
4.47467
 11
337.921
 21
4.73405
  0
LINE
  8
0
 10
337.921
 20
4.73405
 11
337.9
 21
5
  0
LINE
  8
0
 10
337.9
 20
5
 11
337.921
 21
5.26593
  0
LINE
  8
0
 10
337.921
 20
5.26593
 11
337.983
 21
5.52531
  0
LINE
  8
0
 10
337.983
 20
5.52531
 11
338.085
 21
5.77177
  0
LINE
  8
0
 10
338.085
 20
5.77177
 11
338.225
 21
5.99922
  0
LINE
  8
0
 10
338.225
 20
5.99922
 11
338.398
 21
6.20207
  0
LINE
  8
0
 10
338.398
 20
6.20207
 11
338.601
 21
6.37532
  0
LINE
  8
0
 10
338.601
 20
6.37532
 11
338.828
 21
6.51471
  0
LINE
  8
0
 10
338.828
 20
6.51471
 11
339.075
 21
6.61679
  0
LINE
  8
0
 10
339.075
 20
6.61679
 11
339.334
 21
6.67906
  0
LINE
  8
0
 10
339.334
 20
6.67906
 11
339.6
 21
6.7
  0
LINE
  8
0
 10
339.6
 20
6.7
 11
339.866
 21
6.67906
  0
LINE
  8
0
 10
339.866
 20
6.67906
 11
340.125
 21
6.61679
  0
LINE
  8
0
 10
340.125
 20
6.61679
 11
340.372
 21
6.51471
  0
LINE
  8
0
 10
340.372
 20
6.51471
 11
340.599
 21
6.37532
  0
LINE
  8
0
 10
340.599
 20
6.37532
 11
340.802
 21
6.20207
  0
LINE
  8
0
 10
340.802
 20
6.20207
 11
340.975
 21
5.99922
  0
LINE
  8
0
 10
340.975
 20
5.99922
 11
341.115
 21
5.77177
  0
LINE
  8
0
 10
341.115
 20
5.77177
 11
341.217
 21
5.52531
  0
LINE
  8
0
 10
341.217
 20
5.52531
 11
341.279
 21
5.26593
  0
LINE
  8
0
 10
341.279
 20
5.26593
 11
341.3
 21
5
  0
LINE
  8
0
 10
341.3
 20
5
 11
341.279
 21
4.73405
  0
LINE
  8
0
 10
341.279
 20
4.73405
 11
341.217
 21
4.47467
  0
LINE
  8
0
 10
341.217
 20
4.47467
 11
341.115
 21
4.22821
  0
LINE
  8
0
 10
341.115
 20
4.22821
 11
340.975
 21
4.00076
  0
LINE
  8
0
 10
340.975
 20
4.00076
 11
340.802
 21
3.79791
  0
LINE
  8
0
 10
340.802
 20
3.79791
 11
340.599
 21
3.62466
  0
LINE
  8
0
 10
340.599
 20
3.62466
 11
340.372
 21
3.48528
  0
LINE
  8
0
 10
340.372
 20
3.48528
 11
340.125
 21
3.38319
  0
LINE
  8
0
 10
340.125
 20
3.38319
 11
339.866
 21
3.32092
  0
LINE
  8
0
 10
339.866
 20
3.32092
 11
339.6
 21
3.29999
  0
LINE
  8
0
 10
339.6
 20
3.29999
 11
339.334
 21
3.32092
  0
ENDSEC
  0
SECTION
  2
OBJECTS
  0
DICTIONARY
  0
ENDSEC
  0
EOF
