  0
SECTION
  2
BLOCKS
  0
ENDSEC
  0
SECTION
  2
ENTITIES
  0
LINE
  8
0
 10
319.1
 20
57
 11
0
 21
57
  0
LINE
  8
0
 10
0
 20
57
 11
0
 21
0
  0
LINE
  8
0
 10
0
 20
0
 11
319.1
 21
0
  0
LINE
  8
0
 10
319.1
 20
0
 11
319.1
 21
57
  0
LINE
  8
0
 10
17.0341
 20
45.0209
 11
16.7747
 21
45.0832
  0
LINE
  8
0
 10
16.7747
 20
45.0832
 11
16.5282
 21
45.1853
  0
LINE
  8
0
 10
16.5282
 20
45.1853
 11
16.3008
 21
45.3247
  0
LINE
  8
0
 10
16.3008
 20
45.3247
 11
16.0979
 21
45.4979
  0
LINE
  8
0
 10
16.0979
 20
45.4979
 11
15.9247
 21
45.7008
  0
LINE
  8
0
 10
15.9247
 20
45.7008
 11
15.7853
 21
45.9282
  0
LINE
  8
0
 10
15.7853
 20
45.9282
 11
15.6832
 21
46.1747
  0
LINE
  8
0
 10
15.6832
 20
46.1747
 11
15.6209
 21
46.4341
  0
LINE
  8
0
 10
15.6209
 20
46.4341
 11
15.6
 21
46.7
  0
LINE
  8
0
 10
15.6
 20
46.7
 11
15.6209
 21
46.9659
  0
LINE
  8
0
 10
15.6209
 20
46.9659
 11
15.6832
 21
47.2253
  0
LINE
  8
0
 10
15.6832
 20
47.2253
 11
15.7853
 21
47.4718
  0
LINE
  8
0
 10
15.7853
 20
47.4718
 11
15.9247
 21
47.6992
  0
LINE
  8
0
 10
15.9247
 20
47.6992
 11
16.0979
 21
47.9021
  0
LINE
  8
0
 10
16.0979
 20
47.9021
 11
16.3008
 21
48.0753
  0
LINE
  8
0
 10
16.3008
 20
48.0753
 11
16.5282
 21
48.2147
  0
LINE
  8
0
 10
16.5282
 20
48.2147
 11
16.7747
 21
48.3168
  0
LINE
  8
0
 10
16.7747
 20
48.3168
 11
17.0341
 21
48.3791
  0
LINE
  8
0
 10
17.0341
 20
48.3791
 11
17.3
 21
48.4
  0
LINE
  8
0
 10
17.3
 20
48.4
 11
17.5659
 21
48.3791
  0
LINE
  8
0
 10
17.5659
 20
48.3791
 11
17.8253
 21
48.3168
  0
LINE
  8
0
 10
17.8253
 20
48.3168
 11
18.0718
 21
48.2147
  0
LINE
  8
0
 10
18.0718
 20
48.2147
 11
18.2992
 21
48.0753
  0
LINE
  8
0
 10
18.2992
 20
48.0753
 11
18.5021
 21
47.9021
  0
LINE
  8
0
 10
18.5021
 20
47.9021
 11
18.6753
 21
47.6992
  0
LINE
  8
0
 10
18.6753
 20
47.6992
 11
18.8147
 21
47.4718
  0
LINE
  8
0
 10
18.8147
 20
47.4718
 11
18.9168
 21
47.2253
  0
LINE
  8
0
 10
18.9168
 20
47.2253
 11
18.9791
 21
46.9659
  0
LINE
  8
0
 10
18.9791
 20
46.9659
 11
19
 21
46.7
  0
LINE
  8
0
 10
19
 20
46.7
 11
18.9791
 21
46.4341
  0
LINE
  8
0
 10
18.9791
 20
46.4341
 11
18.9168
 21
46.1747
  0
LINE
  8
0
 10
18.9168
 20
46.1747
 11
18.8147
 21
45.9282
  0
LINE
  8
0
 10
18.8147
 20
45.9282
 11
18.6753
 21
45.7008
  0
LINE
  8
0
 10
18.6753
 20
45.7008
 11
18.5021
 21
45.4979
  0
LINE
  8
0
 10
18.5021
 20
45.4979
 11
18.2992
 21
45.3247
  0
LINE
  8
0
 10
18.2992
 20
45.3247
 11
18.0718
 21
45.1853
  0
LINE
  8
0
 10
18.0718
 20
45.1853
 11
17.8253
 21
45.0832
  0
LINE
  8
0
 10
17.8253
 20
45.0832
 11
17.5659
 21
45.0209
  0
LINE
  8
0
 10
17.5659
 20
45.0209
 11
17.3
 21
45
  0
LINE
  8
0
 10
17.3
 20
45
 11
17.0341
 21
45.0209
  0
LINE
  8
0
 10
126.834
 20
45.0209
 11
126.575
 21
45.0832
  0
LINE
  8
0
 10
126.575
 20
45.0832
 11
126.328
 21
45.1853
  0
LINE
  8
0
 10
126.328
 20
45.1853
 11
126.101
 21
45.3247
  0
LINE
  8
0
 10
126.101
 20
45.3247
 11
125.898
 21
45.4979
  0
LINE
  8
0
 10
125.898
 20
45.4979
 11
125.725
 21
45.7008
  0
LINE
  8
0
 10
125.725
 20
45.7008
 11
125.585
 21
45.9282
  0
LINE
  8
0
 10
125.585
 20
45.9282
 11
125.483
 21
46.1747
  0
LINE
  8
0
 10
125.483
 20
46.1747
 11
125.421
 21
46.4341
  0
LINE
  8
0
 10
125.421
 20
46.4341
 11
125.4
 21
46.7
  0
LINE
  8
0
 10
125.4
 20
46.7
 11
125.421
 21
46.9659
  0
LINE
  8
0
 10
125.421
 20
46.9659
 11
125.483
 21
47.2253
  0
LINE
  8
0
 10
125.483
 20
47.2253
 11
125.585
 21
47.4718
  0
LINE
  8
0
 10
125.585
 20
47.4718
 11
125.725
 21
47.6992
  0
LINE
  8
0
 10
125.725
 20
47.6992
 11
125.898
 21
47.9021
  0
LINE
  8
0
 10
125.898
 20
47.9021
 11
126.101
 21
48.0753
  0
LINE
  8
0
 10
126.101
 20
48.0753
 11
126.328
 21
48.2147
  0
LINE
  8
0
 10
126.328
 20
48.2147
 11
126.575
 21
48.3168
  0
LINE
  8
0
 10
126.575
 20
48.3168
 11
126.834
 21
48.3791
  0
LINE
  8
0
 10
126.834
 20
48.3791
 11
127.1
 21
48.4
  0
LINE
  8
0
 10
127.1
 20
48.4
 11
127.366
 21
48.3791
  0
LINE
  8
0
 10
127.366
 20
48.3791
 11
127.625
 21
48.3168
  0
LINE
  8
0
 10
127.625
 20
48.3168
 11
127.872
 21
48.2147
  0
LINE
  8
0
 10
127.872
 20
48.2147
 11
128.099
 21
48.0753
  0
LINE
  8
0
 10
128.099
 20
48.0753
 11
128.302
 21
47.9021
  0
LINE
  8
0
 10
128.302
 20
47.9021
 11
128.475
 21
47.6992
  0
LINE
  8
0
 10
128.475
 20
47.6992
 11
128.615
 21
47.4718
  0
LINE
  8
0
 10
128.615
 20
47.4718
 11
128.717
 21
47.2253
  0
LINE
  8
0
 10
128.717
 20
47.2253
 11
128.779
 21
46.9659
  0
LINE
  8
0
 10
128.779
 20
46.9659
 11
128.8
 21
46.7
  0
LINE
  8
0
 10
128.8
 20
46.7
 11
128.779
 21
46.4341
  0
LINE
  8
0
 10
128.779
 20
46.4341
 11
128.717
 21
46.1747
  0
LINE
  8
0
 10
128.717
 20
46.1747
 11
128.615
 21
45.9282
  0
LINE
  8
0
 10
128.615
 20
45.9282
 11
128.475
 21
45.7008
  0
LINE
  8
0
 10
128.475
 20
45.7008
 11
128.302
 21
45.4979
  0
LINE
  8
0
 10
128.302
 20
45.4979
 11
128.099
 21
45.3247
  0
LINE
  8
0
 10
128.099
 20
45.3247
 11
127.872
 21
45.1853
  0
LINE
  8
0
 10
127.872
 20
45.1853
 11
127.625
 21
45.0832
  0
LINE
  8
0
 10
127.625
 20
45.0832
 11
127.366
 21
45.0209
  0
LINE
  8
0
 10
127.366
 20
45.0209
 11
127.1
 21
45
  0
LINE
  8
0
 10
127.1
 20
45
 11
126.834
 21
45.0209
  0
LINE
  8
0
 10
249.534
 20
45.0209
 11
249.275
 21
45.0832
  0
LINE
  8
0
 10
249.275
 20
45.0832
 11
249.028
 21
45.1853
  0
LINE
  8
0
 10
249.028
 20
45.1853
 11
248.801
 21
45.3247
  0
LINE
  8
0
 10
248.801
 20
45.3247
 11
248.598
 21
45.4979
  0
LINE
  8
0
 10
248.598
 20
45.4979
 11
248.425
 21
45.7008
  0
LINE
  8
0
 10
248.425
 20
45.7008
 11
248.285
 21
45.9282
  0
LINE
  8
0
 10
248.285
 20
45.9282
 11
248.183
 21
46.1747
  0
LINE
  8
0
 10
248.183
 20
46.1747
 11
248.121
 21
46.4341
  0
LINE
  8
0
 10
248.121
 20
46.4341
 11
248.1
 21
46.7
  0
LINE
  8
0
 10
248.1
 20
46.7
 11
248.121
 21
46.9659
  0
LINE
  8
0
 10
248.121
 20
46.9659
 11
248.183
 21
47.2253
  0
LINE
  8
0
 10
248.183
 20
47.2253
 11
248.285
 21
47.4718
  0
LINE
  8
0
 10
248.285
 20
47.4718
 11
248.425
 21
47.6992
  0
LINE
  8
0
 10
248.425
 20
47.6992
 11
248.598
 21
47.9021
  0
LINE
  8
0
 10
248.598
 20
47.9021
 11
248.801
 21
48.0753
  0
LINE
  8
0
 10
248.801
 20
48.0753
 11
249.028
 21
48.2147
  0
LINE
  8
0
 10
249.028
 20
48.2147
 11
249.275
 21
48.3168
  0
LINE
  8
0
 10
249.275
 20
48.3168
 11
249.534
 21
48.3791
  0
LINE
  8
0
 10
249.534
 20
48.3791
 11
249.8
 21
48.4
  0
LINE
  8
0
 10
249.8
 20
48.4
 11
250.066
 21
48.3791
  0
LINE
  8
0
 10
250.066
 20
48.3791
 11
250.325
 21
48.3168
  0
LINE
  8
0
 10
250.325
 20
48.3168
 11
250.572
 21
48.2147
  0
LINE
  8
0
 10
250.572
 20
48.2147
 11
250.799
 21
48.0753
  0
LINE
  8
0
 10
250.799
 20
48.0753
 11
251.002
 21
47.9021
  0
LINE
  8
0
 10
251.002
 20
47.9021
 11
251.175
 21
47.6992
  0
LINE
  8
0
 10
251.175
 20
47.6992
 11
251.315
 21
47.4718
  0
LINE
  8
0
 10
251.315
 20
47.4718
 11
251.417
 21
47.2253
  0
LINE
  8
0
 10
251.417
 20
47.2253
 11
251.479
 21
46.9659
  0
LINE
  8
0
 10
251.479
 20
46.9659
 11
251.5
 21
46.7
  0
LINE
  8
0
 10
251.5
 20
46.7
 11
251.479
 21
46.4341
  0
LINE
  8
0
 10
251.479
 20
46.4341
 11
251.417
 21
46.1747
  0
LINE
  8
0
 10
251.417
 20
46.1747
 11
251.315
 21
45.9282
  0
LINE
  8
0
 10
251.315
 20
45.9282
 11
251.175
 21
45.7008
  0
LINE
  8
0
 10
251.175
 20
45.7008
 11
251.002
 21
45.4979
  0
LINE
  8
0
 10
251.002
 20
45.4979
 11
250.799
 21
45.3247
  0
LINE
  8
0
 10
250.799
 20
45.3247
 11
250.572
 21
45.1853
  0
LINE
  8
0
 10
250.572
 20
45.1853
 11
250.325
 21
45.0832
  0
LINE
  8
0
 10
250.325
 20
45.0832
 11
250.066
 21
45.0209
  0
LINE
  8
0
 10
250.066
 20
45.0209
 11
249.8
 21
45
  0
LINE
  8
0
 10
249.8
 20
45
 11
249.534
 21
45.0209
  0
LINE
  8
0
 10
35
 20
9.5
 11
35
 21
47.5
  0
LINE
  8
0
 10
35
 20
47.5
 11
53
 21
47.5
  0
LINE
  8
0
 10
53
 20
47.5
 11
53
 21
9.5
  0
LINE
  8
0
 10
53
 20
9.5
 11
35
 21
9.5
  0
LINE
  8
0
 10
75
 20
9.5
 11
75
 21
47.5
  0
LINE
  8
0
 10
75
 20
47.5
 11
93
 21
47.5
  0
LINE
  8
0
 10
93
 20
47.5
 11
93
 21
9.5
  0
LINE
  8
0
 10
93
 20
9.5
 11
75
 21
9.5
  0
LINE
  8
0
 10
143.2
 20
9.5
 11
143.2
 21
47.5
  0
LINE
  8
0
 10
143.2
 20
47.5
 11
161.2
 21
47.5
  0
LINE
  8
0
 10
161.2
 20
47.5
 11
161.2
 21
9.5
  0
LINE
  8
0
 10
161.2
 20
9.5
 11
143.2
 21
9.5
  0
LINE
  8
0
 10
183.2
 20
9.5
 11
183.2
 21
47.5
  0
LINE
  8
0
 10
183.2
 20
47.5
 11
201.2
 21
47.5
  0
LINE
  8
0
 10
201.2
 20
47.5
 11
201.2
 21
9.5
  0
LINE
  8
0
 10
201.2
 20
9.5
 11
183.2
 21
9.5
  0
LINE
  8
0
 10
126.826
 20
36.7715
 11
126.559
 21
36.8356
  0
LINE
  8
0
 10
126.559
 20
36.8356
 11
126.306
 21
36.9407
  0
LINE
  8
0
 10
126.306
 20
36.9407
 11
126.071
 21
37.0842
  0
LINE
  8
0
 10
126.071
 20
37.0842
 11
125.863
 21
37.2626
  0
LINE
  8
0
 10
125.863
 20
37.2626
 11
125.684
 21
37.4714
  0
LINE
  8
0
 10
125.684
 20
37.4714
 11
125.541
 21
37.7055
  0
LINE
  8
0
 10
125.541
 20
37.7055
 11
125.436
 21
37.9592
  0
LINE
  8
0
 10
125.436
 20
37.9592
 11
125.372
 21
38.2262
  0
LINE
  8
0
 10
125.372
 20
38.2262
 11
125.35
 21
38.5
  0
LINE
  8
0
 10
125.35
 20
38.5
 11
125.372
 21
38.7738
  0
LINE
  8
0
 10
125.372
 20
38.7738
 11
125.436
 21
39.0408
  0
LINE
  8
0
 10
125.436
 20
39.0408
 11
125.541
 21
39.2945
  0
LINE
  8
0
 10
125.541
 20
39.2945
 11
125.684
 21
39.5286
  0
LINE
  8
0
 10
125.684
 20
39.5286
 11
125.863
 21
39.7374
  0
LINE
  8
0
 10
125.863
 20
39.7374
 11
126.071
 21
39.9158
  0
LINE
  8
0
 10
126.071
 20
39.9158
 11
126.306
 21
40.0592
  0
LINE
  8
0
 10
126.306
 20
40.0592
 11
126.559
 21
40.1643
  0
LINE
  8
0
 10
126.559
 20
40.1643
 11
126.826
 21
40.2285
  0
LINE
  8
0
 10
126.826
 20
40.2285
 11
127.1
 21
40.25
  0
LINE
  8
0
 10
127.1
 20
40.25
 11
127.374
 21
40.2285
  0
LINE
  8
0
 10
127.374
 20
40.2285
 11
127.641
 21
40.1643
  0
LINE
  8
0
 10
127.641
 20
40.1643
 11
127.894
 21
40.0592
  0
LINE
  8
0
 10
127.894
 20
40.0592
 11
128.129
 21
39.9158
  0
LINE
  8
0
 10
128.129
 20
39.9158
 11
128.337
 21
39.7374
  0
LINE
  8
0
 10
128.337
 20
39.7374
 11
128.516
 21
39.5286
  0
LINE
  8
0
 10
128.516
 20
39.5286
 11
128.659
 21
39.2945
  0
LINE
  8
0
 10
128.659
 20
39.2945
 11
128.764
 21
39.0408
  0
LINE
  8
0
 10
128.764
 20
39.0408
 11
128.828
 21
38.7738
  0
LINE
  8
0
 10
128.828
 20
38.7738
 11
128.85
 21
38.5
  0
LINE
  8
0
 10
128.85
 20
38.5
 11
128.828
 21
38.2262
  0
LINE
  8
0
 10
128.828
 20
38.2262
 11
128.764
 21
37.9592
  0
LINE
  8
0
 10
128.764
 20
37.9592
 11
128.659
 21
37.7055
  0
LINE
  8
0
 10
128.659
 20
37.7055
 11
128.516
 21
37.4714
  0
LINE
  8
0
 10
128.516
 20
37.4714
 11
128.337
 21
37.2626
  0
LINE
  8
0
 10
128.337
 20
37.2626
 11
128.129
 21
37.0842
  0
LINE
  8
0
 10
128.129
 20
37.0842
 11
127.894
 21
36.9407
  0
LINE
  8
0
 10
127.894
 20
36.9407
 11
127.641
 21
36.8356
  0
LINE
  8
0
 10
127.641
 20
36.8356
 11
127.374
 21
36.7715
  0
LINE
  8
0
 10
127.374
 20
36.7715
 11
127.1
 21
36.75
  0
LINE
  8
0
 10
127.1
 20
36.75
 11
126.826
 21
36.7715
  0
LINE
  8
0
 10
126.826
 20
16.7715
 11
126.559
 21
16.8356
  0
LINE
  8
0
 10
126.559
 20
16.8356
 11
126.306
 21
16.9407
  0
LINE
  8
0
 10
126.306
 20
16.9407
 11
126.071
 21
17.0842
  0
LINE
  8
0
 10
126.071
 20
17.0842
 11
125.863
 21
17.2626
  0
LINE
  8
0
 10
125.863
 20
17.2626
 11
125.684
 21
17.4714
  0
LINE
  8
0
 10
125.684
 20
17.4714
 11
125.541
 21
17.7055
  0
LINE
  8
0
 10
125.541
 20
17.7055
 11
125.436
 21
17.9592
  0
LINE
  8
0
 10
125.436
 20
17.9592
 11
125.372
 21
18.2262
  0
LINE
  8
0
 10
125.372
 20
18.2262
 11
125.35
 21
18.5
  0
LINE
  8
0
 10
125.35
 20
18.5
 11
125.372
 21
18.7738
  0
LINE
  8
0
 10
125.372
 20
18.7738
 11
125.436
 21
19.0408
  0
LINE
  8
0
 10
125.436
 20
19.0408
 11
125.541
 21
19.2945
  0
LINE
  8
0
 10
125.541
 20
19.2945
 11
125.684
 21
19.5286
  0
LINE
  8
0
 10
125.684
 20
19.5286
 11
125.863
 21
19.7374
  0
LINE
  8
0
 10
125.863
 20
19.7374
 11
126.071
 21
19.9158
  0
LINE
  8
0
 10
126.071
 20
19.9158
 11
126.306
 21
20.0592
  0
LINE
  8
0
 10
126.306
 20
20.0592
 11
126.559
 21
20.1643
  0
LINE
  8
0
 10
126.559
 20
20.1643
 11
126.826
 21
20.2285
  0
LINE
  8
0
 10
126.826
 20
20.2285
 11
127.1
 21
20.25
  0
LINE
  8
0
 10
127.1
 20
20.25
 11
127.374
 21
20.2285
  0
LINE
  8
0
 10
127.374
 20
20.2285
 11
127.641
 21
20.1643
  0
LINE
  8
0
 10
127.641
 20
20.1643
 11
127.894
 21
20.0592
  0
LINE
  8
0
 10
127.894
 20
20.0592
 11
128.129
 21
19.9158
  0
LINE
  8
0
 10
128.129
 20
19.9158
 11
128.337
 21
19.7374
  0
LINE
  8
0
 10
128.337
 20
19.7374
 11
128.516
 21
19.5286
  0
LINE
  8
0
 10
128.516
 20
19.5286
 11
128.659
 21
19.2945
  0
LINE
  8
0
 10
128.659
 20
19.2945
 11
128.764
 21
19.0408
  0
LINE
  8
0
 10
128.764
 20
19.0408
 11
128.828
 21
18.7738
  0
LINE
  8
0
 10
128.828
 20
18.7738
 11
128.85
 21
18.5
  0
LINE
  8
0
 10
128.85
 20
18.5
 11
128.828
 21
18.2262
  0
LINE
  8
0
 10
128.828
 20
18.2262
 11
128.764
 21
17.9592
  0
LINE
  8
0
 10
128.764
 20
17.9592
 11
128.659
 21
17.7055
  0
LINE
  8
0
 10
128.659
 20
17.7055
 11
128.516
 21
17.4714
  0
LINE
  8
0
 10
128.516
 20
17.4714
 11
128.337
 21
17.2626
  0
LINE
  8
0
 10
128.337
 20
17.2626
 11
128.129
 21
17.0842
  0
LINE
  8
0
 10
128.129
 20
17.0842
 11
127.894
 21
16.9407
  0
LINE
  8
0
 10
127.894
 20
16.9407
 11
127.641
 21
16.8356
  0
LINE
  8
0
 10
127.641
 20
16.8356
 11
127.374
 21
16.7715
  0
LINE
  8
0
 10
127.374
 20
16.7715
 11
127.1
 21
16.75
  0
LINE
  8
0
 10
127.1
 20
16.75
 11
126.826
 21
16.7715
  0
LINE
  8
0
 10
17.0341
 20
8.62093
 11
16.7747
 21
8.6832
  0
LINE
  8
0
 10
16.7747
 20
8.6832
 11
16.5282
 21
8.78528
  0
LINE
  8
0
 10
16.5282
 20
8.78528
 11
16.3008
 21
8.92467
  0
LINE
  8
0
 10
16.3008
 20
8.92467
 11
16.0979
 21
9.09792
  0
LINE
  8
0
 10
16.0979
 20
9.09792
 11
15.9247
 21
9.30075
  0
LINE
  8
0
 10
15.9247
 20
9.30075
 11
15.7853
 21
9.52821
  0
LINE
  8
0
 10
15.7853
 20
9.52821
 11
15.6832
 21
9.77466
  0
LINE
  8
0
 10
15.6832
 20
9.77466
 11
15.6209
 21
10.0341
  0
LINE
  8
0
 10
15.6209
 20
10.0341
 11
15.6
 21
10.3
  0
LINE
  8
0
 10
15.6
 20
10.3
 11
15.6209
 21
10.5659
  0
LINE
  8
0
 10
15.6209
 20
10.5659
 11
15.6832
 21
10.8253
  0
LINE
  8
0
 10
15.6832
 20
10.8253
 11
15.7853
 21
11.0718
  0
LINE
  8
0
 10
15.7853
 20
11.0718
 11
15.9247
 21
11.2992
  0
LINE
  8
0
 10
15.9247
 20
11.2992
 11
16.0979
 21
11.5021
  0
LINE
  8
0
 10
16.0979
 20
11.5021
 11
16.3008
 21
11.6753
  0
LINE
  8
0
 10
16.3008
 20
11.6753
 11
16.5282
 21
11.8147
  0
LINE
  8
0
 10
16.5282
 20
11.8147
 11
16.7747
 21
11.9168
  0
LINE
  8
0
 10
16.7747
 20
11.9168
 11
17.0341
 21
11.9791
  0
LINE
  8
0
 10
17.0341
 20
11.9791
 11
17.3
 21
12
  0
LINE
  8
0
 10
17.3
 20
12
 11
17.5659
 21
11.9791
  0
LINE
  8
0
 10
17.5659
 20
11.9791
 11
17.8253
 21
11.9168
  0
LINE
  8
0
 10
17.8253
 20
11.9168
 11
18.0718
 21
11.8147
  0
LINE
  8
0
 10
18.0718
 20
11.8147
 11
18.2992
 21
11.6753
  0
LINE
  8
0
 10
18.2992
 20
11.6753
 11
18.5021
 21
11.5021
  0
LINE
  8
0
 10
18.5021
 20
11.5021
 11
18.6753
 21
11.2992
  0
LINE
  8
0
 10
18.6753
 20
11.2992
 11
18.8147
 21
11.0718
  0
LINE
  8
0
 10
18.8147
 20
11.0718
 11
18.9168
 21
10.8253
  0
LINE
  8
0
 10
18.9168
 20
10.8253
 11
18.9791
 21
10.5659
  0
LINE
  8
0
 10
18.9791
 20
10.5659
 11
19
 21
10.3
  0
LINE
  8
0
 10
19
 20
10.3
 11
18.9791
 21
10.0341
  0
LINE
  8
0
 10
18.9791
 20
10.0341
 11
18.9168
 21
9.77466
  0
LINE
  8
0
 10
18.9168
 20
9.77466
 11
18.8147
 21
9.52821
  0
LINE
  8
0
 10
18.8147
 20
9.52821
 11
18.6753
 21
9.30075
  0
LINE
  8
0
 10
18.6753
 20
9.30075
 11
18.5021
 21
9.09792
  0
LINE
  8
0
 10
18.5021
 20
9.09792
 11
18.2992
 21
8.92467
  0
LINE
  8
0
 10
18.2992
 20
8.92467
 11
18.0718
 21
8.78528
  0
LINE
  8
0
 10
18.0718
 20
8.78528
 11
17.8253
 21
8.6832
  0
LINE
  8
0
 10
17.8253
 20
8.6832
 11
17.5659
 21
8.62093
  0
LINE
  8
0
 10
17.5659
 20
8.62093
 11
17.3
 21
8.59999
  0
LINE
  8
0
 10
17.3
 20
8.59999
 11
17.0341
 21
8.62093
  0
LINE
  8
0
 10
126.834
 20
8.62093
 11
126.575
 21
8.6832
  0
LINE
  8
0
 10
126.575
 20
8.6832
 11
126.328
 21
8.78528
  0
LINE
  8
0
 10
126.328
 20
8.78528
 11
126.101
 21
8.92467
  0
LINE
  8
0
 10
126.101
 20
8.92467
 11
125.898
 21
9.09792
  0
LINE
  8
0
 10
125.898
 20
9.09792
 11
125.725
 21
9.30075
  0
LINE
  8
0
 10
125.725
 20
9.30075
 11
125.585
 21
9.52821
  0
LINE
  8
0
 10
125.585
 20
9.52821
 11
125.483
 21
9.77466
  0
LINE
  8
0
 10
125.483
 20
9.77466
 11
125.421
 21
10.0341
  0
LINE
  8
0
 10
125.421
 20
10.0341
 11
125.4
 21
10.3
  0
LINE
  8
0
 10
125.4
 20
10.3
 11
125.421
 21
10.5659
  0
LINE
  8
0
 10
125.421
 20
10.5659
 11
125.483
 21
10.8253
  0
LINE
  8
0
 10
125.483
 20
10.8253
 11
125.585
 21
11.0718
  0
LINE
  8
0
 10
125.585
 20
11.0718
 11
125.725
 21
11.2992
  0
LINE
  8
0
 10
125.725
 20
11.2992
 11
125.898
 21
11.5021
  0
LINE
  8
0
 10
125.898
 20
11.5021
 11
126.101
 21
11.6753
  0
LINE
  8
0
 10
126.101
 20
11.6753
 11
126.328
 21
11.8147
  0
LINE
  8
0
 10
126.328
 20
11.8147
 11
126.575
 21
11.9168
  0
LINE
  8
0
 10
126.575
 20
11.9168
 11
126.834
 21
11.9791
  0
LINE
  8
0
 10
126.834
 20
11.9791
 11
127.1
 21
12
  0
LINE
  8
0
 10
127.1
 20
12
 11
127.366
 21
11.9791
  0
LINE
  8
0
 10
127.366
 20
11.9791
 11
127.625
 21
11.9168
  0
LINE
  8
0
 10
127.625
 20
11.9168
 11
127.872
 21
11.8147
  0
LINE
  8
0
 10
127.872
 20
11.8147
 11
128.099
 21
11.6753
  0
LINE
  8
0
 10
128.099
 20
11.6753
 11
128.302
 21
11.5021
  0
LINE
  8
0
 10
128.302
 20
11.5021
 11
128.475
 21
11.2992
  0
LINE
  8
0
 10
128.475
 20
11.2992
 11
128.615
 21
11.0718
  0
LINE
  8
0
 10
128.615
 20
11.0718
 11
128.717
 21
10.8253
  0
LINE
  8
0
 10
128.717
 20
10.8253
 11
128.779
 21
10.5659
  0
LINE
  8
0
 10
128.779
 20
10.5659
 11
128.8
 21
10.3
  0
LINE
  8
0
 10
128.8
 20
10.3
 11
128.779
 21
10.0341
  0
LINE
  8
0
 10
128.779
 20
10.0341
 11
128.717
 21
9.77466
  0
LINE
  8
0
 10
128.717
 20
9.77466
 11
128.615
 21
9.52821
  0
LINE
  8
0
 10
128.615
 20
9.52821
 11
128.475
 21
9.30075
  0
LINE
  8
0
 10
128.475
 20
9.30075
 11
128.302
 21
9.09792
  0
LINE
  8
0
 10
128.302
 20
9.09792
 11
128.099
 21
8.92467
  0
LINE
  8
0
 10
128.099
 20
8.92467
 11
127.872
 21
8.78528
  0
LINE
  8
0
 10
127.872
 20
8.78528
 11
127.625
 21
8.6832
  0
LINE
  8
0
 10
127.625
 20
8.6832
 11
127.366
 21
8.62093
  0
LINE
  8
0
 10
127.366
 20
8.62093
 11
127.1
 21
8.59999
  0
LINE
  8
0
 10
127.1
 20
8.59999
 11
126.834
 21
8.62093
  0
LINE
  8
0
 10
249.534
 20
8.62093
 11
249.275
 21
8.6832
  0
LINE
  8
0
 10
249.275
 20
8.6832
 11
249.028
 21
8.78528
  0
LINE
  8
0
 10
249.028
 20
8.78528
 11
248.801
 21
8.92467
  0
LINE
  8
0
 10
248.801
 20
8.92467
 11
248.598
 21
9.09792
  0
LINE
  8
0
 10
248.598
 20
9.09792
 11
248.425
 21
9.30075
  0
LINE
  8
0
 10
248.425
 20
9.30075
 11
248.285
 21
9.52821
  0
LINE
  8
0
 10
248.285
 20
9.52821
 11
248.183
 21
9.77466
  0
LINE
  8
0
 10
248.183
 20
9.77466
 11
248.121
 21
10.0341
  0
LINE
  8
0
 10
248.121
 20
10.0341
 11
248.1
 21
10.3
  0
LINE
  8
0
 10
248.1
 20
10.3
 11
248.121
 21
10.5659
  0
LINE
  8
0
 10
248.121
 20
10.5659
 11
248.183
 21
10.8253
  0
LINE
  8
0
 10
248.183
 20
10.8253
 11
248.285
 21
11.0718
  0
LINE
  8
0
 10
248.285
 20
11.0718
 11
248.425
 21
11.2992
  0
LINE
  8
0
 10
248.425
 20
11.2992
 11
248.598
 21
11.5021
  0
LINE
  8
0
 10
248.598
 20
11.5021
 11
248.801
 21
11.6753
  0
LINE
  8
0
 10
248.801
 20
11.6753
 11
249.028
 21
11.8147
  0
LINE
  8
0
 10
249.028
 20
11.8147
 11
249.275
 21
11.9168
  0
LINE
  8
0
 10
249.275
 20
11.9168
 11
249.534
 21
11.9791
  0
LINE
  8
0
 10
249.534
 20
11.9791
 11
249.8
 21
12
  0
LINE
  8
0
 10
249.8
 20
12
 11
250.066
 21
11.9791
  0
LINE
  8
0
 10
250.066
 20
11.9791
 11
250.325
 21
11.9168
  0
LINE
  8
0
 10
250.325
 20
11.9168
 11
250.572
 21
11.8147
  0
LINE
  8
0
 10
250.572
 20
11.8147
 11
250.799
 21
11.6753
  0
LINE
  8
0
 10
250.799
 20
11.6753
 11
251.002
 21
11.5021
  0
LINE
  8
0
 10
251.002
 20
11.5021
 11
251.175
 21
11.2992
  0
LINE
  8
0
 10
251.175
 20
11.2992
 11
251.315
 21
11.0718
  0
LINE
  8
0
 10
251.315
 20
11.0718
 11
251.417
 21
10.8253
  0
LINE
  8
0
 10
251.417
 20
10.8253
 11
251.479
 21
10.5659
  0
LINE
  8
0
 10
251.479
 20
10.5659
 11
251.5
 21
10.3
  0
LINE
  8
0
 10
251.5
 20
10.3
 11
251.479
 21
10.0341
  0
LINE
  8
0
 10
251.479
 20
10.0341
 11
251.417
 21
9.77466
  0
LINE
  8
0
 10
251.417
 20
9.77466
 11
251.315
 21
9.52821
  0
LINE
  8
0
 10
251.315
 20
9.52821
 11
251.175
 21
9.30075
  0
LINE
  8
0
 10
251.175
 20
9.30075
 11
251.002
 21
9.09792
  0
LINE
  8
0
 10
251.002
 20
9.09792
 11
250.799
 21
8.92467
  0
LINE
  8
0
 10
250.799
 20
8.92467
 11
250.572
 21
8.78528
  0
LINE
  8
0
 10
250.572
 20
8.78528
 11
250.325
 21
8.6832
  0
LINE
  8
0
 10
250.325
 20
8.6832
 11
250.066
 21
8.62093
  0
LINE
  8
0
 10
250.066
 20
8.62093
 11
249.8
 21
8.59999
  0
LINE
  8
0
 10
249.8
 20
8.59999
 11
249.534
 21
8.62093
  0
ENDSEC
  0
SECTION
  2
OBJECTS
  0
DICTIONARY
  0
ENDSEC
  0
EOF
