  0
SECTION
  2
BLOCKS
  0
ENDSEC
  0
SECTION
  2
ENTITIES
  0
LINE
  8
0
 10
595.932
 20
57
 11
0
 21
57
  0
LINE
  8
0
 10
0
 20
57
 11
0
 21
0
  0
LINE
  8
0
 10
0
 20
0
 11
595.932
 21
0
  0
LINE
  8
0
 10
595.932
 20
0
 11
595.932
 21
57
  0
LINE
  8
0
 10
268.182
 20
31.25
 11
268.182
 21
49.75
  0
LINE
  8
0
 10
268.182
 20
49.75
 11
286.682
 21
49.75
  0
LINE
  8
0
 10
286.682
 20
49.75
 11
286.682
 21
31.25
  0
LINE
  8
0
 10
286.682
 20
31.25
 11
268.182
 21
31.25
  0
LINE
  8
0
 10
474.616
 20
46.3209
 11
474.357
 21
46.3832
  0
LINE
  8
0
 10
474.357
 20
46.3832
 11
474.11
 21
46.4853
  0
LINE
  8
0
 10
474.11
 20
46.4853
 11
473.883
 21
46.6247
  0
LINE
  8
0
 10
473.883
 20
46.6247
 11
473.68
 21
46.7979
  0
LINE
  8
0
 10
473.68
 20
46.7979
 11
473.507
 21
47.0008
  0
LINE
  8
0
 10
473.507
 20
47.0008
 11
473.367
 21
47.2282
  0
LINE
  8
0
 10
473.367
 20
47.2282
 11
473.265
 21
47.4747
  0
LINE
  8
0
 10
473.265
 20
47.4747
 11
473.203
 21
47.7341
  0
LINE
  8
0
 10
473.203
 20
47.7341
 11
473.182
 21
48
  0
LINE
  8
0
 10
473.182
 20
48
 11
473.203
 21
48.2659
  0
LINE
  8
0
 10
473.203
 20
48.2659
 11
473.265
 21
48.5253
  0
LINE
  8
0
 10
473.265
 20
48.5253
 11
473.367
 21
48.7718
  0
LINE
  8
0
 10
473.367
 20
48.7718
 11
473.507
 21
48.9992
  0
LINE
  8
0
 10
473.507
 20
48.9992
 11
473.68
 21
49.2021
  0
LINE
  8
0
 10
473.68
 20
49.2021
 11
473.883
 21
49.3753
  0
LINE
  8
0
 10
473.883
 20
49.3753
 11
474.11
 21
49.5147
  0
LINE
  8
0
 10
474.11
 20
49.5147
 11
474.357
 21
49.6168
  0
LINE
  8
0
 10
474.357
 20
49.6168
 11
474.616
 21
49.6791
  0
LINE
  8
0
 10
474.616
 20
49.6791
 11
474.882
 21
49.7
  0
LINE
  8
0
 10
474.882
 20
49.7
 11
475.148
 21
49.6791
  0
LINE
  8
0
 10
475.148
 20
49.6791
 11
475.407
 21
49.6168
  0
LINE
  8
0
 10
475.407
 20
49.6168
 11
475.654
 21
49.5147
  0
LINE
  8
0
 10
475.654
 20
49.5147
 11
475.881
 21
49.3753
  0
LINE
  8
0
 10
475.881
 20
49.3753
 11
476.084
 21
49.2021
  0
LINE
  8
0
 10
476.084
 20
49.2021
 11
476.257
 21
48.9992
  0
LINE
  8
0
 10
476.257
 20
48.9992
 11
476.397
 21
48.7718
  0
LINE
  8
0
 10
476.397
 20
48.7718
 11
476.499
 21
48.5253
  0
LINE
  8
0
 10
476.499
 20
48.5253
 11
476.561
 21
48.2659
  0
LINE
  8
0
 10
476.561
 20
48.2659
 11
476.582
 21
48
  0
LINE
  8
0
 10
476.582
 20
48
 11
476.561
 21
47.7341
  0
LINE
  8
0
 10
476.561
 20
47.7341
 11
476.499
 21
47.4747
  0
LINE
  8
0
 10
476.499
 20
47.4747
 11
476.397
 21
47.2282
  0
LINE
  8
0
 10
476.397
 20
47.2282
 11
476.257
 21
47.0008
  0
LINE
  8
0
 10
476.257
 20
47.0008
 11
476.084
 21
46.7979
  0
LINE
  8
0
 10
476.084
 20
46.7979
 11
475.881
 21
46.6247
  0
LINE
  8
0
 10
475.881
 20
46.6247
 11
475.654
 21
46.4853
  0
LINE
  8
0
 10
475.654
 20
46.4853
 11
475.407
 21
46.3832
  0
LINE
  8
0
 10
475.407
 20
46.3832
 11
475.148
 21
46.3209
  0
LINE
  8
0
 10
475.148
 20
46.3209
 11
474.882
 21
46.3
  0
LINE
  8
0
 10
474.882
 20
46.3
 11
474.616
 21
46.3209
  0
LINE
  8
0
 10
195.916
 20
46.3209
 11
195.657
 21
46.3832
  0
LINE
  8
0
 10
195.657
 20
46.3832
 11
195.41
 21
46.4853
  0
LINE
  8
0
 10
195.41
 20
46.4853
 11
195.183
 21
46.6247
  0
LINE
  8
0
 10
195.183
 20
46.6247
 11
194.98
 21
46.7979
  0
LINE
  8
0
 10
194.98
 20
46.7979
 11
194.807
 21
47.0008
  0
LINE
  8
0
 10
194.807
 20
47.0008
 11
194.667
 21
47.2282
  0
LINE
  8
0
 10
194.667
 20
47.2282
 11
194.565
 21
47.4747
  0
LINE
  8
0
 10
194.565
 20
47.4747
 11
194.503
 21
47.7341
  0
LINE
  8
0
 10
194.503
 20
47.7341
 11
194.482
 21
48
  0
LINE
  8
0
 10
194.482
 20
48
 11
194.503
 21
48.2659
  0
LINE
  8
0
 10
194.503
 20
48.2659
 11
194.565
 21
48.5253
  0
LINE
  8
0
 10
194.565
 20
48.5253
 11
194.667
 21
48.7718
  0
LINE
  8
0
 10
194.667
 20
48.7718
 11
194.807
 21
48.9992
  0
LINE
  8
0
 10
194.807
 20
48.9992
 11
194.98
 21
49.2021
  0
LINE
  8
0
 10
194.98
 20
49.2021
 11
195.183
 21
49.3753
  0
LINE
  8
0
 10
195.183
 20
49.3753
 11
195.41
 21
49.5147
  0
LINE
  8
0
 10
195.41
 20
49.5147
 11
195.657
 21
49.6168
  0
LINE
  8
0
 10
195.657
 20
49.6168
 11
195.916
 21
49.6791
  0
LINE
  8
0
 10
195.916
 20
49.6791
 11
196.182
 21
49.7
  0
LINE
  8
0
 10
196.182
 20
49.7
 11
196.448
 21
49.6791
  0
LINE
  8
0
 10
196.448
 20
49.6791
 11
196.707
 21
49.6168
  0
LINE
  8
0
 10
196.707
 20
49.6168
 11
196.954
 21
49.5147
  0
LINE
  8
0
 10
196.954
 20
49.5147
 11
197.181
 21
49.3753
  0
LINE
  8
0
 10
197.181
 20
49.3753
 11
197.384
 21
49.2021
  0
LINE
  8
0
 10
197.384
 20
49.2021
 11
197.557
 21
48.9992
  0
LINE
  8
0
 10
197.557
 20
48.9992
 11
197.697
 21
48.7718
  0
LINE
  8
0
 10
197.697
 20
48.7718
 11
197.799
 21
48.5253
  0
LINE
  8
0
 10
197.799
 20
48.5253
 11
197.861
 21
48.2659
  0
LINE
  8
0
 10
197.861
 20
48.2659
 11
197.882
 21
48
  0
LINE
  8
0
 10
197.882
 20
48
 11
197.861
 21
47.7341
  0
LINE
  8
0
 10
197.861
 20
47.7341
 11
197.799
 21
47.4747
  0
LINE
  8
0
 10
197.799
 20
47.4747
 11
197.697
 21
47.2282
  0
LINE
  8
0
 10
197.697
 20
47.2282
 11
197.557
 21
47.0008
  0
LINE
  8
0
 10
197.557
 20
47.0008
 11
197.384
 21
46.7979
  0
LINE
  8
0
 10
197.384
 20
46.7979
 11
197.181
 21
46.6247
  0
LINE
  8
0
 10
197.181
 20
46.6247
 11
196.954
 21
46.4853
  0
LINE
  8
0
 10
196.954
 20
46.4853
 11
196.707
 21
46.3832
  0
LINE
  8
0
 10
196.707
 20
46.3832
 11
196.448
 21
46.3209
  0
LINE
  8
0
 10
196.448
 20
46.3209
 11
196.182
 21
46.3
  0
LINE
  8
0
 10
196.182
 20
46.3
 11
195.916
 21
46.3209
  0
LINE
  8
0
 10
39.1251
 20
46.3209
 11
38.8657
 21
46.3832
  0
LINE
  8
0
 10
38.8657
 20
46.3832
 11
38.6192
 21
46.4853
  0
LINE
  8
0
 10
38.6192
 20
46.4853
 11
38.3918
 21
46.6247
  0
LINE
  8
0
 10
38.3918
 20
46.6247
 11
38.1889
 21
46.7979
  0
LINE
  8
0
 10
38.1889
 20
46.7979
 11
38.0157
 21
47.0008
  0
LINE
  8
0
 10
38.0157
 20
47.0008
 11
37.8763
 21
47.2282
  0
LINE
  8
0
 10
37.8763
 20
47.2282
 11
37.7742
 21
47.4747
  0
LINE
  8
0
 10
37.7742
 20
47.4747
 11
37.7119
 21
47.7341
  0
LINE
  8
0
 10
37.7119
 20
47.7341
 11
37.691
 21
48
  0
LINE
  8
0
 10
37.691
 20
48
 11
37.7119
 21
48.2659
  0
LINE
  8
0
 10
37.7119
 20
48.2659
 11
37.7742
 21
48.5253
  0
LINE
  8
0
 10
37.7742
 20
48.5253
 11
37.8763
 21
48.7718
  0
LINE
  8
0
 10
37.8763
 20
48.7718
 11
38.0157
 21
48.9992
  0
LINE
  8
0
 10
38.0157
 20
48.9992
 11
38.1889
 21
49.2021
  0
LINE
  8
0
 10
38.1889
 20
49.2021
 11
38.3918
 21
49.3753
  0
LINE
  8
0
 10
38.3918
 20
49.3753
 11
38.6192
 21
49.5147
  0
LINE
  8
0
 10
38.6192
 20
49.5147
 11
38.8657
 21
49.6168
  0
LINE
  8
0
 10
38.8657
 20
49.6168
 11
39.1251
 21
49.6791
  0
LINE
  8
0
 10
39.1251
 20
49.6791
 11
39.391
 21
49.7
  0
LINE
  8
0
 10
39.391
 20
49.7
 11
39.6569
 21
49.6791
  0
LINE
  8
0
 10
39.6569
 20
49.6791
 11
39.9163
 21
49.6168
  0
LINE
  8
0
 10
39.9163
 20
49.6168
 11
40.1628
 21
49.5147
  0
LINE
  8
0
 10
40.1628
 20
49.5147
 11
40.3902
 21
49.3753
  0
LINE
  8
0
 10
40.3902
 20
49.3753
 11
40.5931
 21
49.2021
  0
LINE
  8
0
 10
40.5931
 20
49.2021
 11
40.7663
 21
48.9992
  0
LINE
  8
0
 10
40.7663
 20
48.9992
 11
40.9057
 21
48.7718
  0
LINE
  8
0
 10
40.9057
 20
48.7718
 11
41.0078
 21
48.5253
  0
LINE
  8
0
 10
41.0078
 20
48.5253
 11
41.0701
 21
48.2659
  0
LINE
  8
0
 10
41.0701
 20
48.2659
 11
41.091
 21
48
  0
LINE
  8
0
 10
41.091
 20
48
 11
41.0701
 21
47.7341
  0
LINE
  8
0
 10
41.0701
 20
47.7341
 11
41.0078
 21
47.4747
  0
LINE
  8
0
 10
41.0078
 20
47.4747
 11
40.9057
 21
47.2282
  0
LINE
  8
0
 10
40.9057
 20
47.2282
 11
40.7663
 21
47.0008
  0
LINE
  8
0
 10
40.7663
 20
47.0008
 11
40.5931
 21
46.7979
  0
LINE
  8
0
 10
40.5931
 20
46.7979
 11
40.3902
 21
46.6247
  0
LINE
  8
0
 10
40.3902
 20
46.6247
 11
40.1628
 21
46.4853
  0
LINE
  8
0
 10
40.1628
 20
46.4853
 11
39.9163
 21
46.3832
  0
LINE
  8
0
 10
39.9163
 20
46.3832
 11
39.6569
 21
46.3209
  0
LINE
  8
0
 10
39.6569
 20
46.3209
 11
39.391
 21
46.3
  0
LINE
  8
0
 10
39.391
 20
46.3
 11
39.1251
 21
46.3209
  0
LINE
  8
0
 10
321.682
 20
8.5
 11
321.682
 21
48.5
  0
LINE
  8
0
 10
321.682
 20
48.5
 11
333.682
 21
48.5
  0
LINE
  8
0
 10
333.682
 20
48.5
 11
333.682
 21
8.5
  0
LINE
  8
0
 10
333.682
 20
8.5
 11
321.682
 21
8.5
  0
LINE
  8
0
 10
72.282
 20
28.25
 11
72.282
 21
46.75
  0
LINE
  8
0
 10
72.282
 20
46.75
 11
90.782
 21
46.75
  0
LINE
  8
0
 10
90.782
 20
46.75
 11
90.782
 21
28.25
  0
LINE
  8
0
 10
90.782
 20
28.25
 11
72.282
 21
28.25
  0
LINE
  8
0
 10
129.282
 20
28.25
 11
129.282
 21
46.75
  0
LINE
  8
0
 10
129.282
 20
46.75
 11
147.782
 21
46.75
  0
LINE
  8
0
 10
147.782
 20
46.75
 11
147.782
 21
28.25
  0
LINE
  8
0
 10
147.782
 20
28.25
 11
129.282
 21
28.25
  0
LINE
  8
0
 10
91.282
 20
26.5705
 11
91.282
 21
45.0705
  0
LINE
  8
0
 10
91.282
 20
45.0705
 11
109.782
 21
45.0705
  0
LINE
  8
0
 10
109.782
 20
45.0705
 11
109.782
 21
26.5705
  0
LINE
  8
0
 10
109.782
 20
26.5705
 11
91.282
 21
26.5705
  0
LINE
  8
0
 10
110.282
 20
26.5705
 11
110.282
 21
45.0705
  0
LINE
  8
0
 10
110.282
 20
45.0705
 11
128.782
 21
45.0705
  0
LINE
  8
0
 10
128.782
 20
45.0705
 11
128.782
 21
26.5705
  0
LINE
  8
0
 10
128.782
 20
26.5705
 11
110.282
 21
26.5705
  0
LINE
  8
0
 10
10.6481
 20
14.2535
 11
8.5
 21
16.4016
  0
LINE
  8
0
 10
8.5
 20
16.4016
 11
8.5
 21
40.5993
  0
LINE
  8
0
 10
8.5
 20
40.5993
 11
10.648
 21
42.7473
  0
LINE
  8
0
 10
10.648
 20
42.7473
 11
68.2336
 21
42.7702
  0
LINE
  8
0
 10
68.2336
 20
42.7702
 11
70.2822
 21
40.725
  0
LINE
  8
0
 10
70.2822
 20
40.725
 11
70.2822
 21
15.7808
  0
LINE
  8
0
 10
70.2822
 20
15.7808
 11
68.7397
 21
14.2405
  0
LINE
  8
0
 10
68.7397
 20
14.2405
 11
10.6481
 21
14.2535
  0
LINE
  8
0
 10
195.752
 20
35.7838
 11
195.332
 21
35.8846
  0
LINE
  8
0
 10
195.332
 20
35.8846
 11
194.934
 21
36.0497
  0
LINE
  8
0
 10
194.934
 20
36.0497
 11
194.566
 21
36.2752
  0
LINE
  8
0
 10
194.566
 20
36.2752
 11
194.237
 21
36.5555
  0
LINE
  8
0
 10
194.237
 20
36.5555
 11
193.957
 21
36.8836
  0
LINE
  8
0
 10
193.957
 20
36.8836
 11
193.732
 21
37.2515
  0
LINE
  8
0
 10
193.732
 20
37.2515
 11
193.567
 21
37.6502
  0
LINE
  8
0
 10
193.567
 20
37.6502
 11
193.466
 21
38.0698
  0
LINE
  8
0
 10
193.466
 20
38.0698
 11
193.432
 21
38.5
  0
LINE
  8
0
 10
193.432
 20
38.5
 11
193.466
 21
38.9302
  0
LINE
  8
0
 10
193.466
 20
38.9302
 11
193.567
 21
39.3498
  0
LINE
  8
0
 10
193.567
 20
39.3498
 11
193.732
 21
39.7485
  0
LINE
  8
0
 10
193.732
 20
39.7485
 11
193.957
 21
40.1164
  0
LINE
  8
0
 10
193.957
 20
40.1164
 11
194.237
 21
40.4445
  0
LINE
  8
0
 10
194.237
 20
40.4445
 11
194.566
 21
40.7248
  0
LINE
  8
0
 10
194.566
 20
40.7248
 11
194.934
 21
40.9503
  0
LINE
  8
0
 10
194.934
 20
40.9503
 11
195.332
 21
41.1154
  0
LINE
  8
0
 10
195.332
 20
41.1154
 11
195.752
 21
41.2161
  0
LINE
  8
0
 10
195.752
 20
41.2161
 11
196.182
 21
41.25
  0
LINE
  8
0
 10
196.182
 20
41.25
 11
196.612
 21
41.2161
  0
LINE
  8
0
 10
196.612
 20
41.2161
 11
197.032
 21
41.1154
  0
LINE
  8
0
 10
197.032
 20
41.1154
 11
197.43
 21
40.9503
  0
LINE
  8
0
 10
197.43
 20
40.9503
 11
197.798
 21
40.7248
  0
LINE
  8
0
 10
197.798
 20
40.7248
 11
198.127
 21
40.4445
  0
LINE
  8
0
 10
198.127
 20
40.4445
 11
198.407
 21
40.1164
  0
LINE
  8
0
 10
198.407
 20
40.1164
 11
198.632
 21
39.7485
  0
LINE
  8
0
 10
198.632
 20
39.7485
 11
198.797
 21
39.3498
  0
LINE
  8
0
 10
198.797
 20
39.3498
 11
198.898
 21
38.9302
  0
LINE
  8
0
 10
198.898
 20
38.9302
 11
198.932
 21
38.5
  0
LINE
  8
0
 10
198.932
 20
38.5
 11
198.898
 21
38.0698
  0
LINE
  8
0
 10
198.898
 20
38.0698
 11
198.797
 21
37.6502
  0
LINE
  8
0
 10
198.797
 20
37.6502
 11
198.632
 21
37.2515
  0
LINE
  8
0
 10
198.632
 20
37.2515
 11
198.407
 21
36.8836
  0
LINE
  8
0
 10
198.407
 20
36.8836
 11
198.127
 21
36.5555
  0
LINE
  8
0
 10
198.127
 20
36.5555
 11
197.798
 21
36.2752
  0
LINE
  8
0
 10
197.798
 20
36.2752
 11
197.43
 21
36.0497
  0
LINE
  8
0
 10
197.43
 20
36.0497
 11
197.032
 21
35.8846
  0
LINE
  8
0
 10
197.032
 20
35.8846
 11
196.612
 21
35.7838
  0
LINE
  8
0
 10
196.612
 20
35.7838
 11
196.182
 21
35.75
  0
LINE
  8
0
 10
196.182
 20
35.75
 11
195.752
 21
35.7838
  0
LINE
  8
0
 10
248.182
 20
19.25
 11
248.182
 21
37.75
  0
LINE
  8
0
 10
248.182
 20
37.75
 11
266.682
 21
37.75
  0
LINE
  8
0
 10
266.682
 20
37.75
 11
266.682
 21
19.25
  0
LINE
  8
0
 10
266.682
 20
19.25
 11
248.182
 21
19.25
  0
LINE
  8
0
 10
300.182
 20
19.25
 11
300.182
 21
37.75
  0
LINE
  8
0
 10
300.182
 20
37.75
 11
318.682
 21
37.75
  0
LINE
  8
0
 10
318.682
 20
37.75
 11
318.682
 21
19.25
  0
LINE
  8
0
 10
318.682
 20
19.25
 11
300.182
 21
19.25
  0
LINE
  8
0
 10
129.282
 20
9.25
 11
129.282
 21
27.75
  0
LINE
  8
0
 10
129.282
 20
27.75
 11
147.782
 21
27.75
  0
LINE
  8
0
 10
147.782
 20
27.75
 11
147.782
 21
9.25
  0
LINE
  8
0
 10
147.782
 20
9.25
 11
129.282
 21
9.25
  0
LINE
  8
0
 10
72.282
 20
9.25
 11
72.282
 21
27.75
  0
LINE
  8
0
 10
72.282
 20
27.75
 11
90.782
 21
27.75
  0
LINE
  8
0
 10
90.782
 20
27.75
 11
90.782
 21
9.25
  0
LINE
  8
0
 10
90.782
 20
9.25
 11
72.282
 21
9.25
  0
LINE
  8
0
 10
268.182
 20
7.25
 11
268.182
 21
25.75
  0
LINE
  8
0
 10
268.182
 20
25.75
 11
286.682
 21
25.75
  0
LINE
  8
0
 10
286.682
 20
25.75
 11
286.682
 21
7.25
  0
LINE
  8
0
 10
286.682
 20
7.25
 11
268.182
 21
7.25
  0
LINE
  8
0
 10
195.752
 20
15.7838
 11
195.332
 21
15.8846
  0
LINE
  8
0
 10
195.332
 20
15.8846
 11
194.934
 21
16.0497
  0
LINE
  8
0
 10
194.934
 20
16.0497
 11
194.566
 21
16.2752
  0
LINE
  8
0
 10
194.566
 20
16.2752
 11
194.237
 21
16.5555
  0
LINE
  8
0
 10
194.237
 20
16.5555
 11
193.957
 21
16.8836
  0
LINE
  8
0
 10
193.957
 20
16.8836
 11
193.732
 21
17.2515
  0
LINE
  8
0
 10
193.732
 20
17.2515
 11
193.567
 21
17.6502
  0
LINE
  8
0
 10
193.567
 20
17.6502
 11
193.466
 21
18.0698
  0
LINE
  8
0
 10
193.466
 20
18.0698
 11
193.432
 21
18.5
  0
LINE
  8
0
 10
193.432
 20
18.5
 11
193.466
 21
18.9302
  0
LINE
  8
0
 10
193.466
 20
18.9302
 11
193.567
 21
19.3498
  0
LINE
  8
0
 10
193.567
 20
19.3498
 11
193.732
 21
19.7485
  0
LINE
  8
0
 10
193.732
 20
19.7485
 11
193.957
 21
20.1164
  0
LINE
  8
0
 10
193.957
 20
20.1164
 11
194.237
 21
20.4445
  0
LINE
  8
0
 10
194.237
 20
20.4445
 11
194.566
 21
20.7248
  0
LINE
  8
0
 10
194.566
 20
20.7248
 11
194.934
 21
20.9503
  0
LINE
  8
0
 10
194.934
 20
20.9503
 11
195.332
 21
21.1154
  0
LINE
  8
0
 10
195.332
 20
21.1154
 11
195.752
 21
21.2161
  0
LINE
  8
0
 10
195.752
 20
21.2161
 11
196.182
 21
21.25
  0
LINE
  8
0
 10
196.182
 20
21.25
 11
196.612
 21
21.2161
  0
LINE
  8
0
 10
196.612
 20
21.2161
 11
197.032
 21
21.1154
  0
LINE
  8
0
 10
197.032
 20
21.1154
 11
197.43
 21
20.9503
  0
LINE
  8
0
 10
197.43
 20
20.9503
 11
197.798
 21
20.7248
  0
LINE
  8
0
 10
197.798
 20
20.7248
 11
198.127
 21
20.4445
  0
LINE
  8
0
 10
198.127
 20
20.4445
 11
198.407
 21
20.1164
  0
LINE
  8
0
 10
198.407
 20
20.1164
 11
198.632
 21
19.7485
  0
LINE
  8
0
 10
198.632
 20
19.7485
 11
198.797
 21
19.3498
  0
LINE
  8
0
 10
198.797
 20
19.3498
 11
198.898
 21
18.9302
  0
LINE
  8
0
 10
198.898
 20
18.9302
 11
198.932
 21
18.5
  0
LINE
  8
0
 10
198.932
 20
18.5
 11
198.898
 21
18.0698
  0
LINE
  8
0
 10
198.898
 20
18.0698
 11
198.797
 21
17.6502
  0
LINE
  8
0
 10
198.797
 20
17.6502
 11
198.632
 21
17.2515
  0
LINE
  8
0
 10
198.632
 20
17.2515
 11
198.407
 21
16.8836
  0
LINE
  8
0
 10
198.407
 20
16.8836
 11
198.127
 21
16.5555
  0
LINE
  8
0
 10
198.127
 20
16.5555
 11
197.798
 21
16.2752
  0
LINE
  8
0
 10
197.798
 20
16.2752
 11
197.43
 21
16.0497
  0
LINE
  8
0
 10
197.43
 20
16.0497
 11
197.032
 21
15.8846
  0
LINE
  8
0
 10
197.032
 20
15.8846
 11
196.612
 21
15.7838
  0
LINE
  8
0
 10
196.612
 20
15.7838
 11
196.182
 21
15.75
  0
LINE
  8
0
 10
196.182
 20
15.75
 11
195.752
 21
15.7838
  0
LINE
  8
0
 10
39.1251
 20
7.32092
 11
38.8657
 21
7.38319
  0
LINE
  8
0
 10
38.8657
 20
7.38319
 11
38.6192
 21
7.48528
  0
LINE
  8
0
 10
38.6192
 20
7.48528
 11
38.3918
 21
7.62466
  0
LINE
  8
0
 10
38.3918
 20
7.62466
 11
38.1889
 21
7.79791
  0
LINE
  8
0
 10
38.1889
 20
7.79791
 11
38.0157
 21
8.00076
  0
LINE
  8
0
 10
38.0157
 20
8.00076
 11
37.8763
 21
8.22821
  0
LINE
  8
0
 10
37.8763
 20
8.22821
 11
37.7742
 21
8.47467
  0
LINE
  8
0
 10
37.7742
 20
8.47467
 11
37.7119
 21
8.73405
  0
LINE
  8
0
 10
37.7119
 20
8.73405
 11
37.691
 21
9
  0
LINE
  8
0
 10
37.691
 20
9
 11
37.7119
 21
9.26593
  0
LINE
  8
0
 10
37.7119
 20
9.26593
 11
37.7742
 21
9.52531
  0
LINE
  8
0
 10
37.7742
 20
9.52531
 11
37.8763
 21
9.77177
  0
LINE
  8
0
 10
37.8763
 20
9.77177
 11
38.0157
 21
9.99922
  0
LINE
  8
0
 10
38.0157
 20
9.99922
 11
38.1889
 21
10.2021
  0
LINE
  8
0
 10
38.1889
 20
10.2021
 11
38.3918
 21
10.3753
  0
LINE
  8
0
 10
38.3918
 20
10.3753
 11
38.6192
 21
10.5147
  0
LINE
  8
0
 10
38.6192
 20
10.5147
 11
38.8657
 21
10.6168
  0
LINE
  8
0
 10
38.8657
 20
10.6168
 11
39.1251
 21
10.6791
  0
LINE
  8
0
 10
39.1251
 20
10.6791
 11
39.391
 21
10.7
  0
LINE
  8
0
 10
39.391
 20
10.7
 11
39.6569
 21
10.6791
  0
LINE
  8
0
 10
39.6569
 20
10.6791
 11
39.9163
 21
10.6168
  0
LINE
  8
0
 10
39.9163
 20
10.6168
 11
40.1628
 21
10.5147
  0
LINE
  8
0
 10
40.1628
 20
10.5147
 11
40.3902
 21
10.3753
  0
LINE
  8
0
 10
40.3902
 20
10.3753
 11
40.5931
 21
10.2021
  0
LINE
  8
0
 10
40.5931
 20
10.2021
 11
40.7663
 21
9.99922
  0
LINE
  8
0
 10
40.7663
 20
9.99922
 11
40.9057
 21
9.77177
  0
LINE
  8
0
 10
40.9057
 20
9.77177
 11
41.0078
 21
9.52531
  0
LINE
  8
0
 10
41.0078
 20
9.52531
 11
41.0701
 21
9.26593
  0
LINE
  8
0
 10
41.0701
 20
9.26593
 11
41.091
 21
9
  0
LINE
  8
0
 10
41.091
 20
9
 11
41.0701
 21
8.73405
  0
LINE
  8
0
 10
41.0701
 20
8.73405
 11
41.0078
 21
8.47467
  0
LINE
  8
0
 10
41.0078
 20
8.47467
 11
40.9057
 21
8.22821
  0
LINE
  8
0
 10
40.9057
 20
8.22821
 11
40.7663
 21
8.00076
  0
LINE
  8
0
 10
40.7663
 20
8.00076
 11
40.5931
 21
7.79791
  0
LINE
  8
0
 10
40.5931
 20
7.79791
 11
40.3902
 21
7.62466
  0
LINE
  8
0
 10
40.3902
 20
7.62466
 11
40.1628
 21
7.48528
  0
LINE
  8
0
 10
40.1628
 20
7.48528
 11
39.9163
 21
7.38319
  0
LINE
  8
0
 10
39.9163
 20
7.38319
 11
39.6569
 21
7.32092
  0
LINE
  8
0
 10
39.6569
 20
7.32092
 11
39.391
 21
7.29999
  0
LINE
  8
0
 10
39.391
 20
7.29999
 11
39.1251
 21
7.32092
  0
LINE
  8
0
 10
195.916
 20
7.32092
 11
195.657
 21
7.38319
  0
LINE
  8
0
 10
195.657
 20
7.38319
 11
195.41
 21
7.48528
  0
LINE
  8
0
 10
195.41
 20
7.48528
 11
195.183
 21
7.62466
  0
LINE
  8
0
 10
195.183
 20
7.62466
 11
194.98
 21
7.79791
  0
LINE
  8
0
 10
194.98
 20
7.79791
 11
194.807
 21
8.00076
  0
LINE
  8
0
 10
194.807
 20
8.00076
 11
194.667
 21
8.22821
  0
LINE
  8
0
 10
194.667
 20
8.22821
 11
194.565
 21
8.47467
  0
LINE
  8
0
 10
194.565
 20
8.47467
 11
194.503
 21
8.73405
  0
LINE
  8
0
 10
194.503
 20
8.73405
 11
194.482
 21
9
  0
LINE
  8
0
 10
194.482
 20
9
 11
194.503
 21
9.26593
  0
LINE
  8
0
 10
194.503
 20
9.26593
 11
194.565
 21
9.52531
  0
LINE
  8
0
 10
194.565
 20
9.52531
 11
194.667
 21
9.77177
  0
LINE
  8
0
 10
194.667
 20
9.77177
 11
194.807
 21
9.99922
  0
LINE
  8
0
 10
194.807
 20
9.99922
 11
194.98
 21
10.2021
  0
LINE
  8
0
 10
194.98
 20
10.2021
 11
195.183
 21
10.3753
  0
LINE
  8
0
 10
195.183
 20
10.3753
 11
195.41
 21
10.5147
  0
LINE
  8
0
 10
195.41
 20
10.5147
 11
195.657
 21
10.6168
  0
LINE
  8
0
 10
195.657
 20
10.6168
 11
195.916
 21
10.6791
  0
LINE
  8
0
 10
195.916
 20
10.6791
 11
196.182
 21
10.7
  0
LINE
  8
0
 10
196.182
 20
10.7
 11
196.448
 21
10.6791
  0
LINE
  8
0
 10
196.448
 20
10.6791
 11
196.707
 21
10.6168
  0
LINE
  8
0
 10
196.707
 20
10.6168
 11
196.954
 21
10.5147
  0
LINE
  8
0
 10
196.954
 20
10.5147
 11
197.181
 21
10.3753
  0
LINE
  8
0
 10
197.181
 20
10.3753
 11
197.384
 21
10.2021
  0
LINE
  8
0
 10
197.384
 20
10.2021
 11
197.557
 21
9.99922
  0
LINE
  8
0
 10
197.557
 20
9.99922
 11
197.697
 21
9.77177
  0
LINE
  8
0
 10
197.697
 20
9.77177
 11
197.799
 21
9.52531
  0
LINE
  8
0
 10
197.799
 20
9.52531
 11
197.861
 21
9.26593
  0
LINE
  8
0
 10
197.861
 20
9.26593
 11
197.882
 21
9
  0
LINE
  8
0
 10
197.882
 20
9
 11
197.861
 21
8.73405
  0
LINE
  8
0
 10
197.861
 20
8.73405
 11
197.799
 21
8.47467
  0
LINE
  8
0
 10
197.799
 20
8.47467
 11
197.697
 21
8.22821
  0
LINE
  8
0
 10
197.697
 20
8.22821
 11
197.557
 21
8.00076
  0
LINE
  8
0
 10
197.557
 20
8.00076
 11
197.384
 21
7.79791
  0
LINE
  8
0
 10
197.384
 20
7.79791
 11
197.181
 21
7.62466
  0
LINE
  8
0
 10
197.181
 20
7.62466
 11
196.954
 21
7.48528
  0
LINE
  8
0
 10
196.954
 20
7.48528
 11
196.707
 21
7.38319
  0
LINE
  8
0
 10
196.707
 20
7.38319
 11
196.448
 21
7.32092
  0
LINE
  8
0
 10
196.448
 20
7.32092
 11
196.182
 21
7.29999
  0
LINE
  8
0
 10
196.182
 20
7.29999
 11
195.916
 21
7.32092
  0
LINE
  8
0
 10
474.616
 20
7.32092
 11
474.357
 21
7.38319
  0
LINE
  8
0
 10
474.357
 20
7.38319
 11
474.11
 21
7.48528
  0
LINE
  8
0
 10
474.11
 20
7.48528
 11
473.883
 21
7.62466
  0
LINE
  8
0
 10
473.883
 20
7.62466
 11
473.68
 21
7.79791
  0
LINE
  8
0
 10
473.68
 20
7.79791
 11
473.507
 21
8.00076
  0
LINE
  8
0
 10
473.507
 20
8.00076
 11
473.367
 21
8.22821
  0
LINE
  8
0
 10
473.367
 20
8.22821
 11
473.265
 21
8.47467
  0
LINE
  8
0
 10
473.265
 20
8.47467
 11
473.203
 21
8.73405
  0
LINE
  8
0
 10
473.203
 20
8.73405
 11
473.182
 21
9
  0
LINE
  8
0
 10
473.182
 20
9
 11
473.203
 21
9.26593
  0
LINE
  8
0
 10
473.203
 20
9.26593
 11
473.265
 21
9.52531
  0
LINE
  8
0
 10
473.265
 20
9.52531
 11
473.367
 21
9.77177
  0
LINE
  8
0
 10
473.367
 20
9.77177
 11
473.507
 21
9.99922
  0
LINE
  8
0
 10
473.507
 20
9.99922
 11
473.68
 21
10.2021
  0
LINE
  8
0
 10
473.68
 20
10.2021
 11
473.883
 21
10.3753
  0
LINE
  8
0
 10
473.883
 20
10.3753
 11
474.11
 21
10.5147
  0
LINE
  8
0
 10
474.11
 20
10.5147
 11
474.357
 21
10.6168
  0
LINE
  8
0
 10
474.357
 20
10.6168
 11
474.616
 21
10.6791
  0
LINE
  8
0
 10
474.616
 20
10.6791
 11
474.882
 21
10.7
  0
LINE
  8
0
 10
474.882
 20
10.7
 11
475.148
 21
10.6791
  0
LINE
  8
0
 10
475.148
 20
10.6791
 11
475.407
 21
10.6168
  0
LINE
  8
0
 10
475.407
 20
10.6168
 11
475.654
 21
10.5147
  0
LINE
  8
0
 10
475.654
 20
10.5147
 11
475.881
 21
10.3753
  0
LINE
  8
0
 10
475.881
 20
10.3753
 11
476.084
 21
10.2021
  0
LINE
  8
0
 10
476.084
 20
10.2021
 11
476.257
 21
9.99922
  0
LINE
  8
0
 10
476.257
 20
9.99922
 11
476.397
 21
9.77177
  0
LINE
  8
0
 10
476.397
 20
9.77177
 11
476.499
 21
9.52531
  0
LINE
  8
0
 10
476.499
 20
9.52531
 11
476.561
 21
9.26593
  0
LINE
  8
0
 10
476.561
 20
9.26593
 11
476.582
 21
9
  0
LINE
  8
0
 10
476.582
 20
9
 11
476.561
 21
8.73405
  0
LINE
  8
0
 10
476.561
 20
8.73405
 11
476.499
 21
8.47467
  0
LINE
  8
0
 10
476.499
 20
8.47467
 11
476.397
 21
8.22821
  0
LINE
  8
0
 10
476.397
 20
8.22821
 11
476.257
 21
8.00076
  0
LINE
  8
0
 10
476.257
 20
8.00076
 11
476.084
 21
7.79791
  0
LINE
  8
0
 10
476.084
 20
7.79791
 11
475.881
 21
7.62466
  0
LINE
  8
0
 10
475.881
 20
7.62466
 11
475.654
 21
7.48528
  0
LINE
  8
0
 10
475.654
 20
7.48528
 11
475.407
 21
7.38319
  0
LINE
  8
0
 10
475.407
 20
7.38319
 11
475.148
 21
7.32092
  0
LINE
  8
0
 10
475.148
 20
7.32092
 11
474.882
 21
7.29999
  0
LINE
  8
0
 10
474.882
 20
7.29999
 11
474.616
 21
7.32092
  0
ENDSEC
  0
SECTION
  2
OBJECTS
  0
DICTIONARY
  0
ENDSEC
  0
EOF
