  0
SECTION
  2
BLOCKS
  0
ENDSEC
  0
SECTION
  2
ENTITIES
  0
LINE
  8
0
 10
447
 20
44.8
 11
0
 21
44.8
  0
LINE
  8
0
 10
0
 20
44.8
 11
0
 21
0.199997
  0
LINE
  8
0
 10
0
 20
0.199997
 11
447
 21
0.199997
  0
LINE
  8
0
 10
447
 20
0.199997
 11
447
 21
44.8
  0
LINE
  8
0
 10
416.804
 20
36.7654
 11
416.614
 21
36.8112
  0
LINE
  8
0
 10
416.614
 20
36.8112
 11
416.433
 21
36.8862
  0
LINE
  8
0
 10
416.433
 20
36.8862
 11
416.265
 21
36.9887
  0
LINE
  8
0
 10
416.265
 20
36.9887
 11
416.116
 21
37.1161
  0
LINE
  8
0
 10
416.116
 20
37.1161
 11
415.989
 21
37.2653
  0
LINE
  8
0
 10
415.989
 20
37.2653
 11
415.886
 21
37.4325
  0
LINE
  8
0
 10
415.886
 20
37.4325
 11
415.811
 21
37.6137
  0
LINE
  8
0
 10
415.811
 20
37.6137
 11
415.765
 21
37.8044
  0
LINE
  8
0
 10
415.765
 20
37.8044
 11
415.75
 21
38
  0
LINE
  8
0
 10
415.75
 20
38
 11
415.765
 21
38.1955
  0
LINE
  8
0
 10
415.765
 20
38.1955
 11
415.811
 21
38.3863
  0
LINE
  8
0
 10
415.811
 20
38.3863
 11
415.886
 21
38.5675
  0
LINE
  8
0
 10
415.886
 20
38.5675
 11
415.989
 21
38.7347
  0
LINE
  8
0
 10
415.989
 20
38.7347
 11
416.116
 21
38.8839
  0
LINE
  8
0
 10
416.116
 20
38.8839
 11
416.265
 21
39.0113
  0
LINE
  8
0
 10
416.265
 20
39.0113
 11
416.433
 21
39.1138
  0
LINE
  8
0
 10
416.433
 20
39.1138
 11
416.614
 21
39.1888
  0
LINE
  8
0
 10
416.614
 20
39.1888
 11
416.804
 21
39.2346
  0
LINE
  8
0
 10
416.804
 20
39.2346
 11
417
 21
39.25
  0
LINE
  8
0
 10
417
 20
39.25
 11
417.196
 21
39.2346
  0
LINE
  8
0
 10
417.196
 20
39.2346
 11
417.386
 21
39.1888
  0
LINE
  8
0
 10
417.386
 20
39.1888
 11
417.567
 21
39.1138
  0
LINE
  8
0
 10
417.567
 20
39.1138
 11
417.735
 21
39.0113
  0
LINE
  8
0
 10
417.735
 20
39.0113
 11
417.884
 21
38.8839
  0
LINE
  8
0
 10
417.884
 20
38.8839
 11
418.011
 21
38.7347
  0
LINE
  8
0
 10
418.011
 20
38.7347
 11
418.114
 21
38.5675
  0
LINE
  8
0
 10
418.114
 20
38.5675
 11
418.189
 21
38.3863
  0
LINE
  8
0
 10
418.189
 20
38.3863
 11
418.235
 21
38.1955
  0
LINE
  8
0
 10
418.235
 20
38.1955
 11
418.25
 21
38
  0
LINE
  8
0
 10
418.25
 20
38
 11
418.235
 21
37.8044
  0
LINE
  8
0
 10
418.235
 20
37.8044
 11
418.189
 21
37.6137
  0
LINE
  8
0
 10
418.189
 20
37.6137
 11
418.114
 21
37.4325
  0
LINE
  8
0
 10
418.114
 20
37.4325
 11
418.011
 21
37.2653
  0
LINE
  8
0
 10
418.011
 20
37.2653
 11
417.884
 21
37.1161
  0
LINE
  8
0
 10
417.884
 20
37.1161
 11
417.735
 21
36.9887
  0
LINE
  8
0
 10
417.735
 20
36.9887
 11
417.567
 21
36.8862
  0
LINE
  8
0
 10
417.567
 20
36.8862
 11
417.386
 21
36.8112
  0
LINE
  8
0
 10
417.386
 20
36.8112
 11
417.196
 21
36.7654
  0
LINE
  8
0
 10
417.196
 20
36.7654
 11
417
 21
36.75
  0
LINE
  8
0
 10
417
 20
36.75
 11
416.804
 21
36.7654
  0
LINE
  8
0
 10
262.004
 20
36.7654
 11
261.814
 21
36.8112
  0
LINE
  8
0
 10
261.814
 20
36.8112
 11
261.633
 21
36.8862
  0
LINE
  8
0
 10
261.633
 20
36.8862
 11
261.465
 21
36.9887
  0
LINE
  8
0
 10
261.465
 20
36.9887
 11
261.316
 21
37.1161
  0
LINE
  8
0
 10
261.316
 20
37.1161
 11
261.189
 21
37.2653
  0
LINE
  8
0
 10
261.189
 20
37.2653
 11
261.086
 21
37.4325
  0
LINE
  8
0
 10
261.086
 20
37.4325
 11
261.011
 21
37.6137
  0
LINE
  8
0
 10
261.011
 20
37.6137
 11
260.965
 21
37.8044
  0
LINE
  8
0
 10
260.965
 20
37.8044
 11
260.95
 21
38
  0
LINE
  8
0
 10
260.95
 20
38
 11
260.965
 21
38.1955
  0
LINE
  8
0
 10
260.965
 20
38.1955
 11
261.011
 21
38.3863
  0
LINE
  8
0
 10
261.011
 20
38.3863
 11
261.086
 21
38.5675
  0
LINE
  8
0
 10
261.086
 20
38.5675
 11
261.189
 21
38.7347
  0
LINE
  8
0
 10
261.189
 20
38.7347
 11
261.316
 21
38.8839
  0
LINE
  8
0
 10
261.316
 20
38.8839
 11
261.465
 21
39.0113
  0
LINE
  8
0
 10
261.465
 20
39.0113
 11
261.633
 21
39.1138
  0
LINE
  8
0
 10
261.633
 20
39.1138
 11
261.814
 21
39.1888
  0
LINE
  8
0
 10
261.814
 20
39.1888
 11
262.004
 21
39.2346
  0
LINE
  8
0
 10
262.004
 20
39.2346
 11
262.2
 21
39.25
  0
LINE
  8
0
 10
262.2
 20
39.25
 11
262.396
 21
39.2346
  0
LINE
  8
0
 10
262.396
 20
39.2346
 11
262.586
 21
39.1888
  0
LINE
  8
0
 10
262.586
 20
39.1888
 11
262.767
 21
39.1138
  0
LINE
  8
0
 10
262.767
 20
39.1138
 11
262.935
 21
39.0113
  0
LINE
  8
0
 10
262.935
 20
39.0113
 11
263.084
 21
38.8839
  0
LINE
  8
0
 10
263.084
 20
38.8839
 11
263.211
 21
38.7347
  0
LINE
  8
0
 10
263.211
 20
38.7347
 11
263.314
 21
38.5675
  0
LINE
  8
0
 10
263.314
 20
38.5675
 11
263.389
 21
38.3863
  0
LINE
  8
0
 10
263.389
 20
38.3863
 11
263.435
 21
38.1955
  0
LINE
  8
0
 10
263.435
 20
38.1955
 11
263.45
 21
38
  0
LINE
  8
0
 10
263.45
 20
38
 11
263.435
 21
37.8044
  0
LINE
  8
0
 10
263.435
 20
37.8044
 11
263.389
 21
37.6137
  0
LINE
  8
0
 10
263.389
 20
37.6137
 11
263.314
 21
37.4325
  0
LINE
  8
0
 10
263.314
 20
37.4325
 11
263.211
 21
37.2653
  0
LINE
  8
0
 10
263.211
 20
37.2653
 11
263.084
 21
37.1161
  0
LINE
  8
0
 10
263.084
 20
37.1161
 11
262.935
 21
36.9887
  0
LINE
  8
0
 10
262.935
 20
36.9887
 11
262.767
 21
36.8862
  0
LINE
  8
0
 10
262.767
 20
36.8862
 11
262.586
 21
36.8112
  0
LINE
  8
0
 10
262.586
 20
36.8112
 11
262.396
 21
36.7654
  0
LINE
  8
0
 10
262.396
 20
36.7654
 11
262.2
 21
36.75
  0
LINE
  8
0
 10
262.2
 20
36.75
 11
262.004
 21
36.7654
  0
LINE
  8
0
 10
107.204
 20
36.7654
 11
107.014
 21
36.8112
  0
LINE
  8
0
 10
107.014
 20
36.8112
 11
106.833
 21
36.8862
  0
LINE
  8
0
 10
106.833
 20
36.8862
 11
106.665
 21
36.9887
  0
LINE
  8
0
 10
106.665
 20
36.9887
 11
106.516
 21
37.1161
  0
LINE
  8
0
 10
106.516
 20
37.1161
 11
106.389
 21
37.2653
  0
LINE
  8
0
 10
106.389
 20
37.2653
 11
106.286
 21
37.4325
  0
LINE
  8
0
 10
106.286
 20
37.4325
 11
106.211
 21
37.6137
  0
LINE
  8
0
 10
106.211
 20
37.6137
 11
106.165
 21
37.8044
  0
LINE
  8
0
 10
106.165
 20
37.8044
 11
106.15
 21
38
  0
LINE
  8
0
 10
106.15
 20
38
 11
106.165
 21
38.1955
  0
LINE
  8
0
 10
106.165
 20
38.1955
 11
106.211
 21
38.3863
  0
LINE
  8
0
 10
106.211
 20
38.3863
 11
106.286
 21
38.5675
  0
LINE
  8
0
 10
106.286
 20
38.5675
 11
106.389
 21
38.7347
  0
LINE
  8
0
 10
106.389
 20
38.7347
 11
106.516
 21
38.8839
  0
LINE
  8
0
 10
106.516
 20
38.8839
 11
106.665
 21
39.0113
  0
LINE
  8
0
 10
106.665
 20
39.0113
 11
106.833
 21
39.1138
  0
LINE
  8
0
 10
106.833
 20
39.1138
 11
107.014
 21
39.1888
  0
LINE
  8
0
 10
107.014
 20
39.1888
 11
107.204
 21
39.2346
  0
LINE
  8
0
 10
107.204
 20
39.2346
 11
107.4
 21
39.25
  0
LINE
  8
0
 10
107.4
 20
39.25
 11
107.596
 21
39.2346
  0
LINE
  8
0
 10
107.596
 20
39.2346
 11
107.786
 21
39.1888
  0
LINE
  8
0
 10
107.786
 20
39.1888
 11
107.967
 21
39.1138
  0
LINE
  8
0
 10
107.967
 20
39.1138
 11
108.135
 21
39.0113
  0
LINE
  8
0
 10
108.135
 20
39.0113
 11
108.284
 21
38.8839
  0
LINE
  8
0
 10
108.284
 20
38.8839
 11
108.411
 21
38.7347
  0
LINE
  8
0
 10
108.411
 20
38.7347
 11
108.514
 21
38.5675
  0
LINE
  8
0
 10
108.514
 20
38.5675
 11
108.589
 21
38.3863
  0
LINE
  8
0
 10
108.589
 20
38.3863
 11
108.635
 21
38.1955
  0
LINE
  8
0
 10
108.635
 20
38.1955
 11
108.65
 21
38
  0
LINE
  8
0
 10
108.65
 20
38
 11
108.635
 21
37.8044
  0
LINE
  8
0
 10
108.635
 20
37.8044
 11
108.589
 21
37.6137
  0
LINE
  8
0
 10
108.589
 20
37.6137
 11
108.514
 21
37.4325
  0
LINE
  8
0
 10
108.514
 20
37.4325
 11
108.411
 21
37.2653
  0
LINE
  8
0
 10
108.411
 20
37.2653
 11
108.284
 21
37.1161
  0
LINE
  8
0
 10
108.284
 20
37.1161
 11
108.135
 21
36.9887
  0
LINE
  8
0
 10
108.135
 20
36.9887
 11
107.967
 21
36.8862
  0
LINE
  8
0
 10
107.967
 20
36.8862
 11
107.786
 21
36.8112
  0
LINE
  8
0
 10
107.786
 20
36.8112
 11
107.596
 21
36.7654
  0
LINE
  8
0
 10
107.596
 20
36.7654
 11
107.4
 21
36.75
  0
LINE
  8
0
 10
107.4
 20
36.75
 11
107.204
 21
36.7654
  0
LINE
  8
0
 10
245
 20
15.5
 11
245
 21
29.5
  0
LINE
  8
0
 10
245
 20
29.5
 11
259
 21
29.5
  0
LINE
  8
0
 10
259
 20
29.5
 11
259
 21
15.5
  0
LINE
  8
0
 10
259
 20
15.5
 11
245
 21
15.5
  0
LINE
  8
0
 10
99
 20
15.5
 11
99
 21
29.5
  0
LINE
  8
0
 10
99
 20
29.5
 11
113
 21
29.5
  0
LINE
  8
0
 10
113
 20
29.5
 11
113
 21
15.5
  0
LINE
  8
0
 10
113
 20
15.5
 11
99
 21
15.5
  0
LINE
  8
0
 10
139
 20
15.5
 11
139
 21
29.5
  0
LINE
  8
0
 10
139
 20
29.5
 11
153
 21
29.5
  0
LINE
  8
0
 10
153
 20
29.5
 11
153
 21
15.5
  0
LINE
  8
0
 10
153
 20
15.5
 11
139
 21
15.5
  0
LINE
  8
0
 10
157
 20
15.5
 11
157
 21
29.5
  0
LINE
  8
0
 10
157
 20
29.5
 11
171
 21
29.5
  0
LINE
  8
0
 10
171
 20
29.5
 11
171
 21
15.5
  0
LINE
  8
0
 10
171
 20
15.5
 11
157
 21
15.5
  0
LINE
  8
0
 10
175
 20
15.5
 11
175
 21
29.5
  0
LINE
  8
0
 10
175
 20
29.5
 11
189
 21
29.5
  0
LINE
  8
0
 10
189
 20
29.5
 11
189
 21
15.5
  0
LINE
  8
0
 10
189
 20
15.5
 11
175
 21
15.5
  0
LINE
  8
0
 10
225
 20
15.5
 11
225
 21
29.5
  0
LINE
  8
0
 10
225
 20
29.5
 11
239
 21
29.5
  0
LINE
  8
0
 10
239
 20
29.5
 11
239
 21
15.5
  0
LINE
  8
0
 10
239
 20
15.5
 11
225
 21
15.5
  0
LINE
  8
0
 10
265
 20
15.5
 11
265
 21
29.5
  0
LINE
  8
0
 10
265
 20
29.5
 11
279
 21
29.5
  0
LINE
  8
0
 10
279
 20
29.5
 11
279
 21
15.5
  0
LINE
  8
0
 10
279
 20
15.5
 11
265
 21
15.5
  0
LINE
  8
0
 10
283
 20
15.5
 11
283
 21
29.5
  0
LINE
  8
0
 10
283
 20
29.5
 11
297
 21
29.5
  0
LINE
  8
0
 10
297
 20
29.5
 11
297
 21
15.5
  0
LINE
  8
0
 10
297
 20
15.5
 11
283
 21
15.5
  0
LINE
  8
0
 10
301
 20
15.5
 11
301
 21
29.5
  0
LINE
  8
0
 10
301
 20
29.5
 11
315
 21
29.5
  0
LINE
  8
0
 10
315
 20
29.5
 11
315
 21
15.5
  0
LINE
  8
0
 10
315
 20
15.5
 11
301
 21
15.5
  0
LINE
  8
0
 10
319
 20
15.5
 11
319
 21
29.5
  0
LINE
  8
0
 10
319
 20
29.5
 11
333
 21
29.5
  0
LINE
  8
0
 10
333
 20
29.5
 11
333
 21
15.5
  0
LINE
  8
0
 10
333
 20
15.5
 11
319
 21
15.5
  0
LINE
  8
0
 10
119
 20
15.5
 11
119
 21
29.5
  0
LINE
  8
0
 10
119
 20
29.5
 11
133
 21
29.5
  0
LINE
  8
0
 10
133
 20
29.5
 11
133
 21
15.5
  0
LINE
  8
0
 10
133
 20
15.5
 11
119
 21
15.5
  0
LINE
  8
0
 10
29.8044
 20
5.76538
 11
29.6137
 21
5.81117
  0
LINE
  8
0
 10
29.6137
 20
5.81117
 11
29.4325
 21
5.88623
  0
LINE
  8
0
 10
29.4325
 20
5.88623
 11
29.2653
 21
5.98872
  0
LINE
  8
0
 10
29.2653
 20
5.98872
 11
29.1161
 21
6.1161
  0
LINE
  8
0
 10
29.1161
 20
6.1161
 11
28.9887
 21
6.26526
  0
LINE
  8
0
 10
28.9887
 20
6.26526
 11
28.8862
 21
6.43251
  0
LINE
  8
0
 10
28.8862
 20
6.43251
 11
28.8112
 21
6.61372
  0
LINE
  8
0
 10
28.8112
 20
6.61372
 11
28.7654
 21
6.80444
  0
LINE
  8
0
 10
28.7654
 20
6.80444
 11
28.75
 21
7
  0
LINE
  8
0
 10
28.75
 20
7
 11
28.7654
 21
7.19554
  0
LINE
  8
0
 10
28.7654
 20
7.19554
 11
28.8112
 21
7.38626
  0
LINE
  8
0
 10
28.8112
 20
7.38626
 11
28.8862
 21
7.56747
  0
LINE
  8
0
 10
28.8862
 20
7.56747
 11
28.9887
 21
7.73473
  0
LINE
  8
0
 10
28.9887
 20
7.73473
 11
29.1161
 21
7.88388
  0
LINE
  8
0
 10
29.1161
 20
7.88388
 11
29.2653
 21
8.01126
  0
LINE
  8
0
 10
29.2653
 20
8.01126
 11
29.4325
 21
8.11375
  0
LINE
  8
0
 10
29.4325
 20
8.11375
 11
29.6137
 21
8.18881
  0
LINE
  8
0
 10
29.6137
 20
8.18881
 11
29.8044
 21
8.2346
  0
LINE
  8
0
 10
29.8044
 20
8.2346
 11
30
 21
8.25
  0
LINE
  8
0
 10
30
 20
8.25
 11
30.1955
 21
8.2346
  0
LINE
  8
0
 10
30.1955
 20
8.2346
 11
30.3863
 21
8.18881
  0
LINE
  8
0
 10
30.3863
 20
8.18881
 11
30.5675
 21
8.11375
  0
LINE
  8
0
 10
30.5675
 20
8.11375
 11
30.7347
 21
8.01126
  0
LINE
  8
0
 10
30.7347
 20
8.01126
 11
30.8839
 21
7.88388
  0
LINE
  8
0
 10
30.8839
 20
7.88388
 11
31.0113
 21
7.73473
  0
LINE
  8
0
 10
31.0113
 20
7.73473
 11
31.1138
 21
7.56747
  0
LINE
  8
0
 10
31.1138
 20
7.56747
 11
31.1888
 21
7.38626
  0
LINE
  8
0
 10
31.1888
 20
7.38626
 11
31.2346
 21
7.19554
  0
LINE
  8
0
 10
31.2346
 20
7.19554
 11
31.25
 21
7
  0
LINE
  8
0
 10
31.25
 20
7
 11
31.2346
 21
6.80444
  0
LINE
  8
0
 10
31.2346
 20
6.80444
 11
31.1888
 21
6.61372
  0
LINE
  8
0
 10
31.1888
 20
6.61372
 11
31.1138
 21
6.43251
  0
LINE
  8
0
 10
31.1138
 20
6.43251
 11
31.0113
 21
6.26526
  0
LINE
  8
0
 10
31.0113
 20
6.26526
 11
30.8839
 21
6.1161
  0
LINE
  8
0
 10
30.8839
 20
6.1161
 11
30.7347
 21
5.98872
  0
LINE
  8
0
 10
30.7347
 20
5.98872
 11
30.5675
 21
5.88623
  0
LINE
  8
0
 10
30.5675
 20
5.88623
 11
30.3863
 21
5.81117
  0
LINE
  8
0
 10
30.3863
 20
5.81117
 11
30.1955
 21
5.76538
  0
LINE
  8
0
 10
30.1955
 20
5.76538
 11
30
 21
5.75
  0
LINE
  8
0
 10
30
 20
5.75
 11
29.8044
 21
5.76538
  0
LINE
  8
0
 10
184.604
 20
5.76538
 11
184.414
 21
5.81117
  0
LINE
  8
0
 10
184.414
 20
5.81117
 11
184.232
 21
5.88623
  0
LINE
  8
0
 10
184.232
 20
5.88623
 11
184.065
 21
5.98872
  0
LINE
  8
0
 10
184.065
 20
5.98872
 11
183.916
 21
6.1161
  0
LINE
  8
0
 10
183.916
 20
6.1161
 11
183.789
 21
6.26526
  0
LINE
  8
0
 10
183.789
 20
6.26526
 11
183.686
 21
6.43251
  0
LINE
  8
0
 10
183.686
 20
6.43251
 11
183.611
 21
6.61372
  0
LINE
  8
0
 10
183.611
 20
6.61372
 11
183.565
 21
6.80444
  0
LINE
  8
0
 10
183.565
 20
6.80444
 11
183.55
 21
7
  0
LINE
  8
0
 10
183.55
 20
7
 11
183.565
 21
7.19554
  0
LINE
  8
0
 10
183.565
 20
7.19554
 11
183.611
 21
7.38626
  0
LINE
  8
0
 10
183.611
 20
7.38626
 11
183.686
 21
7.56747
  0
LINE
  8
0
 10
183.686
 20
7.56747
 11
183.789
 21
7.73473
  0
LINE
  8
0
 10
183.789
 20
7.73473
 11
183.916
 21
7.88388
  0
LINE
  8
0
 10
183.916
 20
7.88388
 11
184.065
 21
8.01126
  0
LINE
  8
0
 10
184.065
 20
8.01126
 11
184.232
 21
8.11375
  0
LINE
  8
0
 10
184.232
 20
8.11375
 11
184.414
 21
8.18881
  0
LINE
  8
0
 10
184.414
 20
8.18881
 11
184.604
 21
8.2346
  0
LINE
  8
0
 10
184.604
 20
8.2346
 11
184.8
 21
8.25
  0
LINE
  8
0
 10
184.8
 20
8.25
 11
184.996
 21
8.2346
  0
LINE
  8
0
 10
184.996
 20
8.2346
 11
185.186
 21
8.18881
  0
LINE
  8
0
 10
185.186
 20
8.18881
 11
185.367
 21
8.11375
  0
LINE
  8
0
 10
185.367
 20
8.11375
 11
185.535
 21
8.01126
  0
LINE
  8
0
 10
185.535
 20
8.01126
 11
185.684
 21
7.88388
  0
LINE
  8
0
 10
185.684
 20
7.88388
 11
185.811
 21
7.73473
  0
LINE
  8
0
 10
185.811
 20
7.73473
 11
185.914
 21
7.56747
  0
LINE
  8
0
 10
185.914
 20
7.56747
 11
185.989
 21
7.38626
  0
LINE
  8
0
 10
185.989
 20
7.38626
 11
186.035
 21
7.19554
  0
LINE
  8
0
 10
186.035
 20
7.19554
 11
186.05
 21
7
  0
LINE
  8
0
 10
186.05
 20
7
 11
186.035
 21
6.80444
  0
LINE
  8
0
 10
186.035
 20
6.80444
 11
185.989
 21
6.61372
  0
LINE
  8
0
 10
185.989
 20
6.61372
 11
185.914
 21
6.43251
  0
LINE
  8
0
 10
185.914
 20
6.43251
 11
185.811
 21
6.26526
  0
LINE
  8
0
 10
185.811
 20
6.26526
 11
185.684
 21
6.1161
  0
LINE
  8
0
 10
185.684
 20
6.1161
 11
185.535
 21
5.98872
  0
LINE
  8
0
 10
185.535
 20
5.98872
 11
185.367
 21
5.88623
  0
LINE
  8
0
 10
185.367
 20
5.88623
 11
185.186
 21
5.81117
  0
LINE
  8
0
 10
185.186
 20
5.81117
 11
184.996
 21
5.76538
  0
LINE
  8
0
 10
184.996
 20
5.76538
 11
184.8
 21
5.75
  0
LINE
  8
0
 10
184.8
 20
5.75
 11
184.604
 21
5.76538
  0
LINE
  8
0
 10
339.404
 20
5.76538
 11
339.214
 21
5.81117
  0
LINE
  8
0
 10
339.214
 20
5.81117
 11
339.033
 21
5.88623
  0
LINE
  8
0
 10
339.033
 20
5.88623
 11
338.865
 21
5.98872
  0
LINE
  8
0
 10
338.865
 20
5.98872
 11
338.716
 21
6.1161
  0
LINE
  8
0
 10
338.716
 20
6.1161
 11
338.589
 21
6.26526
  0
LINE
  8
0
 10
338.589
 20
6.26526
 11
338.486
 21
6.43251
  0
LINE
  8
0
 10
338.486
 20
6.43251
 11
338.411
 21
6.61372
  0
LINE
  8
0
 10
338.411
 20
6.61372
 11
338.365
 21
6.80444
  0
LINE
  8
0
 10
338.365
 20
6.80444
 11
338.35
 21
7
  0
LINE
  8
0
 10
338.35
 20
7
 11
338.365
 21
7.19554
  0
LINE
  8
0
 10
338.365
 20
7.19554
 11
338.411
 21
7.38626
  0
LINE
  8
0
 10
338.411
 20
7.38626
 11
338.486
 21
7.56747
  0
LINE
  8
0
 10
338.486
 20
7.56747
 11
338.589
 21
7.73473
  0
LINE
  8
0
 10
338.589
 20
7.73473
 11
338.716
 21
7.88388
  0
LINE
  8
0
 10
338.716
 20
7.88388
 11
338.865
 21
8.01126
  0
LINE
  8
0
 10
338.865
 20
8.01126
 11
339.033
 21
8.11375
  0
LINE
  8
0
 10
339.033
 20
8.11375
 11
339.214
 21
8.18881
  0
LINE
  8
0
 10
339.214
 20
8.18881
 11
339.404
 21
8.2346
  0
LINE
  8
0
 10
339.404
 20
8.2346
 11
339.6
 21
8.25
  0
LINE
  8
0
 10
339.6
 20
8.25
 11
339.796
 21
8.2346
  0
LINE
  8
0
 10
339.796
 20
8.2346
 11
339.986
 21
8.18881
  0
LINE
  8
0
 10
339.986
 20
8.18881
 11
340.167
 21
8.11375
  0
LINE
  8
0
 10
340.167
 20
8.11375
 11
340.335
 21
8.01126
  0
LINE
  8
0
 10
340.335
 20
8.01126
 11
340.484
 21
7.88388
  0
LINE
  8
0
 10
340.484
 20
7.88388
 11
340.611
 21
7.73473
  0
LINE
  8
0
 10
340.611
 20
7.73473
 11
340.714
 21
7.56747
  0
LINE
  8
0
 10
340.714
 20
7.56747
 11
340.789
 21
7.38626
  0
LINE
  8
0
 10
340.789
 20
7.38626
 11
340.835
 21
7.19554
  0
LINE
  8
0
 10
340.835
 20
7.19554
 11
340.85
 21
7
  0
LINE
  8
0
 10
340.85
 20
7
 11
340.835
 21
6.80444
  0
LINE
  8
0
 10
340.835
 20
6.80444
 11
340.789
 21
6.61372
  0
LINE
  8
0
 10
340.789
 20
6.61372
 11
340.714
 21
6.43251
  0
LINE
  8
0
 10
340.714
 20
6.43251
 11
340.611
 21
6.26526
  0
LINE
  8
0
 10
340.611
 20
6.26526
 11
340.484
 21
6.1161
  0
LINE
  8
0
 10
340.484
 20
6.1161
 11
340.335
 21
5.98872
  0
LINE
  8
0
 10
340.335
 20
5.98872
 11
340.167
 21
5.88623
  0
LINE
  8
0
 10
340.167
 20
5.88623
 11
339.986
 21
5.81117
  0
LINE
  8
0
 10
339.986
 20
5.81117
 11
339.796
 21
5.76538
  0
LINE
  8
0
 10
339.796
 20
5.76538
 11
339.6
 21
5.75
  0
LINE
  8
0
 10
339.6
 20
5.75
 11
339.404
 21
5.76538
  0
ENDSEC
  0
SECTION
  2
OBJECTS
  0
DICTIONARY
  0
ENDSEC
  0
EOF
