  0
SECTION
  2
BLOCKS
  0
ENDSEC
  0
SECTION
  2
ENTITIES
  0
LINE
  8
0
 10
267.65
 20
44.8
 11
0
 21
44.8
  0
LINE
  8
0
 10
0
 20
44.8
 11
0
 21
0.199997
  0
LINE
  8
0
 10
0
 20
0.199997
 11
267.65
 21
0.199997
  0
LINE
  8
0
 10
267.65
 20
0.199997
 11
267.65
 21
44.8
  0
LINE
  8
0
 10
249.604
 20
39.4654
 11
249.414
 21
39.5112
  0
LINE
  8
0
 10
249.414
 20
39.5112
 11
249.232
 21
39.5862
  0
LINE
  8
0
 10
249.232
 20
39.5862
 11
249.065
 21
39.6887
  0
LINE
  8
0
 10
249.065
 20
39.6887
 11
248.916
 21
39.8161
  0
LINE
  8
0
 10
248.916
 20
39.8161
 11
248.789
 21
39.9653
  0
LINE
  8
0
 10
248.789
 20
39.9653
 11
248.686
 21
40.1325
  0
LINE
  8
0
 10
248.686
 20
40.1325
 11
248.611
 21
40.3137
  0
LINE
  8
0
 10
248.611
 20
40.3137
 11
248.565
 21
40.5045
  0
LINE
  8
0
 10
248.565
 20
40.5045
 11
248.55
 21
40.7
  0
LINE
  8
0
 10
248.55
 20
40.7
 11
248.565
 21
40.8955
  0
LINE
  8
0
 10
248.565
 20
40.8955
 11
248.611
 21
41.0863
  0
LINE
  8
0
 10
248.611
 20
41.0863
 11
248.686
 21
41.2675
  0
LINE
  8
0
 10
248.686
 20
41.2675
 11
248.789
 21
41.4347
  0
LINE
  8
0
 10
248.789
 20
41.4347
 11
248.916
 21
41.5839
  0
LINE
  8
0
 10
248.916
 20
41.5839
 11
249.065
 21
41.7113
  0
LINE
  8
0
 10
249.065
 20
41.7113
 11
249.232
 21
41.8138
  0
LINE
  8
0
 10
249.232
 20
41.8138
 11
249.414
 21
41.8888
  0
LINE
  8
0
 10
249.414
 20
41.8888
 11
249.604
 21
41.9346
  0
LINE
  8
0
 10
249.604
 20
41.9346
 11
249.8
 21
41.95
  0
LINE
  8
0
 10
249.8
 20
41.95
 11
249.996
 21
41.9346
  0
LINE
  8
0
 10
249.996
 20
41.9346
 11
250.186
 21
41.8888
  0
LINE
  8
0
 10
250.186
 20
41.8888
 11
250.367
 21
41.8138
  0
LINE
  8
0
 10
250.367
 20
41.8138
 11
250.535
 21
41.7113
  0
LINE
  8
0
 10
250.535
 20
41.7113
 11
250.684
 21
41.5839
  0
LINE
  8
0
 10
250.684
 20
41.5839
 11
250.811
 21
41.4347
  0
LINE
  8
0
 10
250.811
 20
41.4347
 11
250.914
 21
41.2675
  0
LINE
  8
0
 10
250.914
 20
41.2675
 11
250.989
 21
41.0863
  0
LINE
  8
0
 10
250.989
 20
41.0863
 11
251.035
 21
40.8955
  0
LINE
  8
0
 10
251.035
 20
40.8955
 11
251.05
 21
40.7
  0
LINE
  8
0
 10
251.05
 20
40.7
 11
251.035
 21
40.5045
  0
LINE
  8
0
 10
251.035
 20
40.5045
 11
250.989
 21
40.3137
  0
LINE
  8
0
 10
250.989
 20
40.3137
 11
250.914
 21
40.1325
  0
LINE
  8
0
 10
250.914
 20
40.1325
 11
250.811
 21
39.9653
  0
LINE
  8
0
 10
250.811
 20
39.9653
 11
250.684
 21
39.8161
  0
LINE
  8
0
 10
250.684
 20
39.8161
 11
250.535
 21
39.6887
  0
LINE
  8
0
 10
250.535
 20
39.6887
 11
250.367
 21
39.5862
  0
LINE
  8
0
 10
250.367
 20
39.5862
 11
250.186
 21
39.5112
  0
LINE
  8
0
 10
250.186
 20
39.5112
 11
249.996
 21
39.4654
  0
LINE
  8
0
 10
249.996
 20
39.4654
 11
249.8
 21
39.45
  0
LINE
  8
0
 10
249.8
 20
39.45
 11
249.604
 21
39.4654
  0
LINE
  8
0
 10
126.904
 20
39.4654
 11
126.714
 21
39.5112
  0
LINE
  8
0
 10
126.714
 20
39.5112
 11
126.533
 21
39.5862
  0
LINE
  8
0
 10
126.533
 20
39.5862
 11
126.365
 21
39.6887
  0
LINE
  8
0
 10
126.365
 20
39.6887
 11
126.216
 21
39.8161
  0
LINE
  8
0
 10
126.216
 20
39.8161
 11
126.089
 21
39.9653
  0
LINE
  8
0
 10
126.089
 20
39.9653
 11
125.986
 21
40.1325
  0
LINE
  8
0
 10
125.986
 20
40.1325
 11
125.911
 21
40.3137
  0
LINE
  8
0
 10
125.911
 20
40.3137
 11
125.865
 21
40.5045
  0
LINE
  8
0
 10
125.865
 20
40.5045
 11
125.85
 21
40.7
  0
LINE
  8
0
 10
125.85
 20
40.7
 11
125.865
 21
40.8955
  0
LINE
  8
0
 10
125.865
 20
40.8955
 11
125.911
 21
41.0863
  0
LINE
  8
0
 10
125.911
 20
41.0863
 11
125.986
 21
41.2675
  0
LINE
  8
0
 10
125.986
 20
41.2675
 11
126.089
 21
41.4347
  0
LINE
  8
0
 10
126.089
 20
41.4347
 11
126.216
 21
41.5839
  0
LINE
  8
0
 10
126.216
 20
41.5839
 11
126.365
 21
41.7113
  0
LINE
  8
0
 10
126.365
 20
41.7113
 11
126.533
 21
41.8138
  0
LINE
  8
0
 10
126.533
 20
41.8138
 11
126.714
 21
41.8888
  0
LINE
  8
0
 10
126.714
 20
41.8888
 11
126.904
 21
41.9346
  0
LINE
  8
0
 10
126.904
 20
41.9346
 11
127.1
 21
41.95
  0
LINE
  8
0
 10
127.1
 20
41.95
 11
127.296
 21
41.9346
  0
LINE
  8
0
 10
127.296
 20
41.9346
 11
127.486
 21
41.8888
  0
LINE
  8
0
 10
127.486
 20
41.8888
 11
127.667
 21
41.8138
  0
LINE
  8
0
 10
127.667
 20
41.8138
 11
127.835
 21
41.7113
  0
LINE
  8
0
 10
127.835
 20
41.7113
 11
127.984
 21
41.5839
  0
LINE
  8
0
 10
127.984
 20
41.5839
 11
128.111
 21
41.4347
  0
LINE
  8
0
 10
128.111
 20
41.4347
 11
128.214
 21
41.2675
  0
LINE
  8
0
 10
128.214
 20
41.2675
 11
128.289
 21
41.0863
  0
LINE
  8
0
 10
128.289
 20
41.0863
 11
128.335
 21
40.8955
  0
LINE
  8
0
 10
128.335
 20
40.8955
 11
128.35
 21
40.7
  0
LINE
  8
0
 10
128.35
 20
40.7
 11
128.335
 21
40.5045
  0
LINE
  8
0
 10
128.335
 20
40.5045
 11
128.289
 21
40.3137
  0
LINE
  8
0
 10
128.289
 20
40.3137
 11
128.214
 21
40.1325
  0
LINE
  8
0
 10
128.214
 20
40.1325
 11
128.111
 21
39.9653
  0
LINE
  8
0
 10
128.111
 20
39.9653
 11
127.984
 21
39.8161
  0
LINE
  8
0
 10
127.984
 20
39.8161
 11
127.835
 21
39.6887
  0
LINE
  8
0
 10
127.835
 20
39.6887
 11
127.667
 21
39.5862
  0
LINE
  8
0
 10
127.667
 20
39.5862
 11
127.486
 21
39.5112
  0
LINE
  8
0
 10
127.486
 20
39.5112
 11
127.296
 21
39.4654
  0
LINE
  8
0
 10
127.296
 20
39.4654
 11
127.1
 21
39.45
  0
LINE
  8
0
 10
127.1
 20
39.45
 11
126.904
 21
39.4654
  0
LINE
  8
0
 10
17.1044
 20
39.4654
 11
16.9137
 21
39.5112
  0
LINE
  8
0
 10
16.9137
 20
39.5112
 11
16.7325
 21
39.5862
  0
LINE
  8
0
 10
16.7325
 20
39.5862
 11
16.5653
 21
39.6887
  0
LINE
  8
0
 10
16.5653
 20
39.6887
 11
16.4161
 21
39.8161
  0
LINE
  8
0
 10
16.4161
 20
39.8161
 11
16.2887
 21
39.9653
  0
LINE
  8
0
 10
16.2887
 20
39.9653
 11
16.1862
 21
40.1325
  0
LINE
  8
0
 10
16.1862
 20
40.1325
 11
16.1112
 21
40.3137
  0
LINE
  8
0
 10
16.1112
 20
40.3137
 11
16.0654
 21
40.5045
  0
LINE
  8
0
 10
16.0654
 20
40.5045
 11
16.05
 21
40.7
  0
LINE
  8
0
 10
16.05
 20
40.7
 11
16.0654
 21
40.8955
  0
LINE
  8
0
 10
16.0654
 20
40.8955
 11
16.1112
 21
41.0863
  0
LINE
  8
0
 10
16.1112
 20
41.0863
 11
16.1862
 21
41.2675
  0
LINE
  8
0
 10
16.1862
 20
41.2675
 11
16.2887
 21
41.4347
  0
LINE
  8
0
 10
16.2887
 20
41.4347
 11
16.4161
 21
41.5839
  0
LINE
  8
0
 10
16.4161
 20
41.5839
 11
16.5653
 21
41.7113
  0
LINE
  8
0
 10
16.5653
 20
41.7113
 11
16.7325
 21
41.8138
  0
LINE
  8
0
 10
16.7325
 20
41.8138
 11
16.9137
 21
41.8888
  0
LINE
  8
0
 10
16.9137
 20
41.8888
 11
17.1044
 21
41.9346
  0
LINE
  8
0
 10
17.1044
 20
41.9346
 11
17.3
 21
41.95
  0
LINE
  8
0
 10
17.3
 20
41.95
 11
17.4955
 21
41.9346
  0
LINE
  8
0
 10
17.4955
 20
41.9346
 11
17.6863
 21
41.8888
  0
LINE
  8
0
 10
17.6863
 20
41.8888
 11
17.8675
 21
41.8138
  0
LINE
  8
0
 10
17.8675
 20
41.8138
 11
18.0347
 21
41.7113
  0
LINE
  8
0
 10
18.0347
 20
41.7113
 11
18.1839
 21
41.5839
  0
LINE
  8
0
 10
18.1839
 20
41.5839
 11
18.3113
 21
41.4347
  0
LINE
  8
0
 10
18.3113
 20
41.4347
 11
18.4138
 21
41.2675
  0
LINE
  8
0
 10
18.4138
 20
41.2675
 11
18.4888
 21
41.0863
  0
LINE
  8
0
 10
18.4888
 20
41.0863
 11
18.5346
 21
40.8955
  0
LINE
  8
0
 10
18.5346
 20
40.8955
 11
18.55
 21
40.7
  0
LINE
  8
0
 10
18.55
 20
40.7
 11
18.5346
 21
40.5045
  0
LINE
  8
0
 10
18.5346
 20
40.5045
 11
18.4888
 21
40.3137
  0
LINE
  8
0
 10
18.4888
 20
40.3137
 11
18.4138
 21
40.1325
  0
LINE
  8
0
 10
18.4138
 20
40.1325
 11
18.3113
 21
39.9653
  0
LINE
  8
0
 10
18.3113
 20
39.9653
 11
18.1839
 21
39.8161
  0
LINE
  8
0
 10
18.1839
 20
39.8161
 11
18.0347
 21
39.6887
  0
LINE
  8
0
 10
18.0347
 20
39.6887
 11
17.8675
 21
39.5862
  0
LINE
  8
0
 10
17.8675
 20
39.5862
 11
17.6863
 21
39.5112
  0
LINE
  8
0
 10
17.6863
 20
39.5112
 11
17.4955
 21
39.4654
  0
LINE
  8
0
 10
17.4955
 20
39.4654
 11
17.3
 21
39.45
  0
LINE
  8
0
 10
17.3
 20
39.45
 11
17.1044
 21
39.4654
  0
LINE
  8
0
 10
241.712
 20
38.9148
 11
241.529
 21
38.9587
  0
LINE
  8
0
 10
241.529
 20
38.9587
 11
241.355
 21
39.0308
  0
LINE
  8
0
 10
241.355
 20
39.0308
 11
241.195
 21
39.1292
  0
LINE
  8
0
 10
241.195
 20
39.1292
 11
241.051
 21
39.2515
  0
LINE
  8
0
 10
241.051
 20
39.2515
 11
240.929
 21
39.3947
  0
LINE
  8
0
 10
240.929
 20
39.3947
 11
240.831
 21
39.5552
  0
LINE
  8
0
 10
240.831
 20
39.5552
 11
240.759
 21
39.7292
  0
LINE
  8
0
 10
240.759
 20
39.7292
 11
240.715
 21
39.9123
  0
LINE
  8
0
 10
240.715
 20
39.9123
 11
240.7
 21
40.1
  0
LINE
  8
0
 10
240.7
 20
40.1
 11
240.715
 21
40.2877
  0
LINE
  8
0
 10
240.715
 20
40.2877
 11
240.759
 21
40.4708
  0
LINE
  8
0
 10
240.759
 20
40.4708
 11
240.831
 21
40.6448
  0
LINE
  8
0
 10
240.831
 20
40.6448
 11
240.929
 21
40.8053
  0
LINE
  8
0
 10
240.929
 20
40.8053
 11
241.051
 21
40.9485
  0
LINE
  8
0
 10
241.051
 20
40.9485
 11
241.195
 21
41.0708
  0
LINE
  8
0
 10
241.195
 20
41.0708
 11
241.355
 21
41.1692
  0
LINE
  8
0
 10
241.355
 20
41.1692
 11
241.529
 21
41.2413
  0
LINE
  8
0
 10
241.529
 20
41.2413
 11
241.712
 21
41.2852
  0
LINE
  8
0
 10
241.712
 20
41.2852
 11
241.9
 21
41.3
  0
LINE
  8
0
 10
241.9
 20
41.3
 11
242.088
 21
41.2852
  0
LINE
  8
0
 10
242.088
 20
41.2852
 11
242.271
 21
41.2413
  0
LINE
  8
0
 10
242.271
 20
41.2413
 11
242.445
 21
41.1692
  0
LINE
  8
0
 10
242.445
 20
41.1692
 11
242.605
 21
41.0708
  0
LINE
  8
0
 10
242.605
 20
41.0708
 11
242.749
 21
40.9485
  0
LINE
  8
0
 10
242.749
 20
40.9485
 11
242.871
 21
40.8053
  0
LINE
  8
0
 10
242.871
 20
40.8053
 11
242.969
 21
40.6448
  0
LINE
  8
0
 10
242.969
 20
40.6448
 11
243.041
 21
40.4708
  0
LINE
  8
0
 10
243.041
 20
40.4708
 11
243.085
 21
40.2877
  0
LINE
  8
0
 10
243.085
 20
40.2877
 11
243.1
 21
40.1
  0
LINE
  8
0
 10
243.1
 20
40.1
 11
243.085
 21
39.9123
  0
LINE
  8
0
 10
243.085
 20
39.9123
 11
243.041
 21
39.7292
  0
LINE
  8
0
 10
243.041
 20
39.7292
 11
242.969
 21
39.5552
  0
LINE
  8
0
 10
242.969
 20
39.5552
 11
242.871
 21
39.3947
  0
LINE
  8
0
 10
242.871
 20
39.3947
 11
242.749
 21
39.2515
  0
LINE
  8
0
 10
242.749
 20
39.2515
 11
242.605
 21
39.1292
  0
LINE
  8
0
 10
242.605
 20
39.1292
 11
242.445
 21
39.0308
  0
LINE
  8
0
 10
242.445
 20
39.0308
 11
242.271
 21
38.9587
  0
LINE
  8
0
 10
242.271
 20
38.9587
 11
242.088
 21
38.9148
  0
LINE
  8
0
 10
242.088
 20
38.9148
 11
241.9
 21
38.9
  0
LINE
  8
0
 10
241.9
 20
38.9
 11
241.712
 21
38.9148
  0
LINE
  8
0
 10
142.412
 20
38.9148
 11
142.229
 21
38.9587
  0
LINE
  8
0
 10
142.229
 20
38.9587
 11
142.055
 21
39.0308
  0
LINE
  8
0
 10
142.055
 20
39.0308
 11
141.895
 21
39.1292
  0
LINE
  8
0
 10
141.895
 20
39.1292
 11
141.751
 21
39.2515
  0
LINE
  8
0
 10
141.751
 20
39.2515
 11
141.629
 21
39.3947
  0
LINE
  8
0
 10
141.629
 20
39.3947
 11
141.531
 21
39.5552
  0
LINE
  8
0
 10
141.531
 20
39.5552
 11
141.459
 21
39.7292
  0
LINE
  8
0
 10
141.459
 20
39.7292
 11
141.415
 21
39.9123
  0
LINE
  8
0
 10
141.415
 20
39.9123
 11
141.4
 21
40.1
  0
LINE
  8
0
 10
141.4
 20
40.1
 11
141.415
 21
40.2877
  0
LINE
  8
0
 10
141.415
 20
40.2877
 11
141.459
 21
40.4708
  0
LINE
  8
0
 10
141.459
 20
40.4708
 11
141.531
 21
40.6448
  0
LINE
  8
0
 10
141.531
 20
40.6448
 11
141.629
 21
40.8053
  0
LINE
  8
0
 10
141.629
 20
40.8053
 11
141.751
 21
40.9485
  0
LINE
  8
0
 10
141.751
 20
40.9485
 11
141.895
 21
41.0708
  0
LINE
  8
0
 10
141.895
 20
41.0708
 11
142.055
 21
41.1692
  0
LINE
  8
0
 10
142.055
 20
41.1692
 11
142.229
 21
41.2413
  0
LINE
  8
0
 10
142.229
 20
41.2413
 11
142.412
 21
41.2852
  0
LINE
  8
0
 10
142.412
 20
41.2852
 11
142.6
 21
41.3
  0
LINE
  8
0
 10
142.6
 20
41.3
 11
142.788
 21
41.2852
  0
LINE
  8
0
 10
142.788
 20
41.2852
 11
142.971
 21
41.2413
  0
LINE
  8
0
 10
142.971
 20
41.2413
 11
143.145
 21
41.1692
  0
LINE
  8
0
 10
143.145
 20
41.1692
 11
143.305
 21
41.0708
  0
LINE
  8
0
 10
143.305
 20
41.0708
 11
143.449
 21
40.9485
  0
LINE
  8
0
 10
143.449
 20
40.9485
 11
143.571
 21
40.8053
  0
LINE
  8
0
 10
143.571
 20
40.8053
 11
143.669
 21
40.6448
  0
LINE
  8
0
 10
143.669
 20
40.6448
 11
143.741
 21
40.4708
  0
LINE
  8
0
 10
143.741
 20
40.4708
 11
143.785
 21
40.2877
  0
LINE
  8
0
 10
143.785
 20
40.2877
 11
143.8
 21
40.1
  0
LINE
  8
0
 10
143.8
 20
40.1
 11
143.785
 21
39.9123
  0
LINE
  8
0
 10
143.785
 20
39.9123
 11
143.741
 21
39.7292
  0
LINE
  8
0
 10
143.741
 20
39.7292
 11
143.669
 21
39.5552
  0
LINE
  8
0
 10
143.669
 20
39.5552
 11
143.571
 21
39.3947
  0
LINE
  8
0
 10
143.571
 20
39.3947
 11
143.449
 21
39.2515
  0
LINE
  8
0
 10
143.449
 20
39.2515
 11
143.305
 21
39.1292
  0
LINE
  8
0
 10
143.305
 20
39.1292
 11
143.145
 21
39.0308
  0
LINE
  8
0
 10
143.145
 20
39.0308
 11
142.971
 21
38.9587
  0
LINE
  8
0
 10
142.971
 20
38.9587
 11
142.788
 21
38.9148
  0
LINE
  8
0
 10
142.788
 20
38.9148
 11
142.6
 21
38.9
  0
LINE
  8
0
 10
142.6
 20
38.9
 11
142.412
 21
38.9148
  0
LINE
  8
0
 10
115.512
 20
38.9148
 11
115.329
 21
38.9587
  0
LINE
  8
0
 10
115.329
 20
38.9587
 11
115.155
 21
39.0308
  0
LINE
  8
0
 10
115.155
 20
39.0308
 11
114.995
 21
39.1292
  0
LINE
  8
0
 10
114.995
 20
39.1292
 11
114.851
 21
39.2515
  0
LINE
  8
0
 10
114.851
 20
39.2515
 11
114.729
 21
39.3947
  0
LINE
  8
0
 10
114.729
 20
39.3947
 11
114.631
 21
39.5552
  0
LINE
  8
0
 10
114.631
 20
39.5552
 11
114.559
 21
39.7292
  0
LINE
  8
0
 10
114.559
 20
39.7292
 11
114.515
 21
39.9123
  0
LINE
  8
0
 10
114.515
 20
39.9123
 11
114.5
 21
40.1
  0
LINE
  8
0
 10
114.5
 20
40.1
 11
114.515
 21
40.2877
  0
LINE
  8
0
 10
114.515
 20
40.2877
 11
114.559
 21
40.4708
  0
LINE
  8
0
 10
114.559
 20
40.4708
 11
114.631
 21
40.6448
  0
LINE
  8
0
 10
114.631
 20
40.6448
 11
114.729
 21
40.8053
  0
LINE
  8
0
 10
114.729
 20
40.8053
 11
114.851
 21
40.9485
  0
LINE
  8
0
 10
114.851
 20
40.9485
 11
114.995
 21
41.0708
  0
LINE
  8
0
 10
114.995
 20
41.0708
 11
115.155
 21
41.1692
  0
LINE
  8
0
 10
115.155
 20
41.1692
 11
115.329
 21
41.2413
  0
LINE
  8
0
 10
115.329
 20
41.2413
 11
115.512
 21
41.2852
  0
LINE
  8
0
 10
115.512
 20
41.2852
 11
115.7
 21
41.3
  0
LINE
  8
0
 10
115.7
 20
41.3
 11
115.888
 21
41.2852
  0
LINE
  8
0
 10
115.888
 20
41.2852
 11
116.071
 21
41.2413
  0
LINE
  8
0
 10
116.071
 20
41.2413
 11
116.245
 21
41.1692
  0
LINE
  8
0
 10
116.245
 20
41.1692
 11
116.405
 21
41.0708
  0
LINE
  8
0
 10
116.405
 20
41.0708
 11
116.549
 21
40.9485
  0
LINE
  8
0
 10
116.549
 20
40.9485
 11
116.671
 21
40.8053
  0
LINE
  8
0
 10
116.671
 20
40.8053
 11
116.769
 21
40.6448
  0
LINE
  8
0
 10
116.769
 20
40.6448
 11
116.841
 21
40.4708
  0
LINE
  8
0
 10
116.841
 20
40.4708
 11
116.885
 21
40.2877
  0
LINE
  8
0
 10
116.885
 20
40.2877
 11
116.9
 21
40.1
  0
LINE
  8
0
 10
116.9
 20
40.1
 11
116.885
 21
39.9123
  0
LINE
  8
0
 10
116.885
 20
39.9123
 11
116.841
 21
39.7292
  0
LINE
  8
0
 10
116.841
 20
39.7292
 11
116.769
 21
39.5552
  0
LINE
  8
0
 10
116.769
 20
39.5552
 11
116.671
 21
39.3947
  0
LINE
  8
0
 10
116.671
 20
39.3947
 11
116.549
 21
39.2515
  0
LINE
  8
0
 10
116.549
 20
39.2515
 11
116.405
 21
39.1292
  0
LINE
  8
0
 10
116.405
 20
39.1292
 11
116.245
 21
39.0308
  0
LINE
  8
0
 10
116.245
 20
39.0308
 11
116.071
 21
38.9587
  0
LINE
  8
0
 10
116.071
 20
38.9587
 11
115.888
 21
38.9148
  0
LINE
  8
0
 10
115.888
 20
38.9148
 11
115.7
 21
38.9
  0
LINE
  8
0
 10
115.7
 20
38.9
 11
115.512
 21
38.9148
  0
LINE
  8
0
 10
34.2123
 20
38.9148
 11
34.0292
 21
38.9587
  0
LINE
  8
0
 10
34.0292
 20
38.9587
 11
33.8552
 21
39.0308
  0
LINE
  8
0
 10
33.8552
 20
39.0308
 11
33.6947
 21
39.1292
  0
LINE
  8
0
 10
33.6947
 20
39.1292
 11
33.5515
 21
39.2515
  0
LINE
  8
0
 10
33.5515
 20
39.2515
 11
33.4292
 21
39.3947
  0
LINE
  8
0
 10
33.4292
 20
39.3947
 11
33.3308
 21
39.5552
  0
LINE
  8
0
 10
33.3308
 20
39.5552
 11
33.2587
 21
39.7292
  0
LINE
  8
0
 10
33.2587
 20
39.7292
 11
33.2148
 21
39.9123
  0
LINE
  8
0
 10
33.2148
 20
39.9123
 11
33.2
 21
40.1
  0
LINE
  8
0
 10
33.2
 20
40.1
 11
33.2148
 21
40.2877
  0
LINE
  8
0
 10
33.2148
 20
40.2877
 11
33.2587
 21
40.4708
  0
LINE
  8
0
 10
33.2587
 20
40.4708
 11
33.3308
 21
40.6448
  0
LINE
  8
0
 10
33.3308
 20
40.6448
 11
33.4292
 21
40.8053
  0
LINE
  8
0
 10
33.4292
 20
40.8053
 11
33.5515
 21
40.9485
  0
LINE
  8
0
 10
33.5515
 20
40.9485
 11
33.6947
 21
41.0708
  0
LINE
  8
0
 10
33.6947
 20
41.0708
 11
33.8552
 21
41.1692
  0
LINE
  8
0
 10
33.8552
 20
41.1692
 11
34.0292
 21
41.2413
  0
LINE
  8
0
 10
34.0292
 20
41.2413
 11
34.2123
 21
41.2852
  0
LINE
  8
0
 10
34.2123
 20
41.2852
 11
34.4
 21
41.3
  0
LINE
  8
0
 10
34.4
 20
41.3
 11
34.5877
 21
41.2852
  0
LINE
  8
0
 10
34.5877
 20
41.2852
 11
34.7708
 21
41.2413
  0
LINE
  8
0
 10
34.7708
 20
41.2413
 11
34.9448
 21
41.1692
  0
LINE
  8
0
 10
34.9448
 20
41.1692
 11
35.1053
 21
41.0708
  0
LINE
  8
0
 10
35.1053
 20
41.0708
 11
35.2485
 21
40.9485
  0
LINE
  8
0
 10
35.2485
 20
40.9485
 11
35.3708
 21
40.8053
  0
LINE
  8
0
 10
35.3708
 20
40.8053
 11
35.4692
 21
40.6448
  0
LINE
  8
0
 10
35.4692
 20
40.6448
 11
35.5413
 21
40.4708
  0
LINE
  8
0
 10
35.5413
 20
40.4708
 11
35.5852
 21
40.2877
  0
LINE
  8
0
 10
35.5852
 20
40.2877
 11
35.6
 21
40.1
  0
LINE
  8
0
 10
35.6
 20
40.1
 11
35.5852
 21
39.9123
  0
LINE
  8
0
 10
35.5852
 20
39.9123
 11
35.5413
 21
39.7292
  0
LINE
  8
0
 10
35.5413
 20
39.7292
 11
35.4692
 21
39.5552
  0
LINE
  8
0
 10
35.4692
 20
39.5552
 11
35.3708
 21
39.3947
  0
LINE
  8
0
 10
35.3708
 20
39.3947
 11
35.2485
 21
39.2515
  0
LINE
  8
0
 10
35.2485
 20
39.2515
 11
35.1053
 21
39.1292
  0
LINE
  8
0
 10
35.1053
 20
39.1292
 11
34.9448
 21
39.0308
  0
LINE
  8
0
 10
34.9448
 20
39.0308
 11
34.7708
 21
38.9587
  0
LINE
  8
0
 10
34.7708
 20
38.9587
 11
34.5877
 21
38.9148
  0
LINE
  8
0
 10
34.5877
 20
38.9148
 11
34.4
 21
38.9
  0
LINE
  8
0
 10
34.4
 20
38.9
 11
34.2123
 21
38.9148
  0
LINE
  8
0
 10
203.2
 20
24.5
 11
203.2
 21
38.5
  0
LINE
  8
0
 10
203.2
 20
38.5
 11
217.2
 21
38.5
  0
LINE
  8
0
 10
217.2
 20
38.5
 11
217.2
 21
24.5
  0
LINE
  8
0
 10
217.2
 20
24.5
 11
203.2
 21
24.5
  0
LINE
  8
0
 10
95
 20
24.5
 11
95
 21
38.5
  0
LINE
  8
0
 10
95
 20
38.5
 11
109
 21
38.5
  0
LINE
  8
0
 10
109
 20
38.5
 11
109
 21
24.5
  0
LINE
  8
0
 10
109
 20
24.5
 11
95
 21
24.5
  0
LINE
  8
0
 10
77
 20
15.5
 11
77
 21
29.5
  0
LINE
  8
0
 10
77
 20
29.5
 11
91
 21
29.5
  0
LINE
  8
0
 10
91
 20
29.5
 11
91
 21
15.5
  0
LINE
  8
0
 10
91
 20
15.5
 11
77
 21
15.5
  0
LINE
  8
0
 10
37
 20
15.5
 11
37
 21
29.5
  0
LINE
  8
0
 10
37
 20
29.5
 11
51
 21
29.5
  0
LINE
  8
0
 10
51
 20
29.5
 11
51
 21
15.5
  0
LINE
  8
0
 10
51
 20
15.5
 11
37
 21
15.5
  0
LINE
  8
0
 10
57
 20
15.5
 11
57
 21
29.5
  0
LINE
  8
0
 10
57
 20
29.5
 11
71
 21
29.5
  0
LINE
  8
0
 10
71
 20
29.5
 11
71
 21
15.5
  0
LINE
  8
0
 10
71
 20
15.5
 11
57
 21
15.5
  0
LINE
  8
0
 10
145.2
 20
15.5
 11
145.2
 21
29.5
  0
LINE
  8
0
 10
145.2
 20
29.5
 11
159.2
 21
29.5
  0
LINE
  8
0
 10
159.2
 20
29.5
 11
159.2
 21
15.5
  0
LINE
  8
0
 10
159.2
 20
15.5
 11
145.2
 21
15.5
  0
LINE
  8
0
 10
165.2
 20
15.5
 11
165.2
 21
29.5
  0
LINE
  8
0
 10
165.2
 20
29.5
 11
179.2
 21
29.5
  0
LINE
  8
0
 10
179.2
 20
29.5
 11
179.2
 21
15.5
  0
LINE
  8
0
 10
179.2
 20
15.5
 11
165.2
 21
15.5
  0
LINE
  8
0
 10
185.2
 20
15.5
 11
185.2
 21
29.5
  0
LINE
  8
0
 10
185.2
 20
29.5
 11
199.2
 21
29.5
  0
LINE
  8
0
 10
199.2
 20
29.5
 11
199.2
 21
15.5
  0
LINE
  8
0
 10
199.2
 20
15.5
 11
185.2
 21
15.5
  0
LINE
  8
0
 10
203.2
 20
6.5
 11
203.2
 21
20.5
  0
LINE
  8
0
 10
203.2
 20
20.5
 11
217.2
 21
20.5
  0
LINE
  8
0
 10
217.2
 20
20.5
 11
217.2
 21
6.5
  0
LINE
  8
0
 10
217.2
 20
6.5
 11
203.2
 21
6.5
  0
LINE
  8
0
 10
221.2
 20
6.5
 11
221.2
 21
20.5
  0
LINE
  8
0
 10
221.2
 20
20.5
 11
235.2
 21
20.5
  0
LINE
  8
0
 10
235.2
 20
20.5
 11
235.2
 21
6.5
  0
LINE
  8
0
 10
235.2
 20
6.5
 11
221.2
 21
6.5
  0
LINE
  8
0
 10
95
 20
6.5
 11
95
 21
20.5
  0
LINE
  8
0
 10
95
 20
20.5
 11
109
 21
20.5
  0
LINE
  8
0
 10
109
 20
20.5
 11
109
 21
6.5
  0
LINE
  8
0
 10
109
 20
6.5
 11
95
 21
6.5
  0
LINE
  8
0
 10
241.712
 20
3.71477
 11
241.529
 21
3.75873
  0
LINE
  8
0
 10
241.529
 20
3.75873
 11
241.355
 21
3.83078
  0
LINE
  8
0
 10
241.355
 20
3.83078
 11
241.195
 21
3.92917
  0
LINE
  8
0
 10
241.195
 20
3.92917
 11
241.051
 21
4.05147
  0
LINE
  8
0
 10
241.051
 20
4.05147
 11
240.929
 21
4.19466
  0
LINE
  8
0
 10
240.929
 20
4.19466
 11
240.831
 21
4.35521
  0
LINE
  8
0
 10
240.831
 20
4.35521
 11
240.759
 21
4.52917
  0
LINE
  8
0
 10
240.759
 20
4.52917
 11
240.715
 21
4.71227
  0
LINE
  8
0
 10
240.715
 20
4.71227
 11
240.7
 21
4.89999
  0
LINE
  8
0
 10
240.7
 20
4.89999
 11
240.715
 21
5.08771
  0
LINE
  8
0
 10
240.715
 20
5.08771
 11
240.759
 21
5.27081
  0
LINE
  8
0
 10
240.759
 20
5.27081
 11
240.831
 21
5.44478
  0
LINE
  8
0
 10
240.831
 20
5.44478
 11
240.929
 21
5.60533
  0
LINE
  8
0
 10
240.929
 20
5.60533
 11
241.051
 21
5.74852
  0
LINE
  8
0
 10
241.051
 20
5.74852
 11
241.195
 21
5.87082
  0
LINE
  8
0
 10
241.195
 20
5.87082
 11
241.355
 21
5.96921
  0
LINE
  8
0
 10
241.355
 20
5.96921
 11
241.529
 21
6.04126
  0
LINE
  8
0
 10
241.529
 20
6.04126
 11
241.712
 21
6.08522
  0
LINE
  8
0
 10
241.712
 20
6.08522
 11
241.9
 21
6.09999
  0
LINE
  8
0
 10
241.9
 20
6.09999
 11
242.088
 21
6.08522
  0
LINE
  8
0
 10
242.088
 20
6.08522
 11
242.271
 21
6.04126
  0
LINE
  8
0
 10
242.271
 20
6.04126
 11
242.445
 21
5.96921
  0
LINE
  8
0
 10
242.445
 20
5.96921
 11
242.605
 21
5.87082
  0
LINE
  8
0
 10
242.605
 20
5.87082
 11
242.749
 21
5.74852
  0
LINE
  8
0
 10
242.749
 20
5.74852
 11
242.871
 21
5.60533
  0
LINE
  8
0
 10
242.871
 20
5.60533
 11
242.969
 21
5.44478
  0
LINE
  8
0
 10
242.969
 20
5.44478
 11
243.041
 21
5.27081
  0
LINE
  8
0
 10
243.041
 20
5.27081
 11
243.085
 21
5.08771
  0
LINE
  8
0
 10
243.085
 20
5.08771
 11
243.1
 21
4.89999
  0
LINE
  8
0
 10
243.1
 20
4.89999
 11
243.085
 21
4.71227
  0
LINE
  8
0
 10
243.085
 20
4.71227
 11
243.041
 21
4.52917
  0
LINE
  8
0
 10
243.041
 20
4.52917
 11
242.969
 21
4.35521
  0
LINE
  8
0
 10
242.969
 20
4.35521
 11
242.871
 21
4.19466
  0
LINE
  8
0
 10
242.871
 20
4.19466
 11
242.749
 21
4.05147
  0
LINE
  8
0
 10
242.749
 20
4.05147
 11
242.605
 21
3.92917
  0
LINE
  8
0
 10
242.605
 20
3.92917
 11
242.445
 21
3.83078
  0
LINE
  8
0
 10
242.445
 20
3.83078
 11
242.271
 21
3.75873
  0
LINE
  8
0
 10
242.271
 20
3.75873
 11
242.088
 21
3.71477
  0
LINE
  8
0
 10
242.088
 20
3.71477
 11
241.9
 21
3.7
  0
LINE
  8
0
 10
241.9
 20
3.7
 11
241.712
 21
3.71477
  0
LINE
  8
0
 10
142.412
 20
3.71477
 11
142.229
 21
3.75873
  0
LINE
  8
0
 10
142.229
 20
3.75873
 11
142.055
 21
3.83078
  0
LINE
  8
0
 10
142.055
 20
3.83078
 11
141.895
 21
3.92917
  0
LINE
  8
0
 10
141.895
 20
3.92917
 11
141.751
 21
4.05147
  0
LINE
  8
0
 10
141.751
 20
4.05147
 11
141.629
 21
4.19466
  0
LINE
  8
0
 10
141.629
 20
4.19466
 11
141.531
 21
4.35521
  0
LINE
  8
0
 10
141.531
 20
4.35521
 11
141.459
 21
4.52917
  0
LINE
  8
0
 10
141.459
 20
4.52917
 11
141.415
 21
4.71227
  0
LINE
  8
0
 10
141.415
 20
4.71227
 11
141.4
 21
4.89999
  0
LINE
  8
0
 10
141.4
 20
4.89999
 11
141.415
 21
5.08771
  0
LINE
  8
0
 10
141.415
 20
5.08771
 11
141.459
 21
5.27081
  0
LINE
  8
0
 10
141.459
 20
5.27081
 11
141.531
 21
5.44478
  0
LINE
  8
0
 10
141.531
 20
5.44478
 11
141.629
 21
5.60533
  0
LINE
  8
0
 10
141.629
 20
5.60533
 11
141.751
 21
5.74852
  0
LINE
  8
0
 10
141.751
 20
5.74852
 11
141.895
 21
5.87082
  0
LINE
  8
0
 10
141.895
 20
5.87082
 11
142.055
 21
5.96921
  0
LINE
  8
0
 10
142.055
 20
5.96921
 11
142.229
 21
6.04126
  0
LINE
  8
0
 10
142.229
 20
6.04126
 11
142.412
 21
6.08522
  0
LINE
  8
0
 10
142.412
 20
6.08522
 11
142.6
 21
6.09999
  0
LINE
  8
0
 10
142.6
 20
6.09999
 11
142.788
 21
6.08522
  0
LINE
  8
0
 10
142.788
 20
6.08522
 11
142.971
 21
6.04126
  0
LINE
  8
0
 10
142.971
 20
6.04126
 11
143.145
 21
5.96921
  0
LINE
  8
0
 10
143.145
 20
5.96921
 11
143.305
 21
5.87082
  0
LINE
  8
0
 10
143.305
 20
5.87082
 11
143.449
 21
5.74852
  0
LINE
  8
0
 10
143.449
 20
5.74852
 11
143.571
 21
5.60533
  0
LINE
  8
0
 10
143.571
 20
5.60533
 11
143.669
 21
5.44478
  0
LINE
  8
0
 10
143.669
 20
5.44478
 11
143.741
 21
5.27081
  0
LINE
  8
0
 10
143.741
 20
5.27081
 11
143.785
 21
5.08771
  0
LINE
  8
0
 10
143.785
 20
5.08771
 11
143.8
 21
4.89999
  0
LINE
  8
0
 10
143.8
 20
4.89999
 11
143.785
 21
4.71227
  0
LINE
  8
0
 10
143.785
 20
4.71227
 11
143.741
 21
4.52917
  0
LINE
  8
0
 10
143.741
 20
4.52917
 11
143.669
 21
4.35521
  0
LINE
  8
0
 10
143.669
 20
4.35521
 11
143.571
 21
4.19466
  0
LINE
  8
0
 10
143.571
 20
4.19466
 11
143.449
 21
4.05147
  0
LINE
  8
0
 10
143.449
 20
4.05147
 11
143.305
 21
3.92917
  0
LINE
  8
0
 10
143.305
 20
3.92917
 11
143.145
 21
3.83078
  0
LINE
  8
0
 10
143.145
 20
3.83078
 11
142.971
 21
3.75873
  0
LINE
  8
0
 10
142.971
 20
3.75873
 11
142.788
 21
3.71477
  0
LINE
  8
0
 10
142.788
 20
3.71477
 11
142.6
 21
3.7
  0
LINE
  8
0
 10
142.6
 20
3.7
 11
142.412
 21
3.71477
  0
LINE
  8
0
 10
115.512
 20
3.71477
 11
115.329
 21
3.75873
  0
LINE
  8
0
 10
115.329
 20
3.75873
 11
115.155
 21
3.83078
  0
LINE
  8
0
 10
115.155
 20
3.83078
 11
114.995
 21
3.92917
  0
LINE
  8
0
 10
114.995
 20
3.92917
 11
114.851
 21
4.05147
  0
LINE
  8
0
 10
114.851
 20
4.05147
 11
114.729
 21
4.19466
  0
LINE
  8
0
 10
114.729
 20
4.19466
 11
114.631
 21
4.35521
  0
LINE
  8
0
 10
114.631
 20
4.35521
 11
114.559
 21
4.52917
  0
LINE
  8
0
 10
114.559
 20
4.52917
 11
114.515
 21
4.71227
  0
LINE
  8
0
 10
114.515
 20
4.71227
 11
114.5
 21
4.89999
  0
LINE
  8
0
 10
114.5
 20
4.89999
 11
114.515
 21
5.08771
  0
LINE
  8
0
 10
114.515
 20
5.08771
 11
114.559
 21
5.27081
  0
LINE
  8
0
 10
114.559
 20
5.27081
 11
114.631
 21
5.44478
  0
LINE
  8
0
 10
114.631
 20
5.44478
 11
114.729
 21
5.60533
  0
LINE
  8
0
 10
114.729
 20
5.60533
 11
114.851
 21
5.74852
  0
LINE
  8
0
 10
114.851
 20
5.74852
 11
114.995
 21
5.87082
  0
LINE
  8
0
 10
114.995
 20
5.87082
 11
115.155
 21
5.96921
  0
LINE
  8
0
 10
115.155
 20
5.96921
 11
115.329
 21
6.04126
  0
LINE
  8
0
 10
115.329
 20
6.04126
 11
115.512
 21
6.08522
  0
LINE
  8
0
 10
115.512
 20
6.08522
 11
115.7
 21
6.09999
  0
LINE
  8
0
 10
115.7
 20
6.09999
 11
115.888
 21
6.08522
  0
LINE
  8
0
 10
115.888
 20
6.08522
 11
116.071
 21
6.04126
  0
LINE
  8
0
 10
116.071
 20
6.04126
 11
116.245
 21
5.96921
  0
LINE
  8
0
 10
116.245
 20
5.96921
 11
116.405
 21
5.87082
  0
LINE
  8
0
 10
116.405
 20
5.87082
 11
116.549
 21
5.74852
  0
LINE
  8
0
 10
116.549
 20
5.74852
 11
116.671
 21
5.60533
  0
LINE
  8
0
 10
116.671
 20
5.60533
 11
116.769
 21
5.44478
  0
LINE
  8
0
 10
116.769
 20
5.44478
 11
116.841
 21
5.27081
  0
LINE
  8
0
 10
116.841
 20
5.27081
 11
116.885
 21
5.08771
  0
LINE
  8
0
 10
116.885
 20
5.08771
 11
116.9
 21
4.89999
  0
LINE
  8
0
 10
116.9
 20
4.89999
 11
116.885
 21
4.71227
  0
LINE
  8
0
 10
116.885
 20
4.71227
 11
116.841
 21
4.52917
  0
LINE
  8
0
 10
116.841
 20
4.52917
 11
116.769
 21
4.35521
  0
LINE
  8
0
 10
116.769
 20
4.35521
 11
116.671
 21
4.19466
  0
LINE
  8
0
 10
116.671
 20
4.19466
 11
116.549
 21
4.05147
  0
LINE
  8
0
 10
116.549
 20
4.05147
 11
116.405
 21
3.92917
  0
LINE
  8
0
 10
116.405
 20
3.92917
 11
116.245
 21
3.83078
  0
LINE
  8
0
 10
116.245
 20
3.83078
 11
116.071
 21
3.75873
  0
LINE
  8
0
 10
116.071
 20
3.75873
 11
115.888
 21
3.71477
  0
LINE
  8
0
 10
115.888
 20
3.71477
 11
115.7
 21
3.7
  0
LINE
  8
0
 10
115.7
 20
3.7
 11
115.512
 21
3.71477
  0
LINE
  8
0
 10
34.2123
 20
3.71477
 11
34.0292
 21
3.75873
  0
LINE
  8
0
 10
34.0292
 20
3.75873
 11
33.8552
 21
3.83078
  0
LINE
  8
0
 10
33.8552
 20
3.83078
 11
33.6947
 21
3.92917
  0
LINE
  8
0
 10
33.6947
 20
3.92917
 11
33.5515
 21
4.05147
  0
LINE
  8
0
 10
33.5515
 20
4.05147
 11
33.4292
 21
4.19466
  0
LINE
  8
0
 10
33.4292
 20
4.19466
 11
33.3308
 21
4.35521
  0
LINE
  8
0
 10
33.3308
 20
4.35521
 11
33.2587
 21
4.52917
  0
LINE
  8
0
 10
33.2587
 20
4.52917
 11
33.2148
 21
4.71227
  0
LINE
  8
0
 10
33.2148
 20
4.71227
 11
33.2
 21
4.89999
  0
LINE
  8
0
 10
33.2
 20
4.89999
 11
33.2148
 21
5.08771
  0
LINE
  8
0
 10
33.2148
 20
5.08771
 11
33.2587
 21
5.27081
  0
LINE
  8
0
 10
33.2587
 20
5.27081
 11
33.3308
 21
5.44478
  0
LINE
  8
0
 10
33.3308
 20
5.44478
 11
33.4292
 21
5.60533
  0
LINE
  8
0
 10
33.4292
 20
5.60533
 11
33.5515
 21
5.74852
  0
LINE
  8
0
 10
33.5515
 20
5.74852
 11
33.6947
 21
5.87082
  0
LINE
  8
0
 10
33.6947
 20
5.87082
 11
33.8552
 21
5.96921
  0
LINE
  8
0
 10
33.8552
 20
5.96921
 11
34.0292
 21
6.04126
  0
LINE
  8
0
 10
34.0292
 20
6.04126
 11
34.2123
 21
6.08522
  0
LINE
  8
0
 10
34.2123
 20
6.08522
 11
34.4
 21
6.09999
  0
LINE
  8
0
 10
34.4
 20
6.09999
 11
34.5877
 21
6.08522
  0
LINE
  8
0
 10
34.5877
 20
6.08522
 11
34.7708
 21
6.04126
  0
LINE
  8
0
 10
34.7708
 20
6.04126
 11
34.9448
 21
5.96921
  0
LINE
  8
0
 10
34.9448
 20
5.96921
 11
35.1053
 21
5.87082
  0
LINE
  8
0
 10
35.1053
 20
5.87082
 11
35.2485
 21
5.74852
  0
LINE
  8
0
 10
35.2485
 20
5.74852
 11
35.3708
 21
5.60533
  0
LINE
  8
0
 10
35.3708
 20
5.60533
 11
35.4692
 21
5.44478
  0
LINE
  8
0
 10
35.4692
 20
5.44478
 11
35.5413
 21
5.27081
  0
LINE
  8
0
 10
35.5413
 20
5.27081
 11
35.5852
 21
5.08771
  0
LINE
  8
0
 10
35.5852
 20
5.08771
 11
35.6
 21
4.89999
  0
LINE
  8
0
 10
35.6
 20
4.89999
 11
35.5852
 21
4.71227
  0
LINE
  8
0
 10
35.5852
 20
4.71227
 11
35.5413
 21
4.52917
  0
LINE
  8
0
 10
35.5413
 20
4.52917
 11
35.4692
 21
4.35521
  0
LINE
  8
0
 10
35.4692
 20
4.35521
 11
35.3708
 21
4.19466
  0
LINE
  8
0
 10
35.3708
 20
4.19466
 11
35.2485
 21
4.05147
  0
LINE
  8
0
 10
35.2485
 20
4.05147
 11
35.1053
 21
3.92917
  0
LINE
  8
0
 10
35.1053
 20
3.92917
 11
34.9448
 21
3.83078
  0
LINE
  8
0
 10
34.9448
 20
3.83078
 11
34.7708
 21
3.75873
  0
LINE
  8
0
 10
34.7708
 20
3.75873
 11
34.5877
 21
3.71477
  0
LINE
  8
0
 10
34.5877
 20
3.71477
 11
34.4
 21
3.7
  0
LINE
  8
0
 10
34.4
 20
3.7
 11
34.2123
 21
3.71477
  0
LINE
  8
0
 10
249.604
 20
3.06538
 11
249.414
 21
3.11118
  0
LINE
  8
0
 10
249.414
 20
3.11118
 11
249.232
 21
3.18623
  0
LINE
  8
0
 10
249.232
 20
3.18623
 11
249.065
 21
3.28873
  0
LINE
  8
0
 10
249.065
 20
3.28873
 11
248.916
 21
3.41611
  0
LINE
  8
0
 10
248.916
 20
3.41611
 11
248.789
 21
3.56526
  0
LINE
  8
0
 10
248.789
 20
3.56526
 11
248.686
 21
3.7325
  0
LINE
  8
0
 10
248.686
 20
3.7325
 11
248.611
 21
3.91373
  0
LINE
  8
0
 10
248.611
 20
3.91373
 11
248.565
 21
4.10445
  0
LINE
  8
0
 10
248.565
 20
4.10445
 11
248.55
 21
4.29999
  0
LINE
  8
0
 10
248.55
 20
4.29999
 11
248.565
 21
4.49553
  0
LINE
  8
0
 10
248.565
 20
4.49553
 11
248.611
 21
4.68626
  0
LINE
  8
0
 10
248.611
 20
4.68626
 11
248.686
 21
4.86748
  0
LINE
  8
0
 10
248.686
 20
4.86748
 11
248.789
 21
5.03473
  0
LINE
  8
0
 10
248.789
 20
5.03473
 11
248.916
 21
5.18387
  0
LINE
  8
0
 10
248.916
 20
5.18387
 11
249.065
 21
5.31126
  0
LINE
  8
0
 10
249.065
 20
5.31126
 11
249.232
 21
5.41376
  0
LINE
  8
0
 10
249.232
 20
5.41376
 11
249.414
 21
5.48882
  0
LINE
  8
0
 10
249.414
 20
5.48882
 11
249.604
 21
5.53461
  0
LINE
  8
0
 10
249.604
 20
5.53461
 11
249.8
 21
5.54999
  0
LINE
  8
0
 10
249.8
 20
5.54999
 11
249.996
 21
5.53461
  0
LINE
  8
0
 10
249.996
 20
5.53461
 11
250.186
 21
5.48882
  0
LINE
  8
0
 10
250.186
 20
5.48882
 11
250.367
 21
5.41376
  0
LINE
  8
0
 10
250.367
 20
5.41376
 11
250.535
 21
5.31126
  0
LINE
  8
0
 10
250.535
 20
5.31126
 11
250.684
 21
5.18387
  0
LINE
  8
0
 10
250.684
 20
5.18387
 11
250.811
 21
5.03473
  0
LINE
  8
0
 10
250.811
 20
5.03473
 11
250.914
 21
4.86748
  0
LINE
  8
0
 10
250.914
 20
4.86748
 11
250.989
 21
4.68626
  0
LINE
  8
0
 10
250.989
 20
4.68626
 11
251.035
 21
4.49553
  0
LINE
  8
0
 10
251.035
 20
4.49553
 11
251.05
 21
4.29999
  0
LINE
  8
0
 10
251.05
 20
4.29999
 11
251.035
 21
4.10445
  0
LINE
  8
0
 10
251.035
 20
4.10445
 11
250.989
 21
3.91373
  0
LINE
  8
0
 10
250.989
 20
3.91373
 11
250.914
 21
3.7325
  0
LINE
  8
0
 10
250.914
 20
3.7325
 11
250.811
 21
3.56526
  0
LINE
  8
0
 10
250.811
 20
3.56526
 11
250.684
 21
3.41611
  0
LINE
  8
0
 10
250.684
 20
3.41611
 11
250.535
 21
3.28873
  0
LINE
  8
0
 10
250.535
 20
3.28873
 11
250.367
 21
3.18623
  0
LINE
  8
0
 10
250.367
 20
3.18623
 11
250.186
 21
3.11118
  0
LINE
  8
0
 10
250.186
 20
3.11118
 11
249.996
 21
3.06538
  0
LINE
  8
0
 10
249.996
 20
3.06538
 11
249.8
 21
3.04999
  0
LINE
  8
0
 10
249.8
 20
3.04999
 11
249.604
 21
3.06538
  0
LINE
  8
0
 10
126.904
 20
3.06538
 11
126.714
 21
3.11118
  0
LINE
  8
0
 10
126.714
 20
3.11118
 11
126.533
 21
3.18623
  0
LINE
  8
0
 10
126.533
 20
3.18623
 11
126.365
 21
3.28873
  0
LINE
  8
0
 10
126.365
 20
3.28873
 11
126.216
 21
3.41611
  0
LINE
  8
0
 10
126.216
 20
3.41611
 11
126.089
 21
3.56526
  0
LINE
  8
0
 10
126.089
 20
3.56526
 11
125.986
 21
3.7325
  0
LINE
  8
0
 10
125.986
 20
3.7325
 11
125.911
 21
3.91373
  0
LINE
  8
0
 10
125.911
 20
3.91373
 11
125.865
 21
4.10445
  0
LINE
  8
0
 10
125.865
 20
4.10445
 11
125.85
 21
4.29999
  0
LINE
  8
0
 10
125.85
 20
4.29999
 11
125.865
 21
4.49553
  0
LINE
  8
0
 10
125.865
 20
4.49553
 11
125.911
 21
4.68626
  0
LINE
  8
0
 10
125.911
 20
4.68626
 11
125.986
 21
4.86748
  0
LINE
  8
0
 10
125.986
 20
4.86748
 11
126.089
 21
5.03473
  0
LINE
  8
0
 10
126.089
 20
5.03473
 11
126.216
 21
5.18387
  0
LINE
  8
0
 10
126.216
 20
5.18387
 11
126.365
 21
5.31126
  0
LINE
  8
0
 10
126.365
 20
5.31126
 11
126.533
 21
5.41376
  0
LINE
  8
0
 10
126.533
 20
5.41376
 11
126.714
 21
5.48882
  0
LINE
  8
0
 10
126.714
 20
5.48882
 11
126.904
 21
5.53461
  0
LINE
  8
0
 10
126.904
 20
5.53461
 11
127.1
 21
5.54999
  0
LINE
  8
0
 10
127.1
 20
5.54999
 11
127.296
 21
5.53461
  0
LINE
  8
0
 10
127.296
 20
5.53461
 11
127.486
 21
5.48882
  0
LINE
  8
0
 10
127.486
 20
5.48882
 11
127.667
 21
5.41376
  0
LINE
  8
0
 10
127.667
 20
5.41376
 11
127.835
 21
5.31126
  0
LINE
  8
0
 10
127.835
 20
5.31126
 11
127.984
 21
5.18387
  0
LINE
  8
0
 10
127.984
 20
5.18387
 11
128.111
 21
5.03473
  0
LINE
  8
0
 10
128.111
 20
5.03473
 11
128.214
 21
4.86748
  0
LINE
  8
0
 10
128.214
 20
4.86748
 11
128.289
 21
4.68626
  0
LINE
  8
0
 10
128.289
 20
4.68626
 11
128.335
 21
4.49553
  0
LINE
  8
0
 10
128.335
 20
4.49553
 11
128.35
 21
4.29999
  0
LINE
  8
0
 10
128.35
 20
4.29999
 11
128.335
 21
4.10445
  0
LINE
  8
0
 10
128.335
 20
4.10445
 11
128.289
 21
3.91373
  0
LINE
  8
0
 10
128.289
 20
3.91373
 11
128.214
 21
3.7325
  0
LINE
  8
0
 10
128.214
 20
3.7325
 11
128.111
 21
3.56526
  0
LINE
  8
0
 10
128.111
 20
3.56526
 11
127.984
 21
3.41611
  0
LINE
  8
0
 10
127.984
 20
3.41611
 11
127.835
 21
3.28873
  0
LINE
  8
0
 10
127.835
 20
3.28873
 11
127.667
 21
3.18623
  0
LINE
  8
0
 10
127.667
 20
3.18623
 11
127.486
 21
3.11118
  0
LINE
  8
0
 10
127.486
 20
3.11118
 11
127.296
 21
3.06538
  0
LINE
  8
0
 10
127.296
 20
3.06538
 11
127.1
 21
3.04999
  0
LINE
  8
0
 10
127.1
 20
3.04999
 11
126.904
 21
3.06538
  0
LINE
  8
0
 10
17.1044
 20
3.06538
 11
16.9137
 21
3.11118
  0
LINE
  8
0
 10
16.9137
 20
3.11118
 11
16.7325
 21
3.18623
  0
LINE
  8
0
 10
16.7325
 20
3.18623
 11
16.5653
 21
3.28873
  0
LINE
  8
0
 10
16.5653
 20
3.28873
 11
16.4161
 21
3.41611
  0
LINE
  8
0
 10
16.4161
 20
3.41611
 11
16.2887
 21
3.56526
  0
LINE
  8
0
 10
16.2887
 20
3.56526
 11
16.1862
 21
3.7325
  0
LINE
  8
0
 10
16.1862
 20
3.7325
 11
16.1112
 21
3.91373
  0
LINE
  8
0
 10
16.1112
 20
3.91373
 11
16.0654
 21
4.10445
  0
LINE
  8
0
 10
16.0654
 20
4.10445
 11
16.05
 21
4.29999
  0
LINE
  8
0
 10
16.05
 20
4.29999
 11
16.0654
 21
4.49553
  0
LINE
  8
0
 10
16.0654
 20
4.49553
 11
16.1112
 21
4.68626
  0
LINE
  8
0
 10
16.1112
 20
4.68626
 11
16.1862
 21
4.86748
  0
LINE
  8
0
 10
16.1862
 20
4.86748
 11
16.2887
 21
5.03473
  0
LINE
  8
0
 10
16.2887
 20
5.03473
 11
16.4161
 21
5.18387
  0
LINE
  8
0
 10
16.4161
 20
5.18387
 11
16.5653
 21
5.31126
  0
LINE
  8
0
 10
16.5653
 20
5.31126
 11
16.7325
 21
5.41376
  0
LINE
  8
0
 10
16.7325
 20
5.41376
 11
16.9137
 21
5.48882
  0
LINE
  8
0
 10
16.9137
 20
5.48882
 11
17.1044
 21
5.53461
  0
LINE
  8
0
 10
17.1044
 20
5.53461
 11
17.3
 21
5.54999
  0
LINE
  8
0
 10
17.3
 20
5.54999
 11
17.4955
 21
5.53461
  0
LINE
  8
0
 10
17.4955
 20
5.53461
 11
17.6863
 21
5.48882
  0
LINE
  8
0
 10
17.6863
 20
5.48882
 11
17.8675
 21
5.41376
  0
LINE
  8
0
 10
17.8675
 20
5.41376
 11
18.0347
 21
5.31126
  0
LINE
  8
0
 10
18.0347
 20
5.31126
 11
18.1839
 21
5.18387
  0
LINE
  8
0
 10
18.1839
 20
5.18387
 11
18.3113
 21
5.03473
  0
LINE
  8
0
 10
18.3113
 20
5.03473
 11
18.4138
 21
4.86748
  0
LINE
  8
0
 10
18.4138
 20
4.86748
 11
18.4888
 21
4.68626
  0
LINE
  8
0
 10
18.4888
 20
4.68626
 11
18.5346
 21
4.49553
  0
LINE
  8
0
 10
18.5346
 20
4.49553
 11
18.55
 21
4.29999
  0
LINE
  8
0
 10
18.55
 20
4.29999
 11
18.5346
 21
4.10445
  0
LINE
  8
0
 10
18.5346
 20
4.10445
 11
18.4888
 21
3.91373
  0
LINE
  8
0
 10
18.4888
 20
3.91373
 11
18.4138
 21
3.7325
  0
LINE
  8
0
 10
18.4138
 20
3.7325
 11
18.3113
 21
3.56526
  0
LINE
  8
0
 10
18.3113
 20
3.56526
 11
18.1839
 21
3.41611
  0
LINE
  8
0
 10
18.1839
 20
3.41611
 11
18.0347
 21
3.28873
  0
LINE
  8
0
 10
18.0347
 20
3.28873
 11
17.8675
 21
3.18623
  0
LINE
  8
0
 10
17.8675
 20
3.18623
 11
17.6863
 21
3.11118
  0
LINE
  8
0
 10
17.6863
 20
3.11118
 11
17.4955
 21
3.06538
  0
LINE
  8
0
 10
17.4955
 20
3.06538
 11
17.3
 21
3.04999
  0
LINE
  8
0
 10
17.3
 20
3.04999
 11
17.1044
 21
3.06538
  0
ENDSEC
  0
SECTION
  2
OBJECTS
  0
DICTIONARY
  0
ENDSEC
  0
EOF
