  0
SECTION
  2
BLOCKS
  0
ENDSEC
  0
SECTION
  2
ENTITIES
  0
LINE
  8
0
 10
266.8
 20
44.8
 11
0
 21
44.8
  0
LINE
  8
0
 10
0
 20
44.8
 11
0
 21
0.199997
  0
LINE
  8
0
 10
0
 20
0.199997
 11
266.8
 21
0.199997
  0
LINE
  8
0
 10
266.8
 20
0.199997
 11
266.8
 21
44.8
  0
LINE
  8
0
 10
246.104
 20
40.7654
 11
245.914
 21
40.8112
  0
LINE
  8
0
 10
245.914
 20
40.8112
 11
245.732
 21
40.8862
  0
LINE
  8
0
 10
245.732
 20
40.8862
 11
245.565
 21
40.9887
  0
LINE
  8
0
 10
245.565
 20
40.9887
 11
245.416
 21
41.1161
  0
LINE
  8
0
 10
245.416
 20
41.1161
 11
245.289
 21
41.2653
  0
LINE
  8
0
 10
245.289
 20
41.2653
 11
245.186
 21
41.4325
  0
LINE
  8
0
 10
245.186
 20
41.4325
 11
245.111
 21
41.6137
  0
LINE
  8
0
 10
245.111
 20
41.6137
 11
245.065
 21
41.8044
  0
LINE
  8
0
 10
245.065
 20
41.8044
 11
245.05
 21
42
  0
LINE
  8
0
 10
245.05
 20
42
 11
245.065
 21
42.1955
  0
LINE
  8
0
 10
245.065
 20
42.1955
 11
245.111
 21
42.3863
  0
LINE
  8
0
 10
245.111
 20
42.3863
 11
245.186
 21
42.5675
  0
LINE
  8
0
 10
245.186
 20
42.5675
 11
245.289
 21
42.7347
  0
LINE
  8
0
 10
245.289
 20
42.7347
 11
245.416
 21
42.8839
  0
LINE
  8
0
 10
245.416
 20
42.8839
 11
245.565
 21
43.0113
  0
LINE
  8
0
 10
245.565
 20
43.0113
 11
245.732
 21
43.1138
  0
LINE
  8
0
 10
245.732
 20
43.1138
 11
245.914
 21
43.1888
  0
LINE
  8
0
 10
245.914
 20
43.1888
 11
246.104
 21
43.2346
  0
LINE
  8
0
 10
246.104
 20
43.2346
 11
246.3
 21
43.25
  0
LINE
  8
0
 10
246.3
 20
43.25
 11
246.496
 21
43.2346
  0
LINE
  8
0
 10
246.496
 20
43.2346
 11
246.686
 21
43.1888
  0
LINE
  8
0
 10
246.686
 20
43.1888
 11
246.867
 21
43.1138
  0
LINE
  8
0
 10
246.867
 20
43.1138
 11
247.035
 21
43.0113
  0
LINE
  8
0
 10
247.035
 20
43.0113
 11
247.184
 21
42.8839
  0
LINE
  8
0
 10
247.184
 20
42.8839
 11
247.311
 21
42.7347
  0
LINE
  8
0
 10
247.311
 20
42.7347
 11
247.414
 21
42.5675
  0
LINE
  8
0
 10
247.414
 20
42.5675
 11
247.489
 21
42.3863
  0
LINE
  8
0
 10
247.489
 20
42.3863
 11
247.535
 21
42.1955
  0
LINE
  8
0
 10
247.535
 20
42.1955
 11
247.55
 21
42
  0
LINE
  8
0
 10
247.55
 20
42
 11
247.535
 21
41.8044
  0
LINE
  8
0
 10
247.535
 20
41.8044
 11
247.489
 21
41.6137
  0
LINE
  8
0
 10
247.489
 20
41.6137
 11
247.414
 21
41.4325
  0
LINE
  8
0
 10
247.414
 20
41.4325
 11
247.311
 21
41.2653
  0
LINE
  8
0
 10
247.311
 20
41.2653
 11
247.184
 21
41.1161
  0
LINE
  8
0
 10
247.184
 20
41.1161
 11
247.035
 21
40.9887
  0
LINE
  8
0
 10
247.035
 20
40.9887
 11
246.867
 21
40.8862
  0
LINE
  8
0
 10
246.867
 20
40.8862
 11
246.686
 21
40.8112
  0
LINE
  8
0
 10
246.686
 20
40.8112
 11
246.496
 21
40.7654
  0
LINE
  8
0
 10
246.496
 20
40.7654
 11
246.3
 21
40.75
  0
LINE
  8
0
 10
246.3
 20
40.75
 11
246.104
 21
40.7654
  0
LINE
  8
0
 10
126.554
 20
40.7654
 11
126.364
 21
40.8112
  0
LINE
  8
0
 10
126.364
 20
40.8112
 11
126.183
 21
40.8862
  0
LINE
  8
0
 10
126.183
 20
40.8862
 11
126.015
 21
40.9887
  0
LINE
  8
0
 10
126.015
 20
40.9887
 11
125.866
 21
41.1161
  0
LINE
  8
0
 10
125.866
 20
41.1161
 11
125.739
 21
41.2653
  0
LINE
  8
0
 10
125.739
 20
41.2653
 11
125.636
 21
41.4325
  0
LINE
  8
0
 10
125.636
 20
41.4325
 11
125.561
 21
41.6137
  0
LINE
  8
0
 10
125.561
 20
41.6137
 11
125.515
 21
41.8044
  0
LINE
  8
0
 10
125.515
 20
41.8044
 11
125.5
 21
42
  0
LINE
  8
0
 10
125.5
 20
42
 11
125.515
 21
42.1955
  0
LINE
  8
0
 10
125.515
 20
42.1955
 11
125.561
 21
42.3863
  0
LINE
  8
0
 10
125.561
 20
42.3863
 11
125.636
 21
42.5675
  0
LINE
  8
0
 10
125.636
 20
42.5675
 11
125.739
 21
42.7347
  0
LINE
  8
0
 10
125.739
 20
42.7347
 11
125.866
 21
42.8839
  0
LINE
  8
0
 10
125.866
 20
42.8839
 11
126.015
 21
43.0113
  0
LINE
  8
0
 10
126.015
 20
43.0113
 11
126.183
 21
43.1138
  0
LINE
  8
0
 10
126.183
 20
43.1138
 11
126.364
 21
43.1888
  0
LINE
  8
0
 10
126.364
 20
43.1888
 11
126.554
 21
43.2346
  0
LINE
  8
0
 10
126.554
 20
43.2346
 11
126.75
 21
43.25
  0
LINE
  8
0
 10
126.75
 20
43.25
 11
126.946
 21
43.2346
  0
LINE
  8
0
 10
126.946
 20
43.2346
 11
127.136
 21
43.1888
  0
LINE
  8
0
 10
127.136
 20
43.1888
 11
127.317
 21
43.1138
  0
LINE
  8
0
 10
127.317
 20
43.1138
 11
127.485
 21
43.0113
  0
LINE
  8
0
 10
127.485
 20
43.0113
 11
127.634
 21
42.8839
  0
LINE
  8
0
 10
127.634
 20
42.8839
 11
127.761
 21
42.7347
  0
LINE
  8
0
 10
127.761
 20
42.7347
 11
127.864
 21
42.5675
  0
LINE
  8
0
 10
127.864
 20
42.5675
 11
127.939
 21
42.3863
  0
LINE
  8
0
 10
127.939
 20
42.3863
 11
127.985
 21
42.1955
  0
LINE
  8
0
 10
127.985
 20
42.1955
 11
128
 21
42
  0
LINE
  8
0
 10
128
 20
42
 11
127.985
 21
41.8044
  0
LINE
  8
0
 10
127.985
 20
41.8044
 11
127.939
 21
41.6137
  0
LINE
  8
0
 10
127.939
 20
41.6137
 11
127.864
 21
41.4325
  0
LINE
  8
0
 10
127.864
 20
41.4325
 11
127.761
 21
41.2653
  0
LINE
  8
0
 10
127.761
 20
41.2653
 11
127.634
 21
41.1161
  0
LINE
  8
0
 10
127.634
 20
41.1161
 11
127.485
 21
40.9887
  0
LINE
  8
0
 10
127.485
 20
40.9887
 11
127.317
 21
40.8862
  0
LINE
  8
0
 10
127.317
 20
40.8862
 11
127.136
 21
40.8112
  0
LINE
  8
0
 10
127.136
 20
40.8112
 11
126.946
 21
40.7654
  0
LINE
  8
0
 10
126.946
 20
40.7654
 11
126.75
 21
40.75
  0
LINE
  8
0
 10
126.75
 20
40.75
 11
126.554
 21
40.7654
  0
LINE
  8
0
 10
17.3044
 20
40.7654
 11
17.1137
 21
40.8112
  0
LINE
  8
0
 10
17.1137
 20
40.8112
 11
16.9325
 21
40.8862
  0
LINE
  8
0
 10
16.9325
 20
40.8862
 11
16.7653
 21
40.9887
  0
LINE
  8
0
 10
16.7653
 20
40.9887
 11
16.6161
 21
41.1161
  0
LINE
  8
0
 10
16.6161
 20
41.1161
 11
16.4887
 21
41.2653
  0
LINE
  8
0
 10
16.4887
 20
41.2653
 11
16.3862
 21
41.4325
  0
LINE
  8
0
 10
16.3862
 20
41.4325
 11
16.3112
 21
41.6137
  0
LINE
  8
0
 10
16.3112
 20
41.6137
 11
16.2654
 21
41.8044
  0
LINE
  8
0
 10
16.2654
 20
41.8044
 11
16.25
 21
42
  0
LINE
  8
0
 10
16.25
 20
42
 11
16.2654
 21
42.1955
  0
LINE
  8
0
 10
16.2654
 20
42.1955
 11
16.3112
 21
42.3863
  0
LINE
  8
0
 10
16.3112
 20
42.3863
 11
16.3862
 21
42.5675
  0
LINE
  8
0
 10
16.3862
 20
42.5675
 11
16.4887
 21
42.7347
  0
LINE
  8
0
 10
16.4887
 20
42.7347
 11
16.6161
 21
42.8839
  0
LINE
  8
0
 10
16.6161
 20
42.8839
 11
16.7653
 21
43.0113
  0
LINE
  8
0
 10
16.7653
 20
43.0113
 11
16.9325
 21
43.1138
  0
LINE
  8
0
 10
16.9325
 20
43.1138
 11
17.1137
 21
43.1888
  0
LINE
  8
0
 10
17.1137
 20
43.1888
 11
17.3044
 21
43.2346
  0
LINE
  8
0
 10
17.3044
 20
43.2346
 11
17.5
 21
43.25
  0
LINE
  8
0
 10
17.5
 20
43.25
 11
17.6955
 21
43.2346
  0
LINE
  8
0
 10
17.6955
 20
43.2346
 11
17.8863
 21
43.1888
  0
LINE
  8
0
 10
17.8863
 20
43.1888
 11
18.0675
 21
43.1138
  0
LINE
  8
0
 10
18.0675
 20
43.1138
 11
18.2347
 21
43.0113
  0
LINE
  8
0
 10
18.2347
 20
43.0113
 11
18.3839
 21
42.8839
  0
LINE
  8
0
 10
18.3839
 20
42.8839
 11
18.5113
 21
42.7347
  0
LINE
  8
0
 10
18.5113
 20
42.7347
 11
18.6138
 21
42.5675
  0
LINE
  8
0
 10
18.6138
 20
42.5675
 11
18.6888
 21
42.3863
  0
LINE
  8
0
 10
18.6888
 20
42.3863
 11
18.7346
 21
42.1955
  0
LINE
  8
0
 10
18.7346
 20
42.1955
 11
18.75
 21
42
  0
LINE
  8
0
 10
18.75
 20
42
 11
18.7346
 21
41.8044
  0
LINE
  8
0
 10
18.7346
 20
41.8044
 11
18.6888
 21
41.6137
  0
LINE
  8
0
 10
18.6888
 20
41.6137
 11
18.6138
 21
41.4325
  0
LINE
  8
0
 10
18.6138
 20
41.4325
 11
18.5113
 21
41.2653
  0
LINE
  8
0
 10
18.5113
 20
41.2653
 11
18.3839
 21
41.1161
  0
LINE
  8
0
 10
18.3839
 20
41.1161
 11
18.2347
 21
40.9887
  0
LINE
  8
0
 10
18.2347
 20
40.9887
 11
18.0675
 21
40.8862
  0
LINE
  8
0
 10
18.0675
 20
40.8862
 11
17.8863
 21
40.8112
  0
LINE
  8
0
 10
17.8863
 20
40.8112
 11
17.6955
 21
40.7654
  0
LINE
  8
0
 10
17.6955
 20
40.7654
 11
17.5
 21
40.75
  0
LINE
  8
0
 10
17.5
 20
40.75
 11
17.3044
 21
40.7654
  0
LINE
  8
0
 10
205
 20
24.5
 11
205
 21
38.5
  0
LINE
  8
0
 10
205
 20
38.5
 11
219
 21
38.5
  0
LINE
  8
0
 10
219
 20
38.5
 11
219
 21
24.5
  0
LINE
  8
0
 10
219
 20
24.5
 11
205
 21
24.5
  0
LINE
  8
0
 10
97
 20
24.5
 11
97
 21
38.5
  0
LINE
  8
0
 10
97
 20
38.5
 11
111
 21
38.5
  0
LINE
  8
0
 10
111
 20
38.5
 11
111
 21
24.5
  0
LINE
  8
0
 10
111
 20
24.5
 11
97
 21
24.5
  0
LINE
  8
0
 10
147
 20
15.5
 11
147
 21
29.5
  0
LINE
  8
0
 10
147
 20
29.5
 11
161
 21
29.5
  0
LINE
  8
0
 10
161
 20
29.5
 11
161
 21
15.5
  0
LINE
  8
0
 10
161
 20
15.5
 11
147
 21
15.5
  0
LINE
  8
0
 10
187
 20
15.5
 11
187
 21
29.5
  0
LINE
  8
0
 10
187
 20
29.5
 11
201
 21
29.5
  0
LINE
  8
0
 10
201
 20
29.5
 11
201
 21
15.5
  0
LINE
  8
0
 10
201
 20
15.5
 11
187
 21
15.5
  0
LINE
  8
0
 10
167
 20
15.5
 11
167
 21
29.5
  0
LINE
  8
0
 10
167
 20
29.5
 11
181
 21
29.5
  0
LINE
  8
0
 10
181
 20
29.5
 11
181
 21
15.5
  0
LINE
  8
0
 10
181
 20
15.5
 11
167
 21
15.5
  0
LINE
  8
0
 10
79
 20
15.5
 11
79
 21
29.5
  0
LINE
  8
0
 10
79
 20
29.5
 11
93
 21
29.5
  0
LINE
  8
0
 10
93
 20
29.5
 11
93
 21
15.5
  0
LINE
  8
0
 10
93
 20
15.5
 11
79
 21
15.5
  0
LINE
  8
0
 10
59
 20
15.5
 11
59
 21
29.5
  0
LINE
  8
0
 10
59
 20
29.5
 11
73
 21
29.5
  0
LINE
  8
0
 10
73
 20
29.5
 11
73
 21
15.5
  0
LINE
  8
0
 10
73
 20
15.5
 11
59
 21
15.5
  0
LINE
  8
0
 10
39
 20
15.5
 11
39
 21
29.5
  0
LINE
  8
0
 10
39
 20
29.5
 11
53
 21
29.5
  0
LINE
  8
0
 10
53
 20
29.5
 11
53
 21
15.5
  0
LINE
  8
0
 10
53
 20
15.5
 11
39
 21
15.5
  0
LINE
  8
0
 10
97
 20
6.5
 11
97
 21
20.5
  0
LINE
  8
0
 10
97
 20
20.5
 11
111
 21
20.5
  0
LINE
  8
0
 10
111
 20
20.5
 11
111
 21
6.5
  0
LINE
  8
0
 10
111
 20
6.5
 11
97
 21
6.5
  0
LINE
  8
0
 10
223
 20
6.5
 11
223
 21
20.5
  0
LINE
  8
0
 10
223
 20
20.5
 11
237
 21
20.5
  0
LINE
  8
0
 10
237
 20
20.5
 11
237
 21
6.5
  0
LINE
  8
0
 10
237
 20
6.5
 11
223
 21
6.5
  0
LINE
  8
0
 10
205
 20
6.5
 11
205
 21
20.5
  0
LINE
  8
0
 10
205
 20
20.5
 11
219
 21
20.5
  0
LINE
  8
0
 10
219
 20
20.5
 11
219
 21
6.5
  0
LINE
  8
0
 10
219
 20
6.5
 11
205
 21
6.5
  0
LINE
  8
0
 10
17.3044
 20
1.76538
 11
17.1137
 21
1.81117
  0
LINE
  8
0
 10
17.1137
 20
1.81117
 11
16.9325
 21
1.88623
  0
LINE
  8
0
 10
16.9325
 20
1.88623
 11
16.7653
 21
1.98872
  0
LINE
  8
0
 10
16.7653
 20
1.98872
 11
16.6161
 21
2.1161
  0
LINE
  8
0
 10
16.6161
 20
2.1161
 11
16.4887
 21
2.26526
  0
LINE
  8
0
 10
16.4887
 20
2.26526
 11
16.3862
 21
2.43251
  0
LINE
  8
0
 10
16.3862
 20
2.43251
 11
16.3112
 21
2.61372
  0
LINE
  8
0
 10
16.3112
 20
2.61372
 11
16.2654
 21
2.80444
  0
LINE
  8
0
 10
16.2654
 20
2.80444
 11
16.25
 21
3
  0
LINE
  8
0
 10
16.25
 20
3
 11
16.2654
 21
3.19554
  0
LINE
  8
0
 10
16.2654
 20
3.19554
 11
16.3112
 21
3.38626
  0
LINE
  8
0
 10
16.3112
 20
3.38626
 11
16.3862
 21
3.56747
  0
LINE
  8
0
 10
16.3862
 20
3.56747
 11
16.4887
 21
3.73473
  0
LINE
  8
0
 10
16.4887
 20
3.73473
 11
16.6161
 21
3.88388
  0
LINE
  8
0
 10
16.6161
 20
3.88388
 11
16.7653
 21
4.01126
  0
LINE
  8
0
 10
16.7653
 20
4.01126
 11
16.9325
 21
4.11375
  0
LINE
  8
0
 10
16.9325
 20
4.11375
 11
17.1137
 21
4.18881
  0
LINE
  8
0
 10
17.1137
 20
4.18881
 11
17.3044
 21
4.2346
  0
LINE
  8
0
 10
17.3044
 20
4.2346
 11
17.5
 21
4.25
  0
LINE
  8
0
 10
17.5
 20
4.25
 11
17.6955
 21
4.2346
  0
LINE
  8
0
 10
17.6955
 20
4.2346
 11
17.8863
 21
4.18881
  0
LINE
  8
0
 10
17.8863
 20
4.18881
 11
18.0675
 21
4.11375
  0
LINE
  8
0
 10
18.0675
 20
4.11375
 11
18.2347
 21
4.01126
  0
LINE
  8
0
 10
18.2347
 20
4.01126
 11
18.3839
 21
3.88388
  0
LINE
  8
0
 10
18.3839
 20
3.88388
 11
18.5113
 21
3.73473
  0
LINE
  8
0
 10
18.5113
 20
3.73473
 11
18.6138
 21
3.56747
  0
LINE
  8
0
 10
18.6138
 20
3.56747
 11
18.6888
 21
3.38626
  0
LINE
  8
0
 10
18.6888
 20
3.38626
 11
18.7346
 21
3.19554
  0
LINE
  8
0
 10
18.7346
 20
3.19554
 11
18.75
 21
3
  0
LINE
  8
0
 10
18.75
 20
3
 11
18.7346
 21
2.80444
  0
LINE
  8
0
 10
18.7346
 20
2.80444
 11
18.6888
 21
2.61372
  0
LINE
  8
0
 10
18.6888
 20
2.61372
 11
18.6138
 21
2.43251
  0
LINE
  8
0
 10
18.6138
 20
2.43251
 11
18.5113
 21
2.26526
  0
LINE
  8
0
 10
18.5113
 20
2.26526
 11
18.3839
 21
2.1161
  0
LINE
  8
0
 10
18.3839
 20
2.1161
 11
18.2347
 21
1.98872
  0
LINE
  8
0
 10
18.2347
 20
1.98872
 11
18.0675
 21
1.88623
  0
LINE
  8
0
 10
18.0675
 20
1.88623
 11
17.8863
 21
1.81117
  0
LINE
  8
0
 10
17.8863
 20
1.81117
 11
17.6955
 21
1.76538
  0
LINE
  8
0
 10
17.6955
 20
1.76538
 11
17.5
 21
1.75
  0
LINE
  8
0
 10
17.5
 20
1.75
 11
17.3044
 21
1.76538
  0
LINE
  8
0
 10
126.554
 20
1.76538
 11
126.364
 21
1.81117
  0
LINE
  8
0
 10
126.364
 20
1.81117
 11
126.183
 21
1.88623
  0
LINE
  8
0
 10
126.183
 20
1.88623
 11
126.015
 21
1.98872
  0
LINE
  8
0
 10
126.015
 20
1.98872
 11
125.866
 21
2.1161
  0
LINE
  8
0
 10
125.866
 20
2.1161
 11
125.739
 21
2.26526
  0
LINE
  8
0
 10
125.739
 20
2.26526
 11
125.636
 21
2.43251
  0
LINE
  8
0
 10
125.636
 20
2.43251
 11
125.561
 21
2.61372
  0
LINE
  8
0
 10
125.561
 20
2.61372
 11
125.515
 21
2.80444
  0
LINE
  8
0
 10
125.515
 20
2.80444
 11
125.5
 21
3
  0
LINE
  8
0
 10
125.5
 20
3
 11
125.515
 21
3.19554
  0
LINE
  8
0
 10
125.515
 20
3.19554
 11
125.561
 21
3.38626
  0
LINE
  8
0
 10
125.561
 20
3.38626
 11
125.636
 21
3.56747
  0
LINE
  8
0
 10
125.636
 20
3.56747
 11
125.739
 21
3.73473
  0
LINE
  8
0
 10
125.739
 20
3.73473
 11
125.866
 21
3.88388
  0
LINE
  8
0
 10
125.866
 20
3.88388
 11
126.015
 21
4.01126
  0
LINE
  8
0
 10
126.015
 20
4.01126
 11
126.183
 21
4.11375
  0
LINE
  8
0
 10
126.183
 20
4.11375
 11
126.364
 21
4.18881
  0
LINE
  8
0
 10
126.364
 20
4.18881
 11
126.554
 21
4.2346
  0
LINE
  8
0
 10
126.554
 20
4.2346
 11
126.75
 21
4.25
  0
LINE
  8
0
 10
126.75
 20
4.25
 11
126.946
 21
4.2346
  0
LINE
  8
0
 10
126.946
 20
4.2346
 11
127.136
 21
4.18881
  0
LINE
  8
0
 10
127.136
 20
4.18881
 11
127.317
 21
4.11375
  0
LINE
  8
0
 10
127.317
 20
4.11375
 11
127.485
 21
4.01126
  0
LINE
  8
0
 10
127.485
 20
4.01126
 11
127.634
 21
3.88388
  0
LINE
  8
0
 10
127.634
 20
3.88388
 11
127.761
 21
3.73473
  0
LINE
  8
0
 10
127.761
 20
3.73473
 11
127.864
 21
3.56747
  0
LINE
  8
0
 10
127.864
 20
3.56747
 11
127.939
 21
3.38626
  0
LINE
  8
0
 10
127.939
 20
3.38626
 11
127.985
 21
3.19554
  0
LINE
  8
0
 10
127.985
 20
3.19554
 11
128
 21
3
  0
LINE
  8
0
 10
128
 20
3
 11
127.985
 21
2.80444
  0
LINE
  8
0
 10
127.985
 20
2.80444
 11
127.939
 21
2.61372
  0
LINE
  8
0
 10
127.939
 20
2.61372
 11
127.864
 21
2.43251
  0
LINE
  8
0
 10
127.864
 20
2.43251
 11
127.761
 21
2.26526
  0
LINE
  8
0
 10
127.761
 20
2.26526
 11
127.634
 21
2.1161
  0
LINE
  8
0
 10
127.634
 20
2.1161
 11
127.485
 21
1.98872
  0
LINE
  8
0
 10
127.485
 20
1.98872
 11
127.317
 21
1.88623
  0
LINE
  8
0
 10
127.317
 20
1.88623
 11
127.136
 21
1.81117
  0
LINE
  8
0
 10
127.136
 20
1.81117
 11
126.946
 21
1.76538
  0
LINE
  8
0
 10
126.946
 20
1.76538
 11
126.75
 21
1.75
  0
LINE
  8
0
 10
126.75
 20
1.75
 11
126.554
 21
1.76538
  0
LINE
  8
0
 10
246.104
 20
1.76538
 11
245.914
 21
1.81117
  0
LINE
  8
0
 10
245.914
 20
1.81117
 11
245.732
 21
1.88623
  0
LINE
  8
0
 10
245.732
 20
1.88623
 11
245.565
 21
1.98872
  0
LINE
  8
0
 10
245.565
 20
1.98872
 11
245.416
 21
2.1161
  0
LINE
  8
0
 10
245.416
 20
2.1161
 11
245.289
 21
2.26526
  0
LINE
  8
0
 10
245.289
 20
2.26526
 11
245.186
 21
2.43251
  0
LINE
  8
0
 10
245.186
 20
2.43251
 11
245.111
 21
2.61372
  0
LINE
  8
0
 10
245.111
 20
2.61372
 11
245.065
 21
2.80444
  0
LINE
  8
0
 10
245.065
 20
2.80444
 11
245.05
 21
3
  0
LINE
  8
0
 10
245.05
 20
3
 11
245.065
 21
3.19554
  0
LINE
  8
0
 10
245.065
 20
3.19554
 11
245.111
 21
3.38626
  0
LINE
  8
0
 10
245.111
 20
3.38626
 11
245.186
 21
3.56747
  0
LINE
  8
0
 10
245.186
 20
3.56747
 11
245.289
 21
3.73473
  0
LINE
  8
0
 10
245.289
 20
3.73473
 11
245.416
 21
3.88388
  0
LINE
  8
0
 10
245.416
 20
3.88388
 11
245.565
 21
4.01126
  0
LINE
  8
0
 10
245.565
 20
4.01126
 11
245.732
 21
4.11375
  0
LINE
  8
0
 10
245.732
 20
4.11375
 11
245.914
 21
4.18881
  0
LINE
  8
0
 10
245.914
 20
4.18881
 11
246.104
 21
4.2346
  0
LINE
  8
0
 10
246.104
 20
4.2346
 11
246.3
 21
4.25
  0
LINE
  8
0
 10
246.3
 20
4.25
 11
246.496
 21
4.2346
  0
LINE
  8
0
 10
246.496
 20
4.2346
 11
246.686
 21
4.18881
  0
LINE
  8
0
 10
246.686
 20
4.18881
 11
246.867
 21
4.11375
  0
LINE
  8
0
 10
246.867
 20
4.11375
 11
247.035
 21
4.01126
  0
LINE
  8
0
 10
247.035
 20
4.01126
 11
247.184
 21
3.88388
  0
LINE
  8
0
 10
247.184
 20
3.88388
 11
247.311
 21
3.73473
  0
LINE
  8
0
 10
247.311
 20
3.73473
 11
247.414
 21
3.56747
  0
LINE
  8
0
 10
247.414
 20
3.56747
 11
247.489
 21
3.38626
  0
LINE
  8
0
 10
247.489
 20
3.38626
 11
247.535
 21
3.19554
  0
LINE
  8
0
 10
247.535
 20
3.19554
 11
247.55
 21
3
  0
LINE
  8
0
 10
247.55
 20
3
 11
247.535
 21
2.80444
  0
LINE
  8
0
 10
247.535
 20
2.80444
 11
247.489
 21
2.61372
  0
LINE
  8
0
 10
247.489
 20
2.61372
 11
247.414
 21
2.43251
  0
LINE
  8
0
 10
247.414
 20
2.43251
 11
247.311
 21
2.26526
  0
LINE
  8
0
 10
247.311
 20
2.26526
 11
247.184
 21
2.1161
  0
LINE
  8
0
 10
247.184
 20
2.1161
 11
247.035
 21
1.98872
  0
LINE
  8
0
 10
247.035
 20
1.98872
 11
246.867
 21
1.88623
  0
LINE
  8
0
 10
246.867
 20
1.88623
 11
246.686
 21
1.81117
  0
LINE
  8
0
 10
246.686
 20
1.81117
 11
246.496
 21
1.76538
  0
LINE
  8
0
 10
246.496
 20
1.76538
 11
246.3
 21
1.75
  0
LINE
  8
0
 10
246.3
 20
1.75
 11
246.104
 21
1.76538
  0
ENDSEC
  0
SECTION
  2
OBJECTS
  0
DICTIONARY
  0
ENDSEC
  0
EOF
