  0
SECTION
  2
BLOCKS
  0
ENDSEC
  0
SECTION
  2
ENTITIES
  0
LINE
  8
0
 10
266.6
 20
44.8
 11
0
 21
44.8
  0
LINE
  8
0
 10
0
 20
44.8
 11
0
 21
0.199997
  0
LINE
  8
0
 10
0
 20
0.199997
 11
266.6
 21
0.199997
  0
LINE
  8
0
 10
266.6
 20
0.199997
 11
266.6
 21
44.8
  0
LINE
  8
0
 10
249.404
 20
39.4654
 11
249.214
 21
39.5112
  0
LINE
  8
0
 10
249.214
 20
39.5112
 11
249.033
 21
39.5862
  0
LINE
  8
0
 10
249.033
 20
39.5862
 11
248.865
 21
39.6887
  0
LINE
  8
0
 10
248.865
 20
39.6887
 11
248.716
 21
39.8161
  0
LINE
  8
0
 10
248.716
 20
39.8161
 11
248.589
 21
39.9653
  0
LINE
  8
0
 10
248.589
 20
39.9653
 11
248.486
 21
40.1325
  0
LINE
  8
0
 10
248.486
 20
40.1325
 11
248.411
 21
40.3137
  0
LINE
  8
0
 10
248.411
 20
40.3137
 11
248.365
 21
40.5045
  0
LINE
  8
0
 10
248.365
 20
40.5045
 11
248.35
 21
40.7
  0
LINE
  8
0
 10
248.35
 20
40.7
 11
248.365
 21
40.8955
  0
LINE
  8
0
 10
248.365
 20
40.8955
 11
248.411
 21
41.0863
  0
LINE
  8
0
 10
248.411
 20
41.0863
 11
248.486
 21
41.2675
  0
LINE
  8
0
 10
248.486
 20
41.2675
 11
248.589
 21
41.4347
  0
LINE
  8
0
 10
248.589
 20
41.4347
 11
248.716
 21
41.5839
  0
LINE
  8
0
 10
248.716
 20
41.5839
 11
248.865
 21
41.7113
  0
LINE
  8
0
 10
248.865
 20
41.7113
 11
249.033
 21
41.8138
  0
LINE
  8
0
 10
249.033
 20
41.8138
 11
249.214
 21
41.8888
  0
LINE
  8
0
 10
249.214
 20
41.8888
 11
249.404
 21
41.9346
  0
LINE
  8
0
 10
249.404
 20
41.9346
 11
249.6
 21
41.95
  0
LINE
  8
0
 10
249.6
 20
41.95
 11
249.796
 21
41.9346
  0
LINE
  8
0
 10
249.796
 20
41.9346
 11
249.986
 21
41.8888
  0
LINE
  8
0
 10
249.986
 20
41.8888
 11
250.167
 21
41.8138
  0
LINE
  8
0
 10
250.167
 20
41.8138
 11
250.335
 21
41.7113
  0
LINE
  8
0
 10
250.335
 20
41.7113
 11
250.484
 21
41.5839
  0
LINE
  8
0
 10
250.484
 20
41.5839
 11
250.611
 21
41.4347
  0
LINE
  8
0
 10
250.611
 20
41.4347
 11
250.714
 21
41.2675
  0
LINE
  8
0
 10
250.714
 20
41.2675
 11
250.789
 21
41.0863
  0
LINE
  8
0
 10
250.789
 20
41.0863
 11
250.835
 21
40.8955
  0
LINE
  8
0
 10
250.835
 20
40.8955
 11
250.85
 21
40.7
  0
LINE
  8
0
 10
250.85
 20
40.7
 11
250.835
 21
40.5045
  0
LINE
  8
0
 10
250.835
 20
40.5045
 11
250.789
 21
40.3137
  0
LINE
  8
0
 10
250.789
 20
40.3137
 11
250.714
 21
40.1325
  0
LINE
  8
0
 10
250.714
 20
40.1325
 11
250.611
 21
39.9653
  0
LINE
  8
0
 10
250.611
 20
39.9653
 11
250.484
 21
39.8161
  0
LINE
  8
0
 10
250.484
 20
39.8161
 11
250.335
 21
39.6887
  0
LINE
  8
0
 10
250.335
 20
39.6887
 11
250.167
 21
39.5862
  0
LINE
  8
0
 10
250.167
 20
39.5862
 11
249.986
 21
39.5112
  0
LINE
  8
0
 10
249.986
 20
39.5112
 11
249.796
 21
39.4654
  0
LINE
  8
0
 10
249.796
 20
39.4654
 11
249.6
 21
39.45
  0
LINE
  8
0
 10
249.6
 20
39.45
 11
249.404
 21
39.4654
  0
LINE
  8
0
 10
126.804
 20
39.4654
 11
126.614
 21
39.5112
  0
LINE
  8
0
 10
126.614
 20
39.5112
 11
126.433
 21
39.5862
  0
LINE
  8
0
 10
126.433
 20
39.5862
 11
126.265
 21
39.6887
  0
LINE
  8
0
 10
126.265
 20
39.6887
 11
126.116
 21
39.8161
  0
LINE
  8
0
 10
126.116
 20
39.8161
 11
125.989
 21
39.9653
  0
LINE
  8
0
 10
125.989
 20
39.9653
 11
125.886
 21
40.1325
  0
LINE
  8
0
 10
125.886
 20
40.1325
 11
125.811
 21
40.3137
  0
LINE
  8
0
 10
125.811
 20
40.3137
 11
125.765
 21
40.5045
  0
LINE
  8
0
 10
125.765
 20
40.5045
 11
125.75
 21
40.7
  0
LINE
  8
0
 10
125.75
 20
40.7
 11
125.765
 21
40.8955
  0
LINE
  8
0
 10
125.765
 20
40.8955
 11
125.811
 21
41.0863
  0
LINE
  8
0
 10
125.811
 20
41.0863
 11
125.886
 21
41.2675
  0
LINE
  8
0
 10
125.886
 20
41.2675
 11
125.989
 21
41.4347
  0
LINE
  8
0
 10
125.989
 20
41.4347
 11
126.116
 21
41.5839
  0
LINE
  8
0
 10
126.116
 20
41.5839
 11
126.265
 21
41.7113
  0
LINE
  8
0
 10
126.265
 20
41.7113
 11
126.433
 21
41.8138
  0
LINE
  8
0
 10
126.433
 20
41.8138
 11
126.614
 21
41.8888
  0
LINE
  8
0
 10
126.614
 20
41.8888
 11
126.804
 21
41.9346
  0
LINE
  8
0
 10
126.804
 20
41.9346
 11
127
 21
41.95
  0
LINE
  8
0
 10
127
 20
41.95
 11
127.196
 21
41.9346
  0
LINE
  8
0
 10
127.196
 20
41.9346
 11
127.386
 21
41.8888
  0
LINE
  8
0
 10
127.386
 20
41.8888
 11
127.567
 21
41.8138
  0
LINE
  8
0
 10
127.567
 20
41.8138
 11
127.735
 21
41.7113
  0
LINE
  8
0
 10
127.735
 20
41.7113
 11
127.884
 21
41.5839
  0
LINE
  8
0
 10
127.884
 20
41.5839
 11
128.011
 21
41.4347
  0
LINE
  8
0
 10
128.011
 20
41.4347
 11
128.114
 21
41.2675
  0
LINE
  8
0
 10
128.114
 20
41.2675
 11
128.189
 21
41.0863
  0
LINE
  8
0
 10
128.189
 20
41.0863
 11
128.235
 21
40.8955
  0
LINE
  8
0
 10
128.235
 20
40.8955
 11
128.25
 21
40.7
  0
LINE
  8
0
 10
128.25
 20
40.7
 11
128.235
 21
40.5045
  0
LINE
  8
0
 10
128.235
 20
40.5045
 11
128.189
 21
40.3137
  0
LINE
  8
0
 10
128.189
 20
40.3137
 11
128.114
 21
40.1325
  0
LINE
  8
0
 10
128.114
 20
40.1325
 11
128.011
 21
39.9653
  0
LINE
  8
0
 10
128.011
 20
39.9653
 11
127.884
 21
39.8161
  0
LINE
  8
0
 10
127.884
 20
39.8161
 11
127.735
 21
39.6887
  0
LINE
  8
0
 10
127.735
 20
39.6887
 11
127.567
 21
39.5862
  0
LINE
  8
0
 10
127.567
 20
39.5862
 11
127.386
 21
39.5112
  0
LINE
  8
0
 10
127.386
 20
39.5112
 11
127.196
 21
39.4654
  0
LINE
  8
0
 10
127.196
 20
39.4654
 11
127
 21
39.45
  0
LINE
  8
0
 10
127
 20
39.45
 11
126.804
 21
39.4654
  0
LINE
  8
0
 10
17.1044
 20
39.4654
 11
16.9137
 21
39.5112
  0
LINE
  8
0
 10
16.9137
 20
39.5112
 11
16.7325
 21
39.5862
  0
LINE
  8
0
 10
16.7325
 20
39.5862
 11
16.5653
 21
39.6887
  0
LINE
  8
0
 10
16.5653
 20
39.6887
 11
16.4161
 21
39.8161
  0
LINE
  8
0
 10
16.4161
 20
39.8161
 11
16.2887
 21
39.9653
  0
LINE
  8
0
 10
16.2887
 20
39.9653
 11
16.1862
 21
40.1325
  0
LINE
  8
0
 10
16.1862
 20
40.1325
 11
16.1112
 21
40.3137
  0
LINE
  8
0
 10
16.1112
 20
40.3137
 11
16.0654
 21
40.5045
  0
LINE
  8
0
 10
16.0654
 20
40.5045
 11
16.05
 21
40.7
  0
LINE
  8
0
 10
16.05
 20
40.7
 11
16.0654
 21
40.8955
  0
LINE
  8
0
 10
16.0654
 20
40.8955
 11
16.1112
 21
41.0863
  0
LINE
  8
0
 10
16.1112
 20
41.0863
 11
16.1862
 21
41.2675
  0
LINE
  8
0
 10
16.1862
 20
41.2675
 11
16.2887
 21
41.4347
  0
LINE
  8
0
 10
16.2887
 20
41.4347
 11
16.4161
 21
41.5839
  0
LINE
  8
0
 10
16.4161
 20
41.5839
 11
16.5653
 21
41.7113
  0
LINE
  8
0
 10
16.5653
 20
41.7113
 11
16.7325
 21
41.8138
  0
LINE
  8
0
 10
16.7325
 20
41.8138
 11
16.9137
 21
41.8888
  0
LINE
  8
0
 10
16.9137
 20
41.8888
 11
17.1044
 21
41.9346
  0
LINE
  8
0
 10
17.1044
 20
41.9346
 11
17.3
 21
41.95
  0
LINE
  8
0
 10
17.3
 20
41.95
 11
17.4955
 21
41.9346
  0
LINE
  8
0
 10
17.4955
 20
41.9346
 11
17.6863
 21
41.8888
  0
LINE
  8
0
 10
17.6863
 20
41.8888
 11
17.8675
 21
41.8138
  0
LINE
  8
0
 10
17.8675
 20
41.8138
 11
18.0347
 21
41.7113
  0
LINE
  8
0
 10
18.0347
 20
41.7113
 11
18.1839
 21
41.5839
  0
LINE
  8
0
 10
18.1839
 20
41.5839
 11
18.3113
 21
41.4347
  0
LINE
  8
0
 10
18.3113
 20
41.4347
 11
18.4138
 21
41.2675
  0
LINE
  8
0
 10
18.4138
 20
41.2675
 11
18.4888
 21
41.0863
  0
LINE
  8
0
 10
18.4888
 20
41.0863
 11
18.5346
 21
40.8955
  0
LINE
  8
0
 10
18.5346
 20
40.8955
 11
18.55
 21
40.7
  0
LINE
  8
0
 10
18.55
 20
40.7
 11
18.5346
 21
40.5045
  0
LINE
  8
0
 10
18.5346
 20
40.5045
 11
18.4888
 21
40.3137
  0
LINE
  8
0
 10
18.4888
 20
40.3137
 11
18.4138
 21
40.1325
  0
LINE
  8
0
 10
18.4138
 20
40.1325
 11
18.3113
 21
39.9653
  0
LINE
  8
0
 10
18.3113
 20
39.9653
 11
18.1839
 21
39.8161
  0
LINE
  8
0
 10
18.1839
 20
39.8161
 11
18.0347
 21
39.6887
  0
LINE
  8
0
 10
18.0347
 20
39.6887
 11
17.8675
 21
39.5862
  0
LINE
  8
0
 10
17.8675
 20
39.5862
 11
17.6863
 21
39.5112
  0
LINE
  8
0
 10
17.6863
 20
39.5112
 11
17.4955
 21
39.4654
  0
LINE
  8
0
 10
17.4955
 20
39.4654
 11
17.3
 21
39.45
  0
LINE
  8
0
 10
17.3
 20
39.45
 11
17.1044
 21
39.4654
  0
LINE
  8
0
 10
241.304
 20
38.6654
 11
241.114
 21
38.7112
  0
LINE
  8
0
 10
241.114
 20
38.7112
 11
240.933
 21
38.7862
  0
LINE
  8
0
 10
240.933
 20
38.7862
 11
240.765
 21
38.8887
  0
LINE
  8
0
 10
240.765
 20
38.8887
 11
240.616
 21
39.0161
  0
LINE
  8
0
 10
240.616
 20
39.0161
 11
240.489
 21
39.1653
  0
LINE
  8
0
 10
240.489
 20
39.1653
 11
240.386
 21
39.3325
  0
LINE
  8
0
 10
240.386
 20
39.3325
 11
240.311
 21
39.5137
  0
LINE
  8
0
 10
240.311
 20
39.5137
 11
240.265
 21
39.7045
  0
LINE
  8
0
 10
240.265
 20
39.7045
 11
240.25
 21
39.9
  0
LINE
  8
0
 10
240.25
 20
39.9
 11
240.265
 21
40.0955
  0
LINE
  8
0
 10
240.265
 20
40.0955
 11
240.311
 21
40.2863
  0
LINE
  8
0
 10
240.311
 20
40.2863
 11
240.386
 21
40.4675
  0
LINE
  8
0
 10
240.386
 20
40.4675
 11
240.489
 21
40.6347
  0
LINE
  8
0
 10
240.489
 20
40.6347
 11
240.616
 21
40.7839
  0
LINE
  8
0
 10
240.616
 20
40.7839
 11
240.765
 21
40.9113
  0
LINE
  8
0
 10
240.765
 20
40.9113
 11
240.933
 21
41.0137
  0
LINE
  8
0
 10
240.933
 20
41.0137
 11
241.114
 21
41.0888
  0
LINE
  8
0
 10
241.114
 20
41.0888
 11
241.304
 21
41.1346
  0
LINE
  8
0
 10
241.304
 20
41.1346
 11
241.5
 21
41.15
  0
LINE
  8
0
 10
241.5
 20
41.15
 11
241.696
 21
41.1346
  0
LINE
  8
0
 10
241.696
 20
41.1346
 11
241.886
 21
41.0888
  0
LINE
  8
0
 10
241.886
 20
41.0888
 11
242.067
 21
41.0137
  0
LINE
  8
0
 10
242.067
 20
41.0137
 11
242.235
 21
40.9113
  0
LINE
  8
0
 10
242.235
 20
40.9113
 11
242.384
 21
40.7839
  0
LINE
  8
0
 10
242.384
 20
40.7839
 11
242.511
 21
40.6347
  0
LINE
  8
0
 10
242.511
 20
40.6347
 11
242.614
 21
40.4675
  0
LINE
  8
0
 10
242.614
 20
40.4675
 11
242.689
 21
40.2863
  0
LINE
  8
0
 10
242.689
 20
40.2863
 11
242.735
 21
40.0955
  0
LINE
  8
0
 10
242.735
 20
40.0955
 11
242.75
 21
39.9
  0
LINE
  8
0
 10
242.75
 20
39.9
 11
242.735
 21
39.7045
  0
LINE
  8
0
 10
242.735
 20
39.7045
 11
242.689
 21
39.5137
  0
LINE
  8
0
 10
242.689
 20
39.5137
 11
242.614
 21
39.3325
  0
LINE
  8
0
 10
242.614
 20
39.3325
 11
242.511
 21
39.1653
  0
LINE
  8
0
 10
242.511
 20
39.1653
 11
242.384
 21
39.0161
  0
LINE
  8
0
 10
242.384
 20
39.0161
 11
242.235
 21
38.8887
  0
LINE
  8
0
 10
242.235
 20
38.8887
 11
242.067
 21
38.7862
  0
LINE
  8
0
 10
242.067
 20
38.7862
 11
241.886
 21
38.7112
  0
LINE
  8
0
 10
241.886
 20
38.7112
 11
241.696
 21
38.6654
  0
LINE
  8
0
 10
241.696
 20
38.6654
 11
241.5
 21
38.65
  0
LINE
  8
0
 10
241.5
 20
38.65
 11
241.304
 21
38.6654
  0
LINE
  8
0
 10
142.404
 20
38.6654
 11
142.214
 21
38.7112
  0
LINE
  8
0
 10
142.214
 20
38.7112
 11
142.033
 21
38.7862
  0
LINE
  8
0
 10
142.033
 20
38.7862
 11
141.865
 21
38.8887
  0
LINE
  8
0
 10
141.865
 20
38.8887
 11
141.716
 21
39.0161
  0
LINE
  8
0
 10
141.716
 20
39.0161
 11
141.589
 21
39.1653
  0
LINE
  8
0
 10
141.589
 20
39.1653
 11
141.486
 21
39.3325
  0
LINE
  8
0
 10
141.486
 20
39.3325
 11
141.411
 21
39.5137
  0
LINE
  8
0
 10
141.411
 20
39.5137
 11
141.365
 21
39.7045
  0
LINE
  8
0
 10
141.365
 20
39.7045
 11
141.35
 21
39.9
  0
LINE
  8
0
 10
141.35
 20
39.9
 11
141.365
 21
40.0955
  0
LINE
  8
0
 10
141.365
 20
40.0955
 11
141.411
 21
40.2863
  0
LINE
  8
0
 10
141.411
 20
40.2863
 11
141.486
 21
40.4675
  0
LINE
  8
0
 10
141.486
 20
40.4675
 11
141.589
 21
40.6347
  0
LINE
  8
0
 10
141.589
 20
40.6347
 11
141.716
 21
40.7839
  0
LINE
  8
0
 10
141.716
 20
40.7839
 11
141.865
 21
40.9113
  0
LINE
  8
0
 10
141.865
 20
40.9113
 11
142.033
 21
41.0137
  0
LINE
  8
0
 10
142.033
 20
41.0137
 11
142.214
 21
41.0888
  0
LINE
  8
0
 10
142.214
 20
41.0888
 11
142.404
 21
41.1346
  0
LINE
  8
0
 10
142.404
 20
41.1346
 11
142.6
 21
41.15
  0
LINE
  8
0
 10
142.6
 20
41.15
 11
142.796
 21
41.1346
  0
LINE
  8
0
 10
142.796
 20
41.1346
 11
142.986
 21
41.0888
  0
LINE
  8
0
 10
142.986
 20
41.0888
 11
143.167
 21
41.0137
  0
LINE
  8
0
 10
143.167
 20
41.0137
 11
143.335
 21
40.9113
  0
LINE
  8
0
 10
143.335
 20
40.9113
 11
143.484
 21
40.7839
  0
LINE
  8
0
 10
143.484
 20
40.7839
 11
143.611
 21
40.6347
  0
LINE
  8
0
 10
143.611
 20
40.6347
 11
143.714
 21
40.4675
  0
LINE
  8
0
 10
143.714
 20
40.4675
 11
143.789
 21
40.2863
  0
LINE
  8
0
 10
143.789
 20
40.2863
 11
143.835
 21
40.0955
  0
LINE
  8
0
 10
143.835
 20
40.0955
 11
143.85
 21
39.9
  0
LINE
  8
0
 10
143.85
 20
39.9
 11
143.835
 21
39.7045
  0
LINE
  8
0
 10
143.835
 20
39.7045
 11
143.789
 21
39.5137
  0
LINE
  8
0
 10
143.789
 20
39.5137
 11
143.714
 21
39.3325
  0
LINE
  8
0
 10
143.714
 20
39.3325
 11
143.611
 21
39.1653
  0
LINE
  8
0
 10
143.611
 20
39.1653
 11
143.484
 21
39.0161
  0
LINE
  8
0
 10
143.484
 20
39.0161
 11
143.335
 21
38.8887
  0
LINE
  8
0
 10
143.335
 20
38.8887
 11
143.167
 21
38.7862
  0
LINE
  8
0
 10
143.167
 20
38.7862
 11
142.986
 21
38.7112
  0
LINE
  8
0
 10
142.986
 20
38.7112
 11
142.796
 21
38.6654
  0
LINE
  8
0
 10
142.796
 20
38.6654
 11
142.6
 21
38.65
  0
LINE
  8
0
 10
142.6
 20
38.65
 11
142.404
 21
38.6654
  0
LINE
  8
0
 10
115.304
 20
38.6654
 11
115.114
 21
38.7112
  0
LINE
  8
0
 10
115.114
 20
38.7112
 11
114.933
 21
38.7862
  0
LINE
  8
0
 10
114.933
 20
38.7862
 11
114.765
 21
38.8887
  0
LINE
  8
0
 10
114.765
 20
38.8887
 11
114.616
 21
39.0161
  0
LINE
  8
0
 10
114.616
 20
39.0161
 11
114.489
 21
39.1653
  0
LINE
  8
0
 10
114.489
 20
39.1653
 11
114.386
 21
39.3325
  0
LINE
  8
0
 10
114.386
 20
39.3325
 11
114.311
 21
39.5137
  0
LINE
  8
0
 10
114.311
 20
39.5137
 11
114.265
 21
39.7045
  0
LINE
  8
0
 10
114.265
 20
39.7045
 11
114.25
 21
39.9
  0
LINE
  8
0
 10
114.25
 20
39.9
 11
114.265
 21
40.0955
  0
LINE
  8
0
 10
114.265
 20
40.0955
 11
114.311
 21
40.2863
  0
LINE
  8
0
 10
114.311
 20
40.2863
 11
114.386
 21
40.4675
  0
LINE
  8
0
 10
114.386
 20
40.4675
 11
114.489
 21
40.6347
  0
LINE
  8
0
 10
114.489
 20
40.6347
 11
114.616
 21
40.7839
  0
LINE
  8
0
 10
114.616
 20
40.7839
 11
114.765
 21
40.9113
  0
LINE
  8
0
 10
114.765
 20
40.9113
 11
114.933
 21
41.0137
  0
LINE
  8
0
 10
114.933
 20
41.0137
 11
115.114
 21
41.0888
  0
LINE
  8
0
 10
115.114
 20
41.0888
 11
115.304
 21
41.1346
  0
LINE
  8
0
 10
115.304
 20
41.1346
 11
115.5
 21
41.15
  0
LINE
  8
0
 10
115.5
 20
41.15
 11
115.696
 21
41.1346
  0
LINE
  8
0
 10
115.696
 20
41.1346
 11
115.886
 21
41.0888
  0
LINE
  8
0
 10
115.886
 20
41.0888
 11
116.067
 21
41.0137
  0
LINE
  8
0
 10
116.067
 20
41.0137
 11
116.235
 21
40.9113
  0
LINE
  8
0
 10
116.235
 20
40.9113
 11
116.384
 21
40.7839
  0
LINE
  8
0
 10
116.384
 20
40.7839
 11
116.511
 21
40.6347
  0
LINE
  8
0
 10
116.511
 20
40.6347
 11
116.614
 21
40.4675
  0
LINE
  8
0
 10
116.614
 20
40.4675
 11
116.689
 21
40.2863
  0
LINE
  8
0
 10
116.689
 20
40.2863
 11
116.735
 21
40.0955
  0
LINE
  8
0
 10
116.735
 20
40.0955
 11
116.75
 21
39.9
  0
LINE
  8
0
 10
116.75
 20
39.9
 11
116.735
 21
39.7045
  0
LINE
  8
0
 10
116.735
 20
39.7045
 11
116.689
 21
39.5137
  0
LINE
  8
0
 10
116.689
 20
39.5137
 11
116.614
 21
39.3325
  0
LINE
  8
0
 10
116.614
 20
39.3325
 11
116.511
 21
39.1653
  0
LINE
  8
0
 10
116.511
 20
39.1653
 11
116.384
 21
39.0161
  0
LINE
  8
0
 10
116.384
 20
39.0161
 11
116.235
 21
38.8887
  0
LINE
  8
0
 10
116.235
 20
38.8887
 11
116.067
 21
38.7862
  0
LINE
  8
0
 10
116.067
 20
38.7862
 11
115.886
 21
38.7112
  0
LINE
  8
0
 10
115.886
 20
38.7112
 11
115.696
 21
38.6654
  0
LINE
  8
0
 10
115.696
 20
38.6654
 11
115.5
 21
38.65
  0
LINE
  8
0
 10
115.5
 20
38.65
 11
115.304
 21
38.6654
  0
LINE
  8
0
 10
34.4044
 20
38.6654
 11
34.2137
 21
38.7112
  0
LINE
  8
0
 10
34.2137
 20
38.7112
 11
34.0325
 21
38.7862
  0
LINE
  8
0
 10
34.0325
 20
38.7862
 11
33.8653
 21
38.8887
  0
LINE
  8
0
 10
33.8653
 20
38.8887
 11
33.7161
 21
39.0161
  0
LINE
  8
0
 10
33.7161
 20
39.0161
 11
33.5887
 21
39.1653
  0
LINE
  8
0
 10
33.5887
 20
39.1653
 11
33.4862
 21
39.3325
  0
LINE
  8
0
 10
33.4862
 20
39.3325
 11
33.4112
 21
39.5137
  0
LINE
  8
0
 10
33.4112
 20
39.5137
 11
33.3654
 21
39.7045
  0
LINE
  8
0
 10
33.3654
 20
39.7045
 11
33.35
 21
39.9
  0
LINE
  8
0
 10
33.35
 20
39.9
 11
33.3654
 21
40.0955
  0
LINE
  8
0
 10
33.3654
 20
40.0955
 11
33.4112
 21
40.2863
  0
LINE
  8
0
 10
33.4112
 20
40.2863
 11
33.4862
 21
40.4675
  0
LINE
  8
0
 10
33.4862
 20
40.4675
 11
33.5887
 21
40.6347
  0
LINE
  8
0
 10
33.5887
 20
40.6347
 11
33.7161
 21
40.7839
  0
LINE
  8
0
 10
33.7161
 20
40.7839
 11
33.8653
 21
40.9113
  0
LINE
  8
0
 10
33.8653
 20
40.9113
 11
34.0325
 21
41.0137
  0
LINE
  8
0
 10
34.0325
 20
41.0137
 11
34.2137
 21
41.0888
  0
LINE
  8
0
 10
34.2137
 20
41.0888
 11
34.4044
 21
41.1346
  0
LINE
  8
0
 10
34.4044
 20
41.1346
 11
34.6
 21
41.15
  0
LINE
  8
0
 10
34.6
 20
41.15
 11
34.7955
 21
41.1346
  0
LINE
  8
0
 10
34.7955
 20
41.1346
 11
34.9863
 21
41.0888
  0
LINE
  8
0
 10
34.9863
 20
41.0888
 11
35.1675
 21
41.0137
  0
LINE
  8
0
 10
35.1675
 20
41.0137
 11
35.3347
 21
40.9113
  0
LINE
  8
0
 10
35.3347
 20
40.9113
 11
35.4839
 21
40.7839
  0
LINE
  8
0
 10
35.4839
 20
40.7839
 11
35.6113
 21
40.6347
  0
LINE
  8
0
 10
35.6113
 20
40.6347
 11
35.7137
 21
40.4675
  0
LINE
  8
0
 10
35.7137
 20
40.4675
 11
35.7888
 21
40.2863
  0
LINE
  8
0
 10
35.7888
 20
40.2863
 11
35.8346
 21
40.0955
  0
LINE
  8
0
 10
35.8346
 20
40.0955
 11
35.85
 21
39.9
  0
LINE
  8
0
 10
35.85
 20
39.9
 11
35.8346
 21
39.7045
  0
LINE
  8
0
 10
35.8346
 20
39.7045
 11
35.7888
 21
39.5137
  0
LINE
  8
0
 10
35.7888
 20
39.5137
 11
35.7137
 21
39.3325
  0
LINE
  8
0
 10
35.7137
 20
39.3325
 11
35.6113
 21
39.1653
  0
LINE
  8
0
 10
35.6113
 20
39.1653
 11
35.4839
 21
39.0161
  0
LINE
  8
0
 10
35.4839
 20
39.0161
 11
35.3347
 21
38.8887
  0
LINE
  8
0
 10
35.3347
 20
38.8887
 11
35.1675
 21
38.7862
  0
LINE
  8
0
 10
35.1675
 20
38.7862
 11
34.9863
 21
38.7112
  0
LINE
  8
0
 10
34.9863
 20
38.7112
 11
34.7955
 21
38.6654
  0
LINE
  8
0
 10
34.7955
 20
38.6654
 11
34.6
 21
38.65
  0
LINE
  8
0
 10
34.6
 20
38.65
 11
34.4044
 21
38.6654
  0
LINE
  8
0
 10
203
 20
24.5
 11
203
 21
38.5
  0
LINE
  8
0
 10
203
 20
38.5
 11
217
 21
38.5
  0
LINE
  8
0
 10
217
 20
38.5
 11
217
 21
24.5
  0
LINE
  8
0
 10
217
 20
24.5
 11
203
 21
24.5
  0
LINE
  8
0
 10
95
 20
24.5
 11
95
 21
38.5
  0
LINE
  8
0
 10
95
 20
38.5
 11
109
 21
38.5
  0
LINE
  8
0
 10
109
 20
38.5
 11
109
 21
24.5
  0
LINE
  8
0
 10
109
 20
24.5
 11
95
 21
24.5
  0
LINE
  8
0
 10
77
 20
15.5
 11
77
 21
29.5
  0
LINE
  8
0
 10
77
 20
29.5
 11
91
 21
29.5
  0
LINE
  8
0
 10
91
 20
29.5
 11
91
 21
15.5
  0
LINE
  8
0
 10
91
 20
15.5
 11
77
 21
15.5
  0
LINE
  8
0
 10
37
 20
15.5
 11
37
 21
29.5
  0
LINE
  8
0
 10
37
 20
29.5
 11
51
 21
29.5
  0
LINE
  8
0
 10
51
 20
29.5
 11
51
 21
15.5
  0
LINE
  8
0
 10
51
 20
15.5
 11
37
 21
15.5
  0
LINE
  8
0
 10
57
 20
15.5
 11
57
 21
29.5
  0
LINE
  8
0
 10
57
 20
29.5
 11
71
 21
29.5
  0
LINE
  8
0
 10
71
 20
29.5
 11
71
 21
15.5
  0
LINE
  8
0
 10
71
 20
15.5
 11
57
 21
15.5
  0
LINE
  8
0
 10
145
 20
15.5
 11
145
 21
29.5
  0
LINE
  8
0
 10
145
 20
29.5
 11
159
 21
29.5
  0
LINE
  8
0
 10
159
 20
29.5
 11
159
 21
15.5
  0
LINE
  8
0
 10
159
 20
15.5
 11
145
 21
15.5
  0
LINE
  8
0
 10
165
 20
15.5
 11
165
 21
29.5
  0
LINE
  8
0
 10
165
 20
29.5
 11
179
 21
29.5
  0
LINE
  8
0
 10
179
 20
29.5
 11
179
 21
15.5
  0
LINE
  8
0
 10
179
 20
15.5
 11
165
 21
15.5
  0
LINE
  8
0
 10
185
 20
15.5
 11
185
 21
29.5
  0
LINE
  8
0
 10
185
 20
29.5
 11
199
 21
29.5
  0
LINE
  8
0
 10
199
 20
29.5
 11
199
 21
15.5
  0
LINE
  8
0
 10
199
 20
15.5
 11
185
 21
15.5
  0
LINE
  8
0
 10
203
 20
6.5
 11
203
 21
20.5
  0
LINE
  8
0
 10
203
 20
20.5
 11
217
 21
20.5
  0
LINE
  8
0
 10
217
 20
20.5
 11
217
 21
6.5
  0
LINE
  8
0
 10
217
 20
6.5
 11
203
 21
6.5
  0
LINE
  8
0
 10
221
 20
6.5
 11
221
 21
20.5
  0
LINE
  8
0
 10
221
 20
20.5
 11
235
 21
20.5
  0
LINE
  8
0
 10
235
 20
20.5
 11
235
 21
6.5
  0
LINE
  8
0
 10
235
 20
6.5
 11
221
 21
6.5
  0
LINE
  8
0
 10
95
 20
6.5
 11
95
 21
20.5
  0
LINE
  8
0
 10
95
 20
20.5
 11
109
 21
20.5
  0
LINE
  8
0
 10
109
 20
20.5
 11
109
 21
6.5
  0
LINE
  8
0
 10
109
 20
6.5
 11
95
 21
6.5
  0
LINE
  8
0
 10
241.304
 20
3.86539
 11
241.114
 21
3.91118
  0
LINE
  8
0
 10
241.114
 20
3.91118
 11
240.933
 21
3.98624
  0
LINE
  8
0
 10
240.933
 20
3.98624
 11
240.765
 21
4.08871
  0
LINE
  8
0
 10
240.765
 20
4.08871
 11
240.616
 21
4.21611
  0
LINE
  8
0
 10
240.616
 20
4.21611
 11
240.489
 21
4.36526
  0
LINE
  8
0
 10
240.489
 20
4.36526
 11
240.386
 21
4.5325
  0
LINE
  8
0
 10
240.386
 20
4.5325
 11
240.311
 21
4.71371
  0
LINE
  8
0
 10
240.311
 20
4.71371
 11
240.265
 21
4.90445
  0
LINE
  8
0
 10
240.265
 20
4.90445
 11
240.25
 21
5.09999
  0
LINE
  8
0
 10
240.25
 20
5.09999
 11
240.265
 21
5.29553
  0
LINE
  8
0
 10
240.265
 20
5.29553
 11
240.311
 21
5.48627
  0
LINE
  8
0
 10
240.311
 20
5.48627
 11
240.386
 21
5.66748
  0
LINE
  8
0
 10
240.386
 20
5.66748
 11
240.489
 21
5.83472
  0
LINE
  8
0
 10
240.489
 20
5.83472
 11
240.616
 21
5.98387
  0
LINE
  8
0
 10
240.616
 20
5.98387
 11
240.765
 21
6.11127
  0
LINE
  8
0
 10
240.765
 20
6.11127
 11
240.933
 21
6.21375
  0
LINE
  8
0
 10
240.933
 20
6.21375
 11
241.114
 21
6.28882
  0
LINE
  8
0
 10
241.114
 20
6.28882
 11
241.304
 21
6.33461
  0
LINE
  8
0
 10
241.304
 20
6.33461
 11
241.5
 21
6.34999
  0
LINE
  8
0
 10
241.5
 20
6.34999
 11
241.696
 21
6.33461
  0
LINE
  8
0
 10
241.696
 20
6.33461
 11
241.886
 21
6.28882
  0
LINE
  8
0
 10
241.886
 20
6.28882
 11
242.067
 21
6.21375
  0
LINE
  8
0
 10
242.067
 20
6.21375
 11
242.235
 21
6.11127
  0
LINE
  8
0
 10
242.235
 20
6.11127
 11
242.384
 21
5.98387
  0
LINE
  8
0
 10
242.384
 20
5.98387
 11
242.511
 21
5.83472
  0
LINE
  8
0
 10
242.511
 20
5.83472
 11
242.614
 21
5.66748
  0
LINE
  8
0
 10
242.614
 20
5.66748
 11
242.689
 21
5.48627
  0
LINE
  8
0
 10
242.689
 20
5.48627
 11
242.735
 21
5.29553
  0
LINE
  8
0
 10
242.735
 20
5.29553
 11
242.75
 21
5.09999
  0
LINE
  8
0
 10
242.75
 20
5.09999
 11
242.735
 21
4.90445
  0
LINE
  8
0
 10
242.735
 20
4.90445
 11
242.689
 21
4.71371
  0
LINE
  8
0
 10
242.689
 20
4.71371
 11
242.614
 21
4.5325
  0
LINE
  8
0
 10
242.614
 20
4.5325
 11
242.511
 21
4.36526
  0
LINE
  8
0
 10
242.511
 20
4.36526
 11
242.384
 21
4.21611
  0
LINE
  8
0
 10
242.384
 20
4.21611
 11
242.235
 21
4.08871
  0
LINE
  8
0
 10
242.235
 20
4.08871
 11
242.067
 21
3.98624
  0
LINE
  8
0
 10
242.067
 20
3.98624
 11
241.886
 21
3.91118
  0
LINE
  8
0
 10
241.886
 20
3.91118
 11
241.696
 21
3.86539
  0
LINE
  8
0
 10
241.696
 20
3.86539
 11
241.5
 21
3.84999
  0
LINE
  8
0
 10
241.5
 20
3.84999
 11
241.304
 21
3.86539
  0
LINE
  8
0
 10
142.404
 20
3.86539
 11
142.214
 21
3.91118
  0
LINE
  8
0
 10
142.214
 20
3.91118
 11
142.033
 21
3.98624
  0
LINE
  8
0
 10
142.033
 20
3.98624
 11
141.865
 21
4.08871
  0
LINE
  8
0
 10
141.865
 20
4.08871
 11
141.716
 21
4.21611
  0
LINE
  8
0
 10
141.716
 20
4.21611
 11
141.589
 21
4.36526
  0
LINE
  8
0
 10
141.589
 20
4.36526
 11
141.486
 21
4.5325
  0
LINE
  8
0
 10
141.486
 20
4.5325
 11
141.411
 21
4.71371
  0
LINE
  8
0
 10
141.411
 20
4.71371
 11
141.365
 21
4.90445
  0
LINE
  8
0
 10
141.365
 20
4.90445
 11
141.35
 21
5.09999
  0
LINE
  8
0
 10
141.35
 20
5.09999
 11
141.365
 21
5.29553
  0
LINE
  8
0
 10
141.365
 20
5.29553
 11
141.411
 21
5.48627
  0
LINE
  8
0
 10
141.411
 20
5.48627
 11
141.486
 21
5.66748
  0
LINE
  8
0
 10
141.486
 20
5.66748
 11
141.589
 21
5.83472
  0
LINE
  8
0
 10
141.589
 20
5.83472
 11
141.716
 21
5.98387
  0
LINE
  8
0
 10
141.716
 20
5.98387
 11
141.865
 21
6.11127
  0
LINE
  8
0
 10
141.865
 20
6.11127
 11
142.033
 21
6.21375
  0
LINE
  8
0
 10
142.033
 20
6.21375
 11
142.214
 21
6.28882
  0
LINE
  8
0
 10
142.214
 20
6.28882
 11
142.404
 21
6.33461
  0
LINE
  8
0
 10
142.404
 20
6.33461
 11
142.6
 21
6.34999
  0
LINE
  8
0
 10
142.6
 20
6.34999
 11
142.796
 21
6.33461
  0
LINE
  8
0
 10
142.796
 20
6.33461
 11
142.986
 21
6.28882
  0
LINE
  8
0
 10
142.986
 20
6.28882
 11
143.167
 21
6.21375
  0
LINE
  8
0
 10
143.167
 20
6.21375
 11
143.335
 21
6.11127
  0
LINE
  8
0
 10
143.335
 20
6.11127
 11
143.484
 21
5.98387
  0
LINE
  8
0
 10
143.484
 20
5.98387
 11
143.611
 21
5.83472
  0
LINE
  8
0
 10
143.611
 20
5.83472
 11
143.714
 21
5.66748
  0
LINE
  8
0
 10
143.714
 20
5.66748
 11
143.789
 21
5.48627
  0
LINE
  8
0
 10
143.789
 20
5.48627
 11
143.835
 21
5.29553
  0
LINE
  8
0
 10
143.835
 20
5.29553
 11
143.85
 21
5.09999
  0
LINE
  8
0
 10
143.85
 20
5.09999
 11
143.835
 21
4.90445
  0
LINE
  8
0
 10
143.835
 20
4.90445
 11
143.789
 21
4.71371
  0
LINE
  8
0
 10
143.789
 20
4.71371
 11
143.714
 21
4.5325
  0
LINE
  8
0
 10
143.714
 20
4.5325
 11
143.611
 21
4.36526
  0
LINE
  8
0
 10
143.611
 20
4.36526
 11
143.484
 21
4.21611
  0
LINE
  8
0
 10
143.484
 20
4.21611
 11
143.335
 21
4.08871
  0
LINE
  8
0
 10
143.335
 20
4.08871
 11
143.167
 21
3.98624
  0
LINE
  8
0
 10
143.167
 20
3.98624
 11
142.986
 21
3.91118
  0
LINE
  8
0
 10
142.986
 20
3.91118
 11
142.796
 21
3.86539
  0
LINE
  8
0
 10
142.796
 20
3.86539
 11
142.6
 21
3.84999
  0
LINE
  8
0
 10
142.6
 20
3.84999
 11
142.404
 21
3.86539
  0
LINE
  8
0
 10
115.304
 20
3.86539
 11
115.114
 21
3.91118
  0
LINE
  8
0
 10
115.114
 20
3.91118
 11
114.933
 21
3.98624
  0
LINE
  8
0
 10
114.933
 20
3.98624
 11
114.765
 21
4.08871
  0
LINE
  8
0
 10
114.765
 20
4.08871
 11
114.616
 21
4.21611
  0
LINE
  8
0
 10
114.616
 20
4.21611
 11
114.489
 21
4.36526
  0
LINE
  8
0
 10
114.489
 20
4.36526
 11
114.386
 21
4.5325
  0
LINE
  8
0
 10
114.386
 20
4.5325
 11
114.311
 21
4.71371
  0
LINE
  8
0
 10
114.311
 20
4.71371
 11
114.265
 21
4.90445
  0
LINE
  8
0
 10
114.265
 20
4.90445
 11
114.25
 21
5.09999
  0
LINE
  8
0
 10
114.25
 20
5.09999
 11
114.265
 21
5.29553
  0
LINE
  8
0
 10
114.265
 20
5.29553
 11
114.311
 21
5.48627
  0
LINE
  8
0
 10
114.311
 20
5.48627
 11
114.386
 21
5.66748
  0
LINE
  8
0
 10
114.386
 20
5.66748
 11
114.489
 21
5.83472
  0
LINE
  8
0
 10
114.489
 20
5.83472
 11
114.616
 21
5.98387
  0
LINE
  8
0
 10
114.616
 20
5.98387
 11
114.765
 21
6.11127
  0
LINE
  8
0
 10
114.765
 20
6.11127
 11
114.933
 21
6.21375
  0
LINE
  8
0
 10
114.933
 20
6.21375
 11
115.114
 21
6.28882
  0
LINE
  8
0
 10
115.114
 20
6.28882
 11
115.304
 21
6.33461
  0
LINE
  8
0
 10
115.304
 20
6.33461
 11
115.5
 21
6.34999
  0
LINE
  8
0
 10
115.5
 20
6.34999
 11
115.696
 21
6.33461
  0
LINE
  8
0
 10
115.696
 20
6.33461
 11
115.886
 21
6.28882
  0
LINE
  8
0
 10
115.886
 20
6.28882
 11
116.067
 21
6.21375
  0
LINE
  8
0
 10
116.067
 20
6.21375
 11
116.235
 21
6.11127
  0
LINE
  8
0
 10
116.235
 20
6.11127
 11
116.384
 21
5.98387
  0
LINE
  8
0
 10
116.384
 20
5.98387
 11
116.511
 21
5.83472
  0
LINE
  8
0
 10
116.511
 20
5.83472
 11
116.614
 21
5.66748
  0
LINE
  8
0
 10
116.614
 20
5.66748
 11
116.689
 21
5.48627
  0
LINE
  8
0
 10
116.689
 20
5.48627
 11
116.735
 21
5.29553
  0
LINE
  8
0
 10
116.735
 20
5.29553
 11
116.75
 21
5.09999
  0
LINE
  8
0
 10
116.75
 20
5.09999
 11
116.735
 21
4.90445
  0
LINE
  8
0
 10
116.735
 20
4.90445
 11
116.689
 21
4.71371
  0
LINE
  8
0
 10
116.689
 20
4.71371
 11
116.614
 21
4.5325
  0
LINE
  8
0
 10
116.614
 20
4.5325
 11
116.511
 21
4.36526
  0
LINE
  8
0
 10
116.511
 20
4.36526
 11
116.384
 21
4.21611
  0
LINE
  8
0
 10
116.384
 20
4.21611
 11
116.235
 21
4.08871
  0
LINE
  8
0
 10
116.235
 20
4.08871
 11
116.067
 21
3.98624
  0
LINE
  8
0
 10
116.067
 20
3.98624
 11
115.886
 21
3.91118
  0
LINE
  8
0
 10
115.886
 20
3.91118
 11
115.696
 21
3.86539
  0
LINE
  8
0
 10
115.696
 20
3.86539
 11
115.5
 21
3.84999
  0
LINE
  8
0
 10
115.5
 20
3.84999
 11
115.304
 21
3.86539
  0
LINE
  8
0
 10
34.4044
 20
3.86539
 11
34.2137
 21
3.91118
  0
LINE
  8
0
 10
34.2137
 20
3.91118
 11
34.0325
 21
3.98624
  0
LINE
  8
0
 10
34.0325
 20
3.98624
 11
33.8653
 21
4.08871
  0
LINE
  8
0
 10
33.8653
 20
4.08871
 11
33.7161
 21
4.21611
  0
LINE
  8
0
 10
33.7161
 20
4.21611
 11
33.5887
 21
4.36526
  0
LINE
  8
0
 10
33.5887
 20
4.36526
 11
33.4862
 21
4.5325
  0
LINE
  8
0
 10
33.4862
 20
4.5325
 11
33.4112
 21
4.71371
  0
LINE
  8
0
 10
33.4112
 20
4.71371
 11
33.3654
 21
4.90445
  0
LINE
  8
0
 10
33.3654
 20
4.90445
 11
33.35
 21
5.09999
  0
LINE
  8
0
 10
33.35
 20
5.09999
 11
33.3654
 21
5.29553
  0
LINE
  8
0
 10
33.3654
 20
5.29553
 11
33.4112
 21
5.48627
  0
LINE
  8
0
 10
33.4112
 20
5.48627
 11
33.4862
 21
5.66748
  0
LINE
  8
0
 10
33.4862
 20
5.66748
 11
33.5887
 21
5.83472
  0
LINE
  8
0
 10
33.5887
 20
5.83472
 11
33.7161
 21
5.98387
  0
LINE
  8
0
 10
33.7161
 20
5.98387
 11
33.8653
 21
6.11127
  0
LINE
  8
0
 10
33.8653
 20
6.11127
 11
34.0325
 21
6.21375
  0
LINE
  8
0
 10
34.0325
 20
6.21375
 11
34.2137
 21
6.28882
  0
LINE
  8
0
 10
34.2137
 20
6.28882
 11
34.4044
 21
6.33461
  0
LINE
  8
0
 10
34.4044
 20
6.33461
 11
34.6
 21
6.34999
  0
LINE
  8
0
 10
34.6
 20
6.34999
 11
34.7955
 21
6.33461
  0
LINE
  8
0
 10
34.7955
 20
6.33461
 11
34.9863
 21
6.28882
  0
LINE
  8
0
 10
34.9863
 20
6.28882
 11
35.1675
 21
6.21375
  0
LINE
  8
0
 10
35.1675
 20
6.21375
 11
35.3347
 21
6.11127
  0
LINE
  8
0
 10
35.3347
 20
6.11127
 11
35.4839
 21
5.98387
  0
LINE
  8
0
 10
35.4839
 20
5.98387
 11
35.6113
 21
5.83472
  0
LINE
  8
0
 10
35.6113
 20
5.83472
 11
35.7137
 21
5.66748
  0
LINE
  8
0
 10
35.7137
 20
5.66748
 11
35.7888
 21
5.48627
  0
LINE
  8
0
 10
35.7888
 20
5.48627
 11
35.8346
 21
5.29553
  0
LINE
  8
0
 10
35.8346
 20
5.29553
 11
35.85
 21
5.09999
  0
LINE
  8
0
 10
35.85
 20
5.09999
 11
35.8346
 21
4.90445
  0
LINE
  8
0
 10
35.8346
 20
4.90445
 11
35.7888
 21
4.71371
  0
LINE
  8
0
 10
35.7888
 20
4.71371
 11
35.7137
 21
4.5325
  0
LINE
  8
0
 10
35.7137
 20
4.5325
 11
35.6113
 21
4.36526
  0
LINE
  8
0
 10
35.6113
 20
4.36526
 11
35.4839
 21
4.21611
  0
LINE
  8
0
 10
35.4839
 20
4.21611
 11
35.3347
 21
4.08871
  0
LINE
  8
0
 10
35.3347
 20
4.08871
 11
35.1675
 21
3.98624
  0
LINE
  8
0
 10
35.1675
 20
3.98624
 11
34.9863
 21
3.91118
  0
LINE
  8
0
 10
34.9863
 20
3.91118
 11
34.7955
 21
3.86539
  0
LINE
  8
0
 10
34.7955
 20
3.86539
 11
34.6
 21
3.84999
  0
LINE
  8
0
 10
34.6
 20
3.84999
 11
34.4044
 21
3.86539
  0
LINE
  8
0
 10
249.404
 20
3.06538
 11
249.214
 21
3.11118
  0
LINE
  8
0
 10
249.214
 20
3.11118
 11
249.033
 21
3.18623
  0
LINE
  8
0
 10
249.033
 20
3.18623
 11
248.865
 21
3.28873
  0
LINE
  8
0
 10
248.865
 20
3.28873
 11
248.716
 21
3.41611
  0
LINE
  8
0
 10
248.716
 20
3.41611
 11
248.589
 21
3.56526
  0
LINE
  8
0
 10
248.589
 20
3.56526
 11
248.486
 21
3.7325
  0
LINE
  8
0
 10
248.486
 20
3.7325
 11
248.411
 21
3.91373
  0
LINE
  8
0
 10
248.411
 20
3.91373
 11
248.365
 21
4.10445
  0
LINE
  8
0
 10
248.365
 20
4.10445
 11
248.35
 21
4.29999
  0
LINE
  8
0
 10
248.35
 20
4.29999
 11
248.365
 21
4.49553
  0
LINE
  8
0
 10
248.365
 20
4.49553
 11
248.411
 21
4.68626
  0
LINE
  8
0
 10
248.411
 20
4.68626
 11
248.486
 21
4.86748
  0
LINE
  8
0
 10
248.486
 20
4.86748
 11
248.589
 21
5.03473
  0
LINE
  8
0
 10
248.589
 20
5.03473
 11
248.716
 21
5.18387
  0
LINE
  8
0
 10
248.716
 20
5.18387
 11
248.865
 21
5.31126
  0
LINE
  8
0
 10
248.865
 20
5.31126
 11
249.033
 21
5.41376
  0
LINE
  8
0
 10
249.033
 20
5.41376
 11
249.214
 21
5.48882
  0
LINE
  8
0
 10
249.214
 20
5.48882
 11
249.404
 21
5.53461
  0
LINE
  8
0
 10
249.404
 20
5.53461
 11
249.6
 21
5.54999
  0
LINE
  8
0
 10
249.6
 20
5.54999
 11
249.796
 21
5.53461
  0
LINE
  8
0
 10
249.796
 20
5.53461
 11
249.986
 21
5.48882
  0
LINE
  8
0
 10
249.986
 20
5.48882
 11
250.167
 21
5.41376
  0
LINE
  8
0
 10
250.167
 20
5.41376
 11
250.335
 21
5.31126
  0
LINE
  8
0
 10
250.335
 20
5.31126
 11
250.484
 21
5.18387
  0
LINE
  8
0
 10
250.484
 20
5.18387
 11
250.611
 21
5.03473
  0
LINE
  8
0
 10
250.611
 20
5.03473
 11
250.714
 21
4.86748
  0
LINE
  8
0
 10
250.714
 20
4.86748
 11
250.789
 21
4.68626
  0
LINE
  8
0
 10
250.789
 20
4.68626
 11
250.835
 21
4.49553
  0
LINE
  8
0
 10
250.835
 20
4.49553
 11
250.85
 21
4.29999
  0
LINE
  8
0
 10
250.85
 20
4.29999
 11
250.835
 21
4.10445
  0
LINE
  8
0
 10
250.835
 20
4.10445
 11
250.789
 21
3.91373
  0
LINE
  8
0
 10
250.789
 20
3.91373
 11
250.714
 21
3.7325
  0
LINE
  8
0
 10
250.714
 20
3.7325
 11
250.611
 21
3.56526
  0
LINE
  8
0
 10
250.611
 20
3.56526
 11
250.484
 21
3.41611
  0
LINE
  8
0
 10
250.484
 20
3.41611
 11
250.335
 21
3.28873
  0
LINE
  8
0
 10
250.335
 20
3.28873
 11
250.167
 21
3.18623
  0
LINE
  8
0
 10
250.167
 20
3.18623
 11
249.986
 21
3.11118
  0
LINE
  8
0
 10
249.986
 20
3.11118
 11
249.796
 21
3.06538
  0
LINE
  8
0
 10
249.796
 20
3.06538
 11
249.6
 21
3.04999
  0
LINE
  8
0
 10
249.6
 20
3.04999
 11
249.404
 21
3.06538
  0
LINE
  8
0
 10
126.804
 20
3.06538
 11
126.614
 21
3.11118
  0
LINE
  8
0
 10
126.614
 20
3.11118
 11
126.433
 21
3.18623
  0
LINE
  8
0
 10
126.433
 20
3.18623
 11
126.265
 21
3.28873
  0
LINE
  8
0
 10
126.265
 20
3.28873
 11
126.116
 21
3.41611
  0
LINE
  8
0
 10
126.116
 20
3.41611
 11
125.989
 21
3.56526
  0
LINE
  8
0
 10
125.989
 20
3.56526
 11
125.886
 21
3.7325
  0
LINE
  8
0
 10
125.886
 20
3.7325
 11
125.811
 21
3.91373
  0
LINE
  8
0
 10
125.811
 20
3.91373
 11
125.765
 21
4.10445
  0
LINE
  8
0
 10
125.765
 20
4.10445
 11
125.75
 21
4.29999
  0
LINE
  8
0
 10
125.75
 20
4.29999
 11
125.765
 21
4.49553
  0
LINE
  8
0
 10
125.765
 20
4.49553
 11
125.811
 21
4.68626
  0
LINE
  8
0
 10
125.811
 20
4.68626
 11
125.886
 21
4.86748
  0
LINE
  8
0
 10
125.886
 20
4.86748
 11
125.989
 21
5.03473
  0
LINE
  8
0
 10
125.989
 20
5.03473
 11
126.116
 21
5.18387
  0
LINE
  8
0
 10
126.116
 20
5.18387
 11
126.265
 21
5.31126
  0
LINE
  8
0
 10
126.265
 20
5.31126
 11
126.433
 21
5.41376
  0
LINE
  8
0
 10
126.433
 20
5.41376
 11
126.614
 21
5.48882
  0
LINE
  8
0
 10
126.614
 20
5.48882
 11
126.804
 21
5.53461
  0
LINE
  8
0
 10
126.804
 20
5.53461
 11
127
 21
5.54999
  0
LINE
  8
0
 10
127
 20
5.54999
 11
127.196
 21
5.53461
  0
LINE
  8
0
 10
127.196
 20
5.53461
 11
127.386
 21
5.48882
  0
LINE
  8
0
 10
127.386
 20
5.48882
 11
127.567
 21
5.41376
  0
LINE
  8
0
 10
127.567
 20
5.41376
 11
127.735
 21
5.31126
  0
LINE
  8
0
 10
127.735
 20
5.31126
 11
127.884
 21
5.18387
  0
LINE
  8
0
 10
127.884
 20
5.18387
 11
128.011
 21
5.03473
  0
LINE
  8
0
 10
128.011
 20
5.03473
 11
128.114
 21
4.86748
  0
LINE
  8
0
 10
128.114
 20
4.86748
 11
128.189
 21
4.68626
  0
LINE
  8
0
 10
128.189
 20
4.68626
 11
128.235
 21
4.49553
  0
LINE
  8
0
 10
128.235
 20
4.49553
 11
128.25
 21
4.29999
  0
LINE
  8
0
 10
128.25
 20
4.29999
 11
128.235
 21
4.10445
  0
LINE
  8
0
 10
128.235
 20
4.10445
 11
128.189
 21
3.91373
  0
LINE
  8
0
 10
128.189
 20
3.91373
 11
128.114
 21
3.7325
  0
LINE
  8
0
 10
128.114
 20
3.7325
 11
128.011
 21
3.56526
  0
LINE
  8
0
 10
128.011
 20
3.56526
 11
127.884
 21
3.41611
  0
LINE
  8
0
 10
127.884
 20
3.41611
 11
127.735
 21
3.28873
  0
LINE
  8
0
 10
127.735
 20
3.28873
 11
127.567
 21
3.18623
  0
LINE
  8
0
 10
127.567
 20
3.18623
 11
127.386
 21
3.11118
  0
LINE
  8
0
 10
127.386
 20
3.11118
 11
127.196
 21
3.06538
  0
LINE
  8
0
 10
127.196
 20
3.06538
 11
127
 21
3.04999
  0
LINE
  8
0
 10
127
 20
3.04999
 11
126.804
 21
3.06538
  0
LINE
  8
0
 10
17.1044
 20
3.06538
 11
16.9137
 21
3.11118
  0
LINE
  8
0
 10
16.9137
 20
3.11118
 11
16.7325
 21
3.18623
  0
LINE
  8
0
 10
16.7325
 20
3.18623
 11
16.5653
 21
3.28873
  0
LINE
  8
0
 10
16.5653
 20
3.28873
 11
16.4161
 21
3.41611
  0
LINE
  8
0
 10
16.4161
 20
3.41611
 11
16.2887
 21
3.56526
  0
LINE
  8
0
 10
16.2887
 20
3.56526
 11
16.1862
 21
3.7325
  0
LINE
  8
0
 10
16.1862
 20
3.7325
 11
16.1112
 21
3.91373
  0
LINE
  8
0
 10
16.1112
 20
3.91373
 11
16.0654
 21
4.10445
  0
LINE
  8
0
 10
16.0654
 20
4.10445
 11
16.05
 21
4.29999
  0
LINE
  8
0
 10
16.05
 20
4.29999
 11
16.0654
 21
4.49553
  0
LINE
  8
0
 10
16.0654
 20
4.49553
 11
16.1112
 21
4.68626
  0
LINE
  8
0
 10
16.1112
 20
4.68626
 11
16.1862
 21
4.86748
  0
LINE
  8
0
 10
16.1862
 20
4.86748
 11
16.2887
 21
5.03473
  0
LINE
  8
0
 10
16.2887
 20
5.03473
 11
16.4161
 21
5.18387
  0
LINE
  8
0
 10
16.4161
 20
5.18387
 11
16.5653
 21
5.31126
  0
LINE
  8
0
 10
16.5653
 20
5.31126
 11
16.7325
 21
5.41376
  0
LINE
  8
0
 10
16.7325
 20
5.41376
 11
16.9137
 21
5.48882
  0
LINE
  8
0
 10
16.9137
 20
5.48882
 11
17.1044
 21
5.53461
  0
LINE
  8
0
 10
17.1044
 20
5.53461
 11
17.3
 21
5.54999
  0
LINE
  8
0
 10
17.3
 20
5.54999
 11
17.4955
 21
5.53461
  0
LINE
  8
0
 10
17.4955
 20
5.53461
 11
17.6863
 21
5.48882
  0
LINE
  8
0
 10
17.6863
 20
5.48882
 11
17.8675
 21
5.41376
  0
LINE
  8
0
 10
17.8675
 20
5.41376
 11
18.0347
 21
5.31126
  0
LINE
  8
0
 10
18.0347
 20
5.31126
 11
18.1839
 21
5.18387
  0
LINE
  8
0
 10
18.1839
 20
5.18387
 11
18.3113
 21
5.03473
  0
LINE
  8
0
 10
18.3113
 20
5.03473
 11
18.4138
 21
4.86748
  0
LINE
  8
0
 10
18.4138
 20
4.86748
 11
18.4888
 21
4.68626
  0
LINE
  8
0
 10
18.4888
 20
4.68626
 11
18.5346
 21
4.49553
  0
LINE
  8
0
 10
18.5346
 20
4.49553
 11
18.55
 21
4.29999
  0
LINE
  8
0
 10
18.55
 20
4.29999
 11
18.5346
 21
4.10445
  0
LINE
  8
0
 10
18.5346
 20
4.10445
 11
18.4888
 21
3.91373
  0
LINE
  8
0
 10
18.4888
 20
3.91373
 11
18.4138
 21
3.7325
  0
LINE
  8
0
 10
18.4138
 20
3.7325
 11
18.3113
 21
3.56526
  0
LINE
  8
0
 10
18.3113
 20
3.56526
 11
18.1839
 21
3.41611
  0
LINE
  8
0
 10
18.1839
 20
3.41611
 11
18.0347
 21
3.28873
  0
LINE
  8
0
 10
18.0347
 20
3.28873
 11
17.8675
 21
3.18623
  0
LINE
  8
0
 10
17.8675
 20
3.18623
 11
17.6863
 21
3.11118
  0
LINE
  8
0
 10
17.6863
 20
3.11118
 11
17.4955
 21
3.06538
  0
LINE
  8
0
 10
17.4955
 20
3.06538
 11
17.3
 21
3.04999
  0
LINE
  8
0
 10
17.3
 20
3.04999
 11
17.1044
 21
3.06538
  0
ENDSEC
  0
SECTION
  2
OBJECTS
  0
DICTIONARY
  0
ENDSEC
  0
EOF
