  0
SECTION
  2
BLOCKS
  0
ENDSEC
  0
SECTION
  2
ENTITIES
  0
LINE
  8
0
 10
289.9
 20
44.8
 11
0
 21
44.8
  0
LINE
  8
0
 10
0
 20
44.8
 11
0
 21
0.199997
  0
LINE
  8
0
 10
0
 20
0.199997
 11
289.9
 21
0.199997
  0
LINE
  8
0
 10
289.9
 20
0.199997
 11
289.9
 21
44.8
  0
LINE
  8
0
 10
241.504
 20
38.6654
 11
241.314
 21
38.7112
  0
LINE
  8
0
 10
241.314
 20
38.7112
 11
241.133
 21
38.7862
  0
LINE
  8
0
 10
241.133
 20
38.7862
 11
240.965
 21
38.8887
  0
LINE
  8
0
 10
240.965
 20
38.8887
 11
240.816
 21
39.0161
  0
LINE
  8
0
 10
240.816
 20
39.0161
 11
240.689
 21
39.1653
  0
LINE
  8
0
 10
240.689
 20
39.1653
 11
240.586
 21
39.3325
  0
LINE
  8
0
 10
240.586
 20
39.3325
 11
240.511
 21
39.5137
  0
LINE
  8
0
 10
240.511
 20
39.5137
 11
240.465
 21
39.7045
  0
LINE
  8
0
 10
240.465
 20
39.7045
 11
240.45
 21
39.9
  0
LINE
  8
0
 10
240.45
 20
39.9
 11
240.465
 21
40.0955
  0
LINE
  8
0
 10
240.465
 20
40.0955
 11
240.511
 21
40.2863
  0
LINE
  8
0
 10
240.511
 20
40.2863
 11
240.586
 21
40.4675
  0
LINE
  8
0
 10
240.586
 20
40.4675
 11
240.689
 21
40.6347
  0
LINE
  8
0
 10
240.689
 20
40.6347
 11
240.816
 21
40.7839
  0
LINE
  8
0
 10
240.816
 20
40.7839
 11
240.965
 21
40.9113
  0
LINE
  8
0
 10
240.965
 20
40.9113
 11
241.133
 21
41.0137
  0
LINE
  8
0
 10
241.133
 20
41.0137
 11
241.314
 21
41.0888
  0
LINE
  8
0
 10
241.314
 20
41.0888
 11
241.504
 21
41.1346
  0
LINE
  8
0
 10
241.504
 20
41.1346
 11
241.7
 21
41.15
  0
LINE
  8
0
 10
241.7
 20
41.15
 11
241.896
 21
41.1346
  0
LINE
  8
0
 10
241.896
 20
41.1346
 11
242.086
 21
41.0888
  0
LINE
  8
0
 10
242.086
 20
41.0888
 11
242.267
 21
41.0137
  0
LINE
  8
0
 10
242.267
 20
41.0137
 11
242.435
 21
40.9113
  0
LINE
  8
0
 10
242.435
 20
40.9113
 11
242.584
 21
40.7839
  0
LINE
  8
0
 10
242.584
 20
40.7839
 11
242.711
 21
40.6347
  0
LINE
  8
0
 10
242.711
 20
40.6347
 11
242.814
 21
40.4675
  0
LINE
  8
0
 10
242.814
 20
40.4675
 11
242.889
 21
40.2863
  0
LINE
  8
0
 10
242.889
 20
40.2863
 11
242.935
 21
40.0955
  0
LINE
  8
0
 10
242.935
 20
40.0955
 11
242.95
 21
39.9
  0
LINE
  8
0
 10
242.95
 20
39.9
 11
242.935
 21
39.7045
  0
LINE
  8
0
 10
242.935
 20
39.7045
 11
242.889
 21
39.5137
  0
LINE
  8
0
 10
242.889
 20
39.5137
 11
242.814
 21
39.3325
  0
LINE
  8
0
 10
242.814
 20
39.3325
 11
242.711
 21
39.1653
  0
LINE
  8
0
 10
242.711
 20
39.1653
 11
242.584
 21
39.0161
  0
LINE
  8
0
 10
242.584
 20
39.0161
 11
242.435
 21
38.8887
  0
LINE
  8
0
 10
242.435
 20
38.8887
 11
242.267
 21
38.7862
  0
LINE
  8
0
 10
242.267
 20
38.7862
 11
242.086
 21
38.7112
  0
LINE
  8
0
 10
242.086
 20
38.7112
 11
241.896
 21
38.6654
  0
LINE
  8
0
 10
241.896
 20
38.6654
 11
241.7
 21
38.65
  0
LINE
  8
0
 10
241.7
 20
38.65
 11
241.504
 21
38.6654
  0
LINE
  8
0
 10
141.804
 20
38.6654
 11
141.614
 21
38.7112
  0
LINE
  8
0
 10
141.614
 20
38.7112
 11
141.433
 21
38.7862
  0
LINE
  8
0
 10
141.433
 20
38.7862
 11
141.265
 21
38.8887
  0
LINE
  8
0
 10
141.265
 20
38.8887
 11
141.116
 21
39.0161
  0
LINE
  8
0
 10
141.116
 20
39.0161
 11
140.989
 21
39.1653
  0
LINE
  8
0
 10
140.989
 20
39.1653
 11
140.886
 21
39.3325
  0
LINE
  8
0
 10
140.886
 20
39.3325
 11
140.811
 21
39.5137
  0
LINE
  8
0
 10
140.811
 20
39.5137
 11
140.765
 21
39.7045
  0
LINE
  8
0
 10
140.765
 20
39.7045
 11
140.75
 21
39.9
  0
LINE
  8
0
 10
140.75
 20
39.9
 11
140.765
 21
40.0955
  0
LINE
  8
0
 10
140.765
 20
40.0955
 11
140.811
 21
40.2863
  0
LINE
  8
0
 10
140.811
 20
40.2863
 11
140.886
 21
40.4675
  0
LINE
  8
0
 10
140.886
 20
40.4675
 11
140.989
 21
40.6347
  0
LINE
  8
0
 10
140.989
 20
40.6347
 11
141.116
 21
40.7839
  0
LINE
  8
0
 10
141.116
 20
40.7839
 11
141.265
 21
40.9113
  0
LINE
  8
0
 10
141.265
 20
40.9113
 11
141.433
 21
41.0137
  0
LINE
  8
0
 10
141.433
 20
41.0137
 11
141.614
 21
41.0888
  0
LINE
  8
0
 10
141.614
 20
41.0888
 11
141.804
 21
41.1346
  0
LINE
  8
0
 10
141.804
 20
41.1346
 11
142
 21
41.15
  0
LINE
  8
0
 10
142
 20
41.15
 11
142.196
 21
41.1346
  0
LINE
  8
0
 10
142.196
 20
41.1346
 11
142.386
 21
41.0888
  0
LINE
  8
0
 10
142.386
 20
41.0888
 11
142.567
 21
41.0137
  0
LINE
  8
0
 10
142.567
 20
41.0137
 11
142.735
 21
40.9113
  0
LINE
  8
0
 10
142.735
 20
40.9113
 11
142.884
 21
40.7839
  0
LINE
  8
0
 10
142.884
 20
40.7839
 11
143.011
 21
40.6347
  0
LINE
  8
0
 10
143.011
 20
40.6347
 11
143.114
 21
40.4675
  0
LINE
  8
0
 10
143.114
 20
40.4675
 11
143.189
 21
40.2863
  0
LINE
  8
0
 10
143.189
 20
40.2863
 11
143.235
 21
40.0955
  0
LINE
  8
0
 10
143.235
 20
40.0955
 11
143.25
 21
39.9
  0
LINE
  8
0
 10
143.25
 20
39.9
 11
143.235
 21
39.7045
  0
LINE
  8
0
 10
143.235
 20
39.7045
 11
143.189
 21
39.5137
  0
LINE
  8
0
 10
143.189
 20
39.5137
 11
143.114
 21
39.3325
  0
LINE
  8
0
 10
143.114
 20
39.3325
 11
143.011
 21
39.1653
  0
LINE
  8
0
 10
143.011
 20
39.1653
 11
142.884
 21
39.0161
  0
LINE
  8
0
 10
142.884
 20
39.0161
 11
142.735
 21
38.8887
  0
LINE
  8
0
 10
142.735
 20
38.8887
 11
142.567
 21
38.7862
  0
LINE
  8
0
 10
142.567
 20
38.7862
 11
142.386
 21
38.7112
  0
LINE
  8
0
 10
142.386
 20
38.7112
 11
142.196
 21
38.6654
  0
LINE
  8
0
 10
142.196
 20
38.6654
 11
142
 21
38.65
  0
LINE
  8
0
 10
142
 20
38.65
 11
141.804
 21
38.6654
  0
LINE
  8
0
 10
115.504
 20
38.6654
 11
115.314
 21
38.7112
  0
LINE
  8
0
 10
115.314
 20
38.7112
 11
115.133
 21
38.7862
  0
LINE
  8
0
 10
115.133
 20
38.7862
 11
114.965
 21
38.8887
  0
LINE
  8
0
 10
114.965
 20
38.8887
 11
114.816
 21
39.0161
  0
LINE
  8
0
 10
114.816
 20
39.0161
 11
114.689
 21
39.1653
  0
LINE
  8
0
 10
114.689
 20
39.1653
 11
114.586
 21
39.3325
  0
LINE
  8
0
 10
114.586
 20
39.3325
 11
114.511
 21
39.5137
  0
LINE
  8
0
 10
114.511
 20
39.5137
 11
114.465
 21
39.7045
  0
LINE
  8
0
 10
114.465
 20
39.7045
 11
114.45
 21
39.9
  0
LINE
  8
0
 10
114.45
 20
39.9
 11
114.465
 21
40.0955
  0
LINE
  8
0
 10
114.465
 20
40.0955
 11
114.511
 21
40.2863
  0
LINE
  8
0
 10
114.511
 20
40.2863
 11
114.586
 21
40.4675
  0
LINE
  8
0
 10
114.586
 20
40.4675
 11
114.689
 21
40.6347
  0
LINE
  8
0
 10
114.689
 20
40.6347
 11
114.816
 21
40.7839
  0
LINE
  8
0
 10
114.816
 20
40.7839
 11
114.965
 21
40.9113
  0
LINE
  8
0
 10
114.965
 20
40.9113
 11
115.133
 21
41.0137
  0
LINE
  8
0
 10
115.133
 20
41.0137
 11
115.314
 21
41.0888
  0
LINE
  8
0
 10
115.314
 20
41.0888
 11
115.504
 21
41.1346
  0
LINE
  8
0
 10
115.504
 20
41.1346
 11
115.7
 21
41.15
  0
LINE
  8
0
 10
115.7
 20
41.15
 11
115.896
 21
41.1346
  0
LINE
  8
0
 10
115.896
 20
41.1346
 11
116.086
 21
41.0888
  0
LINE
  8
0
 10
116.086
 20
41.0888
 11
116.267
 21
41.0137
  0
LINE
  8
0
 10
116.267
 20
41.0137
 11
116.435
 21
40.9113
  0
LINE
  8
0
 10
116.435
 20
40.9113
 11
116.584
 21
40.7839
  0
LINE
  8
0
 10
116.584
 20
40.7839
 11
116.711
 21
40.6347
  0
LINE
  8
0
 10
116.711
 20
40.6347
 11
116.814
 21
40.4675
  0
LINE
  8
0
 10
116.814
 20
40.4675
 11
116.889
 21
40.2863
  0
LINE
  8
0
 10
116.889
 20
40.2863
 11
116.935
 21
40.0955
  0
LINE
  8
0
 10
116.935
 20
40.0955
 11
116.95
 21
39.9
  0
LINE
  8
0
 10
116.95
 20
39.9
 11
116.935
 21
39.7045
  0
LINE
  8
0
 10
116.935
 20
39.7045
 11
116.889
 21
39.5137
  0
LINE
  8
0
 10
116.889
 20
39.5137
 11
116.814
 21
39.3325
  0
LINE
  8
0
 10
116.814
 20
39.3325
 11
116.711
 21
39.1653
  0
LINE
  8
0
 10
116.711
 20
39.1653
 11
116.584
 21
39.0161
  0
LINE
  8
0
 10
116.584
 20
39.0161
 11
116.435
 21
38.8887
  0
LINE
  8
0
 10
116.435
 20
38.8887
 11
116.267
 21
38.7862
  0
LINE
  8
0
 10
116.267
 20
38.7862
 11
116.086
 21
38.7112
  0
LINE
  8
0
 10
116.086
 20
38.7112
 11
115.896
 21
38.6654
  0
LINE
  8
0
 10
115.896
 20
38.6654
 11
115.7
 21
38.65
  0
LINE
  8
0
 10
115.7
 20
38.65
 11
115.504
 21
38.6654
  0
LINE
  8
0
 10
33.8044
 20
38.6654
 11
33.6137
 21
38.7112
  0
LINE
  8
0
 10
33.6137
 20
38.7112
 11
33.4325
 21
38.7862
  0
LINE
  8
0
 10
33.4325
 20
38.7862
 11
33.2653
 21
38.8887
  0
LINE
  8
0
 10
33.2653
 20
38.8887
 11
33.1161
 21
39.0161
  0
LINE
  8
0
 10
33.1161
 20
39.0161
 11
32.9887
 21
39.1653
  0
LINE
  8
0
 10
32.9887
 20
39.1653
 11
32.8862
 21
39.3325
  0
LINE
  8
0
 10
32.8862
 20
39.3325
 11
32.8112
 21
39.5137
  0
LINE
  8
0
 10
32.8112
 20
39.5137
 11
32.7654
 21
39.7045
  0
LINE
  8
0
 10
32.7654
 20
39.7045
 11
32.75
 21
39.9
  0
LINE
  8
0
 10
32.75
 20
39.9
 11
32.7654
 21
40.0955
  0
LINE
  8
0
 10
32.7654
 20
40.0955
 11
32.8112
 21
40.2863
  0
LINE
  8
0
 10
32.8112
 20
40.2863
 11
32.8862
 21
40.4675
  0
LINE
  8
0
 10
32.8862
 20
40.4675
 11
32.9887
 21
40.6347
  0
LINE
  8
0
 10
32.9887
 20
40.6347
 11
33.1161
 21
40.7839
  0
LINE
  8
0
 10
33.1161
 20
40.7839
 11
33.2653
 21
40.9113
  0
LINE
  8
0
 10
33.2653
 20
40.9113
 11
33.4325
 21
41.0137
  0
LINE
  8
0
 10
33.4325
 20
41.0137
 11
33.6137
 21
41.0888
  0
LINE
  8
0
 10
33.6137
 20
41.0888
 11
33.8044
 21
41.1346
  0
LINE
  8
0
 10
33.8044
 20
41.1346
 11
34
 21
41.15
  0
LINE
  8
0
 10
34
 20
41.15
 11
34.1955
 21
41.1346
  0
LINE
  8
0
 10
34.1955
 20
41.1346
 11
34.3863
 21
41.0888
  0
LINE
  8
0
 10
34.3863
 20
41.0888
 11
34.5675
 21
41.0137
  0
LINE
  8
0
 10
34.5675
 20
41.0137
 11
34.7347
 21
40.9113
  0
LINE
  8
0
 10
34.7347
 20
40.9113
 11
34.8839
 21
40.7839
  0
LINE
  8
0
 10
34.8839
 20
40.7839
 11
35.0113
 21
40.6347
  0
LINE
  8
0
 10
35.0113
 20
40.6347
 11
35.1138
 21
40.4675
  0
LINE
  8
0
 10
35.1138
 20
40.4675
 11
35.1888
 21
40.2863
  0
LINE
  8
0
 10
35.1888
 20
40.2863
 11
35.2346
 21
40.0955
  0
LINE
  8
0
 10
35.2346
 20
40.0955
 11
35.25
 21
39.9
  0
LINE
  8
0
 10
35.25
 20
39.9
 11
35.2346
 21
39.7045
  0
LINE
  8
0
 10
35.2346
 20
39.7045
 11
35.1888
 21
39.5137
  0
LINE
  8
0
 10
35.1888
 20
39.5137
 11
35.1138
 21
39.3325
  0
LINE
  8
0
 10
35.1138
 20
39.3325
 11
35.0113
 21
39.1653
  0
LINE
  8
0
 10
35.0113
 20
39.1653
 11
34.8839
 21
39.0161
  0
LINE
  8
0
 10
34.8839
 20
39.0161
 11
34.7347
 21
38.8887
  0
LINE
  8
0
 10
34.7347
 20
38.8887
 11
34.5675
 21
38.7862
  0
LINE
  8
0
 10
34.5675
 20
38.7862
 11
34.3863
 21
38.7112
  0
LINE
  8
0
 10
34.3863
 20
38.7112
 11
34.1955
 21
38.6654
  0
LINE
  8
0
 10
34.1955
 20
38.6654
 11
34
 21
38.65
  0
LINE
  8
0
 10
34
 20
38.65
 11
33.8044
 21
38.6654
  0
LINE
  8
0
 10
24.3044
 20
38.2654
 11
24.1137
 21
38.3112
  0
LINE
  8
0
 10
24.1137
 20
38.3112
 11
23.9325
 21
38.3862
  0
LINE
  8
0
 10
23.9325
 20
38.3862
 11
23.7653
 21
38.4887
  0
LINE
  8
0
 10
23.7653
 20
38.4887
 11
23.6161
 21
38.6161
  0
LINE
  8
0
 10
23.6161
 20
38.6161
 11
23.4887
 21
38.7653
  0
LINE
  8
0
 10
23.4887
 20
38.7653
 11
23.3862
 21
38.9325
  0
LINE
  8
0
 10
23.3862
 20
38.9325
 11
23.3112
 21
39.1137
  0
LINE
  8
0
 10
23.3112
 20
39.1137
 11
23.2654
 21
39.3044
  0
LINE
  8
0
 10
23.2654
 20
39.3044
 11
23.25
 21
39.5
  0
LINE
  8
0
 10
23.25
 20
39.5
 11
23.2654
 21
39.6955
  0
LINE
  8
0
 10
23.2654
 20
39.6955
 11
23.3112
 21
39.8863
  0
LINE
  8
0
 10
23.3112
 20
39.8863
 11
23.3862
 21
40.0675
  0
LINE
  8
0
 10
23.3862
 20
40.0675
 11
23.4887
 21
40.2347
  0
LINE
  8
0
 10
23.4887
 20
40.2347
 11
23.6161
 21
40.3839
  0
LINE
  8
0
 10
23.6161
 20
40.3839
 11
23.7653
 21
40.5113
  0
LINE
  8
0
 10
23.7653
 20
40.5113
 11
23.9325
 21
40.6138
  0
LINE
  8
0
 10
23.9325
 20
40.6138
 11
24.1137
 21
40.6888
  0
LINE
  8
0
 10
24.1137
 20
40.6888
 11
24.3044
 21
40.7346
  0
LINE
  8
0
 10
24.3044
 20
40.7346
 11
24.5
 21
40.75
  0
LINE
  8
0
 10
24.5
 20
40.75
 11
24.6955
 21
40.7346
  0
LINE
  8
0
 10
24.6955
 20
40.7346
 11
24.8863
 21
40.6888
  0
LINE
  8
0
 10
24.8863
 20
40.6888
 11
25.0675
 21
40.6138
  0
LINE
  8
0
 10
25.0675
 20
40.6138
 11
25.2347
 21
40.5113
  0
LINE
  8
0
 10
25.2347
 20
40.5113
 11
25.3839
 21
40.3839
  0
LINE
  8
0
 10
25.3839
 20
40.3839
 11
25.5113
 21
40.2347
  0
LINE
  8
0
 10
25.5113
 20
40.2347
 11
25.6138
 21
40.0675
  0
LINE
  8
0
 10
25.6138
 20
40.0675
 11
25.6888
 21
39.8863
  0
LINE
  8
0
 10
25.6888
 20
39.8863
 11
25.7346
 21
39.6955
  0
LINE
  8
0
 10
25.7346
 20
39.6955
 11
25.75
 21
39.5
  0
LINE
  8
0
 10
25.75
 20
39.5
 11
25.7346
 21
39.3044
  0
LINE
  8
0
 10
25.7346
 20
39.3044
 11
25.6888
 21
39.1137
  0
LINE
  8
0
 10
25.6888
 20
39.1137
 11
25.6138
 21
38.9325
  0
LINE
  8
0
 10
25.6138
 20
38.9325
 11
25.5113
 21
38.7653
  0
LINE
  8
0
 10
25.5113
 20
38.7653
 11
25.3839
 21
38.6161
  0
LINE
  8
0
 10
25.3839
 20
38.6161
 11
25.2347
 21
38.4887
  0
LINE
  8
0
 10
25.2347
 20
38.4887
 11
25.0675
 21
38.3862
  0
LINE
  8
0
 10
25.0675
 20
38.3862
 11
24.8863
 21
38.3112
  0
LINE
  8
0
 10
24.8863
 20
38.3112
 11
24.6955
 21
38.2654
  0
LINE
  8
0
 10
24.6955
 20
38.2654
 11
24.5
 21
38.25
  0
LINE
  8
0
 10
24.5
 20
38.25
 11
24.3044
 21
38.2654
  0
LINE
  8
0
 10
77
 20
25.5
 11
77
 21
39.5
  0
LINE
  8
0
 10
77
 20
39.5
 11
91
 21
39.5
  0
LINE
  8
0
 10
91
 20
39.5
 11
91
 21
25.5
  0
LINE
  8
0
 10
91
 20
25.5
 11
77
 21
25.5
  0
LINE
  8
0
 10
185
 20
25.5
 11
185
 21
39.5
  0
LINE
  8
0
 10
185
 20
39.5
 11
199
 21
39.5
  0
LINE
  8
0
 10
199
 20
39.5
 11
199
 21
25.5
  0
LINE
  8
0
 10
199
 20
25.5
 11
185
 21
25.5
  0
LINE
  8
0
 10
145
 20
25.5
 11
145
 21
39.5
  0
LINE
  8
0
 10
145
 20
39.5
 11
159
 21
39.5
  0
LINE
  8
0
 10
159
 20
39.5
 11
159
 21
25.5
  0
LINE
  8
0
 10
159
 20
25.5
 11
145
 21
25.5
  0
LINE
  8
0
 10
37
 20
25.5
 11
37
 21
39.5
  0
LINE
  8
0
 10
37
 20
39.5
 11
51
 21
39.5
  0
LINE
  8
0
 10
51
 20
39.5
 11
51
 21
25.5
  0
LINE
  8
0
 10
51
 20
25.5
 11
37
 21
25.5
  0
LINE
  8
0
 10
126.726
 20
30.7715
 11
126.459
 21
30.8356
  0
LINE
  8
0
 10
126.459
 20
30.8356
 11
126.206
 21
30.9407
  0
LINE
  8
0
 10
126.206
 20
30.9407
 11
125.971
 21
31.0842
  0
LINE
  8
0
 10
125.971
 20
31.0842
 11
125.763
 21
31.2626
  0
LINE
  8
0
 10
125.763
 20
31.2626
 11
125.584
 21
31.4714
  0
LINE
  8
0
 10
125.584
 20
31.4714
 11
125.441
 21
31.7055
  0
LINE
  8
0
 10
125.441
 20
31.7055
 11
125.336
 21
31.9592
  0
LINE
  8
0
 10
125.336
 20
31.9592
 11
125.272
 21
32.2262
  0
LINE
  8
0
 10
125.272
 20
32.2262
 11
125.25
 21
32.5
  0
LINE
  8
0
 10
125.25
 20
32.5
 11
125.272
 21
32.7738
  0
LINE
  8
0
 10
125.272
 20
32.7738
 11
125.336
 21
33.0408
  0
LINE
  8
0
 10
125.336
 20
33.0408
 11
125.441
 21
33.2945
  0
LINE
  8
0
 10
125.441
 20
33.2945
 11
125.584
 21
33.5286
  0
LINE
  8
0
 10
125.584
 20
33.5286
 11
125.763
 21
33.7374
  0
LINE
  8
0
 10
125.763
 20
33.7374
 11
125.971
 21
33.9158
  0
LINE
  8
0
 10
125.971
 20
33.9158
 11
126.206
 21
34.0592
  0
LINE
  8
0
 10
126.206
 20
34.0592
 11
126.459
 21
34.1643
  0
LINE
  8
0
 10
126.459
 20
34.1643
 11
126.726
 21
34.2285
  0
LINE
  8
0
 10
126.726
 20
34.2285
 11
127
 21
34.25
  0
LINE
  8
0
 10
127
 20
34.25
 11
127.274
 21
34.2285
  0
LINE
  8
0
 10
127.274
 20
34.2285
 11
127.541
 21
34.1643
  0
LINE
  8
0
 10
127.541
 20
34.1643
 11
127.794
 21
34.0592
  0
LINE
  8
0
 10
127.794
 20
34.0592
 11
128.029
 21
33.9158
  0
LINE
  8
0
 10
128.029
 20
33.9158
 11
128.237
 21
33.7374
  0
LINE
  8
0
 10
128.237
 20
33.7374
 11
128.416
 21
33.5286
  0
LINE
  8
0
 10
128.416
 20
33.5286
 11
128.559
 21
33.2945
  0
LINE
  8
0
 10
128.559
 20
33.2945
 11
128.664
 21
33.0408
  0
LINE
  8
0
 10
128.664
 20
33.0408
 11
128.728
 21
32.7738
  0
LINE
  8
0
 10
128.728
 20
32.7738
 11
128.75
 21
32.5
  0
LINE
  8
0
 10
128.75
 20
32.5
 11
128.728
 21
32.2262
  0
LINE
  8
0
 10
128.728
 20
32.2262
 11
128.664
 21
31.9592
  0
LINE
  8
0
 10
128.664
 20
31.9592
 11
128.559
 21
31.7055
  0
LINE
  8
0
 10
128.559
 20
31.7055
 11
128.416
 21
31.4714
  0
LINE
  8
0
 10
128.416
 20
31.4714
 11
128.237
 21
31.2626
  0
LINE
  8
0
 10
128.237
 20
31.2626
 11
128.029
 21
31.0842
  0
LINE
  8
0
 10
128.029
 20
31.0842
 11
127.794
 21
30.9407
  0
LINE
  8
0
 10
127.794
 20
30.9407
 11
127.541
 21
30.8356
  0
LINE
  8
0
 10
127.541
 20
30.8356
 11
127.274
 21
30.7715
  0
LINE
  8
0
 10
127.274
 20
30.7715
 11
127
 21
30.75
  0
LINE
  8
0
 10
127
 20
30.75
 11
126.726
 21
30.7715
  0
LINE
  8
0
 10
286.118
 20
22.7654
 11
285.927
 21
22.8112
  0
LINE
  8
0
 10
285.927
 20
22.8112
 11
285.746
 21
22.8862
  0
LINE
  8
0
 10
285.746
 20
22.8862
 11
285.579
 21
22.9887
  0
LINE
  8
0
 10
285.579
 20
22.9887
 11
285.429
 21
23.1161
  0
LINE
  8
0
 10
285.429
 20
23.1161
 11
285.302
 21
23.2653
  0
LINE
  8
0
 10
285.302
 20
23.2653
 11
285.199
 21
23.4325
  0
LINE
  8
0
 10
285.199
 20
23.4325
 11
285.124
 21
23.6137
  0
LINE
  8
0
 10
285.124
 20
23.6137
 11
285.079
 21
23.8044
  0
LINE
  8
0
 10
285.079
 20
23.8044
 11
285.063
 21
24
  0
LINE
  8
0
 10
285.063
 20
24
 11
285.079
 21
24.1955
  0
LINE
  8
0
 10
285.079
 20
24.1955
 11
285.124
 21
24.3863
  0
LINE
  8
0
 10
285.124
 20
24.3863
 11
285.199
 21
24.5675
  0
LINE
  8
0
 10
285.199
 20
24.5675
 11
285.302
 21
24.7347
  0
LINE
  8
0
 10
285.302
 20
24.7347
 11
285.429
 21
24.8839
  0
LINE
  8
0
 10
285.429
 20
24.8839
 11
285.579
 21
25.0113
  0
LINE
  8
0
 10
285.579
 20
25.0113
 11
285.746
 21
25.1138
  0
LINE
  8
0
 10
285.746
 20
25.1138
 11
285.927
 21
25.1888
  0
LINE
  8
0
 10
285.927
 20
25.1888
 11
286.118
 21
25.2346
  0
LINE
  8
0
 10
286.118
 20
25.2346
 11
286.313
 21
25.25
  0
LINE
  8
0
 10
286.313
 20
25.25
 11
286.509
 21
25.2346
  0
LINE
  8
0
 10
286.509
 20
25.2346
 11
286.7
 21
25.1888
  0
LINE
  8
0
 10
286.7
 20
25.1888
 11
286.881
 21
25.1138
  0
LINE
  8
0
 10
286.881
 20
25.1138
 11
287.048
 21
25.0113
  0
LINE
  8
0
 10
287.048
 20
25.0113
 11
287.197
 21
24.8839
  0
LINE
  8
0
 10
287.197
 20
24.8839
 11
287.325
 21
24.7347
  0
LINE
  8
0
 10
287.325
 20
24.7347
 11
287.427
 21
24.5675
  0
LINE
  8
0
 10
287.427
 20
24.5675
 11
287.502
 21
24.3863
  0
LINE
  8
0
 10
287.502
 20
24.3863
 11
287.548
 21
24.1955
  0
LINE
  8
0
 10
287.548
 20
24.1955
 11
287.563
 21
24
  0
LINE
  8
0
 10
287.563
 20
24
 11
287.548
 21
23.8044
  0
LINE
  8
0
 10
287.548
 20
23.8044
 11
287.502
 21
23.6137
  0
LINE
  8
0
 10
287.502
 20
23.6137
 11
287.427
 21
23.4325
  0
LINE
  8
0
 10
287.427
 20
23.4325
 11
287.325
 21
23.2653
  0
LINE
  8
0
 10
287.325
 20
23.2653
 11
287.197
 21
23.1161
  0
LINE
  8
0
 10
287.197
 20
23.1161
 11
287.048
 21
22.9887
  0
LINE
  8
0
 10
287.048
 20
22.9887
 11
286.881
 21
22.8862
  0
LINE
  8
0
 10
286.881
 20
22.8862
 11
286.7
 21
22.8112
  0
LINE
  8
0
 10
286.7
 20
22.8112
 11
286.509
 21
22.7654
  0
LINE
  8
0
 10
286.509
 20
22.7654
 11
286.313
 21
22.75
  0
LINE
  8
0
 10
286.313
 20
22.75
 11
286.118
 21
22.7654
  0
LINE
  8
0
 10
145
 20
5.5
 11
145
 21
19.5
  0
LINE
  8
0
 10
145
 20
19.5
 11
159
 21
19.5
  0
LINE
  8
0
 10
159
 20
19.5
 11
159
 21
5.5
  0
LINE
  8
0
 10
159
 20
5.5
 11
145
 21
5.5
  0
LINE
  8
0
 10
185
 20
5.5
 11
185
 21
19.5
  0
LINE
  8
0
 10
185
 20
19.5
 11
199
 21
19.5
  0
LINE
  8
0
 10
199
 20
19.5
 11
199
 21
5.5
  0
LINE
  8
0
 10
199
 20
5.5
 11
185
 21
5.5
  0
LINE
  8
0
 10
77
 20
5.5
 11
77
 21
19.5
  0
LINE
  8
0
 10
77
 20
19.5
 11
91
 21
19.5
  0
LINE
  8
0
 10
91
 20
19.5
 11
91
 21
5.5
  0
LINE
  8
0
 10
91
 20
5.5
 11
77
 21
5.5
  0
LINE
  8
0
 10
37
 20
5.5
 11
37
 21
19.5
  0
LINE
  8
0
 10
37
 20
19.5
 11
51
 21
19.5
  0
LINE
  8
0
 10
51
 20
19.5
 11
51
 21
5.5
  0
LINE
  8
0
 10
51
 20
5.5
 11
37
 21
5.5
  0
LINE
  8
0
 10
126.726
 20
10.7715
 11
126.459
 21
10.8356
  0
LINE
  8
0
 10
126.459
 20
10.8356
 11
126.206
 21
10.9407
  0
LINE
  8
0
 10
126.206
 20
10.9407
 11
125.971
 21
11.0842
  0
LINE
  8
0
 10
125.971
 20
11.0842
 11
125.763
 21
11.2626
  0
LINE
  8
0
 10
125.763
 20
11.2626
 11
125.584
 21
11.4714
  0
LINE
  8
0
 10
125.584
 20
11.4714
 11
125.441
 21
11.7055
  0
LINE
  8
0
 10
125.441
 20
11.7055
 11
125.336
 21
11.9592
  0
LINE
  8
0
 10
125.336
 20
11.9592
 11
125.272
 21
12.2262
  0
LINE
  8
0
 10
125.272
 20
12.2262
 11
125.25
 21
12.5
  0
LINE
  8
0
 10
125.25
 20
12.5
 11
125.272
 21
12.7738
  0
LINE
  8
0
 10
125.272
 20
12.7738
 11
125.336
 21
13.0408
  0
LINE
  8
0
 10
125.336
 20
13.0408
 11
125.441
 21
13.2945
  0
LINE
  8
0
 10
125.441
 20
13.2945
 11
125.584
 21
13.5286
  0
LINE
  8
0
 10
125.584
 20
13.5286
 11
125.763
 21
13.7374
  0
LINE
  8
0
 10
125.763
 20
13.7374
 11
125.971
 21
13.9158
  0
LINE
  8
0
 10
125.971
 20
13.9158
 11
126.206
 21
14.0592
  0
LINE
  8
0
 10
126.206
 20
14.0592
 11
126.459
 21
14.1643
  0
LINE
  8
0
 10
126.459
 20
14.1643
 11
126.726
 21
14.2285
  0
LINE
  8
0
 10
126.726
 20
14.2285
 11
127
 21
14.25
  0
LINE
  8
0
 10
127
 20
14.25
 11
127.274
 21
14.2285
  0
LINE
  8
0
 10
127.274
 20
14.2285
 11
127.541
 21
14.1643
  0
LINE
  8
0
 10
127.541
 20
14.1643
 11
127.794
 21
14.0592
  0
LINE
  8
0
 10
127.794
 20
14.0592
 11
128.029
 21
13.9158
  0
LINE
  8
0
 10
128.029
 20
13.9158
 11
128.237
 21
13.7374
  0
LINE
  8
0
 10
128.237
 20
13.7374
 11
128.416
 21
13.5286
  0
LINE
  8
0
 10
128.416
 20
13.5286
 11
128.559
 21
13.2945
  0
LINE
  8
0
 10
128.559
 20
13.2945
 11
128.664
 21
13.0408
  0
LINE
  8
0
 10
128.664
 20
13.0408
 11
128.728
 21
12.7738
  0
LINE
  8
0
 10
128.728
 20
12.7738
 11
128.75
 21
12.5
  0
LINE
  8
0
 10
128.75
 20
12.5
 11
128.728
 21
12.2262
  0
LINE
  8
0
 10
128.728
 20
12.2262
 11
128.664
 21
11.9592
  0
LINE
  8
0
 10
128.664
 20
11.9592
 11
128.559
 21
11.7055
  0
LINE
  8
0
 10
128.559
 20
11.7055
 11
128.416
 21
11.4714
  0
LINE
  8
0
 10
128.416
 20
11.4714
 11
128.237
 21
11.2626
  0
LINE
  8
0
 10
128.237
 20
11.2626
 11
128.029
 21
11.0842
  0
LINE
  8
0
 10
128.029
 20
11.0842
 11
127.794
 21
10.9407
  0
LINE
  8
0
 10
127.794
 20
10.9407
 11
127.541
 21
10.8356
  0
LINE
  8
0
 10
127.541
 20
10.8356
 11
127.274
 21
10.7715
  0
LINE
  8
0
 10
127.274
 20
10.7715
 11
127
 21
10.75
  0
LINE
  8
0
 10
127
 20
10.75
 11
126.726
 21
10.7715
  0
LINE
  8
0
 10
286.118
 20
5.76538
 11
285.927
 21
5.81117
  0
LINE
  8
0
 10
285.927
 20
5.81117
 11
285.746
 21
5.88623
  0
LINE
  8
0
 10
285.746
 20
5.88623
 11
285.579
 21
5.98872
  0
LINE
  8
0
 10
285.579
 20
5.98872
 11
285.429
 21
6.1161
  0
LINE
  8
0
 10
285.429
 20
6.1161
 11
285.302
 21
6.26526
  0
LINE
  8
0
 10
285.302
 20
6.26526
 11
285.199
 21
6.43251
  0
LINE
  8
0
 10
285.199
 20
6.43251
 11
285.124
 21
6.61372
  0
LINE
  8
0
 10
285.124
 20
6.61372
 11
285.079
 21
6.80444
  0
LINE
  8
0
 10
285.079
 20
6.80444
 11
285.063
 21
7
  0
LINE
  8
0
 10
285.063
 20
7
 11
285.079
 21
7.19554
  0
LINE
  8
0
 10
285.079
 20
7.19554
 11
285.124
 21
7.38626
  0
LINE
  8
0
 10
285.124
 20
7.38626
 11
285.199
 21
7.56747
  0
LINE
  8
0
 10
285.199
 20
7.56747
 11
285.302
 21
7.73473
  0
LINE
  8
0
 10
285.302
 20
7.73473
 11
285.429
 21
7.88388
  0
LINE
  8
0
 10
285.429
 20
7.88388
 11
285.579
 21
8.01126
  0
LINE
  8
0
 10
285.579
 20
8.01126
 11
285.746
 21
8.11375
  0
LINE
  8
0
 10
285.746
 20
8.11375
 11
285.927
 21
8.18881
  0
LINE
  8
0
 10
285.927
 20
8.18881
 11
286.118
 21
8.2346
  0
LINE
  8
0
 10
286.118
 20
8.2346
 11
286.313
 21
8.25
  0
LINE
  8
0
 10
286.313
 20
8.25
 11
286.509
 21
8.2346
  0
LINE
  8
0
 10
286.509
 20
8.2346
 11
286.7
 21
8.18881
  0
LINE
  8
0
 10
286.7
 20
8.18881
 11
286.881
 21
8.11375
  0
LINE
  8
0
 10
286.881
 20
8.11375
 11
287.048
 21
8.01126
  0
LINE
  8
0
 10
287.048
 20
8.01126
 11
287.197
 21
7.88388
  0
LINE
  8
0
 10
287.197
 20
7.88388
 11
287.325
 21
7.73473
  0
LINE
  8
0
 10
287.325
 20
7.73473
 11
287.427
 21
7.56747
  0
LINE
  8
0
 10
287.427
 20
7.56747
 11
287.502
 21
7.38626
  0
LINE
  8
0
 10
287.502
 20
7.38626
 11
287.548
 21
7.19554
  0
LINE
  8
0
 10
287.548
 20
7.19554
 11
287.563
 21
7
  0
LINE
  8
0
 10
287.563
 20
7
 11
287.548
 21
6.80444
  0
LINE
  8
0
 10
287.548
 20
6.80444
 11
287.502
 21
6.61372
  0
LINE
  8
0
 10
287.502
 20
6.61372
 11
287.427
 21
6.43251
  0
LINE
  8
0
 10
287.427
 20
6.43251
 11
287.325
 21
6.26526
  0
LINE
  8
0
 10
287.325
 20
6.26526
 11
287.197
 21
6.1161
  0
LINE
  8
0
 10
287.197
 20
6.1161
 11
287.048
 21
5.98872
  0
LINE
  8
0
 10
287.048
 20
5.98872
 11
286.881
 21
5.88623
  0
LINE
  8
0
 10
286.881
 20
5.88623
 11
286.7
 21
5.81117
  0
LINE
  8
0
 10
286.7
 20
5.81117
 11
286.509
 21
5.76538
  0
LINE
  8
0
 10
286.509
 20
5.76538
 11
286.313
 21
5.75
  0
LINE
  8
0
 10
286.313
 20
5.75
 11
286.118
 21
5.76538
  0
LINE
  8
0
 10
5.30444
 20
4.26538
 11
5.11372
 21
4.31117
  0
LINE
  8
0
 10
5.11372
 20
4.31117
 11
4.93251
 21
4.38623
  0
LINE
  8
0
 10
4.93251
 20
4.38623
 11
4.76526
 21
4.48872
  0
LINE
  8
0
 10
4.76526
 20
4.48872
 11
4.6161
 21
4.6161
  0
LINE
  8
0
 10
4.6161
 20
4.6161
 11
4.48872
 21
4.76526
  0
LINE
  8
0
 10
4.48872
 20
4.76526
 11
4.38623
 21
4.93251
  0
LINE
  8
0
 10
4.38623
 20
4.93251
 11
4.31117
 21
5.11372
  0
LINE
  8
0
 10
4.31117
 20
5.11372
 11
4.26538
 21
5.30444
  0
LINE
  8
0
 10
4.26538
 20
5.30444
 11
4.25
 21
5.5
  0
LINE
  8
0
 10
4.25
 20
5.5
 11
4.26538
 21
5.69554
  0
LINE
  8
0
 10
4.26538
 20
5.69554
 11
4.31117
 21
5.88626
  0
LINE
  8
0
 10
4.31117
 20
5.88626
 11
4.38623
 21
6.06747
  0
LINE
  8
0
 10
4.38623
 20
6.06747
 11
4.48872
 21
6.23473
  0
LINE
  8
0
 10
4.48872
 20
6.23473
 11
4.6161
 21
6.38388
  0
LINE
  8
0
 10
4.6161
 20
6.38388
 11
4.76526
 21
6.51126
  0
LINE
  8
0
 10
4.76526
 20
6.51126
 11
4.93251
 21
6.61375
  0
LINE
  8
0
 10
4.93251
 20
6.61375
 11
5.11372
 21
6.68881
  0
LINE
  8
0
 10
5.11372
 20
6.68881
 11
5.30444
 21
6.7346
  0
LINE
  8
0
 10
5.30444
 20
6.7346
 11
5.5
 21
6.75
  0
LINE
  8
0
 10
5.5
 20
6.75
 11
5.69554
 21
6.7346
  0
LINE
  8
0
 10
5.69554
 20
6.7346
 11
5.88626
 21
6.68881
  0
LINE
  8
0
 10
5.88626
 20
6.68881
 11
6.06747
 21
6.61375
  0
LINE
  8
0
 10
6.06747
 20
6.61375
 11
6.23473
 21
6.51126
  0
LINE
  8
0
 10
6.23473
 20
6.51126
 11
6.38388
 21
6.38388
  0
LINE
  8
0
 10
6.38388
 20
6.38388
 11
6.51126
 21
6.23473
  0
LINE
  8
0
 10
6.51126
 20
6.23473
 11
6.61375
 21
6.06747
  0
LINE
  8
0
 10
6.61375
 20
6.06747
 11
6.68881
 21
5.88626
  0
LINE
  8
0
 10
6.68881
 20
5.88626
 11
6.7346
 21
5.69554
  0
LINE
  8
0
 10
6.7346
 20
5.69554
 11
6.75
 21
5.5
  0
LINE
  8
0
 10
6.75
 20
5.5
 11
6.7346
 21
5.30444
  0
LINE
  8
0
 10
6.7346
 20
5.30444
 11
6.68881
 21
5.11372
  0
LINE
  8
0
 10
6.68881
 20
5.11372
 11
6.61375
 21
4.93251
  0
LINE
  8
0
 10
6.61375
 20
4.93251
 11
6.51126
 21
4.76526
  0
LINE
  8
0
 10
6.51126
 20
4.76526
 11
6.38388
 21
4.6161
  0
LINE
  8
0
 10
6.38388
 20
4.6161
 11
6.23473
 21
4.48872
  0
LINE
  8
0
 10
6.23473
 20
4.48872
 11
6.06747
 21
4.38623
  0
LINE
  8
0
 10
6.06747
 20
4.38623
 11
5.88626
 21
4.31117
  0
LINE
  8
0
 10
5.88626
 20
4.31117
 11
5.69554
 21
4.26538
  0
LINE
  8
0
 10
5.69554
 20
4.26538
 11
5.5
 21
4.25
  0
LINE
  8
0
 10
5.5
 20
4.25
 11
5.30444
 21
4.26538
  0
LINE
  8
0
 10
33.8044
 20
3.86539
 11
33.6137
 21
3.91118
  0
LINE
  8
0
 10
33.6137
 20
3.91118
 11
33.4325
 21
3.98624
  0
LINE
  8
0
 10
33.4325
 20
3.98624
 11
33.2653
 21
4.08871
  0
LINE
  8
0
 10
33.2653
 20
4.08871
 11
33.1161
 21
4.21611
  0
LINE
  8
0
 10
33.1161
 20
4.21611
 11
32.9887
 21
4.36526
  0
LINE
  8
0
 10
32.9887
 20
4.36526
 11
32.8862
 21
4.5325
  0
LINE
  8
0
 10
32.8862
 20
4.5325
 11
32.8112
 21
4.71371
  0
LINE
  8
0
 10
32.8112
 20
4.71371
 11
32.7654
 21
4.90445
  0
LINE
  8
0
 10
32.7654
 20
4.90445
 11
32.75
 21
5.09999
  0
LINE
  8
0
 10
32.75
 20
5.09999
 11
32.7654
 21
5.29553
  0
LINE
  8
0
 10
32.7654
 20
5.29553
 11
32.8112
 21
5.48627
  0
LINE
  8
0
 10
32.8112
 20
5.48627
 11
32.8862
 21
5.66748
  0
LINE
  8
0
 10
32.8862
 20
5.66748
 11
32.9887
 21
5.83472
  0
LINE
  8
0
 10
32.9887
 20
5.83472
 11
33.1161
 21
5.98387
  0
LINE
  8
0
 10
33.1161
 20
5.98387
 11
33.2653
 21
6.11127
  0
LINE
  8
0
 10
33.2653
 20
6.11127
 11
33.4325
 21
6.21375
  0
LINE
  8
0
 10
33.4325
 20
6.21375
 11
33.6137
 21
6.28882
  0
LINE
  8
0
 10
33.6137
 20
6.28882
 11
33.8044
 21
6.33461
  0
LINE
  8
0
 10
33.8044
 20
6.33461
 11
34
 21
6.34999
  0
LINE
  8
0
 10
34
 20
6.34999
 11
34.1955
 21
6.33461
  0
LINE
  8
0
 10
34.1955
 20
6.33461
 11
34.3863
 21
6.28882
  0
LINE
  8
0
 10
34.3863
 20
6.28882
 11
34.5675
 21
6.21375
  0
LINE
  8
0
 10
34.5675
 20
6.21375
 11
34.7347
 21
6.11127
  0
LINE
  8
0
 10
34.7347
 20
6.11127
 11
34.8839
 21
5.98387
  0
LINE
  8
0
 10
34.8839
 20
5.98387
 11
35.0113
 21
5.83472
  0
LINE
  8
0
 10
35.0113
 20
5.83472
 11
35.1138
 21
5.66748
  0
LINE
  8
0
 10
35.1138
 20
5.66748
 11
35.1888
 21
5.48627
  0
LINE
  8
0
 10
35.1888
 20
5.48627
 11
35.2346
 21
5.29553
  0
LINE
  8
0
 10
35.2346
 20
5.29553
 11
35.25
 21
5.09999
  0
LINE
  8
0
 10
35.25
 20
5.09999
 11
35.2346
 21
4.90445
  0
LINE
  8
0
 10
35.2346
 20
4.90445
 11
35.1888
 21
4.71371
  0
LINE
  8
0
 10
35.1888
 20
4.71371
 11
35.1138
 21
4.5325
  0
LINE
  8
0
 10
35.1138
 20
4.5325
 11
35.0113
 21
4.36526
  0
LINE
  8
0
 10
35.0113
 20
4.36526
 11
34.8839
 21
4.21611
  0
LINE
  8
0
 10
34.8839
 20
4.21611
 11
34.7347
 21
4.08871
  0
LINE
  8
0
 10
34.7347
 20
4.08871
 11
34.5675
 21
3.98624
  0
LINE
  8
0
 10
34.5675
 20
3.98624
 11
34.3863
 21
3.91118
  0
LINE
  8
0
 10
34.3863
 20
3.91118
 11
34.1955
 21
3.86539
  0
LINE
  8
0
 10
34.1955
 20
3.86539
 11
34
 21
3.84999
  0
LINE
  8
0
 10
34
 20
3.84999
 11
33.8044
 21
3.86539
  0
LINE
  8
0
 10
115.504
 20
3.86539
 11
115.314
 21
3.91118
  0
LINE
  8
0
 10
115.314
 20
3.91118
 11
115.133
 21
3.98624
  0
LINE
  8
0
 10
115.133
 20
3.98624
 11
114.965
 21
4.08871
  0
LINE
  8
0
 10
114.965
 20
4.08871
 11
114.816
 21
4.21611
  0
LINE
  8
0
 10
114.816
 20
4.21611
 11
114.689
 21
4.36526
  0
LINE
  8
0
 10
114.689
 20
4.36526
 11
114.586
 21
4.5325
  0
LINE
  8
0
 10
114.586
 20
4.5325
 11
114.511
 21
4.71371
  0
LINE
  8
0
 10
114.511
 20
4.71371
 11
114.465
 21
4.90445
  0
LINE
  8
0
 10
114.465
 20
4.90445
 11
114.45
 21
5.09999
  0
LINE
  8
0
 10
114.45
 20
5.09999
 11
114.465
 21
5.29553
  0
LINE
  8
0
 10
114.465
 20
5.29553
 11
114.511
 21
5.48627
  0
LINE
  8
0
 10
114.511
 20
5.48627
 11
114.586
 21
5.66748
  0
LINE
  8
0
 10
114.586
 20
5.66748
 11
114.689
 21
5.83472
  0
LINE
  8
0
 10
114.689
 20
5.83472
 11
114.816
 21
5.98387
  0
LINE
  8
0
 10
114.816
 20
5.98387
 11
114.965
 21
6.11127
  0
LINE
  8
0
 10
114.965
 20
6.11127
 11
115.133
 21
6.21375
  0
LINE
  8
0
 10
115.133
 20
6.21375
 11
115.314
 21
6.28882
  0
LINE
  8
0
 10
115.314
 20
6.28882
 11
115.504
 21
6.33461
  0
LINE
  8
0
 10
115.504
 20
6.33461
 11
115.7
 21
6.34999
  0
LINE
  8
0
 10
115.7
 20
6.34999
 11
115.896
 21
6.33461
  0
LINE
  8
0
 10
115.896
 20
6.33461
 11
116.086
 21
6.28882
  0
LINE
  8
0
 10
116.086
 20
6.28882
 11
116.267
 21
6.21375
  0
LINE
  8
0
 10
116.267
 20
6.21375
 11
116.435
 21
6.11127
  0
LINE
  8
0
 10
116.435
 20
6.11127
 11
116.584
 21
5.98387
  0
LINE
  8
0
 10
116.584
 20
5.98387
 11
116.711
 21
5.83472
  0
LINE
  8
0
 10
116.711
 20
5.83472
 11
116.814
 21
5.66748
  0
LINE
  8
0
 10
116.814
 20
5.66748
 11
116.889
 21
5.48627
  0
LINE
  8
0
 10
116.889
 20
5.48627
 11
116.935
 21
5.29553
  0
LINE
  8
0
 10
116.935
 20
5.29553
 11
116.95
 21
5.09999
  0
LINE
  8
0
 10
116.95
 20
5.09999
 11
116.935
 21
4.90445
  0
LINE
  8
0
 10
116.935
 20
4.90445
 11
116.889
 21
4.71371
  0
LINE
  8
0
 10
116.889
 20
4.71371
 11
116.814
 21
4.5325
  0
LINE
  8
0
 10
116.814
 20
4.5325
 11
116.711
 21
4.36526
  0
LINE
  8
0
 10
116.711
 20
4.36526
 11
116.584
 21
4.21611
  0
LINE
  8
0
 10
116.584
 20
4.21611
 11
116.435
 21
4.08871
  0
LINE
  8
0
 10
116.435
 20
4.08871
 11
116.267
 21
3.98624
  0
LINE
  8
0
 10
116.267
 20
3.98624
 11
116.086
 21
3.91118
  0
LINE
  8
0
 10
116.086
 20
3.91118
 11
115.896
 21
3.86539
  0
LINE
  8
0
 10
115.896
 20
3.86539
 11
115.7
 21
3.84999
  0
LINE
  8
0
 10
115.7
 20
3.84999
 11
115.504
 21
3.86539
  0
LINE
  8
0
 10
141.804
 20
3.86539
 11
141.614
 21
3.91118
  0
LINE
  8
0
 10
141.614
 20
3.91118
 11
141.433
 21
3.98624
  0
LINE
  8
0
 10
141.433
 20
3.98624
 11
141.265
 21
4.08871
  0
LINE
  8
0
 10
141.265
 20
4.08871
 11
141.116
 21
4.21611
  0
LINE
  8
0
 10
141.116
 20
4.21611
 11
140.989
 21
4.36526
  0
LINE
  8
0
 10
140.989
 20
4.36526
 11
140.886
 21
4.5325
  0
LINE
  8
0
 10
140.886
 20
4.5325
 11
140.811
 21
4.71371
  0
LINE
  8
0
 10
140.811
 20
4.71371
 11
140.765
 21
4.90445
  0
LINE
  8
0
 10
140.765
 20
4.90445
 11
140.75
 21
5.09999
  0
LINE
  8
0
 10
140.75
 20
5.09999
 11
140.765
 21
5.29553
  0
LINE
  8
0
 10
140.765
 20
5.29553
 11
140.811
 21
5.48627
  0
LINE
  8
0
 10
140.811
 20
5.48627
 11
140.886
 21
5.66748
  0
LINE
  8
0
 10
140.886
 20
5.66748
 11
140.989
 21
5.83472
  0
LINE
  8
0
 10
140.989
 20
5.83472
 11
141.116
 21
5.98387
  0
LINE
  8
0
 10
141.116
 20
5.98387
 11
141.265
 21
6.11127
  0
LINE
  8
0
 10
141.265
 20
6.11127
 11
141.433
 21
6.21375
  0
LINE
  8
0
 10
141.433
 20
6.21375
 11
141.614
 21
6.28882
  0
LINE
  8
0
 10
141.614
 20
6.28882
 11
141.804
 21
6.33461
  0
LINE
  8
0
 10
141.804
 20
6.33461
 11
142
 21
6.34999
  0
LINE
  8
0
 10
142
 20
6.34999
 11
142.196
 21
6.33461
  0
LINE
  8
0
 10
142.196
 20
6.33461
 11
142.386
 21
6.28882
  0
LINE
  8
0
 10
142.386
 20
6.28882
 11
142.567
 21
6.21375
  0
LINE
  8
0
 10
142.567
 20
6.21375
 11
142.735
 21
6.11127
  0
LINE
  8
0
 10
142.735
 20
6.11127
 11
142.884
 21
5.98387
  0
LINE
  8
0
 10
142.884
 20
5.98387
 11
143.011
 21
5.83472
  0
LINE
  8
0
 10
143.011
 20
5.83472
 11
143.114
 21
5.66748
  0
LINE
  8
0
 10
143.114
 20
5.66748
 11
143.189
 21
5.48627
  0
LINE
  8
0
 10
143.189
 20
5.48627
 11
143.235
 21
5.29553
  0
LINE
  8
0
 10
143.235
 20
5.29553
 11
143.25
 21
5.09999
  0
LINE
  8
0
 10
143.25
 20
5.09999
 11
143.235
 21
4.90445
  0
LINE
  8
0
 10
143.235
 20
4.90445
 11
143.189
 21
4.71371
  0
LINE
  8
0
 10
143.189
 20
4.71371
 11
143.114
 21
4.5325
  0
LINE
  8
0
 10
143.114
 20
4.5325
 11
143.011
 21
4.36526
  0
LINE
  8
0
 10
143.011
 20
4.36526
 11
142.884
 21
4.21611
  0
LINE
  8
0
 10
142.884
 20
4.21611
 11
142.735
 21
4.08871
  0
LINE
  8
0
 10
142.735
 20
4.08871
 11
142.567
 21
3.98624
  0
LINE
  8
0
 10
142.567
 20
3.98624
 11
142.386
 21
3.91118
  0
LINE
  8
0
 10
142.386
 20
3.91118
 11
142.196
 21
3.86539
  0
LINE
  8
0
 10
142.196
 20
3.86539
 11
142
 21
3.84999
  0
LINE
  8
0
 10
142
 20
3.84999
 11
141.804
 21
3.86539
  0
LINE
  8
0
 10
241.504
 20
3.86539
 11
241.314
 21
3.91118
  0
LINE
  8
0
 10
241.314
 20
3.91118
 11
241.133
 21
3.98624
  0
LINE
  8
0
 10
241.133
 20
3.98624
 11
240.965
 21
4.08871
  0
LINE
  8
0
 10
240.965
 20
4.08871
 11
240.816
 21
4.21611
  0
LINE
  8
0
 10
240.816
 20
4.21611
 11
240.689
 21
4.36526
  0
LINE
  8
0
 10
240.689
 20
4.36526
 11
240.586
 21
4.5325
  0
LINE
  8
0
 10
240.586
 20
4.5325
 11
240.511
 21
4.71371
  0
LINE
  8
0
 10
240.511
 20
4.71371
 11
240.465
 21
4.90445
  0
LINE
  8
0
 10
240.465
 20
4.90445
 11
240.45
 21
5.09999
  0
LINE
  8
0
 10
240.45
 20
5.09999
 11
240.465
 21
5.29553
  0
LINE
  8
0
 10
240.465
 20
5.29553
 11
240.511
 21
5.48627
  0
LINE
  8
0
 10
240.511
 20
5.48627
 11
240.586
 21
5.66748
  0
LINE
  8
0
 10
240.586
 20
5.66748
 11
240.689
 21
5.83472
  0
LINE
  8
0
 10
240.689
 20
5.83472
 11
240.816
 21
5.98387
  0
LINE
  8
0
 10
240.816
 20
5.98387
 11
240.965
 21
6.11127
  0
LINE
  8
0
 10
240.965
 20
6.11127
 11
241.133
 21
6.21375
  0
LINE
  8
0
 10
241.133
 20
6.21375
 11
241.314
 21
6.28882
  0
LINE
  8
0
 10
241.314
 20
6.28882
 11
241.504
 21
6.33461
  0
LINE
  8
0
 10
241.504
 20
6.33461
 11
241.7
 21
6.34999
  0
LINE
  8
0
 10
241.7
 20
6.34999
 11
241.896
 21
6.33461
  0
LINE
  8
0
 10
241.896
 20
6.33461
 11
242.086
 21
6.28882
  0
LINE
  8
0
 10
242.086
 20
6.28882
 11
242.267
 21
6.21375
  0
LINE
  8
0
 10
242.267
 20
6.21375
 11
242.435
 21
6.11127
  0
LINE
  8
0
 10
242.435
 20
6.11127
 11
242.584
 21
5.98387
  0
LINE
  8
0
 10
242.584
 20
5.98387
 11
242.711
 21
5.83472
  0
LINE
  8
0
 10
242.711
 20
5.83472
 11
242.814
 21
5.66748
  0
LINE
  8
0
 10
242.814
 20
5.66748
 11
242.889
 21
5.48627
  0
LINE
  8
0
 10
242.889
 20
5.48627
 11
242.935
 21
5.29553
  0
LINE
  8
0
 10
242.935
 20
5.29553
 11
242.95
 21
5.09999
  0
LINE
  8
0
 10
242.95
 20
5.09999
 11
242.935
 21
4.90445
  0
LINE
  8
0
 10
242.935
 20
4.90445
 11
242.889
 21
4.71371
  0
LINE
  8
0
 10
242.889
 20
4.71371
 11
242.814
 21
4.5325
  0
LINE
  8
0
 10
242.814
 20
4.5325
 11
242.711
 21
4.36526
  0
LINE
  8
0
 10
242.711
 20
4.36526
 11
242.584
 21
4.21611
  0
LINE
  8
0
 10
242.584
 20
4.21611
 11
242.435
 21
4.08871
  0
LINE
  8
0
 10
242.435
 20
4.08871
 11
242.267
 21
3.98624
  0
LINE
  8
0
 10
242.267
 20
3.98624
 11
242.086
 21
3.91118
  0
LINE
  8
0
 10
242.086
 20
3.91118
 11
241.896
 21
3.86539
  0
LINE
  8
0
 10
241.896
 20
3.86539
 11
241.7
 21
3.84999
  0
LINE
  8
0
 10
241.7
 20
3.84999
 11
241.504
 21
3.86539
  0
ENDSEC
  0
SECTION
  2
OBJECTS
  0
DICTIONARY
  0
ENDSEC
  0
EOF
