  0
SECTION
  2
BLOCKS
  0
ENDSEC
  0
SECTION
  2
ENTITIES
  0
LINE
  8
0
 10
264.8
 20
44.8
 11
0
 21
44.8
  0
LINE
  8
0
 10
0
 20
44.8
 11
0
 21
0.199997
  0
LINE
  8
0
 10
0
 20
0.199997
 11
264.8
 21
0.199997
  0
LINE
  8
0
 10
264.8
 20
0.199997
 11
264.8
 21
44.8
  0
LINE
  8
0
 10
244.104
 20
40.7654
 11
243.914
 21
40.8112
  0
LINE
  8
0
 10
243.914
 20
40.8112
 11
243.732
 21
40.8862
  0
LINE
  8
0
 10
243.732
 20
40.8862
 11
243.565
 21
40.9887
  0
LINE
  8
0
 10
243.565
 20
40.9887
 11
243.416
 21
41.1161
  0
LINE
  8
0
 10
243.416
 20
41.1161
 11
243.289
 21
41.2653
  0
LINE
  8
0
 10
243.289
 20
41.2653
 11
243.186
 21
41.4325
  0
LINE
  8
0
 10
243.186
 20
41.4325
 11
243.111
 21
41.6137
  0
LINE
  8
0
 10
243.111
 20
41.6137
 11
243.065
 21
41.8044
  0
LINE
  8
0
 10
243.065
 20
41.8044
 11
243.05
 21
42
  0
LINE
  8
0
 10
243.05
 20
42
 11
243.065
 21
42.1955
  0
LINE
  8
0
 10
243.065
 20
42.1955
 11
243.111
 21
42.3863
  0
LINE
  8
0
 10
243.111
 20
42.3863
 11
243.186
 21
42.5675
  0
LINE
  8
0
 10
243.186
 20
42.5675
 11
243.289
 21
42.7347
  0
LINE
  8
0
 10
243.289
 20
42.7347
 11
243.416
 21
42.8839
  0
LINE
  8
0
 10
243.416
 20
42.8839
 11
243.565
 21
43.0113
  0
LINE
  8
0
 10
243.565
 20
43.0113
 11
243.732
 21
43.1138
  0
LINE
  8
0
 10
243.732
 20
43.1138
 11
243.914
 21
43.1888
  0
LINE
  8
0
 10
243.914
 20
43.1888
 11
244.104
 21
43.2346
  0
LINE
  8
0
 10
244.104
 20
43.2346
 11
244.3
 21
43.25
  0
LINE
  8
0
 10
244.3
 20
43.25
 11
244.496
 21
43.2346
  0
LINE
  8
0
 10
244.496
 20
43.2346
 11
244.686
 21
43.1888
  0
LINE
  8
0
 10
244.686
 20
43.1888
 11
244.867
 21
43.1138
  0
LINE
  8
0
 10
244.867
 20
43.1138
 11
245.035
 21
43.0113
  0
LINE
  8
0
 10
245.035
 20
43.0113
 11
245.184
 21
42.8839
  0
LINE
  8
0
 10
245.184
 20
42.8839
 11
245.311
 21
42.7347
  0
LINE
  8
0
 10
245.311
 20
42.7347
 11
245.414
 21
42.5675
  0
LINE
  8
0
 10
245.414
 20
42.5675
 11
245.489
 21
42.3863
  0
LINE
  8
0
 10
245.489
 20
42.3863
 11
245.535
 21
42.1955
  0
LINE
  8
0
 10
245.535
 20
42.1955
 11
245.55
 21
42
  0
LINE
  8
0
 10
245.55
 20
42
 11
245.535
 21
41.8044
  0
LINE
  8
0
 10
245.535
 20
41.8044
 11
245.489
 21
41.6137
  0
LINE
  8
0
 10
245.489
 20
41.6137
 11
245.414
 21
41.4325
  0
LINE
  8
0
 10
245.414
 20
41.4325
 11
245.311
 21
41.2653
  0
LINE
  8
0
 10
245.311
 20
41.2653
 11
245.184
 21
41.1161
  0
LINE
  8
0
 10
245.184
 20
41.1161
 11
245.035
 21
40.9887
  0
LINE
  8
0
 10
245.035
 20
40.9887
 11
244.867
 21
40.8862
  0
LINE
  8
0
 10
244.867
 20
40.8862
 11
244.686
 21
40.8112
  0
LINE
  8
0
 10
244.686
 20
40.8112
 11
244.496
 21
40.7654
  0
LINE
  8
0
 10
244.496
 20
40.7654
 11
244.3
 21
40.75
  0
LINE
  8
0
 10
244.3
 20
40.75
 11
244.104
 21
40.7654
  0
LINE
  8
0
 10
126.804
 20
40.7654
 11
126.614
 21
40.8112
  0
LINE
  8
0
 10
126.614
 20
40.8112
 11
126.433
 21
40.8862
  0
LINE
  8
0
 10
126.433
 20
40.8862
 11
126.265
 21
40.9887
  0
LINE
  8
0
 10
126.265
 20
40.9887
 11
126.116
 21
41.1161
  0
LINE
  8
0
 10
126.116
 20
41.1161
 11
125.989
 21
41.2653
  0
LINE
  8
0
 10
125.989
 20
41.2653
 11
125.886
 21
41.4325
  0
LINE
  8
0
 10
125.886
 20
41.4325
 11
125.811
 21
41.6137
  0
LINE
  8
0
 10
125.811
 20
41.6137
 11
125.765
 21
41.8044
  0
LINE
  8
0
 10
125.765
 20
41.8044
 11
125.75
 21
42
  0
LINE
  8
0
 10
125.75
 20
42
 11
125.765
 21
42.1955
  0
LINE
  8
0
 10
125.765
 20
42.1955
 11
125.811
 21
42.3863
  0
LINE
  8
0
 10
125.811
 20
42.3863
 11
125.886
 21
42.5675
  0
LINE
  8
0
 10
125.886
 20
42.5675
 11
125.989
 21
42.7347
  0
LINE
  8
0
 10
125.989
 20
42.7347
 11
126.116
 21
42.8839
  0
LINE
  8
0
 10
126.116
 20
42.8839
 11
126.265
 21
43.0113
  0
LINE
  8
0
 10
126.265
 20
43.0113
 11
126.433
 21
43.1138
  0
LINE
  8
0
 10
126.433
 20
43.1138
 11
126.614
 21
43.1888
  0
LINE
  8
0
 10
126.614
 20
43.1888
 11
126.804
 21
43.2346
  0
LINE
  8
0
 10
126.804
 20
43.2346
 11
127
 21
43.25
  0
LINE
  8
0
 10
127
 20
43.25
 11
127.196
 21
43.2346
  0
LINE
  8
0
 10
127.196
 20
43.2346
 11
127.386
 21
43.1888
  0
LINE
  8
0
 10
127.386
 20
43.1888
 11
127.567
 21
43.1138
  0
LINE
  8
0
 10
127.567
 20
43.1138
 11
127.735
 21
43.0113
  0
LINE
  8
0
 10
127.735
 20
43.0113
 11
127.884
 21
42.8839
  0
LINE
  8
0
 10
127.884
 20
42.8839
 11
128.011
 21
42.7347
  0
LINE
  8
0
 10
128.011
 20
42.7347
 11
128.114
 21
42.5675
  0
LINE
  8
0
 10
128.114
 20
42.5675
 11
128.189
 21
42.3863
  0
LINE
  8
0
 10
128.189
 20
42.3863
 11
128.235
 21
42.1955
  0
LINE
  8
0
 10
128.235
 20
42.1955
 11
128.25
 21
42
  0
LINE
  8
0
 10
128.25
 20
42
 11
128.235
 21
41.8044
  0
LINE
  8
0
 10
128.235
 20
41.8044
 11
128.189
 21
41.6137
  0
LINE
  8
0
 10
128.189
 20
41.6137
 11
128.114
 21
41.4325
  0
LINE
  8
0
 10
128.114
 20
41.4325
 11
128.011
 21
41.2653
  0
LINE
  8
0
 10
128.011
 20
41.2653
 11
127.884
 21
41.1161
  0
LINE
  8
0
 10
127.884
 20
41.1161
 11
127.735
 21
40.9887
  0
LINE
  8
0
 10
127.735
 20
40.9887
 11
127.567
 21
40.8862
  0
LINE
  8
0
 10
127.567
 20
40.8862
 11
127.386
 21
40.8112
  0
LINE
  8
0
 10
127.386
 20
40.8112
 11
127.196
 21
40.7654
  0
LINE
  8
0
 10
127.196
 20
40.7654
 11
127
 21
40.75
  0
LINE
  8
0
 10
127
 20
40.75
 11
126.804
 21
40.7654
  0
LINE
  8
0
 10
16.3044
 20
40.7654
 11
16.1137
 21
40.8112
  0
LINE
  8
0
 10
16.1137
 20
40.8112
 11
15.9325
 21
40.8862
  0
LINE
  8
0
 10
15.9325
 20
40.8862
 11
15.7653
 21
40.9887
  0
LINE
  8
0
 10
15.7653
 20
40.9887
 11
15.6161
 21
41.1161
  0
LINE
  8
0
 10
15.6161
 20
41.1161
 11
15.4887
 21
41.2653
  0
LINE
  8
0
 10
15.4887
 20
41.2653
 11
15.3862
 21
41.4325
  0
LINE
  8
0
 10
15.3862
 20
41.4325
 11
15.3112
 21
41.6137
  0
LINE
  8
0
 10
15.3112
 20
41.6137
 11
15.2654
 21
41.8044
  0
LINE
  8
0
 10
15.2654
 20
41.8044
 11
15.25
 21
42
  0
LINE
  8
0
 10
15.25
 20
42
 11
15.2654
 21
42.1955
  0
LINE
  8
0
 10
15.2654
 20
42.1955
 11
15.3112
 21
42.3863
  0
LINE
  8
0
 10
15.3112
 20
42.3863
 11
15.3862
 21
42.5675
  0
LINE
  8
0
 10
15.3862
 20
42.5675
 11
15.4887
 21
42.7347
  0
LINE
  8
0
 10
15.4887
 20
42.7347
 11
15.6161
 21
42.8839
  0
LINE
  8
0
 10
15.6161
 20
42.8839
 11
15.7653
 21
43.0113
  0
LINE
  8
0
 10
15.7653
 20
43.0113
 11
15.9325
 21
43.1138
  0
LINE
  8
0
 10
15.9325
 20
43.1138
 11
16.1137
 21
43.1888
  0
LINE
  8
0
 10
16.1137
 20
43.1888
 11
16.3044
 21
43.2346
  0
LINE
  8
0
 10
16.3044
 20
43.2346
 11
16.5
 21
43.25
  0
LINE
  8
0
 10
16.5
 20
43.25
 11
16.6955
 21
43.2346
  0
LINE
  8
0
 10
16.6955
 20
43.2346
 11
16.8863
 21
43.1888
  0
LINE
  8
0
 10
16.8863
 20
43.1888
 11
17.0675
 21
43.1138
  0
LINE
  8
0
 10
17.0675
 20
43.1138
 11
17.2347
 21
43.0113
  0
LINE
  8
0
 10
17.2347
 20
43.0113
 11
17.3839
 21
42.8839
  0
LINE
  8
0
 10
17.3839
 20
42.8839
 11
17.5113
 21
42.7347
  0
LINE
  8
0
 10
17.5113
 20
42.7347
 11
17.6138
 21
42.5675
  0
LINE
  8
0
 10
17.6138
 20
42.5675
 11
17.6888
 21
42.3863
  0
LINE
  8
0
 10
17.6888
 20
42.3863
 11
17.7346
 21
42.1955
  0
LINE
  8
0
 10
17.7346
 20
42.1955
 11
17.75
 21
42
  0
LINE
  8
0
 10
17.75
 20
42
 11
17.7346
 21
41.8044
  0
LINE
  8
0
 10
17.7346
 20
41.8044
 11
17.6888
 21
41.6137
  0
LINE
  8
0
 10
17.6888
 20
41.6137
 11
17.6138
 21
41.4325
  0
LINE
  8
0
 10
17.6138
 20
41.4325
 11
17.5113
 21
41.2653
  0
LINE
  8
0
 10
17.5113
 20
41.2653
 11
17.3839
 21
41.1161
  0
LINE
  8
0
 10
17.3839
 20
41.1161
 11
17.2347
 21
40.9887
  0
LINE
  8
0
 10
17.2347
 20
40.9887
 11
17.0675
 21
40.8862
  0
LINE
  8
0
 10
17.0675
 20
40.8862
 11
16.8863
 21
40.8112
  0
LINE
  8
0
 10
16.8863
 20
40.8112
 11
16.6955
 21
40.7654
  0
LINE
  8
0
 10
16.6955
 20
40.7654
 11
16.5
 21
40.75
  0
LINE
  8
0
 10
16.5
 20
40.75
 11
16.3044
 21
40.7654
  0
LINE
  8
0
 10
203
 20
24.5
 11
203
 21
38.5
  0
LINE
  8
0
 10
203
 20
38.5
 11
217
 21
38.5
  0
LINE
  8
0
 10
217
 20
38.5
 11
217
 21
24.5
  0
LINE
  8
0
 10
217
 20
24.5
 11
203
 21
24.5
  0
LINE
  8
0
 10
95
 20
24.5
 11
95
 21
38.5
  0
LINE
  8
0
 10
95
 20
38.5
 11
109
 21
38.5
  0
LINE
  8
0
 10
109
 20
38.5
 11
109
 21
24.5
  0
LINE
  8
0
 10
109
 20
24.5
 11
95
 21
24.5
  0
LINE
  8
0
 10
145
 20
15.5
 11
145
 21
29.5
  0
LINE
  8
0
 10
145
 20
29.5
 11
159
 21
29.5
  0
LINE
  8
0
 10
159
 20
29.5
 11
159
 21
15.5
  0
LINE
  8
0
 10
159
 20
15.5
 11
145
 21
15.5
  0
LINE
  8
0
 10
185
 20
15.5
 11
185
 21
29.5
  0
LINE
  8
0
 10
185
 20
29.5
 11
199
 21
29.5
  0
LINE
  8
0
 10
199
 20
29.5
 11
199
 21
15.5
  0
LINE
  8
0
 10
199
 20
15.5
 11
185
 21
15.5
  0
LINE
  8
0
 10
165
 20
15.5
 11
165
 21
29.5
  0
LINE
  8
0
 10
165
 20
29.5
 11
179
 21
29.5
  0
LINE
  8
0
 10
179
 20
29.5
 11
179
 21
15.5
  0
LINE
  8
0
 10
179
 20
15.5
 11
165
 21
15.5
  0
LINE
  8
0
 10
77
 20
15.5
 11
77
 21
29.5
  0
LINE
  8
0
 10
77
 20
29.5
 11
91
 21
29.5
  0
LINE
  8
0
 10
91
 20
29.5
 11
91
 21
15.5
  0
LINE
  8
0
 10
91
 20
15.5
 11
77
 21
15.5
  0
LINE
  8
0
 10
57
 20
15.5
 11
57
 21
29.5
  0
LINE
  8
0
 10
57
 20
29.5
 11
71
 21
29.5
  0
LINE
  8
0
 10
71
 20
29.5
 11
71
 21
15.5
  0
LINE
  8
0
 10
71
 20
15.5
 11
57
 21
15.5
  0
LINE
  8
0
 10
37
 20
15.5
 11
37
 21
29.5
  0
LINE
  8
0
 10
37
 20
29.5
 11
51
 21
29.5
  0
LINE
  8
0
 10
51
 20
29.5
 11
51
 21
15.5
  0
LINE
  8
0
 10
51
 20
15.5
 11
37
 21
15.5
  0
LINE
  8
0
 10
95
 20
6.5
 11
95
 21
20.5
  0
LINE
  8
0
 10
95
 20
20.5
 11
109
 21
20.5
  0
LINE
  8
0
 10
109
 20
20.5
 11
109
 21
6.5
  0
LINE
  8
0
 10
109
 20
6.5
 11
95
 21
6.5
  0
LINE
  8
0
 10
221
 20
6.5
 11
221
 21
20.5
  0
LINE
  8
0
 10
221
 20
20.5
 11
235
 21
20.5
  0
LINE
  8
0
 10
235
 20
20.5
 11
235
 21
6.5
  0
LINE
  8
0
 10
235
 20
6.5
 11
221
 21
6.5
  0
LINE
  8
0
 10
203
 20
6.5
 11
203
 21
20.5
  0
LINE
  8
0
 10
203
 20
20.5
 11
217
 21
20.5
  0
LINE
  8
0
 10
217
 20
20.5
 11
217
 21
6.5
  0
LINE
  8
0
 10
217
 20
6.5
 11
203
 21
6.5
  0
LINE
  8
0
 10
16.3044
 20
1.76538
 11
16.1137
 21
1.81117
  0
LINE
  8
0
 10
16.1137
 20
1.81117
 11
15.9325
 21
1.88623
  0
LINE
  8
0
 10
15.9325
 20
1.88623
 11
15.7653
 21
1.98872
  0
LINE
  8
0
 10
15.7653
 20
1.98872
 11
15.6161
 21
2.1161
  0
LINE
  8
0
 10
15.6161
 20
2.1161
 11
15.4887
 21
2.26526
  0
LINE
  8
0
 10
15.4887
 20
2.26526
 11
15.3862
 21
2.43251
  0
LINE
  8
0
 10
15.3862
 20
2.43251
 11
15.3112
 21
2.61372
  0
LINE
  8
0
 10
15.3112
 20
2.61372
 11
15.2654
 21
2.80444
  0
LINE
  8
0
 10
15.2654
 20
2.80444
 11
15.25
 21
3
  0
LINE
  8
0
 10
15.25
 20
3
 11
15.2654
 21
3.19554
  0
LINE
  8
0
 10
15.2654
 20
3.19554
 11
15.3112
 21
3.38626
  0
LINE
  8
0
 10
15.3112
 20
3.38626
 11
15.3862
 21
3.56747
  0
LINE
  8
0
 10
15.3862
 20
3.56747
 11
15.4887
 21
3.73473
  0
LINE
  8
0
 10
15.4887
 20
3.73473
 11
15.6161
 21
3.88388
  0
LINE
  8
0
 10
15.6161
 20
3.88388
 11
15.7653
 21
4.01126
  0
LINE
  8
0
 10
15.7653
 20
4.01126
 11
15.9325
 21
4.11375
  0
LINE
  8
0
 10
15.9325
 20
4.11375
 11
16.1137
 21
4.18881
  0
LINE
  8
0
 10
16.1137
 20
4.18881
 11
16.3044
 21
4.2346
  0
LINE
  8
0
 10
16.3044
 20
4.2346
 11
16.5
 21
4.25
  0
LINE
  8
0
 10
16.5
 20
4.25
 11
16.6955
 21
4.2346
  0
LINE
  8
0
 10
16.6955
 20
4.2346
 11
16.8863
 21
4.18881
  0
LINE
  8
0
 10
16.8863
 20
4.18881
 11
17.0675
 21
4.11375
  0
LINE
  8
0
 10
17.0675
 20
4.11375
 11
17.2347
 21
4.01126
  0
LINE
  8
0
 10
17.2347
 20
4.01126
 11
17.3839
 21
3.88388
  0
LINE
  8
0
 10
17.3839
 20
3.88388
 11
17.5113
 21
3.73473
  0
LINE
  8
0
 10
17.5113
 20
3.73473
 11
17.6138
 21
3.56747
  0
LINE
  8
0
 10
17.6138
 20
3.56747
 11
17.6888
 21
3.38626
  0
LINE
  8
0
 10
17.6888
 20
3.38626
 11
17.7346
 21
3.19554
  0
LINE
  8
0
 10
17.7346
 20
3.19554
 11
17.75
 21
3
  0
LINE
  8
0
 10
17.75
 20
3
 11
17.7346
 21
2.80444
  0
LINE
  8
0
 10
17.7346
 20
2.80444
 11
17.6888
 21
2.61372
  0
LINE
  8
0
 10
17.6888
 20
2.61372
 11
17.6138
 21
2.43251
  0
LINE
  8
0
 10
17.6138
 20
2.43251
 11
17.5113
 21
2.26526
  0
LINE
  8
0
 10
17.5113
 20
2.26526
 11
17.3839
 21
2.1161
  0
LINE
  8
0
 10
17.3839
 20
2.1161
 11
17.2347
 21
1.98872
  0
LINE
  8
0
 10
17.2347
 20
1.98872
 11
17.0675
 21
1.88623
  0
LINE
  8
0
 10
17.0675
 20
1.88623
 11
16.8863
 21
1.81117
  0
LINE
  8
0
 10
16.8863
 20
1.81117
 11
16.6955
 21
1.76538
  0
LINE
  8
0
 10
16.6955
 20
1.76538
 11
16.5
 21
1.75
  0
LINE
  8
0
 10
16.5
 20
1.75
 11
16.3044
 21
1.76538
  0
LINE
  8
0
 10
126.804
 20
1.76538
 11
126.614
 21
1.81117
  0
LINE
  8
0
 10
126.614
 20
1.81117
 11
126.433
 21
1.88623
  0
LINE
  8
0
 10
126.433
 20
1.88623
 11
126.265
 21
1.98872
  0
LINE
  8
0
 10
126.265
 20
1.98872
 11
126.116
 21
2.1161
  0
LINE
  8
0
 10
126.116
 20
2.1161
 11
125.989
 21
2.26526
  0
LINE
  8
0
 10
125.989
 20
2.26526
 11
125.886
 21
2.43251
  0
LINE
  8
0
 10
125.886
 20
2.43251
 11
125.811
 21
2.61372
  0
LINE
  8
0
 10
125.811
 20
2.61372
 11
125.765
 21
2.80444
  0
LINE
  8
0
 10
125.765
 20
2.80444
 11
125.75
 21
3
  0
LINE
  8
0
 10
125.75
 20
3
 11
125.765
 21
3.19554
  0
LINE
  8
0
 10
125.765
 20
3.19554
 11
125.811
 21
3.38626
  0
LINE
  8
0
 10
125.811
 20
3.38626
 11
125.886
 21
3.56747
  0
LINE
  8
0
 10
125.886
 20
3.56747
 11
125.989
 21
3.73473
  0
LINE
  8
0
 10
125.989
 20
3.73473
 11
126.116
 21
3.88388
  0
LINE
  8
0
 10
126.116
 20
3.88388
 11
126.265
 21
4.01126
  0
LINE
  8
0
 10
126.265
 20
4.01126
 11
126.433
 21
4.11375
  0
LINE
  8
0
 10
126.433
 20
4.11375
 11
126.614
 21
4.18881
  0
LINE
  8
0
 10
126.614
 20
4.18881
 11
126.804
 21
4.2346
  0
LINE
  8
0
 10
126.804
 20
4.2346
 11
127
 21
4.25
  0
LINE
  8
0
 10
127
 20
4.25
 11
127.196
 21
4.2346
  0
LINE
  8
0
 10
127.196
 20
4.2346
 11
127.386
 21
4.18881
  0
LINE
  8
0
 10
127.386
 20
4.18881
 11
127.567
 21
4.11375
  0
LINE
  8
0
 10
127.567
 20
4.11375
 11
127.735
 21
4.01126
  0
LINE
  8
0
 10
127.735
 20
4.01126
 11
127.884
 21
3.88388
  0
LINE
  8
0
 10
127.884
 20
3.88388
 11
128.011
 21
3.73473
  0
LINE
  8
0
 10
128.011
 20
3.73473
 11
128.114
 21
3.56747
  0
LINE
  8
0
 10
128.114
 20
3.56747
 11
128.189
 21
3.38626
  0
LINE
  8
0
 10
128.189
 20
3.38626
 11
128.235
 21
3.19554
  0
LINE
  8
0
 10
128.235
 20
3.19554
 11
128.25
 21
3
  0
LINE
  8
0
 10
128.25
 20
3
 11
128.235
 21
2.80444
  0
LINE
  8
0
 10
128.235
 20
2.80444
 11
128.189
 21
2.61372
  0
LINE
  8
0
 10
128.189
 20
2.61372
 11
128.114
 21
2.43251
  0
LINE
  8
0
 10
128.114
 20
2.43251
 11
128.011
 21
2.26526
  0
LINE
  8
0
 10
128.011
 20
2.26526
 11
127.884
 21
2.1161
  0
LINE
  8
0
 10
127.884
 20
2.1161
 11
127.735
 21
1.98872
  0
LINE
  8
0
 10
127.735
 20
1.98872
 11
127.567
 21
1.88623
  0
LINE
  8
0
 10
127.567
 20
1.88623
 11
127.386
 21
1.81117
  0
LINE
  8
0
 10
127.386
 20
1.81117
 11
127.196
 21
1.76538
  0
LINE
  8
0
 10
127.196
 20
1.76538
 11
127
 21
1.75
  0
LINE
  8
0
 10
127
 20
1.75
 11
126.804
 21
1.76538
  0
LINE
  8
0
 10
244.104
 20
1.76538
 11
243.914
 21
1.81117
  0
LINE
  8
0
 10
243.914
 20
1.81117
 11
243.732
 21
1.88623
  0
LINE
  8
0
 10
243.732
 20
1.88623
 11
243.565
 21
1.98872
  0
LINE
  8
0
 10
243.565
 20
1.98872
 11
243.416
 21
2.1161
  0
LINE
  8
0
 10
243.416
 20
2.1161
 11
243.289
 21
2.26526
  0
LINE
  8
0
 10
243.289
 20
2.26526
 11
243.186
 21
2.43251
  0
LINE
  8
0
 10
243.186
 20
2.43251
 11
243.111
 21
2.61372
  0
LINE
  8
0
 10
243.111
 20
2.61372
 11
243.065
 21
2.80444
  0
LINE
  8
0
 10
243.065
 20
2.80444
 11
243.05
 21
3
  0
LINE
  8
0
 10
243.05
 20
3
 11
243.065
 21
3.19554
  0
LINE
  8
0
 10
243.065
 20
3.19554
 11
243.111
 21
3.38626
  0
LINE
  8
0
 10
243.111
 20
3.38626
 11
243.186
 21
3.56747
  0
LINE
  8
0
 10
243.186
 20
3.56747
 11
243.289
 21
3.73473
  0
LINE
  8
0
 10
243.289
 20
3.73473
 11
243.416
 21
3.88388
  0
LINE
  8
0
 10
243.416
 20
3.88388
 11
243.565
 21
4.01126
  0
LINE
  8
0
 10
243.565
 20
4.01126
 11
243.732
 21
4.11375
  0
LINE
  8
0
 10
243.732
 20
4.11375
 11
243.914
 21
4.18881
  0
LINE
  8
0
 10
243.914
 20
4.18881
 11
244.104
 21
4.2346
  0
LINE
  8
0
 10
244.104
 20
4.2346
 11
244.3
 21
4.25
  0
LINE
  8
0
 10
244.3
 20
4.25
 11
244.496
 21
4.2346
  0
LINE
  8
0
 10
244.496
 20
4.2346
 11
244.686
 21
4.18881
  0
LINE
  8
0
 10
244.686
 20
4.18881
 11
244.867
 21
4.11375
  0
LINE
  8
0
 10
244.867
 20
4.11375
 11
245.035
 21
4.01126
  0
LINE
  8
0
 10
245.035
 20
4.01126
 11
245.184
 21
3.88388
  0
LINE
  8
0
 10
245.184
 20
3.88388
 11
245.311
 21
3.73473
  0
LINE
  8
0
 10
245.311
 20
3.73473
 11
245.414
 21
3.56747
  0
LINE
  8
0
 10
245.414
 20
3.56747
 11
245.489
 21
3.38626
  0
LINE
  8
0
 10
245.489
 20
3.38626
 11
245.535
 21
3.19554
  0
LINE
  8
0
 10
245.535
 20
3.19554
 11
245.55
 21
3
  0
LINE
  8
0
 10
245.55
 20
3
 11
245.535
 21
2.80444
  0
LINE
  8
0
 10
245.535
 20
2.80444
 11
245.489
 21
2.61372
  0
LINE
  8
0
 10
245.489
 20
2.61372
 11
245.414
 21
2.43251
  0
LINE
  8
0
 10
245.414
 20
2.43251
 11
245.311
 21
2.26526
  0
LINE
  8
0
 10
245.311
 20
2.26526
 11
245.184
 21
2.1161
  0
LINE
  8
0
 10
245.184
 20
2.1161
 11
245.035
 21
1.98872
  0
LINE
  8
0
 10
245.035
 20
1.98872
 11
244.867
 21
1.88623
  0
LINE
  8
0
 10
244.867
 20
1.88623
 11
244.686
 21
1.81117
  0
LINE
  8
0
 10
244.686
 20
1.81117
 11
244.496
 21
1.76538
  0
LINE
  8
0
 10
244.496
 20
1.76538
 11
244.3
 21
1.75
  0
LINE
  8
0
 10
244.3
 20
1.75
 11
244.104
 21
1.76538
  0
ENDSEC
  0
SECTION
  2
OBJECTS
  0
DICTIONARY
  0
ENDSEC
  0
EOF
