  0
SECTION
  2
BLOCKS
  0
ENDSEC
  0
SECTION
  2
ENTITIES
  0
LINE
  8
0
 10
595.932
 20
44.8
 11
0
 21
44.8
  0
LINE
  8
0
 10
0
 20
44.8
 11
0
 21
0.199997
  0
LINE
  8
0
 10
0
 20
0.199997
 11
595.932
 21
0.199997
  0
LINE
  8
0
 10
595.932
 20
0.199997
 11
595.932
 21
44.8
  0
LINE
  8
0
 10
474.686
 20
40.7654
 11
474.496
 21
40.8112
  0
LINE
  8
0
 10
474.496
 20
40.8112
 11
474.314
 21
40.8862
  0
LINE
  8
0
 10
474.314
 20
40.8862
 11
474.147
 21
40.9887
  0
LINE
  8
0
 10
474.147
 20
40.9887
 11
473.998
 21
41.1161
  0
LINE
  8
0
 10
473.998
 20
41.1161
 11
473.871
 21
41.2653
  0
LINE
  8
0
 10
473.871
 20
41.2653
 11
473.768
 21
41.4325
  0
LINE
  8
0
 10
473.768
 20
41.4325
 11
473.693
 21
41.6137
  0
LINE
  8
0
 10
473.693
 20
41.6137
 11
473.647
 21
41.8044
  0
LINE
  8
0
 10
473.647
 20
41.8044
 11
473.632
 21
42
  0
LINE
  8
0
 10
473.632
 20
42
 11
473.647
 21
42.1955
  0
LINE
  8
0
 10
473.647
 20
42.1955
 11
473.693
 21
42.3863
  0
LINE
  8
0
 10
473.693
 20
42.3863
 11
473.768
 21
42.5675
  0
LINE
  8
0
 10
473.768
 20
42.5675
 11
473.871
 21
42.7347
  0
LINE
  8
0
 10
473.871
 20
42.7347
 11
473.998
 21
42.8839
  0
LINE
  8
0
 10
473.998
 20
42.8839
 11
474.147
 21
43.0113
  0
LINE
  8
0
 10
474.147
 20
43.0113
 11
474.314
 21
43.1138
  0
LINE
  8
0
 10
474.314
 20
43.1138
 11
474.496
 21
43.1888
  0
LINE
  8
0
 10
474.496
 20
43.1888
 11
474.686
 21
43.2346
  0
LINE
  8
0
 10
474.686
 20
43.2346
 11
474.882
 21
43.25
  0
LINE
  8
0
 10
474.882
 20
43.25
 11
475.078
 21
43.2346
  0
LINE
  8
0
 10
475.078
 20
43.2346
 11
475.268
 21
43.1888
  0
LINE
  8
0
 10
475.268
 20
43.1888
 11
475.449
 21
43.1138
  0
LINE
  8
0
 10
475.449
 20
43.1138
 11
475.617
 21
43.0113
  0
LINE
  8
0
 10
475.617
 20
43.0113
 11
475.766
 21
42.8839
  0
LINE
  8
0
 10
475.766
 20
42.8839
 11
475.893
 21
42.7347
  0
LINE
  8
0
 10
475.893
 20
42.7347
 11
475.996
 21
42.5675
  0
LINE
  8
0
 10
475.996
 20
42.5675
 11
476.071
 21
42.3863
  0
LINE
  8
0
 10
476.071
 20
42.3863
 11
476.117
 21
42.1955
  0
LINE
  8
0
 10
476.117
 20
42.1955
 11
476.132
 21
42
  0
LINE
  8
0
 10
476.132
 20
42
 11
476.117
 21
41.8044
  0
LINE
  8
0
 10
476.117
 20
41.8044
 11
476.071
 21
41.6137
  0
LINE
  8
0
 10
476.071
 20
41.6137
 11
475.996
 21
41.4325
  0
LINE
  8
0
 10
475.996
 20
41.4325
 11
475.893
 21
41.2653
  0
LINE
  8
0
 10
475.893
 20
41.2653
 11
475.766
 21
41.1161
  0
LINE
  8
0
 10
475.766
 20
41.1161
 11
475.617
 21
40.9887
  0
LINE
  8
0
 10
475.617
 20
40.9887
 11
475.449
 21
40.8862
  0
LINE
  8
0
 10
475.449
 20
40.8862
 11
475.268
 21
40.8112
  0
LINE
  8
0
 10
475.268
 20
40.8112
 11
475.078
 21
40.7654
  0
LINE
  8
0
 10
475.078
 20
40.7654
 11
474.882
 21
40.75
  0
LINE
  8
0
 10
474.882
 20
40.75
 11
474.686
 21
40.7654
  0
LINE
  8
0
 10
195.986
 20
40.7654
 11
195.796
 21
40.8112
  0
LINE
  8
0
 10
195.796
 20
40.8112
 11
195.615
 21
40.8862
  0
LINE
  8
0
 10
195.615
 20
40.8862
 11
195.447
 21
40.9887
  0
LINE
  8
0
 10
195.447
 20
40.9887
 11
195.298
 21
41.1161
  0
LINE
  8
0
 10
195.298
 20
41.1161
 11
195.171
 21
41.2653
  0
LINE
  8
0
 10
195.171
 20
41.2653
 11
195.068
 21
41.4325
  0
LINE
  8
0
 10
195.068
 20
41.4325
 11
194.993
 21
41.6137
  0
LINE
  8
0
 10
194.993
 20
41.6137
 11
194.947
 21
41.8044
  0
LINE
  8
0
 10
194.947
 20
41.8044
 11
194.932
 21
42
  0
LINE
  8
0
 10
194.932
 20
42
 11
194.947
 21
42.1955
  0
LINE
  8
0
 10
194.947
 20
42.1955
 11
194.993
 21
42.3863
  0
LINE
  8
0
 10
194.993
 20
42.3863
 11
195.068
 21
42.5675
  0
LINE
  8
0
 10
195.068
 20
42.5675
 11
195.171
 21
42.7347
  0
LINE
  8
0
 10
195.171
 20
42.7347
 11
195.298
 21
42.8839
  0
LINE
  8
0
 10
195.298
 20
42.8839
 11
195.447
 21
43.0113
  0
LINE
  8
0
 10
195.447
 20
43.0113
 11
195.615
 21
43.1138
  0
LINE
  8
0
 10
195.615
 20
43.1138
 11
195.796
 21
43.1888
  0
LINE
  8
0
 10
195.796
 20
43.1888
 11
195.986
 21
43.2346
  0
LINE
  8
0
 10
195.986
 20
43.2346
 11
196.182
 21
43.25
  0
LINE
  8
0
 10
196.182
 20
43.25
 11
196.378
 21
43.2346
  0
LINE
  8
0
 10
196.378
 20
43.2346
 11
196.568
 21
43.1888
  0
LINE
  8
0
 10
196.568
 20
43.1888
 11
196.749
 21
43.1138
  0
LINE
  8
0
 10
196.749
 20
43.1138
 11
196.917
 21
43.0113
  0
LINE
  8
0
 10
196.917
 20
43.0113
 11
197.066
 21
42.8839
  0
LINE
  8
0
 10
197.066
 20
42.8839
 11
197.193
 21
42.7347
  0
LINE
  8
0
 10
197.193
 20
42.7347
 11
197.296
 21
42.5675
  0
LINE
  8
0
 10
197.296
 20
42.5675
 11
197.371
 21
42.3863
  0
LINE
  8
0
 10
197.371
 20
42.3863
 11
197.417
 21
42.1955
  0
LINE
  8
0
 10
197.417
 20
42.1955
 11
197.432
 21
42
  0
LINE
  8
0
 10
197.432
 20
42
 11
197.417
 21
41.8044
  0
LINE
  8
0
 10
197.417
 20
41.8044
 11
197.371
 21
41.6137
  0
LINE
  8
0
 10
197.371
 20
41.6137
 11
197.296
 21
41.4325
  0
LINE
  8
0
 10
197.296
 20
41.4325
 11
197.193
 21
41.2653
  0
LINE
  8
0
 10
197.193
 20
41.2653
 11
197.066
 21
41.1161
  0
LINE
  8
0
 10
197.066
 20
41.1161
 11
196.917
 21
40.9887
  0
LINE
  8
0
 10
196.917
 20
40.9887
 11
196.749
 21
40.8862
  0
LINE
  8
0
 10
196.749
 20
40.8862
 11
196.568
 21
40.8112
  0
LINE
  8
0
 10
196.568
 20
40.8112
 11
196.378
 21
40.7654
  0
LINE
  8
0
 10
196.378
 20
40.7654
 11
196.182
 21
40.75
  0
LINE
  8
0
 10
196.182
 20
40.75
 11
195.986
 21
40.7654
  0
LINE
  8
0
 10
39.1954
 20
40.7654
 11
39.0047
 21
40.8112
  0
LINE
  8
0
 10
39.0047
 20
40.8112
 11
38.8235
 21
40.8862
  0
LINE
  8
0
 10
38.8235
 20
40.8862
 11
38.6563
 21
40.9887
  0
LINE
  8
0
 10
38.6563
 20
40.9887
 11
38.5071
 21
41.1161
  0
LINE
  8
0
 10
38.5071
 20
41.1161
 11
38.3797
 21
41.2653
  0
LINE
  8
0
 10
38.3797
 20
41.2653
 11
38.2772
 21
41.4325
  0
LINE
  8
0
 10
38.2772
 20
41.4325
 11
38.2022
 21
41.6137
  0
LINE
  8
0
 10
38.2022
 20
41.6137
 11
38.1564
 21
41.8044
  0
LINE
  8
0
 10
38.1564
 20
41.8044
 11
38.141
 21
42
  0
LINE
  8
0
 10
38.141
 20
42
 11
38.1564
 21
42.1955
  0
LINE
  8
0
 10
38.1564
 20
42.1955
 11
38.2022
 21
42.3863
  0
LINE
  8
0
 10
38.2022
 20
42.3863
 11
38.2772
 21
42.5675
  0
LINE
  8
0
 10
38.2772
 20
42.5675
 11
38.3797
 21
42.7347
  0
LINE
  8
0
 10
38.3797
 20
42.7347
 11
38.5071
 21
42.8839
  0
LINE
  8
0
 10
38.5071
 20
42.8839
 11
38.6563
 21
43.0113
  0
LINE
  8
0
 10
38.6563
 20
43.0113
 11
38.8235
 21
43.1138
  0
LINE
  8
0
 10
38.8235
 20
43.1138
 11
39.0047
 21
43.1888
  0
LINE
  8
0
 10
39.0047
 20
43.1888
 11
39.1954
 21
43.2346
  0
LINE
  8
0
 10
39.1954
 20
43.2346
 11
39.391
 21
43.25
  0
LINE
  8
0
 10
39.391
 20
43.25
 11
39.5865
 21
43.2346
  0
LINE
  8
0
 10
39.5865
 20
43.2346
 11
39.7773
 21
43.1888
  0
LINE
  8
0
 10
39.7773
 20
43.1888
 11
39.9585
 21
43.1138
  0
LINE
  8
0
 10
39.9585
 20
43.1138
 11
40.1257
 21
43.0113
  0
LINE
  8
0
 10
40.1257
 20
43.0113
 11
40.2749
 21
42.8839
  0
LINE
  8
0
 10
40.2749
 20
42.8839
 11
40.4023
 21
42.7347
  0
LINE
  8
0
 10
40.4023
 20
42.7347
 11
40.5047
 21
42.5675
  0
LINE
  8
0
 10
40.5047
 20
42.5675
 11
40.5798
 21
42.3863
  0
LINE
  8
0
 10
40.5798
 20
42.3863
 11
40.6256
 21
42.1955
  0
LINE
  8
0
 10
40.6256
 20
42.1955
 11
40.641
 21
42
  0
LINE
  8
0
 10
40.641
 20
42
 11
40.6256
 21
41.8044
  0
LINE
  8
0
 10
40.6256
 20
41.8044
 11
40.5798
 21
41.6137
  0
LINE
  8
0
 10
40.5798
 20
41.6137
 11
40.5047
 21
41.4325
  0
LINE
  8
0
 10
40.5047
 20
41.4325
 11
40.4023
 21
41.2653
  0
LINE
  8
0
 10
40.4023
 20
41.2653
 11
40.2749
 21
41.1161
  0
LINE
  8
0
 10
40.2749
 20
41.1161
 11
40.1257
 21
40.9887
  0
LINE
  8
0
 10
40.1257
 20
40.9887
 11
39.9585
 21
40.8862
  0
LINE
  8
0
 10
39.9585
 20
40.8862
 11
39.7773
 21
40.8112
  0
LINE
  8
0
 10
39.7773
 20
40.8112
 11
39.5865
 21
40.7654
  0
LINE
  8
0
 10
39.5865
 20
40.7654
 11
39.391
 21
40.75
  0
LINE
  8
0
 10
39.391
 20
40.75
 11
39.1954
 21
40.7654
  0
LINE
  8
0
 10
313.832
 20
24.5
 11
313.832
 21
38.5
  0
LINE
  8
0
 10
313.832
 20
38.5
 11
327.832
 21
38.5
  0
LINE
  8
0
 10
327.832
 20
38.5
 11
327.832
 21
24.5
  0
LINE
  8
0
 10
327.832
 20
24.5
 11
313.832
 21
24.5
  0
LINE
  8
0
 10
122.532
 20
24.5
 11
122.532
 21
38.5
  0
LINE
  8
0
 10
122.532
 20
38.5
 11
136.532
 21
38.5
  0
LINE
  8
0
 10
136.532
 20
38.5
 11
136.532
 21
24.5
  0
LINE
  8
0
 10
136.532
 20
24.5
 11
122.532
 21
24.5
  0
LINE
  8
0
 10
463.882
 20
11.5
 11
463.882
 21
33.5
  0
LINE
  8
0
 10
463.882
 20
33.5
 11
485.882
 21
33.5
  0
LINE
  8
0
 10
485.882
 20
33.5
 11
485.882
 21
11.5
  0
LINE
  8
0
 10
485.882
 20
11.5
 11
463.882
 21
11.5
  0
LINE
  8
0
 10
104.532
 20
15.5
 11
104.532
 21
29.5
  0
LINE
  8
0
 10
104.532
 20
29.5
 11
118.532
 21
29.5
  0
LINE
  8
0
 10
118.532
 20
29.5
 11
118.532
 21
15.5
  0
LINE
  8
0
 10
118.532
 20
15.5
 11
104.532
 21
15.5
  0
LINE
  8
0
 10
295.832
 20
15.5
 11
295.832
 21
29.5
  0
LINE
  8
0
 10
295.832
 20
29.5
 11
309.832
 21
29.5
  0
LINE
  8
0
 10
309.832
 20
29.5
 11
309.832
 21
15.5
  0
LINE
  8
0
 10
309.832
 20
15.5
 11
295.832
 21
15.5
  0
LINE
  8
0
 10
275.832
 20
15.5
 11
275.832
 21
29.5
  0
LINE
  8
0
 10
275.832
 20
29.5
 11
289.832
 21
29.5
  0
LINE
  8
0
 10
289.832
 20
29.5
 11
289.832
 21
15.5
  0
LINE
  8
0
 10
289.832
 20
15.5
 11
275.832
 21
15.5
  0
LINE
  8
0
 10
255.832
 20
15.5
 11
255.832
 21
29.5
  0
LINE
  8
0
 10
255.832
 20
29.5
 11
269.832
 21
29.5
  0
LINE
  8
0
 10
269.832
 20
29.5
 11
269.832
 21
15.5
  0
LINE
  8
0
 10
269.832
 20
15.5
 11
255.832
 21
15.5
  0
LINE
  8
0
 10
84.532
 20
15.5
 11
84.532
 21
29.5
  0
LINE
  8
0
 10
84.532
 20
29.5
 11
98.532
 21
29.5
  0
LINE
  8
0
 10
98.532
 20
29.5
 11
98.532
 21
15.5
  0
LINE
  8
0
 10
98.532
 20
15.5
 11
84.532
 21
15.5
  0
LINE
  8
0
 10
64.532
 20
15.5
 11
64.532
 21
29.5
  0
LINE
  8
0
 10
64.532
 20
29.5
 11
78.532
 21
29.5
  0
LINE
  8
0
 10
78.532
 20
29.5
 11
78.532
 21
15.5
  0
LINE
  8
0
 10
78.532
 20
15.5
 11
64.532
 21
15.5
  0
LINE
  8
0
 10
313.832
 20
6.5
 11
313.832
 21
20.5
  0
LINE
  8
0
 10
313.832
 20
20.5
 11
327.832
 21
20.5
  0
LINE
  8
0
 10
327.832
 20
20.5
 11
327.832
 21
6.5
  0
LINE
  8
0
 10
327.832
 20
6.5
 11
313.832
 21
6.5
  0
LINE
  8
0
 10
331.832
 20
6.5
 11
331.832
 21
20.5
  0
LINE
  8
0
 10
331.832
 20
20.5
 11
345.832
 21
20.5
  0
LINE
  8
0
 10
345.832
 20
20.5
 11
345.832
 21
6.5
  0
LINE
  8
0
 10
345.832
 20
6.5
 11
331.832
 21
6.5
  0
LINE
  8
0
 10
122.532
 20
6.5
 11
122.532
 21
20.5
  0
LINE
  8
0
 10
122.532
 20
20.5
 11
136.532
 21
20.5
  0
LINE
  8
0
 10
136.532
 20
20.5
 11
136.532
 21
6.5
  0
LINE
  8
0
 10
136.532
 20
6.5
 11
122.532
 21
6.5
  0
LINE
  8
0
 10
39.1954
 20
1.76538
 11
39.0047
 21
1.81117
  0
LINE
  8
0
 10
39.0047
 20
1.81117
 11
38.8235
 21
1.88623
  0
LINE
  8
0
 10
38.8235
 20
1.88623
 11
38.6563
 21
1.98872
  0
LINE
  8
0
 10
38.6563
 20
1.98872
 11
38.5071
 21
2.1161
  0
LINE
  8
0
 10
38.5071
 20
2.1161
 11
38.3797
 21
2.26526
  0
LINE
  8
0
 10
38.3797
 20
2.26526
 11
38.2772
 21
2.43251
  0
LINE
  8
0
 10
38.2772
 20
2.43251
 11
38.2022
 21
2.61372
  0
LINE
  8
0
 10
38.2022
 20
2.61372
 11
38.1564
 21
2.80444
  0
LINE
  8
0
 10
38.1564
 20
2.80444
 11
38.141
 21
3
  0
LINE
  8
0
 10
38.141
 20
3
 11
38.1564
 21
3.19554
  0
LINE
  8
0
 10
38.1564
 20
3.19554
 11
38.2022
 21
3.38626
  0
LINE
  8
0
 10
38.2022
 20
3.38626
 11
38.2772
 21
3.56747
  0
LINE
  8
0
 10
38.2772
 20
3.56747
 11
38.3797
 21
3.73473
  0
LINE
  8
0
 10
38.3797
 20
3.73473
 11
38.5071
 21
3.88388
  0
LINE
  8
0
 10
38.5071
 20
3.88388
 11
38.6563
 21
4.01126
  0
LINE
  8
0
 10
38.6563
 20
4.01126
 11
38.8235
 21
4.11375
  0
LINE
  8
0
 10
38.8235
 20
4.11375
 11
39.0047
 21
4.18881
  0
LINE
  8
0
 10
39.0047
 20
4.18881
 11
39.1954
 21
4.2346
  0
LINE
  8
0
 10
39.1954
 20
4.2346
 11
39.391
 21
4.25
  0
LINE
  8
0
 10
39.391
 20
4.25
 11
39.5865
 21
4.2346
  0
LINE
  8
0
 10
39.5865
 20
4.2346
 11
39.7773
 21
4.18881
  0
LINE
  8
0
 10
39.7773
 20
4.18881
 11
39.9585
 21
4.11375
  0
LINE
  8
0
 10
39.9585
 20
4.11375
 11
40.1257
 21
4.01126
  0
LINE
  8
0
 10
40.1257
 20
4.01126
 11
40.2749
 21
3.88388
  0
LINE
  8
0
 10
40.2749
 20
3.88388
 11
40.4023
 21
3.73473
  0
LINE
  8
0
 10
40.4023
 20
3.73473
 11
40.5047
 21
3.56747
  0
LINE
  8
0
 10
40.5047
 20
3.56747
 11
40.5798
 21
3.38626
  0
LINE
  8
0
 10
40.5798
 20
3.38626
 11
40.6256
 21
3.19554
  0
LINE
  8
0
 10
40.6256
 20
3.19554
 11
40.641
 21
3
  0
LINE
  8
0
 10
40.641
 20
3
 11
40.6256
 21
2.80444
  0
LINE
  8
0
 10
40.6256
 20
2.80444
 11
40.5798
 21
2.61372
  0
LINE
  8
0
 10
40.5798
 20
2.61372
 11
40.5047
 21
2.43251
  0
LINE
  8
0
 10
40.5047
 20
2.43251
 11
40.4023
 21
2.26526
  0
LINE
  8
0
 10
40.4023
 20
2.26526
 11
40.2749
 21
2.1161
  0
LINE
  8
0
 10
40.2749
 20
2.1161
 11
40.1257
 21
1.98872
  0
LINE
  8
0
 10
40.1257
 20
1.98872
 11
39.9585
 21
1.88623
  0
LINE
  8
0
 10
39.9585
 20
1.88623
 11
39.7773
 21
1.81117
  0
LINE
  8
0
 10
39.7773
 20
1.81117
 11
39.5865
 21
1.76538
  0
LINE
  8
0
 10
39.5865
 20
1.76538
 11
39.391
 21
1.75
  0
LINE
  8
0
 10
39.391
 20
1.75
 11
39.1954
 21
1.76538
  0
LINE
  8
0
 10
195.986
 20
1.76538
 11
195.796
 21
1.81117
  0
LINE
  8
0
 10
195.796
 20
1.81117
 11
195.615
 21
1.88623
  0
LINE
  8
0
 10
195.615
 20
1.88623
 11
195.447
 21
1.98872
  0
LINE
  8
0
 10
195.447
 20
1.98872
 11
195.298
 21
2.1161
  0
LINE
  8
0
 10
195.298
 20
2.1161
 11
195.171
 21
2.26526
  0
LINE
  8
0
 10
195.171
 20
2.26526
 11
195.068
 21
2.43251
  0
LINE
  8
0
 10
195.068
 20
2.43251
 11
194.993
 21
2.61372
  0
LINE
  8
0
 10
194.993
 20
2.61372
 11
194.947
 21
2.80444
  0
LINE
  8
0
 10
194.947
 20
2.80444
 11
194.932
 21
3
  0
LINE
  8
0
 10
194.932
 20
3
 11
194.947
 21
3.19554
  0
LINE
  8
0
 10
194.947
 20
3.19554
 11
194.993
 21
3.38626
  0
LINE
  8
0
 10
194.993
 20
3.38626
 11
195.068
 21
3.56747
  0
LINE
  8
0
 10
195.068
 20
3.56747
 11
195.171
 21
3.73473
  0
LINE
  8
0
 10
195.171
 20
3.73473
 11
195.298
 21
3.88388
  0
LINE
  8
0
 10
195.298
 20
3.88388
 11
195.447
 21
4.01126
  0
LINE
  8
0
 10
195.447
 20
4.01126
 11
195.615
 21
4.11375
  0
LINE
  8
0
 10
195.615
 20
4.11375
 11
195.796
 21
4.18881
  0
LINE
  8
0
 10
195.796
 20
4.18881
 11
195.986
 21
4.2346
  0
LINE
  8
0
 10
195.986
 20
4.2346
 11
196.182
 21
4.25
  0
LINE
  8
0
 10
196.182
 20
4.25
 11
196.378
 21
4.2346
  0
LINE
  8
0
 10
196.378
 20
4.2346
 11
196.568
 21
4.18881
  0
LINE
  8
0
 10
196.568
 20
4.18881
 11
196.749
 21
4.11375
  0
LINE
  8
0
 10
196.749
 20
4.11375
 11
196.917
 21
4.01126
  0
LINE
  8
0
 10
196.917
 20
4.01126
 11
197.066
 21
3.88388
  0
LINE
  8
0
 10
197.066
 20
3.88388
 11
197.193
 21
3.73473
  0
LINE
  8
0
 10
197.193
 20
3.73473
 11
197.296
 21
3.56747
  0
LINE
  8
0
 10
197.296
 20
3.56747
 11
197.371
 21
3.38626
  0
LINE
  8
0
 10
197.371
 20
3.38626
 11
197.417
 21
3.19554
  0
LINE
  8
0
 10
197.417
 20
3.19554
 11
197.432
 21
3
  0
LINE
  8
0
 10
197.432
 20
3
 11
197.417
 21
2.80444
  0
LINE
  8
0
 10
197.417
 20
2.80444
 11
197.371
 21
2.61372
  0
LINE
  8
0
 10
197.371
 20
2.61372
 11
197.296
 21
2.43251
  0
LINE
  8
0
 10
197.296
 20
2.43251
 11
197.193
 21
2.26526
  0
LINE
  8
0
 10
197.193
 20
2.26526
 11
197.066
 21
2.1161
  0
LINE
  8
0
 10
197.066
 20
2.1161
 11
196.917
 21
1.98872
  0
LINE
  8
0
 10
196.917
 20
1.98872
 11
196.749
 21
1.88623
  0
LINE
  8
0
 10
196.749
 20
1.88623
 11
196.568
 21
1.81117
  0
LINE
  8
0
 10
196.568
 20
1.81117
 11
196.378
 21
1.76538
  0
LINE
  8
0
 10
196.378
 20
1.76538
 11
196.182
 21
1.75
  0
LINE
  8
0
 10
196.182
 20
1.75
 11
195.986
 21
1.76538
  0
LINE
  8
0
 10
474.686
 20
1.76538
 11
474.496
 21
1.81117
  0
LINE
  8
0
 10
474.496
 20
1.81117
 11
474.314
 21
1.88623
  0
LINE
  8
0
 10
474.314
 20
1.88623
 11
474.147
 21
1.98872
  0
LINE
  8
0
 10
474.147
 20
1.98872
 11
473.998
 21
2.1161
  0
LINE
  8
0
 10
473.998
 20
2.1161
 11
473.871
 21
2.26526
  0
LINE
  8
0
 10
473.871
 20
2.26526
 11
473.768
 21
2.43251
  0
LINE
  8
0
 10
473.768
 20
2.43251
 11
473.693
 21
2.61372
  0
LINE
  8
0
 10
473.693
 20
2.61372
 11
473.647
 21
2.80444
  0
LINE
  8
0
 10
473.647
 20
2.80444
 11
473.632
 21
3
  0
LINE
  8
0
 10
473.632
 20
3
 11
473.647
 21
3.19554
  0
LINE
  8
0
 10
473.647
 20
3.19554
 11
473.693
 21
3.38626
  0
LINE
  8
0
 10
473.693
 20
3.38626
 11
473.768
 21
3.56747
  0
LINE
  8
0
 10
473.768
 20
3.56747
 11
473.871
 21
3.73473
  0
LINE
  8
0
 10
473.871
 20
3.73473
 11
473.998
 21
3.88388
  0
LINE
  8
0
 10
473.998
 20
3.88388
 11
474.147
 21
4.01126
  0
LINE
  8
0
 10
474.147
 20
4.01126
 11
474.314
 21
4.11375
  0
LINE
  8
0
 10
474.314
 20
4.11375
 11
474.496
 21
4.18881
  0
LINE
  8
0
 10
474.496
 20
4.18881
 11
474.686
 21
4.2346
  0
LINE
  8
0
 10
474.686
 20
4.2346
 11
474.882
 21
4.25
  0
LINE
  8
0
 10
474.882
 20
4.25
 11
475.078
 21
4.2346
  0
LINE
  8
0
 10
475.078
 20
4.2346
 11
475.268
 21
4.18881
  0
LINE
  8
0
 10
475.268
 20
4.18881
 11
475.449
 21
4.11375
  0
LINE
  8
0
 10
475.449
 20
4.11375
 11
475.617
 21
4.01126
  0
LINE
  8
0
 10
475.617
 20
4.01126
 11
475.766
 21
3.88388
  0
LINE
  8
0
 10
475.766
 20
3.88388
 11
475.893
 21
3.73473
  0
LINE
  8
0
 10
475.893
 20
3.73473
 11
475.996
 21
3.56747
  0
LINE
  8
0
 10
475.996
 20
3.56747
 11
476.071
 21
3.38626
  0
LINE
  8
0
 10
476.071
 20
3.38626
 11
476.117
 21
3.19554
  0
LINE
  8
0
 10
476.117
 20
3.19554
 11
476.132
 21
3
  0
LINE
  8
0
 10
476.132
 20
3
 11
476.117
 21
2.80444
  0
LINE
  8
0
 10
476.117
 20
2.80444
 11
476.071
 21
2.61372
  0
LINE
  8
0
 10
476.071
 20
2.61372
 11
475.996
 21
2.43251
  0
LINE
  8
0
 10
475.996
 20
2.43251
 11
475.893
 21
2.26526
  0
LINE
  8
0
 10
475.893
 20
2.26526
 11
475.766
 21
2.1161
  0
LINE
  8
0
 10
475.766
 20
2.1161
 11
475.617
 21
1.98872
  0
LINE
  8
0
 10
475.617
 20
1.98872
 11
475.449
 21
1.88623
  0
LINE
  8
0
 10
475.449
 20
1.88623
 11
475.268
 21
1.81117
  0
LINE
  8
0
 10
475.268
 20
1.81117
 11
475.078
 21
1.76538
  0
LINE
  8
0
 10
475.078
 20
1.76538
 11
474.882
 21
1.75
  0
LINE
  8
0
 10
474.882
 20
1.75
 11
474.686
 21
1.76538
  0
ENDSEC
  0
SECTION
  2
OBJECTS
  0
DICTIONARY
  0
ENDSEC
  0
EOF
