  0
SECTION
  2
BLOCKS
  0
ENDSEC
  0
SECTION
  2
ENTITIES
  0
LINE
  8
0
 10
538.932
 20
44.8
 11
0
 21
44.8
  0
LINE
  8
0
 10
0
 20
44.8
 11
0
 21
0.199997
  0
LINE
  8
0
 10
0
 20
0.199997
 11
538.932
 21
0.199997
  0
LINE
  8
0
 10
538.932
 20
0.199997
 11
538.932
 21
44.8
  0
LINE
  8
0
 10
436.686
 20
40.7654
 11
436.496
 21
40.8112
  0
LINE
  8
0
 10
436.496
 20
40.8112
 11
436.314
 21
40.8862
  0
LINE
  8
0
 10
436.314
 20
40.8862
 11
436.147
 21
40.9887
  0
LINE
  8
0
 10
436.147
 20
40.9887
 11
435.998
 21
41.1161
  0
LINE
  8
0
 10
435.998
 20
41.1161
 11
435.871
 21
41.2653
  0
LINE
  8
0
 10
435.871
 20
41.2653
 11
435.768
 21
41.4325
  0
LINE
  8
0
 10
435.768
 20
41.4325
 11
435.693
 21
41.6137
  0
LINE
  8
0
 10
435.693
 20
41.6137
 11
435.647
 21
41.8044
  0
LINE
  8
0
 10
435.647
 20
41.8044
 11
435.632
 21
42
  0
LINE
  8
0
 10
435.632
 20
42
 11
435.647
 21
42.1955
  0
LINE
  8
0
 10
435.647
 20
42.1955
 11
435.693
 21
42.3863
  0
LINE
  8
0
 10
435.693
 20
42.3863
 11
435.768
 21
42.5675
  0
LINE
  8
0
 10
435.768
 20
42.5675
 11
435.871
 21
42.7347
  0
LINE
  8
0
 10
435.871
 20
42.7347
 11
435.998
 21
42.8839
  0
LINE
  8
0
 10
435.998
 20
42.8839
 11
436.147
 21
43.0113
  0
LINE
  8
0
 10
436.147
 20
43.0113
 11
436.314
 21
43.1138
  0
LINE
  8
0
 10
436.314
 20
43.1138
 11
436.496
 21
43.1888
  0
LINE
  8
0
 10
436.496
 20
43.1888
 11
436.686
 21
43.2346
  0
LINE
  8
0
 10
436.686
 20
43.2346
 11
436.882
 21
43.25
  0
LINE
  8
0
 10
436.882
 20
43.25
 11
437.078
 21
43.2346
  0
LINE
  8
0
 10
437.078
 20
43.2346
 11
437.268
 21
43.1888
  0
LINE
  8
0
 10
437.268
 20
43.1888
 11
437.449
 21
43.1138
  0
LINE
  8
0
 10
437.449
 20
43.1138
 11
437.617
 21
43.0113
  0
LINE
  8
0
 10
437.617
 20
43.0113
 11
437.766
 21
42.8839
  0
LINE
  8
0
 10
437.766
 20
42.8839
 11
437.893
 21
42.7347
  0
LINE
  8
0
 10
437.893
 20
42.7347
 11
437.996
 21
42.5675
  0
LINE
  8
0
 10
437.996
 20
42.5675
 11
438.071
 21
42.3863
  0
LINE
  8
0
 10
438.071
 20
42.3863
 11
438.117
 21
42.1955
  0
LINE
  8
0
 10
438.117
 20
42.1955
 11
438.132
 21
42
  0
LINE
  8
0
 10
438.132
 20
42
 11
438.117
 21
41.8044
  0
LINE
  8
0
 10
438.117
 20
41.8044
 11
438.071
 21
41.6137
  0
LINE
  8
0
 10
438.071
 20
41.6137
 11
437.996
 21
41.4325
  0
LINE
  8
0
 10
437.996
 20
41.4325
 11
437.893
 21
41.2653
  0
LINE
  8
0
 10
437.893
 20
41.2653
 11
437.766
 21
41.1161
  0
LINE
  8
0
 10
437.766
 20
41.1161
 11
437.617
 21
40.9887
  0
LINE
  8
0
 10
437.617
 20
40.9887
 11
437.449
 21
40.8862
  0
LINE
  8
0
 10
437.449
 20
40.8862
 11
437.268
 21
40.8112
  0
LINE
  8
0
 10
437.268
 20
40.8112
 11
437.078
 21
40.7654
  0
LINE
  8
0
 10
437.078
 20
40.7654
 11
436.882
 21
40.75
  0
LINE
  8
0
 10
436.882
 20
40.75
 11
436.686
 21
40.7654
  0
LINE
  8
0
 10
186.486
 20
40.7654
 11
186.296
 21
40.8112
  0
LINE
  8
0
 10
186.296
 20
40.8112
 11
186.115
 21
40.8862
  0
LINE
  8
0
 10
186.115
 20
40.8862
 11
185.947
 21
40.9887
  0
LINE
  8
0
 10
185.947
 20
40.9887
 11
185.798
 21
41.1161
  0
LINE
  8
0
 10
185.798
 20
41.1161
 11
185.671
 21
41.2653
  0
LINE
  8
0
 10
185.671
 20
41.2653
 11
185.568
 21
41.4325
  0
LINE
  8
0
 10
185.568
 20
41.4325
 11
185.493
 21
41.6137
  0
LINE
  8
0
 10
185.493
 20
41.6137
 11
185.447
 21
41.8044
  0
LINE
  8
0
 10
185.447
 20
41.8044
 11
185.432
 21
42
  0
LINE
  8
0
 10
185.432
 20
42
 11
185.447
 21
42.1955
  0
LINE
  8
0
 10
185.447
 20
42.1955
 11
185.493
 21
42.3863
  0
LINE
  8
0
 10
185.493
 20
42.3863
 11
185.568
 21
42.5675
  0
LINE
  8
0
 10
185.568
 20
42.5675
 11
185.671
 21
42.7347
  0
LINE
  8
0
 10
185.671
 20
42.7347
 11
185.798
 21
42.8839
  0
LINE
  8
0
 10
185.798
 20
42.8839
 11
185.947
 21
43.0113
  0
LINE
  8
0
 10
185.947
 20
43.0113
 11
186.115
 21
43.1138
  0
LINE
  8
0
 10
186.115
 20
43.1138
 11
186.296
 21
43.1888
  0
LINE
  8
0
 10
186.296
 20
43.1888
 11
186.486
 21
43.2346
  0
LINE
  8
0
 10
186.486
 20
43.2346
 11
186.682
 21
43.25
  0
LINE
  8
0
 10
186.682
 20
43.25
 11
186.878
 21
43.2346
  0
LINE
  8
0
 10
186.878
 20
43.2346
 11
187.068
 21
43.1888
  0
LINE
  8
0
 10
187.068
 20
43.1888
 11
187.249
 21
43.1138
  0
LINE
  8
0
 10
187.249
 20
43.1138
 11
187.417
 21
43.0113
  0
LINE
  8
0
 10
187.417
 20
43.0113
 11
187.566
 21
42.8839
  0
LINE
  8
0
 10
187.566
 20
42.8839
 11
187.693
 21
42.7347
  0
LINE
  8
0
 10
187.693
 20
42.7347
 11
187.796
 21
42.5675
  0
LINE
  8
0
 10
187.796
 20
42.5675
 11
187.871
 21
42.3863
  0
LINE
  8
0
 10
187.871
 20
42.3863
 11
187.917
 21
42.1955
  0
LINE
  8
0
 10
187.917
 20
42.1955
 11
187.932
 21
42
  0
LINE
  8
0
 10
187.932
 20
42
 11
187.917
 21
41.8044
  0
LINE
  8
0
 10
187.917
 20
41.8044
 11
187.871
 21
41.6137
  0
LINE
  8
0
 10
187.871
 20
41.6137
 11
187.796
 21
41.4325
  0
LINE
  8
0
 10
187.796
 20
41.4325
 11
187.693
 21
41.2653
  0
LINE
  8
0
 10
187.693
 20
41.2653
 11
187.566
 21
41.1161
  0
LINE
  8
0
 10
187.566
 20
41.1161
 11
187.417
 21
40.9887
  0
LINE
  8
0
 10
187.417
 20
40.9887
 11
187.249
 21
40.8862
  0
LINE
  8
0
 10
187.249
 20
40.8862
 11
187.068
 21
40.8112
  0
LINE
  8
0
 10
187.068
 20
40.8112
 11
186.878
 21
40.7654
  0
LINE
  8
0
 10
186.878
 20
40.7654
 11
186.682
 21
40.75
  0
LINE
  8
0
 10
186.682
 20
40.75
 11
186.486
 21
40.7654
  0
LINE
  8
0
 10
39.1954
 20
40.7654
 11
39.0047
 21
40.8112
  0
LINE
  8
0
 10
39.0047
 20
40.8112
 11
38.8235
 21
40.8862
  0
LINE
  8
0
 10
38.8235
 20
40.8862
 11
38.6563
 21
40.9887
  0
LINE
  8
0
 10
38.6563
 20
40.9887
 11
38.5071
 21
41.1161
  0
LINE
  8
0
 10
38.5071
 20
41.1161
 11
38.3797
 21
41.2653
  0
LINE
  8
0
 10
38.3797
 20
41.2653
 11
38.2772
 21
41.4325
  0
LINE
  8
0
 10
38.2772
 20
41.4325
 11
38.2022
 21
41.6137
  0
LINE
  8
0
 10
38.2022
 20
41.6137
 11
38.1564
 21
41.8044
  0
LINE
  8
0
 10
38.1564
 20
41.8044
 11
38.141
 21
42
  0
LINE
  8
0
 10
38.141
 20
42
 11
38.1564
 21
42.1955
  0
LINE
  8
0
 10
38.1564
 20
42.1955
 11
38.2022
 21
42.3863
  0
LINE
  8
0
 10
38.2022
 20
42.3863
 11
38.2772
 21
42.5675
  0
LINE
  8
0
 10
38.2772
 20
42.5675
 11
38.3797
 21
42.7347
  0
LINE
  8
0
 10
38.3797
 20
42.7347
 11
38.5071
 21
42.8839
  0
LINE
  8
0
 10
38.5071
 20
42.8839
 11
38.6563
 21
43.0113
  0
LINE
  8
0
 10
38.6563
 20
43.0113
 11
38.8235
 21
43.1138
  0
LINE
  8
0
 10
38.8235
 20
43.1138
 11
39.0047
 21
43.1888
  0
LINE
  8
0
 10
39.0047
 20
43.1888
 11
39.1954
 21
43.2346
  0
LINE
  8
0
 10
39.1954
 20
43.2346
 11
39.391
 21
43.25
  0
LINE
  8
0
 10
39.391
 20
43.25
 11
39.5865
 21
43.2346
  0
LINE
  8
0
 10
39.5865
 20
43.2346
 11
39.7773
 21
43.1888
  0
LINE
  8
0
 10
39.7773
 20
43.1888
 11
39.9585
 21
43.1138
  0
LINE
  8
0
 10
39.9585
 20
43.1138
 11
40.1257
 21
43.0113
  0
LINE
  8
0
 10
40.1257
 20
43.0113
 11
40.2749
 21
42.8839
  0
LINE
  8
0
 10
40.2749
 20
42.8839
 11
40.4023
 21
42.7347
  0
LINE
  8
0
 10
40.4023
 20
42.7347
 11
40.5047
 21
42.5675
  0
LINE
  8
0
 10
40.5047
 20
42.5675
 11
40.5798
 21
42.3863
  0
LINE
  8
0
 10
40.5798
 20
42.3863
 11
40.6256
 21
42.1955
  0
LINE
  8
0
 10
40.6256
 20
42.1955
 11
40.641
 21
42
  0
LINE
  8
0
 10
40.641
 20
42
 11
40.6256
 21
41.8044
  0
LINE
  8
0
 10
40.6256
 20
41.8044
 11
40.5798
 21
41.6137
  0
LINE
  8
0
 10
40.5798
 20
41.6137
 11
40.5047
 21
41.4325
  0
LINE
  8
0
 10
40.5047
 20
41.4325
 11
40.4023
 21
41.2653
  0
LINE
  8
0
 10
40.4023
 20
41.2653
 11
40.2749
 21
41.1161
  0
LINE
  8
0
 10
40.2749
 20
41.1161
 11
40.1257
 21
40.9887
  0
LINE
  8
0
 10
40.1257
 20
40.9887
 11
39.9585
 21
40.8862
  0
LINE
  8
0
 10
39.9585
 20
40.8862
 11
39.7773
 21
40.8112
  0
LINE
  8
0
 10
39.7773
 20
40.8112
 11
39.5865
 21
40.7654
  0
LINE
  8
0
 10
39.5865
 20
40.7654
 11
39.391
 21
40.75
  0
LINE
  8
0
 10
39.391
 20
40.75
 11
39.1954
 21
40.7654
  0
LINE
  8
0
 10
294.832
 20
24.5
 11
294.832
 21
38.5
  0
LINE
  8
0
 10
294.832
 20
38.5
 11
308.832
 21
38.5
  0
LINE
  8
0
 10
308.832
 20
38.5
 11
308.832
 21
24.5
  0
LINE
  8
0
 10
308.832
 20
24.5
 11
294.832
 21
24.5
  0
LINE
  8
0
 10
122.532
 20
24.5
 11
122.532
 21
38.5
  0
LINE
  8
0
 10
122.532
 20
38.5
 11
136.532
 21
38.5
  0
LINE
  8
0
 10
136.532
 20
38.5
 11
136.532
 21
24.5
  0
LINE
  8
0
 10
136.532
 20
24.5
 11
122.532
 21
24.5
  0
LINE
  8
0
 10
425.882
 20
11.5
 11
425.882
 21
33.5
  0
LINE
  8
0
 10
425.882
 20
33.5
 11
447.882
 21
33.5
  0
LINE
  8
0
 10
447.882
 20
33.5
 11
447.882
 21
11.5
  0
LINE
  8
0
 10
447.882
 20
11.5
 11
425.882
 21
11.5
  0
LINE
  8
0
 10
104.532
 20
15.5
 11
104.532
 21
29.5
  0
LINE
  8
0
 10
104.532
 20
29.5
 11
118.532
 21
29.5
  0
LINE
  8
0
 10
118.532
 20
29.5
 11
118.532
 21
15.5
  0
LINE
  8
0
 10
118.532
 20
15.5
 11
104.532
 21
15.5
  0
LINE
  8
0
 10
276.832
 20
15.5
 11
276.832
 21
29.5
  0
LINE
  8
0
 10
276.832
 20
29.5
 11
290.832
 21
29.5
  0
LINE
  8
0
 10
290.832
 20
29.5
 11
290.832
 21
15.5
  0
LINE
  8
0
 10
290.832
 20
15.5
 11
276.832
 21
15.5
  0
LINE
  8
0
 10
256.832
 20
15.5
 11
256.832
 21
29.5
  0
LINE
  8
0
 10
256.832
 20
29.5
 11
270.832
 21
29.5
  0
LINE
  8
0
 10
270.832
 20
29.5
 11
270.832
 21
15.5
  0
LINE
  8
0
 10
270.832
 20
15.5
 11
256.832
 21
15.5
  0
LINE
  8
0
 10
236.832
 20
15.5
 11
236.832
 21
29.5
  0
LINE
  8
0
 10
236.832
 20
29.5
 11
250.832
 21
29.5
  0
LINE
  8
0
 10
250.832
 20
29.5
 11
250.832
 21
15.5
  0
LINE
  8
0
 10
250.832
 20
15.5
 11
236.832
 21
15.5
  0
LINE
  8
0
 10
84.532
 20
15.5
 11
84.532
 21
29.5
  0
LINE
  8
0
 10
84.532
 20
29.5
 11
98.532
 21
29.5
  0
LINE
  8
0
 10
98.532
 20
29.5
 11
98.532
 21
15.5
  0
LINE
  8
0
 10
98.532
 20
15.5
 11
84.532
 21
15.5
  0
LINE
  8
0
 10
64.532
 20
15.5
 11
64.532
 21
29.5
  0
LINE
  8
0
 10
64.532
 20
29.5
 11
78.532
 21
29.5
  0
LINE
  8
0
 10
78.532
 20
29.5
 11
78.532
 21
15.5
  0
LINE
  8
0
 10
78.532
 20
15.5
 11
64.532
 21
15.5
  0
LINE
  8
0
 10
294.832
 20
6.5
 11
294.832
 21
20.5
  0
LINE
  8
0
 10
294.832
 20
20.5
 11
308.832
 21
20.5
  0
LINE
  8
0
 10
308.832
 20
20.5
 11
308.832
 21
6.5
  0
LINE
  8
0
 10
308.832
 20
6.5
 11
294.832
 21
6.5
  0
LINE
  8
0
 10
312.832
 20
6.5
 11
312.832
 21
20.5
  0
LINE
  8
0
 10
312.832
 20
20.5
 11
326.832
 21
20.5
  0
LINE
  8
0
 10
326.832
 20
20.5
 11
326.832
 21
6.5
  0
LINE
  8
0
 10
326.832
 20
6.5
 11
312.832
 21
6.5
  0
LINE
  8
0
 10
122.532
 20
6.5
 11
122.532
 21
20.5
  0
LINE
  8
0
 10
122.532
 20
20.5
 11
136.532
 21
20.5
  0
LINE
  8
0
 10
136.532
 20
20.5
 11
136.532
 21
6.5
  0
LINE
  8
0
 10
136.532
 20
6.5
 11
122.532
 21
6.5
  0
LINE
  8
0
 10
39.1954
 20
1.76538
 11
39.0047
 21
1.81117
  0
LINE
  8
0
 10
39.0047
 20
1.81117
 11
38.8235
 21
1.88623
  0
LINE
  8
0
 10
38.8235
 20
1.88623
 11
38.6563
 21
1.98872
  0
LINE
  8
0
 10
38.6563
 20
1.98872
 11
38.5071
 21
2.1161
  0
LINE
  8
0
 10
38.5071
 20
2.1161
 11
38.3797
 21
2.26526
  0
LINE
  8
0
 10
38.3797
 20
2.26526
 11
38.2772
 21
2.43251
  0
LINE
  8
0
 10
38.2772
 20
2.43251
 11
38.2022
 21
2.61372
  0
LINE
  8
0
 10
38.2022
 20
2.61372
 11
38.1564
 21
2.80444
  0
LINE
  8
0
 10
38.1564
 20
2.80444
 11
38.141
 21
3
  0
LINE
  8
0
 10
38.141
 20
3
 11
38.1564
 21
3.19554
  0
LINE
  8
0
 10
38.1564
 20
3.19554
 11
38.2022
 21
3.38626
  0
LINE
  8
0
 10
38.2022
 20
3.38626
 11
38.2772
 21
3.56747
  0
LINE
  8
0
 10
38.2772
 20
3.56747
 11
38.3797
 21
3.73473
  0
LINE
  8
0
 10
38.3797
 20
3.73473
 11
38.5071
 21
3.88388
  0
LINE
  8
0
 10
38.5071
 20
3.88388
 11
38.6563
 21
4.01126
  0
LINE
  8
0
 10
38.6563
 20
4.01126
 11
38.8235
 21
4.11375
  0
LINE
  8
0
 10
38.8235
 20
4.11375
 11
39.0047
 21
4.18881
  0
LINE
  8
0
 10
39.0047
 20
4.18881
 11
39.1954
 21
4.2346
  0
LINE
  8
0
 10
39.1954
 20
4.2346
 11
39.391
 21
4.25
  0
LINE
  8
0
 10
39.391
 20
4.25
 11
39.5865
 21
4.2346
  0
LINE
  8
0
 10
39.5865
 20
4.2346
 11
39.7773
 21
4.18881
  0
LINE
  8
0
 10
39.7773
 20
4.18881
 11
39.9585
 21
4.11375
  0
LINE
  8
0
 10
39.9585
 20
4.11375
 11
40.1257
 21
4.01126
  0
LINE
  8
0
 10
40.1257
 20
4.01126
 11
40.2749
 21
3.88388
  0
LINE
  8
0
 10
40.2749
 20
3.88388
 11
40.4023
 21
3.73473
  0
LINE
  8
0
 10
40.4023
 20
3.73473
 11
40.5047
 21
3.56747
  0
LINE
  8
0
 10
40.5047
 20
3.56747
 11
40.5798
 21
3.38626
  0
LINE
  8
0
 10
40.5798
 20
3.38626
 11
40.6256
 21
3.19554
  0
LINE
  8
0
 10
40.6256
 20
3.19554
 11
40.641
 21
3
  0
LINE
  8
0
 10
40.641
 20
3
 11
40.6256
 21
2.80444
  0
LINE
  8
0
 10
40.6256
 20
2.80444
 11
40.5798
 21
2.61372
  0
LINE
  8
0
 10
40.5798
 20
2.61372
 11
40.5047
 21
2.43251
  0
LINE
  8
0
 10
40.5047
 20
2.43251
 11
40.4023
 21
2.26526
  0
LINE
  8
0
 10
40.4023
 20
2.26526
 11
40.2749
 21
2.1161
  0
LINE
  8
0
 10
40.2749
 20
2.1161
 11
40.1257
 21
1.98872
  0
LINE
  8
0
 10
40.1257
 20
1.98872
 11
39.9585
 21
1.88623
  0
LINE
  8
0
 10
39.9585
 20
1.88623
 11
39.7773
 21
1.81117
  0
LINE
  8
0
 10
39.7773
 20
1.81117
 11
39.5865
 21
1.76538
  0
LINE
  8
0
 10
39.5865
 20
1.76538
 11
39.391
 21
1.75
  0
LINE
  8
0
 10
39.391
 20
1.75
 11
39.1954
 21
1.76538
  0
LINE
  8
0
 10
186.486
 20
1.76538
 11
186.296
 21
1.81117
  0
LINE
  8
0
 10
186.296
 20
1.81117
 11
186.115
 21
1.88623
  0
LINE
  8
0
 10
186.115
 20
1.88623
 11
185.947
 21
1.98872
  0
LINE
  8
0
 10
185.947
 20
1.98872
 11
185.798
 21
2.1161
  0
LINE
  8
0
 10
185.798
 20
2.1161
 11
185.671
 21
2.26526
  0
LINE
  8
0
 10
185.671
 20
2.26526
 11
185.568
 21
2.43251
  0
LINE
  8
0
 10
185.568
 20
2.43251
 11
185.493
 21
2.61372
  0
LINE
  8
0
 10
185.493
 20
2.61372
 11
185.447
 21
2.80444
  0
LINE
  8
0
 10
185.447
 20
2.80444
 11
185.432
 21
3
  0
LINE
  8
0
 10
185.432
 20
3
 11
185.447
 21
3.19554
  0
LINE
  8
0
 10
185.447
 20
3.19554
 11
185.493
 21
3.38626
  0
LINE
  8
0
 10
185.493
 20
3.38626
 11
185.568
 21
3.56747
  0
LINE
  8
0
 10
185.568
 20
3.56747
 11
185.671
 21
3.73473
  0
LINE
  8
0
 10
185.671
 20
3.73473
 11
185.798
 21
3.88388
  0
LINE
  8
0
 10
185.798
 20
3.88388
 11
185.947
 21
4.01126
  0
LINE
  8
0
 10
185.947
 20
4.01126
 11
186.115
 21
4.11375
  0
LINE
  8
0
 10
186.115
 20
4.11375
 11
186.296
 21
4.18881
  0
LINE
  8
0
 10
186.296
 20
4.18881
 11
186.486
 21
4.2346
  0
LINE
  8
0
 10
186.486
 20
4.2346
 11
186.682
 21
4.25
  0
LINE
  8
0
 10
186.682
 20
4.25
 11
186.878
 21
4.2346
  0
LINE
  8
0
 10
186.878
 20
4.2346
 11
187.068
 21
4.18881
  0
LINE
  8
0
 10
187.068
 20
4.18881
 11
187.249
 21
4.11375
  0
LINE
  8
0
 10
187.249
 20
4.11375
 11
187.417
 21
4.01126
  0
LINE
  8
0
 10
187.417
 20
4.01126
 11
187.566
 21
3.88388
  0
LINE
  8
0
 10
187.566
 20
3.88388
 11
187.693
 21
3.73473
  0
LINE
  8
0
 10
187.693
 20
3.73473
 11
187.796
 21
3.56747
  0
LINE
  8
0
 10
187.796
 20
3.56747
 11
187.871
 21
3.38626
  0
LINE
  8
0
 10
187.871
 20
3.38626
 11
187.917
 21
3.19554
  0
LINE
  8
0
 10
187.917
 20
3.19554
 11
187.932
 21
3
  0
LINE
  8
0
 10
187.932
 20
3
 11
187.917
 21
2.80444
  0
LINE
  8
0
 10
187.917
 20
2.80444
 11
187.871
 21
2.61372
  0
LINE
  8
0
 10
187.871
 20
2.61372
 11
187.796
 21
2.43251
  0
LINE
  8
0
 10
187.796
 20
2.43251
 11
187.693
 21
2.26526
  0
LINE
  8
0
 10
187.693
 20
2.26526
 11
187.566
 21
2.1161
  0
LINE
  8
0
 10
187.566
 20
2.1161
 11
187.417
 21
1.98872
  0
LINE
  8
0
 10
187.417
 20
1.98872
 11
187.249
 21
1.88623
  0
LINE
  8
0
 10
187.249
 20
1.88623
 11
187.068
 21
1.81117
  0
LINE
  8
0
 10
187.068
 20
1.81117
 11
186.878
 21
1.76538
  0
LINE
  8
0
 10
186.878
 20
1.76538
 11
186.682
 21
1.75
  0
LINE
  8
0
 10
186.682
 20
1.75
 11
186.486
 21
1.76538
  0
LINE
  8
0
 10
436.686
 20
1.76538
 11
436.496
 21
1.81117
  0
LINE
  8
0
 10
436.496
 20
1.81117
 11
436.314
 21
1.88623
  0
LINE
  8
0
 10
436.314
 20
1.88623
 11
436.147
 21
1.98872
  0
LINE
  8
0
 10
436.147
 20
1.98872
 11
435.998
 21
2.1161
  0
LINE
  8
0
 10
435.998
 20
2.1161
 11
435.871
 21
2.26526
  0
LINE
  8
0
 10
435.871
 20
2.26526
 11
435.768
 21
2.43251
  0
LINE
  8
0
 10
435.768
 20
2.43251
 11
435.693
 21
2.61372
  0
LINE
  8
0
 10
435.693
 20
2.61372
 11
435.647
 21
2.80444
  0
LINE
  8
0
 10
435.647
 20
2.80444
 11
435.632
 21
3
  0
LINE
  8
0
 10
435.632
 20
3
 11
435.647
 21
3.19554
  0
LINE
  8
0
 10
435.647
 20
3.19554
 11
435.693
 21
3.38626
  0
LINE
  8
0
 10
435.693
 20
3.38626
 11
435.768
 21
3.56747
  0
LINE
  8
0
 10
435.768
 20
3.56747
 11
435.871
 21
3.73473
  0
LINE
  8
0
 10
435.871
 20
3.73473
 11
435.998
 21
3.88388
  0
LINE
  8
0
 10
435.998
 20
3.88388
 11
436.147
 21
4.01126
  0
LINE
  8
0
 10
436.147
 20
4.01126
 11
436.314
 21
4.11375
  0
LINE
  8
0
 10
436.314
 20
4.11375
 11
436.496
 21
4.18881
  0
LINE
  8
0
 10
436.496
 20
4.18881
 11
436.686
 21
4.2346
  0
LINE
  8
0
 10
436.686
 20
4.2346
 11
436.882
 21
4.25
  0
LINE
  8
0
 10
436.882
 20
4.25
 11
437.078
 21
4.2346
  0
LINE
  8
0
 10
437.078
 20
4.2346
 11
437.268
 21
4.18881
  0
LINE
  8
0
 10
437.268
 20
4.18881
 11
437.449
 21
4.11375
  0
LINE
  8
0
 10
437.449
 20
4.11375
 11
437.617
 21
4.01126
  0
LINE
  8
0
 10
437.617
 20
4.01126
 11
437.766
 21
3.88388
  0
LINE
  8
0
 10
437.766
 20
3.88388
 11
437.893
 21
3.73473
  0
LINE
  8
0
 10
437.893
 20
3.73473
 11
437.996
 21
3.56747
  0
LINE
  8
0
 10
437.996
 20
3.56747
 11
438.071
 21
3.38626
  0
LINE
  8
0
 10
438.071
 20
3.38626
 11
438.117
 21
3.19554
  0
LINE
  8
0
 10
438.117
 20
3.19554
 11
438.132
 21
3
  0
LINE
  8
0
 10
438.132
 20
3
 11
438.117
 21
2.80444
  0
LINE
  8
0
 10
438.117
 20
2.80444
 11
438.071
 21
2.61372
  0
LINE
  8
0
 10
438.071
 20
2.61372
 11
437.996
 21
2.43251
  0
LINE
  8
0
 10
437.996
 20
2.43251
 11
437.893
 21
2.26526
  0
LINE
  8
0
 10
437.893
 20
2.26526
 11
437.766
 21
2.1161
  0
LINE
  8
0
 10
437.766
 20
2.1161
 11
437.617
 21
1.98872
  0
LINE
  8
0
 10
437.617
 20
1.98872
 11
437.449
 21
1.88623
  0
LINE
  8
0
 10
437.449
 20
1.88623
 11
437.268
 21
1.81117
  0
LINE
  8
0
 10
437.268
 20
1.81117
 11
437.078
 21
1.76538
  0
LINE
  8
0
 10
437.078
 20
1.76538
 11
436.882
 21
1.75
  0
LINE
  8
0
 10
436.882
 20
1.75
 11
436.686
 21
1.76538
  0
ENDSEC
  0
SECTION
  2
OBJECTS
  0
DICTIONARY
  0
ENDSEC
  0
EOF
