  0
SECTION
  2
BLOCKS
  0
ENDSEC
  0
SECTION
  2
ENTITIES
  0
LINE
  8
0
 10
384.164
 20
44.8
 11
0
 21
44.8
  0
LINE
  8
0
 10
0
 20
44.8
 11
0
 21
0.199997
  0
LINE
  8
0
 10
0
 20
0.199997
 11
384.164
 21
0.199997
  0
LINE
  8
0
 10
384.164
 20
0.199997
 11
384.164
 21
44.8
  0
LINE
  8
0
 10
339.918
 20
40.7654
 11
339.728
 21
40.8112
  0
LINE
  8
0
 10
339.728
 20
40.8112
 11
339.547
 21
40.8862
  0
LINE
  8
0
 10
339.547
 20
40.8862
 11
339.379
 21
40.9887
  0
LINE
  8
0
 10
339.379
 20
40.9887
 11
339.23
 21
41.1161
  0
LINE
  8
0
 10
339.23
 20
41.1161
 11
339.103
 21
41.2653
  0
LINE
  8
0
 10
339.103
 20
41.2653
 11
339
 21
41.4325
  0
LINE
  8
0
 10
339
 20
41.4325
 11
338.925
 21
41.6137
  0
LINE
  8
0
 10
338.925
 20
41.6137
 11
338.879
 21
41.8044
  0
LINE
  8
0
 10
338.879
 20
41.8044
 11
338.864
 21
42
  0
LINE
  8
0
 10
338.864
 20
42
 11
338.879
 21
42.1955
  0
LINE
  8
0
 10
338.879
 20
42.1955
 11
338.925
 21
42.3863
  0
LINE
  8
0
 10
338.925
 20
42.3863
 11
339
 21
42.5675
  0
LINE
  8
0
 10
339
 20
42.5675
 11
339.103
 21
42.7347
  0
LINE
  8
0
 10
339.103
 20
42.7347
 11
339.23
 21
42.8839
  0
LINE
  8
0
 10
339.23
 20
42.8839
 11
339.379
 21
43.0113
  0
LINE
  8
0
 10
339.379
 20
43.0113
 11
339.547
 21
43.1138
  0
LINE
  8
0
 10
339.547
 20
43.1138
 11
339.728
 21
43.1888
  0
LINE
  8
0
 10
339.728
 20
43.1888
 11
339.918
 21
43.2346
  0
LINE
  8
0
 10
339.918
 20
43.2346
 11
340.114
 21
43.25
  0
LINE
  8
0
 10
340.114
 20
43.25
 11
340.31
 21
43.2346
  0
LINE
  8
0
 10
340.31
 20
43.2346
 11
340.5
 21
43.1888
  0
LINE
  8
0
 10
340.5
 20
43.1888
 11
340.681
 21
43.1138
  0
LINE
  8
0
 10
340.681
 20
43.1138
 11
340.849
 21
43.0113
  0
LINE
  8
0
 10
340.849
 20
43.0113
 11
340.998
 21
42.8839
  0
LINE
  8
0
 10
340.998
 20
42.8839
 11
341.125
 21
42.7347
  0
LINE
  8
0
 10
341.125
 20
42.7347
 11
341.228
 21
42.5675
  0
LINE
  8
0
 10
341.228
 20
42.5675
 11
341.303
 21
42.3863
  0
LINE
  8
0
 10
341.303
 20
42.3863
 11
341.349
 21
42.1955
  0
LINE
  8
0
 10
341.349
 20
42.1955
 11
341.364
 21
42
  0
LINE
  8
0
 10
341.364
 20
42
 11
341.349
 21
41.8044
  0
LINE
  8
0
 10
341.349
 20
41.8044
 11
341.303
 21
41.6137
  0
LINE
  8
0
 10
341.303
 20
41.6137
 11
341.228
 21
41.4325
  0
LINE
  8
0
 10
341.228
 20
41.4325
 11
341.125
 21
41.2653
  0
LINE
  8
0
 10
341.125
 20
41.2653
 11
340.998
 21
41.1161
  0
LINE
  8
0
 10
340.998
 20
41.1161
 11
340.849
 21
40.9887
  0
LINE
  8
0
 10
340.849
 20
40.9887
 11
340.681
 21
40.8862
  0
LINE
  8
0
 10
340.681
 20
40.8862
 11
340.5
 21
40.8112
  0
LINE
  8
0
 10
340.5
 20
40.8112
 11
340.31
 21
40.7654
  0
LINE
  8
0
 10
340.31
 20
40.7654
 11
340.114
 21
40.75
  0
LINE
  8
0
 10
340.114
 20
40.75
 11
339.918
 21
40.7654
  0
LINE
  8
0
 10
167.102
 20
40.7654
 11
166.912
 21
40.8112
  0
LINE
  8
0
 10
166.912
 20
40.8112
 11
166.73
 21
40.8862
  0
LINE
  8
0
 10
166.73
 20
40.8862
 11
166.563
 21
40.9887
  0
LINE
  8
0
 10
166.563
 20
40.9887
 11
166.414
 21
41.1161
  0
LINE
  8
0
 10
166.414
 20
41.1161
 11
166.287
 21
41.2653
  0
LINE
  8
0
 10
166.287
 20
41.2653
 11
166.184
 21
41.4325
  0
LINE
  8
0
 10
166.184
 20
41.4325
 11
166.109
 21
41.6137
  0
LINE
  8
0
 10
166.109
 20
41.6137
 11
166.063
 21
41.8044
  0
LINE
  8
0
 10
166.063
 20
41.8044
 11
166.048
 21
42
  0
LINE
  8
0
 10
166.048
 20
42
 11
166.063
 21
42.1955
  0
LINE
  8
0
 10
166.063
 20
42.1955
 11
166.109
 21
42.3863
  0
LINE
  8
0
 10
166.109
 20
42.3863
 11
166.184
 21
42.5675
  0
LINE
  8
0
 10
166.184
 20
42.5675
 11
166.287
 21
42.7347
  0
LINE
  8
0
 10
166.287
 20
42.7347
 11
166.414
 21
42.8839
  0
LINE
  8
0
 10
166.414
 20
42.8839
 11
166.563
 21
43.0113
  0
LINE
  8
0
 10
166.563
 20
43.0113
 11
166.73
 21
43.1138
  0
LINE
  8
0
 10
166.73
 20
43.1138
 11
166.912
 21
43.1888
  0
LINE
  8
0
 10
166.912
 20
43.1888
 11
167.102
 21
43.2346
  0
LINE
  8
0
 10
167.102
 20
43.2346
 11
167.298
 21
43.25
  0
LINE
  8
0
 10
167.298
 20
43.25
 11
167.494
 21
43.2346
  0
LINE
  8
0
 10
167.494
 20
43.2346
 11
167.684
 21
43.1888
  0
LINE
  8
0
 10
167.684
 20
43.1888
 11
167.865
 21
43.1138
  0
LINE
  8
0
 10
167.865
 20
43.1138
 11
168.033
 21
43.0113
  0
LINE
  8
0
 10
168.033
 20
43.0113
 11
168.182
 21
42.8839
  0
LINE
  8
0
 10
168.182
 20
42.8839
 11
168.309
 21
42.7347
  0
LINE
  8
0
 10
168.309
 20
42.7347
 11
168.412
 21
42.5675
  0
LINE
  8
0
 10
168.412
 20
42.5675
 11
168.487
 21
42.3863
  0
LINE
  8
0
 10
168.487
 20
42.3863
 11
168.533
 21
42.1955
  0
LINE
  8
0
 10
168.533
 20
42.1955
 11
168.548
 21
42
  0
LINE
  8
0
 10
168.548
 20
42
 11
168.533
 21
41.8044
  0
LINE
  8
0
 10
168.533
 20
41.8044
 11
168.487
 21
41.6137
  0
LINE
  8
0
 10
168.487
 20
41.6137
 11
168.412
 21
41.4325
  0
LINE
  8
0
 10
168.412
 20
41.4325
 11
168.309
 21
41.2653
  0
LINE
  8
0
 10
168.309
 20
41.2653
 11
168.182
 21
41.1161
  0
LINE
  8
0
 10
168.182
 20
41.1161
 11
168.033
 21
40.9887
  0
LINE
  8
0
 10
168.033
 20
40.9887
 11
167.865
 21
40.8862
  0
LINE
  8
0
 10
167.865
 20
40.8862
 11
167.684
 21
40.8112
  0
LINE
  8
0
 10
167.684
 20
40.8112
 11
167.494
 21
40.7654
  0
LINE
  8
0
 10
167.494
 20
40.7654
 11
167.298
 21
40.75
  0
LINE
  8
0
 10
167.298
 20
40.75
 11
167.102
 21
40.7654
  0
LINE
  8
0
 10
39.1954
 20
40.7654
 11
39.0047
 21
40.8112
  0
LINE
  8
0
 10
39.0047
 20
40.8112
 11
38.8235
 21
40.8862
  0
LINE
  8
0
 10
38.8235
 20
40.8862
 11
38.6563
 21
40.9887
  0
LINE
  8
0
 10
38.6563
 20
40.9887
 11
38.5071
 21
41.1161
  0
LINE
  8
0
 10
38.5071
 20
41.1161
 11
38.3797
 21
41.2653
  0
LINE
  8
0
 10
38.3797
 20
41.2653
 11
38.2772
 21
41.4325
  0
LINE
  8
0
 10
38.2772
 20
41.4325
 11
38.2022
 21
41.6137
  0
LINE
  8
0
 10
38.2022
 20
41.6137
 11
38.1564
 21
41.8044
  0
LINE
  8
0
 10
38.1564
 20
41.8044
 11
38.141
 21
42
  0
LINE
  8
0
 10
38.141
 20
42
 11
38.1564
 21
42.1955
  0
LINE
  8
0
 10
38.1564
 20
42.1955
 11
38.2022
 21
42.3863
  0
LINE
  8
0
 10
38.2022
 20
42.3863
 11
38.2772
 21
42.5675
  0
LINE
  8
0
 10
38.2772
 20
42.5675
 11
38.3797
 21
42.7347
  0
LINE
  8
0
 10
38.3797
 20
42.7347
 11
38.5071
 21
42.8839
  0
LINE
  8
0
 10
38.5071
 20
42.8839
 11
38.6563
 21
43.0113
  0
LINE
  8
0
 10
38.6563
 20
43.0113
 11
38.8235
 21
43.1138
  0
LINE
  8
0
 10
38.8235
 20
43.1138
 11
39.0047
 21
43.1888
  0
LINE
  8
0
 10
39.0047
 20
43.1888
 11
39.1954
 21
43.2346
  0
LINE
  8
0
 10
39.1954
 20
43.2346
 11
39.391
 21
43.25
  0
LINE
  8
0
 10
39.391
 20
43.25
 11
39.5865
 21
43.2346
  0
LINE
  8
0
 10
39.5865
 20
43.2346
 11
39.7773
 21
43.1888
  0
LINE
  8
0
 10
39.7773
 20
43.1888
 11
39.9585
 21
43.1138
  0
LINE
  8
0
 10
39.9585
 20
43.1138
 11
40.1257
 21
43.0113
  0
LINE
  8
0
 10
40.1257
 20
43.0113
 11
40.2749
 21
42.8839
  0
LINE
  8
0
 10
40.2749
 20
42.8839
 11
40.4023
 21
42.7347
  0
LINE
  8
0
 10
40.4023
 20
42.7347
 11
40.5047
 21
42.5675
  0
LINE
  8
0
 10
40.5047
 20
42.5675
 11
40.5798
 21
42.3863
  0
LINE
  8
0
 10
40.5798
 20
42.3863
 11
40.6256
 21
42.1955
  0
LINE
  8
0
 10
40.6256
 20
42.1955
 11
40.641
 21
42
  0
LINE
  8
0
 10
40.641
 20
42
 11
40.6256
 21
41.8044
  0
LINE
  8
0
 10
40.6256
 20
41.8044
 11
40.5798
 21
41.6137
  0
LINE
  8
0
 10
40.5798
 20
41.6137
 11
40.5047
 21
41.4325
  0
LINE
  8
0
 10
40.5047
 20
41.4325
 11
40.4023
 21
41.2653
  0
LINE
  8
0
 10
40.4023
 20
41.2653
 11
40.2749
 21
41.1161
  0
LINE
  8
0
 10
40.2749
 20
41.1161
 11
40.1257
 21
40.9887
  0
LINE
  8
0
 10
40.1257
 20
40.9887
 11
39.9585
 21
40.8862
  0
LINE
  8
0
 10
39.9585
 20
40.8862
 11
39.7773
 21
40.8112
  0
LINE
  8
0
 10
39.7773
 20
40.8112
 11
39.5865
 21
40.7654
  0
LINE
  8
0
 10
39.5865
 20
40.7654
 11
39.391
 21
40.75
  0
LINE
  8
0
 10
39.391
 20
40.75
 11
39.1954
 21
40.7654
  0
LINE
  8
0
 10
256.064
 20
24.5
 11
256.064
 21
38.5
  0
LINE
  8
0
 10
256.064
 20
38.5
 11
270.064
 21
38.5
  0
LINE
  8
0
 10
270.064
 20
38.5
 11
270.064
 21
24.5
  0
LINE
  8
0
 10
270.064
 20
24.5
 11
256.064
 21
24.5
  0
LINE
  8
0
 10
122.532
 20
24.5
 11
122.532
 21
38.5
  0
LINE
  8
0
 10
122.532
 20
38.5
 11
136.532
 21
38.5
  0
LINE
  8
0
 10
136.532
 20
38.5
 11
136.532
 21
24.5
  0
LINE
  8
0
 10
136.532
 20
24.5
 11
122.532
 21
24.5
  0
LINE
  8
0
 10
329.114
 20
11.5
 11
329.114
 21
33.5
  0
LINE
  8
0
 10
329.114
 20
33.5
 11
351.114
 21
33.5
  0
LINE
  8
0
 10
351.114
 20
33.5
 11
351.114
 21
11.5
  0
LINE
  8
0
 10
351.114
 20
11.5
 11
329.114
 21
11.5
  0
LINE
  8
0
 10
104.532
 20
15.5
 11
104.532
 21
29.5
  0
LINE
  8
0
 10
104.532
 20
29.5
 11
118.532
 21
29.5
  0
LINE
  8
0
 10
118.532
 20
29.5
 11
118.532
 21
15.5
  0
LINE
  8
0
 10
118.532
 20
15.5
 11
104.532
 21
15.5
  0
LINE
  8
0
 10
238.064
 20
15.5
 11
238.064
 21
29.5
  0
LINE
  8
0
 10
238.064
 20
29.5
 11
252.064
 21
29.5
  0
LINE
  8
0
 10
252.064
 20
29.5
 11
252.064
 21
15.5
  0
LINE
  8
0
 10
252.064
 20
15.5
 11
238.064
 21
15.5
  0
LINE
  8
0
 10
218.064
 20
15.5
 11
218.064
 21
29.5
  0
LINE
  8
0
 10
218.064
 20
29.5
 11
232.064
 21
29.5
  0
LINE
  8
0
 10
232.064
 20
29.5
 11
232.064
 21
15.5
  0
LINE
  8
0
 10
232.064
 20
15.5
 11
218.064
 21
15.5
  0
LINE
  8
0
 10
198.064
 20
15.5
 11
198.064
 21
29.5
  0
LINE
  8
0
 10
198.064
 20
29.5
 11
212.064
 21
29.5
  0
LINE
  8
0
 10
212.064
 20
29.5
 11
212.064
 21
15.5
  0
LINE
  8
0
 10
212.064
 20
15.5
 11
198.064
 21
15.5
  0
LINE
  8
0
 10
84.532
 20
15.5
 11
84.532
 21
29.5
  0
LINE
  8
0
 10
84.532
 20
29.5
 11
98.532
 21
29.5
  0
LINE
  8
0
 10
98.532
 20
29.5
 11
98.532
 21
15.5
  0
LINE
  8
0
 10
98.532
 20
15.5
 11
84.532
 21
15.5
  0
LINE
  8
0
 10
64.532
 20
15.5
 11
64.532
 21
29.5
  0
LINE
  8
0
 10
64.532
 20
29.5
 11
78.532
 21
29.5
  0
LINE
  8
0
 10
78.532
 20
29.5
 11
78.532
 21
15.5
  0
LINE
  8
0
 10
78.532
 20
15.5
 11
64.532
 21
15.5
  0
LINE
  8
0
 10
256.064
 20
6.5
 11
256.064
 21
20.5
  0
LINE
  8
0
 10
256.064
 20
20.5
 11
270.064
 21
20.5
  0
LINE
  8
0
 10
270.064
 20
20.5
 11
270.064
 21
6.5
  0
LINE
  8
0
 10
270.064
 20
6.5
 11
256.064
 21
6.5
  0
LINE
  8
0
 10
274.064
 20
6.5
 11
274.064
 21
20.5
  0
LINE
  8
0
 10
274.064
 20
20.5
 11
288.064
 21
20.5
  0
LINE
  8
0
 10
288.064
 20
20.5
 11
288.064
 21
6.5
  0
LINE
  8
0
 10
288.064
 20
6.5
 11
274.064
 21
6.5
  0
LINE
  8
0
 10
122.532
 20
6.5
 11
122.532
 21
20.5
  0
LINE
  8
0
 10
122.532
 20
20.5
 11
136.532
 21
20.5
  0
LINE
  8
0
 10
136.532
 20
20.5
 11
136.532
 21
6.5
  0
LINE
  8
0
 10
136.532
 20
6.5
 11
122.532
 21
6.5
  0
LINE
  8
0
 10
39.1954
 20
1.76538
 11
39.0047
 21
1.81117
  0
LINE
  8
0
 10
39.0047
 20
1.81117
 11
38.8235
 21
1.88623
  0
LINE
  8
0
 10
38.8235
 20
1.88623
 11
38.6563
 21
1.98872
  0
LINE
  8
0
 10
38.6563
 20
1.98872
 11
38.5071
 21
2.1161
  0
LINE
  8
0
 10
38.5071
 20
2.1161
 11
38.3797
 21
2.26526
  0
LINE
  8
0
 10
38.3797
 20
2.26526
 11
38.2772
 21
2.43251
  0
LINE
  8
0
 10
38.2772
 20
2.43251
 11
38.2022
 21
2.61372
  0
LINE
  8
0
 10
38.2022
 20
2.61372
 11
38.1564
 21
2.80444
  0
LINE
  8
0
 10
38.1564
 20
2.80444
 11
38.141
 21
3
  0
LINE
  8
0
 10
38.141
 20
3
 11
38.1564
 21
3.19554
  0
LINE
  8
0
 10
38.1564
 20
3.19554
 11
38.2022
 21
3.38626
  0
LINE
  8
0
 10
38.2022
 20
3.38626
 11
38.2772
 21
3.56747
  0
LINE
  8
0
 10
38.2772
 20
3.56747
 11
38.3797
 21
3.73473
  0
LINE
  8
0
 10
38.3797
 20
3.73473
 11
38.5071
 21
3.88388
  0
LINE
  8
0
 10
38.5071
 20
3.88388
 11
38.6563
 21
4.01126
  0
LINE
  8
0
 10
38.6563
 20
4.01126
 11
38.8235
 21
4.11375
  0
LINE
  8
0
 10
38.8235
 20
4.11375
 11
39.0047
 21
4.18881
  0
LINE
  8
0
 10
39.0047
 20
4.18881
 11
39.1954
 21
4.2346
  0
LINE
  8
0
 10
39.1954
 20
4.2346
 11
39.391
 21
4.25
  0
LINE
  8
0
 10
39.391
 20
4.25
 11
39.5865
 21
4.2346
  0
LINE
  8
0
 10
39.5865
 20
4.2346
 11
39.7773
 21
4.18881
  0
LINE
  8
0
 10
39.7773
 20
4.18881
 11
39.9585
 21
4.11375
  0
LINE
  8
0
 10
39.9585
 20
4.11375
 11
40.1257
 21
4.01126
  0
LINE
  8
0
 10
40.1257
 20
4.01126
 11
40.2749
 21
3.88388
  0
LINE
  8
0
 10
40.2749
 20
3.88388
 11
40.4023
 21
3.73473
  0
LINE
  8
0
 10
40.4023
 20
3.73473
 11
40.5047
 21
3.56747
  0
LINE
  8
0
 10
40.5047
 20
3.56747
 11
40.5798
 21
3.38626
  0
LINE
  8
0
 10
40.5798
 20
3.38626
 11
40.6256
 21
3.19554
  0
LINE
  8
0
 10
40.6256
 20
3.19554
 11
40.641
 21
3
  0
LINE
  8
0
 10
40.641
 20
3
 11
40.6256
 21
2.80444
  0
LINE
  8
0
 10
40.6256
 20
2.80444
 11
40.5798
 21
2.61372
  0
LINE
  8
0
 10
40.5798
 20
2.61372
 11
40.5047
 21
2.43251
  0
LINE
  8
0
 10
40.5047
 20
2.43251
 11
40.4023
 21
2.26526
  0
LINE
  8
0
 10
40.4023
 20
2.26526
 11
40.2749
 21
2.1161
  0
LINE
  8
0
 10
40.2749
 20
2.1161
 11
40.1257
 21
1.98872
  0
LINE
  8
0
 10
40.1257
 20
1.98872
 11
39.9585
 21
1.88623
  0
LINE
  8
0
 10
39.9585
 20
1.88623
 11
39.7773
 21
1.81117
  0
LINE
  8
0
 10
39.7773
 20
1.81117
 11
39.5865
 21
1.76538
  0
LINE
  8
0
 10
39.5865
 20
1.76538
 11
39.391
 21
1.75
  0
LINE
  8
0
 10
39.391
 20
1.75
 11
39.1954
 21
1.76538
  0
LINE
  8
0
 10
167.102
 20
1.76538
 11
166.912
 21
1.81117
  0
LINE
  8
0
 10
166.912
 20
1.81117
 11
166.73
 21
1.88623
  0
LINE
  8
0
 10
166.73
 20
1.88623
 11
166.563
 21
1.98872
  0
LINE
  8
0
 10
166.563
 20
1.98872
 11
166.414
 21
2.1161
  0
LINE
  8
0
 10
166.414
 20
2.1161
 11
166.287
 21
2.26526
  0
LINE
  8
0
 10
166.287
 20
2.26526
 11
166.184
 21
2.43251
  0
LINE
  8
0
 10
166.184
 20
2.43251
 11
166.109
 21
2.61372
  0
LINE
  8
0
 10
166.109
 20
2.61372
 11
166.063
 21
2.80444
  0
LINE
  8
0
 10
166.063
 20
2.80444
 11
166.048
 21
3
  0
LINE
  8
0
 10
166.048
 20
3
 11
166.063
 21
3.19554
  0
LINE
  8
0
 10
166.063
 20
3.19554
 11
166.109
 21
3.38626
  0
LINE
  8
0
 10
166.109
 20
3.38626
 11
166.184
 21
3.56747
  0
LINE
  8
0
 10
166.184
 20
3.56747
 11
166.287
 21
3.73473
  0
LINE
  8
0
 10
166.287
 20
3.73473
 11
166.414
 21
3.88388
  0
LINE
  8
0
 10
166.414
 20
3.88388
 11
166.563
 21
4.01126
  0
LINE
  8
0
 10
166.563
 20
4.01126
 11
166.73
 21
4.11375
  0
LINE
  8
0
 10
166.73
 20
4.11375
 11
166.912
 21
4.18881
  0
LINE
  8
0
 10
166.912
 20
4.18881
 11
167.102
 21
4.2346
  0
LINE
  8
0
 10
167.102
 20
4.2346
 11
167.298
 21
4.25
  0
LINE
  8
0
 10
167.298
 20
4.25
 11
167.494
 21
4.2346
  0
LINE
  8
0
 10
167.494
 20
4.2346
 11
167.684
 21
4.18881
  0
LINE
  8
0
 10
167.684
 20
4.18881
 11
167.865
 21
4.11375
  0
LINE
  8
0
 10
167.865
 20
4.11375
 11
168.033
 21
4.01126
  0
LINE
  8
0
 10
168.033
 20
4.01126
 11
168.182
 21
3.88388
  0
LINE
  8
0
 10
168.182
 20
3.88388
 11
168.309
 21
3.73473
  0
LINE
  8
0
 10
168.309
 20
3.73473
 11
168.412
 21
3.56747
  0
LINE
  8
0
 10
168.412
 20
3.56747
 11
168.487
 21
3.38626
  0
LINE
  8
0
 10
168.487
 20
3.38626
 11
168.533
 21
3.19554
  0
LINE
  8
0
 10
168.533
 20
3.19554
 11
168.548
 21
3
  0
LINE
  8
0
 10
168.548
 20
3
 11
168.533
 21
2.80444
  0
LINE
  8
0
 10
168.533
 20
2.80444
 11
168.487
 21
2.61372
  0
LINE
  8
0
 10
168.487
 20
2.61372
 11
168.412
 21
2.43251
  0
LINE
  8
0
 10
168.412
 20
2.43251
 11
168.309
 21
2.26526
  0
LINE
  8
0
 10
168.309
 20
2.26526
 11
168.182
 21
2.1161
  0
LINE
  8
0
 10
168.182
 20
2.1161
 11
168.033
 21
1.98872
  0
LINE
  8
0
 10
168.033
 20
1.98872
 11
167.865
 21
1.88623
  0
LINE
  8
0
 10
167.865
 20
1.88623
 11
167.684
 21
1.81117
  0
LINE
  8
0
 10
167.684
 20
1.81117
 11
167.494
 21
1.76538
  0
LINE
  8
0
 10
167.494
 20
1.76538
 11
167.298
 21
1.75
  0
LINE
  8
0
 10
167.298
 20
1.75
 11
167.102
 21
1.76538
  0
LINE
  8
0
 10
339.918
 20
1.76538
 11
339.728
 21
1.81117
  0
LINE
  8
0
 10
339.728
 20
1.81117
 11
339.547
 21
1.88623
  0
LINE
  8
0
 10
339.547
 20
1.88623
 11
339.379
 21
1.98872
  0
LINE
  8
0
 10
339.379
 20
1.98872
 11
339.23
 21
2.1161
  0
LINE
  8
0
 10
339.23
 20
2.1161
 11
339.103
 21
2.26526
  0
LINE
  8
0
 10
339.103
 20
2.26526
 11
339
 21
2.43251
  0
LINE
  8
0
 10
339
 20
2.43251
 11
338.925
 21
2.61372
  0
LINE
  8
0
 10
338.925
 20
2.61372
 11
338.879
 21
2.80444
  0
LINE
  8
0
 10
338.879
 20
2.80444
 11
338.864
 21
3
  0
LINE
  8
0
 10
338.864
 20
3
 11
338.879
 21
3.19554
  0
LINE
  8
0
 10
338.879
 20
3.19554
 11
338.925
 21
3.38626
  0
LINE
  8
0
 10
338.925
 20
3.38626
 11
339
 21
3.56747
  0
LINE
  8
0
 10
339
 20
3.56747
 11
339.103
 21
3.73473
  0
LINE
  8
0
 10
339.103
 20
3.73473
 11
339.23
 21
3.88388
  0
LINE
  8
0
 10
339.23
 20
3.88388
 11
339.379
 21
4.01126
  0
LINE
  8
0
 10
339.379
 20
4.01126
 11
339.547
 21
4.11375
  0
LINE
  8
0
 10
339.547
 20
4.11375
 11
339.728
 21
4.18881
  0
LINE
  8
0
 10
339.728
 20
4.18881
 11
339.918
 21
4.2346
  0
LINE
  8
0
 10
339.918
 20
4.2346
 11
340.114
 21
4.25
  0
LINE
  8
0
 10
340.114
 20
4.25
 11
340.31
 21
4.2346
  0
LINE
  8
0
 10
340.31
 20
4.2346
 11
340.5
 21
4.18881
  0
LINE
  8
0
 10
340.5
 20
4.18881
 11
340.681
 21
4.11375
  0
LINE
  8
0
 10
340.681
 20
4.11375
 11
340.849
 21
4.01126
  0
LINE
  8
0
 10
340.849
 20
4.01126
 11
340.998
 21
3.88388
  0
LINE
  8
0
 10
340.998
 20
3.88388
 11
341.125
 21
3.73473
  0
LINE
  8
0
 10
341.125
 20
3.73473
 11
341.228
 21
3.56747
  0
LINE
  8
0
 10
341.228
 20
3.56747
 11
341.303
 21
3.38626
  0
LINE
  8
0
 10
341.303
 20
3.38626
 11
341.349
 21
3.19554
  0
LINE
  8
0
 10
341.349
 20
3.19554
 11
341.364
 21
3
  0
LINE
  8
0
 10
341.364
 20
3
 11
341.349
 21
2.80444
  0
LINE
  8
0
 10
341.349
 20
2.80444
 11
341.303
 21
2.61372
  0
LINE
  8
0
 10
341.303
 20
2.61372
 11
341.228
 21
2.43251
  0
LINE
  8
0
 10
341.228
 20
2.43251
 11
341.125
 21
2.26526
  0
LINE
  8
0
 10
341.125
 20
2.26526
 11
340.998
 21
2.1161
  0
LINE
  8
0
 10
340.998
 20
2.1161
 11
340.849
 21
1.98872
  0
LINE
  8
0
 10
340.849
 20
1.98872
 11
340.681
 21
1.88623
  0
LINE
  8
0
 10
340.681
 20
1.88623
 11
340.5
 21
1.81117
  0
LINE
  8
0
 10
340.5
 20
1.81117
 11
340.31
 21
1.76538
  0
LINE
  8
0
 10
340.31
 20
1.76538
 11
340.114
 21
1.75
  0
LINE
  8
0
 10
340.114
 20
1.75
 11
339.918
 21
1.76538
  0
ENDSEC
  0
SECTION
  2
OBJECTS
  0
DICTIONARY
  0
ENDSEC
  0
EOF
