  0
SECTION
  2
BLOCKS
  0
ENDSEC
  0
SECTION
  2
ENTITIES
  0
LINE
  8
0
 10
447
 20
53
 11
0
 21
53
  0
LINE
  8
0
 10
0
 20
53
 11
0
 21
0
  0
LINE
  8
0
 10
0
 20
0
 11
447
 21
0
  0
LINE
  8
0
 10
447
 20
0
 11
447
 21
53
  0
LINE
  8
0
 10
416.804
 20
44.7654
 11
416.614
 21
44.8112
  0
LINE
  8
0
 10
416.614
 20
44.8112
 11
416.433
 21
44.8862
  0
LINE
  8
0
 10
416.433
 20
44.8862
 11
416.265
 21
44.9887
  0
LINE
  8
0
 10
416.265
 20
44.9887
 11
416.116
 21
45.1161
  0
LINE
  8
0
 10
416.116
 20
45.1161
 11
415.989
 21
45.2653
  0
LINE
  8
0
 10
415.989
 20
45.2653
 11
415.886
 21
45.4325
  0
LINE
  8
0
 10
415.886
 20
45.4325
 11
415.811
 21
45.6137
  0
LINE
  8
0
 10
415.811
 20
45.6137
 11
415.765
 21
45.8044
  0
LINE
  8
0
 10
415.765
 20
45.8044
 11
415.75
 21
46
  0
LINE
  8
0
 10
415.75
 20
46
 11
415.765
 21
46.1955
  0
LINE
  8
0
 10
415.765
 20
46.1955
 11
415.811
 21
46.3863
  0
LINE
  8
0
 10
415.811
 20
46.3863
 11
415.886
 21
46.5675
  0
LINE
  8
0
 10
415.886
 20
46.5675
 11
415.989
 21
46.7347
  0
LINE
  8
0
 10
415.989
 20
46.7347
 11
416.116
 21
46.8839
  0
LINE
  8
0
 10
416.116
 20
46.8839
 11
416.265
 21
47.0113
  0
LINE
  8
0
 10
416.265
 20
47.0113
 11
416.433
 21
47.1138
  0
LINE
  8
0
 10
416.433
 20
47.1138
 11
416.614
 21
47.1888
  0
LINE
  8
0
 10
416.614
 20
47.1888
 11
416.804
 21
47.2346
  0
LINE
  8
0
 10
416.804
 20
47.2346
 11
417
 21
47.25
  0
LINE
  8
0
 10
417
 20
47.25
 11
417.196
 21
47.2346
  0
LINE
  8
0
 10
417.196
 20
47.2346
 11
417.386
 21
47.1888
  0
LINE
  8
0
 10
417.386
 20
47.1888
 11
417.567
 21
47.1138
  0
LINE
  8
0
 10
417.567
 20
47.1138
 11
417.735
 21
47.0113
  0
LINE
  8
0
 10
417.735
 20
47.0113
 11
417.884
 21
46.8839
  0
LINE
  8
0
 10
417.884
 20
46.8839
 11
418.011
 21
46.7347
  0
LINE
  8
0
 10
418.011
 20
46.7347
 11
418.114
 21
46.5675
  0
LINE
  8
0
 10
418.114
 20
46.5675
 11
418.189
 21
46.3863
  0
LINE
  8
0
 10
418.189
 20
46.3863
 11
418.235
 21
46.1955
  0
LINE
  8
0
 10
418.235
 20
46.1955
 11
418.25
 21
46
  0
LINE
  8
0
 10
418.25
 20
46
 11
418.235
 21
45.8044
  0
LINE
  8
0
 10
418.235
 20
45.8044
 11
418.189
 21
45.6137
  0
LINE
  8
0
 10
418.189
 20
45.6137
 11
418.114
 21
45.4325
  0
LINE
  8
0
 10
418.114
 20
45.4325
 11
418.011
 21
45.2653
  0
LINE
  8
0
 10
418.011
 20
45.2653
 11
417.884
 21
45.1161
  0
LINE
  8
0
 10
417.884
 20
45.1161
 11
417.735
 21
44.9887
  0
LINE
  8
0
 10
417.735
 20
44.9887
 11
417.567
 21
44.8862
  0
LINE
  8
0
 10
417.567
 20
44.8862
 11
417.386
 21
44.8112
  0
LINE
  8
0
 10
417.386
 20
44.8112
 11
417.196
 21
44.7654
  0
LINE
  8
0
 10
417.196
 20
44.7654
 11
417
 21
44.75
  0
LINE
  8
0
 10
417
 20
44.75
 11
416.804
 21
44.7654
  0
LINE
  8
0
 10
262.004
 20
44.7654
 11
261.814
 21
44.8112
  0
LINE
  8
0
 10
261.814
 20
44.8112
 11
261.633
 21
44.8862
  0
LINE
  8
0
 10
261.633
 20
44.8862
 11
261.465
 21
44.9887
  0
LINE
  8
0
 10
261.465
 20
44.9887
 11
261.316
 21
45.1161
  0
LINE
  8
0
 10
261.316
 20
45.1161
 11
261.189
 21
45.2653
  0
LINE
  8
0
 10
261.189
 20
45.2653
 11
261.086
 21
45.4325
  0
LINE
  8
0
 10
261.086
 20
45.4325
 11
261.011
 21
45.6137
  0
LINE
  8
0
 10
261.011
 20
45.6137
 11
260.965
 21
45.8044
  0
LINE
  8
0
 10
260.965
 20
45.8044
 11
260.95
 21
46
  0
LINE
  8
0
 10
260.95
 20
46
 11
260.965
 21
46.1955
  0
LINE
  8
0
 10
260.965
 20
46.1955
 11
261.011
 21
46.3863
  0
LINE
  8
0
 10
261.011
 20
46.3863
 11
261.086
 21
46.5675
  0
LINE
  8
0
 10
261.086
 20
46.5675
 11
261.189
 21
46.7347
  0
LINE
  8
0
 10
261.189
 20
46.7347
 11
261.316
 21
46.8839
  0
LINE
  8
0
 10
261.316
 20
46.8839
 11
261.465
 21
47.0113
  0
LINE
  8
0
 10
261.465
 20
47.0113
 11
261.633
 21
47.1138
  0
LINE
  8
0
 10
261.633
 20
47.1138
 11
261.814
 21
47.1888
  0
LINE
  8
0
 10
261.814
 20
47.1888
 11
262.004
 21
47.2346
  0
LINE
  8
0
 10
262.004
 20
47.2346
 11
262.2
 21
47.25
  0
LINE
  8
0
 10
262.2
 20
47.25
 11
262.396
 21
47.2346
  0
LINE
  8
0
 10
262.396
 20
47.2346
 11
262.586
 21
47.1888
  0
LINE
  8
0
 10
262.586
 20
47.1888
 11
262.767
 21
47.1138
  0
LINE
  8
0
 10
262.767
 20
47.1138
 11
262.935
 21
47.0113
  0
LINE
  8
0
 10
262.935
 20
47.0113
 11
263.084
 21
46.8839
  0
LINE
  8
0
 10
263.084
 20
46.8839
 11
263.211
 21
46.7347
  0
LINE
  8
0
 10
263.211
 20
46.7347
 11
263.314
 21
46.5675
  0
LINE
  8
0
 10
263.314
 20
46.5675
 11
263.389
 21
46.3863
  0
LINE
  8
0
 10
263.389
 20
46.3863
 11
263.435
 21
46.1955
  0
LINE
  8
0
 10
263.435
 20
46.1955
 11
263.45
 21
46
  0
LINE
  8
0
 10
263.45
 20
46
 11
263.435
 21
45.8044
  0
LINE
  8
0
 10
263.435
 20
45.8044
 11
263.389
 21
45.6137
  0
LINE
  8
0
 10
263.389
 20
45.6137
 11
263.314
 21
45.4325
  0
LINE
  8
0
 10
263.314
 20
45.4325
 11
263.211
 21
45.2653
  0
LINE
  8
0
 10
263.211
 20
45.2653
 11
263.084
 21
45.1161
  0
LINE
  8
0
 10
263.084
 20
45.1161
 11
262.935
 21
44.9887
  0
LINE
  8
0
 10
262.935
 20
44.9887
 11
262.767
 21
44.8862
  0
LINE
  8
0
 10
262.767
 20
44.8862
 11
262.586
 21
44.8112
  0
LINE
  8
0
 10
262.586
 20
44.8112
 11
262.396
 21
44.7654
  0
LINE
  8
0
 10
262.396
 20
44.7654
 11
262.2
 21
44.75
  0
LINE
  8
0
 10
262.2
 20
44.75
 11
262.004
 21
44.7654
  0
LINE
  8
0
 10
107.204
 20
44.7654
 11
107.014
 21
44.8112
  0
LINE
  8
0
 10
107.014
 20
44.8112
 11
106.833
 21
44.8862
  0
LINE
  8
0
 10
106.833
 20
44.8862
 11
106.665
 21
44.9887
  0
LINE
  8
0
 10
106.665
 20
44.9887
 11
106.516
 21
45.1161
  0
LINE
  8
0
 10
106.516
 20
45.1161
 11
106.389
 21
45.2653
  0
LINE
  8
0
 10
106.389
 20
45.2653
 11
106.286
 21
45.4325
  0
LINE
  8
0
 10
106.286
 20
45.4325
 11
106.211
 21
45.6137
  0
LINE
  8
0
 10
106.211
 20
45.6137
 11
106.165
 21
45.8044
  0
LINE
  8
0
 10
106.165
 20
45.8044
 11
106.15
 21
46
  0
LINE
  8
0
 10
106.15
 20
46
 11
106.165
 21
46.1955
  0
LINE
  8
0
 10
106.165
 20
46.1955
 11
106.211
 21
46.3863
  0
LINE
  8
0
 10
106.211
 20
46.3863
 11
106.286
 21
46.5675
  0
LINE
  8
0
 10
106.286
 20
46.5675
 11
106.389
 21
46.7347
  0
LINE
  8
0
 10
106.389
 20
46.7347
 11
106.516
 21
46.8839
  0
LINE
  8
0
 10
106.516
 20
46.8839
 11
106.665
 21
47.0113
  0
LINE
  8
0
 10
106.665
 20
47.0113
 11
106.833
 21
47.1138
  0
LINE
  8
0
 10
106.833
 20
47.1138
 11
107.014
 21
47.1888
  0
LINE
  8
0
 10
107.014
 20
47.1888
 11
107.204
 21
47.2346
  0
LINE
  8
0
 10
107.204
 20
47.2346
 11
107.4
 21
47.25
  0
LINE
  8
0
 10
107.4
 20
47.25
 11
107.596
 21
47.2346
  0
LINE
  8
0
 10
107.596
 20
47.2346
 11
107.786
 21
47.1888
  0
LINE
  8
0
 10
107.786
 20
47.1888
 11
107.967
 21
47.1138
  0
LINE
  8
0
 10
107.967
 20
47.1138
 11
108.135
 21
47.0113
  0
LINE
  8
0
 10
108.135
 20
47.0113
 11
108.284
 21
46.8839
  0
LINE
  8
0
 10
108.284
 20
46.8839
 11
108.411
 21
46.7347
  0
LINE
  8
0
 10
108.411
 20
46.7347
 11
108.514
 21
46.5675
  0
LINE
  8
0
 10
108.514
 20
46.5675
 11
108.589
 21
46.3863
  0
LINE
  8
0
 10
108.589
 20
46.3863
 11
108.635
 21
46.1955
  0
LINE
  8
0
 10
108.635
 20
46.1955
 11
108.65
 21
46
  0
LINE
  8
0
 10
108.65
 20
46
 11
108.635
 21
45.8044
  0
LINE
  8
0
 10
108.635
 20
45.8044
 11
108.589
 21
45.6137
  0
LINE
  8
0
 10
108.589
 20
45.6137
 11
108.514
 21
45.4325
  0
LINE
  8
0
 10
108.514
 20
45.4325
 11
108.411
 21
45.2653
  0
LINE
  8
0
 10
108.411
 20
45.2653
 11
108.284
 21
45.1161
  0
LINE
  8
0
 10
108.284
 20
45.1161
 11
108.135
 21
44.9887
  0
LINE
  8
0
 10
108.135
 20
44.9887
 11
107.967
 21
44.8862
  0
LINE
  8
0
 10
107.967
 20
44.8862
 11
107.786
 21
44.8112
  0
LINE
  8
0
 10
107.786
 20
44.8112
 11
107.596
 21
44.7654
  0
LINE
  8
0
 10
107.596
 20
44.7654
 11
107.4
 21
44.75
  0
LINE
  8
0
 10
107.4
 20
44.75
 11
107.204
 21
44.7654
  0
LINE
  8
0
 10
269
 20
19.5
 11
269
 21
33.5
  0
LINE
  8
0
 10
269
 20
33.5
 11
283
 21
33.5
  0
LINE
  8
0
 10
283
 20
33.5
 11
283
 21
19.5
  0
LINE
  8
0
 10
283
 20
19.5
 11
269
 21
19.5
  0
LINE
  8
0
 10
99
 20
19.5
 11
99
 21
33.5
  0
LINE
  8
0
 10
99
 20
33.5
 11
113
 21
33.5
  0
LINE
  8
0
 10
113
 20
33.5
 11
113
 21
19.5
  0
LINE
  8
0
 10
113
 20
19.5
 11
99
 21
19.5
  0
LINE
  8
0
 10
147
 20
19.5
 11
147
 21
33.5
  0
LINE
  8
0
 10
147
 20
33.5
 11
161
 21
33.5
  0
LINE
  8
0
 10
161
 20
33.5
 11
161
 21
19.5
  0
LINE
  8
0
 10
161
 20
19.5
 11
147
 21
19.5
  0
LINE
  8
0
 10
171
 20
19.5
 11
171
 21
33.5
  0
LINE
  8
0
 10
171
 20
33.5
 11
185
 21
33.5
  0
LINE
  8
0
 10
185
 20
33.5
 11
185
 21
19.5
  0
LINE
  8
0
 10
185
 20
19.5
 11
171
 21
19.5
  0
LINE
  8
0
 10
195
 20
19.5
 11
195
 21
33.5
  0
LINE
  8
0
 10
195
 20
33.5
 11
209
 21
33.5
  0
LINE
  8
0
 10
209
 20
33.5
 11
209
 21
19.5
  0
LINE
  8
0
 10
209
 20
19.5
 11
195
 21
19.5
  0
LINE
  8
0
 10
245
 20
19.5
 11
245
 21
33.5
  0
LINE
  8
0
 10
245
 20
33.5
 11
259
 21
33.5
  0
LINE
  8
0
 10
259
 20
33.5
 11
259
 21
19.5
  0
LINE
  8
0
 10
259
 20
19.5
 11
245
 21
19.5
  0
LINE
  8
0
 10
293
 20
19.5
 11
293
 21
33.5
  0
LINE
  8
0
 10
293
 20
33.5
 11
307
 21
33.5
  0
LINE
  8
0
 10
307
 20
33.5
 11
307
 21
19.5
  0
LINE
  8
0
 10
307
 20
19.5
 11
293
 21
19.5
  0
LINE
  8
0
 10
317
 20
19.5
 11
317
 21
33.5
  0
LINE
  8
0
 10
317
 20
33.5
 11
331
 21
33.5
  0
LINE
  8
0
 10
331
 20
33.5
 11
331
 21
19.5
  0
LINE
  8
0
 10
331
 20
19.5
 11
317
 21
19.5
  0
LINE
  8
0
 10
341
 20
19.5
 11
341
 21
33.5
  0
LINE
  8
0
 10
341
 20
33.5
 11
355
 21
33.5
  0
LINE
  8
0
 10
355
 20
33.5
 11
355
 21
19.5
  0
LINE
  8
0
 10
355
 20
19.5
 11
341
 21
19.5
  0
LINE
  8
0
 10
365
 20
19.5
 11
365
 21
33.5
  0
LINE
  8
0
 10
365
 20
33.5
 11
379
 21
33.5
  0
LINE
  8
0
 10
379
 20
33.5
 11
379
 21
19.5
  0
LINE
  8
0
 10
379
 20
19.5
 11
365
 21
19.5
  0
LINE
  8
0
 10
123
 20
19.5
 11
123
 21
33.5
  0
LINE
  8
0
 10
123
 20
33.5
 11
137
 21
33.5
  0
LINE
  8
0
 10
137
 20
33.5
 11
137
 21
19.5
  0
LINE
  8
0
 10
137
 20
19.5
 11
123
 21
19.5
  0
LINE
  8
0
 10
29.8044
 20
5.76538
 11
29.6137
 21
5.81117
  0
LINE
  8
0
 10
29.6137
 20
5.81117
 11
29.4325
 21
5.88623
  0
LINE
  8
0
 10
29.4325
 20
5.88623
 11
29.2653
 21
5.98872
  0
LINE
  8
0
 10
29.2653
 20
5.98872
 11
29.1161
 21
6.1161
  0
LINE
  8
0
 10
29.1161
 20
6.1161
 11
28.9887
 21
6.26526
  0
LINE
  8
0
 10
28.9887
 20
6.26526
 11
28.8862
 21
6.43251
  0
LINE
  8
0
 10
28.8862
 20
6.43251
 11
28.8112
 21
6.61372
  0
LINE
  8
0
 10
28.8112
 20
6.61372
 11
28.7654
 21
6.80444
  0
LINE
  8
0
 10
28.7654
 20
6.80444
 11
28.75
 21
7
  0
LINE
  8
0
 10
28.75
 20
7
 11
28.7654
 21
7.19554
  0
LINE
  8
0
 10
28.7654
 20
7.19554
 11
28.8112
 21
7.38626
  0
LINE
  8
0
 10
28.8112
 20
7.38626
 11
28.8862
 21
7.56747
  0
LINE
  8
0
 10
28.8862
 20
7.56747
 11
28.9887
 21
7.73473
  0
LINE
  8
0
 10
28.9887
 20
7.73473
 11
29.1161
 21
7.88388
  0
LINE
  8
0
 10
29.1161
 20
7.88388
 11
29.2653
 21
8.01126
  0
LINE
  8
0
 10
29.2653
 20
8.01126
 11
29.4325
 21
8.11375
  0
LINE
  8
0
 10
29.4325
 20
8.11375
 11
29.6137
 21
8.18881
  0
LINE
  8
0
 10
29.6137
 20
8.18881
 11
29.8044
 21
8.2346
  0
LINE
  8
0
 10
29.8044
 20
8.2346
 11
30
 21
8.25
  0
LINE
  8
0
 10
30
 20
8.25
 11
30.1955
 21
8.2346
  0
LINE
  8
0
 10
30.1955
 20
8.2346
 11
30.3863
 21
8.18881
  0
LINE
  8
0
 10
30.3863
 20
8.18881
 11
30.5675
 21
8.11375
  0
LINE
  8
0
 10
30.5675
 20
8.11375
 11
30.7347
 21
8.01126
  0
LINE
  8
0
 10
30.7347
 20
8.01126
 11
30.8839
 21
7.88388
  0
LINE
  8
0
 10
30.8839
 20
7.88388
 11
31.0113
 21
7.73473
  0
LINE
  8
0
 10
31.0113
 20
7.73473
 11
31.1138
 21
7.56747
  0
LINE
  8
0
 10
31.1138
 20
7.56747
 11
31.1888
 21
7.38626
  0
LINE
  8
0
 10
31.1888
 20
7.38626
 11
31.2346
 21
7.19554
  0
LINE
  8
0
 10
31.2346
 20
7.19554
 11
31.25
 21
7
  0
LINE
  8
0
 10
31.25
 20
7
 11
31.2346
 21
6.80444
  0
LINE
  8
0
 10
31.2346
 20
6.80444
 11
31.1888
 21
6.61372
  0
LINE
  8
0
 10
31.1888
 20
6.61372
 11
31.1138
 21
6.43251
  0
LINE
  8
0
 10
31.1138
 20
6.43251
 11
31.0113
 21
6.26526
  0
LINE
  8
0
 10
31.0113
 20
6.26526
 11
30.8839
 21
6.1161
  0
LINE
  8
0
 10
30.8839
 20
6.1161
 11
30.7347
 21
5.98872
  0
LINE
  8
0
 10
30.7347
 20
5.98872
 11
30.5675
 21
5.88623
  0
LINE
  8
0
 10
30.5675
 20
5.88623
 11
30.3863
 21
5.81117
  0
LINE
  8
0
 10
30.3863
 20
5.81117
 11
30.1955
 21
5.76538
  0
LINE
  8
0
 10
30.1955
 20
5.76538
 11
30
 21
5.75
  0
LINE
  8
0
 10
30
 20
5.75
 11
29.8044
 21
5.76538
  0
LINE
  8
0
 10
184.604
 20
5.76538
 11
184.414
 21
5.81117
  0
LINE
  8
0
 10
184.414
 20
5.81117
 11
184.232
 21
5.88623
  0
LINE
  8
0
 10
184.232
 20
5.88623
 11
184.065
 21
5.98872
  0
LINE
  8
0
 10
184.065
 20
5.98872
 11
183.916
 21
6.1161
  0
LINE
  8
0
 10
183.916
 20
6.1161
 11
183.789
 21
6.26526
  0
LINE
  8
0
 10
183.789
 20
6.26526
 11
183.686
 21
6.43251
  0
LINE
  8
0
 10
183.686
 20
6.43251
 11
183.611
 21
6.61372
  0
LINE
  8
0
 10
183.611
 20
6.61372
 11
183.565
 21
6.80444
  0
LINE
  8
0
 10
183.565
 20
6.80444
 11
183.55
 21
7
  0
LINE
  8
0
 10
183.55
 20
7
 11
183.565
 21
7.19554
  0
LINE
  8
0
 10
183.565
 20
7.19554
 11
183.611
 21
7.38626
  0
LINE
  8
0
 10
183.611
 20
7.38626
 11
183.686
 21
7.56747
  0
LINE
  8
0
 10
183.686
 20
7.56747
 11
183.789
 21
7.73473
  0
LINE
  8
0
 10
183.789
 20
7.73473
 11
183.916
 21
7.88388
  0
LINE
  8
0
 10
183.916
 20
7.88388
 11
184.065
 21
8.01126
  0
LINE
  8
0
 10
184.065
 20
8.01126
 11
184.232
 21
8.11375
  0
LINE
  8
0
 10
184.232
 20
8.11375
 11
184.414
 21
8.18881
  0
LINE
  8
0
 10
184.414
 20
8.18881
 11
184.604
 21
8.2346
  0
LINE
  8
0
 10
184.604
 20
8.2346
 11
184.8
 21
8.25
  0
LINE
  8
0
 10
184.8
 20
8.25
 11
184.996
 21
8.2346
  0
LINE
  8
0
 10
184.996
 20
8.2346
 11
185.186
 21
8.18881
  0
LINE
  8
0
 10
185.186
 20
8.18881
 11
185.367
 21
8.11375
  0
LINE
  8
0
 10
185.367
 20
8.11375
 11
185.535
 21
8.01126
  0
LINE
  8
0
 10
185.535
 20
8.01126
 11
185.684
 21
7.88388
  0
LINE
  8
0
 10
185.684
 20
7.88388
 11
185.811
 21
7.73473
  0
LINE
  8
0
 10
185.811
 20
7.73473
 11
185.914
 21
7.56747
  0
LINE
  8
0
 10
185.914
 20
7.56747
 11
185.989
 21
7.38626
  0
LINE
  8
0
 10
185.989
 20
7.38626
 11
186.035
 21
7.19554
  0
LINE
  8
0
 10
186.035
 20
7.19554
 11
186.05
 21
7
  0
LINE
  8
0
 10
186.05
 20
7
 11
186.035
 21
6.80444
  0
LINE
  8
0
 10
186.035
 20
6.80444
 11
185.989
 21
6.61372
  0
LINE
  8
0
 10
185.989
 20
6.61372
 11
185.914
 21
6.43251
  0
LINE
  8
0
 10
185.914
 20
6.43251
 11
185.811
 21
6.26526
  0
LINE
  8
0
 10
185.811
 20
6.26526
 11
185.684
 21
6.1161
  0
LINE
  8
0
 10
185.684
 20
6.1161
 11
185.535
 21
5.98872
  0
LINE
  8
0
 10
185.535
 20
5.98872
 11
185.367
 21
5.88623
  0
LINE
  8
0
 10
185.367
 20
5.88623
 11
185.186
 21
5.81117
  0
LINE
  8
0
 10
185.186
 20
5.81117
 11
184.996
 21
5.76538
  0
LINE
  8
0
 10
184.996
 20
5.76538
 11
184.8
 21
5.75
  0
LINE
  8
0
 10
184.8
 20
5.75
 11
184.604
 21
5.76538
  0
LINE
  8
0
 10
339.404
 20
5.76538
 11
339.214
 21
5.81117
  0
LINE
  8
0
 10
339.214
 20
5.81117
 11
339.033
 21
5.88623
  0
LINE
  8
0
 10
339.033
 20
5.88623
 11
338.865
 21
5.98872
  0
LINE
  8
0
 10
338.865
 20
5.98872
 11
338.716
 21
6.1161
  0
LINE
  8
0
 10
338.716
 20
6.1161
 11
338.589
 21
6.26526
  0
LINE
  8
0
 10
338.589
 20
6.26526
 11
338.486
 21
6.43251
  0
LINE
  8
0
 10
338.486
 20
6.43251
 11
338.411
 21
6.61372
  0
LINE
  8
0
 10
338.411
 20
6.61372
 11
338.365
 21
6.80444
  0
LINE
  8
0
 10
338.365
 20
6.80444
 11
338.35
 21
7
  0
LINE
  8
0
 10
338.35
 20
7
 11
338.365
 21
7.19554
  0
LINE
  8
0
 10
338.365
 20
7.19554
 11
338.411
 21
7.38626
  0
LINE
  8
0
 10
338.411
 20
7.38626
 11
338.486
 21
7.56747
  0
LINE
  8
0
 10
338.486
 20
7.56747
 11
338.589
 21
7.73473
  0
LINE
  8
0
 10
338.589
 20
7.73473
 11
338.716
 21
7.88388
  0
LINE
  8
0
 10
338.716
 20
7.88388
 11
338.865
 21
8.01126
  0
LINE
  8
0
 10
338.865
 20
8.01126
 11
339.033
 21
8.11375
  0
LINE
  8
0
 10
339.033
 20
8.11375
 11
339.214
 21
8.18881
  0
LINE
  8
0
 10
339.214
 20
8.18881
 11
339.404
 21
8.2346
  0
LINE
  8
0
 10
339.404
 20
8.2346
 11
339.6
 21
8.25
  0
LINE
  8
0
 10
339.6
 20
8.25
 11
339.796
 21
8.2346
  0
LINE
  8
0
 10
339.796
 20
8.2346
 11
339.986
 21
8.18881
  0
LINE
  8
0
 10
339.986
 20
8.18881
 11
340.167
 21
8.11375
  0
LINE
  8
0
 10
340.167
 20
8.11375
 11
340.335
 21
8.01126
  0
LINE
  8
0
 10
340.335
 20
8.01126
 11
340.484
 21
7.88388
  0
LINE
  8
0
 10
340.484
 20
7.88388
 11
340.611
 21
7.73473
  0
LINE
  8
0
 10
340.611
 20
7.73473
 11
340.714
 21
7.56747
  0
LINE
  8
0
 10
340.714
 20
7.56747
 11
340.789
 21
7.38626
  0
LINE
  8
0
 10
340.789
 20
7.38626
 11
340.835
 21
7.19554
  0
LINE
  8
0
 10
340.835
 20
7.19554
 11
340.85
 21
7
  0
LINE
  8
0
 10
340.85
 20
7
 11
340.835
 21
6.80444
  0
LINE
  8
0
 10
340.835
 20
6.80444
 11
340.789
 21
6.61372
  0
LINE
  8
0
 10
340.789
 20
6.61372
 11
340.714
 21
6.43251
  0
LINE
  8
0
 10
340.714
 20
6.43251
 11
340.611
 21
6.26526
  0
LINE
  8
0
 10
340.611
 20
6.26526
 11
340.484
 21
6.1161
  0
LINE
  8
0
 10
340.484
 20
6.1161
 11
340.335
 21
5.98872
  0
LINE
  8
0
 10
340.335
 20
5.98872
 11
340.167
 21
5.88623
  0
LINE
  8
0
 10
340.167
 20
5.88623
 11
339.986
 21
5.81117
  0
LINE
  8
0
 10
339.986
 20
5.81117
 11
339.796
 21
5.76538
  0
LINE
  8
0
 10
339.796
 20
5.76538
 11
339.6
 21
5.75
  0
LINE
  8
0
 10
339.6
 20
5.75
 11
339.404
 21
5.76538
  0
ENDSEC
  0
SECTION
  2
OBJECTS
  0
DICTIONARY
  0
ENDSEC
  0
EOF
