  0
SECTION
  2
BLOCKS
  0
ENDSEC
  0
SECTION
  2
ENTITIES
  0
LINE
  8
0
 10
265.4
 20
44.8
 11
0
 21
44.8
  0
LINE
  8
0
 10
0
 20
44.8
 11
0
 21
0.199997
  0
LINE
  8
0
 10
0
 20
0.199997
 11
265.4
 21
0.199997
  0
LINE
  8
0
 10
265.4
 20
0.199997
 11
265.4
 21
44.8
  0
LINE
  8
0
 10
237.75
 20
38.9197
 11
237.506
 21
38.9783
  0
LINE
  8
0
 10
237.506
 20
38.9783
 11
237.274
 21
39.0744
  0
LINE
  8
0
 10
237.274
 20
39.0744
 11
237.06
 21
39.2056
  0
LINE
  8
0
 10
237.06
 20
39.2056
 11
236.869
 21
39.3686
  0
LINE
  8
0
 10
236.869
 20
39.3686
 11
236.706
 21
39.5595
  0
LINE
  8
0
 10
236.706
 20
39.5595
 11
236.574
 21
39.7736
  0
LINE
  8
0
 10
236.574
 20
39.7736
 11
236.478
 21
40.0056
  0
LINE
  8
0
 10
236.478
 20
40.0056
 11
236.42
 21
40.2497
  0
LINE
  8
0
 10
236.42
 20
40.2497
 11
236.4
 21
40.5
  0
LINE
  8
0
 10
236.4
 20
40.5
 11
236.42
 21
40.7503
  0
LINE
  8
0
 10
236.42
 20
40.7503
 11
236.478
 21
40.9944
  0
LINE
  8
0
 10
236.478
 20
40.9944
 11
236.574
 21
41.2264
  0
LINE
  8
0
 10
236.574
 20
41.2264
 11
236.706
 21
41.4404
  0
LINE
  8
0
 10
236.706
 20
41.4404
 11
236.869
 21
41.6314
  0
LINE
  8
0
 10
236.869
 20
41.6314
 11
237.06
 21
41.7944
  0
LINE
  8
0
 10
237.06
 20
41.7944
 11
237.274
 21
41.9256
  0
LINE
  8
0
 10
237.274
 20
41.9256
 11
237.506
 21
42.0217
  0
LINE
  8
0
 10
237.506
 20
42.0217
 11
237.75
 21
42.0803
  0
LINE
  8
0
 10
237.75
 20
42.0803
 11
238
 21
42.1
  0
LINE
  8
0
 10
238
 20
42.1
 11
238.25
 21
42.0803
  0
LINE
  8
0
 10
238.25
 20
42.0803
 11
238.494
 21
42.0217
  0
LINE
  8
0
 10
238.494
 20
42.0217
 11
238.726
 21
41.9256
  0
LINE
  8
0
 10
238.726
 20
41.9256
 11
238.94
 21
41.7944
  0
LINE
  8
0
 10
238.94
 20
41.7944
 11
239.131
 21
41.6314
  0
LINE
  8
0
 10
239.131
 20
41.6314
 11
239.294
 21
41.4404
  0
LINE
  8
0
 10
239.294
 20
41.4404
 11
239.426
 21
41.2264
  0
LINE
  8
0
 10
239.426
 20
41.2264
 11
239.522
 21
40.9944
  0
LINE
  8
0
 10
239.522
 20
40.9944
 11
239.58
 21
40.7503
  0
LINE
  8
0
 10
239.58
 20
40.7503
 11
239.6
 21
40.5
  0
LINE
  8
0
 10
239.6
 20
40.5
 11
239.58
 21
40.2497
  0
LINE
  8
0
 10
239.58
 20
40.2497
 11
239.522
 21
40.0056
  0
LINE
  8
0
 10
239.522
 20
40.0056
 11
239.426
 21
39.7736
  0
LINE
  8
0
 10
239.426
 20
39.7736
 11
239.294
 21
39.5595
  0
LINE
  8
0
 10
239.294
 20
39.5595
 11
239.131
 21
39.3686
  0
LINE
  8
0
 10
239.131
 20
39.3686
 11
238.94
 21
39.2056
  0
LINE
  8
0
 10
238.94
 20
39.2056
 11
238.726
 21
39.0744
  0
LINE
  8
0
 10
238.726
 20
39.0744
 11
238.494
 21
38.9783
  0
LINE
  8
0
 10
238.494
 20
38.9783
 11
238.25
 21
38.9197
  0
LINE
  8
0
 10
238.25
 20
38.9197
 11
238
 21
38.9
  0
LINE
  8
0
 10
238
 20
38.9
 11
237.75
 21
38.9197
  0
LINE
  8
0
 10
141.75
 20
38.9197
 11
141.506
 21
38.9783
  0
LINE
  8
0
 10
141.506
 20
38.9783
 11
141.274
 21
39.0744
  0
LINE
  8
0
 10
141.274
 20
39.0744
 11
141.06
 21
39.2056
  0
LINE
  8
0
 10
141.06
 20
39.2056
 11
140.869
 21
39.3686
  0
LINE
  8
0
 10
140.869
 20
39.3686
 11
140.706
 21
39.5595
  0
LINE
  8
0
 10
140.706
 20
39.5595
 11
140.574
 21
39.7736
  0
LINE
  8
0
 10
140.574
 20
39.7736
 11
140.478
 21
40.0056
  0
LINE
  8
0
 10
140.478
 20
40.0056
 11
140.42
 21
40.2497
  0
LINE
  8
0
 10
140.42
 20
40.2497
 11
140.4
 21
40.5
  0
LINE
  8
0
 10
140.4
 20
40.5
 11
140.42
 21
40.7503
  0
LINE
  8
0
 10
140.42
 20
40.7503
 11
140.478
 21
40.9944
  0
LINE
  8
0
 10
140.478
 20
40.9944
 11
140.574
 21
41.2264
  0
LINE
  8
0
 10
140.574
 20
41.2264
 11
140.706
 21
41.4404
  0
LINE
  8
0
 10
140.706
 20
41.4404
 11
140.869
 21
41.6314
  0
LINE
  8
0
 10
140.869
 20
41.6314
 11
141.06
 21
41.7944
  0
LINE
  8
0
 10
141.06
 20
41.7944
 11
141.274
 21
41.9256
  0
LINE
  8
0
 10
141.274
 20
41.9256
 11
141.506
 21
42.0217
  0
LINE
  8
0
 10
141.506
 20
42.0217
 11
141.75
 21
42.0803
  0
LINE
  8
0
 10
141.75
 20
42.0803
 11
142
 21
42.1
  0
LINE
  8
0
 10
142
 20
42.1
 11
142.25
 21
42.0803
  0
LINE
  8
0
 10
142.25
 20
42.0803
 11
142.494
 21
42.0217
  0
LINE
  8
0
 10
142.494
 20
42.0217
 11
142.726
 21
41.9256
  0
LINE
  8
0
 10
142.726
 20
41.9256
 11
142.94
 21
41.7944
  0
LINE
  8
0
 10
142.94
 20
41.7944
 11
143.131
 21
41.6314
  0
LINE
  8
0
 10
143.131
 20
41.6314
 11
143.294
 21
41.4404
  0
LINE
  8
0
 10
143.294
 20
41.4404
 11
143.426
 21
41.2264
  0
LINE
  8
0
 10
143.426
 20
41.2264
 11
143.522
 21
40.9944
  0
LINE
  8
0
 10
143.522
 20
40.9944
 11
143.58
 21
40.7503
  0
LINE
  8
0
 10
143.58
 20
40.7503
 11
143.6
 21
40.5
  0
LINE
  8
0
 10
143.6
 20
40.5
 11
143.58
 21
40.2497
  0
LINE
  8
0
 10
143.58
 20
40.2497
 11
143.522
 21
40.0056
  0
LINE
  8
0
 10
143.522
 20
40.0056
 11
143.426
 21
39.7736
  0
LINE
  8
0
 10
143.426
 20
39.7736
 11
143.294
 21
39.5595
  0
LINE
  8
0
 10
143.294
 20
39.5595
 11
143.131
 21
39.3686
  0
LINE
  8
0
 10
143.131
 20
39.3686
 11
142.94
 21
39.2056
  0
LINE
  8
0
 10
142.94
 20
39.2056
 11
142.726
 21
39.0744
  0
LINE
  8
0
 10
142.726
 20
39.0744
 11
142.494
 21
38.9783
  0
LINE
  8
0
 10
142.494
 20
38.9783
 11
142.25
 21
38.9197
  0
LINE
  8
0
 10
142.25
 20
38.9197
 11
142
 21
38.9
  0
LINE
  8
0
 10
142
 20
38.9
 11
141.75
 21
38.9197
  0
LINE
  8
0
 10
111.75
 20
38.9197
 11
111.506
 21
38.9783
  0
LINE
  8
0
 10
111.506
 20
38.9783
 11
111.274
 21
39.0744
  0
LINE
  8
0
 10
111.274
 20
39.0744
 11
111.06
 21
39.2056
  0
LINE
  8
0
 10
111.06
 20
39.2056
 11
110.869
 21
39.3686
  0
LINE
  8
0
 10
110.869
 20
39.3686
 11
110.706
 21
39.5595
  0
LINE
  8
0
 10
110.706
 20
39.5595
 11
110.574
 21
39.7736
  0
LINE
  8
0
 10
110.574
 20
39.7736
 11
110.478
 21
40.0056
  0
LINE
  8
0
 10
110.478
 20
40.0056
 11
110.42
 21
40.2497
  0
LINE
  8
0
 10
110.42
 20
40.2497
 11
110.4
 21
40.5
  0
LINE
  8
0
 10
110.4
 20
40.5
 11
110.42
 21
40.7503
  0
LINE
  8
0
 10
110.42
 20
40.7503
 11
110.478
 21
40.9944
  0
LINE
  8
0
 10
110.478
 20
40.9944
 11
110.574
 21
41.2264
  0
LINE
  8
0
 10
110.574
 20
41.2264
 11
110.706
 21
41.4404
  0
LINE
  8
0
 10
110.706
 20
41.4404
 11
110.869
 21
41.6314
  0
LINE
  8
0
 10
110.869
 20
41.6314
 11
111.06
 21
41.7944
  0
LINE
  8
0
 10
111.06
 20
41.7944
 11
111.274
 21
41.9256
  0
LINE
  8
0
 10
111.274
 20
41.9256
 11
111.506
 21
42.0217
  0
LINE
  8
0
 10
111.506
 20
42.0217
 11
111.75
 21
42.0803
  0
LINE
  8
0
 10
111.75
 20
42.0803
 11
112
 21
42.1
  0
LINE
  8
0
 10
112
 20
42.1
 11
112.25
 21
42.0803
  0
LINE
  8
0
 10
112.25
 20
42.0803
 11
112.494
 21
42.0217
  0
LINE
  8
0
 10
112.494
 20
42.0217
 11
112.726
 21
41.9256
  0
LINE
  8
0
 10
112.726
 20
41.9256
 11
112.94
 21
41.7944
  0
LINE
  8
0
 10
112.94
 20
41.7944
 11
113.131
 21
41.6314
  0
LINE
  8
0
 10
113.131
 20
41.6314
 11
113.294
 21
41.4404
  0
LINE
  8
0
 10
113.294
 20
41.4404
 11
113.426
 21
41.2264
  0
LINE
  8
0
 10
113.426
 20
41.2264
 11
113.522
 21
40.9944
  0
LINE
  8
0
 10
113.522
 20
40.9944
 11
113.58
 21
40.7503
  0
LINE
  8
0
 10
113.58
 20
40.7503
 11
113.6
 21
40.5
  0
LINE
  8
0
 10
113.6
 20
40.5
 11
113.58
 21
40.2497
  0
LINE
  8
0
 10
113.58
 20
40.2497
 11
113.522
 21
40.0056
  0
LINE
  8
0
 10
113.522
 20
40.0056
 11
113.426
 21
39.7736
  0
LINE
  8
0
 10
113.426
 20
39.7736
 11
113.294
 21
39.5595
  0
LINE
  8
0
 10
113.294
 20
39.5595
 11
113.131
 21
39.3686
  0
LINE
  8
0
 10
113.131
 20
39.3686
 11
112.94
 21
39.2056
  0
LINE
  8
0
 10
112.94
 20
39.2056
 11
112.726
 21
39.0744
  0
LINE
  8
0
 10
112.726
 20
39.0744
 11
112.494
 21
38.9783
  0
LINE
  8
0
 10
112.494
 20
38.9783
 11
112.25
 21
38.9197
  0
LINE
  8
0
 10
112.25
 20
38.9197
 11
112
 21
38.9
  0
LINE
  8
0
 10
112
 20
38.9
 11
111.75
 21
38.9197
  0
LINE
  8
0
 10
33.7497
 20
38.9197
 11
33.5056
 21
38.9783
  0
LINE
  8
0
 10
33.5056
 20
38.9783
 11
33.2736
 21
39.0744
  0
LINE
  8
0
 10
33.2736
 20
39.0744
 11
33.0595
 21
39.2056
  0
LINE
  8
0
 10
33.0595
 20
39.2056
 11
32.8686
 21
39.3686
  0
LINE
  8
0
 10
32.8686
 20
39.3686
 11
32.7056
 21
39.5595
  0
LINE
  8
0
 10
32.7056
 20
39.5595
 11
32.5744
 21
39.7736
  0
LINE
  8
0
 10
32.5744
 20
39.7736
 11
32.4783
 21
40.0056
  0
LINE
  8
0
 10
32.4783
 20
40.0056
 11
32.4197
 21
40.2497
  0
LINE
  8
0
 10
32.4197
 20
40.2497
 11
32.4
 21
40.5
  0
LINE
  8
0
 10
32.4
 20
40.5
 11
32.4197
 21
40.7503
  0
LINE
  8
0
 10
32.4197
 20
40.7503
 11
32.4783
 21
40.9944
  0
LINE
  8
0
 10
32.4783
 20
40.9944
 11
32.5744
 21
41.2264
  0
LINE
  8
0
 10
32.5744
 20
41.2264
 11
32.7056
 21
41.4404
  0
LINE
  8
0
 10
32.7056
 20
41.4404
 11
32.8686
 21
41.6314
  0
LINE
  8
0
 10
32.8686
 20
41.6314
 11
33.0595
 21
41.7944
  0
LINE
  8
0
 10
33.0595
 20
41.7944
 11
33.2736
 21
41.9256
  0
LINE
  8
0
 10
33.2736
 20
41.9256
 11
33.5056
 21
42.0217
  0
LINE
  8
0
 10
33.5056
 20
42.0217
 11
33.7497
 21
42.0803
  0
LINE
  8
0
 10
33.7497
 20
42.0803
 11
34
 21
42.1
  0
LINE
  8
0
 10
34
 20
42.1
 11
34.2503
 21
42.0803
  0
LINE
  8
0
 10
34.2503
 20
42.0803
 11
34.4944
 21
42.0217
  0
LINE
  8
0
 10
34.4944
 20
42.0217
 11
34.7264
 21
41.9256
  0
LINE
  8
0
 10
34.7264
 20
41.9256
 11
34.9404
 21
41.7944
  0
LINE
  8
0
 10
34.9404
 20
41.7944
 11
35.1314
 21
41.6314
  0
LINE
  8
0
 10
35.1314
 20
41.6314
 11
35.2944
 21
41.4404
  0
LINE
  8
0
 10
35.2944
 20
41.4404
 11
35.4256
 21
41.2264
  0
LINE
  8
0
 10
35.4256
 20
41.2264
 11
35.5217
 21
40.9944
  0
LINE
  8
0
 10
35.5217
 20
40.9944
 11
35.5803
 21
40.7503
  0
LINE
  8
0
 10
35.5803
 20
40.7503
 11
35.6
 21
40.5
  0
LINE
  8
0
 10
35.6
 20
40.5
 11
35.5803
 21
40.2497
  0
LINE
  8
0
 10
35.5803
 20
40.2497
 11
35.5217
 21
40.0056
  0
LINE
  8
0
 10
35.5217
 20
40.0056
 11
35.4256
 21
39.7736
  0
LINE
  8
0
 10
35.4256
 20
39.7736
 11
35.2944
 21
39.5595
  0
LINE
  8
0
 10
35.2944
 20
39.5595
 11
35.1314
 21
39.3686
  0
LINE
  8
0
 10
35.1314
 20
39.3686
 11
34.9404
 21
39.2056
  0
LINE
  8
0
 10
34.9404
 20
39.2056
 11
34.7264
 21
39.0744
  0
LINE
  8
0
 10
34.7264
 20
39.0744
 11
34.4944
 21
38.9783
  0
LINE
  8
0
 10
34.4944
 20
38.9783
 11
34.2503
 21
38.9197
  0
LINE
  8
0
 10
34.2503
 20
38.9197
 11
34
 21
38.9
  0
LINE
  8
0
 10
34
 20
38.9
 11
33.7497
 21
38.9197
  0
LINE
  8
0
 10
245.304
 20
39.4654
 11
245.114
 21
39.5112
  0
LINE
  8
0
 10
245.114
 20
39.5112
 11
244.933
 21
39.5862
  0
LINE
  8
0
 10
244.933
 20
39.5862
 11
244.765
 21
39.6887
  0
LINE
  8
0
 10
244.765
 20
39.6887
 11
244.616
 21
39.8161
  0
LINE
  8
0
 10
244.616
 20
39.8161
 11
244.489
 21
39.9653
  0
LINE
  8
0
 10
244.489
 20
39.9653
 11
244.386
 21
40.1325
  0
LINE
  8
0
 10
244.386
 20
40.1325
 11
244.311
 21
40.3137
  0
LINE
  8
0
 10
244.311
 20
40.3137
 11
244.265
 21
40.5045
  0
LINE
  8
0
 10
244.265
 20
40.5045
 11
244.25
 21
40.7
  0
LINE
  8
0
 10
244.25
 20
40.7
 11
244.265
 21
40.8955
  0
LINE
  8
0
 10
244.265
 20
40.8955
 11
244.311
 21
41.0863
  0
LINE
  8
0
 10
244.311
 20
41.0863
 11
244.386
 21
41.2675
  0
LINE
  8
0
 10
244.386
 20
41.2675
 11
244.489
 21
41.4347
  0
LINE
  8
0
 10
244.489
 20
41.4347
 11
244.616
 21
41.5839
  0
LINE
  8
0
 10
244.616
 20
41.5839
 11
244.765
 21
41.7113
  0
LINE
  8
0
 10
244.765
 20
41.7113
 11
244.933
 21
41.8138
  0
LINE
  8
0
 10
244.933
 20
41.8138
 11
245.114
 21
41.8888
  0
LINE
  8
0
 10
245.114
 20
41.8888
 11
245.304
 21
41.9346
  0
LINE
  8
0
 10
245.304
 20
41.9346
 11
245.5
 21
41.95
  0
LINE
  8
0
 10
245.5
 20
41.95
 11
245.696
 21
41.9346
  0
LINE
  8
0
 10
245.696
 20
41.9346
 11
245.886
 21
41.8888
  0
LINE
  8
0
 10
245.886
 20
41.8888
 11
246.067
 21
41.8138
  0
LINE
  8
0
 10
246.067
 20
41.8138
 11
246.235
 21
41.7113
  0
LINE
  8
0
 10
246.235
 20
41.7113
 11
246.384
 21
41.5839
  0
LINE
  8
0
 10
246.384
 20
41.5839
 11
246.511
 21
41.4347
  0
LINE
  8
0
 10
246.511
 20
41.4347
 11
246.614
 21
41.2675
  0
LINE
  8
0
 10
246.614
 20
41.2675
 11
246.689
 21
41.0863
  0
LINE
  8
0
 10
246.689
 20
41.0863
 11
246.735
 21
40.8955
  0
LINE
  8
0
 10
246.735
 20
40.8955
 11
246.75
 21
40.7
  0
LINE
  8
0
 10
246.75
 20
40.7
 11
246.735
 21
40.5045
  0
LINE
  8
0
 10
246.735
 20
40.5045
 11
246.689
 21
40.3137
  0
LINE
  8
0
 10
246.689
 20
40.3137
 11
246.614
 21
40.1325
  0
LINE
  8
0
 10
246.614
 20
40.1325
 11
246.511
 21
39.9653
  0
LINE
  8
0
 10
246.511
 20
39.9653
 11
246.384
 21
39.8161
  0
LINE
  8
0
 10
246.384
 20
39.8161
 11
246.235
 21
39.6887
  0
LINE
  8
0
 10
246.235
 20
39.6887
 11
246.067
 21
39.5862
  0
LINE
  8
0
 10
246.067
 20
39.5862
 11
245.886
 21
39.5112
  0
LINE
  8
0
 10
245.886
 20
39.5112
 11
245.696
 21
39.4654
  0
LINE
  8
0
 10
245.696
 20
39.4654
 11
245.5
 21
39.45
  0
LINE
  8
0
 10
245.5
 20
39.45
 11
245.304
 21
39.4654
  0
LINE
  8
0
 10
126.804
 20
39.4654
 11
126.614
 21
39.5112
  0
LINE
  8
0
 10
126.614
 20
39.5112
 11
126.433
 21
39.5862
  0
LINE
  8
0
 10
126.433
 20
39.5862
 11
126.265
 21
39.6887
  0
LINE
  8
0
 10
126.265
 20
39.6887
 11
126.116
 21
39.8161
  0
LINE
  8
0
 10
126.116
 20
39.8161
 11
125.989
 21
39.9653
  0
LINE
  8
0
 10
125.989
 20
39.9653
 11
125.886
 21
40.1325
  0
LINE
  8
0
 10
125.886
 20
40.1325
 11
125.811
 21
40.3137
  0
LINE
  8
0
 10
125.811
 20
40.3137
 11
125.765
 21
40.5045
  0
LINE
  8
0
 10
125.765
 20
40.5045
 11
125.75
 21
40.7
  0
LINE
  8
0
 10
125.75
 20
40.7
 11
125.765
 21
40.8955
  0
LINE
  8
0
 10
125.765
 20
40.8955
 11
125.811
 21
41.0863
  0
LINE
  8
0
 10
125.811
 20
41.0863
 11
125.886
 21
41.2675
  0
LINE
  8
0
 10
125.886
 20
41.2675
 11
125.989
 21
41.4347
  0
LINE
  8
0
 10
125.989
 20
41.4347
 11
126.116
 21
41.5839
  0
LINE
  8
0
 10
126.116
 20
41.5839
 11
126.265
 21
41.7113
  0
LINE
  8
0
 10
126.265
 20
41.7113
 11
126.433
 21
41.8138
  0
LINE
  8
0
 10
126.433
 20
41.8138
 11
126.614
 21
41.8888
  0
LINE
  8
0
 10
126.614
 20
41.8888
 11
126.804
 21
41.9346
  0
LINE
  8
0
 10
126.804
 20
41.9346
 11
127
 21
41.95
  0
LINE
  8
0
 10
127
 20
41.95
 11
127.196
 21
41.9346
  0
LINE
  8
0
 10
127.196
 20
41.9346
 11
127.386
 21
41.8888
  0
LINE
  8
0
 10
127.386
 20
41.8888
 11
127.567
 21
41.8138
  0
LINE
  8
0
 10
127.567
 20
41.8138
 11
127.735
 21
41.7113
  0
LINE
  8
0
 10
127.735
 20
41.7113
 11
127.884
 21
41.5839
  0
LINE
  8
0
 10
127.884
 20
41.5839
 11
128.011
 21
41.4347
  0
LINE
  8
0
 10
128.011
 20
41.4347
 11
128.114
 21
41.2675
  0
LINE
  8
0
 10
128.114
 20
41.2675
 11
128.189
 21
41.0863
  0
LINE
  8
0
 10
128.189
 20
41.0863
 11
128.235
 21
40.8955
  0
LINE
  8
0
 10
128.235
 20
40.8955
 11
128.25
 21
40.7
  0
LINE
  8
0
 10
128.25
 20
40.7
 11
128.235
 21
40.5045
  0
LINE
  8
0
 10
128.235
 20
40.5045
 11
128.189
 21
40.3137
  0
LINE
  8
0
 10
128.189
 20
40.3137
 11
128.114
 21
40.1325
  0
LINE
  8
0
 10
128.114
 20
40.1325
 11
128.011
 21
39.9653
  0
LINE
  8
0
 10
128.011
 20
39.9653
 11
127.884
 21
39.8161
  0
LINE
  8
0
 10
127.884
 20
39.8161
 11
127.735
 21
39.6887
  0
LINE
  8
0
 10
127.735
 20
39.6887
 11
127.567
 21
39.5862
  0
LINE
  8
0
 10
127.567
 20
39.5862
 11
127.386
 21
39.5112
  0
LINE
  8
0
 10
127.386
 20
39.5112
 11
127.196
 21
39.4654
  0
LINE
  8
0
 10
127.196
 20
39.4654
 11
127
 21
39.45
  0
LINE
  8
0
 10
127
 20
39.45
 11
126.804
 21
39.4654
  0
LINE
  8
0
 10
17.1044
 20
39.4654
 11
16.9137
 21
39.5112
  0
LINE
  8
0
 10
16.9137
 20
39.5112
 11
16.7325
 21
39.5862
  0
LINE
  8
0
 10
16.7325
 20
39.5862
 11
16.5653
 21
39.6887
  0
LINE
  8
0
 10
16.5653
 20
39.6887
 11
16.4161
 21
39.8161
  0
LINE
  8
0
 10
16.4161
 20
39.8161
 11
16.2887
 21
39.9653
  0
LINE
  8
0
 10
16.2887
 20
39.9653
 11
16.1862
 21
40.1325
  0
LINE
  8
0
 10
16.1862
 20
40.1325
 11
16.1112
 21
40.3137
  0
LINE
  8
0
 10
16.1112
 20
40.3137
 11
16.0654
 21
40.5045
  0
LINE
  8
0
 10
16.0654
 20
40.5045
 11
16.05
 21
40.7
  0
LINE
  8
0
 10
16.05
 20
40.7
 11
16.0654
 21
40.8955
  0
LINE
  8
0
 10
16.0654
 20
40.8955
 11
16.1112
 21
41.0863
  0
LINE
  8
0
 10
16.1112
 20
41.0863
 11
16.1862
 21
41.2675
  0
LINE
  8
0
 10
16.1862
 20
41.2675
 11
16.2887
 21
41.4347
  0
LINE
  8
0
 10
16.2887
 20
41.4347
 11
16.4161
 21
41.5839
  0
LINE
  8
0
 10
16.4161
 20
41.5839
 11
16.5653
 21
41.7113
  0
LINE
  8
0
 10
16.5653
 20
41.7113
 11
16.7325
 21
41.8138
  0
LINE
  8
0
 10
16.7325
 20
41.8138
 11
16.9137
 21
41.8888
  0
LINE
  8
0
 10
16.9137
 20
41.8888
 11
17.1044
 21
41.9346
  0
LINE
  8
0
 10
17.1044
 20
41.9346
 11
17.3
 21
41.95
  0
LINE
  8
0
 10
17.3
 20
41.95
 11
17.4955
 21
41.9346
  0
LINE
  8
0
 10
17.4955
 20
41.9346
 11
17.6863
 21
41.8888
  0
LINE
  8
0
 10
17.6863
 20
41.8888
 11
17.8675
 21
41.8138
  0
LINE
  8
0
 10
17.8675
 20
41.8138
 11
18.0347
 21
41.7113
  0
LINE
  8
0
 10
18.0347
 20
41.7113
 11
18.1839
 21
41.5839
  0
LINE
  8
0
 10
18.1839
 20
41.5839
 11
18.3113
 21
41.4347
  0
LINE
  8
0
 10
18.3113
 20
41.4347
 11
18.4138
 21
41.2675
  0
LINE
  8
0
 10
18.4138
 20
41.2675
 11
18.4888
 21
41.0863
  0
LINE
  8
0
 10
18.4888
 20
41.0863
 11
18.5346
 21
40.8955
  0
LINE
  8
0
 10
18.5346
 20
40.8955
 11
18.55
 21
40.7
  0
LINE
  8
0
 10
18.55
 20
40.7
 11
18.5346
 21
40.5045
  0
LINE
  8
0
 10
18.5346
 20
40.5045
 11
18.4888
 21
40.3137
  0
LINE
  8
0
 10
18.4888
 20
40.3137
 11
18.4138
 21
40.1325
  0
LINE
  8
0
 10
18.4138
 20
40.1325
 11
18.3113
 21
39.9653
  0
LINE
  8
0
 10
18.3113
 20
39.9653
 11
18.1839
 21
39.8161
  0
LINE
  8
0
 10
18.1839
 20
39.8161
 11
18.0347
 21
39.6887
  0
LINE
  8
0
 10
18.0347
 20
39.6887
 11
17.8675
 21
39.5862
  0
LINE
  8
0
 10
17.8675
 20
39.5862
 11
17.6863
 21
39.5112
  0
LINE
  8
0
 10
17.6863
 20
39.5112
 11
17.4955
 21
39.4654
  0
LINE
  8
0
 10
17.4955
 20
39.4654
 11
17.3
 21
39.45
  0
LINE
  8
0
 10
17.3
 20
39.45
 11
17.1044
 21
39.4654
  0
LINE
  8
0
 10
203
 20
24.5
 11
203
 21
38.5
  0
LINE
  8
0
 10
203
 20
38.5
 11
217
 21
38.5
  0
LINE
  8
0
 10
217
 20
38.5
 11
217
 21
24.5
  0
LINE
  8
0
 10
217
 20
24.5
 11
203
 21
24.5
  0
LINE
  8
0
 10
95
 20
24.5
 11
95
 21
38.5
  0
LINE
  8
0
 10
95
 20
38.5
 11
109
 21
38.5
  0
LINE
  8
0
 10
109
 20
38.5
 11
109
 21
24.5
  0
LINE
  8
0
 10
109
 20
24.5
 11
95
 21
24.5
  0
LINE
  8
0
 10
77
 20
15.5
 11
77
 21
29.5
  0
LINE
  8
0
 10
77
 20
29.5
 11
91
 21
29.5
  0
LINE
  8
0
 10
91
 20
29.5
 11
91
 21
15.5
  0
LINE
  8
0
 10
91
 20
15.5
 11
77
 21
15.5
  0
LINE
  8
0
 10
37
 20
15.5
 11
37
 21
29.5
  0
LINE
  8
0
 10
37
 20
29.5
 11
51
 21
29.5
  0
LINE
  8
0
 10
51
 20
29.5
 11
51
 21
15.5
  0
LINE
  8
0
 10
51
 20
15.5
 11
37
 21
15.5
  0
LINE
  8
0
 10
57
 20
15.5
 11
57
 21
29.5
  0
LINE
  8
0
 10
57
 20
29.5
 11
71
 21
29.5
  0
LINE
  8
0
 10
71
 20
29.5
 11
71
 21
15.5
  0
LINE
  8
0
 10
71
 20
15.5
 11
57
 21
15.5
  0
LINE
  8
0
 10
145
 20
15.5
 11
145
 21
29.5
  0
LINE
  8
0
 10
145
 20
29.5
 11
159
 21
29.5
  0
LINE
  8
0
 10
159
 20
29.5
 11
159
 21
15.5
  0
LINE
  8
0
 10
159
 20
15.5
 11
145
 21
15.5
  0
LINE
  8
0
 10
165
 20
15.5
 11
165
 21
29.5
  0
LINE
  8
0
 10
165
 20
29.5
 11
179
 21
29.5
  0
LINE
  8
0
 10
179
 20
29.5
 11
179
 21
15.5
  0
LINE
  8
0
 10
179
 20
15.5
 11
165
 21
15.5
  0
LINE
  8
0
 10
185
 20
15.5
 11
185
 21
29.5
  0
LINE
  8
0
 10
185
 20
29.5
 11
199
 21
29.5
  0
LINE
  8
0
 10
199
 20
29.5
 11
199
 21
15.5
  0
LINE
  8
0
 10
199
 20
15.5
 11
185
 21
15.5
  0
LINE
  8
0
 10
203
 20
6.5
 11
203
 21
20.5
  0
LINE
  8
0
 10
203
 20
20.5
 11
217
 21
20.5
  0
LINE
  8
0
 10
217
 20
20.5
 11
217
 21
6.5
  0
LINE
  8
0
 10
217
 20
6.5
 11
203
 21
6.5
  0
LINE
  8
0
 10
221
 20
6.5
 11
221
 21
20.5
  0
LINE
  8
0
 10
221
 20
20.5
 11
235
 21
20.5
  0
LINE
  8
0
 10
235
 20
20.5
 11
235
 21
6.5
  0
LINE
  8
0
 10
235
 20
6.5
 11
221
 21
6.5
  0
LINE
  8
0
 10
95
 20
6.5
 11
95
 21
20.5
  0
LINE
  8
0
 10
95
 20
20.5
 11
109
 21
20.5
  0
LINE
  8
0
 10
109
 20
20.5
 11
109
 21
6.5
  0
LINE
  8
0
 10
109
 20
6.5
 11
95
 21
6.5
  0
LINE
  8
0
 10
237.75
 20
2.91969
 11
237.506
 21
2.9783
  0
LINE
  8
0
 10
237.506
 20
2.9783
 11
237.274
 21
3.07439
  0
LINE
  8
0
 10
237.274
 20
3.07439
 11
237.06
 21
3.20557
  0
LINE
  8
0
 10
237.06
 20
3.20557
 11
236.869
 21
3.36862
  0
LINE
  8
0
 10
236.869
 20
3.36862
 11
236.706
 21
3.55954
  0
LINE
  8
0
 10
236.706
 20
3.55954
 11
236.574
 21
3.77361
  0
LINE
  8
0
 10
236.574
 20
3.77361
 11
236.478
 21
4.00557
  0
LINE
  8
0
 10
236.478
 20
4.00557
 11
236.42
 21
4.24969
  0
LINE
  8
0
 10
236.42
 20
4.24969
 11
236.4
 21
4.5
  0
LINE
  8
0
 10
236.4
 20
4.5
 11
236.42
 21
4.75029
  0
LINE
  8
0
 10
236.42
 20
4.75029
 11
236.478
 21
4.99442
  0
LINE
  8
0
 10
236.478
 20
4.99442
 11
236.574
 21
5.22638
  0
LINE
  8
0
 10
236.574
 20
5.22638
 11
236.706
 21
5.44044
  0
LINE
  8
0
 10
236.706
 20
5.44044
 11
236.869
 21
5.63136
  0
LINE
  8
0
 10
236.869
 20
5.63136
 11
237.06
 21
5.79442
  0
LINE
  8
0
 10
237.06
 20
5.79442
 11
237.274
 21
5.9256
  0
LINE
  8
0
 10
237.274
 20
5.9256
 11
237.506
 21
6.02168
  0
LINE
  8
0
 10
237.506
 20
6.02168
 11
237.75
 21
6.08029
  0
LINE
  8
0
 10
237.75
 20
6.08029
 11
238
 21
6.09999
  0
LINE
  8
0
 10
238
 20
6.09999
 11
238.25
 21
6.08029
  0
LINE
  8
0
 10
238.25
 20
6.08029
 11
238.494
 21
6.02168
  0
LINE
  8
0
 10
238.494
 20
6.02168
 11
238.726
 21
5.9256
  0
LINE
  8
0
 10
238.726
 20
5.9256
 11
238.94
 21
5.79442
  0
LINE
  8
0
 10
238.94
 20
5.79442
 11
239.131
 21
5.63136
  0
LINE
  8
0
 10
239.131
 20
5.63136
 11
239.294
 21
5.44044
  0
LINE
  8
0
 10
239.294
 20
5.44044
 11
239.426
 21
5.22638
  0
LINE
  8
0
 10
239.426
 20
5.22638
 11
239.522
 21
4.99442
  0
LINE
  8
0
 10
239.522
 20
4.99442
 11
239.58
 21
4.75029
  0
LINE
  8
0
 10
239.58
 20
4.75029
 11
239.6
 21
4.5
  0
LINE
  8
0
 10
239.6
 20
4.5
 11
239.58
 21
4.24969
  0
LINE
  8
0
 10
239.58
 20
4.24969
 11
239.522
 21
4.00557
  0
LINE
  8
0
 10
239.522
 20
4.00557
 11
239.426
 21
3.77361
  0
LINE
  8
0
 10
239.426
 20
3.77361
 11
239.294
 21
3.55954
  0
LINE
  8
0
 10
239.294
 20
3.55954
 11
239.131
 21
3.36862
  0
LINE
  8
0
 10
239.131
 20
3.36862
 11
238.94
 21
3.20557
  0
LINE
  8
0
 10
238.94
 20
3.20557
 11
238.726
 21
3.07439
  0
LINE
  8
0
 10
238.726
 20
3.07439
 11
238.494
 21
2.9783
  0
LINE
  8
0
 10
238.494
 20
2.9783
 11
238.25
 21
2.91969
  0
LINE
  8
0
 10
238.25
 20
2.91969
 11
238
 21
2.89999
  0
LINE
  8
0
 10
238
 20
2.89999
 11
237.75
 21
2.91969
  0
LINE
  8
0
 10
141.75
 20
2.91969
 11
141.506
 21
2.9783
  0
LINE
  8
0
 10
141.506
 20
2.9783
 11
141.274
 21
3.07439
  0
LINE
  8
0
 10
141.274
 20
3.07439
 11
141.06
 21
3.20557
  0
LINE
  8
0
 10
141.06
 20
3.20557
 11
140.869
 21
3.36862
  0
LINE
  8
0
 10
140.869
 20
3.36862
 11
140.706
 21
3.55954
  0
LINE
  8
0
 10
140.706
 20
3.55954
 11
140.574
 21
3.77361
  0
LINE
  8
0
 10
140.574
 20
3.77361
 11
140.478
 21
4.00557
  0
LINE
  8
0
 10
140.478
 20
4.00557
 11
140.42
 21
4.24969
  0
LINE
  8
0
 10
140.42
 20
4.24969
 11
140.4
 21
4.5
  0
LINE
  8
0
 10
140.4
 20
4.5
 11
140.42
 21
4.75029
  0
LINE
  8
0
 10
140.42
 20
4.75029
 11
140.478
 21
4.99442
  0
LINE
  8
0
 10
140.478
 20
4.99442
 11
140.574
 21
5.22638
  0
LINE
  8
0
 10
140.574
 20
5.22638
 11
140.706
 21
5.44044
  0
LINE
  8
0
 10
140.706
 20
5.44044
 11
140.869
 21
5.63136
  0
LINE
  8
0
 10
140.869
 20
5.63136
 11
141.06
 21
5.79442
  0
LINE
  8
0
 10
141.06
 20
5.79442
 11
141.274
 21
5.9256
  0
LINE
  8
0
 10
141.274
 20
5.9256
 11
141.506
 21
6.02168
  0
LINE
  8
0
 10
141.506
 20
6.02168
 11
141.75
 21
6.08029
  0
LINE
  8
0
 10
141.75
 20
6.08029
 11
142
 21
6.09999
  0
LINE
  8
0
 10
142
 20
6.09999
 11
142.25
 21
6.08029
  0
LINE
  8
0
 10
142.25
 20
6.08029
 11
142.494
 21
6.02168
  0
LINE
  8
0
 10
142.494
 20
6.02168
 11
142.726
 21
5.9256
  0
LINE
  8
0
 10
142.726
 20
5.9256
 11
142.94
 21
5.79442
  0
LINE
  8
0
 10
142.94
 20
5.79442
 11
143.131
 21
5.63136
  0
LINE
  8
0
 10
143.131
 20
5.63136
 11
143.294
 21
5.44044
  0
LINE
  8
0
 10
143.294
 20
5.44044
 11
143.426
 21
5.22638
  0
LINE
  8
0
 10
143.426
 20
5.22638
 11
143.522
 21
4.99442
  0
LINE
  8
0
 10
143.522
 20
4.99442
 11
143.58
 21
4.75029
  0
LINE
  8
0
 10
143.58
 20
4.75029
 11
143.6
 21
4.5
  0
LINE
  8
0
 10
143.6
 20
4.5
 11
143.58
 21
4.24969
  0
LINE
  8
0
 10
143.58
 20
4.24969
 11
143.522
 21
4.00557
  0
LINE
  8
0
 10
143.522
 20
4.00557
 11
143.426
 21
3.77361
  0
LINE
  8
0
 10
143.426
 20
3.77361
 11
143.294
 21
3.55954
  0
LINE
  8
0
 10
143.294
 20
3.55954
 11
143.131
 21
3.36862
  0
LINE
  8
0
 10
143.131
 20
3.36862
 11
142.94
 21
3.20557
  0
LINE
  8
0
 10
142.94
 20
3.20557
 11
142.726
 21
3.07439
  0
LINE
  8
0
 10
142.726
 20
3.07439
 11
142.494
 21
2.9783
  0
LINE
  8
0
 10
142.494
 20
2.9783
 11
142.25
 21
2.91969
  0
LINE
  8
0
 10
142.25
 20
2.91969
 11
142
 21
2.89999
  0
LINE
  8
0
 10
142
 20
2.89999
 11
141.75
 21
2.91969
  0
LINE
  8
0
 10
111.75
 20
2.91969
 11
111.506
 21
2.9783
  0
LINE
  8
0
 10
111.506
 20
2.9783
 11
111.274
 21
3.07439
  0
LINE
  8
0
 10
111.274
 20
3.07439
 11
111.06
 21
3.20557
  0
LINE
  8
0
 10
111.06
 20
3.20557
 11
110.869
 21
3.36862
  0
LINE
  8
0
 10
110.869
 20
3.36862
 11
110.706
 21
3.55954
  0
LINE
  8
0
 10
110.706
 20
3.55954
 11
110.574
 21
3.77361
  0
LINE
  8
0
 10
110.574
 20
3.77361
 11
110.478
 21
4.00557
  0
LINE
  8
0
 10
110.478
 20
4.00557
 11
110.42
 21
4.24969
  0
LINE
  8
0
 10
110.42
 20
4.24969
 11
110.4
 21
4.5
  0
LINE
  8
0
 10
110.4
 20
4.5
 11
110.42
 21
4.75029
  0
LINE
  8
0
 10
110.42
 20
4.75029
 11
110.478
 21
4.99442
  0
LINE
  8
0
 10
110.478
 20
4.99442
 11
110.574
 21
5.22638
  0
LINE
  8
0
 10
110.574
 20
5.22638
 11
110.706
 21
5.44044
  0
LINE
  8
0
 10
110.706
 20
5.44044
 11
110.869
 21
5.63136
  0
LINE
  8
0
 10
110.869
 20
5.63136
 11
111.06
 21
5.79442
  0
LINE
  8
0
 10
111.06
 20
5.79442
 11
111.274
 21
5.9256
  0
LINE
  8
0
 10
111.274
 20
5.9256
 11
111.506
 21
6.02168
  0
LINE
  8
0
 10
111.506
 20
6.02168
 11
111.75
 21
6.08029
  0
LINE
  8
0
 10
111.75
 20
6.08029
 11
112
 21
6.09999
  0
LINE
  8
0
 10
112
 20
6.09999
 11
112.25
 21
6.08029
  0
LINE
  8
0
 10
112.25
 20
6.08029
 11
112.494
 21
6.02168
  0
LINE
  8
0
 10
112.494
 20
6.02168
 11
112.726
 21
5.9256
  0
LINE
  8
0
 10
112.726
 20
5.9256
 11
112.94
 21
5.79442
  0
LINE
  8
0
 10
112.94
 20
5.79442
 11
113.131
 21
5.63136
  0
LINE
  8
0
 10
113.131
 20
5.63136
 11
113.294
 21
5.44044
  0
LINE
  8
0
 10
113.294
 20
5.44044
 11
113.426
 21
5.22638
  0
LINE
  8
0
 10
113.426
 20
5.22638
 11
113.522
 21
4.99442
  0
LINE
  8
0
 10
113.522
 20
4.99442
 11
113.58
 21
4.75029
  0
LINE
  8
0
 10
113.58
 20
4.75029
 11
113.6
 21
4.5
  0
LINE
  8
0
 10
113.6
 20
4.5
 11
113.58
 21
4.24969
  0
LINE
  8
0
 10
113.58
 20
4.24969
 11
113.522
 21
4.00557
  0
LINE
  8
0
 10
113.522
 20
4.00557
 11
113.426
 21
3.77361
  0
LINE
  8
0
 10
113.426
 20
3.77361
 11
113.294
 21
3.55954
  0
LINE
  8
0
 10
113.294
 20
3.55954
 11
113.131
 21
3.36862
  0
LINE
  8
0
 10
113.131
 20
3.36862
 11
112.94
 21
3.20557
  0
LINE
  8
0
 10
112.94
 20
3.20557
 11
112.726
 21
3.07439
  0
LINE
  8
0
 10
112.726
 20
3.07439
 11
112.494
 21
2.9783
  0
LINE
  8
0
 10
112.494
 20
2.9783
 11
112.25
 21
2.91969
  0
LINE
  8
0
 10
112.25
 20
2.91969
 11
112
 21
2.89999
  0
LINE
  8
0
 10
112
 20
2.89999
 11
111.75
 21
2.91969
  0
LINE
  8
0
 10
33.7497
 20
2.91969
 11
33.5056
 21
2.9783
  0
LINE
  8
0
 10
33.5056
 20
2.9783
 11
33.2736
 21
3.07439
  0
LINE
  8
0
 10
33.2736
 20
3.07439
 11
33.0595
 21
3.20557
  0
LINE
  8
0
 10
33.0595
 20
3.20557
 11
32.8686
 21
3.36862
  0
LINE
  8
0
 10
32.8686
 20
3.36862
 11
32.7056
 21
3.55954
  0
LINE
  8
0
 10
32.7056
 20
3.55954
 11
32.5744
 21
3.77361
  0
LINE
  8
0
 10
32.5744
 20
3.77361
 11
32.4783
 21
4.00557
  0
LINE
  8
0
 10
32.4783
 20
4.00557
 11
32.4197
 21
4.24969
  0
LINE
  8
0
 10
32.4197
 20
4.24969
 11
32.4
 21
4.5
  0
LINE
  8
0
 10
32.4
 20
4.5
 11
32.4197
 21
4.75029
  0
LINE
  8
0
 10
32.4197
 20
4.75029
 11
32.4783
 21
4.99442
  0
LINE
  8
0
 10
32.4783
 20
4.99442
 11
32.5744
 21
5.22638
  0
LINE
  8
0
 10
32.5744
 20
5.22638
 11
32.7056
 21
5.44044
  0
LINE
  8
0
 10
32.7056
 20
5.44044
 11
32.8686
 21
5.63136
  0
LINE
  8
0
 10
32.8686
 20
5.63136
 11
33.0595
 21
5.79442
  0
LINE
  8
0
 10
33.0595
 20
5.79442
 11
33.2736
 21
5.9256
  0
LINE
  8
0
 10
33.2736
 20
5.9256
 11
33.5056
 21
6.02168
  0
LINE
  8
0
 10
33.5056
 20
6.02168
 11
33.7497
 21
6.08029
  0
LINE
  8
0
 10
33.7497
 20
6.08029
 11
34
 21
6.09999
  0
LINE
  8
0
 10
34
 20
6.09999
 11
34.2503
 21
6.08029
  0
LINE
  8
0
 10
34.2503
 20
6.08029
 11
34.4944
 21
6.02168
  0
LINE
  8
0
 10
34.4944
 20
6.02168
 11
34.7264
 21
5.9256
  0
LINE
  8
0
 10
34.7264
 20
5.9256
 11
34.9404
 21
5.79442
  0
LINE
  8
0
 10
34.9404
 20
5.79442
 11
35.1314
 21
5.63136
  0
LINE
  8
0
 10
35.1314
 20
5.63136
 11
35.2944
 21
5.44044
  0
LINE
  8
0
 10
35.2944
 20
5.44044
 11
35.4256
 21
5.22638
  0
LINE
  8
0
 10
35.4256
 20
5.22638
 11
35.5217
 21
4.99442
  0
LINE
  8
0
 10
35.5217
 20
4.99442
 11
35.5803
 21
4.75029
  0
LINE
  8
0
 10
35.5803
 20
4.75029
 11
35.6
 21
4.5
  0
LINE
  8
0
 10
35.6
 20
4.5
 11
35.5803
 21
4.24969
  0
LINE
  8
0
 10
35.5803
 20
4.24969
 11
35.5217
 21
4.00557
  0
LINE
  8
0
 10
35.5217
 20
4.00557
 11
35.4256
 21
3.77361
  0
LINE
  8
0
 10
35.4256
 20
3.77361
 11
35.2944
 21
3.55954
  0
LINE
  8
0
 10
35.2944
 20
3.55954
 11
35.1314
 21
3.36862
  0
LINE
  8
0
 10
35.1314
 20
3.36862
 11
34.9404
 21
3.20557
  0
LINE
  8
0
 10
34.9404
 20
3.20557
 11
34.7264
 21
3.07439
  0
LINE
  8
0
 10
34.7264
 20
3.07439
 11
34.4944
 21
2.9783
  0
LINE
  8
0
 10
34.4944
 20
2.9783
 11
34.2503
 21
2.91969
  0
LINE
  8
0
 10
34.2503
 20
2.91969
 11
34
 21
2.89999
  0
LINE
  8
0
 10
34
 20
2.89999
 11
33.7497
 21
2.91969
  0
LINE
  8
0
 10
245.304
 20
3.06538
 11
245.114
 21
3.11118
  0
LINE
  8
0
 10
245.114
 20
3.11118
 11
244.933
 21
3.18623
  0
LINE
  8
0
 10
244.933
 20
3.18623
 11
244.765
 21
3.28873
  0
LINE
  8
0
 10
244.765
 20
3.28873
 11
244.616
 21
3.41611
  0
LINE
  8
0
 10
244.616
 20
3.41611
 11
244.489
 21
3.56526
  0
LINE
  8
0
 10
244.489
 20
3.56526
 11
244.386
 21
3.7325
  0
LINE
  8
0
 10
244.386
 20
3.7325
 11
244.311
 21
3.91373
  0
LINE
  8
0
 10
244.311
 20
3.91373
 11
244.265
 21
4.10445
  0
LINE
  8
0
 10
244.265
 20
4.10445
 11
244.25
 21
4.29999
  0
LINE
  8
0
 10
244.25
 20
4.29999
 11
244.265
 21
4.49553
  0
LINE
  8
0
 10
244.265
 20
4.49553
 11
244.311
 21
4.68626
  0
LINE
  8
0
 10
244.311
 20
4.68626
 11
244.386
 21
4.86748
  0
LINE
  8
0
 10
244.386
 20
4.86748
 11
244.489
 21
5.03473
  0
LINE
  8
0
 10
244.489
 20
5.03473
 11
244.616
 21
5.18387
  0
LINE
  8
0
 10
244.616
 20
5.18387
 11
244.765
 21
5.31126
  0
LINE
  8
0
 10
244.765
 20
5.31126
 11
244.933
 21
5.41376
  0
LINE
  8
0
 10
244.933
 20
5.41376
 11
245.114
 21
5.48882
  0
LINE
  8
0
 10
245.114
 20
5.48882
 11
245.304
 21
5.53461
  0
LINE
  8
0
 10
245.304
 20
5.53461
 11
245.5
 21
5.54999
  0
LINE
  8
0
 10
245.5
 20
5.54999
 11
245.696
 21
5.53461
  0
LINE
  8
0
 10
245.696
 20
5.53461
 11
245.886
 21
5.48882
  0
LINE
  8
0
 10
245.886
 20
5.48882
 11
246.067
 21
5.41376
  0
LINE
  8
0
 10
246.067
 20
5.41376
 11
246.235
 21
5.31126
  0
LINE
  8
0
 10
246.235
 20
5.31126
 11
246.384
 21
5.18387
  0
LINE
  8
0
 10
246.384
 20
5.18387
 11
246.511
 21
5.03473
  0
LINE
  8
0
 10
246.511
 20
5.03473
 11
246.614
 21
4.86748
  0
LINE
  8
0
 10
246.614
 20
4.86748
 11
246.689
 21
4.68626
  0
LINE
  8
0
 10
246.689
 20
4.68626
 11
246.735
 21
4.49553
  0
LINE
  8
0
 10
246.735
 20
4.49553
 11
246.75
 21
4.29999
  0
LINE
  8
0
 10
246.75
 20
4.29999
 11
246.735
 21
4.10445
  0
LINE
  8
0
 10
246.735
 20
4.10445
 11
246.689
 21
3.91373
  0
LINE
  8
0
 10
246.689
 20
3.91373
 11
246.614
 21
3.7325
  0
LINE
  8
0
 10
246.614
 20
3.7325
 11
246.511
 21
3.56526
  0
LINE
  8
0
 10
246.511
 20
3.56526
 11
246.384
 21
3.41611
  0
LINE
  8
0
 10
246.384
 20
3.41611
 11
246.235
 21
3.28873
  0
LINE
  8
0
 10
246.235
 20
3.28873
 11
246.067
 21
3.18623
  0
LINE
  8
0
 10
246.067
 20
3.18623
 11
245.886
 21
3.11118
  0
LINE
  8
0
 10
245.886
 20
3.11118
 11
245.696
 21
3.06538
  0
LINE
  8
0
 10
245.696
 20
3.06538
 11
245.5
 21
3.04999
  0
LINE
  8
0
 10
245.5
 20
3.04999
 11
245.304
 21
3.06538
  0
LINE
  8
0
 10
126.804
 20
3.06538
 11
126.614
 21
3.11118
  0
LINE
  8
0
 10
126.614
 20
3.11118
 11
126.433
 21
3.18623
  0
LINE
  8
0
 10
126.433
 20
3.18623
 11
126.265
 21
3.28873
  0
LINE
  8
0
 10
126.265
 20
3.28873
 11
126.116
 21
3.41611
  0
LINE
  8
0
 10
126.116
 20
3.41611
 11
125.989
 21
3.56526
  0
LINE
  8
0
 10
125.989
 20
3.56526
 11
125.886
 21
3.7325
  0
LINE
  8
0
 10
125.886
 20
3.7325
 11
125.811
 21
3.91373
  0
LINE
  8
0
 10
125.811
 20
3.91373
 11
125.765
 21
4.10445
  0
LINE
  8
0
 10
125.765
 20
4.10445
 11
125.75
 21
4.29999
  0
LINE
  8
0
 10
125.75
 20
4.29999
 11
125.765
 21
4.49553
  0
LINE
  8
0
 10
125.765
 20
4.49553
 11
125.811
 21
4.68626
  0
LINE
  8
0
 10
125.811
 20
4.68626
 11
125.886
 21
4.86748
  0
LINE
  8
0
 10
125.886
 20
4.86748
 11
125.989
 21
5.03473
  0
LINE
  8
0
 10
125.989
 20
5.03473
 11
126.116
 21
5.18387
  0
LINE
  8
0
 10
126.116
 20
5.18387
 11
126.265
 21
5.31126
  0
LINE
  8
0
 10
126.265
 20
5.31126
 11
126.433
 21
5.41376
  0
LINE
  8
0
 10
126.433
 20
5.41376
 11
126.614
 21
5.48882
  0
LINE
  8
0
 10
126.614
 20
5.48882
 11
126.804
 21
5.53461
  0
LINE
  8
0
 10
126.804
 20
5.53461
 11
127
 21
5.54999
  0
LINE
  8
0
 10
127
 20
5.54999
 11
127.196
 21
5.53461
  0
LINE
  8
0
 10
127.196
 20
5.53461
 11
127.386
 21
5.48882
  0
LINE
  8
0
 10
127.386
 20
5.48882
 11
127.567
 21
5.41376
  0
LINE
  8
0
 10
127.567
 20
5.41376
 11
127.735
 21
5.31126
  0
LINE
  8
0
 10
127.735
 20
5.31126
 11
127.884
 21
5.18387
  0
LINE
  8
0
 10
127.884
 20
5.18387
 11
128.011
 21
5.03473
  0
LINE
  8
0
 10
128.011
 20
5.03473
 11
128.114
 21
4.86748
  0
LINE
  8
0
 10
128.114
 20
4.86748
 11
128.189
 21
4.68626
  0
LINE
  8
0
 10
128.189
 20
4.68626
 11
128.235
 21
4.49553
  0
LINE
  8
0
 10
128.235
 20
4.49553
 11
128.25
 21
4.29999
  0
LINE
  8
0
 10
128.25
 20
4.29999
 11
128.235
 21
4.10445
  0
LINE
  8
0
 10
128.235
 20
4.10445
 11
128.189
 21
3.91373
  0
LINE
  8
0
 10
128.189
 20
3.91373
 11
128.114
 21
3.7325
  0
LINE
  8
0
 10
128.114
 20
3.7325
 11
128.011
 21
3.56526
  0
LINE
  8
0
 10
128.011
 20
3.56526
 11
127.884
 21
3.41611
  0
LINE
  8
0
 10
127.884
 20
3.41611
 11
127.735
 21
3.28873
  0
LINE
  8
0
 10
127.735
 20
3.28873
 11
127.567
 21
3.18623
  0
LINE
  8
0
 10
127.567
 20
3.18623
 11
127.386
 21
3.11118
  0
LINE
  8
0
 10
127.386
 20
3.11118
 11
127.196
 21
3.06538
  0
LINE
  8
0
 10
127.196
 20
3.06538
 11
127
 21
3.04999
  0
LINE
  8
0
 10
127
 20
3.04999
 11
126.804
 21
3.06538
  0
LINE
  8
0
 10
17.1044
 20
3.06538
 11
16.9137
 21
3.11118
  0
LINE
  8
0
 10
16.9137
 20
3.11118
 11
16.7325
 21
3.18623
  0
LINE
  8
0
 10
16.7325
 20
3.18623
 11
16.5653
 21
3.28873
  0
LINE
  8
0
 10
16.5653
 20
3.28873
 11
16.4161
 21
3.41611
  0
LINE
  8
0
 10
16.4161
 20
3.41611
 11
16.2887
 21
3.56526
  0
LINE
  8
0
 10
16.2887
 20
3.56526
 11
16.1862
 21
3.7325
  0
LINE
  8
0
 10
16.1862
 20
3.7325
 11
16.1112
 21
3.91373
  0
LINE
  8
0
 10
16.1112
 20
3.91373
 11
16.0654
 21
4.10445
  0
LINE
  8
0
 10
16.0654
 20
4.10445
 11
16.05
 21
4.29999
  0
LINE
  8
0
 10
16.05
 20
4.29999
 11
16.0654
 21
4.49553
  0
LINE
  8
0
 10
16.0654
 20
4.49553
 11
16.1112
 21
4.68626
  0
LINE
  8
0
 10
16.1112
 20
4.68626
 11
16.1862
 21
4.86748
  0
LINE
  8
0
 10
16.1862
 20
4.86748
 11
16.2887
 21
5.03473
  0
LINE
  8
0
 10
16.2887
 20
5.03473
 11
16.4161
 21
5.18387
  0
LINE
  8
0
 10
16.4161
 20
5.18387
 11
16.5653
 21
5.31126
  0
LINE
  8
0
 10
16.5653
 20
5.31126
 11
16.7325
 21
5.41376
  0
LINE
  8
0
 10
16.7325
 20
5.41376
 11
16.9137
 21
5.48882
  0
LINE
  8
0
 10
16.9137
 20
5.48882
 11
17.1044
 21
5.53461
  0
LINE
  8
0
 10
17.1044
 20
5.53461
 11
17.3
 21
5.54999
  0
LINE
  8
0
 10
17.3
 20
5.54999
 11
17.4955
 21
5.53461
  0
LINE
  8
0
 10
17.4955
 20
5.53461
 11
17.6863
 21
5.48882
  0
LINE
  8
0
 10
17.6863
 20
5.48882
 11
17.8675
 21
5.41376
  0
LINE
  8
0
 10
17.8675
 20
5.41376
 11
18.0347
 21
5.31126
  0
LINE
  8
0
 10
18.0347
 20
5.31126
 11
18.1839
 21
5.18387
  0
LINE
  8
0
 10
18.1839
 20
5.18387
 11
18.3113
 21
5.03473
  0
LINE
  8
0
 10
18.3113
 20
5.03473
 11
18.4138
 21
4.86748
  0
LINE
  8
0
 10
18.4138
 20
4.86748
 11
18.4888
 21
4.68626
  0
LINE
  8
0
 10
18.4888
 20
4.68626
 11
18.5346
 21
4.49553
  0
LINE
  8
0
 10
18.5346
 20
4.49553
 11
18.55
 21
4.29999
  0
LINE
  8
0
 10
18.55
 20
4.29999
 11
18.5346
 21
4.10445
  0
LINE
  8
0
 10
18.5346
 20
4.10445
 11
18.4888
 21
3.91373
  0
LINE
  8
0
 10
18.4888
 20
3.91373
 11
18.4138
 21
3.7325
  0
LINE
  8
0
 10
18.4138
 20
3.7325
 11
18.3113
 21
3.56526
  0
LINE
  8
0
 10
18.3113
 20
3.56526
 11
18.1839
 21
3.41611
  0
LINE
  8
0
 10
18.1839
 20
3.41611
 11
18.0347
 21
3.28873
  0
LINE
  8
0
 10
18.0347
 20
3.28873
 11
17.8675
 21
3.18623
  0
LINE
  8
0
 10
17.8675
 20
3.18623
 11
17.6863
 21
3.11118
  0
LINE
  8
0
 10
17.6863
 20
3.11118
 11
17.4955
 21
3.06538
  0
LINE
  8
0
 10
17.4955
 20
3.06538
 11
17.3
 21
3.04999
  0
LINE
  8
0
 10
17.3
 20
3.04999
 11
17.1044
 21
3.06538
  0
ENDSEC
  0
SECTION
  2
OBJECTS
  0
DICTIONARY
  0
ENDSEC
  0
EOF
