  0
SECTION
  2
BLOCKS
  0
ENDSEC
  0
SECTION
  2
ENTITIES
  0
LINE
  8
0
 10
264.8
 20
44.8
 11
0
 21
44.8
  0
LINE
  8
0
 10
0
 20
44.8
 11
0
 21
0.199997
  0
LINE
  8
0
 10
0
 20
0.199997
 11
264.8
 21
0.199997
  0
LINE
  8
0
 10
264.8
 20
0.199997
 11
264.8
 21
44.8
  0
LINE
  8
0
 10
244.104
 20
40.0154
 11
243.914
 21
40.0612
  0
LINE
  8
0
 10
243.914
 20
40.0612
 11
243.732
 21
40.1362
  0
LINE
  8
0
 10
243.732
 20
40.1362
 11
243.565
 21
40.2387
  0
LINE
  8
0
 10
243.565
 20
40.2387
 11
243.416
 21
40.3661
  0
LINE
  8
0
 10
243.416
 20
40.3661
 11
243.289
 21
40.5153
  0
LINE
  8
0
 10
243.289
 20
40.5153
 11
243.186
 21
40.6825
  0
LINE
  8
0
 10
243.186
 20
40.6825
 11
243.111
 21
40.8637
  0
LINE
  8
0
 10
243.111
 20
40.8637
 11
243.065
 21
41.0544
  0
LINE
  8
0
 10
243.065
 20
41.0544
 11
243.05
 21
41.25
  0
LINE
  8
0
 10
243.05
 20
41.25
 11
243.065
 21
41.4455
  0
LINE
  8
0
 10
243.065
 20
41.4455
 11
243.111
 21
41.6363
  0
LINE
  8
0
 10
243.111
 20
41.6363
 11
243.186
 21
41.8175
  0
LINE
  8
0
 10
243.186
 20
41.8175
 11
243.289
 21
41.9847
  0
LINE
  8
0
 10
243.289
 20
41.9847
 11
243.416
 21
42.1339
  0
LINE
  8
0
 10
243.416
 20
42.1339
 11
243.565
 21
42.2613
  0
LINE
  8
0
 10
243.565
 20
42.2613
 11
243.732
 21
42.3638
  0
LINE
  8
0
 10
243.732
 20
42.3638
 11
243.914
 21
42.4388
  0
LINE
  8
0
 10
243.914
 20
42.4388
 11
244.104
 21
42.4846
  0
LINE
  8
0
 10
244.104
 20
42.4846
 11
244.3
 21
42.5
  0
LINE
  8
0
 10
244.3
 20
42.5
 11
244.496
 21
42.4846
  0
LINE
  8
0
 10
244.496
 20
42.4846
 11
244.686
 21
42.4388
  0
LINE
  8
0
 10
244.686
 20
42.4388
 11
244.867
 21
42.3638
  0
LINE
  8
0
 10
244.867
 20
42.3638
 11
245.035
 21
42.2613
  0
LINE
  8
0
 10
245.035
 20
42.2613
 11
245.184
 21
42.1339
  0
LINE
  8
0
 10
245.184
 20
42.1339
 11
245.311
 21
41.9847
  0
LINE
  8
0
 10
245.311
 20
41.9847
 11
245.414
 21
41.8175
  0
LINE
  8
0
 10
245.414
 20
41.8175
 11
245.489
 21
41.6363
  0
LINE
  8
0
 10
245.489
 20
41.6363
 11
245.535
 21
41.4455
  0
LINE
  8
0
 10
245.535
 20
41.4455
 11
245.55
 21
41.25
  0
LINE
  8
0
 10
245.55
 20
41.25
 11
245.535
 21
41.0544
  0
LINE
  8
0
 10
245.535
 20
41.0544
 11
245.489
 21
40.8637
  0
LINE
  8
0
 10
245.489
 20
40.8637
 11
245.414
 21
40.6825
  0
LINE
  8
0
 10
245.414
 20
40.6825
 11
245.311
 21
40.5153
  0
LINE
  8
0
 10
245.311
 20
40.5153
 11
245.184
 21
40.3661
  0
LINE
  8
0
 10
245.184
 20
40.3661
 11
245.035
 21
40.2387
  0
LINE
  8
0
 10
245.035
 20
40.2387
 11
244.867
 21
40.1362
  0
LINE
  8
0
 10
244.867
 20
40.1362
 11
244.686
 21
40.0612
  0
LINE
  8
0
 10
244.686
 20
40.0612
 11
244.496
 21
40.0154
  0
LINE
  8
0
 10
244.496
 20
40.0154
 11
244.3
 21
40
  0
LINE
  8
0
 10
244.3
 20
40
 11
244.104
 21
40.0154
  0
LINE
  8
0
 10
126.804
 20
40.0154
 11
126.614
 21
40.0612
  0
LINE
  8
0
 10
126.614
 20
40.0612
 11
126.433
 21
40.1362
  0
LINE
  8
0
 10
126.433
 20
40.1362
 11
126.265
 21
40.2387
  0
LINE
  8
0
 10
126.265
 20
40.2387
 11
126.116
 21
40.3661
  0
LINE
  8
0
 10
126.116
 20
40.3661
 11
125.989
 21
40.5153
  0
LINE
  8
0
 10
125.989
 20
40.5153
 11
125.886
 21
40.6825
  0
LINE
  8
0
 10
125.886
 20
40.6825
 11
125.811
 21
40.8637
  0
LINE
  8
0
 10
125.811
 20
40.8637
 11
125.765
 21
41.0544
  0
LINE
  8
0
 10
125.765
 20
41.0544
 11
125.75
 21
41.25
  0
LINE
  8
0
 10
125.75
 20
41.25
 11
125.765
 21
41.4455
  0
LINE
  8
0
 10
125.765
 20
41.4455
 11
125.811
 21
41.6363
  0
LINE
  8
0
 10
125.811
 20
41.6363
 11
125.886
 21
41.8175
  0
LINE
  8
0
 10
125.886
 20
41.8175
 11
125.989
 21
41.9847
  0
LINE
  8
0
 10
125.989
 20
41.9847
 11
126.116
 21
42.1339
  0
LINE
  8
0
 10
126.116
 20
42.1339
 11
126.265
 21
42.2613
  0
LINE
  8
0
 10
126.265
 20
42.2613
 11
126.433
 21
42.3638
  0
LINE
  8
0
 10
126.433
 20
42.3638
 11
126.614
 21
42.4388
  0
LINE
  8
0
 10
126.614
 20
42.4388
 11
126.804
 21
42.4846
  0
LINE
  8
0
 10
126.804
 20
42.4846
 11
127
 21
42.5
  0
LINE
  8
0
 10
127
 20
42.5
 11
127.196
 21
42.4846
  0
LINE
  8
0
 10
127.196
 20
42.4846
 11
127.386
 21
42.4388
  0
LINE
  8
0
 10
127.386
 20
42.4388
 11
127.567
 21
42.3638
  0
LINE
  8
0
 10
127.567
 20
42.3638
 11
127.735
 21
42.2613
  0
LINE
  8
0
 10
127.735
 20
42.2613
 11
127.884
 21
42.1339
  0
LINE
  8
0
 10
127.884
 20
42.1339
 11
128.011
 21
41.9847
  0
LINE
  8
0
 10
128.011
 20
41.9847
 11
128.114
 21
41.8175
  0
LINE
  8
0
 10
128.114
 20
41.8175
 11
128.189
 21
41.6363
  0
LINE
  8
0
 10
128.189
 20
41.6363
 11
128.235
 21
41.4455
  0
LINE
  8
0
 10
128.235
 20
41.4455
 11
128.25
 21
41.25
  0
LINE
  8
0
 10
128.25
 20
41.25
 11
128.235
 21
41.0544
  0
LINE
  8
0
 10
128.235
 20
41.0544
 11
128.189
 21
40.8637
  0
LINE
  8
0
 10
128.189
 20
40.8637
 11
128.114
 21
40.6825
  0
LINE
  8
0
 10
128.114
 20
40.6825
 11
128.011
 21
40.5153
  0
LINE
  8
0
 10
128.011
 20
40.5153
 11
127.884
 21
40.3661
  0
LINE
  8
0
 10
127.884
 20
40.3661
 11
127.735
 21
40.2387
  0
LINE
  8
0
 10
127.735
 20
40.2387
 11
127.567
 21
40.1362
  0
LINE
  8
0
 10
127.567
 20
40.1362
 11
127.386
 21
40.0612
  0
LINE
  8
0
 10
127.386
 20
40.0612
 11
127.196
 21
40.0154
  0
LINE
  8
0
 10
127.196
 20
40.0154
 11
127
 21
40
  0
LINE
  8
0
 10
127
 20
40
 11
126.804
 21
40.0154
  0
LINE
  8
0
 10
16.3044
 20
40.0154
 11
16.1137
 21
40.0612
  0
LINE
  8
0
 10
16.1137
 20
40.0612
 11
15.9325
 21
40.1362
  0
LINE
  8
0
 10
15.9325
 20
40.1362
 11
15.7653
 21
40.2387
  0
LINE
  8
0
 10
15.7653
 20
40.2387
 11
15.6161
 21
40.3661
  0
LINE
  8
0
 10
15.6161
 20
40.3661
 11
15.4887
 21
40.5153
  0
LINE
  8
0
 10
15.4887
 20
40.5153
 11
15.3862
 21
40.6825
  0
LINE
  8
0
 10
15.3862
 20
40.6825
 11
15.3112
 21
40.8637
  0
LINE
  8
0
 10
15.3112
 20
40.8637
 11
15.2654
 21
41.0544
  0
LINE
  8
0
 10
15.2654
 20
41.0544
 11
15.25
 21
41.25
  0
LINE
  8
0
 10
15.25
 20
41.25
 11
15.2654
 21
41.4455
  0
LINE
  8
0
 10
15.2654
 20
41.4455
 11
15.3112
 21
41.6363
  0
LINE
  8
0
 10
15.3112
 20
41.6363
 11
15.3862
 21
41.8175
  0
LINE
  8
0
 10
15.3862
 20
41.8175
 11
15.4887
 21
41.9847
  0
LINE
  8
0
 10
15.4887
 20
41.9847
 11
15.6161
 21
42.1339
  0
LINE
  8
0
 10
15.6161
 20
42.1339
 11
15.7653
 21
42.2613
  0
LINE
  8
0
 10
15.7653
 20
42.2613
 11
15.9325
 21
42.3638
  0
LINE
  8
0
 10
15.9325
 20
42.3638
 11
16.1137
 21
42.4388
  0
LINE
  8
0
 10
16.1137
 20
42.4388
 11
16.3044
 21
42.4846
  0
LINE
  8
0
 10
16.3044
 20
42.4846
 11
16.5
 21
42.5
  0
LINE
  8
0
 10
16.5
 20
42.5
 11
16.6955
 21
42.4846
  0
LINE
  8
0
 10
16.6955
 20
42.4846
 11
16.8863
 21
42.4388
  0
LINE
  8
0
 10
16.8863
 20
42.4388
 11
17.0675
 21
42.3638
  0
LINE
  8
0
 10
17.0675
 20
42.3638
 11
17.2347
 21
42.2613
  0
LINE
  8
0
 10
17.2347
 20
42.2613
 11
17.3839
 21
42.1339
  0
LINE
  8
0
 10
17.3839
 20
42.1339
 11
17.5113
 21
41.9847
  0
LINE
  8
0
 10
17.5113
 20
41.9847
 11
17.6138
 21
41.8175
  0
LINE
  8
0
 10
17.6138
 20
41.8175
 11
17.6888
 21
41.6363
  0
LINE
  8
0
 10
17.6888
 20
41.6363
 11
17.7346
 21
41.4455
  0
LINE
  8
0
 10
17.7346
 20
41.4455
 11
17.75
 21
41.25
  0
LINE
  8
0
 10
17.75
 20
41.25
 11
17.7346
 21
41.0544
  0
LINE
  8
0
 10
17.7346
 20
41.0544
 11
17.6888
 21
40.8637
  0
LINE
  8
0
 10
17.6888
 20
40.8637
 11
17.6138
 21
40.6825
  0
LINE
  8
0
 10
17.6138
 20
40.6825
 11
17.5113
 21
40.5153
  0
LINE
  8
0
 10
17.5113
 20
40.5153
 11
17.3839
 21
40.3661
  0
LINE
  8
0
 10
17.3839
 20
40.3661
 11
17.2347
 21
40.2387
  0
LINE
  8
0
 10
17.2347
 20
40.2387
 11
17.0675
 21
40.1362
  0
LINE
  8
0
 10
17.0675
 20
40.1362
 11
16.8863
 21
40.0612
  0
LINE
  8
0
 10
16.8863
 20
40.0612
 11
16.6955
 21
40.0154
  0
LINE
  8
0
 10
16.6955
 20
40.0154
 11
16.5
 21
40
  0
LINE
  8
0
 10
16.5
 20
40
 11
16.3044
 21
40.0154
  0
LINE
  8
0
 10
203
 20
24.5
 11
203
 21
38.5
  0
LINE
  8
0
 10
203
 20
38.5
 11
217
 21
38.5
  0
LINE
  8
0
 10
217
 20
38.5
 11
217
 21
24.5
  0
LINE
  8
0
 10
217
 20
24.5
 11
203
 21
24.5
  0
LINE
  8
0
 10
95
 20
24.5
 11
95
 21
38.5
  0
LINE
  8
0
 10
95
 20
38.5
 11
109
 21
38.5
  0
LINE
  8
0
 10
109
 20
38.5
 11
109
 21
24.5
  0
LINE
  8
0
 10
109
 20
24.5
 11
95
 21
24.5
  0
LINE
  8
0
 10
145
 20
15.5
 11
145
 21
29.5
  0
LINE
  8
0
 10
145
 20
29.5
 11
159
 21
29.5
  0
LINE
  8
0
 10
159
 20
29.5
 11
159
 21
15.5
  0
LINE
  8
0
 10
159
 20
15.5
 11
145
 21
15.5
  0
LINE
  8
0
 10
185
 20
15.5
 11
185
 21
29.5
  0
LINE
  8
0
 10
185
 20
29.5
 11
199
 21
29.5
  0
LINE
  8
0
 10
199
 20
29.5
 11
199
 21
15.5
  0
LINE
  8
0
 10
199
 20
15.5
 11
185
 21
15.5
  0
LINE
  8
0
 10
165
 20
15.5
 11
165
 21
29.5
  0
LINE
  8
0
 10
165
 20
29.5
 11
179
 21
29.5
  0
LINE
  8
0
 10
179
 20
29.5
 11
179
 21
15.5
  0
LINE
  8
0
 10
179
 20
15.5
 11
165
 21
15.5
  0
LINE
  8
0
 10
77
 20
15.5
 11
77
 21
29.5
  0
LINE
  8
0
 10
77
 20
29.5
 11
91
 21
29.5
  0
LINE
  8
0
 10
91
 20
29.5
 11
91
 21
15.5
  0
LINE
  8
0
 10
91
 20
15.5
 11
77
 21
15.5
  0
LINE
  8
0
 10
57
 20
15.5
 11
57
 21
29.5
  0
LINE
  8
0
 10
57
 20
29.5
 11
71
 21
29.5
  0
LINE
  8
0
 10
71
 20
29.5
 11
71
 21
15.5
  0
LINE
  8
0
 10
71
 20
15.5
 11
57
 21
15.5
  0
LINE
  8
0
 10
37
 20
15.5
 11
37
 21
29.5
  0
LINE
  8
0
 10
37
 20
29.5
 11
51
 21
29.5
  0
LINE
  8
0
 10
51
 20
29.5
 11
51
 21
15.5
  0
LINE
  8
0
 10
51
 20
15.5
 11
37
 21
15.5
  0
LINE
  8
0
 10
95
 20
6.5
 11
95
 21
20.5
  0
LINE
  8
0
 10
95
 20
20.5
 11
109
 21
20.5
  0
LINE
  8
0
 10
109
 20
20.5
 11
109
 21
6.5
  0
LINE
  8
0
 10
109
 20
6.5
 11
95
 21
6.5
  0
LINE
  8
0
 10
221
 20
6.5
 11
221
 21
20.5
  0
LINE
  8
0
 10
221
 20
20.5
 11
235
 21
20.5
  0
LINE
  8
0
 10
235
 20
20.5
 11
235
 21
6.5
  0
LINE
  8
0
 10
235
 20
6.5
 11
221
 21
6.5
  0
LINE
  8
0
 10
203
 20
6.5
 11
203
 21
20.5
  0
LINE
  8
0
 10
203
 20
20.5
 11
217
 21
20.5
  0
LINE
  8
0
 10
217
 20
20.5
 11
217
 21
6.5
  0
LINE
  8
0
 10
217
 20
6.5
 11
203
 21
6.5
  0
LINE
  8
0
 10
16.3044
 20
2.51538
 11
16.1137
 21
2.56117
  0
LINE
  8
0
 10
16.1137
 20
2.56117
 11
15.9325
 21
2.63623
  0
LINE
  8
0
 10
15.9325
 20
2.63623
 11
15.7653
 21
2.73872
  0
LINE
  8
0
 10
15.7653
 20
2.73872
 11
15.6161
 21
2.8661
  0
LINE
  8
0
 10
15.6161
 20
2.8661
 11
15.4887
 21
3.01526
  0
LINE
  8
0
 10
15.4887
 20
3.01526
 11
15.3862
 21
3.18251
  0
LINE
  8
0
 10
15.3862
 20
3.18251
 11
15.3112
 21
3.36372
  0
LINE
  8
0
 10
15.3112
 20
3.36372
 11
15.2654
 21
3.55444
  0
LINE
  8
0
 10
15.2654
 20
3.55444
 11
15.25
 21
3.75
  0
LINE
  8
0
 10
15.25
 20
3.75
 11
15.2654
 21
3.94554
  0
LINE
  8
0
 10
15.2654
 20
3.94554
 11
15.3112
 21
4.13626
  0
LINE
  8
0
 10
15.3112
 20
4.13626
 11
15.3862
 21
4.31747
  0
LINE
  8
0
 10
15.3862
 20
4.31747
 11
15.4887
 21
4.48473
  0
LINE
  8
0
 10
15.4887
 20
4.48473
 11
15.6161
 21
4.63388
  0
LINE
  8
0
 10
15.6161
 20
4.63388
 11
15.7653
 21
4.76126
  0
LINE
  8
0
 10
15.7653
 20
4.76126
 11
15.9325
 21
4.86375
  0
LINE
  8
0
 10
15.9325
 20
4.86375
 11
16.1137
 21
4.93881
  0
LINE
  8
0
 10
16.1137
 20
4.93881
 11
16.3044
 21
4.9846
  0
LINE
  8
0
 10
16.3044
 20
4.9846
 11
16.5
 21
5
  0
LINE
  8
0
 10
16.5
 20
5
 11
16.6955
 21
4.9846
  0
LINE
  8
0
 10
16.6955
 20
4.9846
 11
16.8863
 21
4.93881
  0
LINE
  8
0
 10
16.8863
 20
4.93881
 11
17.0675
 21
4.86375
  0
LINE
  8
0
 10
17.0675
 20
4.86375
 11
17.2347
 21
4.76126
  0
LINE
  8
0
 10
17.2347
 20
4.76126
 11
17.3839
 21
4.63388
  0
LINE
  8
0
 10
17.3839
 20
4.63388
 11
17.5113
 21
4.48473
  0
LINE
  8
0
 10
17.5113
 20
4.48473
 11
17.6138
 21
4.31747
  0
LINE
  8
0
 10
17.6138
 20
4.31747
 11
17.6888
 21
4.13626
  0
LINE
  8
0
 10
17.6888
 20
4.13626
 11
17.7346
 21
3.94554
  0
LINE
  8
0
 10
17.7346
 20
3.94554
 11
17.75
 21
3.75
  0
LINE
  8
0
 10
17.75
 20
3.75
 11
17.7346
 21
3.55444
  0
LINE
  8
0
 10
17.7346
 20
3.55444
 11
17.6888
 21
3.36372
  0
LINE
  8
0
 10
17.6888
 20
3.36372
 11
17.6138
 21
3.18251
  0
LINE
  8
0
 10
17.6138
 20
3.18251
 11
17.5113
 21
3.01526
  0
LINE
  8
0
 10
17.5113
 20
3.01526
 11
17.3839
 21
2.8661
  0
LINE
  8
0
 10
17.3839
 20
2.8661
 11
17.2347
 21
2.73872
  0
LINE
  8
0
 10
17.2347
 20
2.73872
 11
17.0675
 21
2.63623
  0
LINE
  8
0
 10
17.0675
 20
2.63623
 11
16.8863
 21
2.56117
  0
LINE
  8
0
 10
16.8863
 20
2.56117
 11
16.6955
 21
2.51538
  0
LINE
  8
0
 10
16.6955
 20
2.51538
 11
16.5
 21
2.5
  0
LINE
  8
0
 10
16.5
 20
2.5
 11
16.3044
 21
2.51538
  0
LINE
  8
0
 10
126.804
 20
2.51538
 11
126.614
 21
2.56117
  0
LINE
  8
0
 10
126.614
 20
2.56117
 11
126.433
 21
2.63623
  0
LINE
  8
0
 10
126.433
 20
2.63623
 11
126.265
 21
2.73872
  0
LINE
  8
0
 10
126.265
 20
2.73872
 11
126.116
 21
2.8661
  0
LINE
  8
0
 10
126.116
 20
2.8661
 11
125.989
 21
3.01526
  0
LINE
  8
0
 10
125.989
 20
3.01526
 11
125.886
 21
3.18251
  0
LINE
  8
0
 10
125.886
 20
3.18251
 11
125.811
 21
3.36372
  0
LINE
  8
0
 10
125.811
 20
3.36372
 11
125.765
 21
3.55444
  0
LINE
  8
0
 10
125.765
 20
3.55444
 11
125.75
 21
3.75
  0
LINE
  8
0
 10
125.75
 20
3.75
 11
125.765
 21
3.94554
  0
LINE
  8
0
 10
125.765
 20
3.94554
 11
125.811
 21
4.13626
  0
LINE
  8
0
 10
125.811
 20
4.13626
 11
125.886
 21
4.31747
  0
LINE
  8
0
 10
125.886
 20
4.31747
 11
125.989
 21
4.48473
  0
LINE
  8
0
 10
125.989
 20
4.48473
 11
126.116
 21
4.63388
  0
LINE
  8
0
 10
126.116
 20
4.63388
 11
126.265
 21
4.76126
  0
LINE
  8
0
 10
126.265
 20
4.76126
 11
126.433
 21
4.86375
  0
LINE
  8
0
 10
126.433
 20
4.86375
 11
126.614
 21
4.93881
  0
LINE
  8
0
 10
126.614
 20
4.93881
 11
126.804
 21
4.9846
  0
LINE
  8
0
 10
126.804
 20
4.9846
 11
127
 21
5
  0
LINE
  8
0
 10
127
 20
5
 11
127.196
 21
4.9846
  0
LINE
  8
0
 10
127.196
 20
4.9846
 11
127.386
 21
4.93881
  0
LINE
  8
0
 10
127.386
 20
4.93881
 11
127.567
 21
4.86375
  0
LINE
  8
0
 10
127.567
 20
4.86375
 11
127.735
 21
4.76126
  0
LINE
  8
0
 10
127.735
 20
4.76126
 11
127.884
 21
4.63388
  0
LINE
  8
0
 10
127.884
 20
4.63388
 11
128.011
 21
4.48473
  0
LINE
  8
0
 10
128.011
 20
4.48473
 11
128.114
 21
4.31747
  0
LINE
  8
0
 10
128.114
 20
4.31747
 11
128.189
 21
4.13626
  0
LINE
  8
0
 10
128.189
 20
4.13626
 11
128.235
 21
3.94554
  0
LINE
  8
0
 10
128.235
 20
3.94554
 11
128.25
 21
3.75
  0
LINE
  8
0
 10
128.25
 20
3.75
 11
128.235
 21
3.55444
  0
LINE
  8
0
 10
128.235
 20
3.55444
 11
128.189
 21
3.36372
  0
LINE
  8
0
 10
128.189
 20
3.36372
 11
128.114
 21
3.18251
  0
LINE
  8
0
 10
128.114
 20
3.18251
 11
128.011
 21
3.01526
  0
LINE
  8
0
 10
128.011
 20
3.01526
 11
127.884
 21
2.8661
  0
LINE
  8
0
 10
127.884
 20
2.8661
 11
127.735
 21
2.73872
  0
LINE
  8
0
 10
127.735
 20
2.73872
 11
127.567
 21
2.63623
  0
LINE
  8
0
 10
127.567
 20
2.63623
 11
127.386
 21
2.56117
  0
LINE
  8
0
 10
127.386
 20
2.56117
 11
127.196
 21
2.51538
  0
LINE
  8
0
 10
127.196
 20
2.51538
 11
127
 21
2.5
  0
LINE
  8
0
 10
127
 20
2.5
 11
126.804
 21
2.51538
  0
LINE
  8
0
 10
244.104
 20
2.51538
 11
243.914
 21
2.56117
  0
LINE
  8
0
 10
243.914
 20
2.56117
 11
243.732
 21
2.63623
  0
LINE
  8
0
 10
243.732
 20
2.63623
 11
243.565
 21
2.73872
  0
LINE
  8
0
 10
243.565
 20
2.73872
 11
243.416
 21
2.8661
  0
LINE
  8
0
 10
243.416
 20
2.8661
 11
243.289
 21
3.01526
  0
LINE
  8
0
 10
243.289
 20
3.01526
 11
243.186
 21
3.18251
  0
LINE
  8
0
 10
243.186
 20
3.18251
 11
243.111
 21
3.36372
  0
LINE
  8
0
 10
243.111
 20
3.36372
 11
243.065
 21
3.55444
  0
LINE
  8
0
 10
243.065
 20
3.55444
 11
243.05
 21
3.75
  0
LINE
  8
0
 10
243.05
 20
3.75
 11
243.065
 21
3.94554
  0
LINE
  8
0
 10
243.065
 20
3.94554
 11
243.111
 21
4.13626
  0
LINE
  8
0
 10
243.111
 20
4.13626
 11
243.186
 21
4.31747
  0
LINE
  8
0
 10
243.186
 20
4.31747
 11
243.289
 21
4.48473
  0
LINE
  8
0
 10
243.289
 20
4.48473
 11
243.416
 21
4.63388
  0
LINE
  8
0
 10
243.416
 20
4.63388
 11
243.565
 21
4.76126
  0
LINE
  8
0
 10
243.565
 20
4.76126
 11
243.732
 21
4.86375
  0
LINE
  8
0
 10
243.732
 20
4.86375
 11
243.914
 21
4.93881
  0
LINE
  8
0
 10
243.914
 20
4.93881
 11
244.104
 21
4.9846
  0
LINE
  8
0
 10
244.104
 20
4.9846
 11
244.3
 21
5
  0
LINE
  8
0
 10
244.3
 20
5
 11
244.496
 21
4.9846
  0
LINE
  8
0
 10
244.496
 20
4.9846
 11
244.686
 21
4.93881
  0
LINE
  8
0
 10
244.686
 20
4.93881
 11
244.867
 21
4.86375
  0
LINE
  8
0
 10
244.867
 20
4.86375
 11
245.035
 21
4.76126
  0
LINE
  8
0
 10
245.035
 20
4.76126
 11
245.184
 21
4.63388
  0
LINE
  8
0
 10
245.184
 20
4.63388
 11
245.311
 21
4.48473
  0
LINE
  8
0
 10
245.311
 20
4.48473
 11
245.414
 21
4.31747
  0
LINE
  8
0
 10
245.414
 20
4.31747
 11
245.489
 21
4.13626
  0
LINE
  8
0
 10
245.489
 20
4.13626
 11
245.535
 21
3.94554
  0
LINE
  8
0
 10
245.535
 20
3.94554
 11
245.55
 21
3.75
  0
LINE
  8
0
 10
245.55
 20
3.75
 11
245.535
 21
3.55444
  0
LINE
  8
0
 10
245.535
 20
3.55444
 11
245.489
 21
3.36372
  0
LINE
  8
0
 10
245.489
 20
3.36372
 11
245.414
 21
3.18251
  0
LINE
  8
0
 10
245.414
 20
3.18251
 11
245.311
 21
3.01526
  0
LINE
  8
0
 10
245.311
 20
3.01526
 11
245.184
 21
2.8661
  0
LINE
  8
0
 10
245.184
 20
2.8661
 11
245.035
 21
2.73872
  0
LINE
  8
0
 10
245.035
 20
2.73872
 11
244.867
 21
2.63623
  0
LINE
  8
0
 10
244.867
 20
2.63623
 11
244.686
 21
2.56117
  0
LINE
  8
0
 10
244.686
 20
2.56117
 11
244.496
 21
2.51538
  0
LINE
  8
0
 10
244.496
 20
2.51538
 11
244.3
 21
2.5
  0
LINE
  8
0
 10
244.3
 20
2.5
 11
244.104
 21
2.51538
  0
ENDSEC
  0
SECTION
  2
OBJECTS
  0
DICTIONARY
  0
ENDSEC
  0
EOF
