  0
SECTION
  2
BLOCKS
  0
ENDSEC
  0
SECTION
  2
ENTITIES
  0
LINE
  8
0
 10
364.932
 20
44.8
 11
0
 21
44.8
  0
LINE
  8
0
 10
0
 20
44.8
 11
0
 21
0.199997
  0
LINE
  8
0
 10
0
 20
0.199997
 11
364.932
 21
0.199997
  0
LINE
  8
0
 10
364.932
 20
0.199997
 11
364.932
 21
44.8
  0
LINE
  8
0
 10
320.686
 20
40.7654
 11
320.496
 21
40.8112
  0
LINE
  8
0
 10
320.496
 20
40.8112
 11
320.314
 21
40.8862
  0
LINE
  8
0
 10
320.314
 20
40.8862
 11
320.147
 21
40.9887
  0
LINE
  8
0
 10
320.147
 20
40.9887
 11
319.998
 21
41.1161
  0
LINE
  8
0
 10
319.998
 20
41.1161
 11
319.871
 21
41.2653
  0
LINE
  8
0
 10
319.871
 20
41.2653
 11
319.768
 21
41.4325
  0
LINE
  8
0
 10
319.768
 20
41.4325
 11
319.693
 21
41.6137
  0
LINE
  8
0
 10
319.693
 20
41.6137
 11
319.647
 21
41.8044
  0
LINE
  8
0
 10
319.647
 20
41.8044
 11
319.632
 21
42
  0
LINE
  8
0
 10
319.632
 20
42
 11
319.647
 21
42.1955
  0
LINE
  8
0
 10
319.647
 20
42.1955
 11
319.693
 21
42.3863
  0
LINE
  8
0
 10
319.693
 20
42.3863
 11
319.768
 21
42.5675
  0
LINE
  8
0
 10
319.768
 20
42.5675
 11
319.871
 21
42.7347
  0
LINE
  8
0
 10
319.871
 20
42.7347
 11
319.998
 21
42.8839
  0
LINE
  8
0
 10
319.998
 20
42.8839
 11
320.147
 21
43.0113
  0
LINE
  8
0
 10
320.147
 20
43.0113
 11
320.314
 21
43.1138
  0
LINE
  8
0
 10
320.314
 20
43.1138
 11
320.496
 21
43.1888
  0
LINE
  8
0
 10
320.496
 20
43.1888
 11
320.686
 21
43.2346
  0
LINE
  8
0
 10
320.686
 20
43.2346
 11
320.882
 21
43.25
  0
LINE
  8
0
 10
320.882
 20
43.25
 11
321.078
 21
43.2346
  0
LINE
  8
0
 10
321.078
 20
43.2346
 11
321.268
 21
43.1888
  0
LINE
  8
0
 10
321.268
 20
43.1888
 11
321.449
 21
43.1138
  0
LINE
  8
0
 10
321.449
 20
43.1138
 11
321.617
 21
43.0113
  0
LINE
  8
0
 10
321.617
 20
43.0113
 11
321.766
 21
42.8839
  0
LINE
  8
0
 10
321.766
 20
42.8839
 11
321.893
 21
42.7347
  0
LINE
  8
0
 10
321.893
 20
42.7347
 11
321.996
 21
42.5675
  0
LINE
  8
0
 10
321.996
 20
42.5675
 11
322.071
 21
42.3863
  0
LINE
  8
0
 10
322.071
 20
42.3863
 11
322.117
 21
42.1955
  0
LINE
  8
0
 10
322.117
 20
42.1955
 11
322.132
 21
42
  0
LINE
  8
0
 10
322.132
 20
42
 11
322.117
 21
41.8044
  0
LINE
  8
0
 10
322.117
 20
41.8044
 11
322.071
 21
41.6137
  0
LINE
  8
0
 10
322.071
 20
41.6137
 11
321.996
 21
41.4325
  0
LINE
  8
0
 10
321.996
 20
41.4325
 11
321.893
 21
41.2653
  0
LINE
  8
0
 10
321.893
 20
41.2653
 11
321.766
 21
41.1161
  0
LINE
  8
0
 10
321.766
 20
41.1161
 11
321.617
 21
40.9887
  0
LINE
  8
0
 10
321.617
 20
40.9887
 11
321.449
 21
40.8862
  0
LINE
  8
0
 10
321.449
 20
40.8862
 11
321.268
 21
40.8112
  0
LINE
  8
0
 10
321.268
 20
40.8112
 11
321.078
 21
40.7654
  0
LINE
  8
0
 10
321.078
 20
40.7654
 11
320.882
 21
40.75
  0
LINE
  8
0
 10
320.882
 20
40.75
 11
320.686
 21
40.7654
  0
LINE
  8
0
 10
157.486
 20
40.7654
 11
157.296
 21
40.8112
  0
LINE
  8
0
 10
157.296
 20
40.8112
 11
157.115
 21
40.8862
  0
LINE
  8
0
 10
157.115
 20
40.8862
 11
156.947
 21
40.9887
  0
LINE
  8
0
 10
156.947
 20
40.9887
 11
156.798
 21
41.1161
  0
LINE
  8
0
 10
156.798
 20
41.1161
 11
156.671
 21
41.2653
  0
LINE
  8
0
 10
156.671
 20
41.2653
 11
156.568
 21
41.4325
  0
LINE
  8
0
 10
156.568
 20
41.4325
 11
156.493
 21
41.6137
  0
LINE
  8
0
 10
156.493
 20
41.6137
 11
156.447
 21
41.8044
  0
LINE
  8
0
 10
156.447
 20
41.8044
 11
156.432
 21
42
  0
LINE
  8
0
 10
156.432
 20
42
 11
156.447
 21
42.1955
  0
LINE
  8
0
 10
156.447
 20
42.1955
 11
156.493
 21
42.3863
  0
LINE
  8
0
 10
156.493
 20
42.3863
 11
156.568
 21
42.5675
  0
LINE
  8
0
 10
156.568
 20
42.5675
 11
156.671
 21
42.7347
  0
LINE
  8
0
 10
156.671
 20
42.7347
 11
156.798
 21
42.8839
  0
LINE
  8
0
 10
156.798
 20
42.8839
 11
156.947
 21
43.0113
  0
LINE
  8
0
 10
156.947
 20
43.0113
 11
157.115
 21
43.1138
  0
LINE
  8
0
 10
157.115
 20
43.1138
 11
157.296
 21
43.1888
  0
LINE
  8
0
 10
157.296
 20
43.1888
 11
157.486
 21
43.2346
  0
LINE
  8
0
 10
157.486
 20
43.2346
 11
157.682
 21
43.25
  0
LINE
  8
0
 10
157.682
 20
43.25
 11
157.878
 21
43.2346
  0
LINE
  8
0
 10
157.878
 20
43.2346
 11
158.068
 21
43.1888
  0
LINE
  8
0
 10
158.068
 20
43.1888
 11
158.249
 21
43.1138
  0
LINE
  8
0
 10
158.249
 20
43.1138
 11
158.417
 21
43.0113
  0
LINE
  8
0
 10
158.417
 20
43.0113
 11
158.566
 21
42.8839
  0
LINE
  8
0
 10
158.566
 20
42.8839
 11
158.693
 21
42.7347
  0
LINE
  8
0
 10
158.693
 20
42.7347
 11
158.796
 21
42.5675
  0
LINE
  8
0
 10
158.796
 20
42.5675
 11
158.871
 21
42.3863
  0
LINE
  8
0
 10
158.871
 20
42.3863
 11
158.917
 21
42.1955
  0
LINE
  8
0
 10
158.917
 20
42.1955
 11
158.932
 21
42
  0
LINE
  8
0
 10
158.932
 20
42
 11
158.917
 21
41.8044
  0
LINE
  8
0
 10
158.917
 20
41.8044
 11
158.871
 21
41.6137
  0
LINE
  8
0
 10
158.871
 20
41.6137
 11
158.796
 21
41.4325
  0
LINE
  8
0
 10
158.796
 20
41.4325
 11
158.693
 21
41.2653
  0
LINE
  8
0
 10
158.693
 20
41.2653
 11
158.566
 21
41.1161
  0
LINE
  8
0
 10
158.566
 20
41.1161
 11
158.417
 21
40.9887
  0
LINE
  8
0
 10
158.417
 20
40.9887
 11
158.249
 21
40.8862
  0
LINE
  8
0
 10
158.249
 20
40.8862
 11
158.068
 21
40.8112
  0
LINE
  8
0
 10
158.068
 20
40.8112
 11
157.878
 21
40.7654
  0
LINE
  8
0
 10
157.878
 20
40.7654
 11
157.682
 21
40.75
  0
LINE
  8
0
 10
157.682
 20
40.75
 11
157.486
 21
40.7654
  0
LINE
  8
0
 10
39.1954
 20
40.7654
 11
39.0047
 21
40.8112
  0
LINE
  8
0
 10
39.0047
 20
40.8112
 11
38.8235
 21
40.8862
  0
LINE
  8
0
 10
38.8235
 20
40.8862
 11
38.6563
 21
40.9887
  0
LINE
  8
0
 10
38.6563
 20
40.9887
 11
38.5071
 21
41.1161
  0
LINE
  8
0
 10
38.5071
 20
41.1161
 11
38.3797
 21
41.2653
  0
LINE
  8
0
 10
38.3797
 20
41.2653
 11
38.2772
 21
41.4325
  0
LINE
  8
0
 10
38.2772
 20
41.4325
 11
38.2022
 21
41.6137
  0
LINE
  8
0
 10
38.2022
 20
41.6137
 11
38.1564
 21
41.8044
  0
LINE
  8
0
 10
38.1564
 20
41.8044
 11
38.141
 21
42
  0
LINE
  8
0
 10
38.141
 20
42
 11
38.1564
 21
42.1955
  0
LINE
  8
0
 10
38.1564
 20
42.1955
 11
38.2022
 21
42.3863
  0
LINE
  8
0
 10
38.2022
 20
42.3863
 11
38.2772
 21
42.5675
  0
LINE
  8
0
 10
38.2772
 20
42.5675
 11
38.3797
 21
42.7347
  0
LINE
  8
0
 10
38.3797
 20
42.7347
 11
38.5071
 21
42.8839
  0
LINE
  8
0
 10
38.5071
 20
42.8839
 11
38.6563
 21
43.0113
  0
LINE
  8
0
 10
38.6563
 20
43.0113
 11
38.8235
 21
43.1138
  0
LINE
  8
0
 10
38.8235
 20
43.1138
 11
39.0047
 21
43.1888
  0
LINE
  8
0
 10
39.0047
 20
43.1888
 11
39.1954
 21
43.2346
  0
LINE
  8
0
 10
39.1954
 20
43.2346
 11
39.391
 21
43.25
  0
LINE
  8
0
 10
39.391
 20
43.25
 11
39.5865
 21
43.2346
  0
LINE
  8
0
 10
39.5865
 20
43.2346
 11
39.7773
 21
43.1888
  0
LINE
  8
0
 10
39.7773
 20
43.1888
 11
39.9585
 21
43.1138
  0
LINE
  8
0
 10
39.9585
 20
43.1138
 11
40.1257
 21
43.0113
  0
LINE
  8
0
 10
40.1257
 20
43.0113
 11
40.2749
 21
42.8839
  0
LINE
  8
0
 10
40.2749
 20
42.8839
 11
40.4023
 21
42.7347
  0
LINE
  8
0
 10
40.4023
 20
42.7347
 11
40.5047
 21
42.5675
  0
LINE
  8
0
 10
40.5047
 20
42.5675
 11
40.5798
 21
42.3863
  0
LINE
  8
0
 10
40.5798
 20
42.3863
 11
40.6256
 21
42.1955
  0
LINE
  8
0
 10
40.6256
 20
42.1955
 11
40.641
 21
42
  0
LINE
  8
0
 10
40.641
 20
42
 11
40.6256
 21
41.8044
  0
LINE
  8
0
 10
40.6256
 20
41.8044
 11
40.5798
 21
41.6137
  0
LINE
  8
0
 10
40.5798
 20
41.6137
 11
40.5047
 21
41.4325
  0
LINE
  8
0
 10
40.5047
 20
41.4325
 11
40.4023
 21
41.2653
  0
LINE
  8
0
 10
40.4023
 20
41.2653
 11
40.2749
 21
41.1161
  0
LINE
  8
0
 10
40.2749
 20
41.1161
 11
40.1257
 21
40.9887
  0
LINE
  8
0
 10
40.1257
 20
40.9887
 11
39.9585
 21
40.8862
  0
LINE
  8
0
 10
39.9585
 20
40.8862
 11
39.7773
 21
40.8112
  0
LINE
  8
0
 10
39.7773
 20
40.8112
 11
39.5865
 21
40.7654
  0
LINE
  8
0
 10
39.5865
 20
40.7654
 11
39.391
 21
40.75
  0
LINE
  8
0
 10
39.391
 20
40.75
 11
39.1954
 21
40.7654
  0
LINE
  8
0
 10
236.832
 20
24.5
 11
236.832
 21
38.5
  0
LINE
  8
0
 10
236.832
 20
38.5
 11
250.832
 21
38.5
  0
LINE
  8
0
 10
250.832
 20
38.5
 11
250.832
 21
24.5
  0
LINE
  8
0
 10
250.832
 20
24.5
 11
236.832
 21
24.5
  0
LINE
  8
0
 10
122.532
 20
24.5
 11
122.532
 21
38.5
  0
LINE
  8
0
 10
122.532
 20
38.5
 11
136.532
 21
38.5
  0
LINE
  8
0
 10
136.532
 20
38.5
 11
136.532
 21
24.5
  0
LINE
  8
0
 10
136.532
 20
24.5
 11
122.532
 21
24.5
  0
LINE
  8
0
 10
309.882
 20
11.5
 11
309.882
 21
33.5
  0
LINE
  8
0
 10
309.882
 20
33.5
 11
331.882
 21
33.5
  0
LINE
  8
0
 10
331.882
 20
33.5
 11
331.882
 21
11.5
  0
LINE
  8
0
 10
331.882
 20
11.5
 11
309.882
 21
11.5
  0
LINE
  8
0
 10
104.532
 20
15.5
 11
104.532
 21
29.5
  0
LINE
  8
0
 10
104.532
 20
29.5
 11
118.532
 21
29.5
  0
LINE
  8
0
 10
118.532
 20
29.5
 11
118.532
 21
15.5
  0
LINE
  8
0
 10
118.532
 20
15.5
 11
104.532
 21
15.5
  0
LINE
  8
0
 10
218.832
 20
15.5
 11
218.832
 21
29.5
  0
LINE
  8
0
 10
218.832
 20
29.5
 11
232.832
 21
29.5
  0
LINE
  8
0
 10
232.832
 20
29.5
 11
232.832
 21
15.5
  0
LINE
  8
0
 10
232.832
 20
15.5
 11
218.832
 21
15.5
  0
LINE
  8
0
 10
198.832
 20
15.5
 11
198.832
 21
29.5
  0
LINE
  8
0
 10
198.832
 20
29.5
 11
212.832
 21
29.5
  0
LINE
  8
0
 10
212.832
 20
29.5
 11
212.832
 21
15.5
  0
LINE
  8
0
 10
212.832
 20
15.5
 11
198.832
 21
15.5
  0
LINE
  8
0
 10
178.832
 20
15.5
 11
178.832
 21
29.5
  0
LINE
  8
0
 10
178.832
 20
29.5
 11
192.832
 21
29.5
  0
LINE
  8
0
 10
192.832
 20
29.5
 11
192.832
 21
15.5
  0
LINE
  8
0
 10
192.832
 20
15.5
 11
178.832
 21
15.5
  0
LINE
  8
0
 10
84.532
 20
15.5
 11
84.532
 21
29.5
  0
LINE
  8
0
 10
84.532
 20
29.5
 11
98.532
 21
29.5
  0
LINE
  8
0
 10
98.532
 20
29.5
 11
98.532
 21
15.5
  0
LINE
  8
0
 10
98.532
 20
15.5
 11
84.532
 21
15.5
  0
LINE
  8
0
 10
64.532
 20
15.5
 11
64.532
 21
29.5
  0
LINE
  8
0
 10
64.532
 20
29.5
 11
78.532
 21
29.5
  0
LINE
  8
0
 10
78.532
 20
29.5
 11
78.532
 21
15.5
  0
LINE
  8
0
 10
78.532
 20
15.5
 11
64.532
 21
15.5
  0
LINE
  8
0
 10
236.832
 20
6.5
 11
236.832
 21
20.5
  0
LINE
  8
0
 10
236.832
 20
20.5
 11
250.832
 21
20.5
  0
LINE
  8
0
 10
250.832
 20
20.5
 11
250.832
 21
6.5
  0
LINE
  8
0
 10
250.832
 20
6.5
 11
236.832
 21
6.5
  0
LINE
  8
0
 10
254.832
 20
6.5
 11
254.832
 21
20.5
  0
LINE
  8
0
 10
254.832
 20
20.5
 11
268.832
 21
20.5
  0
LINE
  8
0
 10
268.832
 20
20.5
 11
268.832
 21
6.5
  0
LINE
  8
0
 10
268.832
 20
6.5
 11
254.832
 21
6.5
  0
LINE
  8
0
 10
122.532
 20
6.5
 11
122.532
 21
20.5
  0
LINE
  8
0
 10
122.532
 20
20.5
 11
136.532
 21
20.5
  0
LINE
  8
0
 10
136.532
 20
20.5
 11
136.532
 21
6.5
  0
LINE
  8
0
 10
136.532
 20
6.5
 11
122.532
 21
6.5
  0
LINE
  8
0
 10
39.1954
 20
1.76538
 11
39.0047
 21
1.81117
  0
LINE
  8
0
 10
39.0047
 20
1.81117
 11
38.8235
 21
1.88623
  0
LINE
  8
0
 10
38.8235
 20
1.88623
 11
38.6563
 21
1.98872
  0
LINE
  8
0
 10
38.6563
 20
1.98872
 11
38.5071
 21
2.1161
  0
LINE
  8
0
 10
38.5071
 20
2.1161
 11
38.3797
 21
2.26526
  0
LINE
  8
0
 10
38.3797
 20
2.26526
 11
38.2772
 21
2.43251
  0
LINE
  8
0
 10
38.2772
 20
2.43251
 11
38.2022
 21
2.61372
  0
LINE
  8
0
 10
38.2022
 20
2.61372
 11
38.1564
 21
2.80444
  0
LINE
  8
0
 10
38.1564
 20
2.80444
 11
38.141
 21
3
  0
LINE
  8
0
 10
38.141
 20
3
 11
38.1564
 21
3.19554
  0
LINE
  8
0
 10
38.1564
 20
3.19554
 11
38.2022
 21
3.38626
  0
LINE
  8
0
 10
38.2022
 20
3.38626
 11
38.2772
 21
3.56747
  0
LINE
  8
0
 10
38.2772
 20
3.56747
 11
38.3797
 21
3.73473
  0
LINE
  8
0
 10
38.3797
 20
3.73473
 11
38.5071
 21
3.88388
  0
LINE
  8
0
 10
38.5071
 20
3.88388
 11
38.6563
 21
4.01126
  0
LINE
  8
0
 10
38.6563
 20
4.01126
 11
38.8235
 21
4.11375
  0
LINE
  8
0
 10
38.8235
 20
4.11375
 11
39.0047
 21
4.18881
  0
LINE
  8
0
 10
39.0047
 20
4.18881
 11
39.1954
 21
4.2346
  0
LINE
  8
0
 10
39.1954
 20
4.2346
 11
39.391
 21
4.25
  0
LINE
  8
0
 10
39.391
 20
4.25
 11
39.5865
 21
4.2346
  0
LINE
  8
0
 10
39.5865
 20
4.2346
 11
39.7773
 21
4.18881
  0
LINE
  8
0
 10
39.7773
 20
4.18881
 11
39.9585
 21
4.11375
  0
LINE
  8
0
 10
39.9585
 20
4.11375
 11
40.1257
 21
4.01126
  0
LINE
  8
0
 10
40.1257
 20
4.01126
 11
40.2749
 21
3.88388
  0
LINE
  8
0
 10
40.2749
 20
3.88388
 11
40.4023
 21
3.73473
  0
LINE
  8
0
 10
40.4023
 20
3.73473
 11
40.5047
 21
3.56747
  0
LINE
  8
0
 10
40.5047
 20
3.56747
 11
40.5798
 21
3.38626
  0
LINE
  8
0
 10
40.5798
 20
3.38626
 11
40.6256
 21
3.19554
  0
LINE
  8
0
 10
40.6256
 20
3.19554
 11
40.641
 21
3
  0
LINE
  8
0
 10
40.641
 20
3
 11
40.6256
 21
2.80444
  0
LINE
  8
0
 10
40.6256
 20
2.80444
 11
40.5798
 21
2.61372
  0
LINE
  8
0
 10
40.5798
 20
2.61372
 11
40.5047
 21
2.43251
  0
LINE
  8
0
 10
40.5047
 20
2.43251
 11
40.4023
 21
2.26526
  0
LINE
  8
0
 10
40.4023
 20
2.26526
 11
40.2749
 21
2.1161
  0
LINE
  8
0
 10
40.2749
 20
2.1161
 11
40.1257
 21
1.98872
  0
LINE
  8
0
 10
40.1257
 20
1.98872
 11
39.9585
 21
1.88623
  0
LINE
  8
0
 10
39.9585
 20
1.88623
 11
39.7773
 21
1.81117
  0
LINE
  8
0
 10
39.7773
 20
1.81117
 11
39.5865
 21
1.76538
  0
LINE
  8
0
 10
39.5865
 20
1.76538
 11
39.391
 21
1.75
  0
LINE
  8
0
 10
39.391
 20
1.75
 11
39.1954
 21
1.76538
  0
LINE
  8
0
 10
157.486
 20
1.76538
 11
157.296
 21
1.81117
  0
LINE
  8
0
 10
157.296
 20
1.81117
 11
157.115
 21
1.88623
  0
LINE
  8
0
 10
157.115
 20
1.88623
 11
156.947
 21
1.98872
  0
LINE
  8
0
 10
156.947
 20
1.98872
 11
156.798
 21
2.1161
  0
LINE
  8
0
 10
156.798
 20
2.1161
 11
156.671
 21
2.26526
  0
LINE
  8
0
 10
156.671
 20
2.26526
 11
156.568
 21
2.43251
  0
LINE
  8
0
 10
156.568
 20
2.43251
 11
156.493
 21
2.61372
  0
LINE
  8
0
 10
156.493
 20
2.61372
 11
156.447
 21
2.80444
  0
LINE
  8
0
 10
156.447
 20
2.80444
 11
156.432
 21
3
  0
LINE
  8
0
 10
156.432
 20
3
 11
156.447
 21
3.19554
  0
LINE
  8
0
 10
156.447
 20
3.19554
 11
156.493
 21
3.38626
  0
LINE
  8
0
 10
156.493
 20
3.38626
 11
156.568
 21
3.56747
  0
LINE
  8
0
 10
156.568
 20
3.56747
 11
156.671
 21
3.73473
  0
LINE
  8
0
 10
156.671
 20
3.73473
 11
156.798
 21
3.88388
  0
LINE
  8
0
 10
156.798
 20
3.88388
 11
156.947
 21
4.01126
  0
LINE
  8
0
 10
156.947
 20
4.01126
 11
157.115
 21
4.11375
  0
LINE
  8
0
 10
157.115
 20
4.11375
 11
157.296
 21
4.18881
  0
LINE
  8
0
 10
157.296
 20
4.18881
 11
157.486
 21
4.2346
  0
LINE
  8
0
 10
157.486
 20
4.2346
 11
157.682
 21
4.25
  0
LINE
  8
0
 10
157.682
 20
4.25
 11
157.878
 21
4.2346
  0
LINE
  8
0
 10
157.878
 20
4.2346
 11
158.068
 21
4.18881
  0
LINE
  8
0
 10
158.068
 20
4.18881
 11
158.249
 21
4.11375
  0
LINE
  8
0
 10
158.249
 20
4.11375
 11
158.417
 21
4.01126
  0
LINE
  8
0
 10
158.417
 20
4.01126
 11
158.566
 21
3.88388
  0
LINE
  8
0
 10
158.566
 20
3.88388
 11
158.693
 21
3.73473
  0
LINE
  8
0
 10
158.693
 20
3.73473
 11
158.796
 21
3.56747
  0
LINE
  8
0
 10
158.796
 20
3.56747
 11
158.871
 21
3.38626
  0
LINE
  8
0
 10
158.871
 20
3.38626
 11
158.917
 21
3.19554
  0
LINE
  8
0
 10
158.917
 20
3.19554
 11
158.932
 21
3
  0
LINE
  8
0
 10
158.932
 20
3
 11
158.917
 21
2.80444
  0
LINE
  8
0
 10
158.917
 20
2.80444
 11
158.871
 21
2.61372
  0
LINE
  8
0
 10
158.871
 20
2.61372
 11
158.796
 21
2.43251
  0
LINE
  8
0
 10
158.796
 20
2.43251
 11
158.693
 21
2.26526
  0
LINE
  8
0
 10
158.693
 20
2.26526
 11
158.566
 21
2.1161
  0
LINE
  8
0
 10
158.566
 20
2.1161
 11
158.417
 21
1.98872
  0
LINE
  8
0
 10
158.417
 20
1.98872
 11
158.249
 21
1.88623
  0
LINE
  8
0
 10
158.249
 20
1.88623
 11
158.068
 21
1.81117
  0
LINE
  8
0
 10
158.068
 20
1.81117
 11
157.878
 21
1.76538
  0
LINE
  8
0
 10
157.878
 20
1.76538
 11
157.682
 21
1.75
  0
LINE
  8
0
 10
157.682
 20
1.75
 11
157.486
 21
1.76538
  0
LINE
  8
0
 10
320.686
 20
1.76538
 11
320.496
 21
1.81117
  0
LINE
  8
0
 10
320.496
 20
1.81117
 11
320.314
 21
1.88623
  0
LINE
  8
0
 10
320.314
 20
1.88623
 11
320.147
 21
1.98872
  0
LINE
  8
0
 10
320.147
 20
1.98872
 11
319.998
 21
2.1161
  0
LINE
  8
0
 10
319.998
 20
2.1161
 11
319.871
 21
2.26526
  0
LINE
  8
0
 10
319.871
 20
2.26526
 11
319.768
 21
2.43251
  0
LINE
  8
0
 10
319.768
 20
2.43251
 11
319.693
 21
2.61372
  0
LINE
  8
0
 10
319.693
 20
2.61372
 11
319.647
 21
2.80444
  0
LINE
  8
0
 10
319.647
 20
2.80444
 11
319.632
 21
3
  0
LINE
  8
0
 10
319.632
 20
3
 11
319.647
 21
3.19554
  0
LINE
  8
0
 10
319.647
 20
3.19554
 11
319.693
 21
3.38626
  0
LINE
  8
0
 10
319.693
 20
3.38626
 11
319.768
 21
3.56747
  0
LINE
  8
0
 10
319.768
 20
3.56747
 11
319.871
 21
3.73473
  0
LINE
  8
0
 10
319.871
 20
3.73473
 11
319.998
 21
3.88388
  0
LINE
  8
0
 10
319.998
 20
3.88388
 11
320.147
 21
4.01126
  0
LINE
  8
0
 10
320.147
 20
4.01126
 11
320.314
 21
4.11375
  0
LINE
  8
0
 10
320.314
 20
4.11375
 11
320.496
 21
4.18881
  0
LINE
  8
0
 10
320.496
 20
4.18881
 11
320.686
 21
4.2346
  0
LINE
  8
0
 10
320.686
 20
4.2346
 11
320.882
 21
4.25
  0
LINE
  8
0
 10
320.882
 20
4.25
 11
321.078
 21
4.2346
  0
LINE
  8
0
 10
321.078
 20
4.2346
 11
321.268
 21
4.18881
  0
LINE
  8
0
 10
321.268
 20
4.18881
 11
321.449
 21
4.11375
  0
LINE
  8
0
 10
321.449
 20
4.11375
 11
321.617
 21
4.01126
  0
LINE
  8
0
 10
321.617
 20
4.01126
 11
321.766
 21
3.88388
  0
LINE
  8
0
 10
321.766
 20
3.88388
 11
321.893
 21
3.73473
  0
LINE
  8
0
 10
321.893
 20
3.73473
 11
321.996
 21
3.56747
  0
LINE
  8
0
 10
321.996
 20
3.56747
 11
322.071
 21
3.38626
  0
LINE
  8
0
 10
322.071
 20
3.38626
 11
322.117
 21
3.19554
  0
LINE
  8
0
 10
322.117
 20
3.19554
 11
322.132
 21
3
  0
LINE
  8
0
 10
322.132
 20
3
 11
322.117
 21
2.80444
  0
LINE
  8
0
 10
322.117
 20
2.80444
 11
322.071
 21
2.61372
  0
LINE
  8
0
 10
322.071
 20
2.61372
 11
321.996
 21
2.43251
  0
LINE
  8
0
 10
321.996
 20
2.43251
 11
321.893
 21
2.26526
  0
LINE
  8
0
 10
321.893
 20
2.26526
 11
321.766
 21
2.1161
  0
LINE
  8
0
 10
321.766
 20
2.1161
 11
321.617
 21
1.98872
  0
LINE
  8
0
 10
321.617
 20
1.98872
 11
321.449
 21
1.88623
  0
LINE
  8
0
 10
321.449
 20
1.88623
 11
321.268
 21
1.81117
  0
LINE
  8
0
 10
321.268
 20
1.81117
 11
321.078
 21
1.76538
  0
LINE
  8
0
 10
321.078
 20
1.76538
 11
320.882
 21
1.75
  0
LINE
  8
0
 10
320.882
 20
1.75
 11
320.686
 21
1.76538
  0
ENDSEC
  0
SECTION
  2
OBJECTS
  0
DICTIONARY
  0
ENDSEC
  0
EOF
