  0
SECTION
  2
BLOCKS
  0
ENDSEC
  0
SECTION
  2
ENTITIES
  0
LINE
  8
0
 10
264.8
 20
44.8
 11
0
 21
44.8
  0
LINE
  8
0
 10
0
 20
44.8
 11
0
 21
0.199997
  0
LINE
  8
0
 10
0
 20
0.199997
 11
264.8
 21
0.199997
  0
LINE
  8
0
 10
264.8
 20
0.199997
 11
264.8
 21
44.8
  0
LINE
  8
0
 10
244.104
 20
39.4654
 11
243.914
 21
39.5112
  0
LINE
  8
0
 10
243.914
 20
39.5112
 11
243.732
 21
39.5862
  0
LINE
  8
0
 10
243.732
 20
39.5862
 11
243.565
 21
39.6887
  0
LINE
  8
0
 10
243.565
 20
39.6887
 11
243.416
 21
39.8161
  0
LINE
  8
0
 10
243.416
 20
39.8161
 11
243.289
 21
39.9653
  0
LINE
  8
0
 10
243.289
 20
39.9653
 11
243.186
 21
40.1325
  0
LINE
  8
0
 10
243.186
 20
40.1325
 11
243.111
 21
40.3137
  0
LINE
  8
0
 10
243.111
 20
40.3137
 11
243.065
 21
40.5045
  0
LINE
  8
0
 10
243.065
 20
40.5045
 11
243.05
 21
40.7
  0
LINE
  8
0
 10
243.05
 20
40.7
 11
243.065
 21
40.8955
  0
LINE
  8
0
 10
243.065
 20
40.8955
 11
243.111
 21
41.0863
  0
LINE
  8
0
 10
243.111
 20
41.0863
 11
243.186
 21
41.2675
  0
LINE
  8
0
 10
243.186
 20
41.2675
 11
243.289
 21
41.4347
  0
LINE
  8
0
 10
243.289
 20
41.4347
 11
243.416
 21
41.5839
  0
LINE
  8
0
 10
243.416
 20
41.5839
 11
243.565
 21
41.7113
  0
LINE
  8
0
 10
243.565
 20
41.7113
 11
243.732
 21
41.8138
  0
LINE
  8
0
 10
243.732
 20
41.8138
 11
243.914
 21
41.8888
  0
LINE
  8
0
 10
243.914
 20
41.8888
 11
244.104
 21
41.9346
  0
LINE
  8
0
 10
244.104
 20
41.9346
 11
244.3
 21
41.95
  0
LINE
  8
0
 10
244.3
 20
41.95
 11
244.496
 21
41.9346
  0
LINE
  8
0
 10
244.496
 20
41.9346
 11
244.686
 21
41.8888
  0
LINE
  8
0
 10
244.686
 20
41.8888
 11
244.867
 21
41.8138
  0
LINE
  8
0
 10
244.867
 20
41.8138
 11
245.035
 21
41.7113
  0
LINE
  8
0
 10
245.035
 20
41.7113
 11
245.184
 21
41.5839
  0
LINE
  8
0
 10
245.184
 20
41.5839
 11
245.311
 21
41.4347
  0
LINE
  8
0
 10
245.311
 20
41.4347
 11
245.414
 21
41.2675
  0
LINE
  8
0
 10
245.414
 20
41.2675
 11
245.489
 21
41.0863
  0
LINE
  8
0
 10
245.489
 20
41.0863
 11
245.535
 21
40.8955
  0
LINE
  8
0
 10
245.535
 20
40.8955
 11
245.55
 21
40.7
  0
LINE
  8
0
 10
245.55
 20
40.7
 11
245.535
 21
40.5045
  0
LINE
  8
0
 10
245.535
 20
40.5045
 11
245.489
 21
40.3137
  0
LINE
  8
0
 10
245.489
 20
40.3137
 11
245.414
 21
40.1325
  0
LINE
  8
0
 10
245.414
 20
40.1325
 11
245.311
 21
39.9653
  0
LINE
  8
0
 10
245.311
 20
39.9653
 11
245.184
 21
39.8161
  0
LINE
  8
0
 10
245.184
 20
39.8161
 11
245.035
 21
39.6887
  0
LINE
  8
0
 10
245.035
 20
39.6887
 11
244.867
 21
39.5862
  0
LINE
  8
0
 10
244.867
 20
39.5862
 11
244.686
 21
39.5112
  0
LINE
  8
0
 10
244.686
 20
39.5112
 11
244.496
 21
39.4654
  0
LINE
  8
0
 10
244.496
 20
39.4654
 11
244.3
 21
39.45
  0
LINE
  8
0
 10
244.3
 20
39.45
 11
244.104
 21
39.4654
  0
LINE
  8
0
 10
126.804
 20
39.4654
 11
126.614
 21
39.5112
  0
LINE
  8
0
 10
126.614
 20
39.5112
 11
126.433
 21
39.5862
  0
LINE
  8
0
 10
126.433
 20
39.5862
 11
126.265
 21
39.6887
  0
LINE
  8
0
 10
126.265
 20
39.6887
 11
126.116
 21
39.8161
  0
LINE
  8
0
 10
126.116
 20
39.8161
 11
125.989
 21
39.9653
  0
LINE
  8
0
 10
125.989
 20
39.9653
 11
125.886
 21
40.1325
  0
LINE
  8
0
 10
125.886
 20
40.1325
 11
125.811
 21
40.3137
  0
LINE
  8
0
 10
125.811
 20
40.3137
 11
125.765
 21
40.5045
  0
LINE
  8
0
 10
125.765
 20
40.5045
 11
125.75
 21
40.7
  0
LINE
  8
0
 10
125.75
 20
40.7
 11
125.765
 21
40.8955
  0
LINE
  8
0
 10
125.765
 20
40.8955
 11
125.811
 21
41.0863
  0
LINE
  8
0
 10
125.811
 20
41.0863
 11
125.886
 21
41.2675
  0
LINE
  8
0
 10
125.886
 20
41.2675
 11
125.989
 21
41.4347
  0
LINE
  8
0
 10
125.989
 20
41.4347
 11
126.116
 21
41.5839
  0
LINE
  8
0
 10
126.116
 20
41.5839
 11
126.265
 21
41.7113
  0
LINE
  8
0
 10
126.265
 20
41.7113
 11
126.433
 21
41.8138
  0
LINE
  8
0
 10
126.433
 20
41.8138
 11
126.614
 21
41.8888
  0
LINE
  8
0
 10
126.614
 20
41.8888
 11
126.804
 21
41.9346
  0
LINE
  8
0
 10
126.804
 20
41.9346
 11
127
 21
41.95
  0
LINE
  8
0
 10
127
 20
41.95
 11
127.196
 21
41.9346
  0
LINE
  8
0
 10
127.196
 20
41.9346
 11
127.386
 21
41.8888
  0
LINE
  8
0
 10
127.386
 20
41.8888
 11
127.567
 21
41.8138
  0
LINE
  8
0
 10
127.567
 20
41.8138
 11
127.735
 21
41.7113
  0
LINE
  8
0
 10
127.735
 20
41.7113
 11
127.884
 21
41.5839
  0
LINE
  8
0
 10
127.884
 20
41.5839
 11
128.011
 21
41.4347
  0
LINE
  8
0
 10
128.011
 20
41.4347
 11
128.114
 21
41.2675
  0
LINE
  8
0
 10
128.114
 20
41.2675
 11
128.189
 21
41.0863
  0
LINE
  8
0
 10
128.189
 20
41.0863
 11
128.235
 21
40.8955
  0
LINE
  8
0
 10
128.235
 20
40.8955
 11
128.25
 21
40.7
  0
LINE
  8
0
 10
128.25
 20
40.7
 11
128.235
 21
40.5045
  0
LINE
  8
0
 10
128.235
 20
40.5045
 11
128.189
 21
40.3137
  0
LINE
  8
0
 10
128.189
 20
40.3137
 11
128.114
 21
40.1325
  0
LINE
  8
0
 10
128.114
 20
40.1325
 11
128.011
 21
39.9653
  0
LINE
  8
0
 10
128.011
 20
39.9653
 11
127.884
 21
39.8161
  0
LINE
  8
0
 10
127.884
 20
39.8161
 11
127.735
 21
39.6887
  0
LINE
  8
0
 10
127.735
 20
39.6887
 11
127.567
 21
39.5862
  0
LINE
  8
0
 10
127.567
 20
39.5862
 11
127.386
 21
39.5112
  0
LINE
  8
0
 10
127.386
 20
39.5112
 11
127.196
 21
39.4654
  0
LINE
  8
0
 10
127.196
 20
39.4654
 11
127
 21
39.45
  0
LINE
  8
0
 10
127
 20
39.45
 11
126.804
 21
39.4654
  0
LINE
  8
0
 10
16.3044
 20
39.4654
 11
16.1137
 21
39.5112
  0
LINE
  8
0
 10
16.1137
 20
39.5112
 11
15.9325
 21
39.5862
  0
LINE
  8
0
 10
15.9325
 20
39.5862
 11
15.7653
 21
39.6887
  0
LINE
  8
0
 10
15.7653
 20
39.6887
 11
15.6161
 21
39.8161
  0
LINE
  8
0
 10
15.6161
 20
39.8161
 11
15.4887
 21
39.9653
  0
LINE
  8
0
 10
15.4887
 20
39.9653
 11
15.3862
 21
40.1325
  0
LINE
  8
0
 10
15.3862
 20
40.1325
 11
15.3112
 21
40.3137
  0
LINE
  8
0
 10
15.3112
 20
40.3137
 11
15.2654
 21
40.5045
  0
LINE
  8
0
 10
15.2654
 20
40.5045
 11
15.25
 21
40.7
  0
LINE
  8
0
 10
15.25
 20
40.7
 11
15.2654
 21
40.8955
  0
LINE
  8
0
 10
15.2654
 20
40.8955
 11
15.3112
 21
41.0863
  0
LINE
  8
0
 10
15.3112
 20
41.0863
 11
15.3862
 21
41.2675
  0
LINE
  8
0
 10
15.3862
 20
41.2675
 11
15.4887
 21
41.4347
  0
LINE
  8
0
 10
15.4887
 20
41.4347
 11
15.6161
 21
41.5839
  0
LINE
  8
0
 10
15.6161
 20
41.5839
 11
15.7653
 21
41.7113
  0
LINE
  8
0
 10
15.7653
 20
41.7113
 11
15.9325
 21
41.8138
  0
LINE
  8
0
 10
15.9325
 20
41.8138
 11
16.1137
 21
41.8888
  0
LINE
  8
0
 10
16.1137
 20
41.8888
 11
16.3044
 21
41.9346
  0
LINE
  8
0
 10
16.3044
 20
41.9346
 11
16.5
 21
41.95
  0
LINE
  8
0
 10
16.5
 20
41.95
 11
16.6955
 21
41.9346
  0
LINE
  8
0
 10
16.6955
 20
41.9346
 11
16.8863
 21
41.8888
  0
LINE
  8
0
 10
16.8863
 20
41.8888
 11
17.0675
 21
41.8138
  0
LINE
  8
0
 10
17.0675
 20
41.8138
 11
17.2347
 21
41.7113
  0
LINE
  8
0
 10
17.2347
 20
41.7113
 11
17.3839
 21
41.5839
  0
LINE
  8
0
 10
17.3839
 20
41.5839
 11
17.5113
 21
41.4347
  0
LINE
  8
0
 10
17.5113
 20
41.4347
 11
17.6138
 21
41.2675
  0
LINE
  8
0
 10
17.6138
 20
41.2675
 11
17.6888
 21
41.0863
  0
LINE
  8
0
 10
17.6888
 20
41.0863
 11
17.7346
 21
40.8955
  0
LINE
  8
0
 10
17.7346
 20
40.8955
 11
17.75
 21
40.7
  0
LINE
  8
0
 10
17.75
 20
40.7
 11
17.7346
 21
40.5045
  0
LINE
  8
0
 10
17.7346
 20
40.5045
 11
17.6888
 21
40.3137
  0
LINE
  8
0
 10
17.6888
 20
40.3137
 11
17.6138
 21
40.1325
  0
LINE
  8
0
 10
17.6138
 20
40.1325
 11
17.5113
 21
39.9653
  0
LINE
  8
0
 10
17.5113
 20
39.9653
 11
17.3839
 21
39.8161
  0
LINE
  8
0
 10
17.3839
 20
39.8161
 11
17.2347
 21
39.6887
  0
LINE
  8
0
 10
17.2347
 20
39.6887
 11
17.0675
 21
39.5862
  0
LINE
  8
0
 10
17.0675
 20
39.5862
 11
16.8863
 21
39.5112
  0
LINE
  8
0
 10
16.8863
 20
39.5112
 11
16.6955
 21
39.4654
  0
LINE
  8
0
 10
16.6955
 20
39.4654
 11
16.5
 21
39.45
  0
LINE
  8
0
 10
16.5
 20
39.45
 11
16.3044
 21
39.4654
  0
LINE
  8
0
 10
203
 20
24.5
 11
203
 21
38.5
  0
LINE
  8
0
 10
203
 20
38.5
 11
217
 21
38.5
  0
LINE
  8
0
 10
217
 20
38.5
 11
217
 21
24.5
  0
LINE
  8
0
 10
217
 20
24.5
 11
203
 21
24.5
  0
LINE
  8
0
 10
95
 20
24.5
 11
95
 21
38.5
  0
LINE
  8
0
 10
95
 20
38.5
 11
109
 21
38.5
  0
LINE
  8
0
 10
109
 20
38.5
 11
109
 21
24.5
  0
LINE
  8
0
 10
109
 20
24.5
 11
95
 21
24.5
  0
LINE
  8
0
 10
145
 20
15.5
 11
145
 21
29.5
  0
LINE
  8
0
 10
145
 20
29.5
 11
159
 21
29.5
  0
LINE
  8
0
 10
159
 20
29.5
 11
159
 21
15.5
  0
LINE
  8
0
 10
159
 20
15.5
 11
145
 21
15.5
  0
LINE
  8
0
 10
185
 20
15.5
 11
185
 21
29.5
  0
LINE
  8
0
 10
185
 20
29.5
 11
199
 21
29.5
  0
LINE
  8
0
 10
199
 20
29.5
 11
199
 21
15.5
  0
LINE
  8
0
 10
199
 20
15.5
 11
185
 21
15.5
  0
LINE
  8
0
 10
165
 20
15.5
 11
165
 21
29.5
  0
LINE
  8
0
 10
165
 20
29.5
 11
179
 21
29.5
  0
LINE
  8
0
 10
179
 20
29.5
 11
179
 21
15.5
  0
LINE
  8
0
 10
179
 20
15.5
 11
165
 21
15.5
  0
LINE
  8
0
 10
77
 20
15.5
 11
77
 21
29.5
  0
LINE
  8
0
 10
77
 20
29.5
 11
91
 21
29.5
  0
LINE
  8
0
 10
91
 20
29.5
 11
91
 21
15.5
  0
LINE
  8
0
 10
91
 20
15.5
 11
77
 21
15.5
  0
LINE
  8
0
 10
57
 20
15.5
 11
57
 21
29.5
  0
LINE
  8
0
 10
57
 20
29.5
 11
71
 21
29.5
  0
LINE
  8
0
 10
71
 20
29.5
 11
71
 21
15.5
  0
LINE
  8
0
 10
71
 20
15.5
 11
57
 21
15.5
  0
LINE
  8
0
 10
37
 20
15.5
 11
37
 21
29.5
  0
LINE
  8
0
 10
37
 20
29.5
 11
51
 21
29.5
  0
LINE
  8
0
 10
51
 20
29.5
 11
51
 21
15.5
  0
LINE
  8
0
 10
51
 20
15.5
 11
37
 21
15.5
  0
LINE
  8
0
 10
95
 20
6.5
 11
95
 21
20.5
  0
LINE
  8
0
 10
95
 20
20.5
 11
109
 21
20.5
  0
LINE
  8
0
 10
109
 20
20.5
 11
109
 21
6.5
  0
LINE
  8
0
 10
109
 20
6.5
 11
95
 21
6.5
  0
LINE
  8
0
 10
221
 20
6.5
 11
221
 21
20.5
  0
LINE
  8
0
 10
221
 20
20.5
 11
235
 21
20.5
  0
LINE
  8
0
 10
235
 20
20.5
 11
235
 21
6.5
  0
LINE
  8
0
 10
235
 20
6.5
 11
221
 21
6.5
  0
LINE
  8
0
 10
203
 20
6.5
 11
203
 21
20.5
  0
LINE
  8
0
 10
203
 20
20.5
 11
217
 21
20.5
  0
LINE
  8
0
 10
217
 20
20.5
 11
217
 21
6.5
  0
LINE
  8
0
 10
217
 20
6.5
 11
203
 21
6.5
  0
LINE
  8
0
 10
16.3044
 20
3.06538
 11
16.1137
 21
3.11118
  0
LINE
  8
0
 10
16.1137
 20
3.11118
 11
15.9325
 21
3.18623
  0
LINE
  8
0
 10
15.9325
 20
3.18623
 11
15.7653
 21
3.28873
  0
LINE
  8
0
 10
15.7653
 20
3.28873
 11
15.6161
 21
3.41611
  0
LINE
  8
0
 10
15.6161
 20
3.41611
 11
15.4887
 21
3.56526
  0
LINE
  8
0
 10
15.4887
 20
3.56526
 11
15.3862
 21
3.7325
  0
LINE
  8
0
 10
15.3862
 20
3.7325
 11
15.3112
 21
3.91373
  0
LINE
  8
0
 10
15.3112
 20
3.91373
 11
15.2654
 21
4.10445
  0
LINE
  8
0
 10
15.2654
 20
4.10445
 11
15.25
 21
4.29999
  0
LINE
  8
0
 10
15.25
 20
4.29999
 11
15.2654
 21
4.49553
  0
LINE
  8
0
 10
15.2654
 20
4.49553
 11
15.3112
 21
4.68626
  0
LINE
  8
0
 10
15.3112
 20
4.68626
 11
15.3862
 21
4.86748
  0
LINE
  8
0
 10
15.3862
 20
4.86748
 11
15.4887
 21
5.03473
  0
LINE
  8
0
 10
15.4887
 20
5.03473
 11
15.6161
 21
5.18387
  0
LINE
  8
0
 10
15.6161
 20
5.18387
 11
15.7653
 21
5.31126
  0
LINE
  8
0
 10
15.7653
 20
5.31126
 11
15.9325
 21
5.41376
  0
LINE
  8
0
 10
15.9325
 20
5.41376
 11
16.1137
 21
5.48882
  0
LINE
  8
0
 10
16.1137
 20
5.48882
 11
16.3044
 21
5.53461
  0
LINE
  8
0
 10
16.3044
 20
5.53461
 11
16.5
 21
5.54999
  0
LINE
  8
0
 10
16.5
 20
5.54999
 11
16.6955
 21
5.53461
  0
LINE
  8
0
 10
16.6955
 20
5.53461
 11
16.8863
 21
5.48882
  0
LINE
  8
0
 10
16.8863
 20
5.48882
 11
17.0675
 21
5.41376
  0
LINE
  8
0
 10
17.0675
 20
5.41376
 11
17.2347
 21
5.31126
  0
LINE
  8
0
 10
17.2347
 20
5.31126
 11
17.3839
 21
5.18387
  0
LINE
  8
0
 10
17.3839
 20
5.18387
 11
17.5113
 21
5.03473
  0
LINE
  8
0
 10
17.5113
 20
5.03473
 11
17.6138
 21
4.86748
  0
LINE
  8
0
 10
17.6138
 20
4.86748
 11
17.6888
 21
4.68626
  0
LINE
  8
0
 10
17.6888
 20
4.68626
 11
17.7346
 21
4.49553
  0
LINE
  8
0
 10
17.7346
 20
4.49553
 11
17.75
 21
4.29999
  0
LINE
  8
0
 10
17.75
 20
4.29999
 11
17.7346
 21
4.10445
  0
LINE
  8
0
 10
17.7346
 20
4.10445
 11
17.6888
 21
3.91373
  0
LINE
  8
0
 10
17.6888
 20
3.91373
 11
17.6138
 21
3.7325
  0
LINE
  8
0
 10
17.6138
 20
3.7325
 11
17.5113
 21
3.56526
  0
LINE
  8
0
 10
17.5113
 20
3.56526
 11
17.3839
 21
3.41611
  0
LINE
  8
0
 10
17.3839
 20
3.41611
 11
17.2347
 21
3.28873
  0
LINE
  8
0
 10
17.2347
 20
3.28873
 11
17.0675
 21
3.18623
  0
LINE
  8
0
 10
17.0675
 20
3.18623
 11
16.8863
 21
3.11118
  0
LINE
  8
0
 10
16.8863
 20
3.11118
 11
16.6955
 21
3.06538
  0
LINE
  8
0
 10
16.6955
 20
3.06538
 11
16.5
 21
3.04999
  0
LINE
  8
0
 10
16.5
 20
3.04999
 11
16.3044
 21
3.06538
  0
LINE
  8
0
 10
126.804
 20
3.06538
 11
126.614
 21
3.11118
  0
LINE
  8
0
 10
126.614
 20
3.11118
 11
126.433
 21
3.18623
  0
LINE
  8
0
 10
126.433
 20
3.18623
 11
126.265
 21
3.28873
  0
LINE
  8
0
 10
126.265
 20
3.28873
 11
126.116
 21
3.41611
  0
LINE
  8
0
 10
126.116
 20
3.41611
 11
125.989
 21
3.56526
  0
LINE
  8
0
 10
125.989
 20
3.56526
 11
125.886
 21
3.7325
  0
LINE
  8
0
 10
125.886
 20
3.7325
 11
125.811
 21
3.91373
  0
LINE
  8
0
 10
125.811
 20
3.91373
 11
125.765
 21
4.10445
  0
LINE
  8
0
 10
125.765
 20
4.10445
 11
125.75
 21
4.29999
  0
LINE
  8
0
 10
125.75
 20
4.29999
 11
125.765
 21
4.49553
  0
LINE
  8
0
 10
125.765
 20
4.49553
 11
125.811
 21
4.68626
  0
LINE
  8
0
 10
125.811
 20
4.68626
 11
125.886
 21
4.86748
  0
LINE
  8
0
 10
125.886
 20
4.86748
 11
125.989
 21
5.03473
  0
LINE
  8
0
 10
125.989
 20
5.03473
 11
126.116
 21
5.18387
  0
LINE
  8
0
 10
126.116
 20
5.18387
 11
126.265
 21
5.31126
  0
LINE
  8
0
 10
126.265
 20
5.31126
 11
126.433
 21
5.41376
  0
LINE
  8
0
 10
126.433
 20
5.41376
 11
126.614
 21
5.48882
  0
LINE
  8
0
 10
126.614
 20
5.48882
 11
126.804
 21
5.53461
  0
LINE
  8
0
 10
126.804
 20
5.53461
 11
127
 21
5.54999
  0
LINE
  8
0
 10
127
 20
5.54999
 11
127.196
 21
5.53461
  0
LINE
  8
0
 10
127.196
 20
5.53461
 11
127.386
 21
5.48882
  0
LINE
  8
0
 10
127.386
 20
5.48882
 11
127.567
 21
5.41376
  0
LINE
  8
0
 10
127.567
 20
5.41376
 11
127.735
 21
5.31126
  0
LINE
  8
0
 10
127.735
 20
5.31126
 11
127.884
 21
5.18387
  0
LINE
  8
0
 10
127.884
 20
5.18387
 11
128.011
 21
5.03473
  0
LINE
  8
0
 10
128.011
 20
5.03473
 11
128.114
 21
4.86748
  0
LINE
  8
0
 10
128.114
 20
4.86748
 11
128.189
 21
4.68626
  0
LINE
  8
0
 10
128.189
 20
4.68626
 11
128.235
 21
4.49553
  0
LINE
  8
0
 10
128.235
 20
4.49553
 11
128.25
 21
4.29999
  0
LINE
  8
0
 10
128.25
 20
4.29999
 11
128.235
 21
4.10445
  0
LINE
  8
0
 10
128.235
 20
4.10445
 11
128.189
 21
3.91373
  0
LINE
  8
0
 10
128.189
 20
3.91373
 11
128.114
 21
3.7325
  0
LINE
  8
0
 10
128.114
 20
3.7325
 11
128.011
 21
3.56526
  0
LINE
  8
0
 10
128.011
 20
3.56526
 11
127.884
 21
3.41611
  0
LINE
  8
0
 10
127.884
 20
3.41611
 11
127.735
 21
3.28873
  0
LINE
  8
0
 10
127.735
 20
3.28873
 11
127.567
 21
3.18623
  0
LINE
  8
0
 10
127.567
 20
3.18623
 11
127.386
 21
3.11118
  0
LINE
  8
0
 10
127.386
 20
3.11118
 11
127.196
 21
3.06538
  0
LINE
  8
0
 10
127.196
 20
3.06538
 11
127
 21
3.04999
  0
LINE
  8
0
 10
127
 20
3.04999
 11
126.804
 21
3.06538
  0
LINE
  8
0
 10
244.104
 20
3.06538
 11
243.914
 21
3.11118
  0
LINE
  8
0
 10
243.914
 20
3.11118
 11
243.732
 21
3.18623
  0
LINE
  8
0
 10
243.732
 20
3.18623
 11
243.565
 21
3.28873
  0
LINE
  8
0
 10
243.565
 20
3.28873
 11
243.416
 21
3.41611
  0
LINE
  8
0
 10
243.416
 20
3.41611
 11
243.289
 21
3.56526
  0
LINE
  8
0
 10
243.289
 20
3.56526
 11
243.186
 21
3.7325
  0
LINE
  8
0
 10
243.186
 20
3.7325
 11
243.111
 21
3.91373
  0
LINE
  8
0
 10
243.111
 20
3.91373
 11
243.065
 21
4.10445
  0
LINE
  8
0
 10
243.065
 20
4.10445
 11
243.05
 21
4.29999
  0
LINE
  8
0
 10
243.05
 20
4.29999
 11
243.065
 21
4.49553
  0
LINE
  8
0
 10
243.065
 20
4.49553
 11
243.111
 21
4.68626
  0
LINE
  8
0
 10
243.111
 20
4.68626
 11
243.186
 21
4.86748
  0
LINE
  8
0
 10
243.186
 20
4.86748
 11
243.289
 21
5.03473
  0
LINE
  8
0
 10
243.289
 20
5.03473
 11
243.416
 21
5.18387
  0
LINE
  8
0
 10
243.416
 20
5.18387
 11
243.565
 21
5.31126
  0
LINE
  8
0
 10
243.565
 20
5.31126
 11
243.732
 21
5.41376
  0
LINE
  8
0
 10
243.732
 20
5.41376
 11
243.914
 21
5.48882
  0
LINE
  8
0
 10
243.914
 20
5.48882
 11
244.104
 21
5.53461
  0
LINE
  8
0
 10
244.104
 20
5.53461
 11
244.3
 21
5.54999
  0
LINE
  8
0
 10
244.3
 20
5.54999
 11
244.496
 21
5.53461
  0
LINE
  8
0
 10
244.496
 20
5.53461
 11
244.686
 21
5.48882
  0
LINE
  8
0
 10
244.686
 20
5.48882
 11
244.867
 21
5.41376
  0
LINE
  8
0
 10
244.867
 20
5.41376
 11
245.035
 21
5.31126
  0
LINE
  8
0
 10
245.035
 20
5.31126
 11
245.184
 21
5.18387
  0
LINE
  8
0
 10
245.184
 20
5.18387
 11
245.311
 21
5.03473
  0
LINE
  8
0
 10
245.311
 20
5.03473
 11
245.414
 21
4.86748
  0
LINE
  8
0
 10
245.414
 20
4.86748
 11
245.489
 21
4.68626
  0
LINE
  8
0
 10
245.489
 20
4.68626
 11
245.535
 21
4.49553
  0
LINE
  8
0
 10
245.535
 20
4.49553
 11
245.55
 21
4.29999
  0
LINE
  8
0
 10
245.55
 20
4.29999
 11
245.535
 21
4.10445
  0
LINE
  8
0
 10
245.535
 20
4.10445
 11
245.489
 21
3.91373
  0
LINE
  8
0
 10
245.489
 20
3.91373
 11
245.414
 21
3.7325
  0
LINE
  8
0
 10
245.414
 20
3.7325
 11
245.311
 21
3.56526
  0
LINE
  8
0
 10
245.311
 20
3.56526
 11
245.184
 21
3.41611
  0
LINE
  8
0
 10
245.184
 20
3.41611
 11
245.035
 21
3.28873
  0
LINE
  8
0
 10
245.035
 20
3.28873
 11
244.867
 21
3.18623
  0
LINE
  8
0
 10
244.867
 20
3.18623
 11
244.686
 21
3.11118
  0
LINE
  8
0
 10
244.686
 20
3.11118
 11
244.496
 21
3.06538
  0
LINE
  8
0
 10
244.496
 20
3.06538
 11
244.3
 21
3.04999
  0
LINE
  8
0
 10
244.3
 20
3.04999
 11
244.104
 21
3.06538
  0
ENDSEC
  0
SECTION
  2
OBJECTS
  0
DICTIONARY
  0
ENDSEC
  0
EOF
