  0
SECTION
  2
BLOCKS
  0
ENDSEC
  0
SECTION
  2
ENTITIES
  0
LINE
  8
0
 10
292.332
 20
49.8
 11
0
 21
49.8
  0
LINE
  8
0
 10
0
 20
49.8
 11
0
 21
0.199997
  0
LINE
  8
0
 10
0
 20
0.199997
 11
292.332
 21
0.199997
  0
LINE
  8
0
 10
292.332
 20
0.199997
 11
292.332
 21
49.8
  0
LINE
  8
0
 10
271.636
 20
45.7654
 11
271.446
 21
45.8112
  0
LINE
  8
0
 10
271.446
 20
45.8112
 11
271.265
 21
45.8862
  0
LINE
  8
0
 10
271.265
 20
45.8862
 11
271.097
 21
45.9887
  0
LINE
  8
0
 10
271.097
 20
45.9887
 11
270.948
 21
46.1161
  0
LINE
  8
0
 10
270.948
 20
46.1161
 11
270.821
 21
46.2653
  0
LINE
  8
0
 10
270.821
 20
46.2653
 11
270.718
 21
46.4325
  0
LINE
  8
0
 10
270.718
 20
46.4325
 11
270.643
 21
46.6137
  0
LINE
  8
0
 10
270.643
 20
46.6137
 11
270.597
 21
46.8044
  0
LINE
  8
0
 10
270.597
 20
46.8044
 11
270.582
 21
47
  0
LINE
  8
0
 10
270.582
 20
47
 11
270.597
 21
47.1955
  0
LINE
  8
0
 10
270.597
 20
47.1955
 11
270.643
 21
47.3863
  0
LINE
  8
0
 10
270.643
 20
47.3863
 11
270.718
 21
47.5675
  0
LINE
  8
0
 10
270.718
 20
47.5675
 11
270.821
 21
47.7347
  0
LINE
  8
0
 10
270.821
 20
47.7347
 11
270.948
 21
47.8839
  0
LINE
  8
0
 10
270.948
 20
47.8839
 11
271.097
 21
48.0113
  0
LINE
  8
0
 10
271.097
 20
48.0113
 11
271.265
 21
48.1138
  0
LINE
  8
0
 10
271.265
 20
48.1138
 11
271.446
 21
48.1888
  0
LINE
  8
0
 10
271.446
 20
48.1888
 11
271.636
 21
48.2346
  0
LINE
  8
0
 10
271.636
 20
48.2346
 11
271.832
 21
48.25
  0
LINE
  8
0
 10
271.832
 20
48.25
 11
272.028
 21
48.2346
  0
LINE
  8
0
 10
272.028
 20
48.2346
 11
272.218
 21
48.1888
  0
LINE
  8
0
 10
272.218
 20
48.1888
 11
272.399
 21
48.1138
  0
LINE
  8
0
 10
272.399
 20
48.1138
 11
272.567
 21
48.0113
  0
LINE
  8
0
 10
272.567
 20
48.0113
 11
272.716
 21
47.8839
  0
LINE
  8
0
 10
272.716
 20
47.8839
 11
272.843
 21
47.7347
  0
LINE
  8
0
 10
272.843
 20
47.7347
 11
272.946
 21
47.5675
  0
LINE
  8
0
 10
272.946
 20
47.5675
 11
273.021
 21
47.3863
  0
LINE
  8
0
 10
273.021
 20
47.3863
 11
273.067
 21
47.1955
  0
LINE
  8
0
 10
273.067
 20
47.1955
 11
273.082
 21
47
  0
LINE
  8
0
 10
273.082
 20
47
 11
273.067
 21
46.8044
  0
LINE
  8
0
 10
273.067
 20
46.8044
 11
273.021
 21
46.6137
  0
LINE
  8
0
 10
273.021
 20
46.6137
 11
272.946
 21
46.4325
  0
LINE
  8
0
 10
272.946
 20
46.4325
 11
272.843
 21
46.2653
  0
LINE
  8
0
 10
272.843
 20
46.2653
 11
272.716
 21
46.1161
  0
LINE
  8
0
 10
272.716
 20
46.1161
 11
272.567
 21
45.9887
  0
LINE
  8
0
 10
272.567
 20
45.9887
 11
272.399
 21
45.8862
  0
LINE
  8
0
 10
272.399
 20
45.8862
 11
272.218
 21
45.8112
  0
LINE
  8
0
 10
272.218
 20
45.8112
 11
272.028
 21
45.7654
  0
LINE
  8
0
 10
272.028
 20
45.7654
 11
271.832
 21
45.75
  0
LINE
  8
0
 10
271.832
 20
45.75
 11
271.636
 21
45.7654
  0
LINE
  8
0
 10
154.336
 20
45.7654
 11
154.146
 21
45.8112
  0
LINE
  8
0
 10
154.146
 20
45.8112
 11
153.965
 21
45.8862
  0
LINE
  8
0
 10
153.965
 20
45.8862
 11
153.797
 21
45.9887
  0
LINE
  8
0
 10
153.797
 20
45.9887
 11
153.648
 21
46.1161
  0
LINE
  8
0
 10
153.648
 20
46.1161
 11
153.521
 21
46.2653
  0
LINE
  8
0
 10
153.521
 20
46.2653
 11
153.418
 21
46.4325
  0
LINE
  8
0
 10
153.418
 20
46.4325
 11
153.343
 21
46.6137
  0
LINE
  8
0
 10
153.343
 20
46.6137
 11
153.297
 21
46.8044
  0
LINE
  8
0
 10
153.297
 20
46.8044
 11
153.282
 21
47
  0
LINE
  8
0
 10
153.282
 20
47
 11
153.297
 21
47.1955
  0
LINE
  8
0
 10
153.297
 20
47.1955
 11
153.343
 21
47.3863
  0
LINE
  8
0
 10
153.343
 20
47.3863
 11
153.418
 21
47.5675
  0
LINE
  8
0
 10
153.418
 20
47.5675
 11
153.521
 21
47.7347
  0
LINE
  8
0
 10
153.521
 20
47.7347
 11
153.648
 21
47.8839
  0
LINE
  8
0
 10
153.648
 20
47.8839
 11
153.797
 21
48.0113
  0
LINE
  8
0
 10
153.797
 20
48.0113
 11
153.965
 21
48.1138
  0
LINE
  8
0
 10
153.965
 20
48.1138
 11
154.146
 21
48.1888
  0
LINE
  8
0
 10
154.146
 20
48.1888
 11
154.336
 21
48.2346
  0
LINE
  8
0
 10
154.336
 20
48.2346
 11
154.532
 21
48.25
  0
LINE
  8
0
 10
154.532
 20
48.25
 11
154.728
 21
48.2346
  0
LINE
  8
0
 10
154.728
 20
48.2346
 11
154.918
 21
48.1888
  0
LINE
  8
0
 10
154.918
 20
48.1888
 11
155.099
 21
48.1138
  0
LINE
  8
0
 10
155.099
 20
48.1138
 11
155.267
 21
48.0113
  0
LINE
  8
0
 10
155.267
 20
48.0113
 11
155.416
 21
47.8839
  0
LINE
  8
0
 10
155.416
 20
47.8839
 11
155.543
 21
47.7347
  0
LINE
  8
0
 10
155.543
 20
47.7347
 11
155.646
 21
47.5675
  0
LINE
  8
0
 10
155.646
 20
47.5675
 11
155.721
 21
47.3863
  0
LINE
  8
0
 10
155.721
 20
47.3863
 11
155.767
 21
47.1955
  0
LINE
  8
0
 10
155.767
 20
47.1955
 11
155.782
 21
47
  0
LINE
  8
0
 10
155.782
 20
47
 11
155.767
 21
46.8044
  0
LINE
  8
0
 10
155.767
 20
46.8044
 11
155.721
 21
46.6137
  0
LINE
  8
0
 10
155.721
 20
46.6137
 11
155.646
 21
46.4325
  0
LINE
  8
0
 10
155.646
 20
46.4325
 11
155.543
 21
46.2653
  0
LINE
  8
0
 10
155.543
 20
46.2653
 11
155.416
 21
46.1161
  0
LINE
  8
0
 10
155.416
 20
46.1161
 11
155.267
 21
45.9887
  0
LINE
  8
0
 10
155.267
 20
45.9887
 11
155.099
 21
45.8862
  0
LINE
  8
0
 10
155.099
 20
45.8862
 11
154.918
 21
45.8112
  0
LINE
  8
0
 10
154.918
 20
45.8112
 11
154.728
 21
45.7654
  0
LINE
  8
0
 10
154.728
 20
45.7654
 11
154.532
 21
45.75
  0
LINE
  8
0
 10
154.532
 20
45.75
 11
154.336
 21
45.7654
  0
LINE
  8
0
 10
39.1954
 20
45.7654
 11
39.0047
 21
45.8112
  0
LINE
  8
0
 10
39.0047
 20
45.8112
 11
38.8235
 21
45.8862
  0
LINE
  8
0
 10
38.8235
 20
45.8862
 11
38.6563
 21
45.9887
  0
LINE
  8
0
 10
38.6563
 20
45.9887
 11
38.5071
 21
46.1161
  0
LINE
  8
0
 10
38.5071
 20
46.1161
 11
38.3797
 21
46.2653
  0
LINE
  8
0
 10
38.3797
 20
46.2653
 11
38.2772
 21
46.4325
  0
LINE
  8
0
 10
38.2772
 20
46.4325
 11
38.2022
 21
46.6137
  0
LINE
  8
0
 10
38.2022
 20
46.6137
 11
38.1564
 21
46.8044
  0
LINE
  8
0
 10
38.1564
 20
46.8044
 11
38.141
 21
47
  0
LINE
  8
0
 10
38.141
 20
47
 11
38.1564
 21
47.1955
  0
LINE
  8
0
 10
38.1564
 20
47.1955
 11
38.2022
 21
47.3863
  0
LINE
  8
0
 10
38.2022
 20
47.3863
 11
38.2772
 21
47.5675
  0
LINE
  8
0
 10
38.2772
 20
47.5675
 11
38.3797
 21
47.7347
  0
LINE
  8
0
 10
38.3797
 20
47.7347
 11
38.5071
 21
47.8839
  0
LINE
  8
0
 10
38.5071
 20
47.8839
 11
38.6563
 21
48.0113
  0
LINE
  8
0
 10
38.6563
 20
48.0113
 11
38.8235
 21
48.1138
  0
LINE
  8
0
 10
38.8235
 20
48.1138
 11
39.0047
 21
48.1888
  0
LINE
  8
0
 10
39.0047
 20
48.1888
 11
39.1954
 21
48.2346
  0
LINE
  8
0
 10
39.1954
 20
48.2346
 11
39.391
 21
48.25
  0
LINE
  8
0
 10
39.391
 20
48.25
 11
39.5865
 21
48.2346
  0
LINE
  8
0
 10
39.5865
 20
48.2346
 11
39.7773
 21
48.1888
  0
LINE
  8
0
 10
39.7773
 20
48.1888
 11
39.9585
 21
48.1138
  0
LINE
  8
0
 10
39.9585
 20
48.1138
 11
40.1257
 21
48.0113
  0
LINE
  8
0
 10
40.1257
 20
48.0113
 11
40.2749
 21
47.8839
  0
LINE
  8
0
 10
40.2749
 20
47.8839
 11
40.4023
 21
47.7347
  0
LINE
  8
0
 10
40.4023
 20
47.7347
 11
40.5047
 21
47.5675
  0
LINE
  8
0
 10
40.5047
 20
47.5675
 11
40.5798
 21
47.3863
  0
LINE
  8
0
 10
40.5798
 20
47.3863
 11
40.6256
 21
47.1955
  0
LINE
  8
0
 10
40.6256
 20
47.1955
 11
40.641
 21
47
  0
LINE
  8
0
 10
40.641
 20
47
 11
40.6256
 21
46.8044
  0
LINE
  8
0
 10
40.6256
 20
46.8044
 11
40.5798
 21
46.6137
  0
LINE
  8
0
 10
40.5798
 20
46.6137
 11
40.5047
 21
46.4325
  0
LINE
  8
0
 10
40.5047
 20
46.4325
 11
40.4023
 21
46.2653
  0
LINE
  8
0
 10
40.4023
 20
46.2653
 11
40.2749
 21
46.1161
  0
LINE
  8
0
 10
40.2749
 20
46.1161
 11
40.1257
 21
45.9887
  0
LINE
  8
0
 10
40.1257
 20
45.9887
 11
39.9585
 21
45.8862
  0
LINE
  8
0
 10
39.9585
 20
45.8862
 11
39.7773
 21
45.8112
  0
LINE
  8
0
 10
39.7773
 20
45.8112
 11
39.5865
 21
45.7654
  0
LINE
  8
0
 10
39.5865
 20
45.7654
 11
39.391
 21
45.75
  0
LINE
  8
0
 10
39.391
 20
45.75
 11
39.1954
 21
45.7654
  0
LINE
  8
0
 10
230.532
 20
24.5
 11
230.532
 21
38.5
  0
LINE
  8
0
 10
230.532
 20
38.5
 11
244.532
 21
38.5
  0
LINE
  8
0
 10
244.532
 20
38.5
 11
244.532
 21
24.5
  0
LINE
  8
0
 10
244.532
 20
24.5
 11
230.532
 21
24.5
  0
LINE
  8
0
 10
122.532
 20
24.5
 11
122.532
 21
38.5
  0
LINE
  8
0
 10
122.532
 20
38.5
 11
136.532
 21
38.5
  0
LINE
  8
0
 10
136.532
 20
38.5
 11
136.532
 21
24.5
  0
LINE
  8
0
 10
136.532
 20
24.5
 11
122.532
 21
24.5
  0
LINE
  8
0
 10
172.532
 20
15.5
 11
172.532
 21
29.5
  0
LINE
  8
0
 10
172.532
 20
29.5
 11
186.532
 21
29.5
  0
LINE
  8
0
 10
186.532
 20
29.5
 11
186.532
 21
15.5
  0
LINE
  8
0
 10
186.532
 20
15.5
 11
172.532
 21
15.5
  0
LINE
  8
0
 10
212.532
 20
15.5
 11
212.532
 21
29.5
  0
LINE
  8
0
 10
212.532
 20
29.5
 11
226.532
 21
29.5
  0
LINE
  8
0
 10
226.532
 20
29.5
 11
226.532
 21
15.5
  0
LINE
  8
0
 10
226.532
 20
15.5
 11
212.532
 21
15.5
  0
LINE
  8
0
 10
192.532
 20
15.5
 11
192.532
 21
29.5
  0
LINE
  8
0
 10
192.532
 20
29.5
 11
206.532
 21
29.5
  0
LINE
  8
0
 10
206.532
 20
29.5
 11
206.532
 21
15.5
  0
LINE
  8
0
 10
206.532
 20
15.5
 11
192.532
 21
15.5
  0
LINE
  8
0
 10
104.532
 20
15.5
 11
104.532
 21
29.5
  0
LINE
  8
0
 10
104.532
 20
29.5
 11
118.532
 21
29.5
  0
LINE
  8
0
 10
118.532
 20
29.5
 11
118.532
 21
15.5
  0
LINE
  8
0
 10
118.532
 20
15.5
 11
104.532
 21
15.5
  0
LINE
  8
0
 10
84.532
 20
15.5
 11
84.532
 21
29.5
  0
LINE
  8
0
 10
84.532
 20
29.5
 11
98.532
 21
29.5
  0
LINE
  8
0
 10
98.532
 20
29.5
 11
98.532
 21
15.5
  0
LINE
  8
0
 10
98.532
 20
15.5
 11
84.532
 21
15.5
  0
LINE
  8
0
 10
64.532
 20
15.5
 11
64.532
 21
29.5
  0
LINE
  8
0
 10
64.532
 20
29.5
 11
78.532
 21
29.5
  0
LINE
  8
0
 10
78.532
 20
29.5
 11
78.532
 21
15.5
  0
LINE
  8
0
 10
78.532
 20
15.5
 11
64.532
 21
15.5
  0
LINE
  8
0
 10
122.532
 20
6.5
 11
122.532
 21
20.5
  0
LINE
  8
0
 10
122.532
 20
20.5
 11
136.532
 21
20.5
  0
LINE
  8
0
 10
136.532
 20
20.5
 11
136.532
 21
6.5
  0
LINE
  8
0
 10
136.532
 20
6.5
 11
122.532
 21
6.5
  0
LINE
  8
0
 10
248.532
 20
6.5
 11
248.532
 21
20.5
  0
LINE
  8
0
 10
248.532
 20
20.5
 11
262.532
 21
20.5
  0
LINE
  8
0
 10
262.532
 20
20.5
 11
262.532
 21
6.5
  0
LINE
  8
0
 10
262.532
 20
6.5
 11
248.532
 21
6.5
  0
LINE
  8
0
 10
230.532
 20
6.5
 11
230.532
 21
20.5
  0
LINE
  8
0
 10
230.532
 20
20.5
 11
244.532
 21
20.5
  0
LINE
  8
0
 10
244.532
 20
20.5
 11
244.532
 21
6.5
  0
LINE
  8
0
 10
244.532
 20
6.5
 11
230.532
 21
6.5
  0
LINE
  8
0
 10
39.1954
 20
1.76538
 11
39.0047
 21
1.81117
  0
LINE
  8
0
 10
39.0047
 20
1.81117
 11
38.8235
 21
1.88623
  0
LINE
  8
0
 10
38.8235
 20
1.88623
 11
38.6563
 21
1.98872
  0
LINE
  8
0
 10
38.6563
 20
1.98872
 11
38.5071
 21
2.1161
  0
LINE
  8
0
 10
38.5071
 20
2.1161
 11
38.3797
 21
2.26526
  0
LINE
  8
0
 10
38.3797
 20
2.26526
 11
38.2772
 21
2.43251
  0
LINE
  8
0
 10
38.2772
 20
2.43251
 11
38.2022
 21
2.61372
  0
LINE
  8
0
 10
38.2022
 20
2.61372
 11
38.1564
 21
2.80444
  0
LINE
  8
0
 10
38.1564
 20
2.80444
 11
38.141
 21
3
  0
LINE
  8
0
 10
38.141
 20
3
 11
38.1564
 21
3.19554
  0
LINE
  8
0
 10
38.1564
 20
3.19554
 11
38.2022
 21
3.38626
  0
LINE
  8
0
 10
38.2022
 20
3.38626
 11
38.2772
 21
3.56747
  0
LINE
  8
0
 10
38.2772
 20
3.56747
 11
38.3797
 21
3.73473
  0
LINE
  8
0
 10
38.3797
 20
3.73473
 11
38.5071
 21
3.88388
  0
LINE
  8
0
 10
38.5071
 20
3.88388
 11
38.6563
 21
4.01126
  0
LINE
  8
0
 10
38.6563
 20
4.01126
 11
38.8235
 21
4.11375
  0
LINE
  8
0
 10
38.8235
 20
4.11375
 11
39.0047
 21
4.18881
  0
LINE
  8
0
 10
39.0047
 20
4.18881
 11
39.1954
 21
4.2346
  0
LINE
  8
0
 10
39.1954
 20
4.2346
 11
39.391
 21
4.25
  0
LINE
  8
0
 10
39.391
 20
4.25
 11
39.5865
 21
4.2346
  0
LINE
  8
0
 10
39.5865
 20
4.2346
 11
39.7773
 21
4.18881
  0
LINE
  8
0
 10
39.7773
 20
4.18881
 11
39.9585
 21
4.11375
  0
LINE
  8
0
 10
39.9585
 20
4.11375
 11
40.1257
 21
4.01126
  0
LINE
  8
0
 10
40.1257
 20
4.01126
 11
40.2749
 21
3.88388
  0
LINE
  8
0
 10
40.2749
 20
3.88388
 11
40.4023
 21
3.73473
  0
LINE
  8
0
 10
40.4023
 20
3.73473
 11
40.5047
 21
3.56747
  0
LINE
  8
0
 10
40.5047
 20
3.56747
 11
40.5798
 21
3.38626
  0
LINE
  8
0
 10
40.5798
 20
3.38626
 11
40.6256
 21
3.19554
  0
LINE
  8
0
 10
40.6256
 20
3.19554
 11
40.641
 21
3
  0
LINE
  8
0
 10
40.641
 20
3
 11
40.6256
 21
2.80444
  0
LINE
  8
0
 10
40.6256
 20
2.80444
 11
40.5798
 21
2.61372
  0
LINE
  8
0
 10
40.5798
 20
2.61372
 11
40.5047
 21
2.43251
  0
LINE
  8
0
 10
40.5047
 20
2.43251
 11
40.4023
 21
2.26526
  0
LINE
  8
0
 10
40.4023
 20
2.26526
 11
40.2749
 21
2.1161
  0
LINE
  8
0
 10
40.2749
 20
2.1161
 11
40.1257
 21
1.98872
  0
LINE
  8
0
 10
40.1257
 20
1.98872
 11
39.9585
 21
1.88623
  0
LINE
  8
0
 10
39.9585
 20
1.88623
 11
39.7773
 21
1.81117
  0
LINE
  8
0
 10
39.7773
 20
1.81117
 11
39.5865
 21
1.76538
  0
LINE
  8
0
 10
39.5865
 20
1.76538
 11
39.391
 21
1.75
  0
LINE
  8
0
 10
39.391
 20
1.75
 11
39.1954
 21
1.76538
  0
LINE
  8
0
 10
154.336
 20
1.76538
 11
154.146
 21
1.81117
  0
LINE
  8
0
 10
154.146
 20
1.81117
 11
153.965
 21
1.88623
  0
LINE
  8
0
 10
153.965
 20
1.88623
 11
153.797
 21
1.98872
  0
LINE
  8
0
 10
153.797
 20
1.98872
 11
153.648
 21
2.1161
  0
LINE
  8
0
 10
153.648
 20
2.1161
 11
153.521
 21
2.26526
  0
LINE
  8
0
 10
153.521
 20
2.26526
 11
153.418
 21
2.43251
  0
LINE
  8
0
 10
153.418
 20
2.43251
 11
153.343
 21
2.61372
  0
LINE
  8
0
 10
153.343
 20
2.61372
 11
153.297
 21
2.80444
  0
LINE
  8
0
 10
153.297
 20
2.80444
 11
153.282
 21
3
  0
LINE
  8
0
 10
153.282
 20
3
 11
153.297
 21
3.19554
  0
LINE
  8
0
 10
153.297
 20
3.19554
 11
153.343
 21
3.38626
  0
LINE
  8
0
 10
153.343
 20
3.38626
 11
153.418
 21
3.56747
  0
LINE
  8
0
 10
153.418
 20
3.56747
 11
153.521
 21
3.73473
  0
LINE
  8
0
 10
153.521
 20
3.73473
 11
153.648
 21
3.88388
  0
LINE
  8
0
 10
153.648
 20
3.88388
 11
153.797
 21
4.01126
  0
LINE
  8
0
 10
153.797
 20
4.01126
 11
153.965
 21
4.11375
  0
LINE
  8
0
 10
153.965
 20
4.11375
 11
154.146
 21
4.18881
  0
LINE
  8
0
 10
154.146
 20
4.18881
 11
154.336
 21
4.2346
  0
LINE
  8
0
 10
154.336
 20
4.2346
 11
154.532
 21
4.25
  0
LINE
  8
0
 10
154.532
 20
4.25
 11
154.728
 21
4.2346
  0
LINE
  8
0
 10
154.728
 20
4.2346
 11
154.918
 21
4.18881
  0
LINE
  8
0
 10
154.918
 20
4.18881
 11
155.099
 21
4.11375
  0
LINE
  8
0
 10
155.099
 20
4.11375
 11
155.267
 21
4.01126
  0
LINE
  8
0
 10
155.267
 20
4.01126
 11
155.416
 21
3.88388
  0
LINE
  8
0
 10
155.416
 20
3.88388
 11
155.543
 21
3.73473
  0
LINE
  8
0
 10
155.543
 20
3.73473
 11
155.646
 21
3.56747
  0
LINE
  8
0
 10
155.646
 20
3.56747
 11
155.721
 21
3.38626
  0
LINE
  8
0
 10
155.721
 20
3.38626
 11
155.767
 21
3.19554
  0
LINE
  8
0
 10
155.767
 20
3.19554
 11
155.782
 21
3
  0
LINE
  8
0
 10
155.782
 20
3
 11
155.767
 21
2.80444
  0
LINE
  8
0
 10
155.767
 20
2.80444
 11
155.721
 21
2.61372
  0
LINE
  8
0
 10
155.721
 20
2.61372
 11
155.646
 21
2.43251
  0
LINE
  8
0
 10
155.646
 20
2.43251
 11
155.543
 21
2.26526
  0
LINE
  8
0
 10
155.543
 20
2.26526
 11
155.416
 21
2.1161
  0
LINE
  8
0
 10
155.416
 20
2.1161
 11
155.267
 21
1.98872
  0
LINE
  8
0
 10
155.267
 20
1.98872
 11
155.099
 21
1.88623
  0
LINE
  8
0
 10
155.099
 20
1.88623
 11
154.918
 21
1.81117
  0
LINE
  8
0
 10
154.918
 20
1.81117
 11
154.728
 21
1.76538
  0
LINE
  8
0
 10
154.728
 20
1.76538
 11
154.532
 21
1.75
  0
LINE
  8
0
 10
154.532
 20
1.75
 11
154.336
 21
1.76538
  0
LINE
  8
0
 10
271.636
 20
1.76538
 11
271.446
 21
1.81117
  0
LINE
  8
0
 10
271.446
 20
1.81117
 11
271.265
 21
1.88623
  0
LINE
  8
0
 10
271.265
 20
1.88623
 11
271.097
 21
1.98872
  0
LINE
  8
0
 10
271.097
 20
1.98872
 11
270.948
 21
2.1161
  0
LINE
  8
0
 10
270.948
 20
2.1161
 11
270.821
 21
2.26526
  0
LINE
  8
0
 10
270.821
 20
2.26526
 11
270.718
 21
2.43251
  0
LINE
  8
0
 10
270.718
 20
2.43251
 11
270.643
 21
2.61372
  0
LINE
  8
0
 10
270.643
 20
2.61372
 11
270.597
 21
2.80444
  0
LINE
  8
0
 10
270.597
 20
2.80444
 11
270.582
 21
3
  0
LINE
  8
0
 10
270.582
 20
3
 11
270.597
 21
3.19554
  0
LINE
  8
0
 10
270.597
 20
3.19554
 11
270.643
 21
3.38626
  0
LINE
  8
0
 10
270.643
 20
3.38626
 11
270.718
 21
3.56747
  0
LINE
  8
0
 10
270.718
 20
3.56747
 11
270.821
 21
3.73473
  0
LINE
  8
0
 10
270.821
 20
3.73473
 11
270.948
 21
3.88388
  0
LINE
  8
0
 10
270.948
 20
3.88388
 11
271.097
 21
4.01126
  0
LINE
  8
0
 10
271.097
 20
4.01126
 11
271.265
 21
4.11375
  0
LINE
  8
0
 10
271.265
 20
4.11375
 11
271.446
 21
4.18881
  0
LINE
  8
0
 10
271.446
 20
4.18881
 11
271.636
 21
4.2346
  0
LINE
  8
0
 10
271.636
 20
4.2346
 11
271.832
 21
4.25
  0
LINE
  8
0
 10
271.832
 20
4.25
 11
272.028
 21
4.2346
  0
LINE
  8
0
 10
272.028
 20
4.2346
 11
272.218
 21
4.18881
  0
LINE
  8
0
 10
272.218
 20
4.18881
 11
272.399
 21
4.11375
  0
LINE
  8
0
 10
272.399
 20
4.11375
 11
272.567
 21
4.01126
  0
LINE
  8
0
 10
272.567
 20
4.01126
 11
272.716
 21
3.88388
  0
LINE
  8
0
 10
272.716
 20
3.88388
 11
272.843
 21
3.73473
  0
LINE
  8
0
 10
272.843
 20
3.73473
 11
272.946
 21
3.56747
  0
LINE
  8
0
 10
272.946
 20
3.56747
 11
273.021
 21
3.38626
  0
LINE
  8
0
 10
273.021
 20
3.38626
 11
273.067
 21
3.19554
  0
LINE
  8
0
 10
273.067
 20
3.19554
 11
273.082
 21
3
  0
LINE
  8
0
 10
273.082
 20
3
 11
273.067
 21
2.80444
  0
LINE
  8
0
 10
273.067
 20
2.80444
 11
273.021
 21
2.61372
  0
LINE
  8
0
 10
273.021
 20
2.61372
 11
272.946
 21
2.43251
  0
LINE
  8
0
 10
272.946
 20
2.43251
 11
272.843
 21
2.26526
  0
LINE
  8
0
 10
272.843
 20
2.26526
 11
272.716
 21
2.1161
  0
LINE
  8
0
 10
272.716
 20
2.1161
 11
272.567
 21
1.98872
  0
LINE
  8
0
 10
272.567
 20
1.98872
 11
272.399
 21
1.88623
  0
LINE
  8
0
 10
272.399
 20
1.88623
 11
272.218
 21
1.81117
  0
LINE
  8
0
 10
272.218
 20
1.81117
 11
272.028
 21
1.76538
  0
LINE
  8
0
 10
272.028
 20
1.76538
 11
271.832
 21
1.75
  0
LINE
  8
0
 10
271.832
 20
1.75
 11
271.636
 21
1.76538
  0
ENDSEC
  0
SECTION
  2
OBJECTS
  0
DICTIONARY
  0
ENDSEC
  0
EOF
