  0
SECTION
  2
BLOCKS
  0
ENDSEC
  0
SECTION
  2
ENTITIES
  0
LINE
  8
0
 10
592.182
 20
44.8
 11
0
 21
44.8
  0
LINE
  8
0
 10
0
 20
44.8
 11
0
 21
0.199997
  0
LINE
  8
0
 10
0
 20
0.199997
 11
592.182
 21
0.199997
  0
LINE
  8
0
 10
592.182
 20
0.199997
 11
592.182
 21
44.8
  0
LINE
  8
0
 10
472.186
 20
40.7654
 11
471.996
 21
40.8112
  0
LINE
  8
0
 10
471.996
 20
40.8112
 11
471.814
 21
40.8862
  0
LINE
  8
0
 10
471.814
 20
40.8862
 11
471.647
 21
40.9887
  0
LINE
  8
0
 10
471.647
 20
40.9887
 11
471.498
 21
41.1161
  0
LINE
  8
0
 10
471.498
 20
41.1161
 11
471.371
 21
41.2653
  0
LINE
  8
0
 10
471.371
 20
41.2653
 11
471.268
 21
41.4325
  0
LINE
  8
0
 10
471.268
 20
41.4325
 11
471.193
 21
41.6137
  0
LINE
  8
0
 10
471.193
 20
41.6137
 11
471.147
 21
41.8044
  0
LINE
  8
0
 10
471.147
 20
41.8044
 11
471.132
 21
42
  0
LINE
  8
0
 10
471.132
 20
42
 11
471.147
 21
42.1955
  0
LINE
  8
0
 10
471.147
 20
42.1955
 11
471.193
 21
42.3863
  0
LINE
  8
0
 10
471.193
 20
42.3863
 11
471.268
 21
42.5675
  0
LINE
  8
0
 10
471.268
 20
42.5675
 11
471.371
 21
42.7347
  0
LINE
  8
0
 10
471.371
 20
42.7347
 11
471.498
 21
42.8839
  0
LINE
  8
0
 10
471.498
 20
42.8839
 11
471.647
 21
43.0113
  0
LINE
  8
0
 10
471.647
 20
43.0113
 11
471.814
 21
43.1138
  0
LINE
  8
0
 10
471.814
 20
43.1138
 11
471.996
 21
43.1888
  0
LINE
  8
0
 10
471.996
 20
43.1888
 11
472.186
 21
43.2346
  0
LINE
  8
0
 10
472.186
 20
43.2346
 11
472.382
 21
43.25
  0
LINE
  8
0
 10
472.382
 20
43.25
 11
472.578
 21
43.2346
  0
LINE
  8
0
 10
472.578
 20
43.2346
 11
472.768
 21
43.1888
  0
LINE
  8
0
 10
472.768
 20
43.1888
 11
472.949
 21
43.1138
  0
LINE
  8
0
 10
472.949
 20
43.1138
 11
473.117
 21
43.0113
  0
LINE
  8
0
 10
473.117
 20
43.0113
 11
473.266
 21
42.8839
  0
LINE
  8
0
 10
473.266
 20
42.8839
 11
473.393
 21
42.7347
  0
LINE
  8
0
 10
473.393
 20
42.7347
 11
473.496
 21
42.5675
  0
LINE
  8
0
 10
473.496
 20
42.5675
 11
473.571
 21
42.3863
  0
LINE
  8
0
 10
473.571
 20
42.3863
 11
473.617
 21
42.1955
  0
LINE
  8
0
 10
473.617
 20
42.1955
 11
473.632
 21
42
  0
LINE
  8
0
 10
473.632
 20
42
 11
473.617
 21
41.8044
  0
LINE
  8
0
 10
473.617
 20
41.8044
 11
473.571
 21
41.6137
  0
LINE
  8
0
 10
473.571
 20
41.6137
 11
473.496
 21
41.4325
  0
LINE
  8
0
 10
473.496
 20
41.4325
 11
473.393
 21
41.2653
  0
LINE
  8
0
 10
473.393
 20
41.2653
 11
473.266
 21
41.1161
  0
LINE
  8
0
 10
473.266
 20
41.1161
 11
473.117
 21
40.9887
  0
LINE
  8
0
 10
473.117
 20
40.9887
 11
472.949
 21
40.8862
  0
LINE
  8
0
 10
472.949
 20
40.8862
 11
472.768
 21
40.8112
  0
LINE
  8
0
 10
472.768
 20
40.8112
 11
472.578
 21
40.7654
  0
LINE
  8
0
 10
472.578
 20
40.7654
 11
472.382
 21
40.75
  0
LINE
  8
0
 10
472.382
 20
40.75
 11
472.186
 21
40.7654
  0
LINE
  8
0
 10
195.361
 20
40.7654
 11
195.171
 21
40.8112
  0
LINE
  8
0
 10
195.171
 20
40.8112
 11
194.99
 21
40.8862
  0
LINE
  8
0
 10
194.99
 20
40.8862
 11
194.822
 21
40.9887
  0
LINE
  8
0
 10
194.822
 20
40.9887
 11
194.673
 21
41.1161
  0
LINE
  8
0
 10
194.673
 20
41.1161
 11
194.546
 21
41.2653
  0
LINE
  8
0
 10
194.546
 20
41.2653
 11
194.443
 21
41.4325
  0
LINE
  8
0
 10
194.443
 20
41.4325
 11
194.368
 21
41.6137
  0
LINE
  8
0
 10
194.368
 20
41.6137
 11
194.322
 21
41.8044
  0
LINE
  8
0
 10
194.322
 20
41.8044
 11
194.307
 21
42
  0
LINE
  8
0
 10
194.307
 20
42
 11
194.322
 21
42.1955
  0
LINE
  8
0
 10
194.322
 20
42.1955
 11
194.368
 21
42.3863
  0
LINE
  8
0
 10
194.368
 20
42.3863
 11
194.443
 21
42.5675
  0
LINE
  8
0
 10
194.443
 20
42.5675
 11
194.546
 21
42.7347
  0
LINE
  8
0
 10
194.546
 20
42.7347
 11
194.673
 21
42.8839
  0
LINE
  8
0
 10
194.673
 20
42.8839
 11
194.822
 21
43.0113
  0
LINE
  8
0
 10
194.822
 20
43.0113
 11
194.99
 21
43.1138
  0
LINE
  8
0
 10
194.99
 20
43.1138
 11
195.171
 21
43.1888
  0
LINE
  8
0
 10
195.171
 20
43.1888
 11
195.361
 21
43.2346
  0
LINE
  8
0
 10
195.361
 20
43.2346
 11
195.557
 21
43.25
  0
LINE
  8
0
 10
195.557
 20
43.25
 11
195.753
 21
43.2346
  0
LINE
  8
0
 10
195.753
 20
43.2346
 11
195.943
 21
43.1888
  0
LINE
  8
0
 10
195.943
 20
43.1888
 11
196.124
 21
43.1138
  0
LINE
  8
0
 10
196.124
 20
43.1138
 11
196.292
 21
43.0113
  0
LINE
  8
0
 10
196.292
 20
43.0113
 11
196.441
 21
42.8839
  0
LINE
  8
0
 10
196.441
 20
42.8839
 11
196.568
 21
42.7347
  0
LINE
  8
0
 10
196.568
 20
42.7347
 11
196.671
 21
42.5675
  0
LINE
  8
0
 10
196.671
 20
42.5675
 11
196.746
 21
42.3863
  0
LINE
  8
0
 10
196.746
 20
42.3863
 11
196.792
 21
42.1955
  0
LINE
  8
0
 10
196.792
 20
42.1955
 11
196.807
 21
42
  0
LINE
  8
0
 10
196.807
 20
42
 11
196.792
 21
41.8044
  0
LINE
  8
0
 10
196.792
 20
41.8044
 11
196.746
 21
41.6137
  0
LINE
  8
0
 10
196.746
 20
41.6137
 11
196.671
 21
41.4325
  0
LINE
  8
0
 10
196.671
 20
41.4325
 11
196.568
 21
41.2653
  0
LINE
  8
0
 10
196.568
 20
41.2653
 11
196.441
 21
41.1161
  0
LINE
  8
0
 10
196.441
 20
41.1161
 11
196.292
 21
40.9887
  0
LINE
  8
0
 10
196.292
 20
40.9887
 11
196.124
 21
40.8862
  0
LINE
  8
0
 10
196.124
 20
40.8862
 11
195.943
 21
40.8112
  0
LINE
  8
0
 10
195.943
 20
40.8112
 11
195.753
 21
40.7654
  0
LINE
  8
0
 10
195.753
 20
40.7654
 11
195.557
 21
40.75
  0
LINE
  8
0
 10
195.557
 20
40.75
 11
195.361
 21
40.7654
  0
LINE
  8
0
 10
39.1954
 20
40.7654
 11
39.0047
 21
40.8112
  0
LINE
  8
0
 10
39.0047
 20
40.8112
 11
38.8235
 21
40.8862
  0
LINE
  8
0
 10
38.8235
 20
40.8862
 11
38.6563
 21
40.9887
  0
LINE
  8
0
 10
38.6563
 20
40.9887
 11
38.5071
 21
41.1161
  0
LINE
  8
0
 10
38.5071
 20
41.1161
 11
38.3797
 21
41.2653
  0
LINE
  8
0
 10
38.3797
 20
41.2653
 11
38.2772
 21
41.4325
  0
LINE
  8
0
 10
38.2772
 20
41.4325
 11
38.2022
 21
41.6137
  0
LINE
  8
0
 10
38.2022
 20
41.6137
 11
38.1564
 21
41.8044
  0
LINE
  8
0
 10
38.1564
 20
41.8044
 11
38.141
 21
42
  0
LINE
  8
0
 10
38.141
 20
42
 11
38.1564
 21
42.1955
  0
LINE
  8
0
 10
38.1564
 20
42.1955
 11
38.2022
 21
42.3863
  0
LINE
  8
0
 10
38.2022
 20
42.3863
 11
38.2772
 21
42.5675
  0
LINE
  8
0
 10
38.2772
 20
42.5675
 11
38.3797
 21
42.7347
  0
LINE
  8
0
 10
38.3797
 20
42.7347
 11
38.5071
 21
42.8839
  0
LINE
  8
0
 10
38.5071
 20
42.8839
 11
38.6563
 21
43.0113
  0
LINE
  8
0
 10
38.6563
 20
43.0113
 11
38.8235
 21
43.1138
  0
LINE
  8
0
 10
38.8235
 20
43.1138
 11
39.0047
 21
43.1888
  0
LINE
  8
0
 10
39.0047
 20
43.1888
 11
39.1954
 21
43.2346
  0
LINE
  8
0
 10
39.1954
 20
43.2346
 11
39.391
 21
43.25
  0
LINE
  8
0
 10
39.391
 20
43.25
 11
39.5865
 21
43.2346
  0
LINE
  8
0
 10
39.5865
 20
43.2346
 11
39.7773
 21
43.1888
  0
LINE
  8
0
 10
39.7773
 20
43.1888
 11
39.9585
 21
43.1138
  0
LINE
  8
0
 10
39.9585
 20
43.1138
 11
40.1257
 21
43.0113
  0
LINE
  8
0
 10
40.1257
 20
43.0113
 11
40.2749
 21
42.8839
  0
LINE
  8
0
 10
40.2749
 20
42.8839
 11
40.4023
 21
42.7347
  0
LINE
  8
0
 10
40.4023
 20
42.7347
 11
40.5047
 21
42.5675
  0
LINE
  8
0
 10
40.5047
 20
42.5675
 11
40.5798
 21
42.3863
  0
LINE
  8
0
 10
40.5798
 20
42.3863
 11
40.6256
 21
42.1955
  0
LINE
  8
0
 10
40.6256
 20
42.1955
 11
40.641
 21
42
  0
LINE
  8
0
 10
40.641
 20
42
 11
40.6256
 21
41.8044
  0
LINE
  8
0
 10
40.6256
 20
41.8044
 11
40.5798
 21
41.6137
  0
LINE
  8
0
 10
40.5798
 20
41.6137
 11
40.5047
 21
41.4325
  0
LINE
  8
0
 10
40.5047
 20
41.4325
 11
40.4023
 21
41.2653
  0
LINE
  8
0
 10
40.4023
 20
41.2653
 11
40.2749
 21
41.1161
  0
LINE
  8
0
 10
40.2749
 20
41.1161
 11
40.1257
 21
40.9887
  0
LINE
  8
0
 10
40.1257
 20
40.9887
 11
39.9585
 21
40.8862
  0
LINE
  8
0
 10
39.9585
 20
40.8862
 11
39.7773
 21
40.8112
  0
LINE
  8
0
 10
39.7773
 20
40.8112
 11
39.5865
 21
40.7654
  0
LINE
  8
0
 10
39.5865
 20
40.7654
 11
39.391
 21
40.75
  0
LINE
  8
0
 10
39.391
 20
40.75
 11
39.1954
 21
40.7654
  0
LINE
  8
0
 10
312.582
 20
24.5
 11
312.582
 21
38.5
  0
LINE
  8
0
 10
312.582
 20
38.5
 11
326.582
 21
38.5
  0
LINE
  8
0
 10
326.582
 20
38.5
 11
326.582
 21
24.5
  0
LINE
  8
0
 10
326.582
 20
24.5
 11
312.582
 21
24.5
  0
LINE
  8
0
 10
122.532
 20
24.5
 11
122.532
 21
38.5
  0
LINE
  8
0
 10
122.532
 20
38.5
 11
136.532
 21
38.5
  0
LINE
  8
0
 10
136.532
 20
38.5
 11
136.532
 21
24.5
  0
LINE
  8
0
 10
136.532
 20
24.5
 11
122.532
 21
24.5
  0
LINE
  8
0
 10
461.382
 20
11.5
 11
461.382
 21
33.5
  0
LINE
  8
0
 10
461.382
 20
33.5
 11
483.382
 21
33.5
  0
LINE
  8
0
 10
483.382
 20
33.5
 11
483.382
 21
11.5
  0
LINE
  8
0
 10
483.382
 20
11.5
 11
461.382
 21
11.5
  0
LINE
  8
0
 10
104.532
 20
15.5
 11
104.532
 21
29.5
  0
LINE
  8
0
 10
104.532
 20
29.5
 11
118.532
 21
29.5
  0
LINE
  8
0
 10
118.532
 20
29.5
 11
118.532
 21
15.5
  0
LINE
  8
0
 10
118.532
 20
15.5
 11
104.532
 21
15.5
  0
LINE
  8
0
 10
294.582
 20
15.5
 11
294.582
 21
29.5
  0
LINE
  8
0
 10
294.582
 20
29.5
 11
308.582
 21
29.5
  0
LINE
  8
0
 10
308.582
 20
29.5
 11
308.582
 21
15.5
  0
LINE
  8
0
 10
308.582
 20
15.5
 11
294.582
 21
15.5
  0
LINE
  8
0
 10
274.582
 20
15.5
 11
274.582
 21
29.5
  0
LINE
  8
0
 10
274.582
 20
29.5
 11
288.582
 21
29.5
  0
LINE
  8
0
 10
288.582
 20
29.5
 11
288.582
 21
15.5
  0
LINE
  8
0
 10
288.582
 20
15.5
 11
274.582
 21
15.5
  0
LINE
  8
0
 10
254.582
 20
15.5
 11
254.582
 21
29.5
  0
LINE
  8
0
 10
254.582
 20
29.5
 11
268.582
 21
29.5
  0
LINE
  8
0
 10
268.582
 20
29.5
 11
268.582
 21
15.5
  0
LINE
  8
0
 10
268.582
 20
15.5
 11
254.582
 21
15.5
  0
LINE
  8
0
 10
84.532
 20
15.5
 11
84.532
 21
29.5
  0
LINE
  8
0
 10
84.532
 20
29.5
 11
98.532
 21
29.5
  0
LINE
  8
0
 10
98.532
 20
29.5
 11
98.532
 21
15.5
  0
LINE
  8
0
 10
98.532
 20
15.5
 11
84.532
 21
15.5
  0
LINE
  8
0
 10
64.532
 20
15.5
 11
64.532
 21
29.5
  0
LINE
  8
0
 10
64.532
 20
29.5
 11
78.532
 21
29.5
  0
LINE
  8
0
 10
78.532
 20
29.5
 11
78.532
 21
15.5
  0
LINE
  8
0
 10
78.532
 20
15.5
 11
64.532
 21
15.5
  0
LINE
  8
0
 10
312.582
 20
6.5
 11
312.582
 21
20.5
  0
LINE
  8
0
 10
312.582
 20
20.5
 11
326.582
 21
20.5
  0
LINE
  8
0
 10
326.582
 20
20.5
 11
326.582
 21
6.5
  0
LINE
  8
0
 10
326.582
 20
6.5
 11
312.582
 21
6.5
  0
LINE
  8
0
 10
330.582
 20
6.5
 11
330.582
 21
20.5
  0
LINE
  8
0
 10
330.582
 20
20.5
 11
344.582
 21
20.5
  0
LINE
  8
0
 10
344.582
 20
20.5
 11
344.582
 21
6.5
  0
LINE
  8
0
 10
344.582
 20
6.5
 11
330.582
 21
6.5
  0
LINE
  8
0
 10
122.532
 20
6.5
 11
122.532
 21
20.5
  0
LINE
  8
0
 10
122.532
 20
20.5
 11
136.532
 21
20.5
  0
LINE
  8
0
 10
136.532
 20
20.5
 11
136.532
 21
6.5
  0
LINE
  8
0
 10
136.532
 20
6.5
 11
122.532
 21
6.5
  0
LINE
  8
0
 10
39.1954
 20
1.76538
 11
39.0047
 21
1.81117
  0
LINE
  8
0
 10
39.0047
 20
1.81117
 11
38.8235
 21
1.88623
  0
LINE
  8
0
 10
38.8235
 20
1.88623
 11
38.6563
 21
1.98872
  0
LINE
  8
0
 10
38.6563
 20
1.98872
 11
38.5071
 21
2.1161
  0
LINE
  8
0
 10
38.5071
 20
2.1161
 11
38.3797
 21
2.26526
  0
LINE
  8
0
 10
38.3797
 20
2.26526
 11
38.2772
 21
2.43251
  0
LINE
  8
0
 10
38.2772
 20
2.43251
 11
38.2022
 21
2.61372
  0
LINE
  8
0
 10
38.2022
 20
2.61372
 11
38.1564
 21
2.80444
  0
LINE
  8
0
 10
38.1564
 20
2.80444
 11
38.141
 21
3
  0
LINE
  8
0
 10
38.141
 20
3
 11
38.1564
 21
3.19554
  0
LINE
  8
0
 10
38.1564
 20
3.19554
 11
38.2022
 21
3.38626
  0
LINE
  8
0
 10
38.2022
 20
3.38626
 11
38.2772
 21
3.56747
  0
LINE
  8
0
 10
38.2772
 20
3.56747
 11
38.3797
 21
3.73473
  0
LINE
  8
0
 10
38.3797
 20
3.73473
 11
38.5071
 21
3.88388
  0
LINE
  8
0
 10
38.5071
 20
3.88388
 11
38.6563
 21
4.01126
  0
LINE
  8
0
 10
38.6563
 20
4.01126
 11
38.8235
 21
4.11375
  0
LINE
  8
0
 10
38.8235
 20
4.11375
 11
39.0047
 21
4.18881
  0
LINE
  8
0
 10
39.0047
 20
4.18881
 11
39.1954
 21
4.2346
  0
LINE
  8
0
 10
39.1954
 20
4.2346
 11
39.391
 21
4.25
  0
LINE
  8
0
 10
39.391
 20
4.25
 11
39.5865
 21
4.2346
  0
LINE
  8
0
 10
39.5865
 20
4.2346
 11
39.7773
 21
4.18881
  0
LINE
  8
0
 10
39.7773
 20
4.18881
 11
39.9585
 21
4.11375
  0
LINE
  8
0
 10
39.9585
 20
4.11375
 11
40.1257
 21
4.01126
  0
LINE
  8
0
 10
40.1257
 20
4.01126
 11
40.2749
 21
3.88388
  0
LINE
  8
0
 10
40.2749
 20
3.88388
 11
40.4023
 21
3.73473
  0
LINE
  8
0
 10
40.4023
 20
3.73473
 11
40.5047
 21
3.56747
  0
LINE
  8
0
 10
40.5047
 20
3.56747
 11
40.5798
 21
3.38626
  0
LINE
  8
0
 10
40.5798
 20
3.38626
 11
40.6256
 21
3.19554
  0
LINE
  8
0
 10
40.6256
 20
3.19554
 11
40.641
 21
3
  0
LINE
  8
0
 10
40.641
 20
3
 11
40.6256
 21
2.80444
  0
LINE
  8
0
 10
40.6256
 20
2.80444
 11
40.5798
 21
2.61372
  0
LINE
  8
0
 10
40.5798
 20
2.61372
 11
40.5047
 21
2.43251
  0
LINE
  8
0
 10
40.5047
 20
2.43251
 11
40.4023
 21
2.26526
  0
LINE
  8
0
 10
40.4023
 20
2.26526
 11
40.2749
 21
2.1161
  0
LINE
  8
0
 10
40.2749
 20
2.1161
 11
40.1257
 21
1.98872
  0
LINE
  8
0
 10
40.1257
 20
1.98872
 11
39.9585
 21
1.88623
  0
LINE
  8
0
 10
39.9585
 20
1.88623
 11
39.7773
 21
1.81117
  0
LINE
  8
0
 10
39.7773
 20
1.81117
 11
39.5865
 21
1.76538
  0
LINE
  8
0
 10
39.5865
 20
1.76538
 11
39.391
 21
1.75
  0
LINE
  8
0
 10
39.391
 20
1.75
 11
39.1954
 21
1.76538
  0
LINE
  8
0
 10
195.361
 20
1.76538
 11
195.171
 21
1.81117
  0
LINE
  8
0
 10
195.171
 20
1.81117
 11
194.99
 21
1.88623
  0
LINE
  8
0
 10
194.99
 20
1.88623
 11
194.822
 21
1.98872
  0
LINE
  8
0
 10
194.822
 20
1.98872
 11
194.673
 21
2.1161
  0
LINE
  8
0
 10
194.673
 20
2.1161
 11
194.546
 21
2.26526
  0
LINE
  8
0
 10
194.546
 20
2.26526
 11
194.443
 21
2.43251
  0
LINE
  8
0
 10
194.443
 20
2.43251
 11
194.368
 21
2.61372
  0
LINE
  8
0
 10
194.368
 20
2.61372
 11
194.322
 21
2.80444
  0
LINE
  8
0
 10
194.322
 20
2.80444
 11
194.307
 21
3
  0
LINE
  8
0
 10
194.307
 20
3
 11
194.322
 21
3.19554
  0
LINE
  8
0
 10
194.322
 20
3.19554
 11
194.368
 21
3.38626
  0
LINE
  8
0
 10
194.368
 20
3.38626
 11
194.443
 21
3.56747
  0
LINE
  8
0
 10
194.443
 20
3.56747
 11
194.546
 21
3.73473
  0
LINE
  8
0
 10
194.546
 20
3.73473
 11
194.673
 21
3.88388
  0
LINE
  8
0
 10
194.673
 20
3.88388
 11
194.822
 21
4.01126
  0
LINE
  8
0
 10
194.822
 20
4.01126
 11
194.99
 21
4.11375
  0
LINE
  8
0
 10
194.99
 20
4.11375
 11
195.171
 21
4.18881
  0
LINE
  8
0
 10
195.171
 20
4.18881
 11
195.361
 21
4.2346
  0
LINE
  8
0
 10
195.361
 20
4.2346
 11
195.557
 21
4.25
  0
LINE
  8
0
 10
195.557
 20
4.25
 11
195.753
 21
4.2346
  0
LINE
  8
0
 10
195.753
 20
4.2346
 11
195.943
 21
4.18881
  0
LINE
  8
0
 10
195.943
 20
4.18881
 11
196.124
 21
4.11375
  0
LINE
  8
0
 10
196.124
 20
4.11375
 11
196.292
 21
4.01126
  0
LINE
  8
0
 10
196.292
 20
4.01126
 11
196.441
 21
3.88388
  0
LINE
  8
0
 10
196.441
 20
3.88388
 11
196.568
 21
3.73473
  0
LINE
  8
0
 10
196.568
 20
3.73473
 11
196.671
 21
3.56747
  0
LINE
  8
0
 10
196.671
 20
3.56747
 11
196.746
 21
3.38626
  0
LINE
  8
0
 10
196.746
 20
3.38626
 11
196.792
 21
3.19554
  0
LINE
  8
0
 10
196.792
 20
3.19554
 11
196.807
 21
3
  0
LINE
  8
0
 10
196.807
 20
3
 11
196.792
 21
2.80444
  0
LINE
  8
0
 10
196.792
 20
2.80444
 11
196.746
 21
2.61372
  0
LINE
  8
0
 10
196.746
 20
2.61372
 11
196.671
 21
2.43251
  0
LINE
  8
0
 10
196.671
 20
2.43251
 11
196.568
 21
2.26526
  0
LINE
  8
0
 10
196.568
 20
2.26526
 11
196.441
 21
2.1161
  0
LINE
  8
0
 10
196.441
 20
2.1161
 11
196.292
 21
1.98872
  0
LINE
  8
0
 10
196.292
 20
1.98872
 11
196.124
 21
1.88623
  0
LINE
  8
0
 10
196.124
 20
1.88623
 11
195.943
 21
1.81117
  0
LINE
  8
0
 10
195.943
 20
1.81117
 11
195.753
 21
1.76538
  0
LINE
  8
0
 10
195.753
 20
1.76538
 11
195.557
 21
1.75
  0
LINE
  8
0
 10
195.557
 20
1.75
 11
195.361
 21
1.76538
  0
LINE
  8
0
 10
472.186
 20
1.76538
 11
471.996
 21
1.81117
  0
LINE
  8
0
 10
471.996
 20
1.81117
 11
471.814
 21
1.88623
  0
LINE
  8
0
 10
471.814
 20
1.88623
 11
471.647
 21
1.98872
  0
LINE
  8
0
 10
471.647
 20
1.98872
 11
471.498
 21
2.1161
  0
LINE
  8
0
 10
471.498
 20
2.1161
 11
471.371
 21
2.26526
  0
LINE
  8
0
 10
471.371
 20
2.26526
 11
471.268
 21
2.43251
  0
LINE
  8
0
 10
471.268
 20
2.43251
 11
471.193
 21
2.61372
  0
LINE
  8
0
 10
471.193
 20
2.61372
 11
471.147
 21
2.80444
  0
LINE
  8
0
 10
471.147
 20
2.80444
 11
471.132
 21
3
  0
LINE
  8
0
 10
471.132
 20
3
 11
471.147
 21
3.19554
  0
LINE
  8
0
 10
471.147
 20
3.19554
 11
471.193
 21
3.38626
  0
LINE
  8
0
 10
471.193
 20
3.38626
 11
471.268
 21
3.56747
  0
LINE
  8
0
 10
471.268
 20
3.56747
 11
471.371
 21
3.73473
  0
LINE
  8
0
 10
471.371
 20
3.73473
 11
471.498
 21
3.88388
  0
LINE
  8
0
 10
471.498
 20
3.88388
 11
471.647
 21
4.01126
  0
LINE
  8
0
 10
471.647
 20
4.01126
 11
471.814
 21
4.11375
  0
LINE
  8
0
 10
471.814
 20
4.11375
 11
471.996
 21
4.18881
  0
LINE
  8
0
 10
471.996
 20
4.18881
 11
472.186
 21
4.2346
  0
LINE
  8
0
 10
472.186
 20
4.2346
 11
472.382
 21
4.25
  0
LINE
  8
0
 10
472.382
 20
4.25
 11
472.578
 21
4.2346
  0
LINE
  8
0
 10
472.578
 20
4.2346
 11
472.768
 21
4.18881
  0
LINE
  8
0
 10
472.768
 20
4.18881
 11
472.949
 21
4.11375
  0
LINE
  8
0
 10
472.949
 20
4.11375
 11
473.117
 21
4.01126
  0
LINE
  8
0
 10
473.117
 20
4.01126
 11
473.266
 21
3.88388
  0
LINE
  8
0
 10
473.266
 20
3.88388
 11
473.393
 21
3.73473
  0
LINE
  8
0
 10
473.393
 20
3.73473
 11
473.496
 21
3.56747
  0
LINE
  8
0
 10
473.496
 20
3.56747
 11
473.571
 21
3.38626
  0
LINE
  8
0
 10
473.571
 20
3.38626
 11
473.617
 21
3.19554
  0
LINE
  8
0
 10
473.617
 20
3.19554
 11
473.632
 21
3
  0
LINE
  8
0
 10
473.632
 20
3
 11
473.617
 21
2.80444
  0
LINE
  8
0
 10
473.617
 20
2.80444
 11
473.571
 21
2.61372
  0
LINE
  8
0
 10
473.571
 20
2.61372
 11
473.496
 21
2.43251
  0
LINE
  8
0
 10
473.496
 20
2.43251
 11
473.393
 21
2.26526
  0
LINE
  8
0
 10
473.393
 20
2.26526
 11
473.266
 21
2.1161
  0
LINE
  8
0
 10
473.266
 20
2.1161
 11
473.117
 21
1.98872
  0
LINE
  8
0
 10
473.117
 20
1.98872
 11
472.949
 21
1.88623
  0
LINE
  8
0
 10
472.949
 20
1.88623
 11
472.768
 21
1.81117
  0
LINE
  8
0
 10
472.768
 20
1.81117
 11
472.578
 21
1.76538
  0
LINE
  8
0
 10
472.578
 20
1.76538
 11
472.382
 21
1.75
  0
LINE
  8
0
 10
472.382
 20
1.75
 11
472.186
 21
1.76538
  0
ENDSEC
  0
SECTION
  2
OBJECTS
  0
DICTIONARY
  0
ENDSEC
  0
EOF
