  0
SECTION
  2
BLOCKS
  0
ENDSEC
  0
SECTION
  2
ENTITIES
  0
LINE
  8
0
 10
353.65
 20
44.8
 11
0
 21
44.8
  0
LINE
  8
0
 10
0
 20
44.8
 11
0
 21
0.199997
  0
LINE
  8
0
 10
0
 20
0.199997
 11
353.65
 21
0.199997
  0
LINE
  8
0
 10
353.65
 20
0.199997
 11
353.65
 21
44.8
  0
LINE
  8
0
 10
309.404
 20
40.7654
 11
309.214
 21
40.8112
  0
LINE
  8
0
 10
309.214
 20
40.8112
 11
309.033
 21
40.8862
  0
LINE
  8
0
 10
309.033
 20
40.8862
 11
308.865
 21
40.9887
  0
LINE
  8
0
 10
308.865
 20
40.9887
 11
308.716
 21
41.1161
  0
LINE
  8
0
 10
308.716
 20
41.1161
 11
308.589
 21
41.2653
  0
LINE
  8
0
 10
308.589
 20
41.2653
 11
308.486
 21
41.4325
  0
LINE
  8
0
 10
308.486
 20
41.4325
 11
308.411
 21
41.6137
  0
LINE
  8
0
 10
308.411
 20
41.6137
 11
308.365
 21
41.8044
  0
LINE
  8
0
 10
308.365
 20
41.8044
 11
308.35
 21
42
  0
LINE
  8
0
 10
308.35
 20
42
 11
308.365
 21
42.1955
  0
LINE
  8
0
 10
308.365
 20
42.1955
 11
308.411
 21
42.3863
  0
LINE
  8
0
 10
308.411
 20
42.3863
 11
308.486
 21
42.5675
  0
LINE
  8
0
 10
308.486
 20
42.5675
 11
308.589
 21
42.7347
  0
LINE
  8
0
 10
308.589
 20
42.7347
 11
308.716
 21
42.8839
  0
LINE
  8
0
 10
308.716
 20
42.8839
 11
308.865
 21
43.0113
  0
LINE
  8
0
 10
308.865
 20
43.0113
 11
309.033
 21
43.1138
  0
LINE
  8
0
 10
309.033
 20
43.1138
 11
309.214
 21
43.1888
  0
LINE
  8
0
 10
309.214
 20
43.1888
 11
309.404
 21
43.2346
  0
LINE
  8
0
 10
309.404
 20
43.2346
 11
309.6
 21
43.25
  0
LINE
  8
0
 10
309.6
 20
43.25
 11
309.796
 21
43.2346
  0
LINE
  8
0
 10
309.796
 20
43.2346
 11
309.986
 21
43.1888
  0
LINE
  8
0
 10
309.986
 20
43.1888
 11
310.167
 21
43.1138
  0
LINE
  8
0
 10
310.167
 20
43.1138
 11
310.335
 21
43.0113
  0
LINE
  8
0
 10
310.335
 20
43.0113
 11
310.484
 21
42.8839
  0
LINE
  8
0
 10
310.484
 20
42.8839
 11
310.611
 21
42.7347
  0
LINE
  8
0
 10
310.611
 20
42.7347
 11
310.714
 21
42.5675
  0
LINE
  8
0
 10
310.714
 20
42.5675
 11
310.789
 21
42.3863
  0
LINE
  8
0
 10
310.789
 20
42.3863
 11
310.835
 21
42.1955
  0
LINE
  8
0
 10
310.835
 20
42.1955
 11
310.85
 21
42
  0
LINE
  8
0
 10
310.85
 20
42
 11
310.835
 21
41.8044
  0
LINE
  8
0
 10
310.835
 20
41.8044
 11
310.789
 21
41.6137
  0
LINE
  8
0
 10
310.789
 20
41.6137
 11
310.714
 21
41.4325
  0
LINE
  8
0
 10
310.714
 20
41.4325
 11
310.611
 21
41.2653
  0
LINE
  8
0
 10
310.611
 20
41.2653
 11
310.484
 21
41.1161
  0
LINE
  8
0
 10
310.484
 20
41.1161
 11
310.335
 21
40.9887
  0
LINE
  8
0
 10
310.335
 20
40.9887
 11
310.167
 21
40.8862
  0
LINE
  8
0
 10
310.167
 20
40.8862
 11
309.986
 21
40.8112
  0
LINE
  8
0
 10
309.986
 20
40.8112
 11
309.796
 21
40.7654
  0
LINE
  8
0
 10
309.796
 20
40.7654
 11
309.6
 21
40.75
  0
LINE
  8
0
 10
309.6
 20
40.75
 11
309.404
 21
40.7654
  0
LINE
  8
0
 10
168.629
 20
40.7654
 11
168.439
 21
40.8112
  0
LINE
  8
0
 10
168.439
 20
40.8112
 11
168.258
 21
40.8862
  0
LINE
  8
0
 10
168.258
 20
40.8862
 11
168.09
 21
40.9887
  0
LINE
  8
0
 10
168.09
 20
40.9887
 11
167.941
 21
41.1161
  0
LINE
  8
0
 10
167.941
 20
41.1161
 11
167.814
 21
41.2653
  0
LINE
  8
0
 10
167.814
 20
41.2653
 11
167.711
 21
41.4325
  0
LINE
  8
0
 10
167.711
 20
41.4325
 11
167.636
 21
41.6137
  0
LINE
  8
0
 10
167.636
 20
41.6137
 11
167.59
 21
41.8044
  0
LINE
  8
0
 10
167.59
 20
41.8044
 11
167.575
 21
42
  0
LINE
  8
0
 10
167.575
 20
42
 11
167.59
 21
42.1955
  0
LINE
  8
0
 10
167.59
 20
42.1955
 11
167.636
 21
42.3863
  0
LINE
  8
0
 10
167.636
 20
42.3863
 11
167.711
 21
42.5675
  0
LINE
  8
0
 10
167.711
 20
42.5675
 11
167.814
 21
42.7347
  0
LINE
  8
0
 10
167.814
 20
42.7347
 11
167.941
 21
42.8839
  0
LINE
  8
0
 10
167.941
 20
42.8839
 11
168.09
 21
43.0113
  0
LINE
  8
0
 10
168.09
 20
43.0113
 11
168.258
 21
43.1138
  0
LINE
  8
0
 10
168.258
 20
43.1138
 11
168.439
 21
43.1888
  0
LINE
  8
0
 10
168.439
 20
43.1888
 11
168.629
 21
43.2346
  0
LINE
  8
0
 10
168.629
 20
43.2346
 11
168.825
 21
43.25
  0
LINE
  8
0
 10
168.825
 20
43.25
 11
169.021
 21
43.2346
  0
LINE
  8
0
 10
169.021
 20
43.2346
 11
169.211
 21
43.1888
  0
LINE
  8
0
 10
169.211
 20
43.1888
 11
169.392
 21
43.1138
  0
LINE
  8
0
 10
169.392
 20
43.1138
 11
169.56
 21
43.0113
  0
LINE
  8
0
 10
169.56
 20
43.0113
 11
169.709
 21
42.8839
  0
LINE
  8
0
 10
169.709
 20
42.8839
 11
169.836
 21
42.7347
  0
LINE
  8
0
 10
169.836
 20
42.7347
 11
169.939
 21
42.5675
  0
LINE
  8
0
 10
169.939
 20
42.5675
 11
170.014
 21
42.3863
  0
LINE
  8
0
 10
170.014
 20
42.3863
 11
170.06
 21
42.1955
  0
LINE
  8
0
 10
170.06
 20
42.1955
 11
170.075
 21
42
  0
LINE
  8
0
 10
170.075
 20
42
 11
170.06
 21
41.8044
  0
LINE
  8
0
 10
170.06
 20
41.8044
 11
170.014
 21
41.6137
  0
LINE
  8
0
 10
170.014
 20
41.6137
 11
169.939
 21
41.4325
  0
LINE
  8
0
 10
169.939
 20
41.4325
 11
169.836
 21
41.2653
  0
LINE
  8
0
 10
169.836
 20
41.2653
 11
169.709
 21
41.1161
  0
LINE
  8
0
 10
169.709
 20
41.1161
 11
169.56
 21
40.9887
  0
LINE
  8
0
 10
169.56
 20
40.9887
 11
169.392
 21
40.8862
  0
LINE
  8
0
 10
169.392
 20
40.8862
 11
169.211
 21
40.8112
  0
LINE
  8
0
 10
169.211
 20
40.8112
 11
169.021
 21
40.7654
  0
LINE
  8
0
 10
169.021
 20
40.7654
 11
168.825
 21
40.75
  0
LINE
  8
0
 10
168.825
 20
40.75
 11
168.629
 21
40.7654
  0
LINE
  8
0
 10
39.1954
 20
40.7654
 11
39.0047
 21
40.8112
  0
LINE
  8
0
 10
39.0047
 20
40.8112
 11
38.8235
 21
40.8862
  0
LINE
  8
0
 10
38.8235
 20
40.8862
 11
38.6563
 21
40.9887
  0
LINE
  8
0
 10
38.6563
 20
40.9887
 11
38.5071
 21
41.1161
  0
LINE
  8
0
 10
38.5071
 20
41.1161
 11
38.3797
 21
41.2653
  0
LINE
  8
0
 10
38.3797
 20
41.2653
 11
38.2772
 21
41.4325
  0
LINE
  8
0
 10
38.2772
 20
41.4325
 11
38.2022
 21
41.6137
  0
LINE
  8
0
 10
38.2022
 20
41.6137
 11
38.1564
 21
41.8044
  0
LINE
  8
0
 10
38.1564
 20
41.8044
 11
38.141
 21
42
  0
LINE
  8
0
 10
38.141
 20
42
 11
38.1564
 21
42.1955
  0
LINE
  8
0
 10
38.1564
 20
42.1955
 11
38.2022
 21
42.3863
  0
LINE
  8
0
 10
38.2022
 20
42.3863
 11
38.2772
 21
42.5675
  0
LINE
  8
0
 10
38.2772
 20
42.5675
 11
38.3797
 21
42.7347
  0
LINE
  8
0
 10
38.3797
 20
42.7347
 11
38.5071
 21
42.8839
  0
LINE
  8
0
 10
38.5071
 20
42.8839
 11
38.6563
 21
43.0113
  0
LINE
  8
0
 10
38.6563
 20
43.0113
 11
38.8235
 21
43.1138
  0
LINE
  8
0
 10
38.8235
 20
43.1138
 11
39.0047
 21
43.1888
  0
LINE
  8
0
 10
39.0047
 20
43.1888
 11
39.1954
 21
43.2346
  0
LINE
  8
0
 10
39.1954
 20
43.2346
 11
39.391
 21
43.25
  0
LINE
  8
0
 10
39.391
 20
43.25
 11
39.5865
 21
43.2346
  0
LINE
  8
0
 10
39.5865
 20
43.2346
 11
39.7773
 21
43.1888
  0
LINE
  8
0
 10
39.7773
 20
43.1888
 11
39.9585
 21
43.1138
  0
LINE
  8
0
 10
39.9585
 20
43.1138
 11
40.1257
 21
43.0113
  0
LINE
  8
0
 10
40.1257
 20
43.0113
 11
40.2749
 21
42.8839
  0
LINE
  8
0
 10
40.2749
 20
42.8839
 11
40.4023
 21
42.7347
  0
LINE
  8
0
 10
40.4023
 20
42.7347
 11
40.5047
 21
42.5675
  0
LINE
  8
0
 10
40.5047
 20
42.5675
 11
40.5798
 21
42.3863
  0
LINE
  8
0
 10
40.5798
 20
42.3863
 11
40.6256
 21
42.1955
  0
LINE
  8
0
 10
40.6256
 20
42.1955
 11
40.641
 21
42
  0
LINE
  8
0
 10
40.641
 20
42
 11
40.6256
 21
41.8044
  0
LINE
  8
0
 10
40.6256
 20
41.8044
 11
40.5798
 21
41.6137
  0
LINE
  8
0
 10
40.5798
 20
41.6137
 11
40.5047
 21
41.4325
  0
LINE
  8
0
 10
40.5047
 20
41.4325
 11
40.4023
 21
41.2653
  0
LINE
  8
0
 10
40.4023
 20
41.2653
 11
40.2749
 21
41.1161
  0
LINE
  8
0
 10
40.2749
 20
41.1161
 11
40.1257
 21
40.9887
  0
LINE
  8
0
 10
40.1257
 20
40.9887
 11
39.9585
 21
40.8862
  0
LINE
  8
0
 10
39.9585
 20
40.8862
 11
39.7773
 21
40.8112
  0
LINE
  8
0
 10
39.7773
 20
40.8112
 11
39.5865
 21
40.7654
  0
LINE
  8
0
 10
39.5865
 20
40.7654
 11
39.391
 21
40.75
  0
LINE
  8
0
 10
39.391
 20
40.75
 11
39.1954
 21
40.7654
  0
LINE
  8
0
 10
258.1
 20
24.5
 11
258.1
 21
38.5
  0
LINE
  8
0
 10
258.1
 20
38.5
 11
272.1
 21
38.5
  0
LINE
  8
0
 10
272.1
 20
38.5
 11
272.1
 21
24.5
  0
LINE
  8
0
 10
272.1
 20
24.5
 11
258.1
 21
24.5
  0
LINE
  8
0
 10
123.55
 20
24.5
 11
123.55
 21
38.5
  0
LINE
  8
0
 10
123.55
 20
38.5
 11
137.55
 21
38.5
  0
LINE
  8
0
 10
137.55
 20
38.5
 11
137.55
 21
24.5
  0
LINE
  8
0
 10
137.55
 20
24.5
 11
123.55
 21
24.5
  0
LINE
  8
0
 10
298.6
 20
11.5
 11
298.6
 21
33.5
  0
LINE
  8
0
 10
298.6
 20
33.5
 11
320.6
 21
33.5
  0
LINE
  8
0
 10
320.6
 20
33.5
 11
320.6
 21
11.5
  0
LINE
  8
0
 10
320.6
 20
11.5
 11
298.6
 21
11.5
  0
LINE
  8
0
 10
105.55
 20
15.5
 11
105.55
 21
29.5
  0
LINE
  8
0
 10
105.55
 20
29.5
 11
119.55
 21
29.5
  0
LINE
  8
0
 10
119.55
 20
29.5
 11
119.55
 21
15.5
  0
LINE
  8
0
 10
119.55
 20
15.5
 11
105.55
 21
15.5
  0
LINE
  8
0
 10
240.1
 20
15.5
 11
240.1
 21
29.5
  0
LINE
  8
0
 10
240.1
 20
29.5
 11
254.1
 21
29.5
  0
LINE
  8
0
 10
254.1
 20
29.5
 11
254.1
 21
15.5
  0
LINE
  8
0
 10
254.1
 20
15.5
 11
240.1
 21
15.5
  0
LINE
  8
0
 10
220.1
 20
15.5
 11
220.1
 21
29.5
  0
LINE
  8
0
 10
220.1
 20
29.5
 11
234.1
 21
29.5
  0
LINE
  8
0
 10
234.1
 20
29.5
 11
234.1
 21
15.5
  0
LINE
  8
0
 10
234.1
 20
15.5
 11
220.1
 21
15.5
  0
LINE
  8
0
 10
200.1
 20
15.5
 11
200.1
 21
29.5
  0
LINE
  8
0
 10
200.1
 20
29.5
 11
214.1
 21
29.5
  0
LINE
  8
0
 10
214.1
 20
29.5
 11
214.1
 21
15.5
  0
LINE
  8
0
 10
214.1
 20
15.5
 11
200.1
 21
15.5
  0
LINE
  8
0
 10
85.55
 20
15.5
 11
85.55
 21
29.5
  0
LINE
  8
0
 10
85.55
 20
29.5
 11
99.55
 21
29.5
  0
LINE
  8
0
 10
99.55
 20
29.5
 11
99.55
 21
15.5
  0
LINE
  8
0
 10
99.55
 20
15.5
 11
85.55
 21
15.5
  0
LINE
  8
0
 10
65.55
 20
15.5
 11
65.55
 21
29.5
  0
LINE
  8
0
 10
65.55
 20
29.5
 11
79.55
 21
29.5
  0
LINE
  8
0
 10
79.55
 20
29.5
 11
79.55
 21
15.5
  0
LINE
  8
0
 10
79.55
 20
15.5
 11
65.55
 21
15.5
  0
LINE
  8
0
 10
258.1
 20
6.5
 11
258.1
 21
20.5
  0
LINE
  8
0
 10
258.1
 20
20.5
 11
272.1
 21
20.5
  0
LINE
  8
0
 10
272.1
 20
20.5
 11
272.1
 21
6.5
  0
LINE
  8
0
 10
272.1
 20
6.5
 11
258.1
 21
6.5
  0
LINE
  8
0
 10
276.1
 20
6.5
 11
276.1
 21
20.5
  0
LINE
  8
0
 10
276.1
 20
20.5
 11
290.1
 21
20.5
  0
LINE
  8
0
 10
290.1
 20
20.5
 11
290.1
 21
6.5
  0
LINE
  8
0
 10
290.1
 20
6.5
 11
276.1
 21
6.5
  0
LINE
  8
0
 10
123.55
 20
6.5
 11
123.55
 21
20.5
  0
LINE
  8
0
 10
123.55
 20
20.5
 11
137.55
 21
20.5
  0
LINE
  8
0
 10
137.55
 20
20.5
 11
137.55
 21
6.5
  0
LINE
  8
0
 10
137.55
 20
6.5
 11
123.55
 21
6.5
  0
LINE
  8
0
 10
39.1954
 20
1.76538
 11
39.0047
 21
1.81117
  0
LINE
  8
0
 10
39.0047
 20
1.81117
 11
38.8235
 21
1.88623
  0
LINE
  8
0
 10
38.8235
 20
1.88623
 11
38.6563
 21
1.98872
  0
LINE
  8
0
 10
38.6563
 20
1.98872
 11
38.5071
 21
2.1161
  0
LINE
  8
0
 10
38.5071
 20
2.1161
 11
38.3797
 21
2.26526
  0
LINE
  8
0
 10
38.3797
 20
2.26526
 11
38.2772
 21
2.43251
  0
LINE
  8
0
 10
38.2772
 20
2.43251
 11
38.2022
 21
2.61372
  0
LINE
  8
0
 10
38.2022
 20
2.61372
 11
38.1564
 21
2.80444
  0
LINE
  8
0
 10
38.1564
 20
2.80444
 11
38.141
 21
3
  0
LINE
  8
0
 10
38.141
 20
3
 11
38.1564
 21
3.19554
  0
LINE
  8
0
 10
38.1564
 20
3.19554
 11
38.2022
 21
3.38626
  0
LINE
  8
0
 10
38.2022
 20
3.38626
 11
38.2772
 21
3.56747
  0
LINE
  8
0
 10
38.2772
 20
3.56747
 11
38.3797
 21
3.73473
  0
LINE
  8
0
 10
38.3797
 20
3.73473
 11
38.5071
 21
3.88388
  0
LINE
  8
0
 10
38.5071
 20
3.88388
 11
38.6563
 21
4.01126
  0
LINE
  8
0
 10
38.6563
 20
4.01126
 11
38.8235
 21
4.11375
  0
LINE
  8
0
 10
38.8235
 20
4.11375
 11
39.0047
 21
4.18881
  0
LINE
  8
0
 10
39.0047
 20
4.18881
 11
39.1954
 21
4.2346
  0
LINE
  8
0
 10
39.1954
 20
4.2346
 11
39.391
 21
4.25
  0
LINE
  8
0
 10
39.391
 20
4.25
 11
39.5865
 21
4.2346
  0
LINE
  8
0
 10
39.5865
 20
4.2346
 11
39.7773
 21
4.18881
  0
LINE
  8
0
 10
39.7773
 20
4.18881
 11
39.9585
 21
4.11375
  0
LINE
  8
0
 10
39.9585
 20
4.11375
 11
40.1257
 21
4.01126
  0
LINE
  8
0
 10
40.1257
 20
4.01126
 11
40.2749
 21
3.88388
  0
LINE
  8
0
 10
40.2749
 20
3.88388
 11
40.4023
 21
3.73473
  0
LINE
  8
0
 10
40.4023
 20
3.73473
 11
40.5047
 21
3.56747
  0
LINE
  8
0
 10
40.5047
 20
3.56747
 11
40.5798
 21
3.38626
  0
LINE
  8
0
 10
40.5798
 20
3.38626
 11
40.6256
 21
3.19554
  0
LINE
  8
0
 10
40.6256
 20
3.19554
 11
40.641
 21
3
  0
LINE
  8
0
 10
40.641
 20
3
 11
40.6256
 21
2.80444
  0
LINE
  8
0
 10
40.6256
 20
2.80444
 11
40.5798
 21
2.61372
  0
LINE
  8
0
 10
40.5798
 20
2.61372
 11
40.5047
 21
2.43251
  0
LINE
  8
0
 10
40.5047
 20
2.43251
 11
40.4023
 21
2.26526
  0
LINE
  8
0
 10
40.4023
 20
2.26526
 11
40.2749
 21
2.1161
  0
LINE
  8
0
 10
40.2749
 20
2.1161
 11
40.1257
 21
1.98872
  0
LINE
  8
0
 10
40.1257
 20
1.98872
 11
39.9585
 21
1.88623
  0
LINE
  8
0
 10
39.9585
 20
1.88623
 11
39.7773
 21
1.81117
  0
LINE
  8
0
 10
39.7773
 20
1.81117
 11
39.5865
 21
1.76538
  0
LINE
  8
0
 10
39.5865
 20
1.76538
 11
39.391
 21
1.75
  0
LINE
  8
0
 10
39.391
 20
1.75
 11
39.1954
 21
1.76538
  0
LINE
  8
0
 10
168.629
 20
1.76538
 11
168.439
 21
1.81117
  0
LINE
  8
0
 10
168.439
 20
1.81117
 11
168.258
 21
1.88623
  0
LINE
  8
0
 10
168.258
 20
1.88623
 11
168.09
 21
1.98872
  0
LINE
  8
0
 10
168.09
 20
1.98872
 11
167.941
 21
2.1161
  0
LINE
  8
0
 10
167.941
 20
2.1161
 11
167.814
 21
2.26526
  0
LINE
  8
0
 10
167.814
 20
2.26526
 11
167.711
 21
2.43251
  0
LINE
  8
0
 10
167.711
 20
2.43251
 11
167.636
 21
2.61372
  0
LINE
  8
0
 10
167.636
 20
2.61372
 11
167.59
 21
2.80444
  0
LINE
  8
0
 10
167.59
 20
2.80444
 11
167.575
 21
3
  0
LINE
  8
0
 10
167.575
 20
3
 11
167.59
 21
3.19554
  0
LINE
  8
0
 10
167.59
 20
3.19554
 11
167.636
 21
3.38626
  0
LINE
  8
0
 10
167.636
 20
3.38626
 11
167.711
 21
3.56747
  0
LINE
  8
0
 10
167.711
 20
3.56747
 11
167.814
 21
3.73473
  0
LINE
  8
0
 10
167.814
 20
3.73473
 11
167.941
 21
3.88388
  0
LINE
  8
0
 10
167.941
 20
3.88388
 11
168.09
 21
4.01126
  0
LINE
  8
0
 10
168.09
 20
4.01126
 11
168.258
 21
4.11375
  0
LINE
  8
0
 10
168.258
 20
4.11375
 11
168.439
 21
4.18881
  0
LINE
  8
0
 10
168.439
 20
4.18881
 11
168.629
 21
4.2346
  0
LINE
  8
0
 10
168.629
 20
4.2346
 11
168.825
 21
4.25
  0
LINE
  8
0
 10
168.825
 20
4.25
 11
169.021
 21
4.2346
  0
LINE
  8
0
 10
169.021
 20
4.2346
 11
169.211
 21
4.18881
  0
LINE
  8
0
 10
169.211
 20
4.18881
 11
169.392
 21
4.11375
  0
LINE
  8
0
 10
169.392
 20
4.11375
 11
169.56
 21
4.01126
  0
LINE
  8
0
 10
169.56
 20
4.01126
 11
169.709
 21
3.88388
  0
LINE
  8
0
 10
169.709
 20
3.88388
 11
169.836
 21
3.73473
  0
LINE
  8
0
 10
169.836
 20
3.73473
 11
169.939
 21
3.56747
  0
LINE
  8
0
 10
169.939
 20
3.56747
 11
170.014
 21
3.38626
  0
LINE
  8
0
 10
170.014
 20
3.38626
 11
170.06
 21
3.19554
  0
LINE
  8
0
 10
170.06
 20
3.19554
 11
170.075
 21
3
  0
LINE
  8
0
 10
170.075
 20
3
 11
170.06
 21
2.80444
  0
LINE
  8
0
 10
170.06
 20
2.80444
 11
170.014
 21
2.61372
  0
LINE
  8
0
 10
170.014
 20
2.61372
 11
169.939
 21
2.43251
  0
LINE
  8
0
 10
169.939
 20
2.43251
 11
169.836
 21
2.26526
  0
LINE
  8
0
 10
169.836
 20
2.26526
 11
169.709
 21
2.1161
  0
LINE
  8
0
 10
169.709
 20
2.1161
 11
169.56
 21
1.98872
  0
LINE
  8
0
 10
169.56
 20
1.98872
 11
169.392
 21
1.88623
  0
LINE
  8
0
 10
169.392
 20
1.88623
 11
169.211
 21
1.81117
  0
LINE
  8
0
 10
169.211
 20
1.81117
 11
169.021
 21
1.76538
  0
LINE
  8
0
 10
169.021
 20
1.76538
 11
168.825
 21
1.75
  0
LINE
  8
0
 10
168.825
 20
1.75
 11
168.629
 21
1.76538
  0
LINE
  8
0
 10
309.404
 20
1.76538
 11
309.214
 21
1.81117
  0
LINE
  8
0
 10
309.214
 20
1.81117
 11
309.033
 21
1.88623
  0
LINE
  8
0
 10
309.033
 20
1.88623
 11
308.865
 21
1.98872
  0
LINE
  8
0
 10
308.865
 20
1.98872
 11
308.716
 21
2.1161
  0
LINE
  8
0
 10
308.716
 20
2.1161
 11
308.589
 21
2.26526
  0
LINE
  8
0
 10
308.589
 20
2.26526
 11
308.486
 21
2.43251
  0
LINE
  8
0
 10
308.486
 20
2.43251
 11
308.411
 21
2.61372
  0
LINE
  8
0
 10
308.411
 20
2.61372
 11
308.365
 21
2.80444
  0
LINE
  8
0
 10
308.365
 20
2.80444
 11
308.35
 21
3
  0
LINE
  8
0
 10
308.35
 20
3
 11
308.365
 21
3.19554
  0
LINE
  8
0
 10
308.365
 20
3.19554
 11
308.411
 21
3.38626
  0
LINE
  8
0
 10
308.411
 20
3.38626
 11
308.486
 21
3.56747
  0
LINE
  8
0
 10
308.486
 20
3.56747
 11
308.589
 21
3.73473
  0
LINE
  8
0
 10
308.589
 20
3.73473
 11
308.716
 21
3.88388
  0
LINE
  8
0
 10
308.716
 20
3.88388
 11
308.865
 21
4.01126
  0
LINE
  8
0
 10
308.865
 20
4.01126
 11
309.033
 21
4.11375
  0
LINE
  8
0
 10
309.033
 20
4.11375
 11
309.214
 21
4.18881
  0
LINE
  8
0
 10
309.214
 20
4.18881
 11
309.404
 21
4.2346
  0
LINE
  8
0
 10
309.404
 20
4.2346
 11
309.6
 21
4.25
  0
LINE
  8
0
 10
309.6
 20
4.25
 11
309.796
 21
4.2346
  0
LINE
  8
0
 10
309.796
 20
4.2346
 11
309.986
 21
4.18881
  0
LINE
  8
0
 10
309.986
 20
4.18881
 11
310.167
 21
4.11375
  0
LINE
  8
0
 10
310.167
 20
4.11375
 11
310.335
 21
4.01126
  0
LINE
  8
0
 10
310.335
 20
4.01126
 11
310.484
 21
3.88388
  0
LINE
  8
0
 10
310.484
 20
3.88388
 11
310.611
 21
3.73473
  0
LINE
  8
0
 10
310.611
 20
3.73473
 11
310.714
 21
3.56747
  0
LINE
  8
0
 10
310.714
 20
3.56747
 11
310.789
 21
3.38626
  0
LINE
  8
0
 10
310.789
 20
3.38626
 11
310.835
 21
3.19554
  0
LINE
  8
0
 10
310.835
 20
3.19554
 11
310.85
 21
3
  0
LINE
  8
0
 10
310.85
 20
3
 11
310.835
 21
2.80444
  0
LINE
  8
0
 10
310.835
 20
2.80444
 11
310.789
 21
2.61372
  0
LINE
  8
0
 10
310.789
 20
2.61372
 11
310.714
 21
2.43251
  0
LINE
  8
0
 10
310.714
 20
2.43251
 11
310.611
 21
2.26526
  0
LINE
  8
0
 10
310.611
 20
2.26526
 11
310.484
 21
2.1161
  0
LINE
  8
0
 10
310.484
 20
2.1161
 11
310.335
 21
1.98872
  0
LINE
  8
0
 10
310.335
 20
1.98872
 11
310.167
 21
1.88623
  0
LINE
  8
0
 10
310.167
 20
1.88623
 11
309.986
 21
1.81117
  0
LINE
  8
0
 10
309.986
 20
1.81117
 11
309.796
 21
1.76538
  0
LINE
  8
0
 10
309.796
 20
1.76538
 11
309.6
 21
1.75
  0
LINE
  8
0
 10
309.6
 20
1.75
 11
309.404
 21
1.76538
  0
ENDSEC
  0
SECTION
  2
OBJECTS
  0
DICTIONARY
  0
ENDSEC
  0
EOF
