  0
SECTION
  2
BLOCKS
  0
ENDSEC
  0
SECTION
  2
ENTITIES
  0
LINE
  8
0
 10
239.382
 20
51.5
 11
239.382
 21
5.5
  0
LINE
  8
0
 10
239.382
 20
5.5
 11
257.382
 21
5.5
  0
LINE
  8
0
 10
257.382
 20
5.5
 11
257.382
 21
51.5
  0
LINE
  8
0
 10
257.382
 20
51.5
 11
239.382
 21
51.5
  0
LINE
  8
0
 10
249.567
 20
6.81229
 11
249.523
 21
6.62918
  0
LINE
  8
0
 10
249.523
 20
6.62918
 11
249.451
 21
6.45522
  0
LINE
  8
0
 10
249.451
 20
6.45522
 11
249.353
 21
6.29466
  0
LINE
  8
0
 10
249.353
 20
6.29466
 11
249.231
 21
6.15147
  0
LINE
  8
0
 10
249.231
 20
6.15147
 11
249.087
 21
6.02919
  0
LINE
  8
0
 10
249.087
 20
6.02919
 11
248.927
 21
5.9308
  0
LINE
  8
0
 10
248.927
 20
5.9308
 11
248.753
 21
5.85873
  0
LINE
  8
0
 10
248.753
 20
5.85873
 11
248.57
 21
5.81479
  0
LINE
  8
0
 10
248.57
 20
5.81479
 11
248.382
 21
5.8
  0
LINE
  8
0
 10
248.382
 20
5.8
 11
248.194
 21
5.81479
  0
LINE
  8
0
 10
248.194
 20
5.81479
 11
248.011
 21
5.85873
  0
LINE
  8
0
 10
248.011
 20
5.85873
 11
247.837
 21
5.9308
  0
LINE
  8
0
 10
247.837
 20
5.9308
 11
247.677
 21
6.02919
  0
LINE
  8
0
 10
247.677
 20
6.02919
 11
247.533
 21
6.15147
  0
LINE
  8
0
 10
247.533
 20
6.15147
 11
247.411
 21
6.29466
  0
LINE
  8
0
 10
247.411
 20
6.29466
 11
247.313
 21
6.45522
  0
LINE
  8
0
 10
247.313
 20
6.45522
 11
247.241
 21
6.62918
  0
LINE
  8
0
 10
247.241
 20
6.62918
 11
247.197
 21
6.81229
  0
LINE
  8
0
 10
247.197
 20
6.81229
 11
247.182
 21
7
  0
LINE
  8
0
 10
247.182
 20
7
 11
247.197
 21
7.18773
  0
LINE
  8
0
 10
247.197
 20
7.18773
 11
247.241
 21
7.37083
  0
LINE
  8
0
 10
247.241
 20
7.37083
 11
247.313
 21
7.5448
  0
LINE
  8
0
 10
247.313
 20
7.5448
 11
247.411
 21
7.70535
  0
LINE
  8
0
 10
247.411
 20
7.70535
 11
247.533
 21
7.84854
  0
LINE
  8
0
 10
247.533
 20
7.84854
 11
247.677
 21
7.97083
  0
LINE
  8
0
 10
247.677
 20
7.97083
 11
247.837
 21
8.06921
  0
LINE
  8
0
 10
247.837
 20
8.06921
 11
248.011
 21
8.14128
  0
LINE
  8
0
 10
248.011
 20
8.14128
 11
248.194
 21
8.18523
  0
LINE
  8
0
 10
248.194
 20
8.18523
 11
248.382
 21
8.20001
  0
LINE
  8
0
 10
248.382
 20
8.20001
 11
248.57
 21
8.18523
  0
LINE
  8
0
 10
248.57
 20
8.18523
 11
248.753
 21
8.14128
  0
LINE
  8
0
 10
248.753
 20
8.14128
 11
248.927
 21
8.06921
  0
LINE
  8
0
 10
248.927
 20
8.06921
 11
249.087
 21
7.97083
  0
LINE
  8
0
 10
249.087
 20
7.97083
 11
249.231
 21
7.84854
  0
LINE
  8
0
 10
249.231
 20
7.84854
 11
249.353
 21
7.70535
  0
LINE
  8
0
 10
249.353
 20
7.70535
 11
249.451
 21
7.5448
  0
LINE
  8
0
 10
249.451
 20
7.5448
 11
249.523
 21
7.37083
  0
LINE
  8
0
 10
249.523
 20
7.37083
 11
249.567
 21
7.18773
  0
LINE
  8
0
 10
249.567
 20
7.18773
 11
249.582
 21
7
  0
LINE
  8
0
 10
249.582
 20
7
 11
249.567
 21
6.81229
  0
LINE
  8
0
 10
249.567
 20
49.8123
 11
249.523
 21
49.6292
  0
LINE
  8
0
 10
249.523
 20
49.6292
 11
249.451
 21
49.4552
  0
LINE
  8
0
 10
249.451
 20
49.4552
 11
249.353
 21
49.2946
  0
LINE
  8
0
 10
249.353
 20
49.2946
 11
249.231
 21
49.1515
  0
LINE
  8
0
 10
249.231
 20
49.1515
 11
249.087
 21
49.0292
  0
LINE
  8
0
 10
249.087
 20
49.0292
 11
248.927
 21
48.9308
  0
LINE
  8
0
 10
248.927
 20
48.9308
 11
248.753
 21
48.8587
  0
LINE
  8
0
 10
248.753
 20
48.8587
 11
248.57
 21
48.8148
  0
LINE
  8
0
 10
248.57
 20
48.8148
 11
248.382
 21
48.8
  0
LINE
  8
0
 10
248.382
 20
48.8
 11
248.194
 21
48.8148
  0
LINE
  8
0
 10
248.194
 20
48.8148
 11
248.011
 21
48.8587
  0
LINE
  8
0
 10
248.011
 20
48.8587
 11
247.837
 21
48.9308
  0
LINE
  8
0
 10
247.837
 20
48.9308
 11
247.677
 21
49.0292
  0
LINE
  8
0
 10
247.677
 20
49.0292
 11
247.533
 21
49.1515
  0
LINE
  8
0
 10
247.533
 20
49.1515
 11
247.411
 21
49.2946
  0
LINE
  8
0
 10
247.411
 20
49.2946
 11
247.313
 21
49.4552
  0
LINE
  8
0
 10
247.313
 20
49.4552
 11
247.241
 21
49.6292
  0
LINE
  8
0
 10
247.241
 20
49.6292
 11
247.197
 21
49.8123
  0
LINE
  8
0
 10
247.197
 20
49.8123
 11
247.182
 21
50
  0
LINE
  8
0
 10
247.182
 20
50
 11
247.197
 21
50.1877
  0
LINE
  8
0
 10
247.197
 20
50.1877
 11
247.241
 21
50.3708
  0
LINE
  8
0
 10
247.241
 20
50.3708
 11
247.313
 21
50.5448
  0
LINE
  8
0
 10
247.313
 20
50.5448
 11
247.411
 21
50.7053
  0
LINE
  8
0
 10
247.411
 20
50.7053
 11
247.533
 21
50.8485
  0
LINE
  8
0
 10
247.533
 20
50.8485
 11
247.677
 21
50.9708
  0
LINE
  8
0
 10
247.677
 20
50.9708
 11
247.837
 21
51.0692
  0
LINE
  8
0
 10
247.837
 20
51.0692
 11
248.011
 21
51.1413
  0
LINE
  8
0
 10
248.011
 20
51.1413
 11
248.194
 21
51.1852
  0
LINE
  8
0
 10
248.194
 20
51.1852
 11
248.382
 21
51.2
  0
LINE
  8
0
 10
248.382
 20
51.2
 11
248.57
 21
51.1852
  0
LINE
  8
0
 10
248.57
 20
51.1852
 11
248.753
 21
51.1413
  0
LINE
  8
0
 10
248.753
 20
51.1413
 11
248.927
 21
51.0692
  0
LINE
  8
0
 10
248.927
 20
51.0692
 11
249.087
 21
50.9708
  0
LINE
  8
0
 10
249.087
 20
50.9708
 11
249.231
 21
50.8485
  0
LINE
  8
0
 10
249.231
 20
50.8485
 11
249.353
 21
50.7053
  0
LINE
  8
0
 10
249.353
 20
50.7053
 11
249.451
 21
50.5448
  0
LINE
  8
0
 10
249.451
 20
50.5448
 11
249.523
 21
50.3708
  0
LINE
  8
0
 10
249.523
 20
50.3708
 11
249.567
 21
50.1877
  0
LINE
  8
0
 10
249.567
 20
50.1877
 11
249.582
 21
50
  0
LINE
  8
0
 10
249.582
 20
50
 11
249.567
 21
49.8123
  0
ENDSEC
  0
SECTION
  2
OBJECTS
  0
DICTIONARY
  0
ENDSEC
  0
EOF
