  0
SECTION
  2
BLOCKS
  0
ENDSEC
  0
SECTION
  2
ENTITIES
  0
LINE
  8
0
 10
321.432
 20
51.5
 11
321.432
 21
5.5
  0
LINE
  8
0
 10
321.432
 20
5.5
 11
339.432
 21
5.5
  0
LINE
  8
0
 10
339.432
 20
5.5
 11
339.432
 21
51.5
  0
LINE
  8
0
 10
339.432
 20
51.5
 11
321.432
 21
51.5
  0
LINE
  8
0
 10
331.617
 20
6.81229
 11
331.573
 21
6.62918
  0
LINE
  8
0
 10
331.573
 20
6.62918
 11
331.501
 21
6.45522
  0
LINE
  8
0
 10
331.501
 20
6.45522
 11
331.403
 21
6.29466
  0
LINE
  8
0
 10
331.403
 20
6.29466
 11
331.281
 21
6.15147
  0
LINE
  8
0
 10
331.281
 20
6.15147
 11
331.137
 21
6.02919
  0
LINE
  8
0
 10
331.137
 20
6.02919
 11
330.977
 21
5.9308
  0
LINE
  8
0
 10
330.977
 20
5.9308
 11
330.803
 21
5.85873
  0
LINE
  8
0
 10
330.803
 20
5.85873
 11
330.62
 21
5.81479
  0
LINE
  8
0
 10
330.62
 20
5.81479
 11
330.432
 21
5.8
  0
LINE
  8
0
 10
330.432
 20
5.8
 11
330.244
 21
5.81479
  0
LINE
  8
0
 10
330.244
 20
5.81479
 11
330.061
 21
5.85873
  0
LINE
  8
0
 10
330.061
 20
5.85873
 11
329.887
 21
5.9308
  0
LINE
  8
0
 10
329.887
 20
5.9308
 11
329.727
 21
6.02919
  0
LINE
  8
0
 10
329.727
 20
6.02919
 11
329.583
 21
6.15147
  0
LINE
  8
0
 10
329.583
 20
6.15147
 11
329.461
 21
6.29466
  0
LINE
  8
0
 10
329.461
 20
6.29466
 11
329.363
 21
6.45522
  0
LINE
  8
0
 10
329.363
 20
6.45522
 11
329.291
 21
6.62918
  0
LINE
  8
0
 10
329.291
 20
6.62918
 11
329.247
 21
6.81229
  0
LINE
  8
0
 10
329.247
 20
6.81229
 11
329.232
 21
7
  0
LINE
  8
0
 10
329.232
 20
7
 11
329.247
 21
7.18773
  0
LINE
  8
0
 10
329.247
 20
7.18773
 11
329.291
 21
7.37083
  0
LINE
  8
0
 10
329.291
 20
7.37083
 11
329.363
 21
7.5448
  0
LINE
  8
0
 10
329.363
 20
7.5448
 11
329.461
 21
7.70535
  0
LINE
  8
0
 10
329.461
 20
7.70535
 11
329.583
 21
7.84854
  0
LINE
  8
0
 10
329.583
 20
7.84854
 11
329.727
 21
7.97083
  0
LINE
  8
0
 10
329.727
 20
7.97083
 11
329.887
 21
8.06921
  0
LINE
  8
0
 10
329.887
 20
8.06921
 11
330.061
 21
8.14128
  0
LINE
  8
0
 10
330.061
 20
8.14128
 11
330.244
 21
8.18523
  0
LINE
  8
0
 10
330.244
 20
8.18523
 11
330.432
 21
8.20001
  0
LINE
  8
0
 10
330.432
 20
8.20001
 11
330.62
 21
8.18523
  0
LINE
  8
0
 10
330.62
 20
8.18523
 11
330.803
 21
8.14128
  0
LINE
  8
0
 10
330.803
 20
8.14128
 11
330.977
 21
8.06921
  0
LINE
  8
0
 10
330.977
 20
8.06921
 11
331.137
 21
7.97083
  0
LINE
  8
0
 10
331.137
 20
7.97083
 11
331.281
 21
7.84854
  0
LINE
  8
0
 10
331.281
 20
7.84854
 11
331.403
 21
7.70535
  0
LINE
  8
0
 10
331.403
 20
7.70535
 11
331.501
 21
7.5448
  0
LINE
  8
0
 10
331.501
 20
7.5448
 11
331.573
 21
7.37083
  0
LINE
  8
0
 10
331.573
 20
7.37083
 11
331.617
 21
7.18773
  0
LINE
  8
0
 10
331.617
 20
7.18773
 11
331.632
 21
7
  0
LINE
  8
0
 10
331.632
 20
7
 11
331.617
 21
6.81229
  0
LINE
  8
0
 10
331.617
 20
49.8123
 11
331.573
 21
49.6292
  0
LINE
  8
0
 10
331.573
 20
49.6292
 11
331.501
 21
49.4552
  0
LINE
  8
0
 10
331.501
 20
49.4552
 11
331.403
 21
49.2946
  0
LINE
  8
0
 10
331.403
 20
49.2946
 11
331.281
 21
49.1515
  0
LINE
  8
0
 10
331.281
 20
49.1515
 11
331.137
 21
49.0292
  0
LINE
  8
0
 10
331.137
 20
49.0292
 11
330.977
 21
48.9308
  0
LINE
  8
0
 10
330.977
 20
48.9308
 11
330.803
 21
48.8587
  0
LINE
  8
0
 10
330.803
 20
48.8587
 11
330.62
 21
48.8148
  0
LINE
  8
0
 10
330.62
 20
48.8148
 11
330.432
 21
48.8
  0
LINE
  8
0
 10
330.432
 20
48.8
 11
330.244
 21
48.8148
  0
LINE
  8
0
 10
330.244
 20
48.8148
 11
330.061
 21
48.8587
  0
LINE
  8
0
 10
330.061
 20
48.8587
 11
329.887
 21
48.9308
  0
LINE
  8
0
 10
329.887
 20
48.9308
 11
329.727
 21
49.0292
  0
LINE
  8
0
 10
329.727
 20
49.0292
 11
329.583
 21
49.1515
  0
LINE
  8
0
 10
329.583
 20
49.1515
 11
329.461
 21
49.2946
  0
LINE
  8
0
 10
329.461
 20
49.2946
 11
329.363
 21
49.4552
  0
LINE
  8
0
 10
329.363
 20
49.4552
 11
329.291
 21
49.6292
  0
LINE
  8
0
 10
329.291
 20
49.6292
 11
329.247
 21
49.8123
  0
LINE
  8
0
 10
329.247
 20
49.8123
 11
329.232
 21
50
  0
LINE
  8
0
 10
329.232
 20
50
 11
329.247
 21
50.1877
  0
LINE
  8
0
 10
329.247
 20
50.1877
 11
329.291
 21
50.3708
  0
LINE
  8
0
 10
329.291
 20
50.3708
 11
329.363
 21
50.5448
  0
LINE
  8
0
 10
329.363
 20
50.5448
 11
329.461
 21
50.7053
  0
LINE
  8
0
 10
329.461
 20
50.7053
 11
329.583
 21
50.8485
  0
LINE
  8
0
 10
329.583
 20
50.8485
 11
329.727
 21
50.9708
  0
LINE
  8
0
 10
329.727
 20
50.9708
 11
329.887
 21
51.0692
  0
LINE
  8
0
 10
329.887
 20
51.0692
 11
330.061
 21
51.1413
  0
LINE
  8
0
 10
330.061
 20
51.1413
 11
330.244
 21
51.1852
  0
LINE
  8
0
 10
330.244
 20
51.1852
 11
330.432
 21
51.2
  0
LINE
  8
0
 10
330.432
 20
51.2
 11
330.62
 21
51.1852
  0
LINE
  8
0
 10
330.62
 20
51.1852
 11
330.803
 21
51.1413
  0
LINE
  8
0
 10
330.803
 20
51.1413
 11
330.977
 21
51.0692
  0
LINE
  8
0
 10
330.977
 20
51.0692
 11
331.137
 21
50.9708
  0
LINE
  8
0
 10
331.137
 20
50.9708
 11
331.281
 21
50.8485
  0
LINE
  8
0
 10
331.281
 20
50.8485
 11
331.403
 21
50.7053
  0
LINE
  8
0
 10
331.403
 20
50.7053
 11
331.501
 21
50.5448
  0
LINE
  8
0
 10
331.501
 20
50.5448
 11
331.573
 21
50.3708
  0
LINE
  8
0
 10
331.573
 20
50.3708
 11
331.617
 21
50.1877
  0
LINE
  8
0
 10
331.617
 20
50.1877
 11
331.632
 21
50
  0
LINE
  8
0
 10
331.632
 20
50
 11
331.617
 21
49.8123
  0
ENDSEC
  0
SECTION
  2
OBJECTS
  0
DICTIONARY
  0
ENDSEC
  0
EOF
