  0
SECTION
  2
BLOCKS
  0
ENDSEC
  0
SECTION
  2
ENTITIES
  0
LINE
  8
0
 10
303.682
 20
51.5
 11
303.682
 21
5.5
  0
LINE
  8
0
 10
303.682
 20
5.5
 11
321.682
 21
5.5
  0
LINE
  8
0
 10
321.682
 20
5.5
 11
321.682
 21
51.5
  0
LINE
  8
0
 10
321.682
 20
51.5
 11
303.682
 21
51.5
  0
LINE
  8
0
 10
313.867
 20
6.81229
 11
313.823
 21
6.62918
  0
LINE
  8
0
 10
313.823
 20
6.62918
 11
313.751
 21
6.45522
  0
LINE
  8
0
 10
313.751
 20
6.45522
 11
313.653
 21
6.29466
  0
LINE
  8
0
 10
313.653
 20
6.29466
 11
313.531
 21
6.15147
  0
LINE
  8
0
 10
313.531
 20
6.15147
 11
313.387
 21
6.02919
  0
LINE
  8
0
 10
313.387
 20
6.02919
 11
313.227
 21
5.9308
  0
LINE
  8
0
 10
313.227
 20
5.9308
 11
313.053
 21
5.85873
  0
LINE
  8
0
 10
313.053
 20
5.85873
 11
312.87
 21
5.81479
  0
LINE
  8
0
 10
312.87
 20
5.81479
 11
312.682
 21
5.8
  0
LINE
  8
0
 10
312.682
 20
5.8
 11
312.494
 21
5.81479
  0
LINE
  8
0
 10
312.494
 20
5.81479
 11
312.311
 21
5.85873
  0
LINE
  8
0
 10
312.311
 20
5.85873
 11
312.137
 21
5.9308
  0
LINE
  8
0
 10
312.137
 20
5.9308
 11
311.977
 21
6.02919
  0
LINE
  8
0
 10
311.977
 20
6.02919
 11
311.833
 21
6.15147
  0
LINE
  8
0
 10
311.833
 20
6.15147
 11
311.711
 21
6.29466
  0
LINE
  8
0
 10
311.711
 20
6.29466
 11
311.613
 21
6.45522
  0
LINE
  8
0
 10
311.613
 20
6.45522
 11
311.541
 21
6.62918
  0
LINE
  8
0
 10
311.541
 20
6.62918
 11
311.497
 21
6.81229
  0
LINE
  8
0
 10
311.497
 20
6.81229
 11
311.482
 21
7
  0
LINE
  8
0
 10
311.482
 20
7
 11
311.497
 21
7.18773
  0
LINE
  8
0
 10
311.497
 20
7.18773
 11
311.541
 21
7.37083
  0
LINE
  8
0
 10
311.541
 20
7.37083
 11
311.613
 21
7.5448
  0
LINE
  8
0
 10
311.613
 20
7.5448
 11
311.711
 21
7.70535
  0
LINE
  8
0
 10
311.711
 20
7.70535
 11
311.833
 21
7.84854
  0
LINE
  8
0
 10
311.833
 20
7.84854
 11
311.977
 21
7.97083
  0
LINE
  8
0
 10
311.977
 20
7.97083
 11
312.137
 21
8.06921
  0
LINE
  8
0
 10
312.137
 20
8.06921
 11
312.311
 21
8.14128
  0
LINE
  8
0
 10
312.311
 20
8.14128
 11
312.494
 21
8.18523
  0
LINE
  8
0
 10
312.494
 20
8.18523
 11
312.682
 21
8.20001
  0
LINE
  8
0
 10
312.682
 20
8.20001
 11
312.87
 21
8.18523
  0
LINE
  8
0
 10
312.87
 20
8.18523
 11
313.053
 21
8.14128
  0
LINE
  8
0
 10
313.053
 20
8.14128
 11
313.227
 21
8.06921
  0
LINE
  8
0
 10
313.227
 20
8.06921
 11
313.387
 21
7.97083
  0
LINE
  8
0
 10
313.387
 20
7.97083
 11
313.531
 21
7.84854
  0
LINE
  8
0
 10
313.531
 20
7.84854
 11
313.653
 21
7.70535
  0
LINE
  8
0
 10
313.653
 20
7.70535
 11
313.751
 21
7.5448
  0
LINE
  8
0
 10
313.751
 20
7.5448
 11
313.823
 21
7.37083
  0
LINE
  8
0
 10
313.823
 20
7.37083
 11
313.867
 21
7.18773
  0
LINE
  8
0
 10
313.867
 20
7.18773
 11
313.882
 21
7
  0
LINE
  8
0
 10
313.882
 20
7
 11
313.867
 21
6.81229
  0
LINE
  8
0
 10
313.867
 20
49.8123
 11
313.823
 21
49.6292
  0
LINE
  8
0
 10
313.823
 20
49.6292
 11
313.751
 21
49.4552
  0
LINE
  8
0
 10
313.751
 20
49.4552
 11
313.653
 21
49.2946
  0
LINE
  8
0
 10
313.653
 20
49.2946
 11
313.531
 21
49.1515
  0
LINE
  8
0
 10
313.531
 20
49.1515
 11
313.387
 21
49.0292
  0
LINE
  8
0
 10
313.387
 20
49.0292
 11
313.227
 21
48.9308
  0
LINE
  8
0
 10
313.227
 20
48.9308
 11
313.053
 21
48.8587
  0
LINE
  8
0
 10
313.053
 20
48.8587
 11
312.87
 21
48.8148
  0
LINE
  8
0
 10
312.87
 20
48.8148
 11
312.682
 21
48.8
  0
LINE
  8
0
 10
312.682
 20
48.8
 11
312.494
 21
48.8148
  0
LINE
  8
0
 10
312.494
 20
48.8148
 11
312.311
 21
48.8587
  0
LINE
  8
0
 10
312.311
 20
48.8587
 11
312.137
 21
48.9308
  0
LINE
  8
0
 10
312.137
 20
48.9308
 11
311.977
 21
49.0292
  0
LINE
  8
0
 10
311.977
 20
49.0292
 11
311.833
 21
49.1515
  0
LINE
  8
0
 10
311.833
 20
49.1515
 11
311.711
 21
49.2946
  0
LINE
  8
0
 10
311.711
 20
49.2946
 11
311.613
 21
49.4552
  0
LINE
  8
0
 10
311.613
 20
49.4552
 11
311.541
 21
49.6292
  0
LINE
  8
0
 10
311.541
 20
49.6292
 11
311.497
 21
49.8123
  0
LINE
  8
0
 10
311.497
 20
49.8123
 11
311.482
 21
50
  0
LINE
  8
0
 10
311.482
 20
50
 11
311.497
 21
50.1877
  0
LINE
  8
0
 10
311.497
 20
50.1877
 11
311.541
 21
50.3708
  0
LINE
  8
0
 10
311.541
 20
50.3708
 11
311.613
 21
50.5448
  0
LINE
  8
0
 10
311.613
 20
50.5448
 11
311.711
 21
50.7053
  0
LINE
  8
0
 10
311.711
 20
50.7053
 11
311.833
 21
50.8485
  0
LINE
  8
0
 10
311.833
 20
50.8485
 11
311.977
 21
50.9708
  0
LINE
  8
0
 10
311.977
 20
50.9708
 11
312.137
 21
51.0692
  0
LINE
  8
0
 10
312.137
 20
51.0692
 11
312.311
 21
51.1413
  0
LINE
  8
0
 10
312.311
 20
51.1413
 11
312.494
 21
51.1852
  0
LINE
  8
0
 10
312.494
 20
51.1852
 11
312.682
 21
51.2
  0
LINE
  8
0
 10
312.682
 20
51.2
 11
312.87
 21
51.1852
  0
LINE
  8
0
 10
312.87
 20
51.1852
 11
313.053
 21
51.1413
  0
LINE
  8
0
 10
313.053
 20
51.1413
 11
313.227
 21
51.0692
  0
LINE
  8
0
 10
313.227
 20
51.0692
 11
313.387
 21
50.9708
  0
LINE
  8
0
 10
313.387
 20
50.9708
 11
313.531
 21
50.8485
  0
LINE
  8
0
 10
313.531
 20
50.8485
 11
313.653
 21
50.7053
  0
LINE
  8
0
 10
313.653
 20
50.7053
 11
313.751
 21
50.5448
  0
LINE
  8
0
 10
313.751
 20
50.5448
 11
313.823
 21
50.3708
  0
LINE
  8
0
 10
313.823
 20
50.3708
 11
313.867
 21
50.1877
  0
LINE
  8
0
 10
313.867
 20
50.1877
 11
313.882
 21
50
  0
LINE
  8
0
 10
313.882
 20
50
 11
313.867
 21
49.8123
  0
ENDSEC
  0
SECTION
  2
OBJECTS
  0
DICTIONARY
  0
ENDSEC
  0
EOF
