  0
SECTION
  2
BLOCKS
  0
ENDSEC
  0
SECTION
  2
ENTITIES
  0
LINE
  8
0
 10
377
 20
29.5
 11
331
 21
29.5
  0
LINE
  8
0
 10
331
 20
29.5
 11
331
 21
11.5
  0
LINE
  8
0
 10
331
 20
11.5
 11
377
 21
11.5
  0
LINE
  8
0
 10
377
 20
11.5
 11
377
 21
29.5
  0
LINE
  8
0
 10
332.312
 20
19.3148
 11
332.129
 21
19.3587
  0
LINE
  8
0
 10
332.129
 20
19.3587
 11
331.955
 21
19.4308
  0
LINE
  8
0
 10
331.955
 20
19.4308
 11
331.795
 21
19.5292
  0
LINE
  8
0
 10
331.795
 20
19.5292
 11
331.651
 21
19.6515
  0
LINE
  8
0
 10
331.651
 20
19.6515
 11
331.529
 21
19.7947
  0
LINE
  8
0
 10
331.529
 20
19.7947
 11
331.431
 21
19.9552
  0
LINE
  8
0
 10
331.431
 20
19.9552
 11
331.359
 21
20.1292
  0
LINE
  8
0
 10
331.359
 20
20.1292
 11
331.315
 21
20.3123
  0
LINE
  8
0
 10
331.315
 20
20.3123
 11
331.3
 21
20.5
  0
LINE
  8
0
 10
331.3
 20
20.5
 11
331.315
 21
20.6877
  0
LINE
  8
0
 10
331.315
 20
20.6877
 11
331.359
 21
20.8708
  0
LINE
  8
0
 10
331.359
 20
20.8708
 11
331.431
 21
21.0448
  0
LINE
  8
0
 10
331.431
 20
21.0448
 11
331.529
 21
21.2053
  0
LINE
  8
0
 10
331.529
 20
21.2053
 11
331.651
 21
21.3485
  0
LINE
  8
0
 10
331.651
 20
21.3485
 11
331.795
 21
21.4708
  0
LINE
  8
0
 10
331.795
 20
21.4708
 11
331.955
 21
21.5692
  0
LINE
  8
0
 10
331.955
 20
21.5692
 11
332.129
 21
21.6413
  0
LINE
  8
0
 10
332.129
 20
21.6413
 11
332.312
 21
21.6852
  0
LINE
  8
0
 10
332.312
 20
21.6852
 11
332.5
 21
21.7
  0
LINE
  8
0
 10
332.5
 20
21.7
 11
332.688
 21
21.6852
  0
LINE
  8
0
 10
332.688
 20
21.6852
 11
332.871
 21
21.6413
  0
LINE
  8
0
 10
332.871
 20
21.6413
 11
333.045
 21
21.5692
  0
LINE
  8
0
 10
333.045
 20
21.5692
 11
333.205
 21
21.4708
  0
LINE
  8
0
 10
333.205
 20
21.4708
 11
333.349
 21
21.3485
  0
LINE
  8
0
 10
333.349
 20
21.3485
 11
333.471
 21
21.2053
  0
LINE
  8
0
 10
333.471
 20
21.2053
 11
333.569
 21
21.0448
  0
LINE
  8
0
 10
333.569
 20
21.0448
 11
333.641
 21
20.8708
  0
LINE
  8
0
 10
333.641
 20
20.8708
 11
333.685
 21
20.6877
  0
LINE
  8
0
 10
333.685
 20
20.6877
 11
333.7
 21
20.5
  0
LINE
  8
0
 10
333.7
 20
20.5
 11
333.685
 21
20.3123
  0
LINE
  8
0
 10
333.685
 20
20.3123
 11
333.641
 21
20.1292
  0
LINE
  8
0
 10
333.641
 20
20.1292
 11
333.569
 21
19.9552
  0
LINE
  8
0
 10
333.569
 20
19.9552
 11
333.471
 21
19.7947
  0
LINE
  8
0
 10
333.471
 20
19.7947
 11
333.349
 21
19.6515
  0
LINE
  8
0
 10
333.349
 20
19.6515
 11
333.205
 21
19.5292
  0
LINE
  8
0
 10
333.205
 20
19.5292
 11
333.045
 21
19.4308
  0
LINE
  8
0
 10
333.045
 20
19.4308
 11
332.871
 21
19.3587
  0
LINE
  8
0
 10
332.871
 20
19.3587
 11
332.688
 21
19.3148
  0
LINE
  8
0
 10
332.688
 20
19.3148
 11
332.5
 21
19.3
  0
LINE
  8
0
 10
332.5
 20
19.3
 11
332.312
 21
19.3148
  0
LINE
  8
0
 10
375.312
 20
19.3148
 11
375.129
 21
19.3587
  0
LINE
  8
0
 10
375.129
 20
19.3587
 11
374.955
 21
19.4308
  0
LINE
  8
0
 10
374.955
 20
19.4308
 11
374.795
 21
19.5292
  0
LINE
  8
0
 10
374.795
 20
19.5292
 11
374.651
 21
19.6515
  0
LINE
  8
0
 10
374.651
 20
19.6515
 11
374.529
 21
19.7947
  0
LINE
  8
0
 10
374.529
 20
19.7947
 11
374.431
 21
19.9552
  0
LINE
  8
0
 10
374.431
 20
19.9552
 11
374.359
 21
20.1292
  0
LINE
  8
0
 10
374.359
 20
20.1292
 11
374.315
 21
20.3123
  0
LINE
  8
0
 10
374.315
 20
20.3123
 11
374.3
 21
20.5
  0
LINE
  8
0
 10
374.3
 20
20.5
 11
374.315
 21
20.6877
  0
LINE
  8
0
 10
374.315
 20
20.6877
 11
374.359
 21
20.8708
  0
LINE
  8
0
 10
374.359
 20
20.8708
 11
374.431
 21
21.0448
  0
LINE
  8
0
 10
374.431
 20
21.0448
 11
374.529
 21
21.2053
  0
LINE
  8
0
 10
374.529
 20
21.2053
 11
374.651
 21
21.3485
  0
LINE
  8
0
 10
374.651
 20
21.3485
 11
374.795
 21
21.4708
  0
LINE
  8
0
 10
374.795
 20
21.4708
 11
374.955
 21
21.5692
  0
LINE
  8
0
 10
374.955
 20
21.5692
 11
375.129
 21
21.6413
  0
LINE
  8
0
 10
375.129
 20
21.6413
 11
375.312
 21
21.6852
  0
LINE
  8
0
 10
375.312
 20
21.6852
 11
375.5
 21
21.7
  0
LINE
  8
0
 10
375.5
 20
21.7
 11
375.688
 21
21.6852
  0
LINE
  8
0
 10
375.688
 20
21.6852
 11
375.871
 21
21.6413
  0
LINE
  8
0
 10
375.871
 20
21.6413
 11
376.045
 21
21.5692
  0
LINE
  8
0
 10
376.045
 20
21.5692
 11
376.205
 21
21.4708
  0
LINE
  8
0
 10
376.205
 20
21.4708
 11
376.349
 21
21.3485
  0
LINE
  8
0
 10
376.349
 20
21.3485
 11
376.471
 21
21.2053
  0
LINE
  8
0
 10
376.471
 20
21.2053
 11
376.569
 21
21.0448
  0
LINE
  8
0
 10
376.569
 20
21.0448
 11
376.641
 21
20.8708
  0
LINE
  8
0
 10
376.641
 20
20.8708
 11
376.685
 21
20.6877
  0
LINE
  8
0
 10
376.685
 20
20.6877
 11
376.7
 21
20.5
  0
LINE
  8
0
 10
376.7
 20
20.5
 11
376.685
 21
20.3123
  0
LINE
  8
0
 10
376.685
 20
20.3123
 11
376.641
 21
20.1292
  0
LINE
  8
0
 10
376.641
 20
20.1292
 11
376.569
 21
19.9552
  0
LINE
  8
0
 10
376.569
 20
19.9552
 11
376.471
 21
19.7947
  0
LINE
  8
0
 10
376.471
 20
19.7947
 11
376.349
 21
19.6515
  0
LINE
  8
0
 10
376.349
 20
19.6515
 11
376.205
 21
19.5292
  0
LINE
  8
0
 10
376.205
 20
19.5292
 11
376.045
 21
19.4308
  0
LINE
  8
0
 10
376.045
 20
19.4308
 11
375.871
 21
19.3587
  0
LINE
  8
0
 10
375.871
 20
19.3587
 11
375.688
 21
19.3148
  0
LINE
  8
0
 10
375.688
 20
19.3148
 11
375.5
 21
19.3
  0
LINE
  8
0
 10
375.5
 20
19.3
 11
375.312
 21
19.3148
  0
ENDSEC
  0
SECTION
  2
OBJECTS
  0
DICTIONARY
  0
ENDSEC
  0
EOF
