  0
SECTION
  2
BLOCKS
  0
ENDSEC
  0
SECTION
  2
ENTITIES
  0
LINE
  8
0
 10
213.85
 20
51.5
 11
213.85
 21
5.5
  0
LINE
  8
0
 10
213.85
 20
5.5
 11
231.85
 21
5.5
  0
LINE
  8
0
 10
231.85
 20
5.5
 11
231.85
 21
51.5
  0
LINE
  8
0
 10
231.85
 20
51.5
 11
213.85
 21
51.5
  0
LINE
  8
0
 10
224.035
 20
6.81229
 11
223.991
 21
6.62918
  0
LINE
  8
0
 10
223.991
 20
6.62918
 11
223.919
 21
6.45522
  0
LINE
  8
0
 10
223.919
 20
6.45522
 11
223.821
 21
6.29466
  0
LINE
  8
0
 10
223.821
 20
6.29466
 11
223.699
 21
6.15147
  0
LINE
  8
0
 10
223.699
 20
6.15147
 11
223.555
 21
6.02919
  0
LINE
  8
0
 10
223.555
 20
6.02919
 11
223.395
 21
5.9308
  0
LINE
  8
0
 10
223.395
 20
5.9308
 11
223.221
 21
5.85873
  0
LINE
  8
0
 10
223.221
 20
5.85873
 11
223.038
 21
5.81479
  0
LINE
  8
0
 10
223.038
 20
5.81479
 11
222.85
 21
5.8
  0
LINE
  8
0
 10
222.85
 20
5.8
 11
222.662
 21
5.81479
  0
LINE
  8
0
 10
222.662
 20
5.81479
 11
222.479
 21
5.85873
  0
LINE
  8
0
 10
222.479
 20
5.85873
 11
222.305
 21
5.9308
  0
LINE
  8
0
 10
222.305
 20
5.9308
 11
222.145
 21
6.02919
  0
LINE
  8
0
 10
222.145
 20
6.02919
 11
222.001
 21
6.15147
  0
LINE
  8
0
 10
222.001
 20
6.15147
 11
221.879
 21
6.29466
  0
LINE
  8
0
 10
221.879
 20
6.29466
 11
221.781
 21
6.45522
  0
LINE
  8
0
 10
221.781
 20
6.45522
 11
221.709
 21
6.62918
  0
LINE
  8
0
 10
221.709
 20
6.62918
 11
221.665
 21
6.81229
  0
LINE
  8
0
 10
221.665
 20
6.81229
 11
221.65
 21
7
  0
LINE
  8
0
 10
221.65
 20
7
 11
221.665
 21
7.18773
  0
LINE
  8
0
 10
221.665
 20
7.18773
 11
221.709
 21
7.37083
  0
LINE
  8
0
 10
221.709
 20
7.37083
 11
221.781
 21
7.5448
  0
LINE
  8
0
 10
221.781
 20
7.5448
 11
221.879
 21
7.70535
  0
LINE
  8
0
 10
221.879
 20
7.70535
 11
222.001
 21
7.84854
  0
LINE
  8
0
 10
222.001
 20
7.84854
 11
222.145
 21
7.97083
  0
LINE
  8
0
 10
222.145
 20
7.97083
 11
222.305
 21
8.06921
  0
LINE
  8
0
 10
222.305
 20
8.06921
 11
222.479
 21
8.14128
  0
LINE
  8
0
 10
222.479
 20
8.14128
 11
222.662
 21
8.18523
  0
LINE
  8
0
 10
222.662
 20
8.18523
 11
222.85
 21
8.20001
  0
LINE
  8
0
 10
222.85
 20
8.20001
 11
223.038
 21
8.18523
  0
LINE
  8
0
 10
223.038
 20
8.18523
 11
223.221
 21
8.14128
  0
LINE
  8
0
 10
223.221
 20
8.14128
 11
223.395
 21
8.06921
  0
LINE
  8
0
 10
223.395
 20
8.06921
 11
223.555
 21
7.97083
  0
LINE
  8
0
 10
223.555
 20
7.97083
 11
223.699
 21
7.84854
  0
LINE
  8
0
 10
223.699
 20
7.84854
 11
223.821
 21
7.70535
  0
LINE
  8
0
 10
223.821
 20
7.70535
 11
223.919
 21
7.5448
  0
LINE
  8
0
 10
223.919
 20
7.5448
 11
223.991
 21
7.37083
  0
LINE
  8
0
 10
223.991
 20
7.37083
 11
224.035
 21
7.18773
  0
LINE
  8
0
 10
224.035
 20
7.18773
 11
224.05
 21
7
  0
LINE
  8
0
 10
224.05
 20
7
 11
224.035
 21
6.81229
  0
LINE
  8
0
 10
224.035
 20
49.8123
 11
223.991
 21
49.6292
  0
LINE
  8
0
 10
223.991
 20
49.6292
 11
223.919
 21
49.4552
  0
LINE
  8
0
 10
223.919
 20
49.4552
 11
223.821
 21
49.2946
  0
LINE
  8
0
 10
223.821
 20
49.2946
 11
223.699
 21
49.1515
  0
LINE
  8
0
 10
223.699
 20
49.1515
 11
223.555
 21
49.0292
  0
LINE
  8
0
 10
223.555
 20
49.0292
 11
223.395
 21
48.9308
  0
LINE
  8
0
 10
223.395
 20
48.9308
 11
223.221
 21
48.8587
  0
LINE
  8
0
 10
223.221
 20
48.8587
 11
223.038
 21
48.8148
  0
LINE
  8
0
 10
223.038
 20
48.8148
 11
222.85
 21
48.8
  0
LINE
  8
0
 10
222.85
 20
48.8
 11
222.662
 21
48.8148
  0
LINE
  8
0
 10
222.662
 20
48.8148
 11
222.479
 21
48.8587
  0
LINE
  8
0
 10
222.479
 20
48.8587
 11
222.305
 21
48.9308
  0
LINE
  8
0
 10
222.305
 20
48.9308
 11
222.145
 21
49.0292
  0
LINE
  8
0
 10
222.145
 20
49.0292
 11
222.001
 21
49.1515
  0
LINE
  8
0
 10
222.001
 20
49.1515
 11
221.879
 21
49.2946
  0
LINE
  8
0
 10
221.879
 20
49.2946
 11
221.781
 21
49.4552
  0
LINE
  8
0
 10
221.781
 20
49.4552
 11
221.709
 21
49.6292
  0
LINE
  8
0
 10
221.709
 20
49.6292
 11
221.665
 21
49.8123
  0
LINE
  8
0
 10
221.665
 20
49.8123
 11
221.65
 21
50
  0
LINE
  8
0
 10
221.65
 20
50
 11
221.665
 21
50.1877
  0
LINE
  8
0
 10
221.665
 20
50.1877
 11
221.709
 21
50.3708
  0
LINE
  8
0
 10
221.709
 20
50.3708
 11
221.781
 21
50.5448
  0
LINE
  8
0
 10
221.781
 20
50.5448
 11
221.879
 21
50.7053
  0
LINE
  8
0
 10
221.879
 20
50.7053
 11
222.001
 21
50.8485
  0
LINE
  8
0
 10
222.001
 20
50.8485
 11
222.145
 21
50.9708
  0
LINE
  8
0
 10
222.145
 20
50.9708
 11
222.305
 21
51.0692
  0
LINE
  8
0
 10
222.305
 20
51.0692
 11
222.479
 21
51.1413
  0
LINE
  8
0
 10
222.479
 20
51.1413
 11
222.662
 21
51.1852
  0
LINE
  8
0
 10
222.662
 20
51.1852
 11
222.85
 21
51.2
  0
LINE
  8
0
 10
222.85
 20
51.2
 11
223.038
 21
51.1852
  0
LINE
  8
0
 10
223.038
 20
51.1852
 11
223.221
 21
51.1413
  0
LINE
  8
0
 10
223.221
 20
51.1413
 11
223.395
 21
51.0692
  0
LINE
  8
0
 10
223.395
 20
51.0692
 11
223.555
 21
50.9708
  0
LINE
  8
0
 10
223.555
 20
50.9708
 11
223.699
 21
50.8485
  0
LINE
  8
0
 10
223.699
 20
50.8485
 11
223.821
 21
50.7053
  0
LINE
  8
0
 10
223.821
 20
50.7053
 11
223.919
 21
50.5448
  0
LINE
  8
0
 10
223.919
 20
50.5448
 11
223.991
 21
50.3708
  0
LINE
  8
0
 10
223.991
 20
50.3708
 11
224.035
 21
50.1877
  0
LINE
  8
0
 10
224.035
 20
50.1877
 11
224.05
 21
50
  0
LINE
  8
0
 10
224.05
 20
50
 11
224.035
 21
49.8123
  0
ENDSEC
  0
SECTION
  2
OBJECTS
  0
DICTIONARY
  0
ENDSEC
  0
EOF
