  0
SECTION
  2
BLOCKS
  0
ENDSEC
  0
SECTION
  2
ENTITIES
  0
LINE
  8
0
 10
264.914
 20
51.5
 11
264.914
 21
5.5
  0
LINE
  8
0
 10
264.914
 20
5.5
 11
282.914
 21
5.5
  0
LINE
  8
0
 10
282.914
 20
5.5
 11
282.914
 21
51.5
  0
LINE
  8
0
 10
282.914
 20
51.5
 11
264.914
 21
51.5
  0
LINE
  8
0
 10
275.099
 20
6.81229
 11
275.055
 21
6.62918
  0
LINE
  8
0
 10
275.055
 20
6.62918
 11
274.983
 21
6.45522
  0
LINE
  8
0
 10
274.983
 20
6.45522
 11
274.885
 21
6.29466
  0
LINE
  8
0
 10
274.885
 20
6.29466
 11
274.763
 21
6.15147
  0
LINE
  8
0
 10
274.763
 20
6.15147
 11
274.619
 21
6.02919
  0
LINE
  8
0
 10
274.619
 20
6.02919
 11
274.459
 21
5.9308
  0
LINE
  8
0
 10
274.459
 20
5.9308
 11
274.285
 21
5.85873
  0
LINE
  8
0
 10
274.285
 20
5.85873
 11
274.102
 21
5.81479
  0
LINE
  8
0
 10
274.102
 20
5.81479
 11
273.914
 21
5.8
  0
LINE
  8
0
 10
273.914
 20
5.8
 11
273.726
 21
5.81479
  0
LINE
  8
0
 10
273.726
 20
5.81479
 11
273.543
 21
5.85873
  0
LINE
  8
0
 10
273.543
 20
5.85873
 11
273.369
 21
5.9308
  0
LINE
  8
0
 10
273.369
 20
5.9308
 11
273.209
 21
6.02919
  0
LINE
  8
0
 10
273.209
 20
6.02919
 11
273.065
 21
6.15147
  0
LINE
  8
0
 10
273.065
 20
6.15147
 11
272.943
 21
6.29466
  0
LINE
  8
0
 10
272.943
 20
6.29466
 11
272.845
 21
6.45522
  0
LINE
  8
0
 10
272.845
 20
6.45522
 11
272.773
 21
6.62918
  0
LINE
  8
0
 10
272.773
 20
6.62918
 11
272.729
 21
6.81229
  0
LINE
  8
0
 10
272.729
 20
6.81229
 11
272.714
 21
7
  0
LINE
  8
0
 10
272.714
 20
7
 11
272.729
 21
7.18773
  0
LINE
  8
0
 10
272.729
 20
7.18773
 11
272.773
 21
7.37083
  0
LINE
  8
0
 10
272.773
 20
7.37083
 11
272.845
 21
7.5448
  0
LINE
  8
0
 10
272.845
 20
7.5448
 11
272.943
 21
7.70535
  0
LINE
  8
0
 10
272.943
 20
7.70535
 11
273.065
 21
7.84854
  0
LINE
  8
0
 10
273.065
 20
7.84854
 11
273.209
 21
7.97083
  0
LINE
  8
0
 10
273.209
 20
7.97083
 11
273.369
 21
8.06921
  0
LINE
  8
0
 10
273.369
 20
8.06921
 11
273.543
 21
8.14128
  0
LINE
  8
0
 10
273.543
 20
8.14128
 11
273.726
 21
8.18523
  0
LINE
  8
0
 10
273.726
 20
8.18523
 11
273.914
 21
8.20001
  0
LINE
  8
0
 10
273.914
 20
8.20001
 11
274.102
 21
8.18523
  0
LINE
  8
0
 10
274.102
 20
8.18523
 11
274.285
 21
8.14128
  0
LINE
  8
0
 10
274.285
 20
8.14128
 11
274.459
 21
8.06921
  0
LINE
  8
0
 10
274.459
 20
8.06921
 11
274.619
 21
7.97083
  0
LINE
  8
0
 10
274.619
 20
7.97083
 11
274.763
 21
7.84854
  0
LINE
  8
0
 10
274.763
 20
7.84854
 11
274.885
 21
7.70535
  0
LINE
  8
0
 10
274.885
 20
7.70535
 11
274.983
 21
7.5448
  0
LINE
  8
0
 10
274.983
 20
7.5448
 11
275.055
 21
7.37083
  0
LINE
  8
0
 10
275.055
 20
7.37083
 11
275.099
 21
7.18773
  0
LINE
  8
0
 10
275.099
 20
7.18773
 11
275.114
 21
7
  0
LINE
  8
0
 10
275.114
 20
7
 11
275.099
 21
6.81229
  0
LINE
  8
0
 10
275.099
 20
49.8123
 11
275.055
 21
49.6292
  0
LINE
  8
0
 10
275.055
 20
49.6292
 11
274.983
 21
49.4552
  0
LINE
  8
0
 10
274.983
 20
49.4552
 11
274.885
 21
49.2946
  0
LINE
  8
0
 10
274.885
 20
49.2946
 11
274.763
 21
49.1515
  0
LINE
  8
0
 10
274.763
 20
49.1515
 11
274.619
 21
49.0292
  0
LINE
  8
0
 10
274.619
 20
49.0292
 11
274.459
 21
48.9308
  0
LINE
  8
0
 10
274.459
 20
48.9308
 11
274.285
 21
48.8587
  0
LINE
  8
0
 10
274.285
 20
48.8587
 11
274.102
 21
48.8148
  0
LINE
  8
0
 10
274.102
 20
48.8148
 11
273.914
 21
48.8
  0
LINE
  8
0
 10
273.914
 20
48.8
 11
273.726
 21
48.8148
  0
LINE
  8
0
 10
273.726
 20
48.8148
 11
273.543
 21
48.8587
  0
LINE
  8
0
 10
273.543
 20
48.8587
 11
273.369
 21
48.9308
  0
LINE
  8
0
 10
273.369
 20
48.9308
 11
273.209
 21
49.0292
  0
LINE
  8
0
 10
273.209
 20
49.0292
 11
273.065
 21
49.1515
  0
LINE
  8
0
 10
273.065
 20
49.1515
 11
272.943
 21
49.2946
  0
LINE
  8
0
 10
272.943
 20
49.2946
 11
272.845
 21
49.4552
  0
LINE
  8
0
 10
272.845
 20
49.4552
 11
272.773
 21
49.6292
  0
LINE
  8
0
 10
272.773
 20
49.6292
 11
272.729
 21
49.8123
  0
LINE
  8
0
 10
272.729
 20
49.8123
 11
272.714
 21
50
  0
LINE
  8
0
 10
272.714
 20
50
 11
272.729
 21
50.1877
  0
LINE
  8
0
 10
272.729
 20
50.1877
 11
272.773
 21
50.3708
  0
LINE
  8
0
 10
272.773
 20
50.3708
 11
272.845
 21
50.5448
  0
LINE
  8
0
 10
272.845
 20
50.5448
 11
272.943
 21
50.7053
  0
LINE
  8
0
 10
272.943
 20
50.7053
 11
273.065
 21
50.8485
  0
LINE
  8
0
 10
273.065
 20
50.8485
 11
273.209
 21
50.9708
  0
LINE
  8
0
 10
273.209
 20
50.9708
 11
273.369
 21
51.0692
  0
LINE
  8
0
 10
273.369
 20
51.0692
 11
273.543
 21
51.1413
  0
LINE
  8
0
 10
273.543
 20
51.1413
 11
273.726
 21
51.1852
  0
LINE
  8
0
 10
273.726
 20
51.1852
 11
273.914
 21
51.2
  0
LINE
  8
0
 10
273.914
 20
51.2
 11
274.102
 21
51.1852
  0
LINE
  8
0
 10
274.102
 20
51.1852
 11
274.285
 21
51.1413
  0
LINE
  8
0
 10
274.285
 20
51.1413
 11
274.459
 21
51.0692
  0
LINE
  8
0
 10
274.459
 20
51.0692
 11
274.619
 21
50.9708
  0
LINE
  8
0
 10
274.619
 20
50.9708
 11
274.763
 21
50.8485
  0
LINE
  8
0
 10
274.763
 20
50.8485
 11
274.885
 21
50.7053
  0
LINE
  8
0
 10
274.885
 20
50.7053
 11
274.983
 21
50.5448
  0
LINE
  8
0
 10
274.983
 20
50.5448
 11
275.055
 21
50.3708
  0
LINE
  8
0
 10
275.055
 20
50.3708
 11
275.099
 21
50.1877
  0
LINE
  8
0
 10
275.099
 20
50.1877
 11
275.114
 21
50
  0
LINE
  8
0
 10
275.114
 20
50
 11
275.099
 21
49.8123
  0
ENDSEC
  0
SECTION
  2
OBJECTS
  0
DICTIONARY
  0
ENDSEC
  0
EOF
