  0
SECTION
  2
BLOCKS
  0
ENDSEC
  0
SECTION
  2
ENTITIES
  0
LINE
  8
0
 10
266.95
 20
51.5
 11
266.95
 21
5.5
  0
LINE
  8
0
 10
266.95
 20
5.5
 11
284.95
 21
5.5
  0
LINE
  8
0
 10
284.95
 20
5.5
 11
284.95
 21
51.5
  0
LINE
  8
0
 10
284.95
 20
51.5
 11
266.95
 21
51.5
  0
LINE
  8
0
 10
277.135
 20
6.81229
 11
277.091
 21
6.62918
  0
LINE
  8
0
 10
277.091
 20
6.62918
 11
277.019
 21
6.45522
  0
LINE
  8
0
 10
277.019
 20
6.45522
 11
276.921
 21
6.29466
  0
LINE
  8
0
 10
276.921
 20
6.29466
 11
276.799
 21
6.15147
  0
LINE
  8
0
 10
276.799
 20
6.15147
 11
276.655
 21
6.02919
  0
LINE
  8
0
 10
276.655
 20
6.02919
 11
276.495
 21
5.9308
  0
LINE
  8
0
 10
276.495
 20
5.9308
 11
276.321
 21
5.85873
  0
LINE
  8
0
 10
276.321
 20
5.85873
 11
276.138
 21
5.81479
  0
LINE
  8
0
 10
276.138
 20
5.81479
 11
275.95
 21
5.8
  0
LINE
  8
0
 10
275.95
 20
5.8
 11
275.762
 21
5.81479
  0
LINE
  8
0
 10
275.762
 20
5.81479
 11
275.579
 21
5.85873
  0
LINE
  8
0
 10
275.579
 20
5.85873
 11
275.405
 21
5.9308
  0
LINE
  8
0
 10
275.405
 20
5.9308
 11
275.245
 21
6.02919
  0
LINE
  8
0
 10
275.245
 20
6.02919
 11
275.101
 21
6.15147
  0
LINE
  8
0
 10
275.101
 20
6.15147
 11
274.979
 21
6.29466
  0
LINE
  8
0
 10
274.979
 20
6.29466
 11
274.881
 21
6.45522
  0
LINE
  8
0
 10
274.881
 20
6.45522
 11
274.809
 21
6.62918
  0
LINE
  8
0
 10
274.809
 20
6.62918
 11
274.765
 21
6.81229
  0
LINE
  8
0
 10
274.765
 20
6.81229
 11
274.75
 21
7
  0
LINE
  8
0
 10
274.75
 20
7
 11
274.765
 21
7.18773
  0
LINE
  8
0
 10
274.765
 20
7.18773
 11
274.809
 21
7.37083
  0
LINE
  8
0
 10
274.809
 20
7.37083
 11
274.881
 21
7.5448
  0
LINE
  8
0
 10
274.881
 20
7.5448
 11
274.979
 21
7.70535
  0
LINE
  8
0
 10
274.979
 20
7.70535
 11
275.101
 21
7.84854
  0
LINE
  8
0
 10
275.101
 20
7.84854
 11
275.245
 21
7.97083
  0
LINE
  8
0
 10
275.245
 20
7.97083
 11
275.405
 21
8.06921
  0
LINE
  8
0
 10
275.405
 20
8.06921
 11
275.579
 21
8.14128
  0
LINE
  8
0
 10
275.579
 20
8.14128
 11
275.762
 21
8.18523
  0
LINE
  8
0
 10
275.762
 20
8.18523
 11
275.95
 21
8.20001
  0
LINE
  8
0
 10
275.95
 20
8.20001
 11
276.138
 21
8.18523
  0
LINE
  8
0
 10
276.138
 20
8.18523
 11
276.321
 21
8.14128
  0
LINE
  8
0
 10
276.321
 20
8.14128
 11
276.495
 21
8.06921
  0
LINE
  8
0
 10
276.495
 20
8.06921
 11
276.655
 21
7.97083
  0
LINE
  8
0
 10
276.655
 20
7.97083
 11
276.799
 21
7.84854
  0
LINE
  8
0
 10
276.799
 20
7.84854
 11
276.921
 21
7.70535
  0
LINE
  8
0
 10
276.921
 20
7.70535
 11
277.019
 21
7.5448
  0
LINE
  8
0
 10
277.019
 20
7.5448
 11
277.091
 21
7.37083
  0
LINE
  8
0
 10
277.091
 20
7.37083
 11
277.135
 21
7.18773
  0
LINE
  8
0
 10
277.135
 20
7.18773
 11
277.15
 21
7
  0
LINE
  8
0
 10
277.15
 20
7
 11
277.135
 21
6.81229
  0
LINE
  8
0
 10
277.135
 20
49.8123
 11
277.091
 21
49.6292
  0
LINE
  8
0
 10
277.091
 20
49.6292
 11
277.019
 21
49.4552
  0
LINE
  8
0
 10
277.019
 20
49.4552
 11
276.921
 21
49.2946
  0
LINE
  8
0
 10
276.921
 20
49.2946
 11
276.799
 21
49.1515
  0
LINE
  8
0
 10
276.799
 20
49.1515
 11
276.655
 21
49.0292
  0
LINE
  8
0
 10
276.655
 20
49.0292
 11
276.495
 21
48.9308
  0
LINE
  8
0
 10
276.495
 20
48.9308
 11
276.321
 21
48.8587
  0
LINE
  8
0
 10
276.321
 20
48.8587
 11
276.138
 21
48.8148
  0
LINE
  8
0
 10
276.138
 20
48.8148
 11
275.95
 21
48.8
  0
LINE
  8
0
 10
275.95
 20
48.8
 11
275.762
 21
48.8148
  0
LINE
  8
0
 10
275.762
 20
48.8148
 11
275.579
 21
48.8587
  0
LINE
  8
0
 10
275.579
 20
48.8587
 11
275.405
 21
48.9308
  0
LINE
  8
0
 10
275.405
 20
48.9308
 11
275.245
 21
49.0292
  0
LINE
  8
0
 10
275.245
 20
49.0292
 11
275.101
 21
49.1515
  0
LINE
  8
0
 10
275.101
 20
49.1515
 11
274.979
 21
49.2946
  0
LINE
  8
0
 10
274.979
 20
49.2946
 11
274.881
 21
49.4552
  0
LINE
  8
0
 10
274.881
 20
49.4552
 11
274.809
 21
49.6292
  0
LINE
  8
0
 10
274.809
 20
49.6292
 11
274.765
 21
49.8123
  0
LINE
  8
0
 10
274.765
 20
49.8123
 11
274.75
 21
50
  0
LINE
  8
0
 10
274.75
 20
50
 11
274.765
 21
50.1877
  0
LINE
  8
0
 10
274.765
 20
50.1877
 11
274.809
 21
50.3708
  0
LINE
  8
0
 10
274.809
 20
50.3708
 11
274.881
 21
50.5448
  0
LINE
  8
0
 10
274.881
 20
50.5448
 11
274.979
 21
50.7053
  0
LINE
  8
0
 10
274.979
 20
50.7053
 11
275.101
 21
50.8485
  0
LINE
  8
0
 10
275.101
 20
50.8485
 11
275.245
 21
50.9708
  0
LINE
  8
0
 10
275.245
 20
50.9708
 11
275.405
 21
51.0692
  0
LINE
  8
0
 10
275.405
 20
51.0692
 11
275.579
 21
51.1413
  0
LINE
  8
0
 10
275.579
 20
51.1413
 11
275.762
 21
51.1852
  0
LINE
  8
0
 10
275.762
 20
51.1852
 11
275.95
 21
51.2
  0
LINE
  8
0
 10
275.95
 20
51.2
 11
276.138
 21
51.1852
  0
LINE
  8
0
 10
276.138
 20
51.1852
 11
276.321
 21
51.1413
  0
LINE
  8
0
 10
276.321
 20
51.1413
 11
276.495
 21
51.0692
  0
LINE
  8
0
 10
276.495
 20
51.0692
 11
276.655
 21
50.9708
  0
LINE
  8
0
 10
276.655
 20
50.9708
 11
276.799
 21
50.8485
  0
LINE
  8
0
 10
276.799
 20
50.8485
 11
276.921
 21
50.7053
  0
LINE
  8
0
 10
276.921
 20
50.7053
 11
277.019
 21
50.5448
  0
LINE
  8
0
 10
277.019
 20
50.5448
 11
277.091
 21
50.3708
  0
LINE
  8
0
 10
277.091
 20
50.3708
 11
277.135
 21
50.1877
  0
LINE
  8
0
 10
277.135
 20
50.1877
 11
277.15
 21
50
  0
LINE
  8
0
 10
277.15
 20
50
 11
277.135
 21
49.8123
  0
ENDSEC
  0
SECTION
  2
OBJECTS
  0
DICTIONARY
  0
ENDSEC
  0
EOF
