  0
SECTION
  2
BLOCKS
  0
ENDSEC
  0
SECTION
  2
ENTITIES
  0
LINE
  8
0
 10
56.1564
 20
0.0123138
 11
56.309
 21
0.0489502
  0
LINE
  8
0
 10
56.309
 20
0.0489502
 11
56.454
 21
0.108994
  0
LINE
  8
0
 10
56.454
 20
0.108994
 11
56.5878
 21
0.190979
  0
LINE
  8
0
 10
56.5878
 20
0.190979
 11
56.7071
 21
0.292892
  0
LINE
  8
0
 10
56.7071
 20
0.292892
 11
56.809
 21
0.412216
  0
LINE
  8
0
 10
56.809
 20
0.412216
 11
56.891
 21
0.546005
  0
LINE
  8
0
 10
56.891
 20
0.546005
 11
56.951
 21
0.690979
  0
LINE
  8
0
 10
56.951
 20
0.690979
 11
56.9877
 21
0.843567
  0
LINE
  8
0
 10
56.9877
 20
0.843567
 11
57
 21
1
  0
LINE
  8
0
 10
57
 20
1
 11
57
 21
37
  0
LINE
  8
0
 10
57
 20
37
 11
56.9877
 21
37.1564
  0
LINE
  8
0
 10
56.9877
 20
37.1564
 11
56.951
 21
37.309
  0
LINE
  8
0
 10
56.951
 20
37.309
 11
56.891
 21
37.454
  0
LINE
  8
0
 10
56.891
 20
37.454
 11
56.809
 21
37.5878
  0
LINE
  8
0
 10
56.809
 20
37.5878
 11
56.7071
 21
37.7071
  0
LINE
  8
0
 10
56.7071
 20
37.7071
 11
56.5878
 21
37.809
  0
LINE
  8
0
 10
56.5878
 20
37.809
 11
56.454
 21
37.891
  0
LINE
  8
0
 10
56.454
 20
37.891
 11
56.309
 21
37.951
  0
LINE
  8
0
 10
56.309
 20
37.951
 11
56.1564
 21
37.9877
  0
LINE
  8
0
 10
56.1564
 20
37.9877
 11
56
 21
38
  0
LINE
  8
0
 10
56
 20
38
 11
1
 21
38
  0
LINE
  8
0
 10
1
 20
38
 11
0.843567
 21
37.9877
  0
LINE
  8
0
 10
0.843567
 20
37.9877
 11
0.690979
 21
37.951
  0
LINE
  8
0
 10
0.690979
 20
37.951
 11
0.546005
 21
37.891
  0
LINE
  8
0
 10
0.546005
 20
37.891
 11
0.412216
 21
37.809
  0
LINE
  8
0
 10
0.412216
 20
37.809
 11
0.292892
 21
37.7071
  0
LINE
  8
0
 10
0.292892
 20
37.7071
 11
0.190979
 21
37.5878
  0
LINE
  8
0
 10
0.190979
 20
37.5878
 11
0.108994
 21
37.454
  0
LINE
  8
0
 10
0.108994
 20
37.454
 11
0.0489502
 21
37.309
  0
LINE
  8
0
 10
0.0489502
 20
37.309
 11
0.0123138
 21
37.1564
  0
LINE
  8
0
 10
0.0123138
 20
37.1564
 11
0
 21
37
  0
LINE
  8
0
 10
0
 20
37
 11
0
 21
1
  0
LINE
  8
0
 10
0
 20
1
 11
0.0123138
 21
0.843567
  0
LINE
  8
0
 10
0.0123138
 20
0.843567
 11
0.0489502
 21
0.690979
  0
LINE
  8
0
 10
0.0489502
 20
0.690979
 11
0.108994
 21
0.546005
  0
LINE
  8
0
 10
0.108994
 20
0.546005
 11
0.190979
 21
0.412216
  0
LINE
  8
0
 10
0.190979
 20
0.412216
 11
0.292892
 21
0.292892
  0
LINE
  8
0
 10
0.292892
 20
0.292892
 11
0.412216
 21
0.190979
  0
LINE
  8
0
 10
0.412216
 20
0.190979
 11
0.546005
 21
0.108994
  0
LINE
  8
0
 10
0.546005
 20
0.108994
 11
0.690979
 21
0.0489502
  0
LINE
  8
0
 10
0.690979
 20
0.0489502
 11
0.843567
 21
0.0123138
  0
LINE
  8
0
 10
0.843567
 20
0.0123138
 11
1
 21
0
  0
LINE
  8
0
 10
1
 20
0
 11
56
 21
0
  0
LINE
  8
0
 10
56
 20
0
 11
56.1564
 21
0.0123138
  0
LINE
  8
0
 10
19.6228
 20
4.14774
 11
17.7918
 21
4.58731
  0
LINE
  8
0
 10
17.7918
 20
4.58731
 11
16.0521
 21
5.30791
  0
LINE
  8
0
 10
16.0521
 20
5.30791
 11
14.4466
 21
6.29179
  0
LINE
  8
0
 10
14.4466
 20
6.29179
 11
13.0147
 21
7.51471
  0
LINE
  8
0
 10
13.0147
 20
7.51471
 11
11.7918
 21
8.94656
  0
LINE
  8
0
 10
11.7918
 20
8.94656
 11
10.8079
 21
10.5521
  0
LINE
  8
0
 10
10.8079
 20
10.5521
 11
10.0873
 21
12.2918
  0
LINE
  8
0
 10
10.0873
 20
12.2918
 11
9.64774
 21
14.1228
  0
LINE
  8
0
 10
9.64774
 20
14.1228
 11
9.5
 21
16
  0
LINE
  8
0
 10
9.5
 20
16
 11
9.64774
 21
17.8772
  0
LINE
  8
0
 10
9.64774
 20
17.8772
 11
10.0873
 21
19.7082
  0
LINE
  8
0
 10
10.0873
 20
19.7082
 11
10.8079
 21
21.4479
  0
LINE
  8
0
 10
10.8079
 20
21.4479
 11
11.7918
 21
23.0534
  0
LINE
  8
0
 10
11.7918
 20
23.0534
 11
13.0147
 21
24.4853
  0
LINE
  8
0
 10
13.0147
 20
24.4853
 11
14.4466
 21
25.7082
  0
LINE
  8
0
 10
14.4466
 20
25.7082
 11
16.0521
 21
26.6921
  0
LINE
  8
0
 10
16.0521
 20
26.6921
 11
17.7918
 21
27.4127
  0
LINE
  8
0
 10
17.7918
 20
27.4127
 11
19.6228
 21
27.8522
  0
LINE
  8
0
 10
19.6228
 20
27.8522
 11
21.5
 21
28
  0
LINE
  8
0
 10
21.5
 20
28
 11
23.3772
 21
27.8522
  0
LINE
  8
0
 10
23.3772
 20
27.8522
 11
25.2082
 21
27.4127
  0
LINE
  8
0
 10
25.2082
 20
27.4127
 11
26.9479
 21
26.6921
  0
LINE
  8
0
 10
26.9479
 20
26.6921
 11
28.5534
 21
25.7082
  0
LINE
  8
0
 10
28.5534
 20
25.7082
 11
29.9853
 21
24.4853
  0
LINE
  8
0
 10
29.9853
 20
24.4853
 11
31.2082
 21
23.0534
  0
LINE
  8
0
 10
31.2082
 20
23.0534
 11
32.1921
 21
21.4479
  0
LINE
  8
0
 10
32.1921
 20
21.4479
 11
32.9127
 21
19.7082
  0
LINE
  8
0
 10
32.9127
 20
19.7082
 11
33.3522
 21
17.8772
  0
LINE
  8
0
 10
33.3522
 20
17.8772
 11
33.5
 21
16
  0
LINE
  8
0
 10
33.5
 20
16
 11
33.3522
 21
14.1228
  0
LINE
  8
0
 10
33.3522
 20
14.1228
 11
32.9127
 21
12.2918
  0
LINE
  8
0
 10
32.9127
 20
12.2918
 11
32.1921
 21
10.5521
  0
LINE
  8
0
 10
32.1921
 20
10.5521
 11
31.2082
 21
8.94656
  0
LINE
  8
0
 10
31.2082
 20
8.94656
 11
29.9853
 21
7.51471
  0
LINE
  8
0
 10
29.9853
 20
7.51471
 11
28.5534
 21
6.29179
  0
LINE
  8
0
 10
28.5534
 20
6.29179
 11
26.9479
 21
5.30791
  0
LINE
  8
0
 10
26.9479
 20
5.30791
 11
25.2082
 21
4.58731
  0
LINE
  8
0
 10
25.2082
 20
4.58731
 11
23.3772
 21
4.14774
  0
LINE
  8
0
 10
23.3772
 20
4.14774
 11
21.5
 21
4
  0
LINE
  8
0
 10
21.5
 20
4
 11
19.6228
 21
4.14774
  0
LINE
  8
0
 10
33.2497
 20
23.9197
 11
33.0056
 21
23.9783
  0
LINE
  8
0
 10
33.0056
 20
23.9783
 11
32.7736
 21
24.0744
  0
LINE
  8
0
 10
32.7736
 20
24.0744
 11
32.5595
 21
24.2056
  0
LINE
  8
0
 10
32.5595
 20
24.2056
 11
32.3686
 21
24.3686
  0
LINE
  8
0
 10
32.3686
 20
24.3686
 11
32.2056
 21
24.5595
  0
LINE
  8
0
 10
32.2056
 20
24.5595
 11
32.0744
 21
24.7736
  0
LINE
  8
0
 10
32.0744
 20
24.7736
 11
31.9783
 21
25.0056
  0
LINE
  8
0
 10
31.9783
 20
25.0056
 11
31.9197
 21
25.2497
  0
LINE
  8
0
 10
31.9197
 20
25.2497
 11
31.9
 21
25.5
  0
LINE
  8
0
 10
31.9
 20
25.5
 11
31.9197
 21
25.7503
  0
LINE
  8
0
 10
31.9197
 20
25.7503
 11
31.9783
 21
25.9944
  0
LINE
  8
0
 10
31.9783
 20
25.9944
 11
32.0744
 21
26.2264
  0
LINE
  8
0
 10
32.0744
 20
26.2264
 11
32.2056
 21
26.4404
  0
LINE
  8
0
 10
32.2056
 20
26.4404
 11
32.3686
 21
26.6314
  0
LINE
  8
0
 10
32.3686
 20
26.6314
 11
32.5595
 21
26.7944
  0
LINE
  8
0
 10
32.5595
 20
26.7944
 11
32.7736
 21
26.9256
  0
LINE
  8
0
 10
32.7736
 20
26.9256
 11
33.0056
 21
27.0217
  0
LINE
  8
0
 10
33.0056
 20
27.0217
 11
33.2497
 21
27.0803
  0
LINE
  8
0
 10
33.2497
 20
27.0803
 11
33.5
 21
27.1
  0
LINE
  8
0
 10
33.5
 20
27.1
 11
33.7503
 21
27.0803
  0
LINE
  8
0
 10
33.7503
 20
27.0803
 11
33.9944
 21
27.0217
  0
LINE
  8
0
 10
33.9944
 20
27.0217
 11
34.2264
 21
26.9256
  0
LINE
  8
0
 10
34.2264
 20
26.9256
 11
34.4404
 21
26.7944
  0
LINE
  8
0
 10
34.4404
 20
26.7944
 11
34.6314
 21
26.6314
  0
LINE
  8
0
 10
34.6314
 20
26.6314
 11
34.7944
 21
26.4404
  0
LINE
  8
0
 10
34.7944
 20
26.4404
 11
34.9256
 21
26.2264
  0
LINE
  8
0
 10
34.9256
 20
26.2264
 11
35.0217
 21
25.9944
  0
LINE
  8
0
 10
35.0217
 20
25.9944
 11
35.0803
 21
25.7503
  0
LINE
  8
0
 10
35.0803
 20
25.7503
 11
35.1
 21
25.5
  0
LINE
  8
0
 10
35.1
 20
25.5
 11
35.0803
 21
25.2497
  0
LINE
  8
0
 10
35.0803
 20
25.2497
 11
35.0217
 21
25.0056
  0
LINE
  8
0
 10
35.0217
 20
25.0056
 11
34.9256
 21
24.7736
  0
LINE
  8
0
 10
34.9256
 20
24.7736
 11
34.7944
 21
24.5595
  0
LINE
  8
0
 10
34.7944
 20
24.5595
 11
34.6314
 21
24.3686
  0
LINE
  8
0
 10
34.6314
 20
24.3686
 11
34.4404
 21
24.2056
  0
LINE
  8
0
 10
34.4404
 20
24.2056
 11
34.2264
 21
24.0744
  0
LINE
  8
0
 10
34.2264
 20
24.0744
 11
33.9944
 21
23.9783
  0
LINE
  8
0
 10
33.9944
 20
23.9783
 11
33.7503
 21
23.9197
  0
LINE
  8
0
 10
33.7503
 20
23.9197
 11
33.5
 21
23.9
  0
LINE
  8
0
 10
33.5
 20
23.9
 11
33.2497
 21
23.9197
  0
LINE
  8
0
 10
38.5
 20
14.9
 11
38.5
 21
21.9
  0
LINE
  8
0
 10
38.5
 20
21.9
 11
51
 21
21.9
  0
LINE
  8
0
 10
51
 20
21.9
 11
51
 21
14.9
  0
LINE
  8
0
 10
51
 20
14.9
 11
38.5
 21
14.9
  0
LINE
  8
0
 10
9.24969
 20
4.91969
 11
9.00557
 21
4.9783
  0
LINE
  8
0
 10
9.00557
 20
4.9783
 11
8.77361
 21
5.07439
  0
LINE
  8
0
 10
8.77361
 20
5.07439
 11
8.55954
 21
5.20557
  0
LINE
  8
0
 10
8.55954
 20
5.20557
 11
8.36862
 21
5.36862
  0
LINE
  8
0
 10
8.36862
 20
5.36862
 11
8.20557
 21
5.55954
  0
LINE
  8
0
 10
8.20557
 20
5.55954
 11
8.07439
 21
5.77361
  0
LINE
  8
0
 10
8.07439
 20
5.77361
 11
7.9783
 21
6.00557
  0
LINE
  8
0
 10
7.9783
 20
6.00557
 11
7.91969
 21
6.24969
  0
LINE
  8
0
 10
7.91969
 20
6.24969
 11
7.89999
 21
6.5
  0
LINE
  8
0
 10
7.89999
 20
6.5
 11
7.91969
 21
6.75029
  0
LINE
  8
0
 10
7.91969
 20
6.75029
 11
7.9783
 21
6.99442
  0
LINE
  8
0
 10
7.9783
 20
6.99442
 11
8.07439
 21
7.22638
  0
LINE
  8
0
 10
8.07439
 20
7.22638
 11
8.20557
 21
7.44044
  0
LINE
  8
0
 10
8.20557
 20
7.44044
 11
8.36862
 21
7.63136
  0
LINE
  8
0
 10
8.36862
 20
7.63136
 11
8.55954
 21
7.79442
  0
LINE
  8
0
 10
8.55954
 20
7.79442
 11
8.77361
 21
7.9256
  0
LINE
  8
0
 10
8.77361
 20
7.9256
 11
9.00557
 21
8.02168
  0
LINE
  8
0
 10
9.00557
 20
8.02168
 11
9.24969
 21
8.08029
  0
LINE
  8
0
 10
9.24969
 20
8.08029
 11
9.5
 21
8.09999
  0
LINE
  8
0
 10
9.5
 20
8.09999
 11
9.75029
 21
8.08029
  0
LINE
  8
0
 10
9.75029
 20
8.08029
 11
9.99442
 21
8.02168
  0
LINE
  8
0
 10
9.99442
 20
8.02168
 11
10.2264
 21
7.9256
  0
LINE
  8
0
 10
10.2264
 20
7.9256
 11
10.4404
 21
7.79442
  0
LINE
  8
0
 10
10.4404
 20
7.79442
 11
10.6314
 21
7.63136
  0
LINE
  8
0
 10
10.6314
 20
7.63136
 11
10.7944
 21
7.44044
  0
LINE
  8
0
 10
10.7944
 20
7.44044
 11
10.9256
 21
7.22638
  0
LINE
  8
0
 10
10.9256
 20
7.22638
 11
11.0217
 21
6.99442
  0
LINE
  8
0
 10
11.0217
 20
6.99442
 11
11.0803
 21
6.75029
  0
LINE
  8
0
 10
11.0803
 20
6.75029
 11
11.1
 21
6.5
  0
LINE
  8
0
 10
11.1
 20
6.5
 11
11.0803
 21
6.24969
  0
LINE
  8
0
 10
11.0803
 20
6.24969
 11
11.0217
 21
6.00557
  0
LINE
  8
0
 10
11.0217
 20
6.00557
 11
10.9256
 21
5.77361
  0
LINE
  8
0
 10
10.9256
 20
5.77361
 11
10.7944
 21
5.55954
  0
LINE
  8
0
 10
10.7944
 20
5.55954
 11
10.6314
 21
5.36862
  0
LINE
  8
0
 10
10.6314
 20
5.36862
 11
10.4404
 21
5.20557
  0
LINE
  8
0
 10
10.4404
 20
5.20557
 11
10.2264
 21
5.07439
  0
LINE
  8
0
 10
10.2264
 20
5.07439
 11
9.99442
 21
4.9783
  0
LINE
  8
0
 10
9.99442
 20
4.9783
 11
9.75029
 21
4.91969
  0
LINE
  8
0
 10
9.75029
 20
4.91969
 11
9.5
 21
4.89999
  0
LINE
  8
0
 10
9.5
 20
4.89999
 11
9.24969
 21
4.91969
  0
ENDSEC
  0
SECTION
  2
OBJECTS
  0
DICTIONARY
  0
ENDSEC
  0
EOF
