  0
SECTION
  2
BLOCKS
  0
ENDSEC
  0
SECTION
  2
ENTITIES
  0
LINE
  8
0
 10
55.7346
 20
0.0184631
 11
55.9635
 21
0.07341
  0
LINE
  8
0
 10
55.9635
 20
0.07341
 11
56.181
 21
0.163483
  0
LINE
  8
0
 10
56.181
 20
0.163483
 11
56.3817
 21
0.286469
  0
LINE
  8
0
 10
56.3817
 20
0.286469
 11
56.5607
 21
0.439346
  0
LINE
  8
0
 10
56.5607
 20
0.439346
 11
56.7135
 21
0.618317
  0
LINE
  8
0
 10
56.7135
 20
0.618317
 11
56.8365
 21
0.819016
  0
LINE
  8
0
 10
56.8365
 20
0.819016
 11
56.9266
 21
1.03647
  0
LINE
  8
0
 10
56.9266
 20
1.03647
 11
56.9815
 21
1.26535
  0
LINE
  8
0
 10
56.9815
 20
1.26535
 11
57
 21
1.5
  0
LINE
  8
0
 10
57
 20
1.5
 11
57
 21
37.5
  0
LINE
  8
0
 10
57
 20
37.5
 11
56.9815
 21
37.7346
  0
LINE
  8
0
 10
56.9815
 20
37.7346
 11
56.9266
 21
37.9635
  0
LINE
  8
0
 10
56.9266
 20
37.9635
 11
56.8365
 21
38.181
  0
LINE
  8
0
 10
56.8365
 20
38.181
 11
56.7135
 21
38.3817
  0
LINE
  8
0
 10
56.7135
 20
38.3817
 11
56.5607
 21
38.5607
  0
LINE
  8
0
 10
56.5607
 20
38.5607
 11
56.3817
 21
38.7135
  0
LINE
  8
0
 10
56.3817
 20
38.7135
 11
56.181
 21
38.8365
  0
LINE
  8
0
 10
56.181
 20
38.8365
 11
55.9635
 21
38.9266
  0
LINE
  8
0
 10
55.9635
 20
38.9266
 11
55.7346
 21
38.9815
  0
LINE
  8
0
 10
55.7346
 20
38.9815
 11
55.5
 21
39
  0
LINE
  8
0
 10
55.5
 20
39
 11
1.5
 21
39
  0
LINE
  8
0
 10
1.5
 20
39
 11
1.26535
 21
38.9815
  0
LINE
  8
0
 10
1.26535
 20
38.9815
 11
1.03647
 21
38.9266
  0
LINE
  8
0
 10
1.03647
 20
38.9266
 11
0.819016
 21
38.8365
  0
LINE
  8
0
 10
0.819016
 20
38.8365
 11
0.618317
 21
38.7135
  0
LINE
  8
0
 10
0.618317
 20
38.7135
 11
0.439346
 21
38.5607
  0
LINE
  8
0
 10
0.439346
 20
38.5607
 11
0.286469
 21
38.3817
  0
LINE
  8
0
 10
0.286469
 20
38.3817
 11
0.163483
 21
38.181
  0
LINE
  8
0
 10
0.163483
 20
38.181
 11
0.07341
 21
37.9635
  0
LINE
  8
0
 10
0.07341
 20
37.9635
 11
0.0184631
 21
37.7346
  0
LINE
  8
0
 10
0.0184631
 20
37.7346
 11
0
 21
37.5
  0
LINE
  8
0
 10
0
 20
37.5
 11
0
 21
1.5
  0
LINE
  8
0
 10
0
 20
1.5
 11
0.0184631
 21
1.26535
  0
LINE
  8
0
 10
0.0184631
 20
1.26535
 11
0.07341
 21
1.03647
  0
LINE
  8
0
 10
0.07341
 20
1.03647
 11
0.163483
 21
0.819016
  0
LINE
  8
0
 10
0.163483
 20
0.819016
 11
0.286469
 21
0.618317
  0
LINE
  8
0
 10
0.286469
 20
0.618317
 11
0.439346
 21
0.439346
  0
LINE
  8
0
 10
0.439346
 20
0.439346
 11
0.618317
 21
0.286469
  0
LINE
  8
0
 10
0.618317
 20
0.286469
 11
0.819016
 21
0.163483
  0
LINE
  8
0
 10
0.819016
 20
0.163483
 11
1.03647
 21
0.07341
  0
LINE
  8
0
 10
1.03647
 20
0.07341
 11
1.26535
 21
0.0184631
  0
LINE
  8
0
 10
1.26535
 20
0.0184631
 11
1.5
 21
0
  0
LINE
  8
0
 10
1.5
 20
0
 11
55.5
 21
0
  0
LINE
  8
0
 10
55.5
 20
0
 11
55.7346
 21
0.0184631
  0
LINE
  8
0
 10
11.3497
 20
27.1197
 11
11.1056
 21
27.1783
  0
LINE
  8
0
 10
11.1056
 20
27.1783
 11
10.8736
 21
27.2744
  0
LINE
  8
0
 10
10.8736
 20
27.2744
 11
10.6595
 21
27.4056
  0
LINE
  8
0
 10
10.6595
 20
27.4056
 11
10.4686
 21
27.5686
  0
LINE
  8
0
 10
10.4686
 20
27.5686
 11
10.3056
 21
27.7595
  0
LINE
  8
0
 10
10.3056
 20
27.7595
 11
10.1744
 21
27.9736
  0
LINE
  8
0
 10
10.1744
 20
27.9736
 11
10.0783
 21
28.2056
  0
LINE
  8
0
 10
10.0783
 20
28.2056
 11
10.0197
 21
28.4497
  0
LINE
  8
0
 10
10.0197
 20
28.4497
 11
10
 21
28.7
  0
LINE
  8
0
 10
10
 20
28.7
 11
10.0197
 21
28.9503
  0
LINE
  8
0
 10
10.0197
 20
28.9503
 11
10.0783
 21
29.1944
  0
LINE
  8
0
 10
10.0783
 20
29.1944
 11
10.1744
 21
29.4264
  0
LINE
  8
0
 10
10.1744
 20
29.4264
 11
10.3056
 21
29.6404
  0
LINE
  8
0
 10
10.3056
 20
29.6404
 11
10.4686
 21
29.8314
  0
LINE
  8
0
 10
10.4686
 20
29.8314
 11
10.6595
 21
29.9944
  0
LINE
  8
0
 10
10.6595
 20
29.9944
 11
10.8736
 21
30.1256
  0
LINE
  8
0
 10
10.8736
 20
30.1256
 11
11.1056
 21
30.2217
  0
LINE
  8
0
 10
11.1056
 20
30.2217
 11
11.3497
 21
30.2803
  0
LINE
  8
0
 10
11.3497
 20
30.2803
 11
11.6
 21
30.3
  0
LINE
  8
0
 10
11.6
 20
30.3
 11
11.8503
 21
30.2803
  0
LINE
  8
0
 10
11.8503
 20
30.2803
 11
12.0944
 21
30.2217
  0
LINE
  8
0
 10
12.0944
 20
30.2217
 11
12.3264
 21
30.1256
  0
LINE
  8
0
 10
12.3264
 20
30.1256
 11
12.5405
 21
29.9944
  0
LINE
  8
0
 10
12.5405
 20
29.9944
 11
12.7314
 21
29.8314
  0
LINE
  8
0
 10
12.7314
 20
29.8314
 11
12.8944
 21
29.6404
  0
LINE
  8
0
 10
12.8944
 20
29.6404
 11
13.0256
 21
29.4264
  0
LINE
  8
0
 10
13.0256
 20
29.4264
 11
13.1217
 21
29.1944
  0
LINE
  8
0
 10
13.1217
 20
29.1944
 11
13.1803
 21
28.9503
  0
LINE
  8
0
 10
13.1803
 20
28.9503
 11
13.2
 21
28.7
  0
LINE
  8
0
 10
13.2
 20
28.7
 11
13.1803
 21
28.4497
  0
LINE
  8
0
 10
13.1803
 20
28.4497
 11
13.1217
 21
28.2056
  0
LINE
  8
0
 10
13.1217
 20
28.2056
 11
13.0256
 21
27.9736
  0
LINE
  8
0
 10
13.0256
 20
27.9736
 11
12.8944
 21
27.7595
  0
LINE
  8
0
 10
12.8944
 20
27.7595
 11
12.7314
 21
27.5686
  0
LINE
  8
0
 10
12.7314
 20
27.5686
 11
12.5405
 21
27.4056
  0
LINE
  8
0
 10
12.5405
 20
27.4056
 11
12.3264
 21
27.2744
  0
LINE
  8
0
 10
12.3264
 20
27.2744
 11
12.0944
 21
27.1783
  0
LINE
  8
0
 10
12.0944
 20
27.1783
 11
11.8503
 21
27.1197
  0
LINE
  8
0
 10
11.8503
 20
27.1197
 11
11.6
 21
27.1
  0
LINE
  8
0
 10
11.6
 20
27.1
 11
11.3497
 21
27.1197
  0
LINE
  8
0
 10
19.7792
 20
7.93542
 11
18.1008
 21
8.33836
  0
LINE
  8
0
 10
18.1008
 20
8.33836
 11
16.5061
 21
8.99892
  0
LINE
  8
0
 10
16.5061
 20
8.99892
 11
15.0343
 21
9.9008
  0
LINE
  8
0
 10
15.0343
 20
9.9008
 11
13.7218
 21
11.0218
  0
LINE
  8
0
 10
13.7218
 20
11.0218
 11
12.6008
 21
12.3344
  0
LINE
  8
0
 10
12.6008
 20
12.3344
 11
11.6989
 21
13.8061
  0
LINE
  8
0
 10
11.6989
 20
13.8061
 11
11.0384
 21
15.4008
  0
LINE
  8
0
 10
11.0384
 20
15.4008
 11
10.6354
 21
17.0792
  0
LINE
  8
0
 10
10.6354
 20
17.0792
 11
10.5
 21
18.8
  0
LINE
  8
0
 10
10.5
 20
18.8
 11
10.6354
 21
20.5208
  0
LINE
  8
0
 10
10.6354
 20
20.5208
 11
11.0384
 21
22.1992
  0
LINE
  8
0
 10
11.0384
 20
22.1992
 11
11.6989
 21
23.7939
  0
LINE
  8
0
 10
11.6989
 20
23.7939
 11
12.6008
 21
25.2656
  0
LINE
  8
0
 10
12.6008
 20
25.2656
 11
13.7218
 21
26.5782
  0
LINE
  8
0
 10
13.7218
 20
26.5782
 11
15.0343
 21
27.6992
  0
LINE
  8
0
 10
15.0343
 20
27.6992
 11
16.5061
 21
28.6011
  0
LINE
  8
0
 10
16.5061
 20
28.6011
 11
18.1008
 21
29.2616
  0
LINE
  8
0
 10
18.1008
 20
29.2616
 11
19.7792
 21
29.6646
  0
LINE
  8
0
 10
19.7792
 20
29.6646
 11
21.5
 21
29.8
  0
LINE
  8
0
 10
21.5
 20
29.8
 11
23.2208
 21
29.6646
  0
LINE
  8
0
 10
23.2208
 20
29.6646
 11
24.8992
 21
29.2616
  0
LINE
  8
0
 10
24.8992
 20
29.2616
 11
26.4939
 21
28.6011
  0
LINE
  8
0
 10
26.4939
 20
28.6011
 11
27.9656
 21
27.6992
  0
LINE
  8
0
 10
27.9656
 20
27.6992
 11
29.2782
 21
26.5782
  0
LINE
  8
0
 10
29.2782
 20
26.5782
 11
30.3992
 21
25.2656
  0
LINE
  8
0
 10
30.3992
 20
25.2656
 11
31.3011
 21
23.7939
  0
LINE
  8
0
 10
31.3011
 20
23.7939
 11
31.9616
 21
22.1992
  0
LINE
  8
0
 10
31.9616
 20
22.1992
 11
32.3646
 21
20.5208
  0
LINE
  8
0
 10
32.3646
 20
20.5208
 11
32.5
 21
18.8
  0
LINE
  8
0
 10
32.5
 20
18.8
 11
32.3646
 21
17.0792
  0
LINE
  8
0
 10
32.3646
 20
17.0792
 11
31.9616
 21
15.4008
  0
LINE
  8
0
 10
31.9616
 20
15.4008
 11
31.3011
 21
13.8061
  0
LINE
  8
0
 10
31.3011
 20
13.8061
 11
30.3992
 21
12.3344
  0
LINE
  8
0
 10
30.3992
 20
12.3344
 11
29.2782
 21
11.0218
  0
LINE
  8
0
 10
29.2782
 20
11.0218
 11
27.9656
 21
9.9008
  0
LINE
  8
0
 10
27.9656
 20
9.9008
 11
26.4939
 21
8.99892
  0
LINE
  8
0
 10
26.4939
 20
8.99892
 11
24.8992
 21
8.33836
  0
LINE
  8
0
 10
24.8992
 20
8.33836
 11
23.2208
 21
7.93542
  0
LINE
  8
0
 10
23.2208
 20
7.93542
 11
21.5
 21
7.79999
  0
LINE
  8
0
 10
21.5
 20
7.79999
 11
19.7792
 21
7.93542
  0
LINE
  8
0
 10
39
 20
12.65
 11
39
 21
25.15
  0
LINE
  8
0
 10
39
 20
25.15
 11
46
 21
25.15
  0
LINE
  8
0
 10
46
 20
25.15
 11
46
 21
12.65
  0
LINE
  8
0
 10
46
 20
12.65
 11
39
 21
12.65
  0
LINE
  8
0
 10
31.1497
 20
7.31969
 11
30.9056
 21
7.3783
  0
LINE
  8
0
 10
30.9056
 20
7.3783
 11
30.6736
 21
7.47438
  0
LINE
  8
0
 10
30.6736
 20
7.47438
 11
30.4595
 21
7.60556
  0
LINE
  8
0
 10
30.4595
 20
7.60556
 11
30.2686
 21
7.76862
  0
LINE
  8
0
 10
30.2686
 20
7.76862
 11
30.1056
 21
7.95953
  0
LINE
  8
0
 10
30.1056
 20
7.95953
 11
29.9744
 21
8.17361
  0
LINE
  8
0
 10
29.9744
 20
8.17361
 11
29.8783
 21
8.40556
  0
LINE
  8
0
 10
29.8783
 20
8.40556
 11
29.8197
 21
8.6497
  0
LINE
  8
0
 10
29.8197
 20
8.6497
 11
29.8
 21
8.89999
  0
LINE
  8
0
 10
29.8
 20
8.89999
 11
29.8197
 21
9.15028
  0
LINE
  8
0
 10
29.8197
 20
9.15028
 11
29.8783
 21
9.39442
  0
LINE
  8
0
 10
29.8783
 20
9.39442
 11
29.9744
 21
9.62637
  0
LINE
  8
0
 10
29.9744
 20
9.62637
 11
30.1056
 21
9.84045
  0
LINE
  8
0
 10
30.1056
 20
9.84045
 11
30.2686
 21
10.0314
  0
LINE
  8
0
 10
30.2686
 20
10.0314
 11
30.4595
 21
10.1944
  0
LINE
  8
0
 10
30.4595
 20
10.1944
 11
30.6736
 21
10.3256
  0
LINE
  8
0
 10
30.6736
 20
10.3256
 11
30.9056
 21
10.4217
  0
LINE
  8
0
 10
30.9056
 20
10.4217
 11
31.1497
 21
10.4803
  0
LINE
  8
0
 10
31.1497
 20
10.4803
 11
31.4
 21
10.5
  0
LINE
  8
0
 10
31.4
 20
10.5
 11
31.6503
 21
10.4803
  0
LINE
  8
0
 10
31.6503
 20
10.4803
 11
31.8944
 21
10.4217
  0
LINE
  8
0
 10
31.8944
 20
10.4217
 11
32.1264
 21
10.3256
  0
LINE
  8
0
 10
32.1264
 20
10.3256
 11
32.3405
 21
10.1944
  0
LINE
  8
0
 10
32.3405
 20
10.1944
 11
32.5314
 21
10.0314
  0
LINE
  8
0
 10
32.5314
 20
10.0314
 11
32.6944
 21
9.84045
  0
LINE
  8
0
 10
32.6944
 20
9.84045
 11
32.8256
 21
9.62637
  0
LINE
  8
0
 10
32.8256
 20
9.62637
 11
32.9217
 21
9.39442
  0
LINE
  8
0
 10
32.9217
 20
9.39442
 11
32.9803
 21
9.15028
  0
LINE
  8
0
 10
32.9803
 20
9.15028
 11
33
 21
8.89999
  0
LINE
  8
0
 10
33
 20
8.89999
 11
32.9803
 21
8.6497
  0
LINE
  8
0
 10
32.9803
 20
8.6497
 11
32.9217
 21
8.40556
  0
LINE
  8
0
 10
32.9217
 20
8.40556
 11
32.8256
 21
8.17361
  0
LINE
  8
0
 10
32.8256
 20
8.17361
 11
32.6944
 21
7.95953
  0
LINE
  8
0
 10
32.6944
 20
7.95953
 11
32.5314
 21
7.76862
  0
LINE
  8
0
 10
32.5314
 20
7.76862
 11
32.3405
 21
7.60556
  0
LINE
  8
0
 10
32.3405
 20
7.60556
 11
32.1264
 21
7.47438
  0
LINE
  8
0
 10
32.1264
 20
7.47438
 11
31.8944
 21
7.3783
  0
LINE
  8
0
 10
31.8944
 20
7.3783
 11
31.6503
 21
7.31969
  0
LINE
  8
0
 10
31.6503
 20
7.31969
 11
31.4
 21
7.29999
  0
LINE
  8
0
 10
31.4
 20
7.29999
 11
31.1497
 21
7.31969
  0
ENDSEC
  0
SECTION
  2
OBJECTS
  0
DICTIONARY
  0
ENDSEC
  0
EOF
