  0
SECTION
  2
BLOCKS
  0
ENDSEC
  0
SECTION
  2
ENTITIES
  0
LINE
  8
0
 10
56.1564
 20
0.0123138
 11
56.309
 21
0.0489502
  0
LINE
  8
0
 10
56.309
 20
0.0489502
 11
56.454
 21
0.108994
  0
LINE
  8
0
 10
56.454
 20
0.108994
 11
56.5878
 21
0.190979
  0
LINE
  8
0
 10
56.5878
 20
0.190979
 11
56.7071
 21
0.292892
  0
LINE
  8
0
 10
56.7071
 20
0.292892
 11
56.809
 21
0.412216
  0
LINE
  8
0
 10
56.809
 20
0.412216
 11
56.891
 21
0.546005
  0
LINE
  8
0
 10
56.891
 20
0.546005
 11
56.951
 21
0.690979
  0
LINE
  8
0
 10
56.951
 20
0.690979
 11
56.9877
 21
0.843567
  0
LINE
  8
0
 10
56.9877
 20
0.843567
 11
57
 21
1
  0
LINE
  8
0
 10
57
 20
1
 11
57
 21
41
  0
LINE
  8
0
 10
57
 20
41
 11
56.9877
 21
41.1564
  0
LINE
  8
0
 10
56.9877
 20
41.1564
 11
56.951
 21
41.309
  0
LINE
  8
0
 10
56.951
 20
41.309
 11
56.891
 21
41.454
  0
LINE
  8
0
 10
56.891
 20
41.454
 11
56.809
 21
41.5878
  0
LINE
  8
0
 10
56.809
 20
41.5878
 11
56.7071
 21
41.7071
  0
LINE
  8
0
 10
56.7071
 20
41.7071
 11
56.5878
 21
41.809
  0
LINE
  8
0
 10
56.5878
 20
41.809
 11
56.454
 21
41.891
  0
LINE
  8
0
 10
56.454
 20
41.891
 11
56.309
 21
41.951
  0
LINE
  8
0
 10
56.309
 20
41.951
 11
56.1564
 21
41.9877
  0
LINE
  8
0
 10
56.1564
 20
41.9877
 11
56
 21
42
  0
LINE
  8
0
 10
56
 20
42
 11
1
 21
42
  0
LINE
  8
0
 10
1
 20
42
 11
0.843567
 21
41.9877
  0
LINE
  8
0
 10
0.843567
 20
41.9877
 11
0.690979
 21
41.951
  0
LINE
  8
0
 10
0.690979
 20
41.951
 11
0.546005
 21
41.891
  0
LINE
  8
0
 10
0.546005
 20
41.891
 11
0.412216
 21
41.809
  0
LINE
  8
0
 10
0.412216
 20
41.809
 11
0.292892
 21
41.7071
  0
LINE
  8
0
 10
0.292892
 20
41.7071
 11
0.190979
 21
41.5878
  0
LINE
  8
0
 10
0.190979
 20
41.5878
 11
0.108994
 21
41.454
  0
LINE
  8
0
 10
0.108994
 20
41.454
 11
0.0489502
 21
41.309
  0
LINE
  8
0
 10
0.0489502
 20
41.309
 11
0.0123138
 21
41.1564
  0
LINE
  8
0
 10
0.0123138
 20
41.1564
 11
0
 21
41
  0
LINE
  8
0
 10
0
 20
41
 11
0
 21
1
  0
LINE
  8
0
 10
0
 20
1
 11
0.0123138
 21
0.843567
  0
LINE
  8
0
 10
0.0123138
 20
0.843567
 11
0.0489502
 21
0.690979
  0
LINE
  8
0
 10
0.0489502
 20
0.690979
 11
0.108994
 21
0.546005
  0
LINE
  8
0
 10
0.108994
 20
0.546005
 11
0.190979
 21
0.412216
  0
LINE
  8
0
 10
0.190979
 20
0.412216
 11
0.292892
 21
0.292892
  0
LINE
  8
0
 10
0.292892
 20
0.292892
 11
0.412216
 21
0.190979
  0
LINE
  8
0
 10
0.412216
 20
0.190979
 11
0.546005
 21
0.108994
  0
LINE
  8
0
 10
0.546005
 20
0.108994
 11
0.690979
 21
0.0489502
  0
LINE
  8
0
 10
0.690979
 20
0.0489502
 11
0.843567
 21
0.0123138
  0
LINE
  8
0
 10
0.843567
 20
0.0123138
 11
1
 21
0
  0
LINE
  8
0
 10
1
 20
0
 11
56
 21
0
  0
LINE
  8
0
 10
56
 20
0
 11
56.1564
 21
0.0123138
  0
LINE
  8
0
 10
19.6228
 20
7.44774
 11
17.7918
 21
7.88731
  0
LINE
  8
0
 10
17.7918
 20
7.88731
 11
16.0521
 21
8.60791
  0
LINE
  8
0
 10
16.0521
 20
8.60791
 11
14.4466
 21
9.59178
  0
LINE
  8
0
 10
14.4466
 20
9.59178
 11
13.0147
 21
10.8147
  0
LINE
  8
0
 10
13.0147
 20
10.8147
 11
11.7918
 21
12.2466
  0
LINE
  8
0
 10
11.7918
 20
12.2466
 11
10.8079
 21
13.8521
  0
LINE
  8
0
 10
10.8079
 20
13.8521
 11
10.0873
 21
15.5918
  0
LINE
  8
0
 10
10.0873
 20
15.5918
 11
9.64774
 21
17.4228
  0
LINE
  8
0
 10
9.64774
 20
17.4228
 11
9.5
 21
19.3
  0
LINE
  8
0
 10
9.5
 20
19.3
 11
9.64774
 21
21.1772
  0
LINE
  8
0
 10
9.64774
 20
21.1772
 11
10.0873
 21
23.0082
  0
LINE
  8
0
 10
10.0873
 20
23.0082
 11
10.8079
 21
24.7479
  0
LINE
  8
0
 10
10.8079
 20
24.7479
 11
11.7918
 21
26.3534
  0
LINE
  8
0
 10
11.7918
 20
26.3534
 11
13.0147
 21
27.7853
  0
LINE
  8
0
 10
13.0147
 20
27.7853
 11
14.4466
 21
29.0082
  0
LINE
  8
0
 10
14.4466
 20
29.0082
 11
16.0521
 21
29.9921
  0
LINE
  8
0
 10
16.0521
 20
29.9921
 11
17.7918
 21
30.7127
  0
LINE
  8
0
 10
17.7918
 20
30.7127
 11
19.6228
 21
31.1523
  0
LINE
  8
0
 10
19.6228
 20
31.1523
 11
21.5
 21
31.3
  0
LINE
  8
0
 10
21.5
 20
31.3
 11
23.3772
 21
31.1523
  0
LINE
  8
0
 10
23.3772
 20
31.1523
 11
25.2082
 21
30.7127
  0
LINE
  8
0
 10
25.2082
 20
30.7127
 11
26.9479
 21
29.9921
  0
LINE
  8
0
 10
26.9479
 20
29.9921
 11
28.5534
 21
29.0082
  0
LINE
  8
0
 10
28.5534
 20
29.0082
 11
29.9853
 21
27.7853
  0
LINE
  8
0
 10
29.9853
 20
27.7853
 11
31.2082
 21
26.3534
  0
LINE
  8
0
 10
31.2082
 20
26.3534
 11
32.1921
 21
24.7479
  0
LINE
  8
0
 10
32.1921
 20
24.7479
 11
32.9127
 21
23.0082
  0
LINE
  8
0
 10
32.9127
 20
23.0082
 11
33.3522
 21
21.1772
  0
LINE
  8
0
 10
33.3522
 20
21.1772
 11
33.5
 21
19.3
  0
LINE
  8
0
 10
33.5
 20
19.3
 11
33.3522
 21
17.4228
  0
LINE
  8
0
 10
33.3522
 20
17.4228
 11
32.9127
 21
15.5918
  0
LINE
  8
0
 10
32.9127
 20
15.5918
 11
32.1921
 21
13.8521
  0
LINE
  8
0
 10
32.1921
 20
13.8521
 11
31.2082
 21
12.2466
  0
LINE
  8
0
 10
31.2082
 20
12.2466
 11
29.9853
 21
10.8147
  0
LINE
  8
0
 10
29.9853
 20
10.8147
 11
28.5534
 21
9.59178
  0
LINE
  8
0
 10
28.5534
 20
9.59178
 11
26.9479
 21
8.60791
  0
LINE
  8
0
 10
26.9479
 20
8.60791
 11
25.2082
 21
7.88731
  0
LINE
  8
0
 10
25.2082
 20
7.88731
 11
23.3772
 21
7.44774
  0
LINE
  8
0
 10
23.3772
 20
7.44774
 11
21.5
 21
7.29999
  0
LINE
  8
0
 10
21.5
 20
7.29999
 11
19.6228
 21
7.44774
  0
LINE
  8
0
 10
33.2497
 20
27.2197
 11
33.0056
 21
27.2783
  0
LINE
  8
0
 10
33.0056
 20
27.2783
 11
32.7736
 21
27.3744
  0
LINE
  8
0
 10
32.7736
 20
27.3744
 11
32.5595
 21
27.5056
  0
LINE
  8
0
 10
32.5595
 20
27.5056
 11
32.3686
 21
27.6686
  0
LINE
  8
0
 10
32.3686
 20
27.6686
 11
32.2056
 21
27.8595
  0
LINE
  8
0
 10
32.2056
 20
27.8595
 11
32.0744
 21
28.0736
  0
LINE
  8
0
 10
32.0744
 20
28.0736
 11
31.9783
 21
28.3056
  0
LINE
  8
0
 10
31.9783
 20
28.3056
 11
31.9197
 21
28.5497
  0
LINE
  8
0
 10
31.9197
 20
28.5497
 11
31.9
 21
28.8
  0
LINE
  8
0
 10
31.9
 20
28.8
 11
31.9197
 21
29.0503
  0
LINE
  8
0
 10
31.9197
 20
29.0503
 11
31.9783
 21
29.2944
  0
LINE
  8
0
 10
31.9783
 20
29.2944
 11
32.0744
 21
29.5264
  0
LINE
  8
0
 10
32.0744
 20
29.5264
 11
32.2056
 21
29.7404
  0
LINE
  8
0
 10
32.2056
 20
29.7404
 11
32.3686
 21
29.9314
  0
LINE
  8
0
 10
32.3686
 20
29.9314
 11
32.5595
 21
30.0944
  0
LINE
  8
0
 10
32.5595
 20
30.0944
 11
32.7736
 21
30.2256
  0
LINE
  8
0
 10
32.7736
 20
30.2256
 11
33.0056
 21
30.3217
  0
LINE
  8
0
 10
33.0056
 20
30.3217
 11
33.2497
 21
30.3803
  0
LINE
  8
0
 10
33.2497
 20
30.3803
 11
33.5
 21
30.4
  0
LINE
  8
0
 10
33.5
 20
30.4
 11
33.7503
 21
30.3803
  0
LINE
  8
0
 10
33.7503
 20
30.3803
 11
33.9944
 21
30.3217
  0
LINE
  8
0
 10
33.9944
 20
30.3217
 11
34.2264
 21
30.2256
  0
LINE
  8
0
 10
34.2264
 20
30.2256
 11
34.4404
 21
30.0944
  0
LINE
  8
0
 10
34.4404
 20
30.0944
 11
34.6314
 21
29.9314
  0
LINE
  8
0
 10
34.6314
 20
29.9314
 11
34.7944
 21
29.7404
  0
LINE
  8
0
 10
34.7944
 20
29.7404
 11
34.9256
 21
29.5264
  0
LINE
  8
0
 10
34.9256
 20
29.5264
 11
35.0217
 21
29.2944
  0
LINE
  8
0
 10
35.0217
 20
29.2944
 11
35.0803
 21
29.0503
  0
LINE
  8
0
 10
35.0803
 20
29.0503
 11
35.1
 21
28.8
  0
LINE
  8
0
 10
35.1
 20
28.8
 11
35.0803
 21
28.5497
  0
LINE
  8
0
 10
35.0803
 20
28.5497
 11
35.0217
 21
28.3056
  0
LINE
  8
0
 10
35.0217
 20
28.3056
 11
34.9256
 21
28.0736
  0
LINE
  8
0
 10
34.9256
 20
28.0736
 11
34.7944
 21
27.8595
  0
LINE
  8
0
 10
34.7944
 20
27.8595
 11
34.6314
 21
27.6686
  0
LINE
  8
0
 10
34.6314
 20
27.6686
 11
34.4404
 21
27.5056
  0
LINE
  8
0
 10
34.4404
 20
27.5056
 11
34.2264
 21
27.3744
  0
LINE
  8
0
 10
34.2264
 20
27.3744
 11
33.9944
 21
27.2783
  0
LINE
  8
0
 10
33.9944
 20
27.2783
 11
33.7503
 21
27.2197
  0
LINE
  8
0
 10
33.7503
 20
27.2197
 11
33.5
 21
27.2
  0
LINE
  8
0
 10
33.5
 20
27.2
 11
33.2497
 21
27.2197
  0
LINE
  8
0
 10
38.5
 20
16.9
 11
38.5
 21
23.9
  0
LINE
  8
0
 10
38.5
 20
23.9
 11
51
 21
23.9
  0
LINE
  8
0
 10
51
 20
23.9
 11
51
 21
16.9
  0
LINE
  8
0
 10
51
 20
16.9
 11
38.5
 21
16.9
  0
LINE
  8
0
 10
9.24969
 20
8.2197
 11
9.00557
 21
8.27831
  0
LINE
  8
0
 10
9.00557
 20
8.27831
 11
8.77361
 21
8.37437
  0
LINE
  8
0
 10
8.77361
 20
8.37437
 11
8.55954
 21
8.50557
  0
LINE
  8
0
 10
8.55954
 20
8.50557
 11
8.36862
 21
8.66862
  0
LINE
  8
0
 10
8.36862
 20
8.66862
 11
8.20557
 21
8.85954
  0
LINE
  8
0
 10
8.20557
 20
8.85954
 11
8.07439
 21
9.07361
  0
LINE
  8
0
 10
8.07439
 20
9.07361
 11
7.9783
 21
9.30557
  0
LINE
  8
0
 10
7.9783
 20
9.30557
 11
7.91969
 21
9.5497
  0
LINE
  8
0
 10
7.91969
 20
9.5497
 11
7.89999
 21
9.79999
  0
LINE
  8
0
 10
7.89999
 20
9.79999
 11
7.91969
 21
10.0503
  0
LINE
  8
0
 10
7.91969
 20
10.0503
 11
7.9783
 21
10.2944
  0
LINE
  8
0
 10
7.9783
 20
10.2944
 11
8.07439
 21
10.5264
  0
LINE
  8
0
 10
8.07439
 20
10.5264
 11
8.20557
 21
10.7404
  0
LINE
  8
0
 10
8.20557
 20
10.7404
 11
8.36862
 21
10.9314
  0
LINE
  8
0
 10
8.36862
 20
10.9314
 11
8.55954
 21
11.0944
  0
LINE
  8
0
 10
8.55954
 20
11.0944
 11
8.77361
 21
11.2256
  0
LINE
  8
0
 10
8.77361
 20
11.2256
 11
9.00557
 21
11.3217
  0
LINE
  8
0
 10
9.00557
 20
11.3217
 11
9.24969
 21
11.3803
  0
LINE
  8
0
 10
9.24969
 20
11.3803
 11
9.5
 21
11.4
  0
LINE
  8
0
 10
9.5
 20
11.4
 11
9.75029
 21
11.3803
  0
LINE
  8
0
 10
9.75029
 20
11.3803
 11
9.99442
 21
11.3217
  0
LINE
  8
0
 10
9.99442
 20
11.3217
 11
10.2264
 21
11.2256
  0
LINE
  8
0
 10
10.2264
 20
11.2256
 11
10.4404
 21
11.0944
  0
LINE
  8
0
 10
10.4404
 20
11.0944
 11
10.6314
 21
10.9314
  0
LINE
  8
0
 10
10.6314
 20
10.9314
 11
10.7944
 21
10.7404
  0
LINE
  8
0
 10
10.7944
 20
10.7404
 11
10.9256
 21
10.5264
  0
LINE
  8
0
 10
10.9256
 20
10.5264
 11
11.0217
 21
10.2944
  0
LINE
  8
0
 10
11.0217
 20
10.2944
 11
11.0803
 21
10.0503
  0
LINE
  8
0
 10
11.0803
 20
10.0503
 11
11.1
 21
9.79999
  0
LINE
  8
0
 10
11.1
 20
9.79999
 11
11.0803
 21
9.5497
  0
LINE
  8
0
 10
11.0803
 20
9.5497
 11
11.0217
 21
9.30557
  0
LINE
  8
0
 10
11.0217
 20
9.30557
 11
10.9256
 21
9.07361
  0
LINE
  8
0
 10
10.9256
 20
9.07361
 11
10.7944
 21
8.85954
  0
LINE
  8
0
 10
10.7944
 20
8.85954
 11
10.6314
 21
8.66862
  0
LINE
  8
0
 10
10.6314
 20
8.66862
 11
10.4404
 21
8.50557
  0
LINE
  8
0
 10
10.4404
 20
8.50557
 11
10.2264
 21
8.37437
  0
LINE
  8
0
 10
10.2264
 20
8.37437
 11
9.99442
 21
8.27831
  0
LINE
  8
0
 10
9.99442
 20
8.27831
 11
9.75029
 21
8.2197
  0
LINE
  8
0
 10
9.75029
 20
8.2197
 11
9.5
 21
8.2
  0
LINE
  8
0
 10
9.5
 20
8.2
 11
9.24969
 21
8.2197
  0
ENDSEC
  0
SECTION
  2
OBJECTS
  0
DICTIONARY
  0
ENDSEC
  0
EOF
