  0
SECTION
  2
BLOCKS
  0
ENDSEC
  0
SECTION
  2
ENTITIES
  0
LINE
  8
0
 10
52.7735
 20
28
 11
52.6901
 21
29.0596
  0
LINE
  8
0
 10
52.6901
 20
29.0596
 11
52.442
 21
30.0931
  0
LINE
  8
0
 10
52.442
 20
30.0931
 11
52.0352
 21
31.0751
  0
LINE
  8
0
 10
52.0352
 20
31.0751
 11
51.4799
 21
31.9814
  0
LINE
  8
0
 10
51.4799
 20
31.9814
 11
50.7896
 21
32.7896
  0
LINE
  8
0
 10
50.7896
 20
32.7896
 11
49.9814
 21
33.4799
  0
LINE
  8
0
 10
49.9814
 20
33.4799
 11
49.0751
 21
34.0352
  0
LINE
  8
0
 10
49.0751
 20
34.0352
 11
48.0931
 21
34.442
  0
LINE
  8
0
 10
48.0931
 20
34.442
 11
47.0596
 21
34.6901
  0
LINE
  8
0
 10
47.0596
 20
34.6901
 11
46
 21
34.7735
  0
LINE
  8
0
 10
46
 20
34.7735
 11
44.9404
 21
34.6901
  0
LINE
  8
0
 10
44.9404
 20
34.6901
 11
43.9069
 21
34.442
  0
LINE
  8
0
 10
43.9069
 20
34.442
 11
42.9249
 21
34.0352
  0
LINE
  8
0
 10
42.9249
 20
34.0352
 11
42.0186
 21
33.4799
  0
LINE
  8
0
 10
42.0186
 20
33.4799
 11
41.2104
 21
32.7896
  0
LINE
  8
0
 10
41.2104
 20
32.7896
 11
40.5201
 21
31.9814
  0
LINE
  8
0
 10
40.5201
 20
31.9814
 11
39.9648
 21
31.0751
  0
LINE
  8
0
 10
39.9648
 20
31.0751
 11
39.558
 21
30.0931
  0
LINE
  8
0
 10
39.558
 20
30.0931
 11
39.3099
 21
29.0596
  0
LINE
  8
0
 10
39.3099
 20
29.0596
 11
39.2265
 21
28
  0
LINE
  8
0
 10
39.2265
 20
28
 11
39.3099
 21
26.9404
  0
LINE
  8
0
 10
39.3099
 20
26.9404
 11
39.558
 21
25.9069
  0
LINE
  8
0
 10
39.558
 20
25.9069
 11
39.9648
 21
24.9249
  0
LINE
  8
0
 10
39.9648
 20
24.9249
 11
40.5201
 21
24.0186
  0
LINE
  8
0
 10
40.5201
 20
24.0186
 11
41.2104
 21
23.2104
  0
LINE
  8
0
 10
41.2104
 20
23.2104
 11
42.0186
 21
22.5201
  0
LINE
  8
0
 10
42.0186
 20
22.5201
 11
42.9249
 21
21.9648
  0
LINE
  8
0
 10
42.9249
 20
21.9648
 11
43.9069
 21
21.558
  0
LINE
  8
0
 10
43.9069
 20
21.558
 11
44.9404
 21
21.3099
  0
LINE
  8
0
 10
44.9404
 20
21.3099
 11
46
 21
21.2265
  0
LINE
  8
0
 10
46
 20
21.2265
 11
47.0596
 21
21.3099
  0
LINE
  8
0
 10
47.0596
 20
21.3099
 11
48.0931
 21
21.558
  0
LINE
  8
0
 10
48.0931
 20
21.558
 11
49.0751
 21
21.9648
  0
LINE
  8
0
 10
49.0751
 20
21.9648
 11
49.9814
 21
22.5201
  0
LINE
  8
0
 10
49.9814
 20
22.5201
 11
50.7896
 21
23.2104
  0
LINE
  8
0
 10
50.7896
 20
23.2104
 11
51.4799
 21
24.0186
  0
LINE
  8
0
 10
51.4799
 20
24.0186
 11
52.0352
 21
24.9249
  0
LINE
  8
0
 10
52.0352
 20
24.9249
 11
52.442
 21
25.9069
  0
LINE
  8
0
 10
52.442
 20
25.9069
 11
52.6901
 21
26.9404
  0
LINE
  8
0
 10
52.6901
 20
26.9404
 11
52.7735
 21
28
  0
ENDSEC
  0
SECTION
  2
OBJECTS
  0
DICTIONARY
  0
ENDSEC
  0
EOF
