  0
SECTION
  2
BLOCKS
  0
ENDSEC
  0
SECTION
  2
ENTITIES
  0
LINE
  8
0
 10
55.7346
 20
0.0184631
 11
55.9635
 21
0.07341
  0
LINE
  8
0
 10
55.9635
 20
0.07341
 11
56.181
 21
0.163483
  0
LINE
  8
0
 10
56.181
 20
0.163483
 11
56.3817
 21
0.286469
  0
LINE
  8
0
 10
56.3817
 20
0.286469
 11
56.5607
 21
0.439346
  0
LINE
  8
0
 10
56.5607
 20
0.439346
 11
56.7135
 21
0.618317
  0
LINE
  8
0
 10
56.7135
 20
0.618317
 11
56.8365
 21
0.819016
  0
LINE
  8
0
 10
56.8365
 20
0.819016
 11
56.9266
 21
1.03647
  0
LINE
  8
0
 10
56.9266
 20
1.03647
 11
56.9815
 21
1.26535
  0
LINE
  8
0
 10
56.9815
 20
1.26535
 11
57
 21
1.5
  0
LINE
  8
0
 10
57
 20
1.5
 11
57
 21
37.5
  0
LINE
  8
0
 10
57
 20
37.5
 11
56.9815
 21
37.7346
  0
LINE
  8
0
 10
56.9815
 20
37.7346
 11
56.9266
 21
37.9635
  0
LINE
  8
0
 10
56.9266
 20
37.9635
 11
56.8365
 21
38.181
  0
LINE
  8
0
 10
56.8365
 20
38.181
 11
56.7135
 21
38.3817
  0
LINE
  8
0
 10
56.7135
 20
38.3817
 11
56.5607
 21
38.5607
  0
LINE
  8
0
 10
56.5607
 20
38.5607
 11
56.3817
 21
38.7135
  0
LINE
  8
0
 10
56.3817
 20
38.7135
 11
56.181
 21
38.8365
  0
LINE
  8
0
 10
56.181
 20
38.8365
 11
55.9635
 21
38.9266
  0
LINE
  8
0
 10
55.9635
 20
38.9266
 11
55.7346
 21
38.9815
  0
LINE
  8
0
 10
55.7346
 20
38.9815
 11
55.5
 21
39
  0
LINE
  8
0
 10
55.5
 20
39
 11
1.5
 21
39
  0
LINE
  8
0
 10
1.5
 20
39
 11
1.26535
 21
38.9815
  0
LINE
  8
0
 10
1.26535
 20
38.9815
 11
1.03647
 21
38.9266
  0
LINE
  8
0
 10
1.03647
 20
38.9266
 11
0.819016
 21
38.8365
  0
LINE
  8
0
 10
0.819016
 20
38.8365
 11
0.618317
 21
38.7135
  0
LINE
  8
0
 10
0.618317
 20
38.7135
 11
0.439346
 21
38.5607
  0
LINE
  8
0
 10
0.439346
 20
38.5607
 11
0.286469
 21
38.3817
  0
LINE
  8
0
 10
0.286469
 20
38.3817
 11
0.163483
 21
38.181
  0
LINE
  8
0
 10
0.163483
 20
38.181
 11
0.07341
 21
37.9635
  0
LINE
  8
0
 10
0.07341
 20
37.9635
 11
0.0184631
 21
37.7346
  0
LINE
  8
0
 10
0.0184631
 20
37.7346
 11
0
 21
37.5
  0
LINE
  8
0
 10
0
 20
37.5
 11
0
 21
1.5
  0
LINE
  8
0
 10
0
 20
1.5
 11
0.0184631
 21
1.26535
  0
LINE
  8
0
 10
0.0184631
 20
1.26535
 11
0.07341
 21
1.03647
  0
LINE
  8
0
 10
0.07341
 20
1.03647
 11
0.163483
 21
0.819016
  0
LINE
  8
0
 10
0.163483
 20
0.819016
 11
0.286469
 21
0.618317
  0
LINE
  8
0
 10
0.286469
 20
0.618317
 11
0.439346
 21
0.439346
  0
LINE
  8
0
 10
0.439346
 20
0.439346
 11
0.618317
 21
0.286469
  0
LINE
  8
0
 10
0.618317
 20
0.286469
 11
0.819016
 21
0.163483
  0
LINE
  8
0
 10
0.819016
 20
0.163483
 11
1.03647
 21
0.07341
  0
LINE
  8
0
 10
1.03647
 20
0.07341
 11
1.26535
 21
0.0184631
  0
LINE
  8
0
 10
1.26535
 20
0.0184631
 11
1.5
 21
0
  0
LINE
  8
0
 10
1.5
 20
0
 11
55.5
 21
0
  0
LINE
  8
0
 10
55.5
 20
0
 11
55.7346
 21
0.0184631
  0
LINE
  8
0
 10
19.6228
 20
7.44774
 11
17.7918
 21
7.88731
  0
LINE
  8
0
 10
17.7918
 20
7.88731
 11
16.0521
 21
8.60791
  0
LINE
  8
0
 10
16.0521
 20
8.60791
 11
14.4466
 21
9.59178
  0
LINE
  8
0
 10
14.4466
 20
9.59178
 11
13.0147
 21
10.8147
  0
LINE
  8
0
 10
13.0147
 20
10.8147
 11
11.7918
 21
12.2466
  0
LINE
  8
0
 10
11.7918
 20
12.2466
 11
10.8079
 21
13.8521
  0
LINE
  8
0
 10
10.8079
 20
13.8521
 11
10.0873
 21
15.5918
  0
LINE
  8
0
 10
10.0873
 20
15.5918
 11
9.64774
 21
17.4228
  0
LINE
  8
0
 10
9.64774
 20
17.4228
 11
9.5
 21
19.3
  0
LINE
  8
0
 10
9.5
 20
19.3
 11
9.64774
 21
21.1772
  0
LINE
  8
0
 10
9.64774
 20
21.1772
 11
10.0873
 21
23.0082
  0
LINE
  8
0
 10
10.0873
 20
23.0082
 11
10.8079
 21
24.7479
  0
LINE
  8
0
 10
10.8079
 20
24.7479
 11
11.7918
 21
26.3534
  0
LINE
  8
0
 10
11.7918
 20
26.3534
 11
13.0147
 21
27.7853
  0
LINE
  8
0
 10
13.0147
 20
27.7853
 11
14.4466
 21
29.0082
  0
LINE
  8
0
 10
14.4466
 20
29.0082
 11
16.0521
 21
29.9921
  0
LINE
  8
0
 10
16.0521
 20
29.9921
 11
17.7918
 21
30.7127
  0
LINE
  8
0
 10
17.7918
 20
30.7127
 11
19.6228
 21
31.1523
  0
LINE
  8
0
 10
19.6228
 20
31.1523
 11
21.5
 21
31.3
  0
LINE
  8
0
 10
21.5
 20
31.3
 11
23.3772
 21
31.1523
  0
LINE
  8
0
 10
23.3772
 20
31.1523
 11
25.2082
 21
30.7127
  0
LINE
  8
0
 10
25.2082
 20
30.7127
 11
26.9479
 21
29.9921
  0
LINE
  8
0
 10
26.9479
 20
29.9921
 11
28.5534
 21
29.0082
  0
LINE
  8
0
 10
28.5534
 20
29.0082
 11
29.9853
 21
27.7853
  0
LINE
  8
0
 10
29.9853
 20
27.7853
 11
31.2082
 21
26.3534
  0
LINE
  8
0
 10
31.2082
 20
26.3534
 11
32.1921
 21
24.7479
  0
LINE
  8
0
 10
32.1921
 20
24.7479
 11
32.9127
 21
23.0082
  0
LINE
  8
0
 10
32.9127
 20
23.0082
 11
33.3522
 21
21.1772
  0
LINE
  8
0
 10
33.3522
 20
21.1772
 11
33.5
 21
19.3
  0
LINE
  8
0
 10
33.5
 20
19.3
 11
33.3522
 21
17.4228
  0
LINE
  8
0
 10
33.3522
 20
17.4228
 11
32.9127
 21
15.5918
  0
LINE
  8
0
 10
32.9127
 20
15.5918
 11
32.1921
 21
13.8521
  0
LINE
  8
0
 10
32.1921
 20
13.8521
 11
31.2082
 21
12.2466
  0
LINE
  8
0
 10
31.2082
 20
12.2466
 11
29.9853
 21
10.8147
  0
LINE
  8
0
 10
29.9853
 20
10.8147
 11
28.5534
 21
9.59178
  0
LINE
  8
0
 10
28.5534
 20
9.59178
 11
26.9479
 21
8.60791
  0
LINE
  8
0
 10
26.9479
 20
8.60791
 11
25.2082
 21
7.88731
  0
LINE
  8
0
 10
25.2082
 20
7.88731
 11
23.3772
 21
7.44774
  0
LINE
  8
0
 10
23.3772
 20
7.44774
 11
21.5
 21
7.29999
  0
LINE
  8
0
 10
21.5
 20
7.29999
 11
19.6228
 21
7.44774
  0
LINE
  8
0
 10
33.2497
 20
27.2197
 11
33.0056
 21
27.2783
  0
LINE
  8
0
 10
33.0056
 20
27.2783
 11
32.7736
 21
27.3744
  0
LINE
  8
0
 10
32.7736
 20
27.3744
 11
32.5595
 21
27.5056
  0
LINE
  8
0
 10
32.5595
 20
27.5056
 11
32.3686
 21
27.6686
  0
LINE
  8
0
 10
32.3686
 20
27.6686
 11
32.2056
 21
27.8595
  0
LINE
  8
0
 10
32.2056
 20
27.8595
 11
32.0744
 21
28.0736
  0
LINE
  8
0
 10
32.0744
 20
28.0736
 11
31.9783
 21
28.3056
  0
LINE
  8
0
 10
31.9783
 20
28.3056
 11
31.9197
 21
28.5497
  0
LINE
  8
0
 10
31.9197
 20
28.5497
 11
31.9
 21
28.8
  0
LINE
  8
0
 10
31.9
 20
28.8
 11
31.9197
 21
29.0503
  0
LINE
  8
0
 10
31.9197
 20
29.0503
 11
31.9783
 21
29.2944
  0
LINE
  8
0
 10
31.9783
 20
29.2944
 11
32.0744
 21
29.5264
  0
LINE
  8
0
 10
32.0744
 20
29.5264
 11
32.2056
 21
29.7404
  0
LINE
  8
0
 10
32.2056
 20
29.7404
 11
32.3686
 21
29.9314
  0
LINE
  8
0
 10
32.3686
 20
29.9314
 11
32.5595
 21
30.0944
  0
LINE
  8
0
 10
32.5595
 20
30.0944
 11
32.7736
 21
30.2256
  0
LINE
  8
0
 10
32.7736
 20
30.2256
 11
33.0056
 21
30.3217
  0
LINE
  8
0
 10
33.0056
 20
30.3217
 11
33.2497
 21
30.3803
  0
LINE
  8
0
 10
33.2497
 20
30.3803
 11
33.5
 21
30.4
  0
LINE
  8
0
 10
33.5
 20
30.4
 11
33.7503
 21
30.3803
  0
LINE
  8
0
 10
33.7503
 20
30.3803
 11
33.9944
 21
30.3217
  0
LINE
  8
0
 10
33.9944
 20
30.3217
 11
34.2264
 21
30.2256
  0
LINE
  8
0
 10
34.2264
 20
30.2256
 11
34.4404
 21
30.0944
  0
LINE
  8
0
 10
34.4404
 20
30.0944
 11
34.6314
 21
29.9314
  0
LINE
  8
0
 10
34.6314
 20
29.9314
 11
34.7944
 21
29.7404
  0
LINE
  8
0
 10
34.7944
 20
29.7404
 11
34.9256
 21
29.5264
  0
LINE
  8
0
 10
34.9256
 20
29.5264
 11
35.0217
 21
29.2944
  0
LINE
  8
0
 10
35.0217
 20
29.2944
 11
35.0803
 21
29.0503
  0
LINE
  8
0
 10
35.0803
 20
29.0503
 11
35.1
 21
28.8
  0
LINE
  8
0
 10
35.1
 20
28.8
 11
35.0803
 21
28.5497
  0
LINE
  8
0
 10
35.0803
 20
28.5497
 11
35.0217
 21
28.3056
  0
LINE
  8
0
 10
35.0217
 20
28.3056
 11
34.9256
 21
28.0736
  0
LINE
  8
0
 10
34.9256
 20
28.0736
 11
34.7944
 21
27.8595
  0
LINE
  8
0
 10
34.7944
 20
27.8595
 11
34.6314
 21
27.6686
  0
LINE
  8
0
 10
34.6314
 20
27.6686
 11
34.4404
 21
27.5056
  0
LINE
  8
0
 10
34.4404
 20
27.5056
 11
34.2264
 21
27.3744
  0
LINE
  8
0
 10
34.2264
 20
27.3744
 11
33.9944
 21
27.2783
  0
LINE
  8
0
 10
33.9944
 20
27.2783
 11
33.7503
 21
27.2197
  0
LINE
  8
0
 10
33.7503
 20
27.2197
 11
33.5
 21
27.2
  0
LINE
  8
0
 10
33.5
 20
27.2
 11
33.2497
 21
27.2197
  0
LINE
  8
0
 10
38.5
 20
15.4
 11
38.5
 21
22.4
  0
LINE
  8
0
 10
38.5
 20
22.4
 11
51
 21
22.4
  0
LINE
  8
0
 10
51
 20
22.4
 11
51
 21
15.4
  0
LINE
  8
0
 10
51
 20
15.4
 11
38.5
 21
15.4
  0
LINE
  8
0
 10
9.24969
 20
8.2197
 11
9.00557
 21
8.27831
  0
LINE
  8
0
 10
9.00557
 20
8.27831
 11
8.77361
 21
8.37437
  0
LINE
  8
0
 10
8.77361
 20
8.37437
 11
8.55954
 21
8.50557
  0
LINE
  8
0
 10
8.55954
 20
8.50557
 11
8.36862
 21
8.66862
  0
LINE
  8
0
 10
8.36862
 20
8.66862
 11
8.20557
 21
8.85954
  0
LINE
  8
0
 10
8.20557
 20
8.85954
 11
8.07439
 21
9.07361
  0
LINE
  8
0
 10
8.07439
 20
9.07361
 11
7.9783
 21
9.30557
  0
LINE
  8
0
 10
7.9783
 20
9.30557
 11
7.91969
 21
9.5497
  0
LINE
  8
0
 10
7.91969
 20
9.5497
 11
7.89999
 21
9.79999
  0
LINE
  8
0
 10
7.89999
 20
9.79999
 11
7.91969
 21
10.0503
  0
LINE
  8
0
 10
7.91969
 20
10.0503
 11
7.9783
 21
10.2944
  0
LINE
  8
0
 10
7.9783
 20
10.2944
 11
8.07439
 21
10.5264
  0
LINE
  8
0
 10
8.07439
 20
10.5264
 11
8.20557
 21
10.7404
  0
LINE
  8
0
 10
8.20557
 20
10.7404
 11
8.36862
 21
10.9314
  0
LINE
  8
0
 10
8.36862
 20
10.9314
 11
8.55954
 21
11.0944
  0
LINE
  8
0
 10
8.55954
 20
11.0944
 11
8.77361
 21
11.2256
  0
LINE
  8
0
 10
8.77361
 20
11.2256
 11
9.00557
 21
11.3217
  0
LINE
  8
0
 10
9.00557
 20
11.3217
 11
9.24969
 21
11.3803
  0
LINE
  8
0
 10
9.24969
 20
11.3803
 11
9.5
 21
11.4
  0
LINE
  8
0
 10
9.5
 20
11.4
 11
9.75029
 21
11.3803
  0
LINE
  8
0
 10
9.75029
 20
11.3803
 11
9.99442
 21
11.3217
  0
LINE
  8
0
 10
9.99442
 20
11.3217
 11
10.2264
 21
11.2256
  0
LINE
  8
0
 10
10.2264
 20
11.2256
 11
10.4404
 21
11.0944
  0
LINE
  8
0
 10
10.4404
 20
11.0944
 11
10.6314
 21
10.9314
  0
LINE
  8
0
 10
10.6314
 20
10.9314
 11
10.7944
 21
10.7404
  0
LINE
  8
0
 10
10.7944
 20
10.7404
 11
10.9256
 21
10.5264
  0
LINE
  8
0
 10
10.9256
 20
10.5264
 11
11.0217
 21
10.2944
  0
LINE
  8
0
 10
11.0217
 20
10.2944
 11
11.0803
 21
10.0503
  0
LINE
  8
0
 10
11.0803
 20
10.0503
 11
11.1
 21
9.79999
  0
LINE
  8
0
 10
11.1
 20
9.79999
 11
11.0803
 21
9.5497
  0
LINE
  8
0
 10
11.0803
 20
9.5497
 11
11.0217
 21
9.30557
  0
LINE
  8
0
 10
11.0217
 20
9.30557
 11
10.9256
 21
9.07361
  0
LINE
  8
0
 10
10.9256
 20
9.07361
 11
10.7944
 21
8.85954
  0
LINE
  8
0
 10
10.7944
 20
8.85954
 11
10.6314
 21
8.66862
  0
LINE
  8
0
 10
10.6314
 20
8.66862
 11
10.4404
 21
8.50557
  0
LINE
  8
0
 10
10.4404
 20
8.50557
 11
10.2264
 21
8.37437
  0
LINE
  8
0
 10
10.2264
 20
8.37437
 11
9.99442
 21
8.27831
  0
LINE
  8
0
 10
9.99442
 20
8.27831
 11
9.75029
 21
8.2197
  0
LINE
  8
0
 10
9.75029
 20
8.2197
 11
9.5
 21
8.2
  0
LINE
  8
0
 10
9.5
 20
8.2
 11
9.24969
 21
8.2197
  0
ENDSEC
  0
SECTION
  2
OBJECTS
  0
DICTIONARY
  0
ENDSEC
  0
EOF
