  0
SECTION
  2
BLOCKS
  0
ENDSEC
  0
SECTION
  2
ENTITIES
  0
LINE
  8
0
 10
208.25
 20
18.25
 11
208.25
 21
38.75
  0
LINE
  8
0
 10
208.25
 20
38.75
 11
168.25
 21
48.75
  0
LINE
  8
0
 10
168.25
 20
48.75
 11
147.75
 21
48.75
  0
LINE
  8
0
 10
147.75
 20
48.75
 11
147.75
 21
8.25
  0
LINE
  8
0
 10
147.75
 20
8.25
 11
168.25
 21
8.25
  0
LINE
  8
0
 10
168.25
 20
8.25
 11
208.25
 21
18.25
  0
LINE
  8
0
 10
151
 20
31.5
 11
151
 21
45.5
  0
LINE
  8
0
 10
151
 20
45.5
 11
165
 21
45.5
  0
LINE
  8
0
 10
165
 20
45.5
 11
165
 21
31.5
  0
LINE
  8
0
 10
165
 20
31.5
 11
151
 21
31.5
  0
LINE
  8
0
 10
191
 20
21.5
 11
191
 21
35.5
  0
LINE
  8
0
 10
191
 20
35.5
 11
205
 21
35.5
  0
LINE
  8
0
 10
205
 20
35.5
 11
205
 21
21.5
  0
LINE
  8
0
 10
205
 20
21.5
 11
191
 21
21.5
  0
LINE
  8
0
 10
151
 20
11.5
 11
151
 21
25.5
  0
LINE
  8
0
 10
151
 20
25.5
 11
165
 21
25.5
  0
LINE
  8
0
 10
165
 20
25.5
 11
165
 21
11.5
  0
LINE
  8
0
 10
165
 20
11.5
 11
151
 21
11.5
  0
LINE
  8
0
 10
120.25
 20
38.75
 11
19.75
 21
38.75
  0
LINE
  8
0
 10
19.75
 20
38.75
 11
19.75
 21
18.25
  0
LINE
  8
0
 10
19.75
 20
18.25
 11
120.25
 21
18.25
  0
LINE
  8
0
 10
120.25
 20
18.25
 11
120.25
 21
38.75
  0
LINE
  8
0
 10
23
 20
21.5
 11
23
 21
35.5
  0
LINE
  8
0
 10
23
 20
35.5
 11
37
 21
35.5
  0
LINE
  8
0
 10
37
 20
35.5
 11
37
 21
21.5
  0
LINE
  8
0
 10
37
 20
21.5
 11
23
 21
21.5
  0
LINE
  8
0
 10
43
 20
21.5
 11
43
 21
35.5
  0
LINE
  8
0
 10
43
 20
35.5
 11
57
 21
35.5
  0
LINE
  8
0
 10
57
 20
35.5
 11
57
 21
21.5
  0
LINE
  8
0
 10
57
 20
21.5
 11
43
 21
21.5
  0
LINE
  8
0
 10
83
 20
21.5
 11
83
 21
35.5
  0
LINE
  8
0
 10
83
 20
35.5
 11
97
 21
35.5
  0
LINE
  8
0
 10
97
 20
35.5
 11
97
 21
21.5
  0
LINE
  8
0
 10
97
 20
21.5
 11
83
 21
21.5
  0
LINE
  8
0
 10
103
 20
21.5
 11
103
 21
35.5
  0
LINE
  8
0
 10
103
 20
35.5
 11
117
 21
35.5
  0
LINE
  8
0
 10
117
 20
35.5
 11
117
 21
21.5
  0
LINE
  8
0
 10
117
 20
21.5
 11
103
 21
21.5
  0
ENDSEC
  0
SECTION
  2
OBJECTS
  0
DICTIONARY
  0
ENDSEC
  0
EOF
