  0
SECTION
  2
BLOCKS
  0
ENDSEC
  0
SECTION
  2
ENTITIES
  0
LINE
  8
0
 10
265.914
 20
18.25
 11
265.914
 21
38.75
  0
LINE
  8
0
 10
265.914
 20
38.75
 11
234.581
 21
50.5
  0
LINE
  8
0
 10
234.581
 20
50.5
 11
212.997
 21
50.5
  0
LINE
  8
0
 10
212.997
 20
50.5
 11
193.414
 21
38.75
  0
LINE
  8
0
 10
193.414
 20
38.75
 11
193.414
 21
18.25
  0
LINE
  8
0
 10
193.414
 20
18.25
 11
212.997
 21
6.5
  0
LINE
  8
0
 10
212.997
 20
6.5
 11
234.581
 21
6.5
  0
LINE
  8
0
 10
234.581
 20
6.5
 11
265.914
 21
18.25
  0
LINE
  8
0
 10
216.664
 20
33.5
 11
216.664
 21
47.5
  0
LINE
  8
0
 10
216.664
 20
47.5
 11
230.664
 21
47.5
  0
LINE
  8
0
 10
230.664
 20
47.5
 11
230.664
 21
33.5
  0
LINE
  8
0
 10
230.664
 20
33.5
 11
216.664
 21
33.5
  0
LINE
  8
0
 10
248.664
 20
21.5
 11
248.664
 21
35.5
  0
LINE
  8
0
 10
248.664
 20
35.5
 11
262.664
 21
35.5
  0
LINE
  8
0
 10
262.664
 20
35.5
 11
262.664
 21
21.5
  0
LINE
  8
0
 10
262.664
 20
21.5
 11
248.664
 21
21.5
  0
LINE
  8
0
 10
196.664
 20
21.5
 11
196.664
 21
35.5
  0
LINE
  8
0
 10
196.664
 20
35.5
 11
210.664
 21
35.5
  0
LINE
  8
0
 10
210.664
 20
35.5
 11
210.664
 21
21.5
  0
LINE
  8
0
 10
210.664
 20
21.5
 11
196.664
 21
21.5
  0
LINE
  8
0
 10
216.664
 20
9.5
 11
216.664
 21
23.5
  0
LINE
  8
0
 10
216.664
 20
23.5
 11
230.664
 21
23.5
  0
LINE
  8
0
 10
230.664
 20
23.5
 11
230.664
 21
9.5
  0
LINE
  8
0
 10
230.664
 20
9.5
 11
216.664
 21
9.5
  0
LINE
  8
0
 10
152.782
 20
47.75
 11
75.282
 21
47.75
  0
LINE
  8
0
 10
75.282
 20
47.75
 11
75.282
 21
8.25
  0
LINE
  8
0
 10
75.282
 20
8.25
 11
152.782
 21
8.25
  0
LINE
  8
0
 10
152.782
 20
8.25
 11
152.782
 21
47.75
  0
LINE
  8
0
 10
78.532
 20
30.5
 11
78.532
 21
44.5
  0
LINE
  8
0
 10
78.532
 20
44.5
 11
92.532
 21
44.5
  0
LINE
  8
0
 10
92.532
 20
44.5
 11
92.532
 21
30.5
  0
LINE
  8
0
 10
92.532
 20
30.5
 11
78.532
 21
30.5
  0
LINE
  8
0
 10
135.532
 20
30.5
 11
135.532
 21
44.5
  0
LINE
  8
0
 10
135.532
 20
44.5
 11
149.532
 21
44.5
  0
LINE
  8
0
 10
149.532
 20
44.5
 11
149.532
 21
30.5
  0
LINE
  8
0
 10
149.532
 20
30.5
 11
135.532
 21
30.5
  0
LINE
  8
0
 10
97.532
 20
28.8205
 11
97.532
 21
42.8205
  0
LINE
  8
0
 10
97.532
 20
42.8205
 11
111.532
 21
42.8205
  0
LINE
  8
0
 10
111.532
 20
42.8205
 11
111.532
 21
28.8205
  0
LINE
  8
0
 10
111.532
 20
28.8205
 11
97.532
 21
28.8205
  0
LINE
  8
0
 10
116.532
 20
28.8205
 11
116.532
 21
42.8205
  0
LINE
  8
0
 10
116.532
 20
42.8205
 11
130.532
 21
42.8205
  0
LINE
  8
0
 10
130.532
 20
42.8205
 11
130.532
 21
28.8205
  0
LINE
  8
0
 10
130.532
 20
28.8205
 11
116.532
 21
28.8205
  0
LINE
  8
0
 10
78.532
 20
11.5
 11
78.532
 21
25.5
  0
LINE
  8
0
 10
78.532
 20
25.5
 11
92.532
 21
25.5
  0
LINE
  8
0
 10
92.532
 20
25.5
 11
92.532
 21
11.5
  0
LINE
  8
0
 10
92.532
 20
11.5
 11
78.532
 21
11.5
  0
LINE
  8
0
 10
135.532
 20
11.5
 11
135.532
 21
25.5
  0
LINE
  8
0
 10
135.532
 20
25.5
 11
149.532
 21
25.5
  0
LINE
  8
0
 10
149.532
 20
25.5
 11
149.532
 21
11.5
  0
LINE
  8
0
 10
149.532
 20
11.5
 11
135.532
 21
11.5
  0
ENDSEC
  0
SECTION
  2
OBJECTS
  0
DICTIONARY
  0
ENDSEC
  0
EOF
