  0
SECTION
  2
BLOCKS
  0
ENDSEC
  0
SECTION
  2
ENTITIES
  0
LINE
  8
0
 10
214.85
 20
18.25
 11
214.85
 21
38.75
  0
LINE
  8
0
 10
214.85
 20
38.75
 11
183.517
 21
50.5
  0
LINE
  8
0
 10
183.517
 20
50.5
 11
161.933
 21
50.5
  0
LINE
  8
0
 10
161.933
 20
50.5
 11
142.35
 21
38.75
  0
LINE
  8
0
 10
142.35
 20
38.75
 11
142.35
 21
18.25
  0
LINE
  8
0
 10
142.35
 20
18.25
 11
161.933
 21
6.5
  0
LINE
  8
0
 10
161.933
 20
6.5
 11
183.517
 21
6.5
  0
LINE
  8
0
 10
183.517
 20
6.5
 11
214.85
 21
18.25
  0
LINE
  8
0
 10
165.6
 20
33.5
 11
165.6
 21
47.5
  0
LINE
  8
0
 10
165.6
 20
47.5
 11
179.6
 21
47.5
  0
LINE
  8
0
 10
179.6
 20
47.5
 11
179.6
 21
33.5
  0
LINE
  8
0
 10
179.6
 20
33.5
 11
165.6
 21
33.5
  0
LINE
  8
0
 10
197.6
 20
21.5
 11
197.6
 21
35.5
  0
LINE
  8
0
 10
197.6
 20
35.5
 11
211.6
 21
35.5
  0
LINE
  8
0
 10
211.6
 20
35.5
 11
211.6
 21
21.5
  0
LINE
  8
0
 10
211.6
 20
21.5
 11
197.6
 21
21.5
  0
LINE
  8
0
 10
145.6
 20
21.5
 11
145.6
 21
35.5
  0
LINE
  8
0
 10
145.6
 20
35.5
 11
159.6
 21
35.5
  0
LINE
  8
0
 10
159.6
 20
35.5
 11
159.6
 21
21.5
  0
LINE
  8
0
 10
159.6
 20
21.5
 11
145.6
 21
21.5
  0
LINE
  8
0
 10
165.6
 20
9.5
 11
165.6
 21
23.5
  0
LINE
  8
0
 10
165.6
 20
23.5
 11
179.6
 21
23.5
  0
LINE
  8
0
 10
179.6
 20
23.5
 11
179.6
 21
9.5
  0
LINE
  8
0
 10
179.6
 20
9.5
 11
165.6
 21
9.5
  0
LINE
  8
0
 10
127.25
 20
47.75
 11
49.75
 21
47.75
  0
LINE
  8
0
 10
49.75
 20
47.75
 11
49.75
 21
8.25
  0
LINE
  8
0
 10
49.75
 20
8.25
 11
127.25
 21
8.25
  0
LINE
  8
0
 10
127.25
 20
8.25
 11
127.25
 21
47.75
  0
LINE
  8
0
 10
53
 20
30.5
 11
53
 21
44.5
  0
LINE
  8
0
 10
53
 20
44.5
 11
67
 21
44.5
  0
LINE
  8
0
 10
67
 20
44.5
 11
67
 21
30.5
  0
LINE
  8
0
 10
67
 20
30.5
 11
53
 21
30.5
  0
LINE
  8
0
 10
110
 20
30.5
 11
110
 21
44.5
  0
LINE
  8
0
 10
110
 20
44.5
 11
124
 21
44.5
  0
LINE
  8
0
 10
124
 20
44.5
 11
124
 21
30.5
  0
LINE
  8
0
 10
124
 20
30.5
 11
110
 21
30.5
  0
LINE
  8
0
 10
72
 20
28.8205
 11
72
 21
42.8205
  0
LINE
  8
0
 10
72
 20
42.8205
 11
86
 21
42.8205
  0
LINE
  8
0
 10
86
 20
42.8205
 11
86
 21
28.8205
  0
LINE
  8
0
 10
86
 20
28.8205
 11
72
 21
28.8205
  0
LINE
  8
0
 10
91
 20
28.8205
 11
91
 21
42.8205
  0
LINE
  8
0
 10
91
 20
42.8205
 11
105
 21
42.8205
  0
LINE
  8
0
 10
105
 20
42.8205
 11
105
 21
28.8205
  0
LINE
  8
0
 10
105
 20
28.8205
 11
91
 21
28.8205
  0
LINE
  8
0
 10
53
 20
11.5
 11
53
 21
25.5
  0
LINE
  8
0
 10
53
 20
25.5
 11
67
 21
25.5
  0
LINE
  8
0
 10
67
 20
25.5
 11
67
 21
11.5
  0
LINE
  8
0
 10
67
 20
11.5
 11
53
 21
11.5
  0
LINE
  8
0
 10
110
 20
11.5
 11
110
 21
25.5
  0
LINE
  8
0
 10
110
 20
25.5
 11
124
 21
25.5
  0
LINE
  8
0
 10
124
 20
25.5
 11
124
 21
11.5
  0
LINE
  8
0
 10
124
 20
11.5
 11
110
 21
11.5
  0
ENDSEC
  0
SECTION
  2
OBJECTS
  0
DICTIONARY
  0
ENDSEC
  0
EOF
