  0
SECTION
  2
BLOCKS
  0
ENDSEC
  0
SECTION
  2
ENTITIES
  0
LINE
  8
0
 10
292.85
 20
18.25
 11
292.85
 21
38.75
  0
LINE
  8
0
 10
292.85
 20
38.75
 11
261.517
 21
50.5
  0
LINE
  8
0
 10
261.517
 20
50.5
 11
239.933
 21
50.5
  0
LINE
  8
0
 10
239.933
 20
50.5
 11
220.35
 21
38.75
  0
LINE
  8
0
 10
220.35
 20
38.75
 11
220.35
 21
18.25
  0
LINE
  8
0
 10
220.35
 20
18.25
 11
239.933
 21
6.5
  0
LINE
  8
0
 10
239.933
 20
6.5
 11
261.517
 21
6.5
  0
LINE
  8
0
 10
261.517
 20
6.5
 11
292.85
 21
18.25
  0
LINE
  8
0
 10
243.6
 20
33.5
 11
243.6
 21
47.5
  0
LINE
  8
0
 10
243.6
 20
47.5
 11
257.6
 21
47.5
  0
LINE
  8
0
 10
257.6
 20
47.5
 11
257.6
 21
33.5
  0
LINE
  8
0
 10
257.6
 20
33.5
 11
243.6
 21
33.5
  0
LINE
  8
0
 10
275.6
 20
21.5
 11
275.6
 21
35.5
  0
LINE
  8
0
 10
275.6
 20
35.5
 11
289.6
 21
35.5
  0
LINE
  8
0
 10
289.6
 20
35.5
 11
289.6
 21
21.5
  0
LINE
  8
0
 10
289.6
 20
21.5
 11
275.6
 21
21.5
  0
LINE
  8
0
 10
223.6
 20
21.5
 11
223.6
 21
35.5
  0
LINE
  8
0
 10
223.6
 20
35.5
 11
237.6
 21
35.5
  0
LINE
  8
0
 10
237.6
 20
35.5
 11
237.6
 21
21.5
  0
LINE
  8
0
 10
237.6
 20
21.5
 11
223.6
 21
21.5
  0
LINE
  8
0
 10
243.6
 20
9.5
 11
243.6
 21
23.5
  0
LINE
  8
0
 10
243.6
 20
23.5
 11
257.6
 21
23.5
  0
LINE
  8
0
 10
257.6
 20
23.5
 11
257.6
 21
9.5
  0
LINE
  8
0
 10
257.6
 20
9.5
 11
243.6
 21
9.5
  0
LINE
  8
0
 10
206.25
 20
28.75
 11
168.25
 21
46.0705
  0
LINE
  8
0
 10
168.25
 20
46.0705
 11
128.75
 21
46.0705
  0
LINE
  8
0
 10
128.75
 20
46.0705
 11
90.75
 21
28.75
  0
LINE
  8
0
 10
90.75
 20
28.75
 11
90.75
 21
8.25
  0
LINE
  8
0
 10
90.75
 20
8.25
 11
206.25
 21
8.25
  0
LINE
  8
0
 10
206.25
 20
8.25
 11
206.25
 21
28.75
  0
LINE
  8
0
 10
132
 20
28.8205
 11
132
 21
42.8205
  0
LINE
  8
0
 10
132
 20
42.8205
 11
146
 21
42.8205
  0
LINE
  8
0
 10
146
 20
42.8205
 11
146
 21
28.8205
  0
LINE
  8
0
 10
146
 20
28.8205
 11
132
 21
28.8205
  0
LINE
  8
0
 10
151
 20
28.8205
 11
151
 21
42.8205
  0
LINE
  8
0
 10
151
 20
42.8205
 11
165
 21
42.8205
  0
LINE
  8
0
 10
165
 20
42.8205
 11
165
 21
28.8205
  0
LINE
  8
0
 10
165
 20
28.8205
 11
151
 21
28.8205
  0
LINE
  8
0
 10
113
 20
11.5
 11
113
 21
25.5
  0
LINE
  8
0
 10
113
 20
25.5
 11
127
 21
25.5
  0
LINE
  8
0
 10
127
 20
25.5
 11
127
 21
11.5
  0
LINE
  8
0
 10
127
 20
11.5
 11
113
 21
11.5
  0
LINE
  8
0
 10
170
 20
11.5
 11
170
 21
25.5
  0
LINE
  8
0
 10
170
 20
25.5
 11
184
 21
25.5
  0
LINE
  8
0
 10
184
 20
25.5
 11
184
 21
11.5
  0
LINE
  8
0
 10
184
 20
11.5
 11
170
 21
11.5
  0
LINE
  8
0
 10
94
 20
11.5
 11
94
 21
25.5
  0
LINE
  8
0
 10
94
 20
25.5
 11
108
 21
25.5
  0
LINE
  8
0
 10
108
 20
25.5
 11
108
 21
11.5
  0
LINE
  8
0
 10
108
 20
11.5
 11
94
 21
11.5
  0
LINE
  8
0
 10
189
 20
11.5
 11
189
 21
25.5
  0
LINE
  8
0
 10
189
 20
25.5
 11
203
 21
25.5
  0
LINE
  8
0
 10
203
 20
25.5
 11
203
 21
11.5
  0
LINE
  8
0
 10
203
 20
11.5
 11
189
 21
11.5
  0
ENDSEC
  0
SECTION
  2
OBJECTS
  0
DICTIONARY
  0
ENDSEC
  0
EOF
