  0
SECTION
  2
BLOCKS
  0
ENDSEC
  0
SECTION
  2
ENTITIES
  0
LINE
  8
0
 10
304.682
 20
18.25
 11
304.682
 21
38.75
  0
LINE
  8
0
 10
304.682
 20
38.75
 11
273.349
 21
50.5
  0
LINE
  8
0
 10
273.349
 20
50.5
 11
251.765
 21
50.5
  0
LINE
  8
0
 10
251.765
 20
50.5
 11
232.182
 21
38.75
  0
LINE
  8
0
 10
232.182
 20
38.75
 11
232.182
 21
18.25
  0
LINE
  8
0
 10
232.182
 20
18.25
 11
251.765
 21
6.5
  0
LINE
  8
0
 10
251.765
 20
6.5
 11
273.349
 21
6.5
  0
LINE
  8
0
 10
273.349
 20
6.5
 11
304.682
 21
18.25
  0
LINE
  8
0
 10
255.432
 20
33.5
 11
255.432
 21
47.5
  0
LINE
  8
0
 10
255.432
 20
47.5
 11
269.432
 21
47.5
  0
LINE
  8
0
 10
269.432
 20
47.5
 11
269.432
 21
33.5
  0
LINE
  8
0
 10
269.432
 20
33.5
 11
255.432
 21
33.5
  0
LINE
  8
0
 10
287.432
 20
21.5
 11
287.432
 21
35.5
  0
LINE
  8
0
 10
287.432
 20
35.5
 11
301.432
 21
35.5
  0
LINE
  8
0
 10
301.432
 20
35.5
 11
301.432
 21
21.5
  0
LINE
  8
0
 10
301.432
 20
21.5
 11
287.432
 21
21.5
  0
LINE
  8
0
 10
235.432
 20
21.5
 11
235.432
 21
35.5
  0
LINE
  8
0
 10
235.432
 20
35.5
 11
249.432
 21
35.5
  0
LINE
  8
0
 10
249.432
 20
35.5
 11
249.432
 21
21.5
  0
LINE
  8
0
 10
249.432
 20
21.5
 11
235.432
 21
21.5
  0
LINE
  8
0
 10
255.432
 20
9.5
 11
255.432
 21
23.5
  0
LINE
  8
0
 10
255.432
 20
23.5
 11
269.432
 21
23.5
  0
LINE
  8
0
 10
269.432
 20
23.5
 11
269.432
 21
9.5
  0
LINE
  8
0
 10
269.432
 20
9.5
 11
255.432
 21
9.5
  0
LINE
  8
0
 10
152.782
 20
47.75
 11
75.282
 21
47.75
  0
LINE
  8
0
 10
75.282
 20
47.75
 11
75.282
 21
8.25
  0
LINE
  8
0
 10
75.282
 20
8.25
 11
152.782
 21
8.25
  0
LINE
  8
0
 10
152.782
 20
8.25
 11
152.782
 21
47.75
  0
LINE
  8
0
 10
78.532
 20
30.5
 11
78.532
 21
44.5
  0
LINE
  8
0
 10
78.532
 20
44.5
 11
92.532
 21
44.5
  0
LINE
  8
0
 10
92.532
 20
44.5
 11
92.532
 21
30.5
  0
LINE
  8
0
 10
92.532
 20
30.5
 11
78.532
 21
30.5
  0
LINE
  8
0
 10
135.532
 20
30.5
 11
135.532
 21
44.5
  0
LINE
  8
0
 10
135.532
 20
44.5
 11
149.532
 21
44.5
  0
LINE
  8
0
 10
149.532
 20
44.5
 11
149.532
 21
30.5
  0
LINE
  8
0
 10
149.532
 20
30.5
 11
135.532
 21
30.5
  0
LINE
  8
0
 10
97.532
 20
28.8205
 11
97.532
 21
42.8205
  0
LINE
  8
0
 10
97.532
 20
42.8205
 11
111.532
 21
42.8205
  0
LINE
  8
0
 10
111.532
 20
42.8205
 11
111.532
 21
28.8205
  0
LINE
  8
0
 10
111.532
 20
28.8205
 11
97.532
 21
28.8205
  0
LINE
  8
0
 10
116.532
 20
28.8205
 11
116.532
 21
42.8205
  0
LINE
  8
0
 10
116.532
 20
42.8205
 11
130.532
 21
42.8205
  0
LINE
  8
0
 10
130.532
 20
42.8205
 11
130.532
 21
28.8205
  0
LINE
  8
0
 10
130.532
 20
28.8205
 11
116.532
 21
28.8205
  0
LINE
  8
0
 10
78.532
 20
11.5
 11
78.532
 21
25.5
  0
LINE
  8
0
 10
78.532
 20
25.5
 11
92.532
 21
25.5
  0
LINE
  8
0
 10
92.532
 20
25.5
 11
92.532
 21
11.5
  0
LINE
  8
0
 10
92.532
 20
11.5
 11
78.532
 21
11.5
  0
LINE
  8
0
 10
135.532
 20
11.5
 11
135.532
 21
25.5
  0
LINE
  8
0
 10
135.532
 20
25.5
 11
149.532
 21
25.5
  0
LINE
  8
0
 10
149.532
 20
25.5
 11
149.532
 21
11.5
  0
LINE
  8
0
 10
149.532
 20
11.5
 11
135.532
 21
11.5
  0
ENDSEC
  0
SECTION
  2
OBJECTS
  0
DICTIONARY
  0
ENDSEC
  0
EOF
