  0
SECTION
  2
BLOCKS
  0
ENDSEC
  0
SECTION
  2
ENTITIES
  0
LINE
  8
0
 10
208.25
 20
18.25
 11
208.25
 21
38.75
  0
LINE
  8
0
 10
208.25
 20
38.75
 11
169.083
 21
50.5
  0
LINE
  8
0
 10
169.083
 20
50.5
 11
147.75
 21
50.5
  0
LINE
  8
0
 10
147.75
 20
50.5
 11
147.75
 21
6.5
  0
LINE
  8
0
 10
147.75
 20
6.5
 11
169.083
 21
6.5
  0
LINE
  8
0
 10
169.083
 20
6.5
 11
208.25
 21
18.25
  0
LINE
  8
0
 10
151
 20
33.5
 11
151
 21
47.5
  0
LINE
  8
0
 10
151
 20
47.5
 11
165
 21
47.5
  0
LINE
  8
0
 10
165
 20
47.5
 11
165
 21
33.5
  0
LINE
  8
0
 10
165
 20
33.5
 11
151
 21
33.5
  0
LINE
  8
0
 10
191
 20
21.5
 11
191
 21
35.5
  0
LINE
  8
0
 10
191
 20
35.5
 11
205
 21
35.5
  0
LINE
  8
0
 10
205
 20
35.5
 11
205
 21
21.5
  0
LINE
  8
0
 10
205
 20
21.5
 11
191
 21
21.5
  0
LINE
  8
0
 10
151
 20
9.5
 11
151
 21
23.5
  0
LINE
  8
0
 10
151
 20
23.5
 11
165
 21
23.5
  0
LINE
  8
0
 10
165
 20
23.5
 11
165
 21
9.5
  0
LINE
  8
0
 10
165
 20
9.5
 11
151
 21
9.5
  0
LINE
  8
0
 10
122.25
 20
38.75
 11
17.75
 21
38.75
  0
LINE
  8
0
 10
17.75
 20
38.75
 11
17.75
 21
18.25
  0
LINE
  8
0
 10
17.75
 20
18.25
 11
122.25
 21
18.25
  0
LINE
  8
0
 10
122.25
 20
18.25
 11
122.25
 21
38.75
  0
LINE
  8
0
 10
21
 20
21.5
 11
21
 21
35.5
  0
LINE
  8
0
 10
21
 20
35.5
 11
35
 21
35.5
  0
LINE
  8
0
 10
35
 20
35.5
 11
35
 21
21.5
  0
LINE
  8
0
 10
35
 20
21.5
 11
21
 21
21.5
  0
LINE
  8
0
 10
43
 20
21.5
 11
43
 21
35.5
  0
LINE
  8
0
 10
43
 20
35.5
 11
57
 21
35.5
  0
LINE
  8
0
 10
57
 20
35.5
 11
57
 21
21.5
  0
LINE
  8
0
 10
57
 20
21.5
 11
43
 21
21.5
  0
LINE
  8
0
 10
83
 20
21.5
 11
83
 21
35.5
  0
LINE
  8
0
 10
83
 20
35.5
 11
97
 21
35.5
  0
LINE
  8
0
 10
97
 20
35.5
 11
97
 21
21.5
  0
LINE
  8
0
 10
97
 20
21.5
 11
83
 21
21.5
  0
LINE
  8
0
 10
105
 20
21.5
 11
105
 21
35.5
  0
LINE
  8
0
 10
105
 20
35.5
 11
119
 21
35.5
  0
LINE
  8
0
 10
119
 20
35.5
 11
119
 21
21.5
  0
LINE
  8
0
 10
119
 20
21.5
 11
105
 21
21.5
  0
ENDSEC
  0
SECTION
  2
OBJECTS
  0
DICTIONARY
  0
ENDSEC
  0
EOF
