  0
SECTION
  2
BLOCKS
  0
ENDSEC
  0
SECTION
  2
ENTITIES
  0
LINE
  8
0
 10
267.95
 20
18.25
 11
267.95
 21
38.75
  0
LINE
  8
0
 10
267.95
 20
38.75
 11
236.617
 21
50.5
  0
LINE
  8
0
 10
236.617
 20
50.5
 11
215.033
 21
50.5
  0
LINE
  8
0
 10
215.033
 20
50.5
 11
195.45
 21
38.75
  0
LINE
  8
0
 10
195.45
 20
38.75
 11
195.45
 21
18.25
  0
LINE
  8
0
 10
195.45
 20
18.25
 11
215.033
 21
6.5
  0
LINE
  8
0
 10
215.033
 20
6.5
 11
236.617
 21
6.5
  0
LINE
  8
0
 10
236.617
 20
6.5
 11
267.95
 21
18.25
  0
LINE
  8
0
 10
218.7
 20
33.5
 11
218.7
 21
47.5
  0
LINE
  8
0
 10
218.7
 20
47.5
 11
232.7
 21
47.5
  0
LINE
  8
0
 10
232.7
 20
47.5
 11
232.7
 21
33.5
  0
LINE
  8
0
 10
232.7
 20
33.5
 11
218.7
 21
33.5
  0
LINE
  8
0
 10
250.7
 20
21.5
 11
250.7
 21
35.5
  0
LINE
  8
0
 10
250.7
 20
35.5
 11
264.7
 21
35.5
  0
LINE
  8
0
 10
264.7
 20
35.5
 11
264.7
 21
21.5
  0
LINE
  8
0
 10
264.7
 20
21.5
 11
250.7
 21
21.5
  0
LINE
  8
0
 10
198.7
 20
21.5
 11
198.7
 21
35.5
  0
LINE
  8
0
 10
198.7
 20
35.5
 11
212.7
 21
35.5
  0
LINE
  8
0
 10
212.7
 20
35.5
 11
212.7
 21
21.5
  0
LINE
  8
0
 10
212.7
 20
21.5
 11
198.7
 21
21.5
  0
LINE
  8
0
 10
218.7
 20
9.5
 11
218.7
 21
23.5
  0
LINE
  8
0
 10
218.7
 20
23.5
 11
232.7
 21
23.5
  0
LINE
  8
0
 10
232.7
 20
23.5
 11
232.7
 21
9.5
  0
LINE
  8
0
 10
232.7
 20
9.5
 11
218.7
 21
9.5
  0
LINE
  8
0
 10
153.8
 20
47.75
 11
76.3
 21
47.75
  0
LINE
  8
0
 10
76.3
 20
47.75
 11
76.3
 21
8.25
  0
LINE
  8
0
 10
76.3
 20
8.25
 11
153.8
 21
8.25
  0
LINE
  8
0
 10
153.8
 20
8.25
 11
153.8
 21
47.75
  0
LINE
  8
0
 10
79.55
 20
30.5
 11
79.55
 21
44.5
  0
LINE
  8
0
 10
79.55
 20
44.5
 11
93.55
 21
44.5
  0
LINE
  8
0
 10
93.55
 20
44.5
 11
93.55
 21
30.5
  0
LINE
  8
0
 10
93.55
 20
30.5
 11
79.55
 21
30.5
  0
LINE
  8
0
 10
136.55
 20
30.5
 11
136.55
 21
44.5
  0
LINE
  8
0
 10
136.55
 20
44.5
 11
150.55
 21
44.5
  0
LINE
  8
0
 10
150.55
 20
44.5
 11
150.55
 21
30.5
  0
LINE
  8
0
 10
150.55
 20
30.5
 11
136.55
 21
30.5
  0
LINE
  8
0
 10
98.55
 20
28.8205
 11
98.55
 21
42.8205
  0
LINE
  8
0
 10
98.55
 20
42.8205
 11
112.55
 21
42.8205
  0
LINE
  8
0
 10
112.55
 20
42.8205
 11
112.55
 21
28.8205
  0
LINE
  8
0
 10
112.55
 20
28.8205
 11
98.55
 21
28.8205
  0
LINE
  8
0
 10
117.55
 20
28.8205
 11
117.55
 21
42.8205
  0
LINE
  8
0
 10
117.55
 20
42.8205
 11
131.55
 21
42.8205
  0
LINE
  8
0
 10
131.55
 20
42.8205
 11
131.55
 21
28.8205
  0
LINE
  8
0
 10
131.55
 20
28.8205
 11
117.55
 21
28.8205
  0
LINE
  8
0
 10
79.55
 20
11.5
 11
79.55
 21
25.5
  0
LINE
  8
0
 10
79.55
 20
25.5
 11
93.55
 21
25.5
  0
LINE
  8
0
 10
93.55
 20
25.5
 11
93.55
 21
11.5
  0
LINE
  8
0
 10
93.55
 20
11.5
 11
79.55
 21
11.5
  0
LINE
  8
0
 10
136.55
 20
11.5
 11
136.55
 21
25.5
  0
LINE
  8
0
 10
136.55
 20
25.5
 11
150.55
 21
25.5
  0
LINE
  8
0
 10
150.55
 20
25.5
 11
150.55
 21
11.5
  0
LINE
  8
0
 10
150.55
 20
11.5
 11
136.55
 21
11.5
  0
ENDSEC
  0
SECTION
  2
OBJECTS
  0
DICTIONARY
  0
ENDSEC
  0
EOF
