  0
SECTION
  2
BLOCKS
  0
ENDSEC
  0
SECTION
  2
ENTITIES
  0
LINE
  8
0
 10
322.432
 20
18.25
 11
322.432
 21
38.75
  0
LINE
  8
0
 10
322.432
 20
38.75
 11
291.099
 21
50.5
  0
LINE
  8
0
 10
291.099
 20
50.5
 11
269.515
 21
50.5
  0
LINE
  8
0
 10
269.515
 20
50.5
 11
249.932
 21
38.75
  0
LINE
  8
0
 10
249.932
 20
38.75
 11
249.932
 21
18.25
  0
LINE
  8
0
 10
249.932
 20
18.25
 11
269.515
 21
6.5
  0
LINE
  8
0
 10
269.515
 20
6.5
 11
291.099
 21
6.5
  0
LINE
  8
0
 10
291.099
 20
6.5
 11
322.432
 21
18.25
  0
LINE
  8
0
 10
273.182
 20
33.5
 11
273.182
 21
47.5
  0
LINE
  8
0
 10
273.182
 20
47.5
 11
287.182
 21
47.5
  0
LINE
  8
0
 10
287.182
 20
47.5
 11
287.182
 21
33.5
  0
LINE
  8
0
 10
287.182
 20
33.5
 11
273.182
 21
33.5
  0
LINE
  8
0
 10
305.182
 20
21.5
 11
305.182
 21
35.5
  0
LINE
  8
0
 10
305.182
 20
35.5
 11
319.182
 21
35.5
  0
LINE
  8
0
 10
319.182
 20
35.5
 11
319.182
 21
21.5
  0
LINE
  8
0
 10
319.182
 20
21.5
 11
305.182
 21
21.5
  0
LINE
  8
0
 10
253.182
 20
21.5
 11
253.182
 21
35.5
  0
LINE
  8
0
 10
253.182
 20
35.5
 11
267.182
 21
35.5
  0
LINE
  8
0
 10
267.182
 20
35.5
 11
267.182
 21
21.5
  0
LINE
  8
0
 10
267.182
 20
21.5
 11
253.182
 21
21.5
  0
LINE
  8
0
 10
273.182
 20
9.5
 11
273.182
 21
23.5
  0
LINE
  8
0
 10
273.182
 20
23.5
 11
287.182
 21
23.5
  0
LINE
  8
0
 10
287.182
 20
23.5
 11
287.182
 21
9.5
  0
LINE
  8
0
 10
287.182
 20
9.5
 11
273.182
 21
9.5
  0
LINE
  8
0
 10
152.782
 20
47.75
 11
75.282
 21
47.75
  0
LINE
  8
0
 10
75.282
 20
47.75
 11
75.282
 21
8.25
  0
LINE
  8
0
 10
75.282
 20
8.25
 11
152.782
 21
8.25
  0
LINE
  8
0
 10
152.782
 20
8.25
 11
152.782
 21
47.75
  0
LINE
  8
0
 10
78.532
 20
30.5
 11
78.532
 21
44.5
  0
LINE
  8
0
 10
78.532
 20
44.5
 11
92.532
 21
44.5
  0
LINE
  8
0
 10
92.532
 20
44.5
 11
92.532
 21
30.5
  0
LINE
  8
0
 10
92.532
 20
30.5
 11
78.532
 21
30.5
  0
LINE
  8
0
 10
135.532
 20
30.5
 11
135.532
 21
44.5
  0
LINE
  8
0
 10
135.532
 20
44.5
 11
149.532
 21
44.5
  0
LINE
  8
0
 10
149.532
 20
44.5
 11
149.532
 21
30.5
  0
LINE
  8
0
 10
149.532
 20
30.5
 11
135.532
 21
30.5
  0
LINE
  8
0
 10
97.532
 20
28.8205
 11
97.532
 21
42.8205
  0
LINE
  8
0
 10
97.532
 20
42.8205
 11
111.532
 21
42.8205
  0
LINE
  8
0
 10
111.532
 20
42.8205
 11
111.532
 21
28.8205
  0
LINE
  8
0
 10
111.532
 20
28.8205
 11
97.532
 21
28.8205
  0
LINE
  8
0
 10
116.532
 20
28.8205
 11
116.532
 21
42.8205
  0
LINE
  8
0
 10
116.532
 20
42.8205
 11
130.532
 21
42.8205
  0
LINE
  8
0
 10
130.532
 20
42.8205
 11
130.532
 21
28.8205
  0
LINE
  8
0
 10
130.532
 20
28.8205
 11
116.532
 21
28.8205
  0
LINE
  8
0
 10
78.532
 20
11.5
 11
78.532
 21
25.5
  0
LINE
  8
0
 10
78.532
 20
25.5
 11
92.532
 21
25.5
  0
LINE
  8
0
 10
92.532
 20
25.5
 11
92.532
 21
11.5
  0
LINE
  8
0
 10
92.532
 20
11.5
 11
78.532
 21
11.5
  0
LINE
  8
0
 10
135.532
 20
11.5
 11
135.532
 21
25.5
  0
LINE
  8
0
 10
135.532
 20
25.5
 11
149.532
 21
25.5
  0
LINE
  8
0
 10
149.532
 20
25.5
 11
149.532
 21
11.5
  0
LINE
  8
0
 10
149.532
 20
11.5
 11
135.532
 21
11.5
  0
ENDSEC
  0
SECTION
  2
OBJECTS
  0
DICTIONARY
  0
ENDSEC
  0
EOF
