  0
SECTION
  2
BLOCKS
  0
ENDSEC
  0
SECTION
  2
ENTITIES
  0
LINE
  8
0
 10
100.25
 20
48.75
 11
39.75
 21
48.75
  0
LINE
  8
0
 10
39.75
 20
48.75
 11
39.75
 21
8.25
  0
LINE
  8
0
 10
39.75
 20
8.25
 11
100.25
 21
8.25
  0
LINE
  8
0
 10
100.25
 20
8.25
 11
100.25
 21
48.75
  0
LINE
  8
0
 10
43
 20
31.5
 11
43
 21
45.5
  0
LINE
  8
0
 10
43
 20
45.5
 11
57
 21
45.5
  0
LINE
  8
0
 10
57
 20
45.5
 11
57
 21
31.5
  0
LINE
  8
0
 10
57
 20
31.5
 11
43
 21
31.5
  0
LINE
  8
0
 10
83
 20
31.5
 11
83
 21
45.5
  0
LINE
  8
0
 10
83
 20
45.5
 11
97
 21
45.5
  0
LINE
  8
0
 10
97
 20
45.5
 11
97
 21
31.5
  0
LINE
  8
0
 10
97
 20
31.5
 11
83
 21
31.5
  0
LINE
  8
0
 10
43
 20
11.5
 11
43
 21
25.5
  0
LINE
  8
0
 10
43
 20
25.5
 11
57
 21
25.5
  0
LINE
  8
0
 10
57
 20
25.5
 11
57
 21
11.5
  0
LINE
  8
0
 10
57
 20
11.5
 11
43
 21
11.5
  0
LINE
  8
0
 10
83
 20
11.5
 11
83
 21
25.5
  0
LINE
  8
0
 10
83
 20
25.5
 11
97
 21
25.5
  0
LINE
  8
0
 10
97
 20
25.5
 11
97
 21
11.5
  0
LINE
  8
0
 10
97
 20
11.5
 11
83
 21
11.5
  0
LINE
  8
0
 10
69.8044
 20
10.2654
 11
69.6137
 21
10.3112
  0
LINE
  8
0
 10
69.6137
 20
10.3112
 11
69.4325
 21
10.3862
  0
LINE
  8
0
 10
69.4325
 20
10.3862
 11
69.2653
 21
10.4887
  0
LINE
  8
0
 10
69.2653
 20
10.4887
 11
69.1161
 21
10.6161
  0
LINE
  8
0
 10
69.1161
 20
10.6161
 11
68.9887
 21
10.7653
  0
LINE
  8
0
 10
68.9887
 20
10.7653
 11
68.8862
 21
10.9325
  0
LINE
  8
0
 10
68.8862
 20
10.9325
 11
68.8112
 21
11.1137
  0
LINE
  8
0
 10
68.8112
 20
11.1137
 11
68.7654
 21
11.3044
  0
LINE
  8
0
 10
68.7654
 20
11.3044
 11
68.75
 21
11.5
  0
LINE
  8
0
 10
68.75
 20
11.5
 11
68.7654
 21
11.6955
  0
LINE
  8
0
 10
68.7654
 20
11.6955
 11
68.8112
 21
11.8863
  0
LINE
  8
0
 10
68.8112
 20
11.8863
 11
68.8862
 21
12.0675
  0
LINE
  8
0
 10
68.8862
 20
12.0675
 11
68.9887
 21
12.2347
  0
LINE
  8
0
 10
68.9887
 20
12.2347
 11
69.1161
 21
12.3839
  0
LINE
  8
0
 10
69.1161
 20
12.3839
 11
69.2653
 21
12.5113
  0
LINE
  8
0
 10
69.2653
 20
12.5113
 11
69.4325
 21
12.6138
  0
LINE
  8
0
 10
69.4325
 20
12.6138
 11
69.6137
 21
12.6888
  0
LINE
  8
0
 10
69.6137
 20
12.6888
 11
69.8044
 21
12.7346
  0
LINE
  8
0
 10
69.8044
 20
12.7346
 11
70
 21
12.75
  0
LINE
  8
0
 10
70
 20
12.75
 11
70.1955
 21
12.7346
  0
LINE
  8
0
 10
70.1955
 20
12.7346
 11
70.3863
 21
12.6888
  0
LINE
  8
0
 10
70.3863
 20
12.6888
 11
70.5675
 21
12.6138
  0
LINE
  8
0
 10
70.5675
 20
12.6138
 11
70.7347
 21
12.5113
  0
LINE
  8
0
 10
70.7347
 20
12.5113
 11
70.8839
 21
12.3839
  0
LINE
  8
0
 10
70.8839
 20
12.3839
 11
71.0113
 21
12.2347
  0
LINE
  8
0
 10
71.0113
 20
12.2347
 11
71.1138
 21
12.0675
  0
LINE
  8
0
 10
71.1138
 20
12.0675
 11
71.1888
 21
11.8863
  0
LINE
  8
0
 10
71.1888
 20
11.8863
 11
71.2346
 21
11.6955
  0
LINE
  8
0
 10
71.2346
 20
11.6955
 11
71.25
 21
11.5
  0
LINE
  8
0
 10
71.25
 20
11.5
 11
71.2346
 21
11.3044
  0
LINE
  8
0
 10
71.2346
 20
11.3044
 11
71.1888
 21
11.1137
  0
LINE
  8
0
 10
71.1888
 20
11.1137
 11
71.1138
 21
10.9325
  0
LINE
  8
0
 10
71.1138
 20
10.9325
 11
71.0113
 21
10.7653
  0
LINE
  8
0
 10
71.0113
 20
10.7653
 11
70.8839
 21
10.6161
  0
LINE
  8
0
 10
70.8839
 20
10.6161
 11
70.7347
 21
10.4887
  0
LINE
  8
0
 10
70.7347
 20
10.4887
 11
70.5675
 21
10.3862
  0
LINE
  8
0
 10
70.5675
 20
10.3862
 11
70.3863
 21
10.3112
  0
LINE
  8
0
 10
70.3863
 20
10.3112
 11
70.1955
 21
10.2654
  0
LINE
  8
0
 10
70.1955
 20
10.2654
 11
70
 21
10.25
  0
LINE
  8
0
 10
70
 20
10.25
 11
69.8044
 21
10.2654
  0
LINE
  8
0
 10
208.25
 20
48.75
 11
147.75
 21
48.75
  0
LINE
  8
0
 10
147.75
 20
48.75
 11
147.75
 21
8.25
  0
LINE
  8
0
 10
147.75
 20
8.25
 11
208.25
 21
8.25
  0
LINE
  8
0
 10
208.25
 20
8.25
 11
208.25
 21
48.75
  0
LINE
  8
0
 10
151
 20
31.5
 11
151
 21
45.5
  0
LINE
  8
0
 10
151
 20
45.5
 11
165
 21
45.5
  0
LINE
  8
0
 10
165
 20
45.5
 11
165
 21
31.5
  0
LINE
  8
0
 10
165
 20
31.5
 11
151
 21
31.5
  0
LINE
  8
0
 10
191
 20
31.5
 11
191
 21
45.5
  0
LINE
  8
0
 10
191
 20
45.5
 11
205
 21
45.5
  0
LINE
  8
0
 10
205
 20
45.5
 11
205
 21
31.5
  0
LINE
  8
0
 10
205
 20
31.5
 11
191
 21
31.5
  0
LINE
  8
0
 10
151
 20
11.5
 11
151
 21
25.5
  0
LINE
  8
0
 10
151
 20
25.5
 11
165
 21
25.5
  0
LINE
  8
0
 10
165
 20
25.5
 11
165
 21
11.5
  0
LINE
  8
0
 10
165
 20
11.5
 11
151
 21
11.5
  0
LINE
  8
0
 10
191
 20
11.5
 11
191
 21
25.5
  0
LINE
  8
0
 10
191
 20
25.5
 11
205
 21
25.5
  0
LINE
  8
0
 10
205
 20
25.5
 11
205
 21
11.5
  0
LINE
  8
0
 10
205
 20
11.5
 11
191
 21
11.5
  0
LINE
  8
0
 10
177.804
 20
10.2654
 11
177.614
 21
10.3112
  0
LINE
  8
0
 10
177.614
 20
10.3112
 11
177.433
 21
10.3862
  0
LINE
  8
0
 10
177.433
 20
10.3862
 11
177.265
 21
10.4887
  0
LINE
  8
0
 10
177.265
 20
10.4887
 11
177.116
 21
10.6161
  0
LINE
  8
0
 10
177.116
 20
10.6161
 11
176.989
 21
10.7653
  0
LINE
  8
0
 10
176.989
 20
10.7653
 11
176.886
 21
10.9325
  0
LINE
  8
0
 10
176.886
 20
10.9325
 11
176.811
 21
11.1137
  0
LINE
  8
0
 10
176.811
 20
11.1137
 11
176.765
 21
11.3044
  0
LINE
  8
0
 10
176.765
 20
11.3044
 11
176.75
 21
11.5
  0
LINE
  8
0
 10
176.75
 20
11.5
 11
176.765
 21
11.6955
  0
LINE
  8
0
 10
176.765
 20
11.6955
 11
176.811
 21
11.8863
  0
LINE
  8
0
 10
176.811
 20
11.8863
 11
176.886
 21
12.0675
  0
LINE
  8
0
 10
176.886
 20
12.0675
 11
176.989
 21
12.2347
  0
LINE
  8
0
 10
176.989
 20
12.2347
 11
177.116
 21
12.3839
  0
LINE
  8
0
 10
177.116
 20
12.3839
 11
177.265
 21
12.5113
  0
LINE
  8
0
 10
177.265
 20
12.5113
 11
177.433
 21
12.6138
  0
LINE
  8
0
 10
177.433
 20
12.6138
 11
177.614
 21
12.6888
  0
LINE
  8
0
 10
177.614
 20
12.6888
 11
177.804
 21
12.7346
  0
LINE
  8
0
 10
177.804
 20
12.7346
 11
178
 21
12.75
  0
LINE
  8
0
 10
178
 20
12.75
 11
178.196
 21
12.7346
  0
LINE
  8
0
 10
178.196
 20
12.7346
 11
178.386
 21
12.6888
  0
LINE
  8
0
 10
178.386
 20
12.6888
 11
178.567
 21
12.6138
  0
LINE
  8
0
 10
178.567
 20
12.6138
 11
178.735
 21
12.5113
  0
LINE
  8
0
 10
178.735
 20
12.5113
 11
178.884
 21
12.3839
  0
LINE
  8
0
 10
178.884
 20
12.3839
 11
179.011
 21
12.2347
  0
LINE
  8
0
 10
179.011
 20
12.2347
 11
179.114
 21
12.0675
  0
LINE
  8
0
 10
179.114
 20
12.0675
 11
179.189
 21
11.8863
  0
LINE
  8
0
 10
179.189
 20
11.8863
 11
179.235
 21
11.6955
  0
LINE
  8
0
 10
179.235
 20
11.6955
 11
179.25
 21
11.5
  0
LINE
  8
0
 10
179.25
 20
11.5
 11
179.235
 21
11.3044
  0
LINE
  8
0
 10
179.235
 20
11.3044
 11
179.189
 21
11.1137
  0
LINE
  8
0
 10
179.189
 20
11.1137
 11
179.114
 21
10.9325
  0
LINE
  8
0
 10
179.114
 20
10.9325
 11
179.011
 21
10.7653
  0
LINE
  8
0
 10
179.011
 20
10.7653
 11
178.884
 21
10.6161
  0
LINE
  8
0
 10
178.884
 20
10.6161
 11
178.735
 21
10.4887
  0
LINE
  8
0
 10
178.735
 20
10.4887
 11
178.567
 21
10.3862
  0
LINE
  8
0
 10
178.567
 20
10.3862
 11
178.386
 21
10.3112
  0
LINE
  8
0
 10
178.386
 20
10.3112
 11
178.196
 21
10.2654
  0
LINE
  8
0
 10
178.196
 20
10.2654
 11
178
 21
10.25
  0
LINE
  8
0
 10
178
 20
10.25
 11
177.804
 21
10.2654
  0
ENDSEC
  0
SECTION
  2
OBJECTS
  0
DICTIONARY
  0
ENDSEC
  0
EOF
