  0
SECTION
  2
BLOCKS
  0
ENDSEC
  0
SECTION
  2
ENTITIES
  0
LINE
  8
0
 10
274.85
 20
18.25
 11
274.85
 21
38.75
  0
LINE
  8
0
 10
274.85
 20
38.75
 11
243.517
 21
50.5
  0
LINE
  8
0
 10
243.517
 20
50.5
 11
221.933
 21
50.5
  0
LINE
  8
0
 10
221.933
 20
50.5
 11
202.35
 21
38.75
  0
LINE
  8
0
 10
202.35
 20
38.75
 11
202.35
 21
30.5276
  0
LINE
  8
0
 10
202.35
 20
30.5276
 11
168.25
 21
46.0705
  0
LINE
  8
0
 10
168.25
 20
46.0705
 11
128.75
 21
46.0705
  0
LINE
  8
0
 10
128.75
 20
46.0705
 11
90.75
 21
28.75
  0
LINE
  8
0
 10
90.75
 20
28.75
 11
90.75
 21
8.25
  0
LINE
  8
0
 10
90.75
 20
8.25
 11
206.25
 21
8.25
  0
LINE
  8
0
 10
206.25
 20
8.25
 11
206.25
 21
15.91
  0
LINE
  8
0
 10
206.25
 20
15.91
 11
221.933
 21
6.5
  0
LINE
  8
0
 10
221.933
 20
6.5
 11
243.517
 21
6.5
  0
LINE
  8
0
 10
243.517
 20
6.5
 11
274.85
 21
18.25
  0
LINE
  8
0
 10
225.6
 20
33.5
 11
225.6
 21
47.5
  0
LINE
  8
0
 10
225.6
 20
47.5
 11
239.6
 21
47.5
  0
LINE
  8
0
 10
239.6
 20
47.5
 11
239.6
 21
33.5
  0
LINE
  8
0
 10
239.6
 20
33.5
 11
225.6
 21
33.5
  0
LINE
  8
0
 10
132
 20
28.8205
 11
132
 21
42.8205
  0
LINE
  8
0
 10
132
 20
42.8205
 11
146
 21
42.8205
  0
LINE
  8
0
 10
146
 20
42.8205
 11
146
 21
28.8205
  0
LINE
  8
0
 10
146
 20
28.8205
 11
132
 21
28.8205
  0
LINE
  8
0
 10
151
 20
28.8205
 11
151
 21
42.8205
  0
LINE
  8
0
 10
151
 20
42.8205
 11
165
 21
42.8205
  0
LINE
  8
0
 10
165
 20
42.8205
 11
165
 21
28.8205
  0
LINE
  8
0
 10
165
 20
28.8205
 11
151
 21
28.8205
  0
LINE
  8
0
 10
257.6
 20
21.5
 11
257.6
 21
35.5
  0
LINE
  8
0
 10
257.6
 20
35.5
 11
271.6
 21
35.5
  0
LINE
  8
0
 10
271.6
 20
35.5
 11
271.6
 21
21.5
  0
LINE
  8
0
 10
271.6
 20
21.5
 11
257.6
 21
21.5
  0
LINE
  8
0
 10
206.25
 20
21.5
 11
206.25
 21
28.75
  0
LINE
  8
0
 10
206.25
 20
28.75
 11
205.6
 21
29.0463
  0
LINE
  8
0
 10
205.6
 20
29.0463
 11
205.6
 21
35.5
  0
LINE
  8
0
 10
205.6
 20
35.5
 11
219.6
 21
35.5
  0
LINE
  8
0
 10
219.6
 20
35.5
 11
219.6
 21
21.5
  0
LINE
  8
0
 10
219.6
 20
21.5
 11
206.25
 21
21.5
  0
LINE
  8
0
 10
113
 20
11.5
 11
113
 21
25.5
  0
LINE
  8
0
 10
113
 20
25.5
 11
127
 21
25.5
  0
LINE
  8
0
 10
127
 20
25.5
 11
127
 21
11.5
  0
LINE
  8
0
 10
127
 20
11.5
 11
113
 21
11.5
  0
LINE
  8
0
 10
170
 20
11.5
 11
170
 21
25.5
  0
LINE
  8
0
 10
170
 20
25.5
 11
184
 21
25.5
  0
LINE
  8
0
 10
184
 20
25.5
 11
184
 21
11.5
  0
LINE
  8
0
 10
184
 20
11.5
 11
170
 21
11.5
  0
LINE
  8
0
 10
94
 20
11.5
 11
94
 21
25.5
  0
LINE
  8
0
 10
94
 20
25.5
 11
108
 21
25.5
  0
LINE
  8
0
 10
108
 20
25.5
 11
108
 21
11.5
  0
LINE
  8
0
 10
108
 20
11.5
 11
94
 21
11.5
  0
LINE
  8
0
 10
189
 20
11.5
 11
189
 21
25.5
  0
LINE
  8
0
 10
189
 20
25.5
 11
202.35
 21
25.5
  0
LINE
  8
0
 10
202.35
 20
25.5
 11
202.35
 21
18.25
  0
LINE
  8
0
 10
202.35
 20
18.25
 11
203
 21
17.86
  0
LINE
  8
0
 10
203
 20
17.86
 11
203
 21
11.5
  0
LINE
  8
0
 10
203
 20
11.5
 11
189
 21
11.5
  0
LINE
  8
0
 10
225.6
 20
9.5
 11
225.6
 21
23.5
  0
LINE
  8
0
 10
225.6
 20
23.5
 11
239.6
 21
23.5
  0
LINE
  8
0
 10
239.6
 20
23.5
 11
239.6
 21
9.5
  0
LINE
  8
0
 10
239.6
 20
9.5
 11
225.6
 21
9.5
  0
ENDSEC
  0
SECTION
  2
OBJECTS
  0
DICTIONARY
  0
ENDSEC
  0
EOF
