  0
SECTION
  2
BLOCKS
  0
ENDSEC
  0
SECTION
  2
ENTITIES
  0
LINE
  8
0
 10
100.25
 20
48.75
 11
39.75
 21
48.75
  0
LINE
  8
0
 10
39.75
 20
48.75
 11
39.75
 21
8.25
  0
LINE
  8
0
 10
39.75
 20
8.25
 11
100.25
 21
8.25
  0
LINE
  8
0
 10
100.25
 20
8.25
 11
100.25
 21
48.75
  0
LINE
  8
0
 10
43
 20
31.5
 11
43
 21
45.5
  0
LINE
  8
0
 10
43
 20
45.5
 11
57
 21
45.5
  0
LINE
  8
0
 10
57
 20
45.5
 11
57
 21
31.5
  0
LINE
  8
0
 10
57
 20
31.5
 11
43
 21
31.5
  0
LINE
  8
0
 10
83
 20
31.5
 11
83
 21
45.5
  0
LINE
  8
0
 10
83
 20
45.5
 11
97
 21
45.5
  0
LINE
  8
0
 10
97
 20
45.5
 11
97
 21
31.5
  0
LINE
  8
0
 10
97
 20
31.5
 11
83
 21
31.5
  0
LINE
  8
0
 10
43
 20
11.5
 11
43
 21
25.5
  0
LINE
  8
0
 10
43
 20
25.5
 11
57
 21
25.5
  0
LINE
  8
0
 10
57
 20
25.5
 11
57
 21
11.5
  0
LINE
  8
0
 10
57
 20
11.5
 11
43
 21
11.5
  0
LINE
  8
0
 10
83
 20
11.5
 11
83
 21
25.5
  0
LINE
  8
0
 10
83
 20
25.5
 11
97
 21
25.5
  0
LINE
  8
0
 10
97
 20
25.5
 11
97
 21
11.5
  0
LINE
  8
0
 10
97
 20
11.5
 11
83
 21
11.5
  0
LINE
  8
0
 10
208.45
 20
48.75
 11
147.95
 21
48.75
  0
LINE
  8
0
 10
147.95
 20
48.75
 11
147.95
 21
8.25
  0
LINE
  8
0
 10
147.95
 20
8.25
 11
208.45
 21
8.25
  0
LINE
  8
0
 10
208.45
 20
8.25
 11
208.45
 21
48.75
  0
LINE
  8
0
 10
151.2
 20
31.5
 11
151.2
 21
45.5
  0
LINE
  8
0
 10
151.2
 20
45.5
 11
165.2
 21
45.5
  0
LINE
  8
0
 10
165.2
 20
45.5
 11
165.2
 21
31.5
  0
LINE
  8
0
 10
165.2
 20
31.5
 11
151.2
 21
31.5
  0
LINE
  8
0
 10
191.2
 20
31.5
 11
191.2
 21
45.5
  0
LINE
  8
0
 10
191.2
 20
45.5
 11
205.2
 21
45.5
  0
LINE
  8
0
 10
205.2
 20
45.5
 11
205.2
 21
31.5
  0
LINE
  8
0
 10
205.2
 20
31.5
 11
191.2
 21
31.5
  0
LINE
  8
0
 10
151.2
 20
11.5
 11
151.2
 21
25.5
  0
LINE
  8
0
 10
151.2
 20
25.5
 11
165.2
 21
25.5
  0
LINE
  8
0
 10
165.2
 20
25.5
 11
165.2
 21
11.5
  0
LINE
  8
0
 10
165.2
 20
11.5
 11
151.2
 21
11.5
  0
LINE
  8
0
 10
191.2
 20
11.5
 11
191.2
 21
25.5
  0
LINE
  8
0
 10
191.2
 20
25.5
 11
205.2
 21
25.5
  0
LINE
  8
0
 10
205.2
 20
25.5
 11
205.2
 21
11.5
  0
LINE
  8
0
 10
205.2
 20
11.5
 11
191.2
 21
11.5
  0
ENDSEC
  0
SECTION
  2
OBJECTS
  0
DICTIONARY
  0
ENDSEC
  0
EOF
