  0
SECTION
  2
BLOCKS
  0
ENDSEC
  0
SECTION
  2
ENTITIES
  0
LINE
  8
0
 10
214.85
 20
18.25
 11
214.85
 21
38.75
  0
LINE
  8
0
 10
214.85
 20
38.75
 11
175.683
 21
50.5
  0
LINE
  8
0
 10
175.683
 20
50.5
 11
154.35
 21
50.5
  0
LINE
  8
0
 10
154.35
 20
50.5
 11
154.35
 21
6.5
  0
LINE
  8
0
 10
154.35
 20
6.5
 11
175.683
 21
6.5
  0
LINE
  8
0
 10
175.683
 20
6.5
 11
214.85
 21
18.25
  0
LINE
  8
0
 10
157.6
 20
33.5
 11
157.6
 21
47.5
  0
LINE
  8
0
 10
157.6
 20
47.5
 11
171.6
 21
47.5
  0
LINE
  8
0
 10
171.6
 20
47.5
 11
171.6
 21
33.5
  0
LINE
  8
0
 10
171.6
 20
33.5
 11
157.6
 21
33.5
  0
LINE
  8
0
 10
197.6
 20
21.5
 11
197.6
 21
35.5
  0
LINE
  8
0
 10
197.6
 20
35.5
 11
211.6
 21
35.5
  0
LINE
  8
0
 10
211.6
 20
35.5
 11
211.6
 21
21.5
  0
LINE
  8
0
 10
211.6
 20
21.5
 11
197.6
 21
21.5
  0
LINE
  8
0
 10
157.6
 20
9.5
 11
157.6
 21
23.5
  0
LINE
  8
0
 10
157.6
 20
23.5
 11
171.6
 21
23.5
  0
LINE
  8
0
 10
171.6
 20
23.5
 11
171.6
 21
9.5
  0
LINE
  8
0
 10
171.6
 20
9.5
 11
157.6
 21
9.5
  0
LINE
  8
0
 10
128.25
 20
38.75
 11
23.75
 21
38.75
  0
LINE
  8
0
 10
23.75
 20
38.75
 11
23.75
 21
18.25
  0
LINE
  8
0
 10
23.75
 20
18.25
 11
128.25
 21
18.25
  0
LINE
  8
0
 10
128.25
 20
18.25
 11
128.25
 21
38.75
  0
LINE
  8
0
 10
27
 20
21.5
 11
27
 21
35.5
  0
LINE
  8
0
 10
27
 20
35.5
 11
41
 21
35.5
  0
LINE
  8
0
 10
41
 20
35.5
 11
41
 21
21.5
  0
LINE
  8
0
 10
41
 20
21.5
 11
27
 21
21.5
  0
LINE
  8
0
 10
49
 20
21.5
 11
49
 21
35.5
  0
LINE
  8
0
 10
49
 20
35.5
 11
63
 21
35.5
  0
LINE
  8
0
 10
63
 20
35.5
 11
63
 21
21.5
  0
LINE
  8
0
 10
63
 20
21.5
 11
49
 21
21.5
  0
LINE
  8
0
 10
89
 20
21.5
 11
89
 21
35.5
  0
LINE
  8
0
 10
89
 20
35.5
 11
103
 21
35.5
  0
LINE
  8
0
 10
103
 20
35.5
 11
103
 21
21.5
  0
LINE
  8
0
 10
103
 20
21.5
 11
89
 21
21.5
  0
LINE
  8
0
 10
111
 20
21.5
 11
111
 21
35.5
  0
LINE
  8
0
 10
111
 20
35.5
 11
125
 21
35.5
  0
LINE
  8
0
 10
125
 20
35.5
 11
125
 21
21.5
  0
LINE
  8
0
 10
125
 20
21.5
 11
111
 21
21.5
  0
ENDSEC
  0
SECTION
  2
OBJECTS
  0
DICTIONARY
  0
ENDSEC
  0
EOF
