  0
SECTION
  2
BLOCKS
  0
ENDSEC
  0
SECTION
  2
ENTITIES
  0
LINE
  8
0
 10
323.682
 20
18.25
 11
323.682
 21
38.75
  0
LINE
  8
0
 10
323.682
 20
38.75
 11
292.349
 21
50.5
  0
LINE
  8
0
 10
292.349
 20
50.5
 11
270.765
 21
50.5
  0
LINE
  8
0
 10
270.765
 20
50.5
 11
251.182
 21
38.75
  0
LINE
  8
0
 10
251.182
 20
38.75
 11
251.182
 21
18.25
  0
LINE
  8
0
 10
251.182
 20
18.25
 11
270.765
 21
6.5
  0
LINE
  8
0
 10
270.765
 20
6.5
 11
292.349
 21
6.5
  0
LINE
  8
0
 10
292.349
 20
6.5
 11
323.682
 21
18.25
  0
LINE
  8
0
 10
274.432
 20
33.5
 11
274.432
 21
47.5
  0
LINE
  8
0
 10
274.432
 20
47.5
 11
288.432
 21
47.5
  0
LINE
  8
0
 10
288.432
 20
47.5
 11
288.432
 21
33.5
  0
LINE
  8
0
 10
288.432
 20
33.5
 11
274.432
 21
33.5
  0
LINE
  8
0
 10
306.432
 20
21.5
 11
306.432
 21
35.5
  0
LINE
  8
0
 10
306.432
 20
35.5
 11
320.432
 21
35.5
  0
LINE
  8
0
 10
320.432
 20
35.5
 11
320.432
 21
21.5
  0
LINE
  8
0
 10
320.432
 20
21.5
 11
306.432
 21
21.5
  0
LINE
  8
0
 10
254.432
 20
21.5
 11
254.432
 21
35.5
  0
LINE
  8
0
 10
254.432
 20
35.5
 11
268.432
 21
35.5
  0
LINE
  8
0
 10
268.432
 20
35.5
 11
268.432
 21
21.5
  0
LINE
  8
0
 10
268.432
 20
21.5
 11
254.432
 21
21.5
  0
LINE
  8
0
 10
274.432
 20
9.5
 11
274.432
 21
23.5
  0
LINE
  8
0
 10
274.432
 20
23.5
 11
288.432
 21
23.5
  0
LINE
  8
0
 10
288.432
 20
23.5
 11
288.432
 21
9.5
  0
LINE
  8
0
 10
288.432
 20
9.5
 11
274.432
 21
9.5
  0
LINE
  8
0
 10
152.782
 20
47.75
 11
75.282
 21
47.75
  0
LINE
  8
0
 10
75.282
 20
47.75
 11
75.282
 21
8.25
  0
LINE
  8
0
 10
75.282
 20
8.25
 11
152.782
 21
8.25
  0
LINE
  8
0
 10
152.782
 20
8.25
 11
152.782
 21
47.75
  0
LINE
  8
0
 10
78.532
 20
30.5
 11
78.532
 21
44.5
  0
LINE
  8
0
 10
78.532
 20
44.5
 11
92.532
 21
44.5
  0
LINE
  8
0
 10
92.532
 20
44.5
 11
92.532
 21
30.5
  0
LINE
  8
0
 10
92.532
 20
30.5
 11
78.532
 21
30.5
  0
LINE
  8
0
 10
135.532
 20
30.5
 11
135.532
 21
44.5
  0
LINE
  8
0
 10
135.532
 20
44.5
 11
149.532
 21
44.5
  0
LINE
  8
0
 10
149.532
 20
44.5
 11
149.532
 21
30.5
  0
LINE
  8
0
 10
149.532
 20
30.5
 11
135.532
 21
30.5
  0
LINE
  8
0
 10
97.532
 20
28.8205
 11
97.532
 21
42.8205
  0
LINE
  8
0
 10
97.532
 20
42.8205
 11
111.532
 21
42.8205
  0
LINE
  8
0
 10
111.532
 20
42.8205
 11
111.532
 21
28.8205
  0
LINE
  8
0
 10
111.532
 20
28.8205
 11
97.532
 21
28.8205
  0
LINE
  8
0
 10
116.532
 20
28.8205
 11
116.532
 21
42.8205
  0
LINE
  8
0
 10
116.532
 20
42.8205
 11
130.532
 21
42.8205
  0
LINE
  8
0
 10
130.532
 20
42.8205
 11
130.532
 21
28.8205
  0
LINE
  8
0
 10
130.532
 20
28.8205
 11
116.532
 21
28.8205
  0
LINE
  8
0
 10
78.532
 20
11.5
 11
78.532
 21
25.5
  0
LINE
  8
0
 10
78.532
 20
25.5
 11
92.532
 21
25.5
  0
LINE
  8
0
 10
92.532
 20
25.5
 11
92.532
 21
11.5
  0
LINE
  8
0
 10
92.532
 20
11.5
 11
78.532
 21
11.5
  0
LINE
  8
0
 10
135.532
 20
11.5
 11
135.532
 21
25.5
  0
LINE
  8
0
 10
135.532
 20
25.5
 11
149.532
 21
25.5
  0
LINE
  8
0
 10
149.532
 20
25.5
 11
149.532
 21
11.5
  0
LINE
  8
0
 10
149.532
 20
11.5
 11
135.532
 21
11.5
  0
ENDSEC
  0
SECTION
  2
OBJECTS
  0
DICTIONARY
  0
ENDSEC
  0
EOF
