  0
SECTION
  2
BLOCKS
  0
ENDSEC
  0
SECTION
  2
ENTITIES
  0
LINE
  8
0
 10
100.25
 20
8.25
 11
100.25
 21
48.75
  0
LINE
  8
0
 10
100.25
 20
48.75
 11
44.9
 21
50.2
  0
LINE
  8
0
 10
44.9
 20
50.2
 11
36.3
 21
50.2
  0
LINE
  8
0
 10
36.3
 20
50.2
 11
36.3
 21
6.79999
  0
LINE
  8
0
 10
36.3
 20
6.79999
 11
44.9
 21
6.79999
  0
LINE
  8
0
 10
44.9
 20
6.79999
 11
100.25
 21
8.25
  0
LINE
  8
0
 10
39.9044
 20
44.6654
 11
39.7137
 21
44.7112
  0
LINE
  8
0
 10
39.7137
 20
44.7112
 11
39.5325
 21
44.7862
  0
LINE
  8
0
 10
39.5325
 20
44.7862
 11
39.3653
 21
44.8887
  0
LINE
  8
0
 10
39.3653
 20
44.8887
 11
39.2161
 21
45.0161
  0
LINE
  8
0
 10
39.2161
 20
45.0161
 11
39.0887
 21
45.1653
  0
LINE
  8
0
 10
39.0887
 20
45.1653
 11
38.9862
 21
45.3325
  0
LINE
  8
0
 10
38.9862
 20
45.3325
 11
38.9112
 21
45.5137
  0
LINE
  8
0
 10
38.9112
 20
45.5137
 11
38.8654
 21
45.7045
  0
LINE
  8
0
 10
38.8654
 20
45.7045
 11
38.85
 21
45.9
  0
LINE
  8
0
 10
38.85
 20
45.9
 11
38.8654
 21
46.0955
  0
LINE
  8
0
 10
38.8654
 20
46.0955
 11
38.9112
 21
46.2863
  0
LINE
  8
0
 10
38.9112
 20
46.2863
 11
38.9862
 21
46.4675
  0
LINE
  8
0
 10
38.9862
 20
46.4675
 11
39.0887
 21
46.6347
  0
LINE
  8
0
 10
39.0887
 20
46.6347
 11
39.2161
 21
46.7839
  0
LINE
  8
0
 10
39.2161
 20
46.7839
 11
39.3653
 21
46.9113
  0
LINE
  8
0
 10
39.3653
 20
46.9113
 11
39.5325
 21
47.0137
  0
LINE
  8
0
 10
39.5325
 20
47.0137
 11
39.7137
 21
47.0888
  0
LINE
  8
0
 10
39.7137
 20
47.0888
 11
39.9044
 21
47.1346
  0
LINE
  8
0
 10
39.9044
 20
47.1346
 11
40.1
 21
47.15
  0
LINE
  8
0
 10
40.1
 20
47.15
 11
40.2955
 21
47.1346
  0
LINE
  8
0
 10
40.2955
 20
47.1346
 11
40.4863
 21
47.0888
  0
LINE
  8
0
 10
40.4863
 20
47.0888
 11
40.6675
 21
47.0137
  0
LINE
  8
0
 10
40.6675
 20
47.0137
 11
40.8347
 21
46.9113
  0
LINE
  8
0
 10
40.8347
 20
46.9113
 11
40.9839
 21
46.7839
  0
LINE
  8
0
 10
40.9839
 20
46.7839
 11
41.1113
 21
46.6347
  0
LINE
  8
0
 10
41.1113
 20
46.6347
 11
41.2137
 21
46.4675
  0
LINE
  8
0
 10
41.2137
 20
46.4675
 11
41.2888
 21
46.2863
  0
LINE
  8
0
 10
41.2888
 20
46.2863
 11
41.3346
 21
46.0955
  0
LINE
  8
0
 10
41.3346
 20
46.0955
 11
41.35
 21
45.9
  0
LINE
  8
0
 10
41.35
 20
45.9
 11
41.3346
 21
45.7045
  0
LINE
  8
0
 10
41.3346
 20
45.7045
 11
41.2888
 21
45.5137
  0
LINE
  8
0
 10
41.2888
 20
45.5137
 11
41.2137
 21
45.3325
  0
LINE
  8
0
 10
41.2137
 20
45.3325
 11
41.1113
 21
45.1653
  0
LINE
  8
0
 10
41.1113
 20
45.1653
 11
40.9839
 21
45.0161
  0
LINE
  8
0
 10
40.9839
 20
45.0161
 11
40.8347
 21
44.8887
  0
LINE
  8
0
 10
40.8347
 20
44.8887
 11
40.6675
 21
44.7862
  0
LINE
  8
0
 10
40.6675
 20
44.7862
 11
40.4863
 21
44.7112
  0
LINE
  8
0
 10
40.4863
 20
44.7112
 11
40.2955
 21
44.6654
  0
LINE
  8
0
 10
40.2955
 20
44.6654
 11
40.1
 21
44.65
  0
LINE
  8
0
 10
40.1
 20
44.65
 11
39.9044
 21
44.6654
  0
LINE
  8
0
 10
43
 20
31.5
 11
43
 21
45.5
  0
LINE
  8
0
 10
43
 20
45.5
 11
57
 21
45.5
  0
LINE
  8
0
 10
57
 20
45.5
 11
57
 21
31.5
  0
LINE
  8
0
 10
57
 20
31.5
 11
43
 21
31.5
  0
LINE
  8
0
 10
83
 20
31.5
 11
83
 21
45.5
  0
LINE
  8
0
 10
83
 20
45.5
 11
97
 21
45.5
  0
LINE
  8
0
 10
97
 20
45.5
 11
97
 21
31.5
  0
LINE
  8
0
 10
97
 20
31.5
 11
83
 21
31.5
  0
LINE
  8
0
 10
43
 20
11.5
 11
43
 21
25.5
  0
LINE
  8
0
 10
43
 20
25.5
 11
57
 21
25.5
  0
LINE
  8
0
 10
57
 20
25.5
 11
57
 21
11.5
  0
LINE
  8
0
 10
57
 20
11.5
 11
43
 21
11.5
  0
LINE
  8
0
 10
83
 20
11.5
 11
83
 21
25.5
  0
LINE
  8
0
 10
83
 20
25.5
 11
97
 21
25.5
  0
LINE
  8
0
 10
97
 20
25.5
 11
97
 21
11.5
  0
LINE
  8
0
 10
97
 20
11.5
 11
83
 21
11.5
  0
LINE
  8
0
 10
39.9044
 20
9.86539
 11
39.7137
 21
9.91118
  0
LINE
  8
0
 10
39.7137
 20
9.91118
 11
39.5325
 21
9.98624
  0
LINE
  8
0
 10
39.5325
 20
9.98624
 11
39.3653
 21
10.0887
  0
LINE
  8
0
 10
39.3653
 20
10.0887
 11
39.2161
 21
10.2161
  0
LINE
  8
0
 10
39.2161
 20
10.2161
 11
39.0887
 21
10.3653
  0
LINE
  8
0
 10
39.0887
 20
10.3653
 11
38.9862
 21
10.5325
  0
LINE
  8
0
 10
38.9862
 20
10.5325
 11
38.9112
 21
10.7137
  0
LINE
  8
0
 10
38.9112
 20
10.7137
 11
38.8654
 21
10.9044
  0
LINE
  8
0
 10
38.8654
 20
10.9044
 11
38.85
 21
11.1
  0
LINE
  8
0
 10
38.85
 20
11.1
 11
38.8654
 21
11.2955
  0
LINE
  8
0
 10
38.8654
 20
11.2955
 11
38.9112
 21
11.4863
  0
LINE
  8
0
 10
38.9112
 20
11.4863
 11
38.9862
 21
11.6675
  0
LINE
  8
0
 10
38.9862
 20
11.6675
 11
39.0887
 21
11.8347
  0
LINE
  8
0
 10
39.0887
 20
11.8347
 11
39.2161
 21
11.9839
  0
LINE
  8
0
 10
39.2161
 20
11.9839
 11
39.3653
 21
12.1113
  0
LINE
  8
0
 10
39.3653
 20
12.1113
 11
39.5325
 21
12.2137
  0
LINE
  8
0
 10
39.5325
 20
12.2137
 11
39.7137
 21
12.2888
  0
LINE
  8
0
 10
39.7137
 20
12.2888
 11
39.9044
 21
12.3346
  0
LINE
  8
0
 10
39.9044
 20
12.3346
 11
40.1
 21
12.35
  0
LINE
  8
0
 10
40.1
 20
12.35
 11
40.2955
 21
12.3346
  0
LINE
  8
0
 10
40.2955
 20
12.3346
 11
40.4863
 21
12.2888
  0
LINE
  8
0
 10
40.4863
 20
12.2888
 11
40.6675
 21
12.2137
  0
LINE
  8
0
 10
40.6675
 20
12.2137
 11
40.8347
 21
12.1113
  0
LINE
  8
0
 10
40.8347
 20
12.1113
 11
40.9839
 21
11.9839
  0
LINE
  8
0
 10
40.9839
 20
11.9839
 11
41.1113
 21
11.8347
  0
LINE
  8
0
 10
41.1113
 20
11.8347
 11
41.2137
 21
11.6675
  0
LINE
  8
0
 10
41.2137
 20
11.6675
 11
41.2888
 21
11.4863
  0
LINE
  8
0
 10
41.2888
 20
11.4863
 11
41.3346
 21
11.2955
  0
LINE
  8
0
 10
41.3346
 20
11.2955
 11
41.35
 21
11.1
  0
LINE
  8
0
 10
41.35
 20
11.1
 11
41.3346
 21
10.9044
  0
LINE
  8
0
 10
41.3346
 20
10.9044
 11
41.2888
 21
10.7137
  0
LINE
  8
0
 10
41.2888
 20
10.7137
 11
41.2137
 21
10.5325
  0
LINE
  8
0
 10
41.2137
 20
10.5325
 11
41.1113
 21
10.3653
  0
LINE
  8
0
 10
41.1113
 20
10.3653
 11
40.9839
 21
10.2161
  0
LINE
  8
0
 10
40.9839
 20
10.2161
 11
40.8347
 21
10.0887
  0
LINE
  8
0
 10
40.8347
 20
10.0887
 11
40.6675
 21
9.98624
  0
LINE
  8
0
 10
40.6675
 20
9.98624
 11
40.4863
 21
9.91118
  0
LINE
  8
0
 10
40.4863
 20
9.91118
 11
40.2955
 21
9.86539
  0
LINE
  8
0
 10
40.2955
 20
9.86539
 11
40.1
 21
9.84999
  0
LINE
  8
0
 10
40.1
 20
9.84999
 11
39.9044
 21
9.86539
  0
LINE
  8
0
 10
208.25
 20
8.25
 11
208.25
 21
48.75
  0
LINE
  8
0
 10
208.25
 20
48.75
 11
152.9
 21
50.2
  0
LINE
  8
0
 10
152.9
 20
50.2
 11
144.3
 21
50.2
  0
LINE
  8
0
 10
144.3
 20
50.2
 11
144.3
 21
6.79999
  0
LINE
  8
0
 10
144.3
 20
6.79999
 11
152.9
 21
6.79999
  0
LINE
  8
0
 10
152.9
 20
6.79999
 11
208.25
 21
8.25
  0
LINE
  8
0
 10
147.904
 20
44.6654
 11
147.714
 21
44.7112
  0
LINE
  8
0
 10
147.714
 20
44.7112
 11
147.533
 21
44.7862
  0
LINE
  8
0
 10
147.533
 20
44.7862
 11
147.365
 21
44.8887
  0
LINE
  8
0
 10
147.365
 20
44.8887
 11
147.216
 21
45.0161
  0
LINE
  8
0
 10
147.216
 20
45.0161
 11
147.089
 21
45.1653
  0
LINE
  8
0
 10
147.089
 20
45.1653
 11
146.986
 21
45.3325
  0
LINE
  8
0
 10
146.986
 20
45.3325
 11
146.911
 21
45.5137
  0
LINE
  8
0
 10
146.911
 20
45.5137
 11
146.865
 21
45.7045
  0
LINE
  8
0
 10
146.865
 20
45.7045
 11
146.85
 21
45.9
  0
LINE
  8
0
 10
146.85
 20
45.9
 11
146.865
 21
46.0955
  0
LINE
  8
0
 10
146.865
 20
46.0955
 11
146.911
 21
46.2863
  0
LINE
  8
0
 10
146.911
 20
46.2863
 11
146.986
 21
46.4675
  0
LINE
  8
0
 10
146.986
 20
46.4675
 11
147.089
 21
46.6347
  0
LINE
  8
0
 10
147.089
 20
46.6347
 11
147.216
 21
46.7839
  0
LINE
  8
0
 10
147.216
 20
46.7839
 11
147.365
 21
46.9113
  0
LINE
  8
0
 10
147.365
 20
46.9113
 11
147.533
 21
47.0137
  0
LINE
  8
0
 10
147.533
 20
47.0137
 11
147.714
 21
47.0888
  0
LINE
  8
0
 10
147.714
 20
47.0888
 11
147.904
 21
47.1346
  0
LINE
  8
0
 10
147.904
 20
47.1346
 11
148.1
 21
47.15
  0
LINE
  8
0
 10
148.1
 20
47.15
 11
148.296
 21
47.1346
  0
LINE
  8
0
 10
148.296
 20
47.1346
 11
148.486
 21
47.0888
  0
LINE
  8
0
 10
148.486
 20
47.0888
 11
148.667
 21
47.0137
  0
LINE
  8
0
 10
148.667
 20
47.0137
 11
148.835
 21
46.9113
  0
LINE
  8
0
 10
148.835
 20
46.9113
 11
148.984
 21
46.7839
  0
LINE
  8
0
 10
148.984
 20
46.7839
 11
149.111
 21
46.6347
  0
LINE
  8
0
 10
149.111
 20
46.6347
 11
149.214
 21
46.4675
  0
LINE
  8
0
 10
149.214
 20
46.4675
 11
149.289
 21
46.2863
  0
LINE
  8
0
 10
149.289
 20
46.2863
 11
149.335
 21
46.0955
  0
LINE
  8
0
 10
149.335
 20
46.0955
 11
149.35
 21
45.9
  0
LINE
  8
0
 10
149.35
 20
45.9
 11
149.335
 21
45.7045
  0
LINE
  8
0
 10
149.335
 20
45.7045
 11
149.289
 21
45.5137
  0
LINE
  8
0
 10
149.289
 20
45.5137
 11
149.214
 21
45.3325
  0
LINE
  8
0
 10
149.214
 20
45.3325
 11
149.111
 21
45.1653
  0
LINE
  8
0
 10
149.111
 20
45.1653
 11
148.984
 21
45.0161
  0
LINE
  8
0
 10
148.984
 20
45.0161
 11
148.835
 21
44.8887
  0
LINE
  8
0
 10
148.835
 20
44.8887
 11
148.667
 21
44.7862
  0
LINE
  8
0
 10
148.667
 20
44.7862
 11
148.486
 21
44.7112
  0
LINE
  8
0
 10
148.486
 20
44.7112
 11
148.296
 21
44.6654
  0
LINE
  8
0
 10
148.296
 20
44.6654
 11
148.1
 21
44.65
  0
LINE
  8
0
 10
148.1
 20
44.65
 11
147.904
 21
44.6654
  0
LINE
  8
0
 10
151
 20
31.5
 11
151
 21
45.5
  0
LINE
  8
0
 10
151
 20
45.5
 11
165
 21
45.5
  0
LINE
  8
0
 10
165
 20
45.5
 11
165
 21
31.5
  0
LINE
  8
0
 10
165
 20
31.5
 11
151
 21
31.5
  0
LINE
  8
0
 10
191
 20
31.5
 11
191
 21
45.5
  0
LINE
  8
0
 10
191
 20
45.5
 11
205
 21
45.5
  0
LINE
  8
0
 10
205
 20
45.5
 11
205
 21
31.5
  0
LINE
  8
0
 10
205
 20
31.5
 11
191
 21
31.5
  0
LINE
  8
0
 10
151
 20
11.5
 11
151
 21
25.5
  0
LINE
  8
0
 10
151
 20
25.5
 11
165
 21
25.5
  0
LINE
  8
0
 10
165
 20
25.5
 11
165
 21
11.5
  0
LINE
  8
0
 10
165
 20
11.5
 11
151
 21
11.5
  0
LINE
  8
0
 10
191
 20
11.5
 11
191
 21
25.5
  0
LINE
  8
0
 10
191
 20
25.5
 11
205
 21
25.5
  0
LINE
  8
0
 10
205
 20
25.5
 11
205
 21
11.5
  0
LINE
  8
0
 10
205
 20
11.5
 11
191
 21
11.5
  0
LINE
  8
0
 10
147.904
 20
9.86539
 11
147.714
 21
9.91118
  0
LINE
  8
0
 10
147.714
 20
9.91118
 11
147.533
 21
9.98624
  0
LINE
  8
0
 10
147.533
 20
9.98624
 11
147.365
 21
10.0887
  0
LINE
  8
0
 10
147.365
 20
10.0887
 11
147.216
 21
10.2161
  0
LINE
  8
0
 10
147.216
 20
10.2161
 11
147.089
 21
10.3653
  0
LINE
  8
0
 10
147.089
 20
10.3653
 11
146.986
 21
10.5325
  0
LINE
  8
0
 10
146.986
 20
10.5325
 11
146.911
 21
10.7137
  0
LINE
  8
0
 10
146.911
 20
10.7137
 11
146.865
 21
10.9044
  0
LINE
  8
0
 10
146.865
 20
10.9044
 11
146.85
 21
11.1
  0
LINE
  8
0
 10
146.85
 20
11.1
 11
146.865
 21
11.2955
  0
LINE
  8
0
 10
146.865
 20
11.2955
 11
146.911
 21
11.4863
  0
LINE
  8
0
 10
146.911
 20
11.4863
 11
146.986
 21
11.6675
  0
LINE
  8
0
 10
146.986
 20
11.6675
 11
147.089
 21
11.8347
  0
LINE
  8
0
 10
147.089
 20
11.8347
 11
147.216
 21
11.9839
  0
LINE
  8
0
 10
147.216
 20
11.9839
 11
147.365
 21
12.1113
  0
LINE
  8
0
 10
147.365
 20
12.1113
 11
147.533
 21
12.2137
  0
LINE
  8
0
 10
147.533
 20
12.2137
 11
147.714
 21
12.2888
  0
LINE
  8
0
 10
147.714
 20
12.2888
 11
147.904
 21
12.3346
  0
LINE
  8
0
 10
147.904
 20
12.3346
 11
148.1
 21
12.35
  0
LINE
  8
0
 10
148.1
 20
12.35
 11
148.296
 21
12.3346
  0
LINE
  8
0
 10
148.296
 20
12.3346
 11
148.486
 21
12.2888
  0
LINE
  8
0
 10
148.486
 20
12.2888
 11
148.667
 21
12.2137
  0
LINE
  8
0
 10
148.667
 20
12.2137
 11
148.835
 21
12.1113
  0
LINE
  8
0
 10
148.835
 20
12.1113
 11
148.984
 21
11.9839
  0
LINE
  8
0
 10
148.984
 20
11.9839
 11
149.111
 21
11.8347
  0
LINE
  8
0
 10
149.111
 20
11.8347
 11
149.214
 21
11.6675
  0
LINE
  8
0
 10
149.214
 20
11.6675
 11
149.289
 21
11.4863
  0
LINE
  8
0
 10
149.289
 20
11.4863
 11
149.335
 21
11.2955
  0
LINE
  8
0
 10
149.335
 20
11.2955
 11
149.35
 21
11.1
  0
LINE
  8
0
 10
149.35
 20
11.1
 11
149.335
 21
10.9044
  0
LINE
  8
0
 10
149.335
 20
10.9044
 11
149.289
 21
10.7137
  0
LINE
  8
0
 10
149.289
 20
10.7137
 11
149.214
 21
10.5325
  0
LINE
  8
0
 10
149.214
 20
10.5325
 11
149.111
 21
10.3653
  0
LINE
  8
0
 10
149.111
 20
10.3653
 11
148.984
 21
10.2161
  0
LINE
  8
0
 10
148.984
 20
10.2161
 11
148.835
 21
10.0887
  0
LINE
  8
0
 10
148.835
 20
10.0887
 11
148.667
 21
9.98624
  0
LINE
  8
0
 10
148.667
 20
9.98624
 11
148.486
 21
9.91118
  0
LINE
  8
0
 10
148.486
 20
9.91118
 11
148.296
 21
9.86539
  0
LINE
  8
0
 10
148.296
 20
9.86539
 11
148.1
 21
9.84999
  0
LINE
  8
0
 10
148.1
 20
9.84999
 11
147.904
 21
9.86539
  0
ENDSEC
  0
SECTION
  2
OBJECTS
  0
DICTIONARY
  0
ENDSEC
  0
EOF
