  0
SECTION
  2
BLOCKS
  0
ENDSEC
  0
SECTION
  2
ENTITIES
  0
LINE
  8
0
 10
143.1
 20
44.5
 11
123.1
 21
44.5
  0
LINE
  8
0
 10
123.1
 20
44.5
 11
123.1
 21
12.5
  0
LINE
  8
0
 10
123.1
 20
12.5
 11
143.1
 21
12.5
  0
LINE
  8
0
 10
143.1
 20
12.5
 11
143.1
 21
44.5
  0
LINE
  8
0
 10
132.826
 20
36.7715
 11
132.559
 21
36.8356
  0
LINE
  8
0
 10
132.559
 20
36.8356
 11
132.306
 21
36.9407
  0
LINE
  8
0
 10
132.306
 20
36.9407
 11
132.071
 21
37.0842
  0
LINE
  8
0
 10
132.071
 20
37.0842
 11
131.863
 21
37.2626
  0
LINE
  8
0
 10
131.863
 20
37.2626
 11
131.684
 21
37.4714
  0
LINE
  8
0
 10
131.684
 20
37.4714
 11
131.541
 21
37.7055
  0
LINE
  8
0
 10
131.541
 20
37.7055
 11
131.436
 21
37.9592
  0
LINE
  8
0
 10
131.436
 20
37.9592
 11
131.372
 21
38.2262
  0
LINE
  8
0
 10
131.372
 20
38.2262
 11
131.35
 21
38.5
  0
LINE
  8
0
 10
131.35
 20
38.5
 11
131.372
 21
38.7738
  0
LINE
  8
0
 10
131.372
 20
38.7738
 11
131.436
 21
39.0408
  0
LINE
  8
0
 10
131.436
 20
39.0408
 11
131.541
 21
39.2945
  0
LINE
  8
0
 10
131.541
 20
39.2945
 11
131.684
 21
39.5286
  0
LINE
  8
0
 10
131.684
 20
39.5286
 11
131.863
 21
39.7374
  0
LINE
  8
0
 10
131.863
 20
39.7374
 11
132.071
 21
39.9158
  0
LINE
  8
0
 10
132.071
 20
39.9158
 11
132.306
 21
40.0592
  0
LINE
  8
0
 10
132.306
 20
40.0592
 11
132.559
 21
40.1643
  0
LINE
  8
0
 10
132.559
 20
40.1643
 11
132.826
 21
40.2285
  0
LINE
  8
0
 10
132.826
 20
40.2285
 11
133.1
 21
40.25
  0
LINE
  8
0
 10
133.1
 20
40.25
 11
133.374
 21
40.2285
  0
LINE
  8
0
 10
133.374
 20
40.2285
 11
133.641
 21
40.1643
  0
LINE
  8
0
 10
133.641
 20
40.1643
 11
133.894
 21
40.0592
  0
LINE
  8
0
 10
133.894
 20
40.0592
 11
134.129
 21
39.9158
  0
LINE
  8
0
 10
134.129
 20
39.9158
 11
134.337
 21
39.7374
  0
LINE
  8
0
 10
134.337
 20
39.7374
 11
134.516
 21
39.5286
  0
LINE
  8
0
 10
134.516
 20
39.5286
 11
134.659
 21
39.2945
  0
LINE
  8
0
 10
134.659
 20
39.2945
 11
134.764
 21
39.0408
  0
LINE
  8
0
 10
134.764
 20
39.0408
 11
134.828
 21
38.7738
  0
LINE
  8
0
 10
134.828
 20
38.7738
 11
134.85
 21
38.5
  0
LINE
  8
0
 10
134.85
 20
38.5
 11
134.828
 21
38.2262
  0
LINE
  8
0
 10
134.828
 20
38.2262
 11
134.764
 21
37.9592
  0
LINE
  8
0
 10
134.764
 20
37.9592
 11
134.659
 21
37.7055
  0
LINE
  8
0
 10
134.659
 20
37.7055
 11
134.516
 21
37.4714
  0
LINE
  8
0
 10
134.516
 20
37.4714
 11
134.337
 21
37.2626
  0
LINE
  8
0
 10
134.337
 20
37.2626
 11
134.129
 21
37.0842
  0
LINE
  8
0
 10
134.129
 20
37.0842
 11
133.894
 21
36.9407
  0
LINE
  8
0
 10
133.894
 20
36.9407
 11
133.641
 21
36.8356
  0
LINE
  8
0
 10
133.641
 20
36.8356
 11
133.374
 21
36.7715
  0
LINE
  8
0
 10
133.374
 20
36.7715
 11
133.1
 21
36.75
  0
LINE
  8
0
 10
133.1
 20
36.75
 11
132.826
 21
36.7715
  0
LINE
  8
0
 10
132.826
 20
16.7715
 11
132.559
 21
16.8356
  0
LINE
  8
0
 10
132.559
 20
16.8356
 11
132.306
 21
16.9407
  0
LINE
  8
0
 10
132.306
 20
16.9407
 11
132.071
 21
17.0842
  0
LINE
  8
0
 10
132.071
 20
17.0842
 11
131.863
 21
17.2626
  0
LINE
  8
0
 10
131.863
 20
17.2626
 11
131.684
 21
17.4714
  0
LINE
  8
0
 10
131.684
 20
17.4714
 11
131.541
 21
17.7055
  0
LINE
  8
0
 10
131.541
 20
17.7055
 11
131.436
 21
17.9592
  0
LINE
  8
0
 10
131.436
 20
17.9592
 11
131.372
 21
18.2262
  0
LINE
  8
0
 10
131.372
 20
18.2262
 11
131.35
 21
18.5
  0
LINE
  8
0
 10
131.35
 20
18.5
 11
131.372
 21
18.7738
  0
LINE
  8
0
 10
131.372
 20
18.7738
 11
131.436
 21
19.0408
  0
LINE
  8
0
 10
131.436
 20
19.0408
 11
131.541
 21
19.2945
  0
LINE
  8
0
 10
131.541
 20
19.2945
 11
131.684
 21
19.5286
  0
LINE
  8
0
 10
131.684
 20
19.5286
 11
131.863
 21
19.7374
  0
LINE
  8
0
 10
131.863
 20
19.7374
 11
132.071
 21
19.9158
  0
LINE
  8
0
 10
132.071
 20
19.9158
 11
132.306
 21
20.0592
  0
LINE
  8
0
 10
132.306
 20
20.0592
 11
132.559
 21
20.1643
  0
LINE
  8
0
 10
132.559
 20
20.1643
 11
132.826
 21
20.2285
  0
LINE
  8
0
 10
132.826
 20
20.2285
 11
133.1
 21
20.25
  0
LINE
  8
0
 10
133.1
 20
20.25
 11
133.374
 21
20.2285
  0
LINE
  8
0
 10
133.374
 20
20.2285
 11
133.641
 21
20.1643
  0
LINE
  8
0
 10
133.641
 20
20.1643
 11
133.894
 21
20.0592
  0
LINE
  8
0
 10
133.894
 20
20.0592
 11
134.129
 21
19.9158
  0
LINE
  8
0
 10
134.129
 20
19.9158
 11
134.337
 21
19.7374
  0
LINE
  8
0
 10
134.337
 20
19.7374
 11
134.516
 21
19.5286
  0
LINE
  8
0
 10
134.516
 20
19.5286
 11
134.659
 21
19.2945
  0
LINE
  8
0
 10
134.659
 20
19.2945
 11
134.764
 21
19.0408
  0
LINE
  8
0
 10
134.764
 20
19.0408
 11
134.828
 21
18.7738
  0
LINE
  8
0
 10
134.828
 20
18.7738
 11
134.85
 21
18.5
  0
LINE
  8
0
 10
134.85
 20
18.5
 11
134.828
 21
18.2262
  0
LINE
  8
0
 10
134.828
 20
18.2262
 11
134.764
 21
17.9592
  0
LINE
  8
0
 10
134.764
 20
17.9592
 11
134.659
 21
17.7055
  0
LINE
  8
0
 10
134.659
 20
17.7055
 11
134.516
 21
17.4714
  0
LINE
  8
0
 10
134.516
 20
17.4714
 11
134.337
 21
17.2626
  0
LINE
  8
0
 10
134.337
 20
17.2626
 11
134.129
 21
17.0842
  0
LINE
  8
0
 10
134.129
 20
17.0842
 11
133.894
 21
16.9407
  0
LINE
  8
0
 10
133.894
 20
16.9407
 11
133.641
 21
16.8356
  0
LINE
  8
0
 10
133.641
 20
16.8356
 11
133.374
 21
16.7715
  0
LINE
  8
0
 10
133.374
 20
16.7715
 11
133.1
 21
16.75
  0
LINE
  8
0
 10
133.1
 20
16.75
 11
132.826
 21
16.7715
  0
ENDSEC
  0
SECTION
  2
OBJECTS
  0
DICTIONARY
  0
ENDSEC
  0
EOF
