  0
SECTION
  2
BLOCKS
  0
ENDSEC
  0
SECTION
  2
ENTITIES
  0
LINE
  8
0
 10
181.298
 20
48
 11
161.298
 21
48
  0
LINE
  8
0
 10
161.298
 20
48
 11
161.298
 21
9
  0
LINE
  8
0
 10
161.298
 20
9
 11
181.298
 21
9
  0
LINE
  8
0
 10
181.298
 20
9
 11
181.298
 21
48
  0
LINE
  8
0
 10
170.868
 20
35.7838
 11
170.448
 21
35.8846
  0
LINE
  8
0
 10
170.448
 20
35.8846
 11
170.05
 21
36.0497
  0
LINE
  8
0
 10
170.05
 20
36.0497
 11
169.682
 21
36.2752
  0
LINE
  8
0
 10
169.682
 20
36.2752
 11
169.353
 21
36.5555
  0
LINE
  8
0
 10
169.353
 20
36.5555
 11
169.073
 21
36.8836
  0
LINE
  8
0
 10
169.073
 20
36.8836
 11
168.848
 21
37.2515
  0
LINE
  8
0
 10
168.848
 20
37.2515
 11
168.683
 21
37.6502
  0
LINE
  8
0
 10
168.683
 20
37.6502
 11
168.582
 21
38.0698
  0
LINE
  8
0
 10
168.582
 20
38.0698
 11
168.548
 21
38.5
  0
LINE
  8
0
 10
168.548
 20
38.5
 11
168.582
 21
38.9302
  0
LINE
  8
0
 10
168.582
 20
38.9302
 11
168.683
 21
39.3498
  0
LINE
  8
0
 10
168.683
 20
39.3498
 11
168.848
 21
39.7485
  0
LINE
  8
0
 10
168.848
 20
39.7485
 11
169.073
 21
40.1164
  0
LINE
  8
0
 10
169.073
 20
40.1164
 11
169.353
 21
40.4445
  0
LINE
  8
0
 10
169.353
 20
40.4445
 11
169.682
 21
40.7248
  0
LINE
  8
0
 10
169.682
 20
40.7248
 11
170.05
 21
40.9503
  0
LINE
  8
0
 10
170.05
 20
40.9503
 11
170.448
 21
41.1154
  0
LINE
  8
0
 10
170.448
 20
41.1154
 11
170.868
 21
41.2161
  0
LINE
  8
0
 10
170.868
 20
41.2161
 11
171.298
 21
41.25
  0
LINE
  8
0
 10
171.298
 20
41.25
 11
171.728
 21
41.2161
  0
LINE
  8
0
 10
171.728
 20
41.2161
 11
172.148
 21
41.1154
  0
LINE
  8
0
 10
172.148
 20
41.1154
 11
172.546
 21
40.9503
  0
LINE
  8
0
 10
172.546
 20
40.9503
 11
172.914
 21
40.7248
  0
LINE
  8
0
 10
172.914
 20
40.7248
 11
173.243
 21
40.4445
  0
LINE
  8
0
 10
173.243
 20
40.4445
 11
173.523
 21
40.1164
  0
LINE
  8
0
 10
173.523
 20
40.1164
 11
173.748
 21
39.7485
  0
LINE
  8
0
 10
173.748
 20
39.7485
 11
173.913
 21
39.3498
  0
LINE
  8
0
 10
173.913
 20
39.3498
 11
174.014
 21
38.9302
  0
LINE
  8
0
 10
174.014
 20
38.9302
 11
174.048
 21
38.5
  0
LINE
  8
0
 10
174.048
 20
38.5
 11
174.014
 21
38.0698
  0
LINE
  8
0
 10
174.014
 20
38.0698
 11
173.913
 21
37.6502
  0
LINE
  8
0
 10
173.913
 20
37.6502
 11
173.748
 21
37.2515
  0
LINE
  8
0
 10
173.748
 20
37.2515
 11
173.523
 21
36.8836
  0
LINE
  8
0
 10
173.523
 20
36.8836
 11
173.243
 21
36.5555
  0
LINE
  8
0
 10
173.243
 20
36.5555
 11
172.914
 21
36.2752
  0
LINE
  8
0
 10
172.914
 20
36.2752
 11
172.546
 21
36.0497
  0
LINE
  8
0
 10
172.546
 20
36.0497
 11
172.148
 21
35.8846
  0
LINE
  8
0
 10
172.148
 20
35.8846
 11
171.728
 21
35.7838
  0
LINE
  8
0
 10
171.728
 20
35.7838
 11
171.298
 21
35.75
  0
LINE
  8
0
 10
171.298
 20
35.75
 11
170.868
 21
35.7838
  0
LINE
  8
0
 10
170.868
 20
15.7838
 11
170.448
 21
15.8846
  0
LINE
  8
0
 10
170.448
 20
15.8846
 11
170.05
 21
16.0497
  0
LINE
  8
0
 10
170.05
 20
16.0497
 11
169.682
 21
16.2752
  0
LINE
  8
0
 10
169.682
 20
16.2752
 11
169.353
 21
16.5555
  0
LINE
  8
0
 10
169.353
 20
16.5555
 11
169.073
 21
16.8836
  0
LINE
  8
0
 10
169.073
 20
16.8836
 11
168.848
 21
17.2515
  0
LINE
  8
0
 10
168.848
 20
17.2515
 11
168.683
 21
17.6502
  0
LINE
  8
0
 10
168.683
 20
17.6502
 11
168.582
 21
18.0698
  0
LINE
  8
0
 10
168.582
 20
18.0698
 11
168.548
 21
18.5
  0
LINE
  8
0
 10
168.548
 20
18.5
 11
168.582
 21
18.9302
  0
LINE
  8
0
 10
168.582
 20
18.9302
 11
168.683
 21
19.3498
  0
LINE
  8
0
 10
168.683
 20
19.3498
 11
168.848
 21
19.7485
  0
LINE
  8
0
 10
168.848
 20
19.7485
 11
169.073
 21
20.1164
  0
LINE
  8
0
 10
169.073
 20
20.1164
 11
169.353
 21
20.4445
  0
LINE
  8
0
 10
169.353
 20
20.4445
 11
169.682
 21
20.7248
  0
LINE
  8
0
 10
169.682
 20
20.7248
 11
170.05
 21
20.9503
  0
LINE
  8
0
 10
170.05
 20
20.9503
 11
170.448
 21
21.1154
  0
LINE
  8
0
 10
170.448
 20
21.1154
 11
170.868
 21
21.2161
  0
LINE
  8
0
 10
170.868
 20
21.2161
 11
171.298
 21
21.25
  0
LINE
  8
0
 10
171.298
 20
21.25
 11
171.728
 21
21.2161
  0
LINE
  8
0
 10
171.728
 20
21.2161
 11
172.148
 21
21.1154
  0
LINE
  8
0
 10
172.148
 20
21.1154
 11
172.546
 21
20.9503
  0
LINE
  8
0
 10
172.546
 20
20.9503
 11
172.914
 21
20.7248
  0
LINE
  8
0
 10
172.914
 20
20.7248
 11
173.243
 21
20.4445
  0
LINE
  8
0
 10
173.243
 20
20.4445
 11
173.523
 21
20.1164
  0
LINE
  8
0
 10
173.523
 20
20.1164
 11
173.748
 21
19.7485
  0
LINE
  8
0
 10
173.748
 20
19.7485
 11
173.913
 21
19.3498
  0
LINE
  8
0
 10
173.913
 20
19.3498
 11
174.014
 21
18.9302
  0
LINE
  8
0
 10
174.014
 20
18.9302
 11
174.048
 21
18.5
  0
LINE
  8
0
 10
174.048
 20
18.5
 11
174.014
 21
18.0698
  0
LINE
  8
0
 10
174.014
 20
18.0698
 11
173.913
 21
17.6502
  0
LINE
  8
0
 10
173.913
 20
17.6502
 11
173.748
 21
17.2515
  0
LINE
  8
0
 10
173.748
 20
17.2515
 11
173.523
 21
16.8836
  0
LINE
  8
0
 10
173.523
 20
16.8836
 11
173.243
 21
16.5555
  0
LINE
  8
0
 10
173.243
 20
16.5555
 11
172.914
 21
16.2752
  0
LINE
  8
0
 10
172.914
 20
16.2752
 11
172.546
 21
16.0497
  0
LINE
  8
0
 10
172.546
 20
16.0497
 11
172.148
 21
15.8846
  0
LINE
  8
0
 10
172.148
 20
15.8846
 11
171.728
 21
15.7838
  0
LINE
  8
0
 10
171.728
 20
15.7838
 11
171.298
 21
15.75
  0
LINE
  8
0
 10
171.298
 20
15.75
 11
170.868
 21
15.7838
  0
ENDSEC
  0
SECTION
  2
OBJECTS
  0
DICTIONARY
  0
ENDSEC
  0
EOF
