  0
SECTION
  2
BLOCKS
  0
ENDSEC
  0
SECTION
  2
ENTITIES
  0
LINE
  8
0
 10
168.532
 20
48
 11
148.532
 21
48
  0
LINE
  8
0
 10
148.532
 20
48
 11
148.532
 21
9
  0
LINE
  8
0
 10
148.532
 20
9
 11
168.532
 21
9
  0
LINE
  8
0
 10
168.532
 20
9
 11
168.532
 21
48
  0
LINE
  8
0
 10
158.102
 20
35.7838
 11
157.682
 21
35.8846
  0
LINE
  8
0
 10
157.682
 20
35.8846
 11
157.284
 21
36.0497
  0
LINE
  8
0
 10
157.284
 20
36.0497
 11
156.916
 21
36.2752
  0
LINE
  8
0
 10
156.916
 20
36.2752
 11
156.587
 21
36.5555
  0
LINE
  8
0
 10
156.587
 20
36.5555
 11
156.307
 21
36.8836
  0
LINE
  8
0
 10
156.307
 20
36.8836
 11
156.082
 21
37.2515
  0
LINE
  8
0
 10
156.082
 20
37.2515
 11
155.917
 21
37.6502
  0
LINE
  8
0
 10
155.917
 20
37.6502
 11
155.816
 21
38.0698
  0
LINE
  8
0
 10
155.816
 20
38.0698
 11
155.782
 21
38.5
  0
LINE
  8
0
 10
155.782
 20
38.5
 11
155.816
 21
38.9302
  0
LINE
  8
0
 10
155.816
 20
38.9302
 11
155.917
 21
39.3498
  0
LINE
  8
0
 10
155.917
 20
39.3498
 11
156.082
 21
39.7485
  0
LINE
  8
0
 10
156.082
 20
39.7485
 11
156.307
 21
40.1164
  0
LINE
  8
0
 10
156.307
 20
40.1164
 11
156.587
 21
40.4445
  0
LINE
  8
0
 10
156.587
 20
40.4445
 11
156.916
 21
40.7248
  0
LINE
  8
0
 10
156.916
 20
40.7248
 11
157.284
 21
40.9503
  0
LINE
  8
0
 10
157.284
 20
40.9503
 11
157.682
 21
41.1154
  0
LINE
  8
0
 10
157.682
 20
41.1154
 11
158.102
 21
41.2161
  0
LINE
  8
0
 10
158.102
 20
41.2161
 11
158.532
 21
41.25
  0
LINE
  8
0
 10
158.532
 20
41.25
 11
158.962
 21
41.2161
  0
LINE
  8
0
 10
158.962
 20
41.2161
 11
159.382
 21
41.1154
  0
LINE
  8
0
 10
159.382
 20
41.1154
 11
159.78
 21
40.9503
  0
LINE
  8
0
 10
159.78
 20
40.9503
 11
160.148
 21
40.7248
  0
LINE
  8
0
 10
160.148
 20
40.7248
 11
160.477
 21
40.4445
  0
LINE
  8
0
 10
160.477
 20
40.4445
 11
160.757
 21
40.1164
  0
LINE
  8
0
 10
160.757
 20
40.1164
 11
160.982
 21
39.7485
  0
LINE
  8
0
 10
160.982
 20
39.7485
 11
161.147
 21
39.3498
  0
LINE
  8
0
 10
161.147
 20
39.3498
 11
161.248
 21
38.9302
  0
LINE
  8
0
 10
161.248
 20
38.9302
 11
161.282
 21
38.5
  0
LINE
  8
0
 10
161.282
 20
38.5
 11
161.248
 21
38.0698
  0
LINE
  8
0
 10
161.248
 20
38.0698
 11
161.147
 21
37.6502
  0
LINE
  8
0
 10
161.147
 20
37.6502
 11
160.982
 21
37.2515
  0
LINE
  8
0
 10
160.982
 20
37.2515
 11
160.757
 21
36.8836
  0
LINE
  8
0
 10
160.757
 20
36.8836
 11
160.477
 21
36.5555
  0
LINE
  8
0
 10
160.477
 20
36.5555
 11
160.148
 21
36.2752
  0
LINE
  8
0
 10
160.148
 20
36.2752
 11
159.78
 21
36.0497
  0
LINE
  8
0
 10
159.78
 20
36.0497
 11
159.382
 21
35.8846
  0
LINE
  8
0
 10
159.382
 20
35.8846
 11
158.962
 21
35.7838
  0
LINE
  8
0
 10
158.962
 20
35.7838
 11
158.532
 21
35.75
  0
LINE
  8
0
 10
158.532
 20
35.75
 11
158.102
 21
35.7838
  0
LINE
  8
0
 10
158.102
 20
15.7838
 11
157.682
 21
15.8846
  0
LINE
  8
0
 10
157.682
 20
15.8846
 11
157.284
 21
16.0497
  0
LINE
  8
0
 10
157.284
 20
16.0497
 11
156.916
 21
16.2752
  0
LINE
  8
0
 10
156.916
 20
16.2752
 11
156.587
 21
16.5555
  0
LINE
  8
0
 10
156.587
 20
16.5555
 11
156.307
 21
16.8836
  0
LINE
  8
0
 10
156.307
 20
16.8836
 11
156.082
 21
17.2515
  0
LINE
  8
0
 10
156.082
 20
17.2515
 11
155.917
 21
17.6502
  0
LINE
  8
0
 10
155.917
 20
17.6502
 11
155.816
 21
18.0698
  0
LINE
  8
0
 10
155.816
 20
18.0698
 11
155.782
 21
18.5
  0
LINE
  8
0
 10
155.782
 20
18.5
 11
155.816
 21
18.9302
  0
LINE
  8
0
 10
155.816
 20
18.9302
 11
155.917
 21
19.3498
  0
LINE
  8
0
 10
155.917
 20
19.3498
 11
156.082
 21
19.7485
  0
LINE
  8
0
 10
156.082
 20
19.7485
 11
156.307
 21
20.1164
  0
LINE
  8
0
 10
156.307
 20
20.1164
 11
156.587
 21
20.4445
  0
LINE
  8
0
 10
156.587
 20
20.4445
 11
156.916
 21
20.7248
  0
LINE
  8
0
 10
156.916
 20
20.7248
 11
157.284
 21
20.9503
  0
LINE
  8
0
 10
157.284
 20
20.9503
 11
157.682
 21
21.1154
  0
LINE
  8
0
 10
157.682
 20
21.1154
 11
158.102
 21
21.2161
  0
LINE
  8
0
 10
158.102
 20
21.2161
 11
158.532
 21
21.25
  0
LINE
  8
0
 10
158.532
 20
21.25
 11
158.962
 21
21.2161
  0
LINE
  8
0
 10
158.962
 20
21.2161
 11
159.382
 21
21.1154
  0
LINE
  8
0
 10
159.382
 20
21.1154
 11
159.78
 21
20.9503
  0
LINE
  8
0
 10
159.78
 20
20.9503
 11
160.148
 21
20.7248
  0
LINE
  8
0
 10
160.148
 20
20.7248
 11
160.477
 21
20.4445
  0
LINE
  8
0
 10
160.477
 20
20.4445
 11
160.757
 21
20.1164
  0
LINE
  8
0
 10
160.757
 20
20.1164
 11
160.982
 21
19.7485
  0
LINE
  8
0
 10
160.982
 20
19.7485
 11
161.147
 21
19.3498
  0
LINE
  8
0
 10
161.147
 20
19.3498
 11
161.248
 21
18.9302
  0
LINE
  8
0
 10
161.248
 20
18.9302
 11
161.282
 21
18.5
  0
LINE
  8
0
 10
161.282
 20
18.5
 11
161.248
 21
18.0698
  0
LINE
  8
0
 10
161.248
 20
18.0698
 11
161.147
 21
17.6502
  0
LINE
  8
0
 10
161.147
 20
17.6502
 11
160.982
 21
17.2515
  0
LINE
  8
0
 10
160.982
 20
17.2515
 11
160.757
 21
16.8836
  0
LINE
  8
0
 10
160.757
 20
16.8836
 11
160.477
 21
16.5555
  0
LINE
  8
0
 10
160.477
 20
16.5555
 11
160.148
 21
16.2752
  0
LINE
  8
0
 10
160.148
 20
16.2752
 11
159.78
 21
16.0497
  0
LINE
  8
0
 10
159.78
 20
16.0497
 11
159.382
 21
15.8846
  0
LINE
  8
0
 10
159.382
 20
15.8846
 11
158.962
 21
15.7838
  0
LINE
  8
0
 10
158.962
 20
15.7838
 11
158.532
 21
15.75
  0
LINE
  8
0
 10
158.532
 20
15.75
 11
158.102
 21
15.7838
  0
ENDSEC
  0
SECTION
  2
OBJECTS
  0
DICTIONARY
  0
ENDSEC
  0
EOF
