  0
SECTION
  2
BLOCKS
  0
ENDSEC
  0
SECTION
  2
ENTITIES
  0
LINE
  8
0
 10
182.825
 20
48
 11
162.825
 21
48
  0
LINE
  8
0
 10
162.825
 20
48
 11
162.825
 21
9
  0
LINE
  8
0
 10
162.825
 20
9
 11
182.825
 21
9
  0
LINE
  8
0
 10
182.825
 20
9
 11
182.825
 21
48
  0
LINE
  8
0
 10
172.395
 20
35.7838
 11
171.975
 21
35.8846
  0
LINE
  8
0
 10
171.975
 20
35.8846
 11
171.577
 21
36.0497
  0
LINE
  8
0
 10
171.577
 20
36.0497
 11
171.209
 21
36.2752
  0
LINE
  8
0
 10
171.209
 20
36.2752
 11
170.88
 21
36.5555
  0
LINE
  8
0
 10
170.88
 20
36.5555
 11
170.6
 21
36.8836
  0
LINE
  8
0
 10
170.6
 20
36.8836
 11
170.375
 21
37.2515
  0
LINE
  8
0
 10
170.375
 20
37.2515
 11
170.21
 21
37.6502
  0
LINE
  8
0
 10
170.21
 20
37.6502
 11
170.109
 21
38.0698
  0
LINE
  8
0
 10
170.109
 20
38.0698
 11
170.075
 21
38.5
  0
LINE
  8
0
 10
170.075
 20
38.5
 11
170.109
 21
38.9302
  0
LINE
  8
0
 10
170.109
 20
38.9302
 11
170.21
 21
39.3498
  0
LINE
  8
0
 10
170.21
 20
39.3498
 11
170.375
 21
39.7485
  0
LINE
  8
0
 10
170.375
 20
39.7485
 11
170.6
 21
40.1164
  0
LINE
  8
0
 10
170.6
 20
40.1164
 11
170.88
 21
40.4445
  0
LINE
  8
0
 10
170.88
 20
40.4445
 11
171.209
 21
40.7248
  0
LINE
  8
0
 10
171.209
 20
40.7248
 11
171.577
 21
40.9503
  0
LINE
  8
0
 10
171.577
 20
40.9503
 11
171.975
 21
41.1154
  0
LINE
  8
0
 10
171.975
 20
41.1154
 11
172.395
 21
41.2161
  0
LINE
  8
0
 10
172.395
 20
41.2161
 11
172.825
 21
41.25
  0
LINE
  8
0
 10
172.825
 20
41.25
 11
173.255
 21
41.2161
  0
LINE
  8
0
 10
173.255
 20
41.2161
 11
173.675
 21
41.1154
  0
LINE
  8
0
 10
173.675
 20
41.1154
 11
174.073
 21
40.9503
  0
LINE
  8
0
 10
174.073
 20
40.9503
 11
174.441
 21
40.7248
  0
LINE
  8
0
 10
174.441
 20
40.7248
 11
174.77
 21
40.4445
  0
LINE
  8
0
 10
174.77
 20
40.4445
 11
175.05
 21
40.1164
  0
LINE
  8
0
 10
175.05
 20
40.1164
 11
175.275
 21
39.7485
  0
LINE
  8
0
 10
175.275
 20
39.7485
 11
175.44
 21
39.3498
  0
LINE
  8
0
 10
175.44
 20
39.3498
 11
175.541
 21
38.9302
  0
LINE
  8
0
 10
175.541
 20
38.9302
 11
175.575
 21
38.5
  0
LINE
  8
0
 10
175.575
 20
38.5
 11
175.541
 21
38.0698
  0
LINE
  8
0
 10
175.541
 20
38.0698
 11
175.44
 21
37.6502
  0
LINE
  8
0
 10
175.44
 20
37.6502
 11
175.275
 21
37.2515
  0
LINE
  8
0
 10
175.275
 20
37.2515
 11
175.05
 21
36.8836
  0
LINE
  8
0
 10
175.05
 20
36.8836
 11
174.77
 21
36.5555
  0
LINE
  8
0
 10
174.77
 20
36.5555
 11
174.441
 21
36.2752
  0
LINE
  8
0
 10
174.441
 20
36.2752
 11
174.073
 21
36.0497
  0
LINE
  8
0
 10
174.073
 20
36.0497
 11
173.675
 21
35.8846
  0
LINE
  8
0
 10
173.675
 20
35.8846
 11
173.255
 21
35.7838
  0
LINE
  8
0
 10
173.255
 20
35.7838
 11
172.825
 21
35.75
  0
LINE
  8
0
 10
172.825
 20
35.75
 11
172.395
 21
35.7838
  0
LINE
  8
0
 10
172.395
 20
15.7838
 11
171.975
 21
15.8846
  0
LINE
  8
0
 10
171.975
 20
15.8846
 11
171.577
 21
16.0497
  0
LINE
  8
0
 10
171.577
 20
16.0497
 11
171.209
 21
16.2752
  0
LINE
  8
0
 10
171.209
 20
16.2752
 11
170.88
 21
16.5555
  0
LINE
  8
0
 10
170.88
 20
16.5555
 11
170.6
 21
16.8836
  0
LINE
  8
0
 10
170.6
 20
16.8836
 11
170.375
 21
17.2515
  0
LINE
  8
0
 10
170.375
 20
17.2515
 11
170.21
 21
17.6502
  0
LINE
  8
0
 10
170.21
 20
17.6502
 11
170.109
 21
18.0698
  0
LINE
  8
0
 10
170.109
 20
18.0698
 11
170.075
 21
18.5
  0
LINE
  8
0
 10
170.075
 20
18.5
 11
170.109
 21
18.9302
  0
LINE
  8
0
 10
170.109
 20
18.9302
 11
170.21
 21
19.3498
  0
LINE
  8
0
 10
170.21
 20
19.3498
 11
170.375
 21
19.7485
  0
LINE
  8
0
 10
170.375
 20
19.7485
 11
170.6
 21
20.1164
  0
LINE
  8
0
 10
170.6
 20
20.1164
 11
170.88
 21
20.4445
  0
LINE
  8
0
 10
170.88
 20
20.4445
 11
171.209
 21
20.7248
  0
LINE
  8
0
 10
171.209
 20
20.7248
 11
171.577
 21
20.9503
  0
LINE
  8
0
 10
171.577
 20
20.9503
 11
171.975
 21
21.1154
  0
LINE
  8
0
 10
171.975
 20
21.1154
 11
172.395
 21
21.2161
  0
LINE
  8
0
 10
172.395
 20
21.2161
 11
172.825
 21
21.25
  0
LINE
  8
0
 10
172.825
 20
21.25
 11
173.255
 21
21.2161
  0
LINE
  8
0
 10
173.255
 20
21.2161
 11
173.675
 21
21.1154
  0
LINE
  8
0
 10
173.675
 20
21.1154
 11
174.073
 21
20.9503
  0
LINE
  8
0
 10
174.073
 20
20.9503
 11
174.441
 21
20.7248
  0
LINE
  8
0
 10
174.441
 20
20.7248
 11
174.77
 21
20.4445
  0
LINE
  8
0
 10
174.77
 20
20.4445
 11
175.05
 21
20.1164
  0
LINE
  8
0
 10
175.05
 20
20.1164
 11
175.275
 21
19.7485
  0
LINE
  8
0
 10
175.275
 20
19.7485
 11
175.44
 21
19.3498
  0
LINE
  8
0
 10
175.44
 20
19.3498
 11
175.541
 21
18.9302
  0
LINE
  8
0
 10
175.541
 20
18.9302
 11
175.575
 21
18.5
  0
LINE
  8
0
 10
175.575
 20
18.5
 11
175.541
 21
18.0698
  0
LINE
  8
0
 10
175.541
 20
18.0698
 11
175.44
 21
17.6502
  0
LINE
  8
0
 10
175.44
 20
17.6502
 11
175.275
 21
17.2515
  0
LINE
  8
0
 10
175.275
 20
17.2515
 11
175.05
 21
16.8836
  0
LINE
  8
0
 10
175.05
 20
16.8836
 11
174.77
 21
16.5555
  0
LINE
  8
0
 10
174.77
 20
16.5555
 11
174.441
 21
16.2752
  0
LINE
  8
0
 10
174.441
 20
16.2752
 11
174.073
 21
16.0497
  0
LINE
  8
0
 10
174.073
 20
16.0497
 11
173.675
 21
15.8846
  0
LINE
  8
0
 10
173.675
 20
15.8846
 11
173.255
 21
15.7838
  0
LINE
  8
0
 10
173.255
 20
15.7838
 11
172.825
 21
15.75
  0
LINE
  8
0
 10
172.825
 20
15.75
 11
172.395
 21
15.7838
  0
ENDSEC
  0
SECTION
  2
OBJECTS
  0
DICTIONARY
  0
ENDSEC
  0
EOF
