  0
SECTION
  2
BLOCKS
  0
ENDSEC
  0
SECTION
  2
ENTITIES
  0
LINE
  8
0
 10
200.682
 20
48
 11
180.682
 21
48
  0
LINE
  8
0
 10
180.682
 20
48
 11
180.682
 21
9
  0
LINE
  8
0
 10
180.682
 20
9
 11
200.682
 21
9
  0
LINE
  8
0
 10
200.682
 20
9
 11
200.682
 21
48
  0
LINE
  8
0
 10
190.252
 20
35.7838
 11
189.832
 21
35.8846
  0
LINE
  8
0
 10
189.832
 20
35.8846
 11
189.434
 21
36.0497
  0
LINE
  8
0
 10
189.434
 20
36.0497
 11
189.066
 21
36.2752
  0
LINE
  8
0
 10
189.066
 20
36.2752
 11
188.737
 21
36.5555
  0
LINE
  8
0
 10
188.737
 20
36.5555
 11
188.457
 21
36.8836
  0
LINE
  8
0
 10
188.457
 20
36.8836
 11
188.232
 21
37.2515
  0
LINE
  8
0
 10
188.232
 20
37.2515
 11
188.067
 21
37.6502
  0
LINE
  8
0
 10
188.067
 20
37.6502
 11
187.966
 21
38.0698
  0
LINE
  8
0
 10
187.966
 20
38.0698
 11
187.932
 21
38.5
  0
LINE
  8
0
 10
187.932
 20
38.5
 11
187.966
 21
38.9302
  0
LINE
  8
0
 10
187.966
 20
38.9302
 11
188.067
 21
39.3498
  0
LINE
  8
0
 10
188.067
 20
39.3498
 11
188.232
 21
39.7485
  0
LINE
  8
0
 10
188.232
 20
39.7485
 11
188.457
 21
40.1164
  0
LINE
  8
0
 10
188.457
 20
40.1164
 11
188.737
 21
40.4445
  0
LINE
  8
0
 10
188.737
 20
40.4445
 11
189.066
 21
40.7248
  0
LINE
  8
0
 10
189.066
 20
40.7248
 11
189.434
 21
40.9503
  0
LINE
  8
0
 10
189.434
 20
40.9503
 11
189.832
 21
41.1154
  0
LINE
  8
0
 10
189.832
 20
41.1154
 11
190.252
 21
41.2161
  0
LINE
  8
0
 10
190.252
 20
41.2161
 11
190.682
 21
41.25
  0
LINE
  8
0
 10
190.682
 20
41.25
 11
191.112
 21
41.2161
  0
LINE
  8
0
 10
191.112
 20
41.2161
 11
191.532
 21
41.1154
  0
LINE
  8
0
 10
191.532
 20
41.1154
 11
191.93
 21
40.9503
  0
LINE
  8
0
 10
191.93
 20
40.9503
 11
192.298
 21
40.7248
  0
LINE
  8
0
 10
192.298
 20
40.7248
 11
192.627
 21
40.4445
  0
LINE
  8
0
 10
192.627
 20
40.4445
 11
192.907
 21
40.1164
  0
LINE
  8
0
 10
192.907
 20
40.1164
 11
193.132
 21
39.7485
  0
LINE
  8
0
 10
193.132
 20
39.7485
 11
193.297
 21
39.3498
  0
LINE
  8
0
 10
193.297
 20
39.3498
 11
193.398
 21
38.9302
  0
LINE
  8
0
 10
193.398
 20
38.9302
 11
193.432
 21
38.5
  0
LINE
  8
0
 10
193.432
 20
38.5
 11
193.398
 21
38.0698
  0
LINE
  8
0
 10
193.398
 20
38.0698
 11
193.297
 21
37.6502
  0
LINE
  8
0
 10
193.297
 20
37.6502
 11
193.132
 21
37.2515
  0
LINE
  8
0
 10
193.132
 20
37.2515
 11
192.907
 21
36.8836
  0
LINE
  8
0
 10
192.907
 20
36.8836
 11
192.627
 21
36.5555
  0
LINE
  8
0
 10
192.627
 20
36.5555
 11
192.298
 21
36.2752
  0
LINE
  8
0
 10
192.298
 20
36.2752
 11
191.93
 21
36.0497
  0
LINE
  8
0
 10
191.93
 20
36.0497
 11
191.532
 21
35.8846
  0
LINE
  8
0
 10
191.532
 20
35.8846
 11
191.112
 21
35.7838
  0
LINE
  8
0
 10
191.112
 20
35.7838
 11
190.682
 21
35.75
  0
LINE
  8
0
 10
190.682
 20
35.75
 11
190.252
 21
35.7838
  0
LINE
  8
0
 10
190.252
 20
15.7838
 11
189.832
 21
15.8846
  0
LINE
  8
0
 10
189.832
 20
15.8846
 11
189.434
 21
16.0497
  0
LINE
  8
0
 10
189.434
 20
16.0497
 11
189.066
 21
16.2752
  0
LINE
  8
0
 10
189.066
 20
16.2752
 11
188.737
 21
16.5555
  0
LINE
  8
0
 10
188.737
 20
16.5555
 11
188.457
 21
16.8836
  0
LINE
  8
0
 10
188.457
 20
16.8836
 11
188.232
 21
17.2515
  0
LINE
  8
0
 10
188.232
 20
17.2515
 11
188.067
 21
17.6502
  0
LINE
  8
0
 10
188.067
 20
17.6502
 11
187.966
 21
18.0698
  0
LINE
  8
0
 10
187.966
 20
18.0698
 11
187.932
 21
18.5
  0
LINE
  8
0
 10
187.932
 20
18.5
 11
187.966
 21
18.9302
  0
LINE
  8
0
 10
187.966
 20
18.9302
 11
188.067
 21
19.3498
  0
LINE
  8
0
 10
188.067
 20
19.3498
 11
188.232
 21
19.7485
  0
LINE
  8
0
 10
188.232
 20
19.7485
 11
188.457
 21
20.1164
  0
LINE
  8
0
 10
188.457
 20
20.1164
 11
188.737
 21
20.4445
  0
LINE
  8
0
 10
188.737
 20
20.4445
 11
189.066
 21
20.7248
  0
LINE
  8
0
 10
189.066
 20
20.7248
 11
189.434
 21
20.9503
  0
LINE
  8
0
 10
189.434
 20
20.9503
 11
189.832
 21
21.1154
  0
LINE
  8
0
 10
189.832
 20
21.1154
 11
190.252
 21
21.2161
  0
LINE
  8
0
 10
190.252
 20
21.2161
 11
190.682
 21
21.25
  0
LINE
  8
0
 10
190.682
 20
21.25
 11
191.112
 21
21.2161
  0
LINE
  8
0
 10
191.112
 20
21.2161
 11
191.532
 21
21.1154
  0
LINE
  8
0
 10
191.532
 20
21.1154
 11
191.93
 21
20.9503
  0
LINE
  8
0
 10
191.93
 20
20.9503
 11
192.298
 21
20.7248
  0
LINE
  8
0
 10
192.298
 20
20.7248
 11
192.627
 21
20.4445
  0
LINE
  8
0
 10
192.627
 20
20.4445
 11
192.907
 21
20.1164
  0
LINE
  8
0
 10
192.907
 20
20.1164
 11
193.132
 21
19.7485
  0
LINE
  8
0
 10
193.132
 20
19.7485
 11
193.297
 21
19.3498
  0
LINE
  8
0
 10
193.297
 20
19.3498
 11
193.398
 21
18.9302
  0
LINE
  8
0
 10
193.398
 20
18.9302
 11
193.432
 21
18.5
  0
LINE
  8
0
 10
193.432
 20
18.5
 11
193.398
 21
18.0698
  0
LINE
  8
0
 10
193.398
 20
18.0698
 11
193.297
 21
17.6502
  0
LINE
  8
0
 10
193.297
 20
17.6502
 11
193.132
 21
17.2515
  0
LINE
  8
0
 10
193.132
 20
17.2515
 11
192.907
 21
16.8836
  0
LINE
  8
0
 10
192.907
 20
16.8836
 11
192.627
 21
16.5555
  0
LINE
  8
0
 10
192.627
 20
16.5555
 11
192.298
 21
16.2752
  0
LINE
  8
0
 10
192.298
 20
16.2752
 11
191.93
 21
16.0497
  0
LINE
  8
0
 10
191.93
 20
16.0497
 11
191.532
 21
15.8846
  0
LINE
  8
0
 10
191.532
 20
15.8846
 11
191.112
 21
15.7838
  0
LINE
  8
0
 10
191.112
 20
15.7838
 11
190.682
 21
15.75
  0
LINE
  8
0
 10
190.682
 20
15.75
 11
190.252
 21
15.7838
  0
ENDSEC
  0
SECTION
  2
OBJECTS
  0
DICTIONARY
  0
ENDSEC
  0
EOF
