  0
SECTION
  2
BLOCKS
  0
ENDSEC
  0
SECTION
  2
ENTITIES
  0
LINE
  8
0
 10
143
 20
48
 11
123
 21
48
  0
LINE
  8
0
 10
123
 20
48
 11
123
 21
9
  0
LINE
  8
0
 10
123
 20
9
 11
143
 21
9
  0
LINE
  8
0
 10
143
 20
9
 11
143
 21
48
  0
LINE
  8
0
 10
132.57
 20
35.7838
 11
132.15
 21
35.8846
  0
LINE
  8
0
 10
132.15
 20
35.8846
 11
131.752
 21
36.0497
  0
LINE
  8
0
 10
131.752
 20
36.0497
 11
131.384
 21
36.2752
  0
LINE
  8
0
 10
131.384
 20
36.2752
 11
131.055
 21
36.5555
  0
LINE
  8
0
 10
131.055
 20
36.5555
 11
130.775
 21
36.8836
  0
LINE
  8
0
 10
130.775
 20
36.8836
 11
130.55
 21
37.2515
  0
LINE
  8
0
 10
130.55
 20
37.2515
 11
130.385
 21
37.6502
  0
LINE
  8
0
 10
130.385
 20
37.6502
 11
130.284
 21
38.0698
  0
LINE
  8
0
 10
130.284
 20
38.0698
 11
130.25
 21
38.5
  0
LINE
  8
0
 10
130.25
 20
38.5
 11
130.284
 21
38.9302
  0
LINE
  8
0
 10
130.284
 20
38.9302
 11
130.385
 21
39.3498
  0
LINE
  8
0
 10
130.385
 20
39.3498
 11
130.55
 21
39.7485
  0
LINE
  8
0
 10
130.55
 20
39.7485
 11
130.775
 21
40.1164
  0
LINE
  8
0
 10
130.775
 20
40.1164
 11
131.055
 21
40.4445
  0
LINE
  8
0
 10
131.055
 20
40.4445
 11
131.384
 21
40.7248
  0
LINE
  8
0
 10
131.384
 20
40.7248
 11
131.752
 21
40.9503
  0
LINE
  8
0
 10
131.752
 20
40.9503
 11
132.15
 21
41.1154
  0
LINE
  8
0
 10
132.15
 20
41.1154
 11
132.57
 21
41.2161
  0
LINE
  8
0
 10
132.57
 20
41.2161
 11
133
 21
41.25
  0
LINE
  8
0
 10
133
 20
41.25
 11
133.43
 21
41.2161
  0
LINE
  8
0
 10
133.43
 20
41.2161
 11
133.85
 21
41.1154
  0
LINE
  8
0
 10
133.85
 20
41.1154
 11
134.248
 21
40.9503
  0
LINE
  8
0
 10
134.248
 20
40.9503
 11
134.616
 21
40.7248
  0
LINE
  8
0
 10
134.616
 20
40.7248
 11
134.945
 21
40.4445
  0
LINE
  8
0
 10
134.945
 20
40.4445
 11
135.225
 21
40.1164
  0
LINE
  8
0
 10
135.225
 20
40.1164
 11
135.45
 21
39.7485
  0
LINE
  8
0
 10
135.45
 20
39.7485
 11
135.615
 21
39.3498
  0
LINE
  8
0
 10
135.615
 20
39.3498
 11
135.716
 21
38.9302
  0
LINE
  8
0
 10
135.716
 20
38.9302
 11
135.75
 21
38.5
  0
LINE
  8
0
 10
135.75
 20
38.5
 11
135.716
 21
38.0698
  0
LINE
  8
0
 10
135.716
 20
38.0698
 11
135.615
 21
37.6502
  0
LINE
  8
0
 10
135.615
 20
37.6502
 11
135.45
 21
37.2515
  0
LINE
  8
0
 10
135.45
 20
37.2515
 11
135.225
 21
36.8836
  0
LINE
  8
0
 10
135.225
 20
36.8836
 11
134.945
 21
36.5555
  0
LINE
  8
0
 10
134.945
 20
36.5555
 11
134.616
 21
36.2752
  0
LINE
  8
0
 10
134.616
 20
36.2752
 11
134.248
 21
36.0497
  0
LINE
  8
0
 10
134.248
 20
36.0497
 11
133.85
 21
35.8846
  0
LINE
  8
0
 10
133.85
 20
35.8846
 11
133.43
 21
35.7838
  0
LINE
  8
0
 10
133.43
 20
35.7838
 11
133
 21
35.75
  0
LINE
  8
0
 10
133
 20
35.75
 11
132.57
 21
35.7838
  0
LINE
  8
0
 10
132.57
 20
15.7838
 11
132.15
 21
15.8846
  0
LINE
  8
0
 10
132.15
 20
15.8846
 11
131.752
 21
16.0497
  0
LINE
  8
0
 10
131.752
 20
16.0497
 11
131.384
 21
16.2752
  0
LINE
  8
0
 10
131.384
 20
16.2752
 11
131.055
 21
16.5555
  0
LINE
  8
0
 10
131.055
 20
16.5555
 11
130.775
 21
16.8836
  0
LINE
  8
0
 10
130.775
 20
16.8836
 11
130.55
 21
17.2515
  0
LINE
  8
0
 10
130.55
 20
17.2515
 11
130.385
 21
17.6502
  0
LINE
  8
0
 10
130.385
 20
17.6502
 11
130.284
 21
18.0698
  0
LINE
  8
0
 10
130.284
 20
18.0698
 11
130.25
 21
18.5
  0
LINE
  8
0
 10
130.25
 20
18.5
 11
130.284
 21
18.9302
  0
LINE
  8
0
 10
130.284
 20
18.9302
 11
130.385
 21
19.3498
  0
LINE
  8
0
 10
130.385
 20
19.3498
 11
130.55
 21
19.7485
  0
LINE
  8
0
 10
130.55
 20
19.7485
 11
130.775
 21
20.1164
  0
LINE
  8
0
 10
130.775
 20
20.1164
 11
131.055
 21
20.4445
  0
LINE
  8
0
 10
131.055
 20
20.4445
 11
131.384
 21
20.7248
  0
LINE
  8
0
 10
131.384
 20
20.7248
 11
131.752
 21
20.9503
  0
LINE
  8
0
 10
131.752
 20
20.9503
 11
132.15
 21
21.1154
  0
LINE
  8
0
 10
132.15
 20
21.1154
 11
132.57
 21
21.2161
  0
LINE
  8
0
 10
132.57
 20
21.2161
 11
133
 21
21.25
  0
LINE
  8
0
 10
133
 20
21.25
 11
133.43
 21
21.2161
  0
LINE
  8
0
 10
133.43
 20
21.2161
 11
133.85
 21
21.1154
  0
LINE
  8
0
 10
133.85
 20
21.1154
 11
134.248
 21
20.9503
  0
LINE
  8
0
 10
134.248
 20
20.9503
 11
134.616
 21
20.7248
  0
LINE
  8
0
 10
134.616
 20
20.7248
 11
134.945
 21
20.4445
  0
LINE
  8
0
 10
134.945
 20
20.4445
 11
135.225
 21
20.1164
  0
LINE
  8
0
 10
135.225
 20
20.1164
 11
135.45
 21
19.7485
  0
LINE
  8
0
 10
135.45
 20
19.7485
 11
135.615
 21
19.3498
  0
LINE
  8
0
 10
135.615
 20
19.3498
 11
135.716
 21
18.9302
  0
LINE
  8
0
 10
135.716
 20
18.9302
 11
135.75
 21
18.5
  0
LINE
  8
0
 10
135.75
 20
18.5
 11
135.716
 21
18.0698
  0
LINE
  8
0
 10
135.716
 20
18.0698
 11
135.615
 21
17.6502
  0
LINE
  8
0
 10
135.615
 20
17.6502
 11
135.45
 21
17.2515
  0
LINE
  8
0
 10
135.45
 20
17.2515
 11
135.225
 21
16.8836
  0
LINE
  8
0
 10
135.225
 20
16.8836
 11
134.945
 21
16.5555
  0
LINE
  8
0
 10
134.945
 20
16.5555
 11
134.616
 21
16.2752
  0
LINE
  8
0
 10
134.616
 20
16.2752
 11
134.248
 21
16.0497
  0
LINE
  8
0
 10
134.248
 20
16.0497
 11
133.85
 21
15.8846
  0
LINE
  8
0
 10
133.85
 20
15.8846
 11
133.43
 21
15.7838
  0
LINE
  8
0
 10
133.43
 20
15.7838
 11
133
 21
15.75
  0
LINE
  8
0
 10
133
 20
15.75
 11
132.57
 21
15.7838
  0
ENDSEC
  0
SECTION
  2
OBJECTS
  0
DICTIONARY
  0
ENDSEC
  0
EOF
