  0
SECTION
  2
BLOCKS
  0
ENDSEC
  0
SECTION
  2
ENTITIES
  0
LINE
  8
0
 10
210.182
 20
48
 11
190.182
 21
48
  0
LINE
  8
0
 10
190.182
 20
48
 11
190.182
 21
9
  0
LINE
  8
0
 10
190.182
 20
9
 11
210.182
 21
9
  0
LINE
  8
0
 10
210.182
 20
9
 11
210.182
 21
48
  0
LINE
  8
0
 10
199.752
 20
35.7838
 11
199.332
 21
35.8846
  0
LINE
  8
0
 10
199.332
 20
35.8846
 11
198.934
 21
36.0497
  0
LINE
  8
0
 10
198.934
 20
36.0497
 11
198.566
 21
36.2752
  0
LINE
  8
0
 10
198.566
 20
36.2752
 11
198.237
 21
36.5555
  0
LINE
  8
0
 10
198.237
 20
36.5555
 11
197.957
 21
36.8836
  0
LINE
  8
0
 10
197.957
 20
36.8836
 11
197.732
 21
37.2515
  0
LINE
  8
0
 10
197.732
 20
37.2515
 11
197.567
 21
37.6502
  0
LINE
  8
0
 10
197.567
 20
37.6502
 11
197.466
 21
38.0698
  0
LINE
  8
0
 10
197.466
 20
38.0698
 11
197.432
 21
38.5
  0
LINE
  8
0
 10
197.432
 20
38.5
 11
197.466
 21
38.9302
  0
LINE
  8
0
 10
197.466
 20
38.9302
 11
197.567
 21
39.3498
  0
LINE
  8
0
 10
197.567
 20
39.3498
 11
197.732
 21
39.7485
  0
LINE
  8
0
 10
197.732
 20
39.7485
 11
197.957
 21
40.1164
  0
LINE
  8
0
 10
197.957
 20
40.1164
 11
198.237
 21
40.4445
  0
LINE
  8
0
 10
198.237
 20
40.4445
 11
198.566
 21
40.7248
  0
LINE
  8
0
 10
198.566
 20
40.7248
 11
198.934
 21
40.9503
  0
LINE
  8
0
 10
198.934
 20
40.9503
 11
199.332
 21
41.1154
  0
LINE
  8
0
 10
199.332
 20
41.1154
 11
199.752
 21
41.2161
  0
LINE
  8
0
 10
199.752
 20
41.2161
 11
200.182
 21
41.25
  0
LINE
  8
0
 10
200.182
 20
41.25
 11
200.612
 21
41.2161
  0
LINE
  8
0
 10
200.612
 20
41.2161
 11
201.032
 21
41.1154
  0
LINE
  8
0
 10
201.032
 20
41.1154
 11
201.43
 21
40.9503
  0
LINE
  8
0
 10
201.43
 20
40.9503
 11
201.798
 21
40.7248
  0
LINE
  8
0
 10
201.798
 20
40.7248
 11
202.127
 21
40.4445
  0
LINE
  8
0
 10
202.127
 20
40.4445
 11
202.407
 21
40.1164
  0
LINE
  8
0
 10
202.407
 20
40.1164
 11
202.632
 21
39.7485
  0
LINE
  8
0
 10
202.632
 20
39.7485
 11
202.797
 21
39.3498
  0
LINE
  8
0
 10
202.797
 20
39.3498
 11
202.898
 21
38.9302
  0
LINE
  8
0
 10
202.898
 20
38.9302
 11
202.932
 21
38.5
  0
LINE
  8
0
 10
202.932
 20
38.5
 11
202.898
 21
38.0698
  0
LINE
  8
0
 10
202.898
 20
38.0698
 11
202.797
 21
37.6502
  0
LINE
  8
0
 10
202.797
 20
37.6502
 11
202.632
 21
37.2515
  0
LINE
  8
0
 10
202.632
 20
37.2515
 11
202.407
 21
36.8836
  0
LINE
  8
0
 10
202.407
 20
36.8836
 11
202.127
 21
36.5555
  0
LINE
  8
0
 10
202.127
 20
36.5555
 11
201.798
 21
36.2752
  0
LINE
  8
0
 10
201.798
 20
36.2752
 11
201.43
 21
36.0497
  0
LINE
  8
0
 10
201.43
 20
36.0497
 11
201.032
 21
35.8846
  0
LINE
  8
0
 10
201.032
 20
35.8846
 11
200.612
 21
35.7838
  0
LINE
  8
0
 10
200.612
 20
35.7838
 11
200.182
 21
35.75
  0
LINE
  8
0
 10
200.182
 20
35.75
 11
199.752
 21
35.7838
  0
LINE
  8
0
 10
199.752
 20
15.7838
 11
199.332
 21
15.8846
  0
LINE
  8
0
 10
199.332
 20
15.8846
 11
198.934
 21
16.0497
  0
LINE
  8
0
 10
198.934
 20
16.0497
 11
198.566
 21
16.2752
  0
LINE
  8
0
 10
198.566
 20
16.2752
 11
198.237
 21
16.5555
  0
LINE
  8
0
 10
198.237
 20
16.5555
 11
197.957
 21
16.8836
  0
LINE
  8
0
 10
197.957
 20
16.8836
 11
197.732
 21
17.2515
  0
LINE
  8
0
 10
197.732
 20
17.2515
 11
197.567
 21
17.6502
  0
LINE
  8
0
 10
197.567
 20
17.6502
 11
197.466
 21
18.0698
  0
LINE
  8
0
 10
197.466
 20
18.0698
 11
197.432
 21
18.5
  0
LINE
  8
0
 10
197.432
 20
18.5
 11
197.466
 21
18.9302
  0
LINE
  8
0
 10
197.466
 20
18.9302
 11
197.567
 21
19.3498
  0
LINE
  8
0
 10
197.567
 20
19.3498
 11
197.732
 21
19.7485
  0
LINE
  8
0
 10
197.732
 20
19.7485
 11
197.957
 21
20.1164
  0
LINE
  8
0
 10
197.957
 20
20.1164
 11
198.237
 21
20.4445
  0
LINE
  8
0
 10
198.237
 20
20.4445
 11
198.566
 21
20.7248
  0
LINE
  8
0
 10
198.566
 20
20.7248
 11
198.934
 21
20.9503
  0
LINE
  8
0
 10
198.934
 20
20.9503
 11
199.332
 21
21.1154
  0
LINE
  8
0
 10
199.332
 20
21.1154
 11
199.752
 21
21.2161
  0
LINE
  8
0
 10
199.752
 20
21.2161
 11
200.182
 21
21.25
  0
LINE
  8
0
 10
200.182
 20
21.25
 11
200.612
 21
21.2161
  0
LINE
  8
0
 10
200.612
 20
21.2161
 11
201.032
 21
21.1154
  0
LINE
  8
0
 10
201.032
 20
21.1154
 11
201.43
 21
20.9503
  0
LINE
  8
0
 10
201.43
 20
20.9503
 11
201.798
 21
20.7248
  0
LINE
  8
0
 10
201.798
 20
20.7248
 11
202.127
 21
20.4445
  0
LINE
  8
0
 10
202.127
 20
20.4445
 11
202.407
 21
20.1164
  0
LINE
  8
0
 10
202.407
 20
20.1164
 11
202.632
 21
19.7485
  0
LINE
  8
0
 10
202.632
 20
19.7485
 11
202.797
 21
19.3498
  0
LINE
  8
0
 10
202.797
 20
19.3498
 11
202.898
 21
18.9302
  0
LINE
  8
0
 10
202.898
 20
18.9302
 11
202.932
 21
18.5
  0
LINE
  8
0
 10
202.932
 20
18.5
 11
202.898
 21
18.0698
  0
LINE
  8
0
 10
202.898
 20
18.0698
 11
202.797
 21
17.6502
  0
LINE
  8
0
 10
202.797
 20
17.6502
 11
202.632
 21
17.2515
  0
LINE
  8
0
 10
202.632
 20
17.2515
 11
202.407
 21
16.8836
  0
LINE
  8
0
 10
202.407
 20
16.8836
 11
202.127
 21
16.5555
  0
LINE
  8
0
 10
202.127
 20
16.5555
 11
201.798
 21
16.2752
  0
LINE
  8
0
 10
201.798
 20
16.2752
 11
201.43
 21
16.0497
  0
LINE
  8
0
 10
201.43
 20
16.0497
 11
201.032
 21
15.8846
  0
LINE
  8
0
 10
201.032
 20
15.8846
 11
200.612
 21
15.7838
  0
LINE
  8
0
 10
200.612
 20
15.7838
 11
200.182
 21
15.75
  0
LINE
  8
0
 10
200.182
 20
15.75
 11
199.752
 21
15.7838
  0
ENDSEC
  0
SECTION
  2
OBJECTS
  0
DICTIONARY
  0
ENDSEC
  0
EOF
