  0
SECTION
  2
BLOCKS
  0
ENDSEC
  0
SECTION
  2
ENTITIES
  0
LINE
  8
0
 10
255
 20
45
 11
207
 21
45
  0
LINE
  8
0
 10
207
 20
45
 11
207
 21
12
  0
LINE
  8
0
 10
207
 20
12
 11
255
 21
12
  0
LINE
  8
0
 10
255
 20
12
 11
255
 21
45
  0
LINE
  8
0
 10
218.57
 20
25.7838
 11
218.15
 21
25.8846
  0
LINE
  8
0
 10
218.15
 20
25.8846
 11
217.752
 21
26.0497
  0
LINE
  8
0
 10
217.752
 20
26.0497
 11
217.384
 21
26.2752
  0
LINE
  8
0
 10
217.384
 20
26.2752
 11
217.055
 21
26.5555
  0
LINE
  8
0
 10
217.055
 20
26.5555
 11
216.775
 21
26.8836
  0
LINE
  8
0
 10
216.775
 20
26.8836
 11
216.55
 21
27.2515
  0
LINE
  8
0
 10
216.55
 20
27.2515
 11
216.385
 21
27.6502
  0
LINE
  8
0
 10
216.385
 20
27.6502
 11
216.284
 21
28.0698
  0
LINE
  8
0
 10
216.284
 20
28.0698
 11
216.25
 21
28.5
  0
LINE
  8
0
 10
216.25
 20
28.5
 11
216.284
 21
28.9302
  0
LINE
  8
0
 10
216.284
 20
28.9302
 11
216.385
 21
29.3498
  0
LINE
  8
0
 10
216.385
 20
29.3498
 11
216.55
 21
29.7485
  0
LINE
  8
0
 10
216.55
 20
29.7485
 11
216.775
 21
30.1164
  0
LINE
  8
0
 10
216.775
 20
30.1164
 11
217.055
 21
30.4445
  0
LINE
  8
0
 10
217.055
 20
30.4445
 11
217.384
 21
30.7248
  0
LINE
  8
0
 10
217.384
 20
30.7248
 11
217.752
 21
30.9503
  0
LINE
  8
0
 10
217.752
 20
30.9503
 11
218.15
 21
31.1154
  0
LINE
  8
0
 10
218.15
 20
31.1154
 11
218.57
 21
31.2161
  0
LINE
  8
0
 10
218.57
 20
31.2161
 11
219
 21
31.25
  0
LINE
  8
0
 10
219
 20
31.25
 11
219.43
 21
31.2161
  0
LINE
  8
0
 10
219.43
 20
31.2161
 11
219.85
 21
31.1154
  0
LINE
  8
0
 10
219.85
 20
31.1154
 11
220.248
 21
30.9503
  0
LINE
  8
0
 10
220.248
 20
30.9503
 11
220.616
 21
30.7248
  0
LINE
  8
0
 10
220.616
 20
30.7248
 11
220.945
 21
30.4445
  0
LINE
  8
0
 10
220.945
 20
30.4445
 11
221.225
 21
30.1164
  0
LINE
  8
0
 10
221.225
 20
30.1164
 11
221.45
 21
29.7485
  0
LINE
  8
0
 10
221.45
 20
29.7485
 11
221.615
 21
29.3498
  0
LINE
  8
0
 10
221.615
 20
29.3498
 11
221.716
 21
28.9302
  0
LINE
  8
0
 10
221.716
 20
28.9302
 11
221.75
 21
28.5
  0
LINE
  8
0
 10
221.75
 20
28.5
 11
221.716
 21
28.0698
  0
LINE
  8
0
 10
221.716
 20
28.0698
 11
221.615
 21
27.6502
  0
LINE
  8
0
 10
221.615
 20
27.6502
 11
221.45
 21
27.2515
  0
LINE
  8
0
 10
221.45
 20
27.2515
 11
221.225
 21
26.8836
  0
LINE
  8
0
 10
221.225
 20
26.8836
 11
220.945
 21
26.5555
  0
LINE
  8
0
 10
220.945
 20
26.5555
 11
220.616
 21
26.2752
  0
LINE
  8
0
 10
220.616
 20
26.2752
 11
220.248
 21
26.0497
  0
LINE
  8
0
 10
220.248
 20
26.0497
 11
219.85
 21
25.8846
  0
LINE
  8
0
 10
219.85
 20
25.8846
 11
219.43
 21
25.7838
  0
LINE
  8
0
 10
219.43
 20
25.7838
 11
219
 21
25.75
  0
LINE
  8
0
 10
219
 20
25.75
 11
218.57
 21
25.7838
  0
LINE
  8
0
 10
242.57
 20
25.7838
 11
242.15
 21
25.8846
  0
LINE
  8
0
 10
242.15
 20
25.8846
 11
241.752
 21
26.0497
  0
LINE
  8
0
 10
241.752
 20
26.0497
 11
241.384
 21
26.2752
  0
LINE
  8
0
 10
241.384
 20
26.2752
 11
241.055
 21
26.5555
  0
LINE
  8
0
 10
241.055
 20
26.5555
 11
240.775
 21
26.8836
  0
LINE
  8
0
 10
240.775
 20
26.8836
 11
240.55
 21
27.2515
  0
LINE
  8
0
 10
240.55
 20
27.2515
 11
240.385
 21
27.6502
  0
LINE
  8
0
 10
240.385
 20
27.6502
 11
240.284
 21
28.0698
  0
LINE
  8
0
 10
240.284
 20
28.0698
 11
240.25
 21
28.5
  0
LINE
  8
0
 10
240.25
 20
28.5
 11
240.284
 21
28.9302
  0
LINE
  8
0
 10
240.284
 20
28.9302
 11
240.385
 21
29.3498
  0
LINE
  8
0
 10
240.385
 20
29.3498
 11
240.55
 21
29.7485
  0
LINE
  8
0
 10
240.55
 20
29.7485
 11
240.775
 21
30.1164
  0
LINE
  8
0
 10
240.775
 20
30.1164
 11
241.055
 21
30.4445
  0
LINE
  8
0
 10
241.055
 20
30.4445
 11
241.384
 21
30.7248
  0
LINE
  8
0
 10
241.384
 20
30.7248
 11
241.752
 21
30.9503
  0
LINE
  8
0
 10
241.752
 20
30.9503
 11
242.15
 21
31.1154
  0
LINE
  8
0
 10
242.15
 20
31.1154
 11
242.57
 21
31.2161
  0
LINE
  8
0
 10
242.57
 20
31.2161
 11
243
 21
31.25
  0
LINE
  8
0
 10
243
 20
31.25
 11
243.43
 21
31.2161
  0
LINE
  8
0
 10
243.43
 20
31.2161
 11
243.85
 21
31.1154
  0
LINE
  8
0
 10
243.85
 20
31.1154
 11
244.248
 21
30.9503
  0
LINE
  8
0
 10
244.248
 20
30.9503
 11
244.616
 21
30.7248
  0
LINE
  8
0
 10
244.616
 20
30.7248
 11
244.945
 21
30.4445
  0
LINE
  8
0
 10
244.945
 20
30.4445
 11
245.225
 21
30.1164
  0
LINE
  8
0
 10
245.225
 20
30.1164
 11
245.45
 21
29.7485
  0
LINE
  8
0
 10
245.45
 20
29.7485
 11
245.615
 21
29.3498
  0
LINE
  8
0
 10
245.615
 20
29.3498
 11
245.716
 21
28.9302
  0
LINE
  8
0
 10
245.716
 20
28.9302
 11
245.75
 21
28.5
  0
LINE
  8
0
 10
245.75
 20
28.5
 11
245.716
 21
28.0698
  0
LINE
  8
0
 10
245.716
 20
28.0698
 11
245.615
 21
27.6502
  0
LINE
  8
0
 10
245.615
 20
27.6502
 11
245.45
 21
27.2515
  0
LINE
  8
0
 10
245.45
 20
27.2515
 11
245.225
 21
26.8836
  0
LINE
  8
0
 10
245.225
 20
26.8836
 11
244.945
 21
26.5555
  0
LINE
  8
0
 10
244.945
 20
26.5555
 11
244.616
 21
26.2752
  0
LINE
  8
0
 10
244.616
 20
26.2752
 11
244.248
 21
26.0497
  0
LINE
  8
0
 10
244.248
 20
26.0497
 11
243.85
 21
25.8846
  0
LINE
  8
0
 10
243.85
 20
25.8846
 11
243.43
 21
25.7838
  0
LINE
  8
0
 10
243.43
 20
25.7838
 11
243
 21
25.75
  0
LINE
  8
0
 10
243
 20
25.75
 11
242.57
 21
25.7838
  0
ENDSEC
  0
SECTION
  2
OBJECTS
  0
DICTIONARY
  0
ENDSEC
  0
EOF
