  0
SECTION
  2
BLOCKS
  0
ENDSEC
  0
SECTION
  2
ENTITIES
  0
LINE
  8
0
 10
209.557
 20
48
 11
189.557
 21
48
  0
LINE
  8
0
 10
189.557
 20
48
 11
189.557
 21
9
  0
LINE
  8
0
 10
189.557
 20
9
 11
209.557
 21
9
  0
LINE
  8
0
 10
209.557
 20
9
 11
209.557
 21
48
  0
LINE
  8
0
 10
199.127
 20
35.7838
 11
198.707
 21
35.8846
  0
LINE
  8
0
 10
198.707
 20
35.8846
 11
198.309
 21
36.0497
  0
LINE
  8
0
 10
198.309
 20
36.0497
 11
197.941
 21
36.2752
  0
LINE
  8
0
 10
197.941
 20
36.2752
 11
197.612
 21
36.5555
  0
LINE
  8
0
 10
197.612
 20
36.5555
 11
197.332
 21
36.8836
  0
LINE
  8
0
 10
197.332
 20
36.8836
 11
197.107
 21
37.2515
  0
LINE
  8
0
 10
197.107
 20
37.2515
 11
196.942
 21
37.6502
  0
LINE
  8
0
 10
196.942
 20
37.6502
 11
196.841
 21
38.0698
  0
LINE
  8
0
 10
196.841
 20
38.0698
 11
196.807
 21
38.5
  0
LINE
  8
0
 10
196.807
 20
38.5
 11
196.841
 21
38.9302
  0
LINE
  8
0
 10
196.841
 20
38.9302
 11
196.942
 21
39.3498
  0
LINE
  8
0
 10
196.942
 20
39.3498
 11
197.107
 21
39.7485
  0
LINE
  8
0
 10
197.107
 20
39.7485
 11
197.332
 21
40.1164
  0
LINE
  8
0
 10
197.332
 20
40.1164
 11
197.612
 21
40.4445
  0
LINE
  8
0
 10
197.612
 20
40.4445
 11
197.941
 21
40.7248
  0
LINE
  8
0
 10
197.941
 20
40.7248
 11
198.309
 21
40.9503
  0
LINE
  8
0
 10
198.309
 20
40.9503
 11
198.707
 21
41.1154
  0
LINE
  8
0
 10
198.707
 20
41.1154
 11
199.127
 21
41.2161
  0
LINE
  8
0
 10
199.127
 20
41.2161
 11
199.557
 21
41.25
  0
LINE
  8
0
 10
199.557
 20
41.25
 11
199.987
 21
41.2161
  0
LINE
  8
0
 10
199.987
 20
41.2161
 11
200.407
 21
41.1154
  0
LINE
  8
0
 10
200.407
 20
41.1154
 11
200.805
 21
40.9503
  0
LINE
  8
0
 10
200.805
 20
40.9503
 11
201.173
 21
40.7248
  0
LINE
  8
0
 10
201.173
 20
40.7248
 11
201.502
 21
40.4445
  0
LINE
  8
0
 10
201.502
 20
40.4445
 11
201.782
 21
40.1164
  0
LINE
  8
0
 10
201.782
 20
40.1164
 11
202.007
 21
39.7485
  0
LINE
  8
0
 10
202.007
 20
39.7485
 11
202.172
 21
39.3498
  0
LINE
  8
0
 10
202.172
 20
39.3498
 11
202.273
 21
38.9302
  0
LINE
  8
0
 10
202.273
 20
38.9302
 11
202.307
 21
38.5
  0
LINE
  8
0
 10
202.307
 20
38.5
 11
202.273
 21
38.0698
  0
LINE
  8
0
 10
202.273
 20
38.0698
 11
202.172
 21
37.6502
  0
LINE
  8
0
 10
202.172
 20
37.6502
 11
202.007
 21
37.2515
  0
LINE
  8
0
 10
202.007
 20
37.2515
 11
201.782
 21
36.8836
  0
LINE
  8
0
 10
201.782
 20
36.8836
 11
201.502
 21
36.5555
  0
LINE
  8
0
 10
201.502
 20
36.5555
 11
201.173
 21
36.2752
  0
LINE
  8
0
 10
201.173
 20
36.2752
 11
200.805
 21
36.0497
  0
LINE
  8
0
 10
200.805
 20
36.0497
 11
200.407
 21
35.8846
  0
LINE
  8
0
 10
200.407
 20
35.8846
 11
199.987
 21
35.7838
  0
LINE
  8
0
 10
199.987
 20
35.7838
 11
199.557
 21
35.75
  0
LINE
  8
0
 10
199.557
 20
35.75
 11
199.127
 21
35.7838
  0
LINE
  8
0
 10
199.127
 20
15.7838
 11
198.707
 21
15.8846
  0
LINE
  8
0
 10
198.707
 20
15.8846
 11
198.309
 21
16.0497
  0
LINE
  8
0
 10
198.309
 20
16.0497
 11
197.941
 21
16.2752
  0
LINE
  8
0
 10
197.941
 20
16.2752
 11
197.612
 21
16.5555
  0
LINE
  8
0
 10
197.612
 20
16.5555
 11
197.332
 21
16.8836
  0
LINE
  8
0
 10
197.332
 20
16.8836
 11
197.107
 21
17.2515
  0
LINE
  8
0
 10
197.107
 20
17.2515
 11
196.942
 21
17.6502
  0
LINE
  8
0
 10
196.942
 20
17.6502
 11
196.841
 21
18.0698
  0
LINE
  8
0
 10
196.841
 20
18.0698
 11
196.807
 21
18.5
  0
LINE
  8
0
 10
196.807
 20
18.5
 11
196.841
 21
18.9302
  0
LINE
  8
0
 10
196.841
 20
18.9302
 11
196.942
 21
19.3498
  0
LINE
  8
0
 10
196.942
 20
19.3498
 11
197.107
 21
19.7485
  0
LINE
  8
0
 10
197.107
 20
19.7485
 11
197.332
 21
20.1164
  0
LINE
  8
0
 10
197.332
 20
20.1164
 11
197.612
 21
20.4445
  0
LINE
  8
0
 10
197.612
 20
20.4445
 11
197.941
 21
20.7248
  0
LINE
  8
0
 10
197.941
 20
20.7248
 11
198.309
 21
20.9503
  0
LINE
  8
0
 10
198.309
 20
20.9503
 11
198.707
 21
21.1154
  0
LINE
  8
0
 10
198.707
 20
21.1154
 11
199.127
 21
21.2161
  0
LINE
  8
0
 10
199.127
 20
21.2161
 11
199.557
 21
21.25
  0
LINE
  8
0
 10
199.557
 20
21.25
 11
199.987
 21
21.2161
  0
LINE
  8
0
 10
199.987
 20
21.2161
 11
200.407
 21
21.1154
  0
LINE
  8
0
 10
200.407
 20
21.1154
 11
200.805
 21
20.9503
  0
LINE
  8
0
 10
200.805
 20
20.9503
 11
201.173
 21
20.7248
  0
LINE
  8
0
 10
201.173
 20
20.7248
 11
201.502
 21
20.4445
  0
LINE
  8
0
 10
201.502
 20
20.4445
 11
201.782
 21
20.1164
  0
LINE
  8
0
 10
201.782
 20
20.1164
 11
202.007
 21
19.7485
  0
LINE
  8
0
 10
202.007
 20
19.7485
 11
202.172
 21
19.3498
  0
LINE
  8
0
 10
202.172
 20
19.3498
 11
202.273
 21
18.9302
  0
LINE
  8
0
 10
202.273
 20
18.9302
 11
202.307
 21
18.5
  0
LINE
  8
0
 10
202.307
 20
18.5
 11
202.273
 21
18.0698
  0
LINE
  8
0
 10
202.273
 20
18.0698
 11
202.172
 21
17.6502
  0
LINE
  8
0
 10
202.172
 20
17.6502
 11
202.007
 21
17.2515
  0
LINE
  8
0
 10
202.007
 20
17.2515
 11
201.782
 21
16.8836
  0
LINE
  8
0
 10
201.782
 20
16.8836
 11
201.502
 21
16.5555
  0
LINE
  8
0
 10
201.502
 20
16.5555
 11
201.173
 21
16.2752
  0
LINE
  8
0
 10
201.173
 20
16.2752
 11
200.805
 21
16.0497
  0
LINE
  8
0
 10
200.805
 20
16.0497
 11
200.407
 21
15.8846
  0
LINE
  8
0
 10
200.407
 20
15.8846
 11
199.987
 21
15.7838
  0
LINE
  8
0
 10
199.987
 20
15.7838
 11
199.557
 21
15.75
  0
LINE
  8
0
 10
199.557
 20
15.75
 11
199.127
 21
15.7838
  0
ENDSEC
  0
SECTION
  2
OBJECTS
  0
DICTIONARY
  0
ENDSEC
  0
EOF
