  0
SECTION
  2
BLOCKS
  0
ENDSEC
  0
SECTION
  2
ENTITIES
  0
LINE
  8
0
 10
217
 20
45
 11
169
 21
45
  0
LINE
  8
0
 10
169
 20
45
 11
169
 21
12
  0
LINE
  8
0
 10
169
 20
12
 11
217
 21
12
  0
LINE
  8
0
 10
217
 20
12
 11
217
 21
45
  0
LINE
  8
0
 10
180.57
 20
25.7838
 11
180.15
 21
25.8846
  0
LINE
  8
0
 10
180.15
 20
25.8846
 11
179.752
 21
26.0497
  0
LINE
  8
0
 10
179.752
 20
26.0497
 11
179.384
 21
26.2752
  0
LINE
  8
0
 10
179.384
 20
26.2752
 11
179.055
 21
26.5555
  0
LINE
  8
0
 10
179.055
 20
26.5555
 11
178.775
 21
26.8836
  0
LINE
  8
0
 10
178.775
 20
26.8836
 11
178.55
 21
27.2515
  0
LINE
  8
0
 10
178.55
 20
27.2515
 11
178.385
 21
27.6502
  0
LINE
  8
0
 10
178.385
 20
27.6502
 11
178.284
 21
28.0698
  0
LINE
  8
0
 10
178.284
 20
28.0698
 11
178.25
 21
28.5
  0
LINE
  8
0
 10
178.25
 20
28.5
 11
178.284
 21
28.9302
  0
LINE
  8
0
 10
178.284
 20
28.9302
 11
178.385
 21
29.3498
  0
LINE
  8
0
 10
178.385
 20
29.3498
 11
178.55
 21
29.7485
  0
LINE
  8
0
 10
178.55
 20
29.7485
 11
178.775
 21
30.1164
  0
LINE
  8
0
 10
178.775
 20
30.1164
 11
179.055
 21
30.4445
  0
LINE
  8
0
 10
179.055
 20
30.4445
 11
179.384
 21
30.7248
  0
LINE
  8
0
 10
179.384
 20
30.7248
 11
179.752
 21
30.9503
  0
LINE
  8
0
 10
179.752
 20
30.9503
 11
180.15
 21
31.1154
  0
LINE
  8
0
 10
180.15
 20
31.1154
 11
180.57
 21
31.2161
  0
LINE
  8
0
 10
180.57
 20
31.2161
 11
181
 21
31.25
  0
LINE
  8
0
 10
181
 20
31.25
 11
181.43
 21
31.2161
  0
LINE
  8
0
 10
181.43
 20
31.2161
 11
181.85
 21
31.1154
  0
LINE
  8
0
 10
181.85
 20
31.1154
 11
182.248
 21
30.9503
  0
LINE
  8
0
 10
182.248
 20
30.9503
 11
182.616
 21
30.7248
  0
LINE
  8
0
 10
182.616
 20
30.7248
 11
182.945
 21
30.4445
  0
LINE
  8
0
 10
182.945
 20
30.4445
 11
183.225
 21
30.1164
  0
LINE
  8
0
 10
183.225
 20
30.1164
 11
183.45
 21
29.7485
  0
LINE
  8
0
 10
183.45
 20
29.7485
 11
183.615
 21
29.3498
  0
LINE
  8
0
 10
183.615
 20
29.3498
 11
183.716
 21
28.9302
  0
LINE
  8
0
 10
183.716
 20
28.9302
 11
183.75
 21
28.5
  0
LINE
  8
0
 10
183.75
 20
28.5
 11
183.716
 21
28.0698
  0
LINE
  8
0
 10
183.716
 20
28.0698
 11
183.615
 21
27.6502
  0
LINE
  8
0
 10
183.615
 20
27.6502
 11
183.45
 21
27.2515
  0
LINE
  8
0
 10
183.45
 20
27.2515
 11
183.225
 21
26.8836
  0
LINE
  8
0
 10
183.225
 20
26.8836
 11
182.945
 21
26.5555
  0
LINE
  8
0
 10
182.945
 20
26.5555
 11
182.616
 21
26.2752
  0
LINE
  8
0
 10
182.616
 20
26.2752
 11
182.248
 21
26.0497
  0
LINE
  8
0
 10
182.248
 20
26.0497
 11
181.85
 21
25.8846
  0
LINE
  8
0
 10
181.85
 20
25.8846
 11
181.43
 21
25.7838
  0
LINE
  8
0
 10
181.43
 20
25.7838
 11
181
 21
25.75
  0
LINE
  8
0
 10
181
 20
25.75
 11
180.57
 21
25.7838
  0
LINE
  8
0
 10
204.57
 20
25.7838
 11
204.15
 21
25.8846
  0
LINE
  8
0
 10
204.15
 20
25.8846
 11
203.752
 21
26.0497
  0
LINE
  8
0
 10
203.752
 20
26.0497
 11
203.384
 21
26.2752
  0
LINE
  8
0
 10
203.384
 20
26.2752
 11
203.055
 21
26.5555
  0
LINE
  8
0
 10
203.055
 20
26.5555
 11
202.775
 21
26.8836
  0
LINE
  8
0
 10
202.775
 20
26.8836
 11
202.55
 21
27.2515
  0
LINE
  8
0
 10
202.55
 20
27.2515
 11
202.385
 21
27.6502
  0
LINE
  8
0
 10
202.385
 20
27.6502
 11
202.284
 21
28.0698
  0
LINE
  8
0
 10
202.284
 20
28.0698
 11
202.25
 21
28.5
  0
LINE
  8
0
 10
202.25
 20
28.5
 11
202.284
 21
28.9302
  0
LINE
  8
0
 10
202.284
 20
28.9302
 11
202.385
 21
29.3498
  0
LINE
  8
0
 10
202.385
 20
29.3498
 11
202.55
 21
29.7485
  0
LINE
  8
0
 10
202.55
 20
29.7485
 11
202.775
 21
30.1164
  0
LINE
  8
0
 10
202.775
 20
30.1164
 11
203.055
 21
30.4445
  0
LINE
  8
0
 10
203.055
 20
30.4445
 11
203.384
 21
30.7248
  0
LINE
  8
0
 10
203.384
 20
30.7248
 11
203.752
 21
30.9503
  0
LINE
  8
0
 10
203.752
 20
30.9503
 11
204.15
 21
31.1154
  0
LINE
  8
0
 10
204.15
 20
31.1154
 11
204.57
 21
31.2161
  0
LINE
  8
0
 10
204.57
 20
31.2161
 11
205
 21
31.25
  0
LINE
  8
0
 10
205
 20
31.25
 11
205.43
 21
31.2161
  0
LINE
  8
0
 10
205.43
 20
31.2161
 11
205.85
 21
31.1154
  0
LINE
  8
0
 10
205.85
 20
31.1154
 11
206.248
 21
30.9503
  0
LINE
  8
0
 10
206.248
 20
30.9503
 11
206.616
 21
30.7248
  0
LINE
  8
0
 10
206.616
 20
30.7248
 11
206.945
 21
30.4445
  0
LINE
  8
0
 10
206.945
 20
30.4445
 11
207.225
 21
30.1164
  0
LINE
  8
0
 10
207.225
 20
30.1164
 11
207.45
 21
29.7485
  0
LINE
  8
0
 10
207.45
 20
29.7485
 11
207.615
 21
29.3498
  0
LINE
  8
0
 10
207.615
 20
29.3498
 11
207.716
 21
28.9302
  0
LINE
  8
0
 10
207.716
 20
28.9302
 11
207.75
 21
28.5
  0
LINE
  8
0
 10
207.75
 20
28.5
 11
207.716
 21
28.0698
  0
LINE
  8
0
 10
207.716
 20
28.0698
 11
207.615
 21
27.6502
  0
LINE
  8
0
 10
207.615
 20
27.6502
 11
207.45
 21
27.2515
  0
LINE
  8
0
 10
207.45
 20
27.2515
 11
207.225
 21
26.8836
  0
LINE
  8
0
 10
207.225
 20
26.8836
 11
206.945
 21
26.5555
  0
LINE
  8
0
 10
206.945
 20
26.5555
 11
206.616
 21
26.2752
  0
LINE
  8
0
 10
206.616
 20
26.2752
 11
206.248
 21
26.0497
  0
LINE
  8
0
 10
206.248
 20
26.0497
 11
205.85
 21
25.8846
  0
LINE
  8
0
 10
205.85
 20
25.8846
 11
205.43
 21
25.7838
  0
LINE
  8
0
 10
205.43
 20
25.7838
 11
205
 21
25.75
  0
LINE
  8
0
 10
205
 20
25.75
 11
204.57
 21
25.7838
  0
ENDSEC
  0
SECTION
  2
OBJECTS
  0
DICTIONARY
  0
ENDSEC
  0
EOF
