  0
SECTION
  2
BLOCKS
  0
ENDSEC
  0
SECTION
  2
ENTITIES
  0
LINE
  8
0
 10
143
 20
44.5
 11
123
 21
44.5
  0
LINE
  8
0
 10
123
 20
44.5
 11
123
 21
12.5
  0
LINE
  8
0
 10
123
 20
12.5
 11
143
 21
12.5
  0
LINE
  8
0
 10
143
 20
12.5
 11
143
 21
44.5
  0
LINE
  8
0
 10
132.726
 20
36.7715
 11
132.459
 21
36.8356
  0
LINE
  8
0
 10
132.459
 20
36.8356
 11
132.206
 21
36.9407
  0
LINE
  8
0
 10
132.206
 20
36.9407
 11
131.971
 21
37.0842
  0
LINE
  8
0
 10
131.971
 20
37.0842
 11
131.763
 21
37.2626
  0
LINE
  8
0
 10
131.763
 20
37.2626
 11
131.584
 21
37.4714
  0
LINE
  8
0
 10
131.584
 20
37.4714
 11
131.441
 21
37.7055
  0
LINE
  8
0
 10
131.441
 20
37.7055
 11
131.336
 21
37.9592
  0
LINE
  8
0
 10
131.336
 20
37.9592
 11
131.272
 21
38.2262
  0
LINE
  8
0
 10
131.272
 20
38.2262
 11
131.25
 21
38.5
  0
LINE
  8
0
 10
131.25
 20
38.5
 11
131.272
 21
38.7738
  0
LINE
  8
0
 10
131.272
 20
38.7738
 11
131.336
 21
39.0408
  0
LINE
  8
0
 10
131.336
 20
39.0408
 11
131.441
 21
39.2945
  0
LINE
  8
0
 10
131.441
 20
39.2945
 11
131.584
 21
39.5286
  0
LINE
  8
0
 10
131.584
 20
39.5286
 11
131.763
 21
39.7374
  0
LINE
  8
0
 10
131.763
 20
39.7374
 11
131.971
 21
39.9158
  0
LINE
  8
0
 10
131.971
 20
39.9158
 11
132.206
 21
40.0592
  0
LINE
  8
0
 10
132.206
 20
40.0592
 11
132.459
 21
40.1643
  0
LINE
  8
0
 10
132.459
 20
40.1643
 11
132.726
 21
40.2285
  0
LINE
  8
0
 10
132.726
 20
40.2285
 11
133
 21
40.25
  0
LINE
  8
0
 10
133
 20
40.25
 11
133.274
 21
40.2285
  0
LINE
  8
0
 10
133.274
 20
40.2285
 11
133.541
 21
40.1643
  0
LINE
  8
0
 10
133.541
 20
40.1643
 11
133.794
 21
40.0592
  0
LINE
  8
0
 10
133.794
 20
40.0592
 11
134.029
 21
39.9158
  0
LINE
  8
0
 10
134.029
 20
39.9158
 11
134.237
 21
39.7374
  0
LINE
  8
0
 10
134.237
 20
39.7374
 11
134.416
 21
39.5286
  0
LINE
  8
0
 10
134.416
 20
39.5286
 11
134.559
 21
39.2945
  0
LINE
  8
0
 10
134.559
 20
39.2945
 11
134.664
 21
39.0408
  0
LINE
  8
0
 10
134.664
 20
39.0408
 11
134.728
 21
38.7738
  0
LINE
  8
0
 10
134.728
 20
38.7738
 11
134.75
 21
38.5
  0
LINE
  8
0
 10
134.75
 20
38.5
 11
134.728
 21
38.2262
  0
LINE
  8
0
 10
134.728
 20
38.2262
 11
134.664
 21
37.9592
  0
LINE
  8
0
 10
134.664
 20
37.9592
 11
134.559
 21
37.7055
  0
LINE
  8
0
 10
134.559
 20
37.7055
 11
134.416
 21
37.4714
  0
LINE
  8
0
 10
134.416
 20
37.4714
 11
134.237
 21
37.2626
  0
LINE
  8
0
 10
134.237
 20
37.2626
 11
134.029
 21
37.0842
  0
LINE
  8
0
 10
134.029
 20
37.0842
 11
133.794
 21
36.9407
  0
LINE
  8
0
 10
133.794
 20
36.9407
 11
133.541
 21
36.8356
  0
LINE
  8
0
 10
133.541
 20
36.8356
 11
133.274
 21
36.7715
  0
LINE
  8
0
 10
133.274
 20
36.7715
 11
133
 21
36.75
  0
LINE
  8
0
 10
133
 20
36.75
 11
132.726
 21
36.7715
  0
LINE
  8
0
 10
132.726
 20
16.7715
 11
132.459
 21
16.8356
  0
LINE
  8
0
 10
132.459
 20
16.8356
 11
132.206
 21
16.9407
  0
LINE
  8
0
 10
132.206
 20
16.9407
 11
131.971
 21
17.0842
  0
LINE
  8
0
 10
131.971
 20
17.0842
 11
131.763
 21
17.2626
  0
LINE
  8
0
 10
131.763
 20
17.2626
 11
131.584
 21
17.4714
  0
LINE
  8
0
 10
131.584
 20
17.4714
 11
131.441
 21
17.7055
  0
LINE
  8
0
 10
131.441
 20
17.7055
 11
131.336
 21
17.9592
  0
LINE
  8
0
 10
131.336
 20
17.9592
 11
131.272
 21
18.2262
  0
LINE
  8
0
 10
131.272
 20
18.2262
 11
131.25
 21
18.5
  0
LINE
  8
0
 10
131.25
 20
18.5
 11
131.272
 21
18.7738
  0
LINE
  8
0
 10
131.272
 20
18.7738
 11
131.336
 21
19.0408
  0
LINE
  8
0
 10
131.336
 20
19.0408
 11
131.441
 21
19.2945
  0
LINE
  8
0
 10
131.441
 20
19.2945
 11
131.584
 21
19.5286
  0
LINE
  8
0
 10
131.584
 20
19.5286
 11
131.763
 21
19.7374
  0
LINE
  8
0
 10
131.763
 20
19.7374
 11
131.971
 21
19.9158
  0
LINE
  8
0
 10
131.971
 20
19.9158
 11
132.206
 21
20.0592
  0
LINE
  8
0
 10
132.206
 20
20.0592
 11
132.459
 21
20.1643
  0
LINE
  8
0
 10
132.459
 20
20.1643
 11
132.726
 21
20.2285
  0
LINE
  8
0
 10
132.726
 20
20.2285
 11
133
 21
20.25
  0
LINE
  8
0
 10
133
 20
20.25
 11
133.274
 21
20.2285
  0
LINE
  8
0
 10
133.274
 20
20.2285
 11
133.541
 21
20.1643
  0
LINE
  8
0
 10
133.541
 20
20.1643
 11
133.794
 21
20.0592
  0
LINE
  8
0
 10
133.794
 20
20.0592
 11
134.029
 21
19.9158
  0
LINE
  8
0
 10
134.029
 20
19.9158
 11
134.237
 21
19.7374
  0
LINE
  8
0
 10
134.237
 20
19.7374
 11
134.416
 21
19.5286
  0
LINE
  8
0
 10
134.416
 20
19.5286
 11
134.559
 21
19.2945
  0
LINE
  8
0
 10
134.559
 20
19.2945
 11
134.664
 21
19.0408
  0
LINE
  8
0
 10
134.664
 20
19.0408
 11
134.728
 21
18.7738
  0
LINE
  8
0
 10
134.728
 20
18.7738
 11
134.75
 21
18.5
  0
LINE
  8
0
 10
134.75
 20
18.5
 11
134.728
 21
18.2262
  0
LINE
  8
0
 10
134.728
 20
18.2262
 11
134.664
 21
17.9592
  0
LINE
  8
0
 10
134.664
 20
17.9592
 11
134.559
 21
17.7055
  0
LINE
  8
0
 10
134.559
 20
17.7055
 11
134.416
 21
17.4714
  0
LINE
  8
0
 10
134.416
 20
17.4714
 11
134.237
 21
17.2626
  0
LINE
  8
0
 10
134.237
 20
17.2626
 11
134.029
 21
17.0842
  0
LINE
  8
0
 10
134.029
 20
17.0842
 11
133.794
 21
16.9407
  0
LINE
  8
0
 10
133.794
 20
16.9407
 11
133.541
 21
16.8356
  0
LINE
  8
0
 10
133.541
 20
16.8356
 11
133.274
 21
16.7715
  0
LINE
  8
0
 10
133.274
 20
16.7715
 11
133
 21
16.75
  0
LINE
  8
0
 10
133
 20
16.75
 11
132.726
 21
16.7715
  0
ENDSEC
  0
SECTION
  2
OBJECTS
  0
DICTIONARY
  0
ENDSEC
  0
EOF
