  0
SECTION
  2
BLOCKS
  0
ENDSEC
  0
SECTION
  2
ENTITIES
  0
LINE
  8
0
 10
235
 20
45
 11
187
 21
45
  0
LINE
  8
0
 10
187
 20
45
 11
187
 21
12
  0
LINE
  8
0
 10
187
 20
12
 11
235
 21
12
  0
LINE
  8
0
 10
235
 20
12
 11
235
 21
45
  0
LINE
  8
0
 10
198.57
 20
25.7838
 11
198.15
 21
25.8846
  0
LINE
  8
0
 10
198.15
 20
25.8846
 11
197.752
 21
26.0497
  0
LINE
  8
0
 10
197.752
 20
26.0497
 11
197.384
 21
26.2752
  0
LINE
  8
0
 10
197.384
 20
26.2752
 11
197.055
 21
26.5555
  0
LINE
  8
0
 10
197.055
 20
26.5555
 11
196.775
 21
26.8836
  0
LINE
  8
0
 10
196.775
 20
26.8836
 11
196.55
 21
27.2515
  0
LINE
  8
0
 10
196.55
 20
27.2515
 11
196.385
 21
27.6502
  0
LINE
  8
0
 10
196.385
 20
27.6502
 11
196.284
 21
28.0698
  0
LINE
  8
0
 10
196.284
 20
28.0698
 11
196.25
 21
28.5
  0
LINE
  8
0
 10
196.25
 20
28.5
 11
196.284
 21
28.9302
  0
LINE
  8
0
 10
196.284
 20
28.9302
 11
196.385
 21
29.3498
  0
LINE
  8
0
 10
196.385
 20
29.3498
 11
196.55
 21
29.7485
  0
LINE
  8
0
 10
196.55
 20
29.7485
 11
196.775
 21
30.1164
  0
LINE
  8
0
 10
196.775
 20
30.1164
 11
197.055
 21
30.4445
  0
LINE
  8
0
 10
197.055
 20
30.4445
 11
197.384
 21
30.7248
  0
LINE
  8
0
 10
197.384
 20
30.7248
 11
197.752
 21
30.9503
  0
LINE
  8
0
 10
197.752
 20
30.9503
 11
198.15
 21
31.1154
  0
LINE
  8
0
 10
198.15
 20
31.1154
 11
198.57
 21
31.2161
  0
LINE
  8
0
 10
198.57
 20
31.2161
 11
199
 21
31.25
  0
LINE
  8
0
 10
199
 20
31.25
 11
199.43
 21
31.2161
  0
LINE
  8
0
 10
199.43
 20
31.2161
 11
199.85
 21
31.1154
  0
LINE
  8
0
 10
199.85
 20
31.1154
 11
200.248
 21
30.9503
  0
LINE
  8
0
 10
200.248
 20
30.9503
 11
200.616
 21
30.7248
  0
LINE
  8
0
 10
200.616
 20
30.7248
 11
200.945
 21
30.4445
  0
LINE
  8
0
 10
200.945
 20
30.4445
 11
201.225
 21
30.1164
  0
LINE
  8
0
 10
201.225
 20
30.1164
 11
201.45
 21
29.7485
  0
LINE
  8
0
 10
201.45
 20
29.7485
 11
201.615
 21
29.3498
  0
LINE
  8
0
 10
201.615
 20
29.3498
 11
201.716
 21
28.9302
  0
LINE
  8
0
 10
201.716
 20
28.9302
 11
201.75
 21
28.5
  0
LINE
  8
0
 10
201.75
 20
28.5
 11
201.716
 21
28.0698
  0
LINE
  8
0
 10
201.716
 20
28.0698
 11
201.615
 21
27.6502
  0
LINE
  8
0
 10
201.615
 20
27.6502
 11
201.45
 21
27.2515
  0
LINE
  8
0
 10
201.45
 20
27.2515
 11
201.225
 21
26.8836
  0
LINE
  8
0
 10
201.225
 20
26.8836
 11
200.945
 21
26.5555
  0
LINE
  8
0
 10
200.945
 20
26.5555
 11
200.616
 21
26.2752
  0
LINE
  8
0
 10
200.616
 20
26.2752
 11
200.248
 21
26.0497
  0
LINE
  8
0
 10
200.248
 20
26.0497
 11
199.85
 21
25.8846
  0
LINE
  8
0
 10
199.85
 20
25.8846
 11
199.43
 21
25.7838
  0
LINE
  8
0
 10
199.43
 20
25.7838
 11
199
 21
25.75
  0
LINE
  8
0
 10
199
 20
25.75
 11
198.57
 21
25.7838
  0
LINE
  8
0
 10
222.57
 20
25.7838
 11
222.15
 21
25.8846
  0
LINE
  8
0
 10
222.15
 20
25.8846
 11
221.752
 21
26.0497
  0
LINE
  8
0
 10
221.752
 20
26.0497
 11
221.384
 21
26.2752
  0
LINE
  8
0
 10
221.384
 20
26.2752
 11
221.055
 21
26.5555
  0
LINE
  8
0
 10
221.055
 20
26.5555
 11
220.775
 21
26.8836
  0
LINE
  8
0
 10
220.775
 20
26.8836
 11
220.55
 21
27.2515
  0
LINE
  8
0
 10
220.55
 20
27.2515
 11
220.385
 21
27.6502
  0
LINE
  8
0
 10
220.385
 20
27.6502
 11
220.284
 21
28.0698
  0
LINE
  8
0
 10
220.284
 20
28.0698
 11
220.25
 21
28.5
  0
LINE
  8
0
 10
220.25
 20
28.5
 11
220.284
 21
28.9302
  0
LINE
  8
0
 10
220.284
 20
28.9302
 11
220.385
 21
29.3498
  0
LINE
  8
0
 10
220.385
 20
29.3498
 11
220.55
 21
29.7485
  0
LINE
  8
0
 10
220.55
 20
29.7485
 11
220.775
 21
30.1164
  0
LINE
  8
0
 10
220.775
 20
30.1164
 11
221.055
 21
30.4445
  0
LINE
  8
0
 10
221.055
 20
30.4445
 11
221.384
 21
30.7248
  0
LINE
  8
0
 10
221.384
 20
30.7248
 11
221.752
 21
30.9503
  0
LINE
  8
0
 10
221.752
 20
30.9503
 11
222.15
 21
31.1154
  0
LINE
  8
0
 10
222.15
 20
31.1154
 11
222.57
 21
31.2161
  0
LINE
  8
0
 10
222.57
 20
31.2161
 11
223
 21
31.25
  0
LINE
  8
0
 10
223
 20
31.25
 11
223.43
 21
31.2161
  0
LINE
  8
0
 10
223.43
 20
31.2161
 11
223.85
 21
31.1154
  0
LINE
  8
0
 10
223.85
 20
31.1154
 11
224.248
 21
30.9503
  0
LINE
  8
0
 10
224.248
 20
30.9503
 11
224.616
 21
30.7248
  0
LINE
  8
0
 10
224.616
 20
30.7248
 11
224.945
 21
30.4445
  0
LINE
  8
0
 10
224.945
 20
30.4445
 11
225.225
 21
30.1164
  0
LINE
  8
0
 10
225.225
 20
30.1164
 11
225.45
 21
29.7485
  0
LINE
  8
0
 10
225.45
 20
29.7485
 11
225.615
 21
29.3498
  0
LINE
  8
0
 10
225.615
 20
29.3498
 11
225.716
 21
28.9302
  0
LINE
  8
0
 10
225.716
 20
28.9302
 11
225.75
 21
28.5
  0
LINE
  8
0
 10
225.75
 20
28.5
 11
225.716
 21
28.0698
  0
LINE
  8
0
 10
225.716
 20
28.0698
 11
225.615
 21
27.6502
  0
LINE
  8
0
 10
225.615
 20
27.6502
 11
225.45
 21
27.2515
  0
LINE
  8
0
 10
225.45
 20
27.2515
 11
225.225
 21
26.8836
  0
LINE
  8
0
 10
225.225
 20
26.8836
 11
224.945
 21
26.5555
  0
LINE
  8
0
 10
224.945
 20
26.5555
 11
224.616
 21
26.2752
  0
LINE
  8
0
 10
224.616
 20
26.2752
 11
224.248
 21
26.0497
  0
LINE
  8
0
 10
224.248
 20
26.0497
 11
223.85
 21
25.8846
  0
LINE
  8
0
 10
223.85
 20
25.8846
 11
223.43
 21
25.7838
  0
LINE
  8
0
 10
223.43
 20
25.7838
 11
223
 21
25.75
  0
LINE
  8
0
 10
223
 20
25.75
 11
222.57
 21
25.7838
  0
ENDSEC
  0
SECTION
  2
OBJECTS
  0
DICTIONARY
  0
ENDSEC
  0
EOF
