  0
SECTION
  2
BLOCKS
  0
ENDSEC
  0
SECTION
  2
ENTITIES
  0
LINE
  8
0
 10
171.682
 20
48
 11
151.682
 21
48
  0
LINE
  8
0
 10
151.682
 20
48
 11
151.682
 21
9
  0
LINE
  8
0
 10
151.682
 20
9
 11
171.682
 21
9
  0
LINE
  8
0
 10
171.682
 20
9
 11
171.682
 21
48
  0
LINE
  8
0
 10
161.252
 20
35.7838
 11
160.832
 21
35.8846
  0
LINE
  8
0
 10
160.832
 20
35.8846
 11
160.434
 21
36.0497
  0
LINE
  8
0
 10
160.434
 20
36.0497
 11
160.066
 21
36.2752
  0
LINE
  8
0
 10
160.066
 20
36.2752
 11
159.737
 21
36.5555
  0
LINE
  8
0
 10
159.737
 20
36.5555
 11
159.457
 21
36.8836
  0
LINE
  8
0
 10
159.457
 20
36.8836
 11
159.232
 21
37.2515
  0
LINE
  8
0
 10
159.232
 20
37.2515
 11
159.067
 21
37.6502
  0
LINE
  8
0
 10
159.067
 20
37.6502
 11
158.966
 21
38.0698
  0
LINE
  8
0
 10
158.966
 20
38.0698
 11
158.932
 21
38.5
  0
LINE
  8
0
 10
158.932
 20
38.5
 11
158.966
 21
38.9302
  0
LINE
  8
0
 10
158.966
 20
38.9302
 11
159.067
 21
39.3498
  0
LINE
  8
0
 10
159.067
 20
39.3498
 11
159.232
 21
39.7485
  0
LINE
  8
0
 10
159.232
 20
39.7485
 11
159.457
 21
40.1164
  0
LINE
  8
0
 10
159.457
 20
40.1164
 11
159.737
 21
40.4445
  0
LINE
  8
0
 10
159.737
 20
40.4445
 11
160.066
 21
40.7248
  0
LINE
  8
0
 10
160.066
 20
40.7248
 11
160.434
 21
40.9503
  0
LINE
  8
0
 10
160.434
 20
40.9503
 11
160.832
 21
41.1154
  0
LINE
  8
0
 10
160.832
 20
41.1154
 11
161.252
 21
41.2161
  0
LINE
  8
0
 10
161.252
 20
41.2161
 11
161.682
 21
41.25
  0
LINE
  8
0
 10
161.682
 20
41.25
 11
162.112
 21
41.2161
  0
LINE
  8
0
 10
162.112
 20
41.2161
 11
162.532
 21
41.1154
  0
LINE
  8
0
 10
162.532
 20
41.1154
 11
162.93
 21
40.9503
  0
LINE
  8
0
 10
162.93
 20
40.9503
 11
163.298
 21
40.7248
  0
LINE
  8
0
 10
163.298
 20
40.7248
 11
163.627
 21
40.4445
  0
LINE
  8
0
 10
163.627
 20
40.4445
 11
163.907
 21
40.1164
  0
LINE
  8
0
 10
163.907
 20
40.1164
 11
164.132
 21
39.7485
  0
LINE
  8
0
 10
164.132
 20
39.7485
 11
164.297
 21
39.3498
  0
LINE
  8
0
 10
164.297
 20
39.3498
 11
164.398
 21
38.9302
  0
LINE
  8
0
 10
164.398
 20
38.9302
 11
164.432
 21
38.5
  0
LINE
  8
0
 10
164.432
 20
38.5
 11
164.398
 21
38.0698
  0
LINE
  8
0
 10
164.398
 20
38.0698
 11
164.297
 21
37.6502
  0
LINE
  8
0
 10
164.297
 20
37.6502
 11
164.132
 21
37.2515
  0
LINE
  8
0
 10
164.132
 20
37.2515
 11
163.907
 21
36.8836
  0
LINE
  8
0
 10
163.907
 20
36.8836
 11
163.627
 21
36.5555
  0
LINE
  8
0
 10
163.627
 20
36.5555
 11
163.298
 21
36.2752
  0
LINE
  8
0
 10
163.298
 20
36.2752
 11
162.93
 21
36.0497
  0
LINE
  8
0
 10
162.93
 20
36.0497
 11
162.532
 21
35.8846
  0
LINE
  8
0
 10
162.532
 20
35.8846
 11
162.112
 21
35.7838
  0
LINE
  8
0
 10
162.112
 20
35.7838
 11
161.682
 21
35.75
  0
LINE
  8
0
 10
161.682
 20
35.75
 11
161.252
 21
35.7838
  0
LINE
  8
0
 10
161.252
 20
15.7838
 11
160.832
 21
15.8846
  0
LINE
  8
0
 10
160.832
 20
15.8846
 11
160.434
 21
16.0497
  0
LINE
  8
0
 10
160.434
 20
16.0497
 11
160.066
 21
16.2752
  0
LINE
  8
0
 10
160.066
 20
16.2752
 11
159.737
 21
16.5555
  0
LINE
  8
0
 10
159.737
 20
16.5555
 11
159.457
 21
16.8836
  0
LINE
  8
0
 10
159.457
 20
16.8836
 11
159.232
 21
17.2515
  0
LINE
  8
0
 10
159.232
 20
17.2515
 11
159.067
 21
17.6502
  0
LINE
  8
0
 10
159.067
 20
17.6502
 11
158.966
 21
18.0698
  0
LINE
  8
0
 10
158.966
 20
18.0698
 11
158.932
 21
18.5
  0
LINE
  8
0
 10
158.932
 20
18.5
 11
158.966
 21
18.9302
  0
LINE
  8
0
 10
158.966
 20
18.9302
 11
159.067
 21
19.3498
  0
LINE
  8
0
 10
159.067
 20
19.3498
 11
159.232
 21
19.7485
  0
LINE
  8
0
 10
159.232
 20
19.7485
 11
159.457
 21
20.1164
  0
LINE
  8
0
 10
159.457
 20
20.1164
 11
159.737
 21
20.4445
  0
LINE
  8
0
 10
159.737
 20
20.4445
 11
160.066
 21
20.7248
  0
LINE
  8
0
 10
160.066
 20
20.7248
 11
160.434
 21
20.9503
  0
LINE
  8
0
 10
160.434
 20
20.9503
 11
160.832
 21
21.1154
  0
LINE
  8
0
 10
160.832
 20
21.1154
 11
161.252
 21
21.2161
  0
LINE
  8
0
 10
161.252
 20
21.2161
 11
161.682
 21
21.25
  0
LINE
  8
0
 10
161.682
 20
21.25
 11
162.112
 21
21.2161
  0
LINE
  8
0
 10
162.112
 20
21.2161
 11
162.532
 21
21.1154
  0
LINE
  8
0
 10
162.532
 20
21.1154
 11
162.93
 21
20.9503
  0
LINE
  8
0
 10
162.93
 20
20.9503
 11
163.298
 21
20.7248
  0
LINE
  8
0
 10
163.298
 20
20.7248
 11
163.627
 21
20.4445
  0
LINE
  8
0
 10
163.627
 20
20.4445
 11
163.907
 21
20.1164
  0
LINE
  8
0
 10
163.907
 20
20.1164
 11
164.132
 21
19.7485
  0
LINE
  8
0
 10
164.132
 20
19.7485
 11
164.297
 21
19.3498
  0
LINE
  8
0
 10
164.297
 20
19.3498
 11
164.398
 21
18.9302
  0
LINE
  8
0
 10
164.398
 20
18.9302
 11
164.432
 21
18.5
  0
LINE
  8
0
 10
164.432
 20
18.5
 11
164.398
 21
18.0698
  0
LINE
  8
0
 10
164.398
 20
18.0698
 11
164.297
 21
17.6502
  0
LINE
  8
0
 10
164.297
 20
17.6502
 11
164.132
 21
17.2515
  0
LINE
  8
0
 10
164.132
 20
17.2515
 11
163.907
 21
16.8836
  0
LINE
  8
0
 10
163.907
 20
16.8836
 11
163.627
 21
16.5555
  0
LINE
  8
0
 10
163.627
 20
16.5555
 11
163.298
 21
16.2752
  0
LINE
  8
0
 10
163.298
 20
16.2752
 11
162.93
 21
16.0497
  0
LINE
  8
0
 10
162.93
 20
16.0497
 11
162.532
 21
15.8846
  0
LINE
  8
0
 10
162.532
 20
15.8846
 11
162.112
 21
15.7838
  0
LINE
  8
0
 10
162.112
 20
15.7838
 11
161.682
 21
15.75
  0
LINE
  8
0
 10
161.682
 20
15.75
 11
161.252
 21
15.7838
  0
ENDSEC
  0
SECTION
  2
OBJECTS
  0
DICTIONARY
  0
ENDSEC
  0
EOF
