999
Woody controller body rev A - Key plate (plate_top)
999
Material: aluminium, 5052 or 6061, un-anodised (mill finish)
999
Thickness: 1.2 mm (config/key-layout.yaml plate_thickness, the register's `plate-thickness`)
999
Quantity per instrument: 1
999
Units mm. Cut every closed outline. cad a81d4e2019ca; verify: python3 tools/cad.py explain fab-dxf-plate-top
  0
SECTION
  2
BLOCKS
  0
ENDSEC
  0
SECTION
  2
ENTITIES
  0
LINE
  8
0
 10
255.14
 20
44.2
 11
0
 21
44.2
  0
LINE
  8
0
 10
0
 20
44.2
 11
0
 21
0.799988
  0
LINE
  8
0
 10
0
 20
0.799988
 11
255.14
 21
0.799988
  0
LINE
  8
0
 10
255.14
 20
0.799988
 11
255.14
 21
44.2
  0
LINE
  8
0
 10
241.473
 20
38.4678
 11
241.252
 21
38.521
  0
LINE
  8
0
 10
241.252
 20
38.521
 11
241.042
 21
38.608
  0
LINE
  8
0
 10
241.042
 20
38.608
 11
240.848
 21
38.7269
  0
LINE
  8
0
 10
240.848
 20
38.7269
 11
240.675
 21
38.8747
  0
LINE
  8
0
 10
240.675
 20
38.8747
 11
240.527
 21
39.0477
  0
LINE
  8
0
 10
240.527
 20
39.0477
 11
240.408
 21
39.2417
  0
LINE
  8
0
 10
240.408
 20
39.2417
 11
240.321
 21
39.4519
  0
LINE
  8
0
 10
240.321
 20
39.4519
 11
240.268
 21
39.6732
  0
LINE
  8
0
 10
240.268
 20
39.6732
 11
240.25
 21
39.9
  0
LINE
  8
0
 10
240.25
 20
39.9
 11
240.268
 21
40.1268
  0
LINE
  8
0
 10
240.268
 20
40.1268
 11
240.321
 21
40.3481
  0
LINE
  8
0
 10
240.321
 20
40.3481
 11
240.408
 21
40.5583
  0
LINE
  8
0
 10
240.408
 20
40.5583
 11
240.527
 21
40.7523
  0
LINE
  8
0
 10
240.527
 20
40.7523
 11
240.675
 21
40.9253
  0
LINE
  8
0
 10
240.675
 20
40.9253
 11
240.848
 21
41.0731
  0
LINE
  8
0
 10
240.848
 20
41.0731
 11
241.042
 21
41.192
  0
LINE
  8
0
 10
241.042
 20
41.192
 11
241.252
 21
41.279
  0
LINE
  8
0
 10
241.252
 20
41.279
 11
241.473
 21
41.3321
  0
LINE
  8
0
 10
241.473
 20
41.3321
 11
241.7
 21
41.35
  0
LINE
  8
0
 10
241.7
 20
41.35
 11
241.927
 21
41.3321
  0
LINE
  8
0
 10
241.927
 20
41.3321
 11
242.148
 21
41.279
  0
LINE
  8
0
 10
242.148
 20
41.279
 11
242.358
 21
41.192
  0
LINE
  8
0
 10
242.358
 20
41.192
 11
242.552
 21
41.0731
  0
LINE
  8
0
 10
242.552
 20
41.0731
 11
242.725
 21
40.9253
  0
LINE
  8
0
 10
242.725
 20
40.9253
 11
242.873
 21
40.7523
  0
LINE
  8
0
 10
242.873
 20
40.7523
 11
242.992
 21
40.5583
  0
LINE
  8
0
 10
242.992
 20
40.5583
 11
243.079
 21
40.3481
  0
LINE
  8
0
 10
243.079
 20
40.3481
 11
243.132
 21
40.1268
  0
LINE
  8
0
 10
243.132
 20
40.1268
 11
243.15
 21
39.9
  0
LINE
  8
0
 10
243.15
 20
39.9
 11
243.132
 21
39.6732
  0
LINE
  8
0
 10
243.132
 20
39.6732
 11
243.079
 21
39.4519
  0
LINE
  8
0
 10
243.079
 20
39.4519
 11
242.992
 21
39.2417
  0
LINE
  8
0
 10
242.992
 20
39.2417
 11
242.873
 21
39.0477
  0
LINE
  8
0
 10
242.873
 20
39.0477
 11
242.725
 21
38.8747
  0
LINE
  8
0
 10
242.725
 20
38.8747
 11
242.552
 21
38.7269
  0
LINE
  8
0
 10
242.552
 20
38.7269
 11
242.358
 21
38.608
  0
LINE
  8
0
 10
242.358
 20
38.608
 11
242.148
 21
38.521
  0
LINE
  8
0
 10
242.148
 20
38.521
 11
241.927
 21
38.4678
  0
LINE
  8
0
 10
241.927
 20
38.4678
 11
241.7
 21
38.45
  0
LINE
  8
0
 10
241.7
 20
38.45
 11
241.473
 21
38.4678
  0
LINE
  8
0
 10
141.773
 20
38.4678
 11
141.552
 21
38.521
  0
LINE
  8
0
 10
141.552
 20
38.521
 11
141.342
 21
38.608
  0
LINE
  8
0
 10
141.342
 20
38.608
 11
141.148
 21
38.7269
  0
LINE
  8
0
 10
141.148
 20
38.7269
 11
140.975
 21
38.8747
  0
LINE
  8
0
 10
140.975
 20
38.8747
 11
140.827
 21
39.0477
  0
LINE
  8
0
 10
140.827
 20
39.0477
 11
140.708
 21
39.2417
  0
LINE
  8
0
 10
140.708
 20
39.2417
 11
140.621
 21
39.4519
  0
LINE
  8
0
 10
140.621
 20
39.4519
 11
140.568
 21
39.6732
  0
LINE
  8
0
 10
140.568
 20
39.6732
 11
140.55
 21
39.9
  0
LINE
  8
0
 10
140.55
 20
39.9
 11
140.568
 21
40.1268
  0
LINE
  8
0
 10
140.568
 20
40.1268
 11
140.621
 21
40.3481
  0
LINE
  8
0
 10
140.621
 20
40.3481
 11
140.708
 21
40.5583
  0
LINE
  8
0
 10
140.708
 20
40.5583
 11
140.827
 21
40.7523
  0
LINE
  8
0
 10
140.827
 20
40.7523
 11
140.975
 21
40.9253
  0
LINE
  8
0
 10
140.975
 20
40.9253
 11
141.148
 21
41.0731
  0
LINE
  8
0
 10
141.148
 20
41.0731
 11
141.342
 21
41.192
  0
LINE
  8
0
 10
141.342
 20
41.192
 11
141.552
 21
41.279
  0
LINE
  8
0
 10
141.552
 20
41.279
 11
141.773
 21
41.3321
  0
LINE
  8
0
 10
141.773
 20
41.3321
 11
142
 21
41.35
  0
LINE
  8
0
 10
142
 20
41.35
 11
142.227
 21
41.3321
  0
LINE
  8
0
 10
142.227
 20
41.3321
 11
142.448
 21
41.279
  0
LINE
  8
0
 10
142.448
 20
41.279
 11
142.658
 21
41.192
  0
LINE
  8
0
 10
142.658
 20
41.192
 11
142.852
 21
41.0731
  0
LINE
  8
0
 10
142.852
 20
41.0731
 11
143.025
 21
40.9253
  0
LINE
  8
0
 10
143.025
 20
40.9253
 11
143.173
 21
40.7523
  0
LINE
  8
0
 10
143.173
 20
40.7523
 11
143.292
 21
40.5583
  0
LINE
  8
0
 10
143.292
 20
40.5583
 11
143.379
 21
40.3481
  0
LINE
  8
0
 10
143.379
 20
40.3481
 11
143.432
 21
40.1268
  0
LINE
  8
0
 10
143.432
 20
40.1268
 11
143.45
 21
39.9
  0
LINE
  8
0
 10
143.45
 20
39.9
 11
143.432
 21
39.6732
  0
LINE
  8
0
 10
143.432
 20
39.6732
 11
143.379
 21
39.4519
  0
LINE
  8
0
 10
143.379
 20
39.4519
 11
143.292
 21
39.2417
  0
LINE
  8
0
 10
143.292
 20
39.2417
 11
143.173
 21
39.0477
  0
LINE
  8
0
 10
143.173
 20
39.0477
 11
143.025
 21
38.8747
  0
LINE
  8
0
 10
143.025
 20
38.8747
 11
142.852
 21
38.7269
  0
LINE
  8
0
 10
142.852
 20
38.7269
 11
142.658
 21
38.608
  0
LINE
  8
0
 10
142.658
 20
38.608
 11
142.448
 21
38.521
  0
LINE
  8
0
 10
142.448
 20
38.521
 11
142.227
 21
38.4678
  0
LINE
  8
0
 10
142.227
 20
38.4678
 11
142
 21
38.45
  0
LINE
  8
0
 10
142
 20
38.45
 11
141.773
 21
38.4678
  0
LINE
  8
0
 10
33.7732
 20
38.4678
 11
33.5519
 21
38.521
  0
LINE
  8
0
 10
33.5519
 20
38.521
 11
33.3417
 21
38.608
  0
LINE
  8
0
 10
33.3417
 20
38.608
 11
33.1477
 21
38.7269
  0
LINE
  8
0
 10
33.1477
 20
38.7269
 11
32.9747
 21
38.8747
  0
LINE
  8
0
 10
32.9747
 20
38.8747
 11
32.8269
 21
39.0477
  0
LINE
  8
0
 10
32.8269
 20
39.0477
 11
32.708
 21
39.2417
  0
LINE
  8
0
 10
32.708
 20
39.2417
 11
32.621
 21
39.4519
  0
LINE
  8
0
 10
32.621
 20
39.4519
 11
32.5678
 21
39.6732
  0
LINE
  8
0
 10
32.5678
 20
39.6732
 11
32.55
 21
39.9
  0
LINE
  8
0
 10
32.55
 20
39.9
 11
32.5678
 21
40.1268
  0
LINE
  8
0
 10
32.5678
 20
40.1268
 11
32.621
 21
40.3481
  0
LINE
  8
0
 10
32.621
 20
40.3481
 11
32.708
 21
40.5583
  0
LINE
  8
0
 10
32.708
 20
40.5583
 11
32.8269
 21
40.7523
  0
LINE
  8
0
 10
32.8269
 20
40.7523
 11
32.9747
 21
40.9253
  0
LINE
  8
0
 10
32.9747
 20
40.9253
 11
33.1477
 21
41.0731
  0
LINE
  8
0
 10
33.1477
 20
41.0731
 11
33.3417
 21
41.192
  0
LINE
  8
0
 10
33.3417
 20
41.192
 11
33.5519
 21
41.279
  0
LINE
  8
0
 10
33.5519
 20
41.279
 11
33.7732
 21
41.3321
  0
LINE
  8
0
 10
33.7732
 20
41.3321
 11
34
 21
41.35
  0
LINE
  8
0
 10
34
 20
41.35
 11
34.2268
 21
41.3321
  0
LINE
  8
0
 10
34.2268
 20
41.3321
 11
34.4481
 21
41.279
  0
LINE
  8
0
 10
34.4481
 20
41.279
 11
34.6583
 21
41.192
  0
LINE
  8
0
 10
34.6583
 20
41.192
 11
34.8523
 21
41.0731
  0
LINE
  8
0
 10
34.8523
 20
41.0731
 11
35.0253
 21
40.9253
  0
LINE
  8
0
 10
35.0253
 20
40.9253
 11
35.1731
 21
40.7523
  0
LINE
  8
0
 10
35.1731
 20
40.7523
 11
35.2919
 21
40.5583
  0
LINE
  8
0
 10
35.2919
 20
40.5583
 11
35.379
 21
40.3481
  0
LINE
  8
0
 10
35.379
 20
40.3481
 11
35.4321
 21
40.1268
  0
LINE
  8
0
 10
35.4321
 20
40.1268
 11
35.45
 21
39.9
  0
LINE
  8
0
 10
35.45
 20
39.9
 11
35.4321
 21
39.6732
  0
LINE
  8
0
 10
35.4321
 20
39.6732
 11
35.379
 21
39.4519
  0
LINE
  8
0
 10
35.379
 20
39.4519
 11
35.2919
 21
39.2417
  0
LINE
  8
0
 10
35.2919
 20
39.2417
 11
35.1731
 21
39.0477
  0
LINE
  8
0
 10
35.1731
 20
39.0477
 11
35.0253
 21
38.8747
  0
LINE
  8
0
 10
35.0253
 20
38.8747
 11
34.8523
 21
38.7269
  0
LINE
  8
0
 10
34.8523
 20
38.7269
 11
34.6583
 21
38.608
  0
LINE
  8
0
 10
34.6583
 20
38.608
 11
34.4481
 21
38.521
  0
LINE
  8
0
 10
34.4481
 20
38.521
 11
34.2268
 21
38.4678
  0
LINE
  8
0
 10
34.2268
 20
38.4678
 11
34
 21
38.45
  0
LINE
  8
0
 10
34
 20
38.45
 11
33.7732
 21
38.4678
  0
LINE
  8
0
 10
115.473
 20
38.4678
 11
115.252
 21
38.521
  0
LINE
  8
0
 10
115.252
 20
38.521
 11
115.042
 21
38.608
  0
LINE
  8
0
 10
115.042
 20
38.608
 11
114.848
 21
38.7269
  0
LINE
  8
0
 10
114.848
 20
38.7269
 11
114.675
 21
38.8747
  0
LINE
  8
0
 10
114.675
 20
38.8747
 11
114.527
 21
39.0477
  0
LINE
  8
0
 10
114.527
 20
39.0477
 11
114.408
 21
39.2417
  0
LINE
  8
0
 10
114.408
 20
39.2417
 11
114.321
 21
39.4519
  0
LINE
  8
0
 10
114.321
 20
39.4519
 11
114.268
 21
39.6732
  0
LINE
  8
0
 10
114.268
 20
39.6732
 11
114.25
 21
39.9
  0
LINE
  8
0
 10
114.25
 20
39.9
 11
114.268
 21
40.1268
  0
LINE
  8
0
 10
114.268
 20
40.1268
 11
114.321
 21
40.3481
  0
LINE
  8
0
 10
114.321
 20
40.3481
 11
114.408
 21
40.5583
  0
LINE
  8
0
 10
114.408
 20
40.5583
 11
114.527
 21
40.7523
  0
LINE
  8
0
 10
114.527
 20
40.7523
 11
114.675
 21
40.9253
  0
LINE
  8
0
 10
114.675
 20
40.9253
 11
114.848
 21
41.0731
  0
LINE
  8
0
 10
114.848
 20
41.0731
 11
115.042
 21
41.192
  0
LINE
  8
0
 10
115.042
 20
41.192
 11
115.252
 21
41.279
  0
LINE
  8
0
 10
115.252
 20
41.279
 11
115.473
 21
41.3321
  0
LINE
  8
0
 10
115.473
 20
41.3321
 11
115.7
 21
41.35
  0
LINE
  8
0
 10
115.7
 20
41.35
 11
115.927
 21
41.3321
  0
LINE
  8
0
 10
115.927
 20
41.3321
 11
116.148
 21
41.279
  0
LINE
  8
0
 10
116.148
 20
41.279
 11
116.358
 21
41.192
  0
LINE
  8
0
 10
116.358
 20
41.192
 11
116.552
 21
41.0731
  0
LINE
  8
0
 10
116.552
 20
41.0731
 11
116.725
 21
40.9253
  0
LINE
  8
0
 10
116.725
 20
40.9253
 11
116.873
 21
40.7523
  0
LINE
  8
0
 10
116.873
 20
40.7523
 11
116.992
 21
40.5583
  0
LINE
  8
0
 10
116.992
 20
40.5583
 11
117.079
 21
40.3481
  0
LINE
  8
0
 10
117.079
 20
40.3481
 11
117.132
 21
40.1268
  0
LINE
  8
0
 10
117.132
 20
40.1268
 11
117.15
 21
39.9
  0
LINE
  8
0
 10
117.15
 20
39.9
 11
117.132
 21
39.6732
  0
LINE
  8
0
 10
117.132
 20
39.6732
 11
117.079
 21
39.4519
  0
LINE
  8
0
 10
117.079
 20
39.4519
 11
116.992
 21
39.2417
  0
LINE
  8
0
 10
116.992
 20
39.2417
 11
116.873
 21
39.0477
  0
LINE
  8
0
 10
116.873
 20
39.0477
 11
116.725
 21
38.8747
  0
LINE
  8
0
 10
116.725
 20
38.8747
 11
116.552
 21
38.7269
  0
LINE
  8
0
 10
116.552
 20
38.7269
 11
116.358
 21
38.608
  0
LINE
  8
0
 10
116.358
 20
38.608
 11
116.148
 21
38.521
  0
LINE
  8
0
 10
116.148
 20
38.521
 11
115.927
 21
38.4678
  0
LINE
  8
0
 10
115.927
 20
38.4678
 11
115.7
 21
38.45
  0
LINE
  8
0
 10
115.7
 20
38.45
 11
115.473
 21
38.4678
  0
LINE
  8
0
 10
203
 20
24.5
 11
203
 21
38.5
  0
LINE
  8
0
 10
203
 20
38.5
 11
217
 21
38.5
  0
LINE
  8
0
 10
217
 20
38.5
 11
217
 21
24.5
  0
LINE
  8
0
 10
217
 20
24.5
 11
203
 21
24.5
  0
LINE
  8
0
 10
95
 20
24.5
 11
95
 21
38.5
  0
LINE
  8
0
 10
95
 20
38.5
 11
109
 21
38.5
  0
LINE
  8
0
 10
109
 20
38.5
 11
109
 21
24.5
  0
LINE
  8
0
 10
109
 20
24.5
 11
95
 21
24.5
  0
LINE
  8
0
 10
145
 20
15.5
 11
145
 21
29.5
  0
LINE
  8
0
 10
145
 20
29.5
 11
159
 21
29.5
  0
LINE
  8
0
 10
159
 20
29.5
 11
159
 21
15.5
  0
LINE
  8
0
 10
159
 20
15.5
 11
145
 21
15.5
  0
LINE
  8
0
 10
185
 20
15.5
 11
185
 21
29.5
  0
LINE
  8
0
 10
185
 20
29.5
 11
199
 21
29.5
  0
LINE
  8
0
 10
199
 20
29.5
 11
199
 21
15.5
  0
LINE
  8
0
 10
199
 20
15.5
 11
185
 21
15.5
  0
LINE
  8
0
 10
165
 20
15.5
 11
165
 21
29.5
  0
LINE
  8
0
 10
165
 20
29.5
 11
179
 21
29.5
  0
LINE
  8
0
 10
179
 20
29.5
 11
179
 21
15.5
  0
LINE
  8
0
 10
179
 20
15.5
 11
165
 21
15.5
  0
LINE
  8
0
 10
77
 20
15.5
 11
77
 21
29.5
  0
LINE
  8
0
 10
77
 20
29.5
 11
91
 21
29.5
  0
LINE
  8
0
 10
91
 20
29.5
 11
91
 21
15.5
  0
LINE
  8
0
 10
91
 20
15.5
 11
77
 21
15.5
  0
LINE
  8
0
 10
57
 20
15.5
 11
57
 21
29.5
  0
LINE
  8
0
 10
57
 20
29.5
 11
71
 21
29.5
  0
LINE
  8
0
 10
71
 20
29.5
 11
71
 21
15.5
  0
LINE
  8
0
 10
71
 20
15.5
 11
57
 21
15.5
  0
LINE
  8
0
 10
37
 20
15.5
 11
37
 21
29.5
  0
LINE
  8
0
 10
37
 20
29.5
 11
51
 21
29.5
  0
LINE
  8
0
 10
51
 20
29.5
 11
51
 21
15.5
  0
LINE
  8
0
 10
51
 20
15.5
 11
37
 21
15.5
  0
LINE
  8
0
 10
203
 20
6.5
 11
203
 21
20.5
  0
LINE
  8
0
 10
203
 20
20.5
 11
217
 21
20.5
  0
LINE
  8
0
 10
217
 20
20.5
 11
217
 21
6.5
  0
LINE
  8
0
 10
217
 20
6.5
 11
203
 21
6.5
  0
LINE
  8
0
 10
221
 20
6.5
 11
221
 21
20.5
  0
LINE
  8
0
 10
221
 20
20.5
 11
235
 21
20.5
  0
LINE
  8
0
 10
235
 20
20.5
 11
235
 21
6.5
  0
LINE
  8
0
 10
235
 20
6.5
 11
221
 21
6.5
  0
LINE
  8
0
 10
95
 20
6.5
 11
95
 21
20.5
  0
LINE
  8
0
 10
95
 20
20.5
 11
109
 21
20.5
  0
LINE
  8
0
 10
109
 20
20.5
 11
109
 21
6.5
  0
LINE
  8
0
 10
109
 20
6.5
 11
95
 21
6.5
  0
LINE
  8
0
 10
33.7732
 20
3.66785
 11
33.5519
 21
3.72096
  0
LINE
  8
0
 10
33.5519
 20
3.72096
 11
33.3417
 21
3.80803
  0
LINE
  8
0
 10
33.3417
 20
3.80803
 11
33.1477
 21
3.92691
  0
LINE
  8
0
 10
33.1477
 20
3.92691
 11
32.9747
 21
4.07469
  0
LINE
  8
0
 10
32.9747
 20
4.07469
 11
32.8269
 21
4.24771
  0
LINE
  8
0
 10
32.8269
 20
4.24771
 11
32.708
 21
4.44171
  0
LINE
  8
0
 10
32.708
 20
4.44171
 11
32.621
 21
4.65192
  0
LINE
  8
0
 10
32.621
 20
4.65192
 11
32.5678
 21
4.87317
  0
LINE
  8
0
 10
32.5678
 20
4.87317
 11
32.55
 21
5.09999
  0
LINE
  8
0
 10
32.55
 20
5.09999
 11
32.5678
 21
5.32683
  0
LINE
  8
0
 10
32.5678
 20
5.32683
 11
32.621
 21
5.54807
  0
LINE
  8
0
 10
32.621
 20
5.54807
 11
32.708
 21
5.75829
  0
LINE
  8
0
 10
32.708
 20
5.75829
 11
32.8269
 21
5.95229
  0
LINE
  8
0
 10
32.8269
 20
5.95229
 11
32.9747
 21
6.12529
  0
LINE
  8
0
 10
32.9747
 20
6.12529
 11
33.1477
 21
6.27307
  0
LINE
  8
0
 10
33.1477
 20
6.27307
 11
33.3417
 21
6.39195
  0
LINE
  8
0
 10
33.3417
 20
6.39195
 11
33.5519
 21
6.47902
  0
LINE
  8
0
 10
33.5519
 20
6.47902
 11
33.7732
 21
6.53214
  0
LINE
  8
0
 10
33.7732
 20
6.53214
 11
34
 21
6.54999
  0
LINE
  8
0
 10
34
 20
6.54999
 11
34.2268
 21
6.53214
  0
LINE
  8
0
 10
34.2268
 20
6.53214
 11
34.4481
 21
6.47902
  0
LINE
  8
0
 10
34.4481
 20
6.47902
 11
34.6583
 21
6.39195
  0
LINE
  8
0
 10
34.6583
 20
6.39195
 11
34.8523
 21
6.27307
  0
LINE
  8
0
 10
34.8523
 20
6.27307
 11
35.0253
 21
6.12529
  0
LINE
  8
0
 10
35.0253
 20
6.12529
 11
35.1731
 21
5.95229
  0
LINE
  8
0
 10
35.1731
 20
5.95229
 11
35.2919
 21
5.75829
  0
LINE
  8
0
 10
35.2919
 20
5.75829
 11
35.379
 21
5.54807
  0
LINE
  8
0
 10
35.379
 20
5.54807
 11
35.4321
 21
5.32683
  0
LINE
  8
0
 10
35.4321
 20
5.32683
 11
35.45
 21
5.09999
  0
LINE
  8
0
 10
35.45
 20
5.09999
 11
35.4321
 21
4.87317
  0
LINE
  8
0
 10
35.4321
 20
4.87317
 11
35.379
 21
4.65192
  0
LINE
  8
0
 10
35.379
 20
4.65192
 11
35.2919
 21
4.44171
  0
LINE
  8
0
 10
35.2919
 20
4.44171
 11
35.1731
 21
4.24771
  0
LINE
  8
0
 10
35.1731
 20
4.24771
 11
35.0253
 21
4.07469
  0
LINE
  8
0
 10
35.0253
 20
4.07469
 11
34.8523
 21
3.92691
  0
LINE
  8
0
 10
34.8523
 20
3.92691
 11
34.6583
 21
3.80803
  0
LINE
  8
0
 10
34.6583
 20
3.80803
 11
34.4481
 21
3.72096
  0
LINE
  8
0
 10
34.4481
 20
3.72096
 11
34.2268
 21
3.66785
  0
LINE
  8
0
 10
34.2268
 20
3.66785
 11
34
 21
3.64999
  0
LINE
  8
0
 10
34
 20
3.64999
 11
33.7732
 21
3.66785
  0
LINE
  8
0
 10
115.473
 20
3.66785
 11
115.252
 21
3.72096
  0
LINE
  8
0
 10
115.252
 20
3.72096
 11
115.042
 21
3.80803
  0
LINE
  8
0
 10
115.042
 20
3.80803
 11
114.848
 21
3.92691
  0
LINE
  8
0
 10
114.848
 20
3.92691
 11
114.675
 21
4.07469
  0
LINE
  8
0
 10
114.675
 20
4.07469
 11
114.527
 21
4.24771
  0
LINE
  8
0
 10
114.527
 20
4.24771
 11
114.408
 21
4.44171
  0
LINE
  8
0
 10
114.408
 20
4.44171
 11
114.321
 21
4.65192
  0
LINE
  8
0
 10
114.321
 20
4.65192
 11
114.268
 21
4.87317
  0
LINE
  8
0
 10
114.268
 20
4.87317
 11
114.25
 21
5.09999
  0
LINE
  8
0
 10
114.25
 20
5.09999
 11
114.268
 21
5.32683
  0
LINE
  8
0
 10
114.268
 20
5.32683
 11
114.321
 21
5.54807
  0
LINE
  8
0
 10
114.321
 20
5.54807
 11
114.408
 21
5.75829
  0
LINE
  8
0
 10
114.408
 20
5.75829
 11
114.527
 21
5.95229
  0
LINE
  8
0
 10
114.527
 20
5.95229
 11
114.675
 21
6.12529
  0
LINE
  8
0
 10
114.675
 20
6.12529
 11
114.848
 21
6.27307
  0
LINE
  8
0
 10
114.848
 20
6.27307
 11
115.042
 21
6.39195
  0
LINE
  8
0
 10
115.042
 20
6.39195
 11
115.252
 21
6.47902
  0
LINE
  8
0
 10
115.252
 20
6.47902
 11
115.473
 21
6.53214
  0
LINE
  8
0
 10
115.473
 20
6.53214
 11
115.7
 21
6.54999
  0
LINE
  8
0
 10
115.7
 20
6.54999
 11
115.927
 21
6.53214
  0
LINE
  8
0
 10
115.927
 20
6.53214
 11
116.148
 21
6.47902
  0
LINE
  8
0
 10
116.148
 20
6.47902
 11
116.358
 21
6.39195
  0
LINE
  8
0
 10
116.358
 20
6.39195
 11
116.552
 21
6.27307
  0
LINE
  8
0
 10
116.552
 20
6.27307
 11
116.725
 21
6.12529
  0
LINE
  8
0
 10
116.725
 20
6.12529
 11
116.873
 21
5.95229
  0
LINE
  8
0
 10
116.873
 20
5.95229
 11
116.992
 21
5.75829
  0
LINE
  8
0
 10
116.992
 20
5.75829
 11
117.079
 21
5.54807
  0
LINE
  8
0
 10
117.079
 20
5.54807
 11
117.132
 21
5.32683
  0
LINE
  8
0
 10
117.132
 20
5.32683
 11
117.15
 21
5.09999
  0
LINE
  8
0
 10
117.15
 20
5.09999
 11
117.132
 21
4.87317
  0
LINE
  8
0
 10
117.132
 20
4.87317
 11
117.079
 21
4.65192
  0
LINE
  8
0
 10
117.079
 20
4.65192
 11
116.992
 21
4.44171
  0
LINE
  8
0
 10
116.992
 20
4.44171
 11
116.873
 21
4.24771
  0
LINE
  8
0
 10
116.873
 20
4.24771
 11
116.725
 21
4.07469
  0
LINE
  8
0
 10
116.725
 20
4.07469
 11
116.552
 21
3.92691
  0
LINE
  8
0
 10
116.552
 20
3.92691
 11
116.358
 21
3.80803
  0
LINE
  8
0
 10
116.358
 20
3.80803
 11
116.148
 21
3.72096
  0
LINE
  8
0
 10
116.148
 20
3.72096
 11
115.927
 21
3.66785
  0
LINE
  8
0
 10
115.927
 20
3.66785
 11
115.7
 21
3.64999
  0
LINE
  8
0
 10
115.7
 20
3.64999
 11
115.473
 21
3.66785
  0
LINE
  8
0
 10
141.773
 20
3.66785
 11
141.552
 21
3.72096
  0
LINE
  8
0
 10
141.552
 20
3.72096
 11
141.342
 21
3.80803
  0
LINE
  8
0
 10
141.342
 20
3.80803
 11
141.148
 21
3.92691
  0
LINE
  8
0
 10
141.148
 20
3.92691
 11
140.975
 21
4.07469
  0
LINE
  8
0
 10
140.975
 20
4.07469
 11
140.827
 21
4.24771
  0
LINE
  8
0
 10
140.827
 20
4.24771
 11
140.708
 21
4.44171
  0
LINE
  8
0
 10
140.708
 20
4.44171
 11
140.621
 21
4.65192
  0
LINE
  8
0
 10
140.621
 20
4.65192
 11
140.568
 21
4.87317
  0
LINE
  8
0
 10
140.568
 20
4.87317
 11
140.55
 21
5.09999
  0
LINE
  8
0
 10
140.55
 20
5.09999
 11
140.568
 21
5.32683
  0
LINE
  8
0
 10
140.568
 20
5.32683
 11
140.621
 21
5.54807
  0
LINE
  8
0
 10
140.621
 20
5.54807
 11
140.708
 21
5.75829
  0
LINE
  8
0
 10
140.708
 20
5.75829
 11
140.827
 21
5.95229
  0
LINE
  8
0
 10
140.827
 20
5.95229
 11
140.975
 21
6.12529
  0
LINE
  8
0
 10
140.975
 20
6.12529
 11
141.148
 21
6.27307
  0
LINE
  8
0
 10
141.148
 20
6.27307
 11
141.342
 21
6.39195
  0
LINE
  8
0
 10
141.342
 20
6.39195
 11
141.552
 21
6.47902
  0
LINE
  8
0
 10
141.552
 20
6.47902
 11
141.773
 21
6.53214
  0
LINE
  8
0
 10
141.773
 20
6.53214
 11
142
 21
6.54999
  0
LINE
  8
0
 10
142
 20
6.54999
 11
142.227
 21
6.53214
  0
LINE
  8
0
 10
142.227
 20
6.53214
 11
142.448
 21
6.47902
  0
LINE
  8
0
 10
142.448
 20
6.47902
 11
142.658
 21
6.39195
  0
LINE
  8
0
 10
142.658
 20
6.39195
 11
142.852
 21
6.27307
  0
LINE
  8
0
 10
142.852
 20
6.27307
 11
143.025
 21
6.12529
  0
LINE
  8
0
 10
143.025
 20
6.12529
 11
143.173
 21
5.95229
  0
LINE
  8
0
 10
143.173
 20
5.95229
 11
143.292
 21
5.75829
  0
LINE
  8
0
 10
143.292
 20
5.75829
 11
143.379
 21
5.54807
  0
LINE
  8
0
 10
143.379
 20
5.54807
 11
143.432
 21
5.32683
  0
LINE
  8
0
 10
143.432
 20
5.32683
 11
143.45
 21
5.09999
  0
LINE
  8
0
 10
143.45
 20
5.09999
 11
143.432
 21
4.87317
  0
LINE
  8
0
 10
143.432
 20
4.87317
 11
143.379
 21
4.65192
  0
LINE
  8
0
 10
143.379
 20
4.65192
 11
143.292
 21
4.44171
  0
LINE
  8
0
 10
143.292
 20
4.44171
 11
143.173
 21
4.24771
  0
LINE
  8
0
 10
143.173
 20
4.24771
 11
143.025
 21
4.07469
  0
LINE
  8
0
 10
143.025
 20
4.07469
 11
142.852
 21
3.92691
  0
LINE
  8
0
 10
142.852
 20
3.92691
 11
142.658
 21
3.80803
  0
LINE
  8
0
 10
142.658
 20
3.80803
 11
142.448
 21
3.72096
  0
LINE
  8
0
 10
142.448
 20
3.72096
 11
142.227
 21
3.66785
  0
LINE
  8
0
 10
142.227
 20
3.66785
 11
142
 21
3.64999
  0
LINE
  8
0
 10
142
 20
3.64999
 11
141.773
 21
3.66785
  0
LINE
  8
0
 10
241.473
 20
3.66785
 11
241.252
 21
3.72096
  0
LINE
  8
0
 10
241.252
 20
3.72096
 11
241.042
 21
3.80803
  0
LINE
  8
0
 10
241.042
 20
3.80803
 11
240.848
 21
3.92691
  0
LINE
  8
0
 10
240.848
 20
3.92691
 11
240.675
 21
4.07469
  0
LINE
  8
0
 10
240.675
 20
4.07469
 11
240.527
 21
4.24771
  0
LINE
  8
0
 10
240.527
 20
4.24771
 11
240.408
 21
4.44171
  0
LINE
  8
0
 10
240.408
 20
4.44171
 11
240.321
 21
4.65192
  0
LINE
  8
0
 10
240.321
 20
4.65192
 11
240.268
 21
4.87317
  0
LINE
  8
0
 10
240.268
 20
4.87317
 11
240.25
 21
5.09999
  0
LINE
  8
0
 10
240.25
 20
5.09999
 11
240.268
 21
5.32683
  0
LINE
  8
0
 10
240.268
 20
5.32683
 11
240.321
 21
5.54807
  0
LINE
  8
0
 10
240.321
 20
5.54807
 11
240.408
 21
5.75829
  0
LINE
  8
0
 10
240.408
 20
5.75829
 11
240.527
 21
5.95229
  0
LINE
  8
0
 10
240.527
 20
5.95229
 11
240.675
 21
6.12529
  0
LINE
  8
0
 10
240.675
 20
6.12529
 11
240.848
 21
6.27307
  0
LINE
  8
0
 10
240.848
 20
6.27307
 11
241.042
 21
6.39195
  0
LINE
  8
0
 10
241.042
 20
6.39195
 11
241.252
 21
6.47902
  0
LINE
  8
0
 10
241.252
 20
6.47902
 11
241.473
 21
6.53214
  0
LINE
  8
0
 10
241.473
 20
6.53214
 11
241.7
 21
6.54999
  0
LINE
  8
0
 10
241.7
 20
6.54999
 11
241.927
 21
6.53214
  0
LINE
  8
0
 10
241.927
 20
6.53214
 11
242.148
 21
6.47902
  0
LINE
  8
0
 10
242.148
 20
6.47902
 11
242.358
 21
6.39195
  0
LINE
  8
0
 10
242.358
 20
6.39195
 11
242.552
 21
6.27307
  0
LINE
  8
0
 10
242.552
 20
6.27307
 11
242.725
 21
6.12529
  0
LINE
  8
0
 10
242.725
 20
6.12529
 11
242.873
 21
5.95229
  0
LINE
  8
0
 10
242.873
 20
5.95229
 11
242.992
 21
5.75829
  0
LINE
  8
0
 10
242.992
 20
5.75829
 11
243.079
 21
5.54807
  0
LINE
  8
0
 10
243.079
 20
5.54807
 11
243.132
 21
5.32683
  0
LINE
  8
0
 10
243.132
 20
5.32683
 11
243.15
 21
5.09999
  0
LINE
  8
0
 10
243.15
 20
5.09999
 11
243.132
 21
4.87317
  0
LINE
  8
0
 10
243.132
 20
4.87317
 11
243.079
 21
4.65192
  0
LINE
  8
0
 10
243.079
 20
4.65192
 11
242.992
 21
4.44171
  0
LINE
  8
0
 10
242.992
 20
4.44171
 11
242.873
 21
4.24771
  0
LINE
  8
0
 10
242.873
 20
4.24771
 11
242.725
 21
4.07469
  0
LINE
  8
0
 10
242.725
 20
4.07469
 11
242.552
 21
3.92691
  0
LINE
  8
0
 10
242.552
 20
3.92691
 11
242.358
 21
3.80803
  0
LINE
  8
0
 10
242.358
 20
3.80803
 11
242.148
 21
3.72096
  0
LINE
  8
0
 10
242.148
 20
3.72096
 11
241.927
 21
3.66785
  0
LINE
  8
0
 10
241.927
 20
3.66785
 11
241.7
 21
3.64999
  0
LINE
  8
0
 10
241.7
 20
3.64999
 11
241.473
 21
3.66785
  0
ENDSEC
  0
SECTION
  2
OBJECTS
  0
DICTIONARY
  0
ENDSEC
  0
EOF
