999
Woody controller body rev A - Key plate (plate_top)
999
Material: aluminium, 5052 or 6061, un-anodised (mill finish)
999
Thickness: 1.2 mm (config/key-layout.yaml plate_thickness, the register's `plate-thickness`)
999
Quantity per instrument: 1
999
Units mm. Cut every closed outline. cad 14d93b962bd7; verify: python3 tools/cad.py explain fab-dxf-plate-top
  0
SECTION
  2
BLOCKS
  0
ENDSEC
  0
SECTION
  2
ENTITIES
  0
LINE
  8
0
 10
254.296
 20
0.812302
 11
254.449
 21
0.848938
  0
LINE
  8
0
 10
254.449
 20
0.848938
 11
254.594
 21
0.908981
  0
LINE
  8
0
 10
254.594
 20
0.908981
 11
254.728
 21
0.990967
  0
LINE
  8
0
 10
254.728
 20
0.990967
 11
254.847
 21
1.09288
  0
LINE
  8
0
 10
254.847
 20
1.09288
 11
254.949
 21
1.2122
  0
LINE
  8
0
 10
254.949
 20
1.2122
 11
255.031
 21
1.34599
  0
LINE
  8
0
 10
255.031
 20
1.34599
 11
255.091
 21
1.49097
  0
LINE
  8
0
 10
255.091
 20
1.49097
 11
255.128
 21
1.64355
  0
LINE
  8
0
 10
255.128
 20
1.64355
 11
255.14
 21
1.79999
  0
LINE
  8
0
 10
255.14
 20
1.79999
 11
255.14
 21
43.2
  0
LINE
  8
0
 10
255.14
 20
43.2
 11
255.128
 21
43.3564
  0
LINE
  8
0
 10
255.128
 20
43.3564
 11
255.091
 21
43.509
  0
LINE
  8
0
 10
255.091
 20
43.509
 11
255.031
 21
43.654
  0
LINE
  8
0
 10
255.031
 20
43.654
 11
254.949
 21
43.7878
  0
LINE
  8
0
 10
254.949
 20
43.7878
 11
254.847
 21
43.9071
  0
LINE
  8
0
 10
254.847
 20
43.9071
 11
254.728
 21
44.009
  0
LINE
  8
0
 10
254.728
 20
44.009
 11
254.594
 21
44.091
  0
LINE
  8
0
 10
254.594
 20
44.091
 11
254.449
 21
44.151
  0
LINE
  8
0
 10
254.449
 20
44.151
 11
254.296
 21
44.1877
  0
LINE
  8
0
 10
254.296
 20
44.1877
 11
254.14
 21
44.2
  0
LINE
  8
0
 10
254.14
 20
44.2
 11
1
 21
44.2
  0
LINE
  8
0
 10
1
 20
44.2
 11
0.843567
 21
44.1877
  0
LINE
  8
0
 10
0.843567
 20
44.1877
 11
0.690979
 21
44.151
  0
LINE
  8
0
 10
0.690979
 20
44.151
 11
0.546005
 21
44.091
  0
LINE
  8
0
 10
0.546005
 20
44.091
 11
0.412216
 21
44.009
  0
LINE
  8
0
 10
0.412216
 20
44.009
 11
0.292892
 21
43.9071
  0
LINE
  8
0
 10
0.292892
 20
43.9071
 11
0.190979
 21
43.7878
  0
LINE
  8
0
 10
0.190979
 20
43.7878
 11
0.108994
 21
43.654
  0
LINE
  8
0
 10
0.108994
 20
43.654
 11
0.0489502
 21
43.509
  0
LINE
  8
0
 10
0.0489502
 20
43.509
 11
0.0123138
 21
43.3564
  0
LINE
  8
0
 10
0.0123138
 20
43.3564
 11
0
 21
43.2
  0
LINE
  8
0
 10
0
 20
43.2
 11
0
 21
1.79999
  0
LINE
  8
0
 10
0
 20
1.79999
 11
0.0123138
 21
1.64355
  0
LINE
  8
0
 10
0.0123138
 20
1.64355
 11
0.0489502
 21
1.49097
  0
LINE
  8
0
 10
0.0489502
 20
1.49097
 11
0.108994
 21
1.34599
  0
LINE
  8
0
 10
0.108994
 20
1.34599
 11
0.190979
 21
1.2122
  0
LINE
  8
0
 10
0.190979
 20
1.2122
 11
0.292892
 21
1.09288
  0
LINE
  8
0
 10
0.292892
 20
1.09288
 11
0.412216
 21
0.990967
  0
LINE
  8
0
 10
0.412216
 20
0.990967
 11
0.546005
 21
0.908981
  0
LINE
  8
0
 10
0.546005
 20
0.908981
 11
0.690979
 21
0.848938
  0
LINE
  8
0
 10
0.690979
 20
0.848938
 11
0.843567
 21
0.812302
  0
LINE
  8
0
 10
0.843567
 20
0.812302
 11
1
 21
0.799988
  0
LINE
  8
0
 10
1
 20
0.799988
 11
254.14
 21
0.799988
  0
LINE
  8
0
 10
254.14
 20
0.799988
 11
254.296
 21
0.812302
  0
LINE
  8
0
 10
241.473
 20
38.4678
 11
241.252
 21
38.521
  0
LINE
  8
0
 10
241.252
 20
38.521
 11
241.042
 21
38.608
  0
LINE
  8
0
 10
241.042
 20
38.608
 11
240.848
 21
38.7269
  0
LINE
  8
0
 10
240.848
 20
38.7269
 11
240.675
 21
38.8747
  0
LINE
  8
0
 10
240.675
 20
38.8747
 11
240.527
 21
39.0477
  0
LINE
  8
0
 10
240.527
 20
39.0477
 11
240.408
 21
39.2417
  0
LINE
  8
0
 10
240.408
 20
39.2417
 11
240.321
 21
39.4519
  0
LINE
  8
0
 10
240.321
 20
39.4519
 11
240.268
 21
39.6732
  0
LINE
  8
0
 10
240.268
 20
39.6732
 11
240.25
 21
39.9
  0
LINE
  8
0
 10
240.25
 20
39.9
 11
240.268
 21
40.1268
  0
LINE
  8
0
 10
240.268
 20
40.1268
 11
240.321
 21
40.3481
  0
LINE
  8
0
 10
240.321
 20
40.3481
 11
240.408
 21
40.5583
  0
LINE
  8
0
 10
240.408
 20
40.5583
 11
240.527
 21
40.7523
  0
LINE
  8
0
 10
240.527
 20
40.7523
 11
240.675
 21
40.9253
  0
LINE
  8
0
 10
240.675
 20
40.9253
 11
240.848
 21
41.0731
  0
LINE
  8
0
 10
240.848
 20
41.0731
 11
241.042
 21
41.192
  0
LINE
  8
0
 10
241.042
 20
41.192
 11
241.252
 21
41.279
  0
LINE
  8
0
 10
241.252
 20
41.279
 11
241.473
 21
41.3321
  0
LINE
  8
0
 10
241.473
 20
41.3321
 11
241.7
 21
41.35
  0
LINE
  8
0
 10
241.7
 20
41.35
 11
241.927
 21
41.3321
  0
LINE
  8
0
 10
241.927
 20
41.3321
 11
242.148
 21
41.279
  0
LINE
  8
0
 10
242.148
 20
41.279
 11
242.358
 21
41.192
  0
LINE
  8
0
 10
242.358
 20
41.192
 11
242.552
 21
41.0731
  0
LINE
  8
0
 10
242.552
 20
41.0731
 11
242.725
 21
40.9253
  0
LINE
  8
0
 10
242.725
 20
40.9253
 11
242.873
 21
40.7523
  0
LINE
  8
0
 10
242.873
 20
40.7523
 11
242.992
 21
40.5583
  0
LINE
  8
0
 10
242.992
 20
40.5583
 11
243.079
 21
40.3481
  0
LINE
  8
0
 10
243.079
 20
40.3481
 11
243.132
 21
40.1268
  0
LINE
  8
0
 10
243.132
 20
40.1268
 11
243.15
 21
39.9
  0
LINE
  8
0
 10
243.15
 20
39.9
 11
243.132
 21
39.6732
  0
LINE
  8
0
 10
243.132
 20
39.6732
 11
243.079
 21
39.4519
  0
LINE
  8
0
 10
243.079
 20
39.4519
 11
242.992
 21
39.2417
  0
LINE
  8
0
 10
242.992
 20
39.2417
 11
242.873
 21
39.0477
  0
LINE
  8
0
 10
242.873
 20
39.0477
 11
242.725
 21
38.8747
  0
LINE
  8
0
 10
242.725
 20
38.8747
 11
242.552
 21
38.7269
  0
LINE
  8
0
 10
242.552
 20
38.7269
 11
242.358
 21
38.608
  0
LINE
  8
0
 10
242.358
 20
38.608
 11
242.148
 21
38.521
  0
LINE
  8
0
 10
242.148
 20
38.521
 11
241.927
 21
38.4678
  0
LINE
  8
0
 10
241.927
 20
38.4678
 11
241.7
 21
38.45
  0
LINE
  8
0
 10
241.7
 20
38.45
 11
241.473
 21
38.4678
  0
LINE
  8
0
 10
139.573
 20
38.4678
 11
139.352
 21
38.521
  0
LINE
  8
0
 10
139.352
 20
38.521
 11
139.142
 21
38.608
  0
LINE
  8
0
 10
139.142
 20
38.608
 11
138.948
 21
38.7269
  0
LINE
  8
0
 10
138.948
 20
38.7269
 11
138.775
 21
38.8747
  0
LINE
  8
0
 10
138.775
 20
38.8747
 11
138.627
 21
39.0477
  0
LINE
  8
0
 10
138.627
 20
39.0477
 11
138.508
 21
39.2417
  0
LINE
  8
0
 10
138.508
 20
39.2417
 11
138.421
 21
39.4519
  0
LINE
  8
0
 10
138.421
 20
39.4519
 11
138.368
 21
39.6732
  0
LINE
  8
0
 10
138.368
 20
39.6732
 11
138.35
 21
39.9
  0
LINE
  8
0
 10
138.35
 20
39.9
 11
138.368
 21
40.1268
  0
LINE
  8
0
 10
138.368
 20
40.1268
 11
138.421
 21
40.3481
  0
LINE
  8
0
 10
138.421
 20
40.3481
 11
138.508
 21
40.5583
  0
LINE
  8
0
 10
138.508
 20
40.5583
 11
138.627
 21
40.7523
  0
LINE
  8
0
 10
138.627
 20
40.7523
 11
138.775
 21
40.9253
  0
LINE
  8
0
 10
138.775
 20
40.9253
 11
138.948
 21
41.0731
  0
LINE
  8
0
 10
138.948
 20
41.0731
 11
139.142
 21
41.192
  0
LINE
  8
0
 10
139.142
 20
41.192
 11
139.352
 21
41.279
  0
LINE
  8
0
 10
139.352
 20
41.279
 11
139.573
 21
41.3321
  0
LINE
  8
0
 10
139.573
 20
41.3321
 11
139.8
 21
41.35
  0
LINE
  8
0
 10
139.8
 20
41.35
 11
140.027
 21
41.3321
  0
LINE
  8
0
 10
140.027
 20
41.3321
 11
140.248
 21
41.279
  0
LINE
  8
0
 10
140.248
 20
41.279
 11
140.458
 21
41.192
  0
LINE
  8
0
 10
140.458
 20
41.192
 11
140.652
 21
41.0731
  0
LINE
  8
0
 10
140.652
 20
41.0731
 11
140.825
 21
40.9253
  0
LINE
  8
0
 10
140.825
 20
40.9253
 11
140.973
 21
40.7523
  0
LINE
  8
0
 10
140.973
 20
40.7523
 11
141.092
 21
40.5583
  0
LINE
  8
0
 10
141.092
 20
40.5583
 11
141.179
 21
40.3481
  0
LINE
  8
0
 10
141.179
 20
40.3481
 11
141.232
 21
40.1268
  0
LINE
  8
0
 10
141.232
 20
40.1268
 11
141.25
 21
39.9
  0
LINE
  8
0
 10
141.25
 20
39.9
 11
141.232
 21
39.6732
  0
LINE
  8
0
 10
141.232
 20
39.6732
 11
141.179
 21
39.4519
  0
LINE
  8
0
 10
141.179
 20
39.4519
 11
141.092
 21
39.2417
  0
LINE
  8
0
 10
141.092
 20
39.2417
 11
140.973
 21
39.0477
  0
LINE
  8
0
 10
140.973
 20
39.0477
 11
140.825
 21
38.8747
  0
LINE
  8
0
 10
140.825
 20
38.8747
 11
140.652
 21
38.7269
  0
LINE
  8
0
 10
140.652
 20
38.7269
 11
140.458
 21
38.608
  0
LINE
  8
0
 10
140.458
 20
38.608
 11
140.248
 21
38.521
  0
LINE
  8
0
 10
140.248
 20
38.521
 11
140.027
 21
38.4678
  0
LINE
  8
0
 10
140.027
 20
38.4678
 11
139.8
 21
38.45
  0
LINE
  8
0
 10
139.8
 20
38.45
 11
139.573
 21
38.4678
  0
LINE
  8
0
 10
31.5732
 20
38.4678
 11
31.3519
 21
38.521
  0
LINE
  8
0
 10
31.3519
 20
38.521
 11
31.1417
 21
38.608
  0
LINE
  8
0
 10
31.1417
 20
38.608
 11
30.9477
 21
38.7269
  0
LINE
  8
0
 10
30.9477
 20
38.7269
 11
30.7747
 21
38.8747
  0
LINE
  8
0
 10
30.7747
 20
38.8747
 11
30.6269
 21
39.0477
  0
LINE
  8
0
 10
30.6269
 20
39.0477
 11
30.508
 21
39.2417
  0
LINE
  8
0
 10
30.508
 20
39.2417
 11
30.421
 21
39.4519
  0
LINE
  8
0
 10
30.421
 20
39.4519
 11
30.3678
 21
39.6732
  0
LINE
  8
0
 10
30.3678
 20
39.6732
 11
30.35
 21
39.9
  0
LINE
  8
0
 10
30.35
 20
39.9
 11
30.3678
 21
40.1268
  0
LINE
  8
0
 10
30.3678
 20
40.1268
 11
30.421
 21
40.3481
  0
LINE
  8
0
 10
30.421
 20
40.3481
 11
30.508
 21
40.5583
  0
LINE
  8
0
 10
30.508
 20
40.5583
 11
30.6269
 21
40.7523
  0
LINE
  8
0
 10
30.6269
 20
40.7523
 11
30.7747
 21
40.9253
  0
LINE
  8
0
 10
30.7747
 20
40.9253
 11
30.9477
 21
41.0731
  0
LINE
  8
0
 10
30.9477
 20
41.0731
 11
31.1417
 21
41.192
  0
LINE
  8
0
 10
31.1417
 20
41.192
 11
31.3519
 21
41.279
  0
LINE
  8
0
 10
31.3519
 20
41.279
 11
31.5732
 21
41.3321
  0
LINE
  8
0
 10
31.5732
 20
41.3321
 11
31.8
 21
41.35
  0
LINE
  8
0
 10
31.8
 20
41.35
 11
32.0268
 21
41.3321
  0
LINE
  8
0
 10
32.0268
 20
41.3321
 11
32.2481
 21
41.279
  0
LINE
  8
0
 10
32.2481
 20
41.279
 11
32.4583
 21
41.192
  0
LINE
  8
0
 10
32.4583
 20
41.192
 11
32.6523
 21
41.0731
  0
LINE
  8
0
 10
32.6523
 20
41.0731
 11
32.8253
 21
40.9253
  0
LINE
  8
0
 10
32.8253
 20
40.9253
 11
32.9731
 21
40.7523
  0
LINE
  8
0
 10
32.9731
 20
40.7523
 11
33.0919
 21
40.5583
  0
LINE
  8
0
 10
33.0919
 20
40.5583
 11
33.179
 21
40.3481
  0
LINE
  8
0
 10
33.179
 20
40.3481
 11
33.2321
 21
40.1268
  0
LINE
  8
0
 10
33.2321
 20
40.1268
 11
33.25
 21
39.9
  0
LINE
  8
0
 10
33.25
 20
39.9
 11
33.2321
 21
39.6732
  0
LINE
  8
0
 10
33.2321
 20
39.6732
 11
33.179
 21
39.4519
  0
LINE
  8
0
 10
33.179
 20
39.4519
 11
33.0919
 21
39.2417
  0
LINE
  8
0
 10
33.0919
 20
39.2417
 11
32.9731
 21
39.0477
  0
LINE
  8
0
 10
32.9731
 20
39.0477
 11
32.8253
 21
38.8747
  0
LINE
  8
0
 10
32.8253
 20
38.8747
 11
32.6523
 21
38.7269
  0
LINE
  8
0
 10
32.6523
 20
38.7269
 11
32.4583
 21
38.608
  0
LINE
  8
0
 10
32.4583
 20
38.608
 11
32.2481
 21
38.521
  0
LINE
  8
0
 10
32.2481
 20
38.521
 11
32.0268
 21
38.4678
  0
LINE
  8
0
 10
32.0268
 20
38.4678
 11
31.8
 21
38.45
  0
LINE
  8
0
 10
31.8
 20
38.45
 11
31.5732
 21
38.4678
  0
LINE
  8
0
 10
115.473
 20
38.4678
 11
115.252
 21
38.521
  0
LINE
  8
0
 10
115.252
 20
38.521
 11
115.042
 21
38.608
  0
LINE
  8
0
 10
115.042
 20
38.608
 11
114.848
 21
38.7269
  0
LINE
  8
0
 10
114.848
 20
38.7269
 11
114.675
 21
38.8747
  0
LINE
  8
0
 10
114.675
 20
38.8747
 11
114.527
 21
39.0477
  0
LINE
  8
0
 10
114.527
 20
39.0477
 11
114.408
 21
39.2417
  0
LINE
  8
0
 10
114.408
 20
39.2417
 11
114.321
 21
39.4519
  0
LINE
  8
0
 10
114.321
 20
39.4519
 11
114.268
 21
39.6732
  0
LINE
  8
0
 10
114.268
 20
39.6732
 11
114.25
 21
39.9
  0
LINE
  8
0
 10
114.25
 20
39.9
 11
114.268
 21
40.1268
  0
LINE
  8
0
 10
114.268
 20
40.1268
 11
114.321
 21
40.3481
  0
LINE
  8
0
 10
114.321
 20
40.3481
 11
114.408
 21
40.5583
  0
LINE
  8
0
 10
114.408
 20
40.5583
 11
114.527
 21
40.7523
  0
LINE
  8
0
 10
114.527
 20
40.7523
 11
114.675
 21
40.9253
  0
LINE
  8
0
 10
114.675
 20
40.9253
 11
114.848
 21
41.0731
  0
LINE
  8
0
 10
114.848
 20
41.0731
 11
115.042
 21
41.192
  0
LINE
  8
0
 10
115.042
 20
41.192
 11
115.252
 21
41.279
  0
LINE
  8
0
 10
115.252
 20
41.279
 11
115.473
 21
41.3321
  0
LINE
  8
0
 10
115.473
 20
41.3321
 11
115.7
 21
41.35
  0
LINE
  8
0
 10
115.7
 20
41.35
 11
115.927
 21
41.3321
  0
LINE
  8
0
 10
115.927
 20
41.3321
 11
116.148
 21
41.279
  0
LINE
  8
0
 10
116.148
 20
41.279
 11
116.358
 21
41.192
  0
LINE
  8
0
 10
116.358
 20
41.192
 11
116.552
 21
41.0731
  0
LINE
  8
0
 10
116.552
 20
41.0731
 11
116.725
 21
40.9253
  0
LINE
  8
0
 10
116.725
 20
40.9253
 11
116.873
 21
40.7523
  0
LINE
  8
0
 10
116.873
 20
40.7523
 11
116.992
 21
40.5583
  0
LINE
  8
0
 10
116.992
 20
40.5583
 11
117.079
 21
40.3481
  0
LINE
  8
0
 10
117.079
 20
40.3481
 11
117.132
 21
40.1268
  0
LINE
  8
0
 10
117.132
 20
40.1268
 11
117.15
 21
39.9
  0
LINE
  8
0
 10
117.15
 20
39.9
 11
117.132
 21
39.6732
  0
LINE
  8
0
 10
117.132
 20
39.6732
 11
117.079
 21
39.4519
  0
LINE
  8
0
 10
117.079
 20
39.4519
 11
116.992
 21
39.2417
  0
LINE
  8
0
 10
116.992
 20
39.2417
 11
116.873
 21
39.0477
  0
LINE
  8
0
 10
116.873
 20
39.0477
 11
116.725
 21
38.8747
  0
LINE
  8
0
 10
116.725
 20
38.8747
 11
116.552
 21
38.7269
  0
LINE
  8
0
 10
116.552
 20
38.7269
 11
116.358
 21
38.608
  0
LINE
  8
0
 10
116.358
 20
38.608
 11
116.148
 21
38.521
  0
LINE
  8
0
 10
116.148
 20
38.521
 11
115.927
 21
38.4678
  0
LINE
  8
0
 10
115.927
 20
38.4678
 11
115.7
 21
38.45
  0
LINE
  8
0
 10
115.7
 20
38.45
 11
115.473
 21
38.4678
  0
LINE
  8
0
 10
203.5
 20
24.5
 11
203.422
 21
24.5061
  0
LINE
  8
0
 10
203.422
 20
24.5061
 11
203.345
 21
24.5245
  0
LINE
  8
0
 10
203.345
 20
24.5245
 11
203.273
 21
24.5545
  0
LINE
  8
0
 10
203.273
 20
24.5545
 11
203.206
 21
24.5955
  0
LINE
  8
0
 10
203.206
 20
24.5955
 11
203.146
 21
24.6465
  0
LINE
  8
0
 10
203.146
 20
24.6465
 11
203.095
 21
24.7061
  0
LINE
  8
0
 10
203.095
 20
24.7061
 11
203.054
 21
24.773
  0
LINE
  8
0
 10
203.054
 20
24.773
 11
203.024
 21
24.8455
  0
LINE
  8
0
 10
203.024
 20
24.8455
 11
203.006
 21
24.9218
  0
LINE
  8
0
 10
203.006
 20
24.9218
 11
203
 21
25
  0
LINE
  8
0
 10
203
 20
25
 11
203
 21
38
  0
LINE
  8
0
 10
203
 20
38
 11
203.006
 21
38.0782
  0
LINE
  8
0
 10
203.006
 20
38.0782
 11
203.024
 21
38.1545
  0
LINE
  8
0
 10
203.024
 20
38.1545
 11
203.054
 21
38.227
  0
LINE
  8
0
 10
203.054
 20
38.227
 11
203.095
 21
38.2939
  0
LINE
  8
0
 10
203.095
 20
38.2939
 11
203.146
 21
38.3535
  0
LINE
  8
0
 10
203.146
 20
38.3535
 11
203.206
 21
38.4045
  0
LINE
  8
0
 10
203.206
 20
38.4045
 11
203.273
 21
38.4455
  0
LINE
  8
0
 10
203.273
 20
38.4455
 11
203.345
 21
38.4755
  0
LINE
  8
0
 10
203.345
 20
38.4755
 11
203.422
 21
38.4939
  0
LINE
  8
0
 10
203.422
 20
38.4939
 11
203.5
 21
38.5
  0
LINE
  8
0
 10
203.5
 20
38.5
 11
216.5
 21
38.5
  0
LINE
  8
0
 10
216.5
 20
38.5
 11
216.578
 21
38.4939
  0
LINE
  8
0
 10
216.578
 20
38.4939
 11
216.655
 21
38.4755
  0
LINE
  8
0
 10
216.655
 20
38.4755
 11
216.727
 21
38.4455
  0
LINE
  8
0
 10
216.727
 20
38.4455
 11
216.794
 21
38.4045
  0
LINE
  8
0
 10
216.794
 20
38.4045
 11
216.854
 21
38.3535
  0
LINE
  8
0
 10
216.854
 20
38.3535
 11
216.905
 21
38.2939
  0
LINE
  8
0
 10
216.905
 20
38.2939
 11
216.946
 21
38.227
  0
LINE
  8
0
 10
216.946
 20
38.227
 11
216.976
 21
38.1545
  0
LINE
  8
0
 10
216.976
 20
38.1545
 11
216.994
 21
38.0782
  0
LINE
  8
0
 10
216.994
 20
38.0782
 11
217
 21
38
  0
LINE
  8
0
 10
217
 20
38
 11
217
 21
25
  0
LINE
  8
0
 10
217
 20
25
 11
216.994
 21
24.9218
  0
LINE
  8
0
 10
216.994
 20
24.9218
 11
216.976
 21
24.8455
  0
LINE
  8
0
 10
216.976
 20
24.8455
 11
216.946
 21
24.773
  0
LINE
  8
0
 10
216.946
 20
24.773
 11
216.905
 21
24.7061
  0
LINE
  8
0
 10
216.905
 20
24.7061
 11
216.854
 21
24.6465
  0
LINE
  8
0
 10
216.854
 20
24.6465
 11
216.794
 21
24.5955
  0
LINE
  8
0
 10
216.794
 20
24.5955
 11
216.727
 21
24.5545
  0
LINE
  8
0
 10
216.727
 20
24.5545
 11
216.655
 21
24.5245
  0
LINE
  8
0
 10
216.655
 20
24.5245
 11
216.578
 21
24.5061
  0
LINE
  8
0
 10
216.578
 20
24.5061
 11
216.5
 21
24.5
  0
LINE
  8
0
 10
216.5
 20
24.5
 11
203.5
 21
24.5
  0
LINE
  8
0
 10
95.5
 20
24.5
 11
95.4218
 21
24.5061
  0
LINE
  8
0
 10
95.4218
 20
24.5061
 11
95.3455
 21
24.5245
  0
LINE
  8
0
 10
95.3455
 20
24.5245
 11
95.273
 21
24.5545
  0
LINE
  8
0
 10
95.273
 20
24.5545
 11
95.2061
 21
24.5955
  0
LINE
  8
0
 10
95.2061
 20
24.5955
 11
95.1465
 21
24.6465
  0
LINE
  8
0
 10
95.1465
 20
24.6465
 11
95.0955
 21
24.7061
  0
LINE
  8
0
 10
95.0955
 20
24.7061
 11
95.0545
 21
24.773
  0
LINE
  8
0
 10
95.0545
 20
24.773
 11
95.0245
 21
24.8455
  0
LINE
  8
0
 10
95.0245
 20
24.8455
 11
95.0061
 21
24.9218
  0
LINE
  8
0
 10
95.0061
 20
24.9218
 11
95
 21
25
  0
LINE
  8
0
 10
95
 20
25
 11
95
 21
38
  0
LINE
  8
0
 10
95
 20
38
 11
95.0061
 21
38.0782
  0
LINE
  8
0
 10
95.0061
 20
38.0782
 11
95.0245
 21
38.1545
  0
LINE
  8
0
 10
95.0245
 20
38.1545
 11
95.0545
 21
38.227
  0
LINE
  8
0
 10
95.0545
 20
38.227
 11
95.0955
 21
38.2939
  0
LINE
  8
0
 10
95.0955
 20
38.2939
 11
95.1465
 21
38.3535
  0
LINE
  8
0
 10
95.1465
 20
38.3535
 11
95.2061
 21
38.4045
  0
LINE
  8
0
 10
95.2061
 20
38.4045
 11
95.273
 21
38.4455
  0
LINE
  8
0
 10
95.273
 20
38.4455
 11
95.3455
 21
38.4755
  0
LINE
  8
0
 10
95.3455
 20
38.4755
 11
95.4218
 21
38.4939
  0
LINE
  8
0
 10
95.4218
 20
38.4939
 11
95.5
 21
38.5
  0
LINE
  8
0
 10
95.5
 20
38.5
 11
108.5
 21
38.5
  0
LINE
  8
0
 10
108.5
 20
38.5
 11
108.578
 21
38.4939
  0
LINE
  8
0
 10
108.578
 20
38.4939
 11
108.655
 21
38.4755
  0
LINE
  8
0
 10
108.655
 20
38.4755
 11
108.727
 21
38.4455
  0
LINE
  8
0
 10
108.727
 20
38.4455
 11
108.794
 21
38.4045
  0
LINE
  8
0
 10
108.794
 20
38.4045
 11
108.854
 21
38.3535
  0
LINE
  8
0
 10
108.854
 20
38.3535
 11
108.905
 21
38.2939
  0
LINE
  8
0
 10
108.905
 20
38.2939
 11
108.946
 21
38.227
  0
LINE
  8
0
 10
108.946
 20
38.227
 11
108.976
 21
38.1545
  0
LINE
  8
0
 10
108.976
 20
38.1545
 11
108.994
 21
38.0782
  0
LINE
  8
0
 10
108.994
 20
38.0782
 11
109
 21
38
  0
LINE
  8
0
 10
109
 20
38
 11
109
 21
25
  0
LINE
  8
0
 10
109
 20
25
 11
108.994
 21
24.9218
  0
LINE
  8
0
 10
108.994
 20
24.9218
 11
108.976
 21
24.8455
  0
LINE
  8
0
 10
108.976
 20
24.8455
 11
108.946
 21
24.773
  0
LINE
  8
0
 10
108.946
 20
24.773
 11
108.905
 21
24.7061
  0
LINE
  8
0
 10
108.905
 20
24.7061
 11
108.854
 21
24.6465
  0
LINE
  8
0
 10
108.854
 20
24.6465
 11
108.794
 21
24.5955
  0
LINE
  8
0
 10
108.794
 20
24.5955
 11
108.727
 21
24.5545
  0
LINE
  8
0
 10
108.727
 20
24.5545
 11
108.655
 21
24.5245
  0
LINE
  8
0
 10
108.655
 20
24.5245
 11
108.578
 21
24.5061
  0
LINE
  8
0
 10
108.578
 20
24.5061
 11
108.5
 21
24.5
  0
LINE
  8
0
 10
108.5
 20
24.5
 11
95.5
 21
24.5
  0
LINE
  8
0
 10
145.5
 20
15.5
 11
145.422
 21
15.5061
  0
LINE
  8
0
 10
145.422
 20
15.5061
 11
145.345
 21
15.5245
  0
LINE
  8
0
 10
145.345
 20
15.5245
 11
145.273
 21
15.5545
  0
LINE
  8
0
 10
145.273
 20
15.5545
 11
145.206
 21
15.5955
  0
LINE
  8
0
 10
145.206
 20
15.5955
 11
145.146
 21
15.6465
  0
LINE
  8
0
 10
145.146
 20
15.6465
 11
145.095
 21
15.7061
  0
LINE
  8
0
 10
145.095
 20
15.7061
 11
145.054
 21
15.773
  0
LINE
  8
0
 10
145.054
 20
15.773
 11
145.024
 21
15.8455
  0
LINE
  8
0
 10
145.024
 20
15.8455
 11
145.006
 21
15.9218
  0
LINE
  8
0
 10
145.006
 20
15.9218
 11
145
 21
16
  0
LINE
  8
0
 10
145
 20
16
 11
145
 21
29
  0
LINE
  8
0
 10
145
 20
29
 11
145.006
 21
29.0782
  0
LINE
  8
0
 10
145.006
 20
29.0782
 11
145.024
 21
29.1545
  0
LINE
  8
0
 10
145.024
 20
29.1545
 11
145.054
 21
29.227
  0
LINE
  8
0
 10
145.054
 20
29.227
 11
145.095
 21
29.2939
  0
LINE
  8
0
 10
145.095
 20
29.2939
 11
145.146
 21
29.3535
  0
LINE
  8
0
 10
145.146
 20
29.3535
 11
145.206
 21
29.4045
  0
LINE
  8
0
 10
145.206
 20
29.4045
 11
145.273
 21
29.4455
  0
LINE
  8
0
 10
145.273
 20
29.4455
 11
145.345
 21
29.4755
  0
LINE
  8
0
 10
145.345
 20
29.4755
 11
145.422
 21
29.4939
  0
LINE
  8
0
 10
145.422
 20
29.4939
 11
145.5
 21
29.5
  0
LINE
  8
0
 10
145.5
 20
29.5
 11
158.5
 21
29.5
  0
LINE
  8
0
 10
158.5
 20
29.5
 11
158.578
 21
29.4939
  0
LINE
  8
0
 10
158.578
 20
29.4939
 11
158.655
 21
29.4755
  0
LINE
  8
0
 10
158.655
 20
29.4755
 11
158.727
 21
29.4455
  0
LINE
  8
0
 10
158.727
 20
29.4455
 11
158.794
 21
29.4045
  0
LINE
  8
0
 10
158.794
 20
29.4045
 11
158.854
 21
29.3535
  0
LINE
  8
0
 10
158.854
 20
29.3535
 11
158.905
 21
29.2939
  0
LINE
  8
0
 10
158.905
 20
29.2939
 11
158.946
 21
29.227
  0
LINE
  8
0
 10
158.946
 20
29.227
 11
158.976
 21
29.1545
  0
LINE
  8
0
 10
158.976
 20
29.1545
 11
158.994
 21
29.0782
  0
LINE
  8
0
 10
158.994
 20
29.0782
 11
159
 21
29
  0
LINE
  8
0
 10
159
 20
29
 11
159
 21
16
  0
LINE
  8
0
 10
159
 20
16
 11
158.994
 21
15.9218
  0
LINE
  8
0
 10
158.994
 20
15.9218
 11
158.976
 21
15.8455
  0
LINE
  8
0
 10
158.976
 20
15.8455
 11
158.946
 21
15.773
  0
LINE
  8
0
 10
158.946
 20
15.773
 11
158.905
 21
15.7061
  0
LINE
  8
0
 10
158.905
 20
15.7061
 11
158.854
 21
15.6465
  0
LINE
  8
0
 10
158.854
 20
15.6465
 11
158.794
 21
15.5955
  0
LINE
  8
0
 10
158.794
 20
15.5955
 11
158.727
 21
15.5545
  0
LINE
  8
0
 10
158.727
 20
15.5545
 11
158.655
 21
15.5245
  0
LINE
  8
0
 10
158.655
 20
15.5245
 11
158.578
 21
15.5061
  0
LINE
  8
0
 10
158.578
 20
15.5061
 11
158.5
 21
15.5
  0
LINE
  8
0
 10
158.5
 20
15.5
 11
145.5
 21
15.5
  0
LINE
  8
0
 10
185.5
 20
15.5
 11
185.422
 21
15.5061
  0
LINE
  8
0
 10
185.422
 20
15.5061
 11
185.345
 21
15.5245
  0
LINE
  8
0
 10
185.345
 20
15.5245
 11
185.273
 21
15.5545
  0
LINE
  8
0
 10
185.273
 20
15.5545
 11
185.206
 21
15.5955
  0
LINE
  8
0
 10
185.206
 20
15.5955
 11
185.146
 21
15.6465
  0
LINE
  8
0
 10
185.146
 20
15.6465
 11
185.095
 21
15.7061
  0
LINE
  8
0
 10
185.095
 20
15.7061
 11
185.054
 21
15.773
  0
LINE
  8
0
 10
185.054
 20
15.773
 11
185.024
 21
15.8455
  0
LINE
  8
0
 10
185.024
 20
15.8455
 11
185.006
 21
15.9218
  0
LINE
  8
0
 10
185.006
 20
15.9218
 11
185
 21
16
  0
LINE
  8
0
 10
185
 20
16
 11
185
 21
29
  0
LINE
  8
0
 10
185
 20
29
 11
185.006
 21
29.0782
  0
LINE
  8
0
 10
185.006
 20
29.0782
 11
185.024
 21
29.1545
  0
LINE
  8
0
 10
185.024
 20
29.1545
 11
185.054
 21
29.227
  0
LINE
  8
0
 10
185.054
 20
29.227
 11
185.095
 21
29.2939
  0
LINE
  8
0
 10
185.095
 20
29.2939
 11
185.146
 21
29.3535
  0
LINE
  8
0
 10
185.146
 20
29.3535
 11
185.206
 21
29.4045
  0
LINE
  8
0
 10
185.206
 20
29.4045
 11
185.273
 21
29.4455
  0
LINE
  8
0
 10
185.273
 20
29.4455
 11
185.345
 21
29.4755
  0
LINE
  8
0
 10
185.345
 20
29.4755
 11
185.422
 21
29.4939
  0
LINE
  8
0
 10
185.422
 20
29.4939
 11
185.5
 21
29.5
  0
LINE
  8
0
 10
185.5
 20
29.5
 11
198.5
 21
29.5
  0
LINE
  8
0
 10
198.5
 20
29.5
 11
198.578
 21
29.4939
  0
LINE
  8
0
 10
198.578
 20
29.4939
 11
198.655
 21
29.4755
  0
LINE
  8
0
 10
198.655
 20
29.4755
 11
198.727
 21
29.4455
  0
LINE
  8
0
 10
198.727
 20
29.4455
 11
198.794
 21
29.4045
  0
LINE
  8
0
 10
198.794
 20
29.4045
 11
198.854
 21
29.3535
  0
LINE
  8
0
 10
198.854
 20
29.3535
 11
198.905
 21
29.2939
  0
LINE
  8
0
 10
198.905
 20
29.2939
 11
198.946
 21
29.227
  0
LINE
  8
0
 10
198.946
 20
29.227
 11
198.976
 21
29.1545
  0
LINE
  8
0
 10
198.976
 20
29.1545
 11
198.994
 21
29.0782
  0
LINE
  8
0
 10
198.994
 20
29.0782
 11
199
 21
29
  0
LINE
  8
0
 10
199
 20
29
 11
199
 21
16
  0
LINE
  8
0
 10
199
 20
16
 11
198.994
 21
15.9218
  0
LINE
  8
0
 10
198.994
 20
15.9218
 11
198.976
 21
15.8455
  0
LINE
  8
0
 10
198.976
 20
15.8455
 11
198.946
 21
15.773
  0
LINE
  8
0
 10
198.946
 20
15.773
 11
198.905
 21
15.7061
  0
LINE
  8
0
 10
198.905
 20
15.7061
 11
198.854
 21
15.6465
  0
LINE
  8
0
 10
198.854
 20
15.6465
 11
198.794
 21
15.5955
  0
LINE
  8
0
 10
198.794
 20
15.5955
 11
198.727
 21
15.5545
  0
LINE
  8
0
 10
198.727
 20
15.5545
 11
198.655
 21
15.5245
  0
LINE
  8
0
 10
198.655
 20
15.5245
 11
198.578
 21
15.5061
  0
LINE
  8
0
 10
198.578
 20
15.5061
 11
198.5
 21
15.5
  0
LINE
  8
0
 10
198.5
 20
15.5
 11
185.5
 21
15.5
  0
LINE
  8
0
 10
165.5
 20
15.5
 11
165.422
 21
15.5061
  0
LINE
  8
0
 10
165.422
 20
15.5061
 11
165.345
 21
15.5245
  0
LINE
  8
0
 10
165.345
 20
15.5245
 11
165.273
 21
15.5545
  0
LINE
  8
0
 10
165.273
 20
15.5545
 11
165.206
 21
15.5955
  0
LINE
  8
0
 10
165.206
 20
15.5955
 11
165.146
 21
15.6465
  0
LINE
  8
0
 10
165.146
 20
15.6465
 11
165.095
 21
15.7061
  0
LINE
  8
0
 10
165.095
 20
15.7061
 11
165.054
 21
15.773
  0
LINE
  8
0
 10
165.054
 20
15.773
 11
165.024
 21
15.8455
  0
LINE
  8
0
 10
165.024
 20
15.8455
 11
165.006
 21
15.9218
  0
LINE
  8
0
 10
165.006
 20
15.9218
 11
165
 21
16
  0
LINE
  8
0
 10
165
 20
16
 11
165
 21
29
  0
LINE
  8
0
 10
165
 20
29
 11
165.006
 21
29.0782
  0
LINE
  8
0
 10
165.006
 20
29.0782
 11
165.024
 21
29.1545
  0
LINE
  8
0
 10
165.024
 20
29.1545
 11
165.054
 21
29.227
  0
LINE
  8
0
 10
165.054
 20
29.227
 11
165.095
 21
29.2939
  0
LINE
  8
0
 10
165.095
 20
29.2939
 11
165.146
 21
29.3535
  0
LINE
  8
0
 10
165.146
 20
29.3535
 11
165.206
 21
29.4045
  0
LINE
  8
0
 10
165.206
 20
29.4045
 11
165.273
 21
29.4455
  0
LINE
  8
0
 10
165.273
 20
29.4455
 11
165.345
 21
29.4755
  0
LINE
  8
0
 10
165.345
 20
29.4755
 11
165.422
 21
29.4939
  0
LINE
  8
0
 10
165.422
 20
29.4939
 11
165.5
 21
29.5
  0
LINE
  8
0
 10
165.5
 20
29.5
 11
178.5
 21
29.5
  0
LINE
  8
0
 10
178.5
 20
29.5
 11
178.578
 21
29.4939
  0
LINE
  8
0
 10
178.578
 20
29.4939
 11
178.655
 21
29.4755
  0
LINE
  8
0
 10
178.655
 20
29.4755
 11
178.727
 21
29.4455
  0
LINE
  8
0
 10
178.727
 20
29.4455
 11
178.794
 21
29.4045
  0
LINE
  8
0
 10
178.794
 20
29.4045
 11
178.854
 21
29.3535
  0
LINE
  8
0
 10
178.854
 20
29.3535
 11
178.905
 21
29.2939
  0
LINE
  8
0
 10
178.905
 20
29.2939
 11
178.946
 21
29.227
  0
LINE
  8
0
 10
178.946
 20
29.227
 11
178.976
 21
29.1545
  0
LINE
  8
0
 10
178.976
 20
29.1545
 11
178.994
 21
29.0782
  0
LINE
  8
0
 10
178.994
 20
29.0782
 11
179
 21
29
  0
LINE
  8
0
 10
179
 20
29
 11
179
 21
16
  0
LINE
  8
0
 10
179
 20
16
 11
178.994
 21
15.9218
  0
LINE
  8
0
 10
178.994
 20
15.9218
 11
178.976
 21
15.8455
  0
LINE
  8
0
 10
178.976
 20
15.8455
 11
178.946
 21
15.773
  0
LINE
  8
0
 10
178.946
 20
15.773
 11
178.905
 21
15.7061
  0
LINE
  8
0
 10
178.905
 20
15.7061
 11
178.854
 21
15.6465
  0
LINE
  8
0
 10
178.854
 20
15.6465
 11
178.794
 21
15.5955
  0
LINE
  8
0
 10
178.794
 20
15.5955
 11
178.727
 21
15.5545
  0
LINE
  8
0
 10
178.727
 20
15.5545
 11
178.655
 21
15.5245
  0
LINE
  8
0
 10
178.655
 20
15.5245
 11
178.578
 21
15.5061
  0
LINE
  8
0
 10
178.578
 20
15.5061
 11
178.5
 21
15.5
  0
LINE
  8
0
 10
178.5
 20
15.5
 11
165.5
 21
15.5
  0
LINE
  8
0
 10
77.5
 20
15.5
 11
77.4218
 21
15.5061
  0
LINE
  8
0
 10
77.4218
 20
15.5061
 11
77.3455
 21
15.5245
  0
LINE
  8
0
 10
77.3455
 20
15.5245
 11
77.273
 21
15.5545
  0
LINE
  8
0
 10
77.273
 20
15.5545
 11
77.2061
 21
15.5955
  0
LINE
  8
0
 10
77.2061
 20
15.5955
 11
77.1465
 21
15.6465
  0
LINE
  8
0
 10
77.1465
 20
15.6465
 11
77.0955
 21
15.7061
  0
LINE
  8
0
 10
77.0955
 20
15.7061
 11
77.0545
 21
15.773
  0
LINE
  8
0
 10
77.0545
 20
15.773
 11
77.0245
 21
15.8455
  0
LINE
  8
0
 10
77.0245
 20
15.8455
 11
77.0061
 21
15.9218
  0
LINE
  8
0
 10
77.0061
 20
15.9218
 11
77
 21
16
  0
LINE
  8
0
 10
77
 20
16
 11
77
 21
29
  0
LINE
  8
0
 10
77
 20
29
 11
77.0061
 21
29.0782
  0
LINE
  8
0
 10
77.0061
 20
29.0782
 11
77.0245
 21
29.1545
  0
LINE
  8
0
 10
77.0245
 20
29.1545
 11
77.0545
 21
29.227
  0
LINE
  8
0
 10
77.0545
 20
29.227
 11
77.0955
 21
29.2939
  0
LINE
  8
0
 10
77.0955
 20
29.2939
 11
77.1465
 21
29.3535
  0
LINE
  8
0
 10
77.1465
 20
29.3535
 11
77.2061
 21
29.4045
  0
LINE
  8
0
 10
77.2061
 20
29.4045
 11
77.273
 21
29.4455
  0
LINE
  8
0
 10
77.273
 20
29.4455
 11
77.3455
 21
29.4755
  0
LINE
  8
0
 10
77.3455
 20
29.4755
 11
77.4218
 21
29.4939
  0
LINE
  8
0
 10
77.4218
 20
29.4939
 11
77.5
 21
29.5
  0
LINE
  8
0
 10
77.5
 20
29.5
 11
90.5
 21
29.5
  0
LINE
  8
0
 10
90.5
 20
29.5
 11
90.5782
 21
29.4939
  0
LINE
  8
0
 10
90.5782
 20
29.4939
 11
90.6545
 21
29.4755
  0
LINE
  8
0
 10
90.6545
 20
29.4755
 11
90.727
 21
29.4455
  0
LINE
  8
0
 10
90.727
 20
29.4455
 11
90.7939
 21
29.4045
  0
LINE
  8
0
 10
90.7939
 20
29.4045
 11
90.8535
 21
29.3535
  0
LINE
  8
0
 10
90.8535
 20
29.3535
 11
90.9045
 21
29.2939
  0
LINE
  8
0
 10
90.9045
 20
29.2939
 11
90.9455
 21
29.227
  0
LINE
  8
0
 10
90.9455
 20
29.227
 11
90.9755
 21
29.1545
  0
LINE
  8
0
 10
90.9755
 20
29.1545
 11
90.9939
 21
29.0782
  0
LINE
  8
0
 10
90.9939
 20
29.0782
 11
91
 21
29
  0
LINE
  8
0
 10
91
 20
29
 11
91
 21
16
  0
LINE
  8
0
 10
91
 20
16
 11
90.9939
 21
15.9218
  0
LINE
  8
0
 10
90.9939
 20
15.9218
 11
90.9755
 21
15.8455
  0
LINE
  8
0
 10
90.9755
 20
15.8455
 11
90.9455
 21
15.773
  0
LINE
  8
0
 10
90.9455
 20
15.773
 11
90.9045
 21
15.7061
  0
LINE
  8
0
 10
90.9045
 20
15.7061
 11
90.8535
 21
15.6465
  0
LINE
  8
0
 10
90.8535
 20
15.6465
 11
90.7939
 21
15.5955
  0
LINE
  8
0
 10
90.7939
 20
15.5955
 11
90.727
 21
15.5545
  0
LINE
  8
0
 10
90.727
 20
15.5545
 11
90.6545
 21
15.5245
  0
LINE
  8
0
 10
90.6545
 20
15.5245
 11
90.5782
 21
15.5061
  0
LINE
  8
0
 10
90.5782
 20
15.5061
 11
90.5
 21
15.5
  0
LINE
  8
0
 10
90.5
 20
15.5
 11
77.5
 21
15.5
  0
LINE
  8
0
 10
57.5
 20
15.5
 11
57.4218
 21
15.5061
  0
LINE
  8
0
 10
57.4218
 20
15.5061
 11
57.3455
 21
15.5245
  0
LINE
  8
0
 10
57.3455
 20
15.5245
 11
57.273
 21
15.5545
  0
LINE
  8
0
 10
57.273
 20
15.5545
 11
57.2061
 21
15.5955
  0
LINE
  8
0
 10
57.2061
 20
15.5955
 11
57.1465
 21
15.6465
  0
LINE
  8
0
 10
57.1465
 20
15.6465
 11
57.0955
 21
15.7061
  0
LINE
  8
0
 10
57.0955
 20
15.7061
 11
57.0545
 21
15.773
  0
LINE
  8
0
 10
57.0545
 20
15.773
 11
57.0245
 21
15.8455
  0
LINE
  8
0
 10
57.0245
 20
15.8455
 11
57.0061
 21
15.9218
  0
LINE
  8
0
 10
57.0061
 20
15.9218
 11
57
 21
16
  0
LINE
  8
0
 10
57
 20
16
 11
57
 21
29
  0
LINE
  8
0
 10
57
 20
29
 11
57.0061
 21
29.0782
  0
LINE
  8
0
 10
57.0061
 20
29.0782
 11
57.0245
 21
29.1545
  0
LINE
  8
0
 10
57.0245
 20
29.1545
 11
57.0545
 21
29.227
  0
LINE
  8
0
 10
57.0545
 20
29.227
 11
57.0955
 21
29.2939
  0
LINE
  8
0
 10
57.0955
 20
29.2939
 11
57.1465
 21
29.3535
  0
LINE
  8
0
 10
57.1465
 20
29.3535
 11
57.2061
 21
29.4045
  0
LINE
  8
0
 10
57.2061
 20
29.4045
 11
57.273
 21
29.4455
  0
LINE
  8
0
 10
57.273
 20
29.4455
 11
57.3455
 21
29.4755
  0
LINE
  8
0
 10
57.3455
 20
29.4755
 11
57.4218
 21
29.4939
  0
LINE
  8
0
 10
57.4218
 20
29.4939
 11
57.5
 21
29.5
  0
LINE
  8
0
 10
57.5
 20
29.5
 11
70.5
 21
29.5
  0
LINE
  8
0
 10
70.5
 20
29.5
 11
70.5782
 21
29.4939
  0
LINE
  8
0
 10
70.5782
 20
29.4939
 11
70.6545
 21
29.4755
  0
LINE
  8
0
 10
70.6545
 20
29.4755
 11
70.727
 21
29.4455
  0
LINE
  8
0
 10
70.727
 20
29.4455
 11
70.7939
 21
29.4045
  0
LINE
  8
0
 10
70.7939
 20
29.4045
 11
70.8535
 21
29.3535
  0
LINE
  8
0
 10
70.8535
 20
29.3535
 11
70.9045
 21
29.2939
  0
LINE
  8
0
 10
70.9045
 20
29.2939
 11
70.9455
 21
29.227
  0
LINE
  8
0
 10
70.9455
 20
29.227
 11
70.9755
 21
29.1545
  0
LINE
  8
0
 10
70.9755
 20
29.1545
 11
70.9939
 21
29.0782
  0
LINE
  8
0
 10
70.9939
 20
29.0782
 11
71
 21
29
  0
LINE
  8
0
 10
71
 20
29
 11
71
 21
16
  0
LINE
  8
0
 10
71
 20
16
 11
70.9939
 21
15.9218
  0
LINE
  8
0
 10
70.9939
 20
15.9218
 11
70.9755
 21
15.8455
  0
LINE
  8
0
 10
70.9755
 20
15.8455
 11
70.9455
 21
15.773
  0
LINE
  8
0
 10
70.9455
 20
15.773
 11
70.9045
 21
15.7061
  0
LINE
  8
0
 10
70.9045
 20
15.7061
 11
70.8535
 21
15.6465
  0
LINE
  8
0
 10
70.8535
 20
15.6465
 11
70.7939
 21
15.5955
  0
LINE
  8
0
 10
70.7939
 20
15.5955
 11
70.727
 21
15.5545
  0
LINE
  8
0
 10
70.727
 20
15.5545
 11
70.6545
 21
15.5245
  0
LINE
  8
0
 10
70.6545
 20
15.5245
 11
70.5782
 21
15.5061
  0
LINE
  8
0
 10
70.5782
 20
15.5061
 11
70.5
 21
15.5
  0
LINE
  8
0
 10
70.5
 20
15.5
 11
57.5
 21
15.5
  0
LINE
  8
0
 10
37.5
 20
15.5
 11
37.4218
 21
15.5061
  0
LINE
  8
0
 10
37.4218
 20
15.5061
 11
37.3455
 21
15.5245
  0
LINE
  8
0
 10
37.3455
 20
15.5245
 11
37.273
 21
15.5545
  0
LINE
  8
0
 10
37.273
 20
15.5545
 11
37.2061
 21
15.5955
  0
LINE
  8
0
 10
37.2061
 20
15.5955
 11
37.1465
 21
15.6465
  0
LINE
  8
0
 10
37.1465
 20
15.6465
 11
37.0955
 21
15.7061
  0
LINE
  8
0
 10
37.0955
 20
15.7061
 11
37.0545
 21
15.773
  0
LINE
  8
0
 10
37.0545
 20
15.773
 11
37.0245
 21
15.8455
  0
LINE
  8
0
 10
37.0245
 20
15.8455
 11
37.0061
 21
15.9218
  0
LINE
  8
0
 10
37.0061
 20
15.9218
 11
37
 21
16
  0
LINE
  8
0
 10
37
 20
16
 11
37
 21
29
  0
LINE
  8
0
 10
37
 20
29
 11
37.0061
 21
29.0782
  0
LINE
  8
0
 10
37.0061
 20
29.0782
 11
37.0245
 21
29.1545
  0
LINE
  8
0
 10
37.0245
 20
29.1545
 11
37.0545
 21
29.227
  0
LINE
  8
0
 10
37.0545
 20
29.227
 11
37.0955
 21
29.2939
  0
LINE
  8
0
 10
37.0955
 20
29.2939
 11
37.1465
 21
29.3535
  0
LINE
  8
0
 10
37.1465
 20
29.3535
 11
37.2061
 21
29.4045
  0
LINE
  8
0
 10
37.2061
 20
29.4045
 11
37.273
 21
29.4455
  0
LINE
  8
0
 10
37.273
 20
29.4455
 11
37.3455
 21
29.4755
  0
LINE
  8
0
 10
37.3455
 20
29.4755
 11
37.4218
 21
29.4939
  0
LINE
  8
0
 10
37.4218
 20
29.4939
 11
37.5
 21
29.5
  0
LINE
  8
0
 10
37.5
 20
29.5
 11
50.5
 21
29.5
  0
LINE
  8
0
 10
50.5
 20
29.5
 11
50.5782
 21
29.4939
  0
LINE
  8
0
 10
50.5782
 20
29.4939
 11
50.6545
 21
29.4755
  0
LINE
  8
0
 10
50.6545
 20
29.4755
 11
50.727
 21
29.4455
  0
LINE
  8
0
 10
50.727
 20
29.4455
 11
50.7939
 21
29.4045
  0
LINE
  8
0
 10
50.7939
 20
29.4045
 11
50.8535
 21
29.3535
  0
LINE
  8
0
 10
50.8535
 20
29.3535
 11
50.9045
 21
29.2939
  0
LINE
  8
0
 10
50.9045
 20
29.2939
 11
50.9455
 21
29.227
  0
LINE
  8
0
 10
50.9455
 20
29.227
 11
50.9755
 21
29.1545
  0
LINE
  8
0
 10
50.9755
 20
29.1545
 11
50.9939
 21
29.0782
  0
LINE
  8
0
 10
50.9939
 20
29.0782
 11
51
 21
29
  0
LINE
  8
0
 10
51
 20
29
 11
51
 21
16
  0
LINE
  8
0
 10
51
 20
16
 11
50.9939
 21
15.9218
  0
LINE
  8
0
 10
50.9939
 20
15.9218
 11
50.9755
 21
15.8455
  0
LINE
  8
0
 10
50.9755
 20
15.8455
 11
50.9455
 21
15.773
  0
LINE
  8
0
 10
50.9455
 20
15.773
 11
50.9045
 21
15.7061
  0
LINE
  8
0
 10
50.9045
 20
15.7061
 11
50.8535
 21
15.6465
  0
LINE
  8
0
 10
50.8535
 20
15.6465
 11
50.7939
 21
15.5955
  0
LINE
  8
0
 10
50.7939
 20
15.5955
 11
50.727
 21
15.5545
  0
LINE
  8
0
 10
50.727
 20
15.5545
 11
50.6545
 21
15.5245
  0
LINE
  8
0
 10
50.6545
 20
15.5245
 11
50.5782
 21
15.5061
  0
LINE
  8
0
 10
50.5782
 20
15.5061
 11
50.5
 21
15.5
  0
LINE
  8
0
 10
50.5
 20
15.5
 11
37.5
 21
15.5
  0
LINE
  8
0
 10
203.5
 20
6.5
 11
203.422
 21
6.50615
  0
LINE
  8
0
 10
203.422
 20
6.50615
 11
203.345
 21
6.52448
  0
LINE
  8
0
 10
203.345
 20
6.52448
 11
203.273
 21
6.55449
  0
LINE
  8
0
 10
203.273
 20
6.55449
 11
203.206
 21
6.59549
  0
LINE
  8
0
 10
203.206
 20
6.59549
 11
203.146
 21
6.64645
  0
LINE
  8
0
 10
203.146
 20
6.64645
 11
203.095
 21
6.7061
  0
LINE
  8
0
 10
203.095
 20
6.7061
 11
203.054
 21
6.77301
  0
LINE
  8
0
 10
203.054
 20
6.77301
 11
203.024
 21
6.84549
  0
LINE
  8
0
 10
203.024
 20
6.84549
 11
203.006
 21
6.92178
  0
LINE
  8
0
 10
203.006
 20
6.92178
 11
203
 21
7
  0
LINE
  8
0
 10
203
 20
7
 11
203
 21
20
  0
LINE
  8
0
 10
203
 20
20
 11
203.006
 21
20.0782
  0
LINE
  8
0
 10
203.006
 20
20.0782
 11
203.024
 21
20.1545
  0
LINE
  8
0
 10
203.024
 20
20.1545
 11
203.054
 21
20.227
  0
LINE
  8
0
 10
203.054
 20
20.227
 11
203.095
 21
20.2939
  0
LINE
  8
0
 10
203.095
 20
20.2939
 11
203.146
 21
20.3535
  0
LINE
  8
0
 10
203.146
 20
20.3535
 11
203.206
 21
20.4045
  0
LINE
  8
0
 10
203.206
 20
20.4045
 11
203.273
 21
20.4455
  0
LINE
  8
0
 10
203.273
 20
20.4455
 11
203.345
 21
20.4755
  0
LINE
  8
0
 10
203.345
 20
20.4755
 11
203.422
 21
20.4939
  0
LINE
  8
0
 10
203.422
 20
20.4939
 11
203.5
 21
20.5
  0
LINE
  8
0
 10
203.5
 20
20.5
 11
216.5
 21
20.5
  0
LINE
  8
0
 10
216.5
 20
20.5
 11
216.578
 21
20.4939
  0
LINE
  8
0
 10
216.578
 20
20.4939
 11
216.655
 21
20.4755
  0
LINE
  8
0
 10
216.655
 20
20.4755
 11
216.727
 21
20.4455
  0
LINE
  8
0
 10
216.727
 20
20.4455
 11
216.794
 21
20.4045
  0
LINE
  8
0
 10
216.794
 20
20.4045
 11
216.854
 21
20.3535
  0
LINE
  8
0
 10
216.854
 20
20.3535
 11
216.905
 21
20.2939
  0
LINE
  8
0
 10
216.905
 20
20.2939
 11
216.946
 21
20.227
  0
LINE
  8
0
 10
216.946
 20
20.227
 11
216.976
 21
20.1545
  0
LINE
  8
0
 10
216.976
 20
20.1545
 11
216.994
 21
20.0782
  0
LINE
  8
0
 10
216.994
 20
20.0782
 11
217
 21
20
  0
LINE
  8
0
 10
217
 20
20
 11
217
 21
7
  0
LINE
  8
0
 10
217
 20
7
 11
216.994
 21
6.92178
  0
LINE
  8
0
 10
216.994
 20
6.92178
 11
216.976
 21
6.84549
  0
LINE
  8
0
 10
216.976
 20
6.84549
 11
216.946
 21
6.77301
  0
LINE
  8
0
 10
216.946
 20
6.77301
 11
216.905
 21
6.7061
  0
LINE
  8
0
 10
216.905
 20
6.7061
 11
216.854
 21
6.64645
  0
LINE
  8
0
 10
216.854
 20
6.64645
 11
216.794
 21
6.59549
  0
LINE
  8
0
 10
216.794
 20
6.59549
 11
216.727
 21
6.55449
  0
LINE
  8
0
 10
216.727
 20
6.55449
 11
216.655
 21
6.52448
  0
LINE
  8
0
 10
216.655
 20
6.52448
 11
216.578
 21
6.50615
  0
LINE
  8
0
 10
216.578
 20
6.50615
 11
216.5
 21
6.5
  0
LINE
  8
0
 10
216.5
 20
6.5
 11
203.5
 21
6.5
  0
LINE
  8
0
 10
221.5
 20
6.5
 11
221.422
 21
6.50615
  0
LINE
  8
0
 10
221.422
 20
6.50615
 11
221.345
 21
6.52448
  0
LINE
  8
0
 10
221.345
 20
6.52448
 11
221.273
 21
6.55449
  0
LINE
  8
0
 10
221.273
 20
6.55449
 11
221.206
 21
6.59549
  0
LINE
  8
0
 10
221.206
 20
6.59549
 11
221.146
 21
6.64645
  0
LINE
  8
0
 10
221.146
 20
6.64645
 11
221.095
 21
6.7061
  0
LINE
  8
0
 10
221.095
 20
6.7061
 11
221.054
 21
6.77301
  0
LINE
  8
0
 10
221.054
 20
6.77301
 11
221.024
 21
6.84549
  0
LINE
  8
0
 10
221.024
 20
6.84549
 11
221.006
 21
6.92178
  0
LINE
  8
0
 10
221.006
 20
6.92178
 11
221
 21
7
  0
LINE
  8
0
 10
221
 20
7
 11
221
 21
20
  0
LINE
  8
0
 10
221
 20
20
 11
221.006
 21
20.0782
  0
LINE
  8
0
 10
221.006
 20
20.0782
 11
221.024
 21
20.1545
  0
LINE
  8
0
 10
221.024
 20
20.1545
 11
221.054
 21
20.227
  0
LINE
  8
0
 10
221.054
 20
20.227
 11
221.095
 21
20.2939
  0
LINE
  8
0
 10
221.095
 20
20.2939
 11
221.146
 21
20.3535
  0
LINE
  8
0
 10
221.146
 20
20.3535
 11
221.206
 21
20.4045
  0
LINE
  8
0
 10
221.206
 20
20.4045
 11
221.273
 21
20.4455
  0
LINE
  8
0
 10
221.273
 20
20.4455
 11
221.345
 21
20.4755
  0
LINE
  8
0
 10
221.345
 20
20.4755
 11
221.422
 21
20.4939
  0
LINE
  8
0
 10
221.422
 20
20.4939
 11
221.5
 21
20.5
  0
LINE
  8
0
 10
221.5
 20
20.5
 11
234.5
 21
20.5
  0
LINE
  8
0
 10
234.5
 20
20.5
 11
234.578
 21
20.4939
  0
LINE
  8
0
 10
234.578
 20
20.4939
 11
234.655
 21
20.4755
  0
LINE
  8
0
 10
234.655
 20
20.4755
 11
234.727
 21
20.4455
  0
LINE
  8
0
 10
234.727
 20
20.4455
 11
234.794
 21
20.4045
  0
LINE
  8
0
 10
234.794
 20
20.4045
 11
234.854
 21
20.3535
  0
LINE
  8
0
 10
234.854
 20
20.3535
 11
234.905
 21
20.2939
  0
LINE
  8
0
 10
234.905
 20
20.2939
 11
234.946
 21
20.227
  0
LINE
  8
0
 10
234.946
 20
20.227
 11
234.976
 21
20.1545
  0
LINE
  8
0
 10
234.976
 20
20.1545
 11
234.994
 21
20.0782
  0
LINE
  8
0
 10
234.994
 20
20.0782
 11
235
 21
20
  0
LINE
  8
0
 10
235
 20
20
 11
235
 21
7
  0
LINE
  8
0
 10
235
 20
7
 11
234.994
 21
6.92178
  0
LINE
  8
0
 10
234.994
 20
6.92178
 11
234.976
 21
6.84549
  0
LINE
  8
0
 10
234.976
 20
6.84549
 11
234.946
 21
6.77301
  0
LINE
  8
0
 10
234.946
 20
6.77301
 11
234.905
 21
6.7061
  0
LINE
  8
0
 10
234.905
 20
6.7061
 11
234.854
 21
6.64645
  0
LINE
  8
0
 10
234.854
 20
6.64645
 11
234.794
 21
6.59549
  0
LINE
  8
0
 10
234.794
 20
6.59549
 11
234.727
 21
6.55449
  0
LINE
  8
0
 10
234.727
 20
6.55449
 11
234.655
 21
6.52448
  0
LINE
  8
0
 10
234.655
 20
6.52448
 11
234.578
 21
6.50615
  0
LINE
  8
0
 10
234.578
 20
6.50615
 11
234.5
 21
6.5
  0
LINE
  8
0
 10
234.5
 20
6.5
 11
221.5
 21
6.5
  0
LINE
  8
0
 10
95.5
 20
6.5
 11
95.4218
 21
6.50615
  0
LINE
  8
0
 10
95.4218
 20
6.50615
 11
95.3455
 21
6.52448
  0
LINE
  8
0
 10
95.3455
 20
6.52448
 11
95.273
 21
6.55449
  0
LINE
  8
0
 10
95.273
 20
6.55449
 11
95.2061
 21
6.59549
  0
LINE
  8
0
 10
95.2061
 20
6.59549
 11
95.1465
 21
6.64645
  0
LINE
  8
0
 10
95.1465
 20
6.64645
 11
95.0955
 21
6.7061
  0
LINE
  8
0
 10
95.0955
 20
6.7061
 11
95.0545
 21
6.77301
  0
LINE
  8
0
 10
95.0545
 20
6.77301
 11
95.0245
 21
6.84549
  0
LINE
  8
0
 10
95.0245
 20
6.84549
 11
95.0061
 21
6.92178
  0
LINE
  8
0
 10
95.0061
 20
6.92178
 11
95
 21
7
  0
LINE
  8
0
 10
95
 20
7
 11
95
 21
20
  0
LINE
  8
0
 10
95
 20
20
 11
95.0061
 21
20.0782
  0
LINE
  8
0
 10
95.0061
 20
20.0782
 11
95.0245
 21
20.1545
  0
LINE
  8
0
 10
95.0245
 20
20.1545
 11
95.0545
 21
20.227
  0
LINE
  8
0
 10
95.0545
 20
20.227
 11
95.0955
 21
20.2939
  0
LINE
  8
0
 10
95.0955
 20
20.2939
 11
95.1465
 21
20.3535
  0
LINE
  8
0
 10
95.1465
 20
20.3535
 11
95.2061
 21
20.4045
  0
LINE
  8
0
 10
95.2061
 20
20.4045
 11
95.273
 21
20.4455
  0
LINE
  8
0
 10
95.273
 20
20.4455
 11
95.3455
 21
20.4755
  0
LINE
  8
0
 10
95.3455
 20
20.4755
 11
95.4218
 21
20.4939
  0
LINE
  8
0
 10
95.4218
 20
20.4939
 11
95.5
 21
20.5
  0
LINE
  8
0
 10
95.5
 20
20.5
 11
108.5
 21
20.5
  0
LINE
  8
0
 10
108.5
 20
20.5
 11
108.578
 21
20.4939
  0
LINE
  8
0
 10
108.578
 20
20.4939
 11
108.655
 21
20.4755
  0
LINE
  8
0
 10
108.655
 20
20.4755
 11
108.727
 21
20.4455
  0
LINE
  8
0
 10
108.727
 20
20.4455
 11
108.794
 21
20.4045
  0
LINE
  8
0
 10
108.794
 20
20.4045
 11
108.854
 21
20.3535
  0
LINE
  8
0
 10
108.854
 20
20.3535
 11
108.905
 21
20.2939
  0
LINE
  8
0
 10
108.905
 20
20.2939
 11
108.946
 21
20.227
  0
LINE
  8
0
 10
108.946
 20
20.227
 11
108.976
 21
20.1545
  0
LINE
  8
0
 10
108.976
 20
20.1545
 11
108.994
 21
20.0782
  0
LINE
  8
0
 10
108.994
 20
20.0782
 11
109
 21
20
  0
LINE
  8
0
 10
109
 20
20
 11
109
 21
7
  0
LINE
  8
0
 10
109
 20
7
 11
108.994
 21
6.92178
  0
LINE
  8
0
 10
108.994
 20
6.92178
 11
108.976
 21
6.84549
  0
LINE
  8
0
 10
108.976
 20
6.84549
 11
108.946
 21
6.77301
  0
LINE
  8
0
 10
108.946
 20
6.77301
 11
108.905
 21
6.7061
  0
LINE
  8
0
 10
108.905
 20
6.7061
 11
108.854
 21
6.64645
  0
LINE
  8
0
 10
108.854
 20
6.64645
 11
108.794
 21
6.59549
  0
LINE
  8
0
 10
108.794
 20
6.59549
 11
108.727
 21
6.55449
  0
LINE
  8
0
 10
108.727
 20
6.55449
 11
108.655
 21
6.52448
  0
LINE
  8
0
 10
108.655
 20
6.52448
 11
108.578
 21
6.50615
  0
LINE
  8
0
 10
108.578
 20
6.50615
 11
108.5
 21
6.5
  0
LINE
  8
0
 10
108.5
 20
6.5
 11
95.5
 21
6.5
  0
LINE
  8
0
 10
31.5732
 20
3.66785
 11
31.3519
 21
3.72096
  0
LINE
  8
0
 10
31.3519
 20
3.72096
 11
31.1417
 21
3.80803
  0
LINE
  8
0
 10
31.1417
 20
3.80803
 11
30.9477
 21
3.92691
  0
LINE
  8
0
 10
30.9477
 20
3.92691
 11
30.7747
 21
4.07469
  0
LINE
  8
0
 10
30.7747
 20
4.07469
 11
30.6269
 21
4.24771
  0
LINE
  8
0
 10
30.6269
 20
4.24771
 11
30.508
 21
4.44171
  0
LINE
  8
0
 10
30.508
 20
4.44171
 11
30.421
 21
4.65192
  0
LINE
  8
0
 10
30.421
 20
4.65192
 11
30.3678
 21
4.87317
  0
LINE
  8
0
 10
30.3678
 20
4.87317
 11
30.35
 21
5.09999
  0
LINE
  8
0
 10
30.35
 20
5.09999
 11
30.3678
 21
5.32683
  0
LINE
  8
0
 10
30.3678
 20
5.32683
 11
30.421
 21
5.54807
  0
LINE
  8
0
 10
30.421
 20
5.54807
 11
30.508
 21
5.75829
  0
LINE
  8
0
 10
30.508
 20
5.75829
 11
30.6269
 21
5.95229
  0
LINE
  8
0
 10
30.6269
 20
5.95229
 11
30.7747
 21
6.12529
  0
LINE
  8
0
 10
30.7747
 20
6.12529
 11
30.9477
 21
6.27307
  0
LINE
  8
0
 10
30.9477
 20
6.27307
 11
31.1417
 21
6.39195
  0
LINE
  8
0
 10
31.1417
 20
6.39195
 11
31.3519
 21
6.47902
  0
LINE
  8
0
 10
31.3519
 20
6.47902
 11
31.5732
 21
6.53214
  0
LINE
  8
0
 10
31.5732
 20
6.53214
 11
31.8
 21
6.54999
  0
LINE
  8
0
 10
31.8
 20
6.54999
 11
32.0268
 21
6.53214
  0
LINE
  8
0
 10
32.0268
 20
6.53214
 11
32.2481
 21
6.47902
  0
LINE
  8
0
 10
32.2481
 20
6.47902
 11
32.4583
 21
6.39195
  0
LINE
  8
0
 10
32.4583
 20
6.39195
 11
32.6523
 21
6.27307
  0
LINE
  8
0
 10
32.6523
 20
6.27307
 11
32.8253
 21
6.12529
  0
LINE
  8
0
 10
32.8253
 20
6.12529
 11
32.9731
 21
5.95229
  0
LINE
  8
0
 10
32.9731
 20
5.95229
 11
33.0919
 21
5.75829
  0
LINE
  8
0
 10
33.0919
 20
5.75829
 11
33.179
 21
5.54807
  0
LINE
  8
0
 10
33.179
 20
5.54807
 11
33.2321
 21
5.32683
  0
LINE
  8
0
 10
33.2321
 20
5.32683
 11
33.25
 21
5.09999
  0
LINE
  8
0
 10
33.25
 20
5.09999
 11
33.2321
 21
4.87317
  0
LINE
  8
0
 10
33.2321
 20
4.87317
 11
33.179
 21
4.65192
  0
LINE
  8
0
 10
33.179
 20
4.65192
 11
33.0919
 21
4.44171
  0
LINE
  8
0
 10
33.0919
 20
4.44171
 11
32.9731
 21
4.24771
  0
LINE
  8
0
 10
32.9731
 20
4.24771
 11
32.8253
 21
4.07469
  0
LINE
  8
0
 10
32.8253
 20
4.07469
 11
32.6523
 21
3.92691
  0
LINE
  8
0
 10
32.6523
 20
3.92691
 11
32.4583
 21
3.80803
  0
LINE
  8
0
 10
32.4583
 20
3.80803
 11
32.2481
 21
3.72096
  0
LINE
  8
0
 10
32.2481
 20
3.72096
 11
32.0268
 21
3.66785
  0
LINE
  8
0
 10
32.0268
 20
3.66785
 11
31.8
 21
3.64999
  0
LINE
  8
0
 10
31.8
 20
3.64999
 11
31.5732
 21
3.66785
  0
LINE
  8
0
 10
115.473
 20
3.66785
 11
115.252
 21
3.72096
  0
LINE
  8
0
 10
115.252
 20
3.72096
 11
115.042
 21
3.80803
  0
LINE
  8
0
 10
115.042
 20
3.80803
 11
114.848
 21
3.92691
  0
LINE
  8
0
 10
114.848
 20
3.92691
 11
114.675
 21
4.07469
  0
LINE
  8
0
 10
114.675
 20
4.07469
 11
114.527
 21
4.24771
  0
LINE
  8
0
 10
114.527
 20
4.24771
 11
114.408
 21
4.44171
  0
LINE
  8
0
 10
114.408
 20
4.44171
 11
114.321
 21
4.65192
  0
LINE
  8
0
 10
114.321
 20
4.65192
 11
114.268
 21
4.87317
  0
LINE
  8
0
 10
114.268
 20
4.87317
 11
114.25
 21
5.09999
  0
LINE
  8
0
 10
114.25
 20
5.09999
 11
114.268
 21
5.32683
  0
LINE
  8
0
 10
114.268
 20
5.32683
 11
114.321
 21
5.54807
  0
LINE
  8
0
 10
114.321
 20
5.54807
 11
114.408
 21
5.75829
  0
LINE
  8
0
 10
114.408
 20
5.75829
 11
114.527
 21
5.95229
  0
LINE
  8
0
 10
114.527
 20
5.95229
 11
114.675
 21
6.12529
  0
LINE
  8
0
 10
114.675
 20
6.12529
 11
114.848
 21
6.27307
  0
LINE
  8
0
 10
114.848
 20
6.27307
 11
115.042
 21
6.39195
  0
LINE
  8
0
 10
115.042
 20
6.39195
 11
115.252
 21
6.47902
  0
LINE
  8
0
 10
115.252
 20
6.47902
 11
115.473
 21
6.53214
  0
LINE
  8
0
 10
115.473
 20
6.53214
 11
115.7
 21
6.54999
  0
LINE
  8
0
 10
115.7
 20
6.54999
 11
115.927
 21
6.53214
  0
LINE
  8
0
 10
115.927
 20
6.53214
 11
116.148
 21
6.47902
  0
LINE
  8
0
 10
116.148
 20
6.47902
 11
116.358
 21
6.39195
  0
LINE
  8
0
 10
116.358
 20
6.39195
 11
116.552
 21
6.27307
  0
LINE
  8
0
 10
116.552
 20
6.27307
 11
116.725
 21
6.12529
  0
LINE
  8
0
 10
116.725
 20
6.12529
 11
116.873
 21
5.95229
  0
LINE
  8
0
 10
116.873
 20
5.95229
 11
116.992
 21
5.75829
  0
LINE
  8
0
 10
116.992
 20
5.75829
 11
117.079
 21
5.54807
  0
LINE
  8
0
 10
117.079
 20
5.54807
 11
117.132
 21
5.32683
  0
LINE
  8
0
 10
117.132
 20
5.32683
 11
117.15
 21
5.09999
  0
LINE
  8
0
 10
117.15
 20
5.09999
 11
117.132
 21
4.87317
  0
LINE
  8
0
 10
117.132
 20
4.87317
 11
117.079
 21
4.65192
  0
LINE
  8
0
 10
117.079
 20
4.65192
 11
116.992
 21
4.44171
  0
LINE
  8
0
 10
116.992
 20
4.44171
 11
116.873
 21
4.24771
  0
LINE
  8
0
 10
116.873
 20
4.24771
 11
116.725
 21
4.07469
  0
LINE
  8
0
 10
116.725
 20
4.07469
 11
116.552
 21
3.92691
  0
LINE
  8
0
 10
116.552
 20
3.92691
 11
116.358
 21
3.80803
  0
LINE
  8
0
 10
116.358
 20
3.80803
 11
116.148
 21
3.72096
  0
LINE
  8
0
 10
116.148
 20
3.72096
 11
115.927
 21
3.66785
  0
LINE
  8
0
 10
115.927
 20
3.66785
 11
115.7
 21
3.64999
  0
LINE
  8
0
 10
115.7
 20
3.64999
 11
115.473
 21
3.66785
  0
LINE
  8
0
 10
139.573
 20
3.66785
 11
139.352
 21
3.72096
  0
LINE
  8
0
 10
139.352
 20
3.72096
 11
139.142
 21
3.80803
  0
LINE
  8
0
 10
139.142
 20
3.80803
 11
138.948
 21
3.92691
  0
LINE
  8
0
 10
138.948
 20
3.92691
 11
138.775
 21
4.07469
  0
LINE
  8
0
 10
138.775
 20
4.07469
 11
138.627
 21
4.24771
  0
LINE
  8
0
 10
138.627
 20
4.24771
 11
138.508
 21
4.44171
  0
LINE
  8
0
 10
138.508
 20
4.44171
 11
138.421
 21
4.65192
  0
LINE
  8
0
 10
138.421
 20
4.65192
 11
138.368
 21
4.87317
  0
LINE
  8
0
 10
138.368
 20
4.87317
 11
138.35
 21
5.09999
  0
LINE
  8
0
 10
138.35
 20
5.09999
 11
138.368
 21
5.32683
  0
LINE
  8
0
 10
138.368
 20
5.32683
 11
138.421
 21
5.54807
  0
LINE
  8
0
 10
138.421
 20
5.54807
 11
138.508
 21
5.75829
  0
LINE
  8
0
 10
138.508
 20
5.75829
 11
138.627
 21
5.95229
  0
LINE
  8
0
 10
138.627
 20
5.95229
 11
138.775
 21
6.12529
  0
LINE
  8
0
 10
138.775
 20
6.12529
 11
138.948
 21
6.27307
  0
LINE
  8
0
 10
138.948
 20
6.27307
 11
139.142
 21
6.39195
  0
LINE
  8
0
 10
139.142
 20
6.39195
 11
139.352
 21
6.47902
  0
LINE
  8
0
 10
139.352
 20
6.47902
 11
139.573
 21
6.53214
  0
LINE
  8
0
 10
139.573
 20
6.53214
 11
139.8
 21
6.54999
  0
LINE
  8
0
 10
139.8
 20
6.54999
 11
140.027
 21
6.53214
  0
LINE
  8
0
 10
140.027
 20
6.53214
 11
140.248
 21
6.47902
  0
LINE
  8
0
 10
140.248
 20
6.47902
 11
140.458
 21
6.39195
  0
LINE
  8
0
 10
140.458
 20
6.39195
 11
140.652
 21
6.27307
  0
LINE
  8
0
 10
140.652
 20
6.27307
 11
140.825
 21
6.12529
  0
LINE
  8
0
 10
140.825
 20
6.12529
 11
140.973
 21
5.95229
  0
LINE
  8
0
 10
140.973
 20
5.95229
 11
141.092
 21
5.75829
  0
LINE
  8
0
 10
141.092
 20
5.75829
 11
141.179
 21
5.54807
  0
LINE
  8
0
 10
141.179
 20
5.54807
 11
141.232
 21
5.32683
  0
LINE
  8
0
 10
141.232
 20
5.32683
 11
141.25
 21
5.09999
  0
LINE
  8
0
 10
141.25
 20
5.09999
 11
141.232
 21
4.87317
  0
LINE
  8
0
 10
141.232
 20
4.87317
 11
141.179
 21
4.65192
  0
LINE
  8
0
 10
141.179
 20
4.65192
 11
141.092
 21
4.44171
  0
LINE
  8
0
 10
141.092
 20
4.44171
 11
140.973
 21
4.24771
  0
LINE
  8
0
 10
140.973
 20
4.24771
 11
140.825
 21
4.07469
  0
LINE
  8
0
 10
140.825
 20
4.07469
 11
140.652
 21
3.92691
  0
LINE
  8
0
 10
140.652
 20
3.92691
 11
140.458
 21
3.80803
  0
LINE
  8
0
 10
140.458
 20
3.80803
 11
140.248
 21
3.72096
  0
LINE
  8
0
 10
140.248
 20
3.72096
 11
140.027
 21
3.66785
  0
LINE
  8
0
 10
140.027
 20
3.66785
 11
139.8
 21
3.64999
  0
LINE
  8
0
 10
139.8
 20
3.64999
 11
139.573
 21
3.66785
  0
LINE
  8
0
 10
241.473
 20
3.66785
 11
241.252
 21
3.72096
  0
LINE
  8
0
 10
241.252
 20
3.72096
 11
241.042
 21
3.80803
  0
LINE
  8
0
 10
241.042
 20
3.80803
 11
240.848
 21
3.92691
  0
LINE
  8
0
 10
240.848
 20
3.92691
 11
240.675
 21
4.07469
  0
LINE
  8
0
 10
240.675
 20
4.07469
 11
240.527
 21
4.24771
  0
LINE
  8
0
 10
240.527
 20
4.24771
 11
240.408
 21
4.44171
  0
LINE
  8
0
 10
240.408
 20
4.44171
 11
240.321
 21
4.65192
  0
LINE
  8
0
 10
240.321
 20
4.65192
 11
240.268
 21
4.87317
  0
LINE
  8
0
 10
240.268
 20
4.87317
 11
240.25
 21
5.09999
  0
LINE
  8
0
 10
240.25
 20
5.09999
 11
240.268
 21
5.32683
  0
LINE
  8
0
 10
240.268
 20
5.32683
 11
240.321
 21
5.54807
  0
LINE
  8
0
 10
240.321
 20
5.54807
 11
240.408
 21
5.75829
  0
LINE
  8
0
 10
240.408
 20
5.75829
 11
240.527
 21
5.95229
  0
LINE
  8
0
 10
240.527
 20
5.95229
 11
240.675
 21
6.12529
  0
LINE
  8
0
 10
240.675
 20
6.12529
 11
240.848
 21
6.27307
  0
LINE
  8
0
 10
240.848
 20
6.27307
 11
241.042
 21
6.39195
  0
LINE
  8
0
 10
241.042
 20
6.39195
 11
241.252
 21
6.47902
  0
LINE
  8
0
 10
241.252
 20
6.47902
 11
241.473
 21
6.53214
  0
LINE
  8
0
 10
241.473
 20
6.53214
 11
241.7
 21
6.54999
  0
LINE
  8
0
 10
241.7
 20
6.54999
 11
241.927
 21
6.53214
  0
LINE
  8
0
 10
241.927
 20
6.53214
 11
242.148
 21
6.47902
  0
LINE
  8
0
 10
242.148
 20
6.47902
 11
242.358
 21
6.39195
  0
LINE
  8
0
 10
242.358
 20
6.39195
 11
242.552
 21
6.27307
  0
LINE
  8
0
 10
242.552
 20
6.27307
 11
242.725
 21
6.12529
  0
LINE
  8
0
 10
242.725
 20
6.12529
 11
242.873
 21
5.95229
  0
LINE
  8
0
 10
242.873
 20
5.95229
 11
242.992
 21
5.75829
  0
LINE
  8
0
 10
242.992
 20
5.75829
 11
243.079
 21
5.54807
  0
LINE
  8
0
 10
243.079
 20
5.54807
 11
243.132
 21
5.32683
  0
LINE
  8
0
 10
243.132
 20
5.32683
 11
243.15
 21
5.09999
  0
LINE
  8
0
 10
243.15
 20
5.09999
 11
243.132
 21
4.87317
  0
LINE
  8
0
 10
243.132
 20
4.87317
 11
243.079
 21
4.65192
  0
LINE
  8
0
 10
243.079
 20
4.65192
 11
242.992
 21
4.44171
  0
LINE
  8
0
 10
242.992
 20
4.44171
 11
242.873
 21
4.24771
  0
LINE
  8
0
 10
242.873
 20
4.24771
 11
242.725
 21
4.07469
  0
LINE
  8
0
 10
242.725
 20
4.07469
 11
242.552
 21
3.92691
  0
LINE
  8
0
 10
242.552
 20
3.92691
 11
242.358
 21
3.80803
  0
LINE
  8
0
 10
242.358
 20
3.80803
 11
242.148
 21
3.72096
  0
LINE
  8
0
 10
242.148
 20
3.72096
 11
241.927
 21
3.66785
  0
LINE
  8
0
 10
241.927
 20
3.66785
 11
241.7
 21
3.64999
  0
LINE
  8
0
 10
241.7
 20
3.64999
 11
241.473
 21
3.66785
  0
ENDSEC
  0
SECTION
  2
OBJECTS
  0
DICTIONARY
  0
ENDSEC
  0
EOF
