999
Woody controller body rev A - Bottom plate (plate_bottom)
999
Material: aluminium, 5052 or 6061, un-anodised (mill finish)
999
Thickness: 1.2 mm (config/key-layout.yaml plate_thickness, the register's `plate-thickness`)
999
Quantity per instrument: 1
999
Units mm. Cut every closed outline. cad 49a2de323fae; verify: python3 tools/cad.py explain fab-dxf-plate-bottom
  0
SECTION
  2
BLOCKS
  0
ENDSEC
  0
SECTION
  2
ENTITIES
  0
LINE
  8
0
 10
209.156
 20
0.812302
 11
209.309
 21
0.848938
  0
LINE
  8
0
 10
209.309
 20
0.848938
 11
209.454
 21
0.908981
  0
LINE
  8
0
 10
209.454
 20
0.908981
 11
209.588
 21
0.990967
  0
LINE
  8
0
 10
209.588
 20
0.990967
 11
209.707
 21
1.09288
  0
LINE
  8
0
 10
209.707
 20
1.09288
 11
209.809
 21
1.2122
  0
LINE
  8
0
 10
209.809
 20
1.2122
 11
209.891
 21
1.34599
  0
LINE
  8
0
 10
209.891
 20
1.34599
 11
209.951
 21
1.49097
  0
LINE
  8
0
 10
209.951
 20
1.49097
 11
209.988
 21
1.64355
  0
LINE
  8
0
 10
209.988
 20
1.64355
 11
210
 21
1.79999
  0
LINE
  8
0
 10
210
 20
1.79999
 11
210
 21
11.9
  0
LINE
  8
0
 10
210
 20
11.9
 11
210.02
 21
12.1503
  0
LINE
  8
0
 10
210.02
 20
12.1503
 11
210.078
 21
12.3945
  0
LINE
  8
0
 10
210.078
 20
12.3945
 11
210.174
 21
12.6264
  0
LINE
  8
0
 10
210.174
 20
12.6264
 11
210.306
 21
12.8405
  0
LINE
  8
0
 10
210.306
 20
12.8405
 11
210.469
 21
13.0314
  0
LINE
  8
0
 10
210.469
 20
13.0314
 11
210.66
 21
13.1944
  0
LINE
  8
0
 10
210.66
 20
13.1944
 11
210.874
 21
13.3256
  0
LINE
  8
0
 10
210.874
 20
13.3256
 11
211.106
 21
13.4217
  0
LINE
  8
0
 10
211.106
 20
13.4217
 11
211.35
 21
13.4803
  0
LINE
  8
0
 10
211.35
 20
13.4803
 11
211.6
 21
13.5
  0
LINE
  8
0
 10
211.6
 20
13.5
 11
226.4
 21
13.5
  0
LINE
  8
0
 10
226.4
 20
13.5
 11
226.65
 21
13.4803
  0
LINE
  8
0
 10
226.65
 20
13.4803
 11
226.894
 21
13.4217
  0
LINE
  8
0
 10
226.894
 20
13.4217
 11
227.126
 21
13.3256
  0
LINE
  8
0
 10
227.126
 20
13.3256
 11
227.34
 21
13.1944
  0
LINE
  8
0
 10
227.34
 20
13.1944
 11
227.531
 21
13.0314
  0
LINE
  8
0
 10
227.531
 20
13.0314
 11
227.694
 21
12.8405
  0
LINE
  8
0
 10
227.694
 20
12.8405
 11
227.826
 21
12.6264
  0
LINE
  8
0
 10
227.826
 20
12.6264
 11
227.922
 21
12.3945
  0
LINE
  8
0
 10
227.922
 20
12.3945
 11
227.98
 21
12.1503
  0
LINE
  8
0
 10
227.98
 20
12.1503
 11
228
 21
11.9
  0
LINE
  8
0
 10
228
 20
11.9
 11
228
 21
1.79999
  0
LINE
  8
0
 10
228
 20
1.79999
 11
228.012
 21
1.64355
  0
LINE
  8
0
 10
228.012
 20
1.64355
 11
228.049
 21
1.49097
  0
LINE
  8
0
 10
228.049
 20
1.49097
 11
228.109
 21
1.34599
  0
LINE
  8
0
 10
228.109
 20
1.34599
 11
228.191
 21
1.2122
  0
LINE
  8
0
 10
228.191
 20
1.2122
 11
228.293
 21
1.09288
  0
LINE
  8
0
 10
228.293
 20
1.09288
 11
228.412
 21
0.990967
  0
LINE
  8
0
 10
228.412
 20
0.990967
 11
228.546
 21
0.908981
  0
LINE
  8
0
 10
228.546
 20
0.908981
 11
228.691
 21
0.848938
  0
LINE
  8
0
 10
228.691
 20
0.848938
 11
228.844
 21
0.812302
  0
LINE
  8
0
 10
228.844
 20
0.812302
 11
229
 21
0.799988
  0
LINE
  8
0
 10
229
 20
0.799988
 11
274.65
 21
0.799988
  0
LINE
  8
0
 10
274.65
 20
0.799988
 11
274.806
 21
0.812302
  0
LINE
  8
0
 10
274.806
 20
0.812302
 11
274.959
 21
0.848938
  0
LINE
  8
0
 10
274.959
 20
0.848938
 11
275.104
 21
0.908981
  0
LINE
  8
0
 10
275.104
 20
0.908981
 11
275.238
 21
0.990967
  0
LINE
  8
0
 10
275.238
 20
0.990967
 11
275.357
 21
1.09288
  0
LINE
  8
0
 10
275.357
 20
1.09288
 11
275.459
 21
1.2122
  0
LINE
  8
0
 10
275.459
 20
1.2122
 11
275.541
 21
1.34599
  0
LINE
  8
0
 10
275.541
 20
1.34599
 11
275.601
 21
1.49097
  0
LINE
  8
0
 10
275.601
 20
1.49097
 11
275.638
 21
1.64355
  0
LINE
  8
0
 10
275.638
 20
1.64355
 11
275.65
 21
1.79999
  0
LINE
  8
0
 10
275.65
 20
1.79999
 11
275.65
 21
4.04996
  0
LINE
  8
0
 10
275.65
 20
4.04996
 11
275.67
 21
4.30026
  0
LINE
  8
0
 10
275.67
 20
4.30026
 11
275.728
 21
4.54448
  0
LINE
  8
0
 10
275.728
 20
4.54448
 11
275.824
 21
4.77637
  0
LINE
  8
0
 10
275.824
 20
4.77637
 11
275.956
 21
4.99045
  0
LINE
  8
0
 10
275.956
 20
4.99045
 11
276.119
 21
5.18137
  0
LINE
  8
0
 10
276.119
 20
5.18137
 11
276.31
 21
5.34442
  0
LINE
  8
0
 10
276.31
 20
5.34442
 11
276.524
 21
5.4756
  0
LINE
  8
0
 10
276.524
 20
5.4756
 11
276.756
 21
5.57167
  0
LINE
  8
0
 10
276.756
 20
5.57167
 11
277
 21
5.63029
  0
LINE
  8
0
 10
277
 20
5.63029
 11
277.25
 21
5.64999
  0
LINE
  8
0
 10
277.25
 20
5.64999
 11
286.25
 21
5.64999
  0
LINE
  8
0
 10
286.25
 20
5.64999
 11
286.406
 21
5.66231
  0
LINE
  8
0
 10
286.406
 20
5.66231
 11
286.559
 21
5.69894
  0
LINE
  8
0
 10
286.559
 20
5.69894
 11
286.704
 21
5.75899
  0
LINE
  8
0
 10
286.704
 20
5.75899
 11
286.838
 21
5.84097
  0
LINE
  8
0
 10
286.838
 20
5.84097
 11
286.957
 21
5.94289
  0
LINE
  8
0
 10
286.957
 20
5.94289
 11
287.059
 21
6.06221
  0
LINE
  8
0
 10
287.059
 20
6.06221
 11
287.141
 21
6.196
  0
LINE
  8
0
 10
287.141
 20
6.196
 11
287.201
 21
6.34097
  0
LINE
  8
0
 10
287.201
 20
6.34097
 11
287.238
 21
6.49356
  0
LINE
  8
0
 10
287.238
 20
6.49356
 11
287.25
 21
6.64999
  0
LINE
  8
0
 10
287.25
 20
6.64999
 11
287.25
 21
43.2
  0
LINE
  8
0
 10
287.25
 20
43.2
 11
287.238
 21
43.3564
  0
LINE
  8
0
 10
287.238
 20
43.3564
 11
287.201
 21
43.509
  0
LINE
  8
0
 10
287.201
 20
43.509
 11
287.141
 21
43.654
  0
LINE
  8
0
 10
287.141
 20
43.654
 11
287.059
 21
43.7878
  0
LINE
  8
0
 10
287.059
 20
43.7878
 11
286.957
 21
43.9071
  0
LINE
  8
0
 10
286.957
 20
43.9071
 11
286.838
 21
44.009
  0
LINE
  8
0
 10
286.838
 20
44.009
 11
286.704
 21
44.091
  0
LINE
  8
0
 10
286.704
 20
44.091
 11
286.559
 21
44.151
  0
LINE
  8
0
 10
286.559
 20
44.151
 11
286.406
 21
44.1877
  0
LINE
  8
0
 10
286.406
 20
44.1877
 11
286.25
 21
44.2
  0
LINE
  8
0
 10
286.25
 20
44.2
 11
1
 21
44.2
  0
LINE
  8
0
 10
1
 20
44.2
 11
0.843567
 21
44.1877
  0
LINE
  8
0
 10
0.843567
 20
44.1877
 11
0.690979
 21
44.151
  0
LINE
  8
0
 10
0.690979
 20
44.151
 11
0.546005
 21
44.091
  0
LINE
  8
0
 10
0.546005
 20
44.091
 11
0.412216
 21
44.009
  0
LINE
  8
0
 10
0.412216
 20
44.009
 11
0.292892
 21
43.9071
  0
LINE
  8
0
 10
0.292892
 20
43.9071
 11
0.190979
 21
43.7878
  0
LINE
  8
0
 10
0.190979
 20
43.7878
 11
0.108994
 21
43.654
  0
LINE
  8
0
 10
0.108994
 20
43.654
 11
0.0489502
 21
43.509
  0
LINE
  8
0
 10
0.0489502
 20
43.509
 11
0.0123138
 21
43.3564
  0
LINE
  8
0
 10
0.0123138
 20
43.3564
 11
0
 21
43.2
  0
LINE
  8
0
 10
0
 20
43.2
 11
0
 21
1.79999
  0
LINE
  8
0
 10
0
 20
1.79999
 11
0.0123138
 21
1.64355
  0
LINE
  8
0
 10
0.0123138
 20
1.64355
 11
0.0489502
 21
1.49097
  0
LINE
  8
0
 10
0.0489502
 20
1.49097
 11
0.108994
 21
1.34599
  0
LINE
  8
0
 10
0.108994
 20
1.34599
 11
0.190979
 21
1.2122
  0
LINE
  8
0
 10
0.190979
 20
1.2122
 11
0.292892
 21
1.09288
  0
LINE
  8
0
 10
0.292892
 20
1.09288
 11
0.412216
 21
0.990967
  0
LINE
  8
0
 10
0.412216
 20
0.990967
 11
0.546005
 21
0.908981
  0
LINE
  8
0
 10
0.546005
 20
0.908981
 11
0.690979
 21
0.848938
  0
LINE
  8
0
 10
0.690979
 20
0.848938
 11
0.843567
 21
0.812302
  0
LINE
  8
0
 10
0.843567
 20
0.812302
 11
1
 21
0.799988
  0
LINE
  8
0
 10
1
 20
0.799988
 11
209
 21
0.799988
  0
LINE
  8
0
 10
209
 20
0.799988
 11
209.156
 21
0.812302
  0
LINE
  8
0
 10
278.254
 20
38.6654
 11
278.064
 21
38.7112
  0
LINE
  8
0
 10
278.064
 20
38.7112
 11
277.883
 21
38.7862
  0
LINE
  8
0
 10
277.883
 20
38.7862
 11
277.715
 21
38.8887
  0
LINE
  8
0
 10
277.715
 20
38.8887
 11
277.566
 21
39.0161
  0
LINE
  8
0
 10
277.566
 20
39.0161
 11
277.439
 21
39.1653
  0
LINE
  8
0
 10
277.439
 20
39.1653
 11
277.336
 21
39.3325
  0
LINE
  8
0
 10
277.336
 20
39.3325
 11
277.261
 21
39.5137
  0
LINE
  8
0
 10
277.261
 20
39.5137
 11
277.215
 21
39.7045
  0
LINE
  8
0
 10
277.215
 20
39.7045
 11
277.2
 21
39.9
  0
LINE
  8
0
 10
277.2
 20
39.9
 11
277.215
 21
40.0955
  0
LINE
  8
0
 10
277.215
 20
40.0955
 11
277.261
 21
40.2863
  0
LINE
  8
0
 10
277.261
 20
40.2863
 11
277.336
 21
40.4675
  0
LINE
  8
0
 10
277.336
 20
40.4675
 11
277.439
 21
40.6347
  0
LINE
  8
0
 10
277.439
 20
40.6347
 11
277.566
 21
40.7839
  0
LINE
  8
0
 10
277.566
 20
40.7839
 11
277.715
 21
40.9113
  0
LINE
  8
0
 10
277.715
 20
40.9113
 11
277.883
 21
41.0137
  0
LINE
  8
0
 10
277.883
 20
41.0137
 11
278.064
 21
41.0888
  0
LINE
  8
0
 10
278.064
 20
41.0888
 11
278.254
 21
41.1346
  0
LINE
  8
0
 10
278.254
 20
41.1346
 11
278.45
 21
41.15
  0
LINE
  8
0
 10
278.45
 20
41.15
 11
278.646
 21
41.1346
  0
LINE
  8
0
 10
278.646
 20
41.1346
 11
278.836
 21
41.0888
  0
LINE
  8
0
 10
278.836
 20
41.0888
 11
279.017
 21
41.0137
  0
LINE
  8
0
 10
279.017
 20
41.0137
 11
279.185
 21
40.9113
  0
LINE
  8
0
 10
279.185
 20
40.9113
 11
279.334
 21
40.7839
  0
LINE
  8
0
 10
279.334
 20
40.7839
 11
279.461
 21
40.6347
  0
LINE
  8
0
 10
279.461
 20
40.6347
 11
279.564
 21
40.4675
  0
LINE
  8
0
 10
279.564
 20
40.4675
 11
279.639
 21
40.2863
  0
LINE
  8
0
 10
279.639
 20
40.2863
 11
279.685
 21
40.0955
  0
LINE
  8
0
 10
279.685
 20
40.0955
 11
279.7
 21
39.9
  0
LINE
  8
0
 10
279.7
 20
39.9
 11
279.685
 21
39.7045
  0
LINE
  8
0
 10
279.685
 20
39.7045
 11
279.639
 21
39.5137
  0
LINE
  8
0
 10
279.639
 20
39.5137
 11
279.564
 21
39.3325
  0
LINE
  8
0
 10
279.564
 20
39.3325
 11
279.461
 21
39.1653
  0
LINE
  8
0
 10
279.461
 20
39.1653
 11
279.334
 21
39.0161
  0
LINE
  8
0
 10
279.334
 20
39.0161
 11
279.185
 21
38.8887
  0
LINE
  8
0
 10
279.185
 20
38.8887
 11
279.017
 21
38.7862
  0
LINE
  8
0
 10
279.017
 20
38.7862
 11
278.836
 21
38.7112
  0
LINE
  8
0
 10
278.836
 20
38.7112
 11
278.646
 21
38.6654
  0
LINE
  8
0
 10
278.646
 20
38.6654
 11
278.45
 21
38.65
  0
LINE
  8
0
 10
278.45
 20
38.65
 11
278.254
 21
38.6654
  0
LINE
  8
0
 10
241.504
 20
38.6654
 11
241.314
 21
38.7112
  0
LINE
  8
0
 10
241.314
 20
38.7112
 11
241.133
 21
38.7862
  0
LINE
  8
0
 10
241.133
 20
38.7862
 11
240.965
 21
38.8887
  0
LINE
  8
0
 10
240.965
 20
38.8887
 11
240.816
 21
39.0161
  0
LINE
  8
0
 10
240.816
 20
39.0161
 11
240.689
 21
39.1653
  0
LINE
  8
0
 10
240.689
 20
39.1653
 11
240.586
 21
39.3325
  0
LINE
  8
0
 10
240.586
 20
39.3325
 11
240.511
 21
39.5137
  0
LINE
  8
0
 10
240.511
 20
39.5137
 11
240.465
 21
39.7045
  0
LINE
  8
0
 10
240.465
 20
39.7045
 11
240.45
 21
39.9
  0
LINE
  8
0
 10
240.45
 20
39.9
 11
240.465
 21
40.0955
  0
LINE
  8
0
 10
240.465
 20
40.0955
 11
240.511
 21
40.2863
  0
LINE
  8
0
 10
240.511
 20
40.2863
 11
240.586
 21
40.4675
  0
LINE
  8
0
 10
240.586
 20
40.4675
 11
240.689
 21
40.6347
  0
LINE
  8
0
 10
240.689
 20
40.6347
 11
240.816
 21
40.7839
  0
LINE
  8
0
 10
240.816
 20
40.7839
 11
240.965
 21
40.9113
  0
LINE
  8
0
 10
240.965
 20
40.9113
 11
241.133
 21
41.0137
  0
LINE
  8
0
 10
241.133
 20
41.0137
 11
241.314
 21
41.0888
  0
LINE
  8
0
 10
241.314
 20
41.0888
 11
241.504
 21
41.1346
  0
LINE
  8
0
 10
241.504
 20
41.1346
 11
241.7
 21
41.15
  0
LINE
  8
0
 10
241.7
 20
41.15
 11
241.896
 21
41.1346
  0
LINE
  8
0
 10
241.896
 20
41.1346
 11
242.086
 21
41.0888
  0
LINE
  8
0
 10
242.086
 20
41.0888
 11
242.267
 21
41.0137
  0
LINE
  8
0
 10
242.267
 20
41.0137
 11
242.435
 21
40.9113
  0
LINE
  8
0
 10
242.435
 20
40.9113
 11
242.584
 21
40.7839
  0
LINE
  8
0
 10
242.584
 20
40.7839
 11
242.711
 21
40.6347
  0
LINE
  8
0
 10
242.711
 20
40.6347
 11
242.814
 21
40.4675
  0
LINE
  8
0
 10
242.814
 20
40.4675
 11
242.889
 21
40.2863
  0
LINE
  8
0
 10
242.889
 20
40.2863
 11
242.935
 21
40.0955
  0
LINE
  8
0
 10
242.935
 20
40.0955
 11
242.95
 21
39.9
  0
LINE
  8
0
 10
242.95
 20
39.9
 11
242.935
 21
39.7045
  0
LINE
  8
0
 10
242.935
 20
39.7045
 11
242.889
 21
39.5137
  0
LINE
  8
0
 10
242.889
 20
39.5137
 11
242.814
 21
39.3325
  0
LINE
  8
0
 10
242.814
 20
39.3325
 11
242.711
 21
39.1653
  0
LINE
  8
0
 10
242.711
 20
39.1653
 11
242.584
 21
39.0161
  0
LINE
  8
0
 10
242.584
 20
39.0161
 11
242.435
 21
38.8887
  0
LINE
  8
0
 10
242.435
 20
38.8887
 11
242.267
 21
38.7862
  0
LINE
  8
0
 10
242.267
 20
38.7862
 11
242.086
 21
38.7112
  0
LINE
  8
0
 10
242.086
 20
38.7112
 11
241.896
 21
38.6654
  0
LINE
  8
0
 10
241.896
 20
38.6654
 11
241.7
 21
38.65
  0
LINE
  8
0
 10
241.7
 20
38.65
 11
241.504
 21
38.6654
  0
LINE
  8
0
 10
140.504
 20
38.6654
 11
140.314
 21
38.7112
  0
LINE
  8
0
 10
140.314
 20
38.7112
 11
140.133
 21
38.7862
  0
LINE
  8
0
 10
140.133
 20
38.7862
 11
139.965
 21
38.8887
  0
LINE
  8
0
 10
139.965
 20
38.8887
 11
139.816
 21
39.0161
  0
LINE
  8
0
 10
139.816
 20
39.0161
 11
139.689
 21
39.1653
  0
LINE
  8
0
 10
139.689
 20
39.1653
 11
139.586
 21
39.3325
  0
LINE
  8
0
 10
139.586
 20
39.3325
 11
139.511
 21
39.5137
  0
LINE
  8
0
 10
139.511
 20
39.5137
 11
139.465
 21
39.7045
  0
LINE
  8
0
 10
139.465
 20
39.7045
 11
139.45
 21
39.9
  0
LINE
  8
0
 10
139.45
 20
39.9
 11
139.465
 21
40.0955
  0
LINE
  8
0
 10
139.465
 20
40.0955
 11
139.511
 21
40.2863
  0
LINE
  8
0
 10
139.511
 20
40.2863
 11
139.586
 21
40.4675
  0
LINE
  8
0
 10
139.586
 20
40.4675
 11
139.689
 21
40.6347
  0
LINE
  8
0
 10
139.689
 20
40.6347
 11
139.816
 21
40.7839
  0
LINE
  8
0
 10
139.816
 20
40.7839
 11
139.965
 21
40.9113
  0
LINE
  8
0
 10
139.965
 20
40.9113
 11
140.133
 21
41.0137
  0
LINE
  8
0
 10
140.133
 20
41.0137
 11
140.314
 21
41.0888
  0
LINE
  8
0
 10
140.314
 20
41.0888
 11
140.504
 21
41.1346
  0
LINE
  8
0
 10
140.504
 20
41.1346
 11
140.7
 21
41.15
  0
LINE
  8
0
 10
140.7
 20
41.15
 11
140.896
 21
41.1346
  0
LINE
  8
0
 10
140.896
 20
41.1346
 11
141.086
 21
41.0888
  0
LINE
  8
0
 10
141.086
 20
41.0888
 11
141.267
 21
41.0137
  0
LINE
  8
0
 10
141.267
 20
41.0137
 11
141.435
 21
40.9113
  0
LINE
  8
0
 10
141.435
 20
40.9113
 11
141.584
 21
40.7839
  0
LINE
  8
0
 10
141.584
 20
40.7839
 11
141.711
 21
40.6347
  0
LINE
  8
0
 10
141.711
 20
40.6347
 11
141.814
 21
40.4675
  0
LINE
  8
0
 10
141.814
 20
40.4675
 11
141.889
 21
40.2863
  0
LINE
  8
0
 10
141.889
 20
40.2863
 11
141.935
 21
40.0955
  0
LINE
  8
0
 10
141.935
 20
40.0955
 11
141.95
 21
39.9
  0
LINE
  8
0
 10
141.95
 20
39.9
 11
141.935
 21
39.7045
  0
LINE
  8
0
 10
141.935
 20
39.7045
 11
141.889
 21
39.5137
  0
LINE
  8
0
 10
141.889
 20
39.5137
 11
141.814
 21
39.3325
  0
LINE
  8
0
 10
141.814
 20
39.3325
 11
141.711
 21
39.1653
  0
LINE
  8
0
 10
141.711
 20
39.1653
 11
141.584
 21
39.0161
  0
LINE
  8
0
 10
141.584
 20
39.0161
 11
141.435
 21
38.8887
  0
LINE
  8
0
 10
141.435
 20
38.8887
 11
141.267
 21
38.7862
  0
LINE
  8
0
 10
141.267
 20
38.7862
 11
141.086
 21
38.7112
  0
LINE
  8
0
 10
141.086
 20
38.7112
 11
140.896
 21
38.6654
  0
LINE
  8
0
 10
140.896
 20
38.6654
 11
140.7
 21
38.65
  0
LINE
  8
0
 10
140.7
 20
38.65
 11
140.504
 21
38.6654
  0
LINE
  8
0
 10
115.504
 20
38.6654
 11
115.314
 21
38.7112
  0
LINE
  8
0
 10
115.314
 20
38.7112
 11
115.133
 21
38.7862
  0
LINE
  8
0
 10
115.133
 20
38.7862
 11
114.965
 21
38.8887
  0
LINE
  8
0
 10
114.965
 20
38.8887
 11
114.816
 21
39.0161
  0
LINE
  8
0
 10
114.816
 20
39.0161
 11
114.689
 21
39.1653
  0
LINE
  8
0
 10
114.689
 20
39.1653
 11
114.586
 21
39.3325
  0
LINE
  8
0
 10
114.586
 20
39.3325
 11
114.511
 21
39.5137
  0
LINE
  8
0
 10
114.511
 20
39.5137
 11
114.465
 21
39.7045
  0
LINE
  8
0
 10
114.465
 20
39.7045
 11
114.45
 21
39.9
  0
LINE
  8
0
 10
114.45
 20
39.9
 11
114.465
 21
40.0955
  0
LINE
  8
0
 10
114.465
 20
40.0955
 11
114.511
 21
40.2863
  0
LINE
  8
0
 10
114.511
 20
40.2863
 11
114.586
 21
40.4675
  0
LINE
  8
0
 10
114.586
 20
40.4675
 11
114.689
 21
40.6347
  0
LINE
  8
0
 10
114.689
 20
40.6347
 11
114.816
 21
40.7839
  0
LINE
  8
0
 10
114.816
 20
40.7839
 11
114.965
 21
40.9113
  0
LINE
  8
0
 10
114.965
 20
40.9113
 11
115.133
 21
41.0137
  0
LINE
  8
0
 10
115.133
 20
41.0137
 11
115.314
 21
41.0888
  0
LINE
  8
0
 10
115.314
 20
41.0888
 11
115.504
 21
41.1346
  0
LINE
  8
0
 10
115.504
 20
41.1346
 11
115.7
 21
41.15
  0
LINE
  8
0
 10
115.7
 20
41.15
 11
115.896
 21
41.1346
  0
LINE
  8
0
 10
115.896
 20
41.1346
 11
116.086
 21
41.0888
  0
LINE
  8
0
 10
116.086
 20
41.0888
 11
116.267
 21
41.0137
  0
LINE
  8
0
 10
116.267
 20
41.0137
 11
116.435
 21
40.9113
  0
LINE
  8
0
 10
116.435
 20
40.9113
 11
116.584
 21
40.7839
  0
LINE
  8
0
 10
116.584
 20
40.7839
 11
116.711
 21
40.6347
  0
LINE
  8
0
 10
116.711
 20
40.6347
 11
116.814
 21
40.4675
  0
LINE
  8
0
 10
116.814
 20
40.4675
 11
116.889
 21
40.2863
  0
LINE
  8
0
 10
116.889
 20
40.2863
 11
116.935
 21
40.0955
  0
LINE
  8
0
 10
116.935
 20
40.0955
 11
116.95
 21
39.9
  0
LINE
  8
0
 10
116.95
 20
39.9
 11
116.935
 21
39.7045
  0
LINE
  8
0
 10
116.935
 20
39.7045
 11
116.889
 21
39.5137
  0
LINE
  8
0
 10
116.889
 20
39.5137
 11
116.814
 21
39.3325
  0
LINE
  8
0
 10
116.814
 20
39.3325
 11
116.711
 21
39.1653
  0
LINE
  8
0
 10
116.711
 20
39.1653
 11
116.584
 21
39.0161
  0
LINE
  8
0
 10
116.584
 20
39.0161
 11
116.435
 21
38.8887
  0
LINE
  8
0
 10
116.435
 20
38.8887
 11
116.267
 21
38.7862
  0
LINE
  8
0
 10
116.267
 20
38.7862
 11
116.086
 21
38.7112
  0
LINE
  8
0
 10
116.086
 20
38.7112
 11
115.896
 21
38.6654
  0
LINE
  8
0
 10
115.896
 20
38.6654
 11
115.7
 21
38.65
  0
LINE
  8
0
 10
115.7
 20
38.65
 11
115.504
 21
38.6654
  0
LINE
  8
0
 10
32.5045
 20
38.6654
 11
32.3137
 21
38.7112
  0
LINE
  8
0
 10
32.3137
 20
38.7112
 11
32.1325
 21
38.7862
  0
LINE
  8
0
 10
32.1325
 20
38.7862
 11
31.9653
 21
38.8887
  0
LINE
  8
0
 10
31.9653
 20
38.8887
 11
31.8161
 21
39.0161
  0
LINE
  8
0
 10
31.8161
 20
39.0161
 11
31.6887
 21
39.1653
  0
LINE
  8
0
 10
31.6887
 20
39.1653
 11
31.5862
 21
39.3325
  0
LINE
  8
0
 10
31.5862
 20
39.3325
 11
31.5112
 21
39.5137
  0
LINE
  8
0
 10
31.5112
 20
39.5137
 11
31.4654
 21
39.7045
  0
LINE
  8
0
 10
31.4654
 20
39.7045
 11
31.45
 21
39.9
  0
LINE
  8
0
 10
31.45
 20
39.9
 11
31.4654
 21
40.0955
  0
LINE
  8
0
 10
31.4654
 20
40.0955
 11
31.5112
 21
40.2863
  0
LINE
  8
0
 10
31.5112
 20
40.2863
 11
31.5862
 21
40.4675
  0
LINE
  8
0
 10
31.5862
 20
40.4675
 11
31.6887
 21
40.6347
  0
LINE
  8
0
 10
31.6887
 20
40.6347
 11
31.8161
 21
40.7839
  0
LINE
  8
0
 10
31.8161
 20
40.7839
 11
31.9653
 21
40.9113
  0
LINE
  8
0
 10
31.9653
 20
40.9113
 11
32.1325
 21
41.0137
  0
LINE
  8
0
 10
32.1325
 20
41.0137
 11
32.3137
 21
41.0888
  0
LINE
  8
0
 10
32.3137
 20
41.0888
 11
32.5045
 21
41.1346
  0
LINE
  8
0
 10
32.5045
 20
41.1346
 11
32.7
 21
41.15
  0
LINE
  8
0
 10
32.7
 20
41.15
 11
32.8955
 21
41.1346
  0
LINE
  8
0
 10
32.8955
 20
41.1346
 11
33.0863
 21
41.0888
  0
LINE
  8
0
 10
33.0863
 20
41.0888
 11
33.2675
 21
41.0137
  0
LINE
  8
0
 10
33.2675
 20
41.0137
 11
33.4347
 21
40.9113
  0
LINE
  8
0
 10
33.4347
 20
40.9113
 11
33.5839
 21
40.7839
  0
LINE
  8
0
 10
33.5839
 20
40.7839
 11
33.7113
 21
40.6347
  0
LINE
  8
0
 10
33.7113
 20
40.6347
 11
33.8138
 21
40.4675
  0
LINE
  8
0
 10
33.8138
 20
40.4675
 11
33.8888
 21
40.2863
  0
LINE
  8
0
 10
33.8888
 20
40.2863
 11
33.9346
 21
40.0955
  0
LINE
  8
0
 10
33.9346
 20
40.0955
 11
33.95
 21
39.9
  0
LINE
  8
0
 10
33.95
 20
39.9
 11
33.9346
 21
39.7045
  0
LINE
  8
0
 10
33.9346
 20
39.7045
 11
33.8888
 21
39.5137
  0
LINE
  8
0
 10
33.8888
 20
39.5137
 11
33.8138
 21
39.3325
  0
LINE
  8
0
 10
33.8138
 20
39.3325
 11
33.7113
 21
39.1653
  0
LINE
  8
0
 10
33.7113
 20
39.1653
 11
33.5839
 21
39.0161
  0
LINE
  8
0
 10
33.5839
 20
39.0161
 11
33.4347
 21
38.8887
  0
LINE
  8
0
 10
33.4347
 20
38.8887
 11
33.2675
 21
38.7862
  0
LINE
  8
0
 10
33.2675
 20
38.7862
 11
33.0863
 21
38.7112
  0
LINE
  8
0
 10
33.0863
 20
38.7112
 11
32.8955
 21
38.6654
  0
LINE
  8
0
 10
32.8955
 20
38.6654
 11
32.7
 21
38.65
  0
LINE
  8
0
 10
32.7
 20
38.65
 11
32.5045
 21
38.6654
  0
LINE
  8
0
 10
77.5
 20
25.5
 11
77.4218
 21
25.5061
  0
LINE
  8
0
 10
77.4218
 20
25.5061
 11
77.3455
 21
25.5245
  0
LINE
  8
0
 10
77.3455
 20
25.5245
 11
77.273
 21
25.5545
  0
LINE
  8
0
 10
77.273
 20
25.5545
 11
77.2061
 21
25.5955
  0
LINE
  8
0
 10
77.2061
 20
25.5955
 11
77.1465
 21
25.6465
  0
LINE
  8
0
 10
77.1465
 20
25.6465
 11
77.0955
 21
25.7061
  0
LINE
  8
0
 10
77.0955
 20
25.7061
 11
77.0545
 21
25.773
  0
LINE
  8
0
 10
77.0545
 20
25.773
 11
77.0245
 21
25.8455
  0
LINE
  8
0
 10
77.0245
 20
25.8455
 11
77.0061
 21
25.9218
  0
LINE
  8
0
 10
77.0061
 20
25.9218
 11
77
 21
26
  0
LINE
  8
0
 10
77
 20
26
 11
77
 21
39
  0
LINE
  8
0
 10
77
 20
39
 11
77.0061
 21
39.0782
  0
LINE
  8
0
 10
77.0061
 20
39.0782
 11
77.0245
 21
39.1545
  0
LINE
  8
0
 10
77.0245
 20
39.1545
 11
77.0545
 21
39.227
  0
LINE
  8
0
 10
77.0545
 20
39.227
 11
77.0955
 21
39.2939
  0
LINE
  8
0
 10
77.0955
 20
39.2939
 11
77.1465
 21
39.3535
  0
LINE
  8
0
 10
77.1465
 20
39.3535
 11
77.2061
 21
39.4045
  0
LINE
  8
0
 10
77.2061
 20
39.4045
 11
77.273
 21
39.4455
  0
LINE
  8
0
 10
77.273
 20
39.4455
 11
77.3455
 21
39.4755
  0
LINE
  8
0
 10
77.3455
 20
39.4755
 11
77.4218
 21
39.4939
  0
LINE
  8
0
 10
77.4218
 20
39.4939
 11
77.5
 21
39.5
  0
LINE
  8
0
 10
77.5
 20
39.5
 11
90.5
 21
39.5
  0
LINE
  8
0
 10
90.5
 20
39.5
 11
90.5782
 21
39.4939
  0
LINE
  8
0
 10
90.5782
 20
39.4939
 11
90.6545
 21
39.4755
  0
LINE
  8
0
 10
90.6545
 20
39.4755
 11
90.727
 21
39.4455
  0
LINE
  8
0
 10
90.727
 20
39.4455
 11
90.7939
 21
39.4045
  0
LINE
  8
0
 10
90.7939
 20
39.4045
 11
90.8535
 21
39.3535
  0
LINE
  8
0
 10
90.8535
 20
39.3535
 11
90.9045
 21
39.2939
  0
LINE
  8
0
 10
90.9045
 20
39.2939
 11
90.9455
 21
39.227
  0
LINE
  8
0
 10
90.9455
 20
39.227
 11
90.9755
 21
39.1545
  0
LINE
  8
0
 10
90.9755
 20
39.1545
 11
90.9939
 21
39.0782
  0
LINE
  8
0
 10
90.9939
 20
39.0782
 11
91
 21
39
  0
LINE
  8
0
 10
91
 20
39
 11
91
 21
26
  0
LINE
  8
0
 10
91
 20
26
 11
90.9939
 21
25.9218
  0
LINE
  8
0
 10
90.9939
 20
25.9218
 11
90.9755
 21
25.8455
  0
LINE
  8
0
 10
90.9755
 20
25.8455
 11
90.9455
 21
25.773
  0
LINE
  8
0
 10
90.9455
 20
25.773
 11
90.9045
 21
25.7061
  0
LINE
  8
0
 10
90.9045
 20
25.7061
 11
90.8535
 21
25.6465
  0
LINE
  8
0
 10
90.8535
 20
25.6465
 11
90.7939
 21
25.5955
  0
LINE
  8
0
 10
90.7939
 20
25.5955
 11
90.727
 21
25.5545
  0
LINE
  8
0
 10
90.727
 20
25.5545
 11
90.6545
 21
25.5245
  0
LINE
  8
0
 10
90.6545
 20
25.5245
 11
90.5782
 21
25.5061
  0
LINE
  8
0
 10
90.5782
 20
25.5061
 11
90.5
 21
25.5
  0
LINE
  8
0
 10
90.5
 20
25.5
 11
77.5
 21
25.5
  0
LINE
  8
0
 10
185.5
 20
25.5
 11
185.422
 21
25.5061
  0
LINE
  8
0
 10
185.422
 20
25.5061
 11
185.345
 21
25.5245
  0
LINE
  8
0
 10
185.345
 20
25.5245
 11
185.273
 21
25.5545
  0
LINE
  8
0
 10
185.273
 20
25.5545
 11
185.206
 21
25.5955
  0
LINE
  8
0
 10
185.206
 20
25.5955
 11
185.146
 21
25.6465
  0
LINE
  8
0
 10
185.146
 20
25.6465
 11
185.095
 21
25.7061
  0
LINE
  8
0
 10
185.095
 20
25.7061
 11
185.054
 21
25.773
  0
LINE
  8
0
 10
185.054
 20
25.773
 11
185.024
 21
25.8455
  0
LINE
  8
0
 10
185.024
 20
25.8455
 11
185.006
 21
25.9218
  0
LINE
  8
0
 10
185.006
 20
25.9218
 11
185
 21
26
  0
LINE
  8
0
 10
185
 20
26
 11
185
 21
39
  0
LINE
  8
0
 10
185
 20
39
 11
185.006
 21
39.0782
  0
LINE
  8
0
 10
185.006
 20
39.0782
 11
185.024
 21
39.1545
  0
LINE
  8
0
 10
185.024
 20
39.1545
 11
185.054
 21
39.227
  0
LINE
  8
0
 10
185.054
 20
39.227
 11
185.095
 21
39.2939
  0
LINE
  8
0
 10
185.095
 20
39.2939
 11
185.146
 21
39.3535
  0
LINE
  8
0
 10
185.146
 20
39.3535
 11
185.206
 21
39.4045
  0
LINE
  8
0
 10
185.206
 20
39.4045
 11
185.273
 21
39.4455
  0
LINE
  8
0
 10
185.273
 20
39.4455
 11
185.345
 21
39.4755
  0
LINE
  8
0
 10
185.345
 20
39.4755
 11
185.422
 21
39.4939
  0
LINE
  8
0
 10
185.422
 20
39.4939
 11
185.5
 21
39.5
  0
LINE
  8
0
 10
185.5
 20
39.5
 11
198.5
 21
39.5
  0
LINE
  8
0
 10
198.5
 20
39.5
 11
198.578
 21
39.4939
  0
LINE
  8
0
 10
198.578
 20
39.4939
 11
198.655
 21
39.4755
  0
LINE
  8
0
 10
198.655
 20
39.4755
 11
198.727
 21
39.4455
  0
LINE
  8
0
 10
198.727
 20
39.4455
 11
198.794
 21
39.4045
  0
LINE
  8
0
 10
198.794
 20
39.4045
 11
198.854
 21
39.3535
  0
LINE
  8
0
 10
198.854
 20
39.3535
 11
198.905
 21
39.2939
  0
LINE
  8
0
 10
198.905
 20
39.2939
 11
198.946
 21
39.227
  0
LINE
  8
0
 10
198.946
 20
39.227
 11
198.976
 21
39.1545
  0
LINE
  8
0
 10
198.976
 20
39.1545
 11
198.994
 21
39.0782
  0
LINE
  8
0
 10
198.994
 20
39.0782
 11
199
 21
39
  0
LINE
  8
0
 10
199
 20
39
 11
199
 21
26
  0
LINE
  8
0
 10
199
 20
26
 11
198.994
 21
25.9218
  0
LINE
  8
0
 10
198.994
 20
25.9218
 11
198.976
 21
25.8455
  0
LINE
  8
0
 10
198.976
 20
25.8455
 11
198.946
 21
25.773
  0
LINE
  8
0
 10
198.946
 20
25.773
 11
198.905
 21
25.7061
  0
LINE
  8
0
 10
198.905
 20
25.7061
 11
198.854
 21
25.6465
  0
LINE
  8
0
 10
198.854
 20
25.6465
 11
198.794
 21
25.5955
  0
LINE
  8
0
 10
198.794
 20
25.5955
 11
198.727
 21
25.5545
  0
LINE
  8
0
 10
198.727
 20
25.5545
 11
198.655
 21
25.5245
  0
LINE
  8
0
 10
198.655
 20
25.5245
 11
198.578
 21
25.5061
  0
LINE
  8
0
 10
198.578
 20
25.5061
 11
198.5
 21
25.5
  0
LINE
  8
0
 10
198.5
 20
25.5
 11
185.5
 21
25.5
  0
LINE
  8
0
 10
145.5
 20
25.5
 11
145.422
 21
25.5061
  0
LINE
  8
0
 10
145.422
 20
25.5061
 11
145.345
 21
25.5245
  0
LINE
  8
0
 10
145.345
 20
25.5245
 11
145.273
 21
25.5545
  0
LINE
  8
0
 10
145.273
 20
25.5545
 11
145.206
 21
25.5955
  0
LINE
  8
0
 10
145.206
 20
25.5955
 11
145.146
 21
25.6465
  0
LINE
  8
0
 10
145.146
 20
25.6465
 11
145.095
 21
25.7061
  0
LINE
  8
0
 10
145.095
 20
25.7061
 11
145.054
 21
25.773
  0
LINE
  8
0
 10
145.054
 20
25.773
 11
145.024
 21
25.8455
  0
LINE
  8
0
 10
145.024
 20
25.8455
 11
145.006
 21
25.9218
  0
LINE
  8
0
 10
145.006
 20
25.9218
 11
145
 21
26
  0
LINE
  8
0
 10
145
 20
26
 11
145
 21
39
  0
LINE
  8
0
 10
145
 20
39
 11
145.006
 21
39.0782
  0
LINE
  8
0
 10
145.006
 20
39.0782
 11
145.024
 21
39.1545
  0
LINE
  8
0
 10
145.024
 20
39.1545
 11
145.054
 21
39.227
  0
LINE
  8
0
 10
145.054
 20
39.227
 11
145.095
 21
39.2939
  0
LINE
  8
0
 10
145.095
 20
39.2939
 11
145.146
 21
39.3535
  0
LINE
  8
0
 10
145.146
 20
39.3535
 11
145.206
 21
39.4045
  0
LINE
  8
0
 10
145.206
 20
39.4045
 11
145.273
 21
39.4455
  0
LINE
  8
0
 10
145.273
 20
39.4455
 11
145.345
 21
39.4755
  0
LINE
  8
0
 10
145.345
 20
39.4755
 11
145.422
 21
39.4939
  0
LINE
  8
0
 10
145.422
 20
39.4939
 11
145.5
 21
39.5
  0
LINE
  8
0
 10
145.5
 20
39.5
 11
158.5
 21
39.5
  0
LINE
  8
0
 10
158.5
 20
39.5
 11
158.578
 21
39.4939
  0
LINE
  8
0
 10
158.578
 20
39.4939
 11
158.655
 21
39.4755
  0
LINE
  8
0
 10
158.655
 20
39.4755
 11
158.727
 21
39.4455
  0
LINE
  8
0
 10
158.727
 20
39.4455
 11
158.794
 21
39.4045
  0
LINE
  8
0
 10
158.794
 20
39.4045
 11
158.854
 21
39.3535
  0
LINE
  8
0
 10
158.854
 20
39.3535
 11
158.905
 21
39.2939
  0
LINE
  8
0
 10
158.905
 20
39.2939
 11
158.946
 21
39.227
  0
LINE
  8
0
 10
158.946
 20
39.227
 11
158.976
 21
39.1545
  0
LINE
  8
0
 10
158.976
 20
39.1545
 11
158.994
 21
39.0782
  0
LINE
  8
0
 10
158.994
 20
39.0782
 11
159
 21
39
  0
LINE
  8
0
 10
159
 20
39
 11
159
 21
26
  0
LINE
  8
0
 10
159
 20
26
 11
158.994
 21
25.9218
  0
LINE
  8
0
 10
158.994
 20
25.9218
 11
158.976
 21
25.8455
  0
LINE
  8
0
 10
158.976
 20
25.8455
 11
158.946
 21
25.773
  0
LINE
  8
0
 10
158.946
 20
25.773
 11
158.905
 21
25.7061
  0
LINE
  8
0
 10
158.905
 20
25.7061
 11
158.854
 21
25.6465
  0
LINE
  8
0
 10
158.854
 20
25.6465
 11
158.794
 21
25.5955
  0
LINE
  8
0
 10
158.794
 20
25.5955
 11
158.727
 21
25.5545
  0
LINE
  8
0
 10
158.727
 20
25.5545
 11
158.655
 21
25.5245
  0
LINE
  8
0
 10
158.655
 20
25.5245
 11
158.578
 21
25.5061
  0
LINE
  8
0
 10
158.578
 20
25.5061
 11
158.5
 21
25.5
  0
LINE
  8
0
 10
158.5
 20
25.5
 11
145.5
 21
25.5
  0
LINE
  8
0
 10
37.5
 20
25.5
 11
37.4218
 21
25.5061
  0
LINE
  8
0
 10
37.4218
 20
25.5061
 11
37.3455
 21
25.5245
  0
LINE
  8
0
 10
37.3455
 20
25.5245
 11
37.273
 21
25.5545
  0
LINE
  8
0
 10
37.273
 20
25.5545
 11
37.2061
 21
25.5955
  0
LINE
  8
0
 10
37.2061
 20
25.5955
 11
37.1465
 21
25.6465
  0
LINE
  8
0
 10
37.1465
 20
25.6465
 11
37.0955
 21
25.7061
  0
LINE
  8
0
 10
37.0955
 20
25.7061
 11
37.0545
 21
25.773
  0
LINE
  8
0
 10
37.0545
 20
25.773
 11
37.0245
 21
25.8455
  0
LINE
  8
0
 10
37.0245
 20
25.8455
 11
37.0061
 21
25.9218
  0
LINE
  8
0
 10
37.0061
 20
25.9218
 11
37
 21
26
  0
LINE
  8
0
 10
37
 20
26
 11
37
 21
39
  0
LINE
  8
0
 10
37
 20
39
 11
37.0061
 21
39.0782
  0
LINE
  8
0
 10
37.0061
 20
39.0782
 11
37.0245
 21
39.1545
  0
LINE
  8
0
 10
37.0245
 20
39.1545
 11
37.0545
 21
39.227
  0
LINE
  8
0
 10
37.0545
 20
39.227
 11
37.0955
 21
39.2939
  0
LINE
  8
0
 10
37.0955
 20
39.2939
 11
37.1465
 21
39.3535
  0
LINE
  8
0
 10
37.1465
 20
39.3535
 11
37.2061
 21
39.4045
  0
LINE
  8
0
 10
37.2061
 20
39.4045
 11
37.273
 21
39.4455
  0
LINE
  8
0
 10
37.273
 20
39.4455
 11
37.3455
 21
39.4755
  0
LINE
  8
0
 10
37.3455
 20
39.4755
 11
37.4218
 21
39.4939
  0
LINE
  8
0
 10
37.4218
 20
39.4939
 11
37.5
 21
39.5
  0
LINE
  8
0
 10
37.5
 20
39.5
 11
50.5
 21
39.5
  0
LINE
  8
0
 10
50.5
 20
39.5
 11
50.5782
 21
39.4939
  0
LINE
  8
0
 10
50.5782
 20
39.4939
 11
50.6545
 21
39.4755
  0
LINE
  8
0
 10
50.6545
 20
39.4755
 11
50.727
 21
39.4455
  0
LINE
  8
0
 10
50.727
 20
39.4455
 11
50.7939
 21
39.4045
  0
LINE
  8
0
 10
50.7939
 20
39.4045
 11
50.8535
 21
39.3535
  0
LINE
  8
0
 10
50.8535
 20
39.3535
 11
50.9045
 21
39.2939
  0
LINE
  8
0
 10
50.9045
 20
39.2939
 11
50.9455
 21
39.227
  0
LINE
  8
0
 10
50.9455
 20
39.227
 11
50.9755
 21
39.1545
  0
LINE
  8
0
 10
50.9755
 20
39.1545
 11
50.9939
 21
39.0782
  0
LINE
  8
0
 10
50.9939
 20
39.0782
 11
51
 21
39
  0
LINE
  8
0
 10
51
 20
39
 11
51
 21
26
  0
LINE
  8
0
 10
51
 20
26
 11
50.9939
 21
25.9218
  0
LINE
  8
0
 10
50.9939
 20
25.9218
 11
50.9755
 21
25.8455
  0
LINE
  8
0
 10
50.9755
 20
25.8455
 11
50.9455
 21
25.773
  0
LINE
  8
0
 10
50.9455
 20
25.773
 11
50.9045
 21
25.7061
  0
LINE
  8
0
 10
50.9045
 20
25.7061
 11
50.8535
 21
25.6465
  0
LINE
  8
0
 10
50.8535
 20
25.6465
 11
50.7939
 21
25.5955
  0
LINE
  8
0
 10
50.7939
 20
25.5955
 11
50.727
 21
25.5545
  0
LINE
  8
0
 10
50.727
 20
25.5545
 11
50.6545
 21
25.5245
  0
LINE
  8
0
 10
50.6545
 20
25.5245
 11
50.5782
 21
25.5061
  0
LINE
  8
0
 10
50.5782
 20
25.5061
 11
50.5
 21
25.5
  0
LINE
  8
0
 10
50.5
 20
25.5
 11
37.5
 21
25.5
  0
LINE
  8
0
 10
126.726
 20
30.7715
 11
126.459
 21
30.8356
  0
LINE
  8
0
 10
126.459
 20
30.8356
 11
126.206
 21
30.9407
  0
LINE
  8
0
 10
126.206
 20
30.9407
 11
125.971
 21
31.0842
  0
LINE
  8
0
 10
125.971
 20
31.0842
 11
125.763
 21
31.2626
  0
LINE
  8
0
 10
125.763
 20
31.2626
 11
125.584
 21
31.4714
  0
LINE
  8
0
 10
125.584
 20
31.4714
 11
125.441
 21
31.7055
  0
LINE
  8
0
 10
125.441
 20
31.7055
 11
125.336
 21
31.9592
  0
LINE
  8
0
 10
125.336
 20
31.9592
 11
125.272
 21
32.2262
  0
LINE
  8
0
 10
125.272
 20
32.2262
 11
125.25
 21
32.5
  0
LINE
  8
0
 10
125.25
 20
32.5
 11
125.272
 21
32.7738
  0
LINE
  8
0
 10
125.272
 20
32.7738
 11
125.336
 21
33.0408
  0
LINE
  8
0
 10
125.336
 20
33.0408
 11
125.441
 21
33.2945
  0
LINE
  8
0
 10
125.441
 20
33.2945
 11
125.584
 21
33.5286
  0
LINE
  8
0
 10
125.584
 20
33.5286
 11
125.763
 21
33.7374
  0
LINE
  8
0
 10
125.763
 20
33.7374
 11
125.971
 21
33.9158
  0
LINE
  8
0
 10
125.971
 20
33.9158
 11
126.206
 21
34.0592
  0
LINE
  8
0
 10
126.206
 20
34.0592
 11
126.459
 21
34.1643
  0
LINE
  8
0
 10
126.459
 20
34.1643
 11
126.726
 21
34.2285
  0
LINE
  8
0
 10
126.726
 20
34.2285
 11
127
 21
34.25
  0
LINE
  8
0
 10
127
 20
34.25
 11
127.274
 21
34.2285
  0
LINE
  8
0
 10
127.274
 20
34.2285
 11
127.541
 21
34.1643
  0
LINE
  8
0
 10
127.541
 20
34.1643
 11
127.794
 21
34.0592
  0
LINE
  8
0
 10
127.794
 20
34.0592
 11
128.029
 21
33.9158
  0
LINE
  8
0
 10
128.029
 20
33.9158
 11
128.237
 21
33.7374
  0
LINE
  8
0
 10
128.237
 20
33.7374
 11
128.416
 21
33.5286
  0
LINE
  8
0
 10
128.416
 20
33.5286
 11
128.559
 21
33.2945
  0
LINE
  8
0
 10
128.559
 20
33.2945
 11
128.664
 21
33.0408
  0
LINE
  8
0
 10
128.664
 20
33.0408
 11
128.728
 21
32.7738
  0
LINE
  8
0
 10
128.728
 20
32.7738
 11
128.75
 21
32.5
  0
LINE
  8
0
 10
128.75
 20
32.5
 11
128.728
 21
32.2262
  0
LINE
  8
0
 10
128.728
 20
32.2262
 11
128.664
 21
31.9592
  0
LINE
  8
0
 10
128.664
 20
31.9592
 11
128.559
 21
31.7055
  0
LINE
  8
0
 10
128.559
 20
31.7055
 11
128.416
 21
31.4714
  0
LINE
  8
0
 10
128.416
 20
31.4714
 11
128.237
 21
31.2626
  0
LINE
  8
0
 10
128.237
 20
31.2626
 11
128.029
 21
31.0842
  0
LINE
  8
0
 10
128.029
 20
31.0842
 11
127.794
 21
30.9407
  0
LINE
  8
0
 10
127.794
 20
30.9407
 11
127.541
 21
30.8356
  0
LINE
  8
0
 10
127.541
 20
30.8356
 11
127.274
 21
30.7715
  0
LINE
  8
0
 10
127.274
 20
30.7715
 11
127
 21
30.75
  0
LINE
  8
0
 10
127
 20
30.75
 11
126.726
 21
30.7715
  0
LINE
  8
0
 10
145.5
 20
5.5
 11
145.422
 21
5.50615
  0
LINE
  8
0
 10
145.422
 20
5.50615
 11
145.345
 21
5.52448
  0
LINE
  8
0
 10
145.345
 20
5.52448
 11
145.273
 21
5.55449
  0
LINE
  8
0
 10
145.273
 20
5.55449
 11
145.206
 21
5.59549
  0
LINE
  8
0
 10
145.206
 20
5.59549
 11
145.146
 21
5.64645
  0
LINE
  8
0
 10
145.146
 20
5.64645
 11
145.095
 21
5.7061
  0
LINE
  8
0
 10
145.095
 20
5.7061
 11
145.054
 21
5.77301
  0
LINE
  8
0
 10
145.054
 20
5.77301
 11
145.024
 21
5.84549
  0
LINE
  8
0
 10
145.024
 20
5.84549
 11
145.006
 21
5.92178
  0
LINE
  8
0
 10
145.006
 20
5.92178
 11
145
 21
6
  0
LINE
  8
0
 10
145
 20
6
 11
145
 21
19
  0
LINE
  8
0
 10
145
 20
19
 11
145.006
 21
19.0782
  0
LINE
  8
0
 10
145.006
 20
19.0782
 11
145.024
 21
19.1545
  0
LINE
  8
0
 10
145.024
 20
19.1545
 11
145.054
 21
19.227
  0
LINE
  8
0
 10
145.054
 20
19.227
 11
145.095
 21
19.2939
  0
LINE
  8
0
 10
145.095
 20
19.2939
 11
145.146
 21
19.3535
  0
LINE
  8
0
 10
145.146
 20
19.3535
 11
145.206
 21
19.4045
  0
LINE
  8
0
 10
145.206
 20
19.4045
 11
145.273
 21
19.4455
  0
LINE
  8
0
 10
145.273
 20
19.4455
 11
145.345
 21
19.4755
  0
LINE
  8
0
 10
145.345
 20
19.4755
 11
145.422
 21
19.4939
  0
LINE
  8
0
 10
145.422
 20
19.4939
 11
145.5
 21
19.5
  0
LINE
  8
0
 10
145.5
 20
19.5
 11
158.5
 21
19.5
  0
LINE
  8
0
 10
158.5
 20
19.5
 11
158.578
 21
19.4939
  0
LINE
  8
0
 10
158.578
 20
19.4939
 11
158.655
 21
19.4755
  0
LINE
  8
0
 10
158.655
 20
19.4755
 11
158.727
 21
19.4455
  0
LINE
  8
0
 10
158.727
 20
19.4455
 11
158.794
 21
19.4045
  0
LINE
  8
0
 10
158.794
 20
19.4045
 11
158.854
 21
19.3535
  0
LINE
  8
0
 10
158.854
 20
19.3535
 11
158.905
 21
19.2939
  0
LINE
  8
0
 10
158.905
 20
19.2939
 11
158.946
 21
19.227
  0
LINE
  8
0
 10
158.946
 20
19.227
 11
158.976
 21
19.1545
  0
LINE
  8
0
 10
158.976
 20
19.1545
 11
158.994
 21
19.0782
  0
LINE
  8
0
 10
158.994
 20
19.0782
 11
159
 21
19
  0
LINE
  8
0
 10
159
 20
19
 11
159
 21
6
  0
LINE
  8
0
 10
159
 20
6
 11
158.994
 21
5.92178
  0
LINE
  8
0
 10
158.994
 20
5.92178
 11
158.976
 21
5.84549
  0
LINE
  8
0
 10
158.976
 20
5.84549
 11
158.946
 21
5.77301
  0
LINE
  8
0
 10
158.946
 20
5.77301
 11
158.905
 21
5.7061
  0
LINE
  8
0
 10
158.905
 20
5.7061
 11
158.854
 21
5.64645
  0
LINE
  8
0
 10
158.854
 20
5.64645
 11
158.794
 21
5.59549
  0
LINE
  8
0
 10
158.794
 20
5.59549
 11
158.727
 21
5.55449
  0
LINE
  8
0
 10
158.727
 20
5.55449
 11
158.655
 21
5.52448
  0
LINE
  8
0
 10
158.655
 20
5.52448
 11
158.578
 21
5.50615
  0
LINE
  8
0
 10
158.578
 20
5.50615
 11
158.5
 21
5.5
  0
LINE
  8
0
 10
158.5
 20
5.5
 11
145.5
 21
5.5
  0
LINE
  8
0
 10
185.5
 20
5.5
 11
185.422
 21
5.50615
  0
LINE
  8
0
 10
185.422
 20
5.50615
 11
185.345
 21
5.52448
  0
LINE
  8
0
 10
185.345
 20
5.52448
 11
185.273
 21
5.55449
  0
LINE
  8
0
 10
185.273
 20
5.55449
 11
185.206
 21
5.59549
  0
LINE
  8
0
 10
185.206
 20
5.59549
 11
185.146
 21
5.64645
  0
LINE
  8
0
 10
185.146
 20
5.64645
 11
185.095
 21
5.7061
  0
LINE
  8
0
 10
185.095
 20
5.7061
 11
185.054
 21
5.77301
  0
LINE
  8
0
 10
185.054
 20
5.77301
 11
185.024
 21
5.84549
  0
LINE
  8
0
 10
185.024
 20
5.84549
 11
185.006
 21
5.92178
  0
LINE
  8
0
 10
185.006
 20
5.92178
 11
185
 21
6
  0
LINE
  8
0
 10
185
 20
6
 11
185
 21
19
  0
LINE
  8
0
 10
185
 20
19
 11
185.006
 21
19.0782
  0
LINE
  8
0
 10
185.006
 20
19.0782
 11
185.024
 21
19.1545
  0
LINE
  8
0
 10
185.024
 20
19.1545
 11
185.054
 21
19.227
  0
LINE
  8
0
 10
185.054
 20
19.227
 11
185.095
 21
19.2939
  0
LINE
  8
0
 10
185.095
 20
19.2939
 11
185.146
 21
19.3535
  0
LINE
  8
0
 10
185.146
 20
19.3535
 11
185.206
 21
19.4045
  0
LINE
  8
0
 10
185.206
 20
19.4045
 11
185.273
 21
19.4455
  0
LINE
  8
0
 10
185.273
 20
19.4455
 11
185.345
 21
19.4755
  0
LINE
  8
0
 10
185.345
 20
19.4755
 11
185.422
 21
19.4939
  0
LINE
  8
0
 10
185.422
 20
19.4939
 11
185.5
 21
19.5
  0
LINE
  8
0
 10
185.5
 20
19.5
 11
198.5
 21
19.5
  0
LINE
  8
0
 10
198.5
 20
19.5
 11
198.578
 21
19.4939
  0
LINE
  8
0
 10
198.578
 20
19.4939
 11
198.655
 21
19.4755
  0
LINE
  8
0
 10
198.655
 20
19.4755
 11
198.727
 21
19.4455
  0
LINE
  8
0
 10
198.727
 20
19.4455
 11
198.794
 21
19.4045
  0
LINE
  8
0
 10
198.794
 20
19.4045
 11
198.854
 21
19.3535
  0
LINE
  8
0
 10
198.854
 20
19.3535
 11
198.905
 21
19.2939
  0
LINE
  8
0
 10
198.905
 20
19.2939
 11
198.946
 21
19.227
  0
LINE
  8
0
 10
198.946
 20
19.227
 11
198.976
 21
19.1545
  0
LINE
  8
0
 10
198.976
 20
19.1545
 11
198.994
 21
19.0782
  0
LINE
  8
0
 10
198.994
 20
19.0782
 11
199
 21
19
  0
LINE
  8
0
 10
199
 20
19
 11
199
 21
6
  0
LINE
  8
0
 10
199
 20
6
 11
198.994
 21
5.92178
  0
LINE
  8
0
 10
198.994
 20
5.92178
 11
198.976
 21
5.84549
  0
LINE
  8
0
 10
198.976
 20
5.84549
 11
198.946
 21
5.77301
  0
LINE
  8
0
 10
198.946
 20
5.77301
 11
198.905
 21
5.7061
  0
LINE
  8
0
 10
198.905
 20
5.7061
 11
198.854
 21
5.64645
  0
LINE
  8
0
 10
198.854
 20
5.64645
 11
198.794
 21
5.59549
  0
LINE
  8
0
 10
198.794
 20
5.59549
 11
198.727
 21
5.55449
  0
LINE
  8
0
 10
198.727
 20
5.55449
 11
198.655
 21
5.52448
  0
LINE
  8
0
 10
198.655
 20
5.52448
 11
198.578
 21
5.50615
  0
LINE
  8
0
 10
198.578
 20
5.50615
 11
198.5
 21
5.5
  0
LINE
  8
0
 10
198.5
 20
5.5
 11
185.5
 21
5.5
  0
LINE
  8
0
 10
77.5
 20
5.5
 11
77.4218
 21
5.50615
  0
LINE
  8
0
 10
77.4218
 20
5.50615
 11
77.3455
 21
5.52448
  0
LINE
  8
0
 10
77.3455
 20
5.52448
 11
77.273
 21
5.55449
  0
LINE
  8
0
 10
77.273
 20
5.55449
 11
77.2061
 21
5.59549
  0
LINE
  8
0
 10
77.2061
 20
5.59549
 11
77.1465
 21
5.64645
  0
LINE
  8
0
 10
77.1465
 20
5.64645
 11
77.0955
 21
5.7061
  0
LINE
  8
0
 10
77.0955
 20
5.7061
 11
77.0545
 21
5.77301
  0
LINE
  8
0
 10
77.0545
 20
5.77301
 11
77.0245
 21
5.84549
  0
LINE
  8
0
 10
77.0245
 20
5.84549
 11
77.0061
 21
5.92178
  0
LINE
  8
0
 10
77.0061
 20
5.92178
 11
77
 21
6
  0
LINE
  8
0
 10
77
 20
6
 11
77
 21
19
  0
LINE
  8
0
 10
77
 20
19
 11
77.0061
 21
19.0782
  0
LINE
  8
0
 10
77.0061
 20
19.0782
 11
77.0245
 21
19.1545
  0
LINE
  8
0
 10
77.0245
 20
19.1545
 11
77.0545
 21
19.227
  0
LINE
  8
0
 10
77.0545
 20
19.227
 11
77.0955
 21
19.2939
  0
LINE
  8
0
 10
77.0955
 20
19.2939
 11
77.1465
 21
19.3535
  0
LINE
  8
0
 10
77.1465
 20
19.3535
 11
77.2061
 21
19.4045
  0
LINE
  8
0
 10
77.2061
 20
19.4045
 11
77.273
 21
19.4455
  0
LINE
  8
0
 10
77.273
 20
19.4455
 11
77.3455
 21
19.4755
  0
LINE
  8
0
 10
77.3455
 20
19.4755
 11
77.4218
 21
19.4939
  0
LINE
  8
0
 10
77.4218
 20
19.4939
 11
77.5
 21
19.5
  0
LINE
  8
0
 10
77.5
 20
19.5
 11
90.5
 21
19.5
  0
LINE
  8
0
 10
90.5
 20
19.5
 11
90.5782
 21
19.4939
  0
LINE
  8
0
 10
90.5782
 20
19.4939
 11
90.6545
 21
19.4755
  0
LINE
  8
0
 10
90.6545
 20
19.4755
 11
90.727
 21
19.4455
  0
LINE
  8
0
 10
90.727
 20
19.4455
 11
90.7939
 21
19.4045
  0
LINE
  8
0
 10
90.7939
 20
19.4045
 11
90.8535
 21
19.3535
  0
LINE
  8
0
 10
90.8535
 20
19.3535
 11
90.9045
 21
19.2939
  0
LINE
  8
0
 10
90.9045
 20
19.2939
 11
90.9455
 21
19.227
  0
LINE
  8
0
 10
90.9455
 20
19.227
 11
90.9755
 21
19.1545
  0
LINE
  8
0
 10
90.9755
 20
19.1545
 11
90.9939
 21
19.0782
  0
LINE
  8
0
 10
90.9939
 20
19.0782
 11
91
 21
19
  0
LINE
  8
0
 10
91
 20
19
 11
91
 21
6
  0
LINE
  8
0
 10
91
 20
6
 11
90.9939
 21
5.92178
  0
LINE
  8
0
 10
90.9939
 20
5.92178
 11
90.9755
 21
5.84549
  0
LINE
  8
0
 10
90.9755
 20
5.84549
 11
90.9455
 21
5.77301
  0
LINE
  8
0
 10
90.9455
 20
5.77301
 11
90.9045
 21
5.7061
  0
LINE
  8
0
 10
90.9045
 20
5.7061
 11
90.8535
 21
5.64645
  0
LINE
  8
0
 10
90.8535
 20
5.64645
 11
90.7939
 21
5.59549
  0
LINE
  8
0
 10
90.7939
 20
5.59549
 11
90.727
 21
5.55449
  0
LINE
  8
0
 10
90.727
 20
5.55449
 11
90.6545
 21
5.52448
  0
LINE
  8
0
 10
90.6545
 20
5.52448
 11
90.5782
 21
5.50615
  0
LINE
  8
0
 10
90.5782
 20
5.50615
 11
90.5
 21
5.5
  0
LINE
  8
0
 10
90.5
 20
5.5
 11
77.5
 21
5.5
  0
LINE
  8
0
 10
37.5
 20
5.5
 11
37.4218
 21
5.50615
  0
LINE
  8
0
 10
37.4218
 20
5.50615
 11
37.3455
 21
5.52448
  0
LINE
  8
0
 10
37.3455
 20
5.52448
 11
37.273
 21
5.55449
  0
LINE
  8
0
 10
37.273
 20
5.55449
 11
37.2061
 21
5.59549
  0
LINE
  8
0
 10
37.2061
 20
5.59549
 11
37.1465
 21
5.64645
  0
LINE
  8
0
 10
37.1465
 20
5.64645
 11
37.0955
 21
5.7061
  0
LINE
  8
0
 10
37.0955
 20
5.7061
 11
37.0545
 21
5.77301
  0
LINE
  8
0
 10
37.0545
 20
5.77301
 11
37.0245
 21
5.84549
  0
LINE
  8
0
 10
37.0245
 20
5.84549
 11
37.0061
 21
5.92178
  0
LINE
  8
0
 10
37.0061
 20
5.92178
 11
37
 21
6
  0
LINE
  8
0
 10
37
 20
6
 11
37
 21
19
  0
LINE
  8
0
 10
37
 20
19
 11
37.0061
 21
19.0782
  0
LINE
  8
0
 10
37.0061
 20
19.0782
 11
37.0245
 21
19.1545
  0
LINE
  8
0
 10
37.0245
 20
19.1545
 11
37.0545
 21
19.227
  0
LINE
  8
0
 10
37.0545
 20
19.227
 11
37.0955
 21
19.2939
  0
LINE
  8
0
 10
37.0955
 20
19.2939
 11
37.1465
 21
19.3535
  0
LINE
  8
0
 10
37.1465
 20
19.3535
 11
37.2061
 21
19.4045
  0
LINE
  8
0
 10
37.2061
 20
19.4045
 11
37.273
 21
19.4455
  0
LINE
  8
0
 10
37.273
 20
19.4455
 11
37.3455
 21
19.4755
  0
LINE
  8
0
 10
37.3455
 20
19.4755
 11
37.4218
 21
19.4939
  0
LINE
  8
0
 10
37.4218
 20
19.4939
 11
37.5
 21
19.5
  0
LINE
  8
0
 10
37.5
 20
19.5
 11
50.5
 21
19.5
  0
LINE
  8
0
 10
50.5
 20
19.5
 11
50.5782
 21
19.4939
  0
LINE
  8
0
 10
50.5782
 20
19.4939
 11
50.6545
 21
19.4755
  0
LINE
  8
0
 10
50.6545
 20
19.4755
 11
50.727
 21
19.4455
  0
LINE
  8
0
 10
50.727
 20
19.4455
 11
50.7939
 21
19.4045
  0
LINE
  8
0
 10
50.7939
 20
19.4045
 11
50.8535
 21
19.3535
  0
LINE
  8
0
 10
50.8535
 20
19.3535
 11
50.9045
 21
19.2939
  0
LINE
  8
0
 10
50.9045
 20
19.2939
 11
50.9455
 21
19.227
  0
LINE
  8
0
 10
50.9455
 20
19.227
 11
50.9755
 21
19.1545
  0
LINE
  8
0
 10
50.9755
 20
19.1545
 11
50.9939
 21
19.0782
  0
LINE
  8
0
 10
50.9939
 20
19.0782
 11
51
 21
19
  0
LINE
  8
0
 10
51
 20
19
 11
51
 21
6
  0
LINE
  8
0
 10
51
 20
6
 11
50.9939
 21
5.92178
  0
LINE
  8
0
 10
50.9939
 20
5.92178
 11
50.9755
 21
5.84549
  0
LINE
  8
0
 10
50.9755
 20
5.84549
 11
50.9455
 21
5.77301
  0
LINE
  8
0
 10
50.9455
 20
5.77301
 11
50.9045
 21
5.7061
  0
LINE
  8
0
 10
50.9045
 20
5.7061
 11
50.8535
 21
5.64645
  0
LINE
  8
0
 10
50.8535
 20
5.64645
 11
50.7939
 21
5.59549
  0
LINE
  8
0
 10
50.7939
 20
5.59549
 11
50.727
 21
5.55449
  0
LINE
  8
0
 10
50.727
 20
5.55449
 11
50.6545
 21
5.52448
  0
LINE
  8
0
 10
50.6545
 20
5.52448
 11
50.5782
 21
5.50615
  0
LINE
  8
0
 10
50.5782
 20
5.50615
 11
50.5
 21
5.5
  0
LINE
  8
0
 10
50.5
 20
5.5
 11
37.5
 21
5.5
  0
LINE
  8
0
 10
126.726
 20
10.7715
 11
126.459
 21
10.8356
  0
LINE
  8
0
 10
126.459
 20
10.8356
 11
126.206
 21
10.9407
  0
LINE
  8
0
 10
126.206
 20
10.9407
 11
125.971
 21
11.0842
  0
LINE
  8
0
 10
125.971
 20
11.0842
 11
125.763
 21
11.2626
  0
LINE
  8
0
 10
125.763
 20
11.2626
 11
125.584
 21
11.4714
  0
LINE
  8
0
 10
125.584
 20
11.4714
 11
125.441
 21
11.7055
  0
LINE
  8
0
 10
125.441
 20
11.7055
 11
125.336
 21
11.9592
  0
LINE
  8
0
 10
125.336
 20
11.9592
 11
125.272
 21
12.2262
  0
LINE
  8
0
 10
125.272
 20
12.2262
 11
125.25
 21
12.5
  0
LINE
  8
0
 10
125.25
 20
12.5
 11
125.272
 21
12.7738
  0
LINE
  8
0
 10
125.272
 20
12.7738
 11
125.336
 21
13.0408
  0
LINE
  8
0
 10
125.336
 20
13.0408
 11
125.441
 21
13.2945
  0
LINE
  8
0
 10
125.441
 20
13.2945
 11
125.584
 21
13.5286
  0
LINE
  8
0
 10
125.584
 20
13.5286
 11
125.763
 21
13.7374
  0
LINE
  8
0
 10
125.763
 20
13.7374
 11
125.971
 21
13.9158
  0
LINE
  8
0
 10
125.971
 20
13.9158
 11
126.206
 21
14.0592
  0
LINE
  8
0
 10
126.206
 20
14.0592
 11
126.459
 21
14.1643
  0
LINE
  8
0
 10
126.459
 20
14.1643
 11
126.726
 21
14.2285
  0
LINE
  8
0
 10
126.726
 20
14.2285
 11
127
 21
14.25
  0
LINE
  8
0
 10
127
 20
14.25
 11
127.274
 21
14.2285
  0
LINE
  8
0
 10
127.274
 20
14.2285
 11
127.541
 21
14.1643
  0
LINE
  8
0
 10
127.541
 20
14.1643
 11
127.794
 21
14.0592
  0
LINE
  8
0
 10
127.794
 20
14.0592
 11
128.029
 21
13.9158
  0
LINE
  8
0
 10
128.029
 20
13.9158
 11
128.237
 21
13.7374
  0
LINE
  8
0
 10
128.237
 20
13.7374
 11
128.416
 21
13.5286
  0
LINE
  8
0
 10
128.416
 20
13.5286
 11
128.559
 21
13.2945
  0
LINE
  8
0
 10
128.559
 20
13.2945
 11
128.664
 21
13.0408
  0
LINE
  8
0
 10
128.664
 20
13.0408
 11
128.728
 21
12.7738
  0
LINE
  8
0
 10
128.728
 20
12.7738
 11
128.75
 21
12.5
  0
LINE
  8
0
 10
128.75
 20
12.5
 11
128.728
 21
12.2262
  0
LINE
  8
0
 10
128.728
 20
12.2262
 11
128.664
 21
11.9592
  0
LINE
  8
0
 10
128.664
 20
11.9592
 11
128.559
 21
11.7055
  0
LINE
  8
0
 10
128.559
 20
11.7055
 11
128.416
 21
11.4714
  0
LINE
  8
0
 10
128.416
 20
11.4714
 11
128.237
 21
11.2626
  0
LINE
  8
0
 10
128.237
 20
11.2626
 11
128.029
 21
11.0842
  0
LINE
  8
0
 10
128.029
 20
11.0842
 11
127.794
 21
10.9407
  0
LINE
  8
0
 10
127.794
 20
10.9407
 11
127.541
 21
10.8356
  0
LINE
  8
0
 10
127.541
 20
10.8356
 11
127.274
 21
10.7715
  0
LINE
  8
0
 10
127.274
 20
10.7715
 11
127
 21
10.75
  0
LINE
  8
0
 10
127
 20
10.75
 11
126.726
 21
10.7715
  0
LINE
  8
0
 10
5.30444
 20
4.26538
 11
5.11372
 21
4.31117
  0
LINE
  8
0
 10
5.11372
 20
4.31117
 11
4.93251
 21
4.38623
  0
LINE
  8
0
 10
4.93251
 20
4.38623
 11
4.76526
 21
4.48872
  0
LINE
  8
0
 10
4.76526
 20
4.48872
 11
4.6161
 21
4.6161
  0
LINE
  8
0
 10
4.6161
 20
4.6161
 11
4.48872
 21
4.76526
  0
LINE
  8
0
 10
4.48872
 20
4.76526
 11
4.38623
 21
4.93251
  0
LINE
  8
0
 10
4.38623
 20
4.93251
 11
4.31117
 21
5.11372
  0
LINE
  8
0
 10
4.31117
 20
5.11372
 11
4.26538
 21
5.30444
  0
LINE
  8
0
 10
4.26538
 20
5.30444
 11
4.25
 21
5.5
  0
LINE
  8
0
 10
4.25
 20
5.5
 11
4.26538
 21
5.69554
  0
LINE
  8
0
 10
4.26538
 20
5.69554
 11
4.31117
 21
5.88626
  0
LINE
  8
0
 10
4.31117
 20
5.88626
 11
4.38623
 21
6.06747
  0
LINE
  8
0
 10
4.38623
 20
6.06747
 11
4.48872
 21
6.23473
  0
LINE
  8
0
 10
4.48872
 20
6.23473
 11
4.6161
 21
6.38388
  0
LINE
  8
0
 10
4.6161
 20
6.38388
 11
4.76526
 21
6.51126
  0
LINE
  8
0
 10
4.76526
 20
6.51126
 11
4.93251
 21
6.61375
  0
LINE
  8
0
 10
4.93251
 20
6.61375
 11
5.11372
 21
6.68881
  0
LINE
  8
0
 10
5.11372
 20
6.68881
 11
5.30444
 21
6.7346
  0
LINE
  8
0
 10
5.30444
 20
6.7346
 11
5.5
 21
6.75
  0
LINE
  8
0
 10
5.5
 20
6.75
 11
5.69554
 21
6.7346
  0
LINE
  8
0
 10
5.69554
 20
6.7346
 11
5.88626
 21
6.68881
  0
LINE
  8
0
 10
5.88626
 20
6.68881
 11
6.06747
 21
6.61375
  0
LINE
  8
0
 10
6.06747
 20
6.61375
 11
6.23473
 21
6.51126
  0
LINE
  8
0
 10
6.23473
 20
6.51126
 11
6.38388
 21
6.38388
  0
LINE
  8
0
 10
6.38388
 20
6.38388
 11
6.51126
 21
6.23473
  0
LINE
  8
0
 10
6.51126
 20
6.23473
 11
6.61375
 21
6.06747
  0
LINE
  8
0
 10
6.61375
 20
6.06747
 11
6.68881
 21
5.88626
  0
LINE
  8
0
 10
6.68881
 20
5.88626
 11
6.7346
 21
5.69554
  0
LINE
  8
0
 10
6.7346
 20
5.69554
 11
6.75
 21
5.5
  0
LINE
  8
0
 10
6.75
 20
5.5
 11
6.7346
 21
5.30444
  0
LINE
  8
0
 10
6.7346
 20
5.30444
 11
6.68881
 21
5.11372
  0
LINE
  8
0
 10
6.68881
 20
5.11372
 11
6.61375
 21
4.93251
  0
LINE
  8
0
 10
6.61375
 20
4.93251
 11
6.51126
 21
4.76526
  0
LINE
  8
0
 10
6.51126
 20
4.76526
 11
6.38388
 21
4.6161
  0
LINE
  8
0
 10
6.38388
 20
4.6161
 11
6.23473
 21
4.48872
  0
LINE
  8
0
 10
6.23473
 20
4.48872
 11
6.06747
 21
4.38623
  0
LINE
  8
0
 10
6.06747
 20
4.38623
 11
5.88626
 21
4.31117
  0
LINE
  8
0
 10
5.88626
 20
4.31117
 11
5.69554
 21
4.26538
  0
LINE
  8
0
 10
5.69554
 20
4.26538
 11
5.5
 21
4.25
  0
LINE
  8
0
 10
5.5
 20
4.25
 11
5.30444
 21
4.26538
  0
LINE
  8
0
 10
32.5045
 20
3.86539
 11
32.3137
 21
3.91118
  0
LINE
  8
0
 10
32.3137
 20
3.91118
 11
32.1325
 21
3.98624
  0
LINE
  8
0
 10
32.1325
 20
3.98624
 11
31.9653
 21
4.08871
  0
LINE
  8
0
 10
31.9653
 20
4.08871
 11
31.8161
 21
4.21611
  0
LINE
  8
0
 10
31.8161
 20
4.21611
 11
31.6887
 21
4.36526
  0
LINE
  8
0
 10
31.6887
 20
4.36526
 11
31.5862
 21
4.5325
  0
LINE
  8
0
 10
31.5862
 20
4.5325
 11
31.5112
 21
4.71371
  0
LINE
  8
0
 10
31.5112
 20
4.71371
 11
31.4654
 21
4.90445
  0
LINE
  8
0
 10
31.4654
 20
4.90445
 11
31.45
 21
5.09999
  0
LINE
  8
0
 10
31.45
 20
5.09999
 11
31.4654
 21
5.29553
  0
LINE
  8
0
 10
31.4654
 20
5.29553
 11
31.5112
 21
5.48627
  0
LINE
  8
0
 10
31.5112
 20
5.48627
 11
31.5862
 21
5.66748
  0
LINE
  8
0
 10
31.5862
 20
5.66748
 11
31.6887
 21
5.83472
  0
LINE
  8
0
 10
31.6887
 20
5.83472
 11
31.8161
 21
5.98387
  0
LINE
  8
0
 10
31.8161
 20
5.98387
 11
31.9653
 21
6.11127
  0
LINE
  8
0
 10
31.9653
 20
6.11127
 11
32.1325
 21
6.21375
  0
LINE
  8
0
 10
32.1325
 20
6.21375
 11
32.3137
 21
6.28882
  0
LINE
  8
0
 10
32.3137
 20
6.28882
 11
32.5045
 21
6.33461
  0
LINE
  8
0
 10
32.5045
 20
6.33461
 11
32.7
 21
6.34999
  0
LINE
  8
0
 10
32.7
 20
6.34999
 11
32.8955
 21
6.33461
  0
LINE
  8
0
 10
32.8955
 20
6.33461
 11
33.0863
 21
6.28882
  0
LINE
  8
0
 10
33.0863
 20
6.28882
 11
33.2675
 21
6.21375
  0
LINE
  8
0
 10
33.2675
 20
6.21375
 11
33.4347
 21
6.11127
  0
LINE
  8
0
 10
33.4347
 20
6.11127
 11
33.5839
 21
5.98387
  0
LINE
  8
0
 10
33.5839
 20
5.98387
 11
33.7113
 21
5.83472
  0
LINE
  8
0
 10
33.7113
 20
5.83472
 11
33.8138
 21
5.66748
  0
LINE
  8
0
 10
33.8138
 20
5.66748
 11
33.8888
 21
5.48627
  0
LINE
  8
0
 10
33.8888
 20
5.48627
 11
33.9346
 21
5.29553
  0
LINE
  8
0
 10
33.9346
 20
5.29553
 11
33.95
 21
5.09999
  0
LINE
  8
0
 10
33.95
 20
5.09999
 11
33.9346
 21
4.90445
  0
LINE
  8
0
 10
33.9346
 20
4.90445
 11
33.8888
 21
4.71371
  0
LINE
  8
0
 10
33.8888
 20
4.71371
 11
33.8138
 21
4.5325
  0
LINE
  8
0
 10
33.8138
 20
4.5325
 11
33.7113
 21
4.36526
  0
LINE
  8
0
 10
33.7113
 20
4.36526
 11
33.5839
 21
4.21611
  0
LINE
  8
0
 10
33.5839
 20
4.21611
 11
33.4347
 21
4.08871
  0
LINE
  8
0
 10
33.4347
 20
4.08871
 11
33.2675
 21
3.98624
  0
LINE
  8
0
 10
33.2675
 20
3.98624
 11
33.0863
 21
3.91118
  0
LINE
  8
0
 10
33.0863
 20
3.91118
 11
32.8955
 21
3.86539
  0
LINE
  8
0
 10
32.8955
 20
3.86539
 11
32.7
 21
3.84999
  0
LINE
  8
0
 10
32.7
 20
3.84999
 11
32.5045
 21
3.86539
  0
LINE
  8
0
 10
115.504
 20
3.86539
 11
115.314
 21
3.91118
  0
LINE
  8
0
 10
115.314
 20
3.91118
 11
115.133
 21
3.98624
  0
LINE
  8
0
 10
115.133
 20
3.98624
 11
114.965
 21
4.08871
  0
LINE
  8
0
 10
114.965
 20
4.08871
 11
114.816
 21
4.21611
  0
LINE
  8
0
 10
114.816
 20
4.21611
 11
114.689
 21
4.36526
  0
LINE
  8
0
 10
114.689
 20
4.36526
 11
114.586
 21
4.5325
  0
LINE
  8
0
 10
114.586
 20
4.5325
 11
114.511
 21
4.71371
  0
LINE
  8
0
 10
114.511
 20
4.71371
 11
114.465
 21
4.90445
  0
LINE
  8
0
 10
114.465
 20
4.90445
 11
114.45
 21
5.09999
  0
LINE
  8
0
 10
114.45
 20
5.09999
 11
114.465
 21
5.29553
  0
LINE
  8
0
 10
114.465
 20
5.29553
 11
114.511
 21
5.48627
  0
LINE
  8
0
 10
114.511
 20
5.48627
 11
114.586
 21
5.66748
  0
LINE
  8
0
 10
114.586
 20
5.66748
 11
114.689
 21
5.83472
  0
LINE
  8
0
 10
114.689
 20
5.83472
 11
114.816
 21
5.98387
  0
LINE
  8
0
 10
114.816
 20
5.98387
 11
114.965
 21
6.11127
  0
LINE
  8
0
 10
114.965
 20
6.11127
 11
115.133
 21
6.21375
  0
LINE
  8
0
 10
115.133
 20
6.21375
 11
115.314
 21
6.28882
  0
LINE
  8
0
 10
115.314
 20
6.28882
 11
115.504
 21
6.33461
  0
LINE
  8
0
 10
115.504
 20
6.33461
 11
115.7
 21
6.34999
  0
LINE
  8
0
 10
115.7
 20
6.34999
 11
115.896
 21
6.33461
  0
LINE
  8
0
 10
115.896
 20
6.33461
 11
116.086
 21
6.28882
  0
LINE
  8
0
 10
116.086
 20
6.28882
 11
116.267
 21
6.21375
  0
LINE
  8
0
 10
116.267
 20
6.21375
 11
116.435
 21
6.11127
  0
LINE
  8
0
 10
116.435
 20
6.11127
 11
116.584
 21
5.98387
  0
LINE
  8
0
 10
116.584
 20
5.98387
 11
116.711
 21
5.83472
  0
LINE
  8
0
 10
116.711
 20
5.83472
 11
116.814
 21
5.66748
  0
LINE
  8
0
 10
116.814
 20
5.66748
 11
116.889
 21
5.48627
  0
LINE
  8
0
 10
116.889
 20
5.48627
 11
116.935
 21
5.29553
  0
LINE
  8
0
 10
116.935
 20
5.29553
 11
116.95
 21
5.09999
  0
LINE
  8
0
 10
116.95
 20
5.09999
 11
116.935
 21
4.90445
  0
LINE
  8
0
 10
116.935
 20
4.90445
 11
116.889
 21
4.71371
  0
LINE
  8
0
 10
116.889
 20
4.71371
 11
116.814
 21
4.5325
  0
LINE
  8
0
 10
116.814
 20
4.5325
 11
116.711
 21
4.36526
  0
LINE
  8
0
 10
116.711
 20
4.36526
 11
116.584
 21
4.21611
  0
LINE
  8
0
 10
116.584
 20
4.21611
 11
116.435
 21
4.08871
  0
LINE
  8
0
 10
116.435
 20
4.08871
 11
116.267
 21
3.98624
  0
LINE
  8
0
 10
116.267
 20
3.98624
 11
116.086
 21
3.91118
  0
LINE
  8
0
 10
116.086
 20
3.91118
 11
115.896
 21
3.86539
  0
LINE
  8
0
 10
115.896
 20
3.86539
 11
115.7
 21
3.84999
  0
LINE
  8
0
 10
115.7
 20
3.84999
 11
115.504
 21
3.86539
  0
LINE
  8
0
 10
140.504
 20
3.86539
 11
140.314
 21
3.91118
  0
LINE
  8
0
 10
140.314
 20
3.91118
 11
140.133
 21
3.98624
  0
LINE
  8
0
 10
140.133
 20
3.98624
 11
139.965
 21
4.08871
  0
LINE
  8
0
 10
139.965
 20
4.08871
 11
139.816
 21
4.21611
  0
LINE
  8
0
 10
139.816
 20
4.21611
 11
139.689
 21
4.36526
  0
LINE
  8
0
 10
139.689
 20
4.36526
 11
139.586
 21
4.5325
  0
LINE
  8
0
 10
139.586
 20
4.5325
 11
139.511
 21
4.71371
  0
LINE
  8
0
 10
139.511
 20
4.71371
 11
139.465
 21
4.90445
  0
LINE
  8
0
 10
139.465
 20
4.90445
 11
139.45
 21
5.09999
  0
LINE
  8
0
 10
139.45
 20
5.09999
 11
139.465
 21
5.29553
  0
LINE
  8
0
 10
139.465
 20
5.29553
 11
139.511
 21
5.48627
  0
LINE
  8
0
 10
139.511
 20
5.48627
 11
139.586
 21
5.66748
  0
LINE
  8
0
 10
139.586
 20
5.66748
 11
139.689
 21
5.83472
  0
LINE
  8
0
 10
139.689
 20
5.83472
 11
139.816
 21
5.98387
  0
LINE
  8
0
 10
139.816
 20
5.98387
 11
139.965
 21
6.11127
  0
LINE
  8
0
 10
139.965
 20
6.11127
 11
140.133
 21
6.21375
  0
LINE
  8
0
 10
140.133
 20
6.21375
 11
140.314
 21
6.28882
  0
LINE
  8
0
 10
140.314
 20
6.28882
 11
140.504
 21
6.33461
  0
LINE
  8
0
 10
140.504
 20
6.33461
 11
140.7
 21
6.34999
  0
LINE
  8
0
 10
140.7
 20
6.34999
 11
140.896
 21
6.33461
  0
LINE
  8
0
 10
140.896
 20
6.33461
 11
141.086
 21
6.28882
  0
LINE
  8
0
 10
141.086
 20
6.28882
 11
141.267
 21
6.21375
  0
LINE
  8
0
 10
141.267
 20
6.21375
 11
141.435
 21
6.11127
  0
LINE
  8
0
 10
141.435
 20
6.11127
 11
141.584
 21
5.98387
  0
LINE
  8
0
 10
141.584
 20
5.98387
 11
141.711
 21
5.83472
  0
LINE
  8
0
 10
141.711
 20
5.83472
 11
141.814
 21
5.66748
  0
LINE
  8
0
 10
141.814
 20
5.66748
 11
141.889
 21
5.48627
  0
LINE
  8
0
 10
141.889
 20
5.48627
 11
141.935
 21
5.29553
  0
LINE
  8
0
 10
141.935
 20
5.29553
 11
141.95
 21
5.09999
  0
LINE
  8
0
 10
141.95
 20
5.09999
 11
141.935
 21
4.90445
  0
LINE
  8
0
 10
141.935
 20
4.90445
 11
141.889
 21
4.71371
  0
LINE
  8
0
 10
141.889
 20
4.71371
 11
141.814
 21
4.5325
  0
LINE
  8
0
 10
141.814
 20
4.5325
 11
141.711
 21
4.36526
  0
LINE
  8
0
 10
141.711
 20
4.36526
 11
141.584
 21
4.21611
  0
LINE
  8
0
 10
141.584
 20
4.21611
 11
141.435
 21
4.08871
  0
LINE
  8
0
 10
141.435
 20
4.08871
 11
141.267
 21
3.98624
  0
LINE
  8
0
 10
141.267
 20
3.98624
 11
141.086
 21
3.91118
  0
LINE
  8
0
 10
141.086
 20
3.91118
 11
140.896
 21
3.86539
  0
LINE
  8
0
 10
140.896
 20
3.86539
 11
140.7
 21
3.84999
  0
LINE
  8
0
 10
140.7
 20
3.84999
 11
140.504
 21
3.86539
  0
LINE
  8
0
 10
241.504
 20
3.86539
 11
241.314
 21
3.91118
  0
LINE
  8
0
 10
241.314
 20
3.91118
 11
241.133
 21
3.98624
  0
LINE
  8
0
 10
241.133
 20
3.98624
 11
240.965
 21
4.08871
  0
LINE
  8
0
 10
240.965
 20
4.08871
 11
240.816
 21
4.21611
  0
LINE
  8
0
 10
240.816
 20
4.21611
 11
240.689
 21
4.36526
  0
LINE
  8
0
 10
240.689
 20
4.36526
 11
240.586
 21
4.5325
  0
LINE
  8
0
 10
240.586
 20
4.5325
 11
240.511
 21
4.71371
  0
LINE
  8
0
 10
240.511
 20
4.71371
 11
240.465
 21
4.90445
  0
LINE
  8
0
 10
240.465
 20
4.90445
 11
240.45
 21
5.09999
  0
LINE
  8
0
 10
240.45
 20
5.09999
 11
240.465
 21
5.29553
  0
LINE
  8
0
 10
240.465
 20
5.29553
 11
240.511
 21
5.48627
  0
LINE
  8
0
 10
240.511
 20
5.48627
 11
240.586
 21
5.66748
  0
LINE
  8
0
 10
240.586
 20
5.66748
 11
240.689
 21
5.83472
  0
LINE
  8
0
 10
240.689
 20
5.83472
 11
240.816
 21
5.98387
  0
LINE
  8
0
 10
240.816
 20
5.98387
 11
240.965
 21
6.11127
  0
LINE
  8
0
 10
240.965
 20
6.11127
 11
241.133
 21
6.21375
  0
LINE
  8
0
 10
241.133
 20
6.21375
 11
241.314
 21
6.28882
  0
LINE
  8
0
 10
241.314
 20
6.28882
 11
241.504
 21
6.33461
  0
LINE
  8
0
 10
241.504
 20
6.33461
 11
241.7
 21
6.34999
  0
LINE
  8
0
 10
241.7
 20
6.34999
 11
241.896
 21
6.33461
  0
LINE
  8
0
 10
241.896
 20
6.33461
 11
242.086
 21
6.28882
  0
LINE
  8
0
 10
242.086
 20
6.28882
 11
242.267
 21
6.21375
  0
LINE
  8
0
 10
242.267
 20
6.21375
 11
242.435
 21
6.11127
  0
LINE
  8
0
 10
242.435
 20
6.11127
 11
242.584
 21
5.98387
  0
LINE
  8
0
 10
242.584
 20
5.98387
 11
242.711
 21
5.83472
  0
LINE
  8
0
 10
242.711
 20
5.83472
 11
242.814
 21
5.66748
  0
LINE
  8
0
 10
242.814
 20
5.66748
 11
242.889
 21
5.48627
  0
LINE
  8
0
 10
242.889
 20
5.48627
 11
242.935
 21
5.29553
  0
LINE
  8
0
 10
242.935
 20
5.29553
 11
242.95
 21
5.09999
  0
LINE
  8
0
 10
242.95
 20
5.09999
 11
242.935
 21
4.90445
  0
LINE
  8
0
 10
242.935
 20
4.90445
 11
242.889
 21
4.71371
  0
LINE
  8
0
 10
242.889
 20
4.71371
 11
242.814
 21
4.5325
  0
LINE
  8
0
 10
242.814
 20
4.5325
 11
242.711
 21
4.36526
  0
LINE
  8
0
 10
242.711
 20
4.36526
 11
242.584
 21
4.21611
  0
LINE
  8
0
 10
242.584
 20
4.21611
 11
242.435
 21
4.08871
  0
LINE
  8
0
 10
242.435
 20
4.08871
 11
242.267
 21
3.98624
  0
LINE
  8
0
 10
242.267
 20
3.98624
 11
242.086
 21
3.91118
  0
LINE
  8
0
 10
242.086
 20
3.91118
 11
241.896
 21
3.86539
  0
LINE
  8
0
 10
241.896
 20
3.86539
 11
241.7
 21
3.84999
  0
LINE
  8
0
 10
241.7
 20
3.84999
 11
241.504
 21
3.86539
  0
LINE
  8
0
 10
272.254
 20
3.86539
 11
272.064
 21
3.91118
  0
LINE
  8
0
 10
272.064
 20
3.91118
 11
271.883
 21
3.98624
  0
LINE
  8
0
 10
271.883
 20
3.98624
 11
271.715
 21
4.08871
  0
LINE
  8
0
 10
271.715
 20
4.08871
 11
271.566
 21
4.21611
  0
LINE
  8
0
 10
271.566
 20
4.21611
 11
271.439
 21
4.36526
  0
LINE
  8
0
 10
271.439
 20
4.36526
 11
271.336
 21
4.5325
  0
LINE
  8
0
 10
271.336
 20
4.5325
 11
271.261
 21
4.71371
  0
LINE
  8
0
 10
271.261
 20
4.71371
 11
271.215
 21
4.90445
  0
LINE
  8
0
 10
271.215
 20
4.90445
 11
271.2
 21
5.09999
  0
LINE
  8
0
 10
271.2
 20
5.09999
 11
271.215
 21
5.29553
  0
LINE
  8
0
 10
271.215
 20
5.29553
 11
271.261
 21
5.48627
  0
LINE
  8
0
 10
271.261
 20
5.48627
 11
271.336
 21
5.66748
  0
LINE
  8
0
 10
271.336
 20
5.66748
 11
271.439
 21
5.83472
  0
LINE
  8
0
 10
271.439
 20
5.83472
 11
271.566
 21
5.98387
  0
LINE
  8
0
 10
271.566
 20
5.98387
 11
271.715
 21
6.11127
  0
LINE
  8
0
 10
271.715
 20
6.11127
 11
271.883
 21
6.21375
  0
LINE
  8
0
 10
271.883
 20
6.21375
 11
272.064
 21
6.28882
  0
LINE
  8
0
 10
272.064
 20
6.28882
 11
272.254
 21
6.33461
  0
LINE
  8
0
 10
272.254
 20
6.33461
 11
272.45
 21
6.34999
  0
LINE
  8
0
 10
272.45
 20
6.34999
 11
272.646
 21
6.33461
  0
LINE
  8
0
 10
272.646
 20
6.33461
 11
272.836
 21
6.28882
  0
LINE
  8
0
 10
272.836
 20
6.28882
 11
273.017
 21
6.21375
  0
LINE
  8
0
 10
273.017
 20
6.21375
 11
273.185
 21
6.11127
  0
LINE
  8
0
 10
273.185
 20
6.11127
 11
273.334
 21
5.98387
  0
LINE
  8
0
 10
273.334
 20
5.98387
 11
273.461
 21
5.83472
  0
LINE
  8
0
 10
273.461
 20
5.83472
 11
273.564
 21
5.66748
  0
LINE
  8
0
 10
273.564
 20
5.66748
 11
273.639
 21
5.48627
  0
LINE
  8
0
 10
273.639
 20
5.48627
 11
273.685
 21
5.29553
  0
LINE
  8
0
 10
273.685
 20
5.29553
 11
273.7
 21
5.09999
  0
LINE
  8
0
 10
273.7
 20
5.09999
 11
273.685
 21
4.90445
  0
LINE
  8
0
 10
273.685
 20
4.90445
 11
273.639
 21
4.71371
  0
LINE
  8
0
 10
273.639
 20
4.71371
 11
273.564
 21
4.5325
  0
LINE
  8
0
 10
273.564
 20
4.5325
 11
273.461
 21
4.36526
  0
LINE
  8
0
 10
273.461
 20
4.36526
 11
273.334
 21
4.21611
  0
LINE
  8
0
 10
273.334
 20
4.21611
 11
273.185
 21
4.08871
  0
LINE
  8
0
 10
273.185
 20
4.08871
 11
273.017
 21
3.98624
  0
LINE
  8
0
 10
273.017
 20
3.98624
 11
272.836
 21
3.91118
  0
LINE
  8
0
 10
272.836
 20
3.91118
 11
272.646
 21
3.86539
  0
LINE
  8
0
 10
272.646
 20
3.86539
 11
272.45
 21
3.84999
  0
LINE
  8
0
 10
272.45
 20
3.84999
 11
272.254
 21
3.86539
  0
ENDSEC
  0
SECTION
  2
OBJECTS
  0
DICTIONARY
  0
ENDSEC
  0
EOF
