999
Woody controller body rev A - Mouth cap (mouth_cap)
999
Material: hardwood, the owner's choice (the parts are named oak); stained a very dark ebony, the grain still showing, under a satin oil finish
999
Thickness: 6 mm (ends.mouth_cap_t)
999
Quantity per instrument: 1
999
Units mm. Cut every closed outline. cad d5a05c4fa46a; verify: python3 tools/cad.py explain fab-dxf-mouth-cap
  0
SECTION
  2
BLOCKS
  0
ENDSEC
  0
SECTION
  2
ENTITIES
  0
LINE
  8
0
 10
55.7346
 20
0.0184631
 11
55.9635
 21
0.07341
  0
LINE
  8
0
 10
55.9635
 20
0.07341
 11
56.181
 21
0.163483
  0
LINE
  8
0
 10
56.181
 20
0.163483
 11
56.3817
 21
0.286469
  0
LINE
  8
0
 10
56.3817
 20
0.286469
 11
56.5607
 21
0.439346
  0
LINE
  8
0
 10
56.5607
 20
0.439346
 11
56.7135
 21
0.618317
  0
LINE
  8
0
 10
56.7135
 20
0.618317
 11
56.8365
 21
0.819016
  0
LINE
  8
0
 10
56.8365
 20
0.819016
 11
56.9266
 21
1.03647
  0
LINE
  8
0
 10
56.9266
 20
1.03647
 11
56.9815
 21
1.26535
  0
LINE
  8
0
 10
56.9815
 20
1.26535
 11
57
 21
1.5
  0
LINE
  8
0
 10
57
 20
1.5
 11
57
 21
37.5
  0
LINE
  8
0
 10
57
 20
37.5
 11
56.9815
 21
37.7346
  0
LINE
  8
0
 10
56.9815
 20
37.7346
 11
56.9266
 21
37.9635
  0
LINE
  8
0
 10
56.9266
 20
37.9635
 11
56.8365
 21
38.181
  0
LINE
  8
0
 10
56.8365
 20
38.181
 11
56.7135
 21
38.3817
  0
LINE
  8
0
 10
56.7135
 20
38.3817
 11
56.5607
 21
38.5607
  0
LINE
  8
0
 10
56.5607
 20
38.5607
 11
56.3817
 21
38.7135
  0
LINE
  8
0
 10
56.3817
 20
38.7135
 11
56.181
 21
38.8365
  0
LINE
  8
0
 10
56.181
 20
38.8365
 11
55.9635
 21
38.9266
  0
LINE
  8
0
 10
55.9635
 20
38.9266
 11
55.7346
 21
38.9815
  0
LINE
  8
0
 10
55.7346
 20
38.9815
 11
55.5
 21
39
  0
LINE
  8
0
 10
55.5
 20
39
 11
1.5
 21
39
  0
LINE
  8
0
 10
1.5
 20
39
 11
1.26535
 21
38.9815
  0
LINE
  8
0
 10
1.26535
 20
38.9815
 11
1.03647
 21
38.9266
  0
LINE
  8
0
 10
1.03647
 20
38.9266
 11
0.819016
 21
38.8365
  0
LINE
  8
0
 10
0.819016
 20
38.8365
 11
0.618317
 21
38.7135
  0
LINE
  8
0
 10
0.618317
 20
38.7135
 11
0.439346
 21
38.5607
  0
LINE
  8
0
 10
0.439346
 20
38.5607
 11
0.286469
 21
38.3817
  0
LINE
  8
0
 10
0.286469
 20
38.3817
 11
0.163483
 21
38.181
  0
LINE
  8
0
 10
0.163483
 20
38.181
 11
0.07341
 21
37.9635
  0
LINE
  8
0
 10
0.07341
 20
37.9635
 11
0.0184631
 21
37.7346
  0
LINE
  8
0
 10
0.0184631
 20
37.7346
 11
0
 21
37.5
  0
LINE
  8
0
 10
0
 20
37.5
 11
0
 21
1.5
  0
LINE
  8
0
 10
0
 20
1.5
 11
0.0184631
 21
1.26535
  0
LINE
  8
0
 10
0.0184631
 20
1.26535
 11
0.07341
 21
1.03647
  0
LINE
  8
0
 10
0.07341
 20
1.03647
 11
0.163483
 21
0.819016
  0
LINE
  8
0
 10
0.163483
 20
0.819016
 11
0.286469
 21
0.618317
  0
LINE
  8
0
 10
0.286469
 20
0.618317
 11
0.439346
 21
0.439346
  0
LINE
  8
0
 10
0.439346
 20
0.439346
 11
0.618317
 21
0.286469
  0
LINE
  8
0
 10
0.618317
 20
0.286469
 11
0.819016
 21
0.163483
  0
LINE
  8
0
 10
0.819016
 20
0.163483
 11
1.03647
 21
0.07341
  0
LINE
  8
0
 10
1.03647
 20
0.07341
 11
1.26535
 21
0.0184631
  0
LINE
  8
0
 10
1.26535
 20
0.0184631
 11
1.5
 21
0
  0
LINE
  8
0
 10
1.5
 20
0
 11
55.5
 21
0
  0
LINE
  8
0
 10
55.5
 20
0
 11
55.7346
 21
0.0184631
  0
LINE
  8
0
 10
27.9603
 20
15.4925
 11
27.4339
 21
15.6189
  0
LINE
  8
0
 10
27.4339
 20
15.6189
 11
26.9337
 21
15.826
  0
LINE
  8
0
 10
26.9337
 20
15.826
 11
26.4721
 21
16.1089
  0
LINE
  8
0
 10
26.4721
 20
16.1089
 11
26.0605
 21
16.4605
  0
LINE
  8
0
 10
26.0605
 20
16.4605
 11
25.7089
 21
16.8721
  0
LINE
  8
0
 10
25.7089
 20
16.8721
 11
25.426
 21
17.3337
  0
LINE
  8
0
 10
25.426
 20
17.3337
 11
25.2188
 21
17.8339
  0
LINE
  8
0
 10
25.2188
 20
17.8339
 11
25.0925
 21
18.3603
  0
LINE
  8
0
 10
25.0925
 20
18.3603
 11
25.05
 21
18.9
  0
LINE
  8
0
 10
25.05
 20
18.9
 11
25.0925
 21
19.4397
  0
LINE
  8
0
 10
25.0925
 20
19.4397
 11
25.2188
 21
19.9661
  0
LINE
  8
0
 10
25.2188
 20
19.9661
 11
25.426
 21
20.4663
  0
LINE
  8
0
 10
25.426
 20
20.4663
 11
25.7089
 21
20.9279
  0
LINE
  8
0
 10
25.7089
 20
20.9279
 11
26.0605
 21
21.3395
  0
LINE
  8
0
 10
26.0605
 20
21.3395
 11
26.4721
 21
21.6911
  0
LINE
  8
0
 10
26.4721
 20
21.6911
 11
26.9337
 21
21.974
  0
LINE
  8
0
 10
26.9337
 20
21.974
 11
27.4339
 21
22.1811
  0
LINE
  8
0
 10
27.4339
 20
22.1811
 11
27.9603
 21
22.3075
  0
LINE
  8
0
 10
27.9603
 20
22.3075
 11
28.5
 21
22.35
  0
LINE
  8
0
 10
28.5
 20
22.35
 11
29.0397
 21
22.3075
  0
LINE
  8
0
 10
29.0397
 20
22.3075
 11
29.5661
 21
22.1811
  0
LINE
  8
0
 10
29.5661
 20
22.1811
 11
30.0663
 21
21.974
  0
LINE
  8
0
 10
30.0663
 20
21.974
 11
30.5278
 21
21.6911
  0
LINE
  8
0
 10
30.5278
 20
21.6911
 11
30.9395
 21
21.3395
  0
LINE
  8
0
 10
30.9395
 20
21.3395
 11
31.2911
 21
20.9279
  0
LINE
  8
0
 10
31.2911
 20
20.9279
 11
31.574
 21
20.4663
  0
LINE
  8
0
 10
31.574
 20
20.4663
 11
31.7811
 21
19.9661
  0
LINE
  8
0
 10
31.7811
 20
19.9661
 11
31.9075
 21
19.4397
  0
LINE
  8
0
 10
31.9075
 20
19.4397
 11
31.95
 21
18.9
  0
LINE
  8
0
 10
31.95
 20
18.9
 11
31.9075
 21
18.3603
  0
LINE
  8
0
 10
31.9075
 20
18.3603
 11
31.7811
 21
17.8339
  0
LINE
  8
0
 10
31.7811
 20
17.8339
 11
31.574
 21
17.3337
  0
LINE
  8
0
 10
31.574
 20
17.3337
 11
31.2911
 21
16.8721
  0
LINE
  8
0
 10
31.2911
 20
16.8721
 11
30.9395
 21
16.4605
  0
LINE
  8
0
 10
30.9395
 20
16.4605
 11
30.5278
 21
16.1089
  0
LINE
  8
0
 10
30.5278
 20
16.1089
 11
30.0663
 21
15.826
  0
LINE
  8
0
 10
30.0663
 20
15.826
 11
29.5661
 21
15.6189
  0
LINE
  8
0
 10
29.5661
 20
15.6189
 11
29.0397
 21
15.4925
  0
LINE
  8
0
 10
29.0397
 20
15.4925
 11
28.5
 21
15.45
  0
LINE
  8
0
 10
28.5
 20
15.45
 11
27.9603
 21
15.4925
  0
ENDSEC
  0
SECTION
  2
OBJECTS
  0
DICTIONARY
  0
ENDSEC
  0
EOF
