999
Woody controller body rev A - Oak top (oak_top)
999
Material: hardwood, the owner's choice (the parts are named oak); stained a very dark ebony, the grain still showing, under a satin oil finish
999
Thickness: 6 mm (the flush rule: switch.keycap_top_above_seat - switch.total_travel)
999
Quantity per instrument: 1
999
Units mm. Cut every closed outline. cad 7a82add52783; verify: python3 tools/cad.py explain fab-dxf-oak-top-inserts
  0
SECTION
  2
BLOCKS
  0
ENDSEC
  0
SECTION
  2
ENTITIES
  0
LINE
  8
0
 10
271.413
 20
44.0246
 11
271.718
 21
44.0979
  0
LINE
  8
0
 10
271.718
 20
44.0979
 11
272.008
 21
44.218
  0
LINE
  8
0
 10
272.008
 20
44.218
 11
272.276
 21
44.382
  0
LINE
  8
0
 10
272.276
 20
44.382
 11
272.514
 21
44.5858
  0
LINE
  8
0
 10
272.514
 20
44.5858
 11
272.718
 21
44.8244
  0
LINE
  8
0
 10
272.718
 20
44.8244
 11
272.882
 21
45.092
  0
LINE
  8
0
 10
272.882
 20
45.092
 11
273.002
 21
45.382
  0
LINE
  8
0
 10
273.002
 20
45.382
 11
273.075
 21
45.6871
  0
LINE
  8
0
 10
273.075
 20
45.6871
 11
273.1
 21
46
  0
LINE
  8
0
 10
273.1
 20
46
 11
273.075
 21
46.3129
  0
LINE
  8
0
 10
273.075
 20
46.3129
 11
273.002
 21
46.618
  0
LINE
  8
0
 10
273.002
 20
46.618
 11
272.882
 21
46.908
  0
LINE
  8
0
 10
272.882
 20
46.908
 11
272.718
 21
47.1756
  0
LINE
  8
0
 10
272.718
 20
47.1756
 11
272.514
 21
47.4142
  0
LINE
  8
0
 10
272.514
 20
47.4142
 11
272.276
 21
47.618
  0
LINE
  8
0
 10
272.276
 20
47.618
 11
272.008
 21
47.782
  0
LINE
  8
0
 10
272.008
 20
47.782
 11
271.718
 21
47.9021
  0
LINE
  8
0
 10
271.718
 20
47.9021
 11
271.413
 21
47.9754
  0
LINE
  8
0
 10
271.413
 20
47.9754
 11
271.1
 21
48
  0
LINE
  8
0
 10
271.1
 20
48
 11
270.787
 21
47.9754
  0
LINE
  8
0
 10
270.787
 20
47.9754
 11
270.482
 21
47.9021
  0
LINE
  8
0
 10
270.482
 20
47.9021
 11
270.192
 21
47.782
  0
LINE
  8
0
 10
270.192
 20
47.782
 11
269.924
 21
47.618
  0
LINE
  8
0
 10
269.924
 20
47.618
 11
269.686
 21
47.4142
  0
LINE
  8
0
 10
269.686
 20
47.4142
 11
269.482
 21
47.1756
  0
LINE
  8
0
 10
269.482
 20
47.1756
 11
269.318
 21
46.908
  0
LINE
  8
0
 10
269.318
 20
46.908
 11
269.198
 21
46.618
  0
LINE
  8
0
 10
269.198
 20
46.618
 11
269.125
 21
46.3129
  0
LINE
  8
0
 10
269.125
 20
46.3129
 11
269.1
 21
46
  0
LINE
  8
0
 10
269.1
 20
46
 11
269.125
 21
45.6871
  0
LINE
  8
0
 10
269.125
 20
45.6871
 11
269.198
 21
45.382
  0
LINE
  8
0
 10
269.198
 20
45.382
 11
269.318
 21
45.092
  0
LINE
  8
0
 10
269.318
 20
45.092
 11
269.482
 21
44.8244
  0
LINE
  8
0
 10
269.482
 20
44.8244
 11
269.686
 21
44.5858
  0
LINE
  8
0
 10
269.686
 20
44.5858
 11
269.924
 21
44.382
  0
LINE
  8
0
 10
269.924
 20
44.382
 11
270.192
 21
44.218
  0
LINE
  8
0
 10
270.192
 20
44.218
 11
270.482
 21
44.0979
  0
LINE
  8
0
 10
270.482
 20
44.0979
 11
270.787
 21
44.0246
  0
LINE
  8
0
 10
270.787
 20
44.0246
 11
271.1
 21
44
  0
LINE
  8
0
 10
271.1
 20
44
 11
271.413
 21
44.0246
  0
LINE
  8
0
 10
286.013
 20
44.0246
 11
286.318
 21
44.0979
  0
LINE
  8
0
 10
286.318
 20
44.0979
 11
286.608
 21
44.218
  0
LINE
  8
0
 10
286.608
 20
44.218
 11
286.876
 21
44.382
  0
LINE
  8
0
 10
286.876
 20
44.382
 11
287.114
 21
44.5858
  0
LINE
  8
0
 10
287.114
 20
44.5858
 11
287.318
 21
44.8244
  0
LINE
  8
0
 10
287.318
 20
44.8244
 11
287.482
 21
45.092
  0
LINE
  8
0
 10
287.482
 20
45.092
 11
287.602
 21
45.382
  0
LINE
  8
0
 10
287.602
 20
45.382
 11
287.675
 21
45.6871
  0
LINE
  8
0
 10
287.675
 20
45.6871
 11
287.7
 21
46
  0
LINE
  8
0
 10
287.7
 20
46
 11
287.675
 21
46.3129
  0
LINE
  8
0
 10
287.675
 20
46.3129
 11
287.602
 21
46.618
  0
LINE
  8
0
 10
287.602
 20
46.618
 11
287.482
 21
46.908
  0
LINE
  8
0
 10
287.482
 20
46.908
 11
287.318
 21
47.1756
  0
LINE
  8
0
 10
287.318
 20
47.1756
 11
287.114
 21
47.4142
  0
LINE
  8
0
 10
287.114
 20
47.4142
 11
286.876
 21
47.618
  0
LINE
  8
0
 10
286.876
 20
47.618
 11
286.608
 21
47.782
  0
LINE
  8
0
 10
286.608
 20
47.782
 11
286.318
 21
47.9021
  0
LINE
  8
0
 10
286.318
 20
47.9021
 11
286.013
 21
47.9754
  0
LINE
  8
0
 10
286.013
 20
47.9754
 11
285.7
 21
48
  0
LINE
  8
0
 10
285.7
 20
48
 11
285.387
 21
47.9754
  0
LINE
  8
0
 10
285.387
 20
47.9754
 11
285.082
 21
47.9021
  0
LINE
  8
0
 10
285.082
 20
47.9021
 11
284.792
 21
47.782
  0
LINE
  8
0
 10
284.792
 20
47.782
 11
284.524
 21
47.618
  0
LINE
  8
0
 10
284.524
 20
47.618
 11
284.286
 21
47.4142
  0
LINE
  8
0
 10
284.286
 20
47.4142
 11
284.082
 21
47.1756
  0
LINE
  8
0
 10
284.082
 20
47.1756
 11
283.918
 21
46.908
  0
LINE
  8
0
 10
283.918
 20
46.908
 11
283.798
 21
46.618
  0
LINE
  8
0
 10
283.798
 20
46.618
 11
283.725
 21
46.3129
  0
LINE
  8
0
 10
283.725
 20
46.3129
 11
283.7
 21
46
  0
LINE
  8
0
 10
283.7
 20
46
 11
283.725
 21
45.6871
  0
LINE
  8
0
 10
283.725
 20
45.6871
 11
283.798
 21
45.382
  0
LINE
  8
0
 10
283.798
 20
45.382
 11
283.918
 21
45.092
  0
LINE
  8
0
 10
283.918
 20
45.092
 11
284.082
 21
44.8244
  0
LINE
  8
0
 10
284.082
 20
44.8244
 11
284.286
 21
44.5858
  0
LINE
  8
0
 10
284.286
 20
44.5858
 11
284.524
 21
44.382
  0
LINE
  8
0
 10
284.524
 20
44.382
 11
284.792
 21
44.218
  0
LINE
  8
0
 10
284.792
 20
44.218
 11
285.082
 21
44.0979
  0
LINE
  8
0
 10
285.082
 20
44.0979
 11
285.387
 21
44.0246
  0
LINE
  8
0
 10
285.387
 20
44.0246
 11
285.7
 21
44
  0
LINE
  8
0
 10
285.7
 20
44
 11
286.013
 21
44.0246
  0
LINE
  8
0
 10
286.013
 20
9.02461
 11
286.318
 21
9.09789
  0
LINE
  8
0
 10
286.318
 20
9.09789
 11
286.608
 21
9.21797
  0
LINE
  8
0
 10
286.608
 20
9.21797
 11
286.876
 21
9.38196
  0
LINE
  8
0
 10
286.876
 20
9.38196
 11
287.114
 21
9.58578
  0
LINE
  8
0
 10
287.114
 20
9.58578
 11
287.318
 21
9.82442
  0
LINE
  8
0
 10
287.318
 20
9.82442
 11
287.482
 21
10.092
  0
LINE
  8
0
 10
287.482
 20
10.092
 11
287.602
 21
10.382
  0
LINE
  8
0
 10
287.602
 20
10.382
 11
287.675
 21
10.6871
  0
LINE
  8
0
 10
287.675
 20
10.6871
 11
287.7
 21
11
  0
LINE
  8
0
 10
287.7
 20
11
 11
287.675
 21
11.3129
  0
LINE
  8
0
 10
287.675
 20
11.3129
 11
287.602
 21
11.618
  0
LINE
  8
0
 10
287.602
 20
11.618
 11
287.482
 21
11.908
  0
LINE
  8
0
 10
287.482
 20
11.908
 11
287.318
 21
12.1756
  0
LINE
  8
0
 10
287.318
 20
12.1756
 11
287.114
 21
12.4142
  0
LINE
  8
0
 10
287.114
 20
12.4142
 11
286.876
 21
12.618
  0
LINE
  8
0
 10
286.876
 20
12.618
 11
286.608
 21
12.782
  0
LINE
  8
0
 10
286.608
 20
12.782
 11
286.318
 21
12.9021
  0
LINE
  8
0
 10
286.318
 20
12.9021
 11
286.013
 21
12.9754
  0
LINE
  8
0
 10
286.013
 20
12.9754
 11
285.7
 21
13
  0
LINE
  8
0
 10
285.7
 20
13
 11
285.387
 21
12.9754
  0
LINE
  8
0
 10
285.387
 20
12.9754
 11
285.082
 21
12.9021
  0
LINE
  8
0
 10
285.082
 20
12.9021
 11
284.792
 21
12.782
  0
LINE
  8
0
 10
284.792
 20
12.782
 11
284.524
 21
12.618
  0
LINE
  8
0
 10
284.524
 20
12.618
 11
284.286
 21
12.4142
  0
LINE
  8
0
 10
284.286
 20
12.4142
 11
284.082
 21
12.1756
  0
LINE
  8
0
 10
284.082
 20
12.1756
 11
283.918
 21
11.908
  0
LINE
  8
0
 10
283.918
 20
11.908
 11
283.798
 21
11.618
  0
LINE
  8
0
 10
283.798
 20
11.618
 11
283.725
 21
11.3129
  0
LINE
  8
0
 10
283.725
 20
11.3129
 11
283.7
 21
11
  0
LINE
  8
0
 10
283.7
 20
11
 11
283.725
 21
10.6871
  0
LINE
  8
0
 10
283.725
 20
10.6871
 11
283.798
 21
10.382
  0
LINE
  8
0
 10
283.798
 20
10.382
 11
283.918
 21
10.092
  0
LINE
  8
0
 10
283.918
 20
10.092
 11
284.082
 21
9.82442
  0
LINE
  8
0
 10
284.082
 20
9.82442
 11
284.286
 21
9.58578
  0
LINE
  8
0
 10
284.286
 20
9.58578
 11
284.524
 21
9.38196
  0
LINE
  8
0
 10
284.524
 20
9.38196
 11
284.792
 21
9.21797
  0
LINE
  8
0
 10
284.792
 20
9.21797
 11
285.082
 21
9.09789
  0
LINE
  8
0
 10
285.082
 20
9.09789
 11
285.387
 21
9.02461
  0
LINE
  8
0
 10
285.387
 20
9.02461
 11
285.7
 21
9
  0
LINE
  8
0
 10
285.7
 20
9
 11
286.013
 21
9.02461
  0
ENDSEC
  0
SECTION
  2
OBJECTS
  0
DICTIONARY
  0
ENDSEC
  0
EOF
