999
Woody controller body rev A - Oak bottom (oak_bottom)
999
Material: hardwood, the owner's choice (the parts are named oak); stained a very dark ebony, the grain still showing, under a satin oil finish
999
Thickness: 6 mm (the flush rule: switch.keycap_top_above_seat - switch.total_travel)
999
Quantity per instrument: 1
999
Units mm. Cut every closed outline. cad 45cc3a650903; verify: python3 tools/cad.py explain fab-dxf-oak-bottom-counterbore
  0
SECTION
  2
BLOCKS
  0
ENDSEC
  0
SECTION
  2
ENTITIES
  0
LINE
  8
0
 10
310.65
 20
42.5
 11
310.576
 21
43.4386
  0
LINE
  8
0
 10
310.576
 20
43.4386
 11
310.356
 21
44.3541
  0
LINE
  8
0
 10
310.356
 20
44.3541
 11
309.996
 21
45.2239
  0
LINE
  8
0
 10
309.996
 20
45.2239
 11
309.504
 21
46.0267
  0
LINE
  8
0
 10
309.504
 20
46.0267
 11
308.893
 21
46.7426
  0
LINE
  8
0
 10
308.893
 20
46.7426
 11
308.177
 21
47.3541
  0
LINE
  8
0
 10
308.177
 20
47.3541
 11
307.374
 21
47.846
  0
LINE
  8
0
 10
307.374
 20
47.846
 11
306.504
 21
48.2063
  0
LINE
  8
0
 10
306.504
 20
48.2063
 11
305.589
 21
48.4261
  0
LINE
  8
0
 10
305.589
 20
48.4261
 11
304.65
 21
48.5
  0
LINE
  8
0
 10
304.65
 20
48.5
 11
303.711
 21
48.4261
  0
LINE
  8
0
 10
303.711
 20
48.4261
 11
302.796
 21
48.2063
  0
LINE
  8
0
 10
302.796
 20
48.2063
 11
301.926
 21
47.846
  0
LINE
  8
0
 10
301.926
 20
47.846
 11
301.123
 21
47.3541
  0
LINE
  8
0
 10
301.123
 20
47.3541
 11
300.407
 21
46.7426
  0
LINE
  8
0
 10
300.407
 20
46.7426
 11
299.796
 21
46.0267
  0
LINE
  8
0
 10
299.796
 20
46.0267
 11
299.304
 21
45.2239
  0
LINE
  8
0
 10
299.304
 20
45.2239
 11
298.944
 21
44.3541
  0
LINE
  8
0
 10
298.944
 20
44.3541
 11
298.724
 21
43.4386
  0
LINE
  8
0
 10
298.724
 20
43.4386
 11
298.65
 21
42.5
  0
LINE
  8
0
 10
298.65
 20
42.5
 11
298.724
 21
41.5614
  0
LINE
  8
0
 10
298.724
 20
41.5614
 11
298.944
 21
40.6459
  0
LINE
  8
0
 10
298.944
 20
40.6459
 11
299.304
 21
39.7761
  0
LINE
  8
0
 10
299.304
 20
39.7761
 11
299.796
 21
38.9733
  0
LINE
  8
0
 10
299.796
 20
38.9733
 11
300.407
 21
38.2574
  0
LINE
  8
0
 10
300.407
 20
38.2574
 11
301.123
 21
37.6459
  0
LINE
  8
0
 10
301.123
 20
37.6459
 11
301.926
 21
37.154
  0
LINE
  8
0
 10
301.926
 20
37.154
 11
302.796
 21
36.7937
  0
LINE
  8
0
 10
302.796
 20
36.7937
 11
303.711
 21
36.5739
  0
LINE
  8
0
 10
303.711
 20
36.5739
 11
304.65
 21
36.5
  0
LINE
  8
0
 10
304.65
 20
36.5
 11
305.589
 21
36.5739
  0
LINE
  8
0
 10
305.589
 20
36.5739
 11
306.504
 21
36.7937
  0
LINE
  8
0
 10
306.504
 20
36.7937
 11
307.374
 21
37.154
  0
LINE
  8
0
 10
307.374
 20
37.154
 11
308.177
 21
37.6459
  0
LINE
  8
0
 10
308.177
 20
37.6459
 11
308.893
 21
38.2574
  0
LINE
  8
0
 10
308.893
 20
38.2574
 11
309.504
 21
38.9733
  0
LINE
  8
0
 10
309.504
 20
38.9733
 11
309.996
 21
39.7761
  0
LINE
  8
0
 10
309.996
 20
39.7761
 11
310.356
 21
40.6459
  0
LINE
  8
0
 10
310.356
 20
40.6459
 11
310.576
 21
41.5614
  0
LINE
  8
0
 10
310.576
 20
41.5614
 11
310.65
 21
42.5
  0
ENDSEC
  0
SECTION
  2
OBJECTS
  0
DICTIONARY
  0
ENDSEC
  0
EOF
