999
Woody controller body rev A - Oak top (oak_top)
999
Material: hardwood, the owner's choice (the parts are named oak); stained a very dark ebony, the grain still showing, under a satin oil finish
999
Thickness: 6 mm (the flush rule: switch.keycap_top_above_seat - switch.total_travel)
999
Quantity per instrument: 1
999
Units mm. Cut every closed outline. cad c086cf8e340e; verify: python3 tools/cad.py explain fab-dxf-oak-top
  0
SECTION
  2
BLOCKS
  0
ENDSEC
  0
SECTION
  2
ENTITIES
  0
LINE
  8
0
 10
313.8
 20
57
 11
0
 21
57
  0
LINE
  8
0
 10
0
 20
57
 11
0
 21
0
  0
LINE
  8
0
 10
0
 20
0
 11
313.8
 21
0
  0
LINE
  8
0
 10
313.8
 20
0
 11
313.8
 21
57
  0
LINE
  8
0
 10
94.6
 20
10.5
 11
94.3497
 21
10.5197
  0
LINE
  8
0
 10
94.3497
 20
10.5197
 11
94.1056
 21
10.5783
  0
LINE
  8
0
 10
94.1056
 20
10.5783
 11
93.8736
 21
10.6744
  0
LINE
  8
0
 10
93.8736
 20
10.6744
 11
93.6595
 21
10.8056
  0
LINE
  8
0
 10
93.6595
 20
10.8056
 11
93.4686
 21
10.9686
  0
LINE
  8
0
 10
93.4686
 20
10.9686
 11
93.3056
 21
11.1595
  0
LINE
  8
0
 10
93.3056
 20
11.1595
 11
93.1744
 21
11.3736
  0
LINE
  8
0
 10
93.1744
 20
11.3736
 11
93.0783
 21
11.6056
  0
LINE
  8
0
 10
93.0783
 20
11.6056
 11
93.0197
 21
11.8497
  0
LINE
  8
0
 10
93.0197
 20
11.8497
 11
93
 21
12.1
  0
LINE
  8
0
 10
93
 20
12.1
 11
93
 21
18.5001
  0
LINE
  8
0
 10
93
 20
18.5001
 11
92.9877
 21
18.6564
  0
LINE
  8
0
 10
92.9877
 20
18.6564
 11
92.951
 21
18.809
  0
LINE
  8
0
 10
92.951
 20
18.809
 11
92.891
 21
18.9541
  0
LINE
  8
0
 10
92.891
 20
18.9541
 11
92.8091
 21
19.0878
  0
LINE
  8
0
 10
92.8091
 20
19.0878
 11
92.7071
 21
19.2071
  0
LINE
  8
0
 10
92.7071
 20
19.2071
 11
92.5878
 21
19.3091
  0
LINE
  8
0
 10
92.5878
 20
19.3091
 11
92.4541
 21
19.391
  0
LINE
  8
0
 10
92.4541
 20
19.391
 11
92.309
 21
19.451
  0
LINE
  8
0
 10
92.309
 20
19.451
 11
92.1564
 21
19.4877
  0
LINE
  8
0
 10
92.1564
 20
19.4877
 11
92.0001
 21
19.5
  0
LINE
  8
0
 10
92.0001
 20
19.5
 11
36.6
 21
19.5
  0
LINE
  8
0
 10
36.6
 20
19.5
 11
36.3497
 21
19.5197
  0
LINE
  8
0
 10
36.3497
 20
19.5197
 11
36.1056
 21
19.5783
  0
LINE
  8
0
 10
36.1056
 20
19.5783
 11
35.8736
 21
19.6744
  0
LINE
  8
0
 10
35.8736
 20
19.6744
 11
35.6595
 21
19.8056
  0
LINE
  8
0
 10
35.6595
 20
19.8056
 11
35.4686
 21
19.9686
  0
LINE
  8
0
 10
35.4686
 20
19.9686
 11
35.3056
 21
20.1595
  0
LINE
  8
0
 10
35.3056
 20
20.1595
 11
35.1744
 21
20.3736
  0
LINE
  8
0
 10
35.1744
 20
20.3736
 11
35.0783
 21
20.6056
  0
LINE
  8
0
 10
35.0783
 20
20.6056
 11
35.0197
 21
20.8497
  0
LINE
  8
0
 10
35.0197
 20
20.8497
 11
35
 21
21.1
  0
LINE
  8
0
 10
35
 20
21.1
 11
35
 21
35.9
  0
LINE
  8
0
 10
35
 20
35.9
 11
35.0197
 21
36.1503
  0
LINE
  8
0
 10
35.0197
 20
36.1503
 11
35.0783
 21
36.3944
  0
LINE
  8
0
 10
35.0783
 20
36.3944
 11
35.1744
 21
36.6264
  0
LINE
  8
0
 10
35.1744
 20
36.6264
 11
35.3056
 21
36.8405
  0
LINE
  8
0
 10
35.3056
 20
36.8405
 11
35.4686
 21
37.0314
  0
LINE
  8
0
 10
35.4686
 20
37.0314
 11
35.6595
 21
37.1944
  0
LINE
  8
0
 10
35.6595
 20
37.1944
 11
35.8736
 21
37.3256
  0
LINE
  8
0
 10
35.8736
 20
37.3256
 11
36.1056
 21
37.4217
  0
LINE
  8
0
 10
36.1056
 20
37.4217
 11
36.3497
 21
37.4803
  0
LINE
  8
0
 10
36.3497
 20
37.4803
 11
36.6
 21
37.5
  0
LINE
  8
0
 10
36.6
 20
37.5
 11
92.0001
 21
37.5
  0
LINE
  8
0
 10
92.0001
 20
37.5
 11
92.1564
 21
37.5123
  0
LINE
  8
0
 10
92.1564
 20
37.5123
 11
92.309
 21
37.549
  0
LINE
  8
0
 10
92.309
 20
37.549
 11
92.4541
 21
37.609
  0
LINE
  8
0
 10
92.4541
 20
37.609
 11
92.5878
 21
37.6909
  0
LINE
  8
0
 10
92.5878
 20
37.6909
 11
92.7071
 21
37.7929
  0
LINE
  8
0
 10
92.7071
 20
37.7929
 11
92.8091
 21
37.9122
  0
LINE
  8
0
 10
92.8091
 20
37.9122
 11
92.891
 21
38.0459
  0
LINE
  8
0
 10
92.891
 20
38.0459
 11
92.951
 21
38.191
  0
LINE
  8
0
 10
92.951
 20
38.191
 11
92.9877
 21
38.3436
  0
LINE
  8
0
 10
92.9877
 20
38.3436
 11
93
 21
38.4999
  0
LINE
  8
0
 10
93
 20
38.4999
 11
93
 21
44.9
  0
LINE
  8
0
 10
93
 20
44.9
 11
93.0197
 21
45.1503
  0
LINE
  8
0
 10
93.0197
 20
45.1503
 11
93.0783
 21
45.3944
  0
LINE
  8
0
 10
93.0783
 20
45.3944
 11
93.1744
 21
45.6264
  0
LINE
  8
0
 10
93.1744
 20
45.6264
 11
93.3056
 21
45.8405
  0
LINE
  8
0
 10
93.3056
 20
45.8405
 11
93.4686
 21
46.0314
  0
LINE
  8
0
 10
93.4686
 20
46.0314
 11
93.6595
 21
46.1944
  0
LINE
  8
0
 10
93.6595
 20
46.1944
 11
93.8736
 21
46.3256
  0
LINE
  8
0
 10
93.8736
 20
46.3256
 11
94.1056
 21
46.4217
  0
LINE
  8
0
 10
94.1056
 20
46.4217
 11
94.3497
 21
46.4803
  0
LINE
  8
0
 10
94.3497
 20
46.4803
 11
94.6
 21
46.5
  0
LINE
  8
0
 10
94.6
 20
46.5
 11
109.4
 21
46.5
  0
LINE
  8
0
 10
109.4
 20
46.5
 11
109.65
 21
46.4803
  0
LINE
  8
0
 10
109.65
 20
46.4803
 11
109.894
 21
46.4217
  0
LINE
  8
0
 10
109.894
 20
46.4217
 11
110.126
 21
46.3256
  0
LINE
  8
0
 10
110.126
 20
46.3256
 11
110.34
 21
46.1944
  0
LINE
  8
0
 10
110.34
 20
46.1944
 11
110.531
 21
46.0314
  0
LINE
  8
0
 10
110.531
 20
46.0314
 11
110.694
 21
45.8405
  0
LINE
  8
0
 10
110.694
 20
45.8405
 11
110.826
 21
45.6264
  0
LINE
  8
0
 10
110.826
 20
45.6264
 11
110.922
 21
45.3944
  0
LINE
  8
0
 10
110.922
 20
45.3944
 11
110.98
 21
45.1503
  0
LINE
  8
0
 10
110.98
 20
45.1503
 11
111
 21
44.9
  0
LINE
  8
0
 10
111
 20
44.9
 11
111
 21
12.1
  0
LINE
  8
0
 10
111
 20
12.1
 11
110.98
 21
11.8497
  0
LINE
  8
0
 10
110.98
 20
11.8497
 11
110.922
 21
11.6056
  0
LINE
  8
0
 10
110.922
 20
11.6056
 11
110.826
 21
11.3736
  0
LINE
  8
0
 10
110.826
 20
11.3736
 11
110.694
 21
11.1595
  0
LINE
  8
0
 10
110.694
 20
11.1595
 11
110.531
 21
10.9686
  0
LINE
  8
0
 10
110.531
 20
10.9686
 11
110.34
 21
10.8056
  0
LINE
  8
0
 10
110.34
 20
10.8056
 11
110.126
 21
10.6744
  0
LINE
  8
0
 10
110.126
 20
10.6744
 11
109.894
 21
10.5783
  0
LINE
  8
0
 10
109.894
 20
10.5783
 11
109.65
 21
10.5197
  0
LINE
  8
0
 10
109.65
 20
10.5197
 11
109.4
 21
10.5
  0
LINE
  8
0
 10
109.4
 20
10.5
 11
94.6
 21
10.5
  0
LINE
  8
0
 10
202.6
 20
10.5
 11
202.35
 21
10.5197
  0
LINE
  8
0
 10
202.35
 20
10.5197
 11
202.106
 21
10.5783
  0
LINE
  8
0
 10
202.106
 20
10.5783
 11
201.874
 21
10.6744
  0
LINE
  8
0
 10
201.874
 20
10.6744
 11
201.66
 21
10.8056
  0
LINE
  8
0
 10
201.66
 20
10.8056
 11
201.469
 21
10.9686
  0
LINE
  8
0
 10
201.469
 20
10.9686
 11
201.306
 21
11.1595
  0
LINE
  8
0
 10
201.306
 20
11.1595
 11
201.174
 21
11.3736
  0
LINE
  8
0
 10
201.174
 20
11.3736
 11
201.078
 21
11.6056
  0
LINE
  8
0
 10
201.078
 20
11.6056
 11
201.02
 21
11.8497
  0
LINE
  8
0
 10
201.02
 20
11.8497
 11
201
 21
12.1
  0
LINE
  8
0
 10
201
 20
12.1
 11
201
 21
18.5001
  0
LINE
  8
0
 10
201
 20
18.5001
 11
200.988
 21
18.6564
  0
LINE
  8
0
 10
200.988
 20
18.6564
 11
200.951
 21
18.809
  0
LINE
  8
0
 10
200.951
 20
18.809
 11
200.891
 21
18.9541
  0
LINE
  8
0
 10
200.891
 20
18.9541
 11
200.809
 21
19.0878
  0
LINE
  8
0
 10
200.809
 20
19.0878
 11
200.707
 21
19.2071
  0
LINE
  8
0
 10
200.707
 20
19.2071
 11
200.588
 21
19.3091
  0
LINE
  8
0
 10
200.588
 20
19.3091
 11
200.454
 21
19.391
  0
LINE
  8
0
 10
200.454
 20
19.391
 11
200.309
 21
19.451
  0
LINE
  8
0
 10
200.309
 20
19.451
 11
200.156
 21
19.4877
  0
LINE
  8
0
 10
200.156
 20
19.4877
 11
200
 21
19.5
  0
LINE
  8
0
 10
200
 20
19.5
 11
144.6
 21
19.5
  0
LINE
  8
0
 10
144.6
 20
19.5
 11
144.35
 21
19.5197
  0
LINE
  8
0
 10
144.35
 20
19.5197
 11
144.106
 21
19.5783
  0
LINE
  8
0
 10
144.106
 20
19.5783
 11
143.874
 21
19.6744
  0
LINE
  8
0
 10
143.874
 20
19.6744
 11
143.66
 21
19.8056
  0
LINE
  8
0
 10
143.66
 20
19.8056
 11
143.469
 21
19.9686
  0
LINE
  8
0
 10
143.469
 20
19.9686
 11
143.306
 21
20.1595
  0
LINE
  8
0
 10
143.306
 20
20.1595
 11
143.174
 21
20.3736
  0
LINE
  8
0
 10
143.174
 20
20.3736
 11
143.078
 21
20.6056
  0
LINE
  8
0
 10
143.078
 20
20.6056
 11
143.02
 21
20.8497
  0
LINE
  8
0
 10
143.02
 20
20.8497
 11
143
 21
21.1
  0
LINE
  8
0
 10
143
 20
21.1
 11
143
 21
35.9
  0
LINE
  8
0
 10
143
 20
35.9
 11
143.02
 21
36.1503
  0
LINE
  8
0
 10
143.02
 20
36.1503
 11
143.078
 21
36.3944
  0
LINE
  8
0
 10
143.078
 20
36.3944
 11
143.174
 21
36.6264
  0
LINE
  8
0
 10
143.174
 20
36.6264
 11
143.306
 21
36.8405
  0
LINE
  8
0
 10
143.306
 20
36.8405
 11
143.469
 21
37.0314
  0
LINE
  8
0
 10
143.469
 20
37.0314
 11
143.66
 21
37.1944
  0
LINE
  8
0
 10
143.66
 20
37.1944
 11
143.874
 21
37.3256
  0
LINE
  8
0
 10
143.874
 20
37.3256
 11
144.106
 21
37.4217
  0
LINE
  8
0
 10
144.106
 20
37.4217
 11
144.35
 21
37.4803
  0
LINE
  8
0
 10
144.35
 20
37.4803
 11
144.6
 21
37.5
  0
LINE
  8
0
 10
144.6
 20
37.5
 11
200
 21
37.5
  0
LINE
  8
0
 10
200
 20
37.5
 11
200.156
 21
37.5123
  0
LINE
  8
0
 10
200.156
 20
37.5123
 11
200.309
 21
37.549
  0
LINE
  8
0
 10
200.309
 20
37.549
 11
200.454
 21
37.609
  0
LINE
  8
0
 10
200.454
 20
37.609
 11
200.588
 21
37.6909
  0
LINE
  8
0
 10
200.588
 20
37.6909
 11
200.707
 21
37.7929
  0
LINE
  8
0
 10
200.707
 20
37.7929
 11
200.809
 21
37.9122
  0
LINE
  8
0
 10
200.809
 20
37.9122
 11
200.891
 21
38.0459
  0
LINE
  8
0
 10
200.891
 20
38.0459
 11
200.951
 21
38.191
  0
LINE
  8
0
 10
200.951
 20
38.191
 11
200.988
 21
38.3436
  0
LINE
  8
0
 10
200.988
 20
38.3436
 11
201
 21
38.4999
  0
LINE
  8
0
 10
201
 20
38.4999
 11
201
 21
44.9
  0
LINE
  8
0
 10
201
 20
44.9
 11
201.02
 21
45.1503
  0
LINE
  8
0
 10
201.02
 20
45.1503
 11
201.078
 21
45.3944
  0
LINE
  8
0
 10
201.078
 20
45.3944
 11
201.174
 21
45.6264
  0
LINE
  8
0
 10
201.174
 20
45.6264
 11
201.306
 21
45.8405
  0
LINE
  8
0
 10
201.306
 20
45.8405
 11
201.469
 21
46.0314
  0
LINE
  8
0
 10
201.469
 20
46.0314
 11
201.66
 21
46.1944
  0
LINE
  8
0
 10
201.66
 20
46.1944
 11
201.874
 21
46.3256
  0
LINE
  8
0
 10
201.874
 20
46.3256
 11
202.106
 21
46.4217
  0
LINE
  8
0
 10
202.106
 20
46.4217
 11
202.35
 21
46.4803
  0
LINE
  8
0
 10
202.35
 20
46.4803
 11
202.6
 21
46.5
  0
LINE
  8
0
 10
202.6
 20
46.5
 11
217.4
 21
46.5
  0
LINE
  8
0
 10
217.4
 20
46.5
 11
217.65
 21
46.4803
  0
LINE
  8
0
 10
217.65
 20
46.4803
 11
217.894
 21
46.4217
  0
LINE
  8
0
 10
217.894
 20
46.4217
 11
218.126
 21
46.3256
  0
LINE
  8
0
 10
218.126
 20
46.3256
 11
218.34
 21
46.1944
  0
LINE
  8
0
 10
218.34
 20
46.1944
 11
218.531
 21
46.0314
  0
LINE
  8
0
 10
218.531
 20
46.0314
 11
218.694
 21
45.8405
  0
LINE
  8
0
 10
218.694
 20
45.8405
 11
218.826
 21
45.6264
  0
LINE
  8
0
 10
218.826
 20
45.6264
 11
218.922
 21
45.3944
  0
LINE
  8
0
 10
218.922
 20
45.3944
 11
218.98
 21
45.1503
  0
LINE
  8
0
 10
218.98
 20
45.1503
 11
219
 21
44.9
  0
LINE
  8
0
 10
219
 20
44.9
 11
219
 21
29.4999
  0
LINE
  8
0
 10
219
 20
29.4999
 11
219.012
 21
29.3436
  0
LINE
  8
0
 10
219.012
 20
29.3436
 11
219.049
 21
29.191
  0
LINE
  8
0
 10
219.049
 20
29.191
 11
219.109
 21
29.0459
  0
LINE
  8
0
 10
219.109
 20
29.0459
 11
219.191
 21
28.9122
  0
LINE
  8
0
 10
219.191
 20
28.9122
 11
219.293
 21
28.7929
  0
LINE
  8
0
 10
219.293
 20
28.7929
 11
219.412
 21
28.6909
  0
LINE
  8
0
 10
219.412
 20
28.6909
 11
219.546
 21
28.609
  0
LINE
  8
0
 10
219.546
 20
28.609
 11
219.691
 21
28.549
  0
LINE
  8
0
 10
219.691
 20
28.549
 11
219.844
 21
28.5123
  0
LINE
  8
0
 10
219.844
 20
28.5123
 11
220
 21
28.5
  0
LINE
  8
0
 10
220
 20
28.5
 11
235.4
 21
28.5
  0
LINE
  8
0
 10
235.4
 20
28.5
 11
235.65
 21
28.4803
  0
LINE
  8
0
 10
235.65
 20
28.4803
 11
235.894
 21
28.4217
  0
LINE
  8
0
 10
235.894
 20
28.4217
 11
236.126
 21
28.3256
  0
LINE
  8
0
 10
236.126
 20
28.3256
 11
236.34
 21
28.1944
  0
LINE
  8
0
 10
236.34
 20
28.1944
 11
236.531
 21
28.0314
  0
LINE
  8
0
 10
236.531
 20
28.0314
 11
236.694
 21
27.8405
  0
LINE
  8
0
 10
236.694
 20
27.8405
 11
236.826
 21
27.6264
  0
LINE
  8
0
 10
236.826
 20
27.6264
 11
236.922
 21
27.3944
  0
LINE
  8
0
 10
236.922
 20
27.3944
 11
236.98
 21
27.1503
  0
LINE
  8
0
 10
236.98
 20
27.1503
 11
237
 21
26.9
  0
LINE
  8
0
 10
237
 20
26.9
 11
237
 21
12.1
  0
LINE
  8
0
 10
237
 20
12.1
 11
236.98
 21
11.8497
  0
LINE
  8
0
 10
236.98
 20
11.8497
 11
236.922
 21
11.6056
  0
LINE
  8
0
 10
236.922
 20
11.6056
 11
236.826
 21
11.3736
  0
LINE
  8
0
 10
236.826
 20
11.3736
 11
236.694
 21
11.1595
  0
LINE
  8
0
 10
236.694
 20
11.1595
 11
236.531
 21
10.9686
  0
LINE
  8
0
 10
236.531
 20
10.9686
 11
236.34
 21
10.8056
  0
LINE
  8
0
 10
236.34
 20
10.8056
 11
236.126
 21
10.6744
  0
LINE
  8
0
 10
236.126
 20
10.6744
 11
235.894
 21
10.5783
  0
LINE
  8
0
 10
235.894
 20
10.5783
 11
235.65
 21
10.5197
  0
LINE
  8
0
 10
235.65
 20
10.5197
 11
235.4
 21
10.5
  0
LINE
  8
0
 10
235.4
 20
10.5
 11
202.6
 21
10.5
  0
LINE
  8
0
 10
269
 20
17.5
 11
268.75
 21
17.5197
  0
LINE
  8
0
 10
268.75
 20
17.5197
 11
268.506
 21
17.5783
  0
LINE
  8
0
 10
268.506
 20
17.5783
 11
268.274
 21
17.6744
  0
LINE
  8
0
 10
268.274
 20
17.6744
 11
268.06
 21
17.8056
  0
LINE
  8
0
 10
268.06
 20
17.8056
 11
267.869
 21
17.9686
  0
LINE
  8
0
 10
267.869
 20
17.9686
 11
267.706
 21
18.1595
  0
LINE
  8
0
 10
267.706
 20
18.1595
 11
267.574
 21
18.3736
  0
LINE
  8
0
 10
267.574
 20
18.3736
 11
267.478
 21
18.6056
  0
LINE
  8
0
 10
267.478
 20
18.6056
 11
267.42
 21
18.8497
  0
LINE
  8
0
 10
267.42
 20
18.8497
 11
267.4
 21
19.1
  0
LINE
  8
0
 10
267.4
 20
19.1
 11
267.4
 21
37.9
  0
LINE
  8
0
 10
267.4
 20
37.9
 11
267.42
 21
38.1503
  0
LINE
  8
0
 10
267.42
 20
38.1503
 11
267.478
 21
38.3944
  0
LINE
  8
0
 10
267.478
 20
38.3944
 11
267.574
 21
38.6264
  0
LINE
  8
0
 10
267.574
 20
38.6264
 11
267.706
 21
38.8405
  0
LINE
  8
0
 10
267.706
 20
38.8405
 11
267.869
 21
39.0314
  0
LINE
  8
0
 10
267.869
 20
39.0314
 11
268.06
 21
39.1944
  0
LINE
  8
0
 10
268.06
 20
39.1944
 11
268.274
 21
39.3256
  0
LINE
  8
0
 10
268.274
 20
39.3256
 11
268.506
 21
39.4217
  0
LINE
  8
0
 10
268.506
 20
39.4217
 11
268.75
 21
39.4803
  0
LINE
  8
0
 10
268.75
 20
39.4803
 11
269
 21
39.5
  0
LINE
  8
0
 10
269
 20
39.5
 11
287.8
 21
39.5
  0
LINE
  8
0
 10
287.8
 20
39.5
 11
288.05
 21
39.4803
  0
LINE
  8
0
 10
288.05
 20
39.4803
 11
288.294
 21
39.4217
  0
LINE
  8
0
 10
288.294
 20
39.4217
 11
288.526
 21
39.3256
  0
LINE
  8
0
 10
288.526
 20
39.3256
 11
288.74
 21
39.1944
  0
LINE
  8
0
 10
288.74
 20
39.1944
 11
288.931
 21
39.0314
  0
LINE
  8
0
 10
288.931
 20
39.0314
 11
289.094
 21
38.8405
  0
LINE
  8
0
 10
289.094
 20
38.8405
 11
289.226
 21
38.6264
  0
LINE
  8
0
 10
289.226
 20
38.6264
 11
289.322
 21
38.3944
  0
LINE
  8
0
 10
289.322
 20
38.3944
 11
289.38
 21
38.1503
  0
LINE
  8
0
 10
289.38
 20
38.1503
 11
289.4
 21
37.9
  0
LINE
  8
0
 10
289.4
 20
37.9
 11
289.4
 21
19.1
  0
LINE
  8
0
 10
289.4
 20
19.1
 11
289.38
 21
18.8497
  0
LINE
  8
0
 10
289.38
 20
18.8497
 11
289.322
 21
18.6056
  0
LINE
  8
0
 10
289.322
 20
18.6056
 11
289.226
 21
18.3736
  0
LINE
  8
0
 10
289.226
 20
18.3736
 11
289.094
 21
18.1595
  0
LINE
  8
0
 10
289.094
 20
18.1595
 11
288.931
 21
17.9686
  0
LINE
  8
0
 10
288.931
 20
17.9686
 11
288.74
 21
17.8056
  0
LINE
  8
0
 10
288.74
 20
17.8056
 11
288.526
 21
17.6744
  0
LINE
  8
0
 10
288.526
 20
17.6744
 11
288.294
 21
17.5783
  0
LINE
  8
0
 10
288.294
 20
17.5783
 11
288.05
 21
17.5197
  0
LINE
  8
0
 10
288.05
 20
17.5197
 11
287.8
 21
17.5
  0
LINE
  8
0
 10
287.8
 20
17.5
 11
269
 21
17.5
  0
ENDSEC
  0
SECTION
  2
OBJECTS
  0
DICTIONARY
  0
ENDSEC
  0
EOF
