999
Woody controller body rev A - Tail cap (tail_cap)
999
Material: hardwood, the owner's choice (the parts are named oak); stained a very dark ebony, the grain still showing, under a satin oil finish
999
Thickness: 6 mm (ends.tail_cap_t)
999
Quantity per instrument: 1
999
Units mm. Cut every closed outline. cad c81f7cbb871e; verify: python3 tools/cad.py explain fab-dxf-tail-cap
  0
SECTION
  2
BLOCKS
  0
ENDSEC
  0
SECTION
  2
ENTITIES
  0
LINE
  8
0
 10
55.7346
 20
0.0184631
 11
55.9635
 21
0.07341
  0
LINE
  8
0
 10
55.9635
 20
0.07341
 11
56.181
 21
0.163483
  0
LINE
  8
0
 10
56.181
 20
0.163483
 11
56.3817
 21
0.286469
  0
LINE
  8
0
 10
56.3817
 20
0.286469
 11
56.5607
 21
0.439346
  0
LINE
  8
0
 10
56.5607
 20
0.439346
 11
56.7135
 21
0.618317
  0
LINE
  8
0
 10
56.7135
 20
0.618317
 11
56.8365
 21
0.819016
  0
LINE
  8
0
 10
56.8365
 20
0.819016
 11
56.9266
 21
1.03647
  0
LINE
  8
0
 10
56.9266
 20
1.03647
 11
56.9815
 21
1.26535
  0
LINE
  8
0
 10
56.9815
 20
1.26535
 11
57
 21
1.5
  0
LINE
  8
0
 10
57
 20
1.5
 11
57
 21
37.5
  0
LINE
  8
0
 10
57
 20
37.5
 11
56.9815
 21
37.7346
  0
LINE
  8
0
 10
56.9815
 20
37.7346
 11
56.9266
 21
37.9635
  0
LINE
  8
0
 10
56.9266
 20
37.9635
 11
56.8365
 21
38.181
  0
LINE
  8
0
 10
56.8365
 20
38.181
 11
56.7135
 21
38.3817
  0
LINE
  8
0
 10
56.7135
 20
38.3817
 11
56.5607
 21
38.5607
  0
LINE
  8
0
 10
56.5607
 20
38.5607
 11
56.3817
 21
38.7135
  0
LINE
  8
0
 10
56.3817
 20
38.7135
 11
56.181
 21
38.8365
  0
LINE
  8
0
 10
56.181
 20
38.8365
 11
55.9635
 21
38.9266
  0
LINE
  8
0
 10
55.9635
 20
38.9266
 11
55.7346
 21
38.9815
  0
LINE
  8
0
 10
55.7346
 20
38.9815
 11
55.5
 21
39
  0
LINE
  8
0
 10
55.5
 20
39
 11
1.5
 21
39
  0
LINE
  8
0
 10
1.5
 20
39
 11
1.26535
 21
38.9815
  0
LINE
  8
0
 10
1.26535
 20
38.9815
 11
1.03647
 21
38.9266
  0
LINE
  8
0
 10
1.03647
 20
38.9266
 11
0.819016
 21
38.8365
  0
LINE
  8
0
 10
0.819016
 20
38.8365
 11
0.618317
 21
38.7135
  0
LINE
  8
0
 10
0.618317
 20
38.7135
 11
0.439346
 21
38.5607
  0
LINE
  8
0
 10
0.439346
 20
38.5607
 11
0.286469
 21
38.3817
  0
LINE
  8
0
 10
0.286469
 20
38.3817
 11
0.163483
 21
38.181
  0
LINE
  8
0
 10
0.163483
 20
38.181
 11
0.07341
 21
37.9635
  0
LINE
  8
0
 10
0.07341
 20
37.9635
 11
0.0184631
 21
37.7346
  0
LINE
  8
0
 10
0.0184631
 20
37.7346
 11
0
 21
37.5
  0
LINE
  8
0
 10
0
 20
37.5
 11
0
 21
1.5
  0
LINE
  8
0
 10
0
 20
1.5
 11
0.0184631
 21
1.26535
  0
LINE
  8
0
 10
0.0184631
 20
1.26535
 11
0.07341
 21
1.03647
  0
LINE
  8
0
 10
0.07341
 20
1.03647
 11
0.163483
 21
0.819016
  0
LINE
  8
0
 10
0.163483
 20
0.819016
 11
0.286469
 21
0.618317
  0
LINE
  8
0
 10
0.286469
 20
0.618317
 11
0.439346
 21
0.439346
  0
LINE
  8
0
 10
0.439346
 20
0.439346
 11
0.618317
 21
0.286469
  0
LINE
  8
0
 10
0.618317
 20
0.286469
 11
0.819016
 21
0.163483
  0
LINE
  8
0
 10
0.819016
 20
0.163483
 11
1.03647
 21
0.07341
  0
LINE
  8
0
 10
1.03647
 20
0.07341
 11
1.26535
 21
0.0184631
  0
LINE
  8
0
 10
1.26535
 20
0.0184631
 11
1.5
 21
0
  0
LINE
  8
0
 10
1.5
 20
0
 11
55.5
 21
0
  0
LINE
  8
0
 10
55.5
 20
0
 11
55.7346
 21
0.0184631
  0
LINE
  8
0
 10
11.3497
 20
27.3697
 11
11.1056
 21
27.4283
  0
LINE
  8
0
 10
11.1056
 20
27.4283
 11
10.8736
 21
27.5244
  0
LINE
  8
0
 10
10.8736
 20
27.5244
 11
10.6595
 21
27.6556
  0
LINE
  8
0
 10
10.6595
 20
27.6556
 11
10.4686
 21
27.8186
  0
LINE
  8
0
 10
10.4686
 20
27.8186
 11
10.3056
 21
28.0095
  0
LINE
  8
0
 10
10.3056
 20
28.0095
 11
10.1744
 21
28.2236
  0
LINE
  8
0
 10
10.1744
 20
28.2236
 11
10.0783
 21
28.4556
  0
LINE
  8
0
 10
10.0783
 20
28.4556
 11
10.0197
 21
28.6997
  0
LINE
  8
0
 10
10.0197
 20
28.6997
 11
10
 21
28.95
  0
LINE
  8
0
 10
10
 20
28.95
 11
10.0197
 21
29.2003
  0
LINE
  8
0
 10
10.0197
 20
29.2003
 11
10.0783
 21
29.4444
  0
LINE
  8
0
 10
10.0783
 20
29.4444
 11
10.1744
 21
29.6764
  0
LINE
  8
0
 10
10.1744
 20
29.6764
 11
10.3056
 21
29.8904
  0
LINE
  8
0
 10
10.3056
 20
29.8904
 11
10.4686
 21
30.0814
  0
LINE
  8
0
 10
10.4686
 20
30.0814
 11
10.6595
 21
30.2444
  0
LINE
  8
0
 10
10.6595
 20
30.2444
 11
10.8736
 21
30.3756
  0
LINE
  8
0
 10
10.8736
 20
30.3756
 11
11.1056
 21
30.4717
  0
LINE
  8
0
 10
11.1056
 20
30.4717
 11
11.3497
 21
30.5303
  0
LINE
  8
0
 10
11.3497
 20
30.5303
 11
11.6
 21
30.55
  0
LINE
  8
0
 10
11.6
 20
30.55
 11
11.8503
 21
30.5303
  0
LINE
  8
0
 10
11.8503
 20
30.5303
 11
12.0944
 21
30.4717
  0
LINE
  8
0
 10
12.0944
 20
30.4717
 11
12.3264
 21
30.3756
  0
LINE
  8
0
 10
12.3264
 20
30.3756
 11
12.5405
 21
30.2444
  0
LINE
  8
0
 10
12.5405
 20
30.2444
 11
12.7314
 21
30.0814
  0
LINE
  8
0
 10
12.7314
 20
30.0814
 11
12.8944
 21
29.8904
  0
LINE
  8
0
 10
12.8944
 20
29.8904
 11
13.0256
 21
29.6764
  0
LINE
  8
0
 10
13.0256
 20
29.6764
 11
13.1217
 21
29.4444
  0
LINE
  8
0
 10
13.1217
 20
29.4444
 11
13.1803
 21
29.2003
  0
LINE
  8
0
 10
13.1803
 20
29.2003
 11
13.2
 21
28.95
  0
LINE
  8
0
 10
13.2
 20
28.95
 11
13.1803
 21
28.6997
  0
LINE
  8
0
 10
13.1803
 20
28.6997
 11
13.1217
 21
28.4556
  0
LINE
  8
0
 10
13.1217
 20
28.4556
 11
13.0256
 21
28.2236
  0
LINE
  8
0
 10
13.0256
 20
28.2236
 11
12.8944
 21
28.0095
  0
LINE
  8
0
 10
12.8944
 20
28.0095
 11
12.7314
 21
27.8186
  0
LINE
  8
0
 10
12.7314
 20
27.8186
 11
12.5405
 21
27.6556
  0
LINE
  8
0
 10
12.5405
 20
27.6556
 11
12.3264
 21
27.5244
  0
LINE
  8
0
 10
12.3264
 20
27.5244
 11
12.0944
 21
27.4283
  0
LINE
  8
0
 10
12.0944
 20
27.4283
 11
11.8503
 21
27.3697
  0
LINE
  8
0
 10
11.8503
 20
27.3697
 11
11.6
 21
27.35
  0
LINE
  8
0
 10
11.6
 20
27.35
 11
11.3497
 21
27.3697
  0
LINE
  8
0
 10
19.7792
 20
8.18542
 11
18.1008
 21
8.58836
  0
LINE
  8
0
 10
18.1008
 20
8.58836
 11
16.5061
 21
9.24892
  0
LINE
  8
0
 10
16.5061
 20
9.24892
 11
15.0343
 21
10.1508
  0
LINE
  8
0
 10
15.0343
 20
10.1508
 11
13.7218
 21
11.2718
  0
LINE
  8
0
 10
13.7218
 20
11.2718
 11
12.6008
 21
12.5844
  0
LINE
  8
0
 10
12.6008
 20
12.5844
 11
11.6989
 21
14.0561
  0
LINE
  8
0
 10
11.6989
 20
14.0561
 11
11.0384
 21
15.6508
  0
LINE
  8
0
 10
11.0384
 20
15.6508
 11
10.6354
 21
17.3292
  0
LINE
  8
0
 10
10.6354
 20
17.3292
 11
10.5
 21
19.05
  0
LINE
  8
0
 10
10.5
 20
19.05
 11
10.6354
 21
20.7708
  0
LINE
  8
0
 10
10.6354
 20
20.7708
 11
11.0384
 21
22.4492
  0
LINE
  8
0
 10
11.0384
 20
22.4492
 11
11.6989
 21
24.0439
  0
LINE
  8
0
 10
11.6989
 20
24.0439
 11
12.6008
 21
25.5156
  0
LINE
  8
0
 10
12.6008
 20
25.5156
 11
13.7218
 21
26.8282
  0
LINE
  8
0
 10
13.7218
 20
26.8282
 11
15.0343
 21
27.9492
  0
LINE
  8
0
 10
15.0343
 20
27.9492
 11
16.5061
 21
28.8511
  0
LINE
  8
0
 10
16.5061
 20
28.8511
 11
18.1008
 21
29.5116
  0
LINE
  8
0
 10
18.1008
 20
29.5116
 11
19.7792
 21
29.9146
  0
LINE
  8
0
 10
19.7792
 20
29.9146
 11
21.5
 21
30.05
  0
LINE
  8
0
 10
21.5
 20
30.05
 11
23.2208
 21
29.9146
  0
LINE
  8
0
 10
23.2208
 20
29.9146
 11
24.8992
 21
29.5116
  0
LINE
  8
0
 10
24.8992
 20
29.5116
 11
26.4939
 21
28.8511
  0
LINE
  8
0
 10
26.4939
 20
28.8511
 11
27.9656
 21
27.9492
  0
LINE
  8
0
 10
27.9656
 20
27.9492
 11
29.2782
 21
26.8282
  0
LINE
  8
0
 10
29.2782
 20
26.8282
 11
30.3992
 21
25.5156
  0
LINE
  8
0
 10
30.3992
 20
25.5156
 11
31.3011
 21
24.0439
  0
LINE
  8
0
 10
31.3011
 20
24.0439
 11
31.9616
 21
22.4492
  0
LINE
  8
0
 10
31.9616
 20
22.4492
 11
32.3646
 21
20.7708
  0
LINE
  8
0
 10
32.3646
 20
20.7708
 11
32.5
 21
19.05
  0
LINE
  8
0
 10
32.5
 20
19.05
 11
32.3646
 21
17.3292
  0
LINE
  8
0
 10
32.3646
 20
17.3292
 11
31.9616
 21
15.6508
  0
LINE
  8
0
 10
31.9616
 20
15.6508
 11
31.3011
 21
14.0561
  0
LINE
  8
0
 10
31.3011
 20
14.0561
 11
30.3992
 21
12.5844
  0
LINE
  8
0
 10
30.3992
 20
12.5844
 11
29.2782
 21
11.2718
  0
LINE
  8
0
 10
29.2782
 20
11.2718
 11
27.9656
 21
10.1508
  0
LINE
  8
0
 10
27.9656
 20
10.1508
 11
26.4939
 21
9.24892
  0
LINE
  8
0
 10
26.4939
 20
9.24892
 11
24.8992
 21
8.58836
  0
LINE
  8
0
 10
24.8992
 20
8.58836
 11
23.2208
 21
8.18542
  0
LINE
  8
0
 10
23.2208
 20
8.18542
 11
21.5
 21
8.04999
  0
LINE
  8
0
 10
21.5
 20
8.04999
 11
19.7792
 21
8.18542
  0
LINE
  8
0
 10
31.1497
 20
7.56969
 11
30.9056
 21
7.6283
  0
LINE
  8
0
 10
30.9056
 20
7.6283
 11
30.6736
 21
7.72438
  0
LINE
  8
0
 10
30.6736
 20
7.72438
 11
30.4595
 21
7.85556
  0
LINE
  8
0
 10
30.4595
 20
7.85556
 11
30.2686
 21
8.01862
  0
LINE
  8
0
 10
30.2686
 20
8.01862
 11
30.1056
 21
8.20953
  0
LINE
  8
0
 10
30.1056
 20
8.20953
 11
29.9744
 21
8.42361
  0
LINE
  8
0
 10
29.9744
 20
8.42361
 11
29.8783
 21
8.65556
  0
LINE
  8
0
 10
29.8783
 20
8.65556
 11
29.8197
 21
8.8997
  0
LINE
  8
0
 10
29.8197
 20
8.8997
 11
29.8
 21
9.14999
  0
LINE
  8
0
 10
29.8
 20
9.14999
 11
29.8197
 21
9.40028
  0
LINE
  8
0
 10
29.8197
 20
9.40028
 11
29.8783
 21
9.64442
  0
LINE
  8
0
 10
29.8783
 20
9.64442
 11
29.9744
 21
9.87637
  0
LINE
  8
0
 10
29.9744
 20
9.87637
 11
30.1056
 21
10.0905
  0
LINE
  8
0
 10
30.1056
 20
10.0905
 11
30.2686
 21
10.2814
  0
LINE
  8
0
 10
30.2686
 20
10.2814
 11
30.4595
 21
10.4444
  0
LINE
  8
0
 10
30.4595
 20
10.4444
 11
30.6736
 21
10.5756
  0
LINE
  8
0
 10
30.6736
 20
10.5756
 11
30.9056
 21
10.6717
  0
LINE
  8
0
 10
30.9056
 20
10.6717
 11
31.1497
 21
10.7303
  0
LINE
  8
0
 10
31.1497
 20
10.7303
 11
31.4
 21
10.75
  0
LINE
  8
0
 10
31.4
 20
10.75
 11
31.6503
 21
10.7303
  0
LINE
  8
0
 10
31.6503
 20
10.7303
 11
31.8944
 21
10.6717
  0
LINE
  8
0
 10
31.8944
 20
10.6717
 11
32.1264
 21
10.5756
  0
LINE
  8
0
 10
32.1264
 20
10.5756
 11
32.3405
 21
10.4444
  0
LINE
  8
0
 10
32.3405
 20
10.4444
 11
32.5314
 21
10.2814
  0
LINE
  8
0
 10
32.5314
 20
10.2814
 11
32.6944
 21
10.0905
  0
LINE
  8
0
 10
32.6944
 20
10.0905
 11
32.8256
 21
9.87637
  0
LINE
  8
0
 10
32.8256
 20
9.87637
 11
32.9217
 21
9.64442
  0
LINE
  8
0
 10
32.9217
 20
9.64442
 11
32.9803
 21
9.40028
  0
LINE
  8
0
 10
32.9803
 20
9.40028
 11
33
 21
9.14999
  0
LINE
  8
0
 10
33
 20
9.14999
 11
32.9803
 21
8.8997
  0
LINE
  8
0
 10
32.9803
 20
8.8997
 11
32.9217
 21
8.65556
  0
LINE
  8
0
 10
32.9217
 20
8.65556
 11
32.8256
 21
8.42361
  0
LINE
  8
0
 10
32.8256
 20
8.42361
 11
32.6944
 21
8.20953
  0
LINE
  8
0
 10
32.6944
 20
8.20953
 11
32.5314
 21
8.01862
  0
LINE
  8
0
 10
32.5314
 20
8.01862
 11
32.3405
 21
7.85556
  0
LINE
  8
0
 10
32.3405
 20
7.85556
 11
32.1264
 21
7.72438
  0
LINE
  8
0
 10
32.1264
 20
7.72438
 11
31.8944
 21
7.6283
  0
LINE
  8
0
 10
31.8944
 20
7.6283
 11
31.6503
 21
7.56969
  0
LINE
  8
0
 10
31.6503
 20
7.56969
 11
31.4
 21
7.54999
  0
LINE
  8
0
 10
31.4
 20
7.54999
 11
31.1497
 21
7.56969
  0
ENDSEC
  0
SECTION
  2
OBJECTS
  0
DICTIONARY
  0
ENDSEC
  0
EOF
