999
Woody controller body rev A - Tail cap (tail_cap)
999
Material: hardwood, the owner's choice (the parts are named oak); stained a very dark ebony, the grain still showing, under a satin oil finish
999
Thickness: 6 mm (ends.tail_cap_t)
999
Quantity per instrument: 1
999
Units mm. Cut every closed outline. cad dfe164fa8569; verify: python3 tools/cad.py explain fab-dxf-tail-cap-recess
  0
SECTION
  2
BLOCKS
  0
ENDSEC
  0
SECTION
  2
ENTITIES
  0
LINE
  8
0
 10
34.1564
 20
5.5623
 11
34.309
 21
5.59894
  0
LINE
  8
0
 10
34.309
 20
5.59894
 11
34.454
 21
5.65898
  0
LINE
  8
0
 10
34.454
 20
5.65898
 11
34.5878
 21
5.74097
  0
LINE
  8
0
 10
34.5878
 20
5.74097
 11
34.7071
 21
5.84288
  0
LINE
  8
0
 10
34.7071
 20
5.84288
 11
34.809
 21
5.9622
  0
LINE
  8
0
 10
34.809
 20
5.9622
 11
34.891
 21
6.09599
  0
LINE
  8
0
 10
34.891
 20
6.09599
 11
34.951
 21
6.24097
  0
LINE
  8
0
 10
34.951
 20
6.24097
 11
34.9877
 21
6.39355
  0
LINE
  8
0
 10
34.9877
 20
6.39355
 11
35
 21
6.54999
  0
LINE
  8
0
 10
35
 20
6.54999
 11
35
 21
31.55
  0
LINE
  8
0
 10
35
 20
31.55
 11
34.9877
 21
31.7064
  0
LINE
  8
0
 10
34.9877
 20
31.7064
 11
34.951
 21
31.859
  0
LINE
  8
0
 10
34.951
 20
31.859
 11
34.891
 21
32.004
  0
LINE
  8
0
 10
34.891
 20
32.004
 11
34.809
 21
32.1378
  0
LINE
  8
0
 10
34.809
 20
32.1378
 11
34.7071
 21
32.2571
  0
LINE
  8
0
 10
34.7071
 20
32.2571
 11
34.5878
 21
32.359
  0
LINE
  8
0
 10
34.5878
 20
32.359
 11
34.4848
 21
32.4246
  0
LINE
  8
0
 10
34.4848
 20
32.4246
 11
27.0075
 21
36.5692
  0
LINE
  8
0
 10
27.0075
 20
36.5692
 11
26.9041
 21
36.6189
  0
LINE
  8
0
 10
26.9041
 20
36.6189
 11
26.8969
 21
36.6219
  0
LINE
  8
0
 10
26.8969
 20
36.6219
 11
26.7488
 21
36.6699
  0
LINE
  8
0
 10
26.7488
 20
36.6699
 11
26.7412
 21
36.6718
  0
LINE
  8
0
 10
26.7412
 20
36.6718
 11
26.5876
 21
36.6962
  0
LINE
  8
0
 10
26.5876
 20
36.6962
 11
26.5798
 21
36.6968
  0
LINE
  8
0
 10
26.5798
 20
36.6968
 11
26.5
 21
36.7
  0
LINE
  8
0
 10
26.5
 20
36.7
 11
16.5
 21
36.7
  0
LINE
  8
0
 10
16.5
 20
36.7
 11
16.4203
 21
36.6968
  0
LINE
  8
0
 10
16.4203
 20
36.6968
 11
16.4125
 21
36.6962
  0
LINE
  8
0
 10
16.4125
 20
36.6962
 11
16.2588
 21
36.6718
  0
LINE
  8
0
 10
16.2588
 20
36.6718
 11
16.2512
 21
36.6699
  0
LINE
  8
0
 10
16.2512
 20
36.6699
 11
16.1031
 21
36.6219
  0
LINE
  8
0
 10
16.1031
 20
36.6219
 11
16.0959
 21
36.6189
  0
LINE
  8
0
 10
16.0959
 20
36.6189
 11
15.9925
 21
36.5692
  0
LINE
  8
0
 10
15.9925
 20
36.5692
 11
8.51521
 21
32.4246
  0
LINE
  8
0
 10
8.51521
 20
32.4246
 11
8.38435
 21
32.338
  0
LINE
  8
0
 10
8.38435
 20
32.338
 11
8.26866
 21
32.232
  0
LINE
  8
0
 10
8.26866
 20
32.232
 11
8.17097
 21
32.1092
  0
LINE
  8
0
 10
8.17097
 20
32.1092
 11
8.0937
 21
31.9726
  0
LINE
  8
0
 10
8.0937
 20
31.9726
 11
8.03874
 21
31.8256
  0
LINE
  8
0
 10
8.03874
 20
31.8256
 11
8.00746
 21
31.6719
  0
LINE
  8
0
 10
8.00746
 20
31.6719
 11
8
 21
31.55
  0
LINE
  8
0
 10
8
 20
31.55
 11
8
 21
6.54999
  0
LINE
  8
0
 10
8
 20
6.54999
 11
8.01231
 21
6.39355
  0
LINE
  8
0
 10
8.01231
 20
6.39355
 11
8.04895
 21
6.24097
  0
LINE
  8
0
 10
8.04895
 20
6.24097
 11
8.10899
 21
6.09599
  0
LINE
  8
0
 10
8.10899
 20
6.09599
 11
8.19098
 21
5.9622
  0
LINE
  8
0
 10
8.19098
 20
5.9622
 11
8.29289
 21
5.84288
  0
LINE
  8
0
 10
8.29289
 20
5.84288
 11
8.41222
 21
5.74097
  0
LINE
  8
0
 10
8.41222
 20
5.74097
 11
8.54601
 21
5.65898
  0
LINE
  8
0
 10
8.54601
 20
5.65898
 11
8.69098
 21
5.59894
  0
LINE
  8
0
 10
8.69098
 20
5.59894
 11
8.84357
 21
5.5623
  0
LINE
  8
0
 10
8.84357
 20
5.5623
 11
9
 21
5.54999
  0
LINE
  8
0
 10
9
 20
5.54999
 11
34
 21
5.54999
  0
LINE
  8
0
 10
34
 20
5.54999
 11
34.1564
 21
5.5623
  0
ENDSEC
  0
SECTION
  2
OBJECTS
  0
DICTIONARY
  0
ENDSEC
  0
EOF
