999
Woody controller body rev A - Tail cap (tail_cap)
999
Material: hardwood, the owner's choice (the parts are named oak); stained a very dark ebony, the grain still showing, under a satin oil finish
999
Thickness: 6 mm (ends.tail_cap_t)
999
Quantity per instrument: 1
999
Units mm. Cut every closed outline. cad adf22fe69b7c; verify: python3 tools/cad.py explain fab-dxf-tail-cap-recess
  0
SECTION
  2
BLOCKS
  0
ENDSEC
  0
SECTION
  2
ENTITIES
  0
LINE
  8
0
 10
41.1564
 20
5.5623
 11
41.309
 21
5.59894
  0
LINE
  8
0
 10
41.309
 20
5.59894
 11
41.454
 21
5.65898
  0
LINE
  8
0
 10
41.454
 20
5.65898
 11
41.5878
 21
5.74097
  0
LINE
  8
0
 10
41.5878
 20
5.74097
 11
41.7071
 21
5.84288
  0
LINE
  8
0
 10
41.7071
 20
5.84288
 11
41.809
 21
5.9622
  0
LINE
  8
0
 10
41.809
 20
5.9622
 11
41.891
 21
6.09599
  0
LINE
  8
0
 10
41.891
 20
6.09599
 11
41.951
 21
6.24097
  0
LINE
  8
0
 10
41.951
 20
6.24097
 11
41.9877
 21
6.39355
  0
LINE
  8
0
 10
41.9877
 20
6.39355
 11
42
 21
6.54999
  0
LINE
  8
0
 10
42
 20
6.54999
 11
42
 21
31.55
  0
LINE
  8
0
 10
42
 20
31.55
 11
41.9877
 21
31.7064
  0
LINE
  8
0
 10
41.9877
 20
31.7064
 11
41.951
 21
31.859
  0
LINE
  8
0
 10
41.951
 20
31.859
 11
41.891
 21
32.004
  0
LINE
  8
0
 10
41.891
 20
32.004
 11
41.809
 21
32.1378
  0
LINE
  8
0
 10
41.809
 20
32.1378
 11
41.7071
 21
32.2571
  0
LINE
  8
0
 10
41.7071
 20
32.2571
 11
41.5878
 21
32.359
  0
LINE
  8
0
 10
41.5878
 20
32.359
 11
41.4848
 21
32.4246
  0
LINE
  8
0
 10
41.4848
 20
32.4246
 11
34.0075
 21
36.5692
  0
LINE
  8
0
 10
34.0075
 20
36.5692
 11
33.9041
 21
36.6189
  0
LINE
  8
0
 10
33.9041
 20
36.6189
 11
33.8969
 21
36.6219
  0
LINE
  8
0
 10
33.8969
 20
36.6219
 11
33.7488
 21
36.6699
  0
LINE
  8
0
 10
33.7488
 20
36.6699
 11
33.7412
 21
36.6718
  0
LINE
  8
0
 10
33.7412
 20
36.6718
 11
33.5876
 21
36.6962
  0
LINE
  8
0
 10
33.5876
 20
36.6962
 11
33.5798
 21
36.6968
  0
LINE
  8
0
 10
33.5798
 20
36.6968
 11
33.5
 21
36.7
  0
LINE
  8
0
 10
33.5
 20
36.7
 11
23.5
 21
36.7
  0
LINE
  8
0
 10
23.5
 20
36.7
 11
23.4203
 21
36.6968
  0
LINE
  8
0
 10
23.4203
 20
36.6968
 11
23.4125
 21
36.6962
  0
LINE
  8
0
 10
23.4125
 20
36.6962
 11
23.2588
 21
36.6718
  0
LINE
  8
0
 10
23.2588
 20
36.6718
 11
23.2512
 21
36.6699
  0
LINE
  8
0
 10
23.2512
 20
36.6699
 11
23.1031
 21
36.6219
  0
LINE
  8
0
 10
23.1031
 20
36.6219
 11
23.0959
 21
36.6189
  0
LINE
  8
0
 10
23.0959
 20
36.6189
 11
22.9925
 21
36.5692
  0
LINE
  8
0
 10
22.9925
 20
36.5692
 11
15.5152
 21
32.4246
  0
LINE
  8
0
 10
15.5152
 20
32.4246
 11
15.3844
 21
32.338
  0
LINE
  8
0
 10
15.3844
 20
32.338
 11
15.2687
 21
32.232
  0
LINE
  8
0
 10
15.2687
 20
32.232
 11
15.171
 21
32.1092
  0
LINE
  8
0
 10
15.171
 20
32.1092
 11
15.0937
 21
31.9726
  0
LINE
  8
0
 10
15.0937
 20
31.9726
 11
15.0387
 21
31.8256
  0
LINE
  8
0
 10
15.0387
 20
31.8256
 11
15.0075
 21
31.6719
  0
LINE
  8
0
 10
15.0075
 20
31.6719
 11
15
 21
31.55
  0
LINE
  8
0
 10
15
 20
31.55
 11
15
 21
6.54999
  0
LINE
  8
0
 10
15
 20
6.54999
 11
15.0123
 21
6.39355
  0
LINE
  8
0
 10
15.0123
 20
6.39355
 11
15.049
 21
6.24097
  0
LINE
  8
0
 10
15.049
 20
6.24097
 11
15.109
 21
6.09599
  0
LINE
  8
0
 10
15.109
 20
6.09599
 11
15.191
 21
5.9622
  0
LINE
  8
0
 10
15.191
 20
5.9622
 11
15.2929
 21
5.84288
  0
LINE
  8
0
 10
15.2929
 20
5.84288
 11
15.4122
 21
5.74097
  0
LINE
  8
0
 10
15.4122
 20
5.74097
 11
15.546
 21
5.65898
  0
LINE
  8
0
 10
15.546
 20
5.65898
 11
15.691
 21
5.59894
  0
LINE
  8
0
 10
15.691
 20
5.59894
 11
15.8436
 21
5.5623
  0
LINE
  8
0
 10
15.8436
 20
5.5623
 11
16
 21
5.54999
  0
LINE
  8
0
 10
16
 20
5.54999
 11
41
 21
5.54999
  0
LINE
  8
0
 10
41
 20
5.54999
 11
41.1564
 21
5.5623
  0
ENDSEC
  0
SECTION
  2
OBJECTS
  0
DICTIONARY
  0
ENDSEC
  0
EOF
